700 0 1 0           
4 LibG 20 ASM 224.0.1.65535 NT 24 Wed Jul 17 12:56:14 2019 
1000 9.999999999999999547e-07 1.000000000000000036e-10 
body $-1 -1 $-1 $1 $-1 $2 #
lump $-1 -1 $-1 $-1 $3 $0 #
transform $-1 -1 1 0 0 0 1 0 0 0 1 0 0 0 1 no_rotate no_reflect no_shear #
shell $-1 -1 $-1 $-1 $-1 $4 $-1 $1 #
face $-1 -1 $-1 $5 $6 $3 $-1 $7 forward single #
face $-1 -1 $-1 $8 $9 $3 $-1 $10 forward single #
loop $-1 -1 $-1 $-1 $11 $4 #
plane-surface $-1 -1 $-1 11200 8199.970000000001164 15650.00000000000909 -9.722867065027560085e-32 -7.292150298770673348e-33 -1 -304.8000000000000114 0 2.963529881420400572e-29 forward_v I I I I #
face $-1 -1 $-1 $12 $13 $3 $-1 $14 forward single #
loop $-1 -1 $-1 $-1 $15 $5 #
plane-surface $-1 -1 $-1 11200 8199.970000000001164 15650.00000000000728 1 -3.374885613208518262e-31 7.553315420038113009e-31 2.30225054002761682e-28 0 -304.8000000000000114 forward_v I I I I #
coedge $-1 -1 $-1 $16 $17 $18 $19 forward $6 $-1 #
face $-1 -1 $-1 $20 $21 $3 $-1 $22 forward single #
loop $-1 -1 $-1 $-1 $23 $8 #
plane-surface $-1 -1 $-1 9999.999999999998181 10000 15650.00000000000728 -1 -2.410632580863227486e-32 -4.660556323002239588e-31 -1.420537567251082714e-28 0 304.8000000000000114 forward_v I I I I #
coedge $-1 -1 $-1 $24 $25 $17 $26 reversed $9 $-1 #
coedge $-1 -1 $-1 $27 $11 $23 $28 forward $6 $-1 #
coedge $-1 -1 $-1 $11 $27 $15 $26 forward $6 $-1 #
coedge $-1 -1 $-1 $29 $30 $11 $19 reversed $21 $-1 #
edge $-1 -1 $-1 $31 0 $32 3.937007874015748143 $11 $33 forward @7 unknown #
face $-1 -1 $-1 $34 $35 $3 $-1 $36 forward single #
loop $-1 -1 $-1 $-1 $18 $12 #
plane-surface $-1 -1 $-1 10000 8199.969999999999345 15650 -4.021266185579365016e-31 -1 -2.970935465465350707e-31 0 9.055411298738389774e-29 -304.8000000000000114 forward_v I I I I #
coedge $-1 -1 $-1 $37 $38 $16 $28 reversed $13 $-1 #
coedge $-1 -1 $-1 $39 $15 $40 $41 reversed $9 $-1 #
coedge $-1 -1 $-1 $15 $39 $29 $42 reversed $9 $-1 #
edge $-1 -1 $-1 $43 0 $31 5.905610236220468323 $17 $44 forward @7 unknown #
coedge $-1 -1 $-1 $17 $16 $45 $46 forward $6 $-1 #
edge $-1 -1 $-1 $32 0 $47 5.905610236220468323 $16 $48 forward @7 unknown #
coedge $-1 -1 $-1 $49 $18 $25 $42 forward $21 $-1 #
coedge $-1 -1 $-1 $18 $49 $37 $50 forward $21 $-1 #
vertex $-1 -1 $-1 $19 $51 #
vertex $-1 -1 $-1 $19 $52 #
straight-curve $-1 -1 $-1 11200 8199.970000000001164 15650.00000000000182 -304.8000000000000114 0 0 F 0 F 3.937007874015748143 #
face $-1 -1 $-1 $-1 $53 $3 $-1 $54 forward single #
loop $-1 -1 $-1 $-1 $45 $20 #
plane-surface $-1 -1 $-1 11200 9999.999999999998181 15650 -1.440453559013504269e-31 1 4.141303982163822118e-31 0 -1.262269453763532957e-28 304.8000000000000114 forward_v I I I I #
coedge $-1 -1 $-1 $55 $23 $30 $50 reversed $13 $-1 #
coedge $-1 -1 $-1 $23 $55 $56 $57 forward $13 $-1 #
coedge $-1 -1 $-1 $25 $24 $58 $59 reversed $9 $-1 #
coedge $-1 -1 $-1 $45 $60 $24 $41 forward $35 $-1 #
edge $-1 -1 $-1 $61 0 $43 4.921259842519681627 $40 $62 forward @7 unknown #
edge $-1 -1 $-1 $31 0 $63 4.921259842519681627 $29 $64 forward @7 unknown #
vertex $-1 -1 $-1 $46 $65 #
straight-curve $-1 -1 $-1 11200 10000 15650.00000000000182 0 -304.8000000000000114 0 F 0 F 5.905610236220468323 #
coedge $-1 -1 $-1 $56 $40 $27 $46 reversed $35 $-1 #
edge $-1 -1 $-1 $47 0 $43 3.937007874015748143 $27 $66 forward @7 unknown #
vertex $-1 -1 $-1 $28 $67 #
straight-curve $-1 -1 $-1 10000 8199.970000000001164 15650.00000000000182 0 304.8000000000000114 0 F 0 F 5.905610236220468323 #
coedge $-1 -1 $-1 $30 $29 $68 $69 reversed $21 $-1 #
edge $-1 -1 $-1 $70 0 $32 4.921259842519681627 $30 $71 forward @7 unknown #
point $-1 -1 $-1 11200 8199.970000000001164 15650.00000000000182 #
point $-1 -1 $-1 10000 8199.970000000001164 15650.00000000000182 #
loop $-1 -1 $-1 $-1 $58 $34 #
plane-surface $-1 -1 $-1 11200 8199.970000000001164 17150.00000000000364 -3.646075149385333664e-32 -3.597460814060198961e-31 1 304.8000000000000114 0 1.111323705532649794e-29 forward_v I I I I #
coedge $-1 -1 $-1 $38 $37 $72 $73 reversed $13 $-1 #
coedge $-1 -1 $-1 $60 $45 $38 $57 reversed $35 $-1 #
edge $-1 -1 $-1 $74 0 $47 4.921259842519681627 $38 $75 forward @7 unknown #
coedge $-1 -1 $-1 $76 $68 $39 $59 forward $53 $-1 #
edge $-1 -1 $-1 $63 0 $61 5.905610236220468323 $58 $77 forward @7 unknown #
coedge $-1 -1 $-1 $40 $56 $76 $78 reversed $35 $-1 #
vertex $-1 -1 $-1 $59 $79 #
straight-curve $-1 -1 $-1 11200 10000 17150 0 0 -304.8000000000000114 F 0 F 4.921259842519681627 #
vertex $-1 -1 $-1 $59 $80 #
straight-curve $-1 -1 $-1 11200 8199.970000000001164 15650.00000000000182 0 0 304.8000000000000114 F 0 F 4.921259842519681627 #
point $-1 -1 $-1 11200 10000 15650.00000000000182 #
straight-curve $-1 -1 $-1 10000 10000 15650.00000000000182 304.8000000000000114 0 0 F 0 F 3.937007874015748143 #
point $-1 -1 $-1 10000 10000 15650.00000000000182 #
coedge $-1 -1 $-1 $58 $72 $49 $69 forward $53 $-1 #
edge $-1 -1 $-1 $70 0 $63 3.937007874015748143 $68 $81 forward @7 unknown #
vertex $-1 -1 $-1 $73 $82 #
straight-curve $-1 -1 $-1 10000 8199.970000000001164 17150 0 0 -304.8000000000000114 F 0 F 4.921259842519681627 #
coedge $-1 -1 $-1 $68 $76 $55 $73 forward $53 $-1 #
edge $-1 -1 $-1 $74 0 $70 5.905610236220468323 $72 $83 forward @7 unknown #
vertex $-1 -1 $-1 $78 $84 #
straight-curve $-1 -1 $-1 10000 10000 17150 0 0 -304.8000000000000114 F 0 F 4.921259842519681627 #
coedge $-1 -1 $-1 $72 $58 $60 $78 forward $53 $-1 #
straight-curve $-1 -1 $-1 11200 8199.970000000001164 17150 0 304.8000000000000114 0 F 0 F 5.905610236220468323 #
edge $-1 -1 $-1 $61 0 $74 3.937007874015748143 $76 $85 forward @7 unknown #
point $-1 -1 $-1 11200 10000 17150 #
point $-1 -1 $-1 11200 8199.970000000001164 17150 #
straight-curve $-1 -1 $-1 10000 8199.970000000001164 17150 304.8000000000000114 0 0 F 0 F 3.937007874015748143 #
point $-1 -1 $-1 10000 8199.970000000001164 17150 #
straight-curve $-1 -1 $-1 10000 10000 17150 0 -304.8000000000000114 0 F 0 F 5.905610236220468323 #
point $-1 -1 $-1 10000 10000 17150 #
straight-curve $-1 -1 $-1 11200 10000 17150 -304.8000000000000114 0 0 F 0 F 3.937007874015748143 #
End-of-ACIS-data 