700 0 1 0           
4 LibG 20 ASM 224.0.1.65535 NT 24 Wed Jul 17 15:51:49 2019 
1000 9.999999999999999547e-07 1.000000000000000036e-10 
body $-1 -1 $-1 $1 $-1 $2 #
lump $-1 -1 $-1 $-1 $3 $0 #
transform $-1 -1 1 0 0 0 1 0 0 0 1 0 0 0 1 no_rotate no_reflect no_shear #
shell $-1 -1 $-1 $-1 $-1 $4 $-1 $1 #
face $-1 -1 $-1 $-1 $5 $3 $-1 $6 forward double out #
loop $-1 -1 $-1 $-1 $7 $4 #
spline-surface $-1 -1 $-1 forward { exactsur full nubs 3 3 open open none none 40 2 
	-1.191870093424937621e-07 3 0.02564102564102564014 1 0.05128205128205128027 1 0.07692307692307692735 1 0.1025641025641025605 1 
	0.1282051282051281937 1 0.1538461538461538269 1 0.1794871794871794601 1 0.2051282051282050933 1 0.2307692307692307265 1 
	0.2564102564102563875 1 0.2820512820512820484 1 0.3076923076923077094 1 0.3333333333333333703 1 0.3589743589743590313 1 
	0.3846153846153846922 1 0.4102564102564103532 1 0.4358974358974360142 1 0.4615384615384616751 1 0.4871794871794873361 1 
	0.512820512820512997 1 0.538461538461538658 1 0.5641025641025643189 1 0.5897435897435899799 1 0.6153846153846156408 1 
	0.6410256410256413018 1 0.6666666666666669627 1 0.6923076923076926237 1 0.7179487179487182846 1 0.7435897435897439456 1 
	0.7692307692307696065 1 0.7948717948717952675 1 0.8205128205128209284 1 0.8461538461538465894 1 0.8717948717948722503 1 
	0.8974358974358979113 1 0.9230769230769235723 1 0.9487179487179492332 1 0.9743589743589748942 1 1.000000000000000444 3 
	-1.191870094297283618e-07 3 0.1000418327985311828 3 
	9057.764641117300926 927.5102874537143407 14489.99999999986358 
	9080.478443642681668 940.5256395107852541 14490.00001954493746 
	9125.905656476052172 966.5561188784346314 14485.79526494588208 
	9192.299962473249252 1004.601059445865303 14467.03547138564136 
	9255.245504342001368 1040.669806056189145 14436.30396646830741 
	9313.12895088724872 1073.837895556891681 14394.38847628092844 
	9364.466527351431068 1103.25510259175303 14342.36344034468675 
	9407.942279082857567 1128.16736526102909 14281.56244093312307 
	9442.441770126864867 1147.936094923347582 14213.54401872900598 
	9467.080659170163926 1162.054550643625134 14140.05172201621463 
	9481.227365845075838 1170.16082732787163 14062.96941348461223 
	9484.519260978957391 1172.047132980770357 13984.27298028953373 
	9476.871961863991601 1167.665115035700182 13905.97968520481299 
	9458.481495325771903 1157.127099825731875 13830.09645717505191 
	9429.819272862700018 1140.703213262566351 13758.5684467598021 
	9391.620006736169671 1118.814456573632924 13693.22916517225531 
	9344.862876743882225 1092.021914578614997 13635.75348502185807 
	9290.74643044271761 1061.012373137889881 13587.61470751510569 
	9230.657860214052562 1026.580714446738284 13550.0467966311553 
	9166.137444707515897 989.6095414453118337 13524.01274834133255 
	9098.839066152149826 951.0465536413395284 13510.17990567942797 
	9030.487815613536441 911.8802542818610846 13508.90285242307982 
	8962.835772921196622 873.1146115834670809 13520.21432388062021 
	8897.617094780311163 835.743323541671657 13543.82436777148723 
	8836.503562315305317 800.7243460017158441 13579.12777670972719 
	8781.061727516145766 768.9553369247581713 13625.21960177023902 
	8732.712757072591558 741.2506462981391451 13680.91834947122152 
	8692.696002938460879 718.3204415182489129 13744.79626755357276 
	8662.037233438622934 700.7525033347989165 13815.21594322770579 
	8641.522339266170093 688.997158989893137 13890.37227574751341 
	8631.677188374856996 683.3557387669998207 13968.33874740880674 
	8632.7541461612891 683.9728518516689064 14047.11680688599336 
	8644.72560645116755 690.8326794888934046 14124.68709903996933 
	8667.284699188203376 703.7593804995444771 14199.06122800217418 
	8699.853156404249603 722.4215986001395322 14268.33272665680852 
	8741.596135886520642 746.3409565881170238 14330.72592603556222 
	8791.443618649329437 774.9043174164849006 14384.64147178655003 
	8848.117846312547044 807.3795062262475994 14428.69732151768039 
	8910.166040607524337 842.9340591176996895 14461.76417007467717 
	8975.997769558120126 880.6566345367788244 14482.99440227810737 
	9021.28275247095371 906.6056140108375985 14488.89400249713981 
	9043.984514555928399 919.614066713622492 14489.74253064238837 
	9115.792882077044851 826.2420305227044537 14489.99999999985994 
	9138.095961537124822 840.028180510113657 14490.00001958518806 
	9182.701734139283872 867.6002417449082031 14485.78660507653694 
	9247.89186919594249 907.8962285417302382 14466.98850834709447 
	9309.68860117496115 946.0949749330336545 14436.19536112076639 
	9366.504726561568532 981.2155239349937119 14394.19809470094151 
	9416.880781197054603 1012.355854078753509 14342.07546106518748 
	9459.522755786054404 1038.716185923566627 14281.1662944212585 
	9493.33530210473873 1059.619502455104112 14213.03512130864874 
	9517.449878463829009 1074.528942683546347 14139.43197348117064 
	9531.247057707594649 1083.061588508509885 14062.24743584325188 
	9534.372439111795757 1084.998299653040476 13983.46408410755794 
	9526.745751589523934 1080.289341688654986 13905.10555957672841 
	9508.562915405556851 1069.055663245841515 13829.18458914549046 
	9480.291009169135577 1051.585789439666087 13757.65128571157038 
	9442.656271473362722 1028.328411349500811 13692.34305698013486 
	9396.625445379097073 999.8808618749832249 13634.9374093299557 
	9343.380944973083388 966.9737739591278114 13586.90885904402057 
	9284.290481919193553 930.452315215970998 13549.49105770052847 
	9220.871932232608742 891.2544809315555767 13523.64510458444238 
	9154.754345772620582 850.3870029579138645 13510.03486005415471 
	9087.636100032968898 808.8994932517725829 13509.00989396525983 
	9021.241273163112055 767.8574861494420247 13520.59650713309748 
	8957.275356895606819 728.3150717526842755 13544.49705644548158 
	8897.381447008579926 691.2878233008115103 13580.09760094351805 
	8843.098036683237297 657.7267138520626304 13626.48367245060581 
	8795.819496938802331 628.4936921865968316 13682.46376563753256 
	8756.760259300161124 604.3395452269207908 13746.59994412613742 
	8726.923620748793837 585.8846155435591072 13817.24477644847138 
	8707.075972270100465 573.602869183421717 13892.58365308729844 
	8697.727112986372958 567.8097230070370642 13970.68139760474878 
	8699.11715554523289 568.6539441656522058 14049.53197456819362 
	8711.210359092347062 576.1138297448853791 14127.11001743901397 
	8733.696048296940717 589.9977647285832063 14201.42285284780701 
	8765.996594522677697 609.9491437675374073 14270.56168492272627 
	8807.282255136833555 635.4555309686652436 14332.75062495710881 
	8856.492485891951219 665.8618200509729377 14386.39230690425211 
	8912.363193285977104 700.3870657473911479 14430.10891744618493 
	8973.459173120269043 738.1445209576032767 14462.77758509588057 
	9038.211102425197168 778.1644888821296036 14483.55922544127316 
	9082.707291734293904 805.6674569057834105 14489.13312769224831 
	9105.001879448314867 819.4482076415719121 14489.81416883839665 
	9178.890783870900123 727.8789902785405275 14489.99999999985994 
	9200.743882979741102 742.4165435355994305 14490.00001962544047 
	9244.449701525207274 771.4913975315340622 14485.77794520718635 
	9308.321119765383628 813.981378266395609 14466.94154530855121 
	9368.860858715202994 854.2553153869026801 14436.08675577321992 
	9424.510805830328536 891.276830490927523 14394.0077131209564 
	9473.838516736379461 924.0931204553138514 14341.78748178569003 
	9515.574308187262432 951.8596265332982966 14280.77014790939575 
	9548.643906929957666 973.861748296131168 14212.52622388828968 
	9572.196110344120825 989.5332406231332243 14138.81222494612848 
	9585.624693999672672 998.4707851090583972 14061.52545820189698 
	9588.584016393428101 1000.444370293961811 13982.65518792558214 
	9580.997915402764193 995.4032110432241325 13904.23143394864928 
	9563.061668481735978 983.477055413827884 13828.27272111592356 
	9535.236965877867988 964.9728451961852898 13756.7341246633423 
	9498.240026341673001 940.3668161316201122 13691.4569487880126 
	9453.023161223351053 910.2922411115563364 13634.12133363805151 
	9400.750261517117906 875.5231318158365639 13586.20301057293364 
	9342.766838832201756 836.9543182589670778 13548.93531876989982 
	9280.565391454949349 795.5784189343549997 13523.27746082754675 
	9215.746986998743523 752.4602942709872195 13509.88981442887598 
	9149.980050524034596 708.709640887175965 13509.11693550743803 
	9084.957418941135984 665.4524319745711409 13520.97869038558201 
	9022.352767133312227 623.801938840804155 13545.16974511947046 
	8963.777527407368325 584.8300794173679833 13581.06742517730527 
	8910.739411178446971 549.5398311225318366 13627.74774313096896 
	8864.603600550697593 518.8394180745860922 13684.00918180383269 
	8826.557608729031926 493.5189369830434885 13748.40362069870207 
	8797.580713757119156 474.2300232803298172 13819.27360966923516 
	8778.418752355704783 461.4690808095202215 13894.79503042708529 
	8769.564922660012598 455.5645066671319796 13973.02404780069264 
	8771.247089988384687 456.668239981136594 14051.9471422503957 
	8783.421922357147196 464.7518521033686056 14129.53293583805316 
	8805.776006747744759 479.6072788755387819 14203.78447769344348 
	8837.733917098803431 500.8521759265785818 14272.79064318864403 
	8878.473027344605725 527.9397598351885108 14334.77532387865176 
	8926.944684390537077 560.1728793409690752 14388.14314202195419 
	8981.901210166295641 596.7219638629970859 14431.52051337469675 
	9041.927984841830039 636.6463522296149904 14463.79100011708397 
	9105.479982605580517 678.9185838577566301 14484.12404860443348 
	9149.107383133810799 707.9398863752491025 14489.37225288735681 
	9170.955368705303044 722.4738845404543781 14489.88580703440311 
	9246.743065543487319 632.9126568161136674 14489.99999999986176 
	9268.10894956377706 648.1783192609300386 14490.00001966569471 
	9310.84034530657118 678.7093781483539487 14485.76928533783939 
	9373.28446468666516 723.3249366347270097 14466.89458227000614 
	9432.464785037713227 765.6085506896024526 14435.97815042568436 
	9486.855148276974433 804.4697990551272824 14393.81733154097128 
	9535.052743167227163 838.9063902838303193 14341.4995025061944 
	9575.814502675315453 868.0301682055060155 14280.37400139753299 
	9608.089131849063051 891.089995453007873 14212.01732646793243 
	9631.044230593948669 907.4911323539683963 14138.19247641108268 
	9644.087759928845117 916.8105743076174576 14060.80348056053845 
	9646.883311985613545 918.8079620124719895 13981.84629174360452 
	9639.358786195556604 913.4317804952838742 13903.35730832056834 
	9621.708248892135089 900.8206877743897394 13827.36085308635847 
	9594.386928100993828 881.2999386985226238 13755.81696361511422 
	9558.099472679314204 855.372996245656168 13690.57084059589397 
	9513.781778595775904 823.7085466226246808 13633.30525794615642 
	9462.576851077794345 787.123253064984965 13585.4971621018467 
	9405.805325168163108 746.5606931357765461 13548.37957983927481 
	9344.931405000836094 703.0670227552428742 13522.90981707065475 
	9281.525100261666012 657.7639946145847034 13509.74476880359543 
	9217.221733800135553 611.820026860433245 13509.22397704961986 
	9153.679764738011727 566.4200682226302206 13521.36087363806473 
	9092.538014866569938 522.7350367988652806 13545.84243379346663 
	9035.373401513439603 481.8916207057816905 13582.03724941109249 
	8983.660266998163934 444.9432194730548531 13629.01181381133392 
	8938.732353617251647 412.8427756359754426 13685.55459797014191 
	8901.748404868554644 386.418197231550721 13750.20729727126673 
	8873.662280099448253 366.3510050806929712 13821.3024428900062 
	8855.198353357523956 353.1587555683215669 13897.00640776687396 
	8846.83283093476166 347.1816922575280273 13975.36669799663832 
	8848.781469452831516 348.5739706119197194 14054.3623099325996 
	8860.994011235197831 357.2996821371609713 14131.95585423709599 
	8883.155480556019029 373.1337805349436962 14206.14610253908177 
	8914.69430706662024 395.6678857916792822 14275.0196014545636 
	8954.797067884950593 424.3208172208924793 14336.80002280019835 
	9002.429464407065097 458.3535811380679093 14389.89397713965263 
	9056.363006727269749 496.8884365520361257 14432.93210930320129 
	9115.20666555666503 538.9315100730957511 14464.80441513829101 
	9177.44286894826655 583.3985151322311822 14484.68887176759563 
	9220.12508480010365 613.894435589917407 14489.61137808246895 
	9241.489013961700039 629.1587013121401242 14489.95744523041321 
	0 
	
	0 
	0 
	38 0.02564102564102564014 0.05128205128205128027 0.07692307692307692735 0.1025641025641025605 0.1282051282051281937 0.1538461538461538269 0.1794871794871794601 0.2051282051282050933 0.2307692307692307265 0.2564102564102563875 0.2820512820512820484 0.3076923076923077094 0.3333333333333333703 0.3589743589743590313 0.3846153846153846922 0.4102564102564103532 0.4358974358974360142 0.4615384615384616751 0.4871794871794873361 0.512820512820512997 0.538461538461538658 0.5641025641025643189 0.5897435897435899799 0.6153846153846156408 0.6410256410256413018 0.6666666666666669627 0.6923076923076926237 0.7179487179487182846 0.7435897435897439456 0.7692307692307696065 0.7948717948717952675 0.8205128205128209284 0.8461538461538465894 0.8717948717948722503 0.8974358974358979113 0.9230769230769235723 0.9487179487179492332 0.9743589743589748942 
	0 
	0 
	0 
	F 1 F 0 F 1 F 0 } I I I I #
tcoedge-coedge $-1 -1 $-1 $8 $9 $-1 $10 forward $5 $11 0 6.250766387756696574 #
coedge $-1 -1 $-1 $12 $7 $-1 $13 forward $5 $14 #
coedge $-1 -1 $-1 $7 $12 $-1 $15 forward $5 $16 #
tedge-edge $-1 -1 $-1 $17 -7.814085595768073775e-29 $18 6.250766387756696574 $7 $19 forward @7 unknown 0.0008503927516081863326 #
pcurve $-1 -1 $-1 0 forward { exppc nubs 1 open 2 
	0 1 6.250766387756696574 1 
	0 0 
	0.9999999999999990008 5.085555368733435788e-17 
	6.692117006843767018e-08 
	spline forward { ref 0 } I I I I 
	} 0 0 #
tcoedge-coedge $-1 -1 $-1 $9 $8 $-1 $20 forward $5 $21 0 6.270005910518958281 #
edge $-1 -1 $-1 $18 -1.597735222629610874 $22 -1.48213359838493286 $8 $23 forward @7 unknown #
pcurve $-1 -1 $-1 0 forward { exppc nubs 3 open 2 
	-1.597735222629610874 3 -1.48213359838493286 3 
	1.000000000000000444 6.680716339748447627e-17 
	0.9999999975121002249 0.03330815819588958671 
	1.000000000000000444 0.06667390754963639643 
	1.000000000000000444 0.1000417136115216848 
	2.005072197719800468e-06 
	spline forward { ref 0 } I I I I 
	} 0 0 #
edge $-1 -1 $-1 $24 -0.1000208620216077177 $17 1.61593686276073461e-16 $9 $25 forward @7 unknown #
pcurve $-1 -1 $-1 0 forward { exppc nubs 1 open 2 
	-0.100020862021607565 1 -4.577463675720866368e-27 1 
	8.809171935980934306e-16 0.100041713611521671 
	1.630669033560530654e-16 7.583230847303889386e-17 
	0.0009308921386730682583 
	spline forward { ref 0 } I I I I 
	} 0 0 #
tvertex-vertex $-1 -1 $-1 $10 $26 1.406738395668033167e-11 #
tvertex-vertex $-1 -1 $-1 $10 $27 1.429007792811562631e-11 #
ellipse-curve $-1 -1 $-1 9057.765165257027547 927.5101070057436345 13999.99999999999636 -0.497176401595541495 0.8676494831995861245 -1.866841522894316655e-12 -5.771681799160432795e-10 7.234906007624886115e-10 489.9999999999990337 1 F -7.814085595768073775e-29 F 6.250766387756696574 #
tedge-edge $-1 -1 $-1 $22 -2.279479562207304003e-15 $24 6.270005910518958281 $12 $28 forward @7 unknown 0.0008609630530526073003 #
pcurve $-1 -1 $-1 0 forward { exppc nubs 1 open 2 
	0 1 6.270005910518958281 1 
	1 0.1000417136115216848 
	8.613277537245789039e-16 0.1000417136115216016 
	7.686907367204290033e-08 
	spline forward { ref 0 } I I I I 
	} 0 0 #
tvertex-vertex $-1 -1 $-1 $13 $29 1.266134063866039083e-11 #
ellipse-curve $-1 -1 $-1 11302.42902527128899 2271.333328578331475 14489.87869744834825 -0.0003576090081724876408 0.0004967550142961818429 0.9999998126751089567 1641.872893419376851 -2559.019437053053935 1.858354622114570143 0.8655747823327258894 F -1.597735222629610874 F -1.48213359838493286 #
tvertex-vertex $-1 -1 $-1 $20 $30 1.190573866964771226e-11 #
ellipse-curve $-1 -1 $-1 12095.15276573067604 2668.02164372650941 14489.99999999913234 -2.049047065523357063e-13 -1.38793745325944334e-13 -1 -3037.387600474223291 -1740.511536720042386 8.64127969180117444e-10 1 F -0.1000208620216077177 F 1.61593686276073461e-16 #
point $-1 -1 $-1 9057.765165256450928 927.5101070064671376 14489.99999999999636 #
point $-1 -1 $-1 9043.984732638775313 919.6137087097479252 14489.74253089843114 #
ellipse-curve $-1 -1 $-1 9246.743120977575018 632.9132091099883155 13999.99999999999818 0.581346943852074749 -0.8136557815648166603 7.97830471139464228e-12 -5.254359110924767151 -3.754174279022078675 489.9574449743724927 1 F -2.279479562207304003e-15 F 6.270005910518958281 #
point $-1 -1 $-1 9241.488761866652567 629.1590348309662204 14489.95744497436863 #
point $-1 -1 $-1 9246.743120975263082 632.9132091131413063 14489.99999999999818 #
End-of-ACIS-data 