700 0 1 0           
4 LibG 20 ASM 224.0.1.65535 NT 24 Wed Jul 17 15:51:49 2019 
1000 9.999999999999999547e-07 1.000000000000000036e-10 
body $-1 -1 $-1 $1 $-1 $2 #
lump $-1 -1 $-1 $-1 $3 $0 #
transform $-1 -1 1 0 0 0 1 0 0 0 1 0 0 0 1 no_rotate no_reflect no_shear #
shell $-1 -1 $-1 $-1 $-1 $4 $-1 $1 #
face $-1 -1 $-1 $-1 $5 $3 $-1 $6 forward double out #
loop $-1 -1 $-1 $-1 $7 $4 #
spline-surface $-1 -1 $-1 forward { exactsur full nubs 3 3 open open none none 40 2 
	-1.191870091477650168e-07 3 0.02564102564102564014 1 0.05128205128205128027 1 0.07692307692307692735 1 0.1025641025641025605 1 
	0.1282051282051281937 1 0.1538461538461538269 1 0.1794871794871794601 1 0.2051282051282050933 1 0.2307692307692307265 1 
	0.2564102564102563875 1 0.2820512820512820484 1 0.3076923076923077094 1 0.3333333333333333703 1 0.3589743589743590313 1 
	0.3846153846153846922 1 0.4102564102564103532 1 0.4358974358974360142 1 0.4615384615384616751 1 0.4871794871794873361 1 
	0.512820512820512997 1 0.538461538461538658 1 0.5641025641025643189 1 0.5897435897435899799 1 0.6153846153846156408 1 
	0.6410256410256413018 1 0.6666666666666669627 1 0.6923076923076926237 1 0.7179487179487182846 1 0.7435897435897439456 1 
	0.7692307692307696065 1 0.7948717948717952675 1 0.8205128205128209284 1 0.8461538461538465894 1 0.8717948717948722503 1 
	0.8974358974358979113 1 0.9230769230769235723 1 0.9487179487179492332 1 0.9743589743589748942 1 1.000000000000000444 3 
	-1.191870091477650168e-07 3 0.1000418327985308359 3 
	4854.859283467941168 3025.647930121866011 13510.00000000013461 
	4853.549917168445063 2999.502150840591185 13509.99998045507346 
	4850.931207179324701 2947.211043758115466 13514.20473505411064 
	4847.10382219373696 2870.784788480229508 13532.96452861435864 
	4843.475245642784103 2798.328393625082754 13563.69603353169805 
	4840.138480073898791 2731.698959133852895 13605.61152371907519 
	4837.179059587390839 2672.604452981997838 13657.63655965531325 
	4834.672844078173512 2622.559666003363873 13718.43755906687693 
	4832.684076637211547 2582.847421558817132 13786.45598127099402 
	4831.263736254561991 2554.48568186586499 13859.94827798378719 
	4830.448231191139712 2538.201456894465082 13937.03058651539322 
	4830.258465671034173 2534.412167827108533 14015.72701971046808 
	4830.699304043741904 2543.21494730599079 14094.02031479518882 
	4831.759446091305108 2564.384149532286756 14169.90354282494991 
	4833.411716692841765 2597.377134365756319 14241.43155324019608 
	4835.613762417055113 2641.348177071398368 14306.77083482774651 
	4838.309137187735359 2695.170147181344873 14364.24651497814375 
	4841.428749192643409 2757.463400761248067 14412.38529248489613 
	4844.892631946509937 2826.631145473766537 14449.95320336884288 
	4848.61199410964764 2900.90037190933117 14475.98725165866927 
	4852.491495518217562 2978.367301972240057 14489.82009432057203 
	4856.431691083615078 3057.046189322119517 14491.09714757691836 
	4860.331579915286056 3134.92022094605727 14479.78567611938524 
	4864.091194324191747 3209.993215077397053 14456.17563222851459 
	4867.614162341702468 3280.340790264055158 14420.87222329027281 
	4870.810178067698871 3344.159693945554409 14374.78039822976098 
	4873.597316524304915 3399.814026076056962 14319.08165052877848 
	4875.904133677441678 3445.877172921457259 14255.20373244642906 
	4877.671497795461619 3481.168376121916481 14184.78405677229603 
	4878.854105200678532 3504.782999627264417 14109.62772425248659 
	4879.421641559956697 3516.115718660440052 14031.66125259119144 
	4879.359558946094694 3514.876036288994783 13952.88319311400846 
	4878.669448752443714 3501.095729884367756 13875.31290096003249 
	4877.369000897266233 3475.128036503694148 13800.93877199782764 
	4875.491550379780165 3437.638598398781596 13731.66727334319512 
	4873.085222750857611 3389.588399544287768 13669.27407396443778 
	4870.211700628287872 3332.209135082187458 13615.35852821345179 
	4866.944642033875425 3266.97162825066971 13571.30267848232506 
	4863.367794235549809 3195.548167074344292 13538.23582992532283 
	4859.572839725874474 3119.769492282932333 13517.00559772189081 
	4856.962328763074765 3067.642105568521401 13511.10599750286383 
	4855.653656550218329 3041.510185996421114 13510.25746935761526 
	4971.428822468665203 3019.810191871067218 13510.00000000013461 
	4969.246221181121655 2993.681251278352192 13509.99998041481376 
	4964.881056363521566 2941.423822655369349 13514.21339492346306 
	4958.501341120410871 2865.050925014570566 13533.01149165290553 
	4952.453426082668557 2792.653390299292823 13563.80463887923543 
	4946.892514075835606 2726.090628008370004 13605.80190529905849 
	4941.961328364399378 2667.072406673095429 13657.92453893481252 
	4937.786427555734008 2617.114671585773976 13718.8337055787415 
	4934.474960711927451 2577.500644803415071 13786.96487869135126 
	4932.111916475408179 2549.247853386635597 13860.56802651882754 
	4930.757942059625748 2533.081995749618727 13937.75256415674448 
	4930.447786674546478 2529.418300536286552 14016.53591589244024 
	4931.189409713550049 2538.350861364000139 14094.89444042327159 
	4932.963776489054908 2559.650220171144611 14170.81541085450954 
	4935.725346785930014 2592.76926156035006 14242.3487142884278 
	4939.403243686012502 2636.857266634871394 14307.65694301986696 
	4943.903072666575099 2690.781765345303484 14365.0625906700443 
	4949.10934428384644 2753.157626016198719 14413.09114095598125 
	4954.888438261826195 2822.382634831256382 14450.50894229946789 
	4961.092032911238675 2896.678651348726362 14476.35489541555762 
	4967.560911860675333 2974.137282890715142 14489.96513994584529 
	4974.129050398192703 3052.768904576507794 14490.99010603474017 
	4980.62787654528347 3130.553765833537909 14479.40349286689889 
	4986.890597500974764 3205.493870627288288 14455.50294355452024 
	4992.756480415924671 3275.664298779750425 14419.90239905648377 
	4998.074977628900342 3339.262650105676585 14373.51632754939419 
	5002.709590490087976 3394.655341317483817 14317.53623436246744 
	5006.541372605106517 3440.419566494847004 14253.40005587386258 
	5009.471982588341234 3475.379843307094234 14182.75522355152862 
	5011.426207976265687 3498.638206252962846 14107.41634691270156 
	5012.353895524785003 3509.597271374596403 14029.3186023952494 
	5012.231238349442719 3507.975580005246229 13950.46802543180638 
	5011.061386876902361 3493.814827468057047 13872.88998256098785 
	5008.87436792169774 3467.47879098329804 13798.57714715219299 
	5005.726313993727672 3429.643984673450632 13729.43831507727555 
	5001.698022517458412 3381.282280524575981 13667.24937504289119 
	4996.892882319316413 3323.635946257729302 13613.60769309574789 
	4991.434219196466984 3258.185724470342848 13569.89108255381507 
	4985.462133942499349 3186.612835932973667 13537.22241490411943 
	4979.12989440270303 3110.755648245837619 13516.44077455872502 
	4974.776662960991416 3058.627215609167251 13510.86687230775169 
	4972.595026638134186 3032.508291528439258 13510.18583116160335 
	5087.705914304124235 3008.136682923433455 13510.00000000013461 
	5084.649577311372013 2982.068364996312994 13509.99998037456135 
	5078.536956377209208 2929.932182023932455 13514.22205479281183 
	5069.603861777462953 2853.740605378400232 13533.05845469144879 
	5061.136442779654317 2781.523205682660318 13563.91324422678008 
	5053.352489341185901 2715.138574453876117 13605.99228687904179 
	5046.452237257729394 2656.295406019108214 13658.21251821430997 
	5040.613186305278759 2606.508252738518877 13719.22985209060607 
	5035.985538826737866 2567.058580979631643 13787.47377611171214 
	5032.688334701984786 2538.961776848610498 13861.18777505387152 
	5030.806389510497866 2522.941013985114296 13938.4745417981012 
	5030.388112671068484 2519.408639146873611 14017.34481207441786 
	5031.444262214715309 2528.455559229051687 14095.76856605135072 
	5033.947668080511903 2549.84890166962532 14171.72727888407826 
	5037.83393108927703 2583.038008777215509 14243.26587533665588 
	5043.003079603076003 2627.168611594463982 14308.54305121198922 
	5049.322141255611314 2681.104818483688177 14365.87866636194485 
	5056.628563595315427 2743.458352445363744 14413.79698942706636 
	5064.734395646470148 2812.62428460998126 14451.06468123010018 
	5073.431122819081793 2886.822344134679497 14476.72253917245143 
	5082.49503079178703 2964.142741204250797 14490.11018557112402 
	5091.692960384496473 3042.595323672812356 14490.88306449256197 
	5100.788305380025122 3120.160802078390134 14479.02130961441799 
	5109.54709900430953 3194.842724526278744 14454.83025488052772 
	5117.744032494694693 3264.71886363846852 14418.93257482269655 
	5125.168250932964838 3327.99069290240277 14372.25225686902559 
	5131.628777250054554 3383.029678933217838 14315.99081819616913 
	5136.959424874663455 3428.419198123264323 14251.59637930129611 
	5141.023072652940755 3462.990998781865073 14180.72639033076302 
	5143.715192071670572 3485.855270266605658 14105.20496957291471 
	5144.96653605218944 3496.423545164889674 14026.97595219930554 
	5144.744920149610152 3494.423845052169781 13948.05285774960248 
	5143.056050343026982 3479.907680030838492 13870.46706416194684 
	5139.943376115321371 3453.248721823932556 13796.2155223065547 
	5135.486972643600893 3415.133184928689388 13727.20935681135779 
	5129.801480716470905 3366.542162227246081 13665.22467612134642 
	5123.033157905943881 3308.726374278063304 13611.85685797804763 
	5115.356114875725325 3243.17396535930493 13568.47948662530325 
	5106.967841029758347 3171.572238241300056 13536.20899988291421 
	5098.084107051970932 3095.764077353446737 13515.87595139556652 
	5091.983687878295314 3043.722065838058825 13510.62774711264319 
	5088.928202768445772 3017.65991728998506 13510.11419296559689 
	5203.109557832425708 2990.685732236836884 13510.00000000013097 
	5199.183377013229801 2964.721785040339455 13509.99998033430893 
	5191.331083788034448 2912.794343065790144 13514.23071466216243 
	5179.856393410194869 2836.91188405885714 13533.10541772999386 
	5168.981456598989098 2764.995612716782489 13564.02184957431382 
	5158.986719161667679 2698.900125265787665 13606.1826684590269 
	5150.129960770119396 2640.330126124146773 13658.50049749380378 
	5142.639606606197958 2590.796197619283703 13719.62599860246519 
	5136.708841940046113 2551.575879524415996 13787.98267353206393 
	5132.490628066503632 2523.680709301805564 13861.80752358891732 
	5130.093757680019735 2507.830136183202285 13939.19651943946337 
	5129.580048869571328 2504.432964977086613 14018.15370825639548 
	5130.962750788310586 2513.576812716134555 14096.64269167942984 
	5134.206201934232922 2535.02584885714441 14172.63914691364334 
	5139.226749904233657 2568.22687764145212 14244.1830363848876 
	5145.894908886973099 2612.323605657437838 14309.42915940410603 
	5154.038699253737832 2666.178726651394754 14366.6947420538454 
	5163.448083114405563 2728.403253987350581 14414.50283789814966 
	5173.880381440618294 2797.392344239008253 14451.62042016072519 
	5185.066533042079755 2871.366687980995721 14477.09018292934343 
	5196.718033969759745 2948.418400262563864 14490.25523119640093 
	5208.534378370542072 3026.560227194642721 14490.77602295038014 
	5220.210808885130973 3103.776799554751051 14478.63912636193709 
	5231.446176697170813 3178.0766115192896 14454.15756620653337 
	5241.950708513907557 3247.543383930829805 14417.96275058890569 
	5251.453480158718776 3310.385487381590337 14370.98818618866062 
	5259.709404022909439 3364.982150433914285 14314.44540202985627 
	5266.505550162117288 3409.925261213569229 14249.79270272873327 
	5271.666638008949121 3444.055684264017145 14178.6975571099938 
	5275.059557064034379 3466.49315600691807 14102.99359223312604 
	5276.596799971822293 3476.658987771676493 14024.6333020033635 
	5276.238719437168584 3474.290990850033268 13945.63769006740222 
	5273.994550777731092 3459.450238664388962 13868.04414576290219 
	5269.922173726070469 3432.519491558568461 13793.85389746091641 
	5264.126619674185349 3394.193325162503243 13724.98039854543276 
	5256.757362676803496 3345.46021571886331 13663.19997719980165 
	5248.004464766290766 3287.577048939129327 13610.10602286034555 
	5238.093672441110357 3222.036692940188914 13567.06789069679508 
	5227.280600330082052 3150.529534647821947 13535.19558486170718 
	5215.844116457768905 3074.899736365875924 13515.31112823240073 
	5208.000860497047142 3023.032058082392268 13510.38862191752924 
	5204.075038901400148 2997.070486441609773 13510.04255476958679 
	0 
	
	0 
	0 
	38 0.02564102564102564014 0.05128205128205128027 0.07692307692307692735 0.1025641025641025605 0.1282051282051281937 0.1538461538461538269 0.1794871794871794601 0.2051282051282050933 0.2307692307692307265 0.2564102564102563875 0.2820512820512820484 0.3076923076923077094 0.3333333333333333703 0.3589743589743590313 0.3846153846153846922 0.4102564102564103532 0.4358974358974360142 0.4615384615384616751 0.4871794871794873361 0.512820512820512997 0.538461538461538658 0.5641025641025643189 0.5897435897435899799 0.6153846153846156408 0.6410256410256413018 0.6666666666666669627 0.6923076923076926237 0.7179487179487182846 0.7435897435897439456 0.7692307692307696065 0.7948717948717952675 0.8205128205128209284 0.8461538461538465894 0.8717948717948722503 0.8974358974358979113 0.9230769230769235723 0.9487179487179492332 0.9743589743589748942 
	0 
	0 
	0 
	F 1 F 0 F 1 F 0 } I I I I #
tcoedge-coedge $-1 -1 $-1 $8 $9 $-1 $10 forward $5 $11 0 6.250766387756697462 #
coedge $-1 -1 $-1 $12 $7 $-1 $13 forward $5 $14 #
coedge $-1 -1 $-1 $7 $12 $-1 $15 forward $5 $16 #
tedge-edge $-1 -1 $-1 $17 -3.907042797884036887e-29 $18 6.250766387756697462 $7 $19 forward @7 unknown 0.0008503927492629235682 #
pcurve $-1 -1 $-1 0 forward { exppc nubs 1 open 2 
	0 1 6.250766387756697462 1 
	0 0 
	0.9999999999999988898 0 
	6.658193070874780852e-08 
	spline forward { ref 0 } I I I I 
	} 0 0 #
tcoedge-coedge $-1 -1 $-1 $9 $8 $-1 $20 forward $5 $21 1.095438941555453353e-15 6.270005910518961834 #
edge $-1 -1 $-1 $18 -1.597735222591354809 $22 -1.482133598377677108 $8 $23 forward @7 unknown #
pcurve $-1 -1 $-1 0 forward { exppc nubs 3 open 2 
	-1.597735222591354809 3 -1.482133598377677108 3 
	1.000000000000000222 0 
	0.99999999751210078 0.03330815819589234145 
	1.000000000000000444 0.06667390754959884314 
	1.000000000000000222 0.1000417136115212408 
	1.901305056075122117e-06 
	spline forward { ref 0 } I I I I 
	} 0 0 #
edge $-1 -1 $-1 $24 -0.1000208620215980032 $17 -1.548606160204559506e-16 $9 $25 forward @7 unknown #
pcurve $-1 -1 $-1 0 forward { exppc nubs 1 open 2 
	-0.1000208620215978783 1 -1.5309221738930411e-27 1 
	0 0.1000417136115216848 
	1.882105815694600205e-16 0 
	0.0009308921382204771687 
	spline forward { ref 0 } I I I I 
	} 0 0 #
tvertex-vertex $-1 -1 $-1 $10 $26 1.547588323515460363e-11 #
tvertex-vertex $-1 -1 $-1 $10 $27 1.58236075687389949e-11 #
ellipse-curve $-1 -1 $-1 4854.859681842573082 3025.647544658860625 14000.00000000000364 -0.9987483720445046176 0.05001689053161714749 2.246087507375214584e-12 -1.09207149989742898e-09 1.965403839676582875e-10 -489.9999999999990337 1 F -3.907042797884036887e-29 F 6.250766387756697462 #
tedge-edge $-1 -1 $-1 $22 1.095438941555453353e-15 $24 6.270005910518961834 $12 $28 forward @7 unknown 0.0008609630530475485214 #
pcurve $-1 -1 $-1 0 forward { exppc nubs 1 open 2 
	0 1 6.270005910518961834 1 
	1 0.1000417136115216432 
	8.963077761344077877e-16 0.1000417136115216848 
	9.244967449589589489e-08 
	spline forward { ref 0 } I I I I 
	} 0 0 #
tvertex-vertex $-1 -1 $-1 $13 $29 1.291180378436949795e-11 #
ellipse-curve $-1 -1 $-1 4674.11949493640077 415.7223182399367829 13510.12130255226293 -0.0006048757059572497418 9.367564943312567155e-05 -0.9999998126751089567 3025.214739164626735 -303.9783943865925835 -1.858354622648361376 0.8655747825645477844 F -1.597735222591354809 F -1.482133598377677108 #
tvertex-vertex $-1 -1 $-1 $20 $30 1.82358248056492947e-11 #
ellipse-curve $-1 -1 $-1 4679.727648235809284 -470.6980640841360355 13509.9999999991378 -1.855728335305491776e-14 -2.46789930393175042e-13 1 175.1320336056713813 3496.345608743192315 8.662937034387141466e-10 1 F -0.1000208620215980032 F -1.548606160204559506e-16 #
point $-1 -1 $-1 4854.859681841480779 3025.647544659057075 13510.00000000000364 #
point $-1 -1 $-1 4855.654074511635372 3041.510153822632219 13510.25746910156886 #
ellipse-curve $-1 -1 $-1 5203.109090629449383 2990.685432544085415 14000.00000000000182 0.9887591971549590797 -0.1495167216116011499 -2.533110792905758617e-11 0.9655367243868767657 6.38512748640817307 -489.9574449743724927 1 F 1.095438941555453353e-15 F 6.270005910518961834 #
point $-1 -1 $-1 5204.07462735383524 2997.070560030494107 13510.04255502562773 #
point $-1 -1 $-1 5203.109090617183938 2990.685432545989897 13510.00000000000182 #
End-of-ACIS-data 