700 0 1 0           
4 LibG 20 ASM 224.0.1.65535 NT 24 Wed Jul 17 15:51:49 2019 
1000 9.999999999999999547e-07 1.000000000000000036e-10 
body $-1 -1 $-1 $1 $-1 $2 #
lump $-1 -1 $-1 $-1 $3 $0 #
transform $-1 -1 1 0 0 0 1 0 0 0 1 0 0 0 1 no_rotate no_reflect no_shear #
shell $-1 -1 $-1 $-1 $-1 $4 $-1 $1 #
face $-1 -1 $-1 $-1 $5 $3 $-1 $6 forward double out #
loop $-1 -1 $-1 $-1 $7 $4 #
spline-surface $-1 -1 $-1 forward { exactsur full nubs 3 3 open open none none 40 2 
	-1.19187009124629953e-07 3 0.02564102564102564014 1 0.05128205128205128027 1 0.07692307692307692735 1 0.1025641025641025605 1 
	0.1282051282051281937 1 0.1538461538461538269 1 0.1794871794871794601 1 0.2051282051282050933 1 0.2307692307692307265 1 
	0.2564102564102563875 1 0.2820512820512820484 1 0.3076923076923077094 1 0.3333333333333333703 1 0.3589743589743590313 1 
	0.3846153846153846922 1 0.4102564102564103532 1 0.4358974358974360142 1 0.4615384615384616751 1 0.4871794871794873361 1 
	0.512820512820512997 1 0.538461538461538658 1 0.5641025641025643189 1 0.5897435897435899799 1 0.6153846153846156408 1 
	0.6410256410256413018 1 0.6666666666666669627 1 0.6923076923076926237 1 0.7179487179487182846 1 0.7435897435897439456 1 
	0.7692307692307696065 1 0.7948717948717952675 1 0.8205128205128209284 1 0.8461538461538465894 1 0.8717948717948722503 1 
	0.8974358974358979113 1 0.9230769230769235723 1 0.9487179487179492332 1 0.9743589743589748942 1 1.000000000000000444 3 
	-1.19187009124629953e-07 3 0.1000418327985308081 3 
	7544.015977339086021 2338.646490114218523 13510.00000000014734 
	7532.624392158849332 2315.076424322778621 13509.999980455068 
	7509.841418505979163 2267.936699743074314 13514.20473505411792 
	7476.542881574310741 2199.039466055217417 13532.96452861435864 
	7444.973992960743089 2133.721007753638332 13563.69603353169623 
	7415.943881815362147 2073.655475274774744 13605.61152371907519 
	7390.196701237150592 2020.382578608451468 13657.63655965531689 
	7368.392438011293052 1975.267881168560052 13718.43755906687875 
	7351.090011855936609 1939.467830834850702 13786.45598127099584 
	7338.732943814611644 1913.900106754764693 13859.94827798378719 
	7331.63798849275372 1899.220098566467641 13937.03058651539322 
	7329.987014210480083 1895.804105810638475 14015.72701971046808 
	7333.822341173878158 1903.739692248229403 14094.02031479518882 
	7343.045656637696084 1922.82344124872111 14169.90354282495173 
	7357.420535008599472 1952.566170077529932 14241.43155324019972 
	7376.57849825217636 1992.205469344176663 14306.77083482774287 
	7400.028461264554608 2040.725246202569679 14364.24651497814739 
	7427.169320088292807 2096.881770337716262 14412.38529248489431 
	7457.305360293527883 2159.235555091306196 14449.95320336884652 
	7489.6640905539507 2226.188256501862725 14475.98725165866927 
	7523.416044281151699 2296.023644409050576 14489.82009432057566 
	7557.696041732769118 2366.951595390490638 14491.09714757691836 
	7591.625367572678442 2437.153979839418298 14479.78567611938706 
	7624.33429539550616 2504.831266938034332 14456.17563222851095 
	7654.984381833589396 2568.248652879375641 14420.87222329027463 
	7682.789958771126294 2625.780529911158283 14374.7803982297628 
	7707.038272745382528 2675.952156305708741 14319.08165052877848 
	7727.10775529222974 2717.477459109912616 14255.2037324464327 
	7742.483955903664537 2749.292000659627774 14184.78405677229603 
	7752.7727291800893 2770.580263811904388 14109.62772425248659 
	7757.710338145624519 2780.796556481335301 14031.66125259119508 
	7757.170214740664051 2779.678999619054593 13952.88319311400846 
	7751.166204206905604 2767.256240094887744 13875.31290096003249 
	7739.85221016228752 2743.846716330079289 13800.93877199782764 
	7723.51824960455906 2710.050495796325322 13731.6672733431933 
	7702.583018442011053 2666.733892527083754 13669.27407396443959 
	7677.583160083705479 2615.00726300548331 13615.35852821345179 
	7649.159504853432736 2556.196534453606546 13571.30267848231961 
	7618.040660274173206 2491.809251868999127 13538.23582992532283 
	7585.024270919495393 2423.495803216090735 13517.00559772189081 
	7562.312629411612761 2376.503670330061595 13511.10599750286201 
	7550.927082837297348 2352.946098878669545 13510.25746935761526 
	7649.101837580795291 2287.857725726943499 13510.00000000014006 
	7636.912566347056782 2264.643356218634835 13509.99998041481012 
	7612.534234959735841 2218.215019300962467 13514.2133949234576 
	7576.905798699915067 2150.361244237853498 13533.01149165290371 
	7543.131639268856816 2086.039502471331616 13563.80463887923179 
	7512.079071763339925 2026.901840043222364 13605.80190529905485 
	7484.545621720268173 1974.467345949871742 13657.92453893480888 
	7461.238418981158247 1930.082896056972686 13718.83370557873968 
	7442.756054813024093 1894.888590475990213 13786.9648786913458 
	7429.573203488414947 1869.788458367632302 13860.56802651882572 
	7422.028432645775865 1855.427238614736325 13937.75256415674266 
	7420.315507630232787 1852.1738178196033 14016.53591589244024 
	7424.478415251875958 1860.111755070954814 14094.89444042326977 
	7434.41023419892008 1879.037135792427534 14170.8154108545059 
	7449.855881264633354 1908.463810082363807 14242.34871428842598 
	7470.418662811466675 1947.635880899668109 14307.6569430198615 
	7495.570463216354256 1995.54712131794895 14365.06259067004248 
	7524.665308618180461 2050.966822053624583 14413.09114095597761 
	7556.955957603651768 2112.471405303556821 14450.50894229946425 
	7591.613092725747265 2178.480992804671132 14476.3548954155558 
	7627.746619951968569 2247.299988768081221 14489.96513994584348 
	7664.428529002040705 2317.160635209606426 14490.99010603473653 
	7700.716727446735604 2386.26842084700229 14479.40349286689707 
	7735.679236431560639 2452.848177122863035 14455.50294355451661 
	7768.418126602288794 2515.189677264106194 14419.90239905648014 
	7798.09257948333925 2571.691567057199336 14373.51632754939055 
	7823.94048202234444 2620.902498875177571 14317.5362343624638 
	7845.297999688808886 2661.558412336668425 14253.40005587386077 
	7861.616625433407535 2692.615003963411255 14182.75522355152498 
	7872.477266643485564 2713.274551787470955 14107.41634691269792 
	7877.601008306406584 2723.006405870815797 14029.31860239524576 
	7876.856275955338788 2721.56061840186976 13950.46802543180456 
	7870.262214451927321 2708.974363288593395 13872.88998256098421 
	7857.98819579892097 2685.570980290772241 13798.57714715219117 
	7840.349468786951547 2651.951668557273479 13729.43831507727191 
	7817.799061653967328 2608.980041888762116 13667.24937504288937 
	7790.916147841554448 2557.759946499519629 13613.60769309574425 
	7760.391165801007446 2499.607096126290799 13569.89108255380961 
	7727.008104375186122 2436.015309033119138 13537.22241490411761 
	7691.624299216838153 2368.618005571430785 13516.44077455872321 
	7667.307211648001612 2322.303824532461476 13510.86687230774987 
	7655.122731295691665 2299.098304268432912 13510.18583116160335 
	7751.644902172944057 2231.808169074707166 13510.00000000014006 
	7738.674540739577424 2208.990015782855608 13509.99998037455589 
	7712.734043163014576 2163.354105634216921 13514.22205479280638 
	7674.824592302875317 2096.662051637187687 13533.05845469143969 
	7638.892254953952033 2033.448784549162383 13563.91324422677098 
	7605.861670048652741 1975.341214858736066 13605.99228687903815 
	7576.582913455423295 1923.835036951496932 13658.21251821430087 
	7551.809488981200047 1880.255998554234111 13719.2298520905988 
	7532.17895582510846 1845.725810441843123 13787.4737761117085 
	7518.196515257413012 1821.133264555168125 13861.18777505386788 
	7510.222010303606112 1807.111359150630733 13938.47454179809756 
	7508.460664604347585 1804.021004989708899 14017.34481207441422 
	7512.957801045996348 1811.941735931798803 14095.76856605134526 
	7523.597675476616132 1830.669661973122174 14171.7272788840728 
	7540.10645568027212 1859.722717698118913 14243.26587533665042 
	7562.059268894471643 1898.353070962795528 14308.54305121198195 
	7588.891136501276378 1945.566372420085372 14365.87866636194121 
	7619.911514467145935 2000.147350386502012 14413.79698942706273 
	7654.322065312649102 2060.691092226191358 14451.06468123009472 
	7691.237204224999914 2125.639207055086445 14476.7225391724478 
	7729.706890531851968 2193.319938923073096 14490.11018557111674 
	7768.741077968224999 2261.991197947216733 14490.88306449255833 
	7807.335194478643643 2329.885401762080164 14479.02130961441253 
	7844.495995801423305 2395.254973057246389 14454.83025488052226 
	7879.267127463694123 2456.417322086669174 14418.93257482268928 
	7910.753737321619155 2511.798156293808006 14372.25225686902195 
	7938.145505217135906 2559.972002259768487 14315.99081819616185 
	7960.737497061578324 2599.69889693959567 14251.59637930129247 
	7977.948306649024744 2629.956303758234753 14180.72639033075757 
	7989.335018307006976 2649.96543205285343 14105.20496957290743 
	7994.6046053140808 2659.211282411700722 14026.97595219930372 
	7993.62147074083714 2657.455901951519536 13948.05285774960066 
	7986.4109366658613 2644.744508381038031 13870.46706416194138 
	7973.15859193727465 2621.404325161530323 13796.21552230654925 
	7954.205515441136413 2588.036158055038413 13727.20935681135052 
	7930.039497221672718 2545.498928842940586 13665.22467612134278 
	7901.282485652845025 2494.887568305188779 13611.85685797804217 
	7868.674575332851418 2437.50482273386433 13568.47948662529961 
	7833.054979162364361 2374.827754893646215 13536.20899988291058 
	7795.340357289075655 2308.469595760484481 13515.87595139556106 
	7769.447784049902111 2262.915663683041657 13510.6277471126341 
	7756.480610614742545 2240.102860494901051 13510.11419296559143 
	7851.132794714893862 2170.777882683159078 13510.00000000013824 
	7837.401970508758495 2148.394721233809832 13509.99998033430529 
	7809.940561354328565 2103.628788358824295 13514.23071466215151 
	7769.810734519129255 2038.211565073339443 13533.1054177299884 
	7731.778394063119777 1976.213537573805525 13564.02184957431382 
	7696.824328252548185 1919.233527735830648 13606.18266845902144 
	7665.850056279140517 1868.741137770854266 13658.50049749380014 
	7639.654437431498991 1826.038619908142664 13719.62599860245973 
	7618.913088321757641 1792.227323599134024 13787.98267353205847 
	7604.16095238386697 1768.179281364860117 13861.80752358891186 
	7595.778504545295618 1754.514720483829478 13939.19651943945246 
	7593.981937934056987 1751.586065953680645 14018.15370825639002 
	7598.817588111677651 1759.468851212116078 14096.64269167942257 
	7610.16073799618971 1777.959769994369253 14172.63914691363607 
	7627.718834469355897 1806.581919852381134 14244.18303638487851 
	7651.039033662143993 1844.597102024025162 14309.42915940409875 
	7679.519880328951331 1891.024860444539854 14366.69474205383995 
	7712.426820082520862 1944.667768856326802 14414.50283789814603 
	7748.91114441186528 2004.142313834405741 14451.62042016071791 
	7788.031879868557553 2067.914577217762144 14477.09018292933615 
	7828.780056873898502 2134.339797654963604 14490.25523119639547 
	7870.104732225867338 2201.704790925470661 14490.77602295037286 
	7910.940094154973849 2268.272134966859539 14478.63912636192799 
	7950.232950857895958 2332.324980024365232 14454.15756620652428 
	7986.969893547386164 2392.211328216542825 14417.96275058889842 
	8020.203433451628371 2446.386640495134998 14370.98818618865516 
	8049.076438659184532 2493.453672115840163 14314.44540202985081 
	8072.844240554716635 2532.198509216446837 14249.79270272872782 
	8090.893839694635972 2561.621877076935107 14178.69755710998834 
	8102.759715780439365 2580.964912584428021 14102.99359223311512 
	8108.135833972895853 2589.728736202443542 14024.63330200335622 
	8106.883537886873455 2587.687318654964656 13945.63769006739312 
	8099.035125709567183 2574.893310498692699 13868.04414576289855 
	8084.79301716376267 2551.676684156819647 13793.85389746091096 
	8064.524532973090572 2518.636223718145629 13724.98039854542549 
	8038.752420831396194 2476.624080943760418 13663.19997719979438 
	8008.14137461673181 2426.723799702811903 13610.10602286033827 
	7973.480885600228248 2370.222361047519371 13567.06789069679508 
	7935.664901283119434 2308.577024276148677 13535.1955848616999 
	7895.668692035889762 2243.377616323456095 13515.31112823239528 
	7868.238888427785241 2198.663204903811675 13510.38862191752196 
	7854.509320515138825 2176.282091388341087 13510.04255476957951 
	0 
	
	0 
	0 
	38 0.02564102564102564014 0.05128205128205128027 0.07692307692307692735 0.1025641025641025605 0.1282051282051281937 0.1538461538461538269 0.1794871794871794601 0.2051282051282050933 0.2307692307692307265 0.2564102564102563875 0.2820512820512820484 0.3076923076923077094 0.3333333333333333703 0.3589743589743590313 0.3846153846153846922 0.4102564102564103532 0.4358974358974360142 0.4615384615384616751 0.4871794871794873361 0.512820512820512997 0.538461538461538658 0.5641025641025643189 0.5897435897435899799 0.6153846153846156408 0.6410256410256413018 0.6666666666666669627 0.6923076923076926237 0.7179487179487182846 0.7435897435897439456 0.7692307692307696065 0.7948717948717952675 0.8205128205128209284 0.8461538461538465894 0.8717948717948722503 0.8974358974358979113 0.9230769230769235723 0.9487179487179492332 0.9743589743589748942 
	0 
	0 
	0 
	F 1 F 0 F 1 F 0 } I I I I #
tcoedge-coedge $-1 -1 $-1 $8 $9 $-1 $10 forward $5 $11 0 6.250766387756696574 #
coedge $-1 -1 $-1 $12 $7 $-1 $13 forward $5 $14 #
coedge $-1 -1 $-1 $7 $12 $-1 $15 forward $5 $16 #
tedge-edge $-1 -1 $-1 $17 -4.974327392699347507e-16 $18 6.250766387756696574 $7 $19 forward @7 unknown 0.0008503927516252038615 #
pcurve $-1 -1 $-1 0 forward { exppc nubs 1 open 2 
	0 1 6.250766387756696574 1 
	0 0 
	0.9999999999999988898 1.02546206354480833e-16 
	6.657514238647697802e-08 
	spline forward { ref 0 } I I I I 
	} 0 0 #
tcoedge-coedge $-1 -1 $-1 $9 $8 $-1 $20 forward $5 $21 0 6.270005910518959169 #
edge $-1 -1 $-1 $18 -1.597735222528615662 $22 -1.482133598319199663 $8 $23 forward @7 unknown #
pcurve $-1 -1 $-1 0 forward { exppc nubs 3 open 2 
	-1.597735222528615662 3 -1.482133598319199663 3 
	0.9999999999999996669 3.535675828565413507e-16 
	0.9999999975121012241 0.03330815819592088112 
	1.000000000000000444 0.06667390754962188026 
	0.999999999999999778 0.1000417136115216571 
	2.133109060281746239e-06 
	spline forward { ref 0 } I I I I 
	} 0 0 #
edge $-1 -1 $-1 $24 -0.1000208620216247873 $17 -3.770519346565056354e-16 $9 $25 forward @7 unknown #
pcurve $-1 -1 $-1 0 forward { exppc nubs 1 open 2 
	-0.1000208620216245375 1 -1.53092217389173639e-27 1 
	0 0.1000417136115216848 
	2.1254033871237391e-16 0 
	0.0009308921383556276316 
	spline forward { ref 0 } I I I I 
	} 0 0 #
tvertex-vertex $-1 -1 $-1 $10 $26 1.733258070640526666e-11 #
tvertex-vertex $-1 -1 $-1 $10 $27 1.457015431544318065e-11 #
ellipse-curve $-1 -1 $-1 7544.016194074930354 2338.64597990871971 14000.00000000000364 -0.9003580795742592846 0.4351497771404137516 2.248938601444261295e-12 -9.301828640673193563e-10 6.069470259717490783e-10 -489.9999999999990337 1 F -4.974327392699347507e-16 F 6.250766387756696574 #
tedge-edge $-1 -1 $-1 $22 -4.698573891475597489e-16 $24 6.270005910518959169 $12 $28 forward @7 unknown 0.0008609630463735443986 #
pcurve $-1 -1 $-1 0 forward { exppc nubs 1 open 2 
	0 1 6.270005910518959169 1 
	1 0.1000417136115216848 
	1.029701563618935556e-15 0.1000417136115216848 
	7.062591693594885408e-08 
	spline forward { ref 0 } I I I I 
	} 0 0 #
tvertex-vertex $-1 -1 $-1 $13 $29 1.616849318532810374e-11 #
ellipse-curve $-1 -1 $-1 6360.80136132829557 5.326592590763773671 13510.12130255228476 -0.0005205946967328707077 0.0003219175495178942022 -0.9999998126751089567 2667.789212074775605 -1458.501903646092615 -1.858354622712303339 0.8655747825959548836 F -1.597735222528615662 F -1.482133598319199663 #
tvertex-vertex $-1 -1 $-1 $20 $30 1.575214955491606587e-11 #
ellipse-curve $-1 -1 $-1 6020.641869327709173 -813.2478177415276832 13509.9999999991378 -1.132336355329815859e-13 -2.200631416045527631e-13 1 1523.374324746289631 3151.89379765085414 8.662937034387141466e-10 1 F -0.1000208620216247873 F -3.770519346565056354e-16 #
point $-1 -1 $-1 7544.016194073999941 2338.645979909326343 13510.00000000000364 #
point $-1 -1 $-1 7550.927455244083831 2352.945906420663505 13510.25746910156886 #
ellipse-curve $-1 -1 $-1 7851.132247660769281 2170.777788682764822 14000.00000000000182 0.8523957392231693575 -0.5228972210235840468 -1.04382420154185203e-12 3.376722488882884843 5.5045308080616282 -489.9574449743724927 1 F -4.698573891475597489e-16 F 6.270005910518959169 #
point $-1 -1 $-1 7854.50897014965085 2176.282319490826467 13510.04255502562773 #
point $-1 -1 $-1 7851.132247660358189 2170.777788683073595 13510.00000000000182 #
End-of-ACIS-data 