700 0 1 0           
4 LibG 20 ASM 224.0.1.65535 NT 24 Wed Jul 17 15:51:49 2019 
1000 9.999999999999999547e-07 1.000000000000000036e-10 
body $-1 -1 $-1 $1 $-1 $2 #
lump $-1 -1 $-1 $-1 $3 $0 #
transform $-1 -1 1 0 0 0 1 0 0 0 1 0 0 0 1 no_rotate no_reflect no_shear #
shell $-1 -1 $-1 $-1 $-1 $4 $-1 $1 #
face $-1 -1 $-1 $-1 $5 $3 $-1 $6 forward double out #
loop $-1 -1 $-1 $-1 $7 $4 #
spline-surface $-1 -1 $-1 forward { exactsur full nubs 3 3 open open none none 40 2 
	-1.191870088789033391e-07 3 0.02564102564102564014 1 0.05128205128205128027 1 0.07692307692307692735 1 0.1025641025641025605 1 
	0.1282051282051281937 1 0.1538461538461538269 1 0.1794871794871794601 1 0.2051282051282050933 1 0.2307692307692307265 1 
	0.2564102564102563875 1 0.2820512820512820484 1 0.3076923076923077094 1 0.3333333333333333703 1 0.3589743589743590313 1 
	0.3846153846153846922 1 0.4102564102564103532 1 0.4358974358974360142 1 0.4615384615384616751 1 0.4871794871794873361 1 
	0.512820512820512997 1 0.538461538461538658 1 0.5641025641025643189 1 0.5897435897435899799 1 0.6153846153846156408 1 
	0.6410256410256413018 1 0.6666666666666669627 1 0.6923076923076926237 1 0.7179487179487182846 1 0.7435897435897439456 1 
	0.7692307692307696065 1 0.7948717948717952675 1 0.8205128205128209284 1 0.8461538461538465894 1 0.8717948717948722503 1 
	0.8974358974358979113 1 0.9230769230769235723 1 0.9487179487179492332 1 0.9743589743589748942 1 1.000000000000000444 3 
	-1.191870090274538731e-07 3 0.1000418327985306 3 
	8651.331300614294378 1496.357314089321562 13510.00000000013461 
	8631.65745803056052 1479.087220507591837 13509.9999804550589 
	8592.310112587052572 1444.547331560648672 13514.20473505410882 
	8534.801858599819752 1394.065432874401949 13532.96452861435137 
	8480.280794559999777 1346.205749432520406 13563.69603353169077 
	8430.144327349677042 1302.194953021287802 13605.61152371907156 
	8385.677646931089839 1263.161209164222782 13657.63655965531325 
	8348.020583794348568 1230.105083925005374 13718.43755906687329 
	8318.138420503521047 1203.873921697265132 13786.45598127098856 
	8296.797140287033471 1185.140117920811008 13859.94827798378356 
	8284.54379433628128 1174.383885102634849 13937.03058651538413 
	8281.692478419723557 1171.880942807535803 14015.72701971046445 
	8288.316281669331147 1177.695450141362471 14094.02031479518519 
	8304.24541301183308 1191.678361094815727 14169.90354282494445 
	8329.071553514220795 1213.471245119607829 14241.43155324019244 
	8362.158323012548863 1242.515474945128517 14306.77083482773924 
	8402.657592745465081 1278.066546135327371 14364.24651497813829 
	8449.531225838423779 1319.213161321733878 14412.38529248489067 
	8501.577688355639111 1364.900589918587002 14449.95320336883742 
	8557.462848785939059 1413.95770452918282 14475.98725165866381 
	8615.754176464768534 1465.127001006566161 14489.82009432056475 
	8674.957462308071626 1517.096832650171109 14491.09714757691472 
	8733.555120578199421 1568.53503226410362 14479.78567611937797 
	8790.045089874605765 1618.12306022689404 14456.17563222850731 
	8842.979336181861072 1664.58980323927176 14420.87222329026918 
	8891.000971008239503 1706.744157370617586 14374.78039822975734 
	8932.879033148185044 1743.505560187582432 14319.08165052877121 
	8967.540042491180429 1773.931689320354508 14255.20373244642542 
	8994.095517043579093 1797.242617456287917 14184.78405677229057 
	9011.864747806237574 1812.840804584207945 14109.62772425248113 
	9020.392247709984076 1820.326415019944534 14031.6612525911878 
	9019.459427327492449 1819.507566580349248 13952.88319311400301 
	9009.090198090007107 1810.405249199307946 13875.31290096002522 
	8989.550359313809167 1793.252786847302787 13800.93877199782401 
	8961.34078499230236 1768.489856760839757 13731.66727334318966 
	8925.184584092308796 1736.751218493051283 13669.27407396443232 
	8882.008566867743866 1698.85044467213288 13615.35852821344633 
	8832.919479632999355 1655.759059408815574 13571.30267848231233 
	8779.175664355900153 1608.581660518681701 13538.23582992531919 
	8722.154693475205931 1558.527508715892509 13517.00559772188717 
	8682.930542246504046 1524.095762121380176 13511.10599750285473 
	8663.267128639989096 1506.834823305010559 13510.25746935760799 
	8728.329076542779148 1408.64255414098966 13510.00000000013461 
	8708.059137610056496 1392.010811582211545 13509.99998041480831 
	8667.519610795079643 1358.747614565252888 13514.21339492346306 
	8608.27203111880408 1310.134400691469637 13533.01149165290553 
	8552.108214340072664 1264.051801003530272 13563.80463887923179 
	8500.470545111762476 1221.683461611798521 13605.80190529905667 
	8454.685335836113154 1184.11776377873116 13657.92453893480888 
	8415.928555423897706 1152.319696795083019 13718.83370557873968 
	8385.195655144085322 1127.106093899777761 13786.96487869135126 
	8363.275992571661845 1109.124642523014245 13860.56802651882572 
	8350.732559378018777 1098.837248121344601 13937.75256415674448 
	8347.88752057074089 1096.508168224873089 14016.53591589244024 
	8354.813940109172108 1102.197224390032034 14094.89444042326977 
	8371.333904478888144 1115.758265658047321 14170.81541085450954 
	8397.023092666333469 1136.842923191775753 14242.34871428842598 
	8431.221675078897533 1164.909559577883329 14307.65694301986332 
	8473.05126148124873 1199.237182907115994 14365.06259067004248 
	8521.437462626325214 1238.943968187923019 14413.09114095597943 
	8575.137486077304857 1283.009910297621218 14450.50894229946789 
	8632.772057412279537 1330.303026540599149 14476.35489541555762 
	8692.86084690665848 1379.608435699436086 14489.96513994584348 
	8753.860491750923757 1429.659566572367339 14490.99010603473653 
	8814.204237196254326 1479.17069428821037 14479.40349286689889 
	8872.342178440161661 1526.869968582345336 14455.50294355451842 
	8926.781069635968379 1571.532085581467527 14419.90239905648014 
	8976.122677531006048 1612.009763804316663 14373.51632754939419 
	9019.099694621922026 1647.263215805882055 14317.53623436246744 
	9054.608289401963702 1676.386858383832987 14253.40005587386258 
	9081.736457654460537 1698.632575205885587 14182.7552235515268 
	9099.787446598977112 1713.428934282142791 14107.41634691269974 
	9108.297650254862674 1720.395866624518021 14029.31860239524758 
	9107.048516389955694 1719.35442902791101 13950.46802543180456 
	9096.072159259756518 1710.331400210620586 13872.88998256098603 
	9075.650533925532727 1693.55859220642742 13798.57714715219117 
	9046.308193630884489 1669.466894921466974 13729.43831507727191 
	9008.79881534595188 1638.675206090243364 13667.24937504289119 
	8964.085843096108874 1601.974533898668369 13613.60769309574789 
	8913.317733194875473 1560.307669939839798 13569.89108255381143 
	8857.798486033147128 1514.744994749966963 13537.22241490411761 
	8798.9540391878636 1466.456887965129226 13516.44077455872502 
	8758.515389621308714 1433.274969178323772 13510.86687230775169 
	8738.25331048920998 1416.649510344818282 13510.18583116160335 
	8800.9354903669755 1317.073227571162761 13510.00000000013461 
	8780.100525232650398 1301.110689451737244 13509.99998037455407 
	8738.430956895363124 1269.185890561248243 13514.22205479281001 
	8677.53514590724626 1222.531236613762303 13533.05845469144515 
	8619.815486607712955 1178.3103034073647 13563.91324422677098 
	8566.757366564992481 1137.66125554586506 13605.99228687903997 
	8519.726382940987605 1101.63045580986136 13658.21251821430815 
	8479.932983951577626 1071.145368559208464 13719.22985209060425 
	8448.401346204553192 1046.990709711273439 13787.4737761117085 
	8425.943006523317308 1029.788240813483526 13861.18777505386788 
	8413.135977306183122 1019.980765956841196 13938.4745417981012 
	8410.309869440729017 1017.820733122595584 14017.34481207441604 
	8417.537409290491269 1023.363736149107467 14095.76856605134708 
	8434.632567113294499 1036.467083840522946 14171.72727888407462 
	8461.155345334509548 1056.793473244460984 14243.26587533665406 
	8496.423103358289154 1083.819672484227567 14308.54305121198377 
	8539.528127450856118 1116.849989645049618 14365.87866636194303 
	8589.360993471473193 1155.03418099549981 14413.79698942706455 
	8644.639121137428447 1197.389337555092879 14451.06468123009472 
	8703.939784889407747 1242.82518660978053 14476.72253917245143 
	8765.736731721135584 1290.172156871992456 14490.11018557111856 
	8828.439463503065781 1338.211484842544905 14490.88306449256015 
	8890.43417275273714 1385.706587389255219 14479.02130961441617 
	8950.125278250210613 1431.434892964191931 14454.8302548805259 
	9005.976491460391117 1474.21931207702778 14418.93257482269109 
	9056.550356802403257 1512.95853692977721 14372.25225686902559 
	9100.545248088630615 1546.655390259234082 14315.99081819616185 
	9136.828868931468605 1574.442493651539507 14251.59637930129429 
	9164.467394898898419 1595.604594596189145 14180.72639033075939 
	9182.74950737434483 1609.596977557205037 14105.20496957291289 
	9191.204700556856551 1616.059485145569852 14026.97595219930554 
	9189.615390430764819 1614.825788476127855 13948.05285774960248 
	9178.022514083411806 1605.927668104662871 13870.46706416194684 
	9156.724475207292926 1589.594195309305178 13796.21552230655288 
	9126.269463208209345 1566.245835006040124 13727.20935681135597 
	9087.441342661577437 1536.483621371265826 13665.2246761213446 
	9041.239479930842208 1501.073687594677722 13611.85685797804217 
	8988.853012688834497 1460.927537659196105 13568.47948662530325 
	8931.630274989334794 1417.078606605288996 13536.20899988291239 
	8871.043976816352369 1370.655568571554568 13515.87595139556288 
	8829.450482965130504 1338.78760117620709 13510.62774711263773 
	8808.620538215134729 1322.828748526022309 13510.11419296559689 
	8868.787749992685349 1222.106878356516745 13510.00000000013461 
	8847.421862333460012 1206.841221004772251 13509.99998033429438 
	8804.690459312860185 1176.31017230340376 13514.23071466216061 
	8742.246329297578995 1131.694628702085083 13533.1054177299884 
	8683.065998867215967 1089.411028754260087 13564.02184957431382 
	8628.675626364449272 1050.549793353982295 13606.18266845902144 
	8580.47802326540841 1016.113213614333631 13658.50049749380014 
	8539.716256814974258 986.9894454092001297 13719.62599860246337 
	8507.441622144360736 963.9296258551281653 13787.98267353206211 
	8484.486519489875718 947.5284944260670272 13861.8075235889155 
	8471.442987933465702 938.2090555816490678 13939.1965194394561 
	8468.647435400580434 936.2116685431817587 14018.15370825639366 
	8476.171962472175437 941.5878482667186518 14096.64269167942439 
	8493.822502781757066 954.1989367801784283 14172.63914691363789 
	8521.143828226136975 973.719679343350208 14244.18303638488396 
	8557.431289828125955 999.6466131462310614 14309.42915940410057 
	8601.748991459646277 1031.311052205069473 14366.69474205384176 
	8652.953927698612461 1067.896333556787567 14414.50283789814785 
	8709.725463277296512 1108.458879953137739 14451.62042016072337 
	8770.599393812386552 1151.952535822906157 14477.09018292934343 
	8834.005709350616598 1197.255548849150273 14490.25523119640093 
	8898.309086763996675 1243.199501275050579 14490.77602295037286 
	8961.851066648285268 1288.599444766099623 14478.63912636193345 
	9022.992826933103061 1332.284461615258579 14454.15756620652974 
	9080.157450022237754 1373.127864081784764 14417.96275058890387 
	9131.87059334505102 1410.076252987445514 14370.98818618866062 
	9176.798514377869651 1442.176686114881704 14314.44540202985627 
	9213.782469425499585 1468.601255703293418 14249.79270272873146 
	9241.868598978098817 1488.668441159152962 14178.69755710999016 
	9260.332528864712003 1501.860686270204496 14102.99359223311876 
	9268.698052712245044 1507.837747586876731 14024.63330200335804 
	9266.749413862286019 1506.445469696994451 13945.63769006739676 
	9254.5368699999417 1497.719761082905961 13868.04414576289855 
	9232.375396904679292 1481.885667967844938 13793.8538974609146 
	9200.836565022540526 1459.351570229146546 13724.98039854543094 
	9160.733797374092319 1430.698648359393928 13663.19997719979983 
	9113.101392739454241 1396.665895796545101 13610.10602286034555 
	9059.167841233538638 1358.131053238934555 13567.06789069679508 
	9000.324172382168399 1316.08799374467344 13535.19558486170354 
	8938.087958390789936 1271.621003521034709 13515.31112823239891 
	8895.405735269521756 1241.125093237678129 13510.3886219175256 
	8874.041802469320828 1225.860832608060946 13510.04255476958679 
	0 
	
	0 
	0 
	38 0.02564102564102564014 0.05128205128205128027 0.07692307692307692735 0.1025641025641025605 0.1282051282051281937 0.1538461538461538269 0.1794871794871794601 0.2051282051282050933 0.2307692307692307265 0.2564102564102563875 0.2820512820512820484 0.3076923076923077094 0.3333333333333333703 0.3589743589743590313 0.3846153846153846922 0.4102564102564103532 0.4358974358974360142 0.4615384615384616751 0.4871794871794873361 0.512820512820512997 0.538461538461538658 0.5641025641025643189 0.5897435897435899799 0.6153846153846156408 0.6410256410256413018 0.6666666666666669627 0.6923076923076926237 0.7179487179487182846 0.7435897435897439456 0.7692307692307696065 0.7948717948717952675 0.8205128205128209284 0.8461538461538465894 0.8717948717948722503 0.8974358974358979113 0.9230769230769235723 0.9487179487179492332 0.9743589743589748942 
	0 
	0 
	0 
	F 1 F 0 F 1 F 0 } I I I I #
tcoedge-coedge $-1 -1 $-1 $8 $9 $-1 $10 forward $5 $11 0 6.250766387756697462 #
coedge $-1 -1 $-1 $12 $7 $-1 $13 forward $5 $14 #
coedge $-1 -1 $-1 $7 $12 $-1 $15 forward $5 $16 #
tedge-edge $-1 -1 $-1 $17 -3.644754054685332822e-16 $18 6.250766387756697462 $7 $19 forward @7 unknown 0.0008503927426477747098 #
pcurve $-1 -1 $-1 0 forward { exppc nubs 1 open 2 
	0 1 6.250766387756697462 1 
	0 0 
	0.9999999999999990008 0 
	6.858976748707227653e-08 
	spline forward { ref 0 } I I I I 
	} 0 0 #
tcoedge-coedge $-1 -1 $-1 $9 $8 $-1 $20 forward $5 $21 0 6.270005910518960057 #
edge $-1 -1 $-1 $18 1.54385743077162596 $22 1.659459055065007238 $8 $23 forward @7 unknown #
pcurve $-1 -1 $-1 0 forward { exppc nubs 3 open 2 
	1.54385743077162596 3 1.659459055065007238 3 
	0.9999999999999996669 1.748982493355933033e-16 
	0.9999999975120970053 0.03330815819582290394 
	1.000000000000000444 0.06667390754963212207 
	0.9999999999999992228 0.1000417136115216848 
	2.056767714769548418e-06 
	spline forward { ref 0 } I I I I 
	} 0 0 #
edge $-1 -1 $-1 $24 -0.1000208620216494759 $17 -1.530922173889649105e-27 $9 $25 forward @7 unknown #
pcurve $-1 -1 $-1 0 forward { exppc nubs 1 open 2 
	-0.1000208620216495037 1 -1.530922173889649105e-27 1 
	3.369992155217628349e-15 0.1000417136115215738 
	1.496407364228171069e-16 1.090200172100407058e-18 
	0.0009308921387854265147 
	spline forward { ref 0 } I I I I 
	} 0 0 #
tvertex-vertex $-1 -1 $-1 $10 $26 1.77474055785391206e-11 #
tvertex-vertex $-1 -1 $-1 $10 $27 1.562491408202412437e-11 #
ellipse-curve $-1 -1 $-1 8651.331301464626449 1496.356759758709586 14000.00000000000364 -0.6597040166702288211 0.7515255221142969067 -1.417911330944224336e-14 1.115353143177344515e-10 8.825367103781900627e-11 -489.9999999999990337 1 F -3.644754054685332822e-16 F 6.250766387756697462 #
tedge-edge $-1 -1 $-1 $22 -3.221879239868980798e-16 $24 6.270005910518960057 $12 $28 forward @7 unknown 0.0008609630509319036226 #
pcurve $-1 -1 $-1 0 forward { exppc nubs 1 open 2 
	0 1 6.270005910518960945 1 
	1 0.100041713611521671 
	6.782762059227663384e-16 0.1000417136115216848 
	6.394151753398494821e-08 
	spline forward { ref 0 } I I I I 
	} 0 0 #
tvertex-vertex $-1 -1 $-1 $13 $29 1.291180378436949795e-11 #
ellipse-curve $-1 -1 $-1 6652.599223525504385 -191.6736796417118853 13510.12130255228476 -0.0003540555658731772389 0.0004992939046575821816 -0.9999998126751089567 -1888.831671782519379 2382.570457559085753 1.858354621384694205 0.8655747819690455813 F 1.54385743077162596 F 1.659459055065007238 #
tvertex-vertex $-1 -1 $-1 $20 $30 1.696001182632879294e-11 #
ellipse-curve $-1 -1 $-1 6020.420000649182839 -813.0608231397156942 13509.9999999991378 -1.900181685619102007e-13 -1.585646181379361254e-13 1 2630.911300815556388 2309.417582898513047 8.662937034387141466e-10 1 F -0.1000208620216494759 F -1.530922173889649105e-27 #
point $-1 -1 $-1 8651.331301464739227 1496.356759758797807 13510.00000000000364 #
point $-1 -1 $-1 8663.267396648901922 1506.83450097269224 13510.25746910156886 #
ellipse-curve $-1 -1 $-1 8868.787209535972579 1222.107004902482458 14000.00000000000182 0.5813469438520931787 -0.8136557815648035596 6.410809208124742224e-12 5.25435911047754356 3.754174279647028101 -489.9574449743724927 1 F -3.221879239868980798e-16 F 6.270005910518960057 #
point $-1 -1 $-1 8874.041568646449377 1225.86117918212949 13510.04255502562773 #
point $-1 -1 $-1 8868.787209537838862 1222.107004899954973 13510.00000000000182 #
End-of-ACIS-data 