700 0 1 0           
4 LibG 20 ASM 224.0.1.65535 NT 24 Wed Jul 17 15:51:49 2019 
1000 9.999999999999999547e-07 1.000000000000000036e-10 
body $-1 -1 $-1 $1 $-1 $2 #
lump $-1 -1 $-1 $-1 $3 $0 #
transform $-1 -1 1 0 0 0 1 0 0 0 1 0 0 0 1 no_rotate no_reflect no_shear #
shell $-1 -1 $-1 $-1 $-1 $4 $-1 $1 #
face $-1 -1 $-1 $-1 $5 $3 $-1 $6 forward double out #
loop $-1 -1 $-1 $-1 $7 $4 #
spline-surface $-1 -1 $-1 forward { exactsur full nubs 3 3 open open none none 40 2 
	-1.191870090957549174e-07 3 0.02564102564102564014 1 0.05128205128205128027 1 0.07692307692307692735 1 0.1025641025641025605 1 
	0.1282051282051281937 1 0.1538461538461538269 1 0.1794871794871794601 1 0.2051282051282050933 1 0.2307692307692307265 1 
	0.2564102564102563875 1 0.2820512820512820484 1 0.3076923076923077094 1 0.3333333333333333703 1 0.3589743589743590313 1 
	0.3846153846153846922 1 0.4102564102564103532 1 0.4358974358974360142 1 0.4615384615384616751 1 0.4871794871794873361 1 
	0.512820512820512997 1 0.538461538461538658 1 0.5641025641025643189 1 0.5897435897435899799 1 0.6153846153846156408 1 
	0.6410256410256413018 1 0.6666666666666669627 1 0.6923076923076926237 1 0.7179487179487182846 1 0.7435897435897439456 1 
	0.7692307692307696065 1 0.7948717948717952675 1 0.8205128205128209284 1 0.8461538461538465894 1 0.8717948717948722503 1 
	0.8974358974358979113 1 0.9230769230769235723 1 0.9487179487179492332 1 0.9743589743589748942 1 1.000000000000000444 3 
	-1.191870090957549174e-07 3 0.1000418327985307804 3 
	308.3604300231216371 3095.637222645850215 13510.00000000013461 
	309.6689182156427478 3069.491399404241292 13509.99998045506436 
	312.2858720059725783 3017.200204401858173 13514.20473505411064 
	316.110690212915074 2940.77382062431343 13532.96452861435137 
	319.736833313132081 2868.3173039442554 13563.69603353169077 
	323.0713611299608488 2801.687757425299878 13605.61152371906974 
	326.0287969252651123 2742.593151914607006 13657.63655965530961 
	328.5333316784383442 2692.548280792927471 13718.43755906687329 
	330.520765382180457 2652.835969578004551 13786.45598127098856 
	331.9401532347395687 2624.474182198903691 13859.94827798377992 
	332.7551113918568149 2608.189929847941585 13937.03058651538595 
	332.9447496485429951 2604.400634409446411 14015.72701971046081 
	332.504206917514523 2613.203428688922486 14094.02031479518337 
	331.444775838401938 2634.372666508162183 14169.90354282494263 
	329.7936133074919667 2667.365706814547593 14241.43155324019244 
	327.5930443523978397 2711.336823451117652 14306.77083482773742 
	324.899477194599001 2765.15888405489477 14364.24651497814011 
	321.7819573109428006 2827.452242371865395 14412.38529248488885 
	318.3203975583726901 2896.620103379908414 14449.95320336883924 
	314.6035297299910098 2970.889454688400292 14475.98725165866381 
	310.7266300511661825 3048.356515000707532 14489.82009432056839 
	306.7890769191495224 3127.035534637719138 14491.0971475769129 
	302.8918034897468488 3204.909697195542321 14479.78567611937797 
	299.1347104101625405 3279.982817551224343 14456.17563222850549 
	295.6141050186018902 3350.330511017120898 14420.87222329026918 
	292.4202326528741764 3414.149522000849629 14374.78039822975734 
	289.634963349100758 3469.803947706031067 14319.08165052877121 
	287.3296932284762875 3515.867171999930179 14255.2037324464236 
	285.5635143668374667 3551.158434537425364 14184.78405677229057 
	284.3817000596348521 3574.773097747337943 14109.62772425247931 
	283.8145443101543037 3586.105835834835034 14031.66125259118962 
	283.8765852892387898 3584.866151379042549 13952.88319311400301 
	284.5662326707828242 3571.085821804832449 13875.31290096002522 
	285.8658084000086319 3545.118084763248589 13800.93877199782219 
	287.7419998333110698 3507.628583625289139 13731.66727334318784 
	290.1467136945033758 3459.57830398135593 13669.2740739644305 
	293.018308732330695 3402.198943044352745 13615.35852821344633 
	296.2831763226278099 3336.961326525431105 13571.30267848231961 
	299.8576253613371136 3265.537745260922748 13538.23582992531738 
	303.6500348413804886 3189.758943058664499 13517.00559772188717 
	306.2587951039452605 3137.631468699617926 13511.10599750285837 
	307.5665896753041579 3111.499505190487071 13510.25746935760435 
	424.9301649799977554 3101.471046675606885 13510.00000000013824 
	425.3681025967089795 3075.254763652991187 13509.99998041481194 
	426.2439701991924608 3022.822651678420698 13514.21339492346124 
	427.523890710071214 2946.19444496495953 13533.01149165290371 
	428.736913364066254 2873.554862881949703 13563.80463887923361 
	429.851756594347421 2806.769518750788393 13605.80190529905485 
	430.8396670507597719 2747.553886734992375 13657.92453893480888 
	431.6751656301460116 2697.428972431413058 13718.83370557873968 
	432.3367039467287327 2657.682283290973828 13786.96487869134762 
	432.8072202641284321 2629.33474697300062 13860.56802651882754 
	433.0745794873847103 2613.114490535303048 13937.75256415674448 
	433.1318861520753671 2609.438137053214632 14016.53591589243842 
	432.9776622619482964 2618.400104619796821 14094.89444042327159 
	432.6158854088052976 2639.770181375813991 14170.8154108545059 
	432.055886186115913 2672.9994391754567 14242.34871428842598 
	431.3121075435674356 2717.234333889806749 14307.65694301986332 
	430.4037322886478023 2771.338630174129321 14365.06259067004248 
	429.3541883425428978 2833.922587512197879 14413.09114095597943 
	428.1905445102030399 2903.378657842173197 14450.50894229946789 
	426.9428123483285731 2977.922777807403691 14476.35489541555762 
	425.6431721367965224 3055.640194970741504 14489.96513994584348 
	424.3251429165424042 3134.534650870763016 14490.99010603473653 
	423.0227179994020617 3212.579657574593057 14479.40349286689889 
	421.7694882460655776 3287.770550609935071 14455.50294355451661 
	420.5977757236402681 3358.175981218917968 14419.90239905648014 
	419.5378000867169135 3421.987525281336275 14373.51632754939419 
	418.6168991817917231 3477.566134634060745 14317.5362343624638 
	417.8588239764522996 3523.484237624544221 14253.40005587386077 
	417.2831259978377716 3558.562407495562184 14182.75522355152498 
	416.9046530789391909 3581.899656734457949 14107.41634691269974 
	416.733166417941959 3592.896579251825187 14029.31860239524758 
	416.7730888271343588 3591.270745963526679 13950.46802543180456 
	417.0233906639169845 3577.063958364715745 13872.88998256098421 
	417.4776163873236783 3550.641173715302102 13798.57714715219117 
	418.1240510496441516 3512.681129797199901 13729.43831507727191 
	418.946022449636871 3464.158908872979282 13667.24937504289119 
	419.9223310781288774 3406.32089327605172 13613.60769309574789 
	421.0277970522076885 3340.652739045196085 13569.89108255381143 
	422.233908868549463 3268.841253402929397 13537.22241490411761 
	423.5095612129417759 3192.730919725515378 13516.44077455872321 
	424.3844190603936113 3140.428350602310275 13510.86687230774987 
	424.8223164186186409 3114.222130384894172 13510.18583116160153 
	541.7917621492894114 3101.469070724257108 13510.00000000013642 
	541.3542780553333387 3075.22584296869627 13509.99998037455407 
	540.479317421968517 3022.739843373525218 13514.22205479281183 
	539.2005160527724001 2946.037032486842236 13533.05845469144515 
	537.9881412955194264 2873.335036979519373 13563.91324422677098 
	536.8732674754249956 2806.504907166095109 13605.99228687903451 
	535.884473496931264 2747.266792436422293 13658.21251821430633 
	535.0471058386497134 2697.145400165106821 13719.22985209060062 
	534.3826294785587834 2657.430790835082007 13787.4737761117085 
	533.9080774891997407 2629.145162720672943 13861.18777505386788 
	533.6356144614778714 2613.016544542707834 13938.47454179809938 
	533.5722246669001834 2609.46005621203949 14017.34481207441604 
	533.7195330272937781 2618.567224546860871 14095.7685660513489 
	534.0737634609591851 2640.103627740255888 14171.72727888407644 
	534.6258356784550188 2673.514929526313153 14243.26587533665406 
	535.3615979453320506 2717.941147632946013 14308.54305121198377 
	536.2621898455834071 2772.23878927597525 14365.87866636194303 
	537.3045257466378644 2835.0102839274914 14413.79698942706455 
	538.4618865729462414 2904.63995577333435 14451.06468123009472 
	539.7046047186518081 2979.335609946492241 14476.72253917245143 
	541.0008245423839526 3057.174662130485558 14490.11018557111856 
	542.3173189498654665 3136.153624185288663 14490.88306449255833 
	543.6203411320482246 3214.239672068803429 14479.02130961441435 
	544.8764896255581789 3289.42296873253963 14454.83025488052408 
	546.0535645205676474 3359.76839524033403 14418.93257482269109 
	547.1213928682145706 3423.465358593728524 14372.25225686902559 
	548.0526021291915413 3478.874394254946765 14315.99081819616185 
	548.8233218370703526 3524.569363863574381 14251.59637930129429 
	549.4137954899813394 3559.374162022865676 14180.72639033075939 
	549.8088869855872645 3582.392987366544276 14105.20496957291107 
	549.9984686174161652 3593.033398772506189 14026.97595219930372 
	549.9776806866857441 3591.021563289416918 13948.05285774960248 
	549.7470560751449966 3576.40930335336634 13870.46706416194138 
	549.3125065841566084 3549.572761842486671 13796.21552230655107 
	548.6851713957008769 3511.202719683573378 13727.20935681135416 
	547.8811315195857787 3462.286814034148847 13665.2246761213446 
	546.9209976220240605 3404.084119313449264 13611.85685797804217 
	545.8293815200230483 3338.092728367162636 13568.47948662530325 
	544.6342659383125238 3266.01123169053335 13536.20899988291239 
	543.3662847691589377 3189.694849371001055 13515.87595139556288 
	542.4940595205772524 3137.30376902540911 13510.62774711263773 
	542.0568068838641693 3111.06676488373887 13510.11419296559689 
	658.3612997947096801 3095.631304661283593 13510.00000000013097 
	657.0478970748871461 3069.405050198568915 13509.99998033429438 
	654.4211145211137364 3016.952998262253914 13514.23071466216243 
	650.582552252740129 2940.303917746452498 13533.1054177299884 
	646.9446221003885285 2867.661094297737236 13564.02184957430654 
	643.6011399892474856 2800.897860664261316 13606.18266845901599 
	640.6383394724210802 2741.736143466773683 13658.50049749380014 
	638.1326343140553945 2691.701786068227648 13719.62599860246337 
	636.1486496730366298 2652.085234906724963 13787.98267353206211 
	634.7375548128056835 2623.908246754567699 13861.80752358891186 
	633.9357435286023019 2607.897539259197856 13939.19651943945428 
	633.7638954706762888 2604.466047281854117 14018.15370825639366 
	634.2264428021433105 2613.702273028180116 14096.64269167942621 
	635.3114558855573932 2635.368003417974251 14172.63914691363971 
	636.9909509629538888 2668.90445389414208 14244.18303638488214 
	639.221611889550104 2713.446680126846331 14309.42915940410239 
	641.9459073079090103 2767.845885941682809 14366.69474205383995 
	645.0935744489739818 2830.699052118015061 14414.50283789814603 
	648.5834312911883899 2900.385121897700174 14451.62042016071973 
	652.325470339898061 2975.106809937163234 14477.09018292934161 
	656.2231800260136652 3052.936956401063981 14490.25523119639911 
	660.1760338524291001 3131.868230671202582 14490.77602295037286 
	664.0820830900750025 3209.864902753791739 14478.63912636192799 
	667.8405861550364762 3284.915347139870391 14454.15756620652792 
	671.354606851971198 3355.083924982856843 14417.96275058890024 
	674.5335144721020697 3418.560906491056812 14370.98818618866062 
	677.2953212653224 3473.709145978251399 14314.44540202985627 
	679.5687970002937845 3519.106305768048969 14249.79270272872782 
	681.2953060755060051 3553.581539948231239 14178.69755710999016 
	682.4303198001155124 3576.245691857641305 14102.99359223311876 
	682.9445648410584226 3586.514226478744604 14024.63330200335804 
	682.8247782163978172 3584.12230627632016 13945.63769006739676 
	682.0740493639112856 3569.131621682287005 13868.04414576290037 
	680.7117404581053961 3541.928799972515208 13793.8538974609146 
	678.7729870473059464 3503.215433900842072 13724.98039854542731 
	676.307791828553718 3453.989986038250663 13663.19997719979619 
	673.3797351619348319 3395.522040098279376 13610.10602286034191 
	670.0643347270236063 3329.319546271108266 13567.06789069679508 
	666.4470998175114573 3257.08996903894149 13535.19558486170172 
	662.6213185519940225 3180.696101816253304 13515.31112823239891 
	659.9975591824022558 3128.304417348629158 13510.3886219175256 
	658.684276631570242 3102.080562441274196 13510.04255476958679 
	0 
	
	0 
	0 
	38 0.02564102564102564014 0.05128205128205128027 0.07692307692307692735 0.1025641025641025605 0.1282051282051281937 0.1538461538461538269 0.1794871794871794601 0.2051282051282050933 0.2307692307692307265 0.2564102564102563875 0.2820512820512820484 0.3076923076923077094 0.3333333333333333703 0.3589743589743590313 0.3846153846153846922 0.4102564102564103532 0.4358974358974360142 0.4615384615384616751 0.4871794871794873361 0.512820512820512997 0.538461538461538658 0.5641025641025643189 0.5897435897435899799 0.6153846153846156408 0.6410256410256413018 0.6666666666666669627 0.6923076923076926237 0.7179487179487182846 0.7435897435897439456 0.7692307692307696065 0.7948717948717952675 0.8205128205128209284 0.8461538461538465894 0.8717948717948722503 0.8974358974358979113 0.9230769230769235723 0.9487179487179492332 0.9743589743589748942 
	0 
	0 
	0 
	F 1 F 0 F 1 F 0 } I I I I #
tcoedge-coedge $-1 -1 $-1 $8 $9 $-1 $10 forward $5 $11 0 6.250766387756696574 #
coedge $-1 -1 $-1 $12 $7 $-1 $13 forward $5 $14 #
coedge $-1 -1 $-1 $7 $12 $-1 $15 forward $5 $16 #
tedge-edge $-1 -1 $-1 $17 -3.907042797884036887e-29 $18 6.250766387756696574 $7 $19 forward @7 unknown 0.0008503927448016975832 #
pcurve $-1 -1 $-1 0 forward { exppc nubs 1 open 2 
	0 1 6.250766387756696574 1 
	0 0 
	0.9999999999999987788 1.03801653698431895e-18 
	6.950296762227108359e-08 
	spline forward { ref 0 } I I I I 
	} 0 0 #
tcoedge-coedge $-1 -1 $-1 $9 $8 $-1 $20 forward $5 $21 0 6.270005910518959169 #
edge $-1 -1 $-1 $18 -1.597735222498400054 $22 -1.482133598313619238 $8 $23 forward @7 unknown #
pcurve $-1 -1 $-1 0 forward { exppc nubs 3 open 2 
	-1.597735222498400054 3 -1.482133598313619238 3 
	0.999999999999999778 0 
	0.9999999975121011131 0.03330815819592284482 
	1.000000000000000444 0.06667390754959233445 
	0.9999999999999996669 0.1000417136115216293 
	1.912165357059096319e-06 
	spline forward { ref 0 } I I I I 
	} 0 0 #
edge $-1 -1 $-1 $24 -0.1000208620216091887 $17 -1.346614052491881619e-17 $9 $25 forward @7 unknown #
pcurve $-1 -1 $-1 0 forward { exppc nubs 1 open 2 
	-0.100020862021609161 1 -1.530922173891868583e-27 1 
	0 0.1000417136115216848 
	0 0 
	0.0009308921381860902873 
	spline forward { ref 0 } I I I I 
	} 0 0 #
tvertex-vertex $-1 -1 $-1 $10 $26 1.575467679983256281e-11 #
tvertex-vertex $-1 -1 $-1 $10 $27 1.740362345603213271e-11 #
ellipse-curve $-1 -1 $-1 308.3608649023663588 3095.636878897716542 14000.00000000000364 -0.9987500632136664391 -0.04998310945407013345 -1.026562109180568053e-12 4.953440324584335444e-10 1.662201043473032872e-10 -489.9999999999990337 1 F -3.907042797884036887e-29 F 6.250766387756696574 #
tedge-edge $-1 -1 $-1 $22 -1.106178539021683525e-15 $24 6.270005910518959169 $12 $28 forward @7 unknown 0.0008609630484982813085 #
pcurve $-1 -1 $-1 0 forward { exppc nubs 1 open 2 
	0 1 6.270005910518959169 1 
	0.999999999999999889 0.1000417136115216848 
	1.156953522635921081e-15 0.1000417136115216848 
	7.677505032062193568e-08 
	spline forward { ref 0 } I I I I 
	} 0 0 #
tvertex-vertex $-1 -1 $-1 $13 $29 1.206209246553237845e-11 #
ellipse-curve $-1 -1 $-1 389.1904566994040806 480.7098652663724465 13510.12130255226111 -0.0006112071755870242002 3.27953573684039261e-05 -0.9999998126751089567 3040.448484590644512 -0.3154167545463379962 -1.858354623105758163 0.8655747827806621331 F -1.597735222498400054 F -1.482133598313619238 #
tvertex-vertex $-1 -1 $-1 $20 $30 1.76263449187756216e-11 #
ellipse-curve $-1 -1 $-1 483.3017356443995709 -400.71829995823947 13509.9999999991378 6.183628057126260398e-15 -2.474093879644656023e-13 1 -174.9408707415379354 3496.355178856123075 8.662937034387141466e-10 1 F -0.1000208620216091887 F -1.346614052491881619e-17 #
point $-1 -1 $-1 308.3608649028616924 3095.63687889788298 13510.00000000000364 #
point $-1 -1 $-1 307.5670087602705962 3111.499514921432365 13510.25746910156886 #
ellipse-curve $-1 -1 $-1 658.3608648509955401 3095.630959805565453 14000.00000000000182 0.9987483720445103907 -0.05001689053150216308 -7.876496389695406964e-12 0.3229949410659607167 6.449634753369653417 -489.9574449743724927 1 F -1.106178539021683525e-15 F 6.270005910518959169 #
point $-1 -1 $-1 658.6838597920615257 3102.080594558934536 13510.04255502562773 #
point $-1 -1 $-1 658.3608648471432616 3095.630959805806924 13510.00000000000182 #
End-of-ACIS-data 