700 0 1 0           
4 LibG 20 ASM 224.0.1.65535 NT 24 Wed Jul 17 15:51:49 2019 
1000 9.999999999999999547e-07 1.000000000000000036e-10 
body $-1 -1 $-1 $1 $-1 $2 #
lump $-1 -1 $-1 $-1 $3 $0 #
transform $-1 -1 1 0 0 0 1 0 0 0 1 0 0 0 1 no_rotate no_reflect no_shear #
shell $-1 -1 $-1 $-1 $-1 $4 $-1 $1 #
face $-1 -1 $-1 $-1 $5 $3 $-1 $6 forward double out #
loop $-1 -1 $-1 $-1 $7 $4 #
spline-surface $-1 -1 $-1 forward { exactsur full nubs 3 3 open open none none 40 2 
	-1.191870090947544656e-07 3 0.02564102564102564014 1 0.05128205128205128027 1 0.07692307692307692735 1 0.1025641025641025605 1 
	0.1282051282051281937 1 0.1538461538461538269 1 0.1794871794871794601 1 0.2051282051282050933 1 0.2307692307692307265 1 
	0.2564102564102563875 1 0.2820512820512820484 1 0.3076923076923077094 1 0.3333333333333333703 1 0.3589743589743590313 1 
	0.3846153846153846922 1 0.4102564102564103532 1 0.4358974358974360142 1 0.4615384615384616751 1 0.4871794871794873361 1 
	0.512820512820512997 1 0.538461538461538658 1 0.5641025641025643189 1 0.5897435897435899799 1 0.6153846153846156408 1 
	0.6410256410256413018 1 0.6666666666666669627 1 0.6923076923076926237 1 0.7179487179487182846 1 0.7435897435897439456 1 
	0.7692307692307696065 1 0.7948717948717952675 1 0.8205128205128209284 1 0.8461538461538465894 1 0.8717948717948722503 1 
	0.8974358974358979113 1 0.9230769230769235723 1 0.9487179487179492332 1 0.9743589743589748942 1 1.000000000000000444 3 
	-1.191870092957281995e-07 3 0.1000418327985308914 3 
	6242.623917873182108 2851.192981256963321 13510.00000000014006 
	6236.144171186921085 2825.829048257261547 13509.99998045506436 
	6223.184789705372168 2775.101620237169755 13514.20473505411064 
	6204.243959177714714 2700.960765706408893 13532.96452861435864 
	6186.28698495981007 2630.671059489009622 13563.69603353169077 
	6169.774114843859934 2566.034068024241151 13605.61152371907156 
	6155.128637029098172 2508.706685330409982 13657.63655965530961 
	6142.725964341442705 2460.158404927101856 13718.43755906687329 
	6132.88402076901275 2421.633689464493273 13786.45598127098856 
	6125.855089375729222 2394.120060683799693 13859.94827798377992 
	6121.819346104834949 2378.32278852437048 13937.03058651538595 
	6120.88024105796012 2374.646811878697008 14015.72701971046081 
	6123.061846759765103 2383.186358797972844 14094.02031479518337 
	6128.308241082187124 2403.722531047750181 14169.90354282494263 
	6136.484940726310015 2435.72891524359693 14241.43155324019062 
	6147.382348495190854 2478.385076649795337 14306.77083482773924 
	6160.721125997899435 2530.597589770727609 14364.24651497813829 
	6176.159354062104285 2591.028066641829355 14412.38529248488885 
	6193.301297309437359 2658.127464359349688 14449.95320336883742 
	6211.707548227024745 2730.175792427366559 14475.98725165866199 
	6230.906290707394874 2805.326202085086152 14489.82009432056475 
	6250.405394333236472 2881.652327451812653 14491.0971475769129 
	6269.705029388374896 2957.197664971767608 14479.78567611937797 
	6288.310479228554868 3030.025725392132244 14456.17563222850731 
	6305.744821586387843 3098.269672705023368 14420.87222329026918 
	6321.561153744716648 3160.180177635018481 14374.7803982297537 
	6335.354048204618266 3214.170259021198945 14319.08165052877121 
	6346.769945199663198 3258.855963653415529 14255.2037324464236 
	6355.516215660076341 3293.091841797475354 14184.78405677229239 
	6361.368662311595472 3316.000309047935389 14109.62772425248113 
	6364.177266630159465 3326.994141863917321 14031.66125259118962 
	6363.870034336487151 3325.791530143225373 13952.88319311399937 
	6360.454840862987112 3312.423301007574082 13875.31290096002522 
	6354.01922946571085 3287.232128544187162 13800.93877199782219 
	6344.728167236635272 3250.863750074382551 13731.66727334318966 
	6332.819816238489693 3204.250412936615248 13669.2740739644305 
	6318.599429278187927 3148.58698046699692 13615.35852821344633 
	6302.431522628183302 3085.300293367667564 13571.30267848231415 
	6284.730541873326729 3016.012632656003461 13538.23582992531556 
	6265.950202163951872 2942.499993788434949 13517.00559772188535 
	6253.031395740463267 2891.93139034961041 13511.10599750285473 
	6246.555083926180487 2866.580902607407552 13510.25746935760799 
	6355.707637705047091 2822.303382441560188 13510.00000000014006 
	6348.375423776530624 2797.129508608069955 13509.99998041481012 
	6333.711122871007319 2746.782196970572841 13514.21339492346124 
	6312.279485963228581 2673.200914023832865 13533.01149165290371 
	6291.963137578556598 2603.449739858331668 13563.80463887923179 
	6273.283743918869732 2539.320142021979336 13605.80190529905485 
	6256.720999286194456 2482.459412758867984 13657.92453893480888 
	6242.700233229476908 2434.328100591008933 13718.83370557873968 
	6231.581498975129762 2396.162531302022217 13786.96487869134762 
	6223.650324258978799 2368.943040701983136 13860.56802651882572 
	6219.110379736546747 2353.368795821664207 13937.75256415674448 
	6218.078248518430883 2349.839835050038346 14016.53591589243842 
	6220.580432417545126 2358.446792898649619 14094.89444042326977 
	6226.55267144746449 2378.968572159206815 14170.81541085450954 
	6235.841594136404638 2410.878023554106221 14242.34871428842416 
	6248.208656249006708 2453.355486893643501 14307.65694301986332 
	6263.336266771657392 2505.309845920587122 14365.06259067004066 
	6280.83594383869422 2565.406555989752178 14413.09114095597943 
	6300.258291149264551 2632.101924626552318 14450.50894229946425 
	6321.10453867311935 2703.682764389106069 14476.3548954155558 
	6342.839351272305066 2778.310399461500765 14489.96513994584529 
	6364.904576305510091 2854.067895572575253 14490.99010603473653 
	6386.733577168621196 2929.009300038891524 14479.40349286689889 
	6407.76578467870695 3001.209627098536203 14455.50294355451842 
	6427.461092614870722 3068.814304560761684 14419.90239905648195 
	6445.313727732482221 3130.086811636431321 14373.51632754939055 
	6460.865238063683137 3183.453284280573371 14317.53623436246744 
	6473.71626596097758 3227.542942277030306 14253.40005587386258 
	6483.536803549788601 3261.223299625629352 14182.7552235515268 
	6490.074667229197075 3283.629253796298599 14107.41634691269974 
	6493.161973596952521 3294.185306653286716 14029.31860239524758 
	6492.719450497919752 3292.620346274580697 13950.46802543180456 
	6488.758472498863739 3278.974610010888227 13872.88998256098421 
	6481.380768499981059 3253.598649864680738 13798.57714715219117 
	6470.775809089777795 3217.144327103932483 13729.43831507727191 
	6457.215940404889807 3170.548066292042222 13667.24937504289119 
	6441.049390733667678 3115.006803266640873 13613.60769309574789 
	6422.691324735304988 3051.947228673192512 13569.89108255381143 
	6402.613192660517598 2982.989177741842013 13537.22241490411761 
	6381.330582233425957 2909.903880487199331 13516.44077455872502 
	6366.703614726387059 2859.680619594572363 13510.86687230774987 
	6359.37433730423345 2834.516370655865558 13510.18583116160153 
	6467.344878880297074 2787.752560748856467 13510.00000000014006 
	6459.168409095017523 2762.811756086352489 13509.99998037455589 
	6442.81561152820268 2712.930580064201877 13514.22205479281183 
	6418.917572928186019 2640.034487700259888 13533.05845469144515 
	6396.26579171971116 2570.940733920469938 13563.91324422677098 
	6375.443110048488961 2507.427545348860349 13605.99228687903451 
	6356.985373873453682 2451.129730777152872 13658.21251821430633 
	6341.367560789081836 2403.496348971196767 13719.22985209060062 
	6328.991569444442575 2365.753448164462952 13787.47377611171032 
	6320.17587397357147 2338.872498203901614 13861.1877750538697 
	6315.147329437429107 2323.545388225822535 13938.47454179809938 
	6314.035333856239049 2320.166617245178259 14017.34481207441604 
	6316.868498483196163 2328.823140394132679 14095.76856605134708 
	6323.573911623553613 2349.292130997620916 14171.72727888407462 
	6333.97901504298261 2381.046716392544113 14243.26587533665406 
	6347.816044647595845 2423.269539759680356 14308.54305121198195 
	6364.728921163758969 2474.873798902842736 14365.87866636194303 
	6384.282413488426755 2534.531220426282289 14413.79698942706455 
	6405.973338898685142 2600.706249253539681 14451.06468123009472 
	6429.243511892395873 2671.695573448015693 14476.7225391724478 
	6453.494108433160363 2745.671966967509434 14490.11018557111856 
	6478.10107594965757 2820.731321843640217 14490.88306449255833 
	6502.431192528373685 2894.941659183798492 14479.02130961441617 
	6525.858362033533922 2966.392857460954929 14454.83025488052408 
	6547.779725817348663 3033.245818096439052 14418.93257482269109 
	6567.631176404663165 3093.779802827358253 14372.25225686902195 
	6584.901873926526605 3146.43672441134413 14315.99081819616185 
	6599.147391741462343 3189.861250644637494 14251.59637930129247 
	6610.001152960645413 3222.935689437167184 14180.72639033075939 
	6617.183863575775831 3244.80875702522917 14105.20496957291289 
	6620.510699445160753 3254.917488853774103 14026.97595219930372 
	6619.896062194093247 3253.001729161463118 13948.05285774960066 
	6615.355781656589897 3239.110826354555684 13870.4670641619432 
	6607.006708162231007 3213.602361772950644 13796.21552230655107 
	6595.063705270616083 3177.132944905575641 13727.20935681135416 
	6579.834119970581924 3130.641310849385263 13665.2246761213446 
	6561.709874075293556 3075.324159435204365 13611.85685797804217 
	6541.157375044524997 3012.605341777899412 13568.47948662530325 
	6518.70552564069385 2944.099247722381278 13536.20899988291239 
	6494.932067219652708 2871.569111494118715 13515.87595139556288 
	6478.609944668332901 2821.777803095144009 13510.62774711263773 
	6470.435535941733178 2796.842875419915345 13510.11419296559689 
	6576.977824174031412 2747.713156086775143 13510.00000000013824 
	6567.96960774357558 2723.047522371226023 13509.9999803342962 
	6549.953331849683309 2673.71668473562886 13514.23071466216243 
	6523.625839776298562 2601.628688055653583 13533.1054177299884 
	6498.674420324630773 2533.308551918922603 13564.02184957430654 
	6475.74252743759007 2470.518134445848318 13606.18266845901599 
	6455.421609951258688 2414.876897209679555 13658.50049749380014 
	6438.235765855773025 2367.819886665534796 13719.62599860246337 
	6424.628238803126806 2330.560759884311665 13787.98267353206211 
	6414.949982687910051 2304.060472931153981 13861.80752358891368 
	6409.450611112452862 2289.002499358564364 13939.1965194394561 
	6408.271959297906506 2285.775201906258644 14018.15370825639366 
	6411.444426057952114 2294.461816363419985 14096.64269167942439 
	6418.886189759004992 2314.838304768738453 14172.63914691363607 
	6430.405318600986902 2346.379133625593113 14244.18303638488214 
	6445.704720761860699 2388.270828022627938 14309.42915940410239 
	6464.389806743985901 2439.432952105313234 14366.69474205384176 
	6485.978666299234646 2498.545974781575751 14414.50283789814603 
	6509.914497458638834 2564.085301973932474 14451.62042016071973 
	6535.579967107209086 2634.360597686060373 14477.09018292933797 
	6562.313132727848824 2707.559379747573985 14490.25523119639547 
	6589.42451467405408 2781.793765851642092 14490.77602295037832 
	6616.214878657366171 2855.149164250447484 14478.63912636193345 
	6641.99326981851209 2925.733653318374309 14454.15756620652792 
	6666.094833262329303 2991.726776426236029 14417.96275058890024 
	6687.897961444081375 3051.426493649517397 14370.98818618865698 
	6706.840326155956063 3103.2930793711771 14314.44540202985081 
	6722.43338163003682 3145.988833608341338 14249.79270272873146 
	6734.274964705771708 3178.412582861407373 14178.69755710999016 
	6742.059667088755305 3199.728080667843642 14102.99359223312058 
	6745.586712188618549 3209.385575378711565 14024.63330200335804 
	6744.765133381073611 3207.135988893777721 13945.63769006739676 
	6739.616120148712071 3193.037340691173995 13868.04414576290037 
	6730.272471560648228 3167.453251385687963 13793.8538974609146 
	6716.975171299159229 3131.043564719320784 13724.98039854543094 
	6700.067172146519624 3084.747328701758306 13663.19997719979619 
	6679.984551808181095 3029.758579137612287 13610.10602286034191 
	6657.245262311890656 2967.495534061220951 13567.06789069679508 
	6632.435785025969381 2899.564053491997129 13535.19558486170354 
	6606.195953833912426 2827.716083370758497 13515.31112823239891 
	6588.200413010067678 2778.442020974387106 13510.3886219175256 
	6579.193020780950064 2753.778644026142501 13510.04255476958679 
	0 
	
	0 
	0 
	38 0.02564102564102564014 0.05128205128205128027 0.07692307692307692735 0.1025641025641025605 0.1282051282051281937 0.1538461538461538269 0.1794871794871794601 0.2051282051282050933 0.2307692307692307265 0.2564102564102563875 0.2820512820512820484 0.3076923076923077094 0.3333333333333333703 0.3589743589743590313 0.3846153846153846922 0.4102564102564103532 0.4358974358974360142 0.4615384615384616751 0.4871794871794873361 0.512820512820512997 0.538461538461538658 0.5641025641025643189 0.5897435897435899799 0.6153846153846156408 0.6410256410256413018 0.6666666666666669627 0.6923076923076926237 0.7179487179487182846 0.7435897435897439456 0.7692307692307696065 0.7948717948717952675 0.8205128205128209284 0.8461538461538465894 0.8717948717948722503 0.8974358974358979113 0.9230769230769235723 0.9487179487179492332 0.9743589743589748942 
	0 
	0 
	0 
	F 1 F 0 F 1 F 0 } I I I I #
tcoedge-coedge $-1 -1 $-1 $8 $9 $-1 $10 forward $5 $11 3.907042797884036887e-29 6.250766387756697462 #
coedge $-1 -1 $-1 $12 $7 $-1 $13 forward $5 $14 #
coedge $-1 -1 $-1 $7 $12 $-1 $15 forward $5 $16 #
tedge-edge $-1 -1 $-1 $17 3.907042797884036887e-29 $18 6.250766387756697462 $7 $19 forward @7 unknown 0.0008503927470385721143 #
pcurve $-1 -1 $-1 0 forward { exppc nubs 1 open 2 
	0 1 6.250766387756697462 1 
	0 0 
	0.9999999999999988898 1.616892195899710683e-16 
	6.960858073907791977e-08 
	spline forward { ref 0 } I I I I 
	} 0 0 #
tcoedge-coedge $-1 -1 $-1 $9 $8 $-1 $20 forward $5 $21 2.684899366557484229e-18 6.270005910518960057 #
edge $-1 -1 $-1 $18 -1.597735222625260354 $22 -1.482133598395262153 $8 $23 forward @7 unknown #
pcurve $-1 -1 $-1 0 forward { exppc nubs 3 open 2 
	-1.597735222625260354 3 -1.482133598395262153 3 
	0.999999999999999889 0 
	0.9999999975120997808 0.03330815819588405641 
	1.000000000000000444 0.06667390754961169397 
	0.999999999999999889 0.1000417136115214489 
	2.093537872734248923e-06 
	spline forward { ref 0 } I I I I 
	} 0 0 #
edge $-1 -1 $-1 $24 -0.1000208620216017363 $17 -1.530922173891595408e-27 $9 $25 forward @7 unknown #
pcurve $-1 -1 $-1 0 forward { exppc nubs 1 open 2 
	-0.100020862021601889 1 -1.530922173891595408e-27 1 
	7.830572742737152351e-16 0.1000417136115216016 
	2.009737397915629876e-16 0 
	0.0009308921378330617001 
	spline forward { ref 0 } I I I I 
	} 0 0 #
tvertex-vertex $-1 -1 $-1 $10 $26 1.187497136067470826e-11 #
tvertex-vertex $-1 -1 $-1 $10 $27 1.491884467300768192e-11 #
ellipse-curve $-1 -1 $-1 6242.624231687430438 2851.19252430696406 14000.00000000000364 -0.968882430293737773 0.2475213854762862986 -1.159590301765864486e-12 5.858311169504305037e-10 -3.248601387895178373e-12 -489.9999999999990337 1 F 3.907042797884036887e-29 F 6.250766387756697462 #
tedge-edge $-1 -1 $-1 $22 2.684899366557484229e-18 $24 6.270005910518960057 $12 $28 forward @7 unknown 0.0008609630506710017539 #
pcurve $-1 -1 $-1 0 forward { exppc nubs 1 open 2 
	0 1 6.270005910518960057 1 
	1.000000000000000222 0.1000417136115215738 
	1.020257517998333087e-15 0.1000417136115216848 
	6.375093455057989767e-08 
	spline forward { ref 0 } I I I I 
	} 0 0 #
tvertex-vertex $-1 -1 $-1 $13 $29 1.257243948430749622e-11 #
ellipse-curve $-1 -1 $-1 5546.764316865640467 329.2576167952266815 13510.12130255227385 -0.0005741902977859821011 0.0002120265287232411388 -0.9999998126751089567 2904.445666145988525 -899.1787653795632878 -1.85835462238872573 0.8655747824425410464 F -1.597735222625260354 F -1.482133598395262153 #
tvertex-vertex $-1 -1 $-1 $20 $30 1.287607477745803344e-11 #
ellipse-curve $-1 -1 $-1 5376.083566236049592 -540.5933062091118018 13509.9999999991378 -6.723683428705653873e-14 -2.38178190907485427e-13 1 866.5406654519671292 3391.785830516071655 8.662937034387141466e-10 1 F -0.1000208620216017363 F -1.530922173891595408e-27 #
point $-1 -1 $-1 6242.624231688016152 2851.192524306960422 13510.00000000000364 #
point $-1 -1 $-1 6246.555487154695584 2866.580788005196155 13510.25746910156886 #
ellipse-curve $-1 -1 $-1 6576.977306712789868 2747.712955235368554 14000.00000000000182 0.9393168391296199404 -0.3430508354858500808 6.614054663603369615e-12 2.21532535684337395 6.065842707089719177 -489.9574449743724927 1 F 2.684899366557484229e-18 F 6.270005910518960057 #
point $-1 -1 $-1 6579.192632069632964 2753.778797942457913 13510.04255502562773 #
point $-1 -1 $-1 6576.977306715851228 2747.712955234302171 13510.00000000000182 #
End-of-ACIS-data 