700 0 1 0           
4 LibG 20 ASM 224.0.1.65535 NT 24 Wed Jul 17 15:51:49 2019 
1000 9.999999999999999547e-07 1.000000000000000036e-10 
body $-1 -1 $-1 $1 $-1 $2 #
lump $-1 -1 $-1 $-1 $3 $0 #
transform $-1 -1 1 0 0 0 1 0 0 0 1 0 0 0 1 no_rotate no_reflect no_shear #
shell $-1 -1 $-1 $-1 $-1 $4 $-1 $1 #
face $-1 -1 $-1 $-1 $5 $3 $-1 $6 forward double out #
loop $-1 -1 $-1 $-1 $7 $4 #
spline-surface $-1 -1 $-1 forward { exactsur full nubs 3 3 open open none none 40 2 
	-1.191870091984416216e-07 3 0.02564102564102564014 1 0.05128205128205128027 1 0.07692307692307692735 1 0.1025641025641025605 1 
	0.1282051282051281937 1 0.1538461538461538269 1 0.1794871794871794601 1 0.2051282051282050933 1 0.2307692307692307265 1 
	0.2564102564102563875 1 0.2820512820512820484 1 0.3076923076923077094 1 0.3333333333333333703 1 0.3589743589743590313 1 
	0.3846153846153846922 1 0.4102564102564103532 1 0.4358974358974360142 1 0.4615384615384616751 1 0.4871794871794873361 1 
	0.512820512820512997 1 0.538461538461538658 1 0.5641025641025643189 1 0.5897435897435899799 1 0.6153846153846156408 1 
	0.6410256410256413018 1 0.6666666666666669627 1 0.6923076923076926237 1 0.7179487179487182846 1 0.7435897435897439456 1 
	0.7692307692307696065 1 0.7948717948717952675 1 0.8205128205128209284 1 0.8461538461538465894 1 0.8717948717948722503 1 
	0.8974358974358979113 1 0.9230769230769235723 1 0.9487179487179492332 1 0.9743589743589748942 1 1.000000000000000444 3 
	-1.191870091212202748e-07 3 0.1000418327985308081 3 
	5551.358101019361129 2955.7237058957503 13510.00000000014006 
	5550.048734719865934 2929.577926614474109 13509.99998045506436 
	5547.430024730743753 2877.286819531999754 13514.20473505411246 
	5543.602639745153283 2800.860564254112433 13532.964528614355 
	5539.974063194201335 2728.404169398967497 13563.69603353169077 
	5536.637297625316023 2661.774734907736729 13605.61152371907156 
	5533.677877138808071 2602.680228755881217 13657.63655965530779 
	5531.171661629590744 2552.635441777247252 13718.43755906687147 
	5529.182894188630598 2512.923197332699601 13786.45598127098674 
	5527.762553805977404 2484.561457639750188 13859.94827798377992 
	5526.947048742555126 2468.27723266834937 13937.03058651538231 
	5526.757283222450496 2464.487943600994186 14015.72701971045899 
	5527.198121595160046 2473.290723079873715 14094.02031479518155 
	5528.258263642720522 2494.459925306171499 14169.90354282494263 
	5529.910534244259907 2527.452910139641517 14241.4315532401888 
	5532.112579968472346 2571.42395284528402 14306.77083482773742 
	5534.807954739151683 2625.245922955229616 14364.24651497813647 
	5537.92756674406337 2687.53917653513372 14412.38529248488521 
	5541.391449497928079 2756.706921247650826 14449.9532033688356 
	5545.110811661067601 2830.976147683216823 14475.98725165866199 
	5548.990313069636613 2908.443077746122071 14489.82009432056475 
	5552.930508635032311 2987.121965096003805 14491.0971475769129 
	5556.830397466704198 3064.995996719942468 14479.78567611937615 
	5560.590011875611708 3140.068990851279978 14456.17563222850731 
	5564.11297989312061 3210.416566037937628 14420.87222329026918 
	5567.308995619118832 3274.235469719439607 14374.78039822975188 
	5570.096134075725786 3329.889801849939431 14319.08165052877121 
	5572.402951228860729 3375.952948695340183 14255.20373244642178 
	5574.17031534688158 3411.24415189579895 14184.78405677229057 
	5575.352922752101222 3434.858775401149614 14109.62772425247931 
	5575.920459111376658 3446.191494434323886 14031.6612525911878 
	5575.858376497514655 3444.951812062878162 13952.88319311399937 
	5575.168266303864584 3431.171505658252954 13875.31290096002522 
	5573.867818448685284 3405.203812277577526 13800.93877199782219 
	5571.990367931199216 3367.714374172666794 13731.66727334318966 
	5569.5840403022803 3319.664175318171147 13669.27407396442868 
	5566.710518179706924 3262.284910856072656 13615.3585282134427 
	5563.443459585295386 3197.047404024552634 13571.30267848231233 
	5559.866611786968861 3125.62394284822949 13538.23582992531556 
	5556.071657277295344 3049.845268056816167 13517.00559772188535 
	5553.461146314492908 2997.71788134240569 13511.10599750285292 
	5552.152474101636471 2971.585961770306312 13510.25746935760799 
	5667.927640020086983 2949.885967644951506 13510.00000000014006 
	5665.745038732543435 2923.757027052236481 13509.99998041480831 
	5661.379873914939708 2871.499598429254547 13514.21339492346124 
	5655.000158671831741 2795.126700788454855 13533.01149165290371 
	5648.952243634088518 2722.729166073178476 13563.80463887923179 
	5643.391331627256477 2656.166403782254747 13605.80190529905485 
	5638.460145915820249 2597.148182446980172 13657.92453893480888 
	5634.28524510715215 2547.190447359658265 13718.83370557873968 
	5630.973778263346503 2507.576420577299359 13786.9648786913458 
	5628.610734026826321 2479.32362916052125 13860.56802651882572 
	5627.25675961104389 2463.15777152350347 13937.75256415674266 
	5626.94660422596462 2459.494076310172659 14016.53591589244024 
	5627.68822726497001 2468.426637137884882 14094.89444042326977 
	5629.462594040471231 2489.725995945029354 14170.8154108545059 
	5632.224164337349976 2522.845037334235258 14242.34871428842598 
	5635.902061237430644 2566.933042408757046 14307.6569430198615 
	5640.401890217991422 2620.857541119188681 14365.06259067004248 
	5645.60816183526822 2683.233401790085736 14413.09114095597761 
	5651.387255813244337 2752.45841060514158 14450.50894229946425 
	5657.590850462658636 2826.75442712261156 14476.3548954155558 
	5664.059729412095294 2904.213058664598975 14489.96513994584348 
	5670.627867949612664 2982.844680350392537 14490.99010603473653 
	5677.126694096704341 3060.629541607423562 14479.40349286689707 
	5683.389415052396544 3135.569646401173031 14455.50294355451661 
	5689.255297967345541 3205.740074553633804 14419.90239905648014 
	5694.573795180323032 3269.338425879562692 14373.51632754939055 
	5699.208408041510665 3324.731117091367651 14317.5362343624638 
	5703.040190156528297 3370.495342268731747 14253.40005587386077 
	5705.970800139763014 3405.455619080978067 14182.75522355152498 
	5707.925025527689286 3428.713982026848953 14107.41634691269792 
	5708.852713076207692 3439.673047148480691 14029.31860239524576 
	5708.730055900861771 3438.051355779130972 13950.46802543180456 
	5707.560204428324141 3423.890603241942699 13872.88998256098421 
	5705.373185473120429 3397.554566757181874 13798.57714715219117 
	5702.225131545146724 3359.719760447337194 13729.43831507727191 
	5698.196840068880192 3311.358056298460269 13667.24937504288937 
	5693.391699870737284 3253.711722031614954 13613.60769309574425 
	5687.933036747887854 3188.261500244226681 13569.89108255380961 
	5681.96095149391931 3116.688611706859774 13537.22241490411761 
	5675.62871195412572 3040.831424019721908 13516.44077455872321 
	5671.275480512410468 2988.702991383052449 13510.86687230774987 
	5669.093844189555057 2962.584067302324456 13510.18583116160335 
	5784.204731855544196 2938.212458697317288 13510.00000000014006 
	5781.148394862791065 2912.144140770196373 13509.99998037455043 
	5775.035773928630078 2860.007957797817653 13514.22205479280819 
	5766.102679328882004 2783.816381152283611 13533.05845469143969 
	5757.635260331072459 2711.598981456544607 13563.91324422677098 
	5749.851306892603134 2645.214350227760406 13605.99228687903815 
	5742.951054809149355 2586.371181792992502 13658.21251821430087 
	5737.112003856695992 2536.584028512402256 13719.2298520905988 
	5732.484356378159646 2497.134356753514567 13787.4737761117085 
	5729.187152253401109 2469.037552622494331 13861.18777505386788 
	5727.305207061917827 2453.016789758999039 13938.47454179809756 
	5726.886930222489354 2449.484414920759264 14017.34481207441422 
	5727.943079766130722 2458.531335002935521 14095.76856605134526 
	5730.446485631930045 2479.924677443510518 14171.7272788840728 
	5734.332748640693353 2513.113784551100252 14243.26587533665042 
	5739.501897154495964 2557.244387368347361 14308.54305121198195 
	5745.820958807025818 2611.180594257571556 14365.87866636194121 
	5753.127381146736298 2673.534128219247123 14413.79698942706273 
	5761.233213197885561 2742.700060383866003 14451.06468123009472 
	5769.929940370504482 2816.898119908561966 14476.7225391724478 
	5778.993848343204263 2894.218516978134176 14490.11018557111674 
	5788.191777935918253 2972.671099446696189 14490.88306449255833 
	5797.287122931445083 3050.236577852274422 14479.02130961441253 
	5806.045916555729491 3124.918500300161668 14454.83025488052226 
	5814.242850046111016 3194.794639412352353 14418.93257482268928 
	5821.667068484386618 3258.066468676287514 14372.25225686902195 
	5828.127594801472696 3313.105454707101671 14315.99081819616185 
	5833.458242426083416 3358.494973897149521 14251.59637930129247 
	5837.521890204362535 3393.066774555748907 14180.72639033075757 
	5840.214009623094171 3415.931046040489491 14105.20496957290743 
	5841.465353603607582 3426.499320938773508 14026.97595219930372 
	5841.243737701031023 3424.49962082605407 13948.05285774960066 
	5839.554867894445124 3409.983455804722325 13870.46706416194138 
	5836.442193666742241 3383.324497597816389 13796.21552230654925 
	5831.985790195020854 3345.208960702573222 13727.20935681135052 
	5826.300298267891776 3296.617938001129914 13665.22467612134278 
	5819.531975457361114 3238.802150051948502 13611.85685797804217 
	5811.854932427147105 3173.249741133189673 13568.47948662529961 
	5803.466658581180127 3101.64801401518389 13536.20899988291058 
	5794.582924603394531 3025.839853127331935 13515.87595139556106 
	5788.482505429713456 2973.797841611941294 13510.6277471126341 
	5785.427020319866642 2947.735693063868439 13510.11419296559143 
	5899.608375383845669 2920.761508010720263 13510.00000000013824 
	5895.682194564650672 2894.797560814221924 13509.99998033430165 
	5887.829901339455319 2842.870118839673069 13514.23071466215333 
	5876.355210961612102 2766.987659832740064 13533.1054177299884 
	5865.480274150406331 2695.071388490666777 13564.02184957431382 
	5855.485536713084912 2628.975901039670134 13606.18266845902144 
	5846.628778321540267 2570.405901898031061 13658.50049749380014 
	5839.138424157615191 2520.871973393166172 13719.62599860245973 
	5833.207659491464256 2481.65165529829892 13787.98267353205847 
	5828.989445617919955 2453.756485075688943 13861.80752358891186 
	5826.592575231438786 2437.905911957086573 13939.19651943945246 
	5826.078866420988561 2434.508740750970901 14018.15370825639002 
	5827.461568339726909 2443.652588490017024 14096.64269167942257 
	5830.705019485651974 2465.101624631029154 14172.63914691363607 
	5835.725567455650889 2498.302653415336408 14244.18303638487851 
	5842.393726438390331 2542.399381431319853 14309.42915940409875 
	5850.537516805153246 2596.254502425277678 14366.69474205383995 
	5859.946900665823705 2658.479029761233505 14414.50283789814603 
	5870.379198992032798 2727.468120012890267 14451.62042016071791 
	5881.565350593499716 2801.44246375487819 14477.09018292933615 
	5893.216851521176068 2878.494176036448607 14490.25523119639547 
	5905.033195921963852 2956.636002968527464 14490.77602295037286 
	5916.709626436552753 3033.852575328634884 14478.63912636192799 
	5927.944994248591684 3108.152387293170705 14454.15756620652428 
	5938.44952606532479 3177.619159704712729 14417.96275058889842 
	5947.952297710140556 3240.461263155473716 14370.98818618865516 
	5956.208221574328491 3295.057926207796299 14314.44540202985081 
	5963.004367713537249 3340.001036987452608 14249.79270272872782 
	5968.165455560370901 3374.131460037900069 14178.69755710998834 
	5971.558374615457069 3396.568931780800085 14102.99359223311512 
	5973.095617523240435 3406.734763545559417 14024.63330200335622 
	5972.737536988592183 3404.366766623915737 13945.63769006739312 
	5970.493368329149234 3389.526014438271886 13868.04414576289855 
	5966.42099127749043 3362.595267332450931 13793.85389746091096 
	5960.625437225604401 3324.269100936386621 13724.98039854542549 
	5953.256180228224366 3275.535991492745779 13663.19997719979438 
	5944.503282317707999 3217.652824713012706 13610.10602286033827 
	5934.592489992533046 3152.112468714072293 13567.06789069679508 
	5923.779417881501104 3080.605310421705781 13535.1955848616999 
	5912.342934009191595 3004.975512139759758 13515.31112823239528 
	5904.499678048464375 2953.107833856274283 13510.38862191752196 
	5900.5738564528192 2927.146262215490879 13510.04255476957951 
	0 
	
	0 
	0 
	38 0.02564102564102564014 0.05128205128205128027 0.07692307692307692735 0.1025641025641025605 0.1282051282051281937 0.1538461538461538269 0.1794871794871794601 0.2051282051282050933 0.2307692307692307265 0.2564102564102563875 0.2820512820512820484 0.3076923076923077094 0.3333333333333333703 0.3589743589743590313 0.3846153846153846922 0.4102564102564103532 0.4358974358974360142 0.4615384615384616751 0.4871794871794873361 0.512820512820512997 0.538461538461538658 0.5641025641025643189 0.5897435897435899799 0.6153846153846156408 0.6410256410256413018 0.6666666666666669627 0.6923076923076926237 0.7179487179487182846 0.7435897435897439456 0.7692307692307696065 0.7948717948717952675 0.8205128205128209284 0.8461538461538465894 0.8717948717948722503 0.8974358974358979113 0.9230769230769235723 0.9487179487179492332 0.9743589743589748942 
	0 
	0 
	0 
	F 1 F 0 F 1 F 0 } I I I I #
tcoedge-coedge $-1 -1 $-1 $8 $9 $-1 $10 forward $5 $11 3.907042797884036887e-29 6.250766387756697462 #
coedge $-1 -1 $-1 $12 $7 $-1 $13 forward $5 $14 #
coedge $-1 -1 $-1 $7 $12 $-1 $15 forward $5 $16 #
tedge-edge $-1 -1 $-1 $17 3.907042797884036887e-29 $18 6.250766387756697462 $7 $19 forward @7 unknown 0.0008503927471091218002 #
pcurve $-1 -1 $-1 0 forward { exppc nubs 1 open 2 
	0 1 6.250766387756697462 1 
	0 0 
	0.9999999999999990008 2.854588739143996122e-17 
	7.060907730772490772e-08 
	spline forward { ref 0 } I I I I 
	} 0 0 #
tcoedge-coedge $-1 -1 $-1 $9 $8 $-1 $20 forward $5 $21 1.425681563642023717e-15 6.270005910518961834 #
edge $-1 -1 $-1 $18 -1.597735222659089516 $22 -1.482133598408436947 $8 $23 forward @7 unknown #
pcurve $-1 -1 $-1 0 forward { exppc nubs 3 open 2 
	-1.597735222659089516 3 -1.482133598408436947 3 
	1 0 
	0.9999999975120998918 0.0333081581958781861 
	1.000000000000000444 0.06667390754963273269 
	1 0.1000417136115216848 
	1.966058648258019401e-06 
	spline forward { ref 0 } I I I I 
	} 0 0 #
edge $-1 -1 $-1 $24 -0.1000208620216070654 $17 -1.530922173892124359e-27 $9 $25 forward @7 unknown #
pcurve $-1 -1 $-1 0 forward { exppc nubs 1 open 2 
	-0.1000208620216068156 1 -1.530922173892124359e-27 1 
	0 0.1000417136115216155 
	4.115616059926891727e-17 7.722134133294128483e-17 
	0.000930892138668220682 
	spline forward { ref 0 } I I I I 
	} 0 0 #
tvertex-vertex $-1 -1 $-1 $10 $26 1.30505379675102486e-11 #
tvertex-vertex $-1 -1 $-1 $10 $27 1.377741519647228202e-11 #
ellipse-curve $-1 -1 $-1 5551.358499391786609 2955.723320432855871 14000.00000000000364 -0.9987483720445043955 0.05001689053162220594 -2.26651802945174226e-12 1.116436010306642815e-09 8.608793677922222607e-11 -489.9999999999990337 1 F 3.907042797884036887e-29 F 6.250766387756697462 #
tedge-edge $-1 -1 $-1 $22 1.425681563642023717e-15 $24 6.270005910518961834 $12 $28 forward @7 unknown 0.0008609630462140156499 #
pcurve $-1 -1 $-1 0 forward { exppc nubs 1 open 2 
	0 1 6.270005910518961834 1 
	1 0.1000417136115216432 
	1.096926923112303796e-15 0.1000417136115216293 
	9.119188470042520547e-08 
	spline forward { ref 0 } I I I I 
	} 0 0 #
tvertex-vertex $-1 -1 $-1 $13 $29 1.636646291241049544e-11 #
ellipse-curve $-1 -1 $-1 5370.618312700846218 345.7980956831985964 13510.12130255229204 -0.0006048757059572782563 9.367564943286185806e-05 -0.9999998126751089567 3025.214738182101428 -303.9783944442520465 -1.858354622059462669 0.8655747822879075182 F -1.597735222659089516 F -1.482133598408436947 #
tvertex-vertex $-1 -1 $-1 $20 $30 1.419256341833392332e-11 #
ellipse-curve $-1 -1 $-1 5376.226465787209236 -540.6222883099254659 13509.9999999991378 -1.855728335305337159e-14 -2.46789930393151414e-13 1 175.1320336056941187 3496.345608742867626 8.662937034387141466e-10 1 F -0.1000208620216070654 F -1.530922173892124359e-27 #
point $-1 -1 $-1 5551.358499392903468 2955.723320432942273 13510.00000000000364 #
point $-1 -1 $-1 5552.152892063056242 2971.585929596517417 13510.25746910156886 #
ellipse-curve $-1 -1 $-1 5899.60790818019359 2920.761208318071567 14000.00000000000182 0.9887591971549576364 -0.1495167216116102815 -2.393170062064940829e-11 0.965536725064751522 6.385127486305842481 -489.9574449743724927 1 F 1.425681563642023717e-15 F 6.270005910518961834 #
point $-1 -1 $-1 5900.573444905258839 2927.146335804377941 13510.04255502562773 #
point $-1 -1 $-1 5899.607908168605718 2920.761208319874186 13510.00000000000182 #
End-of-ACIS-data 