700 0 1 0           
4 LibG 20 ASM 224.0.1.65535 NT 24 Wed Jul 17 15:51:49 2019 
1000 9.999999999999999547e-07 1.000000000000000036e-10 
body $-1 -1 $-1 $1 $-1 $2 #
lump $-1 -1 $-1 $-1 $3 $0 #
transform $-1 -1 1 0 0 0 1 0 0 0 1 0 0 0 1 no_rotate no_reflect no_shear #
shell $-1 -1 $-1 $-1 $-1 $4 $-1 $1 #
face $-1 -1 $-1 $-1 $5 $3 $-1 $6 forward double out #
loop $-1 -1 $-1 $-1 $7 $4 #
spline-surface $-1 -1 $-1 forward { exactsur full nubs 3 3 open open none none 40 2 
	-1.191870089863101874e-07 3 0.02564102564102564014 1 0.05128205128205128027 1 0.07692307692307692735 1 0.1025641025641025605 1 
	0.1282051282051281937 1 0.1538461538461538269 1 0.1794871794871794601 1 0.2051282051282050933 1 0.2307692307692307265 1 
	0.2564102564102563875 1 0.2820512820512820484 1 0.3076923076923077094 1 0.3333333333333333703 1 0.3589743589743590313 1 
	0.3846153846153846922 1 0.4102564102564103532 1 0.4358974358974360142 1 0.4615384615384616751 1 0.4871794871794873361 1 
	0.512820512820512997 1 0.538461538461538658 1 0.5641025641025643189 1 0.5897435897435899799 1 0.6153846153846156408 1 
	0.6410256410256413018 1 0.6666666666666669627 1 0.6923076923076926237 1 0.7179487179487182846 1 0.7435897435897439456 1 
	0.7692307692307696065 1 0.7948717948717952675 1 0.8205128205128209284 1 0.8461538461538465894 1 0.8717948717948722503 1 
	0.8974358974358979113 1 0.9230769230769235723 1 0.9487179487179492332 1 0.9743589743589748942 1 1.000000000000000444 3 
	-1.191870089863101874e-07 3 0.1000418327985306277 3 
	2408.360429688858403 3095.601708093462094 13510.00000000013461 
	2409.668917881379457 3069.455884851852716 13509.999980455068 
	2412.285871671708264 3017.164689849470506 13514.20473505410337 
	2416.110689878651101 2940.738306071925308 13532.96452861435137 
	2419.736832978868279 2868.281789391867278 13563.69603353169077 
	2423.071360795697274 2801.652242872911756 13605.61152371906792 
	2426.028796591001537 2742.557637362218884 13657.63655965530961 
	2428.533331344174712 2692.51276624053844 13718.43755906687329 
	2430.520765047916939 2652.800455025616429 13786.45598127098856 
	2431.940152900475823 2624.438667646515569 13859.94827798377992 
	2432.755111057592785 2608.154415295553918 13937.03058651538595 
	2432.944749314279306 2604.365119857058289 14015.72701971046081 
	2432.504206583250834 2613.167914136534819 14094.02031479518155 
	2431.444775504138306 2634.337151955774516 14169.90354282494263 
	2429.793612973228392 2667.330192262159471 14241.43155324019062 
	2427.593044018134151 2711.30130889872953 14306.77083482773924 
	2424.899476860335199 2765.123369502506193 14364.24651497813829 
	2421.781956976679339 2827.416727819476819 14412.38529248488703 
	2418.320397224109001 2896.584588827519838 14449.95320336883742 
	2414.603529395727492 2970.85394013601217 14475.98725165866199 
	2410.726629716902607 3048.321000448318955 14489.82009432056475 
	2406.789076584886061 3127.000020085331016 14491.09714757691472 
	2402.891803155483103 3204.874182643153745 14479.78567611937797 
	2399.134710075898965 3279.947302998836676 14456.17563222850731 
	2395.614104684338145 3350.294996464733231 14420.87222329026918 
	2392.420232318610942 3414.114007448460143 14374.7803982297537 
	2389.634963014837012 3469.768433153642945 14319.08165052876575 
	2387.329692894212258 3515.831657447543421 14255.20373244642178 
	2385.563514032573948 3551.122919985037242 14184.78405677228875 
	2384.381699725371163 3574.737583194948911 14109.62772425247931 
	2383.814543975891411 3586.070321282446457 14031.66125259118598 
	2383.876584954974078 3584.830636826654882 13952.88319311399937 
	2384.566232336519533 3571.050307252443872 13875.3129009600234 
	2385.865808065744659 3545.082570210860467 13800.93877199782219 
	2387.741999499047779 3507.593069072899652 13731.66727334318784 
	2390.146713360239573 3459.542789428968717 13669.2740739644305 
	2393.018308398067347 3402.163428491964623 13615.35852821344633 
	2396.283175988363837 3336.925811973042073 13571.30267848231961 
	2399.857625027073482 3265.502230708534171 13538.23582992531556 
	2403.650034507116743 3189.723428506275923 13517.00559772188535 
	2406.258794769681572 3137.595954147229804 13511.10599750285837 
	2407.566589341040526 3111.463990638098949 13510.25746935760435 
	2524.930164645734294 3101.435532123218763 13510.00000000014006 
	2525.368102262445973 3075.21924910060352 13509.99998041481376 
	2526.243969864927749 3022.787137126033031 13514.2133949234576 
	2527.523890375807241 2946.158930412570498 13533.01149165290371 
	2528.736913029802963 2873.519348329561126 13563.80463887923361 
	2529.851756260083675 2806.734004198400271 13605.80190529905667 
	2530.839666716495685 2747.518372182603798 13657.92453893480888 
	2531.675165295882834 2697.393457879024936 13718.83370557873786 
	2532.336703612465044 2657.646768738585706 13786.96487869134762 
	2532.807219929864459 2629.299232420612043 13860.56802651882572 
	2533.074579153121249 2613.078975982914926 13937.75256415674448 
	2533.131885817811053 2609.40262250082651 14016.53591589243842 
	2532.977661927684494 2618.364590067409154 14094.89444042326977 
	2532.615885074542348 2639.734666823426778 14170.8154108545059 
	2532.055885851852963 2672.963924623068124 14242.34871428842598 
	2531.312107209303576 2717.198819337418627 14307.6569430198615 
	2530.403731954384511 2771.303115621740744 14365.06259067004248 
	2529.35418800827938 2833.887072959809757 14413.09114095597761 
	2528.190544175939522 2903.34314328978553 14450.50894229946789 
	2526.942812014064202 2977.887263255015114 14476.35489541555762 
	2525.643171802532834 3055.604680418352928 14489.96513994584348 
	2524.325142582279113 3134.499136318373985 14490.99010603473653 
	2523.022717665138316 3212.544143022204935 14479.40349286689707 
	2521.769487911801207 3287.73503605754604 14455.50294355451661 
	2520.597775389376693 3358.140466666529846 14419.90239905648014 
	2519.537799752452884 3421.952010728947698 14373.51632754939419 
	2518.616898847528319 3477.530620081672168 14317.5362343624638 
	2517.858823642188327 3523.448723072155644 14253.40005587386077 
	2517.283125663574538 3558.526892943173607 14182.75522355152498 
	2516.904652744675786 3581.864142182068917 14107.41634691269974 
	2516.733166083678952 3592.861064699436156 14029.31860239524758 
	2516.773088492869647 3591.235231411139011 13950.46802543180456 
	2517.023390329653921 3577.028443812327168 13872.88998256098421 
	2517.477616053059592 3550.60565916291398 13798.57714715219117 
	2518.12405071538069 3512.645615244811779 13729.43831507727191 
	2518.946022115373125 3464.123394320591615 13667.24937504289119 
	2519.922330743865587 3406.285378723662689 13613.60769309574425 
	2521.027796717944966 3340.617224492807964 13569.89108255381143 
	2522.233908534286002 3268.80573885054082 13537.22241490411761 
	2523.509560878678258 3192.695405173127256 13516.44077455872321 
	2524.384418726129297 3140.392836049921698 13510.86687230774987 
	2524.822316084354952 3114.186615832506504 13510.18583116160153 
	2641.791761815024984 3101.433556171868986 13510.00000000014006 
	2641.354277721069593 3075.190328416308148 13509.99998037456135 
	2640.479317087704658 3022.704328821136187 13514.22205479280638 
	2639.200515718508086 2946.001517934454114 13533.05845469144515 
	2637.988140961254885 2873.299522427130796 13563.91324422677644 
	2636.873267141160795 2806.469392613706987 13605.99228687903997 
	2635.884473162666836 2747.231277884032806 13658.21251821430633 
	2635.047105504385399 2697.109885612719609 13719.22985209060062 
	2634.382629144294242 2657.395276282693885 13787.4737761117085 
	2633.908077154935199 2629.109648168283911 13861.1877750538697 
	2633.635614127214012 2612.981029990318348 13938.47454179809756 
	2633.572224332635869 2609.424541659650913 14017.34481207441422 
	2633.719532693029578 2618.531709994471839 14095.76856605134708 
	2634.073763126695212 2640.068113187867766 14171.72727888407462 
	2634.625835344190364 2673.479414973924577 14243.26587533665406 
	2635.361597611067737 2717.905633080557436 14308.54305121198195 
	2636.26218951131932 2772.203274723587583 14365.87866636194121 
	2637.304525412373096 2834.974769375104188 14413.79698942706273 
	2638.461886238681927 2904.604441220946228 14451.06468123009472 
	2639.704604384387494 2979.300095394103209 14476.72253917244961 
	2641.000824208119411 3057.139147578097436 14490.1101855711222 
	2642.31731861560138 3136.118109632900087 14490.88306449255833 
	2643.620340797784138 3214.204157516414853 14479.02130961441253 
	2644.876489291293638 3289.387454180151508 14454.83025488052408 
	2646.053564186303447 3359.732880687945908 14418.93257482269109 
	2647.121392533950257 3423.429844041339493 14372.25225686902377 
	2648.052601794927341 3478.838879702559097 14315.99081819616185 
	2648.823321502806721 3524.533849311186259 14251.59637930129429 
	2649.413795155717708 3559.338647470477554 14180.72639033075939 
	2649.808886651323064 3582.357472814154789 14105.20496957291107 
	2649.998468283151851 3592.997884220118522 14026.97595219930372 
	2649.977680352420975 3590.986048737028796 13948.05285774960066 
	2649.747055740881024 3576.373788800978218 13870.46706416194138 
	2649.312506249892067 3549.537247290098094 13796.21552230654925 
	2648.685171061436904 3511.167205131184801 13727.20935681135052 
	2647.881131185321465 3462.251299481761635 13665.22467612134278 
	2646.920997287759292 3404.048604761061597 13611.85685797804581 
	2645.829381185759303 3338.057213814774059 13568.47948662529961 
	2644.634265604047414 3265.975717138145683 13536.20899988291058 
	2643.366284434894624 3189.659334818612024 13515.87595139556288 
	2642.494059186313279 3137.268254473020988 13510.62774711263773 
	2642.056806549599514 3111.031250331350748 13510.11419296559143 
	2758.36129946044457 3095.59579010889729 13510.00000000013824 
	2757.047896740622491 3069.369535646181248 13509.99998033430347 
	2754.421114186848172 3016.917483709865337 13514.23071466215333 
	2750.582551918474564 2940.268403194063467 13533.1054177299884 
	2746.944621766123873 2867.625579745348205 13564.02184957430836 
	2743.601139654982489 2800.862346111872739 13606.18266845902144 
	2740.638339138156425 2741.700628914384652 13658.5004974937965 
	2738.13263397979108 2691.666271515840435 13719.62599860246155 
	2736.148649338772429 2652.049720354336841 13787.98267353206029 
	2734.73755447854046 2623.872732202178213 13861.80752358891368 
	2733.935743194338102 2607.862024706809734 13939.19651943945428 
	2733.76389513641152 2604.43053272946554 14018.15370825639366 
	2734.226442467878769 2613.666758475791539 14096.64269167942257 
	2735.31145555129342 2635.332488865586129 14172.63914691363789 
	2736.990950628688552 2668.868939341753048 14244.18303638488032 
	2739.221611555285563 2713.411165574457755 14309.42915940410057 
	2741.945906973644014 2767.810371389294687 14366.69474205383995 
	2745.093574114709099 2830.663537565626484 14414.50283789814785 
	2748.583430956924076 2900.349607345312052 14451.62042016071791 
	2752.325470005633633 2975.071295384775112 14477.09018292933797 
	2756.223179691749465 3052.901441848674494 14490.25523119639547 
	2760.176033518164331 3131.832716118813551 14490.77602295037286 
	2764.082082755810006 3209.829388201402708 14478.63912636192799 
	2767.840585820772048 3284.879832587482269 14454.1575662065261 
	2771.354606517706998 3355.048410430467811 14417.96275058890024 
	2774.533514137837301 3418.525391938668236 14370.98818618865698 
	2777.295320931058086 3473.673631425863277 14314.44540202985081 
	2779.568796666028902 3519.070791215660392 14249.79270272872782 
	2781.295305741241009 3553.546025395843117 14178.69755710998834 
	2782.430319465850971 3576.210177305251818 14102.99359223311876 
	2782.944564506793995 3586.478711926355118 14024.63330200335622 
	2782.824777882132821 3584.086791723932038 13945.63769006739494 
	2782.074049029646176 3569.096107129898428 13868.04414576289855 
	2780.711740123840173 3541.893285420125721 13793.8538974609146 
	2778.772986713041519 3503.179919348454405 13724.98039854543094 
	2776.307791494289177 3453.954471485861632 13663.19997719979438 
	2773.379734827669836 3395.486525545891709 13610.10602286033827 
	2770.06433439275861 3329.284031718719234 13567.06789069678962 
	2766.447099483245893 3257.054454486552459 13535.19558486170172 
	2762.621318217728913 3180.660587263864272 13515.3111282323971 
	2759.997558848137032 3128.268902796241036 13510.38862191752196 
	2758.684276297305587 3102.045047888885165 13510.04255476957951 
	0 
	
	0 
	0 
	38 0.02564102564102564014 0.05128205128205128027 0.07692307692307692735 0.1025641025641025605 0.1282051282051281937 0.1538461538461538269 0.1794871794871794601 0.2051282051282050933 0.2307692307692307265 0.2564102564102563875 0.2820512820512820484 0.3076923076923077094 0.3333333333333333703 0.3589743589743590313 0.3846153846153846922 0.4102564102564103532 0.4358974358974360142 0.4615384615384616751 0.4871794871794873361 0.512820512820512997 0.538461538461538658 0.5641025641025643189 0.5897435897435899799 0.6153846153846156408 0.6410256410256413018 0.6666666666666669627 0.6923076923076926237 0.7179487179487182846 0.7435897435897439456 0.7692307692307696065 0.7948717948717952675 0.8205128205128209284 0.8461538461538465894 0.8717948717948722503 0.8974358974358979113 0.9230769230769235723 0.9487179487179492332 0.9743589743589748942 
	0 
	0 
	0 
	F 1 F 0 F 1 F 0 } I I I I #
tcoedge-coedge $-1 -1 $-1 $8 $9 $-1 $10 forward $5 $11 0 6.250766387756696574 #
coedge $-1 -1 $-1 $12 $7 $-1 $13 forward $5 $14 #
coedge $-1 -1 $-1 $7 $12 $-1 $15 forward $5 $16 #
tedge-edge $-1 -1 $-1 $17 0 $18 6.250766387756696574 $7 $19 forward @7 unknown 0.0008503927426323202752 #
pcurve $-1 -1 $-1 0 forward { exppc nubs 1 open 2 
	0 1 6.250766387756696574 1 
	0 0 
	0.9999999999999987788 0 
	6.926583907915398942e-08 
	spline forward { ref 0 } I I I I 
	} 0 0 #
tcoedge-coedge $-1 -1 $-1 $9 $8 $-1 $20 forward $5 $21 0 6.270005910518959169 #
edge $-1 -1 $-1 $18 -1.597735222459570448 $22 -1.48213359829384328 $8 $23 forward @7 unknown #
pcurve $-1 -1 $-1 0 forward { exppc nubs 3 open 2 
	-1.597735222459570448 3 -1.48213359829384328 3 
	0.999999999999999889 9.998984223394468133e-17 
	0.9999999975121015572 0.03330815819593223315 
	1.000000000000000444 0.06667390754957716603 
	1.000000000000000222 0.1000417136115216848 
	1.978847595137737694e-06 
	spline forward { ref 0 } I I I I 
	} 0 0 #
edge $-1 -1 $-1 $24 -0.1000208620216091332 $17 -1.481275457587966778e-16 $9 $25 forward @7 unknown #
pcurve $-1 -1 $-1 0 forward { exppc nubs 1 open 2 
	-0.1000208620216089944 1 -1.530922173892437353e-27 1 
	0 0.1000417136115216432 
	0 0 
	0.0009308921376347869267 
	spline forward { ref 0 } I I I I 
	} 0 0 #
tvertex-vertex $-1 -1 $-1 $10 $26 1.553224029344912157e-11 #
tvertex-vertex $-1 -1 $-1 $10 $27 1.741670484344471549e-11 #
ellipse-curve $-1 -1 $-1 2408.360864568231591 3095.601364345334787 14000.00000000000364 -0.998750063213665884 -0.04998310945407866135 -7.631599398742592949e-13 3.665505232675059336e-10 1.597229015715129208e-10 -489.9999999999990337 1 F 0 F 6.250766387756696574 #
tedge-edge $-1 -1 $-1 $22 -1.100808740288568538e-15 $24 6.270005910518959169 $12 $28 forward @7 unknown 0.0008609630464013854094 #
pcurve $-1 -1 $-1 0 forward { exppc nubs 1 open 2 
	0 1 6.270005910518959169 1 
	0.999999999999999889 0.1000417136115216571 
	1.09537549115465875e-15 0.1000417136115216848 
	7.963139971488921481e-08 
	spline forward { ref 0 } I I I I 
	} 0 0 #
tvertex-vertex $-1 -1 $-1 $13 $29 1.577009702303690444e-11 #
ellipse-curve $-1 -1 $-1 2489.190456338838885 480.6743498468225653 13510.12130255224838 -0.0006112071755870249591 3.27953573683926775e-05 -0.9999998126751089567 3040.448485091552811 -0.3154166640910877617 -1.858354623408952744 0.8655747829232719459 F -1.597735222459570448 F -1.48213359829384328 #
tvertex-vertex $-1 -1 $-1 $20 $30 1.547588323515460363e-11 #
ellipse-curve $-1 -1 $-1 2583.301735310167714 -400.7538145106380512 13509.9999999991378 6.18362805712625251e-15 -2.474093879644664101e-13 1 -174.9408707415700803 3496.35517885613308 8.662937034387141466e-10 1 F -0.1000208620216091332 F -1.481275457587966778e-16 #
point $-1 -1 $-1 2408.360864568598117 3095.601364345494403 13510.00000000000364 #
point $-1 -1 $-1 2407.567008426006851 3111.464000369044243 13510.25746910156886 #
ellipse-curve $-1 -1 $-1 2758.360864518286689 3095.595445253099115 14000.00000000000182 0.9987483720445136104 -0.05001689053143944241 -1.105330497576693922e-11 0.3229949395112342581 6.449634753447620383 -489.9574449743724927 1 F -1.100808740288568538e-15 F 6.270005910518959169 #
point $-1 -1 $-1 2758.683859457797553 3102.045080006546414 13510.04255502562773 #
point $-1 -1 $-1 2758.360864512879743 3095.595445253418802 13510.00000000000182 #
End-of-ACIS-data 