700 0 1 0           
4 LibG 20 ASM 224.0.1.65535 NT 24 Wed Jul 17 15:51:49 2019 
1000 9.999999999999999547e-07 1.000000000000000036e-10 
body $-1 -1 $-1 $1 $-1 $2 #
lump $-1 -1 $-1 $-1 $3 $0 #
transform $-1 -1 1 0 0 0 1 0 0 0 1 0 0 0 1 no_rotate no_reflect no_shear #
shell $-1 -1 $-1 $-1 $-1 $4 $-1 $1 #
face $-1 -1 $-1 $-1 $5 $3 $-1 $6 forward double out #
loop $-1 -1 $-1 $-1 $7 $4 #
spline-surface $-1 -1 $-1 forward { exactsur full nubs 3 3 open open none none 40 2 
	-1.191870090728816662e-07 3 0.02564102564102564014 1 0.05128205128205128027 1 0.07692307692307692735 1 0.1025641025641025605 1 
	0.1282051282051281937 1 0.1538461538461538269 1 0.1794871794871794601 1 0.2051282051282050933 1 0.2307692307692307265 1 
	0.2564102564102563875 1 0.2820512820512820484 1 0.3076923076923077094 1 0.3333333333333333703 1 0.3589743589743590313 1 
	0.3846153846153846922 1 0.4102564102564103532 1 0.4358974358974360142 1 0.4615384615384616751 1 0.4871794871794873361 1 
	0.512820512820512997 1 0.538461538461538658 1 0.5641025641025643189 1 0.5897435897435899799 1 0.6153846153846156408 1 
	0.6410256410256413018 1 0.6666666666666669627 1 0.6923076923076926237 1 0.7179487179487182846 1 0.7435897435897439456 1 
	0.7692307692307696065 1 0.7948717948717952675 1 0.8205128205128209284 1 0.8461538461538465894 1 0.8717948717948722503 1 
	0.8974358974358979113 1 0.9230769230769235723 1 0.9487179487179492332 1 0.9743589743589748942 1 1.000000000000000444 3 
	-1.191870090249061833e-07 3 0.1000418327985307526 3 
	7851.132082965814334 2170.778317983320903 13510.00000000013461 
	7837.443397234274926 2148.463836199632169 13509.99998045506436 
	7810.066262144671782 2103.835257954257941 13514.20473505411064 
	7770.053112072424483 2038.608199206184509 13532.964528614355 
	7732.118391988450639 1976.769273476987792 13563.69603353169441 
	7697.234391040959053 1919.903448740345311 13605.61152371907156 
	7666.29531997824779 1869.468414203587145 13657.63655965531325 
	7640.094251190707837 1826.756989334985974 13718.43755906687329 
	7619.302809939428698 1792.864017711767247 13786.4559812709922 
	7604.453952795794066 1768.658293456104047 13859.94827798378356 
	7595.928307581048102 1754.760293416532249 13937.03058651538777 
	7593.944416160906258 1751.526271551779701 14015.72701971046445 
	7598.553132564196858 1759.039127076724299 14094.02031479518519 
	7609.636319389339405 1777.106279421737554 14169.90354282494809 
	7626.909876083602285 1805.264604753551794 14241.43155324019244 
	7649.931021424517894 1842.79230744350275 14306.77083482773924 
	7678.109643540216894 1888.72742219606539 14364.24651497813829 
	7710.72342652511179 1941.892472558549343 14412.38529248489067 
	7746.936365904099148 2000.924653730199225 14449.95320336883924 
	7785.820198329364757 2064.31076598013351 14475.98725165866563 
	7826.378196192444193 2130.426003209454393 14489.82009432056475 
	7867.570717212890486 2197.575602371985951 14491.09714757691472 
	7908.341854079010773 2264.038286134453756 14479.78567611937797 
	7947.646501017788978 2328.11038518985788 14456.17563222850913 
	7984.477143483890359 2388.149509216022579 14420.87222329027099 
	8017.88968425497842 2442.616647041041688 14374.78039822975916 
	8047.027643920954688 2490.115616842210784 14319.08165052877121 
	8071.14411542441394 2529.42885513291867 14255.20373244642542 
	8089.620909881444277 2559.548627141587986 14184.78405677229239 
	8101.984402908594348 2579.702858551939698 14109.62772425248113 
	8107.917675260514443 2589.374926448821043 14031.6612525911878 
	8107.268636568376678 2588.316902153673709 13952.88319311400483 
	8100.053923951556499 2576.555906509535362 13875.31290096002522 
	8086.458475522306799 2554.393414633744669 13800.93877199782582 
	8066.830789885195372 2522.39752823567369 13731.66727334319148 
	8041.673992515287864 2481.388412557526408 13669.27407396443414 
	8011.632940371507175 2432.41727508150916 13615.35852821344633 
	7977.477686503606492 2376.739410515138388 13571.30267848231233 
	7940.083761335660711 2315.782056511604878 13538.23582992531919 
	7900.40965358721769 2251.107684406123553 13517.00559772188717 
	7873.118234690739882 2206.618835603556363 13511.10599750285473 
	7859.436805243328308 2184.316182582921556 13510.25746935760799 
	7950.619990035979754 2109.748055346453839 13510.00000000013461 
	7936.17313181965892 2087.86716019667665 13509.99998041481194 
	7907.279665571378246 2044.105748903958784 13514.21339492346124 
	7865.052481016141428 1980.149630000657908 13533.01149165290371 
	7825.023063454736075 1919.522688474237839 13563.80463887923361 
	7788.219389377653897 1863.782087108861788 13605.80190529905667 
	7755.586715588792686 1814.35966665528781 13657.92453893480888 
	7727.963155402204393 1772.524944062265376 13718.83370557873968 
	7706.058174538005915 1739.352534684737975 13786.96487869135126 
	7690.434363739103901 1715.694539481767151 13860.56802651882572 
	7681.492991051230092 1702.158659225371593 13937.75256415674448 
	7679.463695513342827 1699.092583786151408 14016.53591589244024 
	7684.398589458930473 1706.575061278169414 14094.89444042326977 
	7696.170920230399133 1724.413875455592915 14170.81541085450954 
	7714.478325853652677 1752.150783581593714 14242.3487142884278 
	7738.850601001478935 1789.073287846299763 14307.65694301986332 
	7768.661773793368411 1834.232937964496614 14365.0625906700443 
	7803.146183244073654 1886.469694787866501 14413.09114095597943 
	7841.418144425648279 1944.441729079990864 14450.50894229946789 
	7882.494696260345336 2006.659889984257688 14476.3548954155558 
	7925.320847689072252 2071.525957762599319 14489.96513994584529 
	7968.796673792540787 2137.373698174903893 14490.99010603474017 
	8011.805565929745171 2202.51166390301205 14479.40349286689889 
	8053.242910319638213 2265.266643547501644 14455.50294355451842 
	8092.044458489596764 2324.026642093163446 14419.90239905648195 
	8127.213660929590333 2377.28228877701622 14373.51632754939055 
	8157.847261921800964 2423.665608691716443 14317.53623436246744 
	8183.158498176680041 2461.985162179607414 14253.40005587386258 
	8202.497305451941429 2491.256649378463862 14182.7552235515268 
	8215.367014178851605 2510.728193772097256 14107.41634691270156 
	8221.437105298777169 2519.899655287234054 14029.31860239524758 
	8220.55169869909696 2518.535476840941101 13950.46802543180456 
	8212.73355625829754 2506.670734380075373 13872.88998256098603 
	8198.183496652323811 2484.610234950105678 13798.57714715219117 
	8177.275237145833671 2452.920686255843975 13729.43831507727191 
	8150.545794196355018 2412.416137869127397 13667.24937504289301 
	8118.681691932585636 2364.137071870988166 13613.60769309574425 
	8082.501323420091467 2309.323665943174092 13569.89108255381143 
	8042.933952539800885 2249.383968434055987 13537.22241490411943 
	8000.995765996014597 2185.857606262044555 13516.44077455872502 
	7972.174638656578281 2142.203663347057045 13510.86687230774987 
	7957.733431184860819 2120.331094706431486 13510.18583116160335 
	8047.052394218881091 2043.737265922545021 13510.00000000013461 
	8031.867923317554414 2022.328617230731652 13509.99998037455771 
	8001.499245272548251 1979.511691799157688 13514.22205479281001 
	7957.118477990597057 1916.939301511385111 13533.05845469144879 
	7915.052382222722372 1857.630840140794817 13563.91324422677644 
	7876.383461264457765 1803.112735382490882 13605.99228687903997 
	7842.106922964667319 1754.788301889272589 13658.21251821430815 
	7813.104912561761012 1713.901402515509972 13719.22985209060062 
	7790.123832234772635 1681.504463307091328 13787.4737761117085 
	7773.755125273179146 1658.431375307802227 13861.1877750538697 
	7764.420056138698783 1645.276032488759711 13938.4745417981012 
	7762.358868287846235 1642.377044362578545 14017.34481207441604 
	7767.624601430551593 1649.809020499626968 14095.7685660513489 
	7780.081726637445172 1667.380650284266721 14171.72727888407826 
	7799.409634608005035 1694.639627599161031 14243.26587533665588 
	7825.110887266668215 1730.884293594959445 14308.54305121198377 
	7856.524020325326092 1775.181697866597233 14365.87866636194303 
	7892.840567306286175 1826.391613120339116 14413.79698942706455 
	7933.12586687790008 1883.195885176827687 14451.06468123009654 
	7976.343117983798948 1944.132362820312437 14476.72253917244961 
	8021.380063660257292 2007.632534118267586 14490.1101855711222 
	8067.077616782824407 2072.061900430448077 14490.88306449255833 
	8112.259691005822788 2135.762048858699927 14479.02130961441617 
	8155.763469141703354 2197.093340172101307 14454.8302548805259 
	8196.469329970688705 2254.47711340150272 14418.93257482269109 
	8233.329663263715702 2306.436320741015606 14372.25225686902377 
	8265.395831417310546 2351.633546801243938 14315.99081819616549 
	8291.842583801128058 2388.905433589416589 14251.59637930129247 
	8311.989295479832435 2417.292625112692349 14180.72639033076121 
	8325.31748370277819 2436.064460829701147 14105.20496957291471 
	8331.484151356169605 2444.737782346622225 14026.97595219930554 
	8330.33061396964149 2443.089369277342485 13948.05285774960248 
	8321.886583126512051 2431.161684201422759 13870.46706416194684 
	8306.369401148254838 2409.261778791144934 13796.21552230655107 
	8284.178446954985702 2377.953389552672434 13727.20935681135416 
	8255.884856386444881 2338.042425665973497 13665.22467612134642 
	8222.216824200711926 2290.556226211890589 13611.85685797804581 
	8184.040856207025172 2236.717106860950935 13568.47948662530689 
	8142.339490769624717 2177.910928741195676 13536.20899988291239 
	8098.185926053000003 2115.65130531315117 13515.87595139556288 
	8067.873120277141425 2072.911161622967029 13510.62774711264137 
	8052.692355775227043 2051.507517883274431 13510.11419296559689 
	8139.947452218726539 1973.075785477550198 13510.00000000013097 
	8124.049765634739742 1952.175904828971625 13509.99998033430165 
	8092.254669481907513 1910.376507709551788 13514.23071466216061 
	8045.79195172236814 1849.294333856591038 13533.1054177299884 
	8001.757724821783995 1791.404773522602 13564.02184957431382 
	7961.287555314834208 1738.20069832244144 13606.18266845902326 
	7925.425231203194926 1691.054323297741803 13658.50049749380196 
	7895.095679818567078 1651.181603407655075 13719.62599860246519 
	7871.081136880325175 1619.61090420008054 13787.98267353206211 
	7854.000965285080383 1597.156470599821205 13861.8075235889155 
	7844.295682736592425 1584.397428845373724 13939.19651943945792 
	7842.215599816295253 1581.662849537639886 14018.15370825639548 
	7847.814364304100309 1589.023260686552248 14096.64269167942803 
	7860.947577506160087 1606.288828667472444 14172.63914691363971 
	7881.276518475124249 1633.014254264378678 14244.18303638488396 
	7908.276880017689109 1668.510257454958719 14309.42915940410239 
	7941.252291191697623 1711.86135475037554 14366.69474205384358 
	7979.352277528027116 1761.949470586286907 14414.50283789814966 
	8021.594195763143944 1817.482773800990799 14451.62042016072337 
	8066.888577359520241 1877.028995473826853 14477.09018292934343 
	8114.067227175033622 1939.05236881786891 14490.25523119639911 
	8161.913352583654159 2001.953238403779096 14490.77602295038014 
	8209.192945982165838 2064.109317146548619 14478.63912636193345 
	8254.686611291297595 2123.917526989160251 14454.15756620652974 
	8297.22101360855595 2179.835344162931051 14417.96275058890569 
	8335.699140889355476 2230.420582681814722 14370.9881861886588 
	8369.128597172273658 2274.368590007840794 14314.44540202985081 
	8396.647197633024916 2310.545895567811385 14249.79270272873327 
	8417.545205340731627 2338.019444286786893 14178.69755710999198 
	8431.283636204349023 2356.080661170858548 14102.9935922331224 
	8437.508160004163074 2364.263726286844303 14024.63330200335804 
	8436.05823898070048 2362.357588800738085 13945.6376900674004 
	8426.971268300456359 2350.411410237530617 13868.04414576290037 
	8410.481611557557699 2328.733296504321061 13793.85389746091823 
	8387.014556386044205 2297.882351640924298 13724.98039854543458 
	8357.175345331774224 2258.654257264598073 13663.19997719979983 
	8321.733567662580754 2212.060753276060041 13610.10602286034373 
	8281.603304325166391 2159.303535443327746 13567.06789069679508 
	8237.81957674167279 2101.743293831411393 13535.19558486170536 
	8191.511562771484023 2040.86450118843436 13515.31112823240073 
	8159.753059838571062 1999.11321131560976 13510.38862191752924 
	8143.856827803842862 1978.215242889026513 13510.04255476958315 
	0 
	
	0 
	0 
	38 0.02564102564102564014 0.05128205128205128027 0.07692307692307692735 0.1025641025641025605 0.1282051282051281937 0.1538461538461538269 0.1794871794871794601 0.2051282051282050933 0.2307692307692307265 0.2564102564102563875 0.2820512820512820484 0.3076923076923077094 0.3333333333333333703 0.3589743589743590313 0.3846153846153846922 0.4102564102564103532 0.4358974358974360142 0.4615384615384616751 0.4871794871794873361 0.512820512820512997 0.538461538461538658 0.5641025641025643189 0.5897435897435899799 0.6153846153846156408 0.6410256410256413018 0.6666666666666669627 0.6923076923076926237 0.7179487179487182846 0.7435897435897439456 0.7692307692307696065 0.7948717948717952675 0.8205128205128209284 0.8461538461538465894 0.8717948717948722503 0.8974358974358979113 0.9230769230769235723 0.9487179487179492332 0.9743589743589748942 
	0 
	0 
	0 
	F 1 F 0 F 1 F 0 } I I I I #
tcoedge-coedge $-1 -1 $-1 $8 $9 $-1 $10 forward $5 $11 4.709343505911863135e-16 6.250766387756699238 #
coedge $-1 -1 $-1 $12 $7 $-1 $13 forward $5 $14 #
coedge $-1 -1 $-1 $7 $12 $-1 $15 forward $5 $16 #
tedge-edge $-1 -1 $-1 $17 4.709343505911863135e-16 $18 6.250766387756699238 $7 $19 forward @7 unknown 0.0008503927471220329133 #
pcurve $-1 -1 $-1 0 forward { exppc nubs 1 open 2 
	0 1 6.250766387756699238 1 
	0 0 
	0.9999999999999990008 1.525731648567795952e-16 
	6.792633013971635241e-08 
	spline forward { ref 0 } I I I I 
	} 0 0 #
tcoedge-coedge $-1 -1 $-1 $9 $8 $-1 $20 forward $5 $21 0 6.270005910518960945 #
edge $-1 -1 $-1 $18 -1.597735222586285531 $22 -1.482133598362260773 $8 $23 forward @7 unknown #
pcurve $-1 -1 $-1 0 forward { exppc nubs 3 open 2 
	-1.597735222586285531 3 -1.482133598362260773 3 
	0.9999999999999996669 0 
	0.9999999975121001139 0.03330815819589992566 
	1.000000000000000444 0.06667390754961947941 
	1.000000000000000444 0.1000417136115210187 
	1.940389359461155366e-06 
	spline forward { ref 0 } I I I I 
	} 0 0 #
edge $-1 -1 $-1 $24 -0.1000208620216280625 $17 -1.53092217389193728e-27 $9 $25 forward @7 unknown #
pcurve $-1 -1 $-1 0 forward { exppc nubs 1 open 2 
	-0.1000208620216281735 1 -1.53092217389193728e-27 1 
	0 0.1000417136115216848 
	1.61106085179397209e-16 4.797547671096955712e-17 
	0.0009308921398824173939 
	spline forward { ref 0 } I I I I 
	} 0 0 #
tvertex-vertex $-1 -1 $-1 $10 $26 1.657420618827061662e-11 #
tvertex-vertex $-1 -1 $-1 $10 $27 1.406738395668033167e-11 #
ellipse-curve $-1 -1 $-1 7851.132247660617395 2170.777788682760274 14000.00000000000364 -0.8523957392231376051 0.5228972210236357832 7.397883777288142058e-13 -2.349821670577512329e-10 3.107828661086387208e-10 -489.9999999999990337 1 F 4.709343505911863135e-16 F 6.250766387756699238 #
tedge-edge $-1 -1 $-1 $22 -3.53869736512276389e-15 $24 6.270005910518960945 $12 $28 forward @7 unknown 0.0008609630508741854694 #
pcurve $-1 -1 $-1 0 forward { exppc nubs 1 open 2 
	0 1 6.270005910518960945 1 
	1 0.1000417136115216848 
	1.094742840856729565e-15 0.1000417136115215738 
	6.228020388227795612e-08 
	spline forward { ref 0 } I I I I 
	} 0 0 #
tvertex-vertex $-1 -1 $-1 $13 $29 1.266134063866039083e-11 #
ellipse-curve $-1 -1 $-1 6440.793398197815804 -32.70151230856415481 13510.12130255228294 -0.0004858402331724169456 0.0003723023163840961957 -0.9999998126751089567 2508.782502077750451 -1717.654632902348794 -1.858354622481830143 0.8655747824872012108 F -1.597735222586285531 F -1.482133598362260773 #
tvertex-vertex $-1 -1 $-1 $20 $30 1.733258070640526666e-11 #
ellipse-curve $-1 -1 $-1 6020.579648047528281 -813.2096484580014248 13509.9999999991378 -1.346462564091081419e-13 -2.076536254051177141e-13 1 1830.552599612854237 2983.98743714107195 8.662937034387141466e-10 1 F -0.1000208620216280625 F -1.53092217389193728e-27 #
point $-1 -1 $-1 7851.132247660382745 2170.777788683071321 13510.00000000000364 #
point $-1 -1 $-1 7859.437156566354133 2184.31595389310678 13510.25746910156886 #
ellipse-curve $-1 -1 $-1 8139.946898507951119 1973.075746586908281 14000.00000000000182 0.795909441479683788 -0.6054156926967600993 8.272563276484260816e-12 3.909603463947920243 5.13975825681646814 -489.9574449743724927 1 F -3.53869736512276389e-15 F 6.270005910518960945 #
point $-1 -1 $-1 8143.85650197189716 1978.215504843724375 13510.04255502562773 #
point $-1 -1 $-1 8139.946898511208019 1973.075746584493345 13510.00000000000182 #
End-of-ACIS-data 