700 0 1 0           
4 LibG 20 ASM 224.0.1.65535 NT 24 Wed Jul 17 15:51:49 2019 
1000 9.999999999999999547e-07 1.000000000000000036e-10 
body $-1 -1 $-1 $1 $-1 $2 #
lump $-1 -1 $-1 $-1 $3 $0 #
transform $-1 -1 1 0 0 0 1 0 0 0 1 0 0 0 1 no_rotate no_reflect no_shear #
shell $-1 -1 $-1 $-1 $-1 $4 $-1 $1 #
face $-1 -1 $-1 $-1 $5 $3 $-1 $6 forward double out #
loop $-1 -1 $-1 $-1 $7 $4 #
spline-surface $-1 -1 $-1 forward { exactsur full nubs 3 3 open open none none 40 2 
	-1.191870090159332456e-07 3 0.02564102564102564014 1 0.05128205128205128027 1 0.07692307692307692735 1 0.1025641025641025605 1 
	0.1282051282051281937 1 0.1538461538461538269 1 0.1794871794871794601 1 0.2051282051282050933 1 0.2307692307692307265 1 
	0.2564102564102563875 1 0.2820512820512820484 1 0.3076923076923077094 1 0.3333333333333333703 1 0.3589743589743590313 1 
	0.3846153846153846922 1 0.4102564102564103532 1 0.4358974358974360142 1 0.4615384615384616751 1 0.4871794871794873361 1 
	0.512820512820512997 1 0.538461538461538658 1 0.5641025641025643189 1 0.5897435897435899799 1 0.6153846153846156408 1 
	0.6410256410256413018 1 0.6666666666666669627 1 0.6923076923076926237 1 0.7179487179487182846 1 0.7435897435897439456 1 
	0.7692307692307696065 1 0.7948717948717952675 1 0.8205128205128209284 1 0.8461538461538465894 1 0.8717948717948722503 1 
	0.8974358974358979113 1 0.9230769230769235723 1 0.9487179487179492332 1 0.9743589743589748942 1 1.000000000000000444 3 
	-1.191870089647034224e-07 3 0.1000418327985306971 3 
	4504.859247017437156 3025.653807499088998 13510.00000000014006 
	4506.167735209956845 2999.507984257479166 13509.9999804550589 
	4508.784689000287472 2947.216789255097865 13514.20473505410882 
	4512.609507207231218 2870.790405477551758 13532.96452861435137 
	4516.235650307446122 2798.333888797495547 13563.69603353168714 
	4519.570178124276026 2731.704342278538206 13605.61152371907156 
	4522.527613919581199 2672.609736767847153 13657.63655965530779 
	4525.032148672753465 2622.564865646166709 13718.43755906687147 
	4527.019582376497056 2582.852554431244243 13786.45598127098674 
	4528.438970229055485 2554.490767052142019 13859.94827798377992 
	4529.253928386172447 2538.206514701180367 13937.03058651538231 
	4529.443566642858059 2534.417219262684284 14015.72701971046081 
	4529.003023911829587 2543.220013542161723 14094.02031479518155 
	4527.943592832717513 2564.389251361400966 14169.90354282494263 
	4526.292430301807144 2597.382291667786376 14241.43155324019062 
	4524.091861346712903 2641.353408304356435 14306.77083482773742 
	4521.398294188913496 2695.175468908134462 14364.24651497813829 
	4518.280774305259001 2757.468827225103723 14412.38529248488885 
	4514.819214552689118 2826.636688233147197 14449.95320336883742 
	4511.10234672430488 2900.906039541639075 14475.98725165866381 
	4507.225447045481815 2978.373099853946314 14489.82009432056475 
	4503.287893913465268 3057.052119490958376 14491.0971475769129 
	4499.39062048406231 3134.926282048781104 14479.78567611937615 
	4495.633527404476808 3209.999402404462671 14456.17563222850731 
	4492.112922012917807 3280.34709587036059 14420.87222329026918 
	4488.919049647188331 3344.166106854086593 14374.7803982297537 
	4486.13378034341622 3399.820532559270305 14319.08165052877121 
	4483.82851022279101 3445.883756853169416 14255.2037324464236 
	4482.062331361153156 3481.175019390663692 14184.78405677229057 
	4480.880517053949916 3504.789682600575816 14109.62772425247931 
	4480.313361304469254 3516.122420688073362 14031.6612525911878 
	4480.37540228355374 3514.882736232281786 13952.88319311399937 
	4481.065049665098741 3501.102406658071232 13875.31290096002522 
	4482.364625394323411 3475.134669616487827 13800.93877199782219 
	4484.240816827626077 3437.645168478525648 13731.66727334318784 
	4486.645530688818326 3389.594888834596986 13669.2740739644305 
	4489.517125726646555 3332.215527897589254 13615.35852821344633 
	4492.781993316943954 3266.977911378670797 13571.30267848231233 
	4496.356442355652689 3195.554330114161985 13538.23582992531556 
	4500.148851835696405 3119.775527911903737 13517.00559772188535 
	4502.757612098260324 3067.648053552856709 13511.10599750285292 
	4504.065406669619733 3041.516090043726763 13510.25746935760799 
	4621.428981974313501 3031.487631528845213 13510.00000000014006 
	4621.866919591024271 3005.271348506229515 13509.99998041480831 
	4622.742787193507866 2952.839236531659935 13514.21339492346306 
	4624.022707704386448 2876.211029818197858 13533.01149165290371 
	4625.235730358380351 2803.57144773518894 13563.80463887923179 
	4626.350573588662883 2736.786103604026721 13605.80190529905485 
	4627.338484045075347 2677.570471588231158 13657.92453893480888 
	4628.173982624462042 2627.44555728465275 13718.83370557873968 
	4628.835520941043796 2587.698868144213975 13786.9648786913458 
	4629.306037258443212 2559.351331826238493 13860.56802651882572 
	4629.573396481700001 2543.131075388541831 13937.75256415674266 
	4629.63070314639026 2539.454721906453415 14016.53591589243842 
	4629.476479256263701 2548.416689473035603 14094.89444042326977 
	4629.114702403120646 2569.786766229054138 14170.8154108545059 
	4628.554703180430806 2603.016024028695483 14242.34871428842416 
	4627.810924537882784 2647.250918743045077 14307.65694301986332 
	4626.902549282962354 2701.355215027369013 14365.06259067004066 
	4625.853005336858587 2763.939172365436207 14413.09114095597943 
	4624.689361504518274 2833.39524269541289 14450.50894229946425 
	4623.441629342642955 2907.939362660642018 14476.3548954155558 
	4622.141989131112496 2985.656779823980287 14489.96513994584348 
	4620.823959910858321 3064.55123572400089 14490.99010603473471 
	4619.521534993717069 3142.596242427831839 14479.40349286689889 
	4618.268305240380869 3217.787135463172945 14455.50294355451661 
	4617.09659271795681 3288.192566072158115 14419.90239905648014 
	4616.036617081032091 3352.004110134573693 14373.51632754939055 
	4615.115716176107526 3407.582719487299983 14317.5362343624638 
	4614.357640970766624 3453.500822477782549 14253.40005587386077 
	4613.781942992154654 3488.578992348800966 14182.7552235515268 
	4613.403470073255448 3511.916241587696277 14107.41634691269974 
	4613.23198341225725 3522.91316410506397 14029.31860239524758 
	4613.271905821448854 3521.287330816765916 13950.46802543180456 
	4613.522207658233128 3507.080543217953618 13872.88998256098603 
	4613.976433381638344 3480.657758568541794 13798.57714715219117 
	4614.622868043959897 3442.69771465043732 13729.43831507727191 
	4615.444839443952333 3394.175493726219884 13667.24937504288937 
	4616.421148072444339 3336.337478129288229 13613.60769309574425 
	4617.526614046523719 3270.669323898436687 13569.89108255380961 
	4618.732725862863845 3198.857838256168179 13537.22241490411761 
	4620.00837820725792 3122.747504578753706 13516.44077455872502 
	4620.883236054707595 3070.444935455548602 13510.86687230774623 
	4621.321133412934614 3044.238715238132954 13510.18583116160335 
	4738.290579143603281 3031.485655577494526 13510.00000000014006 
	4737.853095049646981 3005.242427821934143 13509.99998037455043 
	4736.978134416283865 2952.756428226763546 13514.22205479280638 
	4735.699333047087748 2876.053617340080109 13533.05845469144333 
	4734.486958289835457 2803.351621832758156 13563.91324422677098 
	4733.372084469740003 2736.521492019333436 13605.99228687903815 
	4732.383290491246044 2677.283377289661075 13658.21251821430087 
	4731.545922832964607 2627.161985018346058 13719.2298520905988 
	4730.881446472872994 2587.447375688321699 13787.4737761117085 
	4730.406894483514407 2559.161747573910816 13861.18777505386788 
	4730.134431455792765 2543.033129395945707 13938.47454179809756 
	4730.071041661215531 2539.476641065278272 14017.34481207441422 
	4730.218350021609695 2548.583809400100108 14095.76856605134708 
	4730.572580455274874 2570.120212593494671 14171.72727888407462 
	4731.124652672769116 2603.531514379551481 14243.26587533665042 
	4731.860414939646034 2647.957732486183886 14308.54305121198195 
	4732.761006839898073 2702.255374129214488 14365.87866636194121 
	4733.803342740951848 2765.026868780732457 14413.79698942706273 
	4734.96070356726068 2834.656540626573133 14451.0646812300929 
	4736.203421712966701 2909.352194799731024 14476.7225391724478 
	4737.499641536697709 2987.191246983723431 14490.11018557111856 
	4738.816135944180132 3066.170209038526536 14490.88306449255833 
	4740.11915812636289 3144.256256922041757 14479.02130961441617 
	4741.375306619874209 3219.439553585777958 14454.83025488052226 
	4742.552381514881745 3289.784980093572813 14418.93257482268928 
	4743.620209862529009 3353.481943446965488 14372.25225686902195 
	4744.551419123506093 3408.890979108185547 14315.99081819616185 
	4745.322138831385018 3454.585948716812709 14251.59637930129247 
	4745.912612484296005 3489.390746876105823 14180.72639033075939 
	4746.307703979900907 3512.409572219782149 14105.20496957291107 
	4746.497285611731968 3523.04998362574679 14026.9759521993019 
	4746.476497680999273 3521.038148142654791 13948.05285774959702 
	4746.245873069459776 3506.425888206606487 13870.46706416194138 
	4745.811323578470365 3479.589346695724544 13796.21552230654925 
	4745.183988390016566 3441.219304536812615 13727.20935681135052 
	4744.379948513900672 3392.303398887388539 13665.22467612134278 
	4743.419814616338954 3334.100704166687592 13611.85685797804217 
	4742.32819851433851 3268.109313220400509 13568.47948662529961 
	4741.133082932626166 3196.027816543773497 13536.20899988290876 
	4739.865101763472921 3119.711434224238474 13515.87595139556106 
	4738.992876514892487 3067.320353878648348 13510.6277471126341 
	4738.555623878178267 3041.083349736978107 13510.11419296559143 
	4854.860116789022868 3025.647889514523285 13510.00000000013824 
	4853.546714069200789 2999.421635051808153 13509.99998033429438 
	4850.919931515427379 2946.969583115493151 13514.23071466215333 
	4847.081369247053772 2870.320502599691736 13533.1054177299884 
	4843.443439094703535 2797.677679150975564 13564.021849574312 
	4840.099956983561242 2730.914445517499189 13606.18266845902144 
	4837.137156466735178 2671.75272832001292 13658.50049749380014 
	4834.631451308369833 2621.718370921466885 13719.62599860245973 
	4832.647466667350272 2582.101819759963291 13787.98267353206029 
	4831.236371807121031 2553.924831607806027 13861.80752358891186 
	4830.43456052291549 2537.914124112436639 13939.1965194394561 
	4830.262712464990727 2534.482632135092899 14018.1537082563882 
	4830.725259796458886 2543.718857881419353 14096.64269167942439 
	4831.810272879871263 2565.384588271212579 14172.63914691363607 
	4833.489767957267759 2598.921038747379953 14244.18303638488032 
	4835.72042888386477 2643.463264980084205 14309.42915940409875 
	4838.444724302222312 2697.862470794922046 14366.69474205383995 
	4841.592391443287852 2760.715636971254298 14414.50283789814421 
	4845.082248285501919 2830.401706750939411 14451.62042016071791 
	4848.824287334213295 2905.123394790401562 14477.09018292933797 
	4852.721997020327763 2982.953541254301399 14490.25523119639547 
	4856.674850846743539 3061.884815524440455 14490.77602295037286 
	4860.580900084388304 3139.881487607029158 14478.63912636193163 
	4864.33940314935171 3214.931931993109174 14454.1575662065261 
	4867.853423846285295 3285.100509836095625 14417.96275058889842 
	4871.032331466415599 3348.577491344294231 14370.98818618865516 
	4873.794138259636384 3403.725730831490637 14314.44540202985081 
	4876.0676139946072 3449.122890621286388 14249.79270272872782 
	4877.794123069818852 3483.598124801471386 14178.69755710998834 
	4878.929136794429724 3506.262276710879632 14102.99359223311876 
	4879.443381835373657 3516.530811331983386 14024.63330200335804 
	4879.323595210711574 3514.138891129558488 13945.63769006739494 
	4878.572866358224928 3499.148206535525787 13868.04414576289491 
	4877.21055745241847 3471.945384825752171 13793.85389746091096 
	4875.271804041620271 3433.232018754082219 13724.98039854542549 
	4872.80660882286702 3384.006570891488536 13663.19997719979438 
	4869.878552156249498 3325.538624951517704 13610.10602286033827 
	4866.563151721337817 3259.336131124344774 13567.06789069679508 
	4862.945916811825555 3187.106553892180273 13535.1955848616999 
	4859.12013554630812 3110.712686669491177 13515.31112823239528 
	4856.496376176715785 3058.321002201868396 13510.38862191752196 
	4855.183093625884794 3032.097147294513434 13510.04255476957951 
	0 
	
	0 
	0 
	38 0.02564102564102564014 0.05128205128205128027 0.07692307692307692735 0.1025641025641025605 0.1282051282051281937 0.1538461538461538269 0.1794871794871794601 0.2051282051282050933 0.2307692307692307265 0.2564102564102563875 0.2820512820512820484 0.3076923076923077094 0.3333333333333333703 0.3589743589743590313 0.3846153846153846922 0.4102564102564103532 0.4358974358974360142 0.4615384615384616751 0.4871794871794873361 0.512820512820512997 0.538461538461538658 0.5641025641025643189 0.5897435897435899799 0.6153846153846156408 0.6410256410256413018 0.6666666666666669627 0.6923076923076926237 0.7179487179487182846 0.7435897435897439456 0.7692307692307696065 0.7948717948717952675 0.8205128205128209284 0.8461538461538465894 0.8717948717948722503 0.8974358974358979113 0.9230769230769235723 0.9487179487179492332 0.9743589743589748942 
	0 
	0 
	0 
	F 1 F 0 F 1 F 0 } I I I I #
tcoedge-coedge $-1 -1 $-1 $8 $9 $-1 $10 forward $5 $11 0 6.250766387756696574 #
coedge $-1 -1 $-1 $12 $7 $-1 $13 forward $5 $14 #
coedge $-1 -1 $-1 $7 $12 $-1 $15 forward $5 $16 #
tedge-edge $-1 -1 $-1 $17 0 $18 6.250766387756696574 $7 $19 forward @7 unknown 0.0008503927426512996679 #
pcurve $-1 -1 $-1 0 forward { exppc nubs 1 open 2 
	0 1 6.250766387756696574 1 
	0 0 
	0.9999999999999987788 2.117211981567942727e-16 
	7.114529849557666524e-08 
	spline forward { ref 0 } I I I I 
	} 0 0 #
tcoedge-coedge $-1 -1 $-1 $9 $8 $-1 $20 forward $5 $21 0 6.270005910518955616 #
edge $-1 -1 $-1 $18 -1.597735222483020801 $22 -1.48213359830904956 $8 $23 forward @7 unknown #
pcurve $-1 -1 $-1 0 forward { exppc nubs 3 open 2 
	-1.597735222483020801 3 -1.48213359830904956 3 
	1 1.53918752032900812e-17 
	0.9999999975121021123 0.03330815819592496813 
	1.000000000000000444 0.06667390754958035792 
	1 0.1000417136115215044 
	1.901302802576820237e-06 
	spline forward { ref 0 } I I I I 
	} 0 0 #
edge $-1 -1 $-1 $24 -0.1000208620216155586 $17 -1.530922173892877518e-27 $9 $25 forward @7 unknown #
pcurve $-1 -1 $-1 0 forward { exppc nubs 1 open 2 
	-0.1000208620216154892 1 -1.530922173892877518e-27 1 
	0 0.1000417136115216848 
	8.547231811378328608e-19 5.122982511293241819e-17 
	0.0009308921376297323762 
	spline forward { ref 0 } I I I I 
	} 0 0 #
tvertex-vertex $-1 -1 $-1 $10 $26 1.187497136067470826e-11 #
tvertex-vertex $-1 -1 $-1 $10 $27 1.514487896861499467e-11 #
ellipse-curve $-1 -1 $-1 4504.859681895783979 3025.653463750910305 14000.00000000000364 -0.9987500632136667722 -0.049983109454061668 -2.862183957890542593e-12 1.393649995407031507e-09 2.111590902131865732e-10 -489.9999999999990337 1 F 0 F 6.250766387756696574 #
tedge-edge $-1 -1 $-1 $22 -1.100808740288568538e-15 $24 6.270005910518955616 $12 $28 forward @7 unknown 0.000860963046438788758 #
pcurve $-1 -1 $-1 0 forward { exppc nubs 1 open 2 
	0 1 6.270005910518956505 1 
	0.999999999999999889 0.1000417136115216571 
	1.375103318016095873e-15 0.1000417136115216293 
	6.87829480609964286e-08 
	spline forward { ref 0 } I I I I 
	} 0 0 #
tvertex-vertex $-1 -1 $-1 $13 $29 1.553224029344912157e-11 #
ellipse-curve $-1 -1 $-1 4585.689273683839929 410.7264496285639552 13510.1213025522502 -0.0006112071755870208392 3.279535736854887715e-05 -0.9999998126751089567 3040.448484874664246 -0.3154167207548974061 -1.858354623278234641 0.865574782861311065 F -1.597735222483020801 F -1.48213359830904956 #
tvertex-vertex $-1 -1 $-1 $20 $30 2.049865784863431773e-11 #
ellipse-curve $-1 -1 $-1 4679.800552638783302 -470.7017151047733705 13509.9999999991378 6.183628057126654829e-15 -2.47409387964451163e-13 1 -174.9408707416052664 3496.355178855894792 8.662937034387141466e-10 1 F -0.1000208620216155586 F -1.530922173892877518e-27 #
point $-1 -1 $-1 4504.859681897177325 3025.653463751121762 13510.00000000000364 #
point $-1 -1 $-1 4504.065825754586513 3041.516099774671147 13510.25746910156886 #
ellipse-curve $-1 -1 $-1 4854.859681840956 3025.647544659022969 14000.00000000000182 0.9987483720445058388 -0.05001689053159415893 1.021635962377719005e-12 0.3229949454209816162 6.449634753151456401 -489.9574449743724927 1 F -1.100808740288568538e-15 F 6.270005910518955616 #
point $-1 -1 $-1 4855.18267678637676 3032.097179412173773 13510.04255502562773 #
point $-1 -1 $-1 4854.859681841458951 3025.647544659044343 13510.00000000000182 #
End-of-ACIS-data 