700 0 1 0           
4 LibG 20 ASM 224.0.1.65535 NT 24 Wed Jul 17 15:51:49 2019 
1000 9.999999999999999547e-07 1.000000000000000036e-10 
body $-1 -1 $-1 $1 $-1 $2 #
lump $-1 -1 $-1 $-1 $3 $0 #
transform $-1 -1 1 0 0 0 1 0 0 0 1 0 0 0 1 no_rotate no_reflect no_shear #
shell $-1 -1 $-1 $-1 $-1 $4 $-1 $1 #
face $-1 -1 $-1 $-1 $5 $3 $-1 $6 forward double out #
loop $-1 -1 $-1 $-1 $7 $4 #
spline-surface $-1 -1 $-1 forward { exactsur full nubs 3 3 open open none none 40 2 
	-1.191870088169232517e-07 3 0.02564102564102564014 1 0.05128205128205128027 1 0.07692307692307692735 1 0.1025641025641025605 1 
	0.1282051282051281937 1 0.1538461538461538269 1 0.1794871794871794601 1 0.2051282051282050933 1 0.2307692307692307265 1 
	0.2564102564102563875 1 0.2820512820512820484 1 0.3076923076923077094 1 0.3333333333333333703 1 0.3589743589743590313 1 
	0.3846153846153846922 1 0.4102564102564103532 1 0.4358974358974360142 1 0.4615384615384616751 1 0.4871794871794873361 1 
	0.512820512820512997 1 0.538461538461538658 1 0.5641025641025643189 1 0.5897435897435899799 1 0.6153846153846156408 1 
	0.6410256410256413018 1 0.6666666666666669627 1 0.6923076923076926237 1 0.7179487179487182846 1 0.7435897435897439456 1 
	0.7692307692307696065 1 0.7948717948717952675 1 0.8205128205128209284 1 0.8461538461538465894 1 0.8717948717948722503 1 
	0.8974358974358979113 1 0.9230769230769235723 1 0.9487179487179492332 1 0.9743589743589748942 1 1.000000000000000444 3 
	-1.191870086200016308e-07 3 0.1000418327985305028 3 
	8868.78726405539237 1222.107556543753844 13510.00000000013461 
	8847.486941439012298 1206.888736919040184 13509.99998045506618 
	8804.886664015952192 1176.451360465138805 13514.20473505411064 
	8742.62407561620239 1131.965503640843281 13532.96452861435864 
	8683.595634756547952 1089.790405622356957 13563.69603353169441 
	8629.314275033351805 1051.007038933996 13605.61152371907156 
	8581.17143590246269 1016.609570024713207 13657.63655965531143 
	8540.40118015887856 987.4797216468359693 13718.43755906687511 
	8508.04859240888436 964.3641939514361638 13786.45598127099402 
	8484.9429814067189 947.8555178861123522 13859.94827798378537 
	8471.676624274386995 938.3768682003676531 13937.03058651538959 
	8468.589583771477919 936.1712155708715954 14015.72701971046445 
	8475.760991469975124 941.295098536606929 14094.02031479518882 
	8493.007019293458143 953.6171741884825224 14169.90354282494809 
	8519.885591680611469 972.8215849524439136 14241.43155324019426 
	8555.707717513345415 998.4160551133317085 14306.77083482774287 
	8599.555151351818495 1029.744509550970861 14364.24651497814193 
	8650.303931252447001 1066.003891222874699 14412.38529248489067 
	8706.653189814389407 1106.264746304058463 14449.95320336884106 
	8767.158499926887089 1149.495049315119559 14475.98725165866745 
	8830.268900450391811 1194.58665751790204 14489.82009432056839 
	8894.366652734657691 1240.383716460738015 14491.09714757691836 
	8957.808708876236778 1285.712288540544705 14479.78567611938524 
	9018.968828740029494 1329.410445098845685 14456.17563222851095 
	9076.279266139346873 1370.358050686891374 14420.87222329027281 
	9128.270955613037586 1407.505476025683947 14374.78039822975916 
	9173.611169673045879 1439.900503648155109 14319.08165052877848 
	9211.137681236439676 1466.712736538414219 14255.20373244642724 
	9239.888555540206653 1487.254884089989218 14184.78405677229421 
	9259.126807868320611 1501.000379749812282 14109.62772425248659 
	9268.359295029271379 1507.596878747526944 14031.66125259119144 
	9267.34935632484121 1506.87528991286149 13952.88319311400483 
	9256.122879997119526 1498.854110077711539 13875.31290096002886 
	9234.967639579110255 1483.73894990677627 13800.93877199782582 
	9204.425917423852297 1461.91726349947362 13731.66727334319148 
	9165.280603514047471 1433.948416159672206 13669.27407396443414 
	9118.535129554948071 1400.549347550810353 13615.35852821345179 
	9065.387739023934046 1362.576187961495634 13571.30267848231961 
	9007.200803799412824 1321.002335412618322 13538.23582992532283 
	8945.46578327719908 1276.893419375213398 13517.00559772189081 
	8902.998884806862407 1246.551340549416182 13511.10599750286019 
	8881.709853354292136 1231.340588322952271 13510.25746935760799 
	8936.639546315685948 1127.141223547288519 13510.00000000013642 
	8914.809863090549698 1112.617098266639459 13509.99998041481558 
	8871.150874709519485 1083.569099304292422 13514.21339492346124 
	8807.344291998642802 1041.116298885535571 13533.01149165290553 
	8746.858798264685902 1000.873469003519972 13563.80463887923361 
	8691.247782799933702 963.8742794836812209 13605.80190529905849 
	8641.939628438081854 931.0692043347355593 13657.92453893481252 
	8600.200802475270393 903.3009580980145756 13718.83370557873968 
	8567.103360079965569 881.2828692286154819 13786.96487869135126 
	8543.497399770711127 865.5805496935405472 13860.56802651882754 
	8529.989231031877353 856.5973666729120168 13937.75256415674448 
	8526.925800746161258 854.5640802042524911 14016.53591589244024 
	8534.385782226385345 859.5329154789884569 14094.89444042327159 
	8552.177554710111508 871.3762213914766335 14170.81541085450954 
	8579.844125478501155 889.7897499767948375 14242.3487142884278 
	8616.674868092610268 914.300472437626695 14307.65694301986696 
	8661.723775257756643 944.2787309803054541 14365.06259067004248 
	8713.833757471051285 978.9544142802494662 14413.09114095598125 
	8771.666363326019564 1017.436741037800402 14450.50894229946789 
	8833.736158089686796 1058.737143395821704 14476.35489541555762 
	8898.448877519525922 1101.79466235842483 14489.96513994584529 
	8964.14237692036113 1145.503202819735861 14490.99010603473653 
	9029.129323646187913 1188.73994804090421 14479.40349286690071 
	9091.740536472829262 1230.394203629545245 14455.50294355452024 
	9150.367858654344673 1269.395930043855287 14419.90239905648195 
	9203.505463456142024 1304.743230646712846 14373.51632754939419 
	9249.788531222635356 1335.52808916809704 14317.53623436246744 
	9288.028304553115959 1360.959695407084837 14253.40005587386258 
	9317.242621191828221 1380.38475996284842 14182.7552235515268 
	9336.681140396951378 1393.304296134893093 14107.41634691270156 
	9345.844614857280249 1399.386437891115975 14029.3186023952494 
	9344.497713163198569 1398.474964629537226 13950.46802543180638 
	9332.675063521332049 1390.59331376611226 13872.88998256098603 
	9310.680363426376061 1375.94397803475681 13798.57714715219299 
	9279.078578451388239 1354.903303177909038 13729.43831507727555 
	9238.68142954447103 1328.011819012961269 13667.24937504289301 
	9190.526545391576292 1295.960354788220911 13613.60769309574789 
	9135.850801261260131 1259.572286154349968 13569.89108255381143 
	9076.058581714791217 1219.782404807830062 13537.22241490411761 
	9012.68558621583179 1177.612823082613204 13516.44077455872502 
	8969.135088353858009 1148.635620851976 13510.86687230775169 
	8947.313853216912321 1134.116962881000063 13510.18583116160517 
	8999.73744874240947 1028.77818370909813 13510.00000000014006 
	8977.412401187715659 1014.976348793290981 13509.99998037456498 
	8932.762693900171143 987.3729187754291843 13514.22205479281001 
	8867.511732053446394 947.0335024566771835 13533.05845469144515 
	8805.664108805509386 908.7984203738598126 13563.91324422677826 
	8748.811458887523258 873.6517933405760914 13605.9922868790436 
	8698.417056876431161 842.4983634138070556 13658.21251821430997 
	8655.777929177438637 816.1400642107206522 13719.22985209060607 
	8621.99150495615504 795.2553985105181482 13787.47377611171032 
	8597.927361737785759 780.3819668761262847 13861.18777505387152 
	8584.204846882601487 771.9026304350264809 13938.4745417981012 
	8581.177136446116492 770.0356550669467879 14017.34481207441968 
	8588.922145590307991 774.8290931011905514 14095.76856605135072 
	8607.24052344969823 786.1595465038273005 14171.72727888407826 
	8635.660784331537798 803.735343560588376 14243.26587533665588 
	8673.451443100206234 827.104047230274432 14308.54305121198922 
	8719.639842415026578 855.664101895843487 14365.87866636194485 
	8773.037187229789197 888.6803186937979717 14413.79698942706818 
	8832.269142205666867 925.3028007939676627 14451.06468123009654 
	8895.811204509103845 964.5888214498185107 14476.72253917245143 
	8962.02794155799711 1005.527091629830693 14490.11018557112402 
	9029.215083804303504 1047.063792528593694 14490.88306449256197 
	9095.643389159380604 1088.129702825659706 14479.02130961441981 
	9159.603150071663549 1127.667722380369469 14454.83025488052772 
	9219.448197727972001 1164.660083847111764 14418.93257482269655 
	9273.638270795148856 1198.154551730593766 14372.25225686902559 
	9320.778658215363976 1227.288934467595254 14315.99081819616549 
	9359.656095731706955 1251.313278549468578 14251.59637930129611 
	9389.26999224579049 1269.60917337036085 14180.72639033076302 
	9408.858182312565987 1281.705669863163848 14105.20496957291471 
	9417.916541969043465 1287.291403155873923 14026.97595219930554 
	9416.211963035222652 1286.222607194301418 13948.05285774960248 
	9403.788351993540346 1278.526815043059059 13870.46706416194684 
	9380.965498994015434 1264.402149578437729 13796.21552230655288 
	9348.33084639601293 1244.212223017821088 13727.20935681135597 
	9306.724367693424938 1218.476775953569813 13665.22467612134642 
	9257.21694991026925 1187.858299272059185 13611.85685797804763 
	9201.082821420013715 1153.144974404231789 13568.47948662530325 
	9139.766788849987279 1115.230404457207896 13536.20899988291421 
	9074.846924875591867 1075.090533404438702 13515.8759513955647 
	9030.278587742821401 1047.536052790899021 13510.62774711264137 
	9007.958903556480436 1033.737383506494098 13510.11419296559689 
	9057.765690370712036 927.5099271180024516 13510.00000000014188 
	9034.981975815902842 914.4545144116823394 13509.99998033430893 
	8989.414943709576619 888.343916487932006 13514.23071466215879 
	8922.827060417144821 850.1880532053399975 13533.10541772999386 
	8859.719560401690615 814.0265021297356043 13564.02184957431746 
	8801.719876915669374 780.791807105603425 13606.1826684590269 
	8750.323911124351071 751.3411421040200366 13658.50049749380378 
	8706.857219434821673 726.4340709756469323 13719.62599860246701 
	8672.440860263404829 706.7129771324625835 13787.98267353206757 
	8647.962471403658128 692.6864904425503937 13861.80752358891732 
	8634.05337927943765 684.7163704862491613 13939.19651943946155 
	8631.072315634988627 683.0081759735186324 14018.15370825639548 
	8639.096165600572931 687.6059632457528323 14096.64269167942984 
	8657.917984687413991 698.3911499839005046 14172.63914691364334 
	8687.052336141101478 715.08557359264978 14244.1830363848876 
	8725.747810920565826 737.2586653375253718 14309.42915940410603 
	8773.006407418048184 764.3385552172768485 14366.6947420538454 
	8827.609271089018876 795.6268211607623471 14414.50283789814966 
	8888.148130138230044 830.3165021500401508 14451.62042016072519 
	8953.061616498443982 867.5129106899985345 14477.09018292934525 
	9020.675535341246359 906.2567078465502846 14490.25523119640093 
	9089.246044522233205 945.5486457211502511 14490.77602295038014 
	9157.004630311957953 984.3753392242334712 14478.63912636193709 
	9222.203719435994572 1021.735402463381433 14454.15756620653519 
	9283.161751036144778 1056.665275658124983 14417.96275058890751 
	9338.306546094087025 1088.264076475038337 14370.98818618866062 
	9386.215855769358313 1115.7168348380726 14314.44540202985627 
	9425.654042862386632 1138.315511961150605 14249.79270272873327 
	9455.603950344919213 1155.477261497640256 14178.69755710999561 
	9475.293135030628036 1166.759461830010196 14102.99359223312604 
	9484.213789790388546 1171.871131800203329 14024.6333020033635 
	9482.13584048933626 1170.680435452480424 13945.6376900674004 
	9469.112879881016852 1163.218082244415882 13868.04414576290219 
	9445.480785339950671 1149.676534986786692 13793.85389746092005 
	9411.849056368248057 1130.405046103955556 13724.98039854543458 
	9369.085094227617446 1105.900649625487404 13663.19997719980165 
	9318.291833116069029 1076.795343512397949 13610.10602286034555 
	9260.779284981550518 1043.839784405394312 13567.06789069679871 
	9198.030787196175879 1007.883947032216611 13535.19558486170536 
	9131.664617104501303 969.8551287637940277 13515.31112823240255 
	9086.150028444764757 943.7745817273676039 13510.38862191752742 
	9063.368398472193803 930.7203635181715526 13510.04255476958679 
	0 
	
	0 
	0 
	38 0.02564102564102564014 0.05128205128205128027 0.07692307692307692735 0.1025641025641025605 0.1282051282051281937 0.1538461538461538269 0.1794871794871794601 0.2051282051282050933 0.2307692307692307265 0.2564102564102563875 0.2820512820512820484 0.3076923076923077094 0.3333333333333333703 0.3589743589743590313 0.3846153846153846922 0.4102564102564103532 0.4358974358974360142 0.4615384615384616751 0.4871794871794873361 0.512820512820512997 0.538461538461538658 0.5641025641025643189 0.5897435897435899799 0.6153846153846156408 0.6410256410256413018 0.6666666666666669627 0.6923076923076926237 0.7179487179487182846 0.7435897435897439456 0.7692307692307696065 0.7948717948717952675 0.8205128205128209284 0.8461538461538465894 0.8717948717948722503 0.8974358974358979113 0.9230769230769235723 0.9487179487179492332 0.9743589743589748942 
	0 
	0 
	0 
	F 1 F 0 F 1 F 0 } I I I I #
tcoedge-coedge $-1 -1 $-1 $8 $9 $-1 $10 forward $5 $11 0 6.250766387756699238 #
coedge $-1 -1 $-1 $12 $7 $-1 $13 forward $5 $14 #
coedge $-1 -1 $-1 $7 $12 $-1 $15 forward $5 $16 #
tedge-edge $-1 -1 $-1 $17 -3.907042797884036887e-29 $18 6.250766387756699238 $7 $19 forward @7 unknown 0.0008503927471855456935 #
pcurve $-1 -1 $-1 0 forward { exppc nubs 1 open 2 
	0 1 6.250766387756699238 1 
	0 0 
	0.9999999999999988898 0 
	6.842378647428821982e-08 
	spline forward { ref 0 } I I I I 
	} 0 0 #
tcoedge-coedge $-1 -1 $-1 $9 $8 $-1 $20 forward $5 $21 0 6.270005910518961834 #
edge $-1 -1 $-1 $18 1.543857431215756471 $22 1.659459055359588708 $8 $23 forward @7 unknown #
pcurve $-1 -1 $-1 0 forward { exppc nubs 3 open 2 
	1.543857431215756471 3 1.659459055359588708 3 
	1 5.374779745447802995e-17 
	0.9999999975121028895 0.03330815819596234795 
	1.000000000000000444 0.06667390754957919219 
	1.000000000000000222 0.100041713611521435 
	2.062441057086784991e-06 
	spline forward { ref 0 } I I I I 
	} 0 0 #
edge $-1 -1 $-1 $24 -0.1000208620216222893 $17 3.231873725598663696e-16 $9 $25 forward @7 unknown #
pcurve $-1 -1 $-1 0 forward { exppc nubs 1 open 2 
	-0.1000208620216223449 1 -1.530922173891260531e-27 1 
	8.306694603100519625e-16 0.1000417136115216848 
	0 1.969216271640029949e-16 
	0.0009308921393231384253 
	spline forward { ref 0 } I I I I 
	} 0 0 #
tvertex-vertex $-1 -1 $-1 $10 $26 1.546170310802349848e-11 #
tvertex-vertex $-1 -1 $-1 $10 $27 1.45531543024710075e-11 #
ellipse-curve $-1 -1 $-1 8868.787209537795206 1222.107004899792173 14000.00000000000364 -0.5813469438521562394 0.8136557815647584846 1.778704796479724925e-13 6.4972027757903561e-11 1.53496415578047168e-10 -489.9999999999990337 1 F -3.907042797884036887e-29 F 6.250766387756699238 #
tedge-edge $-1 -1 $-1 $22 -2.765446347554208814e-16 $24 6.270005910518961834 $12 $28 forward @7 unknown 0.0008609630531470309012 #
pcurve $-1 -1 $-1 0 forward { exppc nubs 1 open 2 
	0 1 6.270005910518961834 1 
	1 0.100041713611521671 
	9.287501327152205135e-16 0.1000417136115216848 
	6.418785525154096118e-08 
	spline forward { ref 0 } I I I I 
	} 0 0 #
tvertex-vertex $-1 -1 $-1 $13 $29 1.2574950406803082e-11 #
ellipse-curve $-1 -1 $-1 6711.456878000117285 -257.8600757764406239 13510.12130255225202 -0.0003024183483721803773 0.0005321587070807307952 -0.9999998126751089567 -1641.4284783771609 2559.304523471486846 1.858354623754411961 0.8655747830866458159 F 1.543857431215756471 F 1.659459055359588708 #
tvertex-vertex $-1 -1 $-1 $20 $30 1.407373428678713722e-11 #
ellipse-curve $-1 -1 $-1 6020.377564782763329 -813.0014297129729357 13509.9999999991378 -2.04904706552312356e-13 -1.387937453259165661e-13 1 2848.409644755097361 2035.1084346129187 8.662937034387141466e-10 1 F -0.1000208620216222893 F 3.231873725598663696e-16 #
point $-1 -1 $-1 8868.78720953786069 1222.107004899945878 13510.00000000000364 #
point $-1 -1 $-1 8881.710087830240809 1231.340240834926817 13510.25746910156886 #
ellipse-curve $-1 -1 $-1 9057.765165255117608 927.5101070091945985 14000.00000000000182 0.49717640159549914 -0.8676494831996104384 6.140762062777801175e-12 5.603035177376935572 3.210624703215520626 -489.9574449743724927 1 F -2.765446347554208814e-16 F 6.270005910518961834 #
point $-1 -1 $-1 9063.368200432494632 930.7207317124101564 13510.04255502562773 #
point $-1 -1 $-1 9057.765165256656474 927.510107006608564 13510.00000000000182 #
End-of-ACIS-data 