700 0 1 0           
4 LibG 20 ASM 224.0.1.65535 NT 24 Wed Jul 17 15:51:49 2019 
1000 9.999999999999999547e-07 1.000000000000000036e-10 
body $-1 -1 $-1 $1 $-1 $2 #
lump $-1 -1 $-1 $-1 $3 $0 #
transform $-1 -1 1 0 0 0 1 0 0 0 1 0 0 0 1 no_rotate no_reflect no_shear #
shell $-1 -1 $-1 $-1 $-1 $4 $-1 $1 #
face $-1 -1 $-1 $-1 $5 $3 $-1 $6 forward double out #
loop $-1 -1 $-1 $-1 $7 $4 #
spline-surface $-1 -1 $-1 forward { exactsur full nubs 3 3 open open none none 40 2 
	-1.191870087081793223e-07 3 0.02564102564102564014 1 0.05128205128205128027 1 0.07692307692307692735 1 0.1025641025641025605 1 
	0.1282051282051281937 1 0.1538461538461538269 1 0.1794871794871794601 1 0.2051282051282050933 1 0.2307692307692307265 1 
	0.2564102564102563875 1 0.2820512820512820484 1 0.3076923076923077094 1 0.3333333333333333703 1 0.3589743589743590313 1 
	0.3846153846153846922 1 0.4102564102564103532 1 0.4358974358974360142 1 0.4615384615384616751 1 0.4871794871794873361 1 
	0.512820512820512997 1 0.538461538461538658 1 0.5641025641025643189 1 0.5897435897435899799 1 0.6153846153846156408 1 
	0.6410256410256413018 1 0.6666666666666669627 1 0.6923076923076926237 1 0.7179487179487182846 1 0.7435897435897439456 1 
	0.7692307692307696065 1 0.7948717948717952675 1 0.8205128205128209284 1 0.8461538461538465894 1 0.8717948717948722503 1 
	0.8974358974358979113 1 0.9230769230769235723 1 0.9487179487179492332 1 0.9743589743589748942 1 1.000000000000000444 3 
	-1.19187009017113639e-07 3 0.1000418327985306832 3 
	6576.977040107964058 2747.713441241789496 13510.00000000014006 
	6567.996471330828172 2723.123492100513431 13509.99998045506254 
	6550.03548885121927 2673.94401843227115 13514.20473505411428 
	6523.784550429447336 2602.06558214151255 13532.96452861435864 
	6498.897182172427165 2533.920775850567225 13563.69603353169441 
	6476.011261940600889 2471.256190954268732 13605.61152371907156 
	6455.71344365267305 2415.678161125046245 13657.63655965531507 
	6438.524028620758145 2368.611338088262073 13718.43755906687693 
	6424.883641822874779 2331.262209547400744 13786.45598127099402 
	6415.141933564280407 2304.588162883690529 13859.94827798378719 
	6409.548617688522427 2289.272946628552745 13937.03058651538959 
	6408.247070286942289 2285.709142909204729 14015.72701971046808 
	6411.270654540810938 2293.988104395067239 14094.02031479518882 
	6418.541865488669828 2313.89761256103111 14169.90354282494991 
	6429.874316752504456 2344.927317598547234 14241.43155324019608 
	6444.977518266301558 2386.281820449221868 14306.77083482774287 
	6463.464322545240975 2436.901061644864058 14364.24651497814193 
	6484.860848619582612 2495.487494311320006 14412.38529248489431 
	6508.61862924901834 2560.539344799315131 14449.95320336884106 
	6534.128670041982332 2630.389108356385805 14475.98725165866745 
	6560.737060096042114 2703.246293062371024 14489.82009432057203 
	6587.761734004310711 2777.243316352905367 14491.097147576922 
	6614.509955559616174 2850.483377643802214 14479.78567611938161 
	6640.296074988259534 2921.089079914646391 14456.17563222851459 
	6664.459104533946629 2987.250553911748739 14420.87222329027463 
	6686.379661868551011 3047.271851379977761 14374.78039822976098 
	6705.495847011346996 3099.614418103963999 14319.08165052877121 
	6721.317645776115569 3142.936532393620837 14255.20373244642724 
	6733.439490535837649 3176.12769806888582 14184.78405677229421 
	6741.550656328774494 3198.337110331570784 14109.62772425248659 
	6745.443225818273277 3208.995464846849245 14031.66125259119144 
	6745.017418934538 3207.829550986060895 13952.88319311400664 
	6740.2841505891829 3194.86925517710506 13875.31290096002704 
	6731.364750869638556 3170.446794760929151 13800.93877199782764 
	6718.487854996870738 3135.188202296828422 13731.6672733431933 
	6701.983542353304983 3089.997277469185065 13669.27407396443778 
	6682.274876364057491 3036.032422197217329 13615.35852821345179 
	6659.867056323713769 2974.676936945354555 13571.30267848231961 
	6635.334480778934449 2907.503598605517254 13538.23582992532283 
	6609.305973711568186 2836.234207891712686 13517.00559772189081 
	6591.401226007362311 2787.208712251082488 13511.10599750286201 
	6582.425417771886714 2762.631798083446938 13510.25746935760799 
	6686.609994918801931 2707.674062747981679 13510.00000000014006 
	6676.800203379978484 2683.358362576223499 13509.99998041481012 
	6657.180790167496525 2634.727383402770101 13514.21339492346306 
	6628.507386565688648 2563.654489930485852 13533.01149165290371 
	6601.326226859290728 2496.281165341528776 13563.80463887923361 
	6576.335291600395067 2434.337818474965388 13605.80190529905667 
	6554.176399803532149 2379.415595682773983 13657.92453893481252 
	6535.418626539300021 2332.925262988925169 13718.8337055787415 
	6520.543702708906494 2296.061004260298887 13786.96487869134762 
	6509.933639371843128 2269.769736567635846 13860.56802651882754 
	6503.860918082860735 2254.726789515769269 13937.75256415674448 
	6502.481492839817292 2251.318557572674763 14016.53591589244024 
	6505.830785061302777 2259.632575210847335 14094.89444042327159 
	6513.822773994448653 2279.455268669153156 14170.81541085450954 
	6526.252206031966125 2310.277442380127013 14242.34871428842598 
	6542.799866162334183 2351.307359041854852 14307.65694301986696 
	6563.040776176174404 2401.491077356039114 14365.06259067004248 
	6586.455109075098335 2459.539524996662294 14413.09114095598125 
	6612.441539374620334 2523.961611371903928 14450.50894229946789 
	6640.332686432883747 2593.102529594852513 14476.35489541555762 
	6669.412254184346239 2665.186263783700269 14489.96513994584348 
	6698.93342709051376 2738.361209790030898 14490.99010603473653 
	6728.138049858260274 2810.747737480338856 14479.40349286690071 
	6756.276098348160303 2880.486472824812608 14455.50294355451842 
	6782.62494161795712 2945.786059560225567 14419.90239905648195 
	6806.507900411256742 3004.969173564627454 14373.51632754939419 
	6827.311625471660591 3056.515607967704909 14317.53623436246744 
	6844.501849373045843 3099.101322268179956 14253.40005587386077 
	6857.637107329534956 3131.632452406542598 14182.75522355152862 
	6866.380074610682641 3153.273408182790263 14107.41634691270156 
	6870.506229399969016 3163.468336293507491 14029.31860239524758 
	6869.909618621023583 3161.95539767659875 13950.46802543180638 
	6864.605578670035356 3148.77349246203903 13872.88998256098603 
	6854.730341156521717 3124.261259726348726 13798.57714715219299 
	6840.537533909197009 3089.04837807094691 13729.43831507727191 
	6822.391666664037075 3044.039389387326537 13667.24937504289119 
	6800.758770441106208 2990.390465560876237 13613.60769309574789 
	6776.194424692908797 2929.479699245961456 13569.89108255381143 
	6749.329503335819936 2862.871740439667519 13537.22241490411943 
	6720.853917614492275 2792.277468722920275 13516.44077455872866 
	6701.284040691942209 2743.766191370359138 13510.86687230774987 
	6691.478132262562212 2719.459774685567936 13510.18583116160335 
	6794.238289274278031 2662.146234433941572 13510.00000000014006 
	6783.61174092319925 2638.146758074968147 13509.99998037455771 
	6762.358828790849657 2590.148222310753681 13514.22205479281183 
	6731.299788861122579 2520.003425144435823 13533.05845469144697 
	6701.860533304643468 2453.517485009856046 13563.91324422677644 
	6674.798590301364129 2392.401526084209308 13605.99228687903997 
	6650.810402980629078 2338.228665542025283 13658.21251821430633 
	6630.51329867982713 2292.393278505232047 13719.22985209060425 
	6614.429618026190838 2256.075143369993384 13787.47377611171214 
	6602.973268258069766 2230.209065054800249 13861.18777505387152 
	6596.439072534478328 2215.460816118810271 13938.4745417981012 
	6594.995182443797603 2212.209999464756947 14017.34481207441786 
	6598.678750819985908 2220.540277902468915 14095.7685660513489 
	6607.394975730024271 2240.237220940061889 14171.72727888407826 
	6620.919540364738168 2270.793824517910707 14243.26587533665588 
	6638.904386002332103 2311.423561518823135 14308.5430512119874 
	6660.886669481207718 2361.08062714719108 14365.87866636194485 
	6686.300674652334237 2418.486858046615453 14413.79698942706636 
	6714.492371263270797 2482.16463225111147 14451.06468123009654 
	6744.736246592951829 2550.47490311712545 14476.72253917245143 
	6776.253976667129791 2621.659388236463656 14490.11018557112402 
	6808.234456542943917 2693.885827382329808 14490.88306449256197 
	6839.854674175672699 2765.295144545657422 14479.02130961441799 
	6870.300890672127935 2834.049300109640626 14454.8302548805259 
	6898.789581851066032 2898.378601448787322 14418.93257482269291 
	6924.587602175305619 2956.627254181480566 14372.25225686902559 
	6947.031052133787853 3007.29598159351599 14315.99081819616549 
	6965.542363520410618 3049.080615218195362 14251.59637930129611 
	6979.645162920725852 3080.905663264010855 14180.72639033076302 
	6988.976530897165503 3101.951992853298179 14105.20496957291471 
	6993.296341387849679 3111.677913550481207 14026.97595219930554 
	6992.493440973622455 3109.833119504000024 13948.05285774960248 
	6986.588509007553512 3096.465131374661269 13870.46706416194684 
	6975.733524975922592 3071.918072178120838 13796.21552230655288 
	6960.207856941875434 3036.823808874669794 13727.20935681135597 
	6940.411071253684895 2992.085686629301108 13665.22467612134642 
	6916.852650417446057 2938.855278613251357 13611.85685797804581 
	6890.138876874347261 2878.50273427726006 13568.47948662530325 
	6860.957245932478145 2812.581547394976496 13536.20899988291239 
	6830.058713121259643 2742.788434148034412 13515.8759513955647 
	6808.845298151159113 2694.876253004103546 13510.62774711263773 
	6798.221387517110998 2670.882418399395192 13510.11419296559689 
	6899.32413743291545 2611.357444959756322 13510.00000000013824 
	6887.897483846688374 2587.714834324128788 13509.99998033430165 
	6865.044375782206771 2540.430025022329573 13514.23071466216061 
	6831.648738139700981 2471.331924537172654 13533.10541772999386 
	6799.998607532828828 2405.845410147090661 13564.02184957431382 
	6770.910186076737773 2345.659265769678768 13606.18266845902508 
	6745.133708961292541 2292.32578476407798 13658.5004974938056 
	6723.333978839117663 2247.220494107366449 13719.62599860246519 
	6706.073237048969531 2211.506713660013702 13787.98267353206393 
	6693.796658127816045 2186.105543214068348 13861.8075235889155 
	6686.820869477549422 2171.672108815263073 13939.19651943946155 
	6685.32578484147507 2168.578665607999483 14018.15370825639548 
	6689.349964207138328 2176.904997123375779 14096.64269167942803 
	6698.78961927526143 2196.436357519140074 14172.63914691363971 
	6713.401290287897609 2226.669010139675265 14244.18303638488396 
	6732.808125138982177 2266.82321947067112 14309.42915940410603 
	6756.509598831912626 2315.863361432077909 14366.6947420538454 
	6783.894422605190812 2372.524633335619455 14414.50283789814966 
	6814.256309785468147 2435.345674627295921 14451.62042016072519 
	6846.812191747912038 2502.70625708733769 14477.09018292934343 
	6880.722414173026664 2572.869072413326649 14490.25523119640093 
	6915.112392714823727 2644.024539435725274 14490.77602295037832 
	6949.095169555233952 2714.33747533532005 14478.63912636193527 
	6981.79428908491991 2781.994427157147129 14454.15756620653337 
	7012.366402719745565 2845.250442885807843 14417.96275058890569 
	7040.023019848384138 2902.474075801324034 14370.98818618866062 
	7064.050843928501308 2952.189461400504115 14314.44540202985627 
	7083.830169239866336 2993.114381670736748 14249.79270272873146 
	7098.850863820595805 3024.193334994131874 14178.6975571099938 
	7108.725526367726161 3044.624758769976324 14102.99359223312604 
	7113.199477770899648 3053.881702653838147 14024.63330200336168 
	7112.157329583180399 3051.725419220462754 13945.6376900674004 
	7105.625960030579336 3038.211521552687373 13868.04414576290219 
	7093.773820767331927 3013.688548865571192 13793.85389746091823 
	7076.906592399410329 2978.788977456003067 13724.98039854543276 
	7055.459300291705404 2934.412907711307525 13663.19997719980165 
	7029.985095993714822 2881.704852030350594 13610.10602286034373 
	7001.14098618828848 2822.024206939057876 13567.06789069680053 
	6969.67090498073776 2756.910228375940278 13535.19558486170536 
	6936.386462548933196 2688.042199193064789 13515.31112823240073 
	6913.559656301721589 2640.811810340793272 13510.38862191752742 
	6902.134048190284375 2617.171362871589736 13510.04255476958679 
	0 
	
	0 
	0 
	38 0.02564102564102564014 0.05128205128205128027 0.07692307692307692735 0.1025641025641025605 0.1282051282051281937 0.1538461538461538269 0.1794871794871794601 0.2051282051282050933 0.2307692307692307265 0.2564102564102563875 0.2820512820512820484 0.3076923076923077094 0.3333333333333333703 0.3589743589743590313 0.3846153846153846922 0.4102564102564103532 0.4358974358974360142 0.4615384615384616751 0.4871794871794873361 0.512820512820512997 0.538461538461538658 0.5641025641025643189 0.5897435897435899799 0.6153846153846156408 0.6410256410256413018 0.6666666666666669627 0.6923076923076926237 0.7179487179487182846 0.7435897435897439456 0.7692307692307696065 0.7948717948717952675 0.8205128205128209284 0.8461538461538465894 0.8717948717948722503 0.8974358974358979113 0.9230769230769235723 0.9487179487179492332 0.9743589743589748942 
	0 
	0 
	0 
	F 1 F 0 F 1 F 0 } I I I I #
tcoedge-coedge $-1 -1 $-1 $8 $9 $-1 $10 forward $5 $11 3.907042797884036887e-29 6.250766387756696574 #
coedge $-1 -1 $-1 $12 $7 $-1 $13 forward $5 $14 #
coedge $-1 -1 $-1 $7 $12 $-1 $15 forward $5 $16 #
tedge-edge $-1 -1 $-1 $17 3.907042797884036887e-29 $18 6.250766387756696574 $7 $19 forward @7 unknown 0.0008503927514458080837 #
pcurve $-1 -1 $-1 0 forward { exppc nubs 1 open 2 
	0 1 6.250766387756697462 1 
	0 0 
	0.9999999999999987788 1.594210099044259028e-16 
	6.968928293572063212e-08 
	spline forward { ref 0 } I I I I 
	} 0 0 #
tcoedge-coedge $-1 -1 $-1 $9 $8 $-1 $20 forward $5 $21 0 6.270005910518960057 #
edge $-1 -1 $-1 $18 -1.597735222548702927 $22 -1.482133598353605475 $8 $23 forward @7 unknown #
pcurve $-1 -1 $-1 0 forward { exppc nubs 3 open 2 
	-1.597735222548702927 3 -1.482133598353605475 3 
	1 0 
	0.999999997512100558 0.03330815819590367266 
	1.000000000000000444 0.06667390754958620047 
	1 0.1000417136115215738 
	1.901304518458351117e-06 
	spline forward { ref 0 } I I I I 
	} 0 0 #
edge $-1 -1 $-1 $24 -0.1000208620216175431 $17 -3.231873725628940178e-16 $9 $25 forward @7 unknown #
pcurve $-1 -1 $-1 0 forward { exppc nubs 1 open 2 
	-0.100020862021617557 1 -1.5309221738910261e-27 1 
	1.576111346935148022e-15 0.100041713611521671 
	3.08934320191848294e-16 0 
	0.0009308921334933296758 
	spline forward { ref 0 } I I I I 
	} 0 0 #
tvertex-vertex $-1 -1 $-1 $10 $26 1.276612014672455967e-11 #
tvertex-vertex $-1 -1 $-1 $10 $27 1.532268127732078064e-11 #
ellipse-curve $-1 -1 $-1 6576.977306715263694 2747.712955234378114 14000.00000000000364 -0.9393168391296490283 0.3430508354857705333 -1.220120724237212116e-12 6.107370609242935147e-10 -7.201066409834311602e-11 -489.9999999999990337 1 F 3.907042797884036887e-29 F 6.250766387756696574 #
tedge-edge $-1 -1 $-1 $22 0 $24 6.270005910518960057 $12 $28 forward @7 unknown 0.0008609630510591520947 #
pcurve $-1 -1 $-1 0 forward { exppc nubs 1 open 2 
	0 1 6.270005910518960057 1 
	1 0.1000417136115216848 
	1.051784756005381565e-15 0.1000417136115216848 
	6.561691217428156477e-08 
	spline forward { ref 0 } I I I I 
	} 0 0 #
tvertex-vertex $-1 -1 $-1 $13 $29 1.208391415751786445e-11 #
ellipse-curve $-1 -1 $-1 5632.718639185743996 307.8866753784351431 13510.12130255225566 -0.0005501432133260459635 0.0002683136071564076199 -0.9999998126751089567 2800.118029874542572 -1184.764155456841991 -1.858354622943695578 0.865574782703701473 F -1.597735222548702927 F -1.482133598353605475 #
tvertex-vertex $-1 -1 $-1 $20 $30 1.203369197834016553e-11 #
ellipse-curve $-1 -1 $-1 5376.015000083558334 -540.5682649499087802 13509.9999999991378 -9.068867830152674659e-14 -2.302720263879493365e-13 1 1200.962306632314721 3288.281220184214817 8.662937034387141466e-10 1 F -0.1000208620216175431 F -3.231873725628940178e-16 #
point $-1 -1 $-1 6576.977306715873965 2747.712955234306264 13510.00000000000364 #
point $-1 -1 $-1 6582.425807538366826 2762.631643781830007 13510.25746910156886 #
ellipse-curve $-1 -1 $-1 6899.323602499875051 2611.357296793565183 14000.00000000000182 0.9003580795742521792 -0.4351497771404285175 4.540643204799828753e-12 2.8100742950275448 5.814258047270718599 -489.9574449743724927 1 F 0 F 6.270005910518960057 #
point $-1 -1 $-1 6902.133676794903295 2617.171554840835597 13510.04255502562773 #
point $-1 -1 $-1 6899.323602501900496 2611.357296792640682 13510.00000000000182 #
End-of-ACIS-data 