700 0 1 0           
4 LibG 20 ASM 224.0.1.65535 NT 24 Wed Jul 17 15:51:49 2019 
1000 9.999999999999999547e-07 1.000000000000000036e-10 
body $-1 -1 $-1 $1 $-1 $2 #
lump $-1 -1 $-1 $-1 $3 $0 #
transform $-1 -1 1 0 0 0 1 0 0 0 1 0 0 0 1 no_rotate no_reflect no_shear #
shell $-1 -1 $-1 $-1 $-1 $4 $-1 $1 #
face $-1 -1 $-1 $-1 $5 $3 $-1 $6 forward double out #
loop $-1 -1 $-1 $-1 $7 $4 #
spline-surface $-1 -1 $-1 forward { exactsur full nubs 3 3 open open none none 40 2 
	-1.191870090842542085e-07 3 0.02564102564102564014 1 0.05128205128205128027 1 0.07692307692307692735 1 0.1025641025641025605 1 
	0.1282051282051281937 1 0.1538461538461538269 1 0.1794871794871794601 1 0.2051282051282050933 1 0.2307692307692307265 1 
	0.2564102564102563875 1 0.2820512820512820484 1 0.3076923076923077094 1 0.3333333333333333703 1 0.3589743589743590313 1 
	0.3846153846153846922 1 0.4102564102564103532 1 0.4358974358974360142 1 0.4615384615384616751 1 0.4871794871794873361 1 
	0.512820512820512997 1 0.538461538461538658 1 0.5641025641025643189 1 0.5897435897435899799 1 0.6153846153846156408 1 
	0.6410256410256413018 1 0.6666666666666669627 1 0.6923076923076926237 1 0.7179487179487182846 1 0.7435897435897439456 1 
	0.7692307692307696065 1 0.7948717948717952675 1 0.8205128205128209284 1 0.8461538461538465894 1 0.8717948717948722503 1 
	0.8974358974358979113 1 0.9230769230769235723 1 0.9487179487179492332 1 0.9743589743589748942 1 1.000000000000000444 3 
	-1.191870090842542085e-07 3 0.1000418327985307665 3 
	9464.198479501732436 358.6635269283607386 14489.99999999987267 
	9483.872326202212207 375.9336158203583409 14490.00001954494655 
	9523.219679879130126 410.4734953879187742 14485.79526494589481 
	9580.727945899936458 460.9553803656899618 14467.03547138565409 
	9635.249021348256065 508.8150508111647241 14436.30396646831468 
	9685.385499049603823 552.8258352711695807 14394.38847628094118 
	9729.852188772820227 591.859568528531895 14342.36344034469766 
	9767.509259789283533 624.9156847912825015 14281.56244093313398 
	9797.391429332936241 651.1468398958921853 14213.5440187290169 
	9818.732714015073725 669.880638585142492 14140.05172201622554 
	9830.986062529829724 680.6368684824383308 14062.96941348462315 
	9833.837379043021429 683.1398100978591401 13984.27298028954465 
	9827.213574407387568 677.3253043429763238 13905.97968520482391 
	9811.284439731722159 663.3423971866131978 13830.09645717506282 
	9786.458294034478968 641.5495190797304303 13758.56844675981483 
	9753.371517612764364 612.5052971412363831 13693.22916517226986 
	9712.872239405392975 576.9542356050131957 13635.75348502186534 
	9665.998596504156012 535.8076315920632169 13587.61470751512206 
	9613.952123096245487 490.1202154017338444 13550.04679663116985 
	9558.066950972008271 441.0631141127071828 13524.01274834134347 
	9499.775611095747081 389.893831530466457 13510.17990567944071 
	9440.57231286419119 337.9240139993839307 13508.90285242309437 
	9381.974642332532312 286.4858283536139538 13520.21432388062749 
	9325.484661215632514 236.8978138565630616 13543.82436777150178 
	9272.550403831919539 190.4310834623341293 13579.12777670973992 
	9224.52875895703437 148.2767407780984854 13625.21960177024994 
	9182.650688054127386 111.515347943776078 13680.91834947123425 
	9147.989671458339217 81.08922707328605384 13744.79626755358368 
	9121.43419134922442 57.77830526749084328 13815.21594322771671 
	9103.664956868362424 42.18012237528971298 13890.37227574752615 
	9095.137455180245524 34.69451397228707634 13968.33874740881583 
	9096.070275757925629 35.51336218952290835 14047.11680688600609 
	9106.439507165168834 44.61567709880699795 14124.68709903998206 
	9125.979350030069327 61.76813479302224863 14199.06122800218509 
	9154.188930254415027 86.53105815505421106 14268.33272665681943 
	9190.345138720071191 118.2696878041441693 14330.72592603557496 
	9233.521164979196328 156.1704513330203099 14384.64147178656094 
	9282.610262485804924 199.2618248947738664 14428.69732151768949 
	9336.354089008769733 246.4392109737794101 14461.7641700746899 
	9393.37507182106674 296.4933491842499507 14482.99440227811829 
	9432.599231257399879 330.9250864287419063 14488.8940024971489 
	9452.262648978476136 348.1860205578643104 14489.74253064240474 
	9541.196233940921957 270.9487481163019424 14489.99999999986721 
	9560.314354569089119 288.8926258612297033 14490.00001958519533 
	9598.550264664305359 324.780070592801053 14485.78660507654786 
	9654.430985053344557 377.2287631354871564 14466.98850834710174 
	9707.402829581817059 426.9476126435406513 14436.19536112077549 
	9756.105225719120426 472.6597737894650209 14394.19809470095242 
	9799.287103370557816 513.1911503340218133 14342.0754610651984 
	9835.839225765270385 547.5007326727670716 14281.16629442126941 
	9864.822654748993955 574.707308622647929 14213.03512130865784 
	9885.492877748371029 594.1121039593641626 14139.43197348117974 
	9897.318930570922021 605.2167279735782586 14062.24743584326097 
	9899.997037156723309 607.7359747050777514 13983.46408410756703 
	9893.458412599124131 601.6051479608684076 13905.10555957673932 
	9877.871029880960123 586.9817228132802711 13829.18458914549956 
	9853.635304710858691 564.2413006860704172 13757.65128571157948 
	9821.373809378934311 533.9679619866958546 13692.34305698014396 
	9781.91527985450557 496.9392640647415078 13634.93740932996297 
	9736.273326966298555 454.1062698297046722 13586.90885904402603 
	9685.620398542307157 406.5691199916583969 13549.49105770053939 
	9631.257661381625439 355.5487763497665128 13523.64510458445147 
	9574.581576741549725 302.3556618978817028 13510.03486005416198 
	9517.048027959799583 248.3560032196681107 13509.00989396526893 
	9460.134921711358402 194.9367396603560962 13520.59650713310657 
	9405.304223607454333 143.4699005724015137 13544.49705644549067 
	9353.964403372756351 95.27736559299917474 13580.09760094352714 
	9307.43425431349533 51.59691307126749393 13626.4836724506149 
	9266.909016483741652 13.55042867518512217 13682.46376563754166 
	9233.429673776989148 -17.88490927728027202 13746.59994412614651 
	9207.856213635201129 -41.90172767686717492 13817.24477644848048 
	9190.845536273094694 -57.88319505227035933 13892.58365308730754 
	9182.834580874286985 -65.41886397587430224 13970.68139760475788 
	9184.02910220495869 -64.31521254962682121 14049.53197456820271 
	9194.398385918813801 -54.60061424867419788 14127.11001743902307 
	9213.676038352066826 -36.52460843157521708 14201.42285284781792 
	9241.366830263083102 -10.55149049441326703 14270.56168492273355 
	9276.759419579188034 22.65161450952644273 14332.75062495711427 
	9318.944623000916181 62.23188533977847925 14386.3923069042612 
	9366.838779418028935 107.1727166204757964 14430.10891744619403 
	9419.211558912229521 156.3198034508774299 14462.77758509588784 
	9474.717674807212461 208.4108898250709956 14483.55922544128225 
	9512.8599201473844 244.2088399556446063 14489.1331276922574 
	9531.970791546993496 262.1457384201991658 14489.81416883840575 
	9622.585094484795263 187.0888275568828476 14489.99999999987085 
	9641.112869647600746 205.6796839889922808 14490.00001962545139 
	9678.168098063713842 242.8610739124981421 14485.77794520719726 
	9732.320351340604248 297.1978938037630655 14466.94154530856213 
	9783.647833422430267 348.700705245847189 14436.08675577323447 
	9830.829497451688439 396.0441290124506963 14394.00771312097095 
	9872.650846982669464 438.0096705157466772 14341.78748178570095 
	9908.035385925208175 473.5172690213413489 14280.77014790940666 
	9936.072300394893318 501.6530673943907459 14212.52622388830059 
	9956.039911101066537 521.6929396520708906 14138.81222494613939 
	9967.424247765431573 533.1211258224350331 14061.5254582019079 
	9969.932279462160295 535.6435065471524695 13982.65518792559305 
	9963.499457104071553 529.1951725498245196 13904.2314339486602 
	9948.291374791688213 513.9420950213894912 13828.27272111593084 
	9924.699507035360512 490.2768537054791977 13756.73412466335503 
	9893.331131646775248 458.8085327008271292 13691.45694878802351 
	9854.993697684507424 420.3470440276763043 13634.12133363806606 
	9810.674040849038647 375.8822824416444064 13586.20301057294455 
	9761.512981348390895 326.5586480032243912 13548.93531876991074 
	9708.775958116240872 273.6455921345896627 13523.27746082755766 
	9653.820455291524922 218.5049452394312652 13509.88981442888689 
	9598.061059437455697 162.5558667951127063 13509.11693550744894 
	9542.933046963966262 107.2383200165670019 13520.97869038559293 
	9489.85543904970109 53.97601116345141747 13545.1697451194832 
	9440.194475065030929 4.139747338951430322 13581.06742517731618 
	9395.228444722886707 -40.98784414445210444 13627.74774313098169 
	9356.114784207027697 -80.2453268024637083 13684.0091818038436 
	9323.860283248273845 -112.6223468059073696 13748.40362069871298 
	9299.295170038034485 -137.2856362663968071 13819.27360966924789 
	9283.051741047418545 -153.600458733080842 13894.79503042709621 
	9275.548085826543684 -161.1469449624165122 13973.02404780070174 
	9276.977325712703532 -159.7308985306563045 14051.94714225040661 
	9287.302643420220193 -149.3887932136057941 14129.53293583806408 
	9306.258231499419708 -130.3868334700162563 14203.78447769345621 
	9333.356135001013172 -103.2141024601604613 14272.79064318865494 
	9367.898813052635887 -68.56997310687465585 14334.77532387866268 
	9408.997092764846457 -27.34610945304679319 14388.14314202196329 
	9455.593065305623895 19.3964904716367279 14431.5205133747022 
	9506.487289947801401 70.45477444660134836 14463.79100011709488 
	9560.369773060017906 124.5147041565832922 14484.12404860444622 
	9597.358791313283291 161.6280252869003391 14489.37225288736772 
	9615.882261532202392 180.2143812300943182 14489.88580703441403 
	9707.9583858388105 107.5027876826949296 14489.99999999987449 
	9725.863953356214552 126.7103929922389796 14490.00001966570926 
	9761.674776388807004 165.1252689212711857 14485.76928533784303 
	9814.005744513662648 221.2615840775181368 14466.89458227002433 
	9863.601502907797112 274.463793464963203 14435.97815042569891 
	9909.183062760501343 323.3599041407626373 14393.81733154098947 
	9949.574805440763157 366.68881010328505 14341.49950250620896 
	9983.734985113516814 403.3330129647398508 14280.37400139754573 
	10010.78256953459459 432.3474145262467232 14212.01732646794881 
	10030.01997015209054 452.9836997421825231 14138.19247641109541 
	10040.95103178986392 464.7096345581799142 14060.803480560553 
	10043.29382959093891 467.2227934088796815 13981.84629174361362 
	10036.98794005029049 460.4583589778216037 13903.35730832058471 
	10022.19599944512993 444.5907939520258765 13827.36085308637303 
	9999.299509244872752 420.0293414142607844 13755.81696361512513 
	9968.888996744168253 387.4074699875789065 13690.57084059590488 
	9931.74878467173221 347.5665359369480143 13633.30525794616915 
	9888.836762588942292 301.534083606158049 13585.49716210185943 
	9841.259681796236691 250.4973438458382304 13548.37957983928754 
	9790.244610921092317 195.7726139395813902 13522.90981707066749 
	9737.107288381190301 138.7713087555782749 13509.74476880361181 
	9683.218187949863932 80.96355870436444491 13509.22397704963259 
	9629.967172632635993 23.84029335398595606 13521.36087363807746 
	9578.727648472726287 -31.1252113894786433 13545.84243379348118 
	9530.821142800939924 -82.51533079276974547 13582.03724941110522 
	9487.483220498232185 -129.0046534973904215 13629.01181381135029 
	9449.831617330582958 -169.394165430637031 13685.55459797015646 
	9418.837412234684962 -202.6421737825858429 13750.20729727127946 
	9395.299982054972133 -227.8911734835693039 13821.30244289001894 
	9379.826384678890463 -244.4899632638773426 13897.00640776688851 
	9372.815702302403224 -252.010440897840823 13975.36669799665287 
	9374.448748635482843 -250.2586444586874848 14054.36230993261415 
	9384.683405494781255 -239.2797548344974246 14131.95585423711054 
	9403.255709118260711 -219.3569304201296859 14206.14610253909268 
	9429.686657960304728 -191.0040042801919355 14275.01960145457815 
	9463.294567222794285 -154.9522312344298314 14336.80002280021108 
	9503.212648362459731 -112.1314300227560921 14389.89397713966719 
	9548.411371829744894 -63.64599441670611668 14432.93210930321766 
	9597.724992793911952 -10.74643862527793026 14464.80441513830556 
	9649.881718010474287 45.20296321436274667 14484.68887176761018 
	9685.651326092298405 83.57362716818333581 14489.61137808247986 
	9703.555255350584048 102.7794750894450573 14489.95744523042413 
	0 
	
	0 
	0 
	38 0.02564102564102564014 0.05128205128205128027 0.07692307692307692735 0.1025641025641025605 0.1282051282051281937 0.1538461538461538269 0.1794871794871794601 0.2051282051282050933 0.2307692307692307265 0.2564102564102563875 0.2820512820512820484 0.3076923076923077094 0.3333333333333333703 0.3589743589743590313 0.3846153846153846922 0.4102564102564103532 0.4358974358974360142 0.4615384615384616751 0.4871794871794873361 0.512820512820512997 0.538461538461538658 0.5641025641025643189 0.5897435897435899799 0.6153846153846156408 0.6410256410256413018 0.6666666666666669627 0.6923076923076926237 0.7179487179487182846 0.7435897435897439456 0.7692307692307696065 0.7948717948717952675 0.8205128205128209284 0.8461538461538465894 0.8717948717948722503 0.8974358974358979113 0.9230769230769235723 0.9487179487179492332 0.9743589743589748942 
	0 
	0 
	0 
	F 1 F 0 F 1 F 0 } I I I I #
tcoedge-coedge $-1 -1 $-1 $8 $9 $-1 $10 forward $5 $11 0 6.250766387756697462 #
coedge $-1 -1 $-1 $12 $7 $-1 $13 forward $5 $14 #
coedge $-1 -1 $-1 $7 $12 $-1 $15 forward $5 $16 #
tedge-edge $-1 -1 $-1 $17 -9.111885136711378393e-17 $18 6.250766387756697462 $7 $19 forward @7 unknown 0.0008503927448300093546 #
pcurve $-1 -1 $-1 0 forward { exppc nubs 1 open 2 
	0 1 6.250766387756697462 1 
	0 0 
	0.9999999999999987788 0 
	6.935019000171044734e-08 
	spline forward { ref 0 } I I I I 
	} 0 0 #
tcoedge-coedge $-1 -1 $-1 $9 $8 $-1 $20 forward $5 $21 3.517218170190303643e-16 6.270005910518959169 #
edge $-1 -1 $-1 $18 -1.597735222624447005 $22 -1.482133598387263662 $8 $23 forward @7 unknown #
pcurve $-1 -1 $-1 0 forward { exppc nubs 3 open 2 
	-1.597735222624447005 3 -1.482133598387263662 3 
	0.999999999999999889 0 
	0.999999997512100447 0.03330815819588803933 
	1.000000000000000444 0.0666739075496252942 
	1 0.1000417136115216848 
	1.994682799215735593e-06 
	spline forward { ref 0 } I I I I 
	} 0 0 #
edge $-1 -1 $-1 $24 -0.1000208620215984612 $17 -3.231873725933131845e-16 $9 $25 forward @7 unknown #
pcurve $-1 -1 $-1 0 forward { exppc nubs 1 open 2 
	-0.1000208620215984751 1 -3.207284184969714625e-26 1 
	9.962974831518334955e-16 0.1000417136115216848 
	0 0 
	0.0009308921394450367934 
	spline forward { ref 0 } I I I I 
	} 0 0 #
tvertex-vertex $-1 -1 $-1 $10 $26 1.727595761418342368e-11 #
tvertex-vertex $-1 -1 $-1 $10 $27 2.10650646340145349e-11 #
ellipse-curve $-1 -1 $-1 9464.199029048217199 358.663454254677049 14000.00000000000364 -0.6597040166702419217 0.7515255221142853603 8.627361473889740197e-13 1.721758735584444521e-10 -4.112187923510646318e-10 489.9999999999990337 1 F -9.111885136711378393e-17 F 6.250766387756697462 #
tedge-edge $-1 -1 $-1 $22 3.517218170190303643e-16 $24 6.270005910518959169 $12 $28 forward @7 unknown 0.0008609630462561655272 #
pcurve $-1 -1 $-1 0 forward { exppc nubs 1 open 2 
	0 1 6.270005910518959169 1 
	1 0.1000417136115216571 
	9.951156443460700859e-16 0.1000417136115215877 
	8.60634813280608688e-08 
	spline forward { ref 0 } I I I I 
	} 0 0 #
tvertex-vertex $-1 -1 $-1 $13 $29 1.406897246834279893e-11 #
ellipse-curve $-1 -1 $-1 11396.99550941565758 2121.806801390228884 14489.8786974477207 -0.0004492053110006331168 0.0004157695702222767554 0.9999998126751089567 2117.725442869258131 -2181.642965102586459 1.858354622273271861 0.8655747823885040493 F -1.597735222624447005 F -1.482133598387263662 #
tvertex-vertex $-1 -1 $-1 $20 $30 1.727608251320168733e-11 #
ellipse-curve $-1 -1 $-1 12095.06217426477451 2668.135895335692112 14489.99999999740794 -5.283134139200344967e-13 -5.21368782242485703e-13 -1 -2630.863145216385874 -2309.472441081426041 2.594549641798949035e-09 1 F -0.1000208620215984612 F -3.231873725933131845e-16 #
point $-1 -1 $-1 9464.199029048390003 358.6634542542658437 14490.00000000000182 #
point $-1 -1 $-1 9452.262933864227307 348.1857130403715814 14489.7425308984366 #
ellipse-curve $-1 -1 $-1 9707.958330401645071 107.5033399724688934 14000.00000000000546 0.7314640493214398242 -0.6818800074428655877 1.822141916060923076e-11 -4.403388404047760218 -4.72358812206656431 489.9574449743724927 1 F 3.517218170190303643e-16 F 6.270005910518959169 #
point $-1 -1 $-1 9703.55494199759778 102.7797518504023344 14489.95744497437772 #
point $-1 -1 $-1 9707.958330395082157 107.5033399785217227 14490.00000000000364 #
End-of-ACIS-data 