700 0 1 0           
4 LibG 20 ASM 224.0.1.65535 NT 24 Wed Jul 17 15:51:49 2019 
1000 9.999999999999999547e-07 1.000000000000000036e-10 
body $-1 -1 $-1 $1 $-1 $2 #
lump $-1 -1 $-1 $-1 $3 $0 #
transform $-1 -1 1 0 0 0 1 0 0 0 1 0 0 0 1 no_rotate no_reflect no_shear #
shell $-1 -1 $-1 $-1 $-1 $4 $-1 $1 #
face $-1 -1 $-1 $-1 $5 $3 $-1 $6 forward double out #
loop $-1 -1 $-1 $-1 $7 $4 #
spline-surface $-1 -1 $-1 forward { exactsur full nubs 3 3 open open none none 40 2 
	-1.191870090741567022e-07 3 0.02564102564102564014 1 0.05128205128205128027 1 0.07692307692307692735 1 0.1025641025641025605 1 
	0.1282051282051281937 1 0.1538461538461538269 1 0.1794871794871794601 1 0.2051282051282050933 1 0.2307692307692307265 1 
	0.2564102564102563875 1 0.2820512820512820484 1 0.3076923076923077094 1 0.3333333333333333703 1 0.3589743589743590313 1 
	0.3846153846153846922 1 0.4102564102564103532 1 0.4358974358974360142 1 0.4615384615384616751 1 0.4871794871794873361 1 
	0.512820512820512997 1 0.538461538461538658 1 0.5641025641025643189 1 0.5897435897435899799 1 0.6153846153846156408 1 
	0.6410256410256413018 1 0.6666666666666669627 1 0.6923076923076926237 1 0.7179487179487182846 1 0.7435897435897439456 1 
	0.7692307692307696065 1 0.7948717948717952675 1 0.8205128205128209284 1 0.8461538461538465894 1 0.8717948717948722503 1 
	0.8974358974358979113 1 0.9230769230769235723 1 0.9487179487179492332 1 0.9743589743589748942 1 1.000000000000000444 3 
	-1.191870090741567022e-07 3 0.1000418327985306832 3 
	4154.859247061521273 3025.659039109665628 14489.99999999985448 
	4156.168619593492622 3051.804818078824155 14490.00001954493564 
	4158.787342047454331 3104.095924537064548 14485.7952649458839 
	4162.614745251076783 3180.522178902601354 14467.03547138564318 
	4166.243339073750576 3252.97857289278636 14436.30396646830741 
	4169.580120525357415 3319.608006588615808 14394.38847628092299 
	4172.539555098459459 3378.702512035021755 14342.36344034469039 
	4175.045782537054947 3428.747298416235935 14281.56244093312489 
	4177.034559444381557 3468.45954238671311 14213.5440187290078 
	4178.454906587730875 3496.821281741090388 14140.05172201621463 
	4179.270415532889274 3513.105506518095353 14062.96941348461405 
	4179.460181956259476 3516.89479554021591 13984.27298028953555 
	4179.019341485198311 3508.092016166419853 13905.97968520481663 
	4177.959194391448364 3486.922814192834721 13830.09645717505191 
	4176.306915925238172 3453.929829753221838 13758.56844675980756 
	4174.104859719472188 3409.958787572491929 13693.22916517225894 
	4171.409472119033126 3356.136818105055681 13635.75348502185989 
	4168.289845265029726 3293.843565268787188 13587.61470751511115 
	4164.825946023371216 3224.675821381971673 13550.04679663116076 
	4161.106566156382542 3150.406595833008851 13524.01274834133619 
	4157.227046281706862 3072.939666694875086 13510.17990567942979 
	4153.286831961309872 2994.260780284237626 13508.90285242308346 
	4149.38692456649278 2916.386749589933061 13520.21432388062021 
	4145.627292262137416 2841.313756354792531 13543.82436777148723 
	4142.104307475596215 2770.966182007918633 13579.12777670972901 
	4138.908276536829362 2707.147279088268078 13625.21960177024448 
	4136.121124813680581 2651.492947622149586 13680.91834947122334 
	4133.814296680287043 2605.429801326634333 13744.79626755357458 
	4132.046924149761253 2570.138598547470792 13815.21594322770761 
	4130.864311115431519 2546.523975324024377 13890.37227574751523 
	4130.296772054732173 2535.191256426136988 13968.33874740880674 
	4130.358854964102648 2536.430938782783869 14047.11680688599517 
	4131.048968442621117 2550.211245022904222 14124.68709903996933 
	4132.349422487824995 2576.178938093585657 14199.06122800217599 
	4134.226881941818647 2613.668375750960422 14268.33272665681034 
	4136.633221024658269 2661.718574031846401 14330.72592603556768 
	4139.506756824956938 2719.09783780897169 14384.64147178655185 
	4142.773830970289055 2784.33534386170686 14428.69732151768221 
	4146.350695794114472 2855.758804185401914 14461.76417007468262 
	4150.145668367455073 2931.537478072194517 14482.99440227811101 
	4152.756191756070621 2983.664864164325081 14488.89400249714163 
	4154.064870198097196 3009.79678342447005 14489.74253064238655 
	4271.428784632053066 3019.821272300431247 14489.9999999998563 
	4271.867608971901063 3046.037540495519352 14490.00001958518988 
	4272.745250005300477 3098.469622815292951 14485.78660507653876 
	4274.027762340649133 3175.097786193679894 14466.98850834709629 
	4275.24324191037249 3247.737327206609734 14436.19536112077003 
	4276.360344046303908 3314.522633591798694 14394.19809470094697 
	4277.35025737516662 3373.738232159249947 14342.07546106519294 
	4278.187451348261675 3423.863118174765987 14281.16629442126214 
	4278.850334031963939 3463.609784917007346 14213.0351213086542 
	4279.321809158677752 3491.957305304312285 14139.43197348117428 
	4279.589717005729653 3508.17755268973815 14062.24743584325915 
	4279.647148017102154 3511.8539042314178 13983.46408410756158 
	4279.49262100299984 3502.891941886334735 13905.10555957673205 
	4279.130121341767335 3481.521877379059788 13829.18458914549592 
	4278.568998193478365 3448.292638539491691 13757.65128571157584 
	4277.823723377558053 3404.057769007556089 13692.3430569801385 
	4276.913518132811987 3349.953503478504899 13634.93740932995934 
	4275.861857386134943 3287.369581675362042 13586.90885904402239 
	4274.69586431517746 3217.913550743487576 13549.49105770053757 
	4273.445610819677313 3143.36947302342287 13523.64510458444602 
	4272.143341942904954 3065.65209986276659 13510.03486005415652 
	4270.822644245989977 2986.757688588082601 13509.00989396526529 
	4269.517579583423867 2908.712725981311905 13520.59650713310293 
	4268.261806620413154 2833.521875377450215 13544.49705644548339 
	4267.087712748799277 2763.116484440018212 13580.09760094351986 
	4266.025578790171494 2699.30497626606666 13626.48367245061127 
	4265.102798029169207 2643.726398093116131 13682.46376563753802 
	4264.343169718669742 2597.808320769567217 13746.59994412613923 
	4263.766285278002215 2562.730170390667354 13817.24477644847502 
	4263.387023014596707 2539.39293396635594 13892.58365308730026 
	4263.215164400572576 2528.396017255538482 13970.68139760475424 
	4263.255141800923411 2530.021849192595255 14049.53197456819726 
	4263.50592415918527 2544.228628317225684 14127.11001743901761 
	4263.961043590303234 2570.65139758807436 14201.42285284781065 
	4264.608762189366644 2608.611419619855951 14270.56168492272991 
	4265.432374774562959 2657.133612714465471 14332.75062495711063 
	4266.41063967986338 2714.971595256251476 14386.39230690425575 
	4267.518326772454202 2780.639712058940859 14430.10891744619039 
	4268.726867495505758 2852.451156865352004 14462.77758509588421 
	4270.00509414815042 2928.561447352350115 14483.55922544127679 
	4270.881721044941514 2980.863986854984432 14489.13312769225195 
	4271.320504785946468 3007.070192246241277 14489.81416883839847 
	4388.290381801331023 3019.819295597194923 14489.9999999998563 
	4387.853785342375886 3046.062538134936403 14490.00001962544593 
	4386.980599963589157 3098.548567294214081 14485.77794520718999 
	4385.704392943694074 3175.251421390412816 14466.94154530855667 
	4384.494477214588187 3247.953457862762662 14436.08675577323083 
	4383.381863816222904 3314.783625346764893 14394.00771312096731 
	4382.395073471750948 3374.021773486909296 14341.78748178569549 
	4381.559401089009953 3424.143194052162926 14280.7701479094012 
	4380.896268011747452 3463.857825834309551 14212.5262238882915 
	4380.422672738299298 3492.143469983491741 14138.81222494613212 
	4380.150755235167708 3508.272097367855167 14061.52545820190244 
	4380.087485733093672 3511.828587840544969 13982.65518792558578 
	4380.234486058158836 3502.721414528465175 13904.23143394865292 
	4380.58798805760307 3481.184999366118973 13828.27272111592538 
	4381.138930191517829 3447.773678926220782 13756.73412466334776 
	4381.873189812975397 3403.347435959032737 13691.45694878801805 
	4382.771945182768832 3349.049763885996072 13634.12133363805879 
	4383.812157938908058 3286.278234015058842 13586.20301057293727 
	4384.967163653481293 3216.648523063186985 13548.9353187699071 
	4386.207355338736306 3141.952826899825595 13523.27746082755402 
	4387.500942381638197 3064.113730917816156 13509.88981442888326 
	4388.814765452663778 2985.134724379894578 13509.11693550744349 
	4390.115146499781076 2907.048632468427058 13520.97869038558565 
	4391.36875203911768 2831.865293360504438 13545.16974511947774 
	4392.543447613134049 2761.519827080293453 13581.06742517731072 
	4393.609121513367427 2697.82282764576712 13627.74774313097987 
	4394.53845665276458 2642.413760519595598 13684.00918180383633 
	4395.307630801735286 2596.718764868759081 13748.40362069870935 
	4395.896927238281933 2561.913946757557824 13819.27360966924061 
	4396.291240159110203 2538.895108063715725 13894.79503042708893 
	4396.480461896117049 2528.2546902515478 13973.0240478006981 
	4396.45974201248373 2530.266526436604636 14051.94714225040116 
	4396.229611637141716 2544.878794164800638 14129.53293583805862 
	4395.795969849028552 2571.715350358264914 14203.78447769345075 
	4395.169932465573766 2610.085413713828984 14272.79064318864766 
	4394.367547091340384 2659.001346530619685 14334.77532387865722 
	4393.409381806375677 2717.204073693006194 14388.14314202195965 
	4392.319997757106648 2783.195501523693565 14431.52051337469857 
	4391.127320216160115 2855.277038581943998 14463.79100011709124 
	4389.861920325982283 2931.593463745236932 14484.12404860443894 
	4388.991467121485584 2983.984573562467176 14489.37225288736408 
	4388.55510190926816 3010.221592478494131 14489.88580703440493 
	4504.860116833071515 3025.653118880682541 14489.99999999985994 
	4503.547601174655938 3051.879417752120844 14490.00001966570562 
	4500.92259272823776 3104.331558505106386 14485.76928533783939 
	4497.086622993288074 3180.980768810227801 14466.89458227001342 
	4493.451149869070832 3253.623715264494422 14435.97815042569346 
	4490.109925918279259 3320.387061947659276 14393.81733154098401 
	4487.149126452580276 3379.54887932324209 14341.49950250620168 
	4484.645113626894272 3429.583321444592912 14280.37400139754027 
	4482.662468952800737 3469.199939688508493 14212.01732646793971 
	4481.252327134446205 3497.376975552550448 14138.19247641108632 
	4480.451057386996581 3513.387710158733171 14060.8034805605439 
	4480.279325393836189 3516.81920794659527 13981.8462917436118 
	4480.741560324638158 3507.582966560637942 13903.35730832057561 
	4481.825840599128242 3485.9171994844246 13827.36085308636393 
	4483.504201359345643 3452.380692221232039 13755.81696361511968 
	4485.733355715881771 3407.838390565508689 13690.57084059590125 
	4488.455811167494176 3353.439092636900114 13633.30525794616005 
	4491.601352400033647 3290.585820031769344 13585.49716210185579 
	4495.088852221608249 3220.899632253179789 13548.37957983928209 
	4498.82836392788704 3146.177817688037976 13522.90981707066021 
	4502.723441132904554 3068.347539434927512 13509.74476880360635 
	4506.673625234318934 2989.416131511049116 13509.22397704962168 
	4510.577036358401529 2911.419327357275506 13521.36087363806837 
	4514.333000961271864 2836.36875588883504 13545.8424337934739 
	4517.844648317497558 2766.200059229918224 13582.03724941109795 
	4521.021408929537756 2702.72297023661713 13629.01181381134666 
	4523.781350421139905 2647.574637367317791 13685.55459797015101 
	4526.053290669278795 2602.177400706847493 13750.20729727127036 
	4527.7786336744457 2567.702108150005643 13821.30244289001166 
	4528.912880820110331 2545.037917863556231 13897.00640776687942 
	4529.426778544176159 2534.769365854821444 13975.36669799664378 
	4529.307072822419286 2537.161290107464993 14054.36230993260688 
	4528.556851006032048 2552.152000085112377 14131.95585423710327 
	4527.195462192466948 2579.354867857221961 14206.14610253908722 
	4525.258018199794606 2618.068299481948088 14275.01960145457087 
	4522.794487953639873 2667.293830697624799 14336.80002280020562 
	4519.868408872436703 2725.761875640936523 14389.89397713965809 
	4516.555247631742532 2791.964481568299107 14432.93210930320674 
	4512.940455772967653 2864.194181106271117 14464.80441513829828 
	4509.11725840868894 2940.588177686128802 14484.6888717676029 
	4506.495271104618041 2992.979950868200831 14489.61137808247622 
	4505.182875534031155 3019.203850180213976 14489.95744523041503 
	0 
	
	0 
	0 
	38 0.02564102564102564014 0.05128205128205128027 0.07692307692307692735 0.1025641025641025605 0.1282051282051281937 0.1538461538461538269 0.1794871794871794601 0.2051282051282050933 0.2307692307692307265 0.2564102564102563875 0.2820512820512820484 0.3076923076923077094 0.3333333333333333703 0.3589743589743590313 0.3846153846153846922 0.4102564102564103532 0.4358974358974360142 0.4615384615384616751 0.4871794871794873361 0.512820512820512997 0.538461538461538658 0.5641025641025643189 0.5897435897435899799 0.6153846153846156408 0.6410256410256413018 0.6666666666666669627 0.6923076923076926237 0.7179487179487182846 0.7435897435897439456 0.7692307692307696065 0.7948717948717952675 0.8205128205128209284 0.8461538461538465894 0.8717948717948722503 0.8974358974358979113 0.9230769230769235723 0.9487179487179492332 0.9743589743589748942 
	0 
	0 
	0 
	F 1 F 0 F 1 F 0 } I I I I #
tcoedge-coedge $-1 -1 $-1 $8 $9 $-1 $10 forward $5 $11 0 6.250766387756693909 #
coedge $-1 -1 $-1 $12 $7 $-1 $13 forward $5 $14 #
coedge $-1 -1 $-1 $7 $12 $-1 $15 forward $5 $16 #
tedge-edge $-1 -1 $-1 $17 -3.907042797884036887e-29 $18 6.250766387756693909 $7 $19 forward @7 unknown 0.000850392751444566347 #
pcurve $-1 -1 $-1 0 forward { exppc nubs 1 open 2 
	0 1 6.250766387756694797 1 
	0 0 
	0.9999999999999986677 1.467106807051261772e-16 
	6.734941405984554725e-08 
	spline forward { ref 0 } I I I I 
	} 0 0 #
tcoedge-coedge $-1 -1 $-1 $9 $8 $-1 $20 forward $5 $21 0 6.270005910518958281 #
edge $-1 -1 $-1 $18 -1.597735222532422172 $22 -1.482133598332694868 $8 $23 forward @7 unknown #
pcurve $-1 -1 $-1 0 forward { exppc nubs 3 open 2 
	-1.597735222532422172 3 -1.482133598332694868 3 
	0.999999999999999889 2.310341931260103716e-17 
	0.9999999975121014462 0.03330815819591394916 
	1.000000000000000444 0.06667390754960272892 
	1 0.100041713611521671 
	1.95630085036159384e-06 
	spline forward { ref 0 } I I I I 
	} 0 0 #
edge $-1 -1 $-1 $24 -0.100020862021602569 $17 -3.097212320394096635e-16 $9 $25 forward @7 unknown #
pcurve $-1 -1 $-1 0 forward { exppc nubs 1 open 2 
	-0.1000208620216026384 1 -1.530922173892918054e-27 1 
	0 0.1000417136115216155 
	0 0 
	0.000930892138181014378 
	spline forward { ref 0 } I I I I 
	} 0 0 #
tvertex-vertex $-1 -1 $-1 $10 $26 1.783697393654350934e-11 #
tvertex-vertex $-1 -1 $-1 $10 $27 1.406738395668033167e-11 #
ellipse-curve $-1 -1 $-1 4154.859681953574182 3025.659382843034109 13999.99999999999818 -0.9987483720445053947 0.05001689053160453952 -1.386409200436314639e-12 -6.854548928458825478e-10 -1.061209786712424881e-10 489.9999999999990337 1 F -3.907042797884036887e-29 F 6.250766387756693909 #
tedge-edge $-1 -1 $-1 $22 0 $24 6.270005910518958281 $12 $28 forward @7 unknown 0.0008609630508444678131 #
pcurve $-1 -1 $-1 0 forward { exppc nubs 1 open 2 
	0 1 6.270005910518958281 1 
	0.999999999999999889 0.1000417136115216571 
	1.14428941967414129e-15 0.1000417136115215877 
	7.938299356948083526e-08 
	spline forward { ref 0 } I I I I 
	} 0 0 #
tvertex-vertex $-1 -1 $-1 $13 $29 1.187497136067470826e-11 #
ellipse-curve $-1 -1 $-1 4235.777719404982236 5640.58366036740972 14489.87869745032185 -0.0006112082844609604496 -3.277468524005508894e-05 0.9999998126751089567 3040.448493126912581 0.2125785804679647117 1.858354622788153554 0.8655747826685674662 F -1.597735222532422172 F -1.482133598332694868 #
tvertex-vertex $-1 -1 $-1 $20 $30 1.818545231595635192e-11 #
ellipse-curve $-1 -1 $-1 4329.918811155522235 6522.008642607223919 14490.00000000086402 6.191996276132040955e-15 2.474091786717389533e-13 -1 -175.0591292026346935 -3496.349259764296221 -8.662937034387141466e-10 1 F -0.100020862021602569 F -3.097212320394096635e-16 #
point $-1 -1 $-1 4154.859681952889332 3025.659382842927698 14489.99999999999818 #
point $-1 -1 $-1 4154.065289282735648 3009.79677367935119 14489.74253089843296 #
ellipse-curve $-1 -1 $-1 4504.859681902436023 3025.653463751184972 14000.00000000000182 0.998750063213670658 0.04998310945398398708 1.076444989813483069e-11 0.3227767910004502028 -6.44964567453241866 489.9574449743724927 1 F 0 F 6.270005910518958281 #
point $-1 -1 $-1 4505.182458693436274 3019.203818076652624 14489.95744497437408 #
point $-1 -1 $-1 4504.859681897170049 3025.65346375087347 14490 #
End-of-ACIS-data 