700 0 1 0           
4 LibG 20 ASM 224.0.1.65535 NT 24 Wed Jul 17 15:51:49 2019 
1000 9.999999999999999547e-07 1.000000000000000036e-10 
body $-1 -1 $-1 $1 $-1 $2 #
lump $-1 -1 $-1 $-1 $3 $0 #
transform $-1 -1 1 0 0 0 1 0 0 0 1 0 0 0 1 no_rotate no_reflect no_shear #
shell $-1 -1 $-1 $-1 $-1 $4 $-1 $1 #
face $-1 -1 $-1 $-1 $5 $3 $-1 $6 forward double out #
loop $-1 -1 $-1 $-1 $7 $4 #
spline-surface $-1 -1 $-1 forward { exactsur full nubs 3 3 open open none none 40 2 
	-1.191870090967506576e-07 3 0.02564102564102564014 1 0.05128205128205128027 1 0.07692307692307692735 1 0.1025641025641025605 1 
	0.1282051282051281937 1 0.1538461538461538269 1 0.1794871794871794601 1 0.2051282051282050933 1 0.2307692307692307265 1 
	0.2564102564102563875 1 0.2820512820512820484 1 0.3076923076923077094 1 0.3333333333333333703 1 0.3589743589743590313 1 
	0.3846153846153846922 1 0.4102564102564103532 1 0.4358974358974360142 1 0.4615384615384616751 1 0.4871794871794873361 1 
	0.512820512820512997 1 0.538461538461538658 1 0.5641025641025643189 1 0.5897435897435899799 1 0.6153846153846156408 1 
	0.6410256410256413018 1 0.6666666666666669627 1 0.6923076923076926237 1 0.7179487179487182846 1 0.7435897435897439456 1 
	0.7692307692307696065 1 0.7948717948717952675 1 0.8205128205128209284 1 0.8461538461538465894 1 0.8717948717948722503 1 
	0.8974358974358979113 1 0.9230769230769235723 1 0.9487179487179492332 1 0.9743589743589748942 1 1.000000000000000444 3 
	-1.191870090967506576e-07 3 0.1000418327985307804 3 
	658.3604299557848663 3095.630616072298835 14489.99999999986176 
	659.6698024877566695 3121.776395041455544 14490.00001954493564 
	662.2885249417181512 3174.067501499696846 14485.795264945893 
	666.1159281453393533 3250.493755865232743 14467.03547138564318 
	669.7445219680131459 3322.950149855417749 14436.30396646830377 
	673.0813034196206672 3389.579583551248106 14394.38847628093026 
	676.0407379927215743 3448.674088997653143 14342.36344034468857 
	678.5469654313179717 3498.718875378869598 14281.56244093312489 
	680.5357423386427627 3538.431119349344499 14213.5440187290078 
	681.9560894819934447 3566.792858703722686 14140.05172201621644 
	682.7715984271510479 3583.077083480727197 14062.96941348461223 
	682.9613648505223864 3586.866372502848208 13984.27298028953737 
	682.5205243794614489 3578.063593129052151 13905.97968520481663 
	681.4603772857102513 3556.8943911554652 13830.09645717505191 
	679.8080988195009695 3523.901406715854591 13758.56844675980756 
	677.6060426137333934 3479.930364535124681 13693.22916517226076 
	674.9106550132956954 3426.108395067688434 13635.75348502185989 
	671.7910281592919546 3363.81514223142085 13587.61470751511115 
	668.3271289176336722 3294.647398344603971 13550.04679663115894 
	664.6077490506459071 3220.378172795641149 13524.01274834133255 
	660.7282291759686359 3142.911243657507384 13510.17990567943161 
	656.7880148555730102 3064.232357246870379 13508.90285242308346 
	652.8881074607562596 2986.358326552566268 13520.21432388062021 
	649.1284751563998725 2911.285333317423465 13543.82436777149087 
	645.6054903698600356 2840.937758970550021 13579.12777670972901 
	642.4094594310925004 2777.118856050900376 13625.21960177024084 
	639.6223077079429231 2721.464524584782339 13680.91834947122334 
	637.3154795745496131 2675.401378289265722 13744.79626755357276 
	635.5481070440239364 2640.110175510104 13815.21594322770761 
	634.3654940096944301 2616.495552286656675 13890.37227574751705 
	633.797954948994402 2605.162833388769741 13968.33874740880674 
	633.8600378583654447 2606.402515745415712 14047.11680688599517 
	634.5501513368842552 2620.182821985536066 14124.68709903997296 
	635.850605382087565 2646.150515056217955 14199.06122800217599 
	637.7280648360805344 2683.639952713592265 14268.33272665681034 
	640.1344039189202704 2731.690150994478245 14330.72592603556768 
	643.0079397192204169 2789.069414771603078 14384.64147178655185 
	646.275013864552534 2854.306920824339613 14428.69732151767857 
	649.8518786883785197 2925.730381148033757 14461.76417007467899 
	653.6468512617177566 3001.509055034825906 14482.99440227811101 
	656.2573746503336451 3053.636441126957834 14488.89400249713981 
	657.566053092360562 3079.768360387103257 14489.74253064239383 
	774.9299675263157496 3089.792849263063545 14489.99999999986176 
	775.3687918661640879 3116.009117458151195 14490.00001958518806 
	776.2464328995641836 3168.441199777925704 14485.78660507654058 
	777.5289452349114754 3245.069363156311738 14466.98850834709629 
	778.7444248046350594 3317.708904169241578 14436.19536112076821 
	779.861526940567046 3384.494210554430538 14394.19809470094515 
	780.8514402694283945 3443.70980912188179 14342.07546106519294 
	781.6886342425239036 3493.834695137399194 14281.16629442126214 
	782.3515169262249174 3533.581361879639189 14213.03512130865056 
	782.8229920529403216 3561.928882266944584 14139.43197348117428 
	783.0908998999919959 3578.149129652369538 14062.24743584325552 
	783.1483309113641553 3581.825481194050099 13983.46408410756158 
	782.9938038972619552 3572.863518848967033 13905.10555957673205 
	782.6313042360289955 3551.493454341692086 13829.18458914549592 
	782.0701810877411617 3518.264215502124443 13757.65128571157584 
	781.3249062718191453 3474.029345970188388 13692.3430569801385 
	780.4147010270739884 3419.925080441137197 13634.93740932995934 
	779.3630402803962625 3357.34115863799434 13586.90885904402057 
	778.1970472094394609 3287.885127706119874 13549.49105770053393 
	776.9467937139407923 3213.341049986055168 13523.6451045844442 
	775.6445248371666139 3135.623676825398888 13510.03486005415652 
	774.3238271402519786 3056.729265550715354 13509.00989396526165 
	773.018762477685982 2978.684302943943749 13520.59650713310111 
	771.7629895146749277 2903.493452340081603 13544.49705644548339 
	770.5888956430609369 2833.0880614026496 13580.09760094351986 
	769.52676168443395 2769.276553228698958 13626.48367245060763 
	768.6039809234320046 2713.697975055748884 13682.46376563753438 
	767.8443526129320844 2667.779897732199515 13746.59994412613923 
	767.2674681722645573 2632.701747353299652 13817.24477644847502 
	766.8882059088584811 2609.364510928988238 13892.58365308730026 
	766.7163472948344634 2598.367594218170325 13970.68139760475242 
	766.7563246951856399 2599.993426155227098 14049.53197456819544 
	767.0071070534477258 2614.200205279857528 14127.11001743901579 
	767.462226484565349 2640.622974550706658 14201.42285284781065 
	768.1099450836285314 2678.58299658248734 14270.56168492272627 
	768.9335576688245055 2727.105189677097314 14332.75062495710881 
	769.911822574125722 2784.943172218882864 14386.39230690425575 
	771.0195096667167718 2850.611289021573612 14430.10891744618675 
	772.2280503897684412 2922.422733827982938 14462.77758509588239 
	773.5062770424121936 2998.533024314982413 14483.55922544127679 
	774.3829039392044251 3050.835563817617185 14489.13312769225013 
	774.8216876802084698 3077.041769208873575 14489.81416883839847 
	891.7915646955946158 3089.790872559825857 14489.99999999985994 
	891.3549682366384559 3116.034115097567792 14490.00001962544229 
	890.4817828578512717 3168.520144256846379 14485.77794520718999 
	889.2055758379570989 3245.222998353043295 14466.94154530855303 
	887.9956601088504158 3317.92503482539496 14436.08675577322538 
	886.8830467104858144 3384.755202309397191 14394.00771312096185 
	885.8962563660131764 3443.99335044954114 14341.78748178569185 
	885.0605839832707034 3494.114771014794769 14280.77014790939756 
	884.397450906009567 3533.829402796940485 14212.5262238882915 
	883.9238556325622085 3562.115046946124039 14138.8122249461303 
	883.6519381294294817 3578.243674330487465 14061.52545820190062 
	883.5886686273553323 3581.800164803177267 13982.65518792558396 
	883.7356689524208377 3572.692991491096564 13904.2314339486511 
	884.0891709518656398 3551.156576328749907 13828.27272111592356 
	884.6401130857780117 3517.745255888853535 13756.73412466334594 
	885.3743727072369438 3473.31901292166458 13691.45694878801442 
	886.2731280770316289 3419.021340848627915 13634.12133363805697 
	887.3133408331694909 3356.249810977691141 13586.20301057293545 
	888.4683465477422715 3286.620100025818829 13548.93531876990528 
	889.7085382329992171 3211.924403862456529 13523.27746082755039 
	891.0021252758990613 3134.08530788044709 13509.8898144288778 
	892.3159483469266888 3055.106301342526876 13509.11693550743985 
	893.6163293940431913 2977.020209431058447 13520.97869038558383 
	894.8699349333787723 2901.836870323136736 13545.16974511947592 
	896.0446305073971871 2831.491404042925296 13581.06742517730891 
	897.110304407630224 2767.794404608399418 13627.74774313097623 
	898.0396395470272637 2712.385337482226987 13684.00918180383633 
	898.808813695996605 2666.690341831390015 13748.40362069870571 
	899.3981101325447298 2631.885523720188758 13819.27360966924061 
	899.792423053373227 2608.866685026348932 13894.79503042708893 
	899.9816447903790504 2598.226267214179188 13973.02404780069628 
	899.9609249067460723 2600.238103399236479 14051.94714225039752 
	899.7307945314032622 2614.850371127432936 14129.53293583805498 
	899.297152743291349 2641.686927320897212 14203.78447769344893 
	898.6711153598344026 2680.056990676460373 14272.79064318864584 
	897.8687299856030677 2728.972923493250619 14334.7753238786554 
	896.9105647006374511 2787.175650655637583 14388.14314202195601 
	895.8211806513686497 2853.167078486324499 14431.52051337469675 
	894.6285031104233667 2925.248615544574022 14463.79100011708761 
	893.3631032202448523 3001.56504070786923 14484.12404860443712 
	892.492650015747131 3053.956150525099019 14489.37225288735863 
	892.0562848035300476 3080.193169441125065 14489.88580703440493 
	1008.361299727334654 3095.624695843314385 14489.99999999986176 
	1007.048784068918508 3121.850994714752687 14490.00001966569835 
	1004.423775622500102 3174.303135467736865 14485.76928533784121 
	1000.587805887549848 3250.95234577285737 14466.89458227001342 
	996.9523327633331746 3323.595292227127175 14435.978150425688 
	993.6111088125418291 3390.35863891029112 14393.81733154097856 
	990.6503093468421639 3449.520456285872569 14341.49950250619804 
	988.1462965211561595 3499.5548984072243 14280.37400139753481 
	986.1636518470629653 3539.171516651140337 14212.01732646793789 
	984.7535100287082059 3567.348552515180927 14138.19247641108632 
	983.9522402812588098 3583.359287121364105 14060.8034805605439 
	983.7805082880986447 3586.790784909227568 13981.84629174360452 
	984.2427432188992498 3577.554543523268876 13903.35730832057379 
	985.3270234933911524 3555.888776447055079 13827.36085308636211 
	987.0053842536071897 3522.352269183862973 13755.81696361511422 
	989.2345386101430904 3477.809967528139623 13690.57084059589397 
	991.9569940617578823 3423.410669599531047 13633.30525794615824 
	995.1025352942950803 3360.557396994400278 13585.49716210184852 
	998.5900351158705917 3290.871209215810723 13548.37957983927663 
	1002.329546822148927 3216.14939465066891 13522.90981707065839 
	1006.224624027165305 3138.319116397558901 13509.74476880360271 
	1010.174808128580935 3059.38770847368005 13509.22397704962168 
	1014.078219252663644 2981.39090431990644 13521.36087363806655 
	1017.834183855532956 2906.340332851466883 13545.84243379347208 
	1021.345831211760014 2836.171636192550068 13582.03724941109613 
	1024.522591823799758 2772.694547199248063 13629.0118138113412 
	1027.282533315401906 2717.546214329949635 13685.55459797014555 
	1029.554473563539432 2672.148977669478882 13750.20729727127036 
	1031.279816568708156 2637.673685112637486 13821.30244289000802 
	1032.41406371437256 2615.00949482618762 13897.00640776687942 
	1032.927961438437251 2604.740942817451923 13975.36669799664196 
	1032.808255716682197 2607.132867070095926 14054.36230993260506 
	1032.058033900293367 2622.12357704774422 14131.95585423709963 
	1030.696645086729859 2649.326444819852441 14206.14610253908177 
	1028.759201094055697 2688.039876444580841 14275.01960145456724 
	1026.295670847902329 2737.265407660256187 14336.80002280020199 
	1023.369591766698932 2795.733452603568367 14389.89397713965627 
	1020.05643052600567 2861.93605853093004 14432.93210930320674 
	1016.441638667229768 2934.165758068901141 14464.80441513829646 
	1012.618441302951737 3010.559754648759736 14484.68887176760109 
	1009.996453998879247 3062.95152783083131 14489.61137808247258 
	1008.684058428292815 3089.175427142846274 14489.95744523041503 
	0 
	
	0 
	0 
	38 0.02564102564102564014 0.05128205128205128027 0.07692307692307692735 0.1025641025641025605 0.1282051282051281937 0.1538461538461538269 0.1794871794871794601 0.2051282051282050933 0.2307692307692307265 0.2564102564102563875 0.2820512820512820484 0.3076923076923077094 0.3333333333333333703 0.3589743589743590313 0.3846153846153846922 0.4102564102564103532 0.4358974358974360142 0.4615384615384616751 0.4871794871794873361 0.512820512820512997 0.538461538461538658 0.5641025641025643189 0.5897435897435899799 0.6153846153846156408 0.6410256410256413018 0.6666666666666669627 0.6923076923076926237 0.7179487179487182846 0.7435897435897439456 0.7692307692307696065 0.7948717948717952675 0.8205128205128209284 0.8461538461538465894 0.8717948717948722503 0.8974358974358979113 0.9230769230769235723 0.9487179487179492332 0.9743589743589748942 
	0 
	0 
	0 
	F 1 F 0 F 1 F 0 } I I I I #
tcoedge-coedge $-1 -1 $-1 $8 $9 $-1 $10 forward $5 $11 3.907042797884036887e-29 6.250766387756697462 #
coedge $-1 -1 $-1 $12 $7 $-1 $13 forward $5 $14 #
coedge $-1 -1 $-1 $7 $12 $-1 $15 forward $5 $16 #
tedge-edge $-1 -1 $-1 $17 3.907042797884036887e-29 $18 6.250766387756697462 $7 $19 forward @7 unknown 0.0008503927471312797484 #
pcurve $-1 -1 $-1 0 forward { exppc nubs 1 open 2 
	0 1 6.250766387756697462 1 
	0 0 
	0.9999999999999990008 0 
	6.790953622967135736e-08 
	spline forward { ref 0 } I I I I 
	} 0 0 #
tcoedge-coedge $-1 -1 $-1 $9 $8 $-1 $20 forward $5 $21 0 6.270005910518958281 #
edge $-1 -1 $-1 $18 -1.597735222546488254 $22 -1.482133598344757441 $8 $23 forward @7 unknown #
pcurve $-1 -1 $-1 0 forward { exppc nubs 3 open 2 
	-1.597735222546488254 3 -1.482133598344757441 3 
	1 0 
	0.99999999751210078 0.03330815819590799559 
	1.000000000000000444 0.06667390754959953703 
	1 0.1000417136115216848 
	1.974383131516124284e-06 
	spline forward { ref 0 } I I I I 
	} 0 0 #
edge $-1 -1 $-1 $24 -0.1000208620216214706 $17 -1.530922173892016919e-27 $9 $25 forward @7 unknown #
pcurve $-1 -1 $-1 0 forward { exppc nubs 1 open 2 
	-0.1000208620216214983 1 -1.530922173892016919e-27 1 
	0 0.1000417136115216848 
	1.991921429010385898e-16 0 
	0.0009308921381848148319 
	spline forward { ref 0 } I I I I 
	} 0 0 #
tvertex-vertex $-1 -1 $-1 $10 $26 1.182253865453746962e-11 #
tvertex-vertex $-1 -1 $-1 $10 $27 1.364507730907493985e-11 #
ellipse-curve $-1 -1 $-1 658.3608648475288874 3095.630959805682778 13999.99999999999818 -0.9987483720445048396 0.05001689053161475357 -7.566881957620976016e-13 -3.773791945604898605e-10 -1.229054191753675799e-10 489.9999999999990337 1 F 3.907042797884036887e-29 F 6.250766387756697462 #
tedge-edge $-1 -1 $-1 $22 -1.100808740288568538e-15 $24 6.270005910518958281 $12 $28 forward @7 unknown 0.0008609630509735357934 #
pcurve $-1 -1 $-1 0 forward { exppc nubs 1 open 2 
	0 1 6.270005910518958281 1 
	0.999999999999999889 0.1000417136115216848 
	1.053832870660695545e-15 0.100041713611521671 
	8.792962127439158072e-08 
	spline forward { ref 0 } I I I I 
	} 0 0 #
tvertex-vertex $-1 -1 $-1 $13 $29 1.206209246553237845e-11 #
ellipse-curve $-1 -1 $-1 739.2789023096330538 5710.555237239748749 14489.87869745032549 -0.0006112082844609570886 -3.277468524020092769e-05 0.9999998126751089567 3040.448493074002272 0.2125786162272851887 1.858354622756975827 0.8655747826539323952 F -1.597735222546488254 F -1.482133598344757441 #
tvertex-vertex $-1 -1 $-1 $20 $30 1.45531543024710075e-11 #
ellipse-curve $-1 -1 $-1 833.4199940497558146 6591.980219569185465 14490.00000000086402 6.191996276132442485e-15 2.474091786716926567e-13 -1 -175.0591292026043675 -3496.349259763624559 -8.662937034387141466e-10 1 F -0.1000208620216214706 F -1.530922173892016919e-27 #
point $-1 -1 $-1 658.3608648471514471 3095.630959805559996 14489.99999999999818 #
point $-1 -1 $-1 657.5664721769977632 3079.768350641984853 14489.74253089843296 #
ellipse-curve $-1 -1 $-1 1008.360864801361231 3095.625040714051011 14000.00000000000182 0.9987500632136789847 0.04998310945381673892 2.029235142430339566e-11 0.322776786336812227 -6.449645674766317782 489.9574449743724927 1 F -1.100808740288568538e-15 F 6.270005910518958281 #
point $-1 -1 $-1 1008.683641587698048 3089.175395039285377 14489.95744497437408 #
point $-1 -1 $-1 1008.360864791432846 3095.625040713505769 14490 #
End-of-ACIS-data 