700 0 1 0           
4 LibG 20 ASM 224.0.1.65535 NT 24 Wed Jul 17 15:51:49 2019 
1000 9.999999999999999547e-07 1.000000000000000036e-10 
body $-1 -1 $-1 $1 $-1 $2 #
lump $-1 -1 $-1 $-1 $3 $0 #
transform $-1 -1 1 0 0 0 1 0 0 0 1 0 0 0 1 no_rotate no_reflect no_shear #
shell $-1 -1 $-1 $-1 $-1 $4 $-1 $1 #
face $-1 -1 $-1 $-1 $5 $3 $-1 $6 forward double out #
loop $-1 -1 $-1 $-1 $7 $4 #
spline-surface $-1 -1 $-1 forward { exactsur full nubs 3 3 open open none none 40 2 
	-1.191870092543629353e-07 3 0.02564102564102564014 1 0.05128205128205128027 1 0.07692307692307692735 1 0.1025641025641025605 1 
	0.1282051282051281937 1 0.1538461538461538269 1 0.1794871794871794601 1 0.2051282051282050933 1 0.2307692307692307265 1 
	0.2564102564102563875 1 0.2820512820512820484 1 0.3076923076923077094 1 0.3333333333333333703 1 0.3589743589743590313 1 
	0.3846153846153846922 1 0.4102564102564103532 1 0.4358974358974360142 1 0.4615384615384616751 1 0.4871794871794873361 1 
	0.512820512820512997 1 0.538461538461538658 1 0.5641025641025643189 1 0.5897435897435899799 1 0.6153846153846156408 1 
	0.6410256410256413018 1 0.6666666666666669627 1 0.6923076923076926237 1 0.7179487179487182846 1 0.7435897435897439456 1 
	0.7692307692307696065 1 0.7948717948717952675 1 0.8205128205128209284 1 0.8461538461538465894 1 0.8717948717948722503 1 
	0.8974358974358979113 1 0.9230769230769235723 1 0.9487179487179492332 1 0.9743589743589748942 1 1.000000000000000444 3 
	-1.191870092543629353e-07 3 0.100041832798530933 3 
	1358.360429844363352 3095.618777888169461 14489.99999999985266 
	1359.669802376334928 3121.764556857327534 14490.00001954493564 
	1362.288524830296637 3174.055663315566562 14485.7952649458839 
	1366.115928033917498 3250.481917681103369 14467.03547138564318 
	1369.744521856591064 3322.93831167128792 14436.30396646830741 
	1373.081303308199494 3389.567745367118732 14394.38847628092299 
	1376.040737881299947 3448.662250813524224 14342.36344034468675 
	1378.546965319896572 3498.707037194738405 14281.56244093312489 
	1380.53574222722068 3538.419281165215125 14213.5440187290078 
	1381.956089370571135 3566.781020519592403 14140.05172201621463 
	1382.771598315729307 3583.065245296597823 14062.96941348461223 
	1382.961364739100418 3586.854534318719288 13984.27298028953373 
	1382.520524268040162 3578.051754944921868 13905.97968520481299 
	1381.460377174288851 3556.882552971336736 13830.09645717505191 
	1379.808098708079115 3523.889568531724763 13758.56844675980756 
	1377.606042502311766 3479.918526350993943 13693.22916517225894 
	1374.910654901873613 3426.096556883558605 13635.75348502185807 
	1371.791028047869986 3363.803304047291476 13587.61470751510569 
	1368.327128806211931 3294.635560160474142 13550.04679663116076 
	1364.607748939223939 3220.36633461151132 13524.01274834133437 
	1360.728229064546895 3142.899405473376646 13510.17990567942979 
	1356.788014744151042 3064.220519062741005 13508.90285242308346 
	1352.888107349334405 2986.34648836843553 13520.21432388062021 
	1349.128475044978813 2911.273495133294091 13543.82436777148723 
	1345.60549025843784 2840.925920786421102 13579.12777670972719 
	1342.409459319670532 2777.107017866771457 13625.21960177024084 
	1339.622307596521068 2721.45268640065251 13680.91834947122334 
	1337.315479463127758 2675.389540105135893 13744.79626755357276 
	1335.548106932602195 2640.098337325974171 13815.21594322770761 
	1334.365493898272462 2616.483714102526847 13890.37227574751523 
	1333.797954837572433 2605.150995204639003 13968.33874740880492 
	1333.86003774694359 2606.390677561286793 14047.11680688599517 
	1334.550151225462514 2620.170983801406237 14124.68709903997296 
	1335.850605270665483 2646.138676872088581 14199.06122800217418 
	1337.72806472465868 2683.628114529462437 14268.33272665680852 
	1340.134403807498757 2731.678312810349325 14330.72592603556404 
	1343.007939607798562 2789.057576587474159 14384.64147178655003 
	1346.275013753131134 2854.295082640209785 14428.69732151768221 
	1349.851878576956551 2925.718542963904383 14461.76417007467717 
	1353.646851150295788 3001.497216850696077 14482.99440227810737 
	1356.257374538912018 3053.624602942827551 14488.89400249714163 
	1357.566052980939048 3079.756522202972974 14489.74253064238655 
	1474.929967414894918 3089.781011078933716 14489.99999999985448 
	1475.36879175474337 3115.997279274021366 14490.00001958519169 
	1476.246432788143011 3168.429361593794965 14485.78660507653876 
	1477.528945123490757 3245.057524972182364 14466.9885083470981 
	1478.744424693213659 3317.697065985111749 14436.19536112076821 
	1479.861526829145987 3384.482372370301164 14394.19809470094515 
	1480.851440158007335 3443.697970937752871 14342.07546106519294 
	1481.688634131102845 3493.822856953268456 14281.16629442126214 
	1482.351516814803972 3533.569523695510725 14213.03512130865056 
	1482.822991941519149 3561.917044082814755 14139.43197348117428 
	1483.090899788570596 3578.137291468241074 14062.24743584325915 
	1483.148330799942869 3581.813643009921179 13983.46408410756158 
	1482.99380378584101 3572.851680664837659 13905.10555957673023 
	1482.63130412460805 3551.481616157562257 13829.18458914549592 
	1482.070180976320216 3518.25237731799416 13757.65128571157584 
	1481.324906160398086 3474.017507786059014 13692.34305698013486 
	1480.414700915652702 3419.913242257007369 13634.93740932995934 
	1479.363040168974749 3357.329320453864511 13586.90885904402239 
	1478.19704709801772 3287.873289521990046 13549.49105770053393 
	1476.946793602520074 3213.329211801925339 13523.6451045844442 
	1475.644524725745214 3135.61183864126906 13510.03486005415652 
	1474.323827028830692 3056.717427366585525 13509.00989396526165 
	1473.018762366264355 2978.672464759814375 13520.59650713310293 
	1471.762989403253641 2903.481614155952229 13544.49705644548339 
	1470.588895531639992 2833.076223218520227 13580.09760094351986 
	1469.526761573012891 2769.26471504456913 13626.48367245060763 
	1468.603980812010832 2713.686136871618601 13682.46376563753438 
	1467.844352501510912 2667.768059548070141 13746.59994412614105 
	1467.267468060843839 2632.689909169169368 13817.24477644847502 
	1466.888205797437195 2609.352672744857955 13892.58365308730026 
	1466.716347183413291 2598.355756034040496 13970.68139760475242 
	1466.756324583765036 2599.981587971097724 14049.53197456819544 
	1467.007106942026439 2614.188367095728609 14127.11001743901579 
	1467.462226373144404 2640.61113636657592 14201.42285284781065 
	1468.109944972207131 2678.571158398357966 14270.56168492272991 
	1468.933557557403674 2727.09335149296794 14332.75062495710881 
	1469.911822462704777 2784.93133403475349 14386.39230690425757 
	1471.019509555295599 2850.599450837443783 14430.10891744619039 
	1472.228050278347155 2922.410895643854474 14462.77758509588239 
	1473.506276930991135 2998.521186130852584 14483.55922544127679 
	1474.382903827783366 3050.823725633487356 14489.13312769225195 
	1474.821687568786729 3077.029931024743291 14489.81416883839847 
	1591.791564584174694 3089.779034375696938 14489.99999999985448 
	1591.354968125217511 3116.022276913438418 14490.00001962544411 
	1590.481782746430781 3168.50830607271655 14485.77794520719544 
	1589.205575726535699 3245.21116016891483 14466.94154530855303 
	1587.995659997429584 3317.913196641265586 14436.08675577322538 
	1586.883046599064755 3384.743364125267817 14394.00771312096185 
	1585.896256254592572 3443.981512265412221 14341.78748178569367 
	1585.060583871849985 3494.102932830665395 14280.7701479094012 
	1584.397450794589076 3533.817564612810656 14212.5262238882915 
	1583.923855521141604 3562.103208761993756 14138.81222494613212 
	1583.65193801800865 3578.231836146357637 14061.52545820190062 
	1583.588668515934842 3581.788326619046984 13982.65518792558396 
	1583.735668841000233 3572.681153306967644 13904.2314339486511 
	1584.089170840444694 3551.144738144620987 13828.27272111592356 
	1584.64011297435718 3517.733417704723706 13756.73412466334776 
	1585.37437259581634 3473.307174737535661 13691.45694878801805 
	1586.273127965610456 3419.009502664498541 13634.12133363805879 
	1587.313340721748546 3356.237972793561312 13586.20301057293727 
	1588.468346436321326 3286.608261841689455 13548.93531876990528 
	1589.708538121578613 3211.912565678328065 13523.27746082755039 
	1591.002125164478002 3134.07346969631817 13509.88981442887962 
	1592.315948235505857 3055.094463158397048 13509.11693550743985 
	1593.616329282622246 2977.008371246929528 13520.97869038558565 
	1594.869934821957941 2901.825032139007362 13545.16974511947592 
	1596.044630395976355 2831.479565858795468 13581.06742517731072 
	1597.110304296209051 2767.782566424269589 13627.74774313097623 
	1598.039639435606659 2712.373499298097613 13684.00918180383633 
	1598.808813584576001 2666.678503647261095 13748.40362069870571 
	1599.398110021123784 2631.873685536059838 13819.27360966924061 
	1599.792422941952509 2608.854846842218194 13894.79503042708893 
	1599.981644678958446 2598.214429030050269 13973.02404780069628 
	1599.960924795325354 2600.22626521510665 14051.94714225039934 
	1599.730794419982203 2614.838532943302653 14129.53293583805498 
	1599.297152631870858 2641.675089136767383 14203.78447769344893 
	1598.671115248414253 2680.045152492330544 14272.79064318864766 
	1597.868729874181781 2728.961085309121245 14334.7753238786554 
	1596.910564589217074 2787.163812471509118 14388.14314202195601 
	1595.821180539947591 2853.15524030219558 14431.52051337469493 
	1594.628502999002876 2925.236777360445558 14463.79100011709124 
	1593.36310310882368 3001.553202523738946 14484.12404860443712 
	1592.492649904326299 3053.9443123409701 14489.37225288736408 
	1592.056284692109102 3080.181331256995691 14489.88580703440493 
	1708.361299615914277 3095.61285765918592 14489.9999999998563 
	1707.048783957498017 3121.839156530622859 14490.00001966569835 
	1704.423775511079384 3174.291297283607491 14485.76928533783939 
	1700.587805776129244 3250.940507588730725 14466.8945822700116 
	1696.952332651912457 3323.583454042996891 14435.978150425688 
	1693.611108701121339 3390.346800726162201 14393.81733154097856 
	1690.650309235421673 3449.508618101743195 14341.49950250619986 
	1688.146296409735896 3499.543060223094926 14280.37400139753663 
	1686.163651735642361 3539.159678467010053 14212.01732646793789 
	1684.753509917287374 3567.336714331052008 14138.19247641108632 
	1683.952240169838433 3583.347448937234731 14060.8034805605439 
	1683.780508176678268 3586.778946725098649 13981.84629174360998 
	1684.2427431074791 3577.542705339139502 13903.35730832057379 
	1685.327023381970776 3555.87693826292616 13827.36085308635847 
	1687.00538414218704 3522.340430999734508 13755.81696361511786 
	1689.234538498722486 3477.798129344010704 13690.57084059589943 
	1691.956993950337619 3423.398831415402128 13633.30525794615642 
	1695.102535182874135 3360.545558810270904 13585.49716210185215 
	1698.590035004449646 3290.859371031681803 13548.37957983927845 
	1702.329546710728664 3216.137556466540445 13522.90981707065839 
	1706.224623915744814 3138.307278213429981 13509.74476880360089 
	1710.174808017160331 3059.375870289551131 13509.22397704962896 
	1714.078219141243153 2981.379066135777066 13521.36087363806837 
	1717.834183744112579 2906.328494667337509 13545.84243379347208 
	1721.34583110033941 2836.159798008420694 13582.03724941109613 
	1724.522591712379608 2772.682709015119599 13629.0118138113412 
	1727.282533203981302 2717.534376145819806 13685.55459797014555 
	1729.55447345211951 2672.137139485349962 13750.20729727127036 
	1731.279816457287552 2637.661846928509021 13821.30244289000984 
	1732.414063602952638 2614.997656642058246 13897.00640776687942 
	1732.927961327017556 2604.729104633323459 13975.36669799664196 
	1732.80825560526182 2607.121028885967007 14054.36230993260506 
	1732.05803378887299 2622.111738863614391 14131.95585423710145 
	1730.696644975309255 2649.314606635723521 14206.14610253908359 
	1728.759200982635775 2688.028038260450558 14275.01960145456724 
	1726.29567073648218 2737.253569476127723 14336.80002280020199 
	1723.369591655278782 2795.721614419438538 14389.89397713965809 
	1720.056430414585066 2861.924220346800666 14432.93210930320492 
	1716.441638555809504 2934.153919884772677 14464.80441513829646 
	1712.618441191531474 3010.547916464631271 14484.6888717676029 
	1709.996453887458983 3062.939689646702391 14489.61137808247258 
	1708.684058316872552 3089.163588958716446 14489.95744523041503 
	0 
	
	0 
	0 
	38 0.02564102564102564014 0.05128205128205128027 0.07692307692307692735 0.1025641025641025605 0.1282051282051281937 0.1538461538461538269 0.1794871794871794601 0.2051282051282050933 0.2307692307692307265 0.2564102564102563875 0.2820512820512820484 0.3076923076923077094 0.3333333333333333703 0.3589743589743590313 0.3846153846153846922 0.4102564102564103532 0.4358974358974360142 0.4615384615384616751 0.4871794871794873361 0.512820512820512997 0.538461538461538658 0.5641025641025643189 0.5897435897435899799 0.6153846153846156408 0.6410256410256413018 0.6666666666666669627 0.6923076923076926237 0.7179487179487182846 0.7435897435897439456 0.7692307692307696065 0.7948717948717952675 0.8205128205128209284 0.8461538461538465894 0.8717948717948722503 0.8974358974358979113 0.9230769230769235723 0.9487179487179492332 0.9743589743589748942 
	0 
	0 
	0 
	F 1 F 0 F 1 F 0 } I I I I #
tcoedge-coedge $-1 -1 $-1 $8 $9 $-1 $10 forward $5 $11 0 6.250766387756693909 #
coedge $-1 -1 $-1 $12 $7 $-1 $13 forward $5 $14 #
coedge $-1 -1 $-1 $7 $12 $-1 $15 forward $5 $16 #
tedge-edge $-1 -1 $-1 $17 -3.907042797884036887e-29 $18 6.250766387756693909 $7 $19 forward @7 unknown 0.0008503927515797710199 #
pcurve $-1 -1 $-1 0 forward { exppc nubs 1 open 2 
	0 1 6.250766387756694797 1 
	0 0 
	0.9999999999999985567 2.762226041732613509e-17 
	6.734662877757892036e-08 
	spline forward { ref 0 } I I I I 
	} 0 0 #
tcoedge-coedge $-1 -1 $-1 $9 $8 $-1 $20 forward $5 $21 0 6.270005910518958281 #
edge $-1 -1 $-1 $18 -1.597735222542941536 $22 -1.48213359833558167 $8 $23 forward @7 unknown #
pcurve $-1 -1 $-1 0 forward { exppc nubs 3 open 2 
	-1.597735222542941536 3 -1.48213359833558167 3 
	0.999999999999999889 1.000053185462983913e-16 
	0.9999999975121014462 0.03330815819591264465 
	1.000000000000000444 0.06667390754961133315 
	1 0.1000417136115216155 
	1.954943503883627374e-06 
	spline forward { ref 0 } I I I I 
	} 0 0 #
edge $-1 -1 $-1 $24 -0.1000208620216029298 $17 -8.079684314184807497e-17 $9 $25 forward @7 unknown #
pcurve $-1 -1 $-1 0 forward { exppc nubs 1 open 2 
	-0.1000208620216029021 1 -1.530922173891801679e-27 1 
	3.520205039654592686e-16 0.1000417136115216848 
	0 0 
	0.0009308921387370771693 
	spline forward { ref 0 } I I I I 
	} 0 0 #
tvertex-vertex $-1 -1 $-1 $10 $26 1.91431362593007645e-11 #
tvertex-vertex $-1 -1 $-1 $10 $27 1.37568296742980006e-11 #
ellipse-curve $-1 -1 $-1 1358.360864736415806 3095.619121621536578 13999.99999999999818 -0.9987483720445043955 0.05001689053162153981 -1.386547193130418678e-12 -6.854548928458825478e-10 -1.061209786712424881e-10 489.9999999999990337 1 F -3.907042797884036887e-29 F 6.250766387756693909 #
tedge-edge $-1 -1 $-1 $22 -2.684899366557484229e-18 $24 6.270005910518958281 $12 $28 forward @7 unknown 0.0008609630506559776391 #
pcurve $-1 -1 $-1 0 forward { exppc nubs 1 open 2 
	0 1 6.270005910518958281 1 
	0.999999999999999889 0.1000417136115216571 
	1.04908927439783465e-15 0.1000417136115216848 
	9.0776620027594392e-08 
	spline forward { ref 0 } I I I I 
	} 0 0 #
tvertex-vertex $-1 -1 $-1 $13 $29 1.187497136067470826e-11 #
ellipse-curve $-1 -1 $-1 1439.278902194511375 5710.54339879867166 14489.87869745031458 -0.0006112082844609575223 -3.277468524020899822e-05 0.9999998126751089567 3040.448492926364452 0.2125786034608744546 1.858354622666321676 0.8655747826114532639 F -1.597735222542941536 F -1.48213359833558167 #
tvertex-vertex $-1 -1 $-1 $20 $30 1.730786208804974726e-11 #
ellipse-curve $-1 -1 $-1 1533.419993938301332 6591.968381385709108 14490.00000000086402 6.191996276132055154e-15 2.474091786717379941e-13 -1 -175.0591292025710572 -3496.349259764278486 -8.662937034387141466e-10 1 F -0.1000208620216029298 F -8.079684314184807497e-17 #
point $-1 -1 $-1 1358.360864735730502 3095.619121621430622 14489.99999999999818 #
point $-1 -1 $-1 1357.566472065576818 3079.75651245785366 14489.74253089843296 #
ellipse-curve $-1 -1 $-1 1708.360864691495181 3095.613202529998944 14000.00000000000182 0.9987500632136832035 0.04998310945373310443 2.346881513337602863e-11 0.3227767847818149849 -6.44964567484374296 489.9574449743724927 1 F -2.684899366557484229e-18 F 6.270005910518958281 #
point $-1 -1 $-1 1708.683641476276989 3089.163556855155093 14489.95744497437408 #
point $-1 -1 $-1 1708.360864680012128 3095.613202529376395 14490 #
End-of-ACIS-data 