700 0 1 0           
4 LibG 20 ASM 224.0.1.65535 NT 24 Wed Jul 17 15:51:49 2019 
1000 9.999999999999999547e-07 1.000000000000000036e-10 
body $-1 -1 $-1 $1 $-1 $2 #
lump $-1 -1 $-1 $-1 $3 $0 #
transform $-1 -1 1 0 0 0 1 0 0 0 1 0 0 0 1 no_rotate no_reflect no_shear #
shell $-1 -1 $-1 $-1 $-1 $4 $-1 $1 #
face $-1 -1 $-1 $-1 $5 $3 $-1 $6 forward double out #
loop $-1 -1 $-1 $-1 $7 $4 #
spline-surface $-1 -1 $-1 forward { exactsur full nubs 3 3 open open none none 40 2 
	-1.191870087953134957e-07 3 0.02564102564102564014 1 0.05128205128205128027 1 0.07692307692307692735 1 0.1025641025641025605 1 
	0.1282051282051281937 1 0.1538461538461538269 1 0.1794871794871794601 1 0.2051282051282050933 1 0.2307692307692307265 1 
	0.2564102564102563875 1 0.2820512820512820484 1 0.3076923076923077094 1 0.3333333333333333703 1 0.3589743589743590313 1 
	0.3846153846153846922 1 0.4102564102564103532 1 0.4358974358974360142 1 0.4615384615384616751 1 0.4871794871794873361 1 
	0.512820512820512997 1 0.538461538461538658 1 0.5641025641025643189 1 0.5897435897435899799 1 0.6153846153846156408 1 
	0.6410256410256413018 1 0.6666666666666669627 1 0.6923076923076926237 1 0.7179487179487182846 1 0.7435897435897439456 1 
	0.7692307692307696065 1 0.7948717948717952675 1 0.8205128205128209284 1 0.8461538461538465894 1 0.8717948717948722503 1 
	0.8974358974358979113 1 0.9230769230769235723 1 0.9487179487179492332 1 0.9743589743589748942 1 1.000000000000000444 3 
	-1.191870091410882002e-07 3 0.100041832798530822 3 
	8407.571943908134926 1747.517425508500764 13510.00000000014552 
	8389.721319782873252 1728.36875890557053 13509.9999804550589 
	8354.020379773352033 1690.071756355050866 13514.204735054107 
	8301.841542738506178 1634.098634793718475 13532.96452861434955 
	8252.373066158927031 1581.032962762859825 13563.69603353168532 
	8206.88285613357948 1532.234844592867375 13605.61152371906792 
	8166.537001231479735 1488.955163226589548 13657.63655965530961 
	8132.369701332941077 1452.303322378429357 13718.43755906686783 
	8105.256784134195186 1423.218837240621497 13786.45598127098492 
	8085.89324750554988 1402.447243790802759 13859.9482779837781 
	8074.775446195882978 1390.520990168378376 13937.03058651538413 
	8072.188368024846568 1387.745787630625045 14015.72701971045899 
	8078.198328793068868 1394.192774259206317 14094.02031479517973 
	8092.65127234116062 1409.696691404701596 14169.90354282494081 
	8115.176719553764087 1433.860119850077126 14241.43155324019062 
	8145.19726502269441 1466.063667041972849 14306.7708348277356 
	8181.94337795273259 1505.48184427283104 14364.24651497813829 
	8224.473127907082016 1551.104226821875727 14412.38529248488339 
	8271.696329754402541 1601.761354648433553 14449.95320336883924 
	8322.402488898207594 1656.154709712458953 14475.98725165866199 
	8375.291830455566014 1712.890001499664095 14489.82009432056475 
	8429.008616999471997 1770.512907527606785 14491.09714757691108 
	8482.175900815453133 1827.546352679523125 14479.78567611937615 
	8533.430819851506385 1882.528371767175713 14456.17563222850367 
	8581.459532603619664 1934.049584773760898 14420.87222329026554 
	8625.030896434434908 1980.789324156349267 14374.7803982297537 
	8663.028026032914568 2021.549488139635741 14319.08165052876939 
	8694.476923062075002 2055.285252223596672 14255.20373244642178 
	8718.571443117582021 2081.131851662524696 14184.78405677228875 
	8734.693960007160058 2098.426748387269981 14109.62772425247749 
	8742.431197654661446 2106.726614156668802 14031.66125259118598 
	8741.584823797938952 2105.818694596536261 13952.88319311399755 
	8732.176533943062168 2095.726262843416407 13875.3129009600234 
	8714.447495196436648 2076.708022933859411 13800.93877199781855 
	8688.852164451898716 2049.251478469100675 13731.66727334318421 
	8656.046638570716823 2014.060435656003165 13669.2740739644305 
	8616.871838252931411 1972.036964361236642 13615.3585282134427 
	8572.331945186806479 1924.258267276551123 13571.30267848231051 
	8523.568688009894686 1871.949096034059494 13538.23582992531374 
	8471.831976479532386 1816.450249983916137 13517.00559772188353 
	8436.242814004755928 1778.273153086632647 13511.10599750285292 
	8418.401652380358428 1759.13463706852167 13510.25746935760617 
	8492.945235745519312 1667.931386207785181 13510.00000000014552 
	8474.437740494528043 1649.358343796465306 13509.99998041481012 
	8437.42307051375974 1612.212580695061206 13514.21339492346124 
	8383.326969668845777 1557.92508550499042 13533.0114916529019 
	8332.046468013131744 1506.463542008007153 13563.80463887922997 
	8284.898521713537775 1459.149736138299659 13605.80190529905485 
	8243.09410961685353 1417.199072599438978 13657.92453893480706 
	8207.706942559354502 1381.689165538705083 13718.83370557873786 
	8179.645913397835102 1353.53218464644192 13786.9648786913458 
	8159.631745187966771 1333.451415941759478 13860.56802651882572 
	8148.178481871450458 1321.962684103066749 13937.75256415674085 
	8145.580284930679227 1319.361101577746695 14016.53591589243842 
	8151.903878331941087 1325.713488071678057 14094.89444042326795 
	8166.986834943946633 1340.856654282539466 14170.81541085450408 
	8190.44174866857702 1364.401594189340813 14242.34871428842416 
	8221.666185055462847 1395.743478136861313 14307.6569430198615 
	8259.858154831001229 1434.077190019356294 14365.06259067004066 
	8304.036712896404424 1478.418009428217829 14413.09114095597943 
	8353.067153708887417 1527.626907468969421 14450.50894229946789 
	8405.690155901822436 1580.43980643447685 14476.3548954155558 
	8460.55412756579608 1635.500051697953495 14489.96513994584166 
	8516.249921405040368 1691.393261673780444 14490.99010603473471 
	8571.347028115431385 1746.683660607137426 14479.40349286689707 
	8624.430318364160485 1799.95096086382523 14455.50294355451661 
	8674.136389662295187 1849.826847277767683 14419.90239905648014 
	8719.18858457162969 1895.030126338382161 14373.51632754939055 
	8758.429780816057246 1934.399637300110953 14317.53623436246198 
	8790.85211109786178 1966.924079791250051 14253.40005587385713 
	8815.622849281617164 1991.767991711365539 14182.75522355152498 
	8832.105798076081555 2008.293210101079012 14107.41634691269792 
	8839.877628890963024 2016.075263706181431 14029.31860239524576 
	8838.738754193878776 2014.91427615050884 13950.46802543180456 
	8828.718453146651882 2004.840099667527738 13872.88998256098421 
	8810.074118826500126 1986.111547470535925 13798.57714715218754 
	8783.284646615142265 1959.209744730314014 13729.43831507727009 
	8749.038132735040563 1924.825768121126885 13667.24937504288937 
	8708.214202110750193 1883.842894684632029 13613.60769309574425 
	8661.861407537613559 1837.313904040435546 13569.89108255380961 
	8611.170325232238611 1786.434061759105816 13537.22241490411579 
	8557.442871509090764 1732.510310982497685 13516.44077455872321 
	8520.520456733616811 1695.455494827391021 13510.86687230774623 
	8502.020154397683655 1676.889489719691483 13510.18583116160153 
	8574.334096828946713 1584.071466172021019 13510.00000000014552 
	8555.197563766332678 1566.107850230170243 13509.99998037455589 
	8516.924830062669571 1530.180930455956741 13514.22205479280819 
	8460.993128043039178 1477.677585419211482 13533.05845469144333 
	8407.97862928491304 1427.913010421299077 13563.9132442267728 
	8359.245620317891735 1382.168032210196088 13605.99228687903815 
	8316.048364917203799 1341.620170662318742 13658.21251821430633 
	8279.498628627274229 1307.31314623660478 13719.2298520905988 
	8250.53709373197853 1280.130040829418022 13787.4737761117085 
	8229.909140984687838 1260.77055935720864 13861.18777505386788 
	8218.145667697781391 1249.733020833591809 13938.47454179809756 
	8215.549423482008933 1247.301530861518131 14017.34481207441422 
	8222.187218638839113 1253.538668850036402 14095.76856605134526 
	8237.88820484682401 1268.283877353312391 14171.7272788840728 
	8262.248272625205573 1291.157595210390355 14243.26587533665042 
	8294.64045232385979 1321.571028027840839 14308.54305121198195 
	8334.231050953254453 1358.741304512308943 14365.87866636194121 
	8380.001109519511374 1401.711628501746191 14413.79698942706273 
	8430.77262859889197 1449.375907955169851 14451.06468123009472 
	8485.238887161893217 1500.507226918150309 14476.72253917244961 
	8541.998074308134164 1553.789427559937394 14490.11018557111856 
	8599.589368307868426 1607.850989322573923 14490.88306449256015 
	8656.530534359637386 1661.300333093460722 14479.02130961441253 
	8711.356073387321885 1712.761641632877627 14454.83025488052408 
	8762.654940019274363 1760.910274200677122 14418.93257482268928 
	8809.106858982699123 1804.506863774167186 14372.25225686902377 
	8849.51630522207779 1842.429219162783738 14315.99081819616367 
	8882.843273182981648 1873.701210831599838 14251.59637930129429 
	8908.23004334408688 1897.517896890560905 14180.72639033075939 
	8925.023257103448486 1913.266242490178684 14105.20496957290743 
	8932.790731880175372 1920.540899298315253 14026.9759521993019 
	8931.332583663070182 1919.154638887698866 13948.05285774959702 
	8920.686370773519229 1909.14317149972635 13870.46706416194138 
	8901.126126409568315 1890.764226101585564 13796.21552230655107 
	8873.155305129394037 1864.490915658704353 13727.20935681135416 
	8837.493823944181713 1830.999557589753522 13665.22467612134278 
	8795.059534893171076 1791.152266055855534 13611.85685797804035 
	8746.944593571837686 1745.974752552072232 13568.47948662530143 
	8694.387378119856294 1696.629949701820578 13536.20899988291058 
	8638.740508730023066 1644.387975067458001 13515.87595139556106 
	8600.537793098863403 1608.525200564257148 13510.62774711263773 
	8581.405887232705936 1590.565753074793292 13510.11419296559325 
	8651.331851855808054 1496.356687825970994 13510.00000000014188 
	8631.597449968758156 1479.033442402318997 13509.99998033430165 
	8592.128990064080426 1444.387253410345238 13514.23071466215151 
	8534.453054626106677 1393.758184926311742 13533.10541772998477 
	8479.791697085147462 1345.775372105744964 13564.021849574312 
	8429.554539290658795 1301.676208683323466 13606.18266845902144 
	8385.037274914880982 1262.598080003005862 13658.5004974937965 
	8347.388051368046945 1229.548852403161618 13719.62599860246155 
	8317.577887544945042 1203.380905333745659 13787.98267353206029 
	8296.375622122266577 1184.769140479825637 13861.80752358891368 
	8284.328086449238981 1174.193577135737087 13939.1965194394561 
	8281.746000553239355 1171.926971441912656 14018.15370825639002 
	8288.695959460130325 1178.027781819520669 14096.64269167942257 
	8304.998715589348649 1192.338661223154077 14172.63914691363425 
	8330.233801769983984 1214.490515315118728 14244.18303638488214 
	8363.75037557847827 1243.912021837977591 14309.42915940410057 
	8404.684005327721025 1279.844365685315097 14366.69474205383995 
	8451.978964772290055 1321.360809631745042 14414.50283789814603 
	8504.415461524664352 1367.390595971207404 14451.62042016071791 
	8560.641096929282867 1416.746562612090884 14477.09018292934161 
	8619.20574600755026 1468.155761377763156 14490.25523119639729 
	8678.59895787919595 1520.29228883070391 14490.77602295037104 
	8737.28891205920263 1571.811482874809144 14478.63912636192799 
	8793.761925901950235 1621.384603165487988 14454.15756620652792 
	8846.561494249182942 1667.733100879132735 14417.96275058890024 
	8894.325854403632547 1709.661593984484171 14370.98818618865698 
	8935.823107583670208 1746.088697545046671 14314.44540202985445 
	8969.982991035425584 1776.074913902910112 14249.792702728726 
	8995.924481362568258 1798.846863423580544 14178.69755710999016 
	9012.978517151219421 1813.817230862201768 14102.99359223311876 
	9020.705254848051482 1820.599912912187165 14024.63330200335622 
	9018.905412837690164 1819.019976259044142 13945.63769006739312 
	9007.625411159939176 1809.11816932507395 13868.04414576289855 
	8987.156174241430563 1791.14987128373059 13793.85389746091096 
	8958.025627767672631 1765.578505666553156 13724.98039854542731 
	8920.985082287899786 1733.063587624211777 13663.19997719979619 
	8876.989858176510097 1694.443716137231604 13610.10602286034373 
	8827.174638814263744 1650.714938554591527 13567.06789069679144 
	8772.82423558541268 1603.005087534187396 13535.19558486170172 
	8715.340339834247061 1552.544595257569199 13515.3111282323971 
	8675.917304482656618 1517.938280830116355 13510.3886219175256 
	8656.184708182827308 1500.616620386373597 13510.04255476958497 
	0 
	
	0 
	0 
	38 0.02564102564102564014 0.05128205128205128027 0.07692307692307692735 0.1025641025641025605 0.1282051282051281937 0.1538461538461538269 0.1794871794871794601 0.2051282051282050933 0.2307692307692307265 0.2564102564102563875 0.2820512820512820484 0.3076923076923077094 0.3333333333333333703 0.3589743589743590313 0.3846153846153846922 0.4102564102564103532 0.4358974358974360142 0.4615384615384616751 0.4871794871794873361 0.512820512820512997 0.538461538461538658 0.5641025641025643189 0.5897435897435899799 0.6153846153846156408 0.6410256410256413018 0.6666666666666669627 0.6923076923076926237 0.7179487179487182846 0.7435897435897439456 0.7692307692307696065 0.7948717948717952675 0.8205128205128209284 0.8461538461538465894 0.8717948717948722503 0.8974358974358979113 0.9230769230769235723 0.9487179487179492332 0.9743589743589748942 
	0 
	0 
	0 
	F 1 F 0 F 1 F 0 } I I I I #
tcoedge-coedge $-1 -1 $-1 $8 $9 $-1 $10 forward $5 $11 3.125634238307202157e-28 6.250766387756696574 #
coedge $-1 -1 $-1 $12 $7 $-1 $13 forward $5 $14 #
coedge $-1 -1 $-1 $7 $12 $-1 $15 forward $5 $16 #
tedge-edge $-1 -1 $-1 $17 3.125634238307202157e-28 $18 6.250766387756696574 $7 $19 forward @7 unknown 0.0008503927469586247808 #
pcurve $-1 -1 $-1 0 forward { exppc nubs 1 open 2 
	0 1 6.250766387756696574 1 
	1.7549257766846817e-28 0 
	0.9999999999999991118 0 
	6.408966744922696418e-08 
	spline forward { ref 0 } I I I I 
	} 0 0 #
tcoedge-coedge $-1 -1 $-1 $9 $8 $-1 $20 forward $5 $21 0 6.270005910518961834 #
edge $-1 -1 $-1 $18 1.543857430990023039 $22 1.659459055211600642 $8 $23 forward @7 unknown #
pcurve $-1 -1 $-1 0 forward { exppc nubs 3 open 2 
	1.543857430990023039 3 1.659459055211600642 3 
	0.999999999999999778 0 
	0.9999999975121000029 0.03330815819589214022 
	1.000000000000000444 0.06667390754960907107 
	1.000000000000000444 0.1000417136115215877 
	1.905511073715606729e-06 
	spline forward { ref 0 } I I I I 
	} 0 0 #
edge $-1 -1 $-1 $24 -0.1000208620216266192 $17 -3.231873725614204256e-16 $9 $25 forward @7 unknown #
pcurve $-1 -1 $-1 0 forward { exppc nubs 1 open 2 
	-0.1000208620216265498 1 0 1 
	1.873353837482637625e-15 0.1000417136115216848 
	3.457747093681967512e-16 0 
	0.0009308921391641905921 
	spline forward { ref 0 } I I I I 
	} 0 0 #
tvertex-vertex $-1 -1 $-1 $10 $26 2.060887657084840855e-11 #
tvertex-vertex $-1 -1 $-1 $10 $27 1.19426815345735871e-11 #
ellipse-curve $-1 -1 $-1 8407.572000119740551 1747.516874032785381 14000.00000000000182 -0.7314640493215941452 0.6818800074427000535 5.020783126562543092e-12 -1.703349994386371773e-09 1.780774994131206892e-09 -490.0000000000012506 1 F 3.125634238307202157e-28 F 6.250766387756696574 #
tedge-edge $-1 -1 $-1 $22 -2.752021850721421344e-15 $24 6.270005910518961834 $12 $28 forward @7 unknown 0.000860963048711207231 #
pcurve $-1 -1 $-1 0 forward { exppc nubs 1 open 2 
	0 1 6.270005910518961834 1 
	1 0.1000417136115216848 
	1.056011893652701728e-15 0.1000417136115216848 
	6.790074244365156925e-08 
	spline forward { ref 0 } I I I I 
	} 0 0 #
tvertex-vertex $-1 -1 $-1 $13 $29 1.19426815345735871e-11 #
ellipse-curve $-1 -1 $-1 6587.425488209458308 -131.6966252715558596 13510.12130255421471 -0.0004021522282551908117 0.0004614361626829826092 -0.9999998126751090677 -2117.346553197567118 2182.010690788066768 1.858354622563416214 0.8655747825057091838 F 1.543857430990023039 F 1.659459055211600642 #
tvertex-vertex $-1 -1 $-1 $20 $30 1.577009702303690444e-11 #
ellipse-curve $-1 -1 $-1 6020.468156248864034 -813.1156813217560284 13510 0 0 1 2387.103843869172124 2560.632555356321973 0 1 F -0.1000208620216266192 F -3.231873725614204256e-16 #
point $-1 -1 $-1 8407.572000118036158 1747.516874034566172 13510 #
point $-1 -1 $-1 8418.401951242140058 1759.134343115233378 13510.25746910156522 #
ellipse-curve $-1 -1 $-1 8651.331301464028002 1496.356759759511078 13999.99999999999818 0.6597040166702378139 -0.7515255221142890241 2.004578903978157234e-12 4.853139450983372072 4.260182115020080929 -489.9574449743724927 1 F -2.752021850721421344e-15 F 6.270005910518961834 #
point $-1 -1 $-1 8656.184440915010782 1500.616941874530994 13510.04255502562773 #
point $-1 -1 $-1 8651.331301464713761 1496.356759758805993 13510 #
End-of-ACIS-data 