700 0 1 0           
4 LibG 20 ASM 224.0.1.65535 NT 24 Wed Jul 17 15:51:49 2019 
1000 9.999999999999999547e-07 1.000000000000000036e-10 
body $-1 -1 $-1 $1 $-1 $2 #
lump $-1 -1 $-1 $-1 $3 $0 #
transform $-1 -1 1 0 0 0 1 0 0 0 1 0 0 0 1 no_rotate no_reflect no_shear #
shell $-1 -1 $-1 $-1 $-1 $4 $-1 $1 #
face $-1 -1 $-1 $-1 $5 $3 $-1 $6 forward double out #
loop $-1 -1 $-1 $-1 $7 $4 #
spline-surface $-1 -1 $-1 forward { exactsur full nubs 3 3 open open none none 40 2 
	-1.191870089072254607e-07 3 0.02564102564102564014 1 0.05128205128205128027 1 0.07692307692307692735 1 0.1025641025641025605 1 
	0.1282051282051281937 1 0.1538461538461538269 1 0.1794871794871794601 1 0.2051282051282050933 1 0.2307692307692307265 1 
	0.2564102564102563875 1 0.2820512820512820484 1 0.3076923076923077094 1 0.3333333333333333703 1 0.3589743589743590313 1 
	0.3846153846153846922 1 0.4102564102564103532 1 0.4358974358974360142 1 0.4615384615384616751 1 0.4871794871794873361 1 
	0.512820512820512997 1 0.538461538461538658 1 0.5641025641025643189 1 0.5897435897435899799 1 0.6153846153846156408 1 
	0.6410256410256413018 1 0.6666666666666669627 1 0.6923076923076926237 1 0.7179487179487182846 1 0.7435897435897439456 1 
	0.7692307692307696065 1 0.7948717948717952675 1 0.8205128205128209284 1 0.8461538461538465894 1 0.8717948717948722503 1 
	0.8974358974358979113 1 0.9230769230769235723 1 0.9487179487179492332 1 0.9743589743589748942 1 1.000000000000000444 3 
	-1.191870088490914719e-07 3 0.1000418327985307526 3 
	5899.607550285022626 2920.761631642903922 13510.00000000013461 
	5895.693423156501922 2894.877354114774334 13509.99998045506618 
	5887.865236487823495 2843.109246023032483 13514.20473505411064 
	5876.423922159560789 2767.447381797582239 13532.964528614355 
	5865.576911722947443 2695.715672715900837 13563.69603353169077 
	5855.602220424036204 2629.752644597308972 13605.61152371907156 
	5846.75553786058299 2571.249182865808507 13657.63655965530961 
	5839.263634244063724 2521.704927900007533 13718.43755906687147 
	5833.318553332813281 2482.38987267028142 13786.45598127098856 
	5829.072688118775659 2454.311798060410638 13859.94827798378356 
	5826.634874885447971 2438.19044271828443 13937.03058651538595 
	5826.067603243750455 2434.439052912742227 14015.72701971046445 
	5827.385414336472422 2443.153789796237106 14094.02031479518337 
	5830.554528090231543 2464.1112644073296 14169.90354282494445 
	5835.493709118203697 2496.774263919550322 14241.43155324019244 
	5842.076349064480382 2540.305522267207834 14306.77083482773924 
	5850.13371201593327 2593.58918218222243 14364.24651497814011 
	5859.459259789356111 2655.259398489261002 14412.38529248488703 
	5869.813946222122468 2723.735349459127519 14449.95320336883924 
	5880.932344755148733 2797.261758757410007 14475.98725165866381 
	5892.529452237027726 2873.953889270288528 14489.82009432056475 
	5904.307994544184112 2951.845855459537688 14491.09714757691654 
	5915.966046748611006 3028.941015833355777 14479.78567611937797 
	5927.204772501918342 3103.263153799033716 14456.17563222850913 
	5937.736084248326733 3172.907134954587946 14420.87222329026918 
	5947.290027908786215 3236.087742297047953 14374.78039822975734 
	5955.621702741204899 3291.185437531558819 14319.08165052877848 
	5962.517538996572512 3336.787875460011946 14255.20373244642724 
	5967.800772453071659 3371.726107291426615 14184.78405677229057 
	5971.335975496659557 3395.104544857160363 14109.62772425248113 
	5973.032528601100239 3406.323917645681377 14031.66125259118962 
	5972.84694322042742 3405.096634182296384 13952.88319311400483 
	5970.783976553520006 3391.454154011301398 13875.31290096002522 
	5966.896509592488655 3365.746181225340933 13800.93877199782401 
	5961.284191629391898 3328.631700534529955 13731.66727334318966 
	5954.090885786645231 3281.062084458015306 13669.27407396443232 
	5945.500981724900157 3224.256709115444664 13615.35852821344633 
	5935.734667531724881 3159.671687039641256 13571.30267848231233 
	5925.042291374351407 3088.962580563264964 13538.23582992531738 
	5913.697922420049508 3013.941819930611928 13517.00559772188717 
	5905.894245341512942 2962.335794727981465 13511.10599750285292 
	5901.98219306656938 2936.465238288632463 13510.25746935760799 
	6015.011197939590602 2903.310708494058417 13510.00000000013461 
	6010.22988376066769 2877.530399737172047 13509.99998041481376 
	6000.667338171156189 2825.970228752006278 13514.21339492346488 
	5986.691784326488232 2750.616369160278282 13533.01149165290371 
	5973.443410747383496 2679.184857159886178 13563.80463887923361 
	5961.262352623505649 2613.510304332110536 13605.80190529905667 
	5950.461382601340119 2555.279675890710678 13657.92453893480888 
	5941.317831412702617 2505.988697370518821 13718.83370557873968 
	5934.066474076947998 2466.903473214064888 13786.96487869135126 
	5928.893499728874303 2439.027954612648045 13860.56802651882572 
	5925.931731418210802 2423.078154352679576 13937.75256415674448 
	5925.257215537210868 2419.463754360239363 14016.53591589244024 
	5926.887269274958271 2428.277582840803916 14094.89444042326977 
	5930.780036011350603 2449.293230111005414 14170.81541085450954 
	5936.835560124828589 2481.970864675883149 14242.3487142884278 
	5944.898353598538051 2525.47110005983177 14307.65694301986332 
	5954.76138852477834 2578.676556209267346 14365.0625906700443 
	5966.171412989252531 2640.220561606283809 14413.09114095597943 
	5978.835453837772548 2708.522258818270984 14450.50894229946789 
	5992.428339351976319 2781.827211722805259 14476.3548954155558 
	6006.601048672891011 2858.252471328022239 14489.96513994584529 
	6020.989673582802425 2935.834942582729127 14490.99010603474017 
	6035.224762532655404 3012.581809780393087 14479.40349286689889 
	6048.940806987815449 3086.521725284610056 14455.50294355451842 
	6061.785626510991278 3155.75544669902547 14419.90239905648195 
	6073.429411601736319 3218.504621775205123 14373.51632754939055 
	6083.573192100425331 3273.157467933972384 14317.53623436246744 
	6091.956513714651919 3318.310173046446835 14253.40005587386258 
	6098.364125559902277 3352.802954031794343 14182.7552235515268 
	6102.631507000773126 3375.749847055182272 14107.41634691270156 
	6104.649091883325127 3386.561464129866181 14029.31860239524758 
	6104.365081695193112 3384.960131593154983 13950.46802543180456 
	6101.786775428062356 3370.9870216429631 13872.88998256098603 
	6096.980381983794359 3345.001093687702451 13798.57714715219117 
	6090.069320004812653 3307.669873049213038 13729.43831507727191 
	6081.231048567046855 3259.95230271716855 13667.24937504289301 
	6070.692510944251808 3203.074113123076586 13613.60769309574425 
	6058.72430535570038 3138.49632599702818 13569.89108255381143 
	6045.633743883964598 3067.877763449932445 13537.22241490411943 
	6031.75693485537704 2993.032293629943524 13516.44077455872502 
	6022.219146438919779 2941.599281806176805 13510.86687230774987 
	6017.439792798209965 2915.828843102942756 13510.18583116160335 
	6129.541013522862158 2880.082401639618638 13510.00000000013824 
	6123.896387001237599 2854.449676720209482 13509.99998037455953 
	6112.60723197561947 2803.184672200343812 13514.22205479281183 
	6096.109175091315592 2728.26624556241768 13533.05845469144879 
	6080.471386042931044 2657.255615675215267 13563.91324422677644 
	6066.096192520472869 2591.980329343360609 13605.99228687903997 
	6053.353484852890688 2534.12053888784385 13658.21251821430815 
	6042.571141115794489 2485.165496130786323 13719.22985209060062 
	6034.026598993594234 2446.37525866062515 13787.4737761117085 
	6027.939714774687673 2418.748246554303478 13861.1877750538697 
	6024.467106871357828 2402.995546633913364 13938.4745417981012 
	6023.698125755468936 2399.522609036484482 14017.34481207441604 
	6025.652554986925679 2408.418811665193971 14095.7685660513489 
	6030.280102226200142 2429.455159928540979 14171.72727888407826 
	6037.461693396145165 2462.090181286588177 14243.26587533665588 
	6047.012536671727503 2505.483862786278678 14308.54305121198377 
	6058.686877460020696 2558.519272852805443 14365.87866636194303 
	6072.184322014980353 2619.831310785024016 14413.79698942706455 
	6087.157566970466178 2687.841843946767767 14451.06468123009654 
	6103.221335898267171 2760.800328227761383 14476.72253917244961 
	6119.962292940210318 2836.828866212215871 14490.1101855711222 
	6136.94967842222195 2913.970543269851078 14490.88306449255833 
	6153.746392781142276 2990.239797413435554 14479.02130961441617 
	6169.920243599956848 3063.673526420997405 14454.8302548805259 
	6185.055066350813831 3132.381616746460168 14418.93257482269109 
	6198.761432695326221 3194.595593628298502 14372.25225686902377 
	6210.686670805351241 3248.714140168398444 14315.99081819616549 
	6220.523939870453432 3293.34431374796668 14251.59637930129247 
	6228.020125296312472 3327.3373988992862 14180.72639033076121 
	6232.982351443980406 3349.818473810244086 14105.20496957291471 
	6235.2829443333776 3360.208929451866879 14026.97595219930554 
	6234.862716617979459 3358.241361710646288 13948.05285774960248 
	6231.732490314418101 3343.966453254242879 13870.46706416194684 
	6225.972818092275702 3317.751667933383487 13796.21552230655107 
	6217.731910372006496 3280.271791670761559 13727.20935681135416 
	6207.221821313128203 3232.491562144312866 13665.22467612134642 
	6194.712992817745544 3175.640838846139104 13611.85685797804581 
	6180.527293289609588 3111.182936044098824 13568.47948662530689 
	6165.029743917853011 3040.776995755893495 13536.20899988291239 
	6148.619094471205244 2966.2351379086017 13515.87595139556288 
	6137.351485564169707 2915.062615338568321 13510.62774711264137 
	6131.708322832289014 2889.435943869572384 13510.11419296559689 
	6242.624726498757809 2851.192775836261717 13510.00000000013642 
	6236.125029388383155 2825.750775377947775 13509.99998033430347 
	6223.125748424014091 2774.867217784909371 13514.23071466216243 
	6204.129676840483626 2700.510204876915395 13533.1054177299884 
	6186.126482738536652 2630.039648354901601 13564.02184957431382 
	6169.580437349411113 2565.272861960899263 13606.18266845902326 
	6154.918288667060551 2507.880280866520479 13658.50049749380196 
	6142.518189039215031 2459.342120540386532 13719.62599860246519 
	6132.699951994593903 2420.91023869310402 13787.98267353206211 
	6125.716801246472642 2393.575838102267426 13861.8075235889155 
	6121.748840461579675 2378.04390509161658 13939.19651943945792 
	6120.898407986707753 2374.715026368792678 14018.15370825639548 
	6123.187437473535283 2383.675057623168414 14096.64269167942803 
	6128.556892170506217 2404.69290915398733 14172.63914691363971 
	6136.868287553411392 2437.226505958591133 14244.18303638488396 
	6147.907263002462969 2480.436768477696205 14309.42915940410239 
	6161.389110413967501 2533.209253440832981 14366.69474205384358 
	6176.966117155633583 2594.182896663053725 14414.50283789814966 
	6194.236533982575565 2661.785116484164064 14451.62042016072337 
	6212.754936620784065 2734.27237249125983 14477.09018292934343 
	6232.043713780743019 2809.775133467682735 14490.25523119639911 
	6251.605385311894679 2886.346094792380427 14490.77602295038014 
	6270.935432798276452 2962.010401706405901 14478.63912636193345 
	6289.535311679272127 3034.8165831297556 14454.15756620652974 
	6306.925309297644162 3102.886882385735589 14417.96275058890569 
	6322.656917250688821 3164.465686744554205 14370.9881861886588 
	6336.324398947203917 3217.964806731477438 14314.44540202985081 
	6347.575254029259668 3262.00443739319735 14249.79270272873327 
	6356.119309769240317 3295.448745083403537 14178.69755710999198 
	6361.736204964256103 3317.435161942367358 14102.9935922331224 
	6364.281073309805834 3327.396632533133925 14024.63330200335804 
	6363.688279670508564 3325.076238861487582 13945.6376900674004 
	6359.97311289071331 3310.533826606086222 13868.04414576290037 
	6353.231391463715227 3284.144461575278456 13793.85389746091823 
	6343.636992311263384 3246.588756518781338 13724.98039854543458 
	6331.43736610522501 3198.835316588528713 13663.19997719979983 
	6316.947155929923611 3142.115760636828782 13610.10602286034373 
	6300.540079637724375 3077.892946026110621 13567.06789069679508 
	6282.639301046291621 3007.823278256466892 13535.19558486170536 
	6263.706479405906066 2933.713846898083375 13515.31112823240073 
	6250.722159413661757 2882.888851581571544 13510.38862191752924 
	6244.223056989156248 2857.449178923769523 13510.04255476958315 
	0 
	
	0 
	0 
	38 0.02564102564102564014 0.05128205128205128027 0.07692307692307692735 0.1025641025641025605 0.1282051282051281937 0.1538461538461538269 0.1794871794871794601 0.2051282051282050933 0.2307692307692307265 0.2564102564102563875 0.2820512820512820484 0.3076923076923077094 0.3333333333333333703 0.3589743589743590313 0.3846153846153846922 0.4102564102564103532 0.4358974358974360142 0.4615384615384616751 0.4871794871794873361 0.512820512820512997 0.538461538461538658 0.5641025641025643189 0.5897435897435899799 0.6153846153846156408 0.6410256410256413018 0.6666666666666669627 0.6923076923076926237 0.7179487179487182846 0.7435897435897439456 0.7692307692307696065 0.7948717948717952675 0.8205128205128209284 0.8461538461538465894 0.8717948717948722503 0.8974358974358979113 0.9230769230769235723 0.9487179487179492332 0.9743589743589748942 
	0 
	0 
	0 
	F 1 F 0 F 1 F 0 } I I I I #
tcoedge-coedge $-1 -1 $-1 $8 $9 $-1 $10 forward $5 $11 3.907042797884036887e-29 6.250766387756696574 #
coedge $-1 -1 $-1 $12 $7 $-1 $13 forward $5 $14 #
coedge $-1 -1 $-1 $7 $12 $-1 $15 forward $5 $16 #
tedge-edge $-1 -1 $-1 $17 3.907042797884036887e-29 $18 6.250766387756696574 $7 $19 forward @7 unknown 0.0008503927470918663974 #
pcurve $-1 -1 $-1 0 forward { exppc nubs 1 open 2 
	0 1 6.250766387756696574 1 
	0 0 
	0.9999999999999988898 0 
	6.989479507260816951e-08 
	spline forward { ref 0 } I I I I 
	} 0 0 #
tcoedge-coedge $-1 -1 $-1 $9 $8 $-1 $20 forward $5 $21 0 6.270005910518960945 #
edge $-1 -1 $-1 $18 -1.597735222529895305 $22 -1.482133598350607873 $8 $23 forward @7 unknown #
pcurve $-1 -1 $-1 0 forward { exppc nubs 3 open 2 
	-1.597735222529895305 3 -1.482133598350607873 3 
	1 2.584778450782541685e-16 
	0.999999997512100669 0.03330815819590526167 
	1.000000000000000444 0.06667390754956747934 
	1 0.1000417136115216848 
	1.901303933264341709e-06 
	spline forward { ref 0 } I I I I 
	} 0 0 #
edge $-1 -1 $-1 $24 -0.1000208620216353067 $17 3.231873725599513201e-16 $9 $25 forward @7 unknown #
pcurve $-1 -1 $-1 0 forward { exppc nubs 1 open 2 
	-0.1000208620216353067 1 -1.530922173891459986e-27 1 
	1.707466632331585227e-16 0.1000417136115216848 
	1.646607728111323433e-16 2.227947531338617178e-16 
	0.0009308921380252029249 
	spline forward { ref 0 } I I I I 
	} 0 0 #
tvertex-vertex $-1 -1 $-1 $10 $26 1.610107593502049942e-11 #
tvertex-vertex $-1 -1 $-1 $10 $27 1.366629035320263383e-11 #
ellipse-curve $-1 -1 $-1 5899.607908167892674 2920.761208319851903 14000.00000000000364 -0.9887591971548915781 0.1495167216120469322 -1.473310301766002821e-12 7.352667807936086733e-10 3.14031467496533904e-11 -489.9999999999990337 1 F 3.907042797884036887e-29 F 6.250766387756696574 #
tedge-edge $-1 -1 $-1 $22 0 $24 6.270005910518960945 $12 $28 forward @7 unknown 0.000860963050787583303 #
pcurve $-1 -1 $-1 0 forward { exppc nubs 1 open 2 
	0 1 6.270005910518960945 1 
	1 0.1000417136115216016 
	1.077066584317922453e-15 0.100041713611521671 
	6.670265216904306016e-08 
	spline forward { ref 0 } I I I I 
	} 0 0 #
tvertex-vertex $-1 -1 $-1 $13 $29 1.222779794310843165e-11 #
ellipse-curve $-1 -1 $-1 5459.105344013904869 341.9370185357780088 13510.12130255223747 -0.0005924954792679522136 0.0001536191850031312168 -0.9999998126751089567 2979.728848021310569 -604.6015878898145957 -1.858354623196239563 0.865574782822138622 F -1.597735222529895305 F -1.482133598350607873 #
tvertex-vertex $-1 -1 $-1 $20 $30 1.287607477745803344e-11 #
ellipse-curve $-1 -1 $-1 5376.154290551944541 -540.6113742212232864 13509.9999999991378 -4.31126219296880829e-14 -2.43702573517836517e-13 1 523.4536176166847099 3461.372582541106112 8.662937034387141466e-10 1 F -0.1000208620216353067 F 3.231873725599513201e-16 #
point $-1 -1 $-1 5899.607908168628455 2920.761208319883281 13510.00000000000364 #
point $-1 -1 $-1 5901.982605724825589 2936.465164531849041 13510.25746910156886 #
ellipse-curve $-1 -1 $-1 6242.624231686389976 2851.192524307314216 14000.00000000000182 0.9688824302937251165 -0.2475213854763362309 3.35080950161261087e-12 1.598423162625925986 6.256768940676032287 -489.9574449743724927 1 F 0 F 6.270005910518960945 #
point $-1 -1 $-1 6244.22265484901618 2857.449293247990227 13510.04255502562773 #
point $-1 -1 $-1 6242.624231687992506 2851.192524306955875 13510.00000000000182 #
End-of-ACIS-data 