700 0 1 0           
4 LibG 20 ASM 224.0.1.65535 NT 24 Wed Jul 17 15:51:49 2019 
1000 9.999999999999999547e-07 1.000000000000000036e-10 
body $-1 -1 $-1 $1 $-1 $2 #
lump $-1 -1 $-1 $-1 $3 $0 #
transform $-1 -1 1 0 0 0 1 0 0 0 1 0 0 0 1 no_rotate no_reflect no_shear #
shell $-1 -1 $-1 $-1 $-1 $4 $-1 $1 #
face $-1 -1 $-1 $-1 $5 $3 $-1 $6 forward double out #
loop $-1 -1 $-1 $-1 $7 $4 #
spline-surface $-1 -1 $-1 forward { exactsur full nubs 3 3 open open none none 40 2 
	-1.191870090459292234e-07 3 0.02564102564102564014 1 0.05128205128205128027 1 0.07692307692307692735 1 0.1025641025641025605 1 
	0.1282051282051281937 1 0.1538461538461538269 1 0.1794871794871794601 1 0.2051282051282050933 1 0.2307692307692307265 1 
	0.2564102564102563875 1 0.2820512820512820484 1 0.3076923076923077094 1 0.3333333333333333703 1 0.3589743589743590313 1 
	0.3846153846153846922 1 0.4102564102564103532 1 0.4358974358974360142 1 0.4615384615384616751 1 0.4871794871794873361 1 
	0.512820512820512997 1 0.538461538461538658 1 0.5641025641025643189 1 0.5897435897435899799 1 0.6153846153846156408 1 
	0.6410256410256413018 1 0.6666666666666669627 1 0.6923076923076926237 1 0.7179487179487182846 1 0.7435897435897439456 1 
	0.7692307692307696065 1 0.7948717948717952675 1 0.8205128205128209284 1 0.8461538461538465894 1 0.8717948717948722503 1 
	0.8974358974358979113 1 0.9230769230769235723 1 0.9487179487179492332 1 0.9743589743589748942 1 1.000000000000000444 3 
	-1.191870090017604124e-07 3 0.1000418327985307249 3 
	3806.609806129923527 3060.621196376135231 14489.99999999986721 
	3810.523939428583617 3086.50547297123785 14490.00001954493746 
	3818.352138437434405 3138.273579196942137 14485.79526494589118 
	3829.793470801517742 3213.935440695077432 14467.03547138565045 
	3840.640498337107147 3285.667147191112235 14436.30396646830559 
	3850.61520535988393 3351.630172931995276 14394.38847628093026 
	3859.461901869043231 3410.133632554675842 14342.36344034468857 
	3866.953817295623594 3459.677885734599386 14281.56244093312853 
	3872.898907578561648 3498.992939547169954 14213.54401872900962 
	3877.144779485678555 3527.071013144938206 14140.05172201621826 
	3879.582596561915125 3543.192367905952779 14062.96941348461405 
	3880.149869097846477 3546.943757576272674 13984.27298028954101 
	3878.832055927759484 3538.229021006908624 13905.97968520481663 
	3875.662937178281027 3517.27154715125107 13830.09645717505737 
	3870.723748364299809 3484.608548816405801 13758.56844675980938 
	3864.141098041300211 3441.077292037878578 13693.22916517226258 
	3856.08372238840775 3387.793634043532165 13635.75348502186353 
	3846.75815991440686 3326.123419959462808 13587.61470751511297 
	3836.403457158754463 3257.647471457885331 13550.04679663116258 
	3825.285041098946749 3184.121064809941799 13524.01274834133619 
	3813.687915335653997 3107.428937061514262 13510.17990567943707 
	3801.90935446108233 3029.53697367996574 13508.90285242308892 
	3790.251283879171751 2952.441816085129176 13520.21432388062203 
	3779.012540409397843 2878.119680798470654 13543.82436777149269 
	3768.481212061679798 2808.475702153312341 13579.12777670973082 
	3758.927253340599691 2745.295097088264356 13625.21960177024266 
	3750.59556537432718 2690.19740383980843 13680.91834947123061 
	3743.699718248524277 2644.594967555145558 13744.7962675535764 
	3738.416476463659819 2609.656736983116389 13815.21594322770943 
	3734.881267847263189 2586.278300260084507 13890.37227574752069 
	3733.184712068416502 2575.058927875977588 13968.33874740881402 
	3733.370297741638751 2576.286211295124303 14047.11680688599699 
	3735.433267660562706 2589.928690974359142 14124.6870990399766 
	3739.32074074970933 2615.636662833647733 14199.06122800217599 
	3744.933067559933988 2652.751142186629295 14268.33272665681034 
	3752.126384742040955 2700.32075654844266 14330.72592603556768 
	3760.716302344711949 2757.126129843404215 14384.64147178655548 
	3770.482631933275115 2821.711149591170852 14428.69732151768767 
	3781.175024945865061 2892.420253518758727 14461.76417007468262 
	3792.519411783160649 2967.441011447208439 14482.99440227811465 
	3800.323101163234242 3019.047034789643476 14488.89400249714708 
	3804.235159605046192 3044.917590296459366 14489.74253064239383 
	3922.013449509176553 3043.170244954485042 14489.99999999987085 
	3925.06842746259872 3069.211604261981392 14490.00001958519351 
	3931.178330411133629 3121.293871840596239 14485.78660507654422 
	3940.107662008149873 3197.410803582918561 14466.9885083470981 
	3948.571932656623176 3269.565750963836763 14436.19536112077003 
	3956.353626532959879 3335.905560328656975 14394.19809470094697 
	3963.252743570093116 3394.726213386984455 14342.07546106519294 
	3969.091970643210061 3444.516860289848864 14281.16629442126214 
	3973.721234145280505 3483.99858834219549 14213.0351213086542 
	3977.021558277621352 3512.157282586163092 14139.43197348117428 
	3978.90812252426349 3528.269671459393976 14062.24743584325915 
	3979.332441703229961 3531.921905325597436 13983.46408410756339 
	3978.283612036012073 3523.020186165686027 13905.10555957673205 
	3975.78859135204857 3501.793176606256111 13829.18458914549592 
	3971.911506189684587 3468.786126091429651 13757.65128571157584 
	3966.752003613517445 3424.846865171095942 13692.34305698014032 
	3960.44269010746757 3371.104027647310886 13634.93740932995934 
	3953.145723369924781 3308.938059987993711 13586.90885904402421 
	3945.048644608045834 3239.945762677533367 13549.49105770053393 
	3936.359558448782991 3165.899274316132505 13523.6451045844442 
	3927.301784351243441 3088.700552023478849 13510.03486005415834 
	3918.108116988097208 3010.332517384340463 13509.00989396526529 
	3909.014843113389361 2932.808122821691995 13520.59650713310475 
	3900.255668692771906 2858.118646697298118 13544.49705644548521 
	3892.055712377946293 2788.182545248143924 13580.09760094352168 
	3884.625719701754406 2724.796175161094197 13626.48367245060763 
	3878.156646697048018 2669.587652535332836 13682.46376563753802 
	3872.814752147251966 2623.975033416491442 13746.59994412614105 
	3868.737324603606794 2589.129890077872005 13817.24477644847684 
	3866.029153989144106 2565.947218624572542 13892.58365308730208 
	3864.759838471905368 2555.022450862942151 13970.68139760475424 
	3864.961995822791778 2556.636160900579853 14049.53197456819726 
	3866.630425223040675 2570.74685926117354 14127.11001743901761 
	3869.722241071066492 2596.992059668084948 14201.42285284781428 
	3874.157975308218283 2634.697590745292928 14270.56168492273173 
	3879.823620070270408 2682.894914631908705 14332.75062495711063 
	3886.57355763315627 2740.346003130091503 14386.39230690425575 
	3894.234304319209514 2805.575149187042371 14430.10891744619039 
	3902.608964771391129 2876.906833859239669 14462.77758509588421 
	3911.482309599601194 2952.508910106858366 14483.55922544127861 
	3917.578265403482419 3004.4623838692346 14489.13312769225195 
	3920.632197939310572 3030.493734741724438 14489.81416883840029 
	4038.290541269528148 3031.496735258725494 14489.99999999987267 
	4040.477169588501965 3057.652366620964131 14490.00001962544775 
	4044.850388193287927 3109.963174955848899 14485.77794520719181 
	4051.241253761434564 3186.409975857847257 14466.94154530855667 
	4057.29849781669418 3258.86934238664071 14436.08675577323083 
	4062.866105235142186 3325.476481209351277 14394.00771312096731 
	4067.800654254114306 3384.516994217260162 14341.78748178569549 
	4071.975033191602506 3434.471270393546092 14280.77014790940302 
	4075.281711522380192 3474.053559380999104 14212.52622388829514 
	4077.635510722116123 3502.24507560032589 14138.81222494613212 
	4078.975798204884995 3518.320217587121078 14061.52545820190244 
	4079.26804925808301 3521.865244644020549 13982.65518792558578 
	4078.504736359368053 3512.788925552533328 13904.23143394865474 
	4076.705523069112132 3491.324886481454541 13828.2727211159272 
	4073.91675747695308 3458.025597341229968 13756.73412466334776 
	4070.210278259098232 3413.748151466618765 13691.45694878801987 
	4065.681564101068034 3359.632204631693185 13634.12133363805879 
	4060.447274157728316 3297.070641242460169 13586.20301057293727 
	4054.642242909044853 3227.673722739952154 13548.93531876990528 
	4048.416006824464603 3153.227641009852505 13523.2774608275522 
	4041.928952309741817 3075.648543603032522 13509.88981442887962 
	4035.348184165398834 2996.933214121352194 13509.11693550744349 
	4028.843220985733751 2919.107677214081832 13520.97869038558929 
	4022.581628385021304 2844.175051046516728 13545.16974511947774 
	4016.724702539053851 2774.063989469140324 13581.06742517731072 
	4011.423315233820631 2710.579040934361274 13627.74774313097805 
	4006.814027452547634 2655.354201869467943 13684.00918180383997 
	4003.015571614535475 2609.810859988923312 13748.40362069870753 
	4000.12579308257591 2575.121210032774343 13819.27360966924243 
	3998.219129724850063 2552.178083560279902 13894.79503042709075 
	3997.34469445650484 2541.57196933098794 13973.02404780069992 
	3997.52501015389953 2543.575815731880084 14051.94714225040116 
	3998.755429526776425 2558.138006374669203 14129.53293583806044 
	4001.004254898195995 2584.883689726833836 14203.78447769345075 
	4004.213554777878926 2623.124428200320381 14272.79064318864766 
	4008.300656294253258 2671.875919529516523 14334.77532387865722 
	4013.16027465827483 2729.88332973897468 14388.14314202195965 
	4018.66722622180805 2795.653602577216134 14431.52051337469857 
	4024.679649943841923 2867.493850526280312 14463.79100011709124 
	4031.042674046610045 2943.555075278804907 14484.12404860443894 
	4035.40913110295287 2995.771165992661736 14489.37225288736408 
	4037.595367928701307 3021.92058175554439 14489.88580703440857 
	4154.860080270209437 3025.658996257913714 14489.99999999987631 
	4156.17347673837412 3051.8852510337083 14490.00001966570744 
	4158.800246788940967 3104.337303596179936 14485.76928533783939 
	4162.638790786168101 3180.986385026992139 14466.89458227001342 
	4166.276703622359491 3253.629209342893319 14435.97815042569528 
	4169.620169818885188 3320.392443773366722 14393.81733154098583 
	4172.58295623309732 3379.554161677106549 14341.49950250620532 
	4175.08864946457561 3429.588519672946859 14280.37400139753845 
	4177.072624662040653 3469.205071307378148 14212.01732646794153 
	4178.483712805611503 3497.382059795903388 14138.19247641108996 
	4179.285520273287148 3513.392767482402633 14060.80348056054754 
	4179.457367513234203 3516.824259500711378 13981.84629174361362 
	4178.994822383443534 3507.588033644126426 13903.35730832057743 
	4177.90981446458045 3485.922302995693371 13827.36085308636575 
	4176.230327381409552 3452.385852119178253 13755.81696361512149 
	4173.999677072516533 3407.843625354743835 13690.57084059590125 
	4171.275394621520718 3353.444418890505858 13633.30525794616005 
	4168.127742463016148 3290.59125196385412 13585.49716210185397 
	4164.637902232148917 3220.905181352279669 13548.37957983928209 
	4160.895880995150947 3146.183492420815128 13522.90981707066385 
	4156.998189861717037 3068.353345027805062 13509.74476880360635 
	4153.045354850465628 2989.422069815409941 13509.22397704962896 
	4149.139324205196317 2911.425396801722854 13521.36087363807383 
	4145.38083903030747 2836.374951519715523 13545.84243379347572 
	4141.86683505973815 2766.206372839079904 13582.03724941110158 
	4138.687942570867563 2702.729390573113506 13629.01181381134484 
	4135.926148923548681 2647.581150427577995 13685.55459797014919 
	4133.65268401008052 2602.18399009584482 13750.207297271274 
	4131.926183152863814 2567.708755504106193 13821.30244289001348 
	4130.791174830796081 2545.044603324140098 13897.00640776688306 
	4130.276932237603432 2534.776068580454648 13975.36669799664378 
	4130.396718292086007 2537.167988811434498 14054.36230993260688 
	4131.147443571182521 2552.158673584419375 14131.95585423710327 
	4132.509745992540047 2579.361495618931713 14206.14610253909086 
	4134.448490175077495 2618.074862152749574 14275.01960145457451 
	4136.913673659760207 2667.300310602980062 14336.80002280020744 
	4139.841716389140856 2725.768257240922139 14389.89397713966355 
	4143.157101043092553 2791.970751858399126 14432.93210930320674 
	4146.774318734957888 2864.200329952816446 14464.8044151383001 
	4150.600081790157674 2940.594198087469977 14484.6888717676029 
	4153.223828670935291 2992.985883180528162 14489.61137808247622 
	4154.537104970681867 3019.209738400935748 14489.95744523041503 
	0 
	
	0 
	0 
	38 0.02564102564102564014 0.05128205128205128027 0.07692307692307692735 0.1025641025641025605 0.1282051282051281937 0.1538461538461538269 0.1794871794871794601 0.2051282051282050933 0.2307692307692307265 0.2564102564102563875 0.2820512820512820484 0.3076923076923077094 0.3333333333333333703 0.3589743589743590313 0.3846153846153846922 0.4102564102564103532 0.4358974358974360142 0.4615384615384616751 0.4871794871794873361 0.512820512820512997 0.538461538461538658 0.5641025641025643189 0.5897435897435899799 0.6153846153846156408 0.6410256410256413018 0.6666666666666669627 0.6923076923076926237 0.7179487179487182846 0.7435897435897439456 0.7692307692307696065 0.7948717948717952675 0.8205128205128209284 0.8461538461538465894 0.8717948717948722503 0.8974358974358979113 0.9230769230769235723 0.9487179487179492332 0.9743589743589748942 
	0 
	0 
	0 
	F 1 F 0 F 1 F 0 } I I I I #
tcoedge-coedge $-1 -1 $-1 $8 $9 $-1 $10 forward $5 $11 0 6.250766387756697462 #
coedge $-1 -1 $-1 $12 $7 $-1 $13 forward $5 $14 #
coedge $-1 -1 $-1 $7 $12 $-1 $15 forward $5 $16 #
tedge-edge $-1 -1 $-1 $17 -3.907042797884036887e-29 $18 6.250766387756697462 $7 $19 forward @7 unknown 0.0008503927448914539106 #
pcurve $-1 -1 $-1 0 forward { exppc nubs 1 open 2 
	0 1 6.250766387756697462 1 
	0 0 
	0.9999999999999990008 0 
	7.013475561516093076e-08 
	spline forward { ref 0 } I I I I 
	} 0 0 #
tcoedge-coedge $-1 -1 $-1 $9 $8 $-1 $20 forward $5 $21 1.103493639655125834e-15 6.270005910518960057 #
edge $-1 -1 $-1 $18 -1.59773522258195344 $22 -1.482133598372509908 $8 $23 forward @7 unknown #
pcurve $-1 -1 $-1 0 forward { exppc nubs 3 open 2 
	-1.59773522258195344 3 -1.482133598372509908 3 
	1.000000000000000444 0 
	0.9999999975121008911 0.03330815819589497823 
	1.000000000000000444 0.06667390754959590105 
	1.000000000000000444 0.1000417136115216293 
	1.901304459433152837e-06 
	spline forward { ref 0 } I I I I 
	} 0 0 #
edge $-1 -1 $-1 $24 -0.100020862021608703 $17 2.69322810452446654e-17 $9 $25 forward @7 unknown #
pcurve $-1 -1 $-1 0 forward { exppc nubs 1 open 2 
	-0.100020862021608703 1 -1.530922173892053868e-27 1 
	0 0.1000417136115216848 
	0 4.416880810786140863e-17 
	0.0009308921380808469993 
	spline forward { ref 0 } I I I I 
	} 0 0 #
tvertex-vertex $-1 -1 $-1 $10 $26 1.560650187523513181e-11 #
tvertex-vertex $-1 -1 $-1 $10 $27 1.618523268200780914e-11 #
ellipse-curve $-1 -1 $-1 3806.6102731763458 3060.621494956253173 13999.99999999999818 -0.9887591971548985725 0.1495167216120006082 1.732735919590768117e-12 8.181061161849356515e-10 -2.669267473720537861e-10 489.9999999999990337 1 F -3.907042797884036887e-29 F 6.250766387756697462 #
tedge-edge $-1 -1 $-1 $22 1.103493639655125834e-15 $24 6.270005910518960057 $12 $28 forward @7 unknown 0.0008609630485386523353 #
pcurve $-1 -1 $-1 0 forward { exppc nubs 1 open 2 
	0 1 6.270005910518960057 1 
	0.999999999999999889 0.1000417136115216848 
	9.64955933606776532e-16 0.1000417136115216848 
	8.022452607651727037e-08 
	spline forward { ref 0 } I I I I 
	} 0 0 #
tvertex-vertex $-1 -1 $-1 $13 $29 1.416782831503573111e-11 #
ellipse-curve $-1 -1 $-1 4148.289078104815417 5654.389467989061814 14489.87869745033095 -0.0006114256121632874767 2.843356778611241123e-05 0.9999998126751089567 3025.267481687936652 -303.4530395817475892 1.858354622635660647 0.8655747825962741837 F -1.59773522258195344 F -1.482133598372509908 #
tvertex-vertex $-1 -1 $-1 $20 $30 2.305370469199926687e-11 #
ellipse-curve $-1 -1 $-1 4329.991715558408941 6522.004991585744392 14490.00000000086402 3.087100866154854987e-14 2.455537076346432623e-13 -1 -523.3814423812452787 -3461.383496629758611 -8.662937034387141466e-10 1 F -0.100020862021608703 F 2.69322810452446654e-17 #
point $-1 -1 $-1 3806.610273177164345 3060.621494955986236 14489.99999999999818 #
point $-1 -1 $-1 3804.235575620966301 3044.917538744020931 14489.74253089843296 #
ellipse-curve $-1 -1 $-1 4154.859681958604597 3025.659382842702144 14000.00000000000182 0.9987483720444975122 -0.0500168905317607479 1.171676182860976459e-11 -0.3229949506555613303 -6.449634752889402023 489.9574449743724927 1 F 1.103493639655125834e-15 F 6.270005910518960057 #
point $-1 -1 $-1 4154.536687007949695 3019.20974808981191 14489.95744497437408 #
point $-1 -1 $-1 4154.859681952867504 3025.659382842940431 14490 #
End-of-ACIS-data 