700 0 1 0           
4 LibG 20 ASM 224.0.1.65535 NT 24 Wed Jul 17 15:51:49 2019 
1000 9.999999999999999547e-07 1.000000000000000036e-10 
body $-1 -1 $-1 $1 $-1 $2 #
lump $-1 -1 $-1 $-1 $3 $0 #
transform $-1 -1 1 0 0 0 1 0 0 0 1 0 0 0 1 no_rotate no_reflect no_shear #
shell $-1 -1 $-1 $-1 $-1 $4 $-1 $1 #
face $-1 -1 $-1 $-1 $5 $3 $-1 $6 forward double out #
loop $-1 -1 $-1 $-1 $7 $4 #
spline-surface $-1 -1 $-1 forward { exactsur full nubs 3 3 open open none none 40 2 
	-1.191870087737182716e-07 3 0.02564102564102564014 1 0.05128205128205128027 1 0.07692307692307692735 1 0.1025641025641025605 1 
	0.1282051282051281937 1 0.1538461538461538269 1 0.1794871794871794601 1 0.2051282051282050933 1 0.2307692307692307265 1 
	0.2564102564102563875 1 0.2820512820512820484 1 0.3076923076923077094 1 0.3333333333333333703 1 0.3589743589743590313 1 
	0.3846153846153846922 1 0.4102564102564103532 1 0.4358974358974360142 1 0.4615384615384616751 1 0.4871794871794873361 1 
	0.512820512820512997 1 0.538461538461538658 1 0.5641025641025643189 1 0.5897435897435899799 1 0.6153846153846156408 1 
	0.6410256410256413018 1 0.6666666666666669627 1 0.6923076923076926237 1 0.7179487179487182846 1 0.7435897435897439456 1 
	0.7692307692307696065 1 0.7948717948717952675 1 0.8205128205128209284 1 0.8461538461538465894 1 0.8717948717948722503 1 
	0.8974358974358979113 1 0.9230769230769235723 1 0.9487179487179492332 1 0.9743589743589748942 1 1.000000000000000444 3 
	-1.191870090875490343e-07 3 0.1000418327985306693 3 
	7221.669631680038037 2475.002124358474703 13510.00000000014006 
	7212.68906290290488 2450.412175217196818 13509.99998045507164 
	7194.728080423295069 2401.232701548957266 13514.20473505411064 
	7168.477142001523134 2329.354265258195028 13532.96452861435864 
	7143.589773744502963 2261.209458967251066 13563.69603353169805 
	7120.703853512676687 2198.544874070953028 13605.61152371907338 
	7100.406035224751577 2142.966844241730087 13657.63655965531325 
	7083.216620192833943 2095.900021204945915 13718.43755906687511 
	7069.576233394951487 2058.550892664084586 13786.45598127099402 
	7059.834525136357115 2031.876846000375053 13859.94827798378356 
	7054.241209260600044 2016.561629745235678 13937.03058651538959 
	7052.939661859019907 2012.997826025888344 14015.72701971046445 
	7055.963246112887646 2021.276787511751309 14094.02031479518882 
	7063.234457060749264 2041.186295677715179 14169.90354282494809 
	7074.566908324580254 2072.216000715230621 14241.43155324019426 
	7089.670109838378266 2113.570503565906165 14306.77083482774106 
	7108.156914117316774 2164.1897447615479 14364.24651497814193 
	7129.55344019165932 2222.776177428004758 14412.38529248489431 
	7153.311220821094139 2287.828027915997609 14449.95320336884106 
	7178.821261614060859 2357.677791473071466 14475.98725165866745 
	7205.429651668117913 2430.534976179053956 14489.82009432057203 
	7232.454325576388328 2504.531999469591028 14491.09714757691836 
	7259.202547131691972 2577.772060760486511 14479.78567611938161 
	7284.988666560335332 2648.377763031331142 14456.17563222850913 
	7309.151696106023337 2714.539237028432581 14420.87222329027099 
	7331.0722534406259 2774.560534496664332 14374.78039822975916 
	7350.188438583420066 2826.90310122064875 14319.08165052877848 
	7366.010237348192277 2870.225215510304679 14255.20373244642906 
	7378.132082107912538 2903.416381185571481 14184.78405677229239 
	7386.243247900848473 2925.625793448253717 14109.62772425248113 
	7390.135817390345437 2936.284147963535361 14031.66125259119144 
	7389.71001050661198 2935.118234102744282 13952.88319311400483 
	7384.976742161257789 2922.157938293791631 13875.31290096002886 
	7376.057342441711626 2897.735477877613448 13800.93877199782582 
	7363.180446568944717 2862.476885413513628 13731.66727334319148 
	7346.676133925379872 2817.285960585869816 13669.27407396443414 
	7326.967467936129651 2763.321105313901626 13615.35852821344633 
	7304.559647895789567 2701.965620062037033 13571.30267848232143 
	7280.027072351007519 2634.79228172220337 13538.23582992531919 
	7253.998565283642165 2563.522891008397437 13517.00559772188899 
	7236.093817579439019 2514.49739536776633 13511.10599750286019 
	7227.118009343963422 2489.920481200130325 13510.25746935760799 
	7331.302586490881367 2434.962745864665976 13510.00000000013824 
	7321.492794952055192 2410.647045692907341 13509.99998041481194 
	7301.873381739575052 2362.016066519455308 13514.21339492346124 
	7273.199978137763537 2290.943173047169694 13533.01149165290371 
	7246.018818431366526 2223.569848458213528 13563.80463887923361 
	7221.027883172469956 2161.626501591649685 13605.80190529905485 
	7198.868991375611586 2106.70427879945828 13657.92453893480888 
	7180.111218111376729 2060.213946105609011 13718.83370557873968 
	7165.236294280984112 2023.349687376983411 13786.96487869134762 
	7154.626230943918017 1997.058419684320143 13860.56802651882754 
	7148.553509654938352 1982.015472632453339 13937.75256415674266 
	7147.174084411894 1978.60724068935815 14016.53591589244024 
	7150.523376633379485 1986.921258327531405 14094.89444042326977 
	7158.515365566528999 2006.743951785837453 14170.8154108545059 
	7170.944797604041014 2037.566125496810173 14242.34871428842598 
	7187.492457734409982 2078.596042158539149 14307.65694301986332 
	7207.733367748247474 2128.77976047272341 14365.06259067004248 
	7231.147700647176862 2186.828208113347046 14413.09114095597943 
	7257.134130946696132 2251.25029448858777 14450.50894229946425 
	7285.025278004960455 2320.391212711538174 14476.3548954155558 
	7314.104845756420218 2392.474946900383202 14489.96513994584348 
	7343.626018662592287 2465.649892906715195 14490.99010603473653 
	7372.830641430336073 2538.036420597023152 14479.40349286689707 
	7400.968689920236102 2607.775155941498269 14455.50294355451842 
	7427.317533190033828 2673.074742676909864 14419.90239905648195 
	7451.200491983331631 2732.257856681314024 14373.51632754939419 
	7472.00421704373548 2783.804291084389661 14317.5362343624638 
	7489.194440945122551 2826.390005384863343 14253.40005587386077 
	7502.329698901609845 2858.921135523229623 14182.7552235515268 
	7511.072666182755711 2880.562091299474105 14107.41634691269974 
	7515.198820972043904 2890.757019410194061 14029.31860239524758 
	7514.602210193098472 2889.244080793282592 13950.46802543180638 
	7509.298170242109336 2876.06217557872651 13872.88998256098421 
	7499.422932728595697 2851.549942843033023 13798.57714715219117 
	7485.230125481270989 2816.337061187632116 13729.43831507727191 
	7467.084258236111964 2771.328072504014017 13667.24937504289119 
	7445.451362013180187 2717.679148677560988 13613.60769309574789 
	7420.887016264983686 2656.768382362646207 13569.89108255381143 
	7394.022094907893916 2590.160423556353635 13537.22241490411761 
	7365.546509186567164 2519.566151839605027 13516.44077455872321 
	7345.976632264017098 2471.054874487043435 13510.86687230774987 
	7336.170723834637101 2446.748457802252688 13510.18583116160153 
	7438.930880846357468 2389.434917550626324 13510.00000000013642 
	7428.304332495275958 2365.435441191654263 13509.99998037455953 
	7407.051420362923636 2317.436905427437523 13514.22205479281183 
	7375.992380433199287 2247.292108261120575 13533.05845469144515 
	7346.553124876717447 2180.806168126540342 13563.91324422677098 
	7319.491181873440837 2119.690209200894515 13605.99228687903451 
	7295.502994552705786 2065.517348658709579 13658.21251821430633 
	7275.205890251902929 2019.681961621916344 13719.2298520905988 
	7259.122209598269365 1983.363826486677908 13787.4737761117085 
	7247.665859830145564 1957.497748171484318 13861.1877750538697 
	7241.131664106555945 1942.749499235494795 13938.47454179809938 
	7239.687774015874311 1939.498682581441699 14017.34481207441604 
	7243.371342392058978 1947.828961019152075 14095.76856605134708 
	7252.08756730209916 1967.525904056746867 14171.72727888407644 
	7265.612131936813967 1998.082507634595004 14243.26587533665406 
	7283.596977574408811 2038.712244635507432 14308.54305121198377 
	7305.579261053283517 2088.369310263875377 14365.87866636194121 
	7330.993266224411855 2145.775541163299295 14413.79698942706273 
	7359.184962835346596 2209.453315367795767 14451.06468123009472 
	7389.428838165025809 2277.763586233811566 14476.72253917244961 
	7420.94656823920468 2348.948071353148407 14490.1101855711222 
	7452.927048115017897 2421.174510499015014 14490.88306449255833 
	7484.547265747749407 2492.583827662341264 14479.02130961441435 
	7514.993482244203733 2561.337983226324923 14454.8302548805259 
	7543.48217342314274 2625.667284565471618 14418.93257482269109 
	7569.280193747382327 2683.915937298166227 14372.25225686902377 
	7591.723643705863651 2734.584664710199377 14315.99081819616549 
	7610.234955092486416 2776.369298334883297 14251.59637930129429 
	7624.33775449280165 2808.19434638069697 14180.72639033076121 
	7633.669122469241302 2829.240675969982021 14105.20496957291107 
	7637.988932959924568 2838.96659666716414 14026.97595219930372 
	7637.186032545697344 2837.121802620687049 13948.05285774960066 
	7631.281100579624763 2823.753814491345111 13870.4670641619432 
	7620.42611654799839 2799.206755294805134 13796.21552230655107 
	7604.900448513947595 2764.11249199135591 13727.20935681135416 
	7585.103662825760694 2719.374369745983586 13665.2246761213446 
	7561.545241989519127 2666.143961729937473 13611.85685797804217 
	7534.83146844642306 2605.791417393943902 13568.47948662530325 
	7505.649837504553034 2539.870230511662157 13536.20899988291239 
	7474.751304693336351 2470.077117264717799 13515.8759513955647 
	7453.537889723235821 2422.164936120788298 13510.62774711263773 
	7442.913979089185887 2398.171101516080398 13510.11419296559325 
	7544.016729004992158 2338.646128076441983 13510.00000000013097 
	7532.590075418764172 2315.003517440813994 13509.99998033430347 
	7509.736967354279841 2267.718708139013415 13514.23071466216243 
	7476.341329711777689 2198.620607653857405 13533.10541772999022 
	7444.691199104903717 2133.134093263774503 13564.02184957430654 
	7415.60277764881539 2072.947948886363065 13606.18266845901599 
	7389.826300533369249 2019.614467880762504 13658.50049749380014 
	7368.026570411194371 1974.509177224050518 13719.62599860246337 
	7350.765828621049877 1938.795396776698453 13787.98267353206029 
	7338.489249699892753 1913.394226330752645 13861.80752358891368 
	7331.51346104962613 1898.960791931947597 13939.19651943945428 
	7330.018376413552687 1895.867348724684462 14018.15370825639002 
	7334.042555779211398 1904.193680240059621 14096.64269167942439 
	7343.482210847338138 1923.725040635825053 14172.63914691363607 
	7358.093881859972498 1953.957693256359562 14244.18303638488214 
	7377.500716711059795 1994.111902587355189 14309.42915940409875 
	7401.202190403989334 2043.152044548762206 14366.69474205384176 
	7428.587014177270248 2099.813316452303752 14414.50283789814785 
	7458.948901357541217 2162.634357743980217 14451.62042016071973 
	7491.504783319985108 2229.994940204022896 14477.09018292933797 
	7525.415005745101553 2300.15775553001049 14490.25523119639547 
	7559.804984286897707 2371.31322255241048 14490.77602295037468 
	7593.787761127307931 2441.626158452005257 14478.63912636193163 
	7626.48688065699389 2509.283110273831426 14454.15756620652974 
	7657.058994291821364 2572.539126002492139 14417.96275058890024 
	7684.715611420459936 2629.762758918008331 14370.98818618865698 
	7708.743435500576197 2679.478144517187047 14314.44540202985081 
	7728.522760811941225 2720.403064787422863 14249.79270272872964 
	7743.543455392669784 2751.48201811081708 14178.69755710999016 
	7753.41811793980014 2771.913441886660621 14102.99359223312058 
	7757.892069342975446 2781.170385770521989 14024.63330200335804 
	7756.849921155253469 2779.014102337149325 13945.63769006739494 
	7750.318551602655134 2765.500204669372579 13868.04414576289855 
	7738.466412339405906 2740.977231982255489 13793.8538974609146 
	7721.599183971482489 2706.077660572689638 13724.98039854542731 
	7700.151891863781202 2661.701590827990913 13663.19997719979619 
	7674.677687565786982 2608.993535147038074 13610.10602286034191 
	7645.833577760363369 2549.312890055740354 13567.06789069679508 
	7614.36349655280992 2484.198911492626848 13535.19558486170172 
	7581.079054121010813 2415.330882309748631 13515.31112823239891 
	7558.252247873796478 2368.100493457478024 13510.3886219175256 
	7546.826639762357445 2344.460045988274487 13510.04255476958679 
	0 
	
	0 
	0 
	38 0.02564102564102564014 0.05128205128205128027 0.07692307692307692735 0.1025641025641025605 0.1282051282051281937 0.1538461538461538269 0.1794871794871794601 0.2051282051282050933 0.2307692307692307265 0.2564102564102563875 0.2820512820512820484 0.3076923076923077094 0.3333333333333333703 0.3589743589743590313 0.3846153846153846922 0.4102564102564103532 0.4358974358974360142 0.4615384615384616751 0.4871794871794873361 0.512820512820512997 0.538461538461538658 0.5641025641025643189 0.5897435897435899799 0.6153846153846156408 0.6410256410256413018 0.6666666666666669627 0.6923076923076926237 0.7179487179487182846 0.7435897435897439456 0.7692307692307696065 0.7948717948717952675 0.8205128205128209284 0.8461538461538465894 0.8717948717948722503 0.8974358974358979113 0.9230769230769235723 0.9487179487179492332 0.9743589743589748942 
	0 
	0 
	0 
	F 1 F 0 F 1 F 0 } I I I I #
tcoedge-coedge $-1 -1 $-1 $8 $9 $-1 $10 forward $5 $11 7.814085595768073775e-29 6.250766387756696574 #
coedge $-1 -1 $-1 $12 $7 $-1 $13 forward $5 $14 #
coedge $-1 -1 $-1 $7 $12 $-1 $15 forward $5 $16 #
tedge-edge $-1 -1 $-1 $17 7.814085595768073775e-29 $18 6.250766387756696574 $7 $19 forward @7 unknown 0.0008503927492675926849 #
pcurve $-1 -1 $-1 0 forward { exppc nubs 1 open 2 
	0 1 6.250766387756697462 1 
	0 0 
	0.9999999999999990008 5.315673007525752837e-17 
	7.016478944529682294e-08 
	spline forward { ref 0 } I I I I 
	} 0 0 #
tcoedge-coedge $-1 -1 $-1 $9 $8 $-1 $20 forward $5 $21 1.460585255407271137e-15 6.270005910518958281 #
edge $-1 -1 $-1 $18 -1.597735222532565613 $22 -1.482133598352736614 $8 $23 forward @7 unknown #
pcurve $-1 -1 $-1 0 forward { exppc nubs 3 open 2 
	-1.597735222532565613 3 -1.482133598352736614 3 
	1.000000000000000222 0 
	0.9999999975121010021 0.03330815819590401961 
	1.000000000000000444 0.06667390754956745158 
	0.999999999999999889 0.1000417136115216848 
	2.181194460302921631e-06 
	spline forward { ref 0 } I I I I 
	} 0 0 #
edge $-1 -1 $-1 $24 -0.1000208620216116451 $17 -1.530922173890632032e-27 $9 $25 forward @7 unknown #
pcurve $-1 -1 $-1 0 forward { exppc nubs 1 open 2 
	-0.1000208620216113953 1 -1.530922173890632032e-27 1 
	2.205496439746520743e-15 0.1000417136115215877 
	3.138307650748770243e-16 0 
	0.000930892135886400335 
	spline forward { ref 0 } I I I I 
	} 0 0 #
tvertex-vertex $-1 -1 $-1 $10 $26 1.181898940354585587e-11 #
tvertex-vertex $-1 -1 $-1 $10 $27 1.454747350886464058e-11 #
ellipse-curve $-1 -1 $-1 7221.66989828709211 2475.001638351151996 14000.00000000000364 -0.9393168391296459196 0.343050835485778749 -1.759699659664304167e-12 8.587136335336254805e-10 -1.624300693947589025e-10 -489.9999999999990337 1 F 7.814085595768073775e-29 F 6.250766387756696574 #
tedge-edge $-1 -1 $-1 $22 1.460585255407271137e-15 $24 6.270005910518958281 $12 $28 forward @7 unknown 0.0008609630484927633699 #
pcurve $-1 -1 $-1 0 forward { exppc nubs 1 open 2 
	0 1 6.270005910518959169 1 
	0.999999999999999889 0.1000417136115216848 
	1.22427303392576306e-15 0.1000417136115216848 
	6.769987757907622628e-08 
	spline forward { ref 0 } I I I I 
	} 0 0 #
tvertex-vertex $-1 -1 $-1 $13 $29 1.409272615797817647e-11 #
ellipse-curve $-1 -1 $-1 6277.411230478315701 35.17535785913402435 13510.12130255223747 -0.0005501432133261297723 0.0002683136071562194024 -0.9999998126751089567 2800.118030256795464 -1184.764155582617832 -1.858354623187748356 0.8655747828179907177 F -1.597735222532565613 F -1.482133598352736614 #
tvertex-vertex $-1 -1 $-1 $20 $30 1.749988544269883324e-11 #
ellipse-curve $-1 -1 $-1 6020.70759165554955 -813.2795818334028581 13509.9999999991378 -9.068867830153078556e-14 -2.302720263879617564e-13 1 1200.962306632401351 3288.281220184391714 8.662937034387141466e-10 1 F -0.1000208620216116451 F -1.530922173890632032e-27 #
point $-1 -1 $-1 7221.669898287950673 2475.001638350989651 13510.00000000000364 #
point $-1 -1 $-1 7227.118399110443534 2489.920326898513849 13510.25746910156886 #
ellipse-curve $-1 -1 $-1 7544.016194072978578 2338.645979909754715 14000.00000000000182 0.9003580795742748277 -0.4351497771403819437 2.216437630172124936e-12 2.81007429400098685 5.814258047766671211 -489.9574449743724927 1 F 1.460585255407271137e-15 F 6.270005910518958281 #
point $-1 -1 $-1 7546.826268366980912 2344.460237957521258 13510.04255502562773 #
point $-1 -1 $-1 7544.016194073977204 2338.645979909325433 13510.00000000000182 #
End-of-ACIS-data 