700 0 1 0           
4 LibG 20 ASM 224.0.1.65535 NT 24 Wed Jul 17 15:51:49 2019 
1000 9.999999999999999547e-07 1.000000000000000036e-10 
body $-1 -1 $-1 $1 $-1 $2 #
lump $-1 -1 $-1 $-1 $3 $0 #
transform $-1 -1 1 0 0 0 1 0 0 0 1 0 0 0 1 no_rotate no_reflect no_shear #
shell $-1 -1 $-1 $-1 $-1 $4 $-1 $1 #
face $-1 -1 $-1 $-1 $5 $3 $-1 $6 forward double out #
loop $-1 -1 $-1 $-1 $7 $4 #
spline-surface $-1 -1 $-1 forward { exactsur full nubs 3 3 open open none none 40 2 
	-1.191870090187975934e-07 3 0.02564102564102564014 1 0.05128205128205128027 1 0.07692307692307692735 1 0.1025641025641025605 1 
	0.1282051282051281937 1 0.1538461538461538269 1 0.1794871794871794601 1 0.2051282051282050933 1 0.2307692307692307265 1 
	0.2564102564102563875 1 0.2820512820512820484 1 0.3076923076923077094 1 0.3333333333333333703 1 0.3589743589743590313 1 
	0.3846153846153846922 1 0.4102564102564103532 1 0.4358974358974360142 1 0.4615384615384616751 1 0.4871794871794873361 1 
	0.512820512820512997 1 0.538461538461538658 1 0.5641025641025643189 1 0.5897435897435899799 1 0.6153846153846156408 1 
	0.6410256410256413018 1 0.6666666666666669627 1 0.6923076923076926237 1 0.7179487179487182846 1 0.7435897435897439456 1 
	0.7692307692307696065 1 0.7948717948717952675 1 0.8205128205128209284 1 0.8461538461538465894 1 0.8717948717948722503 1 
	0.8974358974358979113 1 0.9230769230769235723 1 0.9487179487179492332 1 0.9743589743589748942 1 1.000000000000000444 3 
	-1.191870090187975934e-07 3 0.1000418327985306832 3 
	1008.360429911701317 3095.62538446172357 13510.00000000014006 
	1009.66891810422203 3069.479561220111918 13509.99998045506254 
	1012.285871894552201 3017.188366217729708 13514.20473505410882 
	1016.110690101494129 2940.76198244018542 13532.96452861435864 
	1019.736833201713466 2868.305465760126935 13563.69603353169441 
	1023.07136101853996 2801.675919241171414 13605.61152371907156 
	1026.02879681384411 2742.581313730478541 13657.63655965531325 
	1028.533331567019559 2692.536442608799007 13718.43755906687511 
	1030.520765270759739 2652.824131393875632 13786.45598127099402 
	1031.940153123319305 2624.462344014774771 13859.94827798378719 
	1032.755111280435813 2608.178091663812666 13937.03058651538777 
	1032.944749537124153 2604.388796225316582 14015.72701971046808 
	1032.504206806093634 2613.191590504794021 14094.02031479518882 
	1031.444775726981106 2634.360828324033719 14169.90354282494809 
	1029.793613196073238 2667.353868630419129 14241.43155324019608 
	1027.593044240976724 2711.324985266989188 14306.77083482774106 
	1024.899477083177999 2765.147045870765396 14364.24651497814193 
	1021.78195719952339 2827.440404187736021 14412.38529248489431 
	1018.320397446953734 2896.608265195779495 14449.95320336884106 
	1014.603529618569382 2970.877616504271828 14475.98725165866563 
	1010.726629939747909 3048.344676816579977 14489.82009432057203 
	1006.789076807728065 3127.023696453590219 14491.09714757691654 
	1002.891803378328518 3204.897859011413857 14479.78567611938161 
	999.1347102987411972 3279.970979367095424 14456.17563222851095 
	995.6141049071813995 3350.318672832992888 14420.87222329027281 
	992.4202325414538564 3414.137683816720255 14374.78039822976098 
	989.63496323768004 3469.792109521903058 14319.08165052877121 
	987.3296931170564221 3515.855333815801714 14255.20373244642724 
	985.5635142554175445 3551.146596353297355 14184.78405677229421 
	984.3816999482148731 3574.761259563208569 14109.62772425248659 
	983.8145441987345521 3586.093997650706115 14031.66125259119144 
	983.8765851778180149 3584.854313194914084 13952.88319311400664 
	984.5662325593630158 3571.073983620704439 13875.31290096002704 
	985.865808288588596 3545.106246579120125 13800.93877199782764 
	987.7419997218906929 3507.61674544115931 13731.6672733431933 
	990.1467135830840789 3459.56646579722792 13669.27407396443778 
	993.0183086209109433 3402.187104860223826 13615.35852821344997 
	996.2831762112086835 3336.949488341303095 13571.30267848231961 
	999.857625249916282 3265.525907076794738 13538.23582992532283 
	1003.65003472995943 3189.747104874536944 13517.00559772188899 
	1006.25879499252585 3137.619630515489462 13511.10599750286201 
	1007.566589563884691 3111.487667006359516 13510.25746935760799 
	1124.930164868576867 3101.459208491478421 13510.00000000014006 
	1125.368102485288091 3075.242925468860903 13509.99998041480831 
	1126.243970087771459 3022.810813494291324 13514.21339492346124 
	1127.523890598649814 2946.182606780829701 13533.01149165290371 
	1128.7369132526469 2873.543024697820329 13563.80463887923361 
	1129.851756482926021 2806.757680566659474 13605.80190529905667 
	1130.839666939338713 2747.542048550862546 13657.92453893481252 
	1131.675165518726772 2697.417134247284139 13718.8337055787415 
	1132.336703835307389 2657.670445106844454 13786.96487869134762 
	1132.807220152707714 2629.322908788871246 13860.56802651882754 
	1133.074579375963367 2613.102652351173674 13937.75256415674448 
	1133.131886040656354 2609.426298869085713 14016.53591589244024 
	1132.977662150526839 2618.388266435667447 14094.89444042327159 
	1132.615885297384011 2639.758343191685071 14170.81541085450954 
	1132.055886074696673 2672.987600991327326 14242.34871428842598 
	1131.312107432146149 2717.222495705677375 14307.65694301986696 
	1130.403732177226857 2771.326791989999947 14365.06259067004248 
	1129.354188231123317 2833.91074932806896 14413.09114095598125 
	1128.190544398783459 2903.366819658044278 14450.50894229946789 
	1126.942812236906775 2977.910939623274317 14476.35489541555762 
	1125.64317202537768 3055.62835678661304 14489.96513994584348 
	1124.325142805120777 3134.522812686632278 14490.99010603473653 
	1123.022717887983163 3212.567819390464138 14479.40349286690071 
	1121.769488134644234 3287.758712425804788 14455.50294355451842 
	1120.597775612219493 3358.164143034789504 14419.90239905648195 
	1119.537799975296139 3421.975687097206446 14373.51632754939419 
	1118.616899070370664 3477.554296449931826 14317.53623436246744 
	1117.858823865032036 3523.472399440414392 14253.40005587386077 
	1117.283125886417338 3558.550569311433264 14182.75522355152862 
	1116.904652967519041 3581.887818550328575 14107.41634691270156 
	1116.733166306521753 3592.884741067696268 14029.31860239524758 
	1116.773088715712902 3591.258907779397759 13950.46802543180638 
	1117.023390552496721 3577.052120180586371 13872.88998256098603 
	1117.477616275903301 3550.629335531173183 13798.57714715219299 
	1118.12405093822349 3512.669291613069618 13729.43831507727191 
	1118.94602233821729 3464.147070688850818 13667.24937504289119 
	1119.922330966709069 3406.309055091920982 13613.60769309574789 
	1121.027796940788221 3340.640900861067166 13569.89108255381143 
	1122.23390875712812 3268.829415218800023 13537.22241490411943 
	1123.509561101520376 3192.719081541386004 13516.44077455872866 
	1124.384418948973916 3140.416512418180446 13510.86687230774987 
	1124.822316307198889 3114.210292200765252 13510.18583116160335 
	1241.791762037868239 3101.457232540128643 13510.00000000014006 
	1241.354277943911939 3075.214004784566441 13509.99998037455589 
	1240.479317310547231 3022.728005189395844 13514.22205479281001 
	1239.20051594135316 2946.025194302713317 13533.05845469144697 
	1237.988141184097913 2873.323198795389999 13563.91324422677644 
	1236.873267364003596 2806.493068981966189 13605.99228687903997 
	1235.884473385509864 2747.254954252293373 13658.21251821430633 
	1235.047105727230246 2697.133561980977447 13719.22985209060425 
	1234.382629367139089 2657.418952650953088 13787.47377611171214 
	1233.908077377778454 2629.133324536544023 13861.18777505387152 
	1233.635614350056585 2613.004706358578005 13938.4745417981012 
	1233.572224555480489 2609.448218027910116 14017.34481207441786 
	1233.719532915873287 2618.555386362731952 14095.7685660513489 
	1234.073763349539604 2640.091789556126969 14171.72727888407826 
	1234.625835567032937 2673.503091342183779 14243.26587533665588 
	1235.361597833912811 2717.929309448817548 14308.5430512119874 
	1236.262189734161666 2772.226951091846331 14365.87866636194485 
	1237.304525635216578 2834.998445743362936 14413.79698942706636 
	1238.461886461527229 2904.628117589205431 14451.06468123009654 
	1239.704604607229612 2979.323771762363322 14476.72253917245143 
	1241.000824430965167 3057.162823946356184 14490.11018557112402 
	1242.317318838443498 3136.141786001159289 14490.88306449256197 
	1243.620341020628757 3214.227833884672691 14479.02130961441799 
	1244.876489514138257 3289.411130548410711 14454.8302548805259 
	1246.053564409148294 3359.756557056204656 14418.93257482269291 
	1247.121392756792602 3423.453520409597786 14372.25225686902559 
	1248.052602017772415 3478.862556070817845 14315.99081819616549 
	1248.823321725648384 3524.557525679445916 14251.59637930129611 
	1249.413795378561872 3559.362323838736756 14180.72639033076302 
	1249.808886874167456 3582.381149182415356 14105.20496957291471 
	1249.998468505994651 3593.021560588379089 14026.97595219930554 
	1249.977680575266049 3591.009725105287998 13948.05285774960248 
	1249.747055963725415 3576.397465169237421 13870.46706416194684 
	1249.312506472734867 3549.560923658357751 13796.21552230655288 
	1248.685171284281523 3511.190881499445368 13727.20935681135597 
	1247.881131408165174 3462.274975850019473 13665.22467612134642 
	1246.920997510602319 3404.0722811293208 13611.85685797804581 
	1245.829381408604149 3338.080890183033262 13568.47948662530325 
	1244.634265826890669 3265.99939350640534 13536.20899988291239 
	1243.366284657739925 3189.683011186871681 13515.8759513955647 
	1242.494059409156534 3137.291930841280191 13510.62774711263773 
	1242.056806772443679 3111.054926699610405 13510.11419296559689 
	1358.361299683289189 3095.619466477156948 13510.00000000014006 
	1357.047896963465973 3069.393212014439996 13509.99998033429802 
	1354.421114409692109 3016.941160078124085 13514.23071466216061 
	1350.582552141320548 2940.292079562324489 13533.10541772999386 
	1346.944621988967356 2867.649256113608317 13564.02184957431382 
	1343.601139877826881 2800.886022480131942 13606.18266845902508 
	1340.638339360999453 2741.724305282644764 13658.5004974938056 
	1338.1326342026357 2691.689947884098729 13719.62599860246519 
	1336.148649561616821 2652.073396722596044 13787.98267353206393 
	1334.737554701383942 2623.89640857043878 13861.8075235889155 
	1333.935743417180674 2607.885701075069392 13939.19651943946155 
	1333.763895359256594 2604.454209097724288 14018.15370825639548 
	1334.226442690722934 2613.690434844051197 14096.64269167942803 
	1335.311455774138039 2635.356165233843967 14172.63914691363971 
	1336.990950851531807 2668.892615710012706 14244.18303638488396 
	1339.221611778131091 2713.434841942716957 14309.42915940410603 
	1341.945907196487951 2767.834047757554345 14366.6947420538454 
	1345.093574337552354 2830.687213933886142 14414.50283789814966 
	1348.58343117976915 2900.373283713572164 14451.62042016072519 
	1352.325470228476206 2975.094971753034315 14477.09018292934343 
	1356.223179914594766 3052.925118216935061 14490.25523119640093 
	1360.176033741006904 3131.856392487073663 14490.77602295037832 
	1364.082082978655535 3209.853064569661001 14478.63912636193527 
	1367.840586043615986 3284.903508955741927 14454.15756620653337 
	1371.354606740551617 3355.072086798727923 14417.96275058890569 
	1374.533514360679874 3418.549068306927438 14370.98818618866062 
	1377.29532115390316 3473.697307794122935 14314.44540202985627 
	1379.568796888871475 3519.094467583919595 14249.79270272873146 
	1381.29530596408631 3553.569701764102319 14178.6975571099938 
	1382.430319688696045 3576.233853673513295 14102.99359223312604 
	1382.944564729636113 3586.502388294616139 14024.63330200336168 
	1382.82477810497835 3584.110468092191695 13945.6376900674004 
	1382.074049252491704 3569.119783498157631 13868.04414576290219 
	1380.711740346683882 3541.916961788385379 13793.85389746091823 
	1378.772986935886365 3503.203595716715427 13724.98039854543276 
	1376.307791717133114 3453.978147854120834 13663.19997719980165 
	1373.379735050513318 3395.510201914151367 13610.10602286034373 
	1370.064334615604594 3329.307708086977527 13567.06789069680053 
	1366.447099706089602 3257.078130854813026 13535.19558486170536 
	1362.621318440574669 3180.684263632123475 13515.31112823240073 
	1359.997559070980969 3128.292579164500694 13510.38862191752742 
	1358.684276520149297 3102.068724257145277 13510.04255476958679 
	0 
	
	0 
	0 
	38 0.02564102564102564014 0.05128205128205128027 0.07692307692307692735 0.1025641025641025605 0.1282051282051281937 0.1538461538461538269 0.1794871794871794601 0.2051282051282050933 0.2307692307692307265 0.2564102564102563875 0.2820512820512820484 0.3076923076923077094 0.3333333333333333703 0.3589743589743590313 0.3846153846153846922 0.4102564102564103532 0.4358974358974360142 0.4615384615384616751 0.4871794871794873361 0.512820512820512997 0.538461538461538658 0.5641025641025643189 0.5897435897435899799 0.6153846153846156408 0.6410256410256413018 0.6666666666666669627 0.6923076923076926237 0.7179487179487182846 0.7435897435897439456 0.7692307692307696065 0.7948717948717952675 0.8205128205128209284 0.8461538461538465894 0.8717948717948722503 0.8974358974358979113 0.9230769230769235723 0.9487179487179492332 0.9743589743589748942 
	0 
	0 
	0 
	F 1 F 0 F 1 F 0 } I I I I #
tcoedge-coedge $-1 -1 $-1 $8 $9 $-1 $10 forward $5 $11 0 6.250766387756696574 #
coedge $-1 -1 $-1 $12 $7 $-1 $13 forward $5 $14 #
coedge $-1 -1 $-1 $7 $12 $-1 $15 forward $5 $16 #
tedge-edge $-1 -1 $-1 $17 0 $18 6.250766387756696574 $7 $19 forward @7 unknown 0.0008503927470489880446 #
pcurve $-1 -1 $-1 0 forward { exppc nubs 1 open 2 
	0 1 6.250766387756696574 1 
	0 0 
	0.9999999999999987788 0 
	6.598100159088093679e-08 
	spline forward { ref 0 } I I I I 
	} 0 0 #
tcoedge-coedge $-1 -1 $-1 $9 $8 $-1 $20 forward $5 $21 0 6.270005910518959169 #
edge $-1 -1 $-1 $18 -1.59773522261472456 $22 -1.482133598385839912 $8 $23 forward @7 unknown #
pcurve $-1 -1 $-1 0 forward { exppc nubs 3 open 2 
	-1.59773522261472456 3 -1.482133598385839912 3 
	0.999999999999999889 0 
	0.9999999975121001139 0.03330815819588872628 
	1.000000000000000444 0.06667390754961503851 
	0.999999999999999889 0.1000417136115216848 
	1.901306171563211639e-06 
	spline forward { ref 0 } I I I I 
	} 0 0 #
edge $-1 -1 $-1 $24 -0.1000208620216154198 $17 -1.5309221738928768e-27 $9 $25 forward @7 unknown #
pcurve $-1 -1 $-1 0 forward { exppc nubs 1 open 2 
	-0.1000208620216153504 1 -1.5309221738928768e-27 1 
	0 0.100041713611521671 
	3.29152784036516303e-17 0 
	0.0009308921392903000015 
	spline forward { ref 0 } I I I I 
	} 0 0 #
tvertex-vertex $-1 -1 $-1 $10 $26 1.187497136067470826e-11 #
tvertex-vertex $-1 -1 $-1 $10 $27 1.375166564481332838e-11 #
ellipse-curve $-1 -1 $-1 1008.360864792872349 3095.625040713683575 14000.00000000000364 -0.9987500632136664391 -0.04998310945407013345 2.910911718021270991e-12 -1.431685703323637468e-09 6.984492983974633583e-11 -489.9999999999990337 1 F 0 F 6.250766387756696574 #
tedge-edge $-1 -1 $-1 $22 -1.103493639655126032e-15 $24 6.270005910518959169 $12 $28 forward @7 unknown 0.0008609630508519973803 #
pcurve $-1 -1 $-1 0 forward { exppc nubs 1 open 2 
	0 1 6.270005910518959169 1 
	0.999999999999999889 0.1000417136115216571 
	1.058777983595954977e-15 0.1000417136115216848 
	7.962698735573560819e-08 
	spline forward { ref 0 } I I I I 
	} 0 0 #
tvertex-vertex $-1 -1 $-1 $13 $29 1.18887075982361399e-11 #
ellipse-curve $-1 -1 $-1 1089.19045666900297 480.6980290892163339 13510.12130255227748 -0.0006112071755870253928 3.27953573684192269e-05 -0.9999998126751089567 3040.448483430532633 -0.3154170335237610479 -1.858354622405842482 0.8655747824508279731 F -1.59773522261472456 F -1.482133598385839912 #
tvertex-vertex $-1 -1 $-1 $20 $30 1.956051555550795356e-11 #
ellipse-curve $-1 -1 $-1 1183.301735533046667 -400.7301381421525548 13509.9999999991378 6.183628057126644573e-15 -2.474093879644507086e-13 1 -174.9408707416060906 3496.355178855905706 8.662937034387141466e-10 1 F -0.1000208620216154198 F -1.5309221738928768e-27 #
point $-1 -1 $-1 1008.36086479144069 3095.625040713753151 13510.00000000000364 #
point $-1 -1 $-1 1007.56700864885056 3111.487676737302536 13510.25746910156886 #
ellipse-curve $-1 -1 $-1 1358.360864741130172 3095.619121621357863 14000.00000000000182 0.9987483720445136104 -0.05001689053143942854 -1.10552362173281574e-11 0.322994939510151402 6.449634753447620383 -489.9574449743724927 1 F -1.103493639655126032e-15 F 6.270005910518959169 #
point $-1 -1 $-1 1358.68385968064058 3102.068756374805162 13510.04255502562773 #
point $-1 -1 $-1 1358.360864735722316 3095.619121621677095 13510.00000000000182 #
End-of-ACIS-data 