700 0 1 0           
4 LibG 20 ASM 224.0.1.65535 NT 24 Wed Jul 17 15:51:49 2019 
1000 9.999999999999999547e-07 1.000000000000000036e-10 
body $-1 -1 $-1 $1 $-1 $2 #
lump $-1 -1 $-1 $-1 $3 $0 #
transform $-1 -1 1 0 0 0 1 0 0 0 1 0 0 0 1 no_rotate no_reflect no_shear #
shell $-1 -1 $-1 $-1 $-1 $4 $-1 $1 #
face $-1 -1 $-1 $-1 $5 $3 $-1 $6 forward double out #
loop $-1 -1 $-1 $-1 $7 $4 #
spline-surface $-1 -1 $-1 forward { exactsur full nubs 3 3 open open none none 40 2 
	-1.191870092543629353e-07 3 0.02564102564102564014 1 0.05128205128205128027 1 0.07692307692307692735 1 0.1025641025641025605 1 
	0.1282051282051281937 1 0.1538461538461538269 1 0.1794871794871794601 1 0.2051282051282050933 1 0.2307692307692307265 1 
	0.2564102564102563875 1 0.2820512820512820484 1 0.3076923076923077094 1 0.3333333333333333703 1 0.3589743589743590313 1 
	0.3846153846153846922 1 0.4102564102564103532 1 0.4358974358974360142 1 0.4615384615384616751 1 0.4871794871794873361 1 
	0.512820512820512997 1 0.538461538461538658 1 0.5641025641025643189 1 0.5897435897435899799 1 0.6153846153846156408 1 
	0.6410256410256413018 1 0.6666666666666669627 1 0.6923076923076926237 1 0.7179487179487182846 1 0.7435897435897439456 1 
	0.7692307692307696065 1 0.7948717948717952675 1 0.8205128205128209284 1 0.8461538461538465894 1 0.8717948717948722503 1 
	0.8974358974358979113 1 0.9230769230769235723 1 0.9487179487179492332 1 0.9743589743589748942 1 1.000000000000000444 3 
	-1.191870092543629353e-07 3 0.100041832798530933 3 
	2058.360429732940702 3095.606939704039178 14489.99999999985266 
	2059.66980226491296 3121.752718673197705 14490.00001954493564 
	2062.288524718874214 3174.043825131437188 14485.7952649458839 
	2066.115927922495757 3250.470079496974904 14467.03547138564318 
	2069.744521745170005 3322.926473487159001 14436.30396646830741 
	2073.081303196777299 3389.555907182989358 14394.38847628092299 
	2076.040737769877978 3448.650412629393941 14342.36344034468675 
	2078.546965208474376 3498.695199010609485 14281.56244093312489 
	2080.535742115799167 3538.407442981084841 14213.5440187290078 
	2081.956089259149849 3566.769182335463938 14140.05172201621463 
	2082.771598204307793 3583.053407112468449 14062.96941348461223 
	2082.961364627678449 3586.842696134590824 13984.27298028953373 
	2082.520524156618194 3578.039916760792948 13905.97968520481299 
	2081.460377062866883 3556.870714787206907 13830.09645717505191 
	2079.808098596657601 3523.877730347594934 13758.56844675980756 
	2077.606042390889797 3479.906688166865479 13693.22916517225894 
	2074.910654790452554 3426.084718699429231 13635.75348502185807 
	2071.7910279364487 3363.791465863161648 13587.61470751510569 
	2068.32712869479019 3294.623721976344768 13550.04679663116076 
	2064.60774882780197 3220.354496427381946 13524.01274834133437 
	2060.728228953124926 3142.887567289248636 13510.17990567942979 
	2056.788014632729755 3064.208680878611176 13508.90285242308346 
	2052.888107237912664 2986.33465018430752 13520.21432388062021 
	2049.128474933556845 2911.261656949165626 13543.82436777148723 
	2045.605490147016326 2840.914082602291273 13579.12777670972719 
	2042.409459208249245 2777.095179682641174 13625.21960177024084 
	2039.622307485099554 2721.440848216522681 13680.91834947122334 
	2037.315479351706244 2675.377701921006974 13744.79626755357276 
	2035.548106821180227 2640.086499141845252 13815.21594322770761 
	2034.365493786850948 2616.471875918397927 13890.37227574751523 
	2033.797954726151147 2605.139157020510083 13968.33874740880492 
	2033.860037635521849 2606.378839377156964 14047.11680688599517 
	2034.550151114040546 2620.159145617277318 14124.68709903997296 
	2035.850605159244196 2646.126838687959207 14199.06122800217418 
	2037.728064613236938 2683.616276345333063 14268.33272665680852 
	2040.13440369607747 2731.666474626220861 14330.72592603556404 
	2043.007939496376821 2789.04573840334524 14384.64147178655003 
	2046.275013641709393 2854.283244456080411 14428.69732151768221 
	2049.85187846553481 2925.706704779775464 14461.76417007467717 
	2053.646851038874047 3001.485378666567158 14482.99440227810737 
	2056.257374427490049 3053.612764758697722 14488.89400249714163 
	2057.566052869517534 3079.744684018844055 14489.74253064238655 
	2174.929967303473404 3089.769172894804797 14489.99999999985448 
	2175.368791643321401 3115.985441089892447 14490.00001958519169 
	2176.24643267672127 3168.417523409664682 14485.78660507653876 
	2177.528945012069016 3245.045686788053899 14466.9885083470981 
	2178.744424581792373 3317.685227800982375 14436.19536112076821 
	2179.861526717724246 3384.47053418617179 14394.19809470094515 
	2180.851440046586049 3443.686132753623497 14342.07546106519294 
	2181.688634019681103 3493.811018769139537 14281.16629442126214 
	2182.351516703382458 3533.557685511380441 14213.03512130865056 
	2182.822991830097635 3561.905205898685381 14139.43197348117428 
	2183.090899677149082 3578.12545328411079 14062.24743584325915 
	2183.148330688521582 3581.801804825791351 13983.46408410756158 
	2182.993803674419269 3572.839842480708285 13905.10555957673023 
	2182.631304013186309 3551.469777973432883 13829.18458914549592 
	2182.070180864898248 3518.240539133864786 13757.65128571157584 
	2181.324906048976572 3474.005669601930094 13692.34305698013486 
	2180.414700804230961 3419.901404072878449 13634.93740932995934 
	2179.363040057553462 3357.317482269735592 13586.90885904402239 
	2178.197046986595979 3287.861451337861126 13549.49105770053393 
	2176.94679349109856 3213.31737361779642 13523.6451045844442 
	2175.644524614323927 3135.600000457139686 13510.03486005415652 
	2174.323826917408951 3056.705589182456606 13509.00989396526165 
	2173.018762254842841 2978.660626575685001 13520.59650713310293 
	2171.762989291832127 2903.469775971822855 13544.49705644548339 
	2170.58889542021825 2833.064385034391307 13580.09760094351986 
	2169.526761461591377 2769.25287686044021 13626.48367245060763 
	2168.603980700589091 2713.674298687489681 13682.46376563753438 
	2167.844352390089171 2667.756221363941677 13746.59994412614105 
	2167.267467949422098 2632.678070985040904 13817.24477644847502 
	2166.888205686015681 2609.34083456072949 13892.58365308730026 
	2166.716347071991549 2598.343917849911577 13970.68139760475242 
	2166.756324472343294 2599.969749786968805 14049.53197456819544 
	2167.007106830604698 2614.176528911599689 14127.11001743901579 
	2167.462226261722662 2640.599298182447455 14201.42285284781065 
	2168.109944860785617 2678.559320214228592 14270.56168492272991 
	2168.933557445982387 2727.081513308839021 14332.75062495710881 
	2169.911822351283263 2784.919495850624116 14386.39230690425757 
	2171.019509443874085 2850.587612653315318 14430.10891744619039 
	2172.228050166925641 2922.3990574597251 14462.77758509588239 
	2173.506276819569848 2998.50934794672412 14483.55922544127679 
	2174.382903716361852 3050.811887449357982 14489.13312769225195 
	2174.821687457364987 3077.018092840614372 14489.81416883839847 
	2291.791564472752725 3089.767196191568928 14489.99999999985448 
	2291.354968013795769 3116.010438729309953 14490.00001962544411 
	2290.48178263500904 3168.496467888587176 14485.77794520719544 
	2289.205575615114412 3245.199321984784547 14466.94154530855303 
	2287.99565988600807 3317.901358457136212 14436.08675577322538 
	2286.883046487643696 3384.731525941138443 14394.00771312096185 
	2285.896256143170831 3443.969674081282392 14341.78748178569367 
	2285.060583760428472 3494.091094646535566 14280.7701479094012 
	2284.397450683167335 3533.805726428682192 14212.5262238882915 
	2283.92385540972009 3562.091370577864836 14138.81222494613212 
	2283.651937906587136 3578.219997962228717 14061.52545820190062 
	2283.588668404513101 3581.776488434918065 13982.65518792558396 
	2283.73566872957872 3572.66931512283827 13904.2314339486511 
	2284.089170729023408 3551.132899960491159 13828.27272111592356 
	2284.640112862935439 3517.721579520594787 13756.73412466334776 
	2285.374372484394371 3473.295336553405832 13691.45694878801805 
	2286.273127854188715 3418.997664480369622 13634.12133363805879 
	2287.313340610327032 3356.226134609432393 13586.20301057293727 
	2288.468346324900267 3286.596423657560081 13548.93531876990528 
	2289.708538010157554 3211.900727494198236 13523.27746082755039 
	2291.002125053056716 3134.061631512189706 13509.88981442887962 
	2292.315948124084116 3055.082624974268128 13509.11693550743985 
	2293.61632917120096 2976.996533062800609 13520.97869038558565 
	2294.869934710536654 2901.813193954877988 13545.16974511947592 
	2296.044630284554842 2831.467727674667003 13581.06742517731072 
	2297.110304184787765 2767.77072824014067 13627.74774313097623 
	2298.039639324185373 2712.361661113968694 13684.00918180383633 
	2298.80881347315426 2666.666665463131721 13748.40362069870571 
	2299.398109909702271 2631.861847351929555 13819.27360966924061 
	2299.792422830530995 2608.84300865808973 13894.79503042708893 
	2299.981644567536932 2598.20259084592044 13973.02404780069628 
	2299.960924683903613 2600.214427030977731 14051.94714225039934 
	2299.730794308560689 2614.826694759174188 14129.53293583805498 
	2299.29715252044889 2641.663250952638009 14203.78447769344893 
	2298.67111513699183 2680.03331430820117 14272.79064318864766 
	2297.868729762760722 2728.94924712499369 14334.7753238786554 
	2296.910564477795106 2787.151974287379289 14388.14314202195601 
	2295.821180428526077 2853.143402118067115 14431.52051337469493 
	2294.628502887581362 2925.224939176315729 14463.79100011709124 
	2293.363102997401711 3001.541364339610027 14484.12404860443712 
	2292.492649792904558 3053.932474156841181 14489.37225288736408 
	2292.056284580687588 3080.169493072866771 14489.88580703440493 
	2408.361299504492763 3095.601019475055637 14489.9999999998563 
	2407.048783846076276 3121.827318346493939 14490.00001966569835 
	2404.423775399658098 3174.279459099479482 14485.76928533783939 
	2400.587805664707048 3250.928669404599987 14466.8945822700116 
	2396.952332540490715 3323.571615858869336 14435.978150425688 
	2393.611108589699143 3390.334962542032372 14393.81733154097856 
	2390.650309124000159 3449.496779917614731 14341.49950250619986 
	2388.146296298314155 3499.531222038966007 14280.37400139753663 
	2386.163651624221075 3539.147840282881134 14212.01732646793789 
	2384.753509805866088 3567.324876146923089 14138.19247641108632 
	2383.952240058416464 3583.335610753106266 14060.8034805605439 
	2383.780508065256527 3586.76710854096882 13981.84629174360998 
	2384.242742996057586 3577.530867155010583 13903.35730832057379 
	2385.327023270549034 3555.865100078795876 13827.36085308635847 
	2387.005384030765072 3522.328592815606044 13755.81696361511786 
	2389.234538387300745 3477.786291159882239 13690.57084059589943 
	2391.956993838915878 3423.386993231272754 13633.30525794615642 
	2395.102535071452621 3360.53372062614244 13585.49716210185215 
	2398.590034893028133 3290.847532847552429 13548.37957983927845 
	2402.329546599306923 3216.125718282411526 13522.90981707065839 
	2406.224623804323073 3138.295440029301062 13509.74476880360089 
	2410.174807905738817 3059.364032105421302 13509.22397704962896 
	2414.078219029821412 2981.367227951648147 13521.36087363806837 
	2417.834183632690838 2906.31665648320859 13545.84243379347208 
	2421.345830988917896 2836.147959824291775 13582.03724941109613 
	2424.522591600957639 2772.67087083099068 13629.0118138113412 
	2427.282533092560243 2717.522537961691341 13685.55459797014555 
	2429.554473340697768 2672.125301301221043 13750.20729727127036 
	2431.279816345866038 2637.650008744378283 13821.30244289000984 
	2432.414063491530669 2614.985818457929327 13897.00640776687942 
	2432.927961215596042 2604.717266449193176 13975.36669799664196 
	2432.808255493840079 2607.109190701837633 14054.36230993260506 
	2432.058033677451476 2622.099900679485472 14131.95585423710145 
	2430.696644863888196 2649.302768451594147 14206.14610253908359 
	2428.759200871213579 2688.016200076321638 14275.01960145456724 
	2426.295670625060211 2737.241731291997894 14336.80002280020199 
	2423.369591543857041 2795.709776235309164 14389.89397713965809 
	2420.056430303163324 2861.912382162671292 14432.93210930320492 
	2416.441638444387991 2934.142081700642848 14464.80441513829646 
	2412.618441080108823 3010.536078280500078 14484.6888717676029 
	2409.99645377603747 3062.927851462572562 14489.61137808247258 
	2408.684058205451038 3089.151750774587072 14489.95744523041503 
	0 
	
	0 
	0 
	38 0.02564102564102564014 0.05128205128205128027 0.07692307692307692735 0.1025641025641025605 0.1282051282051281937 0.1538461538461538269 0.1794871794871794601 0.2051282051282050933 0.2307692307692307265 0.2564102564102563875 0.2820512820512820484 0.3076923076923077094 0.3333333333333333703 0.3589743589743590313 0.3846153846153846922 0.4102564102564103532 0.4358974358974360142 0.4615384615384616751 0.4871794871794873361 0.512820512820512997 0.538461538461538658 0.5641025641025643189 0.5897435897435899799 0.6153846153846156408 0.6410256410256413018 0.6666666666666669627 0.6923076923076926237 0.7179487179487182846 0.7435897435897439456 0.7692307692307696065 0.7948717948717952675 0.8205128205128209284 0.8461538461538465894 0.8717948717948722503 0.8974358974358979113 0.9230769230769235723 0.9487179487179492332 0.9743589743589748942 
	0 
	0 
	0 
	F 1 F 0 F 1 F 0 } I I I I #
tcoedge-coedge $-1 -1 $-1 $8 $9 $-1 $10 forward $5 $11 0 6.250766387756693909 #
coedge $-1 -1 $-1 $12 $7 $-1 $13 forward $5 $14 #
coedge $-1 -1 $-1 $7 $12 $-1 $15 forward $5 $16 #
tedge-edge $-1 -1 $-1 $17 -3.907042797884036887e-29 $18 6.250766387756693909 $7 $19 forward @7 unknown 0.0008503927515894431875 #
pcurve $-1 -1 $-1 0 forward { exppc nubs 1 open 2 
	0 1 6.250766387756694797 1 
	0 0 
	0.9999999999999985567 0 
	6.734602185479498157e-08 
	spline forward { ref 0 } I I I I 
	} 0 0 #
tcoedge-coedge $-1 -1 $-1 $9 $8 $-1 $20 forward $5 $21 0 6.270005910518958281 #
edge $-1 -1 $-1 $18 -1.597735222461260207 $22 -1.482133598288559284 $8 $23 forward @7 unknown #
pcurve $-1 -1 $-1 0 forward { exppc nubs 3 open 2 
	-1.597735222461260207 3 -1.482133598288559284 3 
	0.999999999999999778 0 
	0.9999999975121020013 0.03330815819593464788 
	1.000000000000000444 0.06667390754958901766 
	1 0.1000417136115216848 
	1.901302280738355362e-06 
	spline forward { ref 0 } I I I I 
	} 0 0 #
edge $-1 -1 $-1 $24 -0.1000208620216029298 $17 -8.079684314184807497e-17 $9 $25 forward @7 unknown #
pcurve $-1 -1 $-1 0 forward { exppc nubs 1 open 2 
	-0.1000208620216029021 1 -1.530922173891801679e-27 1 
	3.520205039654592686e-16 0.1000417136115216848 
	0 0 
	0.0009308921387370771693 
	spline forward { ref 0 } I I I I 
	} 0 0 #
tvertex-vertex $-1 -1 $-1 $10 $26 1.931954743096830253e-11 #
tvertex-vertex $-1 -1 $-1 $10 $27 1.485537305031871706e-11 #
ellipse-curve $-1 -1 $-1 2058.36086462499452 3095.607283437407659 13999.99999999999818 -0.9987483720445043955 0.05001689053162155368 -1.387099002133459394e-12 -6.857256096282071874e-10 -1.061209786712424881e-10 489.9999999999990337 1 F -3.907042797884036887e-29 F 6.250766387756693909 #
tedge-edge $-1 -1 $-1 $22 0 $24 6.270005910518958281 $12 $28 forward @7 unknown 0.0008609630507988413331 #
pcurve $-1 -1 $-1 0 forward { exppc nubs 1 open 2 
	0 1 6.270005910518958281 1 
	0.999999999999999889 0.1000417136115216571 
	1.173321116998958052e-15 0.1000417136115216848 
	9.07752696365982394e-08 
	spline forward { ref 0 } I I I I 
	} 0 0 #
tvertex-vertex $-1 -1 $-1 $13 $29 1.208391415751786445e-11 #
ellipse-curve $-1 -1 $-1 2139.278902026886499 5710.531562191764351 14489.87869745033277 -0.0006112082844609564381 -3.277468524022776847e-05 0.9999998126751089567 3040.448493837812293 0.2125784098079015472 1.858354623217055579 0.8655747828707278657 F -1.597735222461260207 F -1.482133598288559284 #
tvertex-vertex $-1 -1 $-1 $20 $30 1.73043240282499977e-11 #
ellipse-curve $-1 -1 $-1 2233.419993826879818 6591.956543201579734 14490.00000000086402 6.191996276132055154e-15 2.474091786717379941e-13 -1 -175.0591292025710572 -3496.349259764278486 -8.662937034387141466e-10 1 F -0.1000208620216029298 F -8.079684314184807497e-17 #
point $-1 -1 $-1 2058.360864624308761 3095.607283437301248 14489.99999999999818 #
point $-1 -1 $-1 2057.566471954155077 3079.74467427372474 14489.74253089843296 #
ellipse-curve $-1 -1 $-1 2408.360864580072757 3095.60136434586957 14000.00000000000182 0.9987500632136832035 0.04998310945373311831 2.346771156676961962e-11 0.3227767847823564407 -6.44964567484374296 489.9574449743724927 1 F 0 F 6.270005910518958281 #
point $-1 -1 $-1 2408.683641364855703 3089.151718671026174 14489.95744497437408 #
point $-1 -1 $-1 2408.360864568590387 3095.601364345247021 14490 #
End-of-ACIS-data 