700 0 1 0           
4 LibG 20 ASM 224.0.1.65535 NT 24 Wed Jul 17 15:51:49 2019 
1000 9.999999999999999547e-07 1.000000000000000036e-10 
body $-1 -1 $-1 $1 $-1 $2 #
lump $-1 -1 $-1 $-1 $3 $0 #
transform $-1 -1 1 0 0 0 1 0 0 0 1 0 0 0 1 no_rotate no_reflect no_shear #
shell $-1 -1 $-1 $-1 $-1 $4 $-1 $1 #
face $-1 -1 $-1 $-1 $5 $3 $-1 $6 forward double out #
loop $-1 -1 $-1 $-1 $7 $4 #
spline-surface $-1 -1 $-1 forward { exactsur full nubs 3 3 open open none none 40 2 
	-1.191870092020076435e-07 3 0.02564102564102564014 1 0.05128205128205128027 1 0.07692307692307692735 1 0.1025641025641025605 1 
	0.1282051282051281937 1 0.1538461538461538269 1 0.1794871794871794601 1 0.2051282051282050933 1 0.2307692307692307265 1 
	0.2564102564102563875 1 0.2820512820512820484 1 0.3076923076923077094 1 0.3333333333333333703 1 0.3589743589743590313 1 
	0.3846153846153846922 1 0.4102564102564103532 1 0.4358974358974360142 1 0.4615384615384616751 1 0.4871794871794873361 1 
	0.512820512820512997 1 0.538461538461538658 1 0.5641025641025643189 1 0.5897435897435899799 1 0.6153846153846156408 1 
	0.6410256410256413018 1 0.6666666666666669627 1 0.6923076923076926237 1 0.7179487179487182846 1 0.7435897435897439456 1 
	0.7692307692307696065 1 0.7948717948717952675 1 0.8205128205128209284 1 0.8461538461538465894 1 0.8717948717948722503 1 
	0.8974358974358979113 1 0.9230769230769235723 1 0.9487179487179492332 1 0.9743589743589748942 1 1.000000000000000444 3 
	-1.191870092020076435e-07 3 0.1000418327985308775 3 
	3458.36046602793931 3095.583992532110642 13510.00000000014006 
	3457.051099728440477 3069.438213250832177 13509.99998045506072 
	3454.432389739321934 3017.147106168358278 13514.20473505411064 
	3450.605004753732374 2940.720850890470956 13532.96452861435137 
	3446.97642820278179 2868.264456035324656 13563.69603353169805 
	3443.639662633895114 2801.635021544095252 13605.61152371907156 
	3440.680242147387162 2742.540515392240195 13657.63655965531325 
	3438.174026638169835 2692.495728413605775 13718.43755906687511 
	3436.185259197208779 2652.783483969059944 13786.4559812709922 
	3434.764918814557859 2624.421744276108257 13859.94827798377992 
	3433.94941375113649 2608.137519304707894 13937.03058651538595 
	3433.759648231030042 2604.348230237351345 14015.72701971046445 
	3434.200486603738682 2613.151009716232693 14094.02031479518337 
	3435.260628651301431 2634.320211942529568 14169.90354282494809 
	3436.912899252838088 2667.313196775999586 14241.43155324019426 
	3439.114944977051437 2711.28423948164118 14306.77083482774106 
	3441.810319747732137 2765.106209591587231 14364.24651497814193 
	3444.929931752639732 2827.399463171490879 14412.38529248488885 
	3448.393814506507624 2896.567207884009349 14449.95320336883924 
	3452.113176669644417 2970.836434319573527 14475.98725165866563 
	3455.992678078214794 3048.303364382481959 14489.82009432056475 
	3459.932873643610947 3126.982251732362329 14491.0971475769129 
	3463.83276247528147 3204.856283356300082 14479.78567611937979 
	3467.592376884188525 3279.929277487638501 14456.17563222850913 
	3471.115344901698791 3350.27685267429797 14420.87222329026918 
	3474.311360627696104 3414.095756355796311 14374.78039822975916 
	3477.098499084301693 3469.750088486297955 14319.08165052877121 
	3479.405316237438001 3515.813235331699161 14255.2037324464236 
	3481.172680355458851 3551.104438532158838 14184.78405677229239 
	3482.355287760677129 3574.719062037507229 14109.62772425248477 
	3482.922824119953475 3586.051781070681955 14031.66125259118962 
	3482.860741506091472 3584.812098699236685 13952.88319311400483 
	3482.170631312440946 3571.031792294610568 13875.31290096002704 
	3480.870183457261192 3545.06409891393605 13800.93877199782219 
	3478.992732939777397 3507.574660809023499 13731.66727334318784 
	3476.586405310854843 3459.524461954530125 13669.27407396443232 
	3473.71288318828465 3402.14519749243027 13615.35852821344633 
	3470.445824593871748 3336.907690660911612 13571.30267848231597 
	3466.868976795547042 3265.484229484586649 13538.23582992531919 
	3463.074022285870797 3189.705554693175145 13517.00559772188899 
	3460.463511323071998 3137.578167978764213 13511.10599750285837 
	3459.154839110215107 3111.446248406663926 13510.25746935760799 
	3574.930005028664254 3089.746254281311394 13510.00000000014006 
	3572.747403741119342 3063.617313688595459 13509.99998041480831 
	3568.382238923520163 3011.359885065613526 13514.21339492346306 
	3562.002523680408558 2934.986987424813833 13533.01149165290553 
	3555.954608642667154 2862.589452709536545 13563.80463887923361 
	3550.393696635832839 2796.026690418613271 13605.80190529905667 
	3545.46251092439843 2737.008469083339151 13657.92453893481252 
	3541.287610115731695 2687.050733996017243 13718.83370557873968 
	3537.976143271926048 2647.436707213658792 13786.96487869135126 
	3535.613099035405867 2619.183915796879319 13860.56802651882754 
	3534.25912461962389 2603.018058159861994 13937.7525641567463 
	3533.948969234544165 2599.354362946529818 14016.53591589244024 
	3534.690592273548191 2608.286923774243405 14094.89444042327159 
	3536.464959049051686 2629.586282581388332 14170.81541085450954 
	3539.226529345928611 2662.705323970593327 14242.34871428842598 
	3542.904426246010189 2706.793329045115115 14307.65694301986696 
	3547.404255226572332 2760.717827755547205 14365.06259067004248 
	3552.610526843844127 2823.093688426442895 14413.09114095598125 
	3558.389620821823883 2892.318697241500558 14450.50894229946789 
	3564.593215471235453 2966.614713758969629 14476.35489541555762 
	3571.062094420675294 3044.073345300957953 14489.96513994584529 
	3577.630232958190845 3122.704966986751515 14490.99010603474017 
	3584.129059105279794 3200.489828243781176 14479.40349286690071 
	3590.391780060972906 3275.429933037531555 14455.50294355452024 
	3596.257662975921903 3345.600361189995056 14419.90239905648377 
	3601.576160188898029 3409.198712515919851 14373.51632754939419 
	3606.210773050086573 3464.591403727727084 14317.53623436246744 
	3610.042555165106023 3510.355628905090725 14253.4000558738644 
	3612.973165148338921 3545.3159057173375 14182.75522355152862 
	3614.927390536263374 3568.574268663206567 14107.41634691270156 
	3615.855078084784054 3579.53333378483967 14029.3186023952494 
	3615.732420909438588 3577.911642415489951 13950.46802543180638 
	3614.562569436900048 3563.750889878300768 13872.88998256098603 
	3612.375550481694972 3537.414853393541307 13798.57714715219299 
	3609.22749655372445 3499.580047083694808 13729.43831507727555 
	3605.199205077455645 3451.218342934820157 13667.24937504289301 
	3600.394064879315465 3393.572008667973478 13613.60769309574971 
	3594.935401756463762 3328.121786880586114 13569.89108255381507 
	3588.963316502497946 3256.548898343217388 13537.22241490411943 
	3582.631076962700718 3180.691710656081341 13516.44077455872502 
	3578.277845520990013 3128.563278019410973 13510.86687230775169 
	3576.096209198133693 3102.444353938683435 13510.18583116160335 
	3691.207096864125106 3078.072745333678085 13510.00000000014006 
	3688.150759871370155 3052.004427406555806 13509.99998037455407 
	3682.038138937209169 2999.868244434175722 13514.22205479281729 
	3673.105044337460185 2923.676667788643954 13533.05845469144879 
	3664.637625339652004 2851.459268092903585 13563.91324422677644 
	3656.853671901184498 2785.074636864119384 13605.99228687903997 
	3649.953419817727081 2726.23146842935148 13658.21251821430997 
	3644.11436886527872 2676.444315148762144 13719.22985209060607 
	3639.486721386737827 2636.994643389874909 13787.47377611171396 
	3636.189517261981564 2608.897839258853764 13861.18777505387334 
	3634.307572070497827 2592.877076395358472 13938.47454179810484 
	3633.889295231070264 2589.344701557117332 14017.34481207441968 
	3634.945444774709813 2598.391621639294954 14095.76856605135072 
	3637.448850640510955 2619.784964079868587 14171.72727888407826 
	3641.335113649273808 2652.974071187459231 14243.2658753366577 
	3646.504262163075055 2697.104674004707249 14308.5430512119874 
	3652.823323815608092 2751.040880893931444 14365.87866636194667 
	3660.129746155313569 2813.394414855606556 14413.79698942706818 
	3668.235578206466926 2882.560347020224981 14451.06468123010018 
	3676.932305379082209 2956.758406544922764 14476.72253917245143 
	3685.996213351786082 3034.078803614494518 14490.11018557112402 
	3695.194142944495525 3112.531386083055622 14490.88306449256197 
	3704.289487940022354 3190.09686448863431 14479.02130961441981 
	3713.048281564308127 3264.77878693652201 14454.83025488052772 
	3721.245215054691016 3334.654926048713151 14418.93257482269655 
	3728.669433492964345 3397.926755312646492 14372.25225686902559 
	3735.129959810051332 3452.965741343462014 14315.99081819616549 
	3740.460607434662961 3498.355260533508499 14251.59637930129611 
	3744.524255212938897 3532.927061192108795 14180.72639033076302 
	3747.216374631670078 3555.791332676850288 14105.20496957291471 
	3748.467718612187127 3566.359607575133396 14026.97595219930918 
	3748.246102709609204 3564.359907462414412 13948.0528577496043 
	3746.55723290302376 3549.843742441081304 13870.46706416194866 
	3743.444558675320877 3523.184784234176277 13796.2155223065547 
	3738.988155203597671 3485.069247338934019 13727.20935681135597 
	3733.302663276469502 3436.478224637490257 13665.22467612135006 
	3726.534340465940659 3378.66243668830657 13611.85685797804581 
	3718.857297435725286 3313.110027769548651 13568.47948662530689 
	3710.469023589758763 3241.508300651544232 13536.20899988291785 
	3701.585289611970893 3165.700139763690458 13515.87595139556652 
	3695.484870438293456 3113.658128248301637 13510.62774711264319 
	3692.429385328446642 3087.595979700228327 13510.1141929655987 
	3806.610740392426123 3060.62179464708197 13510.00000000013824 
	3802.684559573227943 3034.657847450582267 13509.99998033429802 
	3794.832266348033954 2982.730405476032502 13514.23071466216606 
	3783.357575970192556 2906.847946469100862 13533.10541772999386 
	3772.482639158985876 2834.93167512702621 13564.02184957431382 
	3762.487901721666731 2768.836187676030477 13606.18266845902326 
	3753.631143330119357 2710.266188534390949 13658.5004974938056 
	3746.140789166196555 2660.732260029526969 13719.62599860247064 
	3740.21002450004471 2621.511941934659262 13787.98267353206757 
	3735.991810626501319 2593.616771712049285 13861.80752358891914 
	3733.594940240020151 2577.766198593446006 13939.19651943946155 
	3733.081231429570835 2574.369027387329879 14018.15370825639911 
	3734.463933348308274 2583.512875126377821 14096.64269167942984 
	3737.707384494233338 2604.961911267388132 14172.63914691364334 
	3742.727932464231799 2638.162940051696296 14244.18303638488942 
	3749.396091446971695 2682.259668067681559 14309.42915940410967 
	3757.539881813735519 2736.114789061638021 14366.6947420538454 
	3766.94926567440416 2798.339316397593393 14414.50283789814966 
	3777.381564000615072 2867.328406649251065 14451.62042016072701 
	3788.567715602079261 2941.302750391238988 14477.09018292934343 
	3800.219216529756523 3018.354462672808495 14490.25523119640093 
	3812.035560930542488 3096.496289604887352 14490.77602295038196 
	3823.71199144512957 3173.712861964995227 14478.63912636193709 
	3834.947359257171229 3248.012673929531957 14454.15756620653519 
	3845.451891073905244 3317.479446341072617 14417.96275058890751 
	3854.954662718718282 3380.321549791834968 14370.98818618866244 
	3863.210586582907126 3434.918212844158461 14314.44540202985627 
	3870.006732722115885 3479.861323623812495 14249.79270272873509 
	3875.167820568949082 3513.991746674260412 14178.69755710999561 
	3878.560739624033886 3536.429218417162247 14102.99359223312604 
	3880.09798253181998 3546.595050181920669 14024.6333020033635 
	3879.739901997169 3544.227053260276534 13945.63769006740222 
	3877.495733337730144 3529.386301074632229 13868.04414576290401 
	3873.423356286069975 3502.455553968811728 13793.85389746092005 
	3867.627802234183036 3464.129387572747419 13724.9803985454364 
	3860.258545236802547 3415.396278129107486 13663.19997719980165 
	3851.50564732628709 3357.513111349372139 13610.10602286034555 
	3841.594855001111682 3291.97275535043218 13567.06789069680053 
	3830.781782890080194 3220.465597058066578 13535.19558486170718 
	3819.345299017768411 3144.835798776119645 13515.31112823240619 
	3811.502043057045285 3092.96812049263508 13510.38862191753287 
	3807.5762214613992 3067.006548851852585 13510.04255476959406 
	0 
	
	0 
	0 
	38 0.02564102564102564014 0.05128205128205128027 0.07692307692307692735 0.1025641025641025605 0.1282051282051281937 0.1538461538461538269 0.1794871794871794601 0.2051282051282050933 0.2307692307692307265 0.2564102564102563875 0.2820512820512820484 0.3076923076923077094 0.3333333333333333703 0.3589743589743590313 0.3846153846153846922 0.4102564102564103532 0.4358974358974360142 0.4615384615384616751 0.4871794871794873361 0.512820512820512997 0.538461538461538658 0.5641025641025643189 0.5897435897435899799 0.6153846153846156408 0.6410256410256413018 0.6666666666666669627 0.6923076923076926237 0.7179487179487182846 0.7435897435897439456 0.7692307692307696065 0.7948717948717952675 0.8205128205128209284 0.8461538461538465894 0.8717948717948722503 0.8974358974358979113 0.9230769230769235723 0.9487179487179492332 0.9743589743589748942 
	0 
	0 
	0 
	F 1 F 0 F 1 F 0 } I I I I #
tcoedge-coedge $-1 -1 $-1 $8 $9 $-1 $10 forward $5 $11 0 6.250766387756697462 #
coedge $-1 -1 $-1 $12 $7 $-1 $13 forward $5 $14 #
coedge $-1 -1 $-1 $7 $12 $-1 $15 forward $5 $16 #
tedge-edge $-1 -1 $-1 $17 -3.907042797884036887e-29 $18 6.250766387756697462 $7 $19 forward @7 unknown 0.0008503927447791731747 #
pcurve $-1 -1 $-1 0 forward { exppc nubs 1 open 2 
	0 1 6.250766387756697462 1 
	0 0 
	0.9999999999999988898 0 
	6.658190373742800794e-08 
	spline forward { ref 0 } I I I I 
	} 0 0 #
tcoedge-coedge $-1 -1 $-1 $9 $8 $-1 $20 forward $5 $21 1.092754042188896056e-15 6.270005910518960057 #
edge $-1 -1 $-1 $18 -1.597735222629161234 $22 -1.482133598392248341 $8 $23 forward @7 unknown #
pcurve $-1 -1 $-1 0 forward { exppc nubs 3 open 2 
	-1.597735222629161234 3 -1.482133598392248341 3 
	0.999999999999999889 1.306925384282332225e-16 
	0.9999999975121002249 0.03330815819588575644 
	1.000000000000000444 0.06667390754962221333 
	0.9999999999999996669 0.100041713611521435 
	2.031406352628541545e-06 
	spline forward { ref 0 } I I I I 
	} 0 0 #
edge $-1 -1 $-1 $24 -0.1000208620215999322 $17 -1.548606160204627545e-16 $9 $25 forward @7 unknown #
pcurve $-1 -1 $-1 0 forward { exppc nubs 1 open 2 
	-0.1000208620215999045 1 -1.530922173892680035e-27 1 
	0 0.100041713611521671 
	1.635462526948364402e-16 0 
	0.0009308921382820556237 
	spline forward { ref 0 } I I I I 
	} 0 0 #
tvertex-vertex $-1 -1 $-1 $10 $26 1.181898940354585587e-11 #
tvertex-vertex $-1 -1 $-1 $10 $27 1.485537305031871706e-11 #
ellipse-curve $-1 -1 $-1 3458.360864402571224 3095.583607069103891 14000.00000000000364 -0.9987483720445046176 0.05001689053161714749 2.246087507375214584e-12 -1.09207149989742898e-09 1.965403839676582875e-10 -489.9999999999990337 1 F -3.907042797884036887e-29 F 6.250766387756697462 #
tedge-edge $-1 -1 $-1 $22 1.092754042188896056e-15 $24 6.270005910518960057 $12 $28 forward @7 unknown 0.0008609630552344709311 #
pcurve $-1 -1 $-1 0 forward { exppc nubs 1 open 2 
	0 1 6.270005910518960057 1 
	1 0.1000417136115216432 
	1.069676851446976827e-15 0.1000417136115216016 
	6.984878567218510411e-08 
	spline forward { ref 0 } I I I I 
	} 0 0 #
tvertex-vertex $-1 -1 $-1 $13 $29 1.92862036838878962e-11 #
ellipse-curve $-1 -1 $-1 3277.62067762668903 485.6583816998530665 13510.12130255228294 -0.0006048757059572609091 9.367564943301882343e-05 -0.9999998126751089567 3025.214738548559581 -303.9783944103729141 -1.858354622277945678 0.8655747823905878269 F -1.597735222629161234 F -1.482133598392248341 #
tvertex-vertex $-1 -1 $-1 $20 $30 1.651099119899133725e-11 #
ellipse-curve $-1 -1 $-1 3283.228830795793783 -400.762001673814666 13509.9999999991378 -1.855728335305460537e-14 -2.467899303931716594e-13 1 175.1320336056849101 3496.345608743114553 8.662937034387141466e-10 1 F -0.1000208620215999322 F -1.548606160204627545e-16 #
point $-1 -1 $-1 3458.360864401479375 3095.583607069300342 13510.00000000000364 #
point $-1 -1 $-1 3459.155257071633969 3111.446216232875486 13510.25746910156886 #
ellipse-curve $-1 -1 $-1 3806.610273177253475 3060.621494956172683 14000.00000000000182 0.9887591971548989056 -0.1495167216119986375 -1.646089857750521963e-13 0.9655367365815848979 6.385127484564050881 -489.9574449743724927 1 F 1.092754042188896056e-15 F 6.270005910518960057 #
point $-1 -1 $-1 3807.575809913835201 3067.006622440737374 13510.04255502562773 #
point $-1 -1 $-1 3806.610273177180716 3060.621494956233164 13510.00000000000182 #
End-of-ACIS-data 