700 0 1 0           
4 LibG 20 ASM 224.0.1.65535 NT 24 Wed Jul 17 15:51:49 2019 
1000 9.999999999999999547e-07 1.000000000000000036e-10 
body $-1 -1 $-1 $1 $-1 $2 #
lump $-1 -1 $-1 $-1 $3 $0 #
transform $-1 -1 1 0 0 0 1 0 0 0 1 0 0 0 1 no_rotate no_reflect no_shear #
shell $-1 -1 $-1 $-1 $-1 $4 $-1 $1 #
face $-1 -1 $-1 $-1 $5 $3 $-1 $6 forward double out #
loop $-1 -1 $-1 $-1 $7 $4 #
spline-surface $-1 -1 $-1 forward { exactsur full nubs 3 3 open open none none 40 2 
	-1.191870091971309307e-07 3 0.02564102564102564014 1 0.05128205128205128027 1 0.07692307692307692735 1 0.1025641025641025605 1 
	0.1282051282051281937 1 0.1538461538461538269 1 0.1794871794871794601 1 0.2051282051282050933 1 0.2307692307692307265 1 
	0.2564102564102563875 1 0.2820512820512820484 1 0.3076923076923077094 1 0.3333333333333333703 1 0.3589743589743590313 1 
	0.3846153846153846922 1 0.4102564102564103532 1 0.4358974358974360142 1 0.4615384615384616751 1 0.4871794871794873361 1 
	0.512820512820512997 1 0.538461538461538658 1 0.5641025641025643189 1 0.5897435897435899799 1 0.6153846153846156408 1 
	0.6410256410256413018 1 0.6666666666666669627 1 0.6923076923076926237 1 0.7179487179487182846 1 0.7435897435897439456 1 
	0.7692307692307696065 1 0.7948717948717952675 1 0.8205128205128209284 1 0.8461538461538465894 1 0.8717948717948722503 1 
	0.8974358974358979113 1 0.9230769230769235723 1 0.9487179487179492332 1 0.9743589743589748942 1 1.000000000000000444 3 
	-1.191870093153160747e-07 3 0.1000418327985309747 3 
	8139.946787503959968 1973.076289687095596 13510.00000000014006 
	8124.097888078431424 1952.240536728996403 13509.99998045506436 
	8092.400362902993038 1910.569390600405995 13514.20473505411246 
	8046.072731190885861 1849.6647773795994 13532.96452861435137 
	8002.151526837338679 1791.923773480072214 13563.69603353169441 
	7961.762476097222134 1738.826314733022627 13605.61152371907156 
	7925.940905260630643 1691.73349267119238 13657.63655965531143 
	7895.605041599288597 1651.852454622570804 13718.43755906687329 
	7871.532499664597708 1620.205491426075014 13786.45598127098856 
	7854.340341990090565 1597.603824237389972 13859.94827798378356 
	7844.469263334604875 1584.626812346939005 13937.03058651538595 
	7842.172293690797233 1581.607101591911032 14015.72701971046081 
	7847.508312369947816 1588.62209764895988 14094.02031479518337 
	7860.34053868815954 1605.491981815044937 14169.90354282494445 
	7880.340038138843738 1631.784320396546718 14241.43155324019244 
	7906.99415412369126 1666.825149482902589 14306.77083482774106 
	7939.619649121547809 1709.716250982107567 14364.24651497814193 
	7977.380218437754593 1759.358177068303803 14412.38529248488703 
	8019.307927596699301 1814.478432846296528 14449.95320336883924 
	8064.328023862566624 1873.664094813111433 14475.98725165866381 
	8111.286485882885245 1935.398028992270383 14489.82009432056839 
	8158.97960526195584 1998.097780344267449 14491.09714757691836 
	8206.184841785623576 2060.156136582650561 14479.78567611937979 
	8251.692161370967369 2119.982326604287209 14456.17563222850913 
	8294.335053440421689 2176.042797475018233 14420.87222329026918 
	8333.0204326373605 2226.900524715019856 14374.78039822975916 
	8366.756658398393483 2271.251848224797413 14319.08165052877121 
	8394.6789541434282 2307.959889619103251 14255.20373244642542 
	8416.071574501485884 2336.08369436663952 14184.78405677229239 
	8430.386152349088661 2354.902351720957995 14109.62772425248113 
	8437.255755363870776 2363.93347416632605 14031.66125259119144 
	8436.504291771479984 2362.945562681259617 13952.88319311400483 
	8428.151024197763036 2351.96394087359522 13875.31290096002522 
	8412.410075868177955 2331.270105805579078 13800.93877199782219 
	8389.684942008050712 2301.394512407174261 13731.66727334318784 
	8360.558146404489889 2263.102975476898791 13669.27407396443232 
	8325.776310996670873 2217.377041421228569 13615.35852821344633 
	8286.231011029824003 2165.388819486025113 13571.30267848231415 
	8242.9359445248665 2108.470967603598183 13538.23582992531919 
	8197.000859460142237 2048.082415766603845 13517.00559772188717 
	8165.402577364032368 2006.541739535521856 13511.10599750285473 
	8149.562079337997602 1985.717031475850717 13510.25746935760799 
	8232.841862331873926 1902.414831427004401 13510.00000000014006 
	8216.281885715136013 1882.086219587257347 13509.99998041481012 
	8183.162219268377157 1841.429348032421785 13514.21339492346306 
	8134.758558263276427 1782.010446477964024 13533.01149165290371 
	8088.874176747132879 1725.684574606905016 13563.80463887923361 
	8046.687432839260509 1673.898440317921086 13605.80190529905667 
	8009.281862042501416 1627.982317708654364 13657.92453893480888 
	7977.618180010298602 1589.115669641442764 13718.83370557873968 
	7952.509632258677811 1558.296880561146509 13786.96487869135126 
	7934.60110009347045 1536.317602215591023 13860.56802651882754 
	7924.352539287240688 1523.742420258259472 13937.75256415674448 
	7922.027166182390829 1520.894350929344 14016.53591589244024 
	7927.684697512463572 1527.846543887108965 14094.89444042327159 
	7941.179816800643493 1544.420403378709807 14170.8154108545059 
	7962.16590692520731 1570.190176259513919 14242.34871428842598 
	7990.103952922549979 1604.493888928975366 14307.65694301986332 
	8024.276386373515379 1646.450352245904696 14365.06259067004248 
	8063.805515778600238 1694.981797588735617 14413.09114095597943 
	8107.676069544454549 1748.841562580129676 14450.50894229946789 
	8154.761272573417045 1806.646115278509114 14476.35489541555762 
	8203.8517866903494 1866.910594193996076 14489.96513994584529 
	8253.686771586188115 1928.086951172956105 14490.99010603474017 
	8302.986268494525575 1988.603717334496423 14479.40349286689889 
	8350.484074845595387 2046.906370551167583 14455.50294355451842 
	8394.960265533076381 2101.497267515795556 14419.90239905648014 
	8435.272525507614773 2150.974114623565129 14373.51632754939419 
	8470.385488943111341 2194.065989435843221 14317.53623436246744 
	8499.397331423855576 2229.665987415253767 14253.40005587386077 
	8521.562932157030446 2256.859655314235169 14182.7552235515268 
	8536.313011313497555 2274.948480833504163 14107.41634691270156 
	8543.268750979234028 2283.467835165283759 14029.3186023952494 
	8542.251524196939499 2282.198907526103085 13950.46802543180638 
	8533.287482243154955 2271.174325142264024 13872.88998256098603 
	8516.606882280279024 2250.677314274441869 13798.57714715219117 
	8492.638172874323573 2221.234424106361075 13729.43831507727191 
	8461.996988537852303 2183.601999485302713 13667.24937504289301 
	8425.470338845361766 2138.746753538250687 13613.60769309574425 
	8383.996387546048936 2087.820926115131442 13569.89108255381143 
	8338.64038092008559 2032.132715165154195 13537.22241490411943 
	8290.567194856299466 1973.112557904544929 13516.44077455872502 
	8257.530239019661167 1932.555392542687059 13510.86687230774987 
	8240.976716503253556 1912.234501211870338 13510.18583116160335 
	8322.199282063696955 1827.102917125661179 13510.00000000014006 
	8304.952546403428641 1807.317859520804632 13509.99998037455589 
	8270.459374670430407 1767.74808806060787 13514.22205479280819 
	8220.051098639483826 1709.921085384973139 13533.05845469144879 
	8172.271905410332693 1655.110514345522461 13563.91324422677644 
	8128.351337608683025 1604.72705556692722 13605.99228687903997 
	8089.41978298533104 1560.06761082265848 13658.21251821430815 
	8056.479206757771863 1522.281719466137247 13719.22985209060062 
	8030.377390063154962 1492.341998553772783 13787.47377611171032 
	8011.786103777290919 1471.019099321863223 13861.1877750538697 
	8001.183821153473218 1458.861872516508583 13938.4745417981012 
	7998.843403029543879 1456.183240306327889 14017.34481207441786 
	8004.82507554186941 1463.052141876965607 14095.76856605135072 
	8018.974880272968221 1479.291759107073858 14171.72727888407826 
	8040.92863693072286 1504.484068238718919 14243.26587533665588 
	8070.121316507266783 1537.980600305676262 14308.54305121198377 
	8105.801583687191851 1578.919133348947071 14365.87866636194485 
	8147.051134213432306 1626.245886737479623 14413.79698942706636 
	8192.808329515439254 1678.742646290199673 14451.06468123009654 
	8241.895520303833109 1735.058121971839228 14476.72253917245143 
	8293.04935589312845 1793.742730986786682 14490.11018557111856 
	8344.95329917066374 1853.28591092388001 14490.88306449255833 
	8396.271510364016649 1912.15500248123476 14479.02130961441617 
	8445.683227531635566 1968.834700899738891 14454.8302548805259 
	8491.916758919043787 2021.86606059682299 14418.93257482269291 
	8533.782212314245044 2069.884048995317698 14372.25225686902559 
	8570.202119044384744 2111.652682889208336 14315.99081819616185 
	8600.239164443739355 2146.096842917846516 14251.59637930129611 
	8623.120311096910882 2172.329947230528887 14180.72639033076121 
	8638.256694002591757 2189.676772012752281 14105.20496957291289 
	8645.258775625767157 2197.690831472580612 14026.97595219930554 
	8643.946370799823853 2196.16586992489465 13948.05285774960066 
	8634.35328349696465 2185.141170194294318 13870.46706416194684 
	8616.726436088822084 2164.900541647351019 13796.21552230655288 
	8591.519513740358889 2135.965014169285041 13727.20935681135416 
	8559.381286728421401 2099.079425246845858 13665.2246761213446 
	8521.138914247647335 2055.193248870978096 13611.85685797804581 
	8477.776648260200091 2005.436146933930786 13568.47948662530689 
	8430.410527210258806 1951.088920315836276 13536.20899988291058 
	8380.259555297463521 1893.550428827189762 13515.8759513955647 
	8345.829645042684206 1854.051474961168196 13510.62774711263773 
	8328.58709711902884 1834.271027107320378 13510.11419296559143 
	8407.572554941441922 1747.516857431668768 13510.00000000013824 
	8389.666982845443272 1728.309256390345809 13509.99998033430165 
	8353.856150655741658 1689.894388997684018 13514.23071466216243 
	8301.525169149452267 1633.75808631578002 13533.10541772999204 
	8251.929398073296397 1580.555888750675194 13564.02184957431382 
	8206.347826565037394 1531.659788940332419 13606.18266845902326 
	8165.956073556288175 1488.330892606153839 13658.50049749380196 
	8131.7958851485173 1451.686697887595528 13719.62599860246519 
	8104.748293811160693 1422.672302773529964 13787.98267353206393 
	8085.510888274516219 1402.036022143288164 13861.8075235889155 
	8074.579823841589132 1390.310089932969731 13939.19651943945792 
	8072.23702544144362 1387.796931640728417 14018.15370825639548 
	8078.54291659455248 1394.561364568628051 14096.64269167942621 
	8093.334860982132341 1410.428926068404053 14172.63914691363971 
	8116.231357037205271 1434.990373148239087 14244.18303638488396 
	8146.641877314119483 1467.612237325844944 14309.42915940410239 
	8183.78209888359379 1507.453162523210722 14366.69474205384358 
	8226.694131939320869 1553.485604624889675 14414.50283789814785 
	8274.27122489786052 1604.522333044068546 14451.62042016072337 
	8325.286308817958343 1659.247050789655532 14477.09018292934343 
	8378.423644945487467 1716.248343307101095 14490.25523119640093 
	8432.312759156673565 1774.056080512553308 14490.77602295037468 
	8485.563788090603339 1831.179333169273832 14478.63912636193527 
	8536.803325352855609 1886.144825698567047 14454.15756620652974 
	8584.709843274711602 1937.534933682191649 14417.96275058890569 
	8628.04777665925576 1984.024246056180118 14370.98818618866062 
	8665.699389454715856 2024.413749014262976 14314.44540202985627 
	8696.693602476070737 2057.661749977999534 14249.79270272872964 
	8720.231038674490264 2082.910744068274198 14178.69755710999198 
	8735.704640007286798 2099.509530160078612 14102.9935922331224 
	8742.715324176455397 2107.030006122879058 14024.63330200335986 
	8741.082277425792199 2105.278210073005084 13945.63769006739676 
	8730.84761794941187 2094.299322888492952 13868.04414576290037 
	8712.275309576845757 2074.376502901281128 13793.85389746091641 
	8685.844353976206548 2046.023583061798035 13724.98039854543458 
	8652.236436119901555 2009.971818027289373 13663.19997719979983 
	8612.318344772877026 1967.151026331051071 13610.10602286034373 
	8567.119609747916911 1918.665601499205195 13567.06789069679689 
	8517.805976173880481 1865.766057462863046 13535.19558486170536 
	8465.649237620433269 1809.816668056030949 13515.31112823239891 
	8429.879620392041033 1771.446012628756762 13510.38862191752742 
	8411.975686555580978 1752.240168975326696 13510.04255476958679 
	0 
	
	0 
	0 
	38 0.02564102564102564014 0.05128205128205128027 0.07692307692307692735 0.1025641025641025605 0.1282051282051281937 0.1538461538461538269 0.1794871794871794601 0.2051282051282050933 0.2307692307692307265 0.2564102564102563875 0.2820512820512820484 0.3076923076923077094 0.3333333333333333703 0.3589743589743590313 0.3846153846153846922 0.4102564102564103532 0.4358974358974360142 0.4615384615384616751 0.4871794871794873361 0.512820512820512997 0.538461538461538658 0.5641025641025643189 0.5897435897435899799 0.6153846153846156408 0.6410256410256413018 0.6666666666666669627 0.6923076923076926237 0.7179487179487182846 0.7435897435897439456 0.7692307692307696065 0.7948717948717952675 0.8205128205128209284 0.8461538461538465894 0.8717948717948722503 0.8974358974358979113 0.9230769230769235723 0.9487179487179492332 0.9743589743589748942 
	0 
	0 
	0 
	F 1 F 0 F 1 F 0 } I I I I #
tcoedge-coedge $-1 -1 $-1 $8 $9 $-1 $10 forward $5 $11 0 6.25076638775669835 #
coedge $-1 -1 $-1 $12 $7 $-1 $13 forward $5 $14 #
coedge $-1 -1 $-1 $7 $12 $-1 $15 forward $5 $16 #
tedge-edge $-1 -1 $-1 $17 -4.397266184065045365e-16 $18 6.25076638775669835 $7 $19 forward @7 unknown 0.0008503927448833788812 #
pcurve $-1 -1 $-1 0 forward { exppc nubs 1 open 2 
	0 1 6.250766387756699238 1 
	0 0 
	0.9999999999999991118 3.983517041008464233e-16 
	6.995017547104234142e-08 
	spline forward { ref 0 } I I I I 
	} 0 0 #
tcoedge-coedge $-1 -1 $-1 $9 $8 $-1 $20 forward $5 $21 1.911648348988928528e-15 6.270005910518959169 #
edge $-1 -1 $-1 $18 -1.597735222445044068 $22 -1.482133598296344612 $8 $23 forward @7 unknown #
pcurve $-1 -1 $-1 0 forward { exppc nubs 3 open 2 
	-1.597735222445044068 3 -1.482133598296344612 3 
	1 5.8667126851973014e-17 
	0.9999999975121018903 0.03330815819593083149 
	1.000000000000000444 0.06667390754955426768 
	0.999999999999999889 0.1000417136115216848 
	1.972430426232886624e-06 
	spline forward { ref 0 } I I I I 
	} 0 0 #
edge $-1 -1 $-1 $24 -0.1000208620215817801 $17 -1.530922173891871453e-27 $9 $25 forward @7 unknown #
pcurve $-1 -1 $-1 0 forward { exppc nubs 1 open 2 
	-0.1000208620215817523 1 -1.530922173891871453e-27 1 
	9.96297483151821071e-16 0.1000417136115216571 
	1.181851433550970594e-16 0 
	0.000930892138653813153 
	spline forward { ref 0 } I I I I 
	} 0 0 #
tvertex-vertex $-1 -1 $-1 $10 $26 1.183314517660131661e-11 #
tvertex-vertex $-1 -1 $-1 $10 $27 1.386535248253494441e-11 #
ellipse-curve $-1 -1 $-1 8139.946898510549545 1973.075746584830995 14000.00000000000364 -0.7959094414797457384 0.605415692696678609 -1.529884394428494142e-12 6.832891585872858452e-10 -3.405617121643445196e-10 -489.9999999999990337 1 F -4.397266184065045365e-16 F 6.25076638775669835 #
tedge-edge $-1 -1 $-1 $22 1.911648348988928528e-15 $24 6.270005910518959169 $12 $28 forward @7 unknown 0.0008609630509546049729 #
pcurve $-1 -1 $-1 0 forward { exppc nubs 1 open 2 
	0 1 6.270005910518960057 1 
	1 0.1000417136115216848 
	9.435778798781517835e-16 0.1000417136115216848 
	7.593216192932134737e-08 
	spline forward { ref 0 } I I I I 
	} 0 0 #
tvertex-vertex $-1 -1 $-1 $13 $29 1.281245704101206269e-11 #
ellipse-curve $-1 -1 $-1 6516.587418191047618 -78.52867819210506184 13510.12130255222837 -0.0004462273672801864567 0.0004189640600865262177 -0.9999998126751089567 2324.687969189689738 -1959.630816916080221 -1.858354623681353068 0.8655747830505985396 F -1.597735222445044068 F -1.482133598296344612 #
tvertex-vertex $-1 -1 $-1 $20 $30 1.261232464551450325e-11 #
ellipse-curve $-1 -1 $-1 6020.521550026768637 -813.1654556767190343 13509.9999999991378 -1.54712414721223099e-13 -1.931675729517279481e-13 1 2119.425348484463939 2786.24120226120931 8.662937034387141466e-10 1 F -0.1000208620215817801 F -1.530922173891871453e-27 #
point $-1 -1 $-1 8139.946898511232575 1973.075746584490389 13510.00000000000364 #
point $-1 -1 $-1 8149.562406064033894 1985.716768841124804 13510.25746910156886 #
ellipse-curve $-1 -1 $-1 8407.572000120471785 1747.516874032217402 14000.00000000000182 0.7314640493216633121 -0.6818800074426258906 -6.940728085505840975e-12 4.403388395027477031 4.723588130474401403 -489.9574449743724927 1 F 1.911648348988928528e-15 F 6.270005910518959169 #
point $-1 -1 $-1 8411.975388515500526 1752.240462162691756 13510.04255502562773 #
point $-1 -1 $-1 8407.572000118017968 1747.516874034572083 13510.00000000000182 #
End-of-ACIS-data 