700 0 1 0           
4 LibG 20 ASM 224.0.1.65535 NT 24 Wed Jul 17 15:51:49 2019 
1000 9.999999999999999547e-07 1.000000000000000036e-10 
body $-1 -1 $-1 $1 $-1 $2 #
lump $-1 -1 $-1 $-1 $3 $0 #
transform $-1 -1 1 0 0 0 1 0 0 0 1 0 0 0 1 no_rotate no_reflect no_shear #
shell $-1 -1 $-1 $-1 $-1 $4 $-1 $1 #
face $-1 -1 $-1 $-1 $5 $3 $-1 $6 forward double out #
loop $-1 -1 $-1 $-1 $7 $4 #
spline-surface $-1 -1 $-1 forward { exactsur full nubs 3 3 open open none none 40 2 
	-1.191870091223505873e-07 3 0.02564102564102564014 1 0.05128205128205128027 1 0.07692307692307692735 1 0.1025641025641025605 1 
	0.1282051282051281937 1 0.1538461538461538269 1 0.1794871794871794601 1 0.2051282051282050933 1 0.2307692307692307265 1 
	0.2564102564102563875 1 0.2820512820512820484 1 0.3076923076923077094 1 0.3333333333333333703 1 0.3589743589743590313 1 
	0.3846153846153846922 1 0.4102564102564103532 1 0.4358974358974360142 1 0.4615384615384616751 1 0.4871794871794873361 1 
	0.512820512820512997 1 0.538461538461538658 1 0.5641025641025643189 1 0.5897435897435899799 1 0.6153846153846156408 1 
	0.6410256410256413018 1 0.6666666666666669627 1 0.6923076923076926237 1 0.7179487179487182846 1 0.7435897435897439456 1 
	0.7692307692307696065 1 0.7948717948717952675 1 0.8205128205128209284 1 0.8461538461538465894 1 0.8717948717948722503 1 
	0.8974358974358979113 1 0.9230769230769235723 1 0.9487179487179492332 1 0.9743589743589748942 1 1.000000000000000444 3 
	-1.191870091223505873e-07 3 0.1000418327985308081 3 
	1708.360429800279007 3095.613546277592832 13510.00000000014006 
	1709.668917992799152 3069.467723035981635 13509.99998045506254 
	1712.285871783129096 3017.17652803359988 13514.20473505411064 
	1716.110689990071933 2940.750144256055137 13532.96452861435137 
	1719.736833090288656 2868.293627575996652 13563.69603353169077 
	1723.071360907117651 2801.664081057041585 13605.61152371907156 
	1726.028796702422142 2742.569475546348258 13657.63655965530779 
	1728.533331455595089 2692.524604424669178 13718.43755906687147 
	1730.520765159337543 2652.812293209745803 13786.45598127098674 
	1731.9401530118962 2624.450505830644943 13859.94827798377992 
	1732.755111169013389 2608.166253479683292 13937.03058651538231 
	1732.944749425699911 2604.376958041187208 14015.72701971045899 
	1732.504206694671211 2613.179752320664193 14094.02031479518155 
	1731.444775615558683 2634.34899013990298 14169.90354282494263 
	1729.793613084648769 2667.342030446288845 14241.4315532401888 
	1727.593044129554983 2711.31314708285845 14306.77083482773742 
	1724.899476971755348 2765.135207686636477 14364.24651497813647 
	1721.781957088099716 2827.428566003605283 14412.38529248488521 
	1718.320397335529151 2896.596427011649212 14449.9532033688356 
	1714.603529507147869 2970.865778320141089 14475.98725165865835 
	1710.726629828322302 3048.332838632448784 14489.82009432056475 
	1706.789076696306665 3127.011858269459935 14491.09714757691108 
	1702.891803266903935 3204.886020827283573 14479.78567611937615 
	1699.134710187319115 3279.959141182964686 14456.17563222850549 
	1695.614104795758749 3350.306834648863514 14420.87222329026918 
	1692.420232430031092 3414.125845632589062 14374.78039822975188 
	1689.634963126257844 3469.780271337772319 14319.08165052876575 
	1687.329693005633089 3515.843495631670976 14255.20373244642178 
	1685.563514143994553 3551.134758169166616 14184.78405677229057 
	1684.381699836791313 3574.74942137907783 14109.62772425247931 
	1683.814544087311788 3586.082159466575376 14031.6612525911878 
	1683.876585066394455 3584.842475010783801 13952.88319311399937 
	1684.566232447939456 3571.062145436573701 13875.31290096002522 
	1685.865808177165263 3545.094408394989387 13800.93877199781855 
	1687.741999610467701 3507.604907257028572 13731.66727334318784 
	1690.146713471660405 3459.554627613097637 13669.27407396442868 
	1693.018308509487724 3402.175266676092633 13615.3585282134427 
	1696.283176099785123 3336.937650157172357 13571.30267848231233 
	1699.857625138494086 3265.514068892664 13538.23582992531556 
	1703.650034618537347 3189.735266690404842 13517.00559772188535 
	1706.258794881102176 3137.607792331358723 13511.10599750285292 
	1707.56658945246113 3111.475828822229232 13510.25746935760799 
	1824.930164757155353 3101.447370307349502 13510.00000000014006 
	1825.368102373865895 3075.231087284731984 13509.99998041480831 
	1826.24396997634949 3022.798975310163314 13514.2133949234576 
	1827.523890487228527 2946.170768596700327 13533.01149165290371 
	1828.736913141223567 2873.5311865136905 13563.80463887923179 
	1829.851756371504734 2806.7458423825301 13605.80190529905485 
	1830.839666827916972 2747.530210366733172 13657.92453893480888 
	1831.675165407303211 2697.40529606315522 13718.83370557873968 
	1832.336703723885648 2657.658606922714625 13786.9648786913458 
	1832.807220041285518 2629.311070604741872 13860.56802651882572 
	1833.074579264542081 2613.090814167044755 13937.75256415674266 
	1833.131885929232794 2609.414460684955429 14016.53591589244024 
	1832.977662039105553 2618.376428251538982 14094.89444042326977 
	1832.615885185962497 2639.746505007556152 14170.8154108545059 
	1832.055885963273568 2672.975762807197952 14242.34871428842598 
	1831.312107320724863 2717.210657521547546 14307.6569430198615 
	1830.403732065805116 2771.314953805871482 14365.06259067004248 
	1829.354188119699984 2833.898911143938676 14413.09114095597761 
	1828.190544287360126 2903.354981473914904 14450.50894229946425 
	1826.942812125485943 2977.899101439144943 14476.3548954155558 
	1825.643171913952528 3055.616518602482756 14489.96513994584348 
	1824.325142693700172 3134.510974502503359 14490.99010603473653 
	1823.022717776559375 3212.555981206334309 14479.40349286689707 
	1821.769488023222721 3287.746874241675869 14455.50294355451661 
	1820.597775500797752 3358.152304850660585 14419.90239905648014 
	1819.537799863873943 3421.963848913077072 14373.51632754939055 
	1818.61689895894915 3477.542458265802452 14317.5362343624638 
	1817.858823753609613 3523.460561256284564 14253.40005587386077 
	1817.283125774995369 3558.538731127303436 14182.75522355152498 
	1816.904652856096391 3581.875980366198746 14107.41634691269792 
	1816.733166195099557 3592.872902883565985 14029.31860239524576 
	1816.773088604290706 3591.24706959526884 13950.46802543180456 
	1817.023390441074298 3577.040281996456997 13872.88998256098421 
	1817.477616164480878 3550.617497347043809 13798.57714715219117 
	1818.124050826801295 3512.657453428940244 13729.43831507727191 
	1818.946022226793957 3464.135232504720989 13667.24937504288937 
	1819.922330855286418 3406.297216907791608 13613.60769309574425 
	1821.027796829364888 3340.629062676937338 13569.89108255380961 
	1822.233908645706606 3268.817577034670649 13537.22241490411761 
	1823.509560990099089 3192.70724335725663 13516.44077455872321 
	1824.384418837550811 3140.404674234051527 13510.86687230774987 
	1824.822316195776011 3114.198454016635424 13510.18583116160335 
	1941.79176192644718 3101.445394355999269 13510.00000000014006 
	1941.35427783248997 3075.202166600436158 13509.99998037454861 
	1940.479317199125489 3022.716167005266016 13514.22205479280638 
	1939.2005158299296 2946.013356118583488 13533.05845469143969 
	1937.988141072676626 2873.311360611260625 13563.91324422677098 
	1936.873267252581854 2806.481230797835451 13605.99228687903815 
	1935.884473274088123 2747.243116068163545 13658.21251821430087 
	1935.047105615806913 2697.121723796848983 13719.2298520905988 
	1934.382629255715983 2657.407114466823714 13787.4737761117085 
	1933.908077266356713 2629.121486352414195 13861.18777505386788 
	1933.635614238635071 2612.992868174447722 13938.47454179809756 
	1933.572224444057383 2609.436379843779832 14017.34481207441422 
	1933.719532804450637 2618.543548178602578 14095.76856605134526 
	1934.073763238116271 2640.079951371996685 14171.7272788840728 
	1934.62583545561165 2673.491253158054406 14243.26587533665042 
	1935.36159772248925 2717.91747126468772 14308.54305121198195 
	1936.262189622740152 2772.215112907716048 14365.87866636194121 
	1937.304525523795292 2834.986607559234926 14413.79698942706273 
	1938.461886350103669 2904.616279405076511 14451.06468123009472 
	1939.704604495809008 2979.311933578233038 14476.7225391724478 
	1941.000824319541152 3057.150985762227265 14490.11018557111674 
	1942.317318727022439 3136.129947817029915 14490.88306449255833 
	1943.620340909205424 3214.215995700544227 14479.02130961441253 
	1944.876489402715379 3289.399292364280427 14454.83025488052226 
	1946.053564297724733 3359.744718872076191 14418.93257482268928 
	1947.12139264537177 3423.441682225468867 14372.25225686902195 
	1948.052601906348627 3478.850717886688471 14315.99081819616185 
	1948.82332161422778 3524.545687495314723 14251.59637930129247 
	1949.413795267138994 3559.350485654607382 14180.72639033075757 
	1949.808886762744351 3582.369310998285528 14105.20496957290743 
	1949.998468394573592 3593.009722404248805 14026.97595219930372 
	1949.977680463842944 3590.997886921158624 13948.05285774960066 
	1949.747055852301855 3576.385626985108956 13870.46706416194138 
	1949.312506361313581 3549.549085474226558 13796.21552230654925 
	1948.68517117285819 3511.179043315315084 13727.20935681135052 
	1947.881131296742524 3462.26313766588919 13665.22467612134278 
	1946.920997399181033 3404.060442945190971 13611.85685797804217 
	1945.829381297180134 3338.069051998902978 13568.47948662529961 
	1944.634265715469382 3265.987555322275966 13536.20899988291058 
	1943.36628454631591 3189.671173002741853 13515.87595139556106 
	1942.494059297734339 3137.280092657149908 13510.6277471126341 
	1942.056806661021483 3111.043088515479667 13510.11419296559143 
	2058.361299571866766 3095.607628293025755 13510.00000000013824 
	2057.047896852043777 3069.381373830310167 13509.99998033429802 
	2054.421114298270368 3016.929321893995166 13514.23071466215333 
	2050.582552029897215 2940.28024137819375 13533.1054177299884 
	2046.944621877545387 2867.637417929477579 13564.02184957431382 
	2043.601139766404458 2800.874184296001658 13606.18266845902144 
	2040.638339249577712 2741.71246709851539 13658.50049749380014 
	2038.132634091212822 2691.6781096999689 13719.62599860245973 
	2036.148649450194171 2652.06155853846667 13787.98267353205847 
	2034.737554589962656 2623.884570386308496 13861.80752358891186 
	2033.935743305759615 2607.873862890939108 13939.19651943945246 
	2033.763895247833489 2604.442370913594004 14018.15370825639002 
	2034.226442579300738 2613.678596659921823 14096.64269167942257 
	2035.311455662714479 2635.344327049714593 14172.63914691363607 
	2036.990950740110748 2668.880777525882877 14244.18303638487851 
	2039.221611666707304 2713.423003758587129 14309.42915940409875 
	2041.945907085065983 2767.822209573423606 14366.69474205383995 
	2045.093574226131295 2830.675375749756768 14414.50283789814603 
	2048.583431068345362 2900.36144552944188 14451.62042016071791 
	2052.325470117055374 2975.083133568903122 14477.09018292933615 
	2056.223179803171206 3052.913280032804323 14490.25523119639547 
	2060.176033629586072 3131.844554302943379 14490.77602295037286 
	2064.082082867232202 3209.841226385531627 14478.63912636192799 
	2067.84058593219379 3284.891670771611643 14454.15756620652428 
	2071.354606629128284 3355.060248614598095 14417.96275058889842 
	2074.533514249259497 3418.5372301227967 14370.98818618865516 
	2077.295321042479372 3473.685469609992651 14314.44540202985081 
	2079.568796777450643 3519.082629399789766 14249.79270272872782 
	2081.295305852663205 3553.557863579973855 14178.69755710998834 
	2082.430319577272712 3576.222015489382557 14102.99359223311512 
	2082.944564618215736 3586.490550110486311 14024.63330200335622 
	2082.824777993555017 3584.098629908060047 13945.63769006739312 
	2082.074049141068372 3569.107945314029166 13868.04414576289855 
	2080.711740235262369 3541.905123604256005 13793.85389746091096 
	2078.772986824462805 3503.191757532584234 13724.98039854542549 
	2076.307791605710463 3453.966309669991006 13663.19997719979438 
	2073.379734939091577 3395.498363730021083 13610.10602286033827 
	2070.064334504180806 3329.295869902846789 13567.06789069679508 
	2066.447099594668543 3257.066292670682742 13535.1955848616999 
	2062.621318329150654 3180.672425447993191 13515.31112823239528 
	2059.997558959558773 3128.28074098037041 13510.38862191752196 
	2058.684276408727328 3102.056886073014539 13510.04255476957951 
	0 
	
	0 
	0 
	38 0.02564102564102564014 0.05128205128205128027 0.07692307692307692735 0.1025641025641025605 0.1282051282051281937 0.1538461538461538269 0.1794871794871794601 0.2051282051282050933 0.2307692307692307265 0.2564102564102563875 0.2820512820512820484 0.3076923076923077094 0.3333333333333333703 0.3589743589743590313 0.3846153846153846922 0.4102564102564103532 0.4358974358974360142 0.4615384615384616751 0.4871794871794873361 0.512820512820512997 0.538461538461538658 0.5641025641025643189 0.5897435897435899799 0.6153846153846156408 0.6410256410256413018 0.6666666666666669627 0.6923076923076926237 0.7179487179487182846 0.7435897435897439456 0.7692307692307696065 0.7948717948717952675 0.8205128205128209284 0.8461538461538465894 0.8717948717948722503 0.8974358974358979113 0.9230769230769235723 0.9487179487179492332 0.9743589743589748942 
	0 
	0 
	0 
	F 1 F 0 F 1 F 0 } I I I I #
tcoedge-coedge $-1 -1 $-1 $8 $9 $-1 $10 forward $5 $11 0 6.250766387756696574 #
coedge $-1 -1 $-1 $12 $7 $-1 $13 forward $5 $14 #
coedge $-1 -1 $-1 $7 $12 $-1 $15 forward $5 $16 #
tedge-edge $-1 -1 $-1 $17 0 $18 6.250766387756696574 $7 $19 forward @7 unknown 0.0008503927448677455533 #
pcurve $-1 -1 $-1 0 forward { exppc nubs 1 open 2 
	0 1 6.250766387756696574 1 
	0 0 
	0.9999999999999987788 0 
	6.926470902440813621e-08 
	spline forward { ref 0 } I I I I 
	} 0 0 #
tcoedge-coedge $-1 -1 $-1 $9 $8 $-1 $20 forward $5 $21 0 6.270005910518959169 #
edge $-1 -1 $-1 $18 -1.5977352225090522 $22 -1.482133598324577806 $8 $23 forward @7 unknown #
pcurve $-1 -1 $-1 0 forward { exppc nubs 3 open 2 
	-1.5977352225090522 3 -1.482133598324577806 3 
	0.999999999999999889 2.308781280493029619e-17 
	0.9999999975121014462 0.03330815819591752963 
	1.000000000000000444 0.06667390754958663068 
	1 0.1000417136115215877 
	1.959029754112790849e-06 
	spline forward { ref 0 } I I I I 
	} 0 0 #
edge $-1 -1 $-1 $24 -0.1000208620216029021 $17 -7.406377288015481953e-17 $9 $25 forward @7 unknown #
pcurve $-1 -1 $-1 0 forward { exppc nubs 1 open 2 
	-0.1000208620216028743 1 -1.530922173892862989e-27 1 
	0 0.1000417136115216848 
	1.023870838236143853e-17 0 
	0.0009308921387380353872 
	spline forward { ref 0 } I I I I 
	} 0 0 #
tvertex-vertex $-1 -1 $-1 $10 $26 1.181898940354585587e-11 #
tvertex-vertex $-1 -1 $-1 $10 $27 1.407373428678713722e-11 #
ellipse-curve $-1 -1 $-1 1708.360864679653105 3095.613202529464616 14000.00000000000364 -0.998750063213665884 -0.04998310945407868217 -7.620563218681779646e-13 3.66009089702856758e-10 1.597229015715129208e-10 -489.9999999999990337 1 F 0 F 6.250766387756696574 #
tedge-edge $-1 -1 $-1 $22 -1.103493639655126032e-15 $24 6.270005910518959169 $12 $28 forward @7 unknown 0.0008609630462653311556 #
pcurve $-1 -1 $-1 0 forward { exppc nubs 1 open 2 
	0 1 6.270005910518959169 1 
	0.999999999999999889 0.1000417136115216571 
	1.151551033853919958e-15 0.1000417136115216848 
	7.962282431584292369e-08 
	spline forward { ref 0 } I I I I 
	} 0 0 #
tvertex-vertex $-1 -1 $-1 $13 $29 1.555089882970319229e-11 #
ellipse-curve $-1 -1 $-1 1789.190456484715241 480.6861888845941735 13510.12130255225566 -0.0006112071755870249591 3.279535736841172558e-05 -0.9999998126751089567 3040.448484598424329 -0.3154167827818576408 -1.858354623111441839 0.8655747827828922381 F -1.5977352225090522 F -1.482133598324577806 #
tvertex-vertex $-1 -1 $-1 $20 $30 1.774406833712710127e-11 #
ellipse-curve $-1 -1 $-1 1883.30173542161333 -400.7419763267201347 13509.9999999991378 6.183628057126640629e-15 -2.474093879644815562e-13 1 -174.9408707415944377 3496.355178856344537 8.662937034387141466e-10 1 F -0.1000208620216029021 F -7.406377288015481953e-17 #
point $-1 -1 $-1 1708.360864680019176 3095.613202529624232 13510.00000000000364 #
point $-1 -1 $-1 1707.56700853742791 3111.475838553173617 13510.25746910156886 #
ellipse-curve $-1 -1 $-1 2058.360864629706157 3095.607283437229398 14000.00000000000182 0.9987483720445136104 -0.05001689053143947017 -1.105027014273076506e-11 0.322994939512587842 6.449634753447078594 -489.9574449743724927 1 F -1.103493639655126032e-15 F 6.270005910518959169 #
point $-1 -1 $-1 2058.683859569218384 3102.056918190675788 13510.04255502562773 #
point $-1 -1 $-1 2058.360864624300575 3095.607283437548176 13510.00000000000182 #
End-of-ACIS-data 