700 0 1 0           
4 LibG 20 ASM 224.0.1.65535 NT 24 Wed Jul 17 15:51:49 2019 
1000 9.999999999999999547e-07 1.000000000000000036e-10 
body $-1 -1 $-1 $1 $-1 $2 #
lump $-1 -1 $-1 $-1 $3 $0 #
transform $-1 -1 1 0 0 0 1 0 0 0 1 0 0 0 1 no_rotate no_reflect no_shear #
shell $-1 -1 $-1 $-1 $-1 $4 $-1 $1 #
face $-1 -1 $-1 $-1 $5 $3 $-1 $6 forward double out #
loop $-1 -1 $-1 $-1 $7 $4 #
spline-surface $-1 -1 $-1 forward { exactsur full nubs 3 3 open open none none 40 2 
	-1.191870090843478056e-07 3 0.02564102564102564014 1 0.05128205128205128027 1 0.07692307692307692735 1 0.1025641025641025605 1 
	0.1282051282051281937 1 0.1538461538461538269 1 0.1794871794871794601 1 0.2051282051282050933 1 0.2307692307692307265 1 
	0.2564102564102563875 1 0.2820512820512820484 1 0.3076923076923077094 1 0.3333333333333333703 1 0.3589743589743590313 1 
	0.3846153846153846922 1 0.4102564102564103532 1 0.4358974358974360142 1 0.4615384615384616751 1 0.4871794871794873361 1 
	0.512820512820512997 1 0.538461538461538658 1 0.5641025641025643189 1 0.5897435897435899799 1 0.6153846153846156408 1 
	0.6410256410256413018 1 0.6666666666666669627 1 0.6923076923076926237 1 0.7179487179487182846 1 0.7435897435897439456 1 
	0.7692307692307696065 1 0.7948717948717952675 1 0.8205128205128209284 1 0.8461538461538465894 1 0.8717948717948722503 1 
	0.8974358974358979113 1 0.9230769230769235723 1 0.9487179487179492332 1 0.9743589743589748942 1 1.000000000000000444 3 
	-1.191870090691598034e-07 3 0.1000418327985307526 3 
	5203.108623569922202 2990.68513396588969 14489.99999999986176 
	5207.022756868583201 3016.569410560993219 14490.00001954493564 
	5214.850955877433989 3068.33751678669887 14485.79526494588754 
	5226.29228824151869 3143.999378284834165 14467.03547138564318 
	5237.139315777106276 3215.731084780869423 14436.30396646831105 
	5247.114022799887607 3281.694110521752009 14394.38847628093026 
	5255.96071930904327 3340.197570144431666 14342.36344034469221 
	5263.452634735624997 3389.741823324356119 14281.56244093312671 
	5269.397725018561687 3429.056877136927596 14213.54401872900962 
	5273.643596925679049 3457.134950734694939 14140.05172201621644 
	5276.081414001919256 3473.256305495709057 14062.96941348461587 
	5276.648686537850153 3477.007695166028952 13984.27298028953555 
	5275.330873367759523 3468.292958596666267 13905.97968520481845 
	5272.161754618284249 3447.335484741007804 13830.09645717505737 
	5267.222565804300757 3414.672486406161624 13758.56844675980756 
	5260.639915481301614 3371.141229627634402 13693.22916517226076 
	5252.582539828411427 3317.857571633288444 13635.75348502185989 
	5243.256977354408264 3256.187357549219541 13587.61470751511115 
	5232.902274598757685 3187.711409047642064 13550.04679663116076 
	5221.783858538947243 3114.185002399698988 13524.01274834133801 
	5210.186732775659038 3037.492874651270995 13510.17990567943343 
	5198.408171901081914 2959.600911269722019 13508.90285242308892 
	5186.750101319171335 2882.505753674885909 13520.21432388062203 
	5175.511357849396518 2808.183618388227842 13543.82436777149269 
	5164.980029501681202 2738.539639743068619 13579.12777670973082 
	5155.426070780604277 2675.359034678021544 13625.21960177024448 
	5147.094382814326309 2620.261341429565618 13680.91834947123061 
	5140.198535688525226 2574.658905144904111 13744.79626755357822 
	5134.915293903660313 2539.720674572873122 13815.21594322770943 
	5131.380085287264592 2516.34223784984033 13890.37227574751705 
	5129.683529508416541 2505.122865465735231 13968.33874740881038 
	5129.869115181638335 2506.350148884880582 14047.11680688599699 
	5131.932085100564109 2519.99262856411633 14124.68709903997478 
	5135.819558189711643 2545.700600423404921 14199.06122800217599 
	5141.431884999933573 2582.815079776385573 14268.33272665681034 
	5148.625202182042813 2630.384694138199393 14330.7259260355695 
	5157.215119784712442 2687.190067433160948 14384.64147178655185 
	5166.981449373275609 2751.775087180926676 14428.69732151768221 
	5177.67384238586601 2822.484191108515006 14461.76417007468444 
	5189.018229223162052 2897.504949036965172 14482.99440227811283 
	5196.821918603236554 2949.110972379400209 14488.89400249714163 
	5200.733977045047141 2974.981527886216099 14489.74253064239383 
	5318.512266949174773 2973.234182544239047 14489.99999999986176 
	5321.567244902598759 2999.275541851736762 14490.00001958518988 
	5327.677147851133668 3051.357809430352063 14485.78660507654058 
	5336.606479448150822 3127.47474117267484 14466.9885083470981 
	5345.070750096623669 3199.629688553593496 14436.19536112076821 
	5352.852443972964466 3265.969497918413254 14394.19809470094515 
	5359.75156101009452 3324.790150976740733 14342.07546106519294 
	5365.590788083213738 3374.580797879605143 14281.16629442126214 
	5370.220051585281908 3414.062525931951313 14213.0351213086542 
	5373.52037571762412 3442.221220175919825 14139.4319734811761 
	5375.406939964265803 3458.333609049150709 14062.24743584325734 
	5375.831259143231364 3461.98584291535326 13983.46408410756339 
	5374.782429476013021 3453.084123755441851 13905.10555957673205 
	5372.287408792051792 3431.857114196013299 13829.18458914549228 
	5368.410323629685081 3398.85006368118502 13757.65128571157402 
	5363.250821053518848 3354.91080276085313 13692.3430569801385 
	5356.941507547470792 3301.1679652370658 13634.93740932995934 
	5349.644540809926184 3239.001997577749989 13586.90885904402239 
	5341.547462048049965 3170.009700267289645 13549.49105770053393 
	5332.858375888782575 3095.963211905888329 13523.6451045844442 
	5323.800601791244844 3018.764489613235583 13510.03486005415652 
	5314.606934428095883 2940.396454974096741 13509.00989396526165 
	5305.513660553388945 2862.872060411447819 13520.59650713310293 
	5296.754486132772399 2788.182584287054851 13544.49705644548339 
	5288.554529817945877 2718.246482837899748 13580.09760094352168 
	5281.124537141757173 2654.860112750850476 13626.48367245061127 
	5274.655464137045783 2599.65159012508866 13682.46376563753438 
	5269.313569587252459 2554.03897100624863 13746.59994412613923 
	5265.236142043604559 2519.193827667628284 13817.24477644847502 
	5262.527971429145509 2496.011156214329731 13892.58365308730208 
	5261.258655911908136 2485.086388452697975 13970.68139760475424 
	5261.460813262792726 2486.700098490337041 14049.53197456819726 
	5263.129242663041623 2500.810796850929819 14127.11001743901579 
	5266.221058511066985 2527.055997257841682 14201.42285284781065 
	5270.656792748220141 2564.761528335049661 14270.56168492272991 
	5276.322437510271811 2612.958852221664984 14332.75062495711063 
	5283.072375073156763 2670.409940719847782 14386.39230690425757 
	5290.733121759210917 2735.639086776798649 14430.10891744619039 
	5299.107782211392987 2806.970771448996402 14462.77758509588239 
	5307.981127039603052 2882.57284769661419 14483.55922544127861 
	5314.077082843484277 2934.526321458991788 14489.13312769225195 
	5317.131015379311975 2960.557672331481626 14489.81416883839847 
	5434.789358709525914 2961.560672848480408 14489.99999999986176 
	5436.97598702850064 2987.716304210720409 14490.00001962544229 
	5441.349205633288875 3040.027112545603359 14485.77794520719362 
	5447.740071201435967 3116.4739134476049 14466.94154530855667 
	5453.797315256696493 3188.933279976397444 14436.08675577322538 
	5459.364922675142225 3255.540418799107556 14394.00771312096185 
	5464.299471694115709 3314.580931807016441 14341.78748178569549 
	5468.473850631605274 3364.535207983301461 14280.7701479094012 
	5471.780528962379321 3404.117496970755838 14212.5262238882915 
	5474.134328162118436 3432.309013190081259 14138.81222494613212 
	5475.474615644886399 3448.384155176878267 14061.52545820190244 
	5475.766866698083504 3451.929182233775464 13982.65518792558578 
	5475.003553799368092 3442.852863142290062 13904.23143394865474 
	5473.204340509116264 3421.388824071209456 13828.27272111592538 
	5470.415574916953119 3388.089534930986247 13756.73412466334776 
	5466.709095699100544 3343.812089056375498 13691.45694878801987 
	5462.180381541066708 3289.696142221448554 13634.12133363805697 
	5456.946091597732448 3227.134578832215993 13586.20301057293545 
	5451.141060349044892 3157.737660329707978 13548.93531876990528 
	5444.914824264465096 3083.291578599609238 13523.2774608275522 
	5438.427769749742765 3005.7124811927888 13509.88981442888326 
	5431.847001605399782 2926.997151711108927 13509.11693550744349 
	5425.342038425734245 2849.171614803837201 13520.97869038558565 
	5419.080445825023162 2774.238988636273461 13545.16974511947592 
	5413.223519979054799 2704.127927058896148 13581.06742517731072 
	5407.92213267382067 2640.642978524117552 13627.74774313097805 
	5403.312844892548128 2585.418139459223767 13684.00918180383997 
	5399.514389054535059 2539.87479757868141 13748.40362069870753 
	5396.624610522575495 2505.185147622530621 13819.27360966924061 
	5394.717947164850557 2482.242021150035725 13894.79503042708893 
	5393.843511896507152 2471.635906920744674 13973.02404780069628 
	5394.023827593900023 2473.639753321634998 14051.94714225039934 
	5395.254246966777828 2488.201943964425936 14129.53293583805862 
	5397.503072338196034 2514.94762731658966 14203.78447769344893 
	5400.712372217880329 2553.188365790077569 14272.79064318864766 
	5404.799473734255116 2601.939857119272801 14334.7753238786554 
	5409.659092098276233 2659.947267328730959 14388.14314202195601 
	5415.166043661807635 2725.717540166973322 14431.52051337469857 
	5421.178467383841053 2797.557788116035226 14463.79100011709124 
	5427.54149148660963 2873.619012868563459 14484.12404860443894 
	5431.907948542953818 2925.835103582417105 14489.37225288736408 
	5434.094185368701801 2951.984519345299759 14489.88580703441039 
	5551.358897710209021 2955.722933847668173 14489.99999999986358 
	5552.672294178373704 2981.949188623464579 14490.00001966569835 
	5555.299064228941461 3034.401241185933941 14485.76928533783939 
	5559.137608226167686 3111.050322616748872 14466.89458227001342 
	5562.775521062359985 3183.693146932650052 14435.978150425688 
	5566.118987258884772 3250.456381363122091 14393.81733154097856 
	5569.081773673099633 3309.618099266862828 14341.49950250619986 
	5571.587466904577013 3359.652457262701773 14280.37400139753845 
	5573.571442102042965 3399.269008897133517 14212.01732646793971 
	5574.982530245614726 3427.445997385658302 14138.19247641108814 
	5575.784337713285822 3443.456705072159821 14060.8034805605439 
	5575.956184953235606 3446.888197090466747 13981.84629174360998 
	5575.493639823445847 3437.65197123388225 13903.35730832057561 
	5574.408631904584581 3415.986240585448286 13827.36085308636393 
	5572.729144821409136 3382.449789708934532 13755.81696361511786 
	5570.498494512519756 3337.907562944500114 13690.57084059589943 
	5567.774212061521212 3283.508356480261227 13633.30525794616005 
	5564.62655990301846 3220.655189553610853 13585.49716210185397 
	5561.136719672148502 3150.969118942035948 13548.37957983928209 
	5557.39469843515144 3076.247430010570952 13522.90981707066021 
	5553.49700730171844 2998.417282617559977 13509.74476880360089 
	5549.544172290466122 2919.486007405164855 13509.22397704962714 
	5545.63814164519863 2841.489334391478224 13521.36087363806837 
	5541.879656470310692 2766.438889109471347 13545.84243379347208 
	5538.365652499740463 2696.270310428837092 13582.03724941109795 
	5535.186760010868056 2632.793328162870694 13629.0118138113412 
	5532.424966363548265 2577.645088017332455 13685.55459797014919 
	5530.151501450080104 2532.247927685600189 13750.20729727127036 
	5528.425000592862489 2497.772693093862927 13821.30244289000984 
	5527.289992270796574 2475.108540913897286 13897.00640776688124 
	5526.775749677606655 2464.840006170211382 13975.36669799664378 
	5526.895535732084682 2467.231926401190321 14054.36230993260506 
	5527.646261011184833 2482.222611174177018 14131.95585423709963 
	5529.008563432539631 2509.425433208687082 14206.1461025390854 
	5530.947307615077989 2548.138799742507672 14275.01960145457087 
	5533.4124910997607 2597.364248192735886 14336.80002280020199 
	5536.34053382914135 2655.832194830678873 14389.89397713965991 
	5539.655918483091227 2722.034689448155405 14432.93210930320492 
	5543.273136174956562 2794.264267542570906 14464.80441513829828 
	5547.098899230158167 2870.658135677227165 14484.6888717676029 
	5549.722646110936694 2923.049820770283986 14489.6113780824744 
	5551.035922410684179 2949.273675990690208 14489.95744523041685 
	0 
	
	0 
	0 
	38 0.02564102564102564014 0.05128205128205128027 0.07692307692307692735 0.1025641025641025605 0.1282051282051281937 0.1538461538461538269 0.1794871794871794601 0.2051282051282050933 0.2307692307692307265 0.2564102564102563875 0.2820512820512820484 0.3076923076923077094 0.3333333333333333703 0.3589743589743590313 0.3846153846153846922 0.4102564102564103532 0.4358974358974360142 0.4615384615384616751 0.4871794871794873361 0.512820512820512997 0.538461538461538658 0.5641025641025643189 0.5897435897435899799 0.6153846153846156408 0.6410256410256413018 0.6666666666666669627 0.6923076923076926237 0.7179487179487182846 0.7435897435897439456 0.7692307692307696065 0.7948717948717952675 0.8205128205128209284 0.8461538461538465894 0.8717948717948722503 0.8974358974358979113 0.9230769230769235723 0.9487179487179492332 0.9743589743589748942 
	0 
	0 
	0 
	F 1 F 0 F 1 F 0 } I I I I #
tcoedge-coedge $-1 -1 $-1 $8 $9 $-1 $10 forward $5 $11 0 6.250766387756697462 #
coedge $-1 -1 $-1 $12 $7 $-1 $13 forward $5 $14 #
coedge $-1 -1 $-1 $7 $12 $-1 $15 forward $5 $16 #
tedge-edge $-1 -1 $-1 $17 -7.814085595768073775e-29 $18 6.250766387756697462 $7 $19 forward @7 unknown 0.0008503927515238612076 #
pcurve $-1 -1 $-1 0 forward { exppc nubs 1 open 2 
	0 1 6.250766387756697462 1 
	0 0 
	0.9999999999999990008 0 
	6.824244510698985269e-08 
	spline forward { ref 0 } I I I I 
	} 0 0 #
tcoedge-coedge $-1 -1 $-1 $9 $8 $-1 $20 forward $5 $21 1.103493639655126032e-15 6.270005910518959169 #
edge $-1 -1 $-1 $18 -1.597735222546312395 $22 -1.482133598355630744 $8 $23 forward @7 unknown #
pcurve $-1 -1 $-1 0 forward { exppc nubs 3 open 2 
	-1.597735222546312395 3 -1.482133598355630744 3 
	0.999999999999999778 9.209510565190471878e-17 
	0.999999997512100669 0.03330815819590281224 
	1.000000000000000444 0.0666739075495798722 
	0.9999999999999995559 0.1000417136115216016 
	1.90130435895407191e-06 
	spline forward { ref 0 } I I I I 
	} 0 0 #
edge $-1 -1 $-1 $24 -0.100020862021605747 $17 2.693228104524317396e-17 $9 $25 forward @7 unknown #
pcurve $-1 -1 $-1 0 forward { exppc nubs 1 open 2 
	-0.1000208620216057609 1 -1.530922173891877192e-27 1 
	1.760099539470947602e-16 0.100041713611521671 
	0 1.518800346593426537e-17 
	0.0009308921381944928542 
	spline forward { ref 0 } I I I I 
	} 0 0 #
tvertex-vertex $-1 -1 $-1 $10 $26 1.208391415751786445e-11 #
tvertex-vertex $-1 -1 $-1 $10 $27 1.363797880709171235e-11 #
ellipse-curve $-1 -1 $-1 5203.109090617373113 2990.685432545854837 13999.99999999999818 -0.9887591971548934655 0.1495167216120345532 -3.847488678134424266e-13 -2.079104888252914159e-10 -1.120767478823836531e-10 489.9999999999990337 1 F -7.814085595768073775e-29 F 6.250766387756697462 #
tedge-edge $-1 -1 $-1 $22 1.103493639655126032e-15 $24 6.270005910518959169 $12 $28 forward @7 unknown 0.0008609630508357586339 #
pcurve $-1 -1 $-1 0 forward { exppc nubs 1 open 2 
	0 1 6.270005910518959169 1 
	0.999999999999999889 0.1000417136115216848 
	1.078791642473010528e-15 0.1000417136115216016 
	6.815858764157666776e-08 
	spline forward { ref 0 } I I I I 
	} 0 0 #
tvertex-vertex $-1 -1 $-1 $13 $29 1.128621974215374862e-11 #
ellipse-curve $-1 -1 $-1 5544.787895606274105 5584.453406430330688 14489.87869745034368 -0.000611425612163305366 2.843356778588936712e-05 0.9999998126751089567 3025.267482170429503 -303.4530397128513073 1.858354622934383027 0.8655747827365567471 F -1.597735222546312395 F -1.482133598355630744 #
tvertex-vertex $-1 -1 $-1 $20 $30 1.227373675443231999e-11 #
ellipse-curve $-1 -1 $-1 5726.490532998405797 6452.068929175598896 14490.00000000086402 3.08710086615495533e-14 2.455537076346527539e-13 -1 -523.3814423812403902 -3461.383496629856836 -8.662937034387141466e-10 1 F -0.100020862021605747 F 2.693228104524317396e-17 #
point $-1 -1 $-1 5203.109090617165748 2990.685432545742515 14489.99999999999818 #
point $-1 -1 $-1 5200.734393060967705 2974.981476333777664 14489.74253089843296 #
ellipse-curve $-1 -1 $-1 5551.358499392025806 2955.723320432787204 14000.00000000000182 0.9987483720445062829 -0.05001689053158445836 -1.726599140024466615e-12 -0.3229949440760606083 -6.449634753218593808 489.9574449743724927 1 F 1.103493639655126032e-15 F 6.270005910518959169 #
point $-1 -1 $-1 5551.035504447950188 2949.273685679568189 14489.95744497437408 #
point $-1 -1 $-1 5551.358499392868907 2955.72332043269671 14490 #
End-of-ACIS-data 