700 0 1 0           
4 LibG 20 ASM 224.0.1.65535 NT 24 Wed Jul 17 15:51:49 2019 
1000 9.999999999999999547e-07 1.000000000000000036e-10 
body $-1 -1 $-1 $1 $-1 $2 #
lump $-1 -1 $-1 $-1 $3 $0 #
transform $-1 -1 1 0 0 0 1 0 0 0 1 0 0 0 1 no_rotate no_reflect no_shear #
shell $-1 -1 $-1 $-1 $-1 $4 $-1 $1 #
face $-1 -1 $-1 $-1 $5 $3 $-1 $6 forward double out #
loop $-1 -1 $-1 $-1 $7 $4 #
spline-surface $-1 -1 $-1 forward { exactsur full nubs 3 3 open open none none 40 2 
	-1.191870090612047876e-07 3 0.02564102564102564014 1 0.05128205128205128027 1 0.07692307692307692735 1 0.1025641025641025605 1 
	0.1282051282051281937 1 0.1538461538461538269 1 0.1794871794871794601 1 0.2051282051282050933 1 0.2307692307692307265 1 
	0.2564102564102563875 1 0.2820512820512820484 1 0.3076923076923077094 1 0.3333333333333333703 1 0.3589743589743590313 1 
	0.3846153846153846922 1 0.4102564102564103532 1 0.4358974358974360142 1 0.4615384615384616751 1 0.4871794871794873361 1 
	0.512820512820512997 1 0.538461538461538658 1 0.5641025641025643189 1 0.5897435897435899799 1 0.6153846153846156408 1 
	0.6410256410256413018 1 0.6666666666666669627 1 0.6923076923076926237 1 0.7179487179487182846 1 0.7435897435897439456 1 
	0.7692307692307696065 1 0.7948717948717952675 1 0.8205128205128209284 1 0.8461538461538465894 1 0.8717948717948722503 1 
	0.8974358974358979113 1 0.9230769230769235723 1 0.9487179487179492332 1 0.9743589743589748942 1 1.000000000000000444 3 
	-1.191870090612047876e-07 3 0.1000418327985306693 3 
	6899.323068059742582 2611.357149636958638 14489.99999999986176 
	6910.71465885847465 2634.927212712941127 14490.00001954493564 
	6933.497643748229166 2682.066931861778357 14485.795264945893 
	6966.796197103204577 2750.964157612124382 14467.03547138565045 
	6998.365101286994104 2816.282608388498375 14436.30396646831105 
	7027.39522675043554 2876.348133947339647 14394.38847628093026 
	7053.142420027523258 2929.62102447620191 14342.36344034469403 
	7074.946694007545375 2974.735716718521871 14281.56244093313035 
	7092.249128696706066 3010.535762927782798 14213.54401872901508 
	7104.606202832703275 3036.103484062266034 14140.0517220162219 
	7111.701161653898453 3050.78349055930903 14062.96941348461951 
	7113.35213675045361 3054.199482921589151 13984.27298028954101 
	7109.516807895417514 3046.263897398241625 13905.97968520482027 
	7100.293487882527188 3027.180150596348085 13830.09645717505919 
	7085.918602421730611 2997.43742519414036 13758.5684467598112 
	7066.760629729178618 2957.79813049425502 13693.22916517226258 
	7043.310655150943603 2909.278359225723307 13635.75348502186353 
	7016.169782940949517 2853.121841560255689 13587.61470751511479 
	6986.033727872195414 2790.768063990315568 13550.0467966311644 
	6953.674981651989583 2723.815370293240903 13524.01274834133983 
	6919.923011277850492 2653.979990431643728 13510.17990567943707 
	6885.642996918852077 2583.052047621664769 13508.90285242308892 
	6851.713654344519455 2512.849671260610194 13520.21432388062385 
	6819.004710389190222 2445.172391958953085 13543.82436777149451 
	6788.354608834049031 2381.755013323797357 13579.12777670973628 
	6760.549018182408872 2324.223142920142436 13625.21960177024994 
	6736.300692248545602 2274.051522305761864 13680.91834947123061 
	6716.231199803143681 2232.526224285601529 13744.79626755357822 
	6700.854991607951888 2200.711686401172301 13815.21594322771307 
	6690.56621325695869 2179.423425701472297 13890.37227574752251 
	6685.628601856123169 2169.207134209039396 13968.33874740881402 
	6686.168725527485549 2170.324690942568395 14047.11680688600245 
	6692.172739022505084 2182.747449035533464 14124.6870990399766 
	6703.486738647349739 2206.156970103378626 14199.06122800218145 
	6719.82070726121583 2239.953186743539391 14268.33272665681216 
	6740.755948749313575 2283.26978502236625 14330.72592603557314 
	6765.75581943790985 2334.996408584646815 14384.64147178655912 
	6794.17948868712665 2393.807130361063173 14428.69732151768949 
	6825.298348614642236 2458.194405527744493 14461.76417007468626 
	6858.314754253466162 2526.50784631040051 14482.99440227811647 
	6881.026406963052068 2573.499973782563302 14488.8940024971489 
	6892.411959152881536 2597.05754251993767 14489.74253064239383 
	7004.408915858679393 2560.568359504640284 14489.99999999985994 
	7015.026195880439445 2584.542484093822168 14490.00001958518988 
	7036.260571988629636 2632.490318053941337 14485.78660507654058 
	7067.293949122758931 2702.564919474752969 14466.98850834709629 
	7096.711733675580035 2768.992129721437323 14436.19536112076821 
	7123.758266995360827 2830.065938359246957 14394.19809470094515 
	7147.738713566515798 2884.217625538394259 14342.07546106519112 
	7168.037018968938355 2930.05629796252606 14281.16629442126032 
	7184.13172052382015 2966.404578698080059 14213.03512130865056 
	7195.609348011513248 2992.328858208943984 14139.43197348117428 
	7202.175044607349264 3007.163271849880402 14062.24743584325734 
	7203.660142035741046 3010.526803417630617 13983.46408410756158 
	7200.026493499066419 3002.333071301881773 13905.10555957673023 
	7191.36745356143183 2982.792546989365746 13829.18458914549592 
	7177.905479685448881 2952.407148647287158 13757.65128571157584 
	7159.986417078958766 2911.957348742177601 13692.3430569801385 
	7138.070613671548927 2862.482126832280755 13634.93740932995934 
	7112.72109348829963 2805.252282475802076 13586.90885904402057 
	7084.589092256137519 2741.737793740358939 13549.49105770053393 
	7054.397326844415147 2673.57005974353433 13523.6451045844442 
	7022.921428359471975 2602.499997060394435 13510.03486005415652 
	6990.970015889082788 2530.353066329193098 13509.00989396526165 
	6959.363922814333819 2458.982384234820529 13520.59650713310111 
	6928.915109376257533 2390.221125225985361 13544.49705644548339 
	6900.405803243971604 2325.835435563394185 13580.09760094351986 
	6874.568403972143642 2267.479069133940357 13626.48367245060763 
	6852.066667609696196 2216.65091023816376 13682.46376563753438 
	6833.478654832566463 2174.656474401271225 13746.59994412613923 
	6819.28188066607072 2142.574376076377121 13817.24477644847502 
	6809.841047301379149 2121.22862452791469 13892.58365308730026 
	6805.398675147526774 2111.167459477354896 13970.68139760475242 
	6806.068872805458341 2112.649270119575704 14049.53197456819544 
	6811.83440599694768 2125.635959147387439 14127.11001743901579 
	6822.547140773887804 2149.793922290749379 14201.42285284780883 
	6837.931849478502045 2184.502617888697387 14270.56168492272627 
	6857.59328215827918 2228.870507464152979 14332.75062495711063 
	6881.026319919953494 2281.757953687134432 14386.39230690425575 
	6907.6289562200418 2341.806503020086893 14430.10891744619039 
	6936.717747010864514 2407.473743149325855 14462.77758509588421 
	6967.545428259940309 2477.073055288141404 14483.55922544127679 
	6988.728404095414589 2524.901975910446254 14489.13312769225013 
	6999.341726538984403 2548.866848513671357 14489.81416883839665 
	7112.037209921232716 2515.04053049812137 14489.9999999998563 
	7121.858739333756603 2539.380537798070691 14490.00001962544229 
	7141.501627490111787 2588.060129563936243 14485.77794520719181 
	7170.207531733956785 2659.200326305321596 14466.94154530855667 
	7197.415883388383918 2726.629960766350905 14436.08675577322538 
	7222.426334237673473 2788.6137210816878 14394.00771312096003 
	7244.595029305199205 2843.556244770182275 14341.78748178569367 
	7263.351281434542216 2890.043427453914774 14280.77014790939756 
	7278.212247846891842 2926.878782757761655 14212.52622388828968 
	7288.795364020521447 2953.114247485353644 14138.8122249461303 
	7294.828191036545832 2968.074580323457667 14061.52545820189698 
	7296.155429255486524 2971.374741868351975 13982.65518792558396 
	7292.742916063845769 2962.929804417507512 13904.2314339486511 
	7284.678505234540353 2942.957137602963485 13828.27272111592356 
	7272.169805143917074 2911.970813316026579 13756.73412466334594 
	7255.53883410776416 2870.768374022145053 13691.45694878801442 
	7235.213730421530272 2820.410305017172959 13634.12133363805697 
	7211.717730523393584 2762.192738993652711 13586.20301057293545 
	7185.655699024093337 2697.614095468326468 13548.93531876990164 
	7157.698557371290917 2628.336513731151626 13523.27746082755039 
	7128.56601201252488 2556.143071981549383 13509.8898144288778 
	7099.008026696918932 2482.891893773539778 13509.11693550743985 
	7069.785515885718269 2410.468323005709408 13520.97869038558383 
	7041.650756291983271 2340.736398402498253 13545.16974511947592 
	7015.328020825476415 2275.490876460896288 13581.06742517730891 
	6991.494933491989286 2216.411037717224644 13627.74774313097623 
	6970.765025235513349 2165.017465285723574 13684.00918180383633 
	6953.671939793856836 2122.63290811585739 13748.40362069870571 
	6940.655696160044499 2090.348236277519391 13819.27360966924061 
	6932.051361296625146 2068.994364519669489 13894.79503042708893 
	6928.080424699634932 2059.120866728815145 13973.02404780069628 
	6928.845096856123746 2060.981831704890283 14051.94714225039934 
	6934.325678355594391 2074.529324261736292 14129.53293583805498 
	6944.381067407520277 2099.414620011229999 14203.78447769344712 
	6958.752392567682364 2134.997181721375 14272.79064318864584 
	6977.069677601615695 2180.361147317554241 14334.77532387865722 
	6998.861365192727135 2234.338900899781947 14388.14314202195601 
	7023.566460678733165 2295.541135840733205 14431.52051337469857 
	7050.548959425417706 2362.392577304483439 14463.79100011708942 
	7079.114275092578282 2433.172664387095665 14484.12404860443712 
	7098.722701650721319 2481.763771439481388 14489.37225288736408 
	7108.542019491684187 2506.097956721435366 14489.88580703440493 
	7221.670164510298491 2475.001151287838184 14489.9999999998563 
	7230.678375061107545 2499.666787150711116 14490.00001966569835 
	7248.694639195813579 2548.997629080920433 14485.76928533784121 
	7275.02211408529638 2621.085632036681091 14466.89458227000796 
	7299.973517251218254 2689.405774121180457 14435.97815042568618 
	7322.905395170661905 2752.196197060618033 14393.81733154097492 
	7343.226299393565569 2807.837439140765127 14341.49950250619622 
	7360.412132271888368 2854.894453781563698 14280.37400139753663 
	7374.01965044292956 2892.153583806466941 14212.01732646793789 
	7383.697900241168099 2918.65387306666662 14138.1924764110845 
	7389.197268227199856 2933.711847950162792 14060.80348056054027 
	7390.375919272444662 2936.939145683425068 13981.84629174360634 
	7387.203454583062012 2928.25253047003207 13903.35730832057197 
	7379.761695739241077 2907.876040290787842 13827.36085308635847 
	7368.24257441577447 2876.335208688074545 13755.81696361511422 
	7352.943182240793249 2834.443510644059643 13690.57084059589397 
	7334.258108454391731 2783.281382107336412 13633.30525794615824 
	7312.669262990149946 2724.16835428485183 13585.49716210184852 
	7288.733447453618282 2658.629021386819204 13548.37957983927663 
	7263.067994556854501 2588.353719556710075 13522.90981707065839 
	7236.334846384900629 2515.154931122707694 13509.74476880360271 
	7209.223482134241749 2440.920538555992607 13509.22397704962168 
	7182.433135636948464 2367.565133771064666 13521.36087363806655 
	7156.654761301309009 2296.980638558241026 13545.84243379347208 
	7132.553213588537801 2230.987509705197226 13582.03724941109613 
	7110.750099637642052 2171.287787284619299 13629.0118138113412 
	7091.807747289411054 2119.421197047593978 13685.55459797014555 
	7076.214701992889786 2076.725439093454042 13750.20729727127036 
	7064.373126646128185 2044.30168701766388 13821.30244289000802 
	7056.588429344204997 2022.986187355558741 13897.00640776687942 
	7053.061386546432004 2013.328691803935044 13975.36669799664014 
	7053.88296481773159 2015.578278484715611 14054.3623099325996 
	7059.031974689338313 2029.676927914707221 14131.95585423709963 
	7068.375617178818175 2055.261019447480976 14206.1461025390854 
	7081.67290876118841 2091.670709283575434 14275.01960145456906 
	7098.580896877998384 2137.966949331565047 14336.80002280020199 
	7118.663504108448251 2192.955703682884632 14389.89397713965627 
	7141.402778762845628 2255.218754179729785 14432.93210930320311 
	7166.212239855672124 2323.150240662886517 14464.80441513829646 
	7192.45205392103253 2394.998217039015344 14484.68887176760109 
	7210.447582999227961 2444.272283725054876 14489.6113780824744 
	7219.454969349238127 2468.935662820426842 14489.95744523041503 
	0 
	
	0 
	0 
	38 0.02564102564102564014 0.05128205128205128027 0.07692307692307692735 0.1025641025641025605 0.1282051282051281937 0.1538461538461538269 0.1794871794871794601 0.2051282051282050933 0.2307692307692307265 0.2564102564102563875 0.2820512820512820484 0.3076923076923077094 0.3333333333333333703 0.3589743589743590313 0.3846153846153846922 0.4102564102564103532 0.4358974358974360142 0.4615384615384616751 0.4871794871794873361 0.512820512820512997 0.538461538461538658 0.5641025641025643189 0.5897435897435899799 0.6153846153846156408 0.6410256410256413018 0.6666666666666669627 0.6923076923076926237 0.7179487179487182846 0.7435897435897439456 0.7692307692307696065 0.7948717948717952675 0.8205128205128209284 0.8461538461538465894 0.8717948717948722503 0.8974358974358979113 0.9230769230769235723 0.9487179487179492332 0.9743589743589748942 
	0 
	0 
	0 
	F 1 F 0 F 1 F 0 } I I I I #
tcoedge-coedge $-1 -1 $-1 $8 $9 $-1 $10 forward $5 $11 0 6.25076638775669835 #
coedge $-1 -1 $-1 $12 $7 $-1 $13 forward $5 $14 #
coedge $-1 -1 $-1 $7 $12 $-1 $15 forward $5 $16 #
tedge-edge $-1 -1 $-1 $17 0 $18 6.25076638775669835 $7 $19 forward @7 unknown 0.0008503927448001983485 #
pcurve $-1 -1 $-1 0 forward { exppc nubs 1 open 2 
	0 1 6.25076638775669835 1 
	0 0 
	0.9999999999999988898 0 
	6.919378698688746576e-08 
	spline forward { ref 0 } I I I I 
	} 0 0 #
tcoedge-coedge $-1 -1 $-1 $9 $8 $-1 $20 forward $5 $21 0 6.270005910518961834 #
edge $-1 -1 $-1 $18 -1.597735222461738935 $22 -1.482133598294216981 $8 $23 forward @7 unknown #
pcurve $-1 -1 $-1 0 forward { exppc nubs 3 open 2 
	-1.597735222461738935 3 -1.482133598294216981 3 
	1.000000000000000222 0 
	0.9999999975121024454 0.0333081581959320458 
	1.000000000000000444 0.0666739075495794975 
	1.000000000000000222 0.1000417136115216848 
	2.193310512152948576e-06 
	spline forward { ref 0 } I I I I 
	} 0 0 #
edge $-1 -1 $-1 $24 -0.1000208620216140321 $17 -2.69322810469314497e-16 $9 $25 forward @7 unknown #
pcurve $-1 -1 $-1 0 forward { exppc nubs 1 open 2 
	-0.1000208620216140876 1 -1.530922173891164929e-27 1 
	1.279666184659718776e-15 0.1000417136115216016 
	0 0 
	0.0009308921387077182755 
	spline forward { ref 0 } I I I I 
	} 0 0 #
tvertex-vertex $-1 -1 $-1 $10 $26 1.181898940354585587e-11 #
tvertex-vertex $-1 -1 $-1 $10 $27 1.522464929102900548e-11 #
ellipse-curve $-1 -1 $-1 6899.323602501573077 2611.357296792682064 13999.99999999999818 -0.9003580795742749388 0.4351497771403814441 6.811578218454727746e-13 2.393136355749447933e-10 -2.728825165831949769e-10 489.9999999999990337 1 F 0 F 6.25076638775669835 #
tedge-edge $-1 -1 $-1 $22 -2.684899366557483459e-18 $24 6.270005910518961834 $12 $28 forward @7 unknown 0.0008609630508159216373 #
pcurve $-1 -1 $-1 0 forward { exppc nubs 1 open 2 
	0 1 6.270005910518961834 1 
	1 0.1000417136115216848 
	1.01427352719254853e-15 0.1000417136115216848 
	5.453971324899340334e-08 
	spline forward { ref 0 } I I I I 
	} 0 0 #
tvertex-vertex $-1 -1 $-1 $13 $29 1.331061068631266418e-11 #
ellipse-curve $-1 -1 $-1 7992.55012522038669 4988.16870783309605 14489.87869745034004 -0.0005756884885454626377 0.0002079242918528757529 0.9999998126751089567 2800.323730960321882 -1184.277877660963441 1.858354623300298325 0.8655747829094954104 F -1.597735222461738935 F -1.482133598294216981 #
tvertex-vertex $-1 -1 $-1 $20 $30 1.751365934859600343e-11 #
ellipse-curve $-1 -1 $-1 8422.632204919982541 5763.282858535178093 14490.00000000086402 1.020864973372448558e-13 2.254506366597946533e-13 -1 -1523.30860241817004 -3151.925561742768878 -8.662937034387141466e-10 1 F -0.1000208620216140321 F -2.69322810469314497e-16 #
point $-1 -1 $-1 6899.323602501812275 2611.357296792409215 14489.99999999999818 #
point $-1 -1 $-1 6892.412341331730204 2597.057370281072508 14489.74253089843296 #
ellipse-curve $-1 -1 $-1 7221.669898280103553 2475.001638353645376 14000.00000000000182 0.939316839129717196 -0.3430508354855837383 -1.68643286677985841e-11 -2.215325346036359999 -6.065842711036769863 489.9574449743724927 1 F -2.684899366557483459e-18 F 6.270005910518961834 #
point $-1 -1 $-1 7219.454572934068892 2468.9357956426079 14489.95744497437408 #
point $-1 -1 $-1 7221.6698982878479 2475.001638350763642 14490 #
End-of-ACIS-data 