700 0 1 0           
4 LibG 20 ASM 224.0.1.65535 NT 24 Wed Jul 17 15:51:49 2019 
1000 9.999999999999999547e-07 1.000000000000000036e-10 
body $-1 -1 $-1 $1 $-1 $2 #
lump $-1 -1 $-1 $-1 $3 $0 #
transform $-1 -1 1 0 0 0 1 0 0 0 1 0 0 0 1 no_rotate no_reflect no_shear #
shell $-1 -1 $-1 $-1 $-1 $4 $-1 $1 #
face $-1 -1 $-1 $-1 $5 $3 $-1 $6 forward double out #
loop $-1 -1 $-1 $-1 $7 $4 #
spline-surface $-1 -1 $-1 forward { exactsur full nubs 3 3 open open none none 40 2 
	-1.191870091146141722e-07 3 0.02564102564102564014 1 0.05128205128205128027 1 0.07692307692307692735 1 0.1025641025641025605 1 
	0.1282051282051281937 1 0.1538461538461538269 1 0.1794871794871794601 1 0.2051282051282050933 1 0.2307692307692307265 1 
	0.2564102564102563875 1 0.2820512820512820484 1 0.3076923076923077094 1 0.3333333333333333703 1 0.3589743589743590313 1 
	0.3846153846153846922 1 0.4102564102564103532 1 0.4358974358974360142 1 0.4615384615384616751 1 0.4871794871794873361 1 
	0.512820512820512997 1 0.538461538461538658 1 0.5641025641025643189 1 0.5897435897435899799 1 0.6153846153846156408 1 
	0.6410256410256413018 1 0.6666666666666669627 1 0.6923076923076926237 1 0.7179487179487182846 1 0.7435897435897439456 1 
	0.7692307692307696065 1 0.7948717948717952675 1 0.8205128205128209284 1 0.8461538461538465894 1 0.8717948717948722503 1 
	0.8974358974358979113 1 0.9230769230769235723 1 0.9487179487179492332 1 0.9743589743589748942 1 1.000000000000000444 3 
	-1.19187008939952855e-07 3 0.1000418327985306832 3 
	9246.742581434662497 632.9133363097721485 14489.99999999985994 
	9268.042907678813208 648.1321508570425749 14490.00001954493564 
	9310.643192357347289 678.5695171561426378 14485.79526494588208 
	9372.905791361370575 723.0553591386553762 14467.03547138564136 
	9431.934242274470307 765.2304430862940308 14436.30396646830377 
	9486.215611242610976 804.013796835392327 14394.38847628092117 
	9534.358458572958625 838.4112542686714278 14342.36344034468675 
	9575.128721260345628 867.5410929279802303 14281.56244093312489 
	9607.48131452047528 890.6566129113620036 14213.5440187290078 
	9630.586929457878796 907.1652834689134579 14140.05172201621644 
	9643.853288849673845 916.643929992301878 14062.96941348460859 
	9646.940329878354532 918.8495818859296378 13984.27298028953555 
	9639.768920958451417 913.7257006296713371 13905.97968520481299 
	9622.522890197707966 901.4036290888010399 13830.09645717505009 
	9595.644313232722197 882.199224731993354 13758.5684467598021 
	9559.822181298932264 856.604763110170893 13693.22916517225531 
	9515.974739992570903 825.2763191246224324 13635.75348502185443 
	9465.22595144864863 789.0169495499102368 13587.61470751510933 
	9408.876683289568973 748.756107900927077 13550.0467966311553 
	9348.371362872090685 705.5258193127584718 13524.01274834133255 
	9285.2609515999211 660.4342261538577077 13510.17990567943161 
	9221.163188398828424 614.6371824902581693 13508.90285242308346 
	9157.721121452095758 569.3086255333934105 13520.21432388061658 
	9096.560991171798378 525.6104835540730846 13543.82436777148723 
	9039.250544011643797 484.6628916273478467 13579.12777670972901 
	8987.258845682976244 447.5154786820240815 13625.2196017702372 
	8941.918623900832245 415.1204618674807989 13680.91834947122152 
	8904.392105946102674 388.3082379225657519 13744.79626755357276 
	8875.64122674562168 367.7660972244532331 13815.21594322770579 
	8856.402971140943919 354.0206061505288062 13890.37227574751523 
	8847.170482407556847 347.4241093535978848 13968.33874740880674 
	8848.18042128399793 348.1456979475177604 14047.11680688599336 
	8859.406899523759421 356.1668751065690799 14124.68709903996933 
	8880.562143544830178 371.2820302346423773 14199.06122800217418 
	8911.103870901810296 393.1037093615896083 14268.3327266568067 
	8950.249191478655121 421.0725473701671717 14330.72592603556404 
	8996.994673399229214 454.4716048361185017 14384.64147178655185 
	9050.142072982056561 492.4447517564788086 14428.69732151768039 
	9108.329018116699444 534.0185904351008048 14461.76417007467717 
	9170.064049153332235 578.1274917564821862 14482.99440227810737 
	9212.530954856430981 608.4695604592710652 14488.89400249713981 
	9233.819989934847399 623.6803076109832773 14489.74253064238474 
	9314.594840429102987 537.9469866901401929 14489.99999999986539 
	9335.409513840279033 553.891724244078091 14490.00001958519169 
	9377.038500120368553 585.7809232221510456 14485.78660507653876 
	9437.87812597248012 632.3862897244158603 14466.98850834709447 
	9495.550777483780621 676.565986156254894 14436.19536112076821 
	9548.575160159112784 717.1854384918739242 14394.19809470094515 
	9595.589196484197601 753.2013715010795067 14342.07546106519112 
	9635.385225119231109 783.68876556316809 14281.16629442126032 
	9666.940991602850772 807.864590930715508 14213.03512130865056 
	9689.445915903588684 825.1079253855688194 14139.43197348117064 
	9702.321911916817044 834.9759001791256878 14062.24743584325734 
	9705.238237539932015 837.2150749912010497 13983.46408410755794 
	9698.119990263610816 831.7679469969318689 13905.10555957673023 
	9681.150031016313733 818.7744276047700396 13829.18458914549228 
	9654.764286590921984 798.5682487437729833 13757.65128571157402 
	9619.640551401127595 771.6683910605872825 13692.34305698013486 
	9576.681076215849316 738.7657541779378789 13634.93740932995752 
	9526.989391143380999 700.7054113885438937 13586.90885904402057 
	9471.841958239920132 658.4649045638205962 13549.49105770053211 
	9412.655381934762772 613.1291367616551042 13523.6451045844442 
	9350.950019572923338 565.862507402094252 13510.03486005415471 
	9288.310926848598683 517.879005701412666 13509.00989396526165 
	9226.347141362017283 470.4110304945584176 13520.59650713310111 
	9166.650350220601467 424.6777372861597541 13544.49705644548158 
	9110.754003425770861 381.853725511650282 13580.09760094351805 
	9060.09392333300093 343.0388702501018656 13626.48367245060763 
	9015.971422039438039 309.2300732342486072 13682.46376563753438 
	8979.519874127185176 281.2956587055340947 13746.59994412613742 
	8951.675603427105671 259.9530717291785891 13817.2447764484732 
	8933.153831647810875 245.7504517615689679 13892.58365308729844 
	8924.430306681708316 239.0525547264005581 13970.68139760475242 
	8925.729082505595215 240.0313851710531594 14049.53197456819544 
	8937.01676454628614 248.661779080695851 14127.11001743901579 
	8958.003368384397618 264.7220508398899597 14201.42285284780883 
	8988.149769458143055 287.799687511304171 14270.56168492272627 
	9026.681553342696134 317.3019449007861681 14332.75062495710881 
	9072.608907200406975 352.4710704849865124 14386.39230690425211 
	9124.7520548441953 392.4037724835375229 14430.10891744618675 
	9181.771531893688007 436.0743966245493652 14462.77758509588239 
	9242.202710386109175 482.3613585837049982 14483.55922544127316 
	9283.729561968655617 514.1708651938689627 14489.13312769225013 
	9304.536325342336568 530.1093823799709526 14489.81416883839665 
	9387.201253664143223 446.3776596531643008 14489.99999999986539 
	9407.49315028305864 463.0251017080225324 14490.00001962544593 
	9448.076590967271841 496.3196966424154652 14485.77794520718999 
	9507.384968614036552 544.9763803741360562 14466.94154530855485 
	9563.599652549533857 591.0953495010672896 14436.08675577322902 
	9615.273829003999708 633.4897911445983709 14394.00771312096367 
	9661.077376962306516 671.0686009273539412 14341.78748178569367 
	9699.831311833373547 702.8646333814118634 14280.77014790939756 
	9730.53810239235645 728.0595681230630589 14212.52622388828968 
	9752.407355719160478 746.0049774620980543 14138.8122249461303 
	9764.876159900024504 756.2390129677725099 14061.52545820190062 
	9767.623574015842678 758.4982923193396118 13982.65518792558396 
	9760.578888915966672 752.7246776218191826 13904.2314339486511 
	9743.923447090139234 739.0667715123563539 13828.27272111592538 
	9718.085974547320802 717.8760923497678732 13756.73412466334594 
	9683.731544936877981 689.6980269883511028 13691.45694878801442 
	9641.744459971758261 655.257793976685889 13634.12133363805697 
	9593.205486835229749 615.4417784582175273 13586.20301057293545 
	9539.364038500769311 571.2747191641020663 13548.93531876990528 
	9481.606013068912944 523.8933346448828843 13523.2774608275522 
	9421.418119962923811 474.5170675300452672 13509.88981442887962 
	9360.349611254991032 424.416699777216877 13509.11693550744167 
	9299.972403186455267 374.8816466660860556 13520.97869038558383 
	9241.840614381382693 327.1867712957940739 13545.16974511947592 
	9187.450562265497865 282.5595736837646541 13581.06742517730891 
	9138.202247405663002 242.1485989208306933 13627.74774313097805 
	9095.363317182745959 206.9938774605506921 13684.00918180383269 
	9060.036436388567381 178.0001583173410609 13748.40362069870753 
	9033.130904638741413 155.9136240644757834 13819.27360966923879 
	9015.339251175411846 141.3026869099559235 13894.79503042708711 
	9007.11940950879216 134.5433600899940814 13973.02404780069628 
	9008.682930722125093 135.8095810677663735 14051.94714225039934 
	9019.989538800655282 145.0687355598667239 14129.53293583805498 
	9040.748168182468362 162.0824976280889018 14203.78447769344893 
	9070.424456550628747 186.4129639903469524 14272.79064318864584 
	9108.254500921200815 217.4339254284860488 14334.7753238786554 
	9153.264519392627335 254.3469822926103916 14388.14314202195783 
	9204.295925581838674 296.2021001050291602 14431.52051337469675 
	9260.035121218881613 341.9220359550691342 14463.79100011708942 
	9319.047423166604858 390.3301572305088598 14484.12404860443712 
	9359.558186373385979 423.5636364505139113 14489.37225288736045 
	9379.845350087160114 440.2070304748349372 14489.88580703440311 
	9464.199029054394487 358.6628991825038497 14489.99999999986721 
	9483.933426812027392 375.9861493103231851 14490.00001966570562 
	9523.401878457952989 410.6323477105527786 14485.76928533783757 
	9581.077801827270378 461.2614299430240976 14466.8945822700116 
	9635.73914793037693 509.2442557934373326 14435.97815042568982 
	9685.976295212774858 553.3434311910871202 14393.81733154098038 
	9730.493550273333312 592.4215704831607354 14341.49950250619986 
	9768.142765942096958 625.4708070575965166 14280.37400139753845 
	9797.952923527436724 651.6387612329795047 14212.01732646793789 
	9819.155184513563654 670.2505311409661317 14138.1924764110845 
	9831.202717665655655 680.8260973568701502 14060.80348056054027 
	9833.784803021353582 683.0927036661930742 13981.84629174360998 
	9826.834845568737364 676.9918916318986248 13903.35730832057379 
	9810.53209285086632 662.6810083421047466 13827.36085308636393 
	9785.29701195065536 640.529148234752256 13755.81696361511786 
	9751.780445155487541 611.1076337224156987 13690.57084059589943 
	9710.846823971583945 575.1752801175607601 13633.30525794615824 
	9663.551874423457775 533.6588248972440169 13585.49716210185397 
	9611.115388643387632 487.6290260582852625 13548.37957983927845 
	9554.8897650039562 438.2730460146719906 13522.90981707065839 
	9496.325128180304091 386.863833288711362 13509.74476880360453 
	9436.931928736654299 334.727291677975586 13509.22397704961986 
	9378.241986837481818 283.2080836437136782 13521.36087363806655 
	9321.768984811677001 233.6349498913378966 13545.84243379347208 
	9268.969427512727634 187.2864395916509181 13582.03724941109613 
	9221.205077352931767 145.3579351005219849 13629.01181381134484 
	9179.707832856169262 108.9308216480970657 13685.55459797014919 
	9145.547956552351025 78.94459714740641232 13750.20729727126854 
	9119.606471653443805 56.17264144296415651 13821.30244289000984 
	9102.55243943334608 41.20226993910464586 13897.00640776687578 
	9094.825703353319113 34.41958604726684001 13975.36669799664196 
	9096.625544987064131 35.99952312945129052 14054.36230993260506 
	9107.905544304481737 45.90133275227964305 14131.95585423710145 
	9128.374776939814183 63.86963567295960331 14206.1461025390854 
	9157.505317318018569 89.44100823410084899 14275.01960145456906 
	9194.545855047081204 121.9559351059482424 14336.80002280020199 
	9238.541069952498219 160.5758170802437803 14389.89397713965627 
	9288.356278890933027 204.3046065375403657 14432.93210930320492 
	9342.70667074699486 252.0144705136632979 14464.80441513829646 
	9400.190554469689232 302.4749764929484854 14484.68887176760109 
	9439.6135815720354 337.0813003178265035 14489.6113780824744 
	9459.346173742829706 354.4029654653061812 14489.95744523041321 
	0 
	
	0 
	0 
	38 0.02564102564102564014 0.05128205128205128027 0.07692307692307692735 0.1025641025641025605 0.1282051282051281937 0.1538461538461538269 0.1794871794871794601 0.2051282051282050933 0.2307692307692307265 0.2564102564102563875 0.2820512820512820484 0.3076923076923077094 0.3333333333333333703 0.3589743589743590313 0.3846153846153846922 0.4102564102564103532 0.4358974358974360142 0.4615384615384616751 0.4871794871794873361 0.512820512820512997 0.538461538461538658 0.5641025641025643189 0.5897435897435899799 0.6153846153846156408 0.6410256410256413018 0.6666666666666669627 0.6923076923076926237 0.7179487179487182846 0.7435897435897439456 0.7692307692307696065 0.7948717948717952675 0.8205128205128209284 0.8461538461538465894 0.8717948717948722503 0.8974358974358979113 0.9230769230769235723 0.9487179487179492332 0.9743589743589748942 
	0 
	0 
	0 
	F 1 F 0 F 1 F 0 } I I I I #
tcoedge-coedge $-1 -1 $-1 $8 $9 $-1 $10 forward $5 $11 0 6.250766387756695686 #
coedge $-1 -1 $-1 $12 $7 $-1 $13 forward $5 $14 #
coedge $-1 -1 $-1 $7 $12 $-1 $15 forward $5 $16 #
tedge-edge $-1 -1 $-1 $17 0 $18 6.250766387756695686 $7 $19 forward @7 unknown 0.0008503927514923124422 #
pcurve $-1 -1 $-1 0 forward { exppc nubs 1 open 2 
	0 1 6.250766387756695686 1 
	0 0 
	0.9999999999999987788 0 
	6.6432747654018655e-08 
	spline forward { ref 0 } I I I I 
	} 0 0 #
tcoedge-coedge $-1 -1 $-1 $9 $8 $-1 $20 forward $5 $21 0 6.270005910518961834 #
edge $-1 -1 $-1 $18 -1.597735222605961569 $22 -1.482133598390934504 $8 $23 forward @7 unknown #
pcurve $-1 -1 $-1 0 forward { exppc nubs 3 open 2 
	-1.597735222605961569 3 -1.482133598390934504 3 
	0.999999999999999778 0 
	0.9999999975120996698 0.03330815819588594379 
	1.000000000000000444 0.06667390754959470756 
	0.999999999999999889 0.1000417136115216848 
	2.029046526965973286e-06 
	spline forward { ref 0 } I I I I 
	} 0 0 #
edge $-1 -1 $-1 $24 -0.1000208620216225391 $17 1.077291241825552741e-16 $9 $25 forward @7 unknown #
pcurve $-1 -1 $-1 0 forward { exppc nubs 1 open 2 
	-0.1000208620216224836 1 -4.577463675721103131e-27 1 
	0 0.1000417136115215738 
	3.120634847827856214e-16 1.746613136040397511e-16 
	0.0009308921388942111323 
	spline forward { ref 0 } I I I I 
	} 0 0 #
tvertex-vertex $-1 -1 $-1 $10 $26 1.181898940354585587e-11 #
tvertex-vertex $-1 -1 $-1 $10 $27 1.407373428678713722e-11 #
ellipse-curve $-1 -1 $-1 9246.743120976070713 632.9132091122377233 13999.99999999999636 -0.5813469438521292609 0.8136557815647778025 -2.414645017018077433e-12 -8.024045428101090403e-10 8.807770512930801901e-10 489.9999999999990337 1 F 0 F 6.250766387756695686 #
tedge-edge $-1 -1 $-1 $22 -3.025881586110284535e-15 $24 6.270005910518961834 $12 $28 forward @7 unknown 0.0008609630484825641717 #
pcurve $-1 -1 $-1 0 forward { exppc nubs 1 open 2 
	0 1 6.270005910518961834 1 
	1 0.100041713611521671 
	9.701624631171220616e-16 0.1000417136115216848 
	5.886774096102114017e-08 
	spline forward { ref 0 } I I I I 
	} 0 0 #
tvertex-vertex $-1 -1 $-1 $13 $29 1.276845541108876169e-11 #
ellipse-curve $-1 -1 $-1 11345.9694236022242 2194.202942860479652 14489.87869744838645 -0.0004054343313269650854 0.0004585550675065856925 0.9999998126751089567 1889.245395503585769 -2382.242413706893331 1.858354622589037497 0.8655747825547566165 F -1.597735222605961569 F -1.482133598390934504 #
tvertex-vertex $-1 -1 $-1 $20 $30 1.656239976236148042e-11 #
ellipse-curve $-1 -1 $-1 12095.1103298645321 2668.081037153562647 14489.99999999913234 -1.900181685619551343e-13 -1.585646181379855018e-13 -1 -2848.367208889262656 -2035.167828040444419 8.64127969180117444e-10 1 F -0.1000208620216225391 F 1.077291241825552741e-16 #
point $-1 -1 $-1 9246.743120975268539 632.9132091131184552 14489.99999999999636 #
point $-1 -1 $-1 9233.820242682886601 623.6799731781363789 14489.74253089843114 #
ellipse-curve $-1 -1 $-1 9464.199029044522831 358.6634542587642045 13999.99999999999818 0.6597040166703310726 -0.7515255221142070896 -1.206449771545919949e-11 -4.853139446435330129 -4.260182120200990852 489.9574449743724927 1 F -3.025881586110284535e-15 F 6.270005910518961834 #
point $-1 -1 $-1 9459.345889598089343 354.4032721385632385 14489.95744497436863 #
point $-1 -1 $-1 9464.199029048384546 358.6634542542888084 14489.99999999999818 #
End-of-ACIS-data 