700 0 1 0           
4 LibG 20 ASM 224.0.1.65535 NT 24 Wed Jul 17 15:51:49 2019 
1000 9.999999999999999547e-07 1.000000000000000036e-10 
body $-1 -1 $-1 $1 $-1 $2 #
lump $-1 -1 $-1 $-1 $3 $0 #
transform $-1 -1 1 0 0 0 1 0 0 0 1 0 0 0 1 no_rotate no_reflect no_shear #
shell $-1 -1 $-1 $-1 $-1 $4 $-1 $1 #
face $-1 -1 $-1 $-1 $5 $3 $-1 $6 forward double out #
loop $-1 -1 $-1 $-1 $7 $4 #
spline-surface $-1 -1 $-1 forward { exactsur full nubs 3 3 open open none none 40 2 
	-1.191870091094628619e-07 3 0.02564102564102564014 1 0.05128205128205128027 1 0.07692307692307692735 1 0.1025641025641025605 1 
	0.1282051282051281937 1 0.1538461538461538269 1 0.1794871794871794601 1 0.2051282051282050933 1 0.2307692307692307265 1 
	0.2564102564102563875 1 0.2820512820512820484 1 0.3076923076923077094 1 0.3333333333333333703 1 0.3589743589743590313 1 
	0.3846153846153846922 1 0.4102564102564103532 1 0.4358974358974360142 1 0.4615384615384616751 1 0.4871794871794873361 1 
	0.512820512820512997 1 0.538461538461538658 1 0.5641025641025643189 1 0.5897435897435899799 1 0.6153846153846156408 1 
	0.6410256410256413018 1 0.6666666666666669627 1 0.6923076923076926237 1 0.7179487179487182846 1 0.7435897435897439456 1 
	0.7692307692307696065 1 0.7948717948717952675 1 0.8205128205128209284 1 0.8461538461538465894 1 0.8717948717948722503 1 
	0.8974358974358979113 1 0.9230769230769235723 1 0.9487179487179492332 1 0.9743589743589748942 1 1.000000000000000444 3 
	-1.191870090675517511e-07 3 0.1000418327985307804 3 
	3108.360429577437117 3095.589869909334539 13510.00000000013824 
	3109.668917769956806 3069.444046667724251 13509.99998045506072 
	3112.285871560287433 3017.152851665341132 13514.20473505411064 
	3116.11068976722936 2940.726467887797298 13532.96452861435682 
	3119.736832867446083 2868.269951207738814 13563.69603353168895 
	3123.071360684274623 2801.640404688782837 13605.61152371906974 
	3126.028796479579341 2742.545799178090419 13657.63655965530779 
	3128.533331232751152 2692.50092805641043 13718.43755906687147 
	3130.520764936493833 2652.788616841487055 13786.45598127098674 
	3131.940152789052718 2624.426829462386195 13859.94827798377992 
	3132.75511094616968 2608.142577111424998 13937.03058651538413 
	3132.944749202855746 2604.353281672928915 14015.72701971045899 
	3132.504206471828184 2613.156075952406354 14094.02031479518337 
	3131.444775392713836 2634.325313771644232 14169.90354282494263 
	3129.793612861804377 2667.318354078031916 14241.43155324019062 
	3127.5930439067115 2711.289470714600611 14306.77083482773924 
	3124.899476748912548 2765.111531318378184 14364.24651497813829 
	3121.781956865258053 2827.404889635347899 14412.38529248488703 
	3118.320397112685896 2896.572750643391373 14449.95320336883924 
	3114.603529284304841 2970.842101951883706 14475.98725165866381 
	3110.726629605480412 3048.30916226419231 14489.82009432056293 
	3106.789076473465684 3126.988181901201187 14491.09714757691108 
	3102.891803044062272 3204.862344459025735 14479.78567611937797 
	3099.134709964477679 3279.935464814707302 14456.17563222850731 
	3095.614104572917768 3350.283158280605676 14420.87222329026918 
	3092.420232207189656 3414.102169264331678 14374.78039822975916 
	3089.634962903416636 3469.756594969514936 14319.08165052876939 
	3087.329692782792335 3515.819819263413592 14255.2037324464236 
	3085.563513921153572 3551.111081800909233 14184.78405677229057 
	3084.381699613950786 3574.725745010820901 14109.62772425248113 
	3083.814543864470579 3586.058483098317083 14031.66125259118962 
	3083.87658484355461 3584.818798642527327 13952.88319311400301 
	3084.566232225098702 3571.038469068315408 13875.31290096002522 
	3085.865807954325192 3545.070732026732458 13800.93877199782219 
	3087.741999387626493 3507.581230888771188 13731.66727334318784 
	3090.146713248820561 3459.530951244840253 13669.27407396443232 
	3093.018308286646061 3402.15159030783434 13615.35852821344815 
	3096.283175876943005 3336.913973788914518 13571.30267848231597 
	3099.857624915651286 3265.490392524406161 13538.23582992531738 
	3103.650034395695911 3189.711590322147913 13517.00559772188717 
	3106.258794658260285 3137.584115963100885 13511.10599750285473 
	3107.56658922961833 3111.452152453971394 13510.25746935760617 
	3224.930164534312098 3101.423693939090754 13510.00000000013642 
	3225.368102151022867 3075.207410916473236 13509.99998041480649 
	3226.243969753506462 3022.775298941903657 13514.2133949234576 
	3227.5238902643855 2946.147092228442034 13533.0114916529019 
	3228.736912918380767 2873.507510145431752 13563.80463887923179 
	3229.85175614866148 2806.722166014269987 13605.80190529905303 
	3230.839666605073035 2747.506533998474424 13657.92453893480706 
	3231.67516518445882 2697.381619694896017 13718.83370557873786 
	3232.336703501041939 2657.634930554455877 13786.9648786913458 
	3232.807219818441354 2629.287394236483578 13860.56802651882572 
	3233.074579041697234 2613.067137798785552 13937.75256415674266 
	3233.131885706387493 2609.390784316697591 14016.53591589243661 
	3232.977661816261389 2618.352751883279325 14094.89444042326977 
	3232.615884963117878 2639.72282863929604 14170.81541085450408 
	3232.055885740428948 2672.952086438939205 14242.34871428842416 
	3231.312107097880926 2717.186981153287888 14307.6569430198615 
	3230.403731842960497 2771.291277437611825 14365.06259067004066 
	3229.354187896857184 2833.875234775680383 14413.09114095597761 
	3228.190544064515962 2903.331305105655701 14450.50894229946789 
	3226.942811902642461 2977.87542507088574 14476.3548954155558 
	3225.643171691109728 3055.592842234225373 14489.96513994584166 
	3224.325142470857372 3134.487298134243247 14490.99010603473471 
	3223.022717553717484 3212.532304838075106 14479.40349286689707 
	3221.769487800380375 3287.723197873416666 14455.50294355451297 
	3220.597775277955407 3358.128628482402291 14419.90239905647832 
	3219.537799641032507 3421.940172544817869 14373.51632754939055 
	3218.616898736106577 3477.518781897543249 14317.53623436246198 
	3217.858823530767495 3523.43688488802627 14253.40005587385713 
	3217.283125552154161 3558.515054759044688 14182.75522355152316 
	3216.904652633255864 3581.852303997939998 14107.41634691269792 
	3216.733165972257666 3592.849226515306327 14029.31860239524576 
	3216.773088381449725 3591.223393227011002 13950.46802543180274 
	3217.023390218232635 3577.01660562819734 13872.88998256098057 
	3217.477615941639669 3550.593820978784606 13798.57714715218754 
	3218.124050603958949 3512.633777060681496 13729.43831507727009 
	3218.946022003953203 3464.111556136461786 13667.24937504288937 
	3219.92233063244521 3406.27354053953286 13613.60769309574425 
	3221.02779660652277 3340.605386308679499 13569.89108255380961 
	3222.233908422863806 3268.793900666411446 13537.22241490411579 
	3223.509560767257426 3192.683566988998336 13516.44077455872139 
	3224.384418614708466 3140.380997865792779 13510.86687230774623 
	3224.822315972932302 3114.17477764837713 13510.18583116159971 
	3341.791761703603242 3101.421717987740067 13510.00000000013461 
	3341.354277609645578 3075.178490232178319 13509.99998037454861 
	3340.479316976283371 3022.692490637008177 13514.22205479281001 
	3339.2005156070868 2945.989679750324285 13533.05845469144333 
	3337.988140849833599 2873.287684243000967 13563.91324422676917 
	3336.873267029738145 2806.457554429576703 13605.99228687903269 
	3335.884473051244186 2747.219439699903887 13658.21251821430269 
	3335.047105392963203 2697.09804742858887 13719.2298520905988 
	3334.382629032871591 2657.383438098564056 13787.47377611170486 
	3333.908077043513913 2629.097809984156356 13861.18777505386606 
	3333.635614015788633 2612.969191806188519 13938.47454179809756 
	3333.572224221213673 2609.412703475521539 14017.34481207441422 
	3333.719532581607382 2618.519871810342465 14095.76856605134708 
	3334.073763015271652 2640.056275003738392 14171.7272788840728 
	3334.625835232766804 2673.467576789795203 14243.26587533665042 
	3335.361597499645541 2717.893794896428517 14308.54305121198195 
	3336.26218939989667 2772.191436539458209 14365.87866636194121 
	3337.3045253009509 2834.962931190974359 14413.79698942706273 
	3338.461886127262005 2904.592603036817309 14451.0646812300929 
	3339.704604272963934 2979.288257209973381 14476.72253917244961 
	3341.00082409669858 3057.127309393968062 14490.11018557111674 
	3342.317318504180093 3136.106271448770713 14490.88306449255469 
	3343.620340686363306 3214.192319332284114 14479.02130961441253 
	3344.876489179873715 3289.375615996022589 14454.83025488052226 
	3346.053564074882161 3359.721042503816079 14418.93257482268928 
	3347.121392422530334 3423.418005857210574 14372.25225686902377 
	3348.0526016835056 3478.827041518428359 14315.99081819616003 
	3348.823321391386344 3524.52201112705643 14251.59637930129247 
	3349.413795044297785 3559.32680928634727 14180.72639033075757 
	3349.808886539903142 3582.345634630026325 14105.20496957290743 
	3349.998468171731929 3592.986046035989148 14026.9759521993019 
	3349.977680241001053 3590.974210552897603 13948.05285774960066 
	3349.747055629461556 3576.361950616849299 13870.46706416193956 
	3349.312506138473054 3549.52540910596781 13796.21552230654925 
	3348.685170950016527 3511.155366947056336 13727.20935681135052 
	3347.881131073900633 3462.239461297630896 13665.22467612134278 
	3346.920997176339824 3404.036766576931768 13611.85685797804035 
	3345.829381074337562 3338.045375630643775 13568.47948662530143 
	3344.634265492627492 3265.963878954016309 13536.20899988291058 
	3343.366284323472428 3189.64749663448265 13515.87595139556106 
	3342.494059074891993 3137.256416288891614 13510.62774711263592 
	3342.056806438178683 3111.019412147220919 13510.11419296559325 
	3458.361299349024193 3095.583951924767916 13510.00000000012915 
	3457.047896629199386 3069.35769746205051 13509.99998033429074 
	3454.421114075427795 3016.905645525735508 13514.23071466216061 
	3450.582551807053278 2940.256565009934548 13533.10541772998477 
	3446.944621654703042 2867.613741561218831 13564.02184957430472 
	3443.601139543560748 2800.85050792774291 13606.18266845901417 
	3440.638339026733775 2741.688790730254823 13658.5004974937965 
	3438.13263386836843 2691.654433331709242 13719.62599860246155 
	3436.148649227349779 2652.037882170205648 13787.98267353206029 
	3434.737554367120083 2623.860894018049748 13861.80752358890823 
	3433.935743082913177 2607.850186522679451 13939.19651943945246 
	3433.763895024989779 2604.418694545336166 14018.15370825639002 
	3434.226442356457483 2613.654920291661256 14096.64269167942439 
	3435.311455439868951 2635.320650681455845 14172.63914691363607 
	3436.990950517265901 2668.857101157622765 14244.18303638488032 
	3439.221611443864731 2713.399327390327471 14309.42915940410057 
	3441.945906862221818 2767.798533205164858 14366.69474205383631 
	3445.093574003287358 2830.651699381496655 14414.50283789814421 
	3448.583430845503244 2900.337769161182223 14451.62042016071791 
	3452.325469894210073 2975.059457200643919 14477.09018292933797 
	3456.223179580329088 3052.889603664544211 14490.25523119639729 
	3460.1760334067435 3131.820877934683722 14490.77602295037104 
	3464.082082644390084 3209.817550017271515 14478.63912636192617 
	3467.840585709352126 3284.867994403352895 14454.1575662065261 
	3471.354606406286166 3355.036572246337983 14417.96275058889842 
	3474.533514026417834 3418.513553754537497 14370.9881861886588 
	3477.2953208196368 3473.661793241732539 14314.44540202985445 
	3479.568796554609435 3519.058953031530564 14249.792702728726 
	3481.295305629822451 3553.534187211712378 14178.69755710998834 
	3482.430319354431504 3576.198339121123354 14102.99359223311694 
	3482.944564395374073 3586.466873742226198 14024.63330200335622 
	3482.824777770713354 3584.074953539800845 13945.63769006739494 
	3482.074048918227163 3569.084268945768599 13868.04414576289855 
	3480.711740012421615 3541.881447235995893 13793.85389746091096 
	3478.772986601621596 3503.168081164324576 13724.98039854542549 
	3476.3077913828688 3453.942633301731803 13663.19997719979438 
	3473.379734716251278 3395.474687361761426 13610.10602286033827 
	3470.064334281338233 3329.272193534587132 13567.06789069679144 
	3466.44709937182688 3257.042616302423539 13535.1955848616999 
	3462.621318106307626 3180.648749079733534 13515.3111282323971 
	3459.997558736716201 3128.257064612110753 13510.38862191752378 
	3458.68427618588521 3102.033209704755791 13510.04255476958497 
	0 
	
	0 
	0 
	38 0.02564102564102564014 0.05128205128205128027 0.07692307692307692735 0.1025641025641025605 0.1282051282051281937 0.1538461538461538269 0.1794871794871794601 0.2051282051282050933 0.2307692307692307265 0.2564102564102563875 0.2820512820512820484 0.3076923076923077094 0.3333333333333333703 0.3589743589743590313 0.3846153846153846922 0.4102564102564103532 0.4358974358974360142 0.4615384615384616751 0.4871794871794873361 0.512820512820512997 0.538461538461538658 0.5641025641025643189 0.5897435897435899799 0.6153846153846156408 0.6410256410256413018 0.6666666666666669627 0.6923076923076926237 0.7179487179487182846 0.7435897435897439456 0.7692307692307696065 0.7948717948717952675 0.8205128205128209284 0.8461538461538465894 0.8717948717948722503 0.8974358974358979113 0.9230769230769235723 0.9487179487179492332 0.9743589743589748942 
	0 
	0 
	0 
	F 1 F 0 F 1 F 0 } I I I I #
tcoedge-coedge $-1 -1 $-1 $8 $9 $-1 $10 forward $5 $11 7.814085595768073775e-29 6.250766387756696574 #
coedge $-1 -1 $-1 $12 $7 $-1 $13 forward $5 $14 #
coedge $-1 -1 $-1 $7 $12 $-1 $15 forward $5 $16 #
tedge-edge $-1 -1 $-1 $17 7.814085595768073775e-29 $18 6.250766387756696574 $7 $19 forward @7 unknown 0.0008503927492644932761 #
pcurve $-1 -1 $-1 0 forward { exppc nubs 1 open 2 
	0 1 6.250766387756696574 1 
	0 0 
	0.9999999999999987788 1.56319481169247552e-16 
	6.943122908283172747e-08 
	spline forward { ref 0 } I I I I 
	} 0 0 #
tcoedge-coedge $-1 -1 $-1 $9 $8 $-1 $20 forward $5 $21 1.103493639655126032e-15 6.270005910518959169 #
edge $-1 -1 $-1 $18 -1.597735222478766204 $22 -1.482133598307340039 $8 $23 forward @7 unknown #
pcurve $-1 -1 $-1 0 forward { exppc nubs 3 open 2 
	-1.597735222478766204 3 -1.482133598307340039 3 
	0.999999999999999889 2.308781280492559076e-17 
	0.9999999975121018903 0.03330815819592580773 
	1.000000000000000444 0.06667390754957806809 
	0.999999999999999778 0.1000417136115216848 
	1.901302359703037445e-06 
	spline forward { ref 0 } I I I I 
	} 0 0 #
edge $-1 -1 $-1 $24 -0.1000208620216280209 $17 0 $9 $25 forward @7 unknown #
pcurve $-1 -1 $-1 0 forward { exppc nubs 1 open 2 
	-0.1000208620216280209 1 0 1 
	0 0.100041713611521671 
	0 4.191110942565297771e-17 
	0.0009308921381845164595 
	spline forward { ref 0 } I I I I 
	} 0 0 #
tvertex-vertex $-1 -1 $-1 $10 $26 1.181898940354585587e-11 #
tvertex-vertex $-1 -1 $-1 $10 $27 1.377741519647228202e-11 #
ellipse-curve $-1 -1 $-1 3108.360864456715717 3095.589526161200865 14000.00000000000182 -0.9987500632136668832 -0.04998310945405855243 -9.547025350551954141e-13 4.602185299518168904e-10 1.645958036533556827e-10 -489.9999999999990337 1 F 7.814085595768073775e-29 F 6.250766387756696574 #
tedge-edge $-1 -1 $-1 $22 1.103493639655126032e-15 $24 6.270005910518959169 $12 $28 forward @7 unknown 0.0008609630485888977334 #
pcurve $-1 -1 $-1 0 forward { exppc nubs 1 open 2 
	0 1 6.270005910518959169 1 
	0.999999999999999889 0.1000417136115216571 
	1.06335117418303967e-15 0.1000417136115216155 
	4.580708264270926503e-08 
	spline forward { ref 0 } I I I I 
	} 0 0 #
tvertex-vertex $-1 -1 $-1 $13 $29 1.181898940354585587e-11 #
ellipse-curve $-1 -1 $-1 3189.190456241035918 480.6625119229822758 13510.12130255419106 -0.0006112071756006843886 3.279535662926345391e-05 -0.9999998126751089567 3040.448484941555307 -0.3154167111261294565 -1.858354623360113589 0.8655747828803633803 F -1.597735222478766204 F -1.482133598307340039 #
tvertex-vertex $-1 -1 $-1 $20 $30 1.73043240282499977e-11 #
ellipse-curve $-1 -1 $-1 3283.301735198714141 -400.7656526940860431 13510 0 0 1 -174.9408707415381343 3496.355178855451413 0 1 F -0.1000208620216280209 F 0 #
point $-1 -1 $-1 3108.360864457175921 3095.589526161365484 13510.00000000000182 #
point $-1 -1 $-1 3107.567008314585109 3111.452162184914869 13510.25746910156704 #
ellipse-curve $-1 -1 $-1 3458.360864388438131 3095.583607069891968 13999.99999999999818 0.9987483720444885194 -0.0500168905319381199 2.659568198377098373e-11 0.3229949579378427749 6.449634752524476156 -489.9574449743724927 1 F 1.103493639655126032e-15 F 6.270005910518959169 #
point $-1 -1 $-1 3458.683859346375812 3102.03324182241704 13510.04255502562773 #
point $-1 -1 $-1 3458.360864401456638 3095.583607069288519 13510 #
End-of-ACIS-data 