700 0 1 0           
4 LibG 20 ASM 224.0.1.65535 NT 24 Wed Jul 17 15:51:49 2019 
1000 9.999999999999999547e-07 1.000000000000000036e-10 
body $-1 -1 $-1 $1 $-1 $2 #
lump $-1 -1 $-1 $-1 $3 $0 #
transform $-1 -1 1 0 0 0 1 0 0 0 1 0 0 0 1 no_rotate no_reflect no_shear #
shell $-1 -1 $-1 $-1 $-1 $4 $-1 $1 #
face $-1 -1 $-1 $-1 $5 $3 $-1 $6 forward double out #
loop $-1 -1 $-1 $-1 $7 $4 #
spline-surface $-1 -1 $-1 forward { exactsur full nubs 3 3 open open none none 40 2 
	-1.191870090812903078e-07 3 0.02564102564102564014 1 0.05128205128205128027 1 0.07692307692307692735 1 0.1025641025641025605 1 
	0.1282051282051281937 1 0.1538461538461538269 1 0.1794871794871794601 1 0.2051282051282050933 1 0.2307692307692307265 1 
	0.2564102564102563875 1 0.2820512820512820484 1 0.3076923076923077094 1 0.3333333333333333703 1 0.3589743589743590313 1 
	0.3846153846153846922 1 0.4102564102564103532 1 0.4358974358974360142 1 0.4615384615384616751 1 0.4871794871794873361 1 
	0.512820512820512997 1 0.538461538461538658 1 0.5641025641025643189 1 0.5897435897435899799 1 0.6153846153846156408 1 
	0.6410256410256413018 1 0.6666666666666669627 1 0.6923076923076926237 1 0.7179487179487182846 1 0.7435897435897439456 1 
	0.7692307692307696065 1 0.7948717948717952675 1 0.8205128205128209284 1 0.8461538461538465894 1 0.8717948717948722503 1 
	0.8974358974358979113 1 0.9230769230769235723 1 0.9487179487179492332 1 0.9743589743589748942 1 1.000000000000000444 3 
	-1.191870090812903078e-07 3 0.1000418327985306971 3 
	2758.360429621522144 3095.595101519913442 14489.99999999987267 
	2759.669802153493038 3121.740880489070605 14490.0000195449411 
	2762.288524607454747 3174.031986947310088 14485.79526494589481 
	2766.11592781107629 3250.458241312847349 14467.03547138564682 
	2769.744521633750082 3322.914635303031446 14436.30396646830741 
	2773.081303085357376 3389.544068998862258 14394.3884762809339 
	2776.040737658458966 3448.638574445268205 14342.36344034469221 
	2778.546965097055363 3498.68336082648193 14281.56244093312853 
	2780.53574200437879 3538.395604796957286 14213.54401872901326 
	2781.956089147730381 3566.757344151336383 14140.0517220162219 
	2782.771598092887416 3583.041568928341349 14062.96941348461587 
	2782.961364516258982 3586.83085795046145 13984.27298028954283 
	2782.520524045198727 3578.028078576665848 13905.97968520482027 
	2781.460376951447415 3556.858876603080262 13830.09645717505737 
	2779.808098485237679 3523.865892163467834 13758.5684467598112 
	2777.606042279469875 3479.894849982737924 13693.22916517226258 
	2774.910654679032177 3426.072880515302586 13635.75348502186353 
	2771.791027825029232 3363.779627679032274 13587.61470751511479 
	2768.327128583370268 3294.611883792218578 13550.04679663116076 
	2764.607748716381138 3220.342658243254391 13524.01274834133619 
	2760.728228841705459 3142.875729105121991 13510.17990567943707 
	2756.788014521309833 3064.196842694482257 13508.9028524230871 
	2752.888107126492287 2986.322812000179511 13520.21432388062203 
	2749.128474822136923 2911.249818765037617 13543.82436777149451 
	2745.605490035597086 2840.902244418164628 13579.12777670973264 
	2742.409459096828868 2777.083341498513164 13625.21960177024448 
	2739.622307373678268 2721.429010032395126 13680.91834947122879 
	2737.315479240286095 2675.365863736879874 13744.7962675535764 
	2735.548106709760305 2640.074660957716787 13815.21594322771125 
	2734.365493675431026 2616.460037734269918 13890.37227574752251 
	2733.797954614731225 2605.127318836382528 13968.3387474088122 
	2733.860037524102609 2606.367001193029409 14047.11680688599881 
	2734.550151002621078 2620.147307433148399 14124.6870990399766 
	2735.850605047824047 2646.115000503830743 14199.06122800218145 
	2737.728064501817698 2683.604438161205962 14268.33272665681397 
	2740.134403584657321 2731.654636442091942 14330.72592603557132 
	2743.007939384955989 2789.03390021921723 14384.64147178655912 
	2746.275013530289016 2854.27140627195331 14428.69732151768221 
	2749.851878354114433 2925.694866595647909 14461.76417007468444 
	2753.64685092745458 3001.473540482439603 14482.99440227811465 
	2756.257374316069217 3053.600926574571076 14488.89400249714345 
	2757.566052758097157 3079.73284583471559 14489.74253064239747 
	2874.929967192052118 3089.757334710675877 14489.99999999986358 
	2875.36879153189966 3115.973602905764892 14490.00001958518806 
	2876.246432565299983 3168.405685225536672 14485.78660507653876 
	2877.52894490064682 3245.033848603924071 14466.98850834709083 
	2878.744424470370632 3317.673389616853456 14436.19536112076639 
	2879.861526606301595 3384.458696002042871 14394.19809470094333 
	2880.851439935165217 3443.674294569493668 14342.07546106518748 
	2881.688633908259362 3493.799180585009708 14281.1662944212585 
	2882.351516591960717 3533.545847327251067 14213.03512130864874 
	2882.822991718675439 3561.893367714556916 14139.43197348116882 
	2883.090899565727341 3578.113615099981416 14062.24743584325552 
	2883.148330577099841 3581.789966641661522 13983.46408410755612 
	2882.993803562997527 3572.828004296579365 13905.10555957672841 
	2882.631303901765023 3551.457939789303509 13829.18458914549046 
	2882.070180753476961 3518.228700949735867 13757.65128571157038 
	2881.324905937554831 3473.99383141780072 13692.34305698013304 
	2880.41470069280922 3419.889565888749985 13634.9374093299557 
	2879.363039946131721 3357.305644085604854 13586.90885904401694 
	2878.197046875176056 3287.849613153732662 13549.49105770053029 
	2876.946793379675 3213.305535433666591 13523.64510458444238 
	2875.644524502901731 3135.588162273011221 13510.03486005415471 
	2874.323826805987665 3056.693750998325868 13509.00989396525983 
	2873.018762143422009 2978.648788391556536 13520.59650713310111 
	2871.762989180410841 2903.457937787693027 13544.49705644547976 
	2870.588895308797873 2833.052546850262388 13580.09760094351623 
	2869.526761350169636 2769.241038676310382 13626.48367245060581 
	2868.603980589165985 2713.662460503360762 13682.46376563753256 
	2867.844352278667884 2667.744383179811848 13746.59994412613742 
	2867.267467837999448 2632.66623280091153 13817.24477644847138 
	2866.888205574594394 2609.328996376600116 13892.58365308729663 
	2866.716346960568899 2598.332079665782203 13970.68139760474878 
	2866.756324360922463 2599.957911602838976 14049.53197456819362 
	2867.007106719182502 2614.164690727468951 14127.11001743901397 
	2867.462226150300467 2640.587459998318081 14201.42285284780701 
	2868.109944749364786 2678.547482030099218 14270.56168492272627 
	2868.933557334561556 2727.069675124710102 14332.75062495710699 
	2869.911822239860612 2784.907657666495197 14386.39230690425029 
	2871.019509332452799 2850.57577446918549 14430.10891744618493 
	2872.22805005550299 2922.387219275595726 14462.77758509588057 
	2873.506276708147652 2998.497509762594291 14483.55922544127134 
	2874.382903604939656 3050.800049265229063 14489.13312769224831 
	2874.821687345943701 3077.006254656484543 14489.81416883839665 
	2991.791564361330984 3089.755358007439554 14489.99999999986176 
	2991.354967902374028 3115.998600545181034 14490.00001962544229 
	2990.481782523587299 3168.484629704458712 14485.77794520718453 
	2989.205575503690852 3245.187483800655173 14466.94154530855121 
	2987.995659774586329 3317.889520273007292 14436.08675577322356 
	2986.883046376220136 3384.719687757009069 14394.00771312096003 
	2985.896256031749544 3443.957835897152108 14341.78748178569003 
	2985.060583649006276 3494.079256462406647 14280.77014790939393 
	2984.39745057174423 3533.793888244552363 14212.52622388828604 
	2983.923855298297894 3562.079532393735917 14138.81222494612484 
	2983.651937795164031 3578.208159778098889 14061.52545820189516 
	2983.58866829309045 3581.764650250788236 13982.65518792558032 
	2983.735668618156069 3572.657476938708896 13904.23143394864928 
	2984.089170617598938 3551.121061776360875 13828.27272111591992 
	2984.640112751514152 3517.709741336464958 13756.7341246633423 
	2985.37437237297172 3473.283498369276913 13691.45694878801078 
	2986.273127742766974 3418.985826296237974 13634.12133363805515 
	2987.313340498903926 3356.214296425303019 13586.20301057293364 
	2988.468346213477162 3286.584585473429797 13548.93531876989982 
	2989.708537898733994 3211.888889310068862 13523.27746082754857 
	2991.002124941634065 3134.049793328059422 13509.88981442887598 
	2992.315948012662375 3055.0707867901383 13509.11693550743803 
	2993.616329059777854 2976.98469487867078 13520.97869038558201 
	2994.869934599114913 2901.80135577074816 13545.16974511947046 
	2996.044630173132646 2831.455889490537629 13581.06742517730345 
	2997.110304073365569 2767.758890056010841 13627.74774313097441 
	2998.039639212761813 2712.349822929838865 13684.00918180382905 
	2998.808813361732064 2666.654827279002347 13748.40362069870207 
	2999.398109798280075 2631.85000916780109 13819.27360966923334 
	2999.792422719108345 2608.831170473959901 13894.79503042708347 
	2999.981644456113827 2598.190752661791066 13973.02404780069082 
	2999.960924572480963 2600.202588846848357 14051.9471422503957 
	2999.730794197139403 2614.814856575044359 14129.53293583805134 
	2999.297152409025784 2641.651412768509545 14203.78447769344348 
	2998.671115025570543 2680.021476124070432 14272.79064318864221 
	2997.868729651337617 2728.937408940863861 14334.77532387864994 
	2996.910564366372455 2787.140136103248551 14388.14314202195419 
	2995.821180317103881 2853.131563933937286 14431.52051337469129 
	2994.628502776158712 2925.213100992186355 14463.79100011708397 
	2993.36310288597997 3001.529526155479743 14484.12404860443348 
	2992.492649681482817 3053.920635972711352 14489.37225288735681 
	2992.056284469265393 3080.157654888737397 14489.88580703439948 
	3108.361299393070567 3095.589181290928082 14489.99999999985994 
	3107.048783734654535 3121.815480162364565 14490.00001966569835 
	3104.423775288236811 3174.267620915349198 14485.7692853378303 
	3100.587805553283488 3250.916831220470158 14466.89458227000614 
	3096.952332429068974 3323.559777674739053 14435.97815042568618 
	3093.611108478276492 3390.323124357902543 14393.81733154097492 
	3090.650309012577964 3449.484941733483993 14341.4995025061944 
	3088.14629618689105 3499.519383854835723 14280.37400139753299 
	3086.163651512797514 3539.13600209875176 14212.01732646793243 
	3084.753509694442982 3567.31303796279326 14138.19247641107904 
	3083.952239946993814 3583.323772568975983 14060.80348056053663 
	3083.780507953833876 3586.755270356838537 13981.84629174360271 
	3084.242742884634026 3577.519028970880754 13903.35730832056834 
	3085.327023159125019 3555.853261894666048 13827.36085308635847 
	3087.005383919341966 3522.316754631475305 13755.8169636151124 
	3089.23453827587764 3477.774452975752411 13690.57084059589215 
	3091.956993727493227 3423.375155047141561 13633.30525794615278 
	3095.102534960028152 3360.521882442012156 13585.4971621018467 
	3098.590034781605482 3290.835694663421691 13548.37957983927299 
	3102.329546487883363 3216.113880098281697 13522.90981707065475 
	3106.224623692899968 3138.283601845172143 13509.74476880359725 
	3110.174807794315711 3059.352193921292383 13509.22397704961804 
	3114.078218918397852 2981.355389767517863 13521.36087363806291 
	3117.834183521269097 2906.304818299078306 13545.84243379346481 
	3121.345830877494791 2836.136121640162401 13582.03724941109067 
	3124.522591489534079 2772.659032646860851 13629.01181381133938 
	3127.282532981136228 2717.510699777561513 13685.55459797014191 
	3129.554473229274663 2672.11346311709076 13750.20729727126309 
	3131.279816234442478 2637.638170560248 13821.30244289000257 
	3132.414063380107109 2614.973980273800407 13897.00640776687214 
	3132.927961104172027 2604.705428265063802 13975.36669799663468 
	3132.808255382416974 2607.097352517708714 14054.36230993259778 
	3132.05803356603019 2622.088062495356098 14131.95585423709599 
	3130.696644752463726 2649.290930267464319 14206.14610253907995 
	3128.759200759791383 2688.004361892190445 14275.0196014545636 
	3126.295670513636651 2737.229893107868975 14336.80002280019653 
	3123.369591432433481 2795.69793805117888 14389.893977139649 
	3120.056430191740219 2861.900543978541464 14432.93210930319947 
	3116.441638332964885 2934.130243516513019 14464.80441513828919 
	3112.618440968686173 3010.524240096370249 14484.68887176759381 
	3109.996453664614819 3062.916013278442279 14489.61137808246713 
	3108.684058094027932 3089.139912590457698 14489.95744523040594 
	0 
	
	0 
	0 
	38 0.02564102564102564014 0.05128205128205128027 0.07692307692307692735 0.1025641025641025605 0.1282051282051281937 0.1538461538461538269 0.1794871794871794601 0.2051282051282050933 0.2307692307692307265 0.2564102564102563875 0.2820512820512820484 0.3076923076923077094 0.3333333333333333703 0.3589743589743590313 0.3846153846153846922 0.4102564102564103532 0.4358974358974360142 0.4615384615384616751 0.4871794871794873361 0.512820512820512997 0.538461538461538658 0.5641025641025643189 0.5897435897435899799 0.6153846153846156408 0.6410256410256413018 0.6666666666666669627 0.6923076923076926237 0.7179487179487182846 0.7435897435897439456 0.7692307692307696065 0.7948717948717952675 0.8205128205128209284 0.8461538461538465894 0.8717948717948722503 0.8974358974358979113 0.9230769230769235723 0.9487179487179492332 0.9743589743589748942 
	0 
	0 
	0 
	F 1 F 0 F 1 F 0 } I I I I #
tcoedge-coedge $-1 -1 $-1 $8 $9 $-1 $10 forward $5 $11 0 6.250766387756693909 #
coedge $-1 -1 $-1 $12 $7 $-1 $13 forward $5 $14 #
coedge $-1 -1 $-1 $7 $12 $-1 $15 forward $5 $16 #
tedge-edge $-1 -1 $-1 $17 -3.907042797884036887e-29 $18 6.250766387756693909 $7 $19 forward @7 unknown 0.0008503927424899613858 #
pcurve $-1 -1 $-1 0 forward { exppc nubs 1 open 2 
	0 1 6.250766387756694797 1 
	0 0 
	0.9999999999999985567 1.421853236573448876e-16 
	6.73493317493054351e-08 
	spline forward { ref 0 } I I I I 
	} 0 0 #
tcoedge-coedge $-1 -1 $-1 $9 $8 $-1 $20 forward $5 $21 2.684899366557484229e-18 6.270005910518958281 #
edge $-1 -1 $-1 $18 -1.597735222511551978 $22 -1.482133598327151525 $8 $23 forward @7 unknown #
pcurve $-1 -1 $-1 0 forward { exppc nubs 3 open 2 
	-1.597735222511551978 3 -1.482133598327151525 3 
	1 1.540227954173402683e-17 
	0.9999999975121014462 0.03330815819591637778 
	1.000000000000000444 0.06667390754958543719 
	1 0.1000417136115216848 
	1.901302882689756701e-06 
	spline forward { ref 0 } I I I I 
	} 0 0 #
edge $-1 -1 $-1 $24 -0.100020862021602569 $17 -1.548606160235168295e-16 $9 $25 forward @7 unknown #
pcurve $-1 -1 $-1 0 forward { exppc nubs 1 open 2 
	-0.1000208620216026384 1 -4.577463675722441921e-27 1 
	0 0.1000417136115216155 
	0 0 
	0.0009308921387357838246 
	spline forward { ref 0 } I I I I 
	} 0 0 #
tvertex-vertex $-1 -1 $-1 $10 $26 2.289431282089738008e-11 #
tvertex-vertex $-1 -1 $-1 $10 $27 1.920793205810541125e-11 #
ellipse-curve $-1 -1 $-1 2758.360864513573233 3095.595445253278285 13999.99999999999636 -0.9987483720445053947 0.05001689053160458115 -1.38867160117144314e-12 -6.865377599751810026e-10 -1.061209786712424881e-10 489.9999999999990337 1 F -3.907042797884036887e-29 F 6.250766387756693909 #
tedge-edge $-1 -1 $-1 $22 2.684899366557484229e-18 $24 6.270005910518958281 $12 $28 forward @7 unknown 0.0008609630574953292068 #
pcurve $-1 -1 $-1 0 forward { exppc nubs 1 open 2 
	0 1 6.270005910518958281 1 
	0.999999999999999889 0.1000417136115216571 
	1.126618388487123589e-15 0.1000417136115215183 
	9.079269931835601416e-08 
	spline forward { ref 0 } I I I I 
	} 0 0 #
tvertex-vertex $-1 -1 $-1 $13 $29 1.560650187523513181e-11 #
ellipse-curve $-1 -1 $-1 2839.278901951753141 5710.519723475472347 14489.87869744839008 -0.0006112082844745930993 -3.277468450099662987e-05 0.9999998126751089567 3040.448493529602729 0.212578534953684728 1.858354623074081502 0.8655747827834398 F -1.597735222511551978 F -1.482133598327151525 #
tvertex-vertex $-1 -1 $-1 $20 $30 1.819807445501280253e-11 #
ellipse-curve $-1 -1 $-1 2933.419993715520832 6591.94470501746855 14489.99999999913234 6.183628057137342316e-15 -2.474093879644798397e-13 -1 -175.0591292026346935 -3496.349259764296221 8.64127969180117444e-10 1 F -0.100020862021602569 F -1.548606160235168295e-16 #
point $-1 -1 $-1 2758.360864512886565 3095.595445253172329 14489.99999999999636 #
point $-1 -1 $-1 2757.566471842733336 3079.732836089595821 14489.74253089843114 #
ellipse-curve $-1 -1 $-1 3108.360864468650107 3095.58952616174065 13999.99999999999818 0.9987500632136789847 0.04998310945381675974 2.346660800016310722e-11 0.3227767847837100246 -6.44964567484374296 489.9574449743724927 1 F 2.684899366557484229e-18 F 6.270005910518958281 #
point $-1 -1 $-1 3108.683641253433962 3089.1398804868968 14489.95744497436863 #
point $-1 -1 $-1 3108.360864457168191 3095.589526161118101 14489.99999999999818 #
End-of-ACIS-data 