700 0 1 0           
4 LibG 20 ASM 224.0.1.65535 NT 24 Wed Jul 17 14:48:13 2019 
1000 9.999999999999999547e-07 1.000000000000000036e-10 
body $-1 -1 $-1 $1 $-1 $2 #
lump $-1 -1 $-1 $-1 $3 $0 #
transform $-1 -1 1 0 0 0 1 0 0 0 1 0 0 0 1 no_rotate no_reflect no_shear #
shell $-1 -1 $-1 $-1 $-1 $4 $-1 $1 #
face $-1 -1 $-1 $5 $6 $3 $-1 $7 forward single #
face $-1 -1 $-1 $8 $9 $3 $-1 $10 reversed single #
loop $-1 -1 $-1 $-1 $11 $4 #
plane-surface $-1 -1 $-1 3781.797571915386925 3935.642797989804421 14000.00000000000182 1 -3.637978807091713027e-15 0 0 0 -1 forward_v I I I I #
face $-1 -1 $-1 $-1 $12 $3 $-1 $13 forward single #
loop $-1 -1 $-1 $-1 $14 $5 #
plane-surface $-1 -1 $-1 3531.797571915386925 3935.642797989805331 14000.00000000000182 1 -3.637978807091713027e-15 0 0 0 -1 forward_v I I I I #
tcoedge-coedge $-1 -1 $-1 $11 $11 $15 $16 forward $6 $17 0 6.283185307179586232 #
loop $-1 -1 $-1 $-1 $18 $8 #
spline-surface $-1 -1 $-1 forward { exactsur full nubs 3 3 periodic open none none 87 2 
	0 3 0.002232142857142857019 1 0.004464285714285714038 1 0.008928571428571428076 1 0.01785714285714285615 1 
	0.02678571428571428423 1 0.0357142857142857123 1 0.05357142857142856845 1 0.07142857142857142461 1 0.08928571428571427382 1 
	0.1071428571428571369 1 0.125 1 0.1428571428571428492 1 0.1587301587301587213 1 0.1746031746031745935 1 
	0.1904761904761904656 1 0.2023809523809523836 1 0.2142857142857142738 1 0.238095238095238082 1 0.2619047619047618625 1 
	0.2857142857142856984 1 0.2976190476190476164 1 0.3095238095238095344 1 0.3214285714285713969 1 0.3273809523809523281 1 
	0.3333333333333333148 1 0.3452380952380952328 1 0.3571428571428570953 1 0.3690476190476190133 1 0.375 1 
	0.3809523809523809312 1 0.3869047619047618625 1 0.3898809523809523281 1 0.3928571428571428492 1 0.4047619047619047672 1 
	0.4285714285714285476 1 0.4305555555555555802 1 0.4365079365079365115 1 0.4444444444444444198 1 0.4603174603174602919 1 
	0.476190476190476164 1 0.4801587301587301182 1 0.4841269841269840724 1 0.4880952380952380265 1 0.4900793650793650036 1 
	0.4920634920634920362 1 0.5158730158730158166 1 0.5238095238095237249 1 0.5357142857142855874 1 0.5476190476190475609 1 
	0.5595238095238095344 1 0.5714285714285713969 1 0.5952380952380951218 1 0.6190476190476189577 1 0.6269841269841269771 1 
	0.6309523809523809312 1 0.6349206349206348854 1 0.650793650793650702 1 0.6666666666666666297 1 0.6785714285714286031 1 
	0.6904761904761904656 1 0.7023809523809523281 1 0.7142857142857141906 1 0.7321428571428569843 1 0.749999999999999889 1 
	0.7678571428571427937 1 0.7857142857142855874 1 0.7976190476190474499 1 0.8095238095238094234 1 0.8333333333333332593 1 
	0.8452380952380951218 1 0.851190476190476053 1 0.8571428571428570953 1 0.875 1 0.8928571428571427937 1 
	0.9107142857142856984 1 0.9285714285714286031 1 0.9464285714285713969 1 0.9642857142857143016 1 0.9821428571428572063 1 
	0.9910714285714286031 1 0.9955357142857143016 1 0.9977678571428572063 1 0.9988839285714286031 1 0.9994419642857143016 1 
	0.9997209821428572063 1 1 3 
	0 3 1 3 
	3531.797571927214449 4435.642879480427837 13999.99989693964017 
	3531.797571927212175 4435.642879435535178 14002.3373914823278 
	3531.797571927161243 4435.610095427582564 14007.01238047660991 
	3531.797571927109857 4435.413405036894801 14016.36051994083027 
	3531.797571926900218 4434.725100542133987 14032.71010656810722 
	3531.797571926301771 4432.759715599324409 14056.01151761963592 
	3531.797571925758348 4428.836933201541797 14083.79693054474956 
	3531.797571925171724 4421.538049845874411 14120.49273238715432 
	3531.797571923378655 4408.575883354071266 14165.48629508677004 
	3531.797571921947565 4387.07345400131635 14217.39742221913002 
	3531.7975719204901 4359.894166798845617 14266.57465258153388 
	3531.797571919099482 4327.379680188420934 14312.3995741921517 
	3531.797571918610629 4289.938955068713767 14354.29599992235853 
	3531.79757191821318 4249.59419892625283 14390.34989389586735 
	3531.797571917256391 4207.366058229676128 14420.70972581728529 
	3531.797571917157256 4164.126608128123735 14445.67388056703021 
	3531.797571916957168 4122.408955760582103 14464.49781652945421 
	3531.797571916809829 4083.157815089373798 14478.2315001831339 
	3531.797571916568359 4034.957088152562392 14491.14879058694896 
	3531.797571916496963 3973.147748282801786 14500.46574065487766 
	3531.797571916243669 3898.138034566090937 14500.46578066861184 
	3531.797571916170455 3836.328644805174918 14491.1490724976029 
	3531.797571916073593 3788.127895445853028 14478.23175190488837 
	3531.797571915963999 3752.801925906238921 14465.87136532023942 
	3531.797571915877143 3724.215897762376699 14453.3990160905505 
	3531.797571915849403 3701.954148684941629 14442.16072773379165 
	3531.797571915826211 3680.128108823349976 14430.09797036903547 
	3531.797571915742992 3653.720143140204073 14413.50474878190835 
	3531.797571915723893 3623.607168350115899 14391.28041878865588 
	3531.7975719156384 3599.967312549711551 14370.9365341997418 
	3531.797571915625667 3582.007152440367918 14353.63571430731463 
	3531.797571915608387 3569.031561872815473 14340.16556741927343 
	3531.797571915595199 3558.645905244064124 14328.54394421009238 
	3531.797571915592016 3550.602401866147829 14319.01856289170064 
	3531.79757191558565 3538.80659191830955 14304.50729821652749 
	3531.797571915512435 3514.728651708579036 14271.8858105977597 
	3531.797571915510161 3494.934303483765689 14237.60172390615298 
	3531.797571915501976 3480.697173944799033 14207.55946011126071 
	3531.797571915501521 3473.954031374340957 14192.363305275112 
	3531.797571915499248 3462.563900125388045 14163.34215805752865 
	3531.7975719154947 3450.299883590555964 14123.5835310205548 
	3531.797571915488788 3442.88015625285334 14086.87949858266074 
	3531.797571915487879 3439.471540724155602 14062.17836058086868 
	3531.797571915487424 3438.075597357886181 14049.78915168519779 
	3531.797571915487424 3437.170054576556595 14039.43901301619735 
	3531.797571915487879 3436.600678135588623 14031.14729088781678 
	3531.797571915487879 3434.969128983703285 14002.10365580177677 
	3531.797571915490153 3435.853202418555156 13966.69382662093994 
	3531.797571915496974 3441.539905934997932 13921.32346902209429 
	3531.797571915494245 3447.724316348086631 13888.63584629772413 
	3531.797571915524259 3457.410979204325486 13852.48490154842875 
	3531.797571915520621 3469.772299303368982 13817.15925126355432 
	3531.797571915562457 3489.726005150570018 13771.42071004208992 
	3531.797571915587923 3520.978982868944058 13717.28695719175994 
	3531.797571915632489 3557.354278565137065 13671.67480963095841 
	3531.797571915668868 3583.477242601787111 13644.89396651455172 
	3531.797571915674325 3595.521122345648564 13633.43601754892916 
	3531.79757191569206 3614.009887406565213 13616.70489586386975 
	3531.797571915765729 3643.286688544804747 13593.35744276932928 
	3531.797571915777098 3681.732884650523374 13568.52626190620322 
	3531.797571915878507 3718.498583834205874 13549.09546588515332 
	3531.797571915914887 3752.801802255759412 13534.12884089086765 
	3531.797571916012203 3788.127719919394622 13521.76808220986459 
	3531.797571916137258 3830.303547503316167 13510.46652361387532 
	3531.79757191617955 3879.542878625266894 13502.10028263091954 
	3531.797571916528796 3935.642773740801658 13498.94996021814586 
	3531.797571916601555 3991.742522741506491 13502.10036144558217 
	3531.797571916835295 4040.982023091039537 13510.46651469505923 
	3531.797571916869856 4083.157605087724733 13521.76844980895476 
	3531.797571916978541 4130.259391129465257 13538.24838664605704 
	3531.797571917164532 4175.313516850824271 13559.94460780258487 
	3531.797571917283221 4212.2839768172189 13583.17657415368558 
	3531.797571917374171 4232.622187454881896 13597.60708606049957 
	3531.797571917378264 4257.352755692561914 13616.58331708648439 
	3531.797571917993992 4289.939022467670839 13645.70359346915211 
	3531.79757191864428 4327.379675768673224 13687.60015462999581 
	3531.797571919528764 4359.894265921711849 13733.42498536284984 
	3531.797571920247719 4387.073448964529234 13782.6023343409197 
	3531.797571921620602 4408.575935622700854 13834.51339209668913 
	3531.797571923929354 4424.13079356146136 13888.50571265128747 
	3531.797571926132605 4431.973830794893729 13934.66767260521556 
	3531.797571926908404 4434.725059989829788 13967.28969071115898 
	3531.797571927133049 4435.413414582199039 13983.63927258585136 
	3531.797571927190802 4435.585508021224086 13991.81889611804581 
	3531.797571927208992 4435.628537134311955 13995.90931017691582 
	3531.797571927212175 4435.639293776917839 13997.95459281675357 
	3531.797571927214904 4435.642367248540722 13999.12333648471031 
	3531.797571927214449 4435.642879486039419 13999.70771012180376 
	3531.797571927214449 4435.642879480427837 13999.99989693964017 
	3615.130905260547934 4435.642879480426927 13999.99989693964017 
	3615.13090526054566 4435.642879435534269 14002.3373914823278 
	3615.130905260494728 4435.610095427581655 14007.01238047660991 
	3615.130905260443342 4435.413405036893892 14016.36051994083027 
	3615.130905260233703 4434.725100542133077 14032.71010656810722 
	3615.130905259635256 4432.759715599323499 14056.01151761963592 
	3615.130905259091833 4428.836933201540887 14083.79693054474956 
	3615.130905258505209 4421.538049845873502 14120.49273238715432 
	3615.13090525671214 4408.575883354070356 14165.48629508677004 
	3615.13090525528105 4387.07345400131544 14217.39742221913002 
	3615.130905253823585 4359.894166798844708 14266.57465258153388 
	3615.130905252432967 4327.379680188420025 14312.3995741921517 
	3615.130905251944114 4289.938955068712858 14354.29599992235853 
	3615.130905251546665 4249.59419892625192 14390.34989389586735 
	3615.130905250589876 4207.366058229675218 14420.70972581728529 
	3615.130905250490741 4164.126608128122825 14445.67388056703021 
	3615.130905250290652 4122.408955760581193 14464.49781652945421 
	3615.130905250143314 4083.157815089373344 14478.2315001831339 
	3615.130905249901843 4034.957088152561937 14491.14879058694896 
	3615.130905249830448 3973.147748282801331 14500.46574065487766 
	3615.130905249577154 3898.138034566090482 14500.46578066861184 
	3615.13090524950394 3836.328644805174463 14491.1490724976029 
	3615.130905249407078 3788.127895445852573 14478.23175190488837 
	3615.130905249297484 3752.801925906238466 14465.87136532023942 
	3615.130905249210628 3724.215897762376244 14453.3990160905505 
	3615.130905249182888 3701.954148684941174 14442.16072773379165 
	3615.130905249159696 3680.128108823349521 14430.09797036903547 
	3615.130905249076932 3653.720143140203618 14413.50474878190835 
	3615.130905249056923 3623.607168350115444 14391.28041878865588 
	3615.13090524897234 3599.967312549711096 14370.9365341997418 
	3615.130905248959152 3582.007152440367463 14353.63571430731463 
	3615.130905248941872 3569.031561872815018 14340.16556741927343 
	3615.130905248928684 3558.64590524406367 14328.54394421009238 
	3615.130905248925501 3550.602401866147375 14319.01856289170064 
	3615.130905248919134 3538.806591918309095 14304.50729821652749 
	3615.130905248845465 3514.728651708578582 14271.8858105977597 
	3615.130905248843646 3494.934303483765234 14237.60172390615298 
	3615.130905248835461 3480.697173944798578 14207.55946011126071 
	3615.130905248835006 3473.954031374340502 14192.363305275112 
	3615.130905248832278 3462.56390012538759 14163.34215805752865 
	3615.13090524882864 3450.29988359055551 14123.5835310205548 
	3615.130905248821819 3442.880156252852885 14086.87949858266074 
	3615.130905248821364 3439.471540724155147 14062.17836058086868 
	3615.130905248820909 3438.075597357885727 14049.78915168519779 
	3615.130905248820909 3437.17005457655614 14039.43901301619735 
	3615.130905248821364 3436.600678135588169 14031.14729088781678 
	3615.130905248821364 3434.969128983702831 14002.10365580177677 
	3615.130905248823638 3435.853202418554702 13966.69382662093994 
	3615.130905248830459 3441.539905934997478 13921.32346902209429 
	3615.13090524882773 3447.724316348086177 13888.63584629772413 
	3615.130905248857744 3457.410979204325031 13852.48490154842875 
	3615.130905248854106 3469.772299303368527 13817.15925126355432 
	3615.130905248895942 3489.726005150569563 13771.42071004208992 
	3615.130905248921408 3520.978982868943604 13717.28695719175994 
	3615.130905248965973 3557.35427856513661 13671.67480963095841 
	3615.130905249002353 3583.477242601786656 13644.89396651455172 
	3615.13090524900781 3595.521122345648109 13633.43601754892916 
	3615.130905249025545 3614.009887406564758 13616.70489586386975 
	3615.130905249099214 3643.286688544804292 13593.35744276932928 
	3615.130905249110583 3681.732884650522919 13568.52626190620322 
	3615.130905249211992 3718.498583834205419 13549.09546588515332 
	3615.130905249248372 3752.801802255758957 13534.12884089086765 
	3615.130905249345687 3788.127719919394167 13521.76808220986459 
	3615.130905249470743 3830.303547503315713 13510.46652361387532 
	3615.130905249513035 3879.542878625266439 13502.10028263091954 
	3615.13090524986228 3935.642773740801204 13498.94996021814586 
	3615.13090524993504 3991.742522741506036 13502.10036144558217 
	3615.13090525016878 4040.982023091039082 13510.46651469505923 
	3615.130905250203341 4083.157605087724278 13521.76844980895476 
	3615.130905250312026 4130.259391129465257 13538.24838664605704 
	3615.130905250498017 4175.313516850823362 13559.94460780258487 
	3615.130905250616706 4212.28397681721799 13583.17657415368558 
	3615.130905250707656 4232.622187454880986 13597.60708606049957 
	3615.130905250711749 4257.352755692561004 13616.58331708648439 
	3615.130905251327476 4289.939022467669929 13645.70359346915211 
	3615.130905251977765 4327.379675768672314 13687.60015462999581 
	3615.130905252862249 4359.894265921710939 13733.42498536284984 
	3615.130905253581204 4387.073448964528325 13782.6023343409197 
	3615.130905254954087 4408.575935622699944 13834.51339209668913 
	3615.130905257262839 4424.13079356146045 13888.50571265128747 
	3615.13090525946609 4431.97383079489282 13934.66767260521556 
	3615.130905260241889 4434.725059989828878 13967.28969071115898 
	3615.130905260466534 4435.413414582198129 13983.63927258585136 
	3615.130905260524287 4435.585508021223177 13991.81889611804581 
	3615.130905260542477 4435.628537134311046 13995.90931017691582 
	3615.13090526054566 4435.639293776916929 13997.95459281675357 
	3615.130905260548388 4435.642367248539813 13999.12333648471031 
	3615.130905260547934 4435.64287948603851 13999.70771012180376 
	3615.130905260547934 4435.642879480426927 13999.99989693964017 
	3698.46423859471588 4435.642879480425108 13999.99989693964017 
	3698.464238594713606 4435.64287943553245 14002.3373914823278 
	3698.464238594659037 4435.610095427580745 14007.01238047660991 
	3698.464238594604012 4435.413405036892073 14016.36051994083027 
	3698.464238594379822 4434.725100542131258 14032.71010656810722 
	3698.464238593739083 4432.759715599320771 14056.01151761963592 
	3698.464238593157916 4428.836933201539978 14083.79693054474956 
	3698.464238592529455 4421.538049845871683 14120.49273238715432 
	3698.464238590609511 4408.575883354069447 14165.48629508677004 
	3698.464238589076558 4387.073454001313621 14217.39742221913002 
	3698.46423858751632 4359.894166798843798 14266.57465258153388 
	3698.464238586026568 4327.379680188419115 14312.3995741921517 
	3698.464238585503608 4289.938955068712858 14354.29599992235853 
	3698.46423858507751 4249.59419892625192 14390.34989389586735 
	3698.464238584053874 4207.366058229675218 14420.70972581728529 
	3698.464238583947918 4164.126608128122825 14445.67388056703021 
	3698.464238583733732 4122.408955760581193 14464.49781652945421 
	3698.464238583575934 4083.157815089373798 14478.2315001831339 
	3698.464238583317638 4034.957088152562392 14491.14879058694896 
	3698.464238583241695 3973.14774828280224 14500.46574065487766 
	3698.464238582970665 3898.138034566091392 14500.46578066861184 
	3698.464238582892449 3836.328644805175372 14491.1490724976029 
	3698.464238582789676 3788.127895445853483 14478.23175190488837 
	3698.464238582672806 3752.801925906239376 14465.87136532023942 
	3698.464238582580037 3724.215897762377153 14453.3990160905505 
	3698.464238582550479 3701.954148684942083 14442.16072773379165 
	3698.464238582525923 3680.128108823350431 14430.09797036903547 
	3698.464238582435883 3653.720143140204527 14413.50474878190835 
	3698.464238582416783 3623.607168350116353 14391.28041878865588 
	3698.464238582323105 3599.967312549712005 14370.9365341997418 
	3698.464238582310372 3582.007152440368372 14353.63571430731463 
	3698.464238582292182 3569.031561872815928 14340.16556741927343 
	3698.464238582277176 3558.645905244064579 14328.54394421009238 
	3698.464238582273993 3550.602401866148284 14319.01856289170064 
	3698.464238582267171 3538.806591918310005 14304.50729821652749 
	3698.464238582190319 3514.728651708579491 14271.8858105977597 
	3698.464238582186226 3494.934303483766143 14237.60172390615298 
	3698.464238582178041 3480.697173944799488 14207.55946011126071 
	3698.464238582177586 3473.954031374341412 14192.363305275112 
	3698.464238582175312 3462.5639001253885 14163.34215805752865 
	3698.464238582168946 3450.299883590556419 14123.5835310205548 
	3698.464238582163489 3442.880156252853794 14086.87949858266074 
	3698.464238582162579 3439.471540724156057 14062.17836058086868 
	3698.46423858216167 3438.075597357886636 14049.78915168519779 
	3698.464238582162125 3437.17005457655705 14039.43901301619735 
	3698.464238582162125 3436.600678135588623 14031.14729088781678 
	3698.464238582162125 3434.969128983703285 14002.10365580177677 
	3698.464238582164398 3435.853202418555156 13966.69382662093994 
	3698.464238582171674 3441.539905934998387 13921.32346902209429 
	3698.464238582168491 3447.724316348086177 13888.63584629772413 
	3698.464238582200778 3457.410979204324576 13852.48490154842875 
	3698.464238582196685 3469.772299303368072 13817.15925126355432 
	3698.464238582241251 3489.726005150569108 13771.42071004208992 
	3698.46423858226899 3520.978982868943604 13717.28695719175994 
	3698.464238582315375 3557.35427856513661 13671.67480963095841 
	3698.464238582354483 3583.477242601787111 13644.89396651455172 
	3698.464238582360395 3595.521122345648109 13633.43601754892916 
	3698.464238582379039 3614.009887406564758 13616.70489586386975 
	3698.464238582457256 3643.286688544804292 13593.35744276932928 
	3698.464238582469989 3681.732884650522919 13568.52626190620322 
	3698.464238582578673 3718.498583834206329 13549.09546588515332 
	3698.464238582617327 3752.801802255759867 13534.12884089086765 
	3698.464238582721919 3788.127719919394622 13521.76808220986459 
	3698.464238582855614 3830.303547503316622 13510.46652361387532 
	3698.464238582901999 3879.542878625267349 13502.10028263091954 
	3698.464238583275801 3935.642773740801204 13498.94996021814586 
	3698.464238583354017 3991.742522741506946 13502.10036144558217 
	3698.464238583603674 4040.982023091039537 13510.46651469505923 
	3698.464238583640963 4083.157605087725187 13521.76844980895476 
	3698.464238583757378 4130.259391129464348 13538.24838664605704 
	3698.464238583956558 4175.313516850823362 13559.94460780258487 
	3698.464238584083432 4212.2839768172189 13583.17657415368558 
	3698.464238584181203 4232.622187454880986 13597.60708606049957 
	3698.46423858418575 4257.352755692561004 13616.58331708648439 
	3698.464238584844225 4289.939022467669929 13645.70359346915211 
	3698.464238585541352 4327.379675768671405 13687.60015462999581 
	3698.464238586488591 4359.894265921710939 13733.42498536284984 
	3698.464238587257569 4387.073448964528325 13782.6023343409197 
	3698.464238588727767 4408.575935622699944 13834.51339209668913 
	3698.464238591198409 4424.130793561459541 13888.50571265128747 
	3698.464238593558093 4431.97383079489282 13934.66767260521556 
	3698.464238594387552 4434.725059989827969 13967.28969071115898 
	3698.464238594628569 4435.41341458219722 13983.63927258585136 
	3698.464238594690869 4435.585508021222267 13991.81889611804581 
	3698.464238594709514 4435.628537134310136 13995.90931017691582 
	3698.464238594713606 4435.63929377691602 13997.95459281675357 
	3698.46423859471588 4435.642367248537994 13999.12333648471031 
	3698.46423859471679 4435.642879486036691 13999.70771012180376 
	3698.46423859471588 4435.642879480425108 13999.99989693964017 
	3781.797571928049365 4435.642879480425108 13999.99989693964017 
	3781.797571928047091 4435.64287943553245 14002.3373914823278 
	3781.797571927992522 4435.610095427580745 14007.01238047660991 
	3781.797571927937497 4435.413405036892073 14016.36051994083027 
	3781.797571927713307 4434.725100542131258 14032.71010656810722 
	3781.797571927072568 4432.759715599320771 14056.01151761963592 
	3781.797571926491401 4428.836933201539978 14083.79693054474956 
	3781.79757192586294 4421.538049845871683 14120.49273238715432 
	3781.797571923942996 4408.575883354069447 14165.48629508677004 
	3781.797571922410043 4387.073454001313621 14217.39742221913002 
	3781.797571920849805 4359.894166798843798 14266.57465258153388 
	3781.797571919360053 4327.379680188419115 14312.3995741921517 
	3781.797571918837093 4289.938955068712858 14354.29599992235853 
	3781.797571918410995 4249.59419892625192 14390.34989389586735 
	3781.797571917387359 4207.366058229675218 14420.70972581728529 
	3781.797571917281402 4164.126608128122825 14445.67388056703021 
	3781.797571917067216 4122.408955760581193 14464.49781652945421 
	3781.797571916909419 4083.157815089373344 14478.2315001831339 
	3781.797571916651123 4034.957088152561937 14491.14879058694896 
	3781.79757191657518 3973.147748282801786 14500.46574065487766 
	3781.79757191630415 3898.138034566090937 14500.46578066861184 
	3781.797571916225934 3836.328644805174918 14491.1490724976029 
	3781.797571916123161 3788.127895445853028 14478.23175190488837 
	3781.797571916006291 3752.801925906238921 14465.87136532023942 
	3781.797571915913522 3724.215897762376699 14453.3990160905505 
	3781.797571915883964 3701.954148684941629 14442.16072773379165 
	3781.797571915859407 3680.128108823349976 14430.09797036903547 
	3781.797571915769822 3653.720143140204073 14413.50474878190835 
	3781.797571915749813 3623.607168350115899 14391.28041878865588 
	3781.797571915657045 3599.967312549711551 14370.9365341997418 
	3781.797571915643857 3582.007152440367918 14353.63571430731463 
	3781.797571915625667 3569.031561872815473 14340.16556741927343 
	3781.797571915610661 3558.645905244064124 14328.54394421009238 
	3781.797571915607477 3550.602401866147829 14319.01856289170064 
	3781.797571915600656 3538.80659191830955 14304.50729821652749 
	3781.797571915523349 3514.728651708579036 14271.8858105977597 
	3781.797571915519711 3494.934303483765689 14237.60172390615298 
	3781.797571915511526 3480.697173944799033 14207.55946011126071 
	3781.797571915511071 3473.954031374340957 14192.363305275112 
	3781.797571915508797 3462.563900125388045 14163.34215805752865 
	3781.797571915502886 3450.299883590555964 14123.5835310205548 
	3781.797571915496519 3442.88015625285334 14086.87949858266074 
	3781.797571915496064 3439.471540724155602 14062.17836058086868 
	3781.797571915495155 3438.075597357886181 14049.78915168519779 
	3781.79757191549561 3437.170054576556595 14039.43901301619735 
	3781.79757191549561 3436.600678135588169 14031.14729088781678 
	3781.79757191549561 3434.969128983702831 14002.10365580177677 
	3781.797571915497883 3435.853202418554702 13966.69382662093994 
	3781.797571915505159 3441.539905934997932 13921.32346902209429 
	3781.797571915501976 3447.724316348085722 13888.63584629772413 
	3781.797571915534263 3457.410979204324121 13852.48490154842875 
	3781.79757191553017 3469.772299303367618 13817.15925126355432 
	3781.797571915574736 3489.726005150568653 13771.42071004208992 
	3781.797571915602475 3520.978982868943149 13717.28695719175994 
	3781.797571915648859 3557.354278565136156 13671.67480963095841 
	3781.797571915687968 3583.477242601786656 13644.89396651455172 
	3781.797571915693879 3595.521122345647655 13633.43601754892916 
	3781.797571915712524 3614.009887406564303 13616.70489586386975 
	3781.797571915790741 3643.286688544803837 13593.35744276932928 
	3781.797571915803474 3681.732884650522465 13568.52626190620322 
	3781.797571915912158 3718.498583834205874 13549.09546588515332 
	3781.797571915950812 3752.801802255759412 13534.12884089086765 
	3781.797571916055404 3788.127719919394167 13521.76808220986459 
	3781.797571916189099 3830.303547503316167 13510.46652361387532 
	3781.797571916235484 3879.542878625266894 13502.10028263091954 
	3781.797571916609286 3935.642773740800749 13498.94996021814586 
	3781.797571916687502 3991.742522741506491 13502.10036144558217 
	3781.797571916937159 4040.982023091039082 13510.46651469505923 
	3781.797571916974448 4083.157605087724733 13521.76844980895476 
	3781.797571917090863 4130.259391129464348 13538.24838664605704 
	3781.797571917290043 4175.313516850823362 13559.94460780258487 
	3781.797571917416917 4212.2839768172189 13583.17657415368558 
	3781.797571917514688 4232.622187454880986 13597.60708606049957 
	3781.797571917519235 4257.352755692561004 13616.58331708648439 
	3781.797571918177709 4289.939022467669929 13645.70359346915211 
	3781.797571918874837 4327.379675768671405 13687.60015462999581 
	3781.797571919822076 4359.894265921710939 13733.42498536284984 
	3781.797571920591054 4387.073448964528325 13782.6023343409197 
	3781.797571922061252 4408.575935622699944 13834.51339209668913 
	3781.797571924531894 4424.130793561459541 13888.50571265128747 
	3781.797571926891578 4431.97383079489282 13934.66767260521556 
	3781.797571927721037 4434.725059989827969 13967.28969071115898 
	3781.797571927962053 4435.41341458219722 13983.63927258585136 
	3781.797571928024354 4435.585508021222267 13991.81889611804581 
	3781.797571928042998 4435.628537134310136 13995.90931017691582 
	3781.797571928047091 4435.63929377691602 13997.95459281675357 
	3781.797571928049365 4435.642367248537994 13999.12333648471031 
	3781.797571928050274 4435.642879486036691 13999.70771012180376 
	3781.797571928049365 4435.642879480425108 13999.99989693964017 
	0 
	
	0 
	0 
	86 0 0.002232142857142857019 0.004464285714285714038 0.008928571428571428076 0.01785714285714285615 0.02678571428571428423 0.0357142857142857123 0.05357142857142856845 0.07142857142857142461 0.08928571428571427382 0.1071428571428571369 0.125 0.1428571428571428492 0.1587301587301587213 0.1746031746031745935 0.1904761904761904656 0.2023809523809523836 0.2142857142857142738 0.238095238095238082 0.2619047619047618625 0.2857142857142856984 0.2976190476190476164 0.3095238095238095344 0.3214285714285713969 0.3273809523809523281 0.3333333333333333148 0.3452380952380952328 0.3571428571428570953 0.3690476190476190133 0.375 0.3809523809523809312 0.3869047619047618625 0.3898809523809523281 0.3928571428571428492 0.4047619047619047672 0.4285714285714285476 0.4305555555555555802 0.4365079365079365115 0.4444444444444444198 0.4603174603174602919 0.476190476190476164 0.4801587301587301182 0.4841269841269840724 0.4880952380952380265 0.4900793650793650036 0.4920634920634920362 0.5158730158730158166 0.5238095238095237249 0.5357142857142855874 0.5476190476190475609 0.5595238095238095344 0.5714285714285713969 0.5952380952380951218 0.6190476190476189577 0.6269841269841269771 0.6309523809523809312 0.6349206349206348854 0.650793650793650702 0.6666666666666666297 0.6785714285714286031 0.6904761904761904656 0.7023809523809523281 0.7142857142857141906 0.7321428571428569843 0.749999999999999889 0.7678571428571427937 0.7857142857142855874 0.7976190476190474499 0.8095238095238094234 0.8333333333333332593 0.8452380952380951218 0.851190476190476053 0.8571428571428570953 0.875 0.8928571428571427937 0.9107142857142856984 0.9285714285714286031 0.9464285714285713969 0.9642857142857143016 0.9821428571428572063 0.9910714285714286031 0.9955357142857143016 0.9977678571428572063 0.9988839285714286031 0.9994419642857143016 0.9997209821428572063 
	0 
	0 
	0 
	F 1 F 0 F 1 F 0 } I I I I #
tcoedge-coedge $-1 -1 $-1 $14 $14 $18 $19 reversed $9 $20 -6.283185307179586232 -0 #
tcoedge-coedge $-1 -1 $-1 $21 $22 $11 $16 reversed $12 $23 -6.283185307179586232 -0 #
tedge-edge $-1 -1 $-1 $24 0 $24 6.283185307179586232 $15 $25 forward @7 unknown 0.0006525898774351001318 #
pcurve $-1 -1 $-1 0 forward { exppc nurbs 2 periodic 5 
	0 2 1.570796326794896558 2 3.141592653589793116 2 4.712388980384689674 2 6.283185307179586232 2 
	0 500 1 
	-500 500 0.707106781186543798 
	-500 0 1 
	-500 -500 0.7071067811865463515 
	0 -500 1 
	500 -500 0.7071067811865463515 
	500 0 1 
	500 500 0.707106781186543798 
	0 500 1 
	0 
	plane 3781.797571915386925 3935.642797989804421 14000.00000000000182 1 -3.637978807091713027e-15 0 0 0 -1 forward_v I I I I 
	} 0 0 #
tcoedge-coedge $-1 -1 $-1 $22 $21 $14 $19 forward $12 $26 0 6.283185307179586232 #
tedge-edge $-1 -1 $-1 $27 0 $27 6.283185307179586232 $18 $28 forward @7 unknown 0.0006525898774350988307 #
pcurve $-1 -1 $-1 0 forward { exppc nurbs 2 periodic 5 
	-6.283185307179586232 2 -4.712388980384689674 2 -3.141592653589793116 2 -1.570796326794896558 2 0 2 
	0 500 1 
	500 500 0.707106781186543798 
	500 0 1 
	500 -500 0.7071067811865463515 
	0 -500 1 
	-500 -500 0.7071067811865463515 
	-500 0 1 
	-500 500 0.707106781186543798 
	0 500 1 
	0 
	plane 3531.797571915386925 3935.642797989805331 14000.00000000000182 -1 3.637978807091713027e-15 -0 0 0 -1 reverse_v I I I I 
	} 0 0 #
coedge $-1 -1 $-1 $18 $15 $22 $29 reversed $12 $30 #
coedge $-1 -1 $-1 $15 $18 $21 $29 forward $12 $31 #
pcurve $-1 -1 $-1 0 forward { exppc nubs 1 periodic 2 
	-6.283185307179586232 1 -0 1 
	1 1 
	0 1 
	2.726396620975368931e-13 
	spline forward { ref 0 } I I I I 
	} 0 0 #
tvertex-vertex $-1 -1 $-1 $16 $32 0.0001313855478808255092 #
ellipse-curve $-1 -1 $-1 3781.797571915386925 3935.642797989804421 14000.00000000000182 1 -3.637978807091713027e-15 0 1.818989403545856476e-12 500 0 1 I I #
pcurve $-1 -1 $-1 0 forward { exppc nubs 1 periodic 2 
	0 1 6.283185307179586232 1 
	0 0 
	1 0 
	4.411402399551011509e-13 
	spline forward { ref 0 } I I I I 
	} 0 0 #
tvertex-vertex $-1 -1 $-1 $19 $33 0.0001313855489312345907 #
ellipse-curve $-1 -1 $-1 3531.797571915386925 3935.642797989805331 14000.00000000000182 1 -3.637978807091713027e-15 0 1.818989403545856476e-12 500 0 1 I I #
edge $-1 -1 $-1 $27 0 $24 0.9999999999493575098 $22 $34 forward @7 tangent #
pcurve $-1 -1 $-1 -1 $34 0 0 #
pcurve $-1 -1 $-1 1 $34 1 0 #
point $-1 -1 $-1 3781.797571915388744 4435.642797989804421 14000.00000000000182 #
point $-1 -1 $-1 3531.797571915388744 4435.642797989805331 14000.00000000000182 #
intcurve-curve $-1 -1 $-1 forward { parcur full nubs 3 open 2 
	0 3 1 3 
	3531.797571927214449 4435.642879480427837 13999.99989693964017 
	3615.130905260547934 4435.642879480426927 13999.99989693964017 
	3698.46423859471588 4435.642879480425108 13999.99989693964017 
	3781.797571928049365 4435.642879480425108 13999.99989693964017 
	0 
	
	spline forward { ref 0 } I I I I 
	null_surface 
	nubs 1 open 2 
	0 1 1 1 
	0 0 
	0 1 
	
	nullbs 
	I I 
	0 
	0 
	0 
	surf1 } F 0 F 0.9999999999493575098 #
End-of-ACIS-data 