700 0 1 0           
4 LibG 20 ASM 224.0.1.65535 NT 24 Wed Jul 17 14:48:15 2019 
1000 9.999999999999999547e-07 1.000000000000000036e-10 
body $-1 -1 $-1 $1 $-1 $2 #
lump $-1 -1 $-1 $-1 $3 $0 #
transform $-1 -1 1 0 0 0 1 0 0 0 1 0 0 0 1 no_rotate no_reflect no_shear #
shell $-1 -1 $-1 $-1 $-1 $4 $-1 $1 #
face $-1 -1 $-1 $5 $6 $3 $-1 $7 forward single #
face $-1 -1 $-1 $8 $9 $3 $-1 $10 reversed single #
loop $-1 -1 $-1 $-1 $11 $4 #
plane-surface $-1 -1 $-1 12781.79757191538738 3935.64279798977168 14000.00000000000182 1 -3.637978807091713027e-15 0 0 0 -1 forward_v I I I I #
face $-1 -1 $-1 $-1 $12 $3 $-1 $13 forward single #
loop $-1 -1 $-1 $-1 $14 $5 #
plane-surface $-1 -1 $-1 12531.79757191538738 3935.642797989772589 14000.00000000000182 1 -3.637978807091713027e-15 0 0 0 -1 forward_v I I I I #
tcoedge-coedge $-1 -1 $-1 $11 $11 $15 $16 forward $6 $17 0 6.283185307179586232 #
loop $-1 -1 $-1 $-1 $18 $8 #
spline-surface $-1 -1 $-1 forward { exactsur full nubs 3 3 periodic open none none 91 2 
	0 3 0.0005580357142857142547 1 0.001116071428571428509 1 0.002232142857142857019 1 0.004464285714285714038 1 
	0.008928571428571428076 1 0.01785714285714285615 1 0.02678571428571428423 1 0.0357142857142857123 1 0.05357142857142856845 1 
	0.07142857142857142461 1 0.08928571428571427382 1 0.1071428571428571369 1 0.125 1 0.1428571428571428492 1 
	0.1587301587301587213 1 0.1746031746031745935 1 0.1904761904761904656 1 0.2023809523809523836 1 0.2142857142857142738 1 
	0.238095238095238082 1 0.2619047619047618625 1 0.2857142857142856984 1 0.2976190476190476164 1 0.3095238095238095344 1 
	0.3214285714285713969 1 0.3333333333333333148 1 0.3392857142857143016 1 0.3452380952380952328 1 0.351190476190476164 1 
	0.3571428571428570953 1 0.3690476190476190133 1 0.3809523809523809312 1 0.3869047619047618625 1 0.3928571428571428492 1 
	0.4047619047619047672 1 0.4166666666666666297 1 0.4285714285714285476 1 0.4444444444444444198 1 0.4603174603174602919 1 
	0.476190476190476164 1 0.4841269841269840724 1 0.4920634920634920362 1 0.5 1 0.5079365079365079083 1 
	0.5158730158730158166 1 0.5198412698412697708 1 0.5218253968253967479 1 0.5228174603174602364 1 0.5233134920634919807 1 
	0.5235615079365079083 1 0.5238095238095237249 1 0.5476190476190475609 1 0.5714285714285713969 1 0.5952380952380951218 1 
	0.6071428571428569843 1 0.6130952380952379155 1 0.6190476190476189577 1 0.6349206349206348854 1 0.650793650793650702 1 
	0.6666666666666666297 1 0.6904761904761904656 1 0.7023809523809523281 1 0.7142857142857141906 1 0.7321428571428569843 1 
	0.749999999999999889 1 0.7678571428571427937 1 0.7857142857142855874 1 0.7976190476190474499 1 0.8095238095238094234 1 
	0.8333333333333332593 1 0.8571428571428570953 1 0.8616071428571427937 1 0.8660714285714286031 1 0.875 1 
	0.8928571428571427937 1 0.9107142857142856984 1 0.9285714285714286031 1 0.9464285714285713969 1 0.9642857142857143016 1 
	0.9821428571428572063 1 0.9866071428571429047 1 0.9910714285714286031 1 0.9955357142857143016 1 0.9977678571428572063 1 
	0.9988839285714286031 1 0.9994419642857143016 1 0.9997209821428572063 1 0.9998604910714286031 1 0.9999302455357143016 1 
	1 3 
	0 3 1 3 
	12531.7975724980115 4435.642893201497827 13999.99989087562426 
	12531.79757249800423 4435.642893199870741 14000.58426450836305 
	12531.79757249788781 4435.640844225757974 14001.75301176242101 
	12531.79757249776958 4435.628550492105205 14004.09047756081964 
	12531.79757249725844 4435.585522980570204 14008.18089171197607 
	12531.79757249532486 4435.413418748606091 14016.36051347753528 
	12531.79757248871647 4434.725114005575051 14032.7100992048945 
	12531.79757246800909 4432.759726901686918 14056.01150666526519 
	12531.797572448766 4428.836944001797747 14083.79691794839346 
	12531.79757242753294 4421.538054629578255 14120.49271337455502 
	12531.79757235898433 4408.575893707728937 14165.4862795697627 
	12531.79757230425639 4387.073424230940873 14217.39736959886795 
	12531.79757224201239 4359.894197723764592 14266.57465685391071 
	12531.79757219414932 4327.379558232412819 14312.3994388148476 
	12531.79757213212361 4289.93889222625512 14354.29595320031149 
	12531.79757212531877 4249.594182662869571 14390.34988640937445 
	12531.79757207572402 4207.365994475196203 14420.70968315114442 
	12531.79757207230614 4164.126555636176818 14445.67387044008319 
	12531.79757206244722 4122.408886486885422 14464.49776091231797 
	12531.79757205501846 4083.157761820530141 14478.23156292746899 
	12531.79757204549423 4034.95696936593049 14491.14852737733781 
	12531.79757203393274 3973.147700063724642 14500.4660347951085 
	12531.79757201412212 3898.137937296090058 14500.46565366690993 
	12531.79757199909182 3836.328586301954147 14491.14878285949271 
	12531.79757199562664 3788.127703384459892 14478.23207778433971 
	12531.79757198807056 3752.801756730378656 14465.87152213488844 
	12531.7975719826718 3718.498442315825287 14450.90488269076923 
	12531.79757197650179 3690.924294238901894 14436.33156651626632 
	12531.79757197507206 3669.56463584862604 14423.46099980244981 
	12531.79757197341678 3653.916974899085744 14413.21592932006934 
	12531.79757197278013 3638.663372928874196 14402.39287825770407 
	12531.79757197137224 3618.878970441192905 14387.21185843196508 
	12531.79757196732498 3595.238983049715443 14366.86809820236704 
	12531.7975719637343 3573.185489998548292 14344.81450606881299 
	12531.79757196247556 3556.568434261019775 14326.21989648199815 
	12531.79757196162609 3540.658162352296131 14307.01705871568265 
	12531.79757195762249 3522.137743965047775 14281.92298334808947 
	12531.79757195647107 3502.226025157315235 14250.23332607437624 
	12531.79757195299135 3482.794602101042528 14213.46790018226238 
	12531.79757194986814 3465.016776292494797 14171.29387532173496 
	12531.79757194813828 3450.300190748130262 14123.58339461309697 
	12531.79757194438753 3442.055982187885547 14082.80117966184298 
	12531.79757194345984 3437.921184850671125 14049.80451527412333 
	12531.79757194262675 3436.057252171776781 14024.9332369526328 
	12531.79757194193735 3435.435484611210541 13999.99995250411666 
	12531.79757194158083 3436.057240943833222 13975.06667675010794 
	12531.79757194112972 3437.610466289276701 13954.34060199777377 
	12531.79757194104786 3439.239061373829827 13939.88652150812231 
	12531.79757194100785 3440.18828967241825 13932.67639000824965 
	12531.79757194099147 3440.696585834499729 13929.07597259211616 
	12531.79757194099511 3440.959143099288212 13927.27697770753548 
	12531.79757194098966 3441.111582507824551 13926.24933586186307 
	12531.79757194147533 3444.885302172001957 13901.07791122382332 
	12531.7975719460228 3456.070885633587295 13852.07166504053021 
	12531.7975719505248 3483.474494256769958 13782.24702183256522 
	12531.79757195694765 3514.728976498935481 13728.11413324410205 
	12531.79757195882303 3540.658382812447599 13692.98300316559289 
	12531.79757195999809 3556.56846915919823 13673.78005245930763 
	12531.79757196215724 3575.955005680547856 13652.08632915123599 
	12531.79757196586434 3604.250838042886244 13624.4870619129797 
	12531.79757197144863 3643.286710948736982 13593.35748041915576 
	12531.7975719758706 3692.217583826280134 13561.75279485870487 
	12531.79757198321204 3741.026181367680692 13538.24843638497077 
	12531.79757198688822 3788.127962736136396 13521.76849115444384 
	12531.79757199148844 3830.30361898927822 13510.46668273544128 
	12531.79757200056338 3879.543050204601514 13502.10050547661558 
	12531.79757201115899 3935.642840925963355 13498.95002947258035 
	12531.79757202238397 3991.742655724025099 13502.10047165291508 
	12531.79757203513691 4040.982051237150699 13510.46666883688522 
	12531.7975720419945 4083.157773103459476 13521.76838098267945 
	12531.79757204731868 4130.259303846671173 13538.24872810024681 
	12531.79757206605245 4186.57755448412081 13565.36822209635466 
	12531.79757210229036 4231.767649110920502 13596.1795458789984 
	12531.79757210961179 4258.271166357834772 13617.93119478993685 
	12531.79757211461038 4272.38946183104872 13630.19621486439428 
	12531.79757212020377 4296.178906233821181 13652.68680759441304 
	12531.79757215447171 4327.380007486315662 13687.59995544896083 
	12531.7975722172032 4359.894248887429967 13733.42512244121281 
	12531.79757227206028 4387.073634817849779 13782.60227956705421 
	12531.79757234176941 4408.575824315081263 13834.51348722813418 
	12531.79757239865467 4424.130779947889096 13888.50571582015436 
	12531.79757247446287 4431.189521159785727 13930.05148343808469 
	12531.7975724848111 4433.938952250627153 13957.96912068373604 
	12531.79757248964961 4434.921788828476565 13971.96098858666664 
	12531.79757249554314 4435.41341664914853 13983.63926878321035 
	12531.79757249728755 4435.58552395440347 13991.81888981442535 
	12531.79757249782597 4435.628550464895852 13995.90930420094628 
	12531.79757249795148 4435.639307568073491 13997.95458674904876 
	12531.79757249799331 4435.641996782237584 13998.97723746727752 
	12531.79757249800241 4435.642669098754595 13999.48856400261138 
	12531.79757249801332 4435.642861186937807 13999.78075076316964 
	12531.79757249801332 4435.642893201701554 13999.92684417153214 
	12531.7975724980115 4435.642893201497827 13999.99989087562426 
	12615.13090583134544 4435.642893201496918 13999.99989087562426 
	12615.13090583133817 4435.642893199869832 14000.58426450836305 
	12615.13090583122175 4435.640844225757064 14001.75301176242101 
	12615.13090583110352 4435.628550492104296 14004.09047756081964 
	12615.13090583059238 4435.585522980569294 14008.18089171197607 
	12615.1309058286588 4435.413418748605181 14016.36051347753528 
	12615.13090582205041 4434.725114005574142 14032.7100992048945 
	12615.13090580134303 4432.759726901686008 14056.01150666526519 
	12615.13090578209994 4428.836944001796837 14083.79691794839346 
	12615.13090576086688 4421.538054629577346 14120.49271337455502 
	12615.13090569231827 4408.575893707728028 14165.4862795697627 
	12615.13090563759033 4387.073424230939963 14217.39736959886795 
	12615.13090557534633 4359.894197723763682 14266.57465685391071 
	12615.13090552748326 4327.37955823241191 14312.3994388148476 
	12615.13090546545754 4289.938892226254211 14354.29595320031149 
	12615.13090545865271 4249.594182662868661 14390.34988640937445 
	12615.13090540905796 4207.365994475195293 14420.70968315114442 
	12615.13090540564008 4164.126555636175908 14445.67387044008319 
	12615.13090539578116 4122.408886486884512 14464.49776091231797 
	12615.1309053883524 4083.157761820529686 14478.23156292746899 
	12615.13090537882817 4034.956969365930036 14491.14852737733781 
	12615.13090536726668 3973.147700063724187 14500.4660347951085 
	12615.13090534745606 3898.137937296089603 14500.46565366690993 
	12615.13090533242575 3836.328586301953692 14491.14878285949271 
	12615.13090532896058 3788.127703384459437 14478.23207778433971 
	12615.1309053214045 3752.801756730378202 14465.87152213488844 
	12615.13090531600574 3718.498442315824832 14450.90488269076923 
	12615.13090530983573 3690.924294238901439 14436.33156651626632 
	12615.130905308406 3669.564635848625585 14423.46099980244981 
	12615.13090530675072 3653.91697489908529 14413.21592932006934 
	12615.13090530611407 3638.663372928873741 14402.39287825770407 
	12615.13090530470618 3618.87897044119245 14387.21185843196508 
	12615.13090530065892 3595.238983049714989 14366.86809820236704 
	12615.13090529706824 3573.185489998547837 14344.81450606881299 
	12615.1309052958095 3556.56843426101932 14326.21989648199815 
	12615.13090529496003 3540.658162352295676 14307.01705871568265 
	12615.13090529095643 3522.137743965047321 14281.92298334808947 
	12615.13090528980501 3502.22602515731478 14250.23332607437624 
	12615.13090528632529 3482.794602101042074 14213.46790018226238 
	12615.13090528320208 3465.016776292494342 14171.29387532173496 
	12615.13090528147222 3450.300190748129808 14123.58339461309697 
	12615.13090527772147 3442.055982187885093 14082.80117966184298 
	12615.13090527679378 3437.92118485067067 14049.80451527412333 
	12615.13090527596069 3436.057252171776327 14024.9332369526328 
	12615.13090527527129 3435.435484611210086 13999.99995250411666 
	12615.13090527491477 3436.057240943832767 13975.06667675010794 
	12615.13090527446366 3437.610466289276246 13954.34060199777377 
	12615.1309052743818 3439.239061373829372 13939.88652150812231 
	12615.13090527434179 3440.188289672417795 13932.67639000824965 
	12615.13090527432541 3440.696585834499274 13929.07597259211616 
	12615.13090527432905 3440.959143099287758 13927.27697770753548 
	12615.1309052743236 3441.111582507824096 13926.24933586186307 
	12615.13090527480927 3444.885302172001502 13901.07791122382332 
	12615.13090527935674 3456.07088563358684 13852.07166504053021 
	12615.13090528385874 3483.474494256769503 13782.24702183256522 
	12615.13090529028159 3514.728976498935026 13728.11413324410205 
	12615.13090529215697 3540.658382812447144 13692.98300316559289 
	12615.13090529333203 3556.568469159197775 13673.78005245930763 
	12615.13090529549117 3575.955005680547401 13652.08632915123599 
	12615.13090529919828 3604.250838042885789 13624.4870619129797 
	12615.13090530478257 3643.286710948736527 13593.35748041915576 
	12615.13090530920454 3692.217583826279679 13561.75279485870487 
	12615.13090531654598 3741.026181367680238 13538.24843638497077 
	12615.13090532022215 3788.127962736135942 13521.76849115444384 
	12615.13090532482238 3830.303618989277766 13510.46668273544128 
	12615.13090533389732 3879.543050204601059 13502.10050547661558 
	12615.13090534449293 3935.642840925962901 13498.95002947258035 
	12615.13090535571791 3991.742655724024644 13502.10047165291508 
	12615.13090536847085 4040.982051237150245 13510.46666883688522 
	12615.13090537532844 4083.157773103459022 13521.76838098267945 
	12615.13090538065262 4130.259303846670264 13538.24872810024681 
	12615.13090539938639 4186.577554484119901 13565.36822209635466 
	12615.1309054356243 4231.767649110919592 13596.1795458789984 
	12615.13090544294573 4258.271166357833863 13617.93119478993685 
	12615.13090544794431 4272.389461831047811 13630.19621486439428 
	12615.13090545353771 4296.178906233820271 13652.68680759441304 
	12615.13090548780565 4327.380007486314753 13687.59995544896083 
	12615.13090555053714 4359.894248887429058 13733.42512244121281 
	12615.13090560539422 4387.07363481784887 13782.60227956705421 
	12615.13090567510335 4408.575824315080354 13834.51348722813418 
	12615.13090573198861 4424.130779947888186 13888.50571582015436 
	12615.13090580779681 4431.189521159784817 13930.05148343808469 
	12615.13090581814504 4433.938952250626244 13957.96912068373604 
	12615.13090582298355 4434.921788828475655 13971.96098858666664 
	12615.13090582887708 4435.413416649147621 13983.63926878321035 
	12615.13090583062149 4435.585523954402561 13991.81888981442535 
	12615.13090583115991 4435.628550464894943 13995.90930420094628 
	12615.13090583128542 4435.639307568072581 13997.95458674904876 
	12615.13090583132725 4435.641996782236674 13998.97723746727752 
	12615.13090583133635 4435.642669098753686 13999.48856400261138 
	12615.13090583134726 4435.642861186936898 13999.78075076316964 
	12615.13090583134726 4435.642893201700645 13999.92684417153214 
	12615.13090583134544 4435.642893201496918 13999.99989087562426 
	12698.46423917629545 4435.642893201496918 13999.99989087562426 
	12698.46423917628817 4435.642893199868922 14000.58426450836305 
	12698.46423917617358 4435.640844225756155 14001.75301176242101 
	12698.46423917605352 4435.628550492103386 14004.09047756081964 
	12698.46423917553147 4435.585522980569294 14008.18089171197607 
	12698.46423917356515 4435.413418748604272 14016.36051347753528 
	12698.46423916681852 4434.725114005573232 14032.7100992048945 
	12698.46423914570005 4432.759726901684189 14056.01150666526519 
	12698.46423912606951 4428.836944001795018 14083.79691794839346 
	12698.46423910441627 4421.538054629576436 14120.49271337455502 
	12698.46423903449977 4408.575893707728028 14165.4862795697627 
	12698.46423897868226 4387.073424230939963 14217.39736959886795 
	12698.46423891519225 4359.894197723764592 14266.57465685391071 
	12698.46423886637422 4327.379558232412819 14312.3994388148476 
	12698.46423880311158 4289.938892226254211 14354.29595320031149 
	12698.46423879617214 4249.594182662868661 14390.34988640937445 
	12698.46423874558604 4207.365994475196203 14420.70968315114442 
	12698.46423874210086 4164.126555636175908 14445.67387044008319 
	12698.46423873204367 4122.408886486884512 14464.49776091231797 
	12698.46423872446576 4083.157761820529686 14478.23156292746899 
	12698.46423871475417 4034.956969365930945 14491.14852737733781 
	12698.46423870296167 3973.147700063725097 14500.4660347951085 
	12698.46423868275451 3898.137937296090513 14500.46565366690993 
	12698.46423866742771 3836.328586301954601 14491.14878285949271 
	12698.46423866389159 3788.127703384460347 14478.23207778433971 
	12698.46423865618635 3752.801756730379111 14465.87152213488844 
	12698.46423865067845 3718.498442315825741 14450.90488269076923 
	12698.46423864438475 3690.924294238902348 14436.33156651626632 
	12698.46423864292774 3669.564635848626494 14423.46099980244981 
	12698.46423864123972 3653.916974899085744 14413.21592932006934 
	12698.46423864058852 3638.663372928874651 14402.39287825770407 
	12698.46423863915334 3618.878970441192905 14387.21185843196508 
	12698.46423863502423 3595.238983049715443 14366.86809820236704 
	12698.46423863136442 3573.185489998548292 14344.81450606881299 
	12698.46423863008022 3556.56843426101932 14326.21989648199815 
	12698.46423862921074 3540.658162352296586 14307.01705871568265 
	12698.46423862513075 3522.13774396504823 14281.92298334808947 
	12698.46423862395386 3502.226025157315689 14250.23332607437624 
	12698.46423862040683 3482.794602101042983 14213.46790018226238 
	12698.46423861721996 3465.016776292495251 14171.29387532173496 
	12698.4642386154519 3450.300190748130717 14123.58339461309697 
	12698.46423861163021 3442.055982187885547 14082.80117966184298 
	12698.46423861068251 3437.92118485067158 14049.80451527412333 
	12698.46423860983305 3436.057252171776327 14024.9332369526328 
	12698.46423860912728 3435.435484611210995 13999.99995250411666 
	12698.46423860876348 3436.057240943832312 13975.06667675010794 
	12698.46423860830328 3437.610466289276701 13954.34060199777377 
	12698.46423860822142 3439.239061373828918 13939.88652150812231 
	12698.46423860817777 3440.18828967241825 13932.67639000824965 
	12698.46423860816321 3440.696585834499274 13929.07597259211616 
	12698.46423860816685 3440.959143099287758 13927.27697770753548 
	12698.46423860816139 3441.111582507824096 13926.24933586186307 
	12698.46423860865616 3444.885302172001957 13901.07791122382332 
	12698.46423861329458 3456.07088563358775 13852.07166504053021 
	12698.46423861788753 3483.474494256769503 13782.24702183256522 
	12698.46423862444135 3514.728976498935936 13728.11413324410205 
	12698.46423862635493 3540.658382812447144 13692.98300316559289 
	12698.46423862755182 3556.568469159198685 13673.78005245930763 
	12698.46423862975826 3575.955005680547856 13652.08632915123599 
	12698.4642386335363 3604.250838042885789 13624.4870619129797 
	12698.46423863923519 3643.286710948737436 13593.35748041915576 
	12698.46423864374447 3692.217583826279679 13561.75279485870487 
	12698.46423865123325 3741.026181367681147 13538.24843638497077 
	12698.464238654984 3788.127962736136851 13521.76849115444384 
	12698.46423865967517 3830.303618989278675 13510.46668273544128 
	12698.46423866893201 3879.543050204601968 13502.10050547661558 
	12698.46423867973863 3935.64284092596381 13498.95002947258035 
	12698.46423869118735 3991.742655724025553 13502.10047165291508 
	12698.46423870419494 4040.982051237151154 13510.46666883688522 
	12698.46423871118895 4083.157773103459931 13521.76838098267945 
	12698.46423871662046 4130.259303846671173 13538.24872810024681 
	12698.46423873572894 4186.57755448412081 13565.36822209635466 
	12698.46423877268535 4231.767649110920502 13596.1795458789984 
	12698.46423878015776 4258.271166357834772 13617.93119478993685 
	12698.46423878525275 4272.38946183104872 13630.19621486439428 
	12698.46423879095892 4296.178906233821181 13652.68680759441304 
	12698.46423882590898 4327.380007486315662 13687.59995544896083 
	12698.46423888988829 4359.894248887429967 13733.42512244121281 
	12698.46423894584223 4387.073634817849779 13782.60227956705421 
	12698.46423901694106 4408.575824315081263 13834.51348722813418 
	12698.46423907496137 4424.130779947888186 13888.50571582015436 
	12698.46423915227933 4431.189521159784817 13930.05148343808469 
	12698.46423916283675 4433.938952250626244 13957.96912068373604 
	12698.46423916776803 4434.921788828475655 13971.96098858666664 
	12698.46423917378343 4435.41341664914853 13983.63926878321035 
	12698.46423917555876 4435.585523954402561 13991.81888981442535 
	12698.46423917611355 4435.628550464895852 13995.90930420094628 
	12698.46423917623906 4435.639307568072581 13997.95458674904876 
	12698.46423917628272 4435.641996782236674 13998.97723746727752 
	12698.46423917628999 4435.642669098753686 13999.48856400261138 
	12698.46423917629727 4435.642861186937807 13999.78075076316964 
	12698.46423917629545 4435.642893201699735 13999.92684417153214 
	12698.46423917629545 4435.642893201496918 13999.99989087562426 
	12781.79757250962939 4435.642893201496918 13999.99989087562426 
	12781.79757250962211 4435.642893199868922 14000.58426450836305 
	12781.79757250950752 4435.640844225756155 14001.75301176242101 
	12781.79757250938746 4435.628550492103386 14004.09047756081964 
	12781.79757250886541 4435.585522980569294 14008.18089171197607 
	12781.79757250689909 4435.413418748604272 14016.36051347753528 
	12781.79757250015246 4434.725114005573232 14032.7100992048945 
	12781.79757247903399 4432.759726901684189 14056.01150666526519 
	12781.79757245940345 4428.836944001795018 14083.79691794839346 
	12781.7975724377502 4421.538054629576436 14120.49271337455502 
	12781.79757236783371 4408.575893707728028 14165.4862795697627 
	12781.7975723120162 4387.073424230939963 14217.39736959886795 
	12781.79757224852619 4359.894197723764592 14266.57465685391071 
	12781.79757219970816 4327.379558232412819 14312.3994388148476 
	12781.79757213644552 4289.938892226254211 14354.29595320031149 
	12781.79757212950608 4249.594182662868661 14390.34988640937445 
	12781.79757207891998 4207.365994475196203 14420.70968315114442 
	12781.7975720754348 4164.126555636175908 14445.67387044008319 
	12781.79757206537761 4122.408886486884512 14464.49776091231797 
	12781.7975720577997 4083.157761820529231 14478.23156292746899 
	12781.79757204808811 4034.95696936593049 14491.14852737733781 
	12781.79757203629561 3973.147700063724642 14500.4660347951085 
	12781.79757201608845 3898.137937296090058 14500.46565366690993 
	12781.79757200076165 3836.328586301954147 14491.14878285949271 
	12781.79757199722553 3788.127703384459892 14478.23207778433971 
	12781.79757198952029 3752.801756730378656 14465.87152213488844 
	12781.79757198401239 3718.498442315825287 14450.90488269076923 
	12781.79757197771869 3690.924294238901894 14436.33156651626632 
	12781.79757197626168 3669.56463584862604 14423.46099980244981 
	12781.79757197457366 3653.91697489908529 14413.21592932006934 
	12781.79757197392246 3638.663372928874196 14402.39287825770407 
	12781.79757197248728 3618.87897044119245 14387.21185843196508 
	12781.79757196835817 3595.238983049714989 14366.86809820236704 
	12781.79757196469836 3573.185489998547837 14344.81450606881299 
	12781.79757196341416 3556.568434261018865 14326.21989648199815 
	12781.79757196254468 3540.658162352296131 14307.01705871568265 
	12781.79757195846469 3522.137743965047775 14281.92298334808947 
	12781.7975719572878 3502.226025157315235 14250.23332607437624 
	12781.79757195374077 3482.794602101042528 14213.46790018226238 
	12781.7975719505539 3465.016776292494797 14171.29387532173496 
	12781.79757194878584 3450.300190748130262 14123.58339461309697 
	12781.79757194496415 3442.055982187885093 14082.80117966184298 
	12781.79757194401645 3437.921184850671125 14049.80451527412333 
	12781.79757194316699 3436.057252171775872 14024.9332369526328 
	12781.79757194246122 3435.435484611210541 13999.99995250411666 
	12781.79757194209742 3436.057240943831857 13975.06667675010794 
	12781.79757194163722 3437.610466289276246 13954.34060199777377 
	12781.79757194155536 3439.239061373828463 13939.88652150812231 
	12781.79757194151171 3440.188289672417795 13932.67639000824965 
	12781.79757194149715 3440.696585834498819 13929.07597259211616 
	12781.79757194150079 3440.959143099287303 13927.27697770753548 
	12781.79757194149533 3441.111582507823641 13926.24933586186307 
	12781.7975719419901 3444.885302172001502 13901.07791122382332 
	12781.79757194662852 3456.070885633587295 13852.07166504053021 
	12781.79757195122147 3483.474494256769049 13782.24702183256522 
	12781.79757195777529 3514.728976498935481 13728.11413324410205 
	12781.79757195968887 3540.658382812446689 13692.98300316559289 
	12781.79757196088576 3556.56846915919823 13673.78005245930763 
	12781.7975719630922 3575.955005680547401 13652.08632915123599 
	12781.79757196687024 3604.250838042885334 13624.4870619129797 
	12781.79757197256913 3643.286710948736982 13593.35748041915576 
	12781.79757197707841 3692.217583826279224 13561.75279485870487 
	12781.79757198456718 3741.026181367680692 13538.24843638497077 
	12781.79757198831794 3788.127962736136396 13521.76849115444384 
	12781.79757199300911 3830.30361898927822 13510.46668273544128 
	12781.79757200226595 3879.543050204601514 13502.10050547661558 
	12781.79757201307257 3935.642840925963355 13498.95002947258035 
	12781.79757202452129 3991.742655724025099 13502.10047165291508 
	12781.79757203752888 4040.982051237150699 13510.46666883688522 
	12781.79757204452289 4083.157773103459476 13521.76838098267945 
	12781.7975720499544 4130.259303846671173 13538.24872810024681 
	12781.79757206906288 4186.57755448412081 13565.36822209635466 
	12781.79757210601929 4231.767649110920502 13596.1795458789984 
	12781.7975721134917 4258.271166357834772 13617.93119478993685 
	12781.79757211858669 4272.38946183104872 13630.19621486439428 
	12781.79757212429286 4296.178906233821181 13652.68680759441304 
	12781.79757215924292 4327.380007486315662 13687.59995544896083 
	12781.79757222322223 4359.894248887429967 13733.42512244121281 
	12781.79757227917617 4387.073634817849779 13782.60227956705421 
	12781.797572350275 4408.575824315081263 13834.51348722813418 
	12781.79757240829531 4424.130779947888186 13888.50571582015436 
	12781.79757248561327 4431.189521159784817 13930.05148343808469 
	12781.79757249617069 4433.938952250626244 13957.96912068373604 
	12781.79757250110197 4434.921788828475655 13971.96098858666664 
	12781.79757250711737 4435.41341664914853 13983.63926878321035 
	12781.7975725088927 4435.585523954402561 13991.81888981442535 
	12781.79757250944749 4435.628550464895852 13995.90930420094628 
	12781.797572509573 4435.639307568072581 13997.95458674904876 
	12781.79757250961666 4435.641996782236674 13998.97723746727752 
	12781.79757250962393 4435.642669098753686 13999.48856400261138 
	12781.79757250963121 4435.642861186937807 13999.78075076316964 
	12781.79757250962939 4435.642893201699735 13999.92684417153214 
	12781.79757250962939 4435.642893201496918 13999.99989087562426 
	0 
	
	0 
	0 
	87 0 0.0005580357142857142547 0.002232142857142857019 0.004464285714285714038 0.008928571428571428076 0.01785714285714285615 0.02678571428571428423 0.0357142857142857123 0.05357142857142856845 0.07142857142857142461 0.08928571428571427382 0.1071428571428571369 0.125 0.1428571428571428492 0.1587301587301587213 0.1746031746031745935 0.1904761904761904656 0.2023809523809523836 0.2142857142857142738 0.238095238095238082 0.2619047619047618625 0.2857142857142856984 0.2976190476190476164 0.3095238095238095344 0.3214285714285713969 0.3333333333333333148 0.3392857142857143016 0.3452380952380952328 0.351190476190476164 0.3571428571428570953 0.3690476190476190133 0.3809523809523809312 0.3869047619047618625 0.3928571428571428492 0.4047619047619047672 0.4166666666666666297 0.4285714285714285476 0.4444444444444444198 0.4603174603174602919 0.476190476190476164 0.4841269841269840724 0.4920634920634920362 0.5 0.5079365079365079083 0.5158730158730158166 0.5218253968253967479 0.5228174603174602364 0.5233134920634919807 0.5235615079365079083 0.5238095238095237249 0.5476190476190475609 0.5714285714285713969 0.5952380952380951218 0.6071428571428569843 0.6130952380952379155 0.6190476190476189577 0.6349206349206348854 0.650793650793650702 0.6666666666666666297 0.6904761904761904656 0.7023809523809523281 0.7142857142857141906 0.7321428571428569843 0.749999999999999889 0.7678571428571427937 0.7857142857142855874 0.7976190476190474499 0.8095238095238094234 0.8333333333333332593 0.8571428571428570953 0.8616071428571427937 0.8660714285714286031 0.875 0.8928571428571427937 0.9107142857142856984 0.9285714285714286031 0.9464285714285713969 0.9642857142857143016 0.9821428571428572063 0.9866071428571429047 0.9910714285714286031 0.9977678571428572063 0.9988839285714286031 0.9994419642857143016 0.9997209821428572063 0.9998604910714286031 0.9999302455357143016 
	0 
	0 
	0 
	F 1 F 0 F 1 F 0 } I I I I #
tcoedge-coedge $-1 -1 $-1 $14 $14 $18 $19 reversed $9 $20 -6.283185307179586232 -0 #
tcoedge-coedge $-1 -1 $-1 $21 $22 $11 $16 reversed $12 $23 -6.283185307179586232 -0 #
tedge-edge $-1 -1 $-1 $24 0 $24 6.283185307179586232 $15 $25 forward @7 unknown 0.0007083295661355502783 #
pcurve $-1 -1 $-1 0 forward { exppc nurbs 2 periodic 5 
	0 2 1.570796326794896558 2 3.141592653589793116 2 4.712388980384689674 2 6.283185307179586232 2 
	0 500 1 
	-500 500 0.707106781186543798 
	-500 0 1 
	-500 -500 0.7071067811865463515 
	0 -500 1 
	500 -500 0.7071067811865463515 
	500 0 1 
	500 500 0.707106781186543798 
	0 500 1 
	0 
	plane 12781.79757191538738 3935.64279798977168 14000.00000000000182 1 -3.637978807091713027e-15 0 0 0 -1 forward_v I I I I 
	} 0 0 #
tcoedge-coedge $-1 -1 $-1 $22 $21 $14 $19 forward $12 $26 0 6.283185307179586232 #
tedge-edge $-1 -1 $-1 $27 0 $27 6.283185307179586232 $18 $28 forward @7 unknown 0.0007083295658717525057 #
pcurve $-1 -1 $-1 0 forward { exppc nurbs 2 periodic 5 
	-6.283185307179586232 2 -4.712388980384689674 2 -3.141592653589793116 2 -1.570796326794896558 2 0 2 
	0 500 1 
	500 500 0.707106781186543798 
	500 0 1 
	500 -500 0.7071067811865463515 
	0 -500 1 
	-500 -500 0.7071067811865463515 
	-500 0 1 
	-500 500 0.707106781186543798 
	0 500 1 
	0 
	plane 12531.79757191538738 3935.642797989772589 14000.00000000000182 -1 3.637978807091713027e-15 -0 0 0 -1 reverse_v I I I I 
	} 0 0 #
coedge $-1 -1 $-1 $18 $15 $22 $29 reversed $12 $30 #
coedge $-1 -1 $-1 $15 $18 $21 $29 forward $12 $31 #
pcurve $-1 -1 $-1 0 forward { exppc nubs 1 periodic 2 
	-6.283185307179586232 1 -0 1 
	1 1 
	0 1 
	2.726396620975368931e-13 
	spline forward { ref 0 } I I I I 
	} 0 0 #
tvertex-vertex $-1 -1 $-1 $16 $32 0.0001448231971002989784 #
ellipse-curve $-1 -1 $-1 12781.79757191538738 3935.64279798977168 14000.00000000000182 1 -3.637978807091713027e-15 0 1.818989403545856476e-12 500 0 1 I I #
pcurve $-1 -1 $-1 0 forward { exppc nubs 1 periodic 2 
	0 1 6.283185307179586232 1 
	0 0 
	1 0 
	4.4114023995510105e-13 
	spline forward { ref 0 } I I I I 
	} 0 0 #
tvertex-vertex $-1 -1 $-1 $19 $33 0.0001448231498956488504 #
ellipse-curve $-1 -1 $-1 12531.79757191538738 3935.642797989772589 14000.00000000000182 1 -3.637978807091713027e-15 0 1.818989403545856476e-12 500 0 1 I I #
edge $-1 -1 $-1 $27 0 $24 0.9999999976230392607 $22 $34 forward @7 tangent #
pcurve $-1 -1 $-1 -1 $34 0 0 #
pcurve $-1 -1 $-1 1 $34 1 0 #
point $-1 -1 $-1 12781.7975719153892 4435.64279798977168 14000.00000000000182 #
point $-1 -1 $-1 12531.7975719153892 4435.642797989772589 14000.00000000000182 #
intcurve-curve $-1 -1 $-1 forward { parcur full nubs 3 open 2 
	0 3 1 3 
	12531.7975724980115 4435.642893201497827 13999.99989087562426 
	12615.13090583134544 4435.642893201496918 13999.99989087562426 
	12698.46423917629545 4435.642893201496918 13999.99989087562426 
	12781.79757250962939 4435.642893201496918 13999.99989087562426 
	0 
	
	spline forward { ref 0 } I I I I 
	null_surface 
	nubs 1 open 2 
	0 1 1 1 
	0 0 
	0 1 
	
	nullbs 
	I I 
	0 
	0 
	0 
	surf1 } F 0 F 0.9999999976230392607 #
End-of-ACIS-data 