700 0 1 0           
4 LibG 20 ASM 224.0.1.65535 NT 24 Wed Jul 17 14:48:15 2019 
1000 9.999999999999999547e-07 1.000000000000000036e-10 
body $-1 -1 $-1 $1 $-1 $2 #
lump $-1 -1 $-1 $-1 $3 $0 #
transform $-1 -1 1 0 0 0 1 0 0 0 1 0 0 0 1 no_rotate no_reflect no_shear #
shell $-1 -1 $-1 $-1 $-1 $4 $-1 $1 #
face $-1 -1 $-1 $5 $6 $3 $-1 $7 forward single #
face $-1 -1 $-1 $8 $9 $3 $-1 $10 reversed single #
loop $-1 -1 $-1 $-1 $11 $4 #
plane-surface $-1 -1 $-1 12031.79757191538738 3935.642797989774408 14000.00000000000182 1 -3.637978807091713027e-15 0 0 0 -1 forward_v I I I I #
face $-1 -1 $-1 $-1 $12 $3 $-1 $13 forward single #
loop $-1 -1 $-1 $-1 $14 $5 #
plane-surface $-1 -1 $-1 11781.79757191538738 3935.642797989775318 14000.00000000000182 1 -3.637978807091713027e-15 0 0 0 -1 forward_v I I I I #
tcoedge-coedge $-1 -1 $-1 $11 $11 $15 $16 forward $6 $17 0 6.283185307179586232 #
loop $-1 -1 $-1 $-1 $18 $8 #
spline-surface $-1 -1 $-1 forward { exactsur full nubs 3 3 periodic open none none 86 2 
	0 3 0.001116071428571428509 1 0.002232142857142857019 1 0.004464285714285714038 1 0.008928571428571428076 1 
	0.01785714285714285615 1 0.0357142857142857123 1 0.05357142857142856845 1 0.07142857142857142461 1 0.08928571428571427382 1 
	0.1071428571428571369 1 0.1160714285714285754 1 0.125 1 0.1428571428571428492 1 0.1587301587301587213 1 
	0.1746031746031745935 1 0.1904761904761904656 1 0.2023809523809523836 1 0.2142857142857142738 1 0.238095238095238082 1 
	0.2619047619047618625 1 0.2738095238095237804 1 0.2857142857142856984 1 0.2916666666666666297 1 0.2976190476190476164 1 
	0.3095238095238095344 1 0.3214285714285713969 1 0.3333333333333333148 1 0.3452380952380952328 1 0.3571428571428570953 1 
	0.3630952380952380265 1 0.3690476190476190133 1 0.3809523809523809312 1 0.3928571428571428492 1 0.4047619047619047672 1 
	0.4166666666666666297 1 0.4285714285714285476 1 0.4444444444444444198 1 0.4603174603174602919 1 0.476190476190476164 1 
	0.4841269841269840724 1 0.4880952380952380265 1 0.4920634920634920362 1 0.5 1 0.5158730158730158166 1 
	0.5238095238095237249 1 0.5357142857142855874 1 0.5416666666666665186 1 0.5476190476190475609 1 0.5714285714285713969 1 
	0.5952380952380951218 1 0.6190476190476189577 1 0.6349206349206348854 1 0.650793650793650702 1 0.6666666666666666297 1 
	0.6785714285714286031 1 0.6904761904761904656 1 0.7023809523809523281 1 0.7142857142857141906 1 0.7321428571428569843 1 
	0.749999999999999889 1 0.7678571428571427937 1 0.7857142857142855874 1 0.7976190476190474499 1 0.8095238095238094234 1 
	0.8333333333333332593 1 0.8392857142857141906 1 0.8452380952380951218 1 0.8571428571428570953 1 0.875 1 
	0.8928571428571427937 1 0.9107142857142856984 1 0.9285714285714286031 1 0.9375 1 0.9464285714285713969 1 
	0.9642857142857143016 1 0.9732142857142858094 1 0.9821428571428572063 1 0.9910714285714286031 1 0.9955357142857143016 1 
	0.9977678571428572063 1 0.9988839285714286031 1 0.9994419642857143016 1 0.9997209821428572063 1 0.9998604910714286031 1 
	1 3 
	0 3 1 3 
	11781.79757208478622 4435.6429378301209 13999.99982485407963 
	11781.79757208478441 4435.642937818442988 14001.16857212261493 
	11781.79757208466071 4435.634742355183334 14003.50606676169627 
	11781.79757208453702 4435.585566196082254 14008.1808256690565 
	11781.79757208398769 4435.413471279422083 14016.36044881415364 
	11781.79757208192859 4434.725113873783812 14032.71002963423052 
	11781.79757207505099 4431.973859828944114 14065.33203808826875 
	11781.79757205300848 4424.130799931710499 14111.49398123409082 
	11781.79757203369445 4408.575811015602085 14165.48624379246758 
	11781.79757201456414 4387.073446788183901 14217.39732590963285 
	11781.79757199431333 4359.894268142415967 14266.57470140121404 
	11781.79757198971492 4332.798777167383378 14304.76206154296415 
	11781.7975719840706 4308.659380732205136 14333.34779685584908 
	11781.79757197869367 4282.9561440579173 14360.53602893720927 
	11781.79757197548133 4249.594229026811263 14390.34990039684635 
	11781.79757196195897 4207.36600916579664 14420.70968298832668 
	11781.79757196075661 4164.126575504813445 14445.67389081612419 
	11781.79757195800084 4122.408906233470589 14464.49775598336601 
	11781.79757195589809 4083.157771715949366 14478.2316253461704 
	11781.79757195299135 4034.957010402805281 14491.14840130937228 
	11781.79757195026468 3973.147651062852674 14500.46644781637769 
	11781.79757194416561 3910.639732290468601 14500.46484845042141 
	11781.79757194353624 3861.052168450620684 14494.87663359182261 
	11781.79757194115518 3830.407443931598664 14489.07870238769465 
	11781.7975719406586 3806.203091304295867 14483.07571645927783 
	11781.79757194009471 3782.240052925235432 14476.17221220320425 
	11781.79757193844125 3752.801824747088631 14465.87133207698025 
	11781.79757193703881 3718.498485436228748 14450.90492276154691 
	11781.79757193555997 3685.409502306911691 14433.41687438334702 
	11781.79757193423939 3653.719919226994534 14413.50499002382094 
	11781.7975719337137 3628.625779076171966 14394.98471231465919 
	11781.7975719332444 3609.422958979131181 14379.0744083653899 
	11781.7975719329952 3590.828339512802359 14362.4573708140324 
	11781.79757193211117 3568.774772559536814 14340.40385727030298 
	11781.79757193131627 3544.362213284817244 14312.03592946265235 
	11781.79757193077421 3522.137831183173148 14281.92297925501225 
	11781.79757193064688 3502.226020373263054 14250.23338373651859 
	11781.79757193002661 3482.794655010087808 14213.46793347724815 
	11781.79757192963916 3465.016804100195714 14171.29393221168903 
	11781.79757192940815 3450.300252336053745 14123.58344771575867 
	11781.79757192916986 3442.05600498197191 14082.80125623067943 
	11781.79757192913348 3438.438112820132574 14053.92917191007473 
	11781.79757192913166 3436.989235610849846 14037.36895827211265 
	11781.79757192914803 3435.953770377907858 14020.7777688729384 
	11781.79757192922261 3435.227945597425332 13991.68893286786079 
	11781.79757192940451 3436.887160175238023 13958.44461649405457 
	11781.79757192958823 3441.539360501642932 13921.32344172120247 
	11781.79757193004662 3446.564207778712898 13894.76466870986405 
	11781.79757193016485 3452.567343176583108 13870.56038304231697 
	11781.79757193052501 3462.921797074343431 13834.61554630528008 
	11781.79757193166188 3483.474638209784644 13782.24747538692645 
	11781.79757193349724 3520.979153405626221 13717.28708007836394 
	11781.79757193503974 3562.550873574544312 13665.15911957902608 
	11781.79757193795012 3604.251169222004137 13624.48770200210856 
	11781.79757193869227 3643.286624404914619 13593.35750281400942 
	11781.79757193959267 3681.732948993424998 13568.5264463195017 
	11781.79757194200647 3718.498574250706497 13549.09557802412746 
	11781.79757194300328 3752.801816235983551 13534.12898283681352 
	11781.79757194575723 3788.127716289102409 13521.76819115098806 
	11781.79757194849844 3830.303539450535027 13510.46667994679046 
	11781.79757195100319 3879.542871614540672 13502.10034263979469 
	11781.79757195457751 3935.642719862810736 13498.94999065455522 
	11781.79757195835373 3991.742506600245179 13502.10042262200295 
	11781.79757196254286 4040.981929657554701 13510.46666435014959 
	11781.79757196526953 4083.157617420673432 13521.76838991622935 
	11781.79757196637911 4130.259216747618666 13538.24873951500558 
	11781.79757197342042 4169.68179485895962 13557.23244787389922 
	11781.7975719755068 4201.720902407875656 13576.53903042168349 
	11781.79757197652361 4222.584514243656486 13590.19896097659512 
	11781.79757198073639 4252.697620622842805 13612.4231626171877 
	11781.79757198966581 4289.938962136544433 13645.70364020673696 
	11781.79757200014683 4327.379636855292119 13687.60012802162782 
	11781.79757201114808 4359.894268459504019 13733.42496349462272 
	11781.79757202278415 4382.543442969043099 13774.40614144962638 
	11781.79757202799192 4397.824823931900028 13808.55777356559338 
	11781.7975720300692 4411.16806643525706 13843.51221894143418 
	11781.79757205110764 4421.538282796011117 13879.5069210342499 
	11781.79757206313298 4428.836988587791893 13916.202787717315 
	11781.79757207130933 4432.759813708094953 13943.9881890975048 
	11781.79757208086448 4434.725159231224097 13967.28961511396665 
	11781.79757208366209 4435.413466063723718 13983.63920106367732 
	11781.7975720845061 4435.585567824833561 13991.81882390534884 
	11781.79757208471165 4435.628595269388825 13995.90923811018365 
	11781.79757208476258 4435.639352179662637 13997.95452072928128 
	11781.79757208478259 4435.642041420805072 13998.97717144280432 
	11781.79757208478622 4435.642809780752032 13999.56154462997256 
	11781.79757208478622 4435.642937831580639 13999.85373144551158 
	11781.79757208478622 4435.6429378301209 13999.99982485407963 
	11865.13090541812016 4435.64293783011999 13999.99982485407963 
	11865.13090541811835 4435.642937818442078 14001.16857212261493 
	11865.13090541799465 4435.634742355182425 14003.50606676169627 
	11865.13090541787096 4435.585566196081345 14008.1808256690565 
	11865.13090541732163 4435.413471279421174 14016.36044881415364 
	11865.13090541526253 4434.725113873782902 14032.71002963423052 
	11865.13090540838493 4431.973859828943205 14065.33203808826875 
	11865.13090538634242 4424.130799931709589 14111.49398123409082 
	11865.13090536702839 4408.575811015601175 14165.48624379246758 
	11865.13090534789808 4387.073446788182991 14217.39732590963285 
	11865.13090532764727 4359.894268142415058 14266.57470140121404 
	11865.13090532304886 4332.798777167382468 14304.76206154296415 
	11865.13090531740454 4308.659380732204227 14333.34779685584908 
	11865.13090531202761 4282.95614405791639 14360.53602893720927 
	11865.13090530881527 4249.594229026810353 14390.34990039684635 
	11865.13090529529291 4207.366009165795731 14420.70968298832668 
	11865.13090529409055 4164.126575504812536 14445.67389081612419 
	11865.13090529133478 4122.408906233469679 14464.49775598336601 
	11865.13090528923203 4083.157771715948911 14478.2316253461704 
	11865.13090528632529 4034.957010402804826 14491.14840130937228 
	11865.13090528359862 3973.147651062852219 14500.46644781637769 
	11865.13090527749955 3910.639732290468146 14500.46484845042141 
	11865.13090527687018 3861.052168450620229 14494.87663359182261 
	11865.13090527448912 3830.407443931598209 14489.07870238769465 
	11865.13090527399254 3806.203091304295413 14483.07571645927783 
	11865.13090527342865 3782.240052925234977 14476.17221220320425 
	11865.13090527177519 3752.801824747088176 14465.87133207698025 
	11865.13090527037275 3718.498485436228293 14450.90492276154691 
	11865.13090526889391 3685.409502306911236 14433.41687438334702 
	11865.13090526757333 3653.71991922699408 14413.50499002382094 
	11865.13090526704764 3628.625779076171511 14394.98471231465919 
	11865.13090526657834 3609.422958979130726 14379.0744083653899 
	11865.13090526632914 3590.828339512801904 14362.4573708140324 
	11865.13090526544511 3568.774772559536359 14340.40385727030298 
	11865.13090526465021 3544.362213284816789 14312.03592946265235 
	11865.13090526410815 3522.137831183172693 14281.92297925501225 
	11865.13090526398082 3502.2260203732626 14250.23338373651859 
	11865.13090526336055 3482.794655010087354 14213.46793347724815 
	11865.1309052629731 3465.016804100195259 14171.29393221168903 
	11865.13090526274209 3450.30025233605329 14123.58344771575867 
	11865.1309052625038 3442.056004981971455 14082.80125623067943 
	11865.13090526246742 3438.438112820132119 14053.92917191007473 
	11865.1309052624656 3436.989235610849391 14037.36895827211265 
	11865.13090526248197 3435.953770377907404 14020.7777688729384 
	11865.13090526255655 3435.227945597424878 13991.68893286786079 
	11865.13090526273845 3436.887160175237568 13958.44461649405457 
	11865.13090526292217 3441.539360501642477 13921.32344172120247 
	11865.13090526338055 3446.564207778712444 13894.76466870986405 
	11865.13090526349879 3452.567343176582654 13870.56038304231697 
	11865.13090526385895 3462.921797074342976 13834.61554630528008 
	11865.13090526499582 3483.474638209784189 13782.24747538692645 
	11865.13090526683118 3520.979153405625766 13717.28708007836394 
	11865.13090526837368 3562.550873574543857 13665.15911957902608 
	11865.13090527128406 3604.251169222003682 13624.48770200210856 
	11865.13090527202621 3643.286624404914164 13593.35750281400942 
	11865.13090527292661 3681.732948993424543 13568.5264463195017 
	11865.13090527534041 3718.498574250706042 13549.09557802412746 
	11865.13090527633722 3752.801816235983097 13534.12898283681352 
	11865.13090527909117 3788.127716289101954 13521.76819115098806 
	11865.13090528183238 3830.303539450534572 13510.46667994679046 
	11865.13090528433713 3879.542871614540218 13502.10034263979469 
	11865.13090528791145 3935.642719862810281 13498.94999065455522 
	11865.13090529168767 3991.742506600244724 13502.10042262200295 
	11865.1309052958768 4040.981929657554247 13510.46666435014959 
	11865.13090529860347 4083.157617420672977 13521.76838991622935 
	11865.13090529971305 4130.259216747617756 13538.24873951500558 
	11865.13090530675436 4169.68179485895871 13557.23244787389922 
	11865.13090530884074 4201.720902407874746 13576.53903042168349 
	11865.13090530985755 4222.584514243655576 13590.19896097659512 
	11865.13090531407033 4252.697620622841896 13612.4231626171877 
	11865.13090532299975 4289.938962136543523 13645.70364020673696 
	11865.13090533348077 4327.37963685529121 13687.60012802162782 
	11865.13090534448202 4359.89426845950311 13733.42496349462272 
	11865.13090535611809 4382.543442969042189 13774.40614144962638 
	11865.13090536132586 4397.824823931899118 13808.55777356559338 
	11865.13090536340314 4411.168066435256151 13843.51221894143418 
	11865.13090538444158 4421.538282796010208 13879.5069210342499 
	11865.13090539646691 4428.836988587790984 13916.202787717315 
	11865.13090540464327 4432.759813708094043 13943.9881890975048 
	11865.13090541419842 4434.725159231223188 13967.28961511396665 
	11865.13090541699603 4435.413466063722808 13983.63920106367732 
	11865.13090541784004 4435.585567824832651 13991.81882390534884 
	11865.13090541804559 4435.628595269387915 13995.90923811018365 
	11865.13090541809652 4435.639352179661728 13997.95452072928128 
	11865.13090541811653 4435.642041420804162 13998.97717144280432 
	11865.13090541812016 4435.642809780751122 13999.56154462997256 
	11865.13090541812016 4435.642937831579729 13999.85373144551158 
	11865.13090541812016 4435.64293783011999 13999.99982485407963 
	11948.46423875505025 4435.642937830119081 13999.99982485407963 
	11948.46423875505025 4435.64293781843935 14001.16857212261493 
	11948.46423875492292 4435.634742355181515 14003.50606676169627 
	11948.46423875479559 4435.585566196078616 14008.1808256690565 
	11948.46423875423898 4435.413471279419355 14016.36044881415364 
	11948.46423875213077 4434.725113873781993 14032.71002963423052 
	11948.46423874511129 4431.973859828942295 14065.33203808826875 
	11948.46423872259948 4424.13079993170868 14111.49398123409082 
	11948.46423870287617 4408.575811015599356 14165.48624379246758 
	11948.46423868334023 4387.073446788182082 14217.39732590963285 
	11948.46423866265832 4359.894268142414148 14266.57470140121404 
	11948.46423865796351 4332.798777167381559 14304.76206154296415 
	11948.46423865219731 4308.659380732203317 14333.34779685584908 
	11948.46423864670214 4282.9561440579173 14360.53602893720927 
	11948.46423864342432 4249.594229026809444 14390.34990039684635 
	11948.46423862961092 4207.36600916579664 14420.70968298832668 
	11948.46423862838492 4164.126575504812536 14445.67389081612419 
	11948.46423862557094 4122.408906233470589 14464.49775598336601 
	11948.46423862342635 4083.157771715949821 14478.2316253461704 
	11948.46423862045776 4034.957010402805736 14491.14840130937228 
	11948.46423861767107 3973.147651062853129 14500.46644781637769 
	11948.46423861144285 3910.639732290469055 14500.46484845042141 
	11948.46423861079893 3861.052168450621139 14494.87663359182261 
	11948.46423860836694 3830.407443931599119 14489.07870238769465 
	11948.46423860786126 3806.203091304296322 14483.07571645927783 
	11948.46423860728282 3782.240052925235887 14476.17221220320425 
	11948.4642386055948 3752.801824747089086 14465.87133207698025 
	11948.46423860416326 3718.498485436229203 14450.90492276154691 
	11948.4642386026535 3685.409502306912145 14433.41687438334702 
	11948.46423860130744 3653.719919226994989 14413.50499002382094 
	11948.46423860076902 3628.625779076172421 14394.98471231465919 
	11948.46423860029245 3609.422958979131636 14379.0744083653899 
	11948.46423860003779 3590.828339512802813 14362.4573708140324 
	11948.46423859913375 3568.774772559537269 14340.40385727030298 
	11948.46423859832248 3544.362213284817699 14312.03592946265235 
	11948.46423859776769 3522.137831183173603 14281.92297925501225 
	11948.46423859763854 3502.226020373263054 14250.23338373651859 
	11948.46423859700371 3482.794655010088263 14213.46793347724815 
	11948.46423859660899 3465.016804100195259 14171.29393221168903 
	11948.46423859637071 3450.30025233605329 14123.58344771575867 
	11948.46423859612878 3442.05600498197191 14082.80125623067943 
	11948.46423859609058 3438.438112820132574 14053.92917191007473 
	11948.46423859608876 3436.989235610849391 14037.36895827211265 
	11948.46423859610513 3435.953770377907858 14020.7777688729384 
	11948.46423859618153 3435.227945597425332 13991.68893286786079 
	11948.46423859636889 3436.887160175238023 13958.44461649405457 
	11948.46423859655624 3441.539360501642477 13921.32344172120247 
	11948.4642385970219 3446.564207778712898 13894.76466870986405 
	11948.46423859714196 3452.567343176583108 13870.56038304231697 
	11948.46423859751303 3462.921797074343431 13834.61554630528008 
	11948.46423859867537 3483.474638209784644 13782.24747538692645 
	11948.46423860054711 3520.979153405626676 13717.28708007836394 
	11948.46423860212417 3562.550873574544767 13665.15911957902608 
	11948.4642386050964 3604.251169222004592 13624.48770200210856 
	11948.46423860585492 3643.286624404915074 13593.35750281400942 
	11948.46423860677169 3681.732948993425452 13568.5264463195017 
	11948.46423860923824 3718.498574250706952 13549.09557802412746 
	11948.46423861025505 3752.801816235984006 13534.12898283681352 
	11948.46423861306539 3788.127716289102864 13521.76819115098806 
	11948.46423861586663 3830.303539450535482 13510.46667994679046 
	11948.46423861842231 3879.542871614541127 13502.10034263979469 
	11948.46423862207121 3935.642719862811191 13498.94999065455522 
	11948.46423862592746 3991.742506600245633 13502.10042262200295 
	11948.46423863020573 4040.981929657555156 13510.46666435014959 
	11948.46423863298878 4083.157617420673887 13521.76838991622935 
	11948.46423863412383 4130.259216747618666 13538.24873951500558 
	11948.4642386413143 4169.68179485895962 13557.23244787389922 
	11948.46423864344615 4201.720902407875656 13576.53903042168349 
	11948.46423864448479 4222.584514243656486 13590.19896097659512 
	11948.4642386487867 4252.697620622842805 13612.4231626171877 
	11948.46423865790712 4289.938962136544433 13645.70364020673696 
	11948.46423866861187 4327.379636855292119 13687.60012802162782 
	11948.46423867984595 4359.894268459504019 13733.42496349462272 
	11948.46423869172941 4382.543442969043099 13774.40614144962638 
	11948.46423869704631 4397.824823931900028 13808.55777356559338 
	11948.46423869916725 4411.168066435256151 13843.51221894143418 
	11948.46423872065316 4421.538282796010208 13879.5069210342499 
	11948.46423873293497 4428.836988587790074 13916.202787717315 
	11948.46423874128595 4432.759813708093134 13943.9881890975048 
	11948.46423875104301 4434.725159231222278 13967.28961511396665 
	11948.46423875390064 4435.413466063722808 13983.63920106367732 
	11948.46423875476285 4435.585567824831742 13991.81882390534884 
	11948.46423875497021 4435.628595269387006 13995.90923811018365 
	11948.46423875502478 4435.639352179660818 13997.95452072928128 
	11948.46423875504297 4435.642041420803253 13998.97717144280432 
	11948.46423875504843 4435.642809780750213 13999.56154462997256 
	11948.46423875505025 4435.642937831579729 13999.85373144551158 
	11948.46423875505025 4435.642937830119081 13999.99982485407963 
	12031.79757208838419 4435.642937830119081 13999.99982485407963 
	12031.79757208838419 4435.64293781843935 14001.16857212261493 
	12031.79757208825686 4435.634742355181515 14003.50606676169627 
	12031.79757208812953 4435.585566196078616 14008.1808256690565 
	12031.79757208757292 4435.413471279419355 14016.36044881415364 
	12031.79757208546471 4434.725113873781993 14032.71002963423052 
	12031.79757207844523 4431.973859828942295 14065.33203808826875 
	12031.79757205593341 4424.13079993170868 14111.49398123409082 
	12031.79757203621011 4408.575811015599356 14165.48624379246758 
	12031.79757201667417 4387.073446788182082 14217.39732590963285 
	12031.79757199599226 4359.894268142414148 14266.57470140121404 
	12031.79757199129745 4332.798777167381559 14304.76206154296415 
	12031.79757198553125 4308.659380732203317 14333.34779685584908 
	12031.79757198003608 4282.9561440579173 14360.53602893720927 
	12031.79757197675826 4249.594229026809444 14390.34990039684635 
	12031.79757196294486 4207.36600916579664 14420.70968298832668 
	12031.79757196171886 4164.126575504812536 14445.67389081612419 
	12031.79757195890488 4122.408906233470589 14464.49775598336601 
	12031.79757195676029 4083.157771715949366 14478.2316253461704 
	12031.7975719537917 4034.957010402805281 14491.14840130937228 
	12031.79757195100501 3973.147651062852674 14500.46644781637769 
	12031.79757194477679 3910.639732290468601 14500.46484845042141 
	12031.79757194413287 3861.052168450620684 14494.87663359182261 
	12031.79757194170088 3830.407443931598664 14489.07870238769465 
	12031.7975719411952 3806.203091304295867 14483.07571645927783 
	12031.79757194061676 3782.240052925235432 14476.17221220320425 
	12031.79757193892874 3752.801824747088631 14465.87133207698025 
	12031.7975719374972 3718.498485436228748 14450.90492276154691 
	12031.79757193598743 3685.409502306911691 14433.41687438334702 
	12031.79757193464138 3653.719919226994534 14413.50499002382094 
	12031.79757193410296 3628.625779076171966 14394.98471231465919 
	12031.79757193362639 3609.422958979131181 14379.0744083653899 
	12031.79757193337173 3590.828339512802359 14362.4573708140324 
	12031.79757193246769 3568.774772559536814 14340.40385727030298 
	12031.79757193165642 3544.362213284817244 14312.03592946265235 
	12031.79757193110163 3522.137831183173148 14281.92297925501225 
	12031.79757193097248 3502.2260203732626 14250.23338373651859 
	12031.79757193033765 3482.794655010087808 14213.46793347724815 
	12031.79757192994293 3465.016804100194804 14171.29393221168903 
	12031.79757192970465 3450.300252336052836 14123.58344771575867 
	12031.79757192946272 3442.056004981971455 14082.80125623067943 
	12031.79757192942452 3438.438112820132119 14053.92917191007473 
	12031.7975719294227 3436.989235610848937 14037.36895827211265 
	12031.79757192943907 3435.953770377907404 14020.7777688729384 
	12031.79757192951547 3435.227945597424878 13991.68893286786079 
	12031.79757192970283 3436.887160175237568 13958.44461649405457 
	12031.79757192989018 3441.539360501642022 13921.32344172120247 
	12031.79757193035584 3446.564207778712444 13894.76466870986405 
	12031.7975719304759 3452.567343176582654 13870.56038304231697 
	12031.79757193084697 3462.921797074342976 13834.61554630528008 
	12031.7975719320093 3483.474638209784189 13782.24747538692645 
	12031.79757193388104 3520.979153405626221 13717.28708007836394 
	12031.79757193545811 3562.550873574544312 13665.15911957902608 
	12031.79757193843034 3604.251169222004137 13624.48770200210856 
	12031.79757193918886 3643.286624404914619 13593.35750281400942 
	12031.79757194010563 3681.732948993424998 13568.5264463195017 
	12031.79757194257218 3718.498574250706497 13549.09557802412746 
	12031.79757194358899 3752.801816235983551 13534.12898283681352 
	12031.79757194639933 3788.127716289102409 13521.76819115098806 
	12031.79757194920057 3830.303539450535027 13510.46667994679046 
	12031.79757195175625 3879.542871614540672 13502.10034263979469 
	12031.79757195540515 3935.642719862810736 13498.94999065455522 
	12031.7975719592614 3991.742506600245179 13502.10042262200295 
	12031.79757196353967 4040.981929657554701 13510.46666435014959 
	12031.79757196632272 4083.157617420673432 13521.76838991622935 
	12031.79757196745777 4130.259216747618666 13538.24873951500558 
	12031.79757197464824 4169.68179485895962 13557.23244787389922 
	12031.79757197678009 4201.720902407875656 13576.53903042168349 
	12031.79757197781873 4222.584514243656486 13590.19896097659512 
	12031.79757198212064 4252.697620622842805 13612.4231626171877 
	12031.79757199124106 4289.938962136544433 13645.70364020673696 
	12031.79757200194581 4327.379636855292119 13687.60012802162782 
	12031.79757201317989 4359.894268459504019 13733.42496349462272 
	12031.79757202506335 4382.543442969043099 13774.40614144962638 
	12031.79757203038025 4397.824823931900028 13808.55777356559338 
	12031.79757203250119 4411.168066435256151 13843.51221894143418 
	12031.7975720539871 4421.538282796010208 13879.5069210342499 
	12031.79757206626891 4428.836988587790074 13916.202787717315 
	12031.79757207461989 4432.759813708093134 13943.9881890975048 
	12031.79757208437695 4434.725159231222278 13967.28961511396665 
	12031.79757208723458 4435.413466063722808 13983.63920106367732 
	12031.79757208809679 4435.585567824831742 13991.81882390534884 
	12031.79757208830415 4435.628595269387006 13995.90923811018365 
	12031.79757208835872 4435.639352179660818 13997.95452072928128 
	12031.79757208837691 4435.642041420803253 13998.97717144280432 
	12031.79757208838237 4435.642809780750213 13999.56154462997256 
	12031.79757208838419 4435.642937831579729 13999.85373144551158 
	12031.79757208838419 4435.642937830119081 13999.99982485407963 
	0 
	
	0 
	0 
	83 0 0.001116071428571428509 0.002232142857142857019 0.004464285714285714038 0.008928571428571428076 0.01785714285714285615 0.0357142857142857123 0.05357142857142856845 0.07142857142857142461 0.08928571428571427382 0.1071428571428571369 0.1160714285714285754 0.125 0.1428571428571428492 0.1587301587301587213 0.1746031746031745935 0.1904761904761904656 0.2023809523809523836 0.2142857142857142738 0.238095238095238082 0.2619047619047618625 0.2738095238095237804 0.2857142857142856984 0.2916666666666666297 0.2976190476190476164 0.3095238095238095344 0.3214285714285713969 0.3333333333333333148 0.3452380952380952328 0.3571428571428570953 0.3630952380952380265 0.3690476190476190133 0.3809523809523809312 0.3928571428571428492 0.4047619047619047672 0.4166666666666666297 0.4285714285714285476 0.4444444444444444198 0.4603174603174602919 0.476190476190476164 0.4880952380952380265 0.4920634920634920362 0.5 0.5158730158730158166 0.5238095238095237249 0.5357142857142855874 0.5416666666666665186 0.5476190476190475609 0.5714285714285713969 0.5952380952380951218 0.6190476190476189577 0.6349206349206348854 0.650793650793650702 0.6666666666666666297 0.6785714285714286031 0.6904761904761904656 0.7023809523809523281 0.7142857142857141906 0.7321428571428569843 0.749999999999999889 0.7678571428571427937 0.7857142857142855874 0.7976190476190474499 0.8095238095238094234 0.8333333333333332593 0.8392857142857141906 0.8452380952380951218 0.8571428571428570953 0.875 0.8928571428571427937 0.9107142857142856984 0.9285714285714286031 0.9375 0.9464285714285713969 0.9642857142857143016 0.9732142857142858094 0.9821428571428572063 0.9910714285714286031 0.9955357142857143016 0.9977678571428572063 0.9988839285714286031 0.9997209821428572063 0.9998604910714286031 
	0 
	0 
	0 
	F 1 F 0 F 1 F 0 } I I I I #
tcoedge-coedge $-1 -1 $-1 $14 $14 $18 $19 reversed $9 $20 -6.283185307179586232 -0 #
tcoedge-coedge $-1 -1 $-1 $21 $22 $11 $16 reversed $12 $23 -6.283185307179586232 -0 #
tedge-edge $-1 -1 $-1 $24 0 $24 6.283185307179586232 $15 $25 forward @7 unknown 0.0007534856371125168506 #
pcurve $-1 -1 $-1 0 forward { exppc nurbs 2 periodic 5 
	0 2 1.570796326794896558 2 3.141592653589793116 2 4.712388980384689674 2 6.283185307179586232 2 
	0 500 1 
	-500 500 0.707106781186543798 
	-500 0 1 
	-500 -500 0.7071067811865463515 
	0 -500 1 
	500 -500 0.7071067811865463515 
	500 0 1 
	500 500 0.707106781186543798 
	0 500 1 
	0 
	plane 12031.79757191538738 3935.642797989774408 14000.00000000000182 1 -3.637978807091713027e-15 0 0 0 -1 forward_v I I I I 
	} 0 0 #
tcoedge-coedge $-1 -1 $-1 $22 $21 $14 $19 forward $12 $26 0 6.283185307179586232 #
tedge-edge $-1 -1 $-1 $27 0 $27 6.283185307179586232 $18 $28 forward @7 unknown 0.0007534856366432337096 #
pcurve $-1 -1 $-1 0 forward { exppc nurbs 2 periodic 5 
	-6.283185307179586232 2 -4.712388980384689674 2 -3.141592653589793116 2 -1.570796326794896558 2 0 2 
	0 500 1 
	500 500 0.707106781186543798 
	500 0 1 
	500 -500 0.7071067811865463515 
	0 -500 1 
	-500 -500 0.7071067811865463515 
	-500 0 1 
	-500 500 0.707106781186543798 
	0 500 1 
	0 
	plane 11781.79757191538738 3935.642797989775318 14000.00000000000182 -1 3.637978807091713027e-15 -0 0 0 -1 reverse_v I I I I 
	} 0 0 #
coedge $-1 -1 $-1 $18 $15 $22 $29 reversed $12 $30 #
coedge $-1 -1 $-1 $15 $18 $21 $29 forward $12 $31 #
pcurve $-1 -1 $-1 0 forward { exppc nubs 1 periodic 2 
	-6.283185307179586232 1 -0 1 
	1 1 
	0 1 
	2.726396620975368931e-13 
	spline forward { ref 0 } I I I I 
	} 0 0 #
tvertex-vertex $-1 -1 $-1 $16 $32 0.0002241237391844261339 #
ellipse-curve $-1 -1 $-1 12031.79757191538738 3935.642797989774408 14000.00000000000182 1 -3.637978807091713027e-15 0 1.818989403545856476e-12 500 0 1 I I #
pcurve $-1 -1 $-1 0 forward { exppc nubs 1 periodic 2 
	0 1 6.283185307179586232 1 
	0 0 
	1 0 
	4.4114023995510105e-13 
	spline forward { ref 0 } I I I I 
	} 0 0 #
tvertex-vertex $-1 -1 $-1 $19 $33 0.0002241237370036106014 #
ellipse-curve $-1 -1 $-1 11781.79757191538738 3935.642797989775318 14000.00000000000182 1 -3.637978807091713027e-15 0 1.818989403545856476e-12 500 0 1 I I #
edge $-1 -1 $-1 $27 0 $24 0.9999999993080200822 $22 $34 forward @7 tangent #
pcurve $-1 -1 $-1 -1 $34 0 0 #
pcurve $-1 -1 $-1 1 $34 1 0 #
point $-1 -1 $-1 12031.7975719153892 4435.642797989774408 14000.00000000000182 #
point $-1 -1 $-1 11781.7975719153892 4435.642797989775318 14000.00000000000182 #
intcurve-curve $-1 -1 $-1 forward { parcur full nubs 3 open 2 
	0 3 1 3 
	11781.79757208478622 4435.6429378301209 13999.99982485407963 
	11865.13090541812016 4435.64293783011999 13999.99982485407963 
	11948.46423875505025 4435.642937830119081 13999.99982485407963 
	12031.79757208838419 4435.642937830119081 13999.99982485407963 
	0 
	
	spline forward { ref 0 } I I I I 
	null_surface 
	nubs 1 open 2 
	0 1 1 1 
	0 0 
	0 1 
	
	nullbs 
	I I 
	0 
	0 
	0 
	surf1 } F 0 F 0.9999999993080200822 #
End-of-ACIS-data 