700 0 1 0           
4 LibG 20 ASM 224.0.1.65535 NT 24 Wed Jul 17 14:48:14 2019 
1000 9.999999999999999547e-07 1.000000000000000036e-10 
body $-1 -1 $-1 $1 $-1 $2 #
lump $-1 -1 $-1 $-1 $3 $0 #
transform $-1 -1 1 0 0 0 1 0 0 0 1 0 0 0 1 no_rotate no_reflect no_shear #
shell $-1 -1 $-1 $-1 $-1 $4 $-1 $1 #
face $-1 -1 $-1 $5 $6 $3 $-1 $7 forward single #
face $-1 -1 $-1 $8 $9 $3 $-1 $10 reversed single #
loop $-1 -1 $-1 $-1 $11 $4 #
plane-surface $-1 -1 $-1 10031.79757191538738 3935.642797989781684 14000.00000000000182 1 -3.637978807091713027e-15 0 0 0 -1 forward_v I I I I #
face $-1 -1 $-1 $-1 $12 $3 $-1 $13 forward single #
loop $-1 -1 $-1 $-1 $14 $5 #
plane-surface $-1 -1 $-1 9781.79757191538738 3935.642797989782594 14000.00000000000182 1 -3.637978807091713027e-15 0 0 0 -1 forward_v I I I I #
tcoedge-coedge $-1 -1 $-1 $11 $11 $15 $16 forward $6 $17 0 6.283185307179586232 #
loop $-1 -1 $-1 $-1 $18 $8 #
spline-surface $-1 -1 $-1 forward { exactsur full nubs 3 3 periodic open none none 91 2 
	0 3 0.0005580357142857142547 1 0.001116071428571428509 1 0.002232142857142857019 1 0.004464285714285714038 1 
	0.008928571428571428076 1 0.01785714285714285615 1 0.0357142857142857123 1 0.05357142857142856845 1 0.07142857142857142461 1 
	0.08928571428571427382 1 0.1071428571428571369 1 0.1160714285714285754 1 0.125 1 0.1428571428571428492 1 
	0.1587301587301587213 1 0.1746031746031745935 1 0.1904761904761904656 1 0.2023809523809523836 1 0.2142857142857142738 1 
	0.226190476190476164 1 0.238095238095238082 1 0.2499999999999999722 1 0.2619047619047618625 1 0.2738095238095237804 1 
	0.2857142857142856984 1 0.2916666666666666297 1 0.2976190476190476164 1 0.3095238095238095344 1 0.3214285714285713969 1 
	0.3273809523809523281 1 0.3333333333333333148 1 0.3452380952380952328 1 0.351190476190476164 1 0.3571428571428570953 1 
	0.3690476190476190133 1 0.3809523809523809312 1 0.3928571428571428492 1 0.4047619047619047672 1 0.4285714285714285476 1 
	0.4305555555555555802 1 0.4325396825396825573 1 0.4365079365079365115 1 0.4444444444444444198 1 0.4603174603174602919 1 
	0.476190476190476164 1 0.4841269841269840724 1 0.4880952380952380265 1 0.4920634920634920362 1 0.5079365079365079083 1 
	0.5238095238095237249 1 0.5476190476190475609 1 0.5535714285714286031 1 0.5595238095238095344 1 0.5714285714285713969 1 
	0.5952380952380951218 1 0.6190476190476189577 1 0.6349206349206348854 1 0.650793650793650702 1 0.6666666666666666297 1 
	0.6904761904761904656 1 0.7023809523809523281 1 0.7142857142857141906 1 0.7321428571428569843 1 0.7410714285714283811 1 
	0.749999999999999889 1 0.7678571428571427937 1 0.7857142857142855874 1 0.7976190476190474499 1 0.8095238095238094234 1 
	0.8333333333333332593 1 0.8452380952380951218 1 0.851190476190476053 1 0.8571428571428570953 1 0.875 1 
	0.8928571428571427937 1 0.9107142857142856984 1 0.9285714285714286031 1 0.9464285714285713969 1 0.9642857142857143016 1 
	0.9821428571428572063 1 0.9866071428571429047 1 0.9910714285714286031 1 0.9955357142857143016 1 0.9977678571428572063 1 
	0.9988839285714286031 1 0.9994419642857143016 1 0.9997209821428572063 1 0.9998604910714286031 1 0.9999302455357143016 1 
	1 3 
	0 3 1 3 
	9781.797572207175108 4435.642892185623168 13999.9999645768512 
	9781.797572207178746 4435.642892185842356 14000.58433821031213 
	9781.797572207124176 4435.640843130523535 14001.75308546197084 
	9781.797572207067788 4435.628549755927452 14004.09055130804154 
	9781.797572206807672 4435.585520607706712 14008.18096532234995 
	9781.797572205950928 4435.413426290578172 14016.36058834854339 
	9781.797572202476658 4434.725071738838778 14032.71016938331741 
	9781.797572191504514 4431.973823383168565 14065.33217576069728 
	9781.797572155976013 4424.130804032552987 14111.49412786167341 
	9781.797572127317835 4408.575817951052159 14165.48637588745805 
	9781.797572095922078 4387.073537119498724 14217.39749925091382 
	9781.797572071945979 4359.894286320608444 14266.57480824361846 
	9781.797572047058566 4332.798732251068941 14304.76211718584818 
	9781.797572040421073 4308.659499047977079 14333.3479825370614 
	9781.797572033930919 4282.956127314909281 14360.53606541244699 
	9781.797572015639162 4249.594283611451829 14390.35002136403091 
	9781.797572000125001 4207.366131032129488 14420.70981091199974 
	9781.79757199193773 4164.126661968470216 14445.6739994450636 
	9781.797571985749528 4122.409019659727164 14464.49780638070297 
	9781.79757197795152 4083.157974691969684 14478.23203703245053 
	9781.797571971574143 4047.007212296697162 14487.9187343314461 
	9781.797571968694683 4010.233581038041848 14494.87657827847761 
	9781.797571963681548 3973.042848841663272 14499.06698385588788 
	9781.797571959061315 3935.642947103280221 14500.4663756636146 
	9781.797571954530213 3898.243056122220423 14499.06695610526913 
	9781.797571950706697 3861.052309694930045 14494.87657364035476 
	9781.797571946743119 3830.40765865925141 14489.07823970475874 
	9781.797571945648087 3806.203300972949819 14483.07535962373186 
	9781.797571944516676 3782.240277182552745 14476.17181603942663 
	9781.797571941351634 3752.802064950938075 14465.87098202377638 
	9781.79757193837213 3724.215992004941654 14453.39892880849948 
	9781.797571937402608 3701.954262453608862 14442.1605672605765 
	9781.797571936471286 3680.12820471873556 14430.09786484076903 
	9781.797571935363521 3659.001838057238729 14416.82327711483231 
	9781.797571934854204 3638.66375999023785 14402.3924773419767 
	9781.797571934068401 3618.879311722094826 14387.21151620640558 
	9781.79757193313344 3595.239454164452127 14366.86768589217354 
	9781.797571932114806 3568.775083702622396 14340.40352241448454 
	9781.797571931254424 3544.362896856463067 14312.03539452727091 
	9781.797571930010236 3514.729365109516039 14271.8854143962817 
	9781.797571928787875 3494.93427493305262 14237.60174787942015 
	9781.797571928524121 3482.476856102392958 14211.3147368050486 
	9781.797571928520483 3479.011346217050686 14203.76045850031915 
	9781.797571928458638 3473.19475589096055 14190.42853988579191 
	9781.797571928285834 3462.563883029687986 14163.34218682700703 
	9781.797571927987519 3450.299908352551938 14123.58351781129022 
	9781.797571927727404 3442.055863196818791 14082.80126547462714 
	9781.79757192766192 3438.437912717846302 14053.92918452741651 
	9781.797571927654644 3436.989110613554658 14037.36897183585279 
	9781.79757192766192 3435.435627192148331 14012.48216901041087 
	9781.797571927789249 3435.436048039162415 13975.03584288706588 
	9781.797571928209436 3441.234512858306516 13917.07489689079921 
	9781.797571929060723 3451.897863647471695 13870.35387263501616 
	9781.79757192920988 3463.590839222503291 13834.82187543251894 
	9781.797571929339028 3472.265820725571302 13811.44177832595597 
	9781.797571929895639 3489.725781598643607 13771.42081228911957 
	9781.797571932003848 3520.978513288398517 13717.28667197686627 
	9781.797571934361258 3562.550907963536247 13665.15903792622339 
	9781.797571936160239 3604.250691691144311 13624.48704986079792 
	9781.797571937264365 3643.286536658456953 13593.35747257035837 
	9781.797571938825058 3692.217539096549444 13561.75293510689335 
	9781.797571942062859 3741.026089814496117 13538.24846495061138 
	9781.797571943679941 3788.12790097452762 13521.76857428985204 
	9781.797571945462551 3830.303546721424937 13510.46667329899901 
	9781.797571949377016 3870.310618667981089 13503.66936178085234 
	9781.797571950735801 3907.592880444544335 13500.52509673148234 
	9781.797571952381986 3944.992786690676894 13499.47529483360631 
	9781.79757195768434 3991.742605984140027 13502.10045179664485 
	9781.797571963341397 4040.982048458363806 13510.46672882896382 
	9781.797571967126714 4083.157722776057653 13521.76845127490924 
	9781.797571968832926 4130.259363796129037 13538.24871780109061 
	9781.797571978871929 4175.313635511864959 13559.9446112980786 
	9781.79757198401785 4212.284054022625241 13583.17665187804414 
	9781.797571987552146 4232.622283427398543 13597.60712677183619 
	9781.797571988237905 4257.35282739847662 13616.58338906874815 
	9781.797572014336765 4289.938986672993451 13645.70377411053414 
	9781.797572035895428 4327.379719035044218 13687.60024437366337 
	9781.7975720653194 4359.894247629609708 13733.42510570313971 
	9781.7975720927152 4387.073534510750505 13782.60239648844617 
	9781.797572127294188 4408.575798419214152 13834.51354207125587 
	9781.797572156012393 4424.130745160183324 13888.50579919666416 
	9781.79757219482417 4431.189516211547925 13930.05155515292427 
	9781.797572200192008 4433.93894825807638 13957.96919426005479 
	9781.797572202727679 4434.921786254667495 13971.96106187071564 
	9781.797572205850884 4435.413415130831709 13983.63934242926916 
	9781.797572206785844 4435.585522813296848 13991.81896347800466 
	9781.797572207076882 4435.62854941578189 13995.90937789486634 
	9781.797572207146004 4435.639306543283055 13997.95466044737623 
	9781.797572207166013 4435.641995762784973 13998.97731116761679 
	9781.797572207173289 4435.642668081603006 13999.48863770347816 
	9781.797572207173289 4435.64286016904498 13999.78082446406552 
	9781.797572207173289 4435.642892185595883 13999.92691787266813 
	9781.797572207175108 4435.642892185623168 13999.9999645768512 
	9865.130905540509048 4435.642892185622259 13999.9999645768512 
	9865.130905540512686 4435.642892185841447 14000.58433821031213 
	9865.130905540458116 4435.640843130522626 14001.75308546197084 
	9865.130905540401727 4435.628549755926542 14004.09055130804154 
	9865.130905540141612 4435.585520607705803 14008.18096532234995 
	9865.130905539284868 4435.413426290577263 14016.36058834854339 
	9865.130905535810598 4434.725071738837869 14032.71016938331741 
	9865.130905524838454 4431.973823383167655 14065.33217576069728 
	9865.130905489309953 4424.130804032552078 14111.49412786167341 
	9865.130905460651775 4408.575817951051249 14165.48637588745805 
	9865.130905429256018 4387.073537119497814 14217.39749925091382 
	9865.130905405279918 4359.894286320607534 14266.57480824361846 
	9865.130905380392505 4332.798732251068031 14304.76211718584818 
	9865.130905373755013 4308.659499047976169 14333.3479825370614 
	9865.130905367264859 4282.956127314908372 14360.53606541244699 
	9865.130905348973101 4249.594283611450919 14390.35002136403091 
	9865.130905333458941 4207.366131032128578 14420.70981091199974 
	9865.130905325271669 4164.126661968469307 14445.6739994450636 
	9865.130905319083467 4122.409019659726255 14464.49780638070297 
	9865.13090531128546 4083.15797469196923 14478.23203703245053 
	9865.130905304908083 4047.007212296696707 14487.9187343314461 
	9865.130905302028623 4010.233581038041393 14494.87657827847761 
	9865.130905297015488 3973.042848841662817 14499.06698385588788 
	9865.130905292395255 3935.642947103279766 14500.4663756636146 
	9865.130905287864152 3898.243056122219969 14499.06695610526913 
	9865.130905284040637 3861.05230969492959 14494.87657364035476 
	9865.130905280077059 3830.407658659250956 14489.07823970475874 
	9865.130905278982027 3806.203300972949364 14483.07535962373186 
	9865.130905277850616 3782.24027718255229 14476.17181603942663 
	9865.130905274685574 3752.80206495093762 14465.87098202377638 
	9865.130905271706069 3724.215992004941199 14453.39892880849948 
	9865.130905270736548 3701.954262453608408 14442.1605672605765 
	9865.130905269805226 3680.128204718735105 14430.09786484076903 
	9865.130905268697461 3659.001838057238274 14416.82327711483231 
	9865.130905268188144 3638.663759990237395 14402.3924773419767 
	9865.130905267402341 3618.879311722094371 14387.21151620640558 
	9865.13090526646738 3595.239454164451672 14366.86768589217354 
	9865.130905265448746 3568.775083702621941 14340.40352241448454 
	9865.130905264588364 3544.362896856462612 14312.03539452727091 
	9865.130905263344175 3514.729365109515584 14271.8854143962817 
	9865.130905262121814 3494.934274933052166 14237.60174787942015 
	9865.130905261858061 3482.476856102392503 14211.3147368050486 
	9865.130905261854423 3479.011346217050232 14203.76045850031915 
	9865.130905261792577 3473.194755890960096 14190.42853988579191 
	9865.130905261619773 3462.563883029687531 14163.34218682700703 
	9865.130905261321459 3450.299908352551483 14123.58351781129022 
	9865.130905261061343 3442.055863196818336 14082.80126547462714 
	9865.13090526099586 3438.437912717845848 14053.92918452741651 
	9865.130905260988584 3436.989110613554203 14037.36897183585279 
	9865.13090526099586 3435.435627192147876 14012.48216901041087 
	9865.130905261123189 3435.43604803916196 13975.03584288706588 
	9865.130905261543376 3441.234512858306061 13917.07489689079921 
	9865.130905262394663 3451.89786364747124 13870.35387263501616 
	9865.13090526254382 3463.590839222502836 13834.82187543251894 
	9865.130905262672968 3472.265820725570848 13811.44177832595597 
	9865.130905263229579 3489.725781598643152 13771.42081228911957 
	9865.130905265337788 3520.978513288398062 13717.28667197686627 
	9865.130905267695198 3562.550907963535792 13665.15903792622339 
	9865.130905269494178 3604.250691691143857 13624.48704986079792 
	9865.130905270598305 3643.286536658456498 13593.35747257035837 
	9865.130905272158998 3692.21753909654899 13561.75293510689335 
	9865.130905275396799 3741.026089814495663 13538.24846495061138 
	9865.130905277013881 3788.127900974527165 13521.76857428985204 
	9865.13090527879649 3830.303546721424482 13510.46667329899901 
	9865.130905282710955 3870.310618667980634 13503.66936178085234 
	9865.13090528406974 3907.59288044454388 13500.52509673148234 
	9865.130905285715926 3944.992786690676439 13499.47529483360631 
	9865.13090529101828 3991.742605984139573 13502.10045179664485 
	9865.130905296675337 4040.982048458363352 13510.46672882896382 
	9865.130905300460654 4083.157722776057199 13521.76845127490924 
	9865.130905302166866 4130.259363796128127 13538.24871780109061 
	9865.130905312205869 4175.313635511864049 13559.9446112980786 
	9865.13090531735179 4212.284054022624332 13583.17665187804414 
	9865.130905320886086 4232.622283427397633 13597.60712677183619 
	9865.130905321571845 4257.352827398475711 13616.58338906874815 
	9865.130905347670705 4289.938986672992542 13645.70377411053414 
	9865.130905369229367 4327.379719035043308 13687.60024437366337 
	9865.13090539865334 4359.894247629608799 13733.42510570313971 
	9865.130905426049139 4387.073534510749596 13782.60239648844617 
	9865.130905460628128 4408.575798419213243 13834.51354207125587 
	9865.130905489346333 4424.130745160182414 13888.50579919666416 
	9865.13090552815811 4431.189516211547016 13930.05155515292427 
	9865.130905533525947 4433.93894825807547 13957.96919426005479 
	9865.130905536061618 4434.921786254666586 13971.96106187071564 
	9865.130905539184823 4435.413415130830799 13983.63934242926916 
	9865.130905540119784 4435.585522813295938 13991.81896347800466 
	9865.130905540410822 4435.628549415780981 13995.90937789486634 
	9865.130905540479944 4435.639306543282146 13997.95466044737623 
	9865.130905540499953 4435.641995762784063 13998.97731116761679 
	9865.130905540507229 4435.642668081602096 13999.48863770347816 
	9865.130905540507229 4435.64286016904407 13999.78082446406552 
	9865.130905540507229 4435.642892185594974 13999.92691787266813 
	9865.130905540509048 4435.642892185622259 13999.9999645768512 
	9948.464238881299025 4435.642892185622259 13999.9999645768512 
	9948.464238881300844 4435.642892185842356 14000.58433821031213 
	9948.464238881238998 4435.640843130523535 14001.75308546197084 
	9948.464238881184428 4435.628549755927452 14004.09055130804154 
	9948.464238880915218 4435.585520607706712 14008.18096532234995 
	9948.464238880042103 4435.413426290578172 14016.36058834854339 
	9948.464238876478703 4434.725071738838778 14032.71016938331741 
	9948.464238865222796 4431.973823383168565 14065.33217576069728 
	9948.464238828784801 4424.130804032552987 14111.49412786167341 
	9948.464238799399027 4408.575817951052159 14165.48637588745805 
	9948.464238767199276 4387.073537119498724 14217.39749925091382 
	9948.464238742610178 4359.894286320608444 14266.57480824361846 
	9948.464238717086118 4332.798732251068941 14304.76211718584818 
	9948.46423871027946 4308.659499047977079 14333.3479825370614 
	9948.464238703621959 4282.956127314909281 14360.53606541244699 
	9948.464238684862721 4249.594283611451829 14390.35002136403091 
	9948.464238668952021 4207.366131032129488 14420.70981091199974 
	9948.464238660555566 4164.126661968470216 14445.6739994450636 
	9948.464238654209112 4122.409019659727164 14464.49780638070297 
	9948.464238646211015 4083.157974691970139 14478.23203703245053 
	9948.464238639673567 4047.007212296697617 14487.9187343314461 
	9948.464238636719529 4010.233581038042303 14494.87657827847761 
	9948.464238631579065 3973.042848841663726 14499.06698385588788 
	9948.464238626838778 3935.642947103280676 14500.4663756636146 
	9948.464238622193079 3898.243056122220878 14499.06695610526913 
	9948.464238618273157 3861.0523096949305 14494.87657364035476 
	9948.464238614205897 3830.407658659251865 14489.07823970475874 
	9948.46423861308358 3806.203300972950274 14483.07535962373186 
	9948.464238611923065 3782.2402771825532 14476.17181603942663 
	9948.46423860867435 3752.802064950938529 14465.87098202377638 
	9948.464238605622086 3724.215992004942109 14453.39892880849948 
	9948.464238604627099 3701.954262453609317 14442.1605672605765 
	9948.464238603672129 3680.128204718736015 14430.09786484076903 
	9948.464238602535261 3659.001838057239183 14416.82327711483231 
	9948.464238602013211 3638.663759990238304 14402.3924773419767 
	9948.464238601205579 3618.879311722095281 14387.21151620640558 
	9948.464238600246972 3595.239454164452582 14366.86768589217354 
	9948.464238599202872 3568.775083702622851 14340.40352241448454 
	9948.464238598322481 3544.362896856463522 14312.03539452727091 
	9948.46423859704737 3514.729365109516493 14271.8854143962817 
	9948.464238595790448 3494.934274933053075 14237.60174787942015 
	9948.464238595523057 3482.476856102393413 14211.3147368050486 
	9948.464238595519419 3479.011346217051141 14203.76045850031915 
	9948.464238595455754 3473.194755890961005 14190.42853988579191 
	9948.464238595277493 3462.563883029687986 14163.34218682700703 
	9948.464238594971903 3450.299908352551029 14123.58351781129022 
	9948.464238594704511 3442.055863196819246 14082.80126547462714 
	9948.464238594639028 3438.437912717846302 14053.92918452741651 
	9948.464238594629933 3436.989110613554658 14037.36897183585279 
	9948.464238594640847 3435.435627192147876 14012.48216901041087 
	9948.464238594771814 3435.436048039161506 13975.03584288706588 
	9948.464238595201095 3441.234512858306061 13917.07489689079921 
	9948.464238596072391 3451.89786364747124 13870.35387263501616 
	9948.464238596227005 3463.590839222502836 13834.82187543251894 
	9948.464238596359792 3472.265820725570393 13811.44177832595597 
	9948.464238596929135 3489.725781598642698 13771.42081228911957 
	9948.464238599091914 3520.978513288397608 13717.28667197686627 
	9948.46423860151117 3562.550907963534428 13665.15903792622339 
	9948.464238603353806 3604.250691691142492 13624.48704986079792 
	9948.464238604487036 3643.286536658455134 13593.35747257035837 
	9948.464238606085928 3692.217539096547625 13561.75293510689335 
	9948.464238609409222 3741.026089814494753 13538.24846495061138 
	9948.464238611066321 3788.127900974525801 13521.76857428985204 
	9948.464238612894405 3830.303546721424027 13510.46667329899901 
	9948.464238616910734 3870.31061866797836 13503.66936178085234 
	9948.46423861830408 3907.592880444542516 13500.52509673148234 
	9948.464238619992102 3944.99278669067553 13499.47529483360631 
	9948.464238625429061 3991.742605984138663 13502.10045179664485 
	9948.464238631233457 4040.982048458362442 13510.46672882896382 
	9948.464238635113361 4083.157722776055834 13521.76845127490924 
	9948.464238636865048 4130.259363796126308 13538.24871780109061 
	9948.464238647160528 4175.31363551186223 13559.9446112980786 
	9948.464238652439235 4212.284054022622513 13583.17665187804414 
	9948.464238656062662 4232.622283427395814 13597.60712677183619 
	9948.464238656764792 4257.352827398473892 13616.58338906874815 
	9948.464238683531221 4289.938986672990723 13645.70377411053414 
	9948.464238705639218 4327.379719035042399 13687.60024437366337 
	9948.464238735816252 4359.894247629607889 13733.42510570313971 
	9948.464238763912363 4387.073534510747777 13782.60239648844617 
	9948.46423879937538 4408.575798419212333 13834.51354207125587 
	9948.464238828826637 4424.130745160181505 13888.50579919666416 
	9948.464238868631583 4431.189516211546106 13930.05155515292427 
	9948.464238874135845 4433.938948258074561 13957.96919426005479 
	9948.464238876738818 4434.921786254665676 13971.96106187071564 
	9948.46423887994024 4435.413415130830799 13983.63934242926916 
	9948.464238880900666 4435.585522813295029 13991.81896347800466 
	9948.46423888119898 4435.628549415780981 13995.90937789486634 
	9948.464238881268102 4435.639306543282146 13997.95466044737623 
	9948.46423888128993 4435.641995762784063 13998.97731116761679 
	9948.464238881295387 4435.642668081602096 13999.48863770347816 
	9948.464238881297206 4435.642860169043161 13999.78082446406552 
	9948.464238881299025 4435.642892185594974 13999.92691787266813 
	9948.464238881299025 4435.642892185622259 13999.9999645768512 
	10031.79757221463296 4435.642892185622259 13999.9999645768512 
	10031.79757221463478 4435.642892185842356 14000.58433821031213 
	10031.79757221457294 4435.640843130523535 14001.75308546197084 
	10031.79757221451837 4435.628549755927452 14004.09055130804154 
	10031.79757221424916 4435.585520607706712 14008.18096532234995 
	10031.79757221337604 4435.413426290578172 14016.36058834854339 
	10031.79757220981264 4434.725071738838778 14032.71016938331741 
	10031.79757219855674 4431.973823383168565 14065.33217576069728 
	10031.79757216211874 4424.130804032552987 14111.49412786167341 
	10031.79757213273297 4408.575817951052159 14165.48637588745805 
	10031.79757210053322 4387.073537119498724 14217.39749925091382 
	10031.79757207594412 4359.894286320608444 14266.57480824361846 
	10031.79757205042006 4332.798732251068941 14304.76211718584818 
	10031.7975720436134 4308.659499047977079 14333.3479825370614 
	10031.7975720369559 4282.956127314909281 14360.53606541244699 
	10031.79757201819666 4249.594283611451829 14390.35002136403091 
	10031.79757200228596 4207.366131032129488 14420.70981091199974 
	10031.79757199388951 4164.126661968470216 14445.6739994450636 
	10031.79757198754305 4122.409019659727164 14464.49780638070297 
	10031.79757197954495 4083.157974691969684 14478.23203703245053 
	10031.79757197300751 4047.007212296697162 14487.9187343314461 
	10031.79757197005347 4010.233581038041848 14494.87657827847761 
	10031.797571964913 3973.042848841663272 14499.06698385588788 
	10031.79757196017272 3935.642947103280221 14500.4663756636146 
	10031.79757195552702 3898.243056122220423 14499.06695610526913 
	10031.7975719516071 3861.052309694930045 14494.87657364035476 
	10031.79757194753984 3830.40765865925141 14489.07823970475874 
	10031.79757194641752 3806.203300972949819 14483.07535962373186 
	10031.797571945257 3782.240277182552745 14476.17181603942663 
	10031.79757194200829 3752.802064950938075 14465.87098202377638 
	10031.79757193895603 3724.215992004941654 14453.39892880849948 
	10031.79757193796104 3701.954262453608862 14442.1605672605765 
	10031.79757193700607 3680.12820471873556 14430.09786484076903 
	10031.7975719358692 3659.001838057238729 14416.82327711483231 
	10031.79757193534715 3638.66375999023785 14402.3924773419767 
	10031.79757193453952 3618.879311722094826 14387.21151620640558 
	10031.79757193358091 3595.239454164452127 14366.86768589217354 
	10031.79757193253681 3568.775083702622396 14340.40352241448454 
	10031.79757193165642 3544.362896856463067 14312.03539452727091 
	10031.79757193038131 3514.729365109516039 14271.8854143962817 
	10031.79757192912439 3494.93427493305262 14237.60174787942015 
	10031.797571928857 3482.476856102392958 14211.3147368050486 
	10031.79757192885336 3479.011346217050686 14203.76045850031915 
	10031.79757192878969 3473.19475589096055 14190.42853988579191 
	10031.79757192861143 3462.563883029687531 14163.34218682700703 
	10031.79757192830584 3450.299908352550574 14123.58351781129022 
	10031.79757192803845 3442.055863196818791 14082.80126547462714 
	10031.79757192797297 3438.437912717845848 14053.92918452741651 
	10031.79757192796387 3436.989110613554203 14037.36897183585279 
	10031.79757192797479 3435.435627192147422 14012.48216901041087 
	10031.79757192810575 3435.436048039161051 13975.03584288706588 
	10031.79757192853504 3441.234512858305607 13917.07489689079921 
	10031.79757192940633 3451.897863647470786 13870.35387263501616 
	10031.79757192956095 3463.590839222502382 13834.82187543251894 
	10031.79757192969373 3472.265820725569938 13811.44177832595597 
	10031.79757193026308 3489.725781598642243 13771.42081228911957 
	10031.79757193242585 3520.978513288397153 13717.28667197686627 
	10031.79757193484511 3562.550907963533973 13665.15903792622339 
	10031.79757193668775 3604.250691691142038 13624.48704986079792 
	10031.79757193782098 3643.286536658454679 13593.35747257035837 
	10031.79757193941987 3692.217539096547171 13561.75293510689335 
	10031.79757194274316 3741.026089814494298 13538.24846495061138 
	10031.79757194440026 3788.127900974525346 13521.76857428985204 
	10031.79757194622835 3830.303546721423572 13510.46667329899901 
	10031.79757195024467 3870.310618667977906 13503.66936178085234 
	10031.79757195163802 3907.592880444542061 13500.52509673148234 
	10031.79757195332604 3944.992786690675075 13499.47529483360631 
	10031.797571958763 3991.742605984138208 13502.10045179664485 
	10031.7975719645674 4040.982048458361987 13510.46672882896382 
	10031.7975719684473 4083.15772277605538 13521.76845127490924 
	10031.79757197019899 4130.259363796126308 13538.24871780109061 
	10031.79757198049447 4175.31363551186223 13559.9446112980786 
	10031.79757198577317 4212.284054022622513 13583.17665187804414 
	10031.7975719893966 4232.622283427395814 13597.60712677183619 
	10031.79757199009873 4257.352827398473892 13616.58338906874815 
	10031.79757201686516 4289.938986672990723 13645.70377411053414 
	10031.79757203897316 4327.379719035042399 13687.60024437366337 
	10031.79757206915019 4359.894247629607889 13733.42510570313971 
	10031.7975720972463 4387.073534510747777 13782.60239648844617 
	10031.79757213270932 4408.575798419212333 13834.51354207125587 
	10031.79757216216058 4424.130745160181505 13888.50579919666416 
	10031.79757220196552 4431.189516211546106 13930.05155515292427 
	10031.79757220746978 4433.938948258074561 13957.96919426005479 
	10031.79757221007276 4434.921786254665676 13971.96106187071564 
	10031.79757221327418 4435.413415130830799 13983.63934242926916 
	10031.79757221423461 4435.585522813295029 13991.81896347800466 
	10031.79757221453292 4435.628549415780981 13995.90937789486634 
	10031.79757221460204 4435.639306543282146 13997.95466044737623 
	10031.79757221462387 4435.641995762784063 13998.97731116761679 
	10031.79757221462933 4435.642668081602096 13999.48863770347816 
	10031.79757221463115 4435.642860169043161 13999.78082446406552 
	10031.79757221463296 4435.642892185594974 13999.92691787266813 
	10031.79757221463296 4435.642892185622259 13999.9999645768512 
	0 
	
	0 
	0 
	89 0 0.0005580357142857142547 0.001116071428571428509 0.002232142857142857019 0.004464285714285714038 0.008928571428571428076 0.01785714285714285615 0.0357142857142857123 0.05357142857142856845 0.07142857142857142461 0.08928571428571427382 0.1071428571428571369 0.1160714285714285754 0.125 0.1428571428571428492 0.1587301587301587213 0.1746031746031745935 0.1904761904761904656 0.2023809523809523836 0.2142857142857142738 0.226190476190476164 0.238095238095238082 0.2499999999999999722 0.2619047619047618625 0.2738095238095237804 0.2857142857142856984 0.2916666666666666297 0.2976190476190476164 0.3095238095238095344 0.3214285714285713969 0.3273809523809523281 0.3333333333333333148 0.3452380952380952328 0.351190476190476164 0.3571428571428570953 0.3690476190476190133 0.3809523809523809312 0.3928571428571428492 0.4047619047619047672 0.4285714285714285476 0.4305555555555555802 0.4325396825396825573 0.4365079365079365115 0.4444444444444444198 0.4603174603174602919 0.476190476190476164 0.4841269841269840724 0.4880952380952380265 0.4920634920634920362 0.5079365079365079083 0.5238095238095237249 0.5476190476190475609 0.5535714285714286031 0.5595238095238095344 0.5714285714285713969 0.5952380952380951218 0.6190476190476189577 0.6349206349206348854 0.650793650793650702 0.6666666666666666297 0.6904761904761904656 0.7023809523809523281 0.7142857142857141906 0.7321428571428569843 0.7410714285714283811 0.749999999999999889 0.7678571428571427937 0.7857142857142855874 0.7976190476190474499 0.8095238095238094234 0.8333333333333332593 0.8452380952380951218 0.851190476190476053 0.8571428571428570953 0.875 0.8928571428571427937 0.9107142857142856984 0.9285714285714286031 0.9464285714285713969 0.9642857142857143016 0.9821428571428572063 0.9866071428571429047 0.9910714285714286031 0.9977678571428572063 0.9988839285714286031 0.9994419642857143016 0.9997209821428572063 0.9998604910714286031 0.9999302455357143016 
	0 
	0 
	0 
	F 1 F 0 F 1 F 0 } I I I I #
tcoedge-coedge $-1 -1 $-1 $14 $14 $18 $19 reversed $9 $20 -6.283185307179586232 -0 #
tcoedge-coedge $-1 -1 $-1 $21 $22 $11 $16 reversed $12 $23 -6.283185307179586232 -0 #
tedge-edge $-1 -1 $-1 $24 0 $24 6.283185307179586232 $15 $25 forward @7 unknown 0.0007700482119875592989 #
pcurve $-1 -1 $-1 0 forward { exppc nurbs 2 periodic 5 
	0 2 1.570796326794896558 2 3.141592653589793116 2 4.712388980384689674 2 6.283185307179586232 2 
	0 500 1 
	-500 500 0.707106781186543798 
	-500 0 1 
	-500 -500 0.7071067811865463515 
	0 -500 1 
	500 -500 0.7071067811865463515 
	500 0 1 
	500 500 0.707106781186543798 
	0 500 1 
	0 
	plane 10031.79757191538738 3935.642797989781684 14000.00000000000182 1 -3.637978807091713027e-15 0 0 0 -1 forward_v I I I I 
	} 0 0 #
tcoedge-coedge $-1 -1 $-1 $22 $21 $14 $19 forward $12 $26 0 6.283185307179586232 #
tedge-edge $-1 -1 $-1 $27 0 $27 6.283185307179586232 $18 $28 forward @7 unknown 0.0007700482135216687269 #
pcurve $-1 -1 $-1 0 forward { exppc nurbs 2 periodic 5 
	-6.283185307179586232 2 -4.712388980384689674 2 -3.141592653589793116 2 -1.570796326794896558 2 0 2 
	0 500 1 
	500 500 0.707106781186543798 
	500 0 1 
	500 -500 0.7071067811865463515 
	0 -500 1 
	-500 -500 0.7071067811865463515 
	-500 0 1 
	-500 500 0.707106781186543798 
	0 500 1 
	0 
	plane 9781.79757191538738 3935.642797989782594 14000.00000000000182 -1 3.637978807091713027e-15 -0 0 0 -1 reverse_v I I I I 
	} 0 0 #
coedge $-1 -1 $-1 $18 $15 $22 $29 reversed $12 $30 #
coedge $-1 -1 $-1 $15 $18 $21 $29 forward $12 $31 #
pcurve $-1 -1 $-1 0 forward { exppc nubs 1 periodic 2 
	-6.283185307179586232 1 -0 1 
	1 1 
	0 1 
	2.726396620975368931e-13 
	spline forward { ref 0 } I I I I 
	} 0 0 #
tvertex-vertex $-1 -1 $-1 $16 $32 0.0001006367107025999102 #
ellipse-curve $-1 -1 $-1 10031.79757191538738 3935.642797989781684 14000.00000000000182 1 -3.637978807091713027e-15 0 1.818989403545856476e-12 500 0 1 I I #
pcurve $-1 -1 $-1 0 forward { exppc nubs 1 periodic 2 
	0 1 6.283185307179586232 1 
	0 0 
	1 0 
	4.4114023995510105e-13 
	spline forward { ref 0 } I I I I 
	} 0 0 #
tvertex-vertex $-1 -1 $-1 $19 $33 0.0001006366888029599989 #
ellipse-curve $-1 -1 $-1 9781.79757191538738 3935.642797989782594 14000.00000000000182 1 -3.637978807091713027e-15 0 1.818989403545856476e-12 500 0 1 I I #
edge $-1 -1 $-1 $27 0 $24 0.9999999988030249254 $22 $34 forward @7 tangent #
pcurve $-1 -1 $-1 -1 $34 0 0 #
pcurve $-1 -1 $-1 1 $34 1 0 #
point $-1 -1 $-1 10031.7975719153892 4435.642797989781684 14000.00000000000182 #
point $-1 -1 $-1 9781.797571915389199 4435.642797989782594 14000.00000000000182 #
intcurve-curve $-1 -1 $-1 forward { parcur full nubs 3 open 2 
	0 3 1 3 
	9781.797572207175108 4435.642892185623168 13999.9999645768512 
	9865.130905540509048 4435.642892185622259 13999.9999645768512 
	9948.464238881299025 4435.642892185622259 13999.9999645768512 
	10031.79757221463296 4435.642892185622259 13999.9999645768512 
	0 
	
	spline forward { ref 0 } I I I I 
	null_surface 
	nubs 1 open 2 
	0 1 1 1 
	0 0 
	0 1 
	
	nullbs 
	I I 
	0 
	0 
	0 
	surf1 } F 0 F 0.9999999988030249254 #
End-of-ACIS-data 