700 0 1 0           
4 LibG 20 ASM 224.0.1.65535 NT 24 Wed Jul 17 14:48:13 2019 
1000 9.999999999999999547e-07 1.000000000000000036e-10 
body $-1 -1 $-1 $1 $-1 $2 #
lump $-1 -1 $-1 $-1 $3 $0 #
transform $-1 -1 1 0 0 0 1 0 0 0 1 0 0 0 1 no_rotate no_reflect no_shear #
shell $-1 -1 $-1 $-1 $-1 $4 $-1 $1 #
face $-1 -1 $-1 $5 $6 $3 $-1 $7 forward single #
face $-1 -1 $-1 $8 $9 $3 $-1 $10 reversed single #
loop $-1 -1 $-1 $-1 $11 $4 #
plane-surface $-1 -1 $-1 3031.797571915386925 3935.64279798980715 14000.00000000000182 1 -3.637978807091713027e-15 0 0 0 -1 forward_v I I I I #
face $-1 -1 $-1 $-1 $12 $3 $-1 $13 forward single #
loop $-1 -1 $-1 $-1 $14 $5 #
plane-surface $-1 -1 $-1 2781.797571915386925 3935.642797989808059 14000.00000000000182 1 -3.637978807091713027e-15 0 0 0 -1 forward_v I I I I #
tcoedge-coedge $-1 -1 $-1 $11 $11 $15 $16 forward $6 $17 0 6.283185307179586232 #
loop $-1 -1 $-1 $-1 $18 $8 #
spline-surface $-1 -1 $-1 forward { exactsur full nubs 3 3 periodic open none none 85 2 
	0 3 0.002232142857142857019 1 0.004464285714285714038 1 0.008928571428571428076 1 0.01785714285714285615 1 
	0.02678571428571428423 1 0.0357142857142857123 1 0.05357142857142856845 1 0.07142857142857142461 1 0.08928571428571427382 1 
	0.1071428571428571369 1 0.125 1 0.1428571428571428492 1 0.1587301587301587213 1 0.1746031746031745935 1 
	0.1904761904761904656 1 0.2023809523809523836 1 0.2142857142857142738 1 0.238095238095238082 1 0.2619047619047618625 1 
	0.2857142857142856984 1 0.2976190476190476164 1 0.3095238095238095344 1 0.3214285714285713969 1 0.3273809523809523281 1 
	0.3333333333333333148 1 0.3452380952380952328 1 0.3571428571428570953 1 0.3690476190476190133 1 0.375 1 
	0.3809523809523809312 1 0.3869047619047618625 1 0.3928571428571428492 1 0.4047619047619047672 1 0.4166666666666666297 1 
	0.4285714285714285476 1 0.4444444444444444198 1 0.4603174603174602919 1 0.476190476190476164 1 0.4801587301587301182 1 
	0.4841269841269840724 1 0.4880952380952380265 1 0.4900793650793650036 1 0.4920634920634920362 1 0.5158730158730158166 1 
	0.5238095238095237249 1 0.5357142857142855874 1 0.5476190476190475609 1 0.5595238095238095344 1 0.5714285714285713969 1 
	0.5952380952380951218 1 0.6190476190476189577 1 0.6269841269841269771 1 0.6309523809523809312 1 0.6349206349206348854 1 
	0.650793650793650702 1 0.6666666666666666297 1 0.6785714285714286031 1 0.6904761904761904656 1 0.7023809523809523281 1 
	0.7142857142857141906 1 0.7321428571428569843 1 0.749999999999999889 1 0.7678571428571427937 1 0.7857142857142855874 1 
	0.7976190476190474499 1 0.8095238095238094234 1 0.8333333333333332593 1 0.8452380952380951218 1 0.851190476190476053 1 
	0.8571428571428570953 1 0.875 1 0.8928571428571427937 1 0.9107142857142856984 1 0.9285714285714286031 1 
	0.9464285714285713969 1 0.9642857142857143016 1 0.9821428571428572063 1 0.9910714285714286031 1 0.9955357142857143016 1 
	0.9977678571428572063 1 0.9988839285714286031 1 0.9994419642857143016 1 0.9997209821428572063 1 1 3 
	0 3 1 3 
	2781.797571889851497 4435.642862627615614 13999.99989098820151 
	2781.797571889855135 4435.642862584808427 14002.33738552138675 
	2781.797571889943811 4435.610078593269463 14007.01237442072306 
	2781.797571890034305 4435.413388168314668 14016.36051374533236 
	2781.797571890413565 4434.725083752520732 14032.71010004415803 
	2781.797571891497682 4432.759697829865217 14056.01150921247245 
	2781.797571892503129 4428.836916098618531 14083.79692205189349 
	2781.797571893583154 4421.538028186107113 14120.49271917892656 
	2781.797571896990576 4408.575872113144214 14165.48629058648294 
	2781.797571899634022 4387.073406484824773 14217.39738446318916 
	2781.797571902588516 4359.894184251789738 14266.57467550401816 
	2781.797571904818597 4327.379547945944978 14312.39946003963269 
	2781.797571907654401 4289.938885559224218 14354.29597624387861 
	2781.79757190796272 4249.594176425939622 14390.34990966915393 
	2781.797571910165061 4207.365991075263082 14420.70970590536672 
	2781.797571910315582 4164.126552511131194 14445.67389293669294 
	2781.797571910740317 4122.40888346220072 14464.49778207305098 
	2781.797571911054092 4083.15775892960346 14478.23158104132744 
	2781.79757191145336 4034.95696570546761 14491.14854458523951 
	2781.797571911920841 3973.147697224606873 14500.46603835413589 
	2781.797571912740295 3898.137928469244798 14500.46566508566866 
	2781.79757191331737 3836.328585533784917 14491.14874978126682 
	2781.79757191350609 3788.127687315778076 14478.23210008783281 
	2781.797571913691172 3752.801779706354409 14465.87138467932164 
	2781.797571913804404 3724.21568208871895 14453.39921894485633 
	2781.797571913907632 3701.9539332289919 14442.16089247688615 
	2781.797571913955835 3680.127884823713885 14430.09814727392222 
	2781.797571914203218 3653.719872929904795 14413.50494218017229 
	2781.797571914245509 3623.606911456674425 14391.28058676662477 
	2781.797571914352829 3599.967013801282519 14370.93674034425749 
	2781.797571914372384 3582.006845278447145 14353.63592343183336 
	2781.797571914392847 3569.031251604972567 14340.16578168105843 
	2781.797571914408309 3556.568437459709912 14326.21984707120282 
	2781.797571914422861 3540.658173293774325 14307.01700342016193 
	2781.79757191447834 3522.13776531629037 14281.9229388252752 
	2781.797571914496984 3502.226018903720615 14250.23329758503132 
	2781.797571914532455 3482.794636879879363 14213.46786647350564 
	2781.797571914573382 3465.016713702893412 14171.29389175098549 
	2781.797571914586115 3450.300068821753484 14123.58343094560587 
	2781.797571914640685 3442.880217875015205 14086.87945203960044 
	2781.797571914642958 3439.471586838631538 14062.17830863641757 
	2781.797571914644777 3438.075651565383396 14049.78910131366865 
	2781.797571914646142 3437.170082611245562 14039.43896123069499 
	2781.797571914646596 3436.600738148463279 14031.14724004408527 
	2781.797571914647961 3434.968887324464959 14002.10359682996386 
	2781.797571914645232 3435.853130569525547 13966.69376205687513 
	2781.797571914635682 3441.539731197300171 13921.32342201741631 
	2781.797571914619311 3447.724141149182742 13888.63577356728274 
	2781.797571914592027 3457.41078201745313 13852.48489663371038 
	2781.797571914570199 3469.772056259788769 13817.15920001818995 
	2781.797571914497439 3489.726234669080441 13771.4209284077333 
	2781.797571914349646 3520.979067987113922 13717.28704270028356 
	2781.79757191418912 3557.354504333788555 13671.6749791818238 
	2781.797571914098626 3583.477376065113276 13644.89405165696007 
	2781.797571914084983 3595.521273566131185 13633.4361222303869 
	2781.797571914048149 3614.009995429939408 13616.70495170902723 
	2781.797571913954926 3643.286763977140254 13593.35746276438658 
	2781.797571913878073 3681.732981452175409 13568.52631064996967 
	2781.797571913620686 3718.49865683754706 13549.09548841396645 
	2781.797571913517913 3752.801877530431739 13534.12887154707096 
	2781.797571913243701 3788.127785760089409 13521.76809067651629 
	2781.797571912930835 3830.303605318965765 13510.46655898532299 
	2781.797571912751664 3879.542937985240314 13502.10023652953532 
	2781.797571912005424 3935.642809093968935 13498.95010243207071 
	2781.797571911139585 3991.742547476168966 13502.10040800665229 
	2781.797571910924489 4040.982038352291966 13510.4664851469297 
	2781.797571910319675 4083.157562305592364 13521.76862801216157 
	2781.797571910045463 4130.259434085537578 13538.24836282629985 
	2781.797571909406088 4175.313563709324626 13559.94458147951809 
	2781.797571908901773 4212.284038114232317 13583.17650304448944 
	2781.797571908790815 4232.622224177286625 13597.60707667912357 
	2781.797571908602094 4257.352812453056686 13616.58327763432862 
	2781.797571907562087 4289.938932900112377 13645.70372492354181 
	2781.79757190630562 4327.379720925989204 13687.60014822755329 
	2781.797571905047789 4359.894158312519721 13733.4250731618049 
	2781.797571903022799 4387.073656930261677 13782.60224915285653 
	2781.797571898929618 4408.57580224333833 13834.51346078059396 
	2781.797571895790043 4424.1308216241423 13888.50569610468847 
	2781.797571891622283 4431.973796857326306 13934.6676778106339 
	2781.797571890387644 4434.7250453371189 13967.2896845163159 
	2781.797571889986557 4435.413397112364692 13983.6392671160902 
	2781.79757188989106 4435.58549123892135 13991.81889018247057 
	2781.797571889859682 4435.628520259715515 13995.90930424886756 
	2781.79757188985468 4435.639276925955528 13997.95458686879647 
	2781.797571889851497 4435.642350395138237 13999.12333053564907 
	2781.797571889851042 4435.642862632966171 13999.70770417155472 
	2781.797571889851497 4435.642862627615614 13999.99989098820151 
	2865.130905223184982 4435.642862627614704 13999.99989098820151 
	2865.13090522318862 4435.642862584807517 14002.33738552138675 
	2865.130905223277296 4435.610078593268554 14007.01237442072306 
	2865.13090522336779 4435.413388168313759 14016.36051374533236 
	2865.13090522374705 4434.725083752519822 14032.71010004415803 
	2865.130905224831167 4432.759697829864308 14056.01150921247245 
	2865.130905225836614 4428.836916098617621 14083.79692205189349 
	2865.130905226916639 4421.538028186106203 14120.49271917892656 
	2865.130905230324061 4408.575872113143305 14165.48629058648294 
	2865.130905232967507 4387.073406484823863 14217.39738446318916 
	2865.130905235922 4359.894184251788829 14266.57467550401816 
	2865.130905238152081 4327.379547945944068 14312.39946003963269 
	2865.130905240987886 4289.938885559223309 14354.29597624387861 
	2865.130905241296205 4249.594176425938713 14390.34990966915393 
	2865.130905243498546 4207.365991075262173 14420.70970590536672 
	2865.130905243649067 4164.126552511130285 14445.67389293669294 
	2865.130905244073801 4122.40888346219981 14464.49778207305098 
	2865.130905244387577 4083.157758929603006 14478.23158104132744 
	2865.130905244786845 4034.956965705467155 14491.14854458523951 
	2865.130905245254326 3973.147697224606418 14500.46603835413589 
	2865.13090524607378 3898.137928469244343 14500.46566508566866 
	2865.130905246650855 3836.328585533784462 14491.14874978126682 
	2865.130905246839575 3788.127687315777621 14478.23210008783281 
	2865.130905247024657 3752.801779706353955 14465.87138467932164 
	2865.130905247137889 3724.215682088718495 14453.39921894485633 
	2865.130905247241117 3701.953933228991446 14442.16089247688615 
	2865.130905247288865 3680.12788482371343 14430.09814727392222 
	2865.130905247537157 3653.719872929904341 14413.50494218017229 
	2865.130905247578994 3623.60691145667397 14391.28058676662477 
	2865.130905247686314 3599.967013801282064 14370.93674034425749 
	2865.130905247705869 3582.00684527844669 14353.63592343183336 
	2865.130905247726332 3569.031251604972113 14340.16578168105843 
	2865.130905247741794 3556.568437459709457 14326.21984707120282 
	2865.130905247756345 3540.658173293773871 14307.01700342016193 
	2865.130905247811825 3522.137765316289915 14281.9229388252752 
	2865.130905247830469 3502.22601890372016 14250.23329758503132 
	2865.13090524786594 3482.794636879878908 14213.46786647350564 
	2865.130905247906867 3465.016713702892957 14171.29389175098549 
	2865.1309052479196 3450.30006882175303 14123.58343094560587 
	2865.130905247974169 3442.88021787501475 14086.87945203960044 
	2865.130905247976443 3439.471586838631083 14062.17830863641757 
	2865.130905247978262 3438.075651565382941 14049.78910131366865 
	2865.130905247979626 3437.170082611245107 14039.43896123069499 
	2865.130905247980081 3436.600738148462824 14031.14724004408527 
	2865.130905247981445 3434.968887324464504 14002.10359682996386 
	2865.130905247978717 3435.853130569525092 13966.69376205687513 
	2865.130905247969167 3441.539731197299716 13921.32342201741631 
	2865.130905247952796 3447.724141149182287 13888.63577356728274 
	2865.130905247925512 3457.410782017452675 13852.48489663371038 
	2865.130905247903684 3469.772056259788314 13817.15920001818995 
	2865.130905247830924 3489.726234669079986 13771.4209284077333 
	2865.130905247683131 3520.979067987113467 13717.28704270028356 
	2865.130905247522605 3557.3545043337881 13671.6749791818238 
	2865.130905247432111 3583.477376065112821 13644.89405165696007 
	2865.130905247418468 3595.521273566130731 13633.4361222303869 
	2865.130905247381634 3614.009995429938954 13616.70495170902723 
	2865.13090524728841 3643.286763977139799 13593.35746276438658 
	2865.130905247211558 3681.732981452174954 13568.52631064996967 
	2865.130905246954171 3718.498656837546605 13549.09548841396645 
	2865.130905246851398 3752.801877530431284 13534.12887154707096 
	2865.130905246577186 3788.127785760088955 13521.76809067651629 
	2865.130905246264319 3830.30360531896531 13510.46655898532299 
	2865.130905246085149 3879.54293798523986 13502.10023652953532 
	2865.130905245338909 3935.642809093968481 13498.95010243207071 
	2865.13090524447307 3991.742547476168511 13502.10040800665229 
	2865.130905244257974 4040.982038352291511 13510.4664851469297 
	2865.13090524365316 4083.15756230559191 13521.76862801216157 
	2865.130905243378947 4130.259434085536668 13538.24836282629985 
	2865.130905242739573 4175.313563709323716 13559.94458147951809 
	2865.130905242235258 4212.284038114231407 13583.17650304448944 
	2865.1309052421243 4232.622224177285716 13597.60707667912357 
	2865.130905241935579 4257.352812453055776 13616.58327763432862 
	2865.130905240895572 4289.938932900111467 13645.70372492354181 
	2865.130905239639105 4327.379720925988295 13687.60014822755329 
	2865.130905238381274 4359.894158312518812 13733.4250731618049 
	2865.130905236356284 4387.073656930260768 13782.60224915285653 
	2865.130905232263103 4408.575802243337421 13834.51346078059396 
	2865.130905229123528 4424.13082162414139 13888.50569610468847 
	2865.130905224955768 4431.973796857325397 13934.6676778106339 
	2865.130905223721129 4434.72504533711799 13967.2896845163159 
	2865.130905223320042 4435.413397112363782 13983.6392671160902 
	2865.130905223224545 4435.58549123892044 13991.81889018247057 
	2865.130905223193167 4435.628520259714605 13995.90930424886756 
	2865.130905223188165 4435.639276925954618 13997.95458686879647 
	2865.130905223184982 4435.642350395137328 13999.12333053564907 
	2865.130905223184527 4435.642862632965262 13999.70770417155472 
	2865.130905223184982 4435.642862627614704 13999.99989098820151 
	2948.464238554221538 4435.642862627612885 13999.99989098820151 
	2948.464238554225631 4435.642862584805698 14002.33738552138675 
	2948.464238554321582 4435.610078593264916 14007.01237442072306 
	2948.464238554420717 4435.41338816831103 14016.36051374533236 
	2948.464238554832718 4434.725083752516184 14032.71010004415803 
	2948.464238556015061 4432.759697829862489 14056.01150921247245 
	2948.464238557111457 4428.836916098614893 14083.79692205189349 
	2948.464238558287889 4421.538028186104384 14120.49271917892656 
	2948.464238562002265 4408.575872113141486 14165.48629058648294 
	2948.46423856488309 4387.073406484822954 14217.39738446318916 
	2948.46423856810361 4359.894184251787919 14266.57467550401816 
	2948.46423857053469 4327.379547945943159 14312.39946003963269 
	2948.464238573625153 4289.938885559223309 14354.29597624387861 
	2948.464238573961666 4249.594176425938713 14390.34990966915393 
	2948.464238576361822 4207.365991075261263 14420.70970590536672 
	2948.464238576525531 4164.126552511130285 14445.67389293669294 
	2948.464238576988009 4122.408883462198901 14464.49778207305098 
	2948.464238577329979 4083.157758929602551 14478.23158104132744 
	2948.464238577765627 4034.9569657054667 14491.14854458523951 
	2948.464238578275399 3973.147697224604599 14500.46603835413589 
	2948.464238579168068 3898.137928469243889 14500.46566508566866 
	2948.464238579796984 3836.328585533783553 14491.14874978126682 
	2948.464238580003439 3788.127687315776711 14478.23210008783281 
	2948.464238580204892 3752.801779706353955 14465.87138467932164 
	2948.464238580328583 3724.215682088718495 14453.39921894485633 
	2948.464238580440906 3701.953933228991446 14442.16089247688615 
	2948.464238580494566 3680.127884823713885 14430.09814727392222 
	2948.464238580763777 3653.719872929903886 14413.50494218017229 
	2948.464238580809251 3623.60691145667397 14391.28058676662477 
	2948.464238580926121 3599.967013801282064 14370.93674034425749 
	2948.46423858094704 3582.006845278447145 14353.63592343183336 
	2948.464238580969322 3569.031251604972113 14340.16578168105843 
	2948.464238580986148 3556.568437459709912 14326.21984707120282 
	2948.464238581002519 3540.658173293773871 14307.01700342016193 
	2948.464238581063 3522.137765316289915 14281.9229388252752 
	2948.464238581083464 3502.226018903719705 14250.23329758503132 
	2948.464238581121663 3482.794636879878453 14213.46786647350564 
	2948.464238581165773 3465.016713702892048 14171.29389175098549 
	2948.464238581179416 3450.300068821752575 14123.58343094560587 
	2948.464238581238988 3442.880217875014296 14086.87945203960044 
	2948.464238581241716 3439.471586838630174 14062.17830863641757 
	2948.464238581243535 3438.075651565382486 14049.78910131366865 
	2948.464238581245354 3437.170082611243743 14039.43896123069499 
	2948.464238581245354 3436.600738148462369 14031.14724004408527 
	2948.464238581247173 3434.968887324464049 14002.10359682996386 
	2948.46423858124399 3435.853130569524183 13966.69376205687513 
	2948.464238581233531 3441.539731197299261 13921.32342201741631 
	2948.46423858121625 3447.724141149181378 13888.63577356728274 
	2948.464238581186237 3457.41078201745222 13852.48489663371038 
	2948.46423858116259 3469.772056259787405 13817.15920001818995 
	2948.464238581083009 3489.726234669079076 13771.4209284077333 
	2948.464238580922029 3520.979067987113012 13717.28704270028356 
	2948.46423858074786 3557.354504333787645 13671.6749791818238 
	2948.464238580648725 3583.477376065112367 13644.89405165696007 
	2948.464238580633719 3595.521273566129821 13633.4361222303869 
	2948.464238580593701 3614.009995429938499 13616.70495170902723 
	2948.464238580491838 3643.286763977139344 13593.35746276438658 
	2948.464238580408164 3681.732981452174045 13568.52631064996967 
	2948.464238580127585 3718.49865683754615 13549.09548841396645 
	2948.464238580015717 3752.801877530431284 13534.12887154707096 
	2948.464238579716493 3788.127785760088045 13521.76809067651629 
	2948.464238579375888 3830.303605318964401 13510.46655898532299 
	2948.464238579180346 3879.54293798523895 13502.10023652953532 
	2948.464238578367258 3935.642809093967571 13498.95010243207071 
	2948.464238577425022 3991.742547476168056 13502.10040800665229 
	2948.464238577189917 4040.982038352291056 13510.4664851469297 
	2948.464238576530988 4083.157562305590545 13521.76862801216157 
	2948.46423857623131 4130.259434085535759 13538.24836282629985 
	2948.464238575535092 4175.313563709322807 13559.94458147951809 
	2948.464238574985302 4212.284038114230498 13583.17650304448944 
	2948.464238574863884 4232.622224177284807 13597.60707667912357 
	2948.464238574658339 4257.352812453054867 13616.58327763432862 
	2948.464238573525108 4289.938932900110558 13645.70372492354181 
	2948.464238572155409 4327.379720925988295 13687.60014822755329 
	2948.464238570784801 4359.894158312518812 13733.4250731618049 
	2948.464238568577912 4387.073656930260768 13782.60224915285653 
	2948.464238564117295 4408.575802243337421 13834.51346078059396 
	2948.464238560694866 4424.13082162414139 13888.50569610468847 
	2948.464238556154214 4431.973796857325397 13934.6676778106339 
	2948.464238554806798 4434.725045337117081 13967.2896845163159 
	2948.464238554370695 4435.413397112362873 13983.6392671160902 
	2948.464238554265194 4435.585491238918621 13991.81889018247057 
	2948.464238554231997 4435.628520259713696 13995.90930424886756 
	2948.464238554226085 4435.639276925953709 13997.95458686879647 
	2948.464238554221993 4435.642350395135509 13999.12333053564907 
	2948.464238554221083 4435.642862632964352 13999.70770417155472 
	2948.464238554221538 4435.642862627612885 13999.99989098820151 
	3031.797571887555023 4435.642862627612885 13999.99989098820151 
	3031.797571887559116 4435.642862584805698 14002.33738552138675 
	3031.797571887655067 4435.610078593264916 14007.01237442072306 
	3031.797571887754202 4435.41338816831103 14016.36051374533236 
	3031.797571888166203 4434.725083752516184 14032.71010004415803 
	3031.797571889348546 4432.759697829862489 14056.01150921247245 
	3031.797571890444942 4428.836916098614893 14083.79692205189349 
	3031.797571891621374 4421.538028186104384 14120.49271917892656 
	3031.79757189533575 4408.575872113141486 14165.48629058648294 
	3031.797571898216574 4387.073406484822954 14217.39738446318916 
	3031.797571901437095 4359.894184251787919 14266.57467550401816 
	3031.797571903868175 4327.379547945943159 14312.39946003963269 
	3031.797571906958638 4289.938885559223309 14354.29597624387861 
	3031.797571907295151 4249.594176425938713 14390.34990966915393 
	3031.797571909695307 4207.365991075261263 14420.70970590536672 
	3031.797571909859016 4164.126552511130285 14445.67389293669294 
	3031.797571910321494 4122.408883462198901 14464.49778207305098 
	3031.797571910663464 4083.157758929602096 14478.23158104132744 
	3031.797571911099112 4034.956965705466246 14491.14854458523951 
	3031.797571911608884 3973.147697224604144 14500.46603835413589 
	3031.797571912501553 3898.137928469243434 14500.46566508566866 
	3031.797571913130469 3836.328585533783098 14491.14874978126682 
	3031.797571913336924 3788.127687315776257 14478.23210008783281 
	3031.797571913538377 3752.8017797063535 14465.87138467932164 
	3031.797571913662068 3724.21568208871804 14453.39921894485633 
	3031.797571913774391 3701.953933228990991 14442.16089247688615 
	3031.797571913827596 3680.12788482371343 14430.09814727392222 
	3031.797571914097261 3653.719872929903431 14413.50494218017229 
	3031.797571914142736 3623.606911456673515 14391.28058676662477 
	3031.797571914259606 3599.96701380128161 14370.93674034425749 
	3031.797571914280525 3582.00684527844669 14353.63592343183336 
	3031.797571914302807 3569.031251604971658 14340.16578168105843 
	3031.797571914319633 3556.568437459709457 14326.21984707120282 
	3031.797571914336004 3540.658173293773416 14307.01700342016193 
	3031.797571914396485 3522.13776531628946 14281.9229388252752 
	3031.797571914416949 3502.22601890371925 14250.23329758503132 
	3031.797571914455148 3482.794636879877999 14213.46786647350564 
	3031.797571914499258 3465.016713702891593 14171.29389175098549 
	3031.797571914512901 3450.30006882175212 14123.58343094560587 
	3031.797571914572472 3442.880217875013841 14086.87945203960044 
	3031.797571914575201 3439.471586838629719 14062.17830863641757 
	3031.79757191457702 3438.075651565382032 14049.78910131366865 
	3031.797571914578839 3437.170082611243288 14039.43896123069499 
	3031.797571914578839 3436.600738148461915 14031.14724004408527 
	3031.797571914580658 3434.968887324463594 14002.10359682996386 
	3031.797571914577475 3435.853130569523728 13966.69376205687513 
	3031.797571914567015 3441.539731197298806 13921.32342201741631 
	3031.797571914549735 3447.724141149180923 13888.63577356728274 
	3031.797571914519722 3457.410782017451766 13852.48489663371038 
	3031.797571914496075 3469.77205625978695 13817.15920001818995 
	3031.797571914416494 3489.726234669078622 13771.4209284077333 
	3031.797571914255514 3520.979067987112558 13717.28704270028356 
	3031.797571914081345 3557.35450433378719 13671.6749791818238 
	3031.79757191398221 3583.477376065111912 13644.89405165696007 
	3031.797571913967204 3595.521273566129366 13633.4361222303869 
	3031.797571913927186 3614.009995429938044 13616.70495170902723 
	3031.797571913825323 3643.286763977138889 13593.35746276438658 
	3031.797571913741649 3681.73298145217359 13568.52631064996967 
	3031.79757191346107 3718.498656837545695 13549.09548841396645 
	3031.797571913349202 3752.801877530430829 13534.12887154707096 
	3031.797571913049978 3788.12778576008759 13521.76809067651629 
	3031.797571912709373 3830.303605318963946 13510.46655898532299 
	3031.797571912513831 3879.542937985238495 13502.10023652953532 
	3031.797571911700743 3935.642809093967116 13498.95010243207071 
	3031.797571910758506 3991.742547476167601 13502.10040800665229 
	3031.797571910523402 4040.982038352290601 13510.4664851469297 
	3031.797571909864473 4083.157562305590091 13521.76862801216157 
	3031.797571909564795 4130.259434085535759 13538.24836282629985 
	3031.797571908868576 4175.313563709322807 13559.94458147951809 
	3031.797571908318787 4212.284038114230498 13583.17650304448944 
	3031.797571908197369 4232.622224177284807 13597.60707667912357 
	3031.797571907991824 4257.352812453054867 13616.58327763432862 
	3031.797571906858593 4289.938932900110558 13645.70372492354181 
	3031.797571905488894 4327.379720925988295 13687.60014822755329 
	3031.797571904118286 4359.894158312518812 13733.4250731618049 
	3031.797571901911397 4387.073656930260768 13782.60224915285653 
	3031.79757189745078 4408.575802243337421 13834.51346078059396 
	3031.797571894028351 4424.13082162414139 13888.50569610468847 
	3031.797571889487699 4431.973796857325397 13934.6676778106339 
	3031.797571888140283 4434.725045337117081 13967.2896845163159 
	3031.79757188770418 4435.413397112362873 13983.6392671160902 
	3031.797571887598679 4435.585491238918621 13991.81889018247057 
	3031.797571887565482 4435.628520259713696 13995.90930424886756 
	3031.79757188755957 4435.639276925953709 13997.95458686879647 
	3031.797571887555478 4435.642350395135509 13999.12333053564907 
	3031.797571887554568 4435.642862632964352 13999.70770417155472 
	3031.797571887555023 4435.642862627612885 13999.99989098820151 
	0 
	
	0 
	0 
	84 0 0.002232142857142857019 0.004464285714285714038 0.008928571428571428076 0.01785714285714285615 0.02678571428571428423 0.0357142857142857123 0.05357142857142856845 0.07142857142857142461 0.08928571428571427382 0.1071428571428571369 0.125 0.1428571428571428492 0.1587301587301587213 0.1746031746031745935 0.1904761904761904656 0.2023809523809523836 0.2142857142857142738 0.238095238095238082 0.2619047619047618625 0.2857142857142856984 0.2976190476190476164 0.3095238095238095344 0.3214285714285713969 0.3273809523809523281 0.3333333333333333148 0.3452380952380952328 0.3571428571428570953 0.3690476190476190133 0.375 0.3809523809523809312 0.3869047619047618625 0.3928571428571428492 0.4047619047619047672 0.4166666666666666297 0.4285714285714285476 0.4444444444444444198 0.4603174603174602919 0.476190476190476164 0.4801587301587301182 0.4841269841269840724 0.4880952380952380265 0.4900793650793650036 0.4920634920634920362 0.5158730158730158166 0.5238095238095237249 0.5357142857142855874 0.5476190476190475609 0.5595238095238095344 0.5714285714285713969 0.5952380952380951218 0.6190476190476189577 0.6269841269841269771 0.6309523809523809312 0.6349206349206348854 0.650793650793650702 0.6666666666666666297 0.6785714285714286031 0.6904761904761904656 0.7023809523809523281 0.7142857142857141906 0.7321428571428569843 0.749999999999999889 0.7678571428571427937 0.7857142857142855874 0.7976190476190474499 0.8095238095238094234 0.8333333333333332593 0.8452380952380951218 0.851190476190476053 0.8571428571428570953 0.875 0.8928571428571427937 0.9107142857142856984 0.9285714285714286031 0.9464285714285713969 0.9642857142857143016 0.9821428571428572063 0.9910714285714286031 0.9955357142857143016 0.9977678571428572063 0.9988839285714286031 0.9994419642857143016 0.9997209821428572063 
	0 
	0 
	0 
	F 1 F 0 F 1 F 0 } I I I I #
tcoedge-coedge $-1 -1 $-1 $14 $14 $18 $19 reversed $9 $20 -6.283185307179586232 -0 #
tcoedge-coedge $-1 -1 $-1 $21 $22 $11 $16 reversed $12 $23 -6.283185307179586232 -0 #
tedge-edge $-1 -1 $-1 $24 0 $24 6.283185307179586232 $15 $25 forward @7 unknown 0.0006917076647418999354 #
pcurve $-1 -1 $-1 0 forward { exppc nurbs 2 periodic 5 
	0 2 1.570796326794896558 2 3.141592653589793116 2 4.712388980384689674 2 6.283185307179586232 2 
	0 500 1 
	-500 500 0.707106781186543798 
	-500 0 1 
	-500 -500 0.7071067811865463515 
	0 -500 1 
	500 -500 0.7071067811865463515 
	500 0 1 
	500 500 0.707106781186543798 
	0 500 1 
	0 
	plane 3031.797571915386925 3935.64279798980715 14000.00000000000182 1 -3.637978807091713027e-15 0 0 0 -1 forward_v I I I I 
	} 0 0 #
tcoedge-coedge $-1 -1 $-1 $22 $21 $14 $19 forward $12 $26 0 6.283185307179586232 #
tedge-edge $-1 -1 $-1 $27 0 $27 6.283185307179586232 $18 $28 forward @7 unknown 0.00069170766491357782 #
pcurve $-1 -1 $-1 0 forward { exppc nurbs 2 periodic 5 
	-6.283185307179586232 2 -4.712388980384689674 2 -3.141592653589793116 2 -1.570796326794896558 2 0 2 
	0 500 1 
	500 500 0.707106781186543798 
	500 0 1 
	500 -500 0.7071067811865463515 
	0 -500 1 
	-500 -500 0.7071067811865463515 
	-500 0 1 
	-500 500 0.707106781186543798 
	0 500 1 
	0 
	plane 2781.797571915386925 3935.642797989808059 14000.00000000000182 -1 3.637978807091713027e-15 -0 0 0 -1 reverse_v I I I I 
	} 0 0 #
coedge $-1 -1 $-1 $18 $15 $22 $29 reversed $12 $30 #
coedge $-1 -1 $-1 $15 $18 $21 $29 forward $12 $31 #
pcurve $-1 -1 $-1 0 forward { exppc nubs 1 periodic 2 
	-6.283185307179586232 1 -0 1 
	1 1 
	0 1 
	2.726396620975368931e-13 
	spline forward { ref 0 } I I I I 
	} 0 0 #
tvertex-vertex $-1 -1 $-1 $16 $32 0.0001267344540580870379 #
ellipse-curve $-1 -1 $-1 3031.797571915386925 3935.64279798980715 14000.00000000000182 1 -3.637978807091713027e-15 0 1.818989403545856476e-12 500 0 1 I I #
pcurve $-1 -1 $-1 0 forward { exppc nubs 1 periodic 2 
	0 1 6.283185307179586232 1 
	0 0 
	1 0 
	4.411402399551011509e-13 
	spline forward { ref 0 } I I I I 
	} 0 0 #
tvertex-vertex $-1 -1 $-1 $19 $33 0.0001267344545022674833 #
ellipse-curve $-1 -1 $-1 2781.797571915386925 3935.642797989808059 14000.00000000000182 1 -3.637978807091713027e-15 0 1.818989403545856476e-12 500 0 1 I I #
edge $-1 -1 $-1 $27 1.021489872591006211e-10 $24 1 $22 $34 forward @7 tangent #
pcurve $-1 -1 $-1 -1 $34 0 0 #
pcurve $-1 -1 $-1 1 $34 1 0 #
point $-1 -1 $-1 3031.797571915388744 4435.64279798980715 14000.00000000000182 #
point $-1 -1 $-1 2781.797571915388744 4435.642797989808059 14000.00000000000182 #
intcurve-curve $-1 -1 $-1 forward { parcur full nubs 3 open 2 
	0 3 1 3 
	2781.797571889851497 4435.642862627615614 13999.99989098820151 
	2865.130905223184982 4435.642862627614704 13999.99989098820151 
	2948.464238554221538 4435.642862627612885 13999.99989098820151 
	3031.797571887555023 4435.642862627612885 13999.99989098820151 
	0 
	
	spline forward { ref 0 } I I I I 
	null_surface 
	nubs 1 open 2 
	0 1 1 1 
	0 0 
	0 1 
	
	nullbs 
	I I 
	0 
	0 
	0 
	surf1 } F 1.021489872591006211e-10 F 1 #
End-of-ACIS-data 