700 0 1 0           
4 LibG 20 ASM 224.0.1.65535 NT 24 Wed Jul 17 14:48:12 2019 
1000 9.999999999999999547e-07 1.000000000000000036e-10 
body $-1 -1 $-1 $1 $-1 $2 #
lump $-1 -1 $-1 $-1 $3 $0 #
transform $-1 -1 1 0 0 0 1 0 0 0 1 0 0 0 1 no_rotate no_reflect no_shear #
shell $-1 -1 $-1 $-1 $-1 $4 $-1 $1 #
face $-1 -1 $-1 $5 $6 $3 $-1 $7 forward single #
face $-1 -1 $-1 $8 $9 $3 $-1 $10 reversed single #
loop $-1 -1 $-1 $-1 $11 $4 #
plane-surface $-1 -1 $-1 -718.202428084613075 3935.642797989820792 14000.00000000000182 1 -3.637978807091713027e-15 0 0 0 -1 forward_v I I I I #
face $-1 -1 $-1 $-1 $12 $3 $-1 $13 forward single #
loop $-1 -1 $-1 $-1 $14 $5 #
plane-surface $-1 -1 $-1 -968.202428084613075 3935.642797989821702 14000.00000000000182 1 -3.637978807091713027e-15 0 0 0 -1 forward_v I I I I #
tcoedge-coedge $-1 -1 $-1 $11 $11 $15 $16 forward $6 $17 0 6.283185307179586232 #
loop $-1 -1 $-1 $-1 $18 $8 #
spline-surface $-1 -1 $-1 forward { exactsur full nubs 3 3 periodic open none none 90 2 
	0 3 0.004464285714285714038 1 0.008928571428571428076 1 0.01785714285714285615 1 0.02678571428571428423 1 
	0.0357142857142857123 1 0.05357142857142856845 1 0.07142857142857142461 1 0.08928571428571427382 1 0.09374999999999998612 1 
	0.09821428571428569843 1 0.1026785714285714246 1 0.1071428571428571369 1 0.125 1 0.1428571428571428492 1 
	0.1587301587301587213 1 0.1785714285714285476 1 0.1825396825396825295 1 0.1904761904761904656 1 0.2142857142857142738 1 
	0.226190476190476164 1 0.238095238095238082 1 0.2410714285714285476 1 0.2440476190476190133 1 0.2499999999999999722 1 
	0.2619047619047618625 1 0.2738095238095237804 1 0.2857142857142856984 1 0.2976190476190476164 1 0.3095238095238095344 1 
	0.3214285714285713969 1 0.3333333333333333148 1 0.3452380952380952328 1 0.3571428571428570953 1 0.3630952380952380265 1 
	0.3690476190476190133 1 0.375 1 0.3809523809523809312 1 0.3928571428571428492 1 0.4047619047619047672 1 
	0.4166666666666666297 1 0.4285714285714285476 1 0.4444444444444444198 1 0.4603174603174602919 1 0.476190476190476164 1 
	0.4801587301587301182 1 0.4841269841269840724 1 0.4920634920634920362 1 0.5 1 0.5079365079365079083 1 
	0.5158730158730158166 1 0.5238095238095237249 1 0.5476190476190475609 1 0.5714285714285713969 1 0.5833333333333332593 1 
	0.5892857142857141906 1 0.5922619047619046562 1 0.5952380952380951218 1 0.6190476190476189577 1 0.6269841269841269771 1 
	0.6349206349206348854 1 0.650793650793650702 1 0.6666666666666666297 1 0.6904761904761904656 1 0.7023809523809523281 1 
	0.7142857142857141906 1 0.7321428571428569843 1 0.749999999999999889 1 0.7678571428571427937 1 0.7857142857142855874 1 
	0.7976190476190474499 1 0.8095238095238094234 1 0.8333333333333332593 1 0.8452380952380951218 1 0.851190476190476053 1 
	0.8571428571428570953 1 0.875 1 0.8928571428571427937 1 0.9107142857142856984 1 0.9285714285714286031 1 
	0.9464285714285713969 1 0.9642857142857143016 1 0.9732142857142858094 1 0.9821428571428572063 1 0.9910714285714286031 1 
	0.9955357142857143016 1 0.9977678571428572063 1 0.9988839285714286031 1 0.9994419642857143016 1 1 3 
	0 3 1 3 
	-968.2024280847981572 4435.642881721573758 13999.99993657414598 
	-968.2024280847979298 4435.642881524315271 14004.67492569074784 
	-968.2024280847956561 4435.511736459639906 14014.02490508080155 
	-968.2024280847937234 4434.725100827218739 14032.71014762854793 
	-968.2024280847845148 4432.759717501903651 14056.01156213725153 
	-968.2024280847776936 4428.836933372416752 14083.79697699491953 
	-968.2024280847693944 4421.538052831382629 14120.49278699293973 
	-968.202428084742678 4408.575873725065321 14165.48635033272876 
	-968.202428084725625 4387.073469410909638 14217.39753008619664 
	-968.2024280847040245 4366.68895355001041 14254.28040515849898 
	-968.2024280847018645 4351.432170012526512 14277.82153228816605 
	-968.2024280847007276 4343.476809774400863 14289.37361338154369 
	-968.2024280846998181 4335.200482575413844 14300.69796163393221 
	-968.2024280846982265 4318.019384552162592 14322.87369685673912 
	-968.2024280846866304 4289.938961110192395 14354.2961532829213 
	-968.2024280846782176 4249.594070212071529 14390.34989017464432 
	-968.2024280846703732 4203.987963095809391 14423.13893948586883 
	-968.2024280846646889 4167.673320943444196 14443.50612694806114 
	-968.2024280846644615 4137.541042268205274 14457.55623373157687 
	-968.2024280846623014 4103.067715228773523 14472.08968436635223 
	-968.2024280846594593 4059.265201405170501 14485.60037512202507 
	-968.2024280846588908 4010.23331404937062 14494.87632646737984 
	-968.202428084657754 3982.340378493485332 14498.01952292458191 
	-968.2024280846575266 3963.679623176185942 14499.24251716613435 
	-968.2024280846574129 3951.226066884242755 14499.82515911469636 
	-968.2024280846563897 3929.409446086955086 14500.23323363290365 
	-968.2024280846529791 3898.242856670302899 14499.06711475367047 
	-968.2024280846503643 3861.052097175129347 14494.87669299272602 
	-968.2024280846471811 3824.278482047566285 14487.91876041696923 
	-968.2024280846447937 3788.127658740277639 14478.23217084041607 
	-968.2024280846424062 3752.801801176595291 14465.87111968605677 
	-968.2024280846408146 3718.498460691935634 14450.90472778612093 
	-968.2024280846386546 3685.409485136434796 14433.41668842114996 
	-968.202428084637404 3653.719901638706688 14413.50481984273938 
	-968.2024280846368356 3628.625768145853726 14394.98454081174714 
	-968.2024280846361535 3609.422939600067366 14379.07425166820758 
	-968.2024280846359261 3595.476997017998656 14366.6114510603602 
	-968.2024280846353577 3582.006859695497496 14353.63585410627093 
	-968.2024280846350166 3564.706033169700731 14335.67569372912658 
	-968.2024280846338797 3544.362215908041435 14312.03578746114727 
	-968.2024280846324018 3522.1377868856639 14281.922863848622 
	-968.2024280846318334 3502.226044795685539 14250.23322847254531 
	-968.2024280846308102 3482.794644394723946 14213.46780632993614 
	-968.2024280846296733 3465.016798108052171 14171.29380240286628 
	-968.2024280846289912 3450.300262251807908 14123.58331886294764 
	-968.2024280846273996 3442.880401255014021 14086.8793564953703 
	-968.2024280846272859 3439.471795973278859 14062.17821225727675 
	-968.2024280846272859 3437.610517496567354 14045.65926904041953 
	-968.2024280846269448 3436.057290255428597 14024.93319021960633 
	-968.2024280846264901 3435.435536868303188 13999.99992342086625 
	-968.2024280846259217 3436.057206627810501 13975.06662944098935 
	-968.2024280846259217 3437.921354368826997 13950.19538378284597 
	-968.2024280846252395 3443.088997878357532 13908.9494515286915 
	-968.2024280846241027 3456.070195548521951 13852.0713335314922 
	-968.2024280846228521 3478.907746672228313 13793.88479766398086 
	-968.2024280846227384 3499.311492358498981 13755.28150712239949 
	-968.2024280846225111 3510.573008528023365 13736.59169815822679 
	-968.2024280846225111 3517.304432094538242 13726.09796069152981 
	-968.2024280846220563 3534.620041497614238 13700.18246506895593 
	-968.2024280846237616 3557.354422832935597 13671.67496818396103 
	-968.2024280846236479 3586.379733285526981 13641.91819900494374 
	-968.2024280846237616 3610.756758093103144 13619.29880149323435 
	-968.2024280846242164 3643.286775785750251 13593.35765635875032 
	-968.2024280846246711 3692.217557961899274 13561.75276994300657 
	-968.2024280846264901 3741.026182839784724 13538.2484819501442 
	-968.2024280846269448 3788.127950500914721 13521.76850951377128 
	-968.2024280846280817 3830.303608972619713 13510.4667105299086 
	-968.2024280846302418 3879.54303295735599 13502.10053016836719 
	-968.2024280846328566 3935.642824580041633 13498.95006281976748 
	-968.2024280846358124 3991.742627642908701 13502.10050856259295 
	-968.2024280846387683 4040.982035770801303 13510.46672043079525 
	-968.2024280846411557 4083.157724834436067 13521.76843449754051 
	-968.2024280846412694 4130.25939840731553 13538.24866257309804 
	-968.2024280846476358 4175.313627454540438 13559.94462489865873 
	-968.2024280846505917 4212.284050497621138 13583.17665326525093 
	-968.2024280846530928 4232.62227224972321 13597.60713945805219 
	-968.2024280846534339 4257.352816780456124 13616.58339955353586 
	-968.2024280846652573 4289.939180617571765 13645.70354481001959 
	-968.2024280846840156 4327.379760086983879 13687.60018459552521 
	-968.2024280847026603 4359.894360300942935 13733.4249969641096 
	-968.2024280847242608 4387.073534079297133 13782.60234529372065 
	-968.2024280847448381 4408.57596429109708 13834.51347232229273 
	-968.2024280847700766 4421.538080052901933 13879.50708286590634 
	-968.2024280847786031 4428.836957081708533 13916.20288908852672 
	-968.2024280847859927 4432.759729469878039 13943.9883096798676 
	-968.2024280847946329 4434.725106504588439 13967.28972520574462 
	-968.2024280847973614 4435.413408310809245 13983.63931322324788 
	-968.2024280847981572 4435.585511687309918 13991.81893556542855 
	-968.2024280847981572 4435.62853907221961 13995.90934983943225 
	-968.2024280847981572 4435.640832660074011 13998.2468156734958 
	-968.2024280847981572 4435.642881746231069 13999.41556293456961 
	-968.2024280847981572 4435.642881721573758 13999.99993657414598 
	-884.869094751464786 4435.642881721572849 13999.99993657414598 
	-884.8690947514646723 4435.642881524314362 14004.67492569074784 
	-884.8690947514622849 4435.511736459638996 14014.02490508080155 
	-884.8690947514603522 4434.72510082721783 14032.71014762854793 
	-884.8690947514511436 4432.759717501902742 14056.01156213725153 
	-884.8690947514443224 4428.836933372415842 14083.79697699491953 
	-884.8690947514359095 4421.538052831381719 14120.49278699293973 
	-884.8690947514094205 4408.575873725064412 14165.48635033272876 
	-884.8690947513921401 4387.073469410908729 14217.39753008619664 
	-884.8690947513708807 4366.688953550009501 14254.28040515849898 
	-884.8690947513683795 4351.432170012525603 14277.82153228816605 
	-884.8690947513674701 4343.476809774399953 14289.37361338154369 
	-884.8690947513664469 4335.200482575412934 14300.69796163393221 
	-884.8690947513649689 4318.019384552161682 14322.87369685673912 
	-884.8690947513531455 4289.938961110191485 14354.2961532829213 
	-884.8690947513448464 4249.594070212070619 14390.34989017464432 
	-884.869094751337002 4203.987963095808482 14423.13893948586883 
	-884.869094751331204 4167.673320943443287 14443.50612694806114 
	-884.869094751331204 4137.541042268204365 14457.55623373157687 
	-884.8690947513285892 4103.067715228772613 14472.08968436635223 
	-884.8690947513264291 4059.265201405170046 14485.60037512202507 
	-884.8690947513252922 4010.233314049370165 14494.87632646737984 
	-884.8690947513246101 3982.340378493484877 14498.01952292458191 
	-884.8690947513241554 3963.679623176185487 14499.24251716613435 
	-884.8690947513240417 3951.2260668842423 14499.82515911469636 
	-884.8690947513230185 3929.409446086954631 14500.23323363290365 
	-884.8690947513196079 3898.242856670302444 14499.06711475367047 
	-884.8690947513169931 3861.052097175128893 14494.87669299272602 
	-884.8690947513138099 3824.278482047565831 14487.91876041696923 
	-884.8690947513114224 3788.127658740277184 14478.23217084041607 
	-884.8690947513089213 3752.801801176594836 14465.87111968605677 
	-884.8690947513075571 3718.498460691935179 14450.90472778612093 
	-884.8690947513052834 3685.409485136434341 14433.41668842114996 
	-884.8690947513039191 3653.719901638706233 14413.50481984273938 
	-884.8690947513035781 3628.625768145853272 14394.98454081174714 
	-884.8690947513026686 3609.422939600066911 14379.07425166820758 
	-884.8690947513025549 3595.476997017998201 14366.6114510603602 
	-884.8690947513019864 3582.006859695497042 14353.63585410627093 
	-884.8690947513016454 3564.706033169700277 14335.67569372912658 
	-884.8690947513005085 3544.36221590804098 14312.03578746114727 
	-884.8690947512990306 3522.137786885663445 14281.922863848622 
	-884.8690947512984621 3502.226044795685084 14250.23322847254531 
	-884.869094751297439 3482.794644394723491 14213.46780632993614 
	-884.8690947512963021 3465.016798108051717 14171.29380240286628 
	-884.8690947512955063 3450.300262251807453 14123.58331886294764 
	-884.869094751294142 3442.880401255013567 14086.8793564953703 
	-884.8690947512939147 3439.471795973278404 14062.17821225727675 
	-884.8690947512939147 3437.610517496566899 14045.65926904041953 
	-884.8690947512935736 3436.057290255428143 14024.93319021960633 
	-884.8690947512932325 3435.435536868302734 13999.99992342086625 
	-884.8690947512924367 3436.057206627810046 13975.06662944098935 
	-884.8690947512926641 3437.921354368826542 13950.19538378284597 
	-884.8690947512917546 3443.088997878357077 13908.9494515286915 
	-884.8690947512908451 3456.070195548521497 13852.0713335314922 
	-884.8690947512893672 3478.907746672227859 13793.88479766398086 
	-884.8690947512893672 3499.311492358498526 13755.28150712239949 
	-884.8690947512891398 3510.57300852802291 13736.59169815822679 
	-884.8690947512891398 3517.304432094537788 13726.09796069152981 
	-884.8690947512886851 3534.620041497613784 13700.18246506895593 
	-884.8690947512903904 3557.354422832935143 13671.67496818396103 
	-884.8690947512902767 3586.379733285526527 13641.91819900494374 
	-884.8690947512902767 3610.75675809310269 13619.29880149323435 
	-884.8690947512909588 3643.286775785749796 13593.35765635875032 
	-884.8690947512912999 3692.217557961898819 13561.75276994300657 
	-884.8690947512931189 3741.026182839784269 13538.2484819501442 
	-884.8690947512936873 3788.127950500914267 13521.76850951377128 
	-884.8690947512947105 3830.303608972619259 13510.4667105299086 
	-884.8690947512968705 3879.543032957355535 13502.10053016836719 
	-884.869094751299599 3935.642824580041179 13498.95006281976748 
	-884.8690947513023275 3991.742627642908246 13502.10050856259295 
	-884.8690947513055107 4040.982035770800849 13510.46672043079525 
	-884.8690947513077845 4083.157724834435612 13521.76843449754051 
	-884.8690947513080118 4130.25939840731462 13538.24866257309804 
	-884.8690947513142646 4175.313627454539528 13559.94462489865873 
	-884.8690947513172205 4212.284050497620228 13583.17665326525093 
	-884.8690947513198353 4232.6222722497223 13597.60713945805219 
	-884.869094751319949 4257.352816780455214 13616.58339955353586 
	-884.8690947513319998 4289.939180617570855 13645.70354481001959 
	-884.8690947513505307 4327.379760086982969 13687.60018459552521 
	-884.8690947513694027 4359.894360300942026 13733.4249969641096 
	-884.8690947513907759 4387.073534079296223 13782.60234529372065 
	-884.8690947514114669 4408.57596429109617 13834.51347232229273 
	-884.8690947514367053 4421.538080052901023 13879.50708286590634 
	-884.8690947514453455 4428.836957081707624 13916.20288908852672 
	-884.8690947514526215 4432.759729469877129 13943.9883096798676 
	-884.8690947514612617 4434.725106504587529 13967.28972520574462 
	-884.8690947514639902 4435.413408310808336 13983.63931322324788 
	-884.8690947514646723 4435.585511687309008 13991.81893556542855 
	-884.8690947514648997 4435.6285390722187 13995.90934983943225 
	-884.869094751464786 4435.640832660073102 13998.2468156734958 
	-884.869094751464786 4435.642881746230159 13999.41556293456961 
	-884.869094751464786 4435.642881721572849 13999.99993657414598 
	-801.5357614180833252 4435.642881721573758 13999.99993657414598 
	-801.5357614180829842 4435.642881524315271 14004.67492569074784 
	-801.5357614180812789 4435.511736459639906 14014.02490508080155 
	-801.5357614180798009 4434.725100827218739 14032.71014762854793 
	-801.5357614180732071 4432.759717501903651 14056.01156213725153 
	-801.5357614180679775 4428.836933372416752 14083.79697699491953 
	-801.5357614180620658 4421.538052831382629 14120.49278699293973 
	-801.5357614180420569 4408.575873725065321 14165.48635033272876 
	-801.535761418029665 4387.073469410909638 14217.39753008619664 
	-801.5357614180134078 4366.68895355001041 14254.28040515849898 
	-801.5357614180121573 4351.432170012526512 14277.82153228816605 
	-801.5357614180111341 4343.476809774400863 14289.37361338154369 
	-801.5357614180105656 4335.200482575413844 14300.69796163393221 
	-801.5357614180093151 4318.019384552162592 14322.87369685673912 
	-801.535761418001016 4289.938961110192395 14354.2961532829213 
	-801.5357614179947632 4249.594070212071529 14390.34989017464432 
	-801.5357614179890788 4203.987963095809391 14423.13893948586883 
	-801.5357614179849861 4167.673320943444196 14443.50612694806114 
	-801.535761417984645 4137.541042268205274 14457.55623373157687 
	-801.5357614179835082 4103.067715228773523 14472.08968436635223 
	-801.5357614179807797 4059.265201405170956 14485.60037512202507 
	-801.5357614179811208 4010.233314049371074 14494.87632646737984 
	-801.5357614179797565 3982.340378493485787 14498.01952292458191 
	-801.5357614179798702 3963.679623176186396 14499.24251716613435 
	-801.5357614179797565 3951.22606688424321 14499.82515911469636 
	-801.5357614179790744 3929.409446086955541 14500.23323363290365 
	-801.5357614179764596 3898.242856670303354 14499.06711475367047 
	-801.5357614179745269 3861.052097175129802 14494.87669299272602 
	-801.5357614179723669 3824.27848204756674 14487.91876041696923 
	-801.5357614179706616 3788.127658740278093 14478.23217084041607 
	-801.5357614179688426 3752.801801176595745 14465.87111968605677 
	-801.5357614179674783 3718.498460691936089 14450.90472778612093 
	-801.5357614179658867 3685.409485136435251 14433.41668842114996 
	-801.5357614179652046 3653.719901638707142 14413.50481984273938 
	-801.5357614179642951 3628.625768145854181 14394.98454081174714 
	-801.5357614179641814 3609.422939600067821 14379.07425166820758 
	-801.5357614179637267 3595.476997017999111 14366.6114510603602 
	-801.5357614179633856 3582.006859695497951 14353.63585410627093 
	-801.5357614179631582 3564.706033169701186 14335.67569372912658 
	-801.5357614179622487 3544.36221590804189 14312.03578746114727 
	-801.5357614179612256 3522.137786885664354 14281.922863848622 
	-801.5357614179608845 3502.226044795685993 14250.23322847254531 
	-801.5357614179600887 3482.794644394724401 14213.46780632993614 
	-801.5357614179592929 3465.016798108052626 14171.29380240286628 
	-801.5357614179589518 3450.300262251807908 14123.58331886294764 
	-801.5357614179575876 3442.880401255014476 14086.8793564953703 
	-801.5357614179577013 3439.471795973279313 14062.17821225727675 
	-801.5357614179575876 3437.610517496567809 14045.65926904041953 
	-801.5357614179573602 3436.057290255429052 14024.93319021960633 
	-801.5357614179570191 3435.435536868303643 13999.99992342086625 
	-801.5357614179567918 3436.057206627810956 13975.06662944098935 
	-801.5357614179566781 3437.921354368827451 13950.19538378284597 
	-801.5357614179562233 3443.088997878357986 13908.9494515286915 
	-801.5357614179552002 3456.070195548521951 13852.0713335314922 
	-801.5357614179542907 3478.907746672228768 13793.88479766398086 
	-801.535761417954177 3499.311492358498981 13755.28150712239949 
	-801.5357614179539496 3510.573008528023365 13736.59169815822679 
	-801.5357614179539496 3517.304432094537788 13726.09796069152981 
	-801.5357614179536085 3534.620041497614238 13700.18246506895593 
	-801.5357614179548591 3557.354422832934688 13671.67496818396103 
	-801.5357614179547454 3586.379733285526527 13641.91819900494374 
	-801.5357614179549728 3610.756758093102235 13619.29880149323435 
	-801.5357614179549728 3643.286775785749796 13593.35765635875032 
	-801.5357614179554275 3692.217557961898819 13561.75276994300657 
	-801.5357614179566781 3741.026182839784269 13538.2484819501442 
	-801.5357614179569055 3788.127950500913812 13521.76850951377128 
	-801.535761417957815 3830.303608972619259 13510.4667105299086 
	-801.5357614179592929 3879.543032957356445 13502.10053016836719 
	-801.5357614179611119 3935.642824580041633 13498.95006281976748 
	-801.5357614179634993 3991.742627642908246 13502.10050856259295 
	-801.5357614179653183 4040.982035770800394 13510.46672043079525 
	-801.535761417967251 4083.157724834435157 13521.76843449754051 
	-801.535761417967251 4130.259398407313711 13538.24866257309804 
	-801.5357614179720258 4175.313627454537709 13559.94462489865873 
	-801.5357614179740722 4212.284050497619319 13583.17665326525093 
	-801.5357614179758912 4232.622272249720481 13597.60713945805219 
	-801.5357614179763459 4257.352816780453395 13616.58339955353586 
	-801.5357614179849861 4289.939180617569946 13645.70354481001959 
	-801.5357614179989696 4327.37976008698115 13687.60018459552521 
	-801.5357614180124983 4359.894360300940207 13733.4249969641096 
	-801.5357614180286419 4387.073534079294404 13782.60234529372065 
	-801.5357614180438759 4408.575964291095261 13834.51347232229273 
	-801.5357614180626342 4421.538080052899204 13879.50708286590634 
	-801.535761418068887 4428.836957081706714 13916.20288908852672 
	-801.535761418074344 4432.75972946987531 13943.9883096798676 
	-801.5357614180807104 4434.72510650458662 13967.28972520574462 
	-801.5357614180826431 4435.413408310806517 13983.63931322324788 
	-801.5357614180834389 4435.585511687308099 13991.81893556542855 
	-801.5357614180832115 4435.628539072217791 13995.90934983943225 
	-801.5357614180833252 4435.640832660074011 13998.2468156734958 
	-801.5357614180834389 4435.642881746231069 13999.41556293456961 
	-801.5357614180833252 4435.642881721573758 13999.99993657414598 
	-718.202428084749954 4435.642881721573758 13999.99993657414598 
	-718.2024280847497266 4435.642881524315271 14004.67492569074784 
	-718.2024280847479076 4435.511736459639906 14014.02490508080155 
	-718.2024280847464297 4434.725100827218739 14032.71014762854793 
	-718.2024280847398359 4432.759717501903651 14056.01156213725153 
	-718.2024280847346063 4428.836933372416752 14083.79697699491953 
	-718.2024280847285809 4421.538052831382629 14120.49278699293973 
	-718.2024280847087994 4408.575873725065321 14165.48635033272876 
	-718.2024280846961801 4387.073469410909638 14217.39753008619664 
	-718.202428084680264 4366.68895355001041 14254.28040515849898 
	-718.2024280846786723 4351.432170012526512 14277.82153228816605 
	-718.2024280846778765 4343.476809774400863 14289.37361338154369 
	-718.2024280846771944 4335.200482575413844 14300.69796163393221 
	-718.2024280846760576 4318.019384552162592 14322.87369685673912 
	-718.202428084667531 4289.938961110192395 14354.2961532829213 
	-718.2024280846613919 4249.594070212071529 14390.34989017464432 
	-718.2024280846557076 4203.987963095809391 14423.13893948586883 
	-718.2024280846515012 4167.673320943444196 14443.50612694806114 
	-718.2024280846513875 4137.541042268205274 14457.55623373157687 
	-718.2024280846497959 4103.067715228773523 14472.08968436635223 
	-718.2024280846477495 4059.265201405170501 14485.60037512202507 
	-718.2024280846474085 4010.23331404937062 14494.87632646737984 
	-718.202428084646499 3982.340378493485332 14498.01952292458191 
	-718.202428084646499 3963.679623176185942 14499.24251716613435 
	-718.2024280846463853 3951.226066884242755 14499.82515911469636 
	-718.2024280846457032 3929.409446086955086 14500.23323363290365 
	-718.2024280846430884 3898.242856670302899 14499.06711475367047 
	-718.2024280846411557 3861.052097175129347 14494.87669299272602 
	-718.2024280846389956 3824.278482047566285 14487.91876041696923 
	-718.2024280846372903 3788.127658740277639 14478.23217084041607 
	-718.2024280846354714 3752.801801176595291 14465.87111968605677 
	-718.2024280846341071 3718.498460691935634 14450.90472778612093 
	-718.2024280846325155 3685.409485136434796 14433.41668842114996 
	-718.2024280846317197 3653.719901638706688 14413.50481984273938 
	-718.2024280846310376 3628.625768145853726 14394.98454081174714 
	-718.2024280846306965 3609.422939600067366 14379.07425166820758 
	-718.2024280846303554 3595.476997017998656 14366.6114510603602 
	-718.2024280846300144 3582.006859695497496 14353.63585410627093 
	-718.202428084629787 3564.706033169700731 14335.67569372912658 
	-718.2024280846288775 3544.362215908041435 14312.03578746114727 
	-718.2024280846278543 3522.1377868856639 14281.922863848622 
	-718.2024280846275133 3502.226044795685539 14250.23322847254531 
	-718.2024280846267175 3482.794644394723946 14213.46780632993614 
	-718.2024280846259217 3465.016798108052171 14171.29380240286628 
	-718.2024280846254669 3450.300262251807453 14123.58331886294764 
	-718.20242808462433 3442.880401255014021 14086.8793564953703 
	-718.20242808462433 3439.471795973278859 14062.17821225727675 
	-718.2024280846242164 3437.610517496567354 14045.65926904041953 
	-718.202428084623989 3436.057290255428597 14024.93319021960633 
	-718.2024280846236479 3435.435536868303188 13999.99992342086625 
	-718.2024280846233069 3436.057206627810501 13975.06662944098935 
	-718.2024280846234205 3437.921354368826997 13950.19538378284597 
	-718.2024280846227384 3443.088997878357532 13908.9494515286915 
	-718.2024280846219426 3456.070195548521497 13852.0713335314922 
	-718.2024280846208057 3478.907746672228313 13793.88479766398086 
	-718.2024280846208057 3499.311492358498526 13755.28150712239949 
	-718.2024280846205784 3510.57300852802291 13736.59169815822679 
	-718.2024280846205784 3517.304432094537333 13726.09796069152981 
	-718.2024280846202373 3534.620041497613784 13700.18246506895593 
	-718.2024280846214879 3557.354422832934233 13671.67496818396103 
	-718.2024280846213742 3586.379733285526072 13641.91819900494374 
	-718.2024280846214879 3610.75675809310178 13619.29880149323435 
	-718.2024280846217152 3643.286775785749342 13593.35765635875032 
	-718.2024280846220563 3692.217557961898365 13561.75276994300657 
	-718.2024280846233069 3741.026182839783814 13538.2484819501442 
	-718.2024280846236479 3788.127950500913357 13521.76850951377128 
	-718.2024280846244437 3830.303608972618804 13510.4667105299086 
	-718.2024280846259217 3879.54303295735599 13502.10053016836719 
	-718.2024280846277406 3935.642824580041179 13498.95006281976748 
	-718.2024280846300144 3991.742627642907792 13502.10050856259295 
	-718.2024280846320607 4040.982035770799939 13510.46672043079525 
	-718.202428084633766 4083.157724834434703 13521.76843449754051 
	-718.2024280846339934 4130.259398407313711 13538.24866257309804 
	-718.2024280846386546 4175.313627454537709 13559.94462489865873 
	-718.2024280846407009 4212.284050497619319 13583.17665326525093 
	-718.2024280846426336 4232.622272249720481 13597.60713945805219 
	-718.202428084642861 4257.352816780453395 13616.58339955353586 
	-718.2024280846517286 4289.939180617569946 13645.70354481001959 
	-718.2024280846654847 4327.37976008698115 13687.60018459552521 
	-718.2024280846792408 4359.894360300940207 13733.4249969641096 
	-718.2024280846952706 4387.073534079294404 13782.60234529372065 
	-718.2024280847105047 4408.575964291095261 13834.51347232229273 
	-718.202428084729263 4421.538080052899204 13879.50708286590634 
	-718.2024280847356295 4428.836957081706714 13916.20288908852672 
	-718.2024280847409727 4432.75972946987531 13943.9883096798676 
	-718.2024280847474529 4434.72510650458662 13967.28972520574462 
	-718.2024280847492719 4435.413408310806517 13983.63931322324788 
	-718.202428084749954 4435.585511687308099 13991.81893556542855 
	-718.2024280847498403 4435.628539072217791 13995.90934983943225 
	-718.202428084749954 4435.640832660074011 13998.2468156734958 
	-718.2024280847500677 4435.642881746231069 13999.41556293456961 
	-718.202428084749954 4435.642881721573758 13999.99993657414598 
	0 
	
	0 
	0 
	89 0 0.004464285714285714038 0.008928571428571428076 0.01785714285714285615 0.02678571428571428423 0.0357142857142857123 0.05357142857142856845 0.07142857142857142461 0.08928571428571427382 0.09374999999999998612 0.09821428571428569843 0.1026785714285714246 0.1071428571428571369 0.125 0.1428571428571428492 0.1587301587301587213 0.1785714285714285476 0.1825396825396825295 0.1904761904761904656 0.2142857142857142738 0.226190476190476164 0.238095238095238082 0.2410714285714285476 0.2440476190476190133 0.2499999999999999722 0.2619047619047618625 0.2738095238095237804 0.2857142857142856984 0.2976190476190476164 0.3095238095238095344 0.3214285714285713969 0.3333333333333333148 0.3452380952380952328 0.3571428571428570953 0.3630952380952380265 0.3690476190476190133 0.375 0.3809523809523809312 0.3928571428571428492 0.4047619047619047672 0.4166666666666666297 0.4285714285714285476 0.4444444444444444198 0.4603174603174602919 0.476190476190476164 0.4801587301587301182 0.4841269841269840724 0.4920634920634920362 0.5 0.5079365079365079083 0.5158730158730158166 0.5238095238095237249 0.5476190476190475609 0.5714285714285713969 0.5833333333333332593 0.5892857142857141906 0.5922619047619046562 0.5952380952380951218 0.6190476190476189577 0.6269841269841269771 0.6349206349206348854 0.650793650793650702 0.6666666666666666297 0.6904761904761904656 0.7023809523809523281 0.7142857142857141906 0.7321428571428569843 0.749999999999999889 0.7678571428571427937 0.7857142857142855874 0.7976190476190474499 0.8095238095238094234 0.8333333333333332593 0.8452380952380951218 0.851190476190476053 0.8571428571428570953 0.875 0.8928571428571427937 0.9107142857142856984 0.9285714285714286031 0.9464285714285713969 0.9642857142857143016 0.9732142857142858094 0.9821428571428572063 0.9910714285714286031 0.9955357142857143016 0.9977678571428572063 0.9988839285714286031 0.9994419642857143016 
	0 
	0 
	0 
	F 1 F 0 F 1 F 0 } I I I I #
tcoedge-coedge $-1 -1 $-1 $14 $14 $18 $19 reversed $9 $20 -6.283185307179586232 -0 #
tcoedge-coedge $-1 -1 $-1 $21 $22 $11 $16 reversed $12 $23 -6.283185307179586232 -0 #
tedge-edge $-1 -1 $-1 $24 0 $24 6.283185307179586232 $15 $25 forward @7 unknown 0.0007429210435722389269 #
pcurve $-1 -1 $-1 0 forward { exppc nurbs 2 periodic 5 
	0 2 1.570796326794896558 2 3.141592653589793116 2 4.712388980384689674 2 6.283185307179586232 2 
	0 500 1 
	-500 500 0.707106781186543798 
	-500 0 1 
	-500 -500 0.7071067811865463515 
	0 -500 1 
	500 -500 0.7071067811865463515 
	500 0 1 
	500 500 0.707106781186543798 
	0 500 1 
	0 
	plane -718.202428084613075 3935.642797989820792 14000.00000000000182 1 -3.637978807091713027e-15 0 0 0 -1 forward_v I I I I 
	} 0 0 #
tcoedge-coedge $-1 -1 $-1 $22 $21 $14 $19 forward $12 $26 0 6.283185307179586232 #
tedge-edge $-1 -1 $-1 $27 0 $27 6.283185307179586232 $18 $28 forward @7 unknown 0.0007429210432739984365 #
pcurve $-1 -1 $-1 0 forward { exppc nurbs 2 periodic 5 
	-6.283185307179586232 2 -4.712388980384689674 2 -3.141592653589793116 2 -1.570796326794896558 2 0 2 
	0 500 1 
	500 500 0.707106781186543798 
	500 0 1 
	500 -500 0.7071067811865463515 
	0 -500 1 
	-500 -500 0.7071067811865463515 
	-500 0 1 
	-500 500 0.707106781186543798 
	0 500 1 
	0 
	plane -968.202428084613075 3935.642797989821702 14000.00000000000182 -1 3.637978807091713027e-15 -0 0 0 -1 reverse_v I I I I 
	} 0 0 #
coedge $-1 -1 $-1 $18 $15 $22 $29 reversed $12 $30 #
coedge $-1 -1 $-1 $15 $18 $21 $29 forward $12 $31 #
pcurve $-1 -1 $-1 0 forward { exppc nubs 1 periodic 2 
	-6.283185307179586232 1 -0 1 
	1 1 
	0 1 
	4.411402399551011005e-13 
	spline forward { ref 0 } I I I I 
	} 0 0 #
tvertex-vertex $-1 -1 $-1 $16 $32 0.0001050421236689917561 #
ellipse-curve $-1 -1 $-1 -718.202428084613075 3935.642797989820792 14000.00000000000182 1 -3.637978807091713027e-15 0 1.818989403545856476e-12 500 0 1 I I #
pcurve $-1 -1 $-1 0 forward { exppc nubs 1 periodic 2 
	0 1 6.283185307179586232 1 
	0 0 
	1 0 
	4.411402399551011509e-13 
	spline forward { ref 0 } I I I I 
	} 0 0 #
tvertex-vertex $-1 -1 $-1 $19 $33 0.000105042122944084995 #
ellipse-curve $-1 -1 $-1 -968.202428084613075 3935.642797989821702 14000.00000000000182 1 -3.637978807091713027e-15 0 1.818989403545856476e-12 500 0 1 I I #
edge $-1 -1 $-1 $27 0 $24 1 $22 $34 forward @7 tangent #
pcurve $-1 -1 $-1 -1 $34 0 0 #
pcurve $-1 -1 $-1 1 $34 1 0 #
point $-1 -1 $-1 -718.2024280846112561 4435.642797989820792 14000.00000000000182 #
point $-1 -1 $-1 -968.2024280846112561 4435.642797989821702 14000.00000000000182 #
intcurve-curve $-1 -1 $-1 forward { parcur full nubs 3 open 2 
	0 3 1 3 
	-968.2024280847981572 4435.642881721573758 13999.99993657414598 
	-884.869094751464786 4435.642881721572849 13999.99993657414598 
	-801.5357614180833252 4435.642881721573758 13999.99993657414598 
	-718.202428084749954 4435.642881721573758 13999.99993657414598 
	0 
	
	spline forward { ref 0 } I I I I 
	null_surface 
	nubs 1 open 2 
	0 1 1 1 
	0 0 
	0 1 
	
	nullbs 
	I I 
	0 
	0 
	0 
	surf1 } F 0 F 1 #
End-of-ACIS-data 