700 0 1 0           
4 LibG 20 ASM 224.0.1.65535 NT 24 Wed Jul 17 14:48:15 2019 
1000 9.999999999999999547e-07 1.000000000000000036e-10 
body $-1 -1 $-1 $1 $-1 $2 #
lump $-1 -1 $-1 $-1 $3 $0 #
transform $-1 -1 1 0 0 0 1 0 0 0 1 0 0 0 1 no_rotate no_reflect no_shear #
shell $-1 -1 $-1 $-1 $-1 $4 $-1 $1 #
face $-1 -1 $-1 $5 $6 $3 $-1 $7 forward single #
face $-1 -1 $-1 $8 $9 $3 $-1 $10 reversed single #
loop $-1 -1 $-1 $-1 $11 $4 #
plane-surface $-1 -1 $-1 16531.79757191538738 3935.642797989758037 14000.00000000000182 1 -3.637978807091713027e-15 0 0 0 -1 forward_v I I I I #
face $-1 -1 $-1 $-1 $12 $3 $-1 $13 forward single #
loop $-1 -1 $-1 $-1 $14 $5 #
plane-surface $-1 -1 $-1 16281.79757191538738 3935.642797989758947 14000.00000000000182 1 -3.637978807091713027e-15 0 0 0 -1 forward_v I I I I #
tcoedge-coedge $-1 -1 $-1 $11 $11 $15 $16 forward $6 $17 0 6.283185307179586232 #
loop $-1 -1 $-1 $-1 $18 $8 #
spline-surface $-1 -1 $-1 forward { exactsur full nubs 3 3 periodic open none none 84 2 
	0 3 0.001116071428571428509 1 0.002232142857142857019 1 0.004464285714285714038 1 0.008928571428571428076 1 
	0.01785714285714285615 1 0.02678571428571428423 1 0.0357142857142857123 1 0.05357142857142856845 1 0.07142857142857142461 1 
	0.08928571428571427382 1 0.1071428571428571369 1 0.125 1 0.1428571428571428492 1 0.1587301587301587213 1 
	0.1825396825396825295 1 0.1904761904761904656 1 0.2023809523809523836 1 0.2142857142857142738 1 0.238095238095238082 1 
	0.2619047619047618625 1 0.2857142857142856984 1 0.2976190476190476164 1 0.3095238095238095344 1 0.3214285714285713969 1 
	0.3333333333333333148 1 0.3392857142857143016 1 0.3452380952380952328 1 0.3571428571428570953 1 0.3630952380952380265 1 
	0.3690476190476190133 1 0.3809523809523809312 1 0.3928571428571428492 1 0.4047619047619047672 1 0.4166666666666666297 1 
	0.4285714285714285476 1 0.4444444444444444198 1 0.4603174603174602919 1 0.476190476190476164 1 0.4781746031746031411 1 
	0.4791666666666666297 1 0.4801587301587301182 1 0.4841269841269840724 1 0.4920634920634920362 1 0.5 1 
	0.5039682539682539542 1 0.5079365079365079083 1 0.5238095238095237249 1 0.5476190476190475609 1 0.5595238095238095344 1 
	0.5654761904761904656 1 0.5714285714285713969 1 0.5952380952380951218 1 0.6190476190476189577 1 0.6349206349206348854 1 
	0.650793650793650702 1 0.6666666666666666297 1 0.6904761904761904656 1 0.7142857142857141906 1 0.7321428571428569843 1 
	0.749999999999999889 1 0.7678571428571427937 1 0.7857142857142855874 1 0.8095238095238094234 1 0.8214285714285713969 1 
	0.8333333333333332593 1 0.8452380952380951218 1 0.8571428571428570953 1 0.875 1 0.8928571428571427937 1 
	0.9107142857142856984 1 0.9285714285714286031 1 0.9464285714285713969 1 0.9642857142857143016 1 0.9732142857142858094 1 
	0.9821428571428572063 1 0.9910714285714286031 1 0.9955357142857143016 1 0.9977678571428572063 1 0.9988839285714286031 1 
	0.9994419642857143016 1 0.9997209821428572063 1 0.9998604910714286031 1 1 3 
	0 3 1 3 
	16281.79757196904029 4435.64281152203057 14000.00005075182344 
	16281.79757196903302 4435.642811520538999 14001.16879800651623 
	16281.79757196899664 4435.634615618354474 14003.50629241441857 
	16281.79757196896207 4435.585441411789361 14008.18105136873965 
	16281.79757196877836 4435.413337512864928 14016.36067258348703 
	16281.79757196820538 4434.725034031545874 14032.71025688378722 
	16281.7975719663591 4432.759650341622546 14056.01165857925116 
	16281.79757196464925 4428.836871772447012 14083.79706668628569 
	16281.79757196273931 4421.537984249973306 14120.49285282233177 
	16281.79757195657112 4408.57584501416386 14165.48641917106215 
	16281.79757195155798 4387.073367312579649 14217.39745891820166 
	16281.79757194596277 4359.894195309765564 14266.57481311419724 
	16281.79757194136073 4327.379474067231968 14312.39940466730877 
	16281.79757193607475 4289.939024299348603 14354.29630045067279 
	16281.79757193467049 4249.59397883816564 14390.34957313451196 
	16281.79757193152363 4200.610233520804286 14425.56875981629491 
	16281.79757193074693 4156.693793204045505 14449.48396274899642 
	16281.79757193000842 4114.558372972562211 14467.24402458037002 
	16281.79757192950456 4083.157842999196419 14478.23174688526706 
	16281.79757192855504 4034.956829158873461 14491.14829378723516 
	16281.79757192745637 3973.147710298620495 14500.46606933429939 
	16281.79757192552097 3898.137883797218819 14500.46555008953328 
	16281.79757192404577 3836.328573820366728 14491.14873816008003 
	16281.79757192370198 3788.127685333867703 14478.23201648703434 
	16281.79757192294892 3752.801746647951859 14465.87146880426008 
	16281.79757192240322 3718.49843835943193 14450.90481888967952 
	16281.79757192180477 3690.924288871179215 14436.33151311250913 
	16281.79757192163561 3669.564642520987036 14423.46092887269879 
	16281.79757192149373 3648.701066296358476 14409.80087978293341 
	16281.79757192122634 3628.6257333859553 14394.98467818036261 
	16281.79757192105171 3609.422919817007369 14379.07436379347928 
	16281.79757192094075 3590.828301779233698 14362.4573245459178 
	16281.79757192052239 3568.774726698043196 14340.40380523328167 
	16281.79757192022953 3544.36219763375766 14312.03585327879591 
	16281.79757191978752 3522.137751712229601 14281.92292707860906 
	16281.79757191964018 3502.226015858556821 14250.23327716277345 
	16281.79757191928002 3482.794619848971251 14213.46783684693219 
	16281.79757191891258 3465.016766906395787 14171.29381017980995 
	16281.79757191875069 3450.300262704324723 14123.58331217206978 
	16281.79757191833414 3443.292571827361371 14088.9184362750475 
	16281.79757191829594 3440.472381288551333 14069.38170744708259 
	16281.79757191829594 3439.917128724891427 14065.26340407069074 
	16281.79757191829594 3439.122780326421889 14059.08087567203074 
	16281.79757191831959 3437.610508806164944 14045.65922847554248 
	16281.79757191837234 3436.0572808674724 14024.93314554322387 
	16281.79757191844692 3435.539133502156801 14004.15541479653257 
	16281.79757191845783 3435.746365410459475 13987.53321877095004 
	16281.79757191852332 3436.678751563881178 13962.61548110039439 
	16281.79757191867793 3441.234332515756705 13917.07469106007193 
	16281.7975719191345 3453.28908492589926 13864.25971814894729 
	16281.79757191930003 3467.711520163308251 13823.0464902071526 
	16281.79757191934732 3477.254716206897683 13800.00714686878564 
	16281.79757191943281 3492.851232868132229 13766.00725338525444 
	16281.79757192013676 3520.978848757592459 13717.28661326491601 
	16281.79757192079705 3562.551099664856793 13665.1588861637465 
	16281.79757192138823 3604.250896593151992 13624.48694922056711 
	16281.79757192156831 3643.286734035777044 13593.35726770021029 
	16281.79757192211764 3692.21778351383 13561.75299498849199 
	16281.79757192282341 3752.289593091705228 13532.82328716969096 
	16281.79757192432044 3817.993887663390979 13512.55745055537409 
	16281.79757192536636 3879.543241400880106 13502.1006366229085 
	16281.79757192645957 3935.643091459535299 13498.94953504946898 
	16281.79757192763464 3991.74273165540535 13502.10071517415599 
	16281.79757192914622 4053.292502516205786 13512.55667855169304 
	16281.79757193087789 4107.049675311471219 13529.1395274796123 
	16281.79757193130717 4152.787051334235912 13549.0958809079948 
	16281.79757193221121 4185.876205918172673 13566.58339023042754 
	16281.79757193315163 4217.565624757694422 13586.4955468976932 
	16281.79757193429577 4252.697639369844183 13612.42359706704337 
	16281.79757193655314 4289.938958148262827 13645.70411491206141 
	16281.79757193956175 4327.379722287922959 13687.60048072461723 
	16281.79757194157537 4359.894252052381489 13733.42535258876524 
	16281.79757194890408 4387.073367953535126 13782.6026612028727 
	16281.79757195463208 4408.575867499079322 13834.51370216931355 
	16281.79757196191895 4421.537987555544532 13879.50725403347315 
	16281.7975719640981 4428.836876336927162 13916.20303892589982 
	16281.79757196606079 4432.759652165817897 13943.98844469993128 
	16281.79757196814353 4434.725034796101681 13967.28984508297617 
	16281.79757196879291 4435.413337674447575 13983.63942891877559 
	16281.79757196898572 4435.585441478037865 13991.81905009210823 
	16281.79757196903302 4435.628468861757938 13995.90946411203731 
	16281.79757196904575 4435.639225856346457 13997.95474664685935 
	16281.79757196904757 4435.64191510398814 13998.97739734803326 
	16281.79757196904393 4435.642683461665911 13999.56177052972816 
	16281.79757196904211 4435.642811522217016 13999.85395734498707 
	16281.79757196904029 4435.64281152203057 14000.00005075182344 
	16365.13090530237423 4435.64281152202966 14000.00005075182344 
	16365.13090530236695 4435.642811520538089 14001.16879800651623 
	16365.13090530233058 4435.634615618353564 14003.50629241441857 
	16365.13090530229601 4435.585441411788452 14008.18105136873965 
	16365.1309053021123 4435.413337512864018 14016.36067258348703 
	16365.13090530153931 4434.725034031544965 14032.71025688378722 
	16365.13090529969304 4432.759650341621636 14056.01165857925116 
	16365.13090529798319 4428.836871772446102 14083.79706668628569 
	16365.13090529607325 4421.537984249972396 14120.49285282233177 
	16365.13090528990506 4408.575845014162951 14165.48641917106215 
	16365.13090528489192 4387.073367312578739 14217.39745891820166 
	16365.13090527929671 4359.894195309764655 14266.57481311419724 
	16365.13090527469467 4327.379474067231058 14312.39940466730877 
	16365.13090526940869 4289.939024299347693 14354.29630045067279 
	16365.13090526800443 4249.59397883816473 14390.34957313451196 
	16365.13090526485757 4200.610233520803376 14425.56875981629491 
	16365.13090526408087 4156.693793204044596 14449.48396274899642 
	16365.13090526334236 4114.558372972561301 14467.24402458037002 
	16365.1309052628385 4083.157842999195964 14478.23174688526706 
	16365.13090526188898 4034.956829158873006 14491.14829378723516 
	16365.13090526079031 3973.147710298620041 14500.46606933429939 
	16365.13090525885491 3898.137883797218365 14500.46555008953328 
	16365.13090525737971 3836.328573820366273 14491.14873816008003 
	16365.13090525703592 3788.127685333867248 14478.23201648703434 
	16365.13090525628286 3752.801746647951404 14465.87146880426008 
	16365.13090525573716 3718.498438359431475 14450.90481888967952 
	16365.13090525513871 3690.92428887117876 14436.33151311250913 
	16365.13090525496955 3669.564642520986581 14423.46092887269879 
	16365.13090525482767 3648.701066296358022 14409.80087978293341 
	16365.13090525456028 3628.625733385954845 14394.98467818036261 
	16365.13090525438565 3609.422919817006914 14379.07436379347928 
	16365.13090525427469 3590.828301779233243 14362.4573245459178 
	16365.13090525385633 3568.774726698042741 14340.40380523328167 
	16365.13090525356347 3544.362197633757205 14312.03585327879591 
	16365.13090525312145 3522.137751712229147 14281.92292707860906 
	16365.13090525297412 3502.226015858556366 14250.23327716277345 
	16365.13090525261396 3482.794619848970797 14213.46783684693219 
	16365.13090525224652 3465.016766906395333 14171.29381017980995 
	16365.13090525208463 3450.300262704324268 14123.58331217206978 
	16365.13090525166808 3443.292571827360916 14088.9184362750475 
	16365.13090525162988 3440.472381288550878 14069.38170744708259 
	16365.13090525162988 3439.917128724890972 14065.26340407069074 
	16365.13090525162988 3439.122780326421434 14059.08087567203074 
	16365.13090525165353 3437.610508806164489 14045.65922847554248 
	16365.13090525170628 3436.057280867471945 14024.93314554322387 
	16365.13090525178086 3435.539133502156346 14004.15541479653257 
	16365.13090525179177 3435.74636541045902 13987.53321877095004 
	16365.13090525185726 3436.678751563880724 13962.61548110039439 
	16365.13090525201187 3441.23433251575625 13917.07469106007193 
	16365.13090525246844 3453.289084925898806 13864.25971814894729 
	16365.13090525263397 3467.711520163307796 13823.0464902071526 
	16365.13090525268126 3477.254716206897228 13800.00714686878564 
	16365.13090525276675 3492.851232868131774 13766.00725338525444 
	16365.1309052534707 3520.978848757592004 13717.28661326491601 
	16365.13090525413099 3562.551099664856338 13665.1588861637465 
	16365.13090525472217 3604.250896593151538 13624.48694922056711 
	16365.13090525490225 3643.28673403577659 13593.35726770021029 
	16365.13090525545158 3692.217783513829545 13561.75299498849199 
	16365.13090525615735 3752.289593091704774 13532.82328716969096 
	16365.13090525765438 3817.993887663390524 13512.55745055537409 
	16365.1309052587003 3879.543241400879651 13502.1006366229085 
	16365.13090525979351 3935.643091459534844 13498.94953504946898 
	16365.13090526096858 3991.742731655404896 13502.10071517415599 
	16365.13090526248016 4053.292502516205332 13512.55667855169304 
	16365.13090526421183 4107.04967531147031 13529.1395274796123 
	16365.13090526464111 4152.787051334235002 13549.0958809079948 
	16365.13090526554515 4185.876205918171763 13566.58339023042754 
	16365.13090526648557 4217.565624757693513 13586.4955468976932 
	16365.13090526762971 4252.697639369843273 13612.42359706704337 
	16365.13090526988708 4289.938958148261918 13645.70411491206141 
	16365.13090527289569 4327.37972228792205 13687.60048072461723 
	16365.13090527490931 4359.89425205238058 13733.42535258876524 
	16365.13090528223802 4387.073367953534216 13782.6026612028727 
	16365.13090528796602 4408.575867499078413 13834.51370216931355 
	16365.13090529525289 4421.537987555543623 13879.50725403347315 
	16365.13090529743204 4428.836876336926252 13916.20303892589982 
	16365.13090529939473 4432.759652165816988 13943.98844469993128 
	16365.13090530147747 4434.725034796100772 13967.28984508297617 
	16365.13090530212685 4435.413337674446666 13983.63942891877559 
	16365.13090530231966 4435.585441478036955 13991.81905009210823 
	16365.13090530236695 4435.628468861757028 13995.90946411203731 
	16365.13090530237969 4435.639225856345547 13997.95474664685935 
	16365.13090530238151 4435.64191510398723 13998.97739734803326 
	16365.13090530237787 4435.642683461665001 13999.56177052972816 
	16365.13090530237605 4435.642811522216107 13999.85395734498707 
	16365.13090530237423 4435.64281152202966 14000.00005075182344 
	16448.46423863652672 4435.64281152203057 14000.00005075182344 
	16448.46423863651944 4435.642811520538999 14001.16879800651623 
	16448.46423863648306 4435.634615618354474 14003.50629241441857 
	16448.46423863645032 4435.585441411789361 14008.18105136873965 
	16448.46423863626478 4435.413337512864928 14016.36067258348703 
	16448.4642386356827 4434.725034031545874 14032.71025688378722 
	16448.46423863380551 4432.759650341622546 14056.01165857925116 
	16448.46423863207019 4428.836871772447012 14083.79706668628569 
	16448.46423863013479 4421.537984249973306 14120.49285282233177 
	16448.46423862387019 4408.57584501416386 14165.48641917106215 
	16448.46423861878066 4387.073367312579649 14217.39745891820166 
	16448.46423861310177 4359.894195309765564 14266.57481311419724 
	16448.46423860843061 4327.379474067231968 14312.39940466730877 
	16448.46423860306459 4289.939024299348603 14354.29630045067279 
	16448.4642386016385 4249.59397883816564 14390.34957313451196 
	16448.46423859844072 4200.610233520804286 14425.56875981629491 
	16448.46423859765491 4156.693793204045505 14449.48396274899642 
	16448.46423859690185 4114.558372972562211 14467.24402458037002 
	16448.4642385963889 4083.157842999196873 14478.23174688526706 
	16448.46423859542119 4034.956829158873916 14491.14829378723516 
	16448.46423859430433 3973.14771029862095 14500.46606933429939 
	16448.46423859233983 3898.137883797219274 14500.46555008953328 
	16448.46423859084462 3836.328573820367183 14491.14873816008003 
	16448.46423859049537 3788.127685333868158 14478.23201648703434 
	16448.46423858973139 3752.801746647952314 14465.87146880426008 
	16448.46423858917842 3718.49843835943193 14450.90481888967952 
	16448.46423858857452 3690.92428887117967 14436.33151311250913 
	16448.46423858839989 3669.564642520986581 14423.46092887269879 
	16448.46423858825801 3648.701066296358022 14409.80087978293341 
	16448.46423858798516 3628.625733385954845 14394.98467818036261 
	16448.4642385878069 3609.422919817006459 14379.07436379347928 
	16448.46423858769413 3590.828301779232788 14362.4573245459178 
	16448.46423858727212 3568.774726698042741 14340.40380523328167 
	16448.46423858697381 3544.362197633757205 14312.03585327879591 
	16448.46423858652633 3522.137751712229601 14281.92292707860906 
	16448.46423858637354 3502.226015858556821 14250.23327716277345 
	16448.4642385860061 3482.794619848971706 14213.46783684693219 
	16448.46423858563139 3465.016766906396242 14171.29381017980995 
	16448.46423858546768 3450.300262704325178 14123.58331217206978 
	16448.46423858504204 3443.292571827361826 14088.9184362750475 
	16448.46423858500566 3440.472381288551787 14069.38170744708259 
	16448.46423858500566 3439.917128724891882 14065.26340407069074 
	16448.46423858500566 3439.122780326422344 14059.08087567203074 
	16448.46423858503113 3437.610508806165399 14045.65922847554248 
	16448.4642385850857 3436.057280867472855 14024.93314554322387 
	16448.46423858516209 3435.539133502157256 14004.15541479653257 
	16448.46423858517301 3435.74636541045993 13987.53321877095004 
	16448.46423858523849 3436.678751563881633 13962.61548110039439 
	16448.46423858539492 3441.23433251575716 13917.07469106007193 
	16448.46423858585695 3453.289084925899715 13864.25971814894729 
	16448.46423858602429 3467.711520163308705 13823.0464902071526 
	16448.46423858607159 3477.254716206898138 13800.00714686878564 
	16448.4642385861589 3492.851232868132684 13766.00725338525444 
	16448.46423858687558 3520.978848757592914 13717.28661326491601 
	16448.46423858754861 3562.551099664857247 13665.1588861637465 
	16448.46423858814887 3604.250896593152447 13624.48694922056711 
	16448.46423858833441 3643.286734035777499 13593.35726770021029 
	16448.46423858888738 3692.217783513830454 13561.75299498849199 
	16448.46423858960407 3752.289593091705683 13532.82328716969096 
	16448.4642385911211 3817.993887663391433 13512.55745055537409 
	16448.46423859218703 3879.543241400880561 13502.1006366229085 
	16448.46423859329661 3935.643091459535754 13498.94953504946898 
	16448.46423859448987 3991.742731655405805 13502.10071517415599 
	16448.4642385960251 4053.292502516206241 13512.55667855169304 
	16448.46423859778588 4107.049675311471219 13529.1395274796123 
	16448.4642385982188 4152.787051334235912 13549.0958809079948 
	16448.46423859913557 4185.876205918172673 13566.58339023042754 
	16448.46423860008872 4217.565624757694422 13586.4955468976932 
	16448.46423860124924 4252.697639369844183 13612.42359706704337 
	16448.4642386035448 4289.938958148262827 13645.70411491206141 
	16448.46423860659706 4327.379722287922959 13687.60048072461723 
	16448.46423860864525 4359.894252052381489 13733.42535258876524 
	16448.46423861608491 4387.073367953535126 13782.6026612028727 
	16448.46423862190204 4408.575867499079322 13834.51370216931355 
	16448.46423862930169 4421.537987555544532 13879.50725403347315 
	16448.46423863151358 4428.836876336927162 13916.20303892589982 
	16448.46423863350719 4432.759652165817897 13943.98844469993128 
	16448.46423863562086 4434.725034796101681 13967.28984508297617 
	16448.4642386362757 4435.413337674447575 13983.63942891877559 
	16448.46423863647578 4435.585441478037865 13991.81905009210823 
	16448.4642386365158 4435.628468861757938 13995.90946411203731 
	16448.46423863653399 4435.639225856346457 13997.95474664685935 
	16448.46423863653399 4435.64191510398814 13998.97739734803326 
	16448.46423863652672 4435.642683461665911 13999.56177052972816 
	16448.46423863652672 4435.642811522217016 13999.85395734498707 
	16448.46423863652672 4435.64281152203057 14000.00005075182344 
	16531.79757196985884 4435.64281152203057 14000.00005075182344 
	16531.79757196985156 4435.642811520538999 14001.16879800651623 
	16531.79757196981518 4435.634615618354474 14003.50629241441857 
	16531.79757196978244 4435.585441411789361 14008.18105136873965 
	16531.7975719695969 4435.413337512864928 14016.36067258348703 
	16531.79757196901483 4434.725034031545874 14032.71025688378722 
	16531.79757196713763 4432.759650341622546 14056.01165857925116 
	16531.79757196540231 4428.836871772447012 14083.79706668628569 
	16531.79757196346691 4421.537984249973306 14120.49285282233177 
	16531.79757195720231 4408.57584501416386 14165.48641917106215 
	16531.79757195211278 4387.073367312579649 14217.39745891820166 
	16531.79757194643389 4359.894195309765564 14266.57481311419724 
	16531.79757194176273 4327.379474067231968 14312.39940466730877 
	16531.79757193639671 4289.939024299348603 14354.29630045067279 
	16531.79757193497062 4249.59397883816564 14390.34957313451196 
	16531.79757193177284 4200.610233520804286 14425.56875981629491 
	16531.79757193098703 4156.693793204045505 14449.48396274899642 
	16531.79757193023397 4114.558372972562211 14467.24402458037002 
	16531.79757192972102 4083.157842999196419 14478.23174688526706 
	16531.79757192875331 4034.956829158873461 14491.14829378723516 
	16531.79757192763645 3973.147710298620495 14500.46606933429939 
	16531.79757192567195 3898.137883797218819 14500.46555008953328 
	16531.79757192417674 3836.328573820366728 14491.14873816008003 
	16531.79757192382749 3788.127685333867703 14478.23201648703434 
	16531.79757192306351 3752.801746647951859 14465.87146880426008 
	16531.79757192251054 3718.498438359431475 14450.90481888967952 
	16531.79757192190664 3690.924288871179215 14436.33151311250913 
	16531.79757192173201 3669.564642520986126 14423.46092887269879 
	16531.79757192159013 3648.701066296357567 14409.80087978293341 
	16531.79757192131729 3628.625733385954391 14394.98467818036261 
	16531.79757192113902 3609.422919817006004 14379.07436379347928 
	16531.79757192102625 3590.828301779232334 14362.4573245459178 
	16531.79757192060424 3568.774726698042286 14340.40380523328167 
	16531.79757192030593 3544.36219763375675 14312.03585327879591 
	16531.79757191985846 3522.137751712229147 14281.92292707860906 
	16531.79757191970566 3502.226015858556366 14250.23327716277345 
	16531.79757191933822 3482.794619848971251 14213.46783684693219 
	16531.79757191896351 3465.016766906395787 14171.29381017980995 
	16531.7975719187998 3450.300262704324723 14123.58331217206978 
	16531.79757191837416 3443.292571827361371 14088.9184362750475 
	16531.79757191833778 3440.472381288551333 14069.38170744708259 
	16531.79757191833778 3439.917128724891427 14065.26340407069074 
	16531.79757191833778 3439.122780326421889 14059.08087567203074 
	16531.79757191836325 3437.610508806164944 14045.65922847554248 
	16531.79757191841782 3436.0572808674724 14024.93314554322387 
	16531.79757191849421 3435.539133502156801 14004.15541479653257 
	16531.79757191850513 3435.746365410459475 13987.53321877095004 
	16531.79757191857061 3436.678751563881178 13962.61548110039439 
	16531.79757191872704 3441.234332515756705 13917.07469106007193 
	16531.79757191918907 3453.28908492589926 13864.25971814894729 
	16531.79757191935641 3467.711520163308251 13823.0464902071526 
	16531.79757191940371 3477.254716206897683 13800.00714686878564 
	16531.79757191949102 3492.851232868132229 13766.00725338525444 
	16531.7975719202077 3520.978848757592459 13717.28661326491601 
	16531.79757192088073 3562.551099664856793 13665.1588861637465 
	16531.79757192148099 3604.250896593151992 13624.48694922056711 
	16531.79757192166653 3643.286734035777044 13593.35726770021029 
	16531.7975719222195 3692.21778351383 13561.75299498849199 
	16531.79757192293619 3752.289593091705228 13532.82328716969096 
	16531.79757192445322 3817.993887663390979 13512.55745055537409 
	16531.79757192551915 3879.543241400880106 13502.1006366229085 
	16531.79757192662873 3935.643091459535299 13498.94953504946898 
	16531.79757192782199 3991.74273165540535 13502.10071517415599 
	16531.79757192935722 4053.292502516205786 13512.55667855169304 
	16531.797571931118 4107.049675311471219 13529.1395274796123 
	16531.79757193155092 4152.787051334235912 13549.0958809079948 
	16531.79757193246769 4185.876205918172673 13566.58339023042754 
	16531.79757193342084 4217.565624757694422 13586.4955468976932 
	16531.79757193458136 4252.697639369844183 13612.42359706704337 
	16531.79757193687692 4289.938958148262827 13645.70411491206141 
	16531.79757193992918 4327.379722287922959 13687.60048072461723 
	16531.79757194197737 4359.894252052381489 13733.42535258876524 
	16531.79757194941703 4387.073367953535126 13782.6026612028727 
	16531.79757195523416 4408.575867499079322 13834.51370216931355 
	16531.79757196263381 4421.537987555544532 13879.50725403347315 
	16531.7975719648457 4428.836876336927162 13916.20303892589982 
	16531.79757196683931 4432.759652165817897 13943.98844469993128 
	16531.79757196895298 4434.725034796101681 13967.28984508297617 
	16531.79757196960782 4435.413337674447575 13983.63942891877559 
	16531.7975719698079 4435.585441478037865 13991.81905009210823 
	16531.79757196984792 4435.628468861757938 13995.90946411203731 
	16531.79757196986611 4435.639225856346457 13997.95474664685935 
	16531.79757196986611 4435.64191510398814 13998.97739734803326 
	16531.79757196985884 4435.642683461665911 13999.56177052972816 
	16531.79757196985884 4435.642811522217016 13999.85395734498707 
	16531.79757196985884 4435.64281152203057 14000.00005075182344 
	0 
	
	0 
	0 
	81 0 0.001116071428571428509 0.002232142857142857019 0.004464285714285714038 0.008928571428571428076 0.01785714285714285615 0.02678571428571428423 0.0357142857142857123 0.05357142857142856845 0.07142857142857142461 0.08928571428571427382 0.1071428571428571369 0.125 0.1428571428571428492 0.1587301587301587213 0.1825396825396825295 0.1904761904761904656 0.2023809523809523836 0.2142857142857142738 0.238095238095238082 0.2619047619047618625 0.2857142857142856984 0.2976190476190476164 0.3095238095238095344 0.3214285714285713969 0.3333333333333333148 0.3392857142857143016 0.3452380952380952328 0.3571428571428570953 0.3630952380952380265 0.3690476190476190133 0.3809523809523809312 0.3928571428571428492 0.4047619047619047672 0.4166666666666666297 0.4285714285714285476 0.4444444444444444198 0.4603174603174602919 0.476190476190476164 0.4781746031746031411 0.4791666666666666297 0.4801587301587301182 0.4841269841269840724 0.4920634920634920362 0.5 0.5039682539682539542 0.5079365079365079083 0.5238095238095237249 0.5476190476190475609 0.5595238095238095344 0.5654761904761904656 0.5714285714285713969 0.5952380952380951218 0.6190476190476189577 0.6349206349206348854 0.650793650793650702 0.6666666666666666297 0.6904761904761904656 0.7142857142857141906 0.7321428571428569843 0.749999999999999889 0.7678571428571427937 0.7857142857142855874 0.8095238095238094234 0.8214285714285713969 0.8333333333333332593 0.8452380952380951218 0.8571428571428570953 0.875 0.8928571428571427937 0.9107142857142856984 0.9285714285714286031 0.9464285714285713969 0.9642857142857143016 0.9732142857142858094 0.9821428571428572063 0.9910714285714286031 0.9955357142857143016 0.9977678571428572063 0.9994419642857143016 0.9998604910714286031 
	0 
	0 
	0 
	F 1 F 0 F 1 F 0 } I I I I #
tcoedge-coedge $-1 -1 $-1 $14 $14 $18 $19 reversed $9 $20 -6.283185307179586232 -0 #
tcoedge-coedge $-1 -1 $-1 $21 $22 $11 $16 reversed $12 $23 -6.283185307179586232 -0 #
tedge-edge $-1 -1 $-1 $24 0 $24 6.283185307179586232 $15 $25 forward @7 unknown 0.0008063173637129227066 #
pcurve $-1 -1 $-1 0 forward { exppc nurbs 2 periodic 5 
	0 2 1.570796326794896558 2 3.141592653589793116 2 4.712388980384689674 2 6.283185307179586232 2 
	0 500 1 
	-500 500 0.707106781186543798 
	-500 0 1 
	-500 -500 0.7071067811865463515 
	0 -500 1 
	500 -500 0.7071067811865463515 
	500 0 1 
	500 500 0.707106781186543798 
	0 500 1 
	0 
	plane 16531.79757191538738 3935.642797989758037 14000.00000000000182 1 -3.637978807091713027e-15 0 0 0 -1 forward_v I I I I 
	} 0 0 #
tcoedge-coedge $-1 -1 $-1 $22 $21 $14 $19 forward $12 $26 0 6.283185307179586232 #
tedge-edge $-1 -1 $-1 $27 0 $27 6.283185307179586232 $18 $28 forward @7 unknown 0.0008063173619746998597 #
pcurve $-1 -1 $-1 0 forward { exppc nurbs 2 periodic 5 
	-6.283185307179586232 2 -4.712388980384689674 2 -3.141592653589793116 2 -1.570796326794896558 2 0 2 
	0 500 1 
	500 500 0.707106781186543798 
	500 0 1 
	500 -500 0.7071067811865463515 
	0 -500 1 
	-500 -500 0.7071067811865463515 
	-500 0 1 
	-500 500 0.707106781186543798 
	0 500 1 
	0 
	plane 16281.79757191538738 3935.642797989758947 14000.00000000000182 -1 3.637978807091713027e-15 -0 0 0 -1 reverse_v I I I I 
	} 0 0 #
coedge $-1 -1 $-1 $18 $15 $22 $29 reversed $12 $30 #
coedge $-1 -1 $-1 $15 $18 $21 $29 forward $12 $31 #
pcurve $-1 -1 $-1 0 forward { exppc nubs 1 periodic 2 
	-6.283185307179586232 1 -0 1 
	1 1 
	0 1 
	4.4114023995510105e-13 
	spline forward { ref 0 } I I I I 
	} 0 0 #
tvertex-vertex $-1 -1 $-1 $16 $32 5.252498276731738927e-05 #
ellipse-curve $-1 -1 $-1 16531.79757191538738 3935.642797989758037 14000.00000000000182 1 -3.637978807091713027e-15 0 1.818989403545856476e-12 500 0 1 I I #
pcurve $-1 -1 $-1 0 forward { exppc nubs 1 periodic 2 
	0 1 6.283185307179586232 1 
	0 0 
	1 0 
	4.4114023995510105e-13 
	spline forward { ref 0 } I I I I 
	} 0 0 #
tvertex-vertex $-1 -1 $-1 $19 $33 5.252498169241333461e-05 #
ellipse-curve $-1 -1 $-1 16281.79757191538738 3935.642797989758947 14000.00000000000182 1 -3.637978807091713027e-15 0 1.818989403545856476e-12 500 0 1 I I #
edge $-1 -1 $-1 $27 0 $24 1 $22 $34 forward @7 tangent #
pcurve $-1 -1 $-1 -1 $34 0 0 #
pcurve $-1 -1 $-1 1 $34 1 0 #
point $-1 -1 $-1 16531.79757191539102 4435.642797989758037 14000.00000000000182 #
point $-1 -1 $-1 16281.7975719153892 4435.642797989758947 14000.00000000000182 #
intcurve-curve $-1 -1 $-1 forward { parcur full nubs 3 open 2 
	0 3 1 3 
	16281.79757196904029 4435.64281152203057 14000.00005075182344 
	16365.13090530237423 4435.64281152202966 14000.00005075182344 
	16448.46423863652672 4435.64281152203057 14000.00005075182344 
	16531.79757196985884 4435.64281152203057 14000.00005075182344 
	0 
	
	spline forward { ref 0 } I I I I 
	null_surface 
	nubs 1 open 2 
	0 1 1 1 
	0 0 
	0 1 
	
	nullbs 
	I I 
	0 
	0 
	0 
	surf1 } I I #
End-of-ACIS-data 