700 0 1 0           
4 LibG 20 ASM 224.0.1.65535 NT 24 Wed Jul 17 14:48:13 2019 
1000 9.999999999999999547e-07 1.000000000000000036e-10 
body $-1 -1 $-1 $1 $-1 $2 #
lump $-1 -1 $-1 $-1 $3 $0 #
transform $-1 -1 1 0 0 0 1 0 0 0 1 0 0 0 1 no_rotate no_reflect no_shear #
shell $-1 -1 $-1 $-1 $-1 $4 $-1 $1 #
face $-1 -1 $-1 $5 $6 $3 $-1 $7 forward single #
face $-1 -1 $-1 $8 $9 $3 $-1 $10 reversed single #
loop $-1 -1 $-1 $-1 $11 $4 #
plane-surface $-1 -1 $-1 2281.797571915386925 3935.642797989809878 14000.00000000000182 1 -3.637978807091713027e-15 0 0 0 -1 forward_v I I I I #
face $-1 -1 $-1 $-1 $12 $3 $-1 $13 forward single #
loop $-1 -1 $-1 $-1 $14 $5 #
plane-surface $-1 -1 $-1 2031.797571915386925 3935.642797989810788 14000.00000000000182 1 -3.637978807091713027e-15 0 0 0 -1 forward_v I I I I #
tcoedge-coedge $-1 -1 $-1 $11 $11 $15 $16 forward $6 $17 0 6.283185307179586232 #
loop $-1 -1 $-1 $-1 $18 $8 #
spline-surface $-1 -1 $-1 forward { exactsur full nubs 3 3 periodic open none none 80 2 
	0 3 0.002232142857142857019 1 0.004464285714285714038 1 0.008928571428571428076 1 0.01785714285714285615 1 
	0.0357142857142857123 1 0.05357142857142856845 1 0.0625 1 0.07142857142857142461 1 0.08928571428571427382 1 
	0.1071428571428571369 1 0.125 1 0.1428571428571428492 1 0.1587301587301587213 1 0.1746031746031745935 1 
	0.1904761904761904656 1 0.2023809523809523836 1 0.2142857142857142738 1 0.238095238095238082 1 0.2619047619047618625 1 
	0.2857142857142856984 1 0.2976190476190476164 1 0.3095238095238095344 1 0.3214285714285713969 1 0.3273809523809523281 1 
	0.3303571428571427937 1 0.3333333333333333148 1 0.3452380952380952328 1 0.3571428571428570953 1 0.3690476190476190133 1 
	0.375 1 0.3809523809523809312 1 0.3928571428571428492 1 0.4047619047619047672 1 0.4166666666666666297 1 
	0.4285714285714285476 1 0.4444444444444444198 1 0.4603174603174602919 1 0.476190476190476164 1 0.4841269841269840724 1 
	0.4920634920634920362 1 0.5 1 0.5079365079365079083 1 0.5158730158730158166 1 0.5238095238095237249 1 
	0.5476190476190475609 1 0.5714285714285713969 1 0.5952380952380951218 1 0.6190476190476189577 1 0.6269841269841269771 1 
	0.6349206349206348854 1 0.650793650793650702 1 0.6666666666666666297 1 0.6904761904761904656 1 0.7023809523809523281 1 
	0.7142857142857141906 1 0.7321428571428569843 1 0.7410714285714283811 1 0.749999999999999889 1 0.7678571428571427937 1 
	0.7857142857142855874 1 0.7976190476190474499 1 0.8095238095238094234 1 0.8333333333333332593 1 0.8452380952380951218 1 
	0.8571428571428570953 1 0.875 1 0.8928571428571427937 1 0.9107142857142856984 1 0.9285714285714286031 1 
	0.9464285714285713969 1 0.9642857142857143016 1 0.9821428571428572063 1 0.9910714285714286031 1 0.9955357142857143016 1 
	0.9977678571428572063 1 0.9988839285714286031 1 0.9994419642857143016 1 0.9997209821428572063 1 1 3 
	0 3 1 3 
	2031.797571910226452 4435.642878200043015 13999.99989280169939 
	2031.797571910229408 4435.642878159894281 14002.33738733128666 
	2031.797571910245551 4435.610091531973012 14007.01237599285378 
	2031.79757191026215 4435.413409766502809 14016.36051590386523 
	2031.797571910337183 4434.725059965016044 14032.71009864029293 
	2031.797571910583883 4431.973775056012528 14065.3320902116011 
	2031.797571911289197 4424.130857917777575 14111.49408065746684 
	2031.797571911919704 4411.168120085653754 14156.48751768440343 
	2031.797571912122976 4397.824856901528619 14191.44193565094065 
	2031.797571912287822 4382.543460117161885 14225.59355522548503 
	2031.797571912845115 4359.894250177332651 14266.57470630253374 
	2031.797571913240745 4327.379541726331809 14312.39945048844675 
	2031.797571913809179 4289.938909438203154 14354.2959817567662 
	2031.797571913863067 4249.59418924415786 14390.34990905792074 
	2031.797571914295077 4207.366009813791607 14420.70970717746422 
	2031.797571914322816 4164.126569777999066 14445.67389359166918 
	2031.79757191440558 4122.408902165627296 14464.49778277209407 
	2031.79757191446447 4083.157777865978005 14478.23158286636863 
	2031.797571914540185 4034.956986844770199 14491.14854373399612 
	2031.797571914625223 3973.147718319830801 14500.46604704584752 
	2031.797571914770515 3898.137961413186986 14500.46565078256754 
	2031.797571914875107 3836.328610306827159 14491.14878528835834 
	2031.797571914900118 3788.127735458803272 14478.23205908640375 
	2031.79757191494673 3752.801773223035525 14465.87155156420522 
	2031.797571914984701 3724.21571827862499 14453.39924449226964 
	2031.797571914996524 3704.736674370392393 14443.56575268506458 
	2031.797571914999253 3693.769198726401555 14437.63741253716034 
	2031.797571915002891 3677.487115034362887 14428.43889311190469 
	2031.797571915036769 3653.719925724433324 14413.50497769698268 
	2031.797571915041999 3623.606939769071687 14391.28066539557767 
	2031.797571915074741 3599.967037284909566 14370.93680021731961 
	2031.797571915078834 3582.006880982949497 14353.63597451200985 
	2031.797571915086337 3564.706044494578236 14335.6758191156041 
	2031.797571915102935 3544.362232892587599 14312.0358962233804 
	2031.797571915121807 3522.137798488808585 14281.9229635945685 
	2031.797571915128628 3502.22605951643709 14250.23332171716538 
	2031.797571915142498 3482.794651509942469 14213.46789070192426 
	2031.797571915154094 3465.016822618039441 14171.29387206591673 
	2031.797571915160006 3450.300244554462097 14123.58339222543873 
	2031.797571915168419 3442.056033913513147 14082.801181662413 
	2031.797571915170238 3437.921248788431512 14049.80452006990163 
	2031.79757191517092 3436.0572964355556 14024.9332390568652 
	2031.797571915171602 3435.435580566202134 13999.9999647959994 
	2031.79757191517001 3436.057230348652411 13975.0666669526654 
	2031.797571915170693 3437.921404539173182 13950.19543019589037 
	2031.797571915166145 3443.088966046436326 13908.94945595776153 
	2031.797571915155004 3456.070483465532561 13852.07148786475409 
	2031.797571915132039 3483.474789923695425 13782.2472615232673 
	2031.797571915108165 3520.979175045014927 13717.28697108912093 
	2031.79757191507133 3557.354344089242659 13671.67479036902841 
	2031.797571915063145 3586.379635905282612 13641.91805842943359 
	2031.797571915054959 3610.756669835008324 13619.29865175698615 
	2031.79757191503154 3643.286685895021037 13593.35750436701528 
	2031.797571915006074 3692.217548929854729 13561.75282010774754 
	2031.797571914950595 3741.026146556016556 13538.24842707292009 
	2031.797571914922173 3788.12793055844304 13521.76851273868306 
	2031.797571914891478 3830.303579061564051 13510.46662413150625 
	2031.797571914819855 3870.310637645513907 13503.66931270106215 
	2031.797571914795753 3907.592897768192415 13500.52505123505398 
	2031.797571914766195 3944.992800886820987 13499.47524977369176 
	2031.797571914668879 3991.742610753557983 13502.10041699287649 
	2031.79757191456406 4040.982047611977123 13510.46669127608402 
	2031.797571914493119 4083.157712684532726 13521.76843211694541 
	2031.797571914460832 4130.259361216708385 13538.24866842172923 
	2031.797571914270293 4175.313592235247597 13559.94466991432273 
	2031.797571914150012 4217.565555436512113 13586.49537133069316 
	2031.797571914004948 4252.697764317438669 13612.42306885087055 
	2031.797571913810089 4289.938941552967663 13645.70384309665678 
	2031.797571913529737 4327.379772470601893 13687.60013545169932 
	2031.797571913283718 4359.894185780065527 13733.42511489064236 
	2031.797571912868079 4387.073692247121471 13782.6022566996653 
	2031.797571912044532 4408.57582620823905 13834.5134767042382 
	2031.79757191141266 4424.130844090926075 13888.50570156983849 
	2031.797571910579109 4431.973813690363386 13934.6676818033884 
	2031.797571910332408 4434.725061353008641 13967.28968663628621 
	2031.797571910253282 4435.41341273699436 13983.63926904329855 
	2031.797571910233728 4435.585506818309113 13991.81889201551894 
	2031.797571910227816 4435.628535804395142 13995.90930606689653 
	2031.797571910226907 4435.63929248720342 13997.95458868326568 
	2031.797571910225543 4435.642365925292324 13999.1233323468914 
	2031.797571910225997 4435.642878205061606 13999.70770598550007 
	2031.797571910226452 4435.642878200043015 13999.99989280169939 
	2115.130905243559937 4435.642878200042105 13999.99989280169939 
	2115.13090524356312 4435.642878159893371 14002.33738733128666 
	2115.130905243579036 4435.610091531972103 14007.01237599285378 
	2115.130905243595407 4435.4134097665019 14016.36051590386523 
	2115.130905243670895 4434.725059965015134 14032.71009864029293 
	2115.130905243917368 4431.973775056011618 14065.3320902116011 
	2115.130905244622681 4424.130857917776666 14111.49408065746684 
	2115.130905245252961 4411.168120085652845 14156.48751768440343 
	2115.130905245456688 4397.82485690152771 14191.44193565094065 
	2115.130905245621307 4382.543460117160976 14225.59355522548503 
	2115.130905246178372 4359.894250177331742 14266.57470630253374 
	2115.130905246574002 4327.379541726330899 14312.39945048844675 
	2115.130905247142891 4289.938909438202245 14354.2959817567662 
	2115.130905247196551 4249.594189244156951 14390.34990905792074 
	2115.130905247628561 4207.366009813790697 14420.70970717746422 
	2115.130905247656301 4164.126569777998156 14445.67389359166918 
	2115.130905247739065 4122.408902165626387 14464.49778277209407 
	2115.130905247798182 4083.15777786597755 14478.23158286636863 
	2115.13090524787367 4034.956986844769744 14491.14854373399612 
	2115.130905247958708 3973.147718319830346 14500.46604704584752 
	2115.130905248103772 3898.137961413186531 14500.46565078256754 
	2115.130905248208819 3836.328610306826704 14491.14878528835834 
	2115.130905248233375 3788.127735458802817 14478.23205908640375 
	2115.130905248280214 3752.80177322303507 14465.87155156420522 
	2115.130905248317958 3724.215718278624536 14453.39924449226964 
	2115.130905248330237 3704.736674370391938 14443.56575268506458 
	2115.13090524833251 3693.7691987264011 14437.63741253716034 
	2115.130905248336603 3677.487115034362432 14428.43889311190469 
	2115.130905248370254 3653.719925724432869 14413.50497769698268 
	2115.130905248375257 3623.606939769071232 14391.28066539557767 
	2115.130905248408453 3599.967037284909111 14370.93680021731961 
	2115.130905248412546 3582.006880982949042 14353.63597451200985 
	2115.130905248419822 3564.706044494577782 14335.6758191156041 
	2115.130905248436648 3544.362232892587144 14312.0358962233804 
	2115.130905248455292 3522.13779848880813 14281.9229635945685 
	2115.130905248462113 3502.226059516436635 14250.23332171716538 
	2115.130905248476211 3482.794651509942014 14213.46789070192426 
	2115.130905248487579 3465.016822618038987 14171.29387206591673 
	2115.130905248493491 3450.300244554461642 14123.58339222543873 
	2115.130905248501676 3442.056033913512692 14082.801181662413 
	2115.13090524850395 3437.921248788431058 14049.80452006990163 
	2115.130905248504405 3436.057296435555145 14024.9332390568652 
	2115.13090524850486 3435.435580566201679 13999.9999647959994 
	2115.130905248503495 3436.057230348651956 13975.0666669526654 
	2115.13090524850395 3437.921404539172727 13950.19543019589037 
	2115.130905248499857 3443.088966046435871 13908.94945595776153 
	2115.130905248488489 3456.070483465532106 13852.07148786475409 
	2115.130905248465751 3483.474789923694971 13782.2472615232673 
	2115.13090524844165 3520.979175045014472 13717.28697108912093 
	2115.130905248404815 3557.354344089242204 13671.67479036902841 
	2115.13090524839663 3586.379635905282157 13641.91805842943359 
	2115.130905248388444 3610.75666983500787 13619.29865175698615 
	2115.130905248364797 3643.286685895020582 13593.35750436701528 
	2115.130905248339332 3692.217548929854274 13561.75282010774754 
	2115.130905248284307 3741.026146556016101 13538.24842707292009 
	2115.130905248255658 3788.127930558442586 13521.76851273868306 
	2115.13090524822519 3830.303579061563596 13510.46662413150625 
	2115.13090524815334 3870.310637645513452 13503.66931270106215 
	2115.130905248129238 3907.59289776819196 13500.52505123505398 
	2115.13090524809968 3944.992800886820532 13499.47524977369176 
	2115.130905248002364 3991.742610753557528 13502.10041699287649 
	2115.130905247897772 4040.982047611976668 13510.46669127608402 
	2115.130905247826377 4083.157712684532271 13521.76843211694541 
	2115.130905247794544 4130.259361216707475 13538.24866842172923 
	2115.13090524760355 4175.313592235246688 13559.94466991432273 
	2115.130905247483497 4217.565555436511204 13586.49537133069316 
	2115.130905247338433 4252.697764317437759 13612.42306885087055 
	2115.130905247143346 4289.938941552966753 13645.70384309665678 
	2115.130905246863222 4327.379772470600983 13687.60013545169932 
	2115.130905246617203 4359.894185780064618 13733.42511489064236 
	2115.130905246201564 4387.073692247120562 13782.6022566996653 
	2115.130905245378017 4408.575826208238141 13834.5134767042382 
	2115.130905244745918 4424.130844090925166 13888.50570156983849 
	2115.130905243912821 4431.973813690362476 13934.6676818033884 
	2115.130905243665893 4434.725061353007732 13967.28968663628621 
	2115.130905243586767 4435.41341273699345 13983.63926904329855 
	2115.130905243567213 4435.585506818308204 13991.81889201551894 
	2115.130905243561301 4435.628535804394232 13995.90930606689653 
	2115.130905243560392 4435.639292487202511 13997.95458868326568 
	2115.130905243559027 4435.642365925291415 13999.1233323468914 
	2115.130905243559482 4435.642878205060697 13999.70770598550007 
	2115.130905243559937 4435.642878200042105 13999.99989280169939 
	2198.46423857625814 4435.642878200043015 13999.99989280169939 
	2198.464238576261323 4435.642878159894281 14002.33738733128666 
	2198.464238576279513 4435.610091531973012 14007.01237599285378 
	2198.464238576297703 4435.413409766502809 14016.36051590386523 
	2198.464238576382741 4434.725059965016044 14032.71009864029293 
	2198.464238576659682 4431.973775056012528 14065.3320902116011 
	2198.464238577451397 4424.130857917775757 14111.49408065746684 
	2198.464238578159893 4411.168120085652845 14156.48751768440343 
	2198.464238578387722 4397.8248569015268 14191.44193565094065 
	2198.464238578572804 4382.543460117160066 14225.59355522548503 
	2198.464238579198081 4359.894250177330832 14266.57470630253374 
	2198.46423857964237 4327.379541726330899 14312.39945048844675 
	2198.464238580280835 4289.938909438201335 14354.2959817567662 
	2198.464238580341316 4249.594189244156951 14390.34990905792074 
	2198.464238580826077 4207.366009813790697 14420.70970717746422 
	2198.464238580857909 4164.126569777998156 14445.67389359166918 
	2198.464238580950678 4122.408902165626387 14464.49778277209407 
	2198.464238581016616 4083.15777786597755 14478.23158286636863 
	2198.464238581101654 4034.956986844770199 14491.14854373399612 
	2198.464238581197606 3973.147718319830346 14500.46604704584752 
	2198.46423858136086 3898.137961413186986 14500.46565078256754 
	2198.464238581478185 3836.328610306827159 14491.14878528835834 
	2198.464238581506379 3788.127735458803272 14478.23205908640375 
	2198.464238581558675 3752.801773223035525 14465.87155156420522 
	2198.464238581600966 3724.215718278623626 14453.39924449226964 
	2198.464238581614154 3704.736674370391484 14443.56575268506458 
	2198.464238581617337 3693.769198726400191 14437.63741253716034 
	2198.46423858162143 3677.487115034361977 14428.43889311190469 
	2198.464238581659629 3653.719925724432414 14413.50497769698268 
	2198.464238581665541 3623.606939769071232 14391.28066539557767 
	2198.46423858170283 3599.967037284908201 14370.93680021731961 
	2198.464238581707377 3582.006880982948132 14353.63597451200985 
	2198.464238581715563 3564.706044494576872 14335.6758191156041 
	2198.464238581734662 3544.36223289258669 14312.0358962233804 
	2198.464238581755581 3522.13779848880813 14281.9229635945685 
	2198.464238581763311 3502.22605951643618 14250.23332171716538 
	2198.464238581779227 3482.794651509941559 14213.46789070192426 
	2198.464238581792415 3465.016822618038532 14171.29387206591673 
	2198.464238581799236 3450.300244554460733 14123.58339222543873 
	2198.464238581807876 3442.056033913512238 14082.801181662413 
	2198.464238581810605 3437.921248788430148 14049.80452006990163 
	2198.46423858181106 3436.05729643555469 14024.9332390568652 
	2198.464238581811969 3435.435580566201224 13999.9999647959994 
	2198.46423858181015 3436.057230348651501 13975.0666669526654 
	2198.464238581810605 3437.921404539172272 13950.19543019589037 
	2198.464238581805603 3443.088966046435871 13908.94945595776153 
	2198.46423858179287 3456.070483465532106 13852.07148786475409 
	2198.464238581767404 3483.474789923694516 13782.2472615232673 
	2198.464238581740574 3520.979175045014472 13717.28697108912093 
	2198.464238581698737 3557.354344089241295 13671.67479036902841 
	2198.464238581690097 3586.379635905281702 13641.91805842943359 
	2198.464238581681002 3610.75666983500696 13619.29865175698615 
	2198.464238581654172 3643.286685895019673 13593.35750436701528 
	2198.464238581625978 3692.217548929853365 13561.75282010774754 
	2198.464238581563677 3741.026146556015192 13538.24842707292009 
	2198.464238581531845 3788.127930558441676 13521.76851273868306 
	2198.464238581496829 3830.303579061563141 13510.46662413150625 
	2198.464238581416794 3870.310637645512543 13503.66931270106215 
	2198.464238581389509 3907.592897768190142 13500.52505123505398 
	2198.464238581356767 3944.992800886819168 13499.47524977369176 
	2198.464238581247173 3991.742610753556164 13502.10041699287649 
	2198.464238581129848 4040.982047611976213 13510.46669127608402 
	2198.464238581050267 4083.157712684531361 13521.76843211694541 
	2198.464238581013433 4130.259361216706566 13538.24866842172923 
	2198.464238580799702 4175.313592235246688 13559.94466991432273 
	2198.464238580664642 4217.565555436511204 13586.49537133069316 
	2198.464238580501387 4252.697764317437759 13612.42306885087055 
	2198.464238580282199 4289.938941552965844 13645.70384309665678 
	2198.464238579967514 4327.379772470600983 13687.60013545169932 
	2198.464238579691028 4359.894185780064618 13733.42511489064236 
	2198.464238579224912 4387.073692247120562 13782.6022566996653 
	2198.464238578299955 4408.57582620823905 13834.5134767042382 
	2198.464238577590095 4424.130844090925166 13888.50570156983849 
	2198.46423857665377 4431.973813690363386 13934.6676818033884 
	2198.464238576376829 4434.725061353008641 13967.28968663628621 
	2198.464238576287698 4435.41341273699436 13983.63926904329855 
	2198.464238576265871 4435.585506818309113 13991.81889201551894 
	2198.464238576259504 4435.628535804395142 13995.90930606689653 
	2198.464238576258595 4435.63929248720342 13997.95458868326568 
	2198.46423857625723 4435.642365925292324 13999.1233323468914 
	2198.464238576257685 4435.642878205061606 13999.70770598550007 
	2198.46423857625814 4435.642878200043015 13999.99989280169939 
	2281.797571909591625 4435.642878200043015 13999.99989280169939 
	2281.797571909594808 4435.642878159894281 14002.33738733128666 
	2281.797571909612998 4435.610091531973012 14007.01237599285378 
	2281.797571909631188 4435.413409766502809 14016.36051590386523 
	2281.797571909716225 4434.725059965016044 14032.71009864029293 
	2281.797571909993167 4431.973775056012528 14065.3320902116011 
	2281.797571910784882 4424.130857917775757 14111.49408065746684 
	2281.797571911493378 4411.168120085652845 14156.48751768440343 
	2281.797571911721207 4397.8248569015268 14191.44193565094065 
	2281.797571911906289 4382.543460117160066 14225.59355522548503 
	2281.797571912531566 4359.894250177330832 14266.57470630253374 
	2281.797571912975855 4327.379541726330899 14312.39945048844675 
	2281.79757191361432 4289.938909438201335 14354.2959817567662 
	2281.797571913674801 4249.594189244156951 14390.34990905792074 
	2281.797571914159562 4207.366009813790697 14420.70970717746422 
	2281.797571914191394 4164.126569777998156 14445.67389359166918 
	2281.797571914284163 4122.408902165626387 14464.49778277209407 
	2281.797571914350101 4083.157777865977096 14478.23158286636863 
	2281.797571914435139 4034.956986844769744 14491.14854373399612 
	2281.79757191453109 3973.147718319829892 14500.46604704584752 
	2281.797571914694345 3898.137961413186531 14500.46565078256754 
	2281.79757191481167 3836.328610306826704 14491.14878528835834 
	2281.797571914839864 3788.127735458802817 14478.23205908640375 
	2281.79757191489216 3752.80177322303507 14465.87155156420522 
	2281.797571914934451 3724.215718278623171 14453.39924449226964 
	2281.797571914947639 3704.736674370391029 14443.56575268506458 
	2281.797571914950822 3693.769198726399736 14437.63741253716034 
	2281.797571914954915 3677.487115034361523 14428.43889311190469 
	2281.797571914993114 3653.71992572443196 14413.50497769698268 
	2281.797571914999025 3623.606939769070777 14391.28066539557767 
	2281.797571915036315 3599.967037284907747 14370.93680021731961 
	2281.797571915040862 3582.006880982947678 14353.63597451200985 
	2281.797571915049048 3564.706044494576417 14335.6758191156041 
	2281.797571915068147 3544.362232892586235 14312.0358962233804 
	2281.797571915089065 3522.137798488807675 14281.9229635945685 
	2281.797571915096796 3502.226059516435726 14250.23332171716538 
	2281.797571915112712 3482.794651509941104 14213.46789070192426 
	2281.7975719151259 3465.016822618038077 14171.29387206591673 
	2281.797571915132721 3450.300244554460278 14123.58339222543873 
	2281.797571915141361 3442.056033913511783 14082.801181662413 
	2281.79757191514409 3437.921248788429693 14049.80452006990163 
	2281.797571915144545 3436.057296435554235 14024.9332390568652 
	2281.797571915145454 3435.43558056620077 13999.9999647959994 
	2281.797571915143635 3436.057230348651046 13975.0666669526654 
	2281.79757191514409 3437.921404539171817 13950.19543019589037 
	2281.797571915139088 3443.088966046435417 13908.94945595776153 
	2281.797571915126355 3456.070483465531652 13852.07148786475409 
	2281.797571915100889 3483.474789923694061 13782.2472615232673 
	2281.797571915074059 3520.979175045014017 13717.28697108912093 
	2281.797571915032222 3557.35434408924084 13671.67479036902841 
	2281.797571915023582 3586.379635905281248 13641.91805842943359 
	2281.797571915014487 3610.756669835006505 13619.29865175698615 
	2281.797571914987657 3643.286685895019218 13593.35750436701528 
	2281.797571914959462 3692.21754892985291 13561.75282010774754 
	2281.797571914897162 3741.026146556014737 13538.24842707292009 
	2281.79757191486533 3788.127930558441221 13521.76851273868306 
	2281.797571914830314 3830.303579061562687 13510.46662413150625 
	2281.797571914750279 3870.310637645512088 13503.66931270106215 
	2281.797571914722994 3907.592897768189687 13500.52505123505398 
	2281.797571914690252 3944.992800886818713 13499.47524977369176 
	2281.797571914580658 3991.742610753555709 13502.10041699287649 
	2281.797571914463333 4040.982047611975759 13510.46669127608402 
	2281.797571914383752 4083.157712684530907 13521.76843211694541 
	2281.797571914346918 4130.259361216706566 13538.24866842172923 
	2281.797571914133187 4175.313592235246688 13559.94466991432273 
	2281.797571913998127 4217.565555436511204 13586.49537133069316 
	2281.797571913834872 4252.697764317437759 13612.42306885087055 
	2281.797571913615684 4289.938941552965844 13645.70384309665678 
	2281.797571913300999 4327.379772470600983 13687.60013545169932 
	2281.797571913024512 4359.894185780064618 13733.42511489064236 
	2281.797571912558396 4387.073692247120562 13782.6022566996653 
	2281.79757191163344 4408.57582620823905 13834.5134767042382 
	2281.79757191092358 4424.130844090925166 13888.50570156983849 
	2281.797571909987255 4431.973813690363386 13934.6676818033884 
	2281.797571909710314 4434.725061353008641 13967.28968663628621 
	2281.797571909621183 4435.41341273699436 13983.63926904329855 
	2281.797571909599355 4435.585506818309113 13991.81889201551894 
	2281.797571909592989 4435.628535804395142 13995.90930606689653 
	2281.797571909592079 4435.63929248720342 13997.95458868326568 
	2281.797571909590715 4435.642365925292324 13999.1233323468914 
	2281.79757190959117 4435.642878205061606 13999.70770598550007 
	2281.797571909591625 4435.642878200043015 13999.99989280169939 
	0 
	
	0 
	0 
	79 0 0.002232142857142857019 0.004464285714285714038 0.008928571428571428076 0.01785714285714285615 0.0357142857142857123 0.05357142857142856845 0.0625 0.07142857142857142461 0.08928571428571427382 0.1071428571428571369 0.125 0.1428571428571428492 0.1587301587301587213 0.1746031746031745935 0.1904761904761904656 0.2023809523809523836 0.2142857142857142738 0.238095238095238082 0.2619047619047618625 0.2857142857142856984 0.2976190476190476164 0.3095238095238095344 0.3214285714285713969 0.3273809523809523281 0.3303571428571427937 0.3333333333333333148 0.3452380952380952328 0.3571428571428570953 0.3690476190476190133 0.375 0.3809523809523809312 0.3928571428571428492 0.4047619047619047672 0.4166666666666666297 0.4285714285714285476 0.4444444444444444198 0.4603174603174602919 0.476190476190476164 0.4841269841269840724 0.4920634920634920362 0.5 0.5079365079365079083 0.5158730158730158166 0.5238095238095237249 0.5476190476190475609 0.5714285714285713969 0.5952380952380951218 0.6190476190476189577 0.6269841269841269771 0.6349206349206348854 0.650793650793650702 0.6666666666666666297 0.6904761904761904656 0.7023809523809523281 0.7142857142857141906 0.7321428571428569843 0.7410714285714283811 0.749999999999999889 0.7678571428571427937 0.7857142857142855874 0.7976190476190474499 0.8095238095238094234 0.8333333333333332593 0.8452380952380951218 0.8571428571428570953 0.875 0.8928571428571427937 0.9107142857142856984 0.9285714285714286031 0.9464285714285713969 0.9642857142857143016 0.9821428571428572063 0.9910714285714286031 0.9955357142857143016 0.9977678571428572063 0.9988839285714286031 0.9994419642857143016 0.9997209821428572063 
	0 
	0 
	0 
	F 1 F 0 F 1 F 0 } I I I I #
tcoedge-coedge $-1 -1 $-1 $14 $14 $18 $19 reversed $9 $20 -6.283185307179586232 -0 #
tcoedge-coedge $-1 -1 $-1 $21 $22 $11 $16 reversed $12 $23 -6.283185307179586232 -0 #
tedge-edge $-1 -1 $-1 $24 0 $24 6.283185307179586232 $15 $25 forward @7 unknown 0.0007727558545058897362 #
pcurve $-1 -1 $-1 0 forward { exppc nurbs 2 periodic 5 
	0 2 1.570796326794896558 2 3.141592653589793116 2 4.712388980384689674 2 6.283185307179586232 2 
	0 500 1 
	-500 500 0.707106781186543798 
	-500 0 1 
	-500 -500 0.7071067811865463515 
	0 -500 1 
	500 -500 0.7071067811865463515 
	500 0 1 
	500 500 0.707106781186543798 
	0 500 1 
	0 
	plane 2281.797571915386925 3935.642797989809878 14000.00000000000182 1 -3.637978807091713027e-15 0 0 0 -1 forward_v I I I I 
	} 0 0 #
tcoedge-coedge $-1 -1 $-1 $22 $21 $14 $19 forward $12 $26 0 6.283185307179586232 #
tedge-edge $-1 -1 $-1 $27 0 $27 6.283185307179586232 $18 $28 forward @7 unknown 0.0007727558524886099468 #
pcurve $-1 -1 $-1 0 forward { exppc nurbs 2 periodic 5 
	-6.283185307179586232 2 -4.712388980384689674 2 -3.141592653589793116 2 -1.570796326794896558 2 0 2 
	0 500 1 
	500 500 0.707106781186543798 
	500 0 1 
	500 -500 0.7071067811865463515 
	0 -500 1 
	-500 -500 0.7071067811865463515 
	-500 0 1 
	-500 500 0.707106781186543798 
	0 500 1 
	0 
	plane 2031.797571915386925 3935.642797989810788 14000.00000000000182 -1 3.637978807091713027e-15 -0 0 0 -1 reverse_v I I I I 
	} 0 0 #
coedge $-1 -1 $-1 $18 $15 $22 $29 reversed $12 $30 #
coedge $-1 -1 $-1 $15 $18 $21 $29 forward $12 $31 #
pcurve $-1 -1 $-1 0 forward { exppc nubs 1 periodic 2 
	-6.283185307179586232 1 -0 1 
	1 1 
	0 1 
	2.726396620975368931e-13 
	spline forward { ref 0 } I I I I 
	} 0 0 #
tvertex-vertex $-1 -1 $-1 $16 $32 0.0001338848768720014089 #
ellipse-curve $-1 -1 $-1 2281.797571915386925 3935.642797989809878 14000.00000000000182 1 -3.637978807091713027e-15 0 1.818989403545856476e-12 500 0 1 I I #
pcurve $-1 -1 $-1 0 forward { exppc nubs 1 periodic 2 
	0 1 6.283185307179586232 1 
	0 0 
	1 0 
	4.411402399551011509e-13 
	spline forward { ref 0 } I I I I 
	} 0 0 #
tvertex-vertex $-1 -1 $-1 $19 $33 0.0001338848763011418871 #
ellipse-curve $-1 -1 $-1 2031.797571915386925 3935.642797989810788 14000.00000000000182 1 -3.637978807091713027e-15 0 1.818989403545856476e-12 500 0 1 I I #
edge $-1 -1 $-1 $27 2.064916717032753716e-11 $24 1 $22 $34 forward @7 tangent #
pcurve $-1 -1 $-1 -1 $34 0 0 #
pcurve $-1 -1 $-1 1 $34 1 0 #
point $-1 -1 $-1 2281.797571915388744 4435.642797989809878 14000.00000000000182 #
point $-1 -1 $-1 2031.797571915388744 4435.642797989810788 14000.00000000000182 #
intcurve-curve $-1 -1 $-1 forward { parcur full nubs 3 open 2 
	0 3 1 3 
	2031.797571910226452 4435.642878200043015 13999.99989280169939 
	2115.130905243559937 4435.642878200042105 13999.99989280169939 
	2198.46423857625814 4435.642878200043015 13999.99989280169939 
	2281.797571909591625 4435.642878200043015 13999.99989280169939 
	0 
	
	spline forward { ref 0 } I I I I 
	null_surface 
	nubs 1 open 2 
	0 1 1 1 
	0 0 
	0 1 
	
	nullbs 
	I I 
	0 
	0 
	0 
	surf1 } F 2.064916717032753716e-11 F 1 #
End-of-ACIS-data 