700 0 1 0           
4 LibG 20 ASM 224.0.1.65535 NT 24 Wed Jul 17 14:48:13 2019 
1000 9.999999999999999547e-07 1.000000000000000036e-10 
body $-1 -1 $-1 $1 $-1 $2 #
lump $-1 -1 $-1 $-1 $3 $0 #
transform $-1 -1 1 0 0 0 1 0 0 0 1 0 0 0 1 no_rotate no_reflect no_shear #
shell $-1 -1 $-1 $-1 $-1 $4 $-1 $1 #
face $-1 -1 $-1 $5 $6 $3 $-1 $7 forward single #
face $-1 -1 $-1 $8 $9 $3 $-1 $10 reversed single #
loop $-1 -1 $-1 $-1 $11 $4 #
plane-surface $-1 -1 $-1 1281.797571915386925 3935.642797989813516 14000.00000000000182 1 -3.637978807091713027e-15 0 0 0 -1 forward_v I I I I #
face $-1 -1 $-1 $-1 $12 $3 $-1 $13 forward single #
loop $-1 -1 $-1 $-1 $14 $5 #
plane-surface $-1 -1 $-1 1031.797571915386925 3935.642797989814426 14000.00000000000182 1 -3.637978807091713027e-15 0 0 0 -1 forward_v I I I I #
tcoedge-coedge $-1 -1 $-1 $11 $11 $15 $16 forward $6 $17 0 6.283185307179586232 #
loop $-1 -1 $-1 $-1 $18 $8 #
spline-surface $-1 -1 $-1 forward { exactsur full nubs 3 3 periodic open none none 88 2 
	0 3 0.004464285714285714038 1 0.008928571428571428076 1 0.01785714285714285615 1 0.02678571428571428423 1 
	0.0357142857142857123 1 0.05357142857142856845 1 0.0625 1 0.07142857142857142461 1 0.08928571428571427382 1 
	0.09821428571428569843 1 0.1026785714285714246 1 0.1071428571428571369 1 0.125 1 0.1428571428571428492 1 
	0.1587301587301587213 1 0.1746031746031745935 1 0.1785714285714285476 1 0.1825396825396825295 1 0.1904761904761904656 1 
	0.2142857142857142738 1 0.226190476190476164 1 0.238095238095238082 1 0.2410714285714285476 1 0.2440476190476190133 1 
	0.2470238095238094789 1 0.2499999999999999722 1 0.2619047619047618625 1 0.2738095238095237804 1 0.2857142857142856984 1 
	0.3095238095238095344 1 0.3333333333333333148 1 0.3452380952380952328 1 0.3571428571428570953 1 0.3630952380952380265 1 
	0.3690476190476190133 1 0.3720238095238095344 1 0.375 1 0.3809523809523809312 1 0.3928571428571428492 1 
	0.4047619047619047672 1 0.4285714285714285476 1 0.4444444444444444198 1 0.4603174603174602919 1 0.476190476190476164 1 
	0.4841269841269840724 1 0.4920634920634920362 1 0.5 1 0.5079365079365079083 1 0.5238095238095237249 1 
	0.5476190476190475609 1 0.5714285714285713969 1 0.5773809523809523281 1 0.5833333333333332593 1 0.5952380952380951218 1 
	0.6190476190476189577 1 0.6269841269841269771 1 0.6349206349206348854 1 0.650793650793650702 1 0.6666666666666666297 1 
	0.6904761904761904656 1 0.7023809523809523281 1 0.7142857142857141906 1 0.7321428571428569843 1 0.749999999999999889 1 
	0.7678571428571427937 1 0.7857142857142855874 1 0.7976190476190474499 1 0.8095238095238094234 1 0.8333333333333332593 1 
	0.8452380952380951218 1 0.851190476190476053 1 0.8541666666666665186 1 0.8571428571428570953 1 0.875 1 
	0.8928571428571427937 1 0.9107142857142856984 1 0.9285714285714286031 1 0.9464285714285713969 1 0.9642857142857143016 1 
	0.9821428571428572063 1 0.9866071428571429047 1 0.9910714285714286031 1 0.9955357142857143016 1 0.9977678571428572063 1 
	0.9988839285714286031 1 0.9994419642857143016 1 1 3 
	0 3 1 3 
	1031.797571914647051 4435.642869212018923 13999.99994398775743 
	1031.797571914647051 4435.642869005346256 14004.6749330392031 
	1031.797571914658647 4435.511724682844942 14014.02491166108121 
	1031.797571914668197 4434.725088084377603 14032.71015280358552 
	1031.797571914706623 4432.759710746223391 14056.01156544369042 
	1031.797571914740502 4428.83691709807772 14083.7969724614286 
	1031.797571914771424 4421.538068295956691 14120.492790346123 
	1031.797571914886021 4411.168222283393334 14156.48758635755621 
	1031.797571914911941 4397.824848194209153 14191.44197954793708 
	1031.797571914937862 4382.543542448056542 14225.59365457879903 
	1031.797571915025401 4364.423979237717504 14258.37840906231213 
	1031.797571915042909 4346.235498798448134 14285.59870209020119 
	1031.79757191504973 4335.200468414555871 14300.6978711287702 
	1031.797571915057461 4318.019346961179508 14322.87359762853885 
	1031.797571915121125 4289.938895215438606 14354.29595139289813 
	1031.797571915169783 4249.59412696034633 14390.34987129168439 
	1031.797571915215485 4207.365997038838032 14420.70966073785894 
	1031.797571915232538 4174.936520339006165 14439.43298043302093 
	1031.797571915236631 4152.607231243335264 14450.53110390773872 
	1031.797571915239359 4137.541211136095626 14457.55634620861201 
	1031.797571915252547 4103.067792574127452 14472.089634968268 
	1031.797571915281196 4059.265357429352207 14485.60041406766504 
	1031.797571915289154 4010.233447100988542 14494.87631231177329 
	1031.797571915307572 3982.340532256961524 14498.01951152947368 
	1031.797571915308481 3963.679775885932486 14499.24249523683466 
	1031.797571915309618 3954.339611341535601 14499.67948863548554 
	1031.797571915309845 3944.992899654893336 14499.94171893651765 
	1031.79757191531121 3926.292951969590831 14500.11658332956358 
	1031.797571915319168 3898.242986462987119 14499.06724820261297 
	1031.797571915325761 3861.052353415044308 14494.8763239891523 
	1031.797571915335539 3812.020583797192103 14485.60045230813739 
	1031.797571915346225 3752.289513752706171 14467.17693316538316 
	1031.797571915355547 3695.972400457387721 14440.05481649336252 
	1031.797571915362596 3653.720403533376157 14413.50437246128604 
	1031.797571915365097 3628.626057796704572 14394.98447176938134 
	1031.797571915366916 3609.423294613242888 14379.07407826643612 
	1031.797571915368053 3597.80167971947003 14368.68842901891003 
	1031.79757191536828 3588.742271609118234 14360.12350428806349 
	1031.79757191536828 3579.844645013255104 14351.39066013925367 
	1031.797571915368962 3564.706231901918727 14335.6756375750374 
	1031.797571915368962 3544.362964773205476 14312.03540578258071 
	1031.797571915370327 3514.728939170291142 14271.88572060390652 
	1031.797571915371009 3487.641987185356356 14224.97057293337821 
	1031.797571915371691 3465.016833488660723 14171.29385603811352 
	1031.797571915371691 3450.299833822416986 14123.58366141081024 
	1031.797571915371918 3442.055821622094754 14082.80128937810514 
	1031.797571915372373 3437.921010730536636 14049.80465660365553 
	1031.797571915372146 3436.057113694009786 14024.93336429912233 
	1031.797571915372373 3435.435356385923569 14000.000073162435 
	1031.797571915372146 3436.264403320694782 13966.75571949249934 
	1031.797571915371009 3441.234529669200583 13917.07506801725685 
	1031.797571915369417 3456.070120964479884 13852.07144923322994 
	1031.797571915366007 3476.623939871319635 13799.70354806756222 
	1031.797571915365779 3493.481882788489202 13766.31111300669181 
	1031.797571915365324 3505.544662040813819 13744.48513709758117 
	1031.797571915364415 3528.774263243861697 13707.51322363230793 
	1031.797571915358958 3557.354096504860081 13671.67476052760139 
	1031.797571915358276 3586.379548940331006 13641.91809867788652 
	1031.797571915356912 3610.756528970445288 13619.29864988249756 
	1031.797571915354865 3643.286640488847297 13593.35758235487629 
	1031.797571915351682 3692.217490122555319 13561.75287992849735 
	1031.797571915344179 3741.026108619644674 13538.24849592062674 
	1031.797571915340768 3788.127890320725783 13521.76854878885388 
	1031.797571915336221 3830.303552641166334 13510.4667335860413 
	1031.797571915326898 3879.542989431251954 13502.10054964188566 
	1031.797571915316894 3935.642790051414977 13498.95007091875596 
	1031.797571915305298 3991.742605391028974 13502.10050754839176 
	1031.79757191529302 4040.982018607624013 13510.46671373280333 
	1031.797571915283697 4083.157719802288739 13521.76841765722202 
	1031.797571915279832 4130.259378153283251 13538.24865767469601 
	1031.797571915258004 4175.313644534977357 13559.94456653253656 
	1031.797571915245953 4212.284021531907456 13583.17667015365805 
	1031.797571915238677 4230.080041621248711 13595.80322561881439 
	1031.797571915237086 4240.041410602192627 13603.30002977418371 
	1031.797571915231401 4259.680481536666775 13618.66326956189187 
	1031.797571915169328 4289.938924752110324 13645.70383805318306 
	1031.797571915113622 4327.379733399732686 13687.60018497511373 
	1031.797571915036315 4359.894224599067456 13733.42510334301187 
	1031.797571914963783 4387.073524992644707 13782.60236980694935 
	1031.797571914870105 4408.575779244666592 13834.51352665813101 
	1031.797571914791661 4424.130727221929192 13888.50577815845099 
	1031.797571914682749 4431.189493860095354 13930.05153536870239 
	1031.797571914667515 4433.938925691990335 13957.96917398100413 
	1031.797571914660466 4434.921763454753091 13971.96104155795729 
	1031.797571914650916 4435.413392210791244 13983.63932191884123 
	1031.797571914648643 4435.585499765605164 13991.81894293005644 
	1031.797571914647506 4435.628526444387717 13995.90935731719219 
	1031.797571914647278 4435.640820165940568 13998.24682310157368 
	1031.797571914647051 4435.64286923785312 13999.4155703563265 
	1031.797571914647051 4435.642869212018923 13999.99994398775743 
	1115.130905247980309 4435.642869212018013 13999.99994398775743 
	1115.130905247980309 4435.642869005345347 14004.6749330392031 
	1115.130905247991905 4435.511724682844033 14014.02491166108121 
	1115.130905248001454 4434.725088084376694 14032.71015280358552 
	1115.13090524803988 4432.759710746222481 14056.01156544369042 
	1115.130905248073759 4428.83691709807681 14083.7969724614286 
	1115.130905248104682 4421.538068295955782 14120.492790346123 
	1115.130905248219278 4411.168222283392424 14156.48758635755621 
	1115.130905248245199 4397.824848194208244 14191.44197954793708 
	1115.130905248271119 4382.543542448055632 14225.59365457879903 
	1115.130905248358431 4364.423979237716594 14258.37840906231213 
	1115.130905248376166 4346.235498798447225 14285.59870209020119 
	1115.130905248382987 4335.200468414554962 14300.6978711287702 
	1115.130905248390718 4318.019346961178599 14322.87359762853885 
	1115.130905248454383 4289.938895215437697 14354.29595139289813 
	1115.130905248502813 4249.59412696034542 14390.34987129168439 
	1115.130905248548743 4207.365997038837122 14420.70966073785894 
	1115.130905248565796 4174.936520339005256 14439.43298043302093 
	1115.130905248569888 4152.607231243334354 14450.53110390773872 
	1115.130905248572617 4137.541211136094716 14457.55634620861201 
	1115.130905248585805 4103.067792574126543 14472.089634968268 
	1115.130905248614226 4059.265357429351752 14485.60041406766504 
	1115.130905248622639 4010.233447100988087 14494.87631231177329 
	1115.130905248640602 3982.340532256961069 14498.01951152947368 
	1115.130905248641739 3963.679775885932031 14499.24249523683466 
	1115.130905248642648 3954.339611341535146 14499.67948863548554 
	1115.130905248643103 3944.992899654892881 14499.94171893651765 
	1115.13090524864424 3926.292951969590376 14500.11658332956358 
	1115.130905248652653 3898.242986462986664 14499.06724820261297 
	1115.130905248658792 3861.052353415043854 14494.8763239891523 
	1115.130905248669023 3812.020583797191648 14485.60045230813739 
	1115.130905248679255 3752.289513752705716 14467.17693316538316 
	1115.130905248688805 3695.972400457387266 14440.05481649336252 
	1115.130905248695854 3653.720403533375702 14413.50437246128604 
	1115.130905248698127 3628.626057796704117 14394.98447176938134 
	1115.130905248700174 3609.423294613242433 14379.07407826643612 
	1115.13090524870131 3597.801679719469576 14368.68842901891003 
	1115.130905248701538 3588.742271609117779 14360.12350428806349 
	1115.130905248701538 3579.844645013254649 14351.39066013925367 
	1115.13090524870222 3564.706231901918272 14335.6756375750374 
	1115.130905248702447 3544.362964773205022 14312.03540578258071 
	1115.130905248703357 3514.728939170290687 14271.88572060390652 
	1115.130905248704494 3487.641987185355902 14224.97057293337821 
	1115.130905248704721 3465.016833488660268 14171.29385603811352 
	1115.130905248705176 3450.299833822416531 14123.58366141081024 
	1115.130905248704948 3442.0558216220943 14082.80128937810514 
	1115.130905248705631 3437.921010730536182 14049.80465660365553 
	1115.130905248705403 3436.057113694009331 14024.93336429912233 
	1115.130905248705631 3435.435356385923114 14000.000073162435 
	1115.130905248705176 3436.264403320694328 13966.75571949249934 
	1115.130905248704494 3441.234529669200128 13917.07506801725685 
	1115.130905248702675 3456.070120964479429 13852.07144923322994 
	1115.130905248699491 3476.62393987131918 13799.70354806756222 
	1115.130905248699037 3493.481882788488747 13766.31111300669181 
	1115.130905248698809 3505.544662040813364 13744.48513709758117 
	1115.130905248697218 3528.774263243861242 13707.51322363230793 
	1115.13090524869267 3557.354096504859626 13671.67476052760139 
	1115.130905248691306 3586.379548940330551 13641.91809867788652 
	1115.130905248690397 3610.756528970444833 13619.29864988249756 
	1115.130905248687895 3643.286640488846842 13593.35758235487629 
	1115.130905248685167 3692.217490122554864 13561.75287992849735 
	1115.130905248677436 3741.026108619644219 13538.24849592062674 
	1115.130905248674026 3788.127890320725328 13521.76854878885388 
	1115.130905248669478 3830.303552641165879 13510.4667335860413 
	1115.130905248660383 3879.542989431251499 13502.10054964188566 
	1115.130905248649924 3935.642790051414522 13498.95007091875596 
	1115.130905248638555 3991.742605391028519 13502.10050754839176 
	1115.130905248626277 4040.982018607623559 13510.46671373280333 
	1115.130905248616955 4083.157719802288284 13521.76841765722202 
	1115.130905248613089 4130.259378153282341 13538.24865767469601 
	1115.130905248591262 4175.313644534976447 13559.94456653253656 
	1115.130905248579211 4212.284021531906546 13583.17667015365805 
	1115.130905248571935 4230.080041621247801 13595.80322561881439 
	1115.130905248570343 4240.041410602191718 13603.30002977418371 
	1115.130905248564659 4259.680481536665866 13618.66326956189187 
	1115.130905248502586 4289.938924752109415 13645.70383805318306 
	1115.130905248446879 4327.379733399731776 13687.60018497511373 
	1115.130905248369572 4359.894224599066547 13733.42510334301187 
	1115.13090524829704 4387.073524992643797 13782.60236980694935 
	1115.130905248203362 4408.575779244665682 13834.51352665813101 
	1115.130905248125146 4424.130727221928282 13888.50577815845099 
	1115.130905248015779 4431.189493860094444 13930.05153536870239 
	1115.130905248000772 4433.938925691989425 13957.96917398100413 
	1115.130905247993724 4434.921763454752181 13971.96104155795729 
	1115.130905247984174 4435.413392210790335 13983.63932191884123 
	1115.1309052479819 4435.585499765604254 13991.81894293005644 
	1115.130905247980763 4435.628526444386807 13995.90935731719219 
	1115.130905247980536 4435.640820165939658 13998.24682310157368 
	1115.130905247980309 4435.64286923785221 13999.4155703563265 
	1115.130905247980309 4435.642869212018013 13999.99994398775743 
	1198.464238581133941 4435.642869212017104 13999.99994398775743 
	1198.464238581134396 4435.642869005343528 14004.6749330392031 
	1198.464238581148493 4435.511724682841304 14014.02491166108121 
	1198.464238581160316 4434.725088084373965 14032.71015280358552 
	1198.464238581208292 4432.759710746219753 14056.01156544369042 
	1198.464238581250356 4428.836917098074082 14083.7969724614286 
	1198.464238581288555 4421.538068295953053 14120.492790346123 
	1198.464238581430664 4411.168222283391515 14156.48758635755621 
	1198.464238581462723 4397.824848194206425 14191.44197954793708 
	1198.464238581495238 4382.543542448054723 14225.59365457879903 
	1198.464238581603695 4364.423979237714775 14258.37840906231213 
	1198.464238581625523 4346.235498798446315 14285.59870209020119 
	1198.464238581633936 4335.200468414554052 14300.6978711287702 
	1198.464238581643713 4318.01934696117678 14322.87359762853885 
	1198.464238581722839 4289.938895215435878 14354.29595139289813 
	1198.464238581783547 4249.594126960343601 14390.34987129168439 
	1198.464238581839936 4207.365997038836213 14420.70966073785894 
	1198.464238581861082 4174.936520339005256 14439.43298043302093 
	1198.464238581866312 4152.607231243333445 14450.53110390773872 
	1198.464238581869722 4137.541211136093807 14457.55634620861201 
	1198.464238581886093 4103.067792574125633 14472.089634968268 
	1198.464238581922018 4059.265357429350388 14485.60041406766504 
	1198.464238581931568 4010.233447100986723 14494.87631231177329 
	1198.464238581954987 3982.340532256959705 14498.01951152947368 
	1198.464238581955669 3963.679775885930667 14499.24249523683466 
	1198.464238581957261 3954.339611341533782 14499.67948863548554 
	1198.464238581957716 3944.992899654891517 14499.94171893651765 
	1198.464238581959535 3926.292951969588557 14500.11658332956358 
	1198.464238581969312 3898.242986462985755 14499.06724820261297 
	1198.464238581977952 3861.05235341504158 14494.8763239891523 
	1198.464238581989548 3812.020583797190739 14485.60045230813739 
	1198.464238582003418 3752.289513752705261 14467.17693316538316 
	1198.464238582014559 3695.972400457386811 14440.05481649336252 
	1198.464238582023654 3653.720403533375702 14413.50437246128604 
	1198.464238582026837 3628.626057796703662 14394.98447176938134 
	1198.464238582028884 3609.423294613242433 14379.07407826643612 
	1198.464238582030248 3597.801679719469121 14368.68842901891003 
	1198.464238582030703 3588.742271609117324 14360.12350428806349 
	1198.464238582030703 3579.844645013253285 14351.39066013925367 
	1198.464238582031612 3564.706231901917363 14335.6756375750374 
	1198.464238582031385 3544.362964773204112 14312.03540578258071 
	1198.464238582033659 3514.728939170289323 14271.88572060390652 
	1198.464238582034113 3487.641987185354537 14224.97057293337821 
	1198.46423858203525 3465.016833488659358 14171.29385603811352 
	1198.464238582035023 3450.299833822416076 14123.58366141081024 
	1198.46423858203525 3442.05582162209339 14082.80128937810514 
	1198.464238582035932 3437.921010730536182 14049.80465660365553 
	1198.464238582035705 3436.057113694009331 14024.93336429912233 
	1198.464238582035932 3435.435356385923114 14000.000073162435 
	1198.464238582035932 3436.264403320694782 13966.75571949249934 
	1198.464238582034341 3441.234529669200128 13917.07506801725685 
	1198.464238582032067 3456.070120964479429 13852.07144923322994 
	1198.464238582027974 3476.62393987131918 13799.70354806756222 
	1198.464238582027519 3493.481882788488747 13766.31111300669181 
	1198.464238582026837 3505.544662040812909 13744.48513709758117 
	1198.464238582026383 3528.774263243860787 13707.51322363230793 
	1198.464238582018652 3557.354096504859172 13671.67476052760139 
	1198.464238582018652 3586.379548940329641 13641.91809867788652 
	1198.464238582016151 3610.756528970444833 13619.29864988249756 
	1198.464238582014332 3643.286640488847297 13593.35758235487629 
	1198.464238582009557 3692.217490122555319 13561.75287992849735 
	1198.464238582000689 3741.026108619644674 13538.24849592062674 
	1198.464238581996369 3788.127890320726237 13521.76854878885388 
	1198.464238581990685 3830.303552641166789 13510.4667335860413 
	1198.464238581978861 3879.542989431251499 13502.10054964188566 
	1198.464238581966811 3935.642790051414977 13498.95007091875596 
	1198.464238581952031 3991.742605391028974 13502.10050754839176 
	1198.46423858193657 4040.982018607623559 13510.46671373280333 
	1198.464238581924974 4083.157719802288284 13521.76841765722202 
	1198.464238581919972 4130.259378153282341 13538.24865767469601 
	1198.464238581892914 4175.313644534976447 13559.94456653253656 
	1198.464238581877908 4212.284021531905637 13583.17667015365805 
	1198.464238581868813 4230.080041621247801 13595.80322561881439 
	1198.464238581866766 4240.041410602190808 13603.30002977418371 
	1198.464238581859718 4259.680481536665866 13618.66326956189187 
	1198.464238581782865 4289.938924752109415 13645.70383805318306 
	1198.464238581713744 4327.379733399732686 13687.60018497511373 
	1198.464238581617565 4359.894224599066547 13733.42510334301187 
	1198.464238581527979 4387.073524992643797 13782.60236980694935 
	1198.464238581411337 4408.575779244664773 13834.51352665813101 
	1198.464238581313793 4424.130727221926463 13888.50577815845099 
	1198.464238581178734 4431.189493860092625 13930.05153536870239 
	1198.464238581159861 4433.938925691987606 13957.96917398100413 
	1198.464238581151221 4434.921763454751272 13971.96104155795729 
	1198.464238581138943 4435.413392210788516 13983.63932191884123 
	1198.464238581135987 4435.585499765602435 13991.81894293005644 
	1198.464238581134623 4435.628526444384988 13995.90935731719219 
	1198.464238581134168 4435.640820165938749 13998.24682310157368 
	1198.464238581133941 4435.642869237851301 13999.4155703563265 
	1198.464238581133941 4435.642869212017104 13999.99994398775743 
	1281.797571914467198 4435.642869212017104 13999.99994398775743 
	1281.797571914467653 4435.642869005343528 14004.6749330392031 
	1281.79757191448175 4435.511724682841304 14014.02491166108121 
	1281.797571914493574 4434.725088084373965 14032.71015280358552 
	1281.79757191454155 4432.759710746219753 14056.01156544369042 
	1281.797571914583614 4428.836917098074082 14083.7969724614286 
	1281.797571914621813 4421.538068295953053 14120.492790346123 
	1281.797571914763921 4411.168222283391515 14156.48758635755621 
	1281.797571914795981 4397.824848194206425 14191.44197954793708 
	1281.797571914828495 4382.543542448054723 14225.59365457879903 
	1281.797571914936952 4364.423979237714775 14258.37840906231213 
	1281.79757191495878 4346.235498798446315 14285.59870209020119 
	1281.797571914967193 4335.200468414554052 14300.6978711287702 
	1281.79757191497697 4318.01934696117678 14322.87359762853885 
	1281.797571915056096 4289.938895215435878 14354.29595139289813 
	1281.797571915116578 4249.594126960343601 14390.34987129168439 
	1281.797571915173194 4207.365997038836213 14420.70966073785894 
	1281.797571915194339 4174.936520339005256 14439.43298043302093 
	1281.797571915199569 4152.607231243333445 14450.53110390773872 
	1281.79757191520298 4137.541211136093807 14457.55634620861201 
	1281.797571915219578 4103.067792574125633 14472.089634968268 
	1281.797571915255048 4059.265357429349933 14485.60041406766504 
	1281.797571915265053 4010.233447100986268 14494.87631231177329 
	1281.797571915288017 3982.34053225695925 14498.01951152947368 
	1281.797571915288927 3963.679775885930212 14499.24249523683466 
	1281.797571915290291 3954.339611341533328 14499.67948863548554 
	1281.797571915290973 3944.992899654891062 14499.94171893651765 
	1281.797571915292565 3926.292951969588103 14500.11658332956358 
	1281.797571915302797 3898.2429864629853 14499.06724820261297 
	1281.797571915310982 3861.052353415041125 14494.8763239891523 
	1281.797571915323033 3812.020583797190284 14485.60045230813739 
	1281.797571915336448 3752.289513752704806 14467.17693316538316 
	1281.797571915347817 3695.972400457386357 14440.05481649336252 
	1281.797571915356912 3653.720403533375247 14413.50437246128604 
	1281.797571915359867 3628.626057796703208 14394.98447176938134 
	1281.797571915362141 3609.423294613241978 14379.07407826643612 
	1281.797571915363505 3597.801679719468666 14368.68842901891003 
	1281.79757191536396 3588.74227160911687 14360.12350428806349 
	1281.79757191536396 3579.84464501325283 14351.39066013925367 
	1281.79757191536487 3564.706231901916908 14335.6756375750374 
	1281.79757191536487 3544.362964773203657 14312.03540578258071 
	1281.797571915366689 3514.728939170288868 14271.88572060390652 
	1281.797571915367598 3487.641987185354083 14224.97057293337821 
	1281.79757191536828 3465.016833488658904 14171.29385603811352 
	1281.797571915368508 3450.299833822415621 14123.58366141081024 
	1281.797571915368508 3442.055821622092935 14082.80128937810514 
	1281.79757191536919 3437.921010730535727 14049.80465660365553 
	1281.797571915368962 3436.057113694008876 14024.93336429912233 
	1281.79757191536919 3435.43535638592266 14000.000073162435 
	1281.797571915368962 3436.264403320694328 13966.75571949249934 
	1281.797571915367598 3441.234529669199674 13917.07506801725685 
	1281.797571915365324 3456.070120964478974 13852.07144923322994 
	1281.797571915361232 3476.623939871318726 13799.70354806756222 
	1281.797571915360777 3493.481882788488292 13766.31111300669181 
	1281.797571915360322 3505.544662040812455 13744.48513709758117 
	1281.797571915359185 3528.774263243860332 13707.51322363230793 
	1281.797571915352364 3557.354096504858717 13671.67476052760139 
	1281.797571915351682 3586.379548940329187 13641.91809867788652 
	1281.797571915349636 3610.756528970444379 13619.29864988249756 
	1281.797571915347362 3643.286640488846842 13593.35758235487629 
	1281.797571915343042 3692.217490122554864 13561.75287992849735 
	1281.797571915333947 3741.026108619644219 13538.24849592062674 
	1281.797571915329627 3788.127890320725783 13521.76854878885388 
	1281.797571915323942 3830.303552641166334 13510.4667335860413 
	1281.797571915312346 3879.542989431251044 13502.10054964188566 
	1281.797571915299841 3935.642790051414522 13498.95007091875596 
	1281.797571915285289 3991.742605391028519 13502.10050754839176 
	1281.797571915269828 4040.982018607623104 13510.46671373280333 
	1281.797571915258231 4083.157719802287829 13521.76841765722202 
	1281.797571915253229 4130.259378153282341 13538.24865767469601 
	1281.797571915226172 4175.313644534976447 13559.94456653253656 
	1281.797571915211165 4212.284021531905637 13583.17667015365805 
	1281.79757191520207 4230.080041621247801 13595.80322561881439 
	1281.797571915200024 4240.041410602190808 13603.30002977418371 
	1281.797571915192975 4259.680481536665866 13618.66326956189187 
	1281.797571915116123 4289.938924752109415 13645.70383805318306 
	1281.797571915047001 4327.379733399732686 13687.60018497511373 
	1281.797571914950822 4359.894224599066547 13733.42510334301187 
	1281.797571914861237 4387.073524992643797 13782.60236980694935 
	1281.797571914744594 4408.575779244664773 13834.51352665813101 
	1281.797571914647278 4424.130727221926463 13888.50577815845099 
	1281.797571914511764 4431.189493860092625 13930.05153536870239 
	1281.797571914493119 4433.938925691987606 13957.96917398100413 
	1281.797571914484251 4434.921763454751272 13971.96104155795729 
	1281.797571914472201 4435.413392210788516 13983.63932191884123 
	1281.797571914469245 4435.585499765602435 13991.81894293005644 
	1281.797571914467881 4435.628526444384988 13995.90935731719219 
	1281.797571914467426 4435.640820165938749 13998.24682310157368 
	1281.797571914467198 4435.642869237851301 13999.4155703563265 
	1281.797571914467198 4435.642869212017104 13999.99994398775743 
	0 
	
	0 
	0 
	85 0 0.004464285714285714038 0.008928571428571428076 0.01785714285714285615 0.02678571428571428423 0.0357142857142857123 0.05357142857142856845 0.0625 0.07142857142857142461 0.08928571428571427382 0.09821428571428569843 0.1026785714285714246 0.1071428571428571369 0.125 0.1428571428571428492 0.1587301587301587213 0.1746031746031745935 0.1785714285714285476 0.1825396825396825295 0.1904761904761904656 0.2142857142857142738 0.226190476190476164 0.238095238095238082 0.2410714285714285476 0.2440476190476190133 0.2470238095238094789 0.2499999999999999722 0.2619047619047618625 0.2738095238095237804 0.2857142857142856984 0.3095238095238095344 0.3333333333333333148 0.3452380952380952328 0.3571428571428570953 0.3690476190476190133 0.3720238095238095344 0.375 0.3809523809523809312 0.3928571428571428492 0.4047619047619047672 0.4285714285714285476 0.4444444444444444198 0.4603174603174602919 0.476190476190476164 0.4841269841269840724 0.4920634920634920362 0.5 0.5079365079365079083 0.5238095238095237249 0.5476190476190475609 0.5714285714285713969 0.5773809523809523281 0.5833333333333332593 0.5952380952380951218 0.6190476190476189577 0.6269841269841269771 0.6349206349206348854 0.650793650793650702 0.6666666666666666297 0.6904761904761904656 0.7023809523809523281 0.7142857142857141906 0.7321428571428569843 0.749999999999999889 0.7678571428571427937 0.7857142857142855874 0.7976190476190474499 0.8095238095238094234 0.8333333333333332593 0.8452380952380951218 0.851190476190476053 0.8541666666666665186 0.8571428571428570953 0.875 0.8928571428571427937 0.9107142857142856984 0.9285714285714286031 0.9464285714285713969 0.9642857142857143016 0.9821428571428572063 0.9866071428571429047 0.9910714285714286031 0.9977678571428572063 0.9988839285714286031 0.9994419642857143016 
	0 
	0 
	0 
	F 1 F 0 F 1 F 0 } I I I I #
tcoedge-coedge $-1 -1 $-1 $14 $14 $18 $19 reversed $9 $20 -6.283185307179586232 -0 #
tcoedge-coedge $-1 -1 $-1 $21 $22 $11 $16 reversed $12 $23 -6.283185307179586232 -0 #
tedge-edge $-1 -1 $-1 $24 0 $24 6.283185307179586232 $15 $25 forward @7 unknown 0.0007375143296482938914 #
pcurve $-1 -1 $-1 0 forward { exppc nurbs 2 periodic 5 
	0 2 1.570796326794896558 2 3.141592653589793116 2 4.712388980384689674 2 6.283185307179586232 2 
	0 500 1 
	-500 500 0.707106781186543798 
	-500 0 1 
	-500 -500 0.7071067811865463515 
	0 -500 1 
	500 -500 0.7071067811865463515 
	500 0 1 
	500 500 0.707106781186543798 
	0 500 1 
	0 
	plane 1281.797571915386925 3935.642797989813516 14000.00000000000182 1 -3.637978807091713027e-15 0 0 0 -1 forward_v I I I I 
	} 0 0 #
tcoedge-coedge $-1 -1 $-1 $22 $21 $14 $19 forward $12 $26 0 6.283185307179586232 #
tedge-edge $-1 -1 $-1 $27 0 $27 6.283185307179586232 $18 $28 forward @7 unknown 0.0007375143300016744107 #
pcurve $-1 -1 $-1 0 forward { exppc nurbs 2 periodic 5 
	-6.283185307179586232 2 -4.712388980384689674 2 -3.141592653589793116 2 -1.570796326794896558 2 0 2 
	0 500 1 
	500 500 0.707106781186543798 
	500 0 1 
	500 -500 0.7071067811865463515 
	0 -500 1 
	-500 -500 0.7071067811865463515 
	-500 0 1 
	-500 500 0.707106781186543798 
	0 500 1 
	0 
	plane 1031.797571915386925 3935.642797989814426 14000.00000000000182 -1 3.637978807091713027e-15 -0 0 0 -1 reverse_v I I I I 
	} 0 0 #
coedge $-1 -1 $-1 $18 $15 $22 $29 reversed $12 $30 #
coedge $-1 -1 $-1 $15 $18 $21 $29 forward $12 $31 #
pcurve $-1 -1 $-1 0 forward { exppc nubs 1 periodic 2 
	-6.283185307179586232 1 -0 1 
	1 1 
	0 1 
	0 
	spline forward { ref 0 } I I I I 
	} 0 0 #
tvertex-vertex $-1 -1 $-1 $16 $32 9.060891577533899456e-05 #
ellipse-curve $-1 -1 $-1 1281.797571915386925 3935.642797989813516 14000.00000000000182 1 -3.637978807091713027e-15 0 1.818989403545856476e-12 500 0 1 I I #
pcurve $-1 -1 $-1 0 forward { exppc nubs 1 periodic 2 
	0 1 6.283185307179586232 1 
	0 0 
	1 0 
	4.411402399551012014e-13 
	spline forward { ref 0 } I I I I 
	} 0 0 #
tvertex-vertex $-1 -1 $-1 $19 $33 9.060891648858730263e-05 #
ellipse-curve $-1 -1 $-1 1031.797571915386925 3935.642797989814426 14000.00000000000182 1 -3.637978807091713027e-15 0 1.818989403545856476e-12 500 0 1 I I #
edge $-1 -1 $-1 $27 0 $24 1 $22 $34 forward @7 tangent #
pcurve $-1 -1 $-1 -1 $34 0 0 #
pcurve $-1 -1 $-1 1 $34 1 0 #
point $-1 -1 $-1 1281.797571915388744 4435.642797989813516 14000.00000000000182 #
point $-1 -1 $-1 1031.797571915388744 4435.642797989814426 14000.00000000000182 #
intcurve-curve $-1 -1 $-1 forward { parcur full nubs 3 open 2 
	0 3 1 3 
	1031.797571914647051 4435.642869212018923 13999.99994398775743 
	1115.130905247980309 4435.642869212018013 13999.99994398775743 
	1198.464238581133941 4435.642869212017104 13999.99994398775743 
	1281.797571914467198 4435.642869212017104 13999.99994398775743 
	0 
	
	spline forward { ref 0 } I I I I 
	null_surface 
	nubs 1 open 2 
	0 1 1 1 
	0 0 
	0 1 
	
	nullbs 
	I I 
	0 
	0 
	0 
	surf1 } I I #
End-of-ACIS-data 