700 0 1 0           
4 LibG 20 ASM 224.0.1.65535 NT 24 Wed Jul 17 14:48:12 2019 
1000 9.999999999999999547e-07 1.000000000000000036e-10 
body $-1 -1 $-1 $1 $-1 $2 #
lump $-1 -1 $-1 $-1 $3 $0 #
transform $-1 -1 1 0 0 0 1 0 0 0 1 0 0 0 1 no_rotate no_reflect no_shear #
shell $-1 -1 $-1 $-1 $-1 $4 $-1 $1 #
face $-1 -1 $-1 $5 $6 $3 $-1 $7 forward single #
face $-1 -1 $-1 $8 $9 $3 $-1 $10 reversed single #
loop $-1 -1 $-1 $-1 $11 $4 #
plane-surface $-1 -1 $-1 -1468.202428084613075 3935.642797989823521 14000.00000000000182 1 -3.637978807091713027e-15 0 0 0 -1 forward_v I I I I #
face $-1 -1 $-1 $-1 $12 $3 $-1 $13 forward single #
loop $-1 -1 $-1 $-1 $14 $5 #
plane-surface $-1 -1 $-1 -1718.202428084613075 3935.64279798982443 14000.00000000000182 1 -3.637978807091713027e-15 0 0 0 -1 forward_v I I I I #
tcoedge-coedge $-1 -1 $-1 $11 $11 $15 $16 forward $6 $17 0 6.283185307179586232 #
loop $-1 -1 $-1 $-1 $18 $8 #
spline-surface $-1 -1 $-1 forward { exactsur full nubs 3 3 periodic open none none 84 2 
	0 3 0.002232142857142857019 1 0.004464285714285714038 1 0.008928571428571428076 1 0.01785714285714285615 1 
	0.0357142857142857123 1 0.05357142857142856845 1 0.0625 1 0.0669642857142857123 1 0.07142857142857142461 1 
	0.08928571428571427382 1 0.1071428571428571369 1 0.125 1 0.1428571428571428492 1 0.1587301587301587213 1 
	0.1746031746031745935 1 0.1825396825396825295 1 0.1904761904761904656 1 0.2023809523809523836 1 0.2142857142857142738 1 
	0.238095238095238082 1 0.2619047619047618625 1 0.2857142857142856984 1 0.3095238095238095344 1 0.3333333333333333148 1 
	0.3340773809523809312 1 0.3348214285714286031 1 0.336309523809523836 1 0.3377976190476190688 1 0.3392857142857143016 1 
	0.3452380952380952328 1 0.3571428571428570953 1 0.3690476190476190133 1 0.3720238095238095344 1 0.375 1 
	0.3779761904761904656 1 0.3809523809523809312 1 0.4047619047619047672 1 0.4166666666666666297 1 0.4285714285714285476 1 
	0.4444444444444444198 1 0.4603174603174602919 1 0.4682539682539682557 1 0.476190476190476164 1 0.4920634920634920362 1 
	0.5079365079365079083 1 0.5238095238095237249 1 0.5357142857142855874 1 0.5476190476190475609 1 0.5595238095238095344 1 
	0.5714285714285713969 1 0.5952380952380951218 1 0.6071428571428569843 1 0.6190476190476189577 1 0.6349206349206348854 1 
	0.650793650793650702 1 0.6666666666666666297 1 0.6785714285714286031 1 0.6904761904761904656 1 0.7023809523809523281 1 
	0.7142857142857141906 1 0.7232142857142855874 1 0.7321428571428569843 1 0.749999999999999889 1 0.7678571428571427937 1 
	0.7857142857142855874 1 0.7976190476190474499 1 0.8095238095238094234 1 0.8333333333333332593 1 0.8571428571428570953 1 
	0.875 1 0.8928571428571427937 1 0.9107142857142856984 1 0.9285714285714286031 1 0.9464285714285713969 1 
	0.9642857142857143016 1 0.9821428571428572063 1 0.9910714285714286031 1 0.9955357142857143016 1 0.9977678571428572063 1 
	0.9988839285714286031 1 0.9994419642857143016 1 0.9997209821428572063 1 1 3 
	0 3 1 3 
	-1718.202428074580666 4435.642855539847005 13999.99990332502421 
	-1718.202428074581576 4435.642855515541669 14002.3373978591062 
	-1718.202428074613636 4435.610069139548614 14007.01238661246316 
	-1718.202428074644331 4435.413387379328015 14016.36052647325596 
	-1718.202428074787349 4434.725039583901889 14032.71011018402351 
	-1718.202428075256194 4431.973752446388062 14065.33209976765102 
	-1718.202428076620663 4424.130867987882084 14111.49410827421161 
	-1718.202428077816649 4411.16809794535402 14156.48752487976526 
	-1718.202428078197499 4399.492798691220742 14187.07267408651205 
	-1718.202428078282992 4392.094307118845791 14204.2487987542172 
	-1718.202428078415323 4380.278527139930702 14229.69169837892878 
	-1718.202428079382116 4359.89419426197037 14266.57468396900185 
	-1718.202428080097434 4327.379570014254568 14312.39951618838131 
	-1718.202428080964864 4289.938835842829576 14354.29591892481585 
	-1718.202428081632661 4249.594071309765241 14390.3498038246762 
	-1718.202428082288634 4207.366020337363807 14420.70973021502869 
	-1718.202428082391179 4171.333116012940991 14441.5132000690719 
	-1718.202428082500091 4141.371504487304264 14455.94151307684479 
	-1718.202428082616962 4114.55864098082111 14467.24451796593166 
	-1718.202428082696088 4083.157778049327135 14478.23161907419308 
	-1718.202428082857978 4034.956982550242174 14491.14850740258044 
	-1718.202428083024643 3973.147686857470035 14500.46617392406188 
	-1718.202428083341829 3898.138063489554497 14500.46539311887864 
	-1718.202428083567384 3823.966534116682851 14489.28611431825266 
	-1718.202428083766108 3752.28951245832468 14467.17644747439772 
	-1718.202428083925952 3706.53148525731558 14445.14066581007137 
	-1718.202428083947552 3683.620168118020047 14431.84100984500037 
	-1718.202428083947098 3680.932042901757086 14430.26379708988861 
	-1718.202428083949371 3677.585777935889837 14428.26873008763141 
	-1718.202428083950508 3673.59281205167963 14425.83722329500597 
	-1718.202428083953237 3665.652707989211194 14420.89973883734456 
	-1718.202428083981658 3648.701042422519549 14409.80095417319899 
	-1718.202428084005078 3623.606900580453384 14391.28068235031969 
	-1718.202428084038274 3602.330981183080894 14372.97123295811616 
	-1718.20242808404214 3588.741911291460838 14360.12381740943238 
	-1718.202428084043504 3582.068632153023373 14353.57422672431312 
	-1718.202428084044641 3575.51907103270878 14346.90093052851262 
	-1718.202428084049643 3554.106392461809264 14324.25273076962367 
	-1718.202428084098983 3528.774555561453326 14292.48662122258065 
	-1718.202428084111034 3502.226407886254037 14250.23308035052651 
	-1718.202428084132862 3482.794666947523638 14213.46795750523597 
	-1718.202428084147186 3465.016884454352294 14171.29384778827625 
	-1718.202428084155827 3452.753217427684831 14131.53514076933971 
	-1718.202428084156963 3445.353631871745165 14099.11412443303743 
	-1718.202428084158555 3439.578735667554156 14066.36469260778904 
	-1718.202428084152643 3435.435772866585921 14024.96430581222194 
	-1718.202428084149233 3435.43602296506333 13975.03571658124019 
	-1718.2024280841365 3439.992835917908906 13929.49526009007968 
	-1718.202428084118765 3447.72426572711629 13888.63578498292736 
	-1718.202428084101257 3457.410493649731961 13852.48482764461733 
	-1718.202428084080793 3469.772111388833309 13817.15928651602553 
	-1718.202428084047597 3489.725724903254104 13771.42062819163948 
	-1718.202428084009625 3514.728706771085399 13728.11416922284116 
	-1718.202428083957329 3544.362739454631082 13687.9645089559981 
	-1718.202428083922769 3571.487163390620935 13656.44420286853529 
	-1718.202428083822497 3604.250952517344103 13624.48738499366118 
	-1718.202428083779296 3643.286758876604381 13593.35754733348767 
	-1718.202428083713357 3681.732904833669636 13568.52628197954073 
	-1718.202428083625819 3718.498568059873378 13549.09539027754909 
	-1718.202428083590348 3752.801815613887811 13534.12884926726292 
	-1718.202428083488257 3788.127696757353988 13521.7678822681537 
	-1718.202428083405721 3821.265928504426029 13512.88848286425491 
	-1718.202428083340692 3851.845719898210064 13506.80597850303275 
	-1718.202428083271343 3888.892933451295448 13501.57540487855658 
	-1718.202428083000314 3935.642742064215327 13498.9497656871954 
	-1718.202428082739289 3991.742572849438602 13502.10040135232521 
	-1718.202428082433016 4040.981987292624126 13510.46651631452914 
	-1718.202428082227016 4083.157691007084395 13521.76832895651933 
	-1718.202428082118104 4130.25933757103121 13538.24838467243899 
	-1718.202428081866401 4186.577604746736142 13565.3680035949892 
	-1718.202428081339804 4243.387814416260881 13604.1024498353745 
	-1718.202428080912114 4289.938790297078413 13645.70390782323739 
	-1718.202428080036498 4327.379805934934666 13687.60002787807935 
	-1718.20242807927616 4359.894208415411413 13733.42506125495311 
	-1718.202428078376442 4387.073561896668252 13782.60228666569674 
	-1718.202428077355762 4408.575785208690831 13834.51347485226688 
	-1718.202428076354408 4424.130787097843495 13888.50571547813161 
	-1718.202428075132957 4431.973787910630563 13934.66769025657959 
	-1718.202428074745512 4434.725036462137723 13967.2896972227245 
	-1718.20242807462364 4435.413389805799852 13983.63927946108197 
	-1718.202428074593399 4435.585484040144365 13991.81890253119309 
	-1718.20242807458385 4435.628513123418998 13995.90931658380578 
	-1718.202428074582258 4435.639269818413595 13997.95459920509711 
	-1718.202428074580666 4435.642343262596114 13999.12334286982514 
	-1718.202428074580439 4435.642855542885627 13999.70771650826464 
	-1718.202428074580666 4435.642855539847005 13999.99990332502421 
	-1634.869094741247409 4435.642855539846096 13999.99990332502421 
	-1634.869094741248318 4435.642855515540759 14002.3373978591062 
	-1634.869094741280605 4435.610069139547704 14007.01238661246316 
	-1634.869094741311073 4435.413387379327105 14016.36052647325596 
	-1634.869094741454091 4434.72503958390098 14032.71011018402351 
	-1634.869094741922936 4431.973752446387152 14065.33209976765102 
	-1634.869094743287405 4424.130867987881174 14111.49410827421161 
	-1634.869094744483391 4411.168097945353111 14156.48752487976526 
	-1634.869094744864242 4399.492798691219832 14187.07267408651205 
	-1634.869094744949734 4392.094307118844881 14204.2487987542172 
	-1634.869094745082066 4380.278527139929793 14229.69169837892878 
	-1634.869094746048859 4359.89419426196946 14266.57468396900185 
	-1634.869094746764176 4327.379570014253659 14312.39951618838131 
	-1634.869094747631607 4289.938835842828667 14354.29591892481585 
	-1634.869094748299176 4249.594071309764331 14390.3498038246762 
	-1634.869094748955376 4207.366020337362897 14420.70973021502869 
	-1634.869094749057922 4171.333116012940081 14441.5132000690719 
	-1634.869094749166834 4141.371504487303355 14455.94151307684479 
	-1634.869094749283704 4114.558640980820201 14467.24451796593166 
	-1634.869094749363057 4083.15777804932668 14478.23161907419308 
	-1634.869094749524493 4034.956982550241719 14491.14850740258044 
	-1634.869094749691612 3973.14768685746958 14500.46617392406188 
	-1634.869094750008571 3898.138063489554042 14500.46539311887864 
	-1634.869094750234126 3823.966534116682396 14489.28611431825266 
	-1634.869094750432851 3752.289512458324225 14467.17644747439772 
	-1634.869094750592694 3706.531485257315126 14445.14066581007137 
	-1634.869094750614295 3683.620168118019592 14431.84100984500037 
	-1634.86909475061384 3680.932042901756631 14430.26379708988861 
	-1634.869094750616114 3677.585777935889382 14428.26873008763141 
	-1634.869094750617251 3673.592812051679175 14425.83722329500597 
	-1634.869094750619979 3665.652707989210739 14420.89973883734456 
	-1634.869094750648401 3648.701042422519095 14409.80095417319899 
	-1634.869094750672048 3623.60690058045293 14391.28068235031969 
	-1634.869094750704789 3602.330981183080439 14372.97123295811616 
	-1634.869094750708882 3588.741911291460383 14360.12381740943238 
	-1634.869094750710246 3582.068632153022918 14353.57422672431312 
	-1634.869094750711383 3575.519071032708325 14346.90093052851262 
	-1634.869094750716386 3554.106392461808809 14324.25273076962367 
	-1634.869094750765726 3528.774555561452871 14292.48662122258065 
	-1634.869094750777776 3502.226407886253583 14250.23308035052651 
	-1634.869094750799604 3482.794666947523183 14213.46795750523597 
	-1634.869094750813929 3465.016884454351839 14171.29384778827625 
	-1634.869094750822569 3452.753217427684376 14131.53514076933971 
	-1634.869094750823706 3445.35363187174471 14099.11412443303743 
	-1634.869094750825298 3439.578735667553701 14066.36469260778904 
	-1634.869094750819386 3435.435772866585467 14024.96430581222194 
	-1634.869094750815975 3435.436022965062875 13975.03571658124019 
	-1634.869094750803242 3439.992835917908451 13929.49526009007968 
	-1634.869094750785507 3447.724265727115835 13888.63578498292736 
	-1634.869094750767999 3457.410493649731507 13852.48482764461733 
	-1634.869094750747536 3469.772111388832855 13817.15928651602553 
	-1634.869094750714339 3489.725724903253649 13771.42062819163948 
	-1634.869094750676368 3514.728706771084944 13728.11416922284116 
	-1634.869094750624072 3544.362739454630628 13687.9645089559981 
	-1634.869094750589511 3571.487163390620481 13656.44420286853529 
	-1634.869094750489239 3604.250952517343649 13624.48738499366118 
	-1634.869094750446038 3643.286758876603926 13593.35754733348767 
	-1634.8690947503801 3681.732904833669181 13568.52628197954073 
	-1634.869094750292561 3718.498568059872923 13549.09539027754909 
	-1634.869094750257091 3752.801815613887356 13534.12884926726292 
	-1634.869094750155 3788.127696757353533 13521.7678822681537 
	-1634.869094750072463 3821.265928504425574 13512.88848286425491 
	-1634.869094750007434 3851.845719898209609 13506.80597850303275 
	-1634.869094749938085 3888.892933451294994 13501.57540487855658 
	-1634.869094749667056 3935.642742064214872 13498.9497656871954 
	-1634.869094749406031 3991.742572849438147 13502.10040135232521 
	-1634.869094749099759 4040.981987292623671 13510.46651631452914 
	-1634.869094748893758 4083.15769100708394 13521.76832895651933 
	-1634.869094748784846 4130.259337571030301 13538.24838467243899 
	-1634.869094748533144 4186.577604746735233 13565.3680035949892 
	-1634.869094748006546 4243.387814416259971 13604.1024498353745 
	-1634.869094747578856 4289.938790297077503 13645.70390782323739 
	-1634.869094746703468 4327.379805934933756 13687.60002787807935 
	-1634.869094745942675 4359.894208415410503 13733.42506125495311 
	-1634.869094745043185 4387.073561896667343 13782.60228666569674 
	-1634.869094744022277 4408.575785208689922 13834.51347485226688 
	-1634.869094743021378 4424.130787097842585 13888.50571547813161 
	-1634.869094741799472 4431.973787910629653 13934.66769025657959 
	-1634.869094741412482 4434.725036462136813 13967.2896972227245 
	-1634.869094741290382 4435.413389805798943 13983.63927946108197 
	-1634.869094741260142 4435.585484040143456 13991.81890253119309 
	-1634.869094741250592 4435.628513123418088 13995.90931658380578 
	-1634.869094741249 4435.639269818412686 13997.95459920509711 
	-1634.869094741247409 4435.642343262595205 13999.12334286982514 
	-1634.869094741247181 4435.642855542884718 13999.70771650826464 
	-1634.869094741247409 4435.642855539846096 13999.99990332502421 
	-1551.535761409373663 4435.642855539847005 13999.99990332502421 
	-1551.535761409374572 4435.642855515541669 14002.3373978591062 
	-1551.535761409402312 4435.610069139548614 14007.01238661246316 
	-1551.535761409428233 4435.413387379328015 14016.36052647325596 
	-1551.535761409550332 4434.725039583901889 14032.71011018402351 
	-1551.535761409951192 4431.973752446387152 14065.33209976765102 
	-1551.535761411116709 4424.130867987882084 14111.49410827421161 
	-1551.535761412138982 4411.168097945353111 14156.48752487976526 
	-1551.535761412463899 4399.492798691219832 14187.07267408651205 
	-1551.535761412537113 4392.094307118843972 14204.2487987542172 
	-1551.535761412650345 4380.278527139929793 14229.69169837892878 
	-1551.535761413476621 4359.89419426196946 14266.57468396900185 
	-1551.535761414087801 4327.379570014253659 14312.39951618838131 
	-1551.535761414828812 4289.938835842827757 14354.29591892481585 
	-1551.535761415399065 4249.594071309763422 14390.3498038246762 
	-1551.535761415959996 4207.366020337361988 14420.70973021502869 
	-1551.535761416047535 4171.333116012939172 14441.5132000690719 
	-1551.535761416140758 4141.371504487301536 14455.94151307684479 
	-1551.535761416240348 4114.558640980818382 14467.24451796593166 
	-1551.535761416307878 4083.157778049325771 14478.23161907419308 
	-1551.535761416447031 4034.956982550241264 14491.14850740258044 
	-1551.535761416588912 3973.14768685746867 14500.46617392406188 
	-1551.535761416860169 3898.138063489554042 14500.46539311887864 
	-1551.535761417052981 3823.966534116682396 14489.28611431825266 
	-1551.535761417222602 3752.28951245832468 14467.17644747439772 
	-1551.535761417358799 3706.531485257315126 14445.14066581007137 
	-1551.535761417378126 3683.620168118019137 14431.84100984500037 
	-1551.535761417377671 3680.932042901756176 14430.26379708988861 
	-1551.535761417379717 3677.585777935889837 14428.26873008763141 
	-1551.535761417380627 3673.592812051679175 14425.83722329500597 
	-1551.535761417382901 3665.652707989210285 14420.89973883734456 
	-1551.53576141740723 3648.70104242251864 14409.80095417319899 
	-1551.535761417427011 3623.60690058045202 14391.28068235031969 
	-1551.53576141745566 3602.330981183080439 14372.97123295811616 
	-1551.535761417458616 3588.741911291460383 14360.12381740943238 
	-1551.535761417460208 3582.068632153023373 14353.57422672431312 
	-1551.53576141746089 3575.519071032708325 14346.90093052851262 
	-1551.535761417464983 3554.106392461808355 14324.25273076962367 
	-1551.535761417507047 3528.774555561453326 14292.48662122258065 
	-1551.535761417517278 3502.226407886254037 14250.23308035052651 
	-1551.535761417535923 3482.794666947523183 14213.46795750523597 
	-1551.535761417548201 3465.016884454352748 14171.29384778827625 
	-1551.535761417555705 3452.753217427685286 14131.53514076933971 
	-1551.535761417556841 3445.35363187174562 14099.11412443303743 
	-1551.535761417557978 3439.578735667554156 14066.36469260778904 
	-1551.535761417552749 3435.435772866586376 14024.96430581222194 
	-1551.535761417550248 3435.436022965063785 13975.03571658124019 
	-1551.535761417539334 3439.99283591790936 13929.49526009007968 
	-1551.535761417524327 3447.724265727116745 13888.63578498292736 
	-1551.535761417509548 3457.410493649732416 13852.48482764461733 
	-1551.535761417492267 3469.772111388833764 13817.15928651602553 
	-1551.535761417463618 3489.725724903254559 13771.42062819163948 
	-1551.535761417431331 3514.728706771085854 13728.11416922284116 
	-1551.535761417386311 3544.362739454630628 13687.9645089559981 
	-1551.535761417356753 3571.48716339062139 13656.44420286853529 
	-1551.535761417271033 3604.250952517344558 13624.48738499366118 
	-1551.535761417234198 3643.286758876604836 13593.35754733348767 
	-1551.53576141717781 3681.732904833670091 13568.52628197954073 
	-1551.535761417103231 3718.498568059873833 13549.09539027754909 
	-1551.535761417072763 3752.801815613888266 13534.12884926726292 
	-1551.535761416985451 3788.127696757354443 13521.7678822681537 
	-1551.535761416914966 3821.265928504426029 13512.88848286425491 
	-1551.535761416859032 3851.845719898210518 13506.80597850303275 
	-1551.535761416799915 3888.892933451295448 13501.57540487855658 
	-1551.535761416567993 3935.642742064215327 13498.9497656871954 
	-1551.535761416345167 3991.742572849438147 13502.10040135232521 
	-1551.53576141608346 4040.981987292623671 13510.46651631452914 
	-1551.535761415907245 4083.15769100708394 13521.76832895651933 
	-1551.535761415814477 4130.259337571030301 13538.24838467243899 
	-1551.535761415599154 4186.577604746736142 13565.3680035949892 
	-1551.535761415149182 4243.387814416259971 13604.1024498353745 
	-1551.535761414783792 4289.938790297078413 13645.70390782323739 
	-1551.535761414035505 4327.379805934934666 13687.60002787807935 
	-1551.535761413386126 4359.894208415411413 13733.42506125495311 
	-1551.535761412616921 4387.073561896668252 13782.60228666569674 
	-1551.53576141174517 4408.575785208690831 13834.51347485226688 
	-1551.535761410888881 4424.130787097843495 13888.50571547813161 
	-1551.535761409845691 4431.973787910629653 13934.66769025657959 
	-1551.53576140951418 4434.725036462137723 13967.2896972227245 
	-1551.535761409410725 4435.413389805799852 13983.63927946108197 
	-1551.535761409384122 4435.585484040144365 13991.81890253119309 
	-1551.535761409376391 4435.628513123418998 13995.90931658380578 
	-1551.5357614093748 4435.639269818413595 13997.95459920509711 
	-1551.535761409373436 4435.642343262596114 13999.12334286982514 
	-1551.535761409373663 4435.642855542885627 13999.70771650826464 
	-1551.535761409373663 4435.642855539847005 13999.99990332502421 
	-1468.202428076040405 4435.642855539847005 13999.99990332502421 
	-1468.202428076041315 4435.642855515541669 14002.3373978591062 
	-1468.202428076069054 4435.610069139548614 14007.01238661246316 
	-1468.202428076094975 4435.413387379328015 14016.36052647325596 
	-1468.202428076217075 4434.725039583901889 14032.71011018402351 
	-1468.202428076617934 4431.973752446387152 14065.33209976765102 
	-1468.202428077783452 4424.130867987882084 14111.49410827421161 
	-1468.202428078805724 4411.168097945353111 14156.48752487976526 
	-1468.202428079130641 4399.492798691219832 14187.07267408651205 
	-1468.202428079203855 4392.094307118843972 14204.2487987542172 
	-1468.202428079317087 4380.278527139929793 14229.69169837892878 
	-1468.202428080143363 4359.89419426196946 14266.57468396900185 
	-1468.202428080754544 4327.379570014253659 14312.39951618838131 
	-1468.202428081495555 4289.938835842827757 14354.29591892481585 
	-1468.202428082065808 4249.594071309763422 14390.3498038246762 
	-1468.202428082626739 4207.366020337361988 14420.70973021502869 
	-1468.202428082714277 4171.333116012939172 14441.5132000690719 
	-1468.202428082807501 4141.371504487301536 14455.94151307684479 
	-1468.20242808290709 4114.558640980818382 14467.24451796593166 
	-1468.202428082974848 4083.157778049325316 14478.23161907419308 
	-1468.202428083113546 4034.956982550240809 14491.14850740258044 
	-1468.202428083255882 3973.147686857468216 14500.46617392406188 
	-1468.202428083526684 3898.138063489553588 14500.46539311887864 
	-1468.202428083719724 3823.966534116681942 14489.28611431825266 
	-1468.202428083889345 3752.289512458324225 14467.17644747439772 
	-1468.202428084025541 3706.531485257314671 14445.14066581007137 
	-1468.202428084044868 3683.620168118018682 14431.84100984500037 
	-1468.202428084044413 3680.932042901755722 14430.26379708988861 
	-1468.20242808404646 3677.585777935889382 14428.26873008763141 
	-1468.202428084047369 3673.59281205167872 14425.83722329500597 
	-1468.202428084049643 3665.65270798920983 14420.89973883734456 
	-1468.202428084073972 3648.701042422518185 14409.80095417319899 
	-1468.202428084093981 3623.606900580451565 14391.28068235031969 
	-1468.202428084122175 3602.330981183079984 14372.97123295811616 
	-1468.202428084125359 3588.741911291459928 14360.12381740943238 
	-1468.20242808412695 3582.068632153022918 14353.57422672431312 
	-1468.202428084127632 3575.51907103270787 14346.90093052851262 
	-1468.202428084131725 3554.1063924618079 14324.25273076962367 
	-1468.202428084173789 3528.774555561452871 14292.48662122258065 
	-1468.202428084184021 3502.226407886253583 14250.23308035052651 
	-1468.202428084202666 3482.794666947522728 14213.46795750523597 
	-1468.202428084214944 3465.016884454352294 14171.29384778827625 
	-1468.202428084222447 3452.753217427684831 14131.53514076933971 
	-1468.202428084223584 3445.353631871745165 14099.11412443303743 
	-1468.202428084224721 3439.578735667553701 14066.36469260778904 
	-1468.202428084219491 3435.435772866585921 14024.96430581222194 
	-1468.20242808421699 3435.43602296506333 13975.03571658124019 
	-1468.202428084206076 3439.992835917908906 13929.49526009007968 
	-1468.20242808419107 3447.72426572711629 13888.63578498292736 
	-1468.20242808417629 3457.410493649731961 13852.48482764461733 
	-1468.20242808415901 3469.772111388833309 13817.15928651602553 
	-1468.202428084130361 3489.725724903254104 13771.42062819163948 
	-1468.202428084098074 3514.728706771085399 13728.11416922284116 
	-1468.202428084053054 3544.362739454630173 13687.9645089559981 
	-1468.202428084023495 3571.487163390620935 13656.44420286853529 
	-1468.202428083937775 3604.250952517344103 13624.48738499366118 
	-1468.202428083900941 3643.286758876604381 13593.35754733348767 
	-1468.202428083844552 3681.732904833669636 13568.52628197954073 
	-1468.202428083769973 3718.498568059873378 13549.09539027754909 
	-1468.202428083739505 3752.801815613887811 13534.12884926726292 
	-1468.202428083652194 3788.127696757353988 13521.7678822681537 
	-1468.202428083581708 3821.265928504425574 13512.88848286425491 
	-1468.202428083525774 3851.845719898210064 13506.80597850303275 
	-1468.202428083466657 3888.892933451294994 13501.57540487855658 
	-1468.202428083234736 3935.642742064214872 13498.9497656871954 
	-1468.20242808301191 3991.742572849437693 13502.10040135232521 
	-1468.202428082750203 4040.981987292623216 13510.46651631452914 
	-1468.202428082573988 4083.157691007083486 13521.76832895651933 
	-1468.202428082481219 4130.259337571030301 13538.24838467243899 
	-1468.202428082265897 4186.577604746736142 13565.3680035949892 
	-1468.202428081815924 4243.387814416259971 13604.1024498353745 
	-1468.202428081450535 4289.938790297078413 13645.70390782323739 
	-1468.202428080702475 4327.379805934934666 13687.60002787807935 
	-1468.202428080052641 4359.894208415411413 13733.42506125495311 
	-1468.202428079283663 4387.073561896668252 13782.60228666569674 
	-1468.202428078411685 4408.575785208690831 13834.51347485226688 
	-1468.202428077555851 4424.130787097843495 13888.50571547813161 
	-1468.202428076512206 4431.973787910629653 13934.66769025657959 
	-1468.20242807618115 4434.725036462137723 13967.2896972227245 
	-1468.202428076077467 4435.413389805799852 13983.63927946108197 
	-1468.202428076050865 4435.585484040144365 13991.81890253119309 
	-1468.202428076043134 4435.628513123418998 13995.90931658380578 
	-1468.202428076041542 4435.639269818413595 13997.95459920509711 
	-1468.202428076040178 4435.642343262596114 13999.12334286982514 
	-1468.202428076040405 4435.642855542885627 13999.70771650826464 
	-1468.202428076040405 4435.642855539847005 13999.99990332502421 
	0 
	
	0 
	0 
	83 0 0.002232142857142857019 0.004464285714285714038 0.008928571428571428076 0.01785714285714285615 0.0357142857142857123 0.05357142857142856845 0.0625 0.0669642857142857123 0.07142857142857142461 0.08928571428571427382 0.1071428571428571369 0.125 0.1428571428571428492 0.1587301587301587213 0.1746031746031745935 0.1825396825396825295 0.1904761904761904656 0.2023809523809523836 0.2142857142857142738 0.238095238095238082 0.2619047619047618625 0.2857142857142856984 0.3095238095238095344 0.3333333333333333148 0.3340773809523809312 0.3348214285714286031 0.336309523809523836 0.3377976190476190688 0.3392857142857143016 0.3452380952380952328 0.3571428571428570953 0.3690476190476190133 0.3720238095238095344 0.375 0.3779761904761904656 0.3809523809523809312 0.4047619047619047672 0.4166666666666666297 0.4285714285714285476 0.4444444444444444198 0.4603174603174602919 0.4682539682539682557 0.476190476190476164 0.4920634920634920362 0.5079365079365079083 0.5238095238095237249 0.5357142857142855874 0.5476190476190475609 0.5595238095238095344 0.5714285714285713969 0.5952380952380951218 0.6071428571428569843 0.6190476190476189577 0.6349206349206348854 0.650793650793650702 0.6666666666666666297 0.6785714285714286031 0.6904761904761904656 0.7023809523809523281 0.7142857142857141906 0.7232142857142855874 0.7321428571428569843 0.749999999999999889 0.7678571428571427937 0.7857142857142855874 0.7976190476190474499 0.8095238095238094234 0.8333333333333332593 0.8571428571428570953 0.875 0.8928571428571427937 0.9107142857142856984 0.9285714285714286031 0.9464285714285713969 0.9642857142857143016 0.9821428571428572063 0.9910714285714286031 0.9955357142857143016 0.9977678571428572063 0.9988839285714286031 0.9994419642857143016 0.9997209821428572063 
	0 
	0 
	0 
	F 1 F 0 F 1 F 0 } I I I I #
tcoedge-coedge $-1 -1 $-1 $14 $14 $18 $19 reversed $9 $20 -6.283185307179586232 -0 #
tcoedge-coedge $-1 -1 $-1 $21 $22 $11 $16 reversed $12 $23 -6.283185307179586232 -0 #
tedge-edge $-1 -1 $-1 $24 0 $24 6.283185307179586232 $15 $25 forward @7 unknown 0.0006538954541058675327 #
pcurve $-1 -1 $-1 0 forward { exppc nurbs 2 periodic 5 
	0 2 1.570796326794896558 2 3.141592653589793116 2 4.712388980384689674 2 6.283185307179586232 2 
	0 500 1 
	-500 500 0.707106781186543798 
	-500 0 1 
	-500 -500 0.7071067811865463515 
	0 -500 1 
	500 -500 0.7071067811865463515 
	500 0 1 
	500 500 0.707106781186543798 
	0 500 1 
	0 
	plane -1468.202428084613075 3935.642797989823521 14000.00000000000182 1 -3.637978807091713027e-15 0 0 0 -1 forward_v I I I I 
	} 0 0 #
tcoedge-coedge $-1 -1 $-1 $22 $21 $14 $19 forward $12 $26 0 6.283185307179586232 #
tedge-edge $-1 -1 $-1 $27 0 $27 6.283185307179586232 $18 $28 forward @7 unknown 0.0006538954529881647057 #
pcurve $-1 -1 $-1 0 forward { exppc nurbs 2 periodic 5 
	-6.283185307179586232 2 -4.712388980384689674 2 -3.141592653589793116 2 -1.570796326794896558 2 0 2 
	0 500 1 
	500 500 0.707106781186543798 
	500 0 1 
	500 -500 0.7071067811865463515 
	0 -500 1 
	-500 -500 0.7071067811865463515 
	-500 0 1 
	-500 500 0.707106781186543798 
	0 500 1 
	0 
	plane -1718.202428084613075 3935.64279798982443 14000.00000000000182 -1 3.637978807091713027e-15 -0 0 0 -1 reverse_v I I I I 
	} 0 0 #
coedge $-1 -1 $-1 $18 $15 $22 $29 reversed $12 $30 #
coedge $-1 -1 $-1 $15 $18 $21 $29 forward $12 $31 #
pcurve $-1 -1 $-1 0 forward { exppc nubs 1 periodic 2 
	-6.283185307179586232 1 -0 1 
	1 1 
	0 1 
	0 
	spline forward { ref 0 } I I I I 
	} 0 0 #
tvertex-vertex $-1 -1 $-1 $16 $32 0.0001125080389264595772 #
ellipse-curve $-1 -1 $-1 -1468.202428084613075 3935.642797989823521 14000.00000000000182 1 -3.637978807091713027e-15 0 1.818989403545856476e-12 500 0 1 I I #
pcurve $-1 -1 $-1 0 forward { exppc nubs 1 periodic 2 
	0 1 6.283185307179586232 1 
	0 0 
	1 0 
	4.411402399551012014e-13 
	spline forward { ref 0 } I I I I 
	} 0 0 #
tvertex-vertex $-1 -1 $-1 $19 $33 0.0001125080385819080279 #
ellipse-curve $-1 -1 $-1 -1718.202428084613075 3935.64279798982443 14000.00000000000182 1 -3.637978807091713027e-15 0 1.818989403545856476e-12 500 0 1 I I #
edge $-1 -1 $-1 $27 0 $24 0.9999999999657166461 $22 $34 forward @7 tangent #
pcurve $-1 -1 $-1 -1 $34 0 0 #
pcurve $-1 -1 $-1 1 $34 1 0 #
point $-1 -1 $-1 -1468.202428084611256 4435.642797989823521 14000.00000000000182 #
point $-1 -1 $-1 -1718.202428084611256 4435.64279798982443 14000.00000000000182 #
intcurve-curve $-1 -1 $-1 forward { parcur full nubs 3 open 2 
	0 3 1 3 
	-1718.202428074580666 4435.642855539847005 13999.99990332502421 
	-1634.869094741247409 4435.642855539846096 13999.99990332502421 
	-1551.535761409373663 4435.642855539847005 13999.99990332502421 
	-1468.202428076040405 4435.642855539847005 13999.99990332502421 
	0 
	
	spline forward { ref 0 } I I I I 
	null_surface 
	nubs 1 open 2 
	0 1 1 1 
	0 0 
	0 1 
	
	nullbs 
	I I 
	0 
	0 
	0 
	surf1 } F 0 F 0.9999999999657166461 #
End-of-ACIS-data 