700 0 1 0           
4 LibG 20 ASM 224.0.1.65535 NT 24 Wed Jul 17 14:48:14 2019 
1000 9.999999999999999547e-07 1.000000000000000036e-10 
body $-1 -1 $-1 $1 $-1 $2 #
lump $-1 -1 $-1 $-1 $3 $0 #
transform $-1 -1 1 0 0 0 1 0 0 0 1 0 0 0 1 no_rotate no_reflect no_shear #
shell $-1 -1 $-1 $-1 $-1 $4 $-1 $1 #
face $-1 -1 $-1 $5 $6 $3 $-1 $7 forward single #
face $-1 -1 $-1 $8 $9 $3 $-1 $10 reversed single #
loop $-1 -1 $-1 $-1 $11 $4 #
plane-surface $-1 -1 $-1 6031.79757191538738 3935.642797989796236 14000.00000000000182 1 -3.637978807091713027e-15 0 0 0 -1 forward_v I I I I #
face $-1 -1 $-1 $-1 $12 $3 $-1 $13 forward single #
loop $-1 -1 $-1 $-1 $14 $5 #
plane-surface $-1 -1 $-1 5781.79757191538738 3935.642797989797145 14000.00000000000182 1 -3.637978807091713027e-15 0 0 0 -1 forward_v I I I I #
tcoedge-coedge $-1 -1 $-1 $11 $11 $15 $16 forward $6 $17 0 6.283185307179586232 #
loop $-1 -1 $-1 $-1 $18 $8 #
spline-surface $-1 -1 $-1 forward { exactsur full nubs 3 3 periodic open none none 90 2 
	0 3 0.001116071428571428509 1 0.002232142857142857019 1 0.004464285714285714038 1 0.008928571428571428076 1 
	0.01785714285714285615 1 0.0357142857142857123 1 0.05357142857142856845 1 0.07142857142857142461 1 0.08928571428571427382 1 
	0.1071428571428571369 1 0.1160714285714285754 1 0.125 1 0.1428571428571428492 1 0.1587301587301587213 1 
	0.1746031746031745935 1 0.1904761904761904656 1 0.2023809523809523836 1 0.2142857142857142738 1 0.238095238095238082 1 
	0.2619047619047618625 1 0.2857142857142856984 1 0.2976190476190476164 1 0.3095238095238095344 1 0.3154761904761904656 1 
	0.3214285714285713969 1 0.3333333333333333148 1 0.3452380952380952328 1 0.3571428571428570953 1 0.3690476190476190133 1 
	0.375 1 0.3779761904761904656 1 0.3809523809523809312 1 0.3869047619047618625 1 0.3928571428571428492 1 
	0.4047619047619047672 1 0.4166666666666666297 1 0.4285714285714285476 1 0.4444444444444444198 1 0.4603174603174602919 1 
	0.476190476190476164 1 0.4801587301587301182 1 0.4821428571428570953 1 0.4841269841269840724 1 0.4861111111111110494 1 
	0.4880952380952380265 1 0.4900793650793650036 1 0.4910714285714284921 1 0.4915674603174602364 1 0.491815476190476164 1 
	0.4920634920634920362 1 0.5158730158730158166 1 0.5238095238095237249 1 0.5357142857142855874 1 0.5476190476190475609 1 
	0.5595238095238095344 1 0.5714285714285713969 1 0.5952380952380951218 1 0.6190476190476189577 1 0.6349206349206348854 1 
	0.650793650793650702 1 0.6666666666666666297 1 0.6904761904761904656 1 0.7023809523809523281 1 0.7142857142857141906 1 
	0.7321428571428569843 1 0.749999999999999889 1 0.7678571428571427937 1 0.7857142857142855874 1 0.8095238095238094234 1 
	0.8214285714285713969 1 0.8333333333333332593 1 0.8452380952380951218 1 0.8571428571428570953 1 0.875 1 
	0.8928571428571427937 1 0.9107142857142856984 1 0.9285714285714286031 1 0.9464285714285713969 1 0.9642857142857143016 1 
	0.9732142857142858094 1 0.9821428571428572063 1 0.9910714285714286031 1 0.9955357142857143016 1 0.9977678571428572063 1 
	0.9988839285714286031 1 0.9994419642857143016 1 0.9997209821428572063 1 0.9998604910714286031 1 1 3 
	0 3 1 3 
	5781.797571923618307 4435.642813120292885 14000.0000235370153 
	5781.797571923623764 4435.64281311769264 14001.16877079329606 
	5781.797571923615578 4435.634617758507375 14003.50626528453358 
	5781.797571923611031 4435.585441741275645 14008.1810240514842 
	5781.797571923579198 4435.413347242990312 14016.36064646024715 
	5781.797571923471878 4434.724992455675419 14032.71022518658174 
	5781.797571923119904 4431.973742219891392 14065.33222306945754 
	5781.797571922007592 4424.130717605856262 14111.49414833803348 
	5781.797571921119015 4408.575721234768025 14165.48636757697568 
	5781.797571920147675 4387.073436692658106 14217.39746792767619 
	5781.797571919420079 4359.894161738471666 14266.57473412709624 
	5781.79757191864519 4332.798622028686623 14304.7620443126998 
	5781.797571918462381 4308.659343969737165 14333.34785275028298 
	5781.797571918207723 4282.95607159577321 14360.53604786069991 
	5781.797571918079484 4249.594184209482592 14390.34992806506489 
	5781.797571917531059 4207.365963906149773 14420.70968456678202 
	5781.797571917486493 4164.126537789469694 14445.67387784882158 
	5781.797571917394635 4122.40886487329135 14464.49775953495373 
	5781.797571917334608 4083.157743547243626 14478.23155752664206 
	5781.797571917270034 4034.956951765118902 14491.14851248399827 
	5781.797571917225468 3973.147684225772082 14500.46600836618563 
	5781.797571917175446 3898.137924791325986 14500.4655939076074 
	5781.797571917213645 3836.328573858175787 14491.14871512433638 
	5781.797571917224559 3788.127694388026612 14478.2319786856242 
	5781.797571917290043 3758.689399532780044 14467.93155671743989 
	5781.797571917310961 3735.650082071524139 14458.38811112017356 
	5781.797571917340974 3712.983604734440632 14447.99021537968656 
	5781.797571917433743 3685.409440515255483 14433.41682107097949 
	5781.797571917566529 3653.719858626979203 14413.50492178366767 
	5781.797571917615642 3623.606888392676865 14391.2805752522836 
	5781.797571917705682 3599.966992419853796 14370.93672135315319 
	5781.797571917737514 3584.251848790331678 14355.79850015937518 
	5781.797571917746609 3575.519025871892609 14346.9008341479439 
	5781.797571917755704 3566.954104292392003 14337.84143014777328 
	5781.797571917792993 3556.568418772847053 14326.21982371886406 
	5781.79757191783392 3540.658157406204282 14307.01697477066773 
	5781.797571918031281 3522.137749222107686 14281.92290551491169 
	5781.797571918168615 3502.225993793146699 14250.23326038423329 
	5781.797571918397807 3482.794614367693157 14213.46782216212523 
	5781.797571918830727 3465.016683704363913 14171.29383514393157 
	5781.797571919006259 3450.300048711059844 14123.58336862100077 
	5781.797571920202245 3442.880169121332074 14086.87935880471923 
	5781.797571920333212 3439.755617466304102 14064.23663849024888 
	5781.797571920358678 3438.773574239804475 14055.98360733790105 
	5781.797571920378687 3438.114278025288513 14049.78513061653757 
	5781.797571920402333 3437.53229731323745 14043.57891764034866 
	5781.797571920423252 3437.027735819807276 14037.36593142807033 
	5781.797571920447808 3436.671838976110848 14032.18360344757457 
	5781.797571920455084 3436.456649990423557 14028.55385645780734 
	5781.797571920455994 3436.357534624123673 14026.73850619126461 
	5781.797571920457813 3436.303332387747105 14025.70103497484706 
	5781.797571920312294 3435.014339821705107 14000.28092687451135 
	5781.797571919784787 3435.853174858434613 13966.69363999781126 
	5781.79757191968929 3441.539725003030981 13921.32329463299538 
	5781.797571919387337 3447.724139261079017 13888.63562525405905 
	5781.797571919195434 3457.410783964860912 13852.48474665228241 
	5781.797571918973517 3469.772012107872342 13817.1590024179186 
	5781.797571918772519 3489.726311686205008 13771.42079853625182 
	5781.797571918183166 3520.978892001516215 13717.28659468464866 
	5781.797571917748428 3562.551256693996947 13665.15895718574211 
	5781.797571917494679 3604.250976465063559 13624.48693200686284 
	5781.797571917397363 3643.286844735049726 13593.35737603227244 
	5781.797571917316418 3692.217815471869926 13561.75280766176365 
	5781.797571917177265 3741.026348745519499 13538.24831845998779 
	5781.797571917162713 3788.128144724160393 13521.76839714665039 
	5781.797571917136338 3830.303803481075192 13510.46651836024466 
	5781.797571917129972 3879.54320313720882 13502.10042503900695 
	5781.797571917154528 3935.643085017412432 13498.94961584908015 
	5781.797571917207279 3991.742707500548477 13502.10066225749324 
	5781.797571917304595 4053.292483800204081 13512.55667232187261 
	5781.797571917446476 4107.049653371947898 13529.13949107797089 
	5781.797571917494679 4152.787030658262665 13549.09585036691169 
	5781.797571917592904 4185.876183569114801 13566.58335679875199 
	5781.797571917718415 4217.565606123650468 13586.49551198912559 
	5781.797571917848472 4252.697611628076629 13612.42356903306427 
	5781.797571918224094 4289.938960127246901 13645.70406594765518 
	5781.797571918486028 4327.379664412354941 13687.60048232122426 
	5781.797571919434631 4359.894149510543684 13733.42537590680513 
	5781.797571920362316 4387.073421546255304 13782.60257996198561 
	5781.797571921289091 4408.575842755954909 13834.51368209400789 
	5781.797571922408679 4421.537996422960532 13879.50721623597383 
	5781.797571922771567 4428.836876225304877 13916.20300927513927 
	5781.797571923097166 4432.759655018286139 13943.98841448827807 
	5781.797571923459145 4434.72503613126446 13967.28981745191959 
	5781.797571923571923 4435.413339338403603 13983.63940150012968 
	5781.797571923607393 4435.585443072626731 13991.81902284649732 
	5781.797571923616488 4435.628470465689134 13995.90943688623884 
	5781.797571923617397 4435.639227461096198 13997.95471943046323 
	5781.797571923618307 4435.641916704990763 13998.97737013262486 
	5781.797571923615578 4435.642685068862193 13999.56174331557668 
	5781.797571923617397 4435.642813120618484 13999.85393012998065 
	5781.797571923618307 4435.642813120292885 14000.0000235370153 
	5865.130905256951337 4435.642813120291976 14000.0000235370153 
	5865.130905256956794 4435.64281311769173 14001.16877079329606 
	5865.130905256948608 4435.634617758506465 14003.50626528453358 
	5865.130905256944061 4435.585441741274735 14008.1810240514842 
	5865.130905256912229 4435.413347242989403 14016.36064646024715 
	5865.130905256804908 4434.72499245567451 14032.71022518658174 
	5865.130905256452934 4431.973742219890482 14065.33222306945754 
	5865.130905255340622 4424.130717605855352 14111.49414833803348 
	5865.130905254452045 4408.575721234767116 14165.48636757697568 
	5865.130905253480705 4387.073436692657197 14217.39746792767619 
	5865.130905252753109 4359.894161738470757 14266.57473412709624 
	5865.13090525197822 4332.798622028685713 14304.7620443126998 
	5865.130905251795411 4308.659343969736256 14333.34785275028298 
	5865.130905251540753 4282.9560715957723 14360.53604786069991 
	5865.130905251412514 4249.594184209481682 14390.34992806506489 
	5865.130905250864089 4207.365963906148863 14420.70968456678202 
	5865.130905250819524 4164.126537789468784 14445.67387784882158 
	5865.130905250727665 4122.40886487329044 14464.49775953495373 
	5865.130905250667638 4083.157743547243172 14478.23155752664206 
	5865.130905250603064 4034.956951765118447 14491.14851248399827 
	5865.130905250558499 3973.147684225771627 14500.46600836618563 
	5865.130905250508476 3898.137924791325531 14500.4655939076074 
	5865.130905250546675 3836.328573858175332 14491.14871512433638 
	5865.130905250557589 3788.127694388026157 14478.2319786856242 
	5865.130905250623073 3758.689399532779589 14467.93155671743989 
	5865.130905250643991 3735.650082071523684 14458.38811112017356 
	5865.130905250674004 3712.983604734440178 14447.99021537968656 
	5865.130905250766773 3685.409440515255028 14433.41682107097949 
	5865.130905250899559 3653.719858626978748 14413.50492178366767 
	5865.130905250948672 3623.60688839267641 14391.2805752522836 
	5865.130905251038712 3599.966992419853341 14370.93672135315319 
	5865.130905251070544 3584.251848790331223 14355.79850015937518 
	5865.130905251079639 3575.519025871892154 14346.9008341479439 
	5865.130905251088734 3566.954104292391548 14337.84143014777328 
	5865.130905251126023 3556.568418772846599 14326.21982371886406 
	5865.130905251166951 3540.658157406203827 14307.01697477066773 
	5865.130905251364311 3522.137749222107232 14281.92290551491169 
	5865.130905251501645 3502.225993793146245 14250.23326038423329 
	5865.130905251730837 3482.794614367692702 14213.46782216212523 
	5865.130905252163757 3465.016683704363459 14171.29383514393157 
	5865.130905252339289 3450.300048711059389 14123.58336862100077 
	5865.130905253535275 3442.880169121331619 14086.87935880471923 
	5865.130905253666242 3439.755617466303647 14064.23663849024888 
	5865.130905253691708 3438.77357423980402 14055.98360733790105 
	5865.130905253711717 3438.114278025288058 14049.78513061653757 
	5865.130905253735364 3437.532297313236995 14043.57891764034866 
	5865.130905253756282 3437.027735819806821 14037.36593142807033 
	5865.130905253780838 3436.671838976110394 14032.18360344757457 
	5865.130905253788114 3436.456649990423102 14028.55385645780734 
	5865.130905253789024 3436.357534624123218 14026.73850619126461 
	5865.130905253790843 3436.30333238774665 14025.70103497484706 
	5865.130905253645324 3435.014339821704652 14000.28092687451135 
	5865.130905253117817 3435.853174858434159 13966.69363999781126 
	5865.13090525302232 3441.539725003030526 13921.32329463299538 
	5865.130905252720368 3447.724139261078562 13888.63562525405905 
	5865.130905252528464 3457.410783964860457 13852.48474665228241 
	5865.130905252306547 3469.772012107871888 13817.1590024179186 
	5865.130905252105549 3489.726311686204554 13771.42079853625182 
	5865.130905251516197 3520.97889200151576 13717.28659468464866 
	5865.130905251081458 3562.551256693996493 13665.15895718574211 
	5865.130905250827709 3604.250976465063104 13624.48693200686284 
	5865.130905250730393 3643.286844735049272 13593.35737603227244 
	5865.130905250649448 3692.217815471869471 13561.75280766176365 
	5865.130905250510295 3741.026348745519044 13538.24831845998779 
	5865.130905250495744 3788.128144724159938 13521.76839714665039 
	5865.130905250469368 3830.303803481074738 13510.46651836024466 
	5865.130905250463002 3879.543203137208366 13502.10042503900695 
	5865.130905250487558 3935.643085017411977 13498.94961584908015 
	5865.130905250540309 3991.742707500548022 13502.10066225749324 
	5865.130905250637625 4053.292483800203627 13512.55667232187261 
	5865.130905250779506 4107.049653371946988 13529.13949107797089 
	5865.130905250827709 4152.787030658261756 13549.09585036691169 
	5865.130905250925935 4185.876183569113891 13566.58335679875199 
	5865.130905251051445 4217.565606123649559 13586.49551198912559 
	5865.130905251181503 4252.69761162807572 13612.42356903306427 
	5865.130905251557124 4289.938960127245991 13645.70406594765518 
	5865.130905251819058 4327.379664412354032 13687.60048232122426 
	5865.130905252767661 4359.894149510542775 13733.42537590680513 
	5865.130905253695346 4387.073421546254394 13782.60257996198561 
	5865.130905254622121 4408.575842755954 13834.51368209400789 
	5865.130905255741709 4421.537996422959623 13879.50721623597383 
	5865.130905256104597 4428.836876225303968 13916.20300927513927 
	5865.130905256430196 4432.75965501828523 13943.98841448827807 
	5865.130905256792175 4434.72503613126355 13967.28981745191959 
	5865.130905256904953 4435.413339338402693 13983.63940150012968 
	5865.130905256940423 4435.585443072625822 13991.81902284649732 
	5865.130905256949518 4435.628470465688224 13995.90943688623884 
	5865.130905256950427 4435.639227461095288 13997.95471943046323 
	5865.130905256951337 4435.641916704989853 13998.97737013262486 
	5865.130905256948608 4435.642685068861283 13999.56174331557668 
	5865.130905256950427 4435.642813120617575 13999.85393012998065 
	5865.130905256951337 4435.642813120291976 14000.0000235370153 
	5948.46423859063907 4435.642813120292885 14000.0000235370153 
	5948.464238590643617 4435.64281311769264 14001.16877079329606 
	5948.464238590635432 4435.634617758507375 14003.50626528453358 
	5948.464238590631794 4435.585441741277464 14008.1810240514842 
	5948.464238590598143 4435.413347242990312 14016.36064646024715 
	5948.464238590486275 4434.724992455675419 14032.71022518658174 
	5948.464238590118839 4431.973742219891392 14065.33222306945754 
	5948.464238588959233 4424.130717605856262 14111.49414833803348 
	5948.464238588032458 4408.575721234768025 14165.48636757697568 
	5948.464238587020191 4387.073436692658106 14217.39746792767619 
	5948.464238586260763 4359.894161738471666 14266.57473412709624 
	5948.464238585454041 4332.798622028686623 14304.7620443126998 
	5948.464238585263047 4308.659343969737165 14333.34785275028298 
	5948.464238584995655 4282.95607159577321 14360.53604786069991 
	5948.46423858486196 4249.594184209482592 14390.34992806506489 
	5948.464238584288978 4207.365963906149773 14420.70968456678202 
	5948.464238584242594 4164.126537789469694 14445.67387784882158 
	5948.464238584147097 4122.40886487329135 14464.49775953495373 
	5948.464238584083432 4083.157743547244081 14478.23155752664206 
	5948.464238584018858 4034.956951765119356 14491.14851248399827 
	5948.464238583970655 3973.147684225772537 14500.46600836618563 
	5948.464238583918814 3898.137924791326441 14500.4655939076074 
	5948.464238583958831 3836.328573858176242 14491.14871512433638 
	5948.464238583969745 3788.127694388027066 14478.2319786856242 
	5948.464238584037048 3758.689399532780499 14467.93155671743989 
	5948.464238584059785 3735.650082071524594 14458.38811112017356 
	5948.464238584089799 3712.983604734441087 14447.99021537968656 
	5948.464238584188024 3685.409440515255937 14433.41682107097949 
	5948.464238584324448 3653.719858626979658 14413.50492178366767 
	5948.46423858437629 3623.60688839267732 14391.2805752522836 
	5948.464238584470877 3599.96699241985425 14370.93672135315319 
	5948.464238584503619 3584.251848790332133 14355.79850015937518 
	5948.464238584513623 3575.519025871893064 14346.9008341479439 
	5948.464238584522718 3566.954104292392458 14337.84143014777328 
	5948.464238584561826 3556.568418772847508 14326.21982371886406 
	5948.464238584603663 3540.658157406204737 14307.01697477066773 
	5948.464238584809209 3522.137749222107686 14281.92290551491169 
	5948.464238584952909 3502.225993793147154 14250.23326038423329 
	5948.464238585192106 3482.794614367693157 14213.46782216212523 
	5948.464238585644125 3465.016683704363459 14171.29383514393157 
	5948.464238585827843 3450.300048711059844 14123.58336862100077 
	5948.46423858707476 3442.880169121332528 14086.87935880471923 
	5948.464238587211184 3439.755617466304557 14064.23663849024888 
	5948.46423858723756 3438.77357423980493 14055.98360733790105 
	5948.464238587258478 3438.114278025288968 14049.78513061653757 
	5948.464238587283944 3437.532297313237905 14043.57891764034866 
	5948.464238587304862 3437.027735819807731 14037.36593142807033 
	5948.464238587330328 3436.671838976111303 14032.18360344757457 
	5948.464238587338514 3436.456649990424012 14028.55385645780734 
	5948.464238587339423 3436.357534624124128 14026.73850619126461 
	5948.464238587341242 3436.30333238774756 14025.70103497484706 
	5948.464238587189357 3435.014339821705562 14000.28092687451135 
	5948.464238586639112 3435.853174858435068 13966.69363999781126 
	5948.464238586539977 3441.539725003031435 13921.32329463299538 
	5948.464238586224383 3447.724139261079472 13888.63562525405905 
	5948.464238586025203 3457.410783964861366 13852.48474665228241 
	5948.464238585793282 3469.772012107872797 13817.1590024179186 
	5948.464238585584098 3489.726311686205463 13771.42079853625182 
	5948.464238584971099 3520.97889200151667 13717.28659468464866 
	5948.464238584518171 3562.551256693997402 13665.15895718574211 
	5948.464238584252598 3604.250976465064014 13624.48693200686284 
	5948.464238584151644 3643.286844735050181 13593.35737603227244 
	5948.464238584067061 3692.217815471870381 13561.75280766176365 
	5948.464238583922452 3741.026348745519954 13538.24831845998779 
	5948.464238583905171 3788.128144724160848 13521.76839714665039 
	5948.464238583878796 3830.303803481075647 13510.46651836024466 
	5948.46423858387152 3879.543203137209275 13502.10042503900695 
	5948.464238583897895 3935.643085017412886 13498.94961584908015 
	5948.464238583953374 3991.742707500548477 13502.10066225749324 
	5948.464238584054328 4053.292483800204081 13512.55667232187261 
	5948.464238584201667 4107.049653371946988 13529.13949107797089 
	5948.464238584252598 4152.787030658261756 13549.09585036691169 
	5948.464238584355371 4185.876183569114801 13566.58335679875199 
	5948.464238584486338 4217.565606123649559 13586.49551198912559 
	5948.464238584621853 4252.697611628076629 13612.42356903306427 
	5948.464238585014755 4289.938960127246901 13645.70406594765518 
	5948.464238585288513 4327.379664412354941 13687.60048232122426 
	5948.464238586278043 4359.894149510543684 13733.42537590680513 
	5948.464238587245745 4387.073421546255304 13782.60257996198561 
	5948.464238588213448 4408.575842755954909 13834.51368209400789 
	5948.464238589380329 4421.537996422960532 13879.50721623597383 
	5948.464238589760498 4428.836876225304877 13916.20300927513927 
	5948.464238590097921 4432.759655018286139 13943.98841448827807 
	5948.464238590478999 4434.72503613126446 13967.28981745191959 
	5948.464238590594505 4435.413339338403603 13983.63940150012968 
	5948.464238590632704 4435.585443072626731 13991.81902284649732 
	5948.46423859063998 4435.628470465688224 13995.90943688623884 
	5948.464238590641799 4435.639227461095288 13997.95471943046323 
	5948.464238590641799 4435.641916704989853 13998.97737013262486 
	5948.464238590635432 4435.642685068862193 13999.56174331557668 
	5948.464238590638161 4435.642813120618484 13999.85393012998065 
	5948.46423859063907 4435.642813120292885 14000.0000235370153 
	6031.7975719239721 4435.642813120292885 14000.0000235370153 
	6031.797571923976648 4435.64281311769264 14001.16877079329606 
	6031.797571923968462 4435.634617758507375 14003.50626528453358 
	6031.797571923964824 4435.585441741277464 14008.1810240514842 
	6031.797571923931173 4435.413347242990312 14016.36064646024715 
	6031.797571923819305 4434.724992455675419 14032.71022518658174 
	6031.797571923451869 4431.973742219891392 14065.33222306945754 
	6031.797571922292263 4424.130717605856262 14111.49414833803348 
	6031.797571921365488 4408.575721234768025 14165.48636757697568 
	6031.797571920353221 4387.073436692658106 14217.39746792767619 
	6031.797571919593793 4359.894161738471666 14266.57473412709624 
	6031.797571918787071 4332.798622028686623 14304.7620443126998 
	6031.797571918596077 4308.659343969737165 14333.34785275028298 
	6031.797571918328686 4282.95607159577321 14360.53604786069991 
	6031.79757191819499 4249.594184209482592 14390.34992806506489 
	6031.797571917622008 4207.365963906149773 14420.70968456678202 
	6031.797571917575624 4164.126537789469694 14445.67387784882158 
	6031.797571917480127 4122.40886487329135 14464.49775953495373 
	6031.797571917416462 4083.157743547243626 14478.23155752664206 
	6031.797571917351888 4034.956951765118902 14491.14851248399827 
	6031.797571917303685 3973.147684225772082 14500.46600836618563 
	6031.797571917251844 3898.137924791325986 14500.4655939076074 
	6031.797571917291862 3836.328573858175787 14491.14871512433638 
	6031.797571917302776 3788.127694388026612 14478.2319786856242 
	6031.797571917370078 3758.689399532780044 14467.93155671743989 
	6031.797571917392816 3735.650082071524139 14458.38811112017356 
	6031.797571917422829 3712.983604734440632 14447.99021537968656 
	6031.797571917521054 3685.409440515255483 14433.41682107097949 
	6031.797571917657478 3653.719858626979203 14413.50492178366767 
	6031.79757191770932 3623.606888392676865 14391.2805752522836 
	6031.797571917803907 3599.966992419853796 14370.93672135315319 
	6031.797571917836649 3584.251848790331678 14355.79850015937518 
	6031.797571917846653 3575.519025871892609 14346.9008341479439 
	6031.797571917855748 3566.954104292392003 14337.84143014777328 
	6031.797571917894857 3556.568418772847053 14326.21982371886406 
	6031.797571917936693 3540.658157406204282 14307.01697477066773 
	6031.797571918142239 3522.137749222107232 14281.92290551491169 
	6031.797571918285939 3502.225993793146699 14250.23326038423329 
	6031.797571918525136 3482.794614367692702 14213.46782216212523 
	6031.797571918977155 3465.016683704363004 14171.29383514393157 
	6031.797571919160873 3450.300048711059389 14123.58336862100077 
	6031.79757192040779 3442.880169121332074 14086.87935880471923 
	6031.797571920544215 3439.755617466304102 14064.23663849024888 
	6031.79757192057059 3438.773574239804475 14055.98360733790105 
	6031.797571920591508 3438.114278025288513 14049.78513061653757 
	6031.797571920616974 3437.53229731323745 14043.57891764034866 
	6031.797571920637893 3437.027735819807276 14037.36593142807033 
	6031.797571920663358 3436.671838976110848 14032.18360344757457 
	6031.797571920671544 3436.456649990423557 14028.55385645780734 
	6031.797571920672453 3436.357534624123673 14026.73850619126461 
	6031.797571920674272 3436.303332387747105 14025.70103497484706 
	6031.797571920522387 3435.014339821705107 14000.28092687451135 
	6031.797571919972142 3435.853174858434613 13966.69363999781126 
	6031.797571919873008 3441.539725003030981 13921.32329463299538 
	6031.797571919557413 3447.724139261079017 13888.63562525405905 
	6031.797571919358234 3457.410783964860912 13852.48474665228241 
	6031.797571919126312 3469.772012107872342 13817.1590024179186 
	6031.797571918917129 3489.726311686205008 13771.42079853625182 
	6031.797571918304129 3520.978892001516215 13717.28659468464866 
	6031.797571917851201 3562.551256693996947 13665.15895718574211 
	6031.797571917585628 3604.250976465063559 13624.48693200686284 
	6031.797571917484674 3643.286844735049726 13593.35737603227244 
	6031.797571917400091 3692.217815471869926 13561.75280766176365 
	6031.797571917255482 3741.026348745519499 13538.24831845998779 
	6031.797571917238201 3788.128144724160393 13521.76839714665039 
	6031.797571917211826 3830.303803481075192 13510.46651836024466 
	6031.79757191720455 3879.54320313720882 13502.10042503900695 
	6031.797571917230925 3935.643085017412432 13498.94961584908015 
	6031.797571917286405 3991.742707500548022 13502.10066225749324 
	6031.797571917387359 4053.292483800203627 13512.55667232187261 
	6031.797571917534697 4107.049653371946988 13529.13949107797089 
	6031.797571917585628 4152.787030658261756 13549.09585036691169 
	6031.797571917688401 4185.876183569114801 13566.58335679875199 
	6031.797571917819369 4217.565606123649559 13586.49551198912559 
	6031.797571917954883 4252.697611628076629 13612.42356903306427 
	6031.797571918347785 4289.938960127246901 13645.70406594765518 
	6031.797571918621543 4327.379664412354941 13687.60048232122426 
	6031.797571919611073 4359.894149510543684 13733.42537590680513 
	6031.797571920578775 4387.073421546255304 13782.60257996198561 
	6031.797571921546478 4408.575842755954909 13834.51368209400789 
	6031.79757192271336 4421.537996422960532 13879.50721623597383 
	6031.797571923093528 4428.836876225304877 13916.20300927513927 
	6031.797571923430951 4432.759655018286139 13943.98841448827807 
	6031.797571923812029 4434.72503613126446 13967.28981745191959 
	6031.797571923927535 4435.413339338403603 13983.63940150012968 
	6031.797571923965734 4435.585443072626731 13991.81902284649732 
	6031.79757192397301 4435.628470465688224 13995.90943688623884 
	6031.797571923974829 4435.639227461095288 13997.95471943046323 
	6031.797571923974829 4435.641916704989853 13998.97737013262486 
	6031.797571923968462 4435.642685068862193 13999.56174331557668 
	6031.797571923971191 4435.642813120618484 13999.85393012998065 
	6031.7975719239721 4435.642813120292885 14000.0000235370153 
	0 
	
	0 
	0 
	88 0 0.001116071428571428509 0.002232142857142857019 0.004464285714285714038 0.008928571428571428076 0.01785714285714285615 0.0357142857142857123 0.05357142857142856845 0.07142857142857142461 0.08928571428571427382 0.1071428571428571369 0.1160714285714285754 0.125 0.1428571428571428492 0.1587301587301587213 0.1746031746031745935 0.1904761904761904656 0.2023809523809523836 0.2142857142857142738 0.238095238095238082 0.2619047619047618625 0.2857142857142856984 0.2976190476190476164 0.3095238095238095344 0.3154761904761904656 0.3214285714285713969 0.3333333333333333148 0.3452380952380952328 0.3571428571428570953 0.3690476190476190133 0.375 0.3779761904761904656 0.3809523809523809312 0.3869047619047618625 0.3928571428571428492 0.4047619047619047672 0.4166666666666666297 0.4285714285714285476 0.4444444444444444198 0.4603174603174602919 0.476190476190476164 0.4801587301587301182 0.4821428571428570953 0.4841269841269840724 0.4861111111111110494 0.4880952380952380265 0.4900793650793650036 0.4910714285714284921 0.4915674603174602364 0.491815476190476164 0.4920634920634920362 0.5158730158730158166 0.5238095238095237249 0.5357142857142855874 0.5476190476190475609 0.5595238095238095344 0.5714285714285713969 0.5952380952380951218 0.6190476190476189577 0.6349206349206348854 0.650793650793650702 0.6666666666666666297 0.6904761904761904656 0.7023809523809523281 0.7142857142857141906 0.7321428571428569843 0.749999999999999889 0.7678571428571427937 0.7857142857142855874 0.8095238095238094234 0.8214285714285713969 0.8333333333333332593 0.8452380952380951218 0.8571428571428570953 0.875 0.8928571428571427937 0.9107142857142856984 0.9285714285714286031 0.9464285714285713969 0.9642857142857143016 0.9732142857142858094 0.9821428571428572063 0.9910714285714286031 0.9955357142857143016 0.9977678571428572063 0.9994419642857143016 0.9997209821428572063 0.9998604910714286031 
	0 
	0 
	0 
	F 1 F 0 F 1 F 0 } I I I I #
tcoedge-coedge $-1 -1 $-1 $14 $14 $18 $19 reversed $9 $20 -6.283185307179586232 -0 #
tcoedge-coedge $-1 -1 $-1 $21 $22 $11 $16 reversed $12 $23 -6.283185307179586232 -0 #
tedge-edge $-1 -1 $-1 $24 0 $24 6.283185307179586232 $15 $25 forward @7 unknown 0.0007888391277424799519 #
pcurve $-1 -1 $-1 0 forward { exppc nurbs 2 periodic 5 
	0 2 1.570796326794896558 2 3.141592653589793116 2 4.712388980384689674 2 6.283185307179586232 2 
	0 500 1 
	-500 500 0.707106781186543798 
	-500 0 1 
	-500 -500 0.7071067811865463515 
	0 -500 1 
	500 -500 0.7071067811865463515 
	500 0 1 
	500 500 0.707106781186543798 
	0 500 1 
	0 
	plane 6031.79757191538738 3935.642797989796236 14000.00000000000182 1 -3.637978807091713027e-15 0 0 0 -1 forward_v I I I I 
	} 0 0 #
tcoedge-coedge $-1 -1 $-1 $22 $21 $14 $19 forward $12 $26 0 6.283185307179586232 #
tedge-edge $-1 -1 $-1 $27 0 $27 6.283185307179586232 $18 $28 forward @7 unknown 0.0007888391280738730679 #
pcurve $-1 -1 $-1 0 forward { exppc nurbs 2 periodic 5 
	-6.283185307179586232 2 -4.712388980384689674 2 -3.141592653589793116 2 -1.570796326794896558 2 0 2 
	0 500 1 
	500 500 0.707106781186543798 
	500 0 1 
	500 -500 0.7071067811865463515 
	0 -500 1 
	-500 -500 0.7071067811865463515 
	-500 0 1 
	-500 500 0.707106781186543798 
	0 500 1 
	0 
	plane 5781.79757191538738 3935.642797989797145 14000.00000000000182 -1 3.637978807091713027e-15 -0 0 0 -1 reverse_v I I I I 
	} 0 0 #
coedge $-1 -1 $-1 $18 $15 $22 $29 reversed $12 $30 #
coedge $-1 -1 $-1 $15 $18 $21 $29 forward $12 $31 #
pcurve $-1 -1 $-1 0 forward { exppc nubs 1 periodic 2 
	-6.283185307179586232 1 -0 1 
	1 1 
	0 1 
	0 
	spline forward { ref 0 } I I I I 
	} 0 0 #
tvertex-vertex $-1 -1 $-1 $16 $32 2.79807713529855602e-05 #
ellipse-curve $-1 -1 $-1 6031.79757191538738 3935.642797989796236 14000.00000000000182 1 -3.637978807091713027e-15 0 1.818989403545856476e-12 500 0 1 I I #
pcurve $-1 -1 $-1 0 forward { exppc nubs 1 periodic 2 
	0 1 6.283185307179586232 1 
	0 0 
	1 0 
	2.726396620975368931e-13 
	spline forward { ref 0 } I I I I 
	} 0 0 #
tvertex-vertex $-1 -1 $-1 $19 $33 2.798077075489262475e-05 #
ellipse-curve $-1 -1 $-1 5781.79757191538738 3935.642797989797145 14000.00000000000182 1 -3.637978807091713027e-15 0 1.818989403545856476e-12 500 0 1 I I #
edge $-1 -1 $-1 $27 0 $24 1 $22 $34 forward @7 tangent #
pcurve $-1 -1 $-1 -1 $34 0 0 #
pcurve $-1 -1 $-1 1 $34 1 0 #
point $-1 -1 $-1 6031.797571915389199 4435.642797989796236 14000.00000000000182 #
point $-1 -1 $-1 5781.797571915389199 4435.642797989797145 14000.00000000000182 #
intcurve-curve $-1 -1 $-1 forward { parcur full nubs 3 open 2 
	0 3 1 3 
	5781.797571923618307 4435.642813120292885 14000.0000235370153 
	5865.130905256951337 4435.642813120291976 14000.0000235370153 
	5948.46423859063907 4435.642813120292885 14000.0000235370153 
	6031.7975719239721 4435.642813120292885 14000.0000235370153 
	0 
	
	spline forward { ref 0 } I I I I 
	null_surface 
	nubs 1 open 2 
	0 1 1 1 
	0 0 
	0 1 
	
	nullbs 
	I I 
	0 
	0 
	0 
	surf1 } I I #
End-of-ACIS-data 