700 0 1 0           
4 LibG 20 ASM 224.0.1.65535 NT 24 Wed Jul 17 14:48:14 2019 
1000 9.999999999999999547e-07 1.000000000000000036e-10 
body $-1 -1 $-1 $1 $-1 $2 #
lump $-1 -1 $-1 $-1 $3 $0 #
transform $-1 -1 1 0 0 0 1 0 0 0 1 0 0 0 1 no_rotate no_reflect no_shear #
shell $-1 -1 $-1 $-1 $-1 $4 $-1 $1 #
face $-1 -1 $-1 $5 $6 $3 $-1 $7 forward single #
face $-1 -1 $-1 $8 $9 $3 $-1 $10 reversed single #
loop $-1 -1 $-1 $-1 $11 $4 #
plane-surface $-1 -1 $-1 9281.79757191538738 3935.642797989784412 14000.00000000000182 1 -3.637978807091713027e-15 0 0 0 -1 forward_v I I I I #
face $-1 -1 $-1 $-1 $12 $3 $-1 $13 forward single #
loop $-1 -1 $-1 $-1 $14 $5 #
plane-surface $-1 -1 $-1 9031.79757191538738 3935.642797989785322 14000.00000000000182 1 -3.637978807091713027e-15 0 0 0 -1 forward_v I I I I #
tcoedge-coedge $-1 -1 $-1 $11 $11 $15 $16 forward $6 $17 0 6.283185307179586232 #
loop $-1 -1 $-1 $-1 $18 $8 #
spline-surface $-1 -1 $-1 forward { exactsur full nubs 3 3 periodic open none none 99 2 
	0 3 0.0005580357142857142547 1 0.001116071428571428509 1 0.002232142857142857019 1 0.004464285714285714038 1 
	0.008928571428571428076 1 0.01785714285714285615 1 0.0357142857142857123 1 0.05357142857142856845 1 0.07142857142857142461 1 
	0.08928571428571427382 1 0.1071428571428571369 1 0.1160714285714285754 1 0.125 1 0.1428571428571428492 1 
	0.1587301587301587213 1 0.1746031746031745935 1 0.1904761904761904656 1 0.2023809523809523836 1 0.2142857142857142738 1 
	0.226190476190476164 1 0.238095238095238082 1 0.2499999999999999722 1 0.2619047619047618625 1 0.2738095238095237804 1 
	0.2857142857142856984 1 0.3095238095238095344 1 0.3125 1 0.3154761904761904656 1 0.3214285714285713969 1 
	0.3333333333333333148 1 0.3392857142857143016 1 0.3452380952380952328 1 0.3571428571428570953 1 0.3630952380952380265 1 
	0.3690476190476190133 1 0.375 1 0.3809523809523809312 1 0.3928571428571428492 1 0.4047619047619047672 1 
	0.4107142857142856984 1 0.4285714285714285476 1 0.4444444444444444198 1 0.4603174603174602919 1 0.476190476190476164 1 
	0.4801587301587301182 1 0.4841269841269840724 1 0.4920634920634920362 1 0.5079365079365079083 1 0.5158730158730158166 1 
	0.5198412698412697708 1 0.5238095238095237249 1 0.5476190476190475609 1 0.5491071428571427937 1 0.5505952380952381375 1 
	0.5535714285714286031 1 0.5565476190476190688 1 0.5595238095238095344 1 0.5714285714285713969 1 0.5833333333333332593 1 
	0.5952380952380951218 1 0.6071428571428569843 1 0.6190476190476189577 1 0.6349206349206348854 1 0.650793650793650702 1 
	0.6666666666666666297 1 0.6785714285714286031 1 0.6904761904761904656 1 0.7023809523809523281 1 0.7142857142857141906 1 
	0.7321428571428569843 1 0.7410714285714283811 1 0.749999999999999889 1 0.7678571428571427937 1 0.7857142857142855874 1 
	0.7976190476190474499 1 0.8095238095238094234 1 0.8214285714285713969 1 0.8333333333333332593 1 0.8452380952380951218 1 
	0.851190476190476053 1 0.8571428571428570953 1 0.875 1 0.8928571428571427937 1 0.9107142857142856984 1 
	0.9285714285714286031 1 0.9464285714285713969 1 0.9642857142857143016 1 0.9821428571428572063 1 0.9866071428571429047 1 
	0.9910714285714286031 1 0.9955357142857143016 1 0.9977678571428572063 1 0.9988839285714286031 1 0.9994419642857143016 1 
	0.9997209821428572063 1 0.9998604910714286031 1 0.9999302455357143016 1 1 3 
	0 3 1 3 
	9031.797571526971296 4435.642839872837612 13999.99997339129368 
	9031.797571526969477 4435.642839873691628 14000.58434702435261 
	9031.797571527034961 4435.64079082578246 14001.75309427138018 
	9031.797571527102264 4435.628497458295897 14004.09056011259418 
	9031.797571527407854 4435.58546834230583 14008.18097410341034 
	9031.797571528433764 4435.413374124239454 14016.36059704965373 
	9031.797571532606526 4434.725019949244597 14032.71017774371467 
	9031.797571545926985 4431.973772653697779 14065.33218299183864 
	9031.797571589522704 4424.130756366402238 14111.49413121489124 
	9031.797571625116689 4408.575772435754516 14165.48637590560247 
	9031.797571664446878 4387.073493517214047 14217.39749539686636 
	9031.797571694751241 4359.894243816816015 14266.57480122967718 
	9031.797571726470778 4332.798690273973989 14304.76210664847713 
	9031.797571734987287 4308.659457047247997 14333.3479709682324 
	9031.79757174336919 4282.956084965252558 14360.53605274850815 
	9031.797571767134286 4249.594239988155095 14390.35000510852842 
	9031.797571787472407 4207.366084920063258 14420.70979183179224 
	9031.797571798204444 4164.126614913528101 14445.67397774127858 
	9031.797571806417182 4122.408969959939895 14464.49778470822639 
	9031.797571816752679 4083.15792349827916 14478.23200986639858 
	9031.797571825225532 4047.007155180130667 14487.9187135754637 
	9031.797571829090884 4010.2335283895477 14494.87653760441026 
	9031.797571835706549 3973.042778575901139 14499.06698516942924 
	9031.797571842011166 3935.642903284252952 14500.46627694237213 
	9031.797571847711879 3898.24293890138506 14499.06707564396675 
	9031.797571853525369 3861.052340713843023 14494.87619921687474 
	9031.797571859635354 3812.020441137993657 14485.60030563633154 
	9031.797571866634826 3773.195475723277923 14473.62506389151713 
	9031.797571868057275 3744.289978243613859 14461.96673105225091 
	9031.797571868351952 3732.816891143237626 14457.08834394008409 
	9031.797571869339663 3712.983754556315034 14447.99008252980275 
	9031.797571873006746 3690.924435782722867 14436.3314387640803 
	9031.797571873910783 3669.564799584603406 14423.46086041920353 
	9031.797571874849382 3648.701224315066156 14409.80081495897321 
	9031.797571876477377 3628.625909314543605 14394.98461358734494 
	9031.797571877536029 3609.423091589471824 14379.07431441466724 
	9031.797571878143572 3595.477157839979554 14366.61151100784809 
	9031.797571878792951 3582.007014103905476 14353.63591838958382 
	9031.797571879482348 3564.706233818284545 14335.67573251792783 
	9031.797571881406839 3544.362283337912686 14312.03591098436846 
	9031.797571883298588 3525.842254886772025 14286.94161912530762 
	9031.797571883838827 3505.351735689943325 14255.646530603477 
	9031.797571885763318 3485.218681365908196 14219.21911047520371 
	9031.797571886399965 3465.016958822275228 14171.29391141613269 
	9031.797571886865626 3450.300115716730033 14123.5835718460512 
	9031.797571888017046 3442.880498771241037 14086.87952461862915 
	9031.797571888117091 3439.471859220820534 14062.17839124718375 
	9031.797571888158927 3437.610631170171018 14045.65944504483923 
	9031.797571888288076 3435.435893046032106 14016.642939423813 
	9031.797571888240782 3435.435715314889421 13983.35725620865014 
	9031.797571888169841 3437.610468073290122 13954.34073880552569 
	9031.797571888124367 3439.471779193057955 13937.82181434228733 
	9031.797571888031598 3444.016148789062754 13904.88684796704365 
	9031.797571887062077 3450.854675251449407 13874.92451395767785 
	9031.797571886892911 3459.248209550804404 13848.15949635221841 
	9031.797571886885635 3461.168858665620064 13842.2293879314966 
	9031.797571886809237 3463.673528572798205 13834.85092209591858 
	9031.797571886743754 3466.84414897040233 13826.05450945188204 
	9031.797571886560036 3473.513216620155163 13808.58331833684861 
	9031.797571885044817 3484.737989039525019 13782.85581056789488 
	9031.79757188356416 3502.226059390058253 13749.76685718253975 
	9031.797571881679687 3522.137913955657496 13718.0772672884159 
	9031.797571879638781 3544.362346431612423 13687.96438935692095 
	9031.79757187744508 3571.487281425440415 13656.44435215891281 
	9031.797571873117704 3604.250901722693925 13624.48746684080288 
	9031.797571870871252 3643.286573247752585 13593.35737102767234 
	9031.797571867240549 3681.73276128201951 13568.52616094707082 
	9031.797571863166013 3718.498441729654132 13549.09527260575305 
	9031.797571861647157 3752.801689414093289 13534.12869311107715 
	9031.797571856433933 3788.12761189789444 13521.76785461956752 
	9031.797571853310728 3830.303487407597459 13510.46642420126955 
	9031.797571842718753 3870.310471138176581 13503.66890189555306 
	9031.797571839973898 3907.592776273313575 13500.52469477118939 
	9031.797571836097632 3944.992666363001263 13499.474910253095 
	9031.79757182454523 3991.74257463008189 13502.10000681362908 
	9031.797571811228408 4040.981923877456666 13510.46651331423163 
	9031.797571804725521 4083.15780777477994 13521.7678466395937 
	9031.797571799503203 4118.483715365608077 13534.12871197162531 
	9031.797571794078976 4152.787009191949437 13549.09521937064164 
	9031.797571786461049 4185.875996130507701 13566.58321259121658 
	9031.797571776569384 4212.283966957813391 13583.17646394177973 
	9031.797571773644449 4232.622044128876041 13597.60726633482227 
	9031.797571769415299 4257.352671829265091 13616.58338017469214 
	9031.797571743078151 4289.938786119755605 13645.70388656225259 
	9031.797571718539984 4327.379578925497299 13687.60027376285507 
	9031.797571686367519 4359.894113261259918 13733.42515815806291 
	9031.7975716555502 4387.073427346520475 13782.60242583067338 
	9031.797571616802088 4408.575708055047471 13834.51356925105028 
	9031.79757158441862 4424.130671915428138 13888.50581646835599 
	9031.797571540797435 4431.189459550484571 13930.05156609259939 
	9031.797571534772942 4433.938893848932821 13957.96920404900266 
	9031.797571531931681 4434.921732677999898 13971.9610713056336 
	9031.797571528442859 4435.413362498724382 13983.63935140003014 
	9031.797571527402397 4435.585470414621341 13991.81897233699965 
	9031.797571527080436 4435.628497084778246 13995.90938671899312 
	9031.797571527002219 4435.639254225809054 13997.95466926444897 
	9031.797571526978572 4435.641943448893471 13998.97731998271047 
	9031.797571526973115 4435.642615768467294 13999.4886465181371 
	9031.797571526971296 4435.642807856117543 13999.78083327859713 
	9031.797571526971296 4435.642839872730292 13999.92692668716154 
	9031.797571526971296 4435.642839872837612 13999.99997339129368 
	9115.130904860305236 4435.642839872836703 13999.99997339129368 
	9115.130904860303417 4435.642839873690718 14000.58434702435261 
	9115.130904860368901 4435.640790825781551 14001.75309427138018 
	9115.130904860436203 4435.628497458294987 14004.09056011259418 
	9115.130904860741794 4435.585468342304921 14008.18097410341034 
	9115.130904861767704 4435.413374124238544 14016.36059704965373 
	9115.130904865940465 4434.725019949243688 14032.71017774371467 
	9115.130904879260925 4431.973772653696869 14065.33218299183864 
	9115.130904922856644 4424.130756366401329 14111.49413121489124 
	9115.130904958450628 4408.575772435753606 14165.48637590560247 
	9115.130904997780817 4387.073493517213137 14217.39749539686636 
	9115.130905028085181 4359.894243816815106 14266.57480122967718 
	9115.130905059804718 4332.798690273973079 14304.76210664847713 
	9115.130905068321226 4308.659457047247088 14333.3479709682324 
	9115.130905076703129 4282.956084965251648 14360.53605274850815 
	9115.130905100468226 4249.594239988154186 14390.35000510852842 
	9115.130905120806347 4207.366084920062349 14420.70979183179224 
	9115.130905131538384 4164.126614913527192 14445.67397774127858 
	9115.130905139751121 4122.408969959938986 14464.49778470822639 
	9115.130905150086619 4083.157923498278706 14478.23200986639858 
	9115.130905158559472 4047.007155180130212 14487.9187135754637 
	9115.130905162424824 4010.233528389547246 14494.87653760441026 
	9115.130905169040489 3973.042778575900684 14499.06698516942924 
	9115.130905175345106 3935.642903284252498 14500.46627694237213 
	9115.130905181045819 3898.242938901384605 14499.06707564396675 
	9115.130905186859309 3861.052340713842568 14494.87619921687474 
	9115.130905192969294 3812.020441137993203 14485.60030563633154 
	9115.130905199968765 3773.195475723277468 14473.62506389151713 
	9115.130905201391215 3744.289978243613405 14461.96673105225091 
	9115.130905201685891 3732.816891143237171 14457.08834394008409 
	9115.130905202673603 3712.98375455631458 14447.99008252980275 
	9115.130905206340685 3690.924435782722412 14436.3314387640803 
	9115.130905207244723 3669.564799584602952 14423.46086041920353 
	9115.130905208183322 3648.701224315065701 14409.80081495897321 
	9115.130905209811317 3628.625909314543151 14394.98461358734494 
	9115.130905210869969 3609.423091589471369 14379.07431441466724 
	9115.130905211477511 3595.4771578399791 14366.61151100784809 
	9115.130905212126891 3582.007014103905021 14353.63591838958382 
	9115.130905212816288 3564.70623381828409 14335.67573251792783 
	9115.130905214740778 3544.362283337912231 14312.03591098436846 
	9115.130905216632527 3525.84225488677157 14286.94161912530762 
	9115.130905217172767 3505.351735689942871 14255.646530603477 
	9115.130905219097258 3485.218681365907742 14219.21911047520371 
	9115.130905219733904 3465.016958822274773 14171.29391141613269 
	9115.130905220199566 3450.300115716729579 14123.5835718460512 
	9115.130905221350986 3442.880498771240582 14086.87952461862915 
	9115.13090522145103 3439.471859220820079 14062.17839124718375 
	9115.130905221492867 3437.610631170170564 14045.65944504483923 
	9115.130905221622015 3435.435893046031651 14016.642939423813 
	9115.130905221574722 3435.435715314888967 13983.35725620865014 
	9115.130905221503781 3437.610468073289667 13954.34073880552569 
	9115.130905221458306 3439.4717791930575 13937.82181434228733 
	9115.130905221365538 3444.016148789062299 13904.88684796704365 
	9115.130905220396016 3450.854675251448953 13874.92451395767785 
	9115.13090522022685 3459.248209550803949 13848.15949635221841 
	9115.130905220219574 3461.168858665619609 13842.2293879314966 
	9115.130905220143177 3463.67352857279775 13834.85092209591858 
	9115.130905220077693 3466.844148970401875 13826.05450945188204 
	9115.130905219893975 3473.513216620154708 13808.58331833684861 
	9115.130905218378757 3484.737989039524564 13782.85581056789488 
	9115.1309052168981 3502.226059390057799 13749.76685718253975 
	9115.130905215013627 3522.137913955657041 13718.0772672884159 
	9115.130905212972721 3544.362346431611968 13687.96438935692095 
	9115.130905210779019 3571.48728142543996 13656.44435215891281 
	9115.130905206451644 3604.25090172269347 13624.48746684080288 
	9115.130905204205192 3643.286573247752131 13593.35737102767234 
	9115.130905200574489 3681.732761282019055 13568.52616094707082 
	9115.130905196499953 3718.498441729653678 13549.09527260575305 
	9115.130905194981096 3752.801689414092834 13534.12869311107715 
	9115.130905189767873 3788.127611897893985 13521.76785461956752 
	9115.130905186644668 3830.303487407597004 13510.46642420126955 
	9115.130905176052693 3870.310471138176126 13503.66890189555306 
	9115.130905173307838 3907.59277627331312 13500.52469477118939 
	9115.130905169431571 3944.992666363000808 13499.474910253095 
	9115.13090515787917 3991.742574630081435 13502.10000681362908 
	9115.130905144562348 4040.981923877456211 13510.46651331423163 
	9115.130905138059461 4083.157807774779485 13521.7678466395937 
	9115.130905132837142 4118.483715365607168 13534.12871197162531 
	9115.130905127412916 4152.787009191948528 13549.09521937064164 
	9115.130905119794988 4185.875996130506792 13566.58321259121658 
	9115.130905109903324 4212.283966957812481 13583.17646394177973 
	9115.130905106978389 4232.622044128875132 13597.60726633482227 
	9115.130905102749239 4257.352671829264182 13616.58338017469214 
	9115.130905076412091 4289.938786119754695 13645.70388656225259 
	9115.130905051873924 4327.379578925496389 13687.60027376285507 
	9115.130905019701459 4359.894113261259008 13733.42515815806291 
	9115.13090498888414 4387.073427346519566 13782.60242583067338 
	9115.130904950136028 4408.575708055046562 13834.51356925105028 
	9115.130904917752559 4424.130671915427229 13888.50581646835599 
	9115.130904874131375 4431.189459550483662 13930.05156609259939 
	9115.130904868106882 4433.938893848931912 13957.96920404900266 
	9115.13090486526562 4434.921732677998989 13971.9610713056336 
	9115.130904861776798 4435.413362498723473 13983.63935140003014 
	9115.130904860736337 4435.585470414620431 13991.81897233699965 
	9115.130904860414375 4435.628497084777337 13995.90938671899312 
	9115.130904860336159 4435.639254225808145 13997.95466926444897 
	9115.130904860312512 4435.641943448892562 13998.97731998271047 
	9115.130904860307055 4435.642615768466385 13999.4886465181371 
	9115.130904860305236 4435.642807856116633 13999.78083327859713 
	9115.130904860305236 4435.642839872729382 13999.92692668716154 
	9115.130904860305236 4435.642839872836703 13999.99997339129368 
	9198.464238182890767 4435.642839872837612 13999.99997339129368 
	9198.464238182892586 4435.642839873691628 14000.58434702435261 
	9198.464238182959889 4435.64079082578246 14001.75309427138018 
	9198.464238183029011 4435.628497458295897 14004.09056011259418 
	9198.464238183347334 4435.58546834230583 14008.18097410341034 
	9198.46423818439871 4435.413374124239454 14016.36059704965373 
	9198.464238188687887 4434.725019949244597 14032.71017774371467 
	9198.464238202373963 4431.973772653697779 14065.33218299183864 
	9198.46423824717931 4424.130756366402238 14111.49413121489124 
	9198.464238283757368 4408.575772435753606 14165.48637590560247 
	9198.464238324175312 4387.073493517213137 14217.39749539686636 
	9198.46423835531823 4359.894243816816015 14266.57480122967718 
	9198.46423838791452 4332.798690273973079 14304.76210664847713 
	9198.464238396667497 4308.659457047247088 14333.3479709682324 
	9198.464238405280412 4282.956084965252558 14360.53605274850815 
	9198.464238429700345 4249.594239988155095 14390.35000510852842 
	9198.464238450602352 4207.366084920063258 14420.70979183179224 
	9198.464238461630885 4164.126614913528101 14445.67397774127858 
	9198.464238470070995 4122.408969959939895 14464.49778470822639 
	9198.464238480692075 4083.157923498279615 14478.23200986639858 
	9198.464238489397758 4047.007155180131122 14487.9187135754637 
	9198.464238493370431 4010.233528389548155 14494.87653760441026 
	9198.464238500169813 3973.042778575901593 14499.06698516942924 
	9198.464238506649053 3935.642903284253407 14500.46627694237213 
	9198.464238512508018 3898.242938901385514 14499.06707564396675 
	9198.464238518481579 3861.052340713843478 14494.87619921687474 
	9198.464238524760731 3812.020441137993657 14485.60030563633154 
	9198.464238531953015 3773.195475723278378 14473.62506389151713 
	9198.46423853341912 3744.289978243614314 14461.96673105225091 
	9198.464238533719254 3732.816891143238081 14457.08834394008409 
	9198.46423853473425 3712.983754556315489 14447.99008252980275 
	9198.464238538501377 3690.924435782723322 14436.3314387640803 
	9198.464238539432699 3669.564799584603861 14423.46086041920353 
	9198.464238540396764 3648.701224315066611 14409.80081495897321 
	9198.464238542070234 3628.62590931454406 14394.98461358734494 
	9198.46423854315799 3609.423091589472278 14379.07431441466724 
	9198.464238543783722 3595.477157839980009 14366.61151100784809 
	9198.464238544449472 3582.007014103905931 14353.63591838958382 
	9198.464238545158878 3564.706233818285 14335.67573251792783 
	9198.4642385471343 3544.362283337913141 14312.03591098436846 
	9198.464238549076981 3525.84225488677248 14286.94161912530762 
	9198.464238549633592 3505.35173568994378 14255.646530603477 
	9198.464238551610833 3485.218681365908651 14219.21911047520371 
	9198.46423855226567 3465.016958822275683 14171.29391141613269 
	9198.464238552742245 3450.300115716730488 14123.5835718460512 
	9198.464238553926407 3442.880498771241491 14086.87952461862915 
	9198.46423855402827 3439.471859220820988 14062.17839124718375 
	9198.464238554070107 3437.610631170171473 14045.65944504483923 
	9198.464238554201074 3435.435893046032106 14016.642939423813 
	9198.464238554150143 3435.435715314889421 13983.35725620865014 
	9198.464238554075564 3437.610468073290122 13954.34073880552569 
	9198.464238554030089 3439.471779193057955 13937.82181434228733 
	9198.464238553935502 3444.016148789061845 13904.88684796704365 
	9198.464238552938696 3450.854675251448953 13874.92451395767785 
	9198.464238552764073 3459.248209550803494 13848.15949635221841 
	9198.464238552756797 3461.168858665619155 13842.2293879314966 
	9198.46423855267858 3463.67352857279775 13834.85092209591858 
	9198.464238552611278 3466.84414897040142 13826.05450945188204 
	9198.464238552422103 3473.513216620154708 13808.58331833684861 
	9198.464238550866867 3484.737989039524564 13782.85581056789488 
	9198.464238549344373 3502.226059390058253 13749.76685718253975 
	9198.464238547408968 3522.137913955657496 13718.0772672884159 
	9198.464238545311673 3544.362346431612423 13687.96438935692095 
	9198.464238543056126 3571.487281425440869 13656.44435215891281 
	9198.464238538610516 3604.25090172269347 13624.48746684080288 
	9198.464238536302219 3643.28657324775304 13593.35737102767234 
	9198.464238532569652 3681.73276128201951 13568.52616094707082 
	9198.464238528382339 3718.498441729653678 13549.09527260575305 
	9198.464238526819827 3752.801689414092834 13534.12869311107715 
	9198.464238521462903 3788.127611897893985 13521.76785461956752 
	9198.464238518254206 3830.303487407597459 13510.46642420126955 
	9198.464238507367554 3870.310471138176126 13503.66890189555306 
	9198.464238504546302 3907.592776273312666 13500.52469477118939 
	9198.464238500564534 3944.992666363000808 13499.474910253095 
	9198.464238488693809 3991.742574630081435 13502.10000681362908 
	9198.464238475005914 4040.981923877456211 13510.46651331423163 
	9198.464238468324766 4083.157807774778576 13521.7678466395937 
	9198.464238462960566 4118.483715365606258 13534.12871197162531 
	9198.464238457385363 4152.787009191947618 13549.09521937064164 
	9198.464238449556433 4185.875996130504973 13566.58321259121658 
	9198.464238439390101 4212.283966957811572 13583.17646394177973 
	9198.464238436385131 4232.622044128873313 13597.60726633482227 
	9198.464238432041384 4257.352671829263272 13616.58338017469214 
	9198.464238404976641 4289.938786119754695 13645.70388656225259 
	9198.464238379758172 4327.37957892549548 13687.60027376285507 
	9198.46423834669622 4359.894113261259008 13733.42515815806291 
	9198.464238315025796 4387.073427346519566 13782.60242583067338 
	9198.464238275206299 4408.575708055046562 13834.51356925105028 
	9198.464238241927887 4424.130671915428138 13888.50581646835599 
	9198.464238197097075 4431.189459550484571 13930.05156609259939 
	9198.464238190907054 4433.938893848932821 13957.96920404900266 
	9198.464238187987576 4434.921732677999898 13971.9610713056336 
	9198.464238184402348 4435.413362498724382 13983.63935140003014 
	9198.464238183332782 4435.585470414621341 13991.81897233699965 
	9198.464238183001726 4435.628497084778246 13995.90938671899312 
	9198.46423818292169 4435.639254225809054 13997.95466926444897 
	9198.464238182896224 4435.641943448893471 13998.97731998271047 
	9198.464238182890767 4435.642615768467294 13999.4886465181371 
	9198.464238182892586 4435.642807856117543 13999.78083327859713 
	9198.464238182888948 4435.642839872730292 13999.92692668716154 
	9198.464238182890767 4435.642839872837612 13999.99997339129368 
	9281.797571516224707 4435.642839872837612 13999.99997339129368 
	9281.797571516226526 4435.642839873691628 14000.58434702435261 
	9281.797571516293829 4435.64079082578246 14001.75309427138018 
	9281.79757151636295 4435.628497458295897 14004.09056011259418 
	9281.797571516681273 4435.58546834230583 14008.18097410341034 
	9281.797571517732649 4435.413374124239454 14016.36059704965373 
	9281.797571522021826 4434.725019949244597 14032.71017774371467 
	9281.797571535707903 4431.973772653697779 14065.33218299183864 
	9281.79757158051325 4424.130756366402238 14111.49413121489124 
	9281.797571617091307 4408.575772435753606 14165.48637590560247 
	9281.797571657509252 4387.073493517213137 14217.39749539686636 
	9281.79757168865217 4359.894243816816015 14266.57480122967718 
	9281.79757172124846 4332.798690273973079 14304.76210664847713 
	9281.797571730001437 4308.659457047247088 14333.3479709682324 
	9281.797571738614351 4282.956084965252558 14360.53605274850815 
	9281.797571763034284 4249.594239988155095 14390.35000510852842 
	9281.797571783936291 4207.366084920063258 14420.70979183179224 
	9281.797571794964824 4164.126614913528101 14445.67397774127858 
	9281.797571803404935 4122.408969959939895 14464.49778470822639 
	9281.797571814026014 4083.15792349827916 14478.23200986639858 
	9281.797571822731697 4047.007155180130667 14487.9187135754637 
	9281.79757182670437 4010.2335283895477 14494.87653760441026 
	9281.797571833503753 3973.042778575901139 14499.06698516942924 
	9281.797571839982993 3935.642903284252952 14500.46627694237213 
	9281.797571845841958 3898.24293890138506 14499.06707564396675 
	9281.797571851815519 3861.052340713843023 14494.87619921687474 
	9281.79757185809467 3812.020441137993203 14485.60030563633154 
	9281.797571865286955 3773.195475723277923 14473.62506389151713 
	9281.79757186675306 3744.289978243613859 14461.96673105225091 
	9281.797571867053193 3732.816891143237626 14457.08834394008409 
	9281.797571868068189 3712.983754556315034 14447.99008252980275 
	9281.797571871835316 3690.924435782722867 14436.3314387640803 
	9281.797571872766639 3669.564799584603406 14423.46086041920353 
	9281.797571873730703 3648.701224315066156 14409.80081495897321 
	9281.797571875404174 3628.625909314543605 14394.98461358734494 
	9281.797571876491929 3609.423091589471824 14379.07431441466724 
	9281.797571877117662 3595.477157839979554 14366.61151100784809 
	9281.797571877783412 3582.007014103905476 14353.63591838958382 
	9281.797571878492818 3564.706233818284545 14335.67573251792783 
	9281.79757188046824 3544.362283337912686 14312.03591098436846 
	9281.797571882410921 3525.842254886772025 14286.94161912530762 
	9281.797571882967532 3505.351735689943325 14255.646530603477 
	9281.797571884944773 3485.218681365908196 14219.21911047520371 
	9281.797571885599609 3465.016958822275228 14171.29391141613269 
	9281.797571886076184 3450.300115716730033 14123.5835718460512 
	9281.797571887260347 3442.880498771241037 14086.87952461862915 
	9281.79757188736221 3439.471859220820534 14062.17839124718375 
	9281.797571887404047 3437.610631170171018 14045.65944504483923 
	9281.797571887535014 3435.435893046031651 14016.642939423813 
	9281.797571887484082 3435.435715314888967 13983.35725620865014 
	9281.797571887409504 3437.610468073289667 13954.34073880552569 
	9281.797571887364029 3439.4717791930575 13937.82181434228733 
	9281.797571887269442 3444.01614878906139 13904.88684796704365 
	9281.797571886272635 3450.854675251448498 13874.92451395767785 
	9281.797571886098012 3459.24820955080304 13848.15949635221841 
	9281.797571886090736 3461.1688586656187 13842.2293879314966 
	9281.79757188601252 3463.673528572797295 13834.85092209591858 
	9281.797571885945217 3466.844148970400965 13826.05450945188204 
	9281.797571885756042 3473.513216620154253 13808.58331833684861 
	9281.797571884200806 3484.737989039524109 13782.85581056789488 
	9281.797571882678312 3502.226059390057799 13749.76685718253975 
	9281.797571880742908 3522.137913955657041 13718.0772672884159 
	9281.797571878645613 3544.362346431611968 13687.96438935692095 
	9281.797571876390066 3571.487281425440415 13656.44435215891281 
	9281.797571871944456 3604.250901722693015 13624.48746684080288 
	9281.797571869636158 3643.286573247752585 13593.35737102767234 
	9281.797571865903592 3681.732761282019055 13568.52616094707082 
	9281.797571861716278 3718.498441729653223 13549.09527260575305 
	9281.797571860153766 3752.80168941409238 13534.12869311107715 
	9281.797571854796843 3788.12761189789353 13521.76785461956752 
	9281.797571851588145 3830.303487407597004 13510.46642420126955 
	9281.797571840701494 3870.310471138175672 13503.66890189555306 
	9281.797571837880241 3907.592776273312211 13500.52469477118939 
	9281.797571833898473 3944.992666363000353 13499.474910253095 
	9281.797571822027749 3991.742574630080981 13502.10000681362908 
	9281.797571808339853 4040.981923877455756 13510.46651331423163 
	9281.797571801658705 4083.157807774778121 13521.7678466395937 
	9281.797571796294505 4118.483715365606258 13534.12871197162531 
	9281.797571790719303 4152.787009191947618 13549.09521937064164 
	9281.797571782890373 4185.875996130504973 13566.58321259121658 
	9281.797571772724041 4212.283966957811572 13583.17646394177973 
	9281.79757176971907 4232.622044128873313 13597.60726633482227 
	9281.797571765375324 4257.352671829263272 13616.58338017469214 
	9281.79757173831058 4289.938786119754695 13645.70388656225259 
	9281.797571713092111 4327.37957892549548 13687.60027376285507 
	9281.79757168003016 4359.894113261259008 13733.42515815806291 
	9281.797571648359735 4387.073427346519566 13782.60242583067338 
	9281.797571608540238 4408.575708055046562 13834.51356925105028 
	9281.797571575261827 4424.130671915428138 13888.50581646835599 
	9281.797571530431014 4431.189459550484571 13930.05156609259939 
	9281.797571524240993 4433.938893848932821 13957.96920404900266 
	9281.797571521321515 4434.921732677999898 13971.9610713056336 
	9281.797571517736287 4435.413362498724382 13983.63935140003014 
	9281.797571516666721 4435.585470414621341 13991.81897233699965 
	9281.797571516335665 4435.628497084778246 13995.90938671899312 
	9281.79757151625563 4435.639254225809054 13997.95466926444897 
	9281.797571516230164 4435.641943448893471 13998.97731998271047 
	9281.797571516224707 4435.642615768467294 13999.4886465181371 
	9281.797571516226526 4435.642807856117543 13999.78083327859713 
	9281.797571516222888 4435.642839872730292 13999.92692668716154 
	9281.797571516224707 4435.642839872837612 13999.99997339129368 
	0 
	
	0 
	0 
	97 0 0.0005580357142857142547 0.001116071428571428509 0.002232142857142857019 0.004464285714285714038 0.008928571428571428076 0.01785714285714285615 0.0357142857142857123 0.05357142857142856845 0.07142857142857142461 0.08928571428571427382 0.1071428571428571369 0.1160714285714285754 0.125 0.1428571428571428492 0.1587301587301587213 0.1746031746031745935 0.1904761904761904656 0.2023809523809523836 0.2142857142857142738 0.226190476190476164 0.238095238095238082 0.2499999999999999722 0.2619047619047618625 0.2738095238095237804 0.2857142857142856984 0.3095238095238095344 0.3125 0.3154761904761904656 0.3214285714285713969 0.3333333333333333148 0.3392857142857143016 0.3452380952380952328 0.3571428571428570953 0.3630952380952380265 0.3690476190476190133 0.375 0.3809523809523809312 0.3928571428571428492 0.4047619047619047672 0.4107142857142856984 0.4285714285714285476 0.4444444444444444198 0.4603174603174602919 0.476190476190476164 0.4801587301587301182 0.4841269841269840724 0.4920634920634920362 0.5079365079365079083 0.5158730158730158166 0.5198412698412697708 0.5238095238095237249 0.5476190476190475609 0.5491071428571427937 0.5505952380952381375 0.5535714285714286031 0.5565476190476190688 0.5595238095238095344 0.5714285714285713969 0.5833333333333332593 0.5952380952380951218 0.6071428571428569843 0.6190476190476189577 0.6349206349206348854 0.650793650793650702 0.6666666666666666297 0.6785714285714286031 0.6904761904761904656 0.7023809523809523281 0.7142857142857141906 0.7321428571428569843 0.7410714285714283811 0.749999999999999889 0.7678571428571427937 0.7857142857142855874 0.7976190476190474499 0.8095238095238094234 0.8214285714285713969 0.8333333333333332593 0.8452380952380951218 0.851190476190476053 0.8571428571428570953 0.875 0.8928571428571427937 0.9107142857142856984 0.9285714285714286031 0.9464285714285713969 0.9642857142857143016 0.9821428571428572063 0.9866071428571429047 0.9910714285714286031 0.9977678571428572063 0.9988839285714286031 0.9994419642857143016 0.9997209821428572063 0.9998604910714286031 0.9999302455357143016 
	0 
	0 
	0 
	F 1 F 0 F 1 F 0 } I I I I #
tcoedge-coedge $-1 -1 $-1 $14 $14 $18 $19 reversed $9 $20 -6.283185307179586232 -0 #
tcoedge-coedge $-1 -1 $-1 $21 $22 $11 $16 reversed $12 $23 -6.283185307179586232 -0 #
tedge-edge $-1 -1 $-1 $24 0 $24 6.283185307179586232 $15 $25 forward @7 unknown 0.0006225672593768689185 #
pcurve $-1 -1 $-1 0 forward { exppc nurbs 2 periodic 5 
	0 2 1.570796326794896558 2 3.141592653589793116 2 4.712388980384689674 2 6.283185307179586232 2 
	0 500 1 
	-500 500 0.707106781186543798 
	-500 0 1 
	-500 -500 0.7071067811865463515 
	0 -500 1 
	500 -500 0.7071067811865463515 
	500 0 1 
	500 500 0.707106781186543798 
	0 500 1 
	0 
	plane 9281.79757191538738 3935.642797989784412 14000.00000000000182 1 -3.637978807091713027e-15 0 0 0 -1 forward_v I I I I 
	} 0 0 #
tcoedge-coedge $-1 -1 $-1 $22 $21 $14 $19 forward $12 $26 0 6.283185307179586232 #
tedge-edge $-1 -1 $-1 $27 0 $27 6.283185307179586232 $18 $28 forward @7 unknown 0.0006225672590551720393 #
pcurve $-1 -1 $-1 0 forward { exppc nurbs 2 periodic 5 
	-6.283185307179586232 2 -4.712388980384689674 2 -3.141592653589793116 2 -1.570796326794896558 2 0 2 
	0 500 1 
	500 500 0.707106781186543798 
	500 0 1 
	500 -500 0.7071067811865463515 
	0 -500 1 
	-500 -500 0.7071067811865463515 
	-500 0 1 
	-500 500 0.707106781186543798 
	0 500 1 
	0 
	plane 9031.79757191538738 3935.642797989785322 14000.00000000000182 -1 3.637978807091713027e-15 -0 0 0 -1 reverse_v I I I I 
	} 0 0 #
coedge $-1 -1 $-1 $18 $15 $22 $29 reversed $12 $30 #
coedge $-1 -1 $-1 $15 $18 $21 $29 forward $12 $31 #
pcurve $-1 -1 $-1 0 forward { exppc nubs 1 periodic 2 
	-6.283185307179586232 1 -0 1 
	1 1 
	0 1 
	2.726396620975368931e-13 
	spline forward { ref 0 } I I I I 
	} 0 0 #
tvertex-vertex $-1 -1 $-1 $16 $32 4.96223117050957762e-05 #
ellipse-curve $-1 -1 $-1 9281.79757191538738 3935.642797989784412 14000.00000000000182 1 -3.637978807091713027e-15 0 1.818989403545856476e-12 500 0 1 I I #
pcurve $-1 -1 $-1 0 forward { exppc nubs 1 periodic 2 
	0 1 6.283185307179586232 1 
	0 0 
	1 0 
	4.4114023995510105e-13 
	spline forward { ref 0 } I I I I 
	} 0 0 #
tvertex-vertex $-1 -1 $-1 $19 $33 4.962222565490721543e-05 #
ellipse-curve $-1 -1 $-1 9031.79757191538738 3935.642797989785322 14000.00000000000182 1 -3.637978807091713027e-15 0 1.818989403545856476e-12 500 0 1 I I #
edge $-1 -1 $-1 $27 0 $24 1 $22 $34 forward @7 tangent #
pcurve $-1 -1 $-1 -1 $34 0 0 #
pcurve $-1 -1 $-1 1 $34 1 0 #
point $-1 -1 $-1 9281.797571915389199 4435.642797989784412 14000.00000000000182 #
point $-1 -1 $-1 9031.797571915389199 4435.642797989785322 14000.00000000000182 #
intcurve-curve $-1 -1 $-1 forward { parcur full nubs 3 open 2 
	0 3 1 3 
	9031.797571526971296 4435.642839872837612 13999.99997339129368 
	9115.130904860305236 4435.642839872836703 13999.99997339129368 
	9198.464238182890767 4435.642839872837612 13999.99997339129368 
	9281.797571516224707 4435.642839872837612 13999.99997339129368 
	0 
	
	spline forward { ref 0 } I I I I 
	null_surface 
	nubs 1 open 2 
	0 1 1 1 
	0 0 
	0 1 
	
	nullbs 
	I I 
	0 
	0 
	0 
	surf1 } I I #
End-of-ACIS-data 