700 0 1 0           
4 LibG 20 ASM 224.0.1.65535 NT 24 Wed Jul 17 14:48:16 2019 
1000 9.999999999999999547e-07 1.000000000000000036e-10 
body $-1 -1 $-1 $1 $-1 $2 #
lump $-1 -1 $-1 $-1 $3 $0 #
transform $-1 -1 1 0 0 0 1 0 0 0 1 0 0 0 1 no_rotate no_reflect no_shear #
shell $-1 -1 $-1 $-1 $-1 $4 $-1 $1 #
face $-1 -1 $-1 $5 $6 $3 $-1 $7 forward single #
face $-1 -1 $-1 $8 $9 $3 $-1 $10 reversed single #
loop $-1 -1 $-1 $-1 $11 $4 #
plane-surface $-1 -1 $-1 17281.79757191538738 3935.642797989755309 14000.00000000000182 1 -3.637978807091713027e-15 0 0 0 -1 forward_v I I I I #
face $-1 -1 $-1 $-1 $12 $3 $-1 $13 forward single #
loop $-1 -1 $-1 $-1 $14 $5 #
plane-surface $-1 -1 $-1 17031.79757191538738 3935.642797989756218 14000.00000000000182 1 -3.637978807091713027e-15 0 0 0 -1 forward_v I I I I #
tcoedge-coedge $-1 -1 $-1 $11 $11 $15 $16 forward $6 $17 0 6.283185307179586232 #
loop $-1 -1 $-1 $-1 $18 $8 #
spline-surface $-1 -1 $-1 forward { exactsur full nubs 3 3 periodic open none none 84 2 
	0 3 0.001116071428571428509 1 0.002232142857142857019 1 0.004464285714285714038 1 0.008928571428571428076 1 
	0.01785714285714285615 1 0.02678571428571428423 1 0.0357142857142857123 1 0.05357142857142856845 1 0.07142857142857142461 1 
	0.08928571428571427382 1 0.1071428571428571369 1 0.125 1 0.1428571428571428492 1 0.1587301587301587213 1 
	0.1825396825396825295 1 0.1904761904761904656 1 0.2023809523809523836 1 0.2142857142857142738 1 0.238095238095238082 1 
	0.2619047619047618625 1 0.2857142857142856984 1 0.2976190476190476164 1 0.3095238095238095344 1 0.3214285714285713969 1 
	0.3333333333333333148 1 0.3392857142857143016 1 0.3452380952380952328 1 0.3571428571428570953 1 0.3630952380952380265 1 
	0.3690476190476190133 1 0.3809523809523809312 1 0.3928571428571428492 1 0.4047619047619047672 1 0.4166666666666666297 1 
	0.4285714285714285476 1 0.4444444444444444198 1 0.4603174603174602919 1 0.476190476190476164 1 0.4781746031746031411 1 
	0.4791666666666666297 1 0.4801587301587301182 1 0.4841269841269840724 1 0.4920634920634920362 1 0.5 1 
	0.5039682539682539542 1 0.5079365079365079083 1 0.5238095238095237249 1 0.5476190476190475609 1 0.5595238095238095344 1 
	0.5654761904761904656 1 0.5714285714285713969 1 0.5952380952380951218 1 0.6190476190476189577 1 0.6349206349206348854 1 
	0.650793650793650702 1 0.6666666666666666297 1 0.6904761904761904656 1 0.7142857142857141906 1 0.7321428571428569843 1 
	0.749999999999999889 1 0.7678571428571427937 1 0.7857142857142855874 1 0.8095238095238094234 1 0.8214285714285713969 1 
	0.8333333333333332593 1 0.8452380952380951218 1 0.8571428571428570953 1 0.875 1 0.8928571428571427937 1 
	0.9107142857142856984 1 0.9285714285714286031 1 0.9464285714285713969 1 0.9642857142857143016 1 0.9732142857142858094 1 
	0.9821428571428572063 1 0.9910714285714286031 1 0.9955357142857143016 1 0.9977678571428572063 1 0.9988839285714286031 1 
	0.9994419642857143016 1 0.9997209821428572063 1 0.9998604910714286031 1 1 3 
	0 3 1 3 
	17031.79757238636739 4435.642811879041801 14000.00005200732085 
	17031.79757238635284 4435.642811877503846 14001.16879926193542 
	17031.79757238602906 4435.634615974704502 14003.5062936686827 
	17031.79757238571619 4435.585441767487282 14008.18105262177596 
	17031.79757238417005 4435.413337865204994 14016.36067383027512 
	17031.79757237920057 4434.725034372516348 14032.71025810918763 
	17031.79757236329533 4432.759650643325585 14056.01165973226671 
	17031.79757234848876 4428.836872035448323 14083.7970677666035 
	17031.79757233199052 4421.53798446482142 14120.49285381796653 
	17031.79757227865412 4408.575845070251489 14165.48641987646079 
	17031.79757223521301 4387.073367242534914 14217.39745938043416 
	17031.7975721867806 4359.894195099275748 14266.57481330444534 
	17031.79757214687561 4327.379473746262192 14312.39940464129904 
	17031.7975721012117 4289.939023857702523 14354.29630019195065 
	17031.79757208900264 4249.593978361914196 14390.3495728228645 
	17031.79757206191789 4200.61023294273582 14425.56875936282631 
	17031.79757205527858 4156.693792567309174 14449.48396221889379 
	17031.79757204891939 4114.558372303977194 14467.24402403398562 
	17031.7975720446193 4083.157842302918652 14478.23174633940653 
	17031.79757203645204 4034.956828414633947 14491.14829325414394 
	17031.79757202728797 3973.147709512437359 14500.4660689441007 
	17031.79757201099346 3898.137882920725133 14500.46554987994023 
	17031.7975719989081 3836.328572854156846 14491.14873808730954 
	17031.79757199608866 3788.127684345214675 14478.23201645992231 
	17031.79757199012602 3752.801745615479376 14465.87146880924593 
	17031.79757198578591 3718.498437295226722 14450.90481891368654 
	17031.79757198112202 3690.924287775399534 14436.33151313709823 
	17031.79757197979779 3669.564641417474832 14423.46092889248757 
	17031.79757197872095 3648.701065186804954 14409.80087979816744 
	17031.79757197674553 3628.62573227014127 14394.98467816863194 
	17031.7975719754686 3609.422918699694492 14379.074363758662 
	17031.79757197466824 3590.828300663369191 14362.45732449072239 
	17031.79757197166327 3568.774725599836984 14340.40380507722512 
	17031.79757196962237 3544.362196553966442 14312.03585303868931 
	17031.79757196670835 3522.13775068271616 14281.92292668410664 
	17031.79757196576611 3502.226014848400155 14250.233276712519 
	17031.79757196362334 3482.79461892008203 14213.46783622337171 
	17031.79757196173523 3465.016766079585068 14171.29380935841255 
	17031.79757196085848 3450.300261935802155 14123.58331125667246 
	17031.79757195927596 3443.292571182115353 14088.91843510362742 
	17031.79757195914499 3440.472380654698554 14069.38170625161547 
	17031.79757195914135 3439.917128091174618 14065.26340287503081 
	17031.79757195912316 3439.122779693898337 14059.08087447403523 
	17031.79757195901766 3437.610508182973717 14045.65922726061399 
	17031.79757195877755 3436.057280268591512 14024.9331442851053 
	17031.7975719586284 3435.539132934658028 14004.15541348742045 
	17031.79757195860293 3435.746364847582299 13987.53321745569883 
	17031.79757195866841 3436.678751017688228 13962.61547975958092 
	17031.79757195888669 3441.234332040613026 13917.07468965940461 
	17031.79757196037826 3453.289084581866973 13864.25971663685596 
	17031.79757196108039 3467.711519856530686 13823.04648867677315 
	17031.79757196133505 3477.254715919640148 13800.00714533808059 
	17031.79757196186983 3492.851232620517749 13766.00725186396448 
	17031.79757196652645 3520.978848800558353 13717.286611870255 
	17031.79757197119761 3562.551099917644933 13665.15888490340876 
	17031.79757197558138 3604.25089703388312 13624.48694815575618 
	17031.79757197692015 3643.286734545057243 13593.3572667012977 
	17031.7975719813403 3692.217784179842511 13561.7529942672154 
	17031.79757198707375 3752.289593996905296 13532.82328686587061 
	17031.79757199959931 3817.993888796861484 13512.55745081671012 
	17031.79757200839595 3879.543242654159258 13502.10063720811377 
	17031.79757201772736 3935.643092766933478 13498.94953592817001 
	17031.79757202766632 3991.742732986112514 13502.10071630726088 
	17031.79757204066118 4053.292503819774083 13512.55668002451785 
	17031.79757205543865 4107.049676552102028 13529.13952927972241 
	17031.79757205918213 4152.787052567719911 13549.09588272844121 
	17031.79757206697468 4185.876207122206324 13566.58339211078965 
	17031.79757207512012 4217.565625934157651 13586.49554880158939 
	17031.79757208503725 4252.697640508580662 13612.42359899131952 
	17031.79757210468233 4289.938959214541683 13645.70411684282772 
	17031.79757213079574 4327.379723266834844 13687.60048262085002 
	17031.79757214823258 4359.894252970037996 13733.42535445686372 
	17031.79757221175532 4387.073368681508327 13782.60266291970402 
	17031.79757226135916 4408.575868099340369 13834.51370375300576 
	17031.79757232464181 4421.537988019762452 13879.50725544294983 
	17031.79757234346835 4428.836876767372814 13916.20304028500686 
	17031.79757236054502 4432.759652564270255 13943.98844601540804 
	17031.79757237849117 4434.725035165260124 13967.28984635563938 
	17031.79757238415186 4435.413338034622029 13983.63943017881502 
	17031.79757238580351 4435.585441835812162 13991.81905134868248 
	17031.79757238621096 4435.628469218966529 13995.90946536781848 
	17031.79757238632737 4435.63922621340862 13997.95474790243134 
	17031.79757238635284 4435.641915461014833 13998.97739860355614 
	17031.79757238636739 4435.642683818685327 13999.56177178524013 
	17031.79757238636739 4435.642811879233705 13999.85395860049357 
	17031.79757238636739 4435.642811879041801 14000.00005200732085 
	17115.13090571969951 4435.642811879040892 14000.00005200732085 
	17115.13090571968496 4435.642811877502936 14001.16879926193542 
	17115.13090571936118 4435.634615974703593 14003.5062936686827 
	17115.13090571904831 4435.585441767486373 14008.18105262177596 
	17115.13090571750217 4435.413337865204085 14016.36067383027512 
	17115.13090571253269 4434.725034372515438 14032.71025810918763 
	17115.13090569662745 4432.759650643324676 14056.01165973226671 
	17115.13090568182088 4428.836872035447414 14083.7970677666035 
	17115.13090566532264 4421.537984464820511 14120.49285381796653 
	17115.13090561198624 4408.57584507025058 14165.48641987646079 
	17115.13090556854513 4387.073367242534005 14217.39745938043416 
	17115.13090552011272 4359.894195099274839 14266.57481330444534 
	17115.13090548020773 4327.379473746261283 14312.39940464129904 
	17115.13090543454382 4289.939023857701613 14354.29630019195065 
	17115.13090542233476 4249.593978361913287 14390.3495728228645 
	17115.13090539525001 4200.61023294273491 14425.56875936282631 
	17115.1309053886107 4156.693792567308265 14449.48396221889379 
	17115.13090538225151 4114.558372303976284 14467.24402403398562 
	17115.13090537795142 4083.157842302918198 14478.23174633940653 
	17115.13090536978416 4034.956828414633492 14491.14829325414394 
	17115.13090536062009 3973.147709512436904 14500.4660689441007 
	17115.13090534432558 3898.137882920724678 14500.46554987994023 
	17115.13090533224022 3836.328572854156391 14491.14873808730954 
	17115.13090532942078 3788.12768434521422 14478.23201645992231 
	17115.13090532345814 3752.801745615478922 14465.87146880924593 
	17115.13090531911803 3718.498437295226267 14450.90481891368654 
	17115.13090531445414 3690.92428777539908 14436.33151313709823 
	17115.13090531312992 3669.564641417474377 14423.46092889248757 
	17115.13090531205307 3648.701065186804499 14409.80087979816744 
	17115.13090531007765 3628.625732270140816 14394.98467816863194 
	17115.13090530880072 3609.422918699694037 14379.074363758662 
	17115.13090530800037 3590.828300663368736 14362.45732449072239 
	17115.13090530499539 3568.774725599836529 14340.40380507722512 
	17115.13090530295449 3544.362196553965987 14312.03585303868931 
	17115.13090530004047 3522.137750682715705 14281.92292668410664 
	17115.13090529909823 3502.2260148483997 14250.233276712519 
	17115.13090529695546 3482.794618920081575 14213.46783622337171 
	17115.13090529506735 3465.016766079584613 14171.29380935841255 
	17115.1309052941906 3450.3002619358017 14123.58331125667246 
	17115.13090529260808 3443.292571182114898 14088.91843510362742 
	17115.13090529247711 3440.4723806546981 14069.38170625161547 
	17115.13090529247347 3439.917128091174163 14065.26340287503081 
	17115.13090529245528 3439.122779693897883 14059.08087447403523 
	17115.13090529234978 3437.610508182973263 14045.65922726061399 
	17115.13090529210967 3436.057280268591057 14024.9331442851053 
	17115.13090529196052 3435.539132934657573 14004.15541348742045 
	17115.13090529193505 3435.746364847581845 13987.53321745569883 
	17115.13090529200053 3436.678751017687773 13962.61547975958092 
	17115.13090529221881 3441.234332040612571 13917.07468965940461 
	17115.13090529371038 3453.289084581866518 13864.25971663685596 
	17115.13090529441251 3467.711519856530231 13823.04648867677315 
	17115.13090529466717 3477.254715919639693 13800.00714533808059 
	17115.13090529520196 3492.851232620517294 13766.00725186396448 
	17115.13090529985857 3520.978848800557898 13717.286611870255 
	17115.13090530452973 3562.551099917644478 13665.15888490340876 
	17115.1309053089135 3604.250897033882666 13624.48694815575618 
	17115.13090531025227 3643.286734545056788 13593.3572667012977 
	17115.13090531467242 3692.217784179842056 13561.7529942672154 
	17115.13090532040587 3752.289593996904841 13532.82328686587061 
	17115.13090533293143 3817.993888796861029 13512.55745081671012 
	17115.13090534172807 3879.543242654158803 13502.10063720811377 
	17115.13090535105948 3935.643092766933023 13498.94953592817001 
	17115.13090536099844 3991.74273298611206 13502.10071630726088 
	17115.1309053739933 4053.292503819773628 13512.55668002451785 
	17115.13090538877077 4107.049676552101118 13529.13952927972241 
	17115.13090539251425 4152.787052567719002 13549.09588272844121 
	17115.1309054003068 4185.876207122205415 13566.58339211078965 
	17115.13090540845224 4217.565625934156742 13586.49554880158939 
	17115.13090541836937 4252.697640508579752 13612.42359899131952 
	17115.13090543801445 4289.938959214540773 13645.70411684282772 
	17115.13090546412786 4327.379723266833935 13687.60048262085002 
	17115.1309054815647 4359.894252970037087 13733.42535445686372 
	17115.13090554508744 4387.073368681507418 13782.60266291970402 
	17115.13090559469128 4408.575868099339459 13834.51370375300576 
	17115.13090565797393 4421.537988019761542 13879.50725544294983 
	17115.13090567680047 4428.836876767371905 13916.20304028500686 
	17115.13090569387714 4432.759652564269345 13943.98844601540804 
	17115.13090571182329 4434.725035165259214 13967.28984635563938 
	17115.13090571748398 4435.41333803462112 13983.63943017881502 
	17115.13090571913563 4435.585441835811253 13991.81905134868248 
	17115.13090571954308 4435.62846921896562 13995.90946536781848 
	17115.13090571965949 4435.63922621340771 13997.95474790243134 
	17115.13090571968496 4435.641915461013923 13998.97739860355614 
	17115.13090571969951 4435.642683818684418 13999.56177178524013 
	17115.13090571969951 4435.642811879232795 13999.85395860049357 
	17115.13090571969951 4435.642811879040892 14000.00005200732085 
	17198.46423905994016 4435.642811879038163 14000.00005200732085 
	17198.46423905992924 4435.642811877501117 14001.16879926193542 
	17198.46423905959819 4435.634615974701774 14003.5062936686827 
	17198.46423905928532 4435.585441767482735 14008.18105262177596 
	17198.46423905771007 4435.413337865202266 14016.36067383027512 
	17198.46423905267147 4434.7250343725118 14032.71025810918763 
	17198.4642390365334 4432.759650643322857 14056.01165973226671 
	17198.46423902150855 4428.836872035443776 14083.7970677666035 
	17198.46423900477021 4421.537984464817782 14120.49285381796653 
	17198.46423895065527 4408.575845070247851 14165.48641987646079 
	17198.46423890657024 4387.073367242534005 14217.39745938043416 
	17198.4642388574357 4359.894195099273929 14266.57481330444534 
	17198.46423881694136 4327.379473746259464 14312.39940464129904 
	17198.4642387706117 4289.939023857700704 14354.29630019195065 
	17198.46423875822074 4249.593978361913287 14390.3495728228645 
	17198.46423873074309 4200.610232942734001 14425.56875936282631 
	17198.46423872400192 4156.693792567308265 14449.48396221889379 
	17198.46423871755178 4114.558372303976284 14467.24402403398562 
	17198.46423871318621 4083.157842302918198 14478.23174633940653 
	17198.46423870489889 4034.956828414633947 14491.14829325414394 
	17198.46423869560022 3973.14770951243645 14500.4660689441007 
	17198.46423867906924 3898.137882920725588 14500.46554987994023 
	17198.46423866680561 3836.328572854156846 14491.14873808730954 
	17198.46423866394616 3788.12768434521513 14478.23201645992231 
	17198.46423865789257 3752.801745615479376 14465.87146880924593 
	17198.46423865349061 3718.498437295226267 14450.90481891368654 
	17198.46423864875396 3690.924287775398625 14436.33151313709823 
	17198.46423864741155 3669.564641417474377 14423.46092889248757 
	17198.46423864632015 3648.701065186804499 14409.80087979816744 
	17198.46423864431927 3628.625732270139906 14394.98467816863194 
	17198.46423864302051 3609.422918699693582 14379.074363758662 
	17198.46423864220924 3590.828300663368282 14362.45732449072239 
	17198.46423863915697 3568.774725599836529 14340.40380507722512 
	17198.46423863708696 3544.362196553965987 14312.03585303868931 
	17198.46423863412565 3522.137750682715705 14281.92292668410664 
	17198.46423863316886 3502.2260148483997 14250.233276712519 
	17198.46423863099699 3482.79461892008112 14213.46783622337171 
	17198.46423862907977 3465.016766079584613 14171.29380935841255 
	17198.46423862819574 3450.300261935800791 14123.58331125667246 
	17198.46423862658412 3443.292571182114443 14088.91843510362742 
	17198.46423862644951 3440.47238065469719 14069.38170625161547 
	17198.46423862644588 3439.917128091173709 14065.26340287503081 
	17198.46423862642769 3439.122779693897428 14059.08087447403523 
	17198.46423862632219 3437.610508182972808 14045.65922726061399 
	17198.46423862607844 3436.057280268591057 14024.9331442851053 
	17198.46423862592928 3435.539132934658028 14004.15541348742045 
	17198.46423862590018 3435.746364847581845 13987.53321745569883 
	17198.46423862596566 3436.678751017687773 13962.61547975958092 
	17198.46423862619122 3441.234332040612117 13917.07468965940461 
	17198.46423862770098 3453.289084581866518 13864.25971663685596 
	17198.46423862841402 3467.711519856530231 13823.04648867677315 
	17198.46423862867232 3477.254715919640148 13800.00714533808059 
	17198.46423862921438 3492.851232620517294 13766.00725186396448 
	17198.46423863393647 3520.978848800557444 13717.286611870255 
	17198.4642386386804 3562.551099917644024 13665.15888490340876 
	17198.46423864312965 3604.250897033882211 13624.48694815575618 
	17198.46423864448298 3643.286734545056333 13593.3572667012977 
	17198.46423864897224 3692.217784179841601 13561.7529942672154 
	17198.46423865478937 3752.289593996904387 13532.82328686587061 
	17198.46423866750411 3817.993888796861029 13512.55745081671012 
	17198.46423867642807 3879.543242654158803 13502.10063720811377 
	17198.46423868589773 3935.643092766933023 13498.94953592817001 
	17198.46423869597857 3991.742732986111605 13502.10071630726088 
	17198.46423870916624 4053.292503819773174 13512.55668002451785 
	17198.46423872415835 4107.049676552099299 13529.13952927972241 
	17198.4642387279564 4152.787052567718092 13549.09588272844121 
	17198.46423873586173 4185.876207122204505 13566.58339211078965 
	17198.46423874412721 4217.565625934155833 13586.49554880158939 
	17198.46423875418986 4252.697640508578843 13612.42359899131952 
	17198.46423877412235 4289.938959214539864 13645.70411684282772 
	17198.46423880062139 4327.379723266833025 13687.60048262085002 
	17198.46423881831288 4359.894252970035268 13733.42535445686372 
	17198.46423888276695 4387.073368681505599 13782.60266291970402 
	17198.46423893310202 4408.57586809933764 13834.51370375300576 
	17198.46423899730871 4421.537988019759723 13879.50725544294983 
	17198.46423901641538 4428.836876767370086 13916.20304028500686 
	17198.46423903373943 4432.759652564266617 13943.98844601540804 
	17198.46423905195479 4434.725035165258305 13967.28984635563938 
	17198.46423905769188 4435.413338034618391 13983.63943017881502 
	17198.46423905937263 4435.585441835808524 13991.81905134868248 
	17198.46423905978736 4435.628469218962891 13995.90946536781848 
	17198.46423905990378 4435.639226213404982 13997.95474790243134 
	17198.46423905993288 4435.641915461011195 13998.97739860355614 
	17198.46423905993652 4435.642683818681689 13999.56177178524013 
	17198.46423905994016 4435.642811879230067 13999.85395860049357 
	17198.46423905994016 4435.642811879038163 14000.00005200732085 
	17281.79757239327228 4435.642811879038163 14000.00005200732085 
	17281.79757239326136 4435.642811877501117 14001.16879926193542 
	17281.79757239293031 4435.634615974701774 14003.5062936686827 
	17281.79757239261744 4435.585441767482735 14008.18105262177596 
	17281.79757239104219 4435.413337865202266 14016.36067383027512 
	17281.79757238600359 4434.7250343725118 14032.71025810918763 
	17281.79757236986552 4432.759650643322857 14056.01165973226671 
	17281.79757235484067 4428.836872035443776 14083.7970677666035 
	17281.79757233810233 4421.537984464817782 14120.49285381796653 
	17281.79757228398739 4408.575845070247851 14165.48641987646079 
	17281.79757223990237 4387.073367242534005 14217.39745938043416 
	17281.79757219076782 4359.894195099273929 14266.57481330444534 
	17281.79757215027348 4327.379473746259464 14312.39940464129904 
	17281.79757210394382 4289.939023857700704 14354.29630019195065 
	17281.79757209155287 4249.593978361913287 14390.3495728228645 
	17281.79757206407521 4200.610232942734001 14425.56875936282631 
	17281.79757205733404 4156.693792567308265 14449.48396221889379 
	17281.7975720508839 4114.558372303976284 14467.24402403398562 
	17281.79757204651833 4083.157842302917743 14478.23174633940653 
	17281.79757203823101 4034.956828414633492 14491.14829325414394 
	17281.79757202893234 3973.147709512435995 14500.4660689441007 
	17281.79757201240136 3898.137882920725133 14500.46554987994023 
	17281.79757200013773 3836.328572854156391 14491.14873808730954 
	17281.79757199727828 3788.127684345214675 14478.23201645992231 
	17281.79757199122469 3752.801745615478922 14465.87146880924593 
	17281.79757198682273 3718.498437295225813 14450.90481891368654 
	17281.79757198208608 3690.92428777539817 14436.33151313709823 
	17281.79757198074367 3669.564641417473922 14423.46092889248757 
	17281.79757197965228 3648.701065186804044 14409.80087979816744 
	17281.79757197765139 3628.625732270139451 14394.98467816863194 
	17281.79757197635263 3609.422918699693128 14379.074363758662 
	17281.79757197554136 3590.828300663367827 14362.45732449072239 
	17281.7975719724891 3568.774725599836074 14340.40380507722512 
	17281.79757197041909 3544.362196553965532 14312.03585303868931 
	17281.79757196745777 3522.13775068271525 14281.92292668410664 
	17281.79757196650098 3502.226014848399245 14250.233276712519 
	17281.79757196432911 3482.794618920080666 14213.46783622337171 
	17281.79757196241189 3465.016766079584158 14171.29380935841255 
	17281.79757196152786 3450.300261935800336 14123.58331125667246 
	17281.79757195991624 3443.292571182113988 14088.91843510362742 
	17281.79757195978164 3440.472380654696735 14069.38170625161547 
	17281.797571959778 3439.917128091173254 14065.26340287503081 
	17281.79757195975981 3439.122779693896973 14059.08087447403523 
	17281.79757195965431 3437.610508182972353 14045.65922726061399 
	17281.79757195941056 3436.057280268590603 14024.9331442851053 
	17281.7975719592614 3435.539132934657573 14004.15541348742045 
	17281.7975719592323 3435.74636484758139 13987.53321745569883 
	17281.79757195929778 3436.678751017687318 13962.61547975958092 
	17281.79757195952334 3441.234332040611662 13917.07468965940461 
	17281.7975719610331 3453.289084581866064 13864.25971663685596 
	17281.79757196174614 3467.711519856529776 13823.04648867677315 
	17281.79757196200444 3477.254715919639693 13800.00714533808059 
	17281.7975719625465 3492.851232620516839 13766.00725186396448 
	17281.7975719672686 3520.978848800556989 13717.286611870255 
	17281.79757197201252 3562.551099917643569 13665.15888490340876 
	17281.79757197646177 3604.250897033881756 13624.48694815575618 
	17281.7975719778151 3643.286734545055879 13593.3572667012977 
	17281.79757198230436 3692.217784179841146 13561.7529942672154 
	17281.79757198812149 3752.289593996903932 13532.82328686587061 
	17281.79757200083623 3817.993888796860574 13512.55745081671012 
	17281.79757200976019 3879.543242654158348 13502.10063720811377 
	17281.79757201922985 3935.643092766932568 13498.94953592817001 
	17281.79757202931069 3991.74273298611115 13502.10071630726088 
	17281.79757204249836 4053.292503819772719 13512.55668002451785 
	17281.79757205749047 4107.049676552099299 13529.13952927972241 
	17281.79757206128852 4152.787052567718092 13549.09588272844121 
	17281.79757206919385 4185.876207122204505 13566.58339211078965 
	17281.79757207745934 4217.565625934155833 13586.49554880158939 
	17281.79757208752198 4252.697640508578843 13612.42359899131952 
	17281.79757210745447 4289.938959214539864 13645.70411684282772 
	17281.79757213395351 4327.379723266833025 13687.60048262085002 
	17281.797572151645 4359.894252970035268 13733.42535445686372 
	17281.79757221609907 4387.073368681505599 13782.60266291970402 
	17281.79757226643414 4408.57586809933764 13834.51370375300576 
	17281.79757233064083 4421.537988019759723 13879.50725544294983 
	17281.7975723497475 4428.836876767370086 13916.20304028500686 
	17281.79757236707155 4432.759652564266617 13943.98844601540804 
	17281.79757238528691 4434.725035165258305 13967.28984635563938 
	17281.797572391024 4435.413338034618391 13983.63943017881502 
	17281.79757239270475 4435.585441835808524 13991.81905134868248 
	17281.79757239311948 4435.628469218962891 13995.90946536781848 
	17281.7975723932359 4435.639226213404982 13997.95474790243134 
	17281.797572393265 4435.641915461011195 13998.97739860355614 
	17281.79757239326864 4435.642683818681689 13999.56177178524013 
	17281.79757239327228 4435.642811879230067 13999.85395860049357 
	17281.79757239327228 4435.642811879038163 14000.00005200732085 
	0 
	
	0 
	0 
	81 0 0.001116071428571428509 0.002232142857142857019 0.004464285714285714038 0.008928571428571428076 0.01785714285714285615 0.02678571428571428423 0.0357142857142857123 0.05357142857142856845 0.07142857142857142461 0.08928571428571427382 0.1071428571428571369 0.125 0.1428571428571428492 0.1587301587301587213 0.1825396825396825295 0.1904761904761904656 0.2023809523809523836 0.2142857142857142738 0.238095238095238082 0.2619047619047618625 0.2857142857142856984 0.2976190476190476164 0.3095238095238095344 0.3214285714285713969 0.3333333333333333148 0.3392857142857143016 0.3452380952380952328 0.3571428571428570953 0.3630952380952380265 0.3690476190476190133 0.3809523809523809312 0.3928571428571428492 0.4047619047619047672 0.4166666666666666297 0.4285714285714285476 0.4444444444444444198 0.4603174603174602919 0.476190476190476164 0.4781746031746031411 0.4791666666666666297 0.4801587301587301182 0.4841269841269840724 0.4920634920634920362 0.5 0.5039682539682539542 0.5079365079365079083 0.5238095238095237249 0.5476190476190475609 0.5595238095238095344 0.5654761904761904656 0.5714285714285713969 0.5952380952380951218 0.6190476190476189577 0.6349206349206348854 0.650793650793650702 0.6666666666666666297 0.6904761904761904656 0.7142857142857141906 0.7321428571428569843 0.749999999999999889 0.7678571428571427937 0.7857142857142855874 0.8095238095238094234 0.8214285714285713969 0.8333333333333332593 0.8452380952380951218 0.8571428571428570953 0.875 0.8928571428571427937 0.9107142857142856984 0.9285714285714286031 0.9464285714285713969 0.9642857142857143016 0.9732142857142858094 0.9821428571428572063 0.9910714285714286031 0.9955357142857143016 0.9977678571428572063 0.9994419642857143016 0.9998604910714286031 
	0 
	0 
	0 
	F 1 F 0 F 1 F 0 } I I I I #
tcoedge-coedge $-1 -1 $-1 $14 $14 $18 $19 reversed $9 $20 -6.283185307179586232 -0 #
tcoedge-coedge $-1 -1 $-1 $21 $22 $11 $16 reversed $12 $23 -6.283185307179586232 -0 #
tedge-edge $-1 -1 $-1 $24 0 $24 6.283185307179586232 $15 $25 forward @7 unknown 0.0008075197199442972441 #
pcurve $-1 -1 $-1 0 forward { exppc nurbs 2 periodic 5 
	0 2 1.570796326794896558 2 3.141592653589793116 2 4.712388980384689674 2 6.283185307179586232 2 
	0 500 1 
	-500 500 0.707106781186543798 
	-500 0 1 
	-500 -500 0.7071067811865463515 
	0 -500 1 
	500 -500 0.7071067811865463515 
	500 0 1 
	500 500 0.707106781186543798 
	0 500 1 
	0 
	plane 17281.79757191538738 3935.642797989755309 14000.00000000000182 1 -3.637978807091713027e-15 0 0 0 -1 forward_v I I I I 
	} 0 0 #
tcoedge-coedge $-1 -1 $-1 $22 $21 $14 $19 forward $12 $26 0 6.283185307179586232 #
tedge-edge $-1 -1 $-1 $27 0 $27 6.283185307179586232 $18 $28 forward @7 unknown 0.0008075197197532054186 #
pcurve $-1 -1 $-1 0 forward { exppc nurbs 2 periodic 5 
	-6.283185307179586232 2 -4.712388980384689674 2 -3.141592653589793116 2 -1.570796326794896558 2 0 2 
	0 500 1 
	500 500 0.707106781186543798 
	500 0 1 
	500 -500 0.7071067811865463515 
	0 -500 1 
	-500 -500 0.7071067811865463515 
	-500 0 1 
	-500 500 0.707106781186543798 
	0 500 1 
	0 
	plane 17031.79757191538738 3935.642797989756218 14000.00000000000182 -1 3.637978807091713027e-15 -0 0 0 -1 reverse_v I I I I 
	} 0 0 #
coedge $-1 -1 $-1 $18 $15 $22 $29 reversed $12 $30 #
coedge $-1 -1 $-1 $15 $18 $21 $29 forward $12 $31 #
pcurve $-1 -1 $-1 0 forward { exppc nubs 1 periodic 2 
	-6.283185307179586232 1 -0 1 
	1 1 
	0 1 
	4.4114023995510105e-13 
	spline forward { ref 0 } I I I I 
	} 0 0 #
tvertex-vertex $-1 -1 $-1 $16 $32 5.383217307301178247e-05 #
ellipse-curve $-1 -1 $-1 17281.79757191538738 3935.642797989755309 14000.00000000000182 1 -3.637978807091713027e-15 0 1.818989403545856476e-12 500 0 1 I I #
pcurve $-1 -1 $-1 0 forward { exppc nubs 1 periodic 2 
	0 1 6.283185307179586232 1 
	0 0 
	1 0 
	4.411402399551011509e-13 
	spline forward { ref 0 } I I I I 
	} 0 0 #
tvertex-vertex $-1 -1 $-1 $19 $33 5.383211292345120466e-05 #
ellipse-curve $-1 -1 $-1 17031.79757191538738 3935.642797989756218 14000.00000000000182 1 -3.637978807091713027e-15 0 1.818989403545856476e-12 500 0 1 I I #
edge $-1 -1 $-1 $27 0 $24 1 $22 $34 forward @7 tangent #
pcurve $-1 -1 $-1 -1 $34 0 0 #
pcurve $-1 -1 $-1 1 $34 1 0 #
point $-1 -1 $-1 17281.79757191539102 4435.642797989755309 14000.00000000000182 #
point $-1 -1 $-1 17031.79757191539102 4435.642797989756218 14000.00000000000182 #
intcurve-curve $-1 -1 $-1 forward { parcur full nubs 3 open 2 
	0 3 1 3 
	17031.79757238636739 4435.642811879041801 14000.00005200732085 
	17115.13090571969951 4435.642811879040892 14000.00005200732085 
	17198.46423905994016 4435.642811879038163 14000.00005200732085 
	17281.79757239327228 4435.642811879038163 14000.00005200732085 
	0 
	
	spline forward { ref 0 } I I I I 
	null_surface 
	nubs 1 open 2 
	0 1 1 1 
	0 0 
	0 1 
	
	nullbs 
	I I 
	0 
	0 
	0 
	surf1 } I I #
End-of-ACIS-data 