700 0 1 0           
4 LibG 20 ASM 224.0.1.65535 NT 24 Wed Jul 17 14:48:15 2019 
1000 9.999999999999999547e-07 1.000000000000000036e-10 
body $-1 -1 $-1 $1 $-1 $2 #
lump $-1 -1 $-1 $-1 $3 $0 #
transform $-1 -1 1 0 0 0 1 0 0 0 1 0 0 0 1 no_rotate no_reflect no_shear #
shell $-1 -1 $-1 $-1 $-1 $4 $-1 $1 #
face $-1 -1 $-1 $5 $6 $3 $-1 $7 forward single #
face $-1 -1 $-1 $8 $9 $3 $-1 $10 reversed single #
loop $-1 -1 $-1 $-1 $11 $4 #
plane-surface $-1 -1 $-1 15281.79757191538738 3935.642797989762585 14000.00000000000182 1 -3.637978807091713027e-15 0 0 0 -1 forward_v I I I I #
face $-1 -1 $-1 $-1 $12 $3 $-1 $13 forward single #
loop $-1 -1 $-1 $-1 $14 $5 #
plane-surface $-1 -1 $-1 15031.79757191538738 3935.642797989763494 14000.00000000000182 1 -3.637978807091713027e-15 0 0 0 -1 forward_v I I I I #
tcoedge-coedge $-1 -1 $-1 $11 $11 $15 $16 forward $6 $17 0 6.283185307179586232 #
loop $-1 -1 $-1 $-1 $18 $8 #
spline-surface $-1 -1 $-1 forward { exactsur full nubs 3 3 periodic open none none 84 2 
	0 3 0.001116071428571428509 1 0.002232142857142857019 1 0.004464285714285714038 1 0.008928571428571428076 1 
	0.01785714285714285615 1 0.02678571428571428423 1 0.0357142857142857123 1 0.05357142857142856845 1 0.07142857142857142461 1 
	0.08928571428571427382 1 0.1071428571428571369 1 0.125 1 0.1428571428571428492 1 0.1587301587301587213 1 
	0.1825396825396825295 1 0.1904761904761904656 1 0.2023809523809523836 1 0.2142857142857142738 1 0.238095238095238082 1 
	0.2619047619047618625 1 0.2857142857142856984 1 0.2976190476190476164 1 0.3095238095238095344 1 0.3214285714285713969 1 
	0.3333333333333333148 1 0.3392857142857143016 1 0.3452380952380952328 1 0.3571428571428570953 1 0.3630952380952380265 1 
	0.3690476190476190133 1 0.3809523809523809312 1 0.3928571428571428492 1 0.4047619047619047672 1 0.4166666666666666297 1 
	0.4285714285714285476 1 0.4444444444444444198 1 0.4603174603174602919 1 0.476190476190476164 1 0.4781746031746031411 1 
	0.4791666666666666297 1 0.4801587301587301182 1 0.4841269841269840724 1 0.4920634920634920362 1 0.5 1 
	0.5039682539682539542 1 0.5079365079365079083 1 0.5238095238095237249 1 0.5476190476190475609 1 0.5595238095238095344 1 
	0.5654761904761904656 1 0.5714285714285713969 1 0.5952380952380951218 1 0.6190476190476189577 1 0.6349206349206348854 1 
	0.650793650793650702 1 0.6666666666666666297 1 0.6904761904761904656 1 0.7142857142857141906 1 0.7321428571428569843 1 
	0.749999999999999889 1 0.7678571428571427937 1 0.7857142857142855874 1 0.8095238095238094234 1 0.8214285714285713969 1 
	0.8333333333333332593 1 0.8452380952380951218 1 0.8571428571428570953 1 0.875 1 0.8928571428571427937 1 
	0.9107142857142856984 1 0.9285714285714286031 1 0.9464285714285713969 1 0.9642857142857143016 1 0.9732142857142858094 1 
	0.9821428571428572063 1 0.9910714285714286031 1 0.9955357142857143016 1 0.9977678571428572063 1 0.9988839285714286031 1 
	0.9994419642857143016 1 0.9997209821428572063 1 0.9998604910714286031 1 1 3 
	0 3 1 3 
	15031.7975726063305 4435.642811291106227 14000.00004979187543 
	15031.79757260632141 4435.642811289688325 14001.16879704669736 
	15031.79757260581937 4435.634615388282327 14003.50629145574749 
	15031.79757260535189 4435.585441182583054 14008.18105041139643 
	15031.79757260301267 4435.413337288142429 14016.36067163298685 
	15031.79757259551843 4434.725033822220212 14032.71025595755782 
	15031.79757257157689 4432.759650186535509 14056.01165773743378 
	15031.79757254935066 4428.83687167145672 14083.79706593218725 
	15031.79757252461968 4421.537984218020938 14120.4928521722959 
	15031.79757244489156 4408.575845210212719 14165.48641888565362 
	15031.79757238013735 4387.073367688179133 14217.39745894100633 
	15031.79757230809446 4359.894195884901819 14266.57481348183865 
	15031.79757224884997 4327.379474797155126 14312.39940530480635 
	15031.79757218116538 4289.939025195994873 14354.29630137083041 
	15031.79757216310645 4249.593979783380746 14390.34957411376308 
	15031.79757212307413 4200.61023461790046 14425.56876096985616 
	15031.79757211328979 4156.693794397760939 14449.48396401921491 
	15031.79757210392745 4114.558374215879667 14467.24402586163342 
	15031.79757209760101 4083.157844286896761 14478.23174815370839 
	15031.79757208561932 4034.956830522679866 14491.14829501065651 
	15031.79757207220428 3973.147711726962825 14500.46607028064682 
	15031.79757204841917 3898.137885368112165 14500.46555067304325 
	15031.79757203079498 3836.32857553760914 14491.14873846915907 
	15031.79757202668588 3788.127687087979211 14478.23201670776325 
	15031.79757201799839 3752.801748473985299 14465.87146895156911 
	15031.79757201165194 3718.498440237668547 14450.9048189910136 
	15031.79757200485619 3690.924290801287498 14436.33151319927674 
	15031.79757200291351 3669.564644463754576 14423.46092896398113 
	15031.79757200134736 3648.701068248981301 14409.80087987906336 
	15031.79757199844244 3628.625735348504804 14394.98467831783455 
	15031.79757199656706 3609.422921781566856 14379.0743639675693 
	15031.79757199538471 3590.828303740930096 14362.45732475329532 
	15031.7975719909482 3568.774728627867262 14340.40380560822268 
	15031.79757198791958 3544.362199530883572 14312.03585379472315 
	15031.7975719835631 3522.137753521032209 14281.92292785604695 
	15031.79757198214793 3502.226017633459378 14250.23327803498432 
	15031.79757197889376 3482.794621482019465 14213.46783801614038 
	15031.79757197594699 3465.016768361887443 14171.29381168984401 
	15031.79757197460094 3450.300264058055291 14123.58331384409939 
	15031.79757197195431 3443.292572968683544 14088.91843839087778 
	15031.79757197171966 3440.472382410282989 14069.38170960464413 
	15031.79757197171966 3439.917129846389344 14065.26340622858879 
	15031.79757197170511 3439.122781445871624 14059.08087783398332 
	15031.7975719716087 3437.610509909657594 14045.65923066691357 
	15031.79757197139952 3436.057281929422061 14024.93314780973014 
	15031.79757197134495 3435.539134510761414 14004.15541715230211 
	15031.79757197132858 3435.746366411134204 13987.53322113743161 
	15031.79757197149047 3436.678752536523461 13962.61548351216152 
	15031.79757197201798 3441.234333366900501 13917.07469357821537 
	15031.79757197459185 3453.289085556437385 13864.25972086971524 
	15031.79757197572144 3467.711520731702876 13823.04649296320167 
	15031.7975719761107 3477.254716741958418 13800.0071496265009 
	15031.79757197690014 3492.851233335190045 13766.0072561287252 
	15031.79757198380503 3520.978848727155309 13717.28661580573498 
	15031.79757199064989 3562.551099277859521 13665.15888848855684 
	15031.79757199707819 3604.250895885312275 13624.48695121962373 
	15031.79757199903179 3643.2867332105684 13593.35726958903615 
	15031.79757200546919 3692.21778241985885 13561.75299640590856 
	15031.79757201379107 3752.289591586128154 13532.82328787474762 
	15031.79757203199551 3817.993885772824797 13512.55745031269726 
	15031.79757204478483 3879.543239310679382 13502.10063584251657 
	15031.79757205838359 3935.643089284810685 13498.94953378532773 
	15031.79757207286457 3991.742729450210845 13502.10071349587452 
	15031.79757209186209 4053.292500371635015 13512.55667631764118 
	15031.79757211349897 4107.049673291143336 13529.13952471489392 
	15031.79757211901779 4152.787049329553156 13549.09587811853453 
	15031.79757213048288 4185.876203971483847 13566.58338735754478 
	15031.7975721424973 4217.565622865660771 13586.49554400578381 
	15031.79757215714562 4252.697637551495973 13612.42359416588079 
	15031.79757218619307 4289.938956471547499 13645.70411205139862 
	15031.79757222489934 4327.379720783313132 13687.60047799206768 
	15031.79757225077628 4359.894250667771303 13733.42534995038477 
	15031.79757234529461 4387.073366946940041 13782.60265899137812 
	15031.79757241919833 4408.575866751737522 13834.51370031718398 
	15031.79757251370575 4421.537987091910509 13879.50725264723224 
	15031.79757254188917 4428.836875946013606 13916.20303767565201 
	15031.7975725674969 4432.759651843359279 13943.98844356945665 
	15031.79757259445796 4434.725034538071668 13967.28984407296775 
	15031.79757260299084 4435.413337436333677 13983.63942794525428 
	15031.7975726054774 4435.585441245345464 13991.81904912883147 
	15031.79757260609222 4435.628468630364296 13995.90946315119072 
	15031.79757260627048 4435.639225625293875 13997.95474568666941 
	15031.79757260631413 4435.641914873020141 13998.97739638800522 
	15031.79757260632687 4435.642683230722469 13999.56176956974559 
	15031.79757260633414 4435.642811291283579 13999.85395638502268 
	15031.7975726063305 4435.642811291106227 14000.00004979187543 
	15115.13090593966444 4435.642811291105318 14000.00004979187543 
	15115.13090593965535 4435.642811289687415 14001.16879704669736 
	15115.13090593915331 4435.634615388281418 14003.50629145574749 
	15115.13090593868583 4435.585441182582144 14008.18105041139643 
	15115.13090593634661 4435.41333728814152 14016.36067163298685 
	15115.13090592885237 4434.725033822219302 14032.71025595755782 
	15115.13090590491083 4432.7596501865346 14056.01165773743378 
	15115.1309058826846 4428.83687167145581 14083.79706593218725 
	15115.13090585795362 4421.537984218020028 14120.4928521722959 
	15115.1309057782255 4408.57584521021181 14165.48641888565362 
	15115.13090571347129 4387.073367688178223 14217.39745894100633 
	15115.1309056414284 4359.89419588490091 14266.57481348183865 
	15115.13090558218391 4327.379474797154217 14312.39940530480635 
	15115.13090551449932 4289.939025195993963 14354.29630137083041 
	15115.13090549644039 4249.593979783379837 14390.34957411376308 
	15115.13090545640807 4200.61023461789955 14425.56876096985616 
	15115.13090544662373 4156.69379439776003 14449.48396401921491 
	15115.13090543726139 4114.558374215878757 14467.24402586163342 
	15115.13090543093494 4083.157844286896307 14478.23174815370839 
	15115.13090541895326 4034.956830522679411 14491.14829501065651 
	15115.13090540553821 3973.14771172696237 14500.46607028064682 
	15115.13090538175311 3898.137885368111711 14500.46555067304325 
	15115.13090536412892 3836.328575537608685 14491.14873846915907 
	15115.13090536001982 3788.127687087978757 14478.23201670776325 
	15115.13090535133233 3752.801748473984844 14465.87146895156911 
	15115.13090534498588 3718.498440237668092 14450.9048189910136 
	15115.13090533819013 3690.924290801287043 14436.33151319927674 
	15115.13090533624745 3669.564644463754121 14423.46092896398113 
	15115.1309053346813 3648.701068248980846 14409.80087987906336 
	15115.13090533177638 3628.62573534850435 14394.98467831783455 
	15115.130905329901 3609.422921781566401 14379.0743639675693 
	15115.13090532871865 3590.828303740929641 14362.45732475329532 
	15115.13090532428214 3568.774728627866807 14340.40380560822268 
	15115.13090532125352 3544.362199530883117 14312.03585379472315 
	15115.13090531689704 3522.137753521031755 14281.92292785604695 
	15115.13090531548187 3502.226017633458923 14250.23327803498432 
	15115.1309053122277 3482.794621482019011 14213.46783801614038 
	15115.13090530928093 3465.016768361886989 14171.29381168984401 
	15115.13090530793488 3450.300264058054836 14123.58331384409939 
	15115.13090530528825 3443.292572968683089 14088.91843839087778 
	15115.1309053050536 3440.472382410282535 14069.38170960464413 
	15115.1309053050536 3439.917129846388889 14065.26340622858879 
	15115.13090530503905 3439.122781445871169 14059.08087783398332 
	15115.13090530494264 3437.610509909657139 14045.65923066691357 
	15115.13090530473346 3436.057281929421606 14024.93314780973014 
	15115.13090530467889 3435.53913451076096 14004.15541715230211 
	15115.13090530466252 3435.746366411133749 13987.53322113743161 
	15115.13090530482441 3436.678752536523007 13962.61548351216152 
	15115.13090530535192 3441.234333366900046 13917.07469357821537 
	15115.13090530792579 3453.28908555643693 13864.25972086971524 
	15115.13090530905538 3467.711520731702421 13823.04649296320167 
	15115.13090530944464 3477.254716741957964 13800.0071496265009 
	15115.13090531023408 3492.85123333518959 13766.0072561287252 
	15115.13090531713897 3520.978848727154855 13717.28661580573498 
	15115.13090532398382 3562.551099277859066 13665.15888848855684 
	15115.13090533041213 3604.25089588531182 13624.48695121962373 
	15115.13090533236573 3643.286733210567945 13593.35726958903615 
	15115.13090533880313 3692.217782419858395 13561.75299640590856 
	15115.13090534712501 3752.289591586127699 13532.82328787474762 
	15115.13090536532945 3817.993885772824342 13512.55745031269726 
	15115.13090537811877 3879.543239310678928 13502.10063584251657 
	15115.13090539171753 3935.64308928481023 13498.94953378532773 
	15115.13090540619851 3991.74272945021039 13502.10071349587452 
	15115.13090542519603 4053.29250037163456 13512.55667631764118 
	15115.13090544683291 4107.049673291142426 13529.13952471489392 
	15115.13090545235173 4152.787049329552246 13549.09587811853453 
	15115.13090546381682 4185.876203971482937 13566.58338735754478 
	15115.13090547583124 4217.565622865659861 13586.49554400578381 
	15115.13090549047956 4252.697637551495063 13612.42359416588079 
	15115.130905519527 4289.938956471546589 13645.70411205139862 
	15115.13090555823328 4327.379720783312223 13687.60047799206768 
	15115.13090558411022 4359.894250667770393 13733.42534995038477 
	15115.13090567862855 4387.073366946939132 13782.60265899137812 
	15115.13090575253227 4408.575866751736612 13834.51370031718398 
	15115.13090584703968 4421.537987091909599 13879.50725264723224 
	15115.13090587522311 4428.836875946012697 13916.20303767565201 
	15115.13090590083084 4432.75965184335837 13943.98844356945665 
	15115.1309059277919 4434.725034538070759 13967.28984407296775 
	15115.13090593632478 4435.413337436332768 13983.63942794525428 
	15115.13090593881134 4435.585441245344555 13991.81904912883147 
	15115.13090593942616 4435.628468630363386 13995.90946315119072 
	15115.13090593960442 4435.639225625292966 13997.95474568666941 
	15115.13090593964807 4435.641914873019232 13998.97739638800522 
	15115.13090593966081 4435.642683230721559 13999.56176956974559 
	15115.13090593966808 4435.642811291282669 13999.85395638502268 
	15115.13090593966444 4435.642811291105318 14000.00004979187543 
	15198.46423928449803 4435.642811291104408 14000.00004979187543 
	15198.46423928448894 4435.642811289687415 14001.16879704669736 
	15198.46423928397417 4435.634615388280508 14003.50629145574749 
	15198.46423928349941 4435.585441182581235 14008.18105041139643 
	15198.46423928112199 4435.41333728814061 14016.36067163298685 
	15198.46423927350224 4434.725033822220212 14032.71025595755782 
	15198.46423924916053 4432.7596501865346 14056.01165773743378 
	15198.46423922656504 4428.83687167145672 14083.79706593218725 
	15198.46423920142297 4421.537984218020028 14120.4928521722959 
	15198.46423912037062 4408.575845210212719 14165.48641888565362 
	15198.46423905453594 4387.073367688179133 14217.39745894100633 
	15198.46423898129251 4359.894195884901819 14266.57481348183865 
	15198.46423892106395 4327.379474797155126 14312.39940530480635 
	15198.46423885225158 4289.939025195994873 14354.29630137083041 
	15198.46423883389434 4249.593979783380746 14390.34957411376308 
	15198.46423879319627 4200.61023461790046 14425.56876096985616 
	15198.4642387832464 4156.693794397760939 14449.48396401921491 
	15198.46423877372763 4114.558374215879667 14467.24402586163342 
	15198.46423876729568 4083.157844286897216 14478.23174815370839 
	15198.46423875511573 4034.95683052268032 14491.14829501065651 
	15198.46423874147695 3973.14771172696328 14500.46607028064682 
	15198.4642387172953 3898.13788536811262 14500.46555067304325 
	15198.46423869938008 3836.328575537609595 14491.14873846915907 
	15198.46423869520004 3788.127687087979666 14478.23201670776325 
	15198.46423868636703 3752.801748473985754 14465.87146895156911 
	15198.46423867991325 3718.498440237669001 14450.9048189910136 
	15198.46423867300473 3690.924290801287952 14436.33151319927674 
	15198.46423867102931 3669.56464446375503 14423.46092896398113 
	15198.46423866943769 3648.701068248981755 14409.80087987906336 
	15198.46423866648365 3628.625735348505259 14394.98467831783455 
	15198.46423866457735 3609.422921781567311 14379.0743639675693 
	15198.46423866337682 3590.828303740930551 14362.45732475329532 
	15198.46423865886754 3568.774728627867717 14340.40380560822268 
	15198.46423865578981 3544.362199530884027 14312.03585379472315 
	15198.46423865136239 3522.137753521032664 14281.92292785604695 
	15198.46423864992357 3502.226017633459833 14250.23327803498432 
	15198.46423864661483 3482.794621482019465 14213.46783801614038 
	15198.46423864362077 3465.016768361887898 14171.29381168984401 
	15198.46423864225289 3450.300264058055745 14123.58331384409939 
	15198.46423863956261 3443.292572968683999 14088.91843839087778 
	15198.4642386393225 3440.472382410283444 14069.38170960464413 
	15198.4642386393225 3439.917129846389798 14065.26340622858879 
	15198.46423863930613 3439.122781445872079 14059.08087783398332 
	15198.46423863920973 3437.610509909658049 14045.65923066691357 
	15198.46423863899327 3436.057281929422516 14024.93314780973014 
	15198.46423863894051 3435.539134510761869 14004.15541715230211 
	15198.46423863892232 3435.746366411134659 13987.53322113743161 
	15198.46423863908603 3436.678752536523916 13962.61548351216152 
	15198.46423863962264 3441.234333366900955 13917.07469357821537 
	15198.46423864224198 3453.28908555643784 13864.25972086971524 
	15198.46423864338794 3467.711520731703331 13823.04649296320167 
	15198.46423864378448 3477.254716741958873 13800.0071496265009 
	15198.46423864458848 3492.851233335190045 13766.0072561287252 
	15198.46423865160978 3520.978848727155764 13717.28661580573498 
	15198.46423865856741 3562.551099277859521 13665.15888848855684 
	15198.46423866510668 3604.25089588531182 13624.48695121962373 
	15198.46423866708938 3643.286733210568855 13593.35726958903615 
	15198.4642386736341 3692.21778241985885 13561.75299640590856 
	15198.4642386820924 3752.289591586128608 13532.82328787474762 
	15198.46423870060062 3817.993885772824797 13512.55745031269726 
	15198.46423871360275 3879.543239310679837 13502.10063584251657 
	15198.46423872742889 3935.64308928481114 13498.94953378532773 
	15198.46423874214997 3991.7427294502113 13502.10071349587452 
	15198.464238761464 4053.292500371635469 13512.55667631764118 
	15198.46423878345922 4107.049673291143336 13529.13952471489392 
	15198.46423878906899 4152.787049329553156 13549.09587811853453 
	15198.46423880072507 4185.876203971483847 13566.58338735754478 
	15198.46423881293777 4217.565622865660771 13586.49554400578381 
	15198.46423882783347 4252.697637551495973 13612.42359416588079 
	15198.46423885736294 4289.938956471547499 13645.70411205139862 
	15198.46423889671496 4327.379720783313132 13687.60047799206768 
	15198.464238923023 4359.894250667771303 13733.42534995038477 
	15198.46423901911112 4387.073366946939132 13782.60265899137812 
	15198.4642390942463 4408.575866751736612 13834.51370031718398 
	15198.46423919032713 4421.537987091909599 13879.50725264723224 
	15198.46423921897804 4428.836875946011787 13916.20303767565201 
	15198.46423924501323 4432.75965184335837 13943.98844356945665 
	15198.46423927242358 4434.725034538070759 13967.28984407296775 
	15198.46423928109652 4435.413337436331858 13983.63942794525428 
	15198.4642392836231 4435.585441245344555 13991.81904912883147 
	15198.46423928425065 4435.628468630362477 13995.90946315119072 
	15198.46423928443073 4435.639225625292966 13997.95474568666941 
	15198.46423928447621 4435.641914873019232 13998.97739638800522 
	15198.4642392844944 4435.64268323072065 13999.56176956974559 
	15198.46423928449803 4435.64281129128176 13999.85395638502268 
	15198.46423928449803 4435.642811291104408 14000.00004979187543 
	15281.79757261783197 4435.642811291104408 14000.00004979187543 
	15281.79757261782288 4435.642811289687415 14001.16879704669736 
	15281.79757261730811 4435.634615388280508 14003.50629145574749 
	15281.79757261683335 4435.585441182581235 14008.18105041139643 
	15281.79757261445593 4435.41333728814061 14016.36067163298685 
	15281.79757260683618 4434.725033822220212 14032.71025595755782 
	15281.79757258249447 4432.7596501865346 14056.01165773743378 
	15281.79757255989898 4428.83687167145672 14083.79706593218725 
	15281.79757253475691 4421.537984218020028 14120.4928521722959 
	15281.79757245370456 4408.575845210212719 14165.48641888565362 
	15281.79757238786988 4387.073367688179133 14217.39745894100633 
	15281.79757231462645 4359.894195884901819 14266.57481348183865 
	15281.79757225439789 4327.379474797155126 14312.39940530480635 
	15281.79757218558552 4289.939025195994873 14354.29630137083041 
	15281.79757216722828 4249.593979783380746 14390.34957411376308 
	15281.79757212653021 4200.61023461790046 14425.56876096985616 
	15281.79757211658034 4156.693794397760939 14449.48396401921491 
	15281.79757210706157 4114.558374215879667 14467.24402586163342 
	15281.79757210062962 4083.157844286896761 14478.23174815370839 
	15281.79757208844967 4034.956830522679866 14491.14829501065651 
	15281.79757207481089 3973.147711726962825 14500.46607028064682 
	15281.79757205062924 3898.137885368112165 14500.46555067304325 
	15281.79757203271402 3836.32857553760914 14491.14873846915907 
	15281.79757202853398 3788.127687087979211 14478.23201670776325 
	15281.79757201970097 3752.801748473985299 14465.87146895156911 
	15281.79757201324719 3718.498440237668547 14450.9048189910136 
	15281.79757200633867 3690.924290801287498 14436.33151319927674 
	15281.79757200436325 3669.564644463754576 14423.46092896398113 
	15281.79757200277163 3648.701068248981301 14409.80087987906336 
	15281.79757199981759 3628.625735348504804 14394.98467831783455 
	15281.79757199791129 3609.422921781566856 14379.0743639675693 
	15281.79757199671076 3590.828303740930096 14362.45732475329532 
	15281.79757199220148 3568.774728627867262 14340.40380560822268 
	15281.79757198912375 3544.362199530883572 14312.03585379472315 
	15281.79757198469633 3522.137753521032209 14281.92292785604695 
	15281.79757198325751 3502.226017633459378 14250.23327803498432 
	15281.79757197994877 3482.794621482019011 14213.46783801614038 
	15281.79757197695471 3465.016768361887443 14171.29381168984401 
	15281.79757197558683 3450.300264058055291 14123.58331384409939 
	15281.79757197289655 3443.292572968683544 14088.91843839087778 
	15281.79757197265644 3440.472382410282989 14069.38170960464413 
	15281.79757197265644 3439.917129846389344 14065.26340622858879 
	15281.79757197264007 3439.122781445871624 14059.08087783398332 
	15281.79757197254366 3437.610509909657594 14045.65923066691357 
	15281.79757197232721 3436.057281929422061 14024.93314780973014 
	15281.79757197227445 3435.539134510761414 14004.15541715230211 
	15281.79757197225626 3435.746366411134204 13987.53322113743161 
	15281.79757197241997 3436.678752536523461 13962.61548351216152 
	15281.79757197295658 3441.234333366900501 13917.07469357821537 
	15281.79757197557592 3453.289085556437385 13864.25972086971524 
	15281.79757197672188 3467.711520731702876 13823.04649296320167 
	15281.79757197711842 3477.254716741958418 13800.0071496265009 
	15281.79757197792242 3492.85123333518959 13766.0072561287252 
	15281.79757198494372 3520.978848727155309 13717.28661580573498 
	15281.79757199190135 3562.551099277859066 13665.15888848855684 
	15281.79757199844062 3604.250895885311365 13624.48695121962373 
	15281.79757200042332 3643.2867332105684 13593.35726958903615 
	15281.79757200696804 3692.217782419858395 13561.75299640590856 
	15281.79757201542634 3752.289591586128154 13532.82328787474762 
	15281.79757203393456 3817.993885772824342 13512.55745031269726 
	15281.79757204693669 3879.543239310679382 13502.10063584251657 
	15281.79757206076283 3935.643089284810685 13498.94953378532773 
	15281.79757207548391 3991.742729450210845 13502.10071349587452 
	15281.79757209479794 4053.292500371635015 13512.55667631764118 
	15281.79757211679316 4107.049673291143336 13529.13952471489392 
	15281.79757212240293 4152.787049329553156 13549.09587811853453 
	15281.79757213405901 4185.876203971483847 13566.58338735754478 
	15281.7975721462717 4217.565622865660771 13586.49554400578381 
	15281.79757216116741 4252.697637551495973 13612.42359416588079 
	15281.79757219069688 4289.938956471547499 13645.70411205139862 
	15281.7975722300489 4327.379720783313132 13687.60047799206768 
	15281.79757225635694 4359.894250667771303 13733.42534995038477 
	15281.79757235244506 4387.073366946939132 13782.60265899137812 
	15281.79757242758023 4408.575866751736612 13834.51370031718398 
	15281.79757252366107 4421.537987091909599 13879.50725264723224 
	15281.79757255231198 4428.836875946011787 13916.20303767565201 
	15281.79757257834717 4432.75965184335837 13943.98844356945665 
	15281.79757260575752 4434.725034538070759 13967.28984407296775 
	15281.79757261443046 4435.413337436331858 13983.63942794525428 
	15281.79757261695704 4435.585441245344555 13991.81904912883147 
	15281.79757261758459 4435.628468630362477 13995.90946315119072 
	15281.79757261776467 4435.639225625292966 13997.95474568666941 
	15281.79757261781015 4435.641914873019232 13998.97739638800522 
	15281.79757261782834 4435.64268323072065 13999.56176956974559 
	15281.79757261783197 4435.64281129128176 13999.85395638502268 
	15281.79757261783197 4435.642811291104408 14000.00004979187543 
	0 
	
	0 
	0 
	81 0 0.001116071428571428509 0.002232142857142857019 0.004464285714285714038 0.008928571428571428076 0.01785714285714285615 0.02678571428571428423 0.0357142857142857123 0.05357142857142856845 0.07142857142857142461 0.08928571428571427382 0.1071428571428571369 0.125 0.1428571428571428492 0.1587301587301587213 0.1825396825396825295 0.1904761904761904656 0.2023809523809523836 0.2142857142857142738 0.238095238095238082 0.2619047619047618625 0.2857142857142856984 0.2976190476190476164 0.3095238095238095344 0.3214285714285713969 0.3333333333333333148 0.3392857142857143016 0.3452380952380952328 0.3571428571428570953 0.3630952380952380265 0.3690476190476190133 0.3809523809523809312 0.3928571428571428492 0.4047619047619047672 0.4166666666666666297 0.4285714285714285476 0.4444444444444444198 0.4603174603174602919 0.476190476190476164 0.4781746031746031411 0.4791666666666666297 0.4801587301587301182 0.4841269841269840724 0.4920634920634920362 0.5 0.5039682539682539542 0.5079365079365079083 0.5238095238095237249 0.5476190476190475609 0.5595238095238095344 0.5654761904761904656 0.5714285714285713969 0.5952380952380951218 0.6190476190476189577 0.6349206349206348854 0.650793650793650702 0.6666666666666666297 0.6904761904761904656 0.7142857142857141906 0.7321428571428569843 0.749999999999999889 0.7678571428571427937 0.7857142857142855874 0.8095238095238094234 0.8214285714285713969 0.8333333333333332593 0.8452380952380951218 0.8571428571428570953 0.875 0.8928571428571427937 0.9107142857142856984 0.9285714285714286031 0.9464285714285713969 0.9642857142857143016 0.9732142857142858094 0.9821428571428572063 0.9910714285714286031 0.9955357142857143016 0.9977678571428572063 0.9994419642857143016 0.9998604910714286031 
	0 
	0 
	0 
	F 1 F 0 F 1 F 0 } I I I I #
tcoedge-coedge $-1 -1 $-1 $14 $14 $18 $19 reversed $9 $20 -6.283185307179586232 -0 #
tcoedge-coedge $-1 -1 $-1 $21 $22 $11 $16 reversed $12 $23 -6.283185307179586232 -0 #
tedge-edge $-1 -1 $-1 $24 0 $24 6.283185307179586232 $15 $25 forward @7 unknown 0.000804520606572579791 #
pcurve $-1 -1 $-1 0 forward { exppc nurbs 2 periodic 5 
	0 2 1.570796326794896558 2 3.141592653589793116 2 4.712388980384689674 2 6.283185307179586232 2 
	0 500 1 
	-500 500 0.707106781186543798 
	-500 0 1 
	-500 -500 0.7071067811865463515 
	0 -500 1 
	500 -500 0.7071067811865463515 
	500 0 1 
	500 500 0.707106781186543798 
	0 500 1 
	0 
	plane 15281.79757191538738 3935.642797989762585 14000.00000000000182 1 -3.637978807091713027e-15 0 0 0 -1 forward_v I I I I 
	} 0 0 #
tcoedge-coedge $-1 -1 $-1 $22 $21 $14 $19 forward $12 $26 0 6.283185307179586232 #
tedge-edge $-1 -1 $-1 $27 0 $27 6.283185307179586232 $18 $28 forward @7 unknown 0.0008045206059628567984 #
pcurve $-1 -1 $-1 0 forward { exppc nurbs 2 periodic 5 
	-6.283185307179586232 2 -4.712388980384689674 2 -3.141592653589793116 2 -1.570796326794896558 2 0 2 
	0 500 1 
	500 500 0.707106781186543798 
	500 0 1 
	500 -500 0.7071067811865463515 
	0 -500 1 
	-500 -500 0.7071067811865463515 
	-500 0 1 
	-500 500 0.707106781186543798 
	0 500 1 
	0 
	plane 15031.79757191538738 3935.642797989763494 14000.00000000000182 -1 3.637978807091713027e-15 -0 0 0 -1 reverse_v I I I I 
	} 0 0 #
coedge $-1 -1 $-1 $18 $15 $22 $29 reversed $12 $30 #
coedge $-1 -1 $-1 $15 $18 $21 $29 forward $12 $31 #
pcurve $-1 -1 $-1 0 forward { exppc nubs 1 periodic 2 
	-6.283185307179586232 1 -0 1 
	1 1 
	0 1 
	2.726396620975368931e-13 
	spline forward { ref 0 } I I I I 
	} 0 0 #
tvertex-vertex $-1 -1 $-1 $16 $32 5.154270877962558307e-05 #
ellipse-curve $-1 -1 $-1 15281.79757191538738 3935.642797989762585 14000.00000000000182 1 -3.637978807091713027e-15 0 1.818989403545856476e-12 500 0 1 I I #
pcurve $-1 -1 $-1 0 forward { exppc nubs 1 periodic 2 
	0 1 6.283185307179586232 1 
	0 0 
	1 0 
	4.4114023995510105e-13 
	spline forward { ref 0 } I I I I 
	} 0 0 #
tvertex-vertex $-1 -1 $-1 $19 $33 5.15425535510996406e-05 #
ellipse-curve $-1 -1 $-1 15031.79757191538738 3935.642797989763494 14000.00000000000182 1 -3.637978807091713027e-15 0 1.818989403545856476e-12 500 0 1 I I #
edge $-1 -1 $-1 $27 0 $24 1 $22 $34 forward @7 tangent #
pcurve $-1 -1 $-1 -1 $34 0 0 #
pcurve $-1 -1 $-1 1 $34 1 0 #
point $-1 -1 $-1 15281.7975719153892 4435.642797989762585 14000.00000000000182 #
point $-1 -1 $-1 15031.7975719153892 4435.642797989763494 14000.00000000000182 #
intcurve-curve $-1 -1 $-1 forward { parcur full nubs 3 open 2 
	0 3 1 3 
	15031.7975726063305 4435.642811291106227 14000.00004979187543 
	15115.13090593966444 4435.642811291105318 14000.00004979187543 
	15198.46423928449803 4435.642811291104408 14000.00004979187543 
	15281.79757261783197 4435.642811291104408 14000.00004979187543 
	0 
	
	spline forward { ref 0 } I I I I 
	null_surface 
	nubs 1 open 2 
	0 1 1 1 
	0 0 
	0 1 
	
	nullbs 
	I I 
	0 
	0 
	0 
	surf1 } I I #
End-of-ACIS-data 