700 0 1 0           
4 LibG 20 ASM 224.0.1.65535 NT 24 Wed Jul 17 14:48:14 2019 
1000 9.999999999999999547e-07 1.000000000000000036e-10 
body $-1 -1 $-1 $1 $-1 $2 #
lump $-1 -1 $-1 $-1 $3 $0 #
transform $-1 -1 1 0 0 0 1 0 0 0 1 0 0 0 1 no_rotate no_reflect no_shear #
shell $-1 -1 $-1 $-1 $-1 $4 $-1 $1 #
face $-1 -1 $-1 $5 $6 $3 $-1 $7 forward single #
face $-1 -1 $-1 $8 $9 $3 $-1 $10 reversed single #
loop $-1 -1 $-1 $-1 $11 $4 #
plane-surface $-1 -1 $-1 6781.79757191538738 3935.642797989793507 14000.00000000000182 1 -3.637978807091713027e-15 0 0 0 -1 forward_v I I I I #
face $-1 -1 $-1 $-1 $12 $3 $-1 $13 forward single #
loop $-1 -1 $-1 $-1 $14 $5 #
plane-surface $-1 -1 $-1 6531.79757191538738 3935.642797989794417 14000.00000000000182 1 -3.637978807091713027e-15 0 0 0 -1 forward_v I I I I #
tcoedge-coedge $-1 -1 $-1 $11 $11 $15 $16 forward $6 $17 0 6.283185307179586232 #
loop $-1 -1 $-1 $-1 $18 $8 #
spline-surface $-1 -1 $-1 forward { exactsur full nubs 3 3 periodic open none none 97 2 
	0 3 0.001116071428571428509 1 0.002232142857142857019 1 0.004464285714285714038 1 0.008928571428571428076 1 
	0.01785714285714285615 1 0.0357142857142857123 1 0.05357142857142856845 1 0.07142857142857142461 1 0.08928571428571427382 1 
	0.1071428571428571369 1 0.1160714285714285754 1 0.125 1 0.1428571428571428492 1 0.1587301587301587213 1 
	0.1746031746031745935 1 0.1904761904761904656 1 0.2023809523809523836 1 0.2142857142857142738 1 0.226190476190476164 1 
	0.238095238095238082 1 0.2499999999999999722 1 0.2619047619047618625 1 0.2738095238095237804 1 0.2857142857142856984 1 
	0.2976190476190476164 1 0.3095238095238095344 1 0.3125 1 0.3154761904761904656 1 0.3214285714285713969 1 
	0.3273809523809523281 1 0.3333333333333333148 1 0.3452380952380952328 1 0.3571428571428570953 1 0.3690476190476190133 1 
	0.375 1 0.3809523809523809312 1 0.3839285714285713969 1 0.3869047619047618625 1 0.3898809523809523281 1 
	0.3928571428571428492 1 0.4047619047619047672 1 0.4166666666666666297 1 0.4285714285714285476 1 0.4444444444444444198 1 
	0.4603174603174602919 1 0.476190476190476164 1 0.4771825396825396526 1 0.4781746031746031411 1 0.4791666666666666297 1 
	0.4801587301587301182 1 0.4841269841269840724 1 0.4880952380952380265 1 0.4900793650793650036 1 0.4920634920634920362 1 
	0.5158730158730158166 1 0.5178571428571427937 1 0.5198412698412697708 1 0.5218253968253967479 1 0.5238095238095237249 1 
	0.5476190476190475609 1 0.5714285714285713969 1 0.5952380952380951218 1 0.6190476190476189577 1 0.6349206349206348854 1 
	0.650793650793650702 1 0.6666666666666666297 1 0.6785714285714286031 1 0.6904761904761904656 1 0.7023809523809523281 1 
	0.7142857142857141906 1 0.7321428571428569843 1 0.749999999999999889 1 0.7678571428571427937 1 0.7857142857142855874 1 
	0.7976190476190474499 1 0.8095238095238094234 1 0.8333333333333332593 1 0.8392857142857141906 1 0.8452380952380951218 1 
	0.8571428571428570953 1 0.875 1 0.8928571428571427937 1 0.9107142857142856984 1 0.9285714285714286031 1 
	0.9464285714285713969 1 0.9642857142857143016 1 0.9732142857142858094 1 0.9821428571428572063 1 0.9910714285714286031 1 
	0.9955357142857143016 1 0.9977678571428572063 1 0.9988839285714286031 1 0.9994419642857143016 1 0.9997209821428572063 1 
	0.9998604910714286031 1 1 3 
	0 3 1 3 
	6531.797571880052601 4435.642903793204823 13999.99989551737235 
	6531.797571880053511 4435.642903785930685 14001.16864279019683 
	6531.797571880080795 4435.634708373509056 14003.5061374753659 
	6531.797571880104442 4435.585532297716782 14008.18089645990221 
	6531.79757188021722 4435.413437573710326 14016.36051982103163 
	6531.79757188063104 4434.725081858673548 14032.71010226834915 
	6531.797571881970725 4431.97382918222047 14065.33211326065975 
	6531.797571886268997 4424.13079461601501 14111.49408108426542 
	6531.79757188973781 4408.575794729580593 14165.48634254620993 
	6531.797571893526765 4387.073497034395587 14217.39748155744746 
	6531.797571896417139 4359.894231841879446 14266.57480327690064 
	6531.797571899411196 4332.798660491350347 14304.76212665446656 
	6531.797571900208823 4308.65942204012299 14333.34799618679244 
	6531.79757190098826 4282.956044377938269 14360.53608358078782 
	6531.797571903176504 4249.594182547904893 14390.35005299567456 
	6531.797571905024597 4207.366010260476287 14420.70985623691922 
	6531.797571905999575 4164.126531172319119 14445.67405178084118 
	6531.79757190672899 4122.408876439263622 14464.49786657764344 
	6531.79757190764758 4083.157816568661929 14478.23210658814605 
	6531.797571908392456 4047.007037898731141 14487.91881402586114 
	6531.797571908731697 4010.233399640968855 14494.87666166496092 
	6531.797571909307408 3973.042649957605136 14499.06707881962211 
	6531.797571909847647 3935.642731787397224 14500.46647717452652 
	6531.797571910350598 3898.242819360520571 14499.06707661101609 
	6531.79757191081444 3861.052058026458326 14494.87668743265385 
	6531.797571911281921 3824.278441822483728 14487.91874225135689 
	6531.797571911644809 3788.127611359776438 14478.23217323419885 
	6531.797571912042258 3761.633224430643622 14468.96136537681195 
	6531.79757191209228 3744.289818977387313 14461.96670358142001 
	6531.797571912116837 3732.816751274763647 14457.0882453445829 
	6531.797571912202329 3718.650227142994936 14450.58949270863013 
	6531.797571912279636 3701.953900478105425 14442.16077098052665 
	6531.797571912361491 3680.12785680291654 14430.0980290285479 
	6531.797571912663443 3653.719856660815822 14413.50483731730492 
	6531.797571912728017 3623.606871454594057 14391.28052041387127 
	6531.797571913029969 3599.966973141364178 14370.93667622517751 
	6531.797571913068168 3582.006799623352435 14353.6358669899364 
	6531.797571913128195 3571.193806358058282 14342.4107483701373 
	6531.797571913140018 3562.799795272753272 14333.19276343552519 
	6531.797571913152751 3556.634650961469106 14326.16277506571896 
	6531.797571913163665 3550.602048206701966 14319.01872464799271 
	6531.797571913180036 3538.806086723745921 14304.50754925164438 
	6531.797571913351931 3522.137707319926449 14281.92289815839285 
	6531.797571913394677 3502.225980430786876 14250.23324973073431 
	6531.797571913541105 3482.794562368096649 14213.46784228022989 
	6531.797571913664797 3465.016691238444764 14171.29384561200459 
	6531.797571913727552 3450.300185345010505 14123.58336109941956 
	6531.797571913844877 3443.498564583379448 14089.93808397732755 
	6531.797571913855791 3440.769138788057262 14071.43830027197509 
	6531.797571913854881 3440.333455179886187 14068.35222834266278 
	6531.797571913855791 3439.917020492388019 14065.26350020396785 
	6531.797571913855791 3439.122665413738105 14059.08097275787622 
	6531.79757191385761 3438.075738891836409 14049.78906425230707 
	6531.797571913858519 3437.170168755155828 14039.43892785600656 
	6531.797571913858519 3436.600807050120238 14031.1472053754751 
	6531.797571913848515 3434.969150162038204 14002.10357353137078 
	6531.797571913799402 3435.696560538391623 13972.94250123615166 
	6531.797571913786669 3438.773912756542813 13944.01630613993075 
	6531.797571913782122 3439.510354128702602 13937.82652738020261 
	6531.797571913782122 3440.324046491038644 13931.64642200824164 
	6531.797571913753018 3444.479772767485429 13902.85541764068876 
	6531.797571913560205 3456.070775911518467 13852.07158860972049 
	6531.797571913339198 3483.474868324432919 13782.24740324714003 
	6531.797571912980857 3520.97922421838166 13717.28705884749979 
	6531.797571912738931 3562.550999281336772 13665.1590930413422 
	6531.797571912187777 3604.251247571913609 13624.48767871534983 
	6531.797571912145941 3643.286718521995226 13593.35750297685627 
	6531.7975719117685 3681.733040378579972 13568.52643728670591 
	6531.79757191139015 3718.498620071306959 13549.09550747331559 
	6531.797571911225532 3752.801878249645597 13534.12894166987644 
	6531.797571910775332 3788.127767843550828 13521.76814240980821 
	6531.797571910324223 3830.303592098206536 13510.4666402741168 
	6531.797571909907674 3879.542921238959934 13502.10030380957141 
	6531.79757190930286 3935.642768905497633 13498.94995690991163 
	6531.797571908664395 3991.742554548239241 13502.10039210841933 
	6531.797571907943166 4040.981977421282863 13510.46663778967195 
	6531.797571907470228 4083.157665088217982 13521.76836564147925 
	6531.797571907273777 4130.259264727307709 13538.24871594430988 
	6531.797571906020494 4169.681843145375751 13557.23243005212316 
	6531.797571905643963 4201.720951981557846 13576.53901361948556 
	6531.797571905459336 4222.584562071526307 13590.19894567364463 
	6531.797571904673532 4252.697680234135987 13612.42314360202363 
	6531.797571903084645 4289.93899281168342 13645.70364016352505 
	6531.797571901014635 4327.379748707053295 13687.60009056441777 
	6531.797571899255672 4359.894213358242268 13733.42501566649662 
	6531.797571896045156 4387.073646798978189 13782.60221655672467 
	6531.797571890721883 4408.575956918291013 13834.51342844521605 
	6531.797571885649631 4421.538116836881272 13879.50702347317929 
	6531.797571883872479 4428.836979628618792 13916.20284167989666 
	6531.797571882396369 4432.759755081942785 13943.98826302921771 
	6531.797571880764735 4434.725128773376127 13967.28968311286553 
	6531.797571880254509 4435.413430643880019 13983.63927178280755 
	6531.797571880105352 4435.585533865208163 13991.81889444158514 
	6531.797571880063515 4435.628561173019079 13995.90930876561833 
	6531.797571880056239 4435.639318141697913 13997.95459138514161 
	6531.797571880050782 4435.642007380491123 13998.97724210449269 
	6531.797571880052601 4435.642775742840968 13999.561615292243 
	6531.797571880052601 4435.642903794114318 13999.85380210826952 
	6531.797571880052601 4435.642903793204823 13999.99989551737235 
	6615.130905213385631 4435.642903793203914 13999.99989551737235 
	6615.130905213386541 4435.642903785929775 14001.16864279019683 
	6615.130905213413826 4435.634708373508147 14003.5061374753659 
	6615.130905213437472 4435.585532297715872 14008.18089645990221 
	6615.13090521355025 4435.413437573709416 14016.36051982103163 
	6615.13090521396407 4434.725081858672638 14032.71010226834915 
	6615.130905215303756 4431.973829182219561 14065.33211326065975 
	6615.130905219602028 4424.1307946160141 14111.49408108426542 
	6615.13090522307084 4408.575794729579684 14165.48634254620993 
	6615.130905226859795 4387.073497034394677 14217.39748155744746 
	6615.130905229750169 4359.894231841878536 14266.57480327690064 
	6615.130905232744226 4332.798660491349438 14304.76212665446656 
	6615.130905233541853 4308.659422040122081 14333.34799618679244 
	6615.13090523432129 4282.95604437793736 14360.53608358078782 
	6615.130905236509534 4249.594182547903984 14390.35005299567456 
	6615.130905238357627 4207.366010260475377 14420.70985623691922 
	6615.130905239332606 4164.126531172318209 14445.67405178084118 
	6615.13090524006202 4122.408876439262713 14464.49786657764344 
	6615.13090524098061 4083.157816568661474 14478.23210658814605 
	6615.130905241725486 4047.007037898730687 14487.91881402586114 
	6615.130905242064728 4010.2333996409684 14494.87666166496092 
	6615.130905242640438 3973.042649957604681 14499.06707881962211 
	6615.130905243180678 3935.64273178739677 14500.46647717452652 
	6615.130905243683628 3898.242819360520116 14499.06707661101609 
	6615.130905244147471 3861.052058026457871 14494.87668743265385 
	6615.130905244614951 3824.278441822483273 14487.91874225135689 
	6615.130905244977839 3788.127611359775983 14478.23217323419885 
	6615.130905245375288 3761.633224430643168 14468.96136537681195 
	6615.130905245425311 3744.289818977386858 14461.96670358142001 
	6615.130905245449867 3732.816751274763192 14457.0882453445829 
	6615.130905245535359 3718.650227142994481 14450.58949270863013 
	6615.130905245612666 3701.95390047810497 14442.16077098052665 
	6615.130905245694521 3680.127856802916085 14430.0980290285479 
	6615.130905245996473 3653.719856660815367 14413.50483731730492 
	6615.130905246061047 3623.606871454593602 14391.28052041387127 
	6615.130905246363 3599.966973141363724 14370.93667622517751 
	6615.130905246401198 3582.006799623351981 14353.6358669899364 
	6615.130905246461225 3571.193806358057827 14342.4107483701373 
	6615.130905246473048 3562.799795272752817 14333.19276343552519 
	6615.130905246485781 3556.634650961468651 14326.16277506571896 
	6615.130905246496695 3550.602048206701511 14319.01872464799271 
	6615.130905246513066 3538.806086723745466 14304.50754925164438 
	6615.130905246684961 3522.137707319925994 14281.92289815839285 
	6615.130905246727707 3502.225980430786421 14250.23324973073431 
	6615.130905246874136 3482.794562368096194 14213.46784228022989 
	6615.130905246997827 3465.016691238444309 14171.29384561200459 
	6615.130905247060582 3450.30018534501005 14123.58336109941956 
	6615.130905247177907 3443.498564583378993 14089.93808397732755 
	6615.130905247188821 3440.769138788056807 14071.43830027197509 
	6615.130905247187911 3440.333455179885732 14068.35222834266278 
	6615.130905247188821 3439.917020492387564 14065.26350020396785 
	6615.130905247188821 3439.12266541373765 14059.08097275787622 
	6615.13090524719064 3438.075738891835954 14049.78906425230707 
	6615.130905247191549 3437.170168755155373 14039.43892785600656 
	6615.130905247191549 3436.600807050119784 14031.1472053754751 
	6615.130905247181545 3434.969150162037749 14002.10357353137078 
	6615.130905247132432 3435.696560538391168 13972.94250123615166 
	6615.130905247119699 3438.773912756542359 13944.01630613993075 
	6615.130905247115152 3439.510354128702147 13937.82652738020261 
	6615.130905247115152 3440.324046491038189 13931.64642200824164 
	6615.130905247086048 3444.479772767484974 13902.85541764068876 
	6615.130905246893235 3456.070775911518012 13852.07158860972049 
	6615.130905246672228 3483.474868324432464 13782.24740324714003 
	6615.130905246313887 3520.979224218381205 13717.28705884749979 
	6615.130905246071961 3562.550999281336317 13665.1590930413422 
	6615.130905245520808 3604.251247571913154 13624.48767871534983 
	6615.130905245478971 3643.286718521994771 13593.35750297685627 
	6615.13090524510153 3681.733040378579517 13568.52643728670591 
	6615.130905244723181 3718.498620071306505 13549.09550747331559 
	6615.130905244558562 3752.801878249645142 13534.12894166987644 
	6615.130905244108362 3788.127767843550373 13521.76814240980821 
	6615.130905243657253 3830.303592098206082 13510.4666402741168 
	6615.130905243240704 3879.54292123895948 13502.10030380957141 
	6615.13090524263589 3935.642768905497178 13498.94995690991163 
	6615.130905241997425 3991.742554548238786 13502.10039210841933 
	6615.130905241276196 4040.981977421282409 13510.46663778967195 
	6615.130905240803258 4083.157665088217527 13521.76836564147925 
	6615.130905240606808 4130.2592647273068 13538.24871594430988 
	6615.130905239353524 4169.681843145374842 13557.23243005212316 
	6615.130905238976993 4201.720951981556937 13576.53901361948556 
	6615.130905238792366 4222.584562071525397 13590.19894567364463 
	6615.130905238006562 4252.697680234135078 13612.42314360202363 
	6615.130905236417675 4289.93899281168251 13645.70364016352505 
	6615.130905234347665 4327.379748707052386 13687.60009056441777 
	6615.130905232588702 4359.894213358241359 13733.42501566649662 
	6615.130905229378186 4387.073646798977279 13782.60221655672467 
	6615.130905224054914 4408.575956918290103 13834.51342844521605 
	6615.130905218982662 4421.538116836880363 13879.50702347317929 
	6615.130905217205509 4428.836979628617883 13916.20284167989666 
	6615.130905215729399 4432.759755081941876 13943.98826302921771 
	6615.130905214097766 4434.725128773375218 13967.28968311286553 
	6615.130905213587539 4435.41343064387911 13983.63927178280755 
	6615.130905213438382 4435.585533865207253 13991.81889444158514 
	6615.130905213396545 4435.62856117301817 13995.90930876561833 
	6615.130905213389269 4435.639318141697004 13997.95459138514161 
	6615.130905213383812 4435.642007380490213 13998.97724210449269 
	6615.130905213385631 4435.642775742840058 13999.561615292243 
	6615.130905213385631 4435.642903794113408 13999.85380210826952 
	6615.130905213385631 4435.642903793203914 13999.99989551737235 
	6698.464238545364424 4435.642903793203004 13999.99989551737235 
	6698.464238545366243 4435.642903785929775 14001.16864279019683 
	6698.464238545394437 4435.634708373508147 14003.5061374753659 
	6698.464238545419903 4435.585532297716782 14008.18089645990221 
	6698.464238545536318 4435.413437573708507 14016.36051982103163 
	6698.464238545966509 4434.725081858672638 14032.71010226834915 
	6698.464238547357127 4431.973829182217742 14065.33211326065975 
	6698.464238551820927 4424.1307946160141 14111.49408108426542 
	6698.464238555422526 4408.575794729578774 14165.48634254620993 
	6698.46423855935609 4387.073497034394677 14217.39748155744746 
	6698.464238562359242 4359.894231841878536 14266.57480327690064 
	6698.464238565467895 4332.798660491349438 14304.76212665446656 
	6698.464238566295535 4308.659422040122081 14333.34799618679244 
	6698.464238567104985 4282.95604437793736 14360.53608358078782 
	6698.464238569376903 4249.594182547903984 14390.35005299567456 
	6698.464238571294118 4207.366010260475377 14420.70985623691922 
	6698.464238572306385 4164.126531172318209 14445.67405178084118 
	6698.464238573063994 4122.408876439262713 14464.49786657764344 
	6698.464238574017145 4083.157816568661474 14478.23210658814605 
	6698.464238574789306 4047.007037898731141 14487.91881402586114 
	6698.46423857514219 4010.233399640968855 14494.87666166496092 
	6698.464238575737909 3973.042649957604681 14499.06707881962211 
	6698.464238576298158 3935.642731787396315 14500.46647717452652 
	6698.464238576822027 3898.242819360519661 14499.06707661101609 
	6698.46423857730133 3861.052058026457416 14494.87668743265385 
	6698.46423857778791 3824.278441822482364 14487.91874225135689 
	6698.46423857816535 3788.127611359775074 14478.23217323419885 
	6698.464238578578261 3761.633224430642258 14468.96136537681195 
	6698.464238578630102 3744.289818977386403 14461.96670358142001 
	6698.464238578657387 3732.816751274762737 14457.0882453445829 
	6698.464238578747427 3718.650227142994481 14450.58949270863013 
	6698.464238578828372 3701.953900478104515 14442.16077098052665 
	6698.464238578912045 3680.12785680291563 14430.0980290285479 
	6698.464238579226731 3653.719856660815367 14413.50483731730492 
	6698.464238579292214 3623.606871454593147 14391.28052041387127 
	6698.464238579607809 3599.966973141364633 14370.93667622517751 
	6698.464238579646008 3582.006799623351526 14353.6358669899364 
	6698.464238579708763 3571.193806358058737 14342.4107483701373 
	6698.464238579720586 3562.799795272753272 14333.19276343552519 
	6698.464238579733319 3556.634650961469561 14326.16277506571896 
	6698.464238579743323 3550.602048206701966 14319.01872464799271 
	6698.464238579759694 3538.806086723745466 14304.50754925164438 
	6698.464238579939774 3522.137707319926903 14281.92289815839285 
	6698.46423857998343 3502.225980430787331 14250.23324973073431 
	6698.464238580136225 3482.794562368097104 14213.46784228022989 
	6698.464238580264464 3465.016691238445219 14171.29384561200459 
	6698.464238580329038 3450.300185345010959 14123.58336109941956 
	6698.46423858045091 3443.498564583379903 14089.93808397732755 
	6698.464238580462734 3440.769138788057717 14071.43830027197509 
	6698.464238580461824 3440.333455179886641 14068.35222834266278 
	6698.464238580462734 3439.917020492388474 14065.26350020396785 
	6698.464238580461824 3439.122665413738559 14059.08097275787622 
	6698.464238580465462 3438.075738891836863 14049.78906425230707 
	6698.464238580466372 3437.170168755156283 14039.43892785600656 
	6698.464238580467281 3436.600807050120693 14031.1472053754751 
	6698.464238580457277 3434.969150162038659 14002.10357353137078 
	6698.464238580406345 3435.696560538392077 13972.94250123615166 
	6698.464238580392703 3438.773912756543268 13944.01630613993075 
	6698.464238580388155 3439.510354128703057 13937.82652738020261 
	6698.464238580387246 3440.324046491039098 13931.64642200824164 
	6698.464238580356323 3444.479772767485883 13902.85541764068876 
	6698.464238580156234 3456.070775911518922 13852.07158860972049 
	6698.464238579927041 3483.474868324432919 13782.24740324714003 
	6698.464238579555058 3520.979224218382114 13717.28705884749979 
	6698.464238579304947 3562.550999281336772 13665.1590930413422 
	6698.464238578732875 3604.251247571913609 13624.48767871534983 
	6698.464238578689219 3643.286718521995226 13593.35750297685627 
	6698.464238578298136 3681.733040378579972 13568.52643728670591 
	6698.464238577905235 3718.498620071306959 13549.09550747331559 
	6698.46423857773425 3752.801878249645597 13534.12894166987644 
	6698.464238577266769 3788.127767843550373 13521.76814240980821 
	6698.46423857679838 3830.303592098206991 13510.4666402741168 
	6698.464238576364551 3879.542921238960389 13502.10030380957141 
	6698.464238575737909 3935.642768905498087 13498.94995690991163 
	6698.464238575074887 3991.742554548239696 13502.10039210841933 
	6698.464238574324554 4040.981977421283318 13510.46663778967195 
	6698.464238573833427 4083.157665088218437 13521.76836564147925 
	6698.46423857363061 4130.259264727307709 13538.24871594430988 
	6698.464238572328213 4169.681843145375751 13557.23243005212316 
	6698.46423857193713 4201.720951981557846 13576.53901361948556 
	6698.464238571747046 4222.584562071526307 13590.19894567364463 
	6698.46423857093032 4252.697680234135987 13612.42314360202363 
	6698.464238569281406 4289.93899281168342 13645.70364016352505 
	6698.46423856713227 4327.379748707053295 13687.60009056441777 
	6698.464238565306005 4359.894213358242268 13733.42501566649662 
	6698.464238561971797 4387.073646798977279 13782.60221655672467 
	6698.464238556445707 4408.575956918289194 13834.51342844521605 
	6698.464238551178823 4421.538116836880363 13879.50702347317929 
	6698.464238549333459 4428.836979628617883 13916.20284167989666 
	6698.46423854780187 4432.759755081941876 13943.98826302921771 
	6698.464238546106571 4434.725128773375218 13967.28968311286553 
	6698.464238545577246 4435.4134306438782 13983.63927178280755 
	6698.464238545420812 4435.585533865206344 13991.81889444158514 
	6698.464238545378976 4435.62856117301817 13995.90930876561833 
	6698.464238545369881 4435.639318141696094 13997.95459138514161 
	6698.464238545364424 4435.642007380490213 13998.97724210449269 
	6698.464238545363514 4435.642775742838239 13999.561615292243 
	6698.464238545364424 4435.642903794111589 13999.85380210826952 
	6698.464238545364424 4435.642903793203004 13999.99989551737235 
	6781.797571878697454 4435.642903793203004 13999.99989551737235 
	6781.797571878699273 4435.642903785929775 14001.16864279019683 
	6781.797571878727467 4435.634708373508147 14003.5061374753659 
	6781.797571878752933 4435.585532297716782 14008.18089645990221 
	6781.797571878869348 4435.413437573708507 14016.36051982103163 
	6781.797571879299539 4434.725081858672638 14032.71010226834915 
	6781.797571880690157 4431.973829182217742 14065.33211326065975 
	6781.797571885153957 4424.1307946160141 14111.49408108426542 
	6781.797571888755556 4408.575794729578774 14165.48634254620993 
	6781.79757189268912 4387.073497034394677 14217.39748155744746 
	6781.797571895692272 4359.894231841878536 14266.57480327690064 
	6781.797571898800925 4332.798660491349438 14304.76212665446656 
	6781.797571899628565 4308.659422040122081 14333.34799618679244 
	6781.797571900438015 4282.95604437793736 14360.53608358078782 
	6781.797571902709933 4249.594182547903984 14390.35005299567456 
	6781.797571904627148 4207.366010260475377 14420.70985623691922 
	6781.797571905639415 4164.126531172318209 14445.67405178084118 
	6781.797571906397025 4122.408876439262713 14464.49786657764344 
	6781.797571907350175 4083.157816568661019 14478.23210658814605 
	6781.797571908122336 4047.007037898730687 14487.91881402586114 
	6781.79757190847522 4010.2333996409684 14494.87666166496092 
	6781.797571909070939 3973.042649957604226 14499.06707881962211 
	6781.797571909631188 3935.64273178739586 14500.46647717452652 
	6781.797571910155057 3898.242819360519206 14499.06707661101609 
	6781.79757191063436 3861.052058026456962 14494.87668743265385 
	6781.79757191112094 3824.278441822481909 14487.91874225135689 
	6781.79757191149838 3788.127611359774619 14478.23217323419885 
	6781.797571911911291 3761.633224430641803 14468.96136537681195 
	6781.797571911963132 3744.289818977385949 14461.96670358142001 
	6781.797571911990417 3732.816751274762282 14457.0882453445829 
	6781.797571912080457 3718.650227142994027 14450.58949270863013 
	6781.797571912161402 3701.95390047810406 14442.16077098052665 
	6781.797571912245076 3680.127856802915176 14430.0980290285479 
	6781.797571912559761 3653.719856660814912 14413.50483731730492 
	6781.797571912625244 3623.606871454592692 14391.28052041387127 
	6781.797571912940839 3599.966973141364178 14370.93667622517751 
	6781.797571912979038 3582.006799623351071 14353.6358669899364 
	6781.797571913041793 3571.193806358058282 14342.4107483701373 
	6781.797571913053616 3562.799795272752817 14333.19276343552519 
	6781.797571913066349 3556.634650961469106 14326.16277506571896 
	6781.797571913076354 3550.602048206701511 14319.01872464799271 
	6781.797571913092725 3538.806086723745011 14304.50754925164438 
	6781.797571913272805 3522.137707319926449 14281.92289815839285 
	6781.79757191331646 3502.225980430786876 14250.23324973073431 
	6781.797571913469255 3482.794562368096649 14213.46784228022989 
	6781.797571913597494 3465.016691238444764 14171.29384561200459 
	6781.797571913662068 3450.300185345010505 14123.58336109941956 
	6781.797571913783941 3443.498564583379448 14089.93808397732755 
	6781.797571913795764 3440.769138788057262 14071.43830027197509 
	6781.797571913794854 3440.333455179886187 14068.35222834266278 
	6781.797571913795764 3439.917020492388019 14065.26350020396785 
	6781.797571913794854 3439.122665413738105 14059.08097275787622 
	6781.797571913798492 3438.075738891836409 14049.78906425230707 
	6781.797571913799402 3437.170168755155828 14039.43892785600656 
	6781.797571913800311 3436.600807050120238 14031.1472053754751 
	6781.797571913790307 3434.969150162038204 14002.10357353137078 
	6781.797571913739375 3435.696560538391623 13972.94250123615166 
	6781.797571913725733 3438.773912756542813 13944.01630613993075 
	6781.797571913721185 3439.510354128702602 13937.82652738020261 
	6781.797571913720276 3440.324046491038644 13931.64642200824164 
	6781.797571913689353 3444.479772767485429 13902.85541764068876 
	6781.797571913489264 3456.070775911518467 13852.07158860972049 
	6781.797571913260072 3483.474868324432464 13782.24740324714003 
	6781.797571912888088 3520.97922421838166 13717.28705884749979 
	6781.797571912637977 3562.550999281336317 13665.1590930413422 
	6781.797571912065905 3604.251247571913154 13624.48767871534983 
	6781.797571912022249 3643.286718521994771 13593.35750297685627 
	6781.797571911631167 3681.733040378579517 13568.52643728670591 
	6781.797571911238265 3718.498620071306505 13549.09550747331559 
	6781.79757191106728 3752.801878249645142 13534.12894166987644 
	6781.7975719105998 3788.127767843549918 13521.76814240980821 
	6781.79757191013141 3830.303592098206536 13510.4666402741168 
	6781.797571909697581 3879.542921238959934 13502.10030380957141 
	6781.797571909070939 3935.642768905497633 13498.94995690991163 
	6781.797571908407917 3991.742554548239241 13502.10039210841933 
	6781.797571907657584 4040.981977421282863 13510.46663778967195 
	6781.797571907166457 4083.157665088217982 13521.76836564147925 
	6781.79757190696364 4130.259264727307709 13538.24871594430988 
	6781.797571905661243 4169.681843145375751 13557.23243005212316 
	6781.797571905270161 4201.720951981557846 13576.53901361948556 
	6781.797571905080076 4222.584562071526307 13590.19894567364463 
	6781.79757190426335 4252.697680234135987 13612.42314360202363 
	6781.797571902614436 4289.93899281168342 13645.70364016352505 
	6781.7975719004653 4327.379748707053295 13687.60009056441777 
	6781.797571898639035 4359.894213358242268 13733.42501566649662 
	6781.797571895304827 4387.073646798977279 13782.60221655672467 
	6781.797571889778737 4408.575956918289194 13834.51342844521605 
	6781.797571884511854 4421.538116836880363 13879.50702347317929 
	6781.797571882666489 4428.836979628617883 13916.20284167989666 
	6781.7975718811349 4432.759755081941876 13943.98826302921771 
	6781.797571879439602 4434.725128773375218 13967.28968311286553 
	6781.797571878910276 4435.4134306438782 13983.63927178280755 
	6781.797571878753843 4435.585533865206344 13991.81889444158514 
	6781.797571878712006 4435.62856117301817 13995.90930876561833 
	6781.797571878702911 4435.639318141696094 13997.95459138514161 
	6781.797571878697454 4435.642007380490213 13998.97724210449269 
	6781.797571878696544 4435.642775742838239 13999.561615292243 
	6781.797571878697454 4435.642903794111589 13999.85380210826952 
	6781.797571878697454 4435.642903793203004 13999.99989551737235 
	0 
	
	0 
	0 
	95 0 0.001116071428571428509 0.002232142857142857019 0.004464285714285714038 0.008928571428571428076 0.01785714285714285615 0.0357142857142857123 0.05357142857142856845 0.07142857142857142461 0.08928571428571427382 0.1071428571428571369 0.1160714285714285754 0.125 0.1428571428571428492 0.1587301587301587213 0.1746031746031745935 0.1904761904761904656 0.2023809523809523836 0.2142857142857142738 0.226190476190476164 0.238095238095238082 0.2499999999999999722 0.2619047619047618625 0.2738095238095237804 0.2857142857142856984 0.2976190476190476164 0.3095238095238095344 0.3125 0.3154761904761904656 0.3214285714285713969 0.3273809523809523281 0.3333333333333333148 0.3452380952380952328 0.3571428571428570953 0.3690476190476190133 0.375 0.3809523809523809312 0.3839285714285713969 0.3869047619047618625 0.3898809523809523281 0.3928571428571428492 0.4047619047619047672 0.4166666666666666297 0.4285714285714285476 0.4444444444444444198 0.4603174603174602919 0.476190476190476164 0.4771825396825396526 0.4781746031746031411 0.4791666666666666297 0.4801587301587301182 0.4841269841269840724 0.4880952380952380265 0.4900793650793650036 0.4920634920634920362 0.5158730158730158166 0.5178571428571427937 0.5198412698412697708 0.5218253968253967479 0.5238095238095237249 0.5476190476190475609 0.5714285714285713969 0.5952380952380951218 0.6190476190476189577 0.6349206349206348854 0.650793650793650702 0.6666666666666666297 0.6785714285714286031 0.6904761904761904656 0.7023809523809523281 0.7142857142857141906 0.7321428571428569843 0.749999999999999889 0.7678571428571427937 0.7857142857142855874 0.7976190476190474499 0.8095238095238094234 0.8333333333333332593 0.8392857142857141906 0.8452380952380951218 0.8571428571428570953 0.875 0.8928571428571427937 0.9107142857142856984 0.9285714285714286031 0.9464285714285713969 0.9642857142857143016 0.9732142857142858094 0.9821428571428572063 0.9910714285714286031 0.9955357142857143016 0.9977678571428572063 0.9994419642857143016 0.9997209821428572063 0.9998604910714286031 
	0 
	0 
	0 
	F 1 F 0 F 1 F 0 } I I I I #
tcoedge-coedge $-1 -1 $-1 $14 $14 $18 $19 reversed $9 $20 -6.283185307179586232 -0 #
tcoedge-coedge $-1 -1 $-1 $21 $22 $11 $16 reversed $12 $23 -6.283185307179586232 -0 #
tedge-edge $-1 -1 $-1 $24 0 $24 6.283185307179586232 $15 $25 forward @7 unknown 0.0007142261265698570142 #
pcurve $-1 -1 $-1 0 forward { exppc nurbs 2 periodic 5 
	0 2 1.570796326794896558 2 3.141592653589793116 2 4.712388980384689674 2 6.283185307179586232 2 
	0 500 1 
	-500 500 0.707106781186543798 
	-500 0 1 
	-500 -500 0.7071067811865463515 
	0 -500 1 
	500 -500 0.7071067811865463515 
	500 0 1 
	500 500 0.707106781186543798 
	0 500 1 
	0 
	plane 6781.79757191538738 3935.642797989793507 14000.00000000000182 1 -3.637978807091713027e-15 0 0 0 -1 forward_v I I I I 
	} 0 0 #
tcoedge-coedge $-1 -1 $-1 $22 $21 $14 $19 forward $12 $26 0 6.283185307179586232 #
tedge-edge $-1 -1 $-1 $27 0 $27 6.283185307179586232 $18 $28 forward @7 unknown 0.0007142261265656925937 #
pcurve $-1 -1 $-1 0 forward { exppc nurbs 2 periodic 5 
	-6.283185307179586232 2 -4.712388980384689674 2 -3.141592653589793116 2 -1.570796326794896558 2 0 2 
	0 500 1 
	500 500 0.707106781186543798 
	500 0 1 
	500 -500 0.7071067811865463515 
	0 -500 1 
	-500 -500 0.7071067811865463515 
	-500 0 1 
	-500 500 0.707106781186543798 
	0 500 1 
	0 
	plane 6531.79757191538738 3935.642797989794417 14000.00000000000182 -1 3.637978807091713027e-15 -0 0 0 -1 reverse_v I I I I 
	} 0 0 #
coedge $-1 -1 $-1 $18 $15 $22 $29 reversed $12 $30 #
coedge $-1 -1 $-1 $15 $18 $21 $29 forward $12 $31 #
pcurve $-1 -1 $-1 0 forward { exppc nubs 1 periodic 2 
	-6.283185307179586232 1 -0 1 
	1 1 
	0 1 
	0 
	spline forward { ref 0 } I I I I 
	} 0 0 #
tvertex-vertex $-1 -1 $-1 $16 $32 0.0001486976315944137214 #
ellipse-curve $-1 -1 $-1 6781.79757191538738 3935.642797989793507 14000.00000000000182 1 -3.637978807091713027e-15 0 1.818989403545856476e-12 500 0 1 I I #
pcurve $-1 -1 $-1 0 forward { exppc nubs 1 periodic 2 
	0 1 6.283185307179586232 1 
	0 0 
	1 0 
	2.726396620975368931e-13 
	spline forward { ref 0 } I I I I 
	} 0 0 #
tvertex-vertex $-1 -1 $-1 $19 $33 0.0001486976319133370759 #
ellipse-curve $-1 -1 $-1 6531.79757191538738 3935.642797989794417 14000.00000000000182 1 -3.637978807091713027e-15 0 1.818989403545856476e-12 500 0 1 I I #
edge $-1 -1 $-1 $27 1.413463902713289721e-10 $24 1 $22 $34 forward @7 tangent #
pcurve $-1 -1 $-1 -1 $34 0 0 #
pcurve $-1 -1 $-1 1 $34 1 0 #
point $-1 -1 $-1 6781.797571915389199 4435.642797989793507 14000.00000000000182 #
point $-1 -1 $-1 6531.797571915389199 4435.642797989794417 14000.00000000000182 #
intcurve-curve $-1 -1 $-1 forward { parcur full nubs 3 open 2 
	0 3 1 3 
	6531.797571880052601 4435.642903793204823 13999.99989551737235 
	6615.130905213385631 4435.642903793203914 13999.99989551737235 
	6698.464238545364424 4435.642903793203004 13999.99989551737235 
	6781.797571878697454 4435.642903793203004 13999.99989551737235 
	0 
	
	spline forward { ref 0 } I I I I 
	null_surface 
	nubs 1 open 2 
	0 1 1 1 
	0 0 
	0 1 
	
	nullbs 
	I I 
	0 
	0 
	0 
	surf1 } F 1.413463902713289721e-10 F 1 #
End-of-ACIS-data 