700 0 1 0           
4 LibG 20 ASM 224.0.1.65535 NT 24 Wed Jul 17 14:48:13 2019 
1000 9.999999999999999547e-07 1.000000000000000036e-10 
body $-1 -1 $-1 $1 $-1 $2 #
lump $-1 -1 $-1 $-1 $3 $0 #
transform $-1 -1 1 0 0 0 1 0 0 0 1 0 0 0 1 no_rotate no_reflect no_shear #
shell $-1 -1 $-1 $-1 $-1 $4 $-1 $1 #
face $-1 -1 $-1 $5 $6 $3 $-1 $7 forward single #
face $-1 -1 $-1 $8 $9 $3 $-1 $10 reversed single #
loop $-1 -1 $-1 $-1 $11 $4 #
plane-surface $-1 -1 $-1 3281.797571915386925 3935.64279798980624 14000.00000000000182 1 -3.637978807091713027e-15 0 0 0 -1 forward_v I I I I #
face $-1 -1 $-1 $-1 $12 $3 $-1 $13 forward single #
loop $-1 -1 $-1 $-1 $14 $5 #
plane-surface $-1 -1 $-1 3031.797571915386925 3935.64279798980715 14000.00000000000182 1 -3.637978807091713027e-15 0 0 0 -1 forward_v I I I I #
tcoedge-coedge $-1 -1 $-1 $11 $11 $15 $16 forward $6 $17 0 6.283185307179586232 #
loop $-1 -1 $-1 $-1 $18 $8 #
spline-surface $-1 -1 $-1 forward { exactsur full nubs 3 3 periodic open none none 85 2 
	0 3 0.002232142857142857019 1 0.004464285714285714038 1 0.008928571428571428076 1 0.01785714285714285615 1 
	0.02678571428571428423 1 0.0357142857142857123 1 0.05357142857142856845 1 0.07142857142857142461 1 0.08928571428571427382 1 
	0.1071428571428571369 1 0.125 1 0.1428571428571428492 1 0.1587301587301587213 1 0.1746031746031745935 1 
	0.1904761904761904656 1 0.2023809523809523836 1 0.2142857142857142738 1 0.238095238095238082 1 0.2619047619047618625 1 
	0.2857142857142856984 1 0.2976190476190476164 1 0.3095238095238095344 1 0.3214285714285713969 1 0.3273809523809523281 1 
	0.3333333333333333148 1 0.3452380952380952328 1 0.3571428571428570953 1 0.3690476190476190133 1 0.375 1 
	0.3809523809523809312 1 0.3869047619047618625 1 0.3928571428571428492 1 0.4047619047619047672 1 0.4166666666666666297 1 
	0.4285714285714285476 1 0.4444444444444444198 1 0.4603174603174602919 1 0.476190476190476164 1 0.4801587301587301182 1 
	0.4841269841269840724 1 0.4880952380952380265 1 0.4900793650793650036 1 0.4920634920634920362 1 0.5158730158730158166 1 
	0.5238095238095237249 1 0.5357142857142855874 1 0.5476190476190475609 1 0.5595238095238095344 1 0.5714285714285713969 1 
	0.5952380952380951218 1 0.6190476190476189577 1 0.6269841269841269771 1 0.6309523809523809312 1 0.6349206349206348854 1 
	0.650793650793650702 1 0.6666666666666666297 1 0.6785714285714286031 1 0.6904761904761904656 1 0.7023809523809523281 1 
	0.7142857142857141906 1 0.7321428571428569843 1 0.749999999999999889 1 0.7678571428571427937 1 0.7857142857142855874 1 
	0.7976190476190474499 1 0.8095238095238094234 1 0.8333333333333332593 1 0.8452380952380951218 1 0.851190476190476053 1 
	0.8571428571428570953 1 0.875 1 0.8928571428571427937 1 0.9107142857142856984 1 0.9285714285714286031 1 
	0.9464285714285713969 1 0.9642857142857143016 1 0.9821428571428572063 1 0.9910714285714286031 1 0.9955357142857143016 1 
	0.9977678571428572063 1 0.9988839285714286031 1 0.9994419642857143016 1 0.9997209821428572063 1 1 3 
	0 3 1 3 
	3031.797571944825904 4435.642862147379674 13999.99989143005951 
	3031.797571944822266 4435.642862104236883 14002.33738596344119 
	3031.797571944718584 4435.610078108475136 14007.01237486450918 
	3031.797571944614447 4435.413387678134313 14016.36051419164687 
	3031.797571944179253 4434.725083238513434 14032.71010050204313 
	3031.797571942930063 4432.759697237258479 14056.01150971052084 
	3031.797571941771821 4428.836915419638899 14083.79692259728836 
	3031.797571940527632 4421.538027403737942 14120.49271978182696 
	3031.797571936599979 4408.575870945395764 14165.48629141770652 
	3031.797571933551353 4387.073404967907663 14217.39738551323535 
	3031.797571930142567 4359.89418227477654 14266.57467685947813 
	3031.797571927570971 4327.379545583603431 14312.39946165909168 
	3031.797571924294061 4289.93888257083654 14354.29597832533364 
	3031.797571923939813 4249.594173371998295 14390.34991179787539 
	3031.797571921393683 4207.365987273354222 14420.70970861761816 
	3031.797571921221333 4164.126548649202959 14445.67389569538136 
	3031.797571920728387 4122.408879324933878 14464.49778506680377 
	3031.797571920364589 4083.157754512549218 14478.23158427936141 
	3031.797571919902111 4034.956960845992853 14491.14854821246627 
	3031.797571919358688 3973.147691657326504 14500.46604260961249 
	3031.797571918406902 3898.13792119695745 14500.46567083804621 
	3031.797571917733876 3836.328576931678072 14491.14875659769859 
	3031.797571917510595 3788.127677662168935 14478.23210787337666 
	3031.797571917296409 3752.801770390938145 14465.87139193957955 
	3031.797571917154528 3724.215670319409128 14453.39922864706386 
	3031.797571917043115 3701.953924640538844 14442.16089867486153 
	3031.797571916950801 3680.12786495073442 14430.09816535476421 
	3031.797571916793004 3653.719899494091351 14413.50490924237238 
	3031.797571916748439 3623.606913443290523 14391.28059008732271 
	3031.797571916622474 3599.967024472190133 14370.93672969534782 
	3031.7975719166011 3582.006853243782189 14353.63591677796467 
	3031.797571916575635 3569.031260159509657 14340.16577397995934 
	3031.79757191655699 3556.56844547569699 14326.2198400679099 
	3031.797571916536981 3540.658181282114583 14307.0169963401222 
	3031.797571916469678 3522.13777247355938 14281.92293255199365 
	3031.797571916445577 3502.226025838047462 14250.23329148763514 
	3031.797571916400557 3482.794643240526966 14213.46786090946443 
	3031.797571916351444 3465.016719360886782 14171.29388682626814 
	3031.797571916334164 3450.300074208030765 14123.58342627620732 
	3031.797571916270499 3442.880221880671797 14086.879448667818 
	3031.797571916265497 3439.471590711767021 14062.17830539172428 
	3031.797571916263678 3438.075655377562271 14049.7890981275923 
	3031.797571916262768 3437.17008635460661 14039.43895811312905 
	3031.797571916262314 3436.600741882602961 14031.14723693525957 
	3031.79757191625913 3434.968890923591061 14002.10359386339951 
	3031.797571916255947 3435.853133837953465 13966.69375943988234 
	3031.797571916265042 3441.539734389685691 13921.32341947717941 
	3031.797571916281868 3447.72414415223875 13888.63577122254173 
	3031.797571916310972 3457.410784874336969 13852.48489443672406 
	3031.797571916335528 3469.772058995918542 13817.15919794194633 
	3031.797571916418292 3489.726237172048968 13771.42092656638124 
	3031.797571916585184 3520.979070068211058 13717.28704126574848 
	3031.797571916765264 3557.354506094396584 13671.67497803890546 
	3031.797571916868947 3583.477377667439669 13644.89405065538631 
	3031.797571916884863 3595.521275148034874 13633.43612124776337 
	3031.797571916927609 3614.009996963467074 13616.70495077073792 
	3031.797571917035384 3643.286765415050013 13593.35746191218095 
	3031.797571917125424 3681.732982830603305 13568.52630984610914 
	3031.797571917424193 3718.498658048973084 13549.09548774430732 
	3031.797571917542427 3752.801878693530398 13534.12887091274933 
	3031.797571917860296 3788.127786789314086 13521.76809014171886 
	3031.797571918221365 3830.303606228101216 13510.46655853543052 
	3031.79757191842873 3879.542938832908476 13502.10023612220539 
	3031.79757191929275 3935.642809737586958 13498.9501021587439 
	3031.79757192029183 3991.742547929651664 13502.10040783365184 
	3031.797571920541031 4040.982038765487687 13510.46648499296134 
	3031.797571921237704 4083.157562634437454 13521.76862788421568 
	3031.797571921552844 4130.259434382103791 13538.248362705408 
	3031.79757192228999 4175.313563966637048 13559.94458133380795 
	3031.797571922868883 4212.284038345547742 13583.17650288557888 
	3031.797571922998486 4232.622224401992753 13597.60707652173369 
	3031.79757192321631 4257.352812667721082 13616.58327747956173 
	3031.797571924416388 4289.938933061496755 13645.7037247926437 
	3031.797571925867942 4327.379721032128145 13687.60014813171074 
	3031.797571927317222 4359.894158365509611 13733.42507310328801 
	3031.797571929653714 4387.073656911003127 13782.60224915704021 
	3031.797571934370353 4408.575802075833053 13834.51346091777305 
	3031.797571937987868 4424.130821345375807 13888.50569634680869 
	3031.797571942787727 4431.973796435820077 13934.66767819264169 
	3031.797571944208812 4434.725044874844571 13967.28968494000765 
	3031.797571944669471 4435.413396636621655 13983.63926755330067 
	3031.797571944781794 4435.585490759995082 13991.81889062297705 
	3031.79757194481499 4435.628519779858834 13995.90930469035266 
	3031.797571944822266 4435.639276445857831 13997.95458731051622 
	3031.797571944825904 4435.642349914972328 13999.12333097745432 
	3031.797571944826814 4435.642862152772068 13999.70770461338725 
	3031.797571944825904 4435.642862147379674 13999.99989143005951 
	3115.130905278159389 4435.642862147378764 13999.99989143005951 
	3115.130905278155751 4435.642862104235974 14002.33738596344119 
	3115.130905278052069 4435.610078108474227 14007.01237486450918 
	3115.130905277947932 4435.413387678133404 14016.36051419164687 
	3115.130905277512738 4434.725083238512525 14032.71010050204313 
	3115.130905276263547 4432.759697237257569 14056.01150971052084 
	3115.130905275105306 4428.83691541963799 14083.79692259728836 
	3115.130905273861117 4421.538027403737033 14120.49271978182696 
	3115.130905269933464 4408.575870945394854 14165.48629141770652 
	3115.130905266884838 4387.073404967906754 14217.39738551323535 
	3115.130905263476052 4359.894182274775631 14266.57467685947813 
	3115.130905260904456 4327.379545583602521 14312.39946165909168 
	3115.130905257627546 4289.938882570835631 14354.29597832533364 
	3115.130905257273298 4249.594173371997385 14390.34991179787539 
	3115.130905254727168 4207.365987273353312 14420.70970861761816 
	3115.130905254554818 4164.12654864920205 14445.67389569538136 
	3115.130905254061872 4122.408879324932968 14464.49778506680377 
	3115.130905253698074 4083.157754512548763 14478.23158427936141 
	3115.130905253235596 4034.956960845992398 14491.14854821246627 
	3115.130905252692173 3973.14769165732605 14500.46604260961249 
	3115.130905251740387 3898.137921196956995 14500.46567083804621 
	3115.130905251067361 3836.328576931677617 14491.14875659769859 
	3115.13090525084408 3788.12767766216848 14478.23210787337666 
	3115.130905250629894 3752.801770390937691 14465.87139193957955 
	3115.130905250488013 3724.215670319408673 14453.39922864706386 
	3115.1309052503766 3701.953924640538389 14442.16089867486153 
	3115.130905250284286 3680.127864950733965 14430.09816535476421 
	3115.130905250126489 3653.719899494090896 14413.50490924237238 
	3115.130905250081923 3623.606913443290068 14391.28059008732271 
	3115.130905249955958 3599.967024472189678 14370.93672969534782 
	3115.130905249934585 3582.006853243781734 14353.63591677796467 
	3115.130905249909119 3569.031260159509202 14340.16577397995934 
	3115.130905249890475 3556.568445475696535 14326.2198400679099 
	3115.130905249870466 3540.658181282114128 14307.0169963401222 
	3115.130905249803163 3522.137772473558925 14281.92293255199365 
	3115.130905249779062 3502.226025838047008 14250.23329148763514 
	3115.130905249733587 3482.794643240526511 14213.46786090946443 
	3115.130905249685384 3465.016719360886327 14171.29388682626814 
	3115.130905249667194 3450.30007420803031 14123.58342627620732 
	3115.130905249603984 3442.880221880671343 14086.879448667818 
	3115.130905249598982 3439.471590711766567 14062.17830539172428 
	3115.130905249597163 3438.075655377561816 14049.7890981275923 
	3115.130905249596253 3437.170086354606156 14039.43895811312905 
	3115.130905249595799 3436.600741882602506 14031.14723693525957 
	3115.130905249592615 3434.968890923590607 14002.10359386339951 
	3115.130905249588977 3435.85313383795301 13966.69375943988234 
	3115.130905249598527 3441.539734389685236 13921.32341947717941 
	3115.130905249615353 3447.724144152238296 13888.63577122254173 
	3115.130905249644456 3457.410784874336514 13852.48489443672406 
	3115.130905249669013 3469.772058995918087 13817.15919794194633 
	3115.130905249751777 3489.726237172048513 13771.42092656638124 
	3115.130905249918669 3520.979070068210603 13717.28704126574848 
	3115.130905250098749 3557.354506094396129 13671.67497803890546 
	3115.130905250202431 3583.477377667439214 13644.89405065538631 
	3115.130905250218348 3595.52127514803442 13633.43612124776337 
	3115.130905250261094 3614.009996963466619 13616.70495077073792 
	3115.130905250368869 3643.286765415049558 13593.35746191218095 
	3115.130905250458909 3681.73298283060285 13568.52630984610914 
	3115.130905250757678 3718.498658048972629 13549.09548774430732 
	3115.130905250875912 3752.801878693529943 13534.12887091274933 
	3115.130905251193781 3788.127786789313632 13521.76809014171886 
	3115.13090525155485 3830.303606228100762 13510.46655853543052 
	3115.130905251762215 3879.542938832908021 13502.10023612220539 
	3115.130905252626235 3935.642809737586504 13498.9501021587439 
	3115.130905253625315 3991.742547929651209 13502.10040783365184 
	3115.130905253874516 4040.982038765487232 13510.46648499296134 
	3115.130905254571189 4083.157562634436999 13521.76862788421568 
	3115.130905254886329 4130.259434382102882 13538.248362705408 
	3115.130905255623475 4175.313563966636139 13559.94458133380795 
	3115.130905256202368 4212.284038345546833 13583.17650288557888 
	3115.130905256331971 4232.622224401991843 13597.60707652173369 
	3115.130905256549795 4257.352812667720173 13616.58327747956173 
	3115.130905257749873 4289.938933061495845 13645.7037247926437 
	3115.130905259201427 4327.379721032127236 13687.60014813171074 
	3115.130905260650707 4359.894158365508702 13733.42507310328801 
	3115.130905262987199 4387.073656911002217 13782.60224915704021 
	3115.130905267703838 4408.575802075832144 13834.51346091777305 
	3115.130905271321353 4424.130821345374898 13888.50569634680869 
	3115.130905276121212 4431.973796435819168 13934.66767819264169 
	3115.130905277542297 4434.725044874843661 13967.28968494000765 
	3115.130905278002956 4435.413396636620746 13983.63926755330067 
	3115.130905278115279 4435.585490759994173 13991.81889062297705 
	3115.130905278148475 4435.628519779857925 13995.90930469035266 
	3115.130905278155751 4435.639276445856922 13997.95458731051622 
	3115.130905278159389 4435.642349914971419 13999.12333097745432 
	3115.130905278160299 4435.642862152771158 13999.70770461338725 
	3115.130905278159389 4435.642862147378764 13999.99989143005951 
	3198.464238613918496 4435.642862147377855 13999.99989143005951 
	3198.464238613915313 4435.642862104235974 14002.33738596344119 
	3198.4642386138039 4435.610078108474227 14007.01237486450918 
	3198.464238613691577 4435.413387678133404 14016.36051419164687 
	3198.464238613220459 4434.725083238512525 14032.71010050204313 
	3198.464238611867131 4432.759697237258479 14056.01150971052084 
	3198.464238610614302 4428.836915419638899 14083.79692259728836 
	3198.464238609267341 4421.538027403737942 14120.49271978182696 
	3198.464238605016362 4408.575870945394854 14165.48629141770652 
	3198.464238601715351 4387.073404967907663 14217.39738551323535 
	3198.464238598025531 4359.89418227477654 14266.57467685947813 
	3198.464238595242023 4327.379545583603431 14312.39946165909168 
	3198.464238591694993 4289.93888257083654 14354.29597832533364 
	3198.464238591311187 4249.594173371998295 14390.34991179787539 
	3198.464238588555418 4207.365987273354222 14420.70970861761816 
	3198.464238588368517 4164.126548649202959 14445.67389569538136 
	3198.464238587835553 4122.408879324933878 14464.49778506680377 
	3198.464238587441741 4083.157754512549673 14478.23158427936141 
	3198.464238586941519 4034.956960845993308 14491.14854821246627 
	3198.464238586352621 3973.147691657326959 14500.46604260961249 
	3198.464238585323073 3898.13792119695654 14500.46567083804621 
	3198.464238584593659 3836.328576931677162 14491.14875659769859 
	3198.464238584352188 3788.127677662167571 14478.23210787337666 
	3198.464238584121176 3752.801770390937236 14465.87139193957955 
	3198.464238583967017 3724.215670319408218 14453.39922864706386 
	3198.464238583846054 3701.953924640537934 14442.16089867486153 
	3198.464238583746464 3680.127864950733965 14430.09816535476421 
	3198.464238583575479 3653.719899494091351 14413.50490924237238 
	3198.464238583527731 3623.606913443290523 14391.28059008732271 
	3198.464238583390397 3599.967024472190133 14370.93672969534782 
	3198.464238583368115 3582.006853243781734 14353.63591677796467 
	3198.46423858333992 3569.031260159509202 14340.16577397995934 
	3198.464238583319911 3556.568445475696535 14326.2198400679099 
	3198.464238583298538 3540.658181282113674 14307.0169963401222 
	3198.464238583225779 3522.137772473558471 14281.92293255199365 
	3198.464238583200768 3502.226025838046098 14250.23329148763514 
	3198.46423858315211 3482.794643240525602 14213.46786090946443 
	3198.464238583097995 3465.016719360886327 14171.29388682626814 
	3198.464238583079805 3450.300074208028946 14123.58342627620732 
	3198.464238583011138 3442.880221880670888 14086.879448667818 
	3198.464238583005226 3439.471590711765657 14062.17830539172428 
	3198.464238583003862 3438.075655377561816 14049.7890981275923 
	3198.464238583002498 3437.170086354605246 14039.43895811312905 
	3198.464238583002043 3436.600741882602506 14031.14723693525957 
	3198.464238582998405 3434.968890923590607 14002.10359386339951 
	3198.464238582994767 3435.85313383795301 13966.69375943988234 
	3198.464238583005226 3441.539734389685236 13921.32341947717941 
	3198.464238583022507 3447.724144152237841 13888.63577122254173 
	3198.464238583054339 3457.410784874336514 13852.48489443672406 
	3198.464238583081169 3469.772058995918087 13817.15919794194633 
	3198.4642385831703 3489.726237172048513 13771.42092656638124 
	3198.464238583349925 3520.979070068209694 13717.28704126574848 
	3198.464238583545921 3557.354506094395674 13671.67497803890546 
	3198.464238583657789 3583.477377667438304 13644.89405065538631 
	3198.464238583675524 3595.52127514803351 13633.43612124776337 
	3198.464238583721453 3614.009996963466165 13616.70495077073792 
	3198.464238583837414 3643.286765415048194 13593.35746191218095 
	3198.464238583935185 3681.732982830602396 13568.52630984610914 
	3198.46423858425851 3718.49865804897172 13549.09548774430732 
	3198.464238584385839 3752.801878693529488 13534.12887091274933 
	3198.464238584730538 3788.127786789313177 13521.76809014171886 
	3198.46423858512162 3830.303606228100307 13510.46655853543052 
	3198.464238585346266 3879.542938832907566 13502.10023612220539 
	3198.464238586280771 3935.642809737586049 13498.9501021587439 
	3198.464238587362615 3991.742547929649845 13502.10040783365184 
	3198.464238587632281 4040.982038765486777 13510.46648499296134 
	3198.464238588386252 4083.15756263443609 13521.76862788421568 
	3198.464238588727767 4130.259434382101972 13538.248362705408 
	3198.464238589525394 4175.31356396663432 13559.94458133380795 
	3198.464238590151581 4212.284038345545923 13583.17650288557888 
	3198.464238590291643 4232.622224401990934 13597.60707652173369 
	3198.464238590528112 4257.352812667719263 13616.58327747956173 
	3198.46423859182687 4289.938933061495845 13645.7037247926437 
	3198.464238593397567 4327.379721032127236 13687.60014813171074 
	3198.464238594966901 4359.894158365508702 13733.42507310328801 
	3198.464238597495751 4387.073656911001308 13782.60224915704021 
	3198.464238602601199 4408.575802075832144 13834.51346091777305 
	3198.464238606517029 4424.130821345374898 13888.50569634680869 
	3198.464238611712972 4431.973796435820077 13934.66767819264169 
	3198.464238613251382 4434.725044874843661 13967.28968494000765 
	3198.46423861375024 4435.413396636621655 13983.63926755330067 
	3198.464238613871203 4435.585490759994173 13991.81889062297705 
	3198.464238613907128 4435.628519779857925 13995.90930469035266 
	3198.464238613915313 4435.639276445856922 13997.95458731051622 
	3198.464238613918042 4435.6423499149696 13999.12333097745432 
	3198.464238613918951 4435.642862152771158 13999.70770461338725 
	3198.464238613918496 4435.642862147377855 13999.99989143005951 
	3281.797571947251981 4435.642862147377855 13999.99989143005951 
	3281.797571947248798 4435.642862104235974 14002.33738596344119 
	3281.797571947137385 4435.610078108474227 14007.01237486450918 
	3281.797571947025062 4435.413387678133404 14016.36051419164687 
	3281.797571946553944 4434.725083238512525 14032.71010050204313 
	3281.797571945200616 4432.759697237258479 14056.01150971052084 
	3281.797571943947787 4428.836915419638899 14083.79692259728836 
	3281.797571942600825 4421.538027403737942 14120.49271978182696 
	3281.797571938349847 4408.575870945394854 14165.48629141770652 
	3281.797571935048836 4387.073404967907663 14217.39738551323535 
	3281.797571931359016 4359.89418227477654 14266.57467685947813 
	3281.797571928575508 4327.379545583603431 14312.39946165909168 
	3281.797571925028478 4289.93888257083654 14354.29597832533364 
	3281.797571924644672 4249.594173371998295 14390.34991179787539 
	3281.797571921888903 4207.365987273354222 14420.70970861761816 
	3281.797571921702001 4164.126548649202959 14445.67389569538136 
	3281.797571921169038 4122.408879324933878 14464.49778506680377 
	3281.797571920775226 4083.157754512549218 14478.23158427936141 
	3281.797571920275004 4034.956960845992853 14491.14854821246627 
	3281.797571919686106 3973.147691657326504 14500.46604260961249 
	3281.797571918656558 3898.137921196956086 14500.46567083804621 
	3281.797571917927144 3836.328576931676707 14491.14875659769859 
	3281.797571917685673 3788.127677662167116 14478.23210787337666 
	3281.797571917454661 3752.801770390936781 14465.87139193957955 
	3281.797571917300502 3724.215670319407764 14453.39922864706386 
	3281.797571917179539 3701.95392464053748 14442.16089867486153 
	3281.797571917079949 3680.12786495073351 14430.09816535476421 
	3281.797571916908964 3653.719899494090896 14413.50490924237238 
	3281.797571916861216 3623.606913443290068 14391.28059008732271 
	3281.797571916723882 3599.967024472189678 14370.93672969534782 
	3281.7975719167016 3582.006853243781279 14353.63591677796467 
	3281.797571916673405 3569.031260159508747 14340.16577397995934 
	3281.797571916653396 3556.56844547569608 14326.2198400679099 
	3281.797571916632023 3540.658181282113219 14307.0169963401222 
	3281.797571916559264 3522.137772473558016 14281.92293255199365 
	3281.797571916534253 3502.226025838045643 14250.23329148763514 
	3281.79757191648514 3482.794643240525147 14213.46786090946443 
	3281.797571916431934 3465.016719360885872 14171.29388682626814 
	3281.797571916412835 3450.300074208028491 14123.58342627620732 
	3281.797571916344623 3442.880221880670433 14086.879448667818 
	3281.797571916338711 3439.471590711765202 14062.17830539172428 
	3281.797571916337347 3438.075655377561361 14049.7890981275923 
	3281.797571916335983 3437.170086354604791 14039.43895811312905 
	3281.797571916335528 3436.600741882602051 14031.14723693525957 
	3281.79757191633189 3434.968890923590152 14002.10359386339951 
	3281.797571916328252 3435.853133837952555 13966.69375943988234 
	3281.797571916338711 3441.539734389684781 13921.32341947717941 
	3281.797571916355992 3447.724144152237386 13888.63577122254173 
	3281.797571916387824 3457.410784874336059 13852.48489443672406 
	3281.797571916414654 3469.772058995917632 13817.15919794194633 
	3281.797571916503784 3489.726237172048059 13771.42092656638124 
	3281.79757191668341 3520.979070068209239 13717.28704126574848 
	3281.797571916879406 3557.354506094395219 13671.67497803890546 
	3281.797571916991274 3583.47737766743785 13644.89405065538631 
	3281.797571917009009 3595.521275148033055 13633.43612124776337 
	3281.797571917054938 3614.00999696346571 13616.70495077073792 
	3281.797571917170899 3643.286765415047739 13593.35746191218095 
	3281.797571917268669 3681.732982830601941 13568.52630984610914 
	3281.797571917591995 3718.498658048971265 13549.09548774430732 
	3281.797571917719324 3752.801878693529034 13534.12887091274933 
	3281.797571918064023 3788.127786789312722 13521.76809014171886 
	3281.797571918455105 3830.303606228099852 13510.46655853543052 
	3281.797571918679751 3879.542938832907112 13502.10023612220539 
	3281.797571919614256 3935.642809737585594 13498.9501021587439 
	3281.7975719206961 3991.74254792964939 13502.10040783365184 
	3281.797571920965765 4040.982038765486323 13510.46648499296134 
	3281.797571921719737 4083.157562634435635 13521.76862788421568 
	3281.797571922061252 4130.259434382101972 13538.248362705408 
	3281.797571922858879 4175.31356396663432 13559.94458133380795 
	3281.797571923485066 4212.284038345545923 13583.17650288557888 
	3281.797571923625128 4232.622224401990934 13597.60707652173369 
	3281.797571923861597 4257.352812667719263 13616.58327747956173 
	3281.797571925160355 4289.938933061495845 13645.7037247926437 
	3281.797571926731052 4327.379721032127236 13687.60014813171074 
	3281.797571928300385 4359.894158365508702 13733.42507310328801 
	3281.797571930829235 4387.073656911001308 13782.60224915704021 
	3281.797571935934684 4408.575802075832144 13834.51346091777305 
	3281.797571939850513 4424.130821345374898 13888.50569634680869 
	3281.797571945046457 4431.973796435820077 13934.66767819264169 
	3281.797571946584867 4434.725044874843661 13967.28968494000765 
	3281.797571947083725 4435.413396636621655 13983.63926755330067 
	3281.797571947204688 4435.585490759994173 13991.81889062297705 
	3281.797571947240613 4435.628519779857925 13995.90930469035266 
	3281.797571947248798 4435.639276445856922 13997.95458731051622 
	3281.797571947251527 4435.6423499149696 13999.12333097745432 
	3281.797571947252436 4435.642862152771158 13999.70770461338725 
	3281.797571947251981 4435.642862147377855 13999.99989143005951 
	0 
	
	0 
	0 
	84 0 0.002232142857142857019 0.004464285714285714038 0.008928571428571428076 0.01785714285714285615 0.02678571428571428423 0.0357142857142857123 0.05357142857142856845 0.07142857142857142461 0.08928571428571427382 0.1071428571428571369 0.125 0.1428571428571428492 0.1587301587301587213 0.1746031746031745935 0.1904761904761904656 0.2023809523809523836 0.2142857142857142738 0.238095238095238082 0.2619047619047618625 0.2857142857142856984 0.2976190476190476164 0.3095238095238095344 0.3214285714285713969 0.3273809523809523281 0.3333333333333333148 0.3452380952380952328 0.3571428571428570953 0.3690476190476190133 0.375 0.3809523809523809312 0.3869047619047618625 0.3928571428571428492 0.4047619047619047672 0.4166666666666666297 0.4285714285714285476 0.4444444444444444198 0.4603174603174602919 0.476190476190476164 0.4801587301587301182 0.4841269841269840724 0.4880952380952380265 0.4900793650793650036 0.4920634920634920362 0.5158730158730158166 0.5238095238095237249 0.5357142857142855874 0.5476190476190475609 0.5595238095238095344 0.5714285714285713969 0.5952380952380951218 0.6190476190476189577 0.6269841269841269771 0.6309523809523809312 0.6349206349206348854 0.650793650793650702 0.6666666666666666297 0.6785714285714286031 0.6904761904761904656 0.7023809523809523281 0.7142857142857141906 0.7321428571428569843 0.749999999999999889 0.7678571428571427937 0.7857142857142855874 0.7976190476190474499 0.8095238095238094234 0.8333333333333332593 0.8452380952380951218 0.851190476190476053 0.8571428571428570953 0.875 0.8928571428571427937 0.9107142857142856984 0.9285714285714286031 0.9464285714285713969 0.9642857142857143016 0.9821428571428572063 0.9910714285714286031 0.9955357142857143016 0.9977678571428572063 0.9988839285714286031 0.9994419642857143016 0.9997209821428572063 
	0 
	0 
	0 
	F 1 F 0 F 1 F 0 } I I I I #
tcoedge-coedge $-1 -1 $-1 $14 $14 $18 $19 reversed $9 $20 -6.283185307179586232 -0 #
tcoedge-coedge $-1 -1 $-1 $21 $22 $11 $16 reversed $12 $23 -6.283185307179586232 -0 #
tedge-edge $-1 -1 $-1 $24 0 $24 6.283185307179586232 $15 $25 forward @7 unknown 0.0006929144101198634036 #
pcurve $-1 -1 $-1 0 forward { exppc nurbs 2 periodic 5 
	0 2 1.570796326794896558 2 3.141592653589793116 2 4.712388980384689674 2 6.283185307179586232 2 
	0 500 1 
	-500 500 0.707106781186543798 
	-500 0 1 
	-500 -500 0.7071067811865463515 
	0 -500 1 
	500 -500 0.7071067811865463515 
	500 0 1 
	500 500 0.707106781186543798 
	0 500 1 
	0 
	plane 3281.797571915386925 3935.64279798980624 14000.00000000000182 1 -3.637978807091713027e-15 0 0 0 -1 forward_v I I I I 
	} 0 0 #
tcoedge-coedge $-1 -1 $-1 $22 $21 $14 $19 forward $12 $26 0 6.283185307179586232 #
tedge-edge $-1 -1 $-1 $27 0 $27 6.283185307179586232 $18 $28 forward @7 unknown 0.0006929144100756098488 #
pcurve $-1 -1 $-1 0 forward { exppc nurbs 2 periodic 5 
	-6.283185307179586232 2 -4.712388980384689674 2 -3.141592653589793116 2 -1.570796326794896558 2 0 2 
	0 500 1 
	500 500 0.707106781186543798 
	500 0 1 
	500 -500 0.7071067811865463515 
	0 -500 1 
	-500 -500 0.7071067811865463515 
	-500 0 1 
	-500 500 0.707106781186543798 
	0 500 1 
	0 
	plane 3031.797571915386925 3935.64279798980715 14000.00000000000182 -1 3.637978807091713027e-15 -0 0 0 -1 reverse_v I I I I 
	} 0 0 #
coedge $-1 -1 $-1 $18 $15 $22 $29 reversed $12 $30 #
coedge $-1 -1 $-1 $15 $18 $21 $29 forward $12 $31 #
pcurve $-1 -1 $-1 0 forward { exppc nubs 1 periodic 2 
	-6.283185307179586232 1 -0 1 
	1 1 
	0 1 
	2.726396620975368931e-13 
	spline forward { ref 0 } I I I I 
	} 0 0 #
tvertex-vertex $-1 -1 $-1 $16 $32 0.000126109594824309662 #
ellipse-curve $-1 -1 $-1 3281.797571915386925 3935.64279798980624 14000.00000000000182 1 -3.637978807091713027e-15 0 1.818989403545856476e-12 500 0 1 I I #
pcurve $-1 -1 $-1 0 forward { exppc nubs 1 periodic 2 
	0 1 6.283185307179586232 1 
	0 0 
	1 0 
	4.411402399551011509e-13 
	spline forward { ref 0 } I I I I 
	} 0 0 #
tvertex-vertex $-1 -1 $-1 $19 $33 0.0001261095946973663114 #
ellipse-curve $-1 -1 $-1 3031.797571915386925 3935.64279798980715 14000.00000000000182 1 -3.637978807091713027e-15 0 1.818989403545856476e-12 500 0 1 I I #
edge $-1 -1 $-1 $27 0 $24 0.9999999998725470629 $22 $34 forward @7 tangent #
pcurve $-1 -1 $-1 -1 $34 0 0 #
pcurve $-1 -1 $-1 1 $34 1 0 #
point $-1 -1 $-1 3281.797571915388744 4435.64279798980624 14000.00000000000182 #
point $-1 -1 $-1 3031.797571915388744 4435.64279798980715 14000.00000000000182 #
intcurve-curve $-1 -1 $-1 forward { parcur full nubs 3 open 2 
	0 3 1 3 
	3031.797571944825904 4435.642862147379674 13999.99989143005951 
	3115.130905278159389 4435.642862147378764 13999.99989143005951 
	3198.464238613918496 4435.642862147377855 13999.99989143005951 
	3281.797571947251981 4435.642862147377855 13999.99989143005951 
	0 
	
	spline forward { ref 0 } I I I I 
	null_surface 
	nubs 1 open 2 
	0 1 1 1 
	0 0 
	0 1 
	
	nullbs 
	I I 
	0 
	0 
	0 
	surf1 } F 0 F 0.9999999998725470629 #
End-of-ACIS-data 