700 0 1 0           
4 LibG 20 ASM 224.0.1.65535 NT 24 Wed Jul 17 14:48:13 2019 
1000 9.999999999999999547e-07 1.000000000000000036e-10 
body $-1 -1 $-1 $1 $-1 $2 #
lump $-1 -1 $-1 $-1 $3 $0 #
transform $-1 -1 1 0 0 0 1 0 0 0 1 0 0 0 1 no_rotate no_reflect no_shear #
shell $-1 -1 $-1 $-1 $-1 $4 $-1 $1 #
face $-1 -1 $-1 $5 $6 $3 $-1 $7 forward single #
face $-1 -1 $-1 $8 $9 $3 $-1 $10 reversed single #
loop $-1 -1 $-1 $-1 $11 $4 #
plane-surface $-1 -1 $-1 5031.79757191538738 3935.642797989799874 14000.00000000000182 1 -3.637978807091713027e-15 0 0 0 -1 forward_v I I I I #
face $-1 -1 $-1 $-1 $12 $3 $-1 $13 forward single #
loop $-1 -1 $-1 $-1 $14 $5 #
plane-surface $-1 -1 $-1 4781.79757191538738 3935.642797989800783 14000.00000000000182 1 -3.637978807091713027e-15 0 0 0 -1 forward_v I I I I #
tcoedge-coedge $-1 -1 $-1 $11 $11 $15 $16 forward $6 $17 0 6.283185307179586232 #
loop $-1 -1 $-1 $-1 $18 $8 #
spline-surface $-1 -1 $-1 forward { exactsur full nubs 3 3 periodic open none none 90 2 
	0 3 0.001116071428571428509 1 0.002232142857142857019 1 0.004464285714285714038 1 0.008928571428571428076 1 
	0.01785714285714285615 1 0.0357142857142857123 1 0.05357142857142856845 1 0.07142857142857142461 1 0.08928571428571427382 1 
	0.1071428571428571369 1 0.1160714285714285754 1 0.125 1 0.1428571428571428492 1 0.1587301587301587213 1 
	0.1746031746031745935 1 0.1904761904761904656 1 0.2023809523809523836 1 0.2142857142857142738 1 0.238095238095238082 1 
	0.2619047619047618625 1 0.2857142857142856984 1 0.2976190476190476164 1 0.3095238095238095344 1 0.3154761904761904656 1 
	0.3214285714285713969 1 0.3333333333333333148 1 0.3452380952380952328 1 0.3571428571428570953 1 0.3690476190476190133 1 
	0.375 1 0.3779761904761904656 1 0.3809523809523809312 1 0.3869047619047618625 1 0.3928571428571428492 1 
	0.4047619047619047672 1 0.4166666666666666297 1 0.4285714285714285476 1 0.4444444444444444198 1 0.4603174603174602919 1 
	0.476190476190476164 1 0.4801587301587301182 1 0.4821428571428570953 1 0.4841269841269840724 1 0.4861111111111110494 1 
	0.4880952380952380265 1 0.4900793650793650036 1 0.4910714285714284921 1 0.4915674603174602364 1 0.491815476190476164 1 
	0.4920634920634920362 1 0.5158730158730158166 1 0.5238095238095237249 1 0.5357142857142855874 1 0.5476190476190475609 1 
	0.5595238095238095344 1 0.5714285714285713969 1 0.5952380952380951218 1 0.6190476190476189577 1 0.6349206349206348854 1 
	0.650793650793650702 1 0.6666666666666666297 1 0.6904761904761904656 1 0.7023809523809523281 1 0.7142857142857141906 1 
	0.7321428571428569843 1 0.749999999999999889 1 0.7678571428571427937 1 0.7857142857142855874 1 0.8095238095238094234 1 
	0.8214285714285713969 1 0.8333333333333332593 1 0.8452380952380951218 1 0.8571428571428570953 1 0.875 1 
	0.8928571428571427937 1 0.9107142857142856984 1 0.9285714285714286031 1 0.9464285714285713969 1 0.9642857142857143016 1 
	0.9732142857142858094 1 0.9821428571428572063 1 0.9910714285714286031 1 0.9955357142857143016 1 0.9977678571428572063 1 
	0.9988839285714286031 1 0.9994419642857143016 1 0.9997209821428572063 1 0.9998604910714286031 1 1 3 
	0 3 1 3 
	4781.797571804861946 4435.642812427974604 14000.00002278657848 
	4781.797571804864674 4435.642812425411648 14001.16877004300477 
	4781.797571804959261 4435.634617066778446 14003.50626453620316 
	4781.797571805057487 4435.585441050113332 14008.18102330546026 
	4781.797571805470398 4435.413346554617419 14016.3606457242804 
	4781.79757180701472 4434.724991776675779 14032.71022449270458 
	4781.797571811946909 4431.973741579995476 14065.33222252125415 
	4781.797571827772117 4424.130717080401155 14111.49414830814749 
	4781.797571840464116 4408.575720784414443 14165.48636800312488 
	4781.797571854450325 4387.073436303898234 14217.39746888447917 
	4781.797571865012287 4359.894161379041179 14266.57473550778559 
	4781.797571876392794 4332.798621665348037 14304.76204616010727 
	4781.797571879120369 4308.659343598665146 14333.3478547091654 
	4781.797571883012097 4282.956071212119241 14360.53604999094023 
	4781.797571884947502 4249.594183824611719 14390.34993028794815 
	4781.79757189382326 4207.365963426625967 14420.7096871728736 
	4781.79757189457996 4164.126537302911856 14445.67388049106012 
	4781.797571896338923 4122.408864309130877 14464.49776220221247 
	4781.797571897718626 4083.157742888996836 14478.23156017867223 
	4781.797571899434843 4034.956950969882655 14491.14851511208144 
	4781.797571901553056 3973.14768314836283 14500.46601083839232 
	4781.797571905118275 3898.137923216471791 14500.46559629248986 
	4781.797571907975907 3836.328571713988822 14491.14871759886591 
	4781.797571908554346 3788.127692132256925 14478.23198114753177 
	4781.797571909980434 3758.68939685392661 14467.93155936668882 
	4781.797571910330589 3735.65007929454805 14458.38811381718733 
	4781.7975719107244 3712.983601768157314 14447.99021817727044 
	4781.797571911847626 3685.409437278256974 14433.41682408885936 
	4781.797571913094544 3653.71985438856791 14413.50492534451951 
	4781.797571913475622 3623.606884622391135 14391.28057871871715 
	4781.797571914081345 3599.966986989153156 14370.93672554181103 
	4781.797571914195032 3584.251845027883064 14355.79850383700068 
	4781.797571914309628 3575.519018927734578 14346.90083843308821 
	4781.797571914315085 3566.95409874486495 14337.84143434759062 
	4781.797571914537002 3556.568408454182645 14326.21982890781692 
	4781.797571914656146 3540.658145996475469 14307.01698056545138 
	4781.797571915215485 3522.137745511312914 14281.92290845482603 
	4781.797571915597473 3502.225971128270885 14250.23327039875585 
	4781.797571916065863 3482.794635598418608 14213.46781610988364 
	4781.797571917149071 3465.016579442597049 14171.29387581422452 
	4781.797571917983987 3450.300130898545376 14123.58333134123313 
	4781.79757191990393 3442.880153792320471 14086.87936407655434 
	4781.797571920178598 3439.755616294546599 14064.23663789764942 
	4781.797571920214068 3438.773571395220188 14055.98360747273728 
	4781.797571920248629 3438.114275764681679 14049.78513051935442 
	4781.79757192028319 3437.532294797405484 14043.57891766503599 
	4781.797571920315931 3437.02773342862065 14037.3659314115921 
	4781.797571920351402 3436.671836531788813 14032.18360346493319 
	4781.797571920362316 3436.4566475601805 14028.55385647172079 
	4781.797571920363225 3436.357532190708753 14026.73850620762278 
	4781.797571920365954 3436.303329955469962 14025.70103499031757 
	4781.797571920098562 3435.014337333263029 14000.28092695250052 
	4781.797571919139955 3435.853172189526958 13966.69364029404278 
	4781.797571918916219 3441.539722318454096 13921.32329496982675 
	4781.797571918279573 3447.724136499881752 13888.63562571243347 
	4781.797571917810274 3457.410781169307938 13852.48474718347825 
	4781.797571917247296 3469.772009278417499 13817.15900302373484 
	4781.797571916656125 3489.726308815657376 13771.4207991952444 
	4781.797571914723449 3520.978889057099877 13717.28659542198693 
	4781.797571913019965 3562.551253779348372 13665.15895794035532 
	4781.7975719117685 3604.250973516625436 13624.48693260471191 
	4781.797571911274645 3643.286841764203928 13593.35737655327466 
	4781.797571910403349 3692.217812416418383 13561.7528078431842 
	4781.797571908741702 3741.026345524524459 13538.24831797885417 
	4781.797571908034115 3788.128141524114199 13521.76839653345996 
	4781.797571907100064 3830.303800278623839 13510.46651751094214 
	4781.79757190530745 3879.543200017095842 13502.10042389963382 
	4781.797571903262906 3935.643082027444052 13498.94961440350562 
	4781.797571901013725 3991.742704675835284 13502.10066054965682 
	4781.797571898118804 4053.292481232915634 13512.55667022115267 
	4781.797571894800967 4107.049651094263936 13529.13948857717696 
	4781.797571893919667 4152.787028420779279 13549.09584786935011 
	4781.797571892159795 4185.876181426264338 13566.58335425270161 
	4781.797571890127074 4217.565604061010163 13586.49550945332339 
	4781.797571888087987 4252.697609648104844 13612.42356650026341 
	4781.797571882352713 4289.938958325866224 13645.70406350133999 
	4781.797571878498275 4327.379662715036829 13687.60047994672095 
	4781.797571864634847 4359.894148127810695 13733.42537383090894 
	4781.79757185129165 4387.073420382826953 13782.60257820463812 
	4781.797571837987562 4408.575841785253942 13834.51368065319366 
	4781.79757182202593 4421.537995610844519 13879.5072151610002 
	4781.797571816879099 4428.836875452748245 13916.20300830866654 
	4781.797571812249771 4432.759654281948315 13943.98841361262021 
	4781.79757180715751 4434.725035426422437 13967.28981666575237 
	4781.797571805523148 4435.413338642966664 13983.63940074020684 
	4781.79757180503475 4435.585442379585402 13991.81902209380496 
	4781.797571804910149 4435.628469773190773 13995.9094361352054 
	4781.797571804874678 4435.639226768731533 13997.95471867986453 
	4781.797571804866493 4435.64191601265793 13998.97736938213166 
	4781.797571804862855 4435.642684376537545 13999.56174256511258 
	4781.797571804861946 4435.642812428294746 13999.85392937952565 
	4781.797571804861946 4435.642812427974604 14000.00002278657848 
	4865.130905138194976 4435.642812427973695 14000.00002278657848 
	4865.130905138197704 4435.642812425410739 14001.16877004300477 
	4865.130905138292292 4435.634617066777537 14003.50626453620316 
	4865.130905138390517 4435.585441050112422 14008.18102330546026 
	4865.130905138803428 4435.41334655461651 14016.3606457242804 
	4865.13090514034775 4434.724991776674869 14032.71022449270458 
	4865.130905145279939 4431.973741579994567 14065.33222252125415 
	4865.130905161105147 4424.130717080400245 14111.49414830814749 
	4865.130905173797146 4408.575720784413534 14165.48636800312488 
	4865.130905187783355 4387.073436303897324 14217.39746888447917 
	4865.130905198345317 4359.89416137904027 14266.57473550778559 
	4865.130905209725825 4332.798621665347127 14304.76204616010727 
	4865.130905212453399 4308.659343598664236 14333.3478547091654 
	4865.130905216345127 4282.956071212118331 14360.53604999094023 
	4865.130905218280532 4249.594183824610809 14390.34993028794815 
	4865.13090522715629 4207.365963426625058 14420.7096871728736 
	4865.13090522791299 4164.126537302910947 14445.67388049106012 
	4865.130905229671953 4122.408864309129967 14464.49776220221247 
	4865.130905231051656 4083.157742888996381 14478.23156017867223 
	4865.130905232767873 4034.9569509698822 14491.14851511208144 
	4865.130905234886086 3973.147683148362376 14500.46601083839232 
	4865.130905238451305 3898.137923216471336 14500.46559629248986 
	4865.130905241308938 3836.328571713988367 14491.14871759886591 
	4865.130905241887376 3788.12769213225647 14478.23198114753177 
	4865.130905243313464 3758.689396853926155 14467.93155936668882 
	4865.130905243663619 3735.650079294547595 14458.38811381718733 
	4865.130905244057431 3712.983601768156859 14447.99021817727044 
	4865.130905245180656 3685.409437278256519 14433.41682408885936 
	4865.130905246427574 3653.719854388567455 14413.50492534451951 
	4865.130905246808652 3623.60688462239068 14391.28057871871715 
	4865.130905247414375 3599.966986989152701 14370.93672554181103 
	4865.130905247528062 3584.251845027882609 14355.79850383700068 
	4865.130905247642659 3575.519018927734123 14346.90083843308821 
	4865.130905247648116 3566.954098744864496 14337.84143434759062 
	4865.130905247870032 3556.56840845418219 14326.21982890781692 
	4865.130905247989176 3540.658145996475014 14307.01698056545138 
	4865.130905248548515 3522.13774551131246 14281.92290845482603 
	4865.130905248930503 3502.22597112827043 14250.23327039875585 
	4865.130905249398893 3482.794635598418154 14213.46781610988364 
	4865.130905250482101 3465.016579442596594 14171.29387581422452 
	4865.130905251317017 3450.300130898544921 14123.58333134123313 
	4865.130905253236961 3442.880153792320016 14086.87936407655434 
	4865.130905253511628 3439.755616294546144 14064.23663789764942 
	4865.130905253547098 3438.773571395219733 14055.98360747273728 
	4865.130905253581659 3438.114275764681224 14049.78513051935442 
	4865.13090525361622 3437.532294797405029 14043.57891766503599 
	4865.130905253648962 3437.027733428620195 14037.3659314115921 
	4865.130905253684432 3436.671836531788358 14032.18360346493319 
	4865.130905253695346 3436.456647560180045 14028.55385647172079 
	4865.130905253696255 3436.357532190708298 14026.73850620762278 
	4865.130905253698984 3436.303329955469508 14025.70103499031757 
	4865.130905253431592 3435.014337333262574 14000.28092695250052 
	4865.130905252472985 3435.853172189526504 13966.69364029404278 
	4865.130905252249249 3441.539722318453641 13921.32329496982675 
	4865.130905251612603 3447.724136499881297 13888.63562571243347 
	4865.130905251143304 3457.410781169307484 13852.48474718347825 
	4865.130905250580327 3469.772009278417045 13817.15900302373484 
	4865.130905249989155 3489.726308815656921 13771.4207991952444 
	4865.130905248056479 3520.978889057099423 13717.28659542198693 
	4865.130905246352995 3562.551253779347917 13665.15895794035532 
	4865.13090524510153 3604.250973516624981 13624.48693260471191 
	4865.130905244607675 3643.286841764203473 13593.35737655327466 
	4865.130905243736379 3692.217812416417928 13561.7528078431842 
	4865.130905242074732 3741.026345524524004 13538.24831797885417 
	4865.130905241367145 3788.128141524113744 13521.76839653345996 
	4865.130905240433094 3830.303800278623385 13510.46651751094214 
	4865.13090523864048 3879.543200017095387 13502.10042389963382 
	4865.130905236595936 3935.643082027443597 13498.94961440350562 
	4865.130905234346756 3991.74270467583483 13502.10066054965682 
	4865.130905231451834 4053.292481232915179 13512.55667022115267 
	4865.130905228133997 4107.049651094263027 13529.13948857717696 
	4865.130905227252697 4152.78702842077837 13549.09584786935011 
	4865.130905225492825 4185.876181426263429 13566.58335425270161 
	4865.130905223460104 4217.565604061009253 13586.49550945332339 
	4865.130905221421017 4252.697609648103935 13612.42356650026341 
	4865.130905215685743 4289.938958325865315 13645.70406350133999 
	4865.130905211831305 4327.37966271503592 13687.60047994672095 
	4865.130905197967877 4359.894148127809785 13733.42537383090894 
	4865.13090518462468 4387.073420382826043 13782.60257820463812 
	4865.130905171320592 4408.575841785253033 13834.51368065319366 
	4865.13090515535896 4421.537995610843609 13879.5072151610002 
	4865.130905150212129 4428.836875452747336 13916.20300830866654 
	4865.130905145582801 4432.759654281947405 13943.98841361262021 
	4865.13090514049054 4434.725035426421528 13967.28981666575237 
	4865.130905138856178 4435.413338642965755 13983.63940074020684 
	4865.13090513836778 4435.585442379584492 13991.81902209380496 
	4865.130905138243179 4435.628469773189863 13995.9094361352054 
	4865.130905138207709 4435.639226768730623 13997.95471867986453 
	4865.130905138199523 4435.64191601265702 13998.97736938213166 
	4865.130905138195885 4435.642684376536636 13999.56174256511258 
	4865.130905138194976 4435.642812428293837 13999.85392937952565 
	4865.130905138194976 4435.642812427973695 14000.00002278657848 
	4948.464238465751805 4435.642812427975514 14000.00002278657848 
	4948.464238465753624 4435.642812425413467 14001.16877004300477 
	4948.464238465855487 4435.634617066779356 14003.50626453620316 
	4948.464238465957351 4435.585441050114241 14008.18102330546026 
	4948.46423846639118 4435.413346554618329 14016.3606457242804 
	4948.464238468018266 4434.724991776675779 14032.71022449270458 
	4948.464238473207843 4431.973741579995476 14065.33222252125415 
	4948.464238489859781 4424.130717080402064 14111.49414830814749 
	4948.464238503215711 4408.575720784414443 14165.48636800312488 
	4948.464238517932245 4387.073436303899143 14217.39746888447917 
	4948.46423852904536 4359.894161379041179 14266.57473550778559 
	4948.464238541020677 4332.798621665348037 14304.76204616010727 
	4948.464238543891042 4308.659343598665146 14333.3478547091654 
	4948.464238547985588 4282.956071212119241 14360.53604999094023 
	4948.464238550021946 4249.594183824611719 14390.34993028794815 
	4948.464238559362457 4207.365963426625967 14420.7096871728736 
	4948.464238560158265 4164.126537302911856 14445.67388049106012 
	4948.464238562009086 4122.408864309130877 14464.49776220221247 
	4948.46423856346064 4083.157742888997291 14478.23156017867223 
	4948.464238565267806 4034.95695096988311 14491.14851511208144 
	4948.464238567496068 3973.147683148363285 14500.46601083839232 
	4948.464238571247733 3898.137923216472245 14500.46559629248986 
	4948.464238574253613 3836.328571713989277 14491.14871759886591 
	4948.464238574863884 3788.12769213225738 14478.23198114753177 
	4948.464238576363641 3758.689396853927065 14467.93155936668882 
	4948.464238576731987 3735.650079294548505 14458.38811381718733 
	4948.464238577145807 3712.983601768157769 14447.99021817727044 
	4948.46423857832815 3685.409437278257428 14433.41682408885936 
	4948.46423857964146 3653.719854388568365 14413.50492534451951 
	4948.464238580042547 3623.60688462239159 14391.28057871871715 
	4948.464238580681013 3599.966986989153611 14370.93672554181103 
	4948.464238580801066 3584.251845027883519 14355.79850383700068 
	4948.464238580921119 3575.519018927735033 14346.90083843308821 
	4948.464238580927486 3566.954098744865405 14337.84143434759062 
	4948.464238581160316 3556.5684084541831 14326.21982890781692 
	4948.464238581285827 3540.658145996475923 14307.01698056545138 
	4948.46423858187427 3522.137745511313369 14281.92290845482603 
	4948.464238582276266 3502.22597112827134 14250.23327039875585 
	4948.464238582768303 3482.794635598419063 14213.46781610988364 
	4948.4642385839079 3465.016579442597504 14171.29387581422452 
	4948.464238584787381 3450.300130898545831 14123.58333134123313 
	4948.464238586807369 3442.880153792320925 14086.87936407655434 
	4948.464238587096588 3439.755616294547053 14064.23663789764942 
	4948.464238587133877 3438.773571395220642 14055.98360747273728 
	4948.464238587171167 3438.114275764682134 14049.78513051935442 
	4948.464238587206637 3437.532294797405939 14043.57891766503599 
	4948.464238587241198 3437.027733428621104 14037.3659314115921 
	4948.464238587277578 3436.671836531789268 14032.18360346493319 
	4948.464238587290311 3436.456647560180954 14028.55385647172079 
	4948.464238587290311 3436.357532190709207 14026.73850620762278 
	4948.464238587293949 3436.303329955469962 14025.70103499031757 
	4948.464238587012915 3435.014337333263029 14000.28092695250052 
	4948.464238586003376 3435.853172189526958 13966.69364029404278 
	4948.464238585768726 3441.539722318454096 13921.32329496982675 
	4948.464238585098428 3447.724136499881297 13888.63562571243347 
	4948.464238584604573 3457.410781169307484 13852.48474718347825 
	4948.464238584011582 3469.772009278417045 13817.15900302373484 
	4948.464238583388578 3489.726308815656466 13771.4207991952444 
	4948.464238581354948 3520.978889057100332 13717.28659542198693 
	4948.464238579561425 3562.551253779347462 13665.15895794035532 
	4948.464238578245386 3604.250973516624981 13624.48693260471191 
	4948.464238577726064 3643.286841764203018 13593.35737655327466 
	4948.464238576809294 3692.217812416417928 13561.7528078431842 
	4948.464238575062154 3741.026345524524459 13538.24831797885417 
	4948.464238574316369 3788.128141524114199 13521.76839653345996 
	4948.464238573334114 3830.303800278624294 13510.46651751094214 
	4948.464238571447822 3879.543200017096297 13502.10042389963382 
	4948.464238569295958 3935.643082027444507 13498.94961440350562 
	4948.464238566929453 3991.742704675835739 13502.10066054965682 
	4948.464238563883555 4053.292481232915634 13512.55667022115267 
	4948.464238560392914 4107.049651094263027 13529.13948857717696 
	4948.46423855946523 4152.787028420779279 13549.09584786935011 
	4948.464238557613498 4185.876181426263429 13566.58335425270161 
	4948.464238555473457 4217.565604061009253 13586.49550945332339 
	4948.464238553327959 4252.697609648104844 13612.42356650026341 
	4948.464238547292553 4289.938958325866224 13645.70406350133999 
	4948.464238543237116 4327.379662715036829 13687.60047994672095 
	4948.464238528648821 4359.894148127809785 13733.42537383090894 
	4948.464238514607132 4387.073420382826953 13782.60257820463812 
	4948.464238500610008 4408.575841785253033 13834.51368065319366 
	4948.46423848381346 4421.537995610843609 13879.5072151610002 
	4948.464238478398329 4428.836875452747336 13916.20300830866654 
	4948.464238473526166 4432.759654281947405 13943.98841361262021 
	4948.464238468168332 4434.725035426421528 13967.28981666575237 
	4948.464238466448478 4435.413338642965755 13983.63940074020684 
	4948.464238465934613 4435.585442379585402 13991.81902209380496 
	4948.464238465802737 4435.628469773189863 13995.9094361352054 
	4948.464238465765447 4435.639226768731533 13997.95471867986453 
	4948.464238465756353 4435.64191601265702 13998.97736938213166 
	4948.464238465753624 4435.642684376537545 13999.56174256511258 
	4948.464238465751805 4435.642812428295656 13999.85392937952565 
	4948.464238465751805 4435.642812427975514 14000.00002278657848 
	5031.797571799084835 4435.642812427975514 14000.00002278657848 
	5031.797571799086654 4435.642812425413467 14001.16877004300477 
	5031.797571799188518 4435.634617066779356 14003.50626453620316 
	5031.797571799290381 4435.585441050114241 14008.18102330546026 
	5031.79757179972421 4435.413346554618329 14016.3606457242804 
	5031.797571801351296 4434.724991776675779 14032.71022449270458 
	5031.797571806540873 4431.973741579995476 14065.33222252125415 
	5031.797571823192811 4424.130717080402064 14111.49414830814749 
	5031.797571836548741 4408.575720784414443 14165.48636800312488 
	5031.797571851265275 4387.073436303899143 14217.39746888447917 
	5031.797571862378391 4359.894161379041179 14266.57473550778559 
	5031.797571874353707 4332.798621665348037 14304.76204616010727 
	5031.797571877224073 4308.659343598665146 14333.3478547091654 
	5031.797571881318618 4282.956071212119241 14360.53604999094023 
	5031.797571883354976 4249.594183824611719 14390.34993028794815 
	5031.797571892695487 4207.365963426625967 14420.7096871728736 
	5031.797571893491295 4164.126537302911856 14445.67388049106012 
	5031.797571895342116 4122.408864309130877 14464.49776220221247 
	5031.79757189679367 4083.157742888996836 14478.23156017867223 
	5031.797571898600836 4034.956950969882655 14491.14851511208144 
	5031.797571900829098 3973.14768314836283 14500.46601083839232 
	5031.797571904580764 3898.137923216471791 14500.46559629248986 
	5031.797571907586644 3836.328571713988822 14491.14871759886591 
	5031.797571908196915 3788.127692132256925 14478.23198114753177 
	5031.797571909696671 3758.68939685392661 14467.93155936668882 
	5031.797571910065017 3735.65007929454805 14458.38811381718733 
	5031.797571910478837 3712.983601768157314 14447.99021817727044 
	5031.79757191166118 3685.409437278256974 14433.41682408885936 
	5031.79757191297449 3653.71985438856791 14413.50492534451951 
	5031.797571913375577 3623.606884622391135 14391.28057871871715 
	5031.797571914014043 3599.966986989153156 14370.93672554181103 
	5031.797571914134096 3584.251845027883064 14355.79850383700068 
	5031.797571914254149 3575.519018927734578 14346.90083843308821 
	5031.797571914260516 3566.95409874486495 14337.84143434759062 
	5031.797571914493346 3556.568408454182645 14326.21982890781692 
	5031.797571914618857 3540.658145996475469 14307.01698056545138 
	5031.7975719152073 3522.137745511312914 14281.92290845482603 
	5031.797571915609296 3502.225971128270885 14250.23327039875585 
	5031.797571916101333 3482.794635598418608 14213.46781610988364 
	5031.79757191724093 3465.016579442597049 14171.29387581422452 
	5031.797571918120411 3450.300130898545376 14123.58333134123313 
	5031.797571920140399 3442.880153792320471 14086.87936407655434 
	5031.797571920429618 3439.755616294546599 14064.23663789764942 
	5031.797571920466908 3438.773571395220188 14055.98360747273728 
	5031.797571920504197 3438.114275764681679 14049.78513051935442 
	5031.797571920539667 3437.532294797405484 14043.57891766503599 
	5031.797571920574228 3437.02773342862065 14037.3659314115921 
	5031.797571920610608 3436.671836531788813 14032.18360346493319 
	5031.797571920623341 3436.4566475601805 14028.55385647172079 
	5031.797571920623341 3436.357532190708753 14026.73850620762278 
	5031.797571920626979 3436.303329955469508 14025.70103499031757 
	5031.797571920345945 3435.014337333262574 14000.28092695250052 
	5031.797571919336406 3435.853172189526504 13966.69364029404278 
	5031.797571919101756 3441.539722318453641 13921.32329496982675 
	5031.797571918431458 3447.724136499880842 13888.63562571243347 
	5031.797571917937603 3457.410781169307029 13852.48474718347825 
	5031.797571917344612 3469.77200927841659 13817.15900302373484 
	5031.797571916721608 3489.726308815656012 13771.4207991952444 
	5031.797571914687978 3520.978889057099877 13717.28659542198693 
	5031.797571912894455 3562.551253779347007 13665.15895794035532 
	5031.797571911578416 3604.250973516624526 13624.48693260471191 
	5031.797571911059094 3643.286841764202563 13593.35737655327466 
	5031.797571910142324 3692.217812416417473 13561.7528078431842 
	5031.797571908395184 3741.026345524524004 13538.24831797885417 
	5031.797571907649399 3788.128141524113744 13521.76839653345996 
	5031.797571906667145 3830.303800278623839 13510.46651751094214 
	5031.797571904780852 3879.543200017095842 13502.10042389963382 
	5031.797571902628988 3935.643082027444052 13498.94961440350562 
	5031.797571900262483 3991.742704675835284 13502.10066054965682 
	5031.797571897216585 4053.292481232915179 13512.55667022115267 
	5031.797571893725944 4107.049651094263027 13529.13948857717696 
	5031.79757189279826 4152.787028420779279 13549.09584786935011 
	5031.797571890946529 4185.876181426263429 13566.58335425270161 
	5031.797571888806488 4217.565604061009253 13586.49550945332339 
	5031.79757188666099 4252.697609648104844 13612.42356650026341 
	5031.797571880625583 4289.938958325866224 13645.70406350133999 
	5031.797571876570146 4327.379662715036829 13687.60047994672095 
	5031.797571861981851 4359.894148127809785 13733.42537383090894 
	5031.797571847940162 4387.073420382826953 13782.60257820463812 
	5031.797571833943039 4408.575841785253033 13834.51368065319366 
	5031.797571817146491 4421.537995610843609 13879.5072151610002 
	5031.797571811731359 4428.836875452747336 13916.20300830866654 
	5031.797571806859196 4432.759654281947405 13943.98841361262021 
	5031.797571801501363 4434.725035426421528 13967.28981666575237 
	5031.797571799781508 4435.413338642965755 13983.63940074020684 
	5031.797571799267644 4435.585442379585402 13991.81902209380496 
	5031.797571799135767 4435.628469773189863 13995.9094361352054 
	5031.797571799098478 4435.639226768731533 13997.95471867986453 
	5031.797571799089383 4435.64191601265702 13998.97736938213166 
	5031.797571799086654 4435.642684376537545 13999.56174256511258 
	5031.797571799084835 4435.642812428295656 13999.85392937952565 
	5031.797571799084835 4435.642812427975514 14000.00002278657848 
	0 
	
	0 
	0 
	88 0 0.001116071428571428509 0.002232142857142857019 0.004464285714285714038 0.008928571428571428076 0.01785714285714285615 0.0357142857142857123 0.05357142857142856845 0.07142857142857142461 0.08928571428571427382 0.1071428571428571369 0.1160714285714285754 0.125 0.1428571428571428492 0.1587301587301587213 0.1746031746031745935 0.1904761904761904656 0.2023809523809523836 0.2142857142857142738 0.238095238095238082 0.2619047619047618625 0.2857142857142856984 0.2976190476190476164 0.3095238095238095344 0.3154761904761904656 0.3214285714285713969 0.3333333333333333148 0.3452380952380952328 0.3571428571428570953 0.3690476190476190133 0.375 0.3779761904761904656 0.3809523809523809312 0.3869047619047618625 0.3928571428571428492 0.4047619047619047672 0.4166666666666666297 0.4285714285714285476 0.4444444444444444198 0.4603174603174602919 0.476190476190476164 0.4801587301587301182 0.4821428571428570953 0.4841269841269840724 0.4861111111111110494 0.4880952380952380265 0.4900793650793650036 0.4910714285714284921 0.4915674603174602364 0.491815476190476164 0.4920634920634920362 0.5158730158730158166 0.5238095238095237249 0.5357142857142855874 0.5476190476190475609 0.5595238095238095344 0.5714285714285713969 0.5952380952380951218 0.6190476190476189577 0.6349206349206348854 0.650793650793650702 0.6666666666666666297 0.6904761904761904656 0.7023809523809523281 0.7142857142857141906 0.7321428571428569843 0.749999999999999889 0.7678571428571427937 0.7857142857142855874 0.8095238095238094234 0.8214285714285713969 0.8333333333333332593 0.8452380952380951218 0.8571428571428570953 0.875 0.8928571428571427937 0.9107142857142856984 0.9285714285714286031 0.9464285714285713969 0.9642857142857143016 0.9732142857142858094 0.9821428571428572063 0.9910714285714286031 0.9955357142857143016 0.9977678571428572063 0.9994419642857143016 0.9997209821428572063 0.9998604910714286031 
	0 
	0 
	0 
	F 1 F 0 F 1 F 0 } I I I I #
tcoedge-coedge $-1 -1 $-1 $14 $14 $18 $19 reversed $9 $20 -6.283185307179586232 -0 #
tcoedge-coedge $-1 -1 $-1 $21 $22 $11 $16 reversed $12 $23 -6.283185307179586232 -0 #
tedge-edge $-1 -1 $-1 $24 0 $24 6.283185307179586232 $15 $25 forward @7 unknown 0.0007873408955182231413 #
pcurve $-1 -1 $-1 0 forward { exppc nurbs 2 periodic 5 
	0 2 1.570796326794896558 2 3.141592653589793116 2 4.712388980384689674 2 6.283185307179586232 2 
	0 500 1 
	-500 500 0.707106781186543798 
	-500 0 1 
	-500 -500 0.7071067811865463515 
	0 -500 1 
	500 -500 0.7071067811865463515 
	500 0 1 
	500 500 0.707106781186543798 
	0 500 1 
	0 
	plane 5031.79757191538738 3935.642797989799874 14000.00000000000182 1 -3.637978807091713027e-15 0 0 0 -1 forward_v I I I I 
	} 0 0 #
tcoedge-coedge $-1 -1 $-1 $22 $21 $14 $19 forward $12 $26 0 6.283185307179586232 #
tedge-edge $-1 -1 $-1 $27 0 $27 6.283185307179586232 $18 $28 forward @7 unknown 0.0007873408937589819511 #
pcurve $-1 -1 $-1 0 forward { exppc nurbs 2 periodic 5 
	-6.283185307179586232 2 -4.712388980384689674 2 -3.141592653589793116 2 -1.570796326794896558 2 0 2 
	0 500 1 
	500 500 0.707106781186543798 
	500 0 1 
	500 -500 0.7071067811865463515 
	0 -500 1 
	-500 -500 0.7071067811865463515 
	-500 0 1 
	-500 500 0.707106781186543798 
	0 500 1 
	0 
	plane 4781.79757191538738 3935.642797989800783 14000.00000000000182 -1 3.637978807091713027e-15 -0 0 0 -1 reverse_v I I I I 
	} 0 0 #
coedge $-1 -1 $-1 $18 $15 $22 $29 reversed $12 $30 #
coedge $-1 -1 $-1 $15 $18 $21 $29 forward $12 $31 #
pcurve $-1 -1 $-1 0 forward { exppc nubs 1 periodic 2 
	-6.283185307179586232 1 -0 1 
	1 1 
	0 1 
	0 
	spline forward { ref 0 } I I I I 
	} 0 0 #
tvertex-vertex $-1 -1 $-1 $16 $32 2.697597186625025245e-05 #
ellipse-curve $-1 -1 $-1 5031.79757191538738 3935.642797989799874 14000.00000000000182 1 -3.637978807091713027e-15 0 1.818989403545856476e-12 500 0 1 I I #
pcurve $-1 -1 $-1 0 forward { exppc nubs 1 periodic 2 
	0 1 6.283185307179586232 1 
	0 0 
	1 0 
	2.726396620975368931e-13 
	spline forward { ref 0 } I I I I 
	} 0 0 #
tvertex-vertex $-1 -1 $-1 $19 $33 2.697594660380182521e-05 #
ellipse-curve $-1 -1 $-1 4781.79757191538738 3935.642797989800783 14000.00000000000182 1 -3.637978807091713027e-15 0 1.818989403545856476e-12 500 0 1 I I #
edge $-1 -1 $-1 $27 0 $24 1 $22 $34 forward @7 tangent #
pcurve $-1 -1 $-1 -1 $34 0 0 #
pcurve $-1 -1 $-1 1 $34 1 0 #
point $-1 -1 $-1 5031.797571915389199 4435.642797989799874 14000.00000000000182 #
point $-1 -1 $-1 4781.797571915389199 4435.642797989800783 14000.00000000000182 #
intcurve-curve $-1 -1 $-1 forward { parcur full nubs 3 open 2 
	0 3 1 3 
	4781.797571804861946 4435.642812427974604 14000.00002278657848 
	4865.130905138194976 4435.642812427973695 14000.00002278657848 
	4948.464238465751805 4435.642812427975514 14000.00002278657848 
	5031.797571799084835 4435.642812427975514 14000.00002278657848 
	0 
	
	spline forward { ref 0 } I I I I 
	null_surface 
	nubs 1 open 2 
	0 1 1 1 
	0 0 
	0 1 
	
	nullbs 
	I I 
	0 
	0 
	0 
	surf1 } I I #
End-of-ACIS-data 