700 0 1 0           
4 LibG 20 ASM 224.0.1.65535 NT 24 Wed Jul 17 14:48:14 2019 
1000 9.999999999999999547e-07 1.000000000000000036e-10 
body $-1 -1 $-1 $1 $-1 $2 #
lump $-1 -1 $-1 $-1 $3 $0 #
transform $-1 -1 1 0 0 0 1 0 0 0 1 0 0 0 1 no_rotate no_reflect no_shear #
shell $-1 -1 $-1 $-1 $-1 $4 $-1 $1 #
face $-1 -1 $-1 $5 $6 $3 $-1 $7 forward single #
face $-1 -1 $-1 $8 $9 $3 $-1 $10 reversed single #
loop $-1 -1 $-1 $-1 $11 $4 #
plane-surface $-1 -1 $-1 8031.79757191538738 3935.64279798978896 14000.00000000000182 1 -3.637978807091713027e-15 0 0 0 -1 forward_v I I I I #
face $-1 -1 $-1 $-1 $12 $3 $-1 $13 forward single #
loop $-1 -1 $-1 $-1 $14 $5 #
plane-surface $-1 -1 $-1 7781.79757191538738 3935.642797989789869 14000.00000000000182 1 -3.637978807091713027e-15 0 0 0 -1 forward_v I I I I #
tcoedge-coedge $-1 -1 $-1 $11 $11 $15 $16 forward $6 $17 0 6.283185307179586232 #
loop $-1 -1 $-1 $-1 $18 $8 #
spline-surface $-1 -1 $-1 forward { exactsur full nubs 3 3 periodic open none none 102 2 
	0 3 0.001116071428571428509 1 0.002232142857142857019 1 0.004464285714285714038 1 0.008928571428571428076 1 
	0.01785714285714285615 1 0.0357142857142857123 1 0.05357142857142856845 1 0.07142857142857142461 1 0.08928571428571427382 1 
	0.1071428571428571369 1 0.1160714285714285754 1 0.125 1 0.1428571428571428492 1 0.1587301587301587213 1 
	0.1746031746031745935 1 0.1904761904761904656 1 0.2023809523809523836 1 0.2142857142857142738 1 0.226190476190476164 1 
	0.238095238095238082 1 0.2499999999999999722 1 0.2619047619047618625 1 0.2738095238095237804 1 0.2857142857142856984 1 
	0.2976190476190476164 1 0.3095238095238095344 1 0.3125 1 0.3154761904761904656 1 0.3214285714285713969 1 
	0.3273809523809523281 1 0.3333333333333333148 1 0.3452380952380952328 1 0.3571428571428570953 1 0.3630952380952380265 1 
	0.3690476190476190133 1 0.375 1 0.3809523809523809312 1 0.3839285714285713969 1 0.3869047619047618625 1 
	0.3898809523809523281 1 0.3928571428571428492 1 0.4047619047619047672 1 0.4166666666666666297 1 0.4285714285714285476 1 
	0.4444444444444444198 1 0.4603174603174602919 1 0.476190476190476164 1 0.4781746031746031411 1 0.4786706349206348854 1 
	0.4791666666666666297 1 0.4801587301587301182 1 0.4821428571428570953 1 0.4841269841269840724 1 0.4880952380952380265 1 
	0.4920634920634920362 1 0.5 1 0.5079365079365079083 1 0.5158730158730158166 1 0.5198412698412697708 1 
	0.5218253968253967479 1 0.5228174603174602364 1 0.5233134920634919807 1 0.5238095238095237249 1 0.5357142857142855874 1 
	0.5476190476190475609 1 0.5714285714285713969 1 0.5952380952380951218 1 0.6190476190476189577 1 0.6349206349206348854 1 
	0.650793650793650702 1 0.6666666666666666297 1 0.6785714285714286031 1 0.6904761904761904656 1 0.7023809523809523281 1 
	0.7142857142857141906 1 0.7321428571428569843 1 0.749999999999999889 1 0.7678571428571427937 1 0.7857142857142855874 1 
	0.7976190476190474499 1 0.8095238095238094234 1 0.8333333333333332593 1 0.8392857142857141906 1 0.8452380952380951218 1 
	0.8571428571428570953 1 0.875 1 0.8928571428571427937 1 0.9107142857142856984 1 0.9285714285714286031 1 
	0.9464285714285713969 1 0.9642857142857143016 1 0.9732142857142858094 1 0.9821428571428572063 1 0.9910714285714286031 1 
	0.9955357142857143016 1 0.9977678571428572063 1 0.9988839285714286031 1 0.9994419642857143016 1 0.9997209821428572063 1 
	0.9998604910714286031 1 1 3 
	0 3 1 3 
	7781.797571838704243 4435.642905067647916 13999.99989460048528 
	7781.797571838706062 4435.642905061026795 14001.16864187314786 
	7781.797571838758813 4435.634709656270388 14003.50613655645611 
	7781.797571838814292 4435.585533589543047 14008.18089553902792 
	7781.797571839050761 4435.413438904032773 14016.3605188918882 
	7781.797571839942066 4434.725083351310786 14032.71010130850118 
	7781.797571842805155 4431.973831218157102 14065.33211220191697 
	7781.797571852042893 4424.130798613976367 14111.49407970974062 
	7781.797571859502568 4408.575800519926815 14165.48634091572967 
	7781.797571867681654 4387.073505047484105 14217.39747963449008 
	7781.797571873926245 4359.894241772589339 14266.57480111876976 
	7781.797571880416399 4332.798672765224183 14304.76212422364006 
	7781.797571882144439 4308.659435034872331 14333.34799367440428 
	7781.797571883838827 4282.956058183562163 14360.53608096238895 
	7781.797571888602761 4249.594198847807093 14390.3500500571281 
	7781.797571892642736 4207.366029337234067 14420.7098529652958 
	7781.797571894773682 4164.126551646160806 14445.67404831899512 
	7781.797571896383488 4122.408898737475283 14464.49786294179103 
	7781.797571898408933 4083.157841046731846 14478.23210271944481 
	7781.797571900059665 4047.007064774799346 14487.91880988490266 
	7781.79757190080727 4010.233427578973533 14494.87665740048942 
	7781.797571902091477 3973.042680452742843 14499.0670742502698 
	7781.797571903290191 3935.64276489470285 14500.46647229165137 
	7781.797571904422512 3898.242855390035402 14499.06707137993362 
	7781.797571905456607 3861.052097040713761 14494.87668183294409 
	7781.797571906511621 3824.278484424169619 14487.91873623375977 
	7781.797571907332895 3788.127657036536675 14478.23216680084442 
	7781.797571908236932 3761.633274022469323 14468.96135853618398 
	7781.79757190834971 3744.289869206478215 14461.96669657228813 
	7781.797571908404279 3732.816801619674152 14457.08823852966452 
	7781.797571908595273 3718.650279563886215 14450.58948475308352 
	7781.797571908769896 3701.9539521647539 14442.16076514096676 
	7781.797571908969076 3680.127915812456649 14430.09801652854003 
	7781.797571909633916 3653.719899580028141 14413.50484908567523 
	7781.797571909845828 3628.625782112208981 14394.9845454533297 
	7781.797571910097759 3609.422946677823802 14379.07426733597276 
	7781.797571910209626 3595.477013823737707 14366.61145844370185 
	7781.797571910335137 3582.006856891011921 14353.63587995473245 
	7781.797571910447914 3571.19387762518636 14342.41074889409356 
	7781.797571910478837 3562.799864004592109 14333.19276702770185 
	7781.797571910507941 3556.634721223992528 14326.16277759489458 
	7781.797571910532497 3550.602118588334179 14319.01872758684294 
	7781.797571910571605 3538.806158199583933 14304.50755191019198 
	7781.79757191099452 3522.137789903480552 14281.92290060490086 
	7781.79757191110275 3502.226066723931126 14250.23325191758158 
	7781.797571911473824 3482.794660910263246 14213.46784425079022 
	7781.797571911803971 3465.016807951404644 14171.29384665696671 
	7781.797571911956766 3450.300302267627103 14123.58336308095204 
	7781.797571912312378 3443.292607469599261 14088.91852961683071 
	7781.797571912343301 3440.54663515053744 14069.8959288369515 
	7781.79757191234512 3440.125385531676784 14066.80786509951213 
	7781.79757191234421 3439.850972088547678 14064.74829037021664 
	7781.797571912342391 3439.387600345155988 14061.14181604638179 
	7781.79757191234512 3438.773833498426029 14055.98367061582576 
	7781.797571912346029 3437.894764559714076 14047.71903715987537 
	7781.797571912352396 3436.989246718577306 14037.36890154686625 
	7781.797571912358762 3435.953709332035942 14020.77771167619903 
	7781.797571912366038 3435.435521243685798 13999.99998632333882 
	7781.797571912366038 3436.057332773625149 13975.06671272790481 
	7781.797571912356943 3437.610522151544501 13954.34064210388351 
	7781.797571912346939 3439.239122274309921 13939.88656293177883 
	7781.797571912346939 3440.188351882288316 13932.6764325551685 
	7781.79757191234421 3440.696645645076842 13929.0760146641569 
	7781.79757191234512 3440.996715073517407 13927.02002145051665 
	7781.797571912322383 3442.988768735606754 13913.66219793736127 
	7781.79757191205681 3447.724520521611339 13888.63589801932903 
	7781.797571911673913 3460.638331938705051 13840.43423459262158 
	7781.797571911116393 3483.474475906787575 13782.24736670035782 
	7781.797571910255101 3520.979191313779666 13717.28705702385378 
	7781.79757190962664 3562.550806859171189 13665.15904541258351 
	7781.79757190834971 3604.25120013437936 13624.48770109777433 
	7781.797571907824022 3643.286675815736999 13593.3575720884437 
	7781.797571907176462 3681.732974813685814 13568.52644754572248 
	7781.797571906277881 3718.498573899442817 13549.09553664038322 
	7781.797571905940458 3752.801829349925811 13534.12896127319254 
	7781.797571904934557 3788.127727073365349 13521.76816316296572 
	7781.797571903942298 3830.30355537994501 13510.46665726370156 
	7781.797571903022799 3879.542888908413715 13502.10031977973995 
	7781.797571901694937 3935.642740858188517 13498.94997047682409 
	7781.797571900277035 3991.742530413404438 13502.10040400447724 
	7781.797571898694514 4040.981956798309056 13510.46664786035581 
	7781.797571897651324 4083.157646271651174 13521.76837475962748 
	7781.797571897226589 4130.259246599917788 13538.24872469954425 
	7781.797571894487191 4169.681828087155736 13557.23243683694818 
	7781.797571893671375 4201.720937697049521 13576.53901988130201 
	7781.797571893275745 4222.584548071676181 13590.19895176409409 
	7781.797571891577718 4252.69766729400726 13612.42314905899184 
	7781.79757188815347 4289.938981601357227 13645.70364465326747 
	7781.797571883685123 4327.379739270258142 13687.60009413222906 
	7781.797571879900715 4359.894205246130696 13733.42501858205105 
	7781.797571872990375 4387.073640581726067 13782.60221863857259 
	7781.797571861555298 4408.575953616138577 13834.51342928879239 
	7781.797571850671375 4421.538115925180136 13879.50702337062648 
	7781.797571846866958 4428.836979502319082 13916.20284127264858 
	7781.797571843710102 4432.759755541251252 13943.98826240285598 
	7781.79757184022219 4434.725129820015354 13967.28968227457153 
	7781.797571839140801 4435.413431857607975 13983.63927088624223 
	7781.797571838814292 4435.585535125439492 13991.81889352925828 
	7781.797571838735166 4435.628562443732335 13995.90930784989723 
	7781.797571838713338 4435.639319415165119 13997.95459046854739 
	7781.797571838707881 4435.642008654611345 13998.97724118770748 
	7781.797571838705153 4435.642777017138542 13999.56161437539413 
	7781.797571838705153 4435.642905068475557 13999.85380119140245 
	7781.797571838704243 4435.642905067647916 13999.99989460048528 
	7865.130905172037274 4435.642905067647007 13999.99989460048528 
	7865.130905172039093 4435.642905061025886 14001.16864187314786 
	7865.130905172091843 4435.634709656269479 14003.50613655645611 
	7865.130905172147322 4435.585533589542138 14008.18089553902792 
	7865.130905172383791 4435.413438904031864 14016.3605188918882 
	7865.130905173275096 4434.725083351309877 14032.71010130850118 
	7865.130905176138185 4431.973831218156192 14065.33211220191697 
	7865.130905185375923 4424.130798613975458 14111.49407970974062 
	7865.130905192835598 4408.575800519925906 14165.48634091572967 
	7865.130905201014684 4387.073505047483195 14217.39747963449008 
	7865.130905207259275 4359.89424177258843 14266.57480111876976 
	7865.130905213749429 4332.798672765223273 14304.76212422364006 
	7865.130905215477469 4308.659435034871422 14333.34799367440428 
	7865.130905217171858 4282.956058183561254 14360.53608096238895 
	7865.130905221935791 4249.594198847806183 14390.3500500571281 
	7865.130905225975766 4207.366029337233158 14420.7098529652958 
	7865.130905228106712 4164.126551646159896 14445.67404831899512 
	7865.130905229716518 4122.408898737474374 14464.49786294179103 
	7865.130905231741963 4083.157841046731392 14478.23210271944481 
	7865.130905233392696 4047.007064774798891 14487.91880988490266 
	7865.1309052341403 4010.233427578973078 14494.87665740048942 
	7865.130905235424507 3973.042680452742388 14499.0670742502698 
	7865.130905236623221 3935.642764894702395 14500.46647229165137 
	7865.130905237755542 3898.242855390034947 14499.06707137993362 
	7865.130905238789637 3861.052097040713306 14494.87668183294409 
	7865.130905239844651 3824.278484424169164 14487.91873623375977 
	7865.130905240665925 3788.12765703653622 14478.23216680084442 
	7865.130905241569963 3761.633274022468868 14468.96135853618398 
	7865.13090524168274 3744.289869206477761 14461.96669657228813 
	7865.13090524173731 3732.816801619673697 14457.08823852966452 
	7865.130905241928303 3718.650279563885761 14450.58948475308352 
	7865.130905242102926 3701.953952164753446 14442.16076514096676 
	7865.130905242302106 3680.127915812456195 14430.09801652854003 
	7865.130905242966946 3653.719899580027686 14413.50484908567523 
	7865.130905243178859 3628.625782112208526 14394.9845454533297 
	7865.130905243430789 3609.422946677823347 14379.07426733597276 
	7865.130905243542657 3595.477013823737252 14366.61145844370185 
	7865.130905243668167 3582.006856891011466 14353.63587995473245 
	7865.130905243780944 3571.193877625185905 14342.41074889409356 
	7865.130905243811867 3562.799864004591655 14333.19276702770185 
	7865.130905243840971 3556.634721223992074 14326.16277759489458 
	7865.130905243865527 3550.602118588333724 14319.01872758684294 
	7865.130905243904635 3538.806158199583479 14304.50755191019198 
	7865.13090524432755 3522.137789903480098 14281.92290060490086 
	7865.13090524443578 3502.226066723930671 14250.23325191758158 
	7865.130905244806854 3482.794660910262792 14213.46784425079022 
	7865.130905245137001 3465.016807951404189 14171.29384665696671 
	7865.130905245289796 3450.300302267626648 14123.58336308095204 
	7865.130905245645408 3443.292607469598806 14088.91852961683071 
	7865.130905245676331 3440.546635150536986 14069.8959288369515 
	7865.13090524567815 3440.125385531676329 14066.80786509951213 
	7865.130905245677241 3439.850972088547223 14064.74829037021664 
	7865.130905245675422 3439.387600345155533 14061.14181604638179 
	7865.13090524567815 3438.773833498425574 14055.98367061582576 
	7865.13090524567906 3437.894764559713622 14047.71903715987537 
	7865.130905245685426 3436.989246718576851 14037.36890154686625 
	7865.130905245691793 3435.953709332035487 14020.77771167619903 
	7865.130905245699068 3435.435521243685344 13999.99998632333882 
	7865.130905245699068 3436.057332773624694 13975.06671272790481 
	7865.130905245689974 3437.610522151544046 13954.34064210388351 
	7865.130905245679969 3439.239122274309466 13939.88656293177883 
	7865.130905245679969 3440.188351882287861 13932.6764325551685 
	7865.130905245677241 3440.696645645076387 13929.0760146641569 
	7865.13090524567815 3440.996715073516953 13927.02002145051665 
	7865.130905245655413 3442.9887687356063 13913.66219793736127 
	7865.13090524538984 3447.724520521610884 13888.63589801932903 
	7865.130905245006943 3460.638331938704596 13840.43423459262158 
	7865.130905244449423 3483.47447590678712 13782.24736670035782 
	7865.130905243588131 3520.979191313779211 13717.28705702385378 
	7865.13090524295967 3562.550806859170734 13665.15904541258351 
	7865.13090524168274 3604.251200134378905 13624.48770109777433 
	7865.130905241157052 3643.286675815736544 13593.3575720884437 
	7865.130905240509492 3681.73297481368536 13568.52644754572248 
	7865.130905239610911 3718.498573899442363 13549.09553664038322 
	7865.130905239273488 3752.801829349925356 13534.12896127319254 
	7865.130905238267587 3788.127727073364895 13521.76816316296572 
	7865.130905237275329 3830.303555379944555 13510.46665726370156 
	7865.130905236355829 3879.542888908413261 13502.10031977973995 
	7865.130905235027967 3935.642740858188063 13498.94997047682409 
	7865.130905233610065 3991.742530413403983 13502.10040400447724 
	7865.130905232027544 4040.981956798308602 13510.46664786035581 
	7865.130905230984354 4083.157646271650719 13521.76837475962748 
	7865.13090523055962 4130.259246599916878 13538.24872469954425 
	7865.130905227820222 4169.681828087154827 13557.23243683694818 
	7865.130905227004405 4201.720937697048612 13576.53901988130201 
	7865.130905226608775 4222.584548071675272 13590.19895176409409 
	7865.130905224910748 4252.697667294006351 13612.42314905899184 
	7865.130905221486501 4289.938981601356318 13645.70364465326747 
	7865.130905217018153 4327.379739270257232 13687.60009413222906 
	7865.130905213233746 4359.894205246129786 13733.42501858205105 
	7865.130905206323405 4387.073640581725158 13782.60221863857259 
	7865.130905194888328 4408.575953616137667 13834.51342928879239 
	7865.130905184004405 4421.538115925179227 13879.50702337062648 
	7865.130905180199989 4428.836979502318172 13916.20284127264858 
	7865.130905177043132 4432.759755541250343 13943.98826240285598 
	7865.13090517355522 4434.725129820014445 13967.28968227457153 
	7865.130905172473831 4435.413431857607065 13983.63927088624223 
	7865.130905172147322 4435.585535125438582 13991.81889352925828 
	7865.130905172068196 4435.628562443731425 13995.90930784989723 
	7865.130905172046369 4435.639319415164209 13997.95459046854739 
	7865.130905172040912 4435.642008654610436 13998.97724118770748 
	7865.130905172038183 4435.642777017137632 13999.56161437539413 
	7865.130905172038183 4435.642905068474647 13999.85380119140245 
	7865.130905172037274 4435.642905067647007 13999.99989460048528 
	7948.464238502908302 4435.642905067647916 13999.99989460048528 
	7948.464238502909211 4435.642905061026795 14001.16864187314786 
	7948.464238502962871 4435.634709656270388 14003.50613655645611 
	7948.464238503020169 4435.585533589543047 14008.18089553902792 
	7948.464238503265733 4435.413438904032773 14016.3605188918882 
	7948.464238504184323 4434.725083351310786 14032.71010130850118 
	7948.464238507139271 4431.973831218157102 14065.33211220191697 
	7948.464238516669866 4424.130798613976367 14111.49407970974062 
	7948.464238524372377 4408.575800519926815 14165.48634091572967 
	7948.464238532814306 4387.073505047484105 14217.39747963449008 
	7948.464238539259895 4359.894241772589339 14266.57480111876976 
	7948.464238545958324 4332.798672765224183 14304.76212422364006 
	7948.464238547742752 4308.659435034872331 14333.34799367440428 
	7948.464238549491711 4282.956058183562163 14360.53608096238895 
	7948.464238554409349 4249.594198847807093 14390.3500500571281 
	7948.464238558579382 4207.366029337234067 14420.7098529652958 
	7948.46423856077854 4164.126551646160806 14445.67404831899512 
	7948.464238562440187 4122.408898737475283 14464.49786294179103 
	7948.464238564530206 4083.157841046732301 14478.23210271944481 
	7948.464238566234599 4047.007064774799801 14487.91880988490266 
	7948.46423856700676 4010.233427578973988 14494.87665740048942 
	7948.464238568331893 3973.042680452743298 14499.0670742502698 
	7948.464238569569716 3935.642764894703305 14500.46647229165137 
	7948.464238570737507 3898.242855390035857 14499.06707137993362 
	7948.464238571805254 3861.052097040714216 14494.87668183294409 
	7948.464238572894828 3824.278484424170074 14487.91873623375977 
	7948.464238573741568 3788.12765703653713 14478.23216680084442 
	7948.4642385746738 3761.633274022469777 14468.96135853618398 
	7948.464238574790215 3744.28986920647867 14461.96669657228813 
	7948.464238574847514 3732.816801619674607 14457.08823852966452 
	7948.464238575044874 3718.65027956388667 14450.58948475308352 
	7948.464238575224954 3701.953952164754355 14442.16076514096676 
	7948.46423857542959 3680.127915812457104 14430.09801652854003 
	7948.464238576117168 3653.719899580028596 14413.50484908567523 
	7948.464238576336356 3628.625782112209436 14394.9845454533297 
	7948.464238576595562 3609.422946677824257 14379.07426733597276 
	7948.464238576711978 3595.477013823738162 14366.61145844370185 
	7948.464238576840216 3582.006856891012376 14353.63587995473245 
	7948.464238576957541 3571.193877625186815 14342.41074889409356 
	7948.464238576988464 3562.799864004592564 14333.19276702770185 
	7948.464238577017568 3556.634721223992983 14326.16277759489458 
	7948.464238577043034 3550.602118588334633 14319.01872758684294 
	7948.464238577083051 3538.806158199584388 14304.50755191019198 
	7948.464238577520518 3522.137789903481007 14281.92290060490086 
	7948.464238577630567 3502.226066723931581 14250.23325191758158 
	7948.464238578013465 3482.794660910263701 14213.46784425079022 
	7948.464238578353616 3465.016807951405099 14171.29384665696671 
	7948.464238578510958 3450.300302267627558 14123.58336308095204 
	7948.464238578878394 3443.292607469599716 14088.91852961683071 
	7948.464238578910226 3440.546635150537895 14069.8959288369515 
	7948.464238578912045 3440.125385531677239 14066.80786509951213 
	7948.464238578911136 3439.850972088548133 14064.74829037021664 
	7948.464238578910226 3439.387600345156443 14061.14181604638179 
	7948.464238578912955 3438.773833498426484 14055.98367061582576 
	7948.464238578913864 3437.894764559714531 14047.71903715987537 
	7948.464238578920231 3436.98924671857776 14037.36890154686625 
	7948.464238578926597 3435.953709332036397 14020.77771167619903 
	7948.464238578936602 3435.435521243686253 13999.99998632333882 
	7948.464238578934783 3436.057332773625603 13975.06671272790481 
	7948.464238578925688 3437.610522151544956 13954.34064210388351 
	7948.464238578914774 3439.239122274310375 13939.88656293177883 
	7948.464238578915683 3440.188351882288771 13932.6764325551685 
	7948.464238578912955 3440.696645645077297 13929.0760146641569 
	7948.464238578912955 3440.996715073517862 13927.02002145051665 
	7948.464238578889308 3442.988768735607209 13913.66219793736127 
	7948.46423857861555 3447.724520521611794 13888.63589801932903 
	7948.464238578217191 3460.638331938705505 13840.43423459262158 
	7948.464238577645119 3483.47447590678712 13782.24736670035782 
	7948.464238576754724 3520.979191313779666 13717.28705702385378 
	7948.464238576107164 3562.550806859170279 13665.15904541258351 
	7948.464238574790215 3604.25120013437845 13624.48770109777433 
	7948.464238574247247 3643.286675815736089 13593.3575720884437 
	7948.464238573579678 3681.732974813684905 13568.52644754572248 
	7948.464238572651993 3718.498573899442363 13549.09553664038322 
	7948.464238572303657 3752.801829349925356 13534.12896127319254 
	7948.464238571265923 3788.127727073364895 13521.76816316296572 
	7948.464238570242742 3830.30355537994501 13510.46665726370156 
	7948.464238569293229 3879.542888908413715 13502.10031977973995 
	7948.46423856792353 3935.642740858188972 13498.94997047682409 
	7948.464238566460153 3991.742530413404893 13502.10040400447724 
	7948.46423856482852 4040.981956798309511 13510.46664786035581 
	7948.464238563749859 4083.157646271651629 13521.76837475962748 
	7948.464238563312392 4130.259246599917788 13538.24872469954425 
	7948.464238560485683 4169.681828087155736 13557.23243683694818 
	7948.464238559643491 4201.720937697049521 13576.53901988130201 
	7948.464238559236037 4222.584548071676181 13590.19895176409409 
	7948.464238557481622 4252.69766729400726 13612.42314905899184 
	7948.464238553948235 4289.938981601357227 13645.70364465326747 
	7948.464238549336187 4327.379739270258142 13687.60009413222906 
	7948.464238545431726 4359.894205246130696 13733.42501858205105 
	7948.464238538298559 4387.073640581726067 13782.60221863857259 
	7948.464238526496956 4408.575953616138577 13834.51342928879239 
	7948.464238515263787 4421.538115925180136 13879.50702337062648 
	7948.464238511336589 4428.836979502319082 13916.20284127264858 
	7948.464238508077869 4432.759755541251252 13943.98826240285598 
	7948.464238504478089 4434.725129820015354 13967.28968227457153 
	7948.46423850336032 4435.413431857607975 13983.63927088624223 
	7948.464238503024717 4435.585535125439492 13991.81889352925828 
	7948.464238502941043 4435.628562443732335 13995.90930784989723 
	7948.464238502918306 4435.639319415165119 13997.95459046854739 
	7948.46423850291194 4435.642008654611345 13998.97724118770748 
	7948.464238502909211 4435.642777017138542 13999.56161437539413 
	7948.464238502907392 4435.642905068475557 13999.85380119140245 
	7948.464238502908302 4435.642905067647916 13999.99989460048528 
	8031.797571836241332 4435.642905067647916 13999.99989460048528 
	8031.797571836242241 4435.642905061026795 14001.16864187314786 
	8031.797571836295901 4435.634709656270388 14003.50613655645611 
	8031.7975718363532 4435.585533589543047 14008.18089553902792 
	8031.797571836598763 4435.413438904032773 14016.3605188918882 
	8031.797571837517353 4434.725083351310786 14032.71010130850118 
	8031.797571840472301 4431.973831218157102 14065.33211220191697 
	8031.797571850002896 4424.130798613976367 14111.49407970974062 
	8031.797571857705407 4408.575800519926815 14165.48634091572967 
	8031.797571866147337 4387.073505047484105 14217.39747963449008 
	8031.797571872592926 4359.894241772589339 14266.57480111876976 
	8031.797571879291354 4332.798672765224183 14304.76212422364006 
	8031.797571881075783 4308.659435034872331 14333.34799367440428 
	8031.797571882824741 4282.956058183562163 14360.53608096238895 
	8031.797571887742379 4249.594198847807093 14390.3500500571281 
	8031.797571891912412 4207.366029337234067 14420.7098529652958 
	8031.79757189411157 4164.126551646160806 14445.67404831899512 
	8031.797571895773217 4122.408898737475283 14464.49786294179103 
	8031.797571897863236 4083.157841046731846 14478.23210271944481 
	8031.797571899567629 4047.007064774799346 14487.91880988490266 
	8031.79757190033979 4010.233427578973533 14494.87665740048942 
	8031.797571901664924 3973.042680452742843 14499.0670742502698 
	8031.797571902902746 3935.64276489470285 14500.46647229165137 
	8031.797571904070537 3898.242855390035402 14499.06707137993362 
	8031.797571905138284 3861.052097040713761 14494.87668183294409 
	8031.797571906227859 3824.278484424169619 14487.91873623375977 
	8031.797571907074598 3788.127657036536675 14478.23216680084442 
	8031.79757190800683 3761.633274022469323 14468.96135853618398 
	8031.797571908123246 3744.289869206478215 14461.96669657228813 
	8031.797571908180544 3732.816801619674152 14457.08823852966452 
	8031.797571908377904 3718.650279563886215 14450.58948475308352 
	8031.797571908557984 3701.9539521647539 14442.16076514096676 
	8031.79757190876262 3680.127915812456649 14430.09801652854003 
	8031.797571909450198 3653.719899580028141 14413.50484908567523 
	8031.797571909669387 3628.625782112208981 14394.9845454533297 
	8031.797571909928593 3609.422946677823802 14379.07426733597276 
	8031.797571910045008 3595.477013823737707 14366.61145844370185 
	8031.797571910173247 3582.006856891011921 14353.63587995473245 
	8031.797571910290571 3571.19387762518636 14342.41074889409356 
	8031.797571910321494 3562.799864004592109 14333.19276702770185 
	8031.797571910350598 3556.634721223992528 14326.16277759489458 
	8031.797571910376064 3550.602118588334179 14319.01872758684294 
	8031.797571910416082 3538.806158199583933 14304.50755191019198 
	8031.797571910853549 3522.137789903480552 14281.92290060490086 
	8031.797571910963597 3502.226066723931126 14250.23325191758158 
	8031.797571911346495 3482.794660910263246 14213.46784425079022 
	8031.797571911686646 3465.016807951404644 14171.29384665696671 
	8031.797571911843988 3450.300302267627103 14123.58336308095204 
	8031.797571912211424 3443.292607469599261 14088.91852961683071 
	8031.797571912243257 3440.54663515053744 14069.8959288369515 
	8031.797571912245076 3440.125385531676784 14066.80786509951213 
	8031.797571912244166 3439.850972088547678 14064.74829037021664 
	8031.797571912243257 3439.387600345155988 14061.14181604638179 
	8031.797571912245985 3438.773833498426029 14055.98367061582576 
	8031.797571912246894 3437.894764559714076 14047.71903715987537 
	8031.797571912253261 3436.989246718577306 14037.36890154686625 
	8031.797571912259627 3435.953709332035942 14020.77771167619903 
	8031.797571912269632 3435.435521243685798 13999.99998632333882 
	8031.797571912267813 3436.057332773625149 13975.06671272790481 
	8031.797571912258718 3437.610522151544501 13954.34064210388351 
	8031.797571912247804 3439.239122274309921 13939.88656293177883 
	8031.797571912248713 3440.188351882288316 13932.6764325551685 
	8031.797571912245985 3440.696645645076842 13929.0760146641569 
	8031.797571912245985 3440.996715073517407 13927.02002145051665 
	8031.797571912222338 3442.988768735606754 13913.66219793736127 
	8031.79757191194858 3447.724520521611339 13888.63589801932903 
	8031.797571911550222 3460.638331938705051 13840.43423459262158 
	8031.797571910978149 3483.474475906786665 13782.24736670035782 
	8031.797571910087754 3520.979191313779211 13717.28705702385378 
	8031.797571909440194 3562.550806859169825 13665.15904541258351 
	8031.797571908123246 3604.251200134377996 13624.48770109777433 
	8031.797571907580277 3643.286675815735634 13593.3575720884437 
	8031.797571906912708 3681.73297481368445 13568.52644754572248 
	8031.797571905985023 3718.498573899441908 13549.09553664038322 
	8031.797571905636687 3752.801829349924901 13534.12896127319254 
	8031.797571904598954 3788.12772707336444 13521.76816316296572 
	8031.797571903575772 3830.303555379944555 13510.46665726370156 
	8031.79757190262626 3879.542888908413261 13502.10031977973995 
	8031.797571901256561 3935.642740858188517 13498.94997047682409 
	8031.797571899793184 3991.742530413404438 13502.10040400447724 
	8031.79757189816155 4040.981956798309056 13510.46664786035581 
	8031.797571897082889 4083.157646271651174 13521.76837475962748 
	8031.797571896645422 4130.259246599917788 13538.24872469954425 
	8031.797571893818713 4169.681828087155736 13557.23243683694818 
	8031.797571892976521 4201.720937697049521 13576.53901988130201 
	8031.797571892569067 4222.584548071676181 13590.19895176409409 
	8031.797571890814652 4252.69766729400726 13612.42314905899184 
	8031.797571887281265 4289.938981601357227 13645.70364465326747 
	8031.797571882669217 4327.379739270258142 13687.60009413222906 
	8031.797571878764757 4359.894205246130696 13733.42501858205105 
	8031.79757187163159 4387.073640581726067 13782.60221863857259 
	8031.797571859829986 4408.575953616138577 13834.51342928879239 
	8031.797571848596817 4421.538115925180136 13879.50702337062648 
	8031.797571844669619 4428.836979502319082 13916.20284127264858 
	8031.7975718414109 4432.759755541251252 13943.98826240285598 
	8031.79757183781112 4434.725129820015354 13967.28968227457153 
	8031.797571836693351 4435.413431857607975 13983.63927088624223 
	8031.797571836357747 4435.585535125439492 13991.81889352925828 
	8031.797571836274074 4435.628562443732335 13995.90930784989723 
	8031.797571836251336 4435.639319415165119 13997.95459046854739 
	8031.79757183624497 4435.642008654611345 13998.97724118770748 
	8031.797571836242241 4435.642777017138542 13999.56161437539413 
	8031.797571836240422 4435.642905068475557 13999.85380119140245 
	8031.797571836241332 4435.642905067647916 13999.99989460048528 
	0 
	
	0 
	0 
	99 0 0.001116071428571428509 0.002232142857142857019 0.004464285714285714038 0.008928571428571428076 0.01785714285714285615 0.0357142857142857123 0.05357142857142856845 0.07142857142857142461 0.08928571428571427382 0.1071428571428571369 0.1160714285714285754 0.125 0.1428571428571428492 0.1587301587301587213 0.1746031746031745935 0.1904761904761904656 0.2023809523809523836 0.2142857142857142738 0.226190476190476164 0.238095238095238082 0.2499999999999999722 0.2619047619047618625 0.2738095238095237804 0.2857142857142856984 0.2976190476190476164 0.3095238095238095344 0.3125 0.3154761904761904656 0.3214285714285713969 0.3273809523809523281 0.3333333333333333148 0.3452380952380952328 0.3571428571428570953 0.3630952380952380265 0.3690476190476190133 0.375 0.3809523809523809312 0.3839285714285713969 0.3869047619047618625 0.3898809523809523281 0.3928571428571428492 0.4047619047619047672 0.4166666666666666297 0.4285714285714285476 0.4444444444444444198 0.4603174603174602919 0.476190476190476164 0.4781746031746031411 0.4786706349206348854 0.4791666666666666297 0.4801587301587301182 0.4841269841269840724 0.4880952380952380265 0.4920634920634920362 0.5 0.5079365079365079083 0.5158730158730158166 0.5198412698412697708 0.5218253968253967479 0.5228174603174602364 0.5233134920634919807 0.5238095238095237249 0.5357142857142855874 0.5476190476190475609 0.5714285714285713969 0.5952380952380951218 0.6190476190476189577 0.6349206349206348854 0.650793650793650702 0.6666666666666666297 0.6785714285714286031 0.6904761904761904656 0.7023809523809523281 0.7142857142857141906 0.7321428571428569843 0.749999999999999889 0.7678571428571427937 0.7857142857142855874 0.7976190476190474499 0.8095238095238094234 0.8333333333333332593 0.8392857142857141906 0.8452380952380951218 0.8571428571428570953 0.875 0.8928571428571427937 0.9107142857142856984 0.9285714285714286031 0.9464285714285713969 0.9642857142857143016 0.9732142857142858094 0.9821428571428572063 0.9910714285714286031 0.9955357142857143016 0.9977678571428572063 0.9994419642857143016 0.9997209821428572063 0.9998604910714286031 
	0 
	0 
	0 
	F 1 F 0 F 1 F 0 } I I I I #
tcoedge-coedge $-1 -1 $-1 $14 $14 $18 $19 reversed $9 $20 -6.283185307179586232 -0 #
tcoedge-coedge $-1 -1 $-1 $21 $22 $11 $16 reversed $12 $23 -6.283185307179586232 -0 #
tedge-edge $-1 -1 $-1 $24 0 $24 6.283185307179586232 $15 $25 forward @7 unknown 0.0007283625010257973242 #
pcurve $-1 -1 $-1 0 forward { exppc nurbs 2 periodic 5 
	0 2 1.570796326794896558 2 3.141592653589793116 2 4.712388980384689674 2 6.283185307179586232 2 
	0 500 1 
	-500 500 0.707106781186543798 
	-500 0 1 
	-500 -500 0.7071067811865463515 
	0 -500 1 
	500 -500 0.7071067811865463515 
	500 0 1 
	500 500 0.707106781186543798 
	0 500 1 
	0 
	plane 8031.79757191538738 3935.64279798978896 14000.00000000000182 1 -3.637978807091713027e-15 0 0 0 -1 forward_v I I I I 
	} 0 0 #
tcoedge-coedge $-1 -1 $-1 $22 $21 $14 $19 forward $12 $26 0 6.283185307179586232 #
tedge-edge $-1 -1 $-1 $27 0 $27 6.283185307179586232 $18 $28 forward @7 unknown 0.0007283624985904304204 #
pcurve $-1 -1 $-1 0 forward { exppc nurbs 2 periodic 5 
	-6.283185307179586232 2 -4.712388980384689674 2 -3.141592653589793116 2 -1.570796326794896558 2 0 2 
	0 500 1 
	500 500 0.707106781186543798 
	500 0 1 
	500 -500 0.7071067811865463515 
	0 -500 1 
	-500 -500 0.7071067811865463515 
	-500 0 1 
	-500 500 0.707106781186543798 
	0 500 1 
	0 
	plane 7781.79757191538738 3935.642797989789869 14000.00000000000182 -1 3.637978807091713027e-15 -0 0 0 -1 reverse_v I I I I 
	} 0 0 #
coedge $-1 -1 $-1 $18 $15 $22 $29 reversed $12 $30 #
coedge $-1 -1 $-1 $15 $18 $21 $29 forward $12 $31 #
pcurve $-1 -1 $-1 0 forward { exppc nubs 1 periodic 2 
	-6.283185307179586232 1 -0 1 
	1 1 
	0 1 
	0 
	spline forward { ref 0 } I I I I 
	} 0 0 #
tvertex-vertex $-1 -1 $-1 $16 $32 0.0001502489109290715556 #
ellipse-curve $-1 -1 $-1 8031.79757191538738 3935.64279798978896 14000.00000000000182 1 -3.637978807091713027e-15 0 1.818989403545856476e-12 500 0 1 I I #
pcurve $-1 -1 $-1 0 forward { exppc nubs 1 periodic 2 
	0 1 6.283185307179586232 1 
	0 0 
	1 0 
	2.726396620975368931e-13 
	spline forward { ref 0 } I I I I 
	} 0 0 #
tvertex-vertex $-1 -1 $-1 $19 $33 0.000150248909003679879 #
ellipse-curve $-1 -1 $-1 7781.79757191538738 3935.642797989789869 14000.00000000000182 1 -3.637978807091713027e-15 0 1.818989403545856476e-12 500 0 1 I I #
edge $-1 -1 $-1 $27 3.067398204472629597e-10 $24 1 $22 $34 forward @7 tangent #
pcurve $-1 -1 $-1 -1 $34 0 0 #
pcurve $-1 -1 $-1 1 $34 1 0 #
point $-1 -1 $-1 8031.797571915389199 4435.64279798978896 14000.00000000000182 #
point $-1 -1 $-1 7781.797571915389199 4435.642797989789869 14000.00000000000182 #
intcurve-curve $-1 -1 $-1 forward { parcur full nubs 3 open 2 
	0 3 1 3 
	7781.797571838704243 4435.642905067647916 13999.99989460048528 
	7865.130905172037274 4435.642905067647007 13999.99989460048528 
	7948.464238502908302 4435.642905067647916 13999.99989460048528 
	8031.797571836241332 4435.642905067647916 13999.99989460048528 
	0 
	
	spline forward { ref 0 } I I I I 
	null_surface 
	nubs 1 open 2 
	0 1 1 1 
	0 0 
	0 1 
	
	nullbs 
	I I 
	0 
	0 
	0 
	surf1 } F 3.067398204472629597e-10 F 1 #
End-of-ACIS-data 