700 0 1 0           
4 LibG 20 ASM 224.0.1.65535 NT 24 Wed Jul 17 14:48:15 2019 
1000 9.999999999999999547e-07 1.000000000000000036e-10 
body $-1 -1 $-1 $1 $-1 $2 #
lump $-1 -1 $-1 $-1 $3 $0 #
transform $-1 -1 1 0 0 0 1 0 0 0 1 0 0 0 1 no_rotate no_reflect no_shear #
shell $-1 -1 $-1 $-1 $-1 $4 $-1 $1 #
face $-1 -1 $-1 $5 $6 $3 $-1 $7 forward single #
face $-1 -1 $-1 $8 $9 $3 $-1 $10 reversed single #
loop $-1 -1 $-1 $-1 $11 $4 #
plane-surface $-1 -1 $-1 12281.79757191538738 3935.642797989773499 14000.00000000000182 1 -3.637978807091713027e-15 0 0 0 -1 forward_v I I I I #
face $-1 -1 $-1 $-1 $12 $3 $-1 $13 forward single #
loop $-1 -1 $-1 $-1 $14 $5 #
plane-surface $-1 -1 $-1 12031.79757191538738 3935.642797989774408 14000.00000000000182 1 -3.637978807091713027e-15 0 0 0 -1 forward_v I I I I #
tcoedge-coedge $-1 -1 $-1 $11 $11 $15 $16 forward $6 $17 0 6.283185307179586232 #
loop $-1 -1 $-1 $-1 $18 $8 #
spline-surface $-1 -1 $-1 forward { exactsur full nubs 3 3 periodic open none none 86 2 
	0 3 0.001116071428571428509 1 0.002232142857142857019 1 0.004464285714285714038 1 0.008928571428571428076 1 
	0.01785714285714285615 1 0.0357142857142857123 1 0.05357142857142856845 1 0.07142857142857142461 1 0.08928571428571427382 1 
	0.1071428571428571369 1 0.1160714285714285754 1 0.125 1 0.1428571428571428492 1 0.1587301587301587213 1 
	0.1746031746031745935 1 0.1904761904761904656 1 0.2023809523809523836 1 0.2142857142857142738 1 0.238095238095238082 1 
	0.2619047619047618625 1 0.2738095238095237804 1 0.2857142857142856984 1 0.2916666666666666297 1 0.2976190476190476164 1 
	0.3095238095238095344 1 0.3214285714285713969 1 0.3333333333333333148 1 0.3452380952380952328 1 0.3571428571428570953 1 
	0.3630952380952380265 1 0.3690476190476190133 1 0.3809523809523809312 1 0.3928571428571428492 1 0.4047619047619047672 1 
	0.4166666666666666297 1 0.4285714285714285476 1 0.4444444444444444198 1 0.4603174603174602919 1 0.476190476190476164 1 
	0.4841269841269840724 1 0.4880952380952380265 1 0.4920634920634920362 1 0.5 1 0.5158730158730158166 1 
	0.5238095238095237249 1 0.5357142857142855874 1 0.5416666666666665186 1 0.5476190476190475609 1 0.5714285714285713969 1 
	0.5952380952380951218 1 0.6190476190476189577 1 0.6349206349206348854 1 0.650793650793650702 1 0.6666666666666666297 1 
	0.6785714285714286031 1 0.6904761904761904656 1 0.7023809523809523281 1 0.7142857142857141906 1 0.7321428571428569843 1 
	0.749999999999999889 1 0.7678571428571427937 1 0.7857142857142855874 1 0.7976190476190474499 1 0.8095238095238094234 1 
	0.8333333333333332593 1 0.8392857142857141906 1 0.8452380952380951218 1 0.8571428571428570953 1 0.875 1 
	0.8928571428571427937 1 0.9107142857142856984 1 0.9285714285714286031 1 0.9375 1 0.9464285714285713969 1 
	0.9642857142857143016 1 0.9732142857142858094 1 0.9821428571428572063 1 0.9910714285714286031 1 0.9955357142857143016 1 
	0.9977678571428572063 1 0.9988839285714286031 1 0.9994419642857143016 1 0.9997209821428572063 1 0.9998604910714286031 1 
	1 3 
	0 3 1 3 
	12031.79757220599095 4435.642938236323971 13999.9998242083293 
	12031.79757220598367 4435.642938224642421 14001.16857147684823 
	12031.79757220577267 4435.634742761331836 14003.50606611573312 
	12031.79757220556166 4435.585566602127983 14008.180825022926 
	12031.7975722046267 4435.413471684856631 14016.36044816735557 
	12031.79757220109968 4434.725114276227941 14032.710028985588 
	12031.79757218934537 4431.973860217032779 14065.33203743514423 
	12031.79757215164136 4424.130800265918879 14111.49398057433791 
	12031.79757211859578 4408.575811298115696 14165.48624313806067 
	12031.79757208586125 4387.073447016789942 14217.39732526745138 
	12031.79757205119313 4359.894268315631962 14266.57470078872757 
	12031.79757204332236 4332.79877732505247 14304.76206094251575 
	12031.79757203365079 4308.659380869959023 14333.34779627111857 
	12031.79757202443943 4282.956144170781045 14360.53602837487597 
	12031.79757201892971 4249.594229124942103 14390.34989984413733 
	12031.79757199574124 4207.366009189325268 14420.7096825316894 
	12031.79757199368032 4164.126575521097948 14445.67389036692475 
	12031.79757198895459 4122.408906235296854 14464.49775558319379 
	12031.79757198534389 4083.157771707263691 14478.23162499664977 
	12031.79757198035622 4034.957010377073402 14491.14840104709037 
	12031.79757197568142 3973.147651025414689 14500.4664476732105 
	12031.79757196522223 3910.639732203478616 14500.4648485739599 
	12031.79757196414175 3861.052168355602134 14494.87663374875956 
	12031.79757196007267 3830.407443809760935 14489.07870264694793 
	12031.79757195921957 3806.203091175762438 14483.07571674037899 
	12031.7975719582555 3782.240052789451966 14476.17221250696275 
	12031.7975719554106 3752.801824587742885 14465.87133244522738 
	12031.79757195301499 3718.49848525576499 14450.90492318158613 
	12031.79757195047023 3685.409502103399063 14433.41687485666625 
	12031.79757194820922 3653.719919002230654 14413.50499054322609 
	12031.79757194730519 3628.625778843152602 14394.98471285126288 
	12031.79757194650119 3609.422958739214209 14379.07440891669648 
	12031.79757194606827 3590.828339270119159 14362.45737137183824 
	12031.79757194452941 3568.774772307961939 14340.4038578500622 
	12031.7975719431397 3544.36221302888589 14312.0359300582295 
	12031.79757194220838 3522.13783092789572 14281.92297985910045 
	12031.79757194198464 3502.226020119621353 14250.23338434163998 
	12031.79757194092599 3482.794654775500021 14213.46793408181475 
	12031.7975719402566 3465.016803889059702 14171.29393281102966 
	12031.79757193985824 3450.300252143170383 14123.58344831071736 
	12031.79757193946898 3442.056004814210155 14082.8012568207032 
	12031.79757193941077 3438.438112658014688 14053.92917249947459 
	12031.79757193941259 3436.989235450424985 14037.36895886145612 
	12031.7975719394326 3435.953770218555292 14020.77776946248923 
	12031.7975719395472 3435.227945442991768 13991.68893345866309 
	12031.79757193984551 3436.887160025267349 13958.44461708827475 
	12031.79757194015474 3441.539360354938253 13921.32344231882053 
	12031.79757194092417 3446.564207641264147 13894.7646693166771 
	12031.79757194112608 3452.567343040448122 13870.5603836512164 
	12031.79757194174272 3462.92179695035793 13834.61554692297614 
	12031.79757194369449 3483.474638105605663 13782.2474760258574 
	12031.79757194685408 3520.979153315682197 13717.28708074218412 
	12031.79757194951162 3562.550873496066743 13665.159120262133 
	12031.79757195451384 3604.251169153405499 13624.48770270433124 
	12031.79757195579077 3643.286624338107686 13593.3575035174963 
	12031.79757195733873 3681.732948923051936 13568.52644701709323 
	12031.79757196150422 3718.498574170727807 13549.09557869792843 
	12031.79757196322134 3752.8018161515256 13534.12898349697934 
	12031.79757196796345 3788.127716193437209 13521.7681917727914 
	12031.79757197267463 3830.303539345673016 13510.46668052567475 
	12031.79757197698018 3879.542871503955666 13502.10034317585814 
	12031.79757198312836 3935.642719750348533 13498.94999112360892 
	12031.7975719896167 3991.742506494068948 13502.10042301322937 
	12031.79757199681444 4040.981929564153234 13510.46666464936243 
	12031.79757200149106 4083.157617344636947 13521.76839014632606 
	12031.79757200339191 4130.259216675493008 13538.24873972324895 
	12031.79757201547 4169.681794861735398 13557.23244787575641 
	12031.79757201904795 4201.720902433542506 13576.53903036431257 
	12031.79757202079782 4222.584514276109985 13590.19896090110342 
	12031.79757202800829 4252.697620681130502 13612.42316247376948 
	12031.79757204330235 4289.938962236150473 13645.70363995847401 
	12031.79757206125032 4327.379636998147362 13687.60012767593071 
	12031.79757208007504 4359.894268642822681 13733.42496306913745 
	12031.79757209999298 4382.543443194871543 13774.40614095597994 
	12031.79757210889329 4397.824824176942457 13808.55777304990443 
	12031.79757211244942 4411.16806668598565 13843.51221841631013 
	12031.79757214842721 4421.538283118959953 13879.50692045111464 
	12031.79757216898543 4428.836988947448845 13916.20278710608727 
	12031.79757218297163 4432.759814087638006 13943.9881884708484 
	12031.79757219929343 4434.725159631063434 13967.28961447254733 
	12031.79757220407009 4435.413466468326078 13983.63920041893653 
	12031.79757220551619 4435.585568230731042 13991.81882325977131 
	12031.7975722058618 4435.628595675521865 13995.90923746446788 
	12031.79757220595639 4435.639352585852976 13997.95452008353823 
	12031.79757220598549 4435.642041827006324 13998.97717079705762 
	12031.79757220599095 4435.642810186956012 13999.56154398422586 
	12031.79757220599276 4435.64293823778462 13999.85373079976489 
	12031.79757220599095 4435.642938236323971 13999.9998242083293 
	12115.13090553932489 4435.642938236323062 13999.9998242083293 
	12115.13090553931761 4435.642938224641512 14001.16857147684823 
	12115.13090553910661 4435.634742761330926 14003.50606611573312 
	12115.1309055388956 4435.585566602127074 14008.180825022926 
	12115.13090553796064 4435.413471684855722 14016.36044816735557 
	12115.13090553443362 4434.725114276227032 14032.710028985588 
	12115.13090552267931 4431.97386021703187 14065.33203743514423 
	12115.1309054849753 4424.130800265917969 14111.49398057433791 
	12115.13090545192972 4408.575811298114786 14165.48624313806067 
	12115.13090541919519 4387.073447016789032 14217.39732526745138 
	12115.13090538452707 4359.894268315631052 14266.57470078872757 
	12115.1309053766563 4332.79877732505156 14304.76206094251575 
	12115.13090536698473 4308.659380869958113 14333.34779627111857 
	12115.13090535777337 4282.956144170780135 14360.53602837487597 
	12115.13090535226365 4249.594229124941194 14390.34989984413733 
	12115.13090532907518 4207.366009189324359 14420.7096825316894 
	12115.13090532701426 4164.126575521097038 14445.67389036692475 
	12115.13090532228853 4122.408906235295944 14464.49775558319379 
	12115.13090531867783 4083.157771707263237 14478.23162499664977 
	12115.13090531369016 4034.957010377072947 14491.14840104709037 
	12115.13090530901536 3973.147651025414234 14500.4664476732105 
	12115.13090529855617 3910.639732203478161 14500.4648485739599 
	12115.13090529747569 3861.05216835560168 14494.87663374875956 
	12115.13090529340661 3830.40744380976048 14489.07870264694793 
	12115.13090529255351 3806.203091175761983 14483.07571674037899 
	12115.13090529158944 3782.240052789451511 14476.17221250696275 
	12115.13090528874454 3752.801824587742431 14465.87133244522738 
	12115.13090528634893 3718.498485255764535 14450.90492318158613 
	12115.13090528380417 3685.409502103398609 14433.41687485666625 
	12115.13090528154316 3653.719919002230199 14413.50499054322609 
	12115.13090528063913 3628.625778843152148 14394.98471285126288 
	12115.13090527983513 3609.422958739213755 14379.07440891669648 
	12115.13090527940221 3590.828339270118704 14362.45737137183824 
	12115.13090527786335 3568.774772307961484 14340.4038578500622 
	12115.13090527647364 3544.362213028885435 14312.0359300582295 
	12115.13090527554232 3522.137830927895266 14281.92297985910045 
	12115.13090527531858 3502.226020119620898 14250.23338434163998 
	12115.13090527425993 3482.794654775499566 14213.46793408181475 
	12115.13090527359054 3465.016803889059247 14171.29393281102966 
	12115.13090527319218 3450.300252143169928 14123.58344831071736 
	12115.13090527280292 3442.0560048142097 14082.8012568207032 
	12115.13090527274471 3438.438112658014234 14053.92917249947459 
	12115.13090527274653 3436.98923545042453 14037.36895886145612 
	12115.13090527276654 3435.953770218554837 14020.77776946248923 
	12115.13090527288114 3435.227945442991313 13991.68893345866309 
	12115.13090527317945 3436.887160025266894 13958.44461708827475 
	12115.13090527348868 3441.539360354937799 13921.32344231882053 
	12115.13090527425811 3446.564207641263692 13894.7646693166771 
	12115.13090527446002 3452.567343040447668 13870.5603836512164 
	12115.13090527507666 3462.921796950357475 13834.61554692297614 
	12115.13090527702843 3483.474638105605209 13782.2474760258574 
	12115.13090528018802 3520.979153315681742 13717.28708074218412 
	12115.13090528284556 3562.550873496066288 13665.159120262133 
	12115.13090528784778 3604.251169153405044 13624.48770270433124 
	12115.13090528912471 3643.286624338107231 13593.3575035174963 
	12115.13090529067267 3681.732948923051481 13568.52644701709323 
	12115.13090529483816 3718.498574170727352 13549.09557869792843 
	12115.13090529655528 3752.801816151525145 13534.12898349697934 
	12115.13090530129739 3788.127716193436754 13521.7681917727914 
	12115.13090530600857 3830.303539345672561 13510.46668052567475 
	12115.13090531031412 3879.542871503955212 13502.10034317585814 
	12115.1309053164623 3935.642719750348078 13498.94999112360892 
	12115.13090532295064 3991.742506494068493 13502.10042301322937 
	12115.13090533014838 4040.981929564152779 13510.46666464936243 
	12115.130905334825 4083.157617344636492 13521.76839014632606 
	12115.13090533672585 4130.259216675492098 13538.24873972324895 
	12115.13090534880394 4169.681794861734488 13557.23244787575641 
	12115.13090535238189 4201.720902433541596 13576.53903036431257 
	12115.13090535413176 4222.584514276109076 13590.19896090110342 
	12115.13090536134223 4252.697620681129592 13612.42316247376948 
	12115.13090537663629 4289.938962236149564 13645.70363995847401 
	12115.13090539458426 4327.379636998146452 13687.60012767593071 
	12115.13090541340898 4359.894268642821771 13733.42496306913745 
	12115.13090543332692 4382.543443194870633 13774.40614095597994 
	12115.13090544222723 4397.824824176941547 13808.55777304990443 
	12115.13090544578336 4411.168066685984741 13843.51221841631013 
	12115.13090548176115 4421.538283118959043 13879.50692045111464 
	12115.13090550231937 4428.836988947447935 13916.20278710608727 
	12115.13090551630557 4432.759814087637096 13943.9881884708484 
	12115.13090553262737 4434.725159631062525 13967.28961447254733 
	12115.13090553740403 4435.413466468325169 13983.63920041893653 
	12115.13090553885013 4435.585568230730132 13991.81882325977131 
	12115.13090553919574 4435.628595675520955 13995.90923746446788 
	12115.13090553929032 4435.639352585852066 13997.95452008353823 
	12115.13090553931943 4435.642041827005414 13998.97717079705762 
	12115.13090553932489 4435.642810186955103 13999.56154398422586 
	12115.1309055393267 4435.64293823778371 13999.85373079976489 
	12115.13090553932489 4435.642938236323062 13999.9998242083293 
	12198.46423887869423 4435.642938236321243 13999.9998242083293 
	12198.46423887868878 4435.642938224639693 14001.16857147684823 
	12198.46423887847232 4435.634742761329107 14003.50606611573312 
	12198.46423887825586 4435.585566602125255 14008.180825022926 
	12198.46423887730089 4435.413471684853903 14016.36044816735557 
	12198.46423887370111 4434.725114276224303 14032.710028985588 
	12198.46423886170123 4431.973860217030051 14065.33203743514423 
	12198.46423882322051 4424.13080026591615 14111.49398057433791 
	12198.46423878948553 4408.575811298112058 14165.48624313806067 
	12198.46423875607434 4387.073447016787213 14217.39732526745138 
	12198.46423872068408 4359.894268315628324 14266.57470078872757 
	12198.46423871265142 4332.798777325049741 14304.76206094251575 
	12198.46423870277795 4308.659380869956294 14333.34779627111857 
	12198.46423869337559 4282.956144170779226 14360.53602837487597 
	12198.46423868774946 4249.594229124939375 14390.34989984413733 
	12198.46423866407895 4207.366009189323449 14420.7096825316894 
	12198.46423866197256 4164.126575521095219 14445.67389036692475 
	12198.46423865715042 4122.408906235295035 14464.49775558319379 
	12198.46423865346333 4083.157771707261873 14478.23162499664977 
	12198.46423864837379 4034.957010377071583 14491.14840104709037 
	12198.46423864359895 3973.14765102541287 14500.4664476732105 
	12198.46423863292512 3910.639732203477251 14500.4648485739599 
	12198.46423863181917 3861.052168355600315 14494.87663374875956 
	12198.46423862766824 3830.40744380975957 14489.07870264694793 
	12198.46423862679512 3806.203091175760619 14483.07571674037899 
	12198.46423862581287 3782.240052789450601 14476.17221250696275 
	12198.46423862291158 3752.801824587741976 14465.87133244522738 
	12198.4642386204614 3718.498485255764535 14450.90492318158613 
	12198.4642386178657 3685.409502103398609 14433.41687485666625 
	12198.46423861555559 3653.719919002230199 14413.50499054322609 
	12198.46423861463336 3628.625778843152602 14394.98471285126288 
	12198.464238613813 3609.422958739213755 14379.07440891669648 
	12198.4642386133728 3590.828339270119159 14362.45737137183824 
	12198.46423861180119 3568.774772307961484 14340.4038578500622 
	12198.4642386103842 3544.362213028885435 14312.0359300582295 
	12198.46423860943287 3522.137830927895266 14281.92297985910045 
	12198.46423860920549 3502.226020119620898 14250.23338434163998 
	12198.4642386081232 3482.794654775499112 14213.46793408181475 
	12198.46423860744108 3465.016803889058792 14171.29393281102966 
	12198.46423860703544 3450.300252143169473 14123.58344831071736 
	12198.46423860663344 3442.0560048142097 14082.8012568207032 
	12198.46423860657524 3438.438112658013779 14053.92917249947459 
	12198.46423860657706 3436.989235450424076 14037.36895886145612 
	12198.46423860659888 3435.953770218554382 14020.77776946248923 
	12198.46423860671348 3435.227945442990858 13991.68893345866309 
	12198.46423860702089 3436.887160025266439 13958.44461708827475 
	12198.46423860733375 3441.539360354937344 13921.32344231882053 
	12198.46423860812138 3446.564207641263238 13894.7646693166771 
	12198.46423860832692 3452.567343040447213 13870.5603836512164 
	12198.46423860895629 3462.92179695035702 13834.61554692297614 
	12198.46423861094809 3483.474638105604754 13782.2474760258574 
	12198.46423861417134 3520.979153315681287 13717.28708074218412 
	12198.46423861688345 3562.550873496065378 13665.159120262133 
	12198.46423862198753 3604.25116915340368 13624.48770270433124 
	12198.46423862329357 3643.286624338105867 13593.3575035174963 
	12198.46423862487245 3681.732948923049662 13568.52644701709323 
	12198.46423862912707 3718.498574170725533 13549.09557869792843 
	12198.46423863087875 3752.801816151523326 13534.12898349697934 
	12198.46423863571727 3788.12771619343448 13521.7681917727914 
	12198.46423864053213 3830.303539345670742 13510.46668052567475 
	12198.46423864492317 3879.542871503953393 13502.10034317585814 
	12198.4642386512005 3935.642719750345805 13498.94999112360892 
	12198.46423865782526 3991.74250649406622 13502.10042301322937 
	12198.46423866517216 4040.981929564150505 13510.46666464936243 
	12198.46423866994701 4083.157617344634218 13521.76839014632606 
	12198.46423867188787 4130.259216675490279 13538.24873972324895 
	12198.46423868421516 4169.681794861732669 13557.23244787575641 
	12198.46423868786769 4201.720902433539777 13576.53903036431257 
	12198.46423868965394 4222.584514276107257 13590.19896090110342 
	12198.46423869701357 4252.697620681127773 13612.42316247376948 
	12198.46423871262596 4289.938962236147745 13645.70363995847401 
	12198.46423873094682 4327.379636998144633 13687.60012767593071 
	12198.4642387501608 4359.894268642820862 13733.42496306913745 
	12198.46423877049529 4382.543443194868814 13774.40614095597994 
	12198.4642387795775 4397.824824176939728 13808.55777304990443 
	12198.46423878321002 4411.168066685982922 13843.51221841631013 
	12198.46423881993178 4421.538283118958134 13879.50692045111464 
	12198.46423884091746 4428.836988947446116 13916.20278710608727 
	12198.46423885519289 4432.759814087635277 13943.9881884708484 
	12198.46423887185665 4434.725159631060706 13967.28961447254733 
	12198.46423887673336 4435.41346646832335 13983.63920041893653 
	12198.46423887820856 4435.585568230728313 13991.81882325977131 
	12198.46423887855963 4435.628595675519136 13995.90923746446788 
	12198.46423887865785 4435.639352585850247 13997.95452008353823 
	12198.46423887868696 4435.642041827003595 13998.97717079705762 
	12198.46423887869423 4435.642810186952374 13999.56154398422586 
	12198.46423887869423 4435.642938237781891 13999.85373079976489 
	12198.46423887869423 4435.642938236321243 13999.9998242083293 
	12281.79757221202817 4435.642938236321243 13999.9998242083293 
	12281.79757221202271 4435.642938224639693 14001.16857147684823 
	12281.79757221180625 4435.634742761329107 14003.50606611573312 
	12281.7975722115898 4435.585566602125255 14008.180825022926 
	12281.79757221063483 4435.413471684853903 14016.36044816735557 
	12281.79757220703505 4434.725114276224303 14032.710028985588 
	12281.79757219503517 4431.973860217030051 14065.33203743514423 
	12281.79757215655445 4424.13080026591615 14111.49398057433791 
	12281.79757212281947 4408.575811298112058 14165.48624313806067 
	12281.79757208940828 4387.073447016787213 14217.39732526745138 
	12281.79757205401802 4359.894268315628324 14266.57470078872757 
	12281.79757204598536 4332.798777325049741 14304.76206094251575 
	12281.79757203611189 4308.659380869956294 14333.34779627111857 
	12281.79757202670953 4282.956144170779226 14360.53602837487597 
	12281.7975720210834 4249.594229124939375 14390.34989984413733 
	12281.79757199741289 4207.366009189323449 14420.7096825316894 
	12281.7975719953065 4164.126575521095219 14445.67389036692475 
	12281.79757199048436 4122.408906235295035 14464.49775558319379 
	12281.79757198679727 4083.157771707261418 14478.23162499664977 
	12281.79757198170773 4034.957010377071128 14491.14840104709037 
	12281.79757197693289 3973.147651025412415 14500.4664476732105 
	12281.79757196625906 3910.639732203476797 14500.4648485739599 
	12281.79757196515311 3861.052168355599861 14494.87663374875956 
	12281.79757196100218 3830.407443809759116 14489.07870264694793 
	12281.79757196012906 3806.203091175760164 14483.07571674037899 
	12281.79757195914681 3782.240052789450147 14476.17221250696275 
	12281.79757195624552 3752.801824587741521 14465.87133244522738 
	12281.79757195379534 3718.498485255764081 14450.90492318158613 
	12281.79757195119964 3685.409502103398154 14433.41687485666625 
	12281.79757194888953 3653.719919002229744 14413.50499054322609 
	12281.7975719479673 3628.625778843152148 14394.98471285126288 
	12281.79757194714693 3609.4229587392133 14379.07440891669648 
	12281.79757194670674 3590.828339270118704 14362.45737137183824 
	12281.79757194513513 3568.77477230796103 14340.4038578500622 
	12281.79757194371814 3544.36221302888498 14312.0359300582295 
	12281.79757194276681 3522.137830927894811 14281.92297985910045 
	12281.79757194253943 3502.226020119620443 14250.23338434163998 
	12281.79757194145714 3482.794654775498657 14213.46793408181475 
	12281.79757194077501 3465.016803889058338 14171.29393281102966 
	12281.79757194036938 3450.300252143169018 14123.58344831071736 
	12281.79757193996738 3442.056004814209246 14082.8012568207032 
	12281.79757193990918 3438.438112658013324 14053.92917249947459 
	12281.79757193991099 3436.989235450423621 14037.36895886145612 
	12281.79757193993282 3435.953770218553927 14020.77776946248923 
	12281.79757194004742 3435.227945442990404 13991.68893345866309 
	12281.79757194035483 3436.887160025265985 13958.44461708827475 
	12281.79757194066769 3441.539360354936889 13921.32344231882053 
	12281.79757194145532 3446.564207641262783 13894.7646693166771 
	12281.79757194166086 3452.567343040446758 13870.5603836512164 
	12281.79757194229023 3462.921796950356566 13834.61554692297614 
	12281.79757194428203 3483.474638105604299 13782.2474760258574 
	12281.79757194750528 3520.979153315680833 13717.28708074218412 
	12281.79757195021739 3562.550873496064924 13665.159120262133 
	12281.79757195532147 3604.251169153403225 13624.48770270433124 
	12281.79757195662751 3643.286624338105412 13593.3575035174963 
	12281.79757195820639 3681.732948923049207 13568.52644701709323 
	12281.79757196246101 3718.498574170725078 13549.09557869792843 
	12281.79757196421269 3752.801816151522871 13534.12898349697934 
	12281.79757196905121 3788.127716193434026 13521.7681917727914 
	12281.79757197386607 3830.303539345670288 13510.46668052567475 
	12281.79757197825711 3879.542871503952938 13502.10034317585814 
	12281.79757198453444 3935.64271975034535 13498.94999112360892 
	12281.7975719911592 3991.742506494065765 13502.10042301322937 
	12281.7975719985061 4040.98192956415005 13510.46666464936243 
	12281.79757200328095 4083.157617344633763 13521.76839014632606 
	12281.79757200522181 4130.259216675490279 13538.24873972324895 
	12281.7975720175491 4169.681794861732669 13557.23244787575641 
	12281.79757202120163 4201.720902433539777 13576.53903036431257 
	12281.79757202298788 4222.584514276107257 13590.19896090110342 
	12281.79757203034751 4252.697620681127773 13612.42316247376948 
	12281.7975720459599 4289.938962236147745 13645.70363995847401 
	12281.79757206428076 4327.379636998144633 13687.60012767593071 
	12281.79757208349474 4359.894268642820862 13733.42496306913745 
	12281.79757210382922 4382.543443194868814 13774.40614095597994 
	12281.79757211291144 4397.824824176939728 13808.55777304990443 
	12281.79757211654396 4411.168066685982922 13843.51221841631013 
	12281.79757215326572 4421.538283118958134 13879.50692045111464 
	12281.7975721742514 4428.836988947446116 13916.20278710608727 
	12281.79757218852683 4432.759814087635277 13943.9881884708484 
	12281.79757220519059 4434.725159631060706 13967.28961447254733 
	12281.7975722100673 4435.41346646832335 13983.63920041893653 
	12281.7975722115425 4435.585568230728313 13991.81882325977131 
	12281.79757221189357 4435.628595675519136 13995.90923746446788 
	12281.79757221199179 4435.639352585850247 13997.95452008353823 
	12281.7975722120209 4435.642041827003595 13998.97717079705762 
	12281.79757221202817 4435.642810186952374 13999.56154398422586 
	12281.79757221202817 4435.642938237781891 13999.85373079976489 
	12281.79757221202817 4435.642938236321243 13999.9998242083293 
	0 
	
	0 
	0 
	83 0 0.001116071428571428509 0.002232142857142857019 0.004464285714285714038 0.008928571428571428076 0.01785714285714285615 0.0357142857142857123 0.05357142857142856845 0.07142857142857142461 0.08928571428571427382 0.1071428571428571369 0.1160714285714285754 0.125 0.1428571428571428492 0.1587301587301587213 0.1746031746031745935 0.1904761904761904656 0.2023809523809523836 0.2142857142857142738 0.238095238095238082 0.2619047619047618625 0.2738095238095237804 0.2857142857142856984 0.2916666666666666297 0.2976190476190476164 0.3095238095238095344 0.3214285714285713969 0.3333333333333333148 0.3452380952380952328 0.3571428571428570953 0.3630952380952380265 0.3690476190476190133 0.3809523809523809312 0.3928571428571428492 0.4047619047619047672 0.4166666666666666297 0.4285714285714285476 0.4444444444444444198 0.4603174603174602919 0.476190476190476164 0.4880952380952380265 0.4920634920634920362 0.5 0.5158730158730158166 0.5238095238095237249 0.5357142857142855874 0.5416666666666665186 0.5476190476190475609 0.5714285714285713969 0.5952380952380951218 0.6190476190476189577 0.6349206349206348854 0.650793650793650702 0.6666666666666666297 0.6785714285714286031 0.6904761904761904656 0.7023809523809523281 0.7142857142857141906 0.7321428571428569843 0.749999999999999889 0.7678571428571427937 0.7857142857142855874 0.7976190476190474499 0.8095238095238094234 0.8333333333333332593 0.8392857142857141906 0.8452380952380951218 0.8571428571428570953 0.875 0.8928571428571427937 0.9107142857142856984 0.9285714285714286031 0.9375 0.9464285714285713969 0.9642857142857143016 0.9732142857142858094 0.9821428571428572063 0.9910714285714286031 0.9955357142857143016 0.9977678571428572063 0.9988839285714286031 0.9997209821428572063 0.9998604910714286031 
	0 
	0 
	0 
	F 1 F 0 F 1 F 0 } I I I I #
tcoedge-coedge $-1 -1 $-1 $14 $14 $18 $19 reversed $9 $20 -6.283185307179586232 -0 #
tcoedge-coedge $-1 -1 $-1 $21 $22 $11 $16 reversed $12 $23 -6.283185307179586232 -0 #
tedge-edge $-1 -1 $-1 $24 0 $24 6.283185307179586232 $15 $25 forward @7 unknown 0.0007535985309569325722 #
pcurve $-1 -1 $-1 0 forward { exppc nurbs 2 periodic 5 
	0 2 1.570796326794896558 2 3.141592653589793116 2 4.712388980384689674 2 6.283185307179586232 2 
	0 500 1 
	-500 500 0.707106781186543798 
	-500 0 1 
	-500 -500 0.7071067811865463515 
	0 -500 1 
	500 -500 0.7071067811865463515 
	500 0 1 
	500 500 0.707106781186543798 
	0 500 1 
	0 
	plane 12281.79757191538738 3935.642797989773499 14000.00000000000182 1 -3.637978807091713027e-15 0 0 0 -1 forward_v I I I I 
	} 0 0 #
tcoedge-coedge $-1 -1 $-1 $22 $21 $14 $19 forward $12 $26 0 6.283185307179586232 #
tedge-edge $-1 -1 $-1 $27 0 $27 6.283185307179586232 $18 $28 forward @7 unknown 0.0007535985290640335402 #
pcurve $-1 -1 $-1 0 forward { exppc nurbs 2 periodic 5 
	-6.283185307179586232 2 -4.712388980384689674 2 -3.141592653589793116 2 -1.570796326794896558 2 0 2 
	0 500 1 
	500 500 0.707106781186543798 
	500 0 1 
	500 -500 0.7071067811865463515 
	0 -500 1 
	-500 -500 0.7071067811865463515 
	-500 0 1 
	-500 500 0.707106781186543798 
	0 500 1 
	0 
	plane 12031.79757191538738 3935.642797989774408 14000.00000000000182 -1 3.637978807091713027e-15 -0 0 0 -1 reverse_v I I I I 
	} 0 0 #
coedge $-1 -1 $-1 $18 $15 $22 $29 reversed $12 $30 #
coedge $-1 -1 $-1 $15 $18 $21 $29 forward $12 $31 #
pcurve $-1 -1 $-1 0 forward { exppc nubs 1 periodic 2 
	-6.283185307179586232 1 -0 1 
	1 1 
	0 1 
	2.726396620975368931e-13 
	spline forward { ref 0 } I I I I 
	} 0 0 #
tvertex-vertex $-1 -1 $-1 $16 $32 0.0002248819663138838267 #
ellipse-curve $-1 -1 $-1 12281.79757191538738 3935.642797989773499 14000.00000000000182 1 -3.637978807091713027e-15 0 1.818989403545856476e-12 500 0 1 I I #
pcurve $-1 -1 $-1 0 forward { exppc nubs 1 periodic 2 
	0 1 6.283185307179586232 1 
	0 0 
	1 0 
	4.4114023995510105e-13 
	spline forward { ref 0 } I I I I 
	} 0 0 #
tvertex-vertex $-1 -1 $-1 $19 $33 0.0002248819595656969649 #
ellipse-curve $-1 -1 $-1 12031.79757191538738 3935.642797989774408 14000.00000000000182 1 -3.637978807091713027e-15 0 1.818989403545856476e-12 500 0 1 I I #
edge $-1 -1 $-1 $27 0 $24 0.9999999988134441464 $22 $34 forward @7 tangent #
pcurve $-1 -1 $-1 -1 $34 0 0 #
pcurve $-1 -1 $-1 1 $34 1 0 #
point $-1 -1 $-1 12281.7975719153892 4435.642797989773499 14000.00000000000182 #
point $-1 -1 $-1 12031.7975719153892 4435.642797989774408 14000.00000000000182 #
intcurve-curve $-1 -1 $-1 forward { parcur full nubs 3 open 2 
	0 3 1 3 
	12031.79757220599095 4435.642938236323971 13999.9998242083293 
	12115.13090553932489 4435.642938236323062 13999.9998242083293 
	12198.46423887869423 4435.642938236321243 13999.9998242083293 
	12281.79757221202817 4435.642938236321243 13999.9998242083293 
	0 
	
	spline forward { ref 0 } I I I I 
	null_surface 
	nubs 1 open 2 
	0 1 1 1 
	0 0 
	0 1 
	
	nullbs 
	I I 
	0 
	0 
	0 
	surf1 } F 0 F 0.9999999988134441464 #
End-of-ACIS-data 