700 0 1 0           
4 LibG 20 ASM 224.0.1.65535 NT 24 Wed Jul 17 14:48:15 2019 
1000 9.999999999999999547e-07 1.000000000000000036e-10 
body $-1 -1 $-1 $1 $-1 $2 #
lump $-1 -1 $-1 $-1 $3 $0 #
transform $-1 -1 1 0 0 0 1 0 0 0 1 0 0 0 1 no_rotate no_reflect no_shear #
shell $-1 -1 $-1 $-1 $-1 $4 $-1 $1 #
face $-1 -1 $-1 $5 $6 $3 $-1 $7 forward single #
face $-1 -1 $-1 $8 $9 $3 $-1 $10 reversed single #
loop $-1 -1 $-1 $-1 $11 $4 #
plane-surface $-1 -1 $-1 12531.79757191538738 3935.642797989772589 14000.00000000000182 1 -3.637978807091713027e-15 0 0 0 -1 forward_v I I I I #
face $-1 -1 $-1 $-1 $12 $3 $-1 $13 forward single #
loop $-1 -1 $-1 $-1 $14 $5 #
plane-surface $-1 -1 $-1 12281.79757191538738 3935.642797989773499 14000.00000000000182 1 -3.637978807091713027e-15 0 0 0 -1 forward_v I I I I #
tcoedge-coedge $-1 -1 $-1 $11 $11 $15 $16 forward $6 $17 0 6.283185307179586232 #
loop $-1 -1 $-1 $-1 $18 $8 #
spline-surface $-1 -1 $-1 forward { exactsur full nubs 3 3 periodic open none none 91 2 
	0 3 0.0005580357142857142547 1 0.001116071428571428509 1 0.002232142857142857019 1 0.004464285714285714038 1 
	0.008928571428571428076 1 0.01785714285714285615 1 0.02678571428571428423 1 0.0357142857142857123 1 0.05357142857142856845 1 
	0.07142857142857142461 1 0.08928571428571427382 1 0.1071428571428571369 1 0.125 1 0.1428571428571428492 1 
	0.1587301587301587213 1 0.1746031746031745935 1 0.1904761904761904656 1 0.2023809523809523836 1 0.2142857142857142738 1 
	0.238095238095238082 1 0.2619047619047618625 1 0.2857142857142856984 1 0.2976190476190476164 1 0.3095238095238095344 1 
	0.3214285714285713969 1 0.3333333333333333148 1 0.3392857142857143016 1 0.3452380952380952328 1 0.351190476190476164 1 
	0.3571428571428570953 1 0.3690476190476190133 1 0.3809523809523809312 1 0.3869047619047618625 1 0.3928571428571428492 1 
	0.4047619047619047672 1 0.4166666666666666297 1 0.4285714285714285476 1 0.4444444444444444198 1 0.4603174603174602919 1 
	0.476190476190476164 1 0.4841269841269840724 1 0.4880952380952380265 1 0.4920634920634920362 1 0.5079365079365079083 1 
	0.5158730158730158166 1 0.5198412698412697708 1 0.5218253968253967479 1 0.5228174603174602364 1 0.5233134920634919807 1 
	0.5235615079365079083 1 0.5238095238095237249 1 0.5476190476190475609 1 0.5714285714285713969 1 0.5952380952380951218 1 
	0.6071428571428569843 1 0.6130952380952379155 1 0.6190476190476189577 1 0.6349206349206348854 1 0.650793650793650702 1 
	0.6666666666666666297 1 0.6904761904761904656 1 0.7023809523809523281 1 0.7142857142857141906 1 0.7321428571428569843 1 
	0.749999999999999889 1 0.7678571428571427937 1 0.7857142857142855874 1 0.7976190476190474499 1 0.8095238095238094234 1 
	0.8333333333333332593 1 0.8571428571428570953 1 0.8616071428571427937 1 0.8660714285714286031 1 0.875 1 
	0.8928571428571427937 1 0.9107142857142856984 1 0.9285714285714286031 1 0.9464285714285713969 1 0.9642857142857143016 1 
	0.9821428571428572063 1 0.9866071428571429047 1 0.9910714285714286031 1 0.9955357142857143016 1 0.9977678571428572063 1 
	0.9988839285714286031 1 0.9994419642857143016 1 0.9997209821428572063 1 0.9998604910714286031 1 0.9999302455357143016 1 
	1 3 
	0 3 1 3 
	12281.79757190969758 4435.642888246550683 13999.99989736561474 
	12281.79757190970122 4435.64288824490086 14000.58427099839355 
	12281.79757190969758 4435.64083927050342 14001.75301825290262 
	12281.79757190970122 4435.628545536487763 14004.09048405187605 
	12281.79757190970668 4435.585518023255645 14008.18089820571186 
	12281.79757190973578 4435.413413784018303 14016.36051998289986 
	12281.79757190982673 4434.725109012431858 14032.71010575509536 
	12281.79757191013778 4432.759721810750307 14056.01151337252486 
	12281.79757191043609 4428.836938799417112 14083.7969248274967 
	12281.79757191076715 4421.538049299424529 14120.49272046011902 
	12281.79757191188946 4408.575887862200943 14165.48628742547407 
	12281.79757191281897 4387.073417877734755 14217.39737814592991 
	12281.79757191393037 4359.894190647998585 14266.57466629238479 
	12281.79757191481804 4327.379550525804916 14312.39944897225723 
	12281.79757191606222 4289.938883387906571 14354.29596449309611 
	12281.79757191620047 4249.59417372176722 14390.34989776936345 
	12281.79757191738281 4207.365984110138925 14420.70969585503008 
	12281.79757191747376 4164.126545218316096 14445.67388302369727 
	12281.797571917803 4122.408875417118907 14464.49777425319371 
	12281.79757191811404 4083.157750426765233 14478.23157568439274 
	12281.79757191855242 4034.956956340439774 14491.14854351359099 
	12281.79757191925819 3973.147687630861128 14500.46604396147632 
	12281.79757192065335 3898.137915685329062 14500.46568727081649 
	12281.79757192198122 3836.328573653764579 14491.14877437203177 
	12281.79757192245961 3788.127670513375506 14478.23214043029839 
	12281.7975719230817 3752.801773644758669 14465.87139673249112 
	12281.79757192347643 3718.498432652100291 14450.90486577781121 
	12281.79757192467514 3690.924291620517124 14436.331509043388 
	12281.79757192488614 3669.564630228390342 14423.460953417989 
	12281.79757192523903 3653.916969138037075 14413.21588009476909 
	12281.79757192536817 3638.663366795780348 14402.39283027100646 
	12281.79757192575926 3618.8789629472858 14387.21181043185607 
	12281.79757192689249 3595.238975469601428 14366.86805044978973 
	12281.79757192816396 3573.185474728063582 14344.81446118388158 
	12281.79757192854959 3556.568425255675265 14326.21984840324694 
	12281.79757192913348 3540.658132428210138 14307.01702031542482 
	12281.79757193003752 3522.137798648412627 14281.92290212163243 
	12281.79757193078876 3502.225977417368995 14250.2333035668762 
	12281.79757193210935 3482.794657533867849 14213.46783063170733 
	12281.79757193384285 3465.016627394509214 14171.29390866812901 
	12281.79757193586011 3450.300144248569268 14123.58337184742959 
	12281.79757193973819 3442.055856727043647 14082.80119356274008 
	12281.7975719410606 3438.437929955421168 14053.92909740902542 
	12281.79757194136619 3436.989108854742881 14037.36888470955091 
	12281.79757194213016 3435.435647053026969 14012.48209388205396 
	12281.79757194514423 3435.435874078520101 13983.35710271184507 
	12281.79757194579361 3437.610565504152873 13954.34060132094783 
	12281.79757194629019 3439.23911544627299 13939.8865200520504 
	12281.79757194639751 3440.18835191168364 13932.67638870684095 
	12281.79757194643207 3440.696646469274583 13929.07597126332439 
	12281.79757194643571 3440.959203990225433 13927.27697638396057 
	12281.7975719464448 3441.11164336550064 13926.24933453743688 
	12281.79757194584636 3444.885362073606302 13901.07790990533795 
	12281.79757194098966 3456.07093593696527 13852.07166373101245 
	12281.79757193728801 3483.474537619724288 13782.24702048637664 
	12281.79757193285332 3514.729011464137329 13728.1141317897509 
	12281.79757193190562 3540.65841604354182 13692.98300165246292 
	12281.79757193132173 3556.568501284877584 13673.78005089110047 
	12281.79757193045589 3575.955036198976359 13652.08632745856812 
	12281.79757192894976 3604.250865719022386 13624.48705998361947 
	12281.7975719272672 3643.286735517145189 13593.35747810420617 
	12281.79757192611214 3692.217606220817743 13561.7527921422261 
	12281.7975719245369 3741.026200765934391 13538.24843296039944 
	12281.79757192401303 3788.127981236371397 13521.76848756427353 
	12281.79757192336911 3830.303636339651803 13510.46667889271885 
	12281.79757192236866 3879.54306589611997 13502.10050131138632 
	12281.79757192139004 3935.642855037945083 13498.95002504780496 
	12281.79757192050238 3991.742668508952192 13502.1004669966278 
	12281.7975719196711 4040.982062767278876 13510.46666409650788 
	12281.79757191928002 4083.157784211498438 13521.76837609783615 
	12281.79757191904173 4130.259314439607806 13538.24872342031813 
	12281.79757191831595 4186.577565151983435 13565.36821662069633 
	12281.79757191719182 4231.767656577232628 13596.17954264194123 
	12281.7975719169699 4258.271176523217946 13617.93118870375474 
	12281.79757191685712 4272.389466352310592 13630.19621427898892 
	12281.79757191676617 4296.178888679483862 13652.68682879831431 
	12281.79757191597673 4327.38001112648999 13687.59995536204224 
	12281.79757191471799 4359.89424101457189 13733.42513329189023 
	12281.79757191364661 4387.073631963587104 13782.60228510450179 
	12281.79757191236968 4408.575819033056177 13834.51349478384509 
	12281.7975719113565 4424.130775652499324 13888.5057221105908 
	12281.79757191007411 4431.189516214532887 13930.0514900123253 
	12281.79757190990495 4433.938947339835977 13957.96912717590203 
	12281.79757190982491 4434.921783890280494 13971.9609950879003 
	12281.79757190973578 4435.413411702138546 13983.63927527250962 
	12281.79757190970486 4435.585519001107969 13991.81889630473597 
	12281.7975719096994 4435.628545510482581 13995.90931069083308 
	12281.79757190969212 4435.639302613254586 13997.95459323902469 
	12281.79757190969576 4435.641991827331367 13998.97724395725527 
	12281.79757190969394 4435.642664143820184 13999.48857049259641 
	12281.7975719096994 4435.64285623199612 13999.78075725315102 
	12281.79757190969758 4435.642888246757138 13999.92685066151716 
	12281.79757190969758 4435.642888246550683 13999.99989736561474 
	12365.13090524303152 4435.642888246549774 13999.99989736561474 
	12365.13090524303516 4435.64288824489995 14000.58427099839355 
	12365.13090524303152 4435.640839270502511 14001.75301825290262 
	12365.13090524303516 4435.628545536486854 14004.09048405187605 
	12365.13090524304062 4435.585518023254735 14008.18089820571186 
	12365.13090524306972 4435.413413784017393 14016.36051998289986 
	12365.13090524316067 4434.725109012430948 14032.71010575509536 
	12365.13090524347172 4432.759721810749397 14056.01151337252486 
	12365.13090524377003 4428.836938799416203 14083.7969248274967 
	12365.13090524410109 4421.538049299423619 14120.49272046011902 
	12365.1309052452234 4408.575887862200034 14165.48628742547407 
	12365.13090524615291 4387.073417877733846 14217.39737814592991 
	12365.13090524726431 4359.894190647997675 14266.57466629238479 
	12365.13090524815198 4327.379550525804007 14312.39944897225723 
	12365.13090524939616 4289.938883387905662 14354.29596449309611 
	12365.13090524953441 4249.59417372176631 14390.34989776936345 
	12365.13090525071675 4207.365984110138015 14420.70969585503008 
	12365.1309052508077 4164.126545218315187 14445.67388302369727 
	12365.13090525113694 4122.408875417117997 14464.49777425319371 
	12365.13090525144798 4083.157750426764778 14478.23157568439274 
	12365.13090525188636 4034.956956340439319 14491.14854351359099 
	12365.13090525259213 3973.147687630860673 14500.46604396147632 
	12365.13090525398729 3898.137915685328608 14500.46568727081649 
	12365.13090525531516 3836.328573653764124 14491.14877437203177 
	12365.13090525579355 3788.127670513375051 14478.23214043029839 
	12365.13090525641564 3752.801773644758214 14465.87139673249112 
	12365.13090525681037 3718.498432652099837 14450.90486577781121 
	12365.13090525800908 3690.924291620516669 14436.331509043388 
	12365.13090525822008 3669.564630228389888 14423.460953417989 
	12365.13090525857297 3653.91696913803662 14413.21588009476909 
	12365.13090525870211 3638.663366795779893 14402.39283027100646 
	12365.1309052590932 3618.878962947285345 14387.21181043185607 
	12365.13090526022643 3595.238975469600973 14366.86805044978973 
	12365.1309052614979 3573.185474728063127 14344.81446118388158 
	12365.13090526188353 3556.568425255674811 14326.21984840324694 
	12365.13090526246742 3540.658132428209683 14307.01702031542482 
	12365.13090526337146 3522.137798648412172 14281.92290212163243 
	12365.1309052641227 3502.22597741736854 14250.2333035668762 
	12365.13090526544329 3482.794657533867394 14213.46783063170733 
	12365.13090526717679 3465.01662739450876 14171.29390866812901 
	12365.13090526919405 3450.300144248568813 14123.58337184742959 
	12365.13090527307213 3442.055856727043192 14082.80119356274008 
	12365.13090527439454 3438.437929955420714 14053.92909740902542 
	12365.13090527470013 3436.989108854742426 14037.36888470955091 
	12365.1309052754641 3435.435647053026514 14012.48209388205396 
	12365.13090527847817 3435.435874078519646 13983.35710271184507 
	12365.13090527912755 3437.610565504152419 13954.34060132094783 
	12365.13090527962413 3439.239115446272535 13939.8865200520504 
	12365.13090527973145 3440.188351911683185 13932.67638870684095 
	12365.13090527976601 3440.696646469274128 13929.07597126332439 
	12365.13090527976965 3440.959203990224978 13927.27697638396057 
	12365.13090527977874 3441.111643365500186 13926.24933453743688 
	12365.1309052791803 3444.885362073605847 13901.07790990533795 
	12365.1309052743236 3456.070935936964815 13852.07166373101245 
	12365.13090527062195 3483.474537619723833 13782.24702048637664 
	12365.13090526618726 3514.729011464136875 13728.1141317897509 
	12365.13090526523956 3540.658416043541365 13692.98300165246292 
	12365.13090526465567 3556.568501284877129 13673.78005089110047 
	12365.13090526378983 3575.955036198975904 13652.08632745856812 
	12365.1309052622837 3604.250865719021931 13624.48705998361947 
	12365.13090526060114 3643.286735517144734 13593.35747810420617 
	12365.13090525944608 3692.217606220817288 13561.7527921422261 
	12365.13090525787084 3741.026200765933936 13538.24843296039944 
	12365.13090525734697 3788.127981236370942 13521.76848756427353 
	12365.13090525670304 3830.303636339651348 13510.46667889271885 
	12365.1309052557026 3879.543065896119515 13502.10050131138632 
	12365.13090525472398 3935.642855037944628 13498.95002504780496 
	12365.13090525383632 3991.742668508951738 13502.1004669966278 
	12365.13090525300504 4040.982062767278421 13510.46666409650788 
	12365.13090525261396 4083.157784211497983 13521.76837609783615 
	12365.13090525237567 4130.259314439606896 13538.24872342031813 
	12365.13090525164989 4186.577565151982526 13565.36821662069633 
	12365.13090525052576 4231.767656577231719 13596.17954264194123 
	12365.13090525030384 4258.271176523217036 13617.93118870375474 
	12365.13090525019106 4272.389466352309682 13630.19621427898892 
	12365.13090525010011 4296.178888679482952 13652.68682879831431 
	12365.13090524931067 4327.38001112648908 13687.59995536204224 
	12365.13090524805193 4359.89424101457098 13733.42513329189023 
	12365.13090524698055 4387.073631963586195 13782.60228510450179 
	12365.13090524570362 4408.575819033055268 13834.51349478384509 
	12365.13090524469044 4424.130775652498414 13888.5057221105908 
	12365.13090524340805 4431.189516214531977 13930.0514900123253 
	12365.13090524323889 4433.938947339835067 13957.96912717590203 
	12365.13090524315885 4434.921783890279585 13971.9609950879003 
	12365.13090524306972 4435.413411702137637 13983.63927527250962 
	12365.1309052430388 4435.585519001107059 13991.81889630473597 
	12365.13090524303334 4435.628545510481672 13995.90931069083308 
	12365.13090524302606 4435.639302613253676 13997.95459323902469 
	12365.1309052430297 4435.641991827330457 13998.97724395725527 
	12365.13090524302788 4435.642664143819275 13999.48857049259641 
	12365.13090524303334 4435.642856231995211 13999.78075725315102 
	12365.13090524303152 4435.642888246756229 13999.92685066151716 
	12365.13090524303152 4435.642888246549774 13999.99989736561474 
	12448.46423857624359 4435.642888246550683 13999.99989736561474 
	12448.46423857624359 4435.64288824490086 14000.58427099839355 
	12448.46423857623995 4435.64083927050342 14001.75301825290262 
	12448.46423857624359 4435.628545536487763 14004.09048405187605 
	12448.46423857625086 4435.585518023255645 14008.18089820571186 
	12448.46423857627997 4435.413413784018303 14016.36051998289986 
	12448.46423857637637 4434.725109012431858 14032.71010575509536 
	12448.46423857669106 4432.759721810750307 14056.01151337252486 
	12448.46423857699483 4428.836938799417112 14083.7969248274967 
	12448.46423857733134 4421.538049299424529 14120.49272046011902 
	12448.46423857847913 4408.575887862200943 14165.48628742547407 
	12448.46423857942864 4387.073417877734755 14217.39737814592991 
	12448.46423858056369 4359.894190647998585 14266.57466629238479 
	12448.46423858146591 4327.379550525804916 14312.39944897225723 
	12448.4642385827392 4289.938883387906571 14354.29596449309611 
	12448.46423858287926 4249.59417372176722 14390.34989776936345 
	12448.46423858408889 4207.365984110138925 14420.70969585503008 
	12448.46423858418166 4164.126545218316096 14445.67388302369727 
	12448.46423858451817 4122.408875417117997 14464.49777425319371 
	12448.46423858483286 4083.157750426764323 14478.23157568439274 
	12448.46423858528215 4034.956956340439319 14491.14854351359099 
	12448.46423858600247 3973.147687630860219 14500.46604396147632 
	12448.46423858742492 3898.137915685328153 14500.46568727081649 
	12448.46423858878006 3836.328573653764124 14491.14877437203177 
	12448.46423858926937 3788.127670513375506 14478.23214043029839 
	12448.4642385899042 3752.801773644757759 14465.87139673249112 
	12448.46423859030801 3718.498432652099382 14450.90486577781121 
	12448.46423859153037 3690.924291620516215 14436.331509043388 
	12448.4642385917432 3669.564630228389433 14423.460953417989 
	12448.46423859210336 3653.91696913803662 14413.21588009476909 
	12448.46423859223614 3638.663366795779893 14402.39283027100646 
	12448.4642385926345 3618.878962947286254 14387.21181043185607 
	12448.46423859379138 3595.238975469600973 14366.86805044978973 
	12448.4642385950865 3573.185474728064037 14344.81446118388158 
	12448.4642385954794 3556.56842525567572 14326.21984840324694 
	12448.46423859607421 3540.658132428210138 14307.01702031542482 
	12448.46423859699644 3522.137798648412172 14281.92290212163243 
	12448.46423859776405 3502.22597741736854 14250.2333035668762 
	12448.46423859911192 3482.794657533867394 14213.46783063170733 
	12448.46423860087998 3465.01662739450876 14171.29390866812901 
	12448.4642386029409 3450.300144248568813 14123.58337184742959 
	12448.4642386068972 3442.055856727043647 14082.80119356274008 
	12448.46423860824689 3438.437929955421168 14053.92909740902542 
	12448.46423860855793 3436.989108854742426 14037.36888470955091 
	12448.46423860934192 3435.435647053026514 14012.48209388205396 
	12448.46423861241783 3435.435874078520101 13983.35710271184507 
	12448.4642386130763 3437.610565504151509 13954.34060132094783 
	12448.46423861358744 3439.239115446272535 13939.8865200520504 
	12448.46423861369476 3440.18835191168273 13932.67638870684095 
	12448.46423861373296 3440.696646469274128 13929.07597126332439 
	12448.46423861373296 3440.959203990224978 13927.27697638396057 
	12448.46423861374387 3441.111643365500186 13926.24933453743688 
	12448.46423861313087 3444.885362073605847 13901.07790990533795 
	12448.46423860817413 3456.070935936964815 13852.07166373101245 
	12448.46423860439791 3483.474537619724288 13782.24702048637664 
	12448.46423859987044 3514.729011464137784 13728.1141317897509 
	12448.46423859890456 3540.658416043542275 13692.98300165246292 
	12448.46423859830793 3556.568501284878039 13673.78005089110047 
	12448.46423859742572 3575.955036198976813 13652.08632745856812 
	12448.46423859588685 3604.250865719021931 13624.48705998361947 
	12448.46423859417155 3643.286735517145644 13593.35747810420617 
	12448.46423859299284 3692.217606220818197 13561.7527921422261 
	12448.46423859138486 3741.026200765934846 13538.24843296039944 
	12448.46423859085189 3788.127981236371852 13521.76848756427353 
	12448.46423859019706 3830.303636339652257 13510.46667889271885 
	12448.4642385891766 3879.543065896120424 13502.10050131138632 
	12448.4642385881798 3935.642855037945537 13498.95002504780496 
	12448.46423858727212 3991.742668508952647 13502.1004669966278 
	12448.46423858642447 4040.982062767279331 13510.46666409650788 
	12448.46423858602429 4083.157784211498893 13521.76837609783615 
	12448.46423858578055 4130.259314439607806 13538.24872342031813 
	12448.46423858504204 4186.577565151983435 13565.36821662069633 
	12448.46423858389426 4231.767656577232628 13596.17954264194123 
	12448.4642385836687 4258.271176523217946 13617.93118870375474 
	12448.46423858355229 4272.389466352310592 13630.19621427898892 
	12448.4642385834577 4296.178888679483862 13652.68682879831431 
	12448.46423858265007 4327.38001112648999 13687.59995536204224 
	12448.46423858136404 4359.89424101457189 13733.42513329189023 
	12448.46423858027265 4387.073631963587104 13782.60228510450179 
	12448.46423857896843 4408.575819033056177 13834.51349478384509 
	12448.46423857793343 4424.130775652499324 13888.5057221105908 
	12448.46423857662376 4431.189516214532887 13930.0514900123253 
	12448.46423857645095 4433.938947339835977 13957.96912717590203 
	12448.4642385763691 4434.921783890280494 13971.9609950879003 
	12448.46423857627815 4435.413411702138546 13983.63927527250962 
	12448.46423857624359 4435.585519001107969 13991.81889630473597 
	12448.46423857624541 4435.628545510482581 13995.90931069083308 
	12448.46423857623449 4435.639302613254586 13997.95459323902469 
	12448.46423857624359 4435.641991827331367 13998.97724395725527 
	12448.46423857623813 4435.642664143820184 13999.48857049259641 
	12448.46423857624177 4435.64285623199612 13999.78075725315102 
	12448.46423857624359 4435.642888246757138 13999.92685066151716 
	12448.46423857624359 4435.642888246550683 13999.99989736561474 
	12531.79757190957753 4435.642888246550683 13999.99989736561474 
	12531.79757190957753 4435.64288824490086 14000.58427099839355 
	12531.79757190957389 4435.64083927050342 14001.75301825290262 
	12531.79757190957753 4435.628545536487763 14004.09048405187605 
	12531.7975719095848 4435.585518023255645 14008.18089820571186 
	12531.79757190961391 4435.413413784018303 14016.36051998289986 
	12531.79757190971031 4434.725109012431858 14032.71010575509536 
	12531.797571910025 4432.759721810750307 14056.01151337252486 
	12531.79757191032877 4428.836938799417112 14083.7969248274967 
	12531.79757191066528 4421.538049299424529 14120.49272046011902 
	12531.79757191181307 4408.575887862200943 14165.48628742547407 
	12531.79757191276258 4387.073417877734755 14217.39737814592991 
	12531.79757191389763 4359.894190647998585 14266.57466629238479 
	12531.79757191479985 4327.379550525804916 14312.39944897225723 
	12531.79757191607314 4289.938883387906571 14354.29596449309611 
	12531.7975719162132 4249.59417372176722 14390.34989776936345 
	12531.79757191742283 4207.365984110138925 14420.70969585503008 
	12531.7975719175156 4164.126545218316096 14445.67388302369727 
	12531.79757191785211 4122.408875417117997 14464.49777425319371 
	12531.7975719181668 4083.157750426763869 14478.23157568439274 
	12531.79757191861609 4034.956956340438865 14491.14854351359099 
	12531.79757191933641 3973.147687630859764 14500.46604396147632 
	12531.79757192075886 3898.137915685327698 14500.46568727081649 
	12531.797571922114 3836.328573653763669 14491.14877437203177 
	12531.79757192260331 3788.127670513375051 14478.23214043029839 
	12531.79757192323814 3752.801773644757304 14465.87139673249112 
	12531.79757192364195 3718.498432652098927 14450.90486577781121 
	12531.79757192486431 3690.92429162051576 14436.331509043388 
	12531.79757192507714 3669.564630228388978 14423.460953417989 
	12531.7975719254373 3653.916969138036166 14413.21588009476909 
	12531.79757192557008 3638.663366795779439 14402.39283027100646 
	12531.79757192596844 3618.8789629472858 14387.21181043185607 
	12531.79757192712532 3595.238975469600518 14366.86805044978973 
	12531.79757192842044 3573.185474728063582 14344.81446118388158 
	12531.79757192881334 3556.568425255675265 14326.21984840324694 
	12531.79757192940815 3540.658132428209683 14307.01702031542482 
	12531.79757193033038 3522.137798648411717 14281.92290212163243 
	12531.79757193109799 3502.225977417368085 14250.2333035668762 
	12531.79757193244586 3482.794657533866939 14213.46783063170733 
	12531.79757193421392 3465.016627394508305 14171.29390866812901 
	12531.79757193627484 3450.300144248568358 14123.58337184742959 
	12531.79757194023114 3442.055856727043192 14082.80119356274008 
	12531.79757194158083 3438.437929955420714 14053.92909740902542 
	12531.79757194189187 3436.989108854741971 14037.36888470955091 
	12531.79757194267586 3435.435647053026059 14012.48209388205396 
	12531.79757194575177 3435.435874078519646 13983.35710271184507 
	12531.79757194641024 3437.610565504151054 13954.34060132094783 
	12531.79757194692138 3439.239115446272081 13939.8865200520504 
	12531.7975719470287 3440.188351911682275 13932.67638870684095 
	12531.7975719470669 3440.696646469273674 13929.07597126332439 
	12531.7975719470669 3440.959203990224523 13927.27697638396057 
	12531.79757194707781 3441.111643365499731 13926.24933453743688 
	12531.79757194646481 3444.885362073605393 13901.07790990533795 
	12531.79757194150807 3456.070935936964361 13852.07166373101245 
	12531.79757193773185 3483.474537619723833 13782.24702048637664 
	12531.79757193320438 3514.729011464137329 13728.1141317897509 
	12531.7975719322385 3540.65841604354182 13692.98300165246292 
	12531.79757193164187 3556.568501284877584 13673.78005089110047 
	12531.79757193075966 3575.955036198976359 13652.08632745856812 
	12531.79757192922079 3604.250865719021476 13624.48705998361947 
	12531.79757192750549 3643.286735517145189 13593.35747810420617 
	12531.79757192632678 3692.217606220817743 13561.7527921422261 
	12531.7975719247188 3741.026200765934391 13538.24843296039944 
	12531.79757192418583 3788.127981236371397 13521.76848756427353 
	12531.797571923531 3830.303636339651803 13510.46667889271885 
	12531.79757192251054 3879.54306589611997 13502.10050131138632 
	12531.79757192151374 3935.642855037945083 13498.95002504780496 
	12531.79757192060606 3991.742668508952192 13502.1004669966278 
	12531.79757191975841 4040.982062767278876 13510.46666409650788 
	12531.79757191935823 4083.157784211498438 13521.76837609783615 
	12531.79757191911449 4130.259314439607806 13538.24872342031813 
	12531.79757191837598 4186.577565151983435 13565.36821662069633 
	12531.7975719172282 4231.767656577232628 13596.17954264194123 
	12531.79757191700264 4258.271176523217946 13617.93118870375474 
	12531.79757191688623 4272.389466352310592 13630.19621427898892 
	12531.79757191679164 4296.178888679483862 13652.68682879831431 
	12531.79757191598401 4327.38001112648999 13687.59995536204224 
	12531.79757191469798 4359.89424101457189 13733.42513329189023 
	12531.79757191360659 4387.073631963587104 13782.60228510450179 
	12531.79757191230237 4408.575819033056177 13834.51349478384509 
	12531.79757191126737 4424.130775652499324 13888.5057221105908 
	12531.7975719099577 4431.189516214532887 13930.0514900123253 
	12531.79757190978489 4433.938947339835977 13957.96912717590203 
	12531.79757190970304 4434.921783890280494 13971.9609950879003 
	12531.79757190961209 4435.413411702138546 13983.63927527250962 
	12531.79757190957753 4435.585519001107969 13991.81889630473597 
	12531.79757190957935 4435.628545510482581 13995.90931069083308 
	12531.79757190956843 4435.639302613254586 13997.95459323902469 
	12531.79757190957753 4435.641991827331367 13998.97724395725527 
	12531.79757190957207 4435.642664143820184 13999.48857049259641 
	12531.79757190957571 4435.64285623199612 13999.78075725315102 
	12531.79757190957753 4435.642888246757138 13999.92685066151716 
	12531.79757190957753 4435.642888246550683 13999.99989736561474 
	0 
	
	0 
	0 
	88 0 0.0005580357142857142547 0.002232142857142857019 0.004464285714285714038 0.008928571428571428076 0.01785714285714285615 0.02678571428571428423 0.0357142857142857123 0.05357142857142856845 0.07142857142857142461 0.08928571428571427382 0.1071428571428571369 0.125 0.1428571428571428492 0.1587301587301587213 0.1746031746031745935 0.1904761904761904656 0.2023809523809523836 0.2142857142857142738 0.238095238095238082 0.2619047619047618625 0.2857142857142856984 0.2976190476190476164 0.3095238095238095344 0.3214285714285713969 0.3333333333333333148 0.3392857142857143016 0.3452380952380952328 0.351190476190476164 0.3571428571428570953 0.3690476190476190133 0.3809523809523809312 0.3869047619047618625 0.3928571428571428492 0.4047619047619047672 0.4166666666666666297 0.4285714285714285476 0.4444444444444444198 0.4603174603174602919 0.476190476190476164 0.4841269841269840724 0.4880952380952380265 0.4920634920634920362 0.5079365079365079083 0.5158730158730158166 0.5198412698412697708 0.5218253968253967479 0.5228174603174602364 0.5233134920634919807 0.5235615079365079083 0.5238095238095237249 0.5476190476190475609 0.5714285714285713969 0.5952380952380951218 0.6071428571428569843 0.6130952380952379155 0.6190476190476189577 0.6349206349206348854 0.650793650793650702 0.6666666666666666297 0.6904761904761904656 0.7023809523809523281 0.7142857142857141906 0.7321428571428569843 0.749999999999999889 0.7678571428571427937 0.7857142857142855874 0.7976190476190474499 0.8095238095238094234 0.8333333333333332593 0.8571428571428570953 0.8616071428571427937 0.8660714285714286031 0.875 0.8928571428571427937 0.9107142857142856984 0.9285714285714286031 0.9464285714285713969 0.9642857142857143016 0.9821428571428572063 0.9866071428571429047 0.9910714285714286031 0.9977678571428572063 0.9988839285714286031 0.9994419642857143016 0.9997209821428572063 0.9998604910714286031 0.9999302455357143016 
	0 
	0 
	0 
	F 1 F 0 F 1 F 0 } I I I I #
tcoedge-coedge $-1 -1 $-1 $14 $14 $18 $19 reversed $9 $20 -6.283185307179586232 -0 #
tcoedge-coedge $-1 -1 $-1 $21 $22 $11 $16 reversed $12 $23 -6.283185307179586232 -0 #
tedge-edge $-1 -1 $-1 $24 0 $24 6.283185307179586232 $15 $25 forward @7 unknown 0.0007143482928108245899 #
pcurve $-1 -1 $-1 0 forward { exppc nurbs 2 periodic 5 
	0 2 1.570796326794896558 2 3.141592653589793116 2 4.712388980384689674 2 6.283185307179586232 2 
	0 500 1 
	-500 500 0.707106781186543798 
	-500 0 1 
	-500 -500 0.7071067811865463515 
	0 -500 1 
	500 -500 0.7071067811865463515 
	500 0 1 
	500 500 0.707106781186543798 
	0 500 1 
	0 
	plane 12531.79757191538738 3935.642797989772589 14000.00000000000182 1 -3.637978807091713027e-15 0 0 0 -1 forward_v I I I I 
	} 0 0 #
tcoedge-coedge $-1 -1 $-1 $22 $21 $14 $19 forward $12 $26 0 6.283185307179586232 #
tedge-edge $-1 -1 $-1 $27 0 $27 6.283185307179586232 $18 $28 forward @7 unknown 0.0007143482928011702033 #
pcurve $-1 -1 $-1 0 forward { exppc nurbs 2 periodic 5 
	-6.283185307179586232 2 -4.712388980384689674 2 -3.141592653589793116 2 -1.570796326794896558 2 0 2 
	0 500 1 
	500 500 0.707106781186543798 
	500 0 1 
	500 -500 0.7071067811865463515 
	0 -500 1 
	-500 -500 0.7071067811865463515 
	-500 0 1 
	-500 500 0.707106781186543798 
	0 500 1 
	0 
	plane 12281.79757191538738 3935.642797989773499 14000.00000000000182 -1 3.637978807091713027e-15 -0 0 0 -1 reverse_v I I I I 
	} 0 0 #
coedge $-1 -1 $-1 $18 $15 $22 $29 reversed $12 $30 #
coedge $-1 -1 $-1 $15 $18 $21 $29 forward $12 $31 #
pcurve $-1 -1 $-1 0 forward { exppc nubs 1 periodic 2 
	-6.283185307179586232 1 -0 1 
	1 1 
	0 1 
	2.726396620975368931e-13 
	spline forward { ref 0 } I I I I 
	} 0 0 #
tvertex-vertex $-1 -1 $-1 $16 $32 0.0001366751849082863297 #
ellipse-curve $-1 -1 $-1 12531.79757191538738 3935.642797989772589 14000.00000000000182 1 -3.637978807091713027e-15 0 1.818989403545856476e-12 500 0 1 I I #
pcurve $-1 -1 $-1 0 forward { exppc nubs 1 periodic 2 
	0 1 6.283185307179586232 1 
	0 0 
	1 0 
	4.4114023995510105e-13 
	spline forward { ref 0 } I I I I 
	} 0 0 #
tvertex-vertex $-1 -1 $-1 $19 $33 0.0001366751843026272251 #
ellipse-curve $-1 -1 $-1 12281.79757191538738 3935.642797989773499 14000.00000000000182 1 -3.637978807091713027e-15 0 1.818989403545856476e-12 500 0 1 I I #
edge $-1 -1 $-1 $27 2.276646882294606425e-11 $24 1 $22 $34 forward @7 tangent #
pcurve $-1 -1 $-1 -1 $34 0 0 #
pcurve $-1 -1 $-1 1 $34 1 0 #
point $-1 -1 $-1 12531.7975719153892 4435.642797989772589 14000.00000000000182 #
point $-1 -1 $-1 12281.7975719153892 4435.642797989773499 14000.00000000000182 #
intcurve-curve $-1 -1 $-1 forward { parcur full nubs 3 open 2 
	0 3 1 3 
	12281.79757190969758 4435.642888246550683 13999.99989736561474 
	12365.13090524303152 4435.642888246549774 13999.99989736561474 
	12448.46423857624359 4435.642888246550683 13999.99989736561474 
	12531.79757190957753 4435.642888246550683 13999.99989736561474 
	0 
	
	spline forward { ref 0 } I I I I 
	null_surface 
	nubs 1 open 2 
	0 1 1 1 
	0 0 
	0 1 
	
	nullbs 
	I I 
	0 
	0 
	0 
	surf1 } F 2.276646882294606425e-11 F 1 #
End-of-ACIS-data 