700 0 1 0           
4 LibG 20 ASM 224.0.1.65535 NT 24 Wed Jul 17 14:48:16 2019 
1000 9.999999999999999547e-07 1.000000000000000036e-10 
body $-1 -1 $-1 $1 $-1 $2 #
lump $-1 -1 $-1 $-1 $3 $0 #
transform $-1 -1 1 0 0 0 1 0 0 0 1 0 0 0 1 no_rotate no_reflect no_shear #
shell $-1 -1 $-1 $-1 $-1 $4 $-1 $1 #
face $-1 -1 $-1 $5 $6 $3 $-1 $7 forward single #
face $-1 -1 $-1 $8 $9 $3 $-1 $10 reversed single #
loop $-1 -1 $-1 $-1 $11 $4 #
plane-surface $-1 -1 $-1 17531.79757191538738 3935.642797989754399 14000.00000000000182 1 -3.637978807091713027e-15 0 0 0 -1 forward_v I I I I #
face $-1 -1 $-1 $-1 $12 $3 $-1 $13 forward single #
loop $-1 -1 $-1 $-1 $14 $5 #
plane-surface $-1 -1 $-1 17281.79757191538738 3935.642797989755309 14000.00000000000182 1 -3.637978807091713027e-15 0 0 0 -1 forward_v I I I I #
tcoedge-coedge $-1 -1 $-1 $11 $11 $15 $16 forward $6 $17 0 6.283185307179586232 #
loop $-1 -1 $-1 $-1 $18 $8 #
spline-surface $-1 -1 $-1 forward { exactsur full nubs 3 3 periodic open none none 84 2 
	0 3 0.001116071428571428509 1 0.002232142857142857019 1 0.004464285714285714038 1 0.008928571428571428076 1 
	0.01785714285714285615 1 0.02678571428571428423 1 0.0357142857142857123 1 0.05357142857142856845 1 0.07142857142857142461 1 
	0.08928571428571427382 1 0.1071428571428571369 1 0.125 1 0.1428571428571428492 1 0.1587301587301587213 1 
	0.1825396825396825295 1 0.1904761904761904656 1 0.2023809523809523836 1 0.2142857142857142738 1 0.238095238095238082 1 
	0.2619047619047618625 1 0.2857142857142856984 1 0.2976190476190476164 1 0.3095238095238095344 1 0.3214285714285713969 1 
	0.3333333333333333148 1 0.3392857142857143016 1 0.3452380952380952328 1 0.3571428571428570953 1 0.3630952380952380265 1 
	0.3690476190476190133 1 0.3809523809523809312 1 0.3928571428571428492 1 0.4047619047619047672 1 0.4166666666666666297 1 
	0.4285714285714285476 1 0.4444444444444444198 1 0.4603174603174602919 1 0.476190476190476164 1 0.4781746031746031411 1 
	0.4791666666666666297 1 0.4801587301587301182 1 0.4841269841269840724 1 0.4920634920634920362 1 0.5 1 
	0.5039682539682539542 1 0.5079365079365079083 1 0.5238095238095237249 1 0.5476190476190475609 1 0.5595238095238095344 1 
	0.5654761904761904656 1 0.5714285714285713969 1 0.5952380952380951218 1 0.6190476190476189577 1 0.6349206349206348854 1 
	0.650793650793650702 1 0.6666666666666666297 1 0.6904761904761904656 1 0.7142857142857141906 1 0.7321428571428569843 1 
	0.749999999999999889 1 0.7678571428571427937 1 0.7857142857142855874 1 0.8095238095238094234 1 0.8214285714285713969 1 
	0.8333333333333332593 1 0.8452380952380951218 1 0.8571428571428570953 1 0.875 1 0.8928571428571427937 1 
	0.9107142857142856984 1 0.9285714285714286031 1 0.9464285714285713969 1 0.9642857142857143016 1 0.9732142857142858094 1 
	0.9821428571428572063 1 0.9910714285714286031 1 0.9955357142857143016 1 0.9977678571428572063 1 0.9988839285714286031 1 
	0.9994419642857143016 1 0.9997209821428572063 1 0.9998604910714286031 1 1 3 
	0 3 1 3 
	17281.79757208992669 4435.642811883653849 14000.00005206312744 
	17281.79757208991214 4435.642811882101341 14001.16879931771473 
	17281.79757208979572 4435.634615979180126 14003.5062937243365 
	17281.79757208967931 4435.585441771821024 14008.18105267726423 
	17281.79757208911178 4435.413337868811141 14016.36067388489755 
	17281.7975720872746 4434.725034373569542 14032.7102581605759 
	17281.79757208140654 4432.759650635279286 14056.011659772028 
	17281.79757207593866 4428.836872018215217 14083.79706779378648 
	17281.79757206984141 4421.537984435710314 14120.49285382992093 
	17281.7975720501272 4408.575845001669222 14165.48641983374 
	17281.79757203406552 4387.073367142782445 14217.39745929090714 
	17281.79757201615575 4359.894194964790586 14266.57481316239864 
	17281.79757200139284 4327.379473584820516 14312.39940445847424 
	17281.79757198449806 4289.939023667249785 14354.29629996720905 
	17281.79757197997242 4249.593978162932217 14390.34957258991744 
	17281.79757196995342 4200.610232716704559 14425.5687591037622 
	17281.79757196748687 4156.693792323710113 14449.48396193984991 
	17281.79757196513674 4114.558372051445986 14467.24402375433056 
	17281.79757196353967 4083.157842042348875 14478.23174606308385 
	17281.79757196050195 4034.956828140298057 14491.14829298796576 
	17281.79757195709317 3973.147709226506777 14500.46606873098426 
	17281.79757195102502 3898.137882609084045 14500.46554973736784 
	17281.7975719465212 3836.328572516119948 14491.14873799793895 
	17281.79757194546983 3788.127684000535282 14478.23201638741193 
	17281.79757194325066 3752.801745257967468 14465.87146875145299 
	17281.7975719416354 3718.498436928439332 14450.90481886518137 
	17281.79757193988553 3690.924287399482637 14436.33151309210916 
	17281.7975719393944 3669.564641039375147 14423.46092884687278 
	17281.79757193899422 3648.701064807009971 14409.80087975184142 
	17281.79757193825208 3628.625731888829705 14394.98467811491173 
	17281.79757193777186 3609.422918318238317 14379.07436369833158 
	17281.79757193747355 3590.828300282605596 14362.45732442432382 
	17281.7975719363385 3568.774725225670409 14340.40380498010381 
	17281.79757193557452 3544.362196186390065 14312.03585291564377 
	17281.79757193446858 3522.137750332383348 14281.92292651283788 
	17281.79757193411206 3502.226014504659361 14250.23327652375883 
	17281.79757193330079 3482.794618603493291 14213.46783597969261 
	17281.79757193258411 3465.016765796910022 14171.29380905164544 
	17281.79757193225305 3450.30026167239248 14123.58331091991386 
	17281.79757193163459 3443.292570959629757 14088.91843468461775 
	17281.7975719315873 3440.472380435994182 14069.38170582486964 
	17281.79757193158366 3439.917127872516176 14065.26340244822495 
	17281.79757193158002 3439.122779475637799 14059.08087404648359 
	17281.79757193153637 3437.610507967815465 14045.65922682764176 
	17281.79757193146361 3436.057280061512301 14024.93314383831239 
	17281.79757193140904 3435.539132737979799 14004.15541302421843 
	17281.79757193140176 3435.746364652432476 13987.53321699053231 
	17281.7975719314345 3436.678750828055854 13962.61547928610526 
	17281.79757193155092 3441.234331874298732 13917.07468916645666 
	17281.79757193217301 3453.289084458576326 13864.25971610704619 
	17281.79757193244586 3467.711519745425903 13823.04648814065695 
	17281.79757193254409 3477.254715814885003 13800.00714480172064 
	17281.79757193274054 3492.851232528622404 13766.00725133035121 
	17281.79757193447949 3520.978848802782522 13717.28661137507333 
	17281.79757193620753 3562.551099987663747 13665.15888444912889 
	17281.79757193783735 3604.25089716443199 13624.48694776232514 
	17281.79757193833211 3643.286734697734573 13593.35726632847218 
	17281.79757193998012 3692.217784382651189 13561.75299398172319 
	17281.79757194210833 3752.289594276405296 13532.82328671227697 
	17281.79757194676858 3817.993889148059679 13512.55745083848888 
	17281.79757195004277 3879.54324304251486 13502.10063732928575 
	17281.79757195350612 3935.643093170910561 13498.94953613838334 
	17281.79757195718776 3991.742733395509276 13502.10071659330788 
	17281.79757196200808 4053.292504217466103 13512.55668041183162 
	17281.7975719674796 4107.049676925971653 13529.13952976280416 
	17281.79757196886931 4152.787052938376291 13549.09588321543015 
	17281.79757197175422 4185.876207481426718 13566.58339261153196 
	17281.79757197477375 4217.565626282437734 13586.49554930396334 
	17281.79757197844083 4252.697640842170586 13612.4235994929204 
	17281.79757198572042 4289.938959519744458 13645.70411733184119 
	17281.7975719953829 4327.379723537166683 13687.6004830789534 
	17281.79757200184031 4359.894253216132711 13733.42535489265174 
	17281.79757202534893 4387.073368850141378 13782.60266325815792 
	17281.79757204369889 4408.575868214104958 13834.51370401053282 
	17281.79757206710565 4421.537988074545865 13879.50725559576676 
	17281.79757207406874 4428.836876806497457 13916.20304040713927 
	17281.79757208038791 4432.759652588751123 13943.98844611036657 
	17281.79757208701267 4434.725035175772973 13967.28984642302021 
	17281.79757208911542 4435.413338040813869 13983.63943023779211 
	17281.79757208971932 4435.585441840814383 13991.81905140526942 
	17281.79757208987576 4435.628469223685897 13995.90946542384154 
	17281.79757208991577 4435.63922621805068 13997.95474795829614 
	17281.79757208993033 4435.641915465639613 13998.97739865938638 
	17281.79757208993033 4435.642683823301923 13999.56177184105582 
	17281.79757208992669 4435.642811883847571 13999.8539586563038 
	17281.79757208992669 4435.642811883653849 14000.00005206312744 
	17365.13090542325881 4435.642811883652939 14000.00005206312744 
	17365.13090542324426 4435.642811882100432 14001.16879931771473 
	17365.13090542312784 4435.634615979179216 14003.5062937243365 
	17365.13090542301143 4435.585441771820115 14008.18105267726423 
	17365.1309054224439 4435.413337868810231 14016.36067388489755 
	17365.13090542060672 4434.725034373568633 14032.7102581605759 
	17365.13090541473866 4432.759650635278376 14056.011659772028 
	17365.13090540927078 4428.836872018214308 14083.79706779378648 
	17365.13090540317353 4421.537984435709404 14120.49285382992093 
	17365.13090538345932 4408.575845001668313 14165.48641983374 
	17365.13090536739765 4387.073367142781535 14217.39745929090714 
	17365.13090534948788 4359.894194964789676 14266.57481316239864 
	17365.13090533472496 4327.379473584819607 14312.39940445847424 
	17365.13090531783018 4289.939023667248875 14354.29629996720905 
	17365.13090531330454 4249.593978162931307 14390.34957258991744 
	17365.13090530328554 4200.610232716703649 14425.5687591037622 
	17365.13090530081899 4156.693792323709204 14449.48396193984991 
	17365.13090529846886 4114.558372051445076 14467.24402375433056 
	17365.13090529687179 4083.15784204234842 14478.23174606308385 
	17365.13090529383408 4034.956828140297603 14491.14829298796576 
	17365.13090529042529 3973.147709226506322 14500.46606873098426 
	17365.13090528435714 3898.13788260908359 14500.46554973736784 
	17365.13090527985332 3836.328572516119493 14491.14873799793895 
	17365.13090527880195 3788.127684000534828 14478.23201638741193 
	17365.13090527658278 3752.801745257967013 14465.87146875145299 
	17365.13090527496752 3718.498436928438878 14450.90481886518137 
	17365.13090527321765 3690.924287399482182 14436.33151309210916 
	17365.13090527272652 3669.564641039374692 14423.46092884687278 
	17365.13090527232634 3648.701064807009516 14409.80087975184142 
	17365.1309052715842 3628.62573188882925 14394.98467811491173 
	17365.13090527110398 3609.422918318237862 14379.07436369833158 
	17365.13090527080567 3590.828300282605142 14362.45732442432382 
	17365.13090526967062 3568.774725225669954 14340.40380498010381 
	17365.13090526890664 3544.36219618638961 14312.03585291564377 
	17365.1309052678007 3522.137750332382893 14281.92292651283788 
	17365.13090526744418 3502.226014504658906 14250.23327652375883 
	17365.13090526663291 3482.794618603492836 14213.46783597969261 
	17365.13090526591623 3465.016765796909567 14171.29380905164544 
	17365.13090526558517 3450.300261672392026 14123.58331091991386 
	17365.13090526496671 3443.292570959629302 14088.91843468461775 
	17365.13090526491942 3440.472380435993728 14069.38170582486964 
	17365.13090526491578 3439.917127872515721 14065.26340244822495 
	17365.13090526491214 3439.122779475637344 14059.08087404648359 
	17365.13090526486849 3437.61050796781501 14045.65922682764176 
	17365.13090526479573 3436.057280061511847 14024.93314383831239 
	17365.13090526474116 3435.539132737979344 14004.15541302421843 
	17365.13090526473388 3435.746364652432021 13987.53321699053231 
	17365.13090526476662 3436.678750828055399 13962.61547928610526 
	17365.13090526488304 3441.234331874298277 13917.07468916645666 
	17365.13090526550513 3453.289084458575871 13864.25971610704619 
	17365.13090526577798 3467.711519745425448 13823.04648814065695 
	17365.13090526587621 3477.254715814884548 13800.00714480172064 
	17365.13090526607266 3492.851232528621949 13766.00725133035121 
	17365.13090526781161 3520.978848802782068 13717.28661137507333 
	17365.13090526953965 3562.551099987663292 13665.15888444912889 
	17365.13090527116947 3604.250897164431535 13624.48694776232514 
	17365.13090527166423 3643.286734697734119 13593.35726632847218 
	17365.13090527331224 3692.217784382650734 13561.75299398172319 
	17365.13090527544045 3752.289594276404841 13532.82328671227697 
	17365.13090528010071 3817.993889148059225 13512.55745083848888 
	17365.13090528337489 3879.543243042514405 13502.10063732928575 
	17365.13090528683824 3935.643093170910106 13498.94953613838334 
	17365.13090529051988 3991.742733395508822 13502.10071659330788 
	17365.1309052953402 4053.292504217465648 13512.55668041183162 
	17365.13090530081172 4107.049676925970743 13529.13952976280416 
	17365.13090530220143 4152.787052938375382 13549.09588321543015 
	17365.13090530508634 4185.876207481425809 13566.58339261153196 
	17365.13090530810587 4217.565626282436824 13586.49554930396334 
	17365.13090531177295 4252.697640842169676 13612.4235994929204 
	17365.13090531905254 4289.938959519743548 13645.70411733184119 
	17365.13090532871502 4327.379723537165773 13687.6004830789534 
	17365.13090533517243 4359.894253216131801 13733.42535489265174 
	17365.13090535868105 4387.073368850140469 13782.60266325815792 
	17365.13090537703101 4408.575868214104048 13834.51370401053282 
	17365.13090540043777 4421.537988074544955 13879.50725559576676 
	17365.13090540740086 4428.836876806496548 13916.20304040713927 
	17365.13090541372003 4432.759652588750214 13943.98844611036657 
	17365.13090542034479 4434.725035175772064 13967.28984642302021 
	17365.13090542244754 4435.41333804081296 13983.63943023779211 
	17365.13090542305144 4435.585441840813473 13991.81905140526942 
	17365.13090542320788 4435.628469223684988 13995.90946542384154 
	17365.1309054232479 4435.639226218049771 13997.95474795829614 
	17365.13090542326245 4435.641915465638704 13998.97739865938638 
	17365.13090542326245 4435.642683823301013 13999.56177184105582 
	17365.13090542325881 4435.642811883846662 13999.8539586563038 
	17365.13090542325881 4435.642811883652939 14000.00005206312744 
	17448.46423875912296 4435.642811883652939 14000.00005206312744 
	17448.46423875910477 4435.642811882101341 14001.16879931771473 
	17448.46423875898836 4435.634615979179216 14003.5062937243365 
	17448.46423875886467 4435.585441771820115 14008.18105267726423 
	17448.46423875829714 4435.413337868810231 14016.36067388489755 
	17448.46423875642722 4434.725034373568633 14032.7102581605759 
	17448.46423875047913 4432.759650635279286 14056.011659772028 
	17448.46423874493121 4428.836872018214308 14083.79706779378648 
	17448.46423873875028 4421.537984435710314 14120.49285382992093 
	17448.46423871874504 4408.575845001668313 14165.48641983374 
	17448.46423870245417 4387.073367142781535 14217.39745929090714 
	17448.4642386842861 4359.894194964790586 14266.57481316239864 
	17448.46423866930854 4327.379473584820516 14312.39940445847424 
	17448.46423865216639 4289.939023667249785 14354.29629996720905 
	17448.46423864757526 4249.593978162932217 14390.34957258991744 
	17448.46423863741438 4200.610232716704559 14425.5687591037622 
	17448.46423863490782 4156.693792323710113 14449.48396193984991 
	17448.4642386325213 4114.558372051445986 14467.24402375433056 
	17448.4642386309024 4083.15784204234933 14478.23174606308385 
	17448.46423862782103 4034.956828140298512 14491.14829298796576 
	17448.46423862436495 3973.147709226507232 14500.46606873098426 
	17448.46423861820949 3898.137882609084045 14500.46554973736784 
	17448.46423861363655 3836.328572516119493 14491.14873799793895 
	17448.4642386125779 3788.127684000534828 14478.23201638741193 
	17448.46423861032599 3752.801745257966559 14465.87146875145299 
	17448.46423860868163 3718.498436928438423 14450.90481886518137 
	17448.46423860690993 3690.924287399482182 14436.33151309210916 
	17448.46423860640789 3669.564641039374692 14423.46092884687278 
	17448.46423860600407 3648.701064807009516 14409.80087975184142 
	17448.46423860525101 3628.62573188882925 14394.98467811491173 
	17448.46423860476716 3609.422918318237407 14379.07436369833158 
	17448.46423860446521 3590.828300282604687 14362.45732442432382 
	17448.46423860331197 3568.774725225669044 14340.40380498010381 
	17448.46423860253708 3544.362196186388701 14312.03585291564377 
	17448.46423860141658 3522.137750332382439 14281.92292651283788 
	17448.46423860105642 3502.226014504658451 14250.23327652375883 
	17448.46423860023424 3482.794618603493291 14213.46783597969261 
	17448.46423859950664 3465.016765796909567 14171.29380905164544 
	17448.46423859917195 3450.300261672392935 14123.58331091991386 
	17448.46423859853894 3443.292570959629302 14088.91843468461775 
	17448.46423859849529 3440.472380435993728 14069.38170582486964 
	17448.46423859849165 3439.917127872515721 14065.26340244822495 
	17448.46423859848801 3439.122779475637344 14059.08087404648359 
	17448.46423859844072 3437.610507967814556 14045.65922682764176 
	17448.46423859836432 3436.057280061511847 14024.93314383831239 
	17448.46423859830975 3435.539132737978889 14004.15541302421843 
	17448.46423859830247 3435.746364652431566 13987.53321699053231 
	17448.46423859833521 3436.678750828055399 13962.61547928610526 
	17448.46423859845527 3441.234331874297823 13917.07468916645666 
	17448.46423859908828 3453.289084458575417 13864.25971610704619 
	17448.4642385993684 3467.711519745424539 13823.04648814065695 
	17448.46423859946663 3477.254715814883639 13800.00714480172064 
	17448.46423859966308 3492.851232528620585 13766.00725133035121 
	17448.46423860142386 3520.978848802781158 13717.28661137507333 
	17448.464238603181 3562.551099987662383 13665.15888444912889 
	17448.46423860483264 3604.25089716443108 13624.48694776232514 
	17448.46423860533832 3643.286734697733209 13593.35726632847218 
	17448.46423860700816 3692.217784382650279 13561.75299398172319 
	17448.46423860916912 3752.289594276403932 13532.82328671227697 
	17448.46423861389485 3817.993889148058315 13512.55745083848888 
	17448.46423861721269 3879.543243042513495 13502.10063732928575 
	17448.46423862072697 3935.643093170908742 13498.94953613838334 
	17448.46423862445954 3991.742733395507457 13502.10071659330788 
	17448.46423862934898 4053.292504217464284 13512.55668041183162 
	17448.46423863490054 4107.049676925968924 13529.13952976280416 
	17448.46423863631207 4152.787052938373563 13549.09588321543015 
	17448.46423863924065 4185.876207481424899 13566.58339261153196 
	17448.46423864230383 4217.565626282435915 13586.49554930396334 
	17448.46423864602548 4252.697640842168767 13612.4235994929204 
	17448.46423865341058 4289.938959519743548 13645.70411733184119 
	17448.46423866321493 4327.379723537165773 13687.6004830789534 
	17448.46423866976329 4359.894253216130892 13733.42535489265174 
	17448.46423869361024 4387.073368850140469 13782.60266325815792 
	17448.46423871222942 4408.575868214104048 13834.51370401053282 
	17448.46423873597087 4421.537988074545865 13879.50725559576676 
	17448.46423874303946 4428.836876806496548 13916.20304040713927 
	17448.46423874944594 4432.759652588751123 13943.98844611036657 
	17448.46423875617256 4434.725035175771154 13967.28984642302021 
	17448.46423875830442 4435.413338040813869 13983.63943023779211 
	17448.4642387589156 4435.585441840812564 13991.81905140526942 
	17448.46423875907931 4435.628469223684988 13995.90946542384154 
	17448.46423875911569 4435.639226218048861 13997.95474795829614 
	17448.46423875913024 4435.641915465637794 13998.97739865938638 
	17448.4642387591266 4435.642683823300104 13999.56177184105582 
	17448.46423875912296 4435.642811883846662 13999.8539586563038 
	17448.46423875912296 4435.642811883652939 14000.00005206312744 
	17531.79757209245508 4435.642811883652939 14000.00005206312744 
	17531.79757209243689 4435.642811882101341 14001.16879931771473 
	17531.79757209232048 4435.634615979179216 14003.5062937243365 
	17531.79757209219679 4435.585441771820115 14008.18105267726423 
	17531.79757209162926 4435.413337868810231 14016.36067388489755 
	17531.79757208975934 4434.725034373568633 14032.7102581605759 
	17531.79757208381125 4432.759650635279286 14056.011659772028 
	17531.79757207826333 4428.836872018214308 14083.79706779378648 
	17531.7975720720824 4421.537984435710314 14120.49285382992093 
	17531.79757205207716 4408.575845001668313 14165.48641983374 
	17531.79757203578629 4387.073367142781535 14217.39745929090714 
	17531.79757201761822 4359.894194964790586 14266.57481316239864 
	17531.79757200264066 4327.379473584820516 14312.39940445847424 
	17531.79757198549851 4289.939023667249785 14354.29629996720905 
	17531.79757198090738 4249.593978162932217 14390.34957258991744 
	17531.7975719707465 4200.610232716704559 14425.5687591037622 
	17531.79757196823994 4156.693792323710113 14449.48396193984991 
	17531.79757196585342 4114.558372051445986 14467.24402375433056 
	17531.79757196423452 4083.157842042348875 14478.23174606308385 
	17531.79757196115315 4034.956828140298057 14491.14829298796576 
	17531.79757195769707 3973.147709226506777 14500.46606873098426 
	17531.79757195154161 3898.13788260908359 14500.46554973736784 
	17531.79757194696867 3836.328572516119038 14491.14873799793895 
	17531.79757194591002 3788.127684000534373 14478.23201638741193 
	17531.79757194365811 3752.801745257966104 14465.87146875145299 
	17531.79757194201375 3718.498436928437968 14450.90481886518137 
	17531.79757194024205 3690.924287399481727 14436.33151309210916 
	17531.79757193974001 3669.564641039374237 14423.46092884687278 
	17531.79757193933619 3648.701064807009061 14409.80087975184142 
	17531.79757193858313 3628.625731888828795 14394.98467811491173 
	17531.79757193809928 3609.422918318236952 14379.07436369833158 
	17531.79757193779733 3590.828300282604232 14362.45732442432382 
	17531.79757193664409 3568.77472522566859 14340.40380498010381 
	17531.7975719358692 3544.362196186388246 14312.03585291564377 
	17531.7975719347487 3522.137750332381984 14281.92292651283788 
	17531.79757193438854 3502.226014504657996 14250.23327652375883 
	17531.79757193356636 3482.794618603492836 14213.46783597969261 
	17531.79757193283876 3465.016765796909112 14171.29380905164544 
	17531.79757193250407 3450.30026167239248 14123.58331091991386 
	17531.79757193187106 3443.292570959628847 14088.91843468461775 
	17531.79757193182741 3440.472380435993273 14069.38170582486964 
	17531.79757193182377 3439.917127872515266 14065.26340244822495 
	17531.79757193182013 3439.122779475636889 14059.08087404648359 
	17531.79757193177284 3437.610507967814101 14045.65922682764176 
	17531.79757193169644 3436.057280061511392 14024.93314383831239 
	17531.79757193164187 3435.539132737978434 14004.15541302421843 
	17531.79757193163459 3435.746364652431112 13987.53321699053231 
	17531.79757193166733 3436.678750828054945 13962.61547928610526 
	17531.79757193178739 3441.234331874297368 13917.07468916645666 
	17531.7975719324204 3453.289084458574962 13864.25971610704619 
	17531.79757193270052 3467.711519745424084 13823.04648814065695 
	17531.79757193279875 3477.254715814883184 13800.00714480172064 
	17531.7975719329952 3492.85123252862013 13766.00725133035121 
	17531.79757193475598 3520.978848802780703 13717.28661137507333 
	17531.79757193651312 3562.551099987661928 13665.15888444912889 
	17531.79757193816477 3604.250897164430626 13624.48694776232514 
	17531.79757193867044 3643.286734697732754 13593.35726632847218 
	17531.79757194034028 3692.217784382649825 13561.75299398172319 
	17531.79757194250124 3752.289594276403477 13532.82328671227697 
	17531.79757194722697 3817.99388914805786 13512.55745083848888 
	17531.79757195054481 3879.543243042513041 13502.10063732928575 
	17531.79757195405909 3935.643093170908287 13498.94953613838334 
	17531.79757195779166 3991.742733395507003 13502.10071659330788 
	17531.7975719626811 4053.292504217463829 13512.55668041183162 
	17531.79757196823266 4107.049676925968924 13529.13952976280416 
	17531.7975719696442 4152.787052938373563 13549.09588321543015 
	17531.79757197257277 4185.876207481424899 13566.58339261153196 
	17531.79757197563595 4217.565626282435915 13586.49554930396334 
	17531.7975719793576 4252.697640842168767 13612.4235994929204 
	17531.7975719867427 4289.938959519743548 13645.70411733184119 
	17531.79757199654705 4327.379723537165773 13687.6004830789534 
	17531.79757200309541 4359.894253216130892 13733.42535489265174 
	17531.79757202694236 4387.073368850140469 13782.60266325815792 
	17531.79757204556154 4408.575868214104048 13834.51370401053282 
	17531.79757206930299 4421.537988074545865 13879.50725559576676 
	17531.79757207637158 4428.836876806496548 13916.20304040713927 
	17531.79757208277806 4432.759652588751123 13943.98844611036657 
	17531.79757208950468 4434.725035175771154 13967.28984642302021 
	17531.79757209163654 4435.413338040813869 13983.63943023779211 
	17531.79757209224772 4435.585441840812564 13991.81905140526942 
	17531.79757209241143 4435.628469223684988 13995.90946542384154 
	17531.79757209244781 4435.639226218048861 13997.95474795829614 
	17531.79757209246236 4435.641915465637794 13998.97739865938638 
	17531.79757209245872 4435.642683823300104 13999.56177184105582 
	17531.79757209245508 4435.642811883846662 13999.8539586563038 
	17531.79757209245508 4435.642811883652939 14000.00005206312744 
	0 
	
	0 
	0 
	81 0 0.001116071428571428509 0.002232142857142857019 0.004464285714285714038 0.008928571428571428076 0.01785714285714285615 0.02678571428571428423 0.0357142857142857123 0.05357142857142856845 0.07142857142857142461 0.08928571428571427382 0.1071428571428571369 0.125 0.1428571428571428492 0.1587301587301587213 0.1825396825396825295 0.1904761904761904656 0.2023809523809523836 0.2142857142857142738 0.238095238095238082 0.2619047619047618625 0.2857142857142856984 0.2976190476190476164 0.3095238095238095344 0.3214285714285713969 0.3333333333333333148 0.3392857142857143016 0.3452380952380952328 0.3571428571428570953 0.3630952380952380265 0.3690476190476190133 0.3809523809523809312 0.3928571428571428492 0.4047619047619047672 0.4166666666666666297 0.4285714285714285476 0.4444444444444444198 0.4603174603174602919 0.476190476190476164 0.4781746031746031411 0.4791666666666666297 0.4801587301587301182 0.4841269841269840724 0.4920634920634920362 0.5 0.5039682539682539542 0.5079365079365079083 0.5238095238095237249 0.5476190476190475609 0.5595238095238095344 0.5654761904761904656 0.5714285714285713969 0.5952380952380951218 0.6190476190476189577 0.6349206349206348854 0.650793650793650702 0.6666666666666666297 0.6904761904761904656 0.7142857142857141906 0.7321428571428569843 0.749999999999999889 0.7678571428571427937 0.7857142857142855874 0.8095238095238094234 0.8214285714285713969 0.8333333333333332593 0.8452380952380951218 0.8571428571428570953 0.875 0.8928571428571427937 0.9107142857142856984 0.9285714285714286031 0.9464285714285713969 0.9642857142857143016 0.9732142857142858094 0.9821428571428572063 0.9910714285714286031 0.9955357142857143016 0.9977678571428572063 0.9994419642857143016 0.9998604910714286031 
	0 
	0 
	0 
	F 1 F 0 F 1 F 0 } I I I I #
tcoedge-coedge $-1 -1 $-1 $14 $14 $18 $19 reversed $9 $20 -6.283185307179586232 -0 #
tcoedge-coedge $-1 -1 $-1 $21 $22 $11 $16 reversed $12 $23 -6.283185307179586232 -0 #
tedge-edge $-1 -1 $-1 $24 0 $24 6.283185307179586232 $15 $25 forward @7 unknown 0.0008078258356967768332 #
pcurve $-1 -1 $-1 0 forward { exppc nurbs 2 periodic 5 
	0 2 1.570796326794896558 2 3.141592653589793116 2 4.712388980384689674 2 6.283185307179586232 2 
	0 500 1 
	-500 500 0.707106781186543798 
	-500 0 1 
	-500 -500 0.7071067811865463515 
	0 -500 1 
	500 -500 0.7071067811865463515 
	500 0 1 
	500 500 0.707106781186543798 
	0 500 1 
	0 
	plane 17531.79757191538738 3935.642797989754399 14000.00000000000182 1 -3.637978807091713027e-15 0 0 0 -1 forward_v I I I I 
	} 0 0 #
tcoedge-coedge $-1 -1 $-1 $22 $21 $14 $19 forward $12 $26 0 6.283185307179586232 #
tedge-edge $-1 -1 $-1 $27 0 $27 6.283185307179586232 $18 $28 forward @7 unknown 0.0008078258356517603253 #
pcurve $-1 -1 $-1 0 forward { exppc nurbs 2 periodic 5 
	-6.283185307179586232 2 -4.712388980384689674 2 -3.141592653589793116 2 -1.570796326794896558 2 0 2 
	0 500 1 
	500 500 0.707106781186543798 
	500 0 1 
	500 -500 0.7071067811865463515 
	0 -500 1 
	-500 -500 0.7071067811865463515 
	-500 0 1 
	-500 500 0.707106781186543798 
	0 500 1 
	0 
	plane 17281.79757191538738 3935.642797989755309 14000.00000000000182 -1 3.637978807091713027e-15 -0 0 0 -1 reverse_v I I I I 
	} 0 0 #
coedge $-1 -1 $-1 $18 $15 $22 $29 reversed $12 $30 #
coedge $-1 -1 $-1 $15 $18 $21 $29 forward $12 $31 #
pcurve $-1 -1 $-1 0 forward { exppc nubs 1 periodic 2 
	-6.283185307179586232 1 -0 1 
	1 1 
	0 1 
	4.4114023995510105e-13 
	spline forward { ref 0 } I I I I 
	} 0 0 #
tvertex-vertex $-1 -1 $-1 $16 $32 5.388545161350475444e-05 #
ellipse-curve $-1 -1 $-1 17531.79757191538738 3935.642797989754399 14000.00000000000182 1 -3.637978807091713027e-15 0 1.818989403545856476e-12 500 0 1 I I #
pcurve $-1 -1 $-1 0 forward { exppc nubs 1 periodic 2 
	0 1 6.283185307179586232 1 
	0 0 
	1 0 
	4.411402399551011509e-13 
	spline forward { ref 0 } I I I I 
	} 0 0 #
tvertex-vertex $-1 -1 $-1 $19 $33 5.388544336467951368e-05 #
ellipse-curve $-1 -1 $-1 17281.79757191538738 3935.642797989755309 14000.00000000000182 1 -3.637978807091713027e-15 0 1.818989403545856476e-12 500 0 1 I I #
edge $-1 -1 $-1 $27 0 $24 1 $22 $34 forward @7 tangent #
pcurve $-1 -1 $-1 -1 $34 0 0 #
pcurve $-1 -1 $-1 1 $34 1 0 #
point $-1 -1 $-1 17531.79757191539102 4435.642797989754399 14000.00000000000182 #
point $-1 -1 $-1 17281.79757191539102 4435.642797989755309 14000.00000000000182 #
intcurve-curve $-1 -1 $-1 forward { parcur full nubs 3 open 2 
	0 3 1 3 
	17281.79757208992669 4435.642811883653849 14000.00005206312744 
	17365.13090542325881 4435.642811883652939 14000.00005206312744 
	17448.46423875912296 4435.642811883652939 14000.00005206312744 
	17531.79757209245508 4435.642811883652939 14000.00005206312744 
	0 
	
	spline forward { ref 0 } I I I I 
	null_surface 
	nubs 1 open 2 
	0 1 1 1 
	0 0 
	0 1 
	
	nullbs 
	I I 
	0 
	0 
	0 
	surf1 } I I #
End-of-ACIS-data 