700 0 1 0           
4 LibG 20 ASM 224.0.1.65535 NT 24 Wed Jul 17 14:48:15 2019 
1000 9.999999999999999547e-07 1.000000000000000036e-10 
body $-1 -1 $-1 $1 $-1 $2 #
lump $-1 -1 $-1 $-1 $3 $0 #
transform $-1 -1 1 0 0 0 1 0 0 0 1 0 0 0 1 no_rotate no_reflect no_shear #
shell $-1 -1 $-1 $-1 $-1 $4 $-1 $1 #
face $-1 -1 $-1 $5 $6 $3 $-1 $7 forward single #
face $-1 -1 $-1 $8 $9 $3 $-1 $10 reversed single #
loop $-1 -1 $-1 $-1 $11 $4 #
plane-surface $-1 -1 $-1 15531.79757191538738 3935.642797989761675 14000.00000000000182 1 -3.637978807091713027e-15 0 0 0 -1 forward_v I I I I #
face $-1 -1 $-1 $-1 $12 $3 $-1 $13 forward single #
loop $-1 -1 $-1 $-1 $14 $5 #
plane-surface $-1 -1 $-1 15281.79757191538738 3935.642797989762585 14000.00000000000182 1 -3.637978807091713027e-15 0 0 0 -1 forward_v I I I I #
tcoedge-coedge $-1 -1 $-1 $11 $11 $15 $16 forward $6 $17 0 6.283185307179586232 #
loop $-1 -1 $-1 $-1 $18 $8 #
spline-surface $-1 -1 $-1 forward { exactsur full nubs 3 3 periodic open none none 84 2 
	0 3 0.001116071428571428509 1 0.002232142857142857019 1 0.004464285714285714038 1 0.008928571428571428076 1 
	0.01785714285714285615 1 0.02678571428571428423 1 0.0357142857142857123 1 0.05357142857142856845 1 0.07142857142857142461 1 
	0.08928571428571427382 1 0.1071428571428571369 1 0.125 1 0.1428571428571428492 1 0.1587301587301587213 1 
	0.1825396825396825295 1 0.1904761904761904656 1 0.2023809523809523836 1 0.2142857142857142738 1 0.238095238095238082 1 
	0.2619047619047618625 1 0.2857142857142856984 1 0.2976190476190476164 1 0.3095238095238095344 1 0.3214285714285713969 1 
	0.3333333333333333148 1 0.3392857142857143016 1 0.3452380952380952328 1 0.3571428571428570953 1 0.3630952380952380265 1 
	0.3690476190476190133 1 0.3809523809523809312 1 0.3928571428571428492 1 0.4047619047619047672 1 0.4166666666666666297 1 
	0.4285714285714285476 1 0.4444444444444444198 1 0.4603174603174602919 1 0.476190476190476164 1 0.4781746031746031411 1 
	0.4791666666666666297 1 0.4801587301587301182 1 0.4841269841269840724 1 0.4920634920634920362 1 0.5 1 
	0.5039682539682539542 1 0.5079365079365079083 1 0.5238095238095237249 1 0.5476190476190475609 1 0.5595238095238095344 1 
	0.5654761904761904656 1 0.5714285714285713969 1 0.5952380952380951218 1 0.6190476190476189577 1 0.6349206349206348854 1 
	0.650793650793650702 1 0.6666666666666666297 1 0.6904761904761904656 1 0.7142857142857141906 1 0.7321428571428569843 1 
	0.749999999999999889 1 0.7678571428571427937 1 0.7857142857142855874 1 0.8095238095238094234 1 0.8214285714285713969 1 
	0.8333333333333332593 1 0.8452380952380951218 1 0.8571428571428570953 1 0.875 1 0.8928571428571427937 1 
	0.9107142857142856984 1 0.9285714285714286031 1 0.9464285714285713969 1 0.9642857142857143016 1 0.9732142857142858094 1 
	0.9821428571428572063 1 0.9910714285714286031 1 0.9955357142857143016 1 0.9977678571428572063 1 0.9988839285714286031 1 
	0.9994419642857143016 1 0.9997209821428572063 1 0.9998604910714286031 1 1 3 
	0 3 1 3 
	15281.79757141811206 4435.642811027428252 14000.00004900763452 
	15281.79757141812479 4435.642811026002164 14001.16879626244554 
	15281.79757141848313 4435.634615124663469 14003.50629067196678 
	15281.79757141881237 4435.585440918995118 14008.18104962799589 
	15281.79757142049675 4435.413337024697285 14016.36067085150717 
	15281.79757142587368 4434.725033559016083 14032.710255181717 
	15281.79757144306495 4432.75964992308036 14056.01165697824399 
	15281.79757145903204 4428.836871407021135 14083.79706518655621 
	15281.79757147679447 4421.537983950685884 14120.49285144045098 
	15281.79757153409264 4408.575844932494874 14165.48641819238583 
	15281.79757158064967 4387.073367403255361 14217.39745827669685 
	15281.7975716324745 4359.894195592055439 14266.5748128494306 
	15281.79757167510797 4327.379474499754906 14312.39940470152033 
	15281.79757172382961 4289.939024895514194 14354.29630080614515 
	15281.79757173683902 4249.593979481252973 14390.34957356275117 
	15281.79757176566636 4200.610234303032485 14425.5687604402392 
	15281.79757177272768 4156.693794067547969 14449.48396347959715 
	15281.79757177948341 4114.558373879802275 14467.24402533313878 
	15281.79757178405089 4083.157843944624346 14478.23174763690622 
	15281.7975717927111 4034.956830170313879 14491.14829452025879 
	15281.79757180243541 3973.147711367555985 14500.46606986647566 
	15281.79757181968671 3898.137884990434031 14500.46555036758946 
	15281.79757183251786 3836.328575137975804 14491.1487382454925 
	15281.79757183550828 3788.127686682656531 14478.23201650819101 
	15281.79757184186383 3752.801748057847362 14465.8714687796728 
	15281.79757184650589 3718.498439813681671 14450.90481883777829 
	15281.79757185151175 3690.924290369715436 14436.33151305894171 
	15281.79757185293602 3669.564644030446743 14423.46092882555422 
	15281.79757185409289 3648.701067814350608 14409.8008797419352 
	15281.7975718562393 3628.625734913101951 14394.98467817648998 
	15281.79757185763447 3609.42292134656509 14379.07436382147716 
	15281.79757185850758 3590.828303307020633 14362.45732460211548 
	15281.79757186182724 3568.774728202373353 14340.40380542924868 
	15281.79757186410279 3544.36219911336002 14312.03585359133467 
	15281.79757186740062 3522.137753123413859 14281.9229276055321 
	15281.79757186847746 3502.226017243368915 14250.2332777671545 
	15281.79757187099312 3482.79462112230658 14213.46783769231661 
	15281.7975718733087 3465.016768039688486 14171.2938113006112 
	15281.79757187436917 3450.300263757251287 14123.58331342370184 
	15281.79757187658288 3443.292572712232868 14088.9184378836253 
	15281.79757187678479 3440.472382157917309 14069.38170908920983 
	15281.79757187678297 3439.917129594070502 14065.26340571308174 
	15281.79757187678842 3439.122781193973424 14059.080877317665 
	15281.79757187682662 3437.61050966101584 14045.65923014465989 
	15281.79757187688483 3436.057281689240426 14024.93314727225697 
	15281.79757187683026 3435.539134281335464 14004.15541659646078 
	15281.79757187682844 3435.746366183318059 13987.53322057940022 
	15281.79757187665746 3436.678752314249323 13962.61548294451313 
	15281.79757187614268 3441.234333168980356 13917.07469298774959 
	15281.79757187398536 3453.289085401705506 13864.25972023333088 
	15281.7975718730886 3467.711520588920848 13823.04649231773692 
	15281.79757187278301 3477.254716605762951 13800.00714898006845 
	15281.79757187217365 3492.851233212469651 13766.00725548396076 
	15281.79757186695133 3520.97884870248572 13717.28661519172238 
	15281.79757186181632 3562.551099322433402 13665.15888790815734 
	15281.79757185705785 3604.250895992261121 13624.48695069620589 
	15281.79757185559356 3643.286733340526553 13593.3572690852161 
	15281.79757185088783 3692.217782601796443 13561.75299598919264 
	15281.79757184479604 3752.289591848430064 13532.82328759178563 
	15281.79757183155743 3817.993886105383353 13512.55745019710957 
	15281.7975718222624 3879.543239678093869 13502.10063581826216 
	15281.79757181239984 3935.643089663158207 13498.94953384027576 
	15281.79757180191336 3991.742729828052688 13502.10071361455084 
	15281.79757178816726 4053.292500728241521 13512.55667652270313 
	15281.79757177252395 4107.049673612337756 13529.13952499758489 
	15281.79757176855128 4152.787049645057778 13549.09587839836058 
	15281.79757176027306 4185.876204269938171 13566.58338763806205 
	15281.79757175162013 4217.565623147545921 13586.4955442730643 
	15281.79757174106635 4252.697637811747882 13612.42359441422013 
	15281.79757172014615 4289.938956689858969 13645.70411225017233 
	15281.79757169228833 4327.379720949203147 13687.60047810975266 
	15281.79757167366733 4359.894250797608038 13733.42535001213946 
	15281.79757160569716 4387.073366957522921 13782.60265883208194 
	15281.79757155256448 4408.575866676546866 13834.51369997984693 
	15281.79757148463796 4421.537986916850969 13879.50725208099539 
	15281.79757146438897 4428.836875743604651 13916.20303704177422 
	15281.79757144599716 4432.759651615608163 13943.98844287491193 
	15281.79757142662675 4434.725034285193942 13967.28984331570246 
	15281.79757142051676 4435.413337175606102 13983.63942716849851 
	15281.79757141872687 4435.585440982405089 13991.81904834646593 
	15281.79757141828122 4435.62846836688459 13995.90946236745913 
	15281.79757141815935 4435.639225361667741 13997.95474490255947 
	15281.79757141812661 4435.641914609357627 13998.97739560380069 
	15281.79757141811569 4435.642682967048131 13999.5617687855156 
	15281.79757141811206 4435.642811027606513 13999.85395560078177 
	15281.79757141811206 4435.642811027428252 14000.00004900763452 
	15365.130904751446 4435.642811027427342 14000.00004900763452 
	15365.13090475145873 4435.642811026001255 14001.16879626244554 
	15365.13090475181707 4435.63461512466256 14003.50629067196678 
	15365.13090475214631 4435.585440918994209 14008.18104962799589 
	15365.13090475383069 4435.413337024696375 14016.36067085150717 
	15365.13090475920762 4434.725033559015174 14032.710255181717 
	15365.13090477639889 4432.759649923079451 14056.01165697824399 
	15365.13090479236598 4428.836871407020226 14083.79706518655621 
	15365.13090481012841 4421.537983950684975 14120.49285144045098 
	15365.13090486742658 4408.575844932493965 14165.48641819238583 
	15365.13090491398361 4387.073367403254451 14217.39745827669685 
	15365.13090496580844 4359.89419559205453 14266.5748128494306 
	15365.13090500844191 4327.379474499753996 14312.39940470152033 
	15365.13090505716355 4289.939024895513285 14354.29630080614515 
	15365.13090507017296 4249.593979481252063 14390.34957356275117 
	15365.1309050990003 4200.610234303031575 14425.5687604402392 
	15365.13090510606162 4156.69379406754706 14449.48396347959715 
	15365.13090511281735 4114.558373879801366 14467.24402533313878 
	15365.13090511738483 4083.157843944623892 14478.23174763690622 
	15365.13090512604504 4034.956830170313424 14491.14829452025879 
	15365.13090513576935 3973.14771136755553 14500.46606986647566 
	15365.13090515302065 3898.137884990433577 14500.46555036758946 
	15365.1309051658518 3836.328575137975349 14491.1487382454925 
	15365.13090516884222 3788.127686682656076 14478.23201650819101 
	15365.13090517519777 3752.801748057846908 14465.8714687796728 
	15365.13090517983983 3718.498439813681216 14450.90481883777829 
	15365.13090518484569 3690.924290369714981 14436.33151305894171 
	15365.13090518626996 3669.564644030446289 14423.46092882555422 
	15365.13090518742683 3648.701067814350154 14409.8008797419352 
	15365.13090518957324 3628.625734913101496 14394.98467817648998 
	15365.13090519096841 3609.422921346564635 14379.07436382147716 
	15365.13090519184152 3590.828303307020178 14362.45732460211548 
	15365.13090519516118 3568.774728202372899 14340.40380542924868 
	15365.13090519743673 3544.362199113359566 14312.03585359133467 
	15365.13090520073456 3522.137753123413404 14281.9229276055321 
	15365.1309052018114 3502.22601724336846 14250.2332777671545 
	15365.13090520432706 3482.794621122306125 14213.46783769231661 
	15365.13090520664264 3465.016768039688031 14171.2938113006112 
	15365.13090520770311 3450.300263757250832 14123.58331342370184 
	15365.13090520991682 3443.292572712232413 14088.9184378836253 
	15365.13090521011873 3440.472382157916854 14069.38170908920983 
	15365.13090521011691 3439.917129594070047 14065.26340571308174 
	15365.13090521012236 3439.122781193972969 14059.080877317665 
	15365.13090521016056 3437.610509661015385 14045.65923014465989 
	15365.13090521021877 3436.057281689239971 14024.93314727225697 
	15365.1309052101642 3435.539134281335009 14004.15541659646078 
	15365.13090521016238 3435.746366183317605 13987.53322057940022 
	15365.1309052099914 3436.678752314248868 13962.61548294451313 
	15365.13090520947662 3441.234333168979902 13917.07469298774959 
	15365.1309052073193 3453.289085401705051 13864.25972023333088 
	15365.13090520642254 3467.711520588920393 13823.04649231773692 
	15365.13090520611695 3477.254716605762496 13800.00714898006845 
	15365.13090520550759 3492.851233212469197 13766.00725548396076 
	15365.13090520028527 3520.978848702485266 13717.28661519172238 
	15365.13090519515026 3562.551099322432947 13665.15888790815734 
	15365.13090519039179 3604.250895992260666 13624.48695069620589 
	15365.1309051889275 3643.286733340526098 13593.3572690852161 
	15365.13090518422177 3692.217782601795989 13561.75299598919264 
	15365.13090517812998 3752.289591848429609 13532.82328759178563 
	15365.13090516489137 3817.993886105382899 13512.55745019710957 
	15365.13090515559634 3879.543239678093414 13502.10063581826216 
	15365.13090514573378 3935.643089663157753 13498.94953384027576 
	15365.1309051352473 3991.742729828052234 13502.10071361455084 
	15365.1309051215012 4053.292500728241066 13512.55667652270313 
	15365.13090510585789 4107.049673612336846 13529.13952499758489 
	15365.13090510188522 4152.787049645056868 13549.09587839836058 
	15365.130905093607 4185.876204269937261 13566.58338763806205 
	15365.13090508495407 4217.565623147545011 13586.4955442730643 
	15365.13090507440029 4252.697637811746972 13612.42359441422013 
	15365.13090505348009 4289.93895668985806 13645.70411225017233 
	15365.13090502562227 4327.379720949202238 13687.60047810975266 
	15365.13090500700127 4359.894250797607128 13733.42535001213946 
	15365.1309049390311 4387.073366957522012 13782.60265883208194 
	15365.13090488589842 4408.575866676545957 13834.51369997984693 
	15365.1309048179719 4421.537986916850059 13879.50725208099539 
	15365.13090479772291 4428.836875743603741 13916.20303704177422 
	15365.1309047793311 4432.759651615607254 13943.98844287491193 
	15365.13090475996069 4434.725034285193033 13967.28984331570246 
	15365.1309047538507 4435.413337175605193 13983.63942716849851 
	15365.13090475206081 4435.58544098240418 13991.81904834646593 
	15365.13090475161516 4435.628468366883681 13995.90946236745913 
	15365.13090475149329 4435.639225361666831 13997.95474490255947 
	15365.13090475146055 4435.641914609356718 13998.97739560380069 
	15365.13090475144963 4435.642682967047222 13999.5617687855156 
	15365.130904751446 4435.642811027605603 13999.85395560078177 
	15365.130904751446 4435.642811027427342 14000.00004900763452 
	15448.46423807664542 4435.642811027424614 14000.00004900763452 
	15448.46423807665997 4435.642811025998526 14001.16879626244554 
	15448.46423807702377 4435.634615124658922 14003.50629067196678 
	15448.46423807735846 4435.58544091899148 14008.18104962799589 
	15448.46423807907013 4435.413337024692737 14016.36067085150717 
	15448.46423808453619 4434.725033559011536 14032.710255181717 
	15448.46423810200395 4432.759649923075813 14056.01165697824399 
	15448.46423811823479 4428.836871407016588 14083.79706518655621 
	15448.4642381362828 4421.537983950681337 14120.49285144045098 
	15448.46423819452139 4408.575844932491236 14165.48641819238583 
	15448.46423824183694 4387.073367403251723 14217.39745827669685 
	15448.46423829450941 4359.894195592051801 14266.5748128494306 
	15448.46423833783592 4327.379474499750359 14312.39940470152033 
	15448.46423838735791 4289.939024895510556 14354.29630080614515 
	15448.46423840057832 4249.593979481249335 14390.34957356275117 
	15448.46423842988042 4200.610234303029756 14425.5687604402392 
	15448.4642384370527 4156.693794067545241 14449.48396347959715 
	15448.4642384439212 4114.558373879799547 14467.24402533313878 
	15448.46423844856508 4083.157843944622073 14478.23174763690622 
	15448.46423845736717 4034.95683017031206 14491.14829452025879 
	15448.46423846724974 3973.147711367554166 14500.46606986647566 
	15448.46423848478662 3898.137884990433122 14500.46555036758946 
	15448.46423849782695 3836.328575137975349 14491.1487382454925 
	15448.46423850086649 3788.127686682656076 14478.23201650819101 
	15448.46423850732572 3752.801748057846908 14465.8714687796728 
	15448.46423851204236 3718.498439813681671 14450.90481883777829 
	15448.46423851713007 3690.924290369715891 14436.33151305894171 
	15448.46423851857617 3669.564644030447198 14423.46092882555422 
	15448.46423851975305 3648.701067814350154 14409.8008797419352 
	15448.4642385219322 3628.625734913102406 14394.98467817648998 
	15448.46423852334738 3609.42292134656509 14379.07436382147716 
	15448.46423852423686 3590.828303307020178 14362.45732460211548 
	15448.46423852761109 3568.774728202372899 14340.40380542924868 
	15448.46423852992302 3544.362199113359566 14312.03585359133467 
	15448.4642385332736 3522.137753123413404 14281.9229276055321 
	15448.46423853436863 3502.22601724336846 14250.2332777671545 
	15448.46423853692431 3482.794621122306125 14213.46783769231661 
	15448.46423853927445 3465.016768039687122 14171.2938113006112 
	15448.46423854035129 3450.300263757250832 14123.58331342370184 
	15448.46423854259956 3443.292572712231504 14088.9184378836253 
	15448.46423854280874 3440.472382157915945 14069.38170908920983 
	15448.46423854280511 3439.917129594069138 14065.26340571308174 
	15448.46423854281238 3439.12278119397206 14059.080877317665 
	15448.46423854285422 3437.61050966101493 14045.65923014465989 
	15448.46423854291243 3436.057281689239517 14024.93314727225697 
	15448.46423854285786 3435.539134281334555 14004.15541659646078 
	15448.46423854285604 3435.746366183317605 13987.53322057940022 
	15448.46423854268505 3436.678752314249323 13962.61548294451313 
	15448.464238542163 3441.234333168980356 13917.07469298774959 
	15448.46423853997294 3453.289085401705961 13864.25972023333088 
	15448.46423853906526 3467.711520588921303 13823.04649231773692 
	15448.4642385387524 3477.254716605763406 13800.00714898006845 
	15448.46423853813394 3492.851233212470106 13766.00725548396076 
	15448.46423853282613 3520.978848702486175 13717.28661519172238 
	15448.46423852760745 3562.551099322433856 13665.15888790815734 
	15448.46423852277076 3604.250895992261576 13624.48695069620589 
	15448.46423852128282 3643.286733340527007 13593.3572690852161 
	15448.4642385165007 3692.217782601796898 13561.75299598919264 
	15448.46423851030886 3752.289591848430518 13532.82328759178563 
	15448.46423849685016 3817.993886105383808 13512.55745019710957 
	15448.46423848740596 3879.543239678094324 13502.10063581826216 
	15448.46423847737969 3935.643089663158662 13498.94953384027576 
	15448.46423846672224 3991.742729828053143 13502.10071361455084 
	15448.46423845274876 4053.292500728241976 13512.55667652270313 
	15448.46423843685079 4107.049673612337756 13529.13952499758489 
	15448.46423843281445 4152.787049645057778 13549.09587839836058 
	15448.46423842440163 4185.876204269938171 13566.58338763806205 
	15448.46423841560681 4217.565623147545921 13586.4955442730643 
	15448.46423840488205 4252.697637811747882 13612.42359441422013 
	15448.46423838361807 4289.938956689858969 13645.70411225017233 
	15448.46423835530368 4327.379720949203147 13687.60047810975266 
	15448.46423833637891 4359.894250797608038 13733.42535001213946 
	15448.46423826729551 4387.073366957522921 13782.60265883208194 
	15448.46423821329518 4408.575866676546866 13834.51369997984693 
	15448.46423814425725 4421.537986916850969 13879.50725208099539 
	15448.46423812367721 4428.836875743604651 13916.20303704177422 
	15448.46423810498163 4432.759651615608163 13943.98844287491193 
	15448.46423808529471 4434.725034285193942 13967.28984331570246 
	15448.46423807908468 4435.413337175605193 13983.63942716849851 
	15448.46423807726569 4435.58544098240418 13991.81904834646593 
	15448.46423807681458 4435.628468366883681 13995.90946236745913 
	15448.46423807669271 4435.639225361665922 13997.95474490255947 
	15448.46423807665997 4435.641914609355808 13998.97739560380069 
	15448.46423807664542 4435.642682967045403 13999.5617687855156 
	15448.4642380766436 4435.642811027602875 13999.85395560078177 
	15448.46423807664542 4435.642811027424614 14000.00004900763452 
	15531.79757140997935 4435.642811027424614 14000.00004900763452 
	15531.79757140999391 4435.642811025998526 14001.16879626244554 
	15531.7975714103577 4435.634615124658922 14003.50629067196678 
	15531.7975714106924 4435.58544091899148 14008.18104962799589 
	15531.79757141240407 4435.413337024692737 14016.36067085150717 
	15531.79757141787013 4434.725033559011536 14032.710255181717 
	15531.79757143533789 4432.759649923075813 14056.01165697824399 
	15531.79757145156873 4428.836871407016588 14083.79706518655621 
	15531.79757146961674 4421.537983950681337 14120.49285144045098 
	15531.79757152785533 4408.575844932491236 14165.48641819238583 
	15531.79757157517088 4387.073367403251723 14217.39745827669685 
	15531.79757162784335 4359.894195592051801 14266.5748128494306 
	15531.79757167116986 4327.379474499750359 14312.39940470152033 
	15531.79757172069185 4289.939024895510556 14354.29630080614515 
	15531.79757173391226 4249.593979481249335 14390.34957356275117 
	15531.79757176321436 4200.610234303029756 14425.5687604402392 
	15531.79757177038664 4156.693794067545241 14449.48396347959715 
	15531.79757177725514 4114.558373879799547 14467.24402533313878 
	15531.79757178189902 4083.157843944621618 14478.23174763690622 
	15531.79757179070111 4034.956830170311605 14491.14829452025879 
	15531.79757180058368 3973.147711367553711 14500.46606986647566 
	15531.79757181812056 3898.137884990432667 14500.46555036758946 
	15531.79757183116089 3836.328575137974894 14491.1487382454925 
	15531.79757183420043 3788.127686682655622 14478.23201650819101 
	15531.79757184065966 3752.801748057846453 14465.8714687796728 
	15531.7975718453763 3718.498439813681216 14450.90481883777829 
	15531.79757185046401 3690.924290369715436 14436.33151305894171 
	15531.79757185191011 3669.564644030446743 14423.46092882555422 
	15531.79757185308699 3648.701067814349699 14409.8008797419352 
	15531.79757185526614 3628.625734913101951 14394.98467817648998 
	15531.79757185668132 3609.422921346564635 14379.07436382147716 
	15531.7975718575708 3590.828303307019723 14362.45732460211548 
	15531.79757186094503 3568.774728202372444 14340.40380542924868 
	15531.79757186325696 3544.362199113359111 14312.03585359133467 
	15531.79757186660754 3522.137753123412949 14281.9229276055321 
	15531.79757186770257 3502.226017243368005 14250.2332777671545 
	15531.79757187025825 3482.794621122305671 14213.46783769231661 
	15531.79757187260839 3465.016768039686667 14171.2938113006112 
	15531.79757187368523 3450.300263757250377 14123.58331342370184 
	15531.7975718759335 3443.292572712231049 14088.9184378836253 
	15531.79757187614268 3440.47238215791549 14069.38170908920983 
	15531.79757187613905 3439.917129594068683 14065.26340571308174 
	15531.79757187614632 3439.122781193971605 14059.080877317665 
	15531.79757187618816 3437.610509661014476 14045.65923014465989 
	15531.79757187624637 3436.057281689239062 14024.93314727225697 
	15531.7975718761918 3435.5391342813341 14004.15541659646078 
	15531.79757187618998 3435.74636618331715 13987.53322057940022 
	15531.79757187601899 3436.678752314248868 13962.61548294451313 
	15531.79757187549694 3441.234333168979902 13917.07469298774959 
	15531.79757187330688 3453.289085401705506 13864.25972023333088 
	15531.7975718723992 3467.711520588920848 13823.04649231773692 
	15531.79757187208634 3477.254716605762951 13800.00714898006845 
	15531.79757187146788 3492.851233212469651 13766.00725548396076 
	15531.79757186616007 3520.97884870248572 13717.28661519172238 
	15531.79757186094139 3562.551099322433402 13665.15888790815734 
	15531.7975718561047 3604.250895992261121 13624.48695069620589 
	15531.79757185461676 3643.286733340526553 13593.3572690852161 
	15531.79757184983464 3692.217782601796443 13561.75299598919264 
	15531.7975718436428 3752.289591848430064 13532.82328759178563 
	15531.7975718301841 3817.993886105383353 13512.55745019710957 
	15531.7975718207399 3879.543239678093869 13502.10063581826216 
	15531.79757181071363 3935.643089663158207 13498.94953384027576 
	15531.79757180005618 3991.742729828052688 13502.10071361455084 
	15531.7975717860827 4053.292500728241521 13512.55667652270313 
	15531.79757177018473 4107.049673612337756 13529.13952499758489 
	15531.79757176614839 4152.787049645057778 13549.09587839836058 
	15531.79757175773557 4185.876204269938171 13566.58338763806205 
	15531.79757174894075 4217.565623147545921 13586.4955442730643 
	15531.79757173821599 4252.697637811747882 13612.42359441422013 
	15531.79757171695201 4289.938956689858969 13645.70411225017233 
	15531.79757168863762 4327.379720949203147 13687.60047810975266 
	15531.79757166971285 4359.894250797608038 13733.42535001213946 
	15531.79757160062945 4387.073366957522921 13782.60265883208194 
	15531.79757154662911 4408.575866676546866 13834.51369997984693 
	15531.79757147759119 4421.537986916850969 13879.50725208099539 
	15531.79757145701114 4428.836875743604651 13916.20303704177422 
	15531.79757143831557 4432.759651615608163 13943.98844287491193 
	15531.79757141862865 4434.725034285193942 13967.28984331570246 
	15531.79757141241862 4435.413337175605193 13983.63942716849851 
	15531.79757141059963 4435.58544098240418 13991.81904834646593 
	15531.79757141014852 4435.628468366883681 13995.90946236745913 
	15531.79757141002665 4435.639225361665922 13997.95474490255947 
	15531.79757140999391 4435.641914609355808 13998.97739560380069 
	15531.79757140997935 4435.642682967045403 13999.5617687855156 
	15531.79757140997754 4435.642811027602875 13999.85395560078177 
	15531.79757140997935 4435.642811027424614 14000.00004900763452 
	0 
	
	0 
	0 
	81 0 0.001116071428571428509 0.002232142857142857019 0.004464285714285714038 0.008928571428571428076 0.01785714285714285615 0.02678571428571428423 0.0357142857142857123 0.05357142857142856845 0.07142857142857142461 0.08928571428571427382 0.1071428571428571369 0.125 0.1428571428571428492 0.1587301587301587213 0.1825396825396825295 0.1904761904761904656 0.2023809523809523836 0.2142857142857142738 0.238095238095238082 0.2619047619047618625 0.2857142857142856984 0.2976190476190476164 0.3095238095238095344 0.3214285714285713969 0.3333333333333333148 0.3392857142857143016 0.3452380952380952328 0.3571428571428570953 0.3630952380952380265 0.3690476190476190133 0.3809523809523809312 0.3928571428571428492 0.4047619047619047672 0.4166666666666666297 0.4285714285714285476 0.4444444444444444198 0.4603174603174602919 0.476190476190476164 0.4781746031746031411 0.4791666666666666297 0.4801587301587301182 0.4841269841269840724 0.4920634920634920362 0.5 0.5039682539682539542 0.5079365079365079083 0.5238095238095237249 0.5476190476190475609 0.5595238095238095344 0.5654761904761904656 0.5714285714285713969 0.5952380952380951218 0.6190476190476189577 0.6349206349206348854 0.650793650793650702 0.6666666666666666297 0.6904761904761904656 0.7142857142857141906 0.7321428571428569843 0.749999999999999889 0.7678571428571427937 0.7857142857142855874 0.8095238095238094234 0.8214285714285713969 0.8333333333333332593 0.8452380952380951218 0.8571428571428570953 0.875 0.8928571428571427937 0.9107142857142856984 0.9285714285714286031 0.9464285714285713969 0.9642857142857143016 0.9732142857142858094 0.9821428571428572063 0.9910714285714286031 0.9955357142857143016 0.9977678571428572063 0.9994419642857143016 0.9998604910714286031 
	0 
	0 
	0 
	F 1 F 0 F 1 F 0 } I I I I #
tcoedge-coedge $-1 -1 $-1 $14 $14 $18 $19 reversed $9 $20 -6.283185307179586232 -0 #
tcoedge-coedge $-1 -1 $-1 $21 $22 $11 $16 reversed $12 $23 -6.283185307179586232 -0 #
tedge-edge $-1 -1 $-1 $24 0 $24 6.283185307179586232 $15 $25 forward @7 unknown 0.0008046570719265785888 #
pcurve $-1 -1 $-1 0 forward { exppc nurbs 2 periodic 5 
	0 2 1.570796326794896558 2 3.141592653589793116 2 4.712388980384689674 2 6.283185307179586232 2 
	0 500 1 
	-500 500 0.707106781186543798 
	-500 0 1 
	-500 -500 0.7071067811865463515 
	0 -500 1 
	500 -500 0.7071067811865463515 
	500 0 1 
	500 500 0.707106781186543798 
	0 500 1 
	0 
	plane 15531.79757191538738 3935.642797989761675 14000.00000000000182 1 -3.637978807091713027e-15 0 0 0 -1 forward_v I I I I 
	} 0 0 #
tcoedge-coedge $-1 -1 $-1 $22 $21 $14 $19 forward $12 $26 0 6.283185307179586232 #
tedge-edge $-1 -1 $-1 $27 0 $27 6.283185307179586232 $18 $28 forward @7 unknown 0.0008046570716813111323 #
pcurve $-1 -1 $-1 0 forward { exppc nurbs 2 periodic 5 
	-6.283185307179586232 2 -4.712388980384689674 2 -3.141592653589793116 2 -1.570796326794896558 2 0 2 
	0 500 1 
	500 500 0.707106781186543798 
	500 0 1 
	500 -500 0.7071067811865463515 
	0 -500 1 
	-500 -500 0.7071067811865463515 
	-500 0 1 
	-500 500 0.707106781186543798 
	0 500 1 
	0 
	plane 15281.79757191538738 3935.642797989762585 14000.00000000000182 -1 3.637978807091713027e-15 -0 0 0 -1 reverse_v I I I I 
	} 0 0 #
coedge $-1 -1 $-1 $18 $15 $22 $29 reversed $12 $30 #
coedge $-1 -1 $-1 $15 $18 $21 $29 forward $12 $31 #
pcurve $-1 -1 $-1 0 forward { exppc nubs 1 periodic 2 
	-6.283185307179586232 1 -0 1 
	1 1 
	0 1 
	2.726396620975368931e-13 
	spline forward { ref 0 } I I I I 
	} 0 0 #
tvertex-vertex $-1 -1 $-1 $16 $32 5.07147431311436058e-05 #
ellipse-curve $-1 -1 $-1 15531.79757191538738 3935.642797989761675 14000.00000000000182 1 -3.637978807091713027e-15 0 1.818989403545856476e-12 500 0 1 I I #
pcurve $-1 -1 $-1 0 forward { exppc nubs 1 periodic 2 
	0 1 6.283185307179586232 1 
	0 0 
	1 0 
	4.4114023995510105e-13 
	spline forward { ref 0 } I I I I 
	} 0 0 #
tvertex-vertex $-1 -1 $-1 $19 $33 5.071466343621266023e-05 #
ellipse-curve $-1 -1 $-1 15281.79757191538738 3935.642797989762585 14000.00000000000182 1 -3.637978807091713027e-15 0 1.818989403545856476e-12 500 0 1 I I #
edge $-1 -1 $-1 $27 0 $24 1 $22 $34 forward @7 tangent #
pcurve $-1 -1 $-1 -1 $34 0 0 #
pcurve $-1 -1 $-1 1 $34 1 0 #
point $-1 -1 $-1 15531.7975719153892 4435.642797989761675 14000.00000000000182 #
point $-1 -1 $-1 15281.7975719153892 4435.642797989762585 14000.00000000000182 #
intcurve-curve $-1 -1 $-1 forward { parcur full nubs 3 open 2 
	0 3 1 3 
	15281.79757141811206 4435.642811027428252 14000.00004900763452 
	15365.130904751446 4435.642811027427342 14000.00004900763452 
	15448.46423807664542 4435.642811027424614 14000.00004900763452 
	15531.79757140997935 4435.642811027424614 14000.00004900763452 
	0 
	
	spline forward { ref 0 } I I I I 
	null_surface 
	nubs 1 open 2 
	0 1 1 1 
	0 0 
	0 1 
	
	nullbs 
	I I 
	0 
	0 
	0 
	surf1 } I I #
End-of-ACIS-data 