700 0 1 0           
4 LibG 20 ASM 224.0.1.65535 NT 24 Wed Jul 17 14:48:15 2019 
1000 9.999999999999999547e-07 1.000000000000000036e-10 
body $-1 -1 $-1 $1 $-1 $2 #
lump $-1 -1 $-1 $-1 $3 $0 #
transform $-1 -1 1 0 0 0 1 0 0 0 1 0 0 0 1 no_rotate no_reflect no_shear #
shell $-1 -1 $-1 $-1 $-1 $4 $-1 $1 #
face $-1 -1 $-1 $5 $6 $3 $-1 $7 forward single #
face $-1 -1 $-1 $8 $9 $3 $-1 $10 reversed single #
loop $-1 -1 $-1 $-1 $11 $4 #
plane-surface $-1 -1 $-1 14781.79757191538738 3935.642797989764404 14000.00000000000182 1 -3.637978807091713027e-15 0 0 0 -1 forward_v I I I I #
face $-1 -1 $-1 $-1 $12 $3 $-1 $13 forward single #
loop $-1 -1 $-1 $-1 $14 $5 #
plane-surface $-1 -1 $-1 14531.79757191538738 3935.642797989765313 14000.00000000000182 1 -3.637978807091713027e-15 0 0 0 -1 forward_v I I I I #
tcoedge-coedge $-1 -1 $-1 $11 $11 $15 $16 forward $6 $17 0 6.283185307179586232 #
loop $-1 -1 $-1 $-1 $18 $8 #
spline-surface $-1 -1 $-1 forward { exactsur full nubs 3 3 periodic open none none 84 2 
	0 3 0.001116071428571428509 1 0.002232142857142857019 1 0.004464285714285714038 1 0.008928571428571428076 1 
	0.01785714285714285615 1 0.02678571428571428423 1 0.0357142857142857123 1 0.05357142857142856845 1 0.07142857142857142461 1 
	0.08928571428571427382 1 0.1071428571428571369 1 0.125 1 0.1428571428571428492 1 0.1587301587301587213 1 
	0.1825396825396825295 1 0.1904761904761904656 1 0.2023809523809523836 1 0.2142857142857142738 1 0.238095238095238082 1 
	0.2619047619047618625 1 0.2857142857142856984 1 0.2976190476190476164 1 0.3095238095238095344 1 0.3214285714285713969 1 
	0.3333333333333333148 1 0.3392857142857143016 1 0.3452380952380952328 1 0.3571428571428570953 1 0.3630952380952380265 1 
	0.3690476190476190133 1 0.3809523809523809312 1 0.3928571428571428492 1 0.4047619047619047672 1 0.4166666666666666297 1 
	0.4285714285714285476 1 0.4444444444444444198 1 0.4603174603174602919 1 0.476190476190476164 1 0.4781746031746031411 1 
	0.4791666666666666297 1 0.4801587301587301182 1 0.4841269841269840724 1 0.4920634920634920362 1 0.5 1 
	0.5039682539682539542 1 0.5079365079365079083 1 0.5238095238095237249 1 0.5476190476190475609 1 0.5595238095238095344 1 
	0.5654761904761904656 1 0.5714285714285713969 1 0.5952380952380951218 1 0.6190476190476189577 1 0.6349206349206348854 1 
	0.650793650793650702 1 0.6666666666666666297 1 0.6904761904761904656 1 0.7142857142857141906 1 0.7321428571428569843 1 
	0.749999999999999889 1 0.7678571428571427937 1 0.7857142857142855874 1 0.8095238095238094234 1 0.8214285714285713969 1 
	0.8333333333333332593 1 0.8452380952380951218 1 0.8571428571428570953 1 0.875 1 0.8928571428571427937 1 
	0.9107142857142856984 1 0.9285714285714286031 1 0.9464285714285713969 1 0.9642857142857143016 1 0.9732142857142858094 1 
	0.9821428571428572063 1 0.9910714285714286031 1 0.9955357142857143016 1 0.9977678571428572063 1 0.9988839285714286031 1 
	0.9994419642857143016 1 0.9997209821428572063 1 0.9998604910714286031 1 1 3 
	0 3 1 3 
	14531.79757171740675 4435.642810856975302 14000.00004832282139 
	14531.79757171740312 4435.642810855590142 14001.16879557769971 
	14531.79757171755227 4435.634614954752578 14003.50628998801585 
	14531.79757171768324 4435.585440749636291 14008.18104894494536 
	14531.79757171836172 4435.413336858185176 14016.36067017303503 
	14531.79757172051723 4434.725033402256486 14032.71025451935748 
	14531.79757172742029 4432.759649800576881 14056.01165637157828 
	14531.79757173381768 4428.8368713185655 14083.79706463729417 
	14531.79757174094084 4421.537983905598594 14120.49285095902269 
	14531.79757176387284 4408.575845030268283 14165.48641794731702 
	14531.79757178249201 4387.073367613237679 14217.39745823071644 
	14531.79757180319211 4359.894195926537577 14266.57481302587075 
	14531.79757182020694 4327.379474930586184 14312.39940505200138 
	14531.79757183963011 4289.939025429925096 14354.29630133922365 
	14531.79757184481241 4249.593980045786338 14390.34957413426855 
	14531.79757185627932 4200.610234961999595 14425.56876112409918 
	14531.79757185908784 4156.693794786826402 14449.48396423732811 
	14531.79757186175993 4114.558374629942591 14467.24402609854405 
	14531.79757186357165 4083.157844722413301 14478.23174839480816 
	14531.79757186699135 4034.95683099547341 14491.14829525099776 
	14531.79757187080395 3973.14771223280195 14500.46607042478536 
	14531.79757187756877 3898.13788594439211 14500.46555070073919 
	14531.79757188255644 3836.328576183385849 14491.1487384080483 
	14531.79757188371696 3788.127687751136818 14478.23201661566236 
	14531.79757188617259 3752.801749171485881 14465.87146884150752 
	14531.79757188796066 3718.4984409601675 14450.90481887098395 
	14531.79757188987787 3690.924291548942165 14436.33151308307424 
	14531.79757189042539 3669.564645217725683 14423.4609288524789 
	14531.79757189086376 3648.701069007894148 14409.8008797718594 
	14531.79757189167867 3628.625736113201128 14394.98467823208011 
	14531.79757189220436 3609.422922548179486 14379.0743638998083 
	14531.79757189253178 3590.828304507044322 14362.45732470113217 
	14531.79757189375778 3568.774729383384056 14340.40380563239705 
	14531.79757189459087 3544.362200274661973 14312.03585388210013 
	14531.79757189578777 3522.137754230795508 14281.92292805886245 
	14531.79757189616976 3502.226018330025909 14250.23327827939647 
	14531.79757189704105 3482.794622121687553 14213.46783838923147 
	14531.79757189781049 3465.016768929778209 14171.29381220950017 
	14531.79757189817064 3450.300264584443084 14123.5833144333501 
	14531.79757189881093 3443.292573409321449 14088.91843916928519 
	14531.79757189887277 3440.472382843020114 14069.38171040082307 
	14531.79757189886914 3439.91713027903188 14065.26340702490779 
	14531.79757189887641 3439.122781877686975 14059.08087863202672 
	14531.79757189891097 3437.610510335023264 14045.65923147743888 
	14531.79757189900192 3436.057282337982997 14024.93314865210414 
	14531.79757189905285 3435.539134897692293 14004.15541803228552 
	14531.79757189906377 3435.746366794828646 13987.53322202193704 
	14531.7975718990383 3436.6787529088474 13962.61548441553168 
	14531.79757189893098 3441.234333689196774 13917.07469452570695 
	14531.79757189830161 3453.289085788158445 13864.25972189953791 
	14531.79757189800512 3467.711520937835303 13823.0464940066322 
	14531.79757189790325 3477.254716934205589 13800.00715067021156 
	14531.79757189769043 3492.851233498988677 13766.00725716560555 
	14531.79757189580414 3520.97884868241681 13717.28661675003241 
	14531.79757189391421 3562.55109908334407 13665.158889334778 
	14531.79757189213524 3604.250895555273928 13624.48695192180458 
	14531.79757189159136 3643.286732831098107 13593.35727024279004 
	14531.79757188977419 3692.217781925654435 13561.75299685392929 
	14531.79757188743315 3752.28959091673596 13532.82328801361109 
	14531.79757188226722 3817.993884935223832 13512.55745003082484 
	14531.79757187863834 3879.543238384444976 13502.10063531858941 
	14531.79757187476571 3935.643088317519414 13498.94953304038791 
	14531.7975718706366 3991.742728463881122 13502.10071255750699 
	14531.79757186521419 4053.292499402200065 13512.55667511952561 
	14531.79757185903873 4107.049672363704303 13529.13952326296021 
	14531.79757185745802 4152.787048405952191 13549.09587664811261 
	14531.79757185417657 4185.876203066482958 13566.58338583491604 
	14531.7975718507314 4217.565621977464616 13586.49554245691252 
	14531.79757184652954 4252.69763668667747 13612.42359259060504 
	14531.7975718382022 4289.938955651085053 13645.70411044816501 
	14531.79757182709545 4327.379720014811937 13687.60047638205106 
	14531.79757181966488 4359.894249936062806 13733.42534833928221 
	14531.79757179250919 4387.0733663241881 13782.60265741027069 
	14531.79757177126339 4408.575866198915719 13834.5136987700771 
	14531.79757174408041 4421.537986608510437 13879.50725114606212 
	14531.7975717359659 4428.836875478361435 13916.20303618691105 
	14531.79757172859536 4432.759651391043917 13943.9884420904018 
	14531.79757172082827 4434.725034098737524 13967.28984260172729 
	14531.797571718369 4435.413337000916727 13983.63942647579461 
	14531.79757171765777 4435.585440810917135 13991.81904765973559 
	14531.79757171747042 4435.628468196156973 13995.90946168213122 
	14531.79757171742676 4435.639225191142032 13997.95474421760991 
	14531.79757171741039 4435.641914438879212 13998.97739491894208 
	14531.79757171741039 4435.642682796586996 13999.56176810068973 
	14531.79757171740857 4435.642810857149016 13999.85395491596137 
	14531.79757171740675 4435.642810856975302 14000.00004832282139 
	14615.13090505074069 4435.642810856974393 14000.00004832282139 
	14615.13090505073706 4435.642810855589232 14001.16879557769971 
	14615.13090505088621 4435.634614954751669 14003.50628998801585 
	14615.13090505101718 4435.585440749635382 14008.18104894494536 
	14615.13090505169566 4435.413336858184266 14016.36067017303503 
	14615.13090505385117 4434.725033402255576 14032.71025451935748 
	14615.13090506075423 4432.759649800575971 14056.01165637157828 
	14615.13090506715162 4428.83687131856459 14083.79706463729417 
	14615.13090507427478 4421.537983905597684 14120.49285095902269 
	14615.13090509720678 4408.575845030267374 14165.48641794731702 
	14615.13090511582595 4387.073367613236769 14217.39745823071644 
	14615.13090513652605 4359.894195926536668 14266.57481302587075 
	14615.13090515354088 4327.379474930585275 14312.39940505200138 
	14615.13090517296405 4289.939025429924186 14354.29630133922365 
	14615.13090517814635 4249.593980045785429 14390.34957413426855 
	14615.13090518961326 4200.610234961998685 14425.56876112409918 
	14615.13090519242178 4156.693794786825492 14449.48396423732811 
	14615.13090519509387 4114.558374629941682 14467.24402609854405 
	14615.13090519690559 4083.157844722412847 14478.23174839480816 
	14615.13090520032529 4034.956830995472956 14491.14829525099776 
	14615.13090520413789 3973.147712232801496 14500.46607042478536 
	14615.13090521090271 3898.137885944391655 14500.46555070073919 
	14615.13090521589038 3836.328576183385394 14491.1487384080483 
	14615.13090521705089 3788.127687751136364 14478.23201661566236 
	14615.13090521950653 3752.801749171485426 14465.87146884150752 
	14615.1309052212946 3718.498440960167045 14450.90481887098395 
	14615.13090522321181 3690.92429154894171 14436.33151308307424 
	14615.13090522375933 3669.564645217725229 14423.4609288524789 
	14615.1309052241977 3648.701069007893693 14409.8008797718594 
	14615.13090522501261 3628.625736113200674 14394.98467823208011 
	14615.1309052255383 3609.422922548179031 14379.0743638998083 
	14615.13090522586572 3590.828304507043867 14362.45732470113217 
	14615.13090522709172 3568.774729383383601 14340.40380563239705 
	14615.13090522792481 3544.362200274661518 14312.03585388210013 
	14615.13090522912171 3522.137754230795053 14281.92292805886245 
	14615.1309052295037 3502.226018330025454 14250.23327827939647 
	14615.13090523037499 3482.794622121687098 14213.46783838923147 
	14615.13090523114442 3465.016768929777754 14171.29381220950017 
	14615.13090523150458 3450.30026458444263 14123.5833144333501 
	14615.13090523214487 3443.292573409320994 14088.91843916928519 
	14615.13090523220671 3440.472382843019659 14069.38171040082307 
	14615.13090523220308 3439.917130279031426 14065.26340702490779 
	14615.13090523221035 3439.122781877686521 14059.08087863202672 
	14615.13090523224491 3437.610510335022809 14045.65923147743888 
	14615.13090523233586 3436.057282337982542 14024.93314865210414 
	14615.13090523238679 3435.539134897691838 14004.15541803228552 
	14615.13090523239771 3435.746366794828191 13987.53322202193704 
	14615.13090523237224 3436.678752908846946 13962.61548441553168 
	14615.13090523226492 3441.234333689196319 13917.07469452570695 
	14615.13090523163555 3453.28908578815799 13864.25972189953791 
	14615.13090523133906 3467.711520937834848 13823.0464940066322 
	14615.13090523123719 3477.254716934205135 13800.00715067021156 
	14615.13090523102437 3492.851233498988222 13766.00725716560555 
	14615.13090522913808 3520.978848682416356 13717.28661675003241 
	14615.13090522724815 3562.551099083343615 13665.158889334778 
	14615.13090522546918 3604.250895555273473 13624.48695192180458 
	14615.1309052249253 3643.286732831097652 13593.35727024279004 
	14615.13090522310813 3692.217781925653981 13561.75299685392929 
	14615.13090522076709 3752.289590916735506 13532.82328801361109 
	14615.13090521560116 3817.993884935223377 13512.55745003082484 
	14615.13090521197228 3879.543238384444521 13502.10063531858941 
	14615.13090520809965 3935.643088317518959 13498.94953304038791 
	14615.13090520397054 3991.742728463880667 13502.10071255750699 
	14615.13090519854813 4053.29249940219961 13512.55667511952561 
	14615.13090519237267 4107.049672363703394 13529.13952326296021 
	14615.13090519079196 4152.787048405951282 13549.09587664811261 
	14615.13090518751051 4185.876203066482049 13566.58338583491604 
	14615.13090518406534 4217.565621977463707 13586.49554245691252 
	14615.13090517986348 4252.69763668667656 13612.42359259060504 
	14615.13090517153614 4289.938955651084143 13645.70411044816501 
	14615.13090516042939 4327.379720014811028 13687.60047638205106 
	14615.13090515299882 4359.894249936061897 13733.42534833928221 
	14615.13090512584313 4387.073366324187191 13782.60265741027069 
	14615.13090510459733 4408.57586619891481 13834.5136987700771 
	14615.13090507741435 4421.537986608509527 13879.50725114606212 
	14615.13090506929984 4428.836875478360525 13916.20303618691105 
	14615.1309050619293 4432.759651391043008 13943.9884420904018 
	14615.13090505416221 4434.725034098736614 13967.28984260172729 
	14615.13090505170294 4435.413337000915817 13983.63942647579461 
	14615.13090505099171 4435.585440810916225 13991.81904765973559 
	14615.13090505080436 4435.628468196156064 13995.90946168213122 
	14615.1309050507607 4435.639225191141122 13997.95474421760991 
	14615.13090505074433 4435.641914438878302 13998.97739491894208 
	14615.13090505074433 4435.642682796586087 13999.56176810068973 
	14615.13090505074251 4435.642810857148106 13999.85395491596137 
	14615.13090505074069 4435.642810856974393 14000.00004832282139 
	14698.46423838067312 4435.642810856975302 14000.00004832282139 
	14698.46423838066585 4435.642810855590142 14001.16879557769971 
	14698.46423838081864 4435.634614954752578 14003.50628998801585 
	14698.46423838094961 4435.585440749636291 14008.18104894494536 
	14698.46423838164264 4435.413336858185176 14016.36067017303503 
	14698.46423838383271 4434.725033402256486 14032.71025451935748 
	14698.46423839085764 4432.759649800575971 14056.01165637157828 
	14698.46423839736417 4428.8368713185655 14083.79706463729417 
	14698.4642384046092 4421.537983905597684 14120.49285095902269 
	14698.46423842793592 4408.575845030267374 14165.48641794731702 
	14698.46423844687342 4387.07336761323495 14217.39745823071644 
	14698.46423846793186 4359.894195926534849 14266.57481302587075 
	14698.46423848523409 4327.379474930583456 14312.39940505200138 
	14698.46423850499741 4289.939025429922367 14354.29630133922365 
	14698.46423851026702 4249.59398004578361 14390.34957413426855 
	14698.46423852193402 4200.610234961997776 14425.56876112409918 
	14698.46423852479165 4156.693794786824583 14449.48396423732811 
	14698.46423852750922 4114.558374629940772 14467.24402609854405 
	14698.46423852935004 4083.157844722412847 14478.23174839480816 
	14698.46423853282977 4034.956830995472046 14491.14829525099776 
	14698.46423853670785 3973.147712232801041 14500.46607042478536 
	14698.46423854358545 3898.137885944390291 14500.46555070073919 
	14698.46423854866225 3836.328576183384939 14491.1487384080483 
	14698.46423854984278 3788.127687751135909 14478.23201661566236 
	14698.46423855234207 3752.801749171484971 14465.87146884150752 
	14698.46423855415924 3718.49844096016659 14450.90481887098395 
	14698.46423855611101 3690.924291548940801 14436.33151308307424 
	14698.4642385566658 3669.564645217724774 14423.4609288524789 
	14698.4642385571151 3648.701069007893238 14409.8008797718594 
	14698.46423855794092 3628.625736113200219 14394.98467823208011 
	14698.4642385584757 3609.422922548178576 14379.0743638998083 
	14698.46423855880857 3590.828304507043867 14362.45732470113217 
	14698.4642385600564 3568.774729383383601 14340.40380563239705 
	14698.46423856090223 3544.362200274661518 14312.03585388210013 
	14698.46423856211914 3522.137754230795053 14281.92292805886245 
	14698.46423856250476 3502.226018330024999 14250.23327827939647 
	14698.46423856339425 3482.794622121687098 14213.46783838923147 
	14698.46423856417277 3465.016768929777754 14171.29381220950017 
	14698.46423856454021 3450.300264584442175 14123.5833144333501 
	14698.46423856519141 3443.292573409320084 14088.91843916928519 
	14698.46423856525143 3440.472382843019204 14069.38171040082307 
	14698.4642385652478 3439.917130279030971 14065.26340702490779 
	14698.46423856525507 3439.122781877686066 14059.08087863202672 
	14698.46423856528963 3437.6105103350219 14045.65923147743888 
	14698.4642385653824 3436.057282337982087 14024.93314865210414 
	14698.46423856543515 3435.539134897691838 14004.15541803228552 
	14698.46423856544607 3435.746366794828191 13987.53322202193704 
	14698.4642385654206 3436.678752908846491 13962.61548441553168 
	14698.46423856531328 3441.234333689196319 13917.07469452570695 
	14698.46423856467482 3453.289085788157081 13864.25972189953791 
	14698.46423856437286 3467.711520937834393 13823.0464940066322 
	14698.46423856426918 3477.254716934204225 13800.00715067021156 
	14698.46423856405454 3492.851233498987767 13766.00725716560555 
	14698.46423856213551 3520.978848682415446 13717.28661675003241 
	14698.46423856021465 3562.551099083343161 13665.158889334778 
	14698.46423855840294 3604.250895555273019 13624.48695192180458 
	14698.46423855784997 3643.286732831097197 13593.35727024279004 
	14698.46423855600187 3692.217781925653981 13561.75299685392929 
	14698.46423855362082 3752.289590916735051 13532.82328801361109 
	14698.46423854836576 3817.993884935223832 13512.55745003082484 
	14698.46423854467139 3879.543238384445431 13502.10063531858941 
	14698.46423854073328 3935.643088317519414 13498.94953304038791 
	14698.46423853653505 3991.742728463881576 13502.10071255750699 
	14698.46423853101987 4053.292499402200065 13512.55667511952561 
	14698.46423852473708 4107.049672363704303 13529.13952326296021 
	14698.46423852313092 4152.787048405952191 13549.09587664811261 
	14698.46423851979307 4185.876203066482958 13566.58338583491604 
	14698.4642385162897 4217.565621977464616 13586.49554245691252 
	14698.46423851201507 4252.69763668667747 13612.42359259060504 
	14698.46423850354586 4289.938955651085053 13645.70411044816501 
	14698.4642384922463 4327.379720014811937 13687.60047638205106 
	14698.46423848468839 4359.894249936062806 13733.42534833928221 
	14698.46423845706522 4387.0733663241881 13782.60265741027069 
	14698.46423843545563 4408.575866198915719 13834.5136987700771 
	14698.46423840780881 4421.537986608510437 13879.50725114606212 
	14698.46423839955423 4428.836875478361435 13916.20303618691105 
	14698.46423839205818 4432.759651391043917 13943.9884420904018 
	14698.46423838415467 4434.725034098737524 13967.28984260172729 
	14698.46423838165356 4435.413337000916727 13983.63942647579461 
	14698.46423838092778 4435.585440810917135 13991.81904765973559 
	14698.46423838073679 4435.628468196156973 13995.90946168213122 
	14698.46423838069313 4435.639225191142032 13997.95474421760991 
	14698.46423838067676 4435.641914438879212 13998.97739491894208 
	14698.46423838067858 4435.642682796586996 13999.56176810068973 
	14698.46423838067676 4435.642810857149016 13999.85395491596137 
	14698.46423838067312 4435.642810856975302 14000.00004832282139 
	14781.79757171400706 4435.642810856975302 14000.00004832282139 
	14781.79757171399979 4435.642810855590142 14001.16879557769971 
	14781.79757171415258 4435.634614954752578 14003.50628998801585 
	14781.79757171428355 4435.585440749636291 14008.18104894494536 
	14781.79757171497658 4435.413336858185176 14016.36067017303503 
	14781.79757171716665 4434.725033402256486 14032.71025451935748 
	14781.79757172419158 4432.759649800575971 14056.01165637157828 
	14781.79757173069811 4428.8368713185655 14083.79706463729417 
	14781.79757173794314 4421.537983905597684 14120.49285095902269 
	14781.79757176126986 4408.575845030267374 14165.48641794731702 
	14781.79757178020736 4387.07336761323495 14217.39745823071644 
	14781.7975718012658 4359.894195926534849 14266.57481302587075 
	14781.79757181856803 4327.379474930583456 14312.39940505200138 
	14781.79757183833135 4289.939025429922367 14354.29630133922365 
	14781.79757184360096 4249.59398004578361 14390.34957413426855 
	14781.79757185526796 4200.610234961997776 14425.56876112409918 
	14781.79757185812559 4156.693794786824583 14449.48396423732811 
	14781.79757186084316 4114.558374629940772 14467.24402609854405 
	14781.79757186268398 4083.157844722412392 14478.23174839480816 
	14781.79757186616371 4034.956830995471591 14491.14829525099776 
	14781.79757187004179 3973.147712232800586 14500.46607042478536 
	14781.79757187691939 3898.137885944389836 14500.46555070073919 
	14781.79757188199619 3836.328576183384484 14491.1487384080483 
	14781.79757188317672 3788.127687751135454 14478.23201661566236 
	14781.79757188567601 3752.801749171484516 14465.87146884150752 
	14781.79757188749318 3718.498440960166135 14450.90481887098395 
	14781.79757188944495 3690.924291548940346 14436.33151308307424 
	14781.79757188999974 3669.564645217724319 14423.4609288524789 
	14781.79757189044903 3648.701069007892784 14409.8008797718594 
	14781.79757189127486 3628.625736113199764 14394.98467823208011 
	14781.79757189180964 3609.422922548178121 14379.0743638998083 
	14781.79757189214251 3590.828304507043413 14362.45732470113217 
	14781.79757189339034 3568.774729383383146 14340.40380563239705 
	14781.79757189423617 3544.362200274661063 14312.03585388210013 
	14781.79757189545307 3522.137754230794599 14281.92292805886245 
	14781.7975718958387 3502.226018330024544 14250.23327827939647 
	14781.79757189672819 3482.794622121686643 14213.46783838923147 
	14781.79757189750671 3465.016768929777299 14171.29381220950017 
	14781.79757189787415 3450.30026458444172 14123.5833144333501 
	14781.79757189852535 3443.29257340931963 14088.91843916928519 
	14781.79757189858537 3440.47238284301875 14069.38171040082307 
	14781.79757189858174 3439.917130279030516 14065.26340702490779 
	14781.79757189858901 3439.122781877685611 14059.08087863202672 
	14781.79757189862357 3437.610510335021445 14045.65923147743888 
	14781.79757189871634 3436.057282337981633 14024.93314865210414 
	14781.79757189876909 3435.539134897691383 14004.15541803228552 
	14781.79757189878001 3435.746366794827736 13987.53322202193704 
	14781.79757189875454 3436.678752908846036 13962.61548441553168 
	14781.79757189864722 3441.234333689195864 13917.07469452570695 
	14781.79757189800875 3453.289085788156626 13864.25972189953791 
	14781.7975718977068 3467.711520937833939 13823.0464940066322 
	14781.79757189760312 3477.254716934203771 13800.00715067021156 
	14781.79757189738848 3492.851233498987312 13766.00725716560555 
	14781.79757189546945 3520.978848682414991 13717.28661675003241 
	14781.79757189354859 3562.551099083342706 13665.158889334778 
	14781.79757189173688 3604.250895555272564 13624.48695192180458 
	14781.79757189118391 3643.286732831096742 13593.35727024279004 
	14781.79757188933581 3692.217781925653526 13561.75299685392929 
	14781.79757188695476 3752.289590916734596 13532.82328801361109 
	14781.7975718816997 3817.993884935223377 13512.55745003082484 
	14781.79757187800533 3879.543238384444976 13502.10063531858941 
	14781.79757187406722 3935.643088317518959 13498.94953304038791 
	14781.79757186986899 3991.742728463881122 13502.10071255750699 
	14781.79757186435381 4053.29249940219961 13512.55667511952561 
	14781.79757185807102 4107.049672363704303 13529.13952326296021 
	14781.79757185646486 4152.787048405952191 13549.09587664811261 
	14781.79757185312701 4185.876203066482958 13566.58338583491604 
	14781.79757184962364 4217.565621977464616 13586.49554245691252 
	14781.79757184534901 4252.69763668667747 13612.42359259060504 
	14781.7975718368798 4289.938955651085053 13645.70411044816501 
	14781.79757182558023 4327.379720014811937 13687.60047638205106 
	14781.79757181802233 4359.894249936062806 13733.42534833928221 
	14781.79757179039916 4387.0733663241881 13782.60265741027069 
	14781.79757176878957 4408.575866198915719 13834.5136987700771 
	14781.79757174114275 4421.537986608510437 13879.50725114606212 
	14781.79757173288817 4428.836875478361435 13916.20303618691105 
	14781.79757172539212 4432.759651391043917 13943.9884420904018 
	14781.79757171748861 4434.725034098737524 13967.28984260172729 
	14781.7975717149875 4435.413337000916727 13983.63942647579461 
	14781.79757171426172 4435.585440810917135 13991.81904765973559 
	14781.79757171407073 4435.628468196156973 13995.90946168213122 
	14781.79757171402707 4435.639225191142032 13997.95474421760991 
	14781.7975717140107 4435.641914438879212 13998.97739491894208 
	14781.79757171401252 4435.642682796586996 13999.56176810068973 
	14781.7975717140107 4435.642810857149016 13999.85395491596137 
	14781.79757171400706 4435.642810856975302 14000.00004832282139 
	0 
	
	0 
	0 
	81 0 0.001116071428571428509 0.002232142857142857019 0.004464285714285714038 0.008928571428571428076 0.01785714285714285615 0.02678571428571428423 0.0357142857142857123 0.05357142857142856845 0.07142857142857142461 0.08928571428571427382 0.1071428571428571369 0.125 0.1428571428571428492 0.1587301587301587213 0.1825396825396825295 0.1904761904761904656 0.2023809523809523836 0.2142857142857142738 0.238095238095238082 0.2619047619047618625 0.2857142857142856984 0.2976190476190476164 0.3095238095238095344 0.3214285714285713969 0.3333333333333333148 0.3392857142857143016 0.3452380952380952328 0.3571428571428570953 0.3630952380952380265 0.3690476190476190133 0.3809523809523809312 0.3928571428571428492 0.4047619047619047672 0.4166666666666666297 0.4285714285714285476 0.4444444444444444198 0.4603174603174602919 0.476190476190476164 0.4781746031746031411 0.4791666666666666297 0.4801587301587301182 0.4841269841269840724 0.4920634920634920362 0.5 0.5039682539682539542 0.5079365079365079083 0.5238095238095237249 0.5476190476190475609 0.5595238095238095344 0.5654761904761904656 0.5714285714285713969 0.5952380952380951218 0.6190476190476189577 0.6349206349206348854 0.650793650793650702 0.6666666666666666297 0.6904761904761904656 0.7142857142857141906 0.7321428571428569843 0.749999999999999889 0.7678571428571427937 0.7857142857142855874 0.8095238095238094234 0.8214285714285713969 0.8333333333333332593 0.8452380952380951218 0.8571428571428570953 0.875 0.8928571428571427937 0.9107142857142856984 0.9285714285714286031 0.9464285714285713969 0.9642857142857143016 0.9732142857142858094 0.9821428571428572063 0.9910714285714286031 0.9955357142857143016 0.9977678571428572063 0.9994419642857143016 0.9998604910714286031 
	0 
	0 
	0 
	F 1 F 0 F 1 F 0 } I I I I #
tcoedge-coedge $-1 -1 $-1 $14 $14 $18 $19 reversed $9 $20 -6.283185307179586232 -0 #
tcoedge-coedge $-1 -1 $-1 $21 $22 $11 $16 reversed $12 $23 -6.283185307179586232 -0 #
tedge-edge $-1 -1 $-1 $24 0 $24 6.283185307179586232 $15 $25 forward @7 unknown 0.0008035233166301878867 #
pcurve $-1 -1 $-1 0 forward { exppc nurbs 2 periodic 5 
	0 2 1.570796326794896558 2 3.141592653589793116 2 4.712388980384689674 2 6.283185307179586232 2 
	0 500 1 
	-500 500 0.707106781186543798 
	-500 0 1 
	-500 -500 0.7071067811865463515 
	0 -500 1 
	500 -500 0.7071067811865463515 
	500 0 1 
	500 500 0.707106781186543798 
	0 500 1 
	0 
	plane 14781.79757191538738 3935.642797989764404 14000.00000000000182 1 -3.637978807091713027e-15 0 0 0 -1 forward_v I I I I 
	} 0 0 #
tcoedge-coedge $-1 -1 $-1 $22 $21 $14 $19 forward $12 $26 0 6.283185307179586232 #
tedge-edge $-1 -1 $-1 $27 0 $27 6.283185307179586232 $18 $28 forward @7 unknown 0.0008035233181642792086 #
pcurve $-1 -1 $-1 0 forward { exppc nurbs 2 periodic 5 
	-6.283185307179586232 2 -4.712388980384689674 2 -3.141592653589793116 2 -1.570796326794896558 2 0 2 
	0 500 1 
	500 500 0.707106781186543798 
	500 0 1 
	500 -500 0.7071067811865463515 
	0 -500 1 
	-500 -500 0.7071067811865463515 
	-500 0 1 
	-500 500 0.707106781186543798 
	0 500 1 
	0 
	plane 14531.79757191538738 3935.642797989765313 14000.00000000000182 -1 3.637978807091713027e-15 -0 0 0 -1 reverse_v I I I I 
	} 0 0 #
coedge $-1 -1 $-1 $18 $15 $22 $29 reversed $12 $30 #
coedge $-1 -1 $-1 $15 $18 $21 $29 forward $12 $31 #
pcurve $-1 -1 $-1 0 forward { exppc nubs 1 periodic 2 
	-6.283185307179586232 1 -0 1 
	1 1 
	0 1 
	2.726396620975368931e-13 
	spline forward { ref 0 } I I I I 
	} 0 0 #
tvertex-vertex $-1 -1 $-1 $16 $32 5.000701512831710096e-05 #
ellipse-curve $-1 -1 $-1 14781.79757191538738 3935.642797989764404 14000.00000000000182 1 -3.637978807091713027e-15 0 1.818989403545856476e-12 500 0 1 I I #
pcurve $-1 -1 $-1 0 forward { exppc nubs 1 periodic 2 
	0 1 6.283185307179586232 1 
	0 0 
	1 0 
	4.4114023995510105e-13 
	spline forward { ref 0 } I I I I 
	} 0 0 #
tvertex-vertex $-1 -1 $-1 $19 $33 5.000700131903423472e-05 #
ellipse-curve $-1 -1 $-1 14531.79757191538738 3935.642797989765313 14000.00000000000182 1 -3.637978807091713027e-15 0 1.818989403545856476e-12 500 0 1 I I #
edge $-1 -1 $-1 $27 0 $24 1 $22 $34 forward @7 tangent #
pcurve $-1 -1 $-1 -1 $34 0 0 #
pcurve $-1 -1 $-1 1 $34 1 0 #
point $-1 -1 $-1 14781.7975719153892 4435.642797989764404 14000.00000000000182 #
point $-1 -1 $-1 14531.7975719153892 4435.642797989765313 14000.00000000000182 #
intcurve-curve $-1 -1 $-1 forward { parcur full nubs 3 open 2 
	0 3 1 3 
	14531.79757171740675 4435.642810856975302 14000.00004832282139 
	14615.13090505074069 4435.642810856974393 14000.00004832282139 
	14698.46423838067312 4435.642810856975302 14000.00004832282139 
	14781.79757171400706 4435.642810856975302 14000.00004832282139 
	0 
	
	spline forward { ref 0 } I I I I 
	null_surface 
	nubs 1 open 2 
	0 1 1 1 
	0 0 
	0 1 
	
	nullbs 
	I I 
	0 
	0 
	0 
	surf1 } I I #
End-of-ACIS-data 