700 0 1 0           
4 LibG 20 ASM 224.0.1.65535 NT 24 Wed Jul 17 14:48:12 2019 
1000 9.999999999999999547e-07 1.000000000000000036e-10 
body $-1 -1 $-1 $1 $-1 $2 #
lump $-1 -1 $-1 $-1 $3 $0 #
transform $-1 -1 1 0 0 0 1 0 0 0 1 0 0 0 1 no_rotate no_reflect no_shear #
shell $-1 -1 $-1 $-1 $-1 $4 $-1 $1 #
face $-1 -1 $-1 $5 $6 $3 $-1 $7 forward single #
face $-1 -1 $-1 $8 $9 $3 $-1 $10 reversed single #
loop $-1 -1 $-1 $-1 $11 $4 #
plane-surface $-1 -1 $-1 -468.202428084613075 3935.642797989819883 14000.00000000000182 1 -3.637978807091713027e-15 0 0 0 -1 forward_v I I I I #
face $-1 -1 $-1 $-1 $12 $3 $-1 $13 forward single #
loop $-1 -1 $-1 $-1 $14 $5 #
plane-surface $-1 -1 $-1 -718.202428084613075 3935.642797989820792 14000.00000000000182 1 -3.637978807091713027e-15 0 0 0 -1 forward_v I I I I #
tcoedge-coedge $-1 -1 $-1 $11 $11 $15 $16 forward $6 $17 0 6.283185307179586232 #
loop $-1 -1 $-1 $-1 $18 $8 #
spline-surface $-1 -1 $-1 forward { exactsur full nubs 3 3 periodic open none none 90 2 
	0 3 0.004464285714285714038 1 0.008928571428571428076 1 0.01785714285714285615 1 0.02678571428571428423 1 
	0.0357142857142857123 1 0.05357142857142856845 1 0.07142857142857142461 1 0.08928571428571427382 1 0.09374999999999998612 1 
	0.09821428571428569843 1 0.1026785714285714246 1 0.1071428571428571369 1 0.125 1 0.1428571428571428492 1 
	0.1587301587301587213 1 0.1785714285714285476 1 0.1825396825396825295 1 0.1904761904761904656 1 0.2142857142857142738 1 
	0.226190476190476164 1 0.238095238095238082 1 0.2410714285714285476 1 0.2440476190476190133 1 0.2499999999999999722 1 
	0.2619047619047618625 1 0.2738095238095237804 1 0.2857142857142856984 1 0.2976190476190476164 1 0.3095238095238095344 1 
	0.3214285714285713969 1 0.3333333333333333148 1 0.3452380952380952328 1 0.3571428571428570953 1 0.3630952380952380265 1 
	0.3690476190476190133 1 0.375 1 0.3809523809523809312 1 0.3928571428571428492 1 0.4047619047619047672 1 
	0.4166666666666666297 1 0.4285714285714285476 1 0.4444444444444444198 1 0.4603174603174602919 1 0.476190476190476164 1 
	0.4801587301587301182 1 0.4841269841269840724 1 0.4920634920634920362 1 0.5 1 0.5079365079365079083 1 
	0.5158730158730158166 1 0.5238095238095237249 1 0.5476190476190475609 1 0.5714285714285713969 1 0.5833333333333332593 1 
	0.5892857142857141906 1 0.5922619047619046562 1 0.5952380952380951218 1 0.6190476190476189577 1 0.6269841269841269771 1 
	0.6349206349206348854 1 0.650793650793650702 1 0.6666666666666666297 1 0.6904761904761904656 1 0.7023809523809523281 1 
	0.7142857142857141906 1 0.7321428571428569843 1 0.749999999999999889 1 0.7678571428571427937 1 0.7857142857142855874 1 
	0.7976190476190474499 1 0.8095238095238094234 1 0.8333333333333332593 1 0.8452380952380951218 1 0.851190476190476053 1 
	0.8571428571428570953 1 0.875 1 0.8928571428571427937 1 0.9107142857142856984 1 0.9285714285714286031 1 
	0.9464285714285713969 1 0.9642857142857143016 1 0.9732142857142858094 1 0.9821428571428572063 1 0.9910714285714286031 1 
	0.9955357142857143016 1 0.9977678571428572063 1 0.9988839285714286031 1 0.9994419642857143016 1 1 3 
	0 3 1 3 
	-718.2024280856047653 4435.642881038685118 13999.99993701359199 
	-718.2024280856047653 4435.642880841804072 14004.67492613028298 
	-718.2024280855908955 4435.511735781898096 14014.02490552097333 
	-718.202428085578731 4434.725100154791107 14032.71014806874337 
	-718.2024280855314373 4432.759716852818201 14056.01156257725415 
	-718.2024280854917606 4428.836932746866296 14083.79697743207907 
	-718.2024280854489007 4421.538052236750445 14120.49278742747811 
	-718.2024280853033815 4408.575873242468333 14165.48635074509912 
	-718.2024280852103857 4387.073469000301884 14217.3975304784235 
	-718.2024280850912419 4366.688953230530387 14254.28040551578124 
	-718.20242808507885 4351.432169701994098 14277.82153264067711 
	-718.2024280850725972 4343.476809470754233 14289.37361373290332 
	-718.202428085067254 4335.200482278053641 14300.6979619840622 
	-718.2024280850567948 4318.019384272163734 14322.87369720642528 
	-718.2024280849821025 4289.938960960631448 14354.29615362898585 
	-718.2024280849253728 4249.594070172463944 14390.3498905123015 
	-718.2024280848693252 4203.987963166826376 14423.13893981323781 
	-718.2024280848276021 4167.673321113155907 14443.50612727573025 
	-718.2024280848258968 4137.541042440998353 14457.55623405330698 
	-718.2024280848100943 4103.067715445705289 14472.08968469486354 
	-718.2024280847817863 4059.265201693085601 14485.60037540682424 
	-718.2024280847734872 4010.233314357279596 14494.87632672521249 
	-718.2024280847564341 3982.340378852097729 14498.01952315004564 
	-718.2024280847551836 3963.679623538535452 14499.24251738734893 
	-718.2024280847542741 3951.22606725006699 14499.82515933402101 
	-718.2024280847504087 3929.409446464078428 14500.23323384611467 
	-718.202428084738699 3898.242857086912409 14499.0671149500613 
	-718.2024280847288082 3861.052097628130468 14494.87669317612745 
	-718.2024280847182354 3824.278482541014 14487.91876058803064 
	-718.2024280847093678 3788.127659271443463 14478.23217100197871 
	-718.202428084700955 3752.801801745335524 14465.87111983965224 
	-718.202428084693338 3718.498461296630467 14450.90472793325353 
	-718.2024280846861757 3685.409485775269786 14433.41668856330398 
	-718.2024280846794682 3653.719902310668203 14413.50481998008763 
	-718.202428084676626 3628.625768829639128 14394.98454094853332 
	-718.2024280846744659 3609.422940293512966 14379.07425180565406 
	-718.2024280846732154 3595.476997713642049 14366.6114512003478 
	-718.2024280846718511 3582.006860393418719 14353.63585424980556 
	-718.2024280846707143 3564.706033865967584 14335.67569387965705 
	-718.20242808466719 3544.362216599369276 14312.03578763338373 
	-718.2024280846634383 3522.137787552122063 14281.92286405911182 
	-718.2024280846618467 3502.22604545225704 14250.23322869881304 
	-718.2024280846587772 3482.79464500109907 14213.46780660697186 
	-718.202428084655935 3465.016798652780381 14171.29380273672541 
	-718.2024280846546844 3450.300262754636606 14123.58331922788966 
	-718.2024280846521833 3442.880401698962942 14086.87935692113933 
	-718.2024280846520696 3439.471796410984098 14062.17821268980697 
	-718.2024280846517286 3437.610517930923834 14045.6592694759911 
	-718.2024280846510464 3436.057290679111247 14024.93319066397635 
	-718.2024280846503643 3435.435537282170571 13999.99992387204838 
	-718.2024280846496822 3436.057207033231862 13975.06662989510369 
	-718.2024280846495685 3437.921354771155166 13950.19538423801896 
	-718.2024280846487727 3443.088998258991069 13908.94945198005553 
	-718.2024280846476358 3456.070195909214817 13852.07133396613608 
	-718.2024280846476358 3478.907747049592672 13793.88479805681345 
	-718.2024280846479769 3499.311492741071561 13755.28150749343331 
	-718.2024280846478632 3510.573008903650134 13736.59169851521438 
	-718.2024280846482043 3517.304432469687526 13726.09796104561974 
	-718.202428084648318 3534.620041858886907 13700.1824654030479 
	-718.2024280846574129 3557.354423077500542 13671.67496825140552 
	-718.2024280846584361 3586.379733527409371 13641.91819904475233 
	-718.2024280846602551 3610.756758307900782 13619.29880146829237 
	-718.2024280846655984 3643.28677593982502 13593.35765617013203 
	-718.2024280846737838 3692.217558001785619 13561.75276947122256 
	-718.2024280846833335 3741.026182746538325 13538.24848115427085 
	-718.2024280846886768 3788.12795037628257 13521.7685086463116 
	-718.2024280846950433 3830.303608802653343 13510.46670956173512 
	-718.2024280847081172 3879.543032732065058 13502.1005291055626 
	-718.2024280847233513 3935.642824304086389 13498.95006170439956 
	-718.202428084740859 3991.742627315246864 13502.1005074544355 
	-718.2024280847581394 4040.982035396717038 13510.46671936160783 
	-718.202428084772464 4083.15772441307854 13521.76843351215211 
	-718.2024280847762157 4130.259397981282746 13538.24866158688019 
	-718.2024280848091848 4175.313626907477556 13559.94462419261799 
	-718.2024280848273747 4212.284049889945891 13583.17665270354883 
	-718.202428084839994 4232.622271621729851 13597.60713895418849 
	-718.202428084842154 4257.352816147995327 13616.5833990627234 
	-718.2024280849041133 4289.939179932097431 13645.70354450619561 
	-718.2024280850031346 4327.379759363737321 13687.60018450189273 
	-718.2024280850989726 4359.894359565935702 13733.42499702332861 
	-718.2024280852144784 4387.073533346179829 13782.60234548652807 
	-718.2024280853217988 4408.575963569533997 13834.5134726106462 
	-718.2024280854570861 4421.538079344916696 13879.50708324502193 
	-718.2024280855005145 4428.836956377697788 13916.20288949072165 
	-718.2024280855403049 4432.759728773537972 13943.98831009952482 
	-718.202428085584188 4434.725105816966789 13967.28972564007927 
	-718.2024280855987399 4435.413407626481785 13983.63931366148245 
	-718.2024280856028327 4435.585511003975625 13991.81893600460535 
	-718.2024280856039695 4435.628538389160894 13995.90935027880369 
	-718.202428085604538 4435.640831977106245 13998.24681611291635 
	-718.2024280856047653 4435.642881063296045 13999.41556337400652 
	-718.2024280856047653 4435.642881038685118 13999.99993701359199 
	-634.8690947522713941 4435.642881038684209 13999.99993701359199 
	-634.8690947522713941 4435.642880841803162 14004.67492613028298 
	-634.8690947522575243 4435.511735781897187 14014.02490552097333 
	-634.8690947522453598 4434.725100154790198 14032.71014806874337 
	-634.8690947521980661 4432.759716852817292 14056.01156257725415 
	-634.8690947521583894 4428.836932746865386 14083.79697743207907 
	-634.8690947521154158 4421.538052236749536 14120.49278742747811 
	-634.869094751970124 4408.575873242467424 14165.48635074509912 
	-634.8690947518769008 4387.073469000300975 14217.3975304784235 
	-634.869094751758098 4366.688953230529478 14254.28040551578124 
	-634.8690947517453651 4351.432169701993189 14277.82153264067711 
	-634.8690947517393397 4343.476809470753324 14289.37361373290332 
	-634.8690947517338827 4335.200482278052732 14300.6979619840622 
	-634.8690947517235372 4318.019384272162824 14322.87369720642528 
	-634.8690947516486176 4289.938960960630538 14354.29615362898585 
	-634.8690947515920016 4249.594070172463034 14390.3498905123015 
	-634.8690947515359539 4203.987963166825466 14423.13893981323781 
	-634.8690947514941172 4167.673321113154998 14443.50612727573025 
	-634.8690947514926393 4137.541042440997444 14457.55623405330698 
	-634.869094751476382 4103.06771544570438 14472.08968469486354 
	-634.8690947514487561 4059.265201693085146 14485.60037540682424 
	-634.8690947514398886 4010.233314357279141 14494.87632672521249 
	-634.8690947514232903 3982.340378852097274 14498.01952315004564 
	-634.8690947514218124 3963.679623538534997 14499.24251738734893 
	-634.8690947514209029 3951.226067250066535 14499.82515933402101 
	-634.8690947514170375 3929.409446464077973 14500.23323384611467 
	-634.8690947514053278 3898.242857086911954 14499.0671149500613 
	-634.869094751395437 3861.052097628130014 14494.87669317612745 
	-634.8690947513848641 3824.278482541013545 14487.91876058803064 
	-634.8690947513759966 3788.127659271443008 14478.23217100197871 
	-634.8690947513675837 3752.801801745335069 14465.87111983965224 
	-634.8690947513600804 3718.498461296630012 14450.90472793325353 
	-634.8690947513528045 3685.409485775269331 14433.41668856330398 
	-634.8690947513459832 3653.719902310667749 14413.50481998008763 
	-634.8690947513433684 3628.625768829638673 14394.98454094853332 
	-634.869094751340981 3609.422940293512511 14379.07425180565406 
	-634.8690947513398442 3595.476997713641595 14366.6114512003478 
	-634.8690947513384799 3582.006860393418265 14353.63585424980556 
	-634.869094751337343 3564.706033865967129 14335.67569387965705 
	-634.8690947513338187 3544.362216599368821 14312.03578763338373 
	-634.8690947513300671 3522.137787552121608 14281.92286405911182 
	-634.8690947513284755 3502.226045452256585 14250.23322869881304 
	-634.8690947513254059 3482.794645001098615 14213.46780660697186 
	-634.8690947513225638 3465.016798652779926 14171.29380273672541 
	-634.8690947513211995 3450.300262754636151 14123.58331922788966 
	-634.8690947513189258 3442.880401698962487 14086.87935692113933 
	-634.8690947513186984 3439.471796410983643 14062.17821268980697 
	-634.8690947513183573 3437.610517930923379 14045.6592694759911 
	-634.8690947513176752 3436.057290679110793 14024.93319066397635 
	-634.8690947513171068 3435.435537282170117 13999.99992387204838 
	-634.8690947513161973 3436.057207033231407 13975.06662989510369 
	-634.869094751316311 3437.921354771154711 13950.19538423801896 
	-634.8690947513152878 3443.088998258990614 13908.94945198005553 
	-634.8690947513143783 3456.070195909214362 13852.07133396613608 
	-634.8690947513141509 3478.907747049592217 13793.88479805681345 
	-634.8690947513146057 3499.311492741071106 13755.28150749343331 
	-634.869094751314492 3510.573008903649679 13736.59169851521438 
	-634.869094751314833 3517.304432469687072 13726.09796104561974 
	-634.8690947513149467 3534.620041858886452 13700.1824654030479 
	-634.8690947513240417 3557.354423077500087 13671.67496825140552 
	-634.8690947513250649 3586.379733527408916 13641.91819904475233 
	-634.8690947513268839 3610.756758307900327 13619.29880146829237 
	-634.8690947513323408 3643.286775939824565 13593.35765617013203 
	-634.8690947513404126 3692.217558001785164 13561.75276947122256 
	-634.8690947513499623 3741.02618274653787 13538.24848115427085 
	-634.8690947513554192 3788.127950376282115 13521.7685086463116 
	-634.869094751361672 3830.303608802652889 13510.46670956173512 
	-634.869094751374746 3879.543032732064603 13502.1005291055626 
	-634.8690947513900937 3935.642824304085934 13498.95006170439956 
	-634.8690947514073741 3991.742627315246409 13502.1005074544355 
	-634.8690947514248819 4040.982035396716583 13510.46671936160783 
	-634.8690947514389791 4083.157724413078085 13521.76843351215211 
	-634.8690947514429581 4130.259397981281836 13538.24866158688019 
	-634.8690947514758136 4175.313626907476646 13559.94462419261799 
	-634.8690947514940035 4212.284049889944981 13583.17665270354883 
	-634.8690947515067364 4232.622271621728942 13597.60713895418849 
	-634.8690947515086691 4257.352816147994417 13616.5833990627234 
	-634.8690947515708558 4289.939179932096522 13645.70354450619561 
	-634.8690947516696497 4327.379759363736412 13687.60018450189273 
	-634.869094751765715 4359.894359565934792 13733.42499702332861 
	-634.8690947518809935 4387.07353334617892 13782.60234548652807 
	-634.8690947519885412 4408.575963569533087 13834.5134726106462 
	-634.8690947521237149 4421.538079344915786 13879.50708324502193 
	-634.869094752167257 4428.836956377696879 13916.20288949072165 
	-634.86909475220682 4432.759728773537063 13943.98831009952482 
	-634.8690947522509305 4434.725105816965879 13967.28972564007927 
	-634.8690947522653687 4435.413407626480875 13983.63931366148245 
	-634.8690947522693477 4435.585511003974716 13991.81893600460535 
	-634.869094752270712 4435.628538389159985 13995.90935027880369 
	-634.8690947522711667 4435.640831977105336 13998.24681611291635 
	-634.8690947522713941 4435.642881063295135 13999.41556337400652 
	-634.8690947522713941 4435.642881038684209 13999.99993701359199 
	-551.5357614185925286 4435.642881038685118 13999.99993701359199 
	-551.5357614185925286 4435.642880841804072 14004.67492613028298 
	-551.5357614185834336 4435.511735781898096 14014.02490552097333 
	-551.5357614185755892 4434.725100154791107 14032.71014806874337 
	-551.5357614185447801 4432.759716852818201 14056.01156257725415 
	-551.5357614185189732 4428.836932746866296 14083.79697743207907 
	-551.5357614184910062 4421.538052236750445 14120.49278742747811 
	-551.535761418395964 4408.575873242468333 14165.48635074509912 
	-551.53576141833571 4387.073469000301884 14217.3975304784235 
	-551.5357614182576071 4366.688953230530387 14254.28040551578124 
	-551.5357614182498764 4351.432169701994098 14277.82153264067711 
	-551.5357614182455563 4343.476809470754233 14289.37361373290332 
	-551.5357614182421457 4335.200482278053641 14300.6979619840622 
	-551.5357614182353245 4318.019384272163734 14322.87369720642528 
	-551.5357614181867802 4289.938960960631448 14354.29615362898585 
	-551.535761418149832 4249.594070172463944 14390.3498905123015 
	-551.5357614181132249 4203.987963166826376 14423.13893981323781 
	-551.5357614180862811 4167.673321113155907 14443.50612727573025 
	-551.5357614180849168 4137.541042440998353 14457.55623405330698 
	-551.5357614180750261 4103.067715445705289 14472.08968469486354 
	-551.5357614180560404 4059.265201693086055 14485.60037540682424 
	-551.5357614180511518 4010.233314357280051 14494.87632672521249 
	-551.5357614180397832 3982.340378852098183 14498.01952315004564 
	-551.535761418039101 3963.679623538535907 14499.24251738734893 
	-551.5357614180385326 3951.226067250067445 14499.82515933402101 
	-551.5357614180360315 3929.409446464078883 14500.23323384611467 
	-551.5357614180284145 3898.242857086912863 14499.0671149500613 
	-551.535761418022048 3861.052097628130923 14494.87669317612745 
	-551.5357614180152268 3824.278482541014455 14487.91876058803064 
	-551.5357614180094288 3788.127659271443918 14478.23217100197871 
	-551.5357614180040855 3752.801801745335979 14465.87111983965224 
	-551.5357614179989696 3718.498461296630012 14450.90472793325353 
	-551.5357614179945358 3685.409485775269786 14433.41668856330398 
	-551.5357614179902157 3653.719902310666839 14413.50481998008763 
	-551.5357614179880557 3628.625768829638218 14394.98454094853332 
	-551.5357614179869188 3609.422940293511601 14379.07425180565406 
	-551.5357614179860093 3595.476997713641595 14366.6114512003478 
	-551.5357614179852135 3582.006860393417355 14353.63585424980556 
	-551.5357614179844177 3564.706033865967584 14335.67569387965705 
	-551.5357614179821439 3544.362216599368367 14312.03578763338373 
	-551.5357614179797565 3522.137787552121154 14281.92286405911182 
	-551.535761417978847 3502.22604545225613 14250.23322869881304 
	-551.5357614179768007 3482.794645001098161 14213.46780660697186 
	-551.535761417974868 3465.016798652779471 14171.29380273672541 
	-551.5357614179741859 3450.300262754635696 14123.58331922788966 
	-551.5357614179723669 3442.880401698962032 14086.87935692113933 
	-551.5357614179723669 3439.471796410983643 14062.17821268980697 
	-551.5357614179722532 3437.610517930922924 14045.6592694759911 
	-551.5357614179716848 3436.057290679110338 14024.93319066397635 
	-551.5357614179713437 3435.435537282169662 13999.99992387204838 
	-551.5357614179711163 3436.057207033230952 13975.06662989510369 
	-551.5357614179707753 3437.921354771153801 13950.19538423801896 
	-551.5357614179704342 3443.08899825898925 13908.94945198005553 
	-551.5357614179695247 3456.070195909213908 13852.07133396613608 
	-551.5357614179697521 3478.907747049591308 13793.88479805681345 
	-551.5357614179698658 3499.311492741071106 13755.28150749343331 
	-551.5357614179698658 3510.573008903649225 13736.59169851521438 
	-551.5357614179699794 3517.304432469687072 13726.09796104561974 
	-551.5357614179699794 3534.620041858885543 13700.1824654030479 
	-551.5357614179758912 3557.354423077498268 13671.67496825140552 
	-551.5357614179764596 3586.379733527407552 13641.91819904475233 
	-551.5357614179777102 3610.756758307898963 13619.29880146829237 
	-551.5357614179810071 3643.286775939823201 13593.35765617013203 
	-551.535761417986464 3692.217558001783345 13561.75276947122256 
	-551.5357614179924894 3741.026182746536506 13538.24848115427085 
	-551.5357614179959 3788.127950376281206 13521.7685086463116 
	-551.5357614180001065 3830.30360880265107 13510.46670956173512 
	-551.5357614180085193 3879.543032732064148 13502.1005291055626 
	-551.5357614180182964 3935.64282430408548 13498.95006170439956 
	-551.5357614180298924 3991.742627315246864 13502.1005074544355 
	-551.53576141804092 4040.982035396717038 13510.46671936160783 
	-551.5357614180502424 4083.157724413078995 13521.76843351215211 
	-551.5357614180525161 4130.259397981282746 13538.24866158688019 
	-551.5357614180738892 4175.313626907476646 13559.94462419261799 
	-551.5357614180858263 4212.284049889944981 13583.17665270354883 
	-551.5357614180938981 4232.622271621728942 13597.60713895418849 
	-551.5357614180954897 4257.352816147994417 13616.5833990627234 
	-551.5357614181357349 4289.939179932096522 13645.70354450619561 
	-551.5357614182004227 4327.379759363737321 13687.60018450189273 
	-551.5357614182626094 4359.894359565935702 13733.42499702332861 
	-551.5357614183380974 4387.07353334617892 13782.60234548652807 
	-551.5357614184079011 4408.575963569533997 13834.5134726106462 
	-551.5357614184961221 4421.538079344916696 13879.50708324502193 
	-551.5357614185244302 4428.836956377697788 13916.20288949072165 
	-551.5357614185504644 4432.759728773537972 13943.98831009952482 
	-551.5357614185791135 4434.725105816966789 13967.28972564007927 
	-551.5357614185885495 4435.413407626481785 13983.63931366148245 
	-551.5357614185913917 4435.585511003975625 13991.81893600460535 
	-551.5357614185918464 4435.628538389160894 13995.90935027880369 
	-551.5357614185925286 4435.640831977106245 13998.24681611291635 
	-551.5357614185926423 4435.642881063296045 13999.41556337400652 
	-551.5357614185925286 4435.642881038685118 13999.99993701359199 
	-468.2024280852592142 4435.642881038685118 13999.99993701359199 
	-468.2024280852591573 4435.642880841804072 14004.67492613028298 
	-468.2024280852500624 4435.511735781898096 14014.02490552097333 
	-468.202428085242218 4434.725100154791107 14032.71014806874337 
	-468.202428085211352 4432.759716852818201 14056.01156257725415 
	-468.202428085185602 4428.836932746866296 14083.79697743207907 
	-468.2024280851575782 4421.538052236750445 14120.49278742747811 
	-468.2024280850627633 4408.575873242468333 14165.48635074509912 
	-468.2024280850021682 4387.073469000301884 14217.3975304784235 
	-468.2024280849244064 4366.688953230530387 14254.28040551578124 
	-468.2024280849163915 4351.432169701994098 14277.82153264067711 
	-468.2024280849122988 4343.476809470754233 14289.37361373290332 
	-468.2024280849087745 4335.200482278053641 14300.6979619840622 
	-468.2024280849020101 4318.019384272163734 14322.87369720642528 
	-468.2024280848533522 4289.938960960631448 14354.29615362898585 
	-468.2024280848164608 4249.594070172463944 14390.3498905123015 
	-468.2024280847798536 4203.987963166826376 14423.13893981323781 
	-468.2024280847527962 4167.673321113155907 14443.50612727573025 
	-468.2024280847516593 4137.541042440998353 14457.55623405330698 
	-468.2024280847413706 4103.067715445705289 14472.08968469486354 
	-468.2024280847230102 4059.265201693085601 14485.60037540682424 
	-468.2024280847175532 4010.233314357279596 14494.87632672521249 
	-468.2024280847066393 3982.340378852097729 14498.01952315004564 
	-468.2024280847057298 3963.679623538535452 14499.24251738734893 
	-468.2024280847051614 3951.22606725006699 14499.82515933402101 
	-468.2024280847026603 3929.409446464078428 14500.23323384611467 
	-468.2024280846949864 3898.242857086912409 14499.0671149500613 
	-468.2024280846886768 3861.052097628130468 14494.87669317612745 
	-468.2024280846817987 3824.278482541014 14487.91876058803064 
	-468.2024280846761144 3788.127659271443463 14478.23217100197871 
	-468.2024280846706574 3752.801801745335524 14465.87111983965224 
	-468.2024280846656552 3718.498461296629557 14450.90472793325353 
	-468.2024280846611077 3685.409485775269331 14433.41668856330398 
	-468.2024280846566739 3653.719902310666384 14413.50481998008763 
	-468.202428084654855 3628.625768829637764 14394.98454094853332 
	-468.2024280846534339 3609.422940293511147 14379.07425180565406 
	-468.2024280846526949 3595.47699771364114 14366.6114512003478 
	-468.2024280846518423 3582.0068603934169 14353.63585424980556 
	-468.2024280846510464 3564.706033865967129 14335.67569387965705 
	-468.2024280846487727 3544.362216599367912 14312.03578763338373 
	-468.2024280846463853 3522.137787552120699 14281.92286405911182 
	-468.2024280846454189 3502.226045452255676 14250.23322869881304 
	-468.2024280846433726 3482.794645001097706 14213.46780660697186 
	-468.2024280846415536 3465.016798652779016 14171.29380273672541 
	-468.2024280846407578 3450.300262754635241 14123.58331922788966 
	-468.2024280846391093 3442.880401698961577 14086.87935692113933 
	-468.2024280846389956 3439.471796410983188 14062.17821268980697 
	-468.202428084638882 3437.61051793092247 14045.6592694759911 
	-468.2024280846383135 3436.057290679109883 14024.93319066397635 
	-468.2024280846380293 3435.435537282169207 13999.99992387204838 
	-468.2024280846375746 3436.057207033230497 13975.06662989510369 
	-468.2024280846375177 3437.921354771153347 13950.19538423801896 
	-468.2024280846370061 3443.088998258988795 13908.94945198005553 
	-468.2024280846362672 3456.070195909213453 13852.07133396613608 
	-468.2024280846363808 3478.907747049590853 13793.88479805681345 
	-468.2024280846365514 3499.311492741070651 13755.28150749343331 
	-468.2024280846364945 3510.57300890364877 13736.59169851521438 
	-468.2024280846366082 3517.304432469686617 13726.09796104561974 
	-468.2024280846366651 3534.620041858885088 13700.1824654030479 
	-468.2024280846425768 3557.354423077497813 13671.67496825140552 
	-468.2024280846431452 3586.379733527407097 13641.91819904475233 
	-468.2024280846442821 3610.756758307898508 13619.29880146829237 
	-468.2024280846476927 3643.286775939822746 13593.35765617013203 
	-468.202428084653036 3692.217558001782891 13561.75276947122256 
	-468.2024280846591182 3741.026182746536051 13538.24848115427085 
	-468.2024280846626425 3788.127950376280751 13521.7685086463116 
	-468.2024280846667352 3830.303608802650615 13510.46670956173512 
	-468.2024280846751481 3879.543032732063693 13502.1005291055626 
	-468.202428084684982 3935.642824304085025 13498.95006170439956 
	-468.2024280846964075 3991.742627315246409 13502.1005074544355 
	-468.2024280847076056 4040.982035396716583 13510.46671936160783 
	-468.2024280847168711 4083.15772441307854 13521.76843351215211 
	-468.2024280847192585 4130.259397981282746 13538.24866158688019 
	-468.2024280847405748 4175.313626907476646 13559.94462419261799 
	-468.2024280847523983 4212.284049889944981 13583.17665270354883 
	-468.2024280847606406 4232.622271621728942 13597.60713895418849 
	-468.2024280847620048 4257.352816147994417 13616.5833990627234 
	-468.2024280848024773 4289.939179932096522 13645.70354450619561 
	-468.2024280848669378 4327.379759363737321 13687.60018450189273 
	-468.2024280849293518 4359.894359565935702 13733.42499702332861 
	-468.2024280850046125 4387.07353334617892 13782.60234548652807 
	-468.2024280850745868 4408.575963569533997 13834.5134726106462 
	-468.2024280851627509 4421.538079344916696 13879.50708324502193 
	-468.2024280851911158 4428.836956377697788 13916.20288949072165 
	-468.2024280852170364 4432.759728773537972 13943.98831009952482 
	-468.2024280852457423 4434.725105816966789 13967.28972564007927 
	-468.2024280852552351 4435.413407626481785 13983.63931366148245 
	-468.2024280852579068 4435.585511003975625 13991.81893600460535 
	-468.2024280852585321 4435.628538389160894 13995.90935027880369 
	-468.2024280852591005 4435.640831977106245 13998.24681611291635 
	-468.202428085259271 4435.642881063296045 13999.41556337400652 
	-468.2024280852592142 4435.642881038685118 13999.99993701359199 
	0 
	
	0 
	0 
	89 0 0.004464285714285714038 0.008928571428571428076 0.01785714285714285615 0.02678571428571428423 0.0357142857142857123 0.05357142857142856845 0.07142857142857142461 0.08928571428571427382 0.09374999999999998612 0.09821428571428569843 0.1026785714285714246 0.1071428571428571369 0.125 0.1428571428571428492 0.1587301587301587213 0.1785714285714285476 0.1825396825396825295 0.1904761904761904656 0.2142857142857142738 0.226190476190476164 0.238095238095238082 0.2410714285714285476 0.2440476190476190133 0.2499999999999999722 0.2619047619047618625 0.2738095238095237804 0.2857142857142856984 0.2976190476190476164 0.3095238095238095344 0.3214285714285713969 0.3333333333333333148 0.3452380952380952328 0.3571428571428570953 0.3630952380952380265 0.3690476190476190133 0.375 0.3809523809523809312 0.3928571428571428492 0.4047619047619047672 0.4166666666666666297 0.4285714285714285476 0.4444444444444444198 0.4603174603174602919 0.476190476190476164 0.4801587301587301182 0.4841269841269840724 0.4920634920634920362 0.5 0.5079365079365079083 0.5158730158730158166 0.5238095238095237249 0.5476190476190475609 0.5714285714285713969 0.5833333333333332593 0.5892857142857141906 0.5922619047619046562 0.5952380952380951218 0.6190476190476189577 0.6269841269841269771 0.6349206349206348854 0.650793650793650702 0.6666666666666666297 0.6904761904761904656 0.7023809523809523281 0.7142857142857141906 0.7321428571428569843 0.749999999999999889 0.7678571428571427937 0.7857142857142855874 0.7976190476190474499 0.8095238095238094234 0.8333333333333332593 0.8452380952380951218 0.851190476190476053 0.8571428571428570953 0.875 0.8928571428571427937 0.9107142857142856984 0.9285714285714286031 0.9464285714285713969 0.9642857142857143016 0.9732142857142858094 0.9821428571428572063 0.9910714285714286031 0.9955357142857143016 0.9977678571428572063 0.9988839285714286031 0.9994419642857143016 
	0 
	0 
	0 
	F 1 F 0 F 1 F 0 } I I I I #
tcoedge-coedge $-1 -1 $-1 $14 $14 $18 $19 reversed $9 $20 -6.283185307179586232 -0 #
tcoedge-coedge $-1 -1 $-1 $21 $22 $11 $16 reversed $12 $23 -6.283185307179586232 -0 #
tedge-edge $-1 -1 $-1 $24 0 $24 6.283185307179586232 $15 $25 forward @7 unknown 0.0007423486022653870723 #
pcurve $-1 -1 $-1 0 forward { exppc nurbs 2 periodic 5 
	0 2 1.570796326794896558 2 3.141592653589793116 2 4.712388980384689674 2 6.283185307179586232 2 
	0 500 1 
	-500 500 0.707106781186543798 
	-500 0 1 
	-500 -500 0.7071067811865463515 
	0 -500 1 
	500 -500 0.7071067811865463515 
	500 0 1 
	500 500 0.707106781186543798 
	0 500 1 
	0 
	plane -468.202428084613075 3935.642797989819883 14000.00000000000182 1 -3.637978807091713027e-15 0 0 0 -1 forward_v I I I I 
	} 0 0 #
tcoedge-coedge $-1 -1 $-1 $22 $21 $14 $19 forward $12 $26 0 6.283185307179586232 #
tedge-edge $-1 -1 $-1 $27 0 $27 6.283185307179586232 $18 $28 forward @7 unknown 0.0007423486028481952881 #
pcurve $-1 -1 $-1 0 forward { exppc nurbs 2 periodic 5 
	-6.283185307179586232 2 -4.712388980384689674 2 -3.141592653589793116 2 -1.570796326794896558 2 0 2 
	0 500 1 
	500 500 0.707106781186543798 
	500 0 1 
	500 -500 0.7071067811865463515 
	0 -500 1 
	-500 -500 0.7071067811865463515 
	-500 0 1 
	-500 500 0.707106781186543798 
	0 500 1 
	0 
	plane -718.202428084613075 3935.642797989820792 14000.00000000000182 -1 3.637978807091713027e-15 -0 0 0 -1 reverse_v I I I I 
	} 0 0 #
coedge $-1 -1 $-1 $18 $15 $22 $29 reversed $12 $30 #
coedge $-1 -1 $-1 $15 $18 $21 $29 forward $12 $31 #
pcurve $-1 -1 $-1 0 forward { exppc nubs 1 periodic 2 
	-6.283185307179586232 1 -0 1 
	1 1 
	0 1 
	4.411402399551011005e-13 
	spline forward { ref 0 } I I I I 
	} 0 0 #
tvertex-vertex $-1 -1 $-1 $16 $32 0.0001042324514018851236 #
ellipse-curve $-1 -1 $-1 -468.202428084613075 3935.642797989819883 14000.00000000000182 1 -3.637978807091713027e-15 0 1.818989403545856476e-12 500 0 1 I I #
pcurve $-1 -1 $-1 0 forward { exppc nubs 1 periodic 2 
	0 1 6.283185307179586232 1 
	0 0 
	1 0 
	4.411402399551011509e-13 
	spline forward { ref 0 } I I I I 
	} 0 0 #
tvertex-vertex $-1 -1 $-1 $19 $33 0.0001042324506799515701 #
ellipse-curve $-1 -1 $-1 -718.202428084613075 3935.642797989820792 14000.00000000000182 1 -3.637978807091713027e-15 0 1.818989403545856476e-12 500 0 1 I I #
edge $-1 -1 $-1 $27 0 $24 1 $22 $34 forward @7 tangent #
pcurve $-1 -1 $-1 -1 $34 0 0 #
pcurve $-1 -1 $-1 1 $34 1 0 #
point $-1 -1 $-1 -468.2024280846112561 4435.642797989819883 14000.00000000000182 #
point $-1 -1 $-1 -718.2024280846112561 4435.642797989820792 14000.00000000000182 #
intcurve-curve $-1 -1 $-1 forward { parcur full nubs 3 open 2 
	0 3 1 3 
	-718.2024280856047653 4435.642881038685118 13999.99993701359199 
	-634.8690947522713941 4435.642881038684209 13999.99993701359199 
	-551.5357614185925286 4435.642881038685118 13999.99993701359199 
	-468.2024280852592142 4435.642881038685118 13999.99993701359199 
	0 
	
	spline forward { ref 0 } I I I I 
	null_surface 
	nubs 1 open 2 
	0 1 1 1 
	0 0 
	0 1 
	
	nullbs 
	I I 
	0 
	0 
	0 
	surf1 } F 0 F 1 #
End-of-ACIS-data 