700 0 1 0           
4 LibG 20 ASM 224.0.1.65535 NT 24 Wed Jul 17 14:48:13 2019 
1000 9.999999999999999547e-07 1.000000000000000036e-10 
body $-1 -1 $-1 $1 $-1 $2 #
lump $-1 -1 $-1 $-1 $3 $0 #
transform $-1 -1 1 0 0 0 1 0 0 0 1 0 0 0 1 no_rotate no_reflect no_shear #
shell $-1 -1 $-1 $-1 $-1 $4 $-1 $1 #
face $-1 -1 $-1 $5 $6 $3 $-1 $7 forward single #
face $-1 -1 $-1 $8 $9 $3 $-1 $10 reversed single #
loop $-1 -1 $-1 $-1 $11 $4 #
plane-surface $-1 -1 $-1 5531.79757191538738 3935.642797989798055 14000.00000000000182 1 -3.637978807091713027e-15 0 0 0 -1 forward_v I I I I #
face $-1 -1 $-1 $-1 $12 $3 $-1 $13 forward single #
loop $-1 -1 $-1 $-1 $14 $5 #
plane-surface $-1 -1 $-1 5281.79757191538738 3935.642797989798964 14000.00000000000182 1 -3.637978807091713027e-15 0 0 0 -1 forward_v I I I I #
tcoedge-coedge $-1 -1 $-1 $11 $11 $15 $16 forward $6 $17 0 6.283185307179586232 #
loop $-1 -1 $-1 $-1 $18 $8 #
spline-surface $-1 -1 $-1 forward { exactsur full nubs 3 3 periodic open none none 90 2 
	0 3 0.001116071428571428509 1 0.002232142857142857019 1 0.004464285714285714038 1 0.008928571428571428076 1 
	0.01785714285714285615 1 0.0357142857142857123 1 0.05357142857142856845 1 0.07142857142857142461 1 0.08928571428571427382 1 
	0.1071428571428571369 1 0.1160714285714285754 1 0.125 1 0.1428571428571428492 1 0.1587301587301587213 1 
	0.1746031746031745935 1 0.1904761904761904656 1 0.2023809523809523836 1 0.2142857142857142738 1 0.238095238095238082 1 
	0.2619047619047618625 1 0.2857142857142856984 1 0.2976190476190476164 1 0.3095238095238095344 1 0.3154761904761904656 1 
	0.3214285714285713969 1 0.3333333333333333148 1 0.3452380952380952328 1 0.3571428571428570953 1 0.3690476190476190133 1 
	0.375 1 0.3779761904761904656 1 0.3809523809523809312 1 0.3869047619047618625 1 0.3928571428571428492 1 
	0.4047619047619047672 1 0.4166666666666666297 1 0.4285714285714285476 1 0.4444444444444444198 1 0.4603174603174602919 1 
	0.476190476190476164 1 0.4801587301587301182 1 0.4821428571428570953 1 0.4841269841269840724 1 0.4861111111111110494 1 
	0.4880952380952380265 1 0.4900793650793650036 1 0.4910714285714284921 1 0.4915674603174602364 1 0.491815476190476164 1 
	0.4920634920634920362 1 0.5158730158730158166 1 0.5238095238095237249 1 0.5357142857142855874 1 0.5476190476190475609 1 
	0.5595238095238095344 1 0.5714285714285713969 1 0.5952380952380951218 1 0.6190476190476189577 1 0.6349206349206348854 1 
	0.650793650793650702 1 0.6666666666666666297 1 0.6904761904761904656 1 0.7023809523809523281 1 0.7142857142857141906 1 
	0.7321428571428569843 1 0.749999999999999889 1 0.7678571428571427937 1 0.7857142857142855874 1 0.8095238095238094234 1 
	0.8214285714285713969 1 0.8333333333333332593 1 0.8452380952380951218 1 0.8571428571428570953 1 0.875 1 
	0.8928571428571427937 1 0.9107142857142856984 1 0.9285714285714286031 1 0.9464285714285713969 1 0.9642857142857143016 1 
	0.9732142857142858094 1 0.9821428571428572063 1 0.9910714285714286031 1 0.9955357142857143016 1 0.9977678571428572063 1 
	0.9988839285714286031 1 0.9994419642857143016 1 0.9997209821428572063 1 0.9998604910714286031 1 1 3 
	0 3 1 3 
	5281.797571887533195 4435.642812847913774 14000.00002309480988 
	5281.797571887531376 4435.642812845348999 14001.16877035117068 
	5281.797571887555023 4435.63461748665668 14003.50626484355234 
	5281.79757188757867 4435.585441469979742 14008.18102361185993 
	5281.797571887677805 4435.413346974353772 14016.36064602654915 
	5281.79757188806434 4434.724992197032407 14032.71022477779661 
	5281.797571889284882 4431.973742001215214 14065.33222274728723 
	5281.797571893213899 4424.130717517436096 14111.4941483243274 
	5281.797571896353475 4408.575721247853835 14165.48636783425172 
	5281.797571899813192 4387.073436814453089 14217.39746849683434 
	5281.797571902416166 4359.89416193852594 14266.57473494348778 
	5281.7975719052165 4332.798622304732817 14304.76204539314676 
	5281.79757190588316 4308.659344261220213 14333.34785389260651 
	5281.797571906830854 4282.956071918476482 14360.53604909418027 
	5281.797571907303791 4249.5941845495081 14390.34992935010996 
	5281.797571909434737 4207.365964320000785 14420.70968602661196 
	5281.797571909614817 4164.126538211436127 14445.67387932538077 
	5281.79757191002227 4122.408865293778035 14464.4977609958969 
	5281.79757191032877 4083.15774395913968 14478.23155894172487 
	5281.79757191070621 4034.9569521628232 14491.14851383250971 
	5281.797571911134582 3973.147684581715112 14500.46600951217988 
	5281.797571911836712 3898.137925091747547 14500.46559481861732 
	5281.797571912324202 3836.328574108971679 14491.14871589465656 
	5281.797571912422427 3788.127694630529277 14478.23197940603313 
	5281.797571912620697 3758.689399724286432 14467.93155742804265 
	5281.797571912666172 3735.650082248289436 14458.3881118323261 
	5281.797571912714375 3712.98360488851813 14447.99021610152704 
	5281.797571912838066 3685.409440601123606 14433.41682186825892 
	5281.797571912949024 3653.719858601943997 14413.50492264455534 
	5281.797571912977219 3623.606888341384547 14391.28057621572043 
	5281.797571913000866 3599.96699226010378 14370.93672228266769 
	5281.797571913000866 3584.251848651509135 14355.79850131153944 
	5281.797571912999956 3575.519025503261673 14346.9008345545335 
	5281.797571912997228 3566.954104021246167 14337.84143080940339 
	5281.797571912981766 3556.568418482991547 14326.21982421591383 
	5281.797571912966305 3540.658157174721509 14307.01697535326093 
	5281.79757191286717 3522.137749068610901 14281.92290605425296 
	5281.797571912789863 3502.225993692028169 14250.23326096369965 
	5281.797571912654348 3482.794614302256832 14213.46782276636804 
	5281.797571912379681 3465.016683651734184 14171.29383583155868 
	5281.797571912262356 3450.300048650030021 14123.58336934038016 
	5281.797571911460182 3442.880168949310701 14086.87935972486775 
	5281.797571911369232 3439.75561727642571 14064.23663942970234 
	5281.797571911353771 3438.773574045788337 14055.98360828053228 
	5281.797571911340128 3438.114277827151909 14049.78513156166628 
	5281.797571911327395 3437.532297109644333 14043.57891858792573 
	5281.797571911313753 3437.027735611002754 14037.36593237773377 
	5281.797571911299201 3436.671838759819821 14032.18360439948265 
	5281.797571911294654 3436.456649772577293 14028.55385741019381 
	5281.797571911293744 3436.357534404707621 14026.73850714394757 
	5281.797571911291925 3436.303332169393343 14025.70103592736996 
	5281.797571911389241 3435.014339517594181 14000.28092784092769 
	5281.797571911743944 3435.853174259602838 13966.69364101430619 
	5281.797571911800333 3441.539724361523895 13921.32329565793225 
	5281.79757191198587 3447.724138468808178 13888.63562630428532 
	5281.79757191209319 3457.410783084912964 13852.48474771402653 
	5281.797571912210515 3469.772011131771706 13817.15900348701325 
	5281.797571912306012 3489.72631061283073 13771.42079959994589 
	5281.797571912531566 3520.97889067629103 13717.28659567798968 
	5281.797571912653439 3562.551255236031011 13665.15895809438007 
	5281.797571912677995 3604.250974888863766 13624.48693274528887 
	5281.797571912684361 3643.286843106578999 13593.35737669344962 
	5281.797571912607964 3692.217813744845444 13561.75280805861621 
	5281.797571912449712 3741.026346831778483 13538.24831834484394 
	5281.797571912335115 3788.128142808092889 13521.76839692716203 
	5281.797571912195053 3830.303801538466359 13510.46651795807702 
	5281.797571911874911 3879.543201218519243 13502.10042440965844 
	5281.797571911483828 3935.643083158576246 13498.94961498241719 
	5281.797571911025443 3991.742705730942816 13502.10066118729264 
	5281.797571910410625 4053.292482184794608 13512.55667095572062 
	5281.797571909673024 4107.04965193823864 13529.13948941371564 
	5281.797571909470207 4152.78702924940626 13549.09584870224717 
	5281.797571909056387 4185.876182221659292 13566.58335509564313 
	5281.797571908568898 4217.565604829419499 13586.49551029014947 
	5281.79757190807959 4252.697610389589499 13612.42356733362249 
	5281.797571906681696 4289.938959012731175 13645.70406430534422 
	5281.79757190573946 4327.379663371536481 13687.60048072803147 
	5281.797571902327036 4359.894148697390847 13733.42537452177748 
	5281.797571899035574 4387.073420896676907 13782.60257880141035 
	5281.797571895743204 4408.575842252465009 13834.51368115728656 
	5281.797571891791449 4421.537996046370608 13879.50721555985001 
	5281.797571890513609 4428.83687588200155 13916.20300867670267 
	5281.797571889366736 4432.759654705707362 13943.98841395516502 
	5281.797571888101629 4434.725035847082836 13967.28981698362077 
	5281.797571887696904 4435.413339062934028 13983.63940105095207 
	5281.797571887576851 4435.585442799494558 13991.81902240261843 
	5281.797571887544109 4435.628470193109024 13995.90943644358231 
	5281.797571887535923 4435.639227188661607 13997.95471898813594 
	5281.797571887534104 4435.641916432590733 13998.97736969037396 
	5281.797571887534104 4435.642684796476715 13999.56174287335671 
	5281.797571887533195 4435.642812848234826 13999.85392968776432 
	5281.797571887533195 4435.642812847913774 14000.00002309480988 
	5365.130905220866225 4435.642812847912865 14000.00002309480988 
	5365.130905220864406 4435.642812845348089 14001.16877035117068 
	5365.130905220888053 4435.63461748665577 14003.50626484355234 
	5365.1309052209117 4435.585441469978832 14008.18102361185993 
	5365.130905221010835 4435.413346974352862 14016.36064602654915 
	5365.13090522139737 4434.724992197031497 14032.71022477779661 
	5365.130905222617912 4431.973742001214305 14065.33222274728723 
	5365.130905226546929 4424.130717517435187 14111.4941483243274 
	5365.130905229686505 4408.575721247852925 14165.48636783425172 
	5365.130905233146223 4387.07343681445218 14217.39746849683434 
	5365.130905235749196 4359.894161938525031 14266.57473494348778 
	5365.130905238549531 4332.798622304731907 14304.76204539314676 
	5365.13090523921619 4308.659344261219303 14333.34785389260651 
	5365.130905240163884 4282.956071918475573 14360.53604909418027 
	5365.130905240636821 4249.59418454950719 14390.34992935010996 
	5365.130905242767767 4207.365964319999875 14420.70968602661196 
	5365.130905242947847 4164.126538211435218 14445.67387932538077 
	5365.130905243355301 4122.408865293777126 14464.4977609958969 
	5365.1309052436618 4083.157743959139225 14478.23155894172487 
	5365.130905244039241 4034.956952162822745 14491.14851383250971 
	5365.130905244467613 3973.147684581714657 14500.46600951217988 
	5365.130905245169743 3898.137925091747093 14500.46559481861732 
	5365.130905245657232 3836.328574108971225 14491.14871589465656 
	5365.130905245755457 3788.127694630528822 14478.23197940603313 
	5365.130905245953727 3758.689399724285977 14467.93155742804265 
	5365.130905245999202 3735.650082248288982 14458.3881118323261 
	5365.130905246047405 3712.983604888517675 14447.99021610152704 
	5365.130905246171096 3685.409440601123151 14433.41682186825892 
	5365.130905246282055 3653.719858601943542 14413.50492264455534 
	5365.130905246310249 3623.606888341384092 14391.28057621572043 
	5365.130905246333896 3599.966992260103325 14370.93672228266769 
	5365.130905246333896 3584.251848651508681 14355.79850131153944 
	5365.130905246332986 3575.519025503261219 14346.9008345545335 
	5365.130905246330258 3566.954104021245712 14337.84143080940339 
	5365.130905246314796 3556.568418482991092 14326.21982421591383 
	5365.130905246299335 3540.658157174721055 14307.01697535326093 
	5365.1309052462002 3522.137749068610447 14281.92290605425296 
	5365.130905246122893 3502.225993692027714 14250.23326096369965 
	5365.130905245987378 3482.794614302256377 14213.46782276636804 
	5365.130905245712711 3465.016683651733729 14171.29383583155868 
	5365.130905245595386 3450.300048650029566 14123.58336934038016 
	5365.130905244793212 3442.880168949310246 14086.87935972486775 
	5365.130905244702262 3439.755617276425255 14064.23663942970234 
	5365.130905244686801 3438.773574045787882 14055.98360828053228 
	5365.130905244673158 3438.114277827151454 14049.78513156166628 
	5365.130905244660426 3437.532297109643878 14043.57891858792573 
	5365.130905244646783 3437.027735611002299 14037.36593237773377 
	5365.130905244632231 3436.671838759819366 14032.18360439948265 
	5365.130905244627684 3436.456649772576839 14028.55385741019381 
	5365.130905244626774 3436.357534404707167 14026.73850714394757 
	5365.130905244624955 3436.303332169392888 14025.70103592736996 
	5365.130905244722271 3435.014339517593726 14000.28092784092769 
	5365.130905245076974 3435.853174259602383 13966.69364101430619 
	5365.130905245133363 3441.53972436152344 13921.32329565793225 
	5365.1309052453189 3447.724138468807723 13888.63562630428532 
	5365.13090524542622 3457.410783084912509 13852.48474771402653 
	5365.130905245543545 3469.772011131771251 13817.15900348701325 
	5365.130905245639042 3489.726310612830275 13771.42079959994589 
	5365.130905245864597 3520.978890676290575 13717.28659567798968 
	5365.130905245986469 3562.551255236030556 13665.15895809438007 
	5365.130905246011025 3604.250974888863311 13624.48693274528887 
	5365.130905246017392 3643.286843106578544 13593.35737669344962 
	5365.130905245940994 3692.217813744844989 13561.75280805861621 
	5365.130905245782742 3741.026346831778028 13538.24831834484394 
	5365.130905245668146 3788.128142808092434 13521.76839692716203 
	5365.130905245528083 3830.303801538465905 13510.46651795807702 
	5365.130905245207941 3879.543201218518789 13502.10042440965844 
	5365.130905244816859 3935.643083158575791 13498.94961498241719 
	5365.130905244358473 3991.742705730942362 13502.10066118729264 
	5365.130905243743655 4053.292482184794153 13512.55667095572062 
	5365.130905243006055 4107.04965193823773 13529.13948941371564 
	5365.130905242803237 4152.78702924940535 13549.09584870224717 
	5365.130905242389417 4185.876182221658382 13566.58335509564313 
	5365.130905241901928 4217.565604829418589 13586.49551029014947 
	5365.13090524141262 4252.69761038958859 13612.42356733362249 
	5365.130905240014727 4289.938959012730265 13645.70406430534422 
	5365.13090523907249 4327.379663371535571 13687.60048072803147 
	5365.130905235660066 4359.894148697389937 13733.42537452177748 
	5365.130905232368605 4387.073420896675998 13782.60257880141035 
	5365.130905229076234 4408.575842252464099 13834.51368115728656 
	5365.130905225124479 4421.537996046369699 13879.50721555985001 
	5365.130905223846639 4428.836875882000641 13916.20300867670267 
	5365.130905222699766 4432.759654705706453 13943.98841395516502 
	5365.130905221434659 4434.725035847081926 13967.28981698362077 
	5365.130905221029934 4435.413339062933119 13983.63940105095207 
	5365.130905220909881 4435.585442799493649 13991.81902240261843 
	5365.130905220877139 4435.628470193108114 13995.90943644358231 
	5365.130905220868954 4435.639227188660698 13997.95471898813594 
	5365.130905220867135 4435.641916432589824 13998.97736969037396 
	5365.130905220867135 4435.642684796475805 13999.56174287335671 
	5365.130905220866225 4435.642812848233916 13999.85392968776432 
	5365.130905220866225 4435.642812847912865 14000.00002309480988 
	5448.464238552885035 4435.642812847911955 14000.00002309480988 
	5448.464238552885035 4435.64281284534718 14001.16877035117068 
	5448.464238552908682 4435.63461748665577 14003.50626484355234 
	5448.464238552933239 4435.585441469978832 14008.18102361185993 
	5448.464238553037831 4435.413346974353772 14016.36064602654915 
	5448.464238553441646 4434.724992197031497 14032.71022477779661 
	5448.464238554721305 4431.973742001214305 14065.33222274728723 
	5448.464238558835859 4424.130717517435187 14111.4941483243274 
	5448.464238562124592 4408.575721247852925 14165.48636783425172 
	5448.46423856574711 4387.07343681445218 14217.39746849683434 
	5448.464238568471956 4359.89416193852594 14266.57473494348778 
	5448.464238571403257 4332.798622304730998 14304.76204539314676 
	5448.464238572101749 4308.659344261219303 14333.34785389260651 
	5448.464238573094917 4282.956071918475573 14360.53604909418027 
	5448.464238573590592 4249.594184549506281 14390.34992935010996 
	5448.464238575822492 4207.365964319998966 14420.70968602661196 
	5448.464238576010757 4164.126538211433399 14445.67387932538077 
	5448.46423857643731 4122.408865293775307 14464.4977609958969 
	5448.464238576758362 4083.157743959137861 14478.23155894172487 
	5448.464238577153083 4034.956952162821381 14491.14851383250971 
	5448.464238577601463 3973.147684581714202 14500.46600951217988 
	5448.464238578338154 3898.137925091746638 14500.46559481861732 
	5448.464238578848381 3836.32857410897077 14491.14871589465656 
	5448.464238578951154 3788.127694630527913 14478.23197940603313 
	5448.464238579157609 3758.689399724285067 14467.93155742804265 
	5448.464238579205812 3735.650082248288527 14458.3881118323261 
	5448.464238579254925 3712.98360488851722 14447.99021610152704 
	5448.464238579384073 3685.409440601122697 14433.41682186825892 
	5448.464238579499579 3653.719858601943088 14413.50492264455534 
	5448.464238579529592 3623.606888341384092 14391.28057621572043 
	5448.464238579555058 3599.966992260102415 14370.93672228266769 
	5448.464238579555058 3584.251848651508681 14355.79850131153944 
	5448.464238579555058 3575.519025503260309 14346.9008345545335 
	5448.46423857955142 3566.954104021245712 14337.84143080940339 
	5448.464238579536868 3556.568418482991092 14326.21982421591383 
	5448.464238579518678 3540.658157174721055 14307.01697535326093 
	5448.464238579414996 3522.137749068610901 14281.92290605425296 
	5448.46423857933496 3502.225993692028169 14250.23326096369965 
	5448.464238579193079 3482.794614302256832 14213.46782276636804 
	5448.46423857890386 3465.016683651734638 14171.29383583155868 
	5448.464238578781078 3450.300048650030476 14123.58336934038016 
	5448.464238577939796 3442.880168949311155 14086.87935972486775 
	5448.464238577844299 3439.755617276426165 14064.23663942970234 
	5448.464238577828837 3438.773574045788337 14055.98360828053228 
	5448.464238577813376 3438.114277827151454 14049.78513156166628 
	5448.464238577800643 3437.532297109644333 14043.57891858792573 
	5448.464238577786091 3437.027735611002754 14037.36593237773377 
	5448.464238577770629 3436.671838759819821 14032.18360439948265 
	5448.464238577766082 3436.456649772577293 14028.55385741019381 
	5448.464238577765173 3436.357534404707621 14026.73850714394757 
	5448.464238577764263 3436.303332169393343 14025.70103592736996 
	5448.464238577866126 3435.014339517594181 14000.28092784092769 
	5448.464238578239019 3435.853174259602838 13966.69364101430619 
	5448.464238578298136 3441.53972436152435 13921.32329565793225 
	5448.464238578491859 3447.724138468808633 13888.63562630428532 
	5448.464238578603727 3457.410783084913419 13852.48474771402653 
	5448.464238578726508 3469.77201113177216 13817.15900348701325 
	5448.464238578826553 3489.726310612831185 13771.42079959994589 
	5448.464238579063021 3520.97889067629103 13717.28659567798968 
	5448.464238579190351 3562.551255236031011 13665.15895809438007 
	5448.464238579215817 3604.250974888863311 13624.48693274528887 
	5448.464238579223093 3643.28684310657809 13593.35737669344962 
	5448.464238579143057 3692.217813744844079 13561.75280805861621 
	5448.464238578977529 3741.026346831778028 13538.24831834484394 
	5448.464238578857476 3788.12814280809198 13521.76839692716203 
	5448.464238578711047 3830.303801538465905 13510.46651795807702 
	5448.464238578376353 3879.543201218519243 13502.10042440965844 
	5448.464238577966171 3935.643083158575337 13498.94961498241719 
	5448.464238577486867 3991.742705730941907 13502.10066118729264 
	5448.464238576842035 4053.292482184794608 13512.55667095572062 
	5448.464238576069874 4107.049651938236821 13529.13948941371564 
	5448.464238575857053 4152.787029249404441 13549.09584870224717 
	5448.464238575422314 4185.876182221657473 13566.58335509564313 
	5448.464238574912997 4217.56560482941768 13586.49551029014947 
	5448.464238574399133 4252.69761038958768 13612.42356733362249 
	5448.464238572935756 4289.938959012729356 13645.70406430534422 
	5448.464238571948044 4327.379663371535571 13687.60048072803147 
	5448.464238568375549 4359.894148697388118 13733.42537452177748 
	5448.464238564927655 4387.073420896674179 13782.60257880141035 
	5448.46423856147976 4408.575842252461371 13834.51368115728656 
	5448.464238557341559 4421.53799604636697 13879.50721555985001 
	5448.464238556004602 4428.836875881998822 13916.20300867670267 
	5448.46423855480316 4432.759654705704634 13943.98841395516502 
	5448.464238553478936 4434.725035847080107 13967.28981698362077 
	5448.464238553055111 4435.4133390629313 13983.63940105095207 
	5448.464238552929601 4435.585442799492739 13991.81902240261843 
	5448.46423855289504 4435.628470193106295 13995.90943644358231 
	5448.464238552886854 4435.639227188659788 13997.95471898813594 
	5448.464238552885035 4435.641916432588914 13998.97736969037396 
	5448.464238552885945 4435.642684796473986 13999.56174287335671 
	5448.464238552885035 4435.642812848233007 13999.85392968776432 
	5448.464238552885035 4435.642812847911955 14000.00002309480988 
	5531.797571886218066 4435.642812847911955 14000.00002309480988 
	5531.797571886218066 4435.64281284534718 14001.16877035117068 
	5531.797571886241712 4435.63461748665577 14003.50626484355234 
	5531.797571886266269 4435.585441469978832 14008.18102361185993 
	5531.797571886370861 4435.413346974353772 14016.36064602654915 
	5531.797571886774676 4434.724992197031497 14032.71022477779661 
	5531.797571888054335 4431.973742001214305 14065.33222274728723 
	5531.797571892168889 4424.130717517435187 14111.4941483243274 
	5531.797571895457622 4408.575721247852925 14165.48636783425172 
	5531.79757189908014 4387.07343681445218 14217.39746849683434 
	5531.797571901804986 4359.89416193852594 14266.57473494348778 
	5531.797571904736287 4332.798622304730998 14304.76204539314676 
	5531.797571905434779 4308.659344261219303 14333.34785389260651 
	5531.797571906427947 4282.956071918475573 14360.53604909418027 
	5531.797571906923622 4249.594184549506281 14390.34992935010996 
	5531.797571909155522 4207.365964319998966 14420.70968602661196 
	5531.797571909343787 4164.126538211433399 14445.67387932538077 
	5531.79757190977034 4122.408865293775307 14464.4977609958969 
	5531.797571910091392 4083.157743959137406 14478.23155894172487 
	5531.797571910486113 4034.956952162820926 14491.14851383250971 
	5531.797571910934494 3973.147684581713747 14500.46600951217988 
	5531.797571911671184 3898.137925091746183 14500.46559481861732 
	5531.797571912181411 3836.328574108970315 14491.14871589465656 
	5531.797571912284184 3788.127694630527458 14478.23197940603313 
	5531.797571912490639 3758.689399724284613 14467.93155742804265 
	5531.797571912538842 3735.650082248288072 14458.3881118323261 
	5531.797571912587955 3712.983604888516766 14447.99021610152704 
	5531.797571912717103 3685.409440601122242 14433.41682186825892 
	5531.797571912832609 3653.719858601942633 14413.50492264455534 
	5531.797571912862622 3623.606888341383637 14391.28057621572043 
	5531.797571912888088 3599.966992260101961 14370.93672228266769 
	5531.797571912888088 3584.251848651508226 14355.79850131153944 
	5531.797571912888088 3575.519025503259854 14346.9008345545335 
	5531.79757191288445 3566.954104021245257 14337.84143080940339 
	5531.797571912869898 3556.568418482990637 14326.21982421591383 
	5531.797571912851708 3540.6581571747206 14307.01697535326093 
	5531.797571912748026 3522.137749068610447 14281.92290605425296 
	5531.797571912667991 3502.225993692027714 14250.23326096369965 
	5531.797571912526109 3482.794614302256377 14213.46782276636804 
	5531.79757191223689 3465.016683651734184 14171.29383583155868 
	5531.797571912114108 3450.300048650030021 14123.58336934038016 
	5531.797571911272826 3442.880168949310701 14086.87935972486775 
	5531.797571911177329 3439.75561727642571 14064.23663942970234 
	5531.797571911161867 3438.773574045787882 14055.98360828053228 
	5531.797571911146406 3438.114277827151 14049.78513156166628 
	5531.797571911133673 3437.532297109643878 14043.57891858792573 
	5531.797571911119121 3437.027735611002299 14037.36593237773377 
	5531.79757191110366 3436.671838759819366 14032.18360439948265 
	5531.797571911099112 3436.456649772576839 14028.55385741019381 
	5531.797571911098203 3436.357534404707167 14026.73850714394757 
	5531.797571911097293 3436.303332169392888 14025.70103592736996 
	5531.797571911199157 3435.014339517593726 14000.28092784092769 
	5531.797571911572049 3435.853174259602383 13966.69364101430619 
	5531.797571911631167 3441.539724361523895 13921.32329565793225 
	5531.797571911824889 3447.724138468808178 13888.63562630428532 
	5531.797571911936757 3457.410783084912964 13852.48474771402653 
	5531.797571912059539 3469.772011131771706 13817.15900348701325 
	5531.797571912159583 3489.72631061283073 13771.42079959994589 
	5531.797571912396052 3520.978890676290575 13717.28659567798968 
	5531.797571912523381 3562.551255236030556 13665.15895809438007 
	5531.797571912548847 3604.250974888862856 13624.48693274528887 
	5531.797571912556123 3643.286843106577635 13593.35737669344962 
	5531.797571912476087 3692.217813744843625 13561.75280805861621 
	5531.797571912310559 3741.026346831777573 13538.24831834484394 
	5531.797571912190506 3788.128142808091525 13521.76839692716203 
	5531.797571912044077 3830.30380153846545 13510.46651795807702 
	5531.797571911709383 3879.543201218518789 13502.10042440965844 
	5531.797571911299201 3935.643083158574882 13498.94961498241719 
	5531.797571910819897 3991.742705730941452 13502.10066118729264 
	5531.797571910175066 4053.292482184794153 13512.55667095572062 
	5531.797571909402905 4107.049651938236821 13529.13948941371564 
	5531.797571909190083 4152.787029249404441 13549.09584870224717 
	5531.797571908755344 4185.876182221657473 13566.58335509564313 
	5531.797571908246027 4217.56560482941768 13586.49551029014947 
	5531.797571907732163 4252.69761038958768 13612.42356733362249 
	5531.797571906268786 4289.938959012729356 13645.70406430534422 
	5531.797571905281075 4327.379663371535571 13687.60048072803147 
	5531.797571901708579 4359.894148697388118 13733.42537452177748 
	5531.797571898260685 4387.073420896674179 13782.60257880141035 
	5531.797571894812791 4408.575842252461371 13834.51368115728656 
	5531.79757189067459 4421.53799604636697 13879.50721555985001 
	5531.797571889337632 4428.836875881998822 13916.20300867670267 
	5531.79757188813619 4432.759654705704634 13943.98841395516502 
	5531.797571886811966 4434.725035847080107 13967.28981698362077 
	5531.797571886388141 4435.4133390629313 13983.63940105095207 
	5531.797571886262631 4435.585442799492739 13991.81902240261843 
	5531.79757188622807 4435.628470193106295 13995.90943644358231 
	5531.797571886219885 4435.639227188659788 13997.95471898813594 
	5531.797571886218066 4435.641916432588914 13998.97736969037396 
	5531.797571886218975 4435.642684796473986 13999.56174287335671 
	5531.797571886218066 4435.642812848233007 13999.85392968776432 
	5531.797571886218066 4435.642812847911955 14000.00002309480988 
	0 
	
	0 
	0 
	88 0 0.001116071428571428509 0.002232142857142857019 0.004464285714285714038 0.008928571428571428076 0.01785714285714285615 0.0357142857142857123 0.05357142857142856845 0.07142857142857142461 0.08928571428571427382 0.1071428571428571369 0.1160714285714285754 0.125 0.1428571428571428492 0.1587301587301587213 0.1746031746031745935 0.1904761904761904656 0.2023809523809523836 0.2142857142857142738 0.238095238095238082 0.2619047619047618625 0.2857142857142856984 0.2976190476190476164 0.3095238095238095344 0.3154761904761904656 0.3214285714285713969 0.3333333333333333148 0.3452380952380952328 0.3571428571428570953 0.3690476190476190133 0.375 0.3779761904761904656 0.3809523809523809312 0.3869047619047618625 0.3928571428571428492 0.4047619047619047672 0.4166666666666666297 0.4285714285714285476 0.4444444444444444198 0.4603174603174602919 0.476190476190476164 0.4801587301587301182 0.4821428571428570953 0.4841269841269840724 0.4861111111111110494 0.4880952380952380265 0.4900793650793650036 0.4910714285714284921 0.4915674603174602364 0.491815476190476164 0.4920634920634920362 0.5158730158730158166 0.5238095238095237249 0.5357142857142855874 0.5476190476190475609 0.5595238095238095344 0.5714285714285713969 0.5952380952380951218 0.6190476190476189577 0.6349206349206348854 0.650793650793650702 0.6666666666666666297 0.6904761904761904656 0.7023809523809523281 0.7142857142857141906 0.7321428571428569843 0.749999999999999889 0.7678571428571427937 0.7857142857142855874 0.8095238095238094234 0.8214285714285713969 0.8333333333333332593 0.8452380952380951218 0.8571428571428570953 0.875 0.8928571428571427937 0.9107142857142856984 0.9285714285714286031 0.9464285714285713969 0.9642857142857143016 0.9732142857142858094 0.9821428571428572063 0.9910714285714286031 0.9955357142857143016 0.9977678571428572063 0.9994419642857143016 0.9997209821428572063 0.9998604910714286031 
	0 
	0 
	0 
	F 1 F 0 F 1 F 0 } I I I I #
tcoedge-coedge $-1 -1 $-1 $14 $14 $18 $19 reversed $9 $20 -6.283185307179586232 -0 #
tcoedge-coedge $-1 -1 $-1 $21 $22 $11 $16 reversed $12 $23 -6.283185307179586232 -0 #
tedge-edge $-1 -1 $-1 $24 0 $24 6.283185307179586232 $15 $25 forward @7 unknown 0.0007878286492865884359 #
pcurve $-1 -1 $-1 0 forward { exppc nurbs 2 periodic 5 
	0 2 1.570796326794896558 2 3.141592653589793116 2 4.712388980384689674 2 6.283185307179586232 2 
	0 500 1 
	-500 500 0.707106781186543798 
	-500 0 1 
	-500 -500 0.7071067811865463515 
	0 -500 1 
	500 -500 0.7071067811865463515 
	500 0 1 
	500 500 0.707106781186543798 
	0 500 1 
	0 
	plane 5531.79757191538738 3935.642797989798055 14000.00000000000182 1 -3.637978807091713027e-15 0 0 0 -1 forward_v I I I I 
	} 0 0 #
tcoedge-coedge $-1 -1 $-1 $22 $21 $14 $19 forward $12 $26 0 6.283185307179586232 #
tedge-edge $-1 -1 $-1 $27 0 $27 6.283185307179586232 $18 $28 forward @7 unknown 0.0007878286494221344157 #
pcurve $-1 -1 $-1 0 forward { exppc nurbs 2 periodic 5 
	-6.283185307179586232 2 -4.712388980384689674 2 -3.141592653589793116 2 -1.570796326794896558 2 0 2 
	0 500 1 
	500 500 0.707106781186543798 
	500 0 1 
	500 -500 0.7071067811865463515 
	0 -500 1 
	-500 -500 0.7071067811865463515 
	-500 0 1 
	-500 500 0.707106781186543798 
	0 500 1 
	0 
	plane 5281.79757191538738 3935.642797989798964 14000.00000000000182 -1 3.637978807091713027e-15 -0 0 0 -1 reverse_v I I I I 
	} 0 0 #
coedge $-1 -1 $-1 $18 $15 $22 $29 reversed $12 $30 #
coedge $-1 -1 $-1 $15 $18 $21 $29 forward $12 $31 #
pcurve $-1 -1 $-1 0 forward { exppc nubs 1 periodic 2 
	-6.283185307179586232 1 -0 1 
	1 1 
	0 1 
	0 
	spline forward { ref 0 } I I I I 
	} 0 0 #
tvertex-vertex $-1 -1 $-1 $16 $32 2.746152049772483629e-05 #
ellipse-curve $-1 -1 $-1 5531.79757191538738 3935.642797989798055 14000.00000000000182 1 -3.637978807091713027e-15 0 1.818989403545856476e-12 500 0 1 I I #
pcurve $-1 -1 $-1 0 forward { exppc nubs 1 periodic 2 
	0 1 6.283185307179586232 1 
	0 0 
	1 0 
	2.726396620975368931e-13 
	spline forward { ref 0 } I I I I 
	} 0 0 #
tvertex-vertex $-1 -1 $-1 $19 $33 2.746151962429675336e-05 #
ellipse-curve $-1 -1 $-1 5281.79757191538738 3935.642797989798964 14000.00000000000182 1 -3.637978807091713027e-15 0 1.818989403545856476e-12 500 0 1 I I #
edge $-1 -1 $-1 $27 0 $24 1 $22 $34 forward @7 tangent #
pcurve $-1 -1 $-1 -1 $34 0 0 #
pcurve $-1 -1 $-1 1 $34 1 0 #
point $-1 -1 $-1 5531.797571915389199 4435.642797989798055 14000.00000000000182 #
point $-1 -1 $-1 5281.797571915389199 4435.642797989798964 14000.00000000000182 #
intcurve-curve $-1 -1 $-1 forward { parcur full nubs 3 open 2 
	0 3 1 3 
	5281.797571887533195 4435.642812847913774 14000.00002309480988 
	5365.130905220866225 4435.642812847912865 14000.00002309480988 
	5448.464238552885035 4435.642812847911955 14000.00002309480988 
	5531.797571886218066 4435.642812847911955 14000.00002309480988 
	0 
	
	spline forward { ref 0 } I I I I 
	null_surface 
	nubs 1 open 2 
	0 1 1 1 
	0 0 
	0 1 
	
	nullbs 
	I I 
	0 
	0 
	0 
	surf1 } I I #
End-of-ACIS-data 