700 0 1 0           
4 LibG 20 ASM 224.0.1.65535 NT 24 Wed Jul 17 14:48:14 2019 
1000 9.999999999999999547e-07 1.000000000000000036e-10 
body $-1 -1 $-1 $1 $-1 $2 #
lump $-1 -1 $-1 $-1 $3 $0 #
transform $-1 -1 1 0 0 0 1 0 0 0 1 0 0 0 1 no_rotate no_reflect no_shear #
shell $-1 -1 $-1 $-1 $-1 $4 $-1 $1 #
face $-1 -1 $-1 $5 $6 $3 $-1 $7 forward single #
face $-1 -1 $-1 $8 $9 $3 $-1 $10 reversed single #
loop $-1 -1 $-1 $-1 $11 $4 #
plane-surface $-1 -1 $-1 6531.79757191538738 3935.642797989794417 14000.00000000000182 1 -3.637978807091713027e-15 0 0 0 -1 forward_v I I I I #
face $-1 -1 $-1 $-1 $12 $3 $-1 $13 forward single #
loop $-1 -1 $-1 $-1 $14 $5 #
plane-surface $-1 -1 $-1 6281.79757191538738 3935.642797989795326 14000.00000000000182 1 -3.637978807091713027e-15 0 0 0 -1 forward_v I I I I #
tcoedge-coedge $-1 -1 $-1 $11 $11 $15 $16 forward $6 $17 0 6.283185307179586232 #
loop $-1 -1 $-1 $-1 $18 $8 #
spline-surface $-1 -1 $-1 forward { exactsur full nubs 3 3 periodic open none none 90 2 
	0 3 0.001116071428571428509 1 0.002232142857142857019 1 0.004464285714285714038 1 0.008928571428571428076 1 
	0.01785714285714285615 1 0.0357142857142857123 1 0.05357142857142856845 1 0.07142857142857142461 1 0.08928571428571427382 1 
	0.1071428571428571369 1 0.1160714285714285754 1 0.125 1 0.1428571428571428492 1 0.1587301587301587213 1 
	0.1746031746031745935 1 0.1904761904761904656 1 0.2023809523809523836 1 0.2142857142857142738 1 0.238095238095238082 1 
	0.2619047619047618625 1 0.2857142857142856984 1 0.2976190476190476164 1 0.3095238095238095344 1 0.3154761904761904656 1 
	0.3214285714285713969 1 0.3333333333333333148 1 0.3452380952380952328 1 0.3571428571428570953 1 0.3690476190476190133 1 
	0.375 1 0.3779761904761904656 1 0.3809523809523809312 1 0.3869047619047618625 1 0.3928571428571428492 1 
	0.4047619047619047672 1 0.4166666666666666297 1 0.4285714285714285476 1 0.4444444444444444198 1 0.4603174603174602919 1 
	0.476190476190476164 1 0.4801587301587301182 1 0.4821428571428570953 1 0.4841269841269840724 1 0.4861111111111110494 1 
	0.4880952380952380265 1 0.4900793650793650036 1 0.4910714285714284921 1 0.4915674603174602364 1 0.491815476190476164 1 
	0.4920634920634920362 1 0.5158730158730158166 1 0.5238095238095237249 1 0.5357142857142855874 1 0.5476190476190475609 1 
	0.5595238095238095344 1 0.5714285714285713969 1 0.5952380952380951218 1 0.6190476190476189577 1 0.6349206349206348854 1 
	0.650793650793650702 1 0.6666666666666666297 1 0.6904761904761904656 1 0.7023809523809523281 1 0.7142857142857141906 1 
	0.7321428571428569843 1 0.749999999999999889 1 0.7678571428571427937 1 0.7857142857142855874 1 0.8095238095238094234 1 
	0.8214285714285713969 1 0.8333333333333332593 1 0.8452380952380951218 1 0.8571428571428570953 1 0.875 1 
	0.8928571428571427937 1 0.9107142857142856984 1 0.9285714285714286031 1 0.9464285714285713969 1 0.9642857142857143016 1 
	0.9732142857142858094 1 0.9821428571428572063 1 0.9910714285714286031 1 0.9955357142857143016 1 0.9977678571428572063 1 
	0.9988839285714286031 1 0.9994419642857143016 1 0.9997209821428572063 1 0.9998604910714286031 1 1 3 
	0 3 1 3 
	6281.797571842514117 4435.642813251040934 14000.0000238430639 
	6281.797571842518664 4435.642813248387029 14001.16877109925008 
	6281.797571842583238 4435.634617888604225 14003.50626558947442 
	6281.797571842644174 4435.585441870667637 14008.1810243551663 
	6281.797571842913385 4435.413347369032635 14016.3606467584541 
	6281.797571843909282 4434.724992568629204 14032.71022546144195 
	6281.797571847103427 4431.973742280709303 14065.33222326221221 
	6281.797571857380717 4424.130717490775169 14111.49414823583902 
	6281.797571865648933 4408.575720976436969 14165.48636721447292 
	6281.797571874777532 4387.073436272816252 14217.39746726806152 
	6281.797571881685144 4359.894161195941706 14266.57473323309932 
	6281.797571889138453 4332.798621353465933 14304.76204317644624 
	6281.797571890928339 4308.659343264689596 14333.34785155849931 
	6281.797571893484019 4282.956070831376564 14360.536046591169 
	6281.797571894757311 4249.594183414524196 14390.34992674881505 
	6281.797571900604453 4207.36596294339688 14420.70968313439334 
	6281.797571901103765 4164.126536809658319 14445.67387640491143 
	6281.797571902267009 4122.408863863805891 14464.49775813805172 
	6281.797571903178323 4083.157742513649282 14478.23155621288788 
	6281.797571904311553 4034.956950699229765 14491.14851128977534 
	6281.797571905709447 3973.147683115634209 14500.46600748396668 
	6281.797571908057762 3898.137923570701332 14500.46559344331217 
	6281.797571909926774 3836.328572488871941 14491.14871499041146 
	6281.797571910304214 3788.127692985298381 14478.23197864489157 
	6281.797571911226441 3758.689398047417853 14467.93155680038035 
	6281.797571911451087 3735.650080565297685 14458.38811123350388 
	6281.797571911703017 3712.983603206439966 14447.99021551447004 
	6281.797571912418789 3685.409438924745245 14433.41682125324951 
	6281.797571913201864 3653.719856972804791 14413.50492199286236 
	6281.797571913446518 3623.606886721293904 14391.28057546406853 
	6281.797571913809406 3599.966990731284568 14370.93672155520653 
	6281.79757191389308 3584.251847101028488 14355.79850035474556 
	6281.797571913922184 3575.519024183135571 14346.90083434035478 
	6281.797571913940374 3566.954102604742275 14337.84143033712462 
	6281.79757191401859 3556.568417093184962 14326.2198238930705 
	6281.797571914087712 3540.658155736243316 14307.01697492821586 
	6281.797571914386936 3522.137747612277963 14281.92290558518653 
	6281.797571914569744 3502.22599223032239 14250.23326039439962 
	6281.797571914837135 3482.79461289466235 14213.46782206989701 
	6281.797571915268236 3465.016682415888681 14171.29383487666746 
	6281.797571915436492 3450.300047502581947 14123.58336828107895 
	6281.79757191644967 3442.880168436777694 14086.87935806118912 
	6281.797571916554261 3439.755616840657694 14064.2366377070266 
	6281.797571916570632 3438.773573625184326 14055.98360654827229 
	6281.797571916587913 3438.114277420379494 14049.78512982179927 
	6281.797571916603374 3437.532296719478381 14043.57891684061906 
	6281.797571916618836 3437.027735236220906 14037.36593062406064 
	6281.797571916635206 3436.671838405659855 14032.18360263895192 
	6281.797571916639754 3436.456649422739702 14028.55385564818062 
	6281.797571916640663 3436.357534058843612 14026.73850538104671 
	6281.797571916641573 3436.303331820930907 14025.7010341649293 
	6281.797571916516972 3435.014339380527417 14000.28092603853111 
	6281.797571916109518 3435.853174851387848 13966.69363906904982 
	6281.79757191599947 3441.539725063606511 13921.32329368782848 
	6281.797571915701155 3447.724139550749442 13888.63562425959572 
	6281.797571915468325 3457.410784392273854 13852.48474563141826 
	6281.797571915184562 3469.772012687895312 13817.15900137380049 
	6281.797571914871696 3489.726312418164071 13771.42079748456854 
	6281.797571913823049 3520.978893140622404 13717.28659367448745 
	6281.797571912865351 3562.55125807629247 13665.15895624352561 
	6281.797571912140484 3604.250978039084657 13624.48693124336751 
	6281.797571911852174 3643.286846390804385 13593.35737535116277 
	6281.797571911313753 3692.217817264042424 13561.75280727925201 
	6281.797571910278748 3741.026350793916663 13538.24831865684973 
	6281.79757190982491 3788.128146784707496 13521.76839746102814 
	6281.797571909225553 3830.3038055861457 13510.4665188811814 
	6281.797571908067766 3879.543205232896526 13502.10042581584639 
	6281.797571906734447 3935.643087060386733 13498.94961689332013 
	6281.797571905266523 3991.742709453727912 13502.10066353026377 
	6281.797571903365679 4053.292485587567626 13512.55667392866417 
	6281.797571901189258 4107.049654958339488 13529.13949302049878 
	6281.797571900607181 4152.787032216908301 13549.09585230761513 
	6281.797571899452123 4185.876185057821203 13566.58335877931495 
	6281.797571898116985 4217.565607550447567 13586.49551395965682 
	6281.797571896780028 4252.697612989611116 13612.42357099885157 
	6281.797571893016539 4289.938961340372771 13645.70406783265753 
	6281.797571890492691 4327.379665536015636 13687.60048413957884 
	6281.797571881412296 4359.89415035336151 13733.42537744921174 
	6281.797571872694789 4387.073422181562819 13782.60258121131847 
	6281.797571864008205 4408.575843203539989 13834.51368305130563 
	6281.797571853622685 4421.537996700325493 13879.50721685291501 
	6281.797571850281201 4428.836876456468417 13916.20300978988416 
	6281.797571847283507 4432.759655206911702 13943.98841491652456 
	6281.797571843987498 4434.725036279210144 13967.28981779334754 
	6281.797571842936122 4435.413339473751876 13983.63940181571343 
	6281.797571842619618 4435.585443204507101 13991.81902315484331 
	6281.797571842541402 4435.628470596735497 13995.90943719289498 
	6281.797571842518664 4435.639227591923373 13997.95471973667009 
	6281.797571842514117 4435.641916835763368 13998.97737043872439 
	6281.797571842512298 4435.642685199622065 13999.56174362164711 
	6281.797571842514117 4435.64281325137199 13999.85393043604017 
	6281.797571842514117 4435.642813251040934 14000.0000238430639 
	6365.130905175847147 4435.642813251040025 14000.0000238430639 
	6365.130905175851694 4435.642813248386119 14001.16877109925008 
	6365.130905175916268 4435.634617888603316 14003.50626558947442 
	6365.130905175977205 4435.585441870666727 14008.1810243551663 
	6365.130905176246415 4435.413347369031726 14016.3606467584541 
	6365.130905177242312 4434.724992568628295 14032.71022546144195 
	6365.130905180436457 4431.973742280708393 14065.33222326221221 
	6365.130905190713747 4424.130717490774259 14111.49414823583902 
	6365.130905198981964 4408.57572097643606 14165.48636721447292 
	6365.130905208110562 4387.073436272815343 14217.39746726806152 
	6365.130905215018174 4359.894161195940796 14266.57473323309932 
	6365.130905222471483 4332.798621353465023 14304.76204317644624 
	6365.130905224261369 4308.659343264688687 14333.34785155849931 
	6365.130905226817049 4282.956070831375655 14360.536046591169 
	6365.130905228090342 4249.594183414523286 14390.34992674881505 
	6365.130905233937483 4207.365962943395971 14420.70968313439334 
	6365.130905234436796 4164.126536809657409 14445.67387640491143 
	6365.130905235600039 4122.408863863804982 14464.49775813805172 
	6365.130905236511353 4083.157742513648827 14478.23155621288788 
	6365.130905237644583 4034.95695069922931 14491.14851128977534 
	6365.130905239042477 3973.147683115633754 14500.46600748396668 
	6365.130905241390792 3898.137923570700877 14500.46559344331217 
	6365.130905243259804 3836.328572488871487 14491.14871499041146 
	6365.130905243637244 3788.127692985297926 14478.23197864489157 
	6365.130905244559472 3758.689398047417399 14467.93155680038035 
	6365.130905244784117 3735.65008056529723 14458.38811123350388 
	6365.130905245036047 3712.983603206439511 14447.99021551447004 
	6365.130905245751819 3685.409438924744791 14433.41682125324951 
	6365.130905246534894 3653.719856972804337 14413.50492199286236 
	6365.130905246779548 3623.606886721293449 14391.28057546406853 
	6365.130905247142437 3599.966990731284113 14370.93672155520653 
	6365.13090524722611 3584.251847101028034 14355.79850035474556 
	6365.130905247255214 3575.519024183135116 14346.90083434035478 
	6365.130905247273404 3566.95410260474182 14337.84143033712462 
	6365.13090524735162 3556.568417093184507 14326.2198238930705 
	6365.130905247420742 3540.658155736242861 14307.01697492821586 
	6365.130905247719966 3522.137747612277508 14281.92290558518653 
	6365.130905247902774 3502.225992230321935 14250.23326039439962 
	6365.130905248170166 3482.794612894661896 14213.46782206989701 
	6365.130905248601266 3465.016682415888226 14171.29383487666746 
	6365.130905248769523 3450.300047502581492 14123.58336828107895 
	6365.1309052497827 3442.88016843677724 14086.87935806118912 
	6365.130905249887292 3439.75561684065724 14064.2366377070266 
	6365.130905249903662 3438.773573625183872 14055.98360654827229 
	6365.130905249920943 3438.11427742037904 14049.78512982179927 
	6365.130905249936404 3437.532296719477927 14043.57891684061906 
	6365.130905249951866 3437.027735236220451 14037.36593062406064 
	6365.130905249968237 3436.6718384056594 14032.18360263895192 
	6365.130905249972784 3436.456649422739247 14028.55385564818062 
	6365.130905249973694 3436.357534058843157 14026.73850538104671 
	6365.130905249974603 3436.303331820930453 14025.7010341649293 
	6365.130905249850002 3435.014339380526962 14000.28092603853111 
	6365.130905249442549 3435.853174851387394 13966.69363906904982 
	6365.1309052493325 3441.539725063606056 13921.32329368782848 
	6365.130905249034186 3447.724139550748987 13888.63562425959572 
	6365.130905248801355 3457.410784392273399 13852.48474563141826 
	6365.130905248517593 3469.772012687894858 13817.15900137380049 
	6365.130905248204726 3489.726312418163616 13771.42079748456854 
	6365.130905247156079 3520.978893140621949 13717.28659367448745 
	6365.130905246198381 3562.551258076292015 13665.15895624352561 
	6365.130905245473514 3604.250978039084202 13624.48693124336751 
	6365.130905245185204 3643.28684639080393 13593.35737535116277 
	6365.130905244646783 3692.217817264041969 13561.75280727925201 
	6365.130905243611778 3741.026350793916208 13538.24831865684973 
	6365.13090524315794 3788.128146784707042 13521.76839746102814 
	6365.130905242558583 3830.303805586145245 13510.4665188811814 
	6365.130905241400797 3879.543205232896071 13502.10042581584639 
	6365.130905240067477 3935.643087060386279 13498.94961689332013 
	6365.130905238599553 3991.742709453727457 13502.10066353026377 
	6365.130905236698709 4053.292485587567171 13512.55667392866417 
	6365.130905234522288 4107.049654958338579 13529.13949302049878 
	6365.130905233940211 4152.787032216907392 13549.09585230761513 
	6365.130905232785153 4185.876185057820294 13566.58335877931495 
	6365.130905231450015 4217.565607550446657 13586.49551395965682 
	6365.130905230113058 4252.697612989610207 13612.42357099885157 
	6365.130905226349569 4289.938961340371861 13645.70406783265753 
	6365.130905223825721 4327.379665536014727 13687.60048413957884 
	6365.130905214745326 4359.894150353360601 13733.42537744921174 
	6365.130905206027819 4387.073422181561909 13782.60258121131847 
	6365.130905197341235 4408.57584320353908 13834.51368305130563 
	6365.130905186955715 4421.537996700324584 13879.50721685291501 
	6365.130905183614232 4428.836876456467508 13916.20300978988416 
	6365.130905180616537 4432.759655206910793 13943.98841491652456 
	6365.130905177320528 4434.725036279209235 13967.28981779334754 
	6365.130905176269152 4435.413339473750966 13983.63940181571343 
	6365.130905175952648 4435.585443204506191 13991.81902315484331 
	6365.130905175874432 4435.628470596734587 13995.90943719289498 
	6365.130905175851694 4435.639227591922463 13997.95471973667009 
	6365.130905175847147 4435.641916835762459 13998.97737043872439 
	6365.130905175845328 4435.642685199621155 13999.56174362164711 
	6365.130905175847147 4435.642813251371081 13999.85393043604017 
	6365.130905175847147 4435.642813251040025 14000.0000238430639 
	6448.464238506278889 4435.642813251039115 14000.0000238430639 
	6448.464238506282527 4435.64281324838521 14001.16877109925008 
	6448.46423850634892 4435.634617888601497 14003.50626558947442 
	6448.464238506411675 4435.585441870666727 14008.1810243551663 
	6448.464238506689981 4435.413347369030816 14016.3606467584541 
	6448.464238507727714 4434.724992568627385 14032.71022546144195 
	6448.464238511049189 4431.973742280707484 14065.33222326221221 
	6448.464238521736661 4424.13071749077335 14111.49414823583902 
	6448.464238530334114 4408.57572097643606 14165.48636721447292 
	6448.464238539826511 4387.073436272814433 14217.39746726806152 
	6448.4642385470097 4359.894161195940796 14266.57473323309932 
	6448.464238554759504 4332.798621353465023 14304.76204317644624 
	6448.46423855662033 4308.659343264689596 14333.34785155849931 
	6448.464238559278783 4282.956070831376564 14360.536046591169 
	6448.464238560603007 4249.594183414524196 14390.34992674881505 
	6448.464238566683889 4207.36596294339688 14420.70968313439334 
	6448.464238567202301 4164.126536809658319 14445.67387640491143 
	6448.464238568411929 4122.408863863805891 14464.49775813805172 
	6448.464238569359622 4083.157742513649737 14478.23155621288788 
	6448.464238570537418 4034.956950699230219 14491.14851128977534 
	6448.4642385719917 3973.147683115634663 14500.46600748396668 
	6448.464238574434603 3898.137923570701787 14500.46559344331217 
	6448.464238576377284 3836.328572488872396 14491.14871499041146 
	6448.464238576770185 3788.127692985298836 14478.23197864489157 
	6448.464238577728793 3758.689398047418308 14467.93155680038035 
	6448.464238577962533 3735.65008056529814 14458.38811123350388 
	6448.464238578223558 3712.983603206440421 14447.99021551447004 
	6448.464238578968434 3685.4094389247457 14433.41682125324951 
	6448.464238579782432 3653.719856972805246 14413.50492199286236 
	6448.464238580038 3623.606886721294359 14391.28057546406853 
	6448.464238580413621 3599.966990731285023 14370.93672155520653 
	6448.464238580500933 3584.251847101028488 14355.79850035474556 
	6448.464238580530946 3575.519024183135571 14346.90083434035478 
	6448.464238580550045 3566.95410260474182 14337.84143033712462 
	6448.46423858063099 3556.568417093184962 14326.2198238930705 
	6448.46423858070284 3540.658155736242861 14307.01697492821586 
	6448.464238581012978 3522.137747612277508 14281.92290558518653 
	6448.464238581203972 3502.225992230321935 14250.23326039439962 
	6448.464238581482277 3482.794612894661896 14213.46782206989701 
	6448.464238581932477 3465.016682415888226 14171.29383487666746 
	6448.4642385821071 3450.300047502581492 14123.58336828107895 
	6448.464238583159386 3442.880168436776785 14086.87935806118912 
	6448.464238583269434 3439.75561684065724 14064.2366377070266 
	6448.464238583285805 3438.773573625183417 14055.98360654827229 
	6448.464238583303995 3438.11427742037904 14049.78512982179927 
	6448.464238583319457 3437.532296719477927 14043.57891684061906 
	6448.464238583336737 3437.027735236220451 14037.36593062406064 
	6448.464238583351289 3436.671838405659855 14032.18360263895192 
	6448.464238583357655 3436.456649422739247 14028.55385564818062 
	6448.464238583357655 3436.357534058843157 14026.73850538104671 
	6448.464238583358565 3436.303331820930453 14025.7010341649293 
	6448.464238583228507 3435.014339380526962 14000.28092603853111 
	6448.464238582802864 3435.853174851387394 13966.69363906904982 
	6448.464238582688267 3441.539725063606056 13921.32329368782848 
	6448.46423858237813 3447.724139550748987 13888.63562425959572 
	6448.464238582136204 3457.410784392273399 13852.48474563141826 
	6448.464238581841528 3469.772012687894858 13817.15900137380049 
	6448.464238581516838 3489.726312418163161 13771.42079748456854 
	6448.464238580427264 3520.978893140622404 13717.28659367448745 
	6448.464238579433186 3562.55125807629247 13665.15895624352561 
	6448.464238578679215 3604.250978039084657 13624.48693124336751 
	6448.464238578379991 3643.286846390804385 13593.35737535116277 
	6448.464238577818833 3692.217817264042424 13561.75280727925201 
	6448.464238576741991 3741.026350793917118 13538.24831865684973 
	6448.464238576269054 3788.128146784707496 13521.76839746102814 
	6448.464238575646959 3830.3038055861457 13510.4665188811814 
	6448.464238574441879 3879.543205232896071 13502.10042581584639 
	6448.464238573055809 3935.643087060386279 13498.94961689332013 
	6448.464238571530586 3991.742709453727457 13502.10066353026377 
	6448.464238569552435 4053.292485587568081 13512.55667392866417 
	6448.464238567291432 4107.049654958339488 13529.13949302049878 
	6448.464238566685708 4152.787032216908301 13549.09585230761513 
	6448.464238565484266 4185.876185057821203 13566.58335877931495 
	6448.464238564096377 4217.565607550447567 13586.49551395965682 
	6448.464238562706669 4252.697612989611116 13612.42357099885157 
	6448.464238558793113 4289.938961340372771 13645.70406783265753 
	6448.464238556168311 4327.379665536015636 13687.60048413957884 
	6448.464238546726847 4359.894150353360601 13733.42537744921174 
	6448.464238537662823 4387.073422181561909 13782.60258121131847 
	6448.464238528630631 4408.57584320353908 13834.51368305130563 
	6448.464238517830381 4421.537996700323674 13879.50721685291501 
	6448.464238514355202 4428.836876456466598 13916.20300978988416 
	6448.464238511237454 4432.759655206908974 13943.98841491652456 
	6448.464238507813207 4434.725036279209235 13967.28981779334754 
	6448.464238506717265 4435.413339473748238 13983.63940181571343 
	6448.464238506389847 4435.585443204505282 13991.81902315484331 
	6448.464238506307993 4435.628470596732768 13995.90943719289498 
	6448.464238506285255 4435.639227591921554 13997.95471973667009 
	6448.464238506279798 4435.641916835761549 13998.97737043872439 
	6448.464238506278889 4435.642685199620246 13999.56174362164711 
	6448.464238506278889 4435.642813251371081 13999.85393043604017 
	6448.464238506278889 4435.642813251039115 14000.0000238430639 
	6531.797571839611919 4435.642813251039115 14000.0000238430639 
	6531.797571839615557 4435.64281324838521 14001.16877109925008 
	6531.79757183968195 4435.634617888601497 14003.50626558947442 
	6531.797571839744705 4435.585441870666727 14008.1810243551663 
	6531.797571840023011 4435.413347369030816 14016.3606467584541 
	6531.797571841060744 4434.724992568627385 14032.71022546144195 
	6531.797571844382219 4431.973742280707484 14065.33222326221221 
	6531.797571855069691 4424.13071749077335 14111.49414823583902 
	6531.797571863667144 4408.57572097643606 14165.48636721447292 
	6531.797571873159541 4387.073436272814433 14217.39746726806152 
	6531.79757188034273 4359.894161195940796 14266.57473323309932 
	6531.797571888092534 4332.798621353465023 14304.76204317644624 
	6531.79757188995336 4308.659343264689596 14333.34785155849931 
	6531.797571892611813 4282.956070831376564 14360.536046591169 
	6531.797571893936038 4249.594183414524196 14390.34992674881505 
	6531.797571900016919 4207.36596294339688 14420.70968313439334 
	6531.797571900535331 4164.126536809658319 14445.67387640491143 
	6531.797571901744959 4122.408863863805891 14464.49775813805172 
	6531.797571902692653 4083.157742513649282 14478.23155621288788 
	6531.797571903870448 4034.956950699229765 14491.14851128977534 
	6531.79757190532473 3973.147683115634209 14500.46600748396668 
	6531.797571907767633 3898.137923570701332 14500.46559344331217 
	6531.797571909710314 3836.328572488871941 14491.14871499041146 
	6531.797571910103215 3788.127692985298381 14478.23197864489157 
	6531.797571911061823 3758.689398047417853 14467.93155680038035 
	6531.797571911295563 3735.650080565297685 14458.38811123350388 
	6531.797571911556588 3712.983603206439966 14447.99021551447004 
	6531.797571912301464 3685.409438924745245 14433.41682125324951 
	6531.797571913115462 3653.719856972804791 14413.50492199286236 
	6531.79757191337103 3623.606886721293904 14391.28057546406853 
	6531.797571913746651 3599.966990731284568 14370.93672155520653 
	6531.797571913833963 3584.251847101028034 14355.79850035474556 
	6531.797571913863976 3575.519024183135116 14346.90083434035478 
	6531.797571913883075 3566.954102604741365 14337.84143033712462 
	6531.79757191396402 3556.568417093184507 14326.2198238930705 
	6531.797571914035871 3540.658155736242406 14307.01697492821586 
	6531.797571914346008 3522.137747612277053 14281.92290558518653 
	6531.797571914537002 3502.225992230321481 14250.23326039439962 
	6531.797571914815308 3482.794612894661441 14213.46782206989701 
	6531.797571915265507 3465.016682415887772 14171.29383487666746 
	6531.79757191544013 3450.300047502581037 14123.58336828107895 
	6531.797571916492416 3442.88016843677633 14086.87935806118912 
	6531.797571916602465 3439.755616840656785 14064.2366377070266 
	6531.797571916618836 3438.773573625182962 14055.98360654827229 
	6531.797571916637025 3438.114277420378585 14049.78512982179927 
	6531.797571916652487 3437.532296719477472 14043.57891684061906 
	6531.797571916669767 3437.027735236219996 14037.36593062406064 
	6531.797571916684319 3436.6718384056594 14032.18360263895192 
	6531.797571916690686 3436.456649422738792 14028.55385564818062 
	6531.797571916690686 3436.357534058842703 14026.73850538104671 
	6531.797571916691595 3436.303331820929998 14025.7010341649293 
	6531.797571916561537 3435.014339380526508 14000.28092603853111 
	6531.797571916135894 3435.853174851386939 13966.69363906904982 
	6531.797571916021298 3441.539725063605601 13921.32329368782848 
	6531.79757191571116 3447.724139550748532 13888.63562425959572 
	6531.797571915469234 3457.410784392272944 13852.48474563141826 
	6531.797571915174558 3469.772012687894403 13817.15900137380049 
	6531.797571914849868 3489.726312418162706 13771.42079748456854 
	6531.797571913760294 3520.978893140621949 13717.28659367448745 
	6531.797571912766216 3562.551258076292015 13665.15895624352561 
	6531.797571912012245 3604.250978039084202 13624.48693124336751 
	6531.797571911713021 3643.28684639080393 13593.35737535116277 
	6531.797571911151863 3692.217817264041969 13561.75280727925201 
	6531.797571910075021 3741.026350793916663 13538.24831865684973 
	6531.797571909602084 3788.128146784707042 13521.76839746102814 
	6531.79757190897999 3830.303805586145245 13510.4665188811814 
	6531.797571907774909 3879.543205232895616 13502.10042581584639 
	6531.797571906388839 3935.643087060385824 13498.94961689332013 
	6531.797571904863617 3991.742709453727002 13502.10066353026377 
	6531.797571902885466 4053.292485587567626 13512.55667392866417 
	6531.797571900624462 4107.049654958339488 13529.13949302049878 
	6531.797571900018738 4152.787032216908301 13549.09585230761513 
	6531.797571898817296 4185.876185057821203 13566.58335877931495 
	6531.797571897429407 4217.565607550447567 13586.49551395965682 
	6531.797571896039699 4252.697612989611116 13612.42357099885157 
	6531.797571892126143 4289.938961340372771 13645.70406783265753 
	6531.797571889501342 4327.379665536015636 13687.60048413957884 
	6531.797571880059877 4359.894150353360601 13733.42537744921174 
	6531.797571870995853 4387.073422181561909 13782.60258121131847 
	6531.797571861963661 4408.57584320353908 13834.51368305130563 
	6531.797571851163411 4421.537996700323674 13879.50721685291501 
	6531.797571847688232 4428.836876456466598 13916.20300978988416 
	6531.797571844570484 4432.759655206908974 13943.98841491652456 
	6531.797571841146237 4434.725036279209235 13967.28981779334754 
	6531.797571840050296 4435.413339473748238 13983.63940181571343 
	6531.797571839722877 4435.585443204505282 13991.81902315484331 
	6531.797571839641023 4435.628470596732768 13995.90943719289498 
	6531.797571839618286 4435.639227591921554 13997.95471973667009 
	6531.797571839612829 4435.641916835761549 13998.97737043872439 
	6531.797571839611919 4435.642685199620246 13999.56174362164711 
	6531.797571839611919 4435.642813251371081 13999.85393043604017 
	6531.797571839611919 4435.642813251039115 14000.0000238430639 
	0 
	
	0 
	0 
	88 0 0.001116071428571428509 0.002232142857142857019 0.004464285714285714038 0.008928571428571428076 0.01785714285714285615 0.0357142857142857123 0.05357142857142856845 0.07142857142857142461 0.08928571428571427382 0.1071428571428571369 0.1160714285714285754 0.125 0.1428571428571428492 0.1587301587301587213 0.1746031746031745935 0.1904761904761904656 0.2023809523809523836 0.2142857142857142738 0.238095238095238082 0.2619047619047618625 0.2857142857142856984 0.2976190476190476164 0.3095238095238095344 0.3154761904761904656 0.3214285714285713969 0.3333333333333333148 0.3452380952380952328 0.3571428571428570953 0.3690476190476190133 0.375 0.3779761904761904656 0.3809523809523809312 0.3869047619047618625 0.3928571428571428492 0.4047619047619047672 0.4166666666666666297 0.4285714285714285476 0.4444444444444444198 0.4603174603174602919 0.476190476190476164 0.4801587301587301182 0.4821428571428570953 0.4841269841269840724 0.4861111111111110494 0.4880952380952380265 0.4900793650793650036 0.4910714285714284921 0.4915674603174602364 0.491815476190476164 0.4920634920634920362 0.5158730158730158166 0.5238095238095237249 0.5357142857142855874 0.5476190476190475609 0.5595238095238095344 0.5714285714285713969 0.5952380952380951218 0.6190476190476189577 0.6349206349206348854 0.650793650793650702 0.6666666666666666297 0.6904761904761904656 0.7023809523809523281 0.7142857142857141906 0.7321428571428569843 0.749999999999999889 0.7678571428571427937 0.7857142857142855874 0.8095238095238094234 0.8214285714285713969 0.8333333333333332593 0.8452380952380951218 0.8571428571428570953 0.875 0.8928571428571427937 0.9107142857142856984 0.9285714285714286031 0.9464285714285713969 0.9642857142857143016 0.9732142857142858094 0.9821428571428572063 0.9910714285714286031 0.9955357142857143016 0.9977678571428572063 0.9994419642857143016 0.9997209821428572063 0.9998604910714286031 
	0 
	0 
	0 
	F 1 F 0 F 1 F 0 } I I I I #
tcoedge-coedge $-1 -1 $-1 $14 $14 $18 $19 reversed $9 $20 -6.283185307179586232 -0 #
tcoedge-coedge $-1 -1 $-1 $21 $22 $11 $16 reversed $12 $23 -6.283185307179586232 -0 #
tedge-edge $-1 -1 $-1 $24 0 $24 6.283185307179586232 $15 $25 forward @7 unknown 0.0007900510667186491079 #
pcurve $-1 -1 $-1 0 forward { exppc nurbs 2 periodic 5 
	0 2 1.570796326794896558 2 3.141592653589793116 2 4.712388980384689674 2 6.283185307179586232 2 
	0 500 1 
	-500 500 0.707106781186543798 
	-500 0 1 
	-500 -500 0.7071067811865463515 
	0 -500 1 
	500 -500 0.7071067811865463515 
	500 0 1 
	500 500 0.707106781186543798 
	0 500 1 
	0 
	plane 6531.79757191538738 3935.642797989794417 14000.00000000000182 1 -3.637978807091713027e-15 0 0 0 -1 forward_v I I I I 
	} 0 0 #
tcoedge-coedge $-1 -1 $-1 $22 $21 $14 $19 forward $12 $26 0 6.283185307179586232 #
tedge-edge $-1 -1 $-1 $27 0 $27 6.283185307179586232 $18 $28 forward @7 unknown 0.0007900510667914165293 #
pcurve $-1 -1 $-1 0 forward { exppc nurbs 2 periodic 5 
	-6.283185307179586232 2 -4.712388980384689674 2 -3.141592653589793116 2 -1.570796326794896558 2 0 2 
	0 500 1 
	500 500 0.707106781186543798 
	500 0 1 
	500 -500 0.7071067811865463515 
	0 -500 1 
	-500 -500 0.7071067811865463515 
	-500 0 1 
	-500 500 0.707106781186543798 
	0 500 1 
	0 
	plane 6281.79757191538738 3935.642797989795326 14000.00000000000182 -1 3.637978807091713027e-15 -0 0 0 -1 reverse_v I I I I 
	} 0 0 #
coedge $-1 -1 $-1 $18 $15 $22 $29 reversed $12 $30 #
coedge $-1 -1 $-1 $15 $18 $21 $29 forward $12 $31 #
pcurve $-1 -1 $-1 0 forward { exppc nubs 1 periodic 2 
	-6.283185307179586232 1 -0 1 
	1 1 
	0 1 
	0 
	spline forward { ref 0 } I I I I 
	} 0 0 #
tvertex-vertex $-1 -1 $-1 $16 $32 2.830907111723663462e-05 #
ellipse-curve $-1 -1 $-1 6531.79757191538738 3935.642797989794417 14000.00000000000182 1 -3.637978807091713027e-15 0 1.818989403545856476e-12 500 0 1 I I #
pcurve $-1 -1 $-1 0 forward { exppc nubs 1 periodic 2 
	0 1 6.283185307179586232 1 
	0 0 
	1 0 
	2.726396620975368931e-13 
	spline forward { ref 0 } I I I I 
	} 0 0 #
tvertex-vertex $-1 -1 $-1 $19 $33 2.830906398774315331e-05 #
ellipse-curve $-1 -1 $-1 6281.79757191538738 3935.642797989795326 14000.00000000000182 1 -3.637978807091713027e-15 0 1.818989403545856476e-12 500 0 1 I I #
edge $-1 -1 $-1 $27 0 $24 1 $22 $34 forward @7 tangent #
pcurve $-1 -1 $-1 -1 $34 0 0 #
pcurve $-1 -1 $-1 1 $34 1 0 #
point $-1 -1 $-1 6531.797571915389199 4435.642797989794417 14000.00000000000182 #
point $-1 -1 $-1 6281.797571915389199 4435.642797989795326 14000.00000000000182 #
intcurve-curve $-1 -1 $-1 forward { parcur full nubs 3 open 2 
	0 3 1 3 
	6281.797571842514117 4435.642813251040934 14000.0000238430639 
	6365.130905175847147 4435.642813251040025 14000.0000238430639 
	6448.464238506278889 4435.642813251039115 14000.0000238430639 
	6531.797571839611919 4435.642813251039115 14000.0000238430639 
	0 
	
	spline forward { ref 0 } I I I I 
	null_surface 
	nubs 1 open 2 
	0 1 1 1 
	0 0 
	0 1 
	
	nullbs 
	I I 
	0 
	0 
	0 
	surf1 } I I #
End-of-ACIS-data 