700 0 1 0           
4 LibG 20 ASM 224.0.1.65535 NT 24 Wed Jul 17 14:48:13 2019 
1000 9.999999999999999547e-07 1.000000000000000036e-10 
body $-1 -1 $-1 $1 $-1 $2 #
lump $-1 -1 $-1 $-1 $3 $0 #
transform $-1 -1 1 0 0 0 1 0 0 0 1 0 0 0 1 no_rotate no_reflect no_shear #
shell $-1 -1 $-1 $-1 $-1 $4 $-1 $1 #
face $-1 -1 $-1 $5 $6 $3 $-1 $7 forward single #
face $-1 -1 $-1 $8 $9 $3 $-1 $10 reversed single #
loop $-1 -1 $-1 $-1 $11 $4 #
plane-surface $-1 -1 $-1 5281.79757191538738 3935.642797989798964 14000.00000000000182 1 -3.637978807091713027e-15 0 0 0 -1 forward_v I I I I #
face $-1 -1 $-1 $-1 $12 $3 $-1 $13 forward single #
loop $-1 -1 $-1 $-1 $14 $5 #
plane-surface $-1 -1 $-1 5031.79757191538738 3935.642797989799874 14000.00000000000182 1 -3.637978807091713027e-15 0 0 0 -1 forward_v I I I I #
tcoedge-coedge $-1 -1 $-1 $11 $11 $15 $16 forward $6 $17 0 6.283185307179586232 #
loop $-1 -1 $-1 $-1 $18 $8 #
spline-surface $-1 -1 $-1 forward { exactsur full nubs 3 3 periodic open none none 90 2 
	0 3 0.001116071428571428509 1 0.002232142857142857019 1 0.004464285714285714038 1 0.008928571428571428076 1 
	0.01785714285714285615 1 0.0357142857142857123 1 0.05357142857142856845 1 0.07142857142857142461 1 0.08928571428571427382 1 
	0.1071428571428571369 1 0.1160714285714285754 1 0.125 1 0.1428571428571428492 1 0.1587301587301587213 1 
	0.1746031746031745935 1 0.1904761904761904656 1 0.2023809523809523836 1 0.2142857142857142738 1 0.238095238095238082 1 
	0.2619047619047618625 1 0.2857142857142856984 1 0.2976190476190476164 1 0.3095238095238095344 1 0.3154761904761904656 1 
	0.3214285714285713969 1 0.3333333333333333148 1 0.3452380952380952328 1 0.3571428571428570953 1 0.3690476190476190133 1 
	0.375 1 0.3779761904761904656 1 0.3809523809523809312 1 0.3869047619047618625 1 0.3928571428571428492 1 
	0.4047619047619047672 1 0.4166666666666666297 1 0.4285714285714285476 1 0.4444444444444444198 1 0.4603174603174602919 1 
	0.476190476190476164 1 0.4801587301587301182 1 0.4821428571428570953 1 0.4841269841269840724 1 0.4861111111111110494 1 
	0.4880952380952380265 1 0.4900793650793650036 1 0.4910714285714284921 1 0.4915674603174602364 1 0.491815476190476164 1 
	0.4920634920634920362 1 0.5158730158730158166 1 0.5238095238095237249 1 0.5357142857142855874 1 0.5476190476190475609 1 
	0.5595238095238095344 1 0.5714285714285713969 1 0.5952380952380951218 1 0.6190476190476189577 1 0.6349206349206348854 1 
	0.650793650793650702 1 0.6666666666666666297 1 0.6904761904761904656 1 0.7023809523809523281 1 0.7142857142857141906 1 
	0.7321428571428569843 1 0.749999999999999889 1 0.7678571428571427937 1 0.7857142857142855874 1 0.8095238095238094234 1 
	0.8214285714285713969 1 0.8333333333333332593 1 0.8452380952380951218 1 0.8571428571428570953 1 0.875 1 
	0.8928571428571427937 1 0.9107142857142856984 1 0.9285714285714286031 1 0.9464285714285713969 1 0.9642857142857143016 1 
	0.9732142857142858094 1 0.9821428571428572063 1 0.9910714285714286031 1 0.9955357142857143016 1 0.9977678571428572063 1 
	0.9988839285714286031 1 0.9994419642857143016 1 0.9997209821428572063 1 0.9998604910714286031 1 1 3 
	0 3 1 3 
	5031.79757196821356 4435.642812801453147 14000.00002318100633 
	5031.79757196821447 4435.642812798905652 14001.1687704374126 
	5031.797571968166267 4435.63461744034521 14003.50626493002892 
	5031.797571968119883 4435.585441423823795 14008.18102369866028 
	5031.797571967923432 4435.413346928978171 14016.36064611478287 
	5031.79757196718765 4434.724992154534448 14032.71022487248229 
	5031.797571964836607 4431.973741971140953 14065.33222286547789 
	5031.797571957303262 4424.130717527530578 14111.49414853036069 
	5031.797571951262398 4408.575721288461864 14165.48636812034783 
	5031.797571944612173 4387.073436886792479 14217.39746887655747 
	5031.797571939591762 4359.894162032821441 14266.57473539870261 
	5031.797571934187545 4332.798622418425111 14304.76204592872091 
	5031.797571932894243 4308.659344378321293 14333.34785444687441 
	5031.797571931051607 4282.956072043743006 14360.536049676326 
	5031.797571930133927 4249.594184679652244 14390.34992994867753 
	5031.797571925956618 4207.365964467516278 14420.70968667530542 
	5031.797571925599186 4164.126538361121675 14445.67387997911646 
	5031.797571924780641 4122.408865439078909 14464.49776163895876 
	5031.797571924144904 4083.157744097127306 14478.23155956266783 
	5031.797571923356372 4034.956952289953733 14491.14851442196232 
	5031.797571922407769 3973.147684682303407 14500.46601001364979 
	5031.797571920816154 3898.13792515393925 14500.46559521492236 
	5031.797571919587426 3836.328574129964636 14491.14871622840292 
	5031.797571919339134 3788.127694647559565 14478.23197971616901 
	5031.797571918751601 3758.689399700353079 14467.93155773565013 
	5031.7975719186079 3735.650082227382427 14458.38811213302688 
	5031.797571918452377 3712.983604818839467 14447.99021642513071 
	5031.797571918005815 3685.409440635895862 14433.41682214047978 
	5031.79757191752833 3653.719858248356104 14413.50492312235656 
	5031.797571917381902 3623.606888507234544 14391.28057643792272 
	5031.797571917172718 3599.966991368390609 14370.93672304812208 
	5031.797571917129062 3584.251849158030382 14355.79850137887479 
	5031.797571917095411 3575.519023628941795 14346.90083581979343 
	5031.797571917086316 3566.95410229981826 14337.84143199748178 
	5031.79757191704266 3556.568416767858253 14326.21982540292993 
	5031.797571917003552 3540.658155530444219 14307.01697650666028 
	5031.797571916848938 3522.137747588843922 14281.9229071376667 
	5031.797571916757988 3502.225992316522479 14250.23326200329029 
	5031.797571916636116 3482.794613049911277 14213.4678237585631 
	5031.797571916452398 3465.016682564455095 14171.29383676180987 
	5031.797571916387824 3450.300047616628945 14123.5833702521777 
	5031.79757191601766 3442.880168188029984 14086.87936053434896 
	5031.797571915983099 3439.755616538601771 14064.23664022953744 
	5031.797571915976732 3438.773573311273594 14055.98360907877577 
	5031.797571915969456 3438.114277094913177 14049.78513235866194 
	5031.797571915966728 3437.532296379046784 14043.57891938370813 
	5031.797571915959452 3437.027734881586639 14037.36593317247207 
	5031.797571915956723 3436.671838030915296 14032.18360519310954 
	5031.797571915953995 3436.456649043810103 14028.55385820357697 
	5031.797571915955814 3436.35753367576126 14026.73850793718702 
	5031.797571915953995 3436.303331440645252 14025.70103672068581 
	5031.797571915992194 3435.014338774064527 14000.28092862742778 
	5031.797571916116794 3435.85317346690681 13966.69364177730313 
	5031.79757191616136 3441.539723565233544 13921.32329641608885 
	5031.797571916272318 3447.724137652509853 13888.63562704753895 
	5031.797571916371453 3457.410782260302767 13852.48474844556949 
	5031.797571916495144 3469.772010299217072 13817.15900420294201 
	5031.797571916644301 3489.726309770272564 13771.42080029622593 
	5031.79757191716817 3520.978889818271 13717.28659629492904 
	5031.797571917679306 3562.551254391680686 13665.15895863837613 
	5031.797571918088579 3604.250974038041477 13624.48693319627455 
	5031.797571918250469 3643.286842250552581 13593.35737710379726 
	5031.797571918589711 3692.217812866075292 13561.75280835144804 
	5031.797571919236361 3741.026345908322583 13538.24831841139712 
	5031.797571919541042 3788.128141891962969 13521.76839694773116 
	5031.797571919934853 3830.303800623299139 13510.46651789873613 
	5031.797571920716109 3879.543200330215313 13502.10042425147913 
	5031.797571921623785 3935.6430823113119 13498.94961472231989 
	5031.797571922636052 3991.742704935096754 13502.10066084078971 
	5031.79757192395482 4053.292481467995913 13512.55667048589385 
	5031.797571925485499 4107.049651310326226 13529.13948882162731 
	5031.797571925895681 4152.787028634385933 13549.09584811077002 
	5031.797571926718774 4185.876181636547699 13566.58335449025071 
	5031.797571927677382 4217.56560427036402 13586.49550968936819 
	5031.797571928639627 4252.697609857306816 13612.42356673574977 
	5031.797571931354469 4289.93895854002767 13645.70406374095546 
	5031.797571933185282 4327.37966293423051 13687.60048019095484 
	5031.797571939768204 4359.894148370031871 13733.42537409704528 
	5031.797571946113749 4387.073420650897788 13782.6025784956073 
	5031.797571952441103 4408.575842080509574 13834.51368097043996 
	5031.797571960036294 4421.537995941928784 13879.50721551323841 
	5031.797571962486472 4428.83687579598427 13916.2030086728646 
	5031.797571964691087 4432.759654636457526 13943.98841398801778 
	5031.797571967118529 4434.725035793874667 13967.28981705409933 
	5031.797571967897056 4435.413339014671692 13983.63940113283752 
	5031.797571968131706 4435.585442752591007 13991.81902248774895 
	5031.797571968188095 4435.628470146531072 13995.90943652949136 
	5031.797571968206285 4435.639227142170057 13997.95471907425417 
	5031.797571968209922 4435.641916386120101 13998.97736977654313 
	5031.79757196821356 4435.642684750010631 13999.56174295953679 
	5031.79757196821356 4435.642812801772379 13999.85392977395531 
	5031.79757196821356 4435.642812801453147 14000.00002318100633 
	5115.130905301546591 4435.642812801452237 14000.00002318100633 
	5115.1309053015475 4435.642812798904743 14001.1687704374126 
	5115.130905301499297 4435.6346174403443 14003.50626493002892 
	5115.130905301452913 4435.585441423822886 14008.18102369866028 
	5115.130905301256462 4435.413346928977262 14016.36064611478287 
	5115.130905300520681 4434.724992154533538 14032.71022487248229 
	5115.130905298169637 4431.973741971140043 14065.33222286547789 
	5115.130905290636292 4424.130717527529669 14111.49414853036069 
	5115.130905284595428 4408.575721288460954 14165.48636812034783 
	5115.130905277945203 4387.073436886791569 14217.39746887655747 
	5115.130905272924792 4359.894162032820532 14266.57473539870261 
	5115.130905267520575 4332.798622418424202 14304.76204592872091 
	5115.130905266227273 4308.659344378320384 14333.34785444687441 
	5115.130905264384637 4282.956072043742097 14360.536049676326 
	5115.130905263466957 4249.594184679651335 14390.34992994867753 
	5115.130905259289648 4207.365964467515369 14420.70968667530542 
	5115.130905258932216 4164.126538361120765 14445.67387997911646 
	5115.130905258113671 4122.408865439077999 14464.49776163895876 
	5115.130905257477934 4083.157744097126852 14478.23155956266783 
	5115.130905256689402 4034.956952289953279 14491.14851442196232 
	5115.130905255740799 3973.147684682302952 14500.46601001364979 
	5115.130905254149184 3898.137925153938795 14500.46559521492236 
	5115.130905252920456 3836.328574129964181 14491.14871622840292 
	5115.130905252672164 3788.12769464755911 14478.23197971616901 
	5115.130905252084631 3758.689399700352624 14467.93155773565013 
	5115.130905251940931 3735.650082227381972 14458.38811213302688 
	5115.130905251785407 3712.983604818839012 14447.99021642513071 
	5115.130905251338845 3685.409440635895407 14433.41682214047978 
	5115.13090525086136 3653.719858248355649 14413.50492312235656 
	5115.130905250714932 3623.606888507234089 14391.28057643792272 
	5115.130905250505748 3599.966991368390154 14370.93672304812208 
	5115.130905250462092 3584.251849158029927 14355.79850137887479 
	5115.130905250428441 3575.519023628941341 14346.90083581979343 
	5115.130905250419346 3566.954102299817805 14337.84143199748178 
	5115.13090525037569 3556.568416767857798 14326.21982540292993 
	5115.130905250336582 3540.658155530443764 14307.01697650666028 
	5115.130905250181968 3522.137747588843467 14281.9229071376667 
	5115.130905250091018 3502.225992316522024 14250.23326200329029 
	5115.130905249969146 3482.794613049910822 14213.4678237585631 
	5115.130905249785428 3465.016682564454641 14171.29383676180987 
	5115.130905249720854 3450.30004761662849 14123.5833702521777 
	5115.13090524935069 3442.880168188029529 14086.87936053434896 
	5115.130905249316129 3439.755616538601316 14064.23664022953744 
	5115.130905249309762 3438.77357331127314 14055.98360907877577 
	5115.130905249302486 3438.114277094912723 14049.78513235866194 
	5115.130905249299758 3437.532296379046329 14043.57891938370813 
	5115.130905249292482 3437.027734881586184 14037.36593317247207 
	5115.130905249289754 3436.671838030914842 14032.18360519310954 
	5115.130905249287025 3436.456649043809648 14028.55385820357697 
	5115.130905249288844 3436.357533675760806 14026.73850793718702 
	5115.130905249287025 3436.303331440644797 14025.70103672068581 
	5115.130905249325224 3435.014338774064072 14000.28092862742778 
	5115.130905249449825 3435.853173466906355 13966.69364177730313 
	5115.13090524949439 3441.539723565233089 13921.32329641608885 
	5115.130905249605348 3447.724137652509398 13888.63562704753895 
	5115.130905249704483 3457.410782260302312 13852.48474844556949 
	5115.130905249828174 3469.772010299216618 13817.15900420294201 
	5115.130905249977332 3489.72630977027211 13771.42080029622593 
	5115.1309052505012 3520.978889818270545 13717.28659629492904 
	5115.130905251012337 3562.551254391680231 13665.15895863837613 
	5115.130905251421609 3604.250974038041022 13624.48693319627455 
	5115.130905251583499 3643.286842250552127 13593.35737710379726 
	5115.130905251922741 3692.217812866074837 13561.75280835144804 
	5115.130905252569391 3741.026345908322128 13538.24831841139712 
	5115.130905252874072 3788.128141891962514 13521.76839694773116 
	5115.130905253267883 3830.303800623298685 13510.46651789873613 
	5115.130905254049139 3879.543200330214859 13502.10042425147913 
	5115.130905254956815 3935.643082311311446 13498.94961472231989 
	5115.130905255969083 3991.742704935096299 13502.10066084078971 
	5115.13090525728785 4053.292481467995458 13512.55667048589385 
	5115.13090525881853 4107.049651310325316 13529.13948882162731 
	5115.130905259228712 4152.787028634385024 13549.09584811077002 
	5115.130905260051804 4185.876181636546789 13566.58335449025071 
	5115.130905261010412 4217.56560427036311 13586.49550968936819 
	5115.130905261972657 4252.697609857305906 13612.42356673574977 
	5115.130905264687499 4289.938958540026761 13645.70406374095546 
	5115.130905266518312 4327.3796629342296 13687.60048019095484 
	5115.130905273101234 4359.894148370030962 13733.42537409704528 
	5115.130905279446779 4387.073420650896878 13782.6025784956073 
	5115.130905285774134 4408.575842080508664 13834.51368097043996 
	5115.130905293369324 4421.537995941927875 13879.50721551323841 
	5115.130905295819502 4428.83687579598336 13916.2030086728646 
	5115.130905298024118 4432.759654636456617 13943.98841398801778 
	5115.130905300451559 4434.725035793873758 13967.28981705409933 
	5115.130905301230086 4435.413339014670782 13983.63940113283752 
	5115.130905301464736 4435.585442752590097 13991.81902248774895 
	5115.130905301521125 4435.628470146530162 13995.90943652949136 
	5115.130905301539315 4435.639227142169148 13997.95471907425417 
	5115.130905301542953 4435.641916386119192 13998.97736977654313 
	5115.130905301546591 4435.642684750009721 13999.56174295953679 
	5115.130905301546591 4435.64281280177147 13999.85392977395531 
	5115.130905301546591 4435.642812801452237 14000.00002318100633 
	5198.464238637504423 4435.642812801453147 14000.00002318100633 
	5198.464238637505332 4435.642812798905652 14001.1687704374126 
	5198.46423863745531 4435.63461744034521 14003.50626493002892 
	5198.464238637405288 4435.585441423823795 14008.18102369866028 
	5198.464238637199742 4435.413346928978171 14016.36064611478287 
	5198.464238636426671 4434.724992154534448 14032.71022487248229 
	5198.464238633959212 4431.973741971140953 14065.33222286547789 
	5198.464238626052975 4424.130717527530578 14111.49414853036069 
	5198.464238619712887 4408.575721288461864 14165.48636812034783 
	5198.464238612731606 4387.073436886791569 14217.39746887655747 
	5198.464238607461994 4359.894162032820532 14266.57473539870261 
	5198.464238601788566 4332.798622418424202 14304.76204592872091 
	5198.46423860043069 4308.659344378320384 14333.34785444687441 
	5198.464238598497104 4282.956072043742097 14360.536049676326 
	5198.464238597534859 4249.594184679651335 14390.34992994867753 
	5198.464238593148366 4207.365964467514459 14420.70968667530542 
	5198.464238592773654 4164.126538361119856 14445.67387997911646 
	5198.464238591915091 4122.40886543907709 14464.49776163895876 
	5198.464238591246612 4083.157744097126397 14478.23155956266783 
	5198.464238590419882 4034.956952289952824 14491.14851442196232 
	5198.464238589423985 3973.147684682302042 14500.46601001364979 
	5198.464238587752334 3898.137925153936976 14500.46559521492236 
	5198.46423858646358 3836.328574129963727 14491.14871622840292 
	5198.464238586201645 3788.127694647558201 14478.23197971616901 
	5198.464238585585917 3758.689399700352169 14467.93155773565013 
	5198.464238585435851 3735.650082227381517 14458.38811213302688 
	5198.464238585271232 3712.983604818838558 14447.99021642513071 
	5198.464238584803752 3685.409440635894953 14433.41682214047978 
	5198.46423858430262 3653.71985824835474 14413.50492312235656 
	5198.464238584148916 3623.60688850723318 14391.28057643792272 
	5198.464238583927909 3599.96699136838879 14370.93672304812208 
	5198.464238583884253 3584.251849158029017 14355.79850137887479 
	5198.464238583848783 3575.519023628940431 14346.90083581979343 
	5198.464238583838778 3566.95410229981735 14337.84143199748178 
	5198.464238583792394 3556.568416767857343 14326.21982540292993 
	5198.464238583750557 3540.658155530442855 14307.01697650666028 
	5198.464238583589577 3522.137747588843013 14281.9229071376667 
	5198.46423858349408 3502.225992316522024 14250.23326200329029 
	5198.46423858336766 3482.794613049910822 14213.4678237585631 
	5198.464238583173938 3465.016682564454641 14171.29383676180987 
	5198.464238583105725 3450.300047616629399 14123.5833702521777 
	5198.464238582717371 3442.880168188029529 14086.87936053434896 
	5198.464238582680082 3439.755616538601771 14064.23664022953744 
	5198.464238582673715 3438.773573311273594 14055.98360907877577 
	5198.464238582666439 3438.114277094913632 14049.78513235866194 
	5198.464238582663711 3437.532296379046329 14043.57891938370813 
	5198.464238582655526 3437.027734881586184 14037.36593317247207 
	5198.464238582652797 3436.671838030914842 14032.18360519310954 
	5198.464238582650069 3436.456649043809648 14028.55385820357697 
	5198.464238582650978 3436.357533675760806 14026.73850793718702 
	5198.464238582649159 3436.303331440644797 14025.70103672068581 
	5198.464238582690086 3435.014338774064527 14000.28092862742778 
	5198.464238582821963 3435.853173466906355 13966.69364177730313 
	5198.464238582869257 3441.539723565233089 13921.32329641608885 
	5198.464238582984763 3447.724137652509398 13888.63562704753895 
	5198.464238583087536 3457.410782260302312 13852.48474844556949 
	5198.464238583219412 3469.772010299216618 13817.15900420294201 
	5198.464238583374026 3489.726309770272564 13771.42080029622593 
	5198.464238583924271 3520.978889818270545 13717.28659629492904 
	5198.464238584460873 3562.551254391679777 13665.15895863837613 
	5198.464238584890154 3604.250974038041022 13624.48693319627455 
	5198.46423858506023 3643.286842250552127 13593.35737710379726 
	5198.464238585416751 3692.217812866074837 13561.75280835144804 
	5198.464238586094325 3741.026345908321673 13538.24831841139712 
	5198.464238586414467 3788.128141891961604 13521.76839694773116 
	5198.464238586828287 3830.30380062329823 13510.46651789873613 
	5198.464238587647742 3879.543200330214404 13502.10042425147913 
	5198.464238588600892 3935.643082311310991 13498.94961472231989 
	5198.464238589663182 3991.742704935095844 13502.10066084078971 
	5198.464238591047433 4053.292481467994548 13512.55667048589385 
	5198.464238592653601 4107.049651310324407 13529.13948882162731 
	5198.464238593083792 4152.787028634384114 13549.09584811077002 
	5198.464238593947812 4185.87618163654588 13566.58335449025071 
	5198.464238594954622 4217.565604270362201 13586.49550968936819 
	5198.464238595964162 4252.697609857304997 13612.42356673574977 
	5198.464238598814518 4289.938958540026761 13645.70406374095546 
	5198.464238600735371 4327.3796629342296 13687.60048019095484 
	5198.464238607644802 4359.894148370031871 13733.42537409704528 
	5198.464238614305941 4387.073420650897788 13782.6025784956073 
	5198.464238620947071 4408.575842080508664 13834.51368097043996 
	5198.464238628919702 4421.537995941928784 13879.50721551323841 
	5198.464238631491753 4428.83687579598427 13916.2030086728646 
	5198.464238633805508 4432.759654636457526 13943.98841398801778 
	5198.464238636353912 4434.725035793874667 13967.28981705409933 
	5198.464238637171547 4435.413339014671692 13983.63940113283752 
	5198.464238637417111 4435.585442752591007 13991.81902248774895 
	5198.464238637478047 4435.628470146531072 13995.90943652949136 
	5198.464238637496237 4435.639227142170057 13997.95471907425417 
	5198.464238637500785 4435.641916386120101 13998.97736977654313 
	5198.464238637502604 4435.642684750010631 13999.56174295953679 
	5198.464238637503513 4435.642812801772379 13999.85392977395531 
	5198.464238637504423 4435.642812801453147 14000.00002318100633 
	5281.797571970837453 4435.642812801453147 14000.00002318100633 
	5281.797571970838362 4435.642812798905652 14001.1687704374126 
	5281.79757197078834 4435.63461744034521 14003.50626493002892 
	5281.797571970738318 4435.585441423823795 14008.18102369866028 
	5281.797571970532772 4435.413346928978171 14016.36064611478287 
	5281.797571969759701 4434.724992154534448 14032.71022487248229 
	5281.797571967292242 4431.973741971140953 14065.33222286547789 
	5281.797571959386005 4424.130717527530578 14111.49414853036069 
	5281.797571953045917 4408.575721288461864 14165.48636812034783 
	5281.797571946064636 4387.073436886791569 14217.39746887655747 
	5281.797571940795024 4359.894162032820532 14266.57473539870261 
	5281.797571935121596 4332.798622418424202 14304.76204592872091 
	5281.79757193376372 4308.659344378320384 14333.34785444687441 
	5281.797571931830134 4282.956072043742097 14360.536049676326 
	5281.797571930867889 4249.594184679651335 14390.34992994867753 
	5281.797571926481396 4207.365964467514459 14420.70968667530542 
	5281.797571926106684 4164.126538361119856 14445.67387997911646 
	5281.797571925248121 4122.40886543907709 14464.49776163895876 
	5281.797571924579643 4083.157744097125942 14478.23155956266783 
	5281.797571923752912 4034.956952289952369 14491.14851442196232 
	5281.797571922757015 3973.147684682301588 14500.46601001364979 
	5281.797571921085364 3898.137925153936521 14500.46559521492236 
	5281.79757191979661 3836.328574129963272 14491.14871622840292 
	5281.797571919534676 3788.127694647557746 14478.23197971616901 
	5281.797571918918948 3758.689399700351714 14467.93155773565013 
	5281.797571918768881 3735.650082227381063 14458.38811213302688 
	5281.797571918604262 3712.983604818838103 14447.99021642513071 
	5281.797571918136782 3685.409440635894498 14433.41682214047978 
	5281.797571917635651 3653.719858248354285 14413.50492312235656 
	5281.797571917481946 3623.606888507232725 14391.28057643792272 
	5281.797571917260939 3599.966991368388335 14370.93672304812208 
	5281.797571917217283 3584.251849158028563 14355.79850137887479 
	5281.797571917181813 3575.519023628939976 14346.90083581979343 
	5281.797571917171808 3566.954102299816896 14337.84143199748178 
	5281.797571917125424 3556.568416767856888 14326.21982540292993 
	5281.797571917083587 3540.6581555304424 14307.01697650666028 
	5281.797571916922607 3522.137747588842558 14281.9229071376667 
	5281.79757191682711 3502.22599231652157 14250.23326200329029 
	5281.79757191670069 3482.794613049910367 14213.4678237585631 
	5281.797571916506968 3465.016682564454186 14171.29383676180987 
	5281.797571916438756 3450.300047616628945 14123.5833702521777 
	5281.797571916050401 3442.880168188029074 14086.87936053434896 
	5281.797571916013112 3439.755616538601316 14064.23664022953744 
	5281.797571916006746 3438.77357331127314 14055.98360907877577 
	5281.79757191599947 3438.114277094913177 14049.78513235866194 
	5281.797571915996741 3437.532296379045874 14043.57891938370813 
	5281.797571915988556 3437.027734881585729 14037.36593317247207 
	5281.797571915985827 3436.671838030914387 14032.18360519310954 
	5281.797571915983099 3436.456649043809193 14028.55385820357697 
	5281.797571915984008 3436.357533675760351 14026.73850793718702 
	5281.797571915982189 3436.303331440644342 14025.70103672068581 
	5281.797571916023117 3435.014338774064072 14000.28092862742778 
	5281.797571916154993 3435.853173466905901 13966.69364177730313 
	5281.797571916202287 3441.539723565232634 13921.32329641608885 
	5281.797571916317793 3447.724137652508944 13888.63562704753895 
	5281.797571916420566 3457.410782260301858 13852.48474844556949 
	5281.797571916552442 3469.772010299216163 13817.15900420294201 
	5281.797571916707057 3489.72630977027211 13771.42080029622593 
	5281.797571917257301 3520.97888981827009 13717.28659629492904 
	5281.797571917793903 3562.551254391679322 13665.15895863837613 
	5281.797571918223184 3604.250974038040567 13624.48693319627455 
	5281.79757191839326 3643.286842250551672 13593.35737710379726 
	5281.797571918749782 3692.217812866074382 13561.75280835144804 
	5281.797571919427355 3741.026345908321218 13538.24831841139712 
	5281.797571919747497 3788.12814189196115 13521.76839694773116 
	5281.797571920161317 3830.303800623297775 13510.46651789873613 
	5281.797571920980772 3879.543200330213949 13502.10042425147913 
	5281.797571921933923 3935.643082311310536 13498.94961472231989 
	5281.797571922996212 3991.742704935095389 13502.10066084078971 
	5281.797571924380463 4053.292481467994094 13512.55667048589385 
	5281.797571925986631 4107.049651310324407 13529.13948882162731 
	5281.797571926416822 4152.787028634384114 13549.09584811077002 
	5281.797571927280842 4185.87618163654588 13566.58335449025071 
	5281.797571928287653 4217.565604270362201 13586.49550968936819 
	5281.797571929297192 4252.697609857304997 13612.42356673574977 
	5281.797571932147548 4289.938958540026761 13645.70406374095546 
	5281.797571934068401 4327.3796629342296 13687.60048019095484 
	5281.797571940977832 4359.894148370031871 13733.42537409704528 
	5281.797571947638971 4387.073420650897788 13782.6025784956073 
	5281.797571954280102 4408.575842080508664 13834.51368097043996 
	5281.797571962252732 4421.537995941928784 13879.50721551323841 
	5281.797571964824783 4428.83687579598427 13916.2030086728646 
	5281.797571967138538 4432.759654636457526 13943.98841398801778 
	5281.797571969686942 4434.725035793874667 13967.28981705409933 
	5281.797571970504578 4435.413339014671692 13983.63940113283752 
	5281.797571970750141 4435.585442752591007 13991.81902248774895 
	5281.797571970811077 4435.628470146531072 13995.90943652949136 
	5281.797571970829267 4435.639227142170057 13997.95471907425417 
	5281.797571970833815 4435.641916386120101 13998.97736977654313 
	5281.797571970835634 4435.642684750010631 13999.56174295953679 
	5281.797571970836543 4435.642812801772379 13999.85392977395531 
	5281.797571970837453 4435.642812801453147 14000.00002318100633 
	0 
	
	0 
	0 
	88 0 0.001116071428571428509 0.002232142857142857019 0.004464285714285714038 0.008928571428571428076 0.01785714285714285615 0.0357142857142857123 0.05357142857142856845 0.07142857142857142461 0.08928571428571427382 0.1071428571428571369 0.1160714285714285754 0.125 0.1428571428571428492 0.1587301587301587213 0.1746031746031745935 0.1904761904761904656 0.2023809523809523836 0.2142857142857142738 0.238095238095238082 0.2619047619047618625 0.2857142857142856984 0.2976190476190476164 0.3095238095238095344 0.3154761904761904656 0.3214285714285713969 0.3333333333333333148 0.3452380952380952328 0.3571428571428570953 0.3690476190476190133 0.375 0.3779761904761904656 0.3809523809523809312 0.3869047619047618625 0.3928571428571428492 0.4047619047619047672 0.4166666666666666297 0.4285714285714285476 0.4444444444444444198 0.4603174603174602919 0.476190476190476164 0.4801587301587301182 0.4821428571428570953 0.4841269841269840724 0.4861111111111110494 0.4880952380952380265 0.4900793650793650036 0.4910714285714284921 0.4915674603174602364 0.491815476190476164 0.4920634920634920362 0.5158730158730158166 0.5238095238095237249 0.5357142857142855874 0.5476190476190475609 0.5595238095238095344 0.5714285714285713969 0.5952380952380951218 0.6190476190476189577 0.6349206349206348854 0.650793650793650702 0.6666666666666666297 0.6904761904761904656 0.7023809523809523281 0.7142857142857141906 0.7321428571428569843 0.749999999999999889 0.7678571428571427937 0.7857142857142855874 0.8095238095238094234 0.8214285714285713969 0.8333333333333332593 0.8452380952380951218 0.8571428571428570953 0.875 0.8928571428571427937 0.9107142857142856984 0.9285714285714286031 0.9464285714285713969 0.9642857142857143016 0.9732142857142858094 0.9821428571428572063 0.9910714285714286031 0.9955357142857143016 0.9977678571428572063 0.9994419642857143016 0.9997209821428572063 0.9998604910714286031 
	0 
	0 
	0 
	F 1 F 0 F 1 F 0 } I I I I #
tcoedge-coedge $-1 -1 $-1 $14 $14 $18 $19 reversed $9 $20 -6.283185307179586232 -0 #
tcoedge-coedge $-1 -1 $-1 $21 $22 $11 $16 reversed $12 $23 -6.283185307179586232 -0 #
tedge-edge $-1 -1 $-1 $24 0 $24 6.283185307179586232 $15 $25 forward @7 unknown 0.000787514405128503887 #
pcurve $-1 -1 $-1 0 forward { exppc nurbs 2 periodic 5 
	0 2 1.570796326794896558 2 3.141592653589793116 2 4.712388980384689674 2 6.283185307179586232 2 
	0 500 1 
	-500 500 0.707106781186543798 
	-500 0 1 
	-500 -500 0.7071067811865463515 
	0 -500 1 
	500 -500 0.7071067811865463515 
	500 0 1 
	500 500 0.707106781186543798 
	0 500 1 
	0 
	plane 5281.79757191538738 3935.642797989798964 14000.00000000000182 1 -3.637978807091713027e-15 0 0 0 -1 forward_v I I I I 
	} 0 0 #
tcoedge-coedge $-1 -1 $-1 $22 $21 $14 $19 forward $12 $26 0 6.283185307179586232 #
tedge-edge $-1 -1 $-1 $27 0 $27 6.283185307179586232 $18 $28 forward @7 unknown 0.0007875144038220292103 #
pcurve $-1 -1 $-1 0 forward { exppc nurbs 2 periodic 5 
	-6.283185307179586232 2 -4.712388980384689674 2 -3.141592653589793116 2 -1.570796326794896558 2 0 2 
	0 500 1 
	500 500 0.707106781186543798 
	500 0 1 
	500 -500 0.7071067811865463515 
	0 -500 1 
	-500 -500 0.7071067811865463515 
	-500 0 1 
	-500 500 0.707106781186543798 
	0 500 1 
	0 
	plane 5031.79757191538738 3935.642797989799874 14000.00000000000182 -1 3.637978807091713027e-15 -0 0 0 -1 reverse_v I I I I 
	} 0 0 #
coedge $-1 -1 $-1 $18 $15 $22 $29 reversed $12 $30 #
coedge $-1 -1 $-1 $15 $18 $21 $29 forward $12 $31 #
pcurve $-1 -1 $-1 0 forward { exppc nubs 1 periodic 2 
	-6.283185307179586232 1 -0 1 
	1 1 
	0 1 
	0 
	spline forward { ref 0 } I I I I 
	} 0 0 #
tvertex-vertex $-1 -1 $-1 $16 $32 2.750904749898840581e-05 #
ellipse-curve $-1 -1 $-1 5281.79757191538738 3935.642797989798964 14000.00000000000182 1 -3.637978807091713027e-15 0 1.818989403545856476e-12 500 0 1 I I #
pcurve $-1 -1 $-1 0 forward { exppc nubs 1 periodic 2 
	0 1 6.283185307179586232 1 
	0 0 
	1 0 
	2.726396620975368931e-13 
	spline forward { ref 0 } I I I I 
	} 0 0 #
tvertex-vertex $-1 -1 $-1 $19 $33 2.750904184561091704e-05 #
ellipse-curve $-1 -1 $-1 5031.79757191538738 3935.642797989799874 14000.00000000000182 1 -3.637978807091713027e-15 0 1.818989403545856476e-12 500 0 1 I I #
edge $-1 -1 $-1 $27 0 $24 1 $22 $34 forward @7 tangent #
pcurve $-1 -1 $-1 -1 $34 0 0 #
pcurve $-1 -1 $-1 1 $34 1 0 #
point $-1 -1 $-1 5281.797571915389199 4435.642797989798964 14000.00000000000182 #
point $-1 -1 $-1 5031.797571915389199 4435.642797989799874 14000.00000000000182 #
intcurve-curve $-1 -1 $-1 forward { parcur full nubs 3 open 2 
	0 3 1 3 
	5031.79757196821356 4435.642812801453147 14000.00002318100633 
	5115.130905301546591 4435.642812801452237 14000.00002318100633 
	5198.464238637504423 4435.642812801453147 14000.00002318100633 
	5281.797571970837453 4435.642812801453147 14000.00002318100633 
	0 
	
	spline forward { ref 0 } I I I I 
	null_surface 
	nubs 1 open 2 
	0 1 1 1 
	0 0 
	0 1 
	
	nullbs 
	I I 
	0 
	0 
	0 
	surf1 } I I #
End-of-ACIS-data 