700 0 1 0           
4 LibG 20 ASM 224.0.1.65535 NT 24 Wed Jul 17 14:48:13 2019 
1000 9.999999999999999547e-07 1.000000000000000036e-10 
body $-1 -1 $-1 $1 $-1 $2 #
lump $-1 -1 $-1 $-1 $3 $0 #
transform $-1 -1 1 0 0 0 1 0 0 0 1 0 0 0 1 no_rotate no_reflect no_shear #
shell $-1 -1 $-1 $-1 $-1 $4 $-1 $1 #
face $-1 -1 $-1 $5 $6 $3 $-1 $7 forward single #
face $-1 -1 $-1 $8 $9 $3 $-1 $10 reversed single #
loop $-1 -1 $-1 $-1 $11 $4 #
plane-surface $-1 -1 $-1 781.797571915386925 3935.642797989815335 14000.00000000000182 1 -3.637978807091713027e-15 0 0 0 -1 forward_v I I I I #
face $-1 -1 $-1 $-1 $12 $3 $-1 $13 forward single #
loop $-1 -1 $-1 $-1 $14 $5 #
plane-surface $-1 -1 $-1 531.797571915386925 3935.642797989816245 14000.00000000000182 1 -3.637978807091713027e-15 0 0 0 -1 forward_v I I I I #
tcoedge-coedge $-1 -1 $-1 $11 $11 $15 $16 forward $6 $17 0 6.283185307179586232 #
loop $-1 -1 $-1 $-1 $18 $8 #
spline-surface $-1 -1 $-1 forward { exactsur full nubs 3 3 periodic open none none 90 2 
	0 3 0.004464285714285714038 1 0.008928571428571428076 1 0.01785714285714285615 1 0.02678571428571428423 1 
	0.0357142857142857123 1 0.05357142857142856845 1 0.07142857142857142461 1 0.08928571428571427382 1 0.09374999999999998612 1 
	0.09821428571428569843 1 0.1026785714285714246 1 0.1071428571428571369 1 0.125 1 0.1428571428571428492 1 
	0.1587301587301587213 1 0.1785714285714285476 1 0.1825396825396825295 1 0.1904761904761904656 1 0.2142857142857142738 1 
	0.226190476190476164 1 0.238095238095238082 1 0.2410714285714285476 1 0.2440476190476190133 1 0.2499999999999999722 1 
	0.2619047619047618625 1 0.2738095238095237804 1 0.2857142857142856984 1 0.2976190476190476164 1 0.3095238095238095344 1 
	0.3214285714285713969 1 0.3333333333333333148 1 0.3452380952380952328 1 0.3571428571428570953 1 0.3630952380952380265 1 
	0.3690476190476190133 1 0.375 1 0.3809523809523809312 1 0.3928571428571428492 1 0.4047619047619047672 1 
	0.4166666666666666297 1 0.4285714285714285476 1 0.4444444444444444198 1 0.4603174603174602919 1 0.476190476190476164 1 
	0.4801587301587301182 1 0.4841269841269840724 1 0.4920634920634920362 1 0.5 1 0.5079365079365079083 1 
	0.5158730158730158166 1 0.5238095238095237249 1 0.5476190476190475609 1 0.5714285714285713969 1 0.5833333333333332593 1 
	0.5892857142857141906 1 0.5922619047619046562 1 0.5952380952380951218 1 0.6190476190476189577 1 0.6269841269841269771 1 
	0.6349206349206348854 1 0.650793650793650702 1 0.6666666666666666297 1 0.6904761904761904656 1 0.7023809523809523281 1 
	0.7142857142857141906 1 0.7321428571428569843 1 0.749999999999999889 1 0.7678571428571427937 1 0.7857142857142855874 1 
	0.7976190476190474499 1 0.8095238095238094234 1 0.8333333333333332593 1 0.8452380952380951218 1 0.851190476190476053 1 
	0.8571428571428570953 1 0.875 1 0.8928571428571427937 1 0.9107142857142856984 1 0.9285714285714286031 1 
	0.9464285714285713969 1 0.9642857142857143016 1 0.9732142857142858094 1 0.9821428571428572063 1 0.9910714285714286031 1 
	0.9955357142857143016 1 0.9977678571428572063 1 0.9988839285714286031 1 0.9994419642857143016 1 1 3 
	0 3 1 3 
	531.7975719151650082 4435.642881206353195 13999.9999368801964 
	531.7975719151650082 4435.642881009375742 14004.67492599687102 
	531.7975719151683052 4435.511735948344722 14014.02490538769962 
	531.7975719151710337 4434.725100319959893 14032.71014793571885 
	531.7975719151814928 4432.759717012338115 14056.01156244529557 
	531.7975719151907015 4428.836932900640932 14083.79697730170483 
	531.7975719152004785 4421.538052382910791 14120.49278729870093 
	531.7975719152343572 4408.575873361001868 14165.48635062516041 
	531.7975719152562988 4387.073469101095725 14217.39753036566799 
	531.7975719152841521 4366.688953308899727 14254.28040541457267 
	531.7975719152872216 4351.432169778170646 14277.82153254096374 
	531.7975719152884722 4343.476809545214564 14289.37361363361924 
	531.7975719152898364 4335.200482350947823 14300.69796188520922 
	531.7975719152921101 4318.019384340692341 14322.87369710790699 
	531.7975719153095042 4289.938960996349124 14354.29615353298686 
	531.7975719153228056 4249.594070180495692 14390.34989041967128 
	531.7975719153356522 4203.987963146992115 14423.13893972443475 
	531.7975719153455429 4167.673321068399673 14443.50612718773482 
	531.7975719153459977 4137.541042395471777 14457.55623396688134 
	531.7975719153499767 4103.067715389013756 14472.08968460703727 
	531.797571915357139 4059.265201618481569 14485.60037533082686 
	531.7975719153594127 4010.233314277640602 14494.87632665632191 
	531.7975719153641876 3982.340378759643045 14498.01952308983709 
	531.7975719153645286 3963.679623445138532 14499.24251732826269 
	531.797571915364756 3951.226067155789679 14499.82515927543864 
	531.7975719153652108 3929.409446366941211 14500.23323378917485 
	531.7975719153668024 3898.242856979768476 14499.06711489766167 
	531.7975719153681666 3861.052097511755164 14494.8766931272512 
	531.7975719153697582 3824.278482414374594 14487.9187605425268 
	531.7975719153708951 3788.127659135222984 14478.23217095907967 
	531.797571915372373 3752.801801599567625 14465.87111979896144 
	531.7975719153733962 3718.498461141718963 14450.90472789436535 
	531.7975719153744194 3685.409485611674427 14433.41668852582916 
	531.7975719153753289 3653.719902138641373 14413.50481994397342 
	531.79757191537567 3628.625768654604144 14394.9845409126192 
	531.7975719153757836 3609.422940116018253 14379.07425176960896 
	531.7975719153758973 3595.47699753559391 14366.6114511636697 
	531.7975719153761247 3582.006860214796689 14353.63585421224525 
	531.7975719153761247 3564.706033687778927 14335.67569384032504 
	531.7975719153766931 3544.362216422470283 14312.03578758854565 
	531.7975719153770342 3522.13778738162091 14281.92286400452213 
	531.7975719153772616 3502.226045284300653 14250.2332286402052 
	531.7975719153774889 3482.79464484602704 14213.46780653538372 
	531.7975719153776026 3465.01679851352128 14171.29380265058535 
	531.7975719153773753 3450.300262626126823 14123.58331913378424 
	531.7975719153774889 3442.880401585523941 14086.87935681142881 
	531.7975719153772616 3439.471796299141261 14062.17821257835931 
	531.7975719153773753 3437.610517819936831 14045.65926936376309 
	531.7975719153771479 3436.057290570851364 14024.93319054948734 
	531.7975719153772616 3435.435537176415437 13999.9999237558095 
	531.7975719153770342 3436.057206929632684 13975.06662977810629 
	531.7975719153771479 3437.921354668341337 13950.19538412074508 
	531.7975719153770342 3443.088998161710151 13908.9494518637257 
	531.7975719153770342 3456.070195816974774 13852.07133385401903 
	531.7975719153762384 3478.907746952955677 13793.88479795527383 
	531.7975719153762384 3499.311492643056681 13755.28150739742887 
	531.797571915376011 3510.573008807405131 13736.5916984227988 
	531.7975719153761247 3517.304432373562577 13726.09796095394267 
	531.797571915376011 3534.620041766313079 13700.18246531648401 
	531.7975719153744194 3557.354423014678105 13671.67496823288275 
	531.7975719153743057 3586.379733465248137 13641.9181990332745 
	531.7975719153740783 3610.756758252651252 13619.29880147335462 
	531.7975719153732825 3643.286775900052817 13593.35765621700011 
	531.7975719153716909 3692.217557991165449 13561.75276959047005 
	531.7975719153699856 3741.026182769920979 13538.24848135637876 
	531.7975719153689624 3788.127950407634216 13521.76850886662942 
	531.7975719153678256 3830.303608845542385 13510.46670980772069 
	531.7975719153653245 3879.543032788968048 13502.10052937549699 
	531.797571915362596 3935.64282437379461 13498.95006198745796 
	531.7975719153594127 3991.742627398013155 13502.10050773524927 
	531.7975719153561158 4040.982035491198985 13510.46671963204608 
	531.79757191535316 4083.157724519548083 13521.76843376078432 
	531.7975719153527052 4130.259398088908711 13538.24866183565064 
	531.7975719153456566 4175.313627045884459 13559.94462436883259 
	531.7975719153417913 4212.284050043761454 13583.176652842365 
	531.7975719153391765 4232.622271780661322 13597.60713907791796 
	531.7975719153387217 4257.35281630805548 13616.5833991830641 
	531.7975719153243972 4289.939180105297055 13645.70354457734538 
	531.7975719153015461 4327.379759545904562 13687.60018451718861 
	531.7975719152794909 4359.89435975042943 13733.42499699753535 
	531.7975719152532292 4387.073533529376618 13782.60234542420039 
	531.7975719152289003 4408.575963749024595 13834.51347252168853 
	531.7975719151980911 4421.538079520003521 13879.50708313007999 
	531.7975719151882004 4428.836956551473122 13916.20288936898214 
	531.7975719151791054 4432.759728945079587 13943.98830997250116 
	531.7975719151692147 4434.725105985980008 13967.28972550839535 
	531.7975719151661451 4435.413407794555496 13983.63931352850705 
	531.7975719151652356 4435.585511171768303 13991.81893587130435 
	531.7975719151650082 4435.628538556877174 13995.90935014543356 
	531.7975719151650082 4435.64083214479615 13998.24681597952804 
	531.7975719151650082 4435.642881230975945 13999.41556324061276 
	531.7975719151650082 4435.642881206353195 13999.9999368801964 
	615.1309052484983795 4435.642881206352286 13999.9999368801964 
	615.1309052484982658 4435.642881009374833 14004.67492599687102 
	615.1309052485016764 4435.511735948343812 14014.02490538769962 
	615.1309052485044049 4434.725100319958983 14032.71014793571885 
	615.1309052485148641 4432.759717012337205 14056.01156244529557 
	615.1309052485240727 4428.836932900640022 14083.79697730170483 
	615.1309052485339635 4421.538052382909882 14120.49278729870093 
	615.1309052485676148 4408.575873361000959 14165.48635062516041 
	615.1309052485897837 4387.073469101094815 14217.39753036566799 
	615.1309052486172959 4366.688953308898817 14254.28040541457267 
	615.1309052486207065 4351.432169778169737 14277.82153254096374 
	615.1309052486217297 4343.476809545213655 14289.37361363361924 
	615.1309052486232076 4335.200482350946913 14300.69796188520922 
	615.1309052486253677 4318.019384340691431 14322.87369710790699 
	615.1309052486429891 4289.938960996348214 14354.29615353298686 
	615.1309052486561768 4249.594070180494782 14390.34989041967128 
	615.1309052486690234 4203.987963146991206 14423.13893972443475 
	615.1309052486790279 4167.673321068398764 14443.50612718773482 
	615.1309052486792552 4137.541042395470868 14457.55623396688134 
	615.130905248683689 4103.067715389012847 14472.08968460703727 
	615.1309052486901692 4059.265201618481115 14485.60037533082686 
	615.130905248693125 4010.233314277640147 14494.87632665632191 
	615.1309052486974451 3982.34037875964259 14498.01952308983709 
	615.1309052486978999 3963.679623445138077 14499.24251732826269 
	615.1309052486981273 3951.226067155789224 14499.82515927543864 
	615.130905248698582 3929.409446366940756 14500.23323378917485 
	615.1309052487001736 3898.242856979768021 14499.06711489766167 
	615.1309052487015379 3861.05209751175471 14494.8766931272512 
	615.1309052487031295 3824.278482414374139 14487.9187605425268 
	615.1309052487042663 3788.12765913522253 14478.23217095907967 
	615.130905248705858 3752.80180159956717 14465.87111979896144 
	615.1309052487067675 3718.498461141718508 14450.90472789436535 
	615.1309052487077906 3685.409485611673972 14433.41668852582916 
	615.1309052487088138 3653.719902138640919 14413.50481994397342 
	615.1309052487089275 3628.625768654603689 14394.9845409126192 
	615.1309052487092686 3609.422940116017799 14379.07425176960896 
	615.1309052487092686 3595.476997535593455 14366.6114511636697 
	615.1309052487094959 3582.006860214796234 14353.63585421224525 
	615.1309052487094959 3564.706033687778472 14335.67569384032504 
	615.1309052487100644 3544.362216422469828 14312.03578758854565 
	615.1309052487104054 3522.137787381620456 14281.92286400452213 
	615.1309052487106328 3502.226045284300199 14250.2332286402052 
	615.1309052487108602 3482.794644846026586 14213.46780653538372 
	615.1309052487109739 3465.016798513520826 14171.29380265058535 
	615.1309052487108602 3450.300262626126369 14123.58331913378424 
	615.1309052487107465 3442.880401585523487 14086.87935681142881 
	615.1309052487106328 3439.471796299140806 14062.17821257835931 
	615.1309052487107465 3437.610517819936376 14045.65926936376309 
	615.1309052487105191 3436.05729057085091 14024.93319054948734 
	615.1309052487106328 3435.435537176414982 13999.9999237558095 
	615.1309052487105191 3436.05720692963223 13975.06662977810629 
	615.1309052487104054 3437.921354668340882 13950.19538412074508 
	615.1309052487105191 3443.088998161709696 13908.9494518637257 
	615.1309052487102917 3456.070195816974319 13852.07133385401903 
	615.1309052487097233 3478.907746952955222 13793.88479795527383 
	615.1309052487096096 3499.311492643056226 13755.28150739742887 
	615.1309052487093822 3510.573008807404676 13736.5916984227988 
	615.1309052487094959 3517.304432373562122 13726.09796095394267 
	615.1309052487093822 3534.620041766312625 13700.18246531648401 
	615.1309052487077906 3557.35442301467765 13671.67496823288275 
	615.1309052487076769 3586.379733465247682 13641.9181990332745 
	615.1309052487074496 3610.756758252650798 13619.29880147335462 
	615.1309052487065401 3643.286775900052362 13593.35765621700011 
	615.1309052487050621 3692.217557991164995 13561.75276959047005 
	615.1309052487033568 3741.026182769920524 13538.24848135637876 
	615.13090524870222 3788.127950407633762 13521.76850886662942 
	615.1309052487011968 3830.30360884554193 13510.46670980772069 
	615.1309052486986957 3879.543032788967594 13502.10052937549699 
	615.1309052486958535 3935.642824373794156 13498.95006198745796 
	615.1309052486928977 3991.742627398012701 13502.10050773524927 
	615.1309052486893734 4040.982035491198531 13510.46671963204608 
	615.1309052486865312 4083.157724519547628 13521.76843376078432 
	615.1309052486859628 4130.259398088907801 13538.24866183565064 
	615.1309052486790279 4175.31362704588355 13559.94462436883259 
	615.1309052486751625 4212.284050043760544 13583.176652842365 
	615.130905248672434 4232.622271780660412 13597.60713907791796 
	615.1309052486722067 4257.352816308054571 13616.5833991830641 
	615.1309052486576547 4289.939180105296145 13645.70354457734538 
	615.1309052486350311 4327.379759545903653 13687.60018451718861 
	615.1309052486128621 4359.894359750428521 13733.42499699753535 
	615.1309052485867142 4387.073533529375709 13782.60234542420039 
	615.1309052485621578 4408.575963749023686 13834.51347252168853 
	615.1309052485314623 4421.538079520002611 13879.50708313007999 
	615.1309052485214579 4428.836956551472213 13916.20288936898214 
	615.1309052485125903 4432.759728945078677 13943.98830997250116 
	615.1309052485025859 4434.725105985979098 13967.28972550839535 
	615.1309052484995163 4435.413407794554587 13983.63931352850705 
	615.1309052484987205 4435.585511171767394 13991.81893587130435 
	615.1309052484982658 4435.628538556876265 13995.90935014543356 
	615.1309052484983795 4435.64083214479524 13998.24681597952804 
	615.1309052484983795 4435.642881230975036 13999.41556324061276 
	615.1309052484983795 4435.642881206352286 13999.9999368801964 
	698.4642385817264767 4435.642881206353195 13999.9999368801964 
	698.4642385817267041 4435.642881009376651 14004.67492599687102 
	698.4642385817313652 4435.511735948344722 14014.02490538769962 
	698.4642385817351169 4434.725100319959893 14032.71014793571885 
	698.4642385817505783 4432.759717012338115 14056.01156244529557 
	698.464238581764107 4428.836932900640932 14083.79697730170483 
	698.4642385817783179 4421.538052382910791 14120.49278729870093 
	698.4642385818285675 4408.575873361001868 14165.48635062516041 
	698.4642385818606272 4387.073469101095725 14217.39753036566799 
	698.4642385819021229 4366.688953308899727 14254.28040541457267 
	698.4642385819062156 4351.432169778170646 14277.82153254096374 
	698.4642385819083756 4343.476809545214564 14289.37361363361924 
	698.4642385819100809 4335.200482350947823 14300.69796188520922 
	698.4642385819134915 4318.019384340692341 14322.87369710790699 
	698.4642385819388437 4289.938960996349124 14354.29615353298686 
	698.4642385819586252 4249.594070180494782 14390.34989041967128 
	698.4642385819776109 4203.987963146991206 14423.13893972443475 
	698.4642385819921628 4167.673321068398764 14443.50612718773482 
	698.4642385819930723 4137.541042395470868 14457.55623396688134 
	698.4642385819984156 4103.067715389012847 14472.08968460703727 
	698.4642385820097843 4059.26520161848066 14485.60037533082686 
	698.4642385820122854 4010.233314277640602 14494.87632665632191 
	698.4642385820200161 3982.34037875964259 14498.01952308983709 
	698.4642385820204709 3963.679623445138077 14499.24251732826269 
	698.4642385820208119 3951.226067155789224 14499.82515927543864 
	698.464238582021494 3929.409446366940756 14500.23323378917485 
	698.4642385820241088 3898.242856979767566 14499.06711489766167 
	698.4642385820261552 3861.05209751175471 14494.8766931272512 
	698.4642385820286563 3824.278482414374139 14487.9187605425268 
	698.4642385820304753 3788.127659135222984 14478.23217095907967 
	698.4642385820325217 3752.801801599566716 14465.87111979896144 
	698.4642385820341133 3718.498461141718053 14450.90472789436535 
	698.4642385820357049 3685.409485611673517 14433.41668852582916 
	698.4642385820370691 3653.719902138640464 14413.50481994397342 
	698.4642385820379786 3628.625768654603235 14394.9845409126192 
	698.4642385820378649 3609.422940116017344 14379.07425176960896 
	698.464238582038206 3595.476997535593 14366.6114511636697 
	698.4642385820384334 3582.006860214796234 14353.63585421224525 
	698.4642385820386608 3564.706033687778472 14335.67569384032504 
	698.4642385820393429 3544.362216422469373 14312.03578758854565 
	698.4642385820397976 3522.137787381620456 14281.92286400452213 
	698.4642385820401387 3502.226045284299744 14250.2332286402052 
	698.4642385820405934 3482.794644846026131 14213.46780653538372 
	698.4642385820407071 3465.016798513520371 14171.29380265058535 
	698.4642385820401387 3450.300262626125459 14123.58331913378424 
	698.4642385820404797 3442.880401585523032 14086.87935681142881 
	698.464238582040025 3439.471796299139896 14062.17821257835931 
	698.4642385820401387 3437.610517819935922 14045.65926936376309 
	698.4642385820399113 3436.057290570850455 14024.93319054948734 
	698.4642385820402524 3435.435537176414527 13999.9999237558095 
	698.4642385820397976 3436.057206929631775 13975.06662977810629 
	698.4642385820401387 3437.921354668340427 13950.19538412074508 
	698.4642385820395702 3443.088998161708332 13908.9494518637257 
	698.4642385820397976 3456.07019581697341 13852.07133385401903 
	698.4642385820384334 3478.907746952954767 13793.88479795527383 
	698.4642385820384334 3499.311492643055317 13755.28150739742887 
	698.4642385820380923 3510.573008807404221 13736.5916984227988 
	698.4642385820383197 3517.304432373561212 13726.09796095394267 
	698.4642385820380923 3534.62004176631217 13700.18246531648401 
	698.4642385820358186 3557.35442301467674 13671.67496823288275 
	698.4642385820354775 3586.379733465247227 13641.9181990332745 
	698.4642385820350228 3610.756758252650343 13619.29880147335462 
	698.4642385820339996 3643.286775900052362 13593.35765621700011 
	698.4642385820313848 3692.21755799116454 13561.75276959047005 
	698.46423858202877 3741.026182769920524 13538.24848135637876 
	698.4642385820272921 3788.127950407633307 13521.76850886662942 
	698.4642385820255868 3830.30360884554193 13510.46670980772069 
	698.4642385820219488 3879.543032788968048 13502.10052937549699 
	698.4642385820177424 3935.642824373792791 13498.95006198745796 
	698.4642385820128538 3991.742627398012246 13502.10050773524927 
	698.4642385820079653 4040.982035491197621 13510.46671963204608 
	698.4642385820034178 4083.157724519546719 13521.76843376078432 
	698.4642385820028494 4130.259398088906892 13538.24866183565064 
	698.4642385819922765 4175.31362704588264 13559.94462436883259 
	698.4642385819864785 4212.284050043759635 13583.176652842365 
	698.4642385819827268 4232.622271780658593 13597.60713907791796 
	698.464238581981931 4257.352816308053661 13616.5833991830641 
	698.4642385819611263 4289.939180105296145 13645.70354457734538 
	698.4642385819273613 4327.379759545903653 13687.60018451718861 
	698.4642385818949606 4359.894359750428521 13733.42499699753535 
	698.4642385818563071 4387.073533529376618 13782.60234542420039 
	698.4642385818206094 4408.575963749023686 13834.51347252168853 
	698.464238581775021 4421.538079520002611 13879.50708313007999 
	698.4642385817605827 4428.836956551473122 13916.20288936898214 
	698.4642385817471677 4432.759728945078677 13943.98830997250116 
	698.4642385817328432 4434.725105985980008 13967.28972550839535 
	698.4642385817280683 4435.413407794555496 13983.63931352850705 
	698.4642385817267041 4435.585511171768303 13991.81893587130435 
	698.4642385817264767 4435.628538556876265 13995.90935014543356 
	698.4642385817264767 4435.64083214479615 13998.24681597952804 
	698.464238581726363 4435.642881230975945 13999.41556324061276 
	698.4642385817264767 4435.642881206353195 13999.9999368801964 
	781.7975719150598479 4435.642881206353195 13999.9999368801964 
	781.7975719150599616 4435.642881009376651 14004.67492599687102 
	781.7975719150647365 4435.511735948344722 14014.02490538769962 
	781.7975719150684881 4434.725100319959893 14032.71014793571885 
	781.7975719150839495 4432.759717012338115 14056.01156244529557 
	781.7975719150974783 4428.836932900640932 14083.79697730170483 
	781.7975719151118028 4421.538052382910791 14120.49278729870093 
	781.797571915161825 4408.575873361001868 14165.48635062516041 
	781.7975719151941121 4387.073469101095725 14217.39753036566799 
	781.7975719152352667 4366.688953308899727 14254.28040541457267 
	781.7975719152397005 4351.432169778170646 14277.82153254096374 
	781.7975719152416332 4343.476809545214564 14289.37361363361924 
	781.7975719152434522 4335.200482350947823 14300.69796188520922 
	781.7975719152467491 4318.019384340692341 14322.87369710790699 
	781.7975719152723286 4289.938960996349124 14354.29615353298686 
	781.7975719152919964 4249.594070180494782 14390.34989041967128 
	781.7975719153109821 4203.987963146991206 14423.13893972443475 
	781.7975719153256478 4167.673321068398764 14443.50612718773482 
	781.7975719153263299 4137.541042395470868 14457.55623396688134 
	781.7975719153321279 4103.067715389012847 14472.08968460703727 
	781.7975719153428145 4059.265201618480205 14485.60037533082686 
	781.7975719153459977 4010.233314277640147 14494.87632665632191 
	781.7975719153532737 3982.340378759642135 14498.01952308983709 
	781.7975719153538421 3963.679623445137622 14499.24251732826269 
	781.7975719153541831 3951.226067155788769 14499.82515927543864 
	781.7975719153548653 3929.409446366940301 14500.23323378917485 
	781.7975719153574801 3898.242856979767112 14499.06711489766167 
	781.7975719153595264 3861.052097511754255 14494.8766931272512 
	781.7975719153620275 3824.278482414373684 14487.9187605425268 
	781.7975719153638465 3788.12765913522253 14478.23217095907967 
	781.7975719153660066 3752.801801599566261 14465.87111979896144 
	781.7975719153674845 3718.498461141717598 14450.90472789436535 
	781.7975719153690761 3685.409485611673063 14433.41668852582916 
	781.7975719153705541 3653.719902138640009 14413.50481994397342 
	781.7975719153712362 3628.62576865460278 14394.9845409126192 
	781.7975719153713499 3609.422940116016889 14379.07425176960896 
	781.7975719153715772 3595.476997535592545 14366.6114511636697 
	781.7975719153718046 3582.006860214795779 14353.63585421224525 
	781.797571915372032 3564.706033687778017 14335.67569384032504 
	781.7975719153727141 3544.362216422468919 14312.03578758854565 
	781.7975719153731688 3522.137787381620001 14281.92286400452213 
	781.7975719153735099 3502.226045284299289 14250.2332286402052 
	781.7975719153739647 3482.794644846025676 14213.46780653538372 
	781.7975719153740783 3465.016798513519916 14171.29380265058535 
	781.7975719153736236 3450.300262626125004 14123.58331913378424 
	781.7975719153737373 3442.880401585522577 14086.87935681142881 
	781.7975719153733962 3439.471796299139442 14062.17821257835931 
	781.7975719153735099 3437.610517819935467 14045.65926936376309 
	781.7975719153732825 3436.05729057085 14024.93319054948734 
	781.7975719153736236 3435.435537176414073 13999.9999237558095 
	781.7975719153732825 3436.05720692963132 13975.06662977810629 
	781.7975719153733962 3437.921354668339973 13950.19538412074508 
	781.7975719153730552 3443.088998161707877 13908.9494518637257 
	781.7975719153730552 3456.070195816972955 13852.07133385401903 
	781.7975719153719183 3478.907746952954312 13793.88479795527383 
	781.7975719153718046 3499.311492643054862 13755.28150739742887 
	781.7975719153714635 3510.573008807403767 13736.5916984227988 
	781.7975719153716909 3517.304432373560758 13726.09796095394267 
	781.7975719153714635 3534.620041766311715 13700.18246531648401 
	781.7975719153691898 3557.354423014676286 13671.67496823288275 
	781.7975719153688487 3586.379733465246773 13641.9181990332745 
	781.797571915368394 3610.756758252649888 13619.29880147335462 
	781.7975719153672571 3643.286775900051907 13593.35765621700011 
	781.797571915364756 3692.217557991164085 13561.75276959047005 
	781.7975719153621412 3741.026182769920069 13538.24848135637876 
	781.7975719153605496 3788.127950407632852 13521.76850886662942 
	781.797571915358958 3830.303608845541476 13510.46670980772069 
	781.79757191535532 3879.543032788967594 13502.10052937549699 
	781.7975719153511136 3935.642824373792337 13498.95006198745796 
	781.7975719153463388 3991.742627398011791 13502.10050773524927 
	781.7975719153412228 4040.982035491197166 13510.46671963204608 
	781.7975719153369027 4083.157724519546264 13521.76843376078432 
	781.7975719153361069 4130.259398088906892 13538.24866183565064 
	781.7975719153256478 4175.31362704588264 13559.94462436883259 
	781.7975719153198497 4212.284050043759635 13583.176652842365 
	781.7975719153159844 4232.622271780658593 13597.60713907791796 
	781.7975719153154159 4257.352816308053661 13616.5833991830641 
	781.7975719152943839 4289.939180105296145 13645.70354457734538 
	781.7975719152608463 4327.379759545903653 13687.60018451718861 
	781.7975719152282181 4359.894359750428521 13733.42499699753535 
	781.7975719151896783 4387.073533529376618 13782.60234542420039 
	781.7975719151538669 4408.575963749023686 13834.51347252168853 
	781.7975719151083922 4421.538079520002611 13879.50708313007999 
	781.797571915093954 4428.836956551473122 13916.20288936898214 
	781.7975719150805389 4432.759728945078677 13943.98830997250116 
	781.7975719150661007 4434.725105985980008 13967.28972550839535 
	781.7975719150614395 4435.413407794555496 13983.63931352850705 
	781.797571915060189 4435.585511171768303 13991.81893587130435 
	781.7975719150598479 4435.628538556876265 13995.90935014543356 
	781.7975719150598479 4435.64083214479615 13998.24681597952804 
	781.7975719150597342 4435.642881230975945 13999.41556324061276 
	781.7975719150598479 4435.642881206353195 13999.9999368801964 
	0 
	
	0 
	0 
	89 0 0.004464285714285714038 0.008928571428571428076 0.01785714285714285615 0.02678571428571428423 0.0357142857142857123 0.05357142857142856845 0.07142857142857142461 0.08928571428571427382 0.09374999999999998612 0.09821428571428569843 0.1026785714285714246 0.1071428571428571369 0.125 0.1428571428571428492 0.1587301587301587213 0.1785714285714285476 0.1825396825396825295 0.1904761904761904656 0.2142857142857142738 0.226190476190476164 0.238095238095238082 0.2410714285714285476 0.2440476190476190133 0.2499999999999999722 0.2619047619047618625 0.2738095238095237804 0.2857142857142856984 0.2976190476190476164 0.3095238095238095344 0.3214285714285713969 0.3333333333333333148 0.3452380952380952328 0.3571428571428570953 0.3630952380952380265 0.3690476190476190133 0.375 0.3809523809523809312 0.3928571428571428492 0.4047619047619047672 0.4166666666666666297 0.4285714285714285476 0.4444444444444444198 0.4603174603174602919 0.476190476190476164 0.4801587301587301182 0.4841269841269840724 0.4920634920634920362 0.5 0.5079365079365079083 0.5158730158730158166 0.5238095238095237249 0.5476190476190475609 0.5714285714285713969 0.5833333333333332593 0.5892857142857141906 0.5922619047619046562 0.5952380952380951218 0.6190476190476189577 0.6269841269841269771 0.6349206349206348854 0.650793650793650702 0.6666666666666666297 0.6904761904761904656 0.7023809523809523281 0.7142857142857141906 0.7321428571428569843 0.749999999999999889 0.7678571428571427937 0.7857142857142855874 0.7976190476190474499 0.8095238095238094234 0.8333333333333332593 0.8452380952380951218 0.851190476190476053 0.8571428571428570953 0.875 0.8928571428571427937 0.9107142857142856984 0.9285714285714286031 0.9464285714285713969 0.9642857142857143016 0.9732142857142858094 0.9821428571428572063 0.9910714285714286031 0.9955357142857143016 0.9977678571428572063 0.9988839285714286031 0.9994419642857143016 
	0 
	0 
	0 
	F 1 F 0 F 1 F 0 } I I I I #
tcoedge-coedge $-1 -1 $-1 $14 $14 $18 $19 reversed $9 $20 -6.283185307179586232 -0 #
tcoedge-coedge $-1 -1 $-1 $21 $22 $11 $16 reversed $12 $23 -6.283185307179586232 -0 #
tedge-edge $-1 -1 $-1 $24 0 $24 6.283185307179586232 $15 $25 forward @7 unknown 0.0007424921080086834642 #
pcurve $-1 -1 $-1 0 forward { exppc nurbs 2 periodic 5 
	0 2 1.570796326794896558 2 3.141592653589793116 2 4.712388980384689674 2 6.283185307179586232 2 
	0 500 1 
	-500 500 0.707106781186543798 
	-500 0 1 
	-500 -500 0.7071067811865463515 
	0 -500 1 
	500 -500 0.7071067811865463515 
	500 0 1 
	500 500 0.707106781186543798 
	0 500 1 
	0 
	plane 781.797571915386925 3935.642797989815335 14000.00000000000182 1 -3.637978807091713027e-15 0 0 0 -1 forward_v I I I I 
	} 0 0 #
tcoedge-coedge $-1 -1 $-1 $22 $21 $14 $19 forward $12 $26 0 6.283185307179586232 #
tedge-edge $-1 -1 $-1 $27 0 $27 6.283185307179586232 $18 $28 forward @7 unknown 0.0007424921066383477616 #
pcurve $-1 -1 $-1 0 forward { exppc nurbs 2 periodic 5 
	-6.283185307179586232 2 -4.712388980384689674 2 -3.141592653589793116 2 -1.570796326794896558 2 0 2 
	0 500 1 
	500 500 0.707106781186543798 
	500 0 1 
	500 -500 0.7071067811865463515 
	0 -500 1 
	-500 -500 0.7071067811865463515 
	-500 0 1 
	-500 500 0.707106781186543798 
	0 500 1 
	0 
	plane 531.797571915386925 3935.642797989816245 14000.00000000000182 -1 3.637978807091713027e-15 -0 0 0 -1 reverse_v I I I I 
	} 0 0 #
coedge $-1 -1 $-1 $18 $15 $22 $29 reversed $12 $30 #
coedge $-1 -1 $-1 $15 $18 $21 $29 forward $12 $31 #
pcurve $-1 -1 $-1 0 forward { exppc nubs 1 periodic 2 
	-6.283185307179586232 1 -0 1 
	1 1 
	0 1 
	4.411402399551011005e-13 
	spline forward { ref 0 } I I I I 
	} 0 0 #
tvertex-vertex $-1 -1 $-1 $16 $32 0.0001044466567123921715 #
ellipse-curve $-1 -1 $-1 781.797571915386925 3935.642797989815335 14000.00000000000182 1 -3.637978807091713027e-15 0 1.818989403545856476e-12 500 0 1 I I #
pcurve $-1 -1 $-1 0 forward { exppc nubs 1 periodic 2 
	0 1 6.283185307179586232 1 
	0 0 
	1 0 
	4.411402399551011509e-13 
	spline forward { ref 0 } I I I I 
	} 0 0 #
tvertex-vertex $-1 -1 $-1 $19 $33 0.0001044466559874856272 #
ellipse-curve $-1 -1 $-1 531.797571915386925 3935.642797989816245 14000.00000000000182 1 -3.637978807091713027e-15 0 1.818989403545856476e-12 500 0 1 I I #
edge $-1 -1 $-1 $27 0 $24 1 $22 $34 forward @7 tangent #
pcurve $-1 -1 $-1 -1 $34 0 0 #
pcurve $-1 -1 $-1 1 $34 1 0 #
point $-1 -1 $-1 781.7975719153887439 4435.642797989815335 14000.00000000000182 #
point $-1 -1 $-1 531.7975719153887439 4435.642797989816245 14000.00000000000182 #
intcurve-curve $-1 -1 $-1 forward { parcur full nubs 3 open 2 
	0 3 1 3 
	531.7975719151650082 4435.642881206353195 13999.9999368801964 
	615.1309052484983795 4435.642881206352286 13999.9999368801964 
	698.4642385817264767 4435.642881206353195 13999.9999368801964 
	781.7975719150598479 4435.642881206353195 13999.9999368801964 
	0 
	
	spline forward { ref 0 } I I I I 
	null_surface 
	nubs 1 open 2 
	0 1 1 1 
	0 0 
	0 1 
	
	nullbs 
	I I 
	0 
	0 
	0 
	surf1 } F 0 F 1 #
End-of-ACIS-data 