700 0 1 0           
4 LibG 20 ASM 224.0.1.65535 NT 24 Wed Jul 17 14:48:15 2019 
1000 9.999999999999999547e-07 1.000000000000000036e-10 
body $-1 -1 $-1 $1 $-1 $2 #
lump $-1 -1 $-1 $-1 $3 $0 #
transform $-1 -1 1 0 0 0 1 0 0 0 1 0 0 0 1 no_rotate no_reflect no_shear #
shell $-1 -1 $-1 $-1 $-1 $4 $-1 $1 #
face $-1 -1 $-1 $5 $6 $3 $-1 $7 forward single #
face $-1 -1 $-1 $8 $9 $3 $-1 $10 reversed single #
loop $-1 -1 $-1 $-1 $11 $4 #
plane-surface $-1 -1 $-1 11281.79757191538738 3935.642797989777137 14000.00000000000182 1 -3.637978807091713027e-15 0 0 0 -1 forward_v I I I I #
face $-1 -1 $-1 $-1 $12 $3 $-1 $13 forward single #
loop $-1 -1 $-1 $-1 $14 $5 #
plane-surface $-1 -1 $-1 11031.79757191538738 3935.642797989778046 14000.00000000000182 1 -3.637978807091713027e-15 0 0 0 -1 forward_v I I I I #
tcoedge-coedge $-1 -1 $-1 $11 $11 $15 $16 forward $6 $17 0 6.283185307179586232 #
loop $-1 -1 $-1 $-1 $18 $8 #
spline-surface $-1 -1 $-1 forward { exactsur full nubs 3 3 periodic open none none 91 2 
	0 3 0.0005580357142857142547 1 0.001116071428571428509 1 0.002232142857142857019 1 0.004464285714285714038 1 
	0.008928571428571428076 1 0.01785714285714285615 1 0.0357142857142857123 1 0.05357142857142856845 1 0.07142857142857142461 1 
	0.08928571428571427382 1 0.1071428571428571369 1 0.1160714285714285754 1 0.125 1 0.1428571428571428492 1 
	0.1587301587301587213 1 0.1746031746031745935 1 0.1904761904761904656 1 0.2023809523809523836 1 0.2142857142857142738 1 
	0.226190476190476164 1 0.238095238095238082 1 0.2499999999999999722 1 0.2619047619047618625 1 0.2738095238095237804 1 
	0.2857142857142856984 1 0.2916666666666666297 1 0.2976190476190476164 1 0.3095238095238095344 1 0.3214285714285713969 1 
	0.3273809523809523281 1 0.3333333333333333148 1 0.3452380952380952328 1 0.351190476190476164 1 0.3571428571428570953 1 
	0.3690476190476190133 1 0.3809523809523809312 1 0.3928571428571428492 1 0.4047619047619047672 1 0.4285714285714285476 1 
	0.4305555555555555802 1 0.4325396825396825573 1 0.4365079365079365115 1 0.4444444444444444198 1 0.4603174603174602919 1 
	0.476190476190476164 1 0.4841269841269840724 1 0.4880952380952380265 1 0.4920634920634920362 1 0.5079365079365079083 1 
	0.5238095238095237249 1 0.5476190476190475609 1 0.5535714285714286031 1 0.5595238095238095344 1 0.5714285714285713969 1 
	0.5952380952380951218 1 0.6190476190476189577 1 0.6349206349206348854 1 0.650793650793650702 1 0.6666666666666666297 1 
	0.6904761904761904656 1 0.7023809523809523281 1 0.7142857142857141906 1 0.7321428571428569843 1 0.7410714285714283811 1 
	0.749999999999999889 1 0.7678571428571427937 1 0.7857142857142855874 1 0.7976190476190474499 1 0.8095238095238094234 1 
	0.8333333333333332593 1 0.8452380952380951218 1 0.851190476190476053 1 0.8571428571428570953 1 0.875 1 
	0.8928571428571427937 1 0.9107142857142856984 1 0.9285714285714286031 1 0.9464285714285713969 1 0.9642857142857143016 1 
	0.9821428571428572063 1 0.9866071428571429047 1 0.9910714285714286031 1 0.9955357142857143016 1 0.9977678571428572063 1 
	0.9988839285714286031 1 0.9994419642857143016 1 0.9997209821428572063 1 0.9998604910714286031 1 0.9999302455357143016 1 
	1 3 
	0 3 1 3 
	11031.79757229035931 4435.642894975305353 13999.99996380517769 
	11031.79757229036295 4435.642894975536365 14000.5843374386186 
	11031.79757229028655 4435.640845920353968 14001.75308468998992 
	11031.79757229021925 4435.628552545876119 14004.09055053577686 
	11031.79757228989183 4435.585523398267469 14008.18096454868464 
	11031.79757228881499 4435.41342908257684 14016.36058757004321 
	11031.79757228444396 4434.725074538256195 14032.7101685843445 
	11031.7975722705778 4431.973826193318928 14065.33217489258277 
	11031.79757222559965 4424.130806890627355 14111.49412675727581 
	11031.79757218921077 4408.575820867794391 14165.48637458121266 
	11031.79757214925849 4387.073540115512515 14217.39749771260358 
	11031.79757211867945 4359.894289391883831 14266.5748065170792 
	11031.79757208686169 4332.798735415445663 14304.76211525248254 
	11031.79757207836337 4308.659502240368965 14333.34798054509156 
	11031.79757207003058 4282.956130517632118 14360.5360633443488 
	11031.79757204651105 4249.594286848348929 14390.35001906939215 
	11031.79757202649671 4207.366134297853932 14420.70980842829886 
	11031.79757201593202 4164.126665236562985 14445.67399683670737 
	11031.79757200789936 4122.409022949193059 14464.49780374006878 
	11031.79757199778032 4083.157977995379952 14478.23203432209448 
	11031.79757198948209 4047.007215591134354 14487.91873155844769 
	11031.79757198572588 4010.233584328502275 14494.87657547413073 
	11031.79757197916842 3973.042852090436099 14499.06698100306312 
	11031.79757197311301 3935.642950302039935 14500.46637277230911 
	11031.79757196715582 3898.243059241316132 14499.0669531884505 
	11031.79757196212449 3861.052312729902496 14494.87657071006288 
	11031.79757195688398 3830.407661566284332 14489.07823678036948 
	11031.79757195543789 3806.203303834745839 14483.0753567060874 
	11031.79757195393358 3782.24027998428619 14476.17181313388392 
	11031.7975719497299 3752.802067556201564 14465.87097916595667 
	11031.79757194576632 3724.215994362611582 14453.39892602936743 
	11031.7975719444712 3701.954264714543569 14442.16056451574332 
	11031.79757194322883 3680.12820687565636 14430.09786213403459 
	11031.79757194173544 3659.001840035315581 14416.82327448265278 
	11031.7975719410515 3638.663761872611758 14402.39247475159027 
	11031.79757193998921 3618.879313412618558 14387.21151370267944 
	11031.79757193871774 3595.239455574163458 14366.86768351950741 
	11031.7975719373153 3568.775084725365105 14340.40352022635489 
	11031.79757193612568 3544.362897409345351 14312.03539257223565 
	11031.79757193438309 3514.729364951829666 14271.88541279425408 
	11031.79757193262958 3494.934273574256622 14237.6017468973514 
	11031.79757193224395 3482.476854478859423 14211.31473596005526 
	11031.79757193224395 3479.011344591651323 14203.76045765588788 
	11031.79757193216574 3473.194754206635025 14190.42853907192875 
	11031.79757193197838 3462.563881183582907 14163.34218608904666 
	11031.7975719316255 3450.299906236793504 14123.58351720491919 
	11031.79757193135993 3442.055860728636162 14082.80126500772712 
	11031.7975719312999 3438.437910122989706 14053.92918410901439 
	11031.79757193129808 3436.989107995319955 14037.36897142487942 
	11031.79757193132355 3435.43562453460072 14012.48216861259243 
	11031.79757193156729 3435.436045136573284 13975.03584254089583 
	11031.7975719322294 3441.234509583164254 13917.07489659704879 
	11031.79757193350451 3451.89785969757304 13870.35387239807278 
	11031.79757193372279 3463.590835180795239 13834.82187520348089 
	11031.79757193389742 3472.265816656591142 13811.4417781157008 
	11031.79757193468868 3489.725777510169337 13771.42081217696978 
	11031.79757193759542 3520.97850933691052 13717.28667229966595 
	11031.79757194082049 3562.550904211483612 13665.15903873118259 
	11031.79757194325066 3604.250688195860675 13624.48705113939468 
	11031.79757194473859 3643.286533351370508 13593.35747417566017 
	11031.79757194681224 3692.217536125907372 13561.75293725546726 
	11031.79757195111051 3741.026087544849361 13538.24846822437758 
	11031.79757195323691 3788.127898890536926 13521.76857775461394 
	11031.7975719555925 3830.303544893462458 13510.46667709252142 
	11031.79757196072387 3870.310617225602982 13503.66936589251054 
	11031.79757196250102 3907.592879121296392 13500.52510091229124 
	11031.79757196465107 3944.992785489329435 13499.4752990681809 
	11031.79757197155777 3991.742605128325522 13502.10045605828054 
	11031.79757197891377 4040.982047917564159 13510.46673298959831 
	11031.79757198381958 4083.157722438147175 13521.76845528502781 
	11031.79757198602783 4130.25936352403096 13538.2487217685939 
	11031.79757199898813 4175.313635735745265 13559.94461452449104 
	11031.79757200561107 4212.284054470244882 13583.17665473156376 
	11031.79757201015673 4232.622283965558381 13597.60712947910906 
	11031.79757201103348 4257.352827954517124 13616.58339174398679 
	11031.79757204457019 4289.938987622280365 13645.70377608680428 
	11031.79757207221519 4327.37972024228111 13687.60024589176828 
	11031.79757210990465 4359.89424916351345 13733.42510666261114 
	11031.79757214492201 4387.073536307992072 13782.60239701745741 
	11031.79757218899431 4408.575800531608365 13834.51354213934428 
	11031.79757222554872 4424.130747521483499 13888.50579892117457 
	11031.79757227477603 4431.189518911784035 13930.05155448251753 
	11031.79757228156814 4433.938951005520721 13957.96919353977864 
	11031.7975722847641 4434.921789018703748 13971.96106113002133 
	11031.79757228870221 4435.413417914132879 13983.63934166580293 
	11031.79757228987 4435.585525601244626 13991.81896270855759 
	11031.79757229023562 4435.628552205101187 13995.90937712368941 
	11031.79757229031929 4435.639309332869743 13997.95465967582641 
	11031.7975722903484 4435.64199855244533 13998.97731039597056 
	11031.79757229035204 4435.642670871277005 13999.48863693180647 
	11031.79757229035749 4435.642862958724436 13999.78082369239564 
	11031.79757229035749 4435.642894975277159 13999.92691710099825 
	11031.79757229035931 4435.642894975305353 13999.99996380517769 
	11115.13090562369325 4435.642894975304444 13999.99996380517769 
	11115.13090562369689 4435.642894975535455 14000.5843374386186 
	11115.13090562362049 4435.640845920353058 14001.75308468998992 
	11115.13090562355319 4435.628552545875209 14004.09055053577686 
	11115.13090562322577 4435.58552339826656 14008.18096454868464 
	11115.13090562214893 4435.413429082575931 14016.36058757004321 
	11115.1309056177779 4434.725074538255285 14032.7101685843445 
	11115.13090560391174 4431.973826193318018 14065.33217489258277 
	11115.13090555893359 4424.130806890626445 14111.49412675727581 
	11115.13090552254471 4408.575820867793482 14165.48637458121266 
	11115.13090548259242 4387.073540115511605 14217.39749771260358 
	11115.13090545201339 4359.894289391882921 14266.5748065170792 
	11115.13090542019563 4332.798735415444753 14304.76211525248254 
	11115.13090541169731 4308.659502240368056 14333.34798054509156 
	11115.13090540336452 4282.956130517631209 14360.5360633443488 
	11115.13090537984499 4249.59428684834802 14390.35001906939215 
	11115.13090535983065 4207.366134297853023 14420.70980842829886 
	11115.13090534926596 4164.126665236562076 14445.67399683670737 
	11115.1309053412333 4122.409022949192149 14464.49780374006878 
	11115.13090533111426 4083.157977995379497 14478.23203432209448 
	11115.13090532281603 4047.0072155911339 14487.91873155844769 
	11115.13090531905982 4010.23358432850182 14494.87657547413073 
	11115.13090531250236 3973.042852090435645 14499.06698100306312 
	11115.13090530644695 3935.64295030203948 14500.46637277230911 
	11115.13090530048976 3898.243059241315677 14499.0669531884505 
	11115.13090529545843 3861.052312729902042 14494.87657071006288 
	11115.13090529021792 3830.407661566283878 14489.07823678036948 
	11115.13090528877183 3806.203303834745384 14483.0753567060874 
	11115.13090528726752 3782.240279984285735 14476.17181313388392 
	11115.13090528306384 3752.802067556201109 14465.87097916595667 
	11115.13090527910026 3724.215994362611127 14453.39892602936743 
	11115.13090527780514 3701.954264714543115 14442.16056451574332 
	11115.13090527656277 3680.128206875655906 14430.09786213403459 
	11115.13090527506938 3659.001840035315126 14416.82327448265278 
	11115.13090527438544 3638.663761872611303 14402.39247475159027 
	11115.13090527332315 3618.879313412618103 14387.21151370267944 
	11115.13090527205168 3595.239455574163003 14366.86768351950741 
	11115.13090527064924 3568.77508472536465 14340.40352022635489 
	11115.13090526945962 3544.362897409344896 14312.03539257223565 
	11115.13090526771703 3514.729364951829211 14271.88541279425408 
	11115.13090526596352 3494.934273574256167 14237.6017468973514 
	11115.13090526557789 3482.476854478858968 14211.31473596005526 
	11115.13090526557789 3479.011344591650868 14203.76045765588788 
	11115.13090526549968 3473.19475420663457 14190.42853907192875 
	11115.13090526531232 3462.563881183582453 14163.34218608904666 
	11115.13090526495944 3450.299906236793049 14123.58351720491919 
	11115.13090526469387 3442.055860728635707 14082.80126500772712 
	11115.13090526463384 3438.437910122989251 14053.92918410901439 
	11115.13090526463202 3436.9891079953195 14037.36897142487942 
	11115.13090526465749 3435.435624534600265 14012.48216861259243 
	11115.13090526490123 3435.43604513657283 13975.03584254089583 
	11115.13090526556334 3441.234509583163799 13917.07489659704879 
	11115.13090526683845 3451.897859697572585 13870.35387239807278 
	11115.13090526705673 3463.590835180794784 13834.82187520348089 
	11115.13090526723136 3472.265816656590687 13811.4417781157008 
	11115.13090526802262 3489.725777510168882 13771.42081217696978 
	11115.13090527092936 3520.978509336910065 13717.28667229966595 
	11115.13090527415443 3562.550904211483157 13665.15903873118259 
	11115.1309052765846 3604.250688195860221 13624.48705113939468 
	11115.13090527807253 3643.286533351370053 13593.35747417566017 
	11115.13090528014618 3692.217536125906918 13561.75293725546726 
	11115.13090528444445 3741.026087544848906 13538.24846822437758 
	11115.13090528657085 3788.127898890536471 13521.76857775461394 
	11115.13090528892644 3830.303544893462004 13510.46667709252142 
	11115.13090529405781 3870.310617225602527 13503.66936589251054 
	11115.13090529583496 3907.592879121295937 13500.52510091229124 
	11115.13090529798501 3944.99278548932898 13499.4752990681809 
	11115.13090530489171 3991.742605128325067 13502.10045605828054 
	11115.13090531224771 4040.982047917563705 13510.46673298959831 
	11115.13090531715352 4083.15772243814672 13521.76845528502781 
	11115.13090531936177 4130.25936352403005 13538.2487217685939 
	11115.13090533232207 4175.313635735744356 13559.94461452449104 
	11115.13090533894501 4212.284054470243973 13583.17665473156376 
	11115.13090534349067 4232.622283965557472 13597.60712947910906 
	11115.13090534436742 4257.352827954516215 13616.58339174398679 
	11115.13090537790413 4289.938987622279456 13645.70377608680428 
	11115.13090540554913 4327.3797202422802 13687.60024589176828 
	11115.13090544323859 4359.894249163512541 13733.42510666261114 
	11115.13090547825595 4387.073536307991162 13782.60239701745741 
	11115.13090552232825 4408.575800531607456 13834.51354213934428 
	11115.13090555888266 4424.13074752148259 13888.50579892117457 
	11115.13090560810997 4431.189518911783125 13930.05155448251753 
	11115.13090561490208 4433.938951005519812 13957.96919353977864 
	11115.13090561809804 4434.921789018702839 13971.96106113002133 
	11115.13090562203615 4435.413417914131969 13983.63934166580293 
	11115.13090562320394 4435.585525601243717 13991.81896270855759 
	11115.13090562356956 4435.628552205100277 13995.90937712368941 
	11115.13090562365323 4435.639309332868834 13997.95465967582641 
	11115.13090562368234 4435.64199855244442 13998.97731039597056 
	11115.13090562368598 4435.642670871276096 13999.48863693180647 
	11115.13090562369143 4435.642862958723526 13999.78082369239564 
	11115.13090562369143 4435.642894975276249 13999.92691710099825 
	11115.13090562369325 4435.642894975304444 13999.99996380517769 
	11198.46423896551823 4435.642894975305353 13999.99996380517769 
	11198.46423896552005 4435.642894975536365 14000.5843374386186 
	11198.46423896544002 4435.640845920353058 14001.75308468998992 
	11198.46423896537272 4435.628552545876119 14004.09055053577686 
	11198.46423896503802 4435.585523398267469 14008.18096454868464 
	11198.46423896393389 4435.41342908257684 14016.36058757004321 
	11198.46423895946464 4434.725074538256195 14032.7101685843445 
	11198.46423894528743 4431.973826193318928 14065.33217489258277 
	11198.46423889928883 4424.130806890627355 14111.49412675727581 
	11198.46423886207413 4408.575820867794391 14165.48637458121266 
	11198.4642388212178 4387.073540115511605 14217.39749771260358 
	11198.46423878994574 4359.894289391882921 14266.5748065170792 
	11198.46423875740948 4332.798735415443844 14304.76211525248254 
	11198.46423874871653 4308.659502240368056 14333.34798054509156 
	11198.4642387401982 4282.956130517631209 14360.5360633443488 
	11198.4642387161457 4249.59428684834802 14390.35001906939215 
	11198.46423869567843 4207.366134297853023 14420.70980842829886 
	11198.46423868487545 4164.126665236561166 14445.67399683670737 
	11198.46423867665908 4122.409022949192149 14464.49780374006878 
	11198.46423866631267 4083.157977995379497 14478.23203432209448 
	11198.46423865782708 4047.00721559113299 14487.91873155844769 
	11198.46423865398538 4010.233584328500456 14494.87657547413073 
	11198.46423864727876 3973.042852090434735 14499.06698100306312 
	11198.46423864108692 3935.642950302039026 14500.46637277230911 
	11198.46423863499513 3898.243059241315677 14499.0669531884505 
	11198.46423862984921 3861.052312729902042 14494.87657071006288 
	11198.46423862449046 3830.407661566283423 14489.07823678036948 
	11198.46423862301162 3806.203303834744929 14483.0753567060874 
	11198.46423862147458 3782.24027998428528 14476.17181313388392 
	11198.46423861717449 3752.8020675562002 14465.87097916595667 
	11198.46423861311996 3724.215994362610672 14453.39892602936743 
	11198.46423861179574 3701.954264714542205 14442.16056451574332 
	11198.46423861052426 3680.128206875654996 14430.09786213403459 
	11198.46423860899813 3659.001840035314672 14416.82327448265278 
	11198.46423860829782 3638.663761872611303 14402.39247475159027 
	11198.46423860721006 3618.879313412617194 14387.21151370267944 
	11198.46423860591131 3595.239455574163003 14366.86768351950741 
	11198.46423860447612 3568.77508472536465 14340.40352022635489 
	11198.46423860326104 3544.362897409344896 14312.03539257223565 
	11198.46423860147661 3514.729364951828757 14271.88541279425408 
	11198.4642385996849 3494.934273574255712 14237.6017468973514 
	11198.46423859928836 3482.476854478858058 14211.31473596005526 
	11198.46423859928836 3479.011344591650413 14203.76045765588788 
	11198.46423859921015 3473.194754206634116 14190.42853907192875 
	11198.46423859901915 3462.563881183581998 14163.34218608904666 
	11198.46423859865899 3450.29990623679214 14123.58351720491919 
	11198.46423859838615 3442.055860728634798 14082.80126500772712 
	11198.4642385983243 3438.437910122988342 14053.92918410901439 
	11198.4642385983243 3436.989107995318591 14037.36897142487942 
	11198.46423859834977 3435.43562453459981 14012.48216861259243 
	11198.46423859859715 3435.43604513657283 13975.03584254089583 
	11198.46423859927745 3441.234509583163344 13917.07489659704879 
	11198.46423860057985 3451.897859697572585 13870.35387239807278 
	11198.46423860080176 3463.590835180794784 13834.82187520348089 
	11198.46423860098184 3472.265816656591142 13811.4417781157008 
	11198.46423860179129 3489.725777510169792 13771.42081217696978 
	11198.46423860476352 3520.978509336910975 13717.28667229966595 
	11198.46423860805953 3562.550904211484067 13665.15903873118259 
	11198.46423861054609 3604.25068819586113 13624.48705113939468 
	11198.46423861206858 3643.286533351370508 13593.35747417566017 
	11198.46423861418771 3692.217536125907372 13561.75293725546726 
	11198.46423861858239 3741.026087544849361 13538.24846822437758 
	11198.46423862075608 3788.127898890537381 13521.76857775461394 
	11198.46423862316624 3830.303544893462913 13510.46667709252142 
	11198.46423862841402 3870.310617225603437 13503.66936589251054 
	11198.46423863023301 3907.592879121296846 13500.52510091229124 
	11198.46423863243217 3944.99278548932989 13499.4752990681809 
	11198.46423863949531 3991.742605128325522 13502.10045605828054 
	11198.46423864701865 4040.982047917564614 13510.46673298959831 
	11198.4642386520336 4083.15772243814763 13521.76845528502781 
	11198.46423865429279 4130.25936352403096 13538.2487217685939 
	11198.46423866754958 4175.313635735745265 13559.94461452449104 
	11198.46423867431986 4212.284054470244882 13583.17665473156376 
	11198.4642386789692 4232.622283965558381 13597.60712947910906 
	11198.46423867986596 4257.352827954516215 13616.58339174398679 
	11198.464238714163 4289.938987622279456 13645.70377608680428 
	11198.46423874243555 4327.3797202422802 13687.60024589176828 
	11198.4642387809763 4359.894249163511631 13733.42510666261114 
	11198.46423881678675 4387.073536307990253 13782.60239701745741 
	11198.46423886185767 4408.575800531607456 13834.51354213934428 
	11198.4642388992379 4424.13074752148259 13888.50579892117457 
	11198.46423894958025 4431.189518911782216 13930.05155448251753 
	11198.46423895652515 4433.938951005519812 13957.96919353977864 
	11198.46423895979569 4434.921789018702839 13971.96106113002133 
	11198.46423896382112 4435.413417914132879 13983.63934166580293 
	11198.46423896501801 4435.585525601243717 13991.81896270855759 
	11198.4642389653909 4435.628552205100277 13995.90937712368941 
	11198.46423896548004 4435.639309332868834 13997.95465967582641 
	11198.46423896550732 4435.64199855244442 13998.97731039597056 
	11198.46423896551096 4435.642670871276096 13999.48863693180647 
	11198.46423896551642 4435.642862958724436 13999.78082369239564 
	11198.46423896551823 4435.642894975277159 13999.92691710099825 
	11198.46423896551823 4435.642894975305353 13999.99996380517769 
	11281.79757229885217 4435.642894975305353 13999.99996380517769 
	11281.79757229885399 4435.642894975536365 14000.5843374386186 
	11281.79757229877396 4435.640845920353058 14001.75308468998992 
	11281.79757229870665 4435.628552545876119 14004.09055053577686 
	11281.79757229837196 4435.585523398267469 14008.18096454868464 
	11281.79757229726783 4435.41342908257684 14016.36058757004321 
	11281.79757229279858 4434.725074538256195 14032.7101685843445 
	11281.79757227862137 4431.973826193318928 14065.33217489258277 
	11281.79757223262277 4424.130806890627355 14111.49412675727581 
	11281.79757219540807 4408.575820867794391 14165.48637458121266 
	11281.79757215455174 4387.073540115511605 14217.39749771260358 
	11281.79757212327968 4359.894289391882921 14266.5748065170792 
	11281.79757209074342 4332.798735415443844 14304.76211525248254 
	11281.79757208205046 4308.659502240368056 14333.34798054509156 
	11281.79757207353214 4282.956130517631209 14360.5360633443488 
	11281.79757204947964 4249.59428684834802 14390.35001906939215 
	11281.79757202901237 4207.366134297853023 14420.70980842829886 
	11281.79757201820939 4164.126665236561166 14445.67399683670737 
	11281.79757200999302 4122.409022949192149 14464.49780374006878 
	11281.79757199964661 4083.157977995379042 14478.23203432209448 
	11281.79757199116102 4047.007215591132535 14487.91873155844769 
	11281.79757198731932 4010.233584328500001 14494.87657547413073 
	11281.7975719806127 3973.04285209043428 14499.06698100306312 
	11281.79757197442086 3935.642950302038571 14500.46637277230911 
	11281.79757196832907 3898.243059241315223 14499.0669531884505 
	11281.79757196318315 3861.052312729901587 14494.87657071006288 
	11281.7975719578244 3830.407661566282968 14489.07823678036948 
	11281.79757195634556 3806.203303834744474 14483.0753567060874 
	11281.79757195480852 3782.240279984284825 14476.17181313388392 
	11281.79757195050843 3752.802067556199745 14465.87097916595667 
	11281.7975719464539 3724.215994362610218 14453.39892602936743 
	11281.79757194512968 3701.95426471454175 14442.16056451574332 
	11281.7975719438582 3680.128206875654541 14430.09786213403459 
	11281.79757194233207 3659.001840035314217 14416.82327448265278 
	11281.79757194163176 3638.663761872610849 14402.39247475159027 
	11281.797571940544 3618.879313412616739 14387.21151370267944 
	11281.79757193924524 3595.239455574162548 14366.86768351950741 
	11281.79757193781006 3568.775084725364195 14340.40352022635489 
	11281.79757193659498 3544.362897409344441 14312.03539257223565 
	11281.79757193481055 3514.729364951828302 14271.88541279425408 
	11281.79757193301884 3494.934273574255258 14237.6017468973514 
	11281.7975719326223 3482.476854478857604 14211.31473596005526 
	11281.7975719326223 3479.011344591649959 14203.76045765588788 
	11281.79757193254409 3473.194754206633661 14190.42853907192875 
	11281.79757193235309 3462.563881183581543 14163.34218608904666 
	11281.79757193199293 3450.299906236791685 14123.58351720491919 
	11281.79757193172009 3442.055860728634343 14082.80126500772712 
	11281.79757193165824 3438.437910122987887 14053.92918410901439 
	11281.79757193165824 3436.989107995318136 14037.36897142487942 
	11281.79757193168371 3435.435624534599356 14012.48216861259243 
	11281.79757193193109 3435.436045136572375 13975.03584254089583 
	11281.79757193261139 3441.23450958316289 13917.07489659704879 
	11281.79757193391379 3451.89785969757213 13870.35387239807278 
	11281.7975719341357 3463.590835180794329 13834.82187520348089 
	11281.79757193431578 3472.265816656590687 13811.4417781157008 
	11281.79757193512523 3489.725777510169337 13771.42081217696978 
	11281.79757193809746 3520.97850933691052 13717.28667229966595 
	11281.79757194139347 3562.550904211483612 13665.15903873118259 
	11281.79757194388003 3604.250688195860675 13624.48705113939468 
	11281.79757194540252 3643.286533351370053 13593.35747417566017 
	11281.79757194752165 3692.217536125906918 13561.75293725546726 
	11281.79757195191632 3741.026087544848906 13538.24846822437758 
	11281.79757195409002 3788.127898890536926 13521.76857775461394 
	11281.79757195650018 3830.303544893462458 13510.46667709252142 
	11281.79757196174796 3870.310617225602982 13503.66936589251054 
	11281.79757196356695 3907.592879121296392 13500.52510091229124 
	11281.79757196576611 3944.992785489329435 13499.4752990681809 
	11281.79757197282925 3991.742605128325067 13502.10045605828054 
	11281.79757198035259 4040.982047917564159 13510.46673298959831 
	11281.79757198536754 4083.157722438147175 13521.76845528502781 
	11281.79757198762672 4130.25936352403096 13538.2487217685939 
	11281.79757200088352 4175.313635735745265 13559.94461452449104 
	11281.7975720076538 4212.284054470244882 13583.17665473156376 
	11281.79757201230314 4232.622283965558381 13597.60712947910906 
	11281.7975720131999 4257.352827954516215 13616.58339174398679 
	11281.79757204749694 4289.938987622279456 13645.70377608680428 
	11281.79757207576949 4327.3797202422802 13687.60024589176828 
	11281.79757211431024 4359.894249163511631 13733.42510666261114 
	11281.79757215012069 4387.073536307990253 13782.60239701745741 
	11281.79757219519161 4408.575800531607456 13834.51354213934428 
	11281.79757223257184 4424.13074752148259 13888.50579892117457 
	11281.79757228291419 4431.189518911782216 13930.05155448251753 
	11281.79757228985909 4433.938951005519812 13957.96919353977864 
	11281.79757229312963 4434.921789018702839 13971.96106113002133 
	11281.79757229715506 4435.413417914132879 13983.63934166580293 
	11281.79757229835195 4435.585525601243717 13991.81896270855759 
	11281.79757229872484 4435.628552205100277 13995.90937712368941 
	11281.79757229881398 4435.639309332868834 13997.95465967582641 
	11281.79757229884126 4435.64199855244442 13998.97731039597056 
	11281.7975722988449 4435.642670871276096 13999.48863693180647 
	11281.79757229885035 4435.642862958724436 13999.78082369239564 
	11281.79757229885217 4435.642894975277159 13999.92691710099825 
	11281.79757229885217 4435.642894975305353 13999.99996380517769 
	0 
	
	0 
	0 
	89 0 0.0005580357142857142547 0.001116071428571428509 0.002232142857142857019 0.004464285714285714038 0.008928571428571428076 0.01785714285714285615 0.0357142857142857123 0.05357142857142856845 0.07142857142857142461 0.08928571428571427382 0.1071428571428571369 0.1160714285714285754 0.125 0.1428571428571428492 0.1587301587301587213 0.1746031746031745935 0.1904761904761904656 0.2023809523809523836 0.2142857142857142738 0.226190476190476164 0.238095238095238082 0.2499999999999999722 0.2619047619047618625 0.2738095238095237804 0.2857142857142856984 0.2916666666666666297 0.2976190476190476164 0.3095238095238095344 0.3214285714285713969 0.3273809523809523281 0.3333333333333333148 0.3452380952380952328 0.351190476190476164 0.3571428571428570953 0.3690476190476190133 0.3809523809523809312 0.3928571428571428492 0.4047619047619047672 0.4285714285714285476 0.4305555555555555802 0.4325396825396825573 0.4365079365079365115 0.4444444444444444198 0.4603174603174602919 0.476190476190476164 0.4841269841269840724 0.4880952380952380265 0.4920634920634920362 0.5079365079365079083 0.5238095238095237249 0.5476190476190475609 0.5535714285714286031 0.5595238095238095344 0.5714285714285713969 0.5952380952380951218 0.6190476190476189577 0.6349206349206348854 0.650793650793650702 0.6666666666666666297 0.6904761904761904656 0.7023809523809523281 0.7142857142857141906 0.7321428571428569843 0.7410714285714283811 0.749999999999999889 0.7678571428571427937 0.7857142857142855874 0.7976190476190474499 0.8095238095238094234 0.8333333333333332593 0.8452380952380951218 0.851190476190476053 0.8571428571428570953 0.875 0.8928571428571427937 0.9107142857142856984 0.9285714285714286031 0.9464285714285713969 0.9642857142857143016 0.9821428571428572063 0.9866071428571429047 0.9910714285714286031 0.9977678571428572063 0.9988839285714286031 0.9994419642857143016 0.9997209821428572063 0.9998604910714286031 0.9999302455357143016 
	0 
	0 
	0 
	F 1 F 0 F 1 F 0 } I I I I #
tcoedge-coedge $-1 -1 $-1 $14 $14 $18 $19 reversed $9 $20 -6.283185307179586232 -0 #
tcoedge-coedge $-1 -1 $-1 $21 $22 $11 $16 reversed $12 $23 -6.283185307179586232 -0 #
tedge-edge $-1 -1 $-1 $24 0 $24 6.283185307179586232 $15 $25 forward @7 unknown 0.000773363830876895933 #
pcurve $-1 -1 $-1 0 forward { exppc nurbs 2 periodic 5 
	0 2 1.570796326794896558 2 3.141592653589793116 2 4.712388980384689674 2 6.283185307179586232 2 
	0 500 1 
	-500 500 0.707106781186543798 
	-500 0 1 
	-500 -500 0.7071067811865463515 
	0 -500 1 
	500 -500 0.7071067811865463515 
	500 0 1 
	500 500 0.707106781186543798 
	0 500 1 
	0 
	plane 11281.79757191538738 3935.642797989777137 14000.00000000000182 1 -3.637978807091713027e-15 0 0 0 -1 forward_v I I I I 
	} 0 0 #
tcoedge-coedge $-1 -1 $-1 $22 $21 $14 $19 forward $12 $26 0 6.283185307179586232 #
tedge-edge $-1 -1 $-1 $27 0 $27 6.283185307179586232 $18 $28 forward @7 unknown 0.000773363828671164784 #
pcurve $-1 -1 $-1 0 forward { exppc nurbs 2 periodic 5 
	-6.283185307179586232 2 -4.712388980384689674 2 -3.141592653589793116 2 -1.570796326794896558 2 0 2 
	0 500 1 
	500 500 0.707106781186543798 
	500 0 1 
	500 -500 0.7071067811865463515 
	0 -500 1 
	-500 -500 0.7071067811865463515 
	-500 0 1 
	-500 500 0.707106781186543798 
	0 500 1 
	0 
	plane 11031.79757191538738 3935.642797989778046 14000.00000000000182 -1 3.637978807091713027e-15 -0 0 0 -1 reverse_v I I I I 
	} 0 0 #
coedge $-1 -1 $-1 $18 $15 $22 $29 reversed $12 $30 #
coedge $-1 -1 $-1 $15 $18 $21 $29 forward $12 $31 #
pcurve $-1 -1 $-1 0 forward { exppc nubs 1 periodic 2 
	-6.283185307179586232 1 -0 1 
	1 1 
	0 1 
	2.726396620975368931e-13 
	spline forward { ref 0 } I I I I 
	} 0 0 #
tvertex-vertex $-1 -1 $-1 $16 $32 0.0001035200806207687939 #
ellipse-curve $-1 -1 $-1 11281.79757191538738 3935.642797989777137 14000.00000000000182 1 -3.637978807091713027e-15 0 1.818989403545856476e-12 500 0 1 I I #
pcurve $-1 -1 $-1 0 forward { exppc nubs 1 periodic 2 
	0 1 6.283185307179586232 1 
	0 0 
	1 0 
	4.4114023995510105e-13 
	spline forward { ref 0 } I I I I 
	} 0 0 #
tvertex-vertex $-1 -1 $-1 $19 $33 0.000103520048657479804 #
ellipse-curve $-1 -1 $-1 11031.79757191538738 3935.642797989778046 14000.00000000000182 1 -3.637978807091713027e-15 0 1.818989403545856476e-12 500 0 1 I I #
edge $-1 -1 $-1 $27 0 $24 0.9999999984661480656 $22 $34 forward @7 tangent #
pcurve $-1 -1 $-1 -1 $34 0 0 #
pcurve $-1 -1 $-1 1 $34 1 0 #
point $-1 -1 $-1 11281.7975719153892 4435.642797989777137 14000.00000000000182 #
point $-1 -1 $-1 11031.7975719153892 4435.642797989778046 14000.00000000000182 #
intcurve-curve $-1 -1 $-1 forward { parcur full nubs 3 open 2 
	0 3 1 3 
	11031.79757229035931 4435.642894975305353 13999.99996380517769 
	11115.13090562369325 4435.642894975304444 13999.99996380517769 
	11198.46423896551823 4435.642894975305353 13999.99996380517769 
	11281.79757229885217 4435.642894975305353 13999.99996380517769 
	0 
	
	spline forward { ref 0 } I I I I 
	null_surface 
	nubs 1 open 2 
	0 1 1 1 
	0 0 
	0 1 
	
	nullbs 
	I I 
	0 
	0 
	0 
	surf1 } F 0 F 0.9999999984661480656 #
End-of-ACIS-data 