700 0 1 0           
4 LibG 20 ASM 224.0.1.65535 NT 24 Wed Jul 17 14:48:13 2019 
1000 9.999999999999999547e-07 1.000000000000000036e-10 
body $-1 -1 $-1 $1 $-1 $2 #
lump $-1 -1 $-1 $-1 $3 $0 #
transform $-1 -1 1 0 0 0 1 0 0 0 1 0 0 0 1 no_rotate no_reflect no_shear #
shell $-1 -1 $-1 $-1 $-1 $4 $-1 $1 #
face $-1 -1 $-1 $5 $6 $3 $-1 $7 forward single #
face $-1 -1 $-1 $8 $9 $3 $-1 $10 reversed single #
loop $-1 -1 $-1 $-1 $11 $4 #
plane-surface $-1 -1 $-1 3531.797571915386925 3935.642797989805331 14000.00000000000182 1 -3.637978807091713027e-15 0 0 0 -1 forward_v I I I I #
face $-1 -1 $-1 $-1 $12 $3 $-1 $13 forward single #
loop $-1 -1 $-1 $-1 $14 $5 #
plane-surface $-1 -1 $-1 3281.797571915386925 3935.64279798980624 14000.00000000000182 1 -3.637978807091713027e-15 0 0 0 -1 forward_v I I I I #
tcoedge-coedge $-1 -1 $-1 $11 $11 $15 $16 forward $6 $17 0 6.283185307179586232 #
loop $-1 -1 $-1 $-1 $18 $8 #
spline-surface $-1 -1 $-1 forward { exactsur full nubs 3 3 periodic open none none 86 2 
	0 3 0.002232142857142857019 1 0.004464285714285714038 1 0.008928571428571428076 1 0.01785714285714285615 1 
	0.02678571428571428423 1 0.0357142857142857123 1 0.05357142857142856845 1 0.07142857142857142461 1 0.08928571428571427382 1 
	0.1071428571428571369 1 0.125 1 0.1428571428571428492 1 0.1587301587301587213 1 0.1746031746031745935 1 
	0.1904761904761904656 1 0.2023809523809523836 1 0.2142857142857142738 1 0.238095238095238082 1 0.2619047619047618625 1 
	0.2857142857142856984 1 0.2976190476190476164 1 0.3095238095238095344 1 0.3214285714285713969 1 0.3273809523809523281 1 
	0.3333333333333333148 1 0.3452380952380952328 1 0.3571428571428570953 1 0.3690476190476190133 1 0.375 1 
	0.3809523809523809312 1 0.3869047619047618625 1 0.3928571428571428492 1 0.4047619047619047672 1 0.4285714285714285476 1 
	0.4305555555555555802 1 0.4365079365079365115 1 0.4444444444444444198 1 0.4603174603174602919 1 0.476190476190476164 1 
	0.4801587301587301182 1 0.4841269841269840724 1 0.4880952380952380265 1 0.4900793650793650036 1 0.4920634920634920362 1 
	0.5158730158730158166 1 0.5238095238095237249 1 0.5357142857142855874 1 0.5476190476190475609 1 0.5595238095238095344 1 
	0.5714285714285713969 1 0.5952380952380951218 1 0.6190476190476189577 1 0.6269841269841269771 1 0.6309523809523809312 1 
	0.6349206349206348854 1 0.650793650793650702 1 0.6666666666666666297 1 0.6785714285714286031 1 0.6904761904761904656 1 
	0.7023809523809523281 1 0.7142857142857141906 1 0.7321428571428569843 1 0.749999999999999889 1 0.7678571428571427937 1 
	0.7857142857142855874 1 0.7976190476190474499 1 0.8095238095238094234 1 0.8333333333333332593 1 0.8452380952380951218 1 
	0.851190476190476053 1 0.8571428571428570953 1 0.875 1 0.8928571428571427937 1 0.9107142857142856984 1 
	0.9285714285714286031 1 0.9464285714285713969 1 0.9642857142857143016 1 0.9821428571428572063 1 0.9910714285714286031 1 
	0.9955357142857143016 1 0.9977678571428572063 1 0.9988839285714286031 1 0.9994419642857143016 1 0.9997209821428572063 1 
	1 3 
	0 3 1 3 
	3281.797571911262366 4435.642878649502563 13999.99989771668515 
	3281.797571911264185 4435.6428786043125 14002.33739225959289 
	3281.797571911280556 4435.610094592834685 14007.01238125658165 
	3281.797571911299201 4435.41340419768494 14016.3605207241726 
	3281.797571911371961 4434.725099683247208 14032.7101073661197 
	3281.797571911581144 4432.759714676297335 14056.01151846546054 
	3281.797571911771229 4428.836932207723294 14083.79693144180965 
	3281.797571911975865 4421.538048767841246 14120.49273334624013 
	3281.797571912598869 4408.575881961714913 14165.48629626795446 
	3281.797571913097272 4387.073452287730106 14217.39742361248864 
	3281.797571913602951 4359.894164692719642 14266.57465422447967 
	3281.797571914084529 4327.37967762849712 14312.39957610448255 
	3281.797571914254149 4289.938952250845432 14354.29600198073786 
	3281.797571914391028 4249.594195917491561 14390.34989606808995 
	3281.79757191472163 4207.366054404458737 14420.70972843484924 
	3281.797571914755736 4164.12660423111447 14445.67388322597981 
	3281.797571914824402 4122.40895150700544 14464.49781935946521 
	3281.79757191487397 4083.157810530123697 14478.23150315136809 
	3281.797571914956279 4034.957082869247643 14491.14879389639282 
	3281.797571914980836 3973.147742719454982 14500.46574407045227 
	3281.797571915064054 3898.13802732385966 14500.46578493899324 
	3281.797571915087246 3836.328636736564931 14491.14907724385375 
	3281.797571915115441 3788.127885973150114 14478.23175746553716 
	3281.797571915148183 3752.801914673987994 14465.87137193388844 
	3281.79757191517092 3724.215884638889747 14453.39902381859793 
	3281.797571915179105 3701.954135235173453 14442.16073567293461 
	3281.797571915185472 3680.128093962356161 14430.09797910725865 
	3281.797571915208209 3653.72012924616547 14413.50475712202569 
	3281.797571915213211 3623.607147563072886 14391.28043092786538 
	3281.797571915232766 3599.967302738244143 14370.93654053171849 
	3281.797571915236404 3582.007119874221189 14353.63573307989282 
	3281.797571915239132 3569.031575821667502 14340.16556087282515 
	3281.797571915242315 3556.568675843735036 14326.2196742223332 
	3281.797571915244589 3540.658702839306443 14307.0166615275848 
	3281.797571915258231 3514.728699053461696 14271.88578491603403 
	3281.797571915257322 3494.934309522452622 14237.60171976250604 
	3281.797571915258686 3480.697183860029781 14207.55945402659745 
	3281.797571915257777 3473.954040044342946 14192.36329984417534 
	3281.797571915259596 3462.5639090489517 14163.34215253812545 
	3281.797571915256412 3450.299891450316863 14123.58352609889153 
	3281.797571915246863 3442.880162993593785 14086.87949432450114 
	3281.797571915244589 3439.471547231345085 14062.17835645394371 
	3281.797571915245044 3438.075603819918342 14049.78914758377687 
	3281.797571915242315 3437.170060956361795 14039.43900895855404 
	3281.797571915243225 3436.60068451288771 14031.14728683198882 
	3281.797571915244134 3434.9691351725819 14002.10365183718022 
	3281.797571915254139 3435.853207963915793 13966.69382295500327 
	3281.797571915256867 3441.539910953265917 13921.32346563687679 
	3281.797571915258686 3447.724321357287408 13888.63584290747349 
	3281.797571915262779 3457.410983060184662 13852.48489881106252 
	3281.797571915262324 3469.772303287356863 13817.15924845324116 
	3281.797571915261869 3489.726008225468377 13771.4207078087511 
	3281.797571915255958 3520.978985728698717 13717.28695511976366 
	3281.797571915248682 3557.354280940257468 13671.67480788946523 
	3281.797571915238223 3583.477244764631905 13644.89396492903143 
	3281.797571915238223 3595.521124469218194 13633.43601598833629 
	3281.797571915233675 3614.009889446253965 13616.70489435626587 
	3281.797571915217759 3643.286690257382361 13593.35744146165234 
	3281.79757191521503 3681.732886346171654 13568.52626061295632 
	3281.7975719151882 3718.498585246281891 13549.0954647753133 
	3281.797571915177741 3752.801803613981065 13534.12883981997948 
	3281.797571915150456 3788.127721086359543 13521.76808127009826 
	3281.797571915111803 3830.303548498400232 13510.46652279894624 
	3281.797571915099525 3879.54287955180007 13502.10028186155614 
	3281.797571914988112 3935.642774315840597 13498.94995972573452 
	3281.797571914965829 3991.742523252846695 13502.10036100977777 
	3281.79757191489125 4040.982023436779855 13510.46651442387702 
	3281.797571914879427 4083.157605409929602 13521.76844956353852 
	3281.797571914843957 4130.259391398602929 13538.24838647065917 
	3281.797571914780747 4175.313517026068439 13559.94460777213317 
	3281.79757191473891 4212.283976942190748 13583.17657420169417 
	3281.797571914707532 4232.622187558096812 13597.60708613796487 
	3281.797571914705713 4257.352755792850985 13616.58331716912107 
	3281.797571914489708 4289.939022469837255 13645.70359366657067 
	3281.797571914259606 4327.379675687181589 13687.60015491453851 
	3281.797571913949469 4359.894265742109383 13733.4249857349896 
	3281.797571913698448 4387.073448713422295 13782.60233477009388 
	3281.797571913217325 4408.57593524294316 13834.51339260769782 
	3281.797571912410604 4424.130792984286927 13888.50571328399928 
	3281.797571911638443 4431.973830044544229 13934.66767333671123 
	3281.797571911367868 4434.72505917975468 13967.28969147631142 
	3281.797571911290106 4435.413413756788032 13983.63927335978406 
	3281.797571911268733 4435.585507191755823 13991.8188968942577 
	3281.797571911263731 4435.62853630380414 13995.90931095371161 
	3281.797571911261912 4435.639292946136266 13997.95459359370943 
	3281.797571911261912 4435.642366417680932 13999.12333726170436 
	3281.797571911261912 4435.642878655151435 13999.70771089882146 
	3281.797571911262366 4435.642878649502563 13999.99989771668515 
	3365.130905244595851 4435.642878649501654 13999.99989771668515 
	3365.13090524459767 4435.642878604311591 14002.33739225959289 
	3365.130905244614041 4435.610094592833775 14007.01238125658165 
	3365.130905244632686 4435.413404197684031 14016.3605207241726 
	3365.130905244705446 4434.725099683246299 14032.7101073661197 
	3365.130905244914629 4432.759714676296426 14056.01151846546054 
	3365.130905245104714 4428.836932207722384 14083.79693144180965 
	3365.13090524530935 4421.538048767840337 14120.49273334624013 
	3365.130905245932354 4408.575881961714003 14165.48629626795446 
	3365.130905246430757 4387.073452287729197 14217.39742361248864 
	3365.130905246936436 4359.894164692718732 14266.57465422447967 
	3365.130905247418013 4327.379677628496211 14312.39957610448255 
	3365.130905247587634 4289.938952250844522 14354.29600198073786 
	3365.130905247724513 4249.594195917490651 14390.34989606808995 
	3365.130905248055114 4207.366054404457827 14420.70972843484924 
	3365.130905248089221 4164.126604231113561 14445.67388322597981 
	3365.130905248157887 4122.408951507004531 14464.49781935946521 
	3365.130905248207455 4083.157810530123243 14478.23150315136809 
	3365.130905248289764 4034.957082869247188 14491.14879389639282 
	3365.13090524831432 3973.147742719454527 14500.46574407045227 
	3365.130905248397539 3898.138027323859205 14500.46578493899324 
	3365.130905248420731 3836.328636736564476 14491.14907724385375 
	3365.130905248448926 3788.12788597314966 14478.23175746553716 
	3365.130905248481668 3752.80191467398754 14465.87137193388844 
	3365.130905248504405 3724.215884638889293 14453.39902381859793 
	3365.13090524851259 3701.954135235172998 14442.16073567293461 
	3365.130905248518957 3680.128093962355706 14430.09797910725865 
	3365.130905248542149 3653.720129246165016 14413.50475712202569 
	3365.130905248546242 3623.607147563072431 14391.28043092786538 
	3365.130905248566705 3599.967302738243689 14370.93654053171849 
	3365.130905248569888 3582.007119874220734 14353.63573307989282 
	3365.130905248572617 3569.031575821667047 14340.16556087282515 
	3365.1309052485758 3556.568675843734582 14326.2196742223332 
	3365.130905248578074 3540.658702839305988 14307.0166615275848 
	3365.130905248591716 3514.728699053461241 14271.88578491603403 
	3365.130905248590807 3494.934309522452168 14237.60171976250604 
	3365.130905248592171 3480.697183860029327 14207.55945402659745 
	3365.130905248591262 3473.954040044342491 14192.36329984417534 
	3365.130905248593081 3462.563909048951245 14163.34215253812545 
	3365.130905248589897 3450.299891450316409 14123.58352609889153 
	3365.130905248580348 3442.880162993593331 14086.87949432450114 
	3365.130905248578074 3439.47154723134463 14062.17835645394371 
	3365.130905248578529 3438.075603819917887 14049.78914758377687 
	3365.1309052485758 3437.17006095636134 14039.43900895855404 
	3365.13090524857671 3436.600684512887256 14031.14728683198882 
	3365.130905248577164 3434.969135172581446 14002.10365183718022 
	3365.130905248588078 3435.853207963915338 13966.69382295500327 
	3365.130905248590352 3441.539910953265462 13921.32346563687679 
	3365.130905248592171 3447.724321357286954 13888.63584290747349 
	3365.130905248596264 3457.410983060184208 13852.48489881106252 
	3365.130905248595809 3469.772303287356408 13817.15924845324116 
	3365.130905248595354 3489.726008225467922 13771.4207078087511 
	3365.130905248589443 3520.978985728698262 13717.28695511976366 
	3365.130905248582167 3557.354280940257013 13671.67480788946523 
	3365.130905248571707 3583.47724476463145 13644.89396492903143 
	3365.130905248571707 3595.521124469217739 13633.43601598833629 
	3365.13090524856716 3614.00988944625351 13616.70489435626587 
	3365.130905248551244 3643.286690257381906 13593.35744146165234 
	3365.130905248548515 3681.732886346171199 13568.52626061295632 
	3365.130905248521685 3718.498585246281436 13549.0954647753133 
	3365.130905248511226 3752.80180361398061 13534.12883981997948 
	3365.130905248483941 3788.127721086359088 13521.76808127009826 
	3365.130905248445288 3830.303548498399778 13510.46652279894624 
	3365.13090524843301 3879.542879551799615 13502.10028186155614 
	3365.130905248321596 3935.642774315840143 13498.94995972573452 
	3365.130905248299314 3991.74252325284624 13502.10036100977777 
	3365.130905248224735 4040.9820234367794 13510.46651442387702 
	3365.130905248212912 4083.157605409929147 13521.76844956353852 
	3365.130905248177442 4130.259391398602929 13538.24838647065917 
	3365.130905248114232 4175.31351702606753 13559.94460777213317 
	3365.130905248072395 4212.283976942189838 13583.17657420169417 
	3365.130905248041017 4232.622187558095902 13597.60708613796487 
	3365.130905248039198 4257.352755792850076 13616.58331716912107 
	3365.130905247823193 4289.939022469836345 13645.70359366657067 
	3365.130905247593091 4327.379675687180679 13687.60015491453851 
	3365.130905247282953 4359.894265742108473 13733.4249857349896 
	3365.130905247031933 4387.073448713421385 13782.60233477009388 
	3365.13090524655081 4408.575935242942251 13834.51339260769782 
	3365.130905245744088 4424.130792984286018 13888.50571328399928 
	3365.130905244971927 4431.97383004454332 13934.66767333671123 
	3365.130905244701353 4434.725059179753771 13967.28969147631142 
	3365.130905244623591 4435.413413756787122 13983.63927335978406 
	3365.130905244602218 4435.585507191754914 13991.8188968942577 
	3365.130905244597216 4435.62853630380323 13995.90931095371161 
	3365.130905244595397 4435.639292946135356 13997.95459359370943 
	3365.130905244595397 4435.642366417680023 13999.12333726170436 
	3365.130905244595397 4435.642878655150525 13999.70771089882146 
	3365.130905244595851 4435.642878649501654 13999.99989771668515 
	3448.464238577613742 4435.642878649502563 13999.99989771668515 
	3448.464238577615106 4435.6428786043125 14002.33739225959289 
	3448.464238577632841 4435.610094592834685 14007.01238125658165 
	3448.464238577651486 4435.41340419768494 14016.3605207241726 
	3448.464238577730157 4434.725099683247208 14032.7101073661197 
	3448.464238577955257 4432.759714676297335 14056.01151846546054 
	3448.464238578159893 4428.836932207723294 14083.79693144180965 
	3448.464238578379081 4421.538048767841246 14120.49273334624013 
	3448.464238579051653 4408.575881961714913 14165.48629626795446 
	3448.46423857958689 4387.073452287730106 14217.39742361248864 
	3448.464238580132587 4359.894164692719642 14266.57465422447967 
	3448.464238580651454 4327.37967762849712 14312.39957610448255 
	3448.464238580833808 4289.938952250845432 14354.29600198073786 
	3448.464238580981146 4249.594195917491561 14390.34989606808995 
	3448.464238581336758 4207.366054404458737 14420.70972843484924 
	3448.464238581374047 4164.12660423111447 14445.67388322597981 
	3448.464238581447262 4122.40895150700544 14464.49781935946521 
	3448.464238581500922 4083.157810530124152 14478.23150315136809 
	3448.464238581589598 4034.957082869248097 14491.14879389639282 
	3448.464238581615518 3973.147742719455437 14500.46574407045227 
	3448.464238581705558 3898.138027323860115 14500.46578493899324 
	3448.464238581730115 3836.328636736565386 14491.14907724385375 
	3448.464238581760583 3788.127885973150569 14478.23175746553716 
	3448.464238581796053 3752.801914673988449 14465.87137193388844 
	3448.464238581820155 3724.215884638890202 14453.39902381859793 
	3448.46423858182925 3701.954135235173908 14442.16073567293461 
	3448.464238581836071 3680.128093962356616 14430.09797910725865 
	3448.464238581860627 3653.720129246165925 14413.50475712202569 
	3448.464238581866084 3623.60714756307334 14391.28043092786538 
	3448.464238581887003 3599.967302738244598 14370.93654053171849 
	3448.464238581891095 3582.007119874221644 14353.63573307989282 
	3448.464238581894278 3569.031575821667502 14340.16556087282515 
	3448.464238581897916 3556.568675843734582 14326.2196742223332 
	3448.4642385819011 3540.658702839305533 14307.0166615275848 
	3448.464238581915652 3514.728699053459877 14271.88578491603403 
	3448.464238581915197 3494.934309522451713 14237.60171976250604 
	3448.464238581916106 3480.697183860028872 14207.55945402659745 
	3448.464238581915197 3473.954040044342491 14192.36329984417534 
	3448.464238581917016 3462.563909048950791 14163.34215253812545 
	3448.464238581913833 3450.299891450315499 14123.58352609889153 
	3448.464238581902919 3442.880162993593331 14086.87949432450114 
	3448.4642385819011 3439.47154723134463 14062.17835645394371 
	3448.4642385819011 3438.075603819917887 14049.78914758377687 
	3448.464238581898826 3437.170060956360885 14039.43900895855404 
	3448.464238581899735 3436.600684512887256 14031.14728683198882 
	3448.4642385819011 3434.969135172581446 14002.10365183718022 
	3448.464238581910195 3435.853207963915793 13966.69382295500327 
	3448.464238581913833 3441.539910953265917 13921.32346563687679 
	3448.464238581915652 3447.724321357286954 13888.63584290747349 
	3448.464238581920654 3457.410983060183753 13852.48489881106252 
	3448.464238581920199 3469.772303287355953 13817.15924845324116 
	3448.464238581920654 3489.726008225468377 13771.4207078087511 
	3448.464238581914287 3520.978985728699172 13717.28695511976366 
	3448.464238581906102 3557.354280940257922 13671.67480788946523 
	3448.464238581895188 3583.47724476463236 13644.89396492903143 
	3448.464238581894733 3595.521124469218648 13633.43601598833629 
	3448.464238581889276 3614.009889446254419 13616.70489435626587 
	3448.464238581871086 3643.286690257382816 13593.35744146165234 
	3448.464238581868358 3681.732886346172108 13568.52626061295632 
	3448.464238581840164 3718.498585246282346 13549.0954647753133 
	3448.46423858182925 3752.801803613981519 13534.12883981997948 
	3448.464238581799691 3788.127721086359998 13521.76808127009826 
	3448.464238581758309 3830.303548498400232 13510.46652279894624 
	3448.464238581744212 3879.542879551799615 13502.10028186155614 
	3448.464238581623704 3935.642774315840597 13498.94995972573452 
	3448.464238581600057 3991.742523252845331 13502.10036100977777 
	3448.464238581519567 4040.9820234367794 13510.46651442387702 
	3448.464238581506379 4083.157605409928692 13521.76844956353852 
	3448.464238581468635 4130.25939139860202 13538.24838647065917 
	3448.464238581399513 4175.31351702606753 13559.94460777213317 
	3448.464238581355403 4212.283976942189838 13583.17657420169417 
	3448.464238581321752 4232.622187558095902 13597.60708613796487 
	3448.464238581319933 4257.352755792850076 13616.58331716912107 
	3448.464238581087557 4289.939022469836345 13645.70359366657067 
	3448.464238580840174 4327.379675687180679 13687.60015491453851 
	3448.46423858050548 4359.894265742109383 13733.4249857349896 
	3448.464238580235815 4387.073448713422295 13782.60233477009388 
	3448.464238579717858 4408.57593524294316 13834.51339260769782 
	3448.46423857884929 4424.130792984286927 13888.50571328399928 
	3448.464238578017557 4431.97383004454332 13934.66767333671123 
	3448.464238577726974 4434.72505917975468 13967.28969147631142 
	3448.464238577642845 4435.413413756788032 13983.63927335978406 
	3448.464238577619653 4435.585507191755823 13991.8188968942577 
	3448.464238577615106 4435.62853630380414 13995.90931095371161 
	3448.464238577613287 4435.639292946136266 13997.95459359370943 
	3448.464238577613742 4435.642366417680932 13999.12333726170436 
	3448.464238577613742 4435.642878655151435 13999.70771089882146 
	3448.464238577613742 4435.642878649502563 13999.99989771668515 
	3531.797571910947227 4435.642878649502563 13999.99989771668515 
	3531.797571910948591 4435.6428786043125 14002.33739225959289 
	3531.797571910966326 4435.610094592834685 14007.01238125658165 
	3531.797571910984971 4435.41340419768494 14016.3605207241726 
	3531.797571911063642 4434.725099683247208 14032.7101073661197 
	3531.797571911288742 4432.759714676297335 14056.01151846546054 
	3531.797571911493378 4428.836932207723294 14083.79693144180965 
	3531.797571911712566 4421.538048767841246 14120.49273334624013 
	3531.797571912385138 4408.575881961714913 14165.48629626795446 
	3531.797571912920375 4387.073452287730106 14217.39742361248864 
	3531.797571913466072 4359.894164692719642 14266.57465422447967 
	3531.797571913984939 4327.37967762849712 14312.39957610448255 
	3531.797571914167293 4289.938952250845432 14354.29600198073786 
	3531.797571914314631 4249.594195917491561 14390.34989606808995 
	3531.797571914670243 4207.366054404458737 14420.70972843484924 
	3531.797571914707532 4164.12660423111447 14445.67388322597981 
	3531.797571914780747 4122.40895150700544 14464.49781935946521 
	3531.797571914834407 4083.157810530123697 14478.23150315136809 
	3531.797571914923083 4034.957082869247643 14491.14879389639282 
	3531.797571914949003 3973.147742719454982 14500.46574407045227 
	3531.797571915039043 3898.13802732385966 14500.46578493899324 
	3531.7975719150636 3836.328636736564931 14491.14907724385375 
	3531.797571915094068 3788.127885973150114 14478.23175746553716 
	3531.797571915129538 3752.801914673987994 14465.87137193388844 
	3531.79757191515364 3724.215884638889747 14453.39902381859793 
	3531.797571915162735 3701.954135235173453 14442.16073567293461 
	3531.797571915169556 3680.128093962356161 14430.09797910725865 
	3531.797571915194567 3653.72012924616547 14413.50475712202569 
	3531.797571915199114 3623.607147563072886 14391.28043092786538 
	3531.797571915220942 3599.967302738244143 14370.93654053171849 
	3531.79757191522458 3582.007119874221189 14353.63573307989282 
	3531.797571915227763 3569.031575821667047 14340.16556087282515 
	3531.797571915231401 3556.568675843734127 14326.2196742223332 
	3531.797571915234585 3540.658702839305079 14307.0166615275848 
	3531.797571915249137 3514.728699053459422 14271.88578491603403 
	3531.797571915248682 3494.934309522451258 14237.60171976250604 
	3531.797571915249591 3480.697183860028417 14207.55945402659745 
	3531.797571915248682 3473.954040044342037 14192.36329984417534 
	3531.797571915250501 3462.563909048950336 14163.34215253812545 
	3531.797571915247318 3450.299891450315044 14123.58352609889153 
	3531.797571915236404 3442.880162993592876 14086.87949432450114 
	3531.797571915234585 3439.471547231344175 14062.17835645394371 
	3531.797571915234585 3438.075603819917433 14049.78914758377687 
	3531.797571915232311 3437.17006095636043 14039.43900895855404 
	3531.79757191523322 3436.600684512886801 14031.14728683198882 
	3531.79757191523413 3434.969135172580991 14002.10365183718022 
	3531.797571915244134 3435.853207963915338 13966.69382295500327 
	3531.797571915247318 3441.539910953265462 13921.32346563687679 
	3531.797571915249137 3447.724321357286499 13888.63584290747349 
	3531.797571915254139 3457.410983060183298 13852.48489881106252 
	3531.797571915253684 3469.772303287355498 13817.15924845324116 
	3531.797571915254139 3489.726008225467922 13771.4207078087511 
	3531.797571915247772 3520.978985728698717 13717.28695511976366 
	3531.797571915239587 3557.354280940257468 13671.67480788946523 
	3531.797571915228673 3583.477244764631905 13644.89396492903143 
	3531.797571915228218 3595.521124469218194 13633.43601598833629 
	3531.797571915222761 3614.009889446253965 13616.70489435626587 
	3531.797571915204571 3643.286690257382361 13593.35744146165234 
	3531.797571915201843 3681.732886346171654 13568.52626061295632 
	3531.797571915173648 3718.498585246281891 13549.0954647753133 
	3531.797571915162735 3752.801803613981065 13534.12883981997948 
	3531.797571915133176 3788.127721086359543 13521.76808127009826 
	3531.797571915091794 3830.303548498399778 13510.46652279894624 
	3531.797571915077697 3879.54287955179916 13502.10028186155614 
	3531.797571914957189 3935.642774315840143 13498.94995972573452 
	3531.797571914933542 3991.742523252844876 13502.10036100977777 
	3531.797571914853052 4040.982023436778945 13510.46651442387702 
	3531.797571914839864 4083.157605409928237 13521.76844956353852 
	3531.79757191480212 4130.25939139860202 13538.24838647065917 
	3531.797571914732998 4175.31351702606753 13559.94460777213317 
	3531.797571914688888 4212.283976942189838 13583.17657420169417 
	3531.797571914655236 4232.622187558095902 13597.60708613796487 
	3531.797571914653417 4257.352755792850076 13616.58331716912107 
	3531.797571914421042 4289.939022469836345 13645.70359366657067 
	3531.797571914173659 4327.379675687180679 13687.60015491453851 
	3531.797571913838965 4359.894265742109383 13733.4249857349896 
	3531.7975719135693 4387.073448713422295 13782.60233477009388 
	3531.797571913051343 4408.57593524294316 13834.51339260769782 
	3531.797571912182775 4424.130792984286927 13888.50571328399928 
	3531.797571911351042 4431.97383004454332 13934.66767333671123 
	3531.797571911060459 4434.72505917975468 13967.28969147631142 
	3531.79757191097633 4435.413413756788032 13983.63927335978406 
	3531.797571910953138 4435.585507191755823 13991.8188968942577 
	3531.797571910948591 4435.62853630380414 13995.90931095371161 
	3531.797571910946772 4435.639292946136266 13997.95459359370943 
	3531.797571910947227 4435.642366417680932 13999.12333726170436 
	3531.797571910947227 4435.642878655151435 13999.70771089882146 
	3531.797571910947227 4435.642878649502563 13999.99989771668515 
	0 
	
	0 
	0 
	85 0 0.002232142857142857019 0.004464285714285714038 0.008928571428571428076 0.01785714285714285615 0.02678571428571428423 0.0357142857142857123 0.05357142857142856845 0.07142857142857142461 0.08928571428571427382 0.1071428571428571369 0.125 0.1428571428571428492 0.1587301587301587213 0.1746031746031745935 0.1904761904761904656 0.2023809523809523836 0.2142857142857142738 0.238095238095238082 0.2619047619047618625 0.2857142857142856984 0.2976190476190476164 0.3095238095238095344 0.3214285714285713969 0.3273809523809523281 0.3333333333333333148 0.3452380952380952328 0.3571428571428570953 0.3690476190476190133 0.375 0.3809523809523809312 0.3869047619047618625 0.3928571428571428492 0.4047619047619047672 0.4285714285714285476 0.4305555555555555802 0.4365079365079365115 0.4444444444444444198 0.4603174603174602919 0.476190476190476164 0.4801587301587301182 0.4841269841269840724 0.4880952380952380265 0.4900793650793650036 0.4920634920634920362 0.5158730158730158166 0.5238095238095237249 0.5357142857142855874 0.5476190476190475609 0.5595238095238095344 0.5714285714285713969 0.5952380952380951218 0.6190476190476189577 0.6269841269841269771 0.6309523809523809312 0.6349206349206348854 0.650793650793650702 0.6666666666666666297 0.6785714285714286031 0.6904761904761904656 0.7023809523809523281 0.7142857142857141906 0.7321428571428569843 0.749999999999999889 0.7678571428571427937 0.7857142857142855874 0.7976190476190474499 0.8095238095238094234 0.8333333333333332593 0.8452380952380951218 0.851190476190476053 0.8571428571428570953 0.875 0.8928571428571427937 0.9107142857142856984 0.9285714285714286031 0.9464285714285713969 0.9642857142857143016 0.9821428571428572063 0.9910714285714286031 0.9955357142857143016 0.9977678571428572063 0.9988839285714286031 0.9994419642857143016 0.9997209821428572063 
	0 
	0 
	0 
	F 1 F 0 F 1 F 0 } I I I I #
tcoedge-coedge $-1 -1 $-1 $14 $14 $18 $19 reversed $9 $20 -6.283185307179586232 -0 #
tcoedge-coedge $-1 -1 $-1 $21 $22 $11 $16 reversed $12 $23 -6.283185307179586232 -0 #
tedge-edge $-1 -1 $-1 $24 0 $24 6.283185307179586232 $15 $25 forward @7 unknown 0.0006582596635653923181 #
pcurve $-1 -1 $-1 0 forward { exppc nurbs 2 periodic 5 
	0 2 1.570796326794896558 2 3.141592653589793116 2 4.712388980384689674 2 6.283185307179586232 2 
	0 500 1 
	-500 500 0.707106781186543798 
	-500 0 1 
	-500 -500 0.7071067811865463515 
	0 -500 1 
	500 -500 0.7071067811865463515 
	500 0 1 
	500 500 0.707106781186543798 
	0 500 1 
	0 
	plane 3531.797571915386925 3935.642797989805331 14000.00000000000182 1 -3.637978807091713027e-15 0 0 0 -1 forward_v I I I I 
	} 0 0 #
tcoedge-coedge $-1 -1 $-1 $22 $21 $14 $19 forward $12 $26 0 6.283185307179586232 #
tedge-edge $-1 -1 $-1 $27 0 $27 6.283185307179586232 $18 $28 forward @7 unknown 0.000658259663178969545 #
pcurve $-1 -1 $-1 0 forward { exppc nurbs 2 periodic 5 
	-6.283185307179586232 2 -4.712388980384689674 2 -3.141592653589793116 2 -1.570796326794896558 2 0 2 
	0 500 1 
	500 500 0.707106781186543798 
	500 0 1 
	500 -500 0.7071067811865463515 
	0 -500 1 
	-500 -500 0.7071067811865463515 
	-500 0 1 
	-500 500 0.707106781186543798 
	0 500 1 
	0 
	plane 3281.797571915386925 3935.64279798980624 14000.00000000000182 -1 3.637978807091713027e-15 -0 0 0 -1 reverse_v I I I I 
	} 0 0 #
coedge $-1 -1 $-1 $18 $15 $22 $29 reversed $12 $30 #
coedge $-1 -1 $-1 $15 $18 $21 $29 forward $12 $31 #
pcurve $-1 -1 $-1 0 forward { exppc nubs 1 periodic 2 
	-6.283185307179586232 1 -0 1 
	1 1 
	0 1 
	2.726396620975368931e-13 
	spline forward { ref 0 } I I I I 
	} 0 0 #
tvertex-vertex $-1 -1 $-1 $16 $32 0.0001302607625129168379 #
ellipse-curve $-1 -1 $-1 3531.797571915386925 3935.642797989805331 14000.00000000000182 1 -3.637978807091713027e-15 0 1.818989403545856476e-12 500 0 1 I I #
pcurve $-1 -1 $-1 0 forward { exppc nubs 1 periodic 2 
	0 1 6.283185307179586232 1 
	0 0 
	1 0 
	4.411402399551011509e-13 
	spline forward { ref 0 } I I I I 
	} 0 0 #
tvertex-vertex $-1 -1 $-1 $19 $33 0.0001302607619393779544 #
ellipse-curve $-1 -1 $-1 3281.797571915386925 3935.64279798980624 14000.00000000000182 1 -3.637978807091713027e-15 0 1.818989403545856476e-12 500 0 1 I I #
edge $-1 -1 $-1 $27 1.650550953291736705e-11 $24 1 $22 $34 forward @7 tangent #
pcurve $-1 -1 $-1 -1 $34 0 0 #
pcurve $-1 -1 $-1 1 $34 1 0 #
point $-1 -1 $-1 3531.797571915388744 4435.642797989805331 14000.00000000000182 #
point $-1 -1 $-1 3281.797571915388744 4435.64279798980624 14000.00000000000182 #
intcurve-curve $-1 -1 $-1 forward { parcur full nubs 3 open 2 
	0 3 1 3 
	3281.797571911262366 4435.642878649502563 13999.99989771668515 
	3365.130905244595851 4435.642878649501654 13999.99989771668515 
	3448.464238577613742 4435.642878649502563 13999.99989771668515 
	3531.797571910947227 4435.642878649502563 13999.99989771668515 
	0 
	
	spline forward { ref 0 } I I I I 
	null_surface 
	nubs 1 open 2 
	0 1 1 1 
	0 0 
	0 1 
	
	nullbs 
	I I 
	0 
	0 
	0 
	surf1 } F 1.650550953291736705e-11 F 1 #
End-of-ACIS-data 