700 0 1 0           
4 LibG 20 ASM 224.0.1.65535 NT 24 Wed Jul 17 14:48:13 2019 
1000 9.999999999999999547e-07 1.000000000000000036e-10 
body $-1 -1 $-1 $1 $-1 $2 #
lump $-1 -1 $-1 $-1 $3 $0 #
transform $-1 -1 1 0 0 0 1 0 0 0 1 0 0 0 1 no_rotate no_reflect no_shear #
shell $-1 -1 $-1 $-1 $-1 $4 $-1 $1 #
face $-1 -1 $-1 $5 $6 $3 $-1 $7 forward single #
face $-1 -1 $-1 $8 $9 $3 $-1 $10 reversed single #
loop $-1 -1 $-1 $-1 $11 $4 #
plane-surface $-1 -1 $-1 531.797571915386925 3935.642797989816245 14000.00000000000182 1 -3.637978807091713027e-15 0 0 0 -1 forward_v I I I I #
face $-1 -1 $-1 $-1 $12 $3 $-1 $13 forward single #
loop $-1 -1 $-1 $-1 $14 $5 #
plane-surface $-1 -1 $-1 281.797571915386925 3935.642797989817154 14000.00000000000182 1 -3.637978807091713027e-15 0 0 0 -1 forward_v I I I I #
tcoedge-coedge $-1 -1 $-1 $11 $11 $15 $16 forward $6 $17 0 6.283185307179586232 #
loop $-1 -1 $-1 $-1 $18 $8 #
spline-surface $-1 -1 $-1 forward { exactsur full nubs 3 3 periodic open none none 90 2 
	0 3 0.004464285714285714038 1 0.008928571428571428076 1 0.01785714285714285615 1 0.02678571428571428423 1 
	0.0357142857142857123 1 0.05357142857142856845 1 0.07142857142857142461 1 0.08928571428571427382 1 0.09374999999999998612 1 
	0.09821428571428569843 1 0.1026785714285714246 1 0.1071428571428571369 1 0.125 1 0.1428571428571428492 1 
	0.1587301587301587213 1 0.1785714285714285476 1 0.1825396825396825295 1 0.1904761904761904656 1 0.2142857142857142738 1 
	0.226190476190476164 1 0.238095238095238082 1 0.2410714285714285476 1 0.2440476190476190133 1 0.2499999999999999722 1 
	0.2619047619047618625 1 0.2738095238095237804 1 0.2857142857142856984 1 0.2976190476190476164 1 0.3095238095238095344 1 
	0.3214285714285713969 1 0.3333333333333333148 1 0.3452380952380952328 1 0.3571428571428570953 1 0.3630952380952380265 1 
	0.3690476190476190133 1 0.375 1 0.3809523809523809312 1 0.3928571428571428492 1 0.4047619047619047672 1 
	0.4166666666666666297 1 0.4285714285714285476 1 0.4444444444444444198 1 0.4603174603174602919 1 0.476190476190476164 1 
	0.4801587301587301182 1 0.4841269841269840724 1 0.4920634920634920362 1 0.5 1 0.5079365079365079083 1 
	0.5158730158730158166 1 0.5238095238095237249 1 0.5476190476190475609 1 0.5714285714285713969 1 0.5833333333333332593 1 
	0.5892857142857141906 1 0.5922619047619046562 1 0.5952380952380951218 1 0.6190476190476189577 1 0.6269841269841269771 1 
	0.6349206349206348854 1 0.650793650793650702 1 0.6666666666666666297 1 0.6904761904761904656 1 0.7023809523809523281 1 
	0.7142857142857141906 1 0.7321428571428569843 1 0.749999999999999889 1 0.7678571428571427937 1 0.7857142857142855874 1 
	0.7976190476190474499 1 0.8095238095238094234 1 0.8333333333333332593 1 0.8452380952380951218 1 0.851190476190476053 1 
	0.8571428571428570953 1 0.875 1 0.8928571428571427937 1 0.9107142857142856984 1 0.9285714285714286031 1 
	0.9464285714285713969 1 0.9642857142857143016 1 0.9732142857142858094 1 0.9821428571428572063 1 0.9910714285714286031 1 
	0.9955357142857143016 1 0.9977678571428572063 1 0.9988839285714286031 1 0.9994419642857143016 1 1 3 
	0 3 1 3 
	281.7975719157553272 4435.642880520932522 13999.99993733179872 
	281.7975719157550429 4435.642880324333419 14004.67492644853519 
	281.797571915749927 4435.511735268083612 14014.024905839864 
	281.7975719157454932 4434.725099645034788 14032.71014838779774 
	281.7975719157277013 4432.759716360860693 14056.01156289667597 
	281.7975719157128651 4428.836932272800368 14083.79697774977649 
	281.7975719156966079 4421.538051786181313 14120.49278774365303 
	281.7975719156416972 4408.575872876831454 14165.48635104605273 
	281.7975719156064542 4387.073468689142828 14217.39753076510169 
	281.7975719155614343 4366.688952988179153 14254.28040577724823 
	281.7975719155565457 4351.432169466376763 14277.82153289864982 
	281.7975719155543288 4343.476809240340117 14289.37361399008478 
	281.7975719155522825 4335.20048205238254 14300.697962240376 
	281.7975719155484171 4318.019384059613913 14322.87369746254808 
	281.7975719155209049 4289.938960846599912 14354.29615388339334 
	281.797571915499816 4249.594070141371958 14390.34989076112652 
	281.7975719154792955 4203.987963219187804 14423.13894005506518 
	281.7975719154636636 4167.673321239979487 14443.50612751842891 
	281.7975719154629246 4137.541042570128411 14457.55623429151819 
	281.797571915456956 4103.067715608141043 14472.08968493851171 
	281.7975719154466105 4059.265201908935069 14485.60037561769241 
	281.7975719154433705 4010.233314588141184 14494.87632691569161 
	281.7975719154368903 3982.340379121109891 14498.01952331620123 
	281.7975719154363787 3963.679623810357498 14499.24251755029582 
	281.797571915435924 3951.226067524503833 14499.82515949554545 
	281.7975719154345029 3929.409446747025413 14500.23323400306072 
	281.7975719154303533 3898.242857399602599 14499.06711509443448 
	281.7975719154267722 3861.05209796824829 14494.8766933108036 
	281.7975719154231342 3824.278482911629453 14487.91876071353363 
	281.797571915419951 3788.127659670515641 14478.23217112043312 
	281.7975719154169951 3752.801802172770749 14465.87111995221858 
	281.7975719154143803 3718.498461751225477 14450.90472804107776 
	281.7975719154118792 3685.409486255668526 14433.4166886674775 
	281.7975719154096623 3653.719902816123522 14413.50482008076324 
	281.7975719154087528 3628.625769344056607 14394.98454104884513 
	281.7975719154079002 3609.422940815242328 14379.07425190650611 
	281.7975719154075023 3595.476998237038515 14366.61145130316254 
	281.7975719154070475 3582.006860918539132 14353.63585435534515 
	281.7975719154065359 3564.70603438983153 14335.67569399054628 
	281.797571915405058 3544.362217119485194 14312.03578776086033 
	281.7975719154036369 3522.137788053375516 14281.92286421580138 
	281.797571915402898 3502.226045946012619 14250.23322886754613 
	281.7975719154015906 3482.794645456767739 14213.46780681445853 
	281.7975719154002263 3465.016799061698293 14171.29380298760225 
	281.7975719153997147 3450.30026313172948 14123.58331950248794 
	281.7975719153983505 3442.880402031614267 14086.87935724228373 
	281.7975719153982936 3439.471796738932426 14062.17821301613549 
	281.7975719153982368 3437.610518256354226 14045.65926980466065 
	281.7975719153979526 3436.057290996526262 14024.93319099944347 
	281.7975719153978389 3435.435537592240053 13999.99992421281786 
	281.7975719153976684 3436.057207336968531 13975.06663023821238 
	281.797571915397782 3437.921355072602637 13950.19538458200259 
	281.7975719153978389 3443.088998544184506 13908.94945232146893 
	281.7975719153983505 3456.070196179797676 13852.07133429553505 
	281.7975719153993168 3478.90774733363105 13793.8847983553369 
	281.7975719153997716 3499.311493029346821 13755.28150777571136 
	281.7975719153998853 3510.573009186706258 13736.59169878689863 
	281.7975719153999421 3517.304432752398043 13726.09796131511575 
	281.7975719154002832 3534.6200421310823 13700.18246565739901 
	281.7975719154029548 3557.35442326179691 13671.6749683040307 
	281.7975719154034664 3586.379733709798529 13641.91819907651006 
	281.7975719154040917 3610.756758469849501 13619.29880145097195 
	281.7975719154058538 3643.286776056027975 13593.3576560287911 
	281.7975719154087528 3692.217558031702538 13561.75276911499168 
	281.7975719154122771 3741.026182675763721 13538.2484805519689 
	281.7975719154142666 3788.127950281936137 13521.76850798974374 
	281.7975719154167678 3830.303608674144925 13510.46670882873332 
	281.79757191542177 3879.543032562073677 13502.10052830082168 
	281.7975719154273975 3935.642824096144977 13498.95006085980458 
	281.797571915434105 3991.742627068544607 13502.10050661532478 
	281.797571915440642 4040.982035115183862 13510.46671855204295 
	281.7975719154459853 4083.157724095831782 13521.76843276615728 
	281.7975719154475769 4130.259397660594004 13538.24866084019595 
	281.7975719154600256 4175.313626494919845 13559.94462365848267 
	281.7975719154668468 4212.284049431349558 13583.17665227886573 
	281.7975719154716217 4232.622271147711217 13597.60713857319934 
	281.797571915472588 4257.352815670588825 13616.583398691615 
	281.7975719154953822 4289.93917941437121 13645.70354427570055 
	281.7975719155323304 4327.379758817221045 13687.60018442865658 
	281.7975719155680281 4359.894359010356311 13733.4249970638557 
	281.7975719156108312 4387.07353279176823 13782.60234562576443 
	281.7975719156506216 4408.575963023600707 13834.51347281996641 
	281.7975719157005869 4421.538078808788669 13879.50708352029505 
	281.797571915716901 4428.836955844403747 13916.20288978264762 
	281.7975719157314529 4432.759728245890074 13943.98831040390178 
	281.7975719157478807 4434.725105295729918 13967.28972595478444 
	281.7975719157531671 4435.413407107670537 13983.63931397887791 
	281.7975719157548156 4435.585510485899249 13991.81893632265383 
	281.7975719157552135 4435.628537871287335 13995.90935059697586 
	281.7975719157553272 4435.64083145929726 13998.24681643111217 
	281.797571915755384 4435.642880545507069 13999.4155636922078 
	281.7975719157553272 4435.642880520932522 13999.99993733179872 
	365.1309052490886415 4435.642880520931612 13999.99993733179872 
	365.1309052490883005 4435.642880324332509 14004.67492644853519 
	365.1309052490832983 4435.511735268082703 14014.024905839864 
	365.1309052490787508 4434.725099645033879 14032.71014838779774 
	365.1309052490610156 4432.759716360859784 14056.01156289667597 
	365.1309052490461227 4428.836932272799459 14083.79697774977649 
	365.1309052490299791 4421.538051786180404 14120.49278774365303 
	365.1309052489749547 4408.575872876830545 14165.48635104605273 
	365.1309052489398255 4387.073468689141919 14217.39753076510169 
	365.130905248894635 4366.688952988178244 14254.28040577724823 
	365.1309052488899169 4351.432169466375854 14277.82153289864982 
	365.1309052488876432 4343.476809240339207 14289.37361399008478 
	365.1309052488856537 4335.200482052381631 14300.697962240376 
	365.1309052488816747 4318.019384059613003 14322.87369746254808 
	365.1309052488542761 4289.938960846599002 14354.29615388339334 
	365.1309052488330167 4249.594070141371049 14390.34989076112652 
	365.1309052488127236 4203.987963219186895 14423.13894005506518 
	365.130905248796978 4167.673321239978577 14443.50612751842891 
	365.1309052487961253 4137.541042570127502 14457.55623429151819 
	365.130905248790441 4103.067715608140134 14472.08968493851171 
	365.1309052487797544 4059.265201908934614 14485.60037561769241 
	365.1309052487769122 4010.233314588140729 14494.87632691569161 
	365.130905248770091 3982.340379121109436 14498.01952331620123 
	365.1309052487696931 3963.679623810357043 14499.24251755029582 
	365.1309052487692384 3951.226067524503378 14499.82515949554545 
	365.1309052487678741 3929.409446747024958 14500.23323400306072 
	365.1309052487636109 3898.242857399602144 14499.06711509443448 
	365.1309052487602003 3861.052097968247836 14494.8766933108036 
	365.1309052487563918 3824.278482911628998 14487.91876071353363 
	365.1309052487532654 3788.127659670515186 14478.23217112043312 
	365.1309052487502527 3752.801802172770294 14465.87111995221858 
	365.1309052487477516 3718.498461751225022 14450.90472804107776 
	365.1309052487450799 3685.409486255668071 14433.4166886674775 
	365.1309052487431472 3653.719902816123067 14413.50482008076324 
	365.1309052487418967 3628.625769344056152 14394.98454104884513 
	365.1309052487413283 3609.422940815241873 14379.07425190650611 
	365.1309052487407598 3595.47699823703806 14366.61145130316254 
	365.1309052487403051 3582.006860918538678 14353.63585435534515 
	365.1309052487398503 3564.706034389831075 14335.67569399054628 
	365.1309052487384861 3544.36221711948474 14312.03578776086033 
	365.1309052487368376 3522.137788053375061 14281.92286421580138 
	365.1309052487362692 3502.226045946012164 14250.23322886754613 
	365.1309052487349618 3482.794645456767284 14213.46780681445853 
	365.1309052487333702 3465.016799061697839 14171.29380298760225 
	365.1309052487332565 3450.300263131729025 14123.58331950248794 
	365.1309052487314375 3442.880402031613812 14086.87935724228373 
	365.1309052487317217 3439.471796738931971 14062.17821301613549 
	365.1309052487314375 3437.610518256353771 14045.65926980466065 
	365.1309052487313238 3436.057290996525808 14024.93319099944347 
	365.1309052487310964 3435.435537592239598 13999.99992421281786 
	365.1309052487309827 3436.057207336968077 13975.06663023821238 
	365.1309052487310964 3437.921355072602182 13950.19538458200259 
	365.1309052487312101 3443.088998544184051 13908.94945232146893 
	365.130905248731608 3456.070196179797222 13852.07133429553505 
	365.1309052487326881 3478.907747333630596 13793.8847983553369 
	365.1309052487330291 3499.311493029346366 13755.28150777571136 
	365.1309052487331996 3510.573009186705804 13736.59169878689863 
	365.1309052487332565 3517.304432752397588 13726.09796131511575 
	365.1309052487334839 3534.620042131081846 13700.18246565739901 
	365.1309052487362692 3557.354423261796455 13671.6749683040307 
	365.1309052487367808 3586.379733709798074 13641.91819907651006 
	365.1309052487374061 3610.756758469849046 13619.29880145097195 
	365.1309052487391682 3643.28677605602752 13593.3576560287911 
	365.1309052487420672 3692.217558031702083 13561.75276911499168 
	365.1309052487456484 3741.026182675763266 13538.2484805519689 
	365.130905248747581 3788.127950281935682 13521.76850798974374 
	365.1309052487500821 3830.303608674144471 13510.46670882873332 
	365.130905248755198 3879.543032562073222 13502.10052830082168 
	365.130905248760655 3935.642824096144523 13498.95006085980458 
	365.1309052487674194 3991.742627068544152 13502.10050661532478 
	365.1309052487739564 4040.982035115183407 13510.46671855204295 
	365.1309052487792997 4083.157724095831327 13521.76843276615728 
	365.1309052487807776 4130.259397660593095 13538.24866084019595 
	365.1309052487933968 4175.313626494918935 13559.94462365848267 
	365.1309052488001612 4212.284049431348649 13583.17665227886573 
	365.1309052488049929 4232.622271147710308 13597.60713857319934 
	365.1309052488058455 4257.352815670587916 13616.583398691615 
	365.1309052488288103 4289.939179414370301 13645.70354427570055 
	365.130905248865588 4327.379758817220136 13687.60018442865658 
	365.1309052489014562 4359.894359010355402 13733.4249970638557 
	365.1309052489440319 4387.07353279176732 13782.60234562576443 
	365.130905248983936 4408.575963023599797 13834.51347281996641 
	365.1309052490339582 4421.538078808787759 13879.50708352029505 
	365.1309052490501017 4428.836955844402837 13916.20288978264762 
	365.130905249064881 4432.759728245889164 13943.98831040390178 
	365.1309052490810245 4434.725105295729009 13967.28972595478444 
	365.1309052490865952 4435.413407107669627 13983.63931397887791 
	365.1309052490881299 4435.58551048589834 13991.81893632265383 
	365.1309052490884142 4435.628537871286426 13995.90935059697586 
	365.1309052490886415 4435.640831459296351 13998.24681643111217 
	365.1309052490886984 4435.642880545506159 13999.4155636922078 
	365.1309052490886415 4435.642880520931612 13999.99993733179872 
	448.464238582747555 4435.642880520932522 13999.99993733179872 
	448.4642385827471571 4435.642880324333419 14004.67492644853519 
	448.4642385827372664 4435.511735268083612 14014.024905839864 
	448.4642385827290809 4434.725099645034788 14032.71014838779774 
	448.4642385826953728 4432.759716360860693 14056.01156289667597 
	448.464238582667349 4428.836932272800368 14083.79697774977649 
	448.4642385826364261 4421.538051786181313 14120.49278774365303 
	448.4642385825330848 4408.575872876831454 14165.48635104605273 
	448.4642385824663506 4387.073468689142828 14217.39753076510169 
	448.4642385823817108 4366.688952988179153 14254.28040577724823 
	448.4642385823724453 4351.432169466376763 14277.82153289864982 
	448.4642385823683526 4343.476809240340117 14289.37361399008478 
	448.4642385823643735 4335.20048205238254 14300.697962240376 
	448.4642385823572113 4318.019384059613913 14322.87369746254808 
	448.4642385823053701 4289.938960846599002 14354.29615388339334 
	448.4642385822658639 4249.594070141371049 14390.34989076112652 
	448.4642385822270967 4203.987963219185986 14423.13894005506518 
	448.4642385821977655 4167.673321239978577 14443.50612751842891 
	448.4642385821965718 4137.541042570126592 14457.55623429151819 
	448.4642385821852031 4103.067715608139224 14472.08968493851171 
	448.4642385821661037 4059.265201908932795 14485.60037561769241 
	448.4642385821597941 4010.233314588138455 14494.87632691569161 
	448.4642385821479706 3982.340379121107162 14498.01952331620123 
	448.4642385821469475 3963.679623810354769 14499.24251755029582 
	448.4642385821461517 3951.226067524501104 14499.82515949554545 
	448.4642385821435937 3929.409446747022685 14500.23323400306072 
	448.464238582135863 3898.24285739960078 14499.06711509443448 
	448.4642385821291555 3861.052097968246017 14494.8766933108036 
	448.4642385821225616 3824.278482911627634 14487.91876071353363 
	448.4642385821165362 3788.127659670513367 14478.23217112043312 
	448.464238582111193 3752.801802172768475 14465.87111995221858 
	448.4642385821061907 3718.498461751223203 14450.90472804107776 
	448.4642385821015296 3685.409486255666707 14433.4166886674775 
	448.4642385820972095 3653.719902816122158 14413.50482008076324 
	448.4642385820960726 3628.625769344055243 14394.98454104884513 
	448.4642385820940262 3609.422940815241418 14379.07425190650611 
	448.4642385820936852 3595.476998237037606 14366.61145130316254 
	448.4642385820927757 3582.006860918538223 14353.63585435534515 
	448.4642385820918662 3564.706034389831075 14335.67569399054628 
	448.4642385820891377 3544.362217119484285 14312.03578776086033 
	448.4642385820865798 3522.137788053375061 14281.92286421580138 
	448.464238582085045 3502.226045946011709 14250.23322886754613 
	448.4642385820826576 3482.794645456767284 14213.46780681445853 
	448.4642385820803838 3465.016799061697839 14171.29380298760225 
	448.4642385820791333 3450.30026313172948 14123.58331950248794 
	448.4642385820770301 3442.880402031614722 14086.87935724228373 
	448.464238582076689 3439.471796738932426 14062.17821301613549 
	448.4642385820767458 3437.610518256354226 14045.65926980466065 
	448.4642385820761774 3436.057290996526262 14024.93319099944347 
	448.4642385820758363 3435.435537592240507 13999.99992421281786 
	448.4642385820754953 3436.057207336968077 13975.06663023821238 
	448.4642385820758363 3437.921355072602182 13950.19538458200259 
	448.4642385820758363 3443.088998544183596 13908.94945232146893 
	448.4642385820768595 3456.070196179796312 13852.07133429553505 
	448.4642385820784511 3478.907747333629686 13793.8847983553369 
	448.4642385820793606 3499.311493029345456 13755.28150777571136 
	448.4642385820794175 3510.573009186704894 13736.59169878689863 
	448.4642385820794743 3517.304432752396679 13726.09796131511575 
	448.4642385820801564 3534.620042131081391 13700.18246565739901 
	448.4642385820851018 3557.354423261796001 13671.6749683040307 
	448.4642385820858976 3586.37973370979762 13641.91819907651006 
	448.4642385820870345 3610.756758469848592 13619.29880145097195 
	448.4642385820903314 3643.286776056027065 13593.3576560287911 
	448.4642385820956747 3692.217558031700719 13561.75276911499168 
	448.4642385821019843 3741.026182675762811 13538.2484805519689 
	448.4642385821058497 3788.127950281935682 13521.76850798974374 
	448.4642385821103971 3830.303608674144471 13510.46670882873332 
	448.4642385821195489 3879.543032562073222 13502.10052830082168 
	448.4642385821301787 3935.642824096145432 13498.95006085980458 
	448.4642385821425137 3991.742627068545062 13502.10050661532478 
	448.4642385821548487 4040.982035115184317 13510.46671855204295 
	448.4642385821646258 4083.157724095832236 13521.76843276615728 
	448.4642385821676953 4130.259397660594004 13538.24866084019595 
	448.4642385821908874 4175.313626494919845 13559.94462365848267 
	448.4642385822036772 4212.284049431348649 13583.17665227886573 
	448.4642385822124879 4232.622271147711217 13597.60713857319934 
	448.4642385822143069 4257.352815670588825 13616.583398691615 
	448.46423858225711 4289.93917941437121 13645.70354427570055 
	448.4642385823268569 4327.379758817221045 13687.60018442865658 
	448.4642385823938753 4359.894359010356311 13733.4249970638557 
	448.4642385824747635 4387.07353279176823 13782.60234562576443 
	448.4642385825497399 4408.575963023599797 13834.51347281996641 
	448.4642385826440432 4421.538078808788669 13879.50708352029505 
	448.4642385826749091 4428.836955844402837 13916.20288978264762 
	448.464238582702194 4432.759728245890074 13943.98831040390178 
	448.4642385827336284 4434.725105295729918 13967.28972595478444 
	448.4642385827432918 4435.413407107670537 13983.63931397887791 
	448.4642385827464182 4435.585510485899249 13991.81893632265383 
	448.4642385827472708 4435.628537871287335 13995.90935059697586 
	448.4642385827474982 4435.64083145929726 13998.24681643111217 
	448.4642385827476687 4435.642880545507069 13999.4155636922078 
	448.464238582747555 4435.642880520932522 13999.99993733179872 
	531.7975719160808694 4435.642880520932522 13999.99993733179872 
	531.7975719160804147 4435.642880324333419 14004.67492644853519 
	531.7975719160706376 4435.511735268083612 14014.024905839864 
	531.7975719160623385 4434.725099645034788 14032.71014838779774 
	531.7975719160286872 4432.759716360860693 14056.01156289667597 
	531.7975719160006065 4428.836932272800368 14083.79697774977649 
	531.7975719159697974 4421.538051786181313 14120.49278774365303 
	531.7975719158663424 4408.575872876831454 14165.48635104605273 
	531.7975719157997219 4387.073468689142828 14217.39753076510169 
	531.7975719157149115 4366.688952988179153 14254.28040577724823 
	531.7975719157058165 4351.432169466376763 14277.82153289864982 
	531.7975719157016101 4343.476809240340117 14289.37361399008478 
	531.7975719156977448 4335.20048205238254 14300.697962240376 
	531.7975719156904688 4318.019384059613913 14322.87369746254808 
	531.7975719156387413 4289.938960846599002 14354.29615388339334 
	531.7975719155990646 4249.594070141371049 14390.34989076112652 
	531.7975719155605248 4203.987963219185986 14423.13894005506518 
	531.7975719155310799 4167.673321239978577 14443.50612751842891 
	531.7975719155298293 4137.541042570126592 14457.55623429151819 
	531.797571915518688 4103.067715608139224 14472.08968493851171 
	531.7975719154992476 4059.26520190893234 14485.60037561769241 
	531.7975719154933358 4010.233314588138001 14494.87632691569161 
	531.7975719154811713 3982.340379121106707 14498.01952331620123 
	531.7975719154802619 3963.679623810354315 14499.24251755029582 
	531.797571915479466 3951.22606752450065 14499.82515949554545 
	531.7975719154769649 3929.40944674702223 14500.23323400306072 
	531.7975719154691205 3898.242857399600325 14499.06711509443448 
	531.7975719154625267 3861.052097968245562 14494.8766933108036 
	531.7975719154558192 3824.278482911627179 14487.91876071353363 
	531.7975719154499075 3788.127659670512912 14478.23217112043312 
	531.7975719154444505 3752.801802172768021 14465.87111995221858 
	531.797571915439562 3718.498461751222749 14450.90472804107776 
	531.7975719154347871 3685.409486255666252 14433.4166886674775 
	531.7975719154306944 3653.719902816121703 14413.50482008076324 
	531.7975719154292165 3628.625769344054788 14394.98454104884513 
	531.7975719154275112 3609.422940815240963 14379.07425190650611 
	531.7975719154269427 3595.476998237037151 14366.61145130316254 
	531.7975719154260332 3582.006860918537768 14353.63585435534515 
	531.7975719154252374 3564.70603438983062 14335.67569399054628 
	531.7975719154225089 3544.36221711948383 14312.03578776086033 
	531.7975719154197805 3522.137788053374607 14281.92286421580138 
	531.7975719154184162 3502.226045946011254 14250.23322886754613 
	531.7975719154160288 3482.79464545676683 14213.46780681445853 
	531.7975719154135277 3465.016799061697384 14171.29380298760225 
	531.7975719154126182 3450.300263131729025 14123.58331950248794 
	531.7975719154101171 3442.880402031614267 14086.87935724228373 
	531.7975719154101171 3439.471796738931971 14062.17821301613549 
	531.7975719154100034 3437.610518256353771 14045.65926980466065 
	531.7975719154095486 3436.057290996525808 14024.93319099944347 
	531.7975719154090939 3435.435537592240053 13999.99992421281786 
	531.7975719154088665 3436.057207336967622 13975.06663023821238 
	531.7975719154090939 3437.921355072601727 13950.19538458200259 
	531.7975719154092076 3443.088998544183141 13908.94945232146893 
	531.7975719154101171 3456.070196179795857 13852.07133429553505 
	531.7975719154118224 3478.907747333629231 13793.8847983553369 
	531.7975719154126182 3499.311493029345002 13755.28150777571136 
	531.7975719154127319 3510.573009186704439 13736.59169878689863 
	531.7975719154128456 3517.304432752396224 13726.09796131511575 
	531.797571915413414 3534.620042131080936 13700.18246565739901 
	531.7975719154184162 3557.354423261795546 13671.6749683040307 
	531.797571915419212 3586.379733709797165 13641.91819907651006 
	531.7975719154203489 3610.756758469848137 13619.29880145097195 
	531.7975719154236458 3643.286776056026611 13593.3576560287911 
	531.7975719154289891 3692.217558031700264 13561.75276911499168 
	531.7975719154353555 3741.026182675762357 13538.2484805519689 
	531.7975719154391072 3788.127950281935227 13521.76850798974374 
	531.7975719154436547 3830.303608674144016 13510.46670882873332 
	531.797571915452977 3879.543032562072767 13502.10052830082168 
	531.7975719154634362 3935.642824096144977 13498.95006085980458 
	531.7975719154758281 3991.742627068544607 13502.10050661532478 
	531.7975719154881062 4040.982035115183862 13510.46671855204295 
	531.797571915497997 4083.157724095831782 13521.76843276615728 
	531.7975719155009529 4130.259397660594004 13538.24866084019595 
	531.7975719155242587 4175.313626494919845 13559.94462365848267 
	531.7975719155369916 4212.284049431348649 13583.17665227886573 
	531.7975719155458592 4232.622271147711217 13597.60713857319934 
	531.7975719155475645 4257.352815670588825 13616.583398691615 
	531.7975719155905381 4289.93917941437121 13645.70354427570055 
	531.7975719156601144 4327.379758817221045 13687.60018442865658 
	531.7975719157273033 4359.894359010356311 13733.4249970638557 
	531.797571915808021 4387.07353279176823 13782.60234562576443 
	531.7975719158830543 4408.575963023599797 13834.51347281996641 
	531.7975719159774144 4421.538078808788669 13879.50708352029505 
	531.7975719160081098 4428.836955844402837 13916.20288978264762 
	531.7975719160356221 4432.759728245890074 13943.98831040390178 
	531.7975719160667722 4434.725105295729918 13967.28972595478444 
	531.797571916076663 4435.413407107670537 13983.63931397887791 
	531.7975719160797325 4435.585510485899249 13991.81893632265383 
	531.7975719160805284 4435.628537871287335 13995.90935059697586 
	531.7975719160808694 4435.64083145929726 13998.24681643111217 
	531.7975719160809831 4435.642880545507069 13999.4155636922078 
	531.7975719160808694 4435.642880520932522 13999.99993733179872 
	0 
	
	0 
	0 
	89 0 0.004464285714285714038 0.008928571428571428076 0.01785714285714285615 0.02678571428571428423 0.0357142857142857123 0.05357142857142856845 0.07142857142857142461 0.08928571428571427382 0.09374999999999998612 0.09821428571428569843 0.1026785714285714246 0.1071428571428571369 0.125 0.1428571428571428492 0.1587301587301587213 0.1785714285714285476 0.1825396825396825295 0.1904761904761904656 0.2142857142857142738 0.226190476190476164 0.238095238095238082 0.2410714285714285476 0.2440476190476190133 0.2499999999999999722 0.2619047619047618625 0.2738095238095237804 0.2857142857142856984 0.2976190476190476164 0.3095238095238095344 0.3214285714285713969 0.3333333333333333148 0.3452380952380952328 0.3571428571428570953 0.3630952380952380265 0.3690476190476190133 0.375 0.3809523809523809312 0.3928571428571428492 0.4047619047619047672 0.4166666666666666297 0.4285714285714285476 0.4444444444444444198 0.4603174603174602919 0.476190476190476164 0.4801587301587301182 0.4841269841269840724 0.4920634920634920362 0.5 0.5079365079365079083 0.5158730158730158166 0.5238095238095237249 0.5476190476190475609 0.5714285714285713969 0.5833333333333332593 0.5892857142857141906 0.5922619047619046562 0.5952380952380951218 0.6190476190476189577 0.6269841269841269771 0.6349206349206348854 0.650793650793650702 0.6666666666666666297 0.6904761904761904656 0.7023809523809523281 0.7142857142857141906 0.7321428571428569843 0.749999999999999889 0.7678571428571427937 0.7857142857142855874 0.7976190476190474499 0.8095238095238094234 0.8333333333333332593 0.8452380952380951218 0.851190476190476053 0.8571428571428570953 0.875 0.8928571428571427937 0.9107142857142856984 0.9285714285714286031 0.9464285714285713969 0.9642857142857143016 0.9732142857142858094 0.9821428571428572063 0.9910714285714286031 0.9955357142857143016 0.9977678571428572063 0.9988839285714286031 0.9994419642857143016 
	0 
	0 
	0 
	F 1 F 0 F 1 F 0 } I I I I #
tcoedge-coedge $-1 -1 $-1 $14 $14 $18 $19 reversed $9 $20 -6.283185307179586232 -0 #
tcoedge-coedge $-1 -1 $-1 $21 $22 $11 $16 reversed $12 $23 -6.283185307179586232 -0 #
tedge-edge $-1 -1 $-1 $24 0 $24 6.283185307179586232 $15 $25 forward @7 unknown 0.0007419146367462093467 #
pcurve $-1 -1 $-1 0 forward { exppc nurbs 2 periodic 5 
	0 2 1.570796326794896558 2 3.141592653589793116 2 4.712388980384689674 2 6.283185307179586232 2 
	0 500 1 
	-500 500 0.707106781186543798 
	-500 0 1 
	-500 -500 0.7071067811865463515 
	0 -500 1 
	500 -500 0.7071067811865463515 
	500 0 1 
	500 500 0.707106781186543798 
	0 500 1 
	0 
	plane 531.797571915386925 3935.642797989816245 14000.00000000000182 1 -3.637978807091713027e-15 0 0 0 -1 forward_v I I I I 
	} 0 0 #
tcoedge-coedge $-1 -1 $-1 $22 $21 $14 $19 forward $12 $26 0 6.283185307179586232 #
tedge-edge $-1 -1 $-1 $27 0 $27 6.283185307179586232 $18 $28 forward @7 unknown 0.0007419146367549668813 #
pcurve $-1 -1 $-1 0 forward { exppc nurbs 2 periodic 5 
	-6.283185307179586232 2 -4.712388980384689674 2 -3.141592653589793116 2 -1.570796326794896558 2 0 2 
	0 500 1 
	500 500 0.707106781186543798 
	500 0 1 
	500 -500 0.7071067811865463515 
	0 -500 1 
	-500 -500 0.7071067811865463515 
	-500 0 1 
	-500 500 0.707106781186543798 
	0 500 1 
	0 
	plane 281.797571915386925 3935.642797989817154 14000.00000000000182 -1 3.637978807091713027e-15 -0 0 0 -1 reverse_v I I I I 
	} 0 0 #
coedge $-1 -1 $-1 $18 $15 $22 $29 reversed $12 $30 #
coedge $-1 -1 $-1 $15 $18 $21 $29 forward $12 $31 #
pcurve $-1 -1 $-1 0 forward { exppc nubs 1 periodic 2 
	-6.283185307179586232 1 -0 1 
	1 1 
	0 1 
	2.726396620975368931e-13 
	spline forward { ref 0 } I I I I 
	} 0 0 #
tvertex-vertex $-1 -1 $-1 $16 $32 0.0001036276551251002755 #
ellipse-curve $-1 -1 $-1 531.797571915386925 3935.642797989816245 14000.00000000000182 1 -3.637978807091713027e-15 0 1.818989403545856476e-12 500 0 1 I I #
pcurve $-1 -1 $-1 0 forward { exppc nubs 1 periodic 2 
	0 1 6.283185307179586232 1 
	0 0 
	1 0 
	4.411402399551011509e-13 
	spline forward { ref 0 } I I I I 
	} 0 0 #
tvertex-vertex $-1 -1 $-1 $19 $33 0.0001036276543990976705 #
ellipse-curve $-1 -1 $-1 281.797571915386925 3935.642797989817154 14000.00000000000182 1 -3.637978807091713027e-15 0 1.818989403545856476e-12 500 0 1 I I #
edge $-1 -1 $-1 $27 0 $24 1 $22 $34 forward @7 tangent #
pcurve $-1 -1 $-1 -1 $34 0 0 #
pcurve $-1 -1 $-1 1 $34 1 0 #
point $-1 -1 $-1 531.7975719153887439 4435.642797989816245 14000.00000000000182 #
point $-1 -1 $-1 281.7975719153887439 4435.642797989817154 14000.00000000000182 #
intcurve-curve $-1 -1 $-1 forward { parcur full nubs 3 open 2 
	0 3 1 3 
	281.7975719157553272 4435.642880520932522 13999.99993733179872 
	365.1309052490886415 4435.642880520931612 13999.99993733179872 
	448.464238582747555 4435.642880520932522 13999.99993733179872 
	531.7975719160808694 4435.642880520932522 13999.99993733179872 
	0 
	
	spline forward { ref 0 } I I I I 
	null_surface 
	nubs 1 open 2 
	0 1 1 1 
	0 0 
	0 1 
	
	nullbs 
	I I 
	0 
	0 
	0 
	surf1 } F 0 F 1 #
End-of-ACIS-data 