700 0 1 0           
4 LibG 20 ASM 224.0.1.65535 NT 24 Wed Jul 17 14:48:14 2019 
1000 9.999999999999999547e-07 1.000000000000000036e-10 
body $-1 -1 $-1 $1 $-1 $2 #
lump $-1 -1 $-1 $-1 $3 $0 #
transform $-1 -1 1 0 0 0 1 0 0 0 1 0 0 0 1 no_rotate no_reflect no_shear #
shell $-1 -1 $-1 $-1 $-1 $4 $-1 $1 #
face $-1 -1 $-1 $5 $6 $3 $-1 $7 forward single #
face $-1 -1 $-1 $8 $9 $3 $-1 $10 reversed single #
loop $-1 -1 $-1 $-1 $11 $4 #
plane-surface $-1 -1 $-1 7781.79757191538738 3935.642797989789869 14000.00000000000182 1 -3.637978807091713027e-15 0 0 0 -1 forward_v I I I I #
face $-1 -1 $-1 $-1 $12 $3 $-1 $13 forward single #
loop $-1 -1 $-1 $-1 $14 $5 #
plane-surface $-1 -1 $-1 7531.79757191538738 3935.642797989790779 14000.00000000000182 1 -3.637978807091713027e-15 0 0 0 -1 forward_v I I I I #
tcoedge-coedge $-1 -1 $-1 $11 $11 $15 $16 forward $6 $17 0 6.283185307179586232 #
loop $-1 -1 $-1 $-1 $18 $8 #
spline-surface $-1 -1 $-1 forward { exactsur full nubs 3 3 periodic open none none 102 2 
	0 3 0.001116071428571428509 1 0.002232142857142857019 1 0.004464285714285714038 1 0.008928571428571428076 1 
	0.01785714285714285615 1 0.0357142857142857123 1 0.05357142857142856845 1 0.07142857142857142461 1 0.08928571428571427382 1 
	0.1071428571428571369 1 0.1160714285714285754 1 0.125 1 0.1428571428571428492 1 0.1587301587301587213 1 
	0.1746031746031745935 1 0.1904761904761904656 1 0.2023809523809523836 1 0.2142857142857142738 1 0.226190476190476164 1 
	0.238095238095238082 1 0.2499999999999999722 1 0.2619047619047618625 1 0.2738095238095237804 1 0.2857142857142856984 1 
	0.2976190476190476164 1 0.3095238095238095344 1 0.3125 1 0.3154761904761904656 1 0.3214285714285713969 1 
	0.3273809523809523281 1 0.3333333333333333148 1 0.3452380952380952328 1 0.3571428571428570953 1 0.3630952380952380265 1 
	0.3690476190476190133 1 0.375 1 0.3809523809523809312 1 0.3839285714285713969 1 0.3869047619047618625 1 
	0.3898809523809523281 1 0.3928571428571428492 1 0.4047619047619047672 1 0.4166666666666666297 1 0.4285714285714285476 1 
	0.4444444444444444198 1 0.4603174603174602919 1 0.476190476190476164 1 0.4781746031746031411 1 0.4786706349206348854 1 
	0.4791666666666666297 1 0.4801587301587301182 1 0.4821428571428570953 1 0.4841269841269840724 1 0.4880952380952380265 1 
	0.4920634920634920362 1 0.5 1 0.5079365079365079083 1 0.5158730158730158166 1 0.5198412698412697708 1 
	0.5218253968253967479 1 0.5228174603174602364 1 0.5233134920634919807 1 0.5238095238095237249 1 0.5357142857142855874 1 
	0.5476190476190475609 1 0.5714285714285713969 1 0.5952380952380951218 1 0.6190476190476189577 1 0.6349206349206348854 1 
	0.650793650793650702 1 0.6666666666666666297 1 0.6785714285714286031 1 0.6904761904761904656 1 0.7023809523809523281 1 
	0.7142857142857141906 1 0.7321428571428569843 1 0.749999999999999889 1 0.7678571428571427937 1 0.7857142857142855874 1 
	0.7976190476190474499 1 0.8095238095238094234 1 0.8333333333333332593 1 0.8392857142857141906 1 0.8452380952380951218 1 
	0.8571428571428570953 1 0.875 1 0.8928571428571427937 1 0.9107142857142856984 1 0.9285714285714286031 1 
	0.9464285714285713969 1 0.9642857142857143016 1 0.9732142857142858094 1 0.9821428571428572063 1 0.9910714285714286031 1 
	0.9955357142857143016 1 0.9977678571428572063 1 0.9988839285714286031 1 0.9994419642857143016 1 0.9997209821428572063 1 
	0.9998604910714286031 1 1 3 
	0 3 1 3 
	7531.797571870180036 4435.642904593321873 13999.99989525471392 
	7531.797571870179127 4435.642904586709847 14001.16864252737105 
	7531.79757187020823 4435.634709182070765 14003.50613721059199 
	7531.797571870242791 4435.585533115515318 14008.18089619302373 
	7531.797571870381944 4435.413438430916358 14016.36051954525283 
	7531.797571870906722 4434.725082882270726 14032.71010195866984 
	7531.797571872591107 4431.973830767144136 14065.33211284034769 
	7531.797571878018061 4424.130798229428365 14111.4940803006175 
	7531.797571882398188 4408.575800194212206 14165.48634146004952 
	7531.797571887193044 4387.073504791504092 14217.39748012064229 
	7531.797571890848303 4359.894241573882937 14266.57480155486883 
	7531.797571894643625 4332.798672630159672 14304.76212460158968 
	7531.797571895650435 4308.659434917917679 14333.34799403543911 
	7531.797571896634508 4282.956058089654107 14360.53608130899192 
	7531.797571899405739 4249.594198822536782 14390.35005036039547 
	7531.797571901742231 4207.366029375378275 14420.70985322265733 
	7531.797571902975506 4164.126551720763018 14445.67404855793757 
	7531.797571903892276 4122.408898837062225 14464.4978631467784 
	7531.797571905046425 4083.157841180283867 14478.23210288914379 
	7531.797571905976838 4047.007064939286465 14487.91881002389528 
	7531.797571906399753 4010.233427757499157 14494.87665752640896 
	7531.797571907111887 3973.042680658797508 14499.06707435057979 
	7531.797571907774909 3935.64276512722472 14500.46647236656099 
	7531.797571908392456 3898.24285564909087 14499.06707142868072 
	7531.797571908953614 3861.052097324867191 14494.8766818562417 
	7531.79757190951841 3824.278484735018083 14487.91873622853382 
	7531.79757190995133 3788.12765736857682 14478.23216677238452 
	7531.797571910423358 3761.633274378358692 14468.96135847942605 
	7531.797571910479746 3744.28986956535482 14461.96669651179946 
	7531.797571910510669 3732.816801980027776 14457.08823846725318 
	7531.797571910605257 3718.650279929199769 14450.58948468385461 
	7531.797571910695297 3701.953952534508062 14442.16076506517675 
	7531.797571910791703 3680.127916187052051 14430.09801644495747 
	7531.797571911109117 3653.719899971005361 14413.50484897473689 
	7531.797571911200976 3628.625782507096574 14394.98454533236691 
	7531.797571911311024 3609.422947077268418 14379.07426720414514 
	7531.797571911357409 3595.477014223664355 14366.61145830741953 
	7531.797571911405612 3582.006857291437427 14353.63587981352248 
	7531.797571911447449 3571.193878024401329 14342.41074874894548 
	7531.797571911455634 3562.799864403197262 14333.19276688151149 
	7531.797571911464729 3556.634721621805511 14326.16277744795661 
	7531.797571911472005 3550.602118984899334 14319.01872743935746 
	7531.797571911484738 3538.806158594255066 14304.50755176197708 
	7531.797571911595696 3522.137790263627267 14281.92290045243317 
	7531.797571911623891 3502.226067074341245 14250.23325176428261 
	7531.797571911677551 3482.794661210705272 14213.46784409895372 
	7531.797571911681189 3465.016808195875456 14171.29384650729298 
	7531.797571911691193 3450.30030247852028 14123.58336293478715 
	7531.797571911591149 3443.292607620017407 14088.91852946420295 
	7531.797571911585692 3440.546635295310352 14069.89592868356704 
	7531.797571911582054 3440.125385676440601 14066.80786494610766 
	7531.797571911581144 3439.850972233222819 14064.74829021679034 
	7531.797571911580235 3439.387600489641045 14061.14181589288637 
	7531.797571911569321 3438.773833642125282 14055.98367046192106 
	7531.797571911558407 3437.894764702773045 14047.71903700560324 
	7531.797571911509294 3436.989246858694969 14037.36890139038405 
	7531.797571911472005 3435.953709470117246 14020.77771151810339 
	7531.797571911216437 3435.435521370496645 13999.99998615366712 
	7531.797571911126397 3436.057332896385105 13975.06671255385299 
	7531.797571910987244 3437.610522269774265 13954.34064192316691 
	7531.797571910897204 3439.239122389373733 13939.88656274627101 
	7531.797571910878105 3440.188351996903748 13932.67643236890217 
	7531.797571910873557 3440.696645759457624 13929.07601447749767 
	7531.797571910871739 3440.996715187943209 13927.02002126392472 
	7531.797571910874467 3442.98876884837 13913.66219774798446 
	7531.797571910921761 3447.72452062188222 13888.63589779900212 
	7531.797571910929037 3460.638332017781977 13840.43423432777854 
	7531.797571910907209 3483.474475975101996 13782.24736637797287 
	7531.797571910714396 3520.979191368081501 13717.28705662506763 
	7531.797571910542501 3562.550806897459552 13665.15904495644827 
	7531.797571910079569 3604.251200154239541 13624.48770056465219 
	7531.797571909885846 3643.286675820318578 13593.35757151659527 
	7531.797571909599355 3681.732974824981284 13568.52644697298274 
	7531.797571909197359 3718.498573913498149 13549.09553606027475 
	7531.797571909030921 3752.801829367381288 13534.12896069993985 
	7531.797571908545251 3788.127727097056322 13521.76816260474516 
	7531.7975719080423 3830.303555408579086 13510.46665673035386 
	7531.797571907569363 3879.542888938723536 13502.10031927532873 
	7531.797571906864505 3935.64274088451748 13498.94997002547825 
	7531.797571906096891 3991.742530426470239 13502.10040362200016 
	7531.797571905221048 4040.981956790681124 13510.46664756465725 
	7531.797571904636243 4083.157646240190388 13521.76837453554435 
	7531.797571904397955 4130.259246563016859 13538.24872449613758 
	7531.797571902829986 4169.681827954302207 13557.23243686498427 
	7531.797571902361597 4201.720937535388657 13576.53901997628964 
	7531.797571902132404 4222.584547902200939 13590.19895187774273 
	7531.79757190114924 4252.697667095562792 13612.42314924167113 
	7531.797571899162904 4289.938981362409322 13645.70364493171473 
	7531.797571896556292 4327.37973899121971 13687.60009449466816 
	7531.797571894349858 4359.894204939800147 13733.42501899884337 
	7531.797571890300787 4387.073640231074933 13782.6022191166121 
	7531.797571883604178 4408.575953208574902 13834.51342984864095 
	7531.797571877215887 4421.53811547650821 13879.50702398433714 
	7531.79757187497944 4428.836979040580445 13916.2028419033486 
	7531.797571873125889 4432.759755073009728 13943.98826304428985 
	7531.797571871071341 4434.725129346610629 13967.2896829256515 
	7531.797571870435604 4435.413431383384705 13983.63927153971781 
	7531.797571870242791 4435.585534651081616 13991.8188941833323 
	7531.797571870196407 4435.628561969387192 13995.90930850408949 
	7531.797571870182765 4435.639318940829071 13997.9545911227633 
	7531.797571870181855 4435.642008180281664 13998.9772418419343 
	7531.797571870180036 4435.64277654280977 13999.56161502962095 
	7531.797571870179127 4435.642904594148604 13999.8538018456311 
	7531.797571870180036 4435.642904593321873 13999.99989525471392 
	7615.130905203513066 4435.642904593320964 13999.99989525471392 
	7615.130905203512157 4435.642904586708937 14001.16864252737105 
	7615.130905203541261 4435.634709182069855 14003.50613721059199 
	7615.130905203575821 4435.585533115514409 14008.18089619302373 
	7615.130905203714974 4435.413438430915448 14016.36051954525283 
	7615.130905204239752 4434.725082882269817 14032.71010195866984 
	7615.130905205924137 4431.973830767143227 14065.33211284034769 
	7615.130905211351092 4424.130798229427455 14111.4940803006175 
	7615.130905215731218 4408.575800194211297 14165.48634146004952 
	7615.130905220526074 4387.073504791503183 14217.39748012064229 
	7615.130905224181333 4359.894241573882027 14266.57480155486883 
	7615.130905227976655 4332.798672630158762 14304.76212460158968 
	7615.130905228983465 4308.659434917916769 14333.34799403543911 
	7615.130905229967539 4282.956058089653197 14360.53608130899192 
	7615.130905232738769 4249.594198822535873 14390.35005036039547 
	7615.130905235075261 4207.366029375377366 14420.70985322265733 
	7615.130905236308536 4164.126551720762109 14445.67404855793757 
	7615.130905237225306 4122.408898837061315 14464.4978631467784 
	7615.130905238379455 4083.157841180283413 14478.23210288914379 
	7615.130905239309868 4047.00706493928601 14487.91881002389528 
	7615.130905239732783 4010.233427757498703 14494.87665752640896 
	7615.130905240444918 3973.042680658797053 14499.06707435057979 
	7615.130905241107939 3935.642765127224266 14500.46647236656099 
	7615.130905241725486 3898.242855649090416 14499.06707142868072 
	7615.130905242286644 3861.052097324866736 14494.8766818562417 
	7615.130905242851441 3824.278484735017628 14487.91873622853382 
	7615.13090524328436 3788.127657368576365 14478.23216677238452 
	7615.130905243756388 3761.633274378358237 14468.96135847942605 
	7615.130905243812776 3744.289869565354365 14461.96669651179946 
	7615.130905243843699 3732.816801980027321 14457.08823846725318 
	7615.130905243938287 3718.650279929199314 14450.58948468385461 
	7615.130905244028327 3701.953952534507607 14442.16076506517675 
	7615.130905244124733 3680.127916187051596 14430.09801644495747 
	7615.130905244442147 3653.719899971004907 14413.50484897473689 
	7615.130905244534006 3628.625782507096119 14394.98454533236691 
	7615.130905244644055 3609.422947077267963 14379.07426720414514 
	7615.130905244690439 3595.4770142236639 14366.61145830741953 
	7615.130905244738642 3582.006857291436972 14353.63587981352248 
	7615.130905244780479 3571.193878024400874 14342.41074874894548 
	7615.130905244788664 3562.799864403196807 14333.19276688151149 
	7615.130905244797759 3556.634721621805056 14326.16277744795661 
	7615.130905244805035 3550.60211898489888 14319.01872743935746 
	7615.130905244817768 3538.806158594254612 14304.50755176197708 
	7615.130905244928726 3522.137790263626812 14281.92290045243317 
	7615.130905244956921 3502.22606707434079 14250.23325176428261 
	7615.130905245010581 3482.794661210704817 14213.46784409895372 
	7615.130905245014219 3465.016808195875001 14171.29384650729298 
	7615.130905245024223 3450.300302478519825 14123.58336293478715 
	7615.130905244924179 3443.292607620016952 14088.91852946420295 
	7615.130905244918722 3440.546635295309898 14069.89592868356704 
	7615.130905244915084 3440.125385676440146 14066.80786494610766 
	7615.130905244914175 3439.850972233222365 14064.74829021679034 
	7615.130905244913265 3439.38760048964059 14061.14181589288637 
	7615.130905244902351 3438.773833642124828 14055.98367046192106 
	7615.130905244891437 3437.894764702772591 14047.71903700560324 
	7615.130905244842324 3436.989246858694514 14037.36890139038405 
	7615.130905244805035 3435.953709470116792 14020.77771151810339 
	7615.130905244549467 3435.43552137049619 13999.99998615366712 
	7615.130905244459427 3436.057332896384651 13975.06671255385299 
	7615.130905244320275 3437.61052226977381 13954.34064192316691 
	7615.130905244230235 3439.239122389373279 13939.88656274627101 
	7615.130905244211135 3440.188351996903293 13932.67643236890217 
	7615.130905244206588 3440.696645759457169 13929.07601447749767 
	7615.130905244204769 3440.996715187942755 13927.02002126392472 
	7615.130905244207497 3442.988768848369546 13913.66219774798446 
	7615.130905244254791 3447.724520621881766 13888.63589779900212 
	7615.130905244262067 3460.638332017781522 13840.43423432777854 
	7615.130905244240239 3483.474475975101541 13782.24736637797287 
	7615.130905244047426 3520.979191368081047 13717.28705662506763 
	7615.130905243875532 3562.550806897459097 13665.15904495644827 
	7615.130905243412599 3604.251200154239086 13624.48770056465219 
	7615.130905243218876 3643.286675820318123 13593.35757151659527 
	7615.130905242932386 3681.732974824980829 13568.52644697298274 
	7615.130905242530389 3718.498573913497694 13549.09553606027475 
	7615.130905242363951 3752.801829367380833 13534.12896069993985 
	7615.130905241878281 3788.127727097055867 13521.76816260474516 
	7615.130905241375331 3830.303555408578632 13510.46665673035386 
	7615.130905240902393 3879.542888938723081 13502.10031927532873 
	7615.130905240197535 3935.642740884517025 13498.94997002547825 
	7615.130905239429921 3991.742530426469784 13502.10040362200016 
	7615.130905238554078 4040.98195679068067 13510.46664756465725 
	7615.130905237969273 4083.157646240189933 13521.76837453554435 
	7615.130905237730985 4130.25924656301595 13538.24872449613758 
	7615.130905236163017 4169.681827954301298 13557.23243686498427 
	7615.130905235694627 4201.720937535387748 13576.53901997628964 
	7615.130905235465434 4222.584547902200029 13590.19895187774273 
	7615.13090523448227 4252.697667095561883 13612.42314924167113 
	7615.130905232495934 4289.938981362408413 13645.70364493171473 
	7615.130905229889322 4327.379738991218801 13687.60009449466816 
	7615.130905227682888 4359.894204939799238 13733.42501899884337 
	7615.130905223633818 4387.073640231074023 13782.6022191166121 
	7615.130905216937208 4408.575953208573992 13834.51342984864095 
	7615.130905210548917 4421.538115476507301 13879.50702398433714 
	7615.13090520831247 4428.836979040579536 13916.2028419033486 
	7615.13090520645892 4432.759755073008819 13943.98826304428985 
	7615.130905204404371 4434.72512934660972 13967.2896829256515 
	7615.130905203768634 4435.413431383383795 13983.63927153971781 
	7615.130905203575821 4435.585534651080707 13991.8188941833323 
	7615.130905203529437 4435.628561969386283 13995.90930850408949 
	7615.130905203515795 4435.639318940828161 13997.9545911227633 
	7615.130905203514885 4435.642008180280754 13998.9772418419343 
	7615.130905203513066 4435.642776542808861 13999.56161502962095 
	7615.130905203512157 4435.642904594147694 13999.8538018456311 
	7615.130905203513066 4435.642904593320964 13999.99989525471392 
	7698.464238535348159 4435.642904593321873 13999.99989525471392 
	7698.464238535349978 4435.642904586709847 14001.16864252737105 
	7698.464238535382719 4435.634709182070765 14003.50613721059199 
	7698.464238535416371 4435.585533115515318 14008.18089619302373 
	7698.464238535559161 4435.413438430916358 14016.36051954525283 
	7698.464238536103039 4434.725082882270726 14032.71010195866984 
	7698.464238537841084 4431.973830767144136 14065.33211284034769 
	7698.464238543448118 4424.130798229428365 14111.4940803006175 
	7698.464238547975583 4408.575800194212206 14165.48634146004952 
	7698.464238552929601 4387.073504791503183 14217.39748012064229 
	7698.464238556706732 4359.894241573882027 14266.57480155486883 
	7698.464238560626654 4332.798672630159672 14304.76212460158968 
	7698.464238561668026 4308.659434917916769 14333.34799403543911 
	7698.464238562683022 4282.956058089653197 14360.53608130899192 
	7698.464238565546111 4249.594198822535873 14390.35005036039547 
	7698.46423856795991 4207.366029375377366 14420.70985322265733 
	7698.464238569234112 4164.126551720762109 14445.67404855793757 
	7698.464238570180896 4122.408898837061315 14464.4978631467784 
	7698.464238571372334 4083.157841180283413 14478.23210288914379 
	7698.46423857233458 4047.007064939285556 14487.91881002389528 
	7698.464238572770228 4010.233427757498248 14494.87665752640896 
	7698.464238573506918 3973.042680658796144 14499.06707435057979 
	7698.464238574189949 3935.642765127224266 14500.46647236656099 
	7698.464238574828414 3898.242855649090416 14499.06707142868072 
	7698.464238575407762 3861.052097324866281 14494.8766818562417 
	7698.464238575991658 3824.278484735018083 14487.91873622853382 
	7698.464238576439129 3788.127657368576365 14478.23216677238452 
	7698.464238576925709 3761.633274378359147 14468.96135847942605 
	7698.464238576983917 3744.289869565355275 14461.96669651179946 
	7698.464238577016658 3732.816801980028231 14457.08823846725318 
	7698.464238577114884 3718.650279929200224 14450.58948468385461 
	7698.464238577206743 3701.953952534508517 14442.16076506517675 
	7698.464238577306787 3680.127916187052506 14430.09801644495747 
	7698.464238577635115 3653.719899971005816 14413.50484897473689 
	7698.464238577729702 3628.625782507097028 14394.98454533236691 
	7698.464238577844299 3609.422947077268873 14379.07426720414514 
	7698.464238577892502 3595.47701422366481 14366.61145830741953 
	7698.464238577943433 3582.006857291437882 14353.63587981352248 
	7698.46423857798527 3571.193878024401783 14342.41074874894548 
	7698.464238577995275 3562.799864403197716 14333.19276688151149 
	7698.46423857800437 3556.634721621805966 14326.16277744795661 
	7698.464238578012555 3550.602118984899789 14319.01872743935746 
	7698.464238578026198 3538.806158594255521 14304.50755176197708 
	7698.464238578139884 3522.137790263627721 14281.92290045243317 
	7698.464238578169898 3502.226067074341699 14250.23325176428261 
	7698.464238578223558 3482.794661210705726 14213.46784409895372 
	7698.464238578228105 3465.01680819587591 14171.29384650729298 
	7698.46423857823811 3450.300302478520734 14123.58336293478715 
	7698.464238578135337 3443.292607620017861 14088.91852946420295 
	7698.46423857812897 3440.546635295310807 14069.89592868356704 
	7698.464238578126242 3440.125385676441056 14066.80786494610766 
	7698.464238578125332 3439.850972233223274 14064.74829021679034 
	7698.464238578123513 3439.3876004896415 14061.14181589288637 
	7698.464238578110781 3438.773833642125737 14055.98367046192106 
	7698.464238578099867 3437.8947647027735 14047.71903700560324 
	7698.464238578048025 3436.989246858695424 14037.36890139038405 
	7698.464238578010736 3435.953709470117701 14020.77771151810339 
	7698.464238577746073 3435.435521370497099 13999.99998615366712 
	7698.464238577651486 3436.05733289638556 13975.06671255385299 
	7698.464238577509605 3437.610522269774265 13954.34064192316691 
	7698.464238577414108 3439.239122389373279 13939.88656274627101 
	7698.464238577395918 3440.188351996903748 13932.67643236890217 
	7698.46423857739137 3440.696645759457169 13929.07601447749767 
	7698.464238577388642 3440.996715187942755 13927.02002126392472 
	7698.46423857739137 3442.988768848369546 13913.66219774798446 
	7698.464238577440483 3447.724520621881311 13888.63589779900212 
	7698.464238577447759 3460.638332017781977 13840.43423432777854 
	7698.464238577425931 3483.474475975101541 13782.24736637797287 
	7698.464238577226752 3520.979191368081047 13717.28705662506763 
	7698.4642385770494 3562.550806897459552 13665.15904495644827 
	7698.464238576571006 3604.251200154239086 13624.48770056465219 
	7698.464238576370008 3643.286675820319033 13593.35757151659527 
	7698.464238576074422 3681.732974824981284 13568.52644697298274 
	7698.464238575658783 3718.498573913498149 13549.09553606027475 
	7698.464238575486888 3752.801829367381288 13534.12896069993985 
	7698.464238574983938 3788.127727097055867 13521.76816260474516 
	7698.464238574464616 3830.303555408578632 13510.46665673035386 
	7698.464238573974399 3879.542888938723991 13502.10031927532873 
	7698.464238573247712 3935.642740884517025 13498.94997002547825 
	7698.464238572455542 3991.742530426470694 13502.10040362200016 
	7698.464238571548776 4040.981956790681579 13510.46664756465725 
	7698.464238570946691 4083.157646240190843 13521.76837453554435 
	7698.464238570699308 4130.25924656301595 13538.24872449613758 
	7698.464238569079498 4169.681827954302207 13557.23243686498427 
	7698.464238568593828 4201.720937535387748 13576.53901997628964 
	7698.464238568358269 4222.584547902200029 13590.19895187774273 
	7698.464238567341454 4252.697667095561883 13612.42314924167113 
	7698.464238565290543 4289.938981362408413 13645.70364493171473 
	7698.464238562597529 4327.37973899121971 13687.60009449466816 
	7698.464238560319245 4359.894204939800147 13733.42501899884337 
	7698.464238556136479 4387.073640231074933 13782.6022191166121 
	7698.464238549217043 4408.575953208574902 13834.51342984864095 
	7698.464238542618659 4421.53811547650821 13879.50702398433714 
	7698.464238540307633 4428.836979040580445 13916.2028419033486 
	7698.464238538393147 4432.759755073009728 13943.98826304428985 
	7698.464238536268567 4434.725129346610629 13967.2896829256515 
	7698.464238535613731 4435.413431383384705 13983.63927153971781 
	7698.464238535411823 4435.585534651081616 13991.8188941833323 
	7698.46423853536453 4435.628561969387192 13995.90930850408949 
	7698.464238535350887 4435.639318940829071 13997.9545911227633 
	7698.464238535349978 4435.642008180281664 13998.9772418419343 
	7698.464238535349068 4435.64277654280977 13999.56161502962095 
	7698.464238535349068 4435.642904594148604 13999.8538018456311 
	7698.464238535348159 4435.642904593321873 13999.99989525471392 
	7781.797571868681189 4435.642904593321873 13999.99989525471392 
	7781.797571868683008 4435.642904586709847 14001.16864252737105 
	7781.79757186871575 4435.634709182070765 14003.50613721059199 
	7781.797571868749401 4435.585533115515318 14008.18089619302373 
	7781.797571868892192 4435.413438430916358 14016.36051954525283 
	7781.797571869436069 4434.725082882270726 14032.71010195866984 
	7781.797571871174114 4431.973830767144136 14065.33211284034769 
	7781.797571876781149 4424.130798229428365 14111.4940803006175 
	7781.797571881308613 4408.575800194212206 14165.48634146004952 
	7781.797571886262631 4387.073504791503183 14217.39748012064229 
	7781.797571890039762 4359.894241573882027 14266.57480155486883 
	7781.797571893959685 4332.798672630159672 14304.76212460158968 
	7781.797571895001056 4308.659434917916769 14333.34799403543911 
	7781.797571896016052 4282.956058089653197 14360.53608130899192 
	7781.797571898879141 4249.594198822535873 14390.35005036039547 
	7781.79757190129294 4207.366029375377366 14420.70985322265733 
	7781.797571902567142 4164.126551720762109 14445.67404855793757 
	7781.797571903513926 4122.408898837061315 14464.4978631467784 
	7781.797571904705364 4083.157841180282958 14478.23210288914379 
	7781.79757190566761 4047.007064939285101 14487.91881002389528 
	7781.797571906103258 4010.233427757497793 14494.87665752640896 
	7781.797571906839948 3973.042680658795689 14499.06707435057979 
	7781.797571907522979 3935.642765127223811 14500.46647236656099 
	7781.797571908161444 3898.242855649089961 14499.06707142868072 
	7781.797571908740792 3861.052097324865827 14494.8766818562417 
	7781.797571909324688 3824.278484735017628 14487.91873622853382 
	7781.797571909772159 3788.12765736857591 14478.23216677238452 
	7781.797571910258739 3761.633274378358692 14468.96135847942605 
	7781.797571910316947 3744.28986956535482 14461.96669651179946 
	7781.797571910349689 3732.816801980027776 14457.08823846725318 
	7781.797571910447914 3718.650279929199769 14450.58948468385461 
	7781.797571910539773 3701.953952534508062 14442.16076506517675 
	7781.797571910639817 3680.127916187052051 14430.09801644495747 
	7781.797571910968145 3653.719899971005361 14413.50484897473689 
	7781.797571911062732 3628.625782507096574 14394.98454533236691 
	7781.797571911177329 3609.422947077268418 14379.07426720414514 
	7781.797571911225532 3595.477014223664355 14366.61145830741953 
	7781.797571911276464 3582.006857291437427 14353.63587981352248 
	7781.7975719113183 3571.193878024401329 14342.41074874894548 
	7781.797571911328305 3562.799864403197262 14333.19276688151149 
	7781.7975719113374 3556.634721621805511 14326.16277744795661 
	7781.797571911345585 3550.602118984899334 14319.01872743935746 
	7781.797571911359228 3538.806158594255066 14304.50755176197708 
	7781.797571911472915 3522.137790263627267 14281.92290045243317 
	7781.797571911502928 3502.226067074341245 14250.23325176428261 
	7781.797571911556588 3482.794661210705272 14213.46784409895372 
	7781.797571911561135 3465.016808195875456 14171.29384650729298 
	7781.79757191157114 3450.30030247852028 14123.58336293478715 
	7781.797571911468367 3443.292607620017407 14088.91852946420295 
	7781.797571911462001 3440.546635295310352 14069.89592868356704 
	7781.797571911459272 3440.125385676440601 14066.80786494610766 
	7781.797571911458363 3439.850972233222819 14064.74829021679034 
	7781.797571911456544 3439.387600489641045 14061.14181589288637 
	7781.797571911443811 3438.773833642125282 14055.98367046192106 
	7781.797571911432897 3437.894764702773045 14047.71903700560324 
	7781.797571911381056 3436.989246858694969 14037.36890139038405 
	7781.797571911343766 3435.953709470117246 14020.77771151810339 
	7781.797571911079103 3435.435521370496645 13999.99998615366712 
	7781.797571910984516 3436.057332896385105 13975.06671255385299 
	7781.797571910842635 3437.61052226977381 13954.34064192316691 
	7781.797571910747138 3439.239122389372824 13939.88656274627101 
	7781.797571910728948 3440.188351996903293 13932.67643236890217 
	7781.7975719107244 3440.696645759456715 13929.07601447749767 
	7781.797571910721672 3440.9967151879423 13927.02002126392472 
	7781.7975719107244 3442.988768848369091 13913.66219774798446 
	7781.797571910773513 3447.724520621880856 13888.63589779900212 
	7781.797571910780789 3460.638332017781522 13840.43423432777854 
	7781.797571910758961 3483.474475975101086 13782.24736637797287 
	7781.797571910559782 3520.979191368080592 13717.28705662506763 
	7781.79757191038243 3562.550806897459097 13665.15904495644827 
	7781.797571909904036 3604.251200154238632 13624.48770056465219 
	7781.797571909703038 3643.286675820318578 13593.35757151659527 
	7781.797571909407452 3681.732974824980829 13568.52644697298274 
	7781.797571908991813 3718.498573913497694 13549.09553606027475 
	7781.797571908819918 3752.801829367380833 13534.12896069993985 
	7781.797571908316968 3788.127727097055413 13521.76816260474516 
	7781.797571907797646 3830.303555408578177 13510.46665673035386 
	7781.797571907307429 3879.542888938723536 13502.10031927532873 
	7781.797571906580743 3935.64274088451657 13498.94997002547825 
	7781.797571905788573 3991.742530426470239 13502.10040362200016 
	7781.797571904881806 4040.981956790681124 13510.46664756465725 
	7781.797571904279721 4083.157646240190388 13521.76837453554435 
	7781.797571904032338 4130.25924656301595 13538.24872449613758 
	7781.797571902412528 4169.681827954302207 13557.23243686498427 
	7781.797571901926858 4201.720937535387748 13576.53901997628964 
	7781.797571901691299 4222.584547902200029 13590.19895187774273 
	7781.797571900674484 4252.697667095561883 13612.42314924167113 
	7781.797571898623573 4289.938981362408413 13645.70364493171473 
	7781.79757189593056 4327.37973899121971 13687.60009449466816 
	7781.797571893652275 4359.894204939800147 13733.42501899884337 
	7781.797571889469509 4387.073640231074933 13782.6022191166121 
	7781.797571882550073 4408.575953208574902 13834.51342984864095 
	7781.797571875951689 4421.53811547650821 13879.50702398433714 
	7781.797571873640663 4428.836979040580445 13916.2028419033486 
	7781.797571871726177 4432.759755073009728 13943.98826304428985 
	7781.797571869601597 4434.725129346610629 13967.2896829256515 
	7781.797571868946761 4435.413431383384705 13983.63927153971781 
	7781.797571868744853 4435.585534651081616 13991.8188941833323 
	7781.79757186869756 4435.628561969387192 13995.90930850408949 
	7781.797571868683917 4435.639318940829071 13997.9545911227633 
	7781.797571868683008 4435.642008180281664 13998.9772418419343 
	7781.797571868682098 4435.64277654280977 13999.56161502962095 
	7781.797571868682098 4435.642904594148604 13999.8538018456311 
	7781.797571868681189 4435.642904593321873 13999.99989525471392 
	0 
	
	0 
	0 
	99 0 0.001116071428571428509 0.002232142857142857019 0.004464285714285714038 0.008928571428571428076 0.01785714285714285615 0.0357142857142857123 0.05357142857142856845 0.07142857142857142461 0.08928571428571427382 0.1071428571428571369 0.1160714285714285754 0.125 0.1428571428571428492 0.1587301587301587213 0.1746031746031745935 0.1904761904761904656 0.2023809523809523836 0.2142857142857142738 0.226190476190476164 0.238095238095238082 0.2499999999999999722 0.2619047619047618625 0.2738095238095237804 0.2857142857142856984 0.2976190476190476164 0.3095238095238095344 0.3125 0.3154761904761904656 0.3214285714285713969 0.3273809523809523281 0.3333333333333333148 0.3452380952380952328 0.3571428571428570953 0.3630952380952380265 0.3690476190476190133 0.375 0.3809523809523809312 0.3839285714285713969 0.3869047619047618625 0.3898809523809523281 0.3928571428571428492 0.4047619047619047672 0.4166666666666666297 0.4285714285714285476 0.4444444444444444198 0.4603174603174602919 0.476190476190476164 0.4781746031746031411 0.4786706349206348854 0.4791666666666666297 0.4801587301587301182 0.4841269841269840724 0.4880952380952380265 0.4920634920634920362 0.5 0.5079365079365079083 0.5158730158730158166 0.5198412698412697708 0.5218253968253967479 0.5228174603174602364 0.5233134920634919807 0.5238095238095237249 0.5357142857142855874 0.5476190476190475609 0.5714285714285713969 0.5952380952380951218 0.6190476190476189577 0.6349206349206348854 0.650793650793650702 0.6666666666666666297 0.6785714285714286031 0.6904761904761904656 0.7023809523809523281 0.7142857142857141906 0.7321428571428569843 0.749999999999999889 0.7678571428571427937 0.7857142857142855874 0.7976190476190474499 0.8095238095238094234 0.8333333333333332593 0.8392857142857141906 0.8452380952380951218 0.8571428571428570953 0.875 0.8928571428571427937 0.9107142857142856984 0.9285714285714286031 0.9464285714285713969 0.9642857142857143016 0.9732142857142858094 0.9821428571428572063 0.9910714285714286031 0.9955357142857143016 0.9977678571428572063 0.9994419642857143016 0.9997209821428572063 0.9998604910714286031 
	0 
	0 
	0 
	F 1 F 0 F 1 F 0 } I I I I #
tcoedge-coedge $-1 -1 $-1 $14 $14 $18 $19 reversed $9 $20 -6.283185307179586232 -0 #
tcoedge-coedge $-1 -1 $-1 $21 $22 $11 $16 reversed $12 $23 -6.283185307179586232 -0 #
tedge-edge $-1 -1 $-1 $24 0 $24 6.283185307179586232 $15 $25 forward @7 unknown 0.0007283157706889839805 #
pcurve $-1 -1 $-1 0 forward { exppc nurbs 2 periodic 5 
	0 2 1.570796326794896558 2 3.141592653589793116 2 4.712388980384689674 2 6.283185307179586232 2 
	0 500 1 
	-500 500 0.707106781186543798 
	-500 0 1 
	-500 -500 0.7071067811865463515 
	0 -500 1 
	500 -500 0.7071067811865463515 
	500 0 1 
	500 500 0.707106781186543798 
	0 500 1 
	0 
	plane 7781.79757191538738 3935.642797989789869 14000.00000000000182 1 -3.637978807091713027e-15 0 0 0 -1 forward_v I I I I 
	} 0 0 #
tcoedge-coedge $-1 -1 $-1 $22 $21 $14 $19 forward $12 $26 0 6.283185307179586232 #
tedge-edge $-1 -1 $-1 $27 0 $27 6.283185307179586232 $18 $28 forward @7 unknown 0.0007283157710679977496 #
pcurve $-1 -1 $-1 0 forward { exppc nurbs 2 periodic 5 
	-6.283185307179586232 2 -4.712388980384689674 2 -3.141592653589793116 2 -1.570796326794896558 2 0 2 
	0 500 1 
	500 500 0.707106781186543798 
	500 0 1 
	500 -500 0.7071067811865463515 
	0 -500 1 
	-500 -500 0.7071067811865463515 
	-500 0 1 
	-500 500 0.707106781186543798 
	0 500 1 
	0 
	plane 7531.79757191538738 3935.642797989790779 14000.00000000000182 -1 3.637978807091713027e-15 -0 0 0 -1 reverse_v I I I I 
	} 0 0 #
coedge $-1 -1 $-1 $18 $15 $22 $29 reversed $12 $30 #
coedge $-1 -1 $-1 $15 $18 $21 $29 forward $12 $31 #
pcurve $-1 -1 $-1 0 forward { exppc nubs 1 periodic 2 
	-6.283185307179586232 1 -0 1 
	1 1 
	0 1 
	0 
	spline forward { ref 0 } I I I I 
	} 0 0 #
tvertex-vertex $-1 -1 $-1 $16 $32 0.0001494519773821427922 #
ellipse-curve $-1 -1 $-1 7781.79757191538738 3935.642797989789869 14000.00000000000182 1 -3.637978807091713027e-15 0 1.818989403545856476e-12 500 0 1 I I #
pcurve $-1 -1 $-1 0 forward { exppc nubs 1 periodic 2 
	0 1 6.283185307179586232 1 
	0 0 
	1 0 
	2.726396620975368931e-13 
	spline forward { ref 0 } I I I I 
	} 0 0 #
tvertex-vertex $-1 -1 $-1 $19 $33 0.0001494519762724869679 #
ellipse-curve $-1 -1 $-1 7531.79757191538738 3935.642797989790779 14000.00000000000182 1 -3.637978807091713027e-15 0 1.818989403545856476e-12 500 0 1 I I #
edge $-1 -1 $-1 $27 1.808366508736117443e-10 $24 1 $22 $34 forward @7 tangent #
pcurve $-1 -1 $-1 -1 $34 0 0 #
pcurve $-1 -1 $-1 1 $34 1 0 #
point $-1 -1 $-1 7781.797571915389199 4435.642797989789869 14000.00000000000182 #
point $-1 -1 $-1 7531.797571915389199 4435.642797989790779 14000.00000000000182 #
intcurve-curve $-1 -1 $-1 forward { parcur full nubs 3 open 2 
	0 3 1 3 
	7531.797571870180036 4435.642904593321873 13999.99989525471392 
	7615.130905203513066 4435.642904593320964 13999.99989525471392 
	7698.464238535348159 4435.642904593321873 13999.99989525471392 
	7781.797571868681189 4435.642904593321873 13999.99989525471392 
	0 
	
	spline forward { ref 0 } I I I I 
	null_surface 
	nubs 1 open 2 
	0 1 1 1 
	0 0 
	0 1 
	
	nullbs 
	I I 
	0 
	0 
	0 
	surf1 } F 1.808366508736117443e-10 F 1 #
End-of-ACIS-data 