700 0 1 0           
4 LibG 20 ASM 224.0.1.65535 NT 24 Wed Jul 17 14:48:14 2019 
1000 9.999999999999999547e-07 1.000000000000000036e-10 
body $-1 -1 $-1 $1 $-1 $2 #
lump $-1 -1 $-1 $-1 $3 $0 #
transform $-1 -1 1 0 0 0 1 0 0 0 1 0 0 0 1 no_rotate no_reflect no_shear #
shell $-1 -1 $-1 $-1 $-1 $4 $-1 $1 #
face $-1 -1 $-1 $5 $6 $3 $-1 $7 forward single #
face $-1 -1 $-1 $8 $9 $3 $-1 $10 reversed single #
loop $-1 -1 $-1 $-1 $11 $4 #
plane-surface $-1 -1 $-1 6281.79757191538738 3935.642797989795326 14000.00000000000182 1 -3.637978807091713027e-15 0 0 0 -1 forward_v I I I I #
face $-1 -1 $-1 $-1 $12 $3 $-1 $13 forward single #
loop $-1 -1 $-1 $-1 $14 $5 #
plane-surface $-1 -1 $-1 6031.79757191538738 3935.642797989796236 14000.00000000000182 1 -3.637978807091713027e-15 0 0 0 -1 forward_v I I I I #
tcoedge-coedge $-1 -1 $-1 $11 $11 $15 $16 forward $6 $17 0 6.283185307179586232 #
loop $-1 -1 $-1 $-1 $18 $8 #
spline-surface $-1 -1 $-1 forward { exactsur full nubs 3 3 periodic open none none 90 2 
	0 3 0.001116071428571428509 1 0.002232142857142857019 1 0.004464285714285714038 1 0.008928571428571428076 1 
	0.01785714285714285615 1 0.0357142857142857123 1 0.05357142857142856845 1 0.07142857142857142461 1 0.08928571428571427382 1 
	0.1071428571428571369 1 0.1160714285714285754 1 0.125 1 0.1428571428571428492 1 0.1587301587301587213 1 
	0.1746031746031745935 1 0.1904761904761904656 1 0.2023809523809523836 1 0.2142857142857142738 1 0.238095238095238082 1 
	0.2619047619047618625 1 0.2857142857142856984 1 0.2976190476190476164 1 0.3095238095238095344 1 0.3154761904761904656 1 
	0.3214285714285713969 1 0.3333333333333333148 1 0.3452380952380952328 1 0.3571428571428570953 1 0.3690476190476190133 1 
	0.375 1 0.3779761904761904656 1 0.3809523809523809312 1 0.3869047619047618625 1 0.3928571428571428492 1 
	0.4047619047619047672 1 0.4166666666666666297 1 0.4285714285714285476 1 0.4444444444444444198 1 0.4603174603174602919 1 
	0.476190476190476164 1 0.4801587301587301182 1 0.4821428571428570953 1 0.4841269841269840724 1 0.4861111111111110494 1 
	0.4880952380952380265 1 0.4900793650793650036 1 0.4910714285714284921 1 0.4915674603174602364 1 0.491815476190476164 1 
	0.4920634920634920362 1 0.5158730158730158166 1 0.5238095238095237249 1 0.5357142857142855874 1 0.5476190476190475609 1 
	0.5595238095238095344 1 0.5714285714285713969 1 0.5952380952380951218 1 0.6190476190476189577 1 0.6349206349206348854 1 
	0.650793650793650702 1 0.6666666666666666297 1 0.6904761904761904656 1 0.7023809523809523281 1 0.7142857142857141906 1 
	0.7321428571428569843 1 0.749999999999999889 1 0.7678571428571427937 1 0.7857142857142855874 1 0.8095238095238094234 1 
	0.8214285714285713969 1 0.8333333333333332593 1 0.8452380952380951218 1 0.8571428571428570953 1 0.875 1 
	0.8928571428571427937 1 0.9107142857142856984 1 0.9285714285714286031 1 0.9464285714285713969 1 0.9642857142857143016 1 
	0.9732142857142858094 1 0.9821428571428572063 1 0.9910714285714286031 1 0.9955357142857143016 1 0.9977678571428572063 1 
	0.9988839285714286031 1 0.9994419642857143016 1 0.9997209821428572063 1 0.9998604910714286031 1 1 3 
	0 3 1 3 
	6031.797571900297044 4435.642813196992392 14000.00002372679046 
	6031.797571900300682 4435.642813194363043 14001.16877098302029 
	6031.797571900310686 4435.634617834865821 14003.5062654737103 
	6031.797571900327057 4435.585441817273932 14008.18102424000244 
	6031.797571900378898 4435.413347317264197 14016.36064664587138 
	6031.79757190059081 4434.724992523237233 14032.71022535997326 
	6031.797571901262927 4431.97374226080774 14065.33222319999186 
	6031.79757190343571 4424.130717556988202 14111.49414831519789 
	6031.797571905182849 4408.575721112846622 14165.48636741918926 
	6031.797571907121892 4387.073436488437437 14217.39746761603055 
	6031.797571908586178 4359.894161471768712 14266.57473369421677 
	6031.797571910179613 4332.798621694453686 14304.76204375439556 
	6031.797571910559782 4308.659343620317486 14333.34785216318414 
	6031.797571911111845 4282.956071216223791 14360.53604723325952 
	6031.797571911381965 4249.59418381442083 14390.34992741349197 
	6031.797571912662534 4207.365963426046619 14420.70968385398373 
	6031.797571912768944 4164.126537300725431 14445.67387712997515 
	6031.797571913034517 4122.408864369511321 14464.49775883926304 
	6031.79757191324461 4083.157743031251357 14478.23155687243889 
	6031.79757191351473 4034.956951232775282 14491.14851188950161 
	6031.797571913865795 3973.14768367103261 14500.46600792834579 
	6031.797571914473338 3898.1379241807158 14500.46559367923692 
	6031.797571915001754 3836.328573172391771 14491.1487150614812 
	6031.797571915109074 3788.127693685341001 14478.23197866956798 
	6031.797571915397384 3758.689398788282233 14467.93155676320748 
	6031.797571915470144 3735.650081316463911 14458.38811118113881 
	6031.797571915555636 3712.983603968351872 14447.990215451322 
	6031.797571915807566 3685.409439717493115 14433.41682116614356 
	6031.797571916097695 3653.719857796917495 14413.50492189195393 
	6031.797571916194102 3623.606887553867182 14391.28057536173401 
	6031.797571916347806 3599.966991572254756 14370.93672145750315 
	6031.797571916387824 3584.251847942325185 14355.79850026030908 
	6031.797571916403285 3575.519025024148505 14346.9008342473735 
	6031.797571916415109 3566.954103445196324 14337.84143024565674 
	6031.797571916462402 3556.568417929633597 14326.21982380908776 
	6031.797571916507877 3540.658156567836159 14307.01697485247132 
	6031.797571916726156 3522.137748413837471 14281.92290555265026 
	6031.797571916869856 3502.225993008428759 14250.23326039163112 
	6031.79757191709723 3482.794613628010211 14213.46782211785649 
	6031.797571917511959 3465.016683057325281 14171.29383501139273 
	6031.797571917674759 3450.300048104188136 14123.58336845181657 
	6031.797571918759786 3442.880168777602648 14086.87935843204468 
	6031.797571918874382 3439.755617152172363 14064.23663809756181 
	6031.79757191889621 3438.773573931216106 14055.98360694198527 
	6031.797571918912581 3438.114277721581857 14049.78513021804065 
	6031.797571918929862 3437.532297015138738 14043.5789172393288 
	6031.797571918944413 3437.027735526825836 14037.36593102488587 
	6031.797571918962603 3436.671838689738252 14032.18360304205817 
	6031.797571918969879 3436.456649705445216 14028.55385605178526 
	6031.797571918970789 3436.357534340355414 14026.73850578494603 
	6031.797571918970789 3436.303332103204866 14025.70103456867764 
	6031.797571918852555 3435.01433960045506 14000.28092645522884 
	6031.797571918397807 3435.853174855818452 13966.69363953172979 
	6031.797571918305948 3441.539725034401272 13921.32329415863387 
	6031.797571918031281 3447.724139407710481 13888.63562475482468 
	6031.797571917843015 3457.410784180720839 13852.48474613971121 
	6031.797571917626556 3469.772012400415406 13817.15900189359672 
	6031.797571917410096 3489.726312055072412 13771.42079800807005 
	6031.797571916747984 3520.978892574750262 13717.28659417726521 
	6031.797571916203196 3562.551257389023704 13665.15895671243743 
	6031.797571915840308 3604.250977256302122 13624.48693162362724 
	6031.797571915699336 3643.286845567322871 13593.35737569055891 
	6031.797571915498338 3692.217816372819016 13561.75280747069883 
	6031.797571915126355 3741.026349775493145 13538.24831856124911 
	6031.797571914989931 3788.12814576024175 13521.76839730720349 
	6031.797571914809851 3830.303804539588327 13510.46651862504768 
	6031.79757191448607 3879.543204191027144 13502.10042543301279 
	6031.797571914130458 3935.643086044742631 13498.94961637818415 
	6031.797571913757565 3991.742708482757735 13502.10066290217219 
	6031.797571913290085 4053.292484699047691 13512.55667313558479 
	6031.797571912774401 4107.049654169785754 13529.13949206182042 
	6031.797571912645253 4152.787031442232546 13549.09585135006819 
	6031.797571912384228 4185.876184318050946 13566.58335780251946 
	6031.797571912094099 4217.565606841663794 13586.49551298846745 
	6031.797571911801242 4252.697612313472746 13612.42357003066718 
	6031.797571910991792 4289.938960738654714 13645.70406690646269 
	6031.797571910452461 4327.379664979219342 13687.6004832477538 
	6031.797571908520695 4359.894149937839757 13733.42537669906233 
	6031.797571906671692 4387.073421870870334 13782.60258061115928 
	6031.797571904833603 4408.575842987846045 13834.51368260062009 
	6031.797571902637173 4421.537996571282747 13879.50721657655595 
	6031.797571901931406 4428.836876351043429 13916.20300956598294 
	6031.797571901299307 4432.75965512320272 13943.988414737114 
	6031.797571900606272 4434.725036216340413 13967.28981765873687 
	6031.797571900387084 4435.413339417339557 13983.63940169448506 
	6031.797571900319781 4435.585443149875573 13991.8190230373657 
	6031.797571900301591 4435.628470542532341 13995.90943707629776 
	6031.797571900297953 4435.639227537833904 13997.95471962031115 
	6031.797571900297953 4435.641916781703003 13998.97737032242549 
	6031.797571900295225 4435.642685145568066 13999.56174350536276 
	6031.797571900297044 4435.64281319732072 13999.85393031976128 
	6031.797571900297044 4435.642813196992392 14000.00002372679046 
	6115.130905233630074 4435.642813196991483 14000.00002372679046 
	6115.130905233633712 4435.642813194362134 14001.16877098302029 
	6115.130905233643716 4435.634617834864912 14003.5062654737103 
	6115.130905233660087 4435.585441817273022 14008.18102424000244 
	6115.130905233711928 4435.413347317263288 14016.36064664587138 
	6115.130905233923841 4434.724992523236324 14032.71022535997326 
	6115.130905234595957 4431.97374226080683 14065.33222319999186 
	6115.13090523676874 4424.130717556987292 14111.49414831519789 
	6115.130905238515879 4408.575721112845713 14165.48636741918926 
	6115.130905240454922 4387.073436488436528 14217.39746761603055 
	6115.130905241919208 4359.894161471767802 14266.57473369421677 
	6115.130905243512643 4332.798621694452777 14304.76204375439556 
	6115.130905243892812 4308.659343620316577 14333.34785216318414 
	6115.130905244444875 4282.956071216222881 14360.53604723325952 
	6115.130905244714995 4249.594183814419921 14390.34992741349197 
	6115.130905245995564 4207.36596342604571 14420.70968385398373 
	6115.130905246101975 4164.126537300724522 14445.67387712997515 
	6115.130905246367547 4122.408864369510411 14464.49775883926304 
	6115.13090524657764 4083.157743031250902 14478.23155687243889 
	6115.13090524684776 4034.956951232774827 14491.14851188950161 
	6115.130905247198825 3973.147683671032155 14500.46600792834579 
	6115.130905247806368 3898.137924180715345 14500.46559367923692 
	6115.130905248334784 3836.328573172391316 14491.1487150614812 
	6115.130905248442104 3788.127693685340546 14478.23197866956798 
	6115.130905248730414 3758.689398788281778 14467.93155676320748 
	6115.130905248803174 3735.650081316463456 14458.38811118113881 
	6115.130905248888666 3712.983603968351417 14447.990215451322 
	6115.130905249140596 3685.40943971749266 14433.41682116614356 
	6115.130905249430725 3653.71985779691704 14413.50492189195393 
	6115.130905249527132 3623.606887553866727 14391.28057536173401 
	6115.130905249680836 3599.966991572254301 14370.93672145750315 
	6115.130905249720854 3584.25184794232473 14355.79850026030908 
	6115.130905249736315 3575.51902502414805 14346.9008342473735 
	6115.130905249748139 3566.954103445195869 14337.84143024565674 
	6115.130905249795433 3556.568417929633142 14326.21982380908776 
	6115.130905249840907 3540.658156567835704 14307.01697485247132 
	6115.130905250059186 3522.137748413837016 14281.92290555265026 
	6115.130905250202886 3502.225993008428304 14250.23326039163112 
	6115.13090525043026 3482.794613628009756 14213.46782211785649 
	6115.130905250844989 3465.016683057324826 14171.29383501139273 
	6115.130905251007789 3450.300048104187681 14123.58336845181657 
	6115.130905252092816 3442.880168777602194 14086.87935843204468 
	6115.130905252207413 3439.755617152171908 14064.23663809756181 
	6115.13090525222924 3438.773573931215651 14055.98360694198527 
	6115.130905252245611 3438.114277721581402 14049.78513021804065 
	6115.130905252262892 3437.532297015138283 14043.5789172393288 
	6115.130905252277444 3437.027735526825381 14037.36593102488587 
	6115.130905252295634 3436.671838689737797 14032.18360304205817 
	6115.13090525230291 3436.456649705444761 14028.55385605178526 
	6115.130905252303819 3436.35753434035496 14026.73850578494603 
	6115.130905252303819 3436.303332103204411 14025.70103456867764 
	6115.130905252185585 3435.014339600454605 14000.28092645522884 
	6115.130905251730837 3435.853174855817997 13966.69363953172979 
	6115.130905251638978 3441.539725034400817 13921.32329415863387 
	6115.130905251364311 3447.724139407710027 13888.63562475482468 
	6115.130905251176046 3457.410784180720384 13852.48474613971121 
	6115.130905250959586 3469.772012400414951 13817.15900189359672 
	6115.130905250743126 3489.726312055071958 13771.42079800807005 
	6115.130905250081014 3520.978892574749807 13717.28659417726521 
	6115.130905249536227 3562.551257389023249 13665.15895671243743 
	6115.130905249173338 3604.250977256301667 13624.48693162362724 
	6115.130905249032367 3643.286845567322416 13593.35737569055891 
	6115.130905248831368 3692.217816372818561 13561.75280747069883 
	6115.130905248459385 3741.02634977549269 13538.24831856124911 
	6115.130905248322961 3788.128145760241296 13521.76839730720349 
	6115.130905248142881 3830.303804539587873 13510.46651862504768 
	6115.130905247819101 3879.543204191026689 13502.10042543301279 
	6115.130905247463488 3935.643086044742176 13498.94961637818415 
	6115.130905247090595 3991.74270848275728 13502.10066290217219 
	6115.130905246623115 4053.292484699047236 13512.55667313558479 
	6115.130905246107432 4107.049654169784844 13529.13949206182042 
	6115.130905245978283 4152.787031442231637 13549.09585135006819 
	6115.130905245717258 4185.876184318050036 13566.58335780251946 
	6115.13090524542713 4217.565606841662884 13586.49551298846745 
	6115.130905245134272 4252.697612313471836 13612.42357003066718 
	6115.130905244324822 4289.938960738653805 13645.70406690646269 
	6115.130905243785492 4327.379664979218433 13687.6004832477538 
	6115.130905241853725 4359.894149937838847 13733.42537669906233 
	6115.130905240004722 4387.073421870869424 13782.60258061115928 
	6115.130905238166633 4408.575842987845135 13834.51368260062009 
	6115.130905235970204 4421.537996571281838 13879.50721657655595 
	6115.130905235264436 4428.83687635104252 13916.20300956598294 
	6115.130905234632337 4432.75965512320181 13943.988414737114 
	6115.130905233939302 4434.725036216339504 13967.28981765873687 
	6115.130905233720114 4435.413339417338648 13983.63940169448506 
	6115.130905233652811 4435.585443149874664 13991.8190230373657 
	6115.130905233634621 4435.628470542531431 13995.90943707629776 
	6115.130905233630983 4435.639227537832994 13997.95471962031115 
	6115.130905233630983 4435.641916781702093 13998.97737032242549 
	6115.130905233628255 4435.642685145567157 13999.56174350536276 
	6115.130905233630074 4435.642813197319811 13999.85393031976128 
	6115.130905233630074 4435.642813196991483 14000.00002372679046 
	6198.464238566339191 4435.642813196989664 14000.00002372679046 
	6198.464238566341919 4435.642813194361224 14001.16877098302029 
	6198.464238566351924 4435.634617834863093 14003.5062654737103 
	6198.464238566367385 4435.585441817270294 14008.18102424000244 
	6198.464238566422864 4435.413347317261469 14016.36064664587138 
	6198.464238566644781 4434.724992523233595 14032.71022535997326 
	6198.464238567345092 4431.973742260805011 14065.33222319999186 
	6198.464238569607915 4424.130717556985473 14111.49414831519789 
	6198.464238571426904 4408.575721112844803 14165.48636741918926 
	6198.464238573446892 4387.073436488434709 14217.39746761603055 
	6198.464238574970295 4359.894161471766893 14266.57473369421677 
	6198.464238576631033 4332.798621694450958 14304.76204375439556 
	6198.464238577024844 4308.659343620315667 14333.34785216318414 
	6198.464238577599644 4282.956071216221972 14360.53604723325952 
	6198.464238577883407 4249.594183814419921 14390.34992741349197 
	6198.464238579216726 4207.36596342604571 14420.70968385398373 
	6198.464238579328594 4164.126537300724522 14445.67387712997515 
	6198.46423857960508 4122.408864369510411 14464.49775883926304 
	6198.464238579823359 4083.157743031249993 14478.23155687243889 
	6198.464238580104393 4034.956951232774372 14491.14851188950161 
	6198.4642385804691 3973.147683671031245 14500.46600792834579 
	6198.464238581103018 3898.137924180716254 14500.46559367923692 
	6198.464238581650534 3836.328573172390861 14491.1487150614812 
	6198.464238581763311 3788.127693685341001 14478.23197866956798 
	6198.464238582062535 3758.689398788281778 14467.93155676320748 
	6198.464238582138933 3735.650081316463911 14458.38811118113881 
	6198.464238582228973 3712.983603968351417 14447.990215451322 
	6198.464238582490907 3685.409439717493115 14433.41682116614356 
	6198.464238582793769 3653.71985779691704 14413.50492189195393 
	6198.464238582893813 3623.606887553867182 14391.28057536173401 
	6198.464238583053884 3599.96699157225521 14370.93672145750315 
	6198.46423858309663 3584.251847942325639 14355.79850026030908 
	6198.464238583112092 3575.519025024148959 14346.9008342473735 
	6198.464238583124825 3566.954103445196324 14337.84143024565674 
	6198.464238583174847 3556.568417929633597 14326.21982380908776 
	6198.46423858322305 3540.658156567835704 14307.01697485247132 
	6198.464238583450424 3522.137748413837016 14281.92290555265026 
	6198.464238583599581 3502.225993008428304 14250.23326039163112 
	6198.46423858383605 3482.794613628009756 14213.46782211785649 
	6198.46423858426715 3465.016683057324826 14171.29383501139273 
	6198.464238584436316 3450.300048104186772 14123.58336845181657 
	6198.464238585565909 3442.880168777601739 14086.87935843204468 
	6198.464238585685962 3439.755617152170544 14064.23663809756181 
	6198.46423858570779 3438.773573931214742 14055.98360694198527 
	6198.46423858572507 3438.114277721580947 14049.78513021804065 
	6198.464238585742351 3437.532297015137374 14043.5789172393288 
	6198.464238585759631 3437.027735526824472 14037.36593102488587 
	6198.464238585776911 3436.671838689737342 14032.18360304205817 
	6198.464238585785097 3436.456649705443397 14028.55385605178526 
	6198.464238585786006 3436.35753434035405 14026.73850578494603 
	6198.464238585786916 3436.303332103203047 14025.70103456867764 
	6198.464238585662315 3435.014339600453695 14000.28092645522884 
	6198.464238585188468 3435.853174855817088 13966.69363953172979 
	6198.464238585092971 3441.539725034399908 13921.32329415863387 
	6198.46423858480739 3447.724139407710027 13888.63562475482468 
	6198.464238584610939 3457.410784180719475 13852.48474613971121 
	6198.464238584384475 3469.772012400414496 13817.15900189359672 
	6198.46423858415892 3489.726312055071503 13771.42079800807005 
	6198.464238583470433 3520.978892574748443 13717.28659417726521 
	6198.464238582902908 3562.551257389022339 13665.15895671243743 
	6198.464238582524558 3604.250977256300757 13624.48693162362724 
	6198.464238582376311 3643.286845567321507 13593.35737569055891 
	6198.464238582167127 3692.217816372818106 13561.75280747069883 
	6198.464238581780592 3741.026349775491326 13538.24831856124911 
	6198.464238581637801 3788.128145760240386 13521.76839730720349 
	6198.464238581450445 3830.303804539586963 13510.46651862504768 
	6198.464238581113023 3879.543204191025325 13502.10042543301279 
	6198.464238580744677 3935.643086044740357 13498.94961637818415 
	6198.464238580354504 3991.742708482755006 13502.10066290217219 
	6198.464238579868834 4053.292484699044053 13512.55667313558479 
	6198.464238579333141 4107.049654169782116 13529.13949206182042 
	6198.464238579197627 4152.787031442227999 13549.09585135006819 
	6198.464238578927507 4185.876184318047308 13566.58335780251946 
	6198.464238578624645 4217.565606841659246 13586.49551298846745 
	6198.464238578319964 4252.697612313469108 13612.42357003066718 
	6198.464238577475953 4289.938960738651986 13645.70406690646269 
	6198.464238576915704 4327.379664979216614 13687.6004832477538 
	6198.464238574902083 4359.894149937837028 13733.42537669906233 
	6198.464238572976683 4387.073421870867605 13782.60258061115928 
	6198.464238571063106 4408.575842987842407 13834.51368260062009 
	6198.464238568773908 4421.537996571279109 13879.50721657655595 
	6198.464238568039036 4428.836876351038882 13916.20300956598294 
	6198.464238567382381 4432.759655123198172 13943.988414737114 
	6198.464238566659333 4434.725036216334956 13967.28981765873687 
	6198.464238566432869 4435.41333941733501 13983.63940169448506 
	6198.464238566361018 4435.585443149871026 13991.8190230373657 
	6198.464238566343738 4435.628470542527793 13995.90943707629776 
	6198.464238566338281 4435.639227537830266 13997.95471962031115 
	6198.464238566339191 4435.641916781699365 13998.97737032242549 
	6198.464238566338281 4435.642685145565338 13999.56174350536276 
	6198.464238566338281 4435.642813197318901 13999.85393031976128 
	6198.464238566339191 4435.642813196989664 14000.00002372679046 
	6281.797571899672221 4435.642813196989664 14000.00002372679046 
	6281.797571899674949 4435.642813194361224 14001.16877098302029 
	6281.797571899684954 4435.634617834863093 14003.5062654737103 
	6281.797571899700415 4435.585441817270294 14008.18102424000244 
	6281.797571899755894 4435.413347317261469 14016.36064664587138 
	6281.797571899977811 4434.724992523233595 14032.71022535997326 
	6281.797571900678122 4431.973742260805011 14065.33222319999186 
	6281.797571902940945 4424.130717556985473 14111.49414831519789 
	6281.797571904759934 4408.575721112844803 14165.48636741918926 
	6281.797571906779922 4387.073436488434709 14217.39746761603055 
	6281.797571908303325 4359.894161471766893 14266.57473369421677 
	6281.797571909964063 4332.798621694450958 14304.76204375439556 
	6281.797571910357874 4308.659343620315667 14333.34785216318414 
	6281.797571910932675 4282.956071216221972 14360.53604723325952 
	6281.797571911216437 4249.594183814419921 14390.34992741349197 
	6281.797571912549756 4207.36596342604571 14420.70968385398373 
	6281.797571912661624 4164.126537300724522 14445.67387712997515 
	6281.79757191293811 4122.408864369510411 14464.49775883926304 
	6281.797571913156389 4083.157743031249538 14478.23155687243889 
	6281.797571913437423 4034.956951232773918 14491.14851188950161 
	6281.79757191380213 3973.147683671030791 14500.46600792834579 
	6281.797571914436048 3898.1379241807158 14500.46559367923692 
	6281.797571914983564 3836.328573172390406 14491.1487150614812 
	6281.797571915096341 3788.127693685340546 14478.23197866956798 
	6281.797571915395565 3758.689398788281324 14467.93155676320748 
	6281.797571915471963 3735.650081316463456 14458.38811118113881 
	6281.797571915562003 3712.983603968350963 14447.990215451322 
	6281.797571915823937 3685.40943971749266 14433.41682116614356 
	6281.797571916126799 3653.719857796916585 14413.50492189195393 
	6281.797571916226843 3623.606887553866727 14391.28057536173401 
	6281.797571916386914 3599.966991572254756 14370.93672145750315 
	6281.797571916429661 3584.251847942325185 14355.79850026030908 
	6281.797571916445122 3575.519025024148505 14346.9008342473735 
	6281.797571916457855 3566.954103445195869 14337.84143024565674 
	6281.797571916507877 3556.568417929633142 14326.21982380908776 
	6281.79757191655608 3540.658156567835249 14307.01697485247132 
	6281.797571916783454 3522.137748413836562 14281.92290555265026 
	6281.797571916932611 3502.225993008427849 14250.23326039163112 
	6281.79757191716908 3482.794613628009301 14213.46782211785649 
	6281.79757191760018 3465.016683057324371 14171.29383501139273 
	6281.797571917769346 3450.300048104186317 14123.58336845181657 
	6281.797571918898939 3442.880168777601284 14086.87935843204468 
	6281.797571919018992 3439.755617152170089 14064.23663809756181 
	6281.79757191904082 3438.773573931214287 14055.98360694198527 
	6281.7975719190581 3438.114277721580493 14049.78513021804065 
	6281.797571919075381 3437.532297015136919 14043.5789172393288 
	6281.797571919092661 3437.027735526824017 14037.36593102488587 
	6281.797571919109942 3436.671838689736887 14032.18360304205817 
	6281.797571919118127 3436.456649705442942 14028.55385605178526 
	6281.797571919119036 3436.357534340353595 14026.73850578494603 
	6281.797571919119946 3436.303332103202592 14025.70103456867764 
	6281.797571918995345 3435.014339600453241 14000.28092645522884 
	6281.797571918521498 3435.853174855816633 13966.69363953172979 
	6281.797571918426002 3441.539725034399453 13921.32329415863387 
	6281.79757191814042 3447.724139407709572 13888.63562475482468 
	6281.797571917943969 3457.41078418071902 13852.48474613971121 
	6281.797571917717505 3469.772012400414042 13817.15900189359672 
	6281.79757191749195 3489.726312055071048 13771.42079800807005 
	6281.797571916803463 3520.978892574747988 13717.28659417726521 
	6281.797571916235938 3562.551257389021885 13665.15895671243743 
	6281.797571915857588 3604.250977256300303 13624.48693162362724 
	6281.797571915709341 3643.286845567321052 13593.35737569055891 
	6281.797571915500157 3692.217816372817651 13561.75280747069883 
	6281.797571915113622 3741.026349775490871 13538.24831856124911 
	6281.797571914970831 3788.128145760239931 13521.76839730720349 
	6281.797571914783475 3830.303804539586508 13510.46651862504768 
	6281.797571914446053 3879.54320419102487 13502.10042543301279 
	6281.797571914077707 3935.643086044739903 13498.94961637818415 
	6281.797571913687534 3991.742708482754551 13502.10066290217219 
	6281.797571913201864 4053.292484699043598 13512.55667313558479 
	6281.797571912666172 4107.049654169782116 13529.13949206182042 
	6281.797571912530657 4152.787031442227999 13549.09585135006819 
	6281.797571912260537 4185.876184318047308 13566.58335780251946 
	6281.797571911957675 4217.565606841659246 13586.49551298846745 
	6281.797571911652994 4252.697612313469108 13612.42357003066718 
	6281.797571910808983 4289.938960738651986 13645.70406690646269 
	6281.797571910248735 4327.379664979216614 13687.6004832477538 
	6281.797571908235113 4359.894149937837028 13733.42537669906233 
	6281.797571906309713 4387.073421870867605 13782.60258061115928 
	6281.797571904396136 4408.575842987842407 13834.51368260062009 
	6281.797571902106938 4421.537996571279109 13879.50721657655595 
	6281.797571901372066 4428.836876351038882 13916.20300956598294 
	6281.797571900715411 4432.759655123198172 13943.988414737114 
	6281.797571899992363 4434.725036216334956 13967.28981765873687 
	6281.797571899765899 4435.41333941733501 13983.63940169448506 
	6281.797571899694049 4435.585443149871026 13991.8190230373657 
	6281.797571899676768 4435.628470542527793 13995.90943707629776 
	6281.797571899671311 4435.639227537830266 13997.95471962031115 
	6281.797571899672221 4435.641916781699365 13998.97737032242549 
	6281.797571899671311 4435.642685145565338 13999.56174350536276 
	6281.797571899671311 4435.642813197318901 13999.85393031976128 
	6281.797571899672221 4435.642813196989664 14000.00002372679046 
	0 
	
	0 
	0 
	88 0 0.001116071428571428509 0.002232142857142857019 0.004464285714285714038 0.008928571428571428076 0.01785714285714285615 0.0357142857142857123 0.05357142857142856845 0.07142857142857142461 0.08928571428571427382 0.1071428571428571369 0.1160714285714285754 0.125 0.1428571428571428492 0.1587301587301587213 0.1746031746031745935 0.1904761904761904656 0.2023809523809523836 0.2142857142857142738 0.238095238095238082 0.2619047619047618625 0.2857142857142856984 0.2976190476190476164 0.3095238095238095344 0.3154761904761904656 0.3214285714285713969 0.3333333333333333148 0.3452380952380952328 0.3571428571428570953 0.3690476190476190133 0.375 0.3779761904761904656 0.3809523809523809312 0.3869047619047618625 0.3928571428571428492 0.4047619047619047672 0.4166666666666666297 0.4285714285714285476 0.4444444444444444198 0.4603174603174602919 0.476190476190476164 0.4801587301587301182 0.4821428571428570953 0.4841269841269840724 0.4861111111111110494 0.4880952380952380265 0.4900793650793650036 0.4910714285714284921 0.4915674603174602364 0.491815476190476164 0.4920634920634920362 0.5158730158730158166 0.5238095238095237249 0.5357142857142855874 0.5476190476190475609 0.5595238095238095344 0.5714285714285713969 0.5952380952380951218 0.6190476190476189577 0.6349206349206348854 0.650793650793650702 0.6666666666666666297 0.6904761904761904656 0.7023809523809523281 0.7142857142857141906 0.7321428571428569843 0.749999999999999889 0.7678571428571427937 0.7857142857142855874 0.8095238095238094234 0.8214285714285713969 0.8333333333333332593 0.8452380952380951218 0.8571428571428570953 0.875 0.8928571428571427937 0.9107142857142856984 0.9285714285714286031 0.9464285714285713969 0.9642857142857143016 0.9732142857142858094 0.9821428571428572063 0.9910714285714286031 0.9955357142857143016 0.9977678571428572063 0.9994419642857143016 0.9997209821428572063 0.9998604910714286031 
	0 
	0 
	0 
	F 1 F 0 F 1 F 0 } I I I I #
tcoedge-coedge $-1 -1 $-1 $14 $14 $18 $19 reversed $9 $20 -6.283185307179586232 -0 #
tcoedge-coedge $-1 -1 $-1 $21 $22 $11 $16 reversed $12 $23 -6.283185307179586232 -0 #
tedge-edge $-1 -1 $-1 $24 0 $24 6.283185307179586232 $15 $25 forward @7 unknown 0.0007894547274284787614 #
pcurve $-1 -1 $-1 0 forward { exppc nurbs 2 periodic 5 
	0 2 1.570796326794896558 2 3.141592653589793116 2 4.712388980384689674 2 6.283185307179586232 2 
	0 500 1 
	-500 500 0.707106781186543798 
	-500 0 1 
	-500 -500 0.7071067811865463515 
	0 -500 1 
	500 -500 0.7071067811865463515 
	500 0 1 
	500 500 0.707106781186543798 
	0 500 1 
	0 
	plane 6281.79757191538738 3935.642797989795326 14000.00000000000182 1 -3.637978807091713027e-15 0 0 0 -1 forward_v I I I I 
	} 0 0 #
tcoedge-coedge $-1 -1 $-1 $22 $21 $14 $19 forward $12 $26 0 6.283185307179586232 #
tedge-edge $-1 -1 $-1 $27 0 $27 6.283185307179586232 $18 $28 forward @7 unknown 0.0007894547266536830607 #
pcurve $-1 -1 $-1 0 forward { exppc nurbs 2 periodic 5 
	-6.283185307179586232 2 -4.712388980384689674 2 -3.141592653589793116 2 -1.570796326794896558 2 0 2 
	0 500 1 
	500 500 0.707106781186543798 
	500 0 1 
	500 -500 0.7071067811865463515 
	0 -500 1 
	-500 -500 0.7071067811865463515 
	-500 0 1 
	-500 500 0.707106781186543798 
	0 500 1 
	0 
	plane 6031.79757191538738 3935.642797989796236 14000.00000000000182 -1 3.637978807091713027e-15 -0 0 0 -1 reverse_v I I I I 
	} 0 0 #
coedge $-1 -1 $-1 $18 $15 $22 $29 reversed $12 $30 #
coedge $-1 -1 $-1 $15 $18 $21 $29 forward $12 $31 #
pcurve $-1 -1 $-1 0 forward { exppc nubs 1 periodic 2 
	-6.283185307179586232 1 -0 1 
	1 1 
	0 1 
	0 
	spline forward { ref 0 } I I I I 
	} 0 0 #
tvertex-vertex $-1 -1 $-1 $16 $32 2.818191032333155387e-05 #
ellipse-curve $-1 -1 $-1 6281.79757191538738 3935.642797989795326 14000.00000000000182 1 -3.637978807091713027e-15 0 1.818989403545856476e-12 500 0 1 I I #
pcurve $-1 -1 $-1 0 forward { exppc nubs 1 periodic 2 
	0 1 6.283185307179586232 1 
	0 0 
	1 0 
	2.726396620975368931e-13 
	spline forward { ref 0 } I I I I 
	} 0 0 #
tvertex-vertex $-1 -1 $-1 $19 $33 2.818191096333812917e-05 #
ellipse-curve $-1 -1 $-1 6031.79757191538738 3935.642797989796236 14000.00000000000182 1 -3.637978807091713027e-15 0 1.818989403545856476e-12 500 0 1 I I #
edge $-1 -1 $-1 $27 0 $24 1 $22 $34 forward @7 tangent #
pcurve $-1 -1 $-1 -1 $34 0 0 #
pcurve $-1 -1 $-1 1 $34 1 0 #
point $-1 -1 $-1 6281.797571915389199 4435.642797989795326 14000.00000000000182 #
point $-1 -1 $-1 6031.797571915389199 4435.642797989796236 14000.00000000000182 #
intcurve-curve $-1 -1 $-1 forward { parcur full nubs 3 open 2 
	0 3 1 3 
	6031.797571900297044 4435.642813196992392 14000.00002372679046 
	6115.130905233630074 4435.642813196991483 14000.00002372679046 
	6198.464238566339191 4435.642813196989664 14000.00002372679046 
	6281.797571899672221 4435.642813196989664 14000.00002372679046 
	0 
	
	spline forward { ref 0 } I I I I 
	null_surface 
	nubs 1 open 2 
	0 1 1 1 
	0 0 
	0 1 
	
	nullbs 
	I I 
	0 
	0 
	0 
	surf1 } I I #
End-of-ACIS-data 