700 0 1 0           
4 LibG 20 ASM 224.0.1.65535 NT 24 Wed Jul 17 14:48:14 2019 
1000 9.999999999999999547e-07 1.000000000000000036e-10 
body $-1 -1 $-1 $1 $-1 $2 #
lump $-1 -1 $-1 $-1 $3 $0 #
transform $-1 -1 1 0 0 0 1 0 0 0 1 0 0 0 1 no_rotate no_reflect no_shear #
shell $-1 -1 $-1 $-1 $-1 $4 $-1 $1 #
face $-1 -1 $-1 $5 $6 $3 $-1 $7 forward single #
face $-1 -1 $-1 $8 $9 $3 $-1 $10 reversed single #
loop $-1 -1 $-1 $-1 $11 $4 #
plane-surface $-1 -1 $-1 7531.79757191538738 3935.642797989790779 14000.00000000000182 1 -3.637978807091713027e-15 0 0 0 -1 forward_v I I I I #
face $-1 -1 $-1 $-1 $12 $3 $-1 $13 forward single #
loop $-1 -1 $-1 $-1 $14 $5 #
plane-surface $-1 -1 $-1 7281.79757191538738 3935.642797989791688 14000.00000000000182 1 -3.637978807091713027e-15 0 0 0 -1 forward_v I I I I #
tcoedge-coedge $-1 -1 $-1 $11 $11 $15 $16 forward $6 $17 0 6.283185307179586232 #
loop $-1 -1 $-1 $-1 $18 $8 #
spline-surface $-1 -1 $-1 forward { exactsur full nubs 3 3 periodic open none none 97 2 
	0 3 0.001116071428571428509 1 0.002232142857142857019 1 0.004464285714285714038 1 0.008928571428571428076 1 
	0.01785714285714285615 1 0.0357142857142857123 1 0.05357142857142856845 1 0.07142857142857142461 1 0.08928571428571427382 1 
	0.1071428571428571369 1 0.1160714285714285754 1 0.125 1 0.1428571428571428492 1 0.1587301587301587213 1 
	0.1746031746031745935 1 0.1904761904761904656 1 0.2023809523809523836 1 0.2142857142857142738 1 0.226190476190476164 1 
	0.238095238095238082 1 0.2499999999999999722 1 0.2619047619047618625 1 0.2738095238095237804 1 0.2857142857142856984 1 
	0.2976190476190476164 1 0.3095238095238095344 1 0.3125 1 0.3154761904761904656 1 0.3214285714285713969 1 
	0.3273809523809523281 1 0.3333333333333333148 1 0.3452380952380952328 1 0.3571428571428570953 1 0.3690476190476190133 1 
	0.375 1 0.3779761904761904656 1 0.3809523809523809312 1 0.3869047619047618625 1 0.3898809523809523281 1 
	0.3928571428571428492 1 0.4047619047619047672 1 0.4166666666666666297 1 0.4285714285714285476 1 0.4444444444444444198 1 
	0.4603174603174602919 1 0.476190476190476164 1 0.4771825396825396526 1 0.4781746031746031411 1 0.4791666666666666297 1 
	0.4801587301587301182 1 0.4841269841269840724 1 0.4880952380952380265 1 0.4900793650793650036 1 0.4920634920634920362 1 
	0.5158730158730158166 1 0.5178571428571427937 1 0.5198412698412697708 1 0.5218253968253967479 1 0.5238095238095237249 1 
	0.5476190476190475609 1 0.5714285714285713969 1 0.5952380952380951218 1 0.6190476190476189577 1 0.6349206349206348854 1 
	0.650793650793650702 1 0.6666666666666666297 1 0.6785714285714286031 1 0.6904761904761904656 1 0.7023809523809523281 1 
	0.7142857142857141906 1 0.7321428571428569843 1 0.749999999999999889 1 0.7678571428571427937 1 0.7857142857142855874 1 
	0.7976190476190474499 1 0.8095238095238094234 1 0.8333333333333332593 1 0.8392857142857141906 1 0.8452380952380951218 1 
	0.8571428571428570953 1 0.875 1 0.8928571428571427937 1 0.9107142857142856984 1 0.9285714285714286031 1 
	0.9464285714285713969 1 0.9642857142857143016 1 0.9732142857142858094 1 0.9821428571428572063 1 0.9910714285714286031 1 
	0.9955357142857143016 1 0.9977678571428572063 1 0.9988839285714286031 1 0.9994419642857143016 1 0.9997209821428572063 1 
	0.9998604910714286031 1 1 3 
	0 3 1 3 
	7281.797572011507327 4435.642906000100993 13999.99989401426865 
	7281.797572011505508 4435.642905992951455 14001.16864128702764 
	7281.797572011431839 4435.634710581942272 14003.50613597125266 
	7281.797572011365446 4435.585534507897137 14008.18089495475942 
	7281.797572011066222 4435.413439791155724 14016.36051831140321 
	7281.797572009943906 4434.725084108338706 14032.71010074089281 
	7281.797572006338669 4431.973831537266051 14065.3321116730458 
	7281.797571994713508 4424.13079736967029 14111.49407928886831 
	7281.797571985332979 4408.575797866759785 14165.48634056771334 
	7281.797571975063875 4387.073500670488102 14217.3974793531288 
	7281.797571967226759 4359.894235926318288 14266.57480087791191 
	7281.797571959099514 4332.798665152224203 14304.76212401272278 
	7281.797571956933098 4308.659426885017638 14333.347993468602 
	7281.797571954816704 4282.95604943222861 14360.53608076419368 
	7281.797571948855875 4249.594188256901361 14390.35004987470893 
	7281.797571943814546 4207.366016737858445 14420.70985277749242 
	7281.797571941150636 4164.126538029484436 14445.67404813795474 
	7281.797571939157933 4122.408883840739691 14464.49786272925849 
	7281.797571936640452 4083.157824614110268 14478.23210247992938 
	7281.797571934600455 4047.007046672412343 14487.91880961625793 
	7281.797571933672771 4010.233408736306501 14494.87665712055059 
	7281.797571932092978 3973.042659846778861 14499.06707394008481 
	7281.79757193061414 3935.642742491443187 14500.46647195194055 
	7281.797571929226251 3898.242830986429453 14499.06707100059793 
	7281.797571927952959 3861.052070595963414 14494.87668142530129 
	7281.797571926670571 3824.278455543464588 14487.9187357615574 
	7281.797571925667398 3788.127626055806104 14478.2321663340208 
	7281.797571924576005 3761.633240412193118 14468.96135794180009 
	7281.79757192443958 3744.28983514091442 14461.96669606697833 
	7281.797571924371368 3732.816767534221526 14457.08823779783597 
	7281.797571924141266 3718.650243836547816 14450.58948494636388 
	7281.797571923926625 3701.953917499384715 14442.16076315748433 
	7281.797571923698342 3680.12787462320739 14430.09802065206168 
	7281.797571922851603 3653.719875455805322 14413.50482937171364 
	7281.79757192265788 3623.606893020384632 14391.28050979476757 
	7281.797571921811141 3599.966992729011054 14370.93666995117201 
	7281.79757192168745 3584.251848011246238 14355.7984540876605 
	7281.797571921628332 3575.519023542759442 14346.90079030484958 
	7281.797571921599229 3566.954105943054401 14337.8413838807428 
	7281.797571921463714 3558.645542869942346 14328.54411357289064 
	7281.797571921436429 3550.602074981709393 14319.01871154015134 
	7281.79757192138095 3538.806111490103376 14304.50753721827095 
	7281.797571920924383 3522.137749206283388 14281.92287834463968 
	7281.797571920718838 3502.225994505499784 14250.23324264204894 
	7281.797571920485098 3482.794658498422905 14213.46779783541206 
	7281.797571920269547 3465.016615914620616 14171.29388347000349 
	7281.797571920054907 3450.300207199532906 14123.58335207405617 
	7281.797571919782968 3443.498541651909363 14089.9380963675012 
	7281.797571919759321 3440.769119195416806 14071.43831104127094 
	7281.797571919759321 3440.333435353037203 14068.35223922521436 
	7281.797571919758411 3439.917000791412647 14065.2635110252686 
	7281.797571919755683 3439.122645696771542 14059.08098358697316 
	7281.797571919749316 3438.075719502106494 14049.78907492281178 
	7281.797571919744769 3437.170149616807066 14039.43893840904821 
	7281.797571919745678 3436.600787976889023 14031.14721589721739 
	7281.797571919747497 3434.969131672896765 14002.10358378961064 
	7281.797571919792063 3435.696543789309089 13972.94251071771578 
	7281.797571919818438 3438.773896250774669 13944.01631551264109 
	7281.797571919824804 3439.510337683502257 13937.8265367269978 
	7281.797571919825714 3440.324030066682553 13931.64643134549624 
	7281.797571919907568 3444.479756805079887 13902.85542678712773 
	7281.79757192046327 3456.070762569421731 13852.07159666216467 
	7281.797571921093549 3483.474856974392424 13782.24741045277915 
	7281.797571922108546 3520.97921519451711 13717.28706506483286 
	7281.797571922778843 3562.550991455350413 13665.15909876401201 
	7281.797571924330441 3604.25124175932433 13624.48768354721506 
	7281.797571924446856 3643.286712855322094 13593.35750775653651 
	7281.797571925500051 3681.733035494759861 13568.52644163128934 
	7281.797571926547789 3718.498615841008814 13549.09551143630779 
	7281.797571927008903 3752.801874234053685 13534.12894549135854 
	7281.797571928252182 3788.127764393724192 13521.76814585583816 
	7281.797571929506375 3830.303589118862419 13510.46664338320261 
	7281.797571930655977 3879.542918637148887 13502.10030663064572 
	7281.797571932320352 3935.642766742086224 13498.94995936253508 
	7281.797571934092957 3991.742552778015124 13502.1003941966901 
	7281.797571936077475 4040.981976033176124 13510.46663949091635 
	7281.797571937384419 4083.157663921031144 13521.76836708731571 
	7281.797571937917382 4130.259263638339689 13538.24871730675659 
	7281.797571941347996 4169.68184254874086 13557.23243074360289 
	7281.797571942377544 4201.720951519434493 13576.53901412330015 
	7281.797571942870491 4222.584561654501158 13590.19894612162534 
	7281.797571945004165 4252.697679987464653 13612.42314384336532 
	7281.79757194929698 4289.938992837160185 13645.70364010566846 
	7281.797571954908562 4327.379749020725285 13687.6000902324522 
	7281.797571959658853 4359.894213887529077 13733.42501514871947 
	7281.797571968350894 4387.073647667040859 13782.60221581205224 
	7281.797571982727277 4408.575958296308272 13834.51342737772939 
	7281.797571996425177 4421.538118643905364 13879.50702216962054 
	7281.797572001213666 4428.836981579330313 13916.2028403001259 
	7281.797572005194525 4432.759757138243913 13943.98826159625787 
	7281.797572009587384 4434.725130937845279 13967.28968162860292 
	7281.797572010957083 4435.413432839290181 13983.63927028457692 
	7281.797572011364537 4435.585536069379486 13991.81889293956556 
	7281.797572011464581 4435.628563379189472 13995.90930726279112 
	7281.797572011493685 4435.639320348400361 13997.95458988210339 
	7281.79757201150187 4435.642009587323628 13998.97724060141627 
	7281.797572011506418 4435.642777949708943 13999.56161378915385 
	7281.797572011508237 4435.642906000994117 13999.85380060517309 
	7281.797572011507327 4435.642906000100993 13999.99989401426865 
	7365.130905344840357 4435.642906000100083 13999.99989401426865 
	7365.130905344838538 4435.642905992950546 14001.16864128702764 
	7365.130905344764869 4435.634710581941363 14003.50613597125266 
	7365.130905344698476 4435.585534507896227 14008.18089495475942 
	7365.130905344399252 4435.413439791154815 14016.36051831140321 
	7365.130905343276936 4434.725084108337796 14032.71010074089281 
	7365.130905339671699 4431.973831537265141 14065.3321116730458 
	7365.130905328046538 4424.130797369669381 14111.49407928886831 
	7365.130905318666009 4408.575797866758876 14165.48634056771334 
	7365.130905308396905 4387.073500670487192 14217.3974793531288 
	7365.130905300559789 4359.894235926317378 14266.57480087791191 
	7365.130905292432544 4332.798665152223293 14304.76212401272278 
	7365.130905290266128 4308.659426885016728 14333.347993468602 
	7365.130905288149734 4282.956049432227701 14360.53608076419368 
	7365.130905282188905 4249.594188256900452 14390.35004987470893 
	7365.130905277147576 4207.366016737857535 14420.70985277749242 
	7365.130905274483666 4164.126538029483527 14445.67404813795474 
	7365.130905272490963 4122.408883840738781 14464.49786272925849 
	7365.130905269973482 4083.157824614109813 14478.23210247992938 
	7365.130905267933485 4047.007046672411889 14487.91880961625793 
	7365.130905267005801 4010.233408736306046 14494.87665712055059 
	7365.130905265426009 3973.042659846778406 14499.06707394008481 
	7365.13090526394717 3935.642742491442732 14500.46647195194055 
	7365.130905262559281 3898.242830986428999 14499.06707100059793 
	7365.130905261285989 3861.052070595962959 14494.87668142530129 
	7365.130905260003601 3824.278455543464133 14487.9187357615574 
	7365.130905259000428 3788.127626055805649 14478.2321663340208 
	7365.130905257909035 3761.633240412192663 14468.96135794180009 
	7365.130905257772611 3744.289835140913965 14461.96669606697833 
	7365.130905257704399 3732.816767534221071 14457.08823779783597 
	7365.130905257474296 3718.650243836547361 14450.58948494636388 
	7365.130905257259656 3701.953917499384261 14442.16076315748433 
	7365.130905257031372 3680.127874623206935 14430.09802065206168 
	7365.130905256184633 3653.719875455804868 14413.50482937171364 
	7365.130905255990911 3623.606893020384177 14391.28050979476757 
	7365.130905255144171 3599.966992729010599 14370.93666995117201 
	7365.13090525502048 3584.251848011245784 14355.7984540876605 
	7365.130905254961363 3575.519023542758987 14346.90079030484958 
	7365.130905254932259 3566.954105943053946 14337.8413838807428 
	7365.130905254796744 3558.645542869941892 14328.54411357289064 
	7365.130905254769459 3550.602074981708938 14319.01871154015134 
	7365.13090525471398 3538.806111490102921 14304.50753721827095 
	7365.130905254257414 3522.137749206282933 14281.92287834463968 
	7365.130905254051868 3502.22599450549933 14250.23324264204894 
	7365.130905253818128 3482.79465849842245 14213.46779783541206 
	7365.130905253602577 3465.016615914620161 14171.29388347000349 
	7365.130905253387937 3450.300207199532451 14123.58335207405617 
	7365.130905253115998 3443.498541651908909 14089.9380963675012 
	7365.130905253092351 3440.769119195416351 14071.43831104127094 
	7365.130905253092351 3440.333435353036748 14068.35223922521436 
	7365.130905253091441 3439.917000791412192 14065.2635110252686 
	7365.130905253088713 3439.122645696771087 14059.08098358697316 
	7365.130905253082346 3438.07571950210604 14049.78907492281178 
	7365.130905253077799 3437.170149616806611 14039.43893840904821 
	7365.130905253078708 3436.600787976888569 14031.14721589721739 
	7365.130905253080527 3434.96913167289631 14002.10358378961064 
	7365.130905253125093 3435.696543789308635 13972.94251071771578 
	7365.130905253151468 3438.773896250774214 13944.01631551264109 
	7365.130905253157835 3439.510337683501803 13937.8265367269978 
	7365.130905253158744 3440.324030066682099 13931.64643134549624 
	7365.130905253240599 3444.479756805079433 13902.85542678712773 
	7365.1309052537963 3456.070762569421277 13852.07159666216467 
	7365.13090525442658 3483.474856974391969 13782.24741045277915 
	7365.130905255441576 3520.979215194516655 13717.28706506483286 
	7365.130905256111873 3562.550991455349958 13665.15909876401201 
	7365.130905257663471 3604.251241759323875 13624.48768354721506 
	7365.130905257779887 3643.286712855321639 13593.35750775653651 
	7365.130905258833081 3681.733035494759406 13568.52644163128934 
	7365.130905259880819 3718.498615841008359 13549.09551143630779 
	7365.130905260341933 3752.80187423405323 13534.12894549135854 
	7365.130905261585212 3788.127764393723737 13521.76814585583816 
	7365.130905262839406 3830.303589118861964 13510.46664338320261 
	7365.130905263989007 3879.542918637148432 13502.10030663064572 
	7365.130905265653382 3935.642766742085769 13498.94995936253508 
	7365.130905267425987 3991.742552778014669 13502.1003941966901 
	7365.130905269410505 4040.98197603317567 13510.46663949091635 
	7365.130905270717449 4083.157663921030689 13521.76836708731571 
	7365.130905271250413 4130.25926363833878 13538.24871730675659 
	7365.130905274681027 4169.681842548739951 13557.23243074360289 
	7365.130905275710575 4201.720951519433584 13576.53901412330015 
	7365.130905276203521 4222.584561654500249 13590.19894612162534 
	7365.130905278337195 4252.697679987463744 13612.42314384336532 
	7365.13090528263001 4289.938992837159276 13645.70364010566846 
	7365.130905288241593 4327.379749020724375 13687.6000902324522 
	7365.130905292991883 4359.894213887528167 13733.42501514871947 
	7365.130905301683924 4387.07364766703995 13782.60221581205224 
	7365.130905316060307 4408.575958296307363 13834.51342737772939 
	7365.130905329758207 4421.538118643904454 13879.50702216962054 
	7365.130905334546696 4428.836981579329404 13916.2028403001259 
	7365.130905338527555 4432.759757138243003 13943.98826159625787 
	7365.130905342920414 4434.725130937844369 13967.28968162860292 
	7365.130905344290113 4435.413432839289271 13983.63927028457692 
	7365.130905344697567 4435.585536069378577 13991.81889293956556 
	7365.130905344797611 4435.628563379188563 13995.90930726279112 
	7365.130905344826715 4435.639320348399451 13997.95458988210339 
	7365.1309053448349 4435.642009587322718 13998.97724060141627 
	7365.130905344839448 4435.642777949708034 13999.56161378915385 
	7365.130905344841267 4435.642906000993207 13999.85380060517309 
	7365.130905344840357 4435.642906000100083 13999.99989401426865 
	7448.464238681476672 4435.642906000101902 13999.99989401426865 
	7448.464238681476672 4435.642905992952365 14001.16864128702764 
	7448.464238681399365 4435.634710581943182 14003.50613597125266 
	7448.464238681331153 4435.585534507898046 14008.18089495475942 
	7448.464238681021016 4435.413439791155724 14016.36051831140321 
	7448.464238679862319 4434.725084108339615 14032.71010074089281 
	7448.464238676131572 4431.973831537266051 14065.3321116730458 
	7448.464238664108052 4424.1307973696712 14111.49407928886831 
	7448.464238654404653 4408.575797866759785 14165.48634056771334 
	7448.464238643782664 4387.073500670488102 14217.3974793531288 
	7448.464238635675429 4359.894235926318288 14266.57480087791191 
	7448.46423862726806 4332.798665152224203 14304.76212401272278 
	7448.464238625027065 4308.659426885017638 14333.347993468602 
	7448.464238622837911 4282.95604943222861 14360.53608076419368 
	7448.464238616672446 4249.594188256901361 14390.35004987470893 
	7448.464238611459223 4207.366016737858445 14420.70985277749242 
	7448.464238608705273 4164.126538029484436 14445.67404813795474 
	7448.464238606643448 4122.408883840739691 14464.49786272925849 
	7448.464238604039565 4083.157824614110723 14478.23210247992938 
	7448.464238601928628 4047.007046672412798 14487.91880961625793 
	7448.464238600969111 4010.233408736306046 14494.87665712055059 
	7448.464238599334749 3973.042659846778861 14499.06707394008481 
	7448.464238597805888 3935.642742491443641 14500.46647195194055 
	7448.464238596371615 3898.242830986428999 14499.06707100059793 
	7448.464238595054667 3861.052070595963869 14494.87668142530129 
	7448.464238593726805 3824.278455543465043 14487.9187357615574 
	7448.464238592689071 3788.127626055806104 14478.2321663340208 
	7448.464238591561298 3761.633240412193572 14468.96135794180009 
	7448.464238591419416 3744.289835140914875 14461.96669606697833 
	7448.464238591349385 3732.816767534221981 14457.08823779783597 
	7448.464238591110188 3718.65024383654827 14450.58948494636388 
	7448.464238590889181 3701.95391749938517 14442.16076315748433 
	7448.464238590651803 3680.127874623207845 14430.09802065206168 
	7448.464238589776869 3653.719875455805777 14413.50482937171364 
	7448.464238589575871 3623.606893020385087 14391.28050979476757 
	7448.464238588700027 3599.966992729011508 14370.93666995117201 
	7448.464238588570879 3584.251848011246693 14355.7984540876605 
	7448.464238588510852 3575.519023542759896 14346.90079030484958 
	7448.46423858847993 3566.954105943054856 14337.8413838807428 
	7448.464238588341686 3558.645542869942801 14328.54411357289064 
	7448.464238588312583 3550.602074981709848 14319.01871154015134 
	7448.464238588254375 3538.806111490103831 14304.50753721827095 
	7448.464238587781438 3522.137749206283843 14281.92287834463968 
	7448.464238587569525 3502.225994505499784 14250.23324264204894 
	7448.4642385873276 3482.794658498422905 14213.46779783541206 
	7448.464238587104774 3465.016615914620161 14171.29388347000349 
	7448.464238586881947 3450.300207199533361 14123.58335207405617 
	7448.464238586601823 3443.498541651909818 14089.9380963675012 
	7448.464238586575448 3440.769119195417261 14071.43831104127094 
	7448.464238586575448 3440.333435353037657 14068.35223922521436 
	7448.464238586574538 3439.917000791413102 14065.2635110252686 
	7448.4642385865709 3439.122645696771997 14059.08098358697316 
	7448.464238586563624 3438.075719502106949 14049.78907492281178 
	7448.464238586559077 3437.170149616807521 14039.43893840904821 
	7448.464238586559077 3436.600787976889478 14031.14721589721739 
	7448.464238586562715 3434.96913167289722 14002.10358378961064 
	7448.464238586609099 3435.696543789309544 13972.94251071771578 
	7448.464238586636384 3438.773896250775124 13944.01631551264109 
	7448.464238586641841 3439.510337683502712 13937.8265367269978 
	7448.46423858664366 3440.324030066683008 13931.64643134549624 
	7448.464238586728243 3444.479756805080342 13902.85542678712773 
	7448.464238587302134 3456.070762569421731 13852.07159666216467 
	7448.464238587954242 3483.474856974392878 13782.24741045277915 
	7448.464238589004708 3520.979215194517565 13717.28706506483286 
	7448.464238589697743 3562.550991455350868 13665.15909876401201 
	7448.464238591303911 3604.25124175932433 13624.48768354721506 
	7448.464238591423054 3643.286712855322094 13593.35750775653651 
	7448.464238592513539 3681.733035494760315 13568.52644163128934 
	7448.464238593596747 3718.498615841009268 13549.09551143630779 
	7448.464238594073322 3752.801874234054139 13534.12894549135854 
	7448.464238595359348 3788.127764393724647 13521.76814585583816 
	7448.464238596657196 3830.303589118862874 13510.46664338320261 
	7448.464238597845906 3879.542918637149342 13502.10030663064572 
	7448.464238599568489 3935.642766742086678 13498.94995936253508 
	7448.46423860140294 3991.742552778015579 13502.1003941966901 
	7448.46423860345476 4040.981976033176579 13510.46663949091635 
	7448.464238604807178 4083.157663921031599 13521.76836708731571 
	7448.464238605356513 4130.259263638339689 13538.24871730675659 
	7448.464238608907181 4169.68184254874086 13557.23243074360289 
	7448.46423860997038 4201.720951519434493 13576.53901412330015 
	7448.464238610481516 4222.584561654501158 13590.19894612162534 
	7448.46423861268795 4252.697679987464653 13612.42314384336532 
	7448.464238617129013 4289.938992837160185 13645.70364010566846 
	7448.464238622933408 4327.379749020725285 13687.6000902324522 
	7448.464238627847408 4359.894213887529077 13733.42501514871947 
	7448.464238636836853 4387.073647667040859 13782.60221581205224 
	7448.464238651707092 4408.575958296308272 13834.51342737772939 
	7448.4642386658752 4421.538118643904454 13879.50702216962054 
	7448.464238670829218 4428.836981579330313 13916.2028403001259 
	7448.4642386749465 4432.759757138243003 13943.98826159625787 
	7448.464238679492155 4434.725130937845279 13967.28968162860292 
	7448.464238680907329 4435.413432839289271 13983.63927028457692 
	7448.464238681330244 4435.585536069379486 13991.81889293956556 
	7448.464238681432107 4435.628563379188563 13995.90930726279112 
	7448.46423868146303 4435.639320348399451 13997.95458988210339 
	7448.464238681471215 4435.642009587322718 13998.97724060141627 
	7448.464238681474853 4435.642777949708943 13999.56161378915385 
	7448.464238681475763 4435.642906000995026 13999.85380060517309 
	7448.464238681476672 4435.642906000101902 13999.99989401426865 
	7531.797572014809703 4435.642906000101902 13999.99989401426865 
	7531.797572014809703 4435.642905992952365 14001.16864128702764 
	7531.797572014732395 4435.634710581943182 14003.50613597125266 
	7531.797572014664183 4435.585534507898046 14008.18089495475942 
	7531.797572014354046 4435.413439791155724 14016.36051831140321 
	7531.797572013195349 4434.725084108339615 14032.71010074089281 
	7531.797572009464602 4431.973831537266051 14065.3321116730458 
	7531.797571997441082 4424.1307973696712 14111.49407928886831 
	7531.797571987737683 4408.575797866759785 14165.48634056771334 
	7531.797571977115695 4387.073500670488102 14217.3974793531288 
	7531.797571969008459 4359.894235926318288 14266.57480087791191 
	7531.79757196060109 4332.798665152224203 14304.76212401272278 
	7531.797571958360095 4308.659426885017638 14333.347993468602 
	7531.797571956170941 4282.95604943222861 14360.53608076419368 
	7531.797571950005477 4249.594188256901361 14390.35004987470893 
	7531.797571944792253 4207.366016737858445 14420.70985277749242 
	7531.797571942038303 4164.126538029484436 14445.67404813795474 
	7531.797571939976478 4122.408883840739691 14464.49786272925849 
	7531.797571937372595 4083.157824614110268 14478.23210247992938 
	7531.797571935261658 4047.007046672412343 14487.91880961625793 
	7531.797571934302141 4010.233408736305591 14494.87665712055059 
	7531.797571932667779 3973.042659846778406 14499.06707394008481 
	7531.797571931138918 3935.642742491443187 14500.46647195194055 
	7531.797571929704645 3898.242830986428544 14499.06707100059793 
	7531.797571928387697 3861.052070595963414 14494.87668142530129 
	7531.797571927059835 3824.278455543464588 14487.9187357615574 
	7531.797571926022101 3788.127626055805649 14478.2321663340208 
	7531.797571924894328 3761.633240412193118 14468.96135794180009 
	7531.797571924752447 3744.28983514091442 14461.96669606697833 
	7531.797571924682416 3732.816767534221526 14457.08823779783597 
	7531.797571924443218 3718.650243836547816 14450.58948494636388 
	7531.797571924222211 3701.953917499384715 14442.16076315748433 
	7531.797571923984833 3680.12787462320739 14430.09802065206168 
	7531.797571923109899 3653.719875455805322 14413.50482937171364 
	7531.797571922908901 3623.606893020384632 14391.28050979476757 
	7531.797571922033057 3599.966992729011054 14370.93666995117201 
	7531.797571921903909 3584.251848011246238 14355.7984540876605 
	7531.797571921843883 3575.519023542759442 14346.90079030484958 
	7531.79757192181296 3566.954105943054401 14337.8413838807428 
	7531.797571921674717 3558.645542869942346 14328.54411357289064 
	7531.797571921645613 3550.602074981709393 14319.01871154015134 
	7531.797571921587405 3538.806111490103376 14304.50753721827095 
	7531.797571921114468 3522.137749206283388 14281.92287834463968 
	7531.797571920902556 3502.22599450549933 14250.23324264204894 
	7531.79757192066063 3482.79465849842245 14213.46779783541206 
	7531.797571920437804 3465.016615914619706 14171.29388347000349 
	7531.797571920214978 3450.300207199532906 14123.58335207405617 
	7531.797571919934853 3443.498541651909363 14089.9380963675012 
	7531.797571919908478 3440.769119195416806 14071.43831104127094 
	7531.797571919908478 3440.333435353037203 14068.35223922521436 
	7531.797571919907568 3439.917000791412647 14065.2635110252686 
	7531.79757191990393 3439.122645696771542 14059.08098358697316 
	7531.797571919896654 3438.075719502106494 14049.78907492281178 
	7531.797571919892107 3437.170149616807066 14039.43893840904821 
	7531.797571919892107 3436.600787976889023 14031.14721589721739 
	7531.797571919895745 3434.969131672896765 14002.10358378961064 
	7531.797571919942129 3435.696543789309089 13972.94251071771578 
	7531.797571919969414 3438.773896250774669 13944.01631551264109 
	7531.797571919974871 3439.510337683502257 13937.8265367269978 
	7531.79757191997669 3440.324030066682553 13931.64643134549624 
	7531.797571920061273 3444.479756805079887 13902.85542678712773 
	7531.797571920635164 3456.070762569421277 13852.07159666216467 
	7531.797571921287272 3483.474856974392424 13782.24741045277915 
	7531.797571922337738 3520.97921519451711 13717.28706506483286 
	7531.797571923030773 3562.550991455350413 13665.15909876401201 
	7531.797571924636941 3604.251241759323875 13624.48768354721506 
	7531.797571924756085 3643.286712855321639 13593.35750775653651 
	7531.797571925846569 3681.733035494759861 13568.52644163128934 
	7531.797571926929777 3718.498615841008814 13549.09551143630779 
	7531.797571927406352 3752.801874234053685 13534.12894549135854 
	7531.797571928692378 3788.127764393724192 13521.76814585583816 
	7531.797571929990227 3830.303589118862419 13510.46664338320261 
	7531.797571931178936 3879.542918637148887 13502.10030663064572 
	7531.797571932901519 3935.642766742086224 13498.94995936253508 
	7531.79757193473597 3991.742552778015124 13502.1003941966901 
	7531.79757193678779 4040.981976033176124 13510.46663949091635 
	7531.797571938140209 4083.157663921031144 13521.76836708731571 
	7531.797571938689543 4130.259263638339689 13538.24871730675659 
	7531.797571942240211 4169.68184254874086 13557.23243074360289 
	7531.79757194330341 4201.720951519434493 13576.53901412330015 
	7531.797571943814546 4222.584561654501158 13590.19894612162534 
	7531.79757194602098 4252.697679987464653 13612.42314384336532 
	7531.797571950462043 4289.938992837160185 13645.70364010566846 
	7531.797571956266438 4327.379749020725285 13687.6000902324522 
	7531.797571961180438 4359.894213887529077 13733.42501514871947 
	7531.797571970169884 4387.073647667040859 13782.60221581205224 
	7531.797571985040122 4408.575958296308272 13834.51342737772939 
	7531.79757199920823 4421.538118643904454 13879.50702216962054 
	7531.797572004162248 4428.836981579330313 13916.2028403001259 
	7531.797572008279531 4432.759757138243003 13943.98826159625787 
	7531.797572012825185 4434.725130937845279 13967.28968162860292 
	7531.797572014240359 4435.413432839289271 13983.63927028457692 
	7531.797572014663274 4435.585536069379486 13991.81889293956556 
	7531.797572014765137 4435.628563379188563 13995.90930726279112 
	7531.79757201479606 4435.639320348399451 13997.95458988210339 
	7531.797572014804246 4435.642009587322718 13998.97724060141627 
	7531.797572014807884 4435.642777949708943 13999.56161378915385 
	7531.797572014808793 4435.642906000995026 13999.85380060517309 
	7531.797572014809703 4435.642906000101902 13999.99989401426865 
	0 
	
	0 
	0 
	95 0 0.001116071428571428509 0.002232142857142857019 0.004464285714285714038 0.008928571428571428076 0.01785714285714285615 0.0357142857142857123 0.05357142857142856845 0.07142857142857142461 0.08928571428571427382 0.1071428571428571369 0.1160714285714285754 0.125 0.1428571428571428492 0.1587301587301587213 0.1746031746031745935 0.1904761904761904656 0.2023809523809523836 0.2142857142857142738 0.226190476190476164 0.238095238095238082 0.2499999999999999722 0.2619047619047618625 0.2738095238095237804 0.2857142857142856984 0.2976190476190476164 0.3095238095238095344 0.3125 0.3154761904761904656 0.3214285714285713969 0.3273809523809523281 0.3333333333333333148 0.3452380952380952328 0.3571428571428570953 0.3690476190476190133 0.375 0.3779761904761904656 0.3809523809523809312 0.3869047619047618625 0.3898809523809523281 0.3928571428571428492 0.4047619047619047672 0.4166666666666666297 0.4285714285714285476 0.4444444444444444198 0.4603174603174602919 0.476190476190476164 0.4771825396825396526 0.4781746031746031411 0.4791666666666666297 0.4801587301587301182 0.4841269841269840724 0.4880952380952380265 0.4900793650793650036 0.4920634920634920362 0.5158730158730158166 0.5178571428571427937 0.5198412698412697708 0.5218253968253967479 0.5238095238095237249 0.5476190476190475609 0.5714285714285713969 0.5952380952380951218 0.6190476190476189577 0.6349206349206348854 0.650793650793650702 0.6666666666666666297 0.6785714285714286031 0.6904761904761904656 0.7023809523809523281 0.7142857142857141906 0.7321428571428569843 0.749999999999999889 0.7678571428571427937 0.7857142857142855874 0.7976190476190474499 0.8095238095238094234 0.8333333333333332593 0.8392857142857141906 0.8452380952380951218 0.8571428571428570953 0.875 0.8928571428571427937 0.9107142857142856984 0.9285714285714286031 0.9464285714285713969 0.9642857142857143016 0.9732142857142858094 0.9821428571428572063 0.9910714285714286031 0.9955357142857143016 0.9977678571428572063 0.9994419642857143016 0.9997209821428572063 0.9998604910714286031 
	0 
	0 
	0 
	F 1 F 0 F 1 F 0 } I I I I #
tcoedge-coedge $-1 -1 $-1 $14 $14 $18 $19 reversed $9 $20 -6.283185307179586232 -0 #
tcoedge-coedge $-1 -1 $-1 $21 $22 $11 $16 reversed $12 $23 -6.283185307179586232 -0 #
tedge-edge $-1 -1 $-1 $24 0 $24 6.283185307179586232 $15 $25 forward @7 unknown 0.0007155270155823581935 #
pcurve $-1 -1 $-1 0 forward { exppc nurbs 2 periodic 5 
	0 2 1.570796326794896558 2 3.141592653589793116 2 4.712388980384689674 2 6.283185307179586232 2 
	0 500 1 
	-500 500 0.707106781186543798 
	-500 0 1 
	-500 -500 0.7071067811865463515 
	0 -500 1 
	500 -500 0.7071067811865463515 
	500 0 1 
	500 500 0.707106781186543798 
	0 500 1 
	0 
	plane 7531.79757191538738 3935.642797989790779 14000.00000000000182 1 -3.637978807091713027e-15 0 0 0 -1 forward_v I I I I 
	} 0 0 #
tcoedge-coedge $-1 -1 $-1 $22 $21 $14 $19 forward $12 $26 0 6.283185307179586232 #
tedge-edge $-1 -1 $-1 $27 0 $27 6.283185307179586232 $18 $28 forward @7 unknown 0.0007155270155538094156 #
pcurve $-1 -1 $-1 0 forward { exppc nurbs 2 periodic 5 
	-6.283185307179586232 2 -4.712388980384689674 2 -3.141592653589793116 2 -1.570796326794896558 2 0 2 
	0 500 1 
	500 500 0.707106781186543798 
	500 0 1 
	500 -500 0.7071067811865463515 
	0 -500 1 
	-500 -500 0.7071067811865463515 
	-500 0 1 
	-500 500 0.707106781186543798 
	0 500 1 
	0 
	plane 7281.79757191538738 3935.642797989791688 14000.00000000000182 -1 3.637978807091713027e-15 -0 0 0 -1 reverse_v I I I I 
	} 0 0 #
coedge $-1 -1 $-1 $18 $15 $22 $29 reversed $12 $30 #
coedge $-1 -1 $-1 $15 $18 $21 $29 forward $12 $31 #
pcurve $-1 -1 $-1 0 forward { exppc nubs 1 periodic 2 
	-6.283185307179586232 1 -0 1 
	1 1 
	0 1 
	0 
	spline forward { ref 0 } I I I I 
	} 0 0 #
tvertex-vertex $-1 -1 $-1 $16 $32 0.0001513248685965016258 #
ellipse-curve $-1 -1 $-1 7531.79757191538738 3935.642797989790779 14000.00000000000182 1 -3.637978807091713027e-15 0 1.818989403545856476e-12 500 0 1 I I #
pcurve $-1 -1 $-1 0 forward { exppc nubs 1 periodic 2 
	0 1 6.283185307179586232 1 
	0 0 
	1 0 
	2.726396620975368931e-13 
	spline forward { ref 0 } I I I I 
	} 0 0 #
tvertex-vertex $-1 -1 $-1 $19 $33 0.0001513248651645434577 #
ellipse-curve $-1 -1 $-1 7281.79757191538738 3935.642797989791688 14000.00000000000182 1 -3.637978807091713027e-15 0 1.818989403545856476e-12 500 0 1 I I #
edge $-1 -1 $-1 $27 0 $24 0.9999999996023180016 $22 $34 forward @7 tangent #
pcurve $-1 -1 $-1 -1 $34 0 0 #
pcurve $-1 -1 $-1 1 $34 1 0 #
point $-1 -1 $-1 7531.797571915389199 4435.642797989790779 14000.00000000000182 #
point $-1 -1 $-1 7281.797571915389199 4435.642797989791688 14000.00000000000182 #
intcurve-curve $-1 -1 $-1 forward { parcur full nubs 3 open 2 
	0 3 1 3 
	7281.797572011507327 4435.642906000100993 13999.99989401426865 
	7365.130905344840357 4435.642906000100083 13999.99989401426865 
	7448.464238681476672 4435.642906000101902 13999.99989401426865 
	7531.797572014809703 4435.642906000101902 13999.99989401426865 
	0 
	
	spline forward { ref 0 } I I I I 
	null_surface 
	nubs 1 open 2 
	0 1 1 1 
	0 0 
	0 1 
	
	nullbs 
	I I 
	0 
	0 
	0 
	surf1 } F 0 F 0.9999999996023180016 #
End-of-ACIS-data 