700 0 1 0           
4 LibG 20 ASM 224.0.1.65535 NT 24 Wed Jul 17 14:48:15 2019 
1000 9.999999999999999547e-07 1.000000000000000036e-10 
body $-1 -1 $-1 $1 $-1 $2 #
lump $-1 -1 $-1 $-1 $3 $0 #
transform $-1 -1 1 0 0 0 1 0 0 0 1 0 0 0 1 no_rotate no_reflect no_shear #
shell $-1 -1 $-1 $-1 $-1 $4 $-1 $1 #
face $-1 -1 $-1 $5 $6 $3 $-1 $7 forward single #
face $-1 -1 $-1 $8 $9 $3 $-1 $10 reversed single #
loop $-1 -1 $-1 $-1 $11 $4 #
plane-surface $-1 -1 $-1 14531.79757191538738 3935.642797989765313 14000.00000000000182 1 -3.637978807091713027e-15 0 0 0 -1 forward_v I I I I #
face $-1 -1 $-1 $-1 $12 $3 $-1 $13 forward single #
loop $-1 -1 $-1 $-1 $14 $5 #
plane-surface $-1 -1 $-1 14281.79757191538738 3935.642797989766223 14000.00000000000182 1 -3.637978807091713027e-15 0 0 0 -1 forward_v I I I I #
tcoedge-coedge $-1 -1 $-1 $11 $11 $15 $16 forward $6 $17 0 6.283185307179586232 #
loop $-1 -1 $-1 $-1 $18 $8 #
spline-surface $-1 -1 $-1 forward { exactsur full nubs 3 3 periodic open none none 84 2 
	0 3 0.001116071428571428509 1 0.002232142857142857019 1 0.004464285714285714038 1 0.008928571428571428076 1 
	0.01785714285714285615 1 0.02678571428571428423 1 0.0357142857142857123 1 0.05357142857142856845 1 0.07142857142857142461 1 
	0.08928571428571427382 1 0.1071428571428571369 1 0.125 1 0.1428571428571428492 1 0.1587301587301587213 1 
	0.1825396825396825295 1 0.1904761904761904656 1 0.2023809523809523836 1 0.2142857142857142738 1 0.238095238095238082 1 
	0.2619047619047618625 1 0.2857142857142856984 1 0.2976190476190476164 1 0.3095238095238095344 1 0.3214285714285713969 1 
	0.3333333333333333148 1 0.3392857142857143016 1 0.3452380952380952328 1 0.3571428571428570953 1 0.3630952380952380265 1 
	0.3690476190476190133 1 0.3809523809523809312 1 0.3928571428571428492 1 0.4047619047619047672 1 0.4166666666666666297 1 
	0.4285714285714285476 1 0.4444444444444444198 1 0.4603174603174602919 1 0.476190476190476164 1 0.4781746031746031411 1 
	0.4791666666666666297 1 0.4801587301587301182 1 0.4841269841269840724 1 0.4920634920634920362 1 0.5 1 
	0.5039682539682539542 1 0.5079365079365079083 1 0.5238095238095237249 1 0.5476190476190475609 1 0.5595238095238095344 1 
	0.5654761904761904656 1 0.5714285714285713969 1 0.5952380952380951218 1 0.6190476190476189577 1 0.6349206349206348854 1 
	0.650793650793650702 1 0.6666666666666666297 1 0.6904761904761904656 1 0.7142857142857141906 1 0.7321428571428569843 1 
	0.749999999999999889 1 0.7678571428571427937 1 0.7857142857142855874 1 0.8095238095238094234 1 0.8214285714285713969 1 
	0.8333333333333332593 1 0.8452380952380951218 1 0.8571428571428570953 1 0.875 1 0.8928571428571427937 1 
	0.9107142857142856984 1 0.9285714285714286031 1 0.9464285714285713969 1 0.9642857142857143016 1 0.9732142857142858094 1 
	0.9821428571428572063 1 0.9910714285714286031 1 0.9955357142857143016 1 0.9977678571428572063 1 0.9988839285714286031 1 
	0.9994419642857143016 1 0.9997209821428572063 1 0.9998604910714286031 1 1 3 
	0 3 1 3 
	14281.79757184901609 4435.642810811494201 14000.00004812853877 
	14281.79757184901609 4435.642810810126321 14001.16879538344801 
	14281.79757184906703 4435.634614909448828 14003.50628979400244 
	14281.79757184911432 4435.585440704510802 14008.18104875121571 
	14281.79757184934533 4435.413336813981005 14016.36066998073875 
	14281.79757185007293 4434.725033361212809 14032.71025433213072 
	14281.79757185240487 4432.759649770677242 14056.01165620198117 
	14281.79757185456401 4428.836871299764425 14083.79706448599245 
	14281.79757185696872 4421.53798390101565 14120.49285082941242 
	14281.79757186471397 4408.575845072503398 14165.48641789364228 
	14281.79757187099858 4387.073367692123611 14217.39745824107376 
	14281.7975718779926 4359.894196046050638 14266.57481310775984 
	14281.79757188373515 4327.379475081394958 14312.3994051896243 
	14281.7975718903017 4289.939025614229649 14354.29630153494145 
	14281.79757189204975 4249.593980239865232 14390.34957434194985 
	14281.79757189592965 4200.610235187239596 14425.56876136764186 
	14281.79757189687734 4156.693795032451817 14449.48396450557266 
	14281.79757189778684 4114.558374885864396 14467.24402636882405 
	14281.79757189839984 4083.157844987620138 14478.23174866210866 
	14281.79757189956945 4034.956831276552748 14491.14829550823561 
	14281.79757190088458 3973.147712527221302 14500.46607062205476 
	14281.79757190321652 3898.137886268523289 14500.46555081937004 
	14281.79757190495911 3836.32857653842575 14491.14873846713999 
	14281.79757190537021 3788.127688113992008 14478.23201665561464 
	14281.79757190624878 3752.801749549665146 14465.87146886528353 
	14281.79757190689452 3718.498441349509903 14450.90481888455724 
	14281.79757190759119 3690.924291949430881 14436.33151309310779 
	14281.7975719077931 3669.564645620965166 14423.46092886334191 
	14281.79757190795863 3648.701069413274126 14409.80087978365918 
	14281.79757190826786 3628.625736520851206 14394.98467825247462 
	14281.7975719084734 3609.422922956373441 14379.07436392786803 
	14281.79757190860437 3590.828304914718956 14362.45732473620046 
	14281.79757190910459 3568.774729784684496 14340.40380570284287 
	14281.79757190944838 3544.362200669333106 14312.035853982361 
	14281.79757190996497 3522.137754607231727 14281.92292821452065 
	14281.79757191013232 3502.226018699453107 14250.23327845515087 
	14281.79757191055978 3482.794622461510244 14213.46783862807388 
	14281.79757191097269 3465.016769232543083 14171.29381252085295 
	14281.79757191116005 3450.300264865813006 14123.58331477915635 
	14281.7975719116148 3443.292573646783694 14088.91843960969345 
	14281.79757191166391 3440.472383076441474 14069.38171085013346 
	14281.79757191166209 3439.917130512405947 14065.26340747429094 
	14281.79757191165845 3439.122782110637218 14059.08087908226298 
	14281.7975719116439 3437.610510564693868 14045.65923193393246 
	14281.79757191159479 3436.057282559109808 14024.93314912456299 
	14281.79757191152567 3435.539135107894253 14004.15541852376919 
	14281.79757191151657 3435.746367003388059 13987.53322251569989 
	14281.79757191146564 3436.678753111731112 13962.61548491901158 
	14281.79757191133831 3441.234333866907036 13917.07469505204608 
	14281.79757191091994 3453.289085920922389 13864.25972246988567 
	14281.79757191076533 3467.711521058033213 13823.04649458486165 
	14281.79757191071803 3477.254717047471786 13800.00715124890849 
	14281.79757191061617 3492.851233598026283 13766.00725774148123 
	14281.79757190979944 3520.978848677470978 13717.28661728456063 
	14281.79757190902819 3562.551099004330354 13665.15888982519027 
	14281.7975719083388 3604.250895409164968 13624.4869523442394 
	14281.79757190812052 3643.286732660406415 13593.35727064219645 
	14281.79757190746022 3692.217781698267117 13561.75299715382789 
	14281.7975719066053 3752.28959060234547 13532.8232881628046 
	14281.79757190478085 3817.993884540051113 13512.55744998080263 
	14281.7975719035112 3879.543237947563739 13502.10063515590809 
	14281.79757190216515 3935.643087863358687 13498.94953277637978 
	14281.79757190073724 3991.742728003856428 13502.1007122069168 
	14281.79757189887641 4053.292498955791416 13512.5566746521381 
	14281.79757189676093 4107.049671944332658 13529.13952268380672 
	14281.79757189622251 4152.787047989936582 13549.09587606403329 
	14281.79757189511292 4185.876202662855576 13566.58338523349994 
	14281.79757189394877 4217.565621585419649 13586.49554185181478 
	14281.79757189253178 4252.697636310217604 13612.42359198382292 
	14281.79757188972872 4289.93895530447935 13645.70410985043964 
	14281.79757188598523 4327.379719704307718 13687.60047581181607 
	14281.79757188348231 4359.894249650738857 13733.4253477891707 
	14281.79757187433097 4387.073366117836486 13782.60265695082126 
	14281.79757186717688 4408.575866046517149 13834.51369838688333 
	14281.79757185801645 4421.537986514915247 13879.50725086160855 
	14281.79757185528069 4428.836875399782002 13916.20303593125573 
	14281.79757185279595 4432.759651326639869 13943.988441860085 
	14281.79757185017297 4434.725034047650297 13967.2898423968727 
	14281.79757184934169 4435.41333695395133 13983.6394262786489 
	14281.79757184910341 4435.585440765070416 13991.8190474647472 
	14281.7975718490361 4435.628468150582194 13995.90946148766125 
	14281.79757184902337 4435.639225145635464 13997.95474402327454 
	14281.79757184901791 4435.641914393391744 13998.97739472464309 
	14281.79757184901791 4435.642682751102257 13999.56176790639438 
	14281.79757184901609 4435.642810811665186 13999.85395472167511 
	14281.79757184901609 4435.642810811494201 14000.00004812853877 
	14365.13090518235003 4435.642810811493291 14000.00004812853877 
	14365.13090518235003 4435.642810810125411 14001.16879538344801 
	14365.13090518240097 4435.634614909447919 14003.50628979400244 
	14365.13090518244826 4435.585440704509892 14008.18104875121571 
	14365.13090518267927 4435.413336813980095 14016.36066998073875 
	14365.13090518340687 4434.725033361211899 14032.71025433213072 
	14365.13090518573881 4432.759649770676333 14056.01165620198117 
	14365.13090518789795 4428.836871299763516 14083.79706448599245 
	14365.13090519030266 4421.537983901014741 14120.49285082941242 
	14365.13090519804791 4408.575845072502489 14165.48641789364228 
	14365.13090520433252 4387.073367692122702 14217.39745824107376 
	14365.13090521132654 4359.894196046049728 14266.57481310775984 
	14365.13090521706908 4327.379475081394048 14312.3994051896243 
	14365.13090522363564 4289.93902561422874 14354.29630153494145 
	14365.13090522538369 4249.593980239864322 14390.34957434194985 
	14365.13090522926359 4200.610235187238686 14425.56876136764186 
	14365.13090523021128 4156.693795032450907 14449.48396450557266 
	14365.13090523112078 4114.558374885863486 14467.24402636882405 
	14365.13090523173378 4083.157844987619683 14478.23174866210866 
	14365.13090523290339 4034.956831276552293 14491.14829550823561 
	14365.13090523421852 3973.147712527220847 14500.46607062205476 
	14365.13090523655046 3898.137886268522834 14500.46555081937004 
	14365.13090523829305 3836.328576538425295 14491.14873846713999 
	14365.13090523870414 3788.127688113991553 14478.23201665561464 
	14365.13090523958272 3752.801749549664692 14465.87146886528353 
	14365.13090524022846 3718.498441349509449 14450.90481888455724 
	14365.13090524092513 3690.924291949430426 14436.33151309310779 
	14365.13090524112704 3669.564645620964711 14423.46092886334191 
	14365.13090524129257 3648.701069413273672 14409.80087978365918 
	14365.13090524160179 3628.625736520850751 14394.98467825247462 
	14365.13090524180734 3609.422922956372986 14379.07436392786803 
	14365.13090524193831 3590.828304914718501 14362.45732473620046 
	14365.13090524243853 3568.774729784684041 14340.40380570284287 
	14365.13090524278232 3544.362200669332651 14312.035853982361 
	14365.13090524329891 3522.137754607231273 14281.92292821452065 
	14365.13090524346626 3502.226018699452652 14250.23327845515087 
	14365.13090524389372 3482.794622461509789 14213.46783862807388 
	14365.13090524430663 3465.016769232542629 14171.29381252085295 
	14365.13090524449399 3450.300264865812551 14123.58331477915635 
	14365.13090524494874 3443.292573646783239 14088.91843960969345 
	14365.13090524499785 3440.47238307644102 14069.38171085013346 
	14365.13090524499603 3439.917130512405492 14065.26340747429094 
	14365.13090524499239 3439.122782110636763 14059.08087908226298 
	14365.13090524497784 3437.610510564693413 14045.65923193393246 
	14365.13090524492873 3436.057282559109353 14024.93314912456299 
	14365.1309052448596 3435.539135107893799 14004.15541852376919 
	14365.13090524485051 3435.746367003387604 13987.53322251569989 
	14365.13090524479958 3436.678753111730657 13962.61548491901158 
	14365.13090524467225 3441.234333866906582 13917.07469505204608 
	14365.13090524425388 3453.289085920921934 13864.25972246988567 
	14365.13090524409927 3467.711521058032758 13823.04649458486165 
	14365.13090524405197 3477.254717047471331 13800.00715124890849 
	14365.13090524395011 3492.851233598025829 13766.00725774148123 
	14365.13090524313338 3520.978848677470523 13717.28661728456063 
	14365.13090524236213 3562.551099004329899 13665.15888982519027 
	14365.13090524167274 3604.250895409164514 13624.4869523442394 
	14365.13090524145446 3643.28673266040596 13593.35727064219645 
	14365.13090524079416 3692.217781698266663 13561.75299715382789 
	14365.13090523993924 3752.289590602345015 13532.8232881628046 
	14365.13090523811479 3817.993884540050658 13512.55744998080263 
	14365.13090523684514 3879.543237947563284 13502.10063515590809 
	14365.13090523549909 3935.643087863358232 13498.94953277637978 
	14365.13090523407118 3991.742728003855973 13502.1007122069168 
	14365.13090523221035 4053.292498955790961 13512.5566746521381 
	14365.13090523009487 4107.049671944331749 13529.13952268380672 
	14365.13090522955645 4152.787047989935672 13549.09587606403329 
	14365.13090522844686 4185.876202662854666 13566.58338523349994 
	14365.13090522728271 4217.565621585418739 13586.49554185181478 
	14365.13090522586572 4252.697636310216694 13612.42359198382292 
	14365.13090522306265 4289.938955304478441 13645.70410985043964 
	14365.13090521931917 4327.379719704306808 13687.60047581181607 
	14365.13090521681625 4359.894249650737947 13733.4253477891707 
	14365.13090520766491 4387.073366117835576 13782.60265695082126 
	14365.13090520051082 4408.575866046516239 13834.51369838688333 
	14365.13090519135039 4421.537986514914337 13879.50725086160855 
	14365.13090518861463 4428.836875399781093 13916.20303593125573 
	14365.13090518612989 4432.759651326638959 13943.988441860085 
	14365.13090518350691 4434.725034047649388 13967.2898423968727 
	14365.13090518267563 4435.41333695395042 13983.6394262786489 
	14365.13090518243735 4435.585440765069507 13991.8190474647472 
	14365.13090518237004 4435.628468150581284 13995.90946148766125 
	14365.13090518235731 4435.639225145634555 13997.95474402327454 
	14365.13090518235185 4435.641914393390834 13998.97739472464309 
	14365.13090518235185 4435.642682751101347 13999.56176790639438 
	14365.13090518235003 4435.642810811664276 13999.85395472167511 
	14365.13090518235003 4435.642810811493291 14000.00004812853877 
	14448.46423851452346 4435.642810811494201 14000.00004812853877 
	14448.46423851452346 4435.642810810126321 14001.16879538344801 
	14448.46423851457439 4435.634614909448828 14003.50628979400244 
	14448.4642385146235 4435.585440704510802 14008.18104875121571 
	14448.46423851485815 4435.413336813981005 14016.36066998073875 
	14448.46423851559666 4434.725033361212809 14032.71025433213072 
	14448.46423851796862 4432.759649770677242 14056.01165620198117 
	14448.46423852016414 4428.836871299764425 14083.79706448599245 
	14448.4642385226125 4421.53798390101565 14120.49285082941242 
	14448.46423853049237 4408.575845072503398 14165.48641789364228 
	14448.46423853688793 4387.073367692123611 14217.39745824107376 
	14448.46423854400564 4359.894196046050638 14266.57481310775984 
	14448.46423854984641 4327.379475081394958 14312.3994051896243 
	14448.46423855652756 4289.939025614229649 14354.29630153494145 
	14448.46423855830835 4249.593980239865232 14390.34957434194985 
	14448.46423856225556 4200.610235187239596 14425.56876136764186 
	14448.4642385632178 4156.693795032451817 14449.48396450557266 
	14448.46423856414367 4114.558374885864396 14467.24402636882405 
	14448.46423856476576 4083.157844987620592 14478.23174866210866 
	14448.4642385659572 4034.956831276553203 14491.14829550823561 
	14448.46423856729416 3973.147712527221756 14500.46607062205476 
	14448.46423856966794 3898.137886268523744 14500.46555081937004 
	14448.46423857143782 3836.328576538426205 14491.14873846713999 
	14448.464238571858 3788.127688113992463 14478.23201665561464 
	14448.46423857275295 3752.801749549665601 14465.87146886528353 
	14448.4642385734096 3718.498441349510358 14450.90481888455724 
	14448.46423857411901 3690.924291949431336 14436.33151309310779 
	14448.46423857432637 3669.564645620965621 14423.46092886334191 
	14448.46423857449372 3648.701069413274581 14409.80087978365918 
	14448.46423857481022 3628.62573652085166 14394.98467825247462 
	14448.46423857501759 3609.422922956373895 14379.07436392786803 
	14448.46423857514856 3590.828304914719411 14362.45732473620046 
	14448.46423857565787 3568.774729784684951 14340.40380570284287 
	14448.46423857601076 3544.362200669333561 14312.035853982361 
	14448.46423857653463 3522.137754607232182 14281.92292821452065 
	14448.46423857670561 3502.226018699453562 14250.23327845515087 
	14448.46423857713853 3482.794622461510244 14213.46783862807388 
	14448.46423857756054 3465.016769232543538 14171.29381252085295 
	14448.46423857775335 3450.300264865813006 14123.58331477915635 
	14448.46423857821719 3443.292573646784149 14088.91843960969345 
	14448.46423857826449 3440.472383076441474 14069.38171085013346 
	14448.46423857826449 3439.917130512405947 14065.26340747429094 
	14448.46423857825903 3439.122782110636763 14059.08087908226298 
	14448.46423857824448 3437.610510564693413 14045.65923193393246 
	14448.46423857819718 3436.057282559108899 14024.93314912456299 
	14448.46423857812078 3435.539135107893344 14004.15541852376919 
	14448.46423857811351 3435.746367003387149 13987.53322251569989 
	14448.46423857806622 3436.678753111730202 13962.61548491901158 
	14448.46423857793525 3441.234333866906127 13917.07469505204608 
	14448.4642385775096 3453.28908592092148 13864.25972246988567 
	14448.46423857735317 3467.711521058032758 13823.04649458486165 
	14448.46423857730406 3477.254717047471331 13800.00715124890849 
	14448.46423857720038 3492.851233598025374 13766.00725774148123 
	14448.4642385763691 3520.978848677470069 13717.28661728456063 
	14448.46423857558511 3562.551099004329444 13665.15888982519027 
	14448.4642385748848 3604.250895409163604 13624.4869523442394 
	14448.46423857466289 3643.286732660405505 13593.35727064219645 
	14448.46423857399168 3692.217781698266208 13561.75299715382789 
	14448.46423857312038 3752.289590602345015 13532.8232881628046 
	14448.46423857126501 3817.993884540050658 13512.55744998080263 
	14448.46423856997171 3879.54323794756283 13502.10063515590809 
	14448.46423856860383 3935.643087863358232 13498.94953277637978 
	14448.46423856715046 3991.742728003855973 13502.1007122069168 
	14448.46423856525689 4053.292498955791416 13512.5566746521381 
	14448.46423856310321 4107.049671944331749 13529.13952268380672 
	14448.46423856255569 4152.787047989935672 13549.09587606403329 
	14448.46423856142428 4185.876202662853757 13566.58338523349994 
	14448.4642385602383 4217.565621585418739 13586.49554185181478 
	14448.46423855879584 4252.697636310215785 13612.42359198382292 
	14448.46423855594367 4289.938955304478441 13645.70410985043964 
	14448.46423855213106 4327.379719704306808 13687.60047581181607 
	14448.46423854958812 4359.894249650738857 13733.4253477891707 
	14448.46423854027307 4387.073366117835576 13782.60265695082126 
	14448.46423853299166 4408.575866046517149 13834.51369838688333 
	14448.46423852367298 4421.537986514914337 13879.50725086160855 
	14448.46423852088992 4428.836875399782002 13916.20303593125573 
	14448.46423851836153 4432.759651326639869 13943.988441860085 
	14448.46423851569307 4434.725034047650297 13967.2898423968727 
	14448.46423851484724 4435.41333695395133 13983.6394262786489 
	14448.46423851460349 4435.585440765070416 13991.8190474647472 
	14448.46423851454165 4435.628468150582194 13995.90946148766125 
	14448.4642385145271 4435.639225145635464 13997.95474402327454 
	14448.46423851452346 4435.641914393391744 13998.97739472464309 
	14448.46423851452346 4435.642682751102257 13999.56176790639438 
	14448.46423851452346 4435.642810811665186 13999.85395472167511 
	14448.46423851452346 4435.642810811494201 14000.00004812853877 
	14531.7975718478574 4435.642810811494201 14000.00004812853877 
	14531.7975718478574 4435.642810810126321 14001.16879538344801 
	14531.79757184790833 4435.634614909448828 14003.50628979400244 
	14531.79757184795744 4435.585440704510802 14008.18104875121571 
	14531.79757184819209 4435.413336813981005 14016.36066998073875 
	14531.7975718489306 4434.725033361212809 14032.71025433213072 
	14531.79757185130256 4432.759649770677242 14056.01165620198117 
	14531.79757185349808 4428.836871299764425 14083.79706448599245 
	14531.79757185594644 4421.53798390101565 14120.49285082941242 
	14531.79757186382631 4408.575845072503398 14165.48641789364228 
	14531.79757187022187 4387.073367692123611 14217.39745824107376 
	14531.79757187733958 4359.894196046050638 14266.57481310775984 
	14531.79757188318035 4327.379475081394958 14312.3994051896243 
	14531.7975718898615 4289.939025614229649 14354.29630153494145 
	14531.79757189164229 4249.593980239865232 14390.34957434194985 
	14531.7975718955895 4200.610235187239596 14425.56876136764186 
	14531.79757189655174 4156.693795032451817 14449.48396450557266 
	14531.79757189747761 4114.558374885864396 14467.24402636882405 
	14531.7975718980997 4083.157844987620138 14478.23174866210866 
	14531.79757189929114 4034.956831276552748 14491.14829550823561 
	14531.7975719006281 3973.147712527221302 14500.46607062205476 
	14531.79757190300188 3898.137886268523289 14500.46555081937004 
	14531.79757190477176 3836.32857653842575 14491.14873846713999 
	14531.79757190519194 3788.127688113992008 14478.23201665561464 
	14531.79757190608689 3752.801749549665146 14465.87146886528353 
	14531.79757190674354 3718.498441349509903 14450.90481888455724 
	14531.79757190745295 3690.924291949430881 14436.33151309310779 
	14531.79757190766031 3669.564645620965166 14423.46092886334191 
	14531.79757190782766 3648.701069413274126 14409.80087978365918 
	14531.79757190814416 3628.625736520851206 14394.98467825247462 
	14531.79757190835153 3609.422922956373441 14379.07436392786803 
	14531.7975719084825 3590.828304914718956 14362.45732473620046 
	14531.79757190899181 3568.774729784684496 14340.40380570284287 
	14531.7975719093447 3544.362200669333106 14312.035853982361 
	14531.79757190986857 3522.137754607231727 14281.92292821452065 
	14531.79757191003955 3502.226018699453107 14250.23327845515087 
	14531.79757191047247 3482.794622461509789 14213.46783862807388 
	14531.79757191089448 3465.016769232543083 14171.29381252085295 
	14531.79757191108729 3450.300264865812551 14123.58331477915635 
	14531.79757191155113 3443.292573646783694 14088.91843960969345 
	14531.79757191159842 3440.47238307644102 14069.38171085013346 
	14531.79757191159842 3439.917130512405492 14065.26340747429094 
	14531.79757191159297 3439.122782110636308 14059.08087908226298 
	14531.79757191157842 3437.610510564692959 14045.65923193393246 
	14531.79757191153112 3436.057282559108444 14024.93314912456299 
	14531.79757191145472 3435.539135107892889 14004.15541852376919 
	14531.79757191144745 3435.746367003386695 13987.53322251569989 
	14531.79757191140015 3436.678753111729748 13962.61548491901158 
	14531.79757191126919 3441.234333866905672 13917.07469505204608 
	14531.79757191084354 3453.289085920921025 13864.25972246988567 
	14531.79757191068711 3467.711521058032304 13823.04649458486165 
	14531.797571910638 3477.254717047470876 13800.00715124890849 
	14531.79757191053432 3492.851233598024919 13766.00725774148123 
	14531.79757190970304 3520.978848677469614 13717.28661728456063 
	14531.79757190891905 3562.551099004328989 13665.15888982519027 
	14531.79757190821874 3604.250895409163149 13624.4869523442394 
	14531.79757190799683 3643.28673266040505 13593.35727064219645 
	14531.79757190732562 3692.217781698265753 13561.75299715382789 
	14531.79757190645432 3752.28959060234456 13532.8232881628046 
	14531.79757190459895 3817.993884540050203 13512.55744998080263 
	14531.79757190330565 3879.543237947562375 13502.10063515590809 
	14531.79757190193777 3935.643087863357778 13498.94953277637978 
	14531.7975719004844 3991.742728003855518 13502.1007122069168 
	14531.79757189859083 4053.292498955790961 13512.5566746521381 
	14531.79757189643715 4107.049671944331749 13529.13952268380672 
	14531.79757189588963 4152.787047989935672 13549.09587606403329 
	14531.79757189475822 4185.876202662853757 13566.58338523349994 
	14531.79757189357224 4217.565621585418739 13586.49554185181478 
	14531.79757189212978 4252.697636310215785 13612.42359198382292 
	14531.79757188927761 4289.938955304478441 13645.70410985043964 
	14531.797571885465 4327.379719704306808 13687.60047581181607 
	14531.79757188292206 4359.894249650738857 13733.4253477891707 
	14531.79757187360701 4387.073366117835576 13782.60265695082126 
	14531.7975718663256 4408.575866046517149 13834.51369838688333 
	14531.79757185700691 4421.537986514914337 13879.50725086160855 
	14531.79757185422386 4428.836875399782002 13916.20303593125573 
	14531.79757185169547 4432.759651326639869 13943.988441860085 
	14531.79757184902701 4434.725034047650297 13967.2898423968727 
	14531.79757184818118 4435.41333695395133 13983.6394262786489 
	14531.79757184793743 4435.585440765070416 13991.8190474647472 
	14531.79757184787559 4435.628468150582194 13995.90946148766125 
	14531.79757184786104 4435.639225145635464 13997.95474402327454 
	14531.7975718478574 4435.641914393391744 13998.97739472464309 
	14531.7975718478574 4435.642682751102257 13999.56176790639438 
	14531.7975718478574 4435.642810811665186 13999.85395472167511 
	14531.7975718478574 4435.642810811494201 14000.00004812853877 
	0 
	
	0 
	0 
	81 0 0.001116071428571428509 0.002232142857142857019 0.004464285714285714038 0.008928571428571428076 0.01785714285714285615 0.02678571428571428423 0.0357142857142857123 0.05357142857142856845 0.07142857142857142461 0.08928571428571427382 0.1071428571428571369 0.125 0.1428571428571428492 0.1587301587301587213 0.1825396825396825295 0.1904761904761904656 0.2023809523809523836 0.2142857142857142738 0.238095238095238082 0.2619047619047618625 0.2857142857142856984 0.2976190476190476164 0.3095238095238095344 0.3214285714285713969 0.3333333333333333148 0.3392857142857143016 0.3452380952380952328 0.3571428571428570953 0.3630952380952380265 0.3690476190476190133 0.3809523809523809312 0.3928571428571428492 0.4047619047619047672 0.4166666666666666297 0.4285714285714285476 0.4444444444444444198 0.4603174603174602919 0.476190476190476164 0.4781746031746031411 0.4791666666666666297 0.4801587301587301182 0.4841269841269840724 0.4920634920634920362 0.5 0.5039682539682539542 0.5079365079365079083 0.5238095238095237249 0.5476190476190475609 0.5595238095238095344 0.5654761904761904656 0.5714285714285713969 0.5952380952380951218 0.6190476190476189577 0.6349206349206348854 0.650793650793650702 0.6666666666666666297 0.6904761904761904656 0.7142857142857141906 0.7321428571428569843 0.749999999999999889 0.7678571428571427937 0.7857142857142855874 0.8095238095238094234 0.8214285714285713969 0.8333333333333332593 0.8452380952380951218 0.8571428571428570953 0.875 0.8928571428571427937 0.9107142857142856984 0.9285714285714286031 0.9464285714285713969 0.9642857142857143016 0.9732142857142858094 0.9821428571428572063 0.9910714285714286031 0.9955357142857143016 0.9977678571428572063 0.9994419642857143016 0.9998604910714286031 
	0 
	0 
	0 
	F 1 F 0 F 1 F 0 } I I I I #
tcoedge-coedge $-1 -1 $-1 $14 $14 $18 $19 reversed $9 $20 -6.283185307179586232 -0 #
tcoedge-coedge $-1 -1 $-1 $21 $22 $11 $16 reversed $12 $23 -6.283185307179586232 -0 #
tedge-edge $-1 -1 $-1 $24 0 $24 6.283185307179586232 $15 $25 forward @7 unknown 0.0008031461441216151661 #
pcurve $-1 -1 $-1 0 forward { exppc nurbs 2 periodic 5 
	0 2 1.570796326794896558 2 3.141592653589793116 2 4.712388980384689674 2 6.283185307179586232 2 
	0 500 1 
	-500 500 0.707106781186543798 
	-500 0 1 
	-500 -500 0.7071067811865463515 
	0 -500 1 
	500 -500 0.7071067811865463515 
	500 0 1 
	500 500 0.707106781186543798 
	0 500 1 
	0 
	plane 14531.79757191538738 3935.642797989765313 14000.00000000000182 1 -3.637978807091713027e-15 0 0 0 -1 forward_v I I I I 
	} 0 0 #
tcoedge-coedge $-1 -1 $-1 $22 $21 $14 $19 forward $12 $26 0 6.283185307179586232 #
tedge-edge $-1 -1 $-1 $27 0 $27 6.283185307179586232 $18 $28 forward @7 unknown 0.0008031461459860845739 #
pcurve $-1 -1 $-1 0 forward { exppc nurbs 2 periodic 5 
	-6.283185307179586232 2 -4.712388980384689674 2 -3.141592653589793116 2 -1.570796326794896558 2 0 2 
	0 500 1 
	500 500 0.707106781186543798 
	500 0 1 
	500 -500 0.7071067811865463515 
	0 -500 1 
	-500 -500 0.7071067811865463515 
	-500 0 1 
	-500 500 0.707106781186543798 
	0 500 1 
	0 
	plane 14281.79757191538738 3935.642797989766223 14000.00000000000182 -1 3.637978807091713027e-15 -0 0 0 -1 reverse_v I I I I 
	} 0 0 #
coedge $-1 -1 $-1 $18 $15 $22 $29 reversed $12 $30 #
coedge $-1 -1 $-1 $15 $18 $21 $29 forward $12 $31 #
pcurve $-1 -1 $-1 0 forward { exppc nubs 1 periodic 2 
	-6.283185307179586232 1 -0 1 
	1 1 
	0 1 
	2.726396620975368931e-13 
	spline forward { ref 0 } I I I I 
	} 0 0 #
tvertex-vertex $-1 -1 $-1 $16 $32 4.980721189664821032e-05 #
ellipse-curve $-1 -1 $-1 14531.79757191538738 3935.642797989765313 14000.00000000000182 1 -3.637978807091713027e-15 0 1.818989403545856476e-12 500 0 1 I I #
pcurve $-1 -1 $-1 0 forward { exppc nubs 1 periodic 2 
	0 1 6.283185307179586232 1 
	0 0 
	1 0 
	4.4114023995510105e-13 
	spline forward { ref 0 } I I I I 
	} 0 0 #
tvertex-vertex $-1 -1 $-1 $19 $33 4.980721010496251403e-05 #
ellipse-curve $-1 -1 $-1 14281.79757191538738 3935.642797989766223 14000.00000000000182 1 -3.637978807091713027e-15 0 1.818989403545856476e-12 500 0 1 I I #
edge $-1 -1 $-1 $27 0 $24 1 $22 $34 forward @7 tangent #
pcurve $-1 -1 $-1 -1 $34 0 0 #
pcurve $-1 -1 $-1 1 $34 1 0 #
point $-1 -1 $-1 14531.7975719153892 4435.642797989765313 14000.00000000000182 #
point $-1 -1 $-1 14281.7975719153892 4435.642797989766223 14000.00000000000182 #
intcurve-curve $-1 -1 $-1 forward { parcur full nubs 3 open 2 
	0 3 1 3 
	14281.79757184901609 4435.642810811494201 14000.00004812853877 
	14365.13090518235003 4435.642810811493291 14000.00004812853877 
	14448.46423851452346 4435.642810811494201 14000.00004812853877 
	14531.7975718478574 4435.642810811494201 14000.00004812853877 
	0 
	
	spline forward { ref 0 } I I I I 
	null_surface 
	nubs 1 open 2 
	0 1 1 1 
	0 0 
	0 1 
	
	nullbs 
	I I 
	0 
	0 
	0 
	surf1 } I I #
End-of-ACIS-data 