700 0 2 0           
4 LibG 20 ASM 224.0.1.65535 NT 24 Tue Jul 16 17:00:27 2019 
1000 9.999999999999999547e-07 1.000000000000000036e-10 
body $-1 -1 $-1 $2 $-1 $3 #
body $-1 -1 $-1 $4 $-1 $5 #
lump $-1 -1 $-1 $-1 $6 $0 #
transform $-1 -1 1 0 0 0 1 0 0 0 1 0 0 0 1 no_rotate no_reflect no_shear #
lump $-1 -1 $-1 $-1 $7 $1 #
transform $-1 -1 1 0 0 0 1 0 0 0 1 0 0 0 1 no_rotate no_reflect no_shear #
shell $-1 -1 $-1 $-1 $-1 $8 $-1 $2 #
shell $-1 -1 $-1 $-1 $-1 $9 $-1 $4 #
face $-1 -1 $-1 $10 $11 $6 $-1 $12 forward single #
face $-1 -1 $-1 $13 $14 $7 $-1 $15 forward single #
face $-1 -1 $-1 $16 $17 $6 $-1 $18 forward single #
loop $-1 -1 $-1 $-1 $19 $8 #
plane-surface $-1 -1 $-1 375.0000000000001137 8324.979999999999563 16550 -1 -1.618113049372525525e-30 1.618113049372525175e-30 4.932008574487457005e-28 0 304.8000000000000114 forward_v I I I I #
face $-1 -1 $-1 $20 $21 $7 $-1 $22 forward single #
loop $-1 -1 $-1 $-1 $23 $9 #
plane-surface $-1 -1 $-1 375.0000000000001137 8324.979999999999563 16630 -1 -1.922480335922979775e-31 -1.125354342979305187e-30 -3.430080037400922379e-28 0 304.8000000000000114 forward_v I I I I #
face $-1 -1 $-1 $24 $25 $6 $-1 $26 forward single #
loop $-1 -1 $-1 $-1 $27 $10 #
plane-surface $-1 -1 $-1 425 8274.979999999997744 16630 0 0 1 304.8000000000000114 0 0 forward_v I I I I #
coedge $-1 -1 $-1 $28 $29 $30 $31 forward $11 $-1 #
face $-1 -1 $-1 $32 $33 $7 $-1 $34 forward single #
loop $-1 -1 $-1 $-1 $35 $13 #
plane-surface $-1 -1 $-1 425 8274.979999999999563 16850.00000000000364 -7.793641502303214635e-30 1.301674861437309768e-28 1 304.8000000000000114 0 2.375501929902019757e-27 forward_v I I I I #
coedge $-1 -1 $-1 $36 $37 $38 $39 forward $14 $-1 #
face $-1 -1 $-1 $40 $41 $6 $-1 $42 forward single #
loop $-1 -1 $-1 $-1 $43 $16 #
plane-surface $-1 -1 $-1 424.9999999999999432 8324.979999999999563 16550 6.0310008618333404e-32 1 2.144599079264842328e-15 0 -6.536737993599239191e-13 304.8000000000000114 forward_v I I I I #
coedge $-1 -1 $-1 $44 $45 $46 $47 reversed $17 $-1 #
coedge $-1 -1 $-1 $48 $19 $49 $50 forward $11 $-1 #
coedge $-1 -1 $-1 $19 $48 $51 $52 reversed $11 $-1 #
coedge $-1 -1 $-1 $53 $54 $19 $31 reversed $55 $-1 #
edge $-1 -1 $-1 $56 0 $57 0.1640419947506543963 $19 $58 forward @7 unknown #
face $-1 -1 $-1 $59 $60 $7 $-1 $61 forward single #
loop $-1 -1 $-1 $-1 $62 $20 #
plane-surface $-1 -1 $-1 425 8324.979999999999563 16630 -2.813385857448219615e-32 1 9.002834743834410667e-30 0 -2.744064029920728577e-27 304.8000000000000114 forward_v I I I I #
coedge $-1 -1 $-1 $63 $64 $65 $66 reversed $21 $-1 #
coedge $-1 -1 $-1 $67 $23 $68 $69 forward $14 $-1 #
coedge $-1 -1 $-1 $23 $67 $70 $71 reversed $14 $-1 #
coedge $-1 -1 $-1 $72 $73 $23 $39 reversed $74 $-1 #
edge $-1 -1 $-1 $75 0 $76 0.1640419947506543963 $23 $77 forward @7 unknown #
face $-1 -1 $-1 $78 $55 $6 $-1 $79 reversed single #
loop $-1 -1 $-1 $-1 $80 $24 #
plane-surface $-1 -1 $-1 375 8274.979999999999563 16550 -3.369794271464890508e-30 -1 -2.144599079264893998e-15 0 6.536737993599396711e-13 -304.8000000000000114 forward_v I I I I #
coedge $-1 -1 $-1 $51 $81 $53 $82 forward $25 $-1 #
coedge $-1 -1 $-1 $83 $27 $84 $85 reversed $17 $-1 #
coedge $-1 -1 $-1 $27 $83 $86 $87 reversed $17 $-1 #
coedge $-1 -1 $-1 $88 $89 $27 $47 forward $90 $-1 #
edge $-1 -1 $-1 $91 0 $92 0.1640419947506543963 $46 $93 forward @7 unknown #
coedge $-1 -1 $-1 $29 $28 $83 $94 forward $11 $-1 #
coedge $-1 -1 $-1 $80 $86 $28 $50 reversed $41 $-1 #
edge $-1 -1 $-1 $57 0 $95 0.2624671916010612449 $28 $96 forward @7 unknown #
coedge $-1 -1 $-1 $84 $43 $29 $52 forward $25 $-1 #
edge $-1 -1 $-1 $56 0 $97 0.2624671916010612449 $51 $98 forward @7 unknown #
coedge $-1 -1 $-1 $99 $30 $43 $82 reversed $55 $-1 #
coedge $-1 -1 $-1 $30 $99 $80 $100 reversed $55 $-1 #
loop $-1 -1 $-1 $-1 $54 $40 #
vertex $-1 -1 $-1 $82 $101 #
vertex $-1 -1 $-1 $31 $102 #
straight-curve $-1 -1 $-1 375 8324.979999999999563 16550 0 -304.8000000000000114 0 F 0 F 0.1640419947506543963 #
face $-1 -1 $-1 $103 $74 $7 $-1 $104 reversed single #
loop $-1 -1 $-1 $-1 $105 $32 #
plane-surface $-1 -1 $-1 375 8274.980000000001382 16630 -1.613007891603665064e-30 -1 2.70085042315032278e-29 0 -8.232192089762183577e-27 -304.8000000000000114 forward_v I I I I #
coedge $-1 -1 $-1 $70 $106 $72 $107 forward $33 $-1 #
coedge $-1 -1 $-1 $108 $35 $109 $110 reversed $21 $-1 #
coedge $-1 -1 $-1 $35 $108 $111 $112 reversed $21 $-1 #
coedge $-1 -1 $-1 $113 $114 $35 $66 forward $115 $-1 #
edge $-1 -1 $-1 $116 0 $117 0.1640419947506543963 $65 $118 forward @7 unknown #
coedge $-1 -1 $-1 $37 $36 $108 $119 forward $14 $-1 #
coedge $-1 -1 $-1 $105 $111 $36 $69 reversed $60 $-1 #
edge $-1 -1 $-1 $76 0 $120 0.7217847769028864491 $36 $121 forward @7 unknown #
coedge $-1 -1 $-1 $109 $62 $37 $71 forward $33 $-1 #
edge $-1 -1 $-1 $75 0 $122 0.7217847769028864491 $70 $123 forward @7 unknown #
coedge $-1 -1 $-1 $124 $38 $62 $107 reversed $74 $-1 #
coedge $-1 -1 $-1 $38 $124 $105 $125 reversed $74 $-1 #
loop $-1 -1 $-1 $-1 $73 $59 #
vertex $-1 -1 $-1 $107 $126 #
vertex $-1 -1 $-1 $39 $127 #
straight-curve $-1 -1 $-1 375 8324.979999999999563 16630.00000000000364 0 -304.8000000000000114 0 F 0 F 0.1640419947506543963 #
face $-1 -1 $-1 $-1 $90 $6 $-1 $128 forward single #
plane-surface $-1 -1 $-1 425 8274.979999999997744 16550 -8.750755371007110221e-30 8.750755371007120311e-29 1 304.8000000000000114 0 2.667230237082967361e-27 forward_v I I I I #
coedge $-1 -1 $-1 $129 $49 $54 $100 forward $41 $-1 #
coedge $-1 -1 $-1 $43 $84 $89 $130 reversed $25 $-1 #
edge $-1 -1 $-1 $131 0 $56 0.1640419947506561726 $43 $132 forward @7 unknown #
coedge $-1 -1 $-1 $45 $44 $48 $94 reversed $17 $-1 #
coedge $-1 -1 $-1 $81 $51 $44 $85 forward $25 $-1 #
edge $-1 -1 $-1 $97 0 $91 0.1640419947506561726 $84 $133 forward @7 unknown #
coedge $-1 -1 $-1 $49 $129 $45 $87 forward $41 $-1 #
edge $-1 -1 $-1 $92 0 $95 0.1640419947506561726 $86 $134 forward @7 unknown #
coedge $-1 -1 $-1 $135 $46 $129 $136 forward $90 $-1 #
coedge $-1 -1 $-1 $46 $135 $81 $130 forward $90 $-1 #
loop $-1 -1 $-1 $-1 $135 $78 #
vertex $-1 -1 $-1 $130 $137 #
vertex $-1 -1 $-1 $47 $138 #
straight-curve $-1 -1 $-1 425 8324.979999999999563 16630.00000000000364 0 -304.8000000000000114 0 F 0 F 0.1640419947506543963 #
edge $-1 -1 $-1 $95 0 $97 0.1640419947506543963 $48 $139 forward @7 unknown #
vertex $-1 -1 $-1 $50 $140 #
straight-curve $-1 -1 $-1 375 8274.979999999999563 16550 0 0 304.8000000000000114 F 0 F 0.2624671916010612449 #
vertex $-1 -1 $-1 $52 $141 #
straight-curve $-1 -1 $-1 375 8324.979999999999563 16550 0 0 304.8000000000000114 F 0 F 0.2624671916010612449 #
coedge $-1 -1 $-1 $54 $53 $135 $142 reversed $55 $-1 #
edge $-1 -1 $-1 $57 0 $143 0.1640419947506561726 $80 $144 forward @7 unknown #
point $-1 -1 $-1 375 8324.979999999999563 16550 #
point $-1 -1 $-1 375 8274.979999999999563 16550 #
face $-1 -1 $-1 $-1 $115 $7 $-1 $145 forward single #
plane-surface $-1 -1 $-1 425 8274.979999999999563 16630 0 0 1 304.8000000000000114 0 0 forward_v I I I I #
coedge $-1 -1 $-1 $146 $68 $73 $125 forward $60 $-1 #
coedge $-1 -1 $-1 $62 $109 $114 $147 reversed $33 $-1 #
edge $-1 -1 $-1 $148 0 $75 0.1640419947506561726 $62 $149 forward @7 unknown #
coedge $-1 -1 $-1 $64 $63 $67 $119 reversed $21 $-1 #
coedge $-1 -1 $-1 $106 $70 $63 $110 forward $33 $-1 #
edge $-1 -1 $-1 $122 0 $116 0.1640419947506561726 $109 $150 forward @7 unknown #
coedge $-1 -1 $-1 $68 $146 $64 $112 forward $60 $-1 #
edge $-1 -1 $-1 $117 0 $120 0.1640419947506561726 $111 $151 forward @7 unknown #
coedge $-1 -1 $-1 $152 $65 $146 $153 forward $115 $-1 #
coedge $-1 -1 $-1 $65 $152 $106 $147 forward $115 $-1 #
loop $-1 -1 $-1 $-1 $152 $103 #
vertex $-1 -1 $-1 $147 $154 #
vertex $-1 -1 $-1 $66 $155 #
straight-curve $-1 -1 $-1 425 8324.979999999999563 16850.00000000000364 0 -304.8000000000000114 0 F 0 F 0.1640419947506543963 #
edge $-1 -1 $-1 $120 0 $122 0.1640419947506543963 $67 $156 forward @7 unknown #
vertex $-1 -1 $-1 $69 $157 #
straight-curve $-1 -1 $-1 375 8274.980000000001382 16630.00000000000364 0 0 304.8000000000000114 F 0 F 0.7217847769028864491 #
vertex $-1 -1 $-1 $71 $158 #
straight-curve $-1 -1 $-1 375 8324.979999999999563 16630.00000000000364 0 0 304.8000000000000114 F 0 F 0.7217847769028864491 #
coedge $-1 -1 $-1 $73 $72 $152 $159 reversed $74 $-1 #
edge $-1 -1 $-1 $76 0 $160 0.1640419947506561726 $105 $161 forward @7 unknown #
point $-1 -1 $-1 375 8324.979999999999563 16630.00000000000364 #
point $-1 -1 $-1 375 8274.980000000001382 16630.00000000000364 #
plane-surface $-1 -1 $-1 424.9999999999999432 8274.980000000001382 16550 1 -3.236226098745051051e-30 3.236226098745049649e-30 9.864017148974912216e-28 0 -304.8000000000000114 forward_v I I I I #
coedge $-1 -1 $-1 $86 $80 $88 $136 reversed $41 $-1 #
edge $-1 -1 $-1 $131 0 $91 0.2624671916010612449 $89 $162 forward @7 unknown #
vertex $-1 -1 $-1 $142 $163 #
straight-curve $-1 -1 $-1 425 8324.979999999999563 16550 -304.8000000000000114 0 0 F 0 F 0.1640419947506561726 #
straight-curve $-1 -1 $-1 375 8324.979999999999563 16630.00000000000364 304.8000000000000114 0 0 F 0 F 0.1640419947506561726 #
straight-curve $-1 -1 $-1 425 8274.979999999999563 16630.00000000000364 -304.8000000000000114 0 0 F 0 F 0.1640419947506561726 #
coedge $-1 -1 $-1 $89 $88 $99 $142 forward $90 $-1 #
edge $-1 -1 $-1 $92 0 $143 0.2624671916010612449 $88 $164 forward @7 unknown #
point $-1 -1 $-1 425 8324.979999999999563 16630.00000000000364 #
point $-1 -1 $-1 425 8274.979999999999563 16630.00000000000364 #
straight-curve $-1 -1 $-1 375 8274.979999999999563 16630.00000000000364 0 304.8000000000000114 0 F 0 F 0.1640419947506543963 #
point $-1 -1 $-1 375 8274.979999999999563 16630.00000000000364 #
point $-1 -1 $-1 375 8324.979999999999563 16630.00000000000364 #
edge $-1 -1 $-1 $143 0 $131 0.1640419947506543963 $135 $165 forward @7 unknown #
vertex $-1 -1 $-1 $142 $166 #
straight-curve $-1 -1 $-1 375 8274.979999999999563 16550 304.8000000000000114 0 0 F 0 F 0.1640419947506561726 #
plane-surface $-1 -1 $-1 424.9999999999999432 8274.980000000001382 16630 1 -3.469842557519524429e-31 -2.250708685958611075e-30 -6.860160074801846553e-28 0 -304.8000000000000114 forward_v I I I I #
coedge $-1 -1 $-1 $111 $105 $113 $153 reversed $60 $-1 #
edge $-1 -1 $-1 $148 0 $116 0.7217847769028864491 $114 $167 forward @7 unknown #
vertex $-1 -1 $-1 $159 $168 #
straight-curve $-1 -1 $-1 425 8324.979999999999563 16630.00000000000364 -304.8000000000000114 0 0 F 0 F 0.1640419947506561726 #
straight-curve $-1 -1 $-1 375 8324.979999999999563 16850.00000000000364 304.8000000000000114 0 0 F 0 F 0.1640419947506561726 #
straight-curve $-1 -1 $-1 425 8274.980000000001382 16850.00000000000364 -304.8000000000000114 0 0 F 0 F 0.1640419947506561726 #
coedge $-1 -1 $-1 $114 $113 $124 $159 forward $115 $-1 #
edge $-1 -1 $-1 $117 0 $160 0.7217847769028864491 $113 $169 forward @7 unknown #
point $-1 -1 $-1 425 8324.979999999999563 16850.00000000000364 #
point $-1 -1 $-1 425 8274.980000000001382 16850.00000000000364 #
straight-curve $-1 -1 $-1 375 8274.980000000001382 16850.00000000000364 0 304.8000000000000114 0 F 0 F 0.1640419947506543963 #
point $-1 -1 $-1 375 8274.980000000001382 16850.00000000000364 #
point $-1 -1 $-1 375 8324.979999999999563 16850.00000000000364 #
edge $-1 -1 $-1 $160 0 $148 0.1640419947506543963 $152 $170 forward @7 unknown #
vertex $-1 -1 $-1 $159 $171 #
straight-curve $-1 -1 $-1 375 8274.980000000001382 16630.00000000000364 304.8000000000000114 0 0 F 0 F 0.1640419947506561726 #
straight-curve $-1 -1 $-1 425 8324.979999999999563 16550 0 0 304.8000000000000114 F 0 F 0.2624671916010612449 #
point $-1 -1 $-1 425 8324.979999999999563 16550 #
straight-curve $-1 -1 $-1 425 8274.979999999999563 16630.00000000000364 0 0 -304.8000000000000114 F 0 F 0.2624671916010612449 #
straight-curve $-1 -1 $-1 425 8274.979999999999563 16550 0 304.8000000000000114 0 F 0 F 0.1640419947506543963 #
point $-1 -1 $-1 425 8274.979999999999563 16550 #
straight-curve $-1 -1 $-1 425 8324.979999999999563 16630.00000000000364 0 0 304.8000000000000114 F 0 F 0.7217847769028864491 #
point $-1 -1 $-1 425 8324.979999999999563 16630.00000000000364 #
straight-curve $-1 -1 $-1 425 8274.980000000001382 16850.00000000000364 0 0 -304.8000000000000114 F 0 F 0.7217847769028864491 #
straight-curve $-1 -1 $-1 425 8274.980000000001382 16630.00000000000364 0 304.8000000000000114 0 F 0 F 0.1640419947506543963 #
point $-1 -1 $-1 425 8274.980000000001382 16630.00000000000364 #
End-of-ACIS-data 