700 0 1 0           
4 LibG 19 ASM 222.0.0.1700 NT 24 Wed Oct  5 17:29:48 2016 
1000 9.999999999999999547e-07 1.000000000000000036e-10 
body $-1 -1 $-1 $1 $-1 $-1 #
lump $-1 -1 $-1 $-1 $2 $0 #
shell $-1 -1 $-1 $-1 $-1 $3 $-1 $1 #
face $-1 -1 $-1 $-1 $4 $2 $-1 $5 forward double out #
loop $-1 -1 $-1 $-1 $6 $3 #
spline-surface $-1 -1 $-1 forward { exactsur full nubs 3 3 open open none none 40 2 
	-1.191870094199698673e-07 3 0.02564102564102564014 1 0.05128205128205128027 1 0.07692307692307692735 1 0.1025641025641025605 1 
	0.1282051282051281937 1 0.1538461538461538269 1 0.1794871794871794601 1 0.2051282051282050933 1 0.2307692307692307265 1 
	0.2564102564102563875 1 0.2820512820512820484 1 0.3076923076923077094 1 0.3333333333333333703 1 0.3589743589743590313 1 
	0.3846153846153846922 1 0.4102564102564103532 1 0.4358974358974360142 1 0.4615384615384616751 1 0.4871794871794873361 1 
	0.512820512820512997 1 0.538461538461538658 1 0.5641025641025643189 1 0.5897435897435899799 1 0.6153846153846156408 1 
	0.6410256410256413018 1 0.6666666666666669627 1 0.6923076923076926237 1 0.7179487179487182846 1 0.7435897435897439456 1 
	0.7692307692307696065 1 0.7948717948717952675 1 0.8205128205128209284 1 0.8461538461538465894 1 0.8717948717948722503 1 
	0.8974358974358979113 1 0.9230769230769235723 1 0.9487179487179492332 1 0.9743589743589748942 1 1.000000000000000444 3 
	-1.191870094657117376e-07 3 0.1000418327985502648 3 
	8202.268568453842818 2385.739958696915892 13510.00000000014006 
	8186.420021398413155 2364.90393771009758 13509.99998045506254 
	8154.723200957078916 2323.232255528694168 13514.20473505409973 
	8108.396599251625958 2262.32685883797285 13532.96452861431681 
	8064.476371402410223 2204.585112164835209 13563.69603353163984 
	8024.088218635908561 2151.486970378196929 13605.61152371900062 
	7988.267444223717575 2104.393542519735547 13657.63655965522594 
	7957.932255022520621 2064.511991446031516 13718.43755906677325 
	7933.860248294941812 2032.864621146643913 13786.45598127088488 
	7916.6684728553073 2010.262663212707139 13859.94827798366532 
	7906.797613664444725 1997.285484387459746 13937.03058651526408 
	7904.50069508937122 1994.265734787206611 14015.72701971034439 
	7909.836595132296679 2001.280821084338186 14094.02031479506877 
	7922.668536150379623 2018.150922262651875 14169.90354282483531 
	7942.667590950275553 2044.44359906574573 14241.43155324008876 
	7969.321114331604804 2079.484878913267949 14306.77083482764647 
	8001.945883963705455 2122.376532158638838 14364.24651497806008 
	8039.705613745560186 2172.019096832829291 14412.38529248482155 
	8081.632390721737465 2227.140061671422245 14449.95320336879195 
	8126.65148605149534 2286.326484995749979 14475.98725165863107 
	8173.608904039843765 2348.061213313107601 14489.82009432056111 
	8221.300963053236046 2410.761771227462759 14491.09714757692745 
	8268.505150058372237 2472.820925777376942 14479.78567611940707 
	8314.011457875138149 2532.647885396218953 14456.17563222856006 
	8356.653401861103703 2588.70907742237705 14420.87222329033466 
	8395.337920962314456 2639.567458890321177 14374.78039822983555 
	8429.07339666263033 2683.919352930411605 14319.08165052887307 
	8456.995071608602302 2720.627866532735879 14255.20373244653092 
	8478.387216342502143 2748.752033061661223 14184.78405677240698 
	8492.701475932737594 2767.570932497030753 14109.62772425260846 
	8499.570926214995779 2776.602171117728631 14031.66125259131331 
	8498.819479329977185 2775.614246924299096 13952.88319311412852 
	8490.466397475267513 2764.632483850335575 13875.31290096014891 
	8474.725799115700283 2743.938382579228346 13800.93877199793678 
	8452.001170505660411 2714.062404864651398 13731.66727334329516 
	8422.875022480933694 2675.770375356481964 13669.27407396452327 
	8388.09396038099112 2630.043853087686784 13615.35852821352819 
	8348.549539628582352 2578.054962382008853 13571.30267848237418 
	8305.255435706982098 2521.136378314913145 13538.23582992536467 
	8259.32137192139453 2460.747049646565756 13517.00559772191446 
	8227.723792352911914 2419.20583904102341 13511.10599750287111 
	8211.883646510183098 2398.380863094712367 13510.25746935761345 
	8295.164838285912992 2315.080071450166997 13510.00000000014552 
	8278.605205462756203 2294.751179556109037 13509.99998041481012 
	8245.486226597206041 2254.093747897502453 13514.21339492344669 
	8197.083570473161672 2194.674027763750928 13533.01149165286188 
	8151.20014152935255 2138.347379918232491 13563.80463887918086 
	8109.01427341863473 2086.560532187440458 13605.80190529898573 
	8071.609479146522972 2040.643776993255642 13657.92453893472521 
	8039.946454419604379 2001.776593445162234 13718.83370557863782 
	8014.838427869422958 1970.957379741243813 13786.96487869124758 
	7996.930267413539696 1948.977798535243664 13860.5680265187093 
	7986.68191927636326 1936.402443259197071 13937.75256415662079 
	7984.356594337503338 1933.554334604681571 14016.53591589232201 
	7990.014008093410666 1940.506623239860573 14094.89444042315336 
	8003.508847087649883 1957.080710954373217 14170.81541085439858 
	8024.494501398750799 1982.850838741761891 14242.3487142883223 
	8052.431967258280565 2017.155023885922901 14307.65694301977055 
	8086.60369114957939 2059.112065110498406 14365.06259066996245 
	8126.13199980016725 2107.644178950823971 14413.09114095591212 
	8170.001642700008233 2161.504685859787514 14450.50894229942242 
	8217.08586814946284 2219.310034840325443 14476.35489541552488 
	8266.175363085094432 2279.575343950828028 14489.96513994583984 
	8316.009313378121078 2340.752543714933836 14490.9901060347529 
	8365.307786838526226 2401.270143605710473 14479.40349286692981 
	8412.80460718631366 2459.573600082304438 14455.50294355456754 
	8457.279874643028961 2514.165249206749195 14419.90239905654562 
	8497.591297874625525 2563.642778055965209 14373.51632754947241 
	8532.703532548617659 2606.7352466816983 14317.53623436256203 
	8561.71477296903322 2642.33573529536352 14253.40005587396809 
	8583.87991380812673 2669.529778048273783 14182.75522355164139 
	8598.62968704985542 2687.618853013761509 14107.41634691282343 
	8605.585282637917771 2696.138324977659522 14029.31860239537127 
	8604.568077315492701 2694.869380135651227 13950.46802543193007 
	8595.604221807341673 2683.844646156290764 13872.8899825611079 
	8578.923968485987643 2663.347353194252264 13798.57714715230577 
	8554.955757012548929 2633.904057678972549 13729.43831507737923 
	8524.315209108428462 2596.271114869049597 13667.24937504298214 
	8487.78931799925158 2551.415251200985949 13613.60769309582793 
	8446.316227947767402 2500.488722390482963 13569.89108255386964 
	8400.961163110148846 2444.799744401680982 13537.22241490416491 
	8352.888975183934235 2385.77877415061721 13516.44077455875231 
	8319.852705242295997 2345.221050083751834 13510.86687230776079 
	8303.29952638890245 2324.899878807773348 13510.18583116160698 
	8384.523531668988653 2239.769668334465223 13510.00000000014552 
	8367.277130609983942 2219.984319060964481 13509.99998037455407 
	8332.78462807368669 2180.413964268543168 13514.22205479279728 
	8282.377330002380404 2122.586109111954556 13533.05845469141059 
	8234.59906371953366 2067.774730053357416 13563.91324422672005 
	8190.679347993672309 2017.390528510860804 13605.99228687896539 
	8151.748548642633068 1972.730425374521701 13658.21251821421902 
	8118.808611443118025 1934.94397694252666 13719.22985209050603 
	8092.707301083554739 1905.003814608555103 13787.47377611159936 
	8074.116375406627412 1883.680600969582429 13861.1877750537551 
	8063.51429838358672 1871.523194863414346 13938.47454179798478 
	8061.17392556017785 1868.844523073177243 14017.34481207429963 
	8067.155481906896057 1875.713525803012999 14095.76856605123248 
	8081.30501199655555 1891.953382327921872 14171.72727888396003 
	8103.258342606602127 1917.146062731111215 14243.26587533655402 
	8132.450455695940036 1950.6430884908591 14308.54305121189282 
	8168.130030530907788 1991.582224941940012 14365.87866636186118 
	8209.378780675786402 2038.909675923372106 14413.79698942700088 
	8255.13508816223657 2091.407209300152317 14451.06468123005106 
	8304.221326553648396 2147.723515121165747 14476.72253917242051 
	8355.374169679615079 2206.408989225611094 14490.11018557111311 
	8407.277105973838843 2265.95304693766866 14490.88306449257107 
	8458.594321583932469 2324.82300636437003 14479.02130961444891 
	8508.005080194909169 2381.503540410494224 14454.83025488057683 
	8554.237714725708429 2434.535681987227235 14418.9325748227584 
	8596.102356049519585 2482.554378394501327 14372.25225686910926 
	8632.521556396204687 2524.323628204659599 14315.99081819625644 
	8662.558019282263558 2558.76829620563467 14251.59637930140525 
	8685.438722286005941 2585.001787473470358 14180.7263903308758 
	8700.574811825379584 2602.348868235072132 14105.20496957303658 
	8707.576757916269344 2610.36304611081232 14026.97595219942923 
	8706.264378880203367 2608.838062368374267 13948.05285774972799 
	8696.67147802504951 2597.813200404031704 13870.46706416206325 
	8679.044972922705711 2577.572273760189091 13796.21552230666748 
	8653.838539926573503 2548.636319994577661 13727.20935681145238 
	8621.70093671694849 2511.750187565642136 13665.22467612144101 
	8583.459306431132063 2467.863364452850874 13611.85685797812403 
	8540.097881926654736 2418.105529193655457 13568.4794866253651 
	8492.732679987026131 2363.757501542110731 13536.20899988295605 
	8442.582681154632155 2306.218161923924526 13515.87595139558834 
	8408.153438898900276 2266.718625795529078 13510.62774711265411 
	8390.911225498544809 2246.937886343857826 13510.11419296560234 
	8469.898150481045377 2160.185052447481212 13510.00000000014188 
	8451.992903220634616 2140.977148595392464 13509.9999803342962 
	8416.18272069644263 2102.561675586474394 13514.23071466213878 
	8363.852688557470174 2046.424487907171851 13533.10541772995202 
	8314.257817227560736 1993.22145160128639 13564.02184957425561 
	8268.677072641572522 1944.324580936448001 13606.18266845894686 
	8228.286052403524081 1900.995001515585045 13658.50049749371283 
	8194.126483715943323 1864.350229095684654 13719.62599860236514 
	8167.07938306494907 1835.33537656523049 13787.98267353195115 
	8147.842326525456883 1814.698770600857415 13861.80752358879909 
	8136.911460399431235 1802.972653529408717 13939.1965194393415 
	8134.568704501362845 1800.459455616831519 14018.15370825627542 
	8140.874481255560568 1807.223995187030368 14096.64269167931161 
	8155.666157293703691 1823.09180684132707 14172.63914691352329 
	8178.562237969876151 1847.653641136115766 14244.18303638478392 
	8208.972206551525232 1880.276019602382803 14309.42915940401144 
	8246.111754338235187 1920.117572898013805 14366.69474205376173 
	8289.02300890135848 1966.150740708168769 14414.50283789808964 
	8336.599238735678227 2017.188273729164848 14451.6204201606779 
	8387.613397160926979 2071.913854218285906 14477.0901829293125 
	8440.749769292573546 2128.91604536982004 14490.25523119638819 
	8494.637905869432871 2186.724693923083123 14490.7760229503856 
	8547.887968744917089 2243.848847136615859 14478.63912636196255 
	8599.126576440388817 2298.815206205305458 14454.15756620658067 
	8647.032225261740678 2350.206124361844559 14417.96275058897299 
	8690.369372427185226 2396.696169646957969 14370.98818618874247 
	8728.020302162451117 2437.086309351738691 14314.44540202995449 
	8759.01395289944594 2470.334834475307616 14249.79270272883696 
	8782.550962091308975 2495.584226619841957 14178.69755711010475 
	8798.024282708351166 2512.183274394064938 14102.99359223324609 
	8805.034839692563764 2519.703868918332319 14024.63330200348173 
	8803.401822567979252 2517.952045251141044 13945.63769006752409 
	8793.167348764627604 2506.972984982808612 13868.04414576301497 
	8774.595377323315915 2487.049850909308589 13793.85389746103101 
	8748.164901222302433 2458.696484081724975 13724.98039854553281 
	8714.557593067145717 2422.644150685641762 13663.19997719989078 
	8674.640225897857817 2379.822683913087531 13610.10602286042013 
	8629.442310849926798 2331.336494701113679 13567.0678906968551 
	8580.12957190371344 2278.436116695383589 13535.19558486174901 
	8527.973779556552472 2222.485845237878038 13515.31112823242074 
	8492.204811245963356 2184.114584891357481 13510.38862191753833 
	8474.301202215367084 2164.908438454866882 13510.04255476959406 
	0 
	
	0 
	0 
	38 0.02564102564102564014 0.05128205128205128027 0.07692307692307692735 0.1025641025641025605 0.1282051282051281937 0.1538461538461538269 0.1794871794871794601 0.2051282051282050933 0.2307692307692307265 0.2564102564102563875 0.2820512820512820484 0.3076923076923077094 0.3333333333333333703 0.3589743589743590313 0.3846153846153846922 0.4102564102564103532 0.4358974358974360142 0.4615384615384616751 0.4871794871794873361 0.512820512820512997 0.538461538461538658 0.5641025641025643189 0.5897435897435899799 0.6153846153846156408 0.6410256410256413018 0.6666666666666669627 0.6923076923076926237 0.7179487179487182846 0.7435897435897439456 0.7692307692307696065 0.7948717948717952675 0.8205128205128209284 0.8461538461538465894 0.8717948717948722503 0.8974358974358979113 0.9230769230769235723 0.9487179487179492332 0.9743589743589748942 
	0 
	0 
	0 
	F 1 F 0 F 1 F 0 } I I I I #
tcoedge-coedge $-1 -1 $-1 $7 $8 $-1 $9 forward $4 $10 1.562817119153614755e-28 6.250766387756696574 #
coedge $-1 -1 $-1 $11 $6 $-1 $12 forward $4 $13 #
coedge $-1 -1 $-1 $6 $11 $-1 $14 forward $4 $15 #
tedge-edge $-1 -1 $-1 $16 1.562817119153614755e-28 $17 6.250766387756696574 $6 $18 forward @7 unknown 0.0008503927515533958505 #
pcurve $-1 -1 $-1 0 forward { exppc nubs 1 open 2 
	0 1 6.250766387756696574 1 
	0 0 
	0.9999999999999990008 0 
	6.41768975583385389e-08 
	spline forward { ref 0 } I I I I 
	} 0 0 #
tcoedge-coedge $-1 -1 $-1 $8 $7 $-1 $19 forward $4 $20 4.027349049836225997e-16 6.270005910518959169 #
edge $-1 -1 $-1 $17 -1.597735222678994482 $21 -1.48213359843128889 $7 $22 forward @7 unknown #
pcurve $-1 -1 $-1 0 forward { exppc nubs 3 open 2 
	-1.597735222678994482 3 -1.48213359843128889 3 
	1 1.519052632113164968e-16 
	0.9999999975120998918 0.03330815819587969184 
	1.000000000000000444 0.06667390754963639643 
	0.999999999999999778 0.1000417136115408501 
	1.914808948443659473e-06 
	spline forward { ref 0 } I I I I 
	} 0 0 #
edge $-1 -1 $-1 $23 -0.1000208620215958938 $16 -1.830985469789845394e-26 $8 $24 forward @7 unknown #
pcurve $-1 -1 $-1 0 forward { exppc nubs 1 open 2 
	-0.1000208620215957134 1 -1.830985469789845394e-26 1 
	1.992593783793811176e-15 0.1000417136115407946 
	4.574187052290469789e-17 0 
	0.0009308921386340440274 
	spline forward { ref 0 } I I I I 
	} 0 0 #
tvertex-vertex $-1 -1 $-1 $9 $25 1.181898940354585587e-11 #
tvertex-vertex $-1 -1 $-1 $9 $26 1.409272615797817647e-11 #
ellipse-curve $-1 -1 $-1 8202.268679472053918 2385.739415594507591 14000.00000000000364 -0.7959196799694183699 0.6054022324350801787 4.921837349914161476e-12 -1.753161882334097796e-09 1.678714767194833299e-09 -489.9999999999990337 1 F 1.562817119153614755e-28 F 6.250766387756696574 #
tedge-edge $-1 -1 $-1 $21 4.027349049836225997e-16 $23 6.270005910518959169 $11 $27 forward @7 unknown 0.0008609630440830473965 #
pcurve $-1 -1 $-1 0 forward { exppc nubs 1 open 2 
	0 1 6.270005910518959169 1 
	1 0.1000417136115408501 
	1.227602935596628059e-15 0.1000417136115407946 
	7.952071782061551854e-08 
	spline forward { ref 0 } I I I I 
	} 0 0 #
tvertex-vertex $-1 -1 $-1 $12 $28 1.662122137262533058e-11 #
ellipse-curve $-1 -1 $-1 6578.943898296267434 334.107540413458139 13510.12130255293414 -0.0004462344527182402799 0.0004189565133269095216 -0.9999998126751090677 2324.721107503237363 -1959.591501233453755 -1.858354622147137647 0.8655747823099925187 F -1.597735222678994482 F -1.48213359843128889 #
tvertex-vertex $-1 -1 $-1 $19 $29 1.58236075687389949e-11 #
ellipse-curve $-1 -1 $-1 6082.890451052620847 -400.5376297133478829 13510.00000000173168 3.283444382156318227e-13 3.70389659496358266e-13 1 2119.378228417680475 2786.277045309534515 -1.728255938360234888e-09 1 F -0.1000208620215958938 F -1.830985469789845394e-26 #
point $-1 -1 $-1 8202.268679470300413 2385.739415596186518 13510.00000000000364 #
point $-1 -1 $-1 8211.883973240659543 2398.380600465511634 13510.2574691015725 #
ellipse-curve $-1 -1 $-1 8469.897595661115702 2160.185069037188896 13999.99999999999818 0.7314755809615042237 -0.6818676370506450146 -1.094254708600143347e-11 4.403308509210015487 4.723662600002994871 -489.9574449743703326 1 F 4.027349049836225997e-16 F 6.270005910518959169 #
point $-1 -1 $-1 8474.300904170324429 2164.908731637191977 13510.04255502563137 #
point $-1 -1 $-1 8469.897595657337661 2160.185069041000588 13510 #
End-of-ACIS-data 