700 0 1 0           
4 LibG 19 ASM 222.0.0.1700 NT 24 Wed Oct  5 17:29:48 2016 
1000 9.999999999999999547e-07 1.000000000000000036e-10 
body $-1 -1 $-1 $1 $-1 $-1 #
lump $-1 -1 $-1 $-1 $2 $0 #
shell $-1 -1 $-1 $-1 $-1 $3 $-1 $1 #
face $-1 -1 $-1 $-1 $4 $2 $-1 $5 forward double out #
loop $-1 -1 $-1 $-1 $6 $3 #
spline-surface $-1 -1 $-1 forward { exactsur full nubs 3 3 open open none none 40 2 
	-1.191870091718835653e-07 3 0.02564102564102564014 1 0.05128205128205128027 1 0.07692307692307692735 1 0.1025641025641025605 1 
	0.1282051282051281937 1 0.1538461538461538269 1 0.1794871794871794601 1 0.2051282051282050933 1 0.2307692307692307265 1 
	0.2564102564102563875 1 0.2820512820512820484 1 0.3076923076923077094 1 0.3333333333333333703 1 0.3589743589743590313 1 
	0.3846153846153846922 1 0.4102564102564103532 1 0.4358974358974360142 1 0.4615384615384616751 1 0.4871794871794873361 1 
	0.512820512820512997 1 0.538461538461538658 1 0.5641025641025643189 1 0.5897435897435899799 1 0.6153846153846156408 1 
	0.6410256410256413018 1 0.6666666666666669627 1 0.6923076923076926237 1 0.7179487179487182846 1 0.7435897435897439456 1 
	0.7692307692307696065 1 0.7948717948717952675 1 0.8205128205128209284 1 0.8461538461538465894 1 0.8717948717948722503 1 
	0.8974358974358979113 1 0.9230769230769235723 1 0.9487179487179492332 1 0.9743589743589748942 1 1.000000000000000444 3 
	-1.191870091718835653e-07 3 0.1000418327985500289 3 
	8931.121745151915093 1634.783551484087639 13510.00000000014734 
	8909.82167991456663 1619.564371637062322 13509.99998045506072 
	8867.221917245122313 1589.126274744760394 13514.20473505409791 
	8804.960081185365198 1544.639364961125921 13532.96452861431681 
	8745.9323535863914 1502.463268677881842 13563.69603353164166 
	8691.651649763287423 1463.678984005443226 13605.61152371900607 
	8643.50939235865917 1429.280700924223765 13657.63655965522594 
	8602.739629255906038 1400.150163056510337 13718.43755906677688 
	8570.387432433200956 1377.034088227422217 13786.45598127089033 
	8547.282100623962833 1360.525021409477631 13859.94827798366532 
	8534.015903793513644 1351.046147368537277 13937.03058651526771 
	8530.928900592345599 1348.840442532269208 14015.72701971034621 
	8538.100221636274 1353.964446777897365 14094.02031479506877 
	8555.346041070131832 1366.286814087503672 14169.90354282483531 
	8582.224288674355194 1385.491679410836696 14241.4315532400924 
	8618.045981656165168 1411.086755380801378 14306.77083482764829 
	8661.892885671193653 1442.415951348230919 14364.24651497806371 
	8712.64105235707575 1478.676191262656403 14412.38529248482155 
	8768.989630031786874 1518.937999299363582 14449.95320336879377 
	8829.494209038071858 1562.169325551382826 14475.9872516586347 
	8892.603846977181092 1607.262001051348307 14489.82009432055929 
	8956.700824746538274 1653.060143989055405 14491.09714757692745 
	9020.142114296220825 1698.389788974868225 14479.78567611941071 
	9081.301495141520718 1742.088979848011832 14456.17563222856006 
	9138.611240039375843 1783.037554646648005 14420.87222329033466 
	9190.602301279832318 1820.185859247553026 14374.78039822983919 
	9235.941967478654988 1852.581653645118649 14319.08165052887307 
	9273.468025596481311 1879.394521168344681 14255.20373244653092 
	9302.21855249368673 1899.937154942911093 14184.78405677241062 
	9321.45657235948056 1913.682975952167681 14109.62772425260846 
	9330.688947961169106 1920.279631085928713 14031.66125259131331 
	9329.679021460187869 1919.558025171603731 13952.88319311412852 
	9318.452680785809207 1911.536655478904549 13875.31290096014891 
	9297.297695993765956 1896.421137539242636 13800.93877199793678 
	9266.756342884520564 1874.598934622883235 13731.66727334329516 
	9227.611501980851244 1846.629425273610423 13669.27407396452691 
	9180.866592863192636 1813.22956612449525 13615.35852821353001 
	9127.719844530151022 1775.25550772833526 13571.30267848237418 
	9069.533612398132391 1733.680671145906217 13538.23582992536831 
	9007.799337841135639 1689.570711071179176 13517.00559772191809 
	8965.332952512753764 1659.227914062632863 13511.10599750287111 
	8944.044178302779983 1644.016801804809347 13510.2574693576189 
	8998.975633453082992 1539.818365985146784 13510.00000000014188 
	8977.146195858587816 1525.293871529702756 13509.99998041480831 
	8933.487698734603327 1496.245134224164531 13514.21339492344305 
	8869.681833981518139 1453.791254734222321 13533.01149165286188 
	8809.197020830528345 1413.547401945944557 13563.80463887918086 
	8753.586631092604875 1376.547271955044835 13605.80190529898573 
	8704.279031527110419 1343.741362926483362 13657.92453893472339 
	8662.540675178270249 1315.972410819571223 13718.83370557863782 
	8629.443605150814619 1293.953762219574855 13786.96487869124758 
	8605.837910397705855 1278.251043470011155 13860.5680265187093 
	8592.329893581607394 1269.267632004673032 13937.75256415662079 
	8589.266497682627232 1267.234293728505008 14016.53591589232019 
	8596.72639513035756 1272.203255163427002 14094.89444042314972 
	8614.517967321187825 1284.046861963180163 14170.81541085439676 
	8642.184226681691143 1302.460858434367992 14242.34871428832048 
	8679.014554772738848 1326.97220376184714 14307.65694301976873 
	8724.062954948367405 1356.951224153455769 14365.06259066996063 
	8776.172350729739264 1391.627788716381019 14413.09114095591212 
	8834.004305775188186 1430.111093515621405 14450.50894229942242 
	8896.073402070303928 1471.412545572959289 14476.35489541552488 
	8960.785393315405599 1514.471158930958836 14489.96513994583438 
	9026.478153521487911 1558.180810374220982 14490.99010603474744 
	9091.464369031526076 1601.418654628408376 14479.40349286692799 
	9154.074877405289953 1643.073969072621139 14455.50294355456572 
	9212.701539993264305 1682.076686968548529 14419.90239905654562 
	9265.838547004821521 1717.424886213142599 14373.51632754947241 
	9312.121094140677087 1748.210527455101783 14317.53623436256021 
	9350.360437374218236 1773.642780389716336 14253.40005587396809 
	9379.574425498069104 1793.068339006225415 14182.75522355164139 
	9399.012726209211905 1805.988203914673477 14107.41634691282343 
	9408.176097808944178 1812.070500639894135 14029.31860239537309 
	9406.829211529622626 1811.159004600069011 13950.46802543192825 
	9395.00669518151517 1803.27715379677602 13872.88998256110426 
	9373.012242834767676 1788.627446099943882 13798.57714715230395 
	9341.410813697712001 1767.586236806472925 13729.43831507737741 
	9301.014119577075689 1740.694069461252411 13667.24937504298214 
	9252.859777475554438 1708.641790860555602 13613.60769309582247 
	9198.184648736860254 1672.252797572568397 13569.89108255386782 
	9138.393102113153873 1632.461905044169043 13537.22241490416491 
	9075.020819782223043 1590.291251580424841 13516.44077455875049 
	9031.470811979985228 1561.313312841344668 13510.86687230776079 
	9009.649822381226841 1546.794285838445376 13510.18583116160698 
	9062.075199364768196 1441.456393239896443 13510.00000000014006 
	9039.750385225637729 1427.654180771743086 13509.99998037455043 
	8995.101144765172648 1400.049995655748035 13514.22205479278637 
	8929.850865135544154 1359.709475838620165 13533.05845469141059 
	8868.003888516359439 1321.473347813333703 13563.91324422672005 
	8811.151832995412406 1286.325759310591138 13605.99228687896539 
	8760.757957848716615 1255.1714771336799 13658.2125182142172 
	8718.119275919234497 1228.812456834582235 13719.22985209050239 
	8684.333204897800897 1207.927219751765051 13787.47377611159573 
	8660.269313217744639 1193.053381154122917 13861.1877750537551 
	8646.546941764425355 1184.573812643285464 13938.47454179798297 
	8643.519262902065748 1182.70678607175887 14017.34481207429963 
	8651.264190979994964 1187.500355086509444 14095.76856605123066 
	8669.582377219612681 1198.831118282274019 14171.72727888395821 
	8698.002340860919503 1216.40739597119773 14243.26587533654856 
	8735.792604419857525 1239.776738741499003 14308.54305121188918 
	8781.980520729226555 1268.337574526944081 14365.87866636186118 
	8835.377307176262548 1301.354694359595896 14413.79698942700088 
	8894.608642795543346 1337.97817816707834 14451.06468123004925 
	8958.150040696818905 1377.265273421070106 14476.72253917242051 
	9024.366085400839438 1418.204663432262578 14490.11018557111311 
	9091.552525181667079 1459.742500573312554 14490.88306449257107 
	9157.980136033234885 1500.809534279523405 14479.02130961444345 
	9221.939228281584292 1540.348635496333372 14454.83025488057319 
	9281.783650325931376 1577.342009038780816 14418.9325748227584 
	9335.973156937257954 1610.837393363284491 14372.25225686910562 
	9383.113051639047626 1639.972573319817684 14315.99081819625644 
	9421.990082857548259 1663.997574881500213 14251.59637930140343 
	9451.6036699528795 1682.293970520869152 14180.72639033087398 
	9471.191655444652497 1694.390798281384832 14105.20496957303294 
	9480.249920635646049 1699.976684765490063 14026.97595219942559 
	9478.545359777237536 1698.907859976768123 13948.05285774972617 
	9466.121878886211562 1691.211857722360719 13870.46706416206143 
	9443.299264761952145 1677.086806286715273 13796.21552230666566 
	9410.664953614439582 1656.896327821817522 13727.20935681145056 
	9369.058910147759889 1631.160177125318341 13665.22467612143737 
	9319.552010181927471 1600.540863194009717 13611.85685797812403 
	9263.418468760755786 1565.826589008083602 13568.4794866253651 
	9202.103077399016911 1527.910982108655844 13536.20899988295241 
	9137.183892267032206 1487.77001315690859 13515.87595139558471 
	9092.616021133510003 1460.214778821338996 13510.62774711264865 
	9070.296570309199524 1446.415732075291544 13510.1141929655987 
	9120.105153610198613 1340.189118005222326 13510.00000000013642 
	9097.321659847755654 1327.133319989614392 13509.99998033429438 
	9051.755069322322015 1301.021951454003556 13514.23071466213878 
	8985.167831319598918 1262.864962063120629 13533.10541772994657 
	8922.060942866164623 1226.702343738103536 13564.02184957425561 
	8864.061821443339795 1193.466667845961183 13606.18266845894686 
	8812.66635371992561 1164.015133655855379 13658.50049749370919 
	8769.200083257304868 1139.107327435755906 13719.62599860236332 
	8734.784057607854265 1119.385651556525772 13787.98267353194933 
	8710.305905963208716 1105.358750897647269 13861.80752358879909 
	8696.396948629169856 1097.388395716198374 13939.19651943933786 
	8693.415913873588579 1095.680150788874926 14018.15370825626997 
	8701.439686081654145 1100.27807375731345 14096.64269167930797 
	8720.261322770033075 1111.063578802709571 14172.63914691351965 
	8749.395391888601807 1127.758495120227053 14244.18303638477846 
	8788.090491678025501 1149.932241267857307 14309.42915940400962 
	8835.348630201997366 1177.012930366541241 14366.69474205375445 
	8889.950964727639075 1208.302119732333722 14414.50283789808418 
	8950.489237107003646 1242.992824531159613 14451.62042016067244 
	9015.402094403734736 1280.19033086265722 14477.09018292930887 
	9083.01535801371756 1318.935271479411313 14490.25523119638638 
	9151.585202691765517 1358.228368991692605 14490.77602295038196 
	9219.34313184673556 1397.05620840153324 14478.63912636195892 
	9284.541589139587813 1434.417374262229032 14454.15756620657521 
	9345.499030007778856 1469.348278355414095 14417.96275058896754 
	9400.643290668678674 1500.948011759582869 14370.98818618873702 
	9448.552136064527076 1528.401580346166611 14314.44540202994722 
	9487.989940970068346 1551.000924432480133 14249.79270272883514 
	9517.939558214115095 1568.163180470122597 14178.69755711010293 
	9537.628552095935447 1579.445713778311756 14102.99359223324245 
	9546.549120407444207 1584.557534611145002 14024.63330200347991 
	9544.471191243401336 1583.366803121964949 13945.63769006751863 
	9531.448356837974643 1575.90422967468794 13868.04414576301315 
	9507.816491310775746 1562.362282760306925 13793.85389746102919 
	9474.185088257368989 1543.090225110815936 13724.98039854552917 
	9431.421540533661755 1518.585105424920584 13663.19997719988714 
	9380.628771649353439 1489.478940316031412 13610.10602286041649 
	9323.1167808573191 1456.522408579271087 13567.06789069685146 
	9260.368891154952507 1420.565510027999608 13535.19558486174537 
	9194.003364204423633 1382.535569400813984 13515.3111282324171 
	9148.489216617359489 1356.45425263943298 13510.38862191753651 
	9125.707807416962169 1343.399649156203168 13510.04255476958679 
	0 
	
	0 
	0 
	38 0.02564102564102564014 0.05128205128205128027 0.07692307692307692735 0.1025641025641025605 0.1282051282051281937 0.1538461538461538269 0.1794871794871794601 0.2051282051282050933 0.2307692307692307265 0.2564102564102563875 0.2820512820512820484 0.3076923076923077094 0.3333333333333333703 0.3589743589743590313 0.3846153846153846922 0.4102564102564103532 0.4358974358974360142 0.4615384615384616751 0.4871794871794873361 0.512820512820512997 0.538461538461538658 0.5641025641025643189 0.5897435897435899799 0.6153846153846156408 0.6410256410256413018 0.6666666666666669627 0.6923076923076926237 0.7179487179487182846 0.7435897435897439456 0.7692307692307696065 0.7948717948717952675 0.8205128205128209284 0.8461538461538465894 0.8717948717948722503 0.8974358974358979113 0.9230769230769235723 0.9487179487179492332 0.9743589743589748942 
	0 
	0 
	0 
	F 1 F 0 F 1 F 0 } I I I I #
tcoedge-coedge $-1 -1 $-1 $7 $8 $-1 $9 forward $4 $10 0 6.25076638775669835 #
coedge $-1 -1 $-1 $11 $6 $-1 $12 forward $4 $13 #
coedge $-1 -1 $-1 $6 $11 $-1 $14 forward $4 $15 #
tedge-edge $-1 -1 $-1 $16 -7.814085595768073775e-29 $17 6.25076638775669835 $6 $18 forward @7 unknown 0.0008503927536794827005 #
pcurve $-1 -1 $-1 0 forward { exppc nubs 1 open 2 
	0 1 6.25076638775669835 1 
	0 0 
	0.9999999999999990008 1.752831364831375733e-16 
	6.789994671540407542e-08 
	spline forward { ref 0 } I I I I 
	} 0 0 #
tcoedge-coedge $-1 -1 $-1 $8 $7 $-1 $19 forward $4 $20 0 6.270005910518964498 #
edge $-1 -1 $-1 $17 1.54385743120048935 $21 1.659459055340635425 $7 $22 forward @7 unknown #
pcurve $-1 -1 $-1 0 forward { exppc nubs 3 open 2 
	1.54385743120048935 3 1.659459055340635425 3 
	1 0 
	0.9999999975121028895 0.03330815819596556759 
	1.000000000000000444 0.06667390754958443799 
	0.9999999999999995559 0.1000417136115408501 
	1.983240138978555181e-06 
	spline forward { ref 0 } I I I I 
	} 0 0 #
edge $-1 -1 $-1 $23 -0.1000208620216022082 $16 -1.830985469790518376e-26 $8 $24 forward @7 unknown #
pcurve $-1 -1 $-1 0 forward { exppc nubs 1 open 2 
	-0.1000208620216022498 1 -1.830985469790518376e-26 1 
	0 0.1000417136115408501 
	1.514629639708579879e-16 0 
	0.000930892138400496688 
	spline forward { ref 0 } I I I I 
	} 0 0 #
tvertex-vertex $-1 -1 $-1 $9 $25 1.753084130414171998e-11 #
tvertex-vertex $-1 -1 $-1 $9 $26 1.516493705235941084e-11 #
ellipse-curve $-1 -1 $-1 8931.121690643703914 1634.782999838891101 14000.00000000000364 -0.5813607040646797675 0.8136459498881685182 7.603594808735346812e-13 7.58006990508874846e-12 4.634671313397120995e-10 -489.9999999999990337 1 F -7.814085595768073775e-29 F 6.25076638775669835 #
tedge-edge $-1 -1 $-1 $21 0 $23 6.270005910518964498 $11 $27 forward @7 unknown 0.0008609630395760124602 #
pcurve $-1 -1 $-1 0 forward { exppc nubs 1 open 2 
	0 1 6.270005910518964498 1 
	1 0.1000417136115408084 
	8.302031768891047153e-16 0.1000417136115408501 
	9.774920714243123092e-08 
	spline forward { ref 0 } I I I I 
	} 0 0 #
tvertex-vertex $-1 -1 $-1 $12 $28 1.406738395668033167e-11 #
ellipse-curve $-1 -1 $-1 6773.816387738029334 154.7794349587278475 13510.12130255289594 -0.000302427348209551711 0.0005321535924023535705 -0.9999998126751089567 -1641.471760559442146 2559.276764218395783 1.858354623853624377 0.8655747831143221216 F 1.54385743120048935 F 1.659459055340635425 #
tvertex-vertex $-1 -1 $-1 $19 $29 1.834805166536435451e-11 #
ellipse-curve $-1 -1 $-1 6082.746463033858163 -400.3736061855221351 13510.00000000173168 4.231691861960378025e-13 2.567613869395415664e-13 1 2848.375227609853937 2035.156606024876737 -1.728255938360234888e-09 1 F -0.1000208620216022082 F -1.830985469790518376e-26 #
point $-1 -1 $-1 8931.12169064371119 1634.782999839354488 13510.00000000000364 #
point $-1 -1 $-1 8944.044412784605811 1644.016454320747698 13510.2574691015725 #
ellipse-curve $-1 -1 $-1 9120.104628500519539 1340.189297871557983 13999.99999999999818 0.4971910749453012368 -0.8676410749813173728 -3.124388490870092258e-11 5.602980870515113843 3.210719475536194523 -489.9574449743703326 1 F 0 F 6.270005910518964498 #
point $-1 -1 $-1 9125.707609371034778 1343.40001734709449 13510.04255502563137 #
point $-1 -1 $-1 9120.104628493094424 1340.189297884948246 13510 #
End-of-ACIS-data 