700 0 1 0           
4 LibG 19 ASM 222.0.0.1700 NT 24 Wed Oct  5 17:29:48 2016 
1000 9.999999999999999547e-07 1.000000000000000036e-10 
body $-1 -1 $-1 $1 $-1 $-1 #
lump $-1 -1 $-1 $-1 $2 $0 #
shell $-1 -1 $-1 $-1 $-1 $3 $-1 $1 #
face $-1 -1 $-1 $-1 $4 $2 $-1 $5 forward double out #
loop $-1 -1 $-1 $-1 $6 $3 #
spline-surface $-1 -1 $-1 forward { exactsur full nubs 3 3 open open none none 40 2 
	-1.191870090816076937e-07 3 0.02564102564102564014 1 0.05128205128205128027 1 0.07692307692307692735 1 0.1025641025641025605 1 
	0.1282051282051281937 1 0.1538461538461538269 1 0.1794871794871794601 1 0.2051282051282050933 1 0.2307692307692307265 1 
	0.2564102564102563875 1 0.2820512820512820484 1 0.3076923076923077094 1 0.3333333333333333703 1 0.3589743589743590313 1 
	0.3846153846153846922 1 0.4102564102564103532 1 0.4358974358974360142 1 0.4615384615384616751 1 0.4871794871794873361 1 
	0.512820512820512997 1 0.538461538461538658 1 0.5641025641025643189 1 0.5897435897435899799 1 0.6153846153846156408 1 
	0.6410256410256413018 1 0.6666666666666669627 1 0.6923076923076926237 1 0.7179487179487182846 1 0.7435897435897439456 1 
	0.7692307692307696065 1 0.7948717948717952675 1 0.8205128205128209284 1 0.8461538461538465894 1 0.8717948717948722503 1 
	0.8974358974358979113 1 0.9230769230769235723 1 0.9487179487179492332 1 0.9743589743589748942 1 1.000000000000000444 3 
	-1.191870089190845969e-07 3 0.1000418327985498623 3 
	3458.360430492861269 3095.642454248939885 14489.99999999986721 
	3459.669360855294599 3121.788255358062997 14490.00001954494473 
	3462.287198977814569 3174.079406095852391 14485.79526494591119 
	3466.113309683644729 3250.50572517832552 14467.03547138568501 
	3469.740678145607944 3322.962180523817551 14436.30396646836016 
	3473.076332780306529 3389.591670640748362 14394.3884762810012 
	3476.034767964930779 3448.686226127760165 14342.36344034477588 
	3478.54014906117709 3498.731054886380207 14281.56244093322675 
	3480.528254366994133 3538.443332484775055 14213.54401872911694 
	3481.948121865154917 3566.805095855588206 14140.0517220163365 
	3482.763355416408103 3583.08933442191892 14062.96941348473774 
	3482.953057756466933 3586.87862665278908 13984.27298028965743 
	3482.512366155355267 3578.075839824913601 13905.97968520493487 
	3481.452577068772825 3556.906619925493487 13830.09645717516469 
	3479.800856569980624 3523.913607547793163 13758.56844675991124 
	3477.599543989231734 3479.942528132872667 13693.22916517235353 
	3474.905066609728692 3426.120513089581436 13635.75348502194174 
	3471.786493240453183 3363.827207504066791 13587.61470751517481 
	3468.323763742843312 3294.659405046755637 13550.04679663120805 
	3464.605639894623437 3220.390116607413802 13524.01274834136893 
	3460.727430117320182 3142.923121871118838 13510.17990567944071 
	3456.788546390549527 3064.244168836043627 13508.90285242307436 
	3452.889955977881982 2986.370072198840717 13520.21432388059293 
	3449.131593285372674 2911.297015392687172 13543.8243677714454 
	3445.609798195818712 2840.949381476233157 13579.12777670966716 
	3442.414846543112162 2777.130424515406958 13625.21960177016626 
	3439.628636029253812 2721.476045921785499 13680.91834947112875 
	3437.322586901911563 2675.412860620473111 13744.79626755346908 
	3435.555811205577811 2640.121627957083092 13815.21594322759302 
	3434.373597534640794 2616.506984737005951 13890.37227574739336 
	3433.806250129468935 2605.174256242673437 13968.33874740868669 
	3433.868312073703692 2606.413939649050917 14047.1168068858733 
	3434.558192503835471 2620.19425755816701 14124.68709903985291 
	3435.858207391235283 2646.161972617994252 14199.06122800206504 
	3437.735032835149923 2683.651442021006005 14268.33272665670665 
	3440.140559307511467 2731.701680990271598 14330.72592603547855 
	3443.013124726983733 2789.08099335552788 14384.64147178647181 
	3446.279095595269155 2854.318554650674741 14428.69732151762764 
	3449.854752527046003 2925.742075454982114 14461.76417007463715 
	3453.648443554282949 3001.520813510337575 14482.99440227808736 
	3456.258085380246484 3053.648243743380135 14488.89400249712889 
	3457.566321887126378 3079.780185131755388 14489.74253064238837 
	3574.930066789103421 3089.806658827815227 14489.99999999986358 
	3575.368447767445105 3116.022934440415611 14490.00001958519351 
	3576.245202085511664 3168.45503159508462 14485.78660507655877 
	3577.526418508809002 3245.08321665197218 14466.9885083471363 
	3578.740669620839981 3317.72277821033822 14436.19536112082096 
	3579.856642304108846 3384.508103478073735 14394.19809470101609 
	3580.845554196886951 3443.723718778177044 14342.07546106527661 
	3581.681900473248334 3493.848618944909049 14281.16629442136218 
	3582.344110973484931 3533.595296891950056 14213.03512130875424 
	3582.815106695611576 3561.942825248660483 14139.4319734812907 
	3583.08274023080412 3578.163077162560512 14062.24743584338103 
	3583.140109068846414 3581.839429674988878 13983.46408410767981 
	3582.985733616706057 3572.877464717896146 13905.10555957684846 
	3582.623595359467799 3551.507394083213512 13829.18458914560324 
	3582.063034173901997 3518.278145758873052 13757.65128571167952 
	3581.318507444558236 3474.04326362942129 13692.34305698023127 
	3580.40921719459584 3419.938982715010297 13634.93740933003937 
	3579.358614848055822 3357.355043135467895 13586.9088590440897 
	3578.193796396240487 3287.898992494619506 13549.4910577005794 
	3576.944803567372219 3213.354893641318085 13523.64510458447694 
	3575.643849023035273 3135.637498468209742 13510.03486005416562 
	3574.324485564261522 3056.743064869576756 13509.00989396525256 
	3573.020740774223668 2978.698080203111203 13520.59650713307383 
	3571.766239415868313 2903.507208372751393 13544.49705644543428 
	3570.593336218681543 2833.101797589467878 13580.09760094345438 
	3569.532281420752497 2769.290271462145938 13626.48367245052941 
	3568.610440587659468 2713.711677691347177 13682.46376563743979 
	3567.851588829627872 2667.793587527748059 13746.59994412603373 
	3567.275297619905814 2632.715427397756685 13817.24477644835861 
	3566.896430028697523 2609.378184562795923 13892.58365308717657 
	3566.724757391161347 2598.381264947111504 13970.68139760462873 
	3566.764707295937569 2600.007097560001057 14049.53197456807175 
	3567.01524939349747 2614.21388092373536 14127.11001743889756 
	3567.469921970822725 2640.636657887625461 14201.42285284769605 
	3568.116998601606156 2678.59669086797976 14270.56168492262623 
	3568.93979059431922 2727.118897884319267 14332.75062495701968 
	3569.917077361353677 2784.956896961932671 14386.39230690417389 
	3571.023653894850213 2850.625032488085253 14430.10891744613218 
	3572.230980164717948 2922.436497722685544 14462.77758509583691 
	3573.507919663419671 2998.546809815770757 14483.55922544124951 
	3574.38366203566693 3050.849364136168788 14489.13312769223921 
	3574.822002585343853 3077.055576944252607 14489.81416883839483 
	3691.791663991006772 3089.806658451871044 14489.99999999986176 
	3691.354623714488753 3116.049893602275006 14490.00001962545139 
	3690.480550708288774 3168.535907987007249 14485.77794520720636 
	3689.203046513559002 3245.238740489419342 14466.94154530859123 
	3687.991901270206654 3317.940756489660998 14436.08675577328177 
	3686.878157660816669 3384.770905147941448 14394.00771312103643 
	3685.890365499194104 3444.009036591333825 14341.7874817857828 
	3685.05384547856147 3494.130443016802019 14280.77014790949579 
	3684.390040759794829 3533.845063578582085 14212.52622388840064 
	3683.915967128322336 3562.130699714442017 14138.8122249462449 
	3683.643776862854338 3578.259322497931862 14061.52545820201703 
	3683.580447214521428 3581.815811900139124 13982.65518792570037 
	3683.727601557273829 3572.708641075406376 13904.23143394876934 
	3684.081467773879012 3551.172231894472588 13828.27272111603997 
	3684.632974949661275 3517.760920776736384 13756.7341246634478 
	3685.367985893936748 3473.334690233488345 13691.456948788109 
	3686.267659529087268 3419.037033367704225 13634.12133363814064 
	3687.308933857832471 3356.265521097512647 13586.20301057300094 
	3688.465117128441307 3286.635829688707872 13548.93531876995075 
	3689.706572044095992 3211.940154509773038 13523.27746082758131 
	3691.001475477600707 3134.101080415643537 13509.88981442888871 
	3692.316634217044339 3055.122096107988455 13509.11693550743075 
	3693.618335831879904 2977.036026199325988 13520.97869038555473 
	3694.873212848480307 2901.852708302740211 13545.16974511942499 
	3696.049098083163244 2831.507261898669185 13581.0674251772416 
	3697.115849207254996 2767.810280495586994 13627.7477431308962 
	3698.04612140757672 2712.401229093955862 13684.00918180373992 
	3698.816068336107946 2666.706246457672023 13748.40362069859839 
	3699.405953380924075 2631.901438317431712 13819.27360966912238 
	3699.80065558919523 2608.882606295362621 13894.79503042696342 
	3699.990057273641014 2598.242191684753379 13973.02404780057259 
	3699.969303366455279 2600.254027519097235 14051.94714225027383 
	3699.738925872979962 2614.866291353290308 14129.53293583793857 
	3699.304830233367738 2641.702840209281021 14203.78447769333434 
	3698.678143947320677 2680.072892971989404 14272.7906431885458 
	3697.874931322032808 2728.988812212077391 14334.77532387856081 
	3696.915781730629078 2787.191523161930945 14388.14314202187779 
	3695.825281654842456 2853.18293255984554 14431.52051337463672 
	3694.631385093339759 2925.264449437582698 14463.79100011704577 
	3693.364694563492776 3001.580853189904701 14484.12404860441347 
	3692.493355336828699 3053.971948278806849 14489.37225288734771 
	3692.056546412300577 3080.208959811406203 14489.88580703439948 
	3808.361300362125348 3095.642453126730743 14489.99999999986176 
	3807.0483411728178 3121.868729797558899 14490.00001966570926 
	3804.422445672346385 3174.320826149711138 14485.76928533785394 
	3800.58517967013313 3250.969971571136284 14466.8945822700498 
	3796.948478031330524 3323.612856533024569 14435.97815042574621 
	3793.606124999884287 3390.376146700902154 14393.81733154105314 
	3790.644325008197939 3449.537913995910458 14341.49950250628899 
	3788.139466015814833 3499.572313763029342 14280.37400139763668 
	3786.156151357977706 3539.188898471420089 14212.01732646805067 
	3784.745533018482092 3567.365910483567859 14138.19247641120091 
	3783.943992502539004 3583.376631536651985 14060.80348056066032 
	3783.772202476973234 3586.808126419766268 13981.8462917437264 
	3784.234593608175146 3577.571892852323799 13903.35730832069021 
	3785.31924028728281 3555.906144116238465 13827.36085308648035 
	3786.998168206328955 3522.369665241782513 13755.81696361522154 
	3789.228075848216577 3477.827401291214755 13690.57084059599038 
	3791.951451283591268 3423.428149411726281 13633.30525794624009 
	3795.098055470843065 3360.574930012017376 13585.497162101914 
	3798.58673380324035 3290.88880122292494 13548.37957983932392 
	3802.327509181266578 3216.167049909943671 13522.90981707068931 
	3806.223902627392818 3138.336837540311535 13509.74476880361362 
	3810.175421591874965 3059.405496432016662 13509.22397704961259 
	3814.080151773298439 2981.408758302676688 13521.36087363803927 
	3817.837385607749638 2906.358250364680316 13545.84243379342115 
	3821.350219634834048 2836.189613103685133 13582.03724941102882 
	3824.528053751372227 2772.712577843844883 13629.01181381126298 
	3827.288927894181143 2717.564291657698504 13685.5545979700546 
	3829.561635886058411 2672.167093426055544 13750.20729727116122 
	3831.287561926497801 2637.691830052596742 13821.30244288989525 
	3832.422192361794714 2615.027658951407375 13897.00640776675573 
	3832.936263744374173 2604.759115634999034 13975.36669799651827 
	3832.816517571147415 2607.151037862856811 14054.36230993247773 
	3832.066042236601334 2622.14173515082075 14131.95585423698503 
	3830.704193376722287 2649.344579895632705 14206.14610253897081 
	3828.766094674707801 2688.057978749351605 14275.01960145446901 
	3826.301731941901835 2737.283468295510829 14336.80002280010922 
	3823.374664067568119 2795.751463745500132 14389.89397713957806 
	3820.060383229295439 2861.954013632223905 14432.93210930314672 
	3816.444369844630728 2934.183652027612425 14464.80441513825281 
	3812.619880529185593 3010.577583939806573 14484.68887176757926 
	3809.99700719197881 3062.969312772144804 14489.61137808246349 
	3808.684168131081151 3089.193189885579159 14489.95744523040958 
	0 
	
	0 
	0 
	38 0.02564102564102564014 0.05128205128205128027 0.07692307692307692735 0.1025641025641025605 0.1282051282051281937 0.1538461538461538269 0.1794871794871794601 0.2051282051282050933 0.2307692307692307265 0.2564102564102563875 0.2820512820512820484 0.3076923076923077094 0.3333333333333333703 0.3589743589743590313 0.3846153846153846922 0.4102564102564103532 0.4358974358974360142 0.4615384615384616751 0.4871794871794873361 0.512820512820512997 0.538461538461538658 0.5641025641025643189 0.5897435897435899799 0.6153846153846156408 0.6410256410256413018 0.6666666666666669627 0.6923076923076926237 0.7179487179487182846 0.7435897435897439456 0.7692307692307696065 0.7948717948717952675 0.8205128205128209284 0.8461538461538465894 0.8717948717948722503 0.8974358974358979113 0.9230769230769235723 0.9487179487179492332 0.9743589743589748942 
	0 
	0 
	0 
	F 1 F 0 F 1 F 0 } I I I I #
tcoedge-coedge $-1 -1 $-1 $7 $8 $-1 $9 forward $4 $10 7.814085595768073775e-29 6.250766387756696574 #
coedge $-1 -1 $-1 $11 $6 $-1 $12 forward $4 $13 #
coedge $-1 -1 $-1 $6 $11 $-1 $14 forward $4 $15 #
tedge-edge $-1 -1 $-1 $16 7.814085595768073775e-29 $17 6.250766387756696574 $6 $18 forward @7 unknown 0.0008503927514512609701 #
pcurve $-1 -1 $-1 0 forward { exppc nubs 1 open 2 
	0 1 6.250766387756696574 1 
	0 0 
	0.9999999999999987788 9.908287360633713861e-17 
	6.642467873492293288e-08 
	spline forward { ref 0 } I I I I 
	} 0 0 #
tcoedge-coedge $-1 -1 $-1 $8 $7 $-1 $19 forward $4 $20 1.106178539021673468e-15 6.270005910518959169 #
edge $-1 -1 $-1 $17 -1.597735222552993717 $21 -1.482133598356381921 $7 $22 forward @7 unknown #
pcurve $-1 -1 $-1 0 forward { exppc nubs 3 open 2 
	-1.597735222552993717 3 -1.482133598356381921 3 
	1.000000000000000222 7.698538686316834008e-18 
	0.9999999975121008911 0.03330815819591485816 
	1.000000000000000444 0.0666739075496061151 
	0.999999999999999889 0.1000417136115408501 
	1.90130511424049471e-06 
	spline forward { ref 0 } I I I I 
	} 0 0 #
edge $-1 -1 $-1 $23 -0.1000208620216534727 $16 1.548606159402322478e-16 $8 $24 forward @7 unknown #
pcurve $-1 -1 $-1 0 forward { exppc nubs 1 open 2 
	-0.1000208620216533617 1 -3.670386069010653561e-26 1 
	1.592902453360910196e-15 0.1000417136115407668 
	1.602362628382238656e-17 1.78546719373441222e-16 
	0.0009308921374997992026 
	spline forward { ref 0 } I I I I 
	} 0 0 #
tvertex-vertex $-1 -1 $-1 $9 $25 1.547588323515460363e-11 #
tvertex-vertex $-1 -1 $-1 $9 $26 1.447874199462426195e-11 #
ellipse-curve $-1 -1 $-1 3458.36086537960955 3095.642797989770315 13999.99999999999818 -0.9987492177719092812 0.04999999999999305694 -2.415254417344848502e-12 -1.195485310745425564e-09 -2.154905587303801595e-10 489.9999999999990337 1 F 7.814085595768073775e-29 F 6.250766387756696574 #
tedge-edge $-1 -1 $-1 $21 1.106178539021673468e-15 $23 6.270005910518959169 $11 $27 forward @7 unknown 0.0008609630463457172657 #
pcurve $-1 -1 $-1 0 forward { exppc nubs 1 open 2 
	0 1 6.270005910518959169 1 
	0.999999999999999889 0.1000417136115408223 
	1.160264731371658898e-15 0.1000417136115408501 
	6.654907271287722771e-08 
	spline forward { ref 0 } I I I I 
	} 0 0 #
tvertex-vertex $-1 -1 $-1 $12 $28 1.416782831503573111e-11 #
ellipse-curve $-1 -1 $-1 3539.234680062829739 5710.568444100057604 14489.87869744709133 -0.0006112077300546533455 -3.278502056155844954e-05 0.9999998126751089567 3040.448489590603913 0.2639977527307216243 1.858354622958601432 0.865574782692341782 F -1.597735222552993717 F -1.482133598356381921 #
tvertex-vertex $-1 -1 $-1 $19 $29 1.369438494300809884e-11 #
ellipse-curve $-1 -1 $-1 3633.360865399269187 6591.995018274034919 14490.00000000346154 1.237562433333153368e-14 9.896371332787385778e-13 -1 -175.0000000208546851 -3496.352220284480154 -3.463009079496259884e-09 1 F -0.1000208620216534727 F 1.548606159402322478e-16 #
point $-1 -1 $-1 3458.360865378414019 3095.642797989554765 14489.99999999999818 #
point $-1 -1 $-1 3457.566740971928539 3079.780175393723766 14489.74253089842932 #
ellipse-curve $-1 -1 $-1 3808.360865418673256 3095.642797989693463 14000.00000000000182 0.9987492177719080599 0.05000000000001877942 -3.489613043572043129e-12 0.3228858723570141587 -6.449640214723932452 489.9574449743724927 1 F 1.106178539021673468e-15 F 6.270005910518959169 #
point $-1 -1 $-1 3808.683751291030148 3089.193157774968768 14489.95744497437045 #
point $-1 -1 $-1 3808.360865420391747 3095.642797989566134 14490.00000000000182 #
End-of-ACIS-data 