700 0 1 0           
4 LibG 19 ASM 222.0.0.1700 NT 24 Wed Oct  5 17:29:48 2016 
1000 9.999999999999999547e-07 1.000000000000000036e-10 
body $-1 -1 $-1 $1 $-1 $-1 #
lump $-1 -1 $-1 $-1 $2 $0 #
shell $-1 -1 $-1 $-1 $-1 $3 $-1 $1 #
face $-1 -1 $-1 $-1 $4 $2 $-1 $5 forward double out #
loop $-1 -1 $-1 $-1 $6 $3 #
spline-surface $-1 -1 $-1 forward { exactsur full nubs 3 3 open open none none 40 2 
	-1.191870088629289727e-07 3 0.02564102564102564014 1 0.05128205128205128027 1 0.07692307692307692735 1 0.1025641025641025605 1 
	0.1282051282051281937 1 0.1538461538461538269 1 0.1794871794871794601 1 0.2051282051282050933 1 0.2307692307692307265 1 
	0.2564102564102563875 1 0.2820512820512820484 1 0.3076923076923077094 1 0.3333333333333333703 1 0.3589743589743590313 1 
	0.3846153846153846922 1 0.4102564102564103532 1 0.4358974358974360142 1 0.4615384615384616751 1 0.4871794871794873361 1 
	0.512820512820512997 1 0.538461538461538658 1 0.5641025641025643189 1 0.5897435897435899799 1 0.6153846153846156408 1 
	0.6410256410256413018 1 0.6666666666666669627 1 0.6923076923076926237 1 0.7179487179487182846 1 0.7435897435897439456 1 
	0.7692307692307696065 1 0.7948717948717952675 1 0.8205128205128209284 1 0.8461538461538465894 1 0.8717948717948722503 1 
	0.8974358974358979113 1 0.9230769230769235723 1 0.9487179487179492332 1 0.9743589743589748942 1 1.000000000000000444 3 
	-1.191870088629289727e-07 3 0.1000418327985496403 3 
	2408.360430366908531 3095.643141730674415 13510.00000000013461 
	2409.669360729343225 3069.497340621551757 13509.99998045506618 
	2412.287198851863195 3017.206189883760544 13514.20473505409063 
	2416.113309557690627 2940.779870801287871 13532.96452861431681 
	2419.740678019654752 2868.323415455797203 13563.6960335316453 
	2423.076332654350608 2801.693925338865938 13605.61152371900243 
	2426.034767838976222 2742.599369851852316 13657.63655965522594 
	2428.540148935219349 2692.554541093234093 13718.43755906677507 
	2430.528254241038667 2652.842263494838335 13786.45598127088851 
	2431.948121739196722 2624.480500124024729 13859.94827798366714 
	2432.763355290450818 2608.19626155769447 13937.03058651526771 
	2432.953057630509193 2604.40696932682431 14015.72701971034439 
	2432.512366029398891 2613.209756154699335 14094.02031479506695 
	2431.452576942816449 2634.378976054123086 14169.90354282483531 
	2429.800856444022884 2667.371988431820682 14241.43155324008876 
	2427.599543863275358 2711.343067846742088 14306.77083482765011 
	2424.90506648377368 2765.165082890032409 14364.2465149780619 
	2421.786493114498626 2827.458388475547054 14412.38529248482337 
	2418.323763616890119 2896.626190932858663 14449.95320336879377 
	2414.605639768671153 2970.895479372200498 14475.98725165863289 
	2410.727429991367444 3048.362474108494098 14489.82009432056111 
	2406.788546264598153 3127.041427143571582 14491.09714757692745 
	2402.889955851932427 3204.915523780773583 14479.78567611940889 
	2399.131593159424028 3279.988580586927128 14456.17563222856006 
	2395.609798069870067 3350.336214503381143 14420.87222329033466 
	2392.414846417165336 3414.155171464208252 14374.78039822983555 
	2389.628635903306076 3469.809550057829256 14319.08165052887307 
	2387.322586775965647 3515.872735359140734 14255.20373244653092 
	2385.555811079632349 3551.163968022533481 14184.78405677241062 
	2384.373597408694877 3574.778611242608804 14109.62772425260482 
	2383.806250003524383 3586.111339736942227 14031.66125259131331 
	2383.868311947758684 3584.871656330563837 13952.88319311412852 
	2384.558192377890009 3571.091338421448199 13875.31290096014709 
	2385.858207265288911 3545.123623361619593 13800.93877199793678 
	2387.735032709203551 3507.63415395860784 13731.66727334329516 
	2390.14055918156464 3459.583914989343612 13669.27407396452327 
	2393.013124601036452 3402.204602624086874 13615.35852821352637 
	2396.279095469320509 3336.967041328939558 13571.30267848237963 
	2399.854752401097812 3265.543520524633095 13538.23582992536467 
	2403.648443428332939 3189.764782469277179 13517.00559772191264 
	2406.258085254295111 3137.637352236234619 13511.10599750287292 
	2407.566321761175004 3111.505410847859366 13510.2574693576189 
	2524.930066663148409 3101.478937151797254 13510.00000000013461 
	2525.368447641492367 3075.262661539197325 13509.99998041480649 
	2526.245201959559836 3022.830564384526042 13514.21339492344123 
	2527.52641838285308 2946.202379327639846 13533.01149165286006 
	2528.740669494886333 2873.562817769274716 13563.80463887917904 
	2529.856642178152015 2806.777492501538745 13605.80190529898391 
	2530.845554070930575 2747.561877201434072 13657.92453893472339 
	2531.681900347290593 2697.436977034703432 13718.83370557863782 
	2532.3441108475281 2657.69029908766106 13786.96487869124394 
	2532.815106569652926 2629.342770730951543 13860.56802651870748 
	2533.082740104845925 2613.122518817052423 13937.75256415662079 
	2533.140108942887764 2609.446166304621784 14016.53591589231655 
	2532.985733490748771 2618.408131261714516 14094.8944404231479 
	2532.623595233509604 2639.778201896400333 14170.81541085439676 
	2532.063034047943347 2673.007450220739884 14242.34871428832048 
	2531.318507318600496 2717.242332350191646 14307.65694301976691 
	2530.409217068639919 2771.346613264602183 14365.06259066995881 
	2529.358614722099901 2833.930552844145495 14413.0911409559103 
	2528.19379627028502 2903.386603484992975 14450.50894229941878 
	2526.944803441418571 2977.930702338293941 14476.35489541552306 
	2525.64384889708208 3055.64809751140092 14489.96513994583438 
	2524.324485438309694 3134.542531110036634 14490.99010603474562 
	2523.02074064827184 3212.587515776500823 14479.40349286692617 
	2521.766239289918758 3287.778387606860633 14455.50294355456572 
	2520.593336092731533 3358.183798390144602 14419.90239905654198 
	2519.532281294804761 3421.995324517467452 14373.51632754946877 
	2518.610440461711278 3477.573918288265304 14317.53623436256021 
	2517.851588703681045 3523.492008451864876 14253.40005587396627 
	2517.275297493958533 3558.570168581856706 14182.75522355163957 
	2516.896429902750697 3581.907411416816103 14107.41634691281979 
	2516.724757265215885 3592.904331032501887 14029.31860239537127 
	2516.764707169991652 3591.278498419610514 13950.46802543192825 
	2517.015249267550644 3577.071715055877576 13872.88998256110244 
	2517.469921844875444 3550.648938091985656 13798.57714715230395 
	2518.116998475659329 3512.68890511163363 13729.43831507737741 
	2518.939790468371939 3464.166698095293668 13667.2493750429785 
	2519.917077235405031 3406.328699017680265 13613.60769309582247 
	2521.023653768899749 3340.660563491526773 13569.891082553866 
	2522.230980038767939 3268.849098256927391 13537.22241490416309 
	2523.507919537469661 3192.738786163842178 13516.44077455875049 
	2524.383661909714192 3140.436231843444602 13510.86687230775715 
	2524.822002459391115 3114.230019035360783 13510.18583116160517 
	2641.791663865053124 3101.478937527737799 13510.00000000012915 
	2641.354623588536015 3075.235702377335201 13509.99998037454861 
	2640.480550582335582 3022.749687992603867 13514.22205479278819 
	2639.20304638760399 2946.046855490191319 13533.05845469140513 
	2637.991901144252552 2873.344839489949209 13563.9132442267146 
	2636.878157534861202 2806.514690831668304 13605.99228687896175 
	2635.890365373236818 2747.276559388276837 13658.21251821420992 
	2635.05384535260464 2697.155152962809098 13719.22985209049875 
	2634.390040633833905 2657.440532401027212 13787.47377611159573 
	2633.915967002365505 2629.154896265168645 13861.18777505375147 
	2633.643776736894324 2613.026273481678345 13938.47454179797933 
	2633.580447088561868 2609.469784079471992 14017.34481207429417 
	2633.727601431313815 2618.57695490420474 14095.76856605122521 
	2634.081467647918998 2640.113364085136709 14171.72727888395457 
	2634.632974823702625 2673.524675202873823 14243.26587533654856 
	2635.367985767979008 2717.950905746121407 14308.54305121188736 
	2636.267659403128619 2772.248562611905527 14365.87866636185572 
	2637.308933731877005 2835.020074882096196 14413.79698942699724 
	2638.465117002483566 2904.649766290902335 14451.06468123004561 
	2639.706571918143254 2979.345441469838534 14476.72253917241687 
	2641.001475351645695 3057.184515563965306 14490.11018557110765 
	2642.31663409109251 3136.163499871622207 14490.88306449256561 
	2643.61833570592853 3214.249569780284219 14479.02130961444163 
	2644.873212722530297 3289.432887676870905 14454.83025488057137 
	2646.049097957214144 3359.778334080941022 14418.93257482275658 
	2647.115849081306351 3423.475315484021394 14372.25225686910198 
	2648.046121281629439 3478.884366885655254 14315.9908181962528 
	2648.816068210161575 3524.579349521937274 14251.59637930139797 
	2649.405953254977703 3559.38415766217895 14180.72639033087216 
	2649.800655463248859 3582.402989684248041 14105.20496957303112 
	2649.990057147692823 3593.043404294855463 14026.97595219942377 
	2649.969303240509817 3591.031568460513881 13948.05285774972253 
	2649.738925747032681 3576.419304626319899 13870.4670641620578 
	2649.304830107419548 3549.582755770328276 13796.21552230666384 
	2648.678143821374306 3511.212703007620803 13727.20935681144874 
	2647.874931196084162 3462.296783767531906 13665.22467612143373 
	2646.915781604680888 3404.094072817680626 13611.85685797812039 
	2645.825281528890628 3338.102663419765122 13568.47948662536146 
	2644.631384967387021 3266.021146542027054 13536.20899988294877 
	2643.364694437540493 3189.704742789704596 13515.87595139558107 
	2642.493355210875507 3137.313647700803813 13510.62774711264683 
	2642.056546286348294 3111.076636168204004 13510.1141929655987 
	2758.361300236170791 3095.643142852875826 13510.00000000012369 
	2757.048341046864607 3069.416866182049489 13509.9999803342871 
	2754.422445546392737 3016.96476982989816 13514.23071466213332 
	2750.585179544178573 2940.315624408472104 13533.10541772994657 
	2746.948477905375057 2867.672739446584274 13564.02184957425015 
	2743.606124873928366 2800.909449278706234 13606.18266845894323 
	2740.644324882241563 2741.747681983698385 13658.50049749370555 
	2738.139465889857092 2691.713282216579501 13719.62599860235969 
	2736.156151232017237 2652.096697508188299 13787.98267353194387 
	2734.745532892524352 2623.919685496040984 13861.80752358879181 
	2733.943992376579445 2607.908964442955948 13939.19651943933059 
	2733.772202351013675 2604.477469559842575 14018.15370825626997 
	2734.234593482215132 2613.713703127286408 14096.64269167930252 
	2735.319240161322796 2635.379451863369923 14172.6391469135142 
	2736.998168080369851 2668.915930737827239 14244.183036384773 
	2739.228075722257927 2713.458194688394087 14309.42915940400417 
	2741.951451157633073 2767.857446567881652 14366.69474205375263 
	2745.098055344888053 2830.710665967589648 14414.50283789807872 
	2748.586733677283064 2900.396794756683903 14451.6204201606688 
	2752.32750905531293 2975.118546069666081 14477.09018292930341 
	2756.223902501437351 3052.948758439294124 14490.25523119638274 
	2760.175421465922682 3131.880099547592636 14490.77602295037468 
	2764.080151647347066 3209.876837676930791 14478.63912636195528 
	2767.837385481799174 3284.927345614929436 14454.15756620657339 
	2771.350219508884493 3355.0959828759228 14417.96275058896208 
	2774.528053625424945 3418.57301813576214 14370.98818618873156 
	2777.288927768233407 3473.721304321910793 14314.44540202994176 
	2779.561635760111585 3519.118502553552389 14249.7927027288315 
	2781.28756180055052 3553.5937659270121 14178.69755711009748 
	2782.422192235848343 3576.257937028201468 14102.99359223323881 
	2782.936263618425528 3586.526480344608444 14024.63330200347264 
	2782.816517445201498 3584.134558116752032 13945.637690067515 
	2782.066042110655417 3569.143860828787183 13868.04414576300769 
	2780.704193250773187 3541.941016083974318 13793.8538974610201 
	2778.766094548759156 3503.227617230255419 13724.98039854552189 
	2776.30173181595319 3454.002127684096649 13663.19997719988351 
	2773.374663941619929 3395.534132234108711 13610.10602286041285 
	2770.060383103344066 3329.331582347383574 13567.06789069684783 
	2766.444369718677535 3257.101943951994144 13535.19558486173992 
	2762.619880403232855 3180.708012039801361 13515.31112823241347 
	2759.997007066024253 3128.316283207463584 13510.38862191752924 
	2758.684168005127958 3102.092406094028775 13510.04255476957951 
	0 
	
	0 
	0 
	38 0.02564102564102564014 0.05128205128205128027 0.07692307692307692735 0.1025641025641025605 0.1282051282051281937 0.1538461538461538269 0.1794871794871794601 0.2051282051282050933 0.2307692307692307265 0.2564102564102563875 0.2820512820512820484 0.3076923076923077094 0.3333333333333333703 0.3589743589743590313 0.3846153846153846922 0.4102564102564103532 0.4358974358974360142 0.4615384615384616751 0.4871794871794873361 0.512820512820512997 0.538461538461538658 0.5641025641025643189 0.5897435897435899799 0.6153846153846156408 0.6410256410256413018 0.6666666666666669627 0.6923076923076926237 0.7179487179487182846 0.7435897435897439456 0.7692307692307696065 0.7948717948717952675 0.8205128205128209284 0.8461538461538465894 0.8717948717948722503 0.8974358974358979113 0.9230769230769235723 0.9487179487179492332 0.9743589743589748942 
	0 
	0 
	0 
	F 1 F 0 F 1 F 0 } I I I I #
tcoedge-coedge $-1 -1 $-1 $7 $8 $-1 $9 forward $4 $10 0 6.250766387756696574 #
coedge $-1 -1 $-1 $11 $6 $-1 $12 forward $4 $13 #
coedge $-1 -1 $-1 $6 $11 $-1 $14 forward $4 $15 #
tedge-edge $-1 -1 $-1 $16 0 $17 6.250766387756696574 $6 $18 forward @7 unknown 0.0008503927470993348156 #
pcurve $-1 -1 $-1 0 forward { exppc nubs 1 open 2 
	0 1 6.250766387756696574 1 
	0 0 
	0.9999999999999987788 9.878526131146916503e-17 
	6.71040522565062528e-08 
	spline forward { ref 0 } I I I I 
	} 0 0 #
tcoedge-coedge $-1 -1 $-1 $8 $7 $-1 $19 forward $4 $20 5.369798733114968458e-18 6.270005910518957393 #
edge $-1 -1 $-1 $17 -1.597735222690181534 $21 -1.482133598442674671 $7 $22 forward @7 unknown #
pcurve $-1 -1 $-1 0 forward { exppc nubs 3 open 2 
	-1.597735222690181534 3 -1.482133598442674671 3 
	0.999999999999999778 3.07941547452546403e-17 
	0.9999999975120992257 0.03330815819587414767 
	1.000000000000000444 0.06667390754963048449 
	0.9999999999999996669 0.1000417136115408501 
	1.907160235153095267e-06 
	spline forward { ref 0 } I I I I 
	} 0 0 #
edge $-1 -1 $-1 $23 -0.1000208620216466726 $16 -2.28924388853746331e-16 $8 $24 forward @7 unknown #
pcurve $-1 -1 $-1 0 forward { exppc nubs 1 open 2 
	-0.1000208620216465893 1 -1.830985469789660862e-26 1 
	0 0.1000417136115407807 
	0 0 
	0.0009308921369475808838 
	spline forward { ref 0 } I I I I 
	} 0 0 #
tvertex-vertex $-1 -1 $-1 $9 $25 1.549473314713148946e-11 #
tvertex-vertex $-1 -1 $-1 $9 $26 1.406738395668033167e-11 #
ellipse-curve $-1 -1 $-1 2408.360865253282554 3095.642797989826249 14000.00000000000364 -0.9987492177719099473 -0.04999999999998068489 1.650463154695259333e-12 -8.213547175728309123e-10 2.338992999284528299e-10 -489.9999999999990337 1 F 0 F 6.250766387756696574 #
tedge-edge $-1 -1 $-1 $21 5.369798733114968458e-18 $23 6.270005910518957393 $11 $27 forward @7 unknown 0.0008609630374070377165 #
pcurve $-1 -1 $-1 0 forward { exppc nubs 1 open 2 
	0 1 6.270005910518957393 1 
	0.999999999999999889 0.1000417136115408223 
	1.21546303627781058e-15 0.1000417136115408501 
	8.021098948857260342e-08 
	spline forward { ref 0 } I I I I 
	} 0 0 #
tvertex-vertex $-1 -1 $-1 $12 $28 1.931954743096830253e-11 #
ellipse-curve $-1 -1 $-1 2489.234680032544475 480.7171541952442908 13510.12130255292868 -0.0006112077300546509603 3.278502056159222244e-05 -0.9999998126751090677 3040.448488251803155 -0.263998082496748443 -1.858354622151119351 0.8655747823118428164 F -1.597735222690181534 F -1.482133598442674671 #
tvertex-vertex $-1 -1 $-1 $19 $29 2.29343449346632873e-11 #
ellipse-curve $-1 -1 $-1 2583.360865273359195 -400.7094222946795412 13510.00000000173168 1.237562433337433411e-14 4.948185666394014997e-13 1 -175.0000000208987956 3496.35222028474027 -1.728255938360234888e-09 1 F -0.1000208620216466726 F -2.28924388853746331e-16 #
point $-1 -1 $-1 2408.360865252461281 3095.642797990059989 13510.00000000000364 #
point $-1 -1 $-1 2407.566740845975801 3111.505420585890988 13510.2574691015725 #
ellipse-curve $-1 -1 $-1 2758.36086530016928 3095.642797989543851 13999.99999999999818 0.9987492177719177189 -0.04999999999982660676 -1.172936003516627513e-11 0.3228858649085126209 6.449640215096438922 -489.9574449743703326 1 F 5.369798733114968458e-18 F 6.270005910518957393 #
point $-1 -1 $-1 2758.68375116507832 3102.09243820464053 13510.04255502563137 #
point $-1 -1 $-1 2758.360865294439463 3095.642797990042709 13510 #
End-of-ACIS-data 