700 0 1 0           
4 LibG 19 ASM 222.0.0.1700 NT 24 Wed Oct  5 17:29:48 2016 
1000 9.999999999999999547e-07 1.000000000000000036e-10 
body $-1 -1 $-1 $1 $-1 $-1 #
lump $-1 -1 $-1 $-1 $2 $0 #
shell $-1 -1 $-1 $-1 $-1 $3 $-1 $1 #
face $-1 -1 $-1 $-1 $4 $2 $-1 $5 forward double out #
loop $-1 -1 $-1 $-1 $6 $3 #
spline-surface $-1 -1 $-1 forward { exactsur full nubs 3 3 open open none none 40 2 
	-1.191870091399828619e-07 3 0.02564102564102564014 1 0.05128205128205128027 1 0.07692307692307692735 1 0.1025641025641025605 1 
	0.1282051282051281937 1 0.1538461538461538269 1 0.1794871794871794601 1 0.2051282051282050933 1 0.2307692307692307265 1 
	0.2564102564102563875 1 0.2820512820512820484 1 0.3076923076923077094 1 0.3333333333333333703 1 0.3589743589743590313 1 
	0.3846153846153846922 1 0.4102564102564103532 1 0.4358974358974360142 1 0.4615384615384616751 1 0.4871794871794873361 1 
	0.512820512820512997 1 0.538461538461538658 1 0.5641025641025643189 1 0.5897435897435899799 1 0.6153846153846156408 1 
	0.6410256410256413018 1 0.6666666666666669627 1 0.6923076923076926237 1 0.7179487179487182846 1 0.7435897435897439456 1 
	0.7692307692307696065 1 0.7948717948717952675 1 0.8205128205128209284 1 0.8461538461538465894 1 0.8717948717948722503 1 
	0.8974358974358979113 1 0.9230769230769235723 1 0.9487179487179492332 1 0.9743589743589748942 1 1.000000000000000444 3 
	-1.191870090919731006e-07 3 0.1000418327985500011 3 
	4158.36043057682673 3095.642454248938066 14489.99999999986176 
	4159.669360939260514 3121.788255358060269 14490.0000195449411 
	4162.287199061782303 3174.079406095849663 14485.79526494591119 
	4166.113309767611099 3250.505725178323701 14467.03547138568865 
	4169.740678229575678 3322.962180523815277 14436.30396646835652 
	4173.076332864273354 3389.591670640746088 14394.3884762810012 
	4176.034768048898513 3448.686226127759255 14342.36344034477588 
	4178.540149145144824 3498.731054886378388 14281.56244093322857 
	4180.528254450961867 3538.443332484772782 14213.54401872911694 
	4181.948121949121742 3566.805095855585932 14140.05172201633832 
	4182.763355500375837 3583.089334421917556 14062.96941348473956 
	4182.953057840434667 3586.878626652786807 13984.27298028965924 
	4182.512366239323455 3578.075839824911327 13905.97968520493487 
	4181.45257715274056 3556.906619925489395 13830.09645717516651 
	4179.800856653947449 3523.913607547791798 13758.56844675991306 
	4177.599544073198558 3479.942528132869484 13693.22916517235535 
	4174.905066693696426 3426.120513089578708 13635.75348502194174 
	4171.786493324422736 3363.827207504064518 13587.61470751518391 
	4168.323763826811046 3294.659405046752454 13550.04679663120805 
	4164.605639978591171 3220.390116607412438 13524.01274834137075 
	4160.727430201286552 3142.923121871116109 13510.17990567944253 
	4156.788546474515897 3064.244168836041808 13508.90285242307436 
	4152.889956061850171 2986.370072198838443 13520.21432388059475 
	4149.131593369340408 2911.297015392685353 13543.8243677714454 
	4145.609798279785537 2840.949381476231792 13579.12777670966898 
	4142.414846627079896 2777.130424515403774 13625.21960177016626 
	4139.628636113220637 2721.476045921783225 13680.91834947112875 
	4137.322586985879752 2675.412860620471292 13744.79626755346908 
	4135.555811289546 2640.121627957078999 13815.21594322759483 
	4134.373597618608073 2616.506984737002767 13890.37227574739882 
	4133.806250213436215 2605.174256242671618 13968.3387474086885 
	4133.868312157671426 2606.413939649049098 14047.11680688587876 
	4134.558192587802296 2620.194257558164281 14124.68709903985473 
	4135.858207475202107 2646.161972617991978 14199.06122800206867 
	4137.735032919117657 2683.651442021004186 14268.33272665670665 
	4140.140559391478746 2731.701680990269324 14330.72592603547855 
	4143.013124810951922 2789.080993355526516 14384.64147178647909 
	4146.279095679235979 2854.318554650672013 14428.69732151762946 
	4149.854752611014192 2925.74207545498075 14461.76417007463715 
	4153.648443638249773 3001.520813510335756 14482.99440227808918 
	4156.258085464212854 3053.648243743378771 14488.89400249713253 
	4157.566321971094112 3079.780185131753115 14489.74253064238837 
	4274.930066873070245 3089.806658827812498 14489.99999999985994 
	4275.368447851412384 3116.022934440413792 14490.00001958519351 
	4276.245202169478944 3168.455031595082346 14485.78660507655695 
	4277.526418592776281 3245.083216651969451 14466.98850834713994 
	4278.74066970480817 3317.722778210335491 14436.19536112082278 
	4279.85664238807658 3384.508103478071007 14394.19809470101609 
	4280.84555428085423 3443.723718778175225 14342.07546106527843 
	4281.681900557216977 3493.84861894490632 14281.166294421364 
	4282.344111057453119 3533.595296891947783 14213.03512130875788 
	4282.815106779578855 3561.94282524865821 14139.43197348129434 
	4283.082740314771399 3578.163077162559148 14062.24743584338285 
	4283.140109152813238 3581.839429674987514 13983.46408410768163 
	4282.985733700674245 3572.877464717894327 13905.1055595768521 
	4282.623595443435079 3551.507394083210784 13829.18458914560506 
	4282.063034257869731 3518.278145758870323 13757.65128571168134 
	4281.318507528525515 3474.043263629418561 13692.34305698023491 
	4280.409217278564938 3419.938982715008024 13634.93740933004119 
	4279.358614932023556 3357.355043135465621 13586.90885904409333 
	4278.19379648020913 3287.898992494615868 13549.4910577005794 
	4276.944803651340408 3213.354893641315812 13523.64510458447694 
	4275.643849107003007 3135.637498468207923 13510.03486005416744 
	4274.324485648228801 3056.743064869574027 13509.00989396525438 
	4273.020740858190948 2978.69808020310893 13520.59650713307747 
	4271.766239499836956 2903.507208372749119 13544.49705644543792 
	4270.593336302649732 2833.10179758946515 13580.09760094345984 
	4269.532281504721141 2769.290271462142755 13626.48367245052941 
	4268.610440671625838 2713.711677691344448 13682.46376563744161 
	4267.851588913596061 2667.79358752774624 13746.59994412603555 
	4267.275297703874458 2632.715427397753501 13817.24477644836224 
	4266.896430112666167 2609.378184562793649 13892.58365308718203 
	4266.724757475129991 2598.381264947108775 13970.68139760463055 
	4266.764707379904394 2600.007097560000147 14049.53197456807357 
	4267.015249477464749 2614.213880923732177 14127.11001743889938 
	4267.469922054790914 2640.636657887624096 14201.42285284769787 
	4268.116998685574799 2678.596690867976577 14270.56168492262623 
	4268.939790678287864 2727.118897884316084 14332.75062495702332 
	4269.917077445320501 2784.956896961931307 14386.39230690417935 
	4271.023653978817492 2850.625032488083434 14430.10891744613582 
	4272.230980248686137 2922.436497722683725 14462.77758509583873 
	4273.507919747387859 2998.546809815767574 14483.55922544125133 
	4274.383662119634209 3050.849364136166059 14489.13312769224103 
	4274.822002669312496 3077.055576944250333 14489.81416883839483 
	4391.791664074976325 3089.806658451867861 14489.99999999986176 
	4391.354623798458306 3116.049893602272732 14490.00001962545139 
	4390.480550792257418 3168.535907987004066 14485.77794520721181 
	4389.203046597527646 3245.238740489416614 14466.94154530859669 
	4387.991901354175752 3317.940756489659634 14436.0867557732854 
	4386.878157744786222 3384.770905147940539 14394.00771312103643 
	4385.890365583161838 3444.009036591331551 14341.78748178578644 
	4385.053845562531023 3494.13044301679929 14280.77014790950307 
	4384.390040843763018 3533.845063578581176 14212.52622388840609 
	4383.915967212290525 3562.130699714439743 14138.81222494625035 
	4383.643776946822982 3578.259322497930043 14061.52545820202067 
	4383.580447298489162 3581.815811900137305 13982.65518792570765 
	4383.727601641242472 3572.708641075403648 13904.23143394877479 
	4384.081467857846292 3551.172231894470769 13828.27272111604725 
	4384.632975033630828 3517.76092077673411 13756.73412466345326 
	4385.367985977905846 3473.334690233487436 13691.45694878811446 
	4386.267659613055912 3419.037033367702406 13634.12133363814246 
	4387.308933941801115 3356.265521097512647 13586.20301057300276 
	4388.465117212410405 3286.635829688705144 13548.93531876995257 
	4389.706572128066909 3211.940154509771219 13523.27746082758131 
	4391.001475561568441 3134.101080415641718 13509.88981442889417 
	4392.316634301012527 3055.122096107985271 13509.11693550743439 
	4393.618335915847638 2977.036026199325534 13520.978690385562 
	4394.873212932448951 2901.852708302736573 13545.16974511943044 
	4396.049098167132797 2831.507261898667366 13581.06742517724524 
	4397.11584929122273 2767.810280495585175 13627.74774313089802 
	4398.046121491545819 2712.401229093953589 13684.00918180374902 
	4398.816068420077499 2666.706246457671114 13748.40362069860021 
	4399.405953464892264 2631.901438317428983 13819.27360966912966 
	4399.800655673164329 2608.882606295359892 13894.7950304269707 
	4399.990057357609658 2598.242191684752925 13973.02404780057623 
	4399.969303450425286 2600.254027519094052 14051.94714225027928 
	4399.738925956948151 2614.866291353288034 14129.53293583794402 
	4399.304830317336382 2641.702840209279657 14203.7844776933398 
	4398.678144031289776 2680.07289297198804 14272.79064318855308 
	4397.874931406001451 2728.988812212076027 14334.77532387856809 
	4396.915781814597722 2787.191523161928217 14388.14314202188143 
	4395.82528173881019 2853.182932559843266 14431.52051337464218 
	4394.631385177308402 2925.264449437580424 14463.79100011704941 
	4393.364694647461874 3001.580853189902882 14484.12404860442075 
	4392.493355420797343 3053.97194827880503 14489.37225288735499 
	4392.05654649627013 3080.208959811404384 14489.88580703440857 
	4508.361300446094901 3095.642453126729833 14489.99999999986539 
	4507.048341256788262 3121.86872979755708 14490.00001966570744 
	4504.422445756315938 3174.3208261497075 14485.7692853378685 
	4500.585179754103592 3250.96997157113492 14466.89458227005525 
	4496.948478115300531 3323.61285653302366 14435.97815042574621 
	4493.60612508385384 3390.37614670090079 14393.81733154105677 
	4490.644325092168401 3449.537913995908639 14341.49950250629627 
	4488.139466099783931 3499.572313763027523 14280.37400139764213 
	4486.156151441948168 3539.188898471419179 14212.01732646805613 
	4484.7455331024521 3567.36591048356604 14138.19247641120819 
	4483.943992586508102 3583.376631536651075 14060.80348056066941 
	4483.772202560942787 3586.808126419765358 13981.84629174373185 
	4484.234593692145609 3577.57189285232198 13903.35730832069748 
	4485.319240371250999 3555.906144116237556 13827.36085308648762 
	4486.998168290299873 3522.369665241780694 13755.816963615227 
	4489.228075932185675 3477.827401291213391 13690.57084059599583 
	4491.951451367561276 3423.428149411724462 13633.30525794624918 
	4495.098055554813072 3360.574930012017376 13585.49716210191764 
	4498.586733887210357 3290.888801222923576 13548.3795798393312 
	4502.327509265237495 3216.167049909943216 13522.90981707069295 
	4506.223902711361916 3138.336837540310626 13509.74476880361908 
	4510.175421675844518 3059.405496432013479 13509.22397704962168 
	4514.080151857267083 2981.408758302676233 13521.36087363804472 
	4517.837385691720556 2906.358250364677588 13545.84243379343025 
	4521.35021971880542 2836.189613103683769 13582.03724941103792 
	4524.528053835344508 2772.712577843843519 13629.01181381126662 
	4527.28892797815115 2717.56429165769714 13685.55459797006006 
	4529.561635970028874 2672.167093426054635 13750.20729727117032 
	4531.287562010467809 2637.691830052594014 13821.3024428899007 
	4532.422192445766086 2615.027658951405101 13897.006407766763 
	4532.936263828343726 2604.759115634998579 13975.36669799652555 
	4532.816517655118332 2607.151037862854992 14054.362309932485 
	4532.066042320572706 2622.141735150820296 14131.95585423699231 
	4530.704193460692295 2649.344579895632251 14206.14610253897808 
	4528.766094758677355 2688.05797874935115 14275.01960145447629 
	4526.301732025871388 2737.283468295510374 14336.80002280011831 
	4523.374664151539946 2795.751463745498768 14389.89397713958533 
	4520.060383313265447 2861.95401363222345 14432.93210930315399 
	4516.444369928601191 2934.183652027611515 14464.8044151382619 
	4512.619880613156056 3010.577583939804754 14484.68887176758835 
	4509.997007275947908 3062.969312772144349 14489.6113780824744 
	4508.684168215050704 3089.193189885578249 14489.95744523042231 
	0 
	
	0 
	0 
	38 0.02564102564102564014 0.05128205128205128027 0.07692307692307692735 0.1025641025641025605 0.1282051282051281937 0.1538461538461538269 0.1794871794871794601 0.2051282051282050933 0.2307692307692307265 0.2564102564102563875 0.2820512820512820484 0.3076923076923077094 0.3333333333333333703 0.3589743589743590313 0.3846153846153846922 0.4102564102564103532 0.4358974358974360142 0.4615384615384616751 0.4871794871794873361 0.512820512820512997 0.538461538461538658 0.5641025641025643189 0.5897435897435899799 0.6153846153846156408 0.6410256410256413018 0.6666666666666669627 0.6923076923076926237 0.7179487179487182846 0.7435897435897439456 0.7692307692307696065 0.7948717948717952675 0.8205128205128209284 0.8461538461538465894 0.8717948717948722503 0.8974358974358979113 0.9230769230769235723 0.9487179487179492332 0.9743589743589748942 
	0 
	0 
	0 
	F 1 F 0 F 1 F 0 } I I I I #
tcoedge-coedge $-1 -1 $-1 $7 $8 $-1 $9 forward $4 $10 0 6.250766387756696574 #
coedge $-1 -1 $-1 $11 $6 $-1 $12 forward $4 $13 #
coedge $-1 -1 $-1 $6 $11 $-1 $14 forward $4 $15 #
tedge-edge $-1 -1 $-1 $16 -7.814085595768073775e-29 $17 6.250766387756696574 $6 $18 forward @7 unknown 0.0008503927469804086793 #
pcurve $-1 -1 $-1 0 forward { exppc nubs 1 open 2 
	0 1 6.250766387756696574 1 
	0 0 
	0.9999999999999988898 1.346987882587557752e-16 
	6.64246799103649004e-08 
	spline forward { ref 0 } I I I I 
	} 0 0 #
tcoedge-coedge $-1 -1 $-1 $8 $7 $-1 $19 forward $4 $20 0 6.270005910518959169 #
edge $-1 -1 $-1 $17 -1.597735222458848359 $21 -1.48213359828823088 $7 $22 forward @7 unknown #
pcurve $-1 -1 $-1 0 forward { exppc nubs 3 open 2 
	-1.597735222458848359 3 -1.48213359828823088 3 
	0.999999999999999778 3.079415474526734836e-17 
	0.9999999975121016682 0.033308158195947353 
	1.000000000000000444 0.06667390754960508814 
	0.9999999999999996669 0.1000417136115407946 
	1.90690059821820623e-06 
	spline forward { ref 0 } I I I I 
	} 0 0 #
edge $-1 -1 $-1 $23 -0.1000208620216407607 $16 -3.670386069011258527e-26 $8 $24 forward @7 unknown #
pcurve $-1 -1 $-1 0 forward { exppc nubs 1 open 2 
	-0.1000208620216406913 1 -3.670386069011258527e-26 1 
	1.584090926910715678e-15 0.1000417136115408501 
	1.655535121645927679e-17 6.456511209506810718e-17 
	0.0009308921397088404208 
	spline forward { ref 0 } I I I I 
	} 0 0 #
tvertex-vertex $-1 -1 $-1 $9 $25 1.203369197834016553e-11 #
tvertex-vertex $-1 -1 $-1 $9 $26 1.244888943013143184e-11 #
ellipse-curve $-1 -1 $-1 4158.360865463577284 3095.642797989767132 13999.99999999999818 -0.9987492177719092812 0.04999999999999307776 -2.416357873577548634e-12 -1.196026744310074843e-09 -2.14949125165730958e-10 489.9999999999990337 1 F -7.814085595768073775e-29 F 6.250766387756696574 #
tedge-edge $-1 -1 $-1 $21 -1.100808740288568538e-15 $23 6.270005910518959169 $11 $27 forward @7 unknown 0.0008609630373315964357 #
pcurve $-1 -1 $-1 0 forward { exppc nubs 1 open 2 
	0 1 6.270005910518959169 1 
	0.999999999999999889 0.1000417136115408223 
	1.027591606551418926e-15 0.1000417136115408084 
	7.795883240375263023e-08 
	spline forward { ref 0 } I I I I 
	} 0 0 #
tvertex-vertex $-1 -1 $-1 $12 $28 1.924155821526327321e-11 #
ellipse-curve $-1 -1 $-1 4239.234680079565805 5710.568445282695393 14489.87869744708769 -0.0006112077300546536708 -3.278502056154634036e-05 0.9999998126751089567 3040.448490274965934 0.2639975209776829201 1.858354623369291803 0.8655747828864902571 F -1.597735222458848359 F -1.48213359828823088 #
tvertex-vertex $-1 -1 $-1 $19 $29 1.291180378436949795e-11 #
ellipse-curve $-1 -1 $-1 4333.360865483241469 6591.995018274487848 14490.00000000346154 1.237562433333149581e-14 9.896371332788639877e-13 -1 -175.0000000208600852 -3496.352220284935356 -3.463009079496259884e-09 1 F -0.1000208620216407607 F -3.670386069011258527e-26 #
point $-1 -1 $-1 4158.360865462381298 3095.642797989552037 14489.99999999999818 #
point $-1 -1 $-1 4157.566741055895363 3079.780175393721038 14489.74253089842932 #
ellipse-curve $-1 -1 $-1 4508.360865508857387 3095.642797990001327 14000.00000000000364 0.9987492177719163866 0.0499999999998515382 9.212545058456999595e-12 0.3228858661402739805 -6.449640215034714963 489.9574449743703326 1 F -1.100808740288568538e-15 F 6.270005910518959169 #
point $-1 -1 $-1 4508.683751374997883 3089.193157774967403 14489.95744497437045 #
point $-1 -1 $-1 4508.360865504359936 3095.642797989563405 14490.00000000000182 #
End-of-ACIS-data 