700 0 1 0           
4 LibG 19 ASM 222.0.0.1700 NT 24 Wed Oct  5 17:29:48 2016 
1000 9.999999999999999547e-07 1.000000000000000036e-10 
body $-1 -1 $-1 $1 $-1 $-1 #
lump $-1 -1 $-1 $-1 $2 $0 #
shell $-1 -1 $-1 $-1 $-1 $3 $-1 $1 #
face $-1 -1 $-1 $-1 $4 $2 $-1 $5 forward double out #
loop $-1 -1 $-1 $-1 $6 $3 #
spline-surface $-1 -1 $-1 forward { exactsur full nubs 3 3 open open none none 40 2 
	-1.191870089789426815e-07 3 0.02564102564102564014 1 0.05128205128205128027 1 0.07692307692307692735 1 0.1025641025641025605 1 
	0.1282051282051281937 1 0.1538461538461538269 1 0.1794871794871794601 1 0.2051282051282050933 1 0.2307692307692307265 1 
	0.2564102564102563875 1 0.2820512820512820484 1 0.3076923076923077094 1 0.3333333333333333703 1 0.3589743589743590313 1 
	0.3846153846153846922 1 0.4102564102564103532 1 0.4358974358974360142 1 0.4615384615384616751 1 0.4871794871794873361 1 
	0.512820512820512997 1 0.538461538461538658 1 0.5641025641025643189 1 0.5897435897435899799 1 0.6153846153846156408 1 
	0.6410256410256413018 1 0.6666666666666669627 1 0.6923076923076926237 1 0.7179487179487182846 1 0.7435897435897439456 1 
	0.7692307692307696065 1 0.7948717948717952675 1 0.8205128205128209284 1 0.8461538461538465894 1 0.8717948717948722503 1 
	0.8974358974358979113 1 0.9230769230769235723 1 0.9487179487179492332 1 0.9743589743589748942 1 1.000000000000000444 3 
	-1.191870089485002645e-07 3 0.1000418327985498207 3 
	4508.360430618815371 3095.643141730667139 13510.00000000014734 
	4509.669360981248246 3069.497340621544026 13509.9999804550589 
	4512.287199103766397 3017.206189883754178 13514.20473505409791 
	4516.113309809597922 2940.77987080127923 13532.96452861431681 
	4519.740678271558863 2868.323415455789473 13563.69603353164166 
	4523.076332906258358 2801.693925338856843 13605.61152371900607 
	4526.034768090883517 2742.59936985184595 13657.63655965522958 
	4528.54014918712528 2692.554541093225907 13718.43755906677507 
	4530.528254492944143 2652.842263494830604 13786.45598127088851 
	4531.948121991104927 2624.480500124017453 13859.94827798366714 
	4532.763355542356294 2608.196261557685375 13937.03058651526771 
	4532.953057882415123 2604.406969326816125 14015.72701971034621 
	4532.51236628130755 2613.209756154691604 14094.02031479506877 
	4531.452577194721925 2634.378976054113537 14169.90354282483713 
	4529.800856695931543 2667.371988431813406 14241.43155324009058 
	4527.599544115181743 2711.343067846734357 14306.77083482764829 
	4524.905066735678702 2765.165082890025133 14364.2465149780619 
	4521.786493366405921 2827.458388475538868 14412.385292484827 
	4518.32376386879514 2896.626190932850932 14449.95320336879558 
	4514.605640020576175 2970.895479372191858 14475.9872516586347 
	4510.727430243273375 3048.362474108487277 14489.82009432056111 
	4506.788546516504539 3127.041427143562487 14491.09714757692745 
	4502.889956103836084 3204.915523780764488 14479.78567611941071 
	4499.13159341132814 3279.988580586918943 14456.17563222856188 
	4495.609798321773269 3350.336214503373412 14420.8722232903383 
	4492.414846669071267 3414.155171464199157 14374.78039822983737 
	4489.628636155209279 3469.809550057822435 14319.08165052887307 
	4487.322587027870213 3515.872735359132548 14255.20373244653456 
	4485.555811331535551 3551.163968022525296 14184.78405677241062 
	4484.373597660599444 3574.778611242600164 14109.62772425260846 
	4483.806250255427585 3586.111339736933587 14031.66125259131513 
	4483.868312199661887 3584.871656330555652 13952.88319311412852 
	4484.558192629793666 3571.091338421439559 13875.31290096015073 
	4485.858207517193478 3545.123623361611862 13800.9387719979386 
	4487.735032961108118 3507.634153958599654 13731.66727334329698 
	4490.140559433468297 3459.583914989334062 13669.27407396452691 
	4493.013124852941473 3402.204602624079143 13615.35852821353001 
	4496.279095721225531 3336.967041328931373 13571.30267848237418 
	4499.854752653001015 3265.54352052462491 13538.23582992536831 
	4503.648443680237506 3189.764782469268994 13517.00559772191446 
	4506.258085506201496 3137.637352236226434 13511.10599750287111 
	4507.566322013080935 3111.505410847850726 13510.2574693576189 
	4624.930066915057068 3101.478937151790433 13510.00000000014188 
	4625.368447893398297 3075.262661539189594 13509.99998041481012 
	4626.245202211463948 3022.83056438452013 13514.21339492344487 
	4627.526418634762194 2946.202379327631206 13533.01149165286552 
	4628.740669746789536 2873.562817769267895 13563.80463887918449 
	4629.856642430059765 2806.777492501530105 13605.80190529898573 
	4630.845554322838325 2747.561877201426796 13657.92453893472521 
	4631.681900599195615 2697.436977034696156 13718.83370557863782 
	4632.344111099434485 2657.690299087654694 13786.96487869124758 
	4632.81510682156204 2629.342770730944267 13860.56802651871112 
	4633.082740356751856 2613.122518817043328 13937.75256415662079 
	4633.140109194794604 2609.446166304614962 14016.53591589232019 
	4632.98573374265743 2618.408131261708149 14094.89444042315336 
	4632.623595485415535 2639.778201896391238 14170.81541085439858 
	4632.063034299852006 2673.007450220732153 14242.3487142883223 
	4631.318507570507791 2717.24233235018346 14307.65694301977055 
	4630.409217320545395 2771.346613264594907 14365.06259066996245 
	4629.358614974005832 2833.9305528441364 14413.09114095591212 
	4628.193796522191406 2903.386603484986153 14450.50894229942242 
	4626.944803693323593 2977.93070233828621 14476.35489541552488 
	4625.643849148988011 3055.648097511395008 14489.9651399458362 
	4624.324485690215624 3134.542531110028449 14490.99010603474926 
	4623.020740900176861 3212.587515776492637 14479.40349286692799 
	4621.766239541823779 3287.778387606852903 14455.50294355456754 
	4620.593336344635645 3358.183798390137781 14419.90239905654744 
	4619.532281546710692 3421.995324517459267 14373.51632754947423 
	4618.610440713613571 3477.573918288258028 14317.53623436256203 
	4617.851588955585612 3523.492008451856691 14253.40005587396809 
	4617.27529774586219 3558.57016858184943 14182.75522355164139 
	4616.896430154654809 3581.907411416807918 14107.41634691282343 
	4616.724757517118633 3592.904331032493246 14029.31860239537309 
	4616.764707421895764 3591.278498419603693 13950.46802543193007 
	4617.015249519454301 3577.07171505586939 13872.88998256110426 
	4617.469922096779555 3550.648938091978835 13798.57714715230395 
	4618.116998727563441 3512.688905111625445 13729.43831507737923 
	4618.939790720275596 3464.166698095286847 13667.24937504298214 
	4619.917077487309143 3406.328699017672534 13613.60769309582793 
	4621.023654020806134 3340.660563491519042 13569.89108255386964 
	4622.230980290672051 3268.84909825691966 13537.22241490416491 
	4623.507919789372863 3192.738786163834448 13516.44077455875049 
	4624.383662161621032 3140.436231843436872 13510.86687230776261 
	4624.822002711296591 3114.230019035352598 13510.18583116160698 
	4741.791664116962238 3101.478937527733251 13510.00000000014006 
	4741.35462384044331 3075.235702377327925 13509.99998037455771 
	4740.480550834243331 3022.749687992597956 13514.22205479279364 
	4739.20304663951265 2946.046855490184043 13533.05845469141059 
	4737.991901396159847 2873.344839489943752 13563.91324422672005 
	4736.878157786767588 2806.514690831661937 13605.99228687896539 
	4735.890365625145023 2747.276559388269561 13658.21251821421902 
	4735.053845604512389 2697.155152962801822 13719.22985209050421 
	4734.390040885743474 2657.440532401021301 13787.47377611159936 
	4733.915967254271891 2629.154896265162279 13861.1877750537551 
	4733.643776988803438 2613.026273481672433 13938.47454179798478 
	4733.580447340469618 2609.469784079464262 14017.34481207430144 
	4733.727601683223838 2618.576954904198374 14095.76856605123248 
	4734.081467899826748 2640.113364085130797 14171.72727888396003 
	4734.632975075612194 2673.524675202866547 14243.26587533655402 
	4735.367986019886303 2717.950905746114586 14308.543051211891 
	4736.267659655037278 2772.24856261190007 14365.87866636186118 
	4737.30893398378339 2835.020074882090285 14413.79698942700088 
	4738.465117254391771 2904.649766290895059 14451.06468123005106 
	4739.706572170051004 2979.345441469831712 14476.72253917242233 
	4741.001475603553445 3057.184515563959849 14490.11018557111493 
	4742.316634342997531 3136.163499871615386 14490.88306449257107 
	4743.618335957832642 3214.249569780276943 14479.02130961444709 
	4744.873212974438502 3289.432887676863629 14454.83025488057865 
	4746.049098209118711 3359.77833408093602 14418.93257482276022 
	4747.115849333211372 3423.475315484015027 14372.25225686910926 
	4748.04612153353446 3478.884366885648888 14315.9908181962619 
	4748.81606846206796 3524.579349521931817 14251.59637930140525 
	4749.405953506883634 3559.384157662172129 14180.7263903308758 
	4749.800655715152061 3582.402989684242584 14105.20496957303658 
	4749.990057399599209 3593.043404294849097 14026.97595219942741 
	4749.969303492414838 3591.03156846050797 13948.05285774972799 
	4749.738925998939521 3576.419304626313078 13870.46706416206143 
	4749.304830359325933 3549.582755770322365 13796.21552230666748 
	4748.678144073277508 3511.212703007613982 13727.20935681145602 
	4747.874931447991003 3462.296783767526904 13665.22467612144101 
	4746.915781856587273 3404.094072817673805 13611.85685797812403 
	4745.825281780797013 3338.10266341975921 13568.4794866253651 
	4744.631385219294316 3266.021146542022507 13536.20899988295605 
	4743.364694689446878 3189.704742789697775 13515.87595139558834 
	4742.493355462782347 3137.313647700796992 13510.62774711265411 
	4742.056546538254224 3111.076636168196274 13510.1141929655987 
	4858.361300488081724 3095.643142852873098 13510.00000000013642 
	4857.048341298772357 3069.416866182044032 13509.99998033430165 
	4854.422445798301851 3016.964769829892703 13514.23071466214424 
	4850.585179796086777 2940.315624408466647 13533.10541772994839 
	4846.948478157283716 2867.672739446578817 13564.02184957425561 
	4843.606125125836115 2800.909449278700777 13606.18266845894686 
	4840.644325134149767 2741.747681983692473 13658.50049749371283 
	4838.139466141765297 2691.713282216573589 13719.62599860236878 
	4836.156151483927715 2652.096697508183297 13787.98267353195115 
	4834.745533144431647 2623.919685496035072 13861.80752358879909 
	4833.943992628489468 2607.908964442950946 13939.19651943933968 
	4833.772202602922334 2604.477469559836209 14018.1537082562736 
	4834.234593734126975 2613.713703127279587 14096.64269167931161 
	4835.319240413232365 2635.379451863363101 14172.63914691352147 
	4836.998168332280329 2668.915930737821327 14244.18303638478392 
	4839.228075974167041 2713.458194688388176 14309.42915940400962 
	4841.951451409542642 2767.857446567877105 14366.69474205376173 
	4845.098055596794438 2830.710665967584191 14414.50283789808964 
	4848.586733929191723 2900.396794756677536 14451.62042016067426 
	4852.327509307222499 2975.118546069659715 14477.0901829293125 
	4856.22390275334692 3052.948758439290941 14490.25523119638819 
	4860.175421717830432 3131.880099547586724 14490.7760229503856 
	4864.080151899252087 3209.876837676925334 14478.63912636196255 
	4867.837385733708288 3284.927345614922615 14454.15756620658067 
	4871.350219760791333 3355.095982875919162 14417.96275058896936 
	4874.528053877330422 3418.573018135758048 14370.98818618874066 
	4877.288928020139792 3473.721304321903972 14314.44540202994722 
	4879.561636012018425 3519.118502553547842 14249.79270272883696 
	4881.287562052456451 3553.593765927006189 14178.69755711010657 
	4882.422192487752909 3576.257937028196466 14102.99359223324427 
	4882.936263870332368 3586.526480344602987 14024.63330200348355 
	4882.816517697108793 3584.134558116746575 13945.63769006752409 
	4882.066042362561348 3569.143860828781726 13868.04414576301679 
	4880.704193502680937 3541.941016083969316 13793.85389746103101 
	4878.766094800663268 3503.227617230249962 13724.98039854552917 
	4876.30173206786003 3454.002127684092557 13663.19997719989078 
	4873.374664193528588 3395.534132234103254 13610.10602286042013 
	4870.06038335525227 3329.331582347378117 13567.06789069685146 
	4866.444369970586195 3257.101943951990961 13535.19558486174719 
	4862.61988065514106 3180.708012039795449 13515.31112823242074 
	4859.997007317933821 3128.316283207457673 13510.38862191753833 
	4858.684168257035708 3102.092406094022408 13510.04255476959042 
	0 
	
	0 
	0 
	38 0.02564102564102564014 0.05128205128205128027 0.07692307692307692735 0.1025641025641025605 0.1282051282051281937 0.1538461538461538269 0.1794871794871794601 0.2051282051282050933 0.2307692307692307265 0.2564102564102563875 0.2820512820512820484 0.3076923076923077094 0.3333333333333333703 0.3589743589743590313 0.3846153846153846922 0.4102564102564103532 0.4358974358974360142 0.4615384615384616751 0.4871794871794873361 0.512820512820512997 0.538461538461538658 0.5641025641025643189 0.5897435897435899799 0.6153846153846156408 0.6410256410256413018 0.6666666666666669627 0.6923076923076926237 0.7179487179487182846 0.7435897435897439456 0.7692307692307696065 0.7948717948717952675 0.8205128205128209284 0.8461538461538465894 0.8717948717948722503 0.8974358974358979113 0.9230769230769235723 0.9487179487179492332 0.9743589743589748942 
	0 
	0 
	0 
	F 1 F 0 F 1 F 0 } I I I I #
tcoedge-coedge $-1 -1 $-1 $7 $8 $-1 $9 forward $4 $10 0 6.250766387756696574 #
coedge $-1 -1 $-1 $11 $6 $-1 $12 forward $4 $13 #
coedge $-1 -1 $-1 $6 $11 $-1 $14 forward $4 $15 #
tedge-edge $-1 -1 $-1 $16 0 $17 6.250766387756696574 $6 $18 forward @7 unknown 0.0008503927515927479442 #
pcurve $-1 -1 $-1 0 forward { exppc nubs 1 open 2 
	0 1 6.250766387756696574 1 
	0 0 
	0.9999999999999987788 9.948850550454216085e-17 
	6.692572887671184934e-08 
	spline forward { ref 0 } I I I I 
	} 0 0 #
tcoedge-coedge $-1 -1 $-1 $8 $7 $-1 $19 forward $4 $20 0 6.270005910518960057 #
edge $-1 -1 $-1 $17 -1.597735222638638319 $21 -1.482133598403613028 $7 $22 forward @7 unknown #
pcurve $-1 -1 $-1 0 forward { exppc nubs 3 open 2 
	-1.597735222638638319 3 -1.482133598403613028 3 
	0.999999999999999889 2.309561605894098177e-17 
	0.9999999975120998918 0.03330815819589270921 
	1.000000000000000444 0.06667390754963317678 
	0.999999999999999889 0.1000417136115407668 
	1.90130566625617021e-06 
	spline forward { ref 0 } I I I I 
	} 0 0 #
edge $-1 -1 $-1 $23 -0.1000208620216653382 $16 -6.733070278178198106e-18 $8 $24 forward @7 unknown #
pcurve $-1 -1 $-1 0 forward { exppc nubs 1 open 2 
	-0.1000208620216653521 1 -1.830985469789076559e-26 1 
	0 0.1000417136115408362 
	4.121742761947079693e-16 3.044241846099244149e-17 
	0.0009308921397088529975 
	spline forward { ref 0 } I I I I 
	} 0 0 #
tvertex-vertex $-1 -1 $-1 $9 $25 1.771731845292248988e-11 #
tvertex-vertex $-1 -1 $-1 $9 $26 1.416782831503573111e-11 #
ellipse-curve $-1 -1 $-1 4508.360865505283073 3095.642797989822157 14000.00000000000364 -0.9987492177719097253 -0.04999999999998382127 1.844405981532046896e-12 -9.161055913864402721e-10 2.29026397846610068e-10 -489.9999999999990337 1 F 0 F 6.250766387756696574 #
tedge-edge $-1 -1 $-1 $21 0 $23 6.270005910518960057 $11 $27 forward @7 unknown 0.0008609630420749282481 #
pcurve $-1 -1 $-1 0 forward { exppc nubs 1 open 2 
	0 1 6.270005910518960945 1 
	0.999999999999999889 0.1000417136115408223 
	1.086820489748714954e-15 0.1000417136115408501 
	7.864667255547624345e-08 
	spline forward { ref 0 } I I I I 
	} 0 0 #
tvertex-vertex $-1 -1 $-1 $12 $28 1.363797880709171235e-11 #
ellipse-curve $-1 -1 $-1 4589.234680247349388 480.7171536275051835 13510.12130255293232 -0.0006112077300546510687 3.278502056162571751e-05 -0.9999998126751089567 3040.448488580552748 -0.2639979545266056271 -1.858354622347859086 0.8655747824049823125 F -1.597735222638638319 F -1.482133598403613028 #
tvertex-vertex $-1 -1 $-1 $19 $29 1.409272615797817647e-11 #
ellipse-curve $-1 -1 $-1 4683.36086552526649 -400.7094222940222039 13510.00000000173168 1.237562433336900457e-14 4.948185666393108248e-13 1 -175.0000000208996198 3496.352220284072246 -1.728255938360234888e-09 1 F -0.1000208620216653382 F -6.733070278178198106e-18 #
point $-1 -1 $-1 4508.360865504366302 3095.642797990051349 13510.00000000000364 #
point $-1 -1 $-1 4507.566741097881277 3111.505420585882348 13510.2574691015725 #
ellipse-curve $-1 -1 $-1 4858.360865551219831 3095.642797989579321 13999.99999999999818 0.9987492177719162756 -0.04999999999985483418 -9.983723948419561632e-12 0.3228858657628947415 6.449640215053665138 -489.9574449743703326 1 F 0 F 6.270005910518960057 #
point $-1 -1 $-1 4858.683751416982886 3102.092438204632799 13510.04255502563137 #
point $-1 -1 $-1 4858.36086554634494 3095.642797990036797 13510 #
End-of-ACIS-data 