700 0 1 0           
4 LibG 19 ASM 222.0.0.1700 NT 24 Wed Oct  5 17:29:48 2016 
1000 9.999999999999999547e-07 1.000000000000000036e-10 
body $-1 -1 $-1 $1 $-1 $-1 #
lump $-1 -1 $-1 $-1 $2 $0 #
shell $-1 -1 $-1 $-1 $-1 $3 $-1 $1 #
face $-1 -1 $-1 $-1 $4 $2 $-1 $5 forward double out #
loop $-1 -1 $-1 $-1 $6 $3 #
spline-surface $-1 -1 $-1 forward { exactsur full nubs 3 3 open open none none 40 2 
	-1.191870088110671968e-07 3 0.02564102564102564014 1 0.05128205128205128027 1 0.07692307692307692735 1 0.1025641025641025605 1 
	0.1282051282051281937 1 0.1538461538461538269 1 0.1794871794871794601 1 0.2051282051282050933 1 0.2307692307692307265 1 
	0.2564102564102563875 1 0.2820512820512820484 1 0.3076923076923077094 1 0.3333333333333333703 1 0.3589743589743590313 1 
	0.3846153846153846922 1 0.4102564102564103532 1 0.4358974358974360142 1 0.4615384615384616751 1 0.4871794871794873361 1 
	0.512820512820512997 1 0.538461538461538658 1 0.5641025641025643189 1 0.5897435897435899799 1 0.6153846153846156408 1 
	0.6410256410256413018 1 0.6666666666666669627 1 0.6923076923076926237 1 0.7179487179487182846 1 0.7435897435897439456 1 
	0.7692307692307696065 1 0.7948717948717952675 1 0.8205128205128209284 1 0.8461538461538465894 1 0.8717948717948722503 1 
	0.8974358974358979113 1 0.9230769230769235723 1 0.9487179487179492332 1 0.9743589743589748942 1 1.000000000000000444 3 
	-1.19187009164308854e-07 3 0.100041832798550015 3 
	8713.661143684983472 1909.029631479583713 13510.00000000013461 
	8693.987593170553737 1891.759205182364212 13509.9999804550589 
	8654.640831860628168 1857.218650810187228 13514.20473505408518 
	8597.133431615913651 1806.735779569299893 13532.96452861431135 
	8542.613176972095971 1758.87517409083739 13563.69603353163984 
	8492.477454065950951 1714.863529793417001 13605.61152371899698 
	8448.011433780351581 1675.829033935139933 13657.63655965522048 
	8410.35492968397557 1642.772271856003272 13718.43755906676961 
	8380.473210010739422 1616.540604274071029 13786.45598127088124 
	8359.132246617602505 1597.806439583134079 13859.94827798365986 
	8346.879082574674612 1587.04999954167647 13937.03058651526226 
	8344.027808987502794 1584.547009026346586 14015.72701971034076 
	8350.651513902992519 1590.361628379048398 14094.02031479506331 
	8366.580408768524649 1604.344808719046796 14169.90354282482986 
	8391.406180712818241 1626.138112592742345 14241.43155324008512 
	8424.49245901933682 1655.182901967342104 14306.77083482764465 
	8464.991127517701898 1690.734658063608322 14364.24651497805644 
	8511.864064745079304 1731.882065956551287 14412.38529248481609 
	8563.909754603140755 1777.570374740590296 14449.95320336879013 
	8619.794085386651204 1826.628434456765945 14475.98725165862743 
	8678.084547697779271 1877.798716731786953 14489.82009432055384 
	8737.286954634848371 1929.769549595673425 14491.097147576922 
	8795.883742989633902 1981.208740187776812 14479.78567611940161 
	8852.372873660528057 2030.797723484419294 14456.1756322285546 
	8905.306334128988965 2077.265361697808657 14420.8722232903292 
	8953.327256047074115 2119.420527950212545 14374.7803982298301 
	8995.204696483537191 2156.182638990802388 14319.08165052886761 
	9029.865191264270834 2186.609354295534558 14255.20373244652728 
	9056.420271585657247 2209.920731526139662 14184.78405677240335 
	9074.189238554055919 2225.519219159596105 14109.62772425260118 
	9082.716611862260834 2233.004973808722298 14031.66125259130786 
	9081.78380532803385 2232.18610959368516 13952.88319311412306 
	9071.414730027629048 2223.083616852752129 13875.31290096014163 
	9051.875181331392014 2205.930824051482432 13800.93877199793133 
	9023.666025796972463 2181.167416896951636 13731.66727334329335 
	8987.510361656226451 2149.42816717119058 13669.27407396451963 
	8944.334985404044346 2111.526663176212878 13615.35852821352091 
	8895.246626924545126 2068.434447739558436 13571.30267848237418 
	8841.503609504759879 2021.256139957343521 13538.23582992536103 
	8784.483485132603164 1971.20102384064262 13517.005597721909 
	8745.259916208591676 1936.768613904305539 13511.10599750286929 
	8725.596794516563023 1919.507342548817633 13510.25746935761345 
	8790.66040301790963 1821.316173694495546 13510.00000000014006 
	8770.390745358979984 1804.684088339139862 13509.99998041480649 
	8729.851781086737901 1771.420205734961655 13514.21339492344123 
	8670.605023550608166 1722.805989891330228 13533.01149165286188 
	8614.441986114617976 1676.722440384829042 13563.80463887918086 
	8562.805033413971614 1634.353227718809194 13605.80190529898573 
	8517.020459444358494 1596.786755585766514 13657.92453893472339 
	8478.264216796775145 1564.988033163940599 13718.83370557863782 
	8447.53174292602489 1539.773910526895861 13786.96487869124394 
	8425.612384453481354 1521.792088454118584 13860.56802651870748 
	8413.069125238855122 1511.504481923234152 13937.75256415661897 
	8410.224125820652262 1509.175353912663468 14016.53591589231655 
	8417.150449146514802 1514.864527214469263 14094.89444042314972 
	8433.670184173708549 1528.425847861076136 14170.81541085439676 
	8459.359015780240952 1549.5109398394045 14242.34871428832048 
	8493.557123533597405 1577.578154577368878 14307.65694301976873 
	8535.386129391779832 1611.906485310747939 14365.06259066996063 
	8583.77165902102206 1651.614088878381381 14413.0911409559103 
	8637.470937234687881 1695.680939140009968 14450.50894229941878 
	8695.104708754821331 1742.975030074317829 14476.35489541552306 
	8755.192664402729861 1792.281455429177868 14489.96513994583438 
	8816.191462788978242 1842.333617902134392 14490.99010603474744 
	8876.534370908764686 1891.845766125711407 14479.40349286692617 
	8934.671505468944815 1939.546023623961446 14455.50294355456572 
	8989.109641345019554 1984.209061270443954 14419.90239905654562 
	9038.450564687000224 2024.687573937567549 14373.51632754946877 
	9081.426985576275911 2059.941752748160525 14317.53623436256021 
	9116.935087821188063 2089.06599583236175 14253.40005587396809 
	9144.062879857116059 2111.312171434457014 14182.75522355164139 
	9162.113618567602316 2126.108835781372363 14107.41634691281979 
	9170.623704399673443 2133.075912044701909 14029.31860239537127 
	9169.374588147433315 2132.034453323290109 13950.46802543192825 
	9158.398383613497572 2123.01123887853646 13872.88998256110426 
	9137.97704193876416 2106.238085512521593 13798.57714715230395 
	9108.63510907968157 2082.145892002409255 13729.43831507737741 
	9071.126251539672012 2051.353568828559673 13667.24937504298032 
	9026.413899966682948 2014.652140470243921 13613.60769309582247 
	8975.646494729871847 1972.984417942761411 13569.89108255386782 
	8920.128018118000909 1927.420803835021161 13537.22241490416309 
	8861.284387914707622 1879.131701897956418 13516.44077455874685 
	8820.846299516313593 1845.949099229925423 13510.86687230776079 
	8800.584501551744324 1829.323297732763876 13510.18583116160517 
	8863.268365433817962 1729.748075022576586 13510.00000000013642 
	8842.433670255994002 1713.785184550928761 13509.99998037454861 
	8800.764641827016021 1681.859680962115135 13514.22205479278819 
	8739.869619856721329 1635.203997170122193 13533.05845469140513 
	8682.150708416225825 1590.982087832966045 13563.91324422672005 
	8629.093275825243836 1550.332142674710667 13605.99228687896357 
	8582.062901549728849 1514.300547570356912 13658.21251821421538 
	8542.270018120390887 1483.814787350364895 13719.22985209050239 
	8510.738788874006787 1459.659595252538566 13787.47377611159573 
	8488.280740118816539 1442.456746548681622 13861.18777505375147 
	8475.473876764492161 1432.649055104904164 13938.47454179798115 
	8472.647805429231084 1430.488974476688099 14017.34481207429599 
	8479.875251536388532 1436.032099732318102 14095.76856605122703 
	8496.970187756955056 1449.135736529887481 14171.72727888395457 
	8523.492622220739577 1469.46257447595076 14243.26587533654674 
	8558.759923180710757 1496.489370149290153 14308.54305121188918 
	8601.864388668569518 1529.520416284256271 14365.87866636185572 
	8651.696608922782616 1567.705450387297788 14413.79698942699724 
	8706.974020283481877 1610.061541787476699 14451.06468123004743 
	8766.273915629906696 1655.498393710201299 14476.72253917241687 
	8828.070061735435957 1702.846409056548055 14490.11018557110765 
	8890.771981082099956 1750.886797429491708 14490.88306449256561 
	8952.765887100380496 1798.382948404816489 14479.02130961444163 
	9012.456219246319961 1844.112263450785804 14454.83025488057137 
	9068.306708891617745 1886.897627096003589 14418.93257482275658 
	9118.879919080580294 1925.637707232833918 14372.25225686910198 
	9162.874240489740259 1959.335304585512404 14315.99081819625462 
	9199.157391400476627 1987.123021591263523 14251.59637930139797 
	9226.795559477044662 2008.285589947122389 14180.72639033087216 
	9245.07743531502274 2022.278282087600928 14105.20496957303112 
	9253.532519204405617 2028.740932666670687 14026.97595219942377 
	9251.943229942458856 2027.507209119497929 13948.05285774972072 
	9240.350504079038728 2018.608892694168617 13870.4670641620578 
	9219.052741432640687 2002.275059715291718 13796.21552230666384 
	9188.598124298190669 1978.926184369606062 13727.20935681145056 
	9149.770507086504949 1949.163314089895948 13665.22467612143373 
	9103.56924320426333 1913.752598966727192 13611.85685797812403 
	9051.183454909063585 1873.60556309321305 13568.47948662535964 
	8993.961458777350344 1829.755664312289809 13536.20899988295241 
	8933.37594570514193 1783.331601668405938 13515.87595139558471 
	8891.78299080110628 1751.462930861277755 13510.62774711264865 
	8870.953315945282156 1735.503725943772906 13510.11419296559325 
	8931.122231100669524 1634.782873305072144 13510.00000000012915 
	8909.756601612591112 1619.516854622207347 13509.99998033429256 
	8867.025714929775859 1588.985083264895366 13514.2307146621315 
	8804.582339447735649 1544.368483634084669 13533.10541772994657 
	8745.402724113035219 1502.083882852803981 13564.02184957424834 
	8691.013008827263548 1463.221727624873211 13606.18266845894505 
	8642.815988115922664 1428.784332787137146 13658.50049749370373 
	8602.05471420349204 1399.659875235738355 13719.62599860235969 
	8569.780469518040263 1376.599509866284279 13787.98267353194569 
	8546.825644237698725 1360.197990229938796 13861.80752358879181 
	8533.782270290617816 1350.878330798661636 13939.19651943933604 
	8530.98675153730801 1348.880896482943172 14018.15370825626633 
	8538.51118768751985 1354.257203458178083 14096.64269167930433 
	8556.161514719717161 1366.868590470319305 14172.6391469135142 
	8583.482510031406491 1386.389795080516251 14244.18303638477664 
	8619.769533159882485 1412.31734256203913 14309.42915940400599 
	8664.086699285826398 1443.98253110364476 14366.69474205375263 
	8715.291016798466444 1480.568678412210829 14414.50283789807872 
	8772.061866387748523 1521.132184905457279 14451.62042016067062 
	8832.935061362835768 1564.626870250142474 14477.09018292930341 
	8896.340610741408454 1609.930955577961186 14490.25523119638274 
	8960.64321115563871 1655.875995476176513 14490.77602295038014 
	9024.184423241000331 1701.277013563103765 14478.6391263619571 
	9085.325444729549417 1744.963064416612951 14454.15756620657339 
	9142.489377079487895 1785.807433627781393 14417.96275058896208 
	9194.201895535154108 1822.756697084896814 14370.98818618873156 
	9239.129273688937246 1854.857890014894792 14314.44540202994176 
	9276.112781847115912 1881.283085060782241 14249.7927027288315 
	9304.198572025661633 1901.350745497741627 14178.69755711009748 
	9322.662278806466929 1914.543302863209647 14102.99359223323881 
	9331.027701570601494 1920.520505654196313 14024.63330200347627 
	9329.07908626671815 1919.12819480974872 13945.63769006751681 
	9316.866689972619497 1910.402279662145475 13868.04414576300769 
	9294.705484661843002 1894.567811761360417 13793.85389746102192 
	9263.167033873933178 1872.033180650898657 13724.98039854552371 
	9223.064750800613183 1843.379580579612366 13663.19997719988351 
	9175.432921724210246 1809.346022477102224 13610.10602286041285 
	9121.500021915391699 1770.810267817419117 13567.06789069684237 
	9062.657064091697976 1728.766213183195077 13535.19558486173992 
	9000.421602121250544 1684.298170446259974 13515.31112823241347 
	8957.739894743514014 1653.801538338672572 13510.38862191752924 
	8936.376220090838615 1638.536916410995218 13510.04255476957951 
	0 
	
	0 
	0 
	38 0.02564102564102564014 0.05128205128205128027 0.07692307692307692735 0.1025641025641025605 0.1282051282051281937 0.1538461538461538269 0.1794871794871794601 0.2051282051282050933 0.2307692307692307265 0.2564102564102563875 0.2820512820512820484 0.3076923076923077094 0.3333333333333333703 0.3589743589743590313 0.3846153846153846922 0.4102564102564103532 0.4358974358974360142 0.4615384615384616751 0.4871794871794873361 0.512820512820512997 0.538461538461538658 0.5641025641025643189 0.5897435897435899799 0.6153846153846156408 0.6410256410256413018 0.6666666666666669627 0.6923076923076926237 0.7179487179487182846 0.7435897435897439456 0.7692307692307696065 0.7948717948717952675 0.8205128205128209284 0.8461538461538465894 0.8717948717948722503 0.8974358974358979113 0.9230769230769235723 0.9487179487179492332 0.9743589743589748942 
	0 
	0 
	0 
	F 1 F 0 F 1 F 0 } I I I I #
tcoedge-coedge $-1 -1 $-1 $7 $8 $-1 $9 forward $4 $10 0 6.250766387756697462 #
coedge $-1 -1 $-1 $11 $6 $-1 $12 forward $4 $13 #
coedge $-1 -1 $-1 $6 $11 $-1 $14 forward $4 $15 #
tedge-edge $-1 -1 $-1 $16 -3.644824272394502032e-16 $17 6.250766387756697462 $6 $18 forward @7 unknown 0.0008503927426779620425 #
pcurve $-1 -1 $-1 0 forward { exppc nubs 1 open 2 
	0 1 6.25076638775669835 1 
	0 0 
	0.9999999999999991118 0 
	7.110300779059151271e-08 
	spline forward { ref 0 } I I I I 
	} 0 0 #
tcoedge-coedge $-1 -1 $-1 $8 $7 $-1 $19 forward $4 $20 3.401767497428332492e-15 6.270005910518957393 #
edge $-1 -1 $-1 $17 1.543857431115263967 $21 1.659459055250456005 $7 $22 forward @7 unknown #
pcurve $-1 -1 $-1 0 forward { exppc nubs 3 open 2 
	1.543857431115263967 3 1.659459055250456005 3 
	0.999999999999999778 0 
	0.9999999975121002249 0.03330815819592216481 
	1.000000000000000444 0.06667390754953408938 
	0.9999999999999992228 0.1000417136115408501 
	1.986631750261678909e-06 
	spline forward { ref 0 } I I I I 
	} 0 0 #
edge $-1 -1 $-1 $23 -0.1000208620216453542 $16 -3.231873724918607911e-16 $8 $24 forward @7 unknown #
pcurve $-1 -1 $-1 0 forward { exppc nubs 1 open 2 
	-0.1000208620216451738 1 -1.830985469788999072e-26 1 
	1.372603059120279772e-15 0.1000417136115408501 
	3.532416620501933789e-16 0 
	0.0009308921389795867408 
	spline forward { ref 0 } I I I I 
	} 0 0 #
tvertex-vertex $-1 -1 $-1 $9 $25 1.577009702303690444e-11 #
tvertex-vertex $-1 -1 $-1 $9 $26 1.258246852617970592e-11 #
ellipse-curve $-1 -1 $-1 8713.661144543681075 1909.029077149930117 14000.00000000000364 -0.6597167261437636432 0.7515143652959366261 -2.818905048783249349e-12 1.118601744565239725e-09 -8.56277182492704035e-10 -489.9999999999990337 1 F -3.644824272394502032e-16 F 6.250766387756697462 #
tedge-edge $-1 -1 $-1 $21 3.401767497428332492e-15 $23 6.270005910518957393 $11 $27 forward @7 unknown 0.0008609630374548005085 #
pcurve $-1 -1 $-1 0 forward { exppc nubs 1 open 2 
	0 1 6.270005910518957393 1 
	1 0.1000417136115408362 
	1.39507872270334114e-15 0.1000417136115407113 
	8.161104725418366913e-08 
	spline forward { ref 0 } I I I I 
	} 0 0 #
tvertex-vertex $-1 -1 $-1 $12 $28 1.930011144019661593e-11 #
ellipse-curve $-1 -1 $-1 6714.957608289275413 220.9648315231580682 13510.12130255285047 -0.000354064009883362917 0.0004992879166944583572 -0.9999998126751089567 -1888.871968290587574 2382.538516953454746 1.858354623939317829 0.8655747831524603919 F 1.543857431115263967 F 1.659459055250456005 #
tvertex-vertex $-1 -1 $-1 $19 $29 1.909494701772928016e-11 #
ellipse-curve $-1 -1 $-1 6082.788899905189282 -400.4329988942912451 13510.00000000173168 3.954093168288954324e-13 2.977415693745555406e-13 1 2630.872244639610017 2309.462076043364959 -1.728255938360234888e-09 1 F -0.1000208620216453542 F -3.231873724918607911e-16 #
point $-1 -1 $-1 8713.661144544799754 1909.029077149073828 13510.00000000000364 #
point $-1 -1 $-1 8725.59706253092736 1919.507020221030871 13510.2574691015725 #
ellipse-curve $-1 -1 $-1 8931.12169064729278 1634.782999833954818 13999.99999999999818 0.5813607040647931212 -0.8136459498880874719 -1.327574254060567383e-11 5.254295614814586735 3.754263147155917135 -489.9574449743703326 1 F 3.401767497428332492e-15 F 6.270005910518957393 #
point $-1 -1 $-1 8936.375986262110018 1638.537262981110871 13510.04255502563137 #
point $-1 -1 $-1 8931.121690643683905 1634.782999839370632 13510 #
End-of-ACIS-data 