700 0 1 0           
4 LibG 19 ASM 222.0.0.1700 NT 24 Wed Oct  5 17:29:48 2016 
1000 9.999999999999999547e-07 1.000000000000000036e-10 
body $-1 -1 $-1 $1 $-1 $-1 #
lump $-1 -1 $-1 $-1 $2 $0 #
shell $-1 -1 $-1 $-1 $-1 $3 $-1 $1 #
face $-1 -1 $-1 $-1 $4 $2 $-1 $5 forward double out #
loop $-1 -1 $-1 $-1 $6 $3 #
spline-surface $-1 -1 $-1 forward { exactsur full nubs 3 3 open open none none 40 2 
	-1.191870092404998647e-07 3 0.02564102564102564014 1 0.05128205128205128027 1 0.07692307692307692735 1 0.1025641025641025605 1 
	0.1282051282051281937 1 0.1538461538461538269 1 0.1794871794871794601 1 0.2051282051282050933 1 0.2307692307692307265 1 
	0.2564102564102563875 1 0.2820512820512820484 1 0.3076923076923077094 1 0.3333333333333333703 1 0.3589743589743590313 1 
	0.3846153846153846922 1 0.4102564102564103532 1 0.4358974358974360142 1 0.4615384615384616751 1 0.4871794871794873361 1 
	0.512820512820512997 1 0.538461538461538658 1 0.5641025641025643189 1 0.5897435897435899799 1 0.6153846153846156408 1 
	0.6410256410256413018 1 0.6666666666666669627 1 0.6923076923076926237 1 0.7179487179487182846 1 0.7435897435897439456 1 
	0.7692307692307696065 1 0.7948717948717952675 1 0.8205128205128209284 1 0.8461538461538465894 1 0.8717948717948722503 1 
	0.8974358974358979113 1 0.9230769230769235723 1 0.9487179487179492332 1 0.9743589743589748942 1 1.000000000000000444 3 
	-1.191870092404998647e-07 3 0.1000418327985500844 3 
	3108.360430450878084 3095.643141730673051 13510.00000000014006 
	3109.669360813310504 3069.497340621550393 13509.99998045506072 
	3112.287198935829565 3017.20618988375918 13514.20473505409609 
	3116.113309641659725 2940.779870801285142 13532.96452861431681 
	3119.740678103622486 2868.323415455793565 13563.69603353163984 
	3123.076332738321071 2801.6939253388623 13605.61152371900062 
	3126.034767922945775 2742.599369851849588 13657.63655965522594 
	3128.540149019188448 2692.554541093231364 13718.43755906677325 
	3130.528254325008675 2652.842263494834697 13786.45598127088488 
	3131.948121823169458 2624.480500124022001 13859.94827798366532 
	3132.763355374419916 2608.196261557690377 13937.03058651526771 
	3132.953057714479201 2604.406969326821581 14015.72701971034257 
	3132.512366113370263 2613.209756154697516 14094.02031479506877 
	3131.452577026785093 2634.378976054118084 14169.90354282483531 
	3129.800856527994256 2667.371988431818863 14241.43155324009058 
	3127.59954394724582 2711.343067846738904 14306.77083482765011 
	3124.905066567742324 2765.16508289002968 14364.2465149780619 
	3121.786493198466815 2827.458388475545235 14412.38529248482155 
	3118.323763700857398 2896.626190932855934 14449.95320336879558 
	3114.605639852639342 2970.895479372197315 14475.98725165863107 
	3110.727430075335178 3048.362474108493643 14489.82009432056111 
	3106.788546348566797 3127.041427143567944 14491.09714757692745 
	3102.889955935897888 3204.9155237807704 14479.78567611940889 
	3099.131593243389489 3279.9885805869244 14456.17563222856188 
	3095.609798153833708 3350.33621450337796 14420.87222329033466 
	3092.414846501130796 3414.155171464204159 14374.78039822983192 
	3089.628635987270627 3469.809550057826527 14319.08165052887307 
	3087.322586859930198 3515.872735359138915 14255.20373244653456 
	3085.555811163596445 3551.163968022530298 14184.7840567724088 
	3084.373597492659428 3574.77861124260653 14109.62772425260846 
	3083.806250087487115 3586.111339736937225 14031.66125259131331 
	3083.868312031723235 3584.871656330561109 13952.88319311412852 
	3084.55819246185456 3571.091338421443652 13875.31290096014891 
	3085.858207349253007 3545.123623361616865 13800.93877199793678 
	3087.735032793168557 3507.634153958605566 13731.66727334329516 
	3090.140559265528282 3459.583914989340883 13669.27407396452691 
	3093.013124685003277 3402.204602624083691 13615.35852821353001 
	3096.279095553286879 3336.96704132893683 13571.30267848237418 
	3099.854752485063273 3265.543520524629002 13538.23582992536831 
	3103.6484435122984 3189.764782469273996 13517.00559772191446 
	3106.258085338263754 3137.637352236231436 13511.10599750287111 
	3107.566321845143193 3111.505410847856638 13510.25746935761345 
	3224.930066747118417 3101.478937151797254 13510.00000000014188 
	3225.368447725460555 3075.262661539195506 13509.99998041480831 
	3226.245202043525296 3022.830564384524223 13514.21339492344123 
	3227.526418466823543 2946.202379327638482 13533.01149165286188 
	3228.740669578854522 2873.562817769272442 13563.80463887917904 
	3229.856642262123387 2806.777492501535562 13605.80190529898391 
	3230.845554154900583 2747.561877201431798 13657.92453893472339 
	3231.681900431261056 2697.436977034701613 13718.83370557863782 
	3232.344110931498108 2657.690299087659241 13786.96487869124212 
	3232.815106653626117 2629.342770730949269 13860.56802651870748 
	3233.082740188815023 2613.122518817048331 13937.75256415661897 
	3233.140109026857772 2609.446166304620874 14016.53591589231655 
	3232.985733574720598 2618.408131261714061 14094.89444042314972 
	3232.623595317479612 2639.77820189639715 14170.81541085439676 
	3232.063034131915629 2673.00745022073761 14242.34871428832048 
	3231.318507402570503 2717.242332350189372 14307.65694301976691 
	3230.409217152609926 2771.34661326459991 14365.06259066996063 
	3229.358614806068545 2833.930552844143222 14413.09114095590849 
	3228.193796354253209 2903.38660348499161 14450.50894229942242 
	3226.94480352538676 2977.930702338292576 14476.35489541552306 
	3225.643848981050724 3055.64809751140001 14489.96513994583438 
	3224.324485522278337 3134.542531110033451 14490.99010603474744 
	3223.02074073223821 3212.587515776498549 14479.40349286692799 
	3221.766239373885128 3287.778387606859269 14455.5029435545639 
	3220.593336176696539 3358.183798390143238 14419.90239905654198 
	3219.532281378771586 3421.995324517464724 14373.51632754946877 
	3218.610440545676283 3477.573918288262576 14317.53623436256021 
	3217.851588787646051 3523.492008451862603 14253.40005587396627 
	3217.275297577923538 3558.570168581853977 14182.75522355163957 
	3216.896429986716612 3581.907411416813829 14107.41634691281979 
	3216.724757349179981 3592.904331032497794 14029.31860239536945 
	3216.764707253956658 3591.278498419608241 13950.46802543192643 
	3217.015249351515649 3577.071715055874392 13872.88998256110244 
	3217.46992192883954 3550.648938091983837 13798.57714715230395 
	3218.116998559625245 3512.688905111631357 13729.43831507737741 
	3218.93979055233649 3464.166698095291849 13667.2493750429785 
	3219.917077319371856 3406.328699017677991 13613.60769309582247 
	3221.023653852867483 3340.660563491524954 13569.891082553866 
	3222.230980122734763 3268.849098256924663 13537.22241490416127 
	3223.507919621435576 3192.73878616383945 13516.44077455874685 
	3224.38366199368329 3140.436231843441874 13510.86687230776079 
	3224.822002543360668 3114.230019035358055 13510.18583116160517 
	3341.791663949024041 3101.478937527739163 13510.00000000014006 
	3341.354623672505113 3075.235702377333837 13509.99998037455407 
	3340.480550666305135 3022.749687992602048 13514.22205479278637 
	3339.203046471574908 2946.046855490189955 13533.05845469140149 
	3337.991901228221195 2873.344839489948299 13563.9132442267146 
	3336.878157618831665 2806.51469083166694 13605.99228687896357 
	3335.890365457207281 2747.276559388275018 13658.21251821421174 
	3335.053845436576466 2697.155152962806824 13719.22985209049875 
	3334.390040717806642 2657.440532401026303 13787.47377611159573 
	3333.915967086336423 2629.154896265167281 13861.18777505375147 
	3333.643776820865696 2613.02627348167789 13938.47454179798115 
	3333.580447172532786 2609.469784079470173 14017.34481207429417 
	3333.727601515287006 2618.576954904202921 14095.76856605122703 
	3334.081467731890825 2640.11336408513489 14171.72727888395457 
	3334.632974907675816 2673.524675202872459 14243.26587533654674 
	3335.36798585194947 2717.950905746120952 14308.54305121188554 
	3336.267659487101355 2772.248562611904163 14365.87866636185572 
	3337.308933815847467 2835.020074882095287 14413.79698942699724 
	3338.465117086454029 2904.64976629090097 14451.06468123004743 
	3339.706572002113717 2979.345441469835805 14476.72253917241869 
	3341.001475435616157 3057.184515563965306 14490.11018557110765 
	3342.316634175060699 3136.163499871620843 14490.88306449256561 
	3343.6183357898949 3214.24956978028149 14479.02130961444163 
	3344.873212806498941 3289.432887676868177 14454.83025488056956 
	3346.049098041180059 3359.778334080940112 14418.93257482275476 
	3347.115849165271811 3423.475315484020939 14372.2522568691038 
	3348.046121365595809 3478.88436688565298 14315.9908181962528 
	3348.816068294127945 3524.579349521935455 14251.59637930139797 
	3349.405953338944073 3559.38415766217804 14180.72639033087216 
	3349.800655547215683 3582.402989684246222 14105.20496957303112 
	3349.990057231659193 3593.043404294853644 14026.97595219942377 
	3349.969303324475732 3591.031568460512062 13948.05285774972253 
	3349.738925830998596 3576.41930462631808 13870.4670641620578 
	3349.304830191386827 3549.582755770326912 13796.21552230666202 
	3348.678143905338857 3511.212703007619893 13727.20935681144874 
	3347.874931280051896 3462.296783767530997 13665.22467612143373 
	3346.915781688648622 3404.094072817678352 13611.85685797812039 
	3345.825281612858817 3338.102663419764212 13568.47948662535782 
	3344.631385051356119 3266.021146542027509 13536.20899988295241 
	3343.364694521509591 3189.704742789703687 13515.87595139558107 
	3342.493355294845514 3137.313647700801994 13510.62774711264683 
	3342.056546370317392 3111.07663616820173 13510.11419296559325 
	3458.361300320142618 3095.64314285287719 13510.00000000013824 
	3457.048341130835524 3069.416866182049944 13509.99998033429438 
	3454.422445630364109 3016.96476982989725 13514.2307146621315 
	3450.585179628151309 2940.315624408471194 13533.10541772994657 
	3446.948477989345974 2867.672739446582909 13564.02184957425197 
	3443.606124957899283 2800.909449278705779 13606.18266845894505 
	3440.64432496621248 2741.747681983697476 13658.50049749370555 
	3438.139465973830283 2691.713282216577682 13719.62599860235787 
	3436.156151315989973 2652.096697508188299 13787.98267353194387 
	3434.745532976495724 2623.919685496040529 13861.80752358879181 
	3433.943992460550817 2607.908964442955948 13939.19651943933059 
	3433.772202434985502 2604.477469559841666 14018.15370825626633 
	3434.234593566188778 2613.713703127284134 14096.64269167930433 
	3435.319240245295077 2635.379451863368104 14172.63914691351238 
	3436.998168164343952 2668.915930737825875 14244.18303638477482 
	3439.228075806229299 2713.458194688393633 14309.42915940400417 
	3441.951451241606719 2767.857446567881652 14366.69474205375082 
	3445.09805542885988 2830.710665967589193 14414.50283789808054 
	3448.586733761254436 2900.396794756682539 14451.6204201606688 
	3452.327509139284302 2975.118546069663353 14477.09018292930341 
	3456.223902585408723 3052.948758439294579 14490.25523119638274 
	3460.17542154989178 3131.880099547592181 14490.77602295038014 
	3464.080151731315254 3209.876837676930336 14478.63912636195528 
	3467.837385565769182 3284.927345614927617 14454.15756620656975 
	3471.350219592851772 3355.095982875923255 14417.9627505889639 
	3474.528053709391315 3418.573018135762595 14370.9881861887352 
	3477.288927852201141 3473.721304321908974 14314.44540202994176 
	3479.561635844079319 3519.11850255355148 14249.7927027288315 
	3481.287561884518254 3553.593765927011646 14178.69755711009748 
	3482.422192319815622 3576.257937028200104 14102.99359223323881 
	3482.936263702392353 3586.52648034460708 14024.63330200347445 
	3482.816517529168323 3584.134558116750213 13945.63769006751681 
	3482.066042194621787 3569.143860828785819 13868.04414576300769 
	3480.704193334741831 3541.941016083973409 13793.85389746102373 
	3478.766094632725071 3503.227617230255419 13724.98039854552189 
	3476.301731899921833 3454.002127684097104 13663.19997719988351 
	3473.374664025588572 3395.534132234106892 13610.10602286041467 
	3470.060383187313164 3329.331582347383119 13567.06789069684601 
	3466.444369802647088 3257.101943951994599 13535.1955848617381 
	3462.619880487203318 3180.708012039800906 13515.31112823241347 
	3459.99700714999517 3128.31628320746313 13510.3886219175256 
	3458.684168089098421 3102.092406094027865 13510.04255476957951 
	0 
	
	0 
	0 
	38 0.02564102564102564014 0.05128205128205128027 0.07692307692307692735 0.1025641025641025605 0.1282051282051281937 0.1538461538461538269 0.1794871794871794601 0.2051282051282050933 0.2307692307692307265 0.2564102564102563875 0.2820512820512820484 0.3076923076923077094 0.3333333333333333703 0.3589743589743590313 0.3846153846153846922 0.4102564102564103532 0.4358974358974360142 0.4615384615384616751 0.4871794871794873361 0.512820512820512997 0.538461538461538658 0.5641025641025643189 0.5897435897435899799 0.6153846153846156408 0.6410256410256413018 0.6666666666666669627 0.6923076923076926237 0.7179487179487182846 0.7435897435897439456 0.7692307692307696065 0.7948717948717952675 0.8205128205128209284 0.8461538461538465894 0.8717948717948722503 0.8974358974358979113 0.9230769230769235723 0.9487179487179492332 0.9743589743589748942 
	0 
	0 
	0 
	F 1 F 0 F 1 F 0 } I I I I #
tcoedge-coedge $-1 -1 $-1 $7 $8 $-1 $9 forward $4 $10 0 6.250766387756696574 #
coedge $-1 -1 $-1 $11 $6 $-1 $12 forward $4 $13 #
coedge $-1 -1 $-1 $6 $11 $-1 $14 forward $4 $15 #
tedge-edge $-1 -1 $-1 $16 0 $17 6.250766387756696574 $6 $18 forward @7 unknown 0.000850392749361029987 #
pcurve $-1 -1 $-1 0 forward { exppc nubs 1 open 2 
	0 1 6.250766387756696574 1 
	0 0 
	0.9999999999999988898 9.415283851280002078e-18 
	6.487536562802939323e-08 
	spline forward { ref 0 } I I I I 
	} 0 0 #
tcoedge-coedge $-1 -1 $-1 $8 $7 $-1 $19 forward $4 $20 2.684899366557484229e-18 6.270005910518959169 #
edge $-1 -1 $-1 $17 -1.597735222648986708 $21 -1.482133598406984776 $7 $22 forward @7 unknown #
pcurve $-1 -1 $-1 0 forward { exppc nubs 3 open 2 
	-1.597735222648986708 3 -1.482133598406984776 3 
	0.999999999999999889 2.30956160589409756e-17 
	0.9999999975120997808 0.03330815819589129367 
	1.000000000000000444 0.06667390754964064303 
	1 0.1000417136115408501 
	1.901307322303247321e-06 
	spline forward { ref 0 } I I I I 
	} 0 0 #
edge $-1 -1 $-1 $23 -0.1000208620216282152 $16 -1.548606159951664012e-16 $8 $24 forward @7 unknown #
pcurve $-1 -1 $-1 0 forward { exppc nubs 1 open 2 
	-0.1000208620216281735 1 -1.830985469789400279e-26 1 
	1.232070720930554907e-15 0.1000417136115408501 
	0 0 
	0.0009308921391565907685 
	spline forward { ref 0 } I I I I 
	} 0 0 #
tvertex-vertex $-1 -1 $-1 $9 $25 1.227373675443231999e-11 #
tvertex-vertex $-1 -1 $-1 $9 $26 1.366629035320263383e-11 #
ellipse-curve $-1 -1 $-1 3108.360865338468102 3095.642797989883547 14000.00000000000364 -0.9987492177719096142 -0.04999999999998691602 4.135800389120517127e-12 -2.037955937339574947e-09 1.732587406877428293e-10 -489.9999999999990337 1 F 0 F 6.250766387756696574 #
tedge-edge $-1 -1 $-1 $21 2.684899366557484229e-18 $23 6.270005910518959169 $11 $27 forward @7 unknown 0.0008609630349540467811 #
pcurve $-1 -1 $-1 0 forward { exppc nubs 1 open 2 
	0 1 6.270005910518959169 1 
	0.999999999999999889 0.1000417136115408223 
	1.085800478310346839e-15 0.1000417136115408501 
	6.737968592385102104e-08 
	spline forward { ref 0 } I I I I 
	} 0 0 #
tvertex-vertex $-1 -1 $-1 $12 $28 1.929733155328943861e-11 #
ellipse-curve $-1 -1 $-1 3189.234680086106437 480.7171539448692101 13510.1213025529396 -0.0006112077300546532371 3.278502056155238478e-05 -0.9999998126751089567 3040.448488397239998 -0.2639979774510947674 -1.858354622236574549 0.8655747823527896179 F -1.597735222648986708 F -1.482133598406984776 #
tvertex-vertex $-1 -1 $-1 $19 $29 1.265160992732730901e-11 #
ellipse-curve $-1 -1 $-1 3283.360865357278271 -400.7094222953238045 13510.00000000173168 1.237562433336898406e-14 4.948185666394936891e-13 1 -175.0000000208487165 3496.352220285380554 -1.728255938360234888e-09 1 F -0.1000208620216282152 F -1.548606159951664012e-16 #
point $-1 -1 $-1 3108.360865336429924 3095.642797990056806 13510.00000000000364 #
point $-1 -1 $-1 3107.566740929945354 3111.505420585887805 13510.2574691015725 #
ellipse-curve $-1 -1 $-1 3458.360865377145728 3095.642797989893097 13999.99999999999818 0.998749217771908393 -0.0500000000000126385 2.558029444257594898e-12 0.3228858719011271083 6.449640214746672484 -489.9574449743703326 1 F 2.684899366557484229e-18 F 6.270005910518959169 #
point $-1 -1 $-1 3458.683751249046963 3102.092438204640075 13510.04255502563137 #
point $-1 -1 $-1 3458.360865378408562 3095.642797990043164 13510 #
End-of-ACIS-data 