700 0 1 0           
4 LibG 19 ASM 222.0.0.1700 NT 24 Wed Oct  5 17:29:48 2016 
1000 9.999999999999999547e-07 1.000000000000000036e-10 
body $-1 -1 $-1 $1 $-1 $-1 #
lump $-1 -1 $-1 $-1 $2 $0 #
shell $-1 -1 $-1 $-1 $-1 $3 $-1 $1 #
face $-1 -1 $-1 $-1 $4 $2 $-1 $5 forward double out #
loop $-1 -1 $-1 $-1 $6 $3 #
spline-surface $-1 -1 $-1 forward { exactsur full nubs 3 3 open open none none 40 2 
	-1.191870090539211645e-07 3 0.02564102564102564014 1 0.05128205128205128027 1 0.07692307692307692735 1 0.1025641025641025605 1 
	0.1282051282051281937 1 0.1538461538461538269 1 0.1794871794871794601 1 0.2051282051282050933 1 0.2307692307692307265 1 
	0.2564102564102563875 1 0.2820512820512820484 1 0.3076923076923077094 1 0.3333333333333333703 1 0.3589743589743590313 1 
	0.3846153846153846922 1 0.4102564102564103532 1 0.4358974358974360142 1 0.4615384615384616751 1 0.4871794871794873361 1 
	0.512820512820512997 1 0.538461538461538658 1 0.5641025641025643189 1 0.5897435897435899799 1 0.6153846153846156408 1 
	0.6410256410256413018 1 0.6666666666666669627 1 0.6923076923076926237 1 0.7179487179487182846 1 0.7435897435897439456 1 
	0.7692307692307696065 1 0.7948717948717952675 1 0.8205128205128209284 1 0.8461538461538465894 1 0.8717948717948722503 1 
	0.8974358974358979113 1 0.9230769230769235723 1 0.9487179487179492332 1 0.9743589743589748942 1 1.000000000000000444 3 
	-1.191870091604681949e-07 3 0.1000418327985500427 3 
	9278.719625213852851 1028.194140189990094 14489.99999999986176 
	9302.61958534556652 1038.87628042657343 14490.00001954493928 
	9350.419092909271058 1060.240376442682646 14485.79526494590391 
	9420.280634785965958 1091.46514767067265 14467.03547138568501 
	9486.513311567025085 1121.067989588422506 14436.30396646836198 
	9547.419540859631525 1148.290163976981376 14394.38847628099938 
	9601.438062389959669 1172.433862091113951 14342.3634403447777 
	9647.184199872514 1192.880199791161886 14281.56244093322857 
	9683.485319405239352 1209.105065751462689 14213.54401872911694 
	9709.410897703583032 1220.692560524307964 14140.0517220163365 
	9724.296372081909794 1227.345656342087068 14062.96941348473956 
	9727.760176188243349 1228.893811276740962 13984.27298028965924 
	9719.713520690627774 1225.297340739248057 13905.97968520493305 
	9700.362669305197414 1216.64843475542034 13830.09645717516651 
	9670.203651527886905 1203.168794809604378 13758.56844675991306 
	9630.009547680047035 1185.203950867598905 13693.22916517235353 
	9580.810672175168293 1163.214404243711897 13635.75348502194174 
	9523.86816298400845 1137.763823353588577 13587.61470751518027 
	9460.6416542903753 1109.504594935935074 13550.04679663120805 
	9392.751860999949713 1079.161101115677866 13524.01274834137075 
	9321.939034191016617 1047.511150975460623 13510.17990567944435 
	9250.018352438140937 1015.366042608711382 13508.90285242307436 
	9178.833392483982607 983.5497667331321736 13520.21432388059475 
	9110.208871967499363 952.8778849481636826 13543.82436777144176 
	9045.903875576435894 924.1366240599959383 13579.12777670966898 
	8987.566763600201739 898.0627223591923212 13625.21960177016445 
	8936.692918733435363 875.3245444607316585 13680.91834947112875 
	8894.586414226409033 856.5049487987486145 13744.79626755347272 
	8862.32658596053443 842.0863469414605333 13815.21594322759483 
	8840.740365323084916 832.4383377081256867 13890.37227574739336 
	8830.381082084157242 827.8082330678298604 13968.3387474086885 
	8831.514280637327829 828.3147186767653238 14047.1168068858733 
	8844.110913161826829 833.9448115469547247 14124.68709903985473 
	8867.848084268242019 844.5541928673037546 14199.06122800206504 
	8902.117327744526847 859.8709073135999006 14268.33272665670665 
	8946.040204343020378 879.5023345140423316 14330.72592603547855 
	8998.490816668539992 902.9452521284703153 14384.64147178647181 
	9058.124679388476579 929.5987394528392542 14428.69732151762764 
	9123.413147413039042 958.7795651708114519 14461.76417007463715 
	9192.682733408726563 989.7397604036995062 14482.99440227808918 
	9240.332583537192477 1011.036966696901345 14488.89400249713071 
	9264.219874453992816 1021.713444399754962 14489.74253064238655 
	9326.34536779624068 921.6374639190414655 14489.99999999985994 
	9349.913628196971331 933.1275634208418523 14490.00001958519351 
	9397.049740771251891 956.1075634546972424 14485.78660507655695 
	9465.937915715767303 989.6923756984807596 14466.98850834713994 
	9531.240222435986652 1021.529288962368241 14436.19536112082278 
	9591.279434258776746 1050.800744509469723 14394.19809470101791 
	9644.513307736095157 1076.754968764917521 14342.07546106527843 
	9689.574436982518819 1098.725397137074651 14281.166294421364 
	9725.305343036308841 1116.147775939852636 14213.03512130875788 
	9750.788215534215851 1128.574658499860334 14139.43197348129252 
	9765.368485938228332 1135.686895476047312 14062.24743584338285 
	9768.671641998660562 1137.301831703780863 13983.46408410768527 
	9760.612847463198705 1133.377997060523739 13905.10555957685392 
	9741.399121025982822 1124.01617141353745 13829.18458914560506 
	9711.524018260306548 1109.456796159650366 13757.65128571168134 
	9671.754953229112289 1090.073798878478556 13692.34305698023491 
	9623.113485435926123 1066.364989693949155 13634.93740933004119 
	9566.849078507604645 1038.939276000572136 13586.90885904409151 
	9504.407004687234803 1008.501023920976309 13549.49105770058304 
	9437.391219595510847 975.8319681421920677 13523.64510458447876 
	9367.523160918299254 941.7711347422754216 13510.03486005416744 
	9296.597529380369451 907.1932926503833414 13509.00989396525438 
	9226.436187880850412 872.986487171736826 13520.59650713307383 
	9158.841363003177321 840.0292325830397431 13544.49705644543792 
	9095.549351030273101 809.1679495589177122 13580.09760094345984 
	9038.185917633452846 781.1952269007542782 13626.48367245053305 
	8988.224536894673292 756.8294658673770527 13682.46376563744161 
	8946.948542383806853 736.6964298965611988 13746.59994412603555 
	8915.418162519034013 721.3131735687597939 13817.24477644836224 
	8894.443286971541966 711.0747635575939967 13892.58365308718203 
	8884.56266365573174 706.244132603008552 13970.68139760463055 
	8886.030060665785641 706.9453270802534917 14049.53197456807538 
	8898.807748579596591 713.160321566485095 14127.11001743889938 
	8922.567470607928044 724.7294822435877677 14201.42285284770151 
	8956.69887535135058 741.3556670818533121 14270.56168492262805 
	9000.325196617050096 762.6118580205405806 14332.7506249570215 
	9052.325773422624479 787.9521271314690694 14386.39230690417935 
	9111.364846892227433 816.725662523503388 14430.10891744613582 
	9175.925837548409618 848.1934660908723345 14462.77758509583873 
	9244.350434311181743 881.5473974819719842 14483.55922544125133 
	9291.370611807364185 904.4695924328958654 14489.13312769224467 
	9314.929883747445274 915.9551676397968549 14489.81416883839483 
	9379.305540874345752 817.4652364871689088 14489.99999999986176 
	9402.501103764423533 829.7479176918201347 14490.00001962545139 
	9448.891826554101499 854.3130667584503044 14485.77794520721363 
	9516.686964093294591 890.2125912246955295 14466.94154530859669 
	9580.945785218731544 924.2398436978103291 14436.08675577328722 
	9640.014474544726909 955.5192160672246473 14394.00771312104007 
	9692.37260239506395 983.2457087820803281 14341.78748178579008 
	9736.672495768239969 1006.705772612703868 14280.77014790950489 
	9771.773892325916677 1025.295653805753091 14212.52622388840973 
	9796.773299864387809 1038.536936981620784 14138.81222494625035 
	9811.0272494444107 1046.088856062429841 14061.52545820202067 
	9814.168858680395715 1047.757064358993603 13982.65518792570583 
	9806.117274824951892 1043.498635981037523 13904.23143394877661 
	9787.079755668393773 1033.423170429921811 13828.27272111604725 
	9757.546334409138581 1017.789971797058683 13756.73412466345508 
	9718.277205907286771 997.0013752096327835 13691.45694878811628 
	9670.283158988979267 971.592392267224227 13634.1213336381461 
	9614.799558490736672 942.2169419614725712 13586.20301057300458 
	9553.254546756461423 909.6310214425013783 13548.93531876995439 
	9487.232283093208025 874.6732497525856616 13523.27746082758495 
	9418.432167413839124 838.243285255773003 13509.88981442889417 
	9348.625097661250038 801.2786722138955611 13509.11693550743621 
	9279.607886957774099 764.730712385929678 13520.97869038556018 
	9213.157013790529163 729.5399826183202094 13545.16974511943226 
	9150.982895708604701 696.6121285034848825 13581.06742517724706 
	9094.685863530392453 666.7945570773810005 13627.74774313089983 
	9045.714969285154439 640.8546283878703207 13684.00918180374902 
	9005.33068816935338 619.4599071893377413 13748.40362069860385 
	8974.572474563043215 603.1609829980367294 13819.27360966913147 
	8954.232007204944239 592.3773006423886045 13894.7950304269707 
	8944.832812180915425 587.3863659619851205 13973.02404780057805 
	8946.616788219378577 588.3166044492601259 14051.9471422502811 
	8959.537981092746122 595.1440566005981054 14129.53293583794584 
	8983.263767427828498 607.6929950539635001 14203.78447769333798 
	9017.183417141321115 625.640447464490876 14272.79064318855308 
	9060.423815157875651 648.5245092760255829 14334.77532387856809 
	9111.871933680728034 675.7562303070073995 14388.14314202188143 
	9170.203491585141819 706.6347771831551654 14431.52051337464036 
	9233.917007118760012 740.3654516908318328 14463.79100011705304 
	9301.37257673352542 776.0802121482885241 14484.12404860442075 
	9347.679925915004787 800.5999080772104435 14489.37225288735681 
	9370.870045822084649 812.8795625875599171 14489.88580703440493 
	9437.335518629446597 716.1979747244224654 14489.99999999986539 
	9460.119009279722377 729.2537781710226454 14490.00001966571108 
	9505.685593580881687 755.3651575685247508 14485.7692853378685 
	9572.272822487964731 793.5221628320722402 14466.89458227005525 
	9635.3797023211755 829.6847962001281758 14435.97815042575166 
	9693.378815821477474 862.9204859177526714 14393.81733154105859 
	9744.774276524412926 892.3720323591968508 14341.49950250629627 
	9788.240541049657622 917.2798489405220153 14280.37400139764213 
	9822.656561997979225 937.0015330236318505 14212.01732646805613 
	9847.134710298971186 951.028439517462175 14138.19247641121001 
	9861.043665733090165 958.9987980144371704 14060.80348056066941 
	9864.024700081468836 960.7070436523613353 13981.84629174373549 
	9856.000928969440793 956.1091187712546571 13903.3573083206993 
	9837.179294852043313 945.3236092392686487 13827.36085308648762 
	9808.045229713117806 928.6286859769375042 13755.81696361522518 
	9769.350135209340806 906.45493060540025 13690.57084059599583 
	9722.092003140704037 879.3742302416010261 13633.305257946251 
	9667.489676073593728 848.0850278600275942 13585.49716210192128 
	9606.951411963596911 813.3943086304497001 13548.3795798393312 
	9542.038563533786146 776.1967868254112091 13522.90981707069477 
	9474.425309159592871 737.4518300914146494 13509.74476880361908 
	9405.855473848005204 698.1587162338611279 13509.22397704962168 
	9338.097553948584391 659.3308606722938521 13521.36087363804654 
	9272.899105561662509 621.9696792699833168 13545.84243379343025 
	9211.941673020088274 587.0387606461306405 13582.03724941103792 
	9156.797419891745449 555.4390140970076573 13629.01181381126662 
	9108.88858104011706 527.9854340902028298 13685.55459797006006 
	9069.450781521669342 505.3860806029483683 13750.20729727117032 
	9039.501168368655271 488.2238174260947972 13821.3024428899007 
	9019.812177176298064 476.9412794245712348 13897.006407766763 
	9010.891610083306659 471.8294564653076009 13975.36669799652736 
	9012.969538963512605 473.020188449817681 14054.362309932485 
	9025.992371590051334 480.4827650014071878 14131.95585423699413 
	9049.624233889198877 494.0247175490119389 14206.1461025389799 
	9083.255632348640574 513.2967832153639165 14275.01960145447811 
	9126.019174230963472 537.8019130949787723 14336.80002280011831 
	9176.811936177115058 566.908090311545152 14389.89397713958897 
	9234.323919113163356 599.8646357576748187 14432.93210930315399 
	9297.071800244337282 635.821549266415218 14464.8044151382619 
	9363.437318129517735 673.8515057134170547 14484.68887176759017 
	9408.951459499467092 699.9328333241885503 14489.61137808247258 
	9431.732865587986453 712.9874422379136831 14489.95744523042231 
	0 
	
	0 
	0 
	38 0.02564102564102564014 0.05128205128205128027 0.07692307692307692735 0.1025641025641025605 0.1282051282051281937 0.1538461538461538269 0.1794871794871794601 0.2051282051282050933 0.2307692307692307265 0.2564102564102563875 0.2820512820512820484 0.3076923076923077094 0.3333333333333333703 0.3589743589743590313 0.3846153846153846922 0.4102564102564103532 0.4358974358974360142 0.4615384615384616751 0.4871794871794873361 0.512820512820512997 0.538461538461538658 0.5641025641025643189 0.5897435897435899799 0.6153846153846156408 0.6410256410256413018 0.6666666666666669627 0.6923076923076926237 0.7179487179487182846 0.7435897435897439456 0.7692307692307696065 0.7948717948717952675 0.8205128205128209284 0.8461538461538465894 0.8717948717948722503 0.8974358974358979113 0.9230769230769235723 0.9487179487179492332 0.9743589743589748942 
	0 
	0 
	0 
	F 1 F 0 F 1 F 0 } I I I I #
tcoedge-coedge $-1 -1 $-1 $7 $8 $-1 $9 forward $4 $10 1.12720262412971768e-16 6.250766387756699238 #
coedge $-1 -1 $-1 $11 $6 $-1 $12 forward $4 $13 #
coedge $-1 -1 $-1 $6 $11 $-1 $14 forward $4 $15 #
tedge-edge $-1 -1 $-1 $16 1.12720262412971768e-16 $17 6.250766387756699238 $6 $18 forward @7 unknown 0.000850392751350173429 #
pcurve $-1 -1 $-1 0 forward { exppc nubs 1 open 2 
	0 1 6.250766387756699238 1 
	0 0 
	0.9999999999999993339 1.841987391866744922e-16 
	6.405711865131479505e-08 
	spline forward { ref 0 } I I I I 
	} 0 0 #
tcoedge-coedge $-1 -1 $-1 $8 $7 $-1 $19 forward $4 $20 0 6.270005910518960057 #
edge $-1 -1 $-1 $17 -1.597735222540356714 $21 -1.482133598319793411 $7 $22 forward @7 unknown #
pcurve $-1 -1 $-1 0 forward { exppc nubs 3 open 2 
	-1.597735222540356714 3 -1.482133598319793411 3 
	1.000000000000000444 7.029603457308753639e-17 
	0.9999999975121027784 0.033308158195933045 
	1.000000000000000444 0.06667390754965527022 
	1.000000000000000444 0.1000417136115408501 
	2.007763532626174534e-06 
	spline forward { ref 0 } I I I I 
	} 0 0 #
edge $-1 -1 $-1 $23 -0.1000208620216525846 $16 -3.670386069011094371e-26 $8 $24 forward @7 unknown #
pcurve $-1 -1 $-1 0 forward { exppc nubs 1 open 2 
	-0.1000208620216528205 1 -3.670386069011094371e-26 1 
	1.224099935313877424e-15 0.1000417136115408362 
	1.462161108207365042e-16 3.966907910956721814e-17 
	0.0009308921396905584953 
	spline forward { ref 0 } I I I I 
	} 0 0 #
tvertex-vertex $-1 -1 $-1 $9 $25 1.364507730907493985e-11 #
tvertex-vertex $-1 -1 $-1 $9 $26 1.308634115765431218e-11 #
ellipse-curve $-1 -1 $-1 9278.720128715336614 1028.193908302989485 13999.99999999999818 -0.4080495350757633033 0.9129597893250575025 -5.055533343017167332e-12 -1.262623072761925827e-09 2.148949818092660197e-09 489.9999999999990337 1 F 1.12720262412971768e-16 F 6.250766387756699238 #
tedge-edge $-1 -1 $-1 $21 -2.330492650171895992e-15 $23 6.270005910518960057 $11 $27 forward @7 unknown 0.0008609630352542656153 #
pcurve $-1 -1 $-1 0 forward { exppc nubs 1 open 2 
	0 1 6.270005910518960057 1 
	1 0.1000417136115408501 
	1.035265578438619409e-15 0.1000417136115408084 
	6.729911980178265474e-08 
	spline forward { ref 0 } I I I I 
	} 0 0 #
tvertex-vertex $-1 -1 $-1 $12 $28 1.986130928240592604e-11 #
ellipse-curve $-1 -1 $-1 11646.35608816791682 2141.152427919048478 14489.87869744704767 -0.0003062165574040374744 0.0005299822325544504371 0.9999998126751089567 1378.127497094477576 -2710.182961624662312 1.858354622573062054 0.8655747825123603079 F -1.597735222540356714 F -1.482133598319793411 #
tvertex-vertex $-1 -1 $-1 $19 $29 1.364507730907493985e-11 #
ellipse-curve $-1 -1 $-1 12474.73008723668136 2456.698088670065772 14490.00000000346154 8.877862535617552555e-13 4.374590033689904785e-13 -1 -3196.009958522607576 -1428.504180364927379 -3.463009079496259884e-09 1 F -0.1000208620216525846 F -3.670386069011094371e-26 #
point $-1 -1 $-1 9278.720128714074235 1028.193908305138393 14489.99999999999818 #
point $-1 -1 $-1 9264.220055697207499 1021.713066407958536 14489.74253089842932 #
ellipse-curve $-1 -1 $-1 9437.335628935017667 716.1985187268227264 14000.00000000000364 0.4971910749450089706 -0.8676410749814847945 -2.661632155909132594e-12 -5.602980877479033062 -3.210719463383718164 489.9574449743703326 1 F -2.330492650171895992e-15 F 6.270005910518960057 #
point $-1 -1 $-1 9431.732648057539336 712.9877992634387738 14489.95744497437045 #
point $-1 -1 $-1 9437.335628935481509 716.1985187255852452 14490.00000000000182 #
End-of-ACIS-data 