700 0 1 0           
4 LibG 19 ASM 222.0.0.1700 NT 24 Wed Oct  5 17:29:48 2016 
1000 9.999999999999999547e-07 1.000000000000000036e-10 
body $-1 -1 $-1 $1 $-1 $-1 #
lump $-1 -1 $-1 $-1 $2 $0 #
shell $-1 -1 $-1 $-1 $-1 $3 $-1 $1 #
face $-1 -1 $-1 $-1 $4 $2 $-1 $5 forward double out #
loop $-1 -1 $-1 $-1 $6 $3 #
spline-surface $-1 -1 $-1 forward { exactsur full nubs 3 3 open open none none 40 2 
	-1.191870091810548542e-07 3 0.02564102564102564014 1 0.05128205128205128027 1 0.07692307692307692735 1 0.1025641025641025605 1 
	0.1282051282051281937 1 0.1538461538461538269 1 0.1794871794871794601 1 0.2051282051282050933 1 0.2307692307692307265 1 
	0.2564102564102563875 1 0.2820512820512820484 1 0.3076923076923077094 1 0.3333333333333333703 1 0.3589743589743590313 1 
	0.3846153846153846922 1 0.4102564102564103532 1 0.4358974358974360142 1 0.4615384615384616751 1 0.4871794871794873361 1 
	0.512820512820512997 1 0.538461538461538658 1 0.5641025641025643189 1 0.5897435897435899799 1 0.6153846153846156408 1 
	0.6410256410256413018 1 0.6666666666666669627 1 0.6923076923076926237 1 0.7179487179487182846 1 0.7435897435897439456 1 
	0.7692307692307696065 1 0.7948717948717952675 1 0.8205128205128209284 1 0.8461538461538465894 1 0.8717948717948722503 1 
	0.8974358974358979113 1 0.9230769230769235723 1 0.9487179487179492332 1 0.9743589743589748942 1 1.000000000000000444 3 
	-1.191870091810548542e-07 3 0.1000418327985500289 3 
	8469.897539438139574 2160.185620513974754 13510.00000000014006 
	8452.04723915177965 2141.036652029533798 13509.99998045506254 
	8416.346946814459443 2102.739045721201819 13514.20473505409063 
	8364.169056387243472 2046.765041735468003 13532.96452861431681 
	8314.701477245012939 1993.698533116573799 13563.69603353163984 
	8269.2120924848914 1944.899645637146705 13605.61152371900062 
	8228.866969521175633 1901.6192819603923 13657.6365596552223 
	8194.700289472146324 1864.966863290622769 13718.43755906677143 
	8167.587864145101776 1835.881919631669462 13786.45598127088488 
	8148.224678802002018 1815.109998714646053 13859.94827798366168 
	8137.107079187033378 1803.183557073086604 13937.03058651526408 
	8134.520047949722539 1800.408310783847583 14015.72701971034257 
	8140.529899687620855 1806.855399050096139 14094.02031479506695 
	8154.982581036170814 1822.359560617088846 14169.90354282483167 
	8177.507619601089573 1846.523370002408228 14241.43155324008876 
	8207.527620449252936 1878.727424887898678 14306.77083482764647 
	8244.273066745970937 1918.146223552036417 14364.24651497805826 
	8286.802045142567295 1963.769325344567051 14412.38529248481791 
	8334.024390285401751 2014.427251788099738 14449.95320336879013 
	8384.729629538300287 2068.821464371270395 14475.98725165863107 
	8437.618011598338853 2125.557650598593682 14489.82009432055929 
	8491.333823633744032 2183.181465060023584 14491.09714757692745 
	8544.500142910088471 2240.215809352494944 14479.78567611940707 
	8595.754132099866183 2295.19869523967327 14456.17563222855642 
	8643.781973534250938 2346.720720485677703 14420.87222329033284 
	8687.352546910782621 2393.46119672705845 14374.78039822983192 
	8725.348987180515905 2434.222003300264987 14319.08165052887307 
	8756.797313676350313 2467.958299233459456 14255.2037324465291 
	8780.891396618702856 2493.805306147797637 14184.78405677240698 
	8797.013621020030769 2511.100475529116466 14109.627724252603 
	8804.750718301669622 2519.400472147118307 14031.66125259130968 
	8803.904359799533268 2518.492538273517312 13952.88319311412306 
	8794.496240626111103 2508.399947411759513 13875.31290096014527 
	8776.767523512644402 2489.381407676896742 13800.93877199793315 
	8751.172657108389103 2461.924430355737968 13731.66727334329335 
	8718.367726371969184 2426.732832750746638 13669.27407396452145 
	8679.193636747786513 2384.708698949856625 13615.35852821352637 
	8634.654551706629718 2336.92924862707514 13571.30267848237418 
	8585.892179173270051 2284.619252722900001 13538.23582992536467 
	8534.156406229680215 2229.119531725385514 13517.00559772191264 
	8498.567889399282649 2190.941832960623742 13511.10599750286929 
	8480.727051442117954 2171.803015221025817 13510.25746935761345 
	8555.272177209493748 2080.601025020590441 13510.00000000014188 
	8536.764996062720456 2062.027669618874825 13509.99998041481012 
	8499.75095428493114 2024.881280542098921 13514.21339492344487 
	8445.655771541127251 1970.592870503211998 13533.01149165286188 
	8394.376140194492109 1919.130459773553639 13563.80463887918086 
	8347.228994058130411 1871.8158565590752 13605.80190529898573 
	8305.42529142409694 1829.86448604287898 13657.92453893472339 
	8270.038724904250557 1794.353980530355557 13718.83370557863782 
	8241.978171928903976 1766.196525082637663 13786.96487869124758 
	8221.964343321655178 1746.115417907370784 13860.5680265187093 
	8210.511274300650257 1734.626492376250781 13937.75256415662079 
	8207.913121357401906 1732.024865911381767 14016.53591589232019 
	8214.236607328142782 1738.377359347053016 14094.89444042314972 
	8229.319307841422415 1753.520780634049288 14170.81541085439676 
	8252.773823377923691 1777.06611719973489 14242.34871428832048 
	8283.99772971605671 1808.408529200804196 14307.65694301976873 
	8322.189051198209199 1846.742886968619814 14365.06259066996063 
	8366.36685937902439 1891.084453505284046 14413.09114095591212 
	8415.396467978776855 1940.294180726685227 14450.50894229942242 
	8468.018577008720968 1993.107969628621731 14476.35489541552488 
	8522.881617502964218 2048.169142726791506 14489.96513994583438 
	8578.576466085512948 2104.063294604713519 14490.99010603474744 
	8633.672637733849115 2159.354625315444991 14479.40349286692799 
	8686.755027134835473 2212.6228232927524 14455.50294355456572 
	8736.460254940257073 2262.499550313320924 14419.90239905654562 
	8781.511685379244227 2307.70359127630536 14373.51632754947241 
	8820.752215813043222 2347.073765867424299 14317.53623436256021 
	8853.173996046878528 2379.598756670373405 14253.40005587396809 
	8877.944314074522481 2404.443087502034359 14182.75522355164139 
	8894.426983397248478 2420.968584643945178 14107.41634691282343 
	8902.198682603344423 2428.750769682753344 14029.31860239537309 
	8901.05982754069737 2427.589762866964065 13950.46802543192825 
	8891.039696866282611 2417.515416925197769 13872.88998256110426 
	8872.395679280311015 2398.786549423663473 13798.57714715230395 
	8845.606662027785205 2371.884293632009758 13729.43831507737741 
	8811.360729643800369 2337.499737861268386 13667.24937504298214 
	8770.53749211507602 2296.516174028918158 13613.60769309582247 
	8724.185484432513476 2249.986399487216204 13569.89108255386782 
	8673.495262598602494 2199.105699941214425 13537.22241490416491 
	8619.768720824980846 2145.181040550192847 13516.44077455875049 
	8582.846932714410286 2108.125599979895014 13510.86687230776079 
	8564.346944363676812 2089.559282003442149 13510.18583116160698 
	8636.662456505466253 1996.74248140872146 13510.00000000014006 
	8617.526227240728986 1978.778541838294586 13509.99998037455407 
	8579.254101127524336 1942.850974812549111 13514.22205479278819 
	8523.323287036268084 1890.346683883611604 13533.05845469141059 
	8470.30962988885949 1840.581212327957473 13563.91324422672005 
	8421.577394553765771 1794.835409965769941 13605.99228687896539 
	8378.38082489217777 1754.286817885019673 13658.2125182142172 
	8341.831668797280145 1719.979175346332568 13719.22985209050239 
	8312.870593618410567 1692.795580154474465 13787.47377611159573 
	8292.242968275639214 1673.435749831443445 13861.1877750537551 
	8280.479681653845546 1662.398012369159687 13938.47454179798297 
	8277.88347855903703 1659.966478490539203 14017.34481207429963 
	8284.521168234352444 1666.203728734493097 14095.76856605123066 
	8300.221905073663947 1680.949202765888231 14171.72727888395821 
	8324.581586015281573 1703.823332589634447 14243.26587533654856 
	8356.973251366696786 1734.237313209275953 14308.54305121188918 
	8396.563221378166418 1771.408259232414821 14365.87866636186118 
	8442.332553237003594 1814.379357264815553 14413.79698942700088 
	8493.10326622552202 1862.04449534368905 14451.06468123004925 
	8547.568660063632706 1913.176735415918756 14476.72253917242051 
	8604.326946109607889 1966.459895943955871 14490.11018557111311 
	8661.917325828650064 2020.522431665063095 14490.88306449257107 
	8718.857587953460097 2073.972738399749232 14479.02130961444345 
	8773.682256675527242 2125.434974124420933 14454.83025488057319 
	8824.98030902532264 2173.584474235952257 14418.9325748227584 
	8871.431490690036298 2217.18184938374543 14372.25225686910562 
	8911.840295592466646 2255.104888159040001 14315.99081819625644 
	8945.166734686332347 2286.377443438801947 14251.59637930140343 
	8970.553102063375263 2310.194558827594847 14180.72639033087398 
	8987.346049489182406 2325.943188426627785 14105.20496957303294 
	8995.11340123806076 2333.217976594877655 14026.97595219942559 
	8993.655276465187853 2331.831691524717826 13948.05285774972617 
	8983.009232888018232 2321.820044092723492 13870.46706416206143 
	8963.449299345933468 2303.440767900401625 13796.21552230666566 
	8935.478922395894188 2277.166984427388797 13727.20935681145056 
	8899.818007611318535 2243.675023267263896 13665.22467612143737 
	8857.384392451487656 2203.82701410346408 13611.85685797812403 
	8809.27021516521927 2158.64868690109779 13568.4794866253651 
	8756.713834224845414 2109.302995226490566 13536.20899988295241 
	8701.067848343136575 2057.060079516907081 13515.87595139558471 
	8662.86573921762465 2021.196658946292246 13510.62774711264865 
	8643.734137078841741 2003.236887906504762 13510.1141929655987 
	8713.661694937078209 1909.029005225561377 13510.00000000013642 
	8693.927586018240618 1891.705426062269225 13509.9999803342962 
	8654.459712044868866 1857.058569596826601 13514.2307146621406 
	8596.784632838332982 1806.428525722395761 13533.10541772994657 
	8542.124086775713295 1758.444788492665111 13564.02184957425561 
	8491.887674779854933 1714.344775481223223 13606.18266845894686 
	8447.371071287700033 1675.265893944238314 13658.50049749370919 
	8409.722406664579466 1642.216029637051633 13719.62599860236332 
	8379.912685389979742 1616.047578431068359 13787.98267353194933 
	8358.710734726750161 1597.435455013620867 13861.80752358879909 
	8346.663377906092137 1586.859687926824563 13939.19651943933786 
	8344.081330342585716 1584.593038565871211 14018.15370825626997 
	8351.031186073445497 1590.693966478151196 14096.64269167930797 
	8367.333700179147854 1605.005121586912765 14172.63914691351965 
	8392.568411730830121 1627.157402443690216 14244.18303638477846 
	8426.084487967076711 1656.579475784288206 14309.42915940400962 
	8467.017510033736471 1692.512511883401885 14366.69474205375445 
	8514.311767358238285 1734.029755661655372 14414.50283789808418 
	8566.747485661557221 1780.060428784389842 14451.62042016067244 
	8622.972286365244145 1829.417346288814997 14477.09018292930887 
	8681.53606601861793 1880.827535474420301 14490.25523119638638 
	8740.928396164898004 1932.965067359585646 14490.77602295038196 
	8799.617479059796096 1984.485253942732243 14478.63912636195892 
	8856.089654529150721 2034.059329280520842 14454.15756620657521 
	8908.888439037333228 2080.40871991755921 14417.96275058896754 
	8956.652090103219962 2122.338020793053147 14370.98818618873702 
	8998.148727233392492 2158.765826137162094 14314.44540202994722 
	9032.308103562625547 2188.752620192165523 14249.79270272883514 
	9058.249208773888313 2211.525008424073349 14178.69755711010293 
	9075.302991385873611 2226.495664273162674 14102.99359223324245 
	9083.029614374989251 2233.278476994398716 14024.63330200347991 
	9081.229799084301703 2231.698509903118975 13945.63769006751863 
	9069.949964864481444 2221.796512206672105 13868.04414576301315 
	9049.481031823228477 2203.827867998487363 13793.85389746102919 
	9020.350917808695158 2178.256009738163357 13724.98039854552917 
	8983.310922216496692 2145.740465282197874 13663.19997719988714 
	8939.316351238761854 2107.119849767089363 13610.10602286041649 
	8889.501871411250249 2063.390229731080581 13567.06789069685146 
	8835.152275044461931 2015.679459560249143 13535.19558486174537 
	8777.669232673802981 1965.217995140931407 13515.3111282324171 
	8738.246782579168212 1930.61101400821417 13510.38862191753651 
	8718.514479220741123 1913.289019855365723 13510.04255476958679 
	0 
	
	0 
	0 
	38 0.02564102564102564014 0.05128205128205128027 0.07692307692307692735 0.1025641025641025605 0.1282051282051281937 0.1538461538461538269 0.1794871794871794601 0.2051282051282050933 0.2307692307692307265 0.2564102564102563875 0.2820512820512820484 0.3076923076923077094 0.3333333333333333703 0.3589743589743590313 0.3846153846153846922 0.4102564102564103532 0.4358974358974360142 0.4615384615384616751 0.4871794871794873361 0.512820512820512997 0.538461538461538658 0.5641025641025643189 0.5897435897435899799 0.6153846153846156408 0.6410256410256413018 0.6666666666666669627 0.6923076923076926237 0.7179487179487182846 0.7435897435897439456 0.7692307692307696065 0.7948717948717952675 0.8205128205128209284 0.8461538461538465894 0.8717948717948722503 0.8974358974358979113 0.9230769230769235723 0.9487179487179492332 0.9743589743589748942 
	0 
	0 
	0 
	F 1 F 0 F 1 F 0 } I I I I #
tcoedge-coedge $-1 -1 $-1 $7 $8 $-1 $9 forward $4 $10 0 6.250766387756697462 #
coedge $-1 -1 $-1 $11 $6 $-1 $12 forward $4 $13 #
coedge $-1 -1 $-1 $6 $11 $-1 $14 forward $4 $15 #
tedge-edge $-1 -1 $-1 $16 -1.562817119153614755e-28 $17 6.250766387756697462 $6 $18 forward @7 unknown 0.0008503927470309528835 #
pcurve $-1 -1 $-1 0 forward { exppc nubs 1 open 2 
	0 1 6.250766387756697462 1 
	0 0 
	0.9999999999999990008 1.767678650246259209e-17 
	7.203710868194140152e-08 
	spline forward { ref 0 } I I I I 
	} 0 0 #
tcoedge-coedge $-1 -1 $-1 $8 $7 $-1 $19 forward $4 $20 3.651463138518178336e-16 6.270005910518960057 #
edge $-1 -1 $-1 $17 1.543857431178317308 $21 1.659459055336371502 $7 $22 forward @7 unknown #
pcurve $-1 -1 $-1 0 forward { exppc nubs 3 open 2 
	1.543857431178317308 3 1.659459055336371502 3 
	1 1.202814172958794011e-16 
	0.9999999975121025564 0.03330815819596384675 
	1.000000000000000444 0.06667390754960555999 
	0.9999999999999996669 0.1000417136115407946 
	2.117514608931346289e-06 
	spline forward { ref 0 } I I I I 
	} 0 0 #
edge $-1 -1 $-1 $23 -0.1000208620216410244 $16 -1.83098546978949154e-26 $8 $24 forward @7 unknown #
pcurve $-1 -1 $-1 0 forward { exppc nubs 1 open 2 
	-0.1000208620216408301 1 -1.83098546978949154e-26 1 
	0 0.1000417136115408501 
	5.682631849450170918e-17 0 
	0.0009308921398221966853 
	spline forward { ref 0 } I I I I 
	} 0 0 #
tvertex-vertex $-1 -1 $-1 $9 $25 1.187497136067470826e-11 #
tvertex-vertex $-1 -1 $-1 $9 $26 1.291180378436949795e-11 #
ellipse-curve $-1 -1 $-1 8469.897595655800615 2160.185069042079704 14000.00000000000364 -0.7314755809614017501 0.6818676370507547047 -3.862824794665659892e-12 1.5723230717412663e-09 -1.089364332074182998e-09 -489.9999999999990337 1 F -1.562817119153614755e-28 F 6.250766387756697462 #
tedge-edge $-1 -1 $-1 $21 3.651463138518178336e-16 $23 6.270005910518960945 $11 $27 forward @7 unknown 0.0008609630396344472711 #
pcurve $-1 -1 $-1 0 forward { exppc nubs 1 open 2 
	0 1 6.270005910518960057 1 
	1 0.1000417136115408501 
	7.863153037456259468e-16 0.1000417136115408501 
	8.572970265705624706e-08 
	spline forward { ref 0 } I I I I 
	} 0 0 #
tvertex-vertex $-1 -1 $-1 $12 $28 1.366629035320263383e-11 #
ellipse-curve $-1 -1 $-1 6649.782862280870177 280.9407860664042573 13510.12130255291595 -0.0004021600314579117813 0.0004614293618199435975 -0.9999998126751089567 -2117.383456173343802 2181.974883733748811 1.858354623567620489 0.8655747829803687177 F 1.543857431178317308 F 1.659459055336371502 #
tvertex-vertex $-1 -1 $-1 $19 $29 1.429007792811562631e-11 #
ellipse-curve $-1 -1 $-1 6082.837056433120779 -400.4878562614657085 13510.00000000173168 3.636953542936670112e-13 3.35744336115959744e-13 1 2387.060539224251897 2560.672925302455951 -1.728255938360234888e-09 1 F -0.1000208620216410244 F -1.83098546978949154e-26 #
point $-1 -1 $-1 8469.897595657372221 2160.185069040990584 13510.00000000000364 #
point $-1 -1 $-1 8480.727350308870882 2171.802721272791587 13510.2574691015725 #
ellipse-curve $-1 -1 $-1 8713.66114455038587 1909.029077142368806 13999.99999999999818 0.659716726143956711 -0.751514365295767095 -1.786624777739581077e-11 4.853067397103129288 4.260264196634628853 -489.9574449743703326 1 F 3.651463138518178336e-16 F 6.270005910518960945 #
point $-1 -1 $-1 8718.514211947489457 1913.289341339003158 13510.04255502563137 #
point $-1 -1 $-1 8713.66114454477065 1909.029077149088153 13510 #
End-of-ACIS-data 