700 0 1 0           
4 LibG 19 ASM 222.0.0.1700 NT 24 Wed Oct  5 17:29:48 2016 
1000 9.999999999999999547e-07 1.000000000000000036e-10 
body $-1 -1 $-1 $1 $-1 $-1 #
lump $-1 -1 $-1 $-1 $2 $0 #
shell $-1 -1 $-1 $-1 $-1 $3 $-1 $1 #
face $-1 -1 $-1 $-1 $4 $2 $-1 $5 forward double out #
loop $-1 -1 $-1 $-1 $6 $3 #
spline-surface $-1 -1 $-1 forward { exactsur full nubs 3 3 open open none none 40 2 
	-1.191870089712711306e-07 3 0.02564102564102564014 1 0.05128205128205128027 1 0.07692307692307692735 1 0.1025641025641025605 1 
	0.1282051282051281937 1 0.1538461538461538269 1 0.1794871794871794601 1 0.2051282051282050933 1 0.2307692307692307265 1 
	0.2564102564102563875 1 0.2820512820512820484 1 0.3076923076923077094 1 0.3333333333333333703 1 0.3589743589743590313 1 
	0.3846153846153846922 1 0.4102564102564103532 1 0.4358974358974360142 1 0.4615384615384616751 1 0.4871794871794873361 1 
	0.512820512820512997 1 0.538461538461538658 1 0.5641025641025643189 1 0.5897435897435899799 1 0.6153846153846156408 1 
	0.6410256410256413018 1 0.6666666666666669627 1 0.6923076923076926237 1 0.7179487179487182846 1 0.7435897435897439456 1 
	0.7692307692307696065 1 0.7948717948717952675 1 0.8205128205128209284 1 0.8461538461538465894 1 0.8717948717948722503 1 
	0.8974358974358979113 1 0.9230769230769235723 1 0.9487179487179492332 1 0.9743589743589748942 1 1.000000000000000444 3 
	-1.191870087288750371e-07 3 0.1000418327985497374 3 
	5908.360430786748111 3095.643141730658954 13510.00000000014006 
	5909.669361149184624 3069.497340621538115 13509.99998045505527 
	5912.287199271703685 3017.206189883747356 13514.20473505408881 
	5916.1133099775343 2940.779870801274228 13532.96452861431681 
	5919.740678439494332 2868.323415455783106 13563.69603353163984 
	5923.076333074192917 2801.693925338851841 13605.61152371900243 
	5926.034768258818985 2742.599369851838219 13657.63655965522594 
	5928.540149355061658 2692.554541093219996 13718.43755906677507 
	5930.528254660879611 2652.842263494825147 13786.45598127088851 
	5931.948122159040395 2624.480500124010632 13859.94827798366532 
	5932.763355710292672 2608.196261557681282 13937.03058651526771 
	5932.953058050349682 2604.406969326810668 14015.72701971034257 
	5932.51236644924029 2613.209756154686602 14094.02031479506877 
	5931.452577362660122 2634.378976054106261 14169.90354282483531 
	5929.800856863866102 2667.371988431807495 14241.43155324009058 
	5927.599544283118121 2711.34306784672799 14306.77083482764829 
	5924.905066903615989 2765.165082890018766 14364.24651497806008 
	5921.786493534338661 2827.458388475532502 14412.38529248482155 
	5918.323764036732427 2896.62619093284502 14449.95320336879377 
	5914.605640188510733 2970.895479372186401 14475.98725165863289 
	5910.727430411210662 3048.362474108483639 14489.82009432056111 
	5906.788546684440917 3127.041427143557485 14491.09714757692745 
	5902.889956271773372 3204.915523780759031 14479.78567611940889 
	5899.131593579266337 3279.988580586913486 14456.17563222856188 
	5895.609798489711466 3350.336214503365682 14420.87222329033466 
	5892.414846837010373 3414.155171464193245 14374.78039822983555 
	5889.628636323148385 3469.809550057816978 14319.08165052886761 
	5887.322587195809319 3515.872735359127546 14255.20373244653092 
	5885.555811499472838 3551.163968022518475 14184.7840567724088 
	5884.37359782853855 3574.778611242595161 14109.62772425260846 
	5883.806250423364872 3586.111339736927675 14031.66125259131695 
	5883.868312367601902 3584.87165633055065 13952.88319311412852 
	5884.558192797730953 3571.091338421432283 13875.31290096014891 
	5885.858207685132584 3545.123623361606406 13800.9387719979386 
	5887.735033129046315 3507.634153958594197 13731.66727334329516 
	5890.140559601405585 3459.58391498932906 13669.27407396452691 
	5893.013125020878761 3402.204602624073232 13615.35852821353001 
	5896.279095889164637 3336.967041328925916 13571.30267848237418 
	5899.854752820938302 3265.543520524618998 13538.23582992536831 
	5903.648443848173883 3189.764782469263082 13517.00559772191446 
	5906.258085674137874 3137.637352236220067 13511.10599750287292 
	5907.566322181018222 3111.505410847846179 13510.25746935761345 
	6024.930067082990718 3101.478937151783612 13510.00000000014188 
	6025.368448061334675 3075.262661539183682 13509.99998041480649 
	6026.245202379398506 3022.830564384511945 13514.21339492344305 
	6027.526418802697663 2946.202379327626659 13533.01149165286188 
	6028.740669914726823 2873.562817769261528 13563.80463887918086 
	6029.856642597996142 2806.777492501525558 13605.80190529898573 
	6030.845554490774703 2747.561877201419975 13657.92453893472521 
	6031.681900767132902 2697.436977034690244 13718.83370557863964 
	6032.344111267370863 2657.690299087648782 13786.96487869124394 
	6032.815106989496599 2629.342770730937445 13860.5680265187093 
	6033.082740524686415 2613.122518817037871 13937.75256415662079 
	6033.140109362728253 2609.446166304609051 14016.53591589232019 
	6032.985733910591989 2618.408131261702238 14094.89444042315336 
	6032.623595653352822 2639.778201896384871 14170.81541085439676 
	6032.063034467786565 2673.007450220726241 14242.34871428832048 
	6031.318507738444168 2717.242332350176639 14307.65694301976873 
	6030.409217488480863 2771.34661326458945 14365.06259066996245 
	6029.3586151419413 2833.930552844131398 14413.0911409559103 
	6028.193796690126874 2903.386603484980242 14450.50894229942423 
	6026.944803861259061 2977.930702338279843 14476.3548954155267 
	6025.643849316924388 3055.648097511389096 14489.9651399458362 
	6024.324485858151093 3134.542531110022537 14490.99010603474926 
	6023.020741068113239 3212.587515776486725 14479.40349286692799 
	6021.766239709761976 3287.778387606846536 14455.50294355456572 
	6020.593336512572023 3358.18379839013096 14419.90239905654562 
	6019.532281714649798 3421.995324517453355 14373.51632754947241 
	6018.610440881551767 3477.573918288253026 14317.53623436256203 
	6017.851589123522899 3523.492008451850779 14253.40005587396809 
	6017.275297913798568 3558.570168581842154 14182.75522355164139 
	6016.896430322594824 3581.907411416802461 14107.41634691282343 
	6016.72475768505592 3592.904331032487335 14029.31860239537309 
	6016.76470758983578 3591.278498419598236 13950.46802543193007 
	6017.015249687391588 3577.071715055863024 13872.88998256110426 
	6017.469922264720481 3550.648938091973832 13798.57714715230577 
	6018.116998895500728 3512.688905111618624 13729.43831507737923 
	6018.939790888213793 3464.166698095280481 13667.24937504298032 
	6019.91707765524734 3406.328699017666622 13613.60769309582429 
	6021.023654188742512 3340.66056349151313 13569.89108255386782 
	6022.230980458608428 3268.849098256913749 13537.22241490416491 
	6023.507919957311969 3192.738786163828536 13516.44077455875049 
	6024.38366232955741 3140.43623184343096 13510.86687230776079 
	6024.822002879234788 3114.230019035347141 13510.18583116160698 
	6141.791664284896797 3101.478937527725975 13510.00000000014006 
	6141.354624008378778 3075.235702377321104 13509.99998037455043 
	6140.48055100217789 3022.749687992591589 13514.22205479279 
	6139.203046807448118 2946.046855490177677 13533.05845469141059 
	6137.991901564094405 2873.344839489936476 13563.91324422672005 
	6136.878157954700328 2806.514690831655571 13605.99228687896539 
	6135.890365793079582 2747.276559388264104 13658.21251821421538 
	6135.053845772447858 2697.155152962795455 13719.22985209050421 
	6134.390041053678033 2657.440532401014934 13787.47377611159936 
	6133.915967422207359 2629.154896265155912 13861.1877750537551 
	6133.643777156737087 2613.026273481665157 13938.47454179798297 
	6133.580447508404177 2609.46978407945835 14017.34481207429963 
	6133.727601851158397 2618.576954904192007 14095.76856605123248 
	6134.081468067761307 2640.113364085123521 14171.72727888395821 
	6134.632975243545843 2673.524675202860635 14243.2658753365522 
	6135.367986187820861 2717.950905746108219 14308.54305121188918 
	6136.267659822971837 2772.248562611892339 14365.87866636186118 
	6137.30893415171613 2835.020074882084373 14413.79698942700088 
	6138.465117422327239 2904.649766290889147 14451.06468123005106 
	6139.706572337989201 2979.345441469824436 14476.72253917242051 
	6141.001475771488913 3057.184515563953028 14490.11018557111311 
	6142.31663451093209 3136.163499871609474 14490.88306449256561 
	6143.618336125771748 3214.249569780270576 14479.02130961444345 
	6144.873213142373061 3289.432887676857717 14454.83025488057683 
	6146.049098377055088 3359.778334080927834 14418.9325748227584 
	6147.115849501148659 3423.475315484008661 14372.25225686910562 
	6148.046121701472657 3478.884366885641612 14315.99081819625644 
	6148.8160686300007 3524.579349521924087 14251.59637930140343 
	6149.405953674819102 3559.384157662165308 14180.72639033087398 
	6149.800655883091167 3582.402989684236218 14105.20496957303294 
	6149.990057567535587 3593.043404294841366 14026.97595219942741 
	6149.969303660352125 3591.031568460501148 13948.05285774972617 
	6149.738926166877718 3576.419304626306712 13870.46706416206143 
	6149.304830527263221 3549.582755770315543 13796.21552230666566 
	6148.678144241213886 3511.212703007606706 13727.20935681145238 
	6147.87493161592829 3462.296783767518718 13665.22467612143737 
	6146.915782024521832 3404.094072817667893 13611.85685797812403 
	6145.825281948736119 3338.10266341975148 13568.47948662536328 
	6144.631385387230694 3266.02114654201614 13536.20899988295423 
	6143.364694857383256 3189.704742789691863 13515.87595139558653 
	6142.493355630719634 3137.313647700789716 13510.62774711264865 
	6142.056546706192421 3111.076636168189907 13510.11419296560234 
	6258.361300656015374 3095.643142852863548 13510.00000000013642 
	6257.048341466706916 3069.416866182036301 13509.99998033429256 
	6254.422445966234591 3016.964769829885427 13514.23071466213878 
	6250.585179964023155 2940.315624408459371 13533.10541772995202 
	6246.948478325218275 2867.672739446571086 13564.02184957425561 
	6243.606125293768855 2800.909449278693046 13606.18266845894686 
	6240.644325302085235 2741.747681983686107 13658.50049749371283 
	6238.139466309700765 2691.713282216566313 13719.62599860236332 
	6236.156151651861364 2652.096697508175112 13787.98267353195115 
	6234.745533312367115 2623.919685496028251 13861.80752358879909 
	6233.943992796420389 2607.90896444294367 13939.19651943933786 
	6233.772202770855984 2604.477469559830297 14018.1537082562736 
	6234.234593902059714 2613.71370312727322 14096.64269167930979 
	6235.319240581166014 2635.37945186335628 14172.63914691351965 
	6236.998168500214888 2668.915930737813142 14244.18303638478028 
	6239.22807614210069 2713.458194688381354 14309.42915940400962 
	6241.95145157747902 2767.857446567869829 14366.69474205375627 
	6245.098055764728997 2830.710665967578279 14414.50283789808782 
	6248.586734097128101 2900.39679475667117 14451.62042016067244 
	6252.327509475157967 2975.118546069652439 14477.09018292931069 
	6256.223902921280569 3052.948758439283665 14490.25523119638819 
	6260.17542188576499 3131.880099547579903 14490.7760229503856 
	6264.080152067187555 3209.876837676918058 14478.63912636195892 
	6267.837385901644666 3284.927345614916248 14454.15756620657885 
	6271.350219928726801 3355.095982875910522 14417.96275058896754 
	6274.528054045266799 3418.573018135749862 14370.98818618873884 
	6277.28892818807708 3473.721304321897605 14314.44540202994722 
	6279.561636179953894 3519.118502553539656 14249.79270272883696 
	6281.287562220393738 3553.593765926998003 14178.69755711010475 
	6282.422192655691106 3576.257937028189644 14102.99359223324245 
	6282.936264038268746 3586.526480344594347 14024.63330200347991 
	6282.816517865044261 3584.134558116739299 13945.63769006752409 
	6282.066042530498635 3569.14386082877445 13868.04414576301497 
	6280.704193670617315 3541.941016083961586 13793.85389746102737 
	6278.766094968599646 3503.22761723024405 13724.98039854552735 
	6276.301732235798227 3454.002127684083916 13663.19997719989078 
	6273.374664361461328 3395.534132234095978 13610.10602286041649 
	6270.060383523189557 3329.331582347370841 13567.0678906968551 
	6266.444370138521663 3257.101943951983685 13535.19558486174537 
	6262.619880823079257 3180.708012039787718 13515.31112823241892 
	6259.99700748586838 3128.316283207450851 13510.38862191753651 
	6258.684168424972086 3102.092406094016042 13510.04255476958679 
	0 
	
	0 
	0 
	38 0.02564102564102564014 0.05128205128205128027 0.07692307692307692735 0.1025641025641025605 0.1282051282051281937 0.1538461538461538269 0.1794871794871794601 0.2051282051282050933 0.2307692307692307265 0.2564102564102563875 0.2820512820512820484 0.3076923076923077094 0.3333333333333333703 0.3589743589743590313 0.3846153846153846922 0.4102564102564103532 0.4358974358974360142 0.4615384615384616751 0.4871794871794873361 0.512820512820512997 0.538461538461538658 0.5641025641025643189 0.5897435897435899799 0.6153846153846156408 0.6410256410256413018 0.6666666666666669627 0.6923076923076926237 0.7179487179487182846 0.7435897435897439456 0.7692307692307696065 0.7948717948717952675 0.8205128205128209284 0.8461538461538465894 0.8717948717948722503 0.8974358974358979113 0.9230769230769235723 0.9487179487179492332 0.9743589743589748942 
	0 
	0 
	0 
	F 1 F 0 F 1 F 0 } I I I I #
tcoedge-coedge $-1 -1 $-1 $7 $8 $-1 $9 forward $4 $10 0 6.250766387756696574 #
coedge $-1 -1 $-1 $11 $6 $-1 $12 forward $4 $13 #
coedge $-1 -1 $-1 $6 $11 $-1 $14 forward $4 $15 #
tedge-edge $-1 -1 $-1 $16 -7.814085595768073775e-29 $17 6.250766387756696574 $6 $18 forward @7 unknown 0.0008503927493615164685 #
pcurve $-1 -1 $-1 0 forward { exppc nubs 1 open 2 
	0 1 6.250766387756696574 1 
	0 0 
	0.9999999999999987788 0 
	6.335862246194901572e-08 
	spline forward { ref 0 } I I I I 
	} 0 0 #
tcoedge-coedge $-1 -1 $-1 $8 $7 $-1 $19 forward $4 $20 1.106178539021683525e-15 6.270005910518961834 #
edge $-1 -1 $-1 $17 -1.597735222682639122 $21 -1.482133598430930732 $7 $22 forward @7 unknown #
pcurve $-1 -1 $-1 0 forward { exppc nubs 3 open 2 
	-1.597735222682639122 3 -1.482133598430930732 3 
	0.9999999999999995559 3.849269343158420239e-17 
	0.9999999975120991147 0.03330815819587987919 
	1.000000000000000444 0.06667390754964203081 
	0.9999999999999993339 0.1000417136115408501 
	2.14338654287062089e-06 
	spline forward { ref 0 } I I I I 
	} 0 0 #
edge $-1 -1 $-1 $23 -0.1000208620216468808 $16 3.097212319355207745e-16 $8 $24 forward @7 unknown #
pcurve $-1 -1 $-1 0 forward { exppc nubs 1 open 2 
	-0.100020862021646964 1 -1.83098546978972773e-26 1 
	0 0.1000417136115407668 
	1.708424025589900004e-16 2.423960894071710971e-16 
	0.0009308921391565907685 
	spline forward { ref 0 } I I I I 
	} 0 0 #
tvertex-vertex $-1 -1 $-1 $9 $25 1.287607477745803344e-11 #
tvertex-vertex $-1 -1 $-1 $9 $26 1.366629035320263383e-11 #
ellipse-curve $-1 -1 $-1 5908.36086567518214 3095.642797989914925 14000.00000000000364 -0.9987492177719065056 -0.05000000000004874851 5.854635769164083427e-12 -2.879343696804426393e-09 1.31026922645105525e-10 -489.9999999999990337 1 F -7.814085595768073775e-29 F 6.250766387756696574 #
tedge-edge $-1 -1 $-1 $21 1.106178539021683525e-15 $23 6.270005910518961834 $11 $27 forward @7 unknown 0.000860963041833010651 #
pcurve $-1 -1 $-1 0 forward { exppc nubs 1 open 2 
	0 1 6.270005910518961834 1 
	0.999999999999999889 0.1000417136115408223 
	9.025562836956988539e-16 0.100041713611540739 
	9.049043906477300914e-08 
	spline forward { ref 0 } I I I I 
	} 0 0 #
tvertex-vertex $-1 -1 $-1 $12 $28 1.406738395668033167e-11 #
ellipse-curve $-1 -1 $-1 5989.234680445919366 480.717154386554455 13510.1213025529396 -0.0006112077300546490087 3.278502056170281783e-05 -0.9999998126751090677 3040.448488141727012 -0.2639980600606169903 -1.858354622083098651 0.8655747822802546398 F -1.597735222682639122 F -1.482133598430930732 #
tvertex-vertex $-1 -1 $-1 $19 $29 1.864019966684281604e-11 #
ellipse-curve $-1 -1 $-1 6083.360865693230153 -400.7094222946665241 13510.00000000173168 1.237562433337131909e-14 4.948185666394034182e-13 1 -175.0000000209266773 3496.352220284712075 -1.728255938360234888e-09 1 F -0.1000208620216468808 F 3.097212319355207745e-16 #
point $-1 -1 $-1 5908.36086567230268 3095.642797990045892 13510.00000000000364 #
point $-1 -1 $-1 5907.566741265816745 3111.505420585876891 13510.2574691015725 #
ellipse-curve $-1 -1 $-1 6258.360865725603617 3095.642797989250084 13999.99999999999818 0.9987492177719248243 -0.04999999999968449127 -2.315887473661028421e-11 0.3228858593149624423 6.449640215376359897 -489.9574449743703326 1 F 1.106178539021683525e-15 F 6.270005910518961834 #
point $-1 -1 $-1 6258.683751584920174 3102.092438204626887 13510.04255502563137 #
point $-1 -1 $-1 6258.360865714281317 3095.642797990030886 13510 #
End-of-ACIS-data 