700 0 1 0           
4 LibG 19 ASM 222.0.0.1700 NT 24 Wed Oct  5 17:29:48 2016 
1000 9.999999999999999547e-07 1.000000000000000036e-10 
body $-1 -1 $-1 $1 $-1 $-1 #
lump $-1 -1 $-1 $-1 $2 $0 #
shell $-1 -1 $-1 $-1 $-1 $3 $-1 $1 #
face $-1 -1 $-1 $-1 $4 $2 $-1 $5 forward double out #
loop $-1 -1 $-1 $-1 $6 $3 #
spline-surface $-1 -1 $-1 forward { exactsur full nubs 3 3 open open none none 40 2 
	-1.191870089770881161e-07 3 0.02564102564102564014 1 0.05128205128205128027 1 0.07692307692307692735 1 0.1025641025641025605 1 
	0.1282051282051281937 1 0.1538461538461538269 1 0.1794871794871794601 1 0.2051282051282050933 1 0.2307692307692307265 1 
	0.2564102564102563875 1 0.2820512820512820484 1 0.3076923076923077094 1 0.3333333333333333703 1 0.3589743589743590313 1 
	0.3846153846153846922 1 0.4102564102564103532 1 0.4358974358974360142 1 0.4615384615384616751 1 0.4871794871794873361 1 
	0.512820512820512997 1 0.538461538461538658 1 0.5641025641025643189 1 0.5897435897435899799 1 0.6153846153846156408 1 
	0.6410256410256413018 1 0.6666666666666669627 1 0.6923076923076926237 1 0.7179487179487182846 1 0.7435897435897439456 1 
	0.7692307692307696065 1 0.7948717948717952675 1 0.8205128205128209284 1 0.8461538461538465894 1 0.8717948717948722503 1 
	0.8974358974358979113 1 0.9230769230769235723 1 0.9487179487179492332 1 0.9743589743589748942 1 1.000000000000000444 3 
	-1.191870089770881161e-07 3 0.1000418327985498207 3 
	308.3604301150035099 3095.643141730681236 13510.00000000013461 
	309.6693604774372375 3069.497340621560852 13509.999980455068 
	312.2871985999574918 3017.206189883768729 13514.20473505409427 
	316.1133093057857764 2940.779870801296511 13532.96452861431317 
	319.7406777677496734 2868.323415455804479 13563.6960335316453 
	323.0763324024464396 2801.693925338874124 13605.61152371900243 
	326.0347675870718831 2742.599369851861866 13657.63655965522594 
	328.5401486833150102 2692.554541093241824 13718.43755906677325 
	330.5282539891348961 2652.842263494846975 13786.45598127088851 
	331.9481214872928945 2624.48050012403337 13859.9482779836635 
	332.7633550385466492 2608.196261557701291 13937.03058651526771 
	332.9530573786054219 2604.40696932683295 14015.72701971034257 
	332.512365777495063 2613.20975615470843 14094.02031479506695 
	331.4525766909125082 2634.378976054128998 14169.90354282483531 
	329.800856192119511 2667.371988431829323 14241.43155324008876 
	327.5995436113710753 2711.343067846749364 14306.77083482764829 
	324.9050662318691707 2765.165082890040594 14364.24651497806008 
	321.7864928625942298 2827.458388475555239 14412.38529248482155 
	318.3237633649846998 2896.626190932866848 14449.95320336879377 
	314.6056395167666437 2970.895479372207774 14475.98725165863107 
	310.7274297394618543 3048.362474108505012 14489.82009432055384 
	306.7885460126926205 3127.041427143579313 14491.09714757692382 
	302.8899556000274629 3204.915523780781768 14479.78567611940889 
	299.131592907517927 3279.988580586934404 14456.17563222855642 
	295.6097978179640222 3350.336214503389783 14420.87222329033284 
	292.4148461652582114 3414.155171464215982 14374.78039822983737 
	289.6286356513994065 3469.809550057838806 14319.08165052886761 
	287.3225865240589201 3515.872735359148464 14255.2037324465291 
	285.5558108277255087 3551.163968022541667 14184.78405677240698 
	284.373597156788378 3574.77861124261608 14109.62772425260482 
	283.8062497516164626 3586.111339736949503 14031.6612525913115 
	283.8683116958515029 3584.871656330572023 13952.88319311412488 
	284.5581921259822025 3571.091338421455021 13875.31290096014709 
	285.8582070133821276 3545.123623361627779 13800.93877199793678 
	287.7350324572967679 3507.634153958616025 13731.66727334329516 
	290.1405589296583116 3459.583914989352252 13669.27407396452327 
	293.0131243491294981 3402.204602624093241 13615.35852821352273 
	296.2790952174145218 3336.967041328947744 13571.30267848237418 
	299.8547521491914267 3265.543520524640371 13538.23582992536467 
	303.6484431764268948 3189.764782469284455 13517.00559772191264 
	306.2580850023894072 3137.63735223624235 13511.10599750286929 
	307.566321509269585 3111.505410847868006 13510.25746935761526 
	424.9300664112450363 3101.478937151806349 13510.00000000013642 
	425.3684473895875726 3075.26266153920642 13509.99998041481012 
	426.2452017076544166 3022.830564384535592 13514.21339492344487 
	427.5264181309496507 2946.202379327649851 13533.01149165286552 
	428.7406692429819373 2873.562817769284266 13563.80463887918449 
	429.8566419262492104 2806.777492501547385 13605.80190529898573 
	430.8455538190270318 2747.561877201443622 13657.92453893472521 
	431.6819000953869931 2697.436977034712982 13718.83370557863782 
	432.3441105956257502 2657.690299087671519 13786.96487869124758 
	432.8151063177503488 2629.342770730961092 13860.56802651871112 
	433.0827398529421544 2613.12251881705879 13937.75256415662079 
	433.1401086909846185 2609.446166304631788 14016.53591589232019 
	432.9857332388452278 2618.408131261724975 14094.89444042315336 
	432.6235949816066864 2639.778201896408518 14170.81541085439858 
	432.0630337960409975 2673.007450220748979 14242.3487142883223 
	431.3185070666967817 2717.242332350200286 14307.65694301977055 
	430.4092168167363752 2771.346613264611278 14365.06259066996245 
	429.3586144701963576 2833.930552844153226 14413.09114095591212 
	428.1937960183814198 2903.386603485002979 14450.50894229942242 
	426.9448031895154259 2977.930702338303036 14476.35489541552488 
	425.6438486451775134 3055.648097511411834 14489.9651399458362 
	424.324485186404786 3134.542531110045275 14490.99010603474926 
	423.0207403963680122 3212.587515776510372 14479.40349286692799 
	421.766239038013282 3287.778387606869273 14455.50294355456754 
	420.5933358408266827 3358.183798390154607 14419.90239905654744 
	419.5322810428987736 3421.995324517476092 14373.51632754947423 
	418.6104402098046648 3477.573918288274854 14317.53623436256203 
	417.8515884517750578 3523.492008451872152 14253.40005587396809 
	417.2752972420533411 3558.57016858186671 14182.75522355164139 
	416.8964296508451071 3581.907411416824743 14107.41634691282343 
	416.7247570133092722 3592.904331032509617 14029.31860239537309 
	416.7647069180854373 3591.278498419620973 13950.46802543193007 
	417.0152490156439171 3577.071715055885761 13872.88998256110426 
	417.4699215929704792 3550.64893809199657 13798.57714715230395 
	418.1169982237530007 3512.688905111642271 13729.43831507737923 
	418.9397902164663492 3464.166698095304582 13667.24937504298214 
	419.9170769834991574 3406.328699017687995 13613.60769309582793 
	421.0236535169952958 3340.660563491535868 13569.89108255386964 
	422.2309797868621217 3268.849098256936486 13537.22241490416491 
	423.5079192855641281 3192.738786163851273 13516.44077455875049 
	424.3836616578099097 3140.436231843453697 13510.86687230776261 
	424.8220022074869462 3114.230019035369423 13510.18583116160698 
	541.7916636131507175 3101.478937527747803 13510.00000000013824 
	541.3546233366317892 3075.235702377344751 13509.99998037455771 
	540.4805503304316971 3022.749687992615236 13514.22205479279364 
	539.2030461357006743 2946.046855490200869 13533.05845469141059 
	537.9919008923487809 2873.344839489960577 13563.91324422672005 
	536.8781572829570905 2806.514690831678308 13605.99228687896539 
	535.8903651213339572 2747.276559388286387 13658.21251821421902 
	535.0538451007025742 2697.155152962818647 13719.22985209050421 
	534.3900403819311578 2657.440532401038126 13787.47377611159936 
	533.915966750461962 2629.154896265179104 13861.1877750537551 
	533.643776484993964 2613.026273481687895 13938.47454179798478 
	533.5804468366578703 2609.469784079481542 14017.34481207430144 
	533.7276011794120905 2618.576954904215199 14095.76856605123248 
	534.081467396017274 2640.113364085147623 14171.72727888396003 
	534.632974571801924 2673.524675202883373 14243.26587533655402 
	535.3679855160771694 2717.950905746130502 14308.543051211891 
	536.2676591512253026 2772.24856261191735 14365.87866636186118 
	537.3089334799742574 2835.020074882106201 14413.79698942700088 
	538.4651167505807052 2904.649766290911884 14451.06468123005106 
	539.7065716662401655 2979.345441469848083 14476.72253917242233 
	541.0014750997426063 3057.184515563975765 14490.11018557111493 
	542.3166338391883983 3136.163499871632212 14490.88306449257107 
	543.6183354540235086 3214.249569780293768 14479.02130961444709 
	544.873212470626072 3289.43288767688091 14454.83025488057865 
	546.0490977053092365 3359.778334080951481 14418.93257482276022 
	547.1158488294014433 3423.475315484031853 14372.25225686910926 
	548.0461210297233947 3478.884366885665713 14315.9908181962619 
	548.8160679582563262 3524.579349521948188 14251.59637930140525 
	549.4059530030714313 3559.3841576621885 14180.7263903308758 
	549.8006552113441785 3582.40298968425941 14105.20496957303658 
	549.9900568957876885 3593.043404294865923 14026.97595219942741 
	549.9693029886037721 3591.031568460524795 13948.05285774972799 
	549.7389254951274324 3576.419304626329904 13870.46706416206143 
	549.3048298555135034 3549.58275577033919 13796.21552230666748 
	548.6781435694689435 3511.212703007630807 13727.20935681145602 
	547.8749309441791411 3462.29678376754282 13665.22467612144101 
	546.9157813527765484 3404.09407281769063 13611.85685797812403 
	545.8252812769882212 3338.102663419776036 13568.4794866253651 
	544.6313847154838186 3266.021146542038878 13536.20899988295605 
	543.3646941856382 3189.704742789714601 13515.87595139558834 
	542.4933549589719632 3137.313647700813362 13510.62774711265411 
	542.0565460344439543 3111.076636168213099 13510.1141929655987 
	658.3612999842689533 3095.643142852888104 13510.00000000013461 
	657.0483407949614048 3069.416866182060858 13509.99998033430347 
	654.4224452944902168 3016.964769829909983 13514.23071466214424 
	650.5851792922761661 2940.315624408482563 13533.10541772994839 
	646.9484776534724233 2867.672739446595642 13564.02184957425561 
	643.6061246220250496 2800.909449278717148 13606.18266845894686 
	640.6443246303396108 2741.747681983709299 13658.50049749371283 
	638.139465637955027 2691.71328221658996 13719.62599860236878 
	636.1561509801150578 2652.096697508200123 13787.98267353195115 
	634.7455326406220593 2623.919685496051898 13861.80752358879909 
	633.9439921246793119 2607.908964442966408 13939.19651943933968 
	633.7722020991107001 2604.477469559853489 14018.1537082562736 
	634.2345932303140899 2613.713703127296412 14096.64269167931161 
	635.3192399094218672 2635.379451863379927 14172.63914691352147 
	636.9981678284700592 2668.915930737837698 14244.18303638478392 
	639.2280754703573393 2713.458194688404546 14309.42915940400962 
	641.9514509057304394 2767.85744656789484 14366.69474205376173 
	645.09805509298576 2830.710665967600107 14414.50283789808964 
	648.5867334253805438 2900.396794756694362 14451.62042016067426 
	652.3275088034107512 2975.11854606967654 14477.0901829293125 
	656.2239022495356267 3052.948758439306857 14490.25523119638819 
	660.1754212140199343 3131.88009954760355 14490.7760229503856 
	664.0801513954426127 3209.876837676942159 14478.63912636196255 
	667.8373852298960855 3284.927345614939895 14454.15756620658067 
	671.3502192569807221 3355.095982875934624 14417.96275058896936 
	674.5280533735206063 3418.573018135774419 14370.98818618874066 
	677.288927516328954 3473.721304321920798 14314.44540202994722 
	679.5616355082070186 3519.118502553564213 14249.79270272883696 
	681.2875615486457264 3553.593765927022559 14178.69755711010657 
	682.4221919839443444 3576.257937028213291 14102.99359223324427 
	682.9362633665208477 3586.526480344619813 14024.63330200348355 
	682.8165171932965904 3584.134558116763401 13945.63769006752409 
	682.0660418587500544 3569.143860828798552 13868.04414576301679 
	680.7041929988686206 3541.941016083986142 13793.85389746103101 
	678.7660942968556128 3503.227617230266787 13724.98039854552917 
	676.3017315640485094 3454.002127684108473 13663.19997719989078 
	673.374663689716499 3395.534132234120079 13610.10602286042013 
	670.0603828514425686 3329.331582347394942 13567.06789069685146 
	666.4443694667753562 3257.101943952006877 13535.19558486174719 
	662.6198801513315857 3180.708012039812274 13515.31112823242074 
	659.9970068141221873 3128.316283207474498 13510.38862191753833 
	658.6841677532246422 3102.092406094039234 13510.04255476959042 
	0 
	
	0 
	0 
	38 0.02564102564102564014 0.05128205128205128027 0.07692307692307692735 0.1025641025641025605 0.1282051282051281937 0.1538461538461538269 0.1794871794871794601 0.2051282051282050933 0.2307692307692307265 0.2564102564102563875 0.2820512820512820484 0.3076923076923077094 0.3333333333333333703 0.3589743589743590313 0.3846153846153846922 0.4102564102564103532 0.4358974358974360142 0.4615384615384616751 0.4871794871794873361 0.512820512820512997 0.538461538461538658 0.5641025641025643189 0.5897435897435899799 0.6153846153846156408 0.6410256410256413018 0.6666666666666669627 0.6923076923076926237 0.7179487179487182846 0.7435897435897439456 0.7692307692307696065 0.7948717948717952675 0.8205128205128209284 0.8461538461538465894 0.8717948717948722503 0.8974358974358979113 0.9230769230769235723 0.9487179487179492332 0.9743589743589748942 
	0 
	0 
	0 
	F 1 F 0 F 1 F 0 } I I I I #
tcoedge-coedge $-1 -1 $-1 $7 $8 $-1 $9 forward $4 $10 7.814085595768073775e-29 6.250766387756696574 #
coedge $-1 -1 $-1 $11 $6 $-1 $12 forward $4 $13 #
coedge $-1 -1 $-1 $6 $11 $-1 $14 forward $4 $15 #
tedge-edge $-1 -1 $-1 $16 7.814085595768073775e-29 $17 6.250766387756696574 $6 $18 forward @7 unknown 0.0008503927471057808312 #
pcurve $-1 -1 $-1 0 forward { exppc nubs 1 open 2 
	0 1 6.250766387756696574 1 
	0 0 
	0.9999999999999988898 1.677228436214818111e-17 
	6.716672566346407632e-08 
	spline forward { ref 0 } I I I I 
	} 0 0 #
tcoedge-coedge $-1 -1 $-1 $8 $7 $-1 $19 forward $4 $20 0 6.270005910518959169 #
edge $-1 -1 $-1 $17 -1.597735222662382659 $21 -1.482133598409709707 $7 $22 forward @7 unknown #
pcurve $-1 -1 $-1 0 forward { exppc nubs 3 open 2 
	-1.597735222662382659 3 -1.482133598409709707 3 
	0.999999999999999778 0 
	0.9999999975121000029 0.03330815819589004467 
	1.000000000000000444 0.06667390754965318855 
	0.999999999999999889 0.1000417136115408362 
	1.934951242771678836e-06 
	spline forward { ref 0 } I I I I 
	} 0 0 #
edge $-1 -1 $-1 $23 -0.1000208620216282013 $16 -1.830985469790220198e-26 $8 $24 forward @7 unknown #
pcurve $-1 -1 $-1 0 forward { exppc nubs 1 open 2 
	-0.1000208620216282152 1 -1.830985469790220198e-26 1 
	0 0.1000417136115408501 
	1.122419456483325781e-16 0 
	0.0009308921386043292985 
	spline forward { ref 0 } I I I I 
	} 0 0 #
tvertex-vertex $-1 -1 $-1 $9 $25 1.553253231700726796e-11 #
tvertex-vertex $-1 -1 $-1 $9 $26 1.31852609313595847e-11 #
ellipse-curve $-1 -1 $-1 308.3608650013433135 3095.642797989832616 14000.00000000000364 -0.9987492177719092812 -0.0499999999999923006 1.579983022190795915e-12 -7.869736862176068619e-10 2.355236006224004086e-10 -489.9999999999990337 1 F 7.814085595768073775e-29 F 6.250766387756696574 #
tedge-edge $-1 -1 $-1 $21 0 $23 6.270005910518959169 $11 $27 forward @7 unknown 0.0008609630419656032641 #
pcurve $-1 -1 $-1 0 forward { exppc nubs 1 open 2 
	0 1 6.270005910518959169 1 
	0.999999999999999889 0.1000417136115408501 
	1.081579011305376355e-15 0.1000417136115408084 
	7.637443844792452888e-08 
	spline forward { ref 0 } I I I I 
	} 0 0 #
tvertex-vertex $-1 -1 $-1 $12 $28 1.363797880709171235e-11 #
ellipse-curve $-1 -1 $-1 389.2346797585660738 480.7171544309314299 13510.12130255295051 -0.0006112077300546498761 3.278502056165227368e-05 -0.9999998126751089567 3040.448488116897806 -0.2639980061723670723 -1.858354622066158868 0.8655747822727364316 F -1.597735222662382659 F -1.482133598409709707 #
tvertex-vertex $-1 -1 $-1 $19 $29 2.09287293696209025e-11 #
ellipse-curve $-1 -1 $-1 483.3608650215129501 -400.7094222953059557 13510.00000000173168 1.237562433337053654e-14 4.948185666394929823e-13 1 -175.0000000209566053 3496.352220285373733 -1.728255938360234888e-09 1 F -0.1000208620216282013 F -1.830985469790220198e-26 #
point $-1 -1 $-1 308.3608650005563732 3095.642797990068175 13510.00000000000364 #
point $-1 -1 $-1 307.5667405940708363 3111.505420585899174 13510.2574691015725 #
ellipse-curve $-1 -1 $-1 658.3608650461678735 3095.642797989658447 13999.99999999999818 0.9987492177719127229 -0.04999999999992589539 -7.445927031113495875e-12 0.3228858670050787083 6.449640214991400278 -489.9574449743703326 1 F 0 F 6.270005910518959169 #
point $-1 -1 $-1 658.6837509131729576 3102.092438204649625 13510.04255502563137 #
point $-1 -1 $-1 658.3608650425345559 3095.642797990053168 13510 #
End-of-ACIS-data 