700 0 1 0           
4 LibG 19 ASM 222.0.0.1700 NT 24 Wed Oct  5 17:29:48 2016 
1000 9.999999999999999547e-07 1.000000000000000036e-10 
body $-1 -1 $-1 $1 $-1 $-1 #
lump $-1 -1 $-1 $-1 $2 $0 #
shell $-1 -1 $-1 $-1 $-1 $3 $-1 $1 #
face $-1 -1 $-1 $-1 $4 $2 $-1 $5 forward double out #
loop $-1 -1 $-1 $-1 $6 $3 #
spline-surface $-1 -1 $-1 forward { exactsur full nubs 3 3 open open none none 40 2 
	-1.191870088772522072e-07 3 0.02564102564102564014 1 0.05128205128205128027 1 0.07692307692307692735 1 0.1025641025641025605 1 
	0.1282051282051281937 1 0.1538461538461538269 1 0.1794871794871794601 1 0.2051282051282050933 1 0.2307692307692307265 1 
	0.2564102564102563875 1 0.2820512820512820484 1 0.3076923076923077094 1 0.3333333333333333703 1 0.3589743589743590313 1 
	0.3846153846153846922 1 0.4102564102564103532 1 0.4358974358974360142 1 0.4615384615384616751 1 0.4871794871794873361 1 
	0.512820512820512997 1 0.538461538461538658 1 0.5641025641025643189 1 0.5897435897435899799 1 0.6153846153846156408 1 
	0.6410256410256413018 1 0.6666666666666669627 1 0.6923076923076926237 1 0.7179487179487182846 1 0.7435897435897439456 1 
	0.7692307692307696065 1 0.7948717948717952675 1 0.8205128205128209284 1 0.8461538461538465894 1 0.8717948717948722503 1 
	0.8974358974358979113 1 0.9230769230769235723 1 0.9487179487179492332 1 0.9743589743589748942 1 1.000000000000000444 3 
	-1.191870088020244054e-07 3 0.1000418327985497235 3 
	9120.104737824258336 1340.189841327432759 13510.00000000014006 
	9097.391158516356882 1327.174099729072395 13509.99998045506618 
	9051.96439211409961 1301.142841285570512 13514.20473505409063 
	8985.5707385998885 1263.096762057027036 13532.96452861431135 
	8922.625815321754999 1227.026935931831758 13563.6960335316453 
	8864.742937619927034 1193.857853731096156 13605.61152371900062 
	8813.405865670310959 1164.439766257749625 13657.63655965522594 
	8769.930541192208693 1139.526757980136836 13718.43755906677143 
	8735.431389188264802 1119.757436652179877 13786.45598127088488 
	8710.792742281017127 1105.638558375411094 13859.9482779836635 
	8696.646174631341637 1097.532039075396369 13937.03058651526226 
	8693.35431184819754 1095.645676966552401 14015.72701971034439 
	8701.001535810124551 1100.027826062649865 14094.02031479506513 
	8719.391821617968162 1110.566156668770191 14169.90354282483167 
	8748.053762406078022 1126.990534788505784 14241.43155324008694 
	8786.252653133360582 1148.879946594135617 14306.77083482764647 
	8833.009323624906756 1175.673290473054976 14364.24651497806008 
	8887.125238102433286 1206.683760009821299 14412.38529248482155 
	8947.213217817045006 1241.116449218826574 14449.95320336879195 
	9011.732999256044423 1278.088728744171704 14475.98725165863107 
	9079.030716443738129 1316.652870714081473 14489.82009432055384 
	9147.38129526769626 1355.82034229623082 14491.09714757692745 
	9215.032673116771548 1394.587145225896847 14479.78567611940707 
	9280.250710328033165 1431.959551766808772 14456.17563222855642 
	9341.363642206293662 1466.979577402708401 14420.87222329033102 
	9396.804932156723225 1498.749537306106276 14374.78039822983555 
	9445.153427455916244 1526.455057116671469 14319.08165052887307 
	9485.169788329656512 1549.385948183157097 14255.20373244653092 
	9515.828256533710373 1566.954412163938741 14184.7840567724088 
	9536.342949098234385 1578.710108338907958 14109.62772425260482 
	9546.188003237391968 1584.351697405960522 14031.6612525913115 
	9545.111056034669673 1583.734565851495745 13952.88319311412488 
	9533.13971339305499 1576.874532903957515 13875.31290096014709 
	9510.580842353132539 1563.947445005294412 13800.93877199793315 
	9478.012705200153505 1545.284668356274096 13731.66727334329516 
	9436.270135942597335 1521.364594476981438 13669.27407396452327 
	9386.423143050638828 1492.800378765220785 13615.35852821352273 
	9329.749472347386472 1460.324217993514822 13571.30267848237054 
	9267.701887824458026 1424.768600976691459 13538.23582992536467 
	9201.870805828186349 1387.04489654469171 13517.00559772191264 
	9156.586267948718159 1361.095140434020323 13511.10599750286929 
	9133.884728962899317 1348.086298396439133 13510.25746935761345 
	9178.134716210654005 1238.922579969630306 13510.00000000014006 
	9154.963793056544091 1226.650921358653932 13509.99998041480831 
	9108.622348052063899 1202.107816724811983 13514.21339492344305 
	9040.895434729545741 1166.238812383460072 13533.01149165286188 
	8976.693693995068315 1132.237094841286762 13563.80463887918086 
	8917.665971117252411 1100.976048825413045 13605.80190529898391 
	8865.328421951522614 1073.258761991622123 13657.92453893472339 
	8821.02533546491577 1049.797269720693066 13718.83370557863782 
	8785.894639981032014 1031.194281643740624 13786.96487869124394 
	8760.838665894889346 1017.927693404890192 13860.5680265187093 
	8746.500971645476966 1010.338311119750074 13937.75256415661897 
	8743.24981322471649 1008.621095960746629 14016.53591589232019 
	8751.168685819833627 1012.820155914434849 14094.89444042314972 
	8770.054179452396056 1022.827612799338681 14170.81541085439676 
	8799.421203973259253 1038.386373798672366 14242.34871428832048 
	8838.515449121086931 1059.096736262392369 14307.65694301976873 
	8886.332759612409063 1084.426656108314319 14365.06259066996063 
	8941.644927588095015 1113.725416020905413 14413.0911409559103 
	9003.03123991486973 1146.240342309762354 14450.50894229942242 
	9068.914970022020498 1181.136140969558255 14476.35489541552306 
	9137.603876951861821 1217.516356197116011 14489.96513994583438 
	9207.333671375718041 1254.446400096253001 14490.99010603474744 
	9276.313332120904306 1290.97756193850887 14479.40349286692799 
	9342.771109224522661 1326.171380184239979 14455.50294355456572 
	9405.000031898507586 1359.123751150656517 14419.90239905654198 
	9461.401752509527796 1388.988154980276477 14373.51632754946877 
	9510.52760042060072 1414.997402241181817 14317.53623436256203 
	9551.115791210440875 1436.483342496862406 14253.40005587396809 
	9582.123835540973232 1452.894028541618582 14182.75522355164139 
	9602.755315245667589 1463.807895362520185 14107.41634691281979 
	9612.480338897054025 1468.94458958237351 14029.31860239536945 
	9611.049151453453305 1468.172171184539366 13950.46802543192825 
	9598.498548454645061 1461.510502530740041 13872.88998256110244 
	9575.150929959352652 1449.130737580053392 13798.57714715230395 
	9541.606018835702343 1431.350924596161121 13729.43831507737377 
	9498.725455075644277 1408.627834753022853 13667.24937504298032 
	9447.610665866604904 1381.545228695951437 13613.60769309582429 
	9389.574564913418726 1350.798854580337547 13569.89108255386782 
	9326.107863744109636 1317.178592556558669 13537.22241490416309 
	9258.840652108849099 1281.548094100779508 13516.44077455874685 
	9212.614224980794461 1257.064598678038919 13510.86687230776079 
	9189.452253643832591 1244.797536439431269 13510.18583116160517 
	9231.094889958998465 1134.750352878504145 13510.00000000013642 
	9207.503204999953596 1123.246840538527522 13509.99998037455043 
	9160.320244912611088 1100.240015746512427 13514.22205479278637 
	9091.367210419944968 1066.618065102418768 13533.05845469140513 
	9026.010638388270308 1034.750079669254092 13563.9132442267146 
	8965.932480492556351 1005.456323707053684 13605.99228687896175 
	8912.679043226151407 979.4908972793532485 13658.21251821421538 
	8867.620949615820791 957.5222071041389427 13719.22985209049875 
	8831.917897529549009 940.1157774071608628 13787.47377611159754 
	8806.488801841425811 927.7196873017052212 13861.18777505375328 
	8791.988146003652218 920.653037408922728 13938.47454179798115 
	8788.789136402820077 919.0977351597965708 14017.34481207429417 
	8796.974097170736059 923.0938122435196647 14095.76856605123066 
	8816.332351567010846 932.5383942055249236 14171.72727888395457 
	8846.365644749423154 947.1883488604180457 14243.26587533654856 
	8886.300968271736565 966.6665452999791341 14308.54305121188736 
	8935.110456239521227 990.4715623780469969 14365.87866636185936 
	8991.53784101491874 1017.990596741985655 14413.79698942699906 
	9054.13078753658192 1048.515238118696743 14451.06468123004743 
	9121.278274013697228 1081.259705751414913 14476.72253917241869 
	9191.252056869170701 1115.38107652734152 14490.11018557110765 
	9262.251152686347268 1150.00098406509187 14490.88306449256561 
	9332.44819226268919 1184.228230165120976 14479.02130961444345 
	9400.036453690965573 1217.181726540605951 14454.83025488057319 
	9463.27636391391934 1248.01317624486137 14418.93257482275476 
	9520.540271881494846 1275.928910913789878 14372.25225686910198 
	9570.354340928897727 1300.210321674617262 14315.9908181962528 
	9611.436482142971727 1320.232357776613753 14251.59637930139797 
	9642.729352386117171 1335.479616743095676 14180.72639033087216 
	9663.427567676764738 1345.559611846047346 14105.20496957303112 
	9672.998431517458812 1350.212875370342317 14026.97595219942559 
	9671.195644671173795 1349.319637587963825 13948.05285774972253 
	9658.06564356144554 1342.902909527020711 13870.4670641620578 
	9633.946404100577638 1331.127890148963388 13796.21552230666384 
	9599.458742051478112 1314.297713349501009 13727.20935681145056 
	9555.490332764469713 1292.845643743176652 13665.22467612143555 
	9503.172865714708678 1267.323924143043996 13611.85685797812221 
	9443.852906581769275 1238.38955438656285 13568.47948662536146 
	9379.057273903625173 1206.787395437623218 13536.20899988295241 
	9310.453608563180751 1173.330929867531722 13515.87595139558653 
	9263.356499911513311 1150.364684346874128 13510.62774711264865 
	9239.770467626964091 1138.863786239744968 13510.11419296559325 
	9278.720633240549432 1028.193676879007171 13510.00000000012915 
	9254.747110141370285 1017.478657510812923 13509.99998033429438 
	9206.800481678577853 996.0488054822610593 13514.2307146621406 
	9136.735253535205629 964.7329962252127871 13533.1054177299502 
	9070.3321608475635 935.0539865397089443 13564.02184957424834 
	9009.303624501912054 907.7771467422792284 13606.18266845894141 
	8955.223664443661619 883.6059885417016631 13658.50049749370555 
	8909.487060135481443 863.1639117151022447 13719.62599860236151 
	8873.273413778524628 846.9781420848892139 13787.98267353194569 
	8847.51671728601832 835.4661294100623081 13861.80752358879363 
	8832.881266138369028 828.9247820302629179 13939.19651943933604 
	8829.744525728074223 827.5228089406026584 14018.15370825626997 
	8838.187396271905527 831.2963686725607886 14096.64269167930797 
	8857.992126249580906 840.1481367007603467 14172.63914691351602 
	8888.647928483840587 853.8498155624218953 14244.18303638477664 
	8929.364153936325238 872.0480229146843385 14309.42915940400781 
	8979.090683473075842 894.2734056794574826 14366.69474205375445 
	9036.545011666472419 919.9527452088217387 14414.50283789808418 
	9100.245324112116577 948.4237412652379362 14451.62042016067062 
	9168.548715157530751 978.9520935202336887 14477.09018292930887 
	9239.693560362822609 1010.750440019754365 14490.25523119638638 
	9311.844950857901495 1042.998664170984966 14490.77602295038014 
	9383.142017790934915 1074.86504650963434 14478.6391263619571 
	9451.745926315161341 1105.527715718912532 14454.15756620657521 
	9515.887301292928896 1134.195845653182687 14417.96275058896572 
	9573.911861552440314 1160.130051670362263 14370.98818618873702 
	9624.323085736399662 1182.661460227669295 14314.44540202994176 
	9665.82080934024998 1201.208959913546323 14249.79270272883332 
	9697.334757477359744 1215.294188991492547 14178.69755711010112 
	9718.052148521372146 1224.553872909324355 14102.99359223324063 
	9727.438656697142505 1228.749193575670915 14024.63330200347445 
	9725.252192964579081 1227.771948756656684 13945.63769006751681 
	9711.549148791875268 1221.647342744174694 13868.04414576301315 
	9686.682941703527831 1210.533336285343012 13793.85389746102373 
	9651.294900415165102 1194.716572673316023 13724.98039854552371 
	9606.297723518302519 1174.60498456967025 13663.19997719988532 
	9552.851942514931579 1150.717274105493743 13610.10602286041285 
	9492.3359806476019 1123.669530609020057 13567.06789069684601 
	9426.310637963588306 1094.159357126212171 13535.19558486173992 
	9356.47870130247793 1062.947818015050643 13515.31112823241347 
	9308.587254981965089 1041.542629767487597 13510.38862191753287 
	9284.615925325848366 1030.828590763538159 13510.04255476958679 
	0 
	
	0 
	0 
	38 0.02564102564102564014 0.05128205128205128027 0.07692307692307692735 0.1025641025641025605 0.1282051282051281937 0.1538461538461538269 0.1794871794871794601 0.2051282051282050933 0.2307692307692307265 0.2564102564102563875 0.2820512820512820484 0.3076923076923077094 0.3333333333333333703 0.3589743589743590313 0.3846153846153846922 0.4102564102564103532 0.4358974358974360142 0.4615384615384616751 0.4871794871794873361 0.512820512820512997 0.538461538461538658 0.5641025641025643189 0.5897435897435899799 0.6153846153846156408 0.6410256410256413018 0.6666666666666669627 0.6923076923076926237 0.7179487179487182846 0.7435897435897439456 0.7692307692307696065 0.7948717948717952675 0.8205128205128209284 0.8461538461538465894 0.8717948717948722503 0.8974358974358979113 0.9230769230769235723 0.9487179487179492332 0.9743589743589748942 
	0 
	0 
	0 
	F 1 F 0 F 1 F 0 } I I I I #
tcoedge-coedge $-1 -1 $-1 $7 $8 $-1 $9 forward $4 $10 0 6.25076638775669835 #
coedge $-1 -1 $-1 $11 $6 $-1 $12 forward $4 $13 #
coedge $-1 -1 $-1 $6 $11 $-1 $14 forward $4 $15 #
tedge-edge $-1 -1 $-1 $16 -1.562817119153614755e-28 $17 6.25076638775669835 $6 $18 forward @7 unknown 0.0008503927470815995449 #
pcurve $-1 -1 $-1 0 forward { exppc nubs 1 open 2 
	0 1 6.25076638775669835 1 
	0 0 
	0.9999999999999992228 0 
	7.184554239655164282e-08 
	spline forward { ref 0 } I I I I 
	} 0 0 #
tcoedge-coedge $-1 -1 $-1 $8 $7 $-1 $19 forward $4 $20 0 6.270005910518961834 #
edge $-1 -1 $-1 $17 1.543857430763459604 $21 1.659459055078982281 $7 $22 forward @7 unknown #
pcurve $-1 -1 $-1 0 forward { exppc nubs 3 open 2 
	1.543857430763459604 3 1.659459055078982281 3 
	1.000000000000000222 0 
	0.9999999975120983375 0.03330815819584220794 
	1.000000000000000444 0.06667390754968571809 
	1.000000000000000222 0.1000417136115404754 
	1.980708723363496493e-06 
	spline forward { ref 0 } I I I I 
	} 0 0 #
edge $-1 -1 $-1 $23 -0.1000208620216165162 $16 1.077291241394791915e-16 $8 $24 forward @7 unknown #
pcurve $-1 -1 $-1 0 forward { exppc nubs 1 open 2 
	-0.1000208620216165023 1 -1.83098546979021331e-26 1 
	0 0.1000417136115408501 
	0 7.522779663283147975e-17 
	0.0009308921392672277455 
	spline forward { ref 0 } I I I I 
	} 0 0 #
tvertex-vertex $-1 -1 $-1 $9 $25 1.183314517660131661e-11 #
tvertex-vertex $-1 -1 $-1 $9 $26 1.291180378436949795e-11 #
ellipse-curve $-1 -1 $-1 9120.104628491992116 1340.189297886344548 14000.00000000000364 -0.4971910749449527378 0.8676410749815169909 -3.654443855336350267e-12 1.129430415858223651e-09 -1.416660921904622352e-09 -489.9999999999990337 1 F -1.562817119153614755e-28 F 6.25076638775669835 #
tedge-edge $-1 -1 $-1 $21 -1.12765773395414323e-16 $23 6.270005910518961834 $11 $27 forward @7 unknown 0.0008609630372581936718 #
pcurve $-1 -1 $-1 0 forward { exppc nubs 1 open 2 
	0 1 6.270005910518961834 1 
	1 0.1000417136115408362 
	6.983462081513864016e-16 0.1000417136115408501 
	5.818846593593646394e-08 
	spline forward { ref 0 } I I I I 
	} 0 0 #
tvertex-vertex $-1 -1 $-1 $12 $28 1.416782831503573111e-11 #
ellipse-curve $-1 -1 $-1 6825.770619080020879 83.04645255251340075 13510.12130255297416 -0.0002477664130541004303 0.0005596977321859413846 -0.9999998126751089567 -1377.656832104812111 2710.422240443330793 1.85835462106863214 0.8655747818028457496 F 1.543857430763459604 F 1.659459055078982281 #
tvertex-vertex $-1 -1 $-1 $19 $29 1.785344856884446076e-11 #
ellipse-curve $-1 -1 $-1 6082.710170190705867 -400.3102720599575264 13510.00000000173168 4.466973637009849118e-13 2.132135906349646739e-13 1 3037.394458302416751 1740.499569944885479 -1.728255938360234888e-09 1 F -0.1000208620216165162 F 1.077291241394791915e-16 #
point $-1 -1 $-1 9120.104628493121709 1340.189297884927782 13510.00000000000364 #
point $-1 -1 $-1 9133.88492756737287 1348.085929230944885 13510.2574691015725 #
ellipse-curve $-1 -1 $-1 9278.720128711753205 1028.193908311000996 13999.99999999999818 0.4080495350756118134 -0.9129597893251252261 1.279589638153946935e-11 5.895636331436551636 2.635068582293823347 -489.9574449743703326 1 F -1.12765773395414323e-16 F 6.270005910518961834 #
point $-1 -1 $-1 9284.615765043190549 1030.828976893294794 13510.04255502563137 #
point $-1 -1 $-1 9278.720128714507155 1028.193908305364175 13510 #
End-of-ACIS-data 