700 0 1 0           
4 LibG 19 ASM 222.0.0.1700 NT 24 Wed Oct  5 17:29:48 2016 
1000 9.999999999999999547e-07 1.000000000000000036e-10 
body $-1 -1 $-1 $1 $-1 $-1 #
lump $-1 -1 $-1 $-1 $2 $0 #
shell $-1 -1 $-1 $-1 $-1 $3 $-1 $1 #
face $-1 -1 $-1 $-1 $4 $2 $-1 $5 forward double out #
loop $-1 -1 $-1 $-1 $6 $3 #
spline-surface $-1 -1 $-1 forward { exactsur full nubs 3 3 open open none none 40 2 
	-1.191870088014935937e-07 3 0.02564102564102564014 1 0.05128205128205128027 1 0.07692307692307692735 1 0.1025641025641025605 1 
	0.1282051282051281937 1 0.1538461538461538269 1 0.1794871794871794601 1 0.2051282051282050933 1 0.2307692307692307265 1 
	0.2564102564102563875 1 0.2820512820512820484 1 0.3076923076923077094 1 0.3333333333333333703 1 0.3589743589743590313 1 
	0.3846153846153846922 1 0.4102564102564103532 1 0.4358974358974360142 1 0.4615384615384616751 1 0.4871794871794873361 1 
	0.512820512820512997 1 0.538461538461538658 1 0.5641025641025643189 1 0.5897435897435899799 1 0.6153846153846156408 1 
	0.6410256410256413018 1 0.6666666666666669627 1 0.6923076923076926237 1 0.7179487179487182846 1 0.7435897435897439456 1 
	0.7692307692307696065 1 0.7948717948717952675 1 0.8205128205128209284 1 0.8461538461538465894 1 0.8717948717948722503 1 
	0.8974358974358979113 1 0.9230769230769235723 1 0.9487179487179492332 1 0.9743589743589748942 1 1.000000000000000444 3 
	-1.191870087323772934e-07 3 0.1000418327985495848 3 
	3808.360430534848092 3095.643141730668958 13510.00000000014006 
	3809.669360897280512 3069.497340621545845 13509.99998045505527 
	3812.287199019799118 3017.206189883756451 13514.20473505409427 
	3816.113309725629733 2940.779870801282868 13532.96452861431681 
	3819.740678187590674 2868.323415455790837 13563.69603353163984 
	3823.076332822289714 2801.693925338860026 13605.61152371900062 
	3826.034768006914874 2742.599369851846859 13657.63655965522412 
	3828.540149103156637 2692.554541093227726 13718.43755906677325 
	3830.528254408976409 2652.842263494832878 13786.45598127088488 
	3831.948121907135828 2624.480500124020182 13859.94827798366532 
	3832.76335545838856 2608.196261557688558 13937.03058651526226 
	3832.953057798446935 2604.406969326819308 14015.72701971034257 
	3832.512366197337997 2613.209756154694333 14094.02031479506695 
	3831.452577110755101 2634.378976054114901 14169.90354282483531 
	3829.80085661196108 2667.37198843181568 14241.43155324008876 
	3827.599544031214919 2711.343067846735721 14306.77083482764647 
	3824.905066651710513 2765.165082890026497 14364.24651497806008 
	3821.786493282436368 2827.458388475539778 14412.38529248482155 
	3818.323763784826951 2896.626190932853206 14449.95320336879195 
	3814.605639936608895 2970.895479372193677 14475.98725165863107 
	3810.727430159305186 3048.362474108490915 14489.82009432056111 
	3806.788546432535895 3127.041427143565215 14491.09714757692745 
	3802.889956019867896 3204.915523780768126 14479.78567611940707 
	3799.131593327361315 3279.988580586921671 14456.17563222856188 
	3795.609798237804625 3350.336214503375231 14420.87222329033284 
	3792.414846585102168 3414.155171464200976 14374.78039822983555 
	3789.62863607124109 3469.809550057824254 14319.08165052886761 
	3787.322586943902479 3515.872735359135277 14255.2037324465291 
	3785.555811247567362 3551.163968022527115 14184.78405677240698 
	3784.37359757663171 3574.778611242603347 14109.62772425260482 
	3783.806250171458032 3586.111339736935861 14031.66125259131331 
	3783.868312115694607 3584.871656330557016 13952.88319311412488 
	3784.558192545825023 3571.091338421441833 13875.31290096014891 
	3785.858207433224379 3545.123623361613681 13800.93877199793678 
	3787.735032877139474 3507.634153958601928 13731.66727334329516 
	3790.140559349499199 3459.58391498933679 13669.27407396452327 
	3793.01312476897283 3402.204602624080962 13615.35852821352819 
	3796.279095637257797 3336.967041328934101 13571.30267848237418 
	3799.854752569033735 3265.543520524627183 13538.23582992536467 
	3803.648443596268862 3189.764782469269903 13517.00559772191264 
	3806.258085422232853 3137.637352236227343 13511.10599750287111 
	3807.566321929112746 3111.505410847853909 13510.25746935761345 
	3924.93006683108797 3101.478937151793161 13510.00000000014188 
	3925.368447809429654 3075.262661539191413 13509.99998041480649 
	3926.245202127494849 3022.830564384522859 13514.21339492344487 
	3927.526418550792641 2946.202379327634844 13533.01149165286188 
	3928.740669662821801 2873.562817769269714 13563.80463887918086 
	3929.85664234609203 2806.777492501533288 13605.80190529898573 
	3930.845554238869227 2747.56187720142907 13657.92453893472339 
	3931.681900515227881 2697.436977034698884 13718.83370557863782 
	3932.344111015465842 2657.690299087656967 13786.96487869124394 
	3932.815106737593396 2629.342770730946995 13860.5680265187093 
	3933.082740272783667 2613.122518817046057 13937.75256415662079 
	3933.140109110825961 2609.446166304617236 14016.53591589232019 
	3932.985733658686513 2618.408131261710878 14094.89444042314972 
	3932.623595401447801 2639.778201896394421 14170.81541085439676 
	3932.063034215882908 2673.007450220734881 14242.34871428832048 
	3931.318507486538692 2717.242332350185279 14307.65694301976873 
	3930.409217236576751 2771.346613264597181 14365.06259066996245 
	3929.358614890036733 2833.930552844139129 14413.0911409559103 
	3928.193796438222307 2903.386603484988427 14450.50894229942242 
	3926.944803609356313 2977.930702338288938 14476.35489541552488 
	3925.643849065020277 3055.648097511397737 14489.9651399458362 
	3924.324485606247435 3134.542531110031177 14490.99010603474926 
	3923.020740816208217 3212.587515776496275 14479.40349286692799 
	3921.766239457855136 3287.778387606855631 14455.50294355456572 
	3920.593336260667002 3358.18379839014051 14419.90239905654198 
	3919.532281462742048 3421.995324517461995 14373.51632754946877 
	3918.610440629644927 3477.573918288260757 14317.53623436256203 
	3917.851588871617423 3523.49200845185851 14253.40005587396809 
	3917.275297661894001 3558.570168581851703 14182.75522355164139 
	3916.896430070687529 3581.907411416811101 14107.41634691282343 
	3916.724757433149534 3592.904331032495975 14029.31860239537127 
	3916.764707337927121 3591.278498419605512 13950.46802543193007 
	3917.015249435485657 3577.071715055872119 13872.88998256110426 
	3917.469922012811821 3550.648938091981563 13798.57714715230395 
	3918.116998643594798 3512.688905111627719 13729.43831507737741 
	3918.939790636306952 3464.166698095289121 13667.24937504298214 
	3919.917077403341864 3406.328699017675262 13613.60769309582247 
	3921.023653936837491 3340.660563491522225 13569.89108255386964 
	3922.230980206702498 3268.849098256921934 13537.22241490416491 
	3923.507919705404674 3192.738786163837176 13516.44077455875049 
	3924.383662077652389 3140.436231843439145 13510.86687230776079 
	3924.822002627329312 3114.230019035354871 13510.18583116160698 
	4041.791664032993594 3101.47893752773598 13510.00000000014006 
	4041.354623756471483 3075.235702377330199 13509.99998037454861 
	4040.480550750272869 3022.74968799259932 13514.22205479279364 
	4039.203046555541732 2946.046855490186317 13533.05845469141059 
	4037.991901312190294 2873.344839489945571 13563.91324422672005 
	4036.878157702798035 2806.514690831664211 13605.99228687896539 
	4035.890365541175925 2747.276559388271835 13658.2125182142172 
	4035.053845520543291 2697.155152962804095 13719.22985209050239 
	4034.390040801773466 2657.440532401024029 13787.47377611159754 
	4033.915967170302338 2629.154896265164552 13861.1877750537551 
	4033.643776904832976 2613.026273481674252 13938.47454179798297 
	4033.58044725649961 2609.469784079466535 14017.34481207429599 
	4033.727601599254285 2618.576954904200647 14095.76856605123066 
	4034.081467815858105 2640.113364085132616 14171.72727888395821 
	4034.632974991642186 2673.524675202869275 14243.2658753365522 
	4035.367985935917204 2717.950905746116405 14308.54305121188918 
	4036.267659571067725 2772.248562611901434 14365.87866636186118 
	4037.308933899814747 2835.020074882093013 14413.79698942700088 
	4038.465117170422673 2904.649766290897333 14451.06468123004925 
	4039.706572086080996 2979.345441469833077 14476.72253917242051 
	4041.001475519584346 3057.184515563961668 14490.11018557111129 
	4042.316634259027524 3136.16349987161766 14490.88306449257107 
	4043.618335873863998 3214.249569780279217 14479.02130961444345 
	4044.873212890468494 3289.432887676865903 14454.83025488057319 
	4046.049098125149612 3359.778334080936474 14418.9325748227584 
	4047.115849249241819 3423.475315484017756 14372.25225686910562 
	4048.046121449564907 3478.884366885650707 14315.99081819625644 
	4048.816068378097043 3524.579349521932272 14251.59637930139797 
	4049.405953422914081 3559.384157662173948 14180.72639033087398 
	4049.800655631183872 3582.402989684244403 14105.20496957303294 
	4049.990057315628746 3593.043404294850916 14026.97595219942741 
	4049.969303408444375 3591.031568460509334 13948.05285774972617 
	4049.738925914968604 3576.419304626315352 13870.46706416206143 
	4049.304830275355926 3549.582755770324184 13796.21552230666566 
	4048.67814398930841 3511.212703007615346 13727.20935681145056 
	4047.874931364020995 3462.296783767527359 13665.22467612143737 
	4046.915781772617265 3404.094072817675169 13611.85685797812403 
	4045.825281696828824 3338.102663419760574 13568.47948662536146 
	4044.631385135324763 3266.021146542024326 13536.20899988295423 
	4043.364694605477325 3189.704742789701413 13515.87595139558653 
	4042.493355378812794 3137.313647700798356 13510.62774711265411 
	4042.05654645428649 3111.076636168199002 13510.1141929655987 
	4158.361300404110807 3095.643142852873098 13510.00000000013642 
	4157.048341214802349 3069.416866182045851 13509.99998033429074 
	4154.422445714332753 3016.964769829894067 13514.2307146621406 
	4150.585179712117679 2940.315624408467102 13533.10541772994657 
	4146.948478073312799 2867.67273944658109 13564.02184957425561 
	4143.606125041865198 2800.909449278702596 13606.18266845894686 
	4140.644325050181578 2741.747681983695202 13658.50049749370919 
	4138.139466057796199 2691.713282216574953 13719.62599860236332 
	4136.156151399956798 2652.096697508185116 13787.98267353194933 
	4134.745533060462549 2623.919685496037346 13861.80752358879727 
	4133.943992544516732 2607.90896444295231 13939.19651943933241 
	4133.772202518952326 2604.477469559838482 14018.1537082562736 
	4134.234593650155148 2613.71370312728186 14096.64269167930797 
	4135.319240329261447 2635.37945186336583 14172.63914691351602 
	4136.998168248310321 2668.915930737823146 14244.18303638477664 
	4139.228075890196124 2713.458194688389995 14309.42915940400781 
	4141.951451325572634 2767.857446567878924 14366.69474205375445 
	4145.09805551282443 2830.710665967586465 14414.50283789808418 
	4148.586733845222625 2900.396794756679355 14451.62042016067244 
	4152.327509223251582 2975.118546069660624 14477.09018292931069 
	4156.223902669377821 3052.948758439291851 14490.25523119638819 
	4160.175421633858605 3131.880099547588998 14490.77602295038014 
	4164.080151815282079 3209.876837676927607 14478.63912636195892 
	4167.83738564973828 3284.927345614924434 14454.15756620657521 
	4171.350219676819506 3355.095982875920072 14417.96275058896572 
	4174.528053793359504 3418.573018135759412 14370.98818618873884 
	4177.288927936168875 3473.721304321907155 14314.44540202994176 
	4179.561635928046599 3519.118502553547842 14249.79270272883696 
	4181.287561968487353 3553.593765927007098 14178.69755711010293 
	4182.422192403783811 3576.257937028198285 14102.99359223324245 
	4182.936263786360541 3586.526480344605261 14024.63330200347627 
	4182.816517613136966 3584.134558116748394 13945.63769006752045 
	4182.06604227859043 3569.143860828784 13868.04414576301315 
	4180.70419341871002 3541.94101608397068 13793.85389746102737 
	4178.76609471669417 3503.22761723025269 13724.98039854552735 
	4176.301731983890932 3454.002127684093921 13663.19997719988714 
	4173.374664109556761 3395.534132234105527 13610.10602286042013 
	4170.060383271282262 3329.33158234738039 13567.06789069684783 
	4166.444369886615277 3257.101943951991871 13535.19558486174537 
	4162.619880571170143 3180.708012039798177 13515.31112823241892 
	4159.997007233962904 3128.316283207459946 13510.38862191753469 
	4158.6841681730657 3102.092406094024682 13510.04255476958679 
	0 
	
	0 
	0 
	38 0.02564102564102564014 0.05128205128205128027 0.07692307692307692735 0.1025641025641025605 0.1282051282051281937 0.1538461538461538269 0.1794871794871794601 0.2051282051282050933 0.2307692307692307265 0.2564102564102563875 0.2820512820512820484 0.3076923076923077094 0.3333333333333333703 0.3589743589743590313 0.3846153846153846922 0.4102564102564103532 0.4358974358974360142 0.4615384615384616751 0.4871794871794873361 0.512820512820512997 0.538461538461538658 0.5641025641025643189 0.5897435897435899799 0.6153846153846156408 0.6410256410256413018 0.6666666666666669627 0.6923076923076926237 0.7179487179487182846 0.7435897435897439456 0.7692307692307696065 0.7948717948717952675 0.8205128205128209284 0.8461538461538465894 0.8717948717948722503 0.8974358974358979113 0.9230769230769235723 0.9487179487179492332 0.9743589743589748942 
	0 
	0 
	0 
	F 1 F 0 F 1 F 0 } I I I I #
tcoedge-coedge $-1 -1 $-1 $7 $8 $-1 $9 forward $4 $10 0 6.250766387756696574 #
coedge $-1 -1 $-1 $11 $6 $-1 $12 forward $4 $13 #
coedge $-1 -1 $-1 $6 $11 $-1 $14 forward $4 $15 #
tedge-edge $-1 -1 $-1 $16 0 $17 6.250766387756696574 $6 $18 forward @7 unknown 0.0008503927493669906053 #
pcurve $-1 -1 $-1 0 forward { exppc nubs 1 open 2 
	0 1 6.250766387756696574 1 
	0 0 
	0.9999999999999987788 1.521039495462423018e-16 
	6.692570146062289645e-08 
	spline forward { ref 0 } I I I I 
	} 0 0 #
tcoedge-coedge $-1 -1 $-1 $8 $7 $-1 $19 forward $4 $20 1.103493639655126032e-15 6.270005910518960057 #
edge $-1 -1 $-1 $17 -1.597735222710137126 $21 -1.482133598447127998 $7 $22 forward @7 unknown #
pcurve $-1 -1 $-1 0 forward { exppc nubs 3 open 2 
	-1.597735222710137126 3 -1.482133598447127998 3 
	1 0 
	0.9999999975120993367 0.03330815819587205212 
	1.000000000000000444 0.06667390754964827582 
	0.999999999999999778 0.100041713611540628 
	1.909605271297080775e-06 
	spline forward { ref 0 } I I I I 
	} 0 0 #
edge $-1 -1 $-1 $23 -0.1000208620216468947 $16 -1.830985469789654261e-26 $8 $24 forward @7 unknown #
pcurve $-1 -1 $-1 0 forward { exppc nubs 1 open 2 
	-0.1000208620216467698 1 -1.830985469789654261e-26 1 
	0 0.1000417136115407807 
	2.813002743056309793e-16 6.911630501501093998e-17 
	0.0009308921391565907685 
	spline forward { ref 0 } I I I I 
	} 0 0 #
tvertex-vertex $-1 -1 $-1 $9 $25 1.227373675443231999e-11 #
tvertex-vertex $-1 -1 $-1 $9 $26 1.369438494300809884e-11 #
ellipse-curve $-1 -1 $-1 3808.360865421314429 3095.642797989824885 14000.00000000000364 -0.9987492177719097253 -0.04999999999998382127 1.844405981532046896e-12 -9.161055913864402721e-10 2.29026397846610068e-10 -489.9999999999990337 1 F 0 F 6.250766387756696574 #
tedge-edge $-1 -1 $-1 $21 1.103493639655126032e-15 $23 6.270005910518960057 $11 $27 forward @7 unknown 0.0008609630418436872235 #
pcurve $-1 -1 $-1 0 forward { exppc nubs 1 open 2 
	0 1 6.270005910518960945 1 
	0.999999999999999889 0.1000417136115408223 
	1.045870736371852424e-15 0.1000417136115408084 
	7.864614886555448315e-08 
	spline forward { ref 0 } I I I I 
	} 0 0 #
tvertex-vertex $-1 -1 $-1 $12 $28 1.377741519647228202e-11 #
ellipse-curve $-1 -1 $-1 3889.234680213008687 480.7171549010240597 13510.12130255294323 -0.0006112077300546509603 3.278502056166931599e-05 -0.9999998126751089567 3040.448487844526881 -0.2639981254721661674 -1.858354621903598458 0.8655747821956554233 F -1.597735222710137126 F -1.482133598447127998 #
tvertex-vertex $-1 -1 $-1 $19 $29 1.778402080351210876e-11 #
ellipse-curve $-1 -1 $-1 3983.360865441326496 -400.7094222946697641 13510.00000000173168 1.237562433336977134e-14 4.948185666394026104e-13 1 -175.0000000209283257 3496.352220284723444 -1.728255938360234888e-09 1 F -0.1000208620216468947 F -1.830985469789654261e-26 #
point $-1 -1 $-1 3808.360865420398113 3095.642797990054078 13510.00000000000364 #
point $-1 -1 $-1 3807.566741013913088 3111.505420585885076 13510.2574691015725 #
ellipse-curve $-1 -1 $-1 4158.360865467251642 3095.64279798958205 13999.99999999999818 0.9987492177719162756 -0.04999999999985483418 -9.983723948419561632e-12 0.3228858657628947415 6.449640215053665138 -489.9574449743703326 1 F 1.103493639655126032e-15 F 6.270005910518960057 #
point $-1 -1 $-1 4158.683751333013788 3102.092438204635982 13510.04255502563137 #
point $-1 -1 $-1 4158.360865462376751 3095.642797990039526 13510 #
End-of-ACIS-data 