700 0 1 0           
4 LibG 19 ASM 222.0.0.1700 NT 24 Wed Oct  5 17:29:48 2016 
1000 9.999999999999999547e-07 1.000000000000000036e-10 
body $-1 -1 $-1 $1 $-1 $-1 #
lump $-1 -1 $-1 $-1 $2 $0 #
shell $-1 -1 $-1 $-1 $-1 $3 $-1 $1 #
face $-1 -1 $-1 $-1 $4 $2 $-1 $5 forward double out #
loop $-1 -1 $-1 $-1 $6 $3 #
spline-surface $-1 -1 $-1 forward { exactsur full nubs 3 3 open open none none 40 2 
	-1.1918700904682058e-07 3 0.02564102564102564014 1 0.05128205128205128027 1 0.07692307692307692735 1 0.1025641025641025605 1 
	0.1282051282051281937 1 0.1538461538461538269 1 0.1794871794871794601 1 0.2051282051282050933 1 0.2307692307692307265 1 
	0.2564102564102563875 1 0.2820512820512820484 1 0.3076923076923077094 1 0.3333333333333333703 1 0.3589743589743590313 1 
	0.3846153846153846922 1 0.4102564102564103532 1 0.4358974358974360142 1 0.4615384615384616751 1 0.4871794871794873361 1 
	0.512820512820512997 1 0.538461538461538658 1 0.5641025641025643189 1 0.5897435897435899799 1 0.6153846153846156408 1 
	0.6410256410256413018 1 0.6666666666666669627 1 0.6923076923076926237 1 0.7179487179487182846 1 0.7435897435897439456 1 
	0.7692307692307696065 1 0.7948717948717952675 1 0.8205128205128209284 1 0.8461538461538465894 1 0.8717948717948722503 1 
	0.8974358974358979113 1 0.9230769230769235723 1 0.9487179487179492332 1 0.9743589743589748942 1 1.000000000000000444 3 
	-1.1918700904682058e-07 3 0.1000418327985498901 3 
	6258.360467334255191 3095.643183446116382 13510.00000000014006 
	6257.051543204299378 3069.497382024978833 13509.9999804550589 
	6254.43371754662985 3017.206230663166025 13514.20473505409791 
	6250.607625058848498 2940.779910668648881 13532.96452861431317 
	6246.980273868619406 2868.323454458489323 13563.69603353163984 
	6243.644635116659629 2801.693963546426403 13605.61152371900062 
	6240.686214018638566 2742.599407354201958 13657.63655965522412 
	6238.18084485178224 2692.554577998367222 13718.43755906677143 
	6236.192749012335298 2652.84229992606015 13786.45598127088306 
	6234.772888274880643 2624.480536216787186 13859.9482779836635 
	6233.957658605364486 2608.196297456126558 13937.03058651526226 
	6233.767957168573048 2604.407005180038141 14015.72701971034076 
	6234.208646671324459 2613.209792112962077 14094.02031479506513 
	6235.268430711714245 2634.379012265009351 14169.90354282483167 
	6236.920143345831093 2667.372025036434479 14241.43155324008694 
	6239.121445445013705 2711.343104976090217 14306.77083482764647 
	6241.815909994745198 2765.165120661673427 14364.24651497805826 
	6244.934468514916261 2827.458426990572207 14412.38529248481973 
	6248.39718152471778 2896.626230273306646 14449.95320336879195 
	6252.115287669066674 2970.895519598950159 14475.98725165863107 
	6255.993478980250984 3048.362515259707834 14489.82009432056111 
	6259.932343952005795 3127.041469233709449 14491.09714757692745 
	6263.830915801512674 3204.915566800231318 14479.78567611940707 
	6267.589260598553665 3279.98862450227989 14456.17563222855642 
	6271.111038919065322 3350.33625925823435 14420.87222329033284 
	6274.30597535898778 3414.155216980654131 14374.78039822983192 
	6277.092172606296117 3469.809596238434096 14319.08165052886761 
	6279.398210753366584 3515.872782089446446 14255.20373244653092 
	6281.164978037192668 3551.16401517398981 14184.78405677240698 
	6282.347186079011408 3574.77865867587434 14109.62772425260482 
	6282.914530782760266 3586.111387305446442 14031.6612525913115 
	6282.852469134034436 3584.871703884276485 13952.88319311412488 
	6282.162591988775603 3571.091385810710563 13875.31290096014709 
	6280.862583291404007 3545.123670440994374 13800.93877199793133 
	6278.985766784006955 3507.634200590597175 13731.66727334329335 
	6276.580251765576577 3459.583961047916091 13669.27407396452145 
	6273.707700023840516 3402.204647997917618 13615.35852821352637 
	6270.441744706498866 3336.967085924249204 13571.30267848237418 
	6266.866104800231369 3265.543564267601596 13538.23582992536467 
	6263.072431836674696 3189.76482530793055 13517.00559772191082 
	6260.462802436541097 3137.637394452819535 13511.10599750287111 
	6259.154572158835435 3111.505452752595829 13510.25746935761708 
	6374.930105060207097 3089.807416583453232 13510.00000000014916 
	6372.747945657559285 3063.678439082993009 13509.99998041481012 
	6368.383664602098179 3011.420936645160964 13514.21339492344487 
	6362.005240954794317 2935.047931123503076 13533.01149165286552 
	6355.958550282693068 2862.650294138097706 13563.80463887918086 
	6350.398763965565195 2796.087437812253938 13605.80190529898755 
	6345.468576352793207 2737.069133090712512 13657.92453893472521 
	6341.29452041452987 2687.11132740588755 13718.83370557863964 
	6337.983723511401877 2647.497244626669271 13786.96487869124758 
	6335.621157077713178 2619.244413250836715 13860.5680265187093 
	6334.267456054120885 2603.07853271811382 13937.75256415662079 
	6333.957362628369992 2599.414832260036292 14016.53591589232019 
	6334.69883460255096 2608.347405628551314 14094.89444042315336 
	6336.472841169610547 2629.646794440175199 14170.81541085439858 
	6339.233851367079296 2662.765882527452959 14242.34871428832048 
	6342.911002663889121 2706.853949795111475 14307.65694301977055 
	6347.409919689312119 2760.778524597538308 14365.06259066996063 
	6352.615136424521552 2823.154473306361979 14413.09114095591212 
	6358.393059689673464 2892.379579845765875 14450.50894229942242 
	6364.595397866875828 2966.675701265884072 14476.35489541552488 
	6371.062966858902655 3044.134442196478176 14489.9651399458362 
	6377.629775601742949 3122.766174949360447 14490.99010603474926 
	6384.127286274320795 3200.551146101413451 14479.40349286692981 
	6390.388739865172283 3275.491356797657772 14455.50294355456572 
	6396.253436078644881 3345.661884142096369 14419.90239905654562 
	6401.570857735156096 3409.260325403726711 14373.51632754947241 
	6406.204533811574038 3464.653094986766064 14317.53623436256385 
	6410.03554197557969 3510.417384959522224 14253.40005587396809 
	6412.965560720979738 3545.377711328355417 14182.75522355164139 
	6414.91939277036181 3568.636107320176961 14107.41634691282343 
	6415.846894982421873 3579.595188129027065 14029.31860239537309 
	6415.724265232638572 3577.973494685587411 13950.46802543193007 
	6414.554653242551467 3563.812722366277285 13872.88998256110426 
	6412.368079674585715 3537.476648899112206 13798.57714715230577 
	6409.220665597643347 3499.641789355775927 13729.43831507737923 
	6405.193192000179806 3451.280017088606655 13667.24937504298032 
	6400.389026699752321 3393.633601566969901 13613.60769309582429 
	6394.931470451651876 3328.183287473724249 13569.89108255386964 
	6388.960595617157196 3256.610297948535845 13537.22241490416491 
	6382.629638951626475 3180.753003183368946 13516.44077455875049 
	6378.277289090518934 3128.624496933648061 13510.86687230776261 
	6376.096094483162233 3102.505535961493933 13510.18583116160698 
	6491.207394313650184 3078.135874078216148 13510.00000000014916 
	6488.151498180686758 3052.067504466993796 13509.99998037455589 
	6482.039758958447237 2999.931218127308057 13514.22205479279 
	6473.107952888419277 2923.739490418927744 13533.05845469140695 
	6464.641755210217525 2851.521947535126401 13563.91324422672369 
	6456.858924449267761 2785.137184676005745 13605.99228687897084 
	6449.959667504317622 2726.29389955470424 13658.21251821421902 
	6444.121458537680155 2676.506647532990428 13719.22985209050603 
	6439.494478220488418 2637.056897518379174 13787.47377611159936 
	6436.197749260687488 2608.960037630060469 13861.1877750537551 
	6434.316075007671316 2592.939242941959037 13938.47454179798478 
	6433.897857906731588 2589.406861030438904 14017.34481207429963 
	6434.953854451504412 2598.453798972574532 14095.76856605123248 
	6437.456898519332753 2619.847183746899645 14171.72727888396003 
	6441.34260024359628 2653.036356573008561 14243.2658753365522 
	6446.51100243350902 2697.1670468029738 14308.543051211891 
	6452.829151932642162 2751.103360550492653 14365.87866636186118 
	6460.134519767563688 2813.457018067202171 14413.79698942700088 
	6468.239182104644897 2882.623087305250465 14451.06468123005106 
	6476.934654461315404 2956.82129389569991 14476.72253917242051 
	6485.997254814011285 3034.141844240227329 14490.11018557111311 
	6495.193857639527778 3112.594582250119856 14490.88306449257107 
	6504.287890870305091 3190.160214462277509 14479.02130961444709 
	6513.045421495698974 3264.842285025508318 14454.83025488057319 
	6521.24117326119449 3334.71856275172695 14418.9325748227584 
	6528.664321664742602 3397.990517562717287 14372.25225686910562 
	6535.123917178551892 3453.029612844103212 14315.99081819625644 
	6540.453797188846693 3498.419222177945358 14251.59637930140343 
	6544.5168602989188 3532.991091554775267 14180.72639033087398 
	6547.208593043754263 3555.855408564559639 14105.20496957303658 
	6548.45975829668896 3566.423704623693993 14026.97595219942741 
	6548.238176212455073 3564.424000763381628 13948.05285774972799 
	6546.549551899019207 3549.907807182498345 13870.46706416206325 
	6543.437328519842595 3523.248796338838019 13796.21552230666566 
	6538.981569646964999 3485.133184083740161 13727.20935681145238 
	6533.296899477039005 3436.542065237974384 13665.22467612143737 
	6526.529554430258031 3378.726162833284889 13611.85685797812584 
	6518.853620003262222 3313.173624092127284 13568.47948662536146 
	6510.466557064819426 3241.571755124469746 13536.20899988295605 
	6501.58410513254239 3165.763444008491206 13515.87595139558834 
	6495.484566078185708 3113.721329332140158 13510.62774711265411 
	6492.429521723794096 3087.659129114371353 13510.1141929655987 
	6606.611332966255759 3060.686875062567651 13510.00000000014734 
	6602.685591241888687 3034.722861471423585 13509.99998033429802 
	6594.834176198695786 2982.795286708737876 13514.2307146621406 
	6583.360769123239152 2906.912633656226717 13533.10541772995202 
	6572.487048539393072 2834.996178410851371 13564.02184957425561 
	6562.493428889997631 2768.900521941379793 13606.1826684589505 
	6553.637661017480241 2710.330373025336939 13658.50049749371101 
	6546.148144557147134 2660.796317852980792 13719.62599860236332 
	6540.218043173769729 2621.575899464442955 13787.98267353194933 
	6536.000301055343698 2593.680657908671492 13861.80752358879909 
	6533.603698729206371 2577.83004425718218 13939.19651943933786 
	6533.090047370736102 2574.432864363850513 14018.1537082562736 
	6534.472594651350846 2583.576735485396057 14096.64269167931161 
	6537.715683057321257 2605.025826475567101 14172.63914691352147 
	6542.735669541043535 2638.226940161070161 14244.18303638478028 
	6549.403082772560992 2682.323780940578672 14309.42915940401144 
	6557.545962356964083 2736.179039652092342 14366.69474205376173 
	6566.95429389426954 2798.403726107736929 14414.50283789808964 
	6577.385425496770949 2867.392992777329255 14451.6204201606779 
	6588.570326065348127 2941.367525685479904 14477.0901829293125 
	6600.220523916563252 3018.419435002616865 14490.25523119639001 
	6612.035546805183913 3096.561461757894449 14490.7760229503856 
	6623.710671455241936 3173.778231575154678 14478.63912636196255 
	6634.944782730172847 3248.078233538148652 14454.15756620657885 
	6645.44813974477438 3317.545183589166299 14417.96275058896936 
	6654.949848621956335 3380.387447738896299 14370.98818618874066 
	6663.204849163040308 3434.984250405063449 14314.44540202994722 
	6670.000235237243942 3479.927476112637123 14249.7927027288406 
	6675.160745880158174 3514.057986440945569 14178.69755711010475 
	6678.553285479153601 3536.495515560658532 14102.99359223324427 
	6680.090356465310833 3546.661373321359406 14024.63330200348173 
	6679.732315977546932 3544.293370344327286 13945.63769006752409 
	6677.488398300652989 3529.452580208134805 13868.04414576301497 
	6673.416476694064841 3502.521764235400497 13793.85389746102737 
	6667.62157080331599 3464.195499832210771 13724.98039854552735 
	6660.253137966306895 3415.46226576895242 13663.19997719989078 
	6651.501218959309881 3357.578950971198537 13610.10602286042013 
	6641.591535033840955 3292.038427373377999 13567.06789069685146 
	6630.779672231361474 3220.531086223905731 13535.19558486174719 
	6619.344467388511475 3144.901094542489773 13515.31112823242074 
	6611.502088599087074 3093.033283623698935 13510.38862191753469 
	6607.576706058096534 3067.071645594345682 13510.04255476958679 
	0 
	
	0 
	0 
	38 0.02564102564102564014 0.05128205128205128027 0.07692307692307692735 0.1025641025641025605 0.1282051282051281937 0.1538461538461538269 0.1794871794871794601 0.2051282051282050933 0.2307692307692307265 0.2564102564102563875 0.2820512820512820484 0.3076923076923077094 0.3333333333333333703 0.3589743589743590313 0.3846153846153846922 0.4102564102564103532 0.4358974358974360142 0.4615384615384616751 0.4871794871794873361 0.512820512820512997 0.538461538461538658 0.5641025641025643189 0.5897435897435899799 0.6153846153846156408 0.6410256410256413018 0.6666666666666669627 0.6923076923076926237 0.7179487179487182846 0.7435897435897439456 0.7692307692307696065 0.7948717948717952675 0.8205128205128209284 0.8461538461538465894 0.8717948717948722503 0.8974358974358979113 0.9230769230769235723 0.9487179487179492332 0.9743589743589748942 
	0 
	0 
	0 
	F 1 F 0 F 1 F 0 } I I I I #
tcoedge-coedge $-1 -1 $-1 $7 $8 $-1 $9 forward $4 $10 7.814085595768073775e-29 6.250766387756695686 #
coedge $-1 -1 $-1 $11 $6 $-1 $12 forward $4 $13 #
coedge $-1 -1 $-1 $6 $11 $-1 $14 forward $4 $15 #
tedge-edge $-1 -1 $-1 $16 7.814085595768073775e-29 $17 6.250766387756695686 $6 $18 forward @7 unknown 0.0008503927493341160776 #
pcurve $-1 -1 $-1 0 forward { exppc nubs 1 open 2 
	0 1 6.250766387756695686 1 
	0 0 
	0.9999999999999987788 0 
	6.736830224830697572e-08 
	spline forward { ref 0 } I I I I 
	} 0 0 #
tcoedge-coedge $-1 -1 $-1 $8 $7 $-1 $19 forward $4 $20 0 6.270005910518959169 #
edge $-1 -1 $-1 $17 -1.597735222379370823 $21 -1.482133598248875694 $7 $22 forward @7 unknown #
pcurve $-1 -1 $-1 0 forward { exppc nubs 3 open 2 
	-1.597735222379370823 3 -1.482133598248875694 3 
	1 0 
	0.9999999975121028895 0.03330815819596572719 
	1.000000000000000444 0.06667390754957233656 
	1.000000000000000222 0.1000417136115408501 
	2.003542555990431665e-06 
	spline forward { ref 0 } I I I I 
	} 0 0 #
edge $-1 -1 $-1 $23 -0.1000208620216506278 $16 -1.830985469789498428e-26 $8 $24 forward @7 unknown #
pcurve $-1 -1 $-1 0 forward { exppc nubs 1 open 2 
	-0.1000208620216505029 1 -1.830985469789498428e-26 1 
	0 0.1000417136115408501 
	3.983537359002499113e-17 0 
	0.0009308921358195302144 
	spline forward { ref 0 } I I I I 
	} 0 0 #
tvertex-vertex $-1 -1 $-1 $9 $25 1.203369197834016553e-11 #
tvertex-vertex $-1 -1 $-1 $9 $26 1.457015431544318065e-11 #
ellipse-curve $-1 -1 $-1 6258.360865714957981 3095.642797989736664 14000.00000000000364 -0.9987492177719090591 0.04999999999999842765 1.349953892545028012e-12 -6.464716761911404526e-10 3.06992831156094336e-10 -489.9999999999990337 1 F 7.814085595768073775e-29 F 6.250766387756695686 #
tedge-edge $-1 -1 $-1 $21 -2.684899366557484229e-18 $23 6.270005910518959169 $11 $27 forward @7 unknown 0.0008609630417586454408 #
pcurve $-1 -1 $-1 0 forward { exppc nubs 1 open 2 
	0 1 6.270005910518959169 1 
	1 0.1000417136115408084 
	1.019569697594989477e-15 0.1000417136115408501 
	7.773222818207878869e-08 
	spline forward { ref 0 } I I I I 
	} 0 0 #
tvertex-vertex $-1 -1 $-1 $12 $28 1.409272615797817647e-11 #
ellipse-curve $-1 -1 $-1 6077.664816546124712 485.7145112136077501 13510.12130255288685 -0.0006048772900403445816 9.366541968742739439e-05 -0.9999998126751089567 3025.219882159748067 -303.9272325890095772 -1.858354624007924505 0.8655747831866317243 F -1.597735222379370823 F -1.482133598248875694 #
tvertex-vertex $-1 -1 $-1 $19 $29 2.110179765940638679e-11 #
ellipse-curve $-1 -1 $-1 6083.287961228676068 -400.705772506222047 13510.00000000173168 6.173371184871542986e-14 4.911084592939441091e-13 1 175.0729044856359167 3496.348570496265893 -1.728255938360234888e-09 1 F -0.1000208620216506278 F -1.830985469789498428e-26 #
point $-1 -1 $-1 6258.36086571431224 3095.642797990043618 13510.00000000000364 #
point $-1 -1 $-1 6259.154990120798175 3111.505420585875072 13510.2574691015725 #
ellipse-curve $-1 -1 $-1 6606.610865760399975 3060.686575362949952 13999.99999999999818 0.9887617255942173777 -0.149499999999818306 -8.982859986365820217e-12 0.9654287488877941747 6.385143813319447581 -489.9574449743703326 1 F -2.684899366557484229e-18 F 6.270005910518959169 #
point $-1 -1 $-1 6607.576294509289255 3067.071719176268743 13510.04255502563137 #
point $-1 -1 $-1 6606.610865756078965 3060.68657536381852 13510 #
End-of-ACIS-data 