700 0 1 0           
4 LibG 19 ASM 222.0.0.1700 NT 24 Wed Oct  5 17:29:48 2016 
1000 9.999999999999999547e-07 1.000000000000000036e-10 
body $-1 -1 $-1 $1 $-1 $-1 #
lump $-1 -1 $-1 $-1 $2 $0 #
shell $-1 -1 $-1 $-1 $-1 $3 $-1 $1 #
face $-1 -1 $-1 $-1 $4 $2 $-1 $5 forward double out #
loop $-1 -1 $-1 $-1 $6 $3 #
spline-surface $-1 -1 $-1 forward { exactsur full nubs 3 3 open open none none 40 2 
	-1.191870089077082827e-07 3 0.02564102564102564014 1 0.05128205128205128027 1 0.07692307692307692735 1 0.1025641025641025605 1 
	0.1282051282051281937 1 0.1538461538461538269 1 0.1794871794871794601 1 0.2051282051282050933 1 0.2307692307692307265 1 
	0.2564102564102563875 1 0.2820512820512820484 1 0.3076923076923077094 1 0.3333333333333333703 1 0.3589743589743590313 1 
	0.3846153846153846922 1 0.4102564102564103532 1 0.4358974358974360142 1 0.4615384615384616751 1 0.4871794871794873361 1 
	0.512820512820512997 1 0.538461538461538658 1 0.5641025641025643189 1 0.5897435897435899799 1 0.6153846153846156408 1 
	0.6410256410256413018 1 0.6666666666666669627 1 0.6923076923076926237 1 0.7179487179487182846 1 0.7435897435897439456 1 
	0.7692307692307696065 1 0.7948717948717952675 1 0.8205128205128209284 1 0.8461538461538465894 1 0.8717948717948722503 1 
	0.8974358974358979113 1 0.9230769230769235723 1 0.9487179487179492332 1 0.9743589743589748942 1 1.000000000000000444 3 
	-1.191870089077082827e-07 3 0.1000418327985497513 3 
	1008.36043019897204 3095.643141730678508 13510.00000000013461 
	1009.669360561405824 3069.497340621558124 13509.99998045506072 
	1012.287198683926363 3017.20618988376691 13514.20473505409063 
	1016.113309389753681 2940.779870801293328 13532.96452861431681 
	1019.740677851718146 2868.32341545580266 13563.69603353164348 
	1023.076332486413776 2801.693925338871395 13605.61152371900062 
	1026.034767671039617 2742.599369851857318 13657.63655965522594 
	1028.540148767282972 2692.55454109323955 13718.43755906677507 
	1030.528254073101834 2652.842263494843337 13786.45598127088851 
	1031.94812157125989 2624.480500124030641 13859.94827798366532 
	1032.763355122513531 2608.196261557699472 13937.03058651526408 
	1032.95305746257236 2604.406969326829312 14015.72701971034439 
	1032.512365861462058 2613.209756154705701 14094.02031479506877 
	1031.452576774879844 2634.378976054128543 14169.90354282483713 
	1029.800856276086279 2667.371988431826594 14241.43155324008876 
	1027.599543695338753 2711.34306784674709 14306.77083482765011 
	1024.905066315836621 2765.165082890037866 14364.2465149780619 
	1021.78649294656168 2827.458388475551146 14412.38529248482337 
	1018.323763448953173 2896.626190932864574 14449.95320336879377 
	1014.605639600734435 2970.895479372204591 14475.98725165863289 
	1010.727429823430839 3048.362474108502283 14489.82009432056111 
	1006.788546096661207 3127.041427143577039 14491.09714757692745 
	1002.889955683995822 3204.91552378077904 14479.78567611940889 
	999.1315929914874232 3279.988580586932585 14456.17563222856006 
	995.6097979019330069 3350.336214503385236 14420.87222329033466 
	992.4148462492281624 3414.155171464213254 14374.78039822983555 
	989.6286357353691301 3469.809550057834713 14319.08165052887307 
	987.3225866080287005 3515.872735359146645 14255.20373244653092 
	985.5558109116951755 3551.163968022538938 14184.7840567724088 
	984.3735972407580448 3574.778611242614261 14109.62772425260846 
	983.806249835586982 3586.111339736947684 14031.66125259131331 
	983.8683117798217381 3584.871656330569294 13952.88319311412488 
	984.5581922099527219 3571.091338421453202 13875.31290096014709 
	985.8582070973516238 3545.12362336162505 13800.93877199793678 
	987.7350325412666052 3507.634153958613297 13731.66727334329698 
	990.1405590136280352 3459.58391498934725 13669.27407396452691 
	993.0131244330993923 3402.204602624092331 13615.35852821352819 
	996.2790953013833359 3336.96704132894547 13571.30267848237781 
	999.8547522331607524 3265.543520524638552 13538.23582992536831 
	1003.648443260396107 3189.764782469282181 13517.00559772191446 
	1006.258085086358051 3137.637352236239622 13511.10599750287111 
	1007.566321593238285 3111.505410847865278 13510.25746935761345 
	1124.930066495212941 3101.478937151803166 13510.00000000013642 
	1125.368447473555761 3075.262661539202782 13509.99998041480831 
	1126.245201791622776 3022.830564384531954 13514.21339492344487 
	1127.52641821491693 2946.202379327645303 13533.01149165286188 
	1128.740669326949501 2873.562817769280173 13563.80463887917904 
	1129.856642010216092 2806.777492501544202 13605.80190529898391 
	1130.84555390299397 2747.561877201439529 13657.92453893472339 
	1131.681900179354216 2697.436977034708889 13718.83370557863782 
	1132.34411067959195 2657.690299087666517 13786.96487869124394 
	1132.815106401717003 2629.342770730957 13860.56802651870748 
	1133.082739936908865 2613.122518817056971 13937.75256415661897 
	1133.140108774951386 2609.446166304627695 14016.53591589231655 
	1132.985733322811939 2618.408131261721792 14094.89444042314972 
	1132.623595065573227 2639.778201896405335 14170.81541085439676 
	1132.063033880007424 2673.007450220744886 14242.34871428832048 
	1131.318507150664118 2717.242332350195738 14307.65694301976691 
	1130.409216900703314 2771.34661326460764 14365.06259066996063 
	1129.358614554163069 2833.930552844150043 14413.09114095590849 
	1128.193796102349097 2903.386603485000251 14450.50894229942242 
	1126.944803273482876 2977.930702338298943 14476.35489541552488 
	1125.643848729145702 3055.648097511407741 14489.96513994583438 
	1124.324485270373088 3134.542531110042091 14490.99010603474744 
	1123.020740480335917 3212.587515776505825 14479.40349286692617 
	1121.76623912198238 3287.778387606865635 14455.5029435545639 
	1120.593335924795383 3358.183798390150059 14419.90239905654198 
	1119.532281126868611 3421.995324517472909 14373.51632754946877 
	1118.610440293773991 3477.573918288270761 14317.53623436256021 
	1117.85158853574444 3523.492008451869879 14253.40005587396627 
	1117.275297326022837 3558.570168581861708 14182.75522355163957 
	1116.896429734814546 3581.907411416820651 14107.41634691281979 
	1116.72475709727928 3592.904331032507343 14029.31860239537127 
	1116.764707002055275 3591.278498419615516 13950.46802543192825 
	1117.015249099614039 3577.071715055883033 13872.88998256110244 
	1117.469921676939748 3550.648938091991113 13798.57714715230395 
	1118.116998307722497 3512.688905111638178 13729.43831507737741 
	1118.939790300435789 3464.166698095299125 13667.2493750429785 
	1119.917077067468654 3406.328699017685722 13613.60769309582247 
	1121.023653600963826 3340.660563491532685 13569.891082553866 
	1122.230979870830879 3268.849098256932393 13537.22241490416309 
	1123.507919369532829 3192.738786163847635 13516.44077455875049 
	1124.383661741778042 3140.436231843450514 13510.86687230775715 
	1124.822002291455192 3114.23001903536624 13510.18583116160517 
	1241.791663697118338 3101.47893752774371 13510.00000000013461 
	1241.354623420599864 3075.235702377339749 13509.99998037454861 
	1240.480550414399204 3022.749687992610234 13514.22205479278819 
	1239.203046219668067 2946.046855490195867 13533.05845469140513 
	1237.991900976315492 2873.34483948995512 13563.9132442267146 
	1236.87815736692437 2806.514690831674216 13605.99228687896357 
	1235.890365205300668 2747.276559388283204 13658.21251821420992 
	1235.053845184668489 2697.155152962814554 13719.22985209049875 
	1234.390040465897982 2657.440532401033579 13787.47377611159573 
	1233.915966834428673 2629.154896265173647 13861.18777505375147 
	1233.643776568958174 2613.026273481684257 13938.47454179798115 
	1233.580446920625491 2609.469784079477449 14017.34481207429417 
	1233.727601263379256 2618.576954904210652 14095.76856605122703 
	1234.081467479982621 2640.113364085142166 14171.72727888395275 
	1234.632974655766702 2673.52467520287928 14243.26587533654674 
	1235.367985600042402 2717.950905746127319 14308.54305121188554 
	1236.267659235192468 2772.248562611911893 14365.87866636185936 
	1237.308933563940627 2835.020074882103017 14413.79698942699906 
	1238.465116834548098 2904.649766290907337 14451.06468123004743 
	1239.706571750207104 2979.345441469843536 14476.72253917241869 
	1241.001475183709545 3057.184515563970308 14490.11018557110765 
	1242.31663392315636 3136.163499871628119 14490.88306449256197 
	1243.618335537992152 3214.249569780288766 14479.02130961443982 
	1244.873212554594147 3289.432887676876817 14454.83025488057137 
	1246.049097789278449 3359.778334080946479 14418.93257482275476 
	1247.115848913370428 3423.475315484026851 14372.25225686910198 
	1248.046121113692152 3478.884366885660711 14315.9908181962528 
	1248.816068042224742 3524.579349521942731 14251.59637930139797 
	1249.405953087040643 3559.384157662184862 14180.72639033087034 
	1249.800655295313618 3582.402989684253498 14105.2049695730293 
	1249.990056979756446 3593.043404294859556 14026.97595219942377 
	1249.969303072573439 3591.031568460519793 13948.05285774972072 
	1249.738925579096758 3576.419304626323992 13870.46706416205598 
	1249.304829939483625 3549.582755770333733 13796.21552230666384 
	1248.678143653437928 3511.212703007625805 13727.20935681144874 
	1247.874931028148239 3462.296783767537363 13665.22467612143373 
	1246.915781436744965 3404.094072817686083 13611.85685797812039 
	1245.825281360954932 3338.102663419770579 13568.47948662535964 
	1244.631384799451553 3266.021146542033421 13536.20899988294877 
	1243.364694269604115 3189.704742789710508 13515.87595139558107 
	1242.493355042939584 3137.313647700808815 13510.62774711264501 
	1242.056546118412143 3111.076636168208097 13510.1141929655987 
	1358.361300068235778 3095.643142852882647 13510.00000000013097 
	1357.048340878929139 3069.416866182054491 13509.9999803342871 
	1354.422445378457269 3016.964769829904526 13514.23071466213332 
	1350.585179376243104 2940.315624408476651 13533.10541772994657 
	1346.948477737438907 2867.672739446590185 13564.02184957425015 
	1343.606124705991988 2800.909449278711691 13606.18266845894323 
	1340.644324714306094 2741.747681983704297 13658.50049749370555 
	1338.139465721920942 2691.713282216584957 13719.62599860235969 
	1336.156151064081769 2652.096697508193756 13787.98267353194569 
	1334.745532724588202 2623.919685496045531 13861.80752358879181 
	1333.94399220864284 2607.908964442962315 13939.19651943933059 
	1333.772202183077752 2604.477469559848032 14018.15370825626633 
	1334.234593314280573 2613.713703127291865 14096.64269167930252 
	1335.3192399933871 2635.37945186337447 14172.63914691351238 
	1336.99816791243461 2668.915930737831331 14244.18303638477482 
	1339.228075554322459 2713.458194688399999 14309.42915940400417 
	1341.951450989697378 2767.857446567888474 14366.69474205375082 
	1345.098055176951675 2830.71066596759556 14414.50283789808054 
	1348.586733509347368 2900.396794756688905 14451.62042016066698 
	1352.327508887377462 2975.118546069670629 14477.09018292930341 
	1356.22390233350211 3052.948758439300491 14490.25523119638274 
	1360.175421297987668 3131.880099547598093 14490.77602295038014 
	1364.080151479410688 3209.876837676935793 14478.63912636195164 
	1367.837385313863706 3284.927345614934893 14454.15756620657157 
	1371.350219340949479 3355.095982875928712 14417.96275058896208 
	1374.528053457489023 3418.573018135767597 14370.98818618873156 
	1377.288927600297484 3473.721304321915341 14314.44540202994176 
	1379.561635592175207 3519.118502553557846 14249.7927027288315 
	1381.287561632615052 3553.593765927017103 14178.69755711009748 
	1382.422192067913329 3576.25793702820647 14102.99359223323518 
	1382.936263450489378 3586.526480344612992 14024.63330200347264 
	1382.816517277265802 3584.134558116757944 13945.63769006751681 
	1382.066041942719039 3569.143860828791276 13868.04414576300769 
	1380.704193082837946 3541.941016083978866 13793.8538974610201 
	1378.766094380823688 3503.22761723026224 13724.98039854552189 
	1376.301731648017039 3454.002127684101652 13663.19997719988351 
	1373.374663773684915 3395.534132234113713 13610.10602286041285 
	1370.060382935408825 3329.331582347389485 13567.06789069684783 
	1366.444369550742749 3257.101943952000511 13535.19558486173992 
	1362.61988023529716 3180.708012039807727 13515.31112823241165 
	1359.997006898089694 3128.316283207468587 13510.38862191752924 
	1358.684167837192263 3102.092406094033777 13510.04255476957951 
	0 
	
	0 
	0 
	38 0.02564102564102564014 0.05128205128205128027 0.07692307692307692735 0.1025641025641025605 0.1282051282051281937 0.1538461538461538269 0.1794871794871794601 0.2051282051282050933 0.2307692307692307265 0.2564102564102563875 0.2820512820512820484 0.3076923076923077094 0.3333333333333333703 0.3589743589743590313 0.3846153846153846922 0.4102564102564103532 0.4358974358974360142 0.4615384615384616751 0.4871794871794873361 0.512820512820512997 0.538461538461538658 0.5641025641025643189 0.5897435897435899799 0.6153846153846156408 0.6410256410256413018 0.6666666666666669627 0.6923076923076926237 0.7179487179487182846 0.7435897435897439456 0.7692307692307696065 0.7948717948717952675 0.8205128205128209284 0.8461538461538465894 0.8717948717948722503 0.8974358974358979113 0.9230769230769235723 0.9487179487179492332 0.9743589743589748942 
	0 
	0 
	0 
	F 1 F 0 F 1 F 0 } I I I I #
tcoedge-coedge $-1 -1 $-1 $7 $8 $-1 $9 forward $4 $10 0 6.250766387756696574 #
coedge $-1 -1 $-1 $11 $6 $-1 $12 forward $4 $13 #
coedge $-1 -1 $-1 $6 $11 $-1 $14 forward $4 $15 #
tedge-edge $-1 -1 $-1 $16 0 $17 6.250766387756696574 $6 $18 forward @7 unknown 0.0008503927492574101833 #
pcurve $-1 -1 $-1 0 forward { exppc nubs 1 open 2 
	0 1 6.250766387756696574 1 
	0 0 
	0.9999999999999987788 1.914262505258336969e-18 
	6.757283410991132512e-08 
	spline forward { ref 0 } I I I I 
	} 0 0 #
tcoedge-coedge $-1 -1 $-1 $8 $7 $-1 $19 forward $4 $20 1.103493639655126032e-15 6.270005910518959169 #
edge $-1 -1 $-1 $17 -1.597735222627694629 $21 -1.482133598392109786 $7 $22 forward @7 unknown #
pcurve $-1 -1 $-1 0 forward { exppc nubs 3 open 2 
	-1.597735222627694629 3 -1.482133598392109786 3 
	0.999999999999999778 3.079415474525459716e-17 
	0.9999999975121002249 0.03330815819589826726 
	1.000000000000000444 0.06667390754963946342 
	0.9999999999999996669 0.1000417136115408362 
	1.92465380568267722e-06 
	spline forward { ref 0 } I I I I 
	} 0 0 #
edge $-1 -1 $-1 $23 -0.1000208620216467559 $16 -1.830985469789901356e-26 $8 $24 forward @7 unknown #
pcurve $-1 -1 $-1 0 forward { exppc nubs 1 open 2 
	-0.1000208620216467698 1 -1.830985469789901356e-26 1 
	0 0.1000417136115408501 
	6.471334965546892786e-17 0 
	0.0009308921391565927201 
	spline forward { ref 0 } I I I I 
	} 0 0 #
tvertex-vertex $-1 -1 $-1 $9 $25 1.553340829521310254e-11 #
tvertex-vertex $-1 -1 $-1 $9 $26 1.369438494300809884e-11 #
ellipse-curve $-1 -1 $-1 1008.360865085089699 3095.642797989818519 14000.00000000000364 -0.9987492177719095032 -0.04999999999998920586 1.126679448655136284e-12 -5.651212831025986816e-10 2.468937054800335628e-10 -489.9999999999990337 1 F 0 F 6.250766387756696574 #
tedge-edge $-1 -1 $-1 $21 1.103493639655126032e-15 $23 6.270005910518959169 $11 $27 forward @7 unknown 0.0008609630352564817245 #
pcurve $-1 -1 $-1 0 forward { exppc nubs 1 open 2 
	0 1 6.270005910518959169 1 
	0.999999999999999889 0.1000417136115408223 
	1.141677590938659956e-15 0.1000417136115408501 
	7.964945891377782775e-08 
	spline forward { ref 0 } I I I I 
	} 0 0 #
tvertex-vertex $-1 -1 $-1 $12 $28 1.91431362593007645e-11 #
ellipse-curve $-1 -1 $-1 1089.234679819062421 480.7171536531984088 13510.12130255293778 -0.0006112077300546498761 3.278502056165400841e-05 -0.9999998126751089567 3040.448488566133165 -0.2639979253986305396 -1.858354622338086903 0.8655747824006425617 F -1.597735222627694629 F -1.482133598392109786 #
tvertex-vertex $-1 -1 $-1 $19 $29 2.183217303265126919e-11 #
ellipse-curve $-1 -1 $-1 1183.360865105468292 -400.7094222946589639 13510.00000000173168 1.237562433337283212e-14 4.948185666394010958e-13 1 -175.0000000209437587 3496.352220284724353 -1.728255938360234888e-09 1 F -0.1000208620216467559 F -1.830985469789901356e-26 #
point $-1 -1 $-1 1008.360865084524676 3095.642797990065446 13510.00000000000364 #
point $-1 -1 $-1 1007.566740678038968 3111.505420585896445 13510.2574691015725 #
ellipse-curve $-1 -1 $-1 1358.360865131920491 3095.642797989565224 13999.99999999999818 0.9987492177719149433 -0.04999999999988099381 -1.109179678513769275e-11 0.3228858652206490487 6.449640215080736816 -489.9574449743703326 1 F 1.103493639655126032e-15 F 6.270005910518959169 #
point $-1 -1 $-1 1358.683750997141033 3102.092438204646442 13510.04255502563137 #
point $-1 -1 $-1 1358.360865126502858 3095.642797990049075 13510 #
End-of-ACIS-data 