700 0 1 0           
4 LibG 19 ASM 222.0.0.1700 NT 24 Wed Oct  5 17:29:48 2016 
1000 9.999999999999999547e-07 1.000000000000000036e-10 
body $-1 -1 $-1 $1 $-1 $-1 #
lump $-1 -1 $-1 $-1 $2 $0 #
shell $-1 -1 $-1 $-1 $-1 $3 $-1 $1 #
face $-1 -1 $-1 $-1 $4 $2 $-1 $5 forward double out #
loop $-1 -1 $-1 $-1 $6 $3 #
spline-surface $-1 -1 $-1 forward { exactsur full nubs 3 3 open open none none 40 2 
	-1.191870093140249053e-07 3 0.02564102564102564014 1 0.05128205128205128027 1 0.07692307692307692735 1 0.1025641025641025605 1 
	0.1282051282051281937 1 0.1538461538461538269 1 0.1794871794871794601 1 0.2051282051282050933 1 0.2307692307692307265 1 
	0.2564102564102563875 1 0.2820512820512820484 1 0.3076923076923077094 1 0.3333333333333333703 1 0.3589743589743590313 1 
	0.3846153846153846922 1 0.4102564102564103532 1 0.4358974358974360142 1 0.4615384615384616751 1 0.4871794871794873361 1 
	0.512820512820512997 1 0.538461538461538658 1 0.5641025641025643189 1 0.5897435897435899799 1 0.6153846153846156408 1 
	0.6410256410256413018 1 0.6666666666666669627 1 0.6923076923076926237 1 0.7179487179487182846 1 0.7435897435897439456 1 
	0.7692307692307696065 1 0.7948717948717952675 1 0.8205128205128209284 1 0.8461538461538465894 1 0.8717948717948722503 1 
	0.8974358974358979113 1 0.9230769230769235723 1 0.9487179487179492332 1 0.9743589743589748942 1 1.000000000000000444 3 
	-1.191870091204353664e-07 3 0.1000418327985501676 3 
	6949.628051974721529 2991.124149282361032 13510.00000000014006 
	6943.148734236398923 2965.760106702807661 13509.9999804550589 
	6930.190210643318096 2915.032459524907154 13514.20473505409063 
	6911.25063396564201 2840.891284683259073 13532.96452861431499 
	6893.294848468131022 2770.601274793095399 13563.69603353163984 
	6876.783071475409088 2705.964004076990477 13605.61152371900062 
	6862.138563165754022 2648.636373711540728 13657.63655965522048 
	6849.736711513412956 2600.087883564985532 13718.43755906676961 
	6839.895419460495759 2561.563001663956584 13786.45598127088124 
	6832.866953370217743 2534.049254016059422 13859.94827798366168 
	6828.831477258485393 2518.251913607625738 13937.03058651525862 
	6827.892434378728467 2514.575921080603166 14015.72701971034076 
	6830.073895662028008 2523.115504893281923 14094.02031479506513 
	6835.319942682286637 2543.651765865507514 14169.90354282482986 
	6843.496101043132512 2575.658288338582679 14241.43155324008148 
	6854.392787422606489 2618.314634032265985 14306.77083482764465 
	6867.730681921483665 2670.527372727009151 14364.24651497805644 
	6883.167888001888059 2730.958110676011074 14412.38529248481609 
	6900.308696482447886 2798.057798283182819 14449.95320336879013 
	6918.713728938292661 2870.106437621730947 14475.98725165862743 
	6937.911200495364938 2945.257171951911005 14489.82009432055384 
	6957.4090133145246 3021.583627070549937 14491.097147576922 
	6976.707370767454449 3097.129290969181966 14479.78567611940161 
	6995.311588959277287 3169.957666028766198 14456.1756322285546 
	7012.744777194026938 3238.2019081761282 14420.87222329033102 
	7028.56006233872904 3300.112680578215077 14374.78039822982828 
	7042.35204373306351 3354.102995217861462 14319.08165052886761 
	7053.767185015616633 3398.788892905834928 14255.20373244652546 
	7062.512876488172878 3433.024918959242314 14184.78405677240517 
	7068.364935717926528 3455.933485181219567 14109.62772425260118 
	7071.1733541117801 3466.927365493896104 14031.66125259130968 
	7070.866142156360183 3465.724748577577884 13952.88319311412124 
	7067.451174762720257 3452.356461687158117 13875.31290096014527 
	7061.015989391710718 3427.165180390316891 13800.93877199793133 
	7051.725542214767302 3390.796644798149373 13731.66727334329335 
	7039.817979528711476 3344.183106276703711 13669.27407396451963 
	7025.598533933255567 3288.519433324259353 13615.35852821352091 
	7009.431697570497818 3225.232472807338581 13571.30267848236872 
	6991.731888589727532 3155.944512752063929 13538.23582992536103 
	6972.95279210611443 3082.43155628769955 13517.005597721909 
	6960.034840885100493 3031.862734377237302 13511.10599750286565 
	6953.558957791376997 3006.512137113272274 13510.25746935761345 
	7062.712260377795246 2962.236462904153086 13510.00000000014734 
	7055.380472183115671 2937.06246507412061 13509.99998041480103 
	7040.717022737891057 2886.714905445688601 13514.21339492344487 
	7019.28663021714965 2813.133260064231763 13533.01149165286552 
	6998.971461445720706 2743.381742324879724 13563.80463887917904 
	6980.293152328687029 2679.251828597542954 13605.80190529898391 
	6963.731369309492038 2622.39081923852109 13657.92453893472339 
	6949.711417236680973 2574.259269962659346 13718.833705578636 
	6938.593328428262794 2536.093512642509268 13786.96487869124394 
	6930.662614040870722 2508.873887916763579 13860.56802651870748 
	6926.122932905904236 2493.29956626051262 13937.75256415662079 
	6925.090861368633341 2489.770588034286448 14016.53591589231655 
	6927.592899709164158 2498.377588197811747 14094.89444042314972 
	6933.564791680223607 2518.899468456081195 14170.81541085439676 
	6942.853174725029021 2550.809076937796362 14242.34871428832048 
	6955.219518470099501 2593.286749419182797 14307.65694301976873 
	6970.346250354483345 2645.241364272168084 14365.06259066996063 
	6987.844911081991086 2705.338370281870539 14413.0911409559103 
	7007.266130458276166 2772.034067373869675 14450.50894229942242 
	7028.111167426060092 2843.615259671492367 14476.35489541552488 
	7049.844717942583884 2918.243262305657481 14489.96513994583438 
	7071.908661785224467 2994.001131566179538 14490.99010603474744 
	7093.736395259297751 3068.942905187112501 14479.40349286692799 
	7114.767381736711286 3141.143587926646433 14455.5029435545639 
	7134.46154636060237 3208.74859846018353 14419.90239905654562 
	7152.313145253920084 3270.021407445364275 14373.51632754947241 
	7167.863753065579658 3323.388143084232979 14317.53623436256021 
	7180.714035330335719 3367.478018407023228 14253.40005587396627 
	7190.534003325933554 3401.158541832722676 14182.75522355164139 
	7197.07148808182319 3423.564606566542352 14107.41634691281979 
	7200.158615928432482 3434.120711633611336 14029.31860239537127 
	7199.71611929559549 3432.555743771334619 13950.46802543192825 
	7195.755372069595978 3418.909940522773923 13872.88998256110244 
	7188.378097222183897 3393.533855610758565 13798.57714715230395 
	7177.773754317765452 3357.079353507436281 13729.43831507737741 
	7164.214673656411833 3310.4828633819061 13667.24937504298032 
	7148.04906328422021 3254.941326960758488 13613.60769309582429 
	7129.692063732563838 3191.881441910387366 13569.89108255386782 
	7109.615097857938053 3122.923051433729597 13537.22241490416309 
	7088.333723429901511 3049.837394264597606 13516.44077455875049 
	7073.707605285252612 2999.61388601239014 13510.86687230776079 
	7066.378753434163627 2974.449513126803595 13510.18583116160698 
	7174.350085865119581 2927.687529186279335 13510.00000000014552 
	7166.17403787220519 2902.746586249407301 13509.99998037454498 
	7149.822083882789229 2852.865133680918007 13514.22205479279364 
	7125.925278082425393 2779.968637171137289 13533.05845469140513 
	7103.274665369443937 2710.874500321282994 13563.9132442267146 
	7082.453057816647743 2647.360959611975886 13605.99228687896175 
	7063.99627373552994 2591.062832896762302 13658.21251821421538 
	7048.379266214449672 2543.429186973966807 13719.22985209050239 
	7036.003913167873179 2505.686076873665115 13787.47377611159754 
	7027.188672300595499 2478.804977828606752 13861.18777505375328 
	7022.160386972524975 2463.477782811507495 13938.47454179798115 
	7021.048448532219481 2460.098993025600521 14017.34481207429599 
	7023.881466762320088 2468.755564086905906 14095.76856605122703 
	7030.586533736455749 2489.224668087329519 14171.72727888395457 
	7040.991100130637278 2520.97942944559145 14243.26587533654856 
	7054.827415673897121 2563.202486814251642 14308.54305121188918 
	7071.739419472322879 2614.807031975374684 14365.87866636185936 
	7091.291902886276148 2674.464784172902455 14413.79698942699906 
	7112.981709161755134 2740.640179820928097 14451.06468123004925 
	7136.25068160257797 2811.629897543235984 14476.72253917242051 
	7160.500027073919227 2885.606701170757788 14490.11018557111129 
	7185.105725206235547 2960.666472181600057 14490.88306449257107 
	7209.434586759138256 3034.87722097457663 14479.02130961444163 
	7232.860547900318124 3106.328815434587341 14454.83025488057137 
	7254.780781084348746 3173.18214678786353 14418.93257482275658 
	7274.631207936745341 3233.71646723174581 14372.2522568691038 
	7291.901014938526714 3286.373680884927126 14315.99081819625644 
	7306.14579836923167 3329.798448027830545 14251.59637930139797 
	7316.999000242164584 3362.873070371108042 14180.72639033087398 
	7324.181340945691773 3384.746259427847235 14105.20496957303112 
	7327.50800585885645 3394.855047517386993 14026.97595219942559 
	7326.893401006621389 3392.939277430812581 13948.05285774972253 
	7322.353355388434466 3379.048297842088687 13870.4670641620578 
	7314.004713286562946 3353.539692067189662 13796.21552230666384 
	7302.062327156187166 3317.070073228666388 13727.20935681145056 
	7286.833528110515545 3270.578181621089698 13665.22467612143555 
	7268.710217724424183 3215.260723703174335 13611.85685797812039 
	7248.158779377900828 3152.541558477323633 13568.47948662536146 
	7225.708088531212525 3084.035084732855921 13536.20899988295241 
	7201.935856720872835 3011.504546465574549 13515.87595139558471 
	7185.614576227134421 2961.712962039018294 13510.62774711264865 
	7177.440589193513915 2936.77789612427614 13510.1141929655987 
	7283.983708292165829 2887.649978603033105 13510.00000000014006 
	7274.975909000588217 2862.984192546831309 13509.99998033428528 
	7256.960467377179157 2813.653050232585883 13514.2307146621406 
	7230.634194437527185 2741.564608320489242 13533.10541772994657 
	7205.683930398497068 2673.244050222810074 13564.02184957424834 
	7182.753099406903857 2610.453244941605135 13606.18266845894141 
	7162.433122910924794 2554.811664052289416 13658.50049749370555 
	7145.248074631536838 2507.754362873166428 13719.62599860236151 
	7131.641177695693841 2470.495005970953116 13787.98267353194569 
	7121.963369746536955 2443.994555345885601 13861.80752358879363 
	7116.464252827667224 2428.936488771754284 13939.19651943933604 
	7115.285655592339936 2425.709171386896287 14018.15370825626997 
	7118.457975446585806 2434.395839494575284 14096.64269167930433 
	7125.899394545677751 2454.772453749776105 14172.63914691351602 
	7137.417989977240723 2486.313477410054475 14244.18303638477482 
	7152.716683676502726 2528.205430539856025 14309.42915940400417 
	7171.40090441789107 2579.367870611623403 14366.69474205375445 
	7192.988764268839077 2638.481258383555087 14414.50283789808418 
	7216.923487043934074 2704.020990361923396 14451.62042016067062 
	7242.587768214702919 2774.296720110504793 14477.09018292930887 
	7269.319695916290584 2847.495954264599732 14490.25523119638456 
	7296.429822429574415 2921.730798857382524 14490.77602295038014 
	7323.218945845186681 2995.086650316073701 14478.6391263619571 
	7348.996143299536016 3065.671575330113228 14454.15756620657157 
	7373.096590684564944 3131.66510602675362 14417.9627505889639 
	7394.898709239995696 3191.365191969288389 14370.9881861887352 
	7413.84019679746325 3243.232098030975521 14314.44540202994176 
	7429.432530211888661 3285.928115966995847 14249.79270272883332 
	7441.2735649454944 3318.352065476640291 14178.69755711010112 
	7449.057906846239348 3339.667694932532868 14102.99359223323881 
	7452.584788621031294 3349.325249290338434 14024.63330200347627 
	7451.763247857922579 3347.075648911455573 13945.63769006751681 
	7446.614473058295516 3332.976913632365722 13868.04414576300951 
	7437.27125714180147 3307.392666313648988 13793.85389746102373 
	7423.974572631603223 3270.98275477266634 13724.98039854552553 
	7407.067356429059146 3224.686232818872213 13663.19997719988532 
	7386.985666046364713 3169.697143631518429 13610.10602286041467 
	7364.247429526745691 3107.433714004193007 13567.06789069684783 
	7339.439101080619366 3039.501813874460822 13535.19558486174174 
	7313.200484963033887 2967.653400003570368 13515.3111282324171 
	7295.205777449506058 2918.37903327920867 13510.38862191753287 
	7286.198802321103358 2893.71550400425258 13510.04255476958679 
	0 
	
	0 
	0 
	38 0.02564102564102564014 0.05128205128205128027 0.07692307692307692735 0.1025641025641025605 0.1282051282051281937 0.1538461538461538269 0.1794871794871794601 0.2051282051282050933 0.2307692307692307265 0.2564102564102563875 0.2820512820512820484 0.3076923076923077094 0.3333333333333333703 0.3589743589743590313 0.3846153846153846922 0.4102564102564103532 0.4358974358974360142 0.4615384615384616751 0.4871794871794873361 0.512820512820512997 0.538461538461538658 0.5641025641025643189 0.5897435897435899799 0.6153846153846156408 0.6410256410256413018 0.6666666666666669627 0.6923076923076926237 0.7179487179487182846 0.7435897435897439456 0.7692307692307696065 0.7948717948717952675 0.8205128205128209284 0.8461538461538465894 0.8717948717948722503 0.8974358974358979113 0.9230769230769235723 0.9487179487179492332 0.9743589743589748942 
	0 
	0 
	0 
	F 1 F 0 F 1 F 0 } I I I I #
tcoedge-coedge $-1 -1 $-1 $7 $8 $-1 $9 forward $4 $10 0 6.250766387756696574 #
coedge $-1 -1 $-1 $11 $6 $-1 $12 forward $4 $13 #
coedge $-1 -1 $-1 $6 $11 $-1 $14 forward $4 $15 #
tedge-edge $-1 -1 $-1 $16 -1.562817119153614755e-28 $17 6.250766387756696574 $6 $18 forward @7 unknown 0.0008503927471383895126 #
pcurve $-1 -1 $-1 0 forward { exppc nubs 1 open 2 
	0 1 6.250766387756696574 1 
	0 0 
	0.9999999999999991118 0 
	6.810859858507744904e-08 
	spline forward { ref 0 } I I I I 
	} 0 0 #
tcoedge-coedge $-1 -1 $-1 $8 $7 $-1 $19 forward $4 $20 1.793512776860383415e-15 6.270005910518958281 #
edge $-1 -1 $-1 $17 -1.597735222574490299 $21 -1.482133598368343241 $7 $22 forward @7 unknown #
pcurve $-1 -1 $-1 0 forward { exppc nubs 3 open 2 
	-1.597735222574490299 3 -1.482133598368343241 3 
	1.000000000000000222 0 
	0.999999997512100447 0.03330815819590915439 
	1.000000000000000444 0.06667390754961241561 
	1 0.100041713611540739 
	1.990904713548879802e-06 
	spline forward { ref 0 } I I I I 
	} 0 0 #
edge $-1 -1 $-1 $23 -0.1000208620216080369 $16 2.962550914155590293e-16 $8 $24 forward @7 unknown #
pcurve $-1 -1 $-1 0 forward { exppc nubs 1 open 2 
	-0.1000208620216080369 1 -1.830985469790276734e-26 1 
	0 0.1000417136115408501 
	0 1.935895358737377445e-16 
	0.0009308921333318813471 
	spline forward { ref 0 } I I I I 
	} 0 0 #
tvertex-vertex $-1 -1 $-1 $9 $25 1.181898940354585587e-11 #
tvertex-vertex $-1 -1 $-1 $9 $26 1.409272615797817647e-11 #
ellipse-curve $-1 -1 $-1 6949.628365797458173 2991.123692337335342 14000.00000000000364 -0.9688866161605227401 0.2475050000000244832 5.183490910743772655e-13 -1.775902092049364156e-10 3.291916073067113654e-10 -489.9999999999990337 1 F -1.562817119153614755e-28 F 6.250766387756696574 #
tedge-edge $-1 -1 $-1 $21 1.793512776860383415e-15 $23 6.270005910518958281 $11 $27 forward @7 unknown 0.0008609630395608237636 #
pcurve $-1 -1 $-1 0 forward { exppc nubs 1 open 2 
	0 1 6.270005910518959169 1 
	1.000000000000000222 0.100041713611540739 
	1.340943951982311935e-15 0.1000417136115407529 
	7.124487500950578447e-08 
	spline forward { ref 0 } I I I I 
	} 0 0 #
tvertex-vertex $-1 -1 $-1 $12 $28 1.208391415751786445e-11 #
ellipse-curve $-1 -1 $-1 6253.811100820105821 469.1770156445592761 13510.12130255291595 -0.000574193883439610823 0.0002120168178997175012 -0.9999998126751089567 2904.460873395964882 -899.129646344741559 -1.858354622807020684 0.8655747826211644957 F -1.597735222574490299 F -1.482133598368343241 #
tvertex-vertex $-1 -1 $-1 $19 $29 1.734666829039429674e-11 #
ellipse-curve $-1 -1 $-1 6083.145061187306965 -400.6767928234019678 13510.00000000173168 1.581104680200369522e-13 4.690412027438448032e-13 1 866.4833046099753346 3391.800485161067172 -1.728255938360234888e-09 1 F -0.1000208620216080369 F 2.962550914155590293e-16 #
point $-1 -1 $-1 6949.628365797280821 2991.123692337664579 13510.00000000000364 #
point $-1 -1 $-1 6953.559361021828408 3006.512022517880268 13510.2574691015725 #
ellipse-curve $-1 -1 $-1 7283.983190838100199 2887.649777741316484 14000.00000000000182 0.9393226405652718158 -0.3430349499999749696 -1.726966150029424951e-12 2.215222769081472531 6.06588017267837909 -489.9574449743724927 1 F 1.793512776860383415e-15 F 6.270005910518958281 #
point $-1 -1 $-1 7286.198413607181465 2893.715657913995074 13510.04255502563137 #
point $-1 -1 $-1 7283.983190837378061 2887.649777741806247 13510 #
End-of-ACIS-data 