700 0 1 0           
4 LibG 19 ASM 222.0.0.1700 NT 24 Wed Oct  5 17:29:48 2016 
1000 9.999999999999999547e-07 1.000000000000000036e-10 
body $-1 -1 $-1 $1 $-1 $-1 #
lump $-1 -1 $-1 $-1 $2 $0 #
shell $-1 -1 $-1 $-1 $-1 $3 $-1 $1 #
face $-1 -1 $-1 $-1 $4 $2 $-1 $5 forward double out #
loop $-1 -1 $-1 $-1 $6 $3 #
spline-surface $-1 -1 $-1 forward { exactsur full nubs 3 3 open open none none 40 2 
	-1.191870090751720962e-07 3 0.02564102564102564014 1 0.05128205128205128027 1 0.07692307692307692735 1 0.1025641025641025605 1 
	0.1282051282051281937 1 0.1538461538461538269 1 0.1794871794871794601 1 0.2051282051282050933 1 0.2307692307692307265 1 
	0.2564102564102563875 1 0.2820512820512820484 1 0.3076923076923077094 1 0.3333333333333333703 1 0.3589743589743590313 1 
	0.3846153846153846922 1 0.4102564102564103532 1 0.4358974358974360142 1 0.4615384615384616751 1 0.4871794871794873361 1 
	0.512820512820512997 1 0.538461538461538658 1 0.5641025641025643189 1 0.5897435897435899799 1 0.6153846153846156408 1 
	0.6410256410256413018 1 0.6666666666666669627 1 0.6923076923076926237 1 0.7179487179487182846 1 0.7435897435897439456 1 
	0.7692307692307696065 1 0.7948717948717952675 1 0.8205128205128209284 1 0.8461538461538465894 1 0.8717948717948722503 1 
	0.8974358974358979113 1 0.9230769230769235723 1 0.9487179487179492332 1 0.9743589743589748942 1 1.000000000000000444 3 
	-1.191870091537822594e-07 3 0.1000418327985499872 3 
	1358.360430240955338 3095.642454248949434 14489.99999999985994 
	1359.669360603388668 3121.788255358071183 14490.00001954493928 
	1362.287198725910457 3174.079406095861486 14485.79526494591119 
	1366.113309431739481 3250.505725178335069 14467.03547138568138 
	1369.74067789370315 3322.962180523826646 14436.30396646836016 
	1373.076332528401736 3389.591670640757002 14394.38847628099938 
	1376.03476771302644 3448.686226127770169 14342.3634403447777 
	1378.540148809271386 3498.731054886389302 14281.56244093323039 
	1380.528254115090249 3538.44333248478415 14213.54401872911876 
	1381.948121613249668 3566.805095855598211 14140.05172201633832 
	1382.763355164502855 3583.089334421929379 14062.96941348474138 
	1382.953057504561912 3586.87862665279772 13984.27298028965924 
	1382.512365903451609 3578.075839824922696 13905.97968520493305 
	1381.452576816868259 3556.906619925500763 13830.09645717516651 
	1379.800856318074693 3523.913607547802258 13758.56844675991488 
	1377.599543737326712 3479.942528132879943 13693.22916517235353 
	1374.905066357824126 3426.120513089590531 13635.75348502194174 
	1371.786492988548616 3363.827207504076796 13587.61470751518209 
	1368.32376349093829 3294.659405046763823 13550.04679663120987 
	1364.605639642720007 3220.390116607423806 13524.01274834136893 
	1360.727429865413797 3142.923121871127023 13510.17990567944253 
	1356.788546138644051 3064.244168836053177 13508.90285242307255 
	1352.889955725978098 2986.370072198849812 13520.21432388059475 
	1349.131593033468107 2911.297015392696267 13543.82436777144176 
	1345.609797943913236 2840.949381476243161 13579.12777670966898 
	1342.414846291207141 2777.130424515415143 13625.21960177016445 
	1339.628635777347881 2721.476045921794594 13680.91834947112693 
	1337.322586650006542 2675.412860620482206 13744.79626755347272 
	1335.555810953672562 2640.121627957089913 13815.21594322759665 
	1334.373597282735545 2616.506984737014136 13890.372275747397 
	1333.806249877563459 2605.174256242682077 13968.33874740869032 
	1333.86831182179958 2606.413939649060467 14047.11680688587694 
	1334.558192251929995 2620.19425755817565 14124.68709903985473 
	1335.858207139329352 2646.161972618002892 14199.06122800206504 
	1337.735032583245356 2683.651442021015555 14268.33272665670665 
	1340.140559055607355 2731.701680990280693 14330.72592603547855 
	1343.013124475078484 2789.08099335553743 14384.64147178647545 
	1346.279095343363906 2854.318554650683382 14428.69732151762946 
	1349.854752275142573 2925.742075454991209 14461.76417007463897 
	1353.648443302377927 3001.520813510345306 14482.994402278091 
	1356.258085128341008 3053.64824374338923 14488.89400249713253 
	1357.566321635221129 3079.780185131764483 14489.74253064238655 
	1474.930066537197035 3089.806658827823867 14489.9999999998563 
	1475.368447515539629 3116.022934440422887 14490.00001958518988 
	1476.245201833607553 3168.45503159509326 14485.78660507655695 
	1477.526418256903071 3245.083216651980365 14466.98850834713448 
	1478.740669368935414 3317.722778210346405 14436.19536112081732 
	1479.856642052204506 3384.508103478081921 14394.19809470101427 
	1480.845553944981475 3443.723718778185685 14342.07546106527661 
	1481.681900221343767 3493.848618944917234 14281.16629442136218 
	1482.344110721581501 3533.595296891958697 14213.03512130875242 
	1482.815106443707464 3561.942825248668669 14139.4319734812907 
	1483.082739978898871 3578.163077162569152 14062.24743584337739 
	1483.14010881694162 3581.839429674997973 13983.46408410767981 
	1482.9857333648024 3572.877464717903877 13905.10555957684664 
	1482.623595107563006 3551.507394083221698 13829.18458914560142 
	1482.063033921996293 3518.278145758881237 13757.65128571167952 
	1481.318507192652305 3474.043263629428111 13692.34305698022945 
	1480.409216942691501 3419.938982715018938 13634.93740933003937 
	1479.358614596150801 3357.35504313547608 13586.90885904408606 
	1478.193796144335238 3287.898992494626782 13549.49105770057758 
	1476.944803315469244 3213.354893641326726 13523.6451045844733 
	1475.643848771129797 3135.637498468217927 13510.03486005416562 
	1474.324485312357183 3056.743064869584941 13509.00989396525256 
	1473.020740522318192 2978.698080203119389 13520.59650713307201 
	1471.766239163963519 2903.507208372760033 13544.49705644543246 
	1470.593335966776067 2833.101797589475609 13580.09760094345438 
	1469.532281168847703 2769.290271462152759 13626.48367245052577 
	1468.61044033575331 2713.711677691355362 13682.46376563743797 
	1467.851588577723078 2667.793587527757154 13746.59994412603373 
	1467.275297368000565 2632.71542739776396 13817.24477644835861 
	1466.896429776792274 2609.378184562803654 13892.58365308717657 
	1466.724757139256099 2598.381264947119234 13970.68139760462873 
	1466.764707044033457 2600.007097560010152 14049.53197456806993 
	1467.015249141591994 2614.213880923742636 14127.11001743889392 
	1467.469921718918386 2640.636657887634556 14201.42285284769423 
	1468.116998349701589 2678.59669086798749 14270.56168492262077 
	1468.939790342415563 2727.118897884326543 14332.75062495701968 
	1469.917077109448201 2784.956896961941766 14386.39230690417389 
	1471.023653642944737 2850.625032488093893 14430.10891744613218 
	1472.230979912813154 2922.436497722694639 14462.77758509583691 
	1473.507919411515331 2998.546809815778033 14483.55922544124951 
	1474.383661783761454 3050.849364136176973 14489.13312769223739 
	1474.822002333438377 3077.055576944261247 14489.8141688383912 
	1591.791663739103569 3089.80665845187923 14489.99999999985994 
	1591.354623462583731 3116.049893602283191 14490.00001962544593 
	1590.48055045638398 3168.53590798701498 14485.77794520720818 
	1589.203046261654663 3245.238740489427528 14466.94154530859487 
	1587.991901018302997 3317.940756489670093 14436.08675577327995 
	1586.878157408911648 3384.770905147949634 14394.00771312103279 
	1585.890365247289765 3444.00903659134201 14341.7874817857828 
	1585.053845226658041 3494.13044301680975 14280.77014790949397 
	1584.390040507889353 3533.845063578590725 14212.52622388840246 
	1583.915966876418224 3562.130699714449747 14138.81222494624672 
	1583.643776610949999 3578.259322497940502 14061.52545820201703 
	1583.580446962616634 3581.815811900148219 13982.65518792570219 
	1583.727601305370627 3572.708641075413198 13904.23143394877115 
	1584.081467521973082 3551.172231894481229 13828.27272111603816 
	1584.632974697758073 3517.76092077674457 13756.7341246634478 
	1585.367985642032409 3473.334690233497895 13691.456948788109 
	1586.267659277182929 3419.037033367711956 13634.12133363814064 
	1587.308933605926995 3356.265521097522651 13586.20301057300094 
	1588.465116876537195 3286.635829688715603 13548.93531876995439 
	1589.706571792192335 3211.940154509782133 13523.27746082757949 
	1591.001475225695685 3134.101080415652632 13509.88981442888689 
	1592.31663396513909 3055.122096107995731 13509.11693550742893 
	1593.618335579976019 2977.036026199336447 13520.97869038555473 
	1594.87321259657665 2901.852708302747033 13545.16974511942317 
	1596.04909783125936 2831.50726189867828 13581.06742517724342 
	1597.115848955351112 2767.810280495596089 13627.74774313089256 
	1598.046121155671472 2712.401229093964048 13684.00918180374174 
	1598.816068084204062 2666.706246457682028 13748.40362069859657 
	1599.40595312902019 2631.901438317439442 13819.27360966912602 
	1599.800655337291118 2608.882606295369897 13894.79503042696524 
	1599.990057021736902 2598.242191684762474 13973.02404780057259 
	1599.969303114550939 2600.254027519104056 14051.94714225027383 
	1599.738925621074941 2614.866291353298948 14129.53293583794039 
	1599.304829981464081 2641.702840209290116 14203.78447769333434 
	1598.678143695416338 2680.072892971998954 14272.7906431885458 
	1597.874931070127786 2728.988812212086486 14334.77532387856445 
	1596.915781478726103 2787.191523161939131 14388.14314202187961 
	1595.825281402938572 2853.182932559853271 14431.52051337463854 
	1594.631384841434965 2925.264449437590883 14463.79100011704395 
	1593.364694311589574 3001.580853189913796 14484.12404860441529 
	1592.493355084923905 3053.971948278815489 14489.37225288734771 
	1592.05654616039601 3080.208959811415298 14489.8858070344013 
	1708.361300110221691 3095.642453126741202 14489.99999999986358 
	1707.048340920913461 3121.868729797567084 14490.0000196657038 
	1704.422445420442955 3174.320826149717959 14485.76928533786122 
	1700.585179418230155 3250.969971571144924 14466.89458227005343 
	1696.948477779426867 3323.612856533034119 14435.97815042574439 
	1693.606124747980175 3390.376146700910795 14393.81733154105314 
	1690.644324756295418 3449.537913995918643 14341.49950250629081 
	1688.139465763910948 3499.572313763037528 14280.37400139763668 
	1686.156151106073594 3539.188898471429184 14212.01732646805067 
	1684.745532766578435 3567.365910483576499 14138.19247641120091 
	1683.943992250635347 3583.376631536660625 14060.80348056066214 
	1683.772202225069123 3586.808126419774908 13981.8462917437264 
	1684.234593356272626 3577.571892852331075 13903.35730832069203 
	1685.319240035378016 3555.90614411624756 13827.36085308647853 
	1686.998167954426208 3522.369665241791154 13755.81696361522154 
	1689.228075596312692 3477.82740129122385 13690.57084059599038 
	1691.951451031688748 3423.428149411733557 13633.30525794624009 
	1695.098055218939407 3360.57493001202738 13585.497162101914 
	1698.586733551337602 3290.888801222932216 13548.3795798393312 
	1702.327508929362921 3216.167049909953676 13522.90981707068931 
	1706.223902375488478 3138.33683754032154 13509.74476880361181 
	1710.175421339971308 3059.405496432022574 13509.22397704961986 
	1714.080151521394782 2981.408758302686692 13521.36087363804108 
	1717.837385355846664 2906.358250364687137 13545.84243379342115 
	1721.350219382931073 2836.189613103694228 13582.03724941103246 
	1724.528053499470161 2772.712577843853524 13629.01181381126116 
	1727.28892764227794 2717.564291657708054 13685.55459797005096 
	1729.561635634155209 2672.167093426065094 13750.20729727116486 
	1731.287561674595054 2637.691830052604928 13821.30244288989707 
	1732.422192109891739 2615.02765895141556 13897.00640776675573 
	1732.936263492470744 2604.759115635009039 13975.36669799652373 
	1732.81651731924444 2607.151037862864541 14054.36230993248137 
	1732.066041984697904 2622.1417351508303 14131.95585423698503 
	1730.704193124819085 2649.344579895642255 14206.14610253897263 
	1728.76609442280369 2688.05797874936161 14275.01960145447265 
	1726.301731689997951 2737.283468295520379 14336.80002280011104 
	1723.374663815666054 2795.751463745508318 14389.89397713957987 
	1720.060382977392692 2861.954013632232545 14432.93210930315036 
	1716.444369592726844 2934.183652027621974 14464.80441513825463 
	1712.619880277283528 3010.577583939815213 14484.68887176758108 
	1709.997006940074698 3062.969312772153444 14489.61137808246531 
	1708.684167879177267 3089.193189885588708 14489.95744523041321 
	0 
	
	0 
	0 
	38 0.02564102564102564014 0.05128205128205128027 0.07692307692307692735 0.1025641025641025605 0.1282051282051281937 0.1538461538461538269 0.1794871794871794601 0.2051282051282050933 0.2307692307692307265 0.2564102564102563875 0.2820512820512820484 0.3076923076923077094 0.3333333333333333703 0.3589743589743590313 0.3846153846153846922 0.4102564102564103532 0.4358974358974360142 0.4615384615384616751 0.4871794871794873361 0.512820512820512997 0.538461538461538658 0.5641025641025643189 0.5897435897435899799 0.6153846153846156408 0.6410256410256413018 0.6666666666666669627 0.6923076923076926237 0.7179487179487182846 0.7435897435897439456 0.7692307692307696065 0.7948717948717952675 0.8205128205128209284 0.8461538461538465894 0.8717948717948722503 0.8974358974358979113 0.9230769230769235723 0.9487179487179492332 0.9743589743589748942 
	0 
	0 
	0 
	F 1 F 0 F 1 F 0 } I I I I #
tcoedge-coedge $-1 -1 $-1 $7 $8 $-1 $9 forward $4 $10 0 6.250766387756696574 #
coedge $-1 -1 $-1 $11 $6 $-1 $12 forward $4 $13 #
coedge $-1 -1 $-1 $6 $11 $-1 $14 forward $4 $15 #
tedge-edge $-1 -1 $-1 $16 -7.814085595768073775e-29 $17 6.250766387756696574 $6 $18 forward @7 unknown 0.0008503927471220571995 #
pcurve $-1 -1 $-1 0 forward { exppc nubs 1 open 2 
	0 1 6.250766387756696574 1 
	0 0 
	0.9999999999999987788 0 
	6.642117700096870443e-08 
	spline forward { ref 0 } I I I I 
	} 0 0 #
tcoedge-coedge $-1 -1 $-1 $8 $7 $-1 $19 forward $4 $20 0 6.270005910518959169 #
edge $-1 -1 $-1 $17 -1.597735222469906624 $21 -1.482133598291701659 $7 $22 forward @7 unknown #
pcurve $-1 -1 $-1 0 forward { exppc nubs 3 open 2 
	-1.597735222469906624 3 -1.482133598291701659 3 
	0.9999999999999995559 3.849269343157623367e-17 
	0.9999999975121013351 0.03330815819594581256 
	1.000000000000000444 0.06667390754961330379 
	0.999999999999999889 0.1000417136115408501 
	1.901303508124253094e-06 
	spline forward { ref 0 } I I I I 
	} 0 0 #
edge $-1 -1 $-1 $23 -0.1000208620216405803 $16 -8.079684315508417489e-17 $8 $24 forward @7 unknown #
pcurve $-1 -1 $-1 0 forward { exppc nubs 1 open 2 
	-0.100020862021640608 1 -3.670386069009971683e-26 1 
	3.176993380271624296e-15 0.1000417136115408362 
	7.861016046695823074e-17 0 
	0.0009308921397088404208 
	spline forward { ref 0 } I I I I 
	} 0 0 #
tvertex-vertex $-1 -1 $-1 $9 $25 1.187497136067470826e-11 #
tvertex-vertex $-1 -1 $-1 $9 $26 1.429609909308309828e-11 #
ellipse-curve $-1 -1 $-1 1358.360865127704528 3095.642797989778501 13999.99999999999636 -0.998749217771908504 0.05000000000001007111 -2.415668233653781543e-12 -1.196026744310074843e-09 -2.154905587303801595e-10 489.9999999999990337 1 F -7.814085595768073775e-29 F 6.250766387756696574 #
tedge-edge $-1 -1 $-1 $21 -1.106178539021683525e-15 $23 6.270005910518959169 $11 $27 forward @7 unknown 0.0008609630394957749943 #
pcurve $-1 -1 $-1 0 forward { exppc nubs 1 open 2 
	0 1 6.270005910518959169 1 
	0.999999999999999889 0.1000417136115408223 
	1.115929332846474112e-15 0.1000417136115408501 
	7.796244685313806639e-08 
	spline forward { ref 0 } I I I I 
	} 0 0 #
tvertex-vertex $-1 -1 $-1 $12 $28 1.366629035320263383e-11 #
ellipse-curve $-1 -1 $-1 1439.234679750804844 5710.568444937529421 14489.87869744708041 -0.0006112077300546517192 -3.278502056162141458e-05 0.9999998126751090677 3040.448490075598784 0.2639975454127825305 1.858354623248231974 0.8655747828297183366 F -1.597735222469906624 F -1.482133598291701659 #
tvertex-vertex $-1 -1 $-1 $19 $29 1.682499877248284497e-11 #
ellipse-curve $-1 -1 $-1 1533.360865147322102 6591.995018274504218 14490.0000000034579 1.237562433333148792e-14 9.896371332788651994e-13 -1 -175.0000000208138147 -3496.352220284940813 -3.463009079496259884e-09 1 F -0.1000208620216405803 F -8.079684315508417489e-17 #
point $-1 -1 $-1 1358.360865126508543 3095.642797989562951 14489.99999999999636 #
point $-1 -1 $-1 1357.566740720022835 3079.780175393731952 14489.74253089842568 #
ellipse-curve $-1 -1 $-1 1708.360865172984859 3095.642797990012241 14000.00000000000182 0.9987492177719143882 0.04999999999989335198 9.213234787585986241e-12 0.3228858661400032526 -6.449640215034714963 489.9574449743703326 1 F -1.106178539021683525e-15 F 6.270005910518959169 #
point $-1 -1 $-1 1708.6837510391249 3089.193157774978317 14489.95744497436863 #
point $-1 -1 $-1 1708.360865168486725 3095.642797989574319 14490 #
End-of-ACIS-data 