700 0 1 0           
4 LibG 19 ASM 222.0.0.1700 NT 24 Wed Oct  5 17:29:48 2016 
1000 9.999999999999999547e-07 1.000000000000000036e-10 
body $-1 -1 $-1 $1 $-1 $-1 #
lump $-1 -1 $-1 $-1 $2 $0 #
shell $-1 -1 $-1 $-1 $-1 $3 $-1 $1 #
face $-1 -1 $-1 $-1 $4 $2 $-1 $5 forward double out #
loop $-1 -1 $-1 $-1 $6 $3 #
spline-surface $-1 -1 $-1 forward { exactsur full nubs 3 3 open open none none 40 2 
	-1.191870090904427371e-07 3 0.02564102564102564014 1 0.05128205128205128027 1 0.07692307692307692735 1 0.1025641025641025605 1 
	0.1282051282051281937 1 0.1538461538461538269 1 0.1794871794871794601 1 0.2051282051282050933 1 0.2307692307692307265 1 
	0.2564102564102563875 1 0.2820512820512820484 1 0.3076923076923077094 1 0.3333333333333333703 1 0.3589743589743590313 1 
	0.3846153846153846922 1 0.4102564102564103532 1 0.4358974358974360142 1 0.4615384615384616751 1 0.4871794871794873361 1 
	0.512820512820512997 1 0.538461538461538658 1 0.5641025641025643189 1 0.5897435897435899799 1 0.6153846153846156408 1 
	0.6410256410256413018 1 0.6666666666666669627 1 0.6923076923076926237 1 0.7179487179487182846 1 0.7435897435897439456 1 
	0.7692307692307696065 1 0.7948717948717952675 1 0.8205128205128209284 1 0.8461538461538465894 1 0.8717948717948722503 1 
	0.8974358974358979113 1 0.9230769230769235723 1 0.9487179487179492332 1 0.9743589743589748942 1 1.000000000000000444 3 
	-1.191870091581360617e-07 3 0.100041832798550015 3 
	7283.982924221277244 2887.650263744786571 13510.00000000014006 
	7275.002771303064947 2863.060162730416323 13509.99998045506254 
	7257.042620534114576 2813.880385318610024 13514.20473505408881 
	7230.792897702048322 2742.001505090348473 13532.96452861431135 
	7205.906681892529377 2673.856277921645869 13563.69603353163984 
	7183.021821428111252 2611.191305994673257 13605.61152371900243 
	7162.724943061582053 2555.612932902942703 13657.6365596552223 
	7145.536324011714896 2508.54581917079031 13718.43755906677143 
	7131.89656885272052 2471.196459953237536 13786.45598127088306 
	7122.155311698763398 2444.522248544560625 13859.9482779836635 
	7116.562254830013444 2429.20693769916079 13937.03058651526408 
	7115.260767698559903 2425.643111968935955 14015.72701971034439 
	7118.2842119407469 2433.922124587521466 14094.02031479506513 
	7125.555086184099309 2453.83175571909851 14169.90354282483167 
	7136.887012681501801 2484.86165240308037 14241.43155324008694 
	7151.98951481853328 2526.216410668513618 14306.77083482764647 
	7170.475463037823829 2576.83596450003688 14364.24651497805826 
	7191.870998313424025 2635.422759009554738 14412.38529248481973 
	7215.627678802617993 2700.475011272495976 14449.95320336879195 
	7241.136538314277459 2770.325206237518159 14475.98725165863107 
	7267.743696226287284 2843.182840925965593 14489.82009432055384 
	7294.767118715854849 2917.180321238871784 14491.097147576922 
	7321.514101654002843 2990.42083487697073 14479.78567611940707 
	7347.299027017101253 3061.026973224623362 14456.17563222855642 
	7371.460937656892384 3127.188855849977244 14420.87222329033102 
	7393.380479926692715 3187.210524023339076 14374.78039822983555 
	7412.495779865414079 3239.553414026880091 14319.08165052886761 
	7428.316845977685261 3282.875795883737283 14255.20373244652728 
	7440.438129416923402 3316.067166555174026 14184.78405677240698 
	7448.54891960997611 3338.276715988233263 14109.62772425260482 
	7452.44130884812057 3348.935136331941067 14031.6612525913115 
	7452.01552168202852 3347.769215270221594 13952.88319311412488 
	7447.282472517882525 3334.808839415565217 13875.31290096014527 
	7438.363485824738746 3310.386228160759856 13800.93877199793315 
	7425.48718623626155 3275.127417931624223 13731.66727334329516 
	7408.983637850047671 3229.936213994612899 13669.27407396452145 
	7389.275884500612847 3175.971025423493302 13615.35852821352637 
	7366.869102088522595 3114.615161226271539 13571.30267848237418 
	7342.33766256204035 3047.441408008697636 13538.23582992536285 
	7316.310360784350451 2976.171577119001995 13517.00559772191082 
	7298.406442186773347 2927.145778685814093 13511.10599750287111 
	7289.431049589774375 2902.568712725591467 13510.2574693576189 
	7393.616556164987742 2847.612739329975739 13510.00000000014006 
	7383.807175847191502 2823.296873261525434 13509.99998041481012 
	7364.188585069634428 2774.665562297559518 13514.21339492344123 
	7335.516383434781346 2703.59218391967579 13533.01149165286188 
	7308.336363129154051 2636.218399660956948 13563.80463887918086 
	7283.346475440609538 2574.274630164250539 13605.80190529898573 
	7261.188512474606796 2519.352032635556952 13657.92453893472339 
	7242.431525443219471 2472.861382722666349 13718.83370557863782 
	7227.557225051922615 2435.996872439170602 13786.96487869124394 
	7216.947606346181601 2409.705425316130913 13860.56802651870748 
	7210.875139459742059 2394.662375566408627 13937.75256415661897 
	7209.495771855857129 2391.254120295368921 14016.53591589231655 
	7212.84492347275318 2399.56819457453139 14094.89444042314972 
	7220.836577169472548 2419.391023188038616 14170.81541085439676 
	7233.265487950108763 2450.213407097307027 14242.34871428832048 
	7249.81245419280458 2491.243603602079475 14307.65694301976873 
	7270.052515512174978 2541.42766421710121 14365.06259066996063 
	7293.465866710305818 2599.476507825390399 14413.0911409559103 
	7319.451207519648051 2663.89903366590579 14450.50894229941878 
	7347.341185284036328 2733.040423565440051 14476.35489541552306 
	7376.419533973454236 2805.124649528656391 14489.96513994583438 
	7405.939469363282115 2878.300094777495815 14490.99010603474744 
	7435.142867948218736 2950.687116357028117 14479.40349286692617 
	7463.279737034113168 3020.42632755353452 14455.50294355456572 
	7489.627475973673427 3085.72635988312868 14419.90239905654562 
	7513.509433876986805 3144.909877780311035 14373.51632754946877 
	7534.31228719702176 3196.456664002211255 14317.53623436256021 
	7551.501790899484149 3239.042669012376791 14253.40005587396809 
	7564.636498697661409 3271.574021285537583 14182.75522355164139 
	7573.379099992395822 3293.215124917072444 14107.41634691281979 
	7577.505082367617433 3303.410122806608342 14029.31860239537127 
	7576.908497175117191 3301.897174100235134 13950.46802543192825 
	7571.604680153210211 3288.715179187294325 13872.88998256110426 
	7561.729857184435787 3264.202779448152796 13798.57714715230395 
	7547.537645448543117 3228.98965777342346 13729.43831507737741 
	7529.392539384119118 3183.98036221894472 13667.24937504298032 
	7507.76055045834255 3130.331072551305624 13613.60769309582247 
	7483.197234817756907 3069.419890820472574 13569.89108255386782 
	7456.333439917772921 3002.81147769244717 13537.22241490416309 
	7427.859048069067285 2932.216724415472981 13516.44077455874685 
	7408.289991557081521 2883.705116110128074 13510.86687230776079 
	7398.484494191727208 2859.398533594313903 13510.18583116160517 
	7501.245620472319388 2802.086731192770003 13510.00000000013642 
	7490.619477994503541 2778.087075124321018 13509.99998037455407 
	7469.367377601623048 2730.08817994427136 13514.22205479278637 
	7438.309523943512431 2659.94285752707583 13533.05845469140513 
	7408.871392780956739 2593.456419534385986 13563.91324422672005 
	7381.810483355789984 2532.340002954236297 13605.99228687896357 
	7357.823212193195104 2478.166736738960481 13658.21251821421538 
	7337.526883049217759 2432.331006450338464 13719.22985209050239 
	7321.443816598982266 2396.01259931802997 13787.47377611159573 
	7309.987904271627485 2370.14632726026548 13861.18777505375147 
	7303.453957966800772 2355.397967822064402 13938.47454179798115 
	7302.010122853127541 2352.147126749835024 14017.34481207429599 
	7305.693550349684301 2360.477467481707663 14095.76856605122703 
	7314.409442149839379 2380.174557922575787 14171.72727888395457 
	7327.933490018760494 2410.731390219304103 14243.26587533654674 
	7345.917648536194065 2451.361431368554349 14308.54305121188918 
	7367.899092226940411 2501.018868747406486 14365.87866636185572 
	7393.312126557955708 2558.425529432427993 14413.79698942699724 
	7421.502746265980022 2622.10378039708894 14451.06468123004743 
	7451.745466349096205 2690.414562728422425 14476.72253917241687 
	7483.261992568707683 2761.5995808557077 14490.11018557110765 
	7515.241250968683744 2833.826560835258078 14490.88306449256561 
	7546.860260944545189 2905.236412739745447 14479.02130961444163 
	7577.305314687570899 2973.991083190925565 14454.83025488057137 
	7605.792917945133013 3038.32086631284028 14418.93257482275658 
	7631.589953182436147 3096.569955325379397 14372.25225686910198 
	7654.032546243824982 3147.239062286883836 14315.99081819625462 
	7672.543150978967788 3189.024008963197048 14251.59637930139797 
	7686.645412161878085 3220.849295506667659 14180.72639033087216 
	7695.976424207952732 3241.895782902181509 14105.20496957303112 
	7700.296070216253611 3251.621776653292272 14026.97595219942377 
	7699.493201000736917 3249.776969028693202 13948.05285774972072 
	7693.588495110810072 3236.408881038893014 13870.4670641620578 
	7682.733926213033556 3211.861638269737796 13796.21552230666384 
	7667.208851684568799 3176.767112406012984 13727.20935681145056 
	7647.412822596545084 3132.028655369919761 13665.22467612143373 
	7623.855301979919204 3078.797848948748651 13611.85685797812403 
	7597.142549104269165 3018.444852846297181 13568.47948662535964 
	7567.962033005352168 2952.523172462706953 13536.20899988295241 
	7537.064680518163186 2882.72953667929005 13515.87595139558471 
	7515.852075827128829 2834.816996787480093 13510.62774711264865 
	7505.228570970933106 2810.822982517902346 13510.11419296559325 
	7606.332327554574476 2751.299718898388619 13510.00000000012915 
	7594.906073806524546 2727.656915022100748 13509.9999803342962 
	7572.053765411418681 2680.37171924234508 13514.2307146621315 
	7538.659296339452339 2611.273053990341396 13533.10541772994657 
	7507.010273224840603 2545.786004352370128 13564.02184957424834 
	7477.922869622418148 2485.599368049141958 13606.18266845894505 
	7452.147294470035376 2432.265451127325377 13658.50049749370373 
	7430.348327157737003 2387.159791806736393 13719.62599860235969 
	7413.088189350499306 2351.445719456132338 13787.98267353194569 
	7400.812040007846917 2326.04434139608702 13861.80752358879181 
	7393.836495452364034 2311.610789026941347 13939.19651943933604 
	7392.341463131850105 2308.517320535693216 14018.15370825626633 
	7396.365501684581432 2316.843720105538978 14096.64269167930433 
	7405.804826443004458 2336.375240139029302 14172.6391469135142 
	7420.415986168249219 2366.608139863298675 14244.18303638477664 
	7439.822141940951042 2406.762677390942372 14309.42915940400599 
	7463.522786278726016 2455.803220177336698 14366.69474205375263 
	7490.906651810125368 2512.464955196458959 14414.50283789807872 
	7521.267476575984801 2575.286509950015443 14451.62042016067062 
	7553.822219352374304 2642.647642975455256 14477.09018292930341 
	7587.731255200745181 2712.811031770629143 14490.25523119638274 
	7622.120030378309821 2783.967080375564365 14490.77602295038014 
	7656.101618103175497 2854.280590971349284 14478.6391263619571 
	7688.79959343468181 2921.938095780931235 14454.15756620657339 
	7719.370637298909969 2985.194628526710403 14417.96275058896208 
	7747.026286675165466 3042.418729154234825 14370.98818618873156 
	7771.053269980583536 3092.134521097466859 14314.44540202994176 
	7790.831903179495384 3133.059775863715913 14249.7927027288315 
	7805.852072160412717 3164.138983208033096 14178.69755711009748 
	7815.726389176198609 3184.570573978224274 14102.99359223323881 
	7820.200184028160947 3193.82759352286439 14024.63330200347627 
	7819.158072306995564 3191.671292465329316 13945.63769006751681 
	7812.626931298207637 3178.157284342995354 13868.04414576300769 
	7800.775206761611116 3153.634111219677379 13793.85389746102192 
	7783.908568606894733 3118.734254561753914 13724.98039854552371 
	7762.462026976670131 3074.357822113426209 13663.19997719988351 
	7736.988714064706073 3021.649335628135759 13610.10602286041285 
	7708.145613564077394 2961.968202742696121 13567.06789069684237 
	7676.676633548548125 2896.853691976590653 13535.19558486173992 
	7643.393355796380092 2827.985099907341464 13515.31112823241347 
	7620.567348298203797 2780.754325021917793 13510.38862191752924 
	7609.142139988357485 2757.113684329734042 13510.04255476957951 
	0 
	
	0 
	0 
	38 0.02564102564102564014 0.05128205128205128027 0.07692307692307692735 0.1025641025641025605 0.1282051282051281937 0.1538461538461538269 0.1794871794871794601 0.2051282051282050933 0.2307692307692307265 0.2564102564102563875 0.2820512820512820484 0.3076923076923077094 0.3333333333333333703 0.3589743589743590313 0.3846153846153846922 0.4102564102564103532 0.4358974358974360142 0.4615384615384616751 0.4871794871794873361 0.512820512820512997 0.538461538461538658 0.5641025641025643189 0.5897435897435899799 0.6153846153846156408 0.6410256410256413018 0.6666666666666669627 0.6923076923076926237 0.7179487179487182846 0.7435897435897439456 0.7692307692307696065 0.7948717948717952675 0.8205128205128209284 0.8461538461538465894 0.8717948717948722503 0.8974358974358979113 0.9230769230769235723 0.9487179487179492332 0.9743589743589748942 
	0 
	0 
	0 
	F 1 F 0 F 1 F 0 } I I I I #
tcoedge-coedge $-1 -1 $-1 $7 $8 $-1 $9 forward $4 $10 0 6.250766387756697462 #
coedge $-1 -1 $-1 $11 $6 $-1 $12 forward $4 $13 #
coedge $-1 -1 $-1 $6 $11 $-1 $14 forward $4 $15 #
tedge-edge $-1 -1 $-1 $16 0 $17 6.250766387756697462 $6 $18 forward @7 unknown 0.0008503927470120737795 #
pcurve $-1 -1 $-1 0 forward { exppc nubs 1 open 2 
	0 1 6.250766387756697462 1 
	0 0 
	0.9999999999999991118 0 
	6.72005388064233942e-08 
	spline forward { ref 0 } I I I I 
	} 0 0 #
tcoedge-coedge $-1 -1 $-1 $8 $7 $-1 $19 forward $4 $20 2.684899366557459962e-18 6.270005910518958281 #
edge $-1 -1 $-1 $17 -1.597735222484385931 $21 -1.482133598311660361 $7 $22 forward @7 unknown #
pcurve $-1 -1 $-1 0 forward { exppc nubs 3 open 2 
	-1.597735222484385931 3 -1.482133598311660361 3 
	1.000000000000000444 0 
	0.9999999975121025564 0.03330815819593628546 
	1.000000000000000444 0.06667390754959662269 
	1.000000000000000222 0.1000417136115408501 
	1.901302411093583028e-06 
	spline forward { ref 0 } I I I I 
	} 0 0 #
edge $-1 -1 $-1 $23 -0.1000208620216445632 $16 -1.830985469788931057e-26 $8 $24 forward @7 unknown #
pcurve $-1 -1 $-1 0 forward { exppc nubs 1 open 2 
	-0.1000208620216448407 1 -1.830985469788931057e-26 1 
	1.893454743439177923e-15 0.1000417136115408501 
	6.769332568937392353e-17 0 
	0.0009308921368627524721 
	spline forward { ref 0 } I I I I 
	} 0 0 #
tvertex-vertex $-1 -1 $-1 $9 $25 1.276612014672455967e-11 #
tvertex-vertex $-1 -1 $-1 $9 $26 1.416782831503573111e-11 #
ellipse-curve $-1 -1 $-1 7283.983190838031987 2887.649777741291018 14000.00000000000364 -0.9393226405652583821 0.3430349500000115515 1.554112870173746834e-12 -6.204828650879789868e-10 5.19776222063228488e-10 -489.9999999999990337 1 F 0 F 6.250766387756697462 #
tedge-edge $-1 -1 $-1 $21 2.684899366557459962e-18 $23 6.270005910518958281 $11 $27 forward @7 unknown 0.0008609630374529750373 #
pcurve $-1 -1 $-1 0 forward { exppc nubs 1 open 2 
	0 1 6.270005910518958281 1 
	1 0.1000417136115408501 
	1.228026941226288731e-15 0.1000417136115407252 
	5.362984295446039596e-08 
	spline forward { ref 0 } I I I I 
	} 0 0 #
tvertex-vertex $-1 -1 $-1 $12 $28 1.918544623196983459e-11 #
ellipse-curve $-1 -1 $-1 6339.765784474199791 447.8075279678484435 13510.12130255290504 -0.0005501477509192082872 0.0002683043030037375772 -0.9999998126751089567 2800.138066826814338 -1184.716800791428113 -1.858354623337271194 0.8655747828707108793 F -1.597735222484385931 F -1.482133598311660361 #
tvertex-vertex $-1 -1 $-1 $19 $29 1.818545231595635192e-11 #
ellipse-curve $-1 -1 $-1 6083.076494611621456 -400.651752723085508 13510.00000000173168 2.04165369114179901e-13 4.509047261042912962e-13 1 1200.906696225790711 3288.301530464896132 -1.728255938360234888e-09 1 F -0.1000208620216445632 F -1.830985469788931057e-26 #
point $-1 -1 $-1 7283.983190837411712 2887.649777741810794 13510.00000000000364 #
point $-1 -1 $-1 7289.431439358866555 2902.568558430566554 13510.2574691015725 #
ellipse-curve $-1 -1 $-1 7606.331792618088912 2751.299570725846479 14000.00000000000182 0.9003654385642017033 -0.4351345505002940928 1.787625030457388314e-11 2.809975971641879067 5.81430556685348332 -489.9574449743724927 1 F 2.684899366557459962e-18 F 6.270005910518958281 #
point $-1 -1 $-1 7609.141768589730418 2757.113876292699842 13510.04255502563137 #
point $-1 -1 $-1 7606.331792626066999 2751.29957072222669 13510 #
End-of-ACIS-data 