700 0 1 0           
4 LibG 19 ASM 222.0.0.1700 NT 24 Wed Oct  5 17:29:48 2016 
1000 9.999999999999999547e-07 1.000000000000000036e-10 
body $-1 -1 $-1 $1 $-1 $-1 #
lump $-1 -1 $-1 $-1 $2 $0 #
shell $-1 -1 $-1 $-1 $-1 $3 $-1 $1 #
face $-1 -1 $-1 $-1 $4 $2 $-1 $5 forward double out #
loop $-1 -1 $-1 $-1 $6 $3 #
spline-surface $-1 -1 $-1 forward { exactsur full nubs 3 3 open open none none 40 2 
	-1.191870091311791058e-07 3 0.02564102564102564014 1 0.05128205128205128027 1 0.07692307692307692735 1 0.1025641025641025605 1 
	0.1282051282051281937 1 0.1538461538461538269 1 0.1794871794871794601 1 0.2051282051282050933 1 0.2307692307692307265 1 
	0.2564102564102563875 1 0.2820512820512820484 1 0.3076923076923077094 1 0.3333333333333333703 1 0.3589743589743590313 1 
	0.3846153846153846922 1 0.4102564102564103532 1 0.4358974358974360142 1 0.4615384615384616751 1 0.4871794871794873361 1 
	0.512820512820512997 1 0.538461538461538658 1 0.5641025641025643189 1 0.5897435897435899799 1 0.6153846153846156408 1 
	0.6410256410256413018 1 0.6666666666666669627 1 0.6923076923076926237 1 0.7179487179487182846 1 0.7435897435897439456 1 
	0.7692307692307696065 1 0.7948717948717952675 1 0.8205128205128209284 1 0.8461538461538465894 1 0.8717948717948722503 1 
	0.8974358974358979113 1 0.9230769230769235723 1 0.9487179487179492332 1 0.9743589743589748942 1 1.000000000000000444 3 
	-1.191870088978854401e-07 3 0.1000418327985499595 3 
	5208.360430702782651 3095.643141730663956 13510.00000000014734 
	5209.669361065213707 3069.497340621539024 13509.9999804550589 
	5212.287199187732767 3017.206189883750085 13514.20473505409063 
	5216.113309893563383 2940.779870801276047 13532.96452861431135 
	5219.740678355525233 2868.32341545578447 13563.69603353163984 
	5223.076332990225637 2801.69392533885366 13605.61152371900062 
	5226.034768174848978 2742.599369851840947 13657.63655965522048 
	5228.540149271090741 2692.55454109322136 13718.43755906676961 
	5230.528254576910513 2652.842263494826966 13786.45598127088306 
	5231.948122075071296 2624.48050012401427 13859.94827798366168 
	5232.763355626321754 2608.196261557681737 13937.03058651526044 
	5232.953057966381493 2604.406969326812941 14015.7270197103353 
	5232.51236636527301 2613.209756154688421 14094.02031479506513 
	5231.452577278686476 2634.378976054108989 14169.90354282482986 
	5229.800856779899732 2667.371988431809314 14241.43155324008694 
	5227.599544199149022 2711.3430678467289 14306.77083482764101 
	5224.905066819645072 2765.16508289002013 14364.24651497805826 
	5221.786493450368653 2827.458388475534321 14412.38529248481791 
	5218.32376395276151 2896.626190932846839 14449.95320336879013 
	5214.605640104541635 2970.89547937218731 14475.98725165862743 
	5210.727430327239745 3048.362474108484093 14489.82009432055384 
	5206.788546600467271 3127.041427143558394 14491.09714757692382 
	5202.889956187804273 3204.915523780761305 14479.78567611940343 
	5199.1315934952936 3279.988580586915305 14456.1756322285546 
	5195.609798405739639 3350.336214503368865 14420.8722232903292 
	5192.414846753034908 3414.155171464195519 14374.78039822983192 
	5189.628636239175648 3469.809550057817887 14319.08165052886761 
	5187.322587111833855 3515.872735359128455 14255.20373244652546 
	5185.555811415502831 3551.163968022520294 14184.78405677240517 
	5184.373597744564904 3574.778611242597435 14109.62772425260118 
	5183.806250339393955 3586.111339736929494 14031.6612525913115 
	5183.868312283629166 3584.87165633055065 13952.88319311412306 
	5184.558192713760036 3571.091338421435012 13875.31290096014527 
	5185.858207601158938 3545.12362336160777 13800.93877199793133 
	5187.735033045076307 3507.634153958595562 13731.66727334329335 
	5190.140559517433758 3459.583914989331333 13669.27407396451963 
	5193.013124936907843 3402.204602624075051 13615.35852821352273 
	5196.279095805190991 3336.96704132892728 13571.30267848236872 
	5199.854752736966475 3265.543520524620362 13538.23582992536285 
	5203.648443764202966 3189.764782469264446 13517.00559772191082 
	5206.258085590166047 3137.637352236221432 13511.10599750286383 
	5207.566322097047305 3111.505410847847088 13510.25746935761345 
	5324.930066999023438 3101.478937151789523 13510.00000000015098 
	5325.368447977365577 3075.262661539186411 13509.99998041480649 
	5326.245202295432136 3022.830564384517402 13514.21339492344487 
	5327.526418718728564 2946.202379327629842 13533.01149165286552 
	5328.740669830758634 2873.562817769264257 13563.80463887918086 
	5329.856642514029772 2806.777492501528286 13605.80190529898573 
	5330.845554406806514 2747.561877201424068 13657.92453893472521 
	5331.681900683165622 2697.436977034693427 13718.83370557863964 
	5332.344111183402674 2657.690299087651965 13786.96487869124394 
	5332.815106905530229 2629.342770730941538 13860.5680265187093 
	5333.082740440718226 2613.1225188170406 13937.75256415662079 
	5333.140109278761884 2609.446166304612234 14016.53591589232019 
	5332.9857338266238 2618.408131261705876 14094.89444042315336 
	5332.623595569382815 2639.778201896388964 14170.81541085439858 
	5332.063034383821105 2673.007450220729879 14242.3487142883223 
	5331.31850765447598 2717.242332350180277 14307.65694301976873 
	5330.409217404512674 2771.346613264591724 14365.06259066996245 
	5329.358615057972202 2833.930552844133217 14413.0911409559103 
	5328.193796606159594 2903.38660348498297 14450.50894229942242 
	5326.944803777290872 2977.930702338283481 14476.35489541552488 
	5325.64384923295529 3055.64809751139228 14489.9651399458362 
	5324.324485774181085 3134.54253111002572 14490.99010603474926 
	5323.020740984145959 3212.587515776491273 14479.40349286692799 
	5321.766239625790149 3287.778387606851084 14455.50294355456572 
	5320.593336428604744 3358.183798390135053 14419.90239905654562 
	5319.532281630677062 3421.995324517456538 14373.51632754947241 
	5318.610440797581759 3477.5739182882553 14317.53623436256203 
	5317.851589039551982 3523.492008451853962 14253.40005587396809 
	5317.275297829831288 3558.570168581846701 14182.75522355164139 
	5316.896430238622088 3581.907411416806099 14107.41634691281979 
	5316.724757601087731 3592.904331032490518 14029.31860239537127 
	5316.764707505863953 3591.278498419600055 13950.46802543192825 
	5317.01524960342158 3577.071715055866662 13872.88998256110426 
	5317.469922180747744 3550.648938091976106 13798.57714715230577 
	5318.11699881153254 3512.688905111622262 13729.43831507737741 
	5318.939790804242875 3464.166698095283664 13667.24937504298032 
	5319.917077571279151 3406.32869901767026 13613.60769309582429 
	5321.023654104773414 3340.660563491516768 13569.89108255386782 
	5322.23098037463933 3268.849098256916932 13537.22241490416491 
	5323.507919873341052 3192.738786163831719 13516.44077455875049 
	5324.383662245587402 3140.436231843434143 13510.86687230776079 
	5324.822002795266599 3114.230019035349869 13510.18583116161062 
	5441.791664200931336 3101.478937527732342 13510.00000000015098 
	5441.35462392440968 3075.235702377326561 13509.99998037454861 
	5440.480550918208792 3022.749687992594772 13514.22205479279364 
	5439.20304672347811 2946.046855490180405 13533.05845469140513 
	5437.991901480125307 2873.344839489940114 13563.91324422672005 
	5436.878157870734867 2806.514690831658754 13605.99228687896539 
	5435.890365709113212 2747.276559388266833 13658.21251821421538 
	5435.053845688480578 2697.155152962799093 13719.22985209050239 
	5434.390040969710753 2657.440532401018118 13787.47377611159754 
	5433.91596733823917 2629.154896265159095 13861.1877750537551 
	5433.643777072770717 2613.026273481668795 13938.47454179798297 
	5433.580447424437807 2609.469784079461078 14017.34481207429963 
	5433.727601767188389 2618.57695490419519 14095.76856605123066 
	5434.081467983795847 2640.113364085127614 14171.72727888395821 
	5434.632975159577654 2673.524675202863818 14243.2658753365522 
	5435.367986103853582 2717.950905746110948 14308.543051211891 
	5436.267659739005467 2772.248562611896887 14365.87866636186118 
	5437.308934067748851 2835.020074882087556 14413.79698942700088 
	5438.46511733835996 2904.64976629089233 14451.06468123005106 
	5439.706572254018283 2979.345441469828074 14476.72253917242051 
	5441.001475687521634 3057.184515563956666 14490.11018557110765 
	5442.316634426964811 3136.163499871612657 14490.88306449256743 
	5443.61833604180265 3214.249569780274669 14479.02130961444345 
	5444.873213058404872 3289.432887676860446 14454.83025488057319 
	5446.0490982930869 3359.778334080932382 14418.9325748227584 
	5447.115849417178651 3423.475315484012299 14372.25225686910562 
	5448.04612161750174 3478.884366885646159 14315.99081819625644 
	5448.81606854603524 3524.579349521928179 14251.59637930140343 
	5449.405953590850913 3559.384157662168036 14180.72639033087398 
	5449.80065579912025 3582.402989684239401 14105.20496957303294 
	5449.990057483566488 3593.043404294845459 14026.97595219942741 
	5449.969303576383027 3591.031568460504786 13948.05285774972799 
	5449.738926082906801 3576.41930462631035 13870.46706416206143 
	5449.304830443292303 3549.582755770319181 13796.21552230666566 
	5448.678144157243878 3511.212703007611253 13727.20935681145238 
	5447.874931531960101 3462.296783767522356 13665.22467612143737 
	5446.915781940555462 3404.094072817670167 13611.85685797812403 
	5445.825281864765202 3338.102663419756027 13568.47948662536146 
	5444.631385303261595 3266.021146542018869 13536.20899988295423 
	5443.364694773415977 3189.704742789695501 13515.87595139558653 
	5442.493355546750536 3137.313647700793354 13510.62774711264865 
	5442.056546622224232 3111.076636168193545 13510.1141929655987 
	5558.361300572049004 3095.643142852869914 13510.00000000014916 
	5557.048341382737817 3069.416866182041304 13509.99998033429256 
	5554.42244588226913 3016.96476982988861 13514.2307146621406 
	5550.585179880056785 2940.315624408462554 13533.10541772995202 
	5546.948478241252815 2867.672739446576088 13564.02184957425743 
	5543.606125209802485 2800.909449278697593 13606.18266845894868 
	5540.644325218117046 2741.747681983689745 13658.50049749371283 
	5538.139466225734395 2691.713282216569951 13719.62599860236332 
	5536.156151567894995 2652.096697508179204 13787.98267353194933 
	5534.745533228398926 2623.919685496032344 13861.80752358879909 
	5533.943992712454929 2607.908964442946854 13939.19651943933786 
	5533.772202686889614 2604.47746955983348 14018.1537082562736 
	5534.234593818092435 2613.713703127277313 14096.64269167930979 
	5535.319240497198734 2635.379451863359463 14172.63914691352147 
	5536.99816841624579 2668.915930737817234 14244.18303638477846 
	5539.228076058132501 2713.458194688384083 14309.42915940400962 
	5541.951451493510831 2767.857446567873012 14366.69474205375627 
	5545.098055680762627 2830.710665967581463 14414.502837898086 
	5548.586734013159912 2900.396794756674353 14451.62042016067426 
	5552.327509391188869 2975.118546069655622 14477.09018292931069 
	5556.223902837315109 3052.948758439286394 14490.25523119638819 
	5560.175421801797711 3131.880099547583086 14490.7760229503856 
	5564.080151983221185 3209.87683767692215 14478.63912636196073 
	5567.837385817674658 3284.927345614919432 14454.15756620657521 
	5571.350219844757703 3355.09598287591416 14417.96275058896754 
	5574.52805396129861 3418.573018135753955 14370.98818618873884 
	5577.288928104106162 3473.721304321901698 14314.44540202994722 
	5579.561636095985705 3519.118502553543749 14249.79270272883696 
	5581.287562136426459 3553.593765927002551 14178.69755711010293 
	5582.422192571720188 3576.257937028193282 14102.99359223324063 
	5582.936263954300557 3586.526480344599804 14024.63330200348173 
	5582.816517781075163 3584.134558116743392 13945.63769006752045 
	5582.066042446529536 3569.143860828778543 13868.04414576301497 
	5580.704193586647307 3541.941016083966133 13793.85389746102919 
	5578.766094884630547 3503.227617230247233 13724.98039854552735 
	5576.301732151829128 3454.002127684088464 13663.19997719989078 
	5573.374664277494958 3395.534132234099616 13610.10602286042013 
	5570.060383439219549 3329.331582347374933 13567.0678906968551 
	5566.444370054553474 3257.101943951986414 13535.19558486174537 
	5562.619880739109249 3180.70801203979272 13515.31112823241892 
	5559.99700740190201 3128.316283207454035 13510.38862191753469 
	5558.684168341002987 3102.092406094019225 13510.04255476958679 
	0 
	
	0 
	0 
	38 0.02564102564102564014 0.05128205128205128027 0.07692307692307692735 0.1025641025641025605 0.1282051282051281937 0.1538461538461538269 0.1794871794871794601 0.2051282051282050933 0.2307692307692307265 0.2564102564102563875 0.2820512820512820484 0.3076923076923077094 0.3333333333333333703 0.3589743589743590313 0.3846153846153846922 0.4102564102564103532 0.4358974358974360142 0.4615384615384616751 0.4871794871794873361 0.512820512820512997 0.538461538461538658 0.5641025641025643189 0.5897435897435899799 0.6153846153846156408 0.6410256410256413018 0.6666666666666669627 0.6923076923076926237 0.7179487179487182846 0.7435897435897439456 0.7692307692307696065 0.7948717948717952675 0.8205128205128209284 0.8461538461538465894 0.8717948717948722503 0.8974358974358979113 0.9230769230769235723 0.9487179487179492332 0.9743589743589748942 
	0 
	0 
	0 
	F 1 F 0 F 1 F 0 } I I I I #
tcoedge-coedge $-1 -1 $-1 $7 $8 $-1 $9 forward $4 $10 0 6.250766387756696574 #
coedge $-1 -1 $-1 $11 $6 $-1 $12 forward $4 $13 #
coedge $-1 -1 $-1 $6 $11 $-1 $14 forward $4 $15 #
tedge-edge $-1 -1 $-1 $16 -7.814085595768073775e-29 $17 6.250766387756696574 $6 $18 forward @7 unknown 0.0008503927427164743131 #
pcurve $-1 -1 $-1 0 forward { exppc nubs 1 open 2 
	0 1 6.250766387756696574 1 
	0 0 
	0.9999999999999987788 0 
	6.318719176667568589e-08 
	spline forward { ref 0 } I I I I 
	} 0 0 #
tcoedge-coedge $-1 -1 $-1 $8 $7 $-1 $19 forward $4 $20 0 6.270005910518960057 #
edge $-1 -1 $-1 $17 -1.597735222668796862 $21 -1.482133598413375219 $7 $22 forward @7 unknown #
pcurve $-1 -1 $-1 0 forward { exppc nubs 3 open 2 
	-1.597735222668796862 3 -1.482133598413375219 3 
	0.999999999999999889 3.307034733867452764e-16 
	0.9999999975121000029 0.03330815819588869159 
	1.000000000000000444 0.06667390754965520083 
	1 0.1000417136115408501 
	1.90130843561481644e-06 
	spline forward { ref 0 } I I I I 
	} 0 0 #
edge $-1 -1 $-1 $23 -0.1000208620216345573 $16 3.029881616755802571e-16 $8 $24 forward @7 unknown #
pcurve $-1 -1 $-1 0 forward { exppc nubs 1 open 2 
	-0.1000208620216345989 1 -1.830985469789711945e-26 1 
	0 0.1000417136115408223 
	1.790380815983856737e-16 2.332936682151844725e-16 
	0.0009308921363953366526 
	spline forward { ref 0 } I I I I 
	} 0 0 #
tvertex-vertex $-1 -1 $-1 $9 $25 1.738876988601619668e-11 #
tvertex-vertex $-1 -1 $-1 $9 $26 1.406738395668033167e-11 #
ellipse-curve $-1 -1 $-1 5208.36086559130581 3095.642797989922656 14000.00000000000364 -0.9987492177719062836 -0.0500000000000518155 6.044937238964973932e-12 -2.972470269924087916e-09 1.261540205632627631e-10 -489.9999999999990337 1 F -7.814085595768073775e-29 F 6.250766387756696574 #
tedge-edge $-1 -1 $-1 $21 -2.684899366557484229e-18 $23 6.270005910518960057 $11 $27 forward @7 unknown 0.0008609630417319708148 #
pcurve $-1 -1 $-1 0 forward { exppc nubs 1 open 2 
	0 1 6.270005910518960945 1 
	0.999999999999999889 0.1000417136115408223 
	1.022161409156890285e-15 0.1000417136115408501 
	6.724198622861017207e-08 
	spline forward { ref 0 } I I I I 
	} 0 0 #
tvertex-vertex $-1 -1 $-1 $12 $28 1.374994272134941551e-11 #
ellipse-curve $-1 -1 $-1 5289.234680350755298 480.7171545559944548 13510.12130255295233 -0.0006112077300546571402 3.278502056132946604e-05 -0.9999998126751090677 3040.44848804461617 -0.2639980213624998351 -1.858354622022499569 0.8655747822521738799 F -1.597735222668796862 F -1.482133598413375219 #
tvertex-vertex $-1 -1 $-1 $19 $29 2.279772484801495868e-11 #
ellipse-curve $-1 -1 $-1 5383.360865609234679 -400.7094222950964308 13510.00000000173168 1.23756243333697887e-14 4.948185666394676378e-13 1 -175.0000000208996198 3496.35222028514454 -1.728255938360234888e-09 1 F -0.1000208620216345573 F 3.029881616755802571e-16 #
point $-1 -1 $-1 5208.360865588333581 3095.642797990048621 13510.00000000000364 #
point $-1 -1 $-1 5207.566741181848556 3111.505420585879619 13510.2574691015725 #
ellipse-curve $-1 -1 $-1 5558.360865628969805 3095.64279798988764 13999.99999999999818 0.9987492177719078379 -0.05000000000002208927 2.72119309499618274e-12 0.3228858719812592315 6.449640214742340838 -489.9574449743703326 1 F -2.684899366557484229e-18 F 6.270005910518960057 #
point $-1 -1 $-1 5558.683751500951985 3102.092438204630071 13510.04255502563137 #
point $-1 -1 $-1 5558.360865630313128 3095.642797990034069 13510 #
End-of-ACIS-data 