700 0 1 0           
4 LibG 19 ASM 222.0.0.1700 NT 24 Wed Oct  5 17:29:48 2016 
1000 9.999999999999999547e-07 1.000000000000000036e-10 
body $-1 -1 $-1 $1 $-1 $-1 #
lump $-1 -1 $-1 $-1 $2 $0 #
shell $-1 -1 $-1 $-1 $-1 $3 $-1 $1 #
face $-1 -1 $-1 $-1 $4 $2 $-1 $5 forward double out #
loop $-1 -1 $-1 $-1 $6 $3 #
spline-surface $-1 -1 $-1 forward { exactsur full nubs 3 3 open open none none 40 2 
	-1.191870088975447344e-07 3 0.02564102564102564014 1 0.05128205128205128027 1 0.07692307692307692735 1 0.1025641025641025605 1 
	0.1282051282051281937 1 0.1538461538461538269 1 0.1794871794871794601 1 0.2051282051282050933 1 0.2307692307692307265 1 
	0.2564102564102563875 1 0.2820512820512820484 1 0.3076923076923077094 1 0.3333333333333333703 1 0.3589743589743590313 1 
	0.3846153846153846922 1 0.4102564102564103532 1 0.4358974358974360142 1 0.4615384615384616751 1 0.4871794871794873361 1 
	0.512820512820512997 1 0.538461538461538658 1 0.5641025641025643189 1 0.5897435897435899799 1 0.6153846153846156408 1 
	0.6410256410256413018 1 0.6666666666666669627 1 0.6923076923076926237 1 0.7179487179487182846 1 0.7435897435897439456 1 
	0.7692307692307696065 1 0.7948717948717952675 1 0.8205128205128209284 1 0.8461538461538465894 1 0.8717948717948722503 1 
	0.8974358974358979113 1 0.9230769230769235723 1 0.9487179487179492332 1 0.9743589743589748942 1 1.000000000000000444 3 
	-1.191870088975447344e-07 3 0.100041832798549557 3 
	9626.318621293501565 421.605368416150327 13510.00000000013824 
	9605.018556056153102 406.3861885691253519 13509.99998045505527 
	9562.418793386710604 375.9480916768229122 13514.20473505408881 
	9500.156957326949851 331.4611818931912239 13532.96452861430953 
	9441.129229727979691 289.2850856099448151 13563.69603353163802 
	9386.848525904875714 250.500800937506483 13605.61152371899698 
	9338.706268500247461 216.1025178562877045 13657.63655965521866 
	9297.936505397494329 186.9719799885745033 13718.43755906676597 
	9265.584308574789247 163.8559051594852747 13786.45598127088124 
	9242.478976765549305 147.3468383415415417 13859.94827798365986 
	9229.212779935100116 137.8679643006025515 13937.03058651525862 
	9226.12577673393389 135.6622594643330331 14015.72701971033348 
	9233.297097777862291 140.7862637099608492 14094.02031479506331 
	9250.542917211718304 153.1086310195682643 14169.90354282482804 
	9277.421164815939846 172.3134963429015727 14241.43155324008512 
	9313.242857797755278 197.9085723128639813 14306.77083482763919 
	9357.089761812780125 229.2377682802960237 14364.24651497805644 
	9407.83792849866586 265.4980081947202279 14412.38529248481609 
	9464.186506173375165 305.7598162314265551 14449.95320336878649 
	9524.691085179661968 348.9911424834471632 14475.98725165862743 
	9587.800723118767564 394.0838179834113362 14489.82009432055202 
	9651.897700888130203 439.8819609211190027 14491.09714757692382 
	9715.338990437809116 485.2116059069311405 14479.78567611940161 
	9776.498371283110828 528.9107967800754295 14456.17563222855279 
	9833.808116180964134 569.8593715787120573 14420.87222329032738 
	9885.79917742141879 607.0076761796170786 14374.78039822983192 
	9931.138843620245098 639.4034705771814515 14319.08165052886397 
	9968.664901738071421 666.2163381004073699 14255.20373244652546 
	9997.41542863527502 686.7589718749737813 14184.78405677239971 
	10016.65344850106703 700.5047928842305964 14109.62772425259936 
	10025.88582410276103 707.1014480179917427 14031.66125259130968 
	10024.87589760177616 706.3798421036663058 13952.88319311412124 
	10013.64955692739932 698.3584724109692843 13875.31290096014163 
	9992.494572135356066 683.2429544713050973 13800.93877199792951 
	9961.953219026108854 661.4207515549459231 13731.66727334329153 
	9922.808378122439535 633.4512422056752712 13669.27407396451781 
	9876.063469004782746 600.0513830565577109 13615.35852821352091 
	9822.916720671735675 562.0773246603991993 13571.3026784823669 
	9764.730488539720682 520.5024880779689056 13538.23582992536103 
	9702.99621398272393 476.392528003243342 13517.005597721909 
	9660.529828654343873 446.0497309946965743 13511.10599750286201 
	9639.241054444370093 430.8386187368728315 13510.25746935760981 
	9694.172509594669464 326.6401829172108933 13510.00000000014188 
	9672.343072000183383 312.1156884617673768 13509.99998041480649 
	9628.684574876197075 283.066951156228015 13514.21339492344305 
	9564.878710123108249 240.6130716662887323 13533.01149165286188 
	9504.393896972120274 200.3692188780084678 13563.80463887917904 
	9448.783507234198623 163.3690888871094273 13605.80190529898573 
	9399.475907668700529 130.5631798585486081 13657.92453893472339 
	9357.737551319862177 102.7942277516366119 13718.833705578636 
	9324.640481292408367 80.77557915163887969 13786.96487869124394 
	9301.034786539297784 65.07286040207596045 13860.56802651870748 
	9287.526769723201141 56.08944893673893972 13937.75256415661897 
	9284.463373824222799 54.05611066056980718 14016.53591589232019 
	9291.923271271951307 59.02507209549142431 14094.89444042314972 
	9309.714843462781573 70.86867889524528152 14170.81541085439676 
	9337.381102823281253 89.28267536643375024 14242.34871428831866 
	9374.211430914332595 113.7940206939107952 14307.65694301976873 
	9419.259831089957515 143.7730410855217826 14365.06259066996063 
	9471.369226871333012 178.4496056484460382 14413.0911409559103 
	9529.201181916780115 216.9329104476854582 14450.50894229942242 
	9591.270278211895857 258.2343625050241371 14476.3548954155267 
	9655.982269456997528 301.292975863022491 14489.96513994583438 
	9721.675029663081659 345.0026273062864561 14490.99010603474744 
	9786.661245173119823 388.2404715604722583 14479.40349286692617 
	9849.271753546883701 429.8957860046851351 14455.5029435545639 
	9907.898416134858053 468.8985039006132638 14419.90239905654198 
	9961.03542314641345 504.2467031452076753 14373.51632754947241 
	10007.31797028226902 535.0323443871658355 14317.53623436256021 
	10045.55731351581016 560.4645973217807295 14253.40005587396627 
	10074.77130163966103 579.8901559382892401 14182.75522355163957 
	10094.20960235080383 592.8100208467376433 14107.41634691281979 
	10103.37297395053429 598.8923175719584151 14029.31860239536945 
	10102.02608767121455 597.9808215321329499 13950.46802543192643 
	10090.20357132310892 590.0989707288422323 13872.88998256110244 
	10068.2091189763596 575.4492630320079343 13798.57714715230031 
	10036.60768983930757 554.4080537385367506 13729.43831507737741 
	9996.210995718671256 527.5158863933183966 13667.24937504298032 
	9948.056653617142729 495.463607792619257 13613.60769309582247 
	9893.381524878452183 459.0746145046337574 13569.891082553866 
	9833.589978254742164 419.2837219762326981 13537.22241490416309 
	9770.217695923814972 377.1130685124902584 13516.44077455874685 
	9726.667688121580795 348.1351297734096306 13510.86687230776079 
	9704.846698522820589 333.6161027705105653 13510.18583116160698 
	9757.272075506356487 228.2782101719609784 13510.00000000014188 
	9734.947261367233295 214.4759977038080194 13509.99998037455043 
	9690.298020906764577 186.8718125878134515 13514.22205479279 
	9625.047741277136083 146.5312927706851838 13533.05845469140331 
	9563.200764657953187 108.2951647453996316 13563.91324422672005 
	9506.348709137004334 73.14757624265634206 13605.99228687896903 
	9455.954833990308543 41.99329406574715051 13658.2125182142172 
	9413.316152060828244 15.63427376664640178 13719.22985209050421 
	9379.530081039391007 -5.250963316168548722 13787.47377611159573 
	9355.466189359334749 -20.12480191381289529 13861.18777505375328 
	9341.743817906017284 -28.60437042464773327 13938.47454179798297 
	9338.716139043659496 -30.47139699617580177 14017.34481207429599 
	9346.461067121586893 -25.67782798142494372 14095.76856605122521 
	9364.779253361206429 -14.34706478566060461 14171.72727888396003 
	9393.199217002507794 3.229212903264033763 14243.26587533654856 
	9430.989480561449454 26.59855567356455808 14308.543051211891 
	9477.177396870814846 55.15939145900867402 14365.87866636185936 
	9530.574183317854477 88.17651129166240764 14413.79698942699906 
	9589.805518937135275 124.7999950991444393 14451.06468123004561 
	9653.346916838412653 164.0870903531352667 14476.72253917242051 
	9719.562961542433186 205.0264803643273126 14490.11018557111129 
	9786.749401323259008 246.5643175053785967 14490.88306449256379 
	9853.177012174828633 287.63135121158723 14479.02130961444163 
	9917.13610442317804 327.1704524283990168 14454.83025488057319 
	9976.980526467523305 364.1638259708454939 14418.93257482275658 
	10031.17003307884988 397.6592102953493963 14372.25225686910562 
	10078.30992778064319 426.7943902518852042 14315.99081819625462 
	10117.18695899914019 450.8193918135650051 14251.59637930140161 
	10146.80054609447143 469.115787452934569 14180.72639033087398 
	10166.38853158624261 481.2126152134500785 14105.20496957303294 
	10175.44679677723798 486.7985016975547978 14026.97595219942741 
	10173.74223591882765 485.7296769088351311 13948.05285774972617 
	10161.31875502780167 478.0336746544256243 13870.4670641620578 
	10138.49614090354771 463.9086232187806331 13796.21552230666384 
	10105.86182975603515 443.7181447538833936 13727.20935681145056 
	10064.25578628935364 417.9819940573821668 13665.22467612143555 
	10014.74888632352304 387.3626801260760431 13611.85685797812403 
	9958.615344902345896 352.6484059401487343 13568.47948662535964 
	9897.299953540605202 314.7327990407209768 13536.20899988295423 
	9832.380768408625954 274.5918300889749162 13515.87595139558471 
	9787.812897275103751 247.0365957534038728 13510.62774711264683 
	9765.493446450793272 233.237549007356705 13510.11419296559689 
	9815.302029751788723 127.0109349372871321 13510.00000000014006 
	9792.518535989345764 113.9551369216797525 13509.99998033429256 
	9746.951945463912125 87.8437683860693852 13514.23071466213696 
	9680.364707461194484 49.68677899518596774 13533.1054177299502 
	9617.257819007754733 13.52416067017004586 13564.02184957425743 
	9559.258697584931724 -19.71151522197283512 13606.18266845894868 
	9507.86322986151572 -49.1630494120773065 13658.50049749370919 
	9464.396959398898616 -74.07085563217903257 13719.62599860236332 
	9429.980933749444375 -93.7925315114075886 13787.98267353194933 
	9405.502782104798825 -107.8194321702878256 13861.80752358879727 
	9391.593824770763604 -115.7897873517339917 13939.19651943933786 
	9388.612790015182327 -117.4980322790593306 14018.15370825627178 
	9396.636562223244255 -112.9001093106200955 14096.64269167930433 
	9415.458198911625004 -102.1146042652245001 14172.63914691352147 
	9444.592268030191917 -85.41968794770615148 14244.18303638477846 
	9483.287367819619249 -63.24594180007633071 14309.42915940401144 
	9530.545506343587476 -36.16525270139332093 14366.69474205375445 
	9585.147840869231004 -4.876063335598876058 14414.502837898086 
	9645.686113248595575 29.81464146322601749 14451.6204201606688 
	9710.598970545328484 67.01214779472350358 14477.09018292931069 
	9778.212234155311307 105.7570884114763459 14490.25523119638638 
	9846.782078833353808 145.0501859237598978 14490.77602295038378 
	9914.540007988325669 183.8780253335979467 14478.6391263619571 
	9979.738465281177923 221.2391911942955289 14454.15756620657521 
	10040.69590614937442 256.1700952874790005 14417.96275058896754 
	10095.84016681026878 287.769828691648911 14370.98818618873884 
	10143.74901220611719 315.2233972782338469 14314.4454020299454 
	10183.18681711165664 337.8227413645458341 14249.79270272883514 
	10213.13643435570702 354.984997402188867 14178.69755711010293 
	10232.82542823752374 366.2675307103780256 14102.99359223324063 
	10241.74599654903614 371.3793515432103618 14024.63330200347991 
	10239.66806738499145 370.1886200540329241 13945.63769006752045 
	10226.64523297956475 362.7260466067533571 13868.04414576301497 
	10203.01336745236949 349.184099692373195 13793.85389746102919 
	10169.38196439896274 329.91204204288249 13724.98039854552735 
	10126.61841667525368 305.4069223569856604 13663.19997719988714 
	10075.82564779094719 276.3007572480987619 13610.10602286041649 
	10018.31365699890921 243.3442255113362194 13567.06789069685328 
	9955.565767296544436 207.3873269600650531 13535.19558486174174 
	9889.200240346010105 169.3573863328811626 13515.3111282324171 
	9843.686092758951418 143.2760695714986241 13510.38862191753287 
	9820.904683558554098 130.2214660882692954 13510.04255476958497 
	0 
	
	0 
	0 
	38 0.02564102564102564014 0.05128205128205128027 0.07692307692307692735 0.1025641025641025605 0.1282051282051281937 0.1538461538461538269 0.1794871794871794601 0.2051282051282050933 0.2307692307692307265 0.2564102564102563875 0.2820512820512820484 0.3076923076923077094 0.3333333333333333703 0.3589743589743590313 0.3846153846153846922 0.4102564102564103532 0.4358974358974360142 0.4615384615384616751 0.4871794871794873361 0.512820512820512997 0.538461538461538658 0.5641025641025643189 0.5897435897435899799 0.6153846153846156408 0.6410256410256413018 0.6666666666666669627 0.6923076923076926237 0.7179487179487182846 0.7435897435897439456 0.7692307692307696065 0.7948717948717952675 0.8205128205128209284 0.8461538461538465894 0.8717948717948722503 0.8974358974358979113 0.9230769230769235723 0.9487179487179492332 0.9743589743589748942 
	0 
	0 
	0 
	F 1 F 0 F 1 F 0 } I I I I #
tcoedge-coedge $-1 -1 $-1 $7 $8 $-1 $9 forward $4 $10 0 6.250766387756697462 #
coedge $-1 -1 $-1 $11 $6 $-1 $12 forward $4 $13 #
coedge $-1 -1 $-1 $6 $11 $-1 $14 forward $4 $15 #
tedge-edge $-1 -1 $-1 $16 -2.408940293484168369e-16 $17 6.250766387756697462 $6 $18 forward @7 unknown 0.0008503927470087896227 #
pcurve $-1 -1 $-1 0 forward { exppc nubs 1 open 2 
	0 1 6.250766387756697462 1 
	0 0 
	0.9999999999999992228 0 
	6.574036602779540858e-08 
	spline forward { ref 0 } I I I I 
	} 0 0 #
tcoedge-coedge $-1 -1 $-1 $8 $7 $-1 $19 forward $4 $20 0 6.270005910518958281 #
edge $-1 -1 $-1 $17 1.54385743123867103 $21 1.659459055368251779 $7 $22 forward @7 unknown #
pcurve $-1 -1 $-1 0 forward { exppc nubs 3 open 2 
	1.54385743123867103 3 1.659459055368251779 3 
	0.9999999999999995559 4.485741872701420746e-17 
	0.9999999975121027784 0.03330815819597874455 
	1.000000000000000444 0.06667390754958375798 
	1.000000000000000444 0.1000417136115406003 
	2.094994172016326442e-06 
	spline forward { ref 0 } I I I I 
	} 0 0 #
edge $-1 -1 $-1 $23 -0.1000208620216841288 $16 -2.154582483158588064e-16 $8 $24 forward @7 unknown #
pcurve $-1 -1 $-1 0 forward { exppc nubs 1 open 2 
	-0.1000208620216844063 1 7.64663684542133361e-30 1 
	0 0.1000417136115406558 
	1.724667284462084746e-16 0 
	0.0009308921388816817667 
	spline forward { ref 0 } I I I I 
	} 0 0 #
tvertex-vertex $-1 -1 $-1 $9 $25 1.364507730907493985e-11 #
tvertex-vertex $-1 -1 $-1 $9 $26 1.408165830572584985e-11 #
ellipse-curve $-1 -1 $-1 9626.318566785983421 421.6048167699938176 14000.00000000000182 -0.5813607040646651125 0.8136459498881788432 3.174668009258930974e-12 -6.800405571993905844e-10 1.425662254916915117e-09 -489.9999999999990337 1 F -2.408940293484168369e-16 F 6.250766387756697462 #
tedge-edge $-1 -1 $-1 $21 -4.9160507401667539e-15 $23 6.270005910518958281 $11 $27 forward @7 unknown 0.000860963041786941166 #
pcurve $-1 -1 $-1 0 forward { exppc nubs 1 open 2 
	0 1 6.270005910518958281 1 
	0.9999999999999996669 0.1000417136115408501 
	1.112159783370082764e-15 0.1000417136115408362 
	8.402626112628591024e-08 
	spline forward { ref 0 } I I I I 
	} 0 0 #
tvertex-vertex $-1 -1 $-1 $12 $28 1.5777442165854084e-11 #
ellipse-curve $-1 -1 $-1 7469.013263459713016 -1058.398748346183993 13510.12130254965632 -0.0003024273471583658799 0.0005321535930447931226 -0.9999998126751090677 -1641.471760788726215 2559.276764401774471 1.858354623939240113 0.8655747831934684777 F 1.54385743123867103 F 1.659459055368251779 #
tvertex-vertex $-1 -1 $-1 $19 $29 1.926826671546903957e-11 #
ellipse-curve $-1 -1 $-1 6777.943339177872076 -1613.551789251932178 13510 6.682233839873776552e-15 -1.041651710263844196e-14 1 2848.375227607429224 2035.156606023351742 2.165734258596785447e-12 1 F -0.1000208620216841288 F -2.154582483158588064e-16 #
point $-1 -1 $-1 9626.318566785303119 421.6048167714194506 13510.00000000000182 #
point $-1 -1 $-1 9639.24128892619774 430.8382712528120919 13510.25746910157068 #
ellipse-curve $-1 -1 $-1 9815.301504638386177 127.0111148101266849 13999.99999999999636 0.4971910749449968137 -0.8676410749814917889 -1.594790941058537749e-11 5.602980874242343035 3.210719469031801054 -489.9574449743703326 1 F -4.9160507401667539e-15 F 6.270005910518958281 #
point $-1 -1 $-1 9820.904485512624888 130.221834279158486 13510.04255502562592 #
point $-1 -1 $-1 9815.301504634684534 127.0111148170123556 13509.99999999999818 #
End-of-ACIS-data 