700 0 1 0           
4 LibG 19 ASM 222.0.0.1700 NT 24 Wed Oct  5 17:29:48 2016 
1000 9.999999999999999547e-07 1.000000000000000036e-10 
body $-1 -1 $-1 $1 $-1 $-1 #
lump $-1 -1 $-1 $-1 $2 $0 #
shell $-1 -1 $-1 $-1 $-1 $3 $-1 $1 #
face $-1 -1 $-1 $-1 $4 $2 $-1 $5 forward double out #
loop $-1 -1 $-1 $-1 $6 $3 #
spline-surface $-1 -1 $-1 forward { exactsur full nubs 3 3 open open none none 40 2 
	-1.191870091160694542e-07 3 0.02564102564102564014 1 0.05128205128205128027 1 0.07692307692307692735 1 0.1025641025641025605 1 
	0.1282051282051281937 1 0.1538461538461538269 1 0.1794871794871794601 1 0.2051282051282050933 1 0.2307692307692307265 1 
	0.2564102564102563875 1 0.2820512820512820484 1 0.3076923076923077094 1 0.3333333333333333703 1 0.3589743589743590313 1 
	0.3846153846153846922 1 0.4102564102564103532 1 0.4358974358974360142 1 0.4615384615384616751 1 0.4871794871794873361 1 
	0.512820512820512997 1 0.538461538461538658 1 0.5641025641025643189 1 0.5897435897435899799 1 0.6153846153846156408 1 
	0.6410256410256413018 1 0.6666666666666669627 1 0.6923076923076926237 1 0.7179487179487182846 1 0.7435897435897439456 1 
	0.7692307692307696065 1 0.7948717948717952675 1 0.8205128205128209284 1 0.8461538461538465894 1 0.8717948717948722503 1 
	0.8974358974358979113 1 0.9230769230769235723 1 0.9487179487179492332 1 0.9743589743589748942 1 1.000000000000000444 3 
	-1.191870091160694542e-07 3 0.1000418327985499456 3 
	1708.360430282940797 3095.643141730676234 13510.00000000014552 
	1709.669360645374354 3069.497340621553576 13509.9999804550589 
	1712.287198767892278 3017.206189883764637 13514.20473505408881 
	1716.113309473723575 2940.779870801290599 13532.96452861431499 
	1719.740677935684516 2868.323415455799022 13563.69603353163802 
	1723.076332570383556 2801.693925338867757 13605.61152371899698 
	1726.03476775500917 2742.59936985185459 13657.63655965521866 
	1728.540148851250706 2692.554541093235912 13718.43755906676961 
	1730.528254157070023 2652.842263494841518 13786.45598127088124 
	1731.948121655231262 2624.480500124027458 13859.94827798366168 
	1732.763355206482174 2608.196261557696744 13937.03058651526044 
	1732.953057546540776 2604.406969326827038 14015.72701971033894 
	1732.512365945432975 2613.209756154702518 14094.02031479506331 
	1731.452576858847351 2634.378976054123086 14169.90354282482986 
	1729.800856360057196 2667.371988431823411 14241.43155324008148 
	1727.599543779308533 2711.343067846742997 14306.77083482764101 
	1724.905066399804809 2765.165082890035137 14364.2465149780528 
	1721.78649303053021 2827.458388475548418 14412.38529248481791 
	1718.323763532920566 2896.626190932860936 14449.95320336878649 
	1714.60563968470251 2970.895479372201862 14475.98725165862925 
	1710.727429907399028 3048.362474108498645 14489.82009432055202 
	1706.788546180629965 3127.041427143573401 14491.09714757691836 
	1702.889955767962419 3204.915523780775402 14479.78567611940161 
	1699.131593075453793 3279.988580586929402 14456.17563222855279 
	1695.609797985899377 3350.336214503382962 14420.87222329033102 
	1692.414846333196238 3414.155171464209616 14374.78039822983192 
	1689.628635819334249 3469.809550057831984 14319.08165052886397 
	1687.322586691995639 3515.872735359142098 14255.20373244652546 
	1685.555810995661659 3551.163968022535755 14184.78405677240335 
	1684.373597324724869 3574.778611242611532 14109.62772425260118 
	1683.806249919553011 3586.111339736944046 14031.66125259130968 
	1683.86831186378754 3584.871656330565202 13952.88319311412124 
	1684.558192293918637 3571.091338421450018 13875.31290096014527 
	1685.858207181318221 3545.123623361621867 13800.93877199793133 
	1687.735032625233544 3507.634153958610113 13731.66727334329153 
	1690.140559097593268 3459.583914989345431 13669.27407396451781 
	1693.013124517066672 3402.204602624088693 13615.35852821352273 
	1696.279095385351638 3336.967041328942287 13571.30267848237236 
	1699.854752317127122 3265.543520524634459 13538.23582992536103 
	1703.648443344362477 3189.764782469278543 13517.005597721909 
	1706.258085170326467 3137.637352236235984 13511.10599750286565 
	1707.566321677206361 3111.50541084786164 13510.25746935760981 
	1824.930066579182494 3101.478937151801802 13510.00000000014552 
	1825.368447557525087 3075.262661539200508 13509.99998041480649 
	1826.245201875590055 3022.830564384531044 13514.21339492344123 
	1827.526418298887847 2946.202379327643939 13533.01149165286006 
	1828.740669410917235 2873.562817769278354 13563.80463887917904 
	1829.856642094187009 2806.777492501542383 13605.80190529898027 
	1830.845553986964887 2747.56187720143771 13657.92453893471975 
	1831.681900263323314 2697.436977034707525 13718.833705578636 
	1832.34411076356173 2657.690299087666062 13786.96487869124212 
	1832.81510648568883 2629.342770730955635 13860.56802651870748 
	1833.082740020877964 2613.122518817054697 13937.75256415661897 
	1833.140108858920257 2609.446166304626331 14016.53591589231473 
	1832.985733406783766 2618.408131261719063 14094.89444042314972 
	1832.623595149542325 2639.778201896402607 14170.81541085439312 
	1832.063033963978569 2673.007450220743522 14242.34871428831866 
	1831.318507234634581 2717.242332350193465 14307.65694301976691 
	1830.409216984672412 2771.346613264605821 14365.06259066995881 
	1829.358614638132622 2833.930552844147314 14413.09114095590849 
	1828.193796186317968 2903.386603484997067 14450.50894229941878 
	1826.944803357451292 2977.930702338297124 14476.35489541552488 
	1825.643848813115028 3055.648097511406377 14489.96513994583256 
	1824.324485354342187 3134.542531110039363 14490.99010603474562 
	1823.020740564303424 3212.587515776504915 14479.40349286692617 
	1821.76623920594966 3287.778387606864271 14455.50294355456208 
	1820.593336008762435 3358.183798390148695 14419.90239905654016 
	1819.532281210837027 3421.995324517470181 14373.51632754947241 
	1818.610440377740133 3477.573918288269397 14317.53623436255839 
	1817.851588619711947 3523.492008451867605 14253.40005587396445 
	1817.275297409989889 3558.570168581860798 14182.75522355163594 
	1816.896429818782281 3581.907411416820196 14107.41634691281797 
	1816.724757181246332 3592.904331032504615 14029.31860239536945 
	1816.764707086022327 3591.278498419613697 13950.46802543192643 
	1817.015249183580636 3577.071715055880304 13872.88998256110062 
	1817.469921760907027 3550.648938091989749 13798.57714715230031 
	1818.116998391690231 3512.688905111636359 13729.43831507737377 
	1818.939790384401931 3464.166698095297761 13667.2493750429785 
	1819.917077151436615 3406.328699017683903 13613.60769309582247 
	1821.023653684932697 3340.660563491530866 13569.891082553866 
	1822.230979954797704 3268.849098256930574 13537.22241490416127 
	1823.507919453500335 3192.738786163845816 13516.44077455874503 
	1824.383661825747367 3140.436231843447331 13510.86687230775715 
	1824.82200237542429 3114.230019035363966 13510.18583116160335 
	1941.791663781088573 3101.47893752774371 13510.00000000014006 
	1941.35462350456919 3075.235702377338384 13509.99998037454498 
	1940.480550498368984 3022.749687992607505 13514.22205479279 
	1939.203046303638303 2946.046855490194957 13533.05845469140331 
	1937.991901060285954 2873.344839489953756 13563.91324422671278 
	1936.878157450894378 2806.514690831672397 13605.99228687895993 
	1935.890365289271585 2747.27655938828093 13658.21251821421174 
	1935.053845268639634 2697.155152962812281 13719.22985209049875 
	1934.390040549869354 2657.440532401032215 13787.47377611159209 
	1933.915966918397999 2629.154896265172283 13861.18777505374783 
	1933.643776652930228 2613.026273481681983 13938.47454179797933 
	1933.580447004595499 2609.469784079474721 14017.34481207429417 
	1933.727601347349946 2618.576954904208833 14095.76856605122521 
	1934.081467563953083 2640.113364085140802 14171.72727888395821 
	1934.632974739738756 2673.524675202877916 14243.26587533654674 
	1935.36798568401241 2717.95090574612459 14308.54305121188918 
	1936.26765931916384 2772.248562611910984 14365.87866636185572 
	1937.308933647909498 2835.020074882099834 14413.79698942699724 
	1938.465116918518333 2904.649766290905973 14451.06468123004015 
	1939.706571834177339 2979.345441469841717 14476.72253917241869 
	1941.001475267680462 3057.184515563970308 14490.11018557110583 
	1942.316634007124776 3136.163499871625845 14490.88306449256379 
	1943.618335621959204 3214.249569780288311 14479.02130961443982 
	1944.873212638564382 3289.432887676874088 14454.83025488056956 
	1946.049097873245728 3359.77833408094466 14418.93257482275476 
	1947.115848997337935 3423.475315484026396 14372.2522568691038 
	1948.046121197660796 3478.884366885658437 14315.99081819625098 
	1948.816068126193159 3524.579349521940458 14251.59637930139797 
	1949.405953171009287 3559.384157662182133 14180.72639033087034 
	1949.80065537927976 3582.402989684252134 14105.2049695730293 
	1949.990057063725089 3593.043404294859101 14026.97595219942377 
	1949.9693031565414 3591.031568460517974 13948.05285774972253 
	1949.738925663064492 3576.419304626323992 13870.46706416205416 
	1949.304830023452041 3549.582755770332369 13796.21552230666202 
	1948.678143737404525 3511.212703007623986 13727.20935681144874 
	1947.874931112116883 3462.296783767536454 13665.22467612143373 
	1946.915781520714063 3404.094072817684264 13611.85685797811857 
	1945.82528144492403 3338.10266341976876 13568.47948662535964 
	1944.631384883420424 3266.021146542031602 13536.20899988295241 
	1943.364694353573896 3189.704742789708689 13515.87595139558107 
	1942.493355126909364 3137.313647700806996 13510.62774711264683 
	1942.056546202381696 3111.076636168207187 13510.11419296559689 
	2058.361300152206695 3095.643142852881738 13510.00000000013461 
	2057.048340962899147 3069.416866182054491 13509.99998033428528 
	2054.422445462427731 3016.964769829902252 13514.23071466213696 
	2050.585179460214022 2940.315624408476651 13533.10541772994475 
	2046.948477821409597 2867.672739446588366 13564.02184957424652 
	2043.606124789962223 2800.909449278710781 13606.18266845893777 
	2040.644324798277012 2741.747681983703387 13658.50049749370373 
	2038.139465805892996 2691.713282216583593 13719.62599860235969 
	2036.156151148052913 2652.096697508192392 13787.98267353194569 
	2034.74553280855821 2623.919685496045531 13861.80752358878999 
	2033.943992292615576 2607.908964442960496 13939.19651943933059 
	2033.772202267048442 2604.477469559847577 14018.15370825626997 
	2034.234593398252173 2613.713703127290501 14096.64269167930252 
	2035.31924007735779 2635.379451863373561 14172.63914691351965 
	2036.998167996406664 2668.915930737830422 14244.18303638477482 
	2039.228075638293149 2713.45819468839818 14309.42915940400781 
	2041.951451073668977 2767.857446567887564 14366.69474205375082 
	2045.098055260921001 2830.710665967594196 14414.50283789807872 
	2048.586733593318513 2900.396794756687541 14451.62042016066698 
	2052.327508971347925 2975.118546069669264 14477.09018292930705 
	2056.223902417473255 3052.948758439300491 14490.25523119638456 
	2060.175421381956312 3131.880099547596728 14490.77602295037832 
	2064.080151563378422 3209.876837676935793 14478.63912636195164 
	2067.837385397834623 3284.927345614933074 14454.15756620657157 
	2071.350219424917213 3355.095982875927348 14417.96275058896208 
	2074.528053541457211 3418.573018135768507 14370.98818618873702 
	2077.288927684266127 3473.721304321914431 14314.4454020299454 
	2079.561635676143851 3519.118502553556937 14249.79270272882968 
	2081.28756171658415 3553.593765927016648 14178.69755711009748 
	2082.422192151880154 3576.257937028206015 14102.99359223323518 
	2082.936263534458703 3586.526480344612537 14024.63330200347445 
	2082.816517361234219 3584.13455811675658 13945.63769006751681 
	2082.066042026687228 3569.143860828790821 13868.04414576300951 
	2080.704193166806817 3541.941016083978411 13793.85389746102192 
	2078.766094464791422 3503.227617230260421 13724.98039854552189 
	2076.30173173198682 3454.002127684101652 13663.19997719988351 
	2073.374663857654468 3395.534132234112803 13610.10602286041285 
	2070.060383019378605 3329.331582347388576 13567.06789069684601 
	2066.444369634712075 3257.101943952000056 13535.1955848617381 
	2062.619880319267395 3180.708012039804998 13515.31112823241347 
	2059.997006982059702 3128.316283207468132 13510.38862191752924 
	2058.684167921162498 3102.092406094032867 13510.04255476958497 
	0 
	
	0 
	0 
	38 0.02564102564102564014 0.05128205128205128027 0.07692307692307692735 0.1025641025641025605 0.1282051282051281937 0.1538461538461538269 0.1794871794871794601 0.2051282051282050933 0.2307692307692307265 0.2564102564102563875 0.2820512820512820484 0.3076923076923077094 0.3333333333333333703 0.3589743589743590313 0.3846153846153846922 0.4102564102564103532 0.4358974358974360142 0.4615384615384616751 0.4871794871794873361 0.512820512820512997 0.538461538461538658 0.5641025641025643189 0.5897435897435899799 0.6153846153846156408 0.6410256410256413018 0.6666666666666669627 0.6923076923076926237 0.7179487179487182846 0.7435897435897439456 0.7692307692307696065 0.7948717948717952675 0.8205128205128209284 0.8461538461538465894 0.8717948717948722503 0.8974358974358979113 0.9230769230769235723 0.9487179487179492332 0.9743589743589748942 
	0 
	0 
	0 
	F 1 F 0 F 1 F 0 } I I I I #
tcoedge-coedge $-1 -1 $-1 $7 $8 $-1 $9 forward $4 $10 0 6.250766387756696574 #
coedge $-1 -1 $-1 $11 $6 $-1 $12 forward $4 $13 #
coedge $-1 -1 $-1 $6 $11 $-1 $14 forward $4 $15 #
tedge-edge $-1 -1 $-1 $16 0 $17 6.250766387756696574 $6 $18 forward @7 unknown 0.0008503927492479028145 #
pcurve $-1 -1 $-1 0 forward { exppc nubs 1 open 2 
	0 1 6.250766387756696574 1 
	0 0 
	0.9999999999999987788 8.192649882224321253e-17 
	6.692710783316573947e-08 
	spline forward { ref 0 } I I I I 
	} 0 0 #
tcoedge-coedge $-1 -1 $-1 $8 $7 $-1 $19 forward $4 $20 1.103493639655126032e-15 6.270005910518960057 #
edge $-1 -1 $-1 $17 -1.597735222720216619 $21 -1.482133598450182665 $7 $22 forward @7 unknown #
pcurve $-1 -1 $-1 0 forward { exppc nubs 3 open 2 
	-1.597735222720216619 3 -1.482133598450182665 3 
	0.999999999999999778 3.07941547452546403e-17 
	0.9999999975120990037 0.03330815819587080312 
	1.000000000000000444 0.06667390754965610289 
	0.9999999999999996669 0.100041713611540628 
	1.950832586946233915e-06 
	spline forward { ref 0 } I I I I 
	} 0 0 #
edge $-1 -1 $-1 $23 -0.1000208620216467559 $16 -8.079684311838232266e-17 $8 $24 forward @7 unknown #
pcurve $-1 -1 $-1 0 forward { exppc nubs 1 open 2 
	-0.1000208620216467559 1 7.646636845360367317e-30 1 
	0 0.1000417136115408362 
	1.573972368289818565e-16 0 
	0.0009308921386043297322 
	spline forward { ref 0 } I I I I 
	} 0 0 #
tvertex-vertex $-1 -1 $-1 $9 $25 1.733610513857532768e-11 #
tvertex-vertex $-1 -1 $-1 $9 $26 1.369438494300809884e-11 #
ellipse-curve $-1 -1 $-1 1708.360865169409863 3095.642797989833525 14000.00000000000182 -0.9987492177719097253 -0.0499999999999838074 1.843578348914176371e-12 -9.158348746041156326e-10 2.29026397846610068e-10 -489.9999999999990337 1 F 0 F 6.250766387756696574 #
tedge-edge $-1 -1 $-1 $21 1.103493639655126032e-15 $23 6.270005910518960057 $11 $27 forward @7 unknown 0.0008609630374339385071 #
pcurve $-1 -1 $-1 0 forward { exppc nubs 1 open 2 
	0 1 6.270005910518960945 1 
	0.999999999999999889 0.1000417136115408223 
	1.180917265722942078e-15 0.1000417136115408501 
	7.865398052025326532e-08 
	spline forward { ref 0 } I I I I 
	} 0 0 #
tvertex-vertex $-1 -1 $-1 $12 $28 1.192932961323062161e-11 #
ellipse-curve $-1 -1 $-1 1789.234679967568127 480.7171552206144725 13510.12130254971089 -0.0006112077300277997177 3.278502179332049704e-05 -0.9999998126751090677 3040.448487659943112 -0.2639981476756751988 -1.858354621710192278 0.8655747821430932465 F -1.597735222720216619 F -1.482133598450182665 #
tvertex-vertex $-1 -1 $-1 $19 $29 1.321554935538437084e-11 #
ellipse-curve $-1 -1 $-1 1883.360865189375772 -400.709422294665444 13510 1.237562433335445166e-14 -3.827305433686345335e-28 1 -175.0000000208820268 3496.352220284727537 2.165734258596785447e-12 1 F -0.1000208620216467559 F -8.079684311838232266e-17 #
point $-1 -1 $-1 1708.360865168494001 3095.642797990062718 13510.00000000000182 #
point $-1 -1 $-1 1707.566740762008749 3111.505420585893717 13510.25746910157068 #
ellipse-curve $-1 -1 $-1 2058.36086521534844 3095.64279798959069 13999.99999999999636 0.9987492177719141662 -0.04999999999989664101 -9.986069052326710364e-12 0.3228858657618118855 6.449640215053665138 -489.9574449743703326 1 F 1.103493639655126032e-15 F 6.270005910518960057 #
point $-1 -1 $-1 2058.683751081110131 3102.092438204644623 13510.04255502562592 #
point $-1 -1 $-1 2058.360865210472184 3095.642797990048166 13509.99999999999818 #
End-of-ACIS-data 