700 0 1 0           
4 LibG 19 ASM 222.0.0.1700 NT 24 Wed Oct  5 17:29:48 2016 
1000 9.999999999999999547e-07 1.000000000000000036e-10 
body $-1 -1 $-1 $1 $-1 $-1 #
lump $-1 -1 $-1 $-1 $2 $0 #
shell $-1 -1 $-1 $-1 $-1 $3 $-1 $1 #
face $-1 -1 $-1 $-1 $4 $2 $-1 $5 forward double out #
loop $-1 -1 $-1 $-1 $6 $3 #
spline-surface $-1 -1 $-1 forward { exactsur full nubs 3 3 open open none none 40 2 
	-1.191870091213587647e-07 3 0.02564102564102564014 1 0.05128205128205128027 1 0.07692307692307692735 1 0.1025641025641025605 1 
	0.1282051282051281937 1 0.1538461538461538269 1 0.1794871794871794601 1 0.2051282051282050933 1 0.2307692307692307265 1 
	0.2564102564102563875 1 0.2820512820512820484 1 0.3076923076923077094 1 0.3333333333333333703 1 0.3589743589743590313 1 
	0.3846153846153846922 1 0.4102564102564103532 1 0.4358974358974360142 1 0.4615384615384616751 1 0.4871794871794873361 1 
	0.512820512820512997 1 0.538461538461538658 1 0.5641025641025643189 1 0.5897435897435899799 1 0.6153846153846156408 1 
	0.6410256410256413018 1 0.6666666666666669627 1 0.6923076923076926237 1 0.7179487179487182846 1 0.7435897435897439456 1 
	0.7692307692307696065 1 0.7948717948717952675 1 0.8205128205128209284 1 0.8461538461538465894 1 0.8717948717948722503 1 
	0.8974358974358979113 1 0.9230769230769235723 1 0.9487179487179492332 1 0.9743589743589748942 1 1.000000000000000444 3 
	-1.191870086300952724e-07 3 0.100041832798549904 3 
	7913.450520441946537 2583.437102646573294 13510.00000000013461 
	7899.762212087994158 2561.122389367242249 13509.99998045504981 
	7872.385831747061275 2516.493348134583357 13514.20473505409063 
	7832.373784780433198 2451.265612705779859 13532.96452861431135 
	7794.440110502719108 2389.426045445132331 13563.6960335316362 
	7759.557071257503594 2332.559630769148043 13605.61152371900062 
	7728.6188531409598 2282.124073007562401 13657.6365596552223 
	7702.418506679606253 2239.412205040660865 13718.43755906676961 
	7681.627638618774654 2205.518881803832301 13786.45598127088306 
	7666.779190836998168 2181.312906432321142 13859.94827798366168 
	7658.253780662151257 2167.414762211638845 13937.03058651526044 
	7656.269943935064475 2164.18070679637276 14015.72701971034076 
	7660.878533282592798 2171.693640261417386 14094.02031479506513 
	7671.961414560024423 2189.76098003926927 14169.90354282482986 
	7689.234495046898701 2217.919597492105368 14241.43155324008512 
	7712.255005727574826 2255.447689503187576 14306.77083482764465 
	7740.432850998741742 2301.383280797336283 14364.24651497805644 
	7773.045734868032923 2354.54888270644733 14412.38529248481609 
	7809.257675907791054 2413.58167629171021 14449.95320336879013 
	7848.140436361110915 2476.968446123958984 14475.98725165862743 
	7888.69731609788505 2543.084369248173061 14489.82009432055747 
	7929.888701499126 2610.234665036314254 14491.09714757692382 
	7970.658714363007675 2676.698038298172833 14479.78567611940707 
	8009.962277728587651 2740.770802052486943 14456.17563222855279 
	8046.79190482627655 2800.81054893854207 14420.87222329033102 
	8080.20352446115885 2855.278251818367153 14374.78039822983192 
	8109.340680835043713 2902.777714384942101 14319.08165052886761 
	8133.456487481700606 2942.091360520370927 14255.20373244652728 
	8151.932772559802288 2972.211444998597017 14184.78405677240517 
	8164.295924743049 2992.365885493662972 14109.627724252603 
	8170.229033523100043 3002.038053730851516 14031.66125259130786 
	8169.580012724048174 3000.980018459527855 13952.88319311412124 
	8162.365499006597929 2989.218900804093209 13875.31290096014527 
	8148.770425384532246 2967.056179009457537 13800.93877199793315 
	8129.143280854799741 2935.059960678608149 13731.66727334329335 
	8103.987177022017931 2894.050419562340267 13669.27407396451963 
	8073.946953067313189 2845.078774048329706 13615.35852821352273 
	8039.792640811180718 2789.400331866807846 13571.30267848236872 
	8002.399746540558226 2728.442345477465096 13538.23582992536285 
	7962.726732550826455 2663.767302424962963 13517.00559772191082 
	7935.436066039945217 2619.2779920847006 13511.10599750286565 
	7921.755013770079131 2596.975107691138874 13510.25746935760981 
	8012.939459636409083 2522.408522518928294 13510.00000000014188 
	7998.492971465100709 2500.527383051468405 13509.99998041480649 
	7969.600245300445749 2456.765483127617699 13514.21339492344123 
	7927.374142357401979 2392.808650100337218 13533.01149165286188 
	7887.345750105856496 2332.181031617415101 13563.80463887918086 
	7850.543018701888286 2276.439807847616521 13605.80190529898573 
	7817.911180734424306 2227.016835527382682 13657.92453893472339 
	7790.288328047702635 2185.181645779199698 13718.83370557863782 
	7768.383908188187888 2152.008865956120644 13786.96487869124394 
	7752.760497488226974 2128.350606531446829 13860.56802651870748 
	7743.819353716253318 2114.814575063234315 13937.75256415662079 
	7741.790110031168297 2111.748465305615809 14016.53591589231655 
	7746.724877434689915 2119.231026253952223 14094.89444042314972 
	7758.496906519937511 2137.070039518837348 14170.81541085439858 
	7776.803843062531996 2164.807257250053681 14242.34871428832048 
	7801.175493784855462 2201.730173685868067 14307.65694301976873 
	7830.985902846397039 2246.89032795495541 14365.06259066996063 
	7865.469428880244777 2299.127667960542567 14413.0911409559103 
	7903.740409651174559 2357.10034948797329 14450.50894229942242 
	7944.815909265645132 2419.319205057316594 14476.35489541552306 
	7987.640963693308549 2484.185997089043212 14489.96513994583438 
	8031.11567619388461 2550.034472741694572 14490.99010603474744 
	8074.123466731753069 2615.173165813609558 14479.40349286692799 
	8115.559749822860795 2677.928846224719109 14455.5029435545639 
	8154.360304256299059 2736.689500961803333 14419.90239905654198 
	8189.528606048196707 2789.94574240875545 14373.51632754946877 
	8220.161422615634365 2836.329580382846871 14317.53623436256203 
	8245.472010818430135 2874.649561921091845 14253.40005587396627 
	8264.810323060572046 2903.921376167722428 14182.75522355163957 
	8277.679702488898329 2923.393138207131415 14107.41634691281979 
	8283.749638503035385 2932.564702376483183 14029.31860239537127 
	8282.864254974061623 2931.200508956677368 13950.46802543192825 
	8275.046313187252963 2919.335634279511851 13872.88998256110244 
	8260.496626663734787 2897.274888786591418 13798.57714715230395 
	8239.588903084115373 2865.584986502837637 13729.43831507737741 
	8212.860145138900407 2825.079986081830612 13667.24937504298032 
	8180.996859360368035 2776.800381214737172 13613.60769309582247 
	8144.817417840472444 2721.986363423536204 13569.89108255386782 
	8105.251060647523445 2662.045996771820228 13537.22241490416309 
	8063.313948447980692 2598.518925363222024 13516.44077455874685 
	8034.493559374690449 2554.864495040460497 13510.86687230776079 
	8020.052721807173839 2532.99168217771512 13510.18583116160517 
	8109.372980172757707 2456.399363930553136 13510.00000000014006 
	8094.188871330064103 2434.990458446712182 13509.99998037454861 
	8063.820917396043114 2392.173019435539572 13514.22205479278637 
	8019.441208325399202 2329.599878602866283 13533.05845469140513 
	7977.376115569947615 2270.29070583190969 13563.91324422672005 
	7938.708116610576326 2215.771947124529106 13605.99228687896539 
	7904.43239556359913 2167.446933963964511 13658.21251821421538 
	7875.43107663146202 2126.559544122981606 13719.22985209050239 
	7852.450544194798567 2094.162216270235604 13787.47377611159573 
	7836.082227440487259 2071.08885145171007 13861.18777505375328 
	7826.747380786429858 2057.933350762720693 13938.47454179798115 
	7824.686241962654094 2055.03432777876651 14017.34481207429417 
	7829.951849417310768 2062.466392967189222 14095.76856605122703 
	7842.408677456422993 2080.038233420360939 14171.72727888395457 
	7861.736124428794938 2107.297537598961298 14243.26587533654674 
	7887.436764125155605 2143.542638241221084 14308.54305121188736 
	7918.849148035275903 2187.840573755730475 14365.87866636185572 
	7955.164828964744629 2239.051103176384004 14413.79698942699724 
	7995.449167874260638 2295.856056517301113 14451.06468123004743 
	8038.665388435060777 2356.793265028889891 14476.72253917241869 
	8083.701260209761131 2420.294197968699791 14490.11018557110765 
	8129.397723716220753 2484.724337094589828 14490.88306449256561 
	8174.578720655498728 2548.425249619037913 14479.02130961444163 
	8218.081461569272506 2609.757276646154878 14454.83025488057137 
	8258.786351935765197 2667.141738272322073 14418.93257482275476 
	8295.645806505441215 2719.101568975004739 14372.2522568691038 
	8327.711210292905889 2764.299337321925577 14315.9908181962528 
	8354.157332342298105 2801.571671364104986 14251.59637930139797 
	8374.303563942699839 2829.95920359830825 14180.72639033087034 
	8387.631434700257159 2848.731264714858298 14105.20496957303112 
	8393.797955672234821 2857.404690519335873 14026.97595219942559 
	8392.644446163341854 2855.75625794204052 13948.05285774972253 
	8384.200617038755809 2843.82843006499661 13870.4670641620578 
	8368.683805427175685 2821.928262236071532 13796.21552230666202 
	8346.493380714913656 2790.61949771551599 13727.20935681144874 
	8318.200465112338861 2750.708055342056923 13665.22467612143373 
	8284.533236003389902 2703.221286511401104 13611.85685797812403 
	8246.358178525750191 2649.381521547970806 13568.47948662535964 
	8204.657807606263304 2590.57463819600207 13536.20899988295241 
	8160.505295811507494 2528.314268065394572 13515.87595139558471 
	8130.193212848115763 2485.573611740500382 13510.62774711264865 
	8115.012810320190511 2464.169711271461438 13510.11419296559325 
	8202.269233177130445 2385.739454498615942 13510.00000000013824 
	8186.371900047748568 2364.839304996252395 13509.99998033429074 
	8154.577510797982541 2323.039370173946736 13514.2307146621315 
	8108.115826047964219 2261.956410566567229 13533.10541772994657 
	8064.082578164067854 2204.066105547582993 13564.02184957424834 
	8023.613308433804377 2150.861345935997633 13606.18266845894505 
	7987.751781652246791 2103.714364425463828 13658.50049749370373 
	7957.422904587085213 2063.841131617047267 13719.62599860235969 
	7933.408895566200044 2032.270026287426845 13787.98267353194569 
	7916.329103715845122 2009.815303835771829 13861.80752358879363 
	7906.624036945710031 1997.056097950385947 13939.19651943933059 
	7904.544000272062476 1994.321483465308575 14018.15370825627178 
	7910.142640282057073 2001.681989297728251 14096.64269167930433 
	7923.275561492262568 2018.947779381015835 14172.6391469135142 
	7943.604050486156666 2045.673548770865864 14244.18303638477482 
	7970.603811727387438 2081.170008578143552 14309.42915940400599 
	8003.578489756288946 2124.521663537332188 14366.69474205375445 
	8041.677629012398029 2174.610423701291893 14414.50283789808418 
	8083.918608079369733 2230.144441290336999 14451.62042016067062 
	8129.211982641930263 2289.691428959265522 14477.09018292930887 
	8176.389583530535674 2351.715600165213345 14490.25523119638456 
	8224.234645172204182 2414.617278901042937 14490.77602295038014 
	8271.513187399523304 2476.774157212827504 14478.6391263619571 
	8317.00584124415218 2536.58313642173016 14454.15756620657339 
	8359.539297890454691 2592.501672916206189 14417.9627505889639 
	8398.016569683804846 2643.087562158088986 14370.98818618873702 
	8431.445282726801452 2687.036134826493708 14314.44540202994176 
	8458.963271364193133 2723.213905767392134 14249.79270272883332 
	8479.860814444738935 2750.687807903110752 14178.69755711009748 
	8493.598939860674363 2768.749257124723044 14102.99359223323881 
	8499.823325270132045 2776.932427506782005 14024.63330200347445 
	8498.373436482901525 2775.026265500346653 13945.63769006751681 
	8489.286667834050604 2763.079933262818486 13868.04414576300951 
	8472.797377707092892 2741.401540664736331 13793.85389746102373 
	8449.330844280610108 2710.550198938166886 13724.98039854552553 
	8419.49229664404811 2671.321599935926315 13663.19997719988351 
	8384.051306954903339 2624.727496573649205 13610.10602286041285 
	8343.921935837030105 2571.969600077832638 13567.06789069684419 
	8300.139181700855261 2514.408618017257595 13535.19558486173992 
	8253.832197300656844 2453.529042236138594 13515.31112823241347 
	8222.074400457224328 2411.777215279279062 13510.38862191752924 
	8206.178521844769421 2390.878978023511081 13510.04255476957951 
	0 
	
	0 
	0 
	38 0.02564102564102564014 0.05128205128205128027 0.07692307692307692735 0.1025641025641025605 0.1282051282051281937 0.1538461538461538269 0.1794871794871794601 0.2051282051282050933 0.2307692307692307265 0.2564102564102563875 0.2820512820512820484 0.3076923076923077094 0.3333333333333333703 0.3589743589743590313 0.3846153846153846922 0.4102564102564103532 0.4358974358974360142 0.4615384615384616751 0.4871794871794873361 0.512820512820512997 0.538461538461538658 0.5641025641025643189 0.5897435897435899799 0.6153846153846156408 0.6410256410256413018 0.6666666666666669627 0.6923076923076926237 0.7179487179487182846 0.7435897435897439456 0.7692307692307696065 0.7948717948717952675 0.8205128205128209284 0.8461538461538465894 0.8717948717948722503 0.8974358974358979113 0.9230769230769235723 0.9487179487179492332 0.9743589743589748942 
	0 
	0 
	0 
	F 1 F 0 F 1 F 0 } I I I I #
tcoedge-coedge $-1 -1 $-1 $7 $8 $-1 $9 forward $4 $10 0 6.250766387756694797 #
coedge $-1 -1 $-1 $11 $6 $-1 $12 forward $4 $13 #
coedge $-1 -1 $-1 $6 $11 $-1 $14 forward $4 $15 #
tedge-edge $-1 -1 $-1 $16 -9.418784723512619644e-16 $17 6.250766387756694797 $6 $18 forward @7 unknown 0.0008503927449023415772 #
pcurve $-1 -1 $-1 0 forward { exppc nubs 1 open 2 
	0 1 6.250766387756695686 1 
	0 0 
	0.9999999999999990008 0 
	6.337157101634077319e-08 
	spline forward { ref 0 } I I I I 
	} 0 0 #
tcoedge-coedge $-1 -1 $-1 $8 $7 $-1 $19 forward $4 $20 0 6.270005910518961834 #
edge $-1 -1 $-1 $17 -1.597735222584051318 $21 -1.482133598373001959 $7 $22 forward @7 unknown #
pcurve $-1 -1 $-1 0 forward { exppc nubs 3 open 2 
	-1.597735222584051318 3 -1.482133598373001959 3 
	1.000000000000000222 0 
	0.999999997512100447 0.03330815819590688537 
	1.000000000000000444 0.06667390754961644017 
	1.000000000000000444 0.1000417136115406419 
	1.992878210382470058e-06 
	spline forward { ref 0 } I I I I 
	} 0 0 #
edge $-1 -1 $-1 $23 -0.1000208620216245375 $16 3.770519345340114126e-16 $8 $24 forward @7 unknown #
pcurve $-1 -1 $-1 0 forward { exppc nubs 1 open 2 
	-0.1000208620216243433 1 -1.830985469790038822e-26 1 
	0 0.1000417136115407807 
	1.159581665426837891e-16 4.912634857472896938e-16 
	0.0009308921384456643336 
	spline forward { ref 0 } I I I I 
	} 0 0 #
tvertex-vertex $-1 -1 $-1 $9 $25 1.560650187523513181e-11 #
tvertex-vertex $-1 -1 $-1 $9 $26 1.553224029344912157e-11 #
ellipse-curve $-1 -1 $-1 7913.450685147750846 2583.436573347382364 14000.00000000000364 -0.8524045821777940235 0.5228828054949793414 5.825247207880580838e-12 -2.289181111336802381e-09 1.726090204101637978e-09 -489.9999999999990337 1 F -9.418784723512619644e-16 F 6.250766387756694797 #
tedge-edge $-1 -1 $-1 $21 -1.318285588979724751e-15 $23 6.270005910518961834 $11 $27 forward @7 unknown 0.0008609630373563601554 #
pcurve $-1 -1 $-1 0 forward { exppc nubs 1 open 2 
	0 1 6.270005910518961834 1 
	1 0.1000417136115408501 
	8.783972091909281277e-16 0.1000417136115408501 
	5.553729350714448024e-08 
	spline forward { ref 0 } I I I I 
	} 0 0 #
tvertex-vertex $-1 -1 $-1 $12 $28 1.914030863088636352e-11 #
ellipse-curve $-1 -1 $-1 6503.14909992939738 379.9334206632745463 13510.12130255291959 -0.0004858465294512151391 0.0003722940997007514086 -0.9999998126751089567 2508.811550790700039 -1717.612205318628639 -1.858354622728980887 0.8655747825845643284 F -1.597735222584051318 F -1.482133598373001959 #
tvertex-vertex $-1 -1 $-1 $19 $29 1.771731845292248988e-11 #
ellipse-curve $-1 -1 $-1 6082.948549820421249 -400.5818215126079167 13510.00000000173168 2.897100777551913771e-13 4.013310862815220522e-13 1 1830.502135325041763 2984.018394861715478 -1.728255938360234888e-09 1 F -0.1000208620216245375 F 3.770519345340114126e-16 #
point $-1 -1 $-1 7913.450685145462558 2583.436573349108585 13510.00000000000364 #
point $-1 -1 $-1 7921.755365096973037 2596.974879007267191 13510.2574691015725 #
ellipse-curve $-1 -1 $-1 8202.268679464006709 2385.739415600690336 13999.99999999999818 0.7959196799693529778 -0.60540223243516611 1.572783272409038123e-11 3.909516544388677239 5.139824372008916065 -489.9574449743703326 1 F -1.318285588979724751e-15 F 6.270005910518961834 #
point $-1 -1 $-1 8206.17819600839357 2390.879239972698997 13510.04255502563137 #
point $-1 -1 $-1 8202.26867947026949 2385.739415596194704 13510 #
End-of-ACIS-data 