700 0 1 0           
4 LibG 19 ASM 222.0.0.1700 NT 24 Wed Oct  5 17:29:48 2016 
1000 9.999999999999999547e-07 1.000000000000000036e-10 
body $-1 -1 $-1 $1 $-1 $-1 #
lump $-1 -1 $-1 $-1 $2 $0 #
shell $-1 -1 $-1 $-1 $-1 $3 $-1 $1 #
face $-1 -1 $-1 $-1 $4 $2 $-1 $5 forward double out #
loop $-1 -1 $-1 $-1 $6 $3 #
spline-surface $-1 -1 $-1 forward { exactsur full nubs 3 3 open open none none 40 2 
	-1.191870090544617701e-07 3 0.02564102564102564014 1 0.05128205128205128027 1 0.07692307692307692735 1 0.1025641025641025605 1 
	0.1282051282051281937 1 0.1538461538461538269 1 0.1794871794871794601 1 0.2051282051282050933 1 0.2307692307692307265 1 
	0.2564102564102563875 1 0.2820512820512820484 1 0.3076923076923077094 1 0.3333333333333333703 1 0.3589743589743590313 1 
	0.3846153846153846922 1 0.4102564102564103532 1 0.4358974358974360142 1 0.4615384615384616751 1 0.4871794871794873361 1 
	0.512820512820512997 1 0.538461538461538658 1 0.5641025641025643189 1 0.5897435897435899799 1 0.6153846153846156408 1 
	0.6410256410256413018 1 0.6666666666666669627 1 0.6923076923076926237 1 0.7179487179487182846 1 0.7435897435897439456 1 
	0.7692307692307696065 1 0.7948717948717952675 1 0.8205128205128209284 1 0.8461538461538465894 1 0.8717948717948722503 1 
	0.8974358974358979113 1 0.9230769230769235723 1 0.9487179487179492332 1 0.9743589743589748942 1 1.000000000000000444 3 
	-1.191870090318460566e-07 3 0.1000418327985498901 3 
	9437.3351047932847 716.1986991639341795 14489.99999999985448 
	9460.048687203801819 729.2144353479675374 14490.00001954493928 
	9505.475459811232213 755.2456829629095409 14485.79526494590391 
	9571.869122394637088 793.2917463649266665 14467.03547138568138 
	9634.814054270877023 829.3615574856911508 14436.30396646835652 
	9692.696939879355341 862.5306258886500927 14394.38847628099575 
	9744.03401884147388 891.948701124574086 14342.36344034477588 
	9787.509349258187285 916.8616990387999977 14281.56244093322857 
	9822.008505974623404 936.6310121430532263 14213.54401872911149 
	9846.64715624744349 950.7498845466121793 14140.0517220163365 
	9860.793725829495088 958.8564004744514477 14062.96941348473229 
	9864.085589062302461 960.7427617986038513 13984.27298028965561 
	9856.438364055784405 956.3606145254083231 13905.97968520493305 
	9838.048075735876409 945.8222883030563253 13830.09645717516651 
	9809.386131032628327 929.3979170155829479 13758.56844675991124 
	9771.187235087465524 907.5085143155818059 13693.22916517235353 
	9724.430558209091032 880.7151815822379604 13635.75348502194174 
	9670.314636339469871 849.704724945302587 13587.61470751517481 
	9610.226648417003162 815.272050059713365 13550.04679663120805 
	9545.706858164776349 778.2997859142083144 13524.01274834136893 
	9478.409131784394049 739.7356599863277324 13510.17990567944071 
	9410.058543623928927 700.5682046971814998 13508.90285242307436 
	9342.407156533856323 661.8014178938467467 13520.21432388059293 
	9277.189110413988601 624.429026899221526 13543.82436777143994 
	9216.0761701878655 589.4090158310552852 13579.12777670966352 
	9160.634872664304567 557.6390691434216933 13625.21960177016445 
	9112.286370760837599 529.9335608578804795 13680.91834947112875 
	9072.270004420970508 507.0026793302572514 13744.79626755346908 
	9041.611532029053706 489.4342226576555959 13815.2159432275912 
	9021.096836662276473 477.6785313728568667 13890.37227574739336 
	9011.251781178314559 472.0369446526067918 13968.3387474086885 
	9012.328728528142165 472.6540759503531604 14047.1168068858733 
	9024.300072805010132 479.5141060442327898 14124.68709903985291 
	9046.858946926418866 492.4411885654448042 14199.0612280020614 
	9079.427088528116656 511.1039574510658667 14268.3327266567012 
	9121.169663487597063 535.0240213800110496 14330.72592603547673 
	9171.016663188522216 563.5882252095437934 14384.64147178647363 
	9227.690341633244316 596.0643724717157284 14428.69732151762764 
	9289.737934631712051 631.6199746980051941 14461.76417007463351 
	9355.569025620327011 669.3436634375838139 14482.99440227808736 
	9400.853569685545153 695.2934087535968501 14488.89400249713071 
	9423.555111772333476 708.3022453797204889 14489.74253064238292 
	9495.365058370160114 614.9314235893367595 14489.99999999986176 
	9517.667904679936328 628.7179507575763182 14490.00001958520079 
	9562.273210985518745 656.290766347499698 14485.78660507655877 
	9627.462664559559926 696.587855614018963 14466.98850834713994 
	9689.258750524326388 734.7876470871402717 14436.19536112082278 
	9746.074281954925027 769.9091569408716396 14394.19809470101791 
	9796.449809947560425 801.0503390244872435 14342.07546106527843 
	9839.091338732665463 827.4113920134614091 14281.166294421364 
	9872.903531536090668 848.3152803693748183 14213.03512130875788 
	9897.017855747895737 863.225128413970765 14139.43197348129252 
	9910.814890688225205 871.758007571366079 14062.24743584338285 
	9913.940239338937317 873.6947715711147566 13983.46408410768527 
	9906.313631454215283 868.9856846272274424 13905.1055595768521 
	9888.130985253374092 857.7516986835100852 13829.18458914560506 
	9859.859374466133886 840.2813467540838701 13757.65128571168134 
	9822.225030097351919 817.0233322001769238 13692.34305698023491 
	9776.194685105869212 788.5750042705972191 13634.93740933004119 
	9722.950741221999124 755.66701590488276 13586.90885904409333 
	9663.860895816214907 719.1445578472674924 13549.4910577005794 
	9600.443009040393008 679.9456510535061398 13523.64510458447694 
	9534.326113728047858 639.0770549254773414 13510.03486005416744 
	9467.208569621960123 597.5884101421964942 13509.00989396525438 
	9400.814436851367645 556.5452801968963286 13520.59650713307747 
	9336.849189322118036 517.001784033941135 13544.49705644543792 
	9276.955905637056276 479.9735226800258374 13580.09760094345984 
	9222.673062894598843 446.4114952117744792 13626.48367245052941 
	9175.395017536760861 417.1776739903984321 13682.46376563744161 
	9136.336188391178439 393.0228664763880602 13746.59994412603555 
	9106.499861948143007 374.5674322076261546 13817.24477644836224 
	9086.6524211773758 362.2853501919245218 13892.58365308718203 
	9077.303659866871385 356.4920459113352535 13970.68139760463055 
	9078.693688148305228 357.3362905777886454 14049.53197456807357 
	9090.786765534394362 364.79638067247555 14127.11001743889938 
	9113.272219934926397 378.6806959252197089 14201.42285284770151 
	9145.572428744459103 398.6326212181875803 14270.56168492262805 
	9186.857657996542912 424.1397066260207112 14332.7506249570215 
	9236.067374522830505 454.5468279322205944 14386.39230690417753 
	9291.937498028548362 489.073018491868595 14430.108917446134 
	9353.032839311661519 526.8315069330459437 14462.77758509583873 
	9417.784091801970135 566.8525699165053311 14483.55922544125497 
	9462.279815982985383 594.3562904420570021 14489.13312769224103 
	9484.57417063801222 608.1374182150666456 14489.81416883839665 
	9558.464623648986162 516.5694504381054912 14489.99999999986539 
	9580.317476900090696 531.1073732659584721 14490.00001962545684 
	9624.022803734340414 560.1829663970618185 14485.77794520720818 
	9687.893503387935198 602.6740272995759824 14466.94154530859669 
	9748.432561228697523 642.9489882437242159 14436.08675577328722 
	9804.081882239423066 679.971444477205182 14394.00771312104007 
	9853.409038159461488 712.7885686519387036 14341.78748178578644 
	9895.144360025800779 740.5557805487954965 14280.77014790950307 
	9928.213586670683071 762.5584615713448784 14212.52622388840609 
	9951.765525050050201 778.2303522037151424 14138.81222494624853 
	9965.193957554703957 787.1681237884405391 14061.52545820202067 
	9968.153246571380805 789.1417590202195242 13982.65518792570583 
	9960.567230836353701 784.1004714764105756 13904.23143394877479 
	9942.631185609376189 772.1740125164545816 13828.27272111604725 
	9914.806795946995408 753.6693317386780109 13756.73412466345326 
	9877.810272545681073 729.0626769968054077 13691.45694878811446 
	9832.593916045774677 698.9873372873731796 13634.12133363814246 
	9780.321604351476708 664.2173439734713156 13586.20301057300276 
	9722.338833938747484 625.647549824358407 13548.93531876995257 
	9660.138086306842524 584.270598573971256 13523.27746082758313 
	9595.320411060334663 541.1513777279043325 13509.88981442889053 
	9529.554214492587562 497.399612120200743 13509.11693550743621 
	9464.532314471567588 454.141303571085416 13520.978690385562 
	9401.928367052982139 412.4897516927099446 13545.16974511943044 
	9343.353786415473223 373.516901668450771 13581.06742517724524 
	9290.316267011925447 338.2257564143903892 13627.74774313089802 
	9244.180975586679779 307.5245631362249128 13684.00918180374902 
	9206.135411982604637 282.2034386262150747 13748.40362069860021 
	9177.158843222989162 262.9140348779376382 13819.27360966912966 
	9157.997097633418889 250.1527683477629296 13894.7950304269707 
	9149.143367795313679 244.2480444729708609 13973.02404780057805 
	9150.825516457432968 245.3518062351024014 14051.94714225027928 
	9163.000212116878174 253.4356242531788155 14129.53293583794584 
	9185.354045273868905 268.2914290685974379 14203.78447769333798 
	9217.311596333192938 289.5368665789145552 14272.79064318855126 
	9258.050248476294655 316.6251394509109218 14334.77532387856627 
	9306.521360398704928 348.8590786897919429 14388.14314202188143 
	9361.477268059747075 385.4090926144025957 14431.52051337464036 
	9421.503367537750819 425.3344961296116367 14463.79100011704941 
	9485.054650397461955 467.6078025234898519 14484.12404860441711 
	9528.681560120132417 496.6298428499774786 14489.37225288735317 
	9550.529299894005817 511.1642104994984948 14489.88580703440493 
	9626.318511362454956 421.6042644731957694 14489.99999999987085 
	9647.684137211515917 436.8702882490709953 14490.00001966571836 
	9690.415016616345383 467.4020697923174339 14485.76928533786122 
	9752.858381462947364 512.0186843080015251 14466.89458227005525 
	9812.037986718100001 554.3032991961628113 14435.97815042575348 
	9866.427692740140628 593.1654673891873699 14393.81733154106223 
	9914.624705242504206 627.6028737158326294 14341.49950250629809 
	9955.385972212423439 656.7273409836586779 14280.37400139764031 
	9987.660211400881963 679.7877140464458989 14212.01732646805613 
	10010.61503277153133 696.189239154620509 14138.19247641121001 
	10023.65840449705138 705.5089016950952328 14060.80348056066941 
	10026.4539227742298 707.5063366771886422 13981.84629174373549 
	10018.92948790559421 702.1300279083176292 13903.35730832069748 
	10001.27916387962796 689.5186366887947997 13827.36085308648762 
	9973.958173221288234 669.9974255659765277 13755.816963615227 
	9937.671156273272572 644.069869434568318 13690.57084059599583 
	9893.353997695481667 612.4046703288985327 13633.30525794624737 
	9842.149688904039067 575.8185108145523827 13585.49716210191764 
	9785.378848984044453 535.25499078861003 13548.3795798393312 
	9724.505664376963978 491.7602909333343746 13522.90981707069477 
	9661.100125797707733 446.4561904912841896 13509.74476880361908 
	9596.797536335583573 400.5111352649980176 13509.22397704962168 
	9533.256335072648653 355.1101020314988546 13521.36087363804654 
	9472.115323997721134 311.4240366035624561 13545.84243379343025 
	9414.951401384016208 270.5796537660010586 13582.03724941103792 
	9363.238891736093137 233.6303779819688202 13629.01181381126662 
	9318.31152123440188 201.5291743424555762 13685.55459797005824 
	9281.328019375296208 175.1039704806660495 13750.20729727117032 
	9253.242233980361561 155.0363033487863618 13821.30244288990434 
	9234.778530344314277 141.8437415820584988 13897.006407766763 
	9226.413109004986836 135.8665367969733495 13975.36669799652555 
	9228.361723976979192 137.2588481059292747 14054.362309932485 
	9240.574118191037996 145.9847661646531662 14131.95585423699231 
	9262.735319727289607 161.8192393480980229 14206.1461025389799 
	9294.273765143521814 184.3538779765099207 14275.01960145447811 
	9334.376041386563884 213.0074876071406891 14336.80002280011831 
	9382.007862350248615 247.0410570638443346 14389.89397713958897 
	9435.940752973137933 285.5768245797309532 14432.93210930315399 
	9494.783700774622048 327.6208932405888845 14464.8044151382619 
	9557.019152145039698 372.0889508128389025 14484.68887176758471 
	9599.700852253168705 402.5855930946378294 14489.61137808246895 
	9621.064523267155892 417.8502201148594963 14489.95744523041503 
	0 
	
	0 
	0 
	38 0.02564102564102564014 0.05128205128205128027 0.07692307692307692735 0.1025641025641025605 0.1282051282051281937 0.1538461538461538269 0.1794871794871794601 0.2051282051282050933 0.2307692307692307265 0.2564102564102563875 0.2820512820512820484 0.3076923076923077094 0.3333333333333333703 0.3589743589743590313 0.3846153846153846922 0.4102564102564103532 0.4358974358974360142 0.4615384615384616751 0.4871794871794873361 0.512820512820512997 0.538461538461538658 0.5641025641025643189 0.5897435897435899799 0.6153846153846156408 0.6410256410256413018 0.6666666666666669627 0.6923076923076926237 0.7179487179487182846 0.7435897435897439456 0.7692307692307696065 0.7948717948717952675 0.8205128205128209284 0.8461538461538465894 0.8717948717948722503 0.8974358974358979113 0.9230769230769235723 0.9487179487179492332 0.9743589743589748942 
	0 
	0 
	0 
	F 1 F 0 F 1 F 0 } I I I I #
tcoedge-coedge $-1 -1 $-1 $7 $8 $-1 $9 forward $4 $10 7.814085595768073775e-29 6.250766387756696574 #
coedge $-1 -1 $-1 $11 $6 $-1 $12 forward $4 $13 #
coedge $-1 -1 $-1 $6 $11 $-1 $14 forward $4 $15 #
tedge-edge $-1 -1 $-1 $16 7.814085595768073775e-29 $17 6.250766387756696574 $6 $18 forward @7 unknown 0.0008503927537149428336 #
pcurve $-1 -1 $-1 0 forward { exppc nubs 1 open 2 
	0 1 6.250766387756696574 1 
	0 0 
	0.9999999999999990008 5.82816246365996728e-17 
	6.636411586386766568e-08 
	spline forward { ref 0 } I I I I 
	} 0 0 #
tcoedge-coedge $-1 -1 $-1 $8 $7 $-1 $19 forward $4 $20 2.601667486194202083e-15 6.270005910518958281 #
edge $-1 -1 $-1 $17 -1.597735222285149304 $21 -1.482133598189962154 $7 $22 forward @7 unknown #
pcurve $-1 -1 $-1 0 forward { exppc nubs 3 open 2 
	-1.597735222285149304 3 -1.482133598189962154 3 
	1.000000000000000222 0 
	0.9999999975121037776 0.03330815819599320521 
	1.000000000000000444 0.06667390754955408727 
	0.9999999999999996669 0.1000417136115405725 
	1.901298333403331784e-06 
	spline forward { ref 0 } I I I I 
	} 0 0 #
edge $-1 -1 $-1 $23 -0.1000208620216184036 $16 5.386456204219229563e-17 $8 $24 forward @7 unknown #
pcurve $-1 -1 $-1 0 forward { exppc nubs 1 open 2 
	-0.100020862021618348 1 -3.670386069015275756e-26 1 
	0 0.1000417136115408362 
	2.327646002995261171e-16 2.26157083077674798e-17 
	0.0009308921356267459493 
	spline forward { ref 0 } I I I I 
	} 0 0 #
tvertex-vertex $-1 -1 $-1 $9 $25 1.750333128962665574e-11 #
tvertex-vertex $-1 -1 $-1 $9 $26 1.407373428678713722e-11 #
ellipse-curve $-1 -1 $-1 9437.335628936329158 716.1985187246330042 13999.99999999999818 -0.497191074944914102 0.8676410749815390844 -2.483375408632287273e-12 -8.435534937234479416e-10 9.190834759920107899e-10 489.9999999999990337 1 F 7.814085595768073775e-29 F 6.250766387756696574 #
tedge-edge $-1 -1 $-1 $21 2.601667486194202083e-15 $23 6.270005910518959169 $11 $27 forward @7 unknown 0.0008609630372815226668 #
pcurve $-1 -1 $-1 0 forward { exppc nubs 1 open 2 
	0 1 6.270005910518958281 1 
	1 0.1000417136115408501 
	1.195019466033195127e-15 0.1000417136115408501 
	7.62683082195094856e-08 
	spline forward { ref 0 } I I I I 
	} 0 0 #
tvertex-vertex $-1 -1 $-1 $12 $28 1.412418493106475912e-11 #
ellipse-curve $-1 -1 $-1 11681.97676821367168 2060.059705214936912 14489.87869744712771 -0.0003576174086367227278 0.0004967489666740516592 0.9999998126751089567 1641.91617218244869 -2558.991673940546661 1.858354624568160141 0.8655747834506668514 F -1.597735222285149304 F -1.482133598189962154 #
tvertex-vertex $-1 -1 $-1 $19 $29 2.112273349338921294e-11 #
ellipse-curve $-1 -1 $-1 12474.69379439422119 2456.761422795766975 14490.00000000346154 8.396561385520362835e-13 5.239392909816733548e-13 -1 -3037.35816545873513 -1740.562904070214472 -3.463009079496259884e-09 1 F -0.1000208620216184036 F 5.386456204219229563e-17 #
point $-1 -1 $-1 9437.335628935485147 716.1985187255520486 14489.99999999999818 #
point $-1 -1 $-1 9423.555329861233986 708.3018873795354011 14489.74253089842932 #
ellipse-curve $-1 -1 $-1 9626.318566787153031 421.6048167683575798 14000.00000000000364 0.5813607040645369928 -0.8136459498882705477 7.337050347393969826e-12 -5.254295620686974644 -3.754263138936887678 489.9574449743703326 1 F 2.601667486194202083e-15 F 6.270005910518959169 #
point $-1 -1 $-1 9621.064271166464096 417.8505536294206308 14489.95744497437045 #
point $-1 -1 $-1 9626.31856678488839 421.6048167711594488 14490.00000000000182 #
End-of-ACIS-data 