700 0 1 0           
4 LibG 19 ASM 222.0.0.1700 NT 24 Wed Oct  5 17:29:48 2016 
1000 9.999999999999999547e-07 1.000000000000000036e-10 
body $-1 -1 $-1 $1 $-1 $-1 #
lump $-1 -1 $-1 $-1 $2 $0 #
shell $-1 -1 $-1 $-1 $-1 $3 $-1 $1 #
face $-1 -1 $-1 $-1 $4 $2 $-1 $5 forward double out #
loop $-1 -1 $-1 $-1 $6 $3 #
spline-surface $-1 -1 $-1 forward { exactsur full nubs 3 3 open open none none 40 2 
	-1.191870091659339529e-07 3 0.02564102564102564014 1 0.05128205128205128027 1 0.07692307692307692735 1 0.1025641025641025605 1 
	0.1282051282051281937 1 0.1538461538461538269 1 0.1794871794871794601 1 0.2051282051282050933 1 0.2307692307692307265 1 
	0.2564102564102563875 1 0.2820512820512820484 1 0.3076923076923077094 1 0.3333333333333333703 1 0.3589743589743590313 1 
	0.3846153846153846922 1 0.4102564102564103532 1 0.4358974358974360142 1 0.4615384615384616751 1 0.4871794871794873361 1 
	0.512820512820512997 1 0.538461538461538658 1 0.5641025641025643189 1 0.5897435897435899799 1 0.6153846153846156408 1 
	0.6410256410256413018 1 0.6666666666666669627 1 0.6923076923076926237 1 0.7179487179487182846 1 0.7435897435897439456 1 
	0.7692307692307696065 1 0.7948717948717952675 1 0.8205128205128209284 1 0.8461538461538465894 1 0.8717948717948722503 1 
	0.8974358974358979113 1 0.9230769230769235723 1 0.9487179487179492332 1 0.9743589743589748942 1 1.000000000000000444 3 
	-1.191870087116786272e-07 3 0.100041832798550015 3 
	5558.360430744768564 3095.642454248931699 14489.99999999987449 
	5559.66936110719962 3121.788255358052538 14490.0000195449411 
	5562.287199229722319 3174.079406095844206 14485.795264945913 
	5566.113309935552024 3250.505725178317789 14467.03547138569047 
	5569.740678397512966 3322.96218052380982 14436.30396646836198 
	5573.07633303221337 3389.591670640740631 14394.3884762810012 
	5576.034768216839439 3448.686226127754708 14342.3634403447777 
	5578.54014931308393 3498.731054886372021 14281.56244093323039 
	5580.528254618902793 3538.443332484768234 14213.54401872911876 
	5581.948122117060848 3566.805095855581385 14140.05172201634014 
	5582.763355668315853 3583.089334421912099 14062.96941348473956 
	5582.953058008374683 3586.87862665278135 13984.27298028965924 
	5582.512366407263471 3578.075839824906325 13905.97968520493669 
	5581.452577320683304 3556.906619925484847 13830.09645717517014 
	5579.800856821886555 3523.913607547785887 13758.56844675991488 
	5577.599544241139483 3479.942528132864027 13693.22916517235535 
	5574.905066861635532 3426.120513089573706 13635.75348502194174 
	5571.786493492360023 3363.827207504060425 13587.61470751518027 
	5568.323763994750152 3294.659405046747452 13550.04679663121169 
	5564.605640146532096 3220.390116607406526 13524.01274834137257 
	5560.727430369226568 3142.923121871110652 13510.17990567944798 
	5556.788546642454094 3064.244168836036351 13508.90285242307982 
	5552.889956229789277 2986.370072198832986 13520.21432388059839 
	5549.131593537278604 2911.297015392679896 13543.82436777144721 
	5545.609798447722824 2840.949381476226336 13579.12777670966898 
	5542.414846795017183 2777.130424515399682 13625.21960177016626 
	5539.628636281158833 2721.476045921777313 13680.91834947112875 
	5537.32258715381704 2675.412860620465381 13744.79626755347272 
	5535.555811457482378 2640.121627957073997 13815.21594322759665 
	5534.373597786545361 2616.506984736999129 13890.372275747397 
	5533.806250381372593 2605.174256242665706 13968.33874740869032 
	5533.868312325607803 2606.413939649042277 14047.11680688587694 
	5534.558192755737764 2620.194257558159279 14124.68709903985655 
	5535.858207643139394 2646.161972617987885 14199.06122800206867 
	5537.735033087054944 2683.651442020998729 14268.33272665670847 
	5540.140559559416033 2731.701680990264322 14330.72592603548037 
	5543.01312497888739 2789.080993355520604 14384.64147178647909 
	5546.279095847174176 2854.318554650667465 14428.69732151762764 
	5549.854752778952388 2925.742075454973019 14461.76417007463897 
	5553.64844380618888 3001.520813510331664 14482.994402278091 
	5556.25808563215196 3053.648243743373314 14488.89400249713071 
	5557.566322139033218 3079.780185131747203 14489.74253064238655 
	5674.930067041008442 3089.806658827805677 14489.99999999986358 
	5675.368448019347852 3116.022934440405606 14490.00001958519169 
	5676.24520233741714 3168.455031595076889 14485.78660507655695 
	5677.526418760713568 3245.083216651963539 14466.9885083471363 
	5678.740669872745457 3317.722778210329125 14436.19536112082096 
	5679.856642556014776 3384.508103478065095 14394.19809470101609 
	5680.845554448794246 3443.723718778169768 14342.07546106527661 
	5681.681900725154264 3493.848618944899499 14281.16629442136218 
	5682.344111225394045 3533.595296891942326 14213.03512130875424 
	5682.815106947518871 3561.942825248651388 14139.43197348129252 
	5683.082740482709596 3578.163077162552781 14062.24743584338103 
	5683.140109320753254 3581.839429674980238 13983.46408410768163 
	5682.985733868613352 3572.877464717887506 13905.10555957684846 
	5682.623595611376004 3551.507394083203963 13829.18458914560324 
	5682.063034425807018 3518.278145758863957 13757.65128571167952 
	5681.318507696465531 3474.04326362941265 13692.34305698023309 
	5680.409217446500406 3419.938982715001202 13634.93740933003937 
	5679.358615099962662 3357.355043135459255 13586.90885904409151 
	5678.193796648144598 3287.898992494609956 13549.49105770057758 
	5676.944803819281333 3213.354893641309445 13523.64510458447512 
	5675.643849274941203 3135.637498468202011 13510.03486005416562 
	5674.324485816165179 3056.74306486956857 13509.00989396525256 
	5673.020741026129144 2978.698080203103018 13520.59650713307383 
	5671.766239667774244 2903.507208372742753 13544.4970564454361 
	5670.593336470582472 2833.101797589458783 13580.0976009434562 
	5669.532281672657518 2769.290271462137298 13626.48367245052759 
	5668.610440839563125 2713.711677691338537 13682.46376563743979 
	5667.851589081531529 2667.793587527739874 13746.59994412603373 
	5667.275297871809926 2632.71542739774759 13817.24477644836043 
	5666.896430280600725 2609.378184562789102 13892.58365308717839 
	5666.724757643064549 2598.381264947103773 13970.68139760462873 
	5666.76470754784259 2600.007097559992417 14049.53197456807175 
	5667.015249645398399 2614.21388092372672 14127.11001743889756 
	5667.469922222727291 2640.636657887617275 14201.42285284769605 
	5668.116998853510268 2678.59669086797021 14270.56168492262259 
	5668.939790846224241 2727.118897884309263 14332.7506249570215 
	5669.917077613255969 2784.956896961924031 14386.39230690417753 
	5671.02365414675387 2850.625032488076613 14430.108917446134 
	5672.230980416620696 2922.436497722676449 14462.77758509583691 
	5673.507919915325147 2998.546809815763027 14483.55922544124951 
	5674.383662287571497 3050.849364136159693 14489.13312769223921 
	5674.822002837248874 3077.055576944243967 14489.8141688383912 
	5791.791664242912702 3089.806658451862404 14489.99999999985994 
	5791.354623966394684 3116.049893602265001 14490.00001962544775 
	5790.480550960194705 3168.53590798699679 14485.77794520720818 
	5789.203046765464023 3245.238740489410247 14466.94154530859123 
	5787.991901522115768 3317.940756489652358 14436.08675577328177 
	5786.878157912719871 3384.770905147932808 14394.00771312103279 
	5785.890365751099125 3444.00903659132473 14341.78748178578462 
	5785.053845730467401 3494.13044301679156 14280.77014790949761 
	5784.390041011701214 3533.8450635785739 14212.52622388840246 
	5783.915967380228722 3562.130699714432467 14138.81222494624672 
	5783.643777114761178 3578.259322497923222 14061.52545820201703 
	5783.580447466426449 3581.815811900130484 13982.65518792570219 
	5783.727601809181579 3572.708641075396372 13904.23143394876934 
	5784.081468025783579 3551.172231894463494 13828.27272111604179 
	5784.632975201568115 3517.760920776727289 13756.7341246634478 
	5785.367986145842224 3473.334690233480615 13691.45694878811082 
	5786.26765978099138 3419.03703336769604 13634.12133363813882 
	5787.308934109736583 3356.265521097504916 13586.20301057299912 
	5788.465117380346783 3286.635829688698777 13548.93531876995075 
	5789.706572296000559 3211.940154509764852 13523.27746082757585 
	5791.001475729504818 3134.101080415634897 13509.88981442888871 
	5792.316634468947086 3055.122096107977995 13509.11693550743439 
	5793.618336083784925 2977.036026199318258 13520.97869038555837 
	5794.873213100383509 2901.852708302730207 13545.16974511942499 
	5796.049098335068265 2831.507261898661 13581.0674251772416 
	5797.115849459158198 2767.810280495578809 13627.74774313089256 
	5798.046121659479468 2712.401229093945403 13684.00918180374538 
	5798.816068588011149 2666.706246457665202 13748.40362069859657 
	5799.405953632828641 2631.901438317422162 13819.27360966912602 
	5799.800655841097068 2608.882606295353526 13894.79503042696524 
	5799.990057525543307 2598.242191684744739 13973.02404780057441 
	5799.969303618358936 2600.25402751908814 14051.94714225027383 
	5799.738926124883619 2614.866291353281213 14129.53293583793857 
	5799.30483048527276 2641.702840209272381 14203.78447769333616 
	5798.678144199224334 2680.072892971980309 14272.79064318854944 
	5797.874931573936919 2728.988812212068751 14334.77532387856445 
	5796.91578198253228 2787.19152316192185 14388.14314202187779 
	5795.825281906747477 2853.18293255983599 14431.52051337463854 
	5794.631385345242961 2925.264449437572694 14463.79100011704577 
	5793.364694815395524 3001.58085318989697 14484.12404860441529 
	5792.49335558873554 3053.971948278798209 14489.37225288735317 
	5792.056546664206508 3080.208959811397563 14489.88580703440311 
	5908.361300614032189 3095.642453126721648 14489.99999999986176 
	5907.048341424721912 3121.86872979754844 14490.00001966570017 
	5904.422445924253225 3174.320826149700679 14485.76928533786304 
	5900.585179922038151 3250.969971571127189 14466.8945822700498 
	5896.948478283237819 3323.612856533015474 14435.97815042574075 
	5893.606125251788399 3390.376146700893059 14393.81733154105132 
	5890.644325260103869 3449.537913995900908 14341.49950250628899 
	5888.139466267720309 3499.572313763019338 14280.37400139763849 
	5886.156151609884546 3539.188898471410994 14212.01732646805249 
	5884.745533270387568 3567.365910483557855 14138.19247641120273 
	5883.943992754445389 3583.37663153664289 14060.80348056066396 
	5883.772202728878256 3586.808126419757627 13981.84629174372822 
	5884.234593860082896 3577.571892852313795 13903.35730832069021 
	5885.319240539187376 3555.90614411622937 13827.36085308648035 
	5886.99816845823625 3522.369665241772509 13755.81696361522154 
	5889.228076100122053 3477.827401291205206 13690.57084059599038 
	5891.951451535498563 3423.428149411716277 13633.30525794624555 
	5895.098055722746722 3360.574930012009645 13585.497162101914 
	5898.586734055146735 3290.88880122291539 13548.37957983932756 
	5902.327509433171144 3216.167049909935031 13522.90981707068931 
	5906.223902879296475 3138.33683754030244 13509.74476880361362 
	5910.175421843779077 3059.405496432005748 13509.22397704961622 
	5914.080152025200732 2981.408758302668957 13521.36087363804108 
	5917.837385859654205 2906.358250364669402 13545.84243379342297 
	5921.350219886739069 2836.189613103676038 13582.03724941103428 
	5924.528054003275429 2772.712577843835334 13629.01181381126116 
	5927.28892814608389 2717.564291657688955 13685.5545979700546 
	5929.561636137960704 2672.167093426047359 13750.20729727116486 
	5931.287562178402368 2637.691830052586738 13821.30244288989707 
	5932.422192613698826 2615.02765895139828 13897.00640776675755 
	5932.936263996276466 2604.759115634989939 13975.36669799651827 
	5932.816517823051072 2607.151037862847716 14054.36230993247773 
	5932.066042488505445 2622.141735150811655 14131.95585423698685 
	5930.704193628625035 2649.34457989562452 14206.14610253897081 
	5928.766094926611004 2688.057978749342965 14275.01960145446901 
	5926.301732193804128 2737.283468295502189 14336.80002280011104 
	5923.374664319470867 2795.751463745490582 14389.89397713957987 
	5920.060383481200006 2861.95401363221572 14432.93210930314672 
	5916.44437009653393 2934.183652027603785 14464.80441513825463 
	5912.619880781088796 3010.577583939798842 14484.68887176758108 
	5909.997007443882467 3062.969312772136163 14489.61137808246713 
	5908.684168382987991 3089.193189885570064 14489.95744523041503 
	0 
	
	0 
	0 
	38 0.02564102564102564014 0.05128205128205128027 0.07692307692307692735 0.1025641025641025605 0.1282051282051281937 0.1538461538461538269 0.1794871794871794601 0.2051282051282050933 0.2307692307692307265 0.2564102564102563875 0.2820512820512820484 0.3076923076923077094 0.3333333333333333703 0.3589743589743590313 0.3846153846153846922 0.4102564102564103532 0.4358974358974360142 0.4615384615384616751 0.4871794871794873361 0.512820512820512997 0.538461538461538658 0.5641025641025643189 0.5897435897435899799 0.6153846153846156408 0.6410256410256413018 0.6666666666666669627 0.6923076923076926237 0.7179487179487182846 0.7435897435897439456 0.7692307692307696065 0.7948717948717952675 0.8205128205128209284 0.8461538461538465894 0.8717948717948722503 0.8974358974358979113 0.9230769230769235723 0.9487179487179492332 0.9743589743589748942 
	0 
	0 
	0 
	F 1 F 0 F 1 F 0 } I I I I #
tcoedge-coedge $-1 -1 $-1 $7 $8 $-1 $9 forward $4 $10 0 6.250766387756697462 #
coedge $-1 -1 $-1 $11 $6 $-1 $12 forward $4 $13 #
coedge $-1 -1 $-1 $6 $11 $-1 $14 forward $4 $15 #
tedge-edge $-1 -1 $-1 $16 0 $17 6.250766387756697462 $6 $18 forward @7 unknown 0.0008503927448834079379 #
pcurve $-1 -1 $-1 0 forward { exppc nubs 1 open 2 
	0 1 6.250766387756697462 1 
	0 0 
	0.9999999999999987788 0 
	6.634230263830520546e-08 
	spline forward { ref 0 } I I I I 
	} 0 0 #
tcoedge-coedge $-1 -1 $-1 $8 $7 $-1 $19 forward $4 $20 0 6.270005910518955616 #
edge $-1 -1 $-1 $17 -1.597735222522562726 $21 -1.48213359833139835 $7 $22 forward @7 unknown #
pcurve $-1 -1 $-1 0 forward { exppc nubs 3 open 2 
	-1.597735222522562726 3 -1.48213359833139835 3 
	0.999999999999999889 2.309561605895050356e-17 
	0.9999999975121013351 0.03330815819592679305 
	1.000000000000000444 0.06667390754961075028 
	1 0.1000417136115406835 
	1.907531099153416935e-06 
	spline forward { ref 0 } I I I I 
	} 0 0 #
edge $-1 -1 $-1 $23 -0.1000208620216469918 $16 3.097212319171274471e-16 $8 $24 forward @7 unknown #
pcurve $-1 -1 $-1 0 forward { exppc nubs 1 open 2 
	-0.1000208620216470057 1 -3.670386069012320375e-26 1 
	0 0.1000417136115408501 
	6.527270953785366937e-17 4.542553307196522273e-16 
	0.000930892136947569066 
	spline forward { ref 0 } I I I I 
	} 0 0 #
tvertex-vertex $-1 -1 $-1 $9 $25 2.302992021182435561e-11 #
tvertex-vertex $-1 -1 $-1 $9 $26 1.327922978200512162e-11 #
ellipse-curve $-1 -1 $-1 5558.360865631558227 3095.642797989759856 13999.99999999999818 -0.9987492177719091702 0.04999999999999622108 -2.504818308527992657e-12 -1.239882863046659622e-09 -2.138662580364325549e-10 489.9999999999990337 1 F 0 F 6.250766387756697462 #
tedge-edge $-1 -1 $-1 $21 -2.684899366557484229e-18 $23 6.270005910518955616 $11 $27 forward @7 unknown 0.0008609630417862906447 #
pcurve $-1 -1 $-1 0 forward { exppc nubs 1 open 2 
	0 1 6.270005910518956505 1 
	0.999999999999999889 0.1000417136115408223 
	1.526837289280132545e-15 0.1000417136115408501 
	6.667913355979031429e-08 
	spline forward { ref 0 } I I I I 
	} 0 0 #
tvertex-vertex $-1 -1 $-1 $12 $28 1.374994272134941551e-11 #
ellipse-curve $-1 -1 $-1 5639.234680292486701 5710.568444347371042 14489.87869744708587 -0.0006112077300546495508 -3.278502056170483716e-05 0.9999998126751090677 3040.448489734273153 0.2639976760089604024 1.858354623043885878 0.8655747827327875399 F -1.597735222522562726 F -1.48213359833139835 #
tvertex-vertex $-1 -1 $-1 $19 $29 1.447874199462426195e-11 #
ellipse-curve $-1 -1 $-1 5733.360865651230597 6591.995018274255017 14490.00000000346154 1.237562433333304671e-14 9.896371332788021915e-13 -1 -175.0000000209115285 -3496.352220284708437 -3.463009079496259884e-09 1 F -0.1000208620216469918 F 3.097212319171274471e-16 #
point $-1 -1 $-1 5558.360865630317676 3095.642797989546125 14489.99999999999818 #
point $-1 -1 $-1 5557.566741223832651 3079.780175393716036 14489.74253089842932 #
ellipse-curve $-1 -1 $-1 5908.360865670658313 3095.642797989687551 14000.00000000000364 0.998749217771908615 0.05000000000000932171 -3.325401059268065754e-12 0.32288587227688198 -6.449640214727722309 489.9574449743703326 1 F -2.684899366557484229e-18 F 6.270005910518955616 #
point $-1 -1 $-1 5908.68375154293426 3089.193157774959673 14489.95744497437045 #
point $-1 -1 $-1 5908.360865672297223 3095.642797989557948 14490.00000000000182 #
End-of-ACIS-data 