700 0 1 0           
4 LibG 19 ASM 222.0.0.1700 NT 24 Wed Oct  5 17:29:48 2016 
1000 9.999999999999999547e-07 1.000000000000000036e-10 
body $-1 -1 $-1 $1 $-1 $-1 #
lump $-1 -1 $-1 $-1 $2 $0 #
shell $-1 -1 $-1 $-1 $-1 $3 $-1 $1 #
face $-1 -1 $-1 $-1 $4 $2 $-1 $5 forward double out #
loop $-1 -1 $-1 $-1 $6 $3 #
spline-surface $-1 -1 $-1 forward { exactsur full nubs 3 3 open open none none 40 2 
	-1.191870091151684493e-07 3 0.02564102564102564014 1 0.05128205128205128027 1 0.07692307692307692735 1 0.1025641025641025605 1 
	0.1282051282051281937 1 0.1538461538461538269 1 0.1794871794871794601 1 0.2051282051282050933 1 0.2307692307692307265 1 
	0.2564102564102563875 1 0.2820512820512820484 1 0.3076923076923077094 1 0.3333333333333333703 1 0.3589743589743590313 1 
	0.3846153846153846922 1 0.4102564102564103532 1 0.4358974358974360142 1 0.4615384615384616751 1 0.4871794871794873361 1 
	0.512820512820512997 1 0.538461538461538658 1 0.5641025641025643189 1 0.5897435897435899799 1 0.6153846153846156408 1 
	0.6410256410256413018 1 0.6666666666666669627 1 0.6923076923076926237 1 0.7179487179487182846 1 0.7435897435897439456 1 
	0.7692307692307696065 1 0.7948717948717952675 1 0.8205128205128209284 1 0.8461538461538465894 1 0.8717948717948722503 1 
	0.8974358974358979113 1 0.9230769230769235723 1 0.9487179487179492332 1 0.9743589743589748942 1 1.000000000000000444 3 
	-1.191870091805019138e-07 3 0.1000418327985500289 3 
	2758.360430408892171 3095.642454248942158 14489.99999999986721 
	2759.669360771325501 3121.788255358064816 14490.00001954493746 
	2762.287198893845925 3174.079406095855575 14485.79526494591119 
	2766.113309599675631 3250.505725178328703 14467.03547138569047 
	2769.740678061640665 3322.962180523820734 14436.30396646835834 
	2773.076332696338341 3389.59167064075109 14394.38847628099938 
	2776.034767880963045 3448.686226127763803 14342.36344034477588 
	2778.540148977208446 3498.731054886382935 14281.56244093322857 
	2780.528254283028673 3538.443332484778239 14213.54401872911694 
	2781.948121781185819 3566.805095855591389 14140.05172201633832 
	2782.763355332440824 3583.089334421923013 14062.96941348473956 
	2782.953057672499199 3586.878626652792263 13984.27298028965924 
	2782.512366071389806 3578.075839824916784 13905.97968520493669 
	2781.452576984807365 3556.906619925495761 13830.09645717516651 
	2779.800856486011526 3523.913607547796346 13758.56844675991306 
	2777.599543905264454 3479.942528132874941 13693.22916517235535 
	2774.905066525760958 3426.120513089585074 13635.75348502194174 
	2771.786493156485449 3363.827207504071339 13587.61470751518027 
	2768.323763658874668 3294.659405046758366 13550.04679663120805 
	2764.605639810656612 3220.39011660741653 13524.01274834137257 
	2760.727430033350174 3142.923121871121566 13510.17990567944435 
	2756.788546306579974 3064.244168836047265 13508.90285242307982 
	2752.889955893913793 2986.3700721988439 13520.21432388059475 
	2749.131593201403575 2911.297015392690355 13543.8243677714454 
	2745.60979811184734 2840.949381476237249 13579.12777670966898 
	2742.414846459142154 2777.130424515410596 13625.21960177016626 
	2739.62863594528244 2721.476045921787318 13680.91834947113421 
	2737.322586817941101 2675.412860620476295 13744.79626755347272 
	2735.555811121606439 2640.121627957084456 13815.21594322759483 
	2734.373597450669877 2616.506984737009589 13890.372275747397 
	2733.806250045496654 2605.174256242676165 13968.33874740869032 
	2733.868311989733229 2606.413939649053191 14047.1168068858733 
	2734.558192419863644 2620.194257558170648 14124.68709903985473 
	2735.85820730726391 2646.16197261799789 14199.06122800207049 
	2737.735032751179915 2683.651442021009188 14268.33272665671029 
	2740.140559223542823 2731.701680990274781 14330.72592603548037 
	2743.013124643013725 2789.080993355531518 14384.64147178647909 
	2746.279095511299147 2854.31855465067747 14428.69732151762764 
	2749.854752443077814 2925.742075454983933 14461.76417007463715 
	2753.648443470313396 3001.520813510342123 14482.99440227808918 
	2756.258085296276931 3053.648243743384228 14488.89400249713253 
	2757.566321803157734 3079.780185131758572 14489.74253064238837 
	2874.930066705134323 3089.806658827816136 14489.99999999986539 
	2875.368447683475551 3116.022934440418339 14490.00001958519897 
	2876.245202001542566 3168.455031595088258 14485.78660507655877 
	2877.526418424839449 3245.083216651974453 14466.9885083471363 
	2878.740669536872701 3317.722778210340948 14436.19536112082096 
	2879.856642220142021 3384.508103478076919 14394.19809470101791 
	2880.845554112918762 3443.723718778180682 14342.07546106527661 
	2881.681900389280599 3493.848618944910868 14281.166294421364 
	2882.344110889519015 3533.595296891953694 14213.03512130875788 
	2882.815106611644296 3561.942825248663212 14139.43197348129252 
	2883.082740146836841 3578.163077162563241 14062.24743584338103 
	2883.140108984879134 3581.839429674991152 13983.46408410768527 
	2882.985733532739687 3572.87746471789842 13905.10555957684846 
	2882.623595275500065 3551.507394083215331 13829.18458914560324 
	2882.063034089934717 3518.278145758875326 13757.65128571168134 
	2881.318507360590502 3474.043263629423564 13692.34305698023309 
	2880.40921711062856 3419.938982715012116 13634.93740933004119 
	2879.358614764087633 3357.355043135470169 13586.90885904409151 
	2878.193796312271843 3287.898992494620416 13549.4910577005794 
	2876.944803483404485 3213.354893641320814 13523.64510458447876 
	2875.64384893906572 3135.63749846821247 13510.03486005416562 
	2874.324485480292424 3056.743064869579939 13509.00989396525256 
	2873.020740690254115 2978.698080203113932 13520.59650713307383 
	2871.766239331899669 2903.507208372753666 13544.4970564454361 
	2870.593336134710626 2833.101797589469697 13580.0976009434562 
	2869.532281336783853 2769.290271462147757 13626.48367245053305 
	2868.610440503689006 2713.71167769134945 13682.46376563743979 
	2867.851588745657864 2667.793587527751242 13746.59994412603373 
	2867.275297535934897 2632.715427397758049 13817.24477644836043 
	2866.896429944728425 2609.378184562800016 13892.58365308718203 
	2866.72475730719043 2598.381264947114232 13970.68139760463055 
	2866.764707211967561 2600.007097560003331 14049.53197456807357 
	2867.015249309527007 2614.213880923737634 14127.11001743889938 
	2867.469921886852717 2640.636657887628644 14201.42285284769605 
	2868.116998517636148 2678.596690867981579 14270.56168492262623 
	2868.939790510350576 2727.118897884320631 14332.7506249570215 
	2869.917077277383669 2784.956896961935399 14386.39230690417753 
	2871.023653810880205 2850.625032488087982 14430.108917446134 
	2872.23098008074885 2922.436497722687818 14462.77758509583873 
	2873.507919579450572 2998.54680981577394 14483.55922544125133 
	2874.383661951697832 3050.849364136171516 14489.13312769223921 
	2874.822002501375664 3077.055576944254881 14489.81416883839483 
	2991.791663907040856 3089.806658451873773 14489.99999999986721 
	2991.354623630521473 3116.049893602278644 14490.00001962545502 
	2990.480550624322404 3168.535907987007704 14485.77794520721181 
	2989.203046429589449 3245.238740489421616 14466.94154530859669 
	2987.991901186242103 3317.940756489663727 14436.08675577328722 
	2986.878157576848935 3384.770905147944177 14394.00771312104007 
	2985.890365415226825 3444.009036591335644 14341.78748178578644 
	2985.053845394595101 3494.130443016802474 14280.77014790949761 
	2984.390040675827095 3533.845063578584814 14212.52622388840427 
	2983.915967044355966 3562.130699714443836 14138.81222494624672 
	2983.643776778888423 3578.259322497934591 14061.52545820201885 
	2983.580447130553239 3581.815811900142307 13982.65518792570219 
	2983.727601473307914 3572.708641075407741 13904.23143394877115 
	2984.081467689911278 3551.172231894476226 13828.27272111604361 
	2984.63297486569536 3517.760920776738658 13756.73412466345326 
	2985.367985809971287 3473.334690233492438 13691.45694878811264 
	2986.267659445119989 3419.037033367706954 13634.12133363814064 
	2987.308933773864283 3356.26552109751583 13586.20301057300276 
	2988.465117044474482 3286.635829688709691 13548.93531876995257 
	2989.706571960129622 3211.940154509776221 13523.27746082758313 
	2991.001475393631154 3134.101080415645811 13509.88981442889417 
	2992.31663413307615 3055.122096107988455 13509.11693550743621 
	2993.61833574791126 2977.036026199329626 13520.97869038555837 
	2994.873212764512118 2901.852708302740666 13545.16974511942863 
	2996.04909799919551 2831.507261898671914 13581.06742517724524 
	2997.115849123285898 2767.810280495590177 13627.74774313089802 
	2998.046121323607167 2712.401229093957227 13684.00918180374902 
	2998.816068252138393 2666.706246457676116 13748.40362069860021 
	2999.405953296955886 2631.901438317433531 13819.27360966912784 
	2999.800655505225222 2608.882606295363985 13894.79503042696888 
	2999.990057189671916 2598.242191684755653 13973.02404780057623 
	2999.969303282485271 2600.254027519099054 14051.94714225027565 
	2999.738925789009045 2614.866291353293036 14129.53293583794039 
	2999.304830149397276 2641.70284020928375 14203.78447769333798 
	2998.678143863351579 2680.072892971991678 14272.79064318855126 
	2997.874931238063255 2728.988812212080575 14334.77532387856627 
	2996.915781646660434 2787.191523161933219 14388.14314202187961 
	2995.825281570873358 2853.182932559847359 14431.52051337464036 
	2994.631385009371115 2925.264449437584517 14463.79100011704759 
	2993.364694479524132 3001.580853189907884 14484.12404860441711 
	2992.493355252860965 3053.971948278808668 14489.37225288735317 
	2992.056546328334207 3080.208959811409386 14489.88580703440311 
	3108.361300278159888 3095.642453126733471 14489.99999999987267 
	3107.048341088852339 3121.868729797560263 14490.00001966571654 
	3104.422445588381834 3174.320826149712502 14485.76928533786122 
	3100.585179586165395 3250.969971571139922 14466.89458227005525 
	3096.948477947366428 3323.612856533028207 14435.97815042574985 
	3093.606124915917007 3390.376146700904428 14393.81733154105859 
	3090.644324924232933 3449.537913995912731 14341.49950250629263 
	3088.139465931848008 3499.572313763031616 14280.37400139764031 
	3086.1561512740127 3539.188898471423272 14212.01732646805431 
	3084.745532934515722 3567.365910483570133 14138.19247641120455 
	3083.943992418573544 3583.376631536654713 14060.80348056066578 
	3083.772202393006864 3586.808126419768087 13981.84629174373003 
	3084.234593524210595 3577.571892852325163 13903.35730832069203 
	3085.319240203315985 3555.906144116241194 13827.3608530864858 
	3086.99816812236304 3522.369665241784332 13755.81696361522336 
	3089.228075764250661 3477.827401291216574 13690.57084059599401 
	3091.951451199626263 3423.428149411728555 13633.30525794624737 
	3095.098055386877149 3360.574930012021014 13585.49716210191764 
	3098.58673371927398 3290.888801222926304 13548.37957983932938 
	3102.327509097300663 3216.1670499099464 13522.90981707069295 
	3106.223902543424629 3138.336837540314718 13509.74476880361544 
	3110.175421507908595 3059.405496432017571 13509.22397704961804 
	3114.080151689330705 2981.408758302680781 13521.3608736380429 
	3117.837385523782359 2906.358250364680771 13545.84243379342661 
	3121.350219550867678 2836.189613103687407 13582.0372494110361 
	3124.528053667405402 2772.712577843847612 13629.0118138112648 
	3127.288927810213409 2717.564291657699869 13685.55459797005642 
	3129.561635802090223 2672.167093426058727 13750.20729727116668 
	3131.287561842530977 2637.691830052599016 13821.30244288989888 
	3132.42219227782607 2615.027658951409649 13897.00640776676119 
	3132.93626366040553 2604.759115635001308 13975.36669799652009 
	3132.816517487179226 2607.151037862859539 14054.36230993248137 
	3132.066042152633599 2622.141735150823024 14131.95585423698867 
	3130.704193292752734 2649.344579895635434 14206.14610253897445 
	3128.766094590740067 2688.057978749353879 14275.01960145447447 
	3126.301731857933191 2737.283468295514467 14336.80002280011468 
	3123.374663983601749 2795.751463745501496 14389.89397713958533 
	3120.06038314532907 2861.954013632227998 14432.93210930315399 
	3116.444369760662994 2934.183652027615153 14464.80441513826008 
	3112.619880445218769 3010.577583939809756 14484.68887176758471 
	3109.997007108013349 3062.969312772146623 14489.61137808246895 
	3108.684168047115691 3089.193189885581887 14489.95744523041503 
	0 
	
	0 
	0 
	38 0.02564102564102564014 0.05128205128205128027 0.07692307692307692735 0.1025641025641025605 0.1282051282051281937 0.1538461538461538269 0.1794871794871794601 0.2051282051282050933 0.2307692307692307265 0.2564102564102563875 0.2820512820512820484 0.3076923076923077094 0.3333333333333333703 0.3589743589743590313 0.3846153846153846922 0.4102564102564103532 0.4358974358974360142 0.4615384615384616751 0.4871794871794873361 0.512820512820512997 0.538461538461538658 0.5641025641025643189 0.5897435897435899799 0.6153846153846156408 0.6410256410256413018 0.6666666666666669627 0.6923076923076926237 0.7179487179487182846 0.7435897435897439456 0.7692307692307696065 0.7948717948717952675 0.8205128205128209284 0.8461538461538465894 0.8717948717948722503 0.8974358974358979113 0.9230769230769235723 0.9487179487179492332 0.9743589743589748942 
	0 
	0 
	0 
	F 1 F 0 F 1 F 0 } I I I I #
tcoedge-coedge $-1 -1 $-1 $7 $8 $-1 $9 forward $4 $10 0 6.250766387756697462 #
coedge $-1 -1 $-1 $11 $6 $-1 $12 forward $4 $13 #
coedge $-1 -1 $-1 $6 $11 $-1 $14 forward $4 $15 #
tedge-edge $-1 -1 $-1 $16 0 $17 6.250766387756697462 $6 $18 forward @7 unknown 0.0008503927469997464008 #
pcurve $-1 -1 $-1 0 forward { exppc nubs 1 open 2 
	0 1 6.250766387756697462 1 
	0 0 
	0.9999999999999988898 2.068077005349355747e-16 
	6.634453577132516576e-08 
	spline forward { ref 0 } I I I I 
	} 0 0 #
tcoedge-coedge $-1 -1 $-1 $8 $7 $-1 $19 forward $4 $20 0 6.270005910518955616 #
edge $-1 -1 $-1 $17 -1.597735222521510234 $21 -1.482133598330939162 $7 $22 forward @7 unknown #
pcurve $-1 -1 $-1 0 forward { exppc nubs 3 open 2 
	-1.597735222521510234 3 -1.482133598330939162 3 
	0.9999999999999995559 1.92296622095481427e-16 
	0.9999999975121010021 0.03330815819592725796 
	1.000000000000000444 0.06667390754961040333 
	0.9999999999999996669 0.1000417136115407807 
	2.007212348359205847e-06 
	spline forward { ref 0 } I I I I 
	} 0 0 #
edge $-1 -1 $-1 $23 -0.100020862021646742 $16 -3.670386069011506483e-26 $8 $24 forward @7 unknown #
pcurve $-1 -1 $-1 0 forward { exppc nubs 1 open 2 
	-0.1000208620216466865 1 -3.670386069011506483e-26 1 
	8.800505149503978838e-16 0.1000417136115408501 
	6.533345927860774191e-17 0 
	0.0009308921391565951053 
	spline forward { ref 0 } I I I I 
	} 0 0 #
tvertex-vertex $-1 -1 $-1 $9 $25 1.555089882970319229e-11 #
tvertex-vertex $-1 -1 $-1 $9 $26 1.409272615797817647e-11 #
ellipse-curve $-1 -1 $-1 2758.360865295683652 3095.64279798977077 13999.99999999999818 -0.9987492177719091702 0.0499999999999962072 -2.503714852295292524e-12 -1.238799995917361271e-09 -2.138662580364325549e-10 489.9999999999990337 1 F 0 F 6.250766387756697462 #
tedge-edge $-1 -1 $-1 $21 0 $23 6.270005910518955616 $11 $27 forward @7 unknown 0.0008609630395269261827 #
pcurve $-1 -1 $-1 0 forward { exppc nubs 1 open 2 
	0 1 6.270005910518956505 1 
	0.999999999999999889 0.1000417136115408223 
	1.507893010143815639e-15 0.1000417136115408084 
	6.669678280571431772e-08 
	spline forward { ref 0 } I I I I 
	} 0 0 #
tvertex-vertex $-1 -1 $-1 $12 $28 1.363797880709171235e-11 #
ellipse-curve $-1 -1 $-1 2839.234679955914999 5710.568444374378487 14489.87869744708587 -0.0006112077300546495508 -3.278502056162600211e-05 0.9999998126751089567 3040.448489749873261 0.2639976736045299144 1.858354623053342536 0.8655747827372255454 F -1.597735222521510234 F -1.482133598330939162 #
tvertex-vertex $-1 -1 $-1 $19 $29 1.741670484344471549e-11 #
ellipse-curve $-1 -1 $-1 2933.360865315327828 6591.995018274287759 14490.00000000346154 1.237562433333300727e-14 9.896371332788036052e-13 -1 -175.0000000208828226 -3496.352220284730265 -3.463009079496259884e-09 1 F -0.100020862021646742 F -3.670386069011506483e-26 #
point $-1 -1 $-1 2758.36086529444492 3095.642797989557039 14489.99999999999818 #
point $-1 -1 $-1 2757.566740887959895 3079.780175393726495 14489.74253089842932 #
ellipse-curve $-1 -1 $-1 3108.360865334785558 3095.642797989698465 14000.00000000000364 0.998749217771908615 0.05000000000000932171 -3.325952842571270662e-12 0.32288587227688198 -6.449640214727722309 489.9574449743703326 1 F 0 F 6.270005910518955616 #
point $-1 -1 $-1 3108.683751207062414 3089.193157774970587 14489.95744497437045 #
point $-1 -1 $-1 3108.360865336424013 3095.642797989568862 14490.00000000000182 #
End-of-ACIS-data 