700 0 1 0           
4 LibG 19 ASM 222.0.0.1700 NT 24 Wed Oct  5 17:29:48 2016 
1000 9.999999999999999547e-07 1.000000000000000036e-10 
body $-1 -1 $-1 $1 $-1 $-1 #
lump $-1 -1 $-1 $-1 $2 $0 #
shell $-1 -1 $-1 $-1 $-1 $3 $-1 $1 #
face $-1 -1 $-1 $-1 $4 $2 $-1 $5 forward double out #
loop $-1 -1 $-1 $-1 $6 $3 #
spline-surface $-1 -1 $-1 forward { exactsur full nubs 3 3 open open none none 40 2 
	-1.191870091324147548e-07 3 0.02564102564102564014 1 0.05128205128205128027 1 0.07692307692307692735 1 0.1025641025641025605 1 
	0.1282051282051281937 1 0.1538461538461538269 1 0.1794871794871794601 1 0.2051282051282050933 1 0.2307692307692307265 1 
	0.2564102564102563875 1 0.2820512820512820484 1 0.3076923076923077094 1 0.3333333333333333703 1 0.3589743589743590313 1 
	0.3846153846153846922 1 0.4102564102564103532 1 0.4358974358974360142 1 0.4615384615384616751 1 0.4871794871794873361 1 
	0.512820512820512997 1 0.538461538461538658 1 0.5641025641025643189 1 0.5897435897435899799 1 0.6153846153846156408 1 
	0.6410256410256413018 1 0.6666666666666669627 1 0.6923076923076926237 1 0.7179487179487182846 1 0.7435897435897439456 1 
	0.7692307692307696065 1 0.7948717948717952675 1 0.8205128205128209284 1 0.8461538461538465894 1 0.8717948717948722503 1 
	0.8974358974358979113 1 0.9230769230769235723 1 0.9487179487179492332 1 0.9743589743589748942 1 1.000000000000000444 3 
	-1.19187008937882905e-07 3 0.1000418327985498623 3 
	7606.331575882561992 2751.300080923453152 13510.00000000014734 
	7594.940389313632295 2727.729822484406668 13509.9999804550589 
	7572.158212876505786 2680.589712612816584 13514.20473505409063 
	7538.860841118366807 2611.691915800221523 13532.96452861431681 
	7507.293057154932285 2546.372923624666328 13563.69603353163984 
	7478.263961823461614 2486.306900206095179 13605.61152371899698 
	7452.517682183723082 2433.033568119001757 13657.6365596552223 
	7430.714181926829042 2387.918501938572717 13718.43755906677143 
	7413.412361213348959 2352.118158996673628 13786.45598127088306 
	7401.055725567252921 2326.550225941301505 13859.94827798366168 
	7393.961018510169197 2311.870097767391599 13937.03058651526226 
	7392.310101998338723 2308.45407709126539 14015.72701971034076 
	7396.145294756988733 2316.38972838957261 14094.02031479506513 
	7405.368287481002881 2335.473633369183517 14169.90354282483531 
	7419.742662849986118 2365.21660529723431 14241.43155324008694 
	7438.899955723206403 2404.856228551764161 14306.77083482764647 
	7462.349098180721739 2453.376401981749041 14364.24651497806008 
	7489.489007298755496 2509.533385106688911 14412.38529248481973 
	7519.623992991697378 2571.887679502771789 14449.95320336879195 
	7551.981590964050156 2638.840928144617465 14475.98725165862925 
	7585.732363651878586 2708.676886844446017 14489.82009432055384 
	7620.011161586960043 2779.60541754849055 14491.09714757692382 
	7653.939300180944883 2849.808375789674756 14479.78567611940707 
	7686.647083461684815 2917.486216041920216 14456.1756322285546 
	7717.296097400117105 2980.904120319009508 14420.87222329033102 
	7745.100701372319236 3038.436467581918805 14374.78039822983555 
	7769.348166856040734 3088.608504049313069 14319.08165052887307 
	7789.416947136908675 3130.134146256494205 14255.2037324465291 
	7804.79260970843734 3161.948947839236553 14184.78405677240698 
	7815.081022962860516 3183.237384989049588 14109.627724252603 
	7820.018459152906871 3193.453761160354588 14031.66125259131331 
	7819.478354647808374 3192.336195163850789 13952.88319311412306 
	7813.474554204797641 3179.91333410350444 13875.31290096014709 
	7802.160956056449322 3156.503619003282438 13800.93877199793133 
	7785.827567052326231 3122.707122239470209 13731.66727334329335 
	7764.893068449814564 3079.390164926264788 13669.27407396452145 
	7739.894084879893853 3027.663112622176868 13615.35852821352637 
	7711.471424242599824 2968.851903386629147 13571.30267848237418 
	7680.353668565657244 2904.464094538932386 13538.23582992536285 
	7647.338434511681953 2836.15008753280199 13517.00559772191264 
	7624.62758772350935 2789.157570561218108 13511.10599750287111 
	7613.242439549205301 2765.599806564342089 13510.25746935761345 
	7711.418295047470565 2700.51309371618936 13510.00000000014916 
	7699.229416409727492 2677.298518070003411 13509.99998041480285 
	7674.851870207611682 2630.869768880145784 13514.21339492344487 
	7639.224581475000377 2563.015391289610761 13533.01149165286188 
	7605.451509838229867 2498.693078354111549 13563.80463887917904 
	7574.399942455061137 2439.554890783002975 13605.80190529898391 
	7546.867379171909306 2387.119931059923601 13657.92453893472339 
	7523.560927052257284 2342.735087009133167 13718.83370557863782 
	7505.079158081999594 2307.540468865126968 13786.96487869124212 
	7491.896731244966759 2282.440113816023768 13860.56802651870748 
	7484.35220327591469 2268.078766470327992 13937.75256415661897 
	7482.639333281455038 2264.825316707182992 14016.53591589231655 
	7486.802106658546109 2272.763324359193575 14094.89444042314972 
	7496.733605543960039 2291.688873041800434 14170.81541085439676 
	7512.178754952618874 2321.115808539533191 14242.34871428831866 
	7532.740874030518171 2360.288227102641486 14307.65694301976873 
	7557.891864171679117 2408.199892873550652 14365.06259066995881 
	7586.985772328451276 2463.620085644343362 14413.0911409559103 
	7619.275381162758094 2525.125214974969367 14450.50894229941878 
	7653.931399946107376 2591.135388577421054 14476.35489541552306 
	7690.063763321521947 2659.954995610054539 14489.96513994583438 
	7726.74449090464077 2729.816262394724163 14490.99010603474562 
	7763.0315206145915 2798.924661717059735 14479.40349286692799 
	7797.992903618110176 2865.505009258575228 14455.5029435545639 
	7830.730739483937214 2927.847063060926303 14419.90239905654198 
	7860.404236818214486 2984.349454691146093 14373.51632754946877 
	7886.251307113427174 3033.560823633855307 14317.53623436256021 
	7907.608137216570867 3074.217098281299059 14253.40005587396627 
	7923.926237739347926 3105.273965879181105 14182.75522355164139 
	7934.78652955997859 3125.933697372120605 14107.41634691281979 
	7939.910106640060803 3135.665638105228936 14029.31860239537127 
	7939.165398739819466 3134.219838041821731 13950.46802543192825 
	7932.571550092225152 3121.633471413628286 13872.88998256110426 
	7920.297927231774338 3098.229880844753097 13798.57714715230395 
	7902.659768781769344 3064.610270815363037 13729.43831507737741 
	7880.110088374917723 3021.638262787481381 13667.2493750429785 
	7853.228040784810219 2970.417712770027265 13613.60769309582247 
	7822.70404221170611 2912.264346176040817 13569.891082553866 
	7789.322056235354466 2848.671994527928746 13537.22241490416309 
	7753.939390884481327 2781.274092675882002 13516.44077455875049 
	7729.623086570269152 2734.959500400452271 13510.86687230775715 
	7717.438998664304563 2711.753774079567847 13510.18583116160698 
	7813.962307531732222 2644.465271241023402 13510.00000000014734 
	7800.992331993785228 2621.646898601681187 13509.99998037454498 
	7775.052606201374147 2576.010549761871516 13514.22205479278819 
	7737.144283222100967 2509.317854661433557 13533.05845469140331 
	7701.21301492159273 2446.103979905833512 13563.9132442267146 
	7668.183412718311956 2387.995851620641588 13605.99228687896357 
	7638.905527185860592 2336.489178567455383 13658.21251821420992 
	7614.132839710428016 2292.909721215894024 13719.22985209049875 
	7594.502890521029258 2258.379201122902487 13787.47377611159573 
	7580.520865856879936 2233.786418773007426 13861.18777505375147 
	7572.546598038342381 2219.764378508087702 13938.47454179797933 
	7570.785304602439282 2216.673994560258507 14017.34481207429417 
	7575.282307090486029 2224.5948015553804 14095.76856605122703 
	7585.921864798659954 2243.322907532285171 14171.72727888395457 
	7602.430153663628516 2272.376242444509899 14243.26587533654674 
	7624.382313570063161 2311.006966962856495 14308.54305121188736 
	7651.21338271622426 2358.220722185652903 14365.87866636185572 
	7682.232837620988903 2412.80222475131859 14413.79698942699724 
	7716.642364564476338 2473.346548522965804 14451.06468123004561 
	7753.55640508905708 2538.295287640010883 14476.72253917241687 
	7792.024946794742391 2605.976670085788555 14490.11018557110765 
	7831.057972878379587 2674.648589234251631 14490.88306449256561 
	7869.650941177440473 2742.543445731203974 14479.02130961444345 
	7906.810636984880148 2807.913645469041967 14454.83025488056956 
	7941.58073428339867 2869.076582528381095 14418.93257482275476 
	7973.066407553235877 2924.457949219444345 14372.25225686910198 
	8000.457360743615936 2972.632258419660047 14315.9908181962528 
	8023.048680735843845 3012.359535162619977 14251.59637930139797 
	8040.258978616906461 3042.617233040851261 14180.72639033087216 
	8051.645351885059426 3062.626553901182433 14105.20496957303112 
	8056.914782528418982 3071.872493376353304 14026.97595219942377 
	8055.93167764177997 3070.117096289973688 13948.05285774972072 
	8048.721358539008179 3057.4055807789955 13870.46706416205598 
	8035.46940853430624 3034.065173443276763 13796.21552230666202 
	8016.516896353040465 3000.696685812986743 13727.20935681144874 
	7992.351597513543311 2958.159047918738452 13665.22467612143373 
	7963.595441872552328 2907.547201058523115 13611.85685797812039 
	7930.988501996524974 2850.163904040492071 13568.47948662535782 
	7895.369965806371511 2787.486233821617134 13536.20899988294877 
	7857.656466167205508 2721.127436879899506 13515.87595139558107 
	7831.764663325783658 2675.573066921755981 13510.62774711264501 
	7818.797875695572657 2652.760044440038655 13510.11419296559325 
	7913.45123219837933 2583.436667358451814 13510.00000000014188 
	7899.720786531325757 2561.053273700837508 13509.99998033428528 
	7872.260134448473764 2516.286876413369555 13514.23071466213332 
	7832.131413934916964 2450.868974473979961 13533.10541772994657 
	7794.100121975866386 2388.870303792092272 13564.02184957425197 
	7759.147019798640031 2331.889702829875205 13606.18266845894505 
	7728.17360174138139 2281.396789044774323 13658.50049749370555 
	7701.978705069292118 2238.693828175926228 13719.62599860235787 
	7681.237927768725058 2204.882181100437265 13787.98267353194569 
	7666.48619852601405 2180.833889386014562 13861.80752358879181 
	7658.103981779469905 2167.169186745546995 13939.19651943933604 
	7656.307464696977149 2164.240501832821337 14018.15370825626633 
	7661.142981562668865 2172.123368869134538 14096.64269167930433 
	7672.485818732830921 2190.61447948058094 14172.6391469135142 
	7690.043431154507743 2219.236926271595166 14244.18303638477482 
	7713.362987442919803 2257.252502821806502 14309.42915940400417 
	7741.843048933711543 2303.680742894965533 14366.69474205375263 
	7774.7490814902485 2357.32420781108658 14414.50283789807872 
	7811.232399999206791 2416.799369792293874 14451.6204201606688 
	7850.35205695345303 2480.572294764336675 14477.09018292930705 
	7891.099110590122109 2546.998204312641519 14490.25523119638274 
	7932.422646680191065 2614.363896443677277 14490.77602295038014 
	7973.256882837065859 2680.931931070597784 14478.6391263619571 
	8012.548656292412488 2744.985440627625849 14454.15756620657157 
	8049.284586197201861 2804.872410095091709 14417.96275058896208 
	8082.517209900519447 2859.048284401324963 14370.98818618873156 
	8111.389419120829189 2906.115804306670725 14314.44540202994176 
	8135.156565772237627 2944.861043355487254 14249.7927027288315 
	8153.205667310660829 2974.284716461037078 14178.69755711009748 
	8165.071216271323465 2993.627952637818453 14102.99359223323881 
	8170.447186251935818 3002.391867173849278 14024.63330200347627 
	8169.194924689928484 3000.350428448237381 13945.63769006751681 
	8161.346728882069328 2987.556287563883416 13868.04414576300769 
	8147.105012970737334 2964.339420367199637 13793.85389746102192 
	8126.837087553050878 2931.298617158912748 13724.98039854552189 
	8101.065685911449691 2889.286038540535628 13663.19997719988351 
	8070.455483599333093 2839.385239622159133 13610.10602286041285 
	8035.79595012270056 2782.883214807458444 13567.06789069684783 
	7997.981008337922503 2721.237238512642762 13535.1955848617381 
	7957.985901728694444 2656.037154165726406 13515.31112823241165 
	7930.556854320851926 2611.322278868095964 13510.38862191752742 
	7916.827664912657383 2588.940933165607476 13510.04255476957951 
	0 
	
	0 
	0 
	38 0.02564102564102564014 0.05128205128205128027 0.07692307692307692735 0.1025641025641025605 0.1282051282051281937 0.1538461538461538269 0.1794871794871794601 0.2051282051282050933 0.2307692307692307265 0.2564102564102563875 0.2820512820512820484 0.3076923076923077094 0.3333333333333333703 0.3589743589743590313 0.3846153846153846922 0.4102564102564103532 0.4358974358974360142 0.4615384615384616751 0.4871794871794873361 0.512820512820512997 0.538461538461538658 0.5641025641025643189 0.5897435897435899799 0.6153846153846156408 0.6410256410256413018 0.6666666666666669627 0.6923076923076926237 0.7179487179487182846 0.7435897435897439456 0.7692307692307696065 0.7948717948717952675 0.8205128205128209284 0.8461538461538465894 0.8717948717948722503 0.8974358974358979113 0.9230769230769235723 0.9487179487179492332 0.9743589743589748942 
	0 
	0 
	0 
	F 1 F 0 F 1 F 0 } I I I I #
tcoedge-coedge $-1 -1 $-1 $7 $8 $-1 $9 forward $4 $10 0 6.250766387756699238 #
coedge $-1 -1 $-1 $11 $6 $-1 $12 forward $4 $13 #
coedge $-1 -1 $-1 $6 $11 $-1 $14 forward $4 $15 #
tedge-edge $-1 -1 $-1 $16 0 $17 6.250766387756699238 $6 $18 forward @7 unknown 0.0008503927493173096428 #
pcurve $-1 -1 $-1 0 forward { exppc nubs 1 open 2 
	0 1 6.250766387756699238 1 
	0 0 
	0.9999999999999990008 1.556393719770937033e-17 
	6.885242504391997506e-08 
	spline forward { ref 0 } I I I I 
	} 0 0 #
tcoedge-coedge $-1 -1 $-1 $8 $7 $-1 $19 forward $4 $20 9.450845770282344856e-16 6.270005910518959169 #
edge $-1 -1 $-1 $17 -1.597735222716144321 $21 -1.482133598446699452 $7 $22 forward @7 unknown #
pcurve $-1 -1 $-1 0 forward { exppc nubs 3 open 2 
	-1.597735222716144321 3 -1.482133598446699452 3 
	1.000000000000000222 0 
	0.9999999975120990037 0.03330815819587233662 
	1.000000000000000444 0.06667390754965718536 
	0.9999999999999996669 0.1000417136115408501 
	1.901307985676250107e-06 
	spline forward { ref 0 } I I I I 
	} 0 0 #
edge $-1 -1 $-1 $23 -0.1000208620216503086 $16 2.693228103763456616e-16 $8 $24 forward @7 unknown #
pcurve $-1 -1 $-1 0 forward { exppc nubs 1 open 2 
	-0.1000208620216504474 1 -1.830985469789041833e-26 1 
	1.11969020588981678e-15 0.1000417136115407252 
	0 1.945318459997463916e-16 
	0.0009308921383072791536 
	spline forward { ref 0 } I I I I 
	} 0 0 #
tvertex-vertex $-1 -1 $-1 $9 $25 1.749988544269883324e-11 #
tvertex-vertex $-1 -1 $-1 $9 $26 1.374994272134941551e-11 #
ellipse-curve $-1 -1 $-1 7606.331792625844173 2751.299570722043882 14000.00000000000364 -0.9003654385643481417 0.4351345504999908909 -3.11482350592379201e-13 2.577223767730174896e-10 1.824631112867791775e-10 -489.9999999999990337 1 F 0 F 6.250766387756699238 #
tedge-edge $-1 -1 $-1 $21 9.450845770282344856e-16 $23 6.270005910518959169 $11 $27 forward @7 unknown 0.0008609630375091943894 #
pcurve $-1 -1 $-1 0 forward { exppc nubs 1 open 2 
	0 1 6.270005910518959169 1 
	1 0.1000417136115408501 
	1.089367071122917983e-15 0.1000417136115406974 
	5.955728428313291861e-08 
	spline forward { ref 0 } I I I I 
	} 0 0 #
tvertex-vertex $-1 -1 $-1 $12 $28 2.020905270736131912e-11 #
ellipse-curve $-1 -1 $-1 6423.15642170033334 417.9601755824055545 13510.12130255295051 -0.0005206001408895784017 0.0003219087450777644954 -0.9999998126751089567 2667.813876189647544 -1458.456786440141741 -1.858354621800675455 0.8655747821477107751 F -1.597735222716144321 F -1.482133598446699452 #
tvertex-vertex $-1 -1 $-1 $19 $29 1.575214955491606587e-11 #
ellipse-curve $-1 -1 $-1 6083.010771746567116 -400.6199897429142425 13510.00000000173168 2.481786165172298225e-13 4.282592022038595955e-13 1 1523.321020879535808 3151.91956046514133 -1.728255938360234888e-09 1 F -0.1000208620216503086 F 2.693228103763456616e-16 #
point $-1 -1 $-1 7606.33179262610156 2751.29957072222669 13510.00000000000364 #
point $-1 -1 $-1 7613.242811959248684 2765.599614112634754 13510.2574691015725 #
ellipse-curve $-1 -1 $-1 7913.450685140603127 2583.436573351823881 13999.99999999999818 0.8524045821776666809 -0.5228828054951869531 1.128828493437354613e-11 3.376629402710455086 5.504587910343319734 -489.9574449743703326 1 F 9.450845770282344856e-16 F 6.270005910518959169 #
point $-1 -1 $-1 7916.82731454331406 2588.941161262167952 13510.04255502563137 #
point $-1 -1 $-1 7913.450685145429816 2583.436573349113132 13510 #
End-of-ACIS-data 