700 0 1 0           
4 LibG 19 ASM 222.0.0.1700 NT 24 Wed Oct  5 17:29:48 2016 
1000 9.999999999999999547e-07 1.000000000000000036e-10 
body $-1 -1 $-1 $1 $-1 $-1 #
lump $-1 -1 $-1 $-1 $2 $0 #
shell $-1 -1 $-1 $-1 $-1 $3 $-1 $1 #
face $-1 -1 $-1 $-1 $4 $2 $-1 $5 forward double out #
loop $-1 -1 $-1 $-1 $6 $3 #
spline-surface $-1 -1 $-1 forward { exactsur full nubs 3 3 open open none none 40 2 
	-1.191870089934216245e-07 3 0.02564102564102564014 1 0.05128205128205128027 1 0.07692307692307692735 1 0.1025641025641025605 1 
	0.1282051282051281937 1 0.1538461538461538269 1 0.1794871794871794601 1 0.2051282051282050933 1 0.2307692307692307265 1 
	0.2564102564102563875 1 0.2820512820512820484 1 0.3076923076923077094 1 0.3333333333333333703 1 0.3589743589743590313 1 
	0.3846153846153846922 1 0.4102564102564103532 1 0.4358974358974360142 1 0.4615384615384616751 1 0.4871794871794873361 1 
	0.512820512820512997 1 0.538461538461538658 1 0.5641025641025643189 1 0.5897435897435899799 1 0.6153846153846156408 1 
	0.6410256410256413018 1 0.6666666666666669627 1 0.6923076923076926237 1 0.7179487179487182846 1 0.7435897435897439456 1 
	0.7692307692307696065 1 0.7948717948717952675 1 0.8205128205128209284 1 0.8461538461538465894 1 0.8717948717948722503 1 
	0.8974358974358979113 1 0.9230769230769235723 1 0.9487179487179492332 1 0.9743589743589748942 1 1.000000000000000444 3 
	-1.19187008740361598e-07 3 0.1000418327985498068 3 
	4858.360430660795828 3095.642454248933973 14489.99999999986176 
	4859.669361023229612 3121.788255358057086 14490.00001954493928 
	4862.287199145751401 3174.07940609584648 14485.79526494590573 
	4866.113309851580198 3250.505725178320063 14467.03547138568501 
	4869.740678313543867 3322.962180523812094 14436.30396646836198 
	4873.076332948241543 3389.591670640743359 14394.38847628099938 
	4876.034768132866702 3448.686226127756072 14342.36344034477588 
	4878.540149229113013 3498.731054886374295 14281.56244093322675 
	4880.528254534929147 3538.443332484770053 14213.54401872911694 
	4881.94812203308993 3566.805095855583659 14140.0517220163365 
	4882.763355584344936 3583.089334421915282 14062.9694134847341 
	4882.953057924401037 3586.878626652783623 13984.27298028965924 
	4882.512366323292554 3578.075839824908144 13905.97968520493305 
	4881.452577236709658 3556.906619925486211 13830.09645717517014 
	4879.800856737914728 3523.913607547787706 13758.56844675991306 
	4877.599544157166747 3479.942528132865846 13693.22916517235353 
	4874.905066777664615 3426.120513089576434 13635.75348502194174 
	4871.786493408389106 3363.827207504061334 13587.61470751518027 
	4868.323763910780144 3294.659405046749725 13550.04679663120805 
	4864.605640062561179 3220.390116607409254 13524.01274834137075 
	4860.727430285253831 3142.923121871112016 13510.17990567944071 
	4856.788546558484995 3064.244168836037716 13508.90285242307436 
	4852.889956145819269 2986.37007219883435 13520.21432388059475 
	4849.131593453308597 2911.297015392682169 13543.82436777144176 
	4845.609798363754635 2840.949381476228609 13579.12777670966716 
	4842.414846711048085 2777.130424515401046 13625.2196017701699 
	4839.628636197188825 2721.476045921779587 13680.91834947113421 
	4837.322587069847941 2675.412860620468564 13744.79626755347272 
	4835.555811373514189 2640.121627957076271 13815.21594322759302 
	4834.373597702577172 2616.506984737000039 13890.37227574739336 
	4833.806250297405313 2605.17425624266798 13968.33874740868669 
	4833.868312241639615 2606.413939649044551 14047.11680688587694 
	4834.558192671770485 2620.194257558162462 14124.68709903985291 
	4835.858207559170296 2646.16197261798925 14199.06122800206504 
	4837.735033003085846 2683.651442021000548 14268.33272665670665 
	4840.140559475447844 2731.701680990265686 14330.72592603547855 
	4843.013124894918292 2789.080993355521969 14384.64147178647181 
	4846.279095763205078 2854.318554650669284 14428.69732151762764 
	4849.85475269498329 2925.742075454977112 14461.76417007463351 
	4853.648443722217962 3001.520813510332118 14482.99440227808736 
	4856.258085548181043 3053.648243743374678 14488.89400249713071 
	4857.566322055062301 3079.780185131749931 14489.74253064238837 
	4974.930066957037525 3089.806658827809315 14489.99999999985994 
	4975.368447935379663 3116.022934440410154 14490.00001958519351 
	4976.245202253448952 3168.455031595080072 14485.78660507655877 
	4977.526418676745379 3245.083216651966723 14466.9885083471363 
	4978.740669788777268 3317.722778210332763 14436.19536112082278 
	4979.856642472043859 3384.508103478068733 14394.19809470101609 
	4980.845554364823329 3443.723718778173861 14342.07546106527843 
	4981.681900641184257 3493.848618944903592 14281.166294421364 
	4982.344111141421308 3533.595296891945509 14213.03512130875424 
	4982.815106863549772 3561.942825248655481 14139.43197348129434 
	4983.082740398739588 3578.163077162556419 14062.24743584338103 
	4983.140109236780518 3581.839429674984331 13983.46408410768163 
	4982.985733784642434 3572.877464717890234 13905.1055595768521 
	4982.623595527405087 3551.5073940832076 13829.18458914560324 
	4982.063034341838829 3518.27814575886805 13757.65128571167952 
	4981.318507612495523 3474.043263629415378 13692.34305698023309 
	4980.409217362530399 3419.93898271500484 13634.93740933004119 
	4979.358615015993564 3357.355043135462438 13586.90885904409151 
	4978.193796564177319 3287.898992494613594 13549.4910577005794 
	4976.944803735311325 3213.354893641313083 13523.64510458447694 
	4975.643849190971196 3135.63749846820383 13510.03486005416562 
	4974.32448573219699 3056.743064869570844 13509.00989396525256 
	4973.020740942160955 2978.698080203105746 13520.59650713307383 
	4971.766239583804236 2903.507208372745936 13544.4970564454361 
	4970.593336386616102 2833.101797589462876 13580.09760094345984 
	4969.53228158868933 2769.290271462140026 13626.48367245053305 
	4968.610440755594027 2713.71167769134172 13682.46376563743979 
	4967.85158899756334 2667.793587527742602 13746.59994412603373 
	4967.275297787842646 2632.715427397751228 13817.24477644836043 
	4966.896430196633446 2609.378184562790921 13892.58365308718203 
	4966.72475755909727 2598.381264947106956 13970.68139760463055 
	4966.764707463874402 2600.0070975599956 14049.53197456807357 
	4967.015249561432938 2614.213880923729448 14127.11001743889756 
	4967.469922138760012 2640.636657887620458 14201.42285284769787 
	4968.116998769542988 2678.596690867973848 14270.56168492262623 
	4968.939790762257871 2727.118897884313355 14332.7506249570215 
	4969.9170775292896 2784.956896961927214 14386.39230690417753 
	4971.023654062786591 2850.625032488080251 14430.108917446134 
	4972.230980332654326 2922.436497722680542 14462.77758509583873 
	4973.507919831356958 2998.5468098157653 14483.55922544125133 
	4974.383662203602398 3050.849364136162876 14489.13312769223921 
	4974.822002753280685 3077.05557694424715 14489.81416883839483 
	5091.791664158941785 3089.806658451865587 14489.99999999985994 
	5091.354623882425585 3116.049893602270458 14490.00001962544775 
	5090.480550876225607 3168.535907987001337 14485.77794520721181 
	5089.203046681495834 3245.238740489413431 14466.94154530859669 
	5087.991901438144851 3317.940756489655087 14436.08675577328177 
	5086.878157828753501 3384.770905147936446 14394.00771312103643 
	5085.890365667128208 3444.009036591328368 14341.7874817857828 
	5085.053845646500122 3494.130443016796562 14280.77014790949943 
	5084.390040927728478 3533.845063578577538 14212.52622388840609 
	5083.915967296258714 3562.130699714437469 14138.81222494625035 
	5083.643777030791171 3578.259322497927315 14061.52545820201885 
	5083.580447382457351 3581.815811900133667 13982.65518792570583 
	5083.727601725210661 3572.708641075400919 13904.23143394877479 
	5084.081467941814481 3551.172231894467586 13828.27272111604725 
	5084.632975117596288 3517.760920776730927 13756.73412466345326 
	5085.367986061874035 3473.334690233482888 13691.45694878811264 
	5086.267659697021372 3419.037033367699678 13634.12133363814064 
	5087.308934025768394 3356.265521097508554 13586.20301057300094 
	5088.465117296375865 3286.635829688702415 13548.93531876995439 
	5089.70657221203237 3211.940154509767126 13523.27746082758131 
	5091.00147564553572 3134.101080415639899 13509.88981442889417 
	5092.316634384978897 3055.122096107983907 13509.11693550743621 
	5093.618335999815827 2977.036026199320986 13520.97869038555837 
	5094.87321301641532 2901.852708302734754 13545.16974511942863 
	5096.049098251100077 2831.507261898664183 13581.06742517724342 
	5097.1158493751891 2767.810280495582901 13627.74774313089802 
	5098.046121575512188 2712.401229093949496 13684.00918180374902 
	5098.816068504044779 2666.706246457668385 13748.40362069860385 
	5099.405953548859543 2631.901438317426255 13819.27360966912966 
	5099.800655757129789 2608.882606295357618 13894.7950304269707 
	5099.990057441577846 2598.242191684749287 13973.02404780057441 
	5099.969303534391656 2600.254027519091778 14051.94714225027565 
	5099.738926040917249 2614.866291353285305 14129.53293583794039 
	5099.304830401303661 2641.702840209276474 14203.78447769333616 
	5098.678144115257965 2680.072892971985311 14272.79064318855126 
	5097.874931489967821 2728.988812212071934 14334.77532387856445 
	5096.915781898565911 2787.191523161925488 14388.14314202187961 
	5095.82528182277747 2853.182932559840538 14431.52051337464036 
	5094.631385261276591 2925.264449437577696 14463.79100011704759 
	5093.364694731428244 3001.580853189900154 14484.12404860441711 
	5092.493355504765532 3053.971948278801847 14489.37225288734953 
	5092.056546580238319 3080.208959811401655 14489.88580703440311 
	5208.361300530060362 3095.642453126726195 14489.99999999986176 
	5207.048341340751904 3121.868729797553442 14490.00001966570744 
	5204.422445840282307 3174.320826149706591 14485.76928533786304 
	5200.585179838070871 3250.969971571130372 14466.89458227005525 
	5196.948478199265992 3323.612856533019567 14435.97815042574621 
	5193.606125167822938 3390.376146700897607 14393.81733154105495 
	5190.644325176132952 3449.537913995904546 14341.49950250629627 
	5188.139466183749391 3499.572313763023885 14280.37400139764031 
	5186.156151525912719 3539.188898471415087 14212.01732646805431 
	5184.745533186419379 3567.365910483563312 14138.19247641120455 
	5183.943992670475382 3583.376631536647437 14060.80348056066578 
	5183.772202644908248 3586.808126419760811 13981.84629174372822 
	5184.23459377611016 3577.571892852318797 13903.35730832069385 
	5185.319240455221006 3555.906144116234373 13827.36085308648217 
	5186.998168374267152 3522.369665241777057 13755.81696361522336 
	5189.228076016154773 3477.827401291209299 13690.57084059599401 
	5191.951451451526736 3423.428149411721733 13633.30525794624737 
	5195.098055638780352 3360.574930012014192 13585.49716210191764 
	5198.586733971175818 3290.888801222920392 13548.3795798393312 
	5202.327509349204774 3216.167049909938669 13522.90981707069295 
	5206.223902795330105 3138.336837540307442 13509.74476880361362 
	5210.175421759810888 3059.40549643201075 13509.22397704962168 
	5214.080151941234362 2981.40875830267214 13521.36087363804472 
	5217.837385775686926 2906.358250364675314 13545.84243379342661 
	5221.35021980277088 2836.189613103680585 13582.0372494110361 
	5224.528053919309968 2772.712577843840791 13629.01181381126298 
	5227.288928062116611 2717.564291657693502 13685.55459797006006 
	5229.561636053995244 2672.167093426051906 13750.20729727116486 
	5231.28756209443327 2637.691830052592195 13821.3024428899007 
	5232.422192529729728 2615.027658951401918 13897.006407766763 
	5232.936263912311915 2604.759115634994487 13975.36669799652555 
	5232.816517739081974 2607.151037862852263 14054.36230993248319 
	5232.066042404537257 2622.141735150815748 14131.95585423699231 
	5230.704193544657755 2649.344579895628613 14206.14610253897808 
	5228.766094842644634 2688.057978749347967 14275.01960145447629 
	5226.301732109835939 2737.283468295505827 14336.80002280011468 
	5223.374664235504497 2795.751463745496039 14389.89397713958169 
	5220.060383397231817 2861.954013632219812 14432.93210930315399 
	5216.44437001256756 2934.183652027608332 14464.80441513825645 
	5212.619880697122426 3010.577583939802025 14484.6888717675829 
	5209.997007359913368 3062.969312772140256 14489.61137808246895 
	5208.684168299017983 3089.193189885575066 14489.95744523041503 
	0 
	
	0 
	0 
	38 0.02564102564102564014 0.05128205128205128027 0.07692307692307692735 0.1025641025641025605 0.1282051282051281937 0.1538461538461538269 0.1794871794871794601 0.2051282051282050933 0.2307692307692307265 0.2564102564102563875 0.2820512820512820484 0.3076923076923077094 0.3333333333333333703 0.3589743589743590313 0.3846153846153846922 0.4102564102564103532 0.4358974358974360142 0.4615384615384616751 0.4871794871794873361 0.512820512820512997 0.538461538461538658 0.5641025641025643189 0.5897435897435899799 0.6153846153846156408 0.6410256410256413018 0.6666666666666669627 0.6923076923076926237 0.7179487179487182846 0.7435897435897439456 0.7692307692307696065 0.7948717948717952675 0.8205128205128209284 0.8461538461538465894 0.8717948717948722503 0.8974358974358979113 0.9230769230769235723 0.9487179487179492332 0.9743589743589748942 
	0 
	0 
	0 
	F 1 F 0 F 1 F 0 } I I I I #
tcoedge-coedge $-1 -1 $-1 $7 $8 $-1 $9 forward $4 $10 0 6.250766387756696574 #
coedge $-1 -1 $-1 $11 $6 $-1 $12 forward $4 $13 #
coedge $-1 -1 $-1 $6 $11 $-1 $14 forward $4 $15 #
tedge-edge $-1 -1 $-1 $16 0 $17 6.250766387756696574 $6 $18 forward @7 unknown 0.0008503927514383692642 #
pcurve $-1 -1 $-1 0 forward { exppc nubs 1 open 2 
	0 1 6.250766387756696574 1 
	0 0 
	0.9999999999999987788 1.009983920359459735e-16 
	6.642189229126938115e-08 
	spline forward { ref 0 } I I I I 
	} 0 0 #
tcoedge-coedge $-1 -1 $-1 $8 $7 $-1 $19 forward $4 $20 0 6.270005910518959169 #
edge $-1 -1 $-1 $17 -1.597735222605914274 $21 -1.482133598386540463 $7 $22 forward @7 unknown #
pcurve $-1 -1 $-1 0 forward { exppc nubs 3 open 2 
	-1.597735222605914274 3 -1.482133598386540463 3 
	0.999999999999999889 0 
	0.9999999975121000029 0.03330815819590063342 
	1.000000000000000444 0.06667390754962088106 
	0.999999999999999778 0.1000417136115408501 
	1.907531038287463595e-06 
	spline forward { ref 0 } I I I I 
	} 0 0 #
edge $-1 -1 $-1 $23 -0.1000208620216285343 $16 3.164543021768777012e-16 $8 $24 forward @7 unknown #
pcurve $-1 -1 $-1 0 forward { exppc nubs 1 open 2 
	-0.1000208620216285899 1 -3.670386069013805814e-26 1 
	0 0.1000417136115408084 
	0 2.530600245006977964e-16 
	0.0009308921369475684155 
	spline forward { ref 0 } I I I I 
	} 0 0 #
tvertex-vertex $-1 -1 $-1 $9 $25 1.181898940354585587e-11 #
tvertex-vertex $-1 -1 $-1 $9 $26 1.377741519647228202e-11 #
ellipse-curve $-1 -1 $-1 4858.360865547545473 3095.642797989763949 13999.99999999999818 -0.9987492177719092812 0.04999999999999310552 -2.418564947816329794e-12 -1.197109611439373194e-09 -2.14949125165730958e-10 489.9999999999990337 1 F 0 F 6.250766387756696574 #
tedge-edge $-1 -1 $-1 $21 0 $23 6.270005910518959169 $11 $27 forward @7 unknown 0.0008609630417318010287 #
pcurve $-1 -1 $-1 0 forward { exppc nubs 1 open 2 
	0 1 6.270005910518959169 1 
	0.999999999999999889 0.1000417136115408223 
	1.022161409156883776e-15 0.1000417136115408501 
	6.652419703306465298e-08 
	spline forward { ref 0 } I I I I 
	} 0 0 #
tvertex-vertex $-1 -1 $-1 $12 $28 1.363797880709171235e-11 #
ellipse-curve $-1 -1 $-1 4939.234680267139993 5710.568443064476924 14489.87869744708041 -0.0006112077300546473824 -3.278502056174613849e-05 0.9999998126751090677 3040.448488992066359 0.2639978780001081549 1.85835462259685924 0.8655747825221343783 F -1.597735222605914274 F -1.482133598386540463 #
tvertex-vertex $-1 -1 $-1 $19 $29 1.575214955491606587e-11 #
ellipse-curve $-1 -1 $-1 5033.360865567274232 6591.99501827489712 14490.00000000346154 1.23756243333284729e-14 9.896371332789849548e-13 -1 -175.0000000209239772 -3496.352220285348722 -3.463009079496259884e-09 1 F -0.1000208620216285343 F 3.164543021768777012e-16 #
point $-1 -1 $-1 4858.360865546348577 3095.642797989548853 14489.99999999999818 #
point $-1 -1 $-1 4857.566741139863552 3079.780175393717855 14489.74253089842932 #
ellipse-curve $-1 -1 $-1 5208.360865586604632 3095.642797989687551 14000.00000000000182 0.9987492177719080599 0.05000000000001883493 -3.497945100766881299e-12 0.3228858723613456383 -6.449640214723390663 489.9574449743724927 1 F 0 F 6.270005910518959169 #
point $-1 -1 $-1 5208.683751458966071 3089.19315777496422 14489.95744497437045 #
point $-1 -1 $-1 5208.360865588327215 3095.642797989560677 14490.00000000000182 #
End-of-ACIS-data 