700 0 1 0           
4 LibG 19 ASM 222.0.0.1700 NT 24 Wed Oct  5 17:29:48 2016 
1000 9.999999999999999547e-07 1.000000000000000036e-10 
body $-1 -1 $-1 $1 $-1 $-1 #
lump $-1 -1 $-1 $-1 $2 $0 #
shell $-1 -1 $-1 $-1 $-1 $3 $-1 $1 #
face $-1 -1 $-1 $-1 $4 $2 $-1 $5 forward double out #
loop $-1 -1 $-1 $-1 $6 $3 #
spline-surface $-1 -1 $-1 forward { exactsur full nubs 3 3 open open none none 40 2 
	-1.191870090838713496e-07 3 0.02564102564102564014 1 0.05128205128205128027 1 0.07692307692307692735 1 0.1025641025641025605 1 
	0.1282051282051281937 1 0.1538461538461538269 1 0.1794871794871794601 1 0.2051282051282050933 1 0.2307692307692307265 1 
	0.2564102564102563875 1 0.2820512820512820484 1 0.3076923076923077094 1 0.3333333333333333703 1 0.3589743589743590313 1 
	0.3846153846153846922 1 0.4102564102564103532 1 0.4358974358974360142 1 0.4615384615384616751 1 0.4871794871794873361 1 
	0.512820512820512997 1 0.538461538461538658 1 0.5641025641025643189 1 0.5897435897435899799 1 0.6153846153846156408 1 
	0.6410256410256413018 1 0.6666666666666669627 1 0.6923076923076926237 1 0.7179487179487182846 1 0.7435897435897439456 1 
	0.7692307692307696065 1 0.7948717948717952675 1 0.8205128205128209284 1 0.8461538461538465894 1 0.8717948717948722503 1 
	0.8974358974358979113 1 0.9230769230769235723 1 0.9487179487179492332 1 0.9743589743589748942 1 1.000000000000000444 3 
	-1.191870090629564914e-07 3 0.100041832798549904 3 
	658.3604301569872632 3095.642454248950799 14489.99999999985994 
	659.669360519420934 3121.788255358074366 14490.0000195449411 
	662.2871986419422683 3174.07940609586376 14485.79526494590755 
	666.1133093477710645 3250.505725178337343 14467.03547138568138 
	669.7406778097354163 3322.962180523829375 14436.30396646836016 
	673.0763324444337741 3389.59167064076064 14394.38847628099938 
	676.0347676290583649 3448.686226127771988 14342.36344034477952 
	678.540148725303311 3498.731054886392485 14281.56244093323039 
	680.5282540311227422 3538.443332484786879 14213.54401872911694 
	681.9481215292815932 3566.805095855600939 14140.05172201633832 
	682.7633550805351206 3583.089334421932563 14062.96941348473774 
	682.9530574205939502 3586.878626652800449 13984.27298028965924 
	682.5123658194835343 3578.075839824925424 13905.97968520493669 
	681.4525767329006385 3556.906619925504401 13830.09645717517014 
	679.8008562341067318 3523.913607547805896 13758.56844675991488 
	677.5995436533586371 3479.942528132884036 13693.22916517235535 
	674.9050662738559367 3426.120513089593715 13635.75348502194356 
	671.7864929045806548 3363.82720750407907 13587.61470751518027 
	668.3237634069704427 3294.659405046766551 13550.04679663120987 
	664.6056395587520456 3220.39011660742699 13524.01274834137075 
	660.727429781445835 3142.923121871129752 13510.17990567944435 
	656.7885460546764307 3064.244168836055906 13508.902852423078 
	652.8899556420097952 2986.370072198852995 13520.21432388059475 
	649.1315929494999182 2911.297015392698995 13543.8243677714454 
	645.6097978599453882 2840.94938147624589 13579.12777670966898 
	642.4148462072390657 2777.130424515418326 13625.21960177016626 
	639.6286356933798061 2721.476045921797322 13680.91834947113239 
	637.3225865660388081 2675.41286062048539 13744.79626755347272 
	635.5558108697046009 2640.121627957094006 13815.21594322759665 
	634.3735971987678113 2616.506984737018229 13890.37227574739882 
	633.806249793595498 2605.174256242684805 13968.33874740869032 
	633.8683117378315046 2606.413939649062286 14047.11680688587876 
	634.5581921679620336 2620.194257558179288 14124.68709903985473 
	635.8582070553617314 2646.16197261800653 14199.06122800206504 
	637.7350324992773949 2683.651442021017374 14268.33272665670665 
	640.1405589716393933 2731.701680990282966 14330.72592603548037 
	643.0131243911110914 2789.080993355540613 14384.64147178647909 
	646.2790952593953762 2854.318554650686565 14428.69732151762946 
	649.8547521911743843 2925.742075454993937 14461.76417007463897 
	653.6484432184101934 3001.520813510348944 14482.994402278091 
	656.2580850443730469 3053.648243743391959 14488.89400249713253 
	657.5663215512531679 3079.780185131767212 14489.74253064238655 
	774.9300664532287328 3089.806658827824776 14489.9999999998563 
	775.3684474315710986 3116.022934440425615 14490.00001958519169 
	776.2452017496391363 3168.455031595095534 14485.78660507655695 
	777.5264181729349957 3245.083216651983093 14466.98850834713448 
	778.7406692849673391 3317.722778210348679 14436.19536112081732 
	779.8566419682363176 3384.508103478084649 14394.19809470101427 
	780.8455538610133999 3443.723718778188413 14342.07546106527479 
	781.6819001373754645 3493.848618944919963 14281.16629442136218 
	782.3441106376130847 3533.595296891961425 14213.03512130875242 
	782.8151063597391612 3561.942825248671397 14139.4319734812907 
	783.0827398949305689 3578.163077162571426 14062.24743584337739 
	783.1401087329732036 3581.839429675000247 13983.46408410767981 
	782.9857332808338697 3572.87746471790706 13905.10555957684664 
	782.623595023594703 3551.507394083223971 13829.18458914560142 
	782.0630338380281046 3518.278145758883966 13757.6512857116777 
	781.3185071086844573 3474.043263629432658 13692.34305698023127 
	780.4092168587231981 3419.938982715020757 13634.93740933003755 
	779.3586145121827258 3357.355043135478809 13586.9088590440897 
	778.193796060367049 3287.898992494628601 13549.49105770057577 
	776.9448032315008277 3213.354893641329454 13523.64510458446966 
	775.6438486871613804 3135.637498468220656 13510.03486005416198 
	774.3244852283885393 3056.74306486958767 13509.00989396524892 
	773.0207404383501171 2978.698080203121663 13520.59650713307201 
	771.7662390799954437 2903.507208372762307 13544.49705644543428 
	770.5933358828082191 2833.101797589477883 13580.09760094345438 
	769.5322810848795143 2769.290271462155488 13626.48367245052395 
	768.6104402517850076 2713.711677691358091 13682.46376563743797 
	767.851588493754889 2667.793587527758973 13746.59994412603191 
	767.2752972840322627 2632.715427397766234 13817.24477644836043 
	766.8964296928244266 2609.378184562807292 13892.58365308717657 
	766.7247570552883644 2598.381264947121963 13970.68139760462509 
	766.7647069600652685 2600.007097560012426 14049.53197456806993 
	767.0152490576235778 2614.213880923745819 14127.11001743889392 
	767.4699216349498556 2640.636657887636829 14201.42285284769605 
	768.116998265733514 2678.596690867990219 14270.56168492262259 
	768.9397902584472604 2727.118897884329272 14332.75062495701786 
	769.9170770254808076 2784.956896961943585 14386.39230690417207 
	771.0236535589763207 2850.625032488096167 14430.10891744612854 
	772.2309798288450793 2922.436497722696458 14462.77758509583509 
	773.5079193275470288 2998.546809815781216 14483.55922544124951 
	774.3836616997931515 3050.849364136179702 14489.13312769223739 
	774.8220022494704153 3077.055576944263521 14489.8141688383912 
	891.7916636551342435 3089.806658451881049 14489.99999999985994 
	891.3546233786156563 3116.049893602286375 14490.00001962544593 
	890.4805503724156779 3168.535907987016799 14485.77794520720636 
	889.203046177686133 3245.238740489429802 14466.94154530858941 
	887.9919009343342395 3317.940756489671912 14436.08675577327995 
	886.8781573249434587 3384.770905147952817 14394.00771312103279 
	885.8903651633210075 3444.009036591344284 14341.78748178578098 
	885.0538451426892834 3494.130443016812478 14280.77014790949579 
	884.3900404239210502 3533.845063578592999 14212.52622388840064 
	883.9159667924495807 3562.130699714452021 14138.8122249462449 
	883.6437765269815827 3578.259322497942776 14061.52545820201522 
	883.5804468786479902 3581.815811900150038 13982.65518792569856 
	883.7276012214020966 3572.708641075416381 13904.23143394876934 
	884.0814674380050064 3551.172231894484867 13828.27272111603816 
	884.6329746137895427 3517.760920776745479 13756.73412466344598 
	885.367985558064106 3473.334690233499714 13691.45694878810536 
	886.267659193214854 3419.037033367715594 13634.121333638137 
	887.3089335219586928 3356.26552109752447 13586.20301057299548 
	888.4651167925688924 3286.635829688718786 13548.93531876995257 
	889.7065717082240326 3211.940154509783952 13523.27746082757585 
	891.0014751417272691 3134.101080415654906 13509.88981442888689 
	892.3166338811709011 3055.122096107999369 13509.11693550743075 
	893.6183354960071483 2977.036026199337357 13520.97869038555473 
	894.8732125126078927 2901.852708302750671 13545.16974511942317 
	896.0490977472910572 2831.507261898679189 13581.06742517723978 
	897.1158488713824681 2767.810280495598818 13627.74774313089074 
	898.046121071703169 2712.401229093965867 13684.00918180374174 
	898.8160680002353047 2666.706246457683392 13748.40362069859657 
	899.4059530450515467 2631.901438317442171 13819.27360966912238 
	899.8006552533225886 2608.882606295372625 13894.79503042696342 
	899.9900569377688271 2598.242191684764748 13973.02404780057259 
	899.9693030305827506 2600.254027519106785 14051.94714225027383 
	899.7389255371061836 2614.866291353301222 14129.53293583793857 
	899.3048298974955514 2641.70284020929239 14203.7844776933307 
	898.6781436114483768 2680.072892972000773 14272.7906431885458 
	897.8749309861595975 2728.98881221208876 14334.77532387855899 
	896.9157813947573459 2787.191523161941404 14388.14314202187597 
	895.8252813189694734 2853.182932559855999 14431.52051337463308 
	894.6313847574665488 2925.264449437592702 14463.79100011704577 
	893.3646942276212712 3001.580853189916525 14484.12404860441166 
	892.4933550009552619 3053.971948278818218 14489.37225288734589 
	892.0565460764277077 3080.208959811418026 14489.8858070344013 
	1008.361300026252593 3095.642453126742112 14489.99999999986358 
	1007.048340836945044 3121.868729797570268 14490.00001966570562 
	1004.422445336474311 3174.320826149721142 14485.76928533785212 
	1000.585179334261625 3250.969971571147653 14466.8945822700498 
	996.948477695458223 3323.612856533035938 14435.97815042574439 
	993.6061246640115314 3390.376146700913068 14393.81733154105314 
	990.6443246723265474 3449.537913995921372 14341.49950250628899 
	988.1394656799419636 3499.572313763039801 14280.37400139763122 
	986.1561510221051776 3539.188898471431457 14212.01732646804703 
	984.745532682609678 3567.365910483578773 14138.19247641120091 
	983.943992166667158 3583.376631536663353 14060.80348056066032 
	983.7722021411005926 3586.808126419777636 13981.8462917437264 
	984.234593272304096 3577.571892852332894 13903.35730832069021 
	985.3192399514094859 3555.906144116250289 13827.36085308647671 
	986.9981678704575643 3522.369665241792063 13755.8169636152179 
	989.228075512344617 3477.827401291225669 13690.57084059598492 
	991.9514509477198771 3423.428149411736285 13633.30525794624373 
	995.0980551349703092 3360.574930012028744 13585.49716210191218 
	998.5867334673688447 3290.888801222936308 13548.37957983932756 
	1002.327508845394618 3216.167049909954585 13522.9098170706875 
	1006.22390229152029 3138.336837540323359 13509.74476880361181 
	1010.175421256002778 3059.405496432027121 13509.22397704961259 
	1014.080151437426025 2981.408758302688057 13521.36087363803927 
	1017.837385271877793 2906.358250364690321 13545.84243379342115 
	1021.350219298962429 2836.189613103695137 13582.03724941103246 
	1024.528053415501745 2772.712577843855797 13629.01181381125934 
	1027.288927558308842 2717.564291657708964 13685.55459797004914 
	1029.561635550186566 2672.167093426066913 13750.20729727116122 
	1031.28756159062641 2637.691830052606747 13821.30244288989525 
	1032.422192025922868 2615.027658951418289 13897.00640776675573 
	1032.936263408502327 2604.759115635011312 13975.36669799651645 
	1032.816517235275569 2607.151037862866815 14054.36230993247591 
	1032.066041900729033 2622.141735150832574 14131.95585423698321 
	1030.704193040850669 2649.344579895643619 14206.14610253897081 
	1028.766094338835046 2688.057978749362519 14275.01960145446901 
	1026.301731606029307 2737.283468295521743 14336.80002280010922 
	1023.374663731697751 2795.751463745511501 14389.89397713957987 
	1020.060382893423821 2861.954013632235728 14432.93210930314672 
	1016.444369508758086 2934.183652027623793 14464.80441513825281 
	1012.619880193314884 3010.577583939817941 14484.68887176757926 
	1009.997006856105827 3062.969312772155718 14489.61137808246167 
	1008.684167795208623 3089.193189885590527 14489.95744523040594 
	0 
	
	0 
	0 
	38 0.02564102564102564014 0.05128205128205128027 0.07692307692307692735 0.1025641025641025605 0.1282051282051281937 0.1538461538461538269 0.1794871794871794601 0.2051282051282050933 0.2307692307692307265 0.2564102564102563875 0.2820512820512820484 0.3076923076923077094 0.3333333333333333703 0.3589743589743590313 0.3846153846153846922 0.4102564102564103532 0.4358974358974360142 0.4615384615384616751 0.4871794871794873361 0.512820512820512997 0.538461538461538658 0.5641025641025643189 0.5897435897435899799 0.6153846153846156408 0.6410256410256413018 0.6666666666666669627 0.6923076923076926237 0.7179487179487182846 0.7435897435897439456 0.7692307692307696065 0.7948717948717952675 0.8205128205128209284 0.8461538461538465894 0.8717948717948722503 0.8974358974358979113 0.9230769230769235723 0.9487179487179492332 0.9743589743589748942 
	0 
	0 
	0 
	F 1 F 0 F 1 F 0 } I I I I #
tcoedge-coedge $-1 -1 $-1 $7 $8 $-1 $9 forward $4 $10 0 6.250766387756696574 #
coedge $-1 -1 $-1 $11 $6 $-1 $12 forward $4 $13 #
coedge $-1 -1 $-1 $6 $11 $-1 $14 forward $4 $15 #
tedge-edge $-1 -1 $-1 $16 0 $17 6.250766387756696574 $6 $18 forward @7 unknown 0.0008503927492591831791 #
pcurve $-1 -1 $-1 0 forward { exppc nubs 1 open 2 
	0 1 6.250766387756696574 1 
	0 0 
	0.9999999999999987788 0 
	6.688742289565718214e-08 
	spline forward { ref 0 } I I I I 
	} 0 0 #
tcoedge-coedge $-1 -1 $-1 $8 $7 $-1 $19 forward $4 $20 1.106178539021683525e-15 6.270005910518959169 #
edge $-1 -1 $-1 $17 -1.597735222573988256 $21 -1.482133598361135673 $7 $22 forward @7 unknown #
pcurve $-1 -1 $-1 0 forward { exppc nubs 3 open 2 
	-1.597735222573988256 3 -1.482133598361135673 3 
	0.999999999999999889 0 
	0.999999997512100669 0.033308158195912832 
	1.000000000000000444 0.0666739075496247946 
	0.9999999999999996669 0.1000417136115408501 
	1.931713784235590454e-06 
	spline forward { ref 0 } I I I I 
	} 0 0 #
edge $-1 -1 $-1 $23 -0.1000208620216530564 $16 -3.67038606901201904e-26 $8 $24 forward @7 unknown #
pcurve $-1 -1 $-1 0 forward { exppc nubs 1 open 2 
	-0.1000208620216530286 1 -3.67038606901201904e-26 1 
	1.782129846026281027e-16 0.1000417136115408223 
	0 2.091485737769588451e-17 
	0.0009308921391565784086 
	spline forward { ref 0 } I I I I 
	} 0 0 #
tvertex-vertex $-1 -1 $-1 $9 $25 1.181898940354585587e-11 #
tvertex-vertex $-1 -1 $-1 $9 $26 1.483403064787792057e-11 #
ellipse-curve $-1 -1 $-1 658.3608650434795209 3095.642797989793507 13999.99999999999636 -0.9987492177719088371 0.0500000000000015779 -1.89127771566103465e-12 -9.392518762751934364e-10 -2.27943530717311665e-10 489.9999999999990337 1 F 0 F 6.250766387756696574 #
tedge-edge $-1 -1 $-1 $21 1.106178539021683525e-15 $23 6.270005910518959169 $11 $27 forward @7 unknown 0.0008609630440511083184 #
pcurve $-1 -1 $-1 0 forward { exppc nubs 1 open 2 
	0 1 6.270005910518959169 1 
	0.999999999999999889 0.1000417136115408501 
	1.163317174175060003e-15 0.1000417136115408501 
	7.510728257142055207e-08 
	spline forward { ref 0 } I I I I 
	} 0 0 #
tvertex-vertex $-1 -1 $-1 $12 $28 1.562950772434303241e-11 #
ellipse-curve $-1 -1 $-1 739.2346797401311278 5710.568443360675701 14489.87869744707314 -0.0006112077300546509603 -3.278502056162976971e-05 0.9999998126751089567 3040.448489163934937 0.2639977980050244311 1.858354622699295078 0.8655747825706221477 F -1.597735222573988256 F -1.482133598361135673 #
tvertex-vertex $-1 -1 $-1 $19 $29 1.273085155401174974e-11 #
ellipse-curve $-1 -1 $-1 833.360865063443498 6591.99501827406857 14490.0000000034579 1.237562433333149423e-14 9.896371332787430207e-13 -1 -175.0000000209032862 -3496.352220284502891 -3.463009079496259884e-09 1 F -0.1000208620216530564 F -3.67038606901201904e-26 #
point $-1 -1 $-1 658.3608650425402402 3095.642797989565679 14489.99999999999636 #
point $-1 -1 $-1 657.5667406360546465 3079.78017539373468 14489.74253089842568 #
ellipse-curve $-1 -1 $-1 1008.360865087463253 3095.642797989937662 14000.00000000000182 0.998749217771913278 0.04999999999991424499 6.038991939163559779e-12 0.3228858676935115191 -6.449640214957290674 489.9574449743703326 1 F 1.106178539021683525e-15 F 6.270005910518959169 #
point $-1 -1 $-1 1008.683750955156825 3089.193157774979682 14489.95744497436863 #
point $-1 -1 $-1 1008.360865084518537 3095.642797989577048 14490 #
End-of-ACIS-data 