700 0 1 0           
4 LibG 19 ASM 222.0.0.1700 NT 24 Wed Oct  5 17:29:48 2016 
1000 9.999999999999999547e-07 1.000000000000000036e-10 
body $-1 -1 $-1 $1 $-1 $-1 #
lump $-1 -1 $-1 $-1 $2 $0 #
shell $-1 -1 $-1 $-1 $-1 $3 $-1 $1 #
face $-1 -1 $-1 $-1 $4 $2 $-1 $5 forward double out #
loop $-1 -1 $-1 $-1 $6 $3 #
spline-surface $-1 -1 $-1 forward { exactsur full nubs 3 3 open open none none 40 2 
	-1.191870091550149571e-07 3 0.02564102564102564014 1 0.05128205128205128027 1 0.07692307692307692735 1 0.1025641025641025605 1 
	0.1282051282051281937 1 0.1538461538461538269 1 0.1794871794871794601 1 0.2051282051282050933 1 0.2307692307692307265 1 
	0.2564102564102563875 1 0.2820512820512820484 1 0.3076923076923077094 1 0.3333333333333333703 1 0.3589743589743590313 1 
	0.3846153846153846922 1 0.4102564102564103532 1 0.4358974358974360142 1 0.4615384615384616751 1 0.4871794871794873361 1 
	0.512820512820512997 1 0.538461538461538658 1 0.5641025641025643189 1 0.5897435897435899799 1 0.6153846153846156408 1 
	0.6410256410256413018 1 0.6666666666666669627 1 0.6923076923076926237 1 0.7179487179487182846 1 0.7435897435897439456 1 
	0.7692307692307696065 1 0.7948717948717952675 1 0.8205128205128209284 1 0.8461538461538465894 1 0.8717948717948722503 1 
	0.8974358974358979113 1 0.9230769230769235723 1 0.9487179487179492332 1 0.9743589743589748942 1 1.000000000000000444 3 
	-1.191870091550149571e-07 3 0.1000418327985500011 3 
	2058.360430324923982 3095.642454248946706 14489.99999999986176 
	2059.669360687356857 3121.788255358068454 14490.00001954493928 
	2062.287198809878646 3174.079406095858303 14485.79526494591119 
	2066.113309515707442 3250.505725178332341 14467.03547138568501 
	2069.740677977671567 3322.962180523823918 14436.30396646836198 
	2073.076332612370152 3389.591670640754728 14394.3884762810012 
	2076.034767796994856 3448.686226127767441 14342.36344034477952 
	2078.540148893239802 3498.731054886386573 14281.56244093323221 
	2080.52825419905912 3538.443332484780967 14213.54401872911876 
	2081.948121697218085 3566.805095855595482 14140.05172201634014 
	2082.763355248471271 3583.089334421926651 14062.96941348473956 
	2082.9530575885301 3586.878626652794992 13984.27298028966106 
	2082.512365987419798 3578.075839824919512 13905.97968520493487 
	2081.452576900836902 3556.906619925498944 13830.09645717517014 
	2079.800856402043337 3523.913607547799984 13758.56844675991488 
	2077.599543821295356 3479.942528132878579 13693.22916517235535 
	2074.905066441792314 3426.120513089587348 13635.75348502194174 
	2071.786493072516805 3363.827207504073158 13587.61470751518391 
	2068.323763574906934 3294.659405046762004 13550.04679663120987 
	2064.605639726688423 3220.390116607420623 13524.01274834137257 
	2060.727429949381531 3142.923121871124295 13510.17990567944435 
	2056.788546222613149 3064.244168836050449 13508.90285242307436 
	2052.889955809946059 2986.370072198847083 13520.21432388059839 
	2049.131593117436296 2911.297015392693083 13543.8243677714454 
	2045.609798027881652 2840.949381476240433 13579.1277767096708 
	2042.414846375175557 2777.130424515413324 13625.2196017701699 
	2039.628635861316297 2721.476045921791865 13680.91834947112875 
	2037.322586733974958 2675.412860620479023 13744.79626755347272 
	2035.555811037640751 2640.121627957088549 13815.21594322759665 
	2034.373597366704416 2616.506984737011862 13890.37227574739882 
	2033.806249961531876 2605.174256242680258 13968.33874740869214 
	2033.868311905767769 2606.413939649057284 14047.11680688587876 
	2034.558192335898184 2620.194257558173831 14124.68709903985655 
	2035.858207223297768 2646.161972617999709 14199.06122800206867 
	2037.735032667213318 2683.651442021013281 14268.33272665670847 
	2040.140559139575089 2731.701680990278419 14330.72592603548037 
	2043.013124559047583 2789.080993355534247 14384.64147178647545 
	2046.27909542733164 2854.318554650680653 14428.69732151762764 
	2049.854752359110535 2925.742075454988026 14461.76417007463897 
	2053.648443386346116 3001.520813510343487 14482.994402278091 
	2056.258085212309197 3053.648243743386956 14488.89400249713253 
	2057.566321719189091 3079.780185131761755 14489.74253064238837 
	2174.930066621165679 3089.806658827820684 14489.99999999985994 
	2175.368447599507817 3116.022934440421068 14490.00001958519169 
	2176.245201917575741 3168.455031595090077 14485.78660507655513 
	2177.526418340871714 3245.083216651977637 14466.98850834713994 
	2178.740669452903603 3317.722778210343677 14436.19536112082278 
	2179.856642136172923 3384.508103478079647 14394.19809470101609 
	2180.845554028950119 3443.723718778183411 14342.07546106527843 
	2181.681900305312411 3493.848618944914961 14281.166294421364 
	2182.344110805549917 3533.595296891955968 14213.03512130875788 
	2182.815106527675653 3561.94282524866594 14139.43197348129434 
	2183.082740062867288 3578.163077162567333 14062.24743584338285 
	2183.140108900910036 3581.839429674995699 13983.46408410768163 
	2182.985733448770588 3572.877464717902058 13905.1055595768521 
	2182.623595191531422 3551.507394083219424 13829.18458914560506 
	2182.06303400596471 3518.278145758879418 13757.65128571168134 
	2181.318507276620494 3474.043263629427656 13692.34305698023491 
	2180.409217026659917 3419.938982715016209 13634.93740933004119 
	2179.35861468011899 3357.355043135473807 13586.90885904409333 
	2178.193796228303654 3287.898992494624963 13549.4910577005794 
	2176.94480339943766 3213.354893641323542 13523.64510458447694 
	2175.643848855097986 3135.637498468216108 13510.03486005416744 
	2174.324485396325144 3056.743064869582213 13509.00989396525438 
	2173.020740606286836 2978.698080203117115 13520.59650713307747 
	2171.766239247931935 2903.507208372757304 13544.49705644543792 
	2170.593336050744711 2833.101797589472881 13580.09760094345984 
	2169.532281252816574 2769.29027146215185 13626.48367245052941 
	2168.610440419721726 2713.711677691353088 13682.46376563744161 
	2167.851588661691494 2667.793587527753971 13746.59994412603555 
	2167.275297451968981 2632.715427397762596 13817.24477644836224 
	2166.896429860761145 2609.378184562802289 13892.58365308718203 
	2166.724757223224515 2598.38126494711787 13970.68139760463055 
	2166.764707128001646 2600.007097560007423 14049.53197456807357 
	2167.015249225560638 2614.213880923741726 14127.11001743889938 
	2167.469921802886802 2640.636657887631372 14201.42285284769787 
	2168.116998433670233 2678.596690867985217 14270.56168492262623 
	2168.939790426383752 2727.118897884324724 14332.75062495702332 
	2169.917077193417754 2784.956896961938583 14386.39230690417935 
	2171.023653726912926 2850.62503248809162 14430.10891744613582 
	2172.230979996781571 2922.436497722691456 14462.77758509583873 
	2173.507919495483748 2998.546809815776669 14483.55922544125133 
	2174.383661867730098 3050.849364136174245 14489.13312769224103 
	2174.82200241740702 3077.055576944258519 14489.81416883839483 
	2291.791663823072213 3089.806658451876046 14489.99999999986176 
	2291.35462354655192 3116.049893602280008 14490.00001962544775 
	2290.480550540351942 3168.535907987013161 14485.77794520721363 
	2289.203046345623079 3245.238740489424799 14466.94154530859669 
	2287.99190110227164 3317.94075648966782 14436.0867557732854 
	2286.878157492880746 3384.770905147948724 14394.00771312103643 
	2285.890365331258181 3444.009036591340191 14341.78748178578644 
	2285.053845310626457 3494.130443016808385 14280.77014790950307 
	2284.390040591857996 3533.845063578589361 14212.52622388840609 
	2283.915966960386868 3562.130699714448383 14138.81222494625035 
	2283.64377669491887 3578.259322497938228 14061.52545820202067 
	2283.58044704658505 3581.815811900145491 13982.65518792570765 
	2283.72760138933927 3572.708641075412743 13904.23143394877479 
	2284.081467605941725 3551.172231894478955 13828.27272111604725 
	2284.632974781726716 3517.760920776742751 13756.73412466345326 
	2285.367985726000825 3473.334690233495621 13691.45694878811446 
	2286.2676593611518 3419.037033367711047 13634.12133363814246 
	2287.308933689895184 3356.265521097519922 13586.20301057300276 
	2288.465116960505839 3286.635829688714239 13548.93531876995257 
	2289.706571876161433 3211.940154509778949 13523.27746082758131 
	2291.001475309664329 3134.101080415649903 13509.88981442889417 
	2292.316634049107961 3055.122096107995731 13509.11693550743439 
	2293.618335663944436 2977.036026199332355 13520.978690385562 
	2294.873212680544839 2901.852708302747033 13545.16974511943044 
	2296.049097915228231 2831.507261898675097 13581.06742517724524 
	2297.115849039319528 2767.810280495593361 13627.74774313089802 
	2298.046121239640343 2712.401229093961774 13684.00918180374902 
	2298.816068168172478 2666.706246457678844 13748.40362069860021 
	2299.405953212988607 2631.901438317437623 13819.27360966912966 
	2299.800655421259307 2608.882606295368987 13894.7950304269707 
	2299.990057105705546 2598.242191684760655 13973.02404780057623 
	2299.96930319851981 2600.254027519103147 14051.94714225027928 
	2299.738925705043584 2614.866291353296219 14129.53293583794402 
	2299.30483006543318 2641.702840209287842 14203.7844776933398 
	2298.678143779385209 2680.072892971996225 14272.79064318855308 
	2297.87493115409643 2728.988812212083303 14334.77532387856809 
	2296.915781562694519 2787.191523161936857 14388.14314202188143 
	2295.825281486906988 2853.182932559851452 14431.52051337464218 
	2294.631384925403836 2925.26444943758861 14463.79100011704941 
	2293.364694395558217 3001.580853189911068 14484.12404860442075 
	2292.493355168892322 3053.971948278813215 14489.37225288735499 
	2292.056546244364654 3080.208959811412569 14489.88580703440857 
	2408.361300194191244 3095.642453126738474 14489.99999999986539 
	2407.048341004882332 3121.868729797564356 14490.00001966570562 
	2404.422445504411826 3174.320826149717504 14485.7692853378685 
	2400.585179502198571 3250.969971571143105 14466.89458227005525 
	2396.94847786339551 3323.612856533031845 14435.97815042574621 
	2393.606124831948819 3390.376146700908976 14393.81733154105677 
	2390.644324840264289 3449.537913995917734 14341.49950250629627 
	2388.139465847879364 3499.572313763036618 14280.37400139764213 
	2386.156151190042692 3539.188898471427365 14212.01732646805613 
	2384.745532850547534 3567.36591048357468 14138.19247641120819 
	2383.943992334604445 3583.376631536659261 14060.80348056066941 
	2383.772202309038221 3586.808126419773544 13981.84629174373185 
	2384.234593440241497 3577.571892852331075 13903.35730832069748 
	2385.319240119347342 3555.906144116245741 13827.36085308648762 
	2386.998168038394851 3522.369665241789335 13755.816963615227 
	2389.228075680282018 3477.827401291221577 13690.57084059599583 
	2391.951451115658074 3423.428149411733102 13633.30525794624918 
	2395.098055302908051 3360.574930012025106 13585.49716210191764 
	2398.586733635306246 3290.888801222933125 13548.3795798393312 
	2402.327509013332019 3216.167049909950947 13522.90981707069295 
	2406.223902459457804 3138.336837540318811 13509.74476880361908 
	2410.175421423939952 3059.405496432023938 13509.22397704962168 
	2414.080151605363426 2981.408758302683509 13521.36087363804472 
	2417.837385439815534 2906.358250364687592 13545.84243379343025 
	2421.350219466899944 2836.189613103691499 13582.03724941103792 
	2424.528053583439487 2772.712577843851705 13629.01181381126662 
	2427.288927726246584 2717.564291657705326 13685.55459797006006 
	2429.561635718123853 2672.167093426061911 13750.20729727117032 
	2431.287561758563697 2637.691830052602654 13821.3024428899007 
	2432.422192193861065 2615.027658951414196 13897.006407766763 
	2432.936263576439615 2604.75911563500631 13975.36669799652555 
	2432.816517403213311 2607.151037862864086 14054.362309932485 
	2432.066042068666775 2622.141735150828481 14131.95585423699231 
	2430.704193208788638 2649.344579895639981 14206.14610253897808 
	2428.766094506772333 2688.057978749359336 14275.01960145447629 
	2426.301731773966821 2737.28346829551765 14336.80002280011831 
	2423.374663899635379 2795.751463745507408 14389.89397713958533 
	2420.060383061361335 2861.954013632231636 14432.93210930315399 
	2416.444369676695715 2934.183652027619701 14464.8044151382619 
	2412.619880361252854 3010.577583939812939 14484.68887176758835 
	2409.997007024043342 3062.96931277215208 14489.6113780824744 
	2408.684167963146137 3089.193189885586435 14489.95744523042231 
	0 
	
	0 
	0 
	38 0.02564102564102564014 0.05128205128205128027 0.07692307692307692735 0.1025641025641025605 0.1282051282051281937 0.1538461538461538269 0.1794871794871794601 0.2051282051282050933 0.2307692307692307265 0.2564102564102563875 0.2820512820512820484 0.3076923076923077094 0.3333333333333333703 0.3589743589743590313 0.3846153846153846922 0.4102564102564103532 0.4358974358974360142 0.4615384615384616751 0.4871794871794873361 0.512820512820512997 0.538461538461538658 0.5641025641025643189 0.5897435897435899799 0.6153846153846156408 0.6410256410256413018 0.6666666666666669627 0.6923076923076926237 0.7179487179487182846 0.7435897435897439456 0.7692307692307696065 0.7948717948717952675 0.8205128205128209284 0.8461538461538465894 0.8717948717948722503 0.8974358974358979113 0.9230769230769235723 0.9487179487179492332 0.9743589743589748942 
	0 
	0 
	0 
	F 1 F 0 F 1 F 0 } I I I I #
tcoedge-coedge $-1 -1 $-1 $7 $8 $-1 $9 forward $4 $10 0 6.250766387756696574 #
coedge $-1 -1 $-1 $11 $6 $-1 $12 forward $4 $13 #
coedge $-1 -1 $-1 $6 $11 $-1 $14 forward $4 $15 #
tedge-edge $-1 -1 $-1 $16 -7.814085595768073775e-29 $17 6.250766387756696574 $6 $18 forward @7 unknown 0.0008503927490967470339 #
pcurve $-1 -1 $-1 0 forward { exppc nubs 1 open 2 
	0 1 6.250766387756696574 1 
	0 0 
	0.9999999999999987788 0 
	6.64219210907997238e-08 
	spline forward { ref 0 } I I I I 
	} 0 0 #
tcoedge-coedge $-1 -1 $-1 $8 $7 $-1 $19 forward $4 $20 0 6.270005910518959169 #
edge $-1 -1 $-1 $17 -1.59773522255698297 $21 -1.482133598356236037 $7 $22 forward @7 unknown #
pcurve $-1 -1 $-1 0 forward { exppc nubs 3 open 2 
	-1.59773522255698297 3 -1.482133598356236037 3 
	0.999999999999999889 0 
	0.999999997512100447 0.03330815819591499694 
	1.000000000000000444 0.06667390754961141641 
	0.9999999999999995559 0.1000417136115408501 
	1.90130455758475155e-06 
	spline forward { ref 0 } I I I I 
	} 0 0 #
edge $-1 -1 $-1 $23 -0.1000208620216405525 $16 -7.406377289521898133e-17 $8 $24 forward @7 unknown #
pcurve $-1 -1 $-1 0 forward { exppc nubs 1 open 2 
	-0.100020862021640608 1 -3.670386069011726314e-26 1 
	1.056060617940476593e-15 0.1000417136115408501 
	0 0 
	0.0009308921386043212754 
	spline forward { ref 0 } I I I I 
	} 0 0 #
tvertex-vertex $-1 -1 $-1 $9 $25 1.181898940354585587e-11 #
tvertex-vertex $-1 -1 $-1 $9 $26 1.447874199462426195e-11 #
ellipse-curve $-1 -1 $-1 2058.360865211672262 3095.642797989775772 13999.99999999999818 -0.998749217771908504 0.05000000000001005723 -2.414564615647700515e-12 -1.195485310745425564e-09 -2.154905587303801595e-10 489.9999999999990337 1 F -7.814085595768073775e-29 F 6.250766387756696574 #
tedge-edge $-1 -1 $-1 $21 0 $23 6.270005910518959169 $11 $27 forward @7 unknown 0.0008609630373928983107 #
pcurve $-1 -1 $-1 0 forward { exppc nubs 1 open 2 
	0 1 6.270005910518959169 1 
	0.999999999999999889 0.1000417136115408223 
	1.111528176122320369e-15 0.1000417136115408501 
	7.796682973660323801e-08 
	spline forward { ref 0 } I I I I 
	} 0 0 #
tvertex-vertex $-1 -1 $-1 $12 $28 1.924155821526327321e-11 #
ellipse-curve $-1 -1 $-1 2139.234679897216211 5710.568443912005023 14489.87869744708587 -0.0006112077300546513939 -3.278502056164622926e-05 0.9999998126751089567 3040.448489482003879 0.2639977606866386051 1.858354622892479213 0.8655747826614067497 F -1.59773522255698297 F -1.482133598356236037 #
tvertex-vertex $-1 -1 $-1 $19 $29 1.227373675443231999e-11 #
ellipse-curve $-1 -1 $-1 2233.360865231352363 6591.99501827450149 14490.00000000346154 1.237562433333148792e-14 9.896371332788676228e-13 -1 -175.0000000208760582 -3496.352220284941268 -3.463009079496259884e-09 1 F -0.1000208620216405525 F -7.406377289521898133e-17 #
point $-1 -1 $-1 2058.360865210476732 3095.642797989560222 14489.99999999999818 #
point $-1 -1 $-1 2057.566740803991252 3079.780175393729223 14489.74253089842932 #
ellipse-curve $-1 -1 $-1 2408.360865256955549 3095.642797990009967 14000.00000000000364 0.9987492177719143882 0.04999999999989332422 9.21820086218337858e-12 0.3228858661375668127 -6.449640215035256752 489.9574449743703326 1 F 0 F 6.270005910518959169 #
point $-1 -1 $-1 2408.683751123092861 3089.193157774975134 14489.95744497437045 #
point $-1 -1 $-1 2408.360865252454914 3095.642797989571591 14490.00000000000182 #
End-of-ACIS-data 