700 0 1 0           
4 LibG 19 ASM 222.0.0.1700 NT 24 Wed Oct  5 17:29:48 2016 
1000 9.999999999999999547e-07 1.000000000000000036e-10 
body $-1 -1 $-1 $1 $-1 $-1 #
lump $-1 -1 $-1 $-1 $2 $0 #
shell $-1 -1 $-1 $-1 $-1 $3 $-1 $1 #
face $-1 -1 $-1 $-1 $4 $2 $-1 $5 forward double out #
loop $-1 -1 $-1 $-1 $6 $3 #
spline-surface $-1 -1 $-1 forward { exactsur full nubs 3 3 open open none none 40 2 
	-1.191870090101278142e-07 3 0.02564102564102564014 1 0.05128205128205128027 1 0.07692307692307692735 1 0.1025641025641025605 1 
	0.1282051282051281937 1 0.1538461538461538269 1 0.1794871794871794601 1 0.2051282051282050933 1 0.2307692307692307265 1 
	0.2564102564102563875 1 0.2820512820512820484 1 0.3076923076923077094 1 0.3333333333333333703 1 0.3589743589743590313 1 
	0.3846153846153846922 1 0.4102564102564103532 1 0.4358974358974360142 1 0.4615384615384616751 1 0.4871794871794873361 1 
	0.512820512820512997 1 0.538461538461538658 1 0.5641025641025643189 1 0.5897435897435899799 1 0.6153846153846156408 1 
	0.6410256410256413018 1 0.6666666666666669627 1 0.6923076923076926237 1 0.7179487179487182846 1 0.7435897435897439456 1 
	0.7692307692307696065 1 0.7948717948717952675 1 0.8205128205128209284 1 0.8461538461538465894 1 0.8717948717948722503 1 
	0.8974358974358979113 1 0.9230769230769235723 1 0.9487179487179492332 1 0.9743589743589748942 1 1.000000000000000444 3 
	-1.191870084667909995e-07 3 0.1000418327985498623 3 
	6606.610507865349064 3060.686998680796478 13510.00000000013461 
	6602.696818484309915 3034.80265496185848 13509.99998045506254 
	6594.869507303024875 2983.034414489639403 13514.20473505409791 
	6583.429472546512443 2907.372356783025225 13532.96452861431135 
	6572.583675215993026 2835.640464270298253 13563.6960335316453 
	6562.610099464895939 2769.67726747222423 13605.61152371900062 
	6553.764406295213121 2711.173656136711543 13657.63655965522412 
	6546.273340556917901 2661.629274477216768 13718.43755906677325 
	6540.328924530606855 2622.314118711722131 13786.45598127088488 
	6536.083534164913544 2594.235972301084075 13859.94827798366532 
	6533.645993571320105 2578.114575733699439 13937.03058651526408 
	6533.078785372049424 2574.363176335152275 14015.72701971034257 
	6534.396449083634252 2583.077935503796652 14094.02031479506695 
	6537.565208410591367 2604.035463706949486 14169.90354282483531 
	6542.503837051277515 2636.698546744386476 14241.43155324008694 
	6549.085740809393428 2680.229916409379257 14306.77083482764647 
	6557.142202642866323 2733.513712580398987 14364.24651497806008 
	6566.466707467276137 2795.184086589393246 14412.38529248482155 
	6576.820235854392195 2863.660212664723531 14449.95320336879195 
	6587.937390929866524 2937.186809983413241 14475.98725165863107 
	6599.533201416425072 3013.879136612024467 14489.82009432055929 
	6611.310426436988564 3091.771301985211267 14491.097147576922 
	6622.967174830171643 3168.86665950538827 14479.78567611940889 
	6634.204643668794233 3243.188987526310484 14456.17563222855642 
	6644.734777616164138 3312.833146774208217 14420.87222329033284 
	6654.287652784316379 3376.013915680995069 14374.78039822983737 
	6662.618395820312799 3431.111751810356054 14319.08165052887307 
	6669.51346086032936 3476.714306352558197 14255.20373244653092 
	6674.796103451474664 3511.652627527410459 14184.78405677240698 
	6678.330911125631246 3535.03112487608314 14109.62772425260482 
	6680.027274491261778 3546.250526354601334 14031.6612525913115 
	6679.841709866059318 3545.023239752846166 13952.88319311412306 
	6677.778973916864743 3531.380724695568006 13875.31290096014891 
	6673.891941721703006 3505.672686169658391 13800.93877199793678 
	6668.280251428062002 3468.558110570381359 13731.66727334329516 
	6661.087750069024878 3420.988372849713869 13669.27407396452145 
	6652.498806683500334 3364.182852245471622 13615.35852821352273 
	6642.7335847336999 3299.597665014020549 13571.30267848237418 
	6632.042404388458635 3228.888377721595589 13538.23582992536467 
	6620.699304163752458 3153.867425247206484 13517.00559772191264 
	6612.89649983151412 3102.261268078577359 13511.10599750287111 
	6608.984885072002726 3076.390645483507342 13510.2574693576189 
	6722.014450643751843 3043.238027202971807 13510.00000000013642 
	6717.233572454144451 3017.457637589660408 13509.99998041480649 
	6707.671898835707907 2965.897304893045202 13514.21339492344487 
	6693.697619354275957 2890.543208961832079 13533.01149165286188 
	6680.450453804764948 2819.111472919239532 13563.80463887917904 
	6668.270506350413598 2753.436714098545508 13605.80190529898391 
	6657.470521108220964 2695.205903002785817 13657.92453893472339 
	6648.327803514712286 2645.914769856710791 13718.83370557863782 
	6641.077107177253311 2606.82942307310941 13786.96487869124212 
	6635.904604252089484 2578.953816991914664 13860.56802651870748 
	6632.94310567994853 2563.003966645696892 13937.75256415661897 
	6632.268650924660506 2559.389555246550572 14016.53591589231655 
	6633.89855560541946 2568.203411292799956 14094.89444042314972 
	6637.790966931107505 2589.21912439325024 14170.81541085439676 
	6643.845938409637711 2621.896861362593881 14242.34871428831866 
	6651.907996219625602 2665.397233095781303 14307.65694301976873 
	6661.770131350182965 2718.602856038199661 14365.06259066995881 
	6673.179114999787089 2780.147054389216919 14413.0911409559103 
	6685.842000749255021 2848.448965761783256 14450.50894229941878 
	6699.433646550756748 2921.754148534515934 14476.35489541552306 
	6713.605063389222778 2998.179647813289648 14489.96513994583438 
	6727.992376246250387 3075.762362392889827 14490.99010603474562 
	6742.226167274714498 3152.509470319012962 14479.40349286692799 
	6755.94096127886769 3226.449617774178932 14455.5029435545639 
	6768.784609940861628 3295.68355640632717 14419.90239905654198 
	6780.427333835247737 3358.432928389648623 14373.51632754946877 
	6790.570190060408095 3413.085946089101071 14317.53623436256021 
	6798.952748064815751 3458.238792971284056 14253.40005587396627 
	6805.35977657787771 3492.731682315272337 14182.75522355164139 
	6809.626769947361026 3515.678647504034871 14107.41634691281979 
	6811.644171986892616 3526.49029869796459 14029.31860239537127 
	6811.360188880049463 3524.888961358408778 13950.46802543192825 
	6808.782118922214977 3510.915807806714838 13872.88998256110426 
	6803.976164944642733 3484.929798570944513 13798.57714715230395 
	6797.065734300740587 3447.598461060061709 13729.43831507737741 
	6788.228269849073513 3399.880741264735207 13667.2493750429785 
	6777.690694134189471 3343.002373454290591 13613.60769309582247 
	6765.723580666973248 3278.424383934886464 13569.891082553866 
	6752.634213476463628 3207.805600014358333 13537.22241490416309 
	6738.758670213365804 3132.959895524762487 13516.44077455875049 
	6729.221751617507834 3081.526722408216301 13510.86687230775715 
	6724.442833799192158 3055.756202881713307 13510.18583116160698 
	6836.544659056197816 3020.01165724161001 13510.00000000013642 
	6830.900466028121627 2994.378836865684207 13509.99998037454861 
	6819.612177982063258 2943.113641434441888 13514.22205479278637 
	6803.115388097442519 2868.194935797173002 13533.05845469140331 
	6787.478799961168988 2797.184041458654065 13563.9132442267146 
	6773.104710356273245 2731.908512027282541 13605.99228687896357 
	6760.362981197444242 2674.048506079284834 13658.21251821420992 
	6749.581465374474647 2625.093280981541739 13719.22985209049875 
	6741.037579262022518 2586.302899014249306 13787.47377611159573 
	6734.951162263494552 2558.675783972350473 13861.18777505375147 
	6731.478820765461023 2542.923025326521838 13938.47454179797933 
	6730.70989838292553 2539.450074724798469 14017.34481207429417 
	6732.66417716426804 2548.346310404921496 14095.76856605122703 
	6737.2913686426391 2569.382736924893379 14171.72727888395457 
	6744.472407898140773 2602.017879731110497 14243.26587533654674 
	6754.022517311796037 2645.411722745496263 14308.54305121188736 
	6765.695961179914775 2698.44733023727531 14365.87866636185572 
	6779.192368842666838 2759.759596425334621 14413.79698942699724 
	6794.164463622848416 2827.770382800246352 14451.06468123004561 
	6810.226998696962255 2900.729138736304776 14476.72253917241687 
	6826.9666699653244 2976.757959827786181 14490.11018557110765 
	6843.952750848657161 3053.899924159815328 14490.88306449256561 
	6860.748175363070004 3130.169462353348536 14479.02130961444345 
	6876.920784290994561 3203.60346487759216 14454.83025488056956 
	6892.054445069651592 3272.311811148695142 14418.93257482275476 
	6905.759759268617927 3334.526019819484645 14372.25225686910198 
	6917.684082140773171 3388.644768027812006 14315.9908181962528 
	6927.520596432734237 3433.275107965872849 14251.59637930139797 
	6935.0162069769558 3467.268319885525216 14180.72639033087216 
	6939.978052930908234 3489.749478712924429 14105.20496957303112 
	6942.278470099802689 3500.139973259997987 14026.97595219942377 
	6941.858275659365063 3498.172398412315033 13948.05285774972072 
	6938.728290769101477 3483.897437020552388 13870.46706416205598 
	6932.969061884153234 3457.682554297658498 13796.21552230666202 
	6924.728788013172561 3420.202538672723222 13727.20935681144874 
	6914.219507000307203 3372.422131409736721 13665.22467612143373 
	6901.711639948614902 3315.571196574257101 13611.85685797812039 
	6887.527030514685976 3251.113053877269067 13568.47948662535782 
	6872.030671828691993 3180.706851509365151 13536.20899988294877 
	6855.62128301330813 3106.164716140892779 13515.87595139558107 
	6844.354539521801598 3054.992003023853158 13510.62774711264501 
	6838.711810181091096 3029.365236123094746 13510.11419296559325 
	6949.628860603758767 2991.123943875331861 13510.00000000013461 
	6943.129593761575961 2965.681833499782897 13509.9999803342871 
	6930.131173326099997 2914.798056074188935 13514.23071466213332 
	6911.136359248155713 2840.440721921119348 13533.10541772994657 
	6893.134356925101201 2769.969860944709126 13564.02184957425197 
	6876.589406854252957 2705.202794738341254 13606.18266845894505 
	6861.928228779630444 2647.80996569042145 13658.50049749370555 
	6849.528950015955161 2599.271595664552024 13719.62599860235787 
	6839.711362920868851 2560.839547779752138 13787.98267353194569 
	6832.728674444699209 2533.50502909591296 13861.80752358879181 
	6828.760976331627717 2517.973028982537471 13939.19651943933604 
	6827.910600153842097 2514.644135877917506 14018.15370825626633 
	6830.199478111057033 2523.604205842354986 14096.64269167930433 
	6835.56857735983067 2544.622148176711107 14172.6391469135142 
	6843.879422543391229 2577.155885536399182 14244.18303638477482 
	6854.917667232227359 2620.366334737058878 14309.42915940400417 
	6868.398622169808732 2673.139047693481189 14366.69474205375263 
	6883.97459774179606 2734.11295434050453 14414.50283789807872 
	6901.24387129837578 2801.71546622390224 14451.6204201606688 
	6919.761048051815123 2874.203035398139036 14477.09018292930705 
	6939.048548329605183 2949.706122569612944 14490.25523119638274 
	6958.608924913476585 3026.277414704316925 14490.77602295038014 
	6977.937692785674699 3101.942048511325993 14478.6391263619571 
	6996.536340388323879 3174.748544479685734 14454.15756620657157 
	7013.925186820300951 3242.819137820218657 14417.96275058896208 
	7029.65575336935035 3304.398208218340187 14370.98818618873156 
	7043.322330303297349 3357.897559337866369 14314.44540202994176 
	7054.572440599090442 3401.937380264294006 14249.7927027288315 
	7063.115930738041243 3435.381832444169959 14178.69755711009748 
	7068.732454104747376 3457.368344291208814 14102.99359223323881 
	7071.27715398462351 3467.329857918600737 14024.63330200347627 
	7070.684399587197731 3465.009454222159547 13945.63769006751681 
	7066.969478744726075 3450.466979139102932 13868.04414576300769 
	7060.228203607498472 3424.077500098172095 13793.85389746102192 
	7050.634439586923691 3386.521632789542309 13724.98039854552189 
	7038.435620974081758 3338.767986549817124 13663.19997719988351 
	7023.946370024491443 3282.048185552276664 13610.10602286041285 
	7007.540379851078796 3217.825093479339557 13567.06789069684783 
	6989.640786258813932 3147.755122987276536 13535.1955848617381 
	6970.709217936988352 3073.645371453453208 13515.31112823241165 
	6957.725757483244706 3022.82015655739724 13510.38862191752742 
	6951.227085287569025 2997.38037399241648 13510.04255476957951 
	0 
	
	0 
	0 
	38 0.02564102564102564014 0.05128205128205128027 0.07692307692307692735 0.1025641025641025605 0.1282051282051281937 0.1538461538461538269 0.1794871794871794601 0.2051282051282050933 0.2307692307692307265 0.2564102564102563875 0.2820512820512820484 0.3076923076923077094 0.3333333333333333703 0.3589743589743590313 0.3846153846153846922 0.4102564102564103532 0.4358974358974360142 0.4615384615384616751 0.4871794871794873361 0.512820512820512997 0.538461538461538658 0.5641025641025643189 0.5897435897435899799 0.6153846153846156408 0.6410256410256413018 0.6666666666666669627 0.6923076923076926237 0.7179487179487182846 0.7435897435897439456 0.7692307692307696065 0.7948717948717952675 0.8205128205128209284 0.8461538461538465894 0.8717948717948722503 0.8974358974358979113 0.9230769230769235723 0.9487179487179492332 0.9743589743589748942 
	0 
	0 
	0 
	F 1 F 0 F 1 F 0 } I I I I #
tcoedge-coedge $-1 -1 $-1 $7 $8 $-1 $9 forward $4 $10 0 6.250766387756697462 #
coedge $-1 -1 $-1 $11 $6 $-1 $12 forward $4 $13 #
coedge $-1 -1 $-1 $6 $11 $-1 $14 forward $4 $15 #
tedge-edge $-1 -1 $-1 $16 -7.814085595768073775e-29 $17 6.250766387756697462 $6 $18 forward @7 unknown 0.0008503927470973230785 #
pcurve $-1 -1 $-1 0 forward { exppc nubs 1 open 2 
	0 1 6.250766387756697462 1 
	0 0 
	0.9999999999999990008 0 
	6.98210017653603536e-08 
	spline forward { ref 0 } I I I I 
	} 0 0 #
tcoedge-coedge $-1 -1 $-1 $8 $7 $-1 $19 forward $4 $20 1.068589947889878611e-15 6.270005910518961834 #
edge $-1 -1 $-1 $17 -1.597735222645108699 $21 -1.482133598408884589 $7 $22 forward @7 unknown #
pcurve $-1 -1 $-1 0 forward { exppc nubs 3 open 2 
	-1.597735222645108699 3 -1.482133598408884589 3 
	1.000000000000000222 0 
	0.9999999975121002249 0.03330815819589021121 
	1.000000000000000444 0.06667390754963214983 
	0.999999999999999889 0.1000417136115408501 
	1.989324743374546351e-06 
	spline forward { ref 0 } I I I I 
	} 0 0 #
edge $-1 -1 $-1 $23 -0.1000208620216210403 $16 6.194424638890345788e-16 $8 $24 forward @7 unknown #
pcurve $-1 -1 $-1 0 forward { exppc nubs 1 open 2 
	-0.1000208620216209432 1 -1.830985469790034231e-26 1 
	0 0.1000417136115408501 
	0 5.433368080906825315e-16 
	0.000930892138842760535 
	spline forward { ref 0 } I I I I 
	} 0 0 #
tvertex-vertex $-1 -1 $-1 $9 $25 1.555089882970319229e-11 #
tvertex-vertex $-1 -1 $-1 $9 $26 1.409272615797817647e-11 #
ellipse-curve $-1 -1 $-1 6606.61086575538684 3060.686575363659813 14000.00000000000364 -0.9887617255941829608 0.1495000000000456797 -1.409091446204900838e-12 7.233552423713262917e-10 1.689272721705492689e-10 -489.9999999999990337 1 F -7.814085595768073775e-29 F 6.250766387756697462 #
tedge-edge $-1 -1 $-1 $21 1.068589947889878611e-15 $23 6.270005910518961834 $11 $27 forward @7 unknown 0.0008609630350732762772 #
pcurve $-1 -1 $-1 0 forward { exppc nubs 1 open 2 
	0 1 6.270005910518961834 1 
	1 0.1000417136115407668 
	6.782168573568789164e-16 0.1000417136115408501 
	8.98488792505974343e-08 
	spline forward { ref 0 } I I I I 
	} 0 0 #
tvertex-vertex $-1 -1 $-1 $12 $28 1.924155821526327321e-11 #
ellipse-curve $-1 -1 $-1 6166.151914484512417 481.85493847543313 13510.1213025529305 -0.0005924980771255662464 0.000153609164616871918 -0.9999998126751089567 2979.739071316793343 -604.5511955844863223 -1.858354622329062122 0.8655747823960585619 F -1.597735222645108699 F -1.482133598408884589 #
tvertex-vertex $-1 -1 $-1 $19 $29 1.598126754901654932e-11 #
ellipse-curve $-1 -1 $-1 6083.215785808600231 -400.6948596401445002 13510.00000000173168 1.10474462245599814e-13 4.824872673557195616e-13 1 523.3950799475120448 3461.381435003973365 -1.728255938360234888e-09 1 F -0.1000208620216210403 F 6.194424638890345788e-16 #
point $-1 -1 $-1 6606.610865756110798 3060.686575363828524 13510.00000000000364 #
point $-1 -1 $-1 6608.985297731504033 3076.390571733700654 13510.2574691015725 #
ellipse-curve $-1 -1 $-1 6949.628365807853697 2991.123692334729185 13999.99999999999818 0.9688866161606264349 -0.2475049999996181693 -2.244812611550650685e-11 1.598317337641404379 6.256795975109049834 -489.9574449743703326 1 F 1.068589947889878611e-15 F 6.270005910518961834 #
point $-1 -1 $-1 6951.226683145496281 2997.380488309838711 13510.04255502563137 #
point $-1 -1 $-1 6949.628365797248989 2991.123692337658667 13510 #
End-of-ACIS-data 