700 0 1 0           
4 LibG 19 ASM 222.0.0.1700 NT 24 Wed Oct  5 17:29:49 2016 
1000 9.999999999999999547e-07 1.000000000000000036e-10 
body $-1 -1 $-1 $1 $-1 $-1 #
lump $-1 -1 $-1 $-1 $2 $0 #
shell $-1 -1 $-1 $-1 $-1 $3 $-1 $1 #
face $-1 -1 $-1 $-1 $4 $2 $-1 $5 forward double out #
loop $-1 -1 $-1 $-1 $6 $3 #
spline-surface $-1 -1 $-1 forward { exactsur full nubs 3 3 open open none none 63 2 
	0 3 0.01785714285714285615 1 0.0357142857142857123 1 0.05357142857142856845 1 0.07142857142857142461 1 
	0.08928571428571427382 1 0.1071428571428571369 1 0.125 1 0.1428571428571428492 1 0.1587301587301587213 1 
	0.1746031746031745935 1 0.1904761904761904656 1 0.2142857142857142738 1 0.226190476190476164 1 0.238095238095238082 1 
	0.2619047619047618625 1 0.2857142857142856984 1 0.3095238095238095344 1 0.3333333333333333148 1 0.3452380952380952328 1 
	0.3571428571428570953 1 0.3809523809523809312 1 0.3968253968253968034 1 0.4126984126984126755 1 0.4146825396825396526 1 
	0.4166666666666666297 1 0.4206349206349205838 1 0.4285714285714285476 1 0.4444444444444444198 1 0.4603174603174602919 1 
	0.476190476190476164 1 0.4999999999999999445 1 0.5238095238095237249 1 0.5476190476190475609 1 0.5714285714285713969 1 
	0.5952380952380951218 1 0.6190476190476189577 1 0.6269841269841269771 1 0.6349206349206348854 1 0.650793650793650702 1 
	0.6666666666666666297 1 0.674603174603174538 1 0.6904761904761904656 1 0.7142857142857141906 1 0.7321428571428569843 1 
	0.749999999999999889 1 0.7738095238095237249 1 0.7797619047619046562 1 0.7857142857142855874 1 0.8035714285714284921 1 
	0.8214285714285713969 1 0.8392857142857141906 1 0.8571428571428570953 1 0.8660714285714286031 1 0.875 1 
	0.8839285714285713969 1 0.8928571428571427937 1 0.9107142857142856984 1 0.9285714285714286031 1 0.9464285714285713969 1 
	0.9642857142857143016 1 0.9821428571428572063 1 1 3 
	0 3 1 3 
	1008.360865084529223 3095.642797989805331 14487.45509837622376 
	1008.360865084529223 3113.277221240987728 14487.45509837622376 
	1008.360865084529337 3148.546005753352347 14485.53937233005854 
	1008.360865084529678 3200.826714760006325 14476.95238216125654 
	1008.360865084529905 3251.869696512916107 14462.75304923596559 
	1008.360865084530019 3301.074334976877253 14443.10844384837583 
	1008.360865084530246 3347.861663455113558 14418.24975241056927 
	1008.360865084530587 3391.681037093869236 14388.46943412042856 
	1008.360865084531042 3432.017047775045739 14354.11804032975306 
	1008.360865084531383 3467.047241807089904 14317.02612227600548 
	1008.360865084532179 3496.895179044584438 14278.113663899112 
	1008.360865084532179 3521.81744182342436 14238.1714071334427 
	1008.360865084532975 3546.271134016689757 14188.9885561384981 
	1008.360865084533316 3563.343275826924128 14140.84890156953043 
	1008.360865084533771 3574.173061730480185 14095.05610466289363 
	1008.360865084534225 3581.667592217248057 14048.60088362910574 
	1008.360865084535021 3584.694861005049916 13989.74320345192973 
	1008.360865084535817 3578.104084239543681 13919.32837653152092 
	1008.360865084536499 3561.428770332266595 13850.59976976881626 
	1008.36086508453775 3539.4183221113135 13795.92863049100379 
	1008.360865084538773 3517.218630767834838 13754.43853575727371 
	1008.360865084539114 3492.080640664747534 13714.65978709043338 
	1008.360865084540933 3460.276647433975086 13674.69237026363771 
	1008.360865084541501 3421.152830015456402 13636.14027061199704 
	1008.360865084542183 3395.255896462027977 13615.12960365402614 
	1008.360865084542752 3379.392373752486037 13603.62828493882989 
	1008.360865084542638 3372.991996352214755 13599.10455718682897 
	1008.360865084542752 3361.649321542039615 13591.39154171851987 
	1008.360865084541842 3338.415933376893008 13576.7927503168703 
	1008.360865084540819 3303.774346885109935 13558.37505979986054 
	1008.360865084539569 3260.268681949458369 13540.38156001331299 
	1008.360865084539114 3207.72640528173406 13524.37407414476183 
	1008.360865084536954 3145.823493922968737 13513.42111158322587 
	1008.360865084535249 3075.133495046055941 13511.27079905700339 
	1008.360865084533543 3004.872316320765549 13519.33614907430456 
	1008.360865084532293 2936.508566812912704 13537.44921987329508 
	1008.360865084530928 2871.471088414590668 13565.23088690211807 
	1008.360865084529792 2824.53134189881257 13593.90775071722055 
	1008.360865084528996 2793.205254534565938 13617.47130130009464 
	1008.360865084528768 2769.081647607159084 13637.50752137885866 
	1008.360865084528768 2740.79233637562993 13664.69136787422212 
	1008.360865084527859 2715.252940594568372 13694.47365923870166 
	1008.360865084527745 2691.953786309186853 13725.99680337443351 
	1008.360865084527632 2666.779163615338348 13765.78071104865194 
	1008.360865084527404 2642.329463520275567 13817.23839699066775 
	1008.360865084527404 2623.984331326621032 13873.17501151373654 
	1008.360865084526836 2611.80212942801154 13930.76880019486089 
	1008.360865084526949 2607.949701269172238 13977.75941585480905 
	1008.360865084526608 2608.255678645002263 14013.03274712818711 
	1008.360865084526836 2609.572327841688093 14042.39874035561843 
	1008.360865084526836 2614.389797313669533 14083.32379852437407 
	1008.360865084527177 2626.246644906589154 14134.96120919706482 
	1008.360865084527177 2643.626814847119022 14185.01060518169652 
	1008.360865084527859 2662.542973361183158 14224.90407174548454 
	1008.360865084527632 2680.201334695709193 14255.44896333871475 
	1008.360865084527745 2694.667808218709069 14277.60579322444028 
	1008.360865084527745 2710.314960946873725 14298.94520743950488 
	1008.360865084527632 2732.689949970413636 14326.2246495853633 
	1008.3608650845282 2763.372583467406002 14357.97187128416954 
	1008.360865084528314 2804.101891752272877 14391.85602137495152 
	1008.360865084528768 2848.261668027304495 14421.12925907974386 
	1008.360865084528541 2895.332453564461048 14445.446978337568 
	1008.360865084528882 2944.760300136600108 14464.52310340173608 
	1008.360865084529223 2978.895817440557948 14473.596440388872 
	1008.360865084529223 2996.159081133239852 14477.19541386456876 
	1258.360865084529223 3095.642797989863539 14489.63673225081584 
	1258.360865084529451 3113.394082764971699 14489.63673566942271 
	1258.360865084529223 3148.89659017490203 14487.70415463185236 
	1258.360865084529678 3201.52105676432393 14479.04178099107776 
	1258.360865084529905 3252.894255170298493 14464.71828108301634 
	1258.360865084530133 3302.409077763564255 14444.90292043917543 
	1258.360865084530133 3349.48039909542058 14419.82990205237729 
	1258.360865084530815 3393.551844513242031 14389.79548430576688 
	1258.360865084530815 3434.102813255569799 14355.15473888966699 
	1258.36086508453127 3469.299843169009819 14317.75521324027977 
	1258.360865084532406 3499.26834939720311 14278.52568940038691 
	1258.360865084531952 3524.268116273987744 14238.26416178001637 
	1258.360865084533316 3548.765652149258585 14188.69681565748579 
	1258.360865084533316 3565.822750052068841 14140.19263656897601 
	1258.360865084533771 3576.59147727684558 14094.06542221729433 
	1258.360865084534453 3583.993703932194421 14047.27996150569561 
	1258.360865084534908 3586.847398861004422 13988.02254581524721 
	1258.360865084536272 3579.959295537219077 13917.16537567379964 
	1258.360865084536044 3562.90450556540145 13848.04738443013957 
	1258.360865084538091 3540.517292470412485 13793.10785301010219 
	1258.360865084538545 3517.985834175903619 13751.44302213286755 
	1258.360865084539228 3492.498169456224332 13711.51795155624131 
	1258.360865084540592 3460.290068179178434 13671.44105675346873 
	1258.360865084541956 3420.711009291758728 13632.83497215609532 
	1258.360865084541956 3394.531513563557382 13611.82375725895508 
	1258.360865084542866 3378.500946979706896 13600.33307637612961 
	1258.360865084542638 3372.033694932712933 13595.81457355303428 
	1258.360865084542866 3360.573867613697075 13588.11326879885746 
	1258.360865084541274 3337.105991435278156 13573.54818574047567 
	1258.360865084541501 3302.130560987159242 13555.20820541489229 
	1258.360865084539 3258.231530994619789 13537.35527914249906 
	1258.360865084539455 3205.245104711328167 13521.56624150691096 
	1258.360865084536726 3142.86467542252467 13510.93879032402947 
	1258.360865084535362 3071.695650614135957 13509.25049452491112 
	1258.360865084533316 3001.030045284378957 13517.86405424942859 
	1258.360865084532634 2932.351278978574555 13536.5992241087497 
	1258.360865084530587 2867.100933880784396 13565.0620896690416 
	1258.360865084530133 2820.083079795082085 13594.3016087232154 
	1258.360865084528768 2788.745617613609284 13618.27580481825862 
	1258.360865084528768 2764.630885566588859 13638.64305653082192 
	1258.360865084528541 2736.386868026077991 13666.24360272853119 
	1258.360865084528086 2710.939038280127988 13696.44146942204497 
	1258.360865084527632 2687.766274312080895 13728.37552481838793 
	1258.360865084527632 2662.78493514114416 13768.64462893683776 
	1258.360865084527177 2638.651543971837782 13820.66338844403072 
	1258.360865084527632 2620.719427621394516 13877.13816230415978 
	1258.360865084526722 2609.019663326243517 13935.2247061692633 
	1258.360865084527177 2605.613272758386756 13982.55893554497561 
	1258.360865084526495 2606.281732230581383 14018.05749033428037 
	1258.360865084526949 2607.909303761504816 14047.5999758185626 
	1258.360865084526949 2613.185821841385859 14088.73955260415823 
	1258.360865084527177 2625.671309333539739 14140.58406602029027 
	1258.360865084527632 2643.710481371889273 14190.7667970089642 
	1258.360865084527177 2663.193836356875636 14230.70648924726993 
	1258.360865084528314 2681.312147708163593 14261.24790638454579 
	1258.360865084527404 2696.12547572539961 14283.38164969725403 
	1258.360865084527859 2712.120165899789754 14304.67726622098053 
	1258.360865084527859 2734.957799838746723 14331.87054314635498 
	1258.360865084527632 2766.21425114693875 14363.45776459903391 
	1258.360865084528768 2807.614913189930576 14397.06660996878054 
	1258.360865084528541 2852.418773540271104 14425.98282839582134 
	1258.360865084528768 2900.096489088698036 14449.86460218257344 
	1258.360865084528541 2950.084517945336756 14468.42982953530009 
	1258.360865084529451 2984.556230164143471 14477.11603003972232 
	1258.360865084529223 3001.976842352980839 14480.51083304819258 
	1508.360865084529223 3095.642797989921291 14491.81836612540974 
	1508.360865084528996 3113.510944628464586 14491.81836270680287 
	1508.360865084529905 3149.247173386363102 14489.86893846240855 
	1508.360865084530133 3202.215397265949377 14481.1311753269656 
	1508.360865084530587 3253.918810749632939 14466.68351205273393 
	1508.36086508453036 3303.743817106126698 14446.69739514969478 
	1508.36086508453127 3351.099129135865951 14421.41005080594186 
	1508.360865084531497 3395.422646740513756 14391.12153405304889 
	1508.360865084532634 3436.188569905421446 14356.19143691967474 
	1508.360865084533543 3471.552437579966409 14318.4843048869061 
	1508.360865084534453 3501.641507550657025 14278.93771505478981 
	1508.360865084535362 3526.718791974894884 14238.35692100962297 
	1508.360865084536044 3551.260163986155931 14188.4050789696521 
	1508.360865084537181 3568.302209772900824 14139.53637545114907 
	1508.360865084538091 3579.009897995838401 14093.07474660792286 
	1508.360865084538545 3586.319809929296298 14045.95904608694036 
	1508.360865084540592 3588.999936704619358 13986.30189546013571 
	1508.360865084541274 3581.814500726961342 13915.0023844285206 
	1508.360865084543548 3564.380236852719008 13845.49500621095831 
	1508.360865084544457 3541.616249606368456 13790.28709205504492 
	1508.360865084546731 3518.753033009595583 13748.44751555831317 
	1508.360865084547186 3492.915686678688871 13708.37613396229062 
	1508.360865084550596 3460.303491023103106 13668.1897372472904 
	1508.360865084550824 3420.269195264978862 13629.52965845513427 
	1508.36086508455287 3393.807129618484851 13608.51790959664504 
	1508.360865084553552 3377.609526699776779 13597.03784985083621 
	1508.360865084553552 3371.075397509830054 13592.52457627653166 
	1508.360865084553097 3359.498419996451958 13584.83498034954573 
	1508.360865084552188 3335.796052565028276 13570.30360467310311 
	1508.360865084548777 3300.486779943583315 13552.04134057336887 
	1508.360865084547868 3256.19438274961658 13534.32898301599198 
	1508.360865084546049 3202.763808338555464 13518.75840265550505 
	1508.360865084542638 3139.905866280699229 13508.45648183589583 
	1508.360865084539455 3068.257811498428509 13507.23019017578372 
	1508.360865084536499 2997.187779223229427 13516.39196599123898 
	1508.360865084533771 2928.193995901960534 13535.74923016681896 
	1508.360865084532634 2862.730778465426738 13564.89329520479077 
	1508.360865084529451 2815.634826683443862 13594.6954703638603 
	1508.360865084528768 2784.285971875261112 13619.08030689197767 
	1508.360865084528314 2760.18012880718743 13639.77859358350543 
	1508.360865084528541 2731.981397014929826 13667.79583844925764 
	1508.360865084526722 2706.625145834675095 13698.40927971627207 
	1508.360865084526949 2683.578754084675893 13730.75424794657738 
	1508.360865084526267 2658.790717710275203 13771.5085459399852 
	1508.360865084526267 2634.973630156045601 13824.08837964391205 
	1508.360865084525813 2617.454540506992998 13881.10130713059698 
	1508.36086508452513 2606.237196209064223 13939.68061870999009 
	1508.360865084524448 2603.276863304367907 13987.35844302533951 
	1508.360865084524903 2604.307774280465765 14023.08224552624415 
	1508.36086508452513 2606.246290007793959 14052.8012054550145 
	1508.360865084524903 2611.981841915827317 14094.15531174315038 
	1508.360865084525813 2625.095976993085515 14146.20692117350336 
	1508.36086508452513 2643.794146431286663 14196.5229911092465 
	1508.360865084527404 2663.844700794567871 14236.50890367391185 
	1508.360865084525585 2682.422958218768599 14267.04685581807644 
	1508.360865084527177 2697.5831431609422 14289.15750443671459 
	1508.360865084526495 2713.92536894496061 14310.40933114248583 
	1508.360865084526267 2737.225649103846536 14337.5164332540171 
	1508.360865084527859 2769.05591759679055 14368.94365777139137 
	1508.360865084527177 2811.127932713212431 14402.27719584574879 
	1508.360865084528541 2856.575878125379404 14430.83639657790627 
	1508.360865084527859 2904.860520700915004 14454.28222084761728 
	1508.360865084528996 2955.408737062144155 14472.33655719881244 
	1508.360865084528996 2990.216634383280052 14480.63560805886482 
	1508.360865084529223 3007.794603572722281 14483.8262522318164 
	1758.360865084529223 3095.642797989979499 14494.00000000000182 
	1758.360865084529223 3113.627806152448557 14494.00000000000182 
	1758.360865084529905 3149.597757807912785 14492.03372076420237 
	1758.360865084530133 3202.909739270266982 14483.22057415678682 
	1758.360865084530587 3254.943369407015325 14468.64874389978468 
	1758.360865084530587 3305.078559892813701 14448.49187174049439 
	1758.360865084531042 3352.717864776172974 14422.99020044774988 
	1758.360865084531724 3397.293454159886551 14392.44758423838721 
	1758.360865084532634 3438.274335385945506 14357.22813547958867 
	1758.360865084533543 3473.805038941886323 14319.21339585118039 
	1758.36086508453468 3504.014677903275697 14279.34974055606472 
	1758.360865084535135 3529.169466425458268 14238.44967565619663 
	1758.360865084536272 3553.754682118724759 14188.11333848863978 
	1758.360865084537181 3570.781683998045537 14138.88011045059466 
	1758.360865084538091 3581.428313542203796 14092.08406416232356 
	1758.360865084538773 3588.645921644242662 14044.63812396353023 
	1758.360865084540364 3591.152474560573864 13984.58123782345319 
	1758.360865084541729 3583.669712024636738 13912.83938357079933 
	1758.360865084543093 3565.855972085853864 13842.94262087228162 
	1758.360865084544912 3542.71521996546744 13787.46631457414333 
	1758.360865084546731 3519.520236417664364 13745.45200193390701 
	1758.360865084547186 3493.333215470165669 13705.23429842809855 
	1758.360865084550369 3460.316911768306454 13664.93842373712141 
	1758.360865084551278 3419.827374541281188 13626.22435999923255 
	1758.360865084552643 3393.082746720014256 13605.21206320157398 
	1758.360865084553552 3376.718099926997638 13593.74264128813593 
	1758.360865084553325 3370.117096090328232 13589.23459264273697 
	1758.360865084553325 3358.422966068109417 13581.55670742988332 
	1758.360865084551733 3334.486110623413424 13567.05904009670849 
	1758.360865084549459 3298.842994045632622 13548.87448618840062 
	1758.360865084547186 3254.157231794777999 13531.30270214517805 
	1758.360865084546504 3200.282507768149571 13515.95057001765417 
	1758.360865084542411 3136.947047780255161 13505.97416057669943 
	1758.360865084539455 3064.819967066508525 13505.20988564369145 
	1758.360865084536272 2993.345508186842835 13514.91987116636301 
	1758.360865084533998 2924.036708067622385 13534.89923440227358 
	1758.360865084532179 2858.360623931620466 13564.7244979717143 
	1758.360865084529905 2811.186564579713377 13595.08932836985514 
	1758.360865084528541 2779.826334954304457 13619.88481041014165 
	1758.360865084528314 2755.729366766617204 13640.91412873546869 
	1758.360865084528314 2727.575928665377887 13669.34807330356671 
	1758.360865084526949 2702.311243520234711 13700.37708989961538 
	1758.360865084526722 2679.391242087569935 13733.1329693905318 
	1758.360865084526495 2654.796489236081015 13774.37246382817102 
	1758.36086508452604 2631.295710607607816 13827.51337109727501 
	1758.36086508452604 2614.189636801766483 13885.06445792102022 
	1758.360865084524903 2603.4547301072962 13944.1365246843925 
	1758.360865084524903 2600.940434793582426 13992.15796271550607 
	1758.360865084524676 2602.333827866044885 14028.10698873233741 
	1758.36086508452513 2604.583265927610682 14058.00244091795867 
	1758.360865084524903 2610.777866443543644 14099.57106582293454 
	1758.360865084525585 2624.5206414200361 14151.82977799672881 
	1758.360865084525585 2643.877812956056914 14202.27918293651419 
	1758.360865084526722 2664.495563790260348 14242.31132117569723 
	1758.360865084526267 2683.533771231223 14272.84579886390748 
	1758.360865084526722 2699.040810667632741 14294.93336090952835 
	1758.360865084526495 2715.730573897876639 14316.14138992396147 
	1758.360865084526495 2739.493498972179623 14343.16232681500878 
	1758.360865084527404 2771.897585276323298 14374.42955108625574 
	1758.360865084527632 2814.64095415087013 14407.48778443957781 
	1758.360865084528314 2860.732983638346013 14435.68996589398375 
	1758.360865084528086 2909.624556225151991 14458.69984469262272 
	1758.360865084528541 2960.732954870880803 14476.24328333237645 
	1758.360865084529223 2995.877047106865575 14484.15519770971514 
	1758.360865084529223 3013.612364792463268 14487.14167141544021 
	0 
	
	0 
	0 
	61 0.01785714285714285615 0.0357142857142857123 0.05357142857142856845 0.07142857142857142461 0.08928571428571427382 0.1071428571428571369 0.125 0.1428571428571428492 0.1587301587301587213 0.1746031746031745935 0.1904761904761904656 0.2142857142857142738 0.226190476190476164 0.238095238095238082 0.2619047619047618625 0.2857142857142856984 0.3095238095238095344 0.3333333333333333148 0.3452380952380952328 0.3571428571428570953 0.3809523809523809312 0.3968253968253968034 0.4126984126984126755 0.4146825396825396526 0.4166666666666666297 0.4206349206349205838 0.4285714285714285476 0.4444444444444444198 0.4603174603174602919 0.476190476190476164 0.4999999999999999445 0.5238095238095237249 0.5476190476190475609 0.5714285714285713969 0.5952380952380951218 0.6190476190476189577 0.6269841269841269771 0.6349206349206348854 0.650793650793650702 0.6666666666666666297 0.674603174603174538 0.6904761904761904656 0.7142857142857141906 0.7321428571428569843 0.749999999999999889 0.7738095238095237249 0.7797619047619046562 0.7857142857142855874 0.8035714285714284921 0.8214285714285713969 0.8392857142857141906 0.8571428571428570953 0.8660714285714286031 0.875 0.8839285714285713969 0.8928571428571427937 0.9107142857142856984 0.9285714285714286031 0.9464285714285713969 0.9642857142857143016 0.9821428571428572063 
	0 
	0 
	0 
	F 1 F 0 F 1 F 0 } I I I I #
tcoedge-coedge $-1 -1 $-1 $7 $8 $-1 $9 forward $4 $10 0 6.077653338876559452 #
coedge $-1 -1 $-1 $11 $6 $-1 $12 forward $4 $13 #
coedge $-1 -1 $-1 $6 $11 $-1 $14 forward $4 $15 #
tedge-edge $-1 -1 $-1 $16 0 $17 6.077653338876559452 $6 $18 forward @7 unknown 0.0006292331279971246022 #
pcurve $-1 -1 $-1 0 forward { exppc nubs 1 open 2 
	0 1 6.077653338876559452 1 
	0 0 
	0.999999999999999778 0 
	5.406393230863889615e-13 
	spline forward { ref 0 } I I I I 
	} 0 0 #
tcoedge-coedge $-1 -1 $-1 $8 $7 $-1 $19 forward $4 $20 5.388854305665205386e-15 6.116359051203988706 #
edge $-1 -1 $-1 $17 -4.132285959758209822e-17 $21 2.46151240769578683 $7 $22 forward @7 unknown #
pcurve $-1 -1 $-1 0 forward { exppc nubs 1 open 2 
	0 1 2.461512407695786386 1 
	1 0 
	1 0.999999999999999778 
	1.083017599367765412e-12 
	spline forward { ref 0 } I I I I 
	} 0 0 #
edge $-1 -1 $-1 $23 6.200340325500537452e-17 $16 2.460723610940036554 $8 $24 forward @7 unknown #
pcurve $-1 -1 $-1 0 forward { exppc nubs 1 open 2 
	0 1 2.460723610940036554 1 
	0 1 
	5.519610265533915884e-30 0 
	0 
	spline forward { ref 0 } I I I I 
	} 0 0 #
tvertex-vertex $-1 -1 $-1 $9 $25 1.045474735088646351e-11 #
tvertex-vertex $-1 -1 $-1 $9 $26 1.045474735088646351e-11 #
ellipse-curve $-1 -1 $-1 1008.360865084529223 3095.642797989804876 14000.00000000000364 -1 0 0 0 5.414335646491963618e-13 487.4550983762203487 1 F 0 F 6.077653338876559452 #
tedge-edge $-1 -1 $-1 $21 5.388854305665205386e-15 $23 6.116359051203988706 $11 $27 forward @7 unknown 0.0006546158758222258255 #
pcurve $-1 -1 $-1 0 forward { exppc nubs 1 open 2 
	0 1 6.116359051203988706 1 
	1 1 
	1.074672175485805168e-15 1 
	1.795927154916500293e-11 
	spline forward { ref 0 } I I I I 
	} 0 0 #
tvertex-vertex $-1 -1 $-1 $12 $28 1.409272615797817647e-11 #
straight-curve $-1 -1 $-1 1008.360865084529223 2996.159081133239852 14477.19541386456876 304.6907249604614094 7.090471534759609895 4.040709898425014934 F -4.132285959758209822e-17 F 2.46151240769578683 #
tvertex-vertex $-1 -1 $-1 $19 $29 1.483403064787792057e-11 #
straight-curve $-1 -1 $-1 1758.360865084529223 3095.642797989979954 14494.00000000000182 -304.7883950337225656 -7.084973177887292816e-11 -2.659746748753124113 F 6.200340325500537452e-17 F 2.460723610940036554 #
point $-1 -1 $-1 1008.360865084529223 3095.642797989805331 14487.45509837622376 #
point $-1 -1 $-1 1008.360865084529223 2996.159081133239397 14477.19541386456876 #
ellipse-curve $-1 -1 $-1 1758.360865084529223 3095.642797989971768 13999.99999999999818 1 0 0 0 -82.03043319750453577 487.1416714154415786 1 F 5.388854305665205386e-15 F 6.116359051203988706 #
point $-1 -1 $-1 1758.360865084529223 3013.612364792464632 14487.14167141544021 #
point $-1 -1 $-1 1758.360865084529223 3095.642797989983137 14493.99999999999818 #
End-of-ACIS-data 