700 0 1 0           
4 LibG 19 ASM 222.0.0.1700 NT 24 Wed Oct  5 17:30:07 2016 
1000 9.999999999999999547e-07 1.000000000000000036e-10 
body $-1 -1 $-1 $1 $-1 $-1 #
lump $-1 -1 $-1 $-1 $2 $0 #
shell $-1 -1 $-1 $-1 $-1 $3 $-1 $1 #
face $-1 -1 $-1 $4 $5 $2 $-1 $6 forward single #
face $-1 -1 $-1 $7 $8 $2 $-1 $9 reversed single #
loop $-1 -1 $-1 $-1 $10 $3 #
plane-surface $-1 -1 $-1 7083.786238848325411 3091.265060190974054 15000.00000000000182 0 0 1 1 0 0 forward_v I I I I #
face $-1 -1 $-1 $11 $12 $2 $-1 $13 reversed single #
loop $-1 -1 $-1 $-1 $14 $4 #
plane-surface $-1 -1 $-1 7083.786238848325411 3091.265060190974054 9000.000000000001819 0 0 1 1 0 0 forward_v I I I I #
coedge $-1 -1 $-1 $15 $16 $17 $18 forward $5 $-1 #
face $-1 -1 $-1 $19 $20 $2 $-1 $21 reversed single #
loop $-1 -1 $-1 $-1 $22 $7 #
plane-surface $-1 -1 $-1 7083.786238848325411 -3158.734939809025946 12000.00000000000182 0 1 0 0 0 1 forward_v I I I I #
coedge $-1 -1 $-1 $23 $24 $25 $26 forward $8 $-1 #
coedge $-1 -1 $-1 $27 $10 $28 $29 forward $5 $-1 #
coedge $-1 -1 $-1 $10 $27 $30 $31 forward $5 $-1 #
coedge $-1 -1 $-1 $32 $33 $10 $18 reversed $34 $-1 #
edge $-1 -1 $-1 $35 -6250 $36 6250 $17 $37 forward @7 unknown #
face $-1 -1 $-1 $38 $39 $2 $-1 $40 reversed single #
loop $-1 -1 $-1 $-1 $41 $11 #
plane-surface $-1 -1 $-1 133.3608649795687597 3091.265060190974054 12000.00000000000182 1 0 0 0 0 -1 forward_v I I I I #
coedge $-1 -1 $-1 $42 $30 $43 $44 forward $12 $-1 #
coedge $-1 -1 $-1 $45 $14 $42 $46 forward $8 $-1 #
coedge $-1 -1 $-1 $14 $45 $47 $48 forward $8 $-1 #
coedge $-1 -1 $-1 $33 $32 $14 $26 reversed $34 $-1 #
edge $-1 -1 $-1 $49 -6250 $50 6250 $25 $51 forward @7 unknown #
coedge $-1 -1 $-1 $16 $15 $52 $53 forward $5 $-1 #
coedge $-1 -1 $-1 $54 $55 $15 $29 reversed $39 $-1 #
edge $-1 -1 $-1 $36 -6950.425373868755742 $56 6950.425373868756651 $28 $57 forward @7 unknown #
coedge $-1 -1 $-1 $22 $58 $16 $31 reversed $12 $-1 #
edge $-1 -1 $-1 $59 -6950.425373868756651 $35 6950.425373868755742 $30 $60 forward @7 unknown #
coedge $-1 -1 $-1 $25 $17 $58 $61 forward $34 $-1 #
coedge $-1 -1 $-1 $17 $25 $54 $62 reversed $34 $-1 #
loop $-1 -1 $-1 $-1 $32 $38 #
vertex $-1 -1 $-1 $18 $63 #
vertex $-1 -1 $-1 $18 $64 #
straight-curve $-1 -1 $-1 14034.21161271708115 3091.265060190974054 15000.00000000000182 0 1 0 I I #
face $-1 -1 $-1 $-1 $34 $2 $-1 $65 reversed single #
loop $-1 -1 $-1 $-1 $54 $19 #
plane-surface $-1 -1 $-1 7083.786238848325411 9341.2650601909736 12000.00000000000182 0 -1 0 0 0 -1 forward_v I I I I #
coedge $-1 -1 $-1 $66 $52 $55 $67 forward $20 $-1 #
coedge $-1 -1 $-1 $58 $22 $23 $46 reversed $12 $-1 #
coedge $-1 -1 $-1 $52 $66 $22 $44 reversed $20 $-1 #
edge $-1 -1 $-1 $59 -3000 $68 3000 $43 $69 forward @7 unknown #
coedge $-1 -1 $-1 $24 $23 $66 $70 forward $8 $-1 #
edge $-1 -1 $-1 $50 -6950.425373868755742 $68 6950.425373868756651 $42 $71 forward @7 unknown #
coedge $-1 -1 $-1 $55 $54 $24 $48 reversed $39 $-1 #
edge $-1 -1 $-1 $72 -6950.425373868756651 $49 6950.425373868755742 $47 $73 forward @7 unknown #
vertex $-1 -1 $-1 $26 $74 #
vertex $75 -1 $-1 $61 $76 #
straight-curve $-1 -1 $-1 14034.21161271708115 3091.265060190974054 9000.000000000001819 0 -1 0 I I #
coedge $-1 -1 $-1 $41 $43 $27 $53 reversed $20 $-1 #
edge $-1 -1 $-1 $56 -6250 $59 6250 $52 $77 forward @7 unknown #
coedge $-1 -1 $-1 $47 $28 $33 $62 forward $39 $-1 #
coedge $-1 -1 $-1 $28 $47 $41 $67 reversed $39 $-1 #
vertex $-1 -1 $-1 $29 $78 #
straight-curve $-1 -1 $-1 7083.786238848325411 9341.2650601909736 15000.00000000000182 -1 0 0 I I #
coedge $-1 -1 $-1 $30 $42 $32 $61 reversed $12 $-1 #
vertex $79 -1 $-1 $53 $80 #
straight-curve $-1 -1 $-1 7083.786238848325411 -3158.734939809025946 15000.00000000000182 1 0 0 I I #
edge $-1 -1 $-1 $35 -3000 $50 3000 $32 $81 forward @7 unknown #
edge $-1 -1 $-1 $36 -3000 $49 3000 $33 $82 forward @7 unknown #
point $-1 -1 $-1 14034.21161271708115 -3158.734939809025946 15000.00000000000182 #
point $-1 -1 $-1 14034.21161271708115 9341.2650601909736 15000.00000000000182 #
plane-surface $-1 -1 $-1 14034.21161271708115 3091.265060190974054 12000.00000000000182 -1 0 0 0 0 1 forward_v I I I I #
coedge $-1 -1 $-1 $43 $41 $45 $70 reversed $20 $-1 #
edge $-1 -1 $-1 $56 -3000 $72 3000 $55 $83 forward @7 unknown #
vertex $84 -1 $-1 $70 $85 #
straight-curve $-1 -1 $-1 133.3608649795687597 -3158.734939809025946 12000.00000000000182 0 0 -1 I I #
edge $-1 -1 $-1 $68 -6250 $72 6250 $66 $86 forward @7 unknown #
straight-curve $-1 -1 $-1 7083.786238848325411 -3158.734939809025946 9000.000000000001819 -1 0 0 I I #
vertex $87 -1 $-1 $48 $88 #
straight-curve $-1 -1 $-1 7083.786238848325411 9341.2650601909736 9000.000000000001819 1 0 0 I I #
point $-1 -1 $-1 14034.21161271708115 9341.2650601909736 9000.000000000001819 #
string_attrib-name_attrib-gen-attrib $-1 -1 $-1 $-1 $50 keep keep_kept ignore copy @13 dimension_tag @5 width #
point $-1 -1 $-1 14034.21161271708115 -3158.734939809025946 9000.000000000001819 #
straight-curve $-1 -1 $-1 133.3608649795687597 3091.265060190974054 15000.00000000000182 0 -1 0 I I #
point $-1 -1 $-1 133.3608649795687597 9341.2650601909736 15000.00000000000182 #
string_attrib-name_attrib-gen-attrib $-1 -1 $-1 $-1 $59 keep keep_kept ignore copy @13 dimension_tag @6 height #
point $-1 -1 $-1 133.3608649795687597 -3158.734939809025946 15000.00000000000182 #
straight-curve $-1 -1 $-1 14034.21161271708115 -3158.734939809025946 12000.00000000000182 0 0 -1 I I #
straight-curve $-1 -1 $-1 14034.21161271708115 9341.2650601909736 12000.00000000000182 0 0 -1 I I #
straight-curve $-1 -1 $-1 133.3608649795687597 9341.2650601909736 12000.00000000000182 0 0 -1 I I #
string_attrib-name_attrib-gen-attrib $-1 -1 $-1 $-1 $68 keep keep_kept ignore copy @13 dimension_tag @4 root #
point $-1 -1 $-1 133.3608649795687597 -3158.734939809025946 9000.000000000001819 #
straight-curve $-1 -1 $-1 133.3608649795687597 3091.265060190974054 9000.000000000001819 0 1 0 I I #
string_attrib-name_attrib-gen-attrib $-1 -1 $-1 $-1 $72 keep keep_kept ignore copy @13 dimension_tag @6 length #
point $-1 -1 $-1 133.3608649795687597 9341.2650601909736 9000.000000000001819 #
End-of-ACIS-data 