700 0 5 0           
4 LibG 20 ASM 224.0.1.65535 NT 24 Tue Jul 16 17:00:29 2019 
1000 9.999999999999999547e-07 1.000000000000000036e-10 
body $-1 -1 $-1 $5 $-1 $6 #
body $-1 -1 $-1 $7 $-1 $8 #
body $-1 -1 $-1 $9 $-1 $10 #
body $-1 -1 $-1 $11 $-1 $12 #
body $-1 -1 $-1 $13 $-1 $14 #
lump $-1 -1 $-1 $-1 $15 $0 #
transform $-1 -1 1 0 0 0 1 0 0 0 1 0 0 0 1 no_rotate no_reflect no_shear #
lump $-1 -1 $-1 $-1 $16 $1 #
transform $-1 -1 1 0 0 0 1 0 0 0 1 0 0 0 1 no_rotate no_reflect no_shear #
lump $-1 -1 $-1 $-1 $17 $2 #
transform $-1 -1 1 0 0 0 1 0 0 0 1 0 0 0 1 no_rotate no_reflect no_shear #
lump $-1 -1 $-1 $-1 $18 $3 #
transform $-1 -1 1 0 0 0 1 0 0 0 1 0 0 0 1 no_rotate no_reflect no_shear #
lump $-1 -1 $-1 $-1 $19 $4 #
transform $-1 -1 1 0 0 0 1 0 0 0 1 0 0 0 1 no_rotate no_reflect no_shear #
shell $-1 -1 $-1 $-1 $-1 $20 $-1 $5 #
shell $-1 -1 $-1 $-1 $-1 $21 $-1 $7 #
shell $-1 -1 $-1 $-1 $-1 $22 $-1 $9 #
shell $-1 -1 $-1 $-1 $-1 $23 $-1 $11 #
shell $-1 -1 $-1 $-1 $-1 $24 $-1 $13 #
face $-1 -1 $-1 $25 $26 $15 $-1 $27 forward single #
face $-1 -1 $-1 $28 $29 $16 $-1 $30 forward single #
face $-1 -1 $-1 $31 $32 $17 $-1 $33 forward single #
face $-1 -1 $-1 $34 $35 $18 $-1 $36 forward single #
face $-1 -1 $-1 $37 $38 $19 $-1 $39 forward single #
face $-1 -1 $-1 $40 $41 $15 $-1 $42 forward single #
loop $-1 -1 $-1 $-1 $43 $20 #
plane-surface $-1 -1 $-1 9624.999999999996362 -224.9999999999989768 16150.00000000000364 -1 1.033455873944565986e-31 2.759407388367708069e-94 8.410673719744774211e-92 0 304.8000000000000114 forward_v I I I I #
face $-1 -1 $-1 $44 $45 $16 $-1 $46 forward single #
loop $-1 -1 $-1 $-1 $47 $21 #
plane-surface $-1 -1 $-1 10225 -775.009999999998854 16150.00000000000364 1 -4.133823495778264491e-32 -1.368455531567204171e-48 -4.171052460216838468e-46 0 -304.8000000000000114 forward_v I I I I #
face $-1 -1 $-1 $48 $49 $17 $-1 $50 forward single #
loop $-1 -1 $-1 $-1 $51 $22 #
plane-surface $-1 -1 $-1 9575 -224.9999999999989768 16150.00000000000364 -1 -1.033455873944565986e-31 -2.759407388367708069e-94 -8.410673719744774211e-92 0 304.8000000000000114 forward_v I I I I #
face $-1 -1 $-1 $52 $53 $18 $-1 $54 forward single #
loop $-1 -1 $-1 $-1 $55 $23 #
plane-surface $-1 -1 $-1 10174.99999999999818 -224.9999999999986642 16150.00000000000182 1 4.04528262343155499e-32 6.842277657836020854e-49 2.085526230108419234e-46 0 -304.8000000000000114 forward_v I I I I #
face $-1 -1 $-1 $56 $57 $19 $-1 $58 forward single #
loop $-1 -1 $-1 $-1 $59 $24 #
plane-surface $-1 -1 $-1 9624.999999999996362 -775.009999999998854 16150.00000000000182 -1 -3.155320446276613669e-30 -0 0 0 304.8000000000000114 forward_v I I I I #
face $-1 -1 $-1 $60 $61 $15 $-1 $62 forward single #
loop $-1 -1 $-1 $-1 $63 $25 #
plane-surface $-1 -1 $-1 10175 -775.0099999999989677 16229.99999999999818 3.724427337433675612e-30 1.807974435647419246e-32 1 304.8000000000000114 0 -1.135205452449784352e-27 forward_v I I I I #
coedge $-1 -1 $-1 $64 $65 $66 $67 forward $26 $-1 #
face $-1 -1 $-1 $68 $69 $16 $-1 $70 forward single #
loop $-1 -1 $-1 $-1 $71 $28 #
plane-surface $-1 -1 $-1 10175 -224.9999999999990052 16229.99999999999818 -6.74514909164122113e-30 1.9749310403454057e-31 1 304.8000000000000114 0 2.055921443132244181e-27 forward_v I I I I #
coedge $-1 -1 $-1 $72 $73 $74 $75 forward $29 $-1 #
face $-1 -1 $-1 $76 $77 $17 $-1 $78 forward single #
loop $-1 -1 $-1 $-1 $79 $31 #
plane-surface $-1 -1 $-1 9625 -775.0099999999989677 16229.99999999999818 6.74514909164122113e-30 2.582602129682448285e-31 1 304.8000000000000114 0 -2.055921443132244181e-27 forward_v I I I I #
coedge $-1 -1 $-1 $80 $81 $82 $83 forward $32 $-1 #
face $-1 -1 $-1 $84 $85 $18 $-1 $86 forward single #
loop $-1 -1 $-1 $-1 $87 $34 #
plane-surface $-1 -1 $-1 9625 -174.9999999999984936 16229.99999999999818 6.319989990171734409e-30 6.836527633599226037e-31 1 304.8000000000000114 0 -1.926332949004344709e-27 forward_v I I I I #
coedge $-1 -1 $-1 $88 $89 $90 $91 forward $35 $-1 #
face $-1 -1 $-1 $92 $93 $19 $-1 $94 forward single #
loop $-1 -1 $-1 $-1 $95 $37 #
plane-surface $-1 -1 $-1 10175 -825.009999999998854 16229.99999999999818 -1.172844296253022899e-29 6.076913452088257363e-32 1 304.8000000000000114 0 3.574829414979214041e-27 forward_v I I I I #
coedge $-1 -1 $-1 $96 $97 $98 $99 forward $38 $-1 #
face $-1 -1 $-1 $100 $101 $15 $-1 $102 forward single #
loop $-1 -1 $-1 $-1 $103 $40 #
plane-surface $-1 -1 $-1 10175 -224.9999999999986926 16150.00000000000364 -1.614826066137389446e-32 1 -3.272714160705107533e-32 0 9.975232761829168098e-30 304.8000000000000114 forward_v I I I I #
coedge $-1 -1 $-1 $104 $105 $106 $107 reversed $41 $-1 #
coedge $-1 -1 $-1 $108 $43 $109 $110 forward $26 $-1 #
coedge $-1 -1 $-1 $43 $108 $111 $112 reversed $26 $-1 #
coedge $-1 -1 $-1 $113 $114 $43 $67 reversed $115 $-1 #
edge $-1 -1 $-1 $116 0 $117 1.804494750656168156 $43 $118 forward @7 unknown #
face $-1 -1 $-1 $119 $120 $16 $-1 $121 forward single #
loop $-1 -1 $-1 $-1 $122 $44 #
plane-surface $-1 -1 $-1 10175 -775.009999999998854 16150.00000000000182 -0 -1 -0 0 0 -304.8000000000000114 forward_v I I I I #
coedge $-1 -1 $-1 $123 $124 $125 $126 reversed $45 $-1 #
coedge $-1 -1 $-1 $127 $47 $128 $129 forward $29 $-1 #
coedge $-1 -1 $-1 $47 $127 $130 $131 reversed $29 $-1 #
coedge $-1 -1 $-1 $132 $133 $47 $75 reversed $134 $-1 #
edge $-1 -1 $-1 $135 0 $136 1.804494750656168156 $47 $137 forward @7 unknown #
face $-1 -1 $-1 $138 $139 $17 $-1 $140 forward single #
loop $-1 -1 $-1 $-1 $141 $48 #
plane-surface $-1 -1 $-1 9625 -224.9999999999986926 16150.00000000000182 -3.944150557845800805e-31 1 1.094764425253763337e-47 0 -3.336841968173470775e-45 304.8000000000000114 forward_v I I I I #
coedge $-1 -1 $-1 $142 $143 $144 $145 reversed $49 $-1 #
coedge $-1 -1 $-1 $146 $51 $147 $148 forward $32 $-1 #
coedge $-1 -1 $-1 $51 $146 $149 $150 reversed $32 $-1 #
coedge $-1 -1 $-1 $151 $152 $51 $83 reversed $153 $-1 #
edge $-1 -1 $-1 $154 0 $155 1.804494750656168156 $51 $156 forward @7 unknown #
face $-1 -1 $-1 $157 $158 $18 $-1 $159 forward single #
loop $-1 -1 $-1 $-1 $160 $52 #
plane-surface $-1 -1 $-1 9625 -224.9999999999986642 16150.00000000000364 -0 -1 -0 0 0 -304.8000000000000114 forward_v I I I I #
coedge $-1 -1 $-1 $161 $162 $163 $164 reversed $53 $-1 #
coedge $-1 -1 $-1 $165 $55 $166 $167 forward $35 $-1 #
coedge $-1 -1 $-1 $55 $165 $168 $169 reversed $35 $-1 #
coedge $-1 -1 $-1 $170 $171 $55 $91 reversed $172 $-1 #
edge $-1 -1 $-1 $173 0 $174 0.1640419947506561726 $55 $175 forward @7 unknown #
face $-1 -1 $-1 $176 $177 $19 $-1 $178 forward single #
loop $-1 -1 $-1 $-1 $179 $56 #
plane-surface $-1 -1 $-1 10175 -775.009999999998854 16150.00000000000364 0 1 0 0 0 304.8000000000000114 forward_v I I I I #
coedge $-1 -1 $-1 $180 $181 $182 $183 reversed $57 $-1 #
coedge $-1 -1 $-1 $184 $59 $185 $186 forward $38 $-1 #
coedge $-1 -1 $-1 $59 $184 $187 $188 reversed $38 $-1 #
coedge $-1 -1 $-1 $189 $190 $59 $99 reversed $191 $-1 #
edge $-1 -1 $-1 $192 0 $193 0.1640419947506561726 $59 $194 forward @7 unknown #
face $-1 -1 $-1 $195 $115 $15 $-1 $196 reversed single #
loop $-1 -1 $-1 $-1 $197 $60 #
plane-surface $-1 -1 $-1 9625 -775.009999999998854 16150.00000000000364 -0 -1 -0 0 0 -304.8000000000000114 forward_v I I I I #
coedge $-1 -1 $-1 $111 $198 $113 $199 forward $61 $-1 #
coedge $-1 -1 $-1 $200 $63 $201 $202 reversed $41 $-1 #
coedge $-1 -1 $-1 $63 $200 $203 $204 reversed $41 $-1 #
coedge $-1 -1 $-1 $205 $206 $63 $107 forward $207 $-1 #
edge $-1 -1 $-1 $208 0 $209 1.804494750656168156 $106 $210 forward @7 unknown #
coedge $-1 -1 $-1 $65 $64 $200 $211 forward $26 $-1 #
coedge $-1 -1 $-1 $197 $203 $64 $110 reversed $101 $-1 #
edge $-1 -1 $-1 $117 0 $212 0.2624671916010470341 $64 $213 forward @7 unknown #
coedge $-1 -1 $-1 $201 $103 $65 $112 forward $61 $-1 #
edge $-1 -1 $-1 $116 0 $214 0.2624671916010470341 $111 $215 forward @7 unknown #
coedge $-1 -1 $-1 $216 $66 $103 $199 reversed $115 $-1 #
coedge $-1 -1 $-1 $66 $216 $197 $217 reversed $115 $-1 #
loop $-1 -1 $-1 $-1 $114 $100 #
vertex $-1 -1 $-1 $199 $218 #
vertex $-1 -1 $-1 $67 $219 #
straight-curve $-1 -1 $-1 9625 -224.999999999998721 16150.00000000000182 0 -304.8000000000000114 0 F 0 F 1.804494750656168156 #
face $-1 -1 $-1 $220 $134 $16 $-1 $221 reversed single #
loop $-1 -1 $-1 $-1 $222 $68 #
plane-surface $-1 -1 $-1 10225 -224.9999999999986926 16150.00000000000182 -4.045282623431588818e-31 1 -2.482434936347911004e-92 0 7.566461685988432934e-90 304.8000000000000114 forward_v I I I I #
coedge $-1 -1 $-1 $130 $223 $132 $224 forward $69 $-1 #
coedge $-1 -1 $-1 $225 $71 $226 $227 reversed $45 $-1 #
coedge $-1 -1 $-1 $71 $225 $228 $229 reversed $45 $-1 #
coedge $-1 -1 $-1 $230 $231 $71 $126 forward $232 $-1 #
edge $-1 -1 $-1 $233 0 $234 1.804494750656168156 $125 $235 forward @7 unknown #
coedge $-1 -1 $-1 $73 $72 $225 $236 forward $29 $-1 #
coedge $-1 -1 $-1 $222 $228 $72 $129 reversed $120 $-1 #
edge $-1 -1 $-1 $136 0 $237 0.2624671916010470341 $72 $238 forward @7 unknown #
coedge $-1 -1 $-1 $226 $122 $73 $131 forward $69 $-1 #
edge $-1 -1 $-1 $135 0 $239 0.2624671916010470341 $130 $240 forward @7 unknown #
coedge $-1 -1 $-1 $241 $74 $122 $224 reversed $134 $-1 #
coedge $-1 -1 $-1 $74 $241 $222 $242 reversed $134 $-1 #
loop $-1 -1 $-1 $-1 $133 $119 #
vertex $-1 -1 $-1 $224 $243 #
vertex $-1 -1 $-1 $75 $244 #
straight-curve $-1 -1 $-1 10225 -775.009999999998854 16150.00000000000182 0 304.8000000000000114 0 F 0 F 1.804494750656168156 #
face $-1 -1 $-1 $245 $153 $17 $-1 $246 reversed single #
loop $-1 -1 $-1 $-1 $247 $76 #
plane-surface $-1 -1 $-1 9575 -775.009999999998854 16150.00000000000182 -0 -1 -0 0 0 -304.8000000000000114 forward_v I I I I #
coedge $-1 -1 $-1 $149 $248 $151 $249 forward $77 $-1 #
coedge $-1 -1 $-1 $250 $79 $251 $252 reversed $49 $-1 #
coedge $-1 -1 $-1 $79 $250 $253 $254 reversed $49 $-1 #
coedge $-1 -1 $-1 $255 $256 $79 $145 forward $257 $-1 #
edge $-1 -1 $-1 $258 0 $259 1.804494750656168156 $144 $260 forward @7 unknown #
coedge $-1 -1 $-1 $81 $80 $250 $261 forward $32 $-1 #
coedge $-1 -1 $-1 $247 $253 $80 $148 reversed $139 $-1 #
edge $-1 -1 $-1 $155 0 $262 0.2624671916010470341 $80 $263 forward @7 unknown #
coedge $-1 -1 $-1 $251 $141 $81 $150 forward $77 $-1 #
edge $-1 -1 $-1 $154 0 $264 0.2624671916010470341 $149 $265 forward @7 unknown #
coedge $-1 -1 $-1 $266 $82 $141 $249 reversed $153 $-1 #
coedge $-1 -1 $-1 $82 $266 $247 $267 reversed $153 $-1 #
loop $-1 -1 $-1 $-1 $152 $138 #
vertex $-1 -1 $-1 $249 $268 #
vertex $-1 -1 $-1 $83 $269 #
straight-curve $-1 -1 $-1 9575 -224.999999999998721 16150.00000000000182 0 -304.8000000000000114 0 F 0 F 1.804494750656168156 #
face $-1 -1 $-1 $270 $172 $18 $-1 $271 reversed single #
loop $-1 -1 $-1 $-1 $272 $84 #
plane-surface $-1 -1 $-1 10175 -174.9999999999986642 16150.00000000000364 9.559770311533344732e-32 1 1.584682646236157044e-31 0 -4.830112705727807062e-29 304.8000000000000114 forward_v I I I I #
coedge $-1 -1 $-1 $168 $273 $170 $274 forward $85 $-1 #
coedge $-1 -1 $-1 $275 $87 $276 $277 reversed $53 $-1 #
coedge $-1 -1 $-1 $87 $275 $278 $279 reversed $53 $-1 #
coedge $-1 -1 $-1 $280 $281 $87 $164 forward $282 $-1 #
edge $-1 -1 $-1 $283 0 $284 0.1640419947506561726 $163 $285 forward @7 unknown #
coedge $-1 -1 $-1 $89 $88 $275 $286 forward $35 $-1 #
coedge $-1 -1 $-1 $272 $278 $88 $167 reversed $158 $-1 #
edge $-1 -1 $-1 $174 0 $287 0.2624671916010470341 $88 $288 forward @7 unknown #
coedge $-1 -1 $-1 $276 $160 $89 $169 forward $85 $-1 #
edge $-1 -1 $-1 $173 0 $289 0.2624671916010470341 $168 $290 forward @7 unknown #
coedge $-1 -1 $-1 $291 $90 $160 $274 reversed $172 $-1 #
coedge $-1 -1 $-1 $90 $291 $272 $292 reversed $172 $-1 #
loop $-1 -1 $-1 $-1 $171 $157 #
vertex $-1 -1 $-1 $274 $293 #
vertex $-1 -1 $-1 $91 $294 #
straight-curve $-1 -1 $-1 10175 -224.9999999999986642 16150.00000000000182 0 304.8000000000000114 0 F 0 F 0.1640419947506561726 #
face $-1 -1 $-1 $295 $191 $19 $-1 $296 reversed single #
loop $-1 -1 $-1 $-1 $297 $92 #
plane-surface $-1 -1 $-1 9625 -825.0099999999986267 16150.00000000000364 2.256450289749312306e-31 -1 -4.47845095675435732e-31 0 1.365031851618728248e-28 -304.8000000000000114 forward_v I I I I #
coedge $-1 -1 $-1 $187 $298 $189 $299 forward $93 $-1 #
coedge $-1 -1 $-1 $300 $95 $301 $302 reversed $57 $-1 #
coedge $-1 -1 $-1 $95 $300 $303 $304 reversed $57 $-1 #
coedge $-1 -1 $-1 $305 $306 $95 $183 forward $307 $-1 #
edge $-1 -1 $-1 $308 0 $309 0.1640419947506561726 $182 $310 forward @7 unknown #
coedge $-1 -1 $-1 $97 $96 $300 $311 forward $38 $-1 #
coedge $-1 -1 $-1 $297 $303 $96 $186 reversed $177 $-1 #
edge $-1 -1 $-1 $193 0 $312 0.2624671916010470341 $96 $313 forward @7 unknown #
coedge $-1 -1 $-1 $301 $179 $97 $188 forward $93 $-1 #
edge $-1 -1 $-1 $192 0 $314 0.2624671916010470341 $187 $315 forward @7 unknown #
coedge $-1 -1 $-1 $316 $98 $179 $299 reversed $191 $-1 #
coedge $-1 -1 $-1 $98 $316 $297 $317 reversed $191 $-1 #
loop $-1 -1 $-1 $-1 $190 $176 #
vertex $-1 -1 $-1 $299 $318 #
vertex $-1 -1 $-1 $99 $319 #
straight-curve $-1 -1 $-1 9625 -775.009999999998854 16150.00000000000182 0 -304.8000000000000114 0 F 0 F 0.1640419947506561726 #
face $-1 -1 $-1 $-1 $207 $15 $-1 $320 forward single #
plane-surface $-1 -1 $-1 10175 -775.0099999999989677 16150.00000000000182 5.640880239219936925e-30 8.758115402030106693e-47 1 304.8000000000000114 0 -1.719340296914236877e-27 forward_v I I I I #
coedge $-1 -1 $-1 $321 $109 $114 $217 forward $101 $-1 #
coedge $-1 -1 $-1 $103 $201 $206 $322 reversed $61 $-1 #
edge $-1 -1 $-1 $323 0 $116 1.804461942257219675 $103 $324 forward @7 unknown #
coedge $-1 -1 $-1 $105 $104 $108 $211 reversed $41 $-1 #
coedge $-1 -1 $-1 $198 $111 $104 $202 forward $61 $-1 #
edge $-1 -1 $-1 $214 0 $208 1.804461942257219675 $201 $325 forward @7 unknown #
coedge $-1 -1 $-1 $109 $321 $105 $204 forward $101 $-1 #
edge $-1 -1 $-1 $209 0 $212 1.804461942257219675 $203 $326 forward @7 unknown #
coedge $-1 -1 $-1 $327 $106 $321 $328 forward $207 $-1 #
coedge $-1 -1 $-1 $106 $327 $198 $322 forward $207 $-1 #
loop $-1 -1 $-1 $-1 $327 $195 #
vertex $-1 -1 $-1 $322 $329 #
vertex $-1 -1 $-1 $107 $330 #
straight-curve $-1 -1 $-1 10175 -224.999999999998721 16230 0 -304.8000000000000114 0 F 0 F 1.804494750656168156 #
edge $-1 -1 $-1 $212 0 $214 1.804494750656168156 $108 $331 forward @7 unknown #
vertex $-1 -1 $-1 $110 $332 #
straight-curve $-1 -1 $-1 9625 -775.009999999998854 16150.00000000000182 0 0 304.8000000000000114 F 0 F 0.2624671916010470341 #
vertex $-1 -1 $-1 $112 $333 #
straight-curve $-1 -1 $-1 9625 -224.999999999998721 16150.00000000000182 0 0 304.8000000000000114 F 0 F 0.2624671916010470341 #
coedge $-1 -1 $-1 $114 $113 $327 $334 reversed $115 $-1 #
edge $-1 -1 $-1 $117 0 $335 1.804461942257219675 $197 $336 forward @7 unknown #
point $-1 -1 $-1 9625 -224.999999999998721 16150.00000000000182 #
point $-1 -1 $-1 9625 -775.009999999998854 16150.00000000000182 #
face $-1 -1 $-1 $-1 $232 $16 $-1 $337 forward single #
plane-surface $-1 -1 $-1 10175 -224.99999999999892 16150.00000000000182 -8.993532122188297175e-30 7.29205307204456007e-31 1 304.8000000000000114 0 2.741228590842993079e-27 forward_v I I I I #
coedge $-1 -1 $-1 $338 $128 $133 $242 forward $120 $-1 #
coedge $-1 -1 $-1 $122 $226 $231 $339 reversed $69 $-1 #
edge $-1 -1 $-1 $340 0 $135 0.1640419947506543963 $122 $341 forward @7 unknown #
coedge $-1 -1 $-1 $124 $123 $127 $236 reversed $45 $-1 #
coedge $-1 -1 $-1 $223 $130 $123 $227 forward $69 $-1 #
edge $-1 -1 $-1 $239 0 $233 0.1640419947506543963 $226 $342 forward @7 unknown #
coedge $-1 -1 $-1 $128 $338 $124 $229 forward $120 $-1 #
edge $-1 -1 $-1 $234 0 $237 0.1640419947506543963 $228 $343 forward @7 unknown #
coedge $-1 -1 $-1 $344 $125 $338 $345 forward $232 $-1 #
coedge $-1 -1 $-1 $125 $344 $223 $339 forward $232 $-1 #
loop $-1 -1 $-1 $-1 $344 $220 #
vertex $-1 -1 $-1 $339 $346 #
vertex $-1 -1 $-1 $126 $347 #
straight-curve $-1 -1 $-1 10175 -775.009999999998854 16230 0 304.8000000000000114 0 F 0 F 1.804494750656168156 #
edge $-1 -1 $-1 $237 0 $239 1.804494750656168156 $127 $348 forward @7 unknown #
vertex $-1 -1 $-1 $129 $349 #
straight-curve $-1 -1 $-1 10225 -224.999999999998721 16150.00000000000182 0 0 304.8000000000000114 F 0 F 0.2624671916010470341 #
vertex $-1 -1 $-1 $131 $350 #
straight-curve $-1 -1 $-1 10225 -775.009999999998854 16150.00000000000182 0 0 304.8000000000000114 F 0 F 0.2624671916010470341 #
coedge $-1 -1 $-1 $133 $132 $344 $351 reversed $134 $-1 #
edge $-1 -1 $-1 $136 0 $352 0.1640419947506543963 $222 $353 forward @7 unknown #
point $-1 -1 $-1 10225 -775.009999999998854 16150.00000000000182 #
point $-1 -1 $-1 10225 -224.999999999998721 16150.00000000000182 #
face $-1 -1 $-1 $-1 $257 $17 $-1 $354 forward single #
plane-surface $-1 -1 $-1 9625 -775.009999999998854 16150.00000000000182 8.993532122188294373e-30 6.076710893370456507e-32 1 304.8000000000000114 0 -2.741228590842992361e-27 forward_v I I I I #
coedge $-1 -1 $-1 $355 $147 $152 $267 forward $139 $-1 #
coedge $-1 -1 $-1 $141 $251 $256 $356 reversed $77 $-1 #
edge $-1 -1 $-1 $357 0 $154 0.1640419947506543963 $141 $358 forward @7 unknown #
coedge $-1 -1 $-1 $143 $142 $146 $261 reversed $49 $-1 #
coedge $-1 -1 $-1 $248 $149 $142 $252 forward $77 $-1 #
edge $-1 -1 $-1 $264 0 $258 0.1640419947506543963 $251 $359 forward @7 unknown #
coedge $-1 -1 $-1 $147 $355 $143 $254 forward $139 $-1 #
edge $-1 -1 $-1 $259 0 $262 0.1640419947506543963 $253 $360 forward @7 unknown #
coedge $-1 -1 $-1 $361 $144 $355 $362 forward $257 $-1 #
coedge $-1 -1 $-1 $144 $361 $248 $356 forward $257 $-1 #
loop $-1 -1 $-1 $-1 $361 $245 #
vertex $-1 -1 $-1 $356 $363 #
vertex $-1 -1 $-1 $145 $364 #
straight-curve $-1 -1 $-1 9625 -224.999999999998721 16230 0 -304.8000000000000114 0 F 0 F 1.804494750656168156 #
edge $-1 -1 $-1 $262 0 $264 1.804494750656168156 $146 $365 forward @7 unknown #
vertex $-1 -1 $-1 $148 $366 #
straight-curve $-1 -1 $-1 9575 -775.009999999998854 16150.00000000000182 0 0 304.8000000000000114 F 0 F 0.2624671916010470341 #
vertex $-1 -1 $-1 $150 $367 #
straight-curve $-1 -1 $-1 9575 -224.999999999998721 16150.00000000000182 0 0 304.8000000000000114 F 0 F 0.2624671916010470341 #
coedge $-1 -1 $-1 $152 $151 $361 $368 reversed $153 $-1 #
edge $-1 -1 $-1 $155 0 $369 0.1640419947506543963 $247 $370 forward @7 unknown #
point $-1 -1 $-1 9575 -224.999999999998721 16150.00000000000182 #
point $-1 -1 $-1 9575 -775.009999999998854 16150.00000000000182 #
face $-1 -1 $-1 $-1 $282 $18 $-1 $371 forward single #
plane-surface $-1 -1 $-1 9625 -174.9999999999984936 16150.00000000000182 1.069536767567524188e-29 1.519228363022050153e-30 1 304.8000000000000114 0 -3.259948067545813682e-27 forward_v I I I I #
coedge $-1 -1 $-1 $372 $166 $171 $292 forward $158 $-1 #
coedge $-1 -1 $-1 $160 $276 $281 $373 reversed $85 $-1 #
edge $-1 -1 $-1 $374 0 $173 1.804461942257219675 $160 $375 forward @7 unknown #
coedge $-1 -1 $-1 $162 $161 $165 $286 reversed $53 $-1 #
coedge $-1 -1 $-1 $273 $168 $161 $277 forward $85 $-1 #
edge $-1 -1 $-1 $289 0 $283 1.804461942257219675 $276 $376 forward @7 unknown #
coedge $-1 -1 $-1 $166 $372 $162 $279 forward $158 $-1 #
edge $-1 -1 $-1 $284 0 $287 1.804461942257219675 $278 $377 forward @7 unknown #
coedge $-1 -1 $-1 $378 $163 $372 $379 forward $282 $-1 #
coedge $-1 -1 $-1 $163 $378 $273 $373 forward $282 $-1 #
loop $-1 -1 $-1 $-1 $378 $270 #
vertex $-1 -1 $-1 $373 $380 #
vertex $-1 -1 $-1 $164 $381 #
straight-curve $-1 -1 $-1 9625 -224.9999999999986642 16230 0 304.8000000000000114 0 F 0 F 0.1640419947506561726 #
edge $-1 -1 $-1 $287 0 $289 0.1640419947506561726 $165 $382 forward @7 unknown #
vertex $-1 -1 $-1 $167 $383 #
straight-curve $-1 -1 $-1 10175 -174.9999999999986642 16150.00000000000182 0 0 304.8000000000000114 F 0 F 0.2624671916010470341 #
vertex $-1 -1 $-1 $169 $384 #
straight-curve $-1 -1 $-1 10175 -224.9999999999986642 16150.00000000000182 0 0 304.8000000000000114 F 0 F 0.2624671916010470341 #
coedge $-1 -1 $-1 $171 $170 $378 $385 reversed $172 $-1 #
edge $-1 -1 $-1 $174 0 $386 1.804461942257219675 $272 $387 forward @7 unknown #
point $-1 -1 $-1 10175 -224.9999999999986642 16150.00000000000182 #
point $-1 -1 $-1 10175 -174.9999999999986642 16150.00000000000182 #
face $-1 -1 $-1 $-1 $307 $19 $-1 $388 forward single #
plane-surface $-1 -1 $-1 10175 -825.009999999998854 16150.00000000000182 -1.968919958476576959e-29 -3.646148071252915882e-31 1 304.8000000000000114 0 6.00126803343660661e-27 forward_v I I I I #
coedge $-1 -1 $-1 $389 $185 $190 $317 forward $177 $-1 #
coedge $-1 -1 $-1 $179 $301 $306 $390 reversed $93 $-1 #
edge $-1 -1 $-1 $391 0 $192 1.804461942257219675 $179 $392 forward @7 unknown #
coedge $-1 -1 $-1 $181 $180 $184 $311 reversed $57 $-1 #
coedge $-1 -1 $-1 $298 $187 $180 $302 forward $93 $-1 #
edge $-1 -1 $-1 $314 0 $308 1.804461942257219675 $301 $393 forward @7 unknown #
coedge $-1 -1 $-1 $185 $389 $181 $304 forward $177 $-1 #
edge $-1 -1 $-1 $309 0 $312 1.804461942257219675 $303 $394 forward @7 unknown #
coedge $-1 -1 $-1 $395 $182 $389 $396 forward $307 $-1 #
coedge $-1 -1 $-1 $182 $395 $298 $390 forward $307 $-1 #
loop $-1 -1 $-1 $-1 $395 $295 #
vertex $-1 -1 $-1 $390 $397 #
vertex $-1 -1 $-1 $183 $398 #
straight-curve $-1 -1 $-1 10175 -775.009999999998854 16230 0 -304.8000000000000114 0 F 0 F 0.1640419947506561726 #
edge $-1 -1 $-1 $312 0 $314 0.1640419947506561726 $184 $399 forward @7 unknown #
vertex $-1 -1 $-1 $186 $400 #
straight-curve $-1 -1 $-1 9625 -825.009999999998854 16150.00000000000182 0 0 304.8000000000000114 F 0 F 0.2624671916010470341 #
vertex $-1 -1 $-1 $188 $401 #
straight-curve $-1 -1 $-1 9625 -775.009999999998854 16150.00000000000182 0 0 304.8000000000000114 F 0 F 0.2624671916010470341 #
coedge $-1 -1 $-1 $190 $189 $395 $402 reversed $191 $-1 #
edge $-1 -1 $-1 $193 0 $403 1.804461942257219675 $297 $404 forward @7 unknown #
point $-1 -1 $-1 9625 -775.009999999998854 16150.00000000000182 #
point $-1 -1 $-1 9625 -825.009999999998854 16150.00000000000182 #
plane-surface $-1 -1 $-1 10174.99999999999818 -775.009999999998854 16150.00000000000364 1 -4.133823495778264491e-32 -1.368455531567204171e-48 -4.171052460216838468e-46 0 -304.8000000000000114 forward_v I I I I #
coedge $-1 -1 $-1 $203 $197 $205 $328 reversed $101 $-1 #
edge $-1 -1 $-1 $323 0 $208 0.2624671916010470341 $206 $405 forward @7 unknown #
vertex $-1 -1 $-1 $334 $406 #
straight-curve $-1 -1 $-1 10175 -224.999999999998721 16150.00000000000182 -304.8000000000000114 0 0 F 0 F 1.804461942257219675 #
straight-curve $-1 -1 $-1 9625 -224.999999999998721 16230 304.8000000000000114 0 0 F 0 F 1.804461942257219675 #
straight-curve $-1 -1 $-1 10175 -775.009999999998854 16230 -304.8000000000000114 0 0 F 0 F 1.804461942257219675 #
coedge $-1 -1 $-1 $206 $205 $216 $334 forward $207 $-1 #
edge $-1 -1 $-1 $209 0 $335 0.2624671916010470341 $205 $407 forward @7 unknown #
point $-1 -1 $-1 10175 -224.999999999998721 16230 #
point $-1 -1 $-1 10175 -775.009999999998854 16230 #
straight-curve $-1 -1 $-1 9625 -775.009999999998854 16230 0 304.8000000000000114 0 F 0 F 1.804494750656168156 #
point $-1 -1 $-1 9625 -775.009999999998854 16230 #
point $-1 -1 $-1 9625 -224.999999999998721 16230 #
edge $-1 -1 $-1 $335 0 $323 1.804494750656168156 $327 $408 forward @7 unknown #
vertex $-1 -1 $-1 $334 $409 #
straight-curve $-1 -1 $-1 9625 -775.009999999998854 16150.00000000000182 304.8000000000000114 0 0 F 0 F 1.804461942257219675 #
plane-surface $-1 -1 $-1 10174.99999999999818 -224.9999999999989768 16150.00000000000364 -1 -2.066911747889131972e-31 -2.207525910694166455e-93 -6.728538975795819369e-91 0 304.8000000000000114 forward_v I I I I #
coedge $-1 -1 $-1 $228 $222 $230 $345 reversed $120 $-1 #
edge $-1 -1 $-1 $340 0 $233 0.2624671916010470341 $231 $410 forward @7 unknown #
vertex $-1 -1 $-1 $351 $411 #
straight-curve $-1 -1 $-1 10175 -775.009999999998854 16150.00000000000182 304.8000000000000114 0 0 F 0 F 0.1640419947506543963 #
straight-curve $-1 -1 $-1 10225 -775.009999999998854 16230 -304.8000000000000114 0 0 F 0 F 0.1640419947506543963 #
straight-curve $-1 -1 $-1 10175 -224.999999999998721 16230 304.8000000000000114 0 0 F 0 F 0.1640419947506543963 #
coedge $-1 -1 $-1 $231 $230 $241 $351 forward $232 $-1 #
edge $-1 -1 $-1 $234 0 $352 0.2624671916010470341 $230 $412 forward @7 unknown #
point $-1 -1 $-1 10175 -775.009999999998854 16230 #
point $-1 -1 $-1 10175 -224.999999999998721 16230 #
straight-curve $-1 -1 $-1 10225 -224.999999999998721 16230 0 -304.8000000000000114 0 F 0 F 1.804494750656168156 #
point $-1 -1 $-1 10225 -224.999999999998721 16230 #
point $-1 -1 $-1 10225 -775.009999999998854 16230 #
edge $-1 -1 $-1 $352 0 $340 1.804494750656168156 $344 $413 forward @7 unknown #
vertex $-1 -1 $-1 $351 $414 #
straight-curve $-1 -1 $-1 10225 -224.999999999998721 16150.00000000000182 -304.8000000000000114 0 0 F 0 F 0.1640419947506543963 #
plane-surface $-1 -1 $-1 9624.999999999996362 -775.009999999998854 16150.00000000000364 1 2.066911747889132245e-32 6.842277657836020854e-49 2.085526230108419234e-46 0 -304.8000000000000114 forward_v I I I I #
coedge $-1 -1 $-1 $253 $247 $255 $362 reversed $139 $-1 #
edge $-1 -1 $-1 $357 0 $258 0.2624671916010470341 $256 $415 forward @7 unknown #
vertex $-1 -1 $-1 $368 $416 #
straight-curve $-1 -1 $-1 9625 -224.999999999998721 16150.00000000000182 -304.8000000000000114 0 0 F 0 F 0.1640419947506543963 #
straight-curve $-1 -1 $-1 9575 -224.999999999998721 16230 304.8000000000000114 0 0 F 0 F 0.1640419947506543963 #
straight-curve $-1 -1 $-1 9625 -775.009999999998854 16230 -304.8000000000000114 0 0 F 0 F 0.1640419947506543963 #
coedge $-1 -1 $-1 $256 $255 $266 $368 forward $257 $-1 #
edge $-1 -1 $-1 $259 0 $369 0.2624671916010470341 $255 $417 forward @7 unknown #
point $-1 -1 $-1 9625 -224.999999999998721 16230 #
point $-1 -1 $-1 9625 -775.009999999998854 16230 #
straight-curve $-1 -1 $-1 9575 -775.009999999998854 16230 0 304.8000000000000114 0 F 0 F 1.804494750656168156 #
point $-1 -1 $-1 9575 -775.009999999998854 16230 #
point $-1 -1 $-1 9575 -224.999999999998721 16230 #
edge $-1 -1 $-1 $369 0 $357 1.804494750656168156 $361 $418 forward @7 unknown #
vertex $-1 -1 $-1 $368 $419 #
straight-curve $-1 -1 $-1 9575 -775.009999999998854 16150.00000000000182 304.8000000000000114 0 0 F 0 F 0.1640419947506543963 #
plane-surface $-1 -1 $-1 9624.999999999996362 -174.9999999999986926 16150.00000000000182 -1 9.101885902721005213e-31 -4.379057701015053347e-47 -1.33473678726938831e-44 0 304.8000000000000114 forward_v I I I I #
coedge $-1 -1 $-1 $278 $272 $280 $379 reversed $158 $-1 #
edge $-1 -1 $-1 $374 0 $283 0.2624671916010470341 $281 $420 forward @7 unknown #
vertex $-1 -1 $-1 $385 $421 #
straight-curve $-1 -1 $-1 9625 -224.9999999999986642 16150.00000000000182 304.8000000000000114 0 0 F 0 F 1.804461942257219675 #
straight-curve $-1 -1 $-1 10175 -224.9999999999986642 16230 -304.8000000000000114 0 0 F 0 F 1.804461942257219675 #
straight-curve $-1 -1 $-1 9625 -174.9999999999986642 16230 304.8000000000000114 0 0 F 0 F 1.804461942257219675 #
coedge $-1 -1 $-1 $281 $280 $291 $385 forward $282 $-1 #
edge $-1 -1 $-1 $284 0 $386 0.2624671916010470341 $280 $422 forward @7 unknown #
point $-1 -1 $-1 9625 -224.9999999999986642 16230 #
point $-1 -1 $-1 9625 -174.9999999999986642 16230 #
straight-curve $-1 -1 $-1 10175 -174.9999999999986642 16230 0 -304.8000000000000114 0 F 0 F 0.1640419947506561726 #
point $-1 -1 $-1 10175 -174.9999999999986642 16230 #
point $-1 -1 $-1 10175 -224.9999999999986642 16230 #
edge $-1 -1 $-1 $386 0 $374 0.1640419947506561726 $378 $423 forward @7 unknown #
vertex $-1 -1 $-1 $385 $424 #
straight-curve $-1 -1 $-1 10175 -174.9999999999986642 16150.00000000000182 -304.8000000000000114 0 0 F 0 F 1.804461942257219675 #
plane-surface $-1 -1 $-1 10174.99999999999818 -825.0099999999986267 16150.00000000000182 1 -7.686036984519955521e-31 4.379057701015053347e-47 1.33473678726938831e-44 0 -304.8000000000000114 forward_v I I I I #
coedge $-1 -1 $-1 $303 $297 $305 $396 reversed $177 $-1 #
edge $-1 -1 $-1 $391 0 $308 0.2624671916010470341 $306 $425 forward @7 unknown #
vertex $-1 -1 $-1 $402 $426 #
straight-curve $-1 -1 $-1 10175 -775.009999999998854 16150.00000000000182 -304.8000000000000114 0 0 F 0 F 1.804461942257219675 #
straight-curve $-1 -1 $-1 9625 -775.009999999998854 16230 304.8000000000000114 0 0 F 0 F 1.804461942257219675 #
straight-curve $-1 -1 $-1 10175 -825.009999999998854 16230 -304.8000000000000114 0 0 F 0 F 1.804461942257219675 #
coedge $-1 -1 $-1 $306 $305 $316 $402 forward $307 $-1 #
edge $-1 -1 $-1 $309 0 $403 0.2624671916010470341 $305 $427 forward @7 unknown #
point $-1 -1 $-1 10175 -775.009999999998854 16230 #
point $-1 -1 $-1 10175 -825.009999999998854 16230 #
straight-curve $-1 -1 $-1 9625 -825.009999999998854 16230 0 304.8000000000000114 0 F 0 F 0.1640419947506561726 #
point $-1 -1 $-1 9625 -825.009999999998854 16230 #
point $-1 -1 $-1 9625 -775.009999999998854 16230 #
edge $-1 -1 $-1 $403 0 $391 0.1640419947506561726 $395 $428 forward @7 unknown #
vertex $-1 -1 $-1 $402 $429 #
straight-curve $-1 -1 $-1 9625 -825.009999999998854 16150.00000000000182 304.8000000000000114 0 0 F 0 F 1.804461942257219675 #
straight-curve $-1 -1 $-1 10175 -224.999999999998721 16150.00000000000182 0 0 304.8000000000000114 F 0 F 0.2624671916010470341 #
point $-1 -1 $-1 10175 -224.999999999998721 16150.00000000000182 #
straight-curve $-1 -1 $-1 10175 -775.009999999998854 16230 0 0 -304.8000000000000114 F 0 F 0.2624671916010470341 #
straight-curve $-1 -1 $-1 10175 -775.009999999998854 16150.00000000000182 0 304.8000000000000114 0 F 0 F 1.804494750656168156 #
point $-1 -1 $-1 10175 -775.009999999998854 16150.00000000000182 #
straight-curve $-1 -1 $-1 10175 -775.009999999998854 16150.00000000000182 0 0 304.8000000000000114 F 0 F 0.2624671916010470341 #
point $-1 -1 $-1 10175 -775.009999999998854 16150.00000000000182 #
straight-curve $-1 -1 $-1 10175 -224.999999999998721 16230 0 0 -304.8000000000000114 F 0 F 0.2624671916010470341 #
straight-curve $-1 -1 $-1 10175 -224.999999999998721 16150.00000000000182 0 -304.8000000000000114 0 F 0 F 1.804494750656168156 #
point $-1 -1 $-1 10175 -224.999999999998721 16150.00000000000182 #
straight-curve $-1 -1 $-1 9625 -224.999999999998721 16150.00000000000182 0 0 304.8000000000000114 F 0 F 0.2624671916010470341 #
point $-1 -1 $-1 9625 -224.999999999998721 16150.00000000000182 #
straight-curve $-1 -1 $-1 9625 -775.009999999998854 16230 0 0 -304.8000000000000114 F 0 F 0.2624671916010470341 #
straight-curve $-1 -1 $-1 9625 -775.009999999998854 16150.00000000000182 0 304.8000000000000114 0 F 0 F 1.804494750656168156 #
point $-1 -1 $-1 9625 -775.009999999998854 16150.00000000000182 #
straight-curve $-1 -1 $-1 9625 -224.9999999999986642 16150.00000000000182 0 0 304.8000000000000114 F 0 F 0.2624671916010470341 #
point $-1 -1 $-1 9625 -224.9999999999986642 16150.00000000000182 #
straight-curve $-1 -1 $-1 9625 -174.9999999999986642 16230 0 0 -304.8000000000000114 F 0 F 0.2624671916010470341 #
straight-curve $-1 -1 $-1 9625 -174.9999999999986642 16150.00000000000182 0 -304.8000000000000114 0 F 0 F 0.1640419947506561726 #
point $-1 -1 $-1 9625 -174.9999999999986642 16150.00000000000182 #
straight-curve $-1 -1 $-1 10175 -775.009999999998854 16150.00000000000182 0 0 304.8000000000000114 F 0 F 0.2624671916010470341 #
point $-1 -1 $-1 10175 -775.009999999998854 16150.00000000000182 #
straight-curve $-1 -1 $-1 10175 -825.009999999998854 16230 0 0 -304.8000000000000114 F 0 F 0.2624671916010470341 #
straight-curve $-1 -1 $-1 10175 -825.009999999998854 16150.00000000000182 0 304.8000000000000114 0 F 0 F 0.1640419947506561726 #
point $-1 -1 $-1 10175 -825.009999999998854 16150.00000000000182 #
End-of-ACIS-data 