700 0 5 0           
4 LibG 20 ASM 224.0.1.65535 NT 24 Wed Jul 17 12:56:14 2019 
1000 9.999999999999999547e-07 1.000000000000000036e-10 
body $-1 -1 $-1 $5 $-1 $6 #
body $-1 -1 $-1 $7 $-1 $8 #
body $-1 -1 $-1 $9 $-1 $10 #
body $-1 -1 $-1 $11 $-1 $12 #
body $-1 -1 $-1 $13 $-1 $14 #
lump $-1 -1 $-1 $-1 $15 $0 #
transform $-1 -1 1 0 0 0 1 0 0 0 1 0 0 0 1 no_rotate no_reflect no_shear #
lump $-1 -1 $-1 $-1 $16 $1 #
transform $-1 -1 1 0 0 0 1 0 0 0 1 0 0 0 1 no_rotate no_reflect no_shear #
lump $-1 -1 $-1 $-1 $17 $2 #
transform $-1 -1 1 0 0 0 1 0 0 0 1 0 0 0 1 no_rotate no_reflect no_shear #
lump $-1 -1 $-1 $-1 $18 $3 #
transform $-1 -1 1 0 0 0 1 0 0 0 1 0 0 0 1 no_rotate no_reflect no_shear #
lump $-1 -1 $-1 $-1 $19 $4 #
transform $-1 -1 1 0 0 0 1 0 0 0 1 0 0 0 1 no_rotate no_reflect no_shear #
shell $-1 -1 $-1 $-1 $-1 $20 $-1 $5 #
shell $-1 -1 $-1 $-1 $-1 $21 $-1 $7 #
shell $-1 -1 $-1 $-1 $-1 $22 $-1 $9 #
shell $-1 -1 $-1 $-1 $-1 $23 $-1 $11 #
shell $-1 -1 $-1 $-1 $-1 $24 $-1 $13 #
face $-1 -1 $-1 $25 $26 $15 $-1 $27 forward single #
face $-1 -1 $-1 $28 $29 $16 $-1 $30 forward single #
face $-1 -1 $-1 $31 $32 $17 $-1 $33 forward single #
face $-1 -1 $-1 $34 $35 $18 $-1 $36 forward single #
face $-1 -1 $-1 $37 $38 $19 $-1 $39 forward single #
face $-1 -1 $-1 $40 $41 $15 $-1 $42 forward single #
loop $-1 -1 $-1 $-1 $43 $20 #
plane-surface $-1 -1 $-1 3825 5724.999999999999091 16550 -3.401625431536677107e-31 -1 -1.064856656828871699e-30 0 3.245683090014401026e-28 -304.8000000000000114 forward_v I I I I #
face $-1 -1 $-1 $44 $45 $16 $-1 $46 forward single #
loop $-1 -1 $-1 $-1 $47 $21 #
plane-surface $-1 -1 $-1 4175.000000000000909 6425.000000000000909 16550 1.183174063143192022e-30 1 -4.141109221001168049e-30 0 1.262210090561156059e-27 304.8000000000000114 forward_v I I I I #
face $-1 -1 $-1 $48 $49 $17 $-1 $50 forward single #
loop $-1 -1 $-1 $-1 $51 $22 #
plane-surface $-1 -1 $-1 3825 5675 16550 -0 -1 -0 0 0 -304.8000000000000114 forward_v I I I I #
face $-1 -1 $-1 $52 $53 $18 $-1 $54 forward single #
loop $-1 -1 $-1 $-1 $55 $23 #
plane-surface $-1 -1 $-1 3825 6374.999999999998181 16550 2.758882749180345259e-29 1 -3.883471318494326386e-29 0 1.183682057877070683e-26 304.8000000000000114 forward_v I I I I #
face $-1 -1 $-1 $56 $57 $19 $-1 $58 forward single #
loop $-1 -1 $-1 $-1 $59 $24 #
plane-surface $-1 -1 $-1 4175.000000000000909 5724.999999999999091 16550 1.618113049372636228e-31 -1 1.294490439498108982e-29 0 -3.945606859590236088e-27 -304.8000000000000114 forward_v I I I I #
face $-1 -1 $-1 $60 $61 $15 $-1 $62 forward single #
loop $-1 -1 $-1 $-1 $63 $25 #
plane-surface $-1 -1 $-1 4175.000000000000909 6375 16630 2.187688842751757149e-31 -1.192290419299708209e-30 1 304.8000000000000114 0 -6.668075592707355625e-29 forward_v I I I I #
coedge $-1 -1 $-1 $64 $65 $66 $67 forward $26 $-1 #
face $-1 -1 $-1 $68 $69 $16 $-1 $70 forward single #
loop $-1 -1 $-1 $-1 $71 $28 #
plane-surface $-1 -1 $-1 3825.000000000000455 6375.000000000000909 16630 4.204464494663509847e-30 4.379057701015053347e-47 1 304.8000000000000114 0 -1.28152077797343781e-27 forward_v I I I I #
coedge $-1 -1 $-1 $72 $73 $74 $75 forward $29 $-1 #
face $-1 -1 $-1 $76 $77 $17 $-1 $78 forward single #
loop $-1 -1 $-1 $-1 $79 $31 #
plane-surface $-1 -1 $-1 4175.000000000000909 5725.000000000000909 16630 -7.178354015279160846e-31 -9.092581752686938706e-30 1 304.8000000000000114 0 2.187962303857088201e-28 forward_v I I I I #
coedge $-1 -1 $-1 $80 $81 $82 $83 forward $32 $-1 #
face $-1 -1 $-1 $84 $85 $18 $-1 $86 forward single #
loop $-1 -1 $-1 $-1 $87 $34 #
plane-surface $-1 -1 $-1 3775.000000000000455 5725 16630 -2.232335553828328179e-32 8.036407993781988451e-31 1 304.8000000000000114 0 6.8041587680687445e-30 forward_v I I I I #
coedge $-1 -1 $-1 $88 $89 $90 $91 forward $35 $-1 #
face $-1 -1 $-1 $92 $93 $19 $-1 $94 forward single #
loop $-1 -1 $-1 $-1 $95 $37 #
plane-surface $-1 -1 $-1 4225.000000000000909 6374.999999999998181 16630 -6.697006661484988917e-31 -2.857389508900263222e-30 1 304.8000000000000114 0 2.041247630420624779e-28 forward_v I I I I #
coedge $-1 -1 $-1 $96 $97 $98 $99 forward $38 $-1 #
face $-1 -1 $-1 $100 $101 $15 $-1 $102 forward single #
loop $-1 -1 $-1 $-1 $103 $40 #
plane-surface $-1 -1 $-1 3825.000000000000455 6375 16550 -1 2.7710451658049201e-31 -6.363140751107594303e-31 -1.939485300937594893e-28 0 304.8000000000000114 forward_v I I I I #
coedge $-1 -1 $-1 $104 $105 $106 $107 reversed $41 $-1 #
coedge $-1 -1 $-1 $108 $43 $109 $110 forward $26 $-1 #
coedge $-1 -1 $-1 $43 $108 $111 $112 reversed $26 $-1 #
coedge $-1 -1 $-1 $113 $114 $43 $67 reversed $115 $-1 #
edge $-1 -1 $-1 $116 0 $117 1.148293963254594985 $43 $118 forward @7 unknown #
face $-1 -1 $-1 $119 $120 $16 $-1 $121 forward single #
loop $-1 -1 $-1 $-1 $122 $44 #
plane-surface $-1 -1 $-1 4175.000000000000909 6375 16549.99999999999636 1 -1.294490439498087402e-29 2.588980878996174244e-29 7.891213719180338728e-27 0 -304.8000000000000114 forward_v I I I I #
coedge $-1 -1 $-1 $123 $124 $125 $126 reversed $45 $-1 #
coedge $-1 -1 $-1 $127 $47 $128 $129 forward $29 $-1 #
coedge $-1 -1 $-1 $47 $127 $130 $131 reversed $29 $-1 #
coedge $-1 -1 $-1 $132 $133 $47 $75 reversed $134 $-1 #
edge $-1 -1 $-1 $135 0 $136 1.148293963254594985 $47 $137 forward @7 unknown #
face $-1 -1 $-1 $138 $139 $17 $-1 $140 forward single #
loop $-1 -1 $-1 $-1 $141 $48 #
plane-surface $-1 -1 $-1 3825.000000000000455 5725 16549.99999999999636 -1 1.294490439498087402e-29 2.588980878996174244e-29 7.891213719180338728e-27 0 304.8000000000000114 forward_v I I I I #
coedge $-1 -1 $-1 $142 $143 $144 $145 reversed $49 $-1 #
coedge $-1 -1 $-1 $146 $51 $147 $148 forward $32 $-1 #
coedge $-1 -1 $-1 $51 $146 $149 $150 reversed $32 $-1 #
coedge $-1 -1 $-1 $151 $152 $51 $83 reversed $153 $-1 #
edge $-1 -1 $-1 $154 0 $155 1.148293963254594985 $51 $156 forward @7 unknown #
face $-1 -1 $-1 $157 $158 $18 $-1 $159 forward single #
loop $-1 -1 $-1 $-1 $160 $52 #
plane-surface $-1 -1 $-1 3825.000000000000455 5725 16550 1 -2.257888653618823347e-31 6.363140751107594303e-31 1.939485300937594893e-28 0 -304.8000000000000114 forward_v I I I I #
coedge $-1 -1 $-1 $161 $162 $163 $164 reversed $53 $-1 #
coedge $-1 -1 $-1 $165 $55 $166 $167 forward $35 $-1 #
coedge $-1 -1 $-1 $55 $165 $168 $169 reversed $35 $-1 #
coedge $-1 -1 $-1 $170 $171 $55 $91 reversed $172 $-1 #
edge $-1 -1 $-1 $173 0 $174 0.1640419947506543963 $55 $175 forward @7 unknown #
face $-1 -1 $-1 $176 $177 $19 $-1 $178 forward single #
loop $-1 -1 $-1 $-1 $179 $56 #
plane-surface $-1 -1 $-1 4175.000000000000909 6375 16550 -1 -2.7710451658049201e-31 6.363140751107594303e-31 1.939485300937594893e-28 0 304.8000000000000114 forward_v I I I I #
coedge $-1 -1 $-1 $180 $181 $182 $183 reversed $57 $-1 #
coedge $-1 -1 $-1 $184 $59 $185 $186 forward $38 $-1 #
coedge $-1 -1 $-1 $59 $184 $187 $188 reversed $38 $-1 #
coedge $-1 -1 $-1 $189 $190 $59 $99 reversed $191 $-1 #
edge $-1 -1 $-1 $192 0 $193 0.1640419947506543963 $59 $194 forward @7 unknown #
face $-1 -1 $-1 $195 $115 $15 $-1 $196 reversed single #
loop $-1 -1 $-1 $-1 $197 $60 #
plane-surface $-1 -1 $-1 4175.000000000000909 5725 16550 1 2.257888653618823347e-31 -6.363140751107594303e-31 -1.939485300937594893e-28 0 -304.8000000000000114 forward_v I I I I #
coedge $-1 -1 $-1 $111 $198 $113 $199 forward $61 $-1 #
coedge $-1 -1 $-1 $200 $63 $201 $202 reversed $41 $-1 #
coedge $-1 -1 $-1 $63 $200 $203 $204 reversed $41 $-1 #
coedge $-1 -1 $-1 $205 $206 $63 $107 forward $207 $-1 #
edge $-1 -1 $-1 $208 0 $209 1.148293963254594985 $106 $210 forward @7 unknown #
coedge $-1 -1 $-1 $65 $64 $200 $211 forward $26 $-1 #
coedge $-1 -1 $-1 $197 $203 $64 $110 reversed $101 $-1 #
edge $-1 -1 $-1 $117 0 $212 0.2624671916010470341 $64 $213 forward @7 unknown #
coedge $-1 -1 $-1 $201 $103 $65 $112 forward $61 $-1 #
edge $-1 -1 $-1 $116 0 $214 0.2624671916010470341 $111 $215 forward @7 unknown #
coedge $-1 -1 $-1 $216 $66 $103 $199 reversed $115 $-1 #
coedge $-1 -1 $-1 $66 $216 $197 $217 reversed $115 $-1 #
loop $-1 -1 $-1 $-1 $114 $100 #
vertex $-1 -1 $-1 $199 $218 #
vertex $-1 -1 $-1 $67 $219 #
straight-curve $-1 -1 $-1 3825 5725 16550 304.8000000000000114 0 0 F 0 F 1.148293963254594985 #
face $-1 -1 $-1 $220 $134 $16 $-1 $221 reversed single #
loop $-1 -1 $-1 $-1 $222 $68 #
plane-surface $-1 -1 $-1 3825.000000000000455 6425 16549.99999999999636 -1 4.203895392974451213e-45 2.588980878996174805e-29 7.891213719180341598e-27 0 304.8000000000000114 forward_v I I I I #
coedge $-1 -1 $-1 $130 $223 $132 $224 forward $69 $-1 #
coedge $-1 -1 $-1 $225 $71 $226 $227 reversed $45 $-1 #
coedge $-1 -1 $-1 $71 $225 $228 $229 reversed $45 $-1 #
coedge $-1 -1 $-1 $230 $231 $71 $126 forward $232 $-1 #
edge $-1 -1 $-1 $233 0 $234 1.148293963254594985 $125 $235 forward @7 unknown #
coedge $-1 -1 $-1 $73 $72 $225 $236 forward $29 $-1 #
coedge $-1 -1 $-1 $222 $228 $72 $129 reversed $120 $-1 #
edge $-1 -1 $-1 $136 0 $237 0.2624671916010470341 $72 $238 forward @7 unknown #
coedge $-1 -1 $-1 $226 $122 $73 $131 forward $69 $-1 #
edge $-1 -1 $-1 $135 0 $239 0.2624671916010470341 $130 $240 forward @7 unknown #
coedge $-1 -1 $-1 $241 $74 $122 $224 reversed $134 $-1 #
coedge $-1 -1 $-1 $74 $241 $222 $242 reversed $134 $-1 #
loop $-1 -1 $-1 $-1 $133 $119 #
vertex $-1 -1 $-1 $224 $243 #
vertex $-1 -1 $-1 $75 $244 #
straight-curve $-1 -1 $-1 4175.000000000000909 6425 16550 -304.8000000000000114 0 0 F 0 F 1.148293963254594985 #
face $-1 -1 $-1 $245 $153 $17 $-1 $246 reversed single #
loop $-1 -1 $-1 $-1 $247 $76 #
plane-surface $-1 -1 $-1 4175.000000000000909 5674.999999999998181 16549.99999999999636 1 1.294490439498086842e-29 2.588980878996173683e-29 7.891213719180337293e-27 0 -304.8000000000000114 forward_v I I I I #
coedge $-1 -1 $-1 $149 $248 $151 $249 forward $77 $-1 #
coedge $-1 -1 $-1 $250 $79 $251 $252 reversed $49 $-1 #
coedge $-1 -1 $-1 $79 $250 $253 $254 reversed $49 $-1 #
coedge $-1 -1 $-1 $255 $256 $79 $145 forward $257 $-1 #
edge $-1 -1 $-1 $258 0 $259 1.148293963254594985 $144 $260 forward @7 unknown #
coedge $-1 -1 $-1 $81 $80 $250 $261 forward $32 $-1 #
coedge $-1 -1 $-1 $247 $253 $80 $148 reversed $139 $-1 #
edge $-1 -1 $-1 $155 0 $262 0.2624671916010470341 $80 $263 forward @7 unknown #
coedge $-1 -1 $-1 $251 $141 $81 $150 forward $77 $-1 #
edge $-1 -1 $-1 $154 0 $264 0.2624671916010470341 $149 $265 forward @7 unknown #
coedge $-1 -1 $-1 $266 $82 $141 $249 reversed $153 $-1 #
coedge $-1 -1 $-1 $82 $266 $247 $267 reversed $153 $-1 #
loop $-1 -1 $-1 $-1 $152 $138 #
vertex $-1 -1 $-1 $249 $268 #
vertex $-1 -1 $-1 $83 $269 #
straight-curve $-1 -1 $-1 3825 5675 16550 304.8000000000000114 0 0 F 0 F 1.148293963254594985 #
face $-1 -1 $-1 $270 $172 $18 $-1 $271 reversed single #
loop $-1 -1 $-1 $-1 $272 $84 #
plane-surface $-1 -1 $-1 3775 6375 16550 -1 -5.234196424298183286e-31 1.159733717540577759e-30 3.534868371063681037e-28 0 304.8000000000000114 forward_v I I I I #
coedge $-1 -1 $-1 $168 $273 $170 $274 forward $85 $-1 #
coedge $-1 -1 $-1 $275 $87 $276 $277 reversed $53 $-1 #
coedge $-1 -1 $-1 $87 $275 $278 $279 reversed $53 $-1 #
coedge $-1 -1 $-1 $280 $281 $87 $164 forward $282 $-1 #
edge $-1 -1 $-1 $283 0 $284 0.1640419947506543963 $163 $285 forward @7 unknown #
coedge $-1 -1 $-1 $89 $88 $275 $286 forward $35 $-1 #
coedge $-1 -1 $-1 $272 $278 $88 $167 reversed $158 $-1 #
edge $-1 -1 $-1 $174 0 $287 0.2624671916010470341 $88 $288 forward @7 unknown #
coedge $-1 -1 $-1 $276 $160 $89 $169 forward $85 $-1 #
edge $-1 -1 $-1 $173 0 $289 0.2624671916010470341 $168 $290 forward @7 unknown #
coedge $-1 -1 $-1 $291 $90 $160 $274 reversed $172 $-1 #
coedge $-1 -1 $-1 $90 $291 $272 $292 reversed $172 $-1 #
loop $-1 -1 $-1 $-1 $171 $157 #
vertex $-1 -1 $-1 $274 $293 #
vertex $-1 -1 $-1 $91 $294 #
straight-curve $-1 -1 $-1 3825 6375 16550 -304.8000000000000114 0 0 F 0 F 0.1640419947506543963 #
face $-1 -1 $-1 $295 $191 $19 $-1 $296 reversed single #
loop $-1 -1 $-1 $-1 $297 $92 #
plane-surface $-1 -1 $-1 4225.000000000000909 5725 16550 1 -5.028933819423742133e-31 1.159733717540577759e-30 3.534868371063681037e-28 0 -304.8000000000000114 forward_v I I I I #
coedge $-1 -1 $-1 $187 $298 $189 $299 forward $93 $-1 #
coedge $-1 -1 $-1 $300 $95 $301 $302 reversed $57 $-1 #
coedge $-1 -1 $-1 $95 $300 $303 $304 reversed $57 $-1 #
coedge $-1 -1 $-1 $305 $306 $95 $183 forward $307 $-1 #
edge $-1 -1 $-1 $308 0 $309 0.1640419947506543963 $182 $310 forward @7 unknown #
coedge $-1 -1 $-1 $97 $96 $300 $311 forward $38 $-1 #
coedge $-1 -1 $-1 $297 $303 $96 $186 reversed $177 $-1 #
edge $-1 -1 $-1 $193 0 $312 0.2624671916010470341 $96 $313 forward @7 unknown #
coedge $-1 -1 $-1 $301 $179 $97 $188 forward $93 $-1 #
edge $-1 -1 $-1 $192 0 $314 0.2624671916010470341 $187 $315 forward @7 unknown #
coedge $-1 -1 $-1 $316 $98 $179 $299 reversed $191 $-1 #
coedge $-1 -1 $-1 $98 $316 $297 $317 reversed $191 $-1 #
loop $-1 -1 $-1 $-1 $190 $176 #
vertex $-1 -1 $-1 $299 $318 #
vertex $-1 -1 $-1 $99 $319 #
straight-curve $-1 -1 $-1 4175.000000000000909 5725 16550 304.8000000000000114 0 0 F 0 F 0.1640419947506543963 #
face $-1 -1 $-1 $-1 $207 $15 $-1 $320 forward single #
plane-surface $-1 -1 $-1 4175.000000000000909 6375 16550 4.375377685503514298e-31 -2.384580838599416418e-30 1 304.8000000000000114 0 -1.333615118541471125e-28 forward_v I I I I #
coedge $-1 -1 $-1 $321 $109 $114 $217 forward $101 $-1 #
coedge $-1 -1 $-1 $103 $201 $206 $322 reversed $61 $-1 #
edge $-1 -1 $-1 $323 0 $116 2.132545931758528468 $103 $324 forward @7 unknown #
coedge $-1 -1 $-1 $105 $104 $108 $211 reversed $41 $-1 #
coedge $-1 -1 $-1 $198 $111 $104 $202 forward $61 $-1 #
edge $-1 -1 $-1 $214 0 $208 2.132545931758528468 $201 $325 forward @7 unknown #
coedge $-1 -1 $-1 $109 $321 $105 $204 forward $101 $-1 #
edge $-1 -1 $-1 $209 0 $212 2.132545931758528468 $203 $326 forward @7 unknown #
coedge $-1 -1 $-1 $327 $106 $321 $328 forward $207 $-1 #
coedge $-1 -1 $-1 $106 $327 $198 $322 forward $207 $-1 #
loop $-1 -1 $-1 $-1 $327 $195 #
vertex $-1 -1 $-1 $322 $329 #
vertex $-1 -1 $-1 $107 $330 #
straight-curve $-1 -1 $-1 3825 6375 16630 304.8000000000000114 0 0 F 0 F 1.148293963254594985 #
edge $-1 -1 $-1 $212 0 $214 1.148293963254594985 $108 $331 forward @7 unknown #
vertex $-1 -1 $-1 $110 $332 #
straight-curve $-1 -1 $-1 4175.000000000000909 5725 16550 0 0 304.8000000000000114 F 0 F 0.2624671916010470341 #
vertex $-1 -1 $-1 $112 $333 #
straight-curve $-1 -1 $-1 3825 5725 16550 0 0 304.8000000000000114 F 0 F 0.2624671916010470341 #
coedge $-1 -1 $-1 $114 $113 $327 $334 reversed $115 $-1 #
edge $-1 -1 $-1 $117 0 $335 2.132545931758528468 $197 $336 forward @7 unknown #
point $-1 -1 $-1 3825 5725 16550 #
point $-1 -1 $-1 4175.000000000000909 5725 16550 #
face $-1 -1 $-1 $-1 $232 $16 $-1 $337 forward single #
plane-surface $-1 -1 $-1 3825.000000000000455 6375.000000000000909 16550 8.408928989327019694e-30 8.758115402030106693e-47 1 304.8000000000000114 0 -2.563041555946875621e-27 forward_v I I I I #
coedge $-1 -1 $-1 $338 $128 $133 $242 forward $120 $-1 #
coedge $-1 -1 $-1 $122 $226 $231 $339 reversed $69 $-1 #
edge $-1 -1 $-1 $340 0 $135 0.164041994750657949 $122 $341 forward @7 unknown #
coedge $-1 -1 $-1 $124 $123 $127 $236 reversed $45 $-1 #
coedge $-1 -1 $-1 $223 $130 $123 $227 forward $69 $-1 #
edge $-1 -1 $-1 $239 0 $233 0.164041994750657949 $226 $342 forward @7 unknown #
coedge $-1 -1 $-1 $128 $338 $124 $229 forward $120 $-1 #
edge $-1 -1 $-1 $234 0 $237 0.164041994750657949 $228 $343 forward @7 unknown #
coedge $-1 -1 $-1 $344 $125 $338 $345 forward $232 $-1 #
coedge $-1 -1 $-1 $125 $344 $223 $339 forward $232 $-1 #
loop $-1 -1 $-1 $-1 $344 $220 #
vertex $-1 -1 $-1 $339 $346 #
vertex $-1 -1 $-1 $126 $347 #
straight-curve $-1 -1 $-1 4175.000000000000909 6375 16630 -304.8000000000000114 0 0 F 0 F 1.148293963254594985 #
edge $-1 -1 $-1 $237 0 $239 1.148293963254594985 $127 $348 forward @7 unknown #
vertex $-1 -1 $-1 $129 $349 #
straight-curve $-1 -1 $-1 3825 6425 16550 0 0 304.8000000000000114 F 0 F 0.2624671916010470341 #
vertex $-1 -1 $-1 $131 $350 #
straight-curve $-1 -1 $-1 4175.000000000000909 6425 16550 0 0 304.8000000000000114 F 0 F 0.2624671916010470341 #
coedge $-1 -1 $-1 $133 $132 $344 $351 reversed $134 $-1 #
edge $-1 -1 $-1 $136 0 $352 0.164041994750657949 $222 $353 forward @7 unknown #
point $-1 -1 $-1 4175.000000000000909 6425 16550 #
point $-1 -1 $-1 3825 6425 16550 #
face $-1 -1 $-1 $-1 $257 $17 $-1 $354 forward single #
plane-surface $-1 -1 $-1 4175.000000000000909 5725.000000000000909 16550 -1.435670803055832169e-30 -1.818516350537387741e-29 1 304.8000000000000114 0 4.375924607714176401e-28 forward_v I I I I #
coedge $-1 -1 $-1 $355 $147 $152 $267 forward $139 $-1 #
coedge $-1 -1 $-1 $141 $251 $256 $356 reversed $77 $-1 #
edge $-1 -1 $-1 $357 0 $154 0.164041994750657949 $141 $358 forward @7 unknown #
coedge $-1 -1 $-1 $143 $142 $146 $261 reversed $49 $-1 #
coedge $-1 -1 $-1 $248 $149 $142 $252 forward $77 $-1 #
edge $-1 -1 $-1 $264 0 $258 0.164041994750657949 $251 $359 forward @7 unknown #
coedge $-1 -1 $-1 $147 $355 $143 $254 forward $139 $-1 #
edge $-1 -1 $-1 $259 0 $262 0.164041994750657949 $253 $360 forward @7 unknown #
coedge $-1 -1 $-1 $361 $144 $355 $362 forward $257 $-1 #
coedge $-1 -1 $-1 $144 $361 $248 $356 forward $257 $-1 #
loop $-1 -1 $-1 $-1 $361 $245 #
vertex $-1 -1 $-1 $356 $363 #
vertex $-1 -1 $-1 $145 $364 #
straight-curve $-1 -1 $-1 3825 5725 16630 304.8000000000000114 0 0 F 0 F 1.148293963254594985 #
edge $-1 -1 $-1 $262 0 $264 1.148293963254594985 $146 $365 forward @7 unknown #
vertex $-1 -1 $-1 $148 $366 #
straight-curve $-1 -1 $-1 4175.000000000000909 5675 16550 0 0 304.8000000000000114 F 0 F 0.2624671916010470341 #
vertex $-1 -1 $-1 $150 $367 #
straight-curve $-1 -1 $-1 3825 5675 16550 0 0 304.8000000000000114 F 0 F 0.2624671916010470341 #
coedge $-1 -1 $-1 $152 $151 $361 $368 reversed $153 $-1 #
edge $-1 -1 $-1 $155 0 $369 0.164041994750657949 $247 $370 forward @7 unknown #
point $-1 -1 $-1 3825 5675 16550 #
point $-1 -1 $-1 4175.000000000000909 5675 16550 #
face $-1 -1 $-1 $-1 $282 $18 $-1 $371 forward single #
plane-surface $-1 -1 $-1 3775.000000000000455 5725 16550 -4.464671107656656358e-32 1.60728159875639769e-30 1 304.8000000000000114 0 1.3608317536137489e-29 forward_v I I I I #
coedge $-1 -1 $-1 $372 $166 $171 $292 forward $158 $-1 #
coedge $-1 -1 $-1 $160 $276 $281 $373 reversed $85 $-1 #
edge $-1 -1 $-1 $374 0 $173 2.132545931758528468 $160 $375 forward @7 unknown #
coedge $-1 -1 $-1 $162 $161 $165 $286 reversed $53 $-1 #
coedge $-1 -1 $-1 $273 $168 $161 $277 forward $85 $-1 #
edge $-1 -1 $-1 $289 0 $283 2.132545931758528468 $276 $376 forward @7 unknown #
coedge $-1 -1 $-1 $166 $372 $162 $279 forward $158 $-1 #
edge $-1 -1 $-1 $284 0 $287 2.132545931758528468 $278 $377 forward @7 unknown #
coedge $-1 -1 $-1 $378 $163 $372 $379 forward $282 $-1 #
coedge $-1 -1 $-1 $163 $378 $273 $373 forward $282 $-1 #
loop $-1 -1 $-1 $-1 $378 $270 #
vertex $-1 -1 $-1 $373 $380 #
vertex $-1 -1 $-1 $164 $381 #
straight-curve $-1 -1 $-1 3825 5725 16630 -304.8000000000000114 0 0 F 0 F 0.1640419947506543963 #
edge $-1 -1 $-1 $287 0 $289 0.1640419947506543963 $165 $382 forward @7 unknown #
vertex $-1 -1 $-1 $167 $383 #
straight-curve $-1 -1 $-1 3775.000000000000455 6375 16550 0 0 304.8000000000000114 F 0 F 0.2624671916010470341 #
vertex $-1 -1 $-1 $169 $384 #
straight-curve $-1 -1 $-1 3825 6375 16550 0 0 304.8000000000000114 F 0 F 0.2624671916010470341 #
coedge $-1 -1 $-1 $171 $170 $378 $385 reversed $172 $-1 #
edge $-1 -1 $-1 $174 0 $386 2.132545931758528468 $272 $387 forward @7 unknown #
point $-1 -1 $-1 3825 6375 16550 #
point $-1 -1 $-1 3775.000000000000455 6375 16550 #
face $-1 -1 $-1 $-1 $307 $19 $-1 $388 forward single #
plane-surface $-1 -1 $-1 4225.000000000000909 6374.999999999998181 16550 -1.339401332296997783e-30 -5.714779017800526445e-30 1 304.8000000000000114 0 4.082495260841249559e-28 forward_v I I I I #
coedge $-1 -1 $-1 $389 $185 $190 $317 forward $177 $-1 #
coedge $-1 -1 $-1 $179 $301 $306 $390 reversed $93 $-1 #
edge $-1 -1 $-1 $391 0 $192 2.132545931758528468 $179 $392 forward @7 unknown #
coedge $-1 -1 $-1 $181 $180 $184 $311 reversed $57 $-1 #
coedge $-1 -1 $-1 $298 $187 $180 $302 forward $93 $-1 #
edge $-1 -1 $-1 $314 0 $308 2.132545931758528468 $301 $393 forward @7 unknown #
coedge $-1 -1 $-1 $185 $389 $181 $304 forward $177 $-1 #
edge $-1 -1 $-1 $309 0 $312 2.132545931758528468 $303 $394 forward @7 unknown #
coedge $-1 -1 $-1 $395 $182 $389 $396 forward $307 $-1 #
coedge $-1 -1 $-1 $182 $395 $298 $390 forward $307 $-1 #
loop $-1 -1 $-1 $-1 $395 $295 #
vertex $-1 -1 $-1 $390 $397 #
vertex $-1 -1 $-1 $183 $398 #
straight-curve $-1 -1 $-1 4175.000000000000909 6375 16630 304.8000000000000114 0 0 F 0 F 0.1640419947506543963 #
edge $-1 -1 $-1 $312 0 $314 0.1640419947506543963 $184 $399 forward @7 unknown #
vertex $-1 -1 $-1 $186 $400 #
straight-curve $-1 -1 $-1 4225 5725 16550 0 0 304.8000000000000114 F 0 F 0.2624671916010470341 #
vertex $-1 -1 $-1 $188 $401 #
straight-curve $-1 -1 $-1 4175.000000000000909 5725 16550 0 0 304.8000000000000114 F 0 F 0.2624671916010470341 #
coedge $-1 -1 $-1 $190 $189 $395 $402 reversed $191 $-1 #
edge $-1 -1 $-1 $193 0 $403 2.132545931758528468 $297 $404 forward @7 unknown #
point $-1 -1 $-1 4175.000000000000909 5725 16550 #
point $-1 -1 $-1 4225 5725 16550 #
plane-surface $-1 -1 $-1 4175.000000000000909 6374.999999999998181 16550 -1.183174063143192022e-30 1 4.141109221001168049e-30 0 -1.262210090561156059e-27 304.8000000000000114 forward_v I I I I #
coedge $-1 -1 $-1 $203 $197 $205 $328 reversed $101 $-1 #
edge $-1 -1 $-1 $323 0 $208 0.2624671916010470341 $206 $405 forward @7 unknown #
vertex $-1 -1 $-1 $334 $406 #
straight-curve $-1 -1 $-1 3825 6375 16550 0 -304.8000000000000114 0 F 0 F 2.132545931758528468 #
straight-curve $-1 -1 $-1 3825 5725 16630 0 304.8000000000000114 0 F 0 F 2.132545931758528468 #
straight-curve $-1 -1 $-1 4175.000000000000909 6375 16630 0 -304.8000000000000114 0 F 0 F 2.132545931758528468 #
coedge $-1 -1 $-1 $206 $205 $216 $334 forward $207 $-1 #
edge $-1 -1 $-1 $209 0 $335 0.2624671916010470341 $205 $407 forward @7 unknown #
point $-1 -1 $-1 3825 6375 16630 #
point $-1 -1 $-1 4175.000000000000909 6375 16630 #
straight-curve $-1 -1 $-1 4175.000000000000909 5725 16630 -304.8000000000000114 0 0 F 0 F 1.148293963254594985 #
point $-1 -1 $-1 4175.000000000000909 5725 16630 #
point $-1 -1 $-1 3825 5725 16630 #
edge $-1 -1 $-1 $335 0 $323 1.148293963254594985 $327 $408 forward @7 unknown #
vertex $-1 -1 $-1 $334 $409 #
straight-curve $-1 -1 $-1 4175.000000000000909 5725 16550 0 304.8000000000000114 0 F 0 F 2.132545931758528468 #
plane-surface $-1 -1 $-1 3825 6374.999999999998181 16550 -1.183174063143192022e-30 -1 -4.141109221001168049e-30 0 1.262210090561156059e-27 -304.8000000000000114 forward_v I I I I #
coedge $-1 -1 $-1 $228 $222 $230 $345 reversed $120 $-1 #
edge $-1 -1 $-1 $340 0 $233 0.2624671916010470341 $231 $410 forward @7 unknown #
vertex $-1 -1 $-1 $351 $411 #
straight-curve $-1 -1 $-1 4175.000000000000909 6375 16550 0 304.8000000000000114 0 F 0 F 0.164041994750657949 #
straight-curve $-1 -1 $-1 4175.000000000000909 6425 16630 0 -304.8000000000000114 0 F 0 F 0.164041994750657949 #
straight-curve $-1 -1 $-1 3825 6375 16630 0 304.8000000000000114 0 F 0 F 0.164041994750657949 #
coedge $-1 -1 $-1 $231 $230 $241 $351 forward $232 $-1 #
edge $-1 -1 $-1 $234 0 $352 0.2624671916010470341 $230 $412 forward @7 unknown #
point $-1 -1 $-1 4175.000000000000909 6375 16630 #
point $-1 -1 $-1 3825 6375 16630 #
straight-curve $-1 -1 $-1 3825 6425 16630 304.8000000000000114 0 0 F 0 F 1.148293963254594985 #
point $-1 -1 $-1 3825 6425 16630 #
point $-1 -1 $-1 4175.000000000000909 6425 16630 #
edge $-1 -1 $-1 $352 0 $340 1.148293963254594985 $344 $413 forward @7 unknown #
vertex $-1 -1 $-1 $351 $414 #
straight-curve $-1 -1 $-1 3825 6425 16550 0 -304.8000000000000114 0 F 0 F 0.164041994750657949 #
plane-surface $-1 -1 $-1 4175.000000000000909 5724.999999999999091 16550 -3.401625431536677107e-31 1 1.064856656828871699e-30 0 -3.245683090014401026e-28 304.8000000000000114 forward_v I I I I #
coedge $-1 -1 $-1 $253 $247 $255 $362 reversed $139 $-1 #
edge $-1 -1 $-1 $357 0 $258 0.2624671916010470341 $256 $415 forward @7 unknown #
vertex $-1 -1 $-1 $368 $416 #
straight-curve $-1 -1 $-1 3825 5725 16550 0 -304.8000000000000114 0 F 0 F 0.164041994750657949 #
straight-curve $-1 -1 $-1 3825 5675 16630 0 304.8000000000000114 0 F 0 F 0.164041994750657949 #
straight-curve $-1 -1 $-1 4175.000000000000909 5725 16630 0 -304.8000000000000114 0 F 0 F 0.164041994750657949 #
coedge $-1 -1 $-1 $256 $255 $266 $368 forward $257 $-1 #
edge $-1 -1 $-1 $259 0 $369 0.2624671916010470341 $255 $417 forward @7 unknown #
point $-1 -1 $-1 3825 5725 16630 #
point $-1 -1 $-1 4175.000000000000909 5725 16630 #
straight-curve $-1 -1 $-1 4175.000000000000909 5675 16630 -304.8000000000000114 0 0 F 0 F 1.148293963254594985 #
point $-1 -1 $-1 4175.000000000000909 5675 16630 #
point $-1 -1 $-1 3825 5675 16630 #
edge $-1 -1 $-1 $369 0 $357 1.148293963254594985 $361 $418 forward @7 unknown #
vertex $-1 -1 $-1 $368 $419 #
straight-curve $-1 -1 $-1 4175.000000000000909 5675 16550 0 304.8000000000000114 0 F 0 F 0.164041994750657949 #
plane-surface $-1 -1 $-1 3775.000000000000455 5724.999999999999091 16550 3.155320446276640644e-30 -1 1.294490439498108982e-29 0 -3.945606859590236088e-27 -304.8000000000000114 forward_v I I I I #
coedge $-1 -1 $-1 $278 $272 $280 $379 reversed $158 $-1 #
edge $-1 -1 $-1 $374 0 $283 0.2624671916010470341 $281 $420 forward @7 unknown #
vertex $-1 -1 $-1 $385 $421 #
straight-curve $-1 -1 $-1 3825 5725 16550 0 304.8000000000000114 0 F 0 F 2.132545931758528468 #
straight-curve $-1 -1 $-1 3825 6375 16630 0 -304.8000000000000114 0 F 0 F 2.132545931758528468 #
straight-curve $-1 -1 $-1 3775.000000000000455 5725 16630 0 304.8000000000000114 0 F 0 F 2.132545931758528468 #
coedge $-1 -1 $-1 $281 $280 $291 $385 forward $282 $-1 #
edge $-1 -1 $-1 $284 0 $386 0.2624671916010470341 $280 $422 forward @7 unknown #
point $-1 -1 $-1 3825 5725 16630 #
point $-1 -1 $-1 3775.000000000000455 5725 16630 #
straight-curve $-1 -1 $-1 3775.000000000000455 6375 16630 304.8000000000000114 0 0 F 0 F 0.1640419947506543963 #
point $-1 -1 $-1 3775.000000000000455 6375 16630 #
point $-1 -1 $-1 3825 6375 16630 #
edge $-1 -1 $-1 $386 0 $374 0.1640419947506543963 $378 $423 forward @7 unknown #
vertex $-1 -1 $-1 $385 $424 #
straight-curve $-1 -1 $-1 3775.000000000000455 6375 16550 0 -304.8000000000000114 0 F 0 F 2.132545931758528468 #
plane-surface $-1 -1 $-1 4225 6374.999999999998181 16550 2.071184703196975212e-29 1 -3.883471318494326947e-29 0 1.183682057877070826e-26 304.8000000000000114 forward_v I I I I #
coedge $-1 -1 $-1 $303 $297 $305 $396 reversed $177 $-1 #
edge $-1 -1 $-1 $391 0 $308 0.2624671916010470341 $306 $425 forward @7 unknown #
vertex $-1 -1 $-1 $402 $426 #
straight-curve $-1 -1 $-1 4175.000000000000909 6375 16550 0 -304.8000000000000114 0 F 0 F 2.132545931758528468 #
straight-curve $-1 -1 $-1 4175.000000000000909 5725 16630 0 304.8000000000000114 0 F 0 F 2.132545931758528468 #
straight-curve $-1 -1 $-1 4225 6375 16630 0 -304.8000000000000114 0 F 0 F 2.132545931758528468 #
coedge $-1 -1 $-1 $306 $305 $316 $402 forward $307 $-1 #
edge $-1 -1 $-1 $309 0 $403 0.2624671916010470341 $305 $427 forward @7 unknown #
point $-1 -1 $-1 4175.000000000000909 6375 16630 #
point $-1 -1 $-1 4225 6375 16630 #
straight-curve $-1 -1 $-1 4225 5725 16630 -304.8000000000000114 0 0 F 0 F 0.1640419947506543963 #
point $-1 -1 $-1 4225 5725 16630 #
point $-1 -1 $-1 4175.000000000000909 5725 16630 #
edge $-1 -1 $-1 $403 0 $391 0.1640419947506543963 $395 $428 forward @7 unknown #
vertex $-1 -1 $-1 $402 $429 #
straight-curve $-1 -1 $-1 4225 5725 16550 0 304.8000000000000114 0 F 0 F 2.132545931758528468 #
straight-curve $-1 -1 $-1 3825 6375 16550 0 0 304.8000000000000114 F 0 F 0.2624671916010470341 #
point $-1 -1 $-1 3825 6375 16550 #
straight-curve $-1 -1 $-1 4175.000000000000909 6375 16630 0 0 -304.8000000000000114 F 0 F 0.2624671916010470341 #
straight-curve $-1 -1 $-1 4175.000000000000909 6375 16550 -304.8000000000000114 0 0 F 0 F 1.148293963254594985 #
point $-1 -1 $-1 4175.000000000000909 6375 16550 #
straight-curve $-1 -1 $-1 4175.000000000000909 6375 16550 0 0 304.8000000000000114 F 0 F 0.2624671916010470341 #
point $-1 -1 $-1 4175.000000000000909 6375 16550 #
straight-curve $-1 -1 $-1 3825 6375 16630 0 0 -304.8000000000000114 F 0 F 0.2624671916010470341 #
straight-curve $-1 -1 $-1 3825 6375 16550 304.8000000000000114 0 0 F 0 F 1.148293963254594985 #
point $-1 -1 $-1 3825 6375 16550 #
straight-curve $-1 -1 $-1 3825 5725 16550 0 0 304.8000000000000114 F 0 F 0.2624671916010470341 #
point $-1 -1 $-1 3825 5725 16550 #
straight-curve $-1 -1 $-1 4175.000000000000909 5725 16630 0 0 -304.8000000000000114 F 0 F 0.2624671916010470341 #
straight-curve $-1 -1 $-1 4175.000000000000909 5725 16550 -304.8000000000000114 0 0 F 0 F 1.148293963254594985 #
point $-1 -1 $-1 4175.000000000000909 5725 16550 #
straight-curve $-1 -1 $-1 3825 5725 16550 0 0 304.8000000000000114 F 0 F 0.2624671916010470341 #
point $-1 -1 $-1 3825 5725 16550 #
straight-curve $-1 -1 $-1 3775.000000000000455 5725 16630 0 0 -304.8000000000000114 F 0 F 0.2624671916010470341 #
straight-curve $-1 -1 $-1 3775.000000000000455 5725 16550 304.8000000000000114 0 0 F 0 F 0.1640419947506543963 #
point $-1 -1 $-1 3775.000000000000455 5725 16550 #
straight-curve $-1 -1 $-1 4175.000000000000909 6375 16550 0 0 304.8000000000000114 F 0 F 0.2624671916010470341 #
point $-1 -1 $-1 4175.000000000000909 6375 16550 #
straight-curve $-1 -1 $-1 4225 6375 16630 0 0 -304.8000000000000114 F 0 F 0.2624671916010470341 #
straight-curve $-1 -1 $-1 4225 6375 16550 -304.8000000000000114 0 0 F 0 F 0.1640419947506543963 #
point $-1 -1 $-1 4225 6375 16550 #
End-of-ACIS-data 