700 0 2 0           
4 LibG 20 ASM 224.0.1.65535 NT 24 Tue Jul 16 17:00:28 2019 
1000 9.999999999999999547e-07 1.000000000000000036e-10 
body $-1 -1 $-1 $2 $-1 $3 #
body $-1 -1 $-1 $4 $-1 $5 #
lump $-1 -1 $-1 $-1 $6 $0 #
transform $-1 -1 1 0 0 0 1 0 0 0 1 0 0 0 1 no_rotate no_reflect no_shear #
lump $-1 -1 $-1 $-1 $7 $1 #
transform $-1 -1 1 0 0 0 1 0 0 0 1 0 0 0 1 no_rotate no_reflect no_shear #
shell $-1 -1 $-1 $-1 $-1 $8 $-1 $2 #
shell $-1 -1 $-1 $-1 $-1 $9 $-1 $4 #
face $-1 -1 $-1 $10 $11 $6 $-1 $12 forward single #
face $-1 -1 $-1 $13 $14 $7 $-1 $15 forward single #
face $-1 -1 $-1 $16 $17 $6 $-1 $18 forward single #
loop $-1 -1 $-1 $-1 $19 $8 #
plane-surface $-1 -1 $-1 575.0000000000003411 -2175.019999999999982 15650.00000000000182 -1 -1.142792341119348929e-30 -7.928753941925324767e-30 -2.416684201498839054e-27 0 304.8000000000000114 forward_v I I I I #
face $-1 -1 $-1 $20 $21 $7 $-1 $22 forward single #
loop $-1 -1 $-1 $-1 $23 $9 #
plane-surface $-1 -1 $-1 575.0000000000003411 -2175.019999999999072 15730.00000000000546 -1 1.335259303437376307e-32 -2.67051860687471583e-30 -8.1397407137541335e-28 0 304.8000000000000114 forward_v I I I I #
face $-1 -1 $-1 $24 $25 $6 $-1 $26 forward single #
loop $-1 -1 $-1 $-1 $27 $10 #
plane-surface $-1 -1 $-1 625.0000000000004547 -2225.019999999999982 15730.00000000000546 1.695458853132612156e-29 -1.093844421375878268e-30 1 304.8000000000000114 0 -5.167758584348202e-27 forward_v I I I I #
coedge $-1 -1 $-1 $28 $29 $30 $31 forward $11 $-1 #
face $-1 -1 $-1 $32 $33 $7 $-1 $34 forward single #
loop $-1 -1 $-1 $-1 $35 $13 #
plane-surface $-1 -1 $-1 625.0000000000004547 -2225.019999999999072 16000.00000000000364 -3.527648258937208956e-29 -2.308011729103103201e-28 1 304.8000000000000114 0 1.075227189324061312e-26 forward_v I I I I #
coedge $-1 -1 $-1 $36 $37 $38 $39 forward $14 $-1 #
face $-1 -1 $-1 $40 $41 $6 $-1 $42 forward single #
loop $-1 -1 $-1 $-1 $43 $16 #
plane-surface $-1 -1 $-1 625.0000000000004547 -2175.019999999999982 15650.00000000000546 2.415886522239348654e-30 1 1.546287017296050339e-15 0 -4.7130828287183618e-13 304.8000000000000114 forward_v I I I I #
coedge $-1 -1 $-1 $44 $45 $46 $47 reversed $17 $-1 #
coedge $-1 -1 $-1 $48 $19 $49 $50 forward $11 $-1 #
coedge $-1 -1 $-1 $19 $48 $51 $52 reversed $11 $-1 #
coedge $-1 -1 $-1 $53 $54 $19 $31 reversed $55 $-1 #
edge $-1 -1 $-1 $56 0 $57 0.1640419947506561726 $19 $58 forward @7 unknown #
face $-1 -1 $-1 $59 $60 $7 $-1 $61 forward single #
loop $-1 -1 $-1 $-1 $62 $20 #
plane-surface $-1 -1 $-1 625.0000000000004547 -2175.019999999998618 15730.00000000000546 3.471674188937120595e-31 1 8.545659541999092058e-30 0 -2.604717028401323509e-27 304.8000000000000114 forward_v I I I I #
coedge $-1 -1 $-1 $63 $64 $65 $66 reversed $21 $-1 #
coedge $-1 -1 $-1 $67 $23 $68 $69 forward $14 $-1 #
coedge $-1 -1 $-1 $23 $67 $70 $71 reversed $14 $-1 #
coedge $-1 -1 $-1 $72 $73 $23 $39 reversed $74 $-1 #
edge $-1 -1 $-1 $75 0 $76 0.1640419947506561726 $23 $77 forward @7 unknown #
face $-1 -1 $-1 $78 $55 $6 $-1 $79 reversed single #
loop $-1 -1 $-1 $-1 $80 $24 #
plane-surface $-1 -1 $-1 575.0000000000003411 -2225.019999999999982 15650.00000000000546 1.433821166081275422e-30 -1 -1.546287017296017798e-15 0 4.713082828718262845e-13 -304.8000000000000114 forward_v I I I I #
coedge $-1 -1 $-1 $51 $81 $53 $82 forward $25 $-1 #
coedge $-1 -1 $-1 $83 $27 $84 $85 reversed $17 $-1 #
coedge $-1 -1 $-1 $27 $83 $86 $87 reversed $17 $-1 #
coedge $-1 -1 $-1 $88 $89 $27 $47 forward $90 $-1 #
edge $-1 -1 $-1 $91 0 $92 0.1640419947506561726 $46 $93 forward @7 unknown #
coedge $-1 -1 $-1 $29 $28 $83 $94 forward $11 $-1 #
coedge $-1 -1 $-1 $80 $86 $28 $50 reversed $41 $-1 #
edge $-1 -1 $-1 $57 0 $95 0.2624671916010612449 $28 $96 forward @7 unknown #
coedge $-1 -1 $-1 $84 $43 $29 $52 forward $25 $-1 #
edge $-1 -1 $-1 $56 0 $97 0.2624671916010612449 $51 $98 forward @7 unknown #
coedge $-1 -1 $-1 $99 $30 $43 $82 reversed $55 $-1 #
coedge $-1 -1 $-1 $30 $99 $80 $100 reversed $55 $-1 #
loop $-1 -1 $-1 $-1 $54 $40 #
vertex $-1 -1 $-1 $82 $101 #
vertex $-1 -1 $-1 $31 $102 #
straight-curve $-1 -1 $-1 575.0000000000003411 -2175.019999999999982 15650.00000000000182 0 -304.8000000000000114 0 F 0 F 0.1640419947506561726 #
face $-1 -1 $-1 $103 $74 $7 $-1 $104 reversed single #
loop $-1 -1 $-1 $-1 $105 $32 #
plane-surface $-1 -1 $-1 575.0000000000003411 -2225.019999999999982 15730.00000000000546 3.338148258593392598e-32 -1 1.068207442749886332e-30 0 -3.25589628550165349e-28 -304.8000000000000114 forward_v I I I I #
coedge $-1 -1 $-1 $70 $106 $72 $107 forward $33 $-1 #
coedge $-1 -1 $-1 $108 $35 $109 $110 reversed $21 $-1 #
coedge $-1 -1 $-1 $35 $108 $111 $112 reversed $21 $-1 #
coedge $-1 -1 $-1 $113 $114 $35 $66 forward $115 $-1 #
edge $-1 -1 $-1 $116 0 $117 0.1640419947506561726 $65 $118 forward @7 unknown #
coedge $-1 -1 $-1 $37 $36 $108 $119 forward $14 $-1 #
coedge $-1 -1 $-1 $105 $111 $36 $69 reversed $60 $-1 #
edge $-1 -1 $-1 $76 0 $120 0.8858267716535408454 $36 $121 forward @7 unknown #
coedge $-1 -1 $-1 $109 $62 $37 $71 forward $33 $-1 #
edge $-1 -1 $-1 $75 0 $122 0.8858267716535408454 $70 $123 forward @7 unknown #
coedge $-1 -1 $-1 $124 $38 $62 $107 reversed $74 $-1 #
coedge $-1 -1 $-1 $38 $124 $105 $125 reversed $74 $-1 #
loop $-1 -1 $-1 $-1 $73 $59 #
vertex $-1 -1 $-1 $107 $126 #
vertex $-1 -1 $-1 $39 $127 #
straight-curve $-1 -1 $-1 575.0000000000003411 -2175.019999999999072 15730.00000000000546 0 -304.8000000000000114 0 F 0 F 0.1640419947506561726 #
face $-1 -1 $-1 $-1 $90 $6 $-1 $128 forward single #
plane-surface $-1 -1 $-1 625.0000000000004547 -2225.019999999999982 15650.00000000000909 -8.47729426566306078e-30 5.46922210687939134e-31 1 304.8000000000000114 0 2.583879292174101e-27 forward_v I I I I #
coedge $-1 -1 $-1 $129 $49 $54 $100 forward $41 $-1 #
coedge $-1 -1 $-1 $43 $84 $89 $130 reversed $25 $-1 #
edge $-1 -1 $-1 $131 0 $56 0.1640419947506561726 $43 $132 forward @7 unknown #
coedge $-1 -1 $-1 $45 $44 $48 $94 reversed $17 $-1 #
coedge $-1 -1 $-1 $81 $51 $44 $85 forward $25 $-1 #
edge $-1 -1 $-1 $97 0 $91 0.1640419947506561726 $84 $133 forward @7 unknown #
coedge $-1 -1 $-1 $49 $129 $45 $87 forward $41 $-1 #
edge $-1 -1 $-1 $92 0 $95 0.1640419947506561726 $86 $134 forward @7 unknown #
coedge $-1 -1 $-1 $135 $46 $129 $136 forward $90 $-1 #
coedge $-1 -1 $-1 $46 $135 $81 $130 forward $90 $-1 #
loop $-1 -1 $-1 $-1 $135 $78 #
vertex $-1 -1 $-1 $130 $137 #
vertex $-1 -1 $-1 $47 $138 #
straight-curve $-1 -1 $-1 625.0000000000003411 -2175.019999999999982 15730.00000000000546 0 -304.8000000000000114 0 F 0 F 0.1640419947506561726 #
edge $-1 -1 $-1 $95 0 $97 0.1640419947506561726 $48 $139 forward @7 unknown #
vertex $-1 -1 $-1 $50 $140 #
straight-curve $-1 -1 $-1 575.0000000000003411 -2225.019999999999982 15650.00000000000182 0 0 304.8000000000000114 F 0 F 0.2624671916010612449 #
vertex $-1 -1 $-1 $52 $141 #
straight-curve $-1 -1 $-1 575.0000000000003411 -2175.019999999999982 15650.00000000000182 0 0 304.8000000000000114 F 0 F 0.2624671916010612449 #
coedge $-1 -1 $-1 $54 $53 $135 $142 reversed $55 $-1 #
edge $-1 -1 $-1 $57 0 $143 0.1640419947506561726 $80 $144 forward @7 unknown #
point $-1 -1 $-1 575.0000000000003411 -2175.019999999999982 15650.00000000000182 #
point $-1 -1 $-1 575.0000000000003411 -2225.019999999999982 15650.00000000000182 #
face $-1 -1 $-1 $-1 $115 $7 $-1 $145 forward single #
plane-surface $-1 -1 $-1 625.0000000000004547 -2225.019999999999072 15730.00000000000546 1.695458853132612156e-29 1.575135966781264706e-28 1 304.8000000000000114 0 -5.167758584348202e-27 forward_v I I I I #
coedge $-1 -1 $-1 $146 $68 $73 $125 forward $60 $-1 #
coedge $-1 -1 $-1 $62 $109 $114 $147 reversed $33 $-1 #
edge $-1 -1 $-1 $148 0 $75 0.1640419947506561726 $62 $149 forward @7 unknown #
coedge $-1 -1 $-1 $64 $63 $67 $119 reversed $21 $-1 #
coedge $-1 -1 $-1 $106 $70 $63 $110 forward $33 $-1 #
edge $-1 -1 $-1 $122 0 $116 0.1640419947506561726 $109 $150 forward @7 unknown #
coedge $-1 -1 $-1 $68 $146 $64 $112 forward $60 $-1 #
edge $-1 -1 $-1 $117 0 $120 0.1640419947506561726 $111 $151 forward @7 unknown #
coedge $-1 -1 $-1 $152 $65 $146 $153 forward $115 $-1 #
coedge $-1 -1 $-1 $65 $152 $106 $147 forward $115 $-1 #
loop $-1 -1 $-1 $-1 $152 $103 #
vertex $-1 -1 $-1 $147 $154 #
vertex $-1 -1 $-1 $66 $155 #
straight-curve $-1 -1 $-1 625.0000000000003411 -2175.019999999999072 16000.00000000000546 0 -304.8000000000000114 0 F 0 F 0.1640419947506561726 #
edge $-1 -1 $-1 $120 0 $122 0.1640419947506561726 $67 $156 forward @7 unknown #
vertex $-1 -1 $-1 $69 $157 #
straight-curve $-1 -1 $-1 575.0000000000003411 -2225.019999999999072 15730.00000000000546 0 0 304.8000000000000114 F 0 F 0.8858267716535408454 #
vertex $-1 -1 $-1 $71 $158 #
straight-curve $-1 -1 $-1 575.0000000000003411 -2175.019999999999072 15730.00000000000546 0 0 304.8000000000000114 F 0 F 0.8858267716535408454 #
coedge $-1 -1 $-1 $73 $72 $152 $159 reversed $74 $-1 #
edge $-1 -1 $-1 $76 0 $160 0.1640419947506561726 $105 $161 forward @7 unknown #
point $-1 -1 $-1 575.0000000000003411 -2175.019999999999072 15730.00000000000546 #
point $-1 -1 $-1 575.0000000000003411 -2225.019999999999072 15730.00000000000546 #
plane-surface $-1 -1 $-1 625.0000000000004547 -2225.019999999999527 15650.00000000000182 1 -3.039018570852763244e-30 -4.854339148117550652e-30 -1.479602572346229478e-27 0 -304.8000000000000114 forward_v I I I I #
coedge $-1 -1 $-1 $86 $80 $88 $136 reversed $41 $-1 #
edge $-1 -1 $-1 $131 0 $91 0.2624671916010612449 $89 $162 forward @7 unknown #
vertex $-1 -1 $-1 $142 $163 #
straight-curve $-1 -1 $-1 625.0000000000003411 -2175.019999999999982 15650.00000000000182 -304.8000000000000114 0 0 F 0 F 0.1640419947506561726 #
straight-curve $-1 -1 $-1 575.0000000000003411 -2175.019999999999982 15730.00000000000546 304.8000000000000114 0 0 F 0 F 0.1640419947506561726 #
straight-curve $-1 -1 $-1 625.0000000000003411 -2225.019999999999982 15730.00000000000546 -304.8000000000000114 0 0 F 0 F 0.1640419947506561726 #
coedge $-1 -1 $-1 $89 $88 $99 $142 forward $90 $-1 #
edge $-1 -1 $-1 $92 0 $143 0.2624671916010612449 $88 $164 forward @7 unknown #
point $-1 -1 $-1 625.0000000000003411 -2175.019999999999982 15730.00000000000546 #
point $-1 -1 $-1 625.0000000000003411 -2225.019999999999982 15730.00000000000546 #
straight-curve $-1 -1 $-1 575.0000000000003411 -2225.019999999999982 15730.00000000000546 0 304.8000000000000114 0 F 0 F 0.1640419947506561726 #
point $-1 -1 $-1 575.0000000000003411 -2225.019999999999982 15730.00000000000546 #
point $-1 -1 $-1 575.0000000000003411 -2175.019999999999982 15730.00000000000546 #
edge $-1 -1 $-1 $143 0 $131 0.1640419947506561726 $135 $165 forward @7 unknown #
vertex $-1 -1 $-1 $142 $166 #
straight-curve $-1 -1 $-1 575.0000000000003411 -2225.019999999999982 15650.00000000000182 304.8000000000000114 0 0 F 0 F 0.1640419947506561726 #
plane-surface $-1 -1 $-1 625.0000000000004547 -2225.019999999998618 15730.00000000000546 1 -1.835981542226368994e-31 -1.615663757159203174e-30 -4.924543131821251862e-28 0 -304.8000000000000114 forward_v I I I I #
coedge $-1 -1 $-1 $111 $105 $113 $153 reversed $60 $-1 #
edge $-1 -1 $-1 $148 0 $116 0.8858267716535408454 $114 $167 forward @7 unknown #
vertex $-1 -1 $-1 $159 $168 #
straight-curve $-1 -1 $-1 625.0000000000003411 -2175.019999999999072 15730.00000000000546 -304.8000000000000114 0 0 F 0 F 0.1640419947506561726 #
straight-curve $-1 -1 $-1 575.0000000000003411 -2175.019999999999072 16000.00000000000546 304.8000000000000114 0 0 F 0 F 0.1640419947506561726 #
straight-curve $-1 -1 $-1 625.0000000000003411 -2225.019999999999072 16000.00000000000546 -304.8000000000000114 0 0 F 0 F 0.1640419947506561726 #
coedge $-1 -1 $-1 $114 $113 $124 $159 forward $115 $-1 #
edge $-1 -1 $-1 $117 0 $160 0.8858267716535408454 $113 $169 forward @7 unknown #
point $-1 -1 $-1 625.0000000000003411 -2175.019999999999072 16000.00000000000546 #
point $-1 -1 $-1 625.0000000000003411 -2225.019999999999072 16000.00000000000546 #
straight-curve $-1 -1 $-1 575.0000000000003411 -2225.019999999999072 16000.00000000000546 0 304.8000000000000114 0 F 0 F 0.1640419947506561726 #
point $-1 -1 $-1 575.0000000000003411 -2225.019999999999072 16000.00000000000546 #
point $-1 -1 $-1 575.0000000000003411 -2175.019999999999072 16000.00000000000546 #
edge $-1 -1 $-1 $160 0 $148 0.1640419947506561726 $152 $170 forward @7 unknown #
vertex $-1 -1 $-1 $159 $171 #
straight-curve $-1 -1 $-1 575.0000000000003411 -2225.019999999999072 15730.00000000000546 304.8000000000000114 0 0 F 0 F 0.1640419947506561726 #
straight-curve $-1 -1 $-1 625.0000000000003411 -2175.019999999999982 15650.00000000000182 0 0 304.8000000000000114 F 0 F 0.2624671916010612449 #
point $-1 -1 $-1 625.0000000000003411 -2175.019999999999982 15650.00000000000182 #
straight-curve $-1 -1 $-1 625.0000000000003411 -2225.019999999999982 15730.00000000000546 0 0 -304.8000000000000114 F 0 F 0.2624671916010612449 #
straight-curve $-1 -1 $-1 625.0000000000003411 -2225.019999999999982 15650.00000000000182 0 304.8000000000000114 0 F 0 F 0.1640419947506561726 #
point $-1 -1 $-1 625.0000000000003411 -2225.019999999999982 15650.00000000000182 #
straight-curve $-1 -1 $-1 625.0000000000003411 -2175.019999999999072 15730.00000000000546 0 0 304.8000000000000114 F 0 F 0.8858267716535408454 #
point $-1 -1 $-1 625.0000000000003411 -2175.019999999999072 15730.00000000000546 #
straight-curve $-1 -1 $-1 625.0000000000003411 -2225.019999999999072 16000.00000000000546 0 0 -304.8000000000000114 F 0 F 0.8858267716535408454 #
straight-curve $-1 -1 $-1 625.0000000000003411 -2225.019999999999072 15730.00000000000546 0 304.8000000000000114 0 F 0 F 0.1640419947506561726 #
point $-1 -1 $-1 625.0000000000003411 -2225.019999999999072 15730.00000000000546 #
End-of-ACIS-data 