700 0 1 0           
4 LibG 20 ASM 224.0.1.65535 NT 24 Wed Jul 17 14:49:26 2019 
1000 9.999999999999999547e-07 1.000000000000000036e-10 
body $-1 -1 $-1 $1 $-1 $2 #
lump $-1 -1 $-1 $-1 $3 $0 #
transform $-1 -1 1 0 0 0 1 0 0 0 1 0 0 0 1 no_rotate no_reflect no_shear #
shell $-1 -1 $-1 $-1 $-1 $4 $-1 $1 #
face $-1 -1 $-1 $5 $6 $3 $-1 $7 reversed single #
face $-1 -1 $-1 $8 $9 $3 $-1 $10 reversed single #
loop $-1 -1 $-1 $-1 $11 $4 #
torus-surface $-1 -1 $-1 16156.7975719153419 -16063.96657336844146 14000.00000000002001 0 0 -1 20000.00000017299317 -484.9999999999980105 -1 0 0 forward_v I I I I #
face $-1 -1 $-1 $12 $13 $3 $-1 $14 reversed single #
loop $-1 -1 $-1 $-1 $15 $5 #
torus-surface $-1 -1 $-1 16156.7975719153419 -16063.96657336844146 14000.00000000001819 0 0 -1 20000.00000017299317 -484.9999999999980105 -1 0 0 forward_v I I I I #
coedge $-1 -1 $-1 $16 $17 $18 $19 reversed $6 $-1 #
face $-1 -1 $-1 $20 $21 $3 $-1 $22 reversed single #
loop $-1 -1 $-1 $23 $24 $8 #
plane-surface $-1 -1 $-1 16034.82882191536555 3450.652270738537482 14000.00000000002001 -0.9999804685592618148 -0.006249999999943605354 8.289294879278451605e-20 2.526626427858415637e-17 0 304.8000000000000114 forward_v I I I I #
coedge $-1 -1 $-1 $25 $18 $26 $27 reversed $9 $-1 #
coedge $-1 -1 $-1 $28 $11 $29 $30 forward $6 $-1 #
coedge $-1 -1 $-1 $11 $28 $31 $32 forward $6 $-1 #
coedge $-1 -1 $-1 $15 $33 $11 $19 forward $9 $-1 #
edge $-1 -1 $-1 $34 0 $35 0.01250008138138384434 $11 $36 forward @7 unknown #
face $-1 -1 $-1 $37 $38 $3 $-1 $39 reversed single #
loop $-1 -1 $-1 $-1 $40 $12 #
torus-surface $-1 -1 $-1 16156.7975719153419 -16063.96657336844146 14000.00000000001455 0 0 -1 20000.00000017299317 -439.9999999999996589 -1 0 0 forward_v I I I I #
loop $-1 -1 $-1 $-1 $31 $8 #
coedge $-1 -1 $-1 $41 $41 $42 $43 forward $13 $-1 #
coedge $-1 -1 $-1 $33 $15 $28 $44 forward $9 $-1 #
coedge $-1 -1 $-1 $31 $31 $15 $27 forward $23 $-1 #
edge $-1 -1 $-1 $45 6.231274416595501844e-31 $35 3.141592653589788675 $15 $46 forward @7 unknown #
coedge $-1 -1 $-1 $17 $16 $25 $44 reversed $6 $-1 #
coedge $-1 -1 $-1 $47 $47 $16 $30 reversed $48 $-1 #
edge $-1 -1 $-1 $34 -3.141592653589735384 $49 4.465431461024300584e-15 $29 $50 forward @7 unknown #
coedge $-1 -1 $-1 $26 $26 $17 $32 reversed $23 $-1 #
edge $-1 -1 $-1 $45 -3.141592653589797557 $35 4.465431461024299007e-15 $31 $51 forward @7 unknown #
coedge $-1 -1 $-1 $18 $25 $47 $52 reversed $9 $-1 #
vertex $-1 -1 $-1 $30 $53 #
vertex $-1 -1 $-1 $27 $54 #
ellipse-curve $-1 -1 $-1 16156.7975719149872 -16063.96657359807978 14000.00000000001819 0 0 1 121.9687500005564829 19514.61884433662635 0 1 F 0 F 0.01250008138138384434 #
face $-1 -1 $-1 $-1 $55 $3 $-1 $56 reversed single #
loop $-1 -1 $-1 $48 $57 $20 #
plane-surface $-1 -1 $-1 16284.82882191536555 4420.63332524102043 14000.00000000000364 0.9999804685592618148 -0.006249999999948211045 -9.117447284111370003e-20 -2.779052211090714894e-17 0 -304.8000000000000114 forward_v I I I I #
coedge $-1 -1 $-1 $58 $59 $60 $61 forward $21 $-1 #
coedge $-1 -1 $-1 $24 $24 $58 $62 forward $13 $-1 #
coedge $-1 -1 $-1 $60 $63 $24 $43 reversed $55 $-1 #
edge $-1 -1 $-1 $64 -7.571030602498330147e-31 $65 3.141592653589788231 $42 $66 forward @7 unknown #
edge $-1 -1 $-1 $45 3.169737099696095023e-16 $49 0.01250008138140596553 $28 $67 forward @7 unknown #
vertex $-1 -1 $-1 $32 $68 #
ellipse-curve $-1 -1 $-1 16031.79757191539284 3935.64279798978032 14000.00000000001819 0.9999804685592618148 0.006249999999941644249 1.438785322151074641e-17 -3.031249999971697751 484.9905272512420424 2.165734258596785447e-12 1 F 6.231274416595501844e-31 F 3.141592653589788675 #
coedge $-1 -1 $-1 $29 $29 $33 $52 forward $48 $-1 #
loop $-1 -1 $-1 $-1 $29 $20 #
vertex $-1 -1 $-1 $52 $69 #
ellipse-curve $-1 -1 $-1 16281.79757191539466 3935.642797989778501 14000.00000000001819 0.9999804685592618148 -0.006249999999946110295 -4.179328792914895756e-17 3.031249999973863574 484.9905272512420424 -1.082867129298392683e-11 1 I I #
ellipse-curve $-1 -1 $-1 16031.79757191539284 3935.64279798978032 14000.00000000001819 -0.9999804685592618148 -0.006249999999941644249 -4.179328792915026411e-17 3.031249999971697751 -484.9905272512420424 -2.165734258596785447e-12 1 I I #
edge $-1 -1 $-1 $34 4.018888314921870368e-14 $49 3.141592653589850848 $33 $70 forward @7 unknown #
point $-1 -1 $-1 16278.76632191542012 3450.652270738536572 14000.00000000000182 #
point $-1 -1 $-1 16034.82882191536373 3450.652270738538391 14000.00000000001819 #
loop $-1 -1 $-1 $-1 $60 $37 #
torus-surface $-1 -1 $-1 16156.7975719153419 -16063.96657336844146 14000.00000000001455 0 0 -1 20000.00000017299317 -439.9999999999996589 -1 0 0 forward_v I I I I #
coedge $-1 -1 $-1 $71 $71 $72 $73 forward $38 $-1 #
coedge $-1 -1 $-1 $74 $40 $41 $62 reversed $21 $-1 #
coedge $-1 -1 $-1 $40 $74 $71 $75 reversed $21 $-1 #
coedge $-1 -1 $-1 $72 $42 $40 $61 reversed $55 $-1 #
edge $-1 -1 $-1 $76 0 $64 0.01250008138147893841 $60 $77 forward @7 unknown #
edge $-1 -1 $-1 $65 -1.968849325997077662e-14 $64 3.141592653589793116 $58 $78 forward @7 unknown #
coedge $-1 -1 $-1 $42 $72 $74 $79 reversed $55 $-1 #
vertex $-1 -1 $-1 $61 $80 #
vertex $-1 -1 $-1 $43 $81 #
ellipse-curve $-1 -1 $-1 16031.79757191539284 3935.64279798978032 14000.00000000001455 -0.9999804685592618148 -0.006249999999944434552 -3.829240643579644018e-17 -2.749999999975551557 439.9914061660753077 2.165734258596785447e-12 1 F -7.571030602498330147e-31 F 3.141592653589788231 #
ellipse-curve $-1 -1 $-1 16156.79757191495446 -16063.96657357343975 14000.00000000000728 0 0 -1 -128.0312499995404494 20484.59989881446381 0 1 F 3.169737099696095023e-16 F 0.01250008138140596553 #
point $-1 -1 $-1 16028.76632191542012 4420.633325241022249 14000.00000000002183 #
point $-1 -1 $-1 16284.82882191536737 4420.63332524102043 14000.00000000000909 #
ellipse-curve $-1 -1 $-1 16281.79757191539466 3935.642797989778501 14000.00000000001819 -0.9999804685592618148 0.006249999999946110295 6.988385850447858921e-17 -3.031249999973863574 -484.9905272512420424 -1.949160832737107024e-11 1 F 4.018888314921870368e-14 F 3.141592653589850848 #
coedge $-1 -1 $-1 $57 $57 $59 $75 forward $38 $-1 #
coedge $-1 -1 $-1 $63 $60 $57 $73 reversed $55 $-1 #
edge $-1 -1 $-1 $82 3.028412240999332059e-30 $76 3.141592653589773576 $72 $83 forward @7 unknown #
coedge $-1 -1 $-1 $59 $58 $63 $79 forward $21 $-1 #
edge $-1 -1 $-1 $76 1.968849325997077347e-14 $82 3.141592653589827311 $59 $84 forward @7 unknown #
vertex $-1 -1 $-1 $61 $85 #
ellipse-curve $-1 -1 $-1 16156.79757191508361 -16063.9665734535447 14000.00000000001637 0 0 1 127.7500000004171028 20439.60077760940476 0 1 F 0 F 0.01250008138147893841 #
ellipse-curve $-1 -1 $-1 16031.79757191539284 3935.64279798978032 14000.00000000001455 -0.9999804685592618148 -0.006249999999944434552 -3.82924064357963539e-17 2.749999999975551557 -439.9914061660753077 -2.165734258596785447e-12 1 F -1.968849325997077662e-14 F 3.141592653589793116 #
edge $-1 -1 $-1 $65 2.217101398430176974e-16 $82 0.01250008138159994404 $63 $86 forward @7 unknown #
point $-1 -1 $-1 16029.04757191554381 4375.634204155863699 14000.00000000001637 #
point $-1 -1 $-1 16034.54757191536737 3495.651391823705126 14000.00000000000909 #
vertex $-1 -1 $-1 $79 $87 #
ellipse-curve $-1 -1 $-1 16281.79757191539647 3935.642797989778501 14000.00000000001455 0.9999804685592618148 -0.006249999999949355962 0 -2.74999999997771738 -439.9914061660753077 -1.082867129298392683e-11 1 F 3.028412240999332059e-30 F 3.141592653589773576 #
ellipse-curve $-1 -1 $-1 16281.79757191539647 3935.642797989778046 14000.00000000001455 0.9999804685592618148 -0.00624999999994935683 -2.330842130874520586e-17 2.74999999997771738 439.9914061660753077 -6.497202775790356746e-12 1 F 1.968849325997077347e-14 F 3.141592653589827311 #
point $-1 -1 $-1 16284.54757191550198 4375.634204155859152 14000.00000000001637 #
ellipse-curve $-1 -1 $-1 16156.7975719153892 -16063.96657326058084 14000.00000000000364 0 0 -1 -122.2500000000263469 19559.61796508429688 0 1 F 2.217101398430176974e-16 F 0.01250008138159994404 #
point $-1 -1 $-1 16279.04757191541648 3495.651391823714221 14000.00000000000364 #
End-of-ACIS-data 