700 0 1 0           
4 LibG 20 ASM 224.0.1.65535 NT 24 Wed Jul 17 14:49:26 2019 
1000 9.999999999999999547e-07 1.000000000000000036e-10 
body $-1 -1 $-1 $1 $-1 $2 #
lump $-1 -1 $-1 $-1 $3 $0 #
transform $-1 -1 1 0 0 0 1 0 0 0 1 0 0 0 1 no_rotate no_reflect no_shear #
shell $-1 -1 $-1 $-1 $-1 $4 $-1 $1 #
face $-1 -1 $-1 $5 $6 $3 $-1 $7 reversed single #
face $-1 -1 $-1 $8 $9 $3 $-1 $10 reversed single #
loop $-1 -1 $-1 $-1 $11 $4 #
torus-surface $-1 -1 $-1 4156.797571915340995 -16063.9665733683978 14000.00000000002001 0 0 -1 20000.00000017299317 -484.9999999999980105 -1 0 0 forward_v I I I I #
face $-1 -1 $-1 $12 $13 $3 $-1 $14 reversed single #
loop $-1 -1 $-1 $-1 $15 $5 #
torus-surface $-1 -1 $-1 4156.797571915340995 -16063.9665733683978 14000.00000000001819 0 0 -1 20000.00000017299317 -484.9999999999980105 -1 0 0 forward_v I I I I #
coedge $-1 -1 $-1 $16 $17 $18 $19 reversed $6 $-1 #
face $-1 -1 $-1 $20 $21 $3 $-1 $22 reversed single #
loop $-1 -1 $-1 $23 $24 $8 #
plane-surface $-1 -1 $-1 4034.828821915363733 3450.652270738582502 14000.00000000002001 -0.9999804685592618148 -0.006249999999943594078 -3.812803665385710359e-19 -1.162165255971389637e-16 0 304.8000000000000114 forward_v I I I I #
coedge $-1 -1 $-1 $25 $18 $26 $27 reversed $9 $-1 #
coedge $-1 -1 $-1 $28 $11 $29 $30 forward $6 $-1 #
coedge $-1 -1 $-1 $11 $28 $31 $32 forward $6 $-1 #
coedge $-1 -1 $-1 $15 $33 $11 $19 forward $9 $-1 #
edge $-1 -1 $-1 $34 0 $35 0.01250008138138375934 $11 $36 forward @7 unknown #
face $-1 -1 $-1 $37 $38 $3 $-1 $39 reversed single #
loop $-1 -1 $-1 $-1 $40 $12 #
torus-surface $-1 -1 $-1 4156.797571915340995 -16063.9665733683978 14000.00000000001455 0 0 -1 20000.00000017299317 -439.9999999999996589 -1 0 0 forward_v I I I I #
loop $-1 -1 $-1 $-1 $31 $8 #
coedge $-1 -1 $-1 $41 $41 $42 $43 forward $13 $-1 #
coedge $-1 -1 $-1 $33 $15 $28 $44 forward $9 $-1 #
coedge $-1 -1 $-1 $31 $31 $15 $27 forward $23 $-1 #
edge $-1 -1 $-1 $45 0 $35 3.141592653589788675 $15 $46 forward @7 unknown #
coedge $-1 -1 $-1 $17 $16 $25 $44 reversed $6 $-1 #
coedge $-1 -1 $-1 $47 $47 $16 $30 reversed $48 $-1 #
edge $-1 -1 $-1 $34 -3.141592653589735384 $49 4.465431461024297429e-15 $29 $50 forward @7 unknown #
coedge $-1 -1 $-1 $26 $26 $17 $32 reversed $23 $-1 #
edge $-1 -1 $-1 $45 -3.141592653589797557 $35 4.465431461024299007e-15 $31 $51 forward @7 unknown #
coedge $-1 -1 $-1 $18 $25 $47 $52 reversed $9 $-1 #
vertex $-1 -1 $-1 $30 $53 #
vertex $-1 -1 $-1 $27 $54 #
ellipse-curve $-1 -1 $-1 4156.797571914457876 -16063.96657359829806 14000.00000000001819 0 0 1 121.9687500010849135 19514.61884433688829 0 1 F 0 F 0.01250008138138375934 #
face $-1 -1 $-1 $-1 $55 $3 $-1 $56 reversed single #
loop $-1 -1 $-1 $48 $57 $20 #
plane-surface $-1 -1 $-1 4284.828821915365552 4420.633325241064995 14000.00000000000546 0.9999804685592618148 -0.006249999999948211045 2.072258962898904884e-19 6.316368686696546562e-17 0 -304.8000000000000114 forward_v I I I I #
coedge $-1 -1 $-1 $58 $59 $60 $61 forward $21 $-1 #
coedge $-1 -1 $-1 $24 $24 $58 $62 forward $13 $-1 #
coedge $-1 -1 $-1 $60 $63 $24 $43 reversed $55 $-1 #
edge $-1 -1 $-1 $64 -7.571030602498330147e-31 $65 3.141592653589788231 $42 $66 forward @7 unknown #
edge $-1 -1 $-1 $45 1.580935873545705744e-16 $49 0.01250008138140598114 $28 $67 forward @7 unknown #
vertex $-1 -1 $-1 $32 $68 #
ellipse-curve $-1 -1 $-1 4031.797571915390563 3935.642797989823521 14000.00000000001819 0.9999804685592618148 0.006249999999943877706 1.370271735381975885e-17 -3.03124999997278044 484.9905272512420424 2.165734258596785447e-12 1 F 0 F 3.141592653589788675 #
coedge $-1 -1 $-1 $29 $29 $33 $52 forward $48 $-1 #
loop $-1 -1 $-1 $-1 $29 $20 #
vertex $-1 -1 $-1 $52 $69 #
ellipse-curve $-1 -1 $-1 4281.797571915391927 3935.642797989823066 14000.00000000001819 0.9999804685592617037 -0.006249999999948342884 -4.179328792914895139e-17 3.031249999974946263 484.9905272512420424 -1.082867129298392683e-11 1 I I #
ellipse-curve $-1 -1 $-1 4031.797571915390563 3935.642797989823521 14000.00000000001819 -0.9999804685592618148 -0.006249999999943877706 -4.179328792915026411e-17 3.03124999997278044 -484.9905272512420424 -2.165734258596785447e-12 1 I I #
edge $-1 -1 $-1 $34 4.018888314921869106e-14 $49 3.141592653589850848 $33 $70 forward @7 unknown #
point $-1 -1 $-1 4278.766321915416484 3450.652270738581137 14000.00000000000182 #
point $-1 -1 $-1 4034.828821915363278 3450.652270738581592 14000.00000000001819 #
loop $-1 -1 $-1 $-1 $60 $37 #
torus-surface $-1 -1 $-1 4156.797571915340995 -16063.9665733683978 14000.00000000001455 0 0 -1 20000.00000017299317 -439.9999999999996589 -1 0 0 forward_v I I I I #
coedge $-1 -1 $-1 $71 $71 $72 $73 forward $38 $-1 #
coedge $-1 -1 $-1 $74 $40 $41 $62 reversed $21 $-1 #
coedge $-1 -1 $-1 $40 $74 $71 $75 reversed $21 $-1 #
coedge $-1 -1 $-1 $72 $42 $40 $61 reversed $55 $-1 #
edge $-1 -1 $-1 $76 0 $64 0.01250008138147890545 $60 $77 forward @7 unknown #
edge $-1 -1 $-1 $65 -1.968849325997077347e-14 $64 3.141592653589793116 $58 $78 forward @7 unknown #
coedge $-1 -1 $-1 $42 $72 $74 $79 reversed $55 $-1 #
vertex $-1 -1 $-1 $61 $80 #
vertex $-1 -1 $-1 $43 $81 #
ellipse-curve $-1 -1 $-1 4031.797571915390563 3935.642797989823521 14000.00000000001455 -0.9999804685592618148 -0.006249999999943203766 -3.829240643579644018e-17 -2.749999999975010212 439.9914061660753077 2.165734258596785447e-12 1 F -7.571030602498330147e-31 F 3.141592653589788231 #
ellipse-curve $-1 -1 $-1 4156.797571916260495 -16063.96657357331242 14000.00000000000728 0 0 -1 -128.0312500008463985 20484.59989881438742 0 1 F 1.580935873545705744e-16 F 0.01250008138140598114 #
point $-1 -1 $-1 4028.766321915417393 4420.633325241065904 14000.00000000002183 #
point $-1 -1 $-1 4284.828821915366461 4420.633325241064995 14000.00000000000909 #
ellipse-curve $-1 -1 $-1 4281.797571915391927 3935.642797989823066 14000.00000000001819 -0.9999804685592617037 0.006249999999948341149 6.988385850447857688e-17 -3.031249999974946263 -484.9905272512420424 -1.949160832737107024e-11 1 F 4.018888314921869106e-14 F 3.141592653589850848 #
coedge $-1 -1 $-1 $57 $57 $59 $75 forward $38 $-1 #
coedge $-1 -1 $-1 $63 $60 $57 $73 reversed $55 $-1 #
edge $-1 -1 $-1 $82 3.028412240999332059e-30 $76 3.141592653589773576 $72 $83 forward @7 unknown #
coedge $-1 -1 $-1 $59 $58 $63 $79 forward $21 $-1 #
edge $-1 -1 $-1 $76 1.968849325997077347e-14 $82 3.141592653589827311 $59 $84 forward @7 unknown #
vertex $-1 -1 $-1 $61 $85 #
ellipse-curve $-1 -1 $-1 4156.797571914646142 -16063.96657345359563 14000.00000000001637 0 0 1 127.750000000855664 20439.60077760949935 0 1 F 0 F 0.01250008138147890545 #
ellipse-curve $-1 -1 $-1 4031.797571915390563 3935.642797989823521 14000.00000000001455 -0.9999804685592618148 -0.006249999999943204633 -3.82924064357963539e-17 2.749999999975010212 -439.9914061660753077 -2.165734258596785447e-12 1 F -1.968849325997077347e-14 F 3.141592653589793116 #
edge $-1 -1 $-1 $65 1.664982762245230305e-16 $82 0.01250008138159994404 $63 $86 forward @7 unknown #
point $-1 -1 $-1 4029.047571915544268 4375.63420415591554 14000.00000000001637 #
point $-1 -1 $-1 4034.547571915365552 3495.651391823748327 14000.00000000000909 #
vertex $-1 -1 $-1 $79 $87 #
ellipse-curve $-1 -1 $-1 4281.797571915391927 3935.642797989822611 14000.00000000001455 0.9999804685592618148 -0.006249999999948126043 0 -2.749999999977176035 -439.9914061660753077 -1.082867129298392683e-11 1 F 3.028412240999332059e-30 F 3.141592653589773576 #
ellipse-curve $-1 -1 $-1 4281.797571915391927 3935.642797989822611 14000.00000000001455 0.9999804685592618148 -0.006249999999948126911 -2.289219949966046784e-17 2.749999999977176035 439.9914061660753077 -6.497202775790356746e-12 1 F 1.968849325997077347e-14 F 3.141592653589827311 #
point $-1 -1 $-1 4284.547571915501976 4375.634204155902808 14000.00000000001637 #
ellipse-curve $-1 -1 $-1 4156.797571915388289 -16063.96657326053719 14000.00000000000364 0 0 -1 -122.2500000000263469 19559.61796508429688 0 1 F 1.664982762245230305e-16 F 0.01250008138159994404 #
point $-1 -1 $-1 4279.047571915414665 3495.651391823757422 14000.00000000000364 #
End-of-ACIS-data 