700 0 1 0           
4 LibG 20 ASM 224.0.1.65535 NT 24 Wed Jul 17 14:49:26 2019 
1000 9.999999999999999547e-07 1.000000000000000036e-10 
body $-1 -1 $-1 $1 $-1 $2 #
lump $-1 -1 $-1 $-1 $3 $0 #
transform $-1 -1 1 0 0 0 1 0 0 0 1 0 0 0 1 no_rotate no_reflect no_shear #
shell $-1 -1 $-1 $-1 $-1 $4 $-1 $1 #
face $-1 -1 $-1 $5 $6 $3 $-1 $7 reversed single #
face $-1 -1 $-1 $8 $9 $3 $-1 $10 reversed single #
loop $-1 -1 $-1 $-1 $11 $4 #
torus-surface $-1 -1 $-1 -93.20242808431183335 23935.25216934801574 13999.99999999998181 0 0 1 20000.00000017299681 -484.9999999999980105 1 0 0 forward_v I I I I #
face $-1 -1 $-1 $12 $13 $3 $-1 $14 reversed single #
loop $-1 -1 $-1 $-1 $15 $5 #
torus-surface $-1 -1 $-1 -93.20242808431183335 23935.25216934801574 13999.99999999998363 0 0 1 20000.00000017299681 -484.9999999999980105 1 0 0 forward_v I I I I #
coedge $-1 -1 $-1 $16 $17 $18 $19 reversed $6 $-1 #
face $-1 -1 $-1 $20 $21 $3 $-1 $22 reversed single #
loop $-1 -1 $-1 $23 $24 $8 #
plane-surface $-1 -1 $-1 -215.1711780846289059 4420.63332524103771 13999.99999999998545 -0.9999804685592617037 0.006249999999960897945 1.123142146268469296e-18 3.423404125841101562e-16 0 304.8000000000000114 forward_v I I I I #
coedge $-1 -1 $-1 $25 $18 $26 $27 reversed $9 $-1 #
coedge $-1 -1 $-1 $28 $11 $29 $30 forward $6 $-1 #
coedge $-1 -1 $-1 $11 $28 $31 $32 forward $6 $-1 #
coedge $-1 -1 $-1 $15 $33 $11 $19 forward $9 $-1 #
edge $-1 -1 $-1 $34 0 $35 0.01250008138138376454 $11 $36 forward @7 unknown #
face $-1 -1 $-1 $37 $38 $3 $-1 $39 reversed single #
loop $-1 -1 $-1 $-1 $40 $12 #
torus-surface $-1 -1 $-1 -93.20242808431183335 23935.25216934801574 13999.99999999998727 0 0 1 20000.00000017299681 -439.9999999999996589 1 0 0 forward_v I I I I #
loop $-1 -1 $-1 $-1 $31 $8 #
coedge $-1 -1 $-1 $41 $41 $42 $43 forward $13 $-1 #
coedge $-1 -1 $-1 $33 $15 $28 $44 forward $9 $-1 #
coedge $-1 -1 $-1 $31 $31 $15 $27 forward $23 $-1 #
edge $-1 -1 $-1 $45 0 $35 3.141592653589788675 $15 $46 forward @7 unknown #
coedge $-1 -1 $-1 $17 $16 $25 $44 reversed $6 $-1 #
coedge $-1 -1 $-1 $47 $47 $16 $30 reversed $48 $-1 #
edge $-1 -1 $-1 $34 -3.141592653589735384 $49 4.465431461024298218e-15 $29 $50 forward @7 unknown #
coedge $-1 -1 $-1 $26 $26 $17 $32 reversed $23 $-1 #
edge $-1 -1 $-1 $45 -3.141592653589797557 $35 4.465431461024299007e-15 $31 $51 forward @7 unknown #
coedge $-1 -1 $-1 $18 $25 $47 $52 reversed $9 $-1 #
vertex $-1 -1 $-1 $30 $53 #
vertex $-1 -1 $-1 $27 $54 #
ellipse-curve $-1 -1 $-1 -93.20242808447660821 23935.25216957792145 13999.99999999998363 0 0 -1 121.9687500000288622 -19514.61884433689193 0 1 F 0 F 0.01250008138138376454 #
face $-1 -1 $-1 $-1 $55 $3 $-1 $56 reversed single #
loop $-1 -1 $-1 $48 $57 $20 #
plane-surface $-1 -1 $-1 34.82882191535782823 3450.652270738551579 13999.99999999999454 0.9999804685592618148 0.006249999999930845596 1.699088514564229394e-19 5.178922944218343404e-17 0 -304.8000000000000114 forward_v I I I I #
coedge $-1 -1 $-1 $58 $59 $60 $61 forward $21 $-1 #
coedge $-1 -1 $-1 $24 $24 $58 $62 forward $13 $-1 #
coedge $-1 -1 $-1 $60 $63 $24 $43 reversed $55 $-1 #
edge $-1 -1 $-1 $64 -7.571030602498328396e-31 $65 3.141592653589788231 $42 $66 forward @7 unknown #
edge $-1 -1 $-1 $45 1.337109942798045562e-16 $49 0.01250008138139753651 $28 $67 forward @7 unknown #
vertex $-1 -1 $-1 $32 $68 #
ellipse-curve $-1 -1 $-1 -218.2024280846099202 3935.642797989795326 13999.99999999998363 0.9999804685592617037 -0.006249999999960900547 -1.370271735381975731e-17 -3.031249999981037391 -484.9905272512420424 -2.165734258596785447e-12 1 F 0 F 3.141592653589788675 #
coedge $-1 -1 $-1 $29 $29 $33 $52 forward $48 $-1 #
loop $-1 -1 $-1 $-1 $29 $20 #
vertex $-1 -1 $-1 $52 $69 #
ellipse-curve $-1 -1 $-1 31.79757191539127703 3935.642797989793053 13999.99999999998363 0.9999804685592618148 0.006249999999931039017 6.851358676909666032e-18 3.031249999966554309 -484.9905272512420424 1.082867129298392683e-11 1 I I #
ellipse-curve $-1 -1 $-1 -218.2024280846099202 3935.642797989795326 13999.99999999998363 -0.9999804685592617037 0.006249999999960900547 4.179328792915025794e-17 3.031249999981037391 484.9905272512420424 2.165734258596785447e-12 1 I I #
edge $-1 -1 $-1 $34 4.018888314921869106e-14 $49 3.141592653589850848 $33 $70 forward @7 unknown #
point $-1 -1 $-1 28.76632191542472228 4420.633325241034981 14000.00000000000182 #
point $-1 -1 $-1 -215.1711780846289059 4420.63332524103771 13999.99999999998363 #
loop $-1 -1 $-1 $-1 $60 $37 #
torus-surface $-1 -1 $-1 -93.20242808431183335 23935.25216934801574 13999.99999999998727 0 0 1 20000.00000017299681 -439.9999999999996589 1 0 0 forward_v I I I I #
coedge $-1 -1 $-1 $71 $71 $72 $73 forward $38 $-1 #
coedge $-1 -1 $-1 $74 $40 $41 $62 reversed $21 $-1 #
coedge $-1 -1 $-1 $40 $74 $71 $75 reversed $21 $-1 #
coedge $-1 -1 $-1 $72 $42 $40 $61 reversed $55 $-1 #
edge $-1 -1 $-1 $76 0 $64 0.0125000813814788881 $60 $77 forward @7 unknown #
edge $-1 -1 $-1 $65 -1.968849325997077031e-14 $64 3.141592653589793116 $58 $78 forward @7 unknown #
coedge $-1 -1 $-1 $42 $72 $74 $79 reversed $55 $-1 #
vertex $-1 -1 $-1 $61 $80 #
vertex $-1 -1 $-1 $43 $81 #
ellipse-curve $-1 -1 $-1 -218.2024280846096644 3935.642797989795326 13999.99999999998727 -0.9999804685592617037 0.006249999999960891874 3.829240643579644018e-17 -2.749999999982793319 -439.9914061660753077 -2.165734258596785447e-12 1 F -7.571030602498328396e-31 F 3.141592653589788231 #
ellipse-curve $-1 -1 $-1 -93.20242808461716777 23935.25216956677468 13999.99999999999454 0 0 1 -128.0312499999765521 -20484.59989882822265 0 1 F 1.337109942798045562e-16 F 0.01250008138139753651 #
point $-1 -1 $-1 -221.233678084590963 3450.652270738553398 13999.99999999997999 #
point $-1 -1 $-1 34.82882191535782823 3450.652270738551124 13999.99999999999272 #
ellipse-curve $-1 -1 $-1 31.79757191539127703 3935.642797989793053 13999.99999999998363 -0.9999804685592618148 -0.006249999999931039885 8.221630412291599546e-18 -3.031249999966554309 484.9905272512420424 1.949160832737107024e-11 1 F 4.018888314921869106e-14 F 3.141592653589850848 #
coedge $-1 -1 $-1 $57 $57 $59 $75 forward $38 $-1 #
coedge $-1 -1 $-1 $63 $60 $57 $73 reversed $55 $-1 #
edge $-1 -1 $-1 $82 0 $76 3.141592653589773576 $72 $83 forward @7 unknown #
coedge $-1 -1 $-1 $59 $58 $63 $79 forward $21 $-1 #
edge $-1 -1 $-1 $76 1.968849325997077031e-14 $82 3.141592653589827311 $59 $84 forward @7 unknown #
vertex $-1 -1 $-1 $61 $85 #
ellipse-curve $-1 -1 $-1 -93.2024280844844526 23935.25216943327177 13999.99999999998545 0 0 -1 127.7499999999790106 -20439.60077760956483 0 1 F 0 F 0.0125000813814788881 #
ellipse-curve $-1 -1 $-1 -218.2024280846098918 3935.642797989795326 13999.99999999998727 -0.9999804685592617037 0.006249999999960892741 3.82924064357963539e-17 2.749999999982793319 439.9914061660753077 2.165734258596785447e-12 1 F -1.968849325997077031e-14 F 3.141592653589793116 #
edge $-1 -1 $-1 $65 1.509699395820348701e-16 $82 0.0125000813816087894 $63 $86 forward @7 unknown #
point $-1 -1 $-1 -220.9524280844634916 3495.651391823707854 13999.99999999998545 #
point $-1 -1 $-1 -215.4524280846268596 4375.634204155870975 13999.99999999999272 #
vertex $-1 -1 $-1 $79 $87 #
ellipse-curve $-1 -1 $-1 31.79757191539160743 3935.642797989793053 13999.99999999998727 0.9999804685592618148 0.006249999999931062436 0 -2.749999999969667819 439.9914061660753077 1.082867129298392683e-11 1 F 0 F 3.141592653589773576 #
ellipse-curve $-1 -1 $-1 31.79757191539183481 3935.642797989793053 13999.99999999998727 0.9999804685592618148 0.006249999999931071977 4.162218090847357859e-18 2.74999999996967226 -439.9914061660753077 6.497202775790356746e-12 1 F 1.968849325997077031e-14 F 3.141592653589827311 #
point $-1 -1 $-1 34.54757191549456508 3495.651391823707854 13999.99999999998545 #
ellipse-curve $-1 -1 $-1 -93.20242808512641375 23935.25216922632899 13999.99999999999818 0 0 1 -122.2499999995034301 -19559.61796507046893 0 1 F 1.509699395820348701e-16 F 0.0125000813816087894 #
point $-1 -1 $-1 29.04757191542302763 4375.634204155865518 13999.99999999999818 #
End-of-ACIS-data 