700 0 1 0           
4 LibG 20 ASM 224.0.1.65535 NT 24 Wed Jul 17 14:49:26 2019 
1000 9.999999999999999547e-07 1.000000000000000036e-10 
body $-1 -1 $-1 $1 $-1 $2 #
lump $-1 -1 $-1 $-1 $3 $0 #
transform $-1 -1 1 0 0 0 1 0 0 0 1 0 0 0 1 no_rotate no_reflect no_shear #
shell $-1 -1 $-1 $-1 $-1 $4 $-1 $1 #
face $-1 -1 $-1 $5 $6 $3 $-1 $7 reversed single #
face $-1 -1 $-1 $8 $9 $3 $-1 $10 reversed single #
loop $-1 -1 $-1 $-1 $11 $4 #
torus-surface $-1 -1 $-1 -593.2024280843995712 23935.25216934801938 13999.99999999998181 0 0 1 20000.00000017299681 -484.9999999999981242 1 0 0 forward_v I I I I #
face $-1 -1 $-1 $12 $13 $3 $-1 $14 reversed single #
loop $-1 -1 $-1 $-1 $15 $5 #
torus-surface $-1 -1 $-1 -593.2024280843995712 23935.25216934801938 13999.99999999998363 0 0 1 20000.00000017299681 -484.9999999999981242 1 0 0 forward_v I I I I #
coedge $-1 -1 $-1 $16 $17 $18 $19 reversed $6 $-1 #
face $-1 -1 $-1 $20 $21 $3 $-1 $22 reversed single #
loop $-1 -1 $-1 $23 $24 $8 #
plane-surface $-1 -1 $-1 -715.1711780846322881 4420.633325241040438 13999.99999999998545 -0.9999804685592617037 0.006249999999956564606 4.268821732689118561e-19 1.301162277697561102e-16 0 304.8000000000000114 forward_v I I I I #
coedge $-1 -1 $-1 $25 $18 $26 $27 reversed $9 $-1 #
coedge $-1 -1 $-1 $28 $11 $29 $30 forward $6 $-1 #
coedge $-1 -1 $-1 $11 $28 $31 $32 forward $6 $-1 #
coedge $-1 -1 $-1 $15 $33 $11 $19 forward $9 $-1 #
edge $-1 -1 $-1 $34 0 $35 0.0125000813813837576 $11 $36 forward @7 unknown #
face $-1 -1 $-1 $37 $38 $3 $-1 $39 reversed single #
loop $-1 -1 $-1 $-1 $40 $12 #
torus-surface $-1 -1 $-1 -593.2024280843995712 23935.25216934801938 13999.99999999998727 0 0 1 20000.00000017299681 -439.9999999999996589 1 0 0 forward_v I I I I #
loop $-1 -1 $-1 $-1 $31 $8 #
coedge $-1 -1 $-1 $41 $41 $42 $43 forward $13 $-1 #
coedge $-1 -1 $-1 $33 $15 $28 $44 forward $9 $-1 #
coedge $-1 -1 $-1 $31 $31 $15 $27 forward $23 $-1 #
edge $-1 -1 $-1 $45 0 $35 3.141592653589788675 $15 $46 forward @7 unknown #
coedge $-1 -1 $-1 $17 $16 $25 $44 reversed $6 $-1 #
coedge $-1 -1 $-1 $47 $47 $16 $30 reversed $48 $-1 #
edge $-1 -1 $-1 $34 -3.141592653589735384 $49 4.465431461024298218e-15 $29 $50 forward @7 unknown #
coedge $-1 -1 $-1 $26 $26 $17 $32 reversed $23 $-1 #
edge $-1 -1 $-1 $45 -3.141592653589797557 $35 4.465431461024299007e-15 $31 $51 forward @7 unknown #
coedge $-1 -1 $-1 $18 $25 $47 $52 reversed $9 $-1 #
vertex $-1 -1 $-1 $30 $53 #
vertex $-1 -1 $-1 $27 $54 #
ellipse-curve $-1 -1 $-1 -593.2024280844798341 23935.25216957794328 13999.99999999998363 0 0 -1 121.968750000028848 -19514.61884433691012 0 1 F 0 F 0.0125000813813837576 #
face $-1 -1 $-1 $-1 $55 $3 $-1 $56 reversed single #
loop $-1 -1 $-1 $48 $57 $20 #
plane-surface $-1 -1 $-1 -465.1711780846413262 3450.65227073855749 13999.99999999999636 0.9999804685592618148 0.006249999999935179802 9.532009163459823389e-20 2.905413139927117006e-17 0 -304.8000000000000114 forward_v I I I I #
coedge $-1 -1 $-1 $58 $59 $60 $61 forward $21 $-1 #
coedge $-1 -1 $-1 $24 $24 $58 $62 forward $13 $-1 #
coedge $-1 -1 $-1 $60 $63 $24 $43 reversed $55 $-1 #
edge $-1 -1 $-1 $64 -7.571030602498328396e-31 $65 3.141592653589788231 $42 $66 forward @7 unknown #
edge $-1 -1 $-1 $45 1.258456416751099284e-16 $49 0.01250008138139752957 $28 $67 forward @7 unknown #
vertex $-1 -1 $-1 $32 $68 #
ellipse-curve $-1 -1 $-1 -718.2024280846112561 3935.642797989799874 13999.99999999998363 0.9999804685592617037 -0.006249999999956435369 -1.370271735381975731e-17 -3.031249999978871568 -484.9905272512420424 -2.165734258596785447e-12 1 F 0 F 3.141592653589788675 #
coedge $-1 -1 $-1 $29 $29 $33 $52 forward $48 $-1 #
loop $-1 -1 $-1 $-1 $29 $20 #
vertex $-1 -1 $-1 $52 $69 #
ellipse-curve $-1 -1 $-1 -468.2024280846100055 3935.642797989798964 13999.99999999998363 0.9999804685592618148 0.00624999999993536455 4.179328792914896372e-17 3.031249999968652187 -484.9905272512420424 1.082867129298392683e-11 1 I I #
ellipse-curve $-1 -1 $-1 -718.2024280846112561 3935.642797989799874 13999.99999999998363 -0.9999804685592617037 0.006249999999956436236 4.179328792915025794e-17 3.031249999978871568 484.9905272512420424 2.165734258596785447e-12 1 I I #
edge $-1 -1 $-1 $34 4.018888314921869106e-14 $49 3.141592653589850848 $33 $70 forward @7 unknown #
point $-1 -1 $-1 -471.2336780845786279 4420.633325241041348 14000.00000000000182 #
point $-1 -1 $-1 -715.1711780846324018 4420.633325241041348 13999.99999999998363 #
loop $-1 -1 $-1 $-1 $60 $37 #
torus-surface $-1 -1 $-1 -593.2024280843995712 23935.25216934801938 13999.99999999998727 0 0 1 20000.00000017299681 -439.9999999999996589 1 0 0 forward_v I I I I #
coedge $-1 -1 $-1 $71 $71 $72 $73 forward $38 $-1 #
coedge $-1 -1 $-1 $74 $40 $41 $62 reversed $21 $-1 #
coedge $-1 -1 $-1 $40 $74 $71 $75 reversed $21 $-1 #
coedge $-1 -1 $-1 $72 $42 $40 $61 reversed $55 $-1 #
edge $-1 -1 $-1 $76 0 $64 0.01250008138147888637 $60 $77 forward @7 unknown #
edge $-1 -1 $-1 $65 -1.968849325997077031e-14 $64 3.141592653589793116 $58 $78 forward @7 unknown #
coedge $-1 -1 $-1 $42 $72 $74 $79 reversed $55 $-1 #
vertex $-1 -1 $-1 $61 $80 #
vertex $-1 -1 $-1 $43 $81 #
ellipse-curve $-1 -1 $-1 -718.2024280846110287 3935.642797989799874 13999.99999999998727 -0.9999804685592617037 0.006249999999956431899 3.870862824488118744e-17 -2.749999999980830889 -439.9914061660753077 -2.165734258596785447e-12 1 F -7.571030602498328396e-31 F 3.141592653589788231 #
ellipse-curve $-1 -1 $-1 -593.2024280846161446 23935.25216956678923 13999.99999999999454 0 0 1 -128.0312499999765805 -20484.5998988282372 0 1 F 1.258456416751099284e-16 F 0.01250008138139752957 #
point $-1 -1 $-1 -721.2336780845901103 3450.65227073855749 13999.99999999997999 #
point $-1 -1 $-1 -465.1711780846413262 3450.652270738557036 13999.99999999999272 #
ellipse-curve $-1 -1 $-1 -468.2024280846100055 3935.642797989798964 13999.99999999998363 -0.9999804685592618148 -0.00624999999993536455 6.988385850447858921e-17 -3.031249999968652187 484.9905272512420424 1.949160832737107024e-11 1 F 4.018888314921869106e-14 F 3.141592653589850848 #
coedge $-1 -1 $-1 $57 $57 $59 $75 forward $38 $-1 #
coedge $-1 -1 $-1 $63 $60 $57 $73 reversed $55 $-1 #
edge $-1 -1 $-1 $82 3.028412240999332059e-30 $76 3.141592653589773576 $72 $83 forward @7 unknown #
coedge $-1 -1 $-1 $59 $58 $63 $79 forward $21 $-1 #
edge $-1 -1 $-1 $76 1.968849325997077031e-14 $82 3.141592653589827311 $59 $84 forward @7 unknown #
vertex $-1 -1 $-1 $61 $85 #
ellipse-curve $-1 -1 $-1 -593.2024280844836994 23935.25216943327541 13999.99999999998545 0 0 -1 127.7499999999790106 -20439.60077760956483 0 1 F 0 F 0.01250008138147888637 #
ellipse-curve $-1 -1 $-1 -718.2024280846112561 3935.642797989799874 13999.99999999998727 -0.9999804685592617037 0.006249999999956431899 3.8708628244881095e-17 2.749999999980830889 439.9914061660753077 2.165734258596785447e-12 1 F -1.968849325997077031e-14 F 3.141592653589793116 #
edge $-1 -1 $-1 $65 1.388923444154720371e-16 $82 0.0125000813816087894 $63 $86 forward @7 unknown #
point $-1 -1 $-1 -720.9524280844626674 3495.651391823711947 13999.99999999998545 #
point $-1 -1 $-1 -715.4524280846301281 4375.634204155874613 13999.99999999999272 #
vertex $-1 -1 $-1 $79 $87 #
ellipse-curve $-1 -1 $-1 -468.2024280846096644 3935.642797989798964 13999.99999999998727 0.9999804685592618148 0.006249999999935359346 0 -2.749999999971558751 439.9914061660753077 1.082867129298392683e-11 1 F 3.028412240999332059e-30 F 3.141592653589773576 #
ellipse-curve $-1 -1 $-1 -468.2024280846095508 3935.642797989798964 13999.99999999998727 0.9999804685592618148 0.006249999999935358479 2.289219949966046784e-17 2.749999999971558751 -439.9914061660753077 6.497202775790356746e-12 1 F 1.968849325997077031e-14 F 3.141592653589827311 #
point $-1 -1 $-1 -465.4524280845046746 3495.651391823711947 13999.99999999998545 #
ellipse-curve $-1 -1 $-1 -593.2024280846063675 23935.25216922633626 13999.99999999999818 0 0 1 -122.2500000000265601 -19559.61796507046893 0 1 F 1.388923444154720371e-16 F 0.0125000813816087894 #
point $-1 -1 $-1 -470.9524280845799922 4375.634204155865518 13999.99999999999818 #
End-of-ACIS-data 