700 0 1 0           
4 LibG 20 ASM 224.0.1.65535 NT 24 Wed Jul 17 14:49:26 2019 
1000 9.999999999999999547e-07 1.000000000000000036e-10 
body $-1 -1 $-1 $1 $-1 $2 #
lump $-1 -1 $-1 $-1 $3 $0 #
transform $-1 -1 1 0 0 0 1 0 0 0 1 0 0 0 1 no_rotate no_reflect no_shear #
shell $-1 -1 $-1 $-1 $-1 $4 $-1 $1 #
face $-1 -1 $-1 $5 $6 $3 $-1 $7 reversed single #
face $-1 -1 $-1 $8 $9 $3 $-1 $10 reversed single #
loop $-1 -1 $-1 $-1 $11 $4 #
torus-surface $-1 -1 $-1 1656.797571915515618 -16063.96657336838507 14000.00000000002001 0 0 -1 20000.00000017299681 -484.9999999999981242 -1 0 0 forward_v I I I I #
face $-1 -1 $-1 $12 $13 $3 $-1 $14 reversed single #
loop $-1 -1 $-1 $-1 $15 $5 #
torus-surface $-1 -1 $-1 1656.797571915515618 -16063.96657336838507 14000.00000000001819 0 0 -1 20000.00000017299681 -484.9999999999981242 -1 0 0 forward_v I I I I #
coedge $-1 -1 $-1 $16 $17 $18 $19 reversed $6 $-1 #
face $-1 -1 $-1 $20 $21 $3 $-1 $22 reversed single #
loop $-1 -1 $-1 $23 $24 $8 #
plane-surface $-1 -1 $-1 1534.828821915367826 3450.652270738591596 14000.00000000001819 -0.9999804685592617037 -0.006249999999952249481 -1.989411343959144419e-19 -6.06384421200134497e-17 0 304.8000000000000114 forward_v I I I I #
coedge $-1 -1 $-1 $25 $18 $26 $27 reversed $9 $-1 #
coedge $-1 -1 $-1 $28 $11 $29 $30 forward $6 $-1 #
coedge $-1 -1 $-1 $11 $28 $31 $32 forward $6 $-1 #
coedge $-1 -1 $-1 $15 $33 $11 $19 forward $9 $-1 #
edge $-1 -1 $-1 $34 0 $35 0.0125000813813837524 $11 $36 forward @7 unknown #
face $-1 -1 $-1 $37 $38 $3 $-1 $39 reversed single #
loop $-1 -1 $-1 $-1 $40 $12 #
torus-surface $-1 -1 $-1 1656.797571915515618 -16063.96657336838507 14000.00000000001455 0 0 -1 20000.00000017299681 -439.9999999999996589 -1 0 0 forward_v I I I I #
loop $-1 -1 $-1 $-1 $31 $8 #
coedge $-1 -1 $-1 $41 $41 $42 $43 forward $13 $-1 #
coedge $-1 -1 $-1 $33 $15 $28 $44 forward $9 $-1 #
coedge $-1 -1 $-1 $31 $31 $15 $27 forward $23 $-1 #
edge $-1 -1 $-1 $45 6.231274416595500968e-31 $35 3.141592653589788675 $15 $46 forward @7 unknown #
coedge $-1 -1 $-1 $17 $16 $25 $44 reversed $6 $-1 #
coedge $-1 -1 $-1 $47 $47 $16 $30 reversed $48 $-1 #
edge $-1 -1 $-1 $34 -3.141592653589735384 $49 4.465431461024300584e-15 $29 $50 forward @7 unknown #
coedge $-1 -1 $-1 $26 $26 $17 $32 reversed $23 $-1 #
edge $-1 -1 $-1 $45 -3.141592653589797557 $35 4.465431461024299007e-15 $31 $51 forward @7 unknown #
coedge $-1 -1 $-1 $18 $25 $47 $52 reversed $9 $-1 #
vertex $-1 -1 $-1 $30 $53 #
vertex $-1 -1 $-1 $27 $54 #
ellipse-curve $-1 -1 $-1 1656.797571914991977 -16063.96657359832534 14000.00000000001819 0 0 1 121.9687500005567529 19514.6188443369283 0 1 F 0 F 0.0125000813813837524 #
face $-1 -1 $-1 $-1 $55 $3 $-1 $56 reversed single #
loop $-1 -1 $-1 $48 $57 $20 #
plane-surface $-1 -1 $-1 1784.828821915363051 4420.633325241075909 14000.00000000000364 0.9999804685592618148 -0.006249999999939510539 1.947890399088140291e-19 5.937285900168356411e-17 0 -304.8000000000000114 forward_v I I I I #
coedge $-1 -1 $-1 $58 $59 $60 $61 forward $21 $-1 #
coedge $-1 -1 $-1 $24 $24 $58 $62 forward $13 $-1 #
coedge $-1 -1 $-1 $60 $63 $24 $43 reversed $55 $-1 #
edge $-1 -1 $-1 $64 0 $65 3.141592653589788231 $42 $66 forward @7 unknown #
edge $-1 -1 $-1 $45 1.580935873543567931e-16 $49 0.01250008138139752957 $28 $67 forward @7 unknown #
vertex $-1 -1 $-1 $32 $68 #
ellipse-curve $-1 -1 $-1 1531.797571915391018 3935.642797989834435 14000.00000000001819 0.9999804685592617037 0.006249999999952248614 1.370271735381975731e-17 -3.031249999976841192 484.9905272512420424 2.165734258596785447e-12 1 F 6.231274416595500968e-31 F 3.141592653589788675 #
coedge $-1 -1 $-1 $29 $29 $33 $52 forward $48 $-1 #
loop $-1 -1 $-1 $-1 $29 $20 #
vertex $-1 -1 $-1 $52 $69 #
ellipse-curve $-1 -1 $-1 1781.797571915392382 3935.642797989834435 14000.00000000001819 0.9999804685592618148 -0.006249999999939968506 -4.179328792914895756e-17 3.031249999970885511 484.9905272512420424 -1.082867129298392683e-11 1 I I #
ellipse-curve $-1 -1 $-1 1531.797571915391018 3935.642797989834435 14000.00000000001819 -0.9999804685592617037 -0.006249999999952248614 -4.247842379684124396e-17 3.031249999976841192 -484.9905272512420424 -2.165734258596785447e-12 1 I I #
edge $-1 -1 $-1 $34 4.018888314921869737e-14 $49 3.141592653589850848 $33 $70 forward @7 unknown #
point $-1 -1 $-1 1778.766321915421486 3450.652270738592506 14000.00000000000182 #
point $-1 -1 $-1 1534.828821915367826 3450.652270738592506 14000.00000000001819 #
loop $-1 -1 $-1 $-1 $60 $37 #
torus-surface $-1 -1 $-1 1656.797571915515618 -16063.96657336838507 14000.00000000001455 0 0 -1 20000.00000017299681 -439.9999999999996589 -1 0 0 forward_v I I I I #
coedge $-1 -1 $-1 $71 $71 $72 $73 forward $38 $-1 #
coedge $-1 -1 $-1 $74 $40 $41 $62 reversed $21 $-1 #
coedge $-1 -1 $-1 $40 $74 $71 $75 reversed $21 $-1 #
coedge $-1 -1 $-1 $72 $42 $40 $61 reversed $55 $-1 #
edge $-1 -1 $-1 $76 0 $64 0.01250008138147888637 $60 $77 forward @7 unknown #
edge $-1 -1 $-1 $65 -1.968849325997077031e-14 $64 3.141592653589793116 $58 $78 forward @7 unknown #
coedge $-1 -1 $-1 $42 $72 $74 $79 reversed $55 $-1 #
vertex $-1 -1 $-1 $61 $80 #
vertex $-1 -1 $-1 $43 $81 #
ellipse-curve $-1 -1 $-1 1531.797571915391245 3935.642797989834435 14000.00000000001455 -0.9999804685592617037 -0.006249999999952432495 -3.870862824488118744e-17 -2.749999999979070964 439.9914061660753077 2.165734258596785447e-12 1 F 0 F 3.141592653589788231 #
ellipse-curve $-1 -1 $-1 1656.797571915387607 -16063.96657358716402 14000.00000000000728 0 0 -1 -128.0312499999765805 20484.59989882824448 0 1 F 1.580935873543567931e-16 F 0.01250008138139752957 #
point $-1 -1 $-1 1528.76632191541421 4420.633325241076818 14000.00000000002183 #
point $-1 -1 $-1 1784.828821915363278 4420.633325241076818 14000.00000000000909 #
ellipse-curve $-1 -1 $-1 1781.797571915392382 3935.642797989834435 14000.00000000001819 -0.9999804685592618148 0.006249999999939970241 6.919872263678762168e-17 -3.031249999970885511 -484.9905272512420424 -1.949160832737107024e-11 1 F 4.018888314921869737e-14 F 3.141592653589850848 #
coedge $-1 -1 $-1 $57 $57 $59 $75 forward $38 $-1 #
coedge $-1 -1 $-1 $63 $60 $57 $73 reversed $55 $-1 #
edge $-1 -1 $-1 $82 3.028412240999332059e-30 $76 3.141592653589773576 $72 $83 forward @7 unknown #
coedge $-1 -1 $-1 $59 $58 $63 $79 forward $21 $-1 #
edge $-1 -1 $-1 $76 1.968849325997077347e-14 $82 3.141592653589827311 $59 $84 forward @7 unknown #
vertex $-1 -1 $-1 $61 $85 #
ellipse-curve $-1 -1 $-1 1656.797571915519939 -16063.96657345365929 14000.00000000001637 0 0 1 127.7499999999790816 20439.60077760957574 0 1 F 0 F 0.01250008138147888637 #
ellipse-curve $-1 -1 $-1 1531.797571915391018 3935.642797989834435 14000.00000000001455 -0.9999804685592617037 -0.006249999999952433362 -3.8708628244881095e-17 2.749999999979070964 -439.9914061660753077 -2.165734258596785447e-12 1 F -1.968849325997077031e-14 F 3.141592653589793116 #
edge $-1 -1 $-1 $65 1.803012421294015671e-16 $82 0.01250008138160879287 $63 $86 forward @7 unknown #
point $-1 -1 $-1 1529.047571915540857 4375.634204155917359 14000.00000000001637 #
point $-1 -1 $-1 1534.547571915370327 3495.651391823759241 14000.00000000000909 #
vertex $-1 -1 $-1 $79 $87 #
ellipse-curve $-1 -1 $-1 1781.797571915392609 3935.642797989834435 14000.00000000001455 0.9999804685592618148 -0.006249999999939512274 0 -2.749999999973386178 -439.9914061660753077 -1.082867129298392683e-11 1 F 3.028412240999332059e-30 F 3.141592653589773576 #
ellipse-curve $-1 -1 $-1 1781.797571915392609 3935.642797989834435 14000.00000000001455 0.9999804685592618148 -0.006249999999939512274 -2.289219949966046784e-17 2.749999999973386178 439.9914061660753077 -6.497202775790356746e-12 1 F 1.968849325997077347e-14 F 3.141592653589827311 #
point $-1 -1 $-1 1784.54757191549902 4375.634204155917359 14000.00000000001637 #
ellipse-curve $-1 -1 $-1 1656.797571915393291 -16063.96657324670559 14000.00000000000364 0 0 -1 -122.2500000000263469 19559.61796507046893 0 1 F 1.803012421294015671e-16 F 0.01250008138160879287 #
point $-1 -1 $-1 1779.047571915419894 3495.651391823763788 14000.00000000000364 #
End-of-ACIS-data 