700 0 1 0           
4 LibG 20 ASM 224.0.1.65535 NT 24 Wed Jul 17 14:49:26 2019 
1000 9.999999999999999547e-07 1.000000000000000036e-10 
body $-1 -1 $-1 $1 $-1 $2 #
lump $-1 -1 $-1 $-1 $3 $0 #
transform $-1 -1 1 0 0 0 1 0 0 0 1 0 0 0 1 no_rotate no_reflect no_shear #
shell $-1 -1 $-1 $-1 $-1 $4 $-1 $1 #
face $-1 -1 $-1 $5 $6 $3 $-1 $7 reversed single #
face $-1 -1 $-1 $8 $9 $3 $-1 $10 reversed single #
loop $-1 -1 $-1 $-1 $11 $4 #
torus-surface $-1 -1 $-1 11906.7975719156002 23935.25216934797209 13999.99999999998181 0 0 1 20000.00000017299681 -484.9999999999981242 1 0 0 forward_v I I I I #
face $-1 -1 $-1 $12 $13 $3 $-1 $14 reversed single #
loop $-1 -1 $-1 $-1 $15 $5 #
torus-surface $-1 -1 $-1 11906.7975719156002 23935.25216934797209 13999.99999999998363 0 0 1 20000.00000017299681 -484.9999999999981242 1 0 0 forward_v I I I I #
coedge $-1 -1 $-1 $16 $17 $18 $19 reversed $6 $-1 #
face $-1 -1 $-1 $20 $21 $3 $-1 $22 reversed single #
loop $-1 -1 $-1 $23 $24 $8 #
plane-surface $-1 -1 $-1 11784.82882191536555 4420.633325240989507 13999.99999999998545 -0.9999804685592617037 0.00624999999995672767 3.108404633591351726e-19 9.474602375821263354e-17 0 304.8000000000000114 forward_v I I I I #
coedge $-1 -1 $-1 $25 $18 $26 $27 reversed $9 $-1 #
coedge $-1 -1 $-1 $28 $11 $29 $30 forward $6 $-1 #
coedge $-1 -1 $-1 $11 $28 $31 $32 forward $6 $-1 #
coedge $-1 -1 $-1 $15 $33 $11 $19 forward $9 $-1 #
edge $-1 -1 $-1 $34 0 $35 0.01250008138138385301 $11 $36 forward @7 unknown #
face $-1 -1 $-1 $37 $38 $3 $-1 $39 reversed single #
loop $-1 -1 $-1 $-1 $40 $12 #
torus-surface $-1 -1 $-1 11906.7975719156002 23935.25216934797209 13999.99999999998727 0 0 1 20000.00000017299681 -439.9999999999996589 1 0 0 forward_v I I I I #
loop $-1 -1 $-1 $-1 $31 $8 #
coedge $-1 -1 $-1 $41 $41 $42 $43 forward $13 $-1 #
coedge $-1 -1 $-1 $33 $15 $28 $44 forward $9 $-1 #
coedge $-1 -1 $-1 $31 $31 $15 $27 forward $23 $-1 #
edge $-1 -1 $-1 $45 0 $35 3.141592653589788675 $15 $46 forward @7 unknown #
coedge $-1 -1 $-1 $17 $16 $25 $44 reversed $6 $-1 #
coedge $-1 -1 $-1 $47 $47 $16 $30 reversed $48 $-1 #
edge $-1 -1 $-1 $34 -3.141592653589735384 $49 4.465431461024298218e-15 $29 $50 forward @7 unknown #
coedge $-1 -1 $-1 $26 $26 $17 $32 reversed $23 $-1 #
edge $-1 -1 $-1 $45 -3.141592653589797557 $35 4.465431461024299007e-15 $31 $51 forward @7 unknown #
coedge $-1 -1 $-1 $18 $25 $47 $52 reversed $9 $-1 #
vertex $-1 -1 $-1 $30 $53 #
vertex $-1 -1 $-1 $27 $54 #
ellipse-curve $-1 -1 $-1 11906.79757191552017 23935.25216957760495 13999.99999999998363 0 0 -1 121.968750000028038 -19514.61884433661908 0 1 F 0 F 0.01250008138138385301 #
face $-1 -1 $-1 $-1 $55 $3 $-1 $56 reversed single #
loop $-1 -1 $-1 $48 $57 $20 #
plane-surface $-1 -1 $-1 12034.82882191536373 3450.652270738506104 13999.99999999999636 0.9999804685592618148 0.006249999999935057504 -3.730085560275141088e-20 -1.136952285088041418e-17 0 -304.8000000000000114 forward_v I I I I #
coedge $-1 -1 $-1 $58 $59 $60 $61 forward $21 $-1 #
coedge $-1 -1 $-1 $24 $24 $58 $62 forward $13 $-1 #
coedge $-1 -1 $-1 $60 $63 $24 $43 reversed $55 $-1 #
edge $-1 -1 $-1 $64 0 $65 3.141592653589788231 $42 $66 forward @7 unknown #
edge $-1 -1 $-1 $45 3.169737099691801648e-16 $49 0.01250008138139750008 $28 $67 forward @7 unknown #
vertex $-1 -1 $-1 $32 $68 #
ellipse-curve $-1 -1 $-1 11781.79757191539102 3935.642797989747578 13999.99999999998363 0.9999804685592617037 -0.006249999999955039784 -1.370271735381975731e-17 -3.031249999978194776 -484.9905272512420424 -2.165734258596785447e-12 1 F 0 F 3.141592653589788675 #
coedge $-1 -1 $-1 $29 $29 $33 $52 forward $48 $-1 #
loop $-1 -1 $-1 $-1 $29 $20 #
vertex $-1 -1 $-1 $52 $69 #
ellipse-curve $-1 -1 $-1 12031.79757191539466 3935.642797989748487 13999.99999999998363 0.9999804685592618148 0.006249999999937179071 4.179328792914896372e-17 3.031249999969531927 -484.9905272512420424 1.082867129298392683e-11 1 I I #
ellipse-curve $-1 -1 $-1 11781.79757191539102 3935.642797989747578 13999.99999999998363 -0.9999804685592617037 0.006249999999955038917 4.179328792915025794e-17 3.031249999978194776 484.9905272512420424 2.165734258596785447e-12 1 I I #
edge $-1 -1 $-1 $34 4.018888314921870368e-14 $49 3.141592653589850848 $33 $70 forward @7 unknown #
point $-1 -1 $-1 12028.76632191542376 4420.633325240990416 14000.00000000000182 #
point $-1 -1 $-1 11784.82882191536919 4420.633325240989507 13999.99999999998363 #
loop $-1 -1 $-1 $-1 $60 $37 #
torus-surface $-1 -1 $-1 11906.7975719156002 23935.25216934797209 13999.99999999998727 0 0 1 20000.00000017299681 -439.9999999999996589 1 0 0 forward_v I I I I #
coedge $-1 -1 $-1 $71 $71 $72 $73 forward $38 $-1 #
coedge $-1 -1 $-1 $74 $40 $41 $62 reversed $21 $-1 #
coedge $-1 -1 $-1 $40 $74 $71 $75 reversed $21 $-1 #
coedge $-1 -1 $-1 $72 $42 $40 $61 reversed $55 $-1 #
edge $-1 -1 $-1 $76 0 $64 0.01250008138147893841 $60 $77 forward @7 unknown #
edge $-1 -1 $-1 $65 -1.968849325997077031e-14 $64 3.141592653589793116 $58 $78 forward @7 unknown #
coedge $-1 -1 $-1 $42 $72 $74 $79 reversed $55 $-1 #
vertex $-1 -1 $-1 $61 $80 #
vertex $-1 -1 $-1 $43 $81 #
ellipse-curve $-1 -1 $-1 11781.79757191539102 3935.642797989747578 13999.99999999998727 -0.9999804685592617037 0.006249999999954277373 3.870862824488118744e-17 -2.749999999979883203 -439.9914061660753077 -2.165734258596785447e-12 1 F 0 F 3.141592653589788231 #
ellipse-curve $-1 -1 $-1 11906.79757191581666 23935.25216956683653 13999.99999999999454 0 0 1 -128.0312500004110916 -20484.59989882833543 0 1 F 3.169737099691801648e-16 F 0.01250008138139750008 #
point $-1 -1 $-1 11778.76632191541285 3450.652270738505649 13999.99999999997999 #
point $-1 -1 $-1 12034.82882191536373 3450.652270738506104 13999.99999999999272 #
ellipse-curve $-1 -1 $-1 12031.79757191539466 3935.642797989748487 13999.99999999998363 -0.9999804685592618148 -0.006249999999937179071 -6.988385850447858921e-17 -3.031249999969531927 484.9905272512420424 1.949160832737107024e-11 1 F 4.018888314921870368e-14 F 3.141592653589850848 #
coedge $-1 -1 $-1 $57 $57 $59 $75 forward $38 $-1 #
coedge $-1 -1 $-1 $63 $60 $57 $73 reversed $55 $-1 #
edge $-1 -1 $-1 $82 3.028412240999332059e-30 $76 3.141592653589773576 $72 $83 forward @7 unknown #
coedge $-1 -1 $-1 $59 $58 $63 $79 forward $21 $-1 #
edge $-1 -1 $-1 $76 1.968849325997077031e-14 $82 3.141592653589827311 $59 $84 forward @7 unknown #
vertex $-1 -1 $-1 $61 $85 #
ellipse-curve $-1 -1 $-1 11906.79757191507815 23935.25216943306805 13999.99999999998545 0 0 -1 127.7500000004171028 -20439.60077760940476 0 1 F 0 F 0.01250008138147893841 #
ellipse-curve $-1 -1 $-1 11781.79757191539102 3935.642797989747578 13999.99999999998727 -0.9999804685592617037 0.00624999999995427824 3.8708628244881095e-17 2.749999999979883203 439.9914061660753077 2.165734258596785447e-12 1 F -1.968849325997077031e-14 F 3.141592653589793116 #
edge $-1 -1 $-1 $65 2.208474544742917963e-16 $82 0.01250008138160880328 $63 $86 forward @7 unknown #
point $-1 -1 $-1 11779.04757191553836 3495.651391823660106 13999.99999999998545 #
point $-1 -1 $-1 11784.54757191537101 4375.634204155822772 13999.99999999999272 #
vertex $-1 -1 $-1 $79 $87 #
ellipse-curve $-1 -1 $-1 12031.79757191539284 3935.642797989748487 13999.99999999998727 0.9999804685592618148 0.006249999999934589996 0 -2.749999999971220355 439.9914061660753077 1.082867129298392683e-11 1 F 3.028412240999332059e-30 F 3.141592653589773576 #
ellipse-curve $-1 -1 $-1 12031.79757191539284 3935.642797989748942 13999.99999999998727 0.9999804685592618148 0.006249999999934590864 2.289219949966046784e-17 2.749999999971220355 -439.9914061660753077 6.497202775790356746e-12 1 F 1.968849325997077031e-14 F 3.141592653589827311 #
point $-1 -1 $-1 12034.5475719154947 3495.651391823664198 13999.99999999998545 #
ellipse-curve $-1 -1 $-1 11906.79757191539284 23935.25216922624895 13999.99999999999818 0 0 1 -122.2500000000263469 -19559.61796507042891 0 1 F 2.208474544742917963e-16 F 0.01250008138160880328 #
point $-1 -1 $-1 12029.0475719154183 4375.634204155818225 13999.99999999999818 #
End-of-ACIS-data 