700 0 1 0           
4 LibG 20 ASM 224.0.1.65535 NT 24 Wed Jul 17 12:56:14 2019 
1000 9.999999999999999547e-07 1.000000000000000036e-10 
body $-1 -1 $-1 $1 $-1 $2 #
lump $-1 -1 $-1 $-1 $3 $0 #
transform $-1 -1 1 0 0 0 1 0 0 0 1 0 0 0 1 no_rotate no_reflect no_shear #
shell $-1 -1 $-1 $-1 $-1 $4 $-1 $1 #
face $-1 -1 $-1 $5 $6 $3 $-1 $7 forward single #
face $-1 -1 $-1 $8 $9 $3 $-1 $10 forward single #
loop $-1 -1 $-1 $-1 $11 $4 #
plane-surface $-1 -1 $-1 8900.000000000001819 9500.000000000003638 15650.00000000000909 1.211177213980211618e-31 4.541914552425793841e-32 -1 -304.8000000000000114 0 -3.691668148211685175e-29 forward_v I I I I #
face $-1 -1 $-1 $12 $13 $3 $-1 $14 forward single #
loop $-1 -1 $-1 $-1 $15 $5 #
plane-surface $-1 -1 $-1 8900.000000000003638 9500.000000000003638 15650.00000000000182 1 4.617613128299560694e-31 -1.078704706201126058e-31 -3.287891944501032407e-29 0 -304.8000000000000114 forward_v I I I I #
coedge $-1 -1 $-1 $16 $17 $18 $19 forward $6 $-1 #
face $-1 -1 $-1 $20 $21 $3 $-1 $22 forward single #
loop $-1 -1 $-1 $-1 $23 $8 #
plane-surface $-1 -1 $-1 6500.000000000001819 10500 15650.00000000000182 -1 -1.513971517475264796e-32 -5.109653871479019782e-32 -1.557422500026805296e-29 0 304.8000000000000114 forward_v I I I I #
coedge $-1 -1 $-1 $24 $25 $17 $26 reversed $9 $-1 #
coedge $-1 -1 $-1 $27 $11 $23 $28 forward $6 $-1 #
coedge $-1 -1 $-1 $11 $27 $15 $26 forward $6 $-1 #
coedge $-1 -1 $-1 $29 $30 $11 $19 reversed $21 $-1 #
edge $-1 -1 $-1 $31 0 $32 7.874015748031496287 $11 $33 forward @7 unknown #
face $-1 -1 $-1 $34 $35 $3 $-1 $36 forward single #
loop $-1 -1 $-1 $-1 $18 $12 #
plane-surface $-1 -1 $-1 6499.999999999999091 9500.000000000001819 15650.00000000000182 -3.798070907555134578e-32 -1 -1.148916449535428084e-31 0 3.501897338183985076e-29 -304.8000000000000114 forward_v I I I I #
coedge $-1 -1 $-1 $37 $38 $16 $28 reversed $13 $-1 #
coedge $-1 -1 $-1 $39 $15 $40 $41 reversed $9 $-1 #
coedge $-1 -1 $-1 $15 $39 $29 $42 reversed $9 $-1 #
edge $-1 -1 $-1 $43 0 $31 3.2808398950131199 $17 $44 forward @7 unknown #
coedge $-1 -1 $-1 $17 $16 $45 $46 forward $6 $-1 #
edge $-1 -1 $-1 $32 0 $47 3.2808398950131199 $16 $48 forward @7 unknown #
coedge $-1 -1 $-1 $49 $18 $25 $42 forward $21 $-1 #
coedge $-1 -1 $-1 $18 $49 $37 $50 forward $21 $-1 #
vertex $-1 -1 $-1 $19 $51 #
vertex $-1 -1 $-1 $19 $52 #
straight-curve $-1 -1 $-1 8900 9500 15650.00000000000182 -304.8000000000000114 0 0 F 0 F 7.874015748031496287 #
face $-1 -1 $-1 $-1 $53 $3 $-1 $54 forward single #
loop $-1 -1 $-1 $-1 $45 $20 #
plane-surface $-1 -1 $-1 8899.999999999998181 10500.00000000000182 15650.00000000000182 -1.150208570449976336e-95 1 3.608167362177377083e-32 0 -1.099769411991664525e-29 304.8000000000000114 forward_v I I I I #
coedge $-1 -1 $-1 $55 $23 $30 $50 reversed $13 $-1 #
coedge $-1 -1 $-1 $23 $55 $56 $57 forward $13 $-1 #
coedge $-1 -1 $-1 $25 $24 $58 $59 reversed $9 $-1 #
coedge $-1 -1 $-1 $45 $60 $24 $41 forward $35 $-1 #
edge $-1 -1 $-1 $61 0 $43 7.874015748031496287 $40 $62 forward @7 unknown #
edge $-1 -1 $-1 $31 0 $63 7.874015748031496287 $29 $64 forward @7 unknown #
vertex $-1 -1 $-1 $46 $65 #
straight-curve $-1 -1 $-1 8900 10500 15650.00000000000182 0 -304.8000000000000114 0 F 0 F 3.2808398950131199 #
coedge $-1 -1 $-1 $56 $40 $27 $46 reversed $35 $-1 #
edge $-1 -1 $-1 $47 0 $43 7.874015748031496287 $27 $66 forward @7 unknown #
vertex $-1 -1 $-1 $28 $67 #
straight-curve $-1 -1 $-1 6500 9500 15650.00000000000182 0 304.8000000000000114 0 F 0 F 3.2808398950131199 #
coedge $-1 -1 $-1 $30 $29 $68 $69 reversed $21 $-1 #
edge $-1 -1 $-1 $70 0 $32 7.874015748031496287 $30 $71 forward @7 unknown #
point $-1 -1 $-1 8900 9500 15650.00000000000182 #
point $-1 -1 $-1 6500 9500 15650.00000000000182 #
loop $-1 -1 $-1 $-1 $58 $34 #
plane-surface $-1 -1 $-1 8900.000000000001819 9500.000000000003638 18050.00000000000728 -1.513971517475266165e-32 -2.611600867644834182e-31 1 304.8000000000000114 0 4.614585185264611373e-30 forward_v I I I I #
coedge $-1 -1 $-1 $38 $37 $72 $73 reversed $13 $-1 #
coedge $-1 -1 $-1 $60 $45 $38 $57 reversed $35 $-1 #
edge $-1 -1 $-1 $74 0 $47 7.874015748031496287 $38 $75 forward @7 unknown #
coedge $-1 -1 $-1 $76 $68 $39 $59 forward $53 $-1 #
edge $-1 -1 $-1 $63 0 $61 3.2808398950131199 $58 $77 forward @7 unknown #
coedge $-1 -1 $-1 $40 $56 $76 $78 reversed $35 $-1 #
vertex $-1 -1 $-1 $59 $79 #
straight-curve $-1 -1 $-1 8900 10500 18050.00000000000364 0 0 -304.8000000000000114 F 0 F 7.874015748031496287 #
vertex $-1 -1 $-1 $59 $80 #
straight-curve $-1 -1 $-1 8900 9500 15650.00000000000182 0 0 304.8000000000000114 F 0 F 7.874015748031496287 #
point $-1 -1 $-1 8900 10500 15650.00000000000182 #
straight-curve $-1 -1 $-1 6500 10500 15650.00000000000182 304.8000000000000114 0 0 F 0 F 7.874015748031496287 #
point $-1 -1 $-1 6500 10500 15650.00000000000182 #
coedge $-1 -1 $-1 $58 $72 $49 $69 forward $53 $-1 #
edge $-1 -1 $-1 $70 0 $63 7.874015748031496287 $68 $81 forward @7 unknown #
vertex $-1 -1 $-1 $73 $82 #
straight-curve $-1 -1 $-1 6500 9500 18050.00000000000364 0 0 -304.8000000000000114 F 0 F 7.874015748031496287 #
coedge $-1 -1 $-1 $68 $76 $55 $73 forward $53 $-1 #
edge $-1 -1 $-1 $74 0 $70 3.2808398950131199 $72 $83 forward @7 unknown #
vertex $-1 -1 $-1 $78 $84 #
straight-curve $-1 -1 $-1 6500 10500 18050.00000000000364 0 0 -304.8000000000000114 F 0 F 7.874015748031496287 #
coedge $-1 -1 $-1 $72 $58 $60 $78 forward $53 $-1 #
straight-curve $-1 -1 $-1 8900 9500 18050.00000000000364 0 304.8000000000000114 0 F 0 F 3.2808398950131199 #
edge $-1 -1 $-1 $61 0 $74 7.874015748031496287 $76 $85 forward @7 unknown #
point $-1 -1 $-1 8900 10500 18050.00000000000364 #
point $-1 -1 $-1 8900 9500 18050.00000000000364 #
straight-curve $-1 -1 $-1 6500 9500 18050.00000000000364 304.8000000000000114 0 0 F 0 F 7.874015748031496287 #
point $-1 -1 $-1 6500 9500 18050.00000000000364 #
straight-curve $-1 -1 $-1 6500 10500 18050.00000000000364 0 -304.8000000000000114 0 F 0 F 3.2808398950131199 #
point $-1 -1 $-1 6500 10500 18050.00000000000364 #
straight-curve $-1 -1 $-1 8900 10500 18050.00000000000364 -304.8000000000000114 0 0 F 0 F 7.874015748031496287 #
End-of-ACIS-data 