700 0 1 0           
4 LibG 20 ASM 224.0.1.65535 NT 24 Wed Jul 17 12:56:14 2019 
1000 9.999999999999999547e-07 1.000000000000000036e-10 
body $-1 -1 $-1 $1 $-1 $2 #
lump $-1 -1 $-1 $-1 $3 $0 #
transform $-1 -1 1 0 0 0 1 0 0 0 1 0 0 0 1 no_rotate no_reflect no_shear #
shell $-1 -1 $-1 $-1 $-1 $4 $-1 $1 #
face $-1 -1 $-1 $5 $6 $3 $-1 $7 forward single #
face $-1 -1 $-1 $8 $9 $3 $-1 $10 forward single #
loop $-1 -1 $-1 $-1 $11 $4 #
plane-surface $-1 -1 $-1 12374.99999999999818 4975.000000000001819 16650.00000000000364 3.236226098745162103e-31 -1 7.766942636988396055e-29 0 -2.367364115754063306e-26 -304.8000000000000114 forward_v I I I I #
face $-1 -1 $-1 $12 $13 $3 $-1 $14 forward single #
loop $-1 -1 $-1 $-1 $15 $5 #
plane-surface $-1 -1 $-1 12425 5025 16730.00000000000728 1.750151074201368459e-28 -1.728274185773851678e-28 1 304.8000000000000114 0 -5.334460474165771141e-26 forward_v I I I I #
coedge $-1 -1 $-1 $16 $17 $18 $19 forward $6 $-1 #
face $-1 -1 $-1 $20 $21 $3 $-1 $22 forward single #
loop $-1 -1 $-1 $-1 $23 $8 #
plane-surface $-1 -1 $-1 12374.99999999999636 5025 16650 -1 -5.307410801942246827e-29 -2.071184703196973475e-28 -6.312970975344375445e-26 0 304.8000000000000114 forward_v I I I I #
coedge $-1 -1 $-1 $24 $25 $26 $27 reversed $9 $-1 #
coedge $-1 -1 $-1 $28 $11 $29 $30 forward $6 $-1 #
coedge $-1 -1 $-1 $11 $28 $31 $32 reversed $6 $-1 #
coedge $-1 -1 $-1 $33 $34 $11 $19 reversed $35 $-1 #
edge $-1 -1 $-1 $36 0 $37 0.1640419947506615017 $11 $38 forward @7 unknown #
face $-1 -1 $-1 $39 $35 $3 $-1 $40 reversed single #
loop $-1 -1 $-1 $-1 $41 $12 #
plane-surface $-1 -1 $-1 12425 4975.000000000000909 16650 1 5.987018282678752642e-29 -2.614870687786179472e-28 -7.970125856372274775e-26 0 -304.8000000000000114 forward_v I I I I #
coedge $-1 -1 $-1 $31 $42 $33 $43 forward $13 $-1 #
coedge $-1 -1 $-1 $44 $15 $45 $46 reversed $9 $-1 #
coedge $-1 -1 $-1 $15 $44 $47 $48 reversed $9 $-1 #
coedge $-1 -1 $-1 $49 $50 $15 $27 forward $51 $-1 #
edge $-1 -1 $-1 $52 7.105427357601001859e-15 $53 0.1640419947506615017 $26 $54 forward @7 unknown #
coedge $-1 -1 $-1 $17 $16 $44 $55 forward $6 $-1 #
coedge $-1 -1 $-1 $41 $47 $16 $30 reversed $21 $-1 #
edge $-1 -1 $-1 $37 0 $56 0.2624671916010470341 $16 $57 forward @7 unknown #
coedge $-1 -1 $-1 $45 $23 $17 $32 forward $13 $-1 #
edge $-1 -1 $-1 $36 0 $58 0.2624671916010470341 $31 $59 forward @7 unknown #
coedge $-1 -1 $-1 $60 $18 $23 $43 reversed $35 $-1 #
coedge $-1 -1 $-1 $18 $60 $41 $61 reversed $35 $-1 #
loop $-1 -1 $-1 $-1 $34 $20 #
vertex $-1 -1 $-1 $43 $62 #
vertex $-1 -1 $-1 $19 $63 #
straight-curve $-1 -1 $-1 12374.99999999999818 4975.000000000000909 16650 304.8000000000000114 0 0 F 0 F 0.1640419947506615017 #
face $-1 -1 $-1 $-1 $51 $3 $-1 $64 forward single #
plane-surface $-1 -1 $-1 12425 5025 16649.99999999999272 8.750755371006842293e-29 -8.64137092886925839e-29 1 304.8000000000000114 0 -2.66723023708288557e-26 forward_v I I I I #
coedge $-1 -1 $-1 $65 $29 $34 $61 forward $21 $-1 #
coedge $-1 -1 $-1 $23 $45 $50 $66 reversed $13 $-1 #
edge $-1 -1 $-1 $67 0 $36 0.1640419947506543963 $23 $68 forward @7 unknown #
coedge $-1 -1 $-1 $25 $24 $28 $55 reversed $9 $-1 #
coedge $-1 -1 $-1 $42 $31 $24 $46 forward $13 $-1 #
edge $-1 -1 $-1 $58 0 $52 0.1640419947506543963 $45 $69 forward @7 unknown #
coedge $-1 -1 $-1 $29 $65 $25 $48 forward $21 $-1 #
edge $-1 -1 $-1 $53 0 $56 0.1640419947506543963 $47 $70 forward @7 unknown #
coedge $-1 -1 $-1 $71 $26 $65 $72 forward $51 $-1 #
coedge $-1 -1 $-1 $26 $71 $42 $66 forward $51 $-1 #
loop $-1 -1 $-1 $-1 $71 $39 #
vertex $-1 -1 $-1 $66 $73 #
vertex $-1 -1 $-1 $27 $74 #
straight-curve $-1 -1 $-1 12374.99999999999818 5025 16730 304.8000000000000114 0 0 F 7.105427357601001859e-15 F 0.1640419947506615017 #
edge $-1 -1 $-1 $56 0 $58 0.1640419947506615017 $28 $75 forward @7 unknown #
vertex $-1 -1 $-1 $30 $76 #
straight-curve $-1 -1 $-1 12425 4975.000000000000909 16650 0 0 304.8000000000000114 F 0 F 0.2624671916010470341 #
vertex $-1 -1 $-1 $32 $77 #
straight-curve $-1 -1 $-1 12375 4975.000000000000909 16650 0 0 304.8000000000000114 F 0 F 0.2624671916010470341 #
coedge $-1 -1 $-1 $34 $33 $71 $78 reversed $35 $-1 #
edge $-1 -1 $-1 $37 0 $79 0.1640419947506543963 $41 $80 forward @7 unknown #
point $-1 -1 $-1 12374.99999999999818 4975.000000000000909 16650 #
point $-1 -1 $-1 12425 4975.000000000000909 16650 #
plane-surface $-1 -1 $-1 12425 5025 16650.00000000000364 -7.669855854026038722e-29 1 -7.766942636988394934e-29 0 2.367364115754062732e-26 304.8000000000000114 forward_v I I I I #
coedge $-1 -1 $-1 $47 $41 $49 $72 reversed $21 $-1 #
edge $-1 -1 $-1 $67 0 $52 0.2624671916010470341 $50 $81 forward @7 unknown #
vertex $-1 -1 $-1 $78 $82 #
straight-curve $-1 -1 $-1 12374.99999999999818 5025 16650 0 -304.8000000000000114 0 F 0 F 0.1640419947506543963 #
straight-curve $-1 -1 $-1 12374.99999999999818 4975.000000000000909 16730 0 304.8000000000000114 0 F 0 F 0.1640419947506543963 #
straight-curve $-1 -1 $-1 12425 5025 16730 0 -304.8000000000000114 0 F 0 F 0.1640419947506543963 #
coedge $-1 -1 $-1 $50 $49 $60 $78 forward $51 $-1 #
edge $-1 -1 $-1 $53 0 $79 0.2624671916010470341 $49 $83 forward @7 unknown #
point $-1 -1 $-1 12375 5025 16730 #
point $-1 -1 $-1 12425 5025 16730 #
straight-curve $-1 -1 $-1 12425 4975.000000000000909 16730 -304.8000000000000114 0 0 F 0 F 0.1640419947506615017 #
point $-1 -1 $-1 12425 4975.000000000000909 16730 #
point $-1 -1 $-1 12375 4975.000000000000909 16730 #
edge $-1 -1 $-1 $79 0 $67 0.1640419947506615017 $71 $84 forward @7 unknown #
vertex $-1 -1 $-1 $78 $85 #
straight-curve $-1 -1 $-1 12425 4975.000000000000909 16650 0 304.8000000000000114 0 F 0 F 0.1640419947506543963 #
straight-curve $-1 -1 $-1 12375 5025 16650 0 0 304.8000000000000114 F 0 F 0.2624671916010470341 #
point $-1 -1 $-1 12374.99999999999818 5025 16650 #
straight-curve $-1 -1 $-1 12425 5025 16730 0 0 -304.8000000000000114 F 0 F 0.2624671916010470341 #
straight-curve $-1 -1 $-1 12425 5025 16650 -304.8000000000000114 0 0 F 0 F 0.1640419947506615017 #
point $-1 -1 $-1 12425 5025 16650 #
End-of-ACIS-data 