700 0 1 0           
4 LibG 20 ASM 224.0.1.65535 NT 24 Wed Jul 17 12:56:14 2019 
1000 9.999999999999999547e-07 1.000000000000000036e-10 
body $-1 -1 $-1 $1 $-1 $2 #
lump $-1 -1 $-1 $-1 $3 $0 #
transform $-1 -1 1 0 0 0 1 0 0 0 1 0 0 0 1 no_rotate no_reflect no_shear #
shell $-1 -1 $-1 $-1 $-1 $4 $-1 $1 #
face $-1 -1 $-1 $5 $6 $3 $-1 $7 forward single #
face $-1 -1 $-1 $8 $9 $3 $-1 $10 forward single #
loop $-1 -1 $-1 $-1 $11 $4 #
plane-surface $-1 -1 $-1 10199.99999999999818 -2000.029999999999973 15650.00000000000909 -0 -3.159931796133957082e-32 -1 -304.8000000000000114 0 0 forward_v I I I I #
face $-1 -1 $-1 $12 $13 $3 $-1 $14 forward single #
loop $-1 -1 $-1 $-1 $15 $5 #
plane-surface $-1 -1 $-1 10200 -2000.029999999998381 15650.00000000000182 1 4.017720968105372986e-33 7.23189774258967589e-32 2.204282431941333303e-29 0 -304.8000000000000114 forward_v I I I I #
coedge $-1 -1 $-1 $16 $17 $18 $19 forward $6 $-1 #
face $-1 -1 $-1 $20 $21 $3 $-1 $22 forward single #
loop $-1 -1 $-1 $-1 $23 $8 #
plane-surface $-1 -1 $-1 9000 -199.99999999999892 15650.00000000000182 -1 6.026581452158062694e-32 7.23189774258967589e-32 2.204282431941333303e-29 0 304.8000000000000114 forward_v I I I I #
coedge $-1 -1 $-1 $24 $25 $17 $26 reversed $9 $-1 #
coedge $-1 -1 $-1 $27 $11 $23 $28 forward $6 $-1 #
coedge $-1 -1 $-1 $11 $27 $15 $26 forward $6 $-1 #
coedge $-1 -1 $-1 $29 $30 $11 $19 reversed $21 $-1 #
edge $-1 -1 $-1 $31 0 $32 3.937007874015744591 $11 $33 forward @7 unknown #
face $-1 -1 $-1 $34 $35 $3 $-1 $36 forward single #
loop $-1 -1 $-1 $-1 $18 $12 #
plane-surface $-1 -1 $-1 9000 -2000.029999999999291 15649.99999999999818 -6.001889829222938558e-33 -1 -3.00094491461146969e-32 0 9.14688009973576024e-30 -304.8000000000000114 forward_v I I I I #
coedge $-1 -1 $-1 $37 $38 $16 $28 reversed $13 $-1 #
coedge $-1 -1 $-1 $39 $15 $40 $41 reversed $9 $-1 #
coedge $-1 -1 $-1 $15 $39 $29 $42 reversed $9 $-1 #
edge $-1 -1 $-1 $43 0 $31 5.905610236220471876 $17 $44 forward @7 unknown #
coedge $-1 -1 $-1 $17 $16 $45 $46 forward $6 $-1 #
edge $-1 -1 $-1 $32 0 $47 5.905610236220471876 $16 $48 forward @7 unknown #
coedge $-1 -1 $-1 $49 $18 $25 $42 forward $21 $-1 #
coedge $-1 -1 $-1 $18 $49 $37 $50 forward $21 $-1 #
vertex $-1 -1 $-1 $19 $51 #
vertex $-1 -1 $-1 $19 $52 #
straight-curve $-1 -1 $-1 10199.99999999999818 -2000.029999999999291 15650.00000000000182 -304.8000000000000114 0 0 F 0 F 3.937007874015744591 #
face $-1 -1 $-1 $-1 $53 $3 $-1 $54 forward single #
loop $-1 -1 $-1 $-1 $45 $20 #
plane-surface $-1 -1 $-1 10199.99999999999818 -199.99999999999946 15649.99999999999818 1.875590571632169582e-34 1 -4.313858314753987303e-33 0 1.314864014337015307e-30 304.8000000000000114 forward_v I I I I #
coedge $-1 -1 $-1 $55 $23 $30 $50 reversed $13 $-1 #
coedge $-1 -1 $-1 $23 $55 $56 $57 forward $13 $-1 #
coedge $-1 -1 $-1 $25 $24 $58 $59 reversed $9 $-1 #
coedge $-1 -1 $-1 $45 $60 $24 $41 forward $35 $-1 #
edge $-1 -1 $-1 $61 0 $43 4.921259842519681627 $40 $62 forward @7 unknown #
edge $-1 -1 $-1 $31 0 $63 4.921259842519681627 $29 $64 forward @7 unknown #
vertex $-1 -1 $-1 $46 $65 #
straight-curve $-1 -1 $-1 10199.99999999999818 -199.99999999999946 15650.00000000000182 0 -304.8000000000000114 0 F 0 F 5.905610236220471876 #
coedge $-1 -1 $-1 $56 $40 $27 $46 reversed $35 $-1 #
edge $-1 -1 $-1 $47 0 $43 3.937007874015744591 $27 $66 forward @7 unknown #
vertex $-1 -1 $-1 $28 $67 #
straight-curve $-1 -1 $-1 9000 -2000.029999999999291 15650.00000000000182 0 304.8000000000000114 0 F 0 F 5.905610236220471876 #
coedge $-1 -1 $-1 $30 $29 $68 $69 reversed $21 $-1 #
edge $-1 -1 $-1 $70 0 $32 4.921259842519681627 $30 $71 forward @7 unknown #
point $-1 -1 $-1 10199.99999999999818 -2000.029999999999291 15650.00000000000182 #
point $-1 -1 $-1 9000 -2000.029999999999291 15650.00000000000182 #
loop $-1 -1 $-1 $-1 $58 $34 #
plane-surface $-1 -1 $-1 10199.99999999999818 -2000.029999999999973 17150.00000000000364 -3.646075149385335306e-32 3.421138828918010427e-49 1 304.8000000000000114 0 1.111323705532650214e-29 forward_v I I I I #
coedge $-1 -1 $-1 $38 $37 $72 $73 reversed $13 $-1 #
coedge $-1 -1 $-1 $60 $45 $38 $57 reversed $35 $-1 #
edge $-1 -1 $-1 $74 0 $47 4.921259842519681627 $38 $75 forward @7 unknown #
coedge $-1 -1 $-1 $76 $68 $39 $59 forward $53 $-1 #
edge $-1 -1 $-1 $63 0 $61 5.905610236220471876 $58 $77 forward @7 unknown #
coedge $-1 -1 $-1 $40 $56 $76 $78 reversed $35 $-1 #
vertex $-1 -1 $-1 $59 $79 #
straight-curve $-1 -1 $-1 10199.99999999999818 -199.99999999999946 17150 0 0 -304.8000000000000114 F 0 F 4.921259842519681627 #
vertex $-1 -1 $-1 $59 $80 #
straight-curve $-1 -1 $-1 10199.99999999999818 -2000.029999999999291 15650.00000000000182 0 0 304.8000000000000114 F 0 F 4.921259842519681627 #
point $-1 -1 $-1 10199.99999999999818 -199.99999999999946 15650.00000000000182 #
straight-curve $-1 -1 $-1 9000 -199.99999999999946 15650.00000000000182 304.8000000000000114 0 0 F 0 F 3.937007874015744591 #
point $-1 -1 $-1 9000 -199.99999999999946 15650.00000000000182 #
coedge $-1 -1 $-1 $58 $72 $49 $69 forward $53 $-1 #
edge $-1 -1 $-1 $70 0 $63 3.937007874015744591 $68 $81 forward @7 unknown #
vertex $-1 -1 $-1 $73 $82 #
straight-curve $-1 -1 $-1 9000 -2000.029999999999291 17150 0 0 -304.8000000000000114 F 0 F 4.921259842519681627 #
coedge $-1 -1 $-1 $68 $76 $55 $73 forward $53 $-1 #
edge $-1 -1 $-1 $74 0 $70 5.905610236220471876 $72 $83 forward @7 unknown #
vertex $-1 -1 $-1 $78 $84 #
straight-curve $-1 -1 $-1 9000 -199.99999999999946 17150 0 0 -304.8000000000000114 F 0 F 4.921259842519681627 #
coedge $-1 -1 $-1 $72 $58 $60 $78 forward $53 $-1 #
straight-curve $-1 -1 $-1 10199.99999999999818 -2000.029999999999291 17150 0 304.8000000000000114 0 F 0 F 5.905610236220471876 #
edge $-1 -1 $-1 $61 0 $74 3.937007874015744591 $76 $85 forward @7 unknown #
point $-1 -1 $-1 10199.99999999999818 -199.99999999999946 17150 #
point $-1 -1 $-1 10199.99999999999818 -2000.029999999999291 17150 #
straight-curve $-1 -1 $-1 9000 -2000.029999999999291 17150 304.8000000000000114 0 0 F 0 F 3.937007874015744591 #
point $-1 -1 $-1 9000 -2000.029999999999291 17150 #
straight-curve $-1 -1 $-1 9000 -199.99999999999946 17150 0 -304.8000000000000114 0 F 0 F 5.905610236220471876 #
point $-1 -1 $-1 9000 -199.99999999999946 17150 #
straight-curve $-1 -1 $-1 10199.99999999999818 -199.99999999999946 17150 -304.8000000000000114 0 0 F 0 F 3.937007874015744591 #
End-of-ACIS-data 