700 0 1 0           
4 LibG 19 ASM 222.0.0.1700 NT 24 Wed Oct  5 17:29:54 2016 
1000 9.999999999999999547e-07 1.000000000000000036e-10 
body $-1 -1 $-1 $1 $-1 $-1 #
lump $-1 -1 $-1 $-1 $2 $0 #
shell $-1 -1 $-1 $-1 $-1 $3 $-1 $1 #
face $-1 -1 $-1 $4 $5 $2 $-1 $6 forward single #
face $-1 -1 $-1 $7 $8 $2 $-1 $9 reversed single #
loop $-1 -1 $-1 $-1 $10 $3 #
plane-surface $-1 -1 $-1 9278.720128714297971 1028.193908305246623 14000.00000000000182 0.4531871434353523798 -0.8914153986918250672 3.503246160812042677e-46 0 -3.929981651599406946e-46 -1 forward_v I I I I #
face $-1 -1 $-1 $-1 $11 $2 $-1 $12 forward single #
loop $-1 -1 $-1 $-1 $13 $4 #
plane-surface $-1 -1 $-1 9120.104628492899792 1340.189297884811822 14000 0.4531871434353523242 -0.8914153986918250672 5.197112580936172086e-15 0 -5.830180394643246663e-15 -1 forward_v I I I I #
tcoedge-coedge $-1 -1 $-1 $10 $10 $14 $15 forward $5 $16 2.259632008198802346e-58 6.283185307179586232 #
loop $-1 -1 $-1 $-1 $17 $7 #
spline-surface $-1 -1 $-1 forward { exactsur full nubs 3 3 periodic open none none 78 2 
	-4.42533407521766378e-44 3 0.002232142857142857019 1 0.004464285714285714038 1 0.008928571428571428076 1 0.01785714285714285615 1 
	0.0357142857142857123 1 0.04464285714285713691 1 0.05357142857142856845 1 0.0625 1 0.0669642857142857123 1 
	0.07142857142857142461 1 0.08928571428571427382 1 0.1071428571428571369 1 0.125 1 0.1428571428571428492 1 
	0.1587301587301587213 1 0.1746031746031745935 1 0.1825396825396825295 1 0.1865079365079365115 1 0.1904761904761904656 1 
	0.2142857142857142738 1 0.238095238095238082 1 0.2619047619047618625 1 0.2857142857142856984 1 0.3095238095238095344 1 
	0.3214285714285713969 1 0.3244047619047618625 1 0.3273809523809523281 1 0.3333333333333333148 1 0.3571428571428570953 1 
	0.3690476190476190133 1 0.375 1 0.3764880952380952328 1 0.3779761904761904656 1 0.3809523809523809312 1 
	0.3928571428571428492 1 0.4047619047619047672 1 0.4285714285714285476 1 0.4444444444444444198 1 0.4603174603174602919 1 
	0.476190476190476164 1 0.4841269841269840724 1 0.4920634920634920362 1 0.5079365079365079083 1 0.5238095238095237249 1 
	0.5476190476190475609 1 0.5714285714285713969 1 0.5952380952380951218 1 0.6190476190476189577 1 0.6349206349206348854 1 
	0.650793650793650702 1 0.6666666666666666297 1 0.6904761904761904656 1 0.7023809523809523281 1 0.7142857142857141906 1 
	0.7321428571428569843 1 0.749999999999999889 1 0.7678571428571427937 1 0.7857142857142855874 1 0.7976190476190474499 1 
	0.8095238095238094234 1 0.8154761904761904656 1 0.8333333333333332593 1 0.8571428571428570953 1 0.875 1 
	0.8928571428571427937 1 0.9107142857142856984 1 0.9285714285714286031 1 0.9464285714285713969 1 0.9642857142857143016 1 
	0.9821428571428572063 1 0.9910714285714286031 1 0.9955357142857143016 1 0.9977678571428572063 1 0.9988839285714286031 1 
	0.9994419642857143016 1 0.9997209821428572063 1 1 3 
	0 3 1 3 
	9565.812387059319008 1566.782899698067013 14000.00002002020119 
	9565.812387041632974 1566.782899689074384 14002.33751456907703 
	9565.783159832903038 1566.768040853098228 14007.01250310201431 
	9565.607837898056459 1566.678908842454575 14016.3606445373789 
	9564.994217744668276 1566.366950170121527 14032.71022259337951 
	9562.541769201881834 1565.120148565903946 14065.33225531225798 
	9556.948459576315145 1562.276562945213072 14102.26175347211938 
	9548.617572539611501 1558.041218902875926 14138.49040696319753 
	9541.021523382743908 1554.179459476862348 14165.22622596714973 
	9533.58771210210034 1550.400180249980622 14187.0728364568331 
	9526.992549064050763 1547.047261844041259 14204.24894673469862 
	9516.459796305563941 1541.692510128968024 14229.6918571875176 
	9498.288881729969944 1532.454589310923666 14266.57486977734879 
	9469.304858383124156 1517.719386436537661 14312.39973387094687 
	9435.929613142216112 1500.751727953752379 14354.29617893624891 
	9399.965682397976707 1482.468006286034324 14390.35009632528818 
	9362.322948470395204 1463.330796984782182 14420.71008949703901 
	9330.202571179417646 1447.001101478518194 14441.5133325572624 
	9306.832917876679858 1435.120191143328611 14454.13831497301362 
	9293.250889563252713 1428.21521662479995 14460.78582661620203 
	9265.800059535155015 1414.259474707468598 14473.3178084325973 
	9219.654546815992944 1390.799533223550725 14489.2857257296746 
	9153.53682800518618 1357.185911378864375 14500.46571323853823 
	9086.672326870237157 1323.192632475781693 14500.46546903229319 
	9020.554462309577502 1289.578936533285514 14489.2862662984171 
	8967.309775935067591 1262.509842420289942 14470.86115774282007 
	8934.18342353229491 1245.668718697469785 14454.64644834196952 
	8919.23237249111844 1238.06774599423693 14446.37541251684524 
	8909.358742918813732 1233.048086262335346 14440.65309970666203 
	8882.606202020222554 1219.447347922796553 14424.06758152725342 
	8850.379995120463718 1203.063849645762275 14399.41858498322654 
	8820.878470185696642 1188.065553866069877 14370.93618308475743 
	8807.870265280111198 1181.452305731667593 14356.87945335674885 
	8802.004289596627132 1178.470099268373133 14350.23709882499679 
	8798.130722067407987 1176.500814234653944 14345.76804286820334 
	8787.632649060584299 1171.163693376616493 14333.31142613383054 
	8771.311732272786685 1162.866293905920884 14312.03525178273412 
	8744.895654342079069 1149.436610151605237 14271.88547047069369 
	8720.749831215718586 1137.16110243148546 14224.97038844534109 
	8700.581426535949504 1126.907676567563612 14171.29367726022792 
	8687.462423234705057 1120.238099578514948 14123.58349042141526 
	8680.113620114309015 1116.502037694601313 14082.80112861080852 
	8676.427850488500553 1114.62822733578605 14049.8045083601337 
	8674.212244733076659 1113.501834360355815 14016.64278087650382 
	8674.212455604862043 1113.501941565574953 13975.0356886109239 
	8679.38160152985256 1116.129886381405868 13917.07491463523729 
	8692.606213050617953 1122.853153588717078 13852.07138456649591 
	8717.035111942943331 1135.272574346423198 13782.24727496045489 
	8750.466861007562329 1152.268958838804792 13717.28675102507441 
	8787.524799517299471 1171.108863690592216 13665.15894760595438 
	8824.696715710058925 1190.00671371661997 13624.48701574096958 
	8859.49383055706312 1207.697237237324771 13593.35742466991724 
	8903.111690688727322 1229.872144093090128 13561.75288838303459 
	8946.620367404930221 1251.991543134780386 13538.24843220431649 
	8988.607645760301239 1273.337477663588288 13521.76850946526974 
	9026.203666966646779 1292.450938660538895 13510.46669008045319 
	9070.096470282105656 1314.765624026045771 13502.10048870277751 
	9120.104673115049081 1340.189320568987114 13498.9500513873154 
	9170.112958136814996 1365.613058895937229 13502.10037514443138 
	9214.005636678921292 1387.927680827774338 13510.46680161148106 
	9251.601872632189043 1407.041250999989643 13521.76810071898763 
	9277.843562009515153 1420.382277265870925 13532.06890324070991 
	9308.649981569840747 1436.043969110591206 13546.38373914647127 
	9348.395354370446512 1456.250140094899052 13568.89012834416462 
	9394.433398391207447 1479.65544551047492 13604.10231944086445 
	9435.929503538425706 1500.751672233124964 13645.7041981847542 
	9469.305061724697225 1517.719489814218377 13687.60012255954462 
	9498.288871425074831 1532.45458407262845 13733.42522675313921 
	9522.516976939914457 1544.771923378422116 13782.60240675165915 
	9541.684383341234934 1554.516451199761832 13834.51360447515253 
	9555.550353505099338 1561.565779063751961 13888.50583266623471 
	9562.541723504376932 1565.120125333671012 13934.66780789180484 
	9564.994229032916337 1566.366955908876434 13967.28981366576772 
	9565.607837744029894 1566.678908764128437 13983.63939609763474 
	9565.761245212252106 1566.756899667552943 13991.8190191866488 
	9565.799601994536715 1566.776399892263726 13995.90943326207525 
	9565.809190686606598 1566.781274692465786 13997.95471589269619 
	9565.811930391368151 1566.782667532407913 13999.12345955554702 
	9565.81238706152908 1566.782899699191148 13999.70783320159171 
	9565.812387059319008 1566.782899698067013 14000.00002002020119 
	9618.684220466451734 1462.784436504879068 14000.00002002020119 
	9618.6842204487657 1462.784436495886439 14002.33751456907703 
	9618.654993240035765 1462.769577659910283 14007.01250310201431 
	9618.479671305189186 1462.68044564926663 14016.3606445373789 
	9617.866051151801003 1462.368486976933809 14032.71022259337951 
	9615.413602609014561 1461.121685372716456 14065.33225531225798 
	9609.820292983446052 1458.27809975202581 14102.26175347211938 
	9601.489405946742409 1454.042755709689118 14138.49040696319753 
	9593.893356789874815 1450.18099628367554 14165.22622596714973 
	9586.459545509231248 1446.401717056794041 14187.0728364568331 
	9579.864382471181671 1443.048798650854678 14204.24894673469862 
	9569.331629712694848 1437.694046935781898 14229.6918571875176 
	9551.160715137100851 1428.45612611773754 14266.57486977734879 
	9522.176691790255063 1413.72092324335199 14312.39973387094687 
	9488.80144654934702 1396.753264760566935 14354.29617893624891 
	9452.837515805107614 1378.469543092849108 14390.35009632528818 
	9415.194781877526111 1359.332333791597421 14420.71008949703901 
	9383.074404586548553 1343.002638285333433 14441.5133325572624 
	9359.704751283810765 1331.121727950144077 14454.13831497301362 
	9346.12272297038362 1324.216753431615189 14460.78582661620203 
	9318.671892942285922 1310.261011514284291 14473.3178084325973 
	9272.526380223123851 1286.801070030366191 14489.2857257296746 
	9206.408661412317088 1253.187448185680068 14500.46571323853823 
	9139.544160277368064 1219.194169282597159 14500.46546903229319 
	9073.42629571670841 1185.58047334010098 14489.2862662984171 
	9020.181609342198499 1158.511379227105408 14470.86115774282007 
	8987.055256939425817 1141.670255504284796 14454.64644834196952 
	8972.104205898249347 1134.069282801052168 14446.37541251684524 
	8962.230576325944639 1129.049623069150357 14440.65309970666203 
	8935.478035427353461 1115.448884729611564 14424.06758152725342 
	8903.251828527594625 1099.065386452577059 14399.41858498322654 
	8873.750303592827549 1084.067090672884433 14370.93618308475743 
	8860.742098687242105 1077.453842538481922 14356.87945335674885 
	8854.876123003758039 1074.471636075187462 14350.23709882499679 
	8851.002555474538894 1072.502351041468273 14345.76804286820334 
	8840.504482467715206 1067.165230183430594 14333.31142613383054 
	8824.183565679917592 1058.867830712734758 14312.03525178273412 
	8797.767487749209977 1045.438146958418884 14271.88547047069369 
	8773.621664622849494 1033.16263923829888 14224.97038844534109 
	8753.453259943080411 1022.909213374376463 14171.29367726022792 
	8740.334256641835964 1016.239636385327458 14123.58349042141526 
	8732.985453521441741 1012.503574501413595 14082.80112861080852 
	8729.299683895633279 1010.629764142597878 14049.8045083601337 
	8727.084078140209385 1009.503371167167757 14016.64278087650382 
	8727.08428901199477 1009.503478372386212 13975.0356886109239 
	8732.253434936985286 1012.1314231882169 13917.07491463523729 
	8745.478046457750679 1018.854690395527314 13852.07138456649591 
	8769.906945350076057 1031.274111153233207 13782.24727496045489 
	8803.338694414695055 1048.270495645614119 13717.28675102507441 
	8840.396632924432197 1067.110400497401315 13665.15894760595438 
	8877.56854911719347 1086.008250523428842 13624.48701574096958 
	8912.365663964197665 1103.698774044133188 13593.35742466991724 
	8955.983524095861867 1125.873680899898318 13561.75288838303459 
	8999.492200812064766 1147.993079941588576 13538.24843220431649 
	9041.479479167435784 1169.339014470396251 13521.76850946526974 
	9079.075500373781324 1188.452475467347085 13510.46669008045319 
	9122.968303689240201 1210.767160832853506 13502.10048870277751 
	9172.976506522183627 1236.190857375795076 13498.9500513873154 
	9222.984791543949541 1261.614595702745191 13502.10037514443138 
	9266.877470086055837 1283.929217634582301 13510.46680161148106 
	9304.473706039323588 1303.042787806797833 13521.76810071898763 
	9330.715395416649699 1316.383814072679343 13532.06890324070991 
	9361.521814976975293 1332.045505917399396 13546.38373914647127 
	9401.267187777581057 1352.251676901707697 13568.89012834416462 
	9447.305231798340174 1375.656982317283564 13604.10231944086445 
	9488.801336945558432 1396.753209039934291 13645.7041981847542 
	9522.176895131829951 1413.721026621027931 13687.60012255954462 
	9551.160704832207557 1428.456120879438231 13733.42522675313921 
	9575.388810347047183 1440.773460185232807 13782.60240675165915 
	9594.55621674836766 1450.517988006572295 13834.51360447515253 
	9608.422186912232064 1457.567315870563334 13888.50583266623471 
	9615.413556911509659 1461.121662140482385 13934.66780789180484 
	9617.866062440049063 1462.368492715688262 13967.28981366576772 
	9618.47967115116262 1462.680445570940265 13983.63939609763474 
	9618.633078619384833 1462.758436474364999 13991.8190191866488 
	9618.671435401669441 1462.777936699075553 13995.90943326207525 
	9618.681024093739325 1462.782811499277841 13997.95471589269619 
	9618.683763798500877 1462.784204339219741 13999.12345955554702 
	9618.684220468661806 1462.784436506003203 13999.70783320159171 
	9618.684220466451734 1462.784436504879068 14000.00002002020119 
	9671.556053874139252 1358.785973310596319 14000.00002002020847 
	9671.556053856451399 1358.785973301603462 14002.33751456908431 
	9671.526826647721464 1358.771114465631399 14007.01250310201794 
	9671.351504712873066 1358.681982454990703 14016.36064453738618 
	9670.737884559475788 1358.3700237826788 14032.71022259338315 
	9668.28543601666388 1357.123222178504648 14065.33225531226344 
	9662.692126391000784 1354.279636558003403 14102.26175347212666 
	9654.361239354277131 1350.044292515702864 14138.4904069632048 
	9646.765190197389529 1346.182533089732487 14165.22622596715701 
	9639.331378916729591 1342.403253862884185 14187.07283645684038 
	9632.736215878676376 1339.050335456954599 14204.24894673470772 
	9622.203463120180459 1333.695583741897053 14229.69185718752487 
	9604.032548544531892 1324.457662923961152 14266.57486977735607 
	9575.048525197644267 1309.72246004965541 14312.39973387095233 
	9541.67327995668893 1292.754801566963124 14354.29617893625255 
	9505.709349212413144 1274.471079899319193 14390.35009632529182 
	9468.0666152847989 1255.333870598131853 14420.71008949704265 
	9435.946237993803152 1239.004175091903562 14441.51333255726604 
	9412.576584691061726 1227.123264756721937 14454.13831497301726 
	9398.994556377632762 1220.218290238196914 14460.78582661620567 
	9371.543726349531426 1206.262548320873975 14473.31780843259912 
	9325.398213630347527 1182.802606836996802 14489.2857257296746 
	9259.280494819531668 1149.188984992329324 14500.46571323854005 
	9192.415993684564455 1115.195706089282794 14500.46546903229319 
	9126.298129123890249 1081.58201014680867 14489.2862662984171 
	9073.053442749371243 1054.512916033834699 14470.86115774282007 
	9039.927090346593104 1037.671792311020226 14454.64644834196952 
	9024.976039305416634 1030.070819607788053 14446.37541251684524 
	9015.102409733111926 1025.051159875886697 14440.65309970666203 
	8988.349868834518929 1011.450421536350632 14424.06758152725342 
	8956.123661934756456 995.0669232593235165 14399.41858498322654 
	8926.62213699998938 980.0686274796335056 14370.93618308475743 
	8913.613932094402116 973.4553793452315631 14356.87945335674885 
	8907.747956410919869 970.4731728819374439 14350.23709882499679 
	8903.874388881698906 968.503887848218028 14345.76804286820334 
	8893.376315874875218 963.1667669901813724 14333.31142613383054 
	8877.055399087075784 954.8693675194884918 14312.03525178273412 
	8850.63932115636635 941.4396837651760279 14271.88547047069369 
	8826.493498030005867 929.16417604506114 14224.97038844534109 
	8806.325093350234965 918.9107501811427028 14171.29367726022792 
	8793.206090048990518 912.2411731920943794 14123.58349042141526 
	8785.857286928592657 908.5051113081824496 14082.80112861080852 
	8782.171517302784196 906.6313009493673007 14049.8045083601337 
	8779.955911547360301 905.5049079739372928 14016.64278087650382 
	8779.956122419145686 905.5050151791563167 13975.0356886109239 
	8785.12526834413984 908.1329599949866633 13917.07491463523729 
	8798.349879864905233 914.8562272022951447 13852.07138456649591 
	8822.778778757234249 927.2756479599979684 13782.24727496045489 
	8856.210527821855067 944.2720324523738782 13717.28675102507441 
	8893.268466331594027 963.1119373041547078 13665.15894760595438 
	8930.440382524357119 982.0097873301778009 13624.48701574096958 
	8965.237497371361314 999.7003108508793048 13593.35742466991724 
	9008.855357503030973 1021.87521770663966 13561.75288838303459 
	9052.36403421923751 1043.994616748319686 13538.24843220431649 
	9094.351312574610347 1065.340551277122358 13521.76850946526974 
	9131.947333780961344 1084.454012274066372 13510.46669008045319 
	9175.840137096425678 1106.768697639559832 13502.10048870277751 
	9225.848339929378199 1132.192394182485032 13498.9500513873154 
	9275.856624951151389 1157.616132509418321 13502.10037514443138 
	9319.749303493270418 1179.930754441234285 13510.46680161148106 
	9357.345539446543626 1199.04432461344004 13521.76810071898763 
	9383.587228823875193 1212.385350879314046 13532.06890324070991 
	9414.393648384204425 1228.047042724027506 13546.38373914647127 
	9454.139021184824742 1248.25321370830693 13568.89012834416462 
	9500.177065205618419 1271.65851912382027 13604.10231944086445 
	9541.673170352860325 1292.754745846417791 13645.7041981847542 
	9575.048728539188232 1309.722563427403657 13687.60012255954462 
	9604.032538239613132 1324.457657685722097 13733.42522675313921 
	9628.260643754507328 1336.774996991407079 13782.60240675165915 
	9647.428050155893288 1346.51952481262424 13834.51360447515253 
	9661.2940203198159 1353.568852676494544 13888.50583266623471 
	9668.28539031917353 1357.123198946266939 13934.66780789180666 
	9670.737895847732943 1358.370029521425749 13967.28981366577136 
	9671.351504558855595 1358.681982376662972 13983.63939609763656 
	9671.504912027075989 1358.759973280083614 13991.8190191866488 
	9671.543268809362417 1358.779473504793259 13995.90943326207889 
	9671.552857501430481 1358.784348304995092 13997.954715892698 
	9671.555597206186576 1358.785741144937674 13999.12345955555429 
	9671.556053876351143 1358.785973311720454 13999.70783320159899 
	9671.556053874139252 1358.785973310596319 14000.00002002020847 
	9724.427887281271978 1254.787510117407919 14000.00002002020847 
	9724.427887263584125 1254.787510108415063 14002.33751456908431 
	9724.39866005485419 1254.772651272442999 14007.01250310201794 
	9724.223338120005792 1254.683519261802303 14016.36064453738618 
	9723.609717966608514 1254.371560589490173 14032.71022259338315 
	9721.157269423796606 1253.124758985315566 14065.33225531226344 
	9715.56395979813351 1250.281173364813867 14102.26175347212666 
	9707.233072761409858 1246.0458293225131 14138.4904069632048 
	9699.637023604522255 1242.184069896542496 14165.22622596715701 
	9692.203212323862317 1238.404790669693739 14187.07283645684038 
	9685.608049285809102 1235.051872263764153 14204.24894673470772 
	9675.075296527313185 1229.697120548706152 14229.69185718752487 
	9656.904381951664618 1220.459199730770251 14266.57486977735607 
	9627.920358604778812 1205.723996856463373 14312.39973387095233 
	9594.545113363823475 1188.756338373771314 14354.29617893625255 
	9558.58118261954769 1170.472616706126246 14390.35009632529182 
	9520.938448691933445 1151.335407404939133 14420.71008949704265 
	9488.818071400937697 1135.00571189871016 14441.51333255726604 
	9465.448418098196271 1123.124801563528763 14454.13831497301726 
	9451.866389784767307 1116.219827045003285 14460.78582661620567 
	9424.415559756665971 1102.264085127680573 14473.31780843259912 
	9378.270047037482072 1078.804143643803172 14489.2857257296746 
	9312.152328226666214 1045.19052179913524 14500.46571323854005 
	9245.287827091699 1011.197242896088937 14500.46546903229319 
	9179.169962531024794 977.5835469536145865 14489.2862662984171 
	9125.925276156505788 950.5144528406411837 14470.86115774282007 
	9092.798923753727649 933.6733291178265972 14454.64644834196952 
	9077.84787271255118 926.0723564145946511 14446.37541251684524 
	9067.974243140246472 921.0526966826932949 14440.65309970666203 
	9041.221702241653475 907.4519583431573437 14424.06758152725342 
	9008.995495341891001 891.0684600661306831 14399.41858498322654 
	8979.493970407123925 876.0701642864405585 14370.93618308475743 
	8966.485765501536662 869.4569161520391845 14356.87945335674885 
	8960.619789818054414 866.4747096887449516 14350.23709882499679 
	8956.746222288833451 864.5054246550257631 14345.76804286820334 
	8946.248149282009763 859.1683037969887664 14333.31142613383054 
	8929.92723249421033 850.8709043262966816 14312.03525178273412 
	8903.511154563500895 837.4412205719839903 14271.88547047069369 
	8879.365331437138593 825.165712851870353 14224.97038844534109 
	8859.196926757367692 814.9122869879518021 14171.29367726022792 
	8846.077923456123244 808.2427099989043882 14123.58349042141526 
	8838.729120335725383 804.5066481149926858 14082.80112861080852 
	8835.043350709916922 802.6328377561779917 14049.8045083601337 
	8832.827744954493028 801.5064447807484385 14016.64278087650382 
	8832.827955826278412 801.5065519859678034 13975.0356886109239 
	8837.997101751270748 804.1344968017987185 13917.07491463523729 
	8851.221713272036141 810.8577640091081093 13852.07138456649591 
	8875.650612164365157 823.2771847668113878 13782.24727496045489 
	8909.082361228985974 840.2735692591883208 13717.28675102507441 
	8946.140299738724934 859.1134741109697188 13665.15894760595438 
	8983.312215931488026 878.0113241369931529 13624.48701574096958 
	9018.109330778492222 895.7018476576949979 13593.35742466991724 
	9061.727190910160061 917.876754513455694 13561.75288838303459 
	9105.235867626366598 939.9961535551359475 13538.24843220431649 
	9147.223145981739435 961.3420880839390747 13521.76850946526974 
	9184.819167188090432 980.4555490808829745 13510.46669008045319 
	9228.711970503554767 1002.770234446376662 13502.10048870277751 
	9278.720173336507287 1028.193930989301862 13498.9500513873154 
	9328.728458358280477 1053.617669316235151 13502.10037514443138 
	9372.621136900399506 1075.932291248051115 13510.46680161148106 
	9410.217372853672714 1095.045861420256642 13521.76810071898763 
	9436.459062231004282 1108.386887686130649 13532.06890324070991 
	9467.265481791333514 1124.048579530843881 13546.38373914647127 
	9507.01085459195383 1144.254750515123305 13568.89012834416462 
	9553.048898612747507 1167.660055930635963 13604.10231944086445 
	9594.545003759991232 1188.756282653233484 13645.7041981847542 
	9627.92056194631914 1205.724100234218668 13687.60012255954462 
	9656.904371646744039 1220.459194492536653 13733.42522675313921 
	9681.132477161638235 1232.77653379822118 13782.60240675165915 
	9700.299883563024196 1242.52106161943766 13834.51360447515253 
	9714.165853726946807 1249.570389483307508 13888.50583266623471 
	9721.157223726304437 1253.124735753079221 13934.66780789180666 
	9723.609729254863851 1254.371566328237805 13967.28981366577136 
	9724.223337965988321 1254.6835191834748 13983.63939609763656 
	9724.376745434208715 1254.761510086895214 13991.8190191866488 
	9724.415102216495143 1254.781010311605087 13995.90943326207889 
	9724.424690908563207 1254.785885111806692 13997.954715892698 
	9724.427430613319302 1254.787277951749275 13999.12345955555429 
	9724.427887283483869 1254.787510118532055 13999.70783320159899 
	9724.427887281271978 1254.787510117407919 14000.00002002020847 
	0 
	
	0 
	0 
	77 -4.42533407521766378e-44 0.002232142857142857019 0.004464285714285714038 0.008928571428571428076 0.01785714285714285615 0.0357142857142857123 0.04464285714285713691 0.05357142857142856845 0.0625 0.0669642857142857123 0.07142857142857142461 0.08928571428571427382 0.1071428571428571369 0.125 0.1428571428571428492 0.1587301587301587213 0.1746031746031745935 0.1825396825396825295 0.1865079365079365115 0.1904761904761904656 0.2142857142857142738 0.238095238095238082 0.2619047619047618625 0.2857142857142856984 0.3095238095238095344 0.3214285714285713969 0.3244047619047618625 0.3273809523809523281 0.3333333333333333148 0.3571428571428570953 0.3690476190476190133 0.375 0.3764880952380952328 0.3779761904761904656 0.3809523809523809312 0.3928571428571428492 0.4047619047619047672 0.4285714285714285476 0.4444444444444444198 0.4603174603174602919 0.476190476190476164 0.4841269841269840724 0.4920634920634920362 0.5079365079365079083 0.5238095238095237249 0.5476190476190475609 0.5714285714285713969 0.5952380952380951218 0.6190476190476189577 0.6349206349206348854 0.650793650793650702 0.6666666666666666297 0.6904761904761904656 0.7023809523809523281 0.7142857142857141906 0.7321428571428569843 0.749999999999999889 0.7678571428571427937 0.7857142857142855874 0.7976190476190474499 0.8095238095238094234 0.8154761904761904656 0.8333333333333332593 0.8571428571428570953 0.875 0.8928571428571427937 0.9107142857142856984 0.9285714285714286031 0.9464285714285713969 0.9642857142857143016 0.9821428571428572063 0.9910714285714286031 0.9955357142857143016 0.9977678571428572063 0.9988839285714286031 0.9994419642857143016 0.9997209821428572063 
	0 
	0 
	0 
	F 1 F 0 F 1 F 0 } I I I I #
tcoedge-coedge $-1 -1 $-1 $13 $13 $17 $18 reversed $8 $19 -6.283185307179586232 -1.654361224857995669e-30 #
tcoedge-coedge $-1 -1 $-1 $20 $21 $10 $15 reversed $11 $22 -6.283185307179586232 -2.259632008198802346e-58 #
tedge-edge $-1 -1 $-1 $23 2.259632008198802346e-58 $23 6.283185307179586232 $14 $24 forward @7 unknown 0.0007714509817958827877 #
pcurve $-1 -1 $-1 0 forward { exppc nurbs 2 periodic 5 
	2.259632008198802346e-58 2 1.570796326794896558 2 3.141592653589793116 2 4.712388980384689674 2 6.283185307179586232 2 
	0 500 1 
	-500 500 0.7071067811865461294 
	-500 0 1 
	-500 -500 0.7071067811865464625 
	0 -500 1 
	500 -500 0.7071067811865464625 
	500 0 1 
	500 500 0.7071067811865461294 
	0 500 1 
	0 
	plane 9278.720128714297971 1028.193908305246623 14000.00000000000182 0.4531871434353523798 -0.8914153986918250672 3.503246160812042677e-46 0 -3.929981651599406946e-46 -1 forward_v I I I I 
	} 0 0 #
tcoedge-coedge $-1 -1 $-1 $21 $20 $13 $18 forward $11 $25 1.654361224857995669e-30 6.283185307179586232 #
tedge-edge $-1 -1 $-1 $26 1.654361224857995669e-30 $26 6.283185307179586232 $17 $27 forward @7 unknown 0.000771450983393635859 #
pcurve $-1 -1 $-1 0 forward { exppc nurbs 2 periodic 5 
	-6.283185307179586232 2 -4.712388980384689674 2 -3.141592653589793116 2 -1.570796326794896558 2 -1.654361224857995669e-30 2 
	-1.818989403545856476e-12 499.999999999998181 1 
	499.999999999998181 500 0.7071067811865392461 
	500 0 1 
	500 -500 0.7071067811865527908 
	0 -500.000000000001819 1 
	-500 -500.000000000003638 0.7071067811865398012 
	-500 -3.637978807091712952e-12 1 
	-500.000000000001819 499.999999999996362 0.7071067811865527908 
	-1.818989403545856476e-12 499.999999999998181 1 
	0 
	plane 9120.104628492899792 1340.189297884811822 14000 -0.4531871434353523242 0.8914153986918250672 -5.197112580936172086e-15 0 -5.830180394643246663e-15 -1 reverse_v I I I I 
	} 0 0 #
coedge $-1 -1 $-1 $17 $14 $21 $28 reversed $11 $29 #
coedge $-1 -1 $-1 $14 $17 $20 $28 forward $11 $30 #
pcurve $-1 -1 $-1 0 forward { exppc nubs 1 periodic 2 
	-6.283185307179586232 1 -2.259632008198802346e-58 1 
	1 1 
	0 1 
	1.866851754251699935e-12 
	spline forward { ref 0 } I I I I 
	} 0 0 #
tvertex-vertex $-1 -1 $-1 $15 $31 6.938027235648295079e-05 #
ellipse-curve $-1 -1 $-1 9278.720128714297971 1028.193908305246623 14000.00000000000182 0.4531871434353523798 -0.8914153986918250672 3.503246160812042677e-46 445.7076993459124878 226.5935717176761557 -1.12631598117064376e-55 1 I I #
pcurve $-1 -1 $-1 0 forward { exppc nubs 1 periodic 2 
	1.654361224857995669e-30 1 6.283185307179586232 1 
	0 0 
	1 0 
	3.638618763740123262e-12 
	spline forward { ref 0 } I I I I 
	} 0 0 #
tvertex-vertex $-1 -1 $-1 $18 $32 6.938027212176326353e-05 #
ellipse-curve $-1 -1 $-1 9120.104628492899792 1340.189297884811822 14000 0.4531871434353523242 -0.8914153986918250672 5.197112580936172086e-15 445.7076993459124878 226.5935717176761557 -1.434929627468612681e-42 1 I I #
edge $-1 -1 $-1 $26 0 $23 1 $21 $33 forward @7 tangent #
pcurve $-1 -1 $-1 -1 $33 0 0 #
pcurve $-1 -1 $-1 1 $33 1 0 #
point $-1 -1 $-1 9724.427828060210231 1254.787480022923774 14000.00000000000182 #
point $-1 -1 $-1 9565.812327838812053 1566.782869602488063 14000 #
intcurve-curve $-1 -1 $-1 forward { parcur full nubs 3 open 2 
	0 3 1 3 
	9565.812387059319008 1566.782899698067013 14000.00002002020119 
	9618.684220466451734 1462.784436504879068 14000.00002002020119 
	9671.556053874139252 1358.785973310596319 14000.00002002020847 
	9724.427887281271978 1254.787510117407919 14000.00002002020847 
	0 
	
	spline forward { ref 0 } I I I I 
	null_surface 
	nubs 1 open 2 
	0 1 1 1 
	0 0 
	0 1 
	
	nullbs 
	I I 
	0 
	0 
	0 
	surf1 } I I #
End-of-ACIS-data 