700 0 1 0           
4 LibG 19 ASM 222.0.0.1700 NT 24 Wed Oct  5 17:29:53 2016 
1000 9.999999999999999547e-07 1.000000000000000036e-10 
body $-1 -1 $-1 $1 $-1 $-1 #
lump $-1 -1 $-1 $-1 $2 $0 #
shell $-1 -1 $-1 $-1 $-1 $3 $-1 $1 #
face $-1 -1 $-1 $4 $5 $2 $-1 $6 forward single #
face $-1 -1 $-1 $7 $8 $2 $-1 $9 reversed single #
loop $-1 -1 $-1 $-1 $10 $3 #
plane-surface $-1 -1 $-1 2058.360865210481279 3095.642797989810333 14000 1 -3.897834435702129261e-15 5.197112580936172875e-15 5.197112580936172875e-15 0 -1 forward_v I I I I #
face $-1 -1 $-1 $-1 $11 $2 $-1 $12 forward single #
loop $-1 -1 $-1 $-1 $13 $4 #
plane-surface $-1 -1 $-1 1708.360865168497412 3095.642797989811697 14000 1 -3.897834435702131628e-15 0 0 0 -1 forward_v I I I I #
tcoedge-coedge $-1 -1 $-1 $10 $10 $14 $15 forward $5 $16 1.350498956678269526e-30 6.283185307179586232 #
loop $-1 -1 $-1 $-1 $17 $7 #
spline-surface $-1 -1 $-1 forward { exactsur full nubs 3 3 periodic open none none 88 2 
	0 3 0.004464285714285714038 1 0.008928571428571428076 1 0.01785714285714285615 1 0.02678571428571428423 1 
	0.0357142857142857123 1 0.05357142857142856845 1 0.0625 1 0.07142857142857142461 1 0.08928571428571427382 1 
	0.09821428571428569843 1 0.1026785714285714246 1 0.1071428571428571369 1 0.125 1 0.1428571428571428492 1 
	0.1587301587301587213 1 0.1746031746031745935 1 0.1785714285714285476 1 0.1825396825396825295 1 0.1904761904761904656 1 
	0.2142857142857142738 1 0.226190476190476164 1 0.238095238095238082 1 0.2410714285714285476 1 0.2440476190476190133 1 
	0.2470238095238094789 1 0.2499999999999999722 1 0.2619047619047618625 1 0.2738095238095237804 1 0.2857142857142856984 1 
	0.3095238095238095344 1 0.3333333333333333148 1 0.3452380952380952328 1 0.3571428571428570953 1 0.3630952380952380265 1 
	0.3690476190476190133 1 0.3720238095238095344 1 0.375 1 0.3809523809523809312 1 0.3928571428571428492 1 
	0.4047619047619047672 1 0.4285714285714285476 1 0.4444444444444444198 1 0.4603174603174602919 1 0.476190476190476164 1 
	0.4841269841269840724 1 0.4920634920634920362 1 0.5 1 0.5079365079365079083 1 0.5238095238095237249 1 
	0.5476190476190475609 1 0.5714285714285713969 1 0.5773809523809523281 1 0.5833333333333332593 1 0.5952380952380951218 1 
	0.6190476190476189577 1 0.6269841269841269771 1 0.6349206349206348854 1 0.650793650793650702 1 0.6666666666666666297 1 
	0.6904761904761904656 1 0.7023809523809523281 1 0.7142857142857141906 1 0.7321428571428569843 1 0.749999999999999889 1 
	0.7678571428571427937 1 0.7857142857142855874 1 0.7976190476190474499 1 0.8095238095238094234 1 0.8333333333333332593 1 
	0.8452380952380951218 1 0.851190476190476053 1 0.8541666666666665186 1 0.8571428571428570953 1 0.875 1 
	0.8928571428571427937 1 0.9107142857142856984 1 0.9285714285714286031 1 0.9464285714285713969 1 0.9642857142857143016 1 
	0.9821428571428572063 1 0.9866071428571429047 1 0.9910714285714286031 1 0.9955357142857143016 1 0.9977678571428572063 1 
	0.9988839285714286031 1 0.9994419642857143016 1 1 3 
	0 3 1 3 
	1708.360865169539238 3595.642869067772608 13999.99994413681816 
	1708.360865169538556 3595.642868861055831 14004.67493318836387 
	1708.360865169523095 3595.511724538017916 14014.02491181119512 
	1708.360865169510134 3594.725087939072637 14032.71015295468533 
	1708.360865169456929 3592.759710599490518 14056.0115655985519 
	1708.36086516940918 3588.836916949905572 14083.79697261997535 
	1708.360865169365752 3581.538068147549438 14120.49279050818041 
	1708.360865169206136 3571.16822213081241 14156.48758653287041 
	1708.360865169169983 3557.824848039459084 14191.44197972586153 
	1708.360865169133149 3542.543542293211885 14225.59365476031417 
	1708.360865169012641 3524.423979078669163 14258.37840925364435 
	1708.360865168988539 3506.235498637629462 14285.59870228282853 
	1708.360865168978762 3495.200468253395229 14300.69787132207421 
	1708.360865168967393 3478.019346799491814 14322.87359782237763 
	1708.36086516887849 3449.938895047863298 14354.29595158956545 
	1708.36086516881096 3409.59412678042554 14390.34987148115033 
	1708.360865168746386 3367.365996846463077 14420.70966091928494 
	1708.360865168722512 3334.936520137004209 14439.432980603744 
	1708.360865168716145 3312.607231039351063 14450.5311040766137 
	1708.360865168712053 3297.541210930680791 14457.55634637571893 
	1708.360865168693181 3263.06779236398279 14472.08963513389062 
	1708.360865168653618 3219.265357205464625 14485.60041421786991 
	1708.360865168642704 3170.233446872635795 14494.8763124546349 
	1708.360865168617465 3142.340532021442868 14498.01951166332219 
	1708.360865168615192 3123.679775649850399 14499.24249536957359 
	1708.360865168614282 3114.339611105213407 14499.67948876784612 
	1708.360865168613373 3104.992899418408797 14499.94171906854717 
	1708.360865168612008 3086.292951732996244 14500.11658346100194 
	1708.360865168603141 3058.242986226260655 14499.0672483316157 
	1708.360865168596092 3021.052353179994498 14494.87632411539016 
	1708.360865168584951 2972.020583566551977 14485.6004524338623 
	1708.360865168575174 2912.28951353215507 14467.17693328768473 
	1708.360865168566761 2855.972400257801382 14440.05481660814439 
	1708.360865168561531 2813.720403358656768 14413.50437256536679 
	1708.360865168560167 2788.626057635124198 14394.98447186737576 
	1708.360865168558803 2769.423294463354523 14379.07407835857703 
	1708.360865168558121 2757.801679577642062 14368.68842910726562 
	1708.360865168557893 2748.742271470417563 14360.12350437491841 
	1708.360865168556984 2739.844644878061445 14351.39066022442785 
	1708.360865168554938 2724.706231782421582 14335.67563765293744 
	1708.360865168552664 2704.362964677185573 14312.03540584917755 
	1708.360865168548116 2674.728939118858307 14271.88572065006701 
	1708.360865168542659 2647.64198723185109 14224.97057293185389 
	1708.360865168539021 2625.016833599104757 14171.29385600881506 
	1708.360865168538339 2610.29983394255396 14123.58366137752819 
	1708.36086516853652 2602.055821783948431 14082.8012893376017 
	1708.360865168535383 2597.921010913830742 14049.80465656131491 
	1708.360865168534701 2596.057113887641208 14024.93336425643611 
	1708.360865168535383 2595.43535659222016 14000.00007312050002 
	1708.360865168534474 2596.264403534334178 13966.75571945146658 
	1708.360865168536066 2601.234529896082222 13917.07506798199393 
	1708.360865168539021 2616.070121211359037 13852.07144921141116 
	1708.360865168542887 2636.623940153052899 13799.70354806449177 
	1708.360865168544024 2653.481883075604856 13766.31111300631528 
	1708.360865168544251 2665.544662329614312 13744.48513709700092 
	1708.360865168545388 2688.774263533203793 13707.51322362920473 
	1708.360865168548798 2717.354096793039844 13671.67476050049663 
	1708.360865168550163 2746.37954923053303 13641.91809864855713 
	1708.360865168552209 2770.756529252375913 13619.2986498362643 
	1708.360865168553346 2803.28664076345558 13593.35758229272506 
	1708.36086516855903 2852.217490367177106 13561.75287981344445 
	1708.360865168567898 2901.026108807563105 13538.24849570642436 
	1708.360865168573355 2948.127890495258725 13521.76854856033424 
	1708.360865168579039 2990.303552794693587 13510.46673332999126 
	1708.360865168590408 3039.542989555952317 13502.10054936371671 
	1708.360865168604505 3095.642790147895084 13498.95007062894911 
	1708.360865168620876 3151.742605460503455 13502.10050726243571 
	1708.360865168637474 3200.982018652730403 13510.4667134598003 
	1708.360865168650207 3243.157719830094265 13521.76841740460077 
	1708.360865168656574 3290.259378174561334 13538.24865742687871 
	1708.360865168687724 3335.313644518875208 13559.94456635377901 
	1708.360865168704777 3372.284021497445337 13583.1766700106582 
	1708.360865168715463 3390.08004158171525 13595.80322548699587 
	1708.36086516871751 3400.041410561316752 13603.30002964524101 
	1708.360865168726377 3419.680481493739535 13618.66326943874265 
	1708.360865168812325 3449.938924690243311 13645.70383798502189 
	1708.360865168889859 3487.379733326690712 13687.60018494379983 
	1708.360865168996725 3519.89422451184646 13733.42510335677616 
	1708.360865169097679 3547.07352489503819 13782.6023698543213 
	1708.360865169228418 3568.575779133457218 13834.51352674154441 
	1708.360865169338012 3584.130727099878186 13888.50577826845074 
	1708.360865169489898 3591.189493720521114 13930.05153550967589 
	1708.360865169510816 3593.938925549758096 13957.96917412591574 
	1708.360865169521503 3594.921763311735958 13971.96104170449507 
	1708.360865169534236 3595.413392066826873 13983.63932206721074 
	1708.360865169537874 3595.585499621437975 13991.8189430789098 
	1708.360865169539238 3595.628526300160956 13995.90935746619107 
	1708.360865169539466 3595.640820021703803 13998.24682325061076 
	1708.360865169539238 3595.642869093612262 13999.41557050537449 
	1708.360865169539238 3595.642869067772608 13999.99994413681816 
	1825.027531850200603 3595.642869067772153 13999.99994413681816 
	1825.027531850199921 3595.642868861055376 14004.67493318836387 
	1825.027531850184459 3595.511724538017461 14014.02491181119512 
	1825.027531850171272 3594.725087939072182 14032.71015295468533 
	1825.027531850118294 3592.759710599490063 14056.0115655985519 
	1825.027531850070318 3588.836916949905117 14083.79697261997535 
	1825.027531850027117 3581.538068147548984 14120.49279050818041 
	1825.027531849866818 3571.168222130811955 14156.48758653287041 
	1825.027531849831348 3557.82484803945863 14191.44197972586153 
	1825.027531849793831 3542.543542293211431 14225.59365476031417 
	1825.027531849674006 3524.423979078668708 14258.37840925364435 
	1825.027531849649222 3506.235498637629007 14285.59870228282853 
	1825.027531849639672 3495.200468253394774 14300.69787132207421 
	1825.027531849628076 3478.019346799491359 14322.87359782237763 
	1825.027531849539173 3449.938895047862843 14354.29595158956545 
	1825.027531849471643 3409.594126780425086 14390.34987148115033 
	1825.027531849407069 3367.365996846462622 14420.70966091928494 
	1825.027531849382967 3334.936520137003754 14439.432980603744 
	1825.027531849376828 3312.607231039350609 14450.5311040766137 
	1825.027531849372508 3297.541210930680336 14457.55634637571893 
	1825.027531849353636 3263.067792363982335 14472.08963513389062 
	1825.027531849314073 3219.26535720546417 14485.60041421786991 
	1825.027531849303159 3170.233446872635341 14494.8763124546349 
	1825.027531849277921 3142.340532021442414 14498.01951166332219 
	1825.027531849275874 3123.679775649849944 14499.24249536957359 
	1825.027531849274737 3114.339611105212953 14499.67948876784612 
	1825.027531849274055 3104.992899418408342 14499.94171906854717 
	1825.027531849272464 3086.292951732995789 14500.11658346100194 
	1825.027531849263596 3058.2429862262602 14499.0672483316157 
	1825.027531849256548 3021.052353179994043 14494.87632411539016 
	1825.027531849245406 2972.020583566551522 14485.6004524338623 
	1825.027531849235629 2912.289513532154615 14467.17693328768473 
	1825.027531849227444 2855.972400257800928 14440.05481660814439 
	1825.027531849222214 2813.720403358656313 14413.50437256536679 
	1825.02753184922085 2788.626057635123743 14394.98447186737576 
	1825.027531849219486 2769.423294463354068 14379.07407835857703 
	1825.027531849218803 2757.801679577641607 14368.68842910726562 
	1825.027531849218576 2748.742271470417109 14360.12350437491841 
	1825.027531849217667 2739.84464487806099 14351.39066022442785 
	1825.027531849215848 2724.706231782421128 14335.67563765293744 
	1825.027531849213347 2704.362964677185118 14312.03540584917755 
	1825.027531849209026 2674.728939118857852 14271.88572065006701 
	1825.027531849203569 2647.641987231850635 14224.97057293185389 
	1825.027531849200159 2625.016833599104302 14171.29385600881506 
	1825.027531849199477 2610.299833942553505 14123.58366137752819 
	1825.027531849197658 2602.055821783947977 14082.8012893376017 
	1825.027531849196748 2597.921010913830287 14049.80465656131491 
	1825.027531849195839 2596.057113887640753 14024.93336425643611 
	1825.027531849196976 2595.435356592219705 14000.00007312050002 
	1825.027531849195611 2596.264403534333724 13966.75571945146658 
	1825.027531849197885 2601.234529896081767 13917.07506798199393 
	1825.027531849200386 2616.070121211358583 13852.07144921141116 
	1825.027531849204934 2636.623940153052445 13799.70354806449177 
	1825.027531849205616 2653.481883075604401 13766.31111300631528 
	1825.027531849206298 2665.544662329613857 13744.48513709700092 
	1825.02753184920698 2688.774263533203339 13707.51322362920473 
	1825.027531849210845 2717.354096793039389 13671.67476050049663 
	1825.027531849211982 2746.379549230532575 13641.91809864855713 
	1825.027531849214256 2770.756529252375458 13619.2986498362643 
	1825.027531849215393 2803.286640763455125 13593.35758229272506 
	1825.027531849221305 2852.217490367176651 13561.75287981344445 
	1825.027531849229945 2901.02610880756265 13538.24849570642436 
	1825.027531849235629 2948.127890495258271 13521.76854856033424 
	1825.027531849241313 2990.303552794693132 13510.46673332999126 
	1825.027531849252682 3039.542989555951863 13502.10054936371671 
	1825.027531849266779 3095.64279014789463 13498.95007062894911 
	1825.02753184928315 3151.742605460503 13502.10050726243571 
	1825.027531849299749 3200.982018652729948 13510.4667134598003 
	1825.027531849312481 3243.157719830093811 13521.76841740460077 
	1825.027531849318621 3290.259378174560879 13538.24865742687871 
	1825.027531849349998 3335.313644518874753 13559.94456635377901 
	1825.027531849366824 3372.284021497444883 13583.1766700106582 
	1825.02753184937751 3390.080041581714795 13595.80322548699587 
	1825.027531849379557 3400.041410561316297 13603.30002964524101 
	1825.027531849388424 3419.68048149373908 13618.66326943874265 
	1825.027531849474144 3449.938924690242857 13645.70383798502189 
	1825.027531849551679 3487.379733326690257 13687.60018494379983 
	1825.027531849658544 3519.894224511846005 13733.42510335677616 
	1825.027531849759271 3547.073524895037735 13782.6023698543213 
	1825.027531849890238 3568.575779133456763 13834.51352674154441 
	1825.027531849999377 3584.130727099877731 13888.50577826845074 
	1825.02753185015149 3591.189493720520659 13930.05153550967589 
	1825.027531850172181 3593.938925549757641 13957.96917412591574 
	1825.027531850183095 3594.921763311735504 13971.96104170449507 
	1825.027531850195601 3595.413392066826418 13983.63932206721074 
	1825.027531850199466 3595.585499621437521 13991.8189430789098 
	1825.027531850200376 3595.628526300160502 13995.90935746619107 
	1825.02753185020083 3595.640820021703348 13998.24682325061076 
	1825.027531850200603 3595.642869093611807 13999.41557050537449 
	1825.027531850200603 3595.642869067772153 13999.99994413681816 
	1941.694198531075017 3595.642869067771244 13999.99994413681816 
	1941.694198531074107 3595.642868861054467 14004.67493318836387 
	1941.694198531055463 3595.511724538017461 14014.02491181119512 
	1941.694198531039774 3594.725087939072637 14032.71015295468533 
	1941.694198530975882 3592.759710599490518 14056.0115655985519 
	1941.694198530918584 3588.836916949905572 14083.79697261997535 
	1941.694198530865833 3581.538068147548984 14120.49279050818041 
	1941.694198530674157 3571.16822213081241 14156.48758653287041 
	1941.694198530629365 3557.82484803945863 14191.44197972586153 
	1941.694198530585481 3542.543542293211431 14225.59365476031417 
	1941.69419853043928 3524.423979078668708 14258.37840925364435 
	1941.694198530410858 3506.235498637629007 14285.59870228282853 
	1941.694198530398808 3495.20046825339432 14300.69787132207421 
	1941.694198530384938 3478.019346799491359 14322.87359782237763 
	1941.694198530276935 3449.938895047862843 14354.29595158956545 
	1941.694198530195763 3409.594126780424631 14390.34987148115033 
	1941.694198530117546 3367.365996846462167 14420.70966091928494 
	1941.694198530089125 3334.936520137003299 14439.432980603744 
	1941.694198530081167 3312.607231039350154 14450.5311040766137 
	1941.694198530076392 3297.541210930679881 14457.55634637571893 
	1941.694198530053654 3263.067792363982335 14472.08963513389062 
	1941.694198530005906 3219.26535720546417 14485.60041421786991 
	1941.694198529992264 3170.233446872635795 14494.8763124546349 
	1941.69419852996225 3142.340532021443323 14498.01951166332219 
	1941.694198529959067 3123.679775649850853 14499.24249536957359 
	1941.694198529958157 3114.339611105213862 14499.67948876784612 
	1941.694198529957248 3104.992899418409252 14499.94171906854717 
	1941.694198529955884 3086.292951732996698 14500.11658346100194 
	1941.694198529945425 3058.242986226260655 14499.0672483316157 
	1941.694198529936784 3021.052353179994498 14494.87632411539016 
	1941.694198529923597 2972.020583566551977 14485.6004524338623 
	1941.694198529912683 2912.28951353215507 14467.17693328768473 
	1941.694198529901996 2855.972400257801382 14440.05481660814439 
	1941.694198529896539 2813.720403358656768 14413.50437256536679 
	1941.69419852989472 2788.626057635124198 14394.98447186737576 
	1941.694198529893356 2769.423294463354523 14379.07407835857703 
	1941.694198529892446 2757.801679577642062 14368.68842910726562 
	1941.694198529891764 2748.742271470418018 14360.12350437491841 
	1941.694198529891082 2739.844644878061899 14351.39066022442785 
	1941.694198529888581 2724.706231782421582 14335.67563765293744 
	1941.694198529885625 2704.362964677185118 14312.03540584917755 
	1941.694198529880396 2674.728939118857852 14271.88572065006701 
	1941.694198529874029 2647.641987231850635 14224.97057293185389 
	1941.694198529870164 2625.016833599104302 14171.29385600881506 
	1941.694198529869254 2610.299833942553505 14123.58366137752819 
	1941.694198529866981 2602.055821783947977 14082.8012893376017 
	1941.694198529865844 2597.921010913830287 14049.80465656131491 
	1941.694198529865162 2596.057113887640753 14024.93336425643611 
	1941.694198529865616 2595.43535659222016 14000.00007312050002 
	1941.694198529865162 2596.264403534333724 13966.75571945146658 
	1941.694198529866298 2601.234529896081767 13917.07506798199393 
	1941.694198529870846 2616.070121211358583 13852.07144921141116 
	1941.694198529874711 2636.623940153052445 13799.70354806449177 
	1941.694198529876985 2653.481883075604401 13766.31111300631528 
	1941.694198529876985 2665.544662329613857 13744.48513709700092 
	1941.694198529878804 2688.774263533203339 13707.51322362920473 
	1941.694198529882442 2717.354096793039389 13671.67476050049663 
	1941.694198529884488 2746.379549230532575 13641.91809864855713 
	1941.694198529886989 2770.756529252375458 13619.2986498362643 
	1941.694198529888808 2803.286640763455125 13593.35758229272506 
	1941.694198529895857 2852.217490367177106 13561.75287981344445 
	1941.694198529906544 2901.026108807563105 13538.24849570642436 
	1941.694198529912683 2948.12789049525918 13521.76854856033424 
	1941.694198529919504 2990.303552794693587 13510.46673332999126 
	1941.694198529933146 3039.542989555951863 13502.10054936371671 
	1941.694198529949972 3095.642790147895539 13498.95007062894911 
	1941.694198529969981 3151.742605460503455 13502.10050726243571 
	1941.69419852998999 3200.982018652729948 13510.4667134598003 
	1941.694198530005451 3243.157719830093811 13521.76841740460077 
	1941.694198530013409 3290.259378174560879 13538.24865742687871 
	1941.694198530050471 3335.313644518875662 13559.94456635377901 
	1941.69419853007139 3372.284021497445792 13583.1766700106582 
	1941.69419853008344 3390.080041581715705 13595.80322548699587 
	1941.694198530086169 3400.041410561317207 13603.30002964524101 
	1941.694198530097083 3419.68048149373999 13618.66326943874265 
	1941.694198530200083 3449.938924690243311 13645.70383798502189 
	1941.694198530293761 3487.379733326690712 13687.60018494379983 
	1941.694198530421545 3519.894224511846005 13733.42510335677616 
	1941.69419853054319 3547.073524895037735 13782.6023698543213 
	1941.694198530700305 3568.575779133456308 13834.51352674154441 
	1941.694198530832182 3584.130727099877731 13888.50577826845074 
	1941.694198531015218 3591.189493720520204 13930.05153550967589 
	1941.694198531040001 3593.938925549757641 13957.96917412591574 
	1941.694198531053189 3594.921763311735049 13971.96104170449507 
	1941.694198531068196 3595.413392066826418 13983.63932206721074 
	1941.694198531072971 3595.585499621437521 13991.8189430789098 
	1941.69419853107479 3595.628526300160047 13995.90935746619107 
	1941.694198531075017 3595.640820021702893 13998.24682325061076 
	1941.694198531075017 3595.642869093610898 13999.41557050537449 
	1941.694198531075017 3595.642869067771244 13999.99994413681816 
	2058.360865211736382 3595.642869067770789 13999.99994413681816 
	2058.360865211735472 3595.642868861054012 14004.67493318836387 
	2058.360865211716828 3595.511724538017006 14014.02491181119512 
	2058.360865211700911 3594.725087939072182 14032.71015295468533 
	2058.360865211637247 3592.759710599490063 14056.0115655985519 
	2058.360865211579494 3588.836916949905117 14083.79697261997535 
	2058.360865211527198 3581.538068147548529 14120.49279050818041 
	2058.36086521133484 3571.168222130811955 14156.48758653287041 
	2058.360865211290729 3557.824848039458175 14191.44197972586153 
	2058.360865211246164 3542.543542293210976 14225.59365476031417 
	2058.360865211100645 3524.423979078668253 14258.37840925364435 
	2058.360865211071541 3506.235498637628552 14285.59870228282853 
	2058.360865211059718 3495.200468253393865 14300.69787132207421 
	2058.360865211045621 3478.019346799490904 14322.87359782237763 
	2058.360865210937845 3449.938895047862388 14354.29595158956545 
	2058.360865210856446 3409.594126780424176 14390.34987148115033 
	2058.360865210778229 3367.365996846461712 14420.70966091928494 
	2058.36086521074958 3334.936520137002844 14439.432980603744 
	2058.360865210741849 3312.607231039349699 14450.5311040766137 
	2058.360865210736847 3297.541210930679426 14457.55634637571893 
	2058.36086521071411 3263.06779236398188 14472.08963513389062 
	2058.360865210666361 3219.265357205463715 14485.60041421786991 
	2058.360865210652719 3170.233446872635341 14494.8763124546349 
	2058.360865210622705 3142.340532021442868 14498.01951166332219 
	2058.360865210619522 3123.679775649850399 14499.24249536957359 
	2058.360865210618613 3114.339611105213407 14499.67948876784612 
	2058.360865210617703 3104.992899418408797 14499.94171906854717 
	2058.360865210616339 3086.292951732996244 14500.11658346100194 
	2058.36086521060588 3058.2429862262602 14499.0672483316157 
	2058.36086521059724 3021.052353179994043 14494.87632411539016 
	2058.360865210584052 2972.020583566551522 14485.6004524338623 
	2058.360865210573138 2912.289513532154615 14467.17693328768473 
	2058.360865210562679 2855.972400257800928 14440.05481660814439 
	2058.360865210557222 2813.720403358656313 14413.50437256536679 
	2058.360865210555403 2788.626057635123743 14394.98447186737576 
	2058.360865210554039 2769.423294463354068 14379.07407835857703 
	2058.360865210553129 2757.801679577641607 14368.68842910726562 
	2058.360865210552674 2748.742271470417563 14360.12350437491841 
	2058.360865210551765 2739.844644878061445 14351.39066022442785 
	2058.360865210549491 2724.706231782421128 14335.67563765293744 
	2058.360865210546308 2704.362964677184664 14312.03540584917755 
	2058.360865210541306 2674.728939118857397 14271.88572065006701 
	2058.360865210534939 2647.64198723185018 14224.97057293185389 
	2058.360865210531301 2625.016833599103848 14171.29385600881506 
	2058.360865210530392 2610.29983394255305 14123.58366137752819 
	2058.360865210528118 2602.055821783947522 14082.8012893376017 
	2058.360865210527209 2597.921010913829832 14049.80465656131491 
	2058.360865210526299 2596.057113887640298 14024.93336425643611 
	2058.360865210527209 2595.435356592219705 14000.00007312050002 
	2058.360865210526299 2596.264403534333269 13966.75571945146658 
	2058.360865210528118 2601.234529896081312 13917.07506798199393 
	2058.360865210532211 2616.070121211358128 13852.07144921141116 
	2058.360865210536758 2636.62394015305199 13799.70354806449177 
	2058.360865210538577 2653.481883075603946 13766.31111300631528 
	2058.360865210539032 2665.544662329613402 13744.48513709700092 
	2058.360865210540396 2688.774263533202884 13707.51322362920473 
	2058.360865210544489 2717.354096793038934 13671.67476050049663 
	2058.360865210546308 2746.37954923053212 13641.91809864855713 
	2058.360865210549036 2770.756529252375003 13619.2986498362643 
	2058.360865210550855 2803.28664076345467 13593.35758229272506 
	2058.360865210558131 2852.217490367176651 13561.75287981344445 
	2058.360865210568591 2901.02610880756265 13538.24849570642436 
	2058.360865210574957 2948.127890495258725 13521.76854856033424 
	2058.360865210581778 2990.303552794693132 13510.46673332999126 
	2058.360865210595421 3039.542989555951408 13502.10054936371671 
	2058.360865210612246 3095.642790147895084 13498.95007062894911 
	2058.360865210632255 3151.742605460503 13502.10050726243571 
	2058.360865210652264 3200.982018652729494 13510.4667134598003 
	2058.360865210667725 3243.157719830093356 13521.76841740460077 
	2058.360865210675456 3290.259378174560425 13538.24865742687871 
	2058.360865210712745 3335.313644518875208 13559.94456635377901 
	2058.360865210733209 3372.284021497445337 13583.1766700106582 
	2058.360865210745487 3390.08004158171525 13595.80322548699587 
	2058.360865210748216 3400.041410561316752 13603.30002964524101 
	2058.36086521075913 3419.680481493739535 13618.66326943874265 
	2058.360865210861903 3449.938924690242857 13645.70383798502189 
	2058.360865210955581 3487.379733326690257 13687.60018494379983 
	2058.360865211083365 3519.89422451184555 13733.42510335677616 
	2058.360865211204782 3547.073524895037281 13782.6023698543213 
	2058.360865211362125 3568.575779133455853 13834.51352674154441 
	2058.360865211493547 3584.130727099877276 13888.50577826845074 
	2058.36086521167681 3591.189493720519749 13930.05153550967589 
	2058.360865211701366 3593.938925549757187 13957.96917412591574 
	2058.360865211714554 3594.921763311734594 13971.96104170449507 
	2058.360865211729561 3595.413392066825963 13983.63932206721074 
	2058.360865211734563 3595.585499621437066 13991.8189430789098 
	2058.360865211735927 3595.628526300159592 13995.90935746619107 
	2058.360865211736382 3595.640820021702439 13998.24682325061076 
	2058.360865211736382 3595.642869093610443 13999.41557050537449 
	2058.360865211736382 3595.642869067770789 13999.99994413681816 
	0 
	
	0 
	0 
	85 0 0.004464285714285714038 0.008928571428571428076 0.01785714285714285615 0.02678571428571428423 0.0357142857142857123 0.05357142857142856845 0.0625 0.07142857142857142461 0.08928571428571427382 0.09821428571428569843 0.1026785714285714246 0.1071428571428571369 0.125 0.1428571428571428492 0.1587301587301587213 0.1746031746031745935 0.1785714285714285476 0.1825396825396825295 0.1904761904761904656 0.2142857142857142738 0.226190476190476164 0.238095238095238082 0.2410714285714285476 0.2440476190476190133 0.2470238095238094789 0.2499999999999999722 0.2619047619047618625 0.2738095238095237804 0.2857142857142856984 0.3095238095238095344 0.3333333333333333148 0.3452380952380952328 0.3571428571428570953 0.3690476190476190133 0.3720238095238095344 0.375 0.3809523809523809312 0.3928571428571428492 0.4047619047619047672 0.4285714285714285476 0.4444444444444444198 0.4603174603174602919 0.476190476190476164 0.4841269841269840724 0.4920634920634920362 0.5 0.5079365079365079083 0.5238095238095237249 0.5476190476190475609 0.5714285714285713969 0.5773809523809523281 0.5833333333333332593 0.5952380952380951218 0.6190476190476189577 0.6269841269841269771 0.6349206349206348854 0.650793650793650702 0.6666666666666666297 0.6904761904761904656 0.7023809523809523281 0.7142857142857141906 0.7321428571428569843 0.749999999999999889 0.7678571428571427937 0.7857142857142855874 0.7976190476190474499 0.8095238095238094234 0.8333333333333332593 0.8452380952380951218 0.851190476190476053 0.8541666666666665186 0.8571428571428570953 0.875 0.8928571428571427937 0.9107142857142856984 0.9285714285714286031 0.9464285714285713969 0.9642857142857143016 0.9821428571428572063 0.9866071428571429047 0.9910714285714286031 0.9977678571428572063 0.9988839285714286031 0.9994419642857143016 
	0 
	0 
	0 
	F 1 F 0 F 1 F 0 } I I I I #
tcoedge-coedge $-1 -1 $-1 $13 $13 $17 $18 reversed $8 $19 -6.283185307179586232 -0 #
tcoedge-coedge $-1 -1 $-1 $20 $21 $10 $15 reversed $11 $22 -6.283185307179586232 -1.350498956678269526e-30 #
tedge-edge $-1 -1 $-1 $23 1.350498956678269526e-30 $23 6.283185307179586232 $14 $24 forward @7 unknown 0.0007374497371141336671 #
pcurve $-1 -1 $-1 0 forward { exppc nurbs 2 periodic 5 
	1.350498956678269526e-30 2 1.570796326794896558 2 3.141592653589793116 2 4.712388980384689674 2 6.283185307179586232 2 
	0 500 1 
	-500 500 0.7071067811865463515 
	-500 0 1 
	-500 -500 0.7071067811865463515 
	0 -500 1 
	500 -500 0.7071067811865463515 
	500 0 1 
	500 500 0.7071067811865463515 
	0 500 1 
	0 
	plane 2058.360865210481279 3095.642797989810333 14000 1 -3.897834435702129261e-15 5.197112580936172875e-15 5.197112580936172875e-15 0 -1 forward_v I I I I 
	} 0 0 #
tcoedge-coedge $-1 -1 $-1 $21 $20 $13 $18 forward $11 $25 0 6.283185307179586232 #
tedge-edge $-1 -1 $-1 $26 0 $26 6.283185307179586232 $17 $27 forward @7 unknown 0.0007374497357902977694 #
pcurve $-1 -1 $-1 0 forward { exppc nurbs 2 periodic 5 
	-6.283185307179586232 2 -4.712388980384689674 2 -3.141592653589793116 2 -1.570796326794896558 2 0 2 
	0 500 1 
	500 500 0.707106781186543798 
	500 0 1 
	500 -500 0.7071067811865463515 
	0 -500 1 
	-500 -500 0.7071067811865463515 
	-500 0 1 
	-500 500 0.7071067811865463515 
	0 500 1 
	0 
	plane 1708.360865168497412 3095.642797989811697 14000 -1 3.897834435702131628e-15 -0 0 0 -1 reverse_v I I I I 
	} 0 0 #
coedge $-1 -1 $-1 $17 $14 $21 $28 reversed $11 $29 #
coedge $-1 -1 $-1 $14 $17 $20 $28 forward $11 $30 #
pcurve $-1 -1 $-1 0 forward { exppc nubs 1 periodic 2 
	-6.283185307179586232 1 -1.350498956678269526e-30 1 
	1 1 
	0 1 
	4.411402399551008985e-13 
	spline forward { ref 0 } I I I I 
	} 0 0 #
tvertex-vertex $-1 -1 $-1 $15 $31 9.040339240180445836e-05 #
ellipse-curve $-1 -1 $-1 2058.360865210481279 3095.642797989810333 14000 1 -3.897834435702129261e-15 5.197112580936172875e-15 1.94891721785106465e-12 500 0 1 I I #
pcurve $-1 -1 $-1 0 forward { exppc nubs 1 periodic 2 
	0 1 6.283185307179586232 1 
	0 0 
	1 0 
	4.4114023995510105e-13 
	spline forward { ref 0 } I I I I 
	} 0 0 #
tvertex-vertex $-1 -1 $-1 $18 $32 9.040339275663326847e-05 #
ellipse-curve $-1 -1 $-1 1708.360865168497412 3095.642797989811697 14000 1 -3.897834435702131628e-15 0 1.948917217851065861e-12 500 0 1 I I #
edge $-1 -1 $-1 $26 0 $23 1 $21 $33 forward @7 tangent #
pcurve $-1 -1 $-1 -1 $33 0 0 #
pcurve $-1 -1 $-1 1 $33 1 0 #
point $-1 -1 $-1 2058.360865210483098 3595.642797989810333 14000 #
point $-1 -1 $-1 1708.360865168499458 3595.642797989811697 14000 #
intcurve-curve $-1 -1 $-1 forward { parcur full nubs 3 open 2 
	0 3 1 3 
	1708.360865169539238 3595.642869067772608 13999.99994413681816 
	1825.027531850200603 3595.642869067772153 13999.99994413681816 
	1941.694198531075017 3595.642869067771244 13999.99994413681816 
	2058.360865211736382 3595.642869067770789 13999.99994413681816 
	0 
	
	spline forward { ref 0 } I I I I 
	null_surface 
	nubs 1 open 2 
	0 1 1 1 
	0 0 
	0 1 
	
	nullbs 
	I I 
	0 
	0 
	0 
	surf1 } I I #
End-of-ACIS-data 