700 0 1 0           
4 LibG 19 ASM 222.0.0.1700 NT 24 Wed Oct  5 17:29:54 2016 
1000 9.999999999999999547e-07 1.000000000000000036e-10 
body $-1 -1 $-1 $1 $-1 $-1 #
lump $-1 -1 $-1 $-1 $2 $0 #
shell $-1 -1 $-1 $-1 $-1 $3 $-1 $1 #
face $-1 -1 $-1 $4 $5 $2 $-1 $6 forward single #
face $-1 -1 $-1 $7 $8 $2 $-1 $9 reversed single #
loop $-1 -1 $-1 $-1 $10 $3 #
plane-surface $-1 -1 $-1 8713.661144544606941 1909.029077148916258 14000.00000000000364 0.621315845922323251 -0.7835602207908642924 -5.197112580936168141e-15 -8.364687002664840368e-15 0 -1 forward_v I I I I #
face $-1 -1 $-1 $-1 $11 $2 $-1 $12 forward single #
loop $-1 -1 $-1 $-1 $13 $4 #
plane-surface $-1 -1 $-1 8469.897595657195779 2160.185069040814142 14000.00000000000364 0.6964672824519164696 -0.717588548176489871 0 0 0 -1 forward_v I I I I #
tcoedge-coedge $-1 -1 $-1 $10 $10 $14 $15 forward $5 $16 1.252587784577860979e-29 6.283185307179586232 #
loop $-1 -1 $-1 $-1 $17 $7 #
spline-surface $-1 -1 $-1 forward { exactsur full nubs 3 3 periodic open none none 86 2 
	0 3 0.002232142857142857019 1 0.004464285714285714038 1 0.008928571428571428076 1 0.01785714285714285615 1 
	0.0357142857142857123 1 0.05357142857142856845 1 0.0625 1 0.07142857142857142461 1 0.08928571428571427382 1 
	0.1071428571428571369 1 0.125 1 0.1428571428571428492 1 0.1587301587301587213 1 0.1746031746031745935 1 
	0.1904761904761904656 1 0.2023809523809523836 1 0.2142857142857142738 1 0.238095238095238082 1 0.2619047619047618625 1 
	0.2857142857142856984 1 0.2976190476190476164 1 0.3095238095238095344 1 0.3214285714285713969 1 0.3273809523809523281 1 
	0.3333333333333333148 1 0.3452380952380952328 1 0.3571428571428570953 1 0.3690476190476190133 1 0.375 1 
	0.3809523809523809312 1 0.3928571428571428492 1 0.4047619047619047672 1 0.4166666666666666297 1 0.4285714285714285476 1 
	0.4444444444444444198 1 0.4603174603174602919 1 0.476190476190476164 1 0.4801587301587301182 1 0.4821428571428570953 1 
	0.4841269841269840724 1 0.4861111111111110494 1 0.4880952380952380265 1 0.4900793650793650036 1 0.4910714285714284921 1 
	0.4915674603174602364 1 0.491815476190476164 1 0.4920634920634920362 1 0.5158730158730158166 1 0.5238095238095237249 1 
	0.5357142857142855874 1 0.5476190476190475609 1 0.5595238095238095344 1 0.5714285714285713969 1 0.5952380952380951218 1 
	0.6190476190476189577 1 0.6349206349206348854 1 0.650793650793650702 1 0.6666666666666666297 1 0.6785714285714286031 1 
	0.6904761904761904656 1 0.7023809523809523281 1 0.7142857142857141906 1 0.7321428571428569843 1 0.749999999999999889 1 
	0.7678571428571427937 1 0.7857142857142855874 1 0.7976190476190474499 1 0.8095238095238094234 1 0.8333333333333332593 1 
	0.8452380952380951218 1 0.8571428571428570953 1 0.875 1 0.8928571428571427937 1 0.9107142857142856984 1 
	0.9285714285714286031 1 0.9464285714285713969 1 0.9642857142857143016 1 0.9821428571428572063 1 0.9910714285714286031 1 
	0.9955357142857143016 1 0.9977678571428572063 1 0.9988839285714286031 1 0.9994419642857143016 1 0.9997209821428572063 1 
	1 3 
	0 3 1 3 
	8828.691928413971254 2508.418767191238203 13999.99988124461561 
	8828.69192838226445 2508.418767160469088 14002.33737578114233 
	8828.668401048533269 2508.395932322616318 14007.01236451800105 
	8828.527264439704595 2508.258949882447723 14016.36050450518451 
	8828.033312384432065 2507.779536650059072 14032.71008758555217 
	8826.059021452560046 2505.863356350116192 14065.33208028091212 
	8820.431032805034192 2500.401020075062661 14111.49407390621855 
	8811.129119423640077 2491.372896160229629 14156.48751368591547 
	8801.554146158776348 2482.079749515428375 14191.44193251126126 
	8790.588390506174619 2471.436756314924423 14225.59355278592375 
	8774.335575516897734 2455.662321347676425 14266.57470604371156 
	8751.003392043743588 2433.016889703623292 14312.39945166357211 
	8724.136421103601606 2406.940712366877051 14354.29598459955741 
	8695.185511740013681 2378.841934564357416 14390.34991200840159 
	8664.883051549919401 2349.43138703979821 14420.70971088831175 
	8633.854924432513144 2319.316531628738176 14445.67389708993687 
	8603.918802951713587 2290.261540119065103 14464.49778632934249 
	8575.752644946825967 2262.924415561406022 14478.23158478754704 
	8541.164307335011472 2229.354139722846412 14491.14854788643424 
	8496.81068335494092 2186.306005748812368 14500.46604048550762 
	8442.984531093052283 2134.064154780476656 14500.46566564504246 
	8398.630853392603967 2091.015968667231846 14491.14874924964533 
	8364.042440453173185 2057.445619718063426 14478.23209914560175 
	8338.692973210823766 2032.842280371697143 14465.87138356805008 
	8318.179916663191761 2012.932998395542882 14453.39921760672041 
	8302.205140088408371 1997.428418149541585 14442.16089128652129 
	8286.543018095566367 1982.227289913164213 14430.09814538271712 
	8267.592927831596171 1963.834970384200687 14413.50494292037911 
	8245.984215386430151 1942.862281686442429 14391.28058274935211 
	8229.020487491365202 1926.397858588577492 14370.9367450176378 
	8216.13248729026418 1913.889199553920662 14353.63591504478791 
	8203.717605403371635 1901.839733224344172 14335.67576326600647 
	8189.119113185149217 1887.670928232940923 14312.03585073143222 
	8173.171125844853123 1872.192348715755998 14281.92291616202419 
	8158.882667016820051 1858.324451693536503 14250.23329317456773 
	8144.938940020462724 1844.791139779340483 14213.46785079622896 
	8132.181697221679315 1832.409389476247043 14171.29387999358369 
	8121.621211202768791 1822.159737335406589 14123.58341467592072 
	8116.296790890621196 1816.992034261655135 14086.87943494942738 
	8114.054648793709021 1814.815886638968095 14064.23671741086582 
	8113.34994582426134 1814.131925665333256 14055.98368680719614 
	8112.876842443265559 1813.672747453904776 14049.78521051782445 
	8112.459219768558796 1813.267416947873471 14043.57899801879284 
	8112.097152241818549 1812.916006397824503 14037.3660122270594 
	8111.841764763613355 1812.668135910784258 14032.18368475671377 
	8111.687347618090826 1812.518263828817908 14028.55393787691537 
	8111.616223567966699 1812.449233220634142 14026.73858769251638 
	8111.577328664293418 1812.411483136785591 14025.70111642815573 
	8110.652362367248315 1811.513741994142265 14000.28101235098438 
	8111.254302348254896 1812.097964671792852 13966.69374172353673 
	8115.334904802874007 1816.058460013592594 13921.32340073401429 
	8119.772774579040743 1820.365706988046213 13888.63574808274279 
	8126.723792164074439 1827.112130603816695 13852.4848746824955 
	8135.594090641058756 1835.721343627889155 13817.15916240628758 
	8149.913005501928637 1849.618800250191953 13771.42092718149979 
	8172.339554044306169 1871.38525312631009 13717.28687907395033 
	8202.171334425154782 1900.338974678116756 13665.1591192630458 
	8232.094771458554533 1929.381655090727008 13624.48756127041452 
	8260.106251990227975 1956.568654901325544 13593.35744824612084 
	8287.694882484935079 1983.345250704103591 13568.52639428002476 
	8314.077468305837101 2008.951300155986246 13549.09551318131707 
	8338.693079764107097 2032.842383788489997 13534.12891257881165 
	8364.042536256891253 2057.445712701657612 13521.76812934484769 
	8394.307420834476943 2086.819790603180536 13510.46656606394572 
	8429.64099775239265 2121.113370618954377 13502.10031365512077 
	8469.897619340461461 2160.185092024015376 13498.94997815775423 
	8510.154162945602366 2199.25673774179495 13502.10035335964312 
	8545.487843803823125 2233.550418638274095 13510.46652144828113 
	8575.752528019624151 2262.924302075320611 13521.76858283987349 
	8609.55225245928159 2295.729176522953821 13538.24841660935272 
	8641.882590328343213 2327.107913841547997 13559.94463391557292 
	8672.202134194991231 2356.535042208324739 13586.49528502592693 
	8697.412591387274006 2381.00346308054668 13612.42300451804113 
	8724.13645391787577 2406.940744214791721 13645.70376981998015 
	8751.003523280716763 2433.017017078364461 13687.60010183123813 
	8774.335583210237019 2455.662328815347337 13733.42502366408735 
	8793.839070305235509 2474.591756673782584 13782.60232462980093 
	8809.26899902553123 2489.56752593642932 13834.51340068564969 
	8820.430990409395235 2500.400978927743836 13888.50570177582631 
	8826.05906117045015 2505.863394899077775 13934.66766064866897 
	8828.033311897524982 2507.77953617747653 13967.28967545519117 
	8828.527267042623862 2508.258952408730693 13983.63925708348506 
	8828.650759316275071 2508.378809851271853 13991.81888045365486 
	8828.681636490873643 2508.408778197234369 13995.90929449112809 
	8828.689355346621596 2508.416269858709256 13997.95457712391362 
	8828.69156081226356 2508.418410409396529 13999.12332078816326 
	8828.691928417934832 2508.418767195084456 13999.70769442754863 
	8828.691928413971254 2508.418767191238203 13999.99988124461561 
	8920.941723562309562 2412.174863710585669 13999.99988124461561 
	8920.94172388737752 2412.174863273397023 14002.33737578114233 
	8920.917474219104406 2412.15285128081041 14007.01236451800105 
	8920.772014807349478 2412.020793148862595 14016.36050450518451 
	8920.262921786206789 2411.558627703144793 14032.71008758555217 
	8918.228133936898303 2409.711362288496275 14065.33208028091212 
	8912.427672442303447 2404.445497949138371 14111.49407390621855 
	8902.840704149302837 2395.7420934971924 14156.48751368591547 
	8892.97230058275818 2386.783207116209269 14191.44193251126126 
	8881.67050317529538 2376.523014890894956 14225.59355278592375 
	8864.919617610525165 2361.315955552581272 14266.57470604371156 
	8840.872419666909991 2339.485030536376598 14312.39945166357211 
	8813.18210602880572 2314.346761608739598 14354.29598459955741 
	8783.343994001435931 2287.258638107284241 14390.34991200840159 
	8752.112913142282196 2258.90592608249699 14420.70971088831175 
	8720.133927523198508 2229.874238332732148 14445.67389708993687 
	8689.280410692992518 2201.864295033016333 14464.49778632934249 
	8660.251098039952922 2175.510430550252295 14478.23158478754704 
	8624.602799334059455 2143.147606269743846 14491.14854788643424 
	8578.889951805625969 2101.647827797038644 14500.46604048550762 
	8523.414295200076594 2051.285004842930903 14500.46566564504246 
	8477.70139435388046 2009.785173772377902 14491.14874924964533 
	8442.053020089844722 1977.422276643864507 14478.23209914560175 
	8415.926713897066293 1953.703871099588923 14465.87138356805008 
	8394.785035137550949 1934.510682264402931 14453.39921760672041 
	8378.320709863470256 1919.563769977171205 14442.16089128652129 
	8362.178620958322426 1904.909394635133367 14430.09814538271712 
	8342.647804189624367 1887.178607993418609 14413.50494292037911 
	8320.376891496453027 1866.960262757569126 14391.28058274935211 
	8302.893308590691959 1851.088030963830306 14370.9367450176378 
	8289.610355514681942 1839.029281333236213 14353.63591504478791 
	8276.815017772161809 1827.413210170908997 14335.67576326600647 
	8261.76915442916652 1813.75402667849562 14312.03585073143222 
	8245.33243986099842 1798.832179343323105 14281.92291616202419 
	8230.606109750395262 1785.463082102831322 14250.23329317456773 
	8216.235076791750544 1772.416534516884212 14213.46785079622896 
	8203.086885929806158 1760.480131548347345 14171.29387999358369 
	8192.202773547547622 1750.599137426025663 14123.58341467592072 
	8186.715183500251442 1745.617308675428376 14086.87943494942738 
	8184.404336346609853 1743.519426215734256 14064.23671741086582 
	8183.678035445575006 1742.860068462247455 14055.98368680719614 
	8183.190435155961495 1742.417404361567606 14049.78521051782445 
	8182.760013486540629 1742.026653792663865 14043.57899801879284 
	8182.386851270489387 1741.687881725262514 14037.3660122270594 
	8182.123636368381995 1741.448927825103738 14032.18368475671377 
	8181.964488496821104 1741.304444735768584 14028.55393787691537 
	8181.891182944931643 1741.23789917889485 14026.73858769251638 
	8181.851098902028752 1741.201503699496925 14025.70111642815573 
	8180.897764112302866 1740.336078441727295 14000.28101235098438 
	8181.518164755613725 1740.899271710293306 13966.69374172353673 
	8185.723813166896434 1744.717321318900531 13921.32340073401429 
	8190.29768410300494 1748.869642972617385 13888.63574808274279 
	8197.461714210872742 1755.373414000459888 13852.4848746824955 
	8206.603848100825417 1763.672966514580821 13817.15916240628758 
	8221.361559861532442 1777.070568940972862 13771.42092718149979 
	8244.47537879263291 1798.05411977823087 13717.28687907395033 
	8275.221353553653898 1825.96643949475606 13665.1591192630458 
	8306.061800811618014 1853.964510411240553 13624.48756127041452 
	8334.931690585224715 1880.17365586245819 13593.35744824612084 
	8363.365780213754988 1905.987149383362521 13568.52639428002476 
	8390.556861236806071 1930.672203907257199 13549.09551318131707 
	8415.926821509441652 1953.703973309920002 13534.12891257881165 
	8442.053114157775781 1977.422371604774526 13521.76812934484769 
	8473.245469470744865 2005.739923950084631 13510.46656606394572 
	8509.661846498785962 2038.800035409952216 13502.10031365512077 
	8551.152136571339724 2076.466426994861649 13498.94997815775423 
	8592.642344664942357 2114.132747444546567 13502.10035335964312 
	8629.058830578922425 2147.192954151315462 13510.46652144828113 
	8660.250978434083663 2175.51032011556299 13521.76858283987349 
	8695.086502200774703 2207.135266810901157 13538.24841660935272 
	8728.407598732790575 2237.385384317014541 13559.94463391557292 
	8759.656283989379517 2265.754084006360245 13586.49528502592693 
	8785.63932175746595 2289.342421991403171 13612.42300451804113 
	8813.182137552201311 2314.34679492715486 13645.70376981998015 
	8840.872552181774154 2339.48515645541147 13687.60010183123813 
	8864.919624005207879 2361.315964499613528 13733.42502366408735 
	8885.020799658537726 2379.564537197403297 13782.60232462980093 
	8900.923575184011497 2394.001664414770858 13834.51340068564969 
	8912.427628598479714 2404.445458451514696 13888.50570177582631 
	8918.228174529129319 2409.711399841457023 13934.66766064866897 
	8920.262920816387123 2411.558627780671031 13967.28967545519117 
	8920.77201775481808 2412.020795282651761 13983.63925708348506 
	8920.899291799238199 2412.136344732162343 13991.81888045365486 
	8920.931116611363905 2412.165233579626602 13995.90929449112809 
	8920.939071436258018 2412.172456437543588 13997.95457712391362 
	8920.941344529184789 2412.174519950809099 13999.12332078816326 
	8920.941723521676977 2412.174863765234477 13999.70769442754863 
	8920.941723562309562 2412.174863710585669 13999.99988124461561 
	9013.191523852414321 2315.930954372782253 13999.99988124461561 
	9013.191523461016914 2315.930954751752324 14002.33737578114233 
	9013.166555470852472 2315.90976103343246 14007.01236451800105 
	9013.016766237496995 2315.78263520500559 14016.36050450518451 
	9012.492543549282345 2315.337704674963334 14032.71008758555217 
	9010.397242631928748 2313.559372543527843 14065.33208028091212 
	9004.42431636649053 2308.489970939843261 14111.49407390621855 
	8994.552284293797129 2300.111296052828038 14156.48751368591547 
	8984.390463902716874 2291.486654583210111 14191.44193251126126 
	8972.752610669856949 2281.609279361495283 14225.59355278592375 
	8955.503659872567368 2266.969589565678234 14266.57470604371156 
	8930.741441073165333 2245.953178451138683 14312.39945166357211 
	8902.227791513909324 2221.75281021281944 14354.29598459955741 
	8871.502476125860994 2195.675341806297183 14390.34991200840159 
	8839.342772772321041 2168.380467360594139 14420.70971088831175 
	8806.412925963668386 2140.431950334028443 14445.67389708993687 
	8774.642015435412759 2113.467053363128798 14464.49778632934249 
	8744.749549691889115 2088.096447180847917 14478.23158478754704 
	8708.041286188794402 2056.941078676791221 14491.14854788643424 
	8660.969224863671116 2016.989644596821108 14500.46604048550762 
	8603.844056927793645 1968.505857615785544 14500.46566564504246 
	8556.771936540881143 1928.554377481258371 14491.14874924964533 
	8520.06359101542148 1897.398943492898525 14478.23209914560175 
	8493.16045346703504 1874.565463099092312 14465.87138356805008 
	8471.390146434017879 1856.08837430995527 14453.39921760672041 
	8454.436273702145627 1841.699128567228854 14442.16089128652493 
	8437.814217738041407 1827.591506286593585 14430.09814538271712 
	8417.702672955863818 1810.522254250814058 14413.50494292038456 
	8394.769558677782697 1791.058253999803583 14391.28058274935393 
	8376.766121463882882 1775.778212709875788 14370.93674501764144 
	8363.088212796072185 1764.169375578280778 14353.63591504479155 
	8349.912421667118906 1752.986696770431763 14335.67576326600829 
	8334.419184744569066 1739.837137573363634 14312.03585073143586 
	8317.493742650345666 1725.472022759881384 14281.92291616202783 
	8302.329542268716978 1712.601724148818903 14250.23329317457319 
	8287.531201400812279 1700.041943109005842 14213.4678507962326 
	8273.992066536202401 1688.550882849524896 14171.29387999358914 
	8262.784326104923821 1679.038548665951339 14123.58341467592436 
	8257.133573689243349 1674.242585846692236 14086.87943494943283 
	8254.754004785951111 1672.222987565678523 14064.23671741087128 
	8254.006112714198025 1671.588225330715431 14055.98368680719977 
	8253.504011370774606 1671.162080062766336 14049.78521051782991 
	8253.060793451571953 1670.785906304108266 14043.57899801879648 
	8252.67653385057929 1670.459775790074218 14037.36601222706304 
	8252.405494688162435 1670.229734872998051 14032.18368475671923 
	8252.241611891944558 1670.090645559141421 14028.55393787691901 
	8252.16613053724177 1670.026578561630686 14026.73858769252183 
	8252.124848960645977 1669.991547249212999 14025.70111642816119 
	8251.143214161367723 1669.15835986396246 14000.28101235098984 
	8251.782032974391768 1669.700572128750991 13966.69374172354219 
	8256.112740622533238 1673.376160876069207 13921.32340073401792 
	8260.822605844523423 1677.37356503961405 13888.63574808274643 
	8268.199654349697084 1683.634676787643002 13852.48487468249914 
	8277.613610398671881 1691.624583890005852 13817.15916240629122 
	8292.810141178450067 1704.522306923425958 13771.42092718150343 
	8316.611209367756601 1724.722979792587694 13717.28687907395397 
	8348.271387141672676 1751.593887839889248 13665.15911926304943 
	8380.02883219974683 1778.547363413524408 13624.48756127041634 
	8409.757145566270992 1803.77863815748492 13593.35744824612448 
	8439.036684185939521 1828.629040950523404 13568.52639428002476 
	8467.036264061616748 1852.393096387996138 13549.09551318131707 
	8493.160568757200963 1874.565556563288737 13534.12891257881165 
	8520.063697362631501 1897.399024465899629 13521.76812934484769 
	8552.183520514641714 1924.660054554359249 13510.46656606394572 
	8589.682698059379618 1956.486696995180409 13502.10031365512077 
	8632.406653174057283 1992.747762681289942 13498.94997815775423 
	8675.130527132481802 2029.008756295005014 13502.10035335964312 
	8712.629813227642444 2060.835494364926944 13510.46652144828113 
	8744.749424693573019 2088.096342888943582 13521.76858283987349 
	8780.620735453367161 2118.541375882148714 13538.24841660935272 
	8814.932611905296653 2147.662849360977816 13559.94463391557292 
	8847.110448806433851 2174.973108691387552 13586.49528502592693 
	8873.866054757581878 2197.681377906410034 13612.42300451804294 
	8902.227828635801416 2221.752837153724158 13645.70376981998197 
	8930.74158309759332 2245.953293537376794 13687.60010183123813 
	8955.503669571917271 2266.969594748201871 13733.42502366408735 
	8976.202525799768409 2284.53732138008445 13782.60232462980093 
	8992.578161854964492 2298.435790917902978 13834.51340068564969 
	9004.424271521425908 2308.48993258278233 13888.50570177582631 
	9010.397285126966381 2313.559407928912606 13934.66766064866897 
	9012.492543500527972 2315.337703703265561 13967.28967545519117 
	9013.016768735167716 2315.782637851186792 13983.63925708348506 
	9013.147832529377411 2315.89387021838229 13991.81888045365486 
	9013.180600766787393 2315.921684365716828 13995.90929449112809 
	9013.188793288212764 2315.928636452329101 13997.95457712391362 
	9013.19113388657388 2315.93062306697675 13999.12332078816326 
	9013.191523901339679 2315.930954325411221 13999.70769442754863 
	9013.191523852414321 2315.930954372782253 13999.99988124461561 
	9105.441319000752628 2219.687050892129264 13999.99988124461561 
	9105.441318966129984 2219.687050864679804 14002.33737578114233 
	9105.415628641423609 2219.666679991626097 14007.01236451800105 
	9105.261516605141878 2219.544478471420462 14016.36050450518451 
	9104.722152951057069 2219.116795728048601 14032.71008758555217 
	9102.566355116267005 2217.407378481907472 14065.33208028091212 
	9096.420956003759784 2212.534448813918971 14111.49407390621855 
	9086.26386901945807 2204.480493389790354 14156.48751368591547 
	9075.808618326698706 2196.190112183991005 14191.44193251126126 
	9063.83472333897771 2186.695537937465815 14225.59355278592375 
	9046.0877019661948 2172.623223770582626 14266.57470604371156 
	9020.610468696331736 2152.421319283891989 14312.39945166357211 
	8991.273476439113438 2129.158859454681533 14354.29598459955741 
	8959.660958387281426 2104.092045349224009 14390.34991200840159 
	8926.572634364683836 2077.855006403292464 14420.70971088831175 
	8892.69192905435375 2050.989657038022415 14445.67389708993687 
	8860.003623176689871 2025.069808277080028 14464.49778632934249 
	8829.24800278501607 2000.68246216969419 14478.23158478754704 
	8791.479778187842385 1970.734545223688883 14491.14854788643424 
	8743.048493314356165 1932.331466645047385 14500.46604048550762 
	8684.273821034817956 1885.726707678240018 14500.46566564504246 
	8635.842477502157635 1847.323582586404427 14491.14874924964533 
	8598.074170652093017 1817.375600418699605 14478.23209914560175 
	8570.394194153277567 1795.427053826984093 14465.87138356805008 
	8547.995264908377067 1777.666058178815547 14453.39921760672041 
	8530.551843477207512 1763.834480394858474 14442.16089128652493 
	8513.449820600799285 1750.273611008562966 14430.09814538271712 
	8492.757549313892014 1733.865891860031979 14413.50494292038456 
	8469.162234787805573 1715.156235070930734 14391.28058274935393 
	8450.638942563209639 1700.46838508512883 14370.93674501764144 
	8436.566081020489946 1689.309457357596784 14353.63591504479155 
	8423.00983403590908 1678.560173716996815 14335.67576326600829 
	8407.069225988585458 1665.920236018918558 14312.03585073143586 
	8389.655056666491873 1652.111853387448946 14281.92291616202783 
	8374.052985002292189 1639.740354558113722 14250.23329317457319 
	8358.827338172101008 1627.667337846549799 14213.4678507962326 
	8344.897255244328335 1616.621624921625425 14171.29387999358914 
	8333.365888449703561 1607.477948756570868 14123.58341467592436 
	8327.551966298873594 1602.867860260465932 14086.87943494943283 
	8325.103692338852852 1600.926527142445138 14064.23671741087128 
	8324.3342023355126 1600.316368127629858 14055.98368680719977 
	8323.817604083471451 1599.90673697042962 14049.78521051782991 
	8323.361587169554696 1599.545143148898887 14043.57899801879648 
	8322.966232879251038 1599.231651117512456 14037.36601222706304 
	8322.687366292931983 1599.010526787317986 14032.18368475671923 
	8322.518752770674837 1598.876826466092325 14028.55393787691901 
	8322.441089914207623 1598.815244519891849 14026.73858769252183 
	8322.398619198382221 1598.78156781192456 14025.70111642816119 
	8321.388615906422274 1597.980696311547945 14000.28101235098984 
	8322.045895381750597 1598.5018791672519 13966.69374172354219 
	8326.501648986555665 1602.035022181377371 13921.32340073401792 
	8331.34751536848853 1605.877501024185676 13888.63574808274643 
	8338.937576396496297 1611.895960184286423 13852.48487468249914 
	8348.623367858437632 1619.576206776697745 13817.15916240629122 
	8364.258695538053871 1631.974075614207095 13771.42092718150343 
	8388.747034116084251 1651.391846444508701 13717.28687907395397 
	8421.321406270171792 1677.221352656529007 13665.15911926304943 
	8453.995861552810311 1703.130218734037953 13624.48756127041634 
	8484.582584161267732 1727.383639118617793 13593.35744824612448 
	8514.707581914761249 1751.270939629782333 13568.52639428002476 
	8543.515656992585718 1774.114000139267091 13549.09551318131707 
	8570.394310502535518 1795.427146084718743 13534.12891257881165 
	8598.074275263516029 1817.375683369016542 13521.76812934484769 
	8631.121569150909636 1843.580187901263344 13510.46656606394572 
	8669.70354680577293 1874.173361786178248 13502.10031365512077 
	8713.661170404935547 1909.029097652136215 13498.94997815775423 
	8757.618708851821793 1943.884765997756404 13502.10035335964312 
	8796.200800002741744 1974.478029877968311 13510.46652144828113 
	8829.247875108032531 2000.682360929185506 13521.76858283987349 
	8866.154985194860274 2029.94746617009605 13538.24841660935272 
	8901.457620309744016 2057.94031983644436 13559.94463391557292 
	8934.564598600822137 2084.192150489422602 13586.49528502592693 
	8962.092785127772004 2106.020336817266525 13612.42300451804294 
	8991.273512270126957 2129.158887866087298 13645.70376981998197 
	9020.610611998650711 2152.421432914423804 13687.60010183123813 
	9046.087710366888132 2172.623230432468063 13733.42502366408735 
	9067.384255153070626 2189.510101903704708 13782.60232462980093 
	9084.232738013444759 2202.869929396244061 13834.51340068564969 
	9096.420909710510387 2212.534412106553191 13888.50570177582631 
	9102.566398485643731 2217.407412871290944 13934.66766064866897 
	9104.722152419388294 2219.116795306460062 13967.28967545519117 
	9105.261519447361934 2219.544480725107405 13983.63925708348506 
	9105.396365012340539 2219.651405099272324 13991.81888045365486 
	9105.430080887277654 2219.678139748108606 13995.90929449112809 
	9105.438509377849186 2219.684823031162978 13997.95457712391362 
	9105.440917603495109 2219.68673260838932 13999.12332078816326 
	9105.441319005080004 2219.687050895560787 13999.70769442754863 
	9105.441319000752628 2219.687050892129264 13999.99988124461561 
	0 
	
	0 
	0 
	85 0 0.002232142857142857019 0.004464285714285714038 0.008928571428571428076 0.01785714285714285615 0.0357142857142857123 0.05357142857142856845 0.0625 0.07142857142857142461 0.08928571428571427382 0.1071428571428571369 0.125 0.1428571428571428492 0.1587301587301587213 0.1746031746031745935 0.1904761904761904656 0.2023809523809523836 0.2142857142857142738 0.238095238095238082 0.2619047619047618625 0.2857142857142856984 0.2976190476190476164 0.3095238095238095344 0.3214285714285713969 0.3273809523809523281 0.3333333333333333148 0.3452380952380952328 0.3571428571428570953 0.3690476190476190133 0.375 0.3809523809523809312 0.3928571428571428492 0.4047619047619047672 0.4166666666666666297 0.4285714285714285476 0.4444444444444444198 0.4603174603174602919 0.476190476190476164 0.4801587301587301182 0.4821428571428570953 0.4841269841269840724 0.4861111111111110494 0.4880952380952380265 0.4900793650793650036 0.4910714285714284921 0.4915674603174602364 0.491815476190476164 0.4920634920634920362 0.5158730158730158166 0.5238095238095237249 0.5357142857142855874 0.5476190476190475609 0.5595238095238095344 0.5714285714285713969 0.5952380952380951218 0.6190476190476189577 0.6349206349206348854 0.650793650793650702 0.6666666666666666297 0.6785714285714286031 0.6904761904761904656 0.7023809523809523281 0.7142857142857141906 0.7321428571428569843 0.749999999999999889 0.7678571428571427937 0.7857142857142855874 0.7976190476190474499 0.8095238095238094234 0.8333333333333332593 0.8452380952380951218 0.8571428571428570953 0.875 0.8928571428571427937 0.9107142857142856984 0.9285714285714286031 0.9464285714285713969 0.9642857142857143016 0.9821428571428572063 0.9910714285714286031 0.9955357142857143016 0.9977678571428572063 0.9988839285714286031 0.9994419642857143016 0.9997209821428572063 
	0 
	0 
	0 
	F 1 F 0 F 1 F 0 } I I I I #
tcoedge-coedge $-1 -1 $-1 $13 $13 $17 $18 reversed $8 $19 -6.283185307179586232 -0 #
tcoedge-coedge $-1 -1 $-1 $20 $21 $10 $15 reversed $11 $22 -6.283185307179586232 -1.252587784577860979e-29 #
tedge-edge $-1 -1 $-1 $23 1.252587784577860979e-29 $23 6.283185307179586232 $14 $24 forward @7 unknown 0.0006477038794950169777 #
pcurve $-1 -1 $-1 0 forward { exppc nurbs 2 periodic 5 
	1.252587784577860979e-29 2 1.570796326794896558 2 3.141592653589793116 2 4.712388980384689674 2 6.283185307179586232 2 
	-3.637978807091712952e-12 500.0000000000009095 1 
	-500.000000000003638 499.9999999999972715 0.7071067811865432429 
	-500 -2.728484105318784714e-12 1 
	-499.999999999996362 -500.000000000001819 0.7071067811865476838 
	3.637978807091712952e-12 -500 1 
	500.000000000003638 -499.9999999999954525 0.7071067811865446862 
	500 3.637978807091712952e-12 1 
	499.999999999996362 500.0000000000027285 0.7071067811865466846 
	-3.637978807091712952e-12 500.0000000000009095 1 
	0 
	plane 8713.661144544606941 1909.029077148916258 14000.00000000000364 0.621315845922323251 -0.7835602207908642924 -5.197112580936168141e-15 -8.364687002664840368e-15 0 -1 forward_v I I I I 
	} 0 0 #
tcoedge-coedge $-1 -1 $-1 $21 $20 $13 $18 forward $11 $25 0 6.283185307179586232 #
tedge-edge $-1 -1 $-1 $26 0 $26 6.283185307179586232 $17 $27 forward @7 unknown 0.0006477040002827516097 #
pcurve $-1 -1 $-1 0 forward { exppc nurbs 2 periodic 5 
	-6.283185307179586232 2 -4.712388980384689674 2 -3.141592653589793116 2 -1.570796326794896558 2 0 2 
	0 500 1 
	500 500 0.7071067811865499042 
	500 0 1 
	500 -500 0.7071067811865500152 
	0 -500 1 
	-500 -500 0.7071067811865500152 
	-500 0 1 
	-500 500 0.7071067811865499042 
	0 500 1 
	0 
	plane 8469.897595657195779 2160.185069040814142 14000.00000000000364 -0.6964672824519164696 0.717588548176489871 -0 0 0 -1 reverse_v I I I I 
	} 0 0 #
coedge $-1 -1 $-1 $17 $14 $21 $28 reversed $11 $29 #
coedge $-1 -1 $-1 $14 $17 $20 $28 forward $11 $30 #
pcurve $-1 -1 $-1 0 forward { exppc nubs 1 periodic 2 
	-6.283185307179586232 1 -1.252587784577860979e-29 1 
	1 1 
	0 1 
	7.840813344066933869e-12 
	spline forward { ref 0 } I I I I 
	} 0 0 #
tvertex-vertex $-1 -1 $-1 $15 $31 0.0001441715530684092525 #
ellipse-curve $-1 -1 $-1 8713.661144544606941 1909.029077148916258 14000.00000000000364 0.621315845922323251 -0.7835602207908642924 -5.197112580936168141e-15 391.780110395432132 310.6579229611616597 0 1 I I #
pcurve $-1 -1 $-1 0 forward { exppc nubs 1 periodic 2 
	0 1 6.283185307179586232 1 
	0 0 
	1 0 
	9.060405503815016752e-13 
	spline forward { ref 0 } I I I I 
	} 0 0 #
tvertex-vertex $-1 -1 $-1 $18 $32 0.0001441708585333086241 #
ellipse-curve $-1 -1 $-1 8469.897595657195779 2160.185069040814142 14000.00000000000364 0.6964672824519164696 -0.717588548176489871 0 358.7942740882448902 348.2336412259582517 0 1 I I #
edge $-1 -1 $-1 $26 1.246707320340480551e-09 $23 0.9999999808299175896 $21 $33 forward @7 tangent #
pcurve $-1 -1 $-1 -1 $33 0 0 #
pcurve $-1 -1 $-1 1 $33 1 0 #
point $-1 -1 $-1 9105.44125494004038 2219.687000110077406 14000.00000000000364 #
point $-1 -1 $-1 8828.691869745440272 2508.418710266771996 14000.00000000000364 #
intcurve-curve $-1 -1 $-1 forward { parcur full nubs 3 open 2 
	0 3 1 3 
	8828.691928413971254 2508.418767191238203 13999.99988124461561 
	8920.941723562309562 2412.174863710585669 13999.99988124461561 
	9013.191523852414321 2315.930954372782253 13999.99988124461561 
	9105.441319000752628 2219.687050892129264 13999.99988124461561 
	0 
	
	spline forward { ref 0 } I I I I 
	null_surface 
	nubs 1 open 2 
	0 1 1 1 
	0 0 
	0 1 
	
	nullbs 
	I I 
	0 
	0 
	0 
	surf1 } F 1.246707320340480551e-09 F 0.9999999808299175896 #
End-of-ACIS-data 