700 0 1 0           
4 LibG 19 ASM 222.0.0.1700 NT 24 Wed Oct  5 17:29:53 2016 
1000 9.999999999999999547e-07 1.000000000000000036e-10 
body $-1 -1 $-1 $1 $-1 $-1 #
lump $-1 -1 $-1 $-1 $2 $0 #
shell $-1 -1 $-1 $-1 $-1 $3 $-1 $1 #
face $-1 -1 $-1 $4 $5 $2 $-1 $6 forward single #
face $-1 -1 $-1 $7 $8 $2 $-1 $9 reversed single #
loop $-1 -1 $-1 $-1 $10 $3 #
plane-surface $-1 -1 $-1 1708.360865168497412 3095.642797989811697 14000 1 -3.897834435702131628e-15 0 0 0 -1 forward_v I I I I #
face $-1 -1 $-1 $-1 $11 $2 $-1 $12 forward single #
loop $-1 -1 $-1 $-1 $13 $4 #
plane-surface $-1 -1 $-1 1358.360865126513318 3095.642797989813062 14000 1 -3.897834435702129261e-15 0 0 0 -1 forward_v I I I I #
tcoedge-coedge $-1 -1 $-1 $10 $10 $14 $15 forward $5 $16 0 6.283185307179586232 #
loop $-1 -1 $-1 $-1 $17 $7 #
spline-surface $-1 -1 $-1 forward { exactsur full nubs 3 3 periodic open none none 90 2 
	0 3 0.004464285714285714038 1 0.008928571428571428076 1 0.01785714285714285615 1 0.02678571428571428423 1 
	0.0357142857142857123 1 0.05357142857142856845 1 0.07142857142857142461 1 0.08928571428571427382 1 0.09374999999999998612 1 
	0.09821428571428569843 1 0.1026785714285714246 1 0.1071428571428571369 1 0.125 1 0.1428571428571428492 1 
	0.1587301587301587213 1 0.1785714285714285476 1 0.1825396825396825295 1 0.1904761904761904656 1 0.2142857142857142738 1 
	0.226190476190476164 1 0.238095238095238082 1 0.2410714285714285476 1 0.2440476190476190133 1 0.2499999999999999722 1 
	0.2619047619047618625 1 0.2738095238095237804 1 0.2857142857142856984 1 0.2976190476190476164 1 0.3095238095238095344 1 
	0.3214285714285713969 1 0.3333333333333333148 1 0.3452380952380952328 1 0.3571428571428570953 1 0.3630952380952380265 1 
	0.3690476190476190133 1 0.375 1 0.3809523809523809312 1 0.3928571428571428492 1 0.4047619047619047672 1 
	0.4166666666666666297 1 0.4285714285714285476 1 0.4444444444444444198 1 0.4603174603174602919 1 0.476190476190476164 1 
	0.4801587301587301182 1 0.4841269841269840724 1 0.4920634920634920362 1 0.5 1 0.5079365079365079083 1 
	0.5158730158730158166 1 0.5238095238095237249 1 0.5476190476190475609 1 0.5714285714285713969 1 0.5833333333333332593 1 
	0.5892857142857141906 1 0.5922619047619046562 1 0.5952380952380951218 1 0.6190476190476189577 1 0.6269841269841269771 1 
	0.6349206349206348854 1 0.650793650793650702 1 0.6666666666666666297 1 0.6904761904761904656 1 0.7023809523809523281 1 
	0.7142857142857141906 1 0.7321428571428569843 1 0.749999999999999889 1 0.7678571428571427937 1 0.7857142857142855874 1 
	0.7976190476190474499 1 0.8095238095238094234 1 0.8333333333333332593 1 0.8452380952380951218 1 0.851190476190476053 1 
	0.8571428571428570953 1 0.875 1 0.8928571428571427937 1 0.9107142857142856984 1 0.9285714285714286031 1 
	0.9464285714285713969 1 0.9642857142857143016 1 0.9732142857142858094 1 0.9821428571428572063 1 0.9910714285714286031 1 
	0.9955357142857143016 1 0.9977678571428572063 1 0.9988839285714286031 1 0.9994419642857143016 1 1 3 
	0 3 1 3 
	1358.360865125869168 3595.642881444952764 13999.99993673287463 
	1358.360865125870532 3595.642881247847981 14004.67492584953106 
	1358.360865125880309 3595.511736185136215 14014.02490524007044 
	1358.360865125887358 3594.725100554883738 14032.71014778801327 
	1358.360865125918281 3592.759717239080146 14056.01156229743174 
	1358.360865125942837 3588.836933119142486 14083.79697715461043 
	1358.360865125970804 3581.538052590610278 14120.49278715229957 
	1358.360865126066074 3568.575873529578985 14165.48635048569668 
	1358.360865126126782 3547.073469244536682 14217.3975302327035 
	1358.360865126205454 3526.688953420527014 14254.28040529311329 
	1358.360865126213866 3511.432169886673364 14277.82153242109416 
	1358.360865126217504 3503.47680965131849 14289.37361351411528 
	1358.36086512622137 3495.200482454861231 14300.69796176610544 
	1358.360865126228191 3478.019384438568977 14322.87369698890507 
	1358.360865126277758 3449.938961048870169 14354.29615341484896 
	1358.360865126316639 3409.594070194800224 14390.34989030415454 
	1358.360865126353929 3363.987963122847759 14423.13893961218673 
	1358.360865126382805 3327.673321009967822 14443.5061270751612 
	1358.360865126383942 3297.541042335968541 14457.55623385635226 
	1358.360865126394856 3263.067715314180532 14472.0896844940653 
	1358.360865126414637 3219.265201518993763 14485.60037523284518 
	1358.360865126420094 3170.233314171205166 14494.8763265676389 
	1358.3608651264326 3142.340378635600246 14498.01952301226265 
	1358.360865126433055 3123.679623319796065 14499.24251725215254 
	1358.360865126433964 3111.226067029242586 14499.82515919997968 
	1358.360865126436011 3089.409446236473286 14500.2332337158241 
	1358.360865126443059 3058.242856835603106 14499.06711483011168 
	1358.360865126449426 3021.052097354966008 14494.87669306417229 
	1358.360865126455565 2984.278482243553754 14487.91876048369159 
	1358.360865126460794 2948.127658951318608 14478.23217090350954 
	1358.360865126466251 2912.801801402628371 14465.87111974612526 
	1358.360865126470571 2878.498460932307353 14450.90472784374469 
	1358.360865126475574 2845.409485390419377 14433.41668847691653 
	1358.360865126479212 2813.719901905893039 14413.50481989669788 
	1358.360865126481031 2788.62576841775217 14394.98454086553102 
	1358.36086512648194 2769.422939875815246 14379.0742517222825 
	1358.360865126482622 2755.476997294626926 14366.61145111546284 
	1358.360865126483532 2742.006859973038445 14353.6358541628033 
	1358.360865126484441 2724.706033446593665 14335.67569378845837 
	1358.360865126486942 2704.362216182993961 14312.03578752914473 
	1358.360865126489216 2682.137787150765234 14281.92286393184986 
	1358.360865126490125 2662.226045056870589 14250.23322856205232 
	1358.360865126491944 2642.794644636000157 14213.46780643961938 
	1358.360865126492854 2625.016798324865704 14171.29380253509953 
	1358.360865126493991 2610.300262452003608 14123.58331900753183 
	1358.360865126495582 2602.880401431808878 14086.87935666407793 
	1358.36086512649581 2599.471796147590794 14062.17821242866557 
	1358.360865126496037 2597.610517669546425 14045.65926921301252 
	1358.36086512649581 2596.057290424158964 14024.93319039567905 
	1358.360865126496037 2595.435537033121818 13999.99992359963471 
	1358.36086512649581 2596.05720678926491 13975.06662962090923 
	1358.36086512649581 2597.921354529043128 13950.1953839631733 
	1358.360865126495128 2603.088998029926188 13908.94945170745996 
	1358.360865126493536 2616.070195692083416 13852.07133370351039 
	1358.360865126492399 2638.907746822260378 13793.88479781924798 
	1358.360865126491035 2659.311492510542848 13755.28150726894091 
	1358.360865126491035 2670.57300867730055 13736.59169829918392 
	1358.360865126491262 2677.304432243622614 13726.09796083133369 
	1358.36086512649058 2694.620041641185253 13700.1824652008072 
	1358.360865126486033 2717.354422930009605 13671.67496820968518 
	1358.360865126485123 2746.379733381507322 13641.91819901965755 
	1358.360865126483986 2770.75675817830097 13619.29880148219672 
	1358.360865126480576 2803.286775846754153 13593.35765628260742 
	1358.360865126474437 2852.217557977462093 13561.75276975429733 
	1358.360865126468525 2901.026182802384938 13538.24848163262868 
	1358.360865126464432 2948.127950450980279 13521.76850916771764 
	1358.360865126460567 2990.303608904610883 13510.46671014375897 
	1358.360865126451699 3039.543032867222337 13502.10052974439168 
	1358.360865126442832 3095.642824469625339 13498.9500623746444 
	1358.360865126431918 3151.742627511784121 13502.10050812000372 
	1358.360865126421686 3200.982035621084833 13510.46672000337094 
	1358.360865126412364 3243.157724665844853 13521.76843410311267 
	1358.360865126410317 3290.259398236828929 13538.24866217828458 
	1358.360865126389399 3335.313627235832882 13559.94462461446528 
	1358.360865126378485 3372.284050254763315 13583.17665303803915 
	1358.360865126370527 3392.622271998730412 13597.60713925360324 
	1358.36086512636939 3417.352816527677533 13616.58339935423282 
	1358.360865126328235 3449.939180343420958 13645.70354468400728 
	1358.360865126264116 3487.379759797317547 13687.6001845515093 
	1358.360865126200679 3519.894360006103852 13733.42499697937819 
	1358.360865126124963 3547.07353378461903 13782.60234536034113 
	1358.360865126055387 3568.575964000469412 13834.51347242528209 
	1358.360865125966029 3581.538079767008185 13879.50708300292172 
	1358.360865125937835 3588.836956797186758 13916.20288923405133 
	1358.360865125911687 3592.759729188213896 13943.98830983172411 
	1358.36086512588281 3594.725106226178923 13967.28972536274887 
	1358.360865125873715 3595.413408033642099 13983.63931338158727 
	1358.360865125870532 3595.585511410517029 13991.81893572407171 
	1358.36086512586985 3595.628538795531767 13995.9093499981409 
	1358.360865125868713 3595.640832383422094 13998.24681583220809 
	1358.360865125869168 3595.642881469590975 13999.4155630932928 
	1358.360865125869168 3595.642881444952764 13999.99993673287463 
	1475.027531806530533 3595.642881444952309 13999.99993673287463 
	1475.027531806531897 3595.642881247847527 14004.67492584953106 
	1475.027531806541901 3595.51173618513576 14014.02490524007044 
	1475.027531806548495 3594.725100554883284 14032.71014778801327 
	1475.027531806579873 3592.759717239079691 14056.01156229743174 
	1475.027531806604202 3588.836933119142032 14083.79697715461043 
	1475.027531806632169 3581.538052590609823 14120.49278715229957 
	1475.027531806727438 3568.57587352957853 14165.48635048569668 
	1475.027531806788147 3547.073469244536227 14217.3975302327035 
	1475.027531806866591 3526.688953420526559 14254.28040529311329 
	1475.027531806875459 3511.432169886672909 14277.82153242109416 
	1475.027531806878869 3503.476809651318035 14289.37361351411528 
	1475.027531806882735 3495.200482454860776 14300.69796176610544 
	1475.027531806889556 3478.019384438568522 14322.87369698890507 
	1475.027531806939123 3449.938961048869714 14354.29615341484896 
	1475.027531806978004 3409.59407019479977 14390.34989030415454 
	1475.027531807015293 3363.987963122847304 14423.13893961218673 
	1475.02753180704417 3327.673321009967367 14443.5061270751612 
	1475.027531807045307 3297.541042335968086 14457.55623385635226 
	1475.027531807056448 3263.067715314180077 14472.0896844940653 
	1475.027531807075775 3219.265201518993308 14485.60037523284518 
	1475.027531807081687 3170.233314171204711 14494.8763265676389 
	1475.027531807093965 3142.340378635599791 14498.01952301226265 
	1475.027531807094419 3123.67962331979561 14499.24251725215254 
	1475.027531807095556 3111.226067029242131 14499.82515919997968 
	1475.027531807097148 3089.409446236472832 14500.2332337158241 
	1475.027531807104424 3058.242856835602652 14499.06711483011168 
	1475.02753180711079 3021.052097354965554 14494.87669306417229 
	1475.027531807116929 2984.278482243553299 14487.91876048369159 
	1475.027531807122159 2948.127658951318153 14478.23217090350954 
	1475.027531807127616 2912.801801402627916 14465.87111974612526 
	1475.027531807131709 2878.498460932306898 14450.90472784374469 
	1475.027531807137166 2845.409485390418922 14433.41668847691653 
	1475.027531807140349 2813.719901905892584 14413.50481989669788 
	1475.027531807142395 2788.625768417751715 14394.98454086553102 
	1475.027531807143305 2769.422939875814791 14379.0742517222825 
	1475.027531807143987 2755.476997294626472 14366.61145111546284 
	1475.027531807144896 2742.00685997303799 14353.6358541628033 
	1475.027531807145806 2724.70603344659321 14335.67569378845837 
	1475.027531807148307 2704.362216182993507 14312.03578752914473 
	1475.027531807150581 2682.13778715076478 14281.92286393184986 
	1475.02753180715149 2662.226045056870134 14250.23322856205232 
	1475.027531807153309 2642.794644635999703 14213.46780643961938 
	1475.027531807153991 2625.016798324865249 14171.29380253509953 
	1475.027531807155583 2610.300262452003153 14123.58331900753183 
	1475.02753180715672 2602.880401431808423 14086.87935666407793 
	1475.027531807157175 2599.471796147590339 14062.17821242866557 
	1475.027531807157402 2597.61051766954597 14045.65926921301252 
	1475.027531807156947 2596.057290424158509 14024.93319039567905 
	1475.027531807157629 2595.435537033121363 13999.99992359963471 
	1475.027531807156947 2596.057206789264455 13975.06662962090923 
	1475.027531807157402 2597.921354529042674 13950.1953839631733 
	1475.027531807156265 2603.088998029925733 13908.94945170745996 
	1475.027531807154901 2616.070195692082962 13852.07133370351039 
	1475.027531807153537 2638.907746822259924 13793.88479781924798 
	1475.0275318071524 2659.311492510542394 13755.28150726894091 
	1475.0275318071524 2670.573008677300095 13736.59169829918392 
	1475.027531807152627 2677.304432243622159 13726.09796083133369 
	1475.027531807151718 2694.620041641184798 13700.1824652008072 
	1475.02753180714717 2717.35442293000915 13671.67496820968518 
	1475.027531807146715 2746.379733381506867 13641.91819901965755 
	1475.027531807145124 2770.756758178300515 13619.29880148219672 
	1475.027531807142168 2803.286775846753699 13593.35765628260742 
	1475.027531807135574 2852.217557977461638 13561.75276975429733 
	1475.02753180712989 2901.026182802384483 13538.24848163262868 
	1475.027531807125797 2948.127950450979824 13521.76850916771764 
	1475.027531807121932 2990.303608904610428 13510.46671014375897 
	1475.027531807113064 3039.543032867221882 13502.10052974439168 
	1475.027531807104197 3095.642824469624884 13498.9500623746444 
	1475.027531807093283 3151.742627511783667 13502.10050812000372 
	1475.027531807083051 3200.982035621084378 13510.46672000337094 
	1475.027531807073728 3243.157724665844398 13521.76843410311267 
	1475.027531807071455 3290.259398236828474 13538.24866217828458 
	1475.027531807050991 3335.313627235832428 13559.94462461446528 
	1475.027531807039622 3372.28405025476286 13583.17665303803915 
	1475.027531807031892 3392.622271998729957 13597.60713925360324 
	1475.027531807030527 3417.352816527677078 13616.58339935423282 
	1475.027531806989828 3449.939180343420503 13645.70354468400728 
	1475.027531806925481 3487.379759797317092 13687.6001845515093 
	1475.027531806862044 3519.894360006103398 13733.42499697937819 
	1475.027531806786328 3547.073533784618576 13782.60234536034113 
	1475.027531806716752 3568.575964000468957 13834.51347242528209 
	1475.027531806627167 3581.53807976700773 13879.50708300292172 
	1475.027531806599427 3588.836956797186303 13916.20288923405133 
	1475.027531806572824 3592.759729188213441 13943.98830983172411 
	1475.027531806544175 3594.725106226178468 13967.28972536274887 
	1475.02753180653508 3595.413408033641645 13983.63931338158727 
	1475.027531806531897 3595.585511410516574 13991.81893572407171 
	1475.027531806531215 3595.628538795531313 13995.9093499981409 
	1475.027531806530078 3595.640832383421639 13998.24681583220809 
	1475.027531806530533 3595.64288146959052 13999.4155630932928 
	1475.027531806530533 3595.642881444952309 13999.99993673287463 
	1591.69419848702546 3595.642881444951399 13999.99993673287463 
	1591.694198487027506 3595.642881247846617 14004.67492584953106 
	1591.694198487039557 3595.511736185133941 14014.02490524007044 
	1591.694198487048652 3594.725100554881919 14032.71014778801327 
	1591.694198487087306 3592.759717239078327 14056.01156229743174 
	1591.694198487118229 3588.836933119141122 14083.79697715461043 
	1591.694198487153471 3581.538052590609368 14120.49278715229957 
	1591.694198487273297 3568.575873529576711 14165.48635048569668 
	1591.694198487349468 3547.073469244534863 14217.3975302327035 
	1591.69419848744883 3526.688953420525195 14254.28040529311329 
	1591.694198487458834 3511.432169886671545 14277.82153242109416 
	1591.694198487464064 3503.476809651317126 14289.37361351411528 
	1591.694198487468611 3495.200482454859866 14300.69796176610544 
	1591.694198487477252 3478.019384438567158 14322.87369698890507 
	1591.694198487539325 3449.93896104886835 14354.29615341484896 
	1591.69419848758821 3409.594070194797951 14390.34989030415454 
	1591.694198487635504 3363.98796312284594 14423.13893961218673 
	1591.694198487671429 3327.673321009966003 14443.5061270751612 
	1591.694198487672793 3297.541042335966722 14457.55623385635226 
	1591.694198487686208 3263.067715314178713 14472.0896844940653 
	1591.694198487711446 3219.265201518991489 14485.60037523284518 
	1591.694198487718268 3170.233314171203347 14494.8763265676389 
	1591.694198487734411 3142.340378635598427 14498.01952301226265 
	1591.694198487735093 3123.6796233197947 14499.24251725215254 
	1591.694198487736003 3111.226067029240767 14499.82515919997968 
	1591.694198487738959 3089.409446236471467 14500.2332337158241 
	1591.694198487747826 3058.242856835600833 14499.06711483011168 
	1591.694198487755557 3021.052097354963735 14494.87669306417229 
	1591.694198487763515 2984.278482243552389 14487.91876048369159 
	1591.694198487770336 2948.127658951316334 14478.23217090350954 
	1591.694198487777157 2912.801801402626552 14465.87111974612526 
	1591.694198487783069 2878.498460932305534 14450.90472784374469 
	1591.694198487788526 2845.409485390417103 14433.41668847691653 
	1591.694198487793528 2813.719901905890765 14413.50481989669788 
	1591.694198487795802 2788.625768417750351 14394.98454086553102 
	1591.694198487796712 2769.422939875813427 14379.0742517222825 
	1591.694198487797848 2755.476997294625107 14366.61145111546284 
	1591.694198487798758 2742.006859973036626 14353.6358541628033 
	1591.694198487800122 2724.706033446591846 14335.67569378845837 
	1591.694198487802851 2704.362216182992597 14312.03578752914473 
	1591.694198487805807 2682.137787150763415 14281.92286393184986 
	1591.694198487806943 2662.22604505686877 14250.23322856205232 
	1591.694198487809444 2642.794644635998338 14213.46780643961938 
	1591.694198487811036 2625.01679832486434 14171.29380253509953 
	1591.694198487811946 2610.300262452002244 14123.58331900753183 
	1591.694198487814901 2602.880401431806604 14086.87935666407793 
	1591.694198487814447 2599.471796147588975 14062.17821242866557 
	1591.694198487814901 2597.610517669545061 14045.65926921301252 
	1591.694198487814901 2596.0572904241576 14024.93319039567905 
	1591.694198487814901 2595.435537033120454 13999.99992359963471 
	1591.694198487814901 2596.057206789263546 13975.06662962090923 
	1591.694198487814674 2597.921354529042219 13950.1953839631733 
	1591.694198487813992 2603.088998029925733 13908.94945170745996 
	1591.694198487812173 2616.070195692082962 13852.07133370351039 
	1591.694198487810581 2638.907746822259014 13793.88479781924798 
	1591.694198487808535 2659.311492510541939 13755.28150726894091 
	1591.694198487808535 2670.57300867729964 13736.59169829918392 
	1591.694198487808535 2677.30443224362125 13726.09796083133369 
	1591.69419848780808 2694.620041641184343 13700.1824652008072 
	1591.694198487801941 2717.354422930008241 13671.67496820968518 
	1591.694198487800804 2746.379733381505957 13641.91819901965755 
	1591.694198487799213 2770.756758178300061 13619.29880148219672 
	1591.694198487794665 2803.286775846752789 13593.35765628260742 
	1591.694198487787389 2852.217557977460729 13561.75276975429733 
	1591.694198487779659 2901.026182802383573 13538.24848163262868 
	1591.694198487774656 2948.12795045097937 13521.76850916771764 
	1591.694198487769881 2990.303608904610428 13510.46671014375897 
	1591.694198487758968 3039.543032867221882 13502.10052974439168 
	1591.694198487747826 3095.642824469624429 13498.9500623746444 
	1591.694198487734184 3151.742627511783667 13502.10050812000372 
	1591.694198487721451 3200.982035621083469 13510.46672000337094 
	1591.694198487709627 3243.157724665844398 13521.76843410311267 
	1591.694198487707126 3290.259398236828474 13538.24866217828458 
	1591.694198487680524 3335.313627235831518 13559.94462461446528 
	1591.694198487667109 3372.284050254762406 13583.17665303803915 
	1591.694198487657104 3392.622271998729502 13597.60713925360324 
	1591.694198487655513 3417.352816527676623 13616.58339935423282 
	1591.694198487603217 3449.939180343420048 13645.70354468400728 
	1591.694198487522272 3487.379759797316638 13687.6001845515093 
	1591.694198487442918 3519.894360006102943 13733.42499697937819 
	1591.694198487346966 3547.073533784618121 13782.60234536034113 
	1591.694198487259655 3568.575964000468957 13834.51347242528209 
	1591.694198487147105 3581.538079767007275 13879.50708300292172 
	1591.694198487111407 3588.836956797186303 13916.20288923405133 
	1591.69419848707912 3592.759729188212987 13943.98830983172411 
	1591.694198487042286 3594.725106226178923 13967.28972536274887 
	1591.694198487031372 3595.41340803364119 13983.63931338158727 
	1591.694198487027052 3595.585511410516119 13991.81893572407171 
	1591.69419848702637 3595.628538795531313 13995.9093499981409 
	1591.694198487024551 3595.640832383420729 13998.24681583220809 
	1591.694198487025233 3595.642881469589611 13999.4155630932928 
	1591.69419848702546 3595.642881444951399 13999.99993673287463 
	1708.360865167686825 3595.642881444950945 13999.99993673287463 
	1708.360865167688871 3595.642881247846162 14004.67492584953106 
	1708.360865167701149 3595.511736185133486 14014.02490524007044 
	1708.36086516770979 3594.725100554881465 14032.71014778801327 
	1708.360865167748898 3592.759717239077872 14056.01156229743174 
	1708.360865167779593 3588.836933119140667 14083.79697715461043 
	1708.360865167814836 3581.538052590608913 14120.49278715229957 
	1708.360865167934662 3568.575873529576256 14165.48635048569668 
	1708.360865168010832 3547.073469244534408 14217.3975302327035 
	1708.360865168109967 3526.68895342052474 14254.28040529311329 
	1708.360865168120426 3511.43216988667109 14277.82153242109416 
	1708.360865168125429 3503.476809651316671 14289.37361351411528 
	1708.360865168129976 3495.200482454859412 14300.69796176610544 
	1708.360865168138616 3478.019384438566703 14322.87369698890507 
	1708.360865168200689 3449.938961048867895 14354.29615341484896 
	1708.360865168249575 3409.594070194797496 14390.34989030415454 
	1708.360865168296868 3363.987963122845485 14423.13893961218673 
	1708.360865168332793 3327.673321009965548 14443.5061270751612 
	1708.360865168334158 3297.541042335966267 14457.55623385635226 
	1708.3608651683478 3263.067715314178258 14472.0896844940653 
	1708.360865168372584 3219.265201518991034 14485.60037523284518 
	1708.36086516837986 3170.233314171202892 14494.8763265676389 
	1708.360865168395776 3142.340378635597972 14498.01952301226265 
	1708.360865168396458 3123.679623319794246 14499.24251725215254 
	1708.360865168397595 3111.226067029240312 14499.82515919997968 
	1708.360865168400096 3089.409446236471013 14500.2332337158241 
	1708.360865168409191 3058.242856835600378 14499.06711483011168 
	1708.360865168416922 3021.05209735496328 14494.87669306417229 
	1708.36086516842488 2984.278482243551935 14487.91876048369159 
	1708.360865168431701 2948.12765895131588 14478.23217090350954 
	1708.360865168438522 2912.801801402626097 14465.87111974612526 
	1708.360865168444207 2878.498460932305079 14450.90472784374469 
	1708.360865168450118 2845.409485390416648 14433.41668847691653 
	1708.360865168454666 2813.71990190589031 14413.50481989669788 
	1708.360865168457167 2788.625768417749896 14394.98454086553102 
	1708.360865168458076 2769.422939875812972 14379.0742517222825 
	1708.360865168459213 2755.476997294624653 14366.61145111546284 
	1708.360865168460123 2742.006859973036171 14353.6358541628033 
	1708.360865168461487 2724.706033446591391 14335.67569378845837 
	1708.360865168464215 2704.362216182992142 14312.03578752914473 
	1708.360865168467171 2682.137787150762961 14281.92286393184986 
	1708.360865168468308 2662.226045056868315 14250.23322856205232 
	1708.360865168470809 2642.794644635997884 14213.46780643961938 
	1708.360865168472174 2625.016798324863885 14171.29380253509953 
	1708.360865168473538 2610.300262452001789 14123.58331900753183 
	1708.360865168475812 2602.880401431806149 14086.87935666407793 
	1708.360865168476039 2599.47179614758852 14062.17821242866557 
	1708.360865168476266 2597.610517669544606 14045.65926921301252 
	1708.360865168476039 2596.057290424157145 14024.93319039567905 
	1708.360865168476494 2595.435537033119999 13999.99992359963471 
	1708.360865168476039 2596.057206789263091 13975.06662962090923 
	1708.360865168476266 2597.921354529041764 13950.1953839631733 
	1708.360865168475129 2603.088998029925278 13908.94945170745996 
	1708.360865168473538 2616.070195692082507 13852.07133370351039 
	1708.360865168471719 2638.907746822258559 13793.88479781924798 
	1708.3608651684699 2659.311492510541484 13755.28150726894091 
	1708.3608651684699 2670.573008677299185 13736.59169829918392 
	1708.3608651684699 2677.304432243620795 13726.09796083133369 
	1708.360865168469218 2694.620041641183889 13700.1824652008072 
	1708.360865168463079 2717.354422930007786 13671.67496820968518 
	1708.360865168462169 2746.379733381505503 13641.91819901965755 
	1708.36086516846035 2770.756758178299606 13619.29880148219672 
	1708.360865168456257 2803.286775846752334 13593.35765628260742 
	1708.360865168448527 2852.217557977460274 13561.75276975429733 
	1708.360865168441023 2901.026182802383119 13538.24848163262868 
	1708.360865168436021 2948.127950450978915 13521.76850916771764 
	1708.360865168431246 2990.303608904609973 13510.46671014375897 
	1708.360865168420332 3039.543032867221427 13502.10052974439168 
	1708.360865168409191 3095.642824469623974 13498.9500623746444 
	1708.360865168395549 3151.742627511783212 13502.10050812000372 
	1708.360865168382816 3200.982035621083014 13510.46672000337094 
	1708.360865168370992 3243.157724665843944 13521.76843410311267 
	1708.360865168368264 3290.259398236828019 13538.24866217828458 
	1708.360865168342116 3335.313627235831063 13559.94462461446528 
	1708.360865168328246 3372.284050254761951 13583.17665303803915 
	1708.360865168318469 3392.622271998729047 13597.60713925360324 
	1708.36086516831665 3417.352816527676168 13616.58339935423282 
	1708.360865168264809 3449.939180343419594 13645.70354468400728 
	1708.360865168183636 3487.379759797316183 13687.6001845515093 
	1708.360865168104283 3519.894360006102488 13733.42499697937819 
	1708.360865168008331 3547.073533784617666 13782.60234536034113 
	1708.36086516792102 3568.575964000468502 13834.51347242528209 
	1708.360865167808242 3581.53807976700682 13879.50708300292172 
	1708.360865167772999 3588.836956797185849 13916.20288923405133 
	1708.360865167740258 3592.759729188212532 13943.98830983172411 
	1708.360865167703651 3594.725106226178468 13967.28972536274887 
	1708.360865167692737 3595.413408033640735 13983.63931338158727 
	1708.360865167688416 3595.585511410515664 13991.81893572407171 
	1708.360865167687734 3595.628538795530858 13995.9093499981409 
	1708.360865167685915 3595.640832383420275 13998.24681583220809 
	1708.360865167686597 3595.642881469589156 13999.4155630932928 
	1708.360865167686825 3595.642881444950945 13999.99993673287463 
	0 
	
	0 
	0 
	89 0 0.004464285714285714038 0.008928571428571428076 0.01785714285714285615 0.02678571428571428423 0.0357142857142857123 0.05357142857142856845 0.07142857142857142461 0.08928571428571427382 0.09374999999999998612 0.09821428571428569843 0.1026785714285714246 0.1071428571428571369 0.125 0.1428571428571428492 0.1587301587301587213 0.1785714285714285476 0.1825396825396825295 0.1904761904761904656 0.2142857142857142738 0.226190476190476164 0.238095238095238082 0.2410714285714285476 0.2440476190476190133 0.2499999999999999722 0.2619047619047618625 0.2738095238095237804 0.2857142857142856984 0.2976190476190476164 0.3095238095238095344 0.3214285714285713969 0.3333333333333333148 0.3452380952380952328 0.3571428571428570953 0.3630952380952380265 0.3690476190476190133 0.375 0.3809523809523809312 0.3928571428571428492 0.4047619047619047672 0.4166666666666666297 0.4285714285714285476 0.4444444444444444198 0.4603174603174602919 0.476190476190476164 0.4801587301587301182 0.4841269841269840724 0.4920634920634920362 0.5 0.5079365079365079083 0.5158730158730158166 0.5238095238095237249 0.5476190476190475609 0.5714285714285713969 0.5833333333333332593 0.5892857142857141906 0.5922619047619046562 0.5952380952380951218 0.6190476190476189577 0.6269841269841269771 0.6349206349206348854 0.650793650793650702 0.6666666666666666297 0.6904761904761904656 0.7023809523809523281 0.7142857142857141906 0.7321428571428569843 0.749999999999999889 0.7678571428571427937 0.7857142857142855874 0.7976190476190474499 0.8095238095238094234 0.8333333333333332593 0.8452380952380951218 0.851190476190476053 0.8571428571428570953 0.875 0.8928571428571427937 0.9107142857142856984 0.9285714285714286031 0.9464285714285713969 0.9642857142857143016 0.9732142857142858094 0.9821428571428572063 0.9910714285714286031 0.9955357142857143016 0.9977678571428572063 0.9988839285714286031 0.9994419642857143016 
	0 
	0 
	0 
	F 1 F 0 F 1 F 0 } I I I I #
tcoedge-coedge $-1 -1 $-1 $13 $13 $17 $18 reversed $8 $19 -6.283185307179586232 -0 #
tcoedge-coedge $-1 -1 $-1 $20 $21 $10 $15 reversed $11 $22 -6.283185307179586232 -0 #
tedge-edge $-1 -1 $-1 $23 0 $23 6.283185307179586232 $14 $24 forward @7 unknown 0.0007426911657145681203 #
pcurve $-1 -1 $-1 0 forward { exppc nurbs 2 periodic 5 
	0 2 1.570796326794896558 2 3.141592653589793116 2 4.712388980384689674 2 6.283185307179586232 2 
	0 500 1 
	-500 500 0.7071067811865463515 
	-500 0 1 
	-500 -500 0.7071067811865463515 
	0 -500 1 
	500 -500 0.7071067811865463515 
	500 0 1 
	500 500 0.707106781186543798 
	0 500 1 
	0 
	plane 1708.360865168497412 3095.642797989811697 14000 1 -3.897834435702131628e-15 0 0 0 -1 forward_v I I I I 
	} 0 0 #
tcoedge-coedge $-1 -1 $-1 $21 $20 $13 $18 forward $11 $25 0 6.283185307179586232 #
tedge-edge $-1 -1 $-1 $26 0 $26 6.283185307179586232 $17 $27 forward @7 unknown 0.0007426911661701711236 #
pcurve $-1 -1 $-1 0 forward { exppc nurbs 2 periodic 5 
	-6.283185307179586232 2 -4.712388980384689674 2 -3.141592653589793116 2 -1.570796326794896558 2 0 2 
	0 500 1 
	500 500 0.7071067811865463515 
	500 0 1 
	500 -500 0.7071067811865463515 
	0 -500 1 
	-500 -500 0.7071067811865463515 
	-500 0 1 
	-500 500 0.7071067811865463515 
	0 500 1 
	0 
	plane 1358.360865126513318 3095.642797989813062 14000 -1 3.897834435702129261e-15 -0 0 0 -1 reverse_v I I I I 
	} 0 0 #
coedge $-1 -1 $-1 $17 $14 $21 $28 reversed $11 $29 #
coedge $-1 -1 $-1 $14 $17 $20 $28 forward $11 $30 #
pcurve $-1 -1 $-1 0 forward { exppc nubs 1 periodic 2 
	-6.283185307179586232 1 -0 1 
	1 1 
	0 1 
	2.726396620975368931e-13 
	spline forward { ref 0 } I I I I 
	} 0 0 #
tvertex-vertex $-1 -1 $-1 $15 $31 0.0001047257920213683823 #
ellipse-curve $-1 -1 $-1 1708.360865168497412 3095.642797989811697 14000 1 -3.897834435702131628e-15 0 1.948917217851065861e-12 500 0 1 I I #
pcurve $-1 -1 $-1 0 forward { exppc nubs 1 periodic 2 
	0 1 6.283185307179586232 1 
	0 0 
	1 0 
	0 
	spline forward { ref 0 } I I I I 
	} 0 0 #
tvertex-vertex $-1 -1 $-1 $18 $32 0.0001047257923825936735 #
ellipse-curve $-1 -1 $-1 1358.360865126513318 3095.642797989813062 14000 1 -3.897834435702129261e-15 0 1.94891721785106465e-12 500 0 1 I I #
edge $-1 -1 $-1 $26 0 $23 1 $21 $33 forward @7 tangent #
pcurve $-1 -1 $-1 -1 $33 0 0 #
pcurve $-1 -1 $-1 1 $33 1 0 #
point $-1 -1 $-1 1708.360865168499458 3595.642797989811697 14000 #
point $-1 -1 $-1 1358.360865126515364 3595.642797989813062 14000 #
intcurve-curve $-1 -1 $-1 forward { parcur full nubs 3 open 2 
	0 3 1 3 
	1358.360865125869168 3595.642881444952764 13999.99993673287463 
	1475.027531806530533 3595.642881444952309 13999.99993673287463 
	1591.69419848702546 3595.642881444951399 13999.99993673287463 
	1708.360865167686825 3595.642881444950945 13999.99993673287463 
	0 
	
	spline forward { ref 0 } I I I I 
	null_surface 
	nubs 1 open 2 
	0 1 1 1 
	0 0 
	0 1 
	
	nullbs 
	I I 
	0 
	0 
	0 
	surf1 } F 0 F 1 #
End-of-ACIS-data 