700 0 1 0           
4 LibG 19 ASM 222.0.0.1700 NT 24 Wed Oct  5 17:29:53 2016 
1000 9.999999999999999547e-07 1.000000000000000036e-10 
body $-1 -1 $-1 $1 $-1 $-1 #
lump $-1 -1 $-1 $-1 $2 $0 #
shell $-1 -1 $-1 $-1 $-1 $3 $-1 $1 #
face $-1 -1 $-1 $4 $5 $2 $-1 $6 forward single #
face $-1 -1 $-1 $7 $8 $2 $-1 $9 reversed single #
loop $-1 -1 $-1 $-1 $10 $3 #
plane-surface $-1 -1 $-1 308.3608650005609775 3095.642797989817154 14000.00000000000182 1 -3.897834435702128473e-15 -1.039422516187234417e-14 -1.039422516187234417e-14 0 -1 forward_v I I I I #
face $-1 -1 $-1 $-1 $11 $2 $-1 $12 forward single #
loop $-1 -1 $-1 $-1 $13 $4 #
plane-surface $-1 -1 $-1 -391.6391350834072114 3095.642797989819883 14000.00000000000182 1 -3.897834435702129261e-15 0 0 0 -1 forward_v I I I I #
tcoedge-coedge $-1 -1 $-1 $10 $10 $14 $15 forward $5 $16 -3.376247349170975974e-31 6.283185307179586232 #
loop $-1 -1 $-1 $-1 $17 $7 #
spline-surface $-1 -1 $-1 forward { exactsur full nubs 3 3 periodic open none none 89 2 
	0 3 0.001116071428571428509 1 0.002232142857142857019 1 0.004464285714285714038 1 0.008928571428571428076 1 
	0.01785714285714285615 1 0.02678571428571428423 1 0.0357142857142857123 1 0.05357142857142856845 1 0.07142857142857142461 1 
	0.08928571428571427382 1 0.1071428571428571369 1 0.1160714285714285754 1 0.125 1 0.1339285714285714246 1 
	0.1428571428571428492 1 0.1587301587301587213 1 0.1746031746031745935 1 0.1904761904761904656 1 0.2023809523809523836 1 
	0.2142857142857142738 1 0.238095238095238082 1 0.2619047619047618625 1 0.2857142857142856984 1 0.2916666666666666297 1 
	0.2931547619047618625 1 0.2946428571428570953 1 0.2961309523809523281 1 0.2976190476190476164 1 0.3095238095238095344 1 
	0.3214285714285713969 1 0.3333333333333333148 1 0.3452380952380952328 1 0.3571428571428570953 1 0.3690476190476190133 1 
	0.3809523809523809312 1 0.3928571428571428492 1 0.4047619047619047672 1 0.4166666666666666297 1 0.4285714285714285476 1 
	0.4444444444444444198 1 0.4603174603174602919 1 0.476190476190476164 1 0.4841269841269840724 1 0.4880952380952380265 1 
	0.4900793650793650036 1 0.4920634920634920362 1 0.5079365079365079083 1 0.5158730158730158166 1 0.5198412698412697708 1 
	0.5238095238095237249 1 0.5476190476190475609 1 0.5714285714285713969 1 0.5833333333333332593 1 0.5952380952380951218 1 
	0.6071428571428569843 1 0.6190476190476189577 1 0.6349206349206348854 1 0.650793650793650702 1 0.6666666666666666297 1 
	0.6904761904761904656 1 0.7023809523809523281 1 0.7142857142857141906 1 0.7321428571428569843 1 0.749999999999999889 1 
	0.7678571428571427937 1 0.7767857142857141906 1 0.7857142857142855874 1 0.7916666666666665186 1 0.7976190476190474499 1 
	0.8095238095238094234 1 0.8333333333333332593 1 0.8452380952380951218 1 0.8571428571428570953 1 0.875 1 
	0.8928571428571427937 1 0.9107142857142856984 1 0.9285714285714286031 1 0.9464285714285713969 1 0.9642857142857143016 1 
	0.9821428571428572063 1 0.9910714285714286031 1 0.9955357142857143016 1 0.9977678571428572063 1 0.9988839285714286031 1 
	0.9994419642857143016 1 0.9997209821428572063 1 0.9998604910714286031 1 1 3 
	0 3 1 3 
	-391.6391350772898363 3595.642854355643976 13999.9998703821293 
	-391.6391350772902911 3595.642854350556263 14001.16861764426903 
	-391.6391350772972828 3595.634658364880124 14003.50611214012497 
	-391.6391350773034219 3595.58548409408013 14008.1808711791 
	-391.6391350773345152 3595.413379756708309 14016.36049273471144 
	-391.6391350774318312 3594.725075349539566 14032.71007816383099 
	-391.6391350777365687 3592.759686439901998 14056.01148216314687 
	-391.6391350780133962 3588.836906793007984 14083.79689316113399 
	-391.6391350783106304 3581.538007259985079 14120.49267779395632 
	-391.639135079272819 3568.575884204215527 14165.48625774886932 
	-391.6391350799819975 3547.073323817908658 14217.39726839616378 
	-391.6391350809035998 3519.89427238697408 14266.57466383579776 
	-391.6391350810652625 3492.798693764296331 14304.76194082599432 
	-391.6391350813165673 3468.659411048612583 14333.34778172580081 
	-391.6391350814437828 3449.381758119859569 14353.73868526465776 
	-391.6391350816006138 3428.990859916894806 14373.01637808303531 
	-391.6391350817161197 3401.992944218296998 14395.81433426254262 
	-391.6391350821791093 3367.366106636022778 14420.70966611948279 
	-391.6391350822105437 3324.12657618263529 14445.67373274788224 
	-391.6391350823170683 3282.408950889368498 14464.49766704188914 
	-391.6391350823869288 3243.15781318825384 14478.23141060029047 
	-391.6391350824916344 3194.957023659709193 14491.14841705123945 
	-391.6391350825673499 3133.147771158922296 14500.46570264245202 
	-391.6391350828321833 3058.1379661142646 14500.46570398234326 
	-391.6391350829540556 3002.509485441209108 14492.08090081197406 
	-391.6391350829729276 2970.741376217660218 14484.20141201768274 
	-391.6391350829743487 2961.721291795841807 14481.73930630658651 
	-391.6391350829754856 2957.222965817520617 14480.46608830377227 
	-391.6391350829758835 2952.736737814788285 14479.15088752257361 
	-391.6391350829799762 2937.824283627202476 14474.62725536630023 
	-391.6391350830208467 2912.801794479422369 14465.87148128236913 
	-391.6391350830513716 2878.498454941830914 14450.90504822015464 
	-391.6391350830882061 2845.409469969102702 14433.41697873823796 
	-391.6391350831197542 2813.719894295552422 14413.50506241987023 
	-391.6391350831328282 2783.606910810043246 14391.28073791079987 
	-391.63913508316449 2755.23900031742005 14366.86811679942548 
	-391.6391350831832483 2728.774745555360369 14340.40386762317758 
	-391.6391350832082026 2704.3621696772002 14312.03592554572424 
	-391.639135083220026 2682.137797649414551 14281.92295941454358 
	-391.6391350832267904 2662.22596635484615 14250.23336283801473 
	-391.6391350832372495 2642.794654212159003 14213.46787990522171 
	-391.639135083244355 2625.016615525926227 14171.29395333846151 
	-391.6391350832533931 2610.300148308609096 14123.58340810389564 
	-391.6391350832618059 2602.055826162903941 14082.80121985466758 
	-391.6391350832643639 2598.43793980852297 14053.92911922143139 
	-391.6391350832646481 2597.170169609318236 14039.43893324641067 
	-391.6391350832647618 2596.600761420017079 14031.14720797182235 
	-391.6391350832645344 2595.435612779554958 14010.40176045991575 
	-391.6391350832636249 2595.435937594781535 13983.35712440660609 
	-391.6391350832622038 2597.610505020069468 13954.34061081964501 
	-391.6391350832617491 2599.471826070354382 13937.82167313007267 
	-391.6391350832587932 2604.016185800139283 13904.8867589563306 
	-391.6391350832436729 2616.070377663236741 13852.07137674073783 
	-391.6391350832251987 2638.907746936729382 13793.88480393624195 
	-391.6391350832060425 2662.226452458502536 13749.76679086666991 
	-391.6391350831896148 2682.137810030806577 13718.07696993660829 
	-391.6391350831727891 2704.362395453369118 13687.96412962017712 
	-391.6391350831473233 2731.487203602878708 13656.4440854897166 
	-391.6391350831217437 2764.250783053433224 13624.48698964652613 
	-391.6391350831008822 2803.286751537270447 13593.35754035092214 
	-391.6391350830708689 2852.217607166434391 13561.75283159972605 
	-391.639135083022893 2901.026192937231826 13538.24845657392507 
	-391.6391350829948124 2948.127968372334635 13521.76851631155114 
	-391.6391350829620706 2990.303622998768788 13510.46668307889558 
	-391.6391350828873215 3039.543033372937771 13502.10057255162064 
	-391.6391350828124018 3095.642845336104983 13498.94993125202745 
	-391.6391350827140627 3142.392625465103265 13501.5756253766358 
	-391.6391350826831967 3179.439850906077936 13506.80616778991316 
	-391.6391350826497728 3203.903646079098507 13511.6722540722767 
	-391.639135082635903 3225.082497157843591 13516.92470220951509 
	-391.6391350826044686 3249.045420971697695 13523.82844782731445 
	-391.6391350825616655 3290.259449189582483 13538.24852856423786 
	-391.6391350823533912 3335.313594683192605 13559.94466138854477 
	-391.639135082206451 3377.565584595232394 13586.49532449567778 
	-391.639135082099699 3412.697764856461163 13612.42304118906941 
	-391.6391350818080923 3449.938994845003435 13645.70378291867382 
	-391.6391350815669057 3487.379700848879111 13687.60015807200944 
	-391.6391350811072698 3519.894393906214191 13733.42495455296557 
	-391.6391350802842908 3547.073589208307567 13782.60228508103864 
	-391.6391350795016137 3568.575849969221053 13834.51342914306406 
	-391.6391350786867065 3584.130804244687624 13888.50569161770727 
	-391.6391350777283265 3591.973797241992543 13934.66765612711424 
	-391.6391350774198941 3594.725036879186518 13967.28966500433125 
	-391.6391350773239992 3595.413389233253838 13983.63924656233939 
	-391.6391350772993292 3595.585482980305187 13991.81886963958459 
	-391.6391350772922806 3595.628512012395277 13995.90928365223408 
	-391.6391350772903479 3595.63926864994346 13997.95456626827945 
	-391.6391350772898932 3595.64195794951047 13998.9772169730204 
	-391.6391350772897795 3595.642726295434386 13999.56159015838239 
	-391.6391350772897795 3595.642854356280168 13999.85377697436161 
	-391.6391350772898363 3595.642854355643976 13999.9998703821293 
	-158.3058017159670499 3595.642854355643067 13999.9998703821293 
	-158.3058017159673341 3595.642854350555353 14001.16861764426903 
	-158.3058017159749795 3595.634658364879215 14003.50611214012497 
	-158.3058017159803512 3595.58548409407922 14008.1808711791 
	-158.3058017160120983 3595.4133797567074 14016.36049273471144 
	-158.3058017161087037 3594.725075349538656 14032.71007816383099 
	-158.3058017164137254 3592.759686439901088 14056.01148216314687 
	-158.3058017166904961 3588.836906793007074 14083.79689316113399 
	-158.3058017169872755 3581.53800725998417 14120.49267779395632 
	-158.305801717949862 3568.575884204214617 14165.48625774886932 
	-158.3058017186583015 3547.073323817907749 14217.39726839616378 
	-158.3058017195801312 3519.894272386973171 14266.57466383579776 
	-158.3058017197413392 3492.798693764295422 14304.76194082599432 
	-158.3058017199928997 3468.659411048611673 14333.34778172580081 
	-158.3058017201198595 3449.381758119858659 14353.73868526465776 
	-158.3058017202763494 3428.990859916893896 14373.01637808303531 
	-158.3058017203926511 3401.992944218296088 14395.81433426254262 
	-158.3058017208544186 3367.366106636021868 14420.70966611948279 
	-158.3058017208864214 3324.126576182634381 14445.67373274788224 
	-158.3058017209928323 3282.408950889367588 14464.49766704188914 
	-158.3058017210624655 3243.157813188252931 14478.23141060029047 
	-158.3058017211674269 3194.957023659708284 14491.14841705123945 
	-158.305801721242517 3133.147771158921387 14500.46570264245202 
	-158.3058017215081748 3058.137966114263691 14500.46570398234326 
	-158.3058017216291375 3002.509485441208199 14492.08090081197406 
	-158.3058017216487769 2970.741376217659308 14484.20141201768274 
	-158.3058017216498001 2961.721291795840898 14481.73930630658651 
	-158.3058017216510507 2957.222965817519707 14480.46608830377227 
	-158.305801721651676 2952.736737814787375 14479.15088752257361 
	-158.3058017216555129 2937.824283627201567 14474.62725536630023 
	-158.3058017216964686 2912.80179447942146 14465.87148128236913 
	-158.3058017217269935 2878.498454941830005 14450.90504822015464 
	-158.3058017217640838 2845.409469969101792 14433.41697873823796 
	-158.3058017217956603 2813.719894295551512 14413.50506241987023 
	-158.3058017218086206 2783.606910810042336 14391.28073791079987 
	-158.3058017218405666 2755.239000317419141 14366.86811679942548 
	-158.3058017218592681 2728.774745555359459 14340.40386762317758 
	-158.3058017218846771 2704.36216967719929 14312.03592554572424 
	-158.3058017218960458 2682.137797649413642 14281.92295941454358 
	-158.3058017219035492 2662.225966354845241 14250.23336283801473 
	-158.3058017219134967 2642.794654212158093 14213.46787990522171 
	-158.3058017219212275 2625.016615525925317 14171.29395333846151 
	-158.3058017219300382 2610.300148308608186 14123.58340810389564 
	-158.3058017219388489 2602.055826162903031 14082.80121985466758 
	-158.3058017219414921 2598.43793980852206 14053.92911922143139 
	-158.3058017219416342 2597.170169609317327 14039.43893324641067 
	-158.3058017219421458 2596.60076142001617 14031.14720797182235 
	-158.3058017219414069 2595.435612779554049 14010.40176045991575 
	-158.30580172194135 2595.435937594780626 13983.35712440660609 
	-158.3058017219393605 2597.610505020068558 13954.34061081964501 
	-158.3058017219392468 2599.471826070353472 13937.82167313007267 
	-158.3058017219363478 2604.016185800138373 13904.8867589563306 
	-158.3058017219214832 2616.070377663235831 13852.07137674073783 
	-158.3058017219033502 2638.907746936728472 13793.88480393624195 
	-158.3058017218838529 2662.226452458501626 13749.76679086666991 
	-158.3058017218682494 2682.137810030805667 13718.07696993660829 
	-158.3058017218508553 2704.362395453368208 13687.96412962017712 
	-158.3058017218259579 2731.487203602877798 13656.4440854897166 
	-158.3058017218002362 2764.250783053432315 13624.48698964652613 
	-158.3058017217796873 2803.286751537269538 13593.35754035092214 
	-158.3058017217495035 2852.217607166433481 13561.75283159972605 
	-158.3058017217018687 2901.026192937230917 13538.24845657392507 
	-158.3058017216737881 2948.127968372333726 13521.76851631155114 
	-158.3058017216411599 2990.303622998767878 13510.46668307889558 
	-158.3058017215660129 3039.543033372936861 13502.10057255162064 
	-158.3058017214915765 3095.642845336104074 13498.94993125202745 
	-158.30580172139301 3142.392625465102356 13501.5756253766358 
	-158.3058017213622577 3179.439850906077027 13506.80616778991316 
	-158.3058017213284927 3203.903646079097598 13511.6722540722767 
	-158.3058017213151629 3225.082497157842681 13516.92470220951509 
	-158.3058017212833875 3249.045420971696785 13523.82844782731445 
	-158.3058017212404707 3290.259449189581574 13538.24852856423786 
	-158.3058017210321964 3335.313594683191695 13559.94466138854477 
	-158.3058017208851993 3377.565584595231485 13586.49532449567778 
	-158.305801720778561 3412.697764856460253 13612.42304118906941 
	-158.3058017204862722 3449.938994845002526 13645.70378291867382 
	-158.3058017202454835 3487.379700848878201 13687.60015807200944 
	-158.3058017197849949 3519.894393906213281 13733.42495455296557 
	-158.3058017189628686 3547.073589208306657 13782.60228508103864 
	-158.3058017181790547 3568.575849969220144 13834.51342914306406 
	-158.3058017173647443 3584.130804244686715 13888.50569161770727 
	-158.3058017164052558 3591.973797241991633 13934.66765612711424 
	-158.3058017160977045 3594.725036879185609 13967.28966500433125 
	-158.3058017160011275 3595.413389233252929 13983.63924656233939 
	-158.3058017159767132 3595.585482980304278 13991.81886963958459 
	-158.305801715969551 3595.628512012394367 13995.90928365223408 
	-158.3058017159675614 3595.639268649942551 13997.95456626827945 
	-158.3058017159672488 3595.64195794950956 13998.9772169730204 
	-158.3058017159670499 3595.642726295433476 13999.56159015838239 
	-158.3058017159670214 3595.642854356279258 13999.85377697436161 
	-158.3058017159670499 3595.642854355643067 13999.9998703821293 
	75.02753163442508821 3595.642854355643067 13999.9998703821293 
	75.02753163442525874 3595.642854350556263 14001.16861764426903 
	75.02753163443142626 3595.63465836487967 14003.50611214012497 
	75.02753163443566109 3595.58548409407922 14008.1808711791 
	75.02753163446087115 3595.413379756708764 14016.36049273471144 
	75.02753163453701291 3594.725075349539111 14032.71007816383099 
	75.02753163477734688 3592.759686439901998 14056.01148216314687 
	75.02753163499551192 3588.836906793008438 14083.79689316113399 
	75.02753163522936575 3581.538007259985079 14120.49267779395632 
	75.0275316359877138 3568.575884204215981 14165.48625774886932 
	75.02753163654585933 3547.073323817908658 14217.39726839616378 
	75.02753163727197716 3519.894272386974535 14266.57466383579776 
	75.0275316373990222 3492.798693764296331 14304.76194082599432 
	75.02753163759726363 3468.659411048612583 14333.34778172580081 
	75.02753163769722278 3449.381758119860024 14353.73868526465776 
	75.02753163782040247 3428.990859916894806 14373.01637808303531 
	75.02753163791214774 3401.992944218296998 14395.81433426254262 
	75.02753163827546246 3367.366106636021868 14420.70966611948279 
	75.02753163830081462 3324.126576182634835 14445.67373274788224 
	75.02753163838448813 3282.408950889367134 14464.49766704188914 
	75.02753163843911466 3243.157813188252476 14478.23141060029047 
	75.02753163852162288 3194.957023659707829 14491.14841705123945 
	75.02753163858028529 3133.147771158920932 14500.46570264245202 
	75.02753163878904274 3058.137966114264145 14500.46570398234326 
	75.02753163888363019 3002.509485441208199 14492.08090081197406 
	75.02753163889889265 2970.741376217658853 14484.20141201768274 
	75.02753163889957477 2961.721291795840443 14481.73930630658651 
	75.02753163890054111 2957.222965817519707 14480.46608830377227 
	75.02753163890099586 2952.736737814787375 14479.15088752257361 
	75.02753163890380961 2937.824283627201567 14474.62725536630023 
	75.02753163893584087 2912.801794479422369 14465.87148128236913 
	75.02753163895948774 2878.498454941830914 14450.90504822015464 
	75.02753163898833577 2845.409469969102702 14433.41697873823796 
	75.02753163901275002 2813.719894295552876 14413.50506241987023 
	75.02753163902252709 2783.606910810043246 14391.28073791079987 
	75.02753163904731082 2755.239000317420505 14366.86811679942548 
	75.02753163906157852 2728.774745555360369 14340.40386762317758 
	75.0275316390811895 2704.3621696772002 14312.03592554572424 
	75.02753163908965917 2682.137797649414097 14281.92295941454358 
	75.02753163909522982 2662.225966354845696 14250.23336283801473 
	75.02753163910239209 2642.794654212157639 14213.46787990522171 
	75.02753163910813328 2625.016615525924863 14171.29395333846151 
	75.02753163911427237 2610.300148308607731 14123.58340810389564 
	75.02753163912097989 2602.055826162902576 14082.80121985466758 
	75.02753163912259993 2598.437939808521605 14053.92911922143139 
	75.02753163912257151 2597.170169609316872 14039.43893324641067 
	75.02753163912296941 2596.600761420015715 14031.14720797182235 
	75.02753163912205991 2595.435612779553594 14010.40176045991575 
	75.02753163912183254 2595.435937594780171 13983.35712440660609 
	75.02753163911995671 2597.610505020068558 13954.34061081964501 
	75.02753163911972933 2599.471826070353018 13937.82167313007267 
	75.02753163911722822 2604.016185800138373 13904.8867589563306 
	75.02753163910503531 2616.070377663236286 13852.07137674073783 
	75.02753163909042655 2638.907746936728472 13793.88480393624195 
	75.02753163907462408 2662.226452458502536 13749.76679086666991 
	75.02753163906231748 2682.137810030806577 13718.07696993660829 
	75.027531639048334 2704.362395453369118 13687.96412962017712 
	75.02753163902872302 2731.487203602878708 13656.4440854897166 
	75.02753163900834465 2764.25078305343277 13624.48698964652613 
	75.0275316389921727 2803.286751537269993 13593.35754035092214 
	75.02753163896841215 2852.217607166434391 13561.75283159972605 
	75.02753163893106603 2901.026192937230917 13538.24845657392507 
	75.02753163890912447 2948.127968372334635 13521.76851631155114 
	75.02753163888365862 2990.303622998767878 13510.46668307889558 
	75.02753163882465515 3039.543033372937316 13502.10057255162064 
	75.02753163876647591 3095.642845336104529 13498.94993125202745 
	75.02753163868916886 3142.392625465102356 13501.5756253766358 
	75.02753163866529462 3179.439850906077027 13506.80616778991316 
	75.02753163863891928 3203.903646079097598 13511.6722540722767 
	75.02753163862871588 3225.082497157842681 13516.92470220951509 
	75.02753163860387531 3249.045420971696785 13523.82844782731445 
	75.02753163857045138 3290.259449189581574 13538.24852856423786 
	75.02753163840702655 3335.313594683191695 13559.94466138854477 
	75.02753163829180494 3377.565584595231485 13586.49532449567778 
	75.02753163820841564 3412.697764856460253 13612.42304118906941 
	75.02753163797876823 3449.938994845002526 13645.70378291867382 
	75.02753163779004808 3487.379700848877292 13687.60015807200944 
	75.02753163742789866 3519.894393906212372 13733.42495455296557 
	75.02753163678153214 3547.073589208305748 13782.60228508103864 
	75.02753163616483789 3568.57584996921878 13834.51342914306406 
	75.0275316355245252 3584.130804244684896 13888.50569161770727 
	75.02753163476933196 3591.973797241990269 13934.66765612711424 
	75.02753163452777585 3594.72503687918379 13967.28966500433125 
	75.02753163445171936 3595.413389233252019 13983.63924656233939 
	75.02753163443264839 3595.585482980303368 13991.81886963958459 
	75.02753163442696405 3595.628512012393003 13995.90928365223408 
	75.02753163442537243 3595.639268649941187 13997.95456626827945 
	75.02753163442523032 3595.641957949508196 13998.9772169730204 
	75.02753163442514506 3595.642726295433022 13999.56159015838239 
	75.02753163442505979 3595.642854356278804 13999.85377697436161 
	75.02753163442508821 3595.642854355643067 13999.9998703821293 
	308.3608649957478747 3595.642854355642157 13999.9998703821293 
	308.3608649957482157 3595.642854350555353 14001.16861764426903 
	308.3608649957537295 3595.63465836487876 14003.50611214012497 
	308.3608649957587318 3595.585484094078311 14008.1808711791 
	308.3608649957832881 3595.413379756707855 14016.36049273471144 
	308.3608649958601404 3594.725075349538201 14032.71007816383099 
	308.3608649961001902 3592.759686439901088 14056.01148216314687 
	308.3608649963184121 3588.836906793007529 14083.79689316113399 
	308.3608649965527206 3581.53800725998417 14120.49267779395632 
	308.3608649973106708 3568.575884204215072 14165.48625774886932 
	308.3608649978695553 3547.073323817907749 14217.39726839616378 
	308.3608649985954457 3519.894272386973626 14266.57466383579776 
	308.3608649987229455 3492.798693764295422 14304.76194082599432 
	308.3608649989209312 3468.659411048611673 14333.34778172580081 
	308.3608649990211461 3449.381758119859114 14353.73868526465776 
	308.3608649991446669 3428.990859916893896 14373.01637808303531 
	308.3608649992356163 3401.992944218296088 14395.81433426254262 
	308.3608649996001532 3367.366106636020959 14420.70966611948279 
	308.3608649996249369 3324.126576182633926 14445.67373274788224 
	308.3608649997087241 3282.408950889366224 14464.49766704188914 
	308.360864999763578 3243.157813188251566 14478.23141060029047 
	308.3608649998458304 3194.95702365970692 14491.14841705123945 
	308.3608649999051181 3133.147771158920023 14500.46570264245202 
	308.3608650001130513 3058.137966114263236 14500.46570398234326 
	308.3608650002085483 3002.509485441207289 14492.08090081197406 
	308.3608650002230434 2970.741376217657944 14484.20141201768274 
	308.3608650002241234 2961.721291795839534 14481.73930630658651 
	308.360865000224976 2957.222965817518798 14480.46608830377227 
	308.3608650002252034 2952.736737814786466 14479.15088752257361 
	308.3608650002282729 2937.824283627200657 14474.62725536630023 
	308.3608650002602189 2912.80179447942146 14465.87148128236913 
	308.3608650002838658 2878.498454941830005 14450.90504822015464 
	308.3608650003124581 2845.409469969101792 14433.41697873823796 
	308.3608650003368439 2813.719894295551967 14413.50506241987023 
	308.3608650003467346 2783.606910810042336 14391.28073791079987 
	308.3608650003712341 2755.239000317419595 14366.86811679942548 
	308.3608650003855587 2728.774745555359459 14340.40386762317758 
	308.3608650004047149 2704.36216967719929 14312.03592554572424 
	308.3608650004136393 2682.137797649413187 14281.92295941454358 
	308.360865000418471 2662.225966354844786 14250.23336283801473 
	308.3608650004261449 2642.794654212156729 14213.46787990522171 
	308.3608650004312608 2625.016615525923953 14171.29395333846151 
	308.3608650004376273 2610.300148308606822 14123.58340810389564 
	308.3608650004439369 2602.055826162901667 14082.80121985466758 
	308.3608650004454717 2598.437939808520696 14053.92911922143139 
	308.3608650004455853 2597.170169609315963 14039.43893324641067 
	308.3608650004455853 2596.600761420014805 14031.14720797182235 
	308.3608650004451874 2595.435612779552685 14010.40176045991575 
	308.3608650004441074 2595.435937594779261 13983.35712440660609 
	308.3608650004428 2597.610505020067649 13954.34061081964501 
	308.3608650004422316 2599.471826070352108 13937.82167313007267 
	308.3608650004396736 2604.016185800137464 13904.8867589563306 
	308.3608650004272249 2616.070377663235377 13852.07137674073783 
	308.3608650004122751 2638.907746936727563 13793.88480393624195 
	308.3608650003968137 2662.226452458501626 13749.76679086666991 
	308.3608650003836829 2682.137810030805667 13718.07696993660829 
	308.3608650003702678 2704.362395453368208 13687.96412962017712 
	308.3608650003500884 2731.487203602877798 13656.4440854897166 
	308.3608650003298521 2764.25078305343186 13624.48698964652613 
	308.3608650003133675 2803.286751537269083 13593.35754035092214 
	308.3608650002897775 2852.217607166433481 13561.75283159972605 
	308.3608650002520903 2901.026192937230007 13538.24845657392507 
	308.3608650002301488 2948.127968372333726 13521.76851631155114 
	308.3608650002045692 2990.303622998766969 13510.46668307889558 
	308.3608650001459637 3039.543033372936407 13502.10057255162064 
	308.3608650000873013 3095.642845336103619 13498.94993125202745 
	308.3608650000102216 3142.392625465101446 13501.5756253766358 
	308.3608649999862337 3179.439850906076117 13506.80616778991316 
	308.3608649999601994 3203.903646079096688 13511.6722540722767 
	308.360864999949456 3225.082497157841772 13516.92470220951509 
	308.3608649999249565 3249.045420971695876 13523.82844782731445 
	308.3608649998916462 3290.259449189580664 13538.24852856423786 
	308.3608649997282214 3335.313594683190786 13559.94466138854477 
	308.3608649996130566 3377.565584595230575 13586.49532449567778 
	308.3608649995295536 3412.697764856459344 13612.42304118906941 
	308.3608649993005884 3449.938994845001616 13645.70378291867382 
	308.3608649991114703 3487.379700848876382 13687.60015807200944 
	308.3608649987501735 3519.894393906211462 13733.42495455296557 
	308.3608649981029544 3547.073589208304838 13782.60228508103864 
	308.360864997487397 3568.57584996921787 13834.51342914306406 
	308.3608649968464874 3584.130804244683986 13888.50569161770727 
	308.3608649960924026 3591.973797241989359 13934.66765612711424 
	308.3608649958499655 3594.725036879182881 13967.28966500433125 
	308.3608649957745911 3595.41338923325111 13983.63924656233939 
	308.3608649957552643 3595.585482980302459 13991.81886963958459 
	308.3608649957496937 3595.628512012392093 13995.90928365223408 
	308.3608649957481589 3595.639268649940277 13997.95456626827945 
	308.3608649957478747 3595.641957949507287 13998.9772169730204 
	308.3608649957478747 3595.642726295432112 13999.56159015838239 
	308.3608649957478178 3595.642854356277894 13999.85377697436161 
	308.3608649957478747 3595.642854355642157 13999.9998703821293 
	0 
	
	0 
	0 
	86 0 0.002232142857142857019 0.004464285714285714038 0.008928571428571428076 0.01785714285714285615 0.02678571428571428423 0.0357142857142857123 0.05357142857142856845 0.07142857142857142461 0.08928571428571427382 0.1071428571428571369 0.1160714285714285754 0.125 0.1339285714285714246 0.1428571428571428492 0.1587301587301587213 0.1746031746031745935 0.1904761904761904656 0.2023809523809523836 0.2142857142857142738 0.238095238095238082 0.2619047619047618625 0.2857142857142856984 0.2916666666666666297 0.2931547619047618625 0.2946428571428570953 0.2961309523809523281 0.2976190476190476164 0.3095238095238095344 0.3214285714285713969 0.3333333333333333148 0.3452380952380952328 0.3571428571428570953 0.3690476190476190133 0.3809523809523809312 0.3928571428571428492 0.4047619047619047672 0.4166666666666666297 0.4285714285714285476 0.4444444444444444198 0.4603174603174602919 0.476190476190476164 0.4880952380952380265 0.4900793650793650036 0.4920634920634920362 0.5079365079365079083 0.5158730158730158166 0.5198412698412697708 0.5238095238095237249 0.5476190476190475609 0.5714285714285713969 0.5833333333333332593 0.5952380952380951218 0.6071428571428569843 0.6190476190476189577 0.6349206349206348854 0.650793650793650702 0.6666666666666666297 0.6904761904761904656 0.7023809523809523281 0.7142857142857141906 0.7321428571428569843 0.749999999999999889 0.7678571428571427937 0.7767857142857141906 0.7857142857142855874 0.7916666666666665186 0.7976190476190474499 0.8095238095238094234 0.8333333333333332593 0.8452380952380951218 0.8571428571428570953 0.875 0.8928571428571427937 0.9107142857142856984 0.9285714285714286031 0.9464285714285713969 0.9642857142857143016 0.9821428571428572063 0.9910714285714286031 0.9955357142857143016 0.9977678571428572063 0.9988839285714286031 0.9994419642857143016 0.9997209821428572063 0.9998604910714286031 
	0 
	0 
	0 
	F 1 F 0 F 1 F 0 } I I I I #
tcoedge-coedge $-1 -1 $-1 $13 $13 $17 $18 reversed $8 $19 -6.283185307179586232 -0 #
tcoedge-coedge $-1 -1 $-1 $20 $21 $10 $15 reversed $11 $22 -6.283185307179586232 3.376247349170975974e-31 #
tedge-edge $-1 -1 $-1 $23 -3.376247349170975974e-31 $23 6.283185307179586232 $14 $24 forward @7 unknown 0.000740793316954622711 #
pcurve $-1 -1 $-1 0 forward { exppc nurbs 2 periodic 5 
	-3.376247349170975974e-31 2 1.570796326794896558 2 3.141592653589793116 2 4.712388980384689674 2 6.283185307179586232 2 
	0 500 1 
	-500 500 0.7071067811865463515 
	-500 0 1 
	-500 -500 0.7071067811865463515 
	0 -500 1 
	500 -500 0.7071067811865463515 
	500 0 1 
	500 500 0.707106781186543798 
	0 500 1 
	0 
	plane 308.3608650005609775 3095.642797989817154 14000.00000000000182 1 -3.897834435702128473e-15 -1.039422516187234417e-14 -1.039422516187234417e-14 0 -1 forward_v I I I I 
	} 0 0 #
tcoedge-coedge $-1 -1 $-1 $21 $20 $13 $18 forward $11 $25 0 6.283185307179586232 #
tedge-edge $-1 -1 $-1 $26 0 $26 6.283185307179586232 $17 $27 forward @7 unknown 0.0007407933160280269968 #
pcurve $-1 -1 $-1 0 forward { exppc nurbs 2 periodic 5 
	-6.283185307179586232 2 -4.712388980384689674 2 -3.141592653589793116 2 -1.570796326794896558 2 0 2 
	0 500 1 
	500 500 0.707106781186543798 
	500 0 1 
	500 -500 0.7071067811865463515 
	0 -500 1 
	-500 -500 0.7071067811865463515 
	-500 0 1 
	-500 500 0.7071067811865463515 
	0 500 1 
	0 
	plane -391.6391350834072114 3095.642797989819883 14000.00000000000182 -1 3.897834435702129261e-15 -0 0 0 -1 reverse_v I I I I 
	} 0 0 #
coedge $-1 -1 $-1 $17 $14 $21 $28 reversed $11 $29 #
coedge $-1 -1 $-1 $14 $17 $20 $28 forward $11 $30 #
pcurve $-1 -1 $-1 0 forward { exppc nubs 1 periodic 2 
	-6.283185307179586232 1 3.376247349170975974e-31 1 
	1 1 
	0 1 
	2.726396620975368931e-13 
	spline forward { ref 0 } I I I I 
	} 0 0 #
tvertex-vertex $-1 -1 $-1 $15 $31 0.0001413432062539454466 #
ellipse-curve $-1 -1 $-1 308.3608650005609775 3095.642797989817154 14000.00000000000182 1 -3.897834435702128473e-15 -1.039422516187234417e-14 1.948917217851064246e-12 500 0 1 I I #
pcurve $-1 -1 $-1 0 forward { exppc nubs 1 periodic 2 
	0 1 6.283185307179586232 1 
	0 0 
	1 0 
	4.4114023995510105e-13 
	spline forward { ref 0 } I I I I 
	} 0 0 #
tvertex-vertex $-1 -1 $-1 $18 $32 0.0001413432059415329429 #
ellipse-curve $-1 -1 $-1 -391.6391350834072114 3095.642797989819883 14000.00000000000182 1 -3.897834435702129261e-15 0 1.94891721785106465e-12 500 0 1 I I #
edge $-1 -1 $-1 $26 0 $23 1 $21 $33 forward @7 tangent #
pcurve $-1 -1 $-1 -1 $33 0 0 #
pcurve $-1 -1 $-1 1 $33 1 0 #
point $-1 -1 $-1 308.3608650005629102 3595.642797989817154 14000.00000000000182 #
point $-1 -1 $-1 -391.6391350834052787 3595.642797989819883 14000.00000000000182 #
intcurve-curve $-1 -1 $-1 forward { parcur full nubs 3 open 2 
	0 3 1 3 
	-391.6391350772898363 3595.642854355643976 13999.9998703821293 
	-158.3058017159670499 3595.642854355643067 13999.9998703821293 
	75.02753163442508821 3595.642854355643067 13999.9998703821293 
	308.3608649957478747 3595.642854355642157 13999.9998703821293 
	0 
	
	spline forward { ref 0 } I I I I 
	null_surface 
	nubs 1 open 2 
	0 1 1 1 
	0 0 
	0 1 
	
	nullbs 
	I I 
	0 
	0 
	0 
	surf1 } F 0 F 1 #
End-of-ACIS-data 