700 0 1 0           
4 LibG 19 ASM 222.0.0.1700 NT 24 Wed Oct  5 17:29:54 2016 
1000 9.999999999999999547e-07 1.000000000000000036e-10 
body $-1 -1 $-1 $1 $-1 $-1 #
lump $-1 -1 $-1 $-1 $2 $0 #
shell $-1 -1 $-1 $-1 $-1 $3 $-1 $1 #
face $-1 -1 $-1 $4 $5 $2 $-1 $6 forward single #
face $-1 -1 $-1 $7 $8 $2 $-1 $9 reversed single #
loop $-1 -1 $-1 $-1 $10 $3 #
plane-surface $-1 -1 $-1 8202.268679470143979 2385.739415595991886 14000.00000000000364 0.7646540461569918401 -0.6444409900803493851 0 0 0 -1 forward_v I I I I #
face $-1 -1 $-1 $-1 $11 $2 $-1 $12 forward single #
loop $-1 -1 $-1 $-1 $13 $4 #
plane-surface $-1 -1 $-1 7913.450685145324314 2583.436573348899856 14000 0.8251942694004980039 -0.564849022083404928 1.039422516187233155e-14 1.259609469831112047e-14 0 -1 forward_v I I I I #
tcoedge-coedge $-1 -1 $-1 $10 $10 $14 $15 forward $5 $16 -8.077935669463161056e-31 6.283185307179586232 #
loop $-1 -1 $-1 $-1 $17 $7 #
spline-surface $-1 -1 $-1 forward { exactsur full nubs 3 3 periodic open none none 86 2 
	-5.394492250026097007e-30 3 0.002232142857142857019 1 0.004464285714285714038 1 0.008928571428571428076 1 0.01785714285714285615 1 
	0.0357142857142857123 1 0.05357142857142856845 1 0.0625 1 0.07142857142857142461 1 0.08928571428571427382 1 
	0.1071428571428571369 1 0.125 1 0.1428571428571428492 1 0.1587301587301587213 1 0.1746031746031745935 1 
	0.1904761904761904656 1 0.2023809523809523836 1 0.2142857142857142738 1 0.238095238095238082 1 0.2619047619047618625 1 
	0.2857142857142856984 1 0.2976190476190476164 1 0.3095238095238095344 1 0.3214285714285713969 1 0.3273809523809523281 1 
	0.3333333333333333148 1 0.3452380952380952328 1 0.3571428571428570953 1 0.3690476190476190133 1 0.375 1 
	0.3809523809523809312 1 0.3928571428571428492 1 0.4047619047619047672 1 0.4166666666666666297 1 0.4285714285714285476 1 
	0.4444444444444444198 1 0.4603174603174602919 1 0.476190476190476164 1 0.4801587301587301182 1 0.4821428571428570953 1 
	0.4841269841269840724 1 0.4861111111111110494 1 0.4880952380952380265 1 0.4900793650793650036 1 0.4910714285714284921 1 
	0.4915674603174602364 1 0.491815476190476164 1 0.4920634920634920362 1 0.5158730158730158166 1 0.5238095238095237249 1 
	0.5357142857142855874 1 0.5476190476190475609 1 0.5595238095238095344 1 0.5714285714285713969 1 0.5952380952380951218 1 
	0.6190476190476189577 1 0.6349206349206348854 1 0.650793650793650702 1 0.6666666666666666297 1 0.6785714285714286031 1 
	0.6904761904761904656 1 0.7023809523809523281 1 0.7142857142857141906 1 0.7321428571428569843 1 0.749999999999999889 1 
	0.7678571428571427937 1 0.7857142857142855874 1 0.7976190476190474499 1 0.8095238095238094234 1 0.8333333333333332593 1 
	0.8452380952380951218 1 0.8571428571428570953 1 0.875 1 0.8928571428571427937 1 0.9107142857142856984 1 
	0.9285714285714286031 1 0.9464285714285713969 1 0.9642857142857143016 1 0.9821428571428572063 1 0.9910714285714286031 1 
	0.9955357142857143016 1 0.9977678571428572063 1 0.9988839285714286031 1 0.9994419642857143016 1 0.9997209821428572063 1 
	1 3 
	0 3 1 3 
	8195.875242352094574 2996.033775503074139 13999.99988113208747 
	8195.875242327138039 2996.03377546661477 14002.33737566862146 
	8195.856722812808584 2996.006720100454913 14007.01236440564389 
	8195.745627289272306 2995.844419404492783 14016.36050439297833 
	8195.356813482359939 2995.276396954464417 14032.71008747406086 
	8193.802752586767383 2993.006051967561689 14065.33208017179459 
	8189.372687626545485 2986.534120396167509 14111.49407380389857 
	8182.050696926115052 2975.837342087052093 14156.48751359001471 
	8174.513767443673714 2964.826557302325909 14191.44193241754692 
	8165.882085161978466 2952.216435878973698 14225.59355269392654 
	8153.088700043849713 2933.52643612043812 14266.5747059583282 
	8134.722797951797475 2906.695483836447238 14312.39945158330374 
	8113.57449186348822 2875.799686357926021 14354.29598452890423 
	8090.785815979445033 2842.507454254140157 14390.34991193859969 
	8066.933268374676118 2807.661000024810619 14420.7097108287544 
	8042.509512861870462 2771.980061759045384 14445.6738970311053 
	8018.945328362879081 2737.554880424716885 14464.49778627493652 
	7996.774368631822654 2705.165076774628687 14478.23158473811418 
	7969.548197415086179 2665.390057986494867 14491.14854784383715 
	7934.635291969319042 2614.385402980179606 14500.46604045658387 
	7892.266096493263831 2552.487770269305656 14500.46566563604574 
	7857.353148759687429 2501.483053484333595 14491.14874925468393 
	7830.126918248367474 2461.707948072193176 14478.23209915562984 
	7810.173113496029146 2432.557210989177293 14465.87138358143602 
	7794.026284006034984 2408.968126750417923 14453.39921762198719 
	7781.451756514432418 2390.597858553449896 14442.16089130328692 
	7769.123334727180008 2372.587128939266677 14430.09814540007937 
	7754.206792396253149 2350.795385005166736 14413.50494294036434 
	7737.197518593987297 2325.946346200948028 14391.280582769592 
	7723.844539178229752 2306.438828860111244 14370.93674503842885 
	7713.699764252903151 2291.618213429383559 14353.63591506553348 
	7703.927403878812584 2277.341662592053581 14335.6757632866229 
	7692.436217077870424 2260.554058956483914 14312.03585075145384 
	7679.882776703260788 2242.214597165328541 14281.92291618070885 
	7668.635632338428877 2225.783517860828852 14250.23329319257027 
	7657.659843249558435 2209.748864521540327 14213.46785081235976 
	7647.617993869196653 2195.078614173869937 14171.29388000649124 
	7639.305319126873655 2182.934534442001677 14123.58341468741855 
	7635.114207647108742 2176.811692692117049 14086.87943495318541 
	7633.349308007172112 2174.23333102036986 14064.2367174138526 
	7632.794601854094253 2173.422954582044895 14055.98368681005377 
	7632.422199057685248 2172.878907161444658 14049.78521052057658 
	7632.0934678371259 2172.398660035646117 14043.57899802144129 
	7631.808466789056183 2171.982298809139138 14037.36601222960962 
	7631.607438821771211 2171.688614797848004 14032.18368475916941 
	7631.485889538632364 2171.511042087321584 14028.55393787933463 
	7631.429904322269067 2171.429252657035704 14026.73858769493563 
	7631.399288242371767 2171.384525282650884 14025.70111643056771 
	7630.671202059906136 2170.320856015286154 14000.28101235393115 
	7631.145018450099087 2171.01305969156374 13966.69374172849894 
	7634.357060103616277 2175.705567356220854 13921.32340073955129 
	7637.850324332025593 2180.808916233389027 13888.63574808971498 
	7643.32181004215272 2188.802271052939886 13852.48487469086285 
	7650.304055556591265 2199.002711809145239 13817.15916241581544 
	7661.575173357096901 2215.468814174420004 13771.42092719390166 
	7679.228205931891353 2241.25832738667259 13717.28687909217842 
	7702.710258452426388 2275.563521192399094 13665.15911928503192 
	7726.264458405151345 2309.974115990524751 13624.48756129899266 
	7748.313663936370176 2342.186047564836826 13593.35744827574854 
	7770.030023534155589 2373.911720783146393 13568.52639431023272 
	7790.79704641670105 2404.250497350257319 13549.09551321202707 
	7810.173197408925262 2432.557333578531143 13534.12891260916876 
	7830.126993697387661 2461.708058296568197 13521.76812937448813 
	7853.94996369774708 2496.511302271196655 13510.46656609169986 
	7881.762749198576785 2537.143312443928153 13502.10031368240561 
	7913.450703794829678 2583.436600596367043 13498.94997817747026 
	7945.138597010226476 2629.729799076736526 13502.10035337657973 
	7972.9514643266657 2670.361928774950684 13510.46652145891494 
	7996.774276613677102 2705.164942344482824 13521.76858284544141 
	8023.37969185444399 2744.033091767449605 13538.24841661037317 
	8048.828481102962542 2781.211513310534883 13559.94463389958946 
	8072.694476103821216 2816.077612991001388 13586.49528499946791 
	8092.538859249736561 2845.068494822568937 13612.42300448633796 
	8113.574517712241686 2875.79972412089819 13645.70376977745582 
	8134.722901271957198 2906.695634777627674 13687.600101780361 
	8153.088706114502202 2933.526444988596268 13733.42502360410072 
	8168.440854138127179 2955.954570163828976 13782.60232456340418 
	8180.586505247956666 2973.698288047251481 13834.5134006090102 
	8189.372654260560921 2986.534071651126851 13888.50570168325248 
	8193.802783852350331 2993.006097643726662 13934.66766054245636 
	8195.35681309949905 2995.276396395138818 13967.28967534433468 
	8195.745629338238359 2995.844422397858125 13983.6392569713862 
	8195.842836143001477 2995.986432908860024 13991.81888034123949 
	8195.867141076372718 2996.021940258535324 13995.90929437863451 
	8195.873216965015672 2996.030816592382052 13997.95457701139094 
	8195.874952994821797 2996.033352777789787 13999.12332067563693 
	8195.875242355214141 2996.033775507631617 13999.70769431502231 
	8195.875242352094574 2996.033775503074139 13999.99988113208747 
	8305.41323522723178 2920.044685634919915 13999.99988113208929 
	8305.413235632709984 2920.04468527105837 14002.33737566862328 
	8305.39384465301373 2920.018292769620984 14007.01236440564571 
	8305.277533854821741 2919.859958980117881 14016.36050439298015 
	8304.870453127832661 2919.305830939880707 14032.71008747406268 
	8303.243405319439262 2917.091002157765615 14065.33208017179641 
	8298.605259333222421 2910.777343739852313 14111.49407380390039 
	8290.939362218070528 2900.342151764710252 14156.48751359001653 
	8283.048421775240058 2889.600639157968544 14191.44193241754874 
	8274.011319658960929 2877.298893163829689 14225.59355269392836 
	8260.617033946171432 2859.065957818494553 14266.57470595833001 
	8241.388497838714102 2832.891152846655586 14312.39945158330556 
	8219.246864416569224 2802.750912242247523 14354.29598452890605 
	8195.387816913553252 2770.272839385894258 14390.34991193860151 
	8170.414928658866302 2736.278552463917094 14420.70971082875622 
	8144.844003513459029 2701.470188496836727 14445.67389703110712 
	8120.173021226917626 2667.886873331042352 14464.49778627493833 
	8096.960702767038129 2636.289160786453522 14478.231584738116 
	8068.455734361528812 2597.486836470385242 14491.14854784383897 
	8031.902984526877844 2547.729500105462193 14500.46604045658569 
	7987.543733444700592 2487.345568006516714 14500.46566563604756 
	7950.990941807976924 2437.58816949346965 14491.14874925468575 
	7922.485913829763376 2398.785758764942784 14478.23209915563166 
	7901.594886502475674 2370.34790346314503 14465.87138358143784 
	7884.689651518311621 2347.335686954655557 14453.39921762198901 
	7871.52450470687927 2329.414662900963322 14442.16089130328874 
	7858.617023611141121 2311.844384511811768 14430.09814540008119 
	7842.99985988397475 2290.585555855534494 14413.50494294036616 
	7825.191670140090537 2266.344198337199032 14391.28058276959382 
	7811.211508151349335 2247.313736331699147 14370.93674503843067 
	7800.590239674556869 2232.855557296323695 14353.6359150655353 
	7790.358875775388697 2218.928139375003866 14335.67576328662471 
	7778.327955072989425 2202.55107478889613 14312.03585075145565 
	7765.184886448278121 2184.660103301350773 14281.92291618071067 
	7753.409469330488719 2168.630845326344115 14250.23329319257209 
	7741.918154090354619 2152.988317839334741 14213.46785081236158 
	7731.404642790587786 2138.676828791514708 14171.29388000649305 
	7722.70152684624918 2126.829731256824743 14123.58341468742037 
	7718.313558142415786 2120.856625473923941 14086.87943495318723 
	7716.465768824838051 2118.341312369956995 14064.23671741385442 
	7715.885005701979026 2117.550755704999574 14055.98368681005559 
	7715.495113012696493 2117.020011662186789 14049.7852105205784 
	7715.150940358907974 2116.551509789564079 14043.57899802144311 
	7714.852554048321508 2116.145329826334091 14037.36601222961144 
	7714.642082632840356 2115.858828806949987 14032.18368475917123 
	7714.514825933465545 2115.685597341674111 14028.55393787933644 
	7714.456208829629759 2115.605809810062055 14026.73858769493745 
	7714.42415810471357 2115.562173673045436 14025.70111643056953 
	7713.661846563512881 2114.524537319686715 14000.28101235393297 
	7714.157934943864348 2115.199800200426125 13966.69374172850075 
	7717.520839132565015 2119.777556944997286 13921.32340073955311 
	7721.178182874811682 2124.756101640947236 13888.6357480897168 
	7726.90665897533745 2132.553981263720289 13852.48487469086467 
	7734.2168621514802 2142.50496682295443 13817.15916241581726 
	7746.017369422117554 2158.568398447561776 13771.42092719390348 
	7764.499563978361948 2183.727224258493152 13717.28687909218024 
	7789.084552455589801 2217.193489329048589 13665.15911928503374 
	7813.745085559407016 2250.762571376145843 13624.48756129899448 
	7836.829924692212444 2282.186766561770128 13593.35744827575036 
	7859.56629414658164 2313.136587316793339 13568.52639431023454 
	7881.308731501808325 2342.733432110922877 13549.09551321202889 
	7901.594971693111802 2370.34802508060784 13534.12891260917058 
	7922.4859871846229 2398.785870582202733 13521.76812937448994 
	7947.427910489686838 2432.738002509087892 13510.46656609170168 
	7976.547047463761373 2472.376359530438549 13502.10031368240743 
	8009.72336969789194 2517.537547153977812 13498.94997817747208 
	8042.899625730138723 2562.698648772476645 13502.10035337658155 
	8072.018850486515475 2602.337120780851365 13510.46652145891676 
	8096.960607517186872 2636.289028814446283 13521.76858284544323 
	8124.815669820420226 2674.20665629353789 13538.24841661037499 
	8151.459766519386903 2710.475888357886561 13559.94463389959128 
	8176.446730397374267 2744.489342881080574 13586.49528499946973 
	8197.223198573539776 2772.771250713972222 13612.42300448633978 
	8219.246888707926701 2802.750951189825173 13645.70376977745764 
	8241.388602700588308 2832.891302615157656 13687.60010178036282 
	8260.617038450043765 2859.065967878394986 13733.42502360410253 
	8276.690271853525701 2880.945612208477087 13782.602324563406 
	8289.406392170723848 2898.255412775406512 13834.51340060901202 
	8298.605224220063974 2910.777296323768041 13888.5057016832543 
	8303.243437639874173 2917.091047031577091 13934.66766054245818 
	8304.870452162358561 2919.305830823710039 13967.2896753443365 
	8305.277536319472347 2919.859961657300119 13983.63925697138802 
	8305.379305667007429 2919.998501750810647 13991.81888034124131 
	8305.404753884044112 2920.033139481978651 13995.90929437863633 
	8305.411114459251621 2920.04179927402447 13997.95457701139276 
	8305.412932078448648 2920.044273399903886 13999.12332067563875 
	8305.41323517654746 2920.044685680402836 13999.70769431502413 
	8305.41323522723178 2920.044685634919915 13999.99988113208929 
	8414.951234306290644 2844.055591047831967 13999.99988113208383 
	8414.951233847381445 2844.055591341450054 14002.33737566861782 
	8414.930976243416808 2844.029858022445296 14007.01236440564026 
	8414.809441702840559 2843.875497580229421 14016.36050439297469 
	8414.384107687277719 2843.335253581221878 14032.71008747405722 
	8412.684053480990769 2841.175955824885477 14065.33208017179277 
	8407.837836212140246 2835.020563149338614 14111.49407380389312 
	8399.828021983053986 2824.846965646342142 14156.48751359001108 
	8391.583086839336829 2814.374712850082233 14191.44193241754328 
	8382.140547912878901 2802.381355197345329 14225.5935526939229 
	8368.14536805111311 2784.605479362415736 14266.57470595832638 
	8348.054190224363992 2759.086827562556664 14312.39945158330011 
	8324.919237643929591 2729.702137613679042 14354.29598452890241 
	8299.989817681129352 2698.038224644310503 14390.34991193859787 
	8273.896586573941022 2664.896106705041802 14420.70971082875258 
	8247.178488553072384 2630.960319503270966 14445.67389703110348 
	8221.400710471194543 2598.218868990667943 14464.4977862749347 
	8197.14703516168629 2567.413246122201144 14478.23158473811418 
	8167.363265099657838 2529.58361967651399 14491.14854784384079 
	8129.170682640974519 2481.07359300425469 14500.46604045658751 
	8082.821367523233675 2422.203367928947955 14500.46566563604938 
	8044.628736332303561 2373.69328437987906 14491.14874925468939 
	8014.844898898715655 2335.863577453791549 14478.23209915563348 
	7993.016658159174767 2308.138596963767668 14465.8713835814433 
	7975.353010367658499 2285.70325374819322 14453.39921762199265 
	7961.597245734144963 2268.231472698540983 14442.16089130329419 
	7948.110705152947958 2251.101645669034042 14430.09814540008665 
	7931.792918209108393 2230.375733675259198 14413.50494294037344 
	7913.185810910660621 2206.742058669664857 14391.2805827696011 
	7898.578467196482052 2188.188651354830199 14370.93674503843613 
	7887.480701890412092 2174.092911208016631 14353.63591506554258 
	7876.790337445142541 2160.514623936800945 14335.67576328663199 
	7864.219679879732212 2144.548100652810263 14312.03585075146475 
	7850.486982645267744 2127.105619742435465 14281.92291618071613 
	7838.183293994964515 2111.47818216861333 14250.23329319257755 
	7826.176450254813062 2096.227782320419919 14213.46785081236703 
	7815.191281934826293 2082.275050845969417 14171.29388000649487 
	7806.097722754951974 2070.724937055219016 14123.58341468742583 
	7801.512905715817396 2064.901560478214378 14086.87943495318905 
	7799.582206581441824 2062.449311260520062 14064.23671741385806 
	7798.975394645522101 2061.678568164665649 14055.98368681005741 
	7798.568007062391189 2061.161131303540515 14049.78521052058022 
	7798.208396287040159 2060.704372165132554 14043.57899802144311 
	7797.896621461799441 2060.308375938862355 14037.36601222961326 
	7797.676710414890294 2060.029055008226806 14032.18368475916941 
	7797.543741233831497 2059.860168641147084 14028.55393787933826 
	7797.482499118069427 2059.782377778443788 14026.73858769493563 
	7797.449003620572512 2059.739840582147281 14025.70111643056953 
	7796.652549342879865 2058.728174297645637 14000.28101235393297 
	7797.170858448988838 2059.386535376210304 13966.69374172850075 
	7800.68464119500095 2063.849529013746633 13921.32340073955311 
	7804.50605615834229 2068.703275836208832 13888.6357480897168 
	7810.491529736860684 2076.305674871150131 13852.48487469086467 
	7818.129674584642089 2086.007217395974294 13817.15916241581726 
	7830.459598011720118 2101.667957981443578 13771.4209271939053 
	7849.770929056942805 2126.196115781456683 13717.28687909218024 
	7875.458863906079387 2158.823444194689728 13665.15911928503556 
	7901.225715171721276 2191.551024892082751 13624.48756129899448 
	7925.346205219972944 2222.187470519535964 13593.35744827575218 
	7949.102572294194033 2252.361448118929729 13568.52639431023636 
	7971.82042852610175 2281.216357790252914 13549.09551321203253 
	7993.01675261834589 2308.138711531283661 13534.1289126091724 
	8014.844987073278389 2335.863677998706407 13521.76812937449358 
	8040.905860188491715 2368.964700535918837 13510.46656609170532 
	8071.331349126222449 2407.609404032866223 13502.10031368241107 
	8105.99603484464933 2451.638494286853529 13498.94997817747389 
	8140.660655354162373 2495.667497780516442 13502.10035337658519 
	8171.086231669330118 2534.312316572440523 13510.46652145891858 
	8197.146933409114354 2567.413119096376249 13521.76858284544505 
	8226.251627894453122 2604.380235950075985 13538.24841661037499 
	8254.091057689694935 2639.740259028642868 13559.94463389959128 
	8280.199002816680149 2672.901058984119118 13586.49528499946973 
	8301.907541071797823 2700.474004190777123 13612.4230044863416 
	8324.919268692390688 2729.702171421586172 13645.70376977745946 
	8348.054306561436533 2759.086968602654906 13687.60010178036282 
	8368.14537654389278 2784.605486388230474 13733.42502360410072 
	8384.939685695024309 2805.936657199727051 13782.602324563406 
	8398.226291777573351 2822.812527855625831 13834.51340060901202 
	8407.837799891751274 2835.020516651515209 13888.50570168325066 
	8412.684088097299536 2841.175998952383452 13934.66766054246 
	8414.384107833080634 2843.335252619777293 13967.28967534433286 
	8414.809443624839332 2843.875500670169913 13983.6392569713862 
	8414.915785141485685 2844.01056302408324 13991.81888034123767 
	8414.942371560295214 2844.044335002198295 13995.90929437863451 
	8414.949018906077981 2844.052776667273065 13997.95457701139094 
	8414.950917967660644 2844.055188845440625 13999.12332067563329 
	8414.951234363654294 2844.055591011129309 13999.70769431501685 
	8414.951234306290644 2844.055591047831967 13999.99988113208383 
	8524.489227181429669 2768.066501179678198 13999.99988113208565 
	8524.489227152955209 2768.066501145894108 14002.33737566861964 
	8524.468098083623772 2768.041430691612277 14007.01236440564207 
	8524.341348268391812 2767.891037155855429 14016.36050439297651 
	8523.89774733275226 2767.364687566639077 14032.71008747405904 
	8522.124706213664467 2765.260906015090768 14065.33208017179459 
	8517.070407918816272 2759.263786493024782 14111.49407380389493 
	8508.716687275007644 2749.351775324002574 14156.4875135900129 
	8500.117741170901354 2739.148794705727596 14191.4419324175451 
	8490.269782409859545 2727.463812482204503 14225.59355269392472 
	8475.673701953432101 2710.145001060475806 14266.5747059583282 
	8454.719890111276982 2685.282496572769105 14312.39945158330192 
	8430.591610197006958 2656.653363498005092 14354.29598452890423 
	8404.591818615232114 2625.803609776069607 14390.34991193859969 
	8377.378246858126658 2593.513659144153735 14420.7097108287544 
	8349.512979204655494 2560.450446241067766 14445.6738970311053 
	8322.628403335227631 2528.550861896999322 14464.49778627493652 
	8297.333369296895398 2498.53733013403189 14478.231584738116 
	8266.270802046094104 2461.680398160410277 14491.14854784384261 
	8226.438375198526046 2414.417690129543189 14500.46604045658933 
	8178.099004474663161 2357.06116566616538 14500.4656656360512 
	8138.26652938058578 2309.798400389021026 14491.14874925469121 
	8107.203894480105191 2272.941388146546615 14478.2320991556353 
	8084.438431165614929 2245.929289437740863 14465.87138358144512 
	8066.016377879928768 2224.070813952436311 14453.39921762199447 
	8051.669993926586358 2207.048277046059411 14442.16089130329601 
	8037.604394036903614 2190.358901241584135 14430.09814540008847 
	8020.585985696823627 2170.165904525631959 14413.50494294037526 
	8001.179962456758403 2147.139910805920863 14391.28058276960292 
	7985.945436169596178 2129.06355882642265 14370.93674503843795 
	7974.371177312061263 2115.33025507496086 14353.6359150655444 
	7963.221809341714106 2102.101100719755323 14335.67576328663381 
	7950.111417874847575 2086.545116485226117 14312.03585075146657 
	7935.789092390281439 2069.55112587846088 14281.92291618071795 
	7922.957130987021628 2054.325509634131322 14250.23329319257937 
	7910.434761095606518 2039.467235638216607 14213.46785081236885 
	7898.977930856215607 2025.873265463616235 14171.29388000649669 
	7889.493930474326589 2014.620133870043219 14123.58341468742765 
	7884.712256211124441 2008.946493260022635 14086.87943495319087 
	7882.698667399107762 2006.557292610108107 14064.23671741385988 
	7882.065798493406874 2005.80636928762101 14055.98368681005923 
	7881.640921017402434 2005.3022358042831 14049.78521052058204 
	7881.265868808822233 2004.857221919050971 14043.57899802144493 
	7880.940708721065675 2004.471406956057535 14037.36601222961508 
	7880.711354225960349 2004.199269017328788 14032.18368475917123 
	7880.572677628665588 2004.034723895500292 14028.55393787934008 
	7880.508803625431028 2003.958934931470139 14026.73858769493745 
	7880.473873482915224 2003.917488972542287 14025.70111643057135 
	7879.64319384648752 2002.931855602045971 14000.28101235393478 
	7880.183774942755917 2003.573275885072007 13966.69374172850257 
	7883.848420223952417 2007.921518602522383 13921.32340073955493 
	7887.833914701132016 2012.650461243765676 13888.63574808971862 
	7894.076378670049053 2020.057385081928487 13852.48487469086649 
	7902.042481179535571 2029.509472409781665 13817.15916241581908 
	7914.901794076746228 2044.767542254582622 13771.42092719390712 
	7935.042287103418857 2068.665012653274061 13717.28687909218206 
	7961.833157909250076 2100.45341233133513 13665.15911928503738 
	7988.706342325985133 2132.339480277699749 13624.4875612989963 
	8013.862465975823397 2162.188189516464263 13593.357448275754 
	8038.638842906629179 2191.586314652572128 13568.52639431023817 
	8062.332113611218119 2219.699292550913469 13549.09551321203435 
	8084.438526902541525 2245.929403033354902 13534.12891260917422 
	8107.203980560523632 2272.941490284335941 13521.7681293744954 
	8134.383806980440568 2305.191400773804617 13510.46656609170714 
	8166.115647391417042 2342.842451119371162 13502.10031368241289 
	8202.268700747721596 2385.739440844458841 13498.94997817747571 
	8238.421684074084624 2428.636347476251103 13502.10035337658701 
	8270.153617829189898 2466.287508578335746 13510.4665214589204 
	8297.333264312634128 2498.537205566334706 13521.76858284544687 
	8327.687605860439362 2534.553800476159267 13538.24841661037681 
	8356.722343106128392 2569.004634075989998 13559.9446338995931 
	8383.951257110242295 2601.312788874193757 13586.49528499947155 
	8406.591880395608314 2628.176760082176315 13612.42300448634342 
	8430.591639688083887 2656.653398490509062 13645.70376977746128 
	8454.720007990074009 2685.282636440181705 13687.60010178036464 
	8475.67370887944162 2710.145009278026464 13733.42502360410253 
	8493.189103410428288 2730.927699244373343 13782.60232456340782 
	8507.04617870034599 2747.369652583779498 13834.51340060901384 
	8517.070369851257055 2759.263741324155944 13888.50570168325248 
	8522.124741884825198 2765.260948340233426 13934.66766054246182 
	8523.897746895941964 2767.364687048348969 13967.28967534433468 
	8524.341350606075139 2767.891039929612361 13983.63925697138802 
	8524.452254665493456 2768.022631866034772 13991.81888034123949 
	8524.479984367968427 2768.055534225642077 13995.90929437863633 
	8524.486916400315749 2768.063759348915937 13997.95457701139276 
	8524.488897051289314 2768.066109467555179 13999.12332067563511 
	8524.489227184989431 2768.066501183900982 13999.70769431501867 
	8524.489227181429669 2768.066501179678198 13999.99988113208565 
	0 
	
	0 
	0 
	85 -5.394492250026097007e-30 0.002232142857142857019 0.004464285714285714038 0.008928571428571428076 0.01785714285714285615 0.0357142857142857123 0.05357142857142856845 0.0625 0.07142857142857142461 0.08928571428571427382 0.1071428571428571369 0.125 0.1428571428571428492 0.1587301587301587213 0.1746031746031745935 0.1904761904761904656 0.2023809523809523836 0.2142857142857142738 0.238095238095238082 0.2619047619047618625 0.2857142857142856984 0.2976190476190476164 0.3095238095238095344 0.3214285714285713969 0.3273809523809523281 0.3333333333333333148 0.3452380952380952328 0.3571428571428570953 0.3690476190476190133 0.375 0.3809523809523809312 0.3928571428571428492 0.4047619047619047672 0.4166666666666666297 0.4285714285714285476 0.4444444444444444198 0.4603174603174602919 0.476190476190476164 0.4801587301587301182 0.4821428571428570953 0.4841269841269840724 0.4861111111111110494 0.4880952380952380265 0.4900793650793650036 0.4910714285714284921 0.4915674603174602364 0.491815476190476164 0.4920634920634920362 0.5158730158730158166 0.5238095238095237249 0.5357142857142855874 0.5476190476190475609 0.5595238095238095344 0.5714285714285713969 0.5952380952380951218 0.6190476190476189577 0.6349206349206348854 0.650793650793650702 0.6666666666666666297 0.6785714285714286031 0.6904761904761904656 0.7023809523809523281 0.7142857142857141906 0.7321428571428569843 0.749999999999999889 0.7678571428571427937 0.7857142857142855874 0.7976190476190474499 0.8095238095238094234 0.8333333333333332593 0.8452380952380951218 0.8571428571428570953 0.875 0.8928571428571427937 0.9107142857142856984 0.9285714285714286031 0.9464285714285713969 0.9642857142857143016 0.9821428571428572063 0.9910714285714286031 0.9955357142857143016 0.9977678571428572063 0.9988839285714286031 0.9994419642857143016 0.9997209821428572063 
	0 
	0 
	0 
	F 1 F 0 F 1 F 0 } I I I I #
tcoedge-coedge $-1 -1 $-1 $13 $13 $17 $18 reversed $8 $19 -6.283185307179586232 -1.394390175269346645e-29 #
tcoedge-coedge $-1 -1 $-1 $20 $21 $10 $15 reversed $11 $22 -6.283185307179586232 8.077935669463161056e-31 #
tedge-edge $-1 -1 $-1 $23 -8.077935669463161056e-31 $23 6.283185307179586232 $14 $24 forward @7 unknown 0.0006476925882461419606 #
pcurve $-1 -1 $-1 0 forward { exppc nurbs 2 periodic 5 
	-8.077935669463161056e-31 2 1.570796326794896558 2 3.141592653589793116 2 4.712388980384689674 2 6.283185307179586232 2 
	0 500.000000000001819 1 
	-500 500.000000000001819 0.7071067811865398012 
	-500 0 1 
	-500 -500 0.7071067811865431318 
	0 -500 1 
	500 -500 0.7071067811865464625 
	500 0 1 
	500 500.000000000001819 0.7071067811865398012 
	0 500.000000000001819 1 
	0 
	plane 8202.268679470143979 2385.739415595991886 14000.00000000000364 0.7646540461569918401 -0.6444409900803493851 0 0 0 -1 forward_v I I I I 
	} 0 0 #
tcoedge-coedge $-1 -1 $-1 $21 $20 $13 $18 forward $11 $25 1.394390175269346645e-29 6.283185307179586232 #
tedge-edge $-1 -1 $-1 $26 1.394390175269346645e-29 $26 6.283185307179586232 $17 $27 forward @7 unknown 0.0006476925237222441257 #
pcurve $-1 -1 $-1 0 forward { exppc nurbs 2 periodic 5 
	-6.283185307179586232 2 -4.712388980384689674 2 -3.141592653589793116 2 -1.570796326794896558 2 -1.394390175269346645e-29 2 
	3.637978807091712952e-12 500.0000000000009095 1 
	500.000000000003638 499.999999999996362 0.70710678118654402 
	500 -4.54747350886464119e-12 1 
	499.999999999996362 -500.000000000003638 0.7071067811865462405 
	-3.637978807091712952e-12 -500 1 
	-500.000000000003638 -499.9999999999972715 0.7071067811865460184 
	-500 2.728484105318784714e-12 1 
	-499.999999999996362 500.000000000001819 0.7071067811865455743 
	3.637978807091712952e-12 500.0000000000009095 1 
	0 
	plane 7913.450685145324314 2583.436573348899856 14000 -0.8251942694004980039 0.564849022083404928 -1.039422516187233155e-14 1.259609469831112047e-14 0 -1 reverse_v I I I I 
	} 0 0 #
coedge $-1 -1 $-1 $17 $14 $21 $28 reversed $11 $29 #
coedge $-1 -1 $-1 $14 $17 $20 $28 forward $11 $30 #
pcurve $-1 -1 $-1 0 forward { exppc nubs 1 periodic 2 
	-6.283185307179586232 1 8.077935669463161056e-31 1 
	1 1 
	0 1 
	6.551630145361148617e-12 
	spline forward { ref 0 } I I I I 
	} 0 0 #
tvertex-vertex $-1 -1 $-1 $15 $31 0.0001442592439407327555 #
ellipse-curve $-1 -1 $-1 8202.268679470143979 2385.739415595991886 14000.00000000000364 0.7646540461569918401 -0.6444409900803493851 0 322.2204950401747396 382.3270230784959267 4.038967834731580444e-28 1 I I #
pcurve $-1 -1 $-1 0 forward { exppc nubs 1 periodic 2 
	1.394390175269346645e-29 1 6.283185307179586232 1 
	-5.394492250026097007e-30 3.088831583963815673e-15 
	1 3.088831583963815673e-15 
	1.290477828438598457e-11 
	spline forward { ref 0 } I I I I 
	} 0 0 #
tvertex-vertex $-1 -1 $-1 $18 $32 0.0001442595896882339955 #
ellipse-curve $-1 -1 $-1 7913.450685145324314 2583.436573348899856 14000 0.8251942694004980039 -0.564849022083404928 1.039422516187233155e-14 282.4245110417024307 412.5971347002490006 2.777511655085847595e-28 1 I I #
edge $-1 -1 $-1 $26 1.292855489719927594e-09 $23 0.9999999808739832297 $21 $33 forward @7 tangent #
pcurve $-1 -1 $-1 -1 $33 0 0 #
pcurve $-1 -1 $-1 1 $33 1 0 #
point $-1 -1 $-1 8524.489174510319572 2768.066438674487927 14000.00000000000364 #
point $-1 -1 $-1 8195.875196187025722 2996.033708049148572 14000 #
intcurve-curve $-1 -1 $-1 forward { parcur full nubs 3 open 2 
	0 3 1 3 
	8195.875242352094574 2996.033775503074139 13999.99988113208747 
	8305.41323522723178 2920.044685634919915 13999.99988113208929 
	8414.951234306290644 2844.055591047831967 13999.99988113208383 
	8524.489227181429669 2768.066501179678198 13999.99988113208565 
	0 
	
	spline forward { ref 0 } I I I I 
	null_surface 
	nubs 1 open 2 
	0 1 1 1 
	-5.394492250026097007e-30 0 
	-5.394492250026097007e-30 1 
	
	nullbs 
	I I 
	0 
	0 
	0 
	surf1 } F 1.292855489719927594e-09 F 0.9999999808739832297 #
End-of-ACIS-data 