700 0 1 0           
4 LibG 19 ASM 222.0.0.1700 NT 24 Wed Oct  5 17:29:54 2016 
1000 9.999999999999999547e-07 1.000000000000000036e-10 
body $-1 -1 $-1 $1 $-1 $-1 #
lump $-1 -1 $-1 $-1 $2 $0 #
shell $-1 -1 $-1 $-1 $-1 $3 $-1 $1 #
face $-1 -1 $-1 $4 $5 $2 $-1 $6 forward single #
face $-1 -1 $-1 $7 $8 $2 $-1 $9 reversed single #
loop $-1 -1 $-1 $-1 $10 $3 #
plane-surface $-1 -1 $-1 6606.610865756065323 3060.686575363582961 14000.00000000001091 0.9800499999999994216 -0.1987510943366142813 -5.197112580936171297e-15 -5.302905546590658373e-15 0 -1 forward_v I I I I #
face $-1 -1 $-1 $-1 $11 $2 $-1 $12 forward single #
loop $-1 -1 $-1 $-1 $13 $4 #
plane-surface $-1 -1 $-1 6258.360865714291322 3095.642797989794417 14000.00000000001091 0.9949999999999996625 -0.09987492177719513309 0 0 0 -1 forward_v I I I I #
tcoedge-coedge $-1 -1 $-1 $10 $10 $14 $15 forward $5 $16 -4.431324709573947964e-31 6.283185307179586232 #
loop $-1 -1 $-1 $-1 $17 $7 #
spline-surface $-1 -1 $-1 forward { exactsur full nubs 3 3 periodic open none none 87 2 
	0 3 0.002232142857142857019 1 0.004464285714285714038 1 0.008928571428571428076 1 0.01785714285714285615 1 
	0.02678571428571428423 1 0.0357142857142857123 1 0.05357142857142856845 1 0.07142857142857142461 1 0.08928571428571427382 1 
	0.1071428571428571369 1 0.125 1 0.1428571428571428492 1 0.1587301587301587213 1 0.1746031746031745935 1 
	0.1904761904761904656 1 0.2023809523809523836 1 0.2142857142857142738 1 0.238095238095238082 1 0.2619047619047618625 1 
	0.2857142857142856984 1 0.2976190476190476164 1 0.3095238095238095344 1 0.3214285714285713969 1 0.3273809523809523281 1 
	0.3333333333333333148 1 0.3452380952380952328 1 0.3571428571428570953 1 0.3690476190476190133 1 0.375 1 
	0.3809523809523809312 1 0.3869047619047618625 1 0.3898809523809523281 1 0.3928571428571428492 1 0.4047619047619047672 1 
	0.4285714285714285476 1 0.4305555555555555802 1 0.4365079365079365115 1 0.4444444444444444198 1 0.4603174603174602919 1 
	0.476190476190476164 1 0.4801587301587301182 1 0.4841269841269840724 1 0.4880952380952380265 1 0.4900793650793650036 1 
	0.4920634920634920362 1 0.5158730158730158166 1 0.5238095238095237249 1 0.5357142857142855874 1 0.5476190476190475609 1 
	0.5595238095238095344 1 0.5714285714285713969 1 0.5952380952380951218 1 0.6190476190476189577 1 0.6269841269841269771 1 
	0.6309523809523809312 1 0.6349206349206348854 1 0.650793650793650702 1 0.6666666666666666297 1 0.6785714285714286031 1 
	0.6904761904761904656 1 0.7023809523809523281 1 0.7142857142857141906 1 0.7321428571428569843 1 0.749999999999999889 1 
	0.7678571428571427937 1 0.7857142857142855874 1 0.7976190476190474499 1 0.8095238095238094234 1 0.8333333333333332593 1 
	0.8452380952380951218 1 0.851190476190476053 1 0.8571428571428570953 1 0.875 1 0.8928571428571427937 1 
	0.9107142857142856984 1 0.9285714285714286031 1 0.9464285714285713969 1 0.9642857142857143016 1 0.9821428571428572063 1 
	0.9910714285714286031 1 0.9955357142857143016 1 0.9977678571428572063 1 0.9988839285714286031 1 0.9994419642857143016 1 
	0.9997209821428572063 1 1 3 
	0 3 1 3 
	6308.298334710646486 3593.142878910700801 13999.99989712344359 
	6308.298334706167225 3593.142878866035062 14002.33739166615851 
	6308.295060406008815 3593.11025877822749 14007.0123806609281 
	6308.275415968705602 3592.914551839659907 14016.36052012565233 
	6308.206671611469574 3592.229688868122139 14032.71010675498474 
	6308.010378945097727 3590.274130853049883 14056.01151781242697 
	6307.61859136097155 3586.370962370435336 14083.7969307428375 
	6306.889615957994465 3579.108573436463757 14120.4927325911176 
	6305.595020597342227 3566.211217792381831 14165.4862953078391 
	6303.447467150505872 3544.816300596288329 14217.3974224516769 
	6300.732937969952218 3517.772909839063232 14266.57465282349949 
	6297.485556165202979 3485.420995665152077 14312.39957443822277 
	6293.746166673329753 3448.167474172309994 14354.29600016614495 
	6289.71673731019655 3408.024441812741316 14390.34989414030861 
	6285.499205062906185 3366.00744182341441 14420.70972604322924 
	6281.180668366529062 3322.984188973160599 14445.67388079227203 
	6277.014121099626209 3281.475124865315593 14464.49781673596954 
	6273.093916495356098 3242.420239894926908 14478.23150036963489 
	6268.279872662827984 3194.460516588708742 14491.14879073140037 
	6262.10666967797988 3132.960223414851498 14500.46574077090736 
	6254.615080388553906 3058.325558269028988 14500.4657807110525 
	6248.441872421586595 2996.825215460978143 14491.14907252925696 
	6243.627826350743817 2948.865469857331846 14478.23175192127019 
	6240.099647907645704 2913.716130177656851 14465.87136532985278 
	6237.244620584361655 2885.273032188332763 14453.39901609124354 
	6235.021230137226667 2863.122591861839283 14442.16072773203086 
	6232.841356113930487 2841.405682205067023 14430.09797036460805 
	6230.203862609735552 2815.12975637598629 14413.50474876596127 
	6227.196331609142362 2785.167346469938366 14391.28041876784664 
	6224.835302864557889 2761.645689990003575 14370.93653415941299 
	6223.041533279538271 2743.775330690983992 14353.63571426201634 
	6221.745597187713429 2730.864618087171038 14340.16556736848725 
	6220.708330545581703 2720.530889753935298 14328.54394415266506 
	6219.904986275269948 2712.527603896548499 14319.01856283231609 
	6218.726880680342219 2700.790773007397092 14304.50729815200248 
	6216.322098294513125 2676.833222588535591 14271.88581048263768 
	6214.345139315733832 2657.137846122696828 14237.60172377798153 
	6212.923207118086793 2642.971902245067213 14207.55945997334857 
	6212.249736281491096 2636.262475389039992 14192.36330513633948 
	6211.112147813701085 2624.929294793523695 14163.34215791490351 
	6209.887280121491131 2612.726598340027067 14123.58353087464457 
	6209.14623543052312 2605.343969603601181 14086.87949843179558 
	6208.805800220699894 2601.952397147238116 14062.1783604293305 
	6208.666380485952686 2600.563433495444315 14049.78915153350317 
	6208.575939471015772 2599.662418423150484 14039.43901286434084 
	6208.519073043531534 2599.095888864585504 14031.14729073592571 
	6208.35612219759696 2597.472497438486243 14002.10365564985841 
	6208.444418954977664 2598.35215042901882 13966.69382646771737 
	6209.012378019533571 2604.010420385183352 13921.32346887346466 
	6209.630045525145761 2610.163908739882118 13888.6358461476284 
	6210.597500212817977 2619.802138209253826 13852.4849014150077 
	6211.832086091583733 2632.101651715777734 13817.15925112812329 
	6213.824960900231417 2651.955589014660291 13771.42070992779736 
	6216.946349606985677 2683.052301863136563 13717.2869570806397 
	6220.579329420578688 2719.24572109467681 13671.6748095278308 
	6223.188358411846821 2745.238070326893194 13644.89396641454368 
	6224.391239959253653 2757.221730673062666 13633.43601744867556 
	6226.237803923779211 2775.618051911998464 13616.70489576225373 
	6229.161822148372266 2804.748469055791247 13593.35744266001711 
	6233.001632977275221 2843.002434183257265 13568.52626179748586 
	6236.673604308668473 2879.584304885734127 13549.09546577165929 
	6240.099635565572498 2913.716007219096809 13534.12884077779199 
	6243.627808830002323 2948.865295306320604 13521.76808209598494 
	6247.840116311673228 2990.830243762296959 13510.46652350311342 
	6252.757890656221207 3039.82337823299622 13502.10028251905715 
	6258.360863293425609 3095.642773885685983 13498.94996012797856 
	6263.963821336666115 3151.462024143039798 13502.10036136296367 
	6268.881612581924855 3200.455326988781962 13510.46651464462229 
	6273.093895534605508 3242.420031074446342 13521.76844976475695 
	6277.798182730276494 3289.286308179241587 13538.24838662451475 
	6282.297960009769668 3334.115163247771306 13559.9446078394194 
	6285.990381805434481 3370.90077090040495 13583.17657422272168 
	6288.021659001381522 3391.137290480247884 13597.60708614016039 
	6290.491622569541505 3415.744205875949319 13616.58331716832981 
	6293.74617341208068 3448.167541298688775 13645.70359358736096 
	6297.485555729625958 3485.420991319618679 13687.60015477187881 
	6300.732947875169884 3517.773008507017948 13733.42498552391953 
	6303.44746665362436 3544.816295624540089 13782.60233451172826 
	6305.595025822853131 3566.211269829101639 13834.51339227547032 
	6307.148566037164528 3581.688353451533203 13888.50571283665158 
	6307.931888762453127 3589.492175477659657 13934.66767279015585 
	6308.206667561384165 3592.229648519368766 13967.28969089564634 
	6308.27541692203522 3592.914561337432133 13983.63927276985851 
	6308.292604740681782 3593.08579430888858 13991.81889630192745 
	6308.296902269958082 3593.128608276337673 13995.9093103607338 
	6308.297976588789425 3593.139311135713797 13997.95459300056245 
	6308.298283551525856 3593.142369239973959 13999.12333666850645 
	6308.298334711205825 3593.142878916283735 13999.70771030560354 
	6308.298334710646486 3593.142878910700801 13999.99989712344359 
	6440.861030202832808 3578.999138027480967 13999.99989712344359 
	6440.861030248164752 3578.999137975284157 14002.33739166615851 
	6440.856675000970426 3578.966681325823174 14007.0123806609281 
	6440.830548827377243 3578.771954420715701 14016.36052012565233 
	6440.739117015894408 3578.090521774525314 14032.71010675498474 
	6440.478051109887019 3576.144757422653129 14056.01151781242697 
	6439.956969321679935 3572.261138122627017 14083.7969307428375 
	6438.987437838357437 3565.035121079962209 14120.4927325911176 
	6437.265624847484105 3552.202360407616197 14165.4862953078391 
	6434.409378755451144 3530.914596985494882 14217.3974224516769 
	6430.799056808783462 3504.006649394269971 14266.57465282349949 
	6426.480036215721157 3471.81676616745699 14312.39957443822277 
	6421.506647103592513 3434.749824452586836 14354.29600016614495 
	6416.147507739466164 3394.807843205740937 14390.34989414030861 
	6410.538189470991711 3353.001280174865315 14420.70972604322924 
	6404.794537030437823 3310.193503711125686 14445.67388079227203 
	6399.253028374861969 3268.892332690447802 14464.49781673596954 
	6394.039154931470875 3230.03304943728017 14478.23150036963489 
	6387.636478503871331 3182.313526137611007 14491.14879073140037 
	6379.426113099551912 3121.121250329138547 14500.46574077090736 
	6369.462303350625916 3046.860382984270927 14500.4657807110525 
	6361.251933966436809 2985.668057390065769 14491.14907252925696 
	6354.849255584204002 2937.948511750075795 14478.23175192127019 
	6350.156773850468198 2902.975213817815529 14465.87136532985278 
	6346.359589835535189 2874.674569183790027 14453.39901609124354 
	6343.402479329345624 2852.635066756680317 14442.16072773203086 
	6340.503247039057896 2831.026923507558877 14430.09797036460805 
	6336.995379363813299 2804.882597572773648 14413.50474876596127 
	6332.995364919831445 2775.070250387546821 14391.28041876784664 
	6329.855193980172771 2751.666399598456337 14370.93653415941299 
	6327.469482764906388 2733.885541411212216 14353.63571426201634 
	6325.74588404190672 2721.039491062931575 14340.16556736848725 
	6324.366325211679396 2710.757517040967741 14328.54394415266506 
	6323.297868812142042 2702.794315930283119 14319.01856283231609 
	6321.73100575303215 2691.116264865825997 14304.50729815200248 
	6318.532631168155604 2667.278704967113754 14271.88581048263768 
	6315.903276730030484 2647.681970184753936 14237.60172377798153 
	6314.012128133140322 2633.586971459906181 14207.55945997334857 
	6313.116408261148536 2626.911148484299702 14192.36330513633948 
	6311.603414637156675 2615.634728854949117 14163.34215791490351 
	6309.974335843405242 2603.493148804035627 14123.58353087464457 
	6308.988748208459583 2596.147494769581499 14086.87949843179558 
	6308.535970668584923 2592.772908385704795 14062.1783604293305 
	6308.350543915415074 2591.390900959132978 14049.78915153350317 
	6308.23025226255595 2590.494399279958998 14039.43901286434084 
	6308.154628711537043 2589.930705783810026 14031.14729073592571 
	6307.937867399719835 2588.31545045808889 14002.10365564985841 
	6308.055312247869551 2589.190696280082193 13966.69382646771737 
	6308.810697536659063 2594.820627537652399 13921.32346887346466 
	6309.632194342917501 2600.94329706142571 13888.6358461476284 
	6310.918907100045544 2610.533254960258091 13852.4849014150077 
	6312.560911597753147 2622.771167090075323 13817.15925112812329 
	6315.211437562811625 2642.52566804819071 13771.42070992779736 
	6319.36288998400687 2673.46663606823904 13717.2869570806397 
	6324.194752219471411 2709.478785214752406 13671.6748095278308 
	6327.664770805555236 2735.340953493263896 13644.89396641454368 
	6329.26459750226968 2747.264596043147776 13633.43601744867556 
	6331.720528875285709 2765.56878140625895 13616.70489576225373 
	6335.609467357147878 2794.55330336142606 13593.35744266001711 
	6340.716421100348271 2832.615677470769242 13568.52626179748586 
	6345.600140524850758 2869.014332808785184 13549.09546577165929 
	6350.156763875023898 2902.975090501423438 13534.12884077779199 
	6354.849234194546625 2937.948337784041996 13521.76808209598494 
	6360.451604127666542 2979.703109883963407 13510.46652350311342 
	6366.992243552353102 3028.450868423130942 13502.10028251905715 
	6374.444198363702526 3083.990699416429834 13498.94996012797856 
	6381.89613128975634 3139.530386116835871 13502.10036136296367 
	6388.436796467341992 3188.278311692602529 13510.46651464462229 
	6394.039130423648203 3230.032841153114077 13521.76844976475695 
	6400.295841516515793 3276.664392978174874 13538.24838662451475 
	6406.280533607980033 3321.268730087884705 13559.9446078394194 
	6411.191449785455006 3357.870102342479186 13583.17657422272168 
	6413.893051890185234 3378.005269320103707 13597.60708614016039 
	6417.178103952655874 3402.488943972615743 13616.58331716832981 
	6421.506655098457486 3434.749891389042205 13645.70359358736096 
	6426.480035598715403 3471.816761849355771 13687.60015477187881 
	6430.799066465451688 3504.006748099805009 13733.42498552391953 
	6434.40937985268647 3530.914591772717813 13782.60233451172826 
	6437.265627095343916 3552.202412894554527 13834.51339227547032 
	6439.331838046590747 3567.601981102313403 13888.50571283665158 
	6440.373661260538029 3575.366718056623085 13934.66767279015585 
	6440.739108592293633 3578.090482087044165 13967.28969089564634 
	6440.830552104810522 3578.77196356708555 13983.63927276985851 
	6440.85340781746163 3578.942339557399009 13991.81889630192745 
	6440.859125743481854 3578.984938761970625 13995.9093103607338 
	6440.860553568763862 3578.995588171447707 13997.95459300056245 
	6440.860962133678186 3578.998630913537909 13999.12333666850645 
	6440.861030197165746 3578.999138034005227 13999.70771030560354 
	6440.861030202832808 3578.999138027480967 13999.99989712344359 
	6573.423733581198576 3564.855395951835362 13999.99989712344177 
	6573.423733522467955 3564.855395915374174 14002.33739166615669 
	6573.418298612127728 3564.823102510135868 14007.01238066092446 
	6573.38568791812213 3564.629356059447673 14016.36052012564687 
	6573.271574101213446 3563.951352914747076 14032.7101067549811 
	6572.945724934032114 3562.015383741326332 14056.01151781242515 
	6572.295361845030129 3558.151311672923384 14083.79693074283387 
	6571.085256872726859 3550.961669153739876 14120.4927325911176 
	6568.936229733039909 3538.193502926749261 14165.48629530783728 
	6565.371291017268959 3517.012893275360966 14217.3974224516769 
	6560.865170712284453 3490.24038969567755 14266.57465282349949 
	6555.474519707431682 3458.212536149444077 14312.39957443822277 
	6549.267134238258222 3421.332173719152252 14354.29600016614495 
	6542.578279806130013 3381.591244351157911 14390.34989414030861 
	6535.577176654028335 3339.995118106739483 14420.70972604322924 
	6528.408404372291443 3297.4028186489777 14445.67388079227203 
	6521.491936699584585 3256.309540356893194 14464.49781673596954 
	6514.984398376024728 3217.64585822235631 14478.23150036963489 
	6506.993083744069736 3170.16653577735724 14491.14879073140037 
	6496.745572223606359 3109.282274869219691 14500.46574077090736 
	6484.309529996823585 3035.395207142473737 14500.4657807110525 
	6474.062007559691665 2974.51089749744142 14491.14907252925696 
	6466.070688189975044 2927.031553132927456 14478.23175192127019 
	6460.213916378704198 2892.234294950272215 14465.87136532985278 
	6455.47456869690177 2864.076104726192625 14453.39901609124354 
	6451.78374176611851 2842.147539648939528 14442.16072773203086 
	6448.165150726717911 2820.648162880364453 14430.09797036460805 
	6443.786912824294632 2794.635436243565891 14413.50474876596127 
	6438.794409576468752 2764.97315258965682 14391.28041876784664 
	6434.875104569680843 2741.687106262471843 14370.93653415941299 
	6431.897444725712376 2723.995750245164345 14353.63571426201634 
	6429.746194534127426 2711.214360464640777 14340.16556736848725 
	6428.024326104354259 2700.984143386546748 14328.54394415266506 
	6426.690783135652055 2693.061023157903037 14319.01856283231609 
	6424.735110465915568 2681.441759802642991 14304.50729815200248 
	6420.743185717007691 2657.724184068417799 14271.88581048263768 
	6417.461432808569953 2638.226091424792685 14237.60172377798153 
	6415.10100413447617 2624.202047480784131 14207.55945997334857 
	6413.983046205043138 2617.559826725741004 14192.36330513633948 
	6412.094650310330508 2606.340167626272887 14163.34215791490351 
	6410.061374704358059 2594.259701817409223 14123.58353087464457 
	6408.831238713263701 2586.951023303242437 14086.87949843179558 
	6408.266114975757773 2583.593423576626719 14062.1783604293305 
	6408.034676722034419 2582.218373052972311 14049.78915153350317 
	6407.884549740228067 2581.326382452212783 14039.43901286434084 
	6407.790142673070477 2580.765529009021066 14031.14729073592571 
	6407.519680955551848 2579.158393142664863 14002.10365564985841 
	6407.66624341199622 2580.02923640504423 13966.69382646771737 
	6408.609055726261431 2585.630828842874052 13921.32346887346466 
	6409.634384761782712 2591.722679092917588 13888.6358461476284 
	6411.240361520882288 2601.264364524218763 13852.4849014150077 
	6413.28976880067421 2613.440677671848789 13817.15925112812329 
	6416.597938513559711 2633.095743409368879 13771.42070992779736 
	6421.779438325610499 2663.880969069102775 13717.2869570806397 
	6427.810185732859281 2699.711847714803298 13671.6748095278308 
	6432.141163830729056 2725.443839588139781 13644.89396641454368 
	6434.137952960768416 2737.307461728408271 13633.43601744867556 
	6437.203247841707707 2755.519511805457569 13616.70489576225373 
	6442.057123851480355 2784.358135960691015 13593.35744266001711 
	6448.431204486714705 2822.228921474465096 13568.52626179748586 
	6454.526679343212891 2858.44436033838565 13549.09546577165929 
	6460.213889451229079 2892.234174197011271 13534.12884077779199 
	6466.070657192479302 2927.031380619590436 13521.76808209598494 
	6473.063086629714235 2968.575976809090662 13510.46652350311342 
	6481.226592495280784 3017.078359210983763 13502.10028251905715 
	6490.527525869611964 3072.338626090895104 13498.94996012797856 
	6499.828437492937155 3127.598748657610486 13502.10036136296367 
	6507.991968138962875 3176.101298243132987 13510.46651464462229 
	6514.984360211213243 3217.645652003115174 13521.76844976475695 
	6522.793467833536852 3264.042482686421863 13538.24838662451475 
	6530.263109807990077 3308.422296534599809 13559.9446078394194 
	6536.392534799698296 3344.839431208984479 13583.17657422272168 
	6539.764451510959589 3364.873247142082164 13597.60708614016039 
	6543.864590517292527 3389.233681285832063 13616.58331716832981 
	6549.267146391447568 3421.332240026873023 13645.70359358736096 
	6555.474519021454398 3458.212531841772034 13687.60015477187881 
	6560.865190670991069 3490.240486843554208 13733.42498552391953 
	6565.371288432223082 3517.012888619346541 13782.60233451172826 
	6568.936243107262271 3538.193553731394331 13834.51339227547032 
	6571.515117399660085 3553.51560764270971 13888.50571283665158 
	6572.815429137053798 3561.241261334324918 13934.66767279015585 
	6573.271570415060523 3563.951312510964271 13967.28969089564634 
	6573.385687491168937 3564.629365765913917 13983.63927276985851 
	6573.414223356348884 3564.798882921605127 13991.81889630192563 
	6573.421355042883988 3564.84126836669202 13995.9093103607338 
	6573.423139430914489 3564.85186386416035 13997.95459300056064 
	6573.423648684584805 3564.854891382190544 13999.12333666850827 
	6573.423733588540927 3564.85539595639284 13999.70771030560172 
	6573.423733581198576 3564.855395951835362 13999.99989712344177 
	6705.986429073384897 3550.711655068615528 13999.99989712344177 
	6705.986429064465483 3550.711655024622814 14002.33739166615669 
	6705.979913207089339 3550.679525057731553 14007.01238066092446 
	6705.940820776793771 3550.486758640503467 14016.36052012564687 
	6705.80401950563828 3549.812185821150251 14032.7101067549811 
	6705.413397098821406 3547.886010310929578 14056.01151781242515 
	6704.633739805739424 3544.041487425115065 14083.79693074283387 
	6703.183078753089831 3536.888216797238329 14120.4927325911176 
	6700.606833983181787 3524.184645541983627 14165.48629530783728 
	6696.33320262221423 3503.111189664567519 14217.3974224516769 
	6690.931289551115697 3476.474129250884289 14266.57465282349949 
	6684.468999757949859 3444.60830665174899 14312.39957443822277 
	6677.027614668520982 3407.914523999429093 14354.29600016614495 
	6669.009050235399627 3368.374645744157533 14390.34989414030861 
	6660.616161062113861 3326.988956458190387 14420.70972604322924 
	6652.022273036200204 3284.612133386942787 14445.67388079227203 
	6643.730843974820345 3243.726748182025403 14464.49781673596954 
	6635.929636812139506 3205.258667764709571 14478.23150036963489 
	6626.349689585113083 3158.019545326259504 14491.14879073140037 
	6614.065015645178391 3097.44330178350674 14500.46574077090736 
	6599.156752958895595 3023.930031857715676 14500.4657807110525 
	6586.872069104541879 2963.353739426529046 14491.14907252925696 
	6577.292117423435229 2916.114595025671406 14478.23175192127019 
	6570.271042321526693 2881.493378590430893 14465.87136532985278 
	6564.589537948075304 2853.477641721649888 14453.39901609124354 
	6560.164990958237468 2831.660014543780562 14442.16072773203086 
	6555.82704165184532 2810.269404182856306 14430.09797036460805 
	6550.578429578372379 2784.388277440353249 14413.50474876596127 
	6544.593442887157835 2754.87605650726573 14391.28041876784664 
	6539.894995685295726 2731.707815870924605 14370.93653415941299 
	6536.325394211080493 2714.105960965392569 14353.63571426201634 
	6533.746481388320717 2701.389233440401313 14340.16556736848725 
	6531.682320770451952 2691.210770673579191 14328.54394415266506 
	6530.083665672524148 2683.327735191637657 14319.01856283231609 
	6527.739235538605499 2671.767251661071896 14304.50729815200248 
	6522.953718590650169 2648.169666446996416 14271.88581048263768 
	6519.019570222866605 2628.770215486849793 14237.60172377798153 
	6516.189925149529699 2614.817116695623099 14207.55945997334857 
	6514.849718184701487 2608.208499821000714 14192.36330513633948 
	6512.585917133786097 2597.045601687698309 14163.34215791490351 
	6510.148430426272171 2585.026252281417783 14123.58353087464457 
	6508.673751491200164 2577.754548469222755 14086.87949843179558 
	6507.996285423642803 2574.413934815093398 14062.1783604293305 
	6507.718840151496806 2573.045840516660974 14049.78915153350317 
	6507.538862531768245 2572.158363309021297 14039.43901286434084 
	6507.425698341075986 2571.600345928245588 14031.14729073592571 
	6507.101426157674723 2570.001346162267509 14002.10365564985841 
	6507.277136704888107 2570.867782256107603 13966.69382646771737 
	6508.407375243386923 2576.441035995343555 13921.32346887346466 
	6509.636533579554452 2582.50206741446118 13888.6358461476284 
	6511.561768408109856 2591.995481275223028 13852.4849014150077 
	6514.018594306843625 2604.110193046146378 13817.15925112812329 
	6517.984415176139919 2623.665822442899298 13771.42070992779736 
	6524.195978702631692 2654.295303274205253 13717.2869570806397 
	6531.425608531752005 2689.944911834878894 13671.6748095278308 
	6536.617576224437471 2715.546722754510483 13644.89396641454368 
	6539.011310503784443 2727.350327098493381 13633.43601744867556 
	6542.685972793214205 2745.470241299718509 13616.70489576225373 
	6548.504769060255967 2774.162970266325829 13593.35744266001711 
	6556.145992609787754 2811.842164761977074 13568.52626179748586 
	6563.453215559395176 2847.874388261436707 13549.09546577165929 
	6570.271017760680479 2881.493257479337899 13534.12884077779199 
	6577.292082557023605 2916.114423097311828 13521.76808209598494 
	6585.674574445707549 2957.448842930757564 13510.46652350311342 
	6595.460945391412679 3005.705849401118485 13502.10028251905715 
	6606.61086093988888 3060.686551621638955 13498.94996012797856 
	6617.760747446027381 3115.667110631406558 13502.10036136296367 
	6627.547152024380011 3163.924282946953554 13510.46651464462229 
	6635.929595100255938 3205.258462081782909 13521.76844976475695 
	6645.291126619776151 3251.42056748535515 13538.24838662451475 
	6654.245683406200442 3295.575863374713208 13559.9446078394194 
	6661.593602779718822 3331.808762651058714 13583.17657422272168 
	6665.6358443997633 3351.741225981937987 13597.60708614016039 
	6670.551071900406896 3375.978419382498487 13616.58331716832981 
	6677.027628077824374 3407.914590117226453 13645.70359358736096 
	6684.468998890543844 3444.608302371509126 13687.60015477187881 
	6690.931309261272872 3476.474226436341269 13733.42498552391953 
	6696.333201631285192 3503.11118476752381 13782.60233451172826 
	6700.606844379753056 3524.18469679684722 13834.51339227547032 
	6703.698389409086303 3539.42923529348991 13888.50571283665158 
	6705.257201635138699 3547.115803913288346 13934.66767279015585 
	6705.8040114459709 3549.812146078639671 13967.28969089564634 
	6705.94082267394424 3550.486767995567334 13983.63927276985851 
	6705.975026433128733 3550.655428170115556 13991.81889630192563 
	6705.983578516407761 3550.697598852324973 13995.9093103607338 
	6705.985716410888926 3550.708140899894261 13997.95459300056064 
	6705.986327266737135 3550.711153055754494 13999.12333666850827 
	6705.986429074499938 3550.711655074114333 13999.70771030560172 
	6705.986429073384897 3550.711655068615528 13999.99989712344177 
	0 
	
	0 
	0 
	86 0 0.002232142857142857019 0.004464285714285714038 0.008928571428571428076 0.01785714285714285615 0.02678571428571428423 0.0357142857142857123 0.05357142857142856845 0.07142857142857142461 0.08928571428571427382 0.1071428571428571369 0.125 0.1428571428571428492 0.1587301587301587213 0.1746031746031745935 0.1904761904761904656 0.2023809523809523836 0.2142857142857142738 0.238095238095238082 0.2619047619047618625 0.2857142857142856984 0.2976190476190476164 0.3095238095238095344 0.3214285714285713969 0.3273809523809523281 0.3333333333333333148 0.3452380952380952328 0.3571428571428570953 0.3690476190476190133 0.375 0.3809523809523809312 0.3869047619047618625 0.3898809523809523281 0.3928571428571428492 0.4047619047619047672 0.4285714285714285476 0.4305555555555555802 0.4365079365079365115 0.4444444444444444198 0.4603174603174602919 0.476190476190476164 0.4801587301587301182 0.4841269841269840724 0.4880952380952380265 0.4900793650793650036 0.4920634920634920362 0.5158730158730158166 0.5238095238095237249 0.5357142857142855874 0.5476190476190475609 0.5595238095238095344 0.5714285714285713969 0.5952380952380951218 0.6190476190476189577 0.6269841269841269771 0.6309523809523809312 0.6349206349206348854 0.650793650793650702 0.6666666666666666297 0.6785714285714286031 0.6904761904761904656 0.7023809523809523281 0.7142857142857141906 0.7321428571428569843 0.749999999999999889 0.7678571428571427937 0.7857142857142855874 0.7976190476190474499 0.8095238095238094234 0.8333333333333332593 0.8452380952380951218 0.851190476190476053 0.8571428571428570953 0.875 0.8928571428571427937 0.9107142857142856984 0.9285714285714286031 0.9464285714285713969 0.9642857142857143016 0.9821428571428572063 0.9910714285714286031 0.9955357142857143016 0.9977678571428572063 0.9988839285714286031 0.9994419642857143016 0.9997209821428572063 
	0 
	0 
	0 
	F 1 F 0 F 1 F 0 } I I I I #
tcoedge-coedge $-1 -1 $-1 $13 $13 $17 $18 reversed $8 $19 -6.283185307179586232 -0 #
tcoedge-coedge $-1 -1 $-1 $20 $21 $10 $15 reversed $11 $22 -6.283185307179586232 4.431324709573947964e-31 #
tedge-edge $-1 -1 $-1 $23 -4.431324709573947964e-31 $23 6.283185307179586232 $14 $24 forward @7 unknown 0.000652651015514760127 #
pcurve $-1 -1 $-1 0 forward { exppc nurbs 2 periodic 5 
	-4.431324709573947964e-31 2 1.570796326794896558 2 3.141592653589793116 2 4.712388980384689674 2 6.283185307179586232 2 
	-1.818989403545856476e-12 500 1 
	-500.000000000001819 499.9999999999990905 0.7071067811865465735 
	-500 -9.094947017729282379e-13 1 
	-500 -500.0000000000009095 0.7071067811865455743 
	0 -500 1 
	500 -499.9999999999995453 0.7071067811865465735 
	500 0 1 
	499.999999999998181 500 0.7071067811865455743 
	-1.818989403545856476e-12 500 1 
	0 
	plane 6606.610865756065323 3060.686575363582961 14000.00000000001091 0.9800499999999994216 -0.1987510943366142813 -5.197112580936171297e-15 -5.302905546590658373e-15 0 -1 forward_v I I I I 
	} 0 0 #
tcoedge-coedge $-1 -1 $-1 $21 $20 $13 $18 forward $11 $25 0 6.283185307179586232 #
tedge-edge $-1 -1 $-1 $26 0 $26 6.283185307179586232 $17 $27 forward @7 unknown 0.0006526509994472791225 #
pcurve $-1 -1 $-1 0 forward { exppc nurbs 2 periodic 5 
	-6.283185307179586232 2 -4.712388980384689674 2 -3.141592653589793116 2 -1.570796326794896558 2 0 2 
	0 500.0000000000004547 1 
	500 500.0000000000004547 0.7071067811865449082 
	500 0 1 
	500 -500 0.7071067811865449082 
	0 -500 1 
	-500 -500 0.7071067811865449082 
	-500 0 1 
	-500 500.0000000000004547 0.7071067811865449082 
	0 500.0000000000004547 1 
	0 
	plane 6258.360865714291322 3095.642797989794417 14000.00000000001091 -0.9949999999999996625 0.09987492177719513309 -0 0 0 -1 reverse_v I I I I 
	} 0 0 #
coedge $-1 -1 $-1 $17 $14 $21 $28 reversed $11 $29 #
coedge $-1 -1 $-1 $14 $17 $20 $28 forward $11 $30 #
pcurve $-1 -1 $-1 0 forward { exppc nubs 1 periodic 2 
	-6.283185307179586232 1 4.431324709573947964e-31 1 
	1 1 
	0 1 
	9.323012559979734295e-12 
	spline forward { ref 0 } I I I I 
	} 0 0 #
tvertex-vertex $-1 -1 $-1 $15 $31 0.000131138377221750571 #
ellipse-curve $-1 -1 $-1 6606.610865756065323 3060.686575363582961 14000.00000000001091 0.9800499999999994216 -0.1987510943366142813 -5.197112580936171297e-15 99.37554716830712209 490.0249999999995794 0 1 I I #
pcurve $-1 -1 $-1 0 forward { exppc nubs 1 periodic 2 
	0 1 6.283185307179586232 1 
	0 0 
	1 0 
	6.67803470655632346e-12 
	spline forward { ref 0 } I I I I 
	} 0 0 #
tvertex-vertex $-1 -1 $-1 $18 $32 0.0001311393135350491122 #
ellipse-curve $-1 -1 $-1 6258.360865714291322 3095.642797989794417 14000.00000000001091 0.9949999999999996625 -0.09987492177719513309 0 49.93746088859757037 497.4999999999998295 0 1 I I #
edge $-1 -1 $-1 $26 1.307947221395993677e-09 $23 0.9999999809930008032 $21 $33 forward @7 tangent #
pcurve $-1 -1 $-1 -1 $33 0 0 #
pcurve $-1 -1 $-1 1 $33 1 0 #
point $-1 -1 $-1 6705.986412924372416 3550.711575363582597 14000.00000000001091 #
point $-1 -1 $-1 6308.298326602888665 3593.142797989794417 14000.00000000001091 #
intcurve-curve $-1 -1 $-1 forward { parcur full nubs 3 open 2 
	0 3 1 3 
	6308.298334710646486 3593.142878910700801 13999.99989712344359 
	6440.861030202832808 3578.999138027480967 13999.99989712344359 
	6573.423733581198576 3564.855395951835362 13999.99989712344177 
	6705.986429073384897 3550.711655068615528 13999.99989712344177 
	0 
	
	spline forward { ref 0 } I I I I 
	null_surface 
	nubs 1 open 2 
	0 1 1 1 
	0 0 
	0 1 
	
	nullbs 
	I I 
	0 
	0 
	0 
	surf1 } F 1.307947221395993677e-09 F 0.9999999809930008032 #
End-of-ACIS-data 