700 0 1 0           
4 LibG 19 ASM 222.0.0.1700 NT 24 Wed Oct  5 17:29:54 2016 
1000 9.999999999999999547e-07 1.000000000000000036e-10 
body $-1 -1 $-1 $1 $-1 $-1 #
lump $-1 -1 $-1 $-1 $2 $0 #
shell $-1 -1 $-1 $-1 $-1 $3 $-1 $1 #
face $-1 -1 $-1 $4 $5 $2 $-1 $6 forward single #
face $-1 -1 $-1 $7 $8 $2 $-1 $9 reversed single #
loop $-1 -1 $-1 $-1 $10 $3 #
plane-surface $-1 -1 $-1 4508.36086550436994 3095.642797989800783 14000.00000000000182 1 -3.897834435702129261e-15 -5.197112580936172875e-15 -5.197112580936172875e-15 0 -1 forward_v I I I I #
face $-1 -1 $-1 $-1 $11 $2 $-1 $12 forward single #
loop $-1 -1 $-1 $-1 $13 $4 #
plane-surface $-1 -1 $-1 4158.360865462385846 3095.642797989802148 14000 1 -3.897834435702129261e-15 5.197112580936172875e-15 5.197112580936172875e-15 0 -1 forward_v I I I I #
tcoedge-coedge $-1 -1 $-1 $10 $10 $14 $15 forward $5 $16 -1.350498956678269526e-30 6.283185307179586232 #
loop $-1 -1 $-1 $-1 $17 $7 #
spline-surface $-1 -1 $-1 forward { exactsur full nubs 3 3 periodic open none none 87 2 
	0 3 0.002232142857142857019 1 0.004464285714285714038 1 0.008928571428571428076 1 0.01785714285714285615 1 
	0.02678571428571428423 1 0.0357142857142857123 1 0.05357142857142856845 1 0.07142857142857142461 1 0.08928571428571427382 1 
	0.1071428571428571369 1 0.125 1 0.1428571428571428492 1 0.1587301587301587213 1 0.1746031746031745935 1 
	0.1904761904761904656 1 0.2023809523809523836 1 0.2142857142857142738 1 0.238095238095238082 1 0.2619047619047618625 1 
	0.2857142857142856984 1 0.2976190476190476164 1 0.3095238095238095344 1 0.3214285714285713969 1 0.3273809523809523281 1 
	0.3333333333333333148 1 0.3452380952380952328 1 0.3571428571428570953 1 0.3690476190476190133 1 0.375 1 
	0.3809523809523809312 1 0.3869047619047618625 1 0.3898809523809523281 1 0.3928571428571428492 1 0.4047619047619047672 1 
	0.4285714285714285476 1 0.4305555555555555802 1 0.4365079365079365115 1 0.4444444444444444198 1 0.4603174603174602919 1 
	0.476190476190476164 1 0.4801587301587301182 1 0.4841269841269840724 1 0.4880952380952380265 1 0.4900793650793650036 1 
	0.4920634920634920362 1 0.5158730158730158166 1 0.5238095238095237249 1 0.5357142857142855874 1 0.5476190476190475609 1 
	0.5595238095238095344 1 0.5714285714285713969 1 0.5952380952380951218 1 0.6190476190476189577 1 0.6269841269841269771 1 
	0.6309523809523809312 1 0.6349206349206348854 1 0.650793650793650702 1 0.6666666666666666297 1 0.6785714285714286031 1 
	0.6904761904761904656 1 0.7023809523809523281 1 0.7142857142857141906 1 0.7321428571428569843 1 0.749999999999999889 1 
	0.7678571428571427937 1 0.7857142857142855874 1 0.7976190476190474499 1 0.8095238095238094234 1 0.8333333333333332593 1 
	0.8452380952380951218 1 0.851190476190476053 1 0.8571428571428570953 1 0.875 1 0.8928571428571427937 1 
	0.9107142857142856984 1 0.9285714285714286031 1 0.9464285714285713969 1 0.9642857142857143016 1 0.9821428571428572063 1 
	0.9910714285714286031 1 0.9955357142857143016 1 0.9977678571428572063 1 0.9988839285714286031 1 0.9994419642857143016 1 
	0.9997209821428572063 1 1 3 
	0 3 1 3 
	4158.360865459430897 3595.642879220281429 13999.99989734577139 
	4158.360865459431807 3595.642879175391045 14002.33739188848813 
	4158.360865459445449 3595.610095167519376 14007.01238088325772 
	4158.360865459457273 3595.413404777020787 14016.36052034799104 
	4158.360865459509114 3594.725100283145366 14032.71010697732163 
	4158.36086545966009 3592.759715344418964 14056.01151803483663 
	4158.360865459796514 3588.836932951098788 14083.79693096524534 
	4158.360865459942033 3581.538049602856972 14120.49273281364003 
	4158.360865460392233 3568.575883134157266 14165.48629553011051 
	4158.360865460750574 3547.073453795829664 14217.39742267211659 
	4158.360865461114372 3519.894166606565705 14266.5746530404067 
	4158.360865461462708 3487.379679999351993 14312.3995746481105 
	4158.36086546158549 3449.938954880861729 14354.29600037080127 
	4158.360865461681897 3409.594198741404853 14390.34989434258023 
	4158.360865461923822 3367.366058049462026 14420.70972622484442 
	4158.360865461947469 3324.126607949090612 14445.6738809726412 
	4158.360865461997491 3282.408955577376673 14464.49781690096097 
	4158.360865462032052 3243.157814901405345 14478.23150051863377 
	4158.360865462092079 3194.95708795690598 14491.14879084734457 
	4158.360865462111178 3133.147748080945803 14500.46574086514738 
	4158.360865462173024 3058.138034367708315 14500.46578074861827 
	4158.360865462192123 2996.328644613743108 14491.14907255827711 
	4158.36086546221577 2948.127895269761211 14478.23175193821953 
	4158.360865462243964 2912.801925751350154 14465.87136534099955 
	4158.360865462263064 2884.215897631507687 14453.39901609512162 
	4158.36086546227034 2861.954148563742365 14442.16072773387896 
	4158.360865462273978 2840.12810871175634 14430.097970364297 
	4158.360865462292168 2813.72014307336849 14413.50474875640793 
	4158.360865462295806 2783.607168300921785 14391.28041875451163 
	4158.360865462313996 2759.967312573005529 14370.93653413082029 
	4158.360865462316724 2742.00715248077131 14353.63571422959467 
	4158.360865462319452 2729.031561932292789 14340.16556733183461 
	4158.36086546232309 2718.645905325200147 14328.54394411092835 
	4158.36086546232309 2710.602401953658045 14319.01856278908963 
	4158.360865462324909 2698.806592021494907 14304.5072981048761 
	4158.360865462338552 2674.728651969089697 14271.88581039704331 
	4158.360865462337642 2654.93430377558343 14237.60172368259373 
	4158.360865462339461 2640.697174260524207 14207.55945987060841 
	4158.360865462339461 2633.954031692832814 14192.3633050329463 
	4158.36086546234128 2622.563900438939072 14163.34215780858904 
	4158.360865462344009 2610.299883901739122 14123.58353076581807 
	4158.360865462344918 2602.880156501866168 14086.87949831908008 
	4158.360865462345828 2599.471540963848838 14062.17836031608567 
	4158.360865462345828 2598.0755975934444 14049.78915142013466 
	4158.360865462344918 2597.170054803567382 14039.43901275083954 
	4158.360865462345828 2596.600678362947292 14031.14729062240076 
	4158.360865462344918 2594.969129176028218 14002.10365553636075 
	4158.360865462347647 2595.853202475551825 13966.69382635337934 
	4158.360865462350375 2601.539905917140914 13921.32346876271367 
	4158.360865462351285 2607.724316319124682 13888.63584603577328 
	4158.360865462349466 2617.410979048173886 13852.48490131603285 
	4158.360865462349466 2629.772299161192677 13817.15925102760229 
	4158.360865462346737 2649.726004975092565 13771.42070984351631 
	4158.360865462344009 2680.978982726352115 13717.28695699897253 
	4158.360865462337642 2717.354278446950048 13671.67480945252646 
	4158.360865462334914 2743.477242511339227 13644.89396634189688 
	4158.360865462333095 2755.521122257016486 13633.4360173758887 
	4158.360865462328547 2774.009887323805742 13616.70489568857556 
	4158.360865462309448 2803.286688481947294 13593.35744258115119 
	4158.360865462304901 2841.73288459168225 13568.52626171913653 
	4158.360865462280344 2878.498583801406312 13549.09546569048689 
	4158.36086546227034 2912.801802229907935 13534.12884069718712 
	4158.360865462247602 2948.127719914647514 13521.76808201548192 
	4158.36086546221668 2990.303547516335584 13510.46652342582092 
	4158.360865462206675 3039.54287864602702 13502.10028244125169 
	4158.360865462119364 3095.642773784638848 13498.94996006880137 
	4158.360865462102993 3151.742522788394581 13502.10036130992376 
	4158.360865462043876 3200.98202313483398 13510.46651461721922 
	4158.36086546203569 3243.157605129769763 13521.76844974223604 
	4158.360865462009315 3290.259391159922416 13538.24838661967442 
	4158.36086546196384 3335.313516839170461 13559.94460787945354 
	4158.360865461934736 3372.283976781373894 13583.17657428761959 
	4158.360865461913818 3392.622187411101095 13597.60708621363301 
	4158.360865461911999 3417.352755647401864 13616.58331724345044 
	4158.360865461754656 3449.93902239135241 13645.70359369404287 
	4158.360865461591857 3487.379675669909375 13687.60015490089427 
	4158.360865461367212 3519.894265798695869 13733.42498567362782 
	4158.360865461187132 3547.073448825320156 13782.60233467388935 
	4158.360865460840614 3568.575935450693123 13834.5133924535221 
	4158.360865460258537 3584.130793347510462 13888.50571303633478 
	4158.360865459703746 3591.973830548416572 13934.66767300549145 
	4158.360865459508204 3594.725059732230875 13967.28969111627521 
	4158.360865459453635 3595.413414322709286 13983.63927299176248 
	4158.360865459436354 3595.585507761197732 13991.81889652414975 
	4158.360865459433626 3595.628536874194197 13995.90931058304159 
	4158.360865459431807 3595.639293516776888 13997.9545932228848 
	4158.360865459430897 3595.642366988395224 13999.12333689083789 
	4158.360865459429988 3595.642879225892557 13999.70771052793134 
	4158.360865459430897 3595.642879220281429 13999.99989734577139 
	4275.027532140092262 3595.642879220280975 13999.99989734577139 
	4275.027532140093172 3595.64287917539059 14002.33739188848813 
	4275.027532140106814 3595.610095167518921 14007.01238088325772 
	4275.027532140118637 3595.413404777020332 14016.36052034799104 
	4275.027532140169569 3594.725100283144911 14032.71010697732163 
	4275.027532140321455 3592.75971534441851 14056.01151803483663 
	4275.02753214045697 3588.836932951098333 14083.79693096524534 
	4275.027532140602489 3581.538049602856518 14120.49273281364003 
	4275.027532141052689 3568.575883134156811 14165.48629553011051 
	4275.02753214141012 3547.073453795829209 14217.39742267211659 
	4275.027532141773918 3519.89416660656525 14266.5746530404067 
	4275.027532142121345 3487.379679999351538 14312.3995746481105 
	4275.027532142245036 3449.938954880861274 14354.29600037080127 
	4275.027532142340533 3409.594198741404398 14390.34989434258023 
	4275.027532142582459 3367.366058049461571 14420.70972622484442 
	4275.027532142605196 3324.126607949090157 14445.6738809726412 
	4275.027532142655218 3282.408955577376219 14464.49781690096097 
	4275.027532142689779 3243.15781490140489 14478.23150051863377 
	4275.027532142749806 3194.957087956905525 14491.14879084734457 
	4275.027532142768905 3133.147748080945348 14500.46574086514738 
	4275.027532142830751 3058.13803436770786 14500.46578074861827 
	4275.02753214284985 2996.328644613742654 14491.14907255827711 
	4275.027532142873497 2948.127895269760756 14478.23175193821953 
	4275.027532142901691 2912.8019257513497 14465.87136534099955 
	4275.0275321429217 2884.215897631507232 14453.39901609512162 
	4275.027532142928976 2861.95414856374191 14442.16072773387896 
	4275.027532142932614 2840.128108711755885 14430.097970364297 
	4275.027532142950804 2813.720143073368035 14413.50474875640793 
	4275.027532142954442 2783.60716830092133 14391.28041875451163 
	4275.027532142972632 2759.967312573005074 14370.93653413082029 
	4275.02753214297627 2742.007152480770856 14353.63571422959467 
	4275.027532142978089 2729.031561932292334 14340.16556733183461 
	4275.027532142982636 2718.645905325199692 14328.54394411092835 
	4275.027532142982636 2710.602401953657591 14319.01856278908963 
	4275.027532142984455 2698.806592021494453 14304.5072981048761 
	4275.027532142998098 2674.728651969089242 14271.88581039704331 
	4275.027532142997188 2654.934303775582976 14237.60172368259373 
	4275.027532142999007 2640.697174260523752 14207.55945987060841 
	4275.027532142999917 2633.954031692832359 14192.3633050329463 
	4275.027532143001736 2622.563900438938617 14163.34215780858904 
	4275.027532143004464 2610.299883901738667 14123.58353076581807 
	4275.027532143006283 2602.880156501865713 14086.87949831908008 
	4275.027532143006283 2599.471540963848383 14062.17836031608567 
	4275.027532143007193 2598.075597593443945 14049.78915142013466 
	4275.027532143005374 2597.170054803566927 14039.43901275083954 
	4275.027532143007193 2596.600678362946837 14031.14729062240076 
	4275.027532143006283 2594.969129176027764 14002.10365553636075 
	4275.027532143009012 2595.85320247555137 13966.69382635337934 
	4275.02753214301174 2601.539905917140459 13921.32346876271367 
	4275.027532143013559 2607.724316319124227 13888.63584603577328 
	4275.02753214301174 2617.410979048173431 13852.48490131603285 
	4275.02753214301174 2629.772299161192223 13817.15925102760229 
	4275.027532143009921 2649.72600497509211 13771.42070984351631 
	4275.027532143007193 2680.97898272635166 13717.28695699897253 
	4275.027532143001736 2717.354278446949593 13671.67480945252646 
	4275.027532142999007 2743.477242511338773 13644.89396634189688 
	4275.027532142997188 2755.521122257016032 13633.4360173758887 
	4275.027532142992641 2774.009887323805287 13616.70489568857556 
	4275.027532142973541 2803.28668848194684 13593.35744258115119 
	4275.027532142968994 2841.732884591681795 13568.52626171913653 
	4275.027532142944438 2878.498583801405857 13549.09546569048689 
	4275.027532142935343 2912.80180222990748 13534.12884069718712 
	4275.027532142912605 2948.127719914647059 13521.76808201548192 
	4275.027532142881682 2990.303547516335129 13510.46652342582092 
	4275.027532142871678 3039.542878646026566 13502.10028244125169 
	4275.027532142784366 3095.642773784638393 13498.94996006880137 
	4275.027532142767996 3151.742522788394126 13502.10036130992376 
	4275.027532142708878 3200.982023134833526 13510.46651461721922 
	4275.027532142700693 3243.157605129769308 13521.76844974223604 
	4275.027532142674318 3290.259391159921961 13538.24838661967442 
	4275.027532142627933 3335.313516839170006 13559.94460787945354 
	4275.02753214259883 3372.28397678137344 13583.17657428761959 
	4275.027532142577911 3392.62218741110064 13597.60708621363301 
	4275.027532142576092 3417.352755647401409 13616.58331724345044 
	4275.02753214241875 3449.939022391351955 13645.70359369404287 
	4275.027532142255041 3487.37967566990892 13687.60015490089427 
	4275.027532142030395 3519.894265798695415 13733.42498567362782 
	4275.027532141850315 3547.073448825319701 13782.60233467388935 
	4275.027532141502888 3568.575935450692668 13834.5133924535221 
	4275.027532140920812 3584.130793347510007 13888.50571303633478 
	4275.02753214036602 3591.973830548416117 13934.66767300549145 
	4275.027532140169569 3594.72505973223042 13967.28969111627521 
	4275.027532140114999 3595.413414322708832 13983.63927299176248 
	4275.027532140097719 3595.585507761197277 13991.81889652414975 
	4275.027532140094991 3595.628536874193742 13995.90931058304159 
	4275.027532140093172 3595.639293516776434 13997.9545932228848 
	4275.027532140092262 3595.64236698839477 13999.12333689083789 
	4275.027532140091353 3595.642879225892102 13999.70771052793134 
	4275.027532140092262 3595.642879220280975 13999.99989734577139 
	4391.694198820506244 3595.642879220281429 13999.99989734577866 
	4391.694198820507154 3595.642879175390135 14002.33739188849722 
	4391.694198820520796 3595.610095167518466 14007.012380883265 
	4391.694198820534439 3595.413404777019878 14016.36052034799832 
	4391.694198820590827 3594.725100283144457 14032.71010697733072 
	4391.694198820752717 3592.7597153444176 14056.01151803484754 
	4391.694198820900965 3588.836932951098333 14083.79693096525079 
	4391.694198821058308 3581.538049602855608 14120.49273281364913 
	4391.694198821545797 3568.575883134157721 14165.48629553011415 
	4391.694198821935061 3547.073453795829209 14217.39742267212023 
	4391.694198822328872 3519.894166606565705 14266.57465304041034 
	4391.694198822706312 3487.379679999351993 14312.39957464811232 
	4391.694198822839098 3449.93895488086082 14354.29600037080672 
	4391.69419882294369 3409.594198741404853 14390.34989434258569 
	4391.694198823206534 3367.366058049461571 14420.70972622485169 
	4391.694198823232 3324.126607949090157 14445.67388097264666 
	4391.69419882328566 3282.408955577376219 14464.49781690096825 
	4391.694198823324768 3243.157814901404436 14478.23150051863922 
	4391.694198823388433 3194.95708795690507 14491.14879084735003 
	4391.694198823409351 3133.147748080944893 14500.46574086515102 
	4391.694198823475745 3058.13803436770786 14500.46578074862373 
	4391.694198823496663 2996.328644613742199 14491.14907255828257 
	4391.694198823521219 2948.127895269760756 14478.23175193822317 
	4391.694198823552142 2912.80192575134879 14465.87136534100318 
	4391.694198823573061 2884.215897631507232 14453.39901609512344 
	4391.694198823580336 2861.954148563741455 14442.16072773388078 
	4391.694198823584884 2840.128108711755431 14430.09797036429882 
	4391.694198823604893 2813.720143073367126 14413.50474875641157 
	4391.694198823608531 2783.607168300920421 14391.28041875451163 
	4391.69419882362763 2759.967312573004165 14370.93653413082029 
	4391.694198823630359 2742.007152480769946 14353.63571422959467 
	4391.694198823633087 2729.031561932291424 14340.16556733183461 
	4391.694198823636725 2718.645905325199237 14328.54394411092835 
	4391.694198823636725 2710.602401953657136 14319.01856278908963 
	4391.694198823639454 2698.806592021494453 14304.5072981048761 
	4391.694198823654006 2674.728651969088787 14271.88581039704513 
	4391.694198823654006 2654.934303775582976 14237.60172368259555 
	4391.694198823655825 2640.697174260522843 14207.55945987061205 
	4391.694198823655825 2633.954031692832359 14192.36330503294994 
	4391.694198823659463 2622.563900438938163 14163.34215780859267 
	4391.694198823660372 2610.299883901738667 14123.58353076582353 
	4391.6941988236631 2602.880156501864803 14086.87949831908372 
	4391.6941988236631 2599.471540963847929 14062.17836031608931 
	4391.6941988236631 2598.07559759344349 14049.78915142014012 
	4391.694198823661281 2597.170054803566018 14039.43901275084318 
	4391.694198823662191 2596.600678362945928 14031.14729062240804 
	4391.6941988236631 2594.969129176026854 14002.10365553636802 
	4391.694198823664919 2595.853202475550461 13966.69382635338297 
	4391.694198823668557 2601.539905917140459 13921.32346876271913 
	4391.694198823671286 2607.724316319123773 13888.63584603577874 
	4391.694198823668557 2617.410979048172976 13852.48490131603467 
	4391.694198823669467 2629.772299161191768 13817.15925102760411 
	4391.694198823666738 2649.726004975091655 13771.42070984351631 
	4391.6941988236631 2680.978982726351205 13717.28695699897253 
	4391.694198823656734 2717.354278446949138 13671.67480945252646 
	4391.694198823653096 2743.477242511338318 13644.89396634189688 
	4391.694198823651277 2755.521122257015577 13633.4360173758887 
	4391.69419882364673 2774.009887323804833 13616.70489568857556 
	4391.694198823624902 2803.286688481946385 13593.35744258115119 
	4391.694198823621264 2841.732884591681341 13568.52626171913653 
	4391.694198823594888 2878.498583801405402 13549.09546569048689 
	4391.694198823583974 2912.80180222990748 13534.12884069718712 
	4391.694198823559418 2948.127719914646605 13521.76808201548192 
	4391.694198823525767 2990.303547516334675 13510.46652342582092 
	4391.694198823515762 3039.542878646026111 13502.10028244125169 
	4391.694198823422084 3095.642773784638393 13498.94996006880137 
	4391.694198823403894 3151.742522788394126 13502.10036130992376 
	4391.69419882333932 3200.98202313483398 13510.46651461721922 
	4391.694198823330225 3243.157605129769763 13521.76844974223786 
	4391.694198823302941 3290.259391159922416 13538.24838661967624 
	4391.694198823253828 3335.313516839170461 13559.94460787945536 
	4391.694198823221996 3372.28397678137344 13583.17657428762323 
	4391.694198823199258 3392.622187411100185 13597.60708621363483 
	4391.694198823197439 3417.352755647400954 13616.58331724345408 
	4391.694198823027364 3449.939022391351955 13645.70359369404832 
	4391.694198822850012 3487.379675669909375 13687.60015490089972 
	4391.694198822606268 3519.894265798695415 13733.42498567363145 
	4391.694198822409817 3547.073448825320611 13782.60233467389116 
	4391.694198822035105 3568.575935450693123 13834.51339245352756 
	4391.694198821403916 3584.130793347510917 13888.50571303633478 
	4391.694198820803649 3591.973830548417027 13934.66767300549873 
	4391.694198820590827 3594.725059732230875 13967.28969111627703 
	4391.694198820530801 3595.413414322709286 13983.63927299176794 
	4391.694198820512611 3595.585507761197277 13991.81889652415521 
	4391.694198820509882 3595.628536874193742 13995.90931058304704 
	4391.694198820507154 3595.639293516776434 13997.95459322289025 
	4391.694198820506244 3595.642366988395224 13999.12333689084153 
	4391.694198820506244 3595.642879225893012 13999.70771052793862 
	4391.694198820506244 3595.642879220281429 13999.99989734577866 
	4508.360865501167609 3595.642879220280975 13999.99989734577866 
	4508.360865501168519 3595.64287917538968 14002.33739188849722 
	4508.360865501182161 3595.610095167518011 14007.012380883265 
	4508.360865501195804 3595.413404777019423 14016.36052034799832 
	4508.360865501252192 3594.725100283144002 14032.71010697733072 
	4508.360865501414992 3592.759715344417145 14056.01151803484754 
	4508.360865501563239 3588.836932951097879 14083.79693096525079 
	4508.360865501721491 3581.538049602855153 14120.49273281364913 
	4508.36086550220989 3568.575883134157266 14165.48629553011415 
	4508.360865502599154 3547.073453795828755 14217.39742267212023 
	4508.360865502993875 3519.89416660656525 14266.57465304041034 
	4508.360865503372224 3487.379679999351538 14312.39957464811232 
	4508.360865503505011 3449.938954880860365 14354.29600037080672 
	4508.360865503610512 3409.594198741404398 14390.34989434258569 
	4508.360865503873356 3367.366058049461117 14420.70972622485169 
	4508.360865503899731 3324.126607949089703 14445.67388097264666 
	4508.360865503953391 3282.408955577375764 14464.49781690096825 
	4508.3608655039925 3243.157814901403981 14478.23150051863922 
	4508.360865504057074 3194.957087956904616 14491.14879084735003 
	4508.360865504077083 3133.147748080944439 14500.46574086515102 
	4508.360865504144385 3058.138034367707405 14500.46578074862373 
	4508.360865504164394 2996.328644613741744 14491.14907255828257 
	4508.36086550418986 2948.127895269760302 14478.23175193822317 
	4508.360865504219873 2912.801925751348335 14465.87136534100318 
	4508.360865504240792 2884.215897631506778 14453.39901609512344 
	4508.360865504248068 2861.954148563741001 14442.16072773388078 
	4508.360865504252615 2840.128108711754976 14430.09797036429882 
	4508.360865504272624 2813.720143073366671 14413.50474875641157 
	4508.360865504275353 2783.607168300919966 14391.28041875451163 
	4508.360865504294452 2759.96731257300371 14370.93653413082029 
	4508.360865504296271 2742.007152480769491 14353.63571422959467 
	4508.360865504299909 2729.03156193229097 14340.16556733183461 
	4508.360865504302637 2718.645905325198783 14328.54394411092835 
	4508.360865504302637 2710.602401953656681 14319.01856278908963 
	4508.360865504304456 2698.806592021493998 14304.5072981048761 
	4508.360865504319918 2674.728651969088332 14271.88581039704513 
	4508.360865504318099 2654.934303775582521 14237.60172368259555 
	4508.360865504319918 2640.697174260522388 14207.55945987061205 
	4508.360865504319918 2633.954031692831904 14192.36330503294994 
	4508.360865504322646 2622.563900438937708 14163.34215780859267 
	4508.360865504324465 2610.299883901738212 14123.58353076582353 
	4508.360865504325375 2602.880156501864349 14086.87949831908372 
	4508.360865504325375 2599.471540963847474 14062.17836031608931 
	4508.360865504325375 2598.075597593443035 14049.78915142014012 
	4508.360865504323556 2597.170054803565563 14039.43901275084318 
	4508.360865504324465 2596.600678362945473 14031.14729062240804 
	4508.360865504324465 2594.969129176026399 14002.10365553636802 
	4508.360865504326284 2595.853202475550006 13966.69382635338297 
	4508.360865504329013 2601.539905917140004 13921.32346876271913 
	4508.360865504330832 2607.724316319123318 13888.63584603577874 
	4508.360865504328103 2617.410979048172521 13852.48490131603467 
	4508.360865504328103 2629.772299161191313 13817.15925102760411 
	4508.360865504324465 2649.7260049750912 13771.42070984351631 
	4508.360865504320827 2680.97898272635075 13717.28695699897253 
	4508.360865504313551 2717.354278446948683 13671.67480945252646 
	4508.360865504309913 2743.477242511337863 13644.89396634189688 
	4508.360865504308094 2755.521122257015122 13633.4360173758887 
	4508.360865504302637 2774.009887323804378 13616.70489568857556 
	4508.36086550428081 2803.28668848194593 13593.35744258115119 
	4508.360865504276262 2841.732884591680886 13568.52626171913653 
	4508.360865504249887 2878.498583801404948 13549.09546569048689 
	4508.360865504238973 2912.801802229907025 13534.12884069718712 
	4508.360865504214416 2948.12771991464615 13521.76808201548192 
	4508.360865504179856 2990.30354751633422 13510.46652342582092 
	4508.360865504170761 3039.542878646025656 13502.10028244125169 
	4508.360865504076173 3095.642773784637939 13498.94996006880137 
	4508.360865504057983 3151.742522788393671 13502.10036130992376 
	4508.360865503994319 3200.982023134833526 13510.46651461721922 
	4508.360865503985224 3243.157605129769308 13521.76844974223786 
	4508.360865503957939 3290.259391159921961 13538.24838661967624 
	4508.360865503908826 3335.313516839170006 13559.94460787945536 
	4508.360865503877903 3372.283976781372985 13583.17657428762323 
	4508.360865503855166 3392.622187411099731 13597.60708621363483 
	4508.360865503853347 3417.3527556474005 13616.58331724345408 
	4508.360865503683272 3449.9390223913515 13645.70359369404832 
	4508.36086550350683 3487.37967566990892 13687.60015490089972 
	4508.360865503263994 3519.89426579869496 13733.42498567363145 
	4508.360865503068453 3547.073448825320156 13782.60233467389116 
	4508.360865502694651 3568.575935450692668 13834.51339245352756 
	4508.360865502063461 3584.130793347510462 13888.50571303633478 
	4508.360865501464104 3591.973830548416572 13934.66767300549873 
	4508.360865501251283 3594.72505973223042 13967.28969111627703 
	4508.360865501192166 3595.413414322708832 13983.63927299176794 
	4508.360865501173976 3595.585507761196823 13991.81889652415521 
	4508.360865501171247 3595.628536874193287 13995.90931058304704 
	4508.360865501168519 3595.639293516775979 13997.95459322289025 
	4508.360865501167609 3595.64236698839477 13999.12333689084153 
	4508.360865501167609 3595.642879225892557 13999.70771052793862 
	4508.360865501167609 3595.642879220280975 13999.99989734577866 
	0 
	
	0 
	0 
	86 0 0.002232142857142857019 0.004464285714285714038 0.008928571428571428076 0.01785714285714285615 0.02678571428571428423 0.0357142857142857123 0.05357142857142856845 0.07142857142857142461 0.08928571428571427382 0.1071428571428571369 0.125 0.1428571428571428492 0.1587301587301587213 0.1746031746031745935 0.1904761904761904656 0.2023809523809523836 0.2142857142857142738 0.238095238095238082 0.2619047619047618625 0.2857142857142856984 0.2976190476190476164 0.3095238095238095344 0.3214285714285713969 0.3273809523809523281 0.3333333333333333148 0.3452380952380952328 0.3571428571428570953 0.3690476190476190133 0.375 0.3809523809523809312 0.3869047619047618625 0.3898809523809523281 0.3928571428571428492 0.4047619047619047672 0.4285714285714285476 0.4305555555555555802 0.4365079365079365115 0.4444444444444444198 0.4603174603174602919 0.476190476190476164 0.4801587301587301182 0.4841269841269840724 0.4880952380952380265 0.4900793650793650036 0.4920634920634920362 0.5158730158730158166 0.5238095238095237249 0.5357142857142855874 0.5476190476190475609 0.5595238095238095344 0.5714285714285713969 0.5952380952380951218 0.6190476190476189577 0.6269841269841269771 0.6309523809523809312 0.6349206349206348854 0.650793650793650702 0.6666666666666666297 0.6785714285714286031 0.6904761904761904656 0.7023809523809523281 0.7142857142857141906 0.7321428571428569843 0.749999999999999889 0.7678571428571427937 0.7857142857142855874 0.7976190476190474499 0.8095238095238094234 0.8333333333333332593 0.8452380952380951218 0.851190476190476053 0.8571428571428570953 0.875 0.8928571428571427937 0.9107142857142856984 0.9285714285714286031 0.9464285714285713969 0.9642857142857143016 0.9821428571428572063 0.9910714285714286031 0.9955357142857143016 0.9977678571428572063 0.9988839285714286031 0.9994419642857143016 0.9997209821428572063 
	0 
	0 
	0 
	F 1 F 0 F 1 F 0 } I I I I #
tcoedge-coedge $-1 -1 $-1 $13 $13 $17 $18 reversed $8 $19 -6.283185307179586232 -1.350498956678269526e-30 #
tcoedge-coedge $-1 -1 $-1 $20 $21 $10 $15 reversed $11 $22 -6.283185307179586232 1.350498956678269526e-30 #
tedge-edge $-1 -1 $-1 $23 -1.350498956678269526e-30 $23 6.283185307179586232 $14 $24 forward @7 unknown 0.0006526963142643236841 #
pcurve $-1 -1 $-1 0 forward { exppc nurbs 2 periodic 5 
	-1.350498956678269526e-30 2 1.570796326794896558 2 3.141592653589793116 2 4.712388980384689674 2 6.283185307179586232 2 
	0 500 1 
	-500 500 0.7071067811865463515 
	-500 0 1 
	-500 -500 0.7071067811865463515 
	0 -500 1 
	500 -500 0.7071067811865463515 
	500 0 1 
	500 500 0.707106781186543798 
	0 500 1 
	0 
	plane 4508.36086550436994 3095.642797989800783 14000.00000000000182 1 -3.897834435702129261e-15 -5.197112580936172875e-15 -5.197112580936172875e-15 0 -1 forward_v I I I I 
	} 0 0 #
tcoedge-coedge $-1 -1 $-1 $21 $20 $13 $18 forward $11 $25 1.350498956678269526e-30 6.283185307179586232 #
tedge-edge $-1 -1 $-1 $26 1.350498956678269526e-30 $26 6.283185307179586232 $17 $27 forward @7 unknown 0.000652696314718752388 #
pcurve $-1 -1 $-1 0 forward { exppc nurbs 2 periodic 5 
	-6.283185307179586232 2 -4.712388980384689674 2 -3.141592653589793116 2 -1.570796326794896558 2 -1.350498956678269526e-30 2 
	0 500 1 
	500 500 0.7071067811865463515 
	500 0 1 
	500 -500 0.7071067811865463515 
	0 -500 1 
	-500 -500 0.7071067811865463515 
	-500 0 1 
	-500 500 0.7071067811865463515 
	0 500 1 
	0 
	plane 4158.360865462385846 3095.642797989802148 14000 -1 3.897834435702129261e-15 -5.197112580936172875e-15 5.197112580936172875e-15 0 -1 reverse_v I I I I 
	} 0 0 #
coedge $-1 -1 $-1 $17 $14 $21 $28 reversed $11 $29 #
coedge $-1 -1 $-1 $14 $17 $20 $28 forward $11 $30 #
pcurve $-1 -1 $-1 0 forward { exppc nubs 1 periodic 2 
	-6.283185307179586232 1 1.350498956678269526e-30 1 
	1 1 
	0 1 
	2.726396620975368931e-13 
	spline forward { ref 0 } I I I I 
	} 0 0 #
tvertex-vertex $-1 -1 $-1 $15 $31 0.0001309056265871089749 #
ellipse-curve $-1 -1 $-1 4508.36086550436994 3095.642797989800783 14000.00000000000182 1 -3.897834435702129261e-15 -5.197112580936172875e-15 1.94891721785106465e-12 500 0 1 I I #
pcurve $-1 -1 $-1 0 forward { exppc nubs 1 periodic 2 
	1.350498956678269526e-30 1 6.283185307179586232 1 
	0 0 
	1 0 
	0 
	spline forward { ref 0 } I I I I 
	} 0 0 #
tvertex-vertex $-1 -1 $-1 $18 $32 0.000130905630296194287 #
ellipse-curve $-1 -1 $-1 4158.360865462385846 3095.642797989802148 14000 1 -3.897834435702129261e-15 5.197112580936172875e-15 1.94891721785106465e-12 500 0 1 I I #
edge $-1 -1 $-1 $26 0 $23 1 $21 $33 forward @7 tangent #
pcurve $-1 -1 $-1 -1 $33 0 0 #
pcurve $-1 -1 $-1 1 $33 1 0 #
point $-1 -1 $-1 4508.360865504371759 3595.642797989800783 14000.00000000000182 #
point $-1 -1 $-1 4158.360865462387665 3595.642797989802148 14000 #
intcurve-curve $-1 -1 $-1 forward { parcur full nubs 3 open 2 
	0 3 1 3 
	4158.360865459430897 3595.642879220281429 13999.99989734577139 
	4275.027532140092262 3595.642879220280975 13999.99989734577139 
	4391.694198820506244 3595.642879220281429 13999.99989734577866 
	4508.360865501167609 3595.642879220280975 13999.99989734577866 
	0 
	
	spline forward { ref 0 } I I I I 
	null_surface 
	nubs 1 open 2 
	0 1 1 1 
	0 0 
	0 1 
	
	nullbs 
	I I 
	0 
	0 
	0 
	surf1 } F 0 F 1 #
End-of-ACIS-data 