700 0 1 0           
4 LibG 19 ASM 222.0.0.1700 NT 24 Wed Oct  5 17:29:54 2016 
1000 9.999999999999999547e-07 1.000000000000000036e-10 
body $-1 -1 $-1 $1 $-1 $-1 #
lump $-1 -1 $-1 $-1 $2 $0 #
shell $-1 -1 $-1 $-1 $-1 $3 $-1 $1 #
face $-1 -1 $-1 $4 $5 $2 $-1 $6 forward single #
face $-1 -1 $-1 $7 $8 $2 $-1 $9 reversed single #
loop $-1 -1 $-1 $-1 $10 $3 #
plane-surface $-1 -1 $-1 6949.628365797209881 2991.123692337424018 14000.00000000000182 0.9552994999999987469 -0.2956397559526667829 -5.197112580936171297e-15 -5.440296557190889487e-15 0 -1 forward_v I I I I #
face $-1 -1 $-1 $-1 $11 $2 $-1 $12 forward single #
loop $-1 -1 $-1 $-1 $13 $4 #
plane-surface $-1 -1 $-1 6606.610865756065323 3060.686575363582961 14000.00000000000364 0.9800499999999991996 -0.1987510943366142258 -5.197112580936169719e-15 -5.302905546590657584e-15 0 -1 forward_v I I I I #
tcoedge-coedge $-1 -1 $-1 $10 $10 $14 $15 forward $5 $16 -8.862649419147888922e-31 6.283185307179586232 #
loop $-1 -1 $-1 $-1 $17 $7 #
spline-surface $-1 -1 $-1 forward { exactsur full nubs 3 3 periodic open none none 85 2 
	0 3 0.002232142857142857019 1 0.004464285714285714038 1 0.008928571428571428076 1 0.01785714285714285615 1 
	0.02678571428571428423 1 0.0357142857142857123 1 0.05357142857142856845 1 0.07142857142857142461 1 0.08928571428571427382 1 
	0.1071428571428571369 1 0.125 1 0.1428571428571428492 1 0.1587301587301587213 1 0.1746031746031745935 1 
	0.1904761904761904656 1 0.2023809523809523836 1 0.2142857142857142738 1 0.238095238095238082 1 0.2619047619047618625 1 
	0.2857142857142856984 1 0.2976190476190476164 1 0.3095238095238095344 1 0.3214285714285713969 1 0.3273809523809523281 1 
	0.3333333333333333148 1 0.3452380952380952328 1 0.3571428571428570953 1 0.3690476190476190133 1 0.375 1 
	0.3809523809523809312 1 0.3869047619047618625 1 0.3928571428571428492 1 0.4047619047619047672 1 0.4166666666666666297 1 
	0.4285714285714285476 1 0.4444444444444444198 1 0.4603174603174602919 1 0.476190476190476164 1 0.4801587301587301182 1 
	0.4841269841269840724 1 0.4880952380952380265 1 0.4900793650793650036 1 0.4920634920634920362 1 0.5158730158730158166 1 
	0.5238095238095237249 1 0.5357142857142855874 1 0.5476190476190475609 1 0.5595238095238095344 1 0.5714285714285713969 1 
	0.5952380952380951218 1 0.6190476190476189577 1 0.6269841269841269771 1 0.6309523809523809312 1 0.6349206349206348854 1 
	0.650793650793650702 1 0.6666666666666666297 1 0.6785714285714286031 1 0.6904761904761904656 1 0.7023809523809523281 1 
	0.7142857142857141906 1 0.7321428571428569843 1 0.749999999999999889 1 0.7678571428571427937 1 0.7857142857142855874 1 
	0.7976190476190474499 1 0.8095238095238094234 1 0.8333333333333332593 1 0.8452380952380951218 1 0.851190476190476053 1 
	0.8571428571428570953 1 0.875 1 0.8928571428571427937 1 0.9107142857142856984 1 0.9285714285714286031 1 
	0.9464285714285713969 1 0.9642857142857143016 1 0.9821428571428572063 1 0.9910714285714286031 1 0.9955357142857143016 1 
	0.9977678571428572063 1 0.9988839285714286031 1 0.9994419642857143016 1 0.9997209821428572063 1 1 3 
	0 3 1 3 
	6705.986425702481029 3550.711638128460436 13999.99989172667665 
	6705.98642569391086 3550.711638086209405 14002.33738626007835 
	6705.979909838779349 3550.679508131555394 14007.01237516137371 
	6705.940817400436572 3550.486741675822032 14016.36051448874787 
	6705.804016139553823 3549.812168912058496 14032.71010080006454 
	6705.413393520506361 3547.885992369430824 14056.01151001117796 
	6704.633736341162148 3544.041470057480183 14083.79692290012827 
	6703.183074360674254 3536.888194868396113 14120.49272008709158 
	6700.606831580576909 3524.184633468771608 14165.48629172864275 
	6696.333192937599961 3503.11114171773761 14217.39738582625432 
	6690.931292685419066 3476.474144552043072 14266.57467716979409 
	6684.468973062082114 3444.608174889114707 14312.39946196465644 
	6677.027600316613643 3407.914453135631902 14354.295978610764 
	6669.009045212794263 3368.374620888958361 14390.34991208175597 
	6660.616147015880415 3326.988887134210927 14420.70970886769283 
	6652.0222612710877 3284.612075313300011 14445.67389594291308 
	6643.73082883999723 3243.72667349753101 14464.49778529339164 
	6635.929624829820568 3205.258608629269929 14478.23158448058712 
	6626.349664341088101 3158.019420802142122 14491.14854837816165 
	6614.065004450157176 3097.443246540566179 14500.46604270132048 
	6599.156730487418827 3023.92992101965001 14500.46567082025831 
	6586.872055677582466 2963.353673193417762 14491.14875650056638 
	6577.292074200884599 2916.114381871750084 14478.23210774764266 
	6570.27101147324538 2881.493226457057062 14465.87139179405494 
	6564.589492801884262 2853.477419086439568 14453.39922848933929 
	6560.164946486856024 2831.659795237208982 14442.16089850819117 
	6555.826993238752948 2810.269165440477082 14430.09816518186017 
	6550.578381205531514 2784.388038898428022 14413.50490905912375 
	6544.593392274179678 2754.875806919648767 14391.28058990200043 
	6539.89493847110316 2731.707533734202116 14370.93672950379914 
	6536.325334784814913 2714.105667921139684 14353.63591658582482 
	6533.74642145946018 2701.388937918164629 14340.16577378713555 
	6531.269423402165557 2689.174756385623368 14326.21983987501881 
	6528.107240982148141 2673.581901961089898 14307.01699614722202 
	6524.426289461338456 2655.430975296283577 14281.92293236134174 
	6520.468808026214901 2635.916468000624263 14250.23329129812009 
	6516.606799466848315 2616.872741468380809 14213.46786072425857 
	6513.073417633954705 2599.449487137142569 14171.29388664791804 
	6510.148468301894354 2585.026439040617788 14123.58342610104955 
	6508.67376451292148 2577.754612673694282 14086.87944850574604 
	6507.996295335744435 2574.413983685970834 14062.17830523071279 
	6507.718851659371467 2573.045897256391072 14049.78909796708103 
	6507.538868823443408 2572.158394327491806 14039.43895795303069 
	6507.425710986441118 2571.600408277029146 14031.14723677523943 
	6507.101378817913428 2570.001112721829486 14002.10359370380684 
	6507.277123053348078 2570.867714933556726 13966.69375928093177 
	6508.407341134346098 2576.440867795739905 13921.32341931761221 
	6509.636499337150781 2582.50189855710596 13888.63577106218327 
	6511.561729777987239 2591.995290781139829 13852.4848942743738 
	6514.018546534616689 2604.109957471806865 13817.1591977784301 
	6517.984461279608695 2623.666049772405586 13771.42092639697148 
	6524.195996014334924 2654.295388628688215 13717.28704108886086 
	6531.42565373119487 2689.945134703086296 13671.67497785857086 
	6536.617603043633608 2715.546854987801908 13644.89405047481523 
	6539.011340847977408 2727.350476713510034 13633.43612106663932 
	6542.685994541735454 2745.470348528640898 13616.70495058858432 
	6548.504784310608557 2774.163045451088692 13593.35746172803192 
	6556.146012095954575 2811.84226083290423 13568.52630966291326 
	6563.45323028250823 2847.874460842416283 13549.09548756423646 
	6570.271032926098997 2881.493332240107065 13534.12887073544698 
	6577.292095821692783 2916.114488482146044 13521.76808997150511 
	6585.674586092895879 2957.448900335908093 13510.46655837476465 
	6595.460957334102204 3005.70590826139869 13502.10023596771862 
	6606.610868074269092 3060.686586762545176 13498.95010203185848 
	6617.760752436843177 3115.667135193548802 13502.10040775866219 
	6627.547155126057987 3163.924298190145237 13510.46648493156499 
	6635.929586650292549 3205.258420357340583 13521.76862787067512 
	6645.291135205772662 3251.420609762637469 13538.24836271377353 
	6654.245692762621729 3295.57590944370304 13559.94458141586802 
	6661.593615002331717 3331.808822847824104 13583.17650301322465 
	6665.635851737981284 3351.741262091915814 13597.60707665454538 
	6670.551083219615066 3375.978475121079555 13616.58327761998407 
	6677.027610310086857 3407.914502413003902 13645.70372496189702 
	6684.469007894648712 3444.60834666425535 13687.60014832276283 
	6690.931287899084964 3476.474120974041853 13733.42507331201887 
	6696.333242982172123 3503.11138852213162 13782.60224938472857 
	6700.606817872847387 3524.184565894014213 13834.51346117462344 
	6703.698394982069658 3539.429262533437395 13888.50569661982809 
	6705.257194873205663 3547.115770275555406 13934.66767848368181 
	6705.804008513905501 3549.812131309459801 13967.28968523515687 
	6705.940819180787003 3550.486750454386765 13983.63926784961586 
	6705.975023076358411 3550.655411300163905 13991.81889091951598 
	6705.983575141212896 3550.697581891143727 13995.90930498694252 
	6705.985713040367955 3550.708123961673209 13997.95458760712245 
	6705.986323895726855 3550.711136115083718 13999.123331274066 
	6705.986425703551504 3550.711638133741872 13999.70770491000076 
	6705.986425702481029 3550.711638128460436 13999.99989172667665 
	6836.473702702694936 3523.398927106842621 13999.99989172667483 
	6836.473702743080139 3523.398927052086037 14002.33738626007653 
	6836.466127669646085 3523.367067677932482 14007.01237516137189 
	6836.420683782717788 3523.175923718842569 14016.36051448874605 
	6836.261651112092295 3522.507030035558273 14032.71010080006272 
	6835.807557253808227 3520.597067411881653 14056.01151001117614 
	6834.901204825811874 3516.784909782231807 14083.79692290012645 
	6833.214822164461111 3509.691850149998118 14120.49272008708977 
	6830.219949301838824 3497.095229063973875 14165.48629172864094 
	6825.251863377838163 3476.199135959410341 14217.3973858262525 
	6818.972176828419833 3449.78637194326484 14266.57467716979227 
	6811.45975920239016 3418.188652973267381 14312.39946196465462 
	6802.809191605182605 3381.80382368128403 14354.29597861076218 
	6793.487655106026978 3342.596841950732596 14390.34991208175416 
	6783.730946981014313 3301.559497543741145 14420.70970886769101 
	6773.740592110588295 3259.53941796081881 14445.67389594291126 
	6764.101835806022791 3218.998194080571466 14464.49778529338982 
	6755.032968050405543 3180.853957728549176 14478.2315844805853 
	6743.896305900781044 3134.012434022436992 14491.14854837815983 
	6729.615435443661227 3073.94619775354613 14500.46604270131866 
	6712.284632803860404 3001.051714468878799 14500.46567082025649 
	6698.003748023888875 2940.985404483068578 14491.14875650056456 
	6686.867064538971135 2894.143777371142278 14478.23210774764084 
	6678.705104804035727 2859.814067528181567 14465.87139179405312 
	6672.100366097663937 2832.034099492068435 14453.39922848933747 
	6666.956848927949068 2810.400138909953967 14442.16089850818935 
	6661.913996643052997 2789.189577692136481 14430.09816518185835 
	6655.812506642884728 2763.526321391752845 14413.50490905912193 
	6648.854983191456995 2734.262526280999737 14391.28058990199861 
	6643.393049977801638 2711.289286207130317 14370.93672950379732 
	6639.243401652002831 2693.835594541700175 14353.635916585823 
	6636.245425189274101 2681.225915477489252 14340.16577378713373 
	6633.365925881284966 2669.114554099950055 14326.21983987501699 
	6629.689901853656011 2653.652962059446054 14307.0169961472202 
	6625.410811521811411 2635.654831752805876 14281.92293236133992 
	6620.810255702916947 2616.304599742511073 14250.23329129811827 
	6616.320687598354198 2597.421185183457055 14213.46786072425675 
	6612.213144500835369 2580.144602074042723 14171.29388664791622 
	6608.812903048971748 2565.842968778950762 14123.58342610104773 
	6607.098564360603632 2558.632357867773408 14086.87944850574422 
	6606.311015228567157 2555.319849135581535 14062.17830523071098 
	6605.988488422465707 2553.963279327077089 14049.78909796707921 
	6605.779253265483931 2553.083248991566961 14039.43895795302888 
	6605.647719020838849 2552.529957249702875 14031.14723677523762 
	6605.270651054082009 2550.944133212762608 14002.10359370380502 
	6605.474968657498721 2551.803436271704868 13966.69375928092995 
	6606.788838600419695 2557.329674713431814 13921.32341931761039 
	6608.217731909699069 2563.339682541150523 13888.63577106218145 
	6610.455801371324014 2572.753159096468607 13852.48489427437198 
	6613.311847779266827 2584.765841372034629 13817.15919777842828 
	6617.922193615850119 2604.157311812175976 13771.42092639696966 
	6625.143090171661242 2634.528806155632537 13717.28704108885904 
	6633.547528485893054 2669.878450993309343 13671.67497785856904 
	6639.583159205642914 2695.264650325177172 13644.89405047481341 
	6642.365863973009255 2706.968909270372933 13633.4361210666375 
	6646.637634409198654 2724.936245817836607 13616.70495058858251 
	6653.401950265182677 2753.387405257686169 13593.3574617280301 
	6662.284849627595577 2790.749431900844229 13568.52630966291144 
	6670.779458751433594 2826.478309324378642 13549.09548756423465 
	6678.705127311704928 2859.814173041775121 13534.12887073544516 
	6686.867083857950092 2894.143884569546572 13521.76808997150329 
	6696.611694718611034 2935.130338622188901 13510.46655837476283 
	6707.988310158289096 2982.981113884560727 13502.1002359677168 
	6720.950036038339022 3037.498958759236302 13498.95010203185666 
	6733.911729879203449 3092.016675010039762 13502.10040775866037 
	6745.288384015348129 3139.867603491877162 13510.46648493156317 
	6755.032924644428931 3180.853770791731222 13521.7686278706733 
	6765.915691530472941 3226.627360399460485 13538.24836271377171 
	6776.325317426620131 3270.410958497171123 13559.9445814158662 
	6784.867241045056289 3306.33886065816796 13583.17650301322283 
	6789.566328163042272 3326.103505496630987 13597.60707665454356 
	6795.280264946134594 3350.136686854451455 13616.58327761998225 
	6802.80920220889584 3381.803872802767728 13645.7037249618952 
	6811.459794283498923 3418.188824684916653 13687.60014832276102 
	6818.972171681411055 3449.786348457398617 13733.42507331201705 
	6825.251914800736813 3476.19938241170621 13782.60224938472675 
	6830.219932586729556 3497.095162257460743 13834.51346117462163 
	6833.813875362289764 3512.211528076565628 13888.50569661982627 
	6835.625979509263743 3519.833328484724007 13934.66767848367999 
	6836.261639220857433 3522.506993522616085 13967.28968523515505 
	6836.420687829597227 3523.175931918415245 13983.63926784961404 
	6836.460445707113649 3523.343173982801545 13991.81889091951416 
	6836.470389607826291 3523.384989025125378 13995.9093049869407 
	6836.472873911982788 3523.395442605455173 13997.95458760712063 
	6836.473584325766751 3523.398429326367022 13999.12333127406418 
	6836.473702697645422 3523.398927113687478 13999.70770490999894 
	6836.473702702694936 3523.398927106842621 13999.99989172667483 
	6966.960985756764785 3496.086214538901004 13999.99989172667665 
	6966.960985695061936 3496.086214510223272 14002.33738626007835 
	6966.952352660799079 3496.054625395345283 14007.01237516137371 
	6966.900554598544659 3495.865104629451707 14016.36051448874787 
	6966.719295851688003 3495.201888664183116 14032.71010080006454 
	6966.201720853421648 3493.308142488625435 14056.01151001117796 
	6965.168685843428648 3489.528346305535706 14083.79692290012827 
	6963.246565053718768 3482.495506687160741 14120.49272008709158 
	6959.833066368893924 3470.005824826404933 14165.48629172863912 
	6954.170529859889029 3449.287131212306576 14217.39738582625432 
	6947.013057397838566 3423.09860024744512 14266.57467716979045 
	6938.450536147819548 3391.769133406341552 14312.39946196465644 
	6928.59078252791187 3355.693194320436305 14354.29597861076218 
	6917.966263942221303 3316.819063282573552 14390.34991208175597 
	6906.845743242894059 3276.130108899310017 14420.70970886769283 
	6895.45891528667471 3234.466762566009038 14445.67389594291308 
	6884.472837583028195 3194.269715989189081 14464.49778529339164 
	6874.136308368697428 3156.449307569253051 14478.23158448058712 
	6861.442939154239866 3110.005449364607557 14491.14854837816165 
	6845.165872463003325 3050.449147427228127 14500.46604270132048 
	6825.412530911140493 2978.17350899336634 14500.46567082025831 
	6809.135441432275911 2918.617135501419853 14491.14875650056638 
	6796.442041345615507 2872.173176327193232 14478.23210774764266 
	6787.139195750029103 2838.134909208520185 14465.87139179405494 
	6779.611228137367107 2810.590782773105275 14453.39922848933929 
	6773.748741933291058 2789.140484993098653 14442.16089850819117 
	6768.00099001050603 2768.109992507747847 14430.09816518186017 
	6761.046623515501778 2742.664606072973584 14413.50490905912375 
	6753.116562188530224 2713.649248687410818 14391.28058990200043 
	6746.891150592935446 2690.87104146234924 14370.93672950379914 
	6742.161454593375311 2673.565524719659152 14353.63591658582482 
	6738.744416557712611 2661.062896194571294 14340.16577378713555 
	6735.462414316263676 2649.054355401901375 14326.21983987501881 
	6731.272549300022547 2633.724025587302094 14307.01699614722202 
	6726.395318967019193 2615.878691942848036 14281.92293236134174 
	6721.151689433166212 2596.692735047066435 14250.23329129812009 
	6716.034559764038931 2577.969632977056335 14213.46786072425857 
	6711.352859941495808 2560.839719929810599 14171.29388664791804 
	6707.477326675469158 2546.659501358074976 14123.58342610104955 
	6705.523358215259577 2539.510104592794505 14086.87944850574604 
	6704.625711279991265 2536.22572067555484 14062.17830523071279 
	6704.258100426590318 2534.880667722522048 14049.78909796708103 
	6704.019630540294202 2534.008105486537261 14039.43895795303069 
	6703.869686086975889 2533.459516687847554 14031.14723677523943 
	6703.439981859047293 2531.887138742125444 14002.10359370380684 
	6703.672825833427851 2532.73915465381242 13966.69375928093177 
	6705.170359168260802 2538.218475729712736 13921.32341931761221 
	6706.798981446757352 2544.17746219156561 13888.63577106218145 
	6709.349898520377792 2553.51102088351854 13852.4848942743738 
	6712.60515292999753 2565.421724274448934 13817.1591977784301 
	6717.859970198463088 2584.648562549085455 13771.42092639697148 
	6726.090188260789546 2614.762222678194121 13717.28704108886086 
	6735.669432692256123 2649.81175976002578 13671.67497785857086 
	6742.548710661618315 2674.982446864732083 13644.89405047481523 
	6745.720398610461416 2686.587338886363341 13633.43612106663932 
	6750.589283073469232 2704.402140859870542 13616.70495058858432 
	6758.299133667093884 2732.611760607318502 13593.35746172803192 
	6768.423692425331865 2769.656601623554252 13568.52630966291326 
	6778.105696741085922 2805.082155374255763 13549.09548756423646 
	6787.139226605860131 2838.135012589551934 13534.12887073544698 
	6796.442075807838592 2872.173279657212333 13521.76808997150511 
	6807.548804188837494 2912.811776692752574 13510.46655837476283 
	6820.515664267129068 2960.256319179571619 13502.1002359677168 
	6835.289201278288601 3014.311331451833667 13498.95010203185666 
	6850.062704714593565 3068.366215492516403 13502.10040775865673 
	6863.029604322911837 3115.81091098586603 13510.46648493155953 
	6874.136256802869866 3156.449122716900092 13521.76862787066966 
	6886.540224340931672 3201.834117043099923 13538.24836271376807 
	6898.404947872408229 3245.24600607370121 13559.94458141586074 
	6908.140888514201833 3280.868892995108581 13583.17650301322101 
	6913.496814494171304 3300.46574637085223 13597.60707665453992 
	6920.009454272329094 3324.294896646505549 13616.58327761997862 
	6928.590796782737925 3355.693242509235461 13645.70372496189339 
	6938.450587713663481 3391.769300906909393 13687.6001483227592 
	6947.013050641191512 3423.098577172753266 13733.42507331201705 
	6954.170602925395542 3449.287372135915575 13782.60224938472311 
	6959.833048988008159 3470.005758189955941 13834.51346117462163 
	6963.929365429798054 3484.993791145164323 13888.50569661982627 
	6965.994756425221567 3492.550888666157334 13934.66767848368181 
	6966.719288774193046 3495.201850921555433 13967.28968523515687 
	6966.900554980223205 3495.865113765311435 13983.63926784961586 
	6966.945878863151847 3496.030933976874167 13991.81889091951598 
	6966.957208116301445 3496.072395126752326 13995.90930498694252 
	6966.960041809428731 3496.082759454619008 13997.95458760712245 
	6966.960850890672191 3496.085720970630973 13999.123331274066 
	6966.96098576447821 3496.086214542485777 13999.70770491000076 
	6966.960985756764785 3496.086214538901004 13999.99989172667665 
	7097.448262756979602 3468.773503517283189 13999.99989172667665 
	7097.448262744231215 3468.773503476099904 14002.33738626007835 
	7097.438570491666724 3468.742184941722371 14007.01237516137371 
	7097.380420980825875 3468.554286672472244 14016.36051448874787 
	7097.176930824226474 3467.896749787682893 14032.71010080006454 
	7096.595884586722605 3466.019217531076265 14056.01151001117796 
	7095.436154328077464 3462.271786030287785 14083.79692290012827 
	7093.278312857504716 3455.299161968763201 14120.49272008709158 
	7089.44618409015311 3442.916420421608109 14165.48629172863912 
	7083.089200300123593 3422.375125453980218 14217.39738582625432 
	7075.053941540834785 3396.410827638667797 14266.57467716979045 
	7065.441322288122137 3365.349611490495136 14312.39946196465644 
	7054.372373816474465 3329.582564866089797 14354.29597861076218 
	7042.444873835446742 3291.041284344349151 14390.34991208175597 
	7029.960543208020681 3250.700719308842054 14420.70970886769283 
	7017.17724612616712 3209.394105213529656 14445.67389594291308 
	7004.843844549044661 3169.541236572231355 14464.49778529339164 
	6993.239651589273308 3132.044656668534572 14478.23158448058712 
	6978.989580713923715 3085.998462584904246 14491.14854837816165 
	6960.716303456498281 3026.952098640210352 14500.46604270132048 
	6938.540433227572976 2955.295302442597404 14500.46567082025831 
	6920.267133778573225 2896.248866791072487 14491.14875650056638 
	6906.017031683692949 2850.202571826587246 14478.23210774764266 
	6895.573289080810355 2816.455750279646963 14465.87139179405494 
	6887.122101433137686 2789.147463178735961 14453.39922848933929 
	6880.540644374375916 2767.880828665845456 14442.16089850819117 
	6874.087993414797893 2747.030404759409066 14430.09816518186017 
	6866.280748952847716 2721.802888566300226 14413.50490905912375 
	6857.378153105800266 2693.035968048763607 14391.28058990200043 
	6850.389262099627558 2670.452793935278805 14370.93672950379914 
	6845.079521460556862 2653.295451340221007 14353.63591658582482 
	6841.243420287520166 2640.899873753897282 14340.16577378713555 
	6837.558916795376717 2628.994153116229427 14326.21983987501881 
	6832.855210171524959 2613.795085685659615 14307.01699614722202 
	6827.379841027487601 2596.102548399371699 14281.92293236134174 
	6821.49313710986371 2577.080866788954154 14250.23329129812009 
	6815.748447895541176 2558.518076692133491 14213.46786072425857 
	6810.492586808373744 2541.534834866711662 14171.29388664791804 
	6806.141761422545642 2527.476031096408406 14123.58342610104955 
	6803.94815806294082 2520.387849786874085 14086.87944850574604 
	6802.940431172813987 2517.131586125165541 14062.17830523071279 
	6802.527737189683648 2515.79804979320852 14049.78909796708103 
	6802.260014982334724 2514.932960150612416 14039.43895795303069 
	6802.09169412137453 2514.389065660521283 14031.14723677523943 
	6801.609254095215874 2512.830159233058566 14002.10359370380684 
	6801.870671437580313 2513.674875991960562 13966.69375928093177 
	6803.551856634337128 2519.10728264740419 13921.32341931761221 
	6805.380214019309278 2525.015246175609718 13888.63577106218145 
	6808.243970113718206 2534.268889198846864 13852.4848942743738 
	6811.898454174652215 2546.077608174675788 13817.1591977784301 
	6817.79770253470997 2565.139824588854935 13771.42092639697148 
	6827.037282418123141 2594.995640205137533 13717.28704108886086 
	6837.791307446961582 2629.745076050247462 13671.67497785857086 
	6845.514266823635808 2654.700242202105983 13644.89405047481523 
	6849.074921735501448 2666.205771443224421 13633.43612106663932 
	6854.540922940940618 2683.868038149064432 13616.70495058858432 
	6863.196299621677099 2711.836120413914159 13593.35746172803192 
	6874.562529956982871 2748.563772691492431 13568.52630966291326 
	6885.431925210021291 2783.686003856216303 13549.09548756423646 
	6895.573320991476976 2816.45585339121817 13534.12887073544698 
	6906.017063844106815 2850.202675744611042 13521.76808997150511 
	6918.485912814563562 2890.493214979031109 13510.46655837476283 
	6933.043017091326874 2937.531524802731838 13502.1002359677168 
	6949.628369242369445 2991.123703448522519 13498.95010203185666 
	6966.213682156964751 3044.715755309005544 13502.10040775865673 
	6980.770833212212892 3091.754216287596137 13510.46648493155953 
	6993.239594797017162 3132.044473151288912 13521.76862787066966 
	7007.164780665641956 3177.040867679921121 13538.24836271376807 
	7020.484572536416636 3220.081055127167474 13559.94458141586074 
	7031.414514556935501 3255.398930805450618 13583.17650301322101 
	7037.427290919242296 3274.827989775566039 13597.60707665453992 
	7044.738635998856807 3298.453108379876085 13616.58327761997862 
	7054.372388681555094 3329.582612898997922 13645.70372496189339 
	7065.441374102520967 3365.349778927569332 13687.6001483227592 
	7075.05393442352397 3396.410804656108667 13733.42507331201705 
	7083.089274743964779 3422.375366025489257 13782.60224938472311 
	7089.446163701894875 3442.916354553401561 13834.51346117462163 
	7094.044845810020888 3457.776056688292556 13888.50569661982627 
	7096.363541061282376 3465.268446875325481 13934.66767848368181 
	7097.176919481146797 3467.896713134711717 13967.28968523515687 
	7097.380423629035249 3468.554295229339914 13983.63926784961586 
	7097.431301493907995 3468.718696659511807 13991.81889091951598 
	7097.44402258291575 3468.759802260733977 13995.90930498694252 
	7097.447202681044473 3468.770078098400973 13997.95458760712245 
	7097.448111320712997 3468.773014181914277 13999.123331274066 
	7097.448262758573037 3468.773503522431383 13999.70770491000076 
	7097.448262756979602 3468.773503517283189 13999.99989172667665 
	0 
	
	0 
	0 
	84 0 0.002232142857142857019 0.004464285714285714038 0.008928571428571428076 0.01785714285714285615 0.02678571428571428423 0.0357142857142857123 0.05357142857142856845 0.07142857142857142461 0.08928571428571427382 0.1071428571428571369 0.125 0.1428571428571428492 0.1587301587301587213 0.1746031746031745935 0.1904761904761904656 0.2023809523809523836 0.2142857142857142738 0.238095238095238082 0.2619047619047618625 0.2857142857142856984 0.2976190476190476164 0.3095238095238095344 0.3214285714285713969 0.3273809523809523281 0.3333333333333333148 0.3452380952380952328 0.3571428571428570953 0.3690476190476190133 0.375 0.3809523809523809312 0.3869047619047618625 0.3928571428571428492 0.4047619047619047672 0.4166666666666666297 0.4285714285714285476 0.4444444444444444198 0.4603174603174602919 0.476190476190476164 0.4801587301587301182 0.4841269841269840724 0.4880952380952380265 0.4900793650793650036 0.4920634920634920362 0.5158730158730158166 0.5238095238095237249 0.5357142857142855874 0.5476190476190475609 0.5595238095238095344 0.5714285714285713969 0.5952380952380951218 0.6190476190476189577 0.6269841269841269771 0.6309523809523809312 0.6349206349206348854 0.650793650793650702 0.6666666666666666297 0.6785714285714286031 0.6904761904761904656 0.7023809523809523281 0.7142857142857141906 0.7321428571428569843 0.749999999999999889 0.7678571428571427937 0.7857142857142855874 0.7976190476190474499 0.8095238095238094234 0.8333333333333332593 0.8452380952380951218 0.851190476190476053 0.8571428571428570953 0.875 0.8928571428571427937 0.9107142857142856984 0.9285714285714286031 0.9464285714285713969 0.9642857142857143016 0.9821428571428572063 0.9910714285714286031 0.9955357142857143016 0.9977678571428572063 0.9988839285714286031 0.9994419642857143016 0.9997209821428572063 
	0 
	0 
	0 
	F 1 F 0 F 1 F 0 } I I I I #
tcoedge-coedge $-1 -1 $-1 $13 $13 $17 $18 reversed $8 $19 -6.283185307179586232 -7.385541182623248358e-31 #
tcoedge-coedge $-1 -1 $-1 $20 $21 $10 $15 reversed $11 $22 -6.283185307179586232 8.862649419147888922e-31 #
tedge-edge $-1 -1 $-1 $23 -8.862649419147888922e-31 $23 6.283185307179586232 $14 $24 forward @7 unknown 0.0006926796468741270446 #
pcurve $-1 -1 $-1 0 forward { exppc nurbs 2 periodic 5 
	-8.862649419147888922e-31 2 1.570796326794896558 2 3.141592653589793116 2 4.712388980384689674 2 6.283185307179586232 2 
	0 500.0000000000009095 1 
	-500 500 0.7071067811865463515 
	-500 -9.094947017729282379e-13 1 
	-499.999999999998181 -500.0000000000009095 0.7071067811865455743 
	1.818989403545856476e-12 -500 1 
	500.000000000001819 -499.9999999999990905 0.7071067811865454633 
	500 0 1 
	500 500.0000000000009095 0.7071067811865463515 
	0 500.0000000000009095 1 
	0 
	plane 6949.628365797209881 2991.123692337424018 14000.00000000000182 0.9552994999999987469 -0.2956397559526667829 -5.197112580936171297e-15 -5.440296557190889487e-15 0 -1 forward_v I I I I 
	} 0 0 #
tcoedge-coedge $-1 -1 $-1 $21 $20 $13 $18 forward $11 $25 7.385541182623248358e-31 6.283185307179586232 #
tedge-edge $-1 -1 $-1 $26 7.385541182623248358e-31 $26 6.283185307179586232 $17 $27 forward @7 unknown 0.0006926794880804048411 #
pcurve $-1 -1 $-1 0 forward { exppc nurbs 2 periodic 5 
	-6.283185307179586232 2 -4.712388980384689674 2 -3.141592653589793116 2 -1.570796326794896558 2 -7.385541182623248358e-31 2 
	-1.818989403545856476e-12 500 1 
	499.999999999998181 500 0.7071067811865455743 
	500 0 1 
	500 -499.9999999999995453 0.7071067811865465735 
	0 -500 1 
	-500 -500.0000000000009095 0.7071067811865455743 
	-500 -9.094947017729282379e-13 1 
	-500.000000000001819 499.9999999999990905 0.7071067811865465735 
	-1.818989403545856476e-12 500 1 
	0 
	plane 6606.610865756065323 3060.686575363582961 14000.00000000000364 -0.9800499999999991996 0.1987510943366142258 5.197112580936169719e-15 -5.302905546590657584e-15 0 -1 reverse_v I I I I 
	} 0 0 #
coedge $-1 -1 $-1 $17 $14 $21 $28 reversed $11 $29 #
coedge $-1 -1 $-1 $14 $17 $20 $28 forward $11 $30 #
pcurve $-1 -1 $-1 0 forward { exppc nubs 1 periodic 2 
	-6.283185307179586232 1 8.862649419147888922e-31 1 
	1 1 
	0 1 
	1.327487796373777331e-11 
	spline forward { ref 0 } I I I I 
	} 0 0 #
tvertex-vertex $-1 -1 $-1 $15 $31 0.0001258032651939370293 #
ellipse-curve $-1 -1 $-1 6949.628365797209881 2991.123692337424018 14000.00000000000182 0.9552994999999987469 -0.2956397559526667829 -5.197112580936171297e-15 147.8198779763333732 477.6497499999995284 4.038967834731580444e-28 1 I I #
pcurve $-1 -1 $-1 0 forward { exppc nubs 1 periodic 2 
	7.385541182623248358e-31 1 6.283185307179586232 1 
	0 0 
	1 0 
	1.01811109157570024e-12 
	spline forward { ref 0 } I I I I 
	} 0 0 #
tvertex-vertex $-1 -1 $-1 $18 $32 0.0001258007387090794157 #
ellipse-curve $-1 -1 $-1 6606.610865756065323 3060.686575363582961 14000.00000000000364 0.9800499999999991996 -0.1987510943366142258 -5.197112580936169719e-15 99.3755471683071363 490.0249999999996362 -1.793662034335765652e-43 1 I I #
edge $-1 -1 $-1 $26 8.795853516106089808e-10 $23 0.9999999848813183601 $21 $33 forward @7 tangent #
pcurve $-1 -1 $-1 -1 $33 0 0 #
pcurve $-1 -1 $-1 1 $33 1 0 #
point $-1 -1 $-1 7097.448243773543254 3468.773442337423603 14000.00000000000182 #
point $-1 -1 $-1 6705.986412924372416 3550.711575363582142 14000.00000000000364 #
intcurve-curve $-1 -1 $-1 forward { parcur full nubs 3 open 2 
	0 3 1 3 
	6705.986425702481029 3550.711638128460436 13999.99989172667665 
	6836.473702702694936 3523.398927106842621 13999.99989172667483 
	6966.960985756764785 3496.086214538901004 13999.99989172667665 
	7097.448262756979602 3468.773503517283189 13999.99989172667665 
	0 
	
	spline forward { ref 0 } I I I I 
	null_surface 
	nubs 1 open 2 
	0 1 1 1 
	0 0 
	0 1 
	
	nullbs 
	I I 
	0 
	0 
	0 
	surf1 } F 8.795853516106089808e-10 F 0.9999999848813183601 #
End-of-ACIS-data 