700 0 1 0           
4 LibG 19 ASM 222.0.0.1700 NT 24 Wed Oct  5 17:29:54 2016 
1000 9.999999999999999547e-07 1.000000000000000036e-10 
body $-1 -1 $-1 $1 $-1 $-1 #
lump $-1 -1 $-1 $-1 $2 $0 #
shell $-1 -1 $-1 $-1 $-1 $3 $-1 $1 #
face $-1 -1 $-1 $4 $5 $2 $-1 $6 forward single #
face $-1 -1 $-1 $7 $8 $2 $-1 $9 reversed single #
loop $-1 -1 $-1 $-1 $10 $3 #
plane-surface $-1 -1 $-1 7283.983190837318944 2887.649777741577509 14000 0.9209960049999985632 -0.389572020009192943 1.039422516187235837e-14 1.128585260461838192e-14 0 -1 forward_v I I I I #
face $-1 -1 $-1 $-1 $11 $2 $-1 $12 forward single #
loop $-1 -1 $-1 $-1 $13 $4 #
plane-surface $-1 -1 $-1 6949.6283657972117 2991.123692337423563 14000.00000000000909 0.9552994999999990799 -0.2956397559526667829 -5.197112580936169719e-15 -5.440296557190885543e-15 0 -1 forward_v I I I I #
tcoedge-coedge $-1 -1 $-1 $10 $10 $14 $15 forward $5 $16 1.063517930496194671e-30 6.283185307179586232 #
loop $-1 -1 $-1 $-1 $17 $7 #
spline-surface $-1 -1 $-1 forward { exactsur full nubs 3 3 periodic open none none 78 2 
	0 3 0.002232142857142857019 1 0.004464285714285714038 1 0.008928571428571428076 1 0.01785714285714285615 1 
	0.0357142857142857123 1 0.04464285714285713691 1 0.05357142857142856845 1 0.0625 1 0.0669642857142857123 1 
	0.07142857142857142461 1 0.08928571428571427382 1 0.1071428571428571369 1 0.125 1 0.1428571428571428492 1 
	0.1587301587301587213 1 0.1746031746031745935 1 0.1825396825396825295 1 0.1865079365079365115 1 0.1904761904761904656 1 
	0.2142857142857142738 1 0.238095238095238082 1 0.2619047619047618625 1 0.2857142857142856984 1 0.3095238095238095344 1 
	0.3214285714285713969 1 0.3244047619047618625 1 0.3273809523809523281 1 0.3333333333333333148 1 0.3571428571428570953 1 
	0.3690476190476190133 1 0.375 1 0.3764880952380952328 1 0.3779761904761904656 1 0.3809523809523809312 1 
	0.3928571428571428492 1 0.4047619047619047672 1 0.4285714285714285476 1 0.4444444444444444198 1 0.4603174603174602919 1 
	0.476190476190476164 1 0.4841269841269840724 1 0.4920634920634920362 1 0.5079365079365079083 1 0.5238095238095237249 1 
	0.5476190476190475609 1 0.5714285714285713969 1 0.5952380952380951218 1 0.6190476190476189577 1 0.6349206349206348854 1 
	0.650793650793650702 1 0.6666666666666666297 1 0.6904761904761904656 1 0.7023809523809523281 1 0.7142857142857141906 1 
	0.7321428571428569843 1 0.749999999999999889 1 0.7678571428571427937 1 0.7857142857142855874 1 0.7976190476190474499 1 
	0.8095238095238094234 1 0.8154761904761904656 1 0.8333333333333332593 1 0.8571428571428570953 1 0.875 1 
	0.8928571428571427937 1 0.9107142857142856984 1 0.9285714285714286031 1 0.9464285714285713969 1 0.9642857142857143016 1 
	0.9821428571428572063 1 0.9910714285714286031 1 0.9955357142857143016 1 0.9977678571428572063 1 0.9988839285714286031 1 
	0.9994419642857143016 1 0.9997209821428572063 1 1 3 
	0 3 1 3 
	7097.448263438253889 3468.773505915971327 14000.00002007334115 
	7097.44826343238492 3468.77350589699563 14002.33751462220425 
	7097.438570168328624 3468.742184093475771 14007.01250315529251 
	7097.380424286928246 3468.554297551354921 14016.36064459074987 
	7097.176915897061917 3467.896701746413328 14032.71022264748353 
	7096.363556277669886 3465.268496227681226 14065.33225536764985 
	7094.508523598072316 3459.274336925836906 14102.26175353379404 
	7091.745567725150067 3450.346409232961832 14138.49040702590355 
	7089.226322350423288 3442.205982247711745 14165.22622603072887 
	7086.760883501845456 3434.239420064420756 14187.07283652039587 
	7084.573584074053542 3427.171608622482381 14204.24894679819954 
	7081.080374891536849 3415.884016482355037 14229.69185725021453 
	7075.053953576913045 3396.410866630950295 14266.57486983383205 
	7065.441342433257887 3365.349676668856318 14312.39973392207321 
	7054.372373487617551 3329.582563865922566 14354.29617897771277 
	7042.444861655891145 3291.041245046727909 14390.35009635554343 
	7029.960571285205333 3250.700810076577454 14420.7100895109761 
	7019.307781888294812 3216.278496500982328 14441.51333255710597 
	7011.557188158252757 3191.23403557849042 14454.13831496908824 
	7007.052680448228784 3176.678638760170998 14460.78582661077053 
	6997.948556037395974 3147.260519841532641 14473.3178084189658 
	6982.644301542923131 3097.807946659289883 14489.28572569235257 
	6960.716223700901537 3026.951840953486681 14500.46571320962357 
	6938.540473961314092 2955.295434086191563 14500.46546899430723 
	6916.612347783997393 2884.439172194669482 14489.2862662411917 
	6898.953637711640113 2827.378656606671484 14470.86115765110117 
	6887.967214601318119 2791.878273817126683 14454.64644823244453 
	6883.008667680534018 2775.855742006775472 14446.37541240216706 
	6879.734058063861085 2765.274509724855307 14440.65309959117803 
	6870.861522690613128 2736.604723489586377 14424.06758137477482 
	6860.173634707446581 2702.068996000901734 14399.41858471984233 
	6850.389393104015653 2670.453217258559107 14370.93618279309703 
	6846.075195113011432 2656.512767435010119 14356.8794530498144 
	6844.129732176146717 2650.226401229396288 14350.23709851748936 
	6842.84505551393886 2646.075230933933199 14345.76804256029027 
	6839.363347943864028 2634.824803906199122 14333.31142582344182 
	6833.950482215057491 2617.334233642109666 14312.0352514674214 
	6825.1895354706121 2589.025023273703027 14271.88547014811957 
	6817.181523388613641 2563.148767513160692 14224.97038815593805 
	6810.492630353614913 2541.534975581351773 14171.29367699092472 
	6806.141685841198523 2527.475786877630526 14123.58349015579734 
	6803.704440120279287 2519.600325030171462 14082.80112835394539 
	6802.482047018853336 2515.650411342672669 14049.80450810626098 
	6801.747236798921222 2513.276022169475254 14016.64278062513586 
	6801.747306734340782 2513.276248151459185 13975.03568836695013 
	6803.46166464631915 2518.815845662132233 13917.07491439971636 
	6807.847634343276695 2532.988211097282601 13852.07138435324305 
	6815.949529059426823 2559.167829418485326 13782.24727477258602 
	6827.037237610752527 2594.995495427508558 13717.28675087967167 
	6839.327579371536558 2634.709225068236265 13665.15894751245651 
	6851.655722067639545 2674.545100712259682 13624.4870157002315 
	6863.196256997389355 2711.835982693359711 13593.35742466769443 
	6877.662210302076346 2758.579756765634556 13561.75288844825991 
	6892.091952711884005 2805.206522725775358 13538.24843241038616 
	6906.017120200845966 2850.202857866166596 13521.76850969448969 
	6918.485918200014567 2890.493232399483986 13510.46669035259583 
	6933.043056976448497 2937.531653703385928 13502.10048901878508 
	6949.62838061817547 2991.123740232416822 13498.95005173547179 
	6966.213731516493681 3044.715914835587228 13502.10037551077949 
	6980.770828908865951 3091.75420241560505 13510.4668019806013 
	6993.23969812501673 3132.044807072179537 13521.7681010853612 
	7001.942808543843057 3160.167131164992043 13532.06890360148827 
	7012.15982114533108 3193.181321013413708 13546.38373950100868 
	7025.341456029814253 3235.775082376888349 13568.89012867457132 
	7040.610068308423251 3285.112485017673862 13604.10231972133988 
	7054.372337187631274 3329.582446567051193 13645.70419843482705 
	7065.441409912862582 3365.349894713033336 13687.60012276283669 
	7075.053950191734657 3396.410855690492554 13733.42522692510647 
	7083.089251365471682 3422.375290581680929 13782.60240689251805 
	7089.446161237521665 3442.916346719206558 13834.51360458800264 
	7094.044838844507467 3457.77603433338254 13888.50583275495956 
	7096.363541124545918 3465.268447263643338 13934.6678079550893 
	7097.176919641579843 3467.896713846353578 13967.28981372169255 
	7097.380424236018371 3468.554297386932376 13983.63939615144773 
	7097.43130213922359 3468.718698941701405 13991.81901923997066 
	7097.444023245161588 3468.759804597846596 13995.90943331526069 
	7097.447203354658086 3468.77008047229765 13997.95471594585251 
	7097.448111983388117 3468.773016520499823 13999.12345960869243 
	7097.448263438987851 3468.77350591834329 13999.70783325473349 
	7097.448263438253889 3468.773505915971327 14000.00002007334115 
	7224.555249291060136 3428.564951824368563 14000.00002007333933 
	7224.555250093435461 3428.56495151022682 14002.33751462220243 
	7224.544527325439049 3428.534005675322078 14007.01250315529069 
	7224.480228275089758 3428.348366233305114 14016.36064459074805 
	7224.255158529574146 3427.698644505104767 14032.71022264748171 
	7223.35566848610415 3425.101893296576236 14065.33225536764803 
	7221.304167623591638 3419.179482987455231 14102.26175353379222 
	7218.24858811428021 3410.358419677639176 14138.49040702590173 
	7215.462535433541234 3402.315429107658019 14165.22622603072705 
	7212.735985867468116 3394.444222979946062 14187.07283652039405 
	7210.317030236787105 3387.461010982909102 14204.24894679819772 
	7206.453868083442103 3376.308523431312096 14229.69185725021271 
	7199.789193490891194 3357.068459818677184 14266.57486983383023 
	7189.158527253123793 3326.379057422670485 14312.39973392207139 
	7176.917259646732418 3291.040061003936444 14354.29617897771095 
	7163.726524322302794 3252.960063767917291 14390.35009635554161 
	7149.9200390535716 3213.10248638168332 14420.71008951097429 
	7138.139033786298569 3179.092190421724808 14441.51333255710415 
	7129.567584786614134 3154.347500881523047 14454.13831496908642 
	7124.586009879302765 3139.966326119716541 14460.78582661076871 
	7114.517689565353976 3110.900325716199404 14473.31780841896398 
	7097.592579766205745 3062.039679092930783 14489.28572569235075 
	7073.342132522205247 2992.031688653688434 14500.46571320962175 
	7048.817782221036396 2921.232976513869744 14500.46546899430541 
	7024.567285048836311 2851.224830470627239 14489.28626624118988 
	7005.038361697713299 2794.847305466338184 14470.86115765109935 
	6992.888394839190369 2759.771841819854671 14454.64644823244271 
	6987.404687580235077 2743.941095390337068 14446.37541240216524 
	6983.783278119681199 2733.486512314949778 14440.65309959117621 
	6973.971045776092069 2705.159897732652098 14424.067581374773 
	6962.151221374557281 2671.037546581243987 14399.41858471984051 
	6951.330750564537084 2639.800192481000067 14370.93618279309521 
	6946.559637261329954 2626.026605367351294 14356.87945304981258 
	6944.408134673057248 2619.815483596893955 14350.23709851748754 
	6942.987403742543393 2615.713999497749228 14345.76804256028845 
	6939.136938852832827 2604.598240413957683 14333.31142582344 
	6933.150826904377027 2587.317016203931871 14312.03525146741958 
	6923.461996884097061 2559.346663198678016 14271.88547014811775 
	6914.60589690694178 2533.780124010639156 14224.97038815593623 
	6907.208598979320413 2512.425037263210925 14171.2936769909229 
	6902.396842458518222 2498.534134319280383 14123.58349015579552 
	6899.701472152061797 2490.752938010060916 14082.80112835394357 
	6898.349622296703274 2486.850301146514539 14049.80450810625916 
	6897.536979230535508 2484.504336058252193 14016.64278062513404 
	6897.537067455464239 2484.504555361017992 13975.03568836694831 
	6899.432979494739811 2489.977850401921387 13917.07491439971454 
	6904.28346235682875 2503.980578437211534 13852.07138435324123 
	6913.243419639215062 2529.846837496331318 13782.24727477258421 
	6925.505407647044194 2565.245663746519767 13717.28675087966985 
	6939.097403226203824 2604.484037281452856 13665.15894751245469 
	6952.731205727468478 2643.843093857524309 13624.48701570022968 
	6965.49397673258045 2680.687622612487303 13593.35742466769261 
	6981.491998263324604 2726.871894630168754 13561.75288844825809 
	6997.449957992648706 2772.940564863506097 13538.24843241038434 
	7012.849928957636621 2817.398310689841765 13521.76850969448788 
	7026.639271432059104 2857.206430363669369 13510.46669035259401 
	7042.738139565444726 2903.681821426378519 13502.10048901878326 
	7061.079987487491962 2956.63243590666707 13498.95005173546997 
	7079.421869252898432 3009.583136055647174 13502.10037551077767 
	7095.520687057011855 3056.058396661208917 13510.46680198059948 
	7109.310113914857538 3095.866741649988853 13521.76810108535938 
	7118.934959472684568 3123.652453642053842 13532.06890360148645 
	7130.234037402497961 3156.271479773804458 13546.38373950100686 
	7144.811721457990643 3198.355412419335607 13568.8901286745695 
	7161.697409338908074 3247.10226882560255 13604.10231972133806 
	7176.917212373205984 3291.039947712535195 13645.70419843482523 
	7189.15860087994588 3326.379273221920357 13687.60012276283487 
	7199.789186661435451 3357.068450136048341 13733.42522692510465 
	7208.675497289770647 3382.72210151888703 13782.60240689251623 
	7215.705657206764045 3403.017290809887982 13834.51360458800082 
	7220.791373427769031 3417.699114866439686 13888.50583275495774 
	7223.355649675113455 3425.101845668368696 13934.66780795508748 
	7224.255163913835531 3427.698656006220972 13967.28981372169073 
	7224.480227543631372 3428.348366317414275 13983.63939615144591 
	7224.536490192658675 3428.51080139556052 13991.81901923996884 
	7224.550560453877551 3428.551414348353319 13995.90943331525887 
	7224.554076662217994 3428.561567481538077 13997.95471594585069 
	7224.555081421845898 3428.564468423317976 13999.12345960869061 
	7224.555249190762879 3428.564951863636452 13999.70783325473167 
	7224.555249291060136 3428.564951824368563 14000.00002007333933 
	7351.662240905270664 3388.356395628700739 14000.00002007334297 
	7351.662240089289298 3388.356395905572299 14002.33751462220607 
	7351.65049653281767 3388.325822856448667 14007.01250315529251 
	7351.580029396077407 3388.142435962294712 14016.36064459075169 
	7351.333422574229189 3387.50057944417631 14032.71022264748171 
	7350.34776835642333 3384.935294871244423 14065.33225536764985 
	7348.099812831769668 3379.084628617147246 14102.2617535337904 
	7344.751619294646844 3370.370426181397761 14138.49040702589809 
	7341.698752944425905 3362.424874350586379 14165.22622603072341 
	7338.711092232701958 3354.649024434814692 14187.07283652039223 
	7336.060488390040518 3347.75040896444898 14204.2489467981959 
	7331.827350842218948 3336.733034190363014 14229.69185725020907 
	7324.524435593942144 3317.726052206949589 14266.5748698338266 
	7312.875708682357981 3287.408439414706663 14312.39973392206593 
	7299.462145648820297 3252.497558199282139 14354.29617897770368 
	7285.008183666706827 3214.87888370227256 14390.35009635553797 
	7269.879511858827755 3175.504160847338881 14420.71008951096701 
	7256.970276403515527 3141.905887731746589 14441.51333255709869 
	7247.577977336181903 3117.46096767409972 14454.13831496907915 
	7242.119340243328224 3103.254013138545815 14460.78582661076325 
	7231.086800031836901 3074.540140012769825 14473.31780841895852 
	7212.540850236257029 3026.27141435799922 14489.2857256923453 
	7185.968034170623469 2957.111538973378174 14500.46571320961448 
	7159.095085710612693 2887.17052068357134 14500.46546899429632 
	7132.522207545229321 2818.010494139927687 14489.2862662411826 
	7111.12308977108205 2762.315952833344454 14470.86115765109025 
	7097.809544570349317 2727.665420963446195 14454.64644823243725 
	7091.800701611107797 2712.026450917155216 14446.37541240215796 
	7087.832465139935266 2701.698526969428713 14440.65309959116894 
	7077.080596756278283 2673.715061788734602 14424.06758137476572 
	7064.12883154994779 2640.006088576502407 14399.41858471983323 
	7052.272116932304925 2609.147164450565015 14370.93618279309339 
	7047.044103907795034 2595.54043435311587 14356.87945304980531 
	7044.686557603972688 2589.40455850201397 14350.2370985174839 
	7043.129760784839164 2585.352764842856232 14345.76804256028299 
	7038.910583552895332 2574.371657277531085 14333.31142582343637 
	7032.351159035417368 2557.299803351958417 14312.03525146741595 
	7021.734520129411067 2529.66828054304051 14271.88547014811229 
	7012.03024698300942 2504.411489069087111 14224.97038815592896 
	7003.924527527309692 2483.315113581208152 14171.29367699091563 
	6998.651989373805918 2469.59248530405057 14123.58349015578824 
	6995.698493331054124 2461.905554953320916 14082.80112835393629 
	6994.217171628502001 2458.050200425695039 14049.80450810625371 
	6993.326726372964004 2455.732648226665788 14016.64278062512676 
	6993.326800239128715 2455.732872773165127 13975.03568836694285 
	6995.40429910230614 2461.139853403697089 13917.07491439970727 
	7000.719289674880201 2474.972946031131414 13852.07138435323577 
	7010.537299683200217 2500.525849421786461 13782.24727477258239 
	7023.973575575375435 2535.495832835343663 13717.28675087966622 
	7038.867217450328098 2574.258853011684096 13665.15894751245469 
	7053.806664591661502 2613.141096058004223 13624.48701570022604 
	7067.791684692263516 2649.539266831956411 13593.35742466768897 
	7085.321770783408283 2695.164038133720624 13561.75288844825445 
	7102.807991764642793 2740.674596596409174 13538.24843241037888 
	7119.682735392539144 2784.59376436145385 13521.76850969448424 
	7134.792642931346563 2823.919621656764775 13510.46669035258856 
	7152.433225305194355 2869.83198799873162 13502.10048901877599 
	7172.531603498353434 2922.141128242475133 13498.95005173546269 
	7192.630011021450628 2974.45035580318563 13502.10037551076857 
	7210.270547807704133 3020.362589956372176 13510.46680198058857 
	7225.380536024509638 3059.68867391983531 13521.76810108535028 
	7235.927110671202172 3087.137776020624642 13532.06890360147736 
	7248.30826251000326 3119.361635302098421 13546.3837395010014 
	7264.281988633425499 3160.93574182368684 13568.89012867456222 
	7282.784751477764075 3209.092052228750163 13604.10231972133261 
	7299.462108788658952 3252.497441104984318 13645.70419843481795 
	7312.875791454493083 3287.408651874144653 13687.60012276283123 
	7324.524434577290776 3317.726040401521004 13733.42522692510283 
	7334.261745694295314 3343.068911550308258 13782.60240689251623 
	7341.965157346981869 3363.118233377329489 13834.51360458800082 
	7347.537913090000984 3377.622193544658785 13888.50583275495956 
	7350.347752046646747 3384.935246329605434 13934.66780795508748 
	7351.333425868761879 3387.500591708448155 13967.28981372169255 
	7351.580030009546135 3388.142435555243537 13983.63939615144955 
	7351.64168836983481 3388.302900152254551 13991.81901923997066 
	7351.657102139154631 3388.343022464011028 13995.9094333152625 
	7351.660956551415438 3388.353052087168635 13997.95471594585251 
	7351.662057743692458 3388.355917812329153 13999.12345960869425 
	7351.662241007267767 3388.356395594091737 13999.70783325473531 
	7351.662240905270664 3388.356395628700739 14000.00002007334297 
	7478.769226758075092 3348.147841537097975 14000.00002007334115 
	7478.769226750338021 3348.147841518803489 14002.33751462220425 
	7478.756453689926275 3348.117644438295429 14007.01250315529069 
	7478.679833384237099 3347.936504644244906 14016.36064459074987 
	7478.411665206739599 3347.302522202868204 14032.7102226474799 
	7477.339880564853956 3344.768691940139433 14065.33225536764803 
	7474.895456857285353 3338.989774678766025 14102.26175353378858 
	7471.254639683772439 3330.382436626076014 14138.49040702589627 
	7467.934966027539303 3322.534321210533562 14165.22622603072159 
	7464.686194598319162 3314.853827350341362 14187.07283652039041 
	7461.803934552768624 3308.039811324877064 14204.24894679819408 
	7457.200844034117836 3297.157541139321438 14229.69185725020725 
	7449.259675507913926 3278.383645394678297 14266.57486983382478 
	7436.592893502215702 3248.437820168522649 14312.39973392206412 
	7422.007031807926069 3213.95505533729829 14354.29617897770186 
	7406.289846333109381 3176.797702423464671 14390.35009635553615 
	7389.838979627184017 3137.905837152447475 14420.71008951096519 
	7375.80152830150837 3104.719581652491797 14441.51333255709687 
	7365.588373964532366 3080.57443297713553 14454.13831496907733 
	7359.652669674391291 3066.541700498094087 14460.78582661076143 
	7347.655933559783989 3038.179945887439771 14473.3178084189567 
	7327.489128459528729 2990.503146791643303 14489.28572569234348 
	7298.593942991916265 2922.191386673583111 14500.46571320961266 
	7269.372393970323174 2853.108063111252704 14500.4654689942945 
	7240.477144810057325 2784.796152415888628 14489.28626624118078 
	7217.207813757144322 2729.784601693014338 14470.86115765108843 
	7202.730724808210653 2695.558988966177367 14454.64644823243543 
	7196.196721510797943 2680.111804300719996 14446.37541240215614 
	7191.881685195744467 2669.910529559525912 14440.65309959116712 
	7180.190119841747219 2642.270236031803051 14424.0675813747639 
	7166.106418217049395 2608.974639156847388 14399.4185847198296 
	7153.213474392817261 2578.494139673008249 14370.93618279308976 
	7147.52854605610537 2565.054272285459774 14356.87945304980167 
	7144.964960100875032 2558.993640869513911 14350.23709851748026 
	7143.272109013435511 2554.991533406674989 14345.76804256027935 
	7138.684174461855946 2544.14509378529192 14333.31142582343273 
	7131.551503724729628 2527.282585913782896 14312.03525146741231 
	7120.006981542888752 2499.989920468017772 14271.88547014810865 
	7109.454620501331192 2475.042845566567394 14224.97038815592532 
	7100.640496153010645 2454.205175263068668 14171.29367699091199 
	7094.907145991121979 2440.650832745701791 14123.5834901557846 
	7091.695525362833905 2433.05816793321128 14082.80112835393265 
	7090.084746906350119 2429.250090229537363 14049.80450810625007 
	7089.116468804576471 2426.960962115443181 14016.64278062512312 
	7089.116560960251263 2426.961179982723934 13975.03568836693921 
	7091.375613950726802 2432.301858143486243 13917.07491439970363 
	7097.155117688434075 2445.965313371059892 13852.07138435323213 
	7107.831190262991186 2471.204857499631089 13782.24727477257875 
	7122.441745611671649 2505.746001154353507 13717.28675087966258 
	7138.637041304999912 2544.033665224898868 13665.15894751245105 
	7154.882148251496801 2582.439089203266576 13624.4870157002224 
	7170.089404427460977 2618.390906751081729 13593.35742466768716 
	7189.151558744663816 2663.456175998252093 13561.75288844825263 
	7208.16599704541477 2708.408638734137185 13538.24843241037706 
	7226.515544149337984 2751.78921718512629 13521.76850969448242 
	7242.945996163399286 2790.63281962094743 13510.46669035258674 
	7262.12830789419877 2835.982155721721028 13502.10048901877417 
	7283.983210367678112 2887.649823916722653 13498.95005173546087 
	7305.838148757863564 2939.317577023242848 13502.10037551076675 
	7325.020405955858223 2984.66678420197286 13510.46680198058675 
	7341.450951814358632 3023.510608497641442 13521.76810108534846 
	7352.919261600050959 3050.623098497683714 13532.06890360147554 
	7366.382478767178327 3082.451794062486442 13546.38373950099958 
	7383.752254061609165 3123.516071866131824 13568.8901286745604 
	7403.872092508255264 3171.081836036676577 13604.10231972133079 
	7422.00698397423912 3213.954942250466047 13645.70419843481613 
	7436.592982421580928 3248.438030383029854 13687.60012276282941 
	7449.259671046995209 3278.383634847075427 13733.42522692510101 
	7459.847991618597007 3303.415722487512994 13782.60240689251441 
	7468.224653316226977 3323.219177468010002 13834.513604587999 
	7474.284447673263458 3337.545274077715021 13888.50583275495774 
	7477.339860597214283 3344.768644734330792 13934.66780795508566 
	7478.411670141016657 3347.302533868315095 13967.28981372169073 
	7478.679833317158227 3347.936504485725436 13983.63939615144773 
	7478.746876423268986 3348.095002606113667 13991.81901923996884 
	7478.763639347868775 3348.134632214517751 13995.90943331526069 
	7478.767829858974437 3348.144539096409062 13997.95471594585069 
	7478.76902718214842 3348.147369715147306 13999.12345960869243 
	7478.769226759041885 3348.147841539384899 13999.70783325473349 
	7478.769226758075092 3348.147841537097975 14000.00002007334115 
	0 
	
	0 
	0 
	77 0 0.002232142857142857019 0.004464285714285714038 0.008928571428571428076 0.01785714285714285615 0.0357142857142857123 0.04464285714285713691 0.05357142857142856845 0.0625 0.0669642857142857123 0.07142857142857142461 0.08928571428571427382 0.1071428571428571369 0.125 0.1428571428571428492 0.1587301587301587213 0.1746031746031745935 0.1825396825396825295 0.1865079365079365115 0.1904761904761904656 0.2142857142857142738 0.238095238095238082 0.2619047619047618625 0.2857142857142856984 0.3095238095238095344 0.3214285714285713969 0.3244047619047618625 0.3273809523809523281 0.3333333333333333148 0.3571428571428570953 0.3690476190476190133 0.375 0.3764880952380952328 0.3779761904761904656 0.3809523809523809312 0.3928571428571428492 0.4047619047619047672 0.4285714285714285476 0.4444444444444444198 0.4603174603174602919 0.476190476190476164 0.4841269841269840724 0.4920634920634920362 0.5079365079365079083 0.5238095238095237249 0.5476190476190475609 0.5714285714285713969 0.5952380952380951218 0.6190476190476189577 0.6349206349206348854 0.650793650793650702 0.6666666666666666297 0.6904761904761904656 0.7023809523809523281 0.7142857142857141906 0.7321428571428569843 0.749999999999999889 0.7678571428571427937 0.7857142857142855874 0.7976190476190474499 0.8095238095238094234 0.8154761904761904656 0.8333333333333332593 0.8571428571428570953 0.875 0.8928571428571427937 0.9107142857142856984 0.9285714285714286031 0.9464285714285713969 0.9642857142857143016 0.9821428571428572063 0.9910714285714286031 0.9955357142857143016 0.9977678571428572063 0.9988839285714286031 0.9994419642857143016 0.9997209821428572063 
	0 
	0 
	0 
	F 1 F 0 F 1 F 0 } I I I I #
tcoedge-coedge $-1 -1 $-1 $13 $13 $17 $18 reversed $8 $19 -6.283185307179586232 9.158071067197001107e-31 #
tcoedge-coedge $-1 -1 $-1 $20 $21 $10 $15 reversed $11 $22 -6.283185307179586232 -1.063517930496194671e-30 #
tedge-edge $-1 -1 $-1 $23 1.063517930496194671e-30 $23 6.283185307179586232 $14 $24 forward @7 unknown 0.0007715744131595093404 #
pcurve $-1 -1 $-1 0 forward { exppc nurbs 2 periodic 5 
	1.063517930496194671e-30 2 1.570796326794896558 2 3.141592653589793116 2 4.712388980384689674 2 6.283185307179586232 2 
	1.818989403545856476e-12 500 1 
	-499.999999999998181 500.000000000001819 0.7071067811865469066 
	-500 2.728484105318784714e-12 1 
	-500.000000000001819 -499.999999999998181 0.7071067811865447972 
	-1.818989403545856476e-12 -499.9999999999990905 1 
	499.999999999998181 -500.0000000000027285 0.7071067811865469066 
	500 -2.728484105318784714e-12 1 
	500.000000000001819 499.9999999999972715 0.7071067811865447972 
	1.818989403545856476e-12 500 1 
	0 
	plane 7283.983190837318944 2887.649777741577509 14000 0.9209960049999985632 -0.389572020009192943 1.039422516187235837e-14 1.128585260461838192e-14 0 -1 forward_v I I I I 
	} 0 0 #
tcoedge-coedge $-1 -1 $-1 $21 $20 $13 $18 forward $11 $25 -9.158071067197001107e-31 6.283185307179586232 #
tedge-edge $-1 -1 $-1 $26 -9.158071067197001107e-31 $26 6.283185307179586232 $17 $27 forward @7 unknown 0.0007715744705317428235 #
pcurve $-1 -1 $-1 0 forward { exppc nurbs 2 periodic 5 
	-6.283185307179586232 2 -4.712388980384689674 2 -3.141592653589793116 2 -1.570796326794896558 2 9.158071067197001107e-31 2 
	0 500 1 
	500 500.0000000000009095 0.7071067811865452413 
	500 9.094947017729282379e-13 1 
	500.000000000001819 -499.9999999999990905 0.7071067811865454633 
	1.818989403545856476e-12 -500 1 
	-499.999999999998181 -500.0000000000009095 0.7071067811865446862 
	-500 -9.094947017729282379e-13 1 
	-500 499.9999999999990905 0.7071067811865463515 
	0 500 1 
	0 
	plane 6949.6283657972117 2991.123692337423563 14000.00000000000909 -0.9552994999999990799 0.2956397559526667829 5.197112580936169719e-15 -5.440296557190885543e-15 0 -1 reverse_v I I I I 
	} 0 0 #
coedge $-1 -1 $-1 $17 $14 $21 $28 reversed $11 $29 #
coedge $-1 -1 $-1 $14 $17 $20 $28 forward $11 $30 #
pcurve $-1 -1 $-1 0 forward { exppc nubs 1 periodic 2 
	-6.283185307179586232 1 -1.063517930496194671e-30 1 
	1 1 
	0 1 
	3.77473965539825048e-12 
	spline forward { ref 0 } I I I I 
	} 0 0 #
tvertex-vertex $-1 -1 $-1 $15 $31 6.951063727355956932e-05 #
ellipse-curve $-1 -1 $-1 7283.983190837318944 2887.649777741577509 14000 0.9209960049999985632 -0.389572020009192943 1.039422516187235837e-14 194.7860100045965055 460.4980024999992452 -7.697501598101532793e-43 1 I I #
pcurve $-1 -1 $-1 0 forward { exppc nubs 1 periodic 2 
	-9.158071067197001107e-31 1 6.283185307179586232 1 
	0 0 
	1 0 
	5.701978210994319322e-12 
	spline forward { ref 0 } I I I I 
	} 0 0 #
tvertex-vertex $-1 -1 $-1 $18 $32 6.951167248240327882e-05 #
ellipse-curve $-1 -1 $-1 6949.6283657972117 2991.123692337423563 14000.00000000000909 0.9552994999999990799 -0.2956397559526667829 -5.197112580936169719e-15 147.8198779763334016 477.6497499999994716 7.174648137343061013e-43 1 I I #
edge $-1 -1 $-1 $26 0 $23 1 $21 $33 forward @7 tangent #
pcurve $-1 -1 $-1 -1 $33 0 0 #
pcurve $-1 -1 $-1 1 $33 1 0 #
point $-1 -1 $-1 7478.769200841915335 3348.147780241576584 14000 #
point $-1 -1 $-1 7097.448243773545073 3468.773442337423148 14000.00000000000909 #
intcurve-curve $-1 -1 $-1 forward { parcur full nubs 3 open 2 
	0 3 1 3 
	7097.448263438253889 3468.773505915971327 14000.00002007334115 
	7224.555249291060136 3428.564951824368563 14000.00002007333933 
	7351.662240905270664 3388.356395628700739 14000.00002007334297 
	7478.769226758075092 3348.147841537097975 14000.00002007334115 
	0 
	
	spline forward { ref 0 } I I I I 
	null_surface 
	nubs 1 open 2 
	0 1 1 1 
	0 0 
	0 1 
	
	nullbs 
	I I 
	0 
	0 
	0 
	surf1 } I I #
End-of-ACIS-data 