700 0 1 0           
4 LibG 19 ASM 222.0.0.1700 NT 24 Wed Oct  5 17:29:54 2016 
1000 9.999999999999999547e-07 1.000000000000000036e-10 
body $-1 -1 $-1 $1 $-1 $-1 #
lump $-1 -1 $-1 $-1 $2 $0 #
shell $-1 -1 $-1 $-1 $-1 $3 $-1 $1 #
face $-1 -1 $-1 $4 $5 $2 $-1 $6 forward single #
face $-1 -1 $-1 $7 $8 $2 $-1 $9 reversed single #
loop $-1 -1 $-1 $-1 $10 $3 #
plane-surface $-1 -1 $-1 5908.360865672306318 3095.642797989795326 14000.00000000000182 1 -3.897834435702129261e-15 5.197112580936172875e-15 5.197112580936172875e-15 0 -1 forward_v I I I I #
face $-1 -1 $-1 $-1 $11 $2 $-1 $12 forward single #
loop $-1 -1 $-1 $-1 $13 $4 #
plane-surface $-1 -1 $-1 5558.360865630322223 3095.642797989796691 14000.00000000000364 1 -3.897834435702129261e-15 -5.197112580936172875e-15 -5.197112580936172875e-15 0 -1 forward_v I I I I #
tcoedge-coedge $-1 -1 $-1 $10 $10 $14 $15 forward $5 $16 1.350498956678269526e-30 6.283185307179586232 #
loop $-1 -1 $-1 $-1 $17 $7 #
spline-surface $-1 -1 $-1 forward { exactsur full nubs 3 3 periodic open none none 90 2 
	0 3 0.001116071428571428509 1 0.002232142857142857019 1 0.004464285714285714038 1 0.008928571428571428076 1 
	0.01785714285714285615 1 0.0357142857142857123 1 0.05357142857142856845 1 0.07142857142857142461 1 0.08928571428571427382 1 
	0.1071428571428571369 1 0.1160714285714285754 1 0.125 1 0.1428571428571428492 1 0.1587301587301587213 1 
	0.1746031746031745935 1 0.1904761904761904656 1 0.2023809523809523836 1 0.2142857142857142738 1 0.238095238095238082 1 
	0.2619047619047618625 1 0.2857142857142856984 1 0.2976190476190476164 1 0.3095238095238095344 1 0.3154761904761904656 1 
	0.3214285714285713969 1 0.3333333333333333148 1 0.3452380952380952328 1 0.3571428571428570953 1 0.3690476190476190133 1 
	0.375 1 0.3779761904761904656 1 0.3809523809523809312 1 0.3869047619047618625 1 0.3928571428571428492 1 
	0.4047619047619047672 1 0.4166666666666666297 1 0.4285714285714285476 1 0.4444444444444444198 1 0.4603174603174602919 1 
	0.476190476190476164 1 0.4801587301587301182 1 0.4821428571428570953 1 0.4841269841269840724 1 0.4861111111111110494 1 
	0.4880952380952380265 1 0.4900793650793650036 1 0.4910714285714284921 1 0.4915674603174602364 1 0.491815476190476164 1 
	0.4920634920634920362 1 0.5158730158730158166 1 0.5238095238095237249 1 0.5357142857142855874 1 0.5476190476190475609 1 
	0.5595238095238095344 1 0.5714285714285713969 1 0.5952380952380951218 1 0.6190476190476189577 1 0.6349206349206348854 1 
	0.650793650793650702 1 0.6666666666666666297 1 0.6904761904761904656 1 0.7023809523809523281 1 0.7142857142857141906 1 
	0.7321428571428569843 1 0.749999999999999889 1 0.7678571428571427937 1 0.7857142857142855874 1 0.8095238095238094234 1 
	0.8214285714285713969 1 0.8333333333333332593 1 0.8452380952380951218 1 0.8571428571428570953 1 0.875 1 
	0.8928571428571427937 1 0.9107142857142856984 1 0.9285714285714286031 1 0.9464285714285713969 1 0.9642857142857143016 1 
	0.9732142857142858094 1 0.9821428571428572063 1 0.9910714285714286031 1 0.9955357142857143016 1 0.9977678571428572063 1 
	0.9988839285714286031 1 0.9994419642857143016 1 0.9997209821428572063 1 0.9998604910714286031 1 1 3 
	0 3 1 3 
	5558.360865748417382 3595.642812619673805 14000.00002344490895 
	5558.360865748412834 3595.642812617101754 14001.16877070130613 
	5558.360865748309152 3595.634617258260278 14003.50626519387151 
	5558.360865748209108 3595.585441241383705 14008.18102396248833 
	5558.360865747768003 3595.413346744946011 14016.36064637851268 
	5558.360865746127274 3594.724991963449156 14032.71022513630669 
	5558.360865740886766 3591.973741754599814 14065.33222313031547 
	5558.360865724093856 3584.130717215327422 14111.49414880404402 
	5558.360865710634243 3568.575720887381976 14165.48636840648396 
	5558.360865695812208 3547.073436371383195 14217.39746918512174 
	5558.36086568463088 3519.894161419695592 14266.57473573014431 
	5558.360865672598266 3492.79862167706915 14304.7620462989762 
	5558.360865669719715 3468.659343603612342 14333.34785482824191 
	5558.360865665619713 3442.956071206069282 14360.53605008190243 
	5558.360865663576988 3409.59418381300884 14390.34993036428205 
	5558.360865654292866 3367.365963387388547 14420.70968719004668 
	5558.360865653501605 3324.126537261099202 14445.67388050305453 
	5558.360865651691711 3282.408864262126826 14464.49776220806598 
	5558.360865650291998 3243.157742837856858 14478.23156018340342 
	5558.360865648563959 3194.956950913412584 14491.14851511669258 
	5558.360865646501225 3133.147683084981509 14500.46601085602742 
	5558.360865643066063 3058.137923138594488 14500.46559632353819 
	5558.360865640454904 2996.328571619770628 14491.14871764058262 
	5558.360865639928306 2948.127692034468055 14478.23198119350309 
	5558.360865638709583 2918.689396747357478 14467.93155941490477 
	5558.360865638416726 2895.650079185782033 14458.38811386597627 
	5558.360865638099312 2872.9836016570639 14447.99021822571376 
	5558.360865637208008 2845.409437160496509 14433.41682413528542 
	5558.360865636270319 2813.719854263912111 14413.50492538671824 
	5558.360865635994742 2783.606884495806753 14391.28057875926243 
	5558.360865635595474 2759.966986860383713 14370.93672557852369 
	5558.36086563552999 2744.251844898888066 14355.7985038727893 
	5558.360865635466325 2735.519018798680918 14346.90083846780362 
	5558.360865635461778 2726.954098615782186 14337.84143438226602 
	5558.360865635364462 2716.568408325658311 14326.21982893980021 
	5558.360865635320806 2700.658145868430438 14307.01698059585578 
	5558.360865635137088 2682.13774538674943 14281.92290847675213 
	5558.360865635052505 2662.22597100728899 14250.23327041436823 
	5558.360865634965194 2642.794635482642207 14213.46781611718689 
	5558.360865634890615 2625.016579342969635 14171.29387580210096 
	5558.36086563482786 2610.300130812468524 14123.58333131319887 
	5558.360865634866968 2602.880153738923582 14086.8793640164331 
	5558.360865634876063 2599.755616246006866 14064.23663783307347 
	5558.360865634878792 2598.773571347406232 14055.9836074076502 
	5558.36086563488243 2598.114275717604414 14049.78513045375439 
	5558.360865634886068 2597.532294751141308 14043.57891759897757 
	5558.360865634890615 2597.027733383116356 14037.36593134511168 
	5558.360865634896072 2596.671836487267683 14032.18360339801802 
	5558.360865634898801 2596.456647515864461 14028.55385640469649 
	5558.360865634897891 2596.357532146578251 14026.73850614055118 
	5558.360865634898801 2596.303329911218043 14025.70103492326052 
	5558.360865634867878 2595.014337298944611 14000.28092688413017 
	5558.360865634790571 2595.853172189537872 13966.69364022109403 
	5558.360865634818765 2601.539722323836031 13921.32329489632684 
	5558.360865634856054 2607.724136523435845 13888.63562563704727 
	5558.360865634938818 2617.41078120383645 13852.4847471076082 
	5558.360865635059781 2629.772009325144609 13817.15900294798666 
	5558.360865635243499 2649.726308874598544 13771.42079912107147 
	5558.36086563598019 2680.978889149075258 13717.28659535846964 
	5558.360865636778726 2722.551253891481792 13665.15895788899979 
	5558.360865637485404 2764.250973644849637 13624.48693257276136 
	5558.360865637769166 2803.28684189926571 13593.35737652993157 
	5558.360865638438554 2852.217812563280404 13561.75280784757524 
	5558.360865639735493 2901.026345693630446 13538.24831803697816 
	5558.36086564037214 2948.128141695182876 13521.76839660443875 
	5558.360865641197051 2990.303800454515567 13510.46651760294844 
	5558.360865642858698 3039.543200194912515 13502.1004240210932 
	5558.360865644806836 3095.643082204235725 13498.94961455682642 
	5558.360865646996899 3151.742704849086294 13502.10066073301641 
	5558.360865649872721 3213.292481397728352 13512.55667044661095 
	5558.3608656532233 3267.049651248631108 13529.13948884746424 
	5558.360865654130976 3312.787028574432952 13549.09584814441405 
	5558.360865655952693 3345.876181577345506 13566.58335454083135 
	5558.360865658076364 3377.565604210638867 13586.495509752207 
	5558.360865660213676 3412.697609796031429 13612.423566810392 
	5558.360865666255449 3449.938958471808292 13645.70406383795307 
	5558.360865670329076 3487.379662860461849 13687.60048030022153 
	5558.360865684997407 3519.894148274600411 13733.42537424241709 
	5558.360865699141868 3547.073420535880814 13782.60257866990105 
	5558.360865713248131 3568.575841946043056 13834.51368117206221 
	5558.36086573018747 3581.537995785203748 13879.5072157450013 
	5558.360865735651714 3588.836875632150623 13916.20300891425359 
	5558.360865740569352 3592.759654465795393 13943.98841423805607 
	5558.360865745981755 3594.725035615625984 13967.28981731367094 
	5558.36086574771889 3595.413338833920079 13983.63940139549959 
	5558.360865748237302 3595.585442571084968 13991.81902275133507 
	5558.360865748370088 3595.628469964831311 13995.90943679331576 
	5558.360865748405558 3595.639226960414362 13997.95471933814042 
	5558.360865748416472 3595.641916204351674 13998.97737004045121 
	5558.360865748418291 3595.642684568236746 13999.56174322344486 
	5558.360865748418291 3595.642812619995311 13999.85393003785975 
	5558.360865748417382 3595.642812619673805 14000.00002344490895 
	5675.027532429078747 3595.64281261967335 14000.00002344490895 
	5675.027532429074199 3595.642812617101299 14001.16877070130613 
	5675.027532428970517 3595.634617258259823 14003.50626519387151 
	5675.027532428870472 3595.585441241383251 14008.18102396248833 
	5675.027532428429367 3595.413346744945557 14016.36064637851268 
	5675.027532426788639 3594.724991963448701 14032.71022513630669 
	5675.027532421548131 3591.973741754599359 14065.33222313031547 
	5675.02753240475613 3584.130717215326968 14111.49414880404402 
	5675.027532391296518 3568.575720887381522 14165.48636840648396 
	5675.027532376475392 3547.073436371382741 14217.39746918512174 
	5675.027532365294064 3519.894161419695138 14266.57473573014431 
	5675.027532353261449 3492.798621677068695 14304.7620462989762 
	5675.027532350383808 3468.659343603611887 14333.34785482824191 
	5675.027532346283806 3442.956071206068827 14360.53605008190243 
	5675.027532344241081 3409.594183813008385 14390.34993036428205 
	5675.027532334956959 3367.365963387388092 14420.70968719004668 
	5675.027532334165699 3324.126537261098747 14445.67388050305453 
	5675.027532332356714 3282.408864262126372 14464.49776220806598 
	5675.027532330957001 3243.157742837856404 14478.23156018340342 
	5675.027532329228961 3194.956950913412129 14491.14851511669258 
	5675.027532327166227 3133.147683084981054 14500.46601085602742 
	5675.027532323731066 3058.137923138594033 14500.46559632353819 
	5675.027532321119907 2996.328571619770173 14491.14871764058262 
	5675.027532320593309 2948.1276920344676 14478.23198119350309 
	5675.027532319373677 2918.689396747357023 14467.93155941490477 
	5675.027532319081729 2895.650079185781578 14458.38811386597627 
	5675.027532318763406 2872.983601657063446 14447.99021822571376 
	5675.027532317872101 2845.409437160496054 14433.41682413528542 
	5675.027532316934412 2813.719854263911657 14413.50492538671824 
	5675.027532316658835 2783.606884495806298 14391.28057875926243 
	5675.027532316259567 2759.966986860383258 14370.93672557852369 
	5675.027532316194083 2744.251844898887612 14355.7985038727893 
	5675.027532316129509 2735.519018798680463 14346.90083846780362 
	5675.027532316125871 2726.954098615781731 14337.84143438226602 
	5675.027532316027646 2716.568408325657856 14326.21982893980021 
	5675.02753231598399 2700.658145868429983 14307.01698059585578 
	5675.027532315800272 2682.137745386748975 14281.92290847675213 
	5675.027532315715689 2662.225971007288535 14250.23327041436823 
	5675.027532315628378 2642.794635482641752 14213.46781611718689 
	5675.027532315552889 2625.01657934296918 14171.29387580210096 
	5675.027532315490134 2610.300130812468069 14123.58333131319887 
	5675.027532315529243 2602.880153738923127 14086.8793640164331 
	5675.027532315538338 2599.755616246006412 14064.23663783307347 
	5675.027532315540157 2598.773571347405777 14055.9836074076502 
	5675.027532315543795 2598.114275717603959 14049.78513045375439 
	5675.027532315547433 2597.532294751140853 14043.57891759897757 
	5675.02753231555198 2597.027733383115901 14037.36593134511168 
	5675.027532315557437 2596.671836487267228 14032.18360339801802 
	5675.027532315560165 2596.456647515864006 14028.55385640469649 
	5675.027532315559256 2596.357532146577796 14026.73850614055118 
	5675.027532315560165 2596.303329911217588 14025.70103492326052 
	5675.027532315529243 2595.014337298944156 14000.28092688413017 
	5675.027532315451936 2595.853172189537418 13966.69364022109403 
	5675.02753231547922 2601.539722323835576 13921.32329489632684 
	5675.02753231551651 2607.724136523435391 13888.63562563704727 
	5675.027532315599274 2617.410781203835995 13852.4847471076082 
	5675.027532315720237 2629.772009325144154 13817.15900294798666 
	5675.027532315903045 2649.726308874598089 13771.42079912107147 
	5675.027532316639736 2680.978889149074803 13717.28659535846964 
	5675.027532317437363 2722.551253891481338 13665.15895788899979 
	5675.02753231814404 2764.250973644849182 13624.48693257276136 
	5675.027532318427802 2803.286841899265255 13593.35737652993157 
	5675.027532319096281 2852.217812563279949 13561.75280784757524 
	5675.02753232039413 2901.026345693629992 13538.24831803697816 
	5675.027532321029867 2948.128141695182421 13521.76839660443875 
	5675.027532321855688 2990.303800454515113 13510.46651760294844 
	5675.027532323516425 3039.54320019491206 13502.1004240210932 
	5675.027532325464563 3095.64308220423527 13498.94961455682642 
	5675.027532327654626 3151.74270484908584 13502.10066073301641 
	5675.027532330530448 3213.292481397727897 13512.55667044661095 
	5675.027532333881027 3267.049651248630653 13529.13948884746424 
	5675.027532334788702 3312.787028574432497 13549.09584814441405 
	5675.02753233661133 3345.876181577345051 13566.58335454083135 
	5675.027532338735 3377.565604210638412 13586.495509752207 
	5675.027532340872312 3412.697609796030974 13612.423566810392 
	5675.027532346914086 3449.938958471807837 13645.70406383795307 
	5675.027532350988622 3487.379662860461394 13687.60048030022153 
	5675.027532365656953 3519.894148274599956 13733.42537424241709 
	5675.027532379802324 3547.073420535880359 13782.60257866990105 
	5675.027532393908587 3568.575841946042601 13834.51368117206221 
	5675.027532410847925 3581.537995785203293 13879.5072157450013 
	5675.02753241631217 3588.836875632150168 13916.20300891425359 
	5675.027532421229807 3592.759654465794938 13943.98841423805607 
	5675.02753242664312 3594.725035615625529 13967.28981731367094 
	5675.027532428380255 3595.413338833919624 13983.63940139549959 
	5675.027532428898667 3595.585442571084513 13991.81902275133507 
	5675.027532429031453 3595.628469964830856 13995.90943679331576 
	5675.027532429066923 3595.639226960413907 13997.95471933814042 
	5675.027532429077837 3595.641916204351219 13998.97737004045121 
	5675.027532429079656 3595.642684568236291 13999.56174322344486 
	5675.027532429079656 3595.642812619994857 13999.85393003785975 
	5675.027532429078747 3595.64281261967335 14000.00002344490895 
	5791.69419911717614 3595.642812619670622 14000.00002344490895 
	5791.694199117170683 3595.642812617098116 14001.16877070130613 
	5791.694199117058815 3595.634617258258913 14003.50626519387151 
	5791.694199116953314 3595.585441241381432 14008.18102396248833 
	5791.694199116484015 3595.413346744943738 14016.36064637851268 
	5791.694199114742332 3594.724991963446882 14032.71022513630669 
	5791.694199109170768 3591.973741754597086 14065.33222313031547 
	5791.694199091320115 3584.130717215325603 14111.49414880404402 
	5791.694199077013764 3568.575720887379703 14165.48636840648396 
	5791.694199061259496 3547.073436371381376 14217.39746918512174 
	5791.694199049375129 3519.894161419694228 14266.57473573014431 
	5791.694199036585815 3492.798621677067331 14304.7620462989762 
	5791.694199033524455 3468.659343603610523 14333.34785482824191 
	5791.694199029167066 3442.956071206067008 14360.53605008190243 
	5791.694199026995193 3409.594183813007476 14390.34993036428205 
	5791.694199017128085 3367.365963387386728 14420.70968719004668 
	5791.694199016286802 3324.126537261098292 14445.67388050305453 
	5791.694199014363221 3282.408864262125462 14464.49776220806598 
	5791.694199012875288 3243.157742837855949 14478.23156018340342 
	5791.694199011038108 3194.956950913411674 14491.14851511669258 
	5791.694199008846226 3133.147683084980599 14500.46601085602742 
	5791.694199005194605 3058.137923138593123 14500.46559632353819 
	5791.694199002418827 2996.328571619770173 14491.14871764058262 
	5791.694199001858578 2948.127692034466236 14478.23198119350309 
	5791.694199000562548 2918.689396747356113 14467.93155941490477 
	5791.694199000251501 2895.650079185780214 14458.38811386597627 
	5791.694198999914079 2872.983601657062081 14447.99021822571376 
	5791.694198998967295 2845.40943716049469 14433.41682413528542 
	5791.694198997970489 2813.719854263909838 14413.50492538671824 
	5791.694198997677631 2783.606884495804934 14391.28057875926243 
	5791.694198997253807 2759.966986860381894 14370.93672557852369 
	5791.694198997182866 2744.251844898886247 14355.7985038727893 
	5791.694198997115564 2735.519018798679099 14346.9008384678018 
	5791.694198997110107 2726.954098615780367 14337.84143438226238 
	5791.694198997008243 2716.568408325656947 14326.21982893979657 
	5791.694198996960949 2700.658145868429528 14307.01698059585033 
	5791.694198996766318 2682.137745386748975 14281.92290847674667 
	5791.694198996675368 2662.225971007288535 14250.23327041436278 
	5791.6941989965826 2642.794635482641752 14213.46781611718143 
	5791.694198996501655 2625.016579342969635 14171.2938758020955 
	5791.69419899643708 2610.300130812468069 14123.58333131318977 
	5791.694198996477098 2602.880153738923127 14086.87936401642764 
	5791.694198996488012 2599.755616246006866 14064.23663783306438 
	5791.694198996489831 2598.773571347405777 14055.9836074076411 
	5791.694198996494379 2598.114275717603959 14049.78513045374712 
	5791.694198996498017 2597.532294751140853 14043.57891759897029 
	5791.694198996502564 2597.027733383116356 14037.36593134510258 
	5791.694198996508021 2596.671836487267228 14032.18360339801256 
	5791.69419899651075 2596.456647515864006 14028.55385640468921 
	5791.69419899650984 2596.357532146577796 14026.73850614054572 
	5791.69419899650984 2596.303329911217588 14025.70103492325325 
	5791.694198996478008 2595.014337298943701 14000.28092688412289 
	5791.694198996397063 2595.853172189536963 13966.69364022109039 
	5791.694198996426167 2601.539722323834667 13921.32329489632139 
	5791.694198996465275 2607.724136523434481 13888.63562563704181 
	5791.694198996553496 2617.410781203835541 13852.48474710760274 
	5791.694198996681735 2629.772009325143244 13817.15900294797939 
	5791.694198996875457 2649.726308874597635 13771.42079912106601 
	5791.694198997659441 2680.978889149074348 13717.286595358466 
	5791.694198998508 2722.551253891480883 13665.15895788899434 
	5791.694198999258333 2764.250973644848273 13624.48693257275409 
	5791.694198999560285 2803.286841899264346 13593.3573765299243 
	5791.694199000270601 2852.21781256327904 13561.75280784756796 
	5791.694199001650304 2901.026345693629537 13538.24831803697452 
	5791.694199002326968 2948.128141695181512 13521.76839660443329 
	5791.694199003202812 2990.303800454513748 13510.46651760294299 
	5791.69419900496905 3039.543200194910696 13502.10042402108957 
	5791.694199007040879 3095.643082204234361 13498.94961455682096 
	5791.694199009368276 3151.742704849084475 13502.10066073301459 
	5791.694199012424178 3213.292481397727443 13512.55667044661095 
	5791.69419901598576 3267.049651248629743 13529.13948884746242 
	5791.694199016949824 3312.787028574431588 13549.09584814441223 
	5791.694199018887048 3345.876181577344141 13566.58335454082953 
	5791.694199021145323 3377.565604210637503 13586.495509752207 
	5791.694199023417241 3412.697609796030065 13612.423566810392 
	5791.694199029841002 3449.938958471807382 13645.70406383795307 
	5791.694199034169287 3487.379662860460485 13687.60048030022153 
	5791.694199049761664 3519.894148274598592 13733.42537424241527 
	5791.69419906479925 3547.07342053587854 13782.60257866989923 
	5791.69419907979227 3568.575841946040327 13834.51368117206221 
	5791.694199097799356 3581.537995785200565 13879.50721574499948 
	5791.694199103609208 3588.836875632147439 13916.20300891425359 
	5791.694199108835164 3592.759654465792664 13943.98841423805425 
	5791.694199114588628 3594.725035615622801 13967.28981731367094 
	5791.694199116434902 3595.413338833917351 13983.63940139549959 
	5791.694199116986056 3595.585442571081785 13991.81902275133507 
	5791.694199117125208 3595.628469964829492 13995.90943679331576 
	5791.694199117163407 3595.639226960412543 13997.95471933814042 
	5791.694199117175231 3595.641916204349855 13998.97737004045121 
	5791.69419911717705 3595.642684568233562 13999.56174322344486 
	5791.69419911717705 3595.642812619992128 13999.85393003785975 
	5791.69419911717614 3595.642812619670622 14000.00002344490895 
	5908.360865797837505 3595.642812619670167 14000.00002344490895 
	5908.360865797832048 3595.642812617097661 14001.16877070130613 
	5908.36086579772018 3595.634617258258459 14003.50626519387151 
	5908.360865797614679 3595.585441241380977 14008.18102396248833 
	5908.36086579714447 3595.413346744943283 14016.36064637851268 
	5908.360865795403697 3594.724991963446428 14032.71022513630669 
	5908.360865789831223 3591.973741754596631 14065.33222313031547 
	5908.360865771980571 3584.130717215325149 14111.49414880404402 
	5908.3608657576724 3568.575720887379248 14165.48636840648396 
	5908.360865741918133 3547.073436371380922 14217.39746918512174 
	5908.360865730032856 3519.894161419693773 14266.57473573014431 
	5908.360865717242632 3492.798621677066876 14304.7620462989762 
	5908.360865714181273 3468.659343603610068 14333.34785482824191 
	5908.360865709823884 3442.956071206066554 14360.53605008190243 
	5908.360865707651101 3409.594183813007021 14390.34993036428205 
	5908.360865697783993 3367.365963387386273 14420.70968719004668 
	5908.360865696941801 3324.126537261097837 14445.67388050305453 
	5908.360865695018219 3282.408864262125007 14464.49776220806598 
	5908.360865693530286 3243.157742837855494 14478.23156018340342 
	5908.360865691693107 3194.95695091341122 14491.14851511669258 
	5908.360865689500315 3133.147683084980144 14500.46601085602742 
	5908.360865685848694 3058.137923138592669 14500.46559632353819 
	5908.360865683072916 2996.328571619769718 14491.14871764058262 
	5908.360865682513577 2948.127692034465781 14478.23198119350309 
	5908.360865681217547 2918.689396747355659 14467.93155941490477 
	5908.3608656809065 2895.650079185779759 14458.38811386597627 
	5908.360865680569077 2872.983601657061627 14447.99021822571376 
	5908.360865679622293 2845.409437160494235 14433.41682413528542 
	5908.360865678626396 2813.719854263909383 14413.50492538671824 
	5908.360865678333539 2783.606884495804479 14391.28057875926243 
	5908.360865677909715 2759.966986860381439 14370.93672557852369 
	5908.360865677839683 2744.251844898885793 14355.7985038727893 
	5908.360865677772381 2735.519018798678644 14346.9008384678018 
	5908.360865677766924 2726.954098615779913 14337.84143438226238 
	5908.360865677665061 2716.568408325656492 14326.21982893979657 
	5908.360865677617767 2700.658145868429074 14307.01698059585033 
	5908.360865677424044 2682.13774538674852 14281.92290847674667 
	5908.360865677333095 2662.225971007288081 14250.23327041436278 
	5908.360865677241236 2642.794635482641297 14213.46781611718143 
	5908.3608656771612 2625.01657934296918 14171.2938758020955 
	5908.360865677096626 2610.300130812467614 14123.58333131318977 
	5908.360865677137554 2602.880153738922672 14086.87936401642764 
	5908.360865677148468 2599.755616246006412 14064.23663783306438 
	5908.360865677150287 2598.773571347405323 14055.9836074076411 
	5908.360865677154834 2598.114275717603505 14049.78513045374712 
	5908.360865677158472 2597.532294751140398 14043.57891759897029 
	5908.360865677163019 2597.027733383115901 14037.36593134510258 
	5908.360865677169386 2596.671836487266773 14032.18360339801256 
	5908.360865677172114 2596.456647515863551 14028.55385640468921 
	5908.360865677170295 2596.357532146577341 14026.73850614054572 
	5908.360865677171205 2596.303329911217133 14025.70103492325325 
	5908.360865677139373 2595.014337298943246 14000.28092688412289 
	5908.360865677058428 2595.853172189536508 13966.69364022109039 
	5908.360865677088441 2601.539722323834212 13921.32329489632139 
	5908.360865677128459 2607.724136523434026 13888.63562563704181 
	5908.36086567721668 2617.410781203835086 13852.48474710760274 
	5908.360865677345828 2629.77200932514279 13817.15900294797939 
	5908.36086567754046 2649.72630887459718 13771.42079912106601 
	5908.360865678324444 2680.978889149073893 13717.286595358466 
	5908.360865679173912 2722.551253891480428 13665.15895788899434 
	5908.360865679925155 2764.250973644847818 13624.48693257275409 
	5908.360865680227107 2803.286841899263891 13593.3573765299243 
	5908.360865680938332 2852.217812563278585 13561.75280784756796 
	5908.360865682318035 2901.026345693629082 13538.24831803697452 
	5908.360865682994699 2948.128141695181057 13521.76839660443329 
	5908.360865683871452 2990.303800454513294 13510.46651760294299 
	5908.360865685637691 3039.543200194910241 13502.10042402108957 
	5908.36086568770861 3095.643082204233906 13498.94961455682096 
	5908.360865690036917 3151.742704849084021 13502.10066073301459 
	5908.36086569309191 3213.292481397726988 13512.55667044661095 
	5908.360865696653491 3267.049651248629289 13529.13948884746242 
	5908.360865697617555 3312.787028574431133 13549.09584814441223 
	5908.360865699554779 3345.876181577343687 13566.58335454082953 
	5908.360865701812145 3377.565604210637048 13586.495509752207 
	5908.360865704084063 3412.69760979602961 13612.423566810392 
	5908.360865710506914 3449.938958471806927 13645.70406383795307 
	5908.360865714835199 3487.37966286046003 13687.60048030022153 
	5908.360865730426667 3519.894148274598138 13733.42537424241527 
	5908.360865745463343 3547.073420535878086 13782.60257866989923 
	5908.360865760456363 3568.575841946039873 13834.51368117206221 
	5908.360865778462539 3581.53799578520011 13879.50721574499948 
	5908.360865784271482 3588.836875632146985 13916.20300891425359 
	5908.360865789497439 3592.75965446579221 13943.98841423805425 
	5908.360865795250902 3594.725035615622346 13967.28981731367094 
	5908.360865797096267 3595.413338833916896 13983.63940139549959 
	5908.360865797647421 3595.58544257108133 13991.81902275133507 
	5908.360865797786573 3595.628469964829037 13995.90943679331576 
	5908.360865797824772 3595.639226960412088 13997.95471933814042 
	5908.360865797836595 3595.6419162043494 13998.97737004045121 
	5908.360865797838414 3595.642684568233108 13999.56174322344486 
	5908.360865797838414 3595.642812619991673 13999.85393003785975 
	5908.360865797837505 3595.642812619670167 14000.00002344490895 
	0 
	
	0 
	0 
	88 0 0.001116071428571428509 0.002232142857142857019 0.004464285714285714038 0.008928571428571428076 0.01785714285714285615 0.0357142857142857123 0.05357142857142856845 0.07142857142857142461 0.08928571428571427382 0.1071428571428571369 0.1160714285714285754 0.125 0.1428571428571428492 0.1587301587301587213 0.1746031746031745935 0.1904761904761904656 0.2023809523809523836 0.2142857142857142738 0.238095238095238082 0.2619047619047618625 0.2857142857142856984 0.2976190476190476164 0.3095238095238095344 0.3154761904761904656 0.3214285714285713969 0.3333333333333333148 0.3452380952380952328 0.3571428571428570953 0.3690476190476190133 0.375 0.3779761904761904656 0.3809523809523809312 0.3869047619047618625 0.3928571428571428492 0.4047619047619047672 0.4166666666666666297 0.4285714285714285476 0.4444444444444444198 0.4603174603174602919 0.476190476190476164 0.4801587301587301182 0.4821428571428570953 0.4841269841269840724 0.4861111111111110494 0.4880952380952380265 0.4900793650793650036 0.4910714285714284921 0.4915674603174602364 0.491815476190476164 0.4920634920634920362 0.5158730158730158166 0.5238095238095237249 0.5357142857142855874 0.5476190476190475609 0.5595238095238095344 0.5714285714285713969 0.5952380952380951218 0.6190476190476189577 0.6349206349206348854 0.650793650793650702 0.6666666666666666297 0.6904761904761904656 0.7023809523809523281 0.7142857142857141906 0.7321428571428569843 0.749999999999999889 0.7678571428571427937 0.7857142857142855874 0.8095238095238094234 0.8214285714285713969 0.8333333333333332593 0.8452380952380951218 0.8571428571428570953 0.875 0.8928571428571427937 0.9107142857142856984 0.9285714285714286031 0.9464285714285713969 0.9642857142857143016 0.9732142857142858094 0.9821428571428572063 0.9910714285714286031 0.9955357142857143016 0.9977678571428572063 0.9994419642857143016 0.9997209821428572063 0.9998604910714286031 
	0 
	0 
	0 
	F 1 F 0 F 1 F 0 } I I I I #
tcoedge-coedge $-1 -1 $-1 $13 $13 $17 $18 reversed $8 $19 -6.283185307179586232 1.350498956678269526e-30 #
tcoedge-coedge $-1 -1 $-1 $20 $21 $10 $15 reversed $11 $22 -6.283185307179586232 -1.350498956678269526e-30 #
tedge-edge $-1 -1 $-1 $23 1.350498956678269526e-30 $23 6.283185307179586232 $14 $24 forward @7 unknown 0.0007875328188081038606 #
pcurve $-1 -1 $-1 0 forward { exppc nurbs 2 periodic 5 
	1.350498956678269526e-30 2 1.570796326794896558 2 3.141592653589793116 2 4.712388980384689674 2 6.283185307179586232 2 
	0 500 1 
	-500 500 0.7071067811865463515 
	-500 0 1 
	-500 -500 0.7071067811865463515 
	0 -500 1 
	500 -500 0.7071067811865463515 
	500 0 1 
	500 500 0.707106781186543798 
	0 500 1 
	0 
	plane 5908.360865672306318 3095.642797989795326 14000.00000000000182 1 -3.897834435702129261e-15 5.197112580936172875e-15 5.197112580936172875e-15 0 -1 forward_v I I I I 
	} 0 0 #
tcoedge-coedge $-1 -1 $-1 $21 $20 $13 $18 forward $11 $25 -1.350498956678269526e-30 6.283185307179586232 #
tedge-edge $-1 -1 $-1 $26 -1.350498956678269526e-30 $26 6.283185307179586232 $17 $27 forward @7 unknown 0.0007875328150270655527 #
pcurve $-1 -1 $-1 0 forward { exppc nurbs 2 periodic 5 
	-6.283185307179586232 2 -4.712388980384689674 2 -3.141592653589793116 2 -1.570796326794896558 2 1.350498956678269526e-30 2 
	0 500 1 
	500 500 0.7071067811865463515 
	500 0 1 
	500 -500 0.7071067811865463515 
	0 -500 1 
	-500 -500 0.7071067811865463515 
	-500 0 1 
	-500 500 0.7071067811865463515 
	0 500 1 
	0 
	plane 5558.360865630322223 3095.642797989796691 14000.00000000000364 -1 3.897834435702129261e-15 5.197112580936172875e-15 -5.197112580936172875e-15 0 -1 reverse_v I I I I 
	} 0 0 #
coedge $-1 -1 $-1 $17 $14 $21 $28 reversed $11 $29 #
coedge $-1 -1 $-1 $14 $17 $20 $28 forward $11 $30 #
pcurve $-1 -1 $-1 0 forward { exppc nubs 1 periodic 2 
	-6.283185307179586232 1 -1.350498956678269526e-30 1 
	1 1 
	0 1 
	2.726396620975368931e-13 
	spline forward { ref 0 } I I I I 
	} 0 0 #
tvertex-vertex $-1 -1 $-1 $15 $31 2.763536173898898174e-05 #
ellipse-curve $-1 -1 $-1 5908.360865672306318 3095.642797989795326 14000.00000000000182 1 -3.897834435702129261e-15 5.197112580936172875e-15 1.94891721785106465e-12 500 0 1 I I #
pcurve $-1 -1 $-1 0 forward { exppc nubs 1 periodic 2 
	-1.350498956678269526e-30 1 6.283185307179586232 1 
	0 0 
	1 0 
	0 
	spline forward { ref 0 } I I I I 
	} 0 0 #
tvertex-vertex $-1 -1 $-1 $18 $32 2.763532862289812871e-05 #
ellipse-curve $-1 -1 $-1 5558.360865630322223 3095.642797989796691 14000.00000000000364 1 -3.897834435702129261e-15 -5.197112580936172875e-15 1.94891721785106465e-12 500 0 1 I I #
edge $-1 -1 $-1 $26 0 $23 1 $21 $33 forward @7 tangent #
pcurve $-1 -1 $-1 -1 $33 0 0 #
pcurve $-1 -1 $-1 1 $33 1 0 #
point $-1 -1 $-1 5908.360865672308137 3595.642797989795326 14000.00000000000182 #
point $-1 -1 $-1 5558.360865630324042 3595.642797989796691 14000.00000000000364 #
intcurve-curve $-1 -1 $-1 forward { parcur full nubs 3 open 2 
	0 3 1 3 
	5558.360865748417382 3595.642812619673805 14000.00002344490895 
	5675.027532429078747 3595.64281261967335 14000.00002344490895 
	5791.69419911717614 3595.642812619670622 14000.00002344490895 
	5908.360865797837505 3595.642812619670167 14000.00002344490895 
	0 
	
	spline forward { ref 0 } I I I I 
	null_surface 
	nubs 1 open 2 
	0 1 1 1 
	0 0 
	0 1 
	
	nullbs 
	I I 
	0 
	0 
	0 
	surf1 } I I #
End-of-ACIS-data 