700 0 1 0           
4 LibG 19 ASM 222.0.0.1700 NT 24 Wed Oct  5 17:29:54 2016 
1000 9.999999999999999547e-07 1.000000000000000036e-10 
body $-1 -1 $-1 $1 $-1 $-1 #
lump $-1 -1 $-1 $-1 $2 $0 #
shell $-1 -1 $-1 $-1 $-1 $3 $-1 $1 #
face $-1 -1 $-1 $4 $5 $2 $-1 $6 forward single #
face $-1 -1 $-1 $7 $8 $2 $-1 $9 reversed single #
loop $-1 -1 $-1 $-1 $10 $3 #
plane-surface $-1 -1 $-1 8469.897595657193961 2160.185069040815051 14000.00000000000364 0.6964672824519163585 -0.717588548176489871 0 0 0 -1 forward_v I I I I #
face $-1 -1 $-1 $-1 $11 $2 $-1 $12 forward single #
loop $-1 -1 $-1 $-1 $13 $4 #
plane-surface $-1 -1 $-1 8202.268679470143979 2385.739415595992341 14000.00000000000364 0.7646540461569917291 -0.6444409900803493851 0 0 0 -1 forward_v I I I I #
tcoedge-coedge $-1 -1 $-1 $10 $10 $14 $15 forward $5 $16 0 6.283185307179586232 #
loop $-1 -1 $-1 $-1 $17 $7 #
spline-surface $-1 -1 $-1 forward { exactsur full nubs 3 3 periodic open none none 86 2 
	0 3 0.002232142857142857019 1 0.004464285714285714038 1 0.008928571428571428076 1 0.01785714285714285615 1 
	0.0357142857142857123 1 0.05357142857142856845 1 0.0625 1 0.07142857142857142461 1 0.08928571428571427382 1 
	0.1071428571428571369 1 0.125 1 0.1428571428571428492 1 0.1587301587301587213 1 0.1746031746031745935 1 
	0.1904761904761904656 1 0.2023809523809523836 1 0.2142857142857142738 1 0.238095238095238082 1 0.2619047619047618625 1 
	0.2857142857142856984 1 0.2976190476190476164 1 0.3095238095238095344 1 0.3214285714285713969 1 0.3273809523809523281 1 
	0.3333333333333333148 1 0.3452380952380952328 1 0.3571428571428570953 1 0.3690476190476190133 1 0.375 1 
	0.3809523809523809312 1 0.3928571428571428492 1 0.4047619047619047672 1 0.4166666666666666297 1 0.4285714285714285476 1 
	0.4444444444444444198 1 0.4603174603174602919 1 0.476190476190476164 1 0.4801587301587301182 1 0.4821428571428570953 1 
	0.4841269841269840724 1 0.4861111111111110494 1 0.4880952380952380265 1 0.4900793650793650036 1 0.4910714285714284921 1 
	0.4915674603174602364 1 0.491815476190476164 1 0.4920634920634920362 1 0.5158730158730158166 1 0.5238095238095237249 1 
	0.5357142857142855874 1 0.5476190476190475609 1 0.5595238095238095344 1 0.5714285714285713969 1 0.5952380952380951218 1 
	0.6190476190476189577 1 0.6349206349206348854 1 0.650793650793650702 1 0.6666666666666666297 1 0.6785714285714286031 1 
	0.6904761904761904656 1 0.7023809523809523281 1 0.7142857142857141906 1 0.7321428571428569843 1 0.749999999999999889 1 
	0.7678571428571427937 1 0.7857142857142855874 1 0.7976190476190474499 1 0.8095238095238094234 1 0.8333333333333332593 1 
	0.8452380952380951218 1 0.8571428571428570953 1 0.875 1 0.8928571428571427937 1 0.9107142857142856984 1 
	0.9285714285714286031 1 0.9464285714285713969 1 0.9642857142857143016 1 0.9821428571428572063 1 0.9910714285714286031 1 
	0.9955357142857143016 1 0.9977678571428572063 1 0.9988839285714286031 1 0.9994419642857143016 1 0.9997209821428572063 1 
	1 3 
	0 3 1 3 
	8524.48922723103351 2768.066501182147476 13999.99988129533085 
	8524.489227202564507 2768.066501148367024 14002.33737583186303 
	8524.468098133036619 2768.041430694057908 14007.01236456853985 
	8524.341348317650045 2767.891037158296967 14016.36050455556324 
	8523.897747381262889 2767.364687569060152 14032.7100876351451 
	8522.124706260052335 2765.260906017809702 14065.33208032794028 
	8517.070407959528893 2759.263786497002002 14111.49407394596528 
	8508.716687310898124 2749.351775329337215 14156.48751371919934 
	8500.117741205309358 2739.148794711572009 14191.4419325424642 
	8490.269782443325312 2727.463812488763779 14225.59355281544595 
	8475.673701984007494 2710.145001069713544 14266.57470606760762 
	8454.719890139858762 2685.282496583954071 14312.3994516834864 
	8430.591610222700183 2656.65336351191354 14354.29598461375645 
	8404.591818640663405 2625.803609790251357 14390.34991202206402 
	8377.37824688231558 2593.513659161453688 14420.70971089762315 
	8349.512979228837139 2560.450446258659667 14445.67389709896815 
	8322.628403359192816 2528.550861915186488 14464.4977863375243 
	8297.333369320764177 2498.537330152710183 14478.23158479510857 
	8266.270802069933779 2461.680398179824806 14491.14854789318633 
	8226.43837522249305 2414.41769014995316 14500.4660404913011 
	8178.099004499840703 2357.061165689443442 14500.46566564912064 
	8138.266529407848793 2309.798400415684682 14491.14874925247386 
	8107.203894508190388 2272.941388174464464 14478.232099148001 
	8084.438431194477744 2245.92928946683287 14465.87138357003278 
	8066.016377909425501 2224.070813982403251 14453.39921760842117 
	8051.669993956619692 2207.048277076770319 14442.16089128796739 
	8037.604394067198882 2190.35890127265111 14430.09814538403407 
	8020.585985728418564 2170.165904558427428 14413.50494292104304 
	8001.179962488549791 2147.139910838966898 14391.28058274989235 
	7985.945436201781376 2129.06355885996345 14370.93674501786882 
	7974.371177344269199 2115.330255108516212 14353.6359150449498 
	7963.221809373882934 2102.101100753243827 14335.67576326607923 
	7950.111417906806309 2086.545116518389932 14312.03585073126487 
	7935.789092421528949 2069.551125910610153 14281.92291616154034 
	7922.957131017857137 2054.325509665704431 14250.23329317393654 
	7910.434761125128716 2039.467235667972318 14213.46785079530309 
	7898.977930883035697 2025.873265489663027 14171.29387999215396 
	7889.493930499914313 2014.620133894414721 14123.58341467428909 
	7884.712256228865044 2008.946493273564784 14086.87943494652791 
	7882.698667415953423 2006.557292622418572 14064.23671740783357 
	7882.065798510078821 2005.806369299696144 14055.98368680413842 
	7881.640921033925224 2005.302235816150869 14049.78521051474854 
	7881.265868825164944 2004.857221930676815 14043.57899801569692 
	7880.940708737243767 2004.471406967461689 14037.36601222393983 
	7880.711354241919253 2004.199269028442814 14032.18368475357056 
	7880.572677644583564 2004.034723906554746 14028.55393787376488 
	7880.508803641304439 2003.958934942469568 14026.73858768936771 
	7880.473873498820467 2003.917488983578096 14025.70111642500342 
	7879.643193859750681 2002.931855610118646 14000.2810123479976 
	7880.183774946898666 2003.573275883012002 13966.69374172103926 
	7883.848420226852795 2007.921518599086767 13921.32340073163687 
	7887.83391469966864 2012.650461235489047 13888.63574808067642 
	7894.076378666016353 2020.057385070810597 13852.48487468067287 
	7902.042481173396482 2029.509472396337515 13817.15916240467959 
	7914.901794067153787 2044.767542237280395 13771.42092718031745 
	7935.042287088984267 2068.665012630605361 13717.28687907368476 
	7961.833157893118369 2100.453412306778773 13665.15911926335502 
	7988.706342307608793 2132.339480250561337 13624.48756127185698 
	8013.862465957286076 2162.188189489103479 13593.35744824773428 
	8038.638842888416548 2191.586314625515115 13568.52639428190378 
	8062.332113594578004 2219.699292525399869 13549.09551318385456 
	8084.438526886752697 2245.929403008681675 13534.12891258162381 
	8107.203980546813909 2272.941490261712715 13521.76812934833106 
	8134.383806969316538 2305.191400753653397 13510.46656606825309 
	8166.115647381295275 2342.8424511001881 13502.10031365973737 
	8202.26870074368162 2385.739440830710464 13498.94997816450996 
	8238.421684071348864 2428.636347463574566 13502.10035336692818 
	8270.153617829002542 2466.287508567584609 13510.46652145674852 
	8297.33326431362002 2498.53720555623795 13521.76858284910122 
	8327.687605862065539 2534.553800466231678 13538.24841661917162 
	8356.722343107623601 2569.004634064209768 13559.94463392703983 
	8383.951257111903033 2601.312788861351237 13586.49528503858892 
	8406.59188039817127 2628.176760069413376 13612.42300453164171 
	8430.591639693151592 2656.653398478203144 13645.70376983592905 
	8454.72000799815396 2685.28263642885031 13687.60010184959538 
	8475.673708891670685 2710.145009268049762 13733.42502368572787 
	8493.189103426197107 2730.927699235633554 13782.60232465415538 
	8507.046178722401237 2747.369652576789576 13834.51340071521554 
	8517.070369884599131 2759.263741320928602 13888.50570181416879 
	8522.124741929061202 2765.260948340789582 13934.66766069534242 
	8523.897746943976017 2767.364687050207522 13967.28967550476773 
	8524.341350655256974 2767.89103993191975 13983.63925713389472 
	8524.452254714977244 2768.022631868454937 13991.81888050428279 
	8524.479984417530432 2768.055534228094984 13995.90929454181605 
	8524.486916449905038 2768.063759351379304 13997.95457717461613 
	8524.488897100887698 2768.066109470022639 13999.12332083887486 
	8524.489227234591453 2768.06650118637026 13999.70769447826569 
	8524.48922723103351 2768.066501182147476 13999.99988129533085 
	8625.890125735291804 2681.517258293300529 13999.99988129533085 
	8625.890126102405702 2681.51725789076545 14002.33737583186303 
	8625.868196128401905 2681.492934024390252 14007.01236456853985 
	8625.736653309204485 2681.347008435704993 14016.36050455556324 
	8625.276264490432368 2680.836308191423996 14032.7100876351451 
	8623.436146067595473 2678.795054826144224 14065.33208032794028 
	8618.190614665027169 2672.97619916924441 14111.49407394596528 
	8609.520833048392888 2663.358814030153098 14156.48751371919934 
	8600.59653957492992 2653.459116046459712 14191.4419325424642 
	8590.375987049406831 2642.121458649985016 14225.59355281544595 
	8575.227659770915125 2625.317441221956869 14266.57470606760762 
	8553.481059742913203 2601.193958816600116 14312.3994516834864 
	8528.439880312287642 2573.41581332406804 14354.29598461375645 
	8501.456383060525695 2543.483051335319942 14390.34991202206402 
	8473.213182498671813 2512.152901112111977 14420.70971089762315 
	8444.293629350580886 2480.072473113830711 14445.67389709896815 
	8416.391871000052561 2449.121086950504377 14464.4977863375243 
	8390.139795063645579 2419.999691459582664 14478.23158479510857 
	8357.901972394298355 2384.238310255600481 14491.14854789318633 
	8316.562476231656547 2338.380463603980388 14500.4660404913011 
	8266.394180911125659 2282.728827900333727 14500.46566564912064 
	8225.054636950340864 2236.870923588693586 14491.14874925247386 
	8192.816746376562151 2201.109462354643256 14478.232099148001 
	8169.189945612910378 2174.900286050684372 14465.87138357003278 
	8150.070893480596169 2153.691539647279114 14453.39921760842117 
	8135.181711528229243 2137.174988722573289 14442.16089128796739 
	8120.583937658511786 2120.981695390500136 14430.09814538403407 
	8102.921635902159323 2101.388923884854648 14413.50494292104304 
	8082.781383421273858 2079.047364712023409 14391.28058274989235 
	8066.970456338686745 2061.508322602096541 14370.93674501786882 
	8054.958284704101061 2048.183232820204466 14353.6359150449498 
	8043.387077848939043 2035.347308657524763 14335.67576326607923 
	8029.780653705364784 2020.253716658073699 14312.03585073126487 
	8014.916441045227657 2003.764862977742268 14281.92291616154034 
	8001.598980126214883 1988.991820155560163 14250.23329317393654 
	7988.602825251802642 1974.57519951487734 14213.46785079530309 
	7976.712522656661349 1961.385304027224493 14171.29387999215396 
	7966.869694351246835 1950.466665002678155 14123.58341467428909 
	7961.907102010240123 1944.961672768832159 14086.87943494652791 
	7959.817334938850763 1942.64348404269731 14064.23671740783357 
	7959.160518846359082 1941.914883832294208 14055.98368680413842 
	7958.719567600612208 1941.425734011329951 14049.78521051474854 
	7958.330324222030868 1940.993948864701679 14043.57899801569692 
	7957.992862650778989 1940.619601110493932 14037.36601222393983 
	7957.754829325254832 1940.355553412071913 14032.18368475357056 
	7957.610907430293992 1940.195897856959164 14028.55393787376488 
	7957.544614638452913 1940.122363641609127 14026.73858768936771 
	7957.508366011421458 1940.082146748958621 14025.70111642500342 
	7956.646232175660771 1939.125834379961134 14000.2810123479976 
	7957.207281932388469 1939.748174148018734 13966.69374172103926 
	7961.010574695683317 1943.967172314707113 13921.32340073163687 
	7965.146863476930776 1948.555547362187099 13888.63574808067642 
	7971.625509811738084 1955.742306481575952 13852.48487468067287 
	7979.893015874229604 1964.913431140307239 13817.15916240467959 
	7993.238854582042222 1979.717970862366428 13771.42092718031745 
	8014.141373920542719 2002.905094803338898 13717.28687907368476 
	8041.945878059785173 2033.748604745616376 13665.15911926335502 
	8069.835817939429944 2064.686872565200247 13624.48756127185698 
	8095.943721912483852 2093.648350272049811 13593.35744824773428 
	8121.657520446834496 2122.172628802853069 13568.52639428190378 
	8146.24722817552356 2149.449965144462112 13549.09551318385456 
	8169.190042479479416 2174.900398497879451 13534.12891258162381 
	8192.816830490595748 2201.109566235958027 13521.76812934833106 
	8221.025010702087457 2232.400864866614029 13510.46656606825309 
	8253.95742979917668 2268.932758576321248 13502.10031365973737 
	8291.478340509484042 2310.554657679179854 13498.94997816450996 
	8328.999176754392465 2352.1764778145739 13502.10035336692818 
	8361.931694680739383 2388.708477170066544 13510.46652145674852 
	8390.139687086471895 2419.99956963171644 13521.76858284910122 
	8421.642494157278634 2454.945586804941286 13538.24841661917162 
	8451.775757087963939 2488.372395633463839 13559.94463392703983 
	8480.03487725659943 2519.720211820201257 13586.49528503858892 
	8503.532116425307322 2545.785661980095938 13612.42300453164171 
	8528.439908351449048 2573.415849624578641 13645.70376983592905 
	8553.481179018099283 2601.194097340697226 13687.60010184959538 
	8575.227665238664486 2625.317450762554017 13733.42502368572787 
	8593.405760244640987 2645.482383943306104 13782.60232465415538 
	8607.787114944134373 2661.435613987089255 13834.51340071521554 
	8618.190574984391787 2672.976155489980101 13888.50570181416879 
	8623.436182706047475 2678.795096245427885 13934.66766069534242 
	8625.276263517704137 2680.83630817169842 13967.28967550476773 
	8625.736656028839207 2681.347010853208303 13983.63925713389472 
	8625.851753210939933 2681.474694040737631 13991.81888050428279 
	8625.880533627661862 2681.506616944595862 13995.90929454181605 
	8625.887727296070807 2681.514598175740048 13997.95457717461613 
	8625.889782930307774 2681.516878396418633 13999.12332083887486 
	8625.890125689402339 2681.517258343617868 13999.70769447826569 
	8625.890125735291804 2681.517258293300529 13999.99988129533085 
	8727.291029941692614 2594.968010089178733 13999.99988129533085 
	8727.291029514404727 2594.9680104271647 14002.33737583186303 
	8727.268303085036678 2594.94442900134527 14007.01236456853985 
	8727.131959479916986 2594.802978614073254 14016.36050455556324 
	8726.654795306534652 2594.307916036587358 14032.7100876351451 
	8724.747581674666435 2592.329207550214505 14065.33208032794028 
	8719.310826124597952 2586.688607409948418 14111.49407394596528 
	8710.324973707134632 2577.365857465385488 14156.48751371919934 
	8701.075347808833612 2567.769428186140431 14191.4419325424642 
	8690.482185918714094 2556.779110159003267 14225.59355281544595 
	8674.781617745062249 2540.489881199725914 14266.57470606760762 
	8652.242222453254726 2517.105427474558837 14312.3994516834864 
	8626.288151022978127 2490.178262557282778 14354.29598461375645 
	8598.320947328777038 2461.162493021753562 14390.34991202206402 
	8569.048115939451236 2430.792145090828399 14420.70971089762315 
	8539.074274316482843 2399.694504775206042 14445.67389709896815 
	8510.155335316032506 2369.691315085235601 14464.4977863375243 
	8482.946219208733964 2341.462054255912335 14478.23158479510857 
	8449.533137014928798 2306.796227648307649 14491.14854789318633 
	8406.68658234945724 2262.343232295853795 14500.4660404913011 
	8354.689354684378486 2208.396492570358078 14500.46566564912064 
	8311.842745851939981 2163.943445494779098 14491.14874925247386 
	8278.429588586364844 2129.277545538368486 14478.232099148001 
	8253.941458793695347 2103.871283788258097 14465.87138357003278 
	8234.125401093151595 2083.312272731033318 14453.39921760842117 
	8218.693422517770159 2067.301706504062167 14442.16089128796739 
	8203.563474505146587 2051.604495795616913 14430.09814538403407 
	8185.257277658348357 2032.611951057968554 14413.50494292104304 
	8164.382794454123541 2010.954827813560769 14391.28058274989235 
	8147.995467354687207 1993.953094846570139 14370.93674501786882 
	8135.545379930617855 1981.036221842347004 14353.6359150449498 
	8123.552336928448312 1968.593525320164417 14335.67576326607923 
	8109.449877386578919 1953.96232809332264 14312.03585073126487 
	8094.043777220954325 1937.978611648642755 14281.92291616154034 
	8080.240817908173085 1923.658141203677587 14250.23329317393654 
	8066.770875893324046 1909.683175932390895 14213.46785079530309 
	8054.447105447291506 1896.897350938570753 14171.29387999215396 
	8044.245447350554969 1886.313206227000592 14123.58341467428909 
	8039.101945107626307 1880.976854766074666 14086.87943494652791 
	8036.935981269114563 1878.729695218358074 14064.23671740783357 
	8036.2552254862685 1878.023411132400497 14055.98368680413842 
	8035.798195874855992 1877.549249258388272 14049.78521051474854 
	8035.394764369957556 1877.130690013508911 14043.57899801569692 
	8035.044998326535278 1876.767812254448927 14037.36601222393983 
	8034.798289678514266 1876.511851526808869 14032.18368475357056 
	8034.649117830615069 1876.357089878066517 14028.55393787376488 
	8034.580412569052896 1876.285804521147611 14026.73858768936771 
	8034.542836149926188 1876.246825371057867 14025.70111642500342 
	8033.649324049666575 1875.319763223974633 14000.2810123479976 
	8034.230795361380842 1875.923066406525777 13966.69374172103926 
	8038.172750332729265 1880.01280629772873 13921.32340073163687 
	8042.459825800648105 1884.46062086114739 13888.63574808067642 
	8049.174661017367725 1891.427209192885584 13852.48487468067287 
	8057.74355593936707 1900.317384883784371 13817.15916240467959 
	8071.575944986435388 1914.668371625033387 13771.42092718031745 
	8093.240467212694057 1937.145170953641355 13717.28687907368476 
	8122.058614258779016 1967.043782239433085 13665.15911926335502 
	8150.965295827714726 1997.034262776418927 13624.48756127185698 
	8178.024996036116136 2025.108494118738236 13593.35744824773428 
	8204.676204927765866 2052.758936527167407 13568.52639428190378 
	8230.162353726549554 2079.200627537437413 13549.09551318385456 
	8253.941564173206643 2103.871388299851787 13534.12891258162381 
	8278.429686315354047 2129.277636728085781 13521.76812934833106 
	8307.666217104464522 2159.610326491034812 13510.46656606825309 
	8341.799215337463465 2195.023063143690251 13502.10031365973737 
	8380.687979578946397 2235.369875176785627 13498.94997816450996 
	8419.576670267177178 2275.716607392128481 13502.10035336692818 
	8453.709766957445026 2311.129450037331935 13510.46652145674852 
	8482.946105252607595 2341.461938001516046 13521.76858284910122 
	8515.597364170273067 2375.337390186022276 13538.24841661917162 
	8546.829176355246091 2407.740152274365755 13559.94463392703983 
	8576.118514058291112 2438.12761925175846 13586.49528503858892 
	8600.472355368727222 2463.394561172316571 13612.42300453164171 
	8626.2881852696446 2490.178293071287044 13645.70376983592905 
	8652.242352272352946 2517.10555616981901 13687.60010184959538 
	8674.781626876896553 2540.489887324731626 13733.42502368572787 
	8693.622413502154814 2560.037071970484703 13782.60232465415538 
	8708.528062822448192 2575.501564531437452 13834.51340071521554 
	8719.310785333784224 2586.688564765570845 13888.50570181416879 
	8724.747620422900582 2592.329247002810916 13934.66766069534242 
	8726.654795355061651 2594.307915064876397 13967.28967550476773 
	8727.131961700833926 2594.802981496482516 13983.63925713389472 
	8727.251260852241103 2594.92674768806819 13991.81888050428279 
	8727.281087312707314 2594.957695489822527 13995.90929454181605 
	8727.288544532431843 2594.965431043440731 13997.95457717461613 
	8727.29067501481768 2594.967641492093207 13999.12332083887486 
	8727.2910299951036 2594.968010046929976 13999.70769447826569 
	8727.291029941692614 2594.968010089178733 13999.99988129533085 
	8828.691928445950907 2508.418767200331786 13999.99988129533085 
	8828.691928414245922 2508.418767169563125 14002.33737583186303 
	8828.668401080401964 2508.395932331678068 14007.01236456853985 
	8828.527264471471426 2508.258949891481279 14016.36050455556324 
	8828.033312415704131 2507.779536658951201 14032.7100876351451 
	8826.059021482209573 2505.863356358549481 14065.33208032794028 
	8820.431032830096228 2500.40102008219128 14111.49407394596528 
	8811.129119444629396 2491.372896166201826 14156.48751371919934 
	8801.554146178454175 2482.079749521028134 14191.4419325424642 
	8790.588390524795614 2471.436756320224504 14225.59355281544595 
	8774.33557553196988 2455.662321351969695 14266.57470606760762 
	8751.003392056309167 2433.016889707204882 14312.3994516834864 
	8724.136421112565586 2406.940712369437733 14354.29598461375645 
	8695.185511748639328 2378.841934566822147 14390.34991202206402 
	8664.883051555807469 2349.431387041486687 14420.70971089762315 
	8633.854924438224771 2319.31653163037754 14445.67389709896815 
	8603.91880295689225 2290.261540120553491 14464.4977863375243 
	8575.752644951615366 2262.924415562785271 14478.23158479510857 
	8541.164307339293373 2229.354139724083325 14491.14854789318633 
	8496.810683358620736 2186.306005749881479 14500.4660404913011 
	8442.984531095662533 2134.064154781248362 14500.46566564912064 
	8398.630853394432052 2091.015968667788002 14491.14874925247386 
	8364.042440454737516 2057.445619718547277 14478.232099148001 
	8338.692973212127981 2032.842280372109599 14465.87138357003278 
	8318.179916664323173 2012.932998395909181 14453.39921760842117 
	8302.205140089379711 1997.42841814986491 14442.16089128796739 
	8286.543018096459491 1982.227289913465711 14430.09814538403407 
	8267.592927832089117 1963.834970384396001 14413.50494292104304 
	8245.984215386846699 1942.862281686617507 14391.28058274989235 
	8229.020487491592576 1926.39785858870323 14370.93674501786882 
	8216.132487290449717 1913.889199554035486 14353.6359150449498 
	8203.717605403504422 1901.839733224445354 14335.67576326607923 
	8189.119113185137394 1887.670928233006407 14312.03585073126487 
	8173.171125844652124 1872.19234871577487 14281.92291616154034 
	8158.882667016530831 1858.324451693533547 14250.23329317393654 
	8144.938940019997972 1844.791139779295918 14213.46785079530309 
	8132.181697220917158 1832.409389476132219 14171.29387999215396 
	8121.62121120188749 1822.159737335264026 14123.58341467428909 
	8116.296790889001386 1816.992034261341814 14086.87943494652791 
	8114.054648792011903 1814.815886638637039 14064.23671740783357 
	8113.349945822548761 1814.131925664998562 14055.98368680413842 
	8112.876842441542067 1813.672747453567354 14049.78521051474854 
	8112.45921976682348 1813.267416947533775 14043.57899801569692 
	8112.0971522400705 1812.916006397481169 14037.36601222393983 
	8111.841764761849845 1812.668135910438195 14032.18368475357056 
	8111.687347616324587 1812.518263828470708 14028.55393787376488 
	8111.61622356620137 1812.449233220287397 14026.73858768936771 
	8111.577328662527179 1812.411483136438392 14025.70111642500342 
	8110.652362365576664 1811.513741993816893 14000.2810123479976 
	8111.254302346869736 1812.097964671532736 13966.69374172103926 
	8115.334904801559787 1816.058460013349077 13921.32340073163687 
	8119.772774577910241 1820.36570698784567 13888.63574808067642 
	8126.723792163088547 1827.11213060365094 13852.48487468067287 
	8135.594090640199283 1835.721343627754322 13817.15916240467959 
	8149.913005501322914 1849.618800250119421 13771.42092718031745 
	8172.339554044251599 1871.385253126375119 13717.28687907368476 
	8202.171334425445821 1900.338974678270461 13665.15911926335502 
	8232.094771459534968 1929.381655091058064 13624.48756127185698 
	8260.106251991313911 1956.568654901684567 13593.35744824773428 
	8287.694882486184724 1983.345250704505816 13568.52639428190378 
	8314.0774683074942 2008.951300156499428 13549.09551318385456 
	8338.693079765933362 2032.842383789049563 13534.12891258162381 
	8364.042536259135886 2057.445712702331093 13521.76812934833106 
	8394.307420837234531 2086.819790603995443 13510.46656606825309 
	8429.64099775534487 2121.113370619823399 13502.10031365973737 
	8469.897619344748819 2160.185092025255017 13498.94997816450996 
	8510.15416295022078 2199.256737743127815 13502.10035336692818 
	8545.487843809181868 2233.55041863981387 13510.46652145674852 
	8575.752528025459469 2262.924302076994991 13521.76858284910122 
	8609.552252465486163 2295.729176524732338 13538.24841661917162 
	8641.882590335586428 2327.107913843619826 13559.94463392703983 
	8672.202134202987509 2356.535042210608935 13586.49528503858892 
	8697.412591395861455 2381.003463082998678 13612.42300453164171 
	8724.136453927942057 2406.940744217662996 13645.70376983592905 
	8751.003523292298269 2433.017017081665927 13687.60010184959538 
	8774.335583223890353 2455.662328819236336 13733.42502368572787 
	8793.839070320598694 2474.591756678157253 13782.60232465415538 
	8809.268999044181328 2489.567525941737131 13834.51340071521554 
	8820.430990433576881 2500.400978934622799 13888.50570181416879 
	8826.059061199886855 2505.863394907449219 13934.66766069534242 
	8828.033311928789772 2507.77953618636775 13967.28967550476773 
	8828.527267074416159 2508.25895241777107 13983.63925713389472 
	8828.650759348203792 2508.378809860350884 13991.81888050428279 
	8828.681636522838744 2508.408778206323859 13995.90929454181605 
	8828.689355378597611 2508.416269867801475 13997.95457717461613 
	8828.691560844237756 2508.418410418489657 13999.12332083887486 
	8828.691928449914485 2508.418767204177584 13999.70769447826569 
	8828.691928445950907 2508.418767200331786 13999.99988129533085 
	0 
	
	0 
	0 
	85 0 0.002232142857142857019 0.004464285714285714038 0.008928571428571428076 0.01785714285714285615 0.0357142857142857123 0.05357142857142856845 0.0625 0.07142857142857142461 0.08928571428571427382 0.1071428571428571369 0.125 0.1428571428571428492 0.1587301587301587213 0.1746031746031745935 0.1904761904761904656 0.2023809523809523836 0.2142857142857142738 0.238095238095238082 0.2619047619047618625 0.2857142857142856984 0.2976190476190476164 0.3095238095238095344 0.3214285714285713969 0.3273809523809523281 0.3333333333333333148 0.3452380952380952328 0.3571428571428570953 0.3690476190476190133 0.375 0.3809523809523809312 0.3928571428571428492 0.4047619047619047672 0.4166666666666666297 0.4285714285714285476 0.4444444444444444198 0.4603174603174602919 0.476190476190476164 0.4801587301587301182 0.4821428571428570953 0.4841269841269840724 0.4861111111111110494 0.4880952380952380265 0.4900793650793650036 0.4910714285714284921 0.4915674603174602364 0.491815476190476164 0.4920634920634920362 0.5158730158730158166 0.5238095238095237249 0.5357142857142855874 0.5476190476190475609 0.5595238095238095344 0.5714285714285713969 0.5952380952380951218 0.6190476190476189577 0.6349206349206348854 0.650793650793650702 0.6666666666666666297 0.6785714285714286031 0.6904761904761904656 0.7023809523809523281 0.7142857142857141906 0.7321428571428569843 0.749999999999999889 0.7678571428571427937 0.7857142857142855874 0.7976190476190474499 0.8095238095238094234 0.8333333333333332593 0.8452380952380951218 0.8571428571428570953 0.875 0.8928571428571427937 0.9107142857142856984 0.9285714285714286031 0.9464285714285713969 0.9642857142857143016 0.9821428571428572063 0.9910714285714286031 0.9955357142857143016 0.9977678571428572063 0.9988839285714286031 0.9994419642857143016 0.9997209821428572063 
	0 
	0 
	0 
	F 1 F 0 F 1 F 0 } I I I I #
tcoedge-coedge $-1 -1 $-1 $13 $13 $17 $18 reversed $8 $19 -6.283185307179586232 -0 #
tcoedge-coedge $-1 -1 $-1 $20 $21 $10 $15 reversed $11 $22 -6.283185307179586232 -0 #
tedge-edge $-1 -1 $-1 $23 0 $23 6.283185307179586232 $14 $24 forward @7 unknown 0.0006477109389442475655 #
pcurve $-1 -1 $-1 0 forward { exppc nurbs 2 periodic 5 
	0 2 1.570796326794896558 2 3.141592653589793116 2 4.712388980384689674 2 6.283185307179586232 2 
	0 499.9999999999990905 1 
	-500 499.9999999999990905 0.7071067811865519026 
	-500 0 1 
	-500 -500 0.7071067811865500152 
	0 -500 1 
	500 -500 0.7071067811865500152 
	500 0 1 
	500 499.9999999999990905 0.7071067811865499042 
	0 499.9999999999990905 1 
	0 
	plane 8469.897595657193961 2160.185069040815051 14000.00000000000364 0.6964672824519163585 -0.717588548176489871 0 0 0 -1 forward_v I I I I 
	} 0 0 #
tcoedge-coedge $-1 -1 $-1 $21 $20 $13 $18 forward $11 $25 0 6.283185307179586232 #
tedge-edge $-1 -1 $-1 $26 0 $26 6.283185307179586232 $17 $27 forward @7 unknown 0.0006477112228479851071 #
pcurve $-1 -1 $-1 0 forward { exppc nurbs 2 periodic 5 
	-6.283185307179586232 2 -4.712388980384689674 2 -3.141592653589793116 2 -1.570796326794896558 2 0 2 
	0 500.000000000001819 1 
	500 500.000000000001819 0.7071067811865404673 
	500 0 1 
	500 -499.9999999999990905 0.7071067811865482389 
	0 -499.9999999999990905 1 
	-500 -499.9999999999990905 0.7071067811865431318 
	-500 0 1 
	-500 500.000000000001819 0.7071067811865425767 
	0 500.000000000001819 1 
	0 
	plane 8202.268679470143979 2385.739415595992341 14000.00000000000364 -0.7646540461569917291 0.6444409900803493851 -0 0 0 -1 reverse_v I I I I 
	} 0 0 #
coedge $-1 -1 $-1 $17 $14 $21 $28 reversed $11 $29 #
coedge $-1 -1 $-1 $14 $17 $20 $28 forward $11 $30 #
pcurve $-1 -1 $-1 0 forward { exppc nubs 1 periodic 2 
	-6.283185307179586232 1 -0 1 
	1 1 
	0 1 
	5.574247297156037599e-12 
	spline forward { ref 0 } I I I I 
	} 0 0 #
tvertex-vertex $-1 -1 $-1 $15 $31 0.0001441456989072890406 #
ellipse-curve $-1 -1 $-1 8469.897595657193961 2160.185069040815051 14000.00000000000364 0.6964672824519163585 -0.717588548176489871 0 358.7942740882448902 348.2336412259583653 0 1 I I #
pcurve $-1 -1 $-1 0 forward { exppc nubs 1 periodic 2 
	0 1 6.283185307179586232 1 
	0 0 
	1 0 
	1.855369191616773638e-12 
	spline forward { ref 0 } I I I I 
	} 0 0 #
tvertex-vertex $-1 -1 $-1 $18 $32 0.0001441439674350776913 #
ellipse-curve $-1 -1 $-1 8202.268679470143979 2385.739415595992341 14000.00000000000364 0.7646540461569917291 -0.6444409900803493851 0 322.2204950401747396 382.3270230784959836 0 1 I I #
edge $-1 -1 $-1 $26 1.201506322549564069e-09 $23 0.9999999807810866503 $21 $33 forward @7 tangent #
pcurve $-1 -1 $-1 -1 $33 0 0 #
pcurve $-1 -1 $-1 1 $33 1 0 #
point $-1 -1 $-1 8828.691869745438453 2508.418710266772905 14000.00000000000364 #
point $-1 -1 $-1 8524.489174510319572 2768.066438674488381 14000.00000000000364 #
intcurve-curve $-1 -1 $-1 forward { parcur full nubs 3 open 2 
	0 3 1 3 
	8524.48922723103351 2768.066501182147476 13999.99988129533085 
	8625.890125735291804 2681.517258293300529 13999.99988129533085 
	8727.291029941692614 2594.968010089178733 13999.99988129533085 
	8828.691928445950907 2508.418767200331786 13999.99988129533085 
	0 
	
	spline forward { ref 0 } I I I I 
	null_surface 
	nubs 1 open 2 
	0 1 1 1 
	0 0 
	0 1 
	
	nullbs 
	I I 
	0 
	0 
	0 
	surf1 } F 1.201506322549564069e-09 F 0.9999999807810866503 #
End-of-ACIS-data 