700 0 1 0           
4 LibG 19 ASM 222.0.0.1700 NT 24 Wed Oct  5 17:29:53 2016 
1000 9.999999999999999547e-07 1.000000000000000036e-10 
body $-1 -1 $-1 $1 $-1 $-1 #
lump $-1 -1 $-1 $-1 $2 $0 #
shell $-1 -1 $-1 $-1 $-1 $3 $-1 $1 #
face $-1 -1 $-1 $4 $5 $2 $-1 $6 forward single #
face $-1 -1 $-1 $7 $8 $2 $-1 $9 reversed single #
loop $-1 -1 $-1 $-1 $10 $3 #
plane-surface $-1 -1 $-1 1358.360865126513318 3095.642797989813062 14000 1 -3.897834435702129261e-15 0 0 0 -1 forward_v I I I I #
face $-1 -1 $-1 $-1 $11 $2 $-1 $12 forward single #
loop $-1 -1 $-1 $-1 $13 $4 #
plane-surface $-1 -1 $-1 1008.360865084529223 3095.642797989814426 14000.00000000000364 1 -3.897834435702129261e-15 -1.039422516187234575e-14 -1.039422516187234575e-14 0 -1 forward_v I I I I #
tcoedge-coedge $-1 -1 $-1 $10 $10 $14 $15 forward $5 $16 -2.690493051503648832e-46 6.283185307179586232 #
loop $-1 -1 $-1 $-1 $17 $7 #
spline-surface $-1 -1 $-1 forward { exactsur full nubs 3 3 periodic open none none 90 2 
	0 3 0.004464285714285714038 1 0.008928571428571428076 1 0.01785714285714285615 1 0.02678571428571428423 1 
	0.0357142857142857123 1 0.05357142857142856845 1 0.07142857142857142461 1 0.08928571428571427382 1 0.09374999999999998612 1 
	0.09821428571428569843 1 0.1026785714285714246 1 0.1071428571428571369 1 0.125 1 0.1428571428571428492 1 
	0.1587301587301587213 1 0.1785714285714285476 1 0.1825396825396825295 1 0.1904761904761904656 1 0.2142857142857142738 1 
	0.226190476190476164 1 0.238095238095238082 1 0.2410714285714285476 1 0.2440476190476190133 1 0.2499999999999999722 1 
	0.2619047619047618625 1 0.2738095238095237804 1 0.2857142857142856984 1 0.2976190476190476164 1 0.3095238095238095344 1 
	0.3214285714285713969 1 0.3333333333333333148 1 0.3452380952380952328 1 0.3571428571428570953 1 0.3630952380952380265 1 
	0.3690476190476190133 1 0.375 1 0.3809523809523809312 1 0.3928571428571428492 1 0.4047619047619047672 1 
	0.4166666666666666297 1 0.4285714285714285476 1 0.4444444444444444198 1 0.4603174603174602919 1 0.476190476190476164 1 
	0.4801587301587301182 1 0.4841269841269840724 1 0.4920634920634920362 1 0.5 1 0.5079365079365079083 1 
	0.5158730158730158166 1 0.5238095238095237249 1 0.5476190476190475609 1 0.5714285714285713969 1 0.5833333333333332593 1 
	0.5892857142857141906 1 0.5922619047619046562 1 0.5952380952380951218 1 0.6190476190476189577 1 0.6269841269841269771 1 
	0.6349206349206348854 1 0.650793650793650702 1 0.6666666666666666297 1 0.6904761904761904656 1 0.7023809523809523281 1 
	0.7142857142857141906 1 0.7321428571428569843 1 0.749999999999999889 1 0.7678571428571427937 1 0.7857142857142855874 1 
	0.7976190476190474499 1 0.8095238095238094234 1 0.8333333333333332593 1 0.8452380952380951218 1 0.851190476190476053 1 
	0.8571428571428570953 1 0.875 1 0.8928571428571427937 1 0.9107142857142856984 1 0.9285714285714286031 1 
	0.9464285714285713969 1 0.9642857142857143016 1 0.9732142857142858094 1 0.9821428571428572063 1 0.9910714285714286031 1 
	0.9955357142857143016 1 0.9977678571428572063 1 0.9988839285714286031 1 0.9994419642857143016 1 1 3 
	0 3 1 3 
	1008.360865084500801 3595.64288047761238 13999.99993733633164 
	1008.360865084500915 3595.642880281037833 14004.6749264530863 
	1008.360865084501256 3595.511735225134544 14014.02490584471707 
	1008.360865084502166 3594.725099602452701 14032.71014839289091 
	1008.360865084503871 3592.759716319850668 14056.01156290269319 
	1008.360865084506145 3588.836932233327389 14083.79697775643399 
	1008.360865084508191 3581.538051748671023 14120.49278775101993 
	1008.360865084515012 3568.575872846352468 14165.4863510551022 
	1008.360865084520015 3547.073468663173117 14217.39753077491332 
	1008.36086508452604 3526.688952967906062 14254.28040578752189 
	1008.360865084526949 3511.432169446668468 14277.82153290891802 
	1008.360865084527518 3503.476809221044277 14289.37361400041118 
	1008.360865084527973 3495.200482033463686 14300.69796225074424 
	1008.360865084528427 3478.019384041705507 14322.87369747309458 
	1008.360865084531042 3449.938960836261231 14354.29615389519859 
	1008.360865084533316 3409.594070137371091 14390.34989077358478 
	1008.360865084535249 3363.987963221550672 14423.13894006804367 
	1008.360865084537522 3327.673321247984859 14443.50612753226778 
	1008.360865084537295 3297.541042578308407 14457.55623430505693 
	1008.360865084537977 3263.067715618827151 14472.08968495274894 
	1008.360865084538887 3219.265201923645691 14485.6003756300579 
	1008.360865084539114 3170.233314603984127 14494.87632692672923 
	1008.36086508453991 3142.340379139815013 14498.01952332579458 
	1008.360865084539682 3123.67962382927135 14499.24251755967634 
	1008.360865084539455 3111.226067543613681 14499.8251595048423 
	1008.360865084539341 3089.409446766770543 14500.23323401208654 
	1008.360865084539 3058.242857421562803 14499.06711510273999 
	1008.360865084538887 3021.052097992248036 14494.87669331857796 
	1008.360865084538432 2984.278482937891567 14487.91876072080777 
	1008.360865084537863 2948.127659698885509 14478.23217112734346 
	1008.360865084537409 2912.801802203239731 14465.87111995883424 
	1008.360865084536726 2878.49846178370035 14450.90472804746605 
	1008.360865084536499 2845.409486290053337 14433.41668867372027 
	1008.360865084535931 2813.719902852357791 14413.50482008685503 
	1008.360865084535362 2788.625769380953443 14394.9845410549442 
	1008.360865084535362 2769.422940852683041 14379.07425191268885 
	1008.360865084535476 2755.476998274605194 14366.61145130950536 
	1008.360865084535249 2742.006860956238143 14353.63585436190988 
	1008.360865084534908 2724.706034427445047 14335.6756939975221 
	1008.360865084534225 2704.362217156846327 14312.03578776911127 
	1008.360865084533543 2682.137788089385595 14281.92286422623874 
	1008.360865084532861 2662.226045981488369 14250.23322887889663 
	1008.360865084531611 2642.794645489491813 14213.4678068286812 
	1008.360865084530815 2625.016799091044959 14171.29380300504636 
	1008.360865084529792 2610.300263158768303 14123.5833195216801 
	1008.360865084528882 2602.880402055450759 14086.87935726493197 
	1008.360865084528882 2599.471796762429221 14062.17821303916753 
	1008.360865084528541 2597.610518279669122 14045.65926982786186 
	1008.3608650845282 2596.057291019264539 14024.933191023154 
	1008.360865084527859 2595.435537614450368 13999.99992423692311 
	1008.3608650845282 2596.05720735872319 13975.06663026250681 
	1008.360865084527973 2597.921355094192222 13950.19538460635886 
	1008.360865084527745 2603.088998564598114 13908.94945234564511 
	1008.3608650845282 2616.070196199161273 13852.0713343188454 
	1008.360865084528314 2638.907747353985997 13793.88479837639534 
	1008.360865084528314 2659.311493050013269 13755.28150779558382 
	1008.3608650845282 2670.573009206993902 13736.59169880599984 
	1008.360865084528314 2677.304432772661585 13726.09796133406053 
	1008.360865084527745 2694.620042150577774 13700.1824656752251 
	1008.360865084527973 2717.354423274888632 13671.67496830710661 
	1008.360865084527518 2746.379733722749279 13641.91819907804893 
	1008.36086508452729 2770.756758481310044 13619.29880144892013 
	1008.360865084526608 2803.286776064148398 13593.35765601764797 
	1008.360865084526154 2852.217558033522437 13561.75276908810156 
	1008.36086508452604 2901.026182670227627 13538.2484805070344 
	1008.360865084525926 2948.127950274666091 13521.76850794077654 
	1008.360865084525585 2990.303608664363765 13510.46670877409451 
	1008.360865084525017 3039.543032549217969 13502.10052824072773 
	1008.360865084524335 3095.642824080463015 13498.95006079653831 
	1008.36086508452388 3151.742627049960447 13502.10050655213672 
	1008.360865084523198 3200.982035093981267 13510.46671849068298 
	1008.360865084522743 3243.157724071957546 13521.7684327091556 
	1008.360865084523198 3290.259397636451467 13538.24866078307241 
	1008.360865084522288 3335.31362646390744 13559.9446236161948 
	1008.360865084522288 3372.284049396886076 13583.17665224420125 
	1008.360865084521834 3392.622271112054023 13597.6071385414707 
	1008.360865084522288 3417.352815634672879 13616.58339866056485 
	1008.360865084520242 3449.939179375166532 13645.70354425369806 
	1008.360865084517513 3487.37975877534609 13687.60018441619104 
	1008.360865084514558 3519.894358967260814 13733.42499705781302 
	1008.360865084511374 3547.073532748082471 13782.6023456246985 
	1008.360865084508305 3568.575962979899941 13834.51347282194547 
	1008.360865084504212 3581.538078765004684 13879.50708352449874 
	1008.360865084502962 3588.836955800565192 13916.20288978722419 
	1008.360865084502393 3592.75972820223069 13943.98831040864388 
	1008.360865084500801 3594.725105252273806 13967.28972595943196 
	1008.360865084500915 3595.413407064306739 13983.63931398345812 
	1008.360865084500915 3595.585510442563191 13991.81893632719584 
	1008.360865084500688 3595.628537827959462 13995.90935060150514 
	1008.360865084500915 3595.640831415971661 13998.24681643564509 
	1008.360865084500801 3595.642880502184198 13999.41556369673708 
	1008.360865084500801 3595.64288047761238 13999.99993733633164 
	1125.027531765162166 3595.642880477611925 13999.99993733632982 
	1125.027531765162166 3595.642880281037378 14004.67492645308448 
	1125.027531765162394 3595.511735225134089 14014.02490584471525 
	1125.027531765163076 3594.725099602452246 14032.7101483928891 
	1125.027531765164667 3592.759716319850213 14056.01156290269137 
	1125.027531765166259 3588.836932233326934 14083.79697775643217 
	1125.027531765168078 3581.538051748670568 14120.49278775101811 
	1125.02753176517399 3568.575872846352013 14165.48635105510039 
	1125.02753176517831 3547.073468663172662 14217.3975307749115 
	1125.027531765183767 3526.688952967905607 14254.28040578752007 
	1125.027531765184449 3511.432169446668013 14277.8215329089162 
	1125.027531765184904 3503.476809221043823 14289.37361400040936 
	1125.027531765185131 3495.200482033463231 14300.69796225074242 
	1125.027531765185586 3478.019384041705052 14322.87369747309276 
	1125.027531765187177 3449.938960836260776 14354.29615389519677 
	1125.027531765189451 3409.594070137370636 14390.34989077358296 
	1125.027531765190361 3363.987963221550217 14423.13894006804185 
	1125.027531765193089 3327.673321247984404 14443.50612753226596 
	1125.02753176519218 3297.541042578307952 14457.55623430505511 
	1125.027531765193089 3263.067715618826696 14472.08968495274712 
	1125.027531765193316 3219.265201923645236 14485.60037563005608 
	1125.027531765193771 3170.233314603983672 14494.87632692672742 
	1125.027531765194453 3142.340379139814559 14498.01952332579276 
	1125.027531765193999 3123.679623829270895 14499.24251755967452 
	1125.027531765193999 3111.226067543613226 14499.82515950484049 
	1125.027531765193771 3089.409446766770088 14500.23323401208472 
	1125.027531765193316 3058.242857421562348 14499.06711510273817 
	1125.027531765193316 3021.052097992247582 14494.87669331857614 
	1125.027531765193089 2984.278482937891113 14487.91876072080595 
	1125.027531765192634 2948.127659698885054 14478.23217112734164 
	1125.027531765192407 2912.801802203239276 14465.87111995883242 
	1125.027531765191725 2878.498461783699895 14450.90472804746423 
	1125.027531765191952 2845.409486290052882 14433.41668867371845 
	1125.027531765191497 2813.719902852357336 14413.50482008685321 
	1125.02753176519127 2788.625769380952988 14394.98454105494238 
	1125.027531765191497 2769.422940852682586 14379.07425191268703 
	1125.027531765191952 2755.476998274604739 14366.61145130950354 
	1125.027531765191497 2742.006860956237688 14353.63585436190806 
	1125.027531765191725 2724.706034427444592 14335.67569399752028 
	1125.02753176519127 2704.362217156845873 14312.03578776910945 
	1125.027531765190815 2682.13778808938514 14281.92286422623692 
	1125.027531765190815 2662.226045981487914 14250.23322887889481 
	1125.027531765190133 2642.794645489491359 14213.46780682867939 
	1125.027531765189906 2625.016799091044504 14171.29380300504454 
	1125.027531765189451 2610.300263158767848 14123.58331952167828 
	1125.027531765188996 2602.880402055450304 14086.87935726493015 
	1125.027531765189451 2599.471796762428767 14062.17821303916571 
	1125.027531765189224 2597.610518279668668 14045.65926982786004 
	1125.027531765189451 2596.057291019264085 14024.93319102315218 
	1125.027531765189224 2595.435537614449913 13999.99992423692129 
	1125.027531765189906 2596.057207358722735 13975.06663026250499 
	1125.027531765189906 2597.921355094191767 13950.19538460635704 
	1125.027531765190815 2603.088998564597659 13908.94945234564329 
	1125.02753176519127 2616.070196199160819 13852.07133431884358 
	1125.027531765192634 2638.907747353985542 13793.88479837639352 
	1125.027531765193089 2659.311493050012814 13755.281507795582 
	1125.027531765193089 2670.573009206993447 13736.59169880599802 
	1125.027531765193544 2677.30443277266113 13726.09796133405871 
	1125.027531765193089 2694.620042150577319 13700.18246567522328 
	1125.027531765193771 2717.354423274888177 13671.67496830710479 
	1125.027531765193999 2746.379733722748824 13641.91819907804711 
	1125.027531765193771 2770.756758481309589 13619.29880144891831 
	1125.027531765193771 2803.286776064147944 13593.35765601764615 
	1125.027531765193544 2852.217558033521982 13561.75276908809974 
	1125.027531765193771 2901.026182670227172 13538.24848050703258 
	1125.027531765193771 2948.127950274665636 13521.76850794077473 
	1125.027531765193999 2990.30360866436331 13510.46670877409269 
	1125.027531765193316 3039.543032549217514 13502.10052824072591 
	1125.027531765192634 3095.64282408046256 13498.95006079653649 
	1125.02753176519218 3151.742627049959992 13502.1005065521349 
	1125.02753176519127 3200.982035093980812 13510.46671849068116 
	1125.027531765190815 3243.157724071957091 13521.76843270915379 
	1125.027531765190815 3290.259397636451013 13538.24866078307059 
	1125.027531765189906 3335.313626463906985 13559.94462361619298 
	1125.027531765189224 3372.284049396885621 13583.17665224419943 
	1125.027531765188996 3392.622271112053568 13597.60713854146888 
	1125.027531765188769 3417.352815634672424 13616.58339866056303 
	1125.027531765186723 3449.939179375166077 13645.70354425369624 
	1125.027531765183085 3487.379758775345636 13687.60018441618922 
	1125.027531765179674 3519.894358967260359 13733.4249970578112 
	1125.027531765175809 3547.073532748082016 13782.60234562469668 
	1125.027531765171943 3568.575962979899487 13834.51347282194365 
	1125.027531765167168 3581.538078765004229 13879.50708352449692 
	1125.027531765165577 3588.836955800564738 13916.20288978722238 
	1125.027531765164213 3592.759728202230235 13943.98831040864206 
	1125.027531765162848 3594.725105252273352 13967.28972595943014 
	1125.027531765162394 3595.413407064306284 13983.6393139834563 
	1125.027531765162394 3595.585510442562736 13991.81893632719402 
	1125.027531765162166 3595.628537827959008 13995.90935060150332 
	1125.027531765162166 3595.640831415971206 13998.24681643564327 
	1125.027531765162166 3595.642880502183743 13999.41556369673526 
	1125.027531765162166 3595.642880477611925 13999.99993733632982 
	1241.694198445813299 3595.64288047761147 13999.99993733633346 
	1241.694198445813299 3595.642880281037378 14004.67492645309176 
	1241.694198445813072 3595.511735225133634 14014.02490584471889 
	1241.694198445814209 3594.725099602451792 14032.71014839289455 
	1241.6941984458158 3592.759716319849758 14056.011562902695 
	1241.694198445818529 3588.836932233326479 14083.79697775643581 
	1241.69419844582012 3581.538051748670114 14120.49278775102175 
	1241.694198445828533 3568.575872846351558 14165.48635105510402 
	1241.69419844583399 3547.073468663172662 14217.39753077491332 
	1241.694198445841721 3526.688952967904697 14254.28040578752007 
	1241.694198445842176 3511.432169446667558 14277.82153290891438 
	1241.694198445842858 3503.476809221043368 14289.37361400040754 
	1241.694198445843313 3495.200482033462322 14300.69796225074242 
	1241.69419844584354 3478.019384041704598 14322.87369747309276 
	1241.694198445846268 3449.938960836259866 14354.29615389519859 
	1241.69419844584877 3409.594070137369727 14390.34989077358478 
	1241.694198445850361 3363.987963221549762 14423.13894006804367 
	1241.694198445853317 3327.673321247983495 14443.50612753226596 
	1241.694198445852635 3297.541042578307497 14457.55623430505511 
	1241.694198445853317 3263.067715618825787 14472.08968495274712 
	1241.694198445854227 3219.265201923643417 14485.60037563005608 
	1241.694198445854227 3170.233314603982762 14494.87632692673105 
	1241.694198445856046 3142.340379139813194 14498.0195233257964 
	1241.694198445854909 3123.67962382927044 14499.24251755967816 
	1241.694198445855136 3111.226067543612771 14499.82515950484412 
	1241.694198445854909 3089.409446766769634 14500.23323401208836 
	1241.694198445854454 3058.242857421562348 14499.06711510274181 
	1241.694198445854454 3021.052097992247582 14494.87669331857978 
	1241.694198445853772 2984.278482937891113 14487.91876072080959 
	1241.694198445853544 2948.127659698884599 14478.23217112734528 
	1241.69419844585309 2912.801802203238822 14465.87111995883606 
	1241.694198445852635 2878.498461783699895 14450.90472804746787 
	1241.694198445852408 2845.409486290052428 14433.41668867372209 
	1241.69419844585218 2813.719902852358246 14413.50482008685685 
	1241.69419844585218 2788.625769380952988 14394.98454105494602 
	1241.694198445852635 2769.422940852683041 14379.07425191269067 
	1241.694198445852635 2755.476998274604739 14366.61145130950717 
	1241.69419844585309 2742.006860956237688 14353.6358543619117 
	1241.694198445852408 2724.706034427444592 14335.67569399752392 
	1241.694198445852635 2704.362217156846327 14312.03578776911309 
	1241.69419844585218 2682.13778808938514 14281.92286422624056 
	1241.694198445851953 2662.226045981487914 14250.23322887889663 
	1241.694198445851043 2642.794645489490904 14213.46780682867939 
	1241.694198445851043 2625.016799091044504 14171.29380300504272 
	1241.694198445850589 2610.300263158768303 14123.58331952167464 
	1241.694198445850361 2602.880402055449849 14086.87935726492833 
	1241.694198445851043 2599.471796762428767 14062.17821303916207 
	1241.694198445850589 2597.610518279668668 14045.65926982785822 
	1241.694198445850816 2596.057291019264085 14024.93319102314854 
	1241.694198445850589 2595.435537614449913 13999.99992423691947 
	1241.694198445851498 2596.057207358722735 13975.06663026249953 
	1241.694198445851725 2597.921355094191767 13950.19538460635158 
	1241.694198445852408 2603.088998564597205 13908.94945234563966 
	1241.694198445854454 2616.070196199160364 13852.07133431883994 
	1241.694198445855363 2638.907747353985087 13793.8847983763917 
	1241.694198445856728 2659.311493050012359 13755.28150779557836 
	1241.6941984458565 2670.573009206992992 13736.5916988059962 
	1241.694198445857182 2677.304432772660675 13726.09796133405689 
	1241.6941984458565 2694.620042150576865 13700.18246567521965 
	1241.69419844585741 2717.354423274887722 13671.67496830709933 
	1241.69419844585741 2746.379733722748369 13641.91819907804529 
	1241.694198445857637 2770.756758481309134 13619.29880144891649 
	1241.694198445857182 2803.286776064147489 13593.35765601764433 
	1241.69419844585741 2852.217558033521527 13561.75276908809792 
	1241.69419844585741 2901.026182670225808 13538.24848050703258 
	1241.694198445857637 2948.127950274665181 13521.76850794077473 
	1241.694198445857182 2990.3036086643624 13510.46670877409088 
	1241.694198445856728 3039.54303254921706 13502.10052824072591 
	1241.694198445855363 3095.642824080461651 13498.95006079653831 
	1241.694198445855591 3151.742627049959083 13502.10050655213854 
	1241.694198445853772 3200.982035093979903 13510.4667184906848 
	1241.694198445853317 3243.157724071956181 13521.76843270915742 
	1241.69419844585309 3290.259397636449648 13538.24866078307423 
	1241.694198445851498 3335.313626463906985 13559.9446236161948 
	1241.694198445851043 3372.284049396885166 13583.17665224420307 
	1241.694198445850134 3392.622271112053113 13597.6071385414707 
	1241.694198445850361 3417.35281563467197 13616.58339866056485 
	1241.694198445846951 3449.939179375166077 13645.70354425369624 
	1241.694198445842176 3487.37975877534609 13687.60018441618922 
	1241.694198445837401 3519.894358967260359 13733.42499705781302 
	1241.694198445831944 3547.073532748082471 13782.60234562469668 
	1241.694198445826487 3568.575962979899941 13834.51347282194365 
	1241.69419844582012 3581.538078765004684 13879.50708352449874 
	1241.694198445817619 3588.836955800565192 13916.20288978722238 
	1241.694198445816482 3592.75972820223069 13943.98831040864025 
	1241.694198445813754 3594.725105252273806 13967.28972595943014 
	1241.694198445813527 3595.413407064306739 13983.63931398345449 
	1241.694198445813299 3595.585510442563191 13991.81893632719402 
	1241.694198445813072 3595.628537827959008 13995.90935060150332 
	1241.694198445813299 3595.640831415970752 13998.24681643564509 
	1241.694198445813299 3595.642880502183289 13999.4155636967389 
	1241.694198445813299 3595.64288047761147 13999.99993733633346 
	1358.360865126474664 3595.642880477611016 13999.99993733633164 
	1358.360865126474664 3595.642880281036923 14004.67492645308994 
	1358.360865126474664 3595.511735225133179 14014.02490584471707 
	1358.360865126475801 3594.725099602451337 14032.71014839289273 
	1358.36086512647762 3592.759716319849304 14056.01156290269319 
	1358.360865126480348 3588.836932233326024 14083.79697775643399 
	1358.360865126482395 3581.538051748669659 14120.49278775101993 
	1358.360865126491035 3568.575872846351103 14165.4863510551022 
	1358.360865126496947 3547.073468663172207 14217.3975307749115 
	1358.360865126504677 3526.688952967904243 14254.28040578751825 
	1358.360865126505587 3511.432169446667103 14277.82153290891256 
	1358.360865126506269 3503.476809221042913 14289.37361400040572 
	1358.360865126506724 3495.200482033461867 14300.6979622507406 
	1358.360865126507179 3478.019384041704143 14322.87369747309094 
	1358.360865126510134 3449.938960836259412 14354.29615389519677 
	1358.360865126512863 3409.594070137369272 14390.34989077358296 
	1358.360865126514682 3363.987963221549307 14423.13894006804185 
	1358.360865126517638 3327.67332124798304 14443.50612753226414 
	1358.360865126517183 3297.541042578307042 14457.55623430505329 
	1358.360865126517865 3263.067715618825332 14472.0896849527453 
	1358.360865126519002 3219.265201923642962 14485.60037563005426 
	1358.360865126519229 3170.233314603982308 14494.87632692672923 
	1358.360865126520594 3142.34037913981274 14498.01952332579458 
	1358.360865126519911 3123.679623829269985 14499.24251755967634 
	1358.360865126519911 3111.226067543612317 14499.8251595048423 
	1358.360865126519684 3089.409446766769179 14500.23323401208654 
	1358.360865126519229 3058.242857421561894 14499.06711510273999 
	1358.360865126519229 3021.052097992247127 14494.87669331857796 
	1358.360865126518547 2984.278482937890658 14487.91876072080777 
	1358.360865126518092 2948.127659698884145 14478.23217112734346 
	1358.360865126517865 2912.801802203238367 14465.87111995883424 
	1358.360865126516956 2878.49846178369944 14450.90472804746605 
	1358.360865126516956 2845.409486290051973 14433.41668867372027 
	1358.360865126516501 2813.719902852357791 14413.50482008685503 
	1358.360865126516273 2788.625769380952534 14394.9845410549442 
	1358.360865126516501 2769.422940852682586 14379.07425191268885 
	1358.360865126516728 2755.476998274604284 14366.61145130950536 
	1358.360865126516501 2742.006860956237233 14353.63585436190988 
	1358.360865126516501 2724.706034427444138 14335.6756939975221 
	1358.360865126516046 2704.362217156845873 14312.03578776911127 
	1358.360865126515591 2682.137788089384685 14281.92286422623874 
	1358.360865126515137 2662.226045981487459 14250.23322887889481 
	1358.360865126514 2642.794645489490449 14213.46780682867757 
	1358.360865126513545 2625.016799091044049 14171.2938030050409 
	1358.360865126512635 2610.300263158767848 14123.58331952167282 
	1358.360865126512408 2602.880402055449395 14086.87935726492651 
	1358.360865126512635 2599.471796762428312 14062.17821303916025 
	1358.360865126512408 2597.610518279668213 14045.65926982785641 
	1358.360865126512181 2596.05729101926363 14024.93319102314672 
	1358.360865126512181 2595.435537614449458 13999.99992423691765 
	1358.360865126512635 2596.05720735872228 13975.06663026249771 
	1358.360865126512863 2597.921355094191313 13950.19538460634976 
	1358.36086512651309 2603.08899856459675 13908.94945234563784 
	1358.360865126514682 2616.070196199159909 13852.07133431883813 
	1358.360865126515364 2638.907747353984632 13793.88479837638988 
	1358.360865126516273 2659.311493050011904 13755.28150779557654 
	1358.360865126516046 2670.573009206992538 13736.59169880599438 
	1358.360865126516501 2677.304432772660221 13726.09796133405507 
	1358.360865126515819 2694.62004215057641 13700.18246567521783 
	1358.360865126516501 2717.354423274887267 13671.67496830709752 
	1358.360865126516273 2746.379733722747915 13641.91819907804347 
	1358.360865126516273 2770.75675848130868 13619.29880144891467 
	1358.360865126515819 2803.286776064147034 13593.35765601764251 
	1358.360865126515591 2852.217558033521073 13561.7527690880961 
	1358.360865126515591 2901.026182670225353 13538.24848050703076 
	1358.360865126515591 2948.127950274664727 13521.76850794077291 
	1358.360865126515364 2990.303608664361946 13510.46670877408906 
	1358.360865126514454 3039.543032549216605 13502.10052824072409 
	1358.360865126513545 3095.642824080461196 13498.95006079653649 
	1358.36086512651309 3151.742627049958628 13502.10050655213672 
	1358.360865126511953 3200.982035093979448 13510.46671849068298 
	1358.360865126511271 3243.157724071955727 13521.7684327091556 
	1358.360865126511271 3290.259397636449194 13538.24866078307241 
	1358.360865126509907 3335.31362646390653 13559.94462361619298 
	1358.360865126509452 3372.284049396884711 13583.17665224420125 
	1358.36086512650877 3392.622271112052658 13597.60713854146888 
	1358.360865126508997 3417.352815634671515 13616.58339866056303 
	1358.360865126505814 3449.939179375165622 13645.70354425369442 
	1358.360865126501494 3487.379758775345636 13687.6001844161874 
	1358.360865126496947 3519.894358967259905 13733.4249970578112 
	1358.360865126491717 3547.073532748082016 13782.60234562469486 
	1358.360865126486715 3568.575962979899487 13834.51347282194183 
	1358.360865126480576 3581.538078765004229 13879.50708352449692 
	1358.360865126478529 3588.836955800564738 13916.20288978722056 
	1358.360865126477393 3592.759728202230235 13943.98831040863843 
	1358.360865126474891 3594.725105252273352 13967.28972595942832 
	1358.360865126474891 3595.413407064306284 13983.63931398345267 
	1358.360865126474664 3595.585510442562736 13991.8189363271922 
	1358.360865126474437 3595.628537827958553 13995.9093506015015 
	1358.360865126474664 3595.640831415970297 13998.24681643564327 
	1358.360865126474664 3595.642880502182834 13999.41556369673708 
	1358.360865126474664 3595.642880477611016 13999.99993733633164 
	0 
	
	0 
	0 
	89 0 0.004464285714285714038 0.008928571428571428076 0.01785714285714285615 0.02678571428571428423 0.0357142857142857123 0.05357142857142856845 0.07142857142857142461 0.08928571428571427382 0.09374999999999998612 0.09821428571428569843 0.1026785714285714246 0.1071428571428571369 0.125 0.1428571428571428492 0.1587301587301587213 0.1785714285714285476 0.1825396825396825295 0.1904761904761904656 0.2142857142857142738 0.226190476190476164 0.238095238095238082 0.2410714285714285476 0.2440476190476190133 0.2499999999999999722 0.2619047619047618625 0.2738095238095237804 0.2857142857142856984 0.2976190476190476164 0.3095238095238095344 0.3214285714285713969 0.3333333333333333148 0.3452380952380952328 0.3571428571428570953 0.3630952380952380265 0.3690476190476190133 0.375 0.3809523809523809312 0.3928571428571428492 0.4047619047619047672 0.4166666666666666297 0.4285714285714285476 0.4444444444444444198 0.4603174603174602919 0.476190476190476164 0.4801587301587301182 0.4841269841269840724 0.4920634920634920362 0.5 0.5079365079365079083 0.5158730158730158166 0.5238095238095237249 0.5476190476190475609 0.5714285714285713969 0.5833333333333332593 0.5892857142857141906 0.5922619047619046562 0.5952380952380951218 0.6190476190476189577 0.6269841269841269771 0.6349206349206348854 0.650793650793650702 0.6666666666666666297 0.6904761904761904656 0.7023809523809523281 0.7142857142857141906 0.7321428571428569843 0.749999999999999889 0.7678571428571427937 0.7857142857142855874 0.7976190476190474499 0.8095238095238094234 0.8333333333333332593 0.8452380952380951218 0.851190476190476053 0.8571428571428570953 0.875 0.8928571428571427937 0.9107142857142856984 0.9285714285714286031 0.9464285714285713969 0.9642857142857143016 0.9732142857142858094 0.9821428571428572063 0.9910714285714286031 0.9955357142857143016 0.9977678571428572063 0.9988839285714286031 0.9994419642857143016 
	0 
	0 
	0 
	F 1 F 0 F 1 F 0 } I I I I #
tcoedge-coedge $-1 -1 $-1 $13 $13 $17 $18 reversed $8 $19 -6.283185307179586232 3.376247349171001811e-31 #
tcoedge-coedge $-1 -1 $-1 $20 $21 $10 $15 reversed $11 $22 -6.283185307179586232 2.690493051503648832e-46 #
tedge-edge $-1 -1 $-1 $23 -2.690493051503648832e-46 $23 6.283185307179586232 $14 $24 forward @7 unknown 0.0007418806565572806482 #
pcurve $-1 -1 $-1 0 forward { exppc nurbs 2 periodic 5 
	-2.690493051503648832e-46 2 1.570796326794896558 2 3.141592653589793116 2 4.712388980384689674 2 6.283185307179586232 2 
	0 500 1 
	-500 500 0.7071067811865463515 
	-500 0 1 
	-500 -500 0.7071067811865463515 
	0 -500 1 
	500 -500 0.7071067811865463515 
	500 0 1 
	500 500 0.7071067811865463515 
	0 500 1 
	0 
	plane 1358.360865126513318 3095.642797989813062 14000 1 -3.897834435702129261e-15 0 0 0 -1 forward_v I I I I 
	} 0 0 #
tcoedge-coedge $-1 -1 $-1 $21 $20 $13 $18 forward $11 $25 -3.376247349171001811e-31 6.283185307179586232 #
tedge-edge $-1 -1 $-1 $26 -3.376247349171001811e-31 $26 6.283185307179586232 $17 $27 forward @7 unknown 0.0007418806527789835285 #
pcurve $-1 -1 $-1 0 forward { exppc nurbs 2 periodic 5 
	-6.283185307179586232 2 -4.712388980384689674 2 -3.141592653589793116 2 -1.570796326794896558 2 3.376247349171001811e-31 2 
	0 500 1 
	500 500 0.707106781186543798 
	500 0 1 
	500 -500 0.7071067811865463515 
	0 -500 1 
	-500 -500 0.7071067811865463515 
	-500 0 1 
	-500 500 0.7071067811865463515 
	0 500 1 
	0 
	plane 1008.360865084529223 3095.642797989814426 14000.00000000000364 -1 3.897834435702129261e-15 1.039422516187234575e-14 -1.039422516187234575e-14 0 -1 reverse_v I I I I 
	} 0 0 #
coedge $-1 -1 $-1 $17 $14 $21 $28 reversed $11 $29 #
coedge $-1 -1 $-1 $14 $17 $20 $28 forward $11 $30 #
pcurve $-1 -1 $-1 0 forward { exppc nubs 1 periodic 2 
	-6.283185307179586232 1 2.690493051503648832e-46 1 
	1 1 
	0 1 
	0 
	spline forward { ref 0 } I I I I 
	} 0 0 #
tvertex-vertex $-1 -1 $-1 $15 $31 0.0001035904156538048346 #
ellipse-curve $-1 -1 $-1 1358.360865126513318 3095.642797989813062 14000 1 -3.897834435702129261e-15 0 1.94891721785106465e-12 500 1.345246525751824388e-43 1 I I #
pcurve $-1 -1 $-1 0 forward { exppc nubs 1 periodic 2 
	-3.376247349171001811e-31 1 6.283185307179586232 1 
	0 0 
	1 0 
	4.4114023995510105e-13 
	spline forward { ref 0 } I I I I 
	} 0 0 #
tvertex-vertex $-1 -1 $-1 $18 $32 0.0001035904178544790478 #
ellipse-curve $-1 -1 $-1 1008.360865084529223 3095.642797989814426 14000.00000000000364 1 -3.897834435702129261e-15 -1.039422516187234575e-14 1.94891721785106465e-12 500 1.345246525751824388e-43 1 I I #
edge $-1 -1 $-1 $26 0 $23 1 $21 $33 forward @7 tangent #
pcurve $-1 -1 $-1 -1 $33 0 0 #
pcurve $-1 -1 $-1 1 $33 1 0 #
point $-1 -1 $-1 1358.360865126515364 3595.642797989813062 14000 #
point $-1 -1 $-1 1008.360865084531156 3595.642797989814426 14000.00000000000364 #
intcurve-curve $-1 -1 $-1 forward { parcur full nubs 3 open 2 
	0 3 1 3 
	1008.360865084500801 3595.64288047761238 13999.99993733633164 
	1125.027531765162166 3595.642880477611925 13999.99993733632982 
	1241.694198445813299 3595.64288047761147 13999.99993733633346 
	1358.360865126474664 3595.642880477611016 13999.99993733633164 
	0 
	
	spline forward { ref 0 } I I I I 
	null_surface 
	nubs 1 open 2 
	0 1 1 1 
	0 0 
	0 1 
	
	nullbs 
	I I 
	0 
	0 
	0 
	surf1 } F 0 F 1 #
End-of-ACIS-data 