700 0 1 0           
4 LibG 19 ASM 222.0.0.1700 NT 24 Wed Oct  5 17:29:53 2016 
1000 9.999999999999999547e-07 1.000000000000000036e-10 
body $-1 -1 $-1 $1 $-1 $-1 #
lump $-1 -1 $-1 $-1 $2 $0 #
shell $-1 -1 $-1 $-1 $-1 $3 $-1 $1 #
face $-1 -1 $-1 $4 $5 $2 $-1 $6 forward single #
face $-1 -1 $-1 $7 $8 $2 $-1 $9 reversed single #
loop $-1 -1 $-1 $-1 $10 $3 #
plane-surface $-1 -1 $-1 658.3608650425451287 3095.64279798981579 13999.99999999999818 1 -3.897834435702129261e-15 1.559133774280851705e-14 1.559133774280851705e-14 0 -1 forward_v I I I I #
face $-1 -1 $-1 $-1 $11 $2 $-1 $12 forward single #
loop $-1 -1 $-1 $-1 $13 $4 #
plane-surface $-1 -1 $-1 308.3608650005609775 3095.642797989817154 14000.00000000000182 1 -3.897834435702128473e-15 -1.039422516187234417e-14 -1.039422516187234417e-14 0 -1 forward_v I I I I #
tcoedge-coedge $-1 -1 $-1 $10 $10 $14 $15 forward $5 $16 5.064371023756590516e-31 6.283185307179586232 #
loop $-1 -1 $-1 $-1 $17 $7 #
spline-surface $-1 -1 $-1 forward { exactsur full nubs 3 3 periodic open none none 89 2 
	0 3 0.001116071428571428509 1 0.002232142857142857019 1 0.004464285714285714038 1 0.008928571428571428076 1 
	0.01785714285714285615 1 0.02678571428571428423 1 0.0357142857142857123 1 0.05357142857142856845 1 0.07142857142857142461 1 
	0.08928571428571427382 1 0.1071428571428571369 1 0.1160714285714285754 1 0.125 1 0.1339285714285714246 1 
	0.1428571428571428492 1 0.1587301587301587213 1 0.1746031746031745935 1 0.1904761904761904656 1 0.2023809523809523836 1 
	0.2142857142857142738 1 0.238095238095238082 1 0.2619047619047618625 1 0.2857142857142856984 1 0.2916666666666666297 1 
	0.2931547619047618625 1 0.2946428571428570953 1 0.2961309523809523281 1 0.2976190476190476164 1 0.3095238095238095344 1 
	0.3214285714285713969 1 0.3333333333333333148 1 0.3452380952380952328 1 0.3571428571428570953 1 0.3690476190476190133 1 
	0.3809523809523809312 1 0.3928571428571428492 1 0.4047619047619047672 1 0.4166666666666666297 1 0.4285714285714285476 1 
	0.4444444444444444198 1 0.4603174603174602919 1 0.476190476190476164 1 0.4841269841269840724 1 0.4880952380952380265 1 
	0.4900793650793650036 1 0.4920634920634920362 1 0.5079365079365079083 1 0.5158730158730158166 1 0.5198412698412697708 1 
	0.5238095238095237249 1 0.5476190476190475609 1 0.5714285714285713969 1 0.5833333333333332593 1 0.5952380952380951218 1 
	0.6071428571428569843 1 0.6190476190476189577 1 0.6349206349206348854 1 0.650793650793650702 1 0.6666666666666666297 1 
	0.6904761904761904656 1 0.7023809523809523281 1 0.7142857142857141906 1 0.7321428571428569843 1 0.749999999999999889 1 
	0.7678571428571427937 1 0.7767857142857141906 1 0.7857142857142855874 1 0.7916666666666665186 1 0.7976190476190474499 1 
	0.8095238095238094234 1 0.8333333333333332593 1 0.8452380952380951218 1 0.8571428571428570953 1 0.875 1 
	0.8928571428571427937 1 0.9107142857142856984 1 0.9285714285714286031 1 0.9464285714285713969 1 0.9642857142857143016 1 
	0.9821428571428572063 1 0.9910714285714286031 1 0.9955357142857143016 1 0.9977678571428572063 1 0.9988839285714286031 1 
	0.9994419642857143016 1 0.9997209821428572063 1 0.9998604910714286031 1 1 3 
	0 3 1 3 
	308.3608649935985682 3595.642854897245797 13999.99986865703067 
	308.3608649935987955 3595.642854892126707 14001.16861591910856 
	308.3608649936065831 3595.634658906109962 14003.50611041442062 
	308.3608649936136885 3595.585484634913882 14008.18086945280993 
	308.3608649936488746 3595.413380295409297 14016.36049100552373 
	308.3608649937592077 3594.725075880651275 14032.71007642493714 
	308.3608649941042472 3592.75968694314497 14056.01148039187319 
	308.3608649944178524 3588.836907267911556 14083.7968913585064 
	308.360864994754877 3581.538007697748981 14120.49267595559468 
	308.3608649958468391 3568.575884519483225 14165.48625579366853 
	308.3608649966521966 3547.07332404803492 14217.39726635958868 
	308.3608649976994798 3519.894272525400538 14266.57466172211389 
	308.3608649978833114 3492.798693886904402 14304.76193870856696 
	308.3608649981692338 3468.659411141603869 14333.34777960877909 
	308.3608649983136729 3449.381758193868336 14353.738683152862 
	308.3608649984920476 3428.990859967359938 14373.01637599328569 
	308.3608649986234127 3401.992944248698223 14395.81433218522761 
	308.3608649991497828 3367.366106585048328 14420.70966420498553 
	308.3608649991855373 3324.126576125537213 14445.67373083977873 
	308.3608649993066138 3282.408950808113786 14464.49766527492829 
	308.3608649993857966 3243.157813089779211 14478.23140897774647 
	308.3608649995045994 3194.957023516409663 14491.14841573147896 
	308.3608649995901487 3133.14777098736522 14500.46570167198843 
	308.3608649998896567 3058.137965700490895 14500.46570442392476 
	308.3608650000271609 3002.509484868646268 14492.08090194057331 
	308.3608650000476246 2970.741375619082646 14484.20141325265649 
	308.3608650000494436 2961.721291195019148 14481.73930754762478 
	308.3608650000505236 2957.222965215137265 14480.46608954912699 
	308.3608650000510352 2952.736737211661875 14479.15088876995287 
	308.3608650000555258 2937.824283017008838 14474.62725662488265 
	308.3608650001028764 2912.801793794121295 14465.87148264112329 
	308.3608650001379488 2878.498454194752412 14450.90504962106388 
	308.3608650001802403 2845.409469146464744 14433.41698017779163 
	308.3608650002163358 2813.719893404319009 14413.50506386527923 
	308.3608650002309446 2783.606909889870622 14391.28073934386339 
	308.3608650002670402 2755.238999331313153 14366.86811818062597 
	308.3608650002880722 2728.774744533756802 14340.40386895117808 
	308.3608650003160392 2704.362168618919895 14312.03592678180212 
	308.3608650003291132 2682.137796578328562 14281.92296059612272 
	308.3608650003359344 2662.225965290219392 14250.233363969739 
	308.360865000346962 2642.794653161657607 14213.46788095275042 
	308.3608650003538401 2625.016614529160961 14171.29395427866984 
	308.3608650003624803 2610.300147379710324 14123.58340891672378 
	308.3608650003694152 2602.055825365056535 14082.80122046345059 
	308.3608650003711205 2598.437939051628746 14053.92911977066433 
	308.3608650003712341 2597.170168868500696 14039.4389337793782 
	308.3608650003711205 2596.600760680551502 14031.14720850279446 
	308.3608650003710636 2595.435612067308739 14010.40176097250151 
	308.3608650003706089 2595.435937019059566 13983.35712482777672 
	308.3608650003690173 2597.610504469138959 13954.34061122669482 
	308.3608650003684488 2599.471825536081269 13937.82167352703436 
	308.360865000365493 2604.016185318606404 13904.88675933244667 
	308.3608650003500884 2616.070377358044425 13852.07137703382978 
	308.3608650003303069 2638.907746703620887 13793.88480420035012 
	308.360865000309218 2662.22645227951989 13749.76679111547492 
	308.3608650002910281 2682.137809894146812 13718.07697020568594 
	308.3608650002722698 2704.362395351413852 13687.96412991793477 
	308.3608650002437344 2731.487203556445365 13656.4440858637663 
	308.3608650002149716 2764.250783071129717 13624.48699012737234 
	308.3608650001913816 2803.286751599082891 13593.35754093103424 
	308.3608650001573324 2852.217607315634723 13561.75283237929216 
	308.3608650001024216 2901.026193232875812 13538.24845769417334 
	308.3608650000708167 2948.127968686424538 13521.76851747229193 
	308.3608650000335842 2990.303623352032901 13510.4666843267787 
	308.3608649999486602 3039.543033759610353 13502.10057383743333 
	308.3608649998635656 3095.642845748698164 13498.94993253797657 
	308.3608649997515272 3142.392625904108627 13501.57562658034112 
	308.3608649997169096 3179.439851354634357 13506.80616895634012 
	308.360864999678995 3203.903646539640249 13511.67225519107888 
	308.3608649996634767 3225.08249762267269 13516.92470330849937 
	308.3608649996279496 3249.045421453028666 13523.82844886536077 
	308.3608649995794053 3290.259449678780129 13538.24852954882772 
	308.3608649993426525 3335.313595298651308 13559.94466192007712 
	308.3608649991757034 3377.565585278739945 13586.49532476087734 
	308.3608649990547974 3412.697765559363233 13612.42304132591926 
	308.3608649987231729 3449.938995577982951 13645.70378278564567 
	308.3608649984496424 3487.379701587173713 13687.60015777215631 
	308.3608649979274787 3519.894394650283175 13733.42495401279666 
	308.3608649969928024 3547.073589922825704 13782.60228418838597 
	308.3608649961045103 3568.575850637088024 13834.51342799029408 
	308.3608649951802931 3584.130804860981243 13888.50569022001218 
	308.3608649940942996 3591.973797804818787 13934.66765449390005 
	308.3608649937454516 3594.725037428373071 13967.28966330341063 
	308.3608649936369943 3595.413389776553231 13983.63924484293238 
	308.3608649936093684 3595.585483522440882 13991.81886791595934 
	308.3608649936012966 3595.628512554130339 13995.90928192749743 
	308.360864993599364 3595.639269191589392 13997.95456454329542 
	308.3608649935987387 3595.641958491126843 13998.97721524795998 
	308.3608649935985682 3595.642726837044393 13999.56158843330195 
	308.3608649935985682 3595.642854897885627 13999.85377524927026 
	308.3608649935985682 3595.642854897245797 13999.99986865703067 
	425.0275316742600467 3595.642854897245797 13999.99986865702886 
	425.0275316742604446 3595.642854892126707 14001.16861591910674 
	425.0275316742677774 3595.634658906109962 14003.5061104144188 
	425.0275316742751102 3595.585484634913882 14008.18086945280811 
	425.0275316743098983 3595.413380295409297 14016.36049100552191 
	425.0275316744200609 3594.725075880651275 14032.71007642493532 
	425.0275316747647025 3592.75968694314497 14056.01148039187137 
	425.0275316750776256 3588.836907267911556 14083.79689135850458 
	425.0275316754141386 3581.538007697748981 14120.49267595559286 
	425.0275316765050775 3568.575884519483225 14165.48625579366671 
	425.0275316773096392 3547.07332404803492 14217.39726635958687 
	425.0275316783557287 3519.894272525400538 14266.57466172211207 
	425.0275316785389919 3492.798693886904402 14304.76193870856514 
	425.0275316788244027 3468.659411141603869 14333.34777960877727 
	425.0275316789683302 3449.381758193868336 14353.73868315286018 
	425.0275316791465343 3428.990859967359938 14373.01637599328387 
	425.0275316792771605 3401.992944248698223 14395.81433218522579 
	425.0275316798033032 3367.366106585048328 14420.70966420498371 
	425.0275316798386029 3324.126576125537213 14445.67373083977691 
	425.0275316799589973 3282.408950808113786 14464.49766527492648 
	425.0275316800383507 3243.157813089779211 14478.23140897774465 
	425.0275316801565282 3194.957023516409663 14491.14841573147714 
	425.0275316802421912 3133.14777098736522 14500.46570167198661 
	425.0275316805416423 3058.137965700490895 14500.46570442392294 
	425.0275316806792034 3002.509484868646268 14492.08090194057149 
	425.0275316806998376 2970.741375619082646 14484.20141325265467 
	425.0275316807017703 2961.721291195019148 14481.73930754762296 
	425.027531680702964 2957.222965215137265 14480.46608954912517 
	425.0275316807032482 2952.736737211661875 14479.15088876995105 
	425.027531680708023 2937.824283017008838 14474.62725662488083 
	425.0275316807554304 2912.801793794121295 14465.87148264112147 
	425.0275316807909576 2878.498454194752412 14450.90504962106206 
	425.0275316808333628 2845.409469146464744 14433.41698017778981 
	425.0275316808699699 2813.719893404319009 14413.50506386527741 
	425.0275316808849766 2783.606909889870622 14391.28073934386157 
	425.0275316809215838 2755.238999331313153 14366.86811818062415 
	425.0275316809430706 2728.774744533756802 14340.40386895117626 
	425.0275316809715491 2704.362168618919895 14312.0359267818003 
	425.0275316809851915 2682.137796578328562 14281.9229605961209 
	425.0275316809926949 2662.225965290219392 14250.23336396973718 
	425.0275316810041772 2642.794653161657607 14213.4678809527486 
	425.0275316810123627 2625.016614529160961 14171.29395427866802 
	425.027531681021344 2610.300147379710324 14123.58340891672196 
	425.0275316810295294 2602.055825365056535 14082.80122046344877 
	425.0275316810314621 2598.437939051628746 14053.92911977066251 
	425.0275316810319737 2597.170168868500696 14039.43893377937638 
	425.0275316810319737 2596.600760680551502 14031.14720850279264 
	425.027531681032201 2595.435612067308739 14010.40176097249969 
	425.027531681032599 2595.435937019059566 13983.3571248277749 
	425.0275316810312347 2597.610504469138959 13954.340611226693 
	425.027531681031121 2599.471825536081269 13937.82167352703254 
	425.0275316810287336 2604.016185318606404 13904.88675933244485 
	425.0275316810145796 2616.070377358044425 13852.07137703382796 
	425.0275316809954234 2638.907746703620887 13793.8848042003483 
	425.0275316809756987 2662.22645227951989 13749.7667911154731 
	425.0275316809576225 2682.137809894146812 13718.07697020568412 
	425.0275316809400579 2704.362395351413852 13687.96412991793295 
	425.0275316809114088 2731.487203556445365 13656.44408586376449 
	425.0275316808838397 2764.250783071129717 13624.48699012737052 
	425.0275316808605339 2803.286751599082891 13593.35754093103242 
	425.0275316808271668 2852.217607315634723 13561.75283237929034 
	425.0275316807727677 2901.026193232875812 13538.24845769417152 
	425.0275316807412764 2948.127968686424538 13521.76851747229011 
	425.0275316807044987 2990.303623352032901 13510.46668432677689 
	425.0275316806196315 3039.543033759610353 13502.10057383743151 
	425.0275316805345369 3095.642845748698164 13498.94993253797475 
	425.0275316804225554 3142.392625904108627 13501.5756265803393 
	425.0275316803877104 3179.439851354634357 13506.8061689563383 
	425.0275316803498526 3203.903646539640249 13511.67225519107706 
	425.0275316803340502 3225.08249762267269 13516.92470330849756 
	425.027531680298523 3249.045421453028666 13523.82844886535895 
	425.0275316802496945 3290.259449678780129 13538.2485295488259 
	425.0275316800125438 3335.313595298651308 13559.9446619200753 
	425.0275316798450831 3377.565585278739945 13586.49532476087552 
	425.0275316797234382 3412.697765559363233 13612.42304132591744 
	425.0275316793916431 3449.938995577982951 13645.70378278564385 
	425.0275316791169189 3487.379701587173713 13687.60015777215449 
	425.0275316785942437 3519.894394650283175 13733.42495401279484 
	425.0275316776583168 3547.073589922825704 13782.60228418838415 
	425.0275316767692289 3568.575850637088024 13834.51342799029226 
	425.027531675843818 3584.130804860981243 13888.50569022001037 
	425.0275316747570287 3591.973797804818787 13934.66765449389823 
	425.0275316744075553 3594.725037428373071 13967.28966330340882 
	425.0275316742988139 3595.413389776553231 13983.63924484293057 
	425.0275316742708469 3595.585483522440882 13991.81886791595753 
	425.0275316742629457 3595.628512554130339 13995.90928192749561 
	425.0275316742608425 3595.639269191589392 13997.9545645432936 
	425.027531674260274 3595.641958491126843 13998.97721524795816 
	425.0275316742599898 3595.642726837044393 13999.56158843330013 
	425.0275316742600467 3595.642854897885627 13999.85377524926844 
	425.0275316742600467 3595.642854897245797 13999.99986865702886 
	541.6941983470167088 3595.642854897245797 13999.99986865703249 
	541.6941983470173909 3595.642854892127161 14001.16861591911038 
	541.6941983470341029 3595.634658906110417 14003.50611041442062 
	541.6941983470487685 3595.585484634914337 14008.18086945281175 
	541.6941983471236881 3595.413380295409752 14016.36049100552191 
	541.6941983473584514 3594.72507588065173 14032.71007642493532 
	541.6941983480943463 3592.759686943145425 14056.01148039186955 
	541.6941983487627112 3588.836907267912011 14083.79689135850458 
	541.6941983494807573 3581.538007697749435 14120.49267595559286 
	541.694198351810428 3568.575884519483679 14165.4862557936649 
	541.6941983535278951 3547.07332404803492 14217.39726635958687 
	541.6941983557619551 3519.894272525400083 14266.57466172210661 
	541.6941983561531515 3492.798693886903948 14304.76193870855968 
	541.6941983567622856 3468.659411141603414 14333.34777960877182 
	541.6941983570703769 3449.381758193867881 14353.73868315285472 
	541.6941983574502046 3428.990859967359029 14373.01637599327842 
	541.6941983577299879 3401.992944248697313 14395.81433218522216 
	541.6941983588532139 3367.366106585046964 14420.70966420497643 
	541.6941983589283609 3324.126576125535848 14445.67373083976781 
	541.6941983591868848 3282.408950808112422 14464.4976652749192 
	541.6941983593551413 3243.157813089777392 14478.23140897773737 
	541.6941983596086629 3194.957023516407844 14491.14841573147169 
	541.6941983597910166 3133.147770987363856 14500.46570167198297 
	541.6941983604308462 3058.137965700489076 14500.46570442391385 
	541.6941983607246129 3002.509484868644904 14492.08090194056422 
	541.6941983607690645 2970.741375619080372 14484.2014132526474 
	541.6941983607728162 2961.721291195017329 14481.73930754761568 
	541.694198360775431 2957.222965215135446 14480.46608954911972 
	541.6941983607765678 2952.736737211660511 14479.15088876994741 
	541.6941983607865723 2937.824283017007019 14474.62725662487719 
	541.6941983608877536 2912.801793794119931 14465.87148264111602 
	541.6941983609640374 2878.498454194751048 14450.90504962105479 
	541.6941983610545321 2845.409469146462925 14433.41698017778253 
	541.6941983611329761 2813.7198934043181 14413.50506386527013 
	541.6941983611648084 2783.606909889869257 14391.28073934385429 
	541.6941983612431386 2755.238999331311788 14366.86811818061688 
	541.6941983612892955 2728.774744533755438 14340.40386895116899 
	541.6941983613502316 2704.362168618918986 14312.03592678179484 
	541.6941983613794491 2682.137796578328107 14281.92296059611544 
	541.6941983613955927 2662.225965290219392 14250.23336396973173 
	541.6941983614203764 2642.794653161657152 14213.46788095274678 
	541.694198361436861 2625.016614529160051 14171.29395427866439 
	541.6941983614572109 2610.30014737970987 14123.58340891672015 
	541.6941983614740366 2602.05582536505608 14082.80122046345059 
	541.6941983614783567 2598.437939051628291 14053.92911977066251 
	541.6941983614793799 2597.170168868499331 14039.43893377937638 
	541.6941983614796072 2596.600760680550593 14031.14720850279264 
	541.6941983614798346 2595.435612067308284 14010.40176097249969 
	541.6941983614807441 2595.435937019059111 13983.3571248277749 
	541.6941983614779019 2597.610504469138505 13954.340611226693 
	541.6941983614775609 2599.471825536080814 13937.82167352703073 
	541.694198361472445 2604.016185318605949 13904.88675933244485 
	541.6941983614418632 2616.070377358044425 13852.07137703382796 
	541.6941983614015044 2638.907746703620433 13793.8848042003483 
	541.6941983613581897 2662.226452279519435 13749.76679111547128 
	541.6941983613205593 2682.137809894146358 13718.0769702056823 
	541.6941983612814511 2704.362395351413397 13687.96412991793113 
	541.6941983612218792 2731.487203556444001 13656.44408586376267 
	541.6941983611616251 2764.250783071128808 13624.48699012737052 
	541.6941983611120577 2803.286751599081526 13593.3575409310306 
	541.694198361040776 2852.217607315633359 13561.75283237929034 
	541.6941983609240197 2901.026193232873538 13538.24845769417152 
	541.6941983608571718 2948.127968686423173 13521.76851747229193 
	541.6941983607778184 2990.303623352031082 13510.46668432677689 
	541.6941983605967152 3039.543033759608988 13502.10057383743333 
	541.6941983604148163 3095.642845748696345 13498.94993253797657 
	541.6941983601752781 3142.392625904107263 13501.5756265803393 
	541.6941983601010406 3179.439851354632538 13506.80616895634012 
	541.6941983600195272 3203.90364653963843 13511.67225519107524 
	541.6941983599863306 3225.082497622671326 13516.92470330849756 
	541.6941983599100467 3249.045421453027302 13523.82844886535895 
	541.6941983598054549 3290.259449678778765 13538.24852954882408 
	541.6941983592993211 3335.313595298650398 13559.94466192007349 
	541.6941983589414349 3377.565585278739036 13586.49532476087552 
	541.6941983586823426 3412.697765559362324 13612.42304132591926 
	541.6941983579723683 3449.938995577982041 13645.70378278564385 
	541.6941983573868811 3487.379701587172349 13687.60015777215631 
	541.6941983562697942 3519.894394650282266 13733.42495401279666 
	541.6941983542725438 3547.073589922825249 13782.60228418838415 
	541.6941983523734052 3568.575850637087115 13834.51342799029226 
	541.6941983503982101 3584.130804860980334 13888.505690220014 
	541.6941983480777481 3591.973797804817423 13934.66765449389823 
	541.6941983473316213 3594.725037428372161 13967.28966330341063 
	541.6941983470992454 3595.413389776551412 13983.6392448429342 
	541.6941983470401283 3595.585483522439517 13991.81886791595753 
	541.6941983470226205 3595.628512554128974 13995.90928192749925 
	541.6941983470185278 3595.639269191588937 13997.9545645432936 
	541.6941983470169362 3595.641958491125934 13998.97721524795998 
	541.6941983470167088 3595.642726837043938 13999.56158843330195 
	541.6941983470167088 3595.642854897885627 13999.85377524927208 
	541.6941983470167088 3595.642854897245797 13999.99986865703249 
	658.3608650276779599 3595.642854897245343 13999.99986865703067 
	658.3608650276787557 3595.642854892126707 14001.16861591910856 
	658.3608650276951266 3595.634658906109962 14003.5061104144188 
	658.3608650277101333 3595.585484634913882 14008.18086945280993 
	658.3608650277848255 3595.413380295409297 14016.36049100552009 
	658.3608650280198162 3594.725075880651275 14032.7100764249335 
	658.3608650287555975 3592.75968694314497 14056.01148039186774 
	658.3608650294240761 3588.836907267911556 14083.79689135850276 
	658.3608650301422358 3581.538007697748981 14120.49267595559104 
	658.3608650324719065 3568.575884519483225 14165.48625579366308 
	658.3608650341894872 3547.073324048034465 14217.39726635958505 
	658.360865036423661 3519.894272525399629 14266.57466172210479 
	658.3608650368148574 3492.798693886903493 14304.76193870855786 
	658.3608650374242188 3468.659411141602959 14333.34777960877 
	658.3608650377320828 3449.381758193867427 14353.7386831528529 
	658.3608650381121379 3428.990859967358574 14373.0163759932766 
	658.3608650383919212 3401.992944248696858 14395.81433218522034 
	658.3608650395150335 3367.366106585046509 14420.70966420497462 
	658.3608650395906352 3324.126576125535394 14445.67373083976599 
	658.3608650398487043 3282.408950808111967 14464.49766527491738 
	658.3608650400173019 3243.157813089776937 14478.23140897773555 
	658.3608650402705962 3194.957023516407389 14491.14841573146987 
	658.3608650404531772 3133.147770987363401 14500.46570167198115 
	658.3608650410927794 3058.137965700488621 14500.46570442391203 
	658.3608650413868872 3002.509484868644449 14492.0809019405624 
	658.3608650414309977 2970.741375619079918 14484.20141325264558 
	658.3608650414349768 2961.721291195016875 14481.73930754761386 
	658.3608650414374779 2957.222965215134991 14480.4660895491179 
	658.3608650414386148 2952.736737211660056 14479.1508887699456 
	658.3608650414485055 2937.824283017006564 14474.62725662487537 
	658.3608650415500279 2912.801793794119476 14465.8714826411142 
	658.3608650416257433 2878.498454194750593 14450.90504962105297 
	658.3608650417166928 2845.40946914646247 14433.41698017778072 
	658.3608650417947956 2813.719893404317645 14413.50506386526831 
	658.3608650418268553 2783.606909889868803 14391.28073934385247 
	658.3608650419049582 2755.238999331311334 14366.86811818061506 
	658.360865041951115 2728.774744533754983 14340.40386895116717 
	658.3608650420119375 2704.362168618918531 14312.03592678179302 
	658.3608650420412687 2682.137796578327652 14281.92296059611363 
	658.3608650420570712 2662.225965290218937 14250.23336396972991 
	658.3608650420820823 2642.794653161656697 14213.46788095274496 
	658.3608650420983395 2625.016614529159597 14171.29395427866257 
	658.3608650421188031 2610.300147379709415 14123.58340891671833 
	658.360865042135174 2602.055825365055625 14082.80122046344877 
	658.3608650421398352 2598.437939051627836 14053.92911977066069 
	658.360865042140631 2597.170168868498877 14039.43893377937457 
	658.3608650421407447 2596.600760680550138 14031.14720850279082 
	658.3608650421414268 2595.435612067307829 14010.40176097249787 
	658.3608650421415405 2595.435937019058656 13983.35712482777308 
	658.3608650421392667 2597.61050446913805 13954.34061122669118 
	658.3608650421385846 2599.47182553608036 13937.82167352702891 
	658.3608650421335824 2604.016185318605494 13904.88675933244303 
	658.3608650421026596 2616.07037735804397 13852.07137703382614 
	658.3608650420624144 2638.907746703619978 13793.88480420034648 
	658.3608650420189861 2662.226452279518981 13749.76679111546946 
	658.360865041981242 2682.137809894145903 13718.07697020568048 
	658.3608650419422474 2704.362395351412943 13687.96412991792931 
	658.3608650418824482 2731.487203556443546 13656.44408586376085 
	658.3608650418220805 2764.250783071128353 13624.4869901273687 
	658.3608650417727404 2803.286751599081072 13593.35754093102878 
	658.3608650417011177 2852.217607315632904 13561.75283237928852 
	658.3608650415845887 2901.026193232873084 13538.2484576941697 
	658.3608650415175134 2948.127968686422719 13521.76851747229011 
	658.3608650414382737 2990.303623352030627 13510.46668432677507 
	658.3608650412570569 3039.543033759608534 13502.10057383743151 
	658.3608650410751579 3095.642845748695891 13498.94993253797475 
	658.3608650408357335 3142.392625904106808 13501.57562658033748 
	658.3608650407612686 3179.439851354632083 13506.8061689563383 
	658.3608650406799825 3203.903646539637975 13511.67225519107342 
	658.3608650406465586 3225.082497622670871 13516.92470330849574 
	658.3608650405703884 3249.045421453026847 13523.82844886535713 
	658.3608650404659102 3290.25944967877831 13538.24852954882226 
	658.3608650399596627 3335.313595298649943 13559.94466192007167 
	658.3608650396020039 3377.565585278738581 13586.4953247608737 
	658.3608650393426842 3412.697765559361869 13612.42304132591744 
	658.3608650386331647 3449.938995577981586 13645.70378278564203 
	658.3608650380474501 3487.379701587171894 13687.60015777215449 
	658.3608650369305906 3519.894394650281811 13733.42495401279484 
	658.3608650349333402 3547.073589922824794 13782.60228418838233 
	658.360865033034429 3568.57585063708666 13834.51342799029044 
	658.3608650310592338 3584.130804860979879 13888.50569022001218 
	658.3608650287387718 3591.973797804816968 13934.66765449389641 
	658.3608650279927588 3594.725037428371706 13967.28966330340882 
	658.3608650277604966 3595.413389776550957 13983.63924484293238 
	658.3608650277012657 3595.585483522439063 13991.81886791595571 
	658.3608650276838716 3595.62851255412852 13995.90928192749743 
	658.3608650276796652 3595.639269191588482 13997.95456454329178 
	658.3608650276781873 3595.641958491125479 13998.97721524795816 
	658.3608650276778462 3595.642726837043483 13999.56158843330013 
	658.3608650276778462 3595.642854897885172 13999.85377524927026 
	658.3608650276779599 3595.642854897245343 13999.99986865703067 
	0 
	
	0 
	0 
	86 0 0.002232142857142857019 0.004464285714285714038 0.008928571428571428076 0.01785714285714285615 0.02678571428571428423 0.0357142857142857123 0.05357142857142856845 0.07142857142857142461 0.08928571428571427382 0.1071428571428571369 0.1160714285714285754 0.125 0.1339285714285714246 0.1428571428571428492 0.1587301587301587213 0.1746031746031745935 0.1904761904761904656 0.2023809523809523836 0.2142857142857142738 0.238095238095238082 0.2619047619047618625 0.2857142857142856984 0.2916666666666666297 0.2931547619047618625 0.2946428571428570953 0.2961309523809523281 0.2976190476190476164 0.3095238095238095344 0.3214285714285713969 0.3333333333333333148 0.3452380952380952328 0.3571428571428570953 0.3690476190476190133 0.3809523809523809312 0.3928571428571428492 0.4047619047619047672 0.4166666666666666297 0.4285714285714285476 0.4444444444444444198 0.4603174603174602919 0.476190476190476164 0.4880952380952380265 0.4900793650793650036 0.4920634920634920362 0.5079365079365079083 0.5158730158730158166 0.5198412698412697708 0.5238095238095237249 0.5476190476190475609 0.5714285714285713969 0.5833333333333332593 0.5952380952380951218 0.6071428571428569843 0.6190476190476189577 0.6349206349206348854 0.650793650793650702 0.6666666666666666297 0.6904761904761904656 0.7023809523809523281 0.7142857142857141906 0.7321428571428569843 0.749999999999999889 0.7678571428571427937 0.7767857142857141906 0.7857142857142855874 0.7916666666666665186 0.7976190476190474499 0.8095238095238094234 0.8333333333333332593 0.8452380952380951218 0.8571428571428570953 0.875 0.8928571428571427937 0.9107142857142856984 0.9285714285714286031 0.9464285714285713969 0.9642857142857143016 0.9821428571428572063 0.9910714285714286031 0.9955357142857143016 0.9977678571428572063 0.9988839285714286031 0.9994419642857143016 0.9997209821428572063 0.9998604910714286031 
	0 
	0 
	0 
	F 1 F 0 F 1 F 0 } I I I I #
tcoedge-coedge $-1 -1 $-1 $13 $13 $17 $18 reversed $8 $19 -6.283185307179586232 3.376247349170975974e-31 #
tcoedge-coedge $-1 -1 $-1 $20 $21 $10 $15 reversed $11 $22 -6.283185307179586232 -5.064371023756590516e-31 #
tedge-edge $-1 -1 $-1 $23 5.064371023756590516e-31 $23 6.283185307179586232 $14 $24 forward @7 unknown 0.0007417720485500290404 #
pcurve $-1 -1 $-1 0 forward { exppc nurbs 2 periodic 5 
	5.064371023756590516e-31 2 1.570796326794896558 2 3.141592653589793116 2 4.712388980384689674 2 6.283185307179586232 2 
	0 500 1 
	-500 500 0.7071067811865463515 
	-500 0 1 
	-500 -500 0.7071067811865463515 
	0 -500 1 
	500 -500 0.7071067811865463515 
	500 0 1 
	500 500 0.7071067811865463515 
	0 500 1 
	0 
	plane 658.3608650425451287 3095.64279798981579 13999.99999999999818 1 -3.897834435702129261e-15 1.559133774280851705e-14 1.559133774280851705e-14 0 -1 forward_v I I I I 
	} 0 0 #
tcoedge-coedge $-1 -1 $-1 $21 $20 $13 $18 forward $11 $25 -3.376247349170975974e-31 6.283185307179586232 #
tedge-edge $-1 -1 $-1 $26 -3.376247349170975974e-31 $26 6.283185307179586232 $17 $27 forward @7 unknown 0.0007417720487899834726 #
pcurve $-1 -1 $-1 0 forward { exppc nurbs 2 periodic 5 
	-6.283185307179586232 2 -4.712388980384689674 2 -3.141592653589793116 2 -1.570796326794896558 2 3.376247349170975974e-31 2 
	0 500 1 
	500 500 0.707106781186543798 
	500 0 1 
	500 -500 0.7071067811865463515 
	0 -500 1 
	-500 -500 0.7071067811865463515 
	-500 0 1 
	-500 500 0.7071067811865463515 
	0 500 1 
	0 
	plane 308.3608650005609775 3095.642797989817154 14000.00000000000182 -1 3.897834435702128473e-15 1.039422516187234417e-14 -1.039422516187234417e-14 0 -1 reverse_v I I I I 
	} 0 0 #
coedge $-1 -1 $-1 $17 $14 $21 $28 reversed $11 $29 #
coedge $-1 -1 $-1 $14 $17 $20 $28 forward $11 $30 #
pcurve $-1 -1 $-1 0 forward { exppc nubs 1 periodic 2 
	-6.283185307179586232 1 -5.064371023756590516e-31 1 
	1 1 
	0 1 
	4.411402399551008985e-13 
	spline forward { ref 0 } I I I I 
	} 0 0 #
tvertex-vertex $-1 -1 $-1 $15 $31 0.0001431413068810707978 #
ellipse-curve $-1 -1 $-1 658.3608650425451287 3095.64279798981579 13999.99999999999818 1 -3.897834435702129261e-15 1.559133774280851705e-14 1.94891721785106465e-12 500 5.739718509874450723e-42 1 I I #
pcurve $-1 -1 $-1 0 forward { exppc nubs 1 periodic 2 
	-3.376247349170975974e-31 1 6.283185307179586232 1 
	0 0 
	1 0 
	4.4114023995510105e-13 
	spline forward { ref 0 } I I I I 
	} 0 0 #
tvertex-vertex $-1 -1 $-1 $18 $32 0.0001431413092547524526 #
ellipse-curve $-1 -1 $-1 308.3608650005609775 3095.642797989817154 14000.00000000000182 1 -3.897834435702128473e-15 -1.039422516187234417e-14 1.948917217851064246e-12 500 6.920973070647400117e-43 1 I I #
edge $-1 -1 $-1 $26 1.989811990171707587e-11 $23 1 $21 $33 forward @7 tangent #
pcurve $-1 -1 $-1 -1 $33 0 0 #
pcurve $-1 -1 $-1 1 $33 1 0 #
point $-1 -1 $-1 658.3608650425470614 3595.64279798981579 13999.99999999999818 #
point $-1 -1 $-1 308.3608650005629102 3595.642797989817154 14000.00000000000182 #
intcurve-curve $-1 -1 $-1 forward { parcur full nubs 3 open 2 
	0 3 1 3 
	308.3608649935985682 3595.642854897245797 13999.99986865703067 
	425.0275316742600467 3595.642854897245797 13999.99986865702886 
	541.6941983470167088 3595.642854897245797 13999.99986865703249 
	658.3608650276779599 3595.642854897245343 13999.99986865703067 
	0 
	
	spline forward { ref 0 } I I I I 
	null_surface 
	nubs 1 open 2 
	0 1 1 1 
	0 0 
	0 1 
	
	nullbs 
	I I 
	0 
	0 
	0 
	surf1 } F 1.989811990171707587e-11 F 1 #
End-of-ACIS-data 