700 0 1 0           
4 LibG 19 ASM 222.0.0.1700 NT 24 Wed Oct  5 17:29:54 2016 
1000 9.999999999999999547e-07 1.000000000000000036e-10 
body $-1 -1 $-1 $1 $-1 $-1 #
lump $-1 -1 $-1 $-1 $2 $0 #
shell $-1 -1 $-1 $-1 $-1 $3 $-1 $1 #
face $-1 -1 $-1 $4 $5 $2 $-1 $6 forward single #
face $-1 -1 $-1 $7 $8 $2 $-1 $9 reversed single #
loop $-1 -1 $-1 $-1 $10 $3 #
plane-surface $-1 -1 $-1 7913.450685145326133 2583.436573348900311 14000.00000000000728 0.8251942694004981149 -0.564849022083404928 1.039422516187233628e-14 1.25960946983111252e-14 0 -1 forward_v I I I I #
face $-1 -1 $-1 $-1 $11 $2 $-1 $12 forward single #
loop $-1 -1 $-1 $-1 $13 $4 #
plane-surface $-1 -1 $-1 7606.331792625983326 2751.299570722005228 14000.00000000000364 0.8774825499499983028 -0.4796085638656264472 -1.039422516187233628e-14 -1.184550640062828761e-14 0 -1 forward_v I I I I #
tcoedge-coedge $-1 -1 $-1 $10 $10 $14 $15 forward $5 $16 -1.630727493113288575e-29 6.283185307179586232 #
loop $-1 -1 $-1 $-1 $17 $7 #
spline-surface $-1 -1 $-1 forward { exactsur full nubs 3 3 periodic open none none 80 2 
	0 3 0.002232142857142857019 1 0.004464285714285714038 1 0.008928571428571428076 1 0.01785714285714285615 1 
	0.0357142857142857123 1 0.05357142857142856845 1 0.0625 1 0.07142857142857142461 1 0.08928571428571427382 1 
	0.1071428571428571369 1 0.125 1 0.1428571428571428492 1 0.1587301587301587213 1 0.1746031746031745935 1 
	0.1904761904761904656 1 0.2023809523809523836 1 0.2142857142857142738 1 0.238095238095238082 1 0.2619047619047618625 1 
	0.2857142857142856984 1 0.2976190476190476164 1 0.3095238095238095344 1 0.3214285714285713969 1 0.3273809523809523281 1 
	0.3303571428571427937 1 0.3333333333333333148 1 0.3452380952380952328 1 0.3571428571428570953 1 0.3690476190476190133 1 
	0.375 1 0.3809523809523809312 1 0.3928571428571428492 1 0.4047619047619047672 1 0.4166666666666666297 1 
	0.4285714285714285476 1 0.4444444444444444198 1 0.4603174603174602919 1 0.476190476190476164 1 0.4841269841269840724 1 
	0.4920634920634920362 1 0.5 1 0.5079365079365079083 1 0.5158730158730158166 1 0.5238095238095237249 1 
	0.5476190476190475609 1 0.5714285714285713969 1 0.5952380952380951218 1 0.6190476190476189577 1 0.6269841269841269771 1 
	0.6349206349206348854 1 0.650793650793650702 1 0.6666666666666666297 1 0.6904761904761904656 1 0.7023809523809523281 1 
	0.7142857142857141906 1 0.7321428571428569843 1 0.7410714285714283811 1 0.749999999999999889 1 0.7678571428571427937 1 
	0.7857142857142855874 1 0.7976190476190474499 1 0.8095238095238094234 1 0.8333333333333332593 1 0.8452380952380951218 1 
	0.8571428571428570953 1 0.875 1 0.8928571428571427937 1 0.9107142857142856984 1 0.9285714285714286031 1 
	0.9464285714285713969 1 0.9642857142857143016 1 0.9821428571428572063 1 0.9910714285714286031 1 0.9955357142857143016 1 
	0.9977678571428572063 1 0.9988839285714286031 1 0.9994419642857143016 1 0.9997209821428572063 1 1 3 
	0 3 1 3 
	7846.136113002191451 3190.040916095910234 13999.9998927101733 
	7846.136112982941995 3190.040916060675045 14002.33738723975512 
	7846.120388235516657 3190.012146366786055 14007.01237590140954 
	7846.026057976527227 3189.839561549654263 14016.3605158124883 
	7845.695919517205766 3189.235546610410893 14032.71009854925614 
	7844.376379714361974 3186.821342111875765 14065.33209012174666 
	7840.614849492229951 3179.939319179277845 14111.49408057099026 
	7834.397809419472651 3168.564742929127988 14156.48751760136111 
	7827.998266127281568 3156.85626232468303 14191.44193556914252 
	7820.669177362174196 3143.447103306425106 14225.59355514465096 
	7809.806422311849929 3123.572816810168206 14266.57470622589972 
	7794.212089688315245 3095.041727524957878 14312.39945041525607 
	7776.255241808205028 3062.188226029371435 14354.29598169100427 
	7756.905568496549677 3026.786438076122977 14390.34990899279364 
	7736.652572006212722 2989.731947506207234 14420.70970712132112 
	7715.91456626830859 2951.790093404868912 14445.67389353618273 
	7695.90641561717166 2915.183568049856603 14464.49778272095864 
	7677.081240261899438 2880.741391410620508 14478.23158282025543 
	7653.963728103251015 2838.446038395195956 14491.148543694826 
	7624.319473592680879 2784.209483838797496 14500.46604702079458 
	7588.344151806662921 2718.389731075206328 14500.46565077818195 
	7558.699857688160591 2664.153104052677918 14491.1487852995524 
	7535.582305324937806 2621.85767748035687 14478.23205910215256 
	7518.639671309320875 2590.859762056697946 14465.87155158581481 
	7504.929554550346438 2565.775997669678418 14453.39924451858133 
	7495.587238275904383 2548.683476550098021 14443.56575271251495 
	7490.327143033025095 2539.059708055397095 14437.63741256488356 
	7482.518116256701433 2524.772463738680472 14428.43889313990258 
	7471.119168724284464 2503.917169856768851 14413.50497772697236 
	7456.676722776483075 2477.493550153903016 14391.28066542549459 
	7445.338823095943553 2456.749948240768845 14370.936800247664 
	7436.724978325181837 2440.990224491409208 14353.63597454213595 
	7428.427348983400407 2425.809042373377451 14335.67581914535549 
	7418.67028271768686 2407.957702693442116 14312.03589625174209 
	7408.011253651325205 2388.456149322772035 14281.92296362011984 
	7398.461413119022836 2370.983945835817849 14250.23332174157622 
	7389.141943432509834 2353.933224391486419 14213.46789072231695 
	7380.615544450643029 2338.333489765659124 14171.29387208177104 
	7373.557347581705471 2325.419949321918921 14123.58339223854091 
	7369.603353557745322 2318.18579834944876 14082.8011816693288 
	7367.620275202406447 2314.557596555088367 14049.804520075244 
	7366.726307691673355 2312.922010892121307 14024.93323906087244 
	7366.428127436744035 2312.376466066280955 13999.99996479867332 
	7366.726275996358709 2312.921952902981502 13975.06666695456624 
	7367.620349902737871 2314.557733225361517 13950.19543019727826 
	7370.098756656444493 2319.092178274787329 13908.94945595776153 
	7376.324803582790992 2330.483233282379842 13852.0714878620438 
	7389.468143645914097 2354.530033991335131 13782.24726151857067 
	7407.455567931352562 2387.439477479891593 13717.286971083342 
	7424.901410514999043 2419.358053564429156 13671.67479036454824 
	7438.822189038255601 2444.827240639542651 13641.9180584254209 
	7450.513623272721816 2466.21766253275382 13619.29865175494888 
	7466.115297558048042 2494.762183975768949 13593.35750437045135 
	7489.582958508191041 2537.698162445526123 13561.75282011960189 
	7512.991979922710016 2580.526855155726025 13538.24842710284429 
	7535.582398903979083 2621.857848690377523 13521.76851277133756 
	7555.810201113415133 2658.866244286459278 13510.46662416923755 
	7574.997929025981648 2693.9717400707259 13503.66931274304261 
	7592.878820261259534 2726.686272751696379 13500.52505127779114 
	7610.816134084804617 2759.50403510868 13499.47524981687639 
	7633.237743256201611 2800.526177481835475 13502.10041703494244 
	7656.853398853494582 2843.73292409591204 13510.46669131467206 
	7677.081209009249505 2880.741334230911434 13521.7684321516299 
	7699.671563017357585 2922.072208891983792 13538.24866845518227 
	7721.279958053565679 2961.606510416965648 13559.94466993084097 
	7741.544361445591676 2998.681870829745094 13586.49537133732701 
	7758.394069692258199 3029.5097710654818 13612.42306884928439 
	7776.255257222239379 3062.188254230532948 13645.70384308581561 
	7794.212200367207515 3095.041930017319373 13687.60013543057357 
	7809.806391438032733 3123.572760318596465 13733.42511486188232 
	7822.841915498747767 3147.422302960186244 13782.60225666030237 
	7833.154523082134801 3166.290050297371181 13834.51347664638706 
	7840.614842864990351 3179.939307052665754 13888.50570149940904 
	7844.376398244718075 3186.821376014707766 13934.66768171761942 
	7845.695920183155067 3189.235547828860945 13967.28968654640812 
	7846.026059401218845 3189.839564156338838 13983.63926895215627 
	7846.10859719625023 3189.990573709594628 13991.81889192409108 
	7846.129234266422827 3190.028330894008832 13995.909305975385 
	7846.134393263606398 3190.037769695464704 13997.95458859173777 
	7846.135867310832509 3190.040466583758189 13999.12333225536895 
	7846.136113004597064 3190.040916100314917 13999.7077058939758 
	7846.136113002191451 3190.040916095910234 13999.9998927101733 
	7962.715820319407612 3125.371870147162099 13999.9998927101733 
	7962.715820761351097 3125.371869829020852 14002.33738723975512 
	7962.699162702077956 3125.343672648147731 14007.01237590140954 
	7962.599247050457052 3125.174514027718487 14016.3605158124883 
	7962.249545302503975 3124.582499619043119 14032.71009854925614 
	7960.851838844847407 3122.216244182043738 14065.33209012174666 
	7956.867460483014838 3115.470920960970943 14111.49408057099026 
	7950.282107612945765 3104.322275486868421 14156.48751760136111 
	7943.503429877496274 3092.846363882515107 14191.44193556914252 
	7935.740149405014563 3079.703547142115895 14225.59355514465096 
	7924.233848990695151 3060.224024836977605 14266.57470622589972 
	7907.715662859973236 3032.259646622782384 14312.39945041525607 
	7888.69499309965704 3000.058715726767787 14354.29598169100427 
	7868.198985934877783 2965.36011294366881 14390.34990899279364 
	7846.74614035671766 2929.041634908562628 14420.70970712132112 
	7824.779552541272096 2891.853418759103988 14445.67389353618273 
	7803.586056779340652 2855.974008895926545 14464.49778272095864 
	7783.645619441918825 2822.215957291070026 14478.23158282025543 
	7759.158556317843249 2780.760715492835061 14491.148543694826 
	7727.758080738307399 2727.601463685401086 14500.46604702079458 
	7689.651472989799913 2663.089086323912397 14500.46565077818195 
	7658.250958208564953 2609.929761801156928 14491.1487852995524 
	7633.763854818720574 2568.474446483562588 14478.23205910215256 
	7615.817484679961126 2538.092243798923391 14465.87155158581481 
	7601.295140733143853 2513.506716563085774 14453.39924451858133 
	7591.39935591718131 2496.753704627048137 14443.56575271251495 
	7585.827637096385843 2487.321092555113864 14437.63741256488356 
	7577.555978674292419 2473.317636169514572 14428.43889313990258 
	7565.481723107893231 2452.876590365059201 14413.50497772697236 
	7550.183663310276643 2426.977822099604509 14391.28066542549459 
	7538.174071263444603 2406.646250337715173 14370.936800247664 
	7529.049917069841285 2391.19956106548625 14353.63597454213595 
	7520.260709581402807 2376.319923267860759 14335.67581914535549 
	7509.925605572318091 2358.823164033943613 14312.03589625174209 
	7498.635103428188813 2339.708969461431934 14281.92296362011984 
	7488.519499699802509 2322.583816956370356 14250.23332174157622 
	7478.647917729500477 2305.871772738712025 14213.46789072231695 
	7469.616384166031821 2290.581898234127038 14171.29387208177104 
	7462.140035833805086 2277.924860646915022 14123.58339223854091 
	7457.951793472017926 2270.834402506025981 14082.8011816693288 
	7455.851236789633731 2267.27826437546355 14049.804520075244 
	7454.90430315049889 2265.67516924386382 14024.93323906087244 
	7454.588464374349314 2265.140456524407909 13999.99996479867332 
	7454.90426853813824 2265.675113044101181 13975.06666695456624 
	7455.85131846744207 2267.278396765606431 13950.19543019727826 
	7458.476540429358465 2271.722782294514673 13908.94945595776153 
	7465.071447237512075 2282.887570932983181 13852.0714878620438 
	7478.993434742214959 2306.456733009700656 13782.24726151857067 
	7498.046494966049977 2338.712493117436225 13717.286971083342 
	7516.525875804228235 2369.997075212012987 13671.67479036454824 
	7531.271379357210208 2394.960358698242544 13641.9180584254209 
	7543.655439701303294 2415.925909244052491 13619.29865175494888 
	7560.181413037355924 2443.903446310323488 13593.35750437045135 
	7585.039365412096231 2485.986590931285264 13561.75282011960189 
	7609.835200604829879 2527.964583053744718 13538.24842710284429 
	7633.763952791480733 2568.474614998384823 13521.76851277133756 
	7655.190106571808428 2604.74791666787587 13510.46662416923755 
	7675.514579091960513 2639.156109525840748 13503.66931274304261 
	7694.454787511417635 2671.220834882034069 13500.52505127779114 
	7713.454764726997382 2703.386737280329726 13499.47524981687639 
	7737.204697391216541 2743.59405823059069 13502.10041703494244 
	7762.219420745721436 2785.94258740982059 13510.46669131467206 
	7783.645584495968251 2822.21590237690998 13521.7684321516299 
	7807.574269173853281 2862.725817003364682 13538.24866845518227 
	7830.462803898377388 2901.474854059281824 13559.94466993084097 
	7851.92772581279587 2937.813791292080623 13586.49537133732701 
	7869.775669372941593 2968.029353100538174 13612.42306884928439 
	7888.695006672728596 3000.05874505721431 13645.70384308581561 
	7907.715775234566536 3032.259848074966158 13687.60013543057357 
	7924.233816488334014 3060.223969344389388 13733.42511486188232 
	7938.041599751847571 3083.599792033070116 13782.60225666030237 
	7948.965161820771755 3102.09276710587892 13834.51347664638706 
	7956.867452012138529 3115.470909965284136 13888.50570149940904 
	7960.851858485672892 3122.216277403691038 13934.66768171761942 
	7962.249545354379734 3124.582501214178592 13967.28968654640812 
	7962.599248915045791 3125.174516364560532 13983.63926895215627 
	7962.686673055827669 3125.32252853109685 13991.81889192409108 
	7962.70853454216649 3125.35953463301621 13995.909305975385 
	7962.713998431535401 3125.368786407226253 13997.95458859173777 
	7962.715559857691005 3125.3714296954563 13999.12333225536895 
	7962.715820264163995 3125.371870186929755 13999.7077058939758 
	7962.715820319407612 3125.371870147162099 13999.9998927101733 
	8079.295534151669926 3060.702820201826853 13999.9998927101733 
	8079.295533667805103 3060.70282045159729 14002.33738723975512 
	8079.277947485040386 3060.675192601092022 14007.01237590141136 
	8079.172437374865694 3060.509465738592098 14016.36051581249194 
	8078.803186951668977 3059.92944289632851 14032.71009854925978 
	8077.327293017226111 3057.611149293506969 14065.33209012174666 
	8073.120077083892284 3051.00251930121658 14111.4940805709939 
	8066.166400095627978 3040.079811547645022 14156.48751760136111 
	8059.008605378671746 3028.836458231984579 14191.44193556914252 
	8050.811115056730159 3015.959994898183595 14225.59355514465096 
	8038.661276336503761 2996.875232454597153 14266.57470622589972 
	8021.219228572723296 2969.477570296005069 14312.39945041525607 
	8001.134745920285241 2937.929204486095387 14354.29598169100427 
	7979.49240402570922 2903.933787410916466 14390.34990899279546 
	7956.839707258517592 2868.351323199555281 14420.70970712132475 
	7933.644533916392902 2831.916747117751129 14445.67389353618455 
	7911.265695272945777 2796.764451378922786 14464.49778272096046 
	7890.2099980789244 2763.690523504592875 14478.23158282025906 
	7864.353379372547352 2723.075395755635327 14491.14854369482782 
	7831.196695559718137 2670.993438823498764 14500.46604702079458 
	7790.958793686474564 2607.788441871009127 14500.46565077818195 
	7757.802062819971979 2555.706417040115866 14491.1487852995524 
	7731.94539682474624 2515.091220079903906 14478.23205910215074 
	7712.995297724159173 2485.32472574138319 14465.87155158581663 
	7697.66071973079579 2461.237439864000407 14453.39924451858315 
	7687.211469369452971 2444.823935273610005 14443.56575271251495 
	7681.32812505509628 2435.582480799540917 14437.63741256488356 
	7672.593837649881607 2421.8628107117338 14428.43889313990258 
	7659.84427204401527 2401.83601421494177 14413.50497772697418 
	7643.690595224875324 2376.462099332489743 14391.28066542549277 
	7631.009311790582615 2356.542557121410937 14370.93680024766218 
	7621.374844489819225 2341.408904586350673 14353.63597454213414 
	7612.094062064880745 2326.830809139954454 14335.67581914535367 
	7601.180917719718309 2309.688631942474785 14312.03589625174027 
	7589.258940759028519 2290.961797234735968 14281.92296362011803 
	7578.577577668938829 2274.183693359476365 14250.23332174157622 
	7568.153878144151349 2257.810329601647936 14213.46789072231513 
	7558.617223463298615 2242.83030695907064 14171.29387208177104 
	7550.722730200312071 2230.429768221197264 14123.58339223853909 
	7546.300244221800313 2223.483000015865855 14082.80118166932698 
	7544.082193214881954 2219.998935362296834 14049.80452007524218 
	7543.082307679957012 2218.428322031483276 14024.93323906087062 
	7542.748790600716347 2217.904453553024723 13999.9999647986715 
	7543.082273268506469 2218.428265708479103 13975.06666695456443 
	7544.082274214172685 2219.999068168658141 13950.19543019727826 
	7546.854351070515804 2224.353369832692351 13908.94945595776335 
	7553.818088608267317 2235.291909984611721 13852.0714878620438 
	7568.518736869295935 2258.383425261548382 13782.24726151857249 
	7588.637416189060787 2289.985512319983627 13717.28697108334381 
	7608.150356594938785 2320.636087350655089 13671.67479036455188 
	7623.720539262709281 2345.093495413183973 13641.91805842542271 
	7636.797256929741707 2365.634155464692867 13619.2986517549507 
	7654.247505639204064 2393.044722678381277 13593.35750437045499 
	7680.495764351089747 2434.275024302877682 13561.75282011960553 
	7706.678439214570062 2475.402299954573209 13538.24842710284975 
	7731.945502641796338 2515.091383782874345 13521.76851277134119 
	7754.570024884550548 2550.629581164153024 13510.46662416923937 
	7776.031228195366566 2584.340479571402739 13503.66931274304807 
	7796.030759182775 2615.75539430029994 13500.52505127779659 
	7816.09339449347226 2647.269439989147031 13499.47524981688366 
	7841.171655386834573 2686.661936611154033 13502.10041703495153 
	7867.585435387249163 2728.152255171439265 13510.46669131467752 
	7890.209964965058134 2763.690467466596601 13521.76843215163535 
	7915.476954407104131 2803.379437949479779 13538.24866845518591 
	7939.645653052121816 2841.343195671802732 13559.94466993084825 
	7962.311114625873415 2876.945696758778013 13586.49537133733247 
	7981.157273142413032 2906.548932627414615 13612.42306884928803 
	8001.134765914829586 2937.929229877480793 13645.70384308581924 
	8021.219357226476859 2969.477761762220325 13687.60013543057721 
	8038.661241603565031 2996.875178330304152 13733.42511486188778 
	8053.24130004689323 3019.777271265430045 13782.60225666030783 
	8064.775804896172303 3037.895481254046445 13834.5134766463907 
	8073.12007112230549 3051.002506766287297 13888.50570149941086 
	8077.327313730510468 3057.611181857286738 13934.66768171762305 
	8078.803188350060736 3059.929443665485906 13967.28968654640994 
	8079.172438612880796 3060.509468459789787 13983.63926895215991 
	8079.264759440507078 3060.654476896162578 13991.81889192409471 
	8079.287839904998691 3060.690735251377191 13995.90930597538863 
	8079.293610914569399 3060.699798631630074 13997.95458859174141 
	8079.29525956413454 3060.702388415193582 13999.12333225536895 
	8079.295534212153143 3060.702820170606174 13999.7077058939758 
	8079.295534151669926 3060.702820201826853 13999.9998927101733 
	8195.875241468886088 2996.033774253078718 13999.9998927101733 
	8195.875241446214204 2996.033774219943552 14002.33738723975512 
	8195.856721951600775 2996.006718882453697 14007.01237590141136 
	8195.74562644879552 2995.844418216656322 14016.36051581249194 
	8195.356812736967186 2995.276395904960282 14032.71009854925978 
	8193.802752147712454 2993.006051363674487 14065.33209012174666 
	8189.37268807467899 2986.534121082908769 14111.4940805709939 
	8182.050698289102911 2975.837344105384091 14156.48751760136111 
	8174.51376912889009 2964.826559789814837 14191.44193556914252 
	8165.882087099574164 2952.21643873387211 14225.59355514465096 
	8153.088703015353531 2933.526440481404279 14266.57470622589972 
	8134.722801744386743 2906.695489393826847 14312.39945041525607 
	8113.574497211743619 2875.7996941834881 14354.29598169100427 
	8090.785821464044602 2842.507462278458661 14390.34990899279546 
	8066.933275609030716 2807.661010601906128 14420.70970712132475 
	8042.509520189364594 2771.980072471981657 14445.67389353618455 
	8018.945336435122954 2737.55489222498818 14464.49778272096046 
	7996.774377258951972 2705.165089385037845 14478.23158282025906 
	7969.548207587147772 2665.390072853269885 14491.14854369482782 
	7934.635302705353752 2614.385418670097351 14500.46604702079458 
	7892.266114869620651 2552.487797119710649 14500.46565077818195 
	7857.353163340384526 2501.483074788590329 14491.1487852995524 
	7830.126946318538103 2461.707989083105076 14478.23205910215256 
	7810.173111094807609 2432.557207483604088 14465.87155158581663 
	7794.026305913601391 2408.968158757403671 14453.39924451858496 
	7783.023587010738083 2392.894163350556028 14443.56575271251677 
	7776.828619118465213 2383.843865299253594 14437.63741256488538 
	7767.631700067479869 2370.407983142563808 14428.43889313990439 
	7754.206826427631313 2350.795434723228027 14413.50497772697599 
	7737.197535758675258 2325.946371278187598 14391.28066542549459 
	7723.844559958090031 2306.438859218353628 14370.936800247664 
	7713.699783234485039 2291.618241160424532 14353.63597454213595 
	7703.927422662889512 2277.341690034434578 14335.67581914535549 
	7692.436240574354997 2260.554093282973099 14312.03589625174209 
	7679.882790535896675 2242.214617373393139 14281.92296362011984 
	7668.63566424972305 2225.783564480026598 14250.23332174157804 
	7657.659852441145631 2209.748877948871723 14213.46789072231695 
	7647.618063178690136 2195.078715427536736 14171.29387208177286 
	7639.305418452413505 2182.934679546192456 14123.58339223854091 
	7634.648684136073825 2176.131604172442167 14082.8011816693288 
	7632.313154802109239 2172.719603182672017 14049.804520075244 
	7631.260303138782547 2171.181480383225789 14024.93323906087244 
	7630.909127538320718 2170.668444011152133 13999.99996479867332 
	7631.260265810285091 2171.181425849599236 13975.06666695456624 
	7632.313242778875065 2172.719731708903964 13950.19543019728007 
	7635.232134843427957 2176.983973852420604 13908.94945595776517 
	7642.564732262985672 2187.696247635216878 13852.07148786204561 
	7658.044027965593159 2210.310124279916181 13782.24726151857431 
	7679.228343223752745 2241.258527957531442 13717.28697108334563 
	7699.774821884161611 2271.275108998242558 13671.67479036455188 
	7716.169729581656611 2295.226613471887504 13641.91805842542271 
	7729.939073358316818 2315.34240217599563 13619.2986517549507 
	7748.31362111850467 2342.185985012939909 13593.35750437045499 
	7775.952171254986752 2382.563452788641371 13561.75282011960553 
	7803.521659896680831 2422.84002785259645 13538.24842710284975 
	7830.127056529288893 2461.708150090886647 13521.76851277134119 
	7853.949930342934749 2496.511253545574618 13510.46662416923937 
	7876.547878261335427 2529.524849026523043 13503.66931274304807 
	7897.606726432924006 2560.289956430642633 13500.52505127779659 
	7918.732025135655931 2591.152142160801759 13499.47524981688366 
	7945.138609521840408 2629.72981735991425 13502.10041703495153 
	7972.951457279466013 2670.361918485352817 13510.46669131467752 
	7996.774340451767785 2705.165035612599695 13521.76843215163535 
	8023.379660563590733 2744.033046060865672 13538.24866845518591 
	8048.828498896925339 2781.211539314123456 13559.94466993084825 
	8072.694478993069424 2816.077617221117634 13586.49537133733247 
	8092.53887282308915 2845.068514662475081 13612.42306884928803 
	8113.574515365312436 2875.799720704165793 13645.70384308581924 
	8134.722932093830423 2906.695679819870293 13687.60013543057721 
	8153.088666653860855 2933.526387356099804 13733.42511486188778 
	8168.440984299988486 2955.954760338316191 13782.60225666030783 
	8180.586443634805619 2973.698198062556003 13834.5134766463907 
	8189.372680269450939 2986.534109678906589 13888.50570149941086 
	8193.802773971463466 2993.006083246270464 13934.66768171762305 
	8195.356813521284494 2995.276397050804007 13967.28968654640994 
	8195.745628126707743 2995.844420668011935 13983.63926895215991 
	8195.842835300083607 2995.986431717665255 13991.81889192409471 
	8195.867140180742354 2996.021938990384569 13995.90930597538863 
	8195.873216082498402 2996.030815343391623 13997.95458859174141 
	8195.874952110993036 2996.033351526891693 13999.12333225536895 
	8195.875241471720074 2996.033774257221012 13999.7077058939758 
	8195.875241468886088 2996.033774253078718 13999.9998927101733 
	0 
	
	0 
	0 
	79 0 0.002232142857142857019 0.004464285714285714038 0.008928571428571428076 0.01785714285714285615 0.0357142857142857123 0.05357142857142856845 0.0625 0.07142857142857142461 0.08928571428571427382 0.1071428571428571369 0.125 0.1428571428571428492 0.1587301587301587213 0.1746031746031745935 0.1904761904761904656 0.2023809523809523836 0.2142857142857142738 0.238095238095238082 0.2619047619047618625 0.2857142857142856984 0.2976190476190476164 0.3095238095238095344 0.3214285714285713969 0.3273809523809523281 0.3303571428571427937 0.3333333333333333148 0.3452380952380952328 0.3571428571428570953 0.3690476190476190133 0.375 0.3809523809523809312 0.3928571428571428492 0.4047619047619047672 0.4166666666666666297 0.4285714285714285476 0.4444444444444444198 0.4603174603174602919 0.476190476190476164 0.4841269841269840724 0.4920634920634920362 0.5 0.5079365079365079083 0.5158730158730158166 0.5238095238095237249 0.5476190476190475609 0.5714285714285713969 0.5952380952380951218 0.6190476190476189577 0.6269841269841269771 0.6349206349206348854 0.650793650793650702 0.6666666666666666297 0.6904761904761904656 0.7023809523809523281 0.7142857142857141906 0.7321428571428569843 0.7410714285714283811 0.749999999999999889 0.7678571428571427937 0.7857142857142855874 0.7976190476190474499 0.8095238095238094234 0.8333333333333332593 0.8452380952380951218 0.8571428571428570953 0.875 0.8928571428571427937 0.9107142857142856984 0.9285714285714286031 0.9464285714285713969 0.9642857142857143016 0.9821428571428572063 0.9910714285714286031 0.9955357142857143016 0.9977678571428572063 0.9988839285714286031 0.9994419642857143016 0.9997209821428572063 
	0 
	0 
	0 
	F 1 F 0 F 1 F 0 } I I I I #
tcoedge-coedge $-1 -1 $-1 $13 $13 $17 $18 reversed $8 $19 -6.283185307179586232 1.418023907162888242e-30 #
tcoedge-coedge $-1 -1 $-1 $20 $21 $10 $15 reversed $11 $22 -6.283185307179586232 1.630727493113288575e-29 #
tedge-edge $-1 -1 $-1 $23 -1.630727493113288575e-29 $23 6.283185307179586232 $14 $24 forward @7 unknown 0.0007727763480693033895 #
pcurve $-1 -1 $-1 0 forward { exppc nurbs 2 periodic 5 
	-1.630727493113288575e-29 2 1.570796326794896558 2 3.141592653589793116 2 4.712388980384689674 2 6.283185307179586232 2 
	3.637978807091712952e-12 500.0000000000009095 1 
	-499.999999999996362 500.000000000003638 0.7071067811865429098 
	-500 2.728484105318784714e-12 1 
	-500.000000000003638 -499.999999999998181 0.7071067811865460184 
	-3.637978807091712952e-12 -500.0000000000009095 1 
	499.999999999996362 -500.0000000000045475 0.7071067811865462405 
	500 -4.54747350886464119e-12 1 
	500.000000000003638 499.9999999999954525 0.7071067811865449082 
	3.637978807091712952e-12 500.0000000000009095 1 
	0 
	plane 7913.450685145326133 2583.436573348900311 14000.00000000000728 0.8251942694004981149 -0.564849022083404928 1.039422516187233628e-14 1.25960946983111252e-14 0 -1 forward_v I I I I 
	} 0 0 #
tcoedge-coedge $-1 -1 $-1 $21 $20 $13 $18 forward $11 $25 -1.418023907162888242e-30 6.283185307179586232 #
tedge-edge $-1 -1 $-1 $26 -1.418023907162888242e-30 $26 6.283185307179586232 $17 $27 forward @7 unknown 0.000772776091814469197 #
pcurve $-1 -1 $-1 0 forward { exppc nurbs 2 periodic 5 
	-6.283185307179586232 2 -4.712388980384689674 2 -3.141592653589793116 2 -1.570796326794896558 2 1.418023907162888242e-30 2 
	-1.818989403545856476e-12 499.9999999999990905 1 
	499.999999999998181 500.000000000001819 0.7071067811865451302 
	500 1.818989403545856476e-12 1 
	500.000000000003638 -499.9999999999972715 0.7071067811865484609 
	3.637978807091712952e-12 -500 1 
	-499.999999999996362 -500.000000000003638 0.7071067811865451302 
	-500 -3.637978807091712952e-12 1 
	-500.000000000001819 499.9999999999954525 0.7071067811865460184 
	-1.818989403545856476e-12 499.9999999999990905 1 
	0 
	plane 7606.331792625983326 2751.299570722005228 14000.00000000000364 -0.8774825499499983028 0.4796085638656264472 1.039422516187233628e-14 -1.184550640062828761e-14 0 -1 reverse_v I I I I 
	} 0 0 #
coedge $-1 -1 $-1 $17 $14 $21 $28 reversed $11 $29 #
coedge $-1 -1 $-1 $14 $17 $20 $28 forward $11 $30 #
pcurve $-1 -1 $-1 0 forward { exppc nubs 1 periodic 2 
	-6.283185307179586232 1 1.630727493113288575e-29 1 
	1 1 
	0 1 
	1.546362640401547433e-12 
	spline forward { ref 0 } I I I I 
	} 0 0 #
tvertex-vertex $-1 -1 $-1 $15 $31 0.000133957149899897052 #
ellipse-curve $-1 -1 $-1 7913.450685145326133 2583.436573348900311 14000.00000000000728 0.8251942694004981149 -0.564849022083404928 1.039422516187233628e-14 282.4245110417024875 412.5971347002490006 3.029225876048685333e-28 1 I I #
pcurve $-1 -1 $-1 0 forward { exppc nubs 1 periodic 2 
	-1.418023907162888242e-30 1 6.283185307179586232 1 
	0 0 
	1 0 
	1.972994390907121971e-12 
	spline forward { ref 0 } I I I I 
	} 0 0 #
tvertex-vertex $-1 -1 $-1 $18 $32 0.0001339589900161421122 #
ellipse-curve $-1 -1 $-1 7606.331792625983326 2751.299570722005228 14000.00000000000364 0.8774825499499983028 -0.4796085638656264472 -1.039422516187233628e-14 239.8042819328132396 438.7412749749991576 -1.378478074035024793e-28 1 I I #
edge $-1 -1 $-1 $26 1.329932828903409939e-09 $23 0.999999981289869333 $21 $33 forward @7 tangent #
pcurve $-1 -1 $-1 -1 $33 0 0 #
pcurve $-1 -1 $-1 1 $33 1 0 #
point $-1 -1 $-1 8195.87519618702936 2996.033708049149027 14000.00000000000728 #
point $-1 -1 $-1 7846.136074558796281 3190.040845697003988 14000.00000000000364 #
intcurve-curve $-1 -1 $-1 forward { parcur full nubs 3 open 2 
	0 3 1 3 
	7846.136113002191451 3190.040916095910234 13999.9998927101733 
	7962.715820319407612 3125.371870147162099 13999.9998927101733 
	8079.295534151669926 3060.702820201826853 13999.9998927101733 
	8195.875241468886088 2996.033774253078718 13999.9998927101733 
	0 
	
	spline forward { ref 0 } I I I I 
	null_surface 
	nubs 1 open 2 
	0 1 1 1 
	0 0 
	0 1 
	
	nullbs 
	I I 
	0 
	0 
	0 
	surf1 } F 1.329932828903409939e-09 F 0.999999981289869333 #
End-of-ACIS-data 