700 0 1 0           
4 LibG 19 ASM 222.0.0.1700 NT 24 Wed Oct  5 17:29:53 2016 
1000 9.999999999999999547e-07 1.000000000000000036e-10 
body $-1 -1 $-1 $1 $-1 $-1 #
lump $-1 -1 $-1 $-1 $2 $0 #
shell $-1 -1 $-1 $-1 $-1 $3 $-1 $1 #
face $-1 -1 $-1 $4 $5 $2 $-1 $6 forward single #
face $-1 -1 $-1 $7 $8 $2 $-1 $9 reversed single #
loop $-1 -1 $-1 $-1 $10 $3 #
plane-surface $-1 -1 $-1 3108.360865336433562 3095.64279798980624 14000.00000000000364 1 -3.897834435702129261e-15 -1.039422516187234575e-14 -1.039422516187234575e-14 0 -1 forward_v I I I I #
face $-1 -1 $-1 $-1 $11 $2 $-1 $12 forward single #
loop $-1 -1 $-1 $-1 $13 $4 #
plane-surface $-1 -1 $-1 2758.360865294449468 3095.642797989807605 14000.00000000000182 1 -3.897834435702129261e-15 5.197112580936172875e-15 5.197112580936172875e-15 0 -1 forward_v I I I I #
tcoedge-coedge $-1 -1 $-1 $10 $10 $14 $15 forward $5 $16 -2.700997913356539051e-30 6.283185307179586232 #
loop $-1 -1 $-1 $-1 $17 $7 #
spline-surface $-1 -1 $-1 forward { exactsur full nubs 3 3 periodic open none none 80 2 
	0 3 0.002232142857142857019 1 0.004464285714285714038 1 0.008928571428571428076 1 0.01785714285714285615 1 
	0.0357142857142857123 1 0.05357142857142856845 1 0.0625 1 0.07142857142857142461 1 0.08928571428571427382 1 
	0.1071428571428571369 1 0.125 1 0.1428571428571428492 1 0.1587301587301587213 1 0.1746031746031745935 1 
	0.1904761904761904656 1 0.2023809523809523836 1 0.2142857142857142738 1 0.238095238095238082 1 0.2619047619047618625 1 
	0.2857142857142856984 1 0.2976190476190476164 1 0.3095238095238095344 1 0.3214285714285713969 1 0.3273809523809523281 1 
	0.3303571428571427937 1 0.3333333333333333148 1 0.3452380952380952328 1 0.3571428571428570953 1 0.3690476190476190133 1 
	0.375 1 0.3809523809523809312 1 0.3928571428571428492 1 0.4047619047619047672 1 0.4166666666666666297 1 
	0.4285714285714285476 1 0.4444444444444444198 1 0.4603174603174602919 1 0.476190476190476164 1 0.4841269841269840724 1 
	0.4920634920634920362 1 0.5 1 0.5079365079365079083 1 0.5158730158730158166 1 0.5238095238095237249 1 
	0.5476190476190475609 1 0.5714285714285713969 1 0.5952380952380951218 1 0.6190476190476189577 1 0.6269841269841269771 1 
	0.6349206349206348854 1 0.650793650793650702 1 0.6666666666666666297 1 0.6904761904761904656 1 0.7023809523809523281 1 
	0.7142857142857141906 1 0.7321428571428569843 1 0.7410714285714283811 1 0.749999999999999889 1 0.7678571428571427937 1 
	0.7857142857142855874 1 0.7976190476190474499 1 0.8095238095238094234 1 0.8333333333333332593 1 0.8452380952380951218 1 
	0.8571428571428570953 1 0.875 1 0.8928571428571427937 1 0.9107142857142856984 1 0.9285714285714286031 1 
	0.9464285714285713969 1 0.9642857142857143016 1 0.9821428571428572063 1 0.9910714285714286031 1 0.9955357142857143016 1 
	0.9977678571428572063 1 0.9988839285714286031 1 0.9994419642857143016 1 0.9997209821428572063 1 1 3 
	0 3 1 3 
	2758.360865286963417 3595.642878175204714 13999.99989284463663 
	2758.360865286965691 3595.64287813505598 14002.33738737422209 
	2758.360865286990702 3595.610091507181096 14007.01237603586924 
	2758.360865287013894 3595.413409741776377 14016.360515946948 
	2758.360865287123488 3594.72505994058838 14032.71009868369038 
	2758.360865287480465 3591.973775032980939 14065.33209025601536 
	2758.360865288503646 3584.130857899150669 14111.49408070475147 
	2758.360865289420417 3571.168120071105477 14156.48751773389085 
	2758.360865289715093 3557.824856888352315 14191.44193570099378 
	2758.360865289954745 3542.54346010544532 14225.59355527605294 
	2758.360865290762376 3519.894250170688338 14266.57470635388199 
	2758.360865291335813 3487.379541723260445 14312.39945053990778 
	2758.360865292159815 3449.938909439955296 14354.29598180602625 
	2758.360865292238486 3409.59418924638203 14390.34990910704255 
	2758.360865292863764 3367.366009820584168 14420.70970722169477 
	2758.360865292905146 3324.126569785185893 14445.67389363552138 
	2758.36086529302429 3282.408902173522165 14464.49778281247927 
	2758.360865293111146 3243.157777874371277 14478.23158290246283 
	2758.360865293220741 3194.95698685384923 14491.14854376408584 
	2758.36086529334807 3133.147718329689269 14500.46604706317703 
	2758.360865293564984 3058.137961425476988 14500.46565078139793 
	2758.360865293720963 2996.328610322516397 14491.14878527318069 
	2758.360865293760526 2948.127735475469308 14478.23205906709518 
	2758.360865293830102 2912.801773241499177 14465.87155153968706 
	2758.360865293889219 2884.21571829866707 14453.39924446359328 
	2758.360865293906045 2864.736674390883309 14443.56575265539323 
	2758.360865293910138 2853.769198747003884 14437.63741250725434 
	2758.360865293915595 2837.487115055109825 14428.43889308176767 
	2758.360865293963798 2813.719925746423542 14413.50497766524131 
	2758.360865293969709 2783.606939791229252 14391.28066536394726 
	2758.360865294017458 2759.96703730795025 14370.93680018558007 
	2758.36086529402337 2742.006881006016101 14353.6359744805286 
	2758.360865294033829 2724.706044517598002 14335.67581908454122 
	2758.360865294057476 2704.362232915325421 14312.0358961938 
	2758.360865294083851 2682.137798510311768 14281.92296356784573 
	2758.36086529409431 2662.226059537449601 14250.23332169161404 
	2758.360865294115683 2642.794651528433405 14213.4678906803565 
	2758.360865294132964 2625.016822633477659 14171.29387204883824 
	2758.360865294142968 2610.300244567697064 14123.58339221106144 
	2758.360865294156156 2602.056033923409359 14082.80118165408385 
	2758.360865294160703 2597.921248797576482 14049.80452006311134 
	2758.360865294160703 2596.057296444025269 14024.93323905136458 
	2758.360865294163432 2595.435580574078358 13999.99996479179208 
	2758.360865294162068 2596.057230356072523 13975.06666694920386 
	2758.360865294161613 2597.921404546446865 13950.19543019290359 
	2758.360865294153427 2603.088966052600426 13908.94945595606077 
	2758.360865294134328 2616.070483471171428 13852.07148786554535 
	2758.360865294098403 2643.474789931009582 13782.24726152574658 
	2758.360865294062023 2680.979175054486859 13717.28697109242421 
	2758.360865294006544 2717.35434410221842 13671.67479037075645 
	2758.360865293996085 2746.379635918980512 13641.91805843065958 
	2758.360865293984261 2770.756669848324691 13619.29865175624582 
	2758.360865293949701 2803.286685907472929 13593.3575043608198 
	2758.360865293913321 2852.21754893931984 13561.75282009325201 
	2758.360865293831921 2901.026146559152494 13538.2484270405821 
	2758.360865293790084 2948.127930560433924 13521.76851270347834 
	2758.360865293745064 2990.303579061575419 13510.46662409114651 
	2758.360865293642746 3030.310637643213795 13503.66931265602034 
	2758.360865293607731 3067.592897765173348 13500.52505118907538 
	2758.360865293564984 3104.992800883138443 13499.47524972701285 
	2758.360865293421284 3151.742610747965045 13502.10041694640131 
	2758.360865293270308 3200.982047604643412 13510.46669123201718 
	2758.360865293166626 3243.15771267567834 13521.76843207599813 
	2758.360865293118422 3290.259361207570237 13538.24866838166417 
	2758.360865292841027 3335.313592220586088 13559.94466988883687 
	2758.36086529266413 3377.565555418887925 13586.49537131360375 
	2758.360865292453127 3412.697764297936828 13612.42306884040408 
	2758.36086529216891 3449.938941531780529 13645.70384309336623 
	2758.360865291761456 3487.379772447986397 13687.60013545583934 
	2758.36086529140448 3519.894185756696515 13733.4251148999665 
	2758.36086529080103 3547.073692222602858 13782.60225671554144 
	2758.360865289605044 3568.575826182938272 13834.51347673069904 
	2758.360865288686455 3584.130844065707151 13888.50570160285315 
	2758.360865287475917 3591.973813665294074 13934.66768184387547 
	2758.360865287117576 3594.725061328024822 13967.28968667856316 
	2758.360865287002525 3595.413412712116042 13983.63926908609938 
	2758.360865286973876 3595.585506793455352 13991.81889205842162 
	2758.360865286965691 3595.62853577955093 13995.90930610982468 
	2758.360865286964327 3595.639292462361936 13997.95458872620293 
	2758.360865286962962 3595.642365900454934 13999.12333238983047 
	2758.360865286963417 3595.642878180223306 13999.70770602843913 
	2758.360865286963417 3595.642878175204714 13999.99989284463663 
	2875.027531967624782 3595.64287817520426 13999.99989284463663 
	2875.027531967627056 3595.642878135055525 14002.33738737422209 
	2875.027531967652067 3595.610091507180641 14007.01237603586924 
	2875.027531967675259 3595.413409741775922 14016.360515946948 
	2875.027531967784398 3594.725059940587926 14032.71009868369038 
	2875.02753196814183 3591.973775032980484 14065.33209025601536 
	2875.027531969164102 3584.130857899150215 14111.49408070475147 
	2875.027531970080872 3571.168120071105022 14156.48751773389085 
	2875.027531970375094 3557.82485688835186 14191.44193570099378 
	2875.0275319706152 3542.543460105444865 14225.59355527605294 
	2875.027531971422377 3519.894250170687883 14266.57470635388199 
	2875.027531971995813 3487.37954172325999 14312.39945053990778 
	2875.027531972819361 3449.938909439954841 14354.29598180602625 
	2875.027531972898032 3409.594189246381575 14390.34990910704255 
	2875.02753197352331 3367.366009820583713 14420.70970722169477 
	2875.027531973563782 3324.126569785185438 14445.67389363552138 
	2875.027531973683381 3282.40890217352171 14464.49778281247927 
	2875.027531973769783 3243.157777874370822 14478.23158290246283 
	2875.027531973879377 3194.956986853848775 14491.14854376408584 
	2875.027531974006706 3133.147718329688814 14500.46604706317703 
	2875.027531974224075 3058.137961425476533 14500.46565078139793 
	2875.027531974379599 2996.328610322515942 14491.14878527318069 
	2875.027531974419617 2948.127735475468853 14478.23205906709518 
	2875.027531974489193 2912.801773241498722 14465.87155153968706 
	2875.027531974547855 2884.215718298666616 14453.39924446359328 
	2875.027531974565136 2864.736674390882854 14443.56575265539323 
	2875.027531974569229 2853.769198747003429 14437.63741250725434 
	2875.027531974574686 2837.487115055109371 14428.43889308176767 
	2875.027531974622889 2813.719925746423087 14413.50497766524131 
	2875.027531974629255 2783.606939791228797 14391.28066536394726 
	2875.027531974676549 2759.967037307949795 14370.93680018558007 
	2875.027531974682915 2742.006881006015647 14353.6359744805286 
	2875.027531974693375 2724.706044517597547 14335.67581908454122 
	2875.027531974717476 2704.362232915324967 14312.0358961938 
	2875.027531974743397 2682.137798510311313 14281.92296356784573 
	2875.027531974754766 2662.226059537449146 14250.23332169161404 
	2875.027531974775684 2642.794651528432951 14213.4678906803565 
	2875.027531974793419 2625.016822633477204 14171.29387204883824 
	2875.027531974803424 2610.300244567696609 14123.58339221106144 
	2875.027531974817066 2602.056033923408904 14082.80118165408385 
	2875.027531974821613 2597.921248797576027 14049.80452006311134 
	2875.027531974822068 2596.057296444024814 14024.93323905136458 
	2875.027531974824797 2595.435580574077903 13999.99996479179208 
	2875.027531974823432 2596.057230356072068 13975.06666694920386 
	2875.027531974823432 2597.921404546446411 13950.19543019290359 
	2875.027531974815247 2603.088966052599972 13908.94945595606077 
	2875.027531974796602 2616.070483471170974 13852.07148786554535 
	2875.027531974760677 2643.474789931009127 13782.24726152574658 
	2875.027531974724752 2680.979175054486404 13717.28697109242421 
	2875.027531974669728 2717.354344102217965 13671.67479037075645 
	2875.027531974659269 2746.379635918980057 13641.91805843065958 
	2875.0275319746479 2770.756669848324236 13619.29865175624582 
	2875.027531974612884 2803.286685907472474 13593.3575043608198 
	2875.027531974576959 2852.217548939319386 13561.75282009325201 
	2875.02753197449556 2901.026146559152039 13538.2484270405821 
	2875.027531974454178 2948.12793056043347 13521.76851270347834 
	2875.027531974408703 2990.303579061574965 13510.46662409114651 
	2875.027531974306839 3030.31063764321334 13503.66931265602034 
	2875.027531974271824 3067.592897765172893 13500.52505118907538 
	2875.027531974228623 3104.992800883137988 13499.47524972701285 
	2875.027531974085377 3151.742610747964591 13502.10041694640131 
	2875.027531973934401 3200.982047604642958 13510.46669123201718 
	2875.027531973830264 3243.157712675677885 13521.76843207599813 
	2875.027531973782061 3290.259361207569782 13538.24866838166417 
	2875.027531973504665 3335.313592220585633 13559.94466988883687 
	2875.027531973327768 3377.56555541888747 13586.49537131360375 
	2875.027531973116311 3412.697764297936374 13612.42306884040408 
	2875.027531972832094 3449.938941531780074 13645.70384309336623 
	2875.027531972424185 3487.379772447985943 13687.60013545583934 
	2875.027531972067209 3519.894185756696061 13733.4251148999665 
	2875.027531971463304 3547.073692222602403 13782.60225671554144 
	2875.027531970267773 3568.575826182937817 13834.51347673069904 
	2875.02753196934782 3584.130844065706697 13888.50570160285315 
	2875.027531968138192 3591.973813665293619 13934.66768184387547 
	2875.027531967778941 3594.725061328024367 13967.28968667856316 
	2875.027531967664345 3595.413412712115587 13983.63926908609938 
	2875.027531967635241 3595.585506793454897 13991.81889205842162 
	2875.027531967627056 3595.628535779550475 13995.90930610982468 
	2875.027531967625691 3595.639292462361482 13997.95458872620293 
	2875.027531967624327 3595.642365900454479 13999.12333238983047 
	2875.027531967624782 3595.642878180222851 13999.70770602843913 
	2875.027531967624782 3595.64287817520426 13999.99989284463663 
	2991.694198647336634 3595.642878175202441 13999.99989284464209 
	2991.694198647339363 3595.642878135052797 14002.33738737422573 
	2991.694198647367102 3595.610091507178822 14007.01237603587106 
	2991.694198647393023 3595.413409741773648 14016.36051594694982 
	2991.694198647516259 3594.725059940587016 14032.71009868369583 
	2991.69419864792053 3591.973775032979574 14065.332090256019 
	2991.69419864907286 3584.130857899149305 14111.49408070475511 
	2991.694198650106046 3571.168120071105022 14156.48751773389449 
	2991.694198650437556 3557.824856888350951 14191.44193570099924 
	2991.694198650707676 3542.543460105443955 14225.59355527605658 
	2991.694198651618535 3519.894250170687428 14266.57470635388563 
	2991.694198652263367 3487.37954172325999 14312.39945053991141 
	2991.694198653192871 3449.938909439953932 14354.29598180602807 
	2991.694198653281092 3409.594189246381575 14390.34990910704437 
	2991.694198653986859 3367.366009820582804 14420.70970722169841 
	2991.694198654032334 3324.126569785185438 14445.67389363552502 
	2991.694198654166939 3282.40890217352171 14464.49778281248291 
	2991.694198654265165 3243.157777874370367 14478.23158290246647 
	2991.694198654387947 3194.956986853848321 14491.14854376408948 
	2991.694198654531647 3133.147718329688814 14500.46604706318067 
	2991.694198654775391 3058.137961425476078 14500.46565078139975 
	2991.694198654951379 2996.328610322515487 14491.14878527318251 
	2991.694198654995489 2948.127735475468853 14478.23205906709518 
	2991.69419865507416 2912.801773241499177 14465.87155153968706 
	2991.694198655140099 2884.215718298666161 14453.39924446359328 
	2991.694198655159198 2864.736674390883309 14443.56575265539323 
	2991.694198655163291 2853.769198747002974 14437.63741250725434 
	2991.694198655169657 2837.487115055109371 14428.43889308176767 
	2991.694198655224227 2813.719925746422632 14413.50497766524131 
	2991.694198655231048 2783.606939791228342 14391.28066536394726 
	2991.694198655285163 2759.96703730794934 14370.93680018558007 
	2991.69419865529153 2742.006881006015192 14353.6359744805286 
	2991.694198655303808 2724.706044517597093 14335.67581908454122 
	2991.694198655330183 2704.362232915324512 14312.0358961938 
	2991.694198655360196 2682.137798510311313 14281.92296356784573 
	2991.694198655371565 2662.226059537449146 14250.23332169161404 
	2991.694198655396121 2642.794651528432951 14213.4678906803565 
	2991.694198655415221 2625.016822633477204 14171.29387204884006 
	2991.69419865542659 2610.300244567696154 14123.58339221106144 
	2991.694198655441596 2602.056033923408449 14082.80118165408385 
	2991.694198655446598 2597.921248797575572 14049.80452006311134 
	2991.694198655446598 2596.05729644402436 14024.93323905136458 
	2991.694198655449327 2595.435580574077449 13999.99996479179208 
	2991.694198655447963 2596.057230356072068 13975.06666694920386 
	2991.694198655447053 2597.921404546445956 13950.19543019290359 
	2991.694198655437958 2603.088966052600426 13908.94945595606077 
	2991.69419865541704 2616.070483471170974 13852.07148786554535 
	2991.694198655376113 2643.474789931009582 13782.24726152574658 
	2991.69419865533564 2680.979175054486404 13717.28697109242421 
	2991.69419865527243 2717.35434410221842 13671.67479037075645 
	2991.694198655261062 2746.379635918980512 13641.91805843065958 
	2991.694198655247419 2770.756669848324691 13619.29865175624582 
	2991.69419865520922 2803.286685907472474 13593.3575043608198 
	2991.694198655167838 2852.217548939319386 13561.75282009325201 
	2991.694198655076434 2901.026146559152039 13538.2484270405821 
	2991.694198655028231 2948.12793056043347 13521.76851270347834 
	2991.694198654978209 2990.303579061574965 13510.46662409114651 
	2991.694198654862703 3030.31063764321334 13503.66931265602216 
	2991.69419865482314 3067.592897765172893 13500.52505118907538 
	2991.694198654774482 3104.992800883138443 13499.47524972701285 
	2991.694198654613047 3151.742610747964136 13502.10041694640131 
	2991.694198654442971 3200.982047604643867 13510.46669123201718 
	2991.694198654326101 3243.157712675677885 13521.76843207599813 
	2991.694198654271531 3290.259361207570691 13538.24866838166417 
	2991.694198653958665 3335.313592220586088 13559.94466988883687 
	2991.69419865375994 3377.565555418887925 13586.49537131360375 
	2991.694198653522108 3412.697764297935919 13612.42306884040408 
	2991.694198653201965 3449.938941531780983 13645.70384309336623 
	2991.694198652742671 3487.379772447985943 13687.60013545583934 
	2991.694198652340219 3519.894185756696515 13733.4251148999665 
	2991.694198651660372 3547.073692222602858 13782.60225671554326 
	2991.694198650311591 3568.575826182937362 13834.51347673070086 
	2991.694198649277041 3584.130844065706697 13888.50570160285679 
	2991.694198647912799 3591.973813665293164 13934.66768184387547 
	2991.694198647509893 3594.725061328023457 13967.28968667856861 
	2991.694198647378926 3595.413412712115132 13983.63926908610119 
	2991.694198647348003 3595.585506793453987 13991.8188920584289 
	2991.694198647337998 3595.62853577955002 13995.90930610983014 
	2991.694198647337089 3595.639292462361482 13997.95458872620839 
	2991.694198647335725 3595.642365900453115 13999.12333238983592 
	2991.694198647336179 3595.642878180221032 13999.70770602844459 
	2991.694198647336634 3595.642878175202441 13999.99989284464209 
	3108.360865327997999 3595.642878175201986 13999.99989284464209 
	3108.360865328000727 3595.642878135052342 14002.33738737422573 
	3108.360865328028467 3595.610091507178367 14007.01237603587106 
	3108.360865328054842 3595.413409741773194 14016.36051594694982 
	3108.360865328178079 3594.725059940586561 14032.71009868369583 
	3108.360865328582804 3591.97377503297912 14065.332090256019 
	3108.360865329735589 3584.13085789914885 14111.49408070475511 
	3108.360865330770139 3571.168120071104568 14156.48751773389449 
	3108.36086533110165 3557.824856888350496 14191.44193570099924 
	3108.360865331372679 3542.543460105443501 14225.59355527605658 
	3108.360865332283538 3519.894250170686973 14266.57470635388563 
	3108.360865332929734 3487.379541723259536 14312.39945053991141 
	3108.360865333859692 3449.938909439953477 14354.29598180602807 
	3108.360865333948823 3409.59418924638112 14390.34990910704437 
	3108.360865334654591 3367.366009820582349 14420.70970722169841 
	3108.360865334700975 3324.126569785184984 14445.67389363552502 
	3108.36086533483558 3282.408902173521255 14464.49778281248291 
	3108.360865334933806 3243.157777874369913 14478.23158290246647 
	3108.360865335057042 3194.956986853847866 14491.14854376408948 
	3108.360865335200742 3133.14771832968836 14500.46604706318067 
	3108.360865335444487 3058.137961425475623 14500.46565078139975 
	3108.360865335620474 2996.328610322515033 14491.14878527318251 
	3108.36086533566413 2948.127735475468398 14478.23205906709518 
	3108.360865335742801 2912.801773241498722 14465.87155153968706 
	3108.360865335808285 2884.215718298665706 14453.39924446359328 
	3108.360865335827384 2864.736674390882854 14443.56575265539323 
	3108.360865335831477 2853.76919874700252 14437.63741250725434 
	3108.360865335837843 2837.487115055108916 14428.43889308176767 
	3108.360865335891958 2813.719925746422177 14413.50497766524131 
	3108.360865335898779 2783.606939791227887 14391.28066536394726 
	3108.360865335951985 2759.967037307948885 14370.93680018558007 
	3108.360865335958351 2742.006881006014737 14353.6359744805286 
	3108.360865335970175 2724.706044517596638 14335.67581908454122 
	3108.36086533599655 2704.362232915324057 14312.0358961938 
	3108.360865336025654 2682.137798510310859 14281.92296356784573 
	3108.360865336037023 2662.226059537448691 14250.23332169161404 
	3108.36086533606067 2642.794651528432496 14213.4678906803565 
	3108.360865336079314 2625.01682263347675 14171.29387204884006 
	3108.360865336089773 2610.3002445676957 14123.58339221106144 
	3108.360865336104325 2602.056033923407995 14082.80118165408385 
	3108.360865336108873 2597.921248797575117 14049.80452006311134 
	3108.360865336108418 2596.057296444023905 14024.93323905136458 
	3108.360865336110692 2595.435580574076994 13999.99996479179208 
	3108.360865336108873 2596.057230356071614 13975.06666694920386 
	3108.360865336107963 2597.921404546445501 13950.19543019290359 
	3108.360865336097959 2603.088966052599972 13908.94945595606077 
	3108.360865336076131 2616.070483471170519 13852.07148786554535 
	3108.360865336034294 2643.474789931009127 13782.24726152574658 
	3108.360865335992457 2680.97917505448595 13717.28697109242421 
	3108.360865335928793 2717.354344102217965 13671.67479037075645 
	3108.360865335916969 2746.379635918980057 13641.91805843065958 
	3108.360865335902872 2770.756669848324236 13619.29865175624582 
	3108.360865335864219 2803.28668590747202 13593.3575043608198 
	3108.360865335822382 2852.217548939318931 13561.75282009325201 
	3108.360865335730523 2901.026146559151584 13538.2484270405821 
	3108.36086533568232 2948.127930560433015 13521.76851270347834 
	3108.360865335631843 2990.30357906157451 13510.46662409114651 
	3108.360865335516337 3030.310637643212885 13503.66931265602216 
	3108.360865335476774 3067.592897765172438 13500.52505118907538 
	3108.360865335428116 3104.992800883137988 13499.47524972701285 
	3108.360865335266681 3151.742610747963681 13502.10041694640131 
	3108.360865335096605 3200.982047604643412 13510.46669123201718 
	3108.36086533498019 3243.157712675677431 13521.76843207599813 
	3108.36086533492562 3290.259361207570237 13538.24866838166417 
	3108.360865334613209 3335.313592220585633 13559.94466988883687 
	3108.360865334414939 3377.56555541888747 13586.49537131360375 
	3108.360865334177561 3412.697764297935464 13612.42306884040408 
	3108.360865333857873 3449.938941531780529 13645.70384309336623 
	3108.360865333399033 3487.379772447985488 13687.60013545583934 
	3108.360865332997491 3519.894185756696061 13733.4251148999665 
	3108.360865332318099 3547.073692222602403 13782.60225671554326 
	3108.360865330970682 3568.575826182936908 13834.51347673070086 
	3108.360865329936587 3584.130844065706242 13888.50570160285679 
	3108.360865328573254 3591.97381366529271 13934.66768184387547 
	3108.360865328170803 3594.725061328023003 13967.28968667856861 
	3108.36086532804029 3595.413412712114678 13983.63926908610119 
	3108.360865328008913 3595.585506793453533 13991.8188920584289 
	3108.360865327999363 3595.628535779549566 13995.90930610983014 
	3108.360865327998454 3595.639292462361027 13997.95458872620839 
	3108.360865327997089 3595.64236590045266 13999.12333238983592 
	3108.360865327997544 3595.642878180220578 13999.70770602844459 
	3108.360865327997999 3595.642878175201986 13999.99989284464209 
	0 
	
	0 
	0 
	79 0 0.002232142857142857019 0.004464285714285714038 0.008928571428571428076 0.01785714285714285615 0.0357142857142857123 0.05357142857142856845 0.0625 0.07142857142857142461 0.08928571428571427382 0.1071428571428571369 0.125 0.1428571428571428492 0.1587301587301587213 0.1746031746031745935 0.1904761904761904656 0.2023809523809523836 0.2142857142857142738 0.238095238095238082 0.2619047619047618625 0.2857142857142856984 0.2976190476190476164 0.3095238095238095344 0.3214285714285713969 0.3273809523809523281 0.3303571428571427937 0.3333333333333333148 0.3452380952380952328 0.3571428571428570953 0.3690476190476190133 0.375 0.3809523809523809312 0.3928571428571428492 0.4047619047619047672 0.4166666666666666297 0.4285714285714285476 0.4444444444444444198 0.4603174603174602919 0.476190476190476164 0.4841269841269840724 0.4920634920634920362 0.5 0.5079365079365079083 0.5158730158730158166 0.5238095238095237249 0.5476190476190475609 0.5714285714285713969 0.5952380952380951218 0.6190476190476189577 0.6269841269841269771 0.6349206349206348854 0.650793650793650702 0.6666666666666666297 0.6904761904761904656 0.7023809523809523281 0.7142857142857141906 0.7321428571428569843 0.7410714285714283811 0.749999999999999889 0.7678571428571427937 0.7857142857142855874 0.7976190476190474499 0.8095238095238094234 0.8333333333333332593 0.8452380952380951218 0.8571428571428570953 0.875 0.8928571428571427937 0.9107142857142856984 0.9285714285714286031 0.9464285714285713969 0.9642857142857143016 0.9821428571428572063 0.9910714285714286031 0.9955357142857143016 0.9977678571428572063 0.9988839285714286031 0.9994419642857143016 0.9997209821428572063 
	0 
	0 
	0 
	F 1 F 0 F 1 F 0 } I I I I #
tcoedge-coedge $-1 -1 $-1 $13 $13 $17 $18 reversed $8 $19 -6.283185307179586232 -1.350498956678269526e-30 #
tcoedge-coedge $-1 -1 $-1 $20 $21 $10 $15 reversed $11 $22 -6.283185307179586232 2.700997913356539051e-30 #
tedge-edge $-1 -1 $-1 $23 -2.700997913356539051e-30 $23 6.283185307179586232 $14 $24 forward @7 unknown 0.0007727305035652328163 #
pcurve $-1 -1 $-1 0 forward { exppc nurbs 2 periodic 5 
	-2.700997913356539051e-30 2 1.570796326794896558 2 3.141592653589793116 2 4.712388980384689674 2 6.283185307179586232 2 
	0 500 1 
	-500 500 0.7071067811865463515 
	-500 0 1 
	-500 -500 0.7071067811865463515 
	0 -500 1 
	500 -500 0.7071067811865463515 
	500 0 1 
	500 500 0.707106781186543798 
	0 500 1 
	0 
	plane 3108.360865336433562 3095.64279798980624 14000.00000000000364 1 -3.897834435702129261e-15 -1.039422516187234575e-14 -1.039422516187234575e-14 0 -1 forward_v I I I I 
	} 0 0 #
tcoedge-coedge $-1 -1 $-1 $21 $20 $13 $18 forward $11 $25 1.350498956678269526e-30 6.283185307179586232 #
tedge-edge $-1 -1 $-1 $26 1.350498956678269526e-30 $26 6.283185307179586232 $17 $27 forward @7 unknown 0.0007727305079862331659 #
pcurve $-1 -1 $-1 0 forward { exppc nurbs 2 periodic 5 
	-6.283185307179586232 2 -4.712388980384689674 2 -3.141592653589793116 2 -1.570796326794896558 2 -1.350498956678269526e-30 2 
	0 500 1 
	500 500 0.7071067811865463515 
	500 0 1 
	500 -500 0.7071067811865463515 
	0 -500 1 
	-500 -500 0.7071067811865463515 
	-500 0 1 
	-500 500 0.7071067811865463515 
	0 500 1 
	0 
	plane 2758.360865294449468 3095.642797989807605 14000.00000000000182 -1 3.897834435702129261e-15 -5.197112580936172875e-15 5.197112580936172875e-15 0 -1 reverse_v I I I I 
	} 0 0 #
coedge $-1 -1 $-1 $17 $14 $21 $28 reversed $11 $29 #
coedge $-1 -1 $-1 $14 $17 $20 $28 forward $11 $30 #
pcurve $-1 -1 $-1 0 forward { exppc nubs 1 periodic 2 
	-6.283185307179586232 1 2.700997913356539051e-30 1 
	1 1 
	0 1 
	2.726396620975368931e-13 
	spline forward { ref 0 } I I I I 
	} 0 0 #
tvertex-vertex $-1 -1 $-1 $15 $31 0.0001338356153911823029 #
ellipse-curve $-1 -1 $-1 3108.360865336433562 3095.64279798980624 14000.00000000000364 1 -3.897834435702129261e-15 -1.039422516187234575e-14 1.94891721785106465e-12 500 0 1 I I #
pcurve $-1 -1 $-1 0 forward { exppc nubs 1 periodic 2 
	1.350498956678269526e-30 1 6.283185307179586232 1 
	0 0 
	1 0 
	0 
	spline forward { ref 0 } I I I I 
	} 0 0 #
tvertex-vertex $-1 -1 $-1 $18 $32 0.0001338356196726947034 #
ellipse-curve $-1 -1 $-1 2758.360865294449468 3095.642797989807605 14000.00000000000182 1 -3.897834435702129261e-15 5.197112580936172875e-15 1.94891721785106465e-12 500 0 1 I I #
edge $-1 -1 $-1 $26 2.139391364250936474e-11 $23 1 $21 $33 forward @7 tangent #
pcurve $-1 -1 $-1 -1 $33 0 0 #
pcurve $-1 -1 $-1 1 $33 1 0 #
point $-1 -1 $-1 3108.360865336435381 3595.64279798980624 14000.00000000000364 #
point $-1 -1 $-1 2758.360865294451287 3595.642797989807605 14000.00000000000182 #
intcurve-curve $-1 -1 $-1 forward { parcur full nubs 3 open 2 
	0 3 1 3 
	2758.360865286963417 3595.642878175204714 13999.99989284463663 
	2875.027531967624782 3595.64287817520426 13999.99989284463663 
	2991.694198647336634 3595.642878175202441 13999.99989284464209 
	3108.360865327997999 3595.642878175201986 13999.99989284464209 
	0 
	
	spline forward { ref 0 } I I I I 
	null_surface 
	nubs 1 open 2 
	0 1 1 1 
	0 0 
	0 1 
	
	nullbs 
	I I 
	0 
	0 
	0 
	surf1 } F 2.139391364250936474e-11 F 1 #
End-of-ACIS-data 