700 0 1 0           
4 LibG 19 ASM 222.0.0.1700 NT 24 Wed Oct  5 17:29:54 2016 
1000 9.999999999999999547e-07 1.000000000000000036e-10 
body $-1 -1 $-1 $1 $-1 $-1 #
lump $-1 -1 $-1 $-1 $2 $0 #
shell $-1 -1 $-1 $-1 $-1 $3 $-1 $1 #
face $-1 -1 $-1 $4 $5 $2 $-1 $6 forward single #
face $-1 -1 $-1 $7 $8 $2 $-1 $9 reversed single #
loop $-1 -1 $-1 $-1 $10 $3 #
plane-surface $-1 -1 $-1 5208.360865588338129 3095.642797989798055 14000.00000000000182 1 -3.897834435702129261e-15 5.197112580936172875e-15 5.197112580936172875e-15 0 -1 forward_v I I I I #
face $-1 -1 $-1 $-1 $11 $2 $-1 $12 forward single #
loop $-1 -1 $-1 $-1 $13 $4 #
plane-surface $-1 -1 $-1 4858.360865546354034 3095.642797989799419 14000 1 -3.897834435702129261e-15 5.197112580936172875e-15 5.197112580936172875e-15 0 -1 forward_v I I I I #
tcoedge-coedge $-1 -1 $-1 $10 $10 $14 $15 forward $5 $16 1.350498956678269526e-30 6.283185307179586232 #
loop $-1 -1 $-1 $-1 $17 $7 #
spline-surface $-1 -1 $-1 forward { exactsur full nubs 3 3 periodic open none none 88 2 
	0 3 0.001116071428571428509 1 0.002232142857142857019 1 0.004464285714285714038 1 0.008928571428571428076 1 
	0.01785714285714285615 1 0.0357142857142857123 1 0.05357142857142856845 1 0.07142857142857142461 1 0.08928571428571427382 1 
	0.1071428571428571369 1 0.1160714285714285754 1 0.125 1 0.1428571428571428492 1 0.1587301587301587213 1 
	0.1746031746031745935 1 0.1904761904761904656 1 0.2023809523809523836 1 0.2142857142857142738 1 0.238095238095238082 1 
	0.2619047619047618625 1 0.2738095238095237804 1 0.2857142857142856984 1 0.2976190476190476164 1 0.3095238095238095344 1 
	0.3154761904761904656 1 0.3214285714285713969 1 0.3333333333333333148 1 0.3452380952380952328 1 0.3571428571428570953 1 
	0.3690476190476190133 1 0.375 1 0.3779761904761904656 1 0.3809523809523809312 1 0.3869047619047618625 1 
	0.3928571428571428492 1 0.4047619047619047672 1 0.4166666666666666297 1 0.4285714285714285476 1 0.4444444444444444198 1 
	0.4603174603174602919 1 0.476190476190476164 1 0.4771825396825396526 1 0.4781746031746031411 1 0.4801587301587301182 1 
	0.4841269841269840724 1 0.4920634920634920362 1 0.5 1 0.5158730158730158166 1 0.5198412698412697708 1 
	0.5218253968253967479 1 0.5238095238095237249 1 0.5476190476190475609 1 0.5714285714285713969 1 0.5952380952380951218 1 
	0.6190476190476189577 1 0.6349206349206348854 1 0.650793650793650702 1 0.6666666666666666297 1 0.6904761904761904656 1 
	0.7023809523809523281 1 0.7142857142857141906 1 0.7321428571428569843 1 0.749999999999999889 1 0.7678571428571427937 1 
	0.7857142857142855874 1 0.7976190476190474499 1 0.8095238095238094234 1 0.8154761904761904656 1 0.8333333333333332593 1 
	0.8452380952380951218 1 0.8571428571428570953 1 0.875 1 0.8928571428571427937 1 0.9107142857142856984 1 
	0.9285714285714286031 1 0.9464285714285713969 1 0.9642857142857143016 1 0.9732142857142858094 1 0.9821428571428572063 1 
	0.9910714285714286031 1 0.9955357142857143016 1 0.9977678571428572063 1 0.9988839285714286031 1 0.9994419642857143016 1 
	0.9997209821428572063 1 0.9998604910714286031 1 1 3 
	0 3 1 3 
	4858.360865703216405 3595.642872088170861 13999.99991853892971 
	4858.360865703209129 3595.642872081588848 14001.16866580422538 
	4858.360865703083618 3595.634676676495928 14003.50616039973465 
	4858.360865702956289 3595.585500610078725 14008.1809192813671 
	4858.36086570241423 3595.41340590396112 14016.36054217362107 
	4858.360865700369686 3594.725050335004198 14032.71012278207127 
	4858.360865693814958 3591.973797552472661 14065.33212680677389 
	4858.360865672650107 3584.130764751313109 14111.49407263042485 
	4858.360865655578891 3568.57576179911257 14165.48630913067973 
	4858.360865636709605 3547.073470091468607 14217.39742954259054 
	4858.360865622411438 3519.894189653218291 14266.57471165311108 
	4858.360865607011874 3492.798644364468601 14304.76204044568658 
	4858.36086560331114 3468.659364734976407 14333.34785360082969 
	4858.360865598094279 3442.95609102401977 14360.53605608330327 
	4858.36086559539126 3409.594200913328223 14390.34994032691611 
	4858.360865583769737 3367.365980830739773 14420.70971727812503 
	4858.360865582425504 3324.126547083605601 14445.67391382449932 
	4858.360865580808422 3282.408888024555836 14464.49780600917438 
	4858.360865576671131 3243.15769146584762 14478.23146220373565 
	4858.360865573426963 3194.957010970755618 14491.14859012352827 
	4858.360865571508839 3133.147604051361213 14500.46638533601981 
	4858.360865566573011 3070.639710203854065 14500.46496230863704 
	4858.360865565566201 3021.052146604736663 14494.87661187279991 
	4858.360865563320658 2984.278487152083017 14487.91903431112405 
	4858.360865562068284 2948.12767378972103 14478.23227033727926 
	4858.36086556047394 2918.689460460016562 14467.93142016113961 
	4858.360865560085585 2895.650123082887603 14458.38809253367435 
	4858.360865559677222 2872.983655300816736 14447.99015983557001 
	4858.360865558490332 2845.409481022389627 14433.41681950108796 
	4858.360865557365287 2813.719921548304228 14413.50490224573878 
	4858.360865556920544 2783.606921869633425 14391.2806077123314 
	4858.360865555763667 2759.967030549087667 14370.93673564524761 
	4858.360865555567216 2744.25188315513924 14355.79852095342903 
	4858.360865555488999 2735.519060461758727 14346.90085402031582 
	4858.360865555441706 2726.95413883462561 14337.84145054419241 
	4858.360865555242526 2716.568451819245638 14326.21984435357263 
	4858.360865555110649 2700.658194564458427 14307.01699458456642 
	4858.360865554386692 2682.137769345749803 14281.92293255292498 
	4858.360865554192969 2662.226049337432414 14250.23327438158958 
	4858.360865553625445 2642.794637021215749 14213.46785333963453 
	4858.360865553141593 2625.016776876959739 14171.29383826077355 
	4858.36086555291422 2610.300274451615678 14123.58334699143961 
	4858.360865552472205 2603.498669805143891 14089.93804586160149 
	4858.360865552436735 2600.769245306161338 14071.43826038350562 
	4858.360865552437645 2600.188333836821585 14067.323497683401 
	4858.360865552434916 2599.239109449317766 14060.1133666871101 
	4858.360865552434916 2597.610478705194055 14045.65928430741042 
	4858.360865552455834 2596.057369167368506 14024.93321516433207 
	4858.360865552501309 2595.227973873290466 13991.68882614482391 
	4858.360865552593168 2596.679642962680191 13962.60004412407943 
	4858.360865552648647 2599.239034805685151 13939.88649300484576 
	4858.360865552651376 2600.323885874650387 13931.64634770019074 
	4858.360865552743235 2604.479669455354724 13902.85534330767405 
	4858.360865553359872 2616.070632622288485 13852.07146574542639 
	4858.360865554221164 2643.474782331332335 13782.24728327434786 
	4858.360865555327109 2680.979087892199004 13717.28681702954236 
	4858.360865556638601 2722.550982366717108 13665.15897708709235 
	4858.360865557481702 2764.250931138218675 13624.48711654127874 
	4858.360865558273872 2803.286616969940042 13593.35740527090275 
	4858.360865559093327 2852.217630561289752 13561.75287241732076 
	4858.36086556086957 2901.026158494094034 13538.24843441300618 
	4858.360865561717219 2948.127964951383547 13521.76851305819764 
	4858.360865562844083 2990.303608533913575 13510.46670061059376 
	4858.360865565066888 3039.543053661188878 13502.10050446344758 
	4858.360865567758992 3095.642816575328652 13498.9500823857943 
	4858.360865570562055 3151.742686943936405 13502.10039962772134 
	4858.360865574004492 3200.981965642521118 13510.46686474641865 
	4858.360865575606113 3243.15788909214416 13521.7681147102503 
	4858.360865576847573 3272.596054725867816 13532.06899808565322 
	4858.360865577530603 3307.155225383851757 13546.38362161850819 
	4858.360865581562393 3340.594816299143986 13563.26410438946186 
	4858.360865584797466 3377.565628050902887 13586.49525640798674 
	4858.360865589627792 3412.697722346415503 13612.4232068526253 
	4858.360865594634561 3449.938930288331903 13645.70387395667967 
	4858.360865605243816 3487.379843012476613 13687.60011594455136 
	4858.360865623941208 3519.894304357123019 13733.42507810458119 
	4858.360865641556302 3547.073542326855659 13782.60233971341404 
	4858.360865659406954 3568.575944177475776 13834.51348923646219 
	4858.360865680586357 3581.538073188787621 13879.50707260177842 
	4858.360865687413025 3588.836947049413084 13916.20287905632904 
	4858.360865693521191 3592.759720527181798 13943.98829532394848 
	4858.36086570021962 3594.725096936623231 13967.28970850884252 
	4858.36086570236057 3595.413398767431772 13983.63929549348723 
	4858.360865702997216 3595.585502146589988 13991.81891761671432 
	4858.360865703157287 3595.628529459985202 13995.90933182957633 
	4858.360865703202762 3595.639286435620761 13997.95461441756379 
	4858.360865703213676 3595.641975674971491 13998.97726512978988 
	4858.360865703217314 3595.642744037640114 13999.56163831545746 
	4858.360865703217314 3595.642872088993499 13999.85382513076729 
	4858.360865703216405 3595.642872088170861 13999.99991853892971 
	4975.027532383877769 3595.642872088170407 13999.99991853892971 
	4975.027532383870494 3595.642872081588393 14001.16866580422538 
	4975.027532383744983 3595.634676676495474 14003.50616039973465 
	4975.027532383617654 3595.58550061007827 14008.1809192813671 
	4975.027532383075595 3595.413405903960665 14016.36054217362107 
	4975.027532381031051 3594.725050335003743 14032.71012278207127 
	4975.027532374475413 3591.973797552472206 14065.33212680677389 
	4975.027532353310562 3584.130764751312654 14111.49407263042485 
	4975.027532336238437 3568.575761799112115 14165.48630913067973 
	4975.02753231736915 3547.073470091468153 14217.39742954259054 
	4975.027532303070075 3519.894189653217836 14266.57471165311108 
	4975.02753228767051 3492.798644364468146 14304.76204044568658 
	4975.027532283968867 3468.659364734975952 14333.34785360082969 
	4975.027532278752005 3442.956091024019315 14360.53605608330327 
	4975.027532276048987 3409.594200913327768 14390.34994032691611 
	4975.027532264426554 3367.365980830739318 14420.70971727812503 
	4975.027532263082321 3324.126547083605146 14445.67391382449932 
	4975.02753226146524 3282.408888024555381 14464.49780600917438 
	4975.027532257327039 3243.157691465847165 14478.23146220373565 
	4975.027532254083781 3194.957010970755164 14491.14859012352827 
	4975.027532252164747 3133.147604051360759 14500.46638533601981 
	4975.027532247228919 3070.63971020385361 14500.46496230863704 
	4975.027532246222108 3021.052146604736208 14494.87661187279991 
	4975.027532243976566 2984.278487152082562 14487.91903431112405 
	4975.027532242725101 2948.127673789720575 14478.23227033727926 
	4975.027532241130757 2918.689460460016107 14467.93142016113961 
	4975.027532240742403 2895.650123082887148 14458.38809253367435 
	4975.02753224033404 2872.983655300816281 14447.99015983557001 
	4975.027532239147149 2845.409481022389173 14433.41681950108796 
	4975.027532238023014 2813.719921548303773 14413.50490224573878 
	4975.027532237577361 2783.60692186963297 14391.2806077123314 
	4975.027532236421393 2759.967030549087212 14370.93673564524761 
	4975.027532236224943 2744.251883155138785 14355.79852095342903 
	4975.027532236146726 2735.519060461758272 14346.90085402031582 
	4975.027532236099432 2726.954138834625155 14337.84145054419241 
	4975.027532235900253 2716.568451819245183 14326.21984435357263 
	4975.027532235769286 2700.658194564457972 14307.01699458456642 
	4975.027532235045328 2682.137769345749348 14281.92293255292498 
	4975.027532234851606 2662.226049337431959 14250.23327438158958 
	4975.027532234284081 2642.794637021215294 14213.46785333963453 
	4975.027532233801139 2625.016776876959284 14171.29383826077355 
	4975.027532233573766 2610.300274451615223 14123.58334699143961 
	4975.027532233132661 2603.498669805143436 14089.93804586160149 
	4975.02753223309719 2600.769245306160883 14071.43826038350562 
	4975.0275322330981 2600.18833383682113 14067.323497683401 
	4975.027532233095371 2599.239109449317311 14060.1133666871101 
	4975.027532233096281 2597.6104787051936 14045.65928430741042 
	4975.027532233117199 2596.057369167368051 14024.93321516433207 
	4975.027532233162674 2595.227973873290011 13991.68882614482391 
	4975.027532233254533 2596.679642962679736 13962.60004412407943 
	4975.027532233310922 2599.239034805684696 13939.88649300484576 
	4975.02753223331365 2600.323885874649932 13931.64634770019074 
	4975.027532233405509 2604.479669455354269 13902.85534330767405 
	4975.027532234023056 2616.070632622288031 13852.07146574542639 
	4975.027532234885257 2643.47478233133188 13782.24728327434786 
	4975.027532235991202 2680.97908789219855 13717.28681702954236 
	4975.027532237303603 2722.550982366716653 13665.15897708709235 
	4975.027532238146705 2764.25093113821822 13624.48711654127874 
	4975.027532238939784 2803.286616969939587 13593.35740527090275 
	4975.027532239759239 2852.217630561289297 13561.75287241732076 
	4975.027532241535482 2901.026158494093579 13538.24843441300618 
	4975.027532242383131 2948.127964951383092 13521.76851305819764 
	4975.027532243510905 2990.30360853391312 13510.46670061059376 
	4975.02753224573371 3039.543053661188424 13502.10050446344758 
	4975.027532248425814 3095.642816575328197 13498.9500823857943 
	4975.027532251228877 3151.742686943935951 13502.10039962772134 
	4975.027532254671314 3200.981965642520663 13510.46686474641865 
	4975.027532256272025 3243.157889092143705 13521.7681147102503 
	4975.027532257513485 3272.596054725867361 13532.06899808565322 
	4975.027532258196516 3307.155225383851302 13546.38362161850819 
	4975.027532262228306 3340.594816299143531 13563.26410438946186 
	4975.027532265463378 3377.565628050902433 13586.49525640798674 
	4975.027532270292795 3412.697722346415048 13612.4232068526253 
	4975.027532275299563 3449.938930288331449 13645.70387395667967 
	4975.027532285908819 3487.379843012476158 13687.60011594455136 
	4975.027532304605302 3519.894304357122564 13733.42507810458119 
	4975.027532322219486 3547.073542326855204 13782.60233971341404 
	4975.027532340070138 3568.575944177475321 13834.51348923646219 
	4975.027532361248632 3581.538073188787166 13879.50707260177842 
	4975.027532368075299 3588.836947049412629 13916.20287905632904 
	4975.027532374183465 3592.759720527181344 13943.98829532394848 
	4975.027532380880984 3594.725096936622776 13967.28970850884252 
	4975.027532383021935 3595.413398767431318 13983.63929549348723 
	4975.027532383658581 3595.585502146589533 13991.81891761671432 
	4975.027532383818652 3595.628529459984748 13995.90933182957633 
	4975.027532383864127 3595.639286435620306 13997.95461441756379 
	4975.027532383875041 3595.641975674971036 13998.97726512978988 
	4975.027532383878679 3595.642744037639659 13999.56163831545746 
	4975.027532383878679 3595.642872088993045 13999.85382513076729 
	4975.027532383877769 3595.642872088170407 13999.99991853892971 
	5091.694199075842334 3595.642872088168588 13999.99991853892971 
	5091.694199075834149 3595.642872081587029 14001.16866580422538 
	5091.694199075695906 3595.634676676493655 14003.50616039973465 
	5091.694199075561301 3595.585500610075997 14008.1809192813671 
	5091.694199074979224 3595.413405903958846 14016.36054217362107 
	5091.694199072788251 3594.725050335001015 14032.71012278207127 
	5091.694199065757857 3591.973797552469478 14065.33212680677389 
	5091.694199043070512 3584.13076475131038 14111.49407263042485 
	5091.69419902476875 3568.575761799109841 14165.48630913067973 
	5091.694199004539769 3547.073470091466334 14217.39742954259054 
	5091.694198989212964 3519.894189653216927 14266.57471165311108 
	5091.694198972703816 3492.798644364466782 14304.76204044568658 
	5091.694198968735691 3468.659364734975043 14333.34785360082969 
	5091.694198963143208 3442.956091024019315 14360.53605608330327 
	5091.694198960246467 3409.594200913326858 14390.34994032691611 
	5091.69419894778548 3367.365980830739318 14420.70971727812503 
	5091.69419894634575 3324.126547083605146 14445.67391382449932 
	5091.694198944611344 3282.408888024555381 14464.49780600917438 
	5091.694198940175738 3243.157691465846256 14478.23146220373565 
	5091.694198936696921 3194.957010970753799 14491.14859012352827 
	5091.694198934640553 3133.147604051359849 14500.46638533601981 
	5091.694198929349113 3070.639710203852701 14500.46496230863704 
	5091.694198928270453 3021.052146604735299 14494.87661187279991 
	5091.694198925862111 2984.278487152081652 14487.91903431112587 
	5091.694198924520606 2948.127673789719665 14478.23227033728108 
	5091.694198922810756 2918.689460460015198 14467.93142016114325 
	5091.694198922394207 2895.650123082885784 14458.38809253367799 
	5091.69419892195674 2872.983655300815371 14447.99015983557183 
	5091.694198920683448 2845.409481022388263 14433.41681950108978 
	5091.694198919478367 2813.719921548303319 14413.50490224574241 
	5091.694198919000883 2783.60692186963206 14391.28060771233504 
	5091.694198917762151 2759.967030549086303 14370.93673564525307 
	5091.694198917552058 2744.251883155137875 14355.79852095343631 
	5091.694198917467475 2735.519060461757363 14346.90085402032128 
	5091.694198917416543 2726.9541388346247 14337.84145054419787 
	5091.694198917201902 2716.568451819244274 14326.21984435357808 
	5091.69419891706093 2700.658194564457062 14307.01699458457006 
	5091.694198916285131 2682.137769345747984 14281.92293255293043 
	5091.694198916076857 2662.22604933743105 14250.23327438159504 
	5091.694198915468405 2642.794637021214385 14213.46785333963999 
	5091.694198914950903 2625.016776876958374 14171.29383826078083 
	5091.694198914707158 2610.300274451613859 14123.58334699144507 
	5091.694198914233311 2603.498669805142981 14089.93804586161059 
	5091.694198914193294 2600.769245306159519 14071.4382603835129 
	5091.694198914195113 2600.18833383682022 14067.3234976834101 
	5091.694198914194203 2599.239109449316857 14060.11336668711738 
	5091.694198914193294 2597.6104787051936 14045.65928430741951 
	5091.69419891421785 2596.057369167367142 14024.93321516433934 
	5091.694198914266053 2595.227973873290011 13991.688826144833 
	5091.694198914365188 2596.679642962678827 13962.60004412408489 
	5091.694198914425215 2599.239034805684241 13939.88649300485486 
	5091.694198914427943 2600.323885874649022 13931.6463477001962 
	5091.694198914527078 2604.47966945535336 13902.85534330767769 
	5091.694198915188281 2616.070632622287576 13852.07146574542821 
	5091.694198916113237 2643.474782331330516 13782.2472832743515 
	5091.694198917299218 2680.97908789219764 13717.28681702954236 
	5091.694198918707116 2722.550982366715289 13665.15897708709417 
	5091.694198919610244 2764.250931138216856 13624.48711654127874 
	5091.694198920460622 2803.286616969938223 13593.35740527090275 
	5091.694198921339193 2852.217630561288388 13561.75287241732076 
	5091.694198923243675 2901.02615849409267 13538.24843441300618 
	5091.694198924151351 2948.127964951382637 13521.76851305819764 
	5091.694198925360979 2990.303608533912211 13510.46670061059376 
	5091.694198927742946 3039.543053661187969 13502.10050446344758 
	5091.694198930629682 3095.642816575327743 13498.9500823857943 
	5091.694198933635562 3151.742686943935041 13502.10039962772134 
	5091.694198937326291 3200.981965642520208 13510.46686474641865 
	5091.694198939042508 3243.157889092142341 13521.7681147102503 
	5091.694198940373099 3272.596054725866452 13532.06899808565322 
	5091.694198941105242 3307.155225383850393 13546.38362161850819 
	5091.694198945427161 3340.594816299143076 13563.26410438946186 
	5091.694198948895064 3377.565628050901523 13586.49525640798674 
	5091.694198954072817 3412.697722346414594 13612.4232068526253 
	5091.694198959439746 3449.938930288330084 13645.70387395667967 
	5091.694198970812977 3487.379843012475703 13687.60011594455136 
	5091.694198990856421 3519.894304357121655 13733.42507810458119 
	5091.694199009740259 3547.073542326855204 13782.60233971341404 
	5091.694199028876028 3568.575944177474412 13834.51348923646219 
	5091.694199051581563 3581.538073188786711 13879.50707260177842 
	5091.694199058899358 3588.836947049411719 13916.20287905632904 
	5091.69419906544681 3592.759720527181798 13943.98829532394848 
	5091.69419907262818 3594.725096936621867 13967.28970850884252 
	5091.694199074921926 3595.413398767431772 13983.63929549348723 
	5091.694199075605866 3595.585502146589079 13991.81891761671432 
	5091.694199075775941 3595.628529459985202 13995.90933182957633 
	5091.694199075825054 3595.639286435619852 13997.95461441756379 
	5091.694199075836877 3595.641975674971036 13998.97726512978988 
	5091.694199075843244 3595.642744037637385 13999.56163831545746 
	5091.694199075843244 3595.642872088991226 13999.85382513076729 
	5091.694199075842334 3595.642872088168588 13999.99991853892971 
	5208.360865756503699 3595.642872088168133 13999.99991853892971 
	5208.360865756495514 3595.642872081586574 14001.16866580422538 
	5208.360865756357271 3595.6346766764932 14003.50616039973465 
	5208.360865756222665 3595.585500610075542 14008.1809192813671 
	5208.360865755640589 3595.413405903958392 14016.36054217362107 
	5208.360865753449616 3594.72505033500056 14032.71012278207127 
	5208.360865746420131 3591.973797552469023 14065.33212680677389 
	5208.360865723733696 3584.130764751309925 14111.49407263042485 
	5208.360865705431934 3568.575761799109387 14165.48630913067973 
	5208.360865685203862 3547.073470091465879 14217.39742954259054 
	5208.360865669877057 3519.894189653216472 14266.57471165311108 
	5208.360865653368819 3492.798644364466327 14304.76204044568658 
	5208.360865649400694 3468.659364734974588 14333.34785360082969 
	5208.360865643808211 3442.95609102401886 14360.53605608330327 
	5208.36086564091147 3409.594200913326404 14390.34994032691611 
	5208.360865628451393 3367.365980830738863 14420.70971727812503 
	5208.360865627011663 3324.126547083604692 14445.67391382449932 
	5208.360865625277256 3282.408888024554926 14464.49780600917438 
	5208.360865620841651 3243.157691465845801 14478.23146220373565 
	5208.360865617363743 3194.957010970753345 14491.14859012352827 
	5208.360865615306466 3133.147604051359394 14500.46638533601981 
	5208.360865610015935 3070.639710203852246 14500.46496230863704 
	5208.360865608936365 3021.052146604734844 14494.87661187279991 
	5208.360865606528932 2984.278487152081198 14487.91903431112587 
	5208.360865605186518 2948.127673789719211 14478.23227033728108 
	5208.360865603476668 2918.689460460014743 14467.93142016114325 
	5208.36086560306012 2895.650123082885329 14458.38809253367799 
	5208.360865602622653 2872.983655300814917 14447.99015983557183 
	5208.36086560134936 2845.409481022387808 14433.41681950108978 
	5208.36086560014428 2813.719921548302864 14413.50490224574241 
	5208.360865599666795 2783.606921869631606 14391.28060771233504 
	5208.360865598427154 2759.967030549085848 14370.93673564525307 
	5208.36086559821706 2744.251883155137421 14355.79852095343631 
	5208.360865598132477 2735.519060461756908 14346.90085402032128 
	5208.360865598081546 2726.954138834624246 14337.84145054419787 
	5208.360865597866905 2716.568451819243819 14326.21984435357808 
	5208.360865597725933 2700.658194564456608 14307.01699458457006 
	5208.360865596949225 2682.137769345747529 14281.92293255293043 
	5208.36086559674095 2662.226049337430595 14250.23327438159504 
	5208.360865596131589 2642.79463702121393 14213.46785333963999 
	5208.360865595614086 2625.01677687695792 14171.29383826078083 
	5208.360865595369432 2610.300274451613404 14123.58334699144507 
	5208.360865594895586 2603.498669805142526 14089.93804586161059 
	5208.360865594855568 2600.769245306159064 14071.4382603835129 
	5208.360865594857387 2600.188333836819766 14067.3234976834101 
	5208.360865594855568 2599.239109449316402 14060.11336668711738 
	5208.360865594855568 2597.610478705193145 14045.65928430741951 
	5208.360865594879215 2596.057369167366687 14024.93321516433934 
	5208.360865594927418 2595.227973873289557 13991.688826144833 
	5208.360865595025643 2596.679642962678372 13962.60004412408489 
	5208.36086559508567 2599.239034805683787 13939.88649300485486 
	5208.360865595088399 2600.323885874648568 13931.6463477001962 
	5208.360865595187533 2604.479669455352905 13902.85534330767769 
	5208.360865595848736 2616.070632622287121 13852.07146574542821 
	5208.360865596771873 2643.474782331330061 13782.2472832743515 
	5208.360865597957854 2680.979087892197185 13717.28681702954236 
	5208.360865599364843 2722.550982366714834 13665.15897708709417 
	5208.360865600267971 2764.250931138216401 13624.48711654127874 
	5208.360865601117439 2803.286616969937768 13593.35740527090275 
	5208.360865601996011 2852.217630561287933 13561.75287241732076 
	5208.360865603900493 2901.026158494092215 13538.24843441300618 
	5208.360865604808168 2948.127964951382182 13521.76851305819764 
	5208.360865606016887 2990.303608533911756 13510.46670061059376 
	5208.360865608399763 3039.543053661187514 13502.10050446344758 
	5208.36086561128559 3095.642816575327288 13498.9500823857943 
	5208.360865614292379 3151.742686943934586 13502.10039962772134 
	5208.360865617982199 3200.981965642519754 13510.46686474641865 
	5208.360865619699325 3243.157889092141886 13521.7681147102503 
	5208.360865621029916 3272.596054725865997 13532.06899808565322 
	5208.360865621762059 3307.155225383849938 13546.38362161850819 
	5208.360865626083978 3340.594816299142622 13563.26410438946186 
	5208.360865629552791 3377.565628050901068 13586.49525640798674 
	5208.360865634729635 3412.697722346414139 13612.4232068526253 
	5208.360865640097472 3449.93893028832963 13645.70387395667967 
	5208.360865651470704 3487.379843012475249 13687.60011594455136 
	5208.360865671515057 3519.8943043571212 13733.42507810458119 
	5208.360865690398896 3547.073542326854749 13782.60233971341404 
	5208.360865709535574 3568.575944177473957 13834.51348923646219 
	5208.360865732241109 3581.538073188786257 13879.50707260177842 
	5208.360865739559813 3588.836947049411265 13916.20287905632904 
	5208.360865746107265 3592.759720527181344 13943.98829532394848 
	5208.360865753289545 3594.725096936621412 13967.28970850884252 
	5208.360865755583291 3595.413398767431318 13983.63929549348723 
	5208.360865756267231 3595.585502146588624 13991.81891761671432 
	5208.360865756437306 3595.628529459984748 13995.90933182957633 
	5208.360865756486419 3595.639286435619397 13997.95461441756379 
	5208.360865756498242 3595.641975674970581 13998.97726512978988 
	5208.360865756504609 3595.64274403763693 13999.56163831545746 
	5208.360865756504609 3595.642872088990771 13999.85382513076729 
	5208.360865756503699 3595.642872088168133 13999.99991853892971 
	0 
	
	0 
	0 
	86 0 0.001116071428571428509 0.002232142857142857019 0.004464285714285714038 0.008928571428571428076 0.01785714285714285615 0.0357142857142857123 0.05357142857142856845 0.07142857142857142461 0.08928571428571427382 0.1071428571428571369 0.1160714285714285754 0.125 0.1428571428571428492 0.1587301587301587213 0.1746031746031745935 0.1904761904761904656 0.2023809523809523836 0.2142857142857142738 0.238095238095238082 0.2619047619047618625 0.2738095238095237804 0.2857142857142856984 0.2976190476190476164 0.3095238095238095344 0.3154761904761904656 0.3214285714285713969 0.3333333333333333148 0.3452380952380952328 0.3571428571428570953 0.3690476190476190133 0.375 0.3779761904761904656 0.3809523809523809312 0.3869047619047618625 0.3928571428571428492 0.4047619047619047672 0.4166666666666666297 0.4285714285714285476 0.4444444444444444198 0.4603174603174602919 0.476190476190476164 0.4771825396825396526 0.4781746031746031411 0.4801587301587301182 0.4841269841269840724 0.4920634920634920362 0.5 0.5158730158730158166 0.5198412698412697708 0.5218253968253967479 0.5238095238095237249 0.5476190476190475609 0.5714285714285713969 0.5952380952380951218 0.6190476190476189577 0.6349206349206348854 0.650793650793650702 0.6666666666666666297 0.6904761904761904656 0.7023809523809523281 0.7142857142857141906 0.7321428571428569843 0.749999999999999889 0.7678571428571427937 0.7857142857142855874 0.7976190476190474499 0.8095238095238094234 0.8154761904761904656 0.8333333333333332593 0.8452380952380951218 0.8571428571428570953 0.875 0.8928571428571427937 0.9107142857142856984 0.9285714285714286031 0.9464285714285713969 0.9642857142857143016 0.9732142857142858094 0.9821428571428572063 0.9910714285714286031 0.9955357142857143016 0.9977678571428572063 0.9994419642857143016 0.9997209821428572063 0.9998604910714286031 
	0 
	0 
	0 
	F 1 F 0 F 1 F 0 } I I I I #
tcoedge-coedge $-1 -1 $-1 $13 $13 $17 $18 reversed $8 $19 -6.283185307179586232 -1.350498956678269526e-30 #
tcoedge-coedge $-1 -1 $-1 $20 $21 $10 $15 reversed $11 $22 -6.283185307179586232 -1.350498956678269526e-30 #
tedge-edge $-1 -1 $-1 $23 1.350498956678269526e-30 $23 6.283185307179586232 $14 $24 forward @7 unknown 0.0007368033602704547038 #
pcurve $-1 -1 $-1 0 forward { exppc nurbs 2 periodic 5 
	1.350498956678269526e-30 2 1.570796326794896558 2 3.141592653589793116 2 4.712388980384689674 2 6.283185307179586232 2 
	0 500 1 
	-500 500 0.7071067811865463515 
	-500 0 1 
	-500 -500 0.7071067811865463515 
	0 -500 1 
	500 -500 0.7071067811865463515 
	500 0 1 
	500 500 0.707106781186543798 
	0 500 1 
	0 
	plane 5208.360865588338129 3095.642797989798055 14000.00000000000182 1 -3.897834435702129261e-15 5.197112580936172875e-15 5.197112580936172875e-15 0 -1 forward_v I I I I 
	} 0 0 #
tcoedge-coedge $-1 -1 $-1 $21 $20 $13 $18 forward $11 $25 1.350498956678269526e-30 6.283185307179586232 #
tedge-edge $-1 -1 $-1 $26 1.350498956678269526e-30 $26 6.283185307179586232 $17 $27 forward @7 unknown 0.0007368033620896467448 #
pcurve $-1 -1 $-1 0 forward { exppc nurbs 2 periodic 5 
	-6.283185307179586232 2 -4.712388980384689674 2 -3.141592653589793116 2 -1.570796326794896558 2 -1.350498956678269526e-30 2 
	0 500 1 
	500 500 0.7071067811865463515 
	500 0 1 
	500 -500 0.7071067811865463515 
	0 -500 1 
	-500 -500 0.7071067811865463515 
	-500 0 1 
	-500 500 0.7071067811865463515 
	0 500 1 
	0 
	plane 4858.360865546354034 3095.642797989799419 14000 -1 3.897834435702129261e-15 -5.197112580936172875e-15 5.197112580936172875e-15 0 -1 reverse_v I I I I 
	} 0 0 #
coedge $-1 -1 $-1 $17 $14 $21 $28 reversed $11 $29 #
coedge $-1 -1 $-1 $14 $17 $20 $28 forward $11 $30 #
pcurve $-1 -1 $-1 0 forward { exppc nubs 1 periodic 2 
	-6.283185307179586232 1 -1.350498956678269526e-30 1 
	1 1 
	0 1 
	2.726396620975368931e-13 
	spline forward { ref 0 } I I I I 
	} 0 0 #
tvertex-vertex $-1 -1 $-1 $15 $31 0.0001101204122747779249 #
ellipse-curve $-1 -1 $-1 5208.360865588338129 3095.642797989798055 14000.00000000000182 1 -3.897834435702129261e-15 5.197112580936172875e-15 1.94891721785106465e-12 500 0 1 I I #
pcurve $-1 -1 $-1 0 forward { exppc nubs 1 periodic 2 
	1.350498956678269526e-30 1 6.283185307179586232 1 
	0 0 
	1 0 
	0 
	spline forward { ref 0 } I I I I 
	} 0 0 #
tvertex-vertex $-1 -1 $-1 $18 $32 0.0001101203951662658488 #
ellipse-curve $-1 -1 $-1 4858.360865546354034 3095.642797989799419 14000 1 -3.897834435702129261e-15 5.197112580936172875e-15 1.94891721785106465e-12 500 0 1 I I #
edge $-1 -1 $-1 $26 0 $23 0.9999999995195321123 $21 $33 forward @7 tangent #
pcurve $-1 -1 $-1 -1 $33 0 0 #
pcurve $-1 -1 $-1 1 $33 1 0 #
point $-1 -1 $-1 5208.360865588339948 3595.642797989798055 14000.00000000000182 #
point $-1 -1 $-1 4858.360865546355853 3595.642797989799419 14000 #
intcurve-curve $-1 -1 $-1 forward { parcur full nubs 3 open 2 
	0 3 1 3 
	4858.360865703216405 3595.642872088170861 13999.99991853892971 
	4975.027532383877769 3595.642872088170407 13999.99991853892971 
	5091.694199075842334 3595.642872088168588 13999.99991853892971 
	5208.360865756503699 3595.642872088168133 13999.99991853892971 
	0 
	
	spline forward { ref 0 } I I I I 
	null_surface 
	nubs 1 open 2 
	0 1 1 1 
	0 0 
	0 1 
	
	nullbs 
	I I 
	0 
	0 
	0 
	surf1 } F 0 F 0.9999999995195321123 #
End-of-ACIS-data 