700 0 1 0           
4 LibG 19 ASM 222.0.0.1700 NT 24 Wed Oct  5 17:29:54 2016 
1000 9.999999999999999547e-07 1.000000000000000036e-10 
body $-1 -1 $-1 $1 $-1 $-1 #
lump $-1 -1 $-1 $-1 $2 $0 #
shell $-1 -1 $-1 $-1 $-1 $3 $-1 $1 #
face $-1 -1 $-1 $4 $5 $2 $-1 $6 forward single #
face $-1 -1 $-1 $7 $8 $2 $-1 $9 reversed single #
loop $-1 -1 $-1 $-1 $10 $3 #
plane-surface $-1 -1 $-1 7606.331792625984235 2751.299570722003409 14000.00000000000364 0.8774825499499983028 -0.4796085638656264472 -1.039422516187233313e-14 -1.184550640062828445e-14 0 -1 forward_v I I I I #
face $-1 -1 $-1 $-1 $11 $2 $-1 $12 forward single #
loop $-1 -1 $-1 $-1 $13 $4 #
plane-surface $-1 -1 $-1 7283.983190837318034 2887.649777741577054 14000 0.9209960049999983411 -0.3895720200091928875 1.039422516187235837e-14 1.128585260461838508e-14 0 -1 forward_v I I I I #
tcoedge-coedge $-1 -1 $-1 $10 $10 $14 $15 forward $5 $16 2.363373178439430857e-30 6.283185307179586232 #
loop $-1 -1 $-1 $-1 $17 $7 #
spline-surface $-1 -1 $-1 forward { exactsur full nubs 3 3 periodic open none none 80 2 
	0 3 0.002232142857142857019 1 0.004464285714285714038 1 0.008928571428571428076 1 0.01785714285714285615 1 
	0.0357142857142857123 1 0.05357142857142856845 1 0.0625 1 0.07142857142857142461 1 0.08928571428571427382 1 
	0.1071428571428571369 1 0.125 1 0.1428571428571428492 1 0.1587301587301587213 1 0.1746031746031745935 1 
	0.1904761904761904656 1 0.2023809523809523836 1 0.2142857142857142738 1 0.238095238095238082 1 0.2619047619047618625 1 
	0.2857142857142856984 1 0.2976190476190476164 1 0.3095238095238095344 1 0.3214285714285713969 1 0.3273809523809523281 1 
	0.3303571428571427937 1 0.3333333333333333148 1 0.3452380952380952328 1 0.3571428571428570953 1 0.3690476190476190133 1 
	0.375 1 0.3809523809523809312 1 0.3928571428571428492 1 0.4047619047619047672 1 0.4166666666666666297 1 
	0.4285714285714285476 1 0.4444444444444444198 1 0.4603174603174602919 1 0.476190476190476164 1 0.4841269841269840724 1 
	0.4920634920634920362 1 0.5 1 0.5079365079365079083 1 0.5158730158730158166 1 0.5238095238095237249 1 
	0.5476190476190475609 1 0.5714285714285713969 1 0.5952380952380951218 1 0.6190476190476189577 1 0.6269841269841269771 1 
	0.6349206349206348854 1 0.650793650793650702 1 0.6666666666666666297 1 0.6904761904761904656 1 0.7023809523809523281 1 
	0.7142857142857141906 1 0.7321428571428569843 1 0.7410714285714283811 1 0.749999999999999889 1 0.7678571428571427937 1 
	0.7857142857142855874 1 0.7976190476190474499 1 0.8095238095238094234 1 0.8333333333333332593 1 0.8452380952380951218 1 
	0.8571428571428570953 1 0.875 1 0.8928571428571427937 1 0.9107142857142856984 1 0.9285714285714286031 1 
	0.9464285714285713969 1 0.9642857142857143016 1 0.9821428571428572063 1 0.9910714285714286031 1 0.9955357142857143016 1 
	0.9977678571428572063 1 0.9988839285714286031 1 0.9994419642857143016 1 0.9997209821428572063 1 1 3 
	0 3 1 3 
	7478.769232144290072 3348.14785417954181 13999.99989041605659 
	7478.76923212867132 3348.147854142624055 14002.33738494595491 
	7478.756459375987106 3348.117657789937766 14007.01237361118183 
	7478.679837663341459 3347.936514669950611 14016.36051352602044 
	7478.411675840806311 3347.302547253917055 14032.71009628015781 
	7477.339852218208762 3344.768624840161465 14065.33208791278412 
	7474.284471133985789 3337.54532946891095 14111.49407853775665 
	7469.234551160717274 3325.606699693157225 14156.48751574134258 
	7464.036389164612956 3313.317607600113206 14191.4419337697509 
	7458.083184544701908 3299.243502198618899 14225.59355339509057 
	7449.259686055954262 3278.383670285222252 14266.5747046750912 
	7436.592865390520274 3248.437753669556969 14312.39944901995477 
	7422.007042623547022 3213.955080876644843 14354.29598058779447 
	7406.289868479212601 3176.797754751897173 14390.34990791596647 
	7389.838951300134795 3137.905770163131365 14420.7097063693418 
	7372.994075299523502 3098.082418627823699 14445.6738928083123 
	7356.74203925736947 3059.660613419165657 14464.49778212622914 
	7341.450899477283201 3023.510484750456271 14478.23158237203097 
	7322.673219954476735 2979.117748786267384 14491.148543451347 
	7298.594058364993543 2922.191659415912 14500.4660471757561 
	7269.372355847811377 2853.107972973909909 14500.46565156933866 
	7245.293162075190594 2796.18180751891714 14491.148786639018 
	7226.515449892336619 2751.788994341752641 14478.23206059950098 
	7212.753443424401667 2719.253924248116618 14465.87155335546049 
	7201.617116255923065 2692.926281846845995 14453.39924653161688 
	7194.02862577355063 2674.986160228193967 14443.56575479889761 
	7189.756004132854287 2664.885158975971081 14437.63741467067302 
	7183.412959899844282 2649.889424944608891 14428.43889527410465 
	7174.153927959816428 2627.999938562700663 14413.50498011967466 
	7162.422751196368154 2600.265998807987671 14391.28066787317766 
	7153.213306652368374 2578.493743108188482 14370.93680300129563 
	7146.216532287059636 2561.952510916608389 14353.63597734770883 
	7139.476610477225222 2546.018509648532472 14335.67582203556231 
	7131.551230721056527 2527.281940494289302 14312.03589935439413 
	7122.893212959997072 2506.813325297347092 14281.92296702474414 
	7115.136156604065036 2488.4746932924877 14250.23332526851664 
	7107.56622379543569 2470.57844428920771 14213.46789459182037 
	7100.640479154405512 2454.205135072004396 14171.29387636238789 
	7094.907312155126419 2440.651225573631109 14123.58339674657145 
	7091.695598469830657 2433.058340763149317 14082.80118692795804 
	7090.084801905515633 2429.25022025039334 14049.80452555518241 
	7089.358658249758264 2427.533527645039158 14024.93324475621193 
	7089.116455172864335 2426.96092988452483 13999.99997074834209 
	7089.358632557333294 2427.533466904997567 13975.06667309993827 
	7090.084862675233126 2429.250363917461073 13950.19543646650709 
	7092.098000118983691 2434.009667583939517 13908.94946284949401 
	7097.155236189344578 2445.965593517660636 13852.07149590491827 
	7107.831187419053094 2471.204850771788188 13782.24727186609925 
	7122.441846540405095 2505.746239757416788 13717.28698248975525 
	7136.612595008894459 2539.247626039838451 13671.67480592459106 
	7147.920036356478704 2565.979803334327698 13641.91807236937348 
	7157.416647384085081 2588.430955799584808 13619.29867150785685 
	7170.089429449676572 2618.390965900513038 13593.35750788466976 
	7189.151520541849095 2663.456085675464692 13561.75278846746369 
	7208.165987210029016 2708.408615474515045 13538.24841765611382 
	7226.515523682810453 2751.789168791683551 13521.7684974083204 
	7242.945976745043481 2790.632773704962801 13510.46661260789551 
	7258.531607489091584 2827.479115107986217 13503.6693017214202 
	7273.055733001562658 2861.815928035847264 13500.5250411837751 
	7287.625688872624778 2896.261089548752352 13499.47524012883514 
	7305.838106963193241 2939.317478202974598 13502.10040882471731 
	7325.020414022779732 2984.666803258780419 13510.46668418963964 
	7341.450873164669247 3023.510422544611629 13521.76842560001205 
	7359.800357566433377 3066.890852759468999 13538.24866212730922 
	7377.352225537437334 3108.385619966485592 13559.9446642349285 
	7393.812408281118223 3147.299509489523643 13586.49536590874595 
	7407.498933944541022 3179.656133708420839 13612.42306373673091 
	7422.007054671988044 3213.95510936065557 13645.70383830086394 
	7436.592954892533271 3248.437965266918582 13687.60013101365985 
	7449.259660625679317 3278.383610170431893 13733.42511070425098 
	7459.848035941344278 3303.415827224721397 13782.6022528252106 
	7468.224665828171055 3323.21920698732265 13834.51347337966945 
	7474.284465643070689 3337.545316489278775 13888.50569861097574 
	7477.339867242243599 3344.768660358771285 13934.66767927037472 
	7478.411676373741102 3347.302548513807778 13967.28968420989622 
	7478.679838818754433 3347.936517401398305 13983.63926664873725 
	7478.746881858840425 3348.095015365362542 13991.81888962751691 
	7478.763644748160914 3348.134644890272739 13995.90930368067166 
	7478.767835250873759 3348.144551752292955 13997.95458629743734 
	7478.769032576374229 3348.147382376529094 13999.1233299611813 
	7478.769232146241848 3348.147854184156586 13999.70770359981907 
	7478.769232144290072 3348.14785417954181 13999.99989041605659 
	7601.224856830455792 3295.445542609651966 13999.99989041605841 
	7601.224857301979682 3295.445542337304687 14002.33738494595673 
	7601.21109872431407 3295.415822420620771 14007.01237361118365 
	7601.128577354872505 3295.237530525700549 14016.36051352602226 
	7600.839751508097834 3294.613549755659733 14032.71009628015963 
	7599.685363155192135 3292.119529769597648 14065.33208791278594 
	7596.3945952989734 3285.009993670792483 14111.49407853775847 
	7590.955639273795896 3273.259379805384469 14156.4875157413444 
	7585.357010695959616 3261.16382784456755 14191.44193376975272 
	7578.945184413045354 3247.311368146732093 14225.59355339509239 
	7569.441931244414263 3226.780052560608965 14266.57470467509302 
	7555.799276115443718 3197.305743663839166 14312.39944901995659 
	7540.089775140079837 3163.366129490429557 14354.29598058779629 
	7523.16176824802551 3126.793982606068766 14390.34990791596829 
	7505.443492032222821 3088.514495655647352 14420.70970636934362 
	7487.300907332966744 3049.318309343568217 14445.67389280831412 
	7469.79683230270166 3011.501597799066076 14464.49778212623096 
	7453.327679916083071 2975.920786836336447 14478.23158237203279 
	7433.103391140575695 2932.227177737708644 14491.14854345134881 
	7407.169194059689289 2876.197602160686529 14500.46604717575792 
	7375.696287993811893 2808.201892224988114 14500.46565156934048 
	7349.762059158876582 2752.172240355955182 14491.14878663901982 
	7329.537737658683909 2708.478554075590637 14478.2320605995028 
	7314.715519486574522 2676.455870090495409 14465.87155335546231 
	7302.721264869691367 2650.542852527799823 14453.3992465316187 
	7294.548164735357204 2632.885264919482779 14443.56575479889943 
	7289.946385901862413 2622.943340927444297 14437.63741467067484 
	7283.114679883889039 2608.183770588111202 14428.43889527410647 
	7273.1423434557164 2586.639014706202488 14413.50498011967647 
	7260.507411415444949 2559.341847765392231 14391.28066787317948 
	7250.588481487859099 2537.91247684353948 14370.93680300129745 
	7243.052684952904201 2521.631746843017027 14353.63597734771065 
	7235.793526171734811 2505.948685844799911 14335.67582203556412 
	7227.257585166596073 2487.507192759943791 14312.03589935439595 
	7217.932564263500353 2467.360931242918923 14281.92296702474596 
	7209.577911837780448 2449.311109410096378 14250.23332526851846 
	7201.424801945284344 2431.696702076188558 14213.46789459182219 
	7193.965501140140077 2415.581253402820494 14171.29387636238971 
	7187.790655232242898 2402.240801401964291 14123.58339674657327 
	7184.331513140311472 2394.767495424577191 14082.80118692795986 
	7182.596628288109969 2391.019345118427736 14049.80452555518423 
	7181.81453834471813 2389.329690604140978 14024.93324475621375 
	7181.553683184614783 2388.766107145481328 13999.99997074834391 
	7181.814509570379414 2389.329631353546574 13975.06667309994009 
	7182.596696429552139 2391.019485222839194 13950.19543646650891 
	7184.764909686308783 2395.703842827090284 13908.94946284949583 
	7190.21175968933494 2407.471473568440615 13852.07149590492008 
	7201.710169220334137 2432.313247747465084 13782.24727186610107 
	7217.446422719131988 2466.310652054765342 13717.28698248975707 
	7232.708861778253777 2499.284438904674971 13671.67480592459287 
	7244.887431709552402 2525.595611428804659 13641.9180723693753 
	7255.115639500899306 2547.69319298240498 13619.29867150785867 
	7268.764727212645994 2577.181367648192918 13593.35750788467158 
	7289.295334345207266 2621.536773300670575 13561.75278846746551 
	7309.774644703467857 2665.78136377493729 13538.24841765611563 
	7329.537816046899934 2708.478726303493659 13521.76849740832222 
	7347.234046445156309 2746.710597993181182 13510.46661260789733 
	7364.020381102152896 2782.976655285924608 13503.66930172142202 
	7379.663426690018241 2816.772709136194862 13500.52504118377692 
	7395.355837088121916 2850.675403418395035 13499.47524012883696 
	7414.971317287079728 2893.053710958318334 13502.10040882471912 
	7435.631411160357857 2937.688841451152257 13510.46668418964146 
	7453.327649702752751 2975.920726515655133 13521.76842560001387 
	7473.090766439430809 3018.617967167388088 13538.24866212731104 
	7491.994801628284222 3059.459250078652531 13559.94466423493031 
	7509.723050508922825 3097.760300231280326 13586.49536590874777 
	7524.463977561944375 3129.607346388805581 13612.42306373673273 
	7540.089785243921142 3163.366158914238895 13645.70383830086575 
	7555.799367408563739 3197.305954395581921 13687.60013101366167 
	7569.441904093938319 3226.77999327716816 13733.4251107042528 
	7580.845990059647193 3251.417988305775907 13782.60225282521242 
	7589.86795001016344 3270.90948869677959 13834.51347337967127 
	7596.394587860683714 3285.009981632299969 13888.50569861097756 
	7599.685379352172276 3292.11956472133852 13934.66767927037654 
	7600.83975139240647 3294.613551329022812 13967.28968420989804 
	7601.12857897493268 3295.237533032590818 13983.63926664873907 
	7601.200783292804772 3295.393536620168106 13991.81888962751873 
	7601.218839490516984 3295.432541106464669 13995.90930368067347 
	7601.223352040286045 3295.44229232745829 13997.95458629743916 
	7601.224641661123314 3295.445078346594983 13999.12332996118312 
	7601.224856771515078 3295.445542643695262 13999.70770359982089 
	7601.224856830455792 3295.445542609651966 13999.99989041605841 
	7723.680488403361778 3242.743227711579493 13999.99989041606204 
	7723.680487896994237 3242.74322791183522 14002.33738494596037 
	7723.665748974693088 3242.713981782575956 14007.01237361118547 
	7723.577318372463196 3242.538545740669178 14016.3605135260259 
	7723.267843937193902 3241.924544156734555 14032.71009628016691 
	7722.030868860138071 3239.470437227688763 14065.33208791279139 
	7718.504725393116132 3232.474655007263209 14111.49407853776211 
	7712.676721356606322 3220.912062832020638 14156.48751574134985 
	7706.677644640698418 3209.010042089852504 14191.44193376975818 
	7699.807177530822628 3195.379237357356487 14225.59355339509784 
	7689.624177133729972 3175.176434497324408 14266.57470467509484 
	7675.005678955602889 3146.173737468758191 14312.39944901995659 
	7658.172509262961285 3112.777177327913705 14354.29598058779629 
	7640.033668696905806 3076.790210131598087 14390.34990791597011 
	7621.048031221861493 3039.123221893627033 14420.70970636934362 
	7601.607734180401167 3000.554202565659125 14445.67389280831412 
	7582.851622516811403 2963.342583547275353 14464.49778212623096 
	7565.204459769131972 2928.331089205317312 14478.23158237203643 
	7543.533556864736966 2885.336609328845043 14491.14854345134881 
	7515.744337851652745 2830.203540992171838 14500.46604717575974 
	7482.02021961626906 2763.295811729096386 14500.46565156933866 
	7454.230960552923534 2708.16267110985973 14491.14878663901982 
	7432.560017504781172 2665.168117637183968 14478.23206059949916 
	7416.677595192740228 2633.657816104933318 14465.87155335545867 
	7403.825405883101666 2608.159426881908985 14453.39924653161506 
	7395.067699261765483 2590.784371754343283 14443.5657547988958 
	7390.136761212133024 2581.001526000344256 14437.63741467067121 
	7382.816396221876857 2566.478117993708565 14428.43889527410283 
	7372.130753189554525 2545.278093634435663 14413.50498011967284 
	7358.592062523170171 2518.417701126194061 14391.28066787317584 
	7347.963648250544793 2497.331214480373092 14370.93680300129381 
	7339.888825655475557 2481.310988551118953 14353.63597734770701 
	7332.110433295776602 2465.87886618306311 14335.67582203556049 
	7322.963928308703544 2447.732450488397262 14312.03589935439413 
	7312.971902436801429 2427.908543534144883 14281.92296702474596 
	7304.019657995449052 2410.147529914039296 14250.23332526851846 
	7295.283365465420502 2392.814966933517098 14213.46789459182219 
	7287.290522734404476 2376.957371922830589 14171.29387636238607 
	7280.674004827813405 2363.830374080018828 14123.58339674657145 
	7276.967439341068712 2356.47664451358014 14082.80118692795804 
	7275.108449309129355 2352.788472577640732 14049.80452555518423 
	7274.270428119609278 2351.125848885063988 14024.93324475621012 
	7273.990899984767566 2350.571289824856194 13999.99997074834391 
	7274.270399571152666 2351.125789525304754 13975.06667309994009 
	7275.108516752007745 2352.788613019660716 13950.19543646651073 
	7277.431847776936593 2357.398004285315892 13908.94946284949583 
	7283.268280901683283 2368.977354724811448 13852.07149590491827 
	7295.589162917921385 2393.421638973820336 13782.24727186609744 
	7312.450992889236659 2426.875067256005423 13717.28698248975525 
	7328.805145359135167 2459.32124364473384 13671.67480592458924 
	7341.854795032489164 2485.21143500302469 13641.91807236937166 
	7352.814633337491614 2506.955429334087057 13619.29867150785685 
	7367.439999511873793 2535.971781702163753 13593.35750788466976 
	7389.439139420599531 2579.617465143991467 13561.75278846746369 
	7411.38332046272717 2623.154103247740295 13538.24841765611563 
	7432.560103751698989 2665.168286067084864 13521.76849740832222 
	7451.522129214857159 2702.788415965051627 13510.46661260789915 
	7469.509153357643299 2738.474196119967928 13503.66930172142565 
	7486.271124672408405 2771.729488161352947 13500.52504118378056 
	7503.08598404877921 2805.089717894495607 13499.4752401288406 
	7524.104531389361 2846.789941887628174 13502.10040882472094 
	7546.242400392561649 2890.710883464100334 13510.46668418964509 
	7565.204431275958086 2928.331028053308728 13521.76842560001387 
	7586.381152995169941 2970.345092360955732 13538.24866212731467 
	7606.637381037447085 3010.532878587143387 13559.94466423493213 
	7625.633718402618797 3048.221078569077235 13586.49536590875141 
	7641.429025360971536 3079.558557048292641 13612.42306373673637 
	7658.172526040570119 3112.777203526381527 13645.70383830086939 
	7675.005787352227344 3146.173939934603823 13687.60013101366349 
	7689.624147546800486 3175.176376391382291 13733.42511070425826 
	7701.843961056078115 3199.420141229901219 13782.60225282521424 
	7711.511238734546168 3218.599768211016908 13834.51347337967854 
	7718.504720580671346 3232.474641699732274 13888.5056986109812 
	7722.030886183522853 3239.470471635054309 13934.66767927038018 
	7723.267845241919531 3241.924545043630133 13967.28968420990168 
	7723.577319330252976 3242.538548567625639 13983.63926664873907 
	7723.654695849108066 3242.69205249978404 13991.81888962752419 
	7723.674039611291846 3242.730434723425333 13995.90930368067711 
	7723.678876561503785 3242.740029166032855 13997.9545862974428 
	7723.680258313412196 3242.7427706594558 13999.12332996118676 
	7723.680488466658062 3242.743227686547471 13999.70770359982635 
	7723.680488403361778 3242.743227711579493 13999.99989041606204 
	7846.136113089528408 3190.04091614168965 13999.99989041606386 
	7846.136113070303509 3190.040916106515851 14002.33738494596219 
	7846.120388323020052 3190.012146413259416 14007.01237361118729 
	7846.026058063995151 3189.839561596419571 14016.36051352602772 
	7845.695919604485425 3189.235546658477688 14032.71009628016873 
	7844.376379797121444 3186.821342157124946 14065.33208791279321 
	7840.614849558101923 3179.939319209145651 14111.49407853776393 
	7834.397809469682215 3168.564742944249247 14156.48751574135167 
	7827.99826617204144 3156.856262334308667 14191.44193376976 
	7820.669177399161526 3143.447103305471501 14225.59355339509966 
	7809.806422322185426 3123.57281677271294 14266.57470467509665 
	7794.212089680520876 3095.041727463042662 14312.39944901995841 
	7776.255241779487733 3062.188225941701148 14354.29598058779811 
	7756.90556846571144 3026.786437985772864 14390.34990791597193 
	7736.652571953942243 2989.731947386146203 14420.70970636934544 
	7715.914566213836224 2951.79009328140728 14445.67389280831594 
	7695.906415562135408 2915.183567927179411 14464.49778212623278 
	7677.081240207923656 2880.741391291201126 14478.23158237203825 
	7653.96372805082683 2838.446038280290395 14491.14854345135063 
	7624.319473546339395 2784.209483736950006 14500.46604717576156 
	7588.344151762259571 2718.389730980178228 14500.46565156934048 
	7558.699857636600427 2664.153103946901865 14491.14878663902164 
	7535.582305271119367 2621.857677371025602 14478.23206059950098 
	7518.639671254904897 2590.859761947315292 14465.87155335546049 
	7504.929554496860874 2565.775997562866451 14453.39924653161688 
	7495.587238223563872 2548.683476445635279 14443.56575479889761 
	7490.327142981132965 2539.059707951820656 14437.63741467067302 
	7482.518116205914339 2524.772463637214059 14428.43889527410465 
	7471.119168685447221 2503.917169777940217 14413.50498011967466 
	7456.676722742240599 2477.493550083601349 14391.28066787317766 
	7445.338823086028242 2456.749948215726818 14370.93680300129563 
	7436.724978321313756 2440.990224477530319 14353.63597734770883 
	7428.427348990280734 2425.809042379332823 14335.67582203556231 
	7418.670282754237633 2407.957702754054026 14312.03589935439595 
	7408.011253740300162 2388.456149479718533 14281.92296702474778 
	7398.461413229159916 2370.983946031649793 14250.23332526852028 
	7389.141943615265518 2353.933224720499311 14213.46789459182401 
	7380.615544720136313 2338.333490253648051 14171.29387636238789 
	7373.557347904928065 2325.419949908352464 14123.58339674657327 
	7369.603354011547708 2318.185799175008469 14082.80118692795986 
	7367.620275691722782 2314.557597445675128 14049.80452555518605 
	7366.726308214569144 2312.922011844165354 14024.93324475621193 
	7366.428127996518015 2312.376467085812692 13999.99997074834573 
	7366.726276584199695 2312.921953973853306 13975.06667309994191 
	7367.620350506328577 2314.557734325037927 13950.19543646651255 
	7370.098757344263504 2319.092179528465749 13908.94946284949765 
	7376.324804401676374 2330.483234775589608 13852.07149590492008 
	7389.468144719206975 2354.530035949494959 13782.24727186609925 
	7407.455569067969009 2387.439479553351703 13717.28698248975707 
	7424.901412128501761 2419.358056509567177 13671.67480592459106 
	7438.822190385570138 2444.827243097498467 13641.91807236937348 
	7450.513625454314024 2466.217666516903591 13619.29867150785867 
	7466.1152972748514 2494.76218344984045 13593.35750788467158 
	7489.582953223966797 2537.698152769193712 13561.75278846746551 
	7512.991977956175106 2580.526851548158447 13538.24841765611745 
	7535.582396115798474 2621.857843578890879 13521.76849740832404 
	7555.810198914979992 2658.866240253265914 13510.46661260790097 
	7574.997926970714616 2693.971736297901771 13503.66930172142747 
	7592.878818360873993 2726.686269261696452 13500.52504118378238 
	7610.816132264286352 2759.504031764133742 13499.47524012884242 
	7633.237741713257492 2800.526174642967817 13502.10040882472276 
	7656.853397530149778 2843.732921656468079 13510.46668418964691 
	7677.081207814050686 2880.741332024348594 13521.76842560001569 
	7699.671561868177378 2922.072206768871183 13538.24866212731649 
	7721.279957128303067 2961.606508699306687 13559.94466423493395 
	7741.544360630431584 2998.68186931083028 13586.49536590875323 
	7758.394068978383075 3029.5097697286742 13612.42306373673819 
	7776.255256612510493 3062.188253079962124 13645.70383830087121 
	7794.212199868264179 3095.041929063264433 13687.6001310136653 
	7809.806391015064946 3123.572759498116739 13733.42511070426008 
	7822.841915174385576 3147.42230231095391 13782.60225282521606 
	7833.154522916542192 3166.290049920472939 13834.51347337968036 
	7840.614842798288009 3179.939306842752558 13888.50569861098302 
	7844.376398293452439 3186.821375997621089 13934.667679270382 
	7845.695920260586718 3189.235547858844711 13967.2896842099035 
	7846.026059486432132 3189.839564198817698 13983.63926664874089 
	7846.108597283073323 3189.990573754589605 13991.818889627526 
	7846.129234353647917 3190.028330939617263 13995.90930368067893 
	7846.13439335091698 3190.03776974119819 13997.95458629744462 
	7846.135867398161281 3190.040466629521688 13999.12332996118857 
	7846.136113091931293 3190.040916146086147 13999.70770359982816 
	7846.136113089528408 3190.04091614168965 13999.99989041606386 
	0 
	
	0 
	0 
	79 0 0.002232142857142857019 0.004464285714285714038 0.008928571428571428076 0.01785714285714285615 0.0357142857142857123 0.05357142857142856845 0.0625 0.07142857142857142461 0.08928571428571427382 0.1071428571428571369 0.125 0.1428571428571428492 0.1587301587301587213 0.1746031746031745935 0.1904761904761904656 0.2023809523809523836 0.2142857142857142738 0.238095238095238082 0.2619047619047618625 0.2857142857142856984 0.2976190476190476164 0.3095238095238095344 0.3214285714285713969 0.3273809523809523281 0.3303571428571427937 0.3333333333333333148 0.3452380952380952328 0.3571428571428570953 0.3690476190476190133 0.375 0.3809523809523809312 0.3928571428571428492 0.4047619047619047672 0.4166666666666666297 0.4285714285714285476 0.4444444444444444198 0.4603174603174602919 0.476190476190476164 0.4841269841269840724 0.4920634920634920362 0.5 0.5079365079365079083 0.5158730158730158166 0.5238095238095237249 0.5476190476190475609 0.5714285714285713969 0.5952380952380951218 0.6190476190476189577 0.6269841269841269771 0.6349206349206348854 0.650793650793650702 0.6666666666666666297 0.6904761904761904656 0.7023809523809523281 0.7142857142857141906 0.7321428571428569843 0.7410714285714283811 0.749999999999999889 0.7678571428571427937 0.7857142857142855874 0.7976190476190474499 0.8095238095238094234 0.8333333333333332593 0.8452380952380951218 0.8571428571428570953 0.875 0.8928571428571427937 0.9107142857142856984 0.9285714285714286031 0.9464285714285713969 0.9642857142857143016 0.9821428571428572063 0.9910714285714286031 0.9955357142857143016 0.9977678571428572063 0.9988839285714286031 0.9994419642857143016 0.9997209821428572063 
	0 
	0 
	0 
	F 1 F 0 F 1 F 0 } I I I I #
tcoedge-coedge $-1 -1 $-1 $13 $13 $17 $18 reversed $8 $19 -6.283185307179586232 1.890698542553109052e-30 #
tcoedge-coedge $-1 -1 $-1 $20 $21 $10 $15 reversed $11 $22 -6.283185307179586232 -2.363373178439430857e-30 #
tedge-edge $-1 -1 $-1 $23 2.363373178439430857e-30 $23 6.283185307179586232 $14 $24 forward @7 unknown 0.0007682366632458295088 #
pcurve $-1 -1 $-1 0 forward { exppc nurbs 2 periodic 5 
	2.363373178439430857e-30 2 1.570796326794896558 2 3.141592653589793116 2 4.712388980384689674 2 6.283185307179586232 2 
	-1.818989403545856476e-12 500 1 
	-500.000000000001819 499.999999999996362 0.7071067811865484609 
	-500 -3.637978807091712952e-12 1 
	-499.999999999996362 -500.000000000003638 0.7071067811865451302 
	3.637978807091712952e-12 -500 1 
	500.000000000003638 -499.9999999999972715 0.7071067811865475727 
	500 2.728484105318784714e-12 1 
	499.999999999998181 500.000000000001819 0.7071067811865451302 
	-1.818989403545856476e-12 500 1 
	0 
	plane 7606.331792625984235 2751.299570722003409 14000.00000000000364 0.8774825499499983028 -0.4796085638656264472 -1.039422516187233313e-14 -1.184550640062828445e-14 0 -1 forward_v I I I I 
	} 0 0 #
tcoedge-coedge $-1 -1 $-1 $21 $20 $13 $18 forward $11 $25 -1.890698542553109052e-30 6.283185307179586232 #
tedge-edge $-1 -1 $-1 $26 -1.890698542553109052e-30 $26 6.283185307179586232 $17 $27 forward @7 unknown 0.0007682368777474372825 #
pcurve $-1 -1 $-1 0 forward { exppc nurbs 2 periodic 5 
	-6.283185307179586232 2 -4.712388980384689674 2 -3.141592653589793116 2 -1.570796326794896558 2 1.890698542553109052e-30 2 
	1.818989403545856476e-12 500 1 
	500.000000000001819 499.9999999999972715 0.7071067811865457964 
	500 -2.728484105318784714e-12 1 
	499.999999999998181 -500.0000000000027285 0.7071067811865459074 
	-1.818989403545856476e-12 -499.9999999999990905 1 
	-500.000000000001819 -499.9999999999972715 0.7071067811865457964 
	-500 2.728484105318784714e-12 1 
	-499.999999999998181 500.000000000001819 0.7071067811865469066 
	1.818989403545856476e-12 500 1 
	0 
	plane 7283.983190837318034 2887.649777741577054 14000 -0.9209960049999983411 0.3895720200091928875 -1.039422516187235837e-14 1.128585260461838508e-14 0 -1 reverse_v I I I I 
	} 0 0 #
coedge $-1 -1 $-1 $17 $14 $21 $28 reversed $11 $29 #
coedge $-1 -1 $-1 $14 $17 $20 $28 forward $11 $30 #
pcurve $-1 -1 $-1 0 forward { exppc nubs 1 periodic 2 
	-6.283185307179586232 1 -2.363373178439430857e-30 1 
	1 0.9999999999999987788 
	0 0.9999999999999987788 
	4.71562656056076008e-12 
	spline forward { ref 0 } I I I I 
	} 0 0 #
tvertex-vertex $-1 -1 $-1 $15 $31 0.0001358518073258633716 #
ellipse-curve $-1 -1 $-1 7606.331792625984235 2751.299570722003409 14000.00000000000364 0.8774825499499983028 -0.4796085638656264472 -1.039422516187233313e-14 239.8042819328132396 438.7412749749992713 -1.009741958682895111e-28 1 I I #
pcurve $-1 -1 $-1 0 forward { exppc nubs 1 periodic 2 
	-1.890698542553109052e-30 1 6.283185307179586232 1 
	7.721283475341218058e-31 0 
	1 0 
	8.205248957457204676e-13 
	spline forward { ref 0 } I I I I 
	} 0 0 #
tvertex-vertex $-1 -1 $-1 $18 $32 0.0001358503033793409857 #
ellipse-curve $-1 -1 $-1 7283.983190837318034 2887.649777741577054 14000 0.9209960049999983411 -0.3895720200091928875 1.039422516187235837e-14 194.7860100045964487 460.4980024999991883 -3.336836561418298722e-28 1 I I #
edge $-1 -1 $-1 $26 1.191884156914412152e-09 $23 0.9999999811378361692 $21 $33 forward @7 tangent #
pcurve $-1 -1 $-1 -1 $33 0 0 #
pcurve $-1 -1 $-1 1 $33 1 0 #
point $-1 -1 $-1 7846.1360745587981 3190.040845697003533 14000.00000000000364 #
point $-1 -1 $-1 7478.769200841914426 3348.147780241575674 14000 #
intcurve-curve $-1 -1 $-1 forward { parcur full nubs 3 open 2 
	0 3 1 3 
	7478.769232144290072 3348.14785417954181 13999.99989041605659 
	7601.224856830455792 3295.445542609651966 13999.99989041605841 
	7723.680488403361778 3242.743227711579493 13999.99989041606204 
	7846.136113089528408 3190.04091614168965 13999.99989041606386 
	0 
	
	spline forward { ref 0 } I I I I 
	null_surface 
	nubs 1 open 2 
	0 1 1 1 
	0 0 
	0 1 
	
	nullbs 
	I I 
	0 
	0 
	0 
	surf1 } F 1.191884156914412152e-09 F 0.9999999811378361692 #
End-of-ACIS-data 