700 0 1 0           
4 LibG 19 ASM 222.0.0.1700 NT 24 Wed Oct  5 17:29:53 2016 
1000 9.999999999999999547e-07 1.000000000000000036e-10 
body $-1 -1 $-1 $1 $-1 $-1 #
lump $-1 -1 $-1 $-1 $2 $0 #
shell $-1 -1 $-1 $-1 $-1 $3 $-1 $1 #
face $-1 -1 $-1 $4 $5 $2 $-1 $6 forward single #
face $-1 -1 $-1 $7 $8 $2 $-1 $9 reversed single #
loop $-1 -1 $-1 $-1 $10 $3 #
plane-surface $-1 -1 $-1 1008.360865084529223 3095.642797989814426 14000.00000000000364 1 -3.897834435702129261e-15 -1.039422516187234575e-14 -1.039422516187234575e-14 0 -1 forward_v I I I I #
face $-1 -1 $-1 $-1 $11 $2 $-1 $12 forward single #
loop $-1 -1 $-1 $-1 $13 $4 #
plane-surface $-1 -1 $-1 658.3608650425451287 3095.64279798981579 13999.99999999999818 1 -3.897834435702129261e-15 1.559133774280851705e-14 1.559133774280851705e-14 0 -1 forward_v I I I I #
tcoedge-coedge $-1 -1 $-1 $10 $10 $14 $15 forward $5 $16 -3.376247349171001811e-31 6.283185307179586232 #
loop $-1 -1 $-1 $-1 $17 $7 #
spline-surface $-1 -1 $-1 forward { exactsur full nubs 3 3 periodic open none none 95 2 
	0 3 0.004464285714285714038 1 0.008928571428571428076 1 0.01785714285714285615 1 0.02678571428571428423 1 
	0.0357142857142857123 1 0.05357142857142856845 1 0.0625 1 0.07142857142857142461 1 0.08928571428571427382 1 
	0.09821428571428569843 1 0.1071428571428571369 1 0.125 1 0.1428571428571428492 1 0.1587301587301587213 1 
	0.1746031746031745935 1 0.1825396825396825295 1 0.1865079365079365115 1 0.1904761904761904656 1 0.2142857142857142738 1 
	0.226190476190476164 1 0.232142857142857123 1 0.238095238095238082 1 0.2499999999999999722 1 0.2529761904761904656 1 
	0.2559523809523809312 1 0.2619047619047618625 1 0.2738095238095237804 1 0.2857142857142856984 1 0.2976190476190476164 1 
	0.3095238095238095344 1 0.3214285714285713969 1 0.3333333333333333148 1 0.3452380952380952328 1 0.3571428571428570953 1 
	0.3690476190476190133 1 0.375 1 0.3809523809523809312 1 0.3928571428571428492 1 0.4047619047619047672 1 
	0.4166666666666666297 1 0.4285714285714285476 1 0.4444444444444444198 1 0.4603174603174602919 1 0.476190476190476164 1 
	0.4801587301587301182 1 0.4821428571428570953 1 0.4841269841269840724 1 0.4880952380952380265 1 0.4900793650793650036 1 
	0.4910714285714284921 1 0.4915674603174602364 1 0.491815476190476164 1 0.4920634920634920362 1 0.5158730158730158166 1 
	0.5238095238095237249 1 0.5357142857142855874 1 0.5476190476190475609 1 0.5595238095238095344 1 0.5714285714285713969 1 
	0.5833333333333332593 1 0.5952380952380951218 1 0.6071428571428569843 1 0.6190476190476189577 1 0.6349206349206348854 1 
	0.650793650793650702 1 0.6666666666666666297 1 0.6785714285714286031 1 0.6904761904761904656 1 0.7023809523809523281 1 
	0.7142857142857141906 1 0.7321428571428569843 1 0.749999999999999889 1 0.7678571428571427937 1 0.7857142857142855874 1 
	0.7916666666666665186 1 0.7976190476190474499 1 0.8095238095238094234 1 0.8333333333333332593 1 0.8452380952380951218 1 
	0.851190476190476053 1 0.8571428571428570953 1 0.875 1 0.8928571428571427937 1 0.9107142857142856984 1 
	0.9285714285714286031 1 0.9464285714285713969 1 0.9642857142857143016 1 0.9821428571428572063 1 0.9910714285714286031 1 
	0.9955357142857143016 1 0.9977678571428572063 1 0.9988839285714286031 1 0.9994419642857143016 1 1 3 
	0 3 1 3 
	658.3608650422210076 3595.642865086636448 13999.99992672689768 
	658.3608650422214623 3595.642864955628738 14004.67491585477364 
	658.3608650422257824 3595.511719972246283 14014.02489564632924 
	658.3608650422298751 3594.725082928429401 14032.71013792725716 
	658.3608650422456776 3592.759703545363664 14056.01155517805819 
	658.3608650422596611 3588.836907514264567 14083.79696665256051 
	658.3608650422718256 3581.538057224065597 14120.49278938771931 
	658.360865042319233 3571.168200622504173 14156.48760127351488 
	658.3608650423291238 3557.824826666615991 14191.44200232731964 
	658.3608650423393556 3542.543511587626199 14225.59367370714972 
	658.3608650423743711 3524.423961532684189 14258.37847537276684 
	658.360865042381306 3503.637088420513919 14289.48734345868797 
	658.3608650423906283 3481.139394643602827 14319.38229127644445 
	658.3608650424156394 3449.938889592101987 14354.29607757023405 
	658.3608650424371262 3409.594096108817666 14390.34998825771436 
	658.3608650424547477 3367.365976848399896 14420.70984088766818 
	658.3608650424616826 3331.333190530730917 14441.51349167028275 
	658.3608650424646385 3305.116808604361722 14454.13841010503711 
	658.3608650424657753 3289.880332151027233 14460.78590176352918 
	658.3608650424681628 3259.085677683962331 14473.31799352501912 
	658.360865042478963 3219.265223395828343 14485.60041599549913 
	658.3608650424816915 3176.362293322093592 14493.71680395444309 
	658.3608650424841926 3151.638056486273854 14496.97193944966239 
	658.360865042484761 3126.809326839065307 14499.30022132538943 
	658.3608650424898769 3104.992730440649211 14500.1166070105719 
	658.360865042490218 3086.292769374785621 14499.94170735812622 
	658.3608650424906727 3073.83049224366232 14499.59205452818424 
	658.360865042492037 3052.044380208146777 14498.36863882522812 
	658.3608650424962434 3021.052077782756896 14494.87669753090267 
	658.3608650425001088 2984.278458376085837 14487.91873134609159 
	658.3608650425040878 2948.127631753443438 14478.23216197371767 
	658.3608650425078395 2912.801768302456821 14465.87110891866905 
	658.3608650425110227 2878.498426661770281 14450.90472026794487 
	658.3608650425140922 2845.409438439222868 14433.4166920349453 
	658.3608650425172755 2813.719866500965054 14413.5048084096743 
	658.360865042518526 2783.606871945012699 14391.28051151669933 
	658.3608650425218229 2759.966969755647824 14370.93666391420447 
	658.3608650425226188 2742.006808815267959 14353.6358443475965 
	658.3608650425236419 2724.705978837926978 14335.67568973923153 
	658.3608650425263704 2704.362129030358574 14312.03579831332536 
	658.360865042527962 2682.137767221279319 14281.92283756993675 
	658.3608650425290989 2662.22592699890447 14250.23325772356657 
	658.3608650425306905 2642.794618699800139 14213.46778971122694 
	658.3608650425319411 2625.016561070538501 14171.29388574796212 
	658.3608650425338737 2610.300125401621699 14123.58335301272928 
	658.3608650425355791 2602.880160801737475 14086.87943043898122 
	658.3608650425361475 2599.755625114111808 14064.23670965741803 
	658.3608650425362612 2598.773581358110278 14055.98367992772728 
	658.3608650425364885 2597.894518047446581 14047.71904522917066 
	658.3608650425368296 2597.170095596874035 14039.43893764024324 
	658.3608650425369433 2596.671845018499425 14032.18367910682719 
	658.3608650425368296 2596.456655254025918 14028.55393236358032 
	658.360865042537057 2596.35754009549828 14026.73858221315459 
	658.3608650425369433 2596.30333778550721 14025.70111091561557 
	658.3608650425376254 2595.014348939722822 14000.2810095825098 
	658.360865042537398 2595.853178342660158 13966.69373961321617 
	658.3608650425383075 2601.539750302017183 13921.32341018405168 
	658.3608650425379665 2607.72411930665794 13888.63573724877642 
	658.3608650425383075 2617.410896264297662 13852.48493110189156 
	658.3608650425383075 2629.771840330778559 13817.15907954712566 
	658.3608650425380802 2644.738244982369451 13782.85574445015845 
	658.3608650425381938 2662.226268236602209 13749.76678945198546 
	658.3608650425372844 2682.138109970328514 13718.07720505249563 
	658.3608650425368296 2704.362517049457438 13687.96434793681874 
	658.3608650425353517 2731.487350877646804 13656.44424981365955 
	658.3608650425350106 2764.250924476770251 13624.48734507059453 
	658.3608650425328506 2803.286805243849358 13593.35754855063169 
	658.3608650425328506 2841.732934469541306 13568.52630957724614 
	658.3608650425301221 2878.498651460814926 13549.09553784341733 
	658.3608650425292126 2912.801852867407433 13534.12890287288428 
	658.3608650425264841 2948.127768391439531 13521.76814268297494 
	658.3608650425226188 2990.303575379648919 13510.46659436821028 
	658.3608650425217093 3039.542922783703034 13502.10032361305821 
	658.3608650425106816 3095.642744070406025 13498.95008511884043 
	658.3608650425082942 3151.742579497654333 13502.10034312435346 
	658.3608650425022688 3194.826976793827271 13509.42097872118211 
	658.3608650425003361 3225.082407827536827 13516.92474568973557 
	658.3608650424973803 3249.045316583457861 13523.82848976426976 
	658.3608650424934012 3290.259506349310413 13538.24827964184806 
	658.3608650424852158 3335.313568533220405 13559.9445578301038 
	658.3608650424778261 3372.28405997742766 13583.17646790060644 
	658.3608650424764619 3392.622244411010797 13597.60704431938757 
	658.3608650424741882 3417.352824476745809 13616.58325163884001 
	658.3608650424591815 3449.938993283025866 13645.70367173813065 
	658.360865042447017 3487.379654317087443 13687.6001859964781 
	658.3608650424222333 3519.894379377314181 13733.42492074495385 
	658.3608650423793733 3547.07357177628819 13782.60230038037662 
	658.3608650423378776 3568.575845219815164 13834.5134439417543 
	658.360865042294904 3584.130803987698528 13888.50572770715007 
	658.3608650422446544 3591.973805275605628 13934.66770495240235 
	658.3608650422281698 3594.725046737479261 13967.2897194988891 
	658.3608650422229402 3595.413399743610171 13983.63930237968452 
	658.360865042221576 3595.585493619115823 13991.81892584316483 
	658.3608650422211213 3595.628522694416006 13995.90933995536216 
	658.3608650422210076 3595.640815999493043 13998.24680582794099 
	658.3608650422208939 3595.642865103012355 13999.41555308591342 
	658.3608650422210076 3595.642865086636448 13999.99992672689768 
	775.0275317228823724 3595.642865086635993 13999.9999267268995 
	775.0275317228829408 3595.642864955628283 14004.67491585477546 
	775.0275317228871472 3595.511719972245828 14014.02489564633106 
	775.027531722891581 3594.725082928428947 14032.71013792725898 
	775.0275317229073835 3592.759703545363209 14056.01155517806001 
	775.0275317229218217 3588.836907514264112 14083.79696665256233 
	775.0275317229342136 3581.538057224065142 14120.49278938772113 
	775.0275317229818484 3571.168200622503718 14156.4876012735167 
	775.0275317229921939 3557.824826666615536 14191.44200232732146 
	775.0275317230026531 3542.543511587625744 14225.59367370715154 
	775.0275317230380097 3524.423961532683734 14258.37847537276866 
	775.0275317230451719 3503.637088420513464 14289.48734345868979 
	775.0275317230547216 3481.139394643602373 14319.38229127644627 
	775.0275317230799601 3449.938889592101532 14354.29607757023587 
	775.0275317231020153 3409.594096108817212 14390.34998825771618 
	775.0275317231196368 3367.365976848399441 14420.70984088767 
	775.0275317231270265 3331.333190530730462 14441.51349167028457 
	775.0275317231297549 3305.116808604361267 14454.13841010503893 
	775.0275317231313466 3289.880332151026778 14460.785901763531 
	775.0275317231332792 3259.085677683961876 14473.31799352502094 
	775.0275317231448753 3219.265223395827888 14485.60041599550095 
	775.027531723147149 3176.362293322093137 14493.71680395444491 
	775.0275317231501049 3151.638056486273399 14496.97193944966421 
	775.0275317231501049 3126.809326839064852 14499.30022132539125 
	775.0275317231561303 3104.992730440648756 14500.11660701057372 
	775.0275317231556755 3086.292769374785166 14499.94170735812804 
	775.0275317231566987 3073.830492243661865 14499.59205452818605 
	775.0275317231572672 3052.044380208146322 14498.36863882522994 
	775.0275317231623831 3021.052077782756442 14494.87669753090449 
	775.0275317231652252 2984.278458376085382 14487.91873134609341 
	775.0275317231698864 2948.127631753442984 14478.23216197371949 
	775.0275317231730696 2912.801768302456367 14465.87110891867087 
	775.0275317231763665 2878.498426661769827 14450.90472026794669 
	775.027531723179095 2845.409438439222413 14433.41669203494712 
	775.0275317231823919 2813.719866500964599 14413.50480840967612 
	775.0275317231830741 2783.606871945012244 14391.28051151670115 
	775.0275317231865984 2759.966969755647369 14370.93666391420629 
	775.0275317231868257 2742.006808815267505 14353.63584434759832 
	775.02753172318819 2724.705978837926523 14335.67568973923335 
	775.027531723190009 2704.362129030358119 14312.03579831332718 
	775.027531723192169 2682.137767221278864 14281.92283756993857 
	775.0275317231922827 2662.225926998904015 14250.23325772356839 
	775.0275317231941017 2642.794618699799685 14213.46778971122876 
	775.0275317231946701 2625.016561070538046 14171.29388574796394 
	775.0275317231963754 2610.300125401621244 14123.5833530127311 
	775.0275317231977397 2602.88016080173702 14086.87943043898304 
	775.027531723197967 2599.755625114111353 14064.23670965741985 
	775.0275317231983081 2598.773581358109823 14055.9836799277291 
	775.0275317231980807 2597.894518047446127 14047.71904522917248 
	775.0275317231985355 2597.17009559687358 14039.43893764024506 
	775.0275317231986492 2596.671845018498971 14032.183679106829 
	775.0275317231984218 2596.456655254025463 14028.55393236358213 
	775.0275317231986492 2596.357540095497825 14026.73858221315641 
	775.0275317231985355 2596.303337785506756 14025.70111091561739 
	775.0275317231991039 2595.014348939722368 14000.28100958251162 
	775.0275317231984218 2595.853178342659703 13966.69373961321799 
	775.0275317231989902 2601.539750302016728 13921.3234101840535 
	775.0275317231983081 2607.724119306657485 13888.63573724877824 
	775.0275317231984218 2617.410896264297207 13852.48493110189338 
	775.0275317231980807 2629.771840330778105 13817.15907954712748 
	775.027531723197626 2644.738244982368997 13782.85574445016027 
	775.0275317231973986 2662.226268236601754 13749.76678945198728 
	775.0275317231962617 2682.13810997032806 13718.07720505249745 
	775.0275317231954659 2704.362517049456983 13687.96434793682056 
	775.0275317231937606 2731.48735087764635 13656.44424981366137 
	775.0275317231930785 2764.250924476769796 13624.48734507059635 
	775.0275317231906911 2803.286805243848903 13593.35754855063351 
	775.0275317231904637 2841.732934469540851 13568.52630957724796 
	775.0275317231876215 2878.498651460814472 13549.09553784341915 
	775.0275317231865984 2912.801852867406978 13534.1289028728861 
	775.0275317231837562 2948.127768391439076 13521.76814268297676 
	775.0275317231796635 2990.303575379648464 13510.4665943682121 
	775.0275317231789813 3039.542922783702579 13502.10032361306003 
	775.027531723167499 3095.64274407040557 13498.95008511884225 
	775.0275317231654526 3151.742579497653878 13502.10034312435528 
	775.0275317231594272 3194.826976793826816 13509.42097872118393 
	775.0275317231574945 3225.082407827536372 13516.92474568973739 
	775.027531723154766 3249.045316583457407 13523.82848976427158 
	775.0275317231505596 3290.259506349309959 13538.24827964184988 
	775.0275317231430563 3335.31356853321995 13559.94455783010562 
	775.027531723135553 3372.284059977427205 13583.17646790060826 
	775.0275317231343024 3392.622244411010342 13597.60704431938939 
	775.027531723132256 3417.352824476745354 13616.58325163884183 
	775.0275317231174768 3449.938993283025411 13645.70367173813247 
	775.0275317231056533 3487.379654317086988 13687.60018599647992 
	775.0275317230813243 3519.894379377313726 13733.42492074495567 
	775.0275317230386918 3547.073571776287736 13782.60230038037844 
	775.0275317229979919 3568.57584521981471 13834.51344394175612 
	775.0275317229552456 3584.130803987698073 13888.50572770715189 
	775.0275317229054508 3591.973805275605173 13934.66770495240416 
	775.0275317228891936 3594.725046737478806 13967.28971949889092 
	775.0275317228843051 3595.413399743609716 13983.63930237968634 
	775.0275317228828271 3595.585493619115368 13991.81892584316665 
	775.0275317228824861 3595.628522694415551 13995.90933995536398 
	775.0275317228823724 3595.640815999492588 13998.24680582794281 
	775.0275317228822587 3595.6428651030119 13999.41555308591523 
	775.0275317228823724 3595.642865086635993 13999.9999267268995 
	891.6941984033703648 3595.642865086635538 13999.9999267268995 
	891.6941984033712743 3595.642864955627374 14004.67491585477183 
	891.6941984033783228 3595.511719972244009 14014.02489564632924 
	891.6941984033850304 3594.725082928426673 14032.71013792725898 
	891.6941984034095867 3592.759703545361845 14056.01155517805819 
	891.694198403431642 3588.836907514262748 14083.79696665256233 
	891.6941984034513098 3581.538057224063323 14120.49278938772113 
	891.6941984035249789 3571.168200622502809 14156.48760127351852 
	891.694198403540895 3557.824826666614626 14191.44200232732146 
	891.694198403557607 3542.543511587625289 14225.59367370715154 
	891.6941984036122903 3524.423961532682824 14258.37847537277412 
	891.6941984036235453 3503.637088420512555 14289.48734345869161 
	891.6941984036386657 3481.139394643601463 14319.38229127644991 
	891.6941984036780013 3449.938889592100622 14354.2960775702395 
	891.6941984037117663 3409.594096108815847 14390.34998825772163 
	891.6941984037397333 3367.365976848398986 14420.70984088767182 
	891.6941984037506472 3331.333190530729098 14441.51349167029184 
	891.6941984037559905 3305.116808604360358 14454.1384101050462 
	891.6941984037575821 3289.880332151025868 14460.78590176353646 
	891.6941984037621296 3259.085677683960512 14473.3179935250264 
	891.6941984037785005 3219.265223395826524 14485.60041599550459 
	891.6941984037832754 3176.362293322092683 14493.71680395445037 
	891.6941984037869133 3151.63805648627249 14496.97193944966966 
	891.6941984037886186 3126.809326839063942 14499.30022132539671 
	891.6941984037954398 3104.992730440647847 14500.11660701057917 
	891.6941984037968041 3086.292769374784712 14499.9417073581335 
	891.6941984037969178 3073.830492243660956 14499.59205452819151 
	891.6941984037997599 3052.044380208145412 14498.36863882523539 
	891.6941984038052169 3021.052077782755987 14494.87669753091177 
	891.6941984038119244 2984.278458376084018 14487.91873134609887 
	891.694198403817154 2948.127631753441619 14478.23216197372494 
	891.6941984038229521 2912.801768302455002 14465.87110891867269 
	891.6941984038271585 2878.498426661768008 14450.90472026795032 
	891.6941984038318196 2845.409438439221049 14433.41669203494712 
	891.6941984038357987 2813.71986650096278 14413.50480840967975 
	891.6941984038376177 2783.60687194501088 14391.28051151670297 
	891.6941984038418241 2759.966969755646005 14370.93666391420811 
	891.6941984038428473 2742.006808815266595 14353.63584434759832 
	891.6941984038436431 2724.705978837925159 14335.67568973923517 
	891.6941984038480769 2704.362129030356755 14312.03579831332718 
	891.694198403848759 2682.1377672212775 14281.9228375699422 
	891.6941984038506916 2662.225926998902651 14250.2332577235702 
	891.6941984038516011 2642.794618699798775 14213.4677897112324 
	891.6941984038529654 2625.016561070537136 14171.29388574796576 
	891.6941984038542159 2610.30012540161988 14123.58335301273473 
	891.6941984038560349 2602.880160801735656 14086.87943043898667 
	891.6941984038564897 2599.755625114110444 14064.23670965742531 
	891.6941984038562623 2598.773581358108913 14055.98367992773274 
	891.6941984038569444 2597.894518047445672 14047.71904522917612 
	891.6941984038567171 2597.170095596873125 14039.4389376402487 
	891.6941984038570581 2596.671845018498516 14032.18367910683264 
	891.6941984038566034 2596.456655254024554 14028.55393236358577 
	891.6941984038569444 2596.35754009549737 14026.73858221316004 
	891.6941984038568307 2596.303337785506301 14025.70111091562103 
	891.6941984038570581 2595.014348939721913 14000.28100958251525 
	891.6941984038561486 2595.853178342659248 13966.69373961322162 
	891.6941984038560349 2601.539750302015818 13921.32341018405532 
	891.6941984038551254 2607.72411930665703 13888.6357372487837 
	891.6941984038544433 2617.410896264296298 13852.48493110189884 
	891.6941984038537612 2629.77184033077765 13817.15907954713111 
	891.694198403852397 2644.738244982368087 13782.85574445016391 
	891.6941984038519422 2662.2262682366013 13749.7667894519891 
	891.6941984038492137 2682.13810997032806 13718.07720505249745 
	891.6941984038477358 2704.362517049457438 13687.96434793682056 
	891.6941984038446662 2731.48735087764635 13656.44424981366319 
	891.6941984038434157 2764.250924476770251 13624.48734507059817 
	891.6941984038389819 2803.286805243849358 13593.35754855063715 
	891.6941984038384135 2841.73293446954176 13568.5263095772516 
	891.6941984038332976 2878.498651460815381 13549.09553784342279 
	891.6941984038315923 2912.801852867407888 13534.12890287288792 
	891.6941984038270448 2948.127768391439986 13521.76814268297676 
	891.6941984038209057 2990.303575379649374 13510.4665943682121 
	891.6941984038188593 3039.542922783703034 13502.10032361306185 
	891.6941984038021474 3095.642744070406479 13498.95008511884225 
	891.694198403798282 3151.742579497654333 13502.1003431243571 
	891.6941984037894144 3194.826976793827271 13509.42097872118757 
	891.6941984037864586 3225.082407827536827 13516.92474568973921 
	891.6941984037821385 3249.045316583457407 13523.82848976427522 
	891.6941984037766815 3290.259506349310413 13538.2482796418517 
	891.6941984037640623 3335.313568533219041 13559.94455783010926 
	891.6941984037537168 3372.28405997742675 13583.17646790061372 
	891.6941984037517841 3392.622244411009888 13597.60704431939484 
	891.6941984037486009 3417.352824476745354 13616.58325163884547 
	891.6941984037264319 3449.938993283024956 13645.70367173813793 
	891.6941984037085831 3487.379654317086533 13687.60018599648174 
	891.6941984036719759 3519.894379377313271 13733.42492074495931 
	891.6941984036072881 3547.073571776286826 13782.60230038038026 
	891.6941984035449877 3568.5758452198138 13834.5134439417543 
	891.6941984034805273 3584.130803987697163 13888.50572770715371 
	891.6941984034045845 3591.973805275604718 13934.66770495240235 
	891.6941984033805966 3594.725046737477896 13967.28971949889274 
	891.6941984033726385 3595.413399743608807 13983.63930237968452 
	891.6941984033708195 3595.585493619114914 13991.81892584316847 
	891.6941984033701374 3595.628522694415551 13995.90933995536398 
	891.6941984033701374 3595.640815999491679 13998.24680582794645 
	891.6941984033702511 3595.6428651030119 13999.41555308591523 
	891.6941984033703648 3595.642865086635538 13999.9999267268995 
	1008.36086508403173 3595.642865086635084 13999.99992672690132 
	1008.360865084032753 3595.642864955626919 14004.67491585477364 
	1008.360865084039688 3595.511719972243554 14014.02489564633106 
	1008.360865084046736 3594.725082928426218 14032.7101379272608 
	1008.360865084071293 3592.75970354536139 14056.01155517806001 
	1008.360865084093803 3588.836907514262293 14083.79696665256415 
	1008.360865084113698 3581.538057224062868 14120.49278938772295 
	1008.360865084187594 3571.168200622502354 14156.48760127352034 
	1008.360865084203965 3557.824826666614172 14191.44200232732328 
	1008.360865084220904 3542.543511587624835 14225.59367370715336 
	1008.360865084275815 3524.42396153268237 14258.37847537277594 
	1008.360865084287411 3503.6370884205121 14289.48734345869343 
	1008.360865084302759 3481.139394643601008 14319.38229127645172 
	1008.360865084342322 3449.938889592100168 14354.29607757024132 
	1008.360865084376655 3409.594096108815393 14390.34998825772345 
	1008.360865084404622 3367.365976848398532 14420.70984088767364 
	1008.360865084415991 3331.333190530728643 14441.51349167029366 
	1008.360865084421107 3305.116808604359903 14454.13841010504802 
	1008.360865084423153 3289.880332151025414 14460.78590176353828 
	1008.360865084427246 3259.085677683960057 14473.31799352502821 
	1008.360865084444413 3219.265223395826069 14485.60041599550641 
	1008.360865084448733 3176.362293322092228 14493.71680395445219 
	1008.360865084452826 3151.638056486272035 14496.97193944967148 
	1008.360865084453962 3126.809326839063488 14499.30022132539852 
	1008.360865084461693 3104.992730440647392 14500.11660701058099 
	1008.360865084462262 3086.292769374784257 14499.94170735813532 
	1008.360865084462944 3073.830492243660501 14499.59205452819333 
	1008.36086508446499 3052.044380208144958 14498.36863882523721 
	1008.360865084471357 3021.052077782755532 14494.87669753091359 
	1008.360865084477041 2984.278458376083563 14487.91873134610069 
	1008.360865084482953 2948.127631753441165 14478.23216197372676 
	1008.360865084488182 2912.801768302454548 14465.87110891867451 
	1008.360865084492502 2878.498426661767553 14450.90472026795214 
	1008.360865084496822 2845.409438439220594 14433.41669203494894 
	1008.360865084500915 2813.719866500962326 14413.50480840968157 
	1008.360865084502166 2783.606871945010425 14391.28051151670479 
	1008.360865084506599 2759.96696975564555 14370.93666391420993 
	1008.360865084507054 2742.00680881526614 14353.63584434760014 
	1008.360865084508191 2724.705978837924704 14335.67568973923699 
	1008.360865084511715 2704.3621290303563 14312.035798313329 
	1008.360865084512966 2682.137767221277045 14281.92283756994402 
	1008.360865084513875 2662.225926998902196 14250.23325772357202 
	1008.360865084515012 2642.79461869979832 14213.46778971123422 
	1008.360865084515694 2625.016561070536682 14171.29388574796758 
	1008.360865084516718 2610.300125401619425 14123.58335301273655 
	1008.360865084518196 2602.880160801735201 14086.87943043898849 
	1008.360865084518309 2599.755625114109989 14064.23670965742713 
	1008.360865084518309 2598.773581358108459 14055.98367992773456 
	1008.360865084518537 2597.894518047445217 14047.71904522917794 
	1008.360865084518423 2597.17009559687267 14039.43893764025051 
	1008.360865084518764 2596.671845018498061 14032.18367910683446 
	1008.360865084518196 2596.456655254024099 14028.55393236358759 
	1008.360865084518537 2596.357540095496915 14026.73858221316186 
	1008.360865084518423 2596.303337785505846 14025.70111091562285 
	1008.360865084518537 2595.014348939721458 14000.28100958251707 
	1008.360865084517172 2595.853178342658794 13966.69373961322344 
	1008.360865084516718 2601.539750302015364 13921.32341018405714 
	1008.360865084515467 2607.724119306656576 13888.63573724878552 
	1008.360865084514558 2617.410896264295843 13852.48493110190066 
	1008.360865084513534 2629.771840330777195 13817.15907954713293 
	1008.360865084511943 2644.738244982367632 13782.85574445016573 
	1008.360865084511147 2662.226268236600845 13749.76678945199092 
	1008.360865084508191 2682.138109970327605 13718.07720505249927 
	1008.360865084506372 2704.362517049456983 13687.96434793682238 
	1008.360865084503075 2731.487350877645895 13656.44424981366501 
	1008.360865084501484 2764.250924476769796 13624.48734507059999 
	1008.360865084496822 2803.286805243848903 13593.35754855063897 
	1008.360865084496027 2841.732934469541306 13568.52630957725341 
	1008.360865084490797 2878.498651460814926 13549.09553784342461 
	1008.360865084488978 2912.801852867407433 13534.12890287288974 
	1008.360865084484317 2948.127768391439531 13521.76814268297858 
	1008.36086508447795 2990.303575379648919 13510.46659436821392 
	1008.360865084476131 3039.542922783702579 13502.10032361306367 
	1008.360865084458965 3095.642744070406025 13498.95008511884407 
	1008.36086508445544 3151.742579497653878 13502.10034312435891 
	1008.360865084446459 3194.826976793826816 13509.42097872118939 
	1008.360865084443617 3225.082407827536372 13516.92474568974103 
	1008.360865084439524 3249.045316583456952 13523.82848976427704 
	1008.36086508443384 3290.259506349309959 13538.24827964185351 
	1008.360865084421903 3335.313568533218586 13559.94455783011108 
	1008.36086508441133 3372.284059977426296 13583.17646790061553 
	1008.360865084409625 3392.622244411009433 13597.60704431939666 
	1008.360865084406669 3417.3528244767449 13616.58325163884729 
	1008.360865084384727 3449.938993283024502 13645.70367173813975 
	1008.360865084367219 3487.379654317086079 13687.60018599648356 
	1008.360865084331067 3519.894379377312816 13733.42492074496113 
	1008.360865084266607 3547.073571776286371 13782.60230038038208 
	1008.360865084205102 3568.575845219813345 13834.51344394175612 
	1008.360865084140869 3584.130803987696709 13888.50572770715553 
	1008.360865084065381 3591.973805275604263 13934.66770495240416 
	1008.36086508404162 3594.725046737477442 13967.28971949889456 
	1008.360865084034003 3595.413399743608352 13983.63930237968634 
	1008.360865084032071 3595.585493619114459 13991.81892584317029 
	1008.360865084031502 3595.628522694415096 13995.90933995536579 
	1008.360865084031502 3595.640815999491224 13998.24680582794826 
	1008.360865084031616 3595.642865103011445 13999.41555308591705 
	1008.36086508403173 3595.642865086635084 13999.99992672690132 
	0 
	
	0 
	0 
	94 0 0.004464285714285714038 0.008928571428571428076 0.01785714285714285615 0.02678571428571428423 0.0357142857142857123 0.05357142857142856845 0.0625 0.07142857142857142461 0.08928571428571427382 0.09821428571428569843 0.1071428571428571369 0.125 0.1428571428571428492 0.1587301587301587213 0.1746031746031745935 0.1825396825396825295 0.1865079365079365115 0.1904761904761904656 0.2142857142857142738 0.226190476190476164 0.232142857142857123 0.238095238095238082 0.2499999999999999722 0.2529761904761904656 0.2559523809523809312 0.2619047619047618625 0.2738095238095237804 0.2857142857142856984 0.2976190476190476164 0.3095238095238095344 0.3214285714285713969 0.3333333333333333148 0.3452380952380952328 0.3571428571428570953 0.3690476190476190133 0.375 0.3809523809523809312 0.3928571428571428492 0.4047619047619047672 0.4166666666666666297 0.4285714285714285476 0.4444444444444444198 0.4603174603174602919 0.476190476190476164 0.4801587301587301182 0.4821428571428570953 0.4841269841269840724 0.4880952380952380265 0.4900793650793650036 0.4910714285714284921 0.4915674603174602364 0.491815476190476164 0.4920634920634920362 0.5158730158730158166 0.5238095238095237249 0.5357142857142855874 0.5476190476190475609 0.5595238095238095344 0.5714285714285713969 0.5833333333333332593 0.5952380952380951218 0.6071428571428569843 0.6190476190476189577 0.6349206349206348854 0.650793650793650702 0.6666666666666666297 0.6785714285714286031 0.6904761904761904656 0.7023809523809523281 0.7142857142857141906 0.7321428571428569843 0.749999999999999889 0.7678571428571427937 0.7857142857142855874 0.7916666666666665186 0.7976190476190474499 0.8095238095238094234 0.8333333333333332593 0.8452380952380951218 0.851190476190476053 0.8571428571428570953 0.875 0.8928571428571427937 0.9107142857142856984 0.9285714285714286031 0.9464285714285713969 0.9642857142857143016 0.9821428571428572063 0.9910714285714286031 0.9955357142857143016 0.9977678571428572063 0.9988839285714286031 0.9994419642857143016 
	0 
	0 
	0 
	F 1 F 0 F 1 F 0 } I I I I #
tcoedge-coedge $-1 -1 $-1 $13 $13 $17 $18 reversed $8 $19 -6.283185307179586232 -5.064371023756707875e-31 #
tcoedge-coedge $-1 -1 $-1 $20 $21 $10 $15 reversed $11 $22 -6.283185307179586232 3.376247349171001811e-31 #
tedge-edge $-1 -1 $-1 $23 -3.376247349171001811e-31 $23 6.283185307179586232 $14 $24 forward @7 unknown 0.000608984284670664993 #
pcurve $-1 -1 $-1 0 forward { exppc nurbs 2 periodic 5 
	-3.376247349171001811e-31 2 1.570796326794896558 2 3.141592653589793116 2 4.712388980384689674 2 6.283185307179586232 2 
	0 500 1 
	-500 500 0.7071067811865463515 
	-500 0 1 
	-500 -500 0.7071067811865463515 
	0 -500 1 
	500 -500 0.7071067811865463515 
	500 0 1 
	500 500 0.707106781186543798 
	0 500 1 
	0 
	plane 1008.360865084529223 3095.642797989814426 14000.00000000000364 1 -3.897834435702129261e-15 -1.039422516187234575e-14 -1.039422516187234575e-14 0 -1 forward_v I I I I 
	} 0 0 #
tcoedge-coedge $-1 -1 $-1 $21 $20 $13 $18 forward $11 $25 5.064371023756707875e-31 6.283185307179586232 #
tedge-edge $-1 -1 $-1 $26 5.064371023756707875e-31 $26 6.283185307179586232 $17 $27 forward @7 unknown 0.0006089842879487910275 #
pcurve $-1 -1 $-1 0 forward { exppc nurbs 2 periodic 5 
	-6.283185307179586232 2 -4.712388980384689674 2 -3.141592653589793116 2 -1.570796326794896558 2 -5.064371023756707875e-31 2 
	0 500 1 
	500 500 0.7071067811865463515 
	500 0 1 
	500 -500 0.7071067811865463515 
	0 -500 1 
	-500 -500 0.7071067811865463515 
	-500 0 1 
	-500 500 0.7071067811865463515 
	0 500 1 
	0 
	plane 658.3608650425451287 3095.64279798981579 13999.99999999999818 -1 3.897834435702129261e-15 -1.559133774280851705e-14 1.559133774280851705e-14 0 -1 reverse_v I I I I 
	} 0 0 #
coedge $-1 -1 $-1 $17 $14 $21 $28 reversed $11 $29 #
coedge $-1 -1 $-1 $14 $17 $20 $28 forward $11 $30 #
pcurve $-1 -1 $-1 0 forward { exppc nubs 1 periodic 2 
	-6.283185307179586232 1 3.376247349171001811e-31 1 
	1 1 
	0 1 
	2.726396620975368931e-13 
	spline forward { ref 0 } I I I I 
	} 0 0 #
tvertex-vertex $-1 -1 $-1 $15 $31 9.935256842545794149e-05 #
ellipse-curve $-1 -1 $-1 1008.360865084529223 3095.642797989814426 14000.00000000000364 1 -3.897834435702129261e-15 -1.039422516187234575e-14 1.94891721785106465e-12 500 0 1 I I #
pcurve $-1 -1 $-1 0 forward { exppc nubs 1 periodic 2 
	5.064371023756707875e-31 1 6.283185307179586232 1 
	0 0 
	1 0 
	0 
	spline forward { ref 0 } I I I I 
	} 0 0 #
tvertex-vertex $-1 -1 $-1 $18 $32 9.935256708322221138e-05 #
ellipse-curve $-1 -1 $-1 658.3608650425451287 3095.64279798981579 13999.99999999999818 1 -3.897834435702129261e-15 1.559133774280851705e-14 1.94891721785106465e-12 500 0 1 I I #
edge $-1 -1 $-1 $26 0 $23 1 $21 $33 forward @7 tangent #
pcurve $-1 -1 $-1 -1 $33 0 0 #
pcurve $-1 -1 $-1 1 $33 1 0 #
point $-1 -1 $-1 1008.360865084531156 3595.642797989814426 14000.00000000000364 #
point $-1 -1 $-1 658.3608650425470614 3595.64279798981579 13999.99999999999818 #
intcurve-curve $-1 -1 $-1 forward { parcur full nubs 3 open 2 
	0 3 1 3 
	658.3608650422210076 3595.642865086636448 13999.99992672689768 
	775.0275317228823724 3595.642865086635993 13999.9999267268995 
	891.6941984033703648 3595.642865086635538 13999.9999267268995 
	1008.36086508403173 3595.642865086635084 13999.99992672690132 
	0 
	
	spline forward { ref 0 } I I I I 
	null_surface 
	nubs 1 open 2 
	0 1 1 1 
	0 0 
	0 1 
	
	nullbs 
	I I 
	0 
	0 
	0 
	surf1 } I I #
End-of-ACIS-data 