700 0 1 0           
4 LibG 19 ASM 222.0.0.1700 NT 24 Wed Oct  5 17:29:53 2016 
1000 9.999999999999999547e-07 1.000000000000000036e-10 
body $-1 -1 $-1 $1 $-1 $-1 #
lump $-1 -1 $-1 $-1 $2 $0 #
shell $-1 -1 $-1 $-1 $-1 $3 $-1 $1 #
face $-1 -1 $-1 $4 $5 $2 $-1 $6 forward single #
face $-1 -1 $-1 $7 $8 $2 $-1 $9 reversed single #
loop $-1 -1 $-1 $-1 $10 $3 #
plane-surface $-1 -1 $-1 3458.360865378417657 3095.642797989804876 14000 1 -3.897834435702129261e-15 5.197112580936174452e-15 5.197112580936174452e-15 0 -1 forward_v I I I I #
face $-1 -1 $-1 $-1 $11 $2 $-1 $12 forward single #
loop $-1 -1 $-1 $-1 $13 $4 #
plane-surface $-1 -1 $-1 3108.360865336433562 3095.64279798980624 14000.00000000000364 1 -3.897834435702129261e-15 -1.039422516187234575e-14 -1.039422516187234575e-14 0 -1 forward_v I I I I #
tcoedge-coedge $-1 -1 $-1 $10 $10 $14 $15 forward $5 $16 1.350498956678270051e-30 6.283185307179586232 #
loop $-1 -1 $-1 $-1 $17 $7 #
spline-surface $-1 -1 $-1 forward { exactsur full nubs 3 3 periodic open none none 78 2 
	0 3 0.002232142857142857019 1 0.004464285714285714038 1 0.008928571428571428076 1 0.01785714285714285615 1 
	0.0357142857142857123 1 0.04464285714285713691 1 0.05357142857142856845 1 0.0625 1 0.0669642857142857123 1 
	0.07142857142857142461 1 0.08928571428571427382 1 0.1071428571428571369 1 0.125 1 0.1428571428571428492 1 
	0.1587301587301587213 1 0.1746031746031745935 1 0.1825396825396825295 1 0.1865079365079365115 1 0.1904761904761904656 1 
	0.2142857142857142738 1 0.238095238095238082 1 0.2619047619047618625 1 0.2857142857142856984 1 0.3095238095238095344 1 
	0.3214285714285713969 1 0.3244047619047618625 1 0.3273809523809523281 1 0.3333333333333333148 1 0.3571428571428570953 1 
	0.3690476190476190133 1 0.375 1 0.3764880952380952328 1 0.3779761904761904656 1 0.3809523809523809312 1 
	0.3928571428571428492 1 0.4047619047619047672 1 0.4285714285714285476 1 0.4444444444444444198 1 0.4603174603174602919 1 
	0.476190476190476164 1 0.4841269841269840724 1 0.4920634920634920362 1 0.5079365079365079083 1 0.5238095238095237249 1 
	0.5476190476190475609 1 0.5714285714285713969 1 0.5952380952380951218 1 0.6190476190476189577 1 0.6349206349206348854 1 
	0.650793650793650702 1 0.6666666666666666297 1 0.6904761904761904656 1 0.7023809523809523281 1 0.7142857142857141906 1 
	0.7321428571428569843 1 0.749999999999999889 1 0.7678571428571427937 1 0.7857142857142855874 1 0.7976190476190474499 1 
	0.8095238095238094234 1 0.8154761904761904656 1 0.8333333333333332593 1 0.8571428571428570953 1 0.875 1 
	0.8928571428571427937 1 0.9107142857142856984 1 0.9285714285714286031 1 0.9464285714285713969 1 0.9642857142857143016 1 
	0.9821428571428572063 1 0.9910714285714286031 1 0.9955357142857143016 1 0.9977678571428572063 1 0.9988839285714286031 1 
	0.9994419642857143016 1 0.9997209821428572063 1 1 3 
	0 3 1 3 
	3108.360865338243457 3595.642864230260329 14000.00001985561175 
	3108.360865338243002 3595.642864210436073 14002.33751440449123 
	3108.360865338236181 3595.610076793459484 14007.01250293771955 
	3108.360865338229814 3595.413398640107516 14016.36064437332425 
	3108.360865338196163 3594.725032529276177 14032.7102224307564 
	3108.360865338122949 3591.973847683356325 14065.33225515293088 
	3108.36086533780599 3585.699208938848642 14102.2617533261764 
	3108.360865337745508 3576.353524487572031 14138.49040682007944 
	3108.360865337671839 3567.832189585612014 14165.22622582759141 
	3108.36086533761636 3559.49285499028565 14187.07283632071267 
	3108.360865337599535 3552.094325589345317 14204.24894659964593 
	3108.360865337575433 3540.278562961878379 14229.69185705478776 
	3108.360865337385803 3519.894222995394102 14266.57486966172291 
	3108.360865337246196 3487.379613800443622 14312.39973376857415 
	3108.360865337081123 3449.938881617371862 14354.29617885278822 
	3108.360865336951065 3409.594132391895982 14390.35009626013562 
	3108.360865336833285 3367.366082533545978 14420.71008945431277 
	3108.360865336767347 3331.333075563196871 14441.51333253176381 
	3108.36086533675234 3305.116730934753377 14454.13831495200429 
	3108.360865336745519 3289.880256074626232 14460.78582659695894 
	3108.360865336727329 3259.08560067204462 14473.31780842220542 
	3108.360865336645475 3207.319036203435644 14489.28572574628743 
	3108.360865336603638 3133.14742226187991 14500.4657132487373 
	3108.360865336514962 3058.138059358326245 14500.46546905470677 
	3108.360865336454481 2983.966281903566141 14489.28626634148895 
	3108.36086533638354 2924.235783114400419 14470.86115782134948 
	3108.36086533636535 2887.074261717813897 14454.64644843825045 
	3108.360865336361258 2870.302001483767981 14446.37541261819388 
	3108.360865336360803 2859.22565078670732 14440.6530998088092 
	3108.360865336343977 2829.21434409982794 14424.06758166552208 
	3108.360865336298048 2793.062616187922231 14399.41858522968323 
	3108.360865336275765 2759.967467747676892 14370.93618335874453 
	3108.360865336265306 2745.374714549205237 14356.8794536455971 
	3108.360865336264851 2738.794195868427323 14350.23709911440164 
	3108.360865336264396 2734.448783466069926 14345.76804315800655 
	3108.360865336265761 2722.671924975399634 14333.31142642608756 
	3108.360865336281222 2704.362933687129498 14312.03525208027168 
	3108.360865336291681 2674.729075038132578 14271.88547077565272 
	3108.360865336319875 2647.64201430950061 14224.97038871895165 
	3108.360865336336701 2625.016867085599188 14171.2936775147864 
	3108.360865336344432 2610.299818994625639 14123.58349067261042 
	3108.360865336358984 2602.055847536773854 14082.80112885383278 
	3108.360865336364895 2597.921108976915548 14049.80450860037854 
	3108.360865336368079 2595.435617075477239 14016.64278111439125 
	3108.360865336381266 2595.435853636035972 13975.03568884182096 
	3108.360865336391726 2601.2346607089994 13917.07491485806167 
	3108.360865336416282 2616.070181307579332 13852.07138476785622 
	3108.3608653364372 2643.474799762589555 13782.24727513717698 
	3108.360865336460847 2680.978918604533192 13717.28675116043269 
	3108.360865336484494 2722.550938284445692 13665.15894769063743 
	3108.360865336498136 2764.250819428879822 13624.48701577410793 
	3108.360865336508141 2803.28662123767208 13593.35742466545344 
	3108.3608653365186 2852.217636080826651 13561.75288831265607 
	3108.360865336542702 2901.02616768475491 13538.24843199630413 
	3108.360865336552706 2948.127977241709686 13521.76850923431084 
	3108.360865336566803 2990.303624244438197 13510.46668980721552 
	3108.360865336592269 3039.543073505876237 13502.10048838570219 
	3108.360865336624101 3095.642847962643373 13498.95005103748917 
	3108.360865336655024 3151.742714624599557 13502.10037477529295 
	3108.360865336694133 3200.982023921988457 13510.46680123757687 
	3108.360865336712322 3243.157911843944021 13521.76810034676237 
	3108.360865336725965 3272.596139423724708 13532.06890287315946 
	3108.360865336738243 3307.155133582451072 13546.38373878427956 
	3108.360865336784627 3351.741947825506486 13568.89012800246019 
	3108.360865336889219 3403.387952676582699 13604.10231914113137 
	3108.360865336976985 3449.93875850673885 13645.70419790905544 
	3108.360865337155701 3487.379841784732889 13687.60012231797555 
	3108.360865337308496 3519.894211335074033 13733.42522653235756 
	3108.360865337489486 3547.073577484077305 13782.60240654969857 
	3108.360865337692303 3568.575793428272846 13834.51360428753469 
	3108.360865337890118 3584.130797506209092 13888.50583248944713 
	3108.360865338132953 3591.973796410472005 13934.66780772433231 
	3108.360865338211624 3594.725045189249613 13967.28981350056893 
	3108.360865338235726 3595.413398466527269 13983.63939593293071 
	3108.360865338241638 3595.585492720690127 13991.81901902204481 
	3108.360865338243002 3595.628521798210841 13995.90943309748582 
	3108.360865338243457 3595.639278502756497 13997.95471572810857 
	3108.360865338243912 3595.642351934923681 13999.12345939096122 
	3108.360865338243457 3595.642864232738248 13999.70783303700046 
	3108.360865338243457 3595.642864230260329 14000.00001985561175 
	3225.027532018904822 3595.642864230259875 14000.00001985560993 
	3225.027532018904367 3595.642864210435619 14002.33751440448941 
	3225.027532018897091 3595.610076793459029 14007.01250293771773 
	3225.027532018891179 3595.413398640107062 14016.36064437332243 
	3225.027532018856618 3594.725032529275722 14032.71022243075458 
	3225.027532018783404 3591.973847683355871 14065.33225515292906 
	3225.027532018465536 3585.699208938848187 14102.26175332617458 
	3225.027532018405054 3576.353524487571576 14138.49040682007762 
	3225.027532018330476 3567.832189585611559 14165.22622582758959 
	3225.027532018274997 3559.492854990285196 14187.07283632071085 
	3225.027532018257716 3552.094325589344862 14204.24894659964411 
	3225.02753201823316 3540.278562961877924 14229.69185705478594 
	3225.027532018043075 3519.894222995393648 14266.5748696617211 
	3225.027532017902558 3487.379613800443167 14312.39973376857233 
	3225.02753201773703 3449.938881617371408 14354.2961788527864 
	3225.027532017606518 3409.594132391895528 14390.3500962601338 
	3225.027532017488284 3367.366082533545523 14420.71008945431095 
	3225.02753201742189 3331.333075563196417 14441.51333253176199 
	3225.027532017406429 3305.116730934752923 14454.13831495200247 
	3225.027532017399608 3289.880256074625777 14460.78582659695712 
	3225.027532017381418 3259.085600672044166 14473.3178084222036 
	3225.027532017299109 3207.319036203435189 14489.28572574628561 
	3225.027532017257272 3133.147422261879456 14500.46571324873548 
	3225.027532017168596 3058.138059358325791 14500.46546905470495 
	3225.027532017108115 2983.966281903565687 14489.28626634148713 
	3225.027532017037629 2924.235783114399965 14470.86115782134766 
	3225.027532017019439 2887.074261717813442 14454.64644843824863 
	3225.027532017015801 2870.302001483767526 14446.37541261819206 
	3225.027532017015346 2859.225650786706865 14440.65309980880738 
	3225.027532016998521 2829.214344099827485 14424.06758166552027 
	3225.027532016953046 2793.062616187921776 14399.41858522968141 
	3225.027532016931218 2759.967467747676437 14370.93618335874271 
	3225.027532016921214 2745.374714549204782 14356.87945364559528 
	3225.027532016920759 2738.794195868426868 14350.23709911439983 
	3225.027532016920304 2734.448783466069472 14345.76804315800473 
	3225.027532016922123 2722.671924975399179 14333.31142642608575 
	3225.027532016937585 2704.362933687129043 14312.03525208026986 
	3225.027532016948953 2674.729075038132123 14271.8854707756509 
	3225.027532016977602 2647.642014309500155 14224.97038871894983 
	3225.027532016995337 2625.016867085598733 14171.29367751478458 
	3225.027532017003978 2610.299818994625184 14123.5834906726086 
	3225.027532017019439 2602.055847536773399 14082.80112885383096 
	3225.027532017025351 2597.921108976915093 14049.80450860037672 
	3225.027532017029444 2595.435617075476785 14016.64278111438944 
	3225.027532017043086 2595.435853636035517 13975.03568884181914 
	3225.027532017054455 2601.234660708998945 13917.07491485805986 
	3225.02753201707992 2616.070181307578878 13852.0713847678544 
	3225.027532017101748 2643.4747997625891 13782.24727513717517 
	3225.027532017126759 2680.978918604532737 13717.28675116043087 
	3225.027532017150861 2722.550938284445238 13665.15894769063561 
	3225.027532017165413 2764.250819428879367 13624.48701577410611 
	3225.027532017175872 2803.286621237671625 13593.35742466545162 
	3225.027532017186786 2852.217636080826196 13561.75288831265425 
	3225.027532017211342 2901.026167684754455 13538.24843199630232 
	3225.027532017221347 2948.127977241709232 13521.76850923430902 
	3225.027532017235899 2990.303624244437742 13510.4666898072137 
	3225.027532017261365 3039.543073505875782 13502.10048838570037 
	3225.027532017293197 3095.642847962642918 13498.95005103748736 
	3225.02753201732412 3151.742714624599103 13502.10037477529113 
	3225.027532017363228 3200.982023921988002 13510.46680123757505 
	3225.027532017381418 3243.157911843943566 13521.76810034676055 
	3225.027532017394606 3272.596139423724253 13532.06890287315764 
	3225.027532017406884 3307.155133582450617 13546.38373878427774 
	3225.027532017452813 3351.741947825506031 13568.89012800245837 
	3225.02753201755695 3403.387952676582245 13604.10231914112956 
	3225.027532017643807 3449.938758506738395 13645.70419790905362 
	3225.027532017822068 3487.379841784732434 13687.60012231797373 
	3225.027532017973954 3519.894211335073578 13733.42522653235574 
	3225.027532018154034 3547.07357748407685 13782.60240654969675 
	3225.027532018356396 3568.575793428272391 13834.51360428753287 
	3225.027532018553302 3584.130797506208637 13888.50583248944531 
	3225.027532018795682 3591.97379641047155 13934.66780772433049 
	3225.027532018873444 3594.725045189249158 13967.28981350056711 
	3225.027532018897546 3595.413398466526814 13983.63939593292889 
	3225.027532018903003 3595.585492720689672 13991.81901902204299 
	3225.027532018904367 3595.628521798210386 13995.909433097484 
	3225.027532018904822 3595.639278502756042 13997.95471572810675 
	3225.027532018905276 3595.642351934923227 13999.1234593909594 
	3225.027532018904822 3595.642864232737793 13999.70783303699864 
	3225.027532018904822 3595.642864230259875 14000.00001985560993 
	3341.694198699769458 3595.64286423025942 14000.00001985560993 
	3341.694198699768549 3595.642864210435164 14002.33751440449305 
	3341.694198699761273 3595.61007679345812 14007.01250293771955 
	3341.694198699754452 3595.413398640106607 14016.36064437332243 
	3341.694198699715798 3594.725032529274813 14032.71022243075458 
	3341.694198699634399 3591.973847683355416 14065.33225515293088 
	3341.694198699279696 3585.699208938847278 14102.26175332617458 
	3341.694198699211938 3576.353524487571576 14138.49040682007399 
	3341.694198699129174 3567.832189585611104 14165.22622582758595 
	3341.694198699067329 3559.49285499028565 14187.07283632070721 
	3341.694198699048229 3552.094325589344862 14204.24894659964048 
	3341.69419869902049 3540.278562961878379 14229.69185705478412 
	3341.694198698808577 3519.894222995394557 14266.57486966171928 
	3341.694198698652599 3487.379613800444076 14312.39973376856869 
	3341.694198698467517 3449.938881617372317 14354.29617885278276 
	3341.694198698321998 3409.594132391895982 14390.35009626012652 
	3341.694198698190576 3367.366082533545523 14420.71008945430731 
	3341.694198698116907 3331.333075563195962 14441.51333253175653 
	3341.694198698100081 3305.116730934752013 14454.1383149519952 
	3341.694198698092805 3289.880256074624867 14460.78582659695167 
	3341.694198698072796 3259.085600672043711 14473.31780842219814 
	3341.694198697981392 3207.319036203433825 14489.28572574628015 
	3341.694198697935008 3133.147422261878091 14500.46571324873003 
	3341.694198697836327 3058.138059358324881 14500.4654690546995 
	3341.694198697769025 2983.966281903564777 14489.28626634147804 
	3341.694198697691718 2924.235783114399055 14470.8611578213422 
	3341.694198697670799 2887.074261717812533 14454.64644843823953 
	3341.694198697666707 2870.302001483766617 14446.37541261818478 
	3341.694198697666252 2859.225650786705501 14440.65309980880193 
	3341.694198697647153 2829.214344099825666 14424.06758166551663 
	3341.694198697597585 2793.062616187920867 14399.41858522967595 
	3341.694198697573029 2759.967467747674164 14370.93618335873907 
	3341.69419869756257 2745.374714549203418 14356.87945364559164 
	3341.69419869756166 2738.794195868425049 14350.23709911439619 
	3341.694198697561205 2734.448783466068107 14345.76804315800109 
	3341.694198697563024 2722.671924975398269 14333.31142642608393 
	3341.694198697580759 2704.362933687128134 14312.03525208026622 
	3341.694198697593492 2674.729075038130759 14271.88547077564726 
	3341.694198697625779 2647.642014309499245 14224.97038871894438 
	3341.694198697645334 2625.016867085597823 14171.29367751478276 
	3341.694198697654883 2610.299818994624729 14123.58349067260315 
	3341.694198697671709 2602.055847536772035 14082.8011288538255 
	3341.694198697679894 2597.921108976914184 14049.80450860037126 
	3341.694198697683532 2595.435617075475875 14016.64278111438398 
	3341.694198697698539 2595.435853636034153 13975.0356888418155 
	3341.694198697712181 2601.234660708998035 13917.0749148580544 
	3341.694198697741285 2616.070181307577514 13852.07138476785076 
	3341.694198697765387 2643.474799762587736 13782.24727513716789 
	3341.694198697793126 2680.978918604531827 13717.28675116042905 
	3341.694198697820866 2722.550938284444328 13665.15894769063379 
	3341.694198697837237 2764.250819428878003 13624.48701577410611 
	3341.694198697848151 2803.286621237670715 13593.3574246654498 
	3341.694198697860884 2852.217636080824832 13561.75288831265425 
	3341.694198697888623 2901.026167684753091 13538.2484319963005 
	3341.694198697900447 2948.127977241707868 13521.7685092343072 
	3341.694198697915454 2990.303624244436833 13510.46668980721188 
	3341.694198697944103 3039.543073505874872 13502.10048838569855 
	3341.694198697980482 3095.642847962642008 13498.95005103748554 
	3341.694198698014134 3151.742714624598193 13502.10037477528931 
	3341.694198698058244 3200.982023921987093 13510.46680123757324 
	3341.694198698077344 3243.157911843943111 13521.76810034675873 
	3341.69419869809235 3272.596139423723343 13532.06890287315582 
	3341.694198698105083 3307.155133582449707 13546.38373878427592 
	3341.694198698156015 3351.741947825505576 13568.89012800245655 
	3341.694198698271521 3403.387952676581335 13604.10231914112774 
	3341.694198698369291 3449.938758506738395 13645.7041979090518 
	3341.694198698567106 3487.379841784732434 13687.60012231797373 
	3341.694198698735818 3519.894211335073578 13733.42522653235574 
	3341.694198698935907 3547.07357748407685 13782.60240654969675 
	3341.694198699159642 3568.575793428271936 13834.51360428753469 
	3341.69419869937883 3584.130797506209092 13888.50583248944713 
	3341.694198699648041 3591.973796410472005 13934.66780772433231 
	3341.694198699734443 3594.725045189249158 13967.28981350056711 
	3341.694198699760818 3595.413398466527269 13983.63939593293071 
	3341.694198699767185 3595.585492720689217 13991.81901902204118 
	3341.694198699769004 3595.628521798210386 13995.909433097484 
	3341.694198699769458 3595.639278502756042 13997.95471572810493 
	3341.694198699769913 3595.642351934922772 13999.12345939095576 
	3341.694198699769458 3595.642864232737338 13999.70783303699864 
	3341.694198699769458 3595.64286423025942 14000.00001985560993 
	3458.360865380430823 3595.642864230258965 14000.00001985560812 
	3458.360865380429914 3595.642864210434709 14002.33751440449123 
	3458.360865380422638 3595.610076793457665 14007.01250293771773 
	3458.360865380415817 3595.413398640106152 14016.36064437332061 
	3458.360865380377618 3594.725032529274358 14032.71022243075276 
	3458.360865380295763 3591.973847683354961 14065.33225515292906 
	3458.36086537994197 3585.699208938846823 14102.26175332617277 
	3458.360865379873758 3576.353524487571121 14138.49040682007217 
	3458.360865379791449 3567.832189585610649 14165.22622582758413 
	3458.360865379729603 3559.492854990285196 14187.07283632070539 
	3458.360865379710503 3552.094325589344407 14204.24894659963866 
	3458.360865379682764 3540.278562961877924 14229.6918570547823 
	3458.360865379471306 3519.894222995394102 14266.57486966171746 
	3458.360865379315328 3487.379613800443622 14312.39973376856688 
	3458.360865379130701 3449.938881617371862 14354.29617885278094 
	3458.360865378985181 3409.594132391895528 14390.3500962601247 
	3458.360865378854214 3367.366082533545068 14420.71008945430549 
	3458.360865378780545 3331.333075563195507 14441.51333253175471 
	3458.360865378763719 3305.116730934751558 14454.13831495199338 
	3458.360865378756444 3289.880256074624413 14460.78582659694985 
	3458.360865378736435 3259.085600672043256 14473.31780842219632 
	3458.360865378645485 3207.31903620343337 14489.28572574627833 
	3458.360865378598646 3133.147422261877637 14500.46571324872821 
	3458.360865378500421 3058.138059358324426 14500.46546905469768 
	3458.360865378433118 2983.966281903564322 14489.28626634147622 
	3458.360865378355356 2924.2357831143986 14470.86115782134038 
	3458.360865378334893 2887.074261717812078 14454.64644843823771 
	3458.360865378330345 2870.302001483766162 14446.37541261818296 
	3458.360865378329891 2859.225650786705046 14440.65309980880011 
	3458.360865378310791 2829.214344099825212 14424.06758166551481 
	3458.360865378260769 2793.062616187920412 14399.41858522967414 
	3458.360865378236667 2759.967467747673709 14370.93618335873725 
	3458.360865378225753 2745.374714549202963 14356.87945364558982 
	3458.360865378224844 2738.794195868424595 14350.23709911439437 
	3458.360865378224389 2734.448783466067653 14345.76804315799927 
	3458.360865378226208 2722.671924975397815 14333.31142642608211 
	3458.360865378243489 2704.362933687127679 14312.0352520802644 
	3458.360865378256221 2674.729075038130304 14271.88547077564544 
	3458.360865378288054 2647.642014309498791 14224.97038871894256 
	3458.360865378307608 2625.016867085597369 14171.29367751478094 
	3458.360865378316703 2610.299818994624275 14123.58349067260133 
	3458.360865378333983 2602.05584753677158 14082.80112885382368 
	3458.360865378341259 2597.921108976913729 14049.80450860036945 
	3458.360865378344897 2595.43561707547542 14016.64278111438216 
	3458.360865378359904 2595.435853636033698 13975.03568884181368 
	3458.360865378373092 2601.234660708997581 13917.07491485805258 
	3458.360865378401741 2616.070181307577059 13852.07138476784894 
	3458.360865378425842 2643.474799762587281 13782.24727513716607 
	3458.360865378453127 2680.978918604531373 13717.28675116042723 
	3458.360865378480412 2722.550938284443873 13665.15894769063198 
	3458.360865378496328 2764.250819428877548 13624.48701577410429 
	3458.360865378507697 2803.286621237670261 13593.35742466544798 
	3458.360865378519975 2852.217636080824377 13561.75288831265243 
	3458.360865378547714 2901.026167684752636 13538.24843199629868 
	3458.360865378559083 2948.127977241707413 13521.76850923430538 
	3458.360865378574545 2990.303624244436378 13510.46668980721006 
	3458.360865378602739 3039.543073505874418 13502.10048838569674 
	3458.360865378639119 3095.642847962641554 13498.95005103748372 
	3458.36086537867277 3151.742714624597738 13502.10037477528749 
	3458.360865378716881 3200.982023921986638 13510.46680123757142 
	3458.360865378736435 3243.157911843942657 13521.76810034675691 
	3458.360865378751441 3272.596139423722889 13532.068902873154 
	3458.360865378764174 3307.155133582449253 13546.3837387842741 
	3458.360865378815106 3351.741947825505122 13568.89012800245473 
	3458.360865378931067 3403.387952676580881 13604.10231914112592 
	3458.360865379028837 3449.93875850673794 13645.70419790904998 
	3458.360865379226652 3487.37984178473198 13687.60012231797191 
	3458.360865379395818 3519.894211335073123 13733.42522653235392 
	3458.360865379595907 3547.073577484076395 13782.60240654969493 
	3458.360865379820098 3568.575793428271481 13834.51360428753287 
	3458.360865380039741 3584.130797506208637 13888.50583248944531 
	3458.360865380308951 3591.97379641047155 13934.66780772433049 
	3458.360865380395808 3594.725045189248704 13967.28981350056529 
	3458.360865380422183 3595.413398466526814 13983.63939593292889 
	3458.36086538042855 3595.585492720688762 13991.81901902203936 
	3458.360865380430369 3595.628521798209931 13995.90943309748218 
	3458.360865380430823 3595.639278502755587 13997.95471572810311 
	3458.360865380431278 3595.642351934922317 13999.12345939095394 
	3458.360865380430823 3595.642864232736883 13999.70783303699682 
	3458.360865380430823 3595.642864230258965 14000.00001985560812 
	0 
	
	0 
	0 
	77 0 0.002232142857142857019 0.004464285714285714038 0.008928571428571428076 0.01785714285714285615 0.0357142857142857123 0.04464285714285713691 0.05357142857142856845 0.0625 0.0669642857142857123 0.07142857142857142461 0.08928571428571427382 0.1071428571428571369 0.125 0.1428571428571428492 0.1587301587301587213 0.1746031746031745935 0.1825396825396825295 0.1865079365079365115 0.1904761904761904656 0.2142857142857142738 0.238095238095238082 0.2619047619047618625 0.2857142857142856984 0.3095238095238095344 0.3214285714285713969 0.3244047619047618625 0.3273809523809523281 0.3333333333333333148 0.3571428571428570953 0.3690476190476190133 0.375 0.3764880952380952328 0.3779761904761904656 0.3809523809523809312 0.3928571428571428492 0.4047619047619047672 0.4285714285714285476 0.4444444444444444198 0.4603174603174602919 0.476190476190476164 0.4841269841269840724 0.4920634920634920362 0.5079365079365079083 0.5238095238095237249 0.5476190476190475609 0.5714285714285713969 0.5952380952380951218 0.6190476190476189577 0.6349206349206348854 0.650793650793650702 0.6666666666666666297 0.6904761904761904656 0.7023809523809523281 0.7142857142857141906 0.7321428571428569843 0.749999999999999889 0.7678571428571427937 0.7857142857142855874 0.7976190476190474499 0.8095238095238094234 0.8154761904761904656 0.8333333333333332593 0.8571428571428570953 0.875 0.8928571428571427937 0.9107142857142856984 0.9285714285714286031 0.9464285714285713969 0.9642857142857143016 0.9821428571428572063 0.9910714285714286031 0.9955357142857143016 0.9977678571428572063 0.9988839285714286031 0.9994419642857143016 0.9997209821428572063 
	0 
	0 
	0 
	F 1 F 0 F 1 F 0 } I I I I #
tcoedge-coedge $-1 -1 $-1 $13 $13 $17 $18 reversed $8 $19 -6.283185307179586232 2.700997913356539051e-30 #
tcoedge-coedge $-1 -1 $-1 $20 $21 $10 $15 reversed $11 $22 -6.283185307179586232 -1.350498956678270051e-30 #
tedge-edge $-1 -1 $-1 $23 1.350498956678270051e-30 $23 6.283185307179586232 $14 $24 forward @7 unknown 0.0007713316161282391314 #
pcurve $-1 -1 $-1 0 forward { exppc nurbs 2 periodic 5 
	1.350498956678270051e-30 2 1.570796326794896558 2 3.141592653589793116 2 4.712388980384689674 2 6.283185307179586232 2 
	0 500 1 
	-500 500 0.7071067811865463515 
	-500 0 1 
	-500 -500 0.7071067811865463515 
	0 -500 1 
	500 -500 0.7071067811865463515 
	500 0 1 
	500 500 0.7071067811865463515 
	0 500 1 
	0 
	plane 3458.360865378417657 3095.642797989804876 14000 1 -3.897834435702129261e-15 5.197112580936174452e-15 5.197112580936174452e-15 0 -1 forward_v I I I I 
	} 0 0 #
tcoedge-coedge $-1 -1 $-1 $21 $20 $13 $18 forward $11 $25 -2.700997913356539051e-30 6.283185307179586232 #
tedge-edge $-1 -1 $-1 $26 -2.700997913356539051e-30 $26 6.283185307179586232 $17 $27 forward @7 unknown 0.0007713316137908359654 #
pcurve $-1 -1 $-1 0 forward { exppc nurbs 2 periodic 5 
	-6.283185307179586232 2 -4.712388980384689674 2 -3.141592653589793116 2 -1.570796326794896558 2 2.700997913356539051e-30 2 
	0 500 1 
	500 500 0.707106781186543798 
	500 0 1 
	500 -500 0.7071067811865463515 
	0 -500 1 
	-500 -500 0.7071067811865463515 
	-500 0 1 
	-500 500 0.7071067811865463515 
	0 500 1 
	0 
	plane 3108.360865336433562 3095.64279798980624 14000.00000000000364 -1 3.897834435702129261e-15 1.039422516187234575e-14 -1.039422516187234575e-14 0 -1 reverse_v I I I I 
	} 0 0 #
coedge $-1 -1 $-1 $17 $14 $21 $28 reversed $11 $29 #
coedge $-1 -1 $-1 $14 $17 $20 $28 forward $11 $30 #
pcurve $-1 -1 $-1 0 forward { exppc nubs 1 periodic 2 
	-6.283185307179586232 1 -1.350498956678270051e-30 1 
	1 1 
	0 1 
	0 
	spline forward { ref 0 } I I I I 
	} 0 0 #
tvertex-vertex $-1 -1 $-1 $15 $31 6.915232692150774627e-05 #
ellipse-curve $-1 -1 $-1 3458.360865378417657 3095.642797989804876 14000 1 -3.897834435702129261e-15 5.197112580936174452e-15 1.94891721785106465e-12 500 1.345246525751824388e-43 1 I I #
pcurve $-1 -1 $-1 0 forward { exppc nubs 1 periodic 2 
	-2.700997913356539051e-30 1 6.283185307179586232 1 
	0 0 
	1 0 
	4.4114023995510105e-13 
	spline forward { ref 0 } I I I I 
	} 0 0 #
tvertex-vertex $-1 -1 $-1 $18 $32 6.91523269158941811e-05 #
ellipse-curve $-1 -1 $-1 3108.360865336433562 3095.64279798980624 14000.00000000000364 1 -3.897834435702129261e-15 -1.039422516187234575e-14 1.94891721785106465e-12 500 1.345246525751824388e-43 1 I I #
edge $-1 -1 $-1 $26 0 $23 1 $21 $33 forward @7 tangent #
pcurve $-1 -1 $-1 -1 $33 0 0 #
pcurve $-1 -1 $-1 1 $33 1 0 #
point $-1 -1 $-1 3458.360865378419476 3595.642797989804876 14000 #
point $-1 -1 $-1 3108.360865336435381 3595.64279798980624 14000.00000000000364 #
intcurve-curve $-1 -1 $-1 forward { parcur full nubs 3 open 2 
	0 3 1 3 
	3108.360865338243457 3595.642864230260329 14000.00001985561175 
	3225.027532018904822 3595.642864230259875 14000.00001985560993 
	3341.694198699769458 3595.64286423025942 14000.00001985560993 
	3458.360865380430823 3595.642864230258965 14000.00001985560812 
	0 
	
	spline forward { ref 0 } I I I I 
	null_surface 
	nubs 1 open 2 
	0 1 1 1 
	0 0 
	0 1 
	
	nullbs 
	I I 
	0 
	0 
	0 
	surf1 } I I #
End-of-ACIS-data 