700 0 1 0           
4 LibG 19 ASM 222.0.0.1700 NT 24 Wed Oct  5 17:29:54 2016 
1000 9.999999999999999547e-07 1.000000000000000036e-10 
body $-1 -1 $-1 $1 $-1 $-1 #
lump $-1 -1 $-1 $-1 $2 $0 #
shell $-1 -1 $-1 $-1 $-1 $3 $-1 $1 #
face $-1 -1 $-1 $4 $5 $2 $-1 $6 forward single #
face $-1 -1 $-1 $7 $8 $2 $-1 $9 reversed single #
loop $-1 -1 $-1 $-1 $10 $3 #
plane-surface $-1 -1 $-1 4158.360865462385846 3095.642797989802148 14000 1 -3.897834435702129261e-15 5.197112580936172875e-15 5.197112580936172875e-15 0 -1 forward_v I I I I #
face $-1 -1 $-1 $-1 $11 $2 $-1 $12 forward single #
loop $-1 -1 $-1 $-1 $13 $4 #
plane-surface $-1 -1 $-1 3808.360865420401751 3095.642797989803512 14000.00000000000182 1 -3.897834435702129261e-15 -5.197112580936172875e-15 -5.197112580936172875e-15 0 -1 forward_v I I I I #
tcoedge-coedge $-1 -1 $-1 $10 $10 $14 $15 forward $5 $16 1.350498956678269526e-30 6.283185307179586232 #
loop $-1 -1 $-1 $-1 $17 $7 #
spline-surface $-1 -1 $-1 forward { exactsur full nubs 3 3 periodic open none none 85 2 
	0 3 0.002232142857142857019 1 0.004464285714285714038 1 0.008928571428571428076 1 0.01785714285714285615 1 
	0.02678571428571428423 1 0.0357142857142857123 1 0.05357142857142856845 1 0.07142857142857142461 1 0.08928571428571427382 1 
	0.1071428571428571369 1 0.125 1 0.1428571428571428492 1 0.1587301587301587213 1 0.1746031746031745935 1 
	0.1904761904761904656 1 0.2023809523809523836 1 0.2142857142857142738 1 0.238095238095238082 1 0.2619047619047618625 1 
	0.2857142857142856984 1 0.2976190476190476164 1 0.3095238095238095344 1 0.3214285714285713969 1 0.3273809523809523281 1 
	0.3333333333333333148 1 0.3452380952380952328 1 0.3571428571428570953 1 0.3690476190476190133 1 0.375 1 
	0.3809523809523809312 1 0.3869047619047618625 1 0.3928571428571428492 1 0.4047619047619047672 1 0.4166666666666666297 1 
	0.4285714285714285476 1 0.4444444444444444198 1 0.4603174603174602919 1 0.476190476190476164 1 0.4801587301587301182 1 
	0.4841269841269840724 1 0.4880952380952380265 1 0.4900793650793650036 1 0.4920634920634920362 1 0.5158730158730158166 1 
	0.5238095238095237249 1 0.5357142857142855874 1 0.5476190476190475609 1 0.5595238095238095344 1 0.5714285714285713969 1 
	0.5952380952380951218 1 0.6190476190476189577 1 0.6269841269841269771 1 0.6309523809523809312 1 0.6349206349206348854 1 
	0.650793650793650702 1 0.6666666666666666297 1 0.6785714285714286031 1 0.6904761904761904656 1 0.7023809523809523281 1 
	0.7142857142857141906 1 0.7321428571428569843 1 0.749999999999999889 1 0.7678571428571427937 1 0.7857142857142855874 1 
	0.7976190476190474499 1 0.8095238095238094234 1 0.8333333333333332593 1 0.8452380952380951218 1 0.851190476190476053 1 
	0.8571428571428570953 1 0.875 1 0.8928571428571427937 1 0.9107142857142856984 1 0.9285714285714286031 1 
	0.9464285714285713969 1 0.9642857142857143016 1 0.9821428571428572063 1 0.9910714285714286031 1 0.9955357142857143016 1 
	0.9977678571428572063 1 0.9988839285714286031 1 0.9994419642857143016 1 0.9997209821428572063 1 1 3 
	0 3 1 3 
	3808.360865440433827 3595.642862171790966 13999.9998912169176 
	3808.360865440433372 3595.642862128637262 14002.33738575029747 
	3808.360865440362431 3595.610078132793205 14007.01237465151462 
	3808.3608654402924 3595.413387702303226 14016.36051397879055 
	3808.36086543999545 3594.725083262022054 14032.71010028981073 
	3808.360865439145527 3592.759697258215056 14056.01150950007468 
	3808.360865438360179 3588.836915437705102 14083.79692238863572 
	3808.360865437512984 3581.538027417791 14120.4927195750588 
	3808.360865434845891 3568.575870945344377 14165.4862912178487 
	3808.360865432771789 3547.073404956323429 14217.39738531984221 
	3808.36086543045576 3519.894182249840924 14266.57467667572564 
	3808.360865428705438 3487.379545548555598 14312.39946148389026 
	3808.360865426476266 3449.938882523518259 14354.29597816774185 
	3808.360865426235705 3409.594173323271662 14390.34991164189159 
	3808.360865424504027 3367.365987212072469 14420.709708483957 
	3808.360865424385793 3324.126548586792978 14445.67389556336093 
	3808.360865424052008 3282.408879260366575 14464.49778494595557 
	3808.360865423804171 3243.157754446355284 14478.23158417147351 
	3808.360865423487212 3194.956960777461973 14491.14854812260091 
	3808.360865423116593 3133.147691586059864 14500.46604255627062 
	3808.360865422463576 3058.137921117550832 14500.46567083910486 
	3808.360865422002007 2996.328576842799066 14491.14875663817475 
	3808.360865421848303 2948.127677569922525 14478.23210792799546 
	3808.360865421700055 2912.801770295769984 14465.87139200414276 
	3808.360865421602284 2884.215670222215522 14453.39922871778253 
	3808.360865421524977 2861.953924541840024 14442.16089875011676 
	3808.360865421461313 2840.127864851035611 14430.09816543321358 
	3808.360865421350354 2813.71989939274772 14413.5049093261332 
	3808.360865421319431 2783.606913341845484 14391.28059017218038 
	3808.360865421231665 2759.967024370552735 14370.93672978348695 
	3808.360865421215749 2742.006853142487216 14353.63591686643122 
	3808.360865421199378 2729.031260058599855 14340.16577406882425 
	3808.360865421185281 2716.568445375618921 14326.21984015684939 
	3808.360865421172093 2700.658181182841417 14307.0169964291199 
	3808.360865421126618 2682.137772380181559 14281.92293264010186 
	3808.360865421110702 2662.226025747377662 14250.23329157525768 
	3808.360865421081144 2642.794643158428698 14213.46786099516248 
	3808.360865421049766 2625.016719294866107 14171.29388690883388 
	3808.360865421038852 2610.300074149053671 14123.58342635729969 
	3808.360865420998834 2602.880221867160344 14086.87944874285131 
	3808.360865420995651 2599.471590703425591 14062.17830546626647 
	3808.360865420994742 2598.075655371791527 14049.78909820189983 
	3808.360865420994287 2597.170086352695762 14039.43895818724377 
	3808.360865420993832 2596.600741881021349 14031.1472370093361 
	3808.360865420992923 2594.968890933085731 14002.1035939372905 
	3808.360865420991104 2595.85313387486076 13966.69375951348775 
	3808.360865420999289 2601.539734430733006 13921.32341955106494 
	3808.360865421010203 2607.724144206094934 13888.6357712967656 
	3808.360865421031122 2617.410784935769243 13852.48489451182468 
	3808.360865421047038 2629.772059063245706 13817.15919801753989 
	3808.360865421103426 2649.726237249455153 13771.42092664456504 
	3808.360865421216204 2680.979070156930447 13717.2870413470755 
	3808.36086542133944 2717.354506184449747 13671.67497812141301 
	3808.360865421409471 2743.477377757616978 13644.89405073774651 
	3808.360865421420385 2755.521275238269936 13633.43612133034549 
	3808.360865421451308 2774.00999705370532 13616.70495085370931 
	3808.360865421524522 2803.286765504471532 13593.35746199583264 
	3808.360865421585913 2841.732982918142625 13568.52630992908234 
	3808.360865421789185 2878.498658130517015 13549.09548782502861 
	3808.360865421870585 2912.801878772537293 13534.12887099186628 
	3808.3608654220875 2948.127786861810819 13521.76809021666122 
	3808.360865422332154 2990.303606294033671 13510.46655860492319 
	3808.36086542247358 3039.542938895648149 13502.10023618823652 
	3808.360865423058385 3095.642809789249895 13498.95010220947734 
	3808.360865423738232 3151.742547972590728 13502.10040785721867 
	3808.360865423906489 3200.982038806747369 13510.4664850094432 
	3808.360865424382155 3243.157562675253303 13521.76862787622849 
	3808.360865424595431 3290.259434423080165 13538.2483626862213 
	3808.360865425098837 3335.313564015697011 13559.94458127779035 
	3808.360865425492193 3372.284038399307974 13583.17650280647649 
	3808.360865425580414 3392.622224455873493 13597.60707643985734 
	3808.360865425727297 3417.352812721696864 13616.58327739352899 
	3808.360865426546752 3449.938933114231531 13645.70372468996902 
	3808.36086542753219 3487.379721083052573 13687.60014801510442 
	3808.360865428519446 3519.894158414348567 13733.4250729747273 
	3808.360865430108788 3547.073656958111314 13782.60224901375113 
	3808.36086543331794 3568.575802116560226 13834.51346074908543 
	3808.360865435779033 3584.130821380268117 13888.50569616158282 
	3808.360865439043209 3591.973796463448707 13934.66767798711044 
	3808.360865440012731 3594.725044900405464 13967.2896847290649 
	3808.360865440325142 3595.413396661318529 13983.63926734067172 
	3808.360865440402904 3595.585490784496869 13991.81889040998067 
	3808.360865440424277 3595.628519804294228 13995.90930447724168 
	3808.360865440431098 3595.639276470279583 13997.95458709738887 
	3808.360865440432917 3595.642349939387259 13999.12333076431241 
	3808.360865440433827 3595.642862177185179 13999.70770440024535 
	3808.360865440433827 3595.642862171790966 13999.9998912169176 
	3925.027532121095192 3595.642862171790512 13999.9998912169176 
	3925.027532121094737 3595.642862128636807 14002.33738575029747 
	3925.027532121023796 3595.610078132792751 14007.01237465151462 
	3925.027532120953765 3595.413387702302771 14016.36051397879055 
	3925.02753212065727 3594.725083262021599 14032.71010028981073 
	3925.027532119807347 3592.759697258214601 14056.01150950007468 
	3925.027532119021998 3588.836915437704647 14083.79692238863572 
	3925.027532118175259 3581.538027417790545 14120.4927195750588 
	3925.027532115508166 3568.575870945343922 14165.4862912178487 
	3925.027532113434518 3547.073404956322975 14217.39738531984221 
	3925.027532111118944 3519.894182249840469 14266.57467667572564 
	3925.027532109368622 3487.379545548555143 14312.39946148389026 
	3925.02753210714036 3449.938882523517805 14354.29597816774185 
	3925.027532106899798 3409.594173323271207 14390.34991164189159 
	3925.02753210516812 3367.365987212072014 14420.709708483957 
	3925.027532105050341 3324.126548586792524 14445.67389556336093 
	3925.027532104716556 3282.40887926036612 14464.49778494595557 
	3925.027532104468719 3243.157754446354829 14478.23158417147351 
	3925.02753210415176 3194.956960777461518 14491.14854812260091 
	3925.027532103781596 3133.147691586059409 14500.46604255627062 
	3925.027532103128578 3058.137921117550377 14500.46567083910486 
	3925.027532102666555 2996.328576842798611 14491.14875663817475 
	3925.027532102512851 2948.127677569922071 14478.23210792799546 
	3925.027532102364603 2912.801770295769529 14465.87139200414276 
	3925.027532102266832 2884.215670222215067 14453.39922871778253 
	3925.027532102189525 2861.953924541839569 14442.16089875011676 
	3925.027532102125406 2840.127864851035156 14430.09816543321358 
	3925.027532102014447 2813.719899392747266 14413.5049093261332 
	3925.027532101983525 2783.606913341845029 14391.28059017218038 
	3925.027532101895758 2759.967024370552281 14370.93672978348695 
	3925.027532101879387 2742.006853142486761 14353.63591686643122 
	3925.027532101863471 2729.031260058599401 14340.16577406882425 
	3925.027532101848919 2716.568445375618467 14326.21984015684939 
	3925.027532101835732 2700.658181182840963 14307.0169964291199 
	3925.027532101789802 2682.137772380181104 14281.92293264010186 
	3925.027532101773886 2662.226025747377207 14250.23329157525768 
	3925.027532101743873 2642.794643158428244 14213.46786099516248 
	3925.027532101712495 2625.016719294865652 14171.29388690883388 
	3925.027532101700672 2610.300074149053216 14123.58342635729969 
	3925.027532101661109 2602.880221867159889 14086.87944874285131 
	3925.027532101657471 2599.471590703425136 14062.17830546626647 
	3925.027532101656561 2598.075655371791072 14049.78909820189983 
	3925.027532101655652 2597.170086352695307 14039.43895818724377 
	3925.027532101655652 2596.600741881020895 14031.1472370093361 
	3925.027532101654288 2594.968890933085277 14002.1035939372905 
	3925.027532101652469 2595.853133874860305 13966.69375951348775 
	3925.027532101660199 2601.539734430732551 13921.32341955106494 
	3925.027532101670658 2607.724144206094479 13888.6357712967656 
	3925.027532101691577 2617.410784935768788 13852.48489451182468 
	3925.027532101707038 2629.772059063245251 13817.15919801753989 
	3925.027532101763427 2649.726237249454698 13771.42092664456504 
	3925.027532101875295 2680.979070156929993 13717.2870413470755 
	3925.027532101998531 2717.354506184449292 13671.67497812141301 
	3925.027532102068108 2743.477377757616523 13644.89405073774651 
	3925.027532102079022 2755.521275238269482 13633.43612133034549 
	3925.027532102109944 2774.009997053704865 13616.70495085370931 
	3925.027532102183159 2803.286765504471077 13593.35746199583264 
	3925.02753210224455 2841.73298291814217 13568.52630992908234 
	3925.027532102447367 2878.49865813051656 13549.09548782502861 
	3925.027532102529221 2912.801878772536838 13534.12887099186628 
	3925.027532102745226 2948.127786861810364 13521.76809021666122 
	3925.027532102990335 2990.303606294033216 13510.46655860492319 
	3925.027532103131307 3039.542938895647694 13502.10023618823652 
	3925.027532103716112 3095.642809789249441 13498.95010220947734 
	3925.027532104395959 3151.742547972590273 13502.10040785721867 
	3925.027532104564671 3200.982038806746914 13510.4664850094432 
	3925.027532105040336 3243.157562675252848 13521.76862787622849 
	3925.027532105253613 3290.259434423079711 13538.2483626862213 
	3925.027532105757018 3335.313564015696556 13559.94458127779035 
	3925.027532106150829 3372.284038399307519 13583.17650280647649 
	3925.02753210623905 3392.622224455873038 13597.60707643985734 
	3925.027532106385934 3417.352812721696409 13616.58327739352899 
	3925.027532107205843 3449.938933114231077 13645.70372468996902 
	3925.027532108191281 3487.379721083052118 13687.60014801510442 
	3925.027532109178992 3519.894158414348112 13733.4250729747273 
	3925.027532110768334 3547.07365695811086 13782.60224901375113 
	3925.027532113978396 3568.575802116559771 13834.51346074908543 
	3925.027532116439488 3584.130821380267662 13888.50569616158282 
	3925.027532119704119 3591.973796463448252 13934.66767798711044 
	3925.027532120673641 3594.72504490040501 13967.2896847290649 
	3925.027532120986507 3595.413396661318075 13983.63926734067172 
	3925.027532121064269 3595.585490784496415 13991.81889040998067 
	3925.027532121085642 3595.628519804293774 13995.90930447724168 
	3925.027532121092463 3595.639276470279128 13997.95458709738887 
	3925.027532121094282 3595.642349939386804 13999.12333076431241 
	3925.027532121095192 3595.642862177184725 13999.70770440024535 
	3925.027532121095192 3595.642862171790512 13999.9998912169176 
	4041.694198803596009 3595.642862171791421 13999.9998912169176 
	4041.694198803596009 3595.642862128638171 14002.33738575029747 
	4041.694198803518702 3595.61007813279366 14007.01237465151462 
	4041.694198803441395 3595.41338770230368 14016.36051397879055 
	4041.694198803118979 3594.725083262022508 14032.71010028981073 
	4041.694198802189021 3592.75969725821551 14056.01150950007468 
	4041.694198801332277 3588.836915437705557 14083.79692238863572 
	4041.69419880040823 3581.538027417791454 14120.4927195750588 
	4041.694198797495574 3568.575870945344377 14165.4862912178487 
	4041.694198795231841 3547.073404956323429 14217.3973853198404 
	4041.694198792702991 3519.894182249840924 14266.57467667572564 
	4041.694198790792143 3487.379545548555143 14312.39946148388844 
	4041.694198788358335 3449.938882523518259 14354.29597816774185 
	4041.694198788095491 3409.594173323270752 14390.34991164189159 
	4041.694198786204652 3367.365987212072014 14420.709708483957 
	4041.694198786076413 3324.126548586792524 14445.67389556336093 
	4041.694198785711706 3282.408879260365666 14464.49778494595557 
	4041.694198785441131 3243.157754446354829 14478.23158417147351 
	4041.694198785095523 3194.956960777461518 14491.14854812260091 
	4041.694198784690343 3133.147691586058954 14500.46604255627062 
	4041.694198783975935 3058.137921117550377 14500.46567083910304 
	4041.694198783472984 2996.328576842798157 14491.14875663817111 
	4041.694198783305183 2948.127677569922071 14478.23210792799364 
	4041.694198783143293 2912.801770295769529 14465.87139200414094 
	4041.694198783036882 2884.215670222215067 14453.3992287177789 
	4041.694198782951844 2861.953924541839115 14442.16089875011494 
	4041.694198782882722 2840.127864851034701 14430.09816543320994 
	4041.69419878276176 2813.719899392746811 14413.50490932612956 
	4041.694198782727653 2783.606913341844574 14391.28059017217674 
	4041.694198782632157 2759.967024370551826 14370.93672978348332 
	4041.694198782614421 2742.006853142486307 14353.63591686642758 
	4041.694198782595777 2729.031260058598946 14340.16577406881879 
	4041.694198782581225 2716.568445375618012 14326.21984015684575 
	4041.694198782566218 2700.658181182840963 14307.01699642911626 
	4041.694198782517105 2682.137772380180195 14281.92293264009459 
	4041.69419878249937 2662.226025747376752 14250.23329157525222 
	4041.694198782467083 2642.794643158427334 14213.46786099515521 
	4041.694198782432522 2625.016719294864743 14171.29388690883025 
	4041.694198782420244 2610.300074149052307 14123.58342635729423 
	4041.694198782377498 2602.88022186715898 14086.8794487428404 
	4041.69419878237386 2599.471590703424681 14062.17830546625555 
	4041.694198782372496 2598.075655371790162 14049.78909820188892 
	4041.694198782372041 2597.170086352694852 14039.43895818723104 
	4041.694198782371586 2596.600741881019985 14031.14723700932518 
	4041.694198782370222 2594.968890933084367 14002.1035939372814 
	4041.694198782367948 2595.853133874859395 13966.69375951347865 
	4041.694198782376588 2601.539734430731642 13921.32341955105585 
	4041.694198782388867 2607.72414420609357 13888.63577129675832 
	4041.694198782411149 2617.410784935767879 13852.48489451181558 
	4041.69419878242843 2629.772059063244342 13817.15919801753262 
	4041.694198782489821 2649.726237249453789 13771.42092664455595 
	4041.694198782613512 2680.979070156929083 13717.28704134706641 
	4041.694198782746753 2717.354506184448837 13671.67497812140391 
	4041.694198782823605 2743.477377757616068 13644.89405073774105 
	4041.694198782835429 2755.521275238268572 13633.43612133033639 
	4041.694198782868625 2774.009997053703955 13616.70495085370385 
	4041.694198782949115 2803.286765504470168 13593.357461995829 
	4041.694198783016418 2841.732982918140806 13568.52630992907689 
	4041.69419878323697 2878.498658130515651 13549.09548782502679 
	4041.694198783326101 2912.801878772535474 13534.12887099186628 
	4041.694198783563479 2948.127786861809 13521.7680902166594 
	4041.694198783829506 2990.303606294032306 13510.46655860491956 
	4041.69419878398503 3039.542938895647239 13502.1002361882347 
	4041.694198784623495 3095.642809789248986 13498.95010220947552 
	4041.694198785365643 3151.742547972590273 13502.10040785721867 
	4041.694198785549361 3200.982038806746914 13510.4664850094432 
	4041.694198786067773 3243.157562675253757 13521.76862787622667 
	4041.694198786301968 3290.25943442308062 13538.24836268621948 
	4041.694198786850848 3335.313564015697466 13559.94458127779035 
	4041.694198787281039 3372.284038399308429 13583.17650280647649 
	4041.69419878737699 3392.622224455873948 13597.60707643985734 
	4041.694198787537971 3417.352812721697319 13616.58327739352899 
	4041.694198788432914 3449.938933114231986 13645.70372468996902 
	4041.694198789508846 3487.379721083053028 13687.60014801510442 
	4041.694198790586597 3519.894158414349022 13733.4250729747273 
	4041.694198792322368 3547.073656958111314 13782.60224901375113 
	4041.694198795826651 3568.575802116560226 13834.51346074908361 
	4041.694198798515117 3584.130821380268571 13888.50569616158282 
	4041.694198802078063 3591.973796463448707 13934.66767798711044 
	4041.694198803138079 3594.725044900405919 13967.2896847290649 
	4041.694198803479594 3595.413396661318075 13983.63926734067172 
	4041.694198803564177 3595.585490784497324 13991.81889040998067 
	4041.694198803586914 3595.628519804294228 13995.90930447724168 
	4041.69419880359419 3595.639276470279583 13997.95458709738887 
	4041.6941988035951 3595.642349939387259 13999.12333076431241 
	4041.694198803596009 3595.642862177185634 13999.70770440024535 
	4041.694198803596009 3595.642862171791421 13999.9998912169176 
	4158.360865484257374 3595.642862171790966 13999.9998912169176 
	4158.360865484257374 3595.642862128637717 14002.33738575029747 
	4158.360865484180067 3595.610078132793205 14007.01237465151462 
	4158.36086548410276 3595.413387702303226 14016.36051397879055 
	4158.360865483779889 3594.725083262022054 14032.71010028981073 
	4158.360865482849476 3592.759697258215056 14056.01150950007468 
	4158.360865481992732 3588.836915437705102 14083.79692238863572 
	4158.360865481067776 3581.538027417791 14120.4927195750588 
	4158.360865478154665 3568.575870945343922 14165.4862912178487 
	4158.360865475890023 3547.073404956322975 14217.3973853198404 
	4158.360865473360718 3519.894182249840469 14266.57467667572564 
	4158.36086547144896 3487.379545548554688 14312.39946148388844 
	4158.360865469015152 3449.938882523517805 14354.29597816774185 
	4158.360865468751399 3409.594173323270297 14390.34991164189159 
	4158.36086546686056 3367.365987212071559 14420.709708483957 
	4158.360865466731411 3324.126548586792069 14445.67389556336093 
	4158.360865466366704 3282.408879260365211 14464.49778494595557 
	4158.360865466095674 3243.157754446354375 14478.23158417147351 
	4158.360865465750067 3194.956960777461063 14491.14854812260091 
	4158.360865465344432 3133.1476915860585 14500.46604255627062 
	4158.360865464630479 3058.137921117549922 14500.46567083910304 
	4158.360865464127528 2996.328576842797702 14491.14875663817111 
	4158.360865463960181 2948.127677569921616 14478.23210792799364 
	4158.360865463798291 2912.801770295769074 14465.87139200414094 
	4158.36086546369188 2884.215670222214612 14453.3992287177789 
	4158.360865463607297 2861.95392454183866 14442.16089875011494 
	4158.360865463538175 2840.127864851034246 14430.09816543320994 
	4158.360865463417213 2813.719899392746356 14413.50490932612956 
	4158.360865463383561 2783.60691334184412 14391.28059017217674 
	4158.360865463288064 2759.967024370551371 14370.93672978348332 
	4158.360865463270784 2742.006853142485852 14353.63591686642758 
	4158.360865463252594 2729.031260058598491 14340.16577406881879 
	4158.360865463238042 2716.568445375617557 14326.21984015684575 
	4158.36086546322349 2700.658181182840508 14307.01699642911626 
	4158.360865463174378 2682.13777238017974 14281.92293264009459 
	4158.360865463157097 2662.226025747376298 14250.23329157525222 
	4158.360865463125265 2642.794643158426879 14213.46786099515521 
	4158.360865463091613 2625.016719294864288 14171.29388690883025 
	4158.36086546307979 2610.300074149051852 14123.58342635729423 
	4158.360865463037953 2602.880221867158525 14086.8794487428404 
	4158.360865463034315 2599.471590703424226 14062.17830546625555 
	4158.360865463033406 2598.075655371789708 14049.78909820188892 
	4158.360865463032496 2597.170086352694398 14039.43895818723104 
	4158.360865463032496 2596.60074188101953 14031.14723700932518 
	4158.360865463031587 2594.968890933083912 14002.1035939372814 
	4158.360865463029768 2595.853133874858941 13966.69375951347865 
	4158.360865463038863 2601.539734430731187 13921.32341955105585 
	4158.360865463051596 2607.724144206093115 13888.63577129675832 
	4158.360865463074333 2617.410784935767424 13852.48489451181558 
	4158.360865463092523 2629.772059063243887 13817.15919801753262 
	4158.360865463154369 2649.726237249453334 13771.42092664455595 
	4158.360865463278969 2680.979070156928628 13717.28704134706641 
	4158.360865463412665 2717.354506184448383 13671.67497812140391 
	4158.360865463489972 2743.477377757615614 13644.89405073774105 
	4158.360865463501796 2755.521275238268117 13633.43612133033639 
	4158.360865463535447 2774.009997053703501 13616.70495085370385 
	4158.360865463616392 2803.286765504469713 13593.357461995829 
	4158.360865463683695 2841.732982918140351 13568.52630992907689 
	4158.360865463904702 2878.498658130515196 13549.09548782502679 
	4158.360865463993832 2912.801878772535019 13534.12887099186628 
	4158.36086546423121 2948.127786861808545 13521.7680902166594 
	4158.360865464497692 2990.303606294031852 13510.46655860491956 
	4158.360865464653216 3039.542938895646785 13502.1002361882347 
	4158.360865465291681 3095.642809789248531 13498.95010220947552 
	4158.360865466033829 3151.742547972589819 13502.10040785721867 
	4158.360865466217547 3200.982038806746459 13510.4664850094432 
	4158.360865466735959 3243.157562675253303 13521.76862787622667 
	4158.360865466969699 3290.259434423080165 13538.24836268621948 
	4158.360865467518124 3335.313564015697011 13559.94458127779035 
	4158.360865467948315 3372.284038399307974 13583.17650280647649 
	4158.360865468043812 3392.622224455873493 13597.60707643985734 
	4158.360865468204793 3417.352812721696864 13616.58327739352899 
	4158.360865469098826 3449.938933114231531 13645.70372468996902 
	4158.360865470174758 3487.379721083052573 13687.60014801510442 
	4158.3608654712516 3519.894158414348567 13733.4250729747273 
	4158.360865472986916 3547.07365695811086 13782.60224901375113 
	4158.360865476490289 3568.575802116559771 13834.51346074908361 
	4158.360865479177846 3584.130821380268117 13888.50569616158282 
	4158.360865482740337 3591.973796463448252 13934.66767798711044 
	4158.360865483799898 3594.725044900405464 13967.2896847290649 
	4158.360865484140959 3595.41339666131762 13983.63926734067172 
	4158.360865484225542 3595.585490784496869 13991.81889040998067 
	4158.360865484248279 3595.628519804293774 13995.90930447724168 
	4158.360865484255555 3595.639276470279128 13997.95458709738887 
	4158.360865484256465 3595.642349939386804 13999.12333076431241 
	4158.360865484257374 3595.642862177185179 13999.70770440024535 
	4158.360865484257374 3595.642862171790966 13999.9998912169176 
	0 
	
	0 
	0 
	84 0 0.002232142857142857019 0.004464285714285714038 0.008928571428571428076 0.01785714285714285615 0.02678571428571428423 0.0357142857142857123 0.05357142857142856845 0.07142857142857142461 0.08928571428571427382 0.1071428571428571369 0.125 0.1428571428571428492 0.1587301587301587213 0.1746031746031745935 0.1904761904761904656 0.2023809523809523836 0.2142857142857142738 0.238095238095238082 0.2619047619047618625 0.2857142857142856984 0.2976190476190476164 0.3095238095238095344 0.3214285714285713969 0.3273809523809523281 0.3333333333333333148 0.3452380952380952328 0.3571428571428570953 0.3690476190476190133 0.375 0.3809523809523809312 0.3869047619047618625 0.3928571428571428492 0.4047619047619047672 0.4166666666666666297 0.4285714285714285476 0.4444444444444444198 0.4603174603174602919 0.476190476190476164 0.4801587301587301182 0.4841269841269840724 0.4880952380952380265 0.4900793650793650036 0.4920634920634920362 0.5158730158730158166 0.5238095238095237249 0.5357142857142855874 0.5476190476190475609 0.5595238095238095344 0.5714285714285713969 0.5952380952380951218 0.6190476190476189577 0.6269841269841269771 0.6309523809523809312 0.6349206349206348854 0.650793650793650702 0.6666666666666666297 0.6785714285714286031 0.6904761904761904656 0.7023809523809523281 0.7142857142857141906 0.7321428571428569843 0.749999999999999889 0.7678571428571427937 0.7857142857142855874 0.7976190476190474499 0.8095238095238094234 0.8333333333333332593 0.8452380952380951218 0.851190476190476053 0.8571428571428570953 0.875 0.8928571428571427937 0.9107142857142856984 0.9285714285714286031 0.9464285714285713969 0.9642857142857143016 0.9821428571428572063 0.9910714285714286031 0.9955357142857143016 0.9977678571428572063 0.9988839285714286031 0.9994419642857143016 0.9997209821428572063 
	0 
	0 
	0 
	F 1 F 0 F 1 F 0 } I I I I #
tcoedge-coedge $-1 -1 $-1 $13 $13 $17 $18 reversed $8 $19 -6.283185307179586232 1.350498956678269526e-30 #
tcoedge-coedge $-1 -1 $-1 $20 $21 $10 $15 reversed $11 $22 -6.283185307179586232 -1.350498956678269526e-30 #
tedge-edge $-1 -1 $-1 $23 1.350498956678269526e-30 $23 6.283185307179586232 $14 $24 forward @7 unknown 0.0006930240476970647061 #
pcurve $-1 -1 $-1 0 forward { exppc nurbs 2 periodic 5 
	1.350498956678269526e-30 2 1.570796326794896558 2 3.141592653589793116 2 4.712388980384689674 2 6.283185307179586232 2 
	0 500 1 
	-500 500 0.7071067811865463515 
	-500 0 1 
	-500 -500 0.7071067811865463515 
	0 -500 1 
	500 -500 0.7071067811865463515 
	500 0 1 
	500 500 0.7071067811865463515 
	0 500 1 
	0 
	plane 4158.360865462385846 3095.642797989802148 14000 1 -3.897834435702129261e-15 5.197112580936172875e-15 5.197112580936172875e-15 0 -1 forward_v I I I I 
	} 0 0 #
tcoedge-coedge $-1 -1 $-1 $21 $20 $13 $18 forward $11 $25 -1.350498956678269526e-30 6.283185307179586232 #
tedge-edge $-1 -1 $-1 $26 -1.350498956678269526e-30 $26 6.283185307179586232 $17 $27 forward @7 unknown 0.0006930240523365003517 #
pcurve $-1 -1 $-1 0 forward { exppc nurbs 2 periodic 5 
	-6.283185307179586232 2 -4.712388980384689674 2 -3.141592653589793116 2 -1.570796326794896558 2 1.350498956678269526e-30 2 
	0 500 1 
	500 500 0.707106781186543798 
	500 0 1 
	500 -500 0.7071067811865463515 
	0 -500 1 
	-500 -500 0.7071067811865463515 
	-500 0 1 
	-500 500 0.7071067811865463515 
	0 500 1 
	0 
	plane 3808.360865420401751 3095.642797989803512 14000.00000000000182 -1 3.897834435702129261e-15 5.197112580936172875e-15 -5.197112580936172875e-15 0 -1 reverse_v I I I I 
	} 0 0 #
coedge $-1 -1 $-1 $17 $14 $21 $28 reversed $11 $29 #
coedge $-1 -1 $-1 $14 $17 $20 $28 forward $11 $30 #
pcurve $-1 -1 $-1 0 forward { exppc nubs 1 periodic 2 
	-6.283185307179586232 1 -1.350498956678269526e-30 1 
	1 1 
	0 1 
	4.411402399551008985e-13 
	spline forward { ref 0 } I I I I 
	} 0 0 #
tvertex-vertex $-1 -1 $-1 $15 $31 0.0001263055410849242392 #
ellipse-curve $-1 -1 $-1 4158.360865462385846 3095.642797989802148 14000 1 -3.897834435702129261e-15 5.197112580936172875e-15 1.94891721785106465e-12 500 0 1 I I #
pcurve $-1 -1 $-1 0 forward { exppc nubs 1 periodic 2 
	-1.350498956678269526e-30 1 6.283185307179586232 1 
	0 0 
	1 0 
	4.4114023995510105e-13 
	spline forward { ref 0 } I I I I 
	} 0 0 #
tvertex-vertex $-1 -1 $-1 $18 $32 0.0001263055416532208155 #
ellipse-curve $-1 -1 $-1 3808.360865420401751 3095.642797989803512 14000.00000000000182 1 -3.897834435702129261e-15 -5.197112580936172875e-15 1.94891721785106465e-12 500 0 1 I I #
edge $-1 -1 $-1 $26 0 $23 0.9999999999375150939 $21 $33 forward @7 tangent #
pcurve $-1 -1 $-1 -1 $33 0 0 #
pcurve $-1 -1 $-1 1 $33 1 0 #
point $-1 -1 $-1 4158.360865462387665 3595.642797989802148 14000 #
point $-1 -1 $-1 3808.36086542040357 3595.642797989803512 14000.00000000000182 #
intcurve-curve $-1 -1 $-1 forward { parcur full nubs 3 open 2 
	0 3 1 3 
	3808.360865440433827 3595.642862171790966 13999.9998912169176 
	3925.027532121095192 3595.642862171790512 13999.9998912169176 
	4041.694198803596009 3595.642862171791421 13999.9998912169176 
	4158.360865484257374 3595.642862171790966 13999.9998912169176 
	0 
	
	spline forward { ref 0 } I I I I 
	null_surface 
	nubs 1 open 2 
	0 1 1 1 
	0 0 
	0 1 
	
	nullbs 
	I I 
	0 
	0 
	0 
	surf1 } F 0 F 0.9999999999375150939 #
End-of-ACIS-data 