700 0 1 0           
4 LibG 19 ASM 222.0.0.1700 NT 24 Wed Oct  5 17:29:54 2016 
1000 9.999999999999999547e-07 1.000000000000000036e-10 
body $-1 -1 $-1 $1 $-1 $-1 #
lump $-1 -1 $-1 $-1 $2 $0 #
shell $-1 -1 $-1 $-1 $-1 $3 $-1 $1 #
face $-1 -1 $-1 $4 $5 $2 $-1 $6 forward single #
face $-1 -1 $-1 $7 $8 $2 $-1 $9 reversed single #
loop $-1 -1 $-1 $-1 $10 $3 #
plane-surface $-1 -1 $-1 9120.104628492899792 1340.189297884811822 14000 0.4531871434353523242 -0.8914153986918249561 5.197112580936172086e-15 0 -5.830180394643247452e-15 -1 forward_v I I I I #
face $-1 -1 $-1 $-1 $11 $2 $-1 $12 forward single #
loop $-1 -1 $-1 $-1 $13 $4 #
plane-surface $-1 -1 $-1 8931.121690643503825 1634.78299983921579 14000.00000000000182 0.5399512509335046007 -0.8416962911973318029 -5.197112580936172875e-15 -9.625151477936295253e-15 0 -1 forward_v I I I I #
tcoedge-coedge $-1 -1 $-1 $10 $10 $14 $15 forward $5 $16 1.772529883829579536e-30 6.283185307179586232 #
loop $-1 -1 $-1 $-1 $17 $7 #
spline-surface $-1 -1 $-1 forward { exactsur full nubs 3 3 periodic open none none 80 2 
	0 3 0.002232142857142857019 1 0.004464285714285714038 1 0.008928571428571428076 1 0.01785714285714285615 1 
	0.0357142857142857123 1 0.05357142857142856845 1 0.0625 1 0.07142857142857142461 1 0.08928571428571427382 1 
	0.1071428571428571369 1 0.125 1 0.1428571428571428492 1 0.1587301587301587213 1 0.1746031746031745935 1 
	0.1904761904761904656 1 0.2023809523809523836 1 0.2142857142857142738 1 0.238095238095238082 1 0.2619047619047618625 1 
	0.2857142857142856984 1 0.2976190476190476164 1 0.3095238095238095344 1 0.3214285714285713969 1 0.3273809523809523281 1 
	0.3303571428571427937 1 0.3333333333333333148 1 0.3452380952380952328 1 0.3571428571428570953 1 0.3690476190476190133 1 
	0.375 1 0.3809523809523809312 1 0.3928571428571428492 1 0.4047619047619047672 1 0.4166666666666666297 1 
	0.4285714285714285476 1 0.4444444444444444198 1 0.4603174603174602919 1 0.476190476190476164 1 0.4841269841269840724 1 
	0.4920634920634920362 1 0.5 1 0.5079365079365079083 1 0.5158730158730158166 1 0.5238095238095237249 1 
	0.5476190476190475609 1 0.5714285714285713969 1 0.5952380952380951218 1 0.6190476190476189577 1 0.6269841269841269771 1 
	0.6349206349206348854 1 0.650793650793650702 1 0.6666666666666666297 1 0.6904761904761904656 1 0.7023809523809523281 1 
	0.7142857142857141906 1 0.7321428571428569843 1 0.7410714285714283811 1 0.749999999999999889 1 0.7678571428571427937 1 
	0.7857142857142855874 1 0.7976190476190474499 1 0.8095238095238094234 1 0.8333333333333332593 1 0.8452380952380951218 1 
	0.8571428571428570953 1 0.875 1 0.8928571428571427937 1 0.9107142857142856984 1 0.9285714285714286031 1 
	0.9464285714285713969 1 0.9642857142857143016 1 0.9821428571428572063 1 0.9910714285714286031 1 0.9955357142857143016 1 
	0.9977678571428572063 1 0.9988839285714286031 1 0.9994419642857143016 1 0.9997209821428572063 1 1 3 
	0 3 1 3 
	9351.969903720389993 1904.758668582712289 13999.99989061165979 
	9351.969903686673206 1904.758668561079958 14002.33738514159086 
	9351.942307304296264 1904.740965380835632 14007.01237380718703 
	9351.776760992244817 1904.634766815880539 14016.36051372239854 
	9351.197379519480819 1904.263091481051561 14032.71009647819119 
	9348.881633217235503 1902.777531754357597 14065.33208811611621 
	9342.28027894889965 1898.542738835476484 14111.49407875594261 
	9331.369590590515145 1891.54349232796244 14156.48751597095179 
	9320.138615455009131 1884.338780679968295 14191.44193400236145 
	9307.276320451719585 1876.087571367005694 14225.5935536303441 
	9288.21256442770391 1863.858102116239934 14266.5747049146994 
	9260.845054902889387 1846.301744607351793 14312.39944926050885 
	9229.331413556341431 1826.085628362697889 14354.29598081834411 
	9195.373412198532606 1804.30144622477701 14390.34990814588673 
	9159.830110173790672 1781.500287908508199 14420.70970657614998 
	9123.43563386018468 1758.153098170273324 14445.67389301330149 
	9088.322027756426905 1735.62759135902752 14464.4977823147492 
	9055.284502012769735 1714.43389769601481 14478.23158254008376 
	9014.714074983918181 1688.407820292443148 14491.1485435907889 
	8962.68944291979642 1655.033828442885806 14500.46604725438374 
	8899.554008741917642 1614.532216378256862 14500.46565155947064 
	8847.529307154543858 1581.158179929319431 14491.14878656189649 
	8806.9588095620893 1555.132057258834493 14478.23206050257977 
	8777.225078170733468 1536.057759762809837 14465.87155323331535 
	8753.164301751356106 1520.622683641085359 14453.39924638926277 
	8736.768862741351768 1510.104949518198282 14443.56575465167225 
	8727.537579169200399 1504.183047325412872 14437.63741452230352 
	8713.833009715108346 1495.391515869681598 14428.43889512458372 
	8693.828254646250571 1482.558392287036668 14413.50497996202648 
	8668.482266059416361 1466.298847856672182 14391.28066771595331 
	8648.58464786026525 1453.534452968004643 14370.93680284289258 
	8633.467650922342727 1443.836844112713379 14353.63597719039353 
	8618.905601034319261 1434.495235820727203 14335.67582188007873 
	8601.782290311566612 1423.51056933052223 14312.03589920547893 
	8583.07606638839934 1411.510458229690357 14281.92296688879287 
	8566.316429579792384 1400.759089886230186 14250.23332513785317 
	8549.961085647772052 1390.267076902598546 14213.46789447940318 
	8534.997553146793507 1380.667916045214042 14171.29387627058713 
	8522.610664059076953 1372.721681366478606 14123.58339666719985 
	8515.671542757523639 1368.27020965830684 14082.80118687642971 
	8512.191309512829321 1366.037627296161418 14049.80452551073722 
	8510.622427787247943 1365.031183927987513 14024.93324471773485 
	8510.099131908669733 1364.695487706915628 13999.9999707158222 
	8510.622372272775465 1365.031148315253176 13975.06667307087446 
	8512.191440802238503 1366.037711518801643 13950.19543643968791 
	8516.540958301662613 1368.827942911438413 13908.94946282877754 
	8527.467453595420011 1375.837329627128156 13852.07149589600704 
	8550.533557155209564 1390.634319469527782 13782.24727186592645 
	8582.100859132651749 1410.884859206405281 13717.28698249413355 
	8612.717704856044293 1430.525677778156478 13671.6748059238198 
	8637.148184863364804 1446.197920104518971 13641.91807236627392 
	8657.666245375552535 1459.360331007522291 13619.29867149716119 
	8685.046634916194307 1476.924951094462813 13593.35750784653646 
	8726.231552071003534 1503.345226162617109 13561.75278838754093 
	8767.313573475657904 1529.699493230458529 13538.24841750115593 
	8806.95896893324425 1555.132159496070926 13521.76849723989289 
	8842.458056885963742 1577.904954324175151 13510.46661241735092 
	8876.131849960907857 1599.506815808565307 13503.66930151063752 
	8907.512190302857562 1619.637418972097976 13500.52504096920165 
	8938.99155018653255 1639.831543533991862 13499.47523991144408 
	8978.340692244944876 1665.074162159769458 13502.1004086094581 
	9019.785344007184904 1691.661057928911532 13510.46668398642214 
	9055.28444509624569 1714.433861183945055 13521.76842541181941 
	9094.929728054230509 1739.866455280641048 13538.24866194338028 
	9132.851707576994158 1764.193543917004035 13559.94466411971553 
	9168.415028480680121 1787.007544418020188 13586.49536583301051 
	9197.985678566063143 1805.977224659274953 13612.42306369200196 
	9229.33143949827172 1826.085645004560774 13645.70383828955892 
	9260.84524820480874 1846.301868611859618 13687.60013103667552 
	9288.212509423401571 1863.858066831709493 13733.42511075099355 
	9311.089399373657216 1878.533675450353712 13782.60225290159724 
	9329.187666039686519 1890.143779744274298 13834.513473503368 
	9342.280267060999904 1898.542731209612157 13888.50569876359441 
	9348.881665669639915 1902.777552572690638 13934.66767945553147 
	9351.197380668716505 1904.263092218285237 13967.2896844027382 
	9351.77676348791465 1904.634768416850193 13983.63926684377839 
	9351.921614440374469 1904.727690832883354 13991.81888982298551 
	9351.957831778985565 1904.750924388129306 13995.90930387624576 
	9351.966885639143584 1904.756732472547355 13997.95458649303873 
	9351.969472540613424 1904.758391979308954 13999.12333015677723 
	9351.969903724604592 1904.758668585416217 13999.70770379541864 
	9351.969903720389993 1904.758668582712289 13999.99989061165979 
	9423.250734315484806 1792.100083238486377 13999.99989061165979 
	9423.250734550772904 1792.100082747416991 14002.33738514159086 
	9423.222593785681966 1792.083329561708751 14007.01237380718703 
	9423.053789622341355 1791.982816226711066 14016.36051372239854 
	9422.462997262415229 1791.631053868810568 14032.71009647819119 
	9420.101657865125162 1790.225058003956747 14065.33208811611621 
	9413.370320595238809 1786.217096572763467 14111.49407875594261 
	9402.244802519324367 1779.592746350498601 14156.48751597095179 
	9390.792685609909313 1772.773946067586394 14191.44193400236145 
	9377.677134997446046 1764.964689516973976 14225.5935536303441 
	9358.238011433191787 1753.390268823067572 14266.5747049146994 
	9330.33163606000744 1736.774278443661842 14312.39944926050885 
	9298.197488025405619 1717.640999596916117 14354.29598081834411 
	9263.570852344651939 1697.023641708191462 14390.34990814588673 
	9227.327701597578198 1675.443779445628024 14420.70970657614998 
	9190.21661716552444 1653.347132344948022 14445.67389301330149 
	9154.411622228179112 1632.02815835585875 14464.4977823147492 
	9120.723585781806833 1611.969661670090545 14478.23158254008376 
	9079.35432621389009 1587.337615571289007 14491.1485435907889 
	9026.305324432176349 1555.751236749678128 14500.46604725438374 
	8961.92675245229475 1517.419006786284399 14500.46565155947064 
	8908.877681384276002 1485.83258295179985 14491.14878656189649 
	8867.508351217062227 1461.200491648372918 14478.23206050257977 
	8837.189159995408772 1443.147871777140608 14465.87155323331535 
	8812.654627196647198 1428.539541176409557 14453.39924638926277 
	8795.936360711450106 1418.585168689972534 14443.56575465167225 
	8786.523313144922213 1412.980460259146867 14437.63741452230352 
	8772.548899616696872 1404.659829860084301 14428.43889512458372 
	8752.150250457691072 1392.514085253102849 14413.50497996202648 
	8726.305198892287081 1377.125448530116955 14391.28066771595331 
	8706.015795551888004 1365.044752320376801 14370.93680284289258 
	8690.601145016364171 1355.866574525717851 14353.63597719039353 
	8675.752367121165662 1347.025331201868767 14335.67582188007873 
	8658.291898183877493 1336.629034717562035 14312.03589920547893 
	8639.217348251097064 1325.271684098623382 14281.92296688879287 
	8622.127712733527005 1315.09619180969321 14250.23332513785317 
	8605.450332405182053 1305.166159962028814 14213.46789447940318 
	8590.192164691192374 1296.081162825248157 14171.29387627058713 
	8577.561375957899145 1288.560553949831274 14123.58339666719985 
	8570.485622140038686 1284.347517702994537 14082.80118687642971 
	8566.936866063835623 1282.234513559739753 14049.80452551073722 
	8565.337090221602921 1281.281983075229391 14024.93324471773485 
	8564.803494470435908 1280.964261015351212 13999.9999707158222 
	8565.337033005265766 1281.281950432394069 13975.06667307087446 
	8566.937001423988477 1282.2345906785838 13950.19543643968791 
	8571.372153385669662 1284.875382588831144 13908.94946282877754 
	8582.513797508667267 1291.509316141964291 13852.07149589600704 
	8606.034071019235853 1305.513740461415864 13782.24727186592645 
	8638.22293781303415 1324.679596275732365 13717.28698249413355 
	8669.442626332269356 1343.268402456697913 13671.6748059238198 
	8694.354152521951619 1358.101177930549966 13641.91807236627392 
	8715.276208307404886 1370.55858242686827 13619.29867149716119 
	8743.195723888313296 1387.182381327146004 13593.35750784653646 
	8785.191570736136782 1412.187514519194337 13561.75278838754093 
	8827.082493924113805 1437.130178587293813 13538.24841750115593 
	8867.508513127142578 1461.200589454965666 13521.76849723989289 
	8903.706576370763287 1482.753612442132408 13510.46661241735092 
	8938.043410521697297 1503.198410373054458 13503.66930151063752 
	8970.041630061619799 1522.250761334257277 13500.52504096920165 
	9002.140820903896383 1541.363227704102883 13499.47523991144408 
	9042.264748319459613 1565.253779420326737 13502.1004086094581 
	9084.52544919128195 1590.416599492305522 13510.46668398642214 
	9120.723526711271916 1611.969628916954434 13521.76842541181941 
	9161.149432014439299 1636.03997005928386 13538.24866194338028 
	9199.818092211240582 1659.064036868954418 13559.94466411971553 
	9236.081652305294483 1680.65605991604707 13586.49536583301051 
	9266.234553705380677 1698.609661667447881 13612.42306369200196 
	9298.197512893511885 1717.641018112694383 13645.70383828955892 
	9330.331830350998644 1736.774400722155406 13687.60013103667552 
	9358.23795547897862 1753.390235196211506 13733.42511075099355 
	9381.565289257448967 1767.279780695412001 13782.60225290159724 
	9400.019913835851185 1778.268009863750649 13834.513473503368 
	9413.370307631979813 1786.217090823492299 13888.50569876359441 
	9420.101690965242597 1790.225077691975685 13934.66767945553147 
	9422.462998053471892 1791.631055231094251 13967.2896844027382 
	9423.053792374594195 1791.982817379921244 13983.63926684377839 
	9423.201493437842146 1792.070766108144198 13991.81888982298551 
	9423.238424954677612 1792.092753361128189 13995.90930387624576 
	9423.247656652538353 1792.098251103498114 13997.95458649303873 
	9423.250294520445095 1792.09982166945656 13999.12333015677723 
	9423.250734286073566 1792.100083299869993 13999.70770379541864 
	9423.250734315484806 1792.100083238486377 13999.99989061165979 
	9494.531568706994221 1679.441491269286189 13999.99989061165979 
	9494.531568402277117 1679.441491720567001 14002.33738514159086 
	9494.502886280784878 1679.425683248213772 14007.01237380718703 
	9494.330818978214666 1679.3308643710875 14016.36051372239854 
	9493.728624254979877 1678.999000115253239 14032.71009647819119 
	9491.321679617783957 1677.672589306068176 14065.33208811611621 
	9484.460365510794873 1673.891448605051664 14111.49407875593897 
	9473.120011114277077 1667.642006190958909 14156.48751597094997 
	9461.446762616082196 1661.20909949920042 14191.44193400235963 
	9448.077945812274265 1653.841814177729702 14225.59355363034047 
	9428.263458823801557 1642.922434857864573 14266.57470491469758 
	9399.818212862073779 1627.246819879944269 14312.39944926050339 
	9367.063563381716449 1609.196369282830119 14354.29598081834047 
	9331.768292866638149 1589.74583653570653 14390.34990814588309 
	9294.825292171068213 1569.387272466603918 14420.70970657614816 
	9256.997597608651631 1548.541171514439384 14445.67389301329786 
	9220.501215138234329 1528.428728077996084 14464.49778231474374 
	9186.162669229246603 1509.50542620539477 14478.23158254007649 
	9143.994574429752902 1486.267416110021486 14491.14854359078345 
	9089.921210418173359 1456.468637249629182 14500.4660472543801 
	9024.299495876375659 1420.305797693926252 14500.46565155946519 
	8970.226057997853786 1390.506981814267874 14491.14878656189285 
	8928.057888502242349 1367.2689336635774 14478.23206050257249 
	8897.153241627769603 1350.23798412708129 14465.87155323331172 
	8872.14494844958972 1336.456406027743469 14453.39924638925368 
	8855.103856237032232 1327.065392127643918 14443.56575465166497 
	8845.509043558840858 1321.777879408533636 14437.63741452229624 
	8831.264787509710004 1313.928147355628653 14428.43889512457645 
	8810.472243092368444 1302.469783762897123 14413.50497996201739 
	8784.128126698924461 1287.952057974780246 14391.28066771594422 
	8763.446938790975764 1276.555059442810943 14370.93680284288712 
	8747.734632509496805 1267.896316457843341 14353.63597719038626 
	8732.599128480651416 1259.555434832660467 14335.67582188007327 
	8714.80149981959039 1249.747510988004706 14312.03589920547529 
	8695.3586228681379 1239.032922611851973 14281.92296688878741 
	8677.938990880234996 1229.433302470850776 14250.23332513784771 
	8660.939571088174489 1220.065257112016297 14213.46789447939955 
	8645.3867760229532 1211.494409976356792 14171.29387627058532 
	8632.512091459289877 1204.399420246393447 14123.58339666719985 
	8625.2997078919052 1200.424814632619928 14082.80118687642971 
	8621.682419656161073 1198.431404986474945 14049.80452551073722 
	8620.051758003186478 1197.532772891098375 14024.93324471773485 
	8619.507850842770495 1197.233045124877435 13999.9999707158222 
	8620.051700911333683 1197.53274003103229 13975.06667307087446 
	8621.682554630109735 1198.431482779279122 13950.19543643968791 
	8626.203364221859374 1200.922794777319723 13908.94946282877754 
	8637.560140159841467 1207.181304859229158 13852.07149589600704 
	8661.534591454099427 1220.393149986633034 13782.24727186592645 
	8694.345013177464352 1238.474339131681745 13717.28698249413355 
	8726.167557094893709 1256.011110929682445 13671.6748059238198 
	8751.560102496232503 1270.00446661721594 13641.91807236627392 
	8772.886172191932928 1281.756832183717052 13619.29867149716119 
	8801.344798801832439 1297.439836093293707 13593.35750784653646 
	8844.151584583620206 1321.029811282985975 13561.75278838754093 
	8886.851424459824557 1344.560846341008073 13538.24841750115593 
	8928.058054748546056 1367.269023903089646 13521.76849723989108 
	8964.955103072707061 1387.602257965561876 13510.4666124173491 
	8999.954970332284574 1406.890006246717803 13503.66930151063752 
	9032.571072190838095 1424.86409955977706 13500.52504096919984 
	9065.290090927472193 1442.894913084941209 13499.47523991144044 
	9106.18880647914375 1465.433393042090529 13502.10040860945446 
	9149.26555000823646 1489.172148676746474 13510.4666839864185 
	9186.162611104668031 1509.505391801480755 13521.76842541181577 
	9227.369123648681125 1532.213506347806742 13538.24866194337483 
	9266.784478674424463 1553.934526629267566 13559.94466411971189 
	9303.748290298693973 1574.304550688346353 13586.49536583300687 
	9334.483431149186799 1591.242094654115363 13612.4230636919965 
	9367.063591929863833 1609.196381376623776 13645.70383828955346 
	9399.818416593338043 1627.246925684343751 13687.60013103667006 
	9428.263401520374828 1642.922403585500433 13733.42511075098992 
	9452.041188455497831 1656.025869686336137 13782.60225290159542 
	9470.852164134035775 1666.392235617049664 13834.51347350336437 
	9484.460353996060803 1673.891440327987993 13888.50569876359441 
	9491.321713339439157 1677.672607909444196 13934.66767945552783 
	9493.728625830281089 1678.999000108971359 13967.2896844027382 
	9494.330821364717849 1679.330866162558777 13983.63926684377839 
	9494.481378570662855 1679.413830676782709 13991.81888982298551 
	9494.519021093870833 1679.434577162654477 13995.90930387624576 
	9494.528431929002181 1679.439762295124638 13997.95458649303873 
	9494.531120672636462 1679.441244078572936 13999.12333015677723 
	9494.53156874508386 1679.441491212875917 13999.70770379541864 
	9494.531568706994221 1679.441491269286189 13999.99989061165979 
	9565.812399302089034 1566.782905925060277 13999.99989061165979 
	9565.812399266376815 1566.782905906904034 14002.33738514159086 
	9565.783172762168761 1566.768047429086891 14007.01237380718703 
	9565.607847608311204 1566.678913781918482 14016.36051372239854 
	9564.994241997912468 1566.366962503012473 14032.71009647819119 
	9562.541704265673616 1565.120115555668917 14065.33208811611621 
	9555.550407157134032 1561.565806342340011 14111.49407875593897 
	9543.995223043084479 1555.691260213498026 14156.48751597094997 
	9532.100832770978741 1549.644264886821702 14191.44193400235963 
	9518.478760357998908 1542.718932327702078 14225.59355363034047 
	9498.288905829285795 1532.454601564696986 14266.57470491469758 
	9469.304794019188193 1517.719353716259548 14312.39944926050339 
	9435.929637850776999 1500.751740517054486 14354.29598081834047 
	9399.965733012752025 1482.468032019127804 14390.34990814588309 
	9362.322883594852101 1463.330764003731019 14420.70970657614816 
	9323.778580913987753 1443.73520568912204 14445.67389301329786 
	9286.590809609981079 1424.8292950748355 14464.49778231474374 
	9251.601752998278243 1407.041190179478917 14478.23158254007649 
	9208.634825659719354 1385.197211388875985 14491.14854359078345 
	9153.537091930547831 1357.186045556430145 14500.4660472543801 
	9086.67223958674731 1323.192588101962656 14500.46565155946519 
	9031.574432227580473 1295.181384836756934 14491.14878656189285 
	8988.607430157209819 1273.337368053124237 14478.23206050257249 
	8957.11732345243945 1257.328096141420247 14465.87155323331172 
	8931.635273894875354 1244.373263563075625 14453.39924638925368 
	8914.271354207125114 1235.5456112994259 14443.56575465166497 
	8904.494777534557215 1230.575292342275361 14437.63741452229624 
	8889.980677411293073 1223.196461346038859 14428.43889512457645 
	8868.794238903805308 1212.42547672897058 14413.50497996201739 
	8841.951059531791543 1198.77865864823184 14391.28066771594422 
	8820.878086482594881 1188.065358795189468 14370.93680284288712 
	8804.868126603514611 1179.926046870854179 14353.63597719038626 
	8789.445894567494179 1172.085530213807715 14335.67582188007327 
	8771.311107691897632 1162.865976375050195 14312.03589920547529 
	8751.499904730831986 1152.794148480789772 14281.92296688878741 
	8733.750274033967798 1143.770404394318348 14250.23332513784771 
	8716.428817845582671 1134.964340171449976 14213.46789447939955 
	8700.581387567350248 1126.90765675639409 14171.29387627058532 
	8687.46280335811025 1120.238292829747934 14123.58339666719985 
	8680.113787274418428 1116.502122677309444 14082.80118687642971 
	8676.427976207167376 1114.628291250053962 14049.80452551073722 
	8674.766420437541456 1113.783572038340708 14024.93324471773485 
	8674.212213404536669 1113.501818433313019 13999.9999707158222 
	8674.766361643823984 1113.783542148172728 13975.06667307087446 
	8676.428115251859708 1114.628361939060369 13950.19543643968791 
	8681.034559305866424 1116.97023445471109 13908.94946282877754 
	8692.606484073090542 1122.853291374062565 13852.07149589600704 
	8717.035105318129354 1135.272570978517479 13782.24727186592645 
	8750.467091857850392 1152.2690762010036 13717.28698249413355 
	8782.89247857112241 1168.753835608218196 13671.6748059238198 
	8808.766070154824774 1181.907724443240568 13641.91807236627392 
	8830.496135123788918 1192.955083603056437 13619.29867149716119 
	8859.493887773956885 1207.697266325969849 13593.35750784653646 
	8903.111603248757092 1229.872099639555699 13561.75278838754093 
	8946.620344908285915 1251.991531697835171 13538.24841750115593 
	8988.60759894244984 1273.337453861976201 13521.76849723989108 
	9026.203622557512062 1292.450916083510265 13510.4666124173491 
	9061.866530893079471 1310.581600811198314 13503.66930151063752 
	9095.100511949605789 1327.477441921927493 13500.52504096919984 
	9128.439361644841483 1344.426597255043362 13499.47523991144044 
	9170.112862553663945 1365.613010302638941 13502.10040860945446 
	9214.005655192338963 1387.927690240132051 13510.4666839864185 
	9251.601692719699713 1407.041159534481721 13521.76842541181577 
	9293.588827608895372 1428.387021126441823 13538.24866194337483 
	9333.750863308676344 1448.80501958120999 13559.94466411971189 
	9371.414914123311974 1467.953066186366186 13586.49536583300687 
	9402.732306288507971 1483.87453166228147 13612.4230636919965 
	9435.929665325107635 1500.751754484751018 13645.70383828955346 
	9469.304998739531584 1517.719457794634081 13687.60013103667006 
	9498.288847575955515 1532.454571949997671 13733.42511075098992 
	9522.517078339293221 1544.77197493139056 13782.60225290159542 
	9541.684411930202259 1554.51646573652306 13834.51347350336437 
	9555.550394567042531 1561.565799941866317 13888.50569876359441 
	9562.541738635043657 1565.120133028727878 13934.66767945552783 
	9564.994243215038296 1566.366963121779918 13967.2896844027382 
	9565.607850251397394 1566.678915125629601 13983.63926684377839 
	9565.761257568130532 1566.756905952043326 13991.81888982298551 
	9565.799614269562881 1566.77640613565336 13995.90930387624576 
	9565.809202942396951 1566.781280926075169 13997.95458649303873 
	9565.811942652468133 1566.782673768720542 13999.12333015677723 
	9565.812399306552834 1566.782905927329693 13999.70770379541864 
	9565.812399302089034 1566.782905925060277 13999.99989061165979 
	0 
	
	0 
	0 
	79 0 0.002232142857142857019 0.004464285714285714038 0.008928571428571428076 0.01785714285714285615 0.0357142857142857123 0.05357142857142856845 0.0625 0.07142857142857142461 0.08928571428571427382 0.1071428571428571369 0.125 0.1428571428571428492 0.1587301587301587213 0.1746031746031745935 0.1904761904761904656 0.2023809523809523836 0.2142857142857142738 0.238095238095238082 0.2619047619047618625 0.2857142857142856984 0.2976190476190476164 0.3095238095238095344 0.3214285714285713969 0.3273809523809523281 0.3303571428571427937 0.3333333333333333148 0.3452380952380952328 0.3571428571428570953 0.3690476190476190133 0.375 0.3809523809523809312 0.3928571428571428492 0.4047619047619047672 0.4166666666666666297 0.4285714285714285476 0.4444444444444444198 0.4603174603174602919 0.476190476190476164 0.4841269841269840724 0.4920634920634920362 0.5 0.5079365079365079083 0.5158730158730158166 0.5238095238095237249 0.5476190476190475609 0.5714285714285713969 0.5952380952380951218 0.6190476190476189577 0.6269841269841269771 0.6349206349206348854 0.650793650793650702 0.6666666666666666297 0.6904761904761904656 0.7023809523809523281 0.7142857142857141906 0.7321428571428569843 0.7410714285714283811 0.749999999999999889 0.7678571428571427937 0.7857142857142855874 0.7976190476190474499 0.8095238095238094234 0.8333333333333332593 0.8452380952380951218 0.8571428571428570953 0.875 0.8928571428571427937 0.9107142857142856984 0.9285714285714286031 0.9464285714285713969 0.9642857142857143016 0.9821428571428572063 0.9910714285714286031 0.9955357142857143016 0.9977678571428572063 0.9988839285714286031 0.9994419642857143016 0.9997209821428572063 
	0 
	0 
	0 
	F 1 F 0 F 1 F 0 } I I I I #
tcoedge-coedge $-1 -1 $-1 $13 $13 $17 $18 reversed $8 $19 -6.283185307179586232 -2.363373179431679965e-31 #
tcoedge-coedge $-1 -1 $-1 $20 $21 $10 $15 reversed $11 $22 -6.283185307179586232 -1.772529883829579536e-30 #
tedge-edge $-1 -1 $-1 $23 1.772529883829579536e-30 $23 6.283185307179586232 $14 $24 forward @7 unknown 0.0007681216271274478183 #
pcurve $-1 -1 $-1 0 forward { exppc nurbs 2 periodic 5 
	1.772529883829579536e-30 2 1.570796326794896558 2 3.141592653589793116 2 4.712388980384689674 2 6.283185307179586232 2 
	-1.818989403545856476e-12 500 1 
	-500.000000000001819 499.999999999998181 0.7071067811865527908 
	-500 -1.818989403545856476e-12 1 
	-500 -500.000000000001819 0.7071067811865494601 
	0 -500 1 
	500 -500 0.7071067811865532349 
	500 0 1 
	499.999999999998181 500 0.7071067811865398012 
	-1.818989403545856476e-12 500 1 
	0 
	plane 9120.104628492899792 1340.189297884811822 14000 0.4531871434353523242 -0.8914153986918249561 5.197112580936172086e-15 0 -5.830180394643247452e-15 -1 forward_v I I I I 
	} 0 0 #
tcoedge-coedge $-1 -1 $-1 $21 $20 $13 $18 forward $11 $25 2.363373179431679965e-31 6.283185307179586232 #
tedge-edge $-1 -1 $-1 $26 2.363373179431679965e-31 $26 6.283185307179586232 $17 $27 forward @7 unknown 0.0007681217009798969311 #
pcurve $-1 -1 $-1 0 forward { exppc nurbs 2 periodic 5 
	-6.283185307179586232 2 -4.712388980384689674 2 -3.141592653589793116 2 -1.570796326794896558 2 -2.363373179431679965e-31 2 
	-3.637978807091712952e-12 500 1 
	499.999999999996362 500.000000000003638 0.7071067811865512365 
	500 3.637978807091712952e-12 1 
	500.000000000003638 -499.999999999996362 0.7071067811865477948 
	3.637978807091712952e-12 -500.0000000000009095 1 
	-499.999999999996362 -500.0000000000045475 0.7071067811865509034 
	-500 -5.456968210637569427e-12 1 
	-500.000000000003638 499.999999999994543 0.7071067811865481278 
	-3.637978807091712952e-12 500 1 
	0 
	plane 8931.121690643503825 1634.78299983921579 14000.00000000000182 -0.5399512509335046007 0.8416962911973318029 5.197112580936172875e-15 -9.625151477936295253e-15 0 -1 reverse_v I I I I 
	} 0 0 #
coedge $-1 -1 $-1 $17 $14 $21 $28 reversed $11 $29 #
coedge $-1 -1 $-1 $14 $17 $20 $28 forward $11 $30 #
pcurve $-1 -1 $-1 0 forward { exppc nubs 1 periodic 2 
	-6.283185307179586232 1 -1.772529883829579536e-30 1 
	1 1 
	0 1 
	1.855369191616773638e-12 
	spline forward { ref 0 } I I I I 
	} 0 0 #
tvertex-vertex $-1 -1 $-1 $15 $31 0.0001356176275216803835 #
ellipse-curve $-1 -1 $-1 9120.104628492899792 1340.189297884811822 14000 0.4531871434353523242 -0.8914153986918249561 5.197112580936172086e-15 445.7076993459125447 226.5935717176762125 0 1 I I #
pcurve $-1 -1 $-1 0 forward { exppc nubs 1 periodic 2 
	2.363373179431679965e-31 1 6.283185307179586232 1 
	0 0 
	1 0 
	1.009940015750612652e-11 
	spline forward { ref 0 } I I I I 
	} 0 0 #
tvertex-vertex $-1 -1 $-1 $18 $32 0.0001356171040444142646 #
ellipse-curve $-1 -1 $-1 8931.121690643503825 1634.78299983921579 14000.00000000000182 0.5399512509335046007 -0.8416962911973318029 -5.197112580936172875e-15 420.8481455986658943 269.9756254667523194 0 1 I I #
edge $-1 -1 $-1 $26 1.2302087563405876e-09 $23 0.999999981209006461 $21 $33 forward @7 tangent #
pcurve $-1 -1 $-1 -1 $33 0 0 #
pcurve $-1 -1 $-1 1 $33 1 0 #
point $-1 -1 $-1 9565.812327838812053 1566.782869602488063 14000 #
point $-1 -1 $-1 9351.969836242169549 1904.758625305968053 14000.00000000000182 #
intcurve-curve $-1 -1 $-1 forward { parcur full nubs 3 open 2 
	0 3 1 3 
	9351.969903720389993 1904.758668582712289 13999.99989061165979 
	9423.250734315484806 1792.100083238486377 13999.99989061165979 
	9494.531568706994221 1679.441491269286189 13999.99989061165979 
	9565.812399302089034 1566.782905925060277 13999.99989061165979 
	0 
	
	spline forward { ref 0 } I I I I 
	null_surface 
	nubs 1 open 2 
	0 1 1 1 
	0 0 
	0 1 
	
	nullbs 
	I I 
	0 
	0 
	0 
	surf1 } F 1.2302087563405876e-09 F 0.999999981209006461 #
End-of-ACIS-data 