700 0 1 0           
4 LibG 19 ASM 222.0.0.1700 NT 24 Wed Oct  5 17:29:54 2016 
1000 9.999999999999999547e-07 1.000000000000000036e-10 
body $-1 -1 $-1 $1 $-1 $-1 #
lump $-1 -1 $-1 $-1 $2 $0 #
shell $-1 -1 $-1 $-1 $-1 $3 $-1 $1 #
face $-1 -1 $-1 $4 $5 $2 $-1 $6 forward single #
face $-1 -1 $-1 $7 $8 $2 $-1 $9 reversed single #
loop $-1 -1 $-1 $-1 $10 $3 #
plane-surface $-1 -1 $-1 3808.360865420401751 3095.642797989803512 14000.00000000000182 1 -3.897834435702129261e-15 -5.197112580936172875e-15 -5.197112580936172875e-15 0 -1 forward_v I I I I #
face $-1 -1 $-1 $-1 $11 $2 $-1 $12 forward single #
loop $-1 -1 $-1 $-1 $13 $4 #
plane-surface $-1 -1 $-1 3458.360865378417657 3095.642797989804876 14000 1 -3.897834435702129261e-15 5.197112580936172875e-15 5.197112580936172875e-15 0 -1 forward_v I I I I #
tcoedge-coedge $-1 -1 $-1 $10 $10 $14 $15 forward $5 $16 -1.350498956678269526e-30 6.283185307179586232 #
loop $-1 -1 $-1 $-1 $17 $7 #
spline-surface $-1 -1 $-1 forward { exactsur full nubs 3 3 periodic open none none 85 2 
	0 3 0.002232142857142857019 1 0.004464285714285714038 1 0.008928571428571428076 1 0.01785714285714285615 1 
	0.02678571428571428423 1 0.0357142857142857123 1 0.05357142857142856845 1 0.07142857142857142461 1 0.08928571428571427382 1 
	0.1071428571428571369 1 0.125 1 0.1428571428571428492 1 0.1587301587301587213 1 0.1746031746031745935 1 
	0.1904761904761904656 1 0.2023809523809523836 1 0.2142857142857142738 1 0.238095238095238082 1 0.2619047619047618625 1 
	0.2857142857142856984 1 0.2976190476190476164 1 0.3095238095238095344 1 0.3214285714285713969 1 0.3273809523809523281 1 
	0.3333333333333333148 1 0.3452380952380952328 1 0.3571428571428570953 1 0.3690476190476190133 1 0.375 1 
	0.3809523809523809312 1 0.3869047619047618625 1 0.3928571428571428492 1 0.4047619047619047672 1 0.4166666666666666297 1 
	0.4285714285714285476 1 0.4444444444444444198 1 0.4603174603174602919 1 0.476190476190476164 1 0.4801587301587301182 1 
	0.4841269841269840724 1 0.4880952380952380265 1 0.4900793650793650036 1 0.4920634920634920362 1 0.5158730158730158166 1 
	0.5238095238095237249 1 0.5357142857142855874 1 0.5476190476190475609 1 0.5595238095238095344 1 0.5714285714285713969 1 
	0.5952380952380951218 1 0.6190476190476189577 1 0.6269841269841269771 1 0.6309523809523809312 1 0.6349206349206348854 1 
	0.650793650793650702 1 0.6666666666666666297 1 0.6785714285714286031 1 0.6904761904761904656 1 0.7023809523809523281 1 
	0.7142857142857141906 1 0.7321428571428569843 1 0.749999999999999889 1 0.7678571428571427937 1 0.7857142857142855874 1 
	0.7976190476190474499 1 0.8095238095238094234 1 0.8333333333333332593 1 0.8452380952380951218 1 0.851190476190476053 1 
	0.8571428571428570953 1 0.875 1 0.8928571428571427937 1 0.9107142857142856984 1 0.9285714285714286031 1 
	0.9464285714285713969 1 0.9642857142857143016 1 0.9821428571428572063 1 0.9910714285714286031 1 0.9955357142857143016 1 
	0.9977678571428572063 1 0.9988839285714286031 1 0.9994419642857143016 1 0.9997209821428572063 1 1 3 
	0 3 1 3 
	3458.360865373247634 3595.642862575084109 13999.99989136269505 
	3458.360865373248998 3595.642862532296022 14002.33738589588029 
	3458.360865373269917 3595.610078540923951 14007.01237479499105 
	3458.360865373286742 3595.413388116237911 14016.36051411936023 
	3458.36086537336314 3594.725083701665881 14032.71010041716363 
	3458.360865373581419 3592.759697783645152 14056.01150958256039 
	3458.36086537378651 3588.836916057602139 14083.79692241908015 
	3458.360865374003879 3581.538028152261631 14120.49271954307005 
	3458.360865374694185 3568.575872104388964 14165.48629093947238 
	3458.360865375228514 3547.073406496485859 14217.39738480565757 
	3458.360865375825142 3519.89418428702993 14266.57467583056132 
	3458.360865376275797 3487.379547998980797 14312.39946035194043 
	3458.360865376848778 3449.938885633823702 14354.29597652631128 
	3458.360865376911534 3409.594176503002927 14390.34990994888722 
	3458.360865377359005 3367.365991174438932 14420.70970614675571 
	3458.360865377389473 3324.126552612293381 14445.67389317526249 
	3458.360865377473601 3282.408883567222347 14464.49778229210642 
	3458.360865377536811 3243.157759037583673 14478.23158123763824 
	3458.360865377615937 3194.956965817716537 14491.14854474989261 
	3458.36086537770916 3133.147697342083575 14500.46603845439313 
	3458.36086537787105 3058.137928602046941 14500.46566508997785 
	3458.360865377985192 2996.328585684681002 14491.14874971568679 
	3458.360865378022936 2948.127687473300739 14478.23209999708342 
	3458.360865378058861 2912.801779869903839 14465.87138457051515 
	3458.360865378080689 2884.215682256644868 14453.39921882506133 
	3458.360865378099788 2861.953933400583992 14442.16089234802166 
	3458.360865378108883 2840.127884997001729 14430.09814714109052 
	3458.360865378152084 2813.719873111209836 14413.5049420284995 
	3458.36086537816027 2783.606911638948532 14391.28058661227988 
	3458.360865378178914 2759.967013985299673 14370.93674018323873 
	3458.360865378181643 2742.006845462143247 14353.63592326996331 
	3458.360865378186645 2729.031251788251666 14340.16578151833346 
	3458.360865378188919 2716.568437641727087 14326.2198469081959 
	3458.360865378192102 2700.658173474560954 14307.01700325694219 
	3458.360865378202107 2682.137765487289926 14281.92293866328146 
	3458.360865378206654 2662.226019070134953 14250.23329742378883 
	3458.36086537821302 2642.794637031479851 14213.46786631555187 
	3458.360865378221661 2625.016713826382784 14171.29389159855054 
	3458.360865378223934 2610.300068932876911 14123.58343079579208 
	3458.360865378234394 2602.880217906026701 14086.87945190079154 
	3458.360865378234848 2599.471586860519437 14062.1783084985218 
	3458.360865378235303 2598.075651582733371 14049.78910117620035 
	3458.360865378233484 2597.17008262176887 14039.43896109359048 
	3458.360865378234848 2596.600738158407694 14031.14723990704806 
	3458.360865378236667 2594.968887314811127 14002.10359669333957 
	3458.360865378241215 2595.853130511343807 13966.69376192099116 
	3458.360865378240305 2601.539731131753342 13921.32342188113398 
	3458.360865378240305 2607.724141060896727 13888.63577343058023 
	3458.360865378238032 2617.410781915655207 13852.48489649564181 
	3458.360865378235758 2629.772056147470721 13817.15919987939196 
	3458.36086537822348 2649.726234538662084 13771.42092826467524 
	3458.360865378198014 2680.979067836161903 13717.28704255229059 
	3458.360865378169819 2717.35450417999391 13671.67497903223557 
	3458.360865378153449 2743.477375910847513 13644.89405150788298 
	3458.360865378151175 2755.521273411725815 13633.43612208094601 
	3458.360865378143899 2774.009995275439906 13616.70495155897515 
	3458.360865378124799 2803.286763823882211 13593.35746261327586 
	3458.360865378109793 2841.732981302101052 13568.52631050014861 
	3458.360865378056587 2878.498656697622664 13549.09548826834362 
	3458.360865378037033 2912.801877394844723 13534.12887140436396 
	3458.360865377982464 2948.127785635596865 13521.76809054136902 
	3458.360865377921073 2990.30360520565273 13510.46655885995824 
	3458.360865377885148 3039.542937877342411 13502.10023641036059 
	3458.360865377735536 3095.642809004776609 13498.95010234013535 
	3458.360865377562277 3151.742547401482625 13502.10040796292924 
	3458.360865377519076 3200.982038280365032 13510.46648511576495 
	3458.360865377395839 3243.157562233917361 13521.76862802433971 
	3458.360865377340815 3290.25943401335644 13538.24836285829588 
	3458.360865377210303 3335.313563622379206 13559.94458157668487 
	3458.360865377108894 3372.284038018649881 13583.17650318250708 
	3458.360865377086157 3392.622224081421336 13597.60707682204156 
	3458.360865377048412 3417.352812356914455 13616.58327778458624 
	3458.360865376837864 3449.938932805604964 13645.70372510321431 
	3458.360865376584115 3487.379720834042928 13687.60014843180397 
	3458.360865376329457 3519.894158223640261 13733.42507338716314 
	3458.36086537591882 3547.073656843484059 13782.60224940419903 
	3458.360865375089816 3568.575802165956702 13834.51346107673453 
	3458.36086537445226 3584.130821555661896 13888.50569642997471 
	3458.360865373608249 3591.973796799853517 13934.66767817169239 
	3458.360865373356773 3594.725045282781139 13967.28968488693317 
	3458.360865373275374 3595.413397059385716 13983.63926748966696 
	3458.36086537325491 3595.58549118624569 13991.81889055670217 
	3458.360865373248544 3595.628520207145812 13995.90930462329743 
	3458.360865373248089 3595.639276873409926 13997.95458724326636 
	3458.360865373247179 3595.642350342601276 13999.12333091013716 
	3458.360865373247634 3595.642862580432848 13999.70770454604826 
	3458.360865373247634 3595.642862575084109 13999.99989136269505 
	3575.027532053908999 3595.642862575083655 13999.99989136269505 
	3575.027532053910363 3595.642862532295567 14002.33738589588029 
	3575.027532053931282 3595.610078540923496 14007.01237479499105 
	3575.027532053948107 3595.413388116237456 14016.36051411936023 
	3575.02753205402405 3594.725083701665426 14032.71010041716363 
	3575.027532054242783 3592.759697783644697 14056.01150958256039 
	3575.027532054446965 3588.836916057601684 14083.79692241908015 
	3575.027532054664334 3581.538028152261177 14120.49271954307005 
	3575.027532055354641 3568.575872104388509 14165.48629093947238 
	3575.027532055888059 3547.073406496485404 14217.39738480565757 
	3575.027532056484688 3519.894184287029475 14266.57467583056132 
	3575.027532056934888 3487.379547998980343 14312.39946035194043 
	3575.027532057507869 3449.938885633823247 14354.29597652631128 
	3575.027532057569715 3409.594176503002473 14390.34990994888722 
	3575.027532058017641 3367.365991174438477 14420.70970614675571 
	3575.027532058047655 3324.126552612292926 14445.67389317526249 
	3575.027532058131783 3282.408883567221892 14464.49778229210642 
	3575.027532058194993 3243.157759037583219 14478.23158123763824 
	3575.027532058273664 3194.956965817716082 14491.14854474989261 
	3575.027532058367342 3133.14769734208312 14500.46603845439313 
	3575.027532058528777 3058.137928602046486 14500.46566508997785 
	3575.027532058643374 2996.328585684680547 14491.14874971568679 
	3575.027532058680663 2948.127687473300284 14478.23209999708342 
	3575.027532058717497 2912.801779869903385 14465.87138457051515 
	3575.027532058738871 2884.215682256644413 14453.39921882506133 
	3575.027532058758425 2861.953933400583537 14442.16089234802166 
	3575.027532058767065 2840.127884997001274 14430.09814714109052 
	3575.027532058810721 2813.719873111209381 14413.5049420284995 
	3575.027532058818906 2783.606911638948077 14391.28058661227988 
	3575.027532058837551 2759.967013985299218 14370.93674018323873 
	3575.027532058840734 2742.006845462142792 14353.63592326996331 
	3575.027532058845281 2729.031251788251211 14340.16578151833346 
	3575.02753205884801 2716.568437641726632 14326.2198469081959 
	3575.027532058851193 2700.658173474560499 14307.01700325694219 
	3575.027532058861652 2682.137765487289471 14281.92293866328146 
	3575.0275320588662 2662.226019070134498 14250.23329742378883 
	3575.027532058872566 2642.794637031479397 14213.46786631555187 
	3575.027532058882116 2625.016713826382329 14171.29389159855054 
	3575.02753205888439 2610.300068932876457 14123.58343079579208 
	3575.027532058895304 2602.880217906026246 14086.87945190079154 
	3575.027532058895758 2599.471586860518983 14062.1783084985218 
	3575.027532058896213 2598.075651582732917 14049.78910117620035 
	3575.027532058894394 2597.170082621768415 14039.43896109359048 
	3575.027532058896213 2596.600738158407239 14031.14723990704806 
	3575.027532058897577 2594.968887314810672 14002.10359669333957 
	3575.027532058903034 2595.853130511343352 13966.69376192099116 
	3575.027532058902125 2601.539731131752887 13921.32342188113398 
	3575.02753205890258 2607.724141060896272 13888.63577343058023 
	3575.027532058900306 2617.410781915654752 13852.48489649564181 
	3575.027532058898487 2629.772056147470266 13817.15919987939196 
	3575.027532058886209 2649.726234538661629 13771.42092826467524 
	3575.027532058861652 2680.979067836161448 13717.28704255229059 
	3575.027532058833458 2717.354504179993455 13671.67497903223557 
	3575.027532058817087 2743.477375910847059 13644.89405150788298 
	3575.027532058815268 2755.52127341172536 13633.43612208094601 
	3575.027532058807992 2774.009995275439451 13616.70495155897515 
	3575.027532058788893 2803.286763823881756 13593.35746261327586 
	3575.027532058774341 2841.732981302100598 13568.52631050014861 
	3575.027532058720681 2878.498656697622209 13549.09548826834362 
	3575.027532058702036 2912.801877394844269 13534.12887140436396 
	3575.027532058647012 2948.12778563559641 13521.76809054136902 
	3575.027532058586075 2990.303605205652275 13510.46655885995824 
	3575.027532058549696 3039.542937877341956 13502.10023641036059 
	3575.027532058400539 3095.642809004776154 13498.95010234013535 
	3575.027532058226825 3151.74254740148217 13502.10040796292924 
	3575.027532058184079 3200.982038280364577 13510.46648511576495 
	3575.027532058060387 3243.157562233916906 13521.76862802433971 
	3575.027532058005363 3290.259434013355985 13538.24836285829588 
	3575.027532057874851 3335.313563622378751 13559.94458157668487 
	3575.027532057772987 3372.284038018649426 13583.17650318250708 
	3575.02753205775025 3392.622224081420882 13597.60707682204156 
	3575.027532057712506 3417.352812356914001 13616.58327778458624 
	3575.027532057501503 3449.938932805604509 13645.70372510321431 
	3575.027532057247754 3487.379720834042473 13687.60014843180397 
	3575.027532056992641 3519.894158223639806 13733.42507338716314 
	3575.027532056581549 3547.073656843483604 13782.60224940419903 
	3575.027532055752545 3568.575802165956247 13834.51346107673453 
	3575.027532055114079 3584.130821555661441 13888.50569642997471 
	3575.027532054270523 3591.973796799853062 13934.66767817169239 
	3575.027532054018138 3594.725045282780684 13967.28968488693317 
	3575.027532053936739 3595.413397059385261 13983.63926748966696 
	3575.027532053916275 3595.585491186245235 13991.81889055670217 
	3575.027532053909908 3595.628520207145357 13995.90930462329743 
	3575.027532053909454 3595.639276873409472 13997.95458724326636 
	3575.027532053908544 3595.642350342600821 13999.12333091013716 
	3575.027532053908999 3595.642862580432393 13999.70770454604826 
	3575.027532053908999 3595.642862575083655 13999.99989136269505 
	3691.69419873404695 3595.642862575084564 13999.99989136269687 
	3691.694198734047859 3595.642862532296476 14002.33738589588393 
	3691.694198734071506 3595.610078540924405 14007.01237479499468 
	3691.694198734087422 3595.413388116238366 14016.36051411936387 
	3691.694198734174734 3594.725083701664971 14032.71010041716545 
	3691.694198734413021 3592.759697783645152 14056.01150958256767 
	3691.694198734639485 3588.836916057602139 14083.7969224190856 
	3691.694198734878682 3581.538028152261177 14120.49271954307551 
	3691.69419873563902 3568.575872104388509 14165.48629093947602 
	3691.694198736227463 3547.073406496484949 14217.39738480566302 
	3691.694198736885483 3519.894184287028565 14266.57467583056496 
	3691.694198737382067 3487.379547998979433 14312.39946035194407 
	3691.694198738013256 3449.938885633821883 14354.29597652631128 
	3691.694198738081923 3409.594176503001108 14390.34990994888722 
	3691.694198738573959 3367.365991174437113 14420.70970614675571 
	3691.694198738606701 3324.126552612292016 14445.67389317526249 
	3691.694198738699924 3282.408883567220983 14464.49778229210642 
	3691.694198738769046 3243.157759037582764 14478.23158123763824 
	3691.694198738856812 3194.956965817715627 14491.14854474989625 
	3691.694198738958221 3133.147697342082211 14500.46603845439495 
	3691.694198739137391 3058.137928602046486 14500.46566508998148 
	3691.694198739262902 2996.328585684680547 14491.14874971568679 
	3691.694198739304738 2948.127687473300284 14478.23209999708524 
	3691.694198739344301 2912.801779869903385 14465.87138457051697 
	3691.694198739367494 2884.215682256643959 14453.39921882506496 
	3691.694198739389321 2861.953933400582628 14442.16089234802348 
	3691.694198739399781 2840.12788499700082 14430.09814714109234 
	3691.694198739448439 2813.719873111208472 14413.50494202850314 
	3691.694198739456624 2783.606911638946713 14391.28058661228351 
	3691.694198739477088 2759.967013985298308 14370.93674018324236 
	3691.694198739480271 2742.006845462141428 14353.63592326996877 
	3691.694198739485728 2729.031251788249847 14340.16578151833892 
	3691.694198739488002 2716.568437641725268 14326.21984690820136 
	3691.694198739492094 2700.658173474559135 14307.01700325694765 
	3691.694198739502554 2682.137765487287652 14281.92293866328509 
	3691.694198739508465 2662.226019070133134 14250.23329742379428 
	3691.694198739514832 2642.794637031477578 14213.46786631555733 
	3691.694198739524836 2625.016713826380965 14171.29389159855782 
	3691.694198739526655 2610.300068932875092 14123.58343079580118 
	3691.694198739537569 2602.880217906025337 14086.87945190080245 
	3691.694198739538479 2599.471586860517618 14062.17830849853272 
	3691.694198739538933 2598.075651582731552 14049.78910117621126 
	3691.694198739537114 2597.170082621767051 14039.43896109359775 
	3691.694198739538479 2596.60073815840633 14031.14723990705897 
	3691.694198739540752 2594.968887314809308 14002.10359669334866 
	3691.694198739546209 2595.853130511341988 13966.69376192100026 
	3691.6941987395453 2601.539731131751523 13921.3234218811449 
	3691.694198739546209 2607.724141060894908 13888.63577343059114 
	3691.694198739543481 2617.410781915653388 13852.48489649565272 
	3691.694198739541207 2629.772056147468902 13817.15919987940288 
	3691.694198739528019 2649.726234538660265 13771.42092826468433 
	3691.694198739499825 2680.979067836160084 13717.28704255229786 
	3691.694198739469812 2717.354504179992091 13671.67497903224103 
	3691.694198739451167 2743.477375910845694 13644.89405150789025 
	3691.694198739448893 2755.521273411723996 13633.43612208094964 
	3691.694198739440253 2774.009995275438541 13616.70495155898243 
	3691.694198739420244 2803.286763823881302 13593.35746261328313 
	3691.694198739403873 2841.732981302100143 13568.52631050015589 
	3691.694198739345666 2878.498656697621755 13549.09548826835089 
	3691.694198739323838 2912.801877394843814 13534.12887140436942 
	3691.694198739263811 2948.127785635595956 13521.76809054137448 
	3691.694198739196054 2990.30360520565182 13510.4665588599637 
	3691.694198739156491 3039.542937877341501 13502.10023641036423 
	3691.694198738991417 3095.642809004776154 13498.95010234013898 
	3691.694198738800878 3151.742547401481715 13502.1004079629347 
	3691.69419873875313 3200.982038280364122 13510.46648511576677 
	3691.69419873861716 3243.157562233915996 13521.76862802434334 
	3691.694198738556679 3290.259434013355076 13538.24836285829952 
	3691.694198738412524 3335.313563622377387 13559.94458157669033 
	3691.694198738301566 3372.284038018648971 13583.17650318251253 
	3691.6941987382761 3392.622224081419972 13597.6070768220452 
	3691.694198738234263 3417.352812356913091 13616.58327778458988 
	3691.694198738002342 3449.938932805604054 13645.70372510321977 
	3691.694198737722218 3487.379720834042018 13687.60014843181307 
	3691.694198737441639 3519.894158223638897 13733.4250733871686 
	3691.694198736989165 3547.073656843483604 13782.60224940420449 
	3691.694198736076487 3568.575802165956247 13834.51346107673999 
	3691.694198735374357 3584.130821555661441 13888.50569642997834 
	3691.694198734443944 3591.973796799853062 13934.66767817169602 
	3691.694198734167458 3594.725045282781593 13967.28968488693681 
	3691.694198734076963 3595.41339705938617 13983.6392674896706 
	3691.69419873405468 3595.585491186246145 13991.81889055670399 
	3691.694198734047859 3595.628520207146266 13995.90930462329925 
	3691.694198734047404 3595.639276873410381 13997.95458724326818 
	3691.694198734046495 3595.642350342601731 13999.12333091013898 
	3691.69419873404695 3595.642862580433302 13999.70770454605008 
	3691.69419873404695 3595.642862575084564 13999.99989136269687 
	3808.360865414708314 3595.642862575084109 13999.99989136269687 
	3808.360865414709224 3595.642862532296022 14002.33738589588393 
	3808.360865414732871 3595.610078540923951 14007.01237479499468 
	3808.360865414749242 3595.413388116237911 14016.36051411936387 
	3808.360865414836553 3594.725083701664516 14032.71010041716545 
	3808.360865415075295 3592.759697783644697 14056.01150958256767 
	3808.360865415302214 3588.836916057601684 14083.7969224190856 
	3808.360865415541411 3581.538028152260722 14120.49271954307551 
	3808.360865416302659 3568.575872104388054 14165.48629093947602 
	3808.360865416892011 3547.073406496484495 14217.39738480566302 
	3808.360865417550485 3519.894184287028111 14266.57467583056496 
	3808.360865418047979 3487.379547998978978 14312.39946035194407 
	3808.360865418679623 3449.938885633821428 14354.29597652631128 
	3808.360865418748745 3409.594176503000654 14390.34990994888722 
	3808.360865419241236 3367.365991174436658 14420.70970614675571 
	3808.360865419274432 3324.126552612291562 14445.67389317526249 
	3808.360865419367656 3282.408883567220528 14464.49778229210642 
	3808.360865419437232 3243.157759037582309 14478.23158123763824 
	3808.360865419524998 3194.956965817715172 14491.14854474989625 
	3808.360865419626407 3133.147697342081756 14500.46603845439495 
	3808.360865419805577 3058.137928602046031 14500.46566508998148 
	3808.360865419931088 2996.328585684680093 14491.14874971568679 
	3808.36086541997247 2948.127687473299829 14478.23209999708524 
	3808.360865420012033 2912.80177986990293 14465.87138457051697 
	3808.360865420035225 2884.215682256643504 14453.39921882506496 
	3808.360865420056598 2861.953933400582173 14442.16089234802348 
	3808.360865420067057 2840.127884997000365 14430.09814714109234 
	3808.36086542011526 2813.719873111208017 14413.50494202850314 
	3808.360865420123446 2783.606911638946258 14391.28058661228351 
	3808.360865420143455 2759.967013985297854 14370.93674018324236 
	3808.360865420146638 2742.006845462140973 14353.63592326996877 
	3808.36086542015164 2729.031251788249392 14340.16578151833892 
	3808.360865420153914 2716.568437641724813 14326.21984690820136 
	3808.360865420157552 2700.65817347455868 14307.01700325694765 
	3808.360865420168011 2682.137765487287197 14281.92293866328509 
	3808.360865420173013 2662.226019070132679 14250.23329742379428 
	3808.36086542017938 2642.794637031477123 14213.46786631555733 
	3808.360865420188475 2625.01671382638051 14171.29389159855782 
	3808.360865420189839 2610.300068932874638 14123.58343079580118 
	3808.360865420200298 2602.880217906024882 14086.87945190080245 
	3808.360865420200753 2599.471586860517164 14062.17830849853272 
	3808.360865420201208 2598.075651582731098 14049.78910117621126 
	3808.360865420198934 2597.170082621766596 14039.43896109359775 
	3808.360865420200298 2596.600738158405875 14031.14723990705897 
	3808.360865420202117 2594.968887314808853 14002.10359669334866 
	3808.360865420207119 2595.853130511341533 13966.69376192100026 
	3808.360865420205755 2601.539731131751068 13921.3234218811449 
	3808.360865420205755 2607.724141060894453 13888.63577343059114 
	3808.360865420202572 2617.410781915652933 13852.48489649565272 
	3808.360865420200298 2629.772056147468447 13817.15919987940288 
	3808.360865420185746 2649.72623453865981 13771.42092826468433 
	3808.360865420157552 2680.979067836159629 13717.28704255229786 
	3808.360865420126174 2717.354504179991636 13671.67497903224103 
	3808.360865420107984 2743.47737591084524 13644.89405150789025 
	3808.360865420105256 2755.521273411723541 13633.43612208094964 
	3808.360865420096616 2774.009995275438087 13616.70495155898243 
	3808.360865420075697 2803.286763823880847 13593.35746261328313 
	3808.360865420059326 2841.732981302099688 13568.52631050015589 
	3808.360865420000664 2878.4986566976213 13549.09548826835089 
	3808.360865419978836 2912.801877394843359 13534.12887140436942 
	3808.360865419918355 2948.127785635595501 13521.76809054137448 
	3808.360865419850597 2990.303605205651365 13510.4665588599637 
	3808.360865419811034 3039.542937877341046 13502.10023641036423 
	3808.360865419645961 3095.6428090047757 13498.95010234013898 
	3808.360865419455422 3151.742547401481261 13502.1004079629347 
	3808.360865419407673 3200.982038280363668 13510.46648511576677 
	3808.360865419272159 3243.157562233915542 13521.76862802434334 
	3808.360865419211677 3290.259434013354621 13538.24836285829952 
	3808.360865419067977 3335.313563622376932 13559.94458157669033 
	3808.360865418957019 3372.284038018648516 13583.17650318251253 
	3808.360865418932008 3392.622224081419517 13597.6070768220452 
	3808.360865418890626 3417.352812356912636 13616.58327778458988 
	3808.360865418658705 3449.938932805603599 13645.70372510321977 
	3808.36086541837949 3487.379720834041564 13687.60014843181307 
	3808.360865418099365 3519.894158223638442 13733.4250733871686 
	3808.360865417647801 3547.07365684348315 13782.60224940420449 
	3808.360865416735578 3568.575802165955793 13834.51346107673999 
	3808.360865416033903 3584.130821555660987 13888.50569642997834 
	3808.360865415104399 3591.973796799852607 13934.66767817169602 
	3808.360865414828368 3594.725045282781139 13967.28968488693681 
	3808.360865414738328 3595.413397059385716 13983.6392674896706 
	3808.360865414716045 3595.58549118624569 13991.81889055670399 
	3808.360865414709224 3595.628520207145812 13995.90930462329925 
	3808.360865414708769 3595.639276873409926 13997.95458724326818 
	3808.36086541470786 3595.642350342601276 13999.12333091013898 
	3808.360865414708314 3595.642862580432848 13999.70770454605008 
	3808.360865414708314 3595.642862575084109 13999.99989136269687 
	0 
	
	0 
	0 
	84 0 0.002232142857142857019 0.004464285714285714038 0.008928571428571428076 0.01785714285714285615 0.02678571428571428423 0.0357142857142857123 0.05357142857142856845 0.07142857142857142461 0.08928571428571427382 0.1071428571428571369 0.125 0.1428571428571428492 0.1587301587301587213 0.1746031746031745935 0.1904761904761904656 0.2023809523809523836 0.2142857142857142738 0.238095238095238082 0.2619047619047618625 0.2857142857142856984 0.2976190476190476164 0.3095238095238095344 0.3214285714285713969 0.3273809523809523281 0.3333333333333333148 0.3452380952380952328 0.3571428571428570953 0.3690476190476190133 0.375 0.3809523809523809312 0.3869047619047618625 0.3928571428571428492 0.4047619047619047672 0.4166666666666666297 0.4285714285714285476 0.4444444444444444198 0.4603174603174602919 0.476190476190476164 0.4801587301587301182 0.4841269841269840724 0.4880952380952380265 0.4900793650793650036 0.4920634920634920362 0.5158730158730158166 0.5238095238095237249 0.5357142857142855874 0.5476190476190475609 0.5595238095238095344 0.5714285714285713969 0.5952380952380951218 0.6190476190476189577 0.6269841269841269771 0.6309523809523809312 0.6349206349206348854 0.650793650793650702 0.6666666666666666297 0.6785714285714286031 0.6904761904761904656 0.7023809523809523281 0.7142857142857141906 0.7321428571428569843 0.749999999999999889 0.7678571428571427937 0.7857142857142855874 0.7976190476190474499 0.8095238095238094234 0.8333333333333332593 0.8452380952380951218 0.851190476190476053 0.8571428571428570953 0.875 0.8928571428571427937 0.9107142857142856984 0.9285714285714286031 0.9464285714285713969 0.9642857142857143016 0.9821428571428572063 0.9910714285714286031 0.9955357142857143016 0.9977678571428572063 0.9988839285714286031 0.9994419642857143016 0.9997209821428572063 
	0 
	0 
	0 
	F 1 F 0 F 1 F 0 } I I I I #
tcoedge-coedge $-1 -1 $-1 $13 $13 $17 $18 reversed $8 $19 -6.283185307179586232 -1.350498956678269526e-30 #
tcoedge-coedge $-1 -1 $-1 $20 $21 $10 $15 reversed $11 $22 -6.283185307179586232 1.350498956678269526e-30 #
tedge-edge $-1 -1 $-1 $23 -1.350498956678269526e-30 $23 6.283185307179586232 $14 $24 forward @7 unknown 0.000691516981708697933 #
pcurve $-1 -1 $-1 0 forward { exppc nurbs 2 periodic 5 
	-1.350498956678269526e-30 2 1.570796326794896558 2 3.141592653589793116 2 4.712388980384689674 2 6.283185307179586232 2 
	0 500 1 
	-500 500 0.7071067811865463515 
	-500 0 1 
	-500 -500 0.7071067811865463515 
	0 -500 1 
	500 -500 0.7071067811865463515 
	500 0 1 
	500 500 0.707106781186543798 
	0 500 1 
	0 
	plane 3808.360865420401751 3095.642797989803512 14000.00000000000182 1 -3.897834435702129261e-15 -5.197112580936172875e-15 -5.197112580936172875e-15 0 -1 forward_v I I I I 
	} 0 0 #
tcoedge-coedge $-1 -1 $-1 $21 $20 $13 $18 forward $11 $25 1.350498956678269526e-30 6.283185307179586232 #
tedge-edge $-1 -1 $-1 $26 1.350498956678269526e-30 $26 6.283185307179586232 $17 $27 forward @7 unknown 0.0006915169798064603425 #
pcurve $-1 -1 $-1 0 forward { exppc nurbs 2 periodic 5 
	-6.283185307179586232 2 -4.712388980384689674 2 -3.141592653589793116 2 -1.570796326794896558 2 -1.350498956678269526e-30 2 
	0 500 1 
	500 500 0.7071067811865463515 
	500 0 1 
	500 -500 0.7071067811865463515 
	0 -500 1 
	-500 -500 0.7071067811865463515 
	-500 0 1 
	-500 500 0.7071067811865463515 
	0 500 1 
	0 
	plane 3458.360865378417657 3095.642797989804876 14000 -1 3.897834435702129261e-15 -5.197112580936172875e-15 5.197112580936172875e-15 0 -1 reverse_v I I I I 
	} 0 0 #
coedge $-1 -1 $-1 $17 $14 $21 $28 reversed $11 $29 #
coedge $-1 -1 $-1 $14 $17 $20 $28 forward $11 $30 #
pcurve $-1 -1 $-1 0 forward { exppc nubs 1 periodic 2 
	-6.283185307179586232 1 1.350498956678269526e-30 1 
	1 1 
	0 1 
	2.726396620975368931e-13 
	spline forward { ref 0 } I I I I 
	} 0 0 #
tvertex-vertex $-1 -1 $-1 $15 $31 0.0001263856204488573206 #
ellipse-curve $-1 -1 $-1 3808.360865420401751 3095.642797989803512 14000.00000000000182 1 -3.897834435702129261e-15 -5.197112580936172875e-15 1.94891721785106465e-12 500 0 1 I I #
pcurve $-1 -1 $-1 0 forward { exppc nubs 1 periodic 2 
	1.350498956678269526e-30 1 6.283185307179586232 1 
	0 0 
	1 0 
	0 
	spline forward { ref 0 } I I I I 
	} 0 0 #
tvertex-vertex $-1 -1 $-1 $18 $32 0.0001263856197292029769 #
ellipse-curve $-1 -1 $-1 3458.360865378417657 3095.642797989804876 14000 1 -3.897834435702129261e-15 5.197112580936172875e-15 1.94891721785106465e-12 500 0 1 I I #
edge $-1 -1 $-1 $26 1.477669016531043156e-11 $23 1 $21 $33 forward @7 tangent #
pcurve $-1 -1 $-1 -1 $33 0 0 #
pcurve $-1 -1 $-1 1 $33 1 0 #
point $-1 -1 $-1 3808.36086542040357 3595.642797989803512 14000.00000000000182 #
point $-1 -1 $-1 3458.360865378419476 3595.642797989804876 14000 #
intcurve-curve $-1 -1 $-1 forward { parcur full nubs 3 open 2 
	0 3 1 3 
	3458.360865373247634 3595.642862575084109 13999.99989136269505 
	3575.027532053908999 3595.642862575083655 13999.99989136269505 
	3691.69419873404695 3595.642862575084564 13999.99989136269687 
	3808.360865414708314 3595.642862575084109 13999.99989136269687 
	0 
	
	spline forward { ref 0 } I I I I 
	null_surface 
	nubs 1 open 2 
	0 1 1 1 
	0 0 
	0 1 
	
	nullbs 
	I I 
	0 
	0 
	0 
	surf1 } F 1.477669016531043156e-11 F 1 #
End-of-ACIS-data 