700 0 1 0           
4 LibG 19 ASM 222.0.0.1700 NT 24 Wed Oct  5 17:29:53 2016 
1000 9.999999999999999547e-07 1.000000000000000036e-10 
body $-1 -1 $-1 $1 $-1 $-1 #
lump $-1 -1 $-1 $-1 $2 $0 #
shell $-1 -1 $-1 $-1 $-1 $3 $-1 $1 #
face $-1 -1 $-1 $4 $5 $2 $-1 $6 forward single #
face $-1 -1 $-1 $7 $8 $2 $-1 $9 reversed single #
loop $-1 -1 $-1 $-1 $10 $3 #
plane-surface $-1 -1 $-1 2408.360865252465373 3095.642797989808969 14000.00000000000182 1 -3.897834435702129261e-15 0 0 0 -1 forward_v I I I I #
face $-1 -1 $-1 $-1 $11 $2 $-1 $12 forward single #
loop $-1 -1 $-1 $-1 $13 $4 #
plane-surface $-1 -1 $-1 2058.360865210481279 3095.642797989810333 14000 1 -3.897834435702129261e-15 5.197112580936172875e-15 5.197112580936172875e-15 0 -1 forward_v I I I I #
tcoedge-coedge $-1 -1 $-1 $10 $10 $14 $15 forward $5 $16 0 6.283185307179586232 #
loop $-1 -1 $-1 $-1 $17 $7 #
spline-surface $-1 -1 $-1 forward { exactsur full nubs 3 3 periodic open none none 84 2 
	0 3 0.002232142857142857019 1 0.004464285714285714038 1 0.008928571428571428076 1 0.01785714285714285615 1 
	0.0357142857142857123 1 0.05357142857142856845 1 0.0625 1 0.0669642857142857123 1 0.07142857142857142461 1 
	0.08928571428571427382 1 0.1071428571428571369 1 0.125 1 0.1428571428571428492 1 0.1587301587301587213 1 
	0.1746031746031745935 1 0.1825396825396825295 1 0.1904761904761904656 1 0.2023809523809523836 1 0.2142857142857142738 1 
	0.238095238095238082 1 0.2619047619047618625 1 0.2857142857142856984 1 0.3095238095238095344 1 0.3333333333333333148 1 
	0.3348214285714286031 1 0.336309523809523836 1 0.3377976190476190688 1 0.3392857142857143016 1 0.3422619047619047672 1 
	0.3452380952380952328 1 0.3571428571428570953 1 0.3690476190476190133 1 0.375 1 0.3779761904761904656 1 
	0.3809523809523809312 1 0.4047619047619047672 1 0.4166666666666666297 1 0.4285714285714285476 1 0.4444444444444444198 1 
	0.4603174603174602919 1 0.4682539682539682557 1 0.476190476190476164 1 0.4920634920634920362 1 0.5079365079365079083 1 
	0.5238095238095237249 1 0.5357142857142855874 1 0.5476190476190475609 1 0.5595238095238095344 1 0.5654761904761904656 1 
	0.5714285714285713969 1 0.5952380952380951218 1 0.6071428571428569843 1 0.6190476190476189577 1 0.6349206349206348854 1 
	0.650793650793650702 1 0.6666666666666666297 1 0.6785714285714286031 1 0.6904761904761904656 1 0.7023809523809523281 1 
	0.7142857142857141906 1 0.7232142857142855874 1 0.7321428571428569843 1 0.749999999999999889 1 0.7678571428571427937 1 
	0.7857142857142855874 1 0.7976190476190474499 1 0.8095238095238094234 1 0.8333333333333332593 1 0.8571428571428570953 1 
	0.875 1 0.8928571428571427937 1 0.9107142857142856984 1 0.9285714285714286031 1 0.9464285714285713969 1 
	0.9642857142857143016 1 0.9821428571428572063 1 0.9910714285714286031 1 0.9955357142857143016 1 0.9977678571428572063 1 
	0.9988839285714286031 1 0.9994419642857143016 1 0.9997209821428572063 1 1 3 
	0 3 1 3 
	2058.360865218087383 3595.642858343121588 13999.99990591622554 
	2058.360865218086929 3595.642858318528852 14002.33740044884144 
	2058.360865218061917 3595.610071939476256 14007.0123891840758 
	2058.360865218038271 3595.413390178360714 14016.36052902353549 
	2058.360865217927312 3594.725042380518516 14032.71011262907086 
	2058.36086521756306 3591.973755278346289 14065.33210180754941 
	2058.360865216504408 3584.130870983387922 14111.4941090191478 
	2058.360865215580361 3571.168101148991809 14156.48752424339546 
	2058.360865215287049 3559.492801985601545 14187.0726729547896 
	2058.360865215220656 3552.094310443406357 14204.24879749345928 
	2058.360865215119247 3540.278530532882996 14229.69169688520924 
	2058.360865214379373 3519.894198213698473 14266.57468051514843 
	2058.360865213834131 3487.379574442942157 14312.39951087885674 
	2058.360865213175657 3449.938840905057532 14354.2959110580523 
	2058.360865212669523 3409.59407691735214 14390.34979351247057 
	2058.360865212173394 3367.366026560382579 14420.70971699708571 
	2058.360865212096542 3331.33312234941377 14441.51318619873018 
	2058.360865212013778 3301.371511016472141 14455.94149832883522 
	2058.360865211926466 3274.55864761392013 14467.24450224551583 
	2058.360865211866894 3243.157785126017643 14478.2316018838701 
	2058.360865211747296 3194.956989265005632 14491.14848933344365 
	2058.360865211624059 3133.147696369737332 14500.46614811387917 
	2058.360865211391683 3058.138068775266674 14500.46537004145648 
	2058.360865211224791 2983.966555089732083 14489.2860579740518 
	2058.360865211082455 2912.289503169318323 14467.17644215173823 
	2058.360865210959219 2865.827566817242314 14444.80153276209967 
	2058.360865210949214 2841.60129996953583 14430.66277513067507 
	2058.360865210949214 2837.58576771605658 14428.26872090914185 
	2058.360865210948305 2833.592808959031117 14425.83720174235714 
	2058.36086521094785 2828.299399781425109 14422.5455561060262 
	2058.360865210946031 2821.740789374559427 14418.33845100764847 
	2058.360865210943302 2806.191636923037095 14407.94889885375778 
	2058.360865210924203 2783.606872283345638 14391.28068932431779 
	2058.360865210908287 2759.967017878676415 14370.93680542259062 
	2058.360865210902375 2744.251834303558098 14355.79862222028351 
	2058.360865210901466 2735.519063048083353 14346.90091488406506 
	2058.360865210897373 2714.106399201664317 14324.25270129747878 
	2058.360865210853262 2688.774542108777496 14292.4866029512923 
	2058.360865210843258 2662.226397514564269 14250.23305729324056 
	2058.360865210823249 2642.794648978815985 14213.46793540064937 
	2058.360865210810516 2625.016863474708316 14171.29382414138672 
	2058.360865210800512 2612.753190615180301 14131.53511590293783 
	2058.360865210798693 2605.353603945041414 14099.11409932526658 
	2058.360865210796874 2599.578702428058023 14066.36466503430711 
	2058.360865210797328 2595.435742365396891 14024.96428209722217 
	2058.360865210798693 2595.435959128960803 13975.035674103161 
	2058.360865210805969 2599.992816560658866 13929.49524476478109 
	2058.360865210817337 2607.724118034328967 13888.63569493736759 
	2058.360865210827342 2617.410619194986793 13852.48489969216826 
	2058.360865210841439 2627.711426210879381 13823.04662974974053 
	2058.360865210845986 2637.254923652061734 13800.00741262280098 
	2058.360865210857355 2652.850963629658054 13766.00722609182048 
	2058.360865210889187 2674.728926051208418 13728.11429384390431 
	2058.360865210926477 2704.362776290055081 13687.96452226697147 
	2058.360865210954671 2731.48725543584078 13656.4442506848518 
	2058.36086521102925 2764.251001572565201 13624.48740753225684 
	2058.36086521106381 2803.286815267523252 13593.35757485421345 
	2058.360865211112468 2841.73295104983481 13568.52630372623753 
	2058.360865211178862 2878.498611306118164 13549.09541079895462 
	2058.360865211205692 2912.801856729936844 13534.12886863414315 
	2058.360865211281634 2948.127734345019689 13521.76789994004321 
	2058.360865211343935 2981.265963571026077 13512.88849927772571 
	2058.360865211392138 3011.845753336139751 13506.8059941346819 
	2058.360865211443979 3048.892965391084999 13501.57541977932669 
	2058.360865211644978 3095.642769058257272 13498.94977826053582 
	2058.36086521183779 3151.742596049366512 13502.10041228046066 
	2058.360865212066528 3200.982006427430861 13510.46652556911249 
	2058.360865212219778 3243.157708071602428 13521.76833753769824 
	2058.360865212301633 3290.259353474002182 13538.24839281445202 
	2058.360865212490353 3346.577619304461223 13565.36801159283641 
	2058.360865212890076 3403.387826581238187 13604.10245734619093 
	2058.36086521321522 3449.938801358622186 13645.70391503965584 
	2058.360865213882789 3487.379814892235572 13687.60003435833096 
	2058.360865214463047 3519.894216069413233 13733.42506713639159 
	2058.360865215153808 3547.073568175313994 13782.60229183637784 
	2058.360865215939612 3568.575790316457187 13834.51347927533243 
	2058.360865216711318 3584.130791205938294 13888.50571919360664 
	2058.360865217658102 3591.973791050224008 13934.66769317823309 
	2058.360865217957326 3594.725039344104516 13967.28969990861515 
	2058.360865218054641 3595.413392625696815 13983.63928207586105 
	2058.360865218076469 3595.585486847121047 13991.8189051289919 
	2058.360865218084655 3595.628515927489389 13995.9093191768643 
	2058.360865218085564 3595.639272621891905 13997.95460179695328 
	2058.360865218086929 3595.642346065938909 13999.1233454613357 
	2058.360865218087383 3595.64285834619568 13999.70771909964969 
	2058.360865218087383 3595.642858343121588 13999.99990591622554 
	2175.027531898748748 3595.642858343121134 13999.99990591622554 
	2175.027531898748293 3595.642858318528397 14002.33740044884144 
	2175.027531898723282 3595.610071939475802 14007.0123891840758 
	2175.027531898699635 3595.41339017836026 14016.36052902353549 
	2175.027531898588222 3594.725042380518062 14032.71011262907086 
	2175.02753189822397 3591.973755278345834 14065.33210180754941 
	2175.027531897164408 3584.130870983387467 14111.4941090191478 
	2175.027531896240816 3571.168101148991354 14156.48752424339546 
	2175.027531895946595 3559.492801985601091 14187.0726729547896 
	2175.027531895880202 3552.094310443405902 14204.24879749345928 
	2175.027531895778338 3540.278530532882542 14229.69169688520924 
	2175.027531895038464 3519.894198213698019 14266.57468051514843 
	2175.027531894492768 3487.379574442941703 14312.39951087885674 
	2175.027531893833839 3449.938840905057077 14354.2959110580523 
	2175.027531893327705 3409.594076917351686 14390.34979351247057 
	2175.027531892831121 3367.366026560382124 14420.70971699708571 
	2175.027531892754268 3331.333122349413316 14441.51318619873018 
	2175.02753189267105 3301.371511016471686 14455.94149832883522 
	2175.027531892583738 3274.558647613919675 14467.24450224551583 
	2175.027531892524166 3243.157785126017188 14478.2316018838701 
	2175.027531892404568 3194.956989265005177 14491.14848933344365 
	2175.027531892280876 3133.147696369736877 14500.46614811387917 
	2175.027531892048955 3058.13806877526622 14500.46537004145648 
	2175.027531891881608 2983.966555089731628 14489.2860579740518 
	2175.027531891740182 2912.289503169317868 14467.17644215173823 
	2175.027531891616491 2865.827566817241859 14444.80153276209967 
	2175.027531891606941 2841.601299969535376 14430.66277513067507 
	2175.027531891606941 2837.585767716056125 14428.26872090914185 
	2175.027531891605577 2833.592808959030663 14425.83720174235714 
	2175.027531891605577 2828.299399781424654 14422.5455561060262 
	2175.027531891603758 2821.740789374558972 14418.33845100764847 
	2175.027531891601029 2806.19163692303664 14407.94889885375778 
	2175.02753189158193 2783.606872283345183 14391.28068932431779 
	2175.027531891566468 2759.967017878675961 14370.93680542259062 
	2175.027531891560557 2744.251834303557644 14355.79862222028351 
	2175.027531891560102 2735.519063048082899 14346.90091488406506 
	2175.027531891556009 2714.106399201663862 14324.25270129747878 
	2175.027531891511899 2688.774542108777041 14292.4866029512923 
	2175.027531891502349 2662.226397514563814 14250.23305729324056 
	2175.027531891482795 2642.79464897881553 14213.46793540064937 
	2175.027531891470517 2625.016863474707861 14171.29382414138672 
	2175.027531891460512 2612.753190615179847 14131.53511590293783 
	2175.027531891459148 2605.353603945040959 14099.11409932526658 
	2175.027531891457329 2599.578702428057568 14066.36466503430711 
	2175.027531891458693 2595.435742365396436 14024.96428209722217 
	2175.027531891460058 2595.435959128960349 13975.035674103161 
	2175.027531891468243 2599.992816560658412 13929.49524476478109 
	2175.027531891479612 2607.724118034328512 13888.63569493736759 
	2175.027531891490071 2617.410619194986339 13852.48489969216826 
	2175.027531891504623 2627.711426210878926 13823.04662974974053 
	2175.02753189150917 2637.254923652061279 13800.00741262280098 
	2175.027531891520994 2652.850963629657599 13766.00722609182048 
	2175.027531891552371 2674.728926051207964 13728.11429384390431 
	2175.027531891591025 2704.362776290054626 13687.96452226697147 
	2175.027531891618764 2731.487255435840325 13656.4442506848518 
	2175.027531891694252 2764.251001572564746 13624.48740753225684 
	2175.027531891728358 2803.286815267522798 13593.35757485421345 
	2175.027531891777926 2841.732951049834355 13568.52630372623753 
	2175.027531891843864 2878.498611306117709 13549.09541079895462 
	2175.027531891871149 2912.801856729936389 13534.12886863414315 
	2175.027531891947092 2948.127734345019235 13521.76789994004321 
	2175.027531892009392 2981.265963571025623 13512.88849927772571 
	2175.02753189205805 3011.845753336139296 13506.8059941346819 
	2175.027531892109891 3048.892965391084545 13501.57541977932669 
	2175.02753189231089 3095.642769058256818 13498.94977826053582 
	2175.027531892503248 3151.742596049366057 13502.10041228046066 
	2175.027531892731986 3200.982006427430406 13510.46652556911249 
	2175.027531892885236 3243.157708071601974 13521.76833753769824 
	2175.02753189296709 3290.259353474001728 13538.24839281445202 
	2175.027531893155356 3346.577619304460768 13565.36801159283641 
	2175.027531893555079 3403.387826581237732 13604.10245734619093 
	2175.027531893879313 3449.938801358621731 13645.70391503965584 
	2175.027531894546883 3487.379814892235117 13687.60003435833096 
	2175.027531895126685 3519.894216069412778 13733.42506713639159 
	2175.027531895816992 3547.07356817531354 13782.60229183637784 
	2175.027531896602341 3568.575790316456732 13834.51347927533243 
	2175.027531897373592 3584.13079120593784 13888.50571919360664 
	2175.027531898319921 3591.973791050223554 13934.66769317823309 
	2175.027531898619145 3594.725039344104061 13967.28969990861515 
	2175.027531898716006 3595.41339262569636 13983.63928207586105 
	2175.027531898737834 3595.585486847120592 13991.8189051289919 
	2175.02753189874602 3595.628515927488934 13995.9093191768643 
	2175.027531898746929 3595.63927262189145 13997.95460179695328 
	2175.027531898748293 3595.642346065938455 13999.1233454613357 
	2175.027531898748748 3595.642858346195226 13999.70771909964969 
	2175.027531898748748 3595.642858343121134 13999.99990591622554 
	2291.694198580702505 3595.642858343122043 13999.99990591622554 
	2291.694198580701595 3595.642858318529306 14002.33740044884144 
	2291.694198580672492 3595.610071939476256 14007.0123891840758 
	2291.694198580643842 3595.413390178360714 14016.36052902353549 
	2291.694198580514694 3594.725042380517607 14032.71011262907086 
	2291.694198580087686 3591.973755278345834 14065.33210180754941 
	2291.694198578849409 3584.130870983387013 14111.4941090191478 
	2291.694198577768475 3571.168101148991354 14156.48752424339546 
	2291.694198577424686 3559.492801985600636 14187.0726729547896 
	2291.694198577346924 3552.094310443405448 14204.24879749345928 
	2291.694198577228235 3540.278530532882542 14229.69169688520924 
	2291.694198576362396 3519.894198213697564 14266.57468051514843 
	2291.694198575724386 3487.379574442941248 14312.39951087885674 
	2291.694198574953589 3449.938840905057532 14354.2959110580523 
	2291.694198574361508 3409.594076917351686 14390.34979351247057 
	2291.694198573780341 3367.366026560382579 14420.70971699708571 
	2291.694198573690755 3331.33312234941377 14441.51318619873018 
	2291.694198573593894 3301.371511016472141 14455.94149832883522 
	2291.694198573491121 3274.55864761392013 14467.24450224551583 
	2291.694198573422 3243.157785126016734 14478.2316018838701 
	2291.694198573281938 3194.956989265004722 14491.14848933344365 
	2291.694198573137783 3133.147696369735968 14500.46614811387917 
	2291.694198572865389 3058.13806877526531 14500.46537004145648 
	2291.694198572671212 2983.966555089731173 14489.2860579740518 
	2291.69419857250432 2912.289503169316504 14467.17644215173823 
	2291.694198572361074 2865.82756681724095 14444.80153276209967 
	2291.694198572349251 2841.601299969534466 14430.66277513067507 
	2291.694198572349251 2837.585767716055216 14428.26872090914185 
	2291.694198572348341 2833.592808959029753 14425.83720174235714 
	2291.694198572347887 2828.299399781423745 14422.5455561060262 
	2291.694198572345613 2821.740789374558062 14418.33845100764847 
	2291.69419857234243 2806.19163692303573 14407.94889885375778 
	2291.694198572320602 2783.606872283344273 14391.28068932431779 
	2291.694198572301048 2759.967017878674596 14370.93680542259062 
	2291.694198572294681 2744.251834303556279 14355.79862222028351 
	2291.694198572293772 2735.519063048081534 14346.90091488406506 
	2291.694198572288769 2714.106399201662498 14324.25270129747878 
	2291.694198572238292 2688.774542108775677 14292.4866029512923 
	2291.694198572226469 2662.22639751456245 14250.23305729324056 
	2291.694198572203732 2642.794648978813711 14213.46793540065119 
	2291.694198572188725 2625.016863474706497 14171.29382414139036 
	2291.694198572177811 2612.753190615178482 14131.53511590294329 
	2291.694198572175083 2605.35360394503914 14099.11409932527022 
	2291.694198572172809 2599.578702428056658 14066.36466503431257 
	2291.694198572174173 2595.435742365395072 14024.96428209722581 
	2291.694198572175992 2595.435959128959439 13975.03567410316464 
	2291.694198572184632 2599.992816560657047 13929.49524476478291 
	2291.69419857219782 2607.724118034327603 13888.63569493736941 
	2291.694198572210098 2617.410619194985429 13852.48489969216826 
	2291.694198572226469 2627.711426210878471 13823.04662974974053 
	2291.694198572231926 2637.25492365206037 13800.00741262280098 
	2291.694198572245114 2652.85096362965669 13766.00722609182048 
	2291.694198572282403 2674.728926051206599 13728.11429384390431 
	2291.694198572326059 2704.362776290053262 13687.96452226697147 
	2291.694198572359255 2731.487255435838961 13656.4442506848518 
	2291.694198572446112 2764.251001572562927 13624.48740753225684 
	2291.694198572487039 2803.286815267520979 13593.35757485421345 
	2291.694198572543883 2841.732951049832536 13568.52630372623753 
	2291.694198572621644 2878.498611306116345 13549.09541079895462 
	2291.694198572653022 2912.80185672993548 13534.12886863414315 
	2291.694198572742152 2948.127734345018325 13521.76789994004321 
	2291.694198572814912 2981.265963571024713 13512.88849927772571 
	2291.694198572871301 3011.845753336138387 13506.8059941346819 
	2291.694198572932237 3048.892965391083635 13501.57541977932669 
	2291.694198573166886 3095.642769058256363 13498.94977826053582 
	2291.694198573392896 3151.742596049365602 13502.10041228046066 
	2291.694198573660287 3200.982006427429951 13510.46652556911249 
	2291.694198573839913 3243.157708071601519 13521.76833753769824 
	2291.694198573934955 3290.259353474001273 13538.24839281445202 
	2291.694198574155962 3346.577619304460313 13565.36801159283641 
	2291.694198574623897 3403.387826581236823 13604.10245734619093 
	2291.694198575004066 3449.938801358621731 13645.70391503965584 
	2291.694198575784867 3487.379814892235117 13687.60003435833096 
	2291.69419857646335 3519.894216069412778 13733.42506713639159 
	2291.694198577271891 3547.07356817531354 13782.60229183637784 
	2291.69419857819139 3568.575790316457187 13834.51347927533243 
	2291.694198579094973 3584.13079120593784 13888.50571919360664 
	2291.694198580200919 3591.973791050224463 13934.66769317823309 
	2291.694198580551983 3594.725039344103607 13967.28969990861515 
	2291.694198580664306 3595.413392625696815 13983.63928207586105 
	2291.694198580690681 3595.585486847121501 13991.8189051289919 
	2291.694198580699776 3595.628515927489389 13995.9093191768643 
	2291.694198580701141 3595.639272621891905 13997.95460179695328 
	2291.69419858070205 3595.642346065939364 13999.1233454613357 
	2291.694198580702505 3595.642858346196135 13999.70771909964969 
	2291.694198580702505 3595.642858343122043 13999.99990591622554 
	2408.36086526136387 3595.642858343121588 13999.99990591622554 
	2408.36086526136296 3595.642858318528852 14002.33740044884144 
	2408.360865261333856 3595.610071939475802 14007.0123891840758 
	2408.360865261305662 3595.41339017836026 14016.36052902353549 
	2408.360865261176514 3594.725042380517152 14032.71011262907086 
	2408.360865260749961 3591.973755278345379 14065.33210180754941 
	2408.360865259512138 3584.130870983386558 14111.4941090191478 
	2408.360865258431659 3571.1681011489909 14156.48752424339546 
	2408.360865258088324 3559.492801985600181 14187.0726729547896 
	2408.360865258011017 3552.094310443404993 14204.24879749345928 
	2408.360865257892328 3540.278530532882087 14229.69169688520924 
	2408.360865257026944 3519.894198213697109 14266.57468051514843 
	2408.360865256389388 3487.379574442940793 14312.39951087885674 
	2408.360865255619501 3449.938840905057077 14354.2959110580523 
	2408.36086525502742 3409.594076917351231 14390.34979351247057 
	2408.360865254447162 3367.366026560382124 14420.70971699708571 
	2408.360865254357122 3331.333122349413316 14441.51318619873018 
	2408.360865254260716 3301.371511016471686 14455.94149832883522 
	2408.360865254158398 3274.558647613919675 14467.24450224551583 
	2408.360865254089276 3243.157785126016279 14478.2316018838701 
	2408.360865253949214 3194.956989265004268 14491.14848933344365 
	2408.360865253805059 3133.147696369735513 14500.46614811387917 
	2408.36086525353312 3058.138068775264856 14500.46537004145648 
	2408.360865253338488 2983.966555089730718 14489.2860579740518 
	2408.360865253171141 2912.289503169316049 14467.17644215173823 
	2408.360865253027896 2865.827566817240495 14444.80153276209967 
	2408.360865253015618 2841.601299969534011 14430.66277513067507 
	2408.360865253015618 2837.585767716054761 14428.26872090914185 
	2408.360865253014708 2833.592808959029298 14425.83720174235714 
	2408.360865253014254 2828.29939978142329 14422.5455561060262 
	2408.36086525301198 2821.740789374557608 14418.33845100764847 
	2408.360865253008797 2806.191636923035276 14407.94889885375778 
	2408.360865252986514 2783.606872283343819 14391.28068932431779 
	2408.36086525296696 2759.967017878674142 14370.93680542259062 
	2408.360865252960593 2744.251834303555825 14355.79862222028351 
	2408.360865252959229 2735.51906304808108 14346.90091488406506 
	2408.360865252954682 2714.106399201662043 14324.25270129747878 
	2408.36086525290284 2688.774542108775222 14292.4866029512923 
	2408.360865252891017 2662.226397514561995 14250.23305729324056 
	2408.36086525286737 2642.794648978813257 14213.46793540065119 
	2408.360865252852363 2625.016863474706042 14171.29382414139036 
	2408.36086525284054 2612.753190615178028 14131.53511590294329 
	2408.360865252837812 2605.353603945038685 14099.11409932527022 
	2408.360865252835083 2599.578702428056204 14066.36466503431257 
	2408.360865252835538 2595.435742365394617 14024.96428209722581 
	2408.360865252836902 2595.435959128958984 13975.03567410316464 
	2408.360865252845088 2599.992816560656593 13929.49524476478291 
	2408.36086525285782 2607.724118034327148 13888.63569493736941 
	2408.360865252869644 2617.410619194984974 13852.48489969216826 
	2408.36086525288556 2627.711426210878017 13823.04662974974053 
	2408.360865252891017 2637.254923652059915 13800.00741262280098 
	2408.36086525290375 2652.850963629656235 13766.00722609182048 
	2408.36086525294013 2674.728926051206145 13728.11429384390431 
	2408.360865252983785 2704.362776290052807 13687.96452226697147 
	2408.360865253016073 2731.487255435838506 13656.4442506848518 
	2408.360865253103384 2764.251001572562473 13624.48740753225684 
	2408.360865253143402 2803.286815267520524 13593.35757485421345 
	2408.360865253200245 2841.732951049832081 13568.52630372623753 
	2408.360865253277552 2878.49861130611589 13549.09541079895462 
	2408.36086525330893 2912.801856729935025 13534.12886863414315 
	2408.360865253397606 2948.127734345017871 13521.76789994004321 
	2408.360865253470365 2981.265963571024258 13512.88849927772571 
	2408.360865253526754 3011.845753336137932 13506.8059941346819 
	2408.36086525358769 3048.89296539108318 13501.57541977932669 
	2408.36086525382234 3095.642769058255908 13498.94977826053582 
	2408.360865254047894 3151.742596049365147 13502.10041228046066 
	2408.36086525431574 3200.982006427429496 13510.46652556911249 
	2408.360865254495366 3243.157708071601064 13521.76833753769824 
	2408.360865254590863 3290.259353474000818 13538.24839281445202 
	2408.360865254812325 3346.577619304459859 13565.36801159283641 
	2408.36086525528026 3403.387826581236368 13604.10245734619093 
	2408.360865255661338 3449.938801358621276 13645.70391503965584 
	2408.360865256442139 3487.379814892234663 13687.60003435833096 
	2408.360865257121986 3519.894216069412323 13733.42506713639159 
	2408.360865257930527 3547.073568175313085 13782.60229183637784 
	2408.360865258850936 3568.575790316456732 13834.51347927533243 
	2408.360865259754519 3584.130791205937385 13888.50571919360664 
	2408.360865260861829 3591.973791050224008 13934.66769317823309 
	2408.360865261212894 3594.725039344103152 13967.28969990861515 
	2408.360865261325671 3595.41339262569636 13983.63928207586105 
	2408.360865261352046 3595.585486847121047 13991.8189051289919 
	2408.360865261361141 3595.628515927488934 13995.9093191768643 
	2408.360865261362505 3595.63927262189145 13997.95460179695328 
	2408.360865261363415 3595.642346065938909 13999.1233454613357 
	2408.36086526136387 3595.64285834619568 13999.70771909964969 
	2408.36086526136387 3595.642858343121588 13999.99990591622554 
	0 
	
	0 
	0 
	83 0 0.002232142857142857019 0.004464285714285714038 0.008928571428571428076 0.01785714285714285615 0.0357142857142857123 0.05357142857142856845 0.0625 0.0669642857142857123 0.07142857142857142461 0.08928571428571427382 0.1071428571428571369 0.125 0.1428571428571428492 0.1587301587301587213 0.1746031746031745935 0.1825396825396825295 0.1904761904761904656 0.2023809523809523836 0.2142857142857142738 0.238095238095238082 0.2619047619047618625 0.2857142857142856984 0.3095238095238095344 0.3333333333333333148 0.3348214285714286031 0.336309523809523836 0.3377976190476190688 0.3392857142857143016 0.3422619047619047672 0.3452380952380952328 0.3571428571428570953 0.3690476190476190133 0.375 0.3779761904761904656 0.3809523809523809312 0.4047619047619047672 0.4166666666666666297 0.4285714285714285476 0.4444444444444444198 0.4603174603174602919 0.4682539682539682557 0.476190476190476164 0.4920634920634920362 0.5079365079365079083 0.5238095238095237249 0.5357142857142855874 0.5476190476190475609 0.5595238095238095344 0.5654761904761904656 0.5714285714285713969 0.5952380952380951218 0.6071428571428569843 0.6190476190476189577 0.6349206349206348854 0.650793650793650702 0.6666666666666666297 0.6785714285714286031 0.6904761904761904656 0.7023809523809523281 0.7142857142857141906 0.7232142857142855874 0.7321428571428569843 0.749999999999999889 0.7678571428571427937 0.7857142857142855874 0.7976190476190474499 0.8095238095238094234 0.8333333333333332593 0.8571428571428570953 0.875 0.8928571428571427937 0.9107142857142856984 0.9285714285714286031 0.9464285714285713969 0.9642857142857143016 0.9821428571428572063 0.9910714285714286031 0.9955357142857143016 0.9977678571428572063 0.9988839285714286031 0.9994419642857143016 0.9997209821428572063 
	0 
	0 
	0 
	F 1 F 0 F 1 F 0 } I I I I #
tcoedge-coedge $-1 -1 $-1 $13 $13 $17 $18 reversed $8 $19 -6.283185307179586232 -1.350498956678269526e-30 #
tcoedge-coedge $-1 -1 $-1 $20 $21 $10 $15 reversed $11 $22 -6.283185307179586232 -0 #
tedge-edge $-1 -1 $-1 $23 0 $23 6.283185307179586232 $14 $24 forward @7 unknown 0.0006542250277394182165 #
pcurve $-1 -1 $-1 0 forward { exppc nurbs 2 periodic 5 
	0 2 1.570796326794896558 2 3.141592653589793116 2 4.712388980384689674 2 6.283185307179586232 2 
	0 500 1 
	-500 500 0.7071067811865463515 
	-500 0 1 
	-500 -500 0.7071067811865463515 
	0 -500 1 
	500 -500 0.7071067811865463515 
	500 0 1 
	500 500 0.707106781186543798 
	0 500 1 
	0 
	plane 2408.360865252465373 3095.642797989808969 14000.00000000000182 1 -3.897834435702129261e-15 0 0 0 -1 forward_v I I I I 
	} 0 0 #
tcoedge-coedge $-1 -1 $-1 $21 $20 $13 $18 forward $11 $25 1.350498956678269526e-30 6.283185307179586232 #
tedge-edge $-1 -1 $-1 $26 1.350498956678269526e-30 $26 6.283185307179586232 $17 $27 forward @7 unknown 0.00065422502548063467 #
pcurve $-1 -1 $-1 0 forward { exppc nurbs 2 periodic 5 
	-6.283185307179586232 2 -4.712388980384689674 2 -3.141592653589793116 2 -1.570796326794896558 2 -1.350498956678269526e-30 2 
	0 500 1 
	500 500 0.7071067811865463515 
	500 0 1 
	500 -500 0.7071067811865463515 
	0 -500 1 
	-500 -500 0.7071067811865463515 
	-500 0 1 
	-500 500 0.7071067811865463515 
	0 500 1 
	0 
	plane 2058.360865210481279 3095.642797989810333 14000 -1 3.897834435702129261e-15 -5.197112580936172875e-15 5.197112580936172875e-15 0 -1 reverse_v I I I I 
	} 0 0 #
coedge $-1 -1 $-1 $17 $14 $21 $28 reversed $11 $29 #
coedge $-1 -1 $-1 $14 $17 $20 $28 forward $11 $30 #
pcurve $-1 -1 $-1 0 forward { exppc nubs 1 periodic 2 
	-6.283185307179586232 1 -0 1 
	1 1 
	0 1 
	2.726396620975369436e-13 
	spline forward { ref 0 } I I I I 
	} 0 0 #
tvertex-vertex $-1 -1 $-1 $15 $31 0.0001117778225638756123 #
ellipse-curve $-1 -1 $-1 2408.360865252465373 3095.642797989808969 14000.00000000000182 1 -3.897834435702129261e-15 0 1.94891721785106465e-12 500 0 1 I I #
pcurve $-1 -1 $-1 0 forward { exppc nubs 1 periodic 2 
	1.350498956678269526e-30 1 6.283185307179586232 1 
	0 0 
	1 0 
	0 
	spline forward { ref 0 } I I I I 
	} 0 0 #
tvertex-vertex $-1 -1 $-1 $18 $32 0.0001117778202008236924 #
ellipse-curve $-1 -1 $-1 2058.360865210481279 3095.642797989810333 14000 1 -3.897834435702129261e-15 5.197112580936172875e-15 1.94891721785106465e-12 500 0 1 I I #
edge $-1 -1 $-1 $26 0 $23 0.9999999999745808887 $21 $33 forward @7 tangent #
pcurve $-1 -1 $-1 -1 $33 0 0 #
pcurve $-1 -1 $-1 1 $33 1 0 #
point $-1 -1 $-1 2408.360865252467192 3595.642797989808969 14000.00000000000182 #
point $-1 -1 $-1 2058.360865210483098 3595.642797989810333 14000 #
intcurve-curve $-1 -1 $-1 forward { parcur full nubs 3 open 2 
	0 3 1 3 
	2058.360865218087383 3595.642858343121588 13999.99990591622554 
	2175.027531898748748 3595.642858343121134 13999.99990591622554 
	2291.694198580702505 3595.642858343122043 13999.99990591622554 
	2408.36086526136387 3595.642858343121588 13999.99990591622554 
	0 
	
	spline forward { ref 0 } I I I I 
	null_surface 
	nubs 1 open 2 
	0 1 1 1 
	0 0 
	0 1 
	
	nullbs 
	I I 
	0 
	0 
	0 
	surf1 } F 0 F 0.9999999999745808887 #
End-of-ACIS-data 