700 0 1 0           
4 LibG 19 ASM 222.0.0.1700 NT 24 Wed Oct  5 17:29:54 2016 
1000 9.999999999999999547e-07 1.000000000000000036e-10 
body $-1 -1 $-1 $1 $-1 $-1 #
lump $-1 -1 $-1 $-1 $2 $0 #
shell $-1 -1 $-1 $-1 $-1 $3 $-1 $1 #
face $-1 -1 $-1 $4 $5 $2 $-1 $6 forward single #
face $-1 -1 $-1 $7 $8 $2 $-1 $9 reversed single #
loop $-1 -1 $-1 $-1 $10 $3 #
plane-surface $-1 -1 $-1 4858.360865546354034 3095.642797989799419 14000 1 -3.897834435702129261e-15 5.197112580936172875e-15 5.197112580936172875e-15 0 -1 forward_v I I I I #
face $-1 -1 $-1 $-1 $11 $2 $-1 $12 forward single #
loop $-1 -1 $-1 $-1 $13 $4 #
plane-surface $-1 -1 $-1 4508.36086550436994 3095.642797989800783 14000.00000000000182 1 -3.897834435702129261e-15 -5.197112580936172875e-15 -5.197112580936172875e-15 0 -1 forward_v I I I I #
tcoedge-coedge $-1 -1 $-1 $10 $10 $14 $15 forward $5 $16 1.350498956678269526e-30 6.283185307179586232 #
loop $-1 -1 $-1 $-1 $17 $7 #
spline-surface $-1 -1 $-1 forward { exactsur full nubs 3 3 periodic open none none 87 2 
	0 3 0.002232142857142857019 1 0.004464285714285714038 1 0.008928571428571428076 1 0.01785714285714285615 1 
	0.02678571428571428423 1 0.0357142857142857123 1 0.05357142857142856845 1 0.07142857142857142461 1 0.08928571428571427382 1 
	0.1071428571428571369 1 0.125 1 0.1428571428571428492 1 0.1587301587301587213 1 0.1746031746031745935 1 
	0.1904761904761904656 1 0.2023809523809523836 1 0.2142857142857142738 1 0.238095238095238082 1 0.2619047619047618625 1 
	0.2857142857142856984 1 0.2976190476190476164 1 0.3095238095238095344 1 0.3214285714285713969 1 0.3273809523809523281 1 
	0.3333333333333333148 1 0.3452380952380952328 1 0.3571428571428570953 1 0.3690476190476190133 1 0.375 1 
	0.3809523809523809312 1 0.3869047619047618625 1 0.3898809523809523281 1 0.3928571428571428492 1 0.4047619047619047672 1 
	0.4285714285714285476 1 0.4305555555555555802 1 0.4365079365079365115 1 0.4444444444444444198 1 0.4603174603174602919 1 
	0.476190476190476164 1 0.4801587301587301182 1 0.4841269841269840724 1 0.4880952380952380265 1 0.4900793650793650036 1 
	0.4920634920634920362 1 0.5158730158730158166 1 0.5238095238095237249 1 0.5357142857142855874 1 0.5476190476190475609 1 
	0.5595238095238095344 1 0.5714285714285713969 1 0.5952380952380951218 1 0.6190476190476189577 1 0.6269841269841269771 1 
	0.6309523809523809312 1 0.6349206349206348854 1 0.650793650793650702 1 0.6666666666666666297 1 0.6785714285714286031 1 
	0.6904761904761904656 1 0.7023809523809523281 1 0.7142857142857141906 1 0.7321428571428569843 1 0.749999999999999889 1 
	0.7678571428571427937 1 0.7857142857142855874 1 0.7976190476190474499 1 0.8095238095238094234 1 0.8333333333333332593 1 
	0.8452380952380951218 1 0.851190476190476053 1 0.8571428571428570953 1 0.875 1 0.8928571428571427937 1 
	0.9107142857142856984 1 0.9285714285714286031 1 0.9464285714285713969 1 0.9642857142857143016 1 0.9821428571428572063 1 
	0.9910714285714286031 1 0.9955357142857143016 1 0.9977678571428572063 1 0.9988839285714286031 1 0.9994419642857143016 1 
	0.9997209821428572063 1 1 3 
	0 3 1 3 
	4508.360865501983426 3595.642879967427689 13999.99989592388738 
	4508.360865501986154 3595.642879922543671 14002.33739046654955 
	4508.36086550199434 3595.610095914655631 14007.01237946054789 
	4508.360865502005254 3595.413405523805068 14016.36051892444993 
	4508.360865502048 3594.725101028166591 14032.71010555052271 
	4508.360865502169872 3592.75971607964766 14056.0115165983625 
	4508.360865502277193 3588.8369336751216 14083.79692952046207 
	4508.360865502395427 3581.538050306800869 14120.49273135903604 
	4508.360865502758315 3568.575883775450166 14165.48629405011525 
	4508.360865503045716 3547.073454399320781 14217.39742118359391 
	4508.360865503339483 3519.894167176068095 14266.57465155532373 
	4508.360865503622335 3487.379680565065428 14312.39957319251698 
	4508.360865503719651 3449.938955444937619 14354.29599894556486 
	4508.360865503798777 3409.594199297996511 14390.34989292861064 
	4508.360865503989771 3367.366058595854156 14420.70972494547095 
	4508.360865504007961 3324.126608492287232 14445.67387970075288 
	4508.360865504047979 3282.408956134073833 14464.49781573659311 
	4508.360865504076173 3243.157815473187839 14478.23149946675403 
	4508.360865504124376 3194.957088552968798 14491.14879002919952 
	4508.360865504138019 3133.147748696148938 14500.46574020143998 
	4508.360865504188951 3058.138034972762853 14500.465780487948 
	4508.360865504202593 2996.328645197549122 14491.14907235833743 
	4508.360865504221692 2948.127895806592733 14478.23175182404157 
	4508.360865504242611 2912.801926223166447 14465.87136526790709 
	4508.360865504258982 2884.215898029684467 14453.39901607361207 
	4508.360865504264439 2861.954148932270073 14442.16072772678672 
	4508.360865504268986 2840.128109050836429 14430.09797037253884 
	4508.360865504289904 2813.720143275252667 14413.50474883034258 
	4508.360865504294452 2783.607168448756511 14391.28041885540733 
	4508.36086550431628 2759.967312498764841 14370.9365343404279 
	4508.360865504319008 2742.00715235413827 14353.63571446648348 
	4508.360865504322646 2729.031561747254727 14340.16556759890955 
	4508.360865504326284 2718.6459050738722 14328.5439444142412 
	4508.360865504328103 2710.60240168281598 14319.01856310305266 
	4508.360865504330832 2698.806591702706555 14304.50729844667512 
	4508.360865504348112 2674.728651168901706 14271.88581101336604 
	4508.360865504349022 2654.934302879768438 14237.60172436880748 
	4508.36086550435266 2640.697173291621311 14207.55946060932183 
	4508.360865504350841 2633.954030715471163 14192.3633057762836 
	4508.360865504356298 2622.563899476676397 14163.3421585727865 
	4508.360865504360845 2610.299882946697835 14123.58353154791257 
	4508.360865504376306 2602.880155736932466 14086.87949912857948 
	4508.360865504378125 2599.471540227406877 14062.1783611293049 
	4508.360865504379035 2598.075596869645778 14049.78915223422518 
	4508.360865504380854 2597.17005410589536 14039.43901356583774 
	4508.360865504379944 2596.600677664212526 14031.14729143757904 
	4508.360865504380854 2594.969128584376449 14002.10365635154631 
	4508.360865504376306 2595.853202297485495 13966.69382717512781 
	4508.360865504373578 2601.539905968126277 13921.32346955933826 
	4508.360865504372669 2607.724316403998728 13888.6358468403123 
	4508.360865504360845 2617.410979522499929 13852.48490202964786 
	4508.360865504363574 2629.772299592721538 13817.15925175216216 
	4508.360865504349931 2649.726005509113293 13771.42071045300145 
	4508.360865504343565 2680.978983160037387 13717.28695759022958 
	4508.360865504331741 2717.354278806386446 13671.67480999900545 
	4508.360865504323556 2743.477242786062106 13644.89396686998407 
	4508.360865504321737 2755.521122526200543 13633.43601790503453 
	4508.360865504318099 2774.009887575030007 13616.70489622423884 
	4508.360865504299909 2803.286688672256787 13593.35744315463126 
	4508.36086550429718 2841.732884769674001 13568.52626228898589 
	4508.360865504274443 2878.498583899544428 13549.09546628148382 
	4508.360865504267167 2912.801802306685659 13534.12884128446058 
	4508.36086550424443 2948.127719926613736 13521.76808260293001 
	4508.360865504217145 2990.303547473565231 13510.46652399143932 
	4508.360865504206231 3039.542878579450189 13502.10028301093735 
	4508.360865504131652 3095.642773646275145 13498.94996050842747 
	4508.360865504114372 3151.742522640447078 13502.1003617063252 
	4508.360865504065259 3200.982022995509851 13510.46651483254573 
	4508.360865504056164 3243.157604995664315 13521.76844992293991 
	4508.360865504035246 3290.259391060845246 13538.24838667520635 
	4508.360865503994319 3335.313516868050556 13559.94460761641858 
	4508.360865503969762 3372.283976883717514 13583.1765738482809 
	4508.360865503952482 3392.622187537351238 13597.60708571417672 
	4508.360865503950663 3417.352755777851598 13616.58331673220528 
	4508.3608655038297 3449.93902261464109 13645.70359296548668 
	4508.360865503701461 3487.379675959265114 13687.60015402154386 
	4508.360865503525929 3519.894266158657501 13733.42498465872632 
	4508.360865503382229 3547.073449231888389 13782.60233358014193 
	4508.360865503107561 3568.57593595184062 13834.51339126609309 
	4508.360865502640991 3584.130793967297905 13888.50571172790296 
	4508.360865502198067 3591.973831258371774 13934.66767161755888 
	4508.360865502042543 3594.72506047289562 13967.28968970202914 
	4508.360865501997978 3595.413415068199356 13983.63927157175021 
	4508.360865501987973 3595.585508508072508 13991.81889510270048 
	4508.360865501983426 3595.628537621276337 13995.90930916126126 
	4508.360865501983426 3595.639294263913143 13997.95459180103353 
	4508.360865501982516 3595.642367735538301 13999.1233354689648 
	4508.360865501983426 3595.642879973038362 13999.70770910605461 
	4508.360865501983426 3595.642879967427689 13999.99989592388738 
	4625.027532182644791 3595.642879967427234 13999.99989592388738 
	4625.027532182647519 3595.642879922543216 14002.33739046654955 
	4625.027532182655705 3595.610095914655176 14007.01237946054789 
	4625.027532182666619 3595.413405523804613 14016.36051892444993 
	4625.027532182709365 3594.725101028166137 14032.71010555052271 
	4625.027532182831237 3592.759716079647205 14056.0115165983625 
	4625.027532182939467 3588.836933675121145 14083.79692952046207 
	4625.027532183057701 3581.538050306800415 14120.49273135903604 
	4625.02753218342059 3568.575883775449711 14165.48629405011525 
	4625.0275321837089 3547.073454399320326 14217.39742118359391 
	4625.027532184002666 3519.89416717606764 14266.57465155532373 
	4625.027532184285519 3487.379680565064973 14312.39957319251698 
	4625.027532184383745 3449.938955444937164 14354.29599894556486 
	4625.027532184462871 3409.594199297996056 14390.34989292861064 
	4625.027532184653865 3367.366058595853701 14420.70972494547095 
	4625.027532184672054 3324.126608492286778 14445.67387970075288 
	4625.027532184712982 3282.408956134073378 14464.49781573659311 
	4625.027532184741176 3243.157815473187384 14478.23149946675403 
	4625.027532184789379 3194.957088552968344 14491.14879002919952 
	4625.027532184803022 3133.147748696148483 14500.46574020143998 
	4625.027532184853953 3058.138034972762398 14500.465780487948 
	4625.027532184866686 2996.328645197548667 14491.14907235833743 
	4625.027532184886695 2948.127895806592278 14478.23175182404157 
	4625.027532184906704 2912.801926223165992 14465.87136526790709 
	4625.027532184923075 2884.215898029684013 14453.39901607361207 
	4625.027532184928532 2861.954148932269618 14442.16072772678672 
	4625.027532184933079 2840.128109050835974 14430.09797037253884 
	4625.027532184953998 2813.720143275252212 14413.50474883034258 
	4625.027532184958545 2783.607168448756056 14391.28041885540733 
	4625.027532184980373 2759.967312498764386 14370.9365343404279 
	4625.027532184982192 2742.007152354137816 14353.63571446648348 
	4625.02753218498674 2729.031561747254273 14340.16556759890955 
	4625.027532184989468 2718.645905073871745 14328.5439444142412 
	4625.027532184992197 2710.602401682815525 14319.01856310305266 
	4625.027532184994016 2698.8065917027061 14304.50729844667512 
	4625.027532185011296 2674.728651168901251 14271.88581101336604 
	4625.027532185012205 2654.934302879767984 14237.60172436880748 
	4625.027532185015843 2640.697173291620857 14207.55946060932183 
	4625.027532185013115 2633.954030715470708 14192.3633057762836 
	4625.027532185018572 2622.563899476675942 14163.3421585727865 
	4625.027532185023119 2610.29988294669738 14123.58353154791257 
	4625.027532185038581 2602.880155736932011 14086.87949912857948 
	4625.0275321850404 2599.471540227406422 14062.1783611293049 
	4625.0275321850404 2598.075596869645324 14049.78915223422518 
	4625.027532185042219 2597.170054105894906 14039.43901356583774 
	4625.027532185041309 2596.600677664212071 14031.14729143757904 
	4625.027532185042219 2594.969128584375994 14002.10365635154631 
	4625.027532185037671 2595.853202297485041 13966.69382717512781 
	4625.027532185034033 2601.539905968125822 13921.32346955933826 
	4625.027532185033124 2607.724316403998273 13888.6358468403123 
	4625.0275321850213 2617.410979522499474 13852.48490202964786 
	4625.027532185023119 2629.772299592721083 13817.15925175216216 
	4625.027532185009477 2649.726005509112838 13771.42071045300145 
	4625.02753218500311 2680.978983160036933 13717.28695759022958 
	4625.027532184991287 2717.354278806385992 13671.67480999900545 
	4625.027532184982192 2743.477242786061652 13644.89396686998407 
	4625.027532184980373 2755.521122526200088 13633.43601790503453 
	4625.027532184976735 2774.009887575029552 13616.70489622423884 
	4625.027532184958545 2803.286688672256332 13593.35744315463126 
	4625.027532184955817 2841.732884769673547 13568.52626228898589 
	4625.027532184933079 2878.498583899543974 13549.09546628148382 
	4625.027532184925803 2912.801802306685204 13534.12884128446058 
	4625.027532184902157 2948.127719926613281 13521.76808260293001 
	4625.027532184874872 2990.303547473564777 13510.46652399143932 
	4625.027532184863958 3039.542878579449734 13502.10028301093735 
	4625.027532184789379 3095.642773646274691 13498.94996050842747 
	4625.027532184772099 3151.742522640446623 13502.1003617063252 
	4625.027532184723896 3200.982022995509396 13510.46651483254573 
	4625.027532184713891 3243.15760499566386 13521.76844992293991 
	4625.027532184692973 3290.259391060844791 13538.24838667520635 
	4625.027532184652955 3335.313516868050101 13559.94460761641858 
	4625.027532184628399 3372.28397688371706 13583.1765738482809 
	4625.027532184611118 3392.622187537350783 13597.60708571417672 
	4625.027532184609299 3417.352755777851144 13616.58331673220528 
	4625.027532184488336 3449.939022614640635 13645.70359296548668 
	4625.027532184361007 3487.379675959264659 13687.60015402154386 
	4625.027532184185475 3519.894266158657047 13733.42498465872632 
	4625.027532184041775 3547.073449231887935 13782.60233358014193 
	4625.027532183768017 3568.575935951840165 13834.51339126609309 
	4625.027532183301446 3584.13079396729745 13888.50571172790296 
	4625.027532182859431 3591.97383125837132 13934.66767161755888 
	4625.027532182702998 3594.725060472895166 13967.28968970202914 
	4625.027532182659343 3595.413415068198901 13983.63927157175021 
	4625.027532182649338 3595.585508508072053 13991.81889510270048 
	4625.027532182644791 3595.628537621275882 13995.90930916126126 
	4625.027532182644791 3595.639294263912689 13997.95459180103353 
	4625.027532182643881 3595.642367735537846 13999.1233354689648 
	4625.027532182644791 3595.642879973037907 13999.70770910605461 
	4625.027532182644791 3595.642879967427234 13999.99989592388738 
	4741.694198863121528 3595.642879967427234 13999.9998959238801 
	4741.694198863125166 3595.642879922543216 14002.33739046654227 
	4741.694198863133352 3595.610095914656085 14007.01237946054425 
	4741.694198863145175 3595.413405523805523 14016.36051892444448 
	4741.69419886319065 3594.725101028167046 14032.71010555051726 
	4741.694198863323436 3592.759716079648115 14056.01151659836069 
	4741.694198863438942 3588.83693367512069 14083.79692952045662 
	4741.694198863567181 3581.538050306800869 14120.49273135903422 
	4741.694198863957354 3568.575883775450166 14165.48629405011343 
	4741.694198864267491 3547.073454399320326 14217.39742118359027 
	4741.694198864583996 3519.894167176068095 14266.57465155532009 
	4741.694198864887767 3487.379680565064973 14312.39957319251516 
	4741.694198864993268 3449.93895544493671 14354.29599894556122 
	4741.694198865078761 3409.594199297995601 14390.34989292860701 
	4741.694198865285216 3367.366058595853247 14420.70972494546913 
	4741.694198865305225 3324.126608492285868 14445.67387970074924 
	4741.694198865348881 3282.408956134072469 14464.49781573658765 
	4741.694198865378894 3243.157815473186929 14478.23149946674857 
	4741.694198865431645 3194.957088552968344 14491.14879002919224 
	4741.694198865444378 3133.147748696148483 14500.46574020143453 
	4741.694198865499857 3058.138034972762398 14500.46578048794254 
	4741.694198865513499 2996.328645197548667 14491.14907235833198 
	4741.694198865533508 2948.127895806591823 14478.23175182403611 
	4741.694198865555336 2912.801926223165538 14465.87136526790346 
	4741.694198865573526 2884.215898029683558 14453.39901607361207 
	4741.694198865578983 2861.954148932269618 14442.16072772678672 
	4741.69419886558444 2840.128109050835519 14430.09797037253884 
	4741.694198865606268 2813.720143275251758 14413.50474883034258 
	4741.694198865611725 2783.607168448755601 14391.28041885540733 
	4741.694198865635371 2759.967312498764386 14370.9365343404279 
	4741.6941988656381 2742.007152354137361 14353.63571446648348 
	4741.694198865642647 2729.031561747254273 14340.16556759890955 
	4741.694198865645376 2718.645905073871745 14328.5439444142412 
	4741.694198865648104 2710.60240168281598 14319.01856310305266 
	4741.694198865649923 2698.806591702705646 14304.50729844667512 
	4741.694198865670842 2674.728651168900797 14271.88581101336422 
	4741.694198865669932 2654.934302879767074 14237.60172436880748 
	4741.69419886567448 2640.697173291620402 14207.55946060931819 
	4741.694198865672661 2633.954030715469798 14192.3633057762836 
	4741.694198865678118 2622.563899476675033 14163.3421585727865 
	4741.694198865682665 2610.299882946696471 14123.58353154791257 
	4741.694198865699946 2602.880155736931556 14086.87949912857948 
	4741.694198865701765 2599.471540227405512 14062.1783611293049 
	4741.694198865703584 2598.075596869644869 14049.78915223422518 
	4741.694198865705403 2597.170054105894451 14039.43901356583774 
	4741.694198865703584 2596.600677664211617 14031.14729143757904 
	4741.694198865704493 2594.96912858437554 14002.10365635154631 
	4741.694198865698127 2595.853202297485041 13966.69382717512781 
	4741.694198865695398 2601.539905968125368 13921.32346955933826 
	4741.694198865693579 2607.724316403998273 13888.6358468403123 
	4741.694198865680846 2617.410979522499019 13852.48490202964786 
	4741.694198865682665 2629.772299592721083 13817.15925175216216 
	4741.694198865667204 2649.726005509112383 13771.42071045300145 
	4741.694198865660837 2680.978983160036933 13717.28695759022958 
	4741.694198865649014 2717.354278806385537 13671.67480999900545 
	4741.694198865639009 2743.477242786062106 13644.89396686998225 
	4741.69419886563719 2755.521122526200088 13633.43601790503271 
	4741.694198865633552 2774.009887575029552 13616.70489622423702 
	4741.694198865613544 2803.286688672255877 13593.35744315462762 
	4741.694198865611725 2841.732884769673092 13568.52626228898225 
	4741.694198865587168 2878.498583899543064 13549.09546628148382 
	4741.694198865578983 2912.801802306684749 13534.12884128445694 
	4741.694198865555336 2948.127719926612372 13521.76808260293001 
	4741.694198865525323 2990.303547473563412 13510.4665239914375 
	4741.694198865513499 3039.542878579448825 13502.10028301093553 
	4741.694198865431645 3095.642773646272872 13498.94996050842383 
	4741.694198865415274 3151.742522640445259 13502.10036170632156 
	4741.694198865361614 3200.982022995508032 13510.46651483254027 
	4741.694198865352519 3243.15760499566295 13521.76844992293445 
	4741.694198865328872 3290.259391060843427 13538.24838667519907 
	4741.694198865285216 3335.313516868049192 13559.9446076164113 
	4741.694198865257931 3372.283976883715695 13583.17657384827362 
	4741.694198865239741 3392.622187537350328 13597.60708571417308 
	4741.694198865237922 3417.352755777850689 13616.583316732198 
	4741.694198865106955 3449.93902261464018 13645.70359296548304 
	4741.694198864968712 3487.379675959264205 13687.6001540215384 
	4741.694198864779537 3519.894266158657047 13733.42498465872268 
	4741.694198864624923 3547.073449231887025 13782.60233358013647 
	4741.694198864330247 3568.57593595183971 13834.51339126608946 
	4741.694198863828206 3584.13079396729745 13888.50571172789932 
	4741.69419886335163 3591.973831258370865 13934.66767161755888 
	4741.694198863183374 3594.725060472896075 13967.28968970202368 
	4741.69419886313608 3595.413415068197992 13983.6392715717484 
	4741.694198863124257 3595.585508508072053 13991.81889510269502 
	4741.694198863120619 3595.628537621275882 13995.90930916125762 
	4741.694198863120619 3595.639294263912689 13997.95459180102989 
	4741.694198863120619 3595.642367735538755 13999.12333546895752 
	4741.694198863121528 3595.642879973037907 13999.70770910604733 
	4741.694198863121528 3595.642879967427234 13999.9998959238801 
	4858.360865543782893 3595.642879967426779 13999.9998959238801 
	4858.360865543786531 3595.642879922542761 14002.33739046654227 
	4858.360865543794716 3595.610095914655631 14007.01237946054425 
	4858.36086554380654 3595.413405523805068 14016.36051892444448 
	4858.360865543851105 3594.725101028166591 14032.71010555051726 
	4858.360865543983891 3592.75971607964766 14056.01151659836069 
	4858.360865544099397 3588.836933675120235 14083.79692952045662 
	4858.360865544226726 3581.538050306800415 14120.49273135903422 
	4858.3608655446169 3568.575883775449711 14165.48629405011343 
	4858.360865544926128 3547.073454399319871 14217.39742118359027 
	4858.360865545241722 3519.89416717606764 14266.57465155532009 
	4858.360865545544584 3487.379680565064518 14312.39957319251516 
	4858.360865545650086 3449.938955444936255 14354.29599894556122 
	4858.360865545734669 3409.594199297995146 14390.34989292860701 
	4858.360865545941124 3367.366058595852792 14420.70972494546913 
	4858.360865545960223 3324.126608492285413 14445.67387970074924 
	4858.360865546003879 3282.408956134072014 14464.49781573658765 
	4858.360865546033892 3243.157815473186474 14478.23149946674857 
	4858.360865546085734 3194.957088552967889 14491.14879002919224 
	4858.360865546099376 3133.147748696148028 14500.46574020143453 
	4858.360865546153946 3058.138034972761943 14500.46578048794254 
	4858.360865546168498 2996.328645197548212 14491.14907235833198 
	4858.360865546188506 2948.127895806591368 14478.23175182403611 
	4858.360865546210334 2912.801926223165083 14465.87136526790346 
	4858.360865546228524 2884.215898029683103 14453.39901607361207 
	4858.360865546233981 2861.954148932269163 14442.16072772678672 
	4858.360865546239438 2840.128109050835064 14430.09797037253884 
	4858.360865546262175 2813.720143275251303 14413.50474883034258 
	4858.360865546267632 2783.607168448755147 14391.28041885540733 
	4858.360865546291279 2759.967312498763931 14370.9365343404279 
	4858.360865546294917 2742.007152354136906 14353.63571446648348 
	4858.360865546299465 2729.031561747253818 14340.16556759890955 
	4858.360865546302193 2718.64590507387129 14328.5439444142412 
	4858.360865546304922 2710.602401682815525 14319.01856310305266 
	4858.36086554630765 2698.806591702705191 14304.50729844667512 
	4858.360865546327659 2674.728651168900342 14271.88581101336422 
	4858.360865546328569 2654.934302879766619 14237.60172436880748 
	4858.360865546333116 2640.697173291619947 14207.55946060931819 
	4858.360865546331297 2633.954030715469344 14192.3633057762836 
	4858.360865546337664 2622.563899476674578 14163.3421585727865 
	4858.360865546342211 2610.299882946696016 14123.58353154791257 
	4858.360865546360401 2602.880155736931101 14086.87949912857948 
	4858.36086554636222 2599.471540227405058 14062.1783611293049 
	4858.360865546364039 2598.075596869644414 14049.78915223422518 
	4858.360865546365858 2597.170054105893996 14039.43901356583774 
	4858.360865546364948 2596.600677664211162 14031.14729143757904 
	4858.360865546365858 2594.969128584375085 14002.10365635154631 
	4858.360865546360401 2595.853202297484586 13966.69382717512781 
	4858.360865546357672 2601.539905968124913 13921.32346955933826 
	4858.360865546356763 2607.724316403997818 13888.6358468403123 
	4858.36086554634403 2617.410979522498565 13852.48490202964786 
	4858.360865546346758 2629.772299592720628 13817.15925175216216 
	4858.360865546332207 2649.726005509111928 13771.42071045300145 
	4858.36086554632584 2680.978983160036478 13717.28695759022958 
	4858.360865546314926 2717.354278806385082 13671.67480999900545 
	4858.360865546304922 2743.477242786061652 13644.89396686998225 
	4858.360865546304012 2755.521122526199633 13633.43601790503271 
	4858.360865546299465 2774.009887575029097 13616.70489622423702 
	4858.360865546281275 2803.286688672255423 13593.35744315462762 
	4858.360865546278546 2841.732884769672637 13568.52626228898225 
	4858.3608655462549 2878.498583899542609 13549.09546628148382 
	4858.360865546246714 2912.801802306684294 13534.12884128445694 
	4858.360865546223067 2948.127719926611917 13521.76808260293001 
	4858.360865546193054 2990.303547473562958 13510.4665239914375 
	4858.36086554618214 3039.54287857944837 13502.10028301093553 
	4858.360865546100285 3095.642773646272417 13498.94996050842383 
	4858.360865546083005 3151.742522640444804 13502.10036170632156 
	4858.360865546030254 3200.982022995507577 13510.46651483254027 
	4858.36086554602025 3243.157604995662496 13521.76844992293445 
	4858.360865545996603 3290.259391060842972 13538.24838667519907 
	4858.360865545952038 3335.313516868048737 13559.9446076164113 
	4858.360865545925662 3372.283976883715241 13583.17657384827362 
	4858.360865545906563 3392.622187537349873 13597.60708571417308 
	4858.360865545904744 3417.352755777850234 13616.583316732198 
	4858.360865545772867 3449.939022614639725 13645.70359296548304 
	4858.360865545634624 3487.37967595926375 13687.6001540215384 
	4858.36086554544454 3519.894266158656592 13733.42498465872268 
	4858.360865545289016 3547.07344923188657 13782.60233358013647 
	4858.36086554499343 3568.575935951839256 13834.51339126608946 
	4858.360865544491389 3584.130793967296995 13888.50571172789932 
	4858.360865544013905 3591.97383125837041 13934.66767161755888 
	4858.360865543845648 3594.72506047289562 13967.28968970202368 
	4858.360865543797445 3595.413415068197537 13983.6392715717484 
	4858.360865543785621 3595.585508508071598 13991.81889510269502 
	4858.360865543781983 3595.628537621275427 13995.90930916125762 
	4858.360865543781983 3595.639294263912234 13997.95459180102989 
	4858.360865543781983 3595.642367735538301 13999.12333546895752 
	4858.360865543782893 3595.642879973037452 13999.70770910604733 
	4858.360865543782893 3595.642879967426779 13999.9998959238801 
	0 
	
	0 
	0 
	86 0 0.002232142857142857019 0.004464285714285714038 0.008928571428571428076 0.01785714285714285615 0.02678571428571428423 0.0357142857142857123 0.05357142857142856845 0.07142857142857142461 0.08928571428571427382 0.1071428571428571369 0.125 0.1428571428571428492 0.1587301587301587213 0.1746031746031745935 0.1904761904761904656 0.2023809523809523836 0.2142857142857142738 0.238095238095238082 0.2619047619047618625 0.2857142857142856984 0.2976190476190476164 0.3095238095238095344 0.3214285714285713969 0.3273809523809523281 0.3333333333333333148 0.3452380952380952328 0.3571428571428570953 0.3690476190476190133 0.375 0.3809523809523809312 0.3869047619047618625 0.3898809523809523281 0.3928571428571428492 0.4047619047619047672 0.4285714285714285476 0.4305555555555555802 0.4365079365079365115 0.4444444444444444198 0.4603174603174602919 0.476190476190476164 0.4801587301587301182 0.4841269841269840724 0.4880952380952380265 0.4900793650793650036 0.4920634920634920362 0.5158730158730158166 0.5238095238095237249 0.5357142857142855874 0.5476190476190475609 0.5595238095238095344 0.5714285714285713969 0.5952380952380951218 0.6190476190476189577 0.6269841269841269771 0.6309523809523809312 0.6349206349206348854 0.650793650793650702 0.6666666666666666297 0.6785714285714286031 0.6904761904761904656 0.7023809523809523281 0.7142857142857141906 0.7321428571428569843 0.749999999999999889 0.7678571428571427937 0.7857142857142855874 0.7976190476190474499 0.8095238095238094234 0.8333333333333332593 0.8452380952380951218 0.851190476190476053 0.8571428571428570953 0.875 0.8928571428571427937 0.9107142857142856984 0.9285714285714286031 0.9464285714285713969 0.9642857142857143016 0.9821428571428572063 0.9910714285714286031 0.9955357142857143016 0.9977678571428572063 0.9988839285714286031 0.9994419642857143016 0.9997209821428572063 
	0 
	0 
	0 
	F 1 F 0 F 1 F 0 } I I I I #
tcoedge-coedge $-1 -1 $-1 $13 $13 $17 $18 reversed $8 $19 -6.283185307179586232 1.350498956678269526e-30 #
tcoedge-coedge $-1 -1 $-1 $20 $21 $10 $15 reversed $11 $22 -6.283185307179586232 -1.350498956678269526e-30 #
tedge-edge $-1 -1 $-1 $23 1.350498956678269526e-30 $23 6.283185307179586232 $14 $24 forward @7 unknown 0.0006523673560160108851 #
pcurve $-1 -1 $-1 0 forward { exppc nurbs 2 periodic 5 
	1.350498956678269526e-30 2 1.570796326794896558 2 3.141592653589793116 2 4.712388980384689674 2 6.283185307179586232 2 
	0 500 1 
	-500 500 0.7071067811865463515 
	-500 0 1 
	-500 -500 0.7071067811865463515 
	0 -500 1 
	500 -500 0.7071067811865463515 
	500 0 1 
	500 500 0.7071067811865463515 
	0 500 1 
	0 
	plane 4858.360865546354034 3095.642797989799419 14000 1 -3.897834435702129261e-15 5.197112580936172875e-15 5.197112580936172875e-15 0 -1 forward_v I I I I 
	} 0 0 #
tcoedge-coedge $-1 -1 $-1 $21 $20 $13 $18 forward $11 $25 -1.350498956678269526e-30 6.283185307179586232 #
tedge-edge $-1 -1 $-1 $26 -1.350498956678269526e-30 $26 6.283185307179586232 $17 $27 forward @7 unknown 0.0006523673555615819644 #
pcurve $-1 -1 $-1 0 forward { exppc nurbs 2 periodic 5 
	-6.283185307179586232 2 -4.712388980384689674 2 -3.141592653589793116 2 -1.570796326794896558 2 1.350498956678269526e-30 2 
	0 500 1 
	500 500 0.707106781186543798 
	500 0 1 
	500 -500 0.7071067811865463515 
	0 -500 1 
	-500 -500 0.7071067811865463515 
	-500 0 1 
	-500 500 0.7071067811865463515 
	0 500 1 
	0 
	plane 4508.36086550436994 3095.642797989800783 14000.00000000000182 -1 3.897834435702129261e-15 5.197112580936172875e-15 -5.197112580936172875e-15 0 -1 reverse_v I I I I 
	} 0 0 #
coedge $-1 -1 $-1 $17 $14 $21 $28 reversed $11 $29 #
coedge $-1 -1 $-1 $14 $17 $20 $28 forward $11 $30 #
pcurve $-1 -1 $-1 0 forward { exppc nubs 1 periodic 2 
	-6.283185307179586232 1 -1.350498956678269526e-30 1 
	1 1 
	0 1 
	4.411402399551008985e-13 
	spline forward { ref 0 } I I I I 
	} 0 0 #
tvertex-vertex $-1 -1 $-1 $15 $31 0.0001324846133580218305 #
ellipse-curve $-1 -1 $-1 4858.360865546354034 3095.642797989799419 14000 1 -3.897834435702129261e-15 5.197112580936172875e-15 1.94891721785106465e-12 500 0 1 I I #
pcurve $-1 -1 $-1 0 forward { exppc nubs 1 periodic 2 
	-1.350498956678269526e-30 1 6.283185307179586232 1 
	0 0 
	1 0 
	4.4114023995510105e-13 
	spline forward { ref 0 } I I I I 
	} 0 0 #
tvertex-vertex $-1 -1 $-1 $18 $32 0.0001324846087863420716 #
ellipse-curve $-1 -1 $-1 4508.36086550436994 3095.642797989800783 14000.00000000000182 1 -3.897834435702129261e-15 -5.197112580936172875e-15 1.94891721785106465e-12 500 0 1 I I #
edge $-1 -1 $-1 $26 0 $23 1 $21 $33 forward @7 tangent #
pcurve $-1 -1 $-1 -1 $33 0 0 #
pcurve $-1 -1 $-1 1 $33 1 0 #
point $-1 -1 $-1 4858.360865546355853 3595.642797989799419 14000 #
point $-1 -1 $-1 4508.360865504371759 3595.642797989800783 14000.00000000000182 #
intcurve-curve $-1 -1 $-1 forward { parcur full nubs 3 open 2 
	0 3 1 3 
	4508.360865501983426 3595.642879967427689 13999.99989592388738 
	4625.027532182644791 3595.642879967427234 13999.99989592388738 
	4741.694198863121528 3595.642879967427234 13999.9998959238801 
	4858.360865543782893 3595.642879967426779 13999.9998959238801 
	0 
	
	spline forward { ref 0 } I I I I 
	null_surface 
	nubs 1 open 2 
	0 1 1 1 
	0 0 
	0 1 
	
	nullbs 
	I I 
	0 
	0 
	0 
	surf1 } F 0 F 1 #
End-of-ACIS-data 