700 0 1 0           
4 LibG 19 ASM 222.0.0.1700 NT 24 Wed Oct  5 17:29:54 2016 
1000 9.999999999999999547e-07 1.000000000000000036e-10 
body $-1 -1 $-1 $1 $-1 $-1 #
lump $-1 -1 $-1 $-1 $2 $0 #
shell $-1 -1 $-1 $-1 $-1 $3 $-1 $1 #
face $-1 -1 $-1 $4 $5 $2 $-1 $6 forward single #
face $-1 -1 $-1 $7 $8 $2 $-1 $9 reversed single #
loop $-1 -1 $-1 $-1 $10 $3 #
plane-surface $-1 -1 $-1 6258.360865714290412 3095.642797989793962 14000.00000000000364 0.9949999999999995515 -0.09987492177719513309 0 0 0 -1 forward_v I I I I #
face $-1 -1 $-1 $-1 $11 $2 $-1 $12 forward single #
loop $-1 -1 $-1 $-1 $13 $4 #
plane-surface $-1 -1 $-1 5908.360865672306318 3095.642797989795326 14000.00000000000182 1 -3.897834435702129261e-15 5.197112580936172875e-15 5.197112580936172875e-15 0 -1 forward_v I I I I #
tcoedge-coedge $-1 -1 $-1 $10 $10 $14 $15 forward $5 $16 0 6.283185307179586232 #
loop $-1 -1 $-1 $-1 $17 $7 #
spline-surface $-1 -1 $-1 forward { exactsur full nubs 3 3 periodic open none none 92 2 
	0 3 0.001116071428571428509 1 0.002232142857142857019 1 0.004464285714285714038 1 0.008928571428571428076 1 
	0.01785714285714285615 1 0.0357142857142857123 1 0.05357142857142856845 1 0.07142857142857142461 1 0.08928571428571427382 1 
	0.1071428571428571369 1 0.1160714285714285754 1 0.125 1 0.1428571428571428492 1 0.1587301587301587213 1 
	0.1746031746031745935 1 0.1904761904761904656 1 0.2023809523809523836 1 0.2142857142857142738 1 0.238095238095238082 1 
	0.2619047619047618625 1 0.2738095238095237804 1 0.2857142857142856984 1 0.2976190476190476164 1 0.3095238095238095344 1 
	0.3154761904761904656 1 0.3214285714285713969 1 0.3333333333333333148 1 0.3452380952380952328 1 0.3571428571428570953 1 
	0.3690476190476190133 1 0.375 1 0.3809523809523809312 1 0.3869047619047618625 1 0.3928571428571428492 1 
	0.4047619047619047672 1 0.4166666666666666297 1 0.4285714285714285476 1 0.4444444444444444198 1 0.4603174603174602919 1 
	0.476190476190476164 1 0.4781746031746031411 1 0.4791666666666666297 1 0.4801587301587301182 1 0.4821428571428570953 1 
	0.4841269841269840724 1 0.4880952380952380265 1 0.4900793650793650036 1 0.4910714285714284921 1 0.4915674603174602364 1 
	0.4920634920634920362 1 0.5158730158730158166 1 0.5238095238095237249 1 0.5357142857142855874 1 0.5476190476190475609 1 
	0.5595238095238095344 1 0.5714285714285713969 1 0.5952380952380951218 1 0.6190476190476189577 1 0.6349206349206348854 1 
	0.650793650793650702 1 0.6666666666666666297 1 0.6785714285714286031 1 0.6904761904761904656 1 0.7023809523809523281 1 
	0.7142857142857141906 1 0.7321428571428569843 1 0.749999999999999889 1 0.7678571428571427937 1 0.7857142857142855874 1 
	0.7976190476190474499 1 0.8095238095238094234 1 0.8154761904761904656 1 0.8333333333333332593 1 0.8452380952380951218 1 
	0.8571428571428570953 1 0.875 1 0.8928571428571427937 1 0.9107142857142856984 1 0.9285714285714286031 1 
	0.9464285714285713969 1 0.9642857142857143016 1 0.9732142857142858094 1 0.9821428571428572063 1 0.9910714285714286031 1 
	0.9955357142857143016 1 0.9977678571428572063 1 0.9988839285714286031 1 0.9994419642857143016 1 0.9997209821428572063 1 
	0.9998604910714286031 1 1 3 
	0 3 1 3 
	5908.360865704049502 3595.642858792616607 13999.99991813025554 
	5908.360865704044954 3595.642858786556644 14001.16866539497823 
	5908.360865704018579 3595.634663387667388 14003.5061599836954 
	5908.360865703992204 3595.585487327523879 14008.18091885664944 
	5908.360865703879426 3595.413392648181343 14016.36054171109026 
	5908.360865703455602 3594.72503717248901 14032.71012215008159 
	5908.360865702107731 3591.973784694333062 14065.33212558015111 
	5908.360865697762165 3584.130752780366038 14111.49406914549763 
	5908.360865694271524 3568.575750442328172 14165.486303519996 
	5908.360865690425271 3547.073459272161472 14217.39742114967885 
	5908.360865687519436 3519.894179135124887 14266.57470086352259 
	5908.360865684399869 3492.798633954242177 14304.76202642196949 
	5908.360865683650445 3468.659354313160748 14333.34783874339155 
	5908.360865682602707 3442.956080504193324 14360.53603959721841 
	5908.360865682060648 3409.594190325348336 14390.34992327435066 
	5908.360865679741437 3367.36596948858778 14420.70969441075977 
	5908.360865679477683 3324.126535496227916 14445.67389104923677 
	5908.360865679157541 3282.408876210414292 14464.4977801197565 
	5908.360865678360824 3243.157677942924693 14478.23143634039479 
	5908.360865677722359 3194.956997139074701 14491.14854399115393 
	5908.360865677384936 3133.14758689779319 14500.46637082555026 
	5908.360865676410867 3070.639694159303872 14500.46485420346653 
	5908.360865676312642 3021.05212204613963 14494.87662507891764 
	5908.360865675951572 2984.278457859456466 14487.91907303287371 
	5908.360865675733294 2948.127643507428729 14478.2322871186243 
	5908.360865675479545 2918.689426896045461 14467.93143974200757 
	5908.360865675418609 2895.650088721490647 14458.38810892539004 
	5908.360865675357672 2872.983620039990001 14447.99017539837587 
	5908.360865675190325 2845.409441845832589 14433.41683093508072 
	5908.360865675042078 2813.719879768888404 14413.5049085113551 
	5908.360865674990237 2783.60687610549985 14391.28061416563287 
	5908.360865674861088 2759.966984333361324 14370.93673229458182 
	5908.360865674844717 2742.006806598294588 14353.63592240041726 
	5908.360865674831075 2729.031219125799907 14340.16577277942451 
	5908.360865674830166 2716.5684011478088 14326.21984171500844 
	5908.360865674828347 2700.658135679668248 14307.0169972581316 
	5908.360865674848355 2682.137740464787385 14281.92292910057949 
	5908.360865674882007 2662.225965846935651 14250.23329601272599 
	5908.360865674928391 2642.794635816989739 14213.46784584166198 
	5908.360865675102104 2625.016577165763465 14171.29391909706828 
	5908.360865675225796 2610.300155890177393 14123.5833799275315 
	5908.360865675606874 2603.292369864424018 14088.91854941830024 
	5908.36086567564962 2600.472179718056395 14069.38182032064651 
	5908.36086567564962 2599.916926706524919 14065.2635170994381 
	5908.360865675652349 2599.387361085243356 14061.14183166945804 
	5908.360865675663263 2598.773590971645262 14055.98368611164369 
	5908.360865675671448 2597.894525229445208 14047.71905224012335 
	5908.360865675718742 2597.170096922350695 14039.43894248915785 
	5908.360865675726927 2596.671856967009262 14032.18368425552762 
	5908.360865675733294 2596.456653142524374 14028.55393696228566 
	5908.360865675735113 2596.343399586249689 14026.4792516526195 
	5908.360865675672358 2595.007856035977966 14000.54137784196246 
	5908.36086567545226 2595.853185354691959 13966.69373970116612 
	5908.360865675421337 2601.539742063515405 13921.32339858026717 
	5908.360865675320383 2607.724163503446107 13888.63574524927935 
	5908.360865675268542 2617.410800692699468 13852.48487125462998 
	5908.360865675228524 2629.772061708521505 13817.159158403736 
	5908.360865675191235 2649.726278465298037 13771.4209219500699 
	5908.360865675177592 2680.978941266860147 13717.28687084556805 
	5908.360865675214882 2722.551208682747983 13665.15910873388202 
	5908.360865675372224 2764.251207813610563 13624.48754624532376 
	5908.360865675414061 2803.286782439241051 13593.35743182602528 
	5908.360865675496825 2841.733091793406857 13568.52637747441622 
	5908.360865675751484 2878.498712664263167 13549.09548879233989 
	5908.360865675871537 2912.801951811394247 13534.12889218150303 
	5908.360865676174399 2948.12785134973592 13521.76808625531157 
	5908.360865676542744 2990.303665372799969 13510.4665640558942 
	5908.360865676752837 3039.543013373019676 13502.10019788482896 
	5908.360865677686888 3095.642834955743183 13498.95014463093321 
	5908.36086567874645 3151.742685025163155 13502.10020152920697 
	5908.360865679065682 3200.9820009594373 13510.4666275893469 
	5908.360865679755079 3243.157878378679015 13521.76804684137096 
	5908.36086568009523 3272.596053427933384 13532.06887726599416 
	5908.360865680367169 3307.155252789311362 13546.38343871989127 
	5908.360865681214818 3340.594709341039106 13563.26420554509968 
	5908.360865681716859 3377.565586696068294 13586.49524105099226 
	5908.360865682261647 3412.697623376837328 13612.42326017584674 
	5908.360865683653174 3449.938951841888866 13645.70381850522972 
	5908.360865684895543 3487.379611839552581 13687.60027680526764 
	5908.36086568711471 3519.894362360415471 13733.42501702089612 
	5908.360865691497565 3547.073483263096023 13782.6023710101108 
	5908.360865694838139 3568.575944367635657 13834.51347623474612 
	5908.360865699371061 3581.538052433597841 13879.50707714861346 
	5908.360865700749855 3588.836933427844087 13916.20287841816207 
	5908.360865702033152 3592.759705483201742 13943.98829603348349 
	5908.36086570342195 3594.72508358547293 13967.28970809205566 
	5908.360865703871241 3595.413385365502563 13983.63929515831842 
	5908.360865704004937 3595.585488843198618 13991.81891721328066 
	5908.360865704035859 3595.628516159339597 13995.90933142491849 
	5908.360865704047683 3595.639273139393026 13997.95461400953536 
	5908.360865704048592 3595.64196237908709 13998.97726472143222 
	5908.360865704051321 3595.642730741970809 13999.5616379069088 
	5908.360865704050411 3595.642858793374216 13999.85382472216406 
	5908.360865704049502 3595.642858792616607 13999.99991813025554 
	6041.673352616600823 3594.809525462502279 13999.99991813025554 
	6041.673352230099226 3594.809525475791361 14001.16866539497823 
	6041.673080737256896 3594.801343668542813 14003.5061599836954 
	6041.671441288140159 3594.752249683512218 14008.18091885664944 
	6041.665715998366977 3594.580441627155324 14016.36054171109026 
	6041.642792724328501 3593.893233750540276 14032.71012215008159 
	6041.551208219421824 3591.14656623234896 14065.33212558015111 
	6041.290096776710925 3583.316606240427973 14111.49406914549763 
	6040.77224736104472 3567.787528799399297 14165.486303519996 
	6040.056400717766337 3546.321074785682413 14217.39742114967885 
	6039.151557701303318 3519.187093458269828 14266.57470086352259 
	6038.249504825388613 3492.136707405261404 14304.76202642196949 
	6037.445863127017219 3468.037660171040443 14333.34783874339155 
	6036.590163055970152 3442.377224947314062 14360.53603959721841 
	6035.479489422858933 3409.070937997628334 14390.34992327435066 
	6034.07364440020956 3366.913097442289654 14420.70969441075977 
	6032.634133722792285 3323.745729122249486 14445.67389104923677 
	6031.245283892281805 3282.097599294155771 14464.4977801197565 
	6029.938547029680194 3242.911819694263158 14478.23143634039479 
	6028.333868176986471 3194.791473313885035 14491.14854399115393 
	6026.276126764577384 3133.085078993690331 14500.46637082555026 
	6024.195138007083187 3070.681365999199443 14500.46485420346653 
	6022.544288850567682 3021.176439715791275 14494.87662507891764 
	6021.320031943024333 2984.464065034290797 14487.91907303287371 
	6020.116513715797737 2948.37350195483441 14478.2322871186243 
	6019.136466585628114 2918.984349067981839 14467.93143974200757 
	6018.369450360790324 2895.983409733252302 14458.38810892539004 
	6017.614845728903674 2873.354718534747462 14447.99017539837587 
	6016.696856974390357 2845.826497260405631 14433.41683093508072 
	6015.641859606053004 2814.189751113097373 14413.5049085113551 
	6014.639349874950312 2784.126935710846283 14391.28061416563287 
	6013.852338950487137 2760.526443765527802 14370.93673229458182 
	6013.254416381852025 2742.596199599267948 14353.63592240041726 
	6012.822437064716723 2729.642238142064798 14340.16577277942451 
	6012.407530210614823 2717.200191487180291 14326.21984171500844 
	6011.877850862263585 2701.316443153617911 14307.0169972581316 
	6011.261277035560852 2682.82691523834319 14281.92292910057949 
	6010.598381570638594 2662.948326902550889 14250.23329601272599 
	6009.951480464565975 2643.549382435197003 14213.46784584166198 
	6009.359620211975198 2625.800953857378317 14171.29391909706828 
	6008.869682966145774 2611.109060122702431 14123.5833799275315 
	6008.636379485067664 2604.112953879886845 14088.91854941830024 
	6008.542499065393713 2601.297463633055941 14069.38182032064651 
	6008.524011784060349 2600.743136143217271 14065.2635170994381 
	6008.506382978294823 2600.214453066094393 14061.14183166945804 
	6008.485948425429342 2599.601705959699302 14055.98368611164369 
	6008.456684370459698 2598.724105252688332 14047.71905224012335 
	6008.432564840375562 2598.000884432403382 14039.43894248915785 
	6008.415980655377098 2597.503474724771422 14032.18368425552762 
	6008.408812419942478 2597.288629760915228 14028.55393696228566 
	6008.405047446019125 2597.175564689089697 14026.4792516526195 
	6008.360550119451545 2595.842248791451311 14000.54137784196246 
	6008.388713324217861 2596.686168186408395 13966.69373970116612 
	6008.578021694625932 2602.36324762270624 13921.32339858026717 
	6008.78391444232966 2608.537361532771229 13888.63574524927935 
	6009.106395551290916 2618.207854473635052 13852.48487125462998 
	6009.517928790447513 2630.548513058342451 13817.159158403736 
	6010.182226158474805 2650.469473350120552 13771.4209219500699 
	6011.222689008454836 2681.67004785807103 13717.28687084556805 
	6012.6066935365061 2723.173028384748704 13665.15910873388202 
	6013.99496094717324 2764.803527215345184 13624.48754624532376 
	6015.294512015243527 2803.77404291302355 13593.35743182602528 
	6016.574457765980696 2842.15627483274011 13568.52637747441622 
	6017.798443727052472 2878.860619762697752 13549.09548879233989 
	6018.9404568522923 2913.106686743643422 13534.12889218150303 
	6020.116514270758671 2948.373709769381549 13521.76808625531157 
	6021.520617224113266 2990.479230723474757 13510.4665640558942 
	6023.159876320284638 3039.636513122701217 13502.10019788482896 
	6025.027532018442798 3095.642834972759374 13498.95014463093321 
	6026.895189219019812 3151.649185234305605 13502.10020152920697 
	6028.53444636984932 3200.806435664980654 13510.4666275893469 
	6029.938552576312759 3242.912019852408775 13521.76804684137096 
	6030.91859500108967 3272.301131412701125 13532.06887726599416 
	6032.069129576984778 3306.802732001777258 13546.38343871989127 
	6033.182381124412132 3340.186456267222638 13563.26420554509968 
	6034.413200848382985 3377.095715565307728 13586.49524105099226 
	6035.582806886461185 3412.169198706473708 13612.42326017584674 
	6036.822630653979104 3449.34845834863836 13645.70381850522972 
	6038.069094769593903 3486.726717090200964 13687.60027680526764 
	6039.151558284006569 3519.187276654368816 13733.42501702089612 
	6040.056399181889901 3546.321098853561125 13782.6023710101108 
	6040.772250530439123 3567.787722566067259 13834.51347623474612 
	6041.203783393862068 3580.728226967605224 13879.50707714861346 
	6041.44676937080385 3588.014943447915357 13916.20287841816207 
	6041.577369589785121 3591.931177314537763 13943.98829603348349 
	6041.642797037342461 3593.893279947601968 13967.28970809205566 
	6041.665713784342188 3594.580434455316208 13983.63929515831842 
	6041.671442395227132 3594.752251143763715 13991.81891721328066 
	6041.672875353159725 3594.795206722281364 13995.90933142491849 
	6041.673233257445645 3594.805945784710275 13997.95461400953536 
	6041.673322800342248 3594.808630541652747 13998.97726472143222 
	6041.673348531541706 3594.809397616365459 13999.5616379069088 
	6041.673352664913182 3594.809525460841087 13999.85382472216406 
	6041.673352616600823 3594.809525462502279 13999.99991813025554 
	6174.985845794978559 3593.976191818797361 13999.99991813025918 
	6174.985846180867156 3593.976191793418366 14001.16866539498187 
	6174.985299158829548 3593.96802377988206 14003.50615998369722 
	6174.9820271527351 3593.9190115249271 14008.1809188566549 
	6174.970564499644752 3593.747490695995111 14016.3605417110939 
	6174.924738323543352 3593.061429398602741 14032.71012215008341 
	6174.741541699697336 3590.319348222870758 14065.33212558015293 
	6174.21933093478583 3582.502459546415594 14111.49406914550127 
	6173.18362570168847 3566.999307323050289 14165.48630351999782 
	6171.751932688596753 3545.568690452274495 14217.39742114968249 
	6169.942247221577418 3518.48000790629203 14266.57470086352259 
	6168.138134635781171 3491.474781323430761 14304.76202642197131 
	6166.530867666735503 3467.415965673691971 14333.34783874339155 
	6164.819455274590837 3441.79836964852575 14360.53603959722022 
	6162.598112734662209 3408.54768569141379 14390.34992327435248 
	6159.78641749979397 3366.460225677409653 14420.7096944107634 
	6156.907393089005382 3323.3649231826912 14445.67389104924223 
	6154.12969496097412 3281.786322735586054 14464.49778011976196 
	6151.51622146534919 3242.665961791834889 14478.23143634040025 
	6148.306861091870815 3194.625949968530222 14491.1485439911612 
	6144.191392490658473 3133.0225708573671 14500.46637082555571 
	6140.029410348483907 3070.723037838569326 14500.46485420347381 
	6136.727704618879216 3021.300757756214352 14494.87662507892492 
	6134.279194691592238 2984.649672385281519 14487.91907303288099 
	6131.87215316279071 2948.619360832441089 14478.23228711863339 
	6129.912060711129925 2919.279271579584019 14467.93143974201666 
	6128.37802483786254 2896.316731256076309 14458.38810892540096 
	6126.868817683097404 2873.725817434987221 14447.99017539838496 
	6125.032837547064446 2846.243553211984818 14433.41683093508982 
	6122.922842381515693 2814.659623015789293 14413.50490851136419 
	6120.917818227158023 2784.646996109579959 14391.28061416564196 
	6119.343796809800551 2761.085903969482388 14370.93673229459091 
	6118.147948032007662 2743.185593554283969 14353.63592240042635 
	6117.283991565286669 2730.253258003860083 14340.16577277943361 
	6116.454175448711794 2717.831982792652525 14326.21984171501754 
	6115.394818277974991 2701.974751517273944 14307.01699725813887 
	6114.161669081348919 2683.516090978861484 14281.92292910058495 
	6112.835877613935736 2663.670688952039654 14250.23329601273326 
	6111.542076153334165 2644.304130009651544 14213.46784584167108 
	6110.358354189133934 2626.585331578274236 14171.29391909707738 
	6109.378490011473332 2611.917964868157014 14123.58337992754605 
	6108.911891412163641 2604.933537989594697 14088.9185494183148 
	6108.72410556165687 2602.122748894422784 14069.38182032066652 
	6108.687136991898115 2601.569346626255992 14065.26351709945629 
	6108.651875472667598 2601.041546288922291 14061.14183166947441 
	6108.611009783469854 2600.429822018689265 14055.98368611166188 
	6108.552477216216175 2599.553686570010996 14047.71905224014154 
	6108.504244525892318 2598.831672917642663 14039.43894248917059 
	6108.471067034341104 2598.335093914368372 14032.18368425554218 
	6108.456741804650846 2598.120607248377382 14028.55393696229839 
	6108.449195588504153 2598.007731475435321 14026.47925165263223 
	6108.360305607332521 2596.676637990281506 14000.54137784197519 
	6108.416569601706215 2597.519150586158048 13966.69373970117522 
	6108.79520563771348 2603.186751783963246 13921.32339858027626 
	6109.206981497356537 2609.350558646559875 13888.63574524928663 
	6109.851952519853512 2619.004906898256195 13852.48487125463726 
	6110.674999257640593 2631.324964040113628 13817.15915840374328 
	6112.003627727247476 2651.212666178104428 13771.42092195007717 
	6114.08452212987595 2682.361153959269814 13717.28687084557532 
	6116.852544558162663 2723.794846927287836 13665.15910873388566 
	6119.629061299114255 2765.355846362763259 13624.48754624533103 
	6122.228185193392164 2804.261302043217711 13593.35743182602891 
	6124.788061582189584 2842.579457285061835 13568.52637747442168 
	6127.236039130197241 2879.222525992462579 13549.09548879234353 
	6129.520059331720404 2913.411421110043648 13534.12889218150667 
	6131.872173366964489 2948.619567663298312 13521.76808625531703 
	6134.680376540793077 2990.654795685219142 13510.46656405589601 
	6137.95889347492448 3039.730012546431681 13502.10019788483442 
	6141.694203070929689 3095.642834753909483 13498.95014463093503 
	6145.429514009874765 3151.555685380858904 13502.10020152921061 
	6148.708029686985356 3200.630870239062006 13510.4666275893469 
	6151.516235940035585 3242.666161503022522 13521.76804684137096 
	6153.476328946249851 3272.006209165993823 13532.06887726599416 
	6155.777391703799367 3306.450211302867046 13546.38343871989309 
	6158.00390326544948 3339.778202858121404 13563.2642055451015 
	6160.465547026353306 3376.625843883320158 13586.49524105099408 
	6162.804750404734477 3411.640773920290485 13612.42326017585037 
	6165.284401407333462 3448.75796456590615 13645.70381850523154 
	6167.777320282765686 3486.073822519686473 13687.60027680526764 
	6169.942264937680193 3518.48019024464611 13733.42501702089612 
	6171.751936622722496 3545.568714246312084 13782.60237101011262 
	6173.183641901709962 3566.999500437371807 13834.51347623474794 
	6174.046698576539711 3579.918401627440744 13879.50707714861346 
	6174.532687770725715 3587.192952730654724 13916.20287841816571 
	6174.793874106496332 3591.102649114474843 13943.98829603348349 
	6174.924738645953767 3593.061475795444039 13967.28970809205748 
	6174.970565986292058 3593.747483338891016 13983.63929515832024 
	6174.98202619704989 3593.919013088446718 13991.81891721328248 
	6174.984890589012139 3593.961897005630817 13995.90933142492031 
	6174.985607037291629 3593.972618118408718 13997.95461400953718 
	6174.985786082000232 3593.975298394655965 13998.97726472143586 
	6174.985837090992391 3593.97606420389593 13999.56163790691426 
	6174.985845746742598 3593.976191821970133 13999.85382472216952 
	6174.985845794978559 3593.976191818797361 13999.99991813025918 
	6308.29833270752988 3593.142858488683032 13999.99991813025918 
	6308.298332706921428 3593.142858482653082 14001.16866539498187 
	6308.297514192068775 3593.134704060757485 14003.50615998369722 
	6308.292602736883964 3593.08577388091544 14008.1809188566549 
	6308.275414794132303 3592.914539674969092 14016.3605417110939 
	6308.206665344417161 3592.229625976654006 14032.71012215008341 
	6307.931884217013248 3589.492129760886655 14065.33212558015293 
	6307.148562013736409 3581.688313006477529 14111.49406914550127 
	6305.595007368464394 3566.211085680121414 14165.48630351999782 
	6303.447467715942366 3544.816305965795436 14217.39742114968249 
	6300.732939235366757 3517.772922229436972 14266.57470086352259 
	6298.026773776775372 3490.812854774449988 14304.76202642197131 
	6295.615865110109553 3466.794271531571667 14333.34783874339155 
	6293.048752647965557 3441.219514091646488 14360.53603959722022 
	6289.716736475468679 3408.024433363693788 14390.34992327435248 
	6285.499196220271187 3366.007353631111528 14420.7096944107634 
	6281.180661132329078 3322.98411680871277 14445.67389104924223 
	6277.014113174108388 3281.475045819327534 14464.49778011976196 
	6273.093902816678565 3242.420103543173354 14478.23143634040025 
	6268.279863591144931 3194.460426143340555 14491.1485439911612 
	6262.106653577860925 3132.960062953264242 14500.46637082555571 
	6255.863682679167141 3070.764709678464897 14500.46485420347381 
	6250.91112779314517 3021.425075425865998 14494.87662507892492 
	6247.238360958675912 2984.83527956011585 14487.91907303288099 
	6243.627801202864248 2948.865219279846769 14478.23228711863339 
	6240.687661621287589 2919.574193751520397 14467.93143974201666 
	6238.386609523243351 2896.650052267837964 14458.38810892540096 
	6236.122797736652501 2874.096915929744682 14447.99017539838496 
	6233.368828846273573 2846.66060862655786 14433.41683093508982 
	6230.203836312535714 2815.129494359998262 14413.50490851136419 
	6227.196302427126284 2785.167055714926391 14391.28061416564196 
	6224.835270085433876 2761.645363401648865 14370.93673229459091 
	6223.041498739022245 2743.774986555257328 14353.63592240042635 
	6221.745562955179594 2730.864277020124973 14340.16577277943361 
	6220.500839984503727 2718.463773132024016 14326.21984171501754 
	6218.911803465415687 2702.633058991223606 14307.01699725813887 
	6217.062080442067781 2684.20526575241729 14281.92292910058495 
	6215.07339350969778 2664.393050007654892 14250.23329601273326 
	6213.132690942976296 2645.058876627858808 14213.46784584167108 
	6211.357108726010665 2627.369708269889088 14171.29391909707738 
	6209.887307302396039 2612.726869100682052 14123.58337992754605 
	6209.18740522162625 2605.754122005057525 14088.9185494183148 
	6208.905738951402782 2602.94803280942233 14069.38182032066652 
	6208.850283100309753 2602.395556062948344 14065.26351709945629 
	6208.797392775310982 2601.868638269773328 14061.14183166947441 
	6208.736092533236842 2601.257937006743305 14055.98368611166188 
	6208.648295911005334 2600.38326659325412 14047.71905224014154 
	6208.575943690549138 2599.662460427695351 14039.43894248917059 
	6208.526182013992184 2599.166711672130532 14032.18368425554218 
	6208.504688548860941 2598.952583866768236 14028.55393696229839 
	6208.493377358789076 2598.839896578275329 14026.47925165263223 
	6208.359990051110799 2597.511030745754852 14000.54137784197519 
	6208.444417250471815 2598.352133417874484 13966.69373970117522 
	6209.012361656916255 2604.01025734315408 13921.32339858027626 
	6209.630030264363995 2610.163756675884997 13888.63574524928663 
	6210.597482395872248 2619.801960679191779 13852.48487125463726 
	6211.832062372855034 2632.101415389934573 13817.15915840374328 
	6213.824988210525589 2651.955861062926942 13771.42092195007717 
	6216.946345463146827 2683.052260550480696 13717.28687084557532 
	6221.098372419446605 2724.416666629288557 13665.15910873388566 
	6225.263156570907995 2765.90816576449788 13624.48754624533103 
	6229.161831533213444 2804.748562517000209 13593.35743182602891 
	6233.001653672664361 2843.002640324395088 13568.52637747442168 
	6236.673617181489135 2879.584433090897164 13549.09548879234353 
	6240.099650508132072 2913.716156042292823 13534.12889218150667 
	6243.627821961538757 2948.865426082943941 13521.76808625531703 
	6247.840128088353595 2990.83036103589393 13510.46656405589601 
	6252.757904118446277 3039.823512296113222 13502.10019788483442 
	6258.360869411675594 3095.642834770925674 13498.95014463093503 
	6263.963837550138123 3151.462185590001354 13502.10020152921061 
	6268.881610377758079 3200.455304944605359 13510.4666275893469 
	6273.093922836583261 3242.420302976752282 13521.76804684137096 
	6276.034058267234286 3271.711287150761564 13532.06887726599416 
	6279.485655600407881 3306.097690515332943 13546.38343871989309 
	6282.825418708637699 3339.369949784304936 13563.2642055451015 
	6286.517882193011246 3376.155972752559592 13586.49524105099408 
	6290.026691608924921 3411.112349249926865 13612.42326017585037 
	6293.746166377652116 3448.167471072655644 13645.70381850523154 
	6297.48554936745677 3485.420927770334856 13687.60027680526764 
	6300.732957534567504 3517.773104538599455 13733.42501702089612 
	6303.447470113110285 3544.816329836777186 13782.60237101011262 
	6305.595026737307307 3566.21127863580341 13834.51347623474794 
	6306.88961627102799 3579.108576161448127 13879.50707714861346 
	6307.618591440777891 3586.370962750725994 13916.20287841816571 
	6308.010377994247392 3590.274120945810864 13943.98829603348349 
	6308.206669979874277 3592.229672157573077 13967.28970809205748 
	6308.275414066763005 3592.914532428704661 13983.63929515832024 
	6308.292602888272086 3593.085775389011815 13991.81891721328248 
	6308.296900238136004 3593.128587568572584 13995.90933142492031 
	6308.297974590689591 3593.139290763725967 13997.95461400953718 
	6308.298243178293887 3593.141966557221622 13998.97726472143586 
	6308.298319918482775 3593.142731078290581 13999.56163790691426 
	6308.298332707605368 3593.142858489437003 13999.85382472216952 
	6308.29833270752988 3593.142858488683032 13999.99991813025918 
	0 
	
	0 
	0 
	89 0 0.001116071428571428509 0.002232142857142857019 0.004464285714285714038 0.008928571428571428076 0.01785714285714285615 0.0357142857142857123 0.05357142857142856845 0.07142857142857142461 0.08928571428571427382 0.1071428571428571369 0.1160714285714285754 0.125 0.1428571428571428492 0.1587301587301587213 0.1746031746031745935 0.1904761904761904656 0.2023809523809523836 0.2142857142857142738 0.238095238095238082 0.2619047619047618625 0.2738095238095237804 0.2857142857142856984 0.2976190476190476164 0.3095238095238095344 0.3154761904761904656 0.3214285714285713969 0.3333333333333333148 0.3452380952380952328 0.3571428571428570953 0.3690476190476190133 0.375 0.3809523809523809312 0.3869047619047618625 0.3928571428571428492 0.4047619047619047672 0.4166666666666666297 0.4285714285714285476 0.4444444444444444198 0.4603174603174602919 0.476190476190476164 0.4781746031746031411 0.4791666666666666297 0.4801587301587301182 0.4821428571428570953 0.4880952380952380265 0.4900793650793650036 0.4910714285714284921 0.4915674603174602364 0.4920634920634920362 0.5158730158730158166 0.5238095238095237249 0.5357142857142855874 0.5476190476190475609 0.5595238095238095344 0.5714285714285713969 0.5952380952380951218 0.6190476190476189577 0.6349206349206348854 0.650793650793650702 0.6666666666666666297 0.6785714285714286031 0.6904761904761904656 0.7023809523809523281 0.7142857142857141906 0.7321428571428569843 0.749999999999999889 0.7678571428571427937 0.7857142857142855874 0.7976190476190474499 0.8095238095238094234 0.8154761904761904656 0.8333333333333332593 0.8452380952380951218 0.8571428571428570953 0.875 0.8928571428571427937 0.9107142857142856984 0.9285714285714286031 0.9464285714285713969 0.9642857142857143016 0.9732142857142858094 0.9821428571428572063 0.9910714285714286031 0.9955357142857143016 0.9977678571428572063 0.9994419642857143016 0.9997209821428572063 0.9998604910714286031 
	0 
	0 
	0 
	F 1 F 0 F 1 F 0 } I I I I #
tcoedge-coedge $-1 -1 $-1 $13 $13 $17 $18 reversed $8 $19 -6.283185307179586232 -1.350498956678269526e-30 #
tcoedge-coedge $-1 -1 $-1 $20 $21 $10 $15 reversed $11 $22 -6.283185307179586232 -0 #
tedge-edge $-1 -1 $-1 $23 0 $23 6.283185307179586232 $14 $24 forward @7 unknown 0.0006473881516807486252 #
pcurve $-1 -1 $-1 0 forward { exppc nurbs 2 periodic 5 
	0 2 1.570796326794896558 2 3.141592653589793116 2 4.712388980384689674 2 6.283185307179586232 2 
	0 500 1 
	-500 500 0.7071067811865467956 
	-500 0 1 
	-500 -500 0.7071067811865467956 
	0 -500 1 
	500 -500 0.7071067811865467956 
	500 0 1 
	500 500 0.7071067811865467956 
	0 500 1 
	0 
	plane 6258.360865714290412 3095.642797989793962 14000.00000000000364 0.9949999999999995515 -0.09987492177719513309 0 0 0 -1 forward_v I I I I 
	} 0 0 #
tcoedge-coedge $-1 -1 $-1 $21 $20 $13 $18 forward $11 $25 1.350498956678269526e-30 6.283185307179586232 #
tedge-edge $-1 -1 $-1 $26 1.350498956678269526e-30 $26 6.283185307179586232 $17 $27 forward @7 unknown 0.0006473878899095580723 #
pcurve $-1 -1 $-1 0 forward { exppc nurbs 2 periodic 5 
	-6.283185307179586232 2 -4.712388980384689674 2 -3.141592653589793116 2 -1.570796326794896558 2 -1.350498956678269526e-30 2 
	0 500 1 
	500 500 0.707106781186543798 
	500 0 1 
	500 -500 0.7071067811865463515 
	0 -500 1 
	-500 -500 0.7071067811865463515 
	-500 0 1 
	-500 500 0.7071067811865463515 
	0 500 1 
	0 
	plane 5908.360865672306318 3095.642797989795326 14000.00000000000182 -1 3.897834435702129261e-15 -5.197112580936172875e-15 5.197112580936172875e-15 0 -1 reverse_v I I I I 
	} 0 0 #
coedge $-1 -1 $-1 $17 $14 $21 $28 reversed $11 $29 #
coedge $-1 -1 $-1 $14 $17 $20 $28 forward $11 $30 #
pcurve $-1 -1 $-1 0 forward { exppc nubs 1 periodic 2 
	-6.283185307179586232 1 -0 1 
	1 1 
	0 1 
	5.396945621377385771e-12 
	spline forward { ref 0 } I I I I 
	} 0 0 #
tvertex-vertex $-1 -1 $-1 $15 $31 0.0001019805833834802595 #
ellipse-curve $-1 -1 $-1 6258.360865714290412 3095.642797989793962 14000.00000000000364 0.9949999999999995515 -0.09987492177719513309 0 49.93746088859756327 497.4999999999997726 0 1 I I #
pcurve $-1 -1 $-1 0 forward { exppc nubs 1 periodic 2 
	1.350498956678269526e-30 1 6.283185307179586232 1 
	0 0 
	1 0 
	4.411402498930331061e-13 
	spline forward { ref 0 } I I I I 
	} 0 0 #
tvertex-vertex $-1 -1 $-1 $18 $32 0.0001019786324632307456 #
ellipse-curve $-1 -1 $-1 5908.360865672306318 3095.642797989795326 14000.00000000000182 1 -3.897834435702129261e-15 5.197112580936172875e-15 1.94891721785106465e-12 500 0 1 I I #
edge $-1 -1 $-1 $26 8.709413647531012428e-10 $23 0.999999985682158532 $21 $33 forward @7 tangent #
pcurve $-1 -1 $-1 -1 $33 0 0 #
pcurve $-1 -1 $-1 1 $33 1 0 #
point $-1 -1 $-1 6308.298326602887755 3593.142797989793507 14000.00000000000364 #
point $-1 -1 $-1 5908.360865672308137 3595.642797989795326 14000.00000000000182 #
intcurve-curve $-1 -1 $-1 forward { parcur full nubs 3 open 2 
	0 3 1 3 
	5908.360865704049502 3595.642858792616607 13999.99991813025554 
	6041.673352616600823 3594.809525462502279 13999.99991813025554 
	6174.985845794978559 3593.976191818797361 13999.99991813025918 
	6308.29833270752988 3593.142858488683032 13999.99991813025918 
	0 
	
	spline forward { ref 0 } I I I I 
	null_surface 
	nubs 1 open 2 
	0 1 1 1 
	0 0 
	0 1 
	
	nullbs 
	I I 
	0 
	0 
	0 
	surf1 } F 8.709413647531012428e-10 F 0.999999985682158532 #
End-of-ACIS-data 