700 0 1 0           
4 LibG 19 ASM 222.0.0.1700 NT 24 Wed Oct  5 17:29:53 2016 
1000 9.999999999999999547e-07 1.000000000000000036e-10 
body $-1 -1 $-1 $1 $-1 $-1 #
lump $-1 -1 $-1 $-1 $2 $0 #
shell $-1 -1 $-1 $-1 $-1 $3 $-1 $1 #
face $-1 -1 $-1 $4 $5 $2 $-1 $6 forward single #
face $-1 -1 $-1 $7 $8 $2 $-1 $9 reversed single #
loop $-1 -1 $-1 $-1 $10 $3 #
plane-surface $-1 -1 $-1 2758.360865294449468 3095.642797989807605 14000.00000000000182 1 -3.897834435702129261e-15 5.197112580936172875e-15 5.197112580936172875e-15 0 -1 forward_v I I I I #
face $-1 -1 $-1 $-1 $11 $2 $-1 $12 forward single #
loop $-1 -1 $-1 $-1 $13 $4 #
plane-surface $-1 -1 $-1 2408.360865252465373 3095.642797989808969 14000.00000000000182 1 -3.897834435702129261e-15 0 0 0 -1 forward_v I I I I #
tcoedge-coedge $-1 -1 $-1 $10 $10 $14 $15 forward $5 $16 1.350498956678269526e-30 6.283185307179586232 #
loop $-1 -1 $-1 $-1 $17 $7 #
spline-surface $-1 -1 $-1 forward { exactsur full nubs 3 3 periodic open none none 85 2 
	0 3 0.002232142857142857019 1 0.004464285714285714038 1 0.008928571428571428076 1 0.01785714285714285615 1 
	0.0357142857142857123 1 0.05357142857142856845 1 0.0625 1 0.07142857142857142461 1 0.08928571428571427382 1 
	0.1071428571428571369 1 0.125 1 0.1428571428571428492 1 0.1587301587301587213 1 0.1746031746031745935 1 
	0.1904761904761904656 1 0.2023809523809523836 1 0.2142857142857142738 1 0.238095238095238082 1 0.2619047619047618625 1 
	0.2857142857142856984 1 0.3095238095238095344 1 0.3214285714285713969 1 0.3333333333333333148 1 0.3392857142857143016 1 
	0.3452380952380952328 1 0.3571428571428570953 1 0.3630952380952380265 1 0.3690476190476190133 1 0.375 1 
	0.3779761904761904656 1 0.3809523809523809312 1 0.4047619047619047672 1 0.4077380952380952328 1 0.4107142857142856984 1 
	0.4166666666666666297 1 0.4285714285714285476 1 0.4444444444444444198 1 0.4484126984126983739 1 0.4523809523809523281 1 
	0.4603174603174602919 1 0.4682539682539682557 1 0.476190476190476164 1 0.4920634920634920362 1 0.5079365079365079083 1 
	0.5238095238095237249 1 0.5476190476190475609 1 0.5595238095238095344 1 0.5714285714285713969 1 0.5833333333333332593 1 
	0.5952380952380951218 1 0.6071428571428569843 1 0.6190476190476189577 1 0.6349206349206348854 1 0.650793650793650702 1 
	0.6587301587301586103 1 0.6666666666666666297 1 0.6785714285714286031 1 0.6904761904761904656 1 0.7023809523809523281 1 
	0.7142857142857141906 1 0.7232142857142855874 1 0.7321428571428569843 1 0.7410714285714283811 1 0.749999999999999889 1 
	0.7678571428571427937 1 0.7857142857142855874 1 0.7976190476190474499 1 0.8095238095238094234 1 0.8333333333333332593 1 
	0.8571428571428570953 1 0.875 1 0.8928571428571427937 1 0.9107142857142856984 1 0.9285714285714286031 1 
	0.9464285714285713969 1 0.9642857142857143016 1 0.9821428571428572063 1 0.9910714285714286031 1 0.9955357142857143016 1 
	0.9977678571428572063 1 0.9988839285714286031 1 0.9994419642857143016 1 0.9997209821428572063 1 1 3 
	0 3 1 3 
	2408.360865250372626 3595.642841557759311 13999.99989888566233 
	2408.360865250374445 3595.642841532489001 14002.33739341818909 
	2408.360865250381266 3595.610055082042891 14007.0123821156667 
	2408.360865250387178 3595.41337349948526 14016.36052207460307 
	2408.360865250415372 3594.725024551200931 14032.71010505433333 
	2408.360865250508141 3591.973742543691969 14065.33209764987441 
	2408.360865250776442 3584.130833913010974 14111.49409145862955 
	2408.360865251019277 3571.168104266653245 14156.48753238821337 
	2408.360865251096584 3557.824843889339718 14191.44195190211758 
	2408.360865251160249 3542.543449337405946 14225.59357273864589 
	2408.360865251376708 3519.894248334378517 14266.57473038900207 
	2408.360865251530868 3487.379545613278424 14312.39947834144732 
	2408.360865251751875 3449.938925669111086 14354.29602158609669 
	2408.360865251775067 3409.594203789004496 14390.34994564372755 
	2408.360865251939686 3367.366041326679806 14420.70976521099328 
	2408.360865251956056 3324.126593990347828 14445.67394129024979 
	2408.360865251984251 3282.408913616201971 14464.49779714242686 
	2408.360865252039275 3243.157738342863468 14478.23143764567067 
	2408.36086525208384 3194.95704997674784 14491.14870672316101 
	2408.360865252113399 3133.14767018067505 14500.46617495893042 
	2408.360865252187978 3058.138155785271465 14500.46540915395053 
	2408.360865252234362 2983.966448251992006 14489.28636987333994 
	2408.360865252276199 2924.23594337780878 14470.86112090954884 
	2408.360865252302119 2878.498721521674724 14450.90446183216045 
	2408.360865252322128 2850.924405745675813 14436.33154758025557 
	2408.360865252328495 2829.564805912342763 14423.46087132488174 
	2408.360865252332587 2808.701211575991238 14409.80086368405864 
	2408.360865252342592 2788.625905737252651 14394.98463380501562 
	2408.360865252348049 2769.423071333579173 14379.07435059812269 
	2408.360865252350777 2755.477157971278757 14366.61152634872087 
	2408.360865252354415 2744.251992382992739 14355.79857024542798 
	2408.360865252355325 2735.519237553561652 14346.90084920009758 
	2408.360865252358508 2714.106520829107922 14324.25267722608623 
	2408.360865252373515 2694.620145949344987 14299.81751697156324 
	2408.360865252376243 2677.304591914878074 14273.90196928226396 
	2408.360865252376698 2670.57317646598176 14263.40823051497318 
	2408.360865252377607 2659.311559598591884 14244.71846877724965 
	2408.360865252385338 2642.794723228179464 14213.4679374149564 
	2408.360865252388976 2629.865578693151292 14182.79587183098556 
	2408.360865252389885 2621.630147596763436 14159.25988384238553 
	2408.360865252389885 2616.532604833738333 14143.4372754706601 
	2408.360865252389885 2610.903394395156283 14123.42991430433904 
	2408.360865252388976 2605.353541542376206 14099.11419495539667 
	2408.360865252388521 2599.578792302892452 14066.36475500406232 
	2408.360865252385793 2595.435600271312524 14024.96430029009753 
	2408.360865252383519 2595.436065761212831 13975.03583099869502 
	2408.360865252378971 2601.234404965919566 13917.07492146434925 
	2408.36086525237215 2613.288905168644305 13864.25992742416383 
	2408.360865252368967 2629.771895242055052 13817.15916011525042 
	2408.360865252362146 2644.737745392314991 13782.85569850626052 
	2408.360865252356234 2662.226036998818472 13749.76678879823521 
	2408.360865252348503 2682.137792324269867 13718.07718346735783 
	2408.360865252340318 2704.362245080823413 13687.96428436114911 
	2408.360865252332587 2731.487198415205967 13656.4443040819915 
	2408.360865252312578 2764.25068424707797 13624.48721986656892 
	2408.3608652523003 2796.780738922516775 13598.54593135452524 
	2408.360865252296662 2824.257177147218499 13579.81305526375945 
	2408.360865252288932 2849.086046723514755 13564.64029099429354 
	2408.360865252272106 2878.498462518307861 13549.09536016397215 
	2408.360865252263466 2912.801772747320229 13534.12892747568367 
	2408.360865252239819 2948.127631397226651 13521.76788679841775 
	2408.36086525221981 2981.265885719400103 13512.88855373059596 
	2408.360865252206167 3011.845664824551477 13506.80594912002925 
	2408.360865252191161 3039.631104066694206 13502.88322298386811 
	2408.360865252176154 3067.592778930705663 13500.52481640414044 
	2408.3608652521566 3104.992700307594077 13499.47511760366433 
	2408.360865252090662 3151.742511248706705 13502.10030123860452 
	2408.36086525202154 3200.981982911151135 13510.46652320938301 
	2408.360865251980158 3243.15764042292858 13521.76839733763882 
	2408.360865251953328 3290.259298614432282 13538.24840782429783 
	2408.360865251898304 3346.577579764593793 13565.36800077452244 
	2408.360865251785981 3403.387785434479156 13604.10246204624673 
	2408.360865251695486 3449.938766312565804 13645.70391120039494 
	2408.360865251510859 3487.379783705540831 13687.60003215944562 
	2408.360865251351242 3519.894188681428204 13733.42506260713344 
	2408.360865251162522 3547.073543813416109 13782.60228704269866 
	2408.360865250949701 3568.575768760703795 13834.51347347787487 
	2408.360865250740062 3584.130771807510882 13888.5057129407287 
	2408.360865250486768 3591.973773657090078 13934.66768632220919 
	2408.360865250406732 3594.725022429540331 13967.28969292592774 
	2408.360865250381721 3595.413375817984615 13983.63927505408901 
	2408.360865250375355 3595.585470057817474 13991.81889810052053 
	2408.360865250373081 3595.62849914115759 13995.90931214631928 
	2408.360865250372626 3595.639255836376378 13997.95459476635187 
	2408.360865250371717 3595.642329279736714 13999.12333843022316 
	2408.360865250372626 3595.642841560917986 13999.7077120690974 
	2408.360865250372626 3595.642841557759311 13999.99989888566233 
	2525.027531931033991 3595.642841557758857 13999.99989888566233 
	2525.02753193103581 3595.642841532488546 14002.33739341818909 
	2525.027531931042631 3595.610055082042436 14007.0123821156667 
	2525.027531931048543 3595.413373499484806 14016.36052207460307 
	2525.027531931076737 3594.725024551200477 14032.71010505433333 
	2525.027531931169506 3591.973742543691515 14065.33209764987441 
	2525.027531931437807 3584.13083391301052 14111.49409145862955 
	2525.027531931680187 3571.16810426665279 14156.48753238821337 
	2525.027531931757949 3557.824843889339263 14191.44195190211758 
	2525.027531931821159 3542.543449337405491 14225.59357273864589 
	2525.027531932037618 3519.894248334378062 14266.57473038900207 
	2525.027531932191778 3487.379545613277969 14312.39947834144732 
	2525.027531932412785 3449.938925669110631 14354.29602158609669 
	2525.027531932435977 3409.594203789004041 14390.34994564372755 
	2525.027531932600141 3367.366041326679351 14420.70976521099328 
	2525.027531932616512 3324.126593990347374 14445.67394129024979 
	2525.027531932644706 3282.408913616201517 14464.49779714242686 
	2525.027531932699731 3243.157738342863013 14478.23143764567067 
	2525.027531932744296 3194.957049976747385 14491.14870672316101 
	2525.027531932773854 3133.147670180674595 14500.46617495893042 
	2525.027531932848433 3058.13815578527101 14500.46540915395053 
	2525.027531932894817 2983.966448251991551 14489.28636987333994 
	2525.027531932936654 2924.235943377808326 14470.86112090954884 
	2525.027531932962575 2878.49872152167427 14450.90446183216045 
	2525.027531932982583 2850.924405745675358 14436.33154758025557 
	2525.02753193298895 2829.564805912342308 14423.46087132488174 
	2525.027531932993497 2808.701211575990783 14409.80086368405864 
	2525.027531933003047 2788.625905737252197 14394.98463380501562 
	2525.027531933008959 2769.423071333578719 14379.07435059812269 
	2525.027531933011687 2755.477157971278302 14366.61152634872087 
	2525.02753193301487 2744.251992382992285 14355.79857024542798 
	2525.027531933016235 2735.519237553561197 14346.90084920009758 
	2525.027531933019418 2714.106520829107467 14324.25267722608623 
	2525.027531933034425 2694.620145949344533 14299.81751697156324 
	2525.027531933037153 2677.304591914877619 14273.90196928226396 
	2525.027531933037608 2670.573176465981305 14263.40823051497318 
	2525.027531933038517 2659.31155959859143 14244.71846877724965 
	2525.027531933046248 2642.794723228179009 14213.4679374149564 
	2525.027531933049886 2629.865578693150837 14182.79587183098556 
	2525.027531933050795 2621.630147596762981 14159.25988384238553 
	2525.02753193305125 2616.532604833737878 14143.4372754706601 
	2525.027531933050795 2610.903394395155829 14123.42991430433904 
	2525.027531933050341 2605.353541542375751 14099.11419495539667 
	2525.027531933049431 2599.578792302891998 14066.36475500406232 
	2525.027531933047158 2595.435600271312069 14024.96430029009753 
	2525.027531933044884 2595.436065761212376 13975.03583099869502 
	2525.027531933040791 2601.234404965919111 13917.07492146434925 
	2525.027531933033515 2613.288905168643851 13864.25992742416383 
	2525.027531933030787 2629.771895242054597 13817.15916011525042 
	2525.027531933023511 2644.737745392314537 13782.85569850626052 
	2525.027531933018054 2662.226036998818017 13749.76678879823521 
	2525.027531933010323 2682.137792324269412 13718.07718346735783 
	2525.027531933002592 2704.362245080822959 13687.96428436114911 
	2525.027531932994407 2731.487198415205512 13656.4443040819915 
	2525.027531932974853 2764.250684247077515 13624.48721986656892 
	2525.02753193296212 2796.780738922516321 13598.54593135452524 
	2525.027531932958937 2824.257177147218044 13579.81305526375945 
	2525.027531932951206 2849.086046723514301 13564.64029099429354 
	2525.02753193293438 2878.498462518307406 13549.09536016397215 
	2525.02753193292574 2912.801772747319774 13534.12892747568367 
	2525.027531932902093 2948.127631397226196 13521.76788679841775 
	2525.027531932882084 2981.265885719399648 13512.88855373059596 
	2525.027531932868442 3011.845664824551022 13506.80594912002925 
	2525.027531932853435 3039.631104066693752 13502.88322298386811 
	2525.027531932838428 3067.592778930705208 13500.52481640414044 
	2525.027531932818874 3104.992700307593623 13499.47511760366433 
	2525.027531932752936 3151.742511248706251 13502.10030123860452 
	2525.027531932683814 3200.981982911150681 13510.46652320938301 
	2525.027531932642432 3243.157640422928125 13521.76839733763882 
	2525.027531932615602 3290.259298614431827 13538.24840782429783 
	2525.027531932560123 3346.577579764593338 13565.36800077452244 
	2525.027531932448255 3403.387785434478701 13604.10246204624673 
	2525.027531932357306 3449.938766312565349 13645.70391120039494 
	2525.027531932172678 3487.379783705540376 13687.60003215944562 
	2525.027531932013062 3519.89418868142775 13733.42506260713344 
	2525.027531931824342 3547.073543813415654 13782.60228704269866 
	2525.02753193161152 3568.57576876070334 13834.51347347787487 
	2525.027531931401427 3584.130771807510428 13888.5057129407287 
	2525.027531931148133 3591.973773657089623 13934.66768632220919 
	2525.027531931068097 3594.725022429539877 13967.28969292592774 
	2525.027531931043086 3595.413375817984161 13983.63927505408901 
	2525.027531931036719 3595.58547005781702 13991.81889810052053 
	2525.027531931034446 3595.628499141157135 13995.90931214631928 
	2525.027531931033991 3595.639255836375924 13997.95459476635187 
	2525.027531931033081 3595.642329279736259 13999.12333843022316 
	2525.027531931033991 3595.642841560917532 13999.7077120690974 
	2525.027531931033991 3595.642841557758857 13999.99989888566233 
	2641.694198611392039 3595.642841557758402 13999.99989888566233 
	2641.694198611393404 3595.642841532488092 14002.33739341818909 
	2641.694198611401134 3595.610055082041072 14007.0123821156667 
	2641.694198611407955 3595.413373499483441 14016.36052207460307 
	2641.694198611439788 3594.725024551198658 14032.71010505433333 
	2641.694198611546199 3591.97374254369106 14065.33209764987441 
	2641.694198611853608 3584.130833913008701 14111.49409145862955 
	2641.694198612131913 3571.168104266651881 14156.48753238821337 
	2641.694198612220134 3557.824843889337899 14191.44195190211758 
	2641.694198612293349 3542.543449337404127 14225.59357273864589 
	2641.694198612540731 3519.894248334376698 14266.57473038900207 
	2641.694198612717173 3487.379545613276605 14312.39947834144732 
	2641.694198612970013 3449.938925669108812 14354.29602158609669 
	2641.694198612996388 3409.594203789002677 14390.34994564372755 
	2641.694198613185563 3367.366041326678896 14420.70976521099328 
	2641.694198613203753 3324.126593990346464 14445.67394129024979 
	2641.69419861323604 3282.408913616201062 14464.49779714242686 
	2641.69419861329834 3243.157738342862103 14478.23143764567067 
	2641.694198613349727 3194.95704997674784 14491.14870672316101 
	2641.694198613383833 3133.14767018067414 14500.46617495893042 
	2641.694198613469325 3058.13815578527101 14500.46540915395053 
	2641.694198613522985 2983.966448251991096 14489.28636987333994 
	2641.694198613570279 2924.235943377807871 14470.86112090954884 
	2641.694198613600747 2878.49872152167427 14450.90446183216045 
	2641.694198613623485 2850.924405745674903 14436.33154758025557 
	2641.694198613630761 2829.564805912341853 14423.46087132488174 
	2641.694198613635763 2808.701211575989873 14409.80086368405864 
	2641.694198613647586 2788.625905737251287 14394.98463380501562 
	2641.694198613653498 2769.423071333577809 14379.07435059812269 
	2641.694198613656681 2755.477157971276938 14366.61152634872087 
	2641.694198613660774 2744.251992382991375 14355.79857024542798 
	2641.694198613661683 2735.519237553560743 14346.90084920009758 
	2641.694198613664867 2714.106520829106557 14324.25267722608623 
	2641.694198613682602 2694.620145949344533 14299.81751697156324 
	2641.694198613685785 2677.304591914877165 14273.90196928226396 
	2641.694198613686694 2670.57317646598085 14263.40823051497318 
	2641.694198613687604 2659.31155959859143 14244.71846877724965 
	2641.694198613696699 2642.794723228178555 14213.4679374149564 
	2641.694198613700792 2629.865578693150383 14182.79587183098556 
	2641.694198613702156 2621.630147596762072 14159.25988384238553 
	2641.694198613701701 2616.532604833737423 14143.4372754706601 
	2641.694198613702156 2610.903394395154919 14123.42991430433904 
	2641.694198613701246 2605.353541542375751 14099.11419495539667 
	2641.694198613700792 2599.578792302891998 14066.36475500406232 
	2641.694198613697608 2595.435600271312069 14024.96430029009753 
	2641.69419861369488 2595.436065761212831 13975.03583099869502 
	2641.694198613690332 2601.234404965919566 13917.07492146434925 
	2641.694198613682602 2613.288905168644305 13864.25992742416383 
	2641.694198613678964 2629.771895242055052 13817.15916011525042 
	2641.694198613671233 2644.737745392314537 13782.85569850626052 
	2641.694198613663957 2662.226036998818472 13749.76678879823521 
	2641.694198613655772 2682.137792324269867 13718.07718346735783 
	2641.694198613645767 2704.362245080823413 13687.96428436114911 
	2641.694198613637582 2731.487198415206421 13656.4443040819915 
	2641.694198613613935 2764.25068424707797 13624.48721986656892 
	2641.694198613600747 2796.78073892251723 13598.54593135452524 
	2641.694198613595745 2824.257177147218954 13579.81305526375945 
	2641.694198613588014 2849.086046723514301 13564.64029099429354 
	2641.694198613568005 2878.498462518307406 13549.09536016397215 
	2641.694198613558456 2912.801772747318864 13534.12892747568367 
	2641.694198613531626 2948.127631397225741 13521.76788679841775 
	2641.694198613508433 2981.265885719398739 13512.88855373059596 
	2641.694198613492972 3011.845664824550113 13506.80594912002925 
	2641.694198613475692 3039.631104066692842 13502.88322298386811 
	2641.694198613458411 3067.592778930704299 13500.52481640414044 
	2641.694198613436129 3104.992700307592258 13499.47511760366433 
	2641.694198613360186 3151.742511248704886 13502.10030123860452 
	2641.69419861328106 3200.981982911148862 13510.46652320938301 
	2641.694198613233766 3243.157640422926761 13521.76839733763882 
	2641.694198613203298 3290.259298614430008 13538.24840782429783 
	2641.694198613140543 3346.577579764591974 13565.36800077452244 
	2641.69419861301094 3403.387785434476882 13604.10246204624673 
	2641.694198612907712 3449.93876631256353 13645.70391120039494 
	2641.694198612696255 3487.379783705538557 13687.60003215944562 
	2641.694198612513446 3519.894188681426385 13733.42506260713344 
	2641.694198612297441 3547.073543813413835 13782.60228704269866 
	2641.694198612053242 3568.575768760701521 13834.51347347787487 
	2641.694198611814045 3584.130771807509518 13888.5057129407287 
	2641.694198611523007 3591.973773657087804 13934.66768632220919 
	2641.694198611432057 3594.725022429539877 13967.28969292592774 
	2641.694198611402044 3595.413375817982342 13983.63927505408901 
	2641.694198611395677 3595.58547005781702 13991.81889810052053 
	2641.694198611392494 3595.628499141156226 13995.90931214631928 
	2641.694198611392494 3595.639255836375469 13997.95459476635187 
	2641.69419861139113 3595.642329279736259 13999.12333843022316 
	2641.694198611392039 3595.642841560917077 13999.7077120690974 
	2641.694198611392039 3595.642841557758402 13999.99989888566233 
	2758.360865292053404 3595.642841557757947 13999.99989888566233 
	2758.360865292054768 3595.642841532487637 14002.33739341818909 
	2758.360865292062499 3595.610055082040617 14007.0123821156667 
	2758.36086529206932 3595.413373499482987 14016.36052207460307 
	2758.360865292101153 3594.725024551198203 14032.71010505433333 
	2758.360865292207563 3591.973742543690605 14065.33209764987441 
	2758.360865292514973 3584.130833913008246 14111.49409145862955 
	2758.360865292792823 3571.168104266651426 14156.48753238821337 
	2758.360865292881499 3557.824843889337444 14191.44195190211758 
	2758.360865292954259 3542.543449337403672 14225.59357273864589 
	2758.360865293201641 3519.894248334376243 14266.57473038900207 
	2758.360865293378083 3487.37954561327615 14312.39947834144732 
	2758.360865293630923 3449.938925669108357 14354.29602158609669 
	2758.360865293657298 3409.594203789002222 14390.34994564372755 
	2758.360865293846018 3367.366041326678442 14420.70976521099328 
	2758.360865293864208 3324.126593990346009 14445.67394129024979 
	2758.360865293896495 3282.408913616200607 14464.49779714242686 
	2758.360865293958796 3243.157738342861649 14478.23143764567067 
	2758.360865294010182 3194.957049976747385 14491.14870672316101 
	2758.360865294044288 3133.147670180673686 14500.46617495893042 
	2758.360865294129781 3058.138155785270555 14500.46540915395053 
	2758.360865294183441 2983.966448251990641 14489.28636987333994 
	2758.360865294230734 2924.235943377807416 14470.86112090954884 
	2758.360865294261203 2878.498721521673815 14450.90446183216045 
	2758.36086529428394 2850.924405745674449 14436.33154758025557 
	2758.360865294291216 2829.564805912341399 14423.46087132488174 
	2758.360865294296673 2808.701211575989419 14409.80086368405864 
	2758.360865294308041 2788.625905737250832 14394.98463380501562 
	2758.360865294314408 2769.423071333577354 14379.07435059812269 
	2758.360865294317591 2755.477157971276483 14366.61152634872087 
	2758.360865294321684 2744.25199238299092 14355.79857024542798 
	2758.360865294322593 2735.519237553560288 14346.90084920009758 
	2758.360865294325777 2714.106520829106103 14324.25267722608623 
	2758.360865294343512 2694.620145949344078 14299.81751697156324 
	2758.360865294346695 2677.30459191487671 14273.90196928226396 
	2758.360865294347605 2670.573176465980396 14263.40823051497318 
	2758.360865294348514 2659.311559598590975 14244.71846877724965 
	2758.360865294357609 2642.7947232281781 14213.4679374149564 
	2758.360865294361702 2629.865578693149928 14182.79587183098556 
	2758.360865294363066 2621.630147596761617 14159.25988384238553 
	2758.360865294363066 2616.532604833736968 14143.4372754706601 
	2758.360865294363066 2610.903394395154464 14123.42991430433904 
	2758.360865294362611 2605.353541542375297 14099.11419495539667 
	2758.360865294361702 2599.578792302891543 14066.36475500406232 
	2758.360865294358973 2595.435600271311614 14024.96430029009753 
	2758.360865294356245 2595.436065761212376 13975.03583099869502 
	2758.360865294352152 2601.234404965919111 13917.07492146434925 
	2758.360865294343967 2613.288905168643851 13864.25992742416383 
	2758.360865294340783 2629.771895242054597 13817.15916011525042 
	2758.360865294332598 2644.737745392314082 13782.85569850626052 
	2758.360865294325777 2662.226036998818017 13749.76678879823521 
	2758.360865294317591 2682.137792324269412 13718.07718346735783 
	2758.360865294308041 2704.362245080822959 13687.96428436114911 
	2758.360865294299401 2731.487198415205967 13656.4443040819915 
	2758.360865294276209 2764.250684247077515 13624.48721986656892 
	2758.360865294262567 2796.780738922516775 13598.54593135452524 
	2758.360865294258019 2824.257177147218499 13579.81305526375945 
	2758.360865294249834 2849.086046723513846 13564.64029099429354 
	2758.36086529423028 2878.498462518306951 13549.09536016397215 
	2758.36086529422073 2912.80177274731841 13534.12892747568367 
	2758.3608652941939 2948.127631397225286 13521.76788679841775 
	2758.360865294170708 2981.265885719398284 13512.88855373059596 
	2758.360865294155246 3011.845664824549658 13506.80594912002925 
	2758.360865294137966 3039.631104066692387 13502.88322298386811 
	2758.360865294120686 3067.592778930703844 13500.52481640414044 
	2758.360865294098403 3104.992700307591804 13499.47511760366433 
	2758.36086529402246 3151.742511248704432 13502.10030123860452 
	2758.360865293943334 3200.981982911148407 13510.46652320938301 
	2758.36086529389604 3243.157640422926306 13521.76839733763882 
	2758.360865293865572 3290.259298614429554 13538.24840782429783 
	2758.360865293802362 3346.577579764591519 13565.36800077452244 
	2758.360865293673214 3403.387785434476427 13604.10246204624673 
	2758.360865293569532 3449.938766312563075 13645.70391120039494 
	2758.360865293358074 3487.379783705538102 13687.60003215944562 
	2758.360865293175266 3519.894188681425931 13733.42506260713344 
	2758.360865292959261 3547.07354381341338 13782.60228704269866 
	2758.360865292715062 3568.575768760701067 13834.51347347787487 
	2758.36086529247541 3584.130771807509063 13888.5057129407287 
	2758.360865292184371 3591.973773657087349 13934.66768632220919 
	2758.360865292093422 3594.725022429539422 13967.28969292592774 
	2758.360865292063409 3595.413375817981887 13983.63927505408901 
	2758.360865292057042 3595.585470057816565 13991.81889810052053 
	2758.360865292053859 3595.628499141155771 13995.90931214631928 
	2758.360865292053859 3595.639255836375014 13997.95459476635187 
	2758.360865292052495 3595.642329279735804 13999.12333843022316 
	2758.360865292053404 3595.642841560916622 13999.7077120690974 
	2758.360865292053404 3595.642841557757947 13999.99989888566233 
	0 
	
	0 
	0 
	84 0 0.002232142857142857019 0.004464285714285714038 0.008928571428571428076 0.01785714285714285615 0.0357142857142857123 0.05357142857142856845 0.0625 0.07142857142857142461 0.08928571428571427382 0.1071428571428571369 0.125 0.1428571428571428492 0.1587301587301587213 0.1746031746031745935 0.1904761904761904656 0.2023809523809523836 0.2142857142857142738 0.238095238095238082 0.2619047619047618625 0.2857142857142856984 0.3095238095238095344 0.3214285714285713969 0.3333333333333333148 0.3392857142857143016 0.3452380952380952328 0.3571428571428570953 0.3630952380952380265 0.3690476190476190133 0.375 0.3779761904761904656 0.3809523809523809312 0.4047619047619047672 0.4077380952380952328 0.4107142857142856984 0.4166666666666666297 0.4285714285714285476 0.4444444444444444198 0.4484126984126983739 0.4523809523809523281 0.4603174603174602919 0.4682539682539682557 0.476190476190476164 0.4920634920634920362 0.5079365079365079083 0.5238095238095237249 0.5476190476190475609 0.5595238095238095344 0.5714285714285713969 0.5833333333333332593 0.5952380952380951218 0.6071428571428569843 0.6190476190476189577 0.6349206349206348854 0.650793650793650702 0.6587301587301586103 0.6666666666666666297 0.6785714285714286031 0.6904761904761904656 0.7023809523809523281 0.7142857142857141906 0.7232142857142855874 0.7321428571428569843 0.7410714285714283811 0.749999999999999889 0.7678571428571427937 0.7857142857142855874 0.7976190476190474499 0.8095238095238094234 0.8333333333333332593 0.8571428571428570953 0.875 0.8928571428571427937 0.9107142857142856984 0.9285714285714286031 0.9464285714285713969 0.9642857142857143016 0.9821428571428572063 0.9910714285714286031 0.9955357142857143016 0.9977678571428572063 0.9988839285714286031 0.9994419642857143016 0.9997209821428572063 
	0 
	0 
	0 
	F 1 F 0 F 1 F 0 } I I I I #
tcoedge-coedge $-1 -1 $-1 $13 $13 $17 $18 reversed $8 $19 -6.283185307179586232 -0 #
tcoedge-coedge $-1 -1 $-1 $20 $21 $10 $15 reversed $11 $22 -6.283185307179586232 -1.350498956678269526e-30 #
tedge-edge $-1 -1 $-1 $23 1.350498956678269526e-30 $23 6.283185307179586232 $14 $24 forward @7 unknown 0.0006640323174454566954 #
pcurve $-1 -1 $-1 0 forward { exppc nurbs 2 periodic 5 
	1.350498956678269526e-30 2 1.570796326794896558 2 3.141592653589793116 2 4.712388980384689674 2 6.283185307179586232 2 
	0 500 1 
	-500 500 0.7071067811865463515 
	-500 0 1 
	-500 -500 0.7071067811865463515 
	0 -500 1 
	500 -500 0.7071067811865463515 
	500 0 1 
	500 500 0.7071067811865463515 
	0 500 1 
	0 
	plane 2758.360865294449468 3095.642797989807605 14000.00000000000182 1 -3.897834435702129261e-15 5.197112580936172875e-15 5.197112580936172875e-15 0 -1 forward_v I I I I 
	} 0 0 #
tcoedge-coedge $-1 -1 $-1 $21 $20 $13 $18 forward $11 $25 0 6.283185307179586232 #
tedge-edge $-1 -1 $-1 $26 0 $26 6.283185307179586232 $17 $27 forward @7 unknown 0.0006640323156312465634 #
pcurve $-1 -1 $-1 0 forward { exppc nurbs 2 periodic 5 
	-6.283185307179586232 2 -4.712388980384689674 2 -3.141592653589793116 2 -1.570796326794896558 2 0 2 
	0 500 1 
	500 500 0.707106781186543798 
	500 0 1 
	500 -500 0.7071067811865463515 
	0 -500 1 
	-500 -500 0.7071067811865463515 
	-500 0 1 
	-500 500 0.7071067811865463515 
	0 500 1 
	0 
	plane 2408.360865252465373 3095.642797989808969 14000.00000000000182 -1 3.897834435702129261e-15 -0 0 0 -1 reverse_v I I I I 
	} 0 0 #
coedge $-1 -1 $-1 $17 $14 $21 $28 reversed $11 $29 #
coedge $-1 -1 $-1 $14 $17 $20 $28 forward $11 $30 #
pcurve $-1 -1 $-1 0 forward { exppc nubs 1 periodic 2 
	-6.283185307179586232 1 -1.350498956678269526e-30 1 
	1 1 
	0 1 
	4.411402399551008985e-13 
	spline forward { ref 0 } I I I I 
	} 0 0 #
tvertex-vertex $-1 -1 $-1 $15 $31 0.0001101012177705656405 #
ellipse-curve $-1 -1 $-1 2758.360865294449468 3095.642797989807605 14000.00000000000182 1 -3.897834435702129261e-15 5.197112580936172875e-15 1.94891721785106465e-12 500 0 1 I I #
pcurve $-1 -1 $-1 0 forward { exppc nubs 1 periodic 2 
	0 1 6.283185307179586232 1 
	0 0 
	1 0 
	4.4114023995510105e-13 
	spline forward { ref 0 } I I I I 
	} 0 0 #
tvertex-vertex $-1 -1 $-1 $18 $32 0.0001101012177643775431 #
ellipse-curve $-1 -1 $-1 2408.360865252465373 3095.642797989808969 14000.00000000000182 1 -3.897834435702129261e-15 0 1.94891721785106465e-12 500 0 1 I I #
edge $-1 -1 $-1 $26 0 $23 1 $21 $33 forward @7 tangent #
pcurve $-1 -1 $-1 -1 $33 0 0 #
pcurve $-1 -1 $-1 1 $33 1 0 #
point $-1 -1 $-1 2758.360865294451287 3595.642797989807605 14000.00000000000182 #
point $-1 -1 $-1 2408.360865252467192 3595.642797989808969 14000.00000000000182 #
intcurve-curve $-1 -1 $-1 forward { parcur full nubs 3 open 2 
	0 3 1 3 
	2408.360865250372626 3595.642841557759311 13999.99989888566233 
	2525.027531931033991 3595.642841557758857 13999.99989888566233 
	2641.694198611392039 3595.642841557758402 13999.99989888566233 
	2758.360865292053404 3595.642841557757947 13999.99989888566233 
	0 
	
	spline forward { ref 0 } I I I I 
	null_surface 
	nubs 1 open 2 
	0 1 1 1 
	0 0 
	0 1 
	
	nullbs 
	I I 
	0 
	0 
	0 
	surf1 } F 0 F 1 #
End-of-ACIS-data 