700 0 1 0           
4 LibG 19 ASM 222.0.0.1700 NT 24 Wed Oct  5 17:29:55 2016 
1000 9.999999999999999547e-07 1.000000000000000036e-10 
body $-1 -1 $-1 $1 $-1 $-1 #
lump $-1 -1 $-1 $-1 $2 $0 #
shell $-1 -1 $-1 $-1 $-1 $3 $-1 $1 #
face $-1 -1 $-1 $4 $5 $2 $-1 $6 forward single #
face $-1 -1 $-1 $7 $8 $2 $-1 $9 reversed single #
loop $-1 -1 $-1 $-1 $10 $3 #
plane-surface $-1 -1 $-1 9626.318566785095754 421.6048167712801842 14000.00000000000182 0.5399512509335046007 -0.8416962911973318029 -1.559133774280851705e-14 -2.887545443380887787e-14 0 -1 forward_v I I I I #
face $-1 -1 $-1 $-1 $11 $2 $-1 $12 forward single #
loop $-1 -1 $-1 $-1 $13 $4 #
plane-surface $-1 -1 $-1 9437.335628935699788 716.1985187256832432 14000.00000000000182 0.5399512509335046007 -0.8416962911973318029 0 0 0 -1 forward_v I I I I #
tcoedge-coedge $-1 -1 $-1 $10 $10 $14 $15 forward $5 $16 1.146235991553051168e-29 6.283185307179586232 #
loop $-1 -1 $-1 $-1 $17 $7 #
spline-surface $-1 -1 $-1 forward { exactsur full nubs 3 3 periodic open none none 86 2 
	0 3 0.002232142857142857019 1 0.004464285714285714038 1 0.008928571428571428076 1 0.01785714285714285615 1 
	0.0357142857142857123 1 0.05357142857142856845 1 0.0625 1 0.07142857142857142461 1 0.08928571428571427382 1 
	0.1071428571428571369 1 0.125 1 0.1428571428571428492 1 0.1587301587301587213 1 0.1746031746031745935 1 
	0.1904761904761904656 1 0.2023809523809523836 1 0.2142857142857142738 1 0.238095238095238082 1 0.2619047619047618625 1 
	0.2857142857142856984 1 0.2976190476190476164 1 0.3095238095238095344 1 0.3214285714285713969 1 0.3273809523809523281 1 
	0.3333333333333333148 1 0.3452380952380952328 1 0.3571428571428570953 1 0.3690476190476190133 1 0.375 1 
	0.3809523809523809312 1 0.3928571428571428492 1 0.4047619047619047672 1 0.4166666666666666297 1 0.4285714285714285476 1 
	0.4444444444444444198 1 0.4603174603174602919 1 0.476190476190476164 1 0.4801587301587301182 1 0.4821428571428570953 1 
	0.4841269841269840724 1 0.4861111111111110494 1 0.4880952380952380265 1 0.4900793650793650036 1 0.4910714285714284921 1 
	0.4915674603174602364 1 0.491815476190476164 1 0.4920634920634920362 1 0.5158730158730158166 1 0.5238095238095237249 1 
	0.5357142857142855874 1 0.5476190476190475609 1 0.5595238095238095344 1 0.5714285714285713969 1 0.5952380952380951218 1 
	0.6190476190476189577 1 0.6349206349206348854 1 0.650793650793650702 1 0.6666666666666666297 1 0.6785714285714286031 1 
	0.6904761904761904656 1 0.7023809523809523281 1 0.7142857142857141906 1 0.7321428571428569843 1 0.749999999999999889 1 
	0.7678571428571427937 1 0.7857142857142855874 1 0.7976190476190474499 1 0.8095238095238094234 1 0.8333333333333332593 1 
	0.8452380952380951218 1 0.8571428571428570953 1 0.875 1 0.8928571428571427937 1 0.9107142857142856984 1 
	0.9285714285714286031 1 0.9464285714285713969 1 0.9642857142857143016 1 0.9821428571428572063 1 0.9910714285714286031 1 
	0.9955357142857143016 1 0.9977678571428572063 1 0.9988839285714286031 1 0.9994419642857143016 1 0.9997209821428572063 1 
	1 3 
	0 3 1 3 
	9858.183843240889473 986.1741882363076002 13999.99988165981995 
	9858.18384320372752 986.1741882124716767 14002.33737619636668 
	9858.156246791530066 986.1564850131723006 14007.01236493331817 
	9857.990700448532152 986.0502864284377438 14016.36050492057802 
	9857.411318833928817 985.6786110029486281 14032.71008800126947 
	9855.095572082933359 984.1930509894546049 14065.33208069732791 
	9848.494216523376963 979.958257245285381 14111.49407432416774 
	9837.583526831507697 972.9590098850145523 14156.48751410241857 
	9826.352551226502328 965.7542979366905911 14191.44193292639648 
	9813.490255862821869 957.5030883932250845 14225.59355320028953 
	9794.426498353337593 945.2736181918091916 14266.57470644930982 
	9767.058987643225919 927.7172599241542912 14312.39945205998083 
	9735.54534402498939 907.5011422244873529 14354.29598496702238 
	9701.587342468723364 885.7169599594716374 14390.34991237360737 
	9666.044037886811566 862.9158000044676555 14420.70971121084585 
	9629.649561439466197 839.5686101805522412 14445.67389740935323 
	9594.535954229946583 817.0431026602725524 14464.4977866236859 
	9561.498427660342713 795.8494084676362945 14478.23158505171523 
	9520.927998330880655 769.8233295884976997 14491.14854810865836 
	9468.903365421898343 736.4493371972693012 14500.46604061997641 
	9405.767919871741469 695.9477178378100461 14500.46566565182729 
	9353.743223969109749 662.5736850359892287 14491.1487491649641 
	9313.172706286755783 636.5475494778797838 14478.23209902795679 
	9283.439020305655504 617.4732811127622654 14465.87138342806247 
	9259.378207662655768 602.0381817534558877 14453.39921745368156 
	9240.640575595132759 590.0179222131245069 14442.16089112296868 
	9222.26967206664267 578.2329203725587377 14430.09814521478802 
	9200.042142482821873 563.9738788045608544 14413.50494273254844 
	9174.696179022968863 547.7143504932515725 14391.28058255912038 
	9154.798555394805589 534.9499521218292557 14370.93674482180359 
	9139.681561125977169 525.2523449787655636 14353.63591484860262 
	9125.119511513030375 515.9107368632279531 14335.67576306977571 
	9107.996193714547189 504.9260658338736221 14312.0358505364984 
	9089.289984096059925 492.9259639094682939 14281.92291597155418 
	9072.530320307912916 482.1745782584955009 14250.23329298647332 
	9056.175010098280836 471.6825869077898119 14213.4678506152195 
	9041.211387842453405 462.0833684721442296 14171.29387982409753 
	9028.824453927280047 454.1371050363418362 14123.58341451164415 
	9022.579169076379912 450.1307319497434491 14086.87943480841204 
	9019.949245983432775 448.4436266615304021 14064.23671727187502 
	9019.122663844442286 447.9133711945343634 14055.9836866685182 
	9018.567736702290858 447.5573834021167841 14049.78521037936662 
	9018.077885716462333 447.2431422021201115 14043.57899788052237 
	9017.653198203810462 446.9707036086285825 14037.3660120889308 
	9017.35364117304016 446.7785366771705071 14032.18368461869613 
	9017.172517408806016 446.6623451196006727 14028.55393773891774 
	9017.089092374155371 446.6088276545843314 14026.73858755452056 
	9017.043470553599036 446.5795610897463348 14025.70111629016537 
	9015.95853027819976 445.8835679328875017 14000.2810122127612 
	9016.664576380049766 446.3364990912025974 13966.69374158421124 
	9021.450923589092781 449.4069583411518352 13921.32340059297167 
	9026.656327878095908 452.7462442414897055 13888.63574793864973 
	9034.809531718361541 457.9765543411792805 13852.48487453351845 
	9045.213958233911399 464.6510320252489237 13817.15916225331966 
	9062.009345427646622 475.4253343716681002 13771.42092701549154 
	9088.314590616972055 492.3002454229400087 13717.28687888056811 
	9123.305810809193645 514.7472412242345854 13665.1591190503932 
	9158.404539769495386 537.263204293578724 13624.48756102306288 
	9191.260637226952895 558.3405110471616126 13593.35744799261374 
	9223.620752263770555 579.0996432628525099 13568.52639402356726 
	9254.566235858412256 598.9512842314857153 13549.09551292227843 
	9283.439144890751777 617.4733610340700807 13534.1289123219849 
	9313.172818286506299 636.5476213255382163 13521.76812909247565 
	9348.672048561724296 659.3205074537440851 13510.46656582269316 
	9390.116607183621454 685.9073434731064935 13502.10031341647664 
	9437.335656593984822 716.1985364636974509 13498.94997796289863 
	9484.554614504982965 746.4896707578967607 13502.10035318124392 
	9525.999295048850399 773.0765849901424644 13510.46652130682378 
	9561.498290295769038 795.8493203467833155 13521.76858272860045 
	9601.143714928841291 821.2820053283002153 13538.24841652532996 
	9639.065620920999208 845.6090467939474138 13559.94463393599835 
	9674.628963842991652 868.4230614193338624 13586.49528510931123 
	9704.199597837732654 887.3927313381286694 13612.42300463086394 
	9735.545382318232441 907.5011667887237081 13645.70376999073778 
	9767.059141416604689 927.7173585713268267 13687.60010204282298 
	9794.426507241969375 945.2736238953076509 13733.4250239157318 
	9817.303144274048464 959.9490702652182108 13782.6023249069658 
	9835.401696446187998 971.5593577108559202 13834.5134009977246 
	9848.494166745942493 979.9582253137347152 13888.50570213776336 
	9855.095618655082944 984.1930808658689784 13934.66766104791168 
	9857.411318258697065 985.6786106339296794 13967.28967586656108 
	9857.990703500532618 986.0502883862748149 13983.63925749773807 
	9858.135553901500316 986.143210448426089 13991.81888086863 
	9858.171771318129686 986.1664440536926577 13995.90929490627786 
	9858.180825158646257 986.1722521255064748 13997.95457753909795 
	9858.183412062046045 986.1739116335018025 13999.12332120336214 
	9858.183843245533353 986.1741882392871048 13999.70769484275115 
	9858.183843240889473 986.1741882363076002 13999.99988165981995 
	9921.178155857354795 887.9762875848396106 13999.99988165981995 
	9921.178155820192842 887.9762875610035735 14002.33737619636668 
	9921.150559407995388 887.958584361704311 14007.01236493331817 
	9920.985013064997474 887.8523857769696406 14016.36050492057802 
	9920.405631450394139 887.4807103514806386 14032.71008800126947 
	9918.089884699398681 885.9951503379861606 14065.33208069732791 
	9911.488529139842285 881.7603565938170505 14111.49407432416774 
	9900.57783944797302 874.761109233545767 14156.48751410241857 
	9889.34686384296765 867.5563972852219194 14191.44193292639648 
	9876.484568479287191 859.3051877417559581 14225.59355320028953 
	9857.420810969802915 847.0757175403401789 14266.57470644930982 
	9830.053300259691241 829.5193592726848237 14312.39945205998083 
	9798.539656641456531 809.3032415730178855 14354.29598496702238 
	9764.581655085190505 787.5190593080018289 14390.34991237360737 
	9729.038350503278707 764.7178993529980744 14420.70971121084585 
	9692.643874055933338 741.370709529081978 14445.67389740935323 
	9657.530266846413724 718.8452020088028576 14464.4977866236859 
	9624.492740276809855 697.6515078161659176 14478.23158505171523 
	9583.922310947347796 671.6254289370277775 14491.14854810865836 
	9531.897678038365484 638.251436545799038 14500.46604061997641 
	9468.76223248820861 597.7498171863398966 14500.46566565182729 
	9416.737536585576891 564.3757843845189655 14491.1487491649641 
	9376.167018903222925 538.3496488264098616 14478.23209902795679 
	9346.433332922122645 519.2753804612921158 14465.87138342806247 
	9322.372520279122909 503.8402811019859087 14453.39921745368156 
	9303.6348882115999 491.8200215616545847 14442.16089112296868 
	9285.263984683109811 480.0350197210889291 14430.09814521478802 
	9263.036455099289014 465.7759781530909322 14413.50494273254844 
	9237.690491639436004 449.5164498417819914 14391.28058255912038 
	9217.792868011272731 436.7520514703596746 14370.93674482180359 
	9202.675873742442491 427.0544443272960393 14353.63591484860262 
	9188.113824129497516 417.7128362117584857 14335.67576306977571 
	9170.990506331012512 406.7281651824042683 14312.0358505364984 
	9152.284296712525247 394.7280632579991106 14281.92291597155418 
	9135.524632924378238 383.9766776070264314 14250.23329298647332 
	9119.169322714746158 373.484686256320856 14213.4678506152195 
	9104.205700458918727 363.885467820675558 14171.29387982409753 
	9091.818766543745369 355.9392043848733351 14123.58341451164415 
	9085.573481692845235 351.9328312982750617 14086.87943480841204 
	9082.943558599898097 350.2457260100621852 14064.23671727187502 
	9082.116976460907608 349.7154705430660897 14055.9836866685182 
	9081.562049318756181 349.359482750648624 14049.78521037936662 
	9081.072198332927655 349.0452415506518946 14043.57899788052237 
	9080.647510820275784 348.7728029571605362 14037.3660120889308 
	9080.347953789505482 348.5806360257022334 14032.18368461869613 
	9080.166830025271338 348.4644444681326831 14028.55393773891774 
	9080.083404990620693 348.4109270031162282 14026.73858755452056 
	9080.037783170064358 348.3816604382782316 14025.70111629016537 
	9078.952842894665082 347.6856672814195122 14000.2810122127612 
	9079.658888996515088 348.1385984397347784 13966.69374158421124 
	9084.445236205558103 351.2090576896841867 13921.32340059297167 
	9089.65064049456123 354.5483435900222844 13888.63574793864973 
	9097.803844334826863 359.7786536897119163 13852.48487453351845 
	9108.208270850376721 366.45313137378173 13817.15916225331966 
	9125.003658044111944 377.2274337202012475 13771.42092701549154 
	9151.308903233437377 394.1023447714730992 13717.28687888056811 
	9186.300123425657148 416.5493405727682443 13665.1591190503932 
	9221.398852385958889 439.0653036421122124 13624.48756102306288 
	9254.254949843416398 460.1426103956955558 13593.35744799261374 
	9286.615064880234058 480.9017426113862825 13568.52639402356726 
	9317.560548474875759 500.753383580019829 13549.09551292227843 
	9346.43345750721528 519.2754603826039101 13534.1289123219849 
	9376.167130902969802 538.3497206740723868 13521.76812909247565 
	9411.666361178187799 561.1226068022781419 13510.46656582269316 
	9453.110919800084957 587.7094428216406641 13502.10031341647664 
	9500.329969210448326 618.0006358122316215 13498.94997796289863 
	9547.548927121446468 648.2917701064309313 13502.10035318124392 
	9588.993607665313903 674.8786843386765213 13510.46652130682378 
	9624.492602912232542 697.6514196953175997 13521.76858272860045 
	9664.138027545304794 723.0841046768340448 13538.24841652532996 
	9702.059933537462712 747.4111461424814706 13559.94463393599835 
	9737.623276459455155 770.2251607678676919 13586.49528510931123 
	9767.193910454196157 789.1948306866624989 13612.42300463086394 
	9798.539694934695945 809.3032661372570828 13645.70376999073778 
	9830.053454033070011 829.5194579198602014 13687.60010204282298 
	9857.420819858434697 847.0757232438409119 13733.4250239157318 
	9880.297456890513786 861.7511696137511308 13782.6023249069658 
	9898.39600906265332 873.3614570593886128 13834.5134009977246 
	9911.488479362407816 881.7603246622672941 13888.50570213776336 
	9918.089931271548267 885.9951802144011026 13934.66766104791168 
	9920.405630875162387 887.4807099824620309 13967.28967586656108 
	9920.98501611699794 887.8523877348068254 13983.63925749773807 
	9921.129866517965638 887.9453097969580995 13991.81888086863 
	9921.166083934595008 887.9685434022247819 13995.90929490627786 
	9921.17513777511158 887.9743514740384853 13997.95457753909795 
	9921.177724678511368 887.976010982033813 13999.12332120336214 
	9921.178155861998675 887.9762875878191153 13999.70769484275115 
	9921.178155857354795 887.9762875848396106 13999.99988165981995 
	9984.172468474940615 789.7783869316267555 13999.99988165981995 
	9984.172468437778662 789.7783869077911731 14002.33737619636668 
	9984.144872025579389 789.760683708497595 14007.01236493331817 
	9983.979325682577837 789.6544851237690636 14016.36050492057802 
	9983.399944067958131 789.2828096983062096 14032.71008800126947 
	9981.084197316908103 787.7972496848999526 14065.33208069732791 
	9974.482841757191636 783.5624559409789072 14111.49407432416774 
	9963.572152065180489 776.5632085809281762 14156.48751410241857 
	9952.341176460131464 769.3584966326741323 14191.44193292639648 
	9939.478881096414625 761.1072870892653555 14225.59355320028953 
	9920.415123586806658 748.8778168880390922 14266.57470644930982 
	9893.047612876611311 731.3214586205176602 14312.39945205998083 
	9861.533969258249272 711.1053409210418295 14354.29598496702238 
	9827.575967701972331 689.3211586560441901 14390.34991237360737 
	9792.032663119965946 666.5199987011832263 14420.70971121084585 
	9755.638186672616939 643.1728088772775891 14445.67389740935323 
	9720.524579463079135 620.6473013570241619 14464.4977866236859 
	9687.487052893462533 599.4536071644076856 14478.23158505171523 
	9646.916623563984103 573.4275282852929649 14491.14854810865836 
	9594.89199065498542 540.0535358940920787 14500.46604061997641 
	9531.756545104795805 499.5519165346792079 14500.46566565182729 
	9479.731849202142257 466.1778837328893133 14491.1487491649641 
	9439.161331519784653 440.1517481747895317 14478.23209902795679 
	9409.427645538678917 421.0774798096811651 14465.87138342806247 
	9385.366832895677362 405.6423804503798465 14453.39921745368156 
	9366.629200828148896 393.6221209100528426 14442.16089112296868 
	9348.258297299658807 381.8371190694888924 14430.09814521478802 
	9326.030767715832553 367.5780775015001609 14413.50494273254844 
	9300.684804255977724 351.3185491901918454 14391.28058255912038 
	9280.787180627810812 338.5541508187724844 14370.93674482180359 
	9265.670186358984211 328.8565436757090765 14353.63591484860262 
	9251.108136746035598 319.5149355601716366 14335.67576306977571 
	9233.984818947554231 308.5302645308169076 14312.0358505364984 
	9215.278609329068786 296.5301626064094194 14281.92291597155418 
	9198.518945540921777 285.7787769554356032 14250.23329298647332 
	9182.163635331293335 275.2867856047257078 14213.4678506152195 
	9167.200013075469542 265.6875671690709169 14171.29387982409753 
	9154.813079160299822 257.7413037332648855 14123.58341451164415 
	9148.567794309416058 253.7349306466363998 14086.87943480841204 
	9145.937871216470739 252.0478253584200274 14064.23671727187502 
	9145.111289077480251 251.5175698914234772 14055.9836866685182 
	9144.556361935328823 251.1615820990053578 14049.78521037936662 
	9144.066510949502117 250.8473408990082021 14043.57899788052237 
	9143.641823436850245 250.5749023055160194 14037.3660120889308 
	9143.342266406083581 250.3827353740576314 14032.18368461869613 
	9143.161142641847619 250.2665438164874843 14028.55393773891774 
	9143.077717607196973 250.2130263514712283 14026.73858755452056 
	9143.032095786640639 250.1837597866332317 14025.70111629016537 
	9141.947155511237725 249.4877666297788323 14000.2810122127612 
	9142.653201613080455 249.9406977881079115 13966.69374158421124 
	9147.439548822119832 253.0111570380596788 13921.32340059297167 
	9152.644953111119321 256.3504429384041714 13888.63574793864973 
	9160.798156951383135 261.5807530380976687 13852.48487453351845 
	9171.202583466931173 268.2552307221705519 13817.15916225331966 
	9187.997970660666397 279.0295330685931958 13771.42092701549154 
	9214.303215849988192 295.904444119869197 13717.28687888056811 
	9249.294436042211601 318.3514399211634895 13665.1591190503932 
	9284.39316500251698 340.8674029905024554 13624.48756102306288 
	9317.249262459974489 361.944709744083525 13593.35744799261374 
	9349.609377496795787 382.703841959770898 13568.52639402356726 
	9380.554861091444764 402.5554829283915979 13549.09551292227843 
	9409.427770123787923 421.0775597309702789 13534.1289123219849 
	9439.16144351955154 440.1518200224234079 13521.76812909247565 
	9474.660673794782269 462.9247061506092678 13510.46656582269316 
	9516.105232416686704 489.5115421699642866 13502.10031341647664 
	9563.324281827084633 519.8027351604968089 13498.94997796289863 
	9610.543239738095508 550.093869454680771 13502.10035318124392 
	9651.987920281982952 576.6807836868914592 13510.46652130682378 
	9687.486915528917962 599.4535190435085497 13521.76858272860045 
	9727.132340162001128 624.8862040250071459 13538.24841652532996 
	9765.054246154193606 649.2132454906006842 13559.94463393599835 
	9800.617589076209697 672.0272601159480246 13586.49528510931123 
	9830.188223070974345 690.9969300347115677 13612.42300463086394 
	9861.534007551523246 711.1053654852285035 13645.70376999073778 
	9893.047766649944606 731.321557267750336 13687.60010204282298 
	9920.415132475382052 748.8778225916198608 13733.4250239157318 
	9943.291769507521167 763.553268961438107 13782.6023249069658 
	9961.390321679775298 775.1635564068976691 13834.5134009977246 
	9974.482791979720787 783.5624240094768993 13888.50570213776336 
	9981.084243889046775 787.7972795613268318 13934.66766104791168 
	9983.399943492720922 789.2828093292873746 13967.28967586656108 
	9983.979328734578303 789.6544870816042021 13983.63925749773807 
	9984.124179135546001 789.7474091437479728 13991.81888086863 
	9984.160396552179009 789.7706427490121541 13995.90929490627786 
	9984.16945039269558 789.7764508208256302 13997.95457753909795 
	9984.172037296097187 789.7781103288210716 13999.12332120336214 
	9984.172468479586314 789.7783869346062602 13999.70769484275115 
	9984.172468474940615 789.7783869316267555 13999.99988165981995 
	10047.16678109140594 691.580486280158766 13999.99988165981995 
	10047.16678105424398 691.5804862563230699 14002.33737619636668 
	10047.13918464204471 691.5627830570296055 14007.01236493331817 
	10046.97363829904316 691.4565844723009604 14016.36050492057802 
	10046.39425668442345 691.0849090468382201 14032.71008800126947 
	10044.07850993337343 689.5993490334315084 14065.33208069732791 
	10037.47715437365696 685.3645552895105766 14111.49407432416774 
	10026.56646468164581 678.3653079294592771 14156.48751410241857 
	10015.33548907659679 671.1605959812054607 14191.44193292639648 
	10002.47319371287995 662.9093864377962291 14225.59355320028953 
	9983.40943620327198 650.6799162365700795 14266.57470644930982 
	9956.041925493076633 633.1235579690483064 14312.39945205998083 
	9924.528281874716413 612.907440269572362 14354.29598496702238 
	9890.570280318439472 591.1232580045743816 14390.34991237360737 
	9855.026975736433087 568.3220980497136452 14420.70971121084585 
	9818.63249928908408 544.9749082258073258 14445.67389740935323 
	9783.518892079546276 522.4494007055544671 14464.4977866236859 
	9750.481365509929674 501.2557065129373655 14478.23158505171523 
	9709.910936180451245 475.2296276338230427 14491.14854810865836 
	9657.886303271452562 441.8556352426218155 14500.46604061997641 
	9594.750857721262946 401.3540158832090583 14500.46566565182729 
	9542.726161818609398 367.9799830814191068 14491.1487491649641 
	9502.155644136251794 341.9538475233195527 14478.23209902795679 
	9472.421958155146058 322.8795791582110724 14465.87138342806247 
	9448.361145512144503 307.4444797989098674 14453.39921745368156 
	9429.623513444616037 295.4242202585829205 14442.16089112296868 
	9411.252609916125948 283.6392184180190839 14430.09814521478802 
	9389.025080332299694 269.3801768500302956 14413.50494273254844 
	9363.679116872444865 253.1206485387222358 14391.28058255912038 
	9343.781493244277954 240.3562501673028748 14370.93674482180359 
	9328.664498975451352 230.6586430242395238 14353.63591484860262 
	9314.102449362502739 221.3170349087021407 14335.67576306977571 
	9296.979131564019553 210.3323638793475254 14312.0358505364984 
	9278.272921945534108 198.3322619549402361 14281.92291597155418 
	9261.513258157387099 187.5808763039665052 14250.23329298647332 
	9245.157947947758657 177.0888849532567804 14213.4678506152195 
	9230.194325691934864 167.4896665176022452 14171.29387982409753 
	9217.807391776765144 159.5434030817963844 14123.58341451164415 
	9211.56210692588138 155.5370299951680124 14086.87943480841204 
	9208.932183832936062 153.8499247069518105 14064.23671727187502 
	9208.105601693945573 153.3196692399552035 14055.9836866685182 
	9207.550674551794145 152.9636814475371978 14049.78521037936662 
	9207.060823565967439 152.6494402475399852 14043.57899788052237 
	9206.636136053315568 152.377001654047973 14037.3660120889308 
	9206.336579022548904 152.184834722589386 14032.18368461869613 
	9206.155455258312941 152.0686431650194663 14028.55393773891774 
	9206.072030223662296 152.0151257000031251 14026.73858755452056 
	9206.026408403105961 151.9858591351651 14025.70111629016537 
	9204.941468127703047 151.2898659783108428 14000.2810122127612 
	9205.647514229545777 151.7427971366400925 13966.69374158421124 
	9210.433861438585154 154.8132563865920019 13921.32340059297167 
	9215.639265727584643 158.1525422869367219 13888.63574793864973 
	9223.792469567848457 163.3828523866303044 13852.48487453351845 
	9234.196896083396496 170.0573300707033297 13817.15916225331966 
	9250.992283277131719 180.8316324171263716 13771.42092701549154 
	9277.297528466453514 197.7065434684022875 13717.28687888056811 
	9312.288748658675104 220.1535392696971201 13665.1591190503932 
	9347.387477618980483 242.6695023390359438 13624.48756102306288 
	9380.243575076437992 263.7468090926174114 13593.35744799261374 
	9412.60369011325929 284.5059413083046707 13568.52639402356726 
	9443.549173707908267 304.3575822769257115 13549.09551292227843 
	9472.422082740251426 322.8796590795041084 13534.1289123219849 
	9502.155756136015043 341.9539193709576352 13521.76812909247565 
	9537.654986411245773 364.7268054991433814 13510.46656582269316 
	9579.099545033150207 391.313641518498514 13502.10031341647664 
	9626.318594443548136 421.6048345090309795 13498.94997796289863 
	9673.537552354559011 451.8959688032149984 13502.10035318124392 
	9714.982232898446455 478.4828830354254592 13510.46652130682378 
	9750.481228145381465 501.2556183920428339 13521.76858272860045 
	9790.126652778464631 526.6883033735409754 13538.24841652532996 
	9828.04855877065711 551.0153448391347411 13559.94463393599835 
	9863.6119016926732 573.829359464481854 13586.49528510931123 
	9893.182535687437849 592.7990293832453972 13612.42300463086394 
	9924.528320167986749 612.9074648337618783 13645.70376999073778 
	9956.042079266409928 633.1236566162837107 13687.60010204282298 
	9983.409445091847374 650.6799219401531218 13733.4250239157318 
	10006.28608212398649 665.355368309971027 13782.6023249069658 
	10024.38463429624062 676.9656557554304754 13834.5134009977246 
	10037.47710459618611 685.3645233580094782 13888.50570213776336 
	10044.0785565055121 689.5993789098589559 13934.66766104791168 
	10046.39425610918624 691.0849086778197261 13967.28967586656108 
	10046.97364135104363 691.4565864301362126 13983.63925749773807 
	10047.11849175201132 691.5495084922799833 13991.81888086863 
	10047.15470916864433 691.5727420975442783 13995.90929490627786 
	10047.1637630091609 691.5785501693576407 13997.95457753909795 
	10047.16634991256251 691.580209677353082 13999.12332120336214 
	10047.16678109605164 691.5804862831382707 13999.70769484275115 
	10047.16678109140594 691.580486280158766 13999.99988165981995 
	0 
	
	0 
	0 
	85 0 0.002232142857142857019 0.004464285714285714038 0.008928571428571428076 0.01785714285714285615 0.0357142857142857123 0.05357142857142856845 0.0625 0.07142857142857142461 0.08928571428571427382 0.1071428571428571369 0.125 0.1428571428571428492 0.1587301587301587213 0.1746031746031745935 0.1904761904761904656 0.2023809523809523836 0.2142857142857142738 0.238095238095238082 0.2619047619047618625 0.2857142857142856984 0.2976190476190476164 0.3095238095238095344 0.3214285714285713969 0.3273809523809523281 0.3333333333333333148 0.3452380952380952328 0.3571428571428570953 0.3690476190476190133 0.375 0.3809523809523809312 0.3928571428571428492 0.4047619047619047672 0.4166666666666666297 0.4285714285714285476 0.4444444444444444198 0.4603174603174602919 0.476190476190476164 0.4801587301587301182 0.4821428571428570953 0.4841269841269840724 0.4861111111111110494 0.4880952380952380265 0.4900793650793650036 0.4910714285714284921 0.4915674603174602364 0.491815476190476164 0.4920634920634920362 0.5158730158730158166 0.5238095238095237249 0.5357142857142855874 0.5476190476190475609 0.5595238095238095344 0.5714285714285713969 0.5952380952380951218 0.6190476190476189577 0.6349206349206348854 0.650793650793650702 0.6666666666666666297 0.6785714285714286031 0.6904761904761904656 0.7023809523809523281 0.7142857142857141906 0.7321428571428569843 0.749999999999999889 0.7678571428571427937 0.7857142857142855874 0.7976190476190474499 0.8095238095238094234 0.8333333333333332593 0.8452380952380951218 0.8571428571428570953 0.875 0.8928571428571427937 0.9107142857142856984 0.9285714285714286031 0.9464285714285713969 0.9642857142857143016 0.9821428571428572063 0.9910714285714286031 0.9955357142857143016 0.9977678571428572063 0.9988839285714286031 0.9994419642857143016 0.9997209821428572063 
	0 
	0 
	0 
	F 1 F 0 F 1 F 0 } I I I I #
tcoedge-coedge $-1 -1 $-1 $13 $13 $17 $18 reversed $8 $19 -6.283185307179586232 -0 #
tcoedge-coedge $-1 -1 $-1 $20 $21 $10 $15 reversed $11 $22 -6.283185307179586232 -1.146235991553051168e-29 #
tedge-edge $-1 -1 $-1 $23 1.146235991553051168e-29 $23 6.283185307179586232 $14 $24 forward @7 unknown 0.0006477254189323778657 #
pcurve $-1 -1 $-1 0 forward { exppc nurbs 2 periodic 5 
	1.146235991553051168e-29 2 1.570796326794896558 2 3.141592653589793116 2 4.712388980384689674 2 6.283185307179586232 2 
	-1.091393642127513885e-11 500 1 
	-500.0000000000109139 499.9999999999854481 0.7071067811865502373 
	-500 -1.273292582482099533e-11 1 
	-499.9999999999872671 -500.0000000000127329 0.7071067811865399122 
	1.273292582482099533e-11 -500 1 
	500.0000000000127329 -499.9999999999881766 0.7071067811865502373 
	500 1.273292582482099533e-11 1 
	499.9999999999890861 500.0000000000127329 0.7071067811865400232 
	-1.091393642127513885e-11 500 1 
	0 
	plane 9626.318566785095754 421.6048167712801842 14000.00000000000182 0.5399512509335046007 -0.8416962911973318029 -1.559133774280851705e-14 -2.887545443380887787e-14 0 -1 forward_v I I I I 
	} 0 0 #
tcoedge-coedge $-1 -1 $-1 $21 $20 $13 $18 forward $11 $25 0 6.283185307179586232 #
tedge-edge $-1 -1 $-1 $26 0 $26 6.283185307179586232 $17 $27 forward @7 unknown 0.0006477254187979070892 #
pcurve $-1 -1 $-1 0 forward { exppc nurbs 2 periodic 5 
	-6.283185307179586232 2 -4.712388980384689674 2 -3.141592653589793116 2 -1.570796326794896558 2 0 2 
	0 500 1 
	500 500 0.7071067811865450192 
	500 0 1 
	500 -500.0000000000009095 0.7071067811865449082 
	0 -500.0000000000009095 1 
	-500 -500.0000000000009095 0.7071067811865450192 
	-500 0 1 
	-500 500 0.7071067811865450192 
	0 500 1 
	0 
	plane 9437.335628935699788 716.1985187256832432 14000.00000000000182 -0.5399512509335046007 0.8416962911973318029 -0 0 0 -1 reverse_v I I I I 
	} 0 0 #
coedge $-1 -1 $-1 $17 $14 $21 $28 reversed $11 $29 #
coedge $-1 -1 $-1 $14 $17 $20 $28 forward $11 $30 #
pcurve $-1 -1 $-1 0 forward { exppc nubs 1 periodic 2 
	-6.283185307179586232 1 -1.146235991553051168e-29 1 
	1 0.9999999999999988898 
	0 0.9999999999999988898 
	2.347012417050564091e-13 
	spline forward { ref 0 } I I I I 
	} 0 0 #
tvertex-vertex $-1 -1 $-1 $15 $31 0.0001437527421936913815 #
ellipse-curve $-1 -1 $-1 9626.318566785095754 421.6048167712801842 14000.00000000000182 0.5399512509335046007 -0.8416962911973318029 -1.559133774280851705e-14 420.8481455986658943 269.9756254667523194 0 1 I I #
pcurve $-1 -1 $-1 0 forward { exppc nubs 1 periodic 2 
	0 1 6.283185307179586232 1 
	0 0 
	1 0 
	5.373144490637390676e-12 
	spline forward { ref 0 } I I I I 
	} 0 0 #
tvertex-vertex $-1 -1 $-1 $18 $32 0.0001437527411361695813 #
ellipse-curve $-1 -1 $-1 9437.335628935699788 716.1985187256832432 14000.00000000000182 0.5399512509335046007 -0.8416962911973318029 0 420.8481455986658943 269.9756254667523194 0 1 I I #
edge $-1 -1 $-1 $26 0 $23 0.9999999999180462229 $21 $33 forward @7 tangent #
pcurve $-1 -1 $-1 -1 $33 0 0 #
pcurve $-1 -1 $-1 1 $33 1 0 #
point $-1 -1 $-1 10047.16671238376148 691.580442238031992 14000.00000000000182 #
point $-1 -1 $-1 9858.183774534365511 986.1741441924359606 14000.00000000000182 #
intcurve-curve $-1 -1 $-1 forward { parcur full nubs 3 open 2 
	0 3 1 3 
	9858.183843240889473 986.1741882363076002 13999.99988165981995 
	9921.178155857354795 887.9762875848396106 13999.99988165981995 
	9984.172468474940615 789.7783869316267555 13999.99988165981995 
	10047.16678109140594 691.580486280158766 13999.99988165981995 
	0 
	
	spline forward { ref 0 } I I I I 
	null_surface 
	nubs 1 open 2 
	0 1 1 1 
	0 0 
	0 1 
	
	nullbs 
	I I 
	0 
	0 
	0 
	surf1 } F 0 F 0.9999999999180462229 #
End-of-ACIS-data 