700 0 1 0           
4 LibG 19 ASM 222.0.0.1700 NT 24 Wed Oct  5 17:29:54 2016 
1000 9.999999999999999547e-07 1.000000000000000036e-10 
body $-1 -1 $-1 $1 $-1 $-1 #
lump $-1 -1 $-1 $-1 $2 $0 #
shell $-1 -1 $-1 $-1 $-1 $3 $-1 $1 #
face $-1 -1 $-1 $4 $5 $2 $-1 $6 forward single #
face $-1 -1 $-1 $7 $8 $2 $-1 $9 reversed single #
loop $-1 -1 $-1 $-1 $10 $3 #
plane-surface $-1 -1 $-1 5558.360865630322223 3095.642797989796691 14000.00000000000364 1 -3.897834435702129261e-15 -5.197112580936172875e-15 -5.197112580936172875e-15 0 -1 forward_v I I I I #
face $-1 -1 $-1 $-1 $11 $2 $-1 $12 forward single #
loop $-1 -1 $-1 $-1 $13 $4 #
plane-surface $-1 -1 $-1 5208.360865588338129 3095.642797989798055 14000.00000000000182 1 -3.897834435702129261e-15 5.197112580936172875e-15 5.197112580936172875e-15 0 -1 forward_v I I I I #
tcoedge-coedge $-1 -1 $-1 $10 $10 $14 $15 forward $5 $16 -1.350498956678269526e-30 6.283185307179586232 #
loop $-1 -1 $-1 $-1 $17 $7 #
spline-surface $-1 -1 $-1 forward { exactsur full nubs 3 3 periodic open none none 90 2 
	0 3 0.001116071428571428509 1 0.002232142857142857019 1 0.004464285714285714038 1 0.008928571428571428076 1 
	0.01785714285714285615 1 0.0357142857142857123 1 0.05357142857142856845 1 0.07142857142857142461 1 0.08928571428571427382 1 
	0.1071428571428571369 1 0.1160714285714285754 1 0.125 1 0.1428571428571428492 1 0.1587301587301587213 1 
	0.1746031746031745935 1 0.1904761904761904656 1 0.2023809523809523836 1 0.2142857142857142738 1 0.238095238095238082 1 
	0.2619047619047618625 1 0.2857142857142856984 1 0.2976190476190476164 1 0.3095238095238095344 1 0.3154761904761904656 1 
	0.3214285714285713969 1 0.3333333333333333148 1 0.3452380952380952328 1 0.3571428571428570953 1 0.3690476190476190133 1 
	0.375 1 0.3779761904761904656 1 0.3809523809523809312 1 0.3869047619047618625 1 0.3928571428571428492 1 
	0.4047619047619047672 1 0.4166666666666666297 1 0.4285714285714285476 1 0.4444444444444444198 1 0.4603174603174602919 1 
	0.476190476190476164 1 0.4801587301587301182 1 0.4821428571428570953 1 0.4841269841269840724 1 0.4861111111111110494 1 
	0.4880952380952380265 1 0.4900793650793650036 1 0.4910714285714284921 1 0.4915674603174602364 1 0.491815476190476164 1 
	0.4920634920634920362 1 0.5158730158730158166 1 0.5238095238095237249 1 0.5357142857142855874 1 0.5476190476190475609 1 
	0.5595238095238095344 1 0.5714285714285713969 1 0.5952380952380951218 1 0.6190476190476189577 1 0.6349206349206348854 1 
	0.650793650793650702 1 0.6666666666666666297 1 0.6904761904761904656 1 0.7023809523809523281 1 0.7142857142857141906 1 
	0.7321428571428569843 1 0.749999999999999889 1 0.7678571428571427937 1 0.7857142857142855874 1 0.8095238095238094234 1 
	0.8214285714285713969 1 0.8333333333333332593 1 0.8452380952380951218 1 0.8571428571428570953 1 0.875 1 
	0.8928571428571427937 1 0.9107142857142856984 1 0.9285714285714286031 1 0.9464285714285713969 1 0.9642857142857143016 1 
	0.9732142857142858094 1 0.9821428571428572063 1 0.9910714285714286031 1 0.9955357142857143016 1 0.9977678571428572063 1 
	0.9988839285714286031 1 0.9994419642857143016 1 0.9997209821428572063 1 0.9998604910714286031 1 1 3 
	0 3 1 3 
	5208.360865568230111 3595.642812150730151 14000.00002328831397 
	5208.360865568232839 3595.642812148146731 14001.16877054478209 
	5208.360865568245572 3595.634616789186111 14003.50626503826606 
	5208.36086556826649 3595.585440772103539 14008.18102380796518 
	5208.36086556833834 3595.413346274799096 14016.36064622869708 
	5208.360865568622103 3594.724991488481464 14032.71022500635809 
	5208.360865569514317 3591.973741263097054 14065.33222306882453 
	5208.360865572390139 3584.130716651423882 14111.49414898967007 
	5208.360865574690251 3568.575720246769379 14165.48636881400671 
	5208.360865577225923 3547.073435621459339 14217.39746986431783 
	5208.360865579139499 3519.894160569377618 14266.57473663418386 
	5208.360865581200414 3492.798620682367527 14304.76204747844531 
	5208.36086558169427 3468.659342569473665 14333.34785607742924 
	5208.360865582399128 3442.956070097050087 14360.53605145218171 
	5208.360865582749284 3409.594182670824466 14390.34993179282719 
	5208.360865584345447 3367.365961974804577 14420.70968898576393 
	5208.360865584481871 3324.126535823726499 14445.67388233276142 
	5208.360865584795647 3282.408862715103169 14464.49776414903681 
	5208.360865585040301 3243.157741170314694 14478.23156223531259 
	5208.360865585342253 3194.956949073137366 14491.14851732586067 
	5208.360865585711508 3133.147680912649776 14500.46601333993931 
	5208.360865586329055 3058.137920345645398 14500.46559936215272 
	5208.360865586810178 2996.328568097340849 14491.14872136599843 
	5208.360865586906584 2948.127688360024877 14478.23198505609071 
	5208.360865587139415 2918.689392566116112 14467.93156377255036 
	5208.360865587196713 2895.650074867764943 14458.38811835394881 
	5208.360865587260378 2872.983597167065454 14447.99022289228924 
	5208.360865587439548 2845.409432151445799 14433.41682928358387 
	5208.360865587635089 2813.719848569777696 14413.50493129746974 
	5208.360865587694207 2783.606878602035522 14391.28058474232421 
	5208.360865587785156 2759.966980490562946 14370.9367322762173 
	5208.360865587803346 2744.251838496926666 14355.79851026909091 
	5208.360865587816079 2735.519012234105503 14346.90084560102514 
	5208.360865587826083 2726.954089465309153 14337.84144101242782 
	5208.360865587866101 2716.568405585784149 14326.21982661281982 
	5208.360865587878834 2700.658140440469651 14307.01698228751775 
	5208.360865587951594 2682.137742052109843 14281.92290770296677 
	5208.360865587995249 2662.225967122705697 14250.23327077303657 
	5208.360865588050729 2642.794632259310674 14213.4678159046307 
	5208.360865588168963 2625.016576367841026 14171.29387595350272 
	5208.360865588261731 2610.300128319685882 14123.58333132632106 
	5208.36086558846182 2602.880151849533377 14086.87936419930156 
	5208.360865588488195 2599.755614459859771 14064.23663801172188 
	5208.360865588493652 2598.77356956984795 14055.98360758911076 
	5208.360865588496381 2598.11427395042665 14049.78513063575883 
	5208.360865588499109 2597.532292992100793 14043.57891778223711 
	5208.360865588502747 2597.027731631584629 14037.36593152915339 
	5208.360865588503657 2596.671834742980082 14032.18360358304744 
	5208.360865588503657 2596.456645773212131 14028.5538565899169 
	5208.360865588504566 2596.357530404721729 14026.73850632590438 
	5208.360865588505476 2596.303328169017277 14025.70103510854824 
	5208.360865588477282 2595.014335587965888 14000.28092707493488 
	5208.360865588388151 2595.853170589982255 13966.69364043158021 
	5208.360865588360866 2601.539720749172375 13921.32329511028729 
	5208.360865588293564 2607.724135018410834 13888.63562586146145 
	5208.360865588238994 2617.410779747434844 13852.48474733757757 
	5208.360865588170782 2629.772007924894751 13817.15900318279273 
	5208.360865588097113 2649.726307525681023 13771.42079935726542 
	5208.360865587843364 2680.978887958334326 13717.28659558464642 
	5208.360865587606895 2722.551252837895845 13665.15895809962785 
	5208.360865587426815 2764.250972665642621 13624.48693274320249 
	5208.360865587354965 2803.286840947061137 13593.35737668186084 
	5208.360865587217631 2852.217811628232539 13561.75280793256752 
	5208.360865586951149 2901.026344786886966 13538.24831799206368 
	5208.360865586830187 2948.128140806124065 13521.76839653321076 
	5208.360865586675573 2990.303799585299203 13510.46651748537988 
	5208.360865586368163 3039.543199367876696 13502.10042384603912 
	5208.360865586016189 3095.643081425814671 13498.94961432149103 
	5208.360865585626016 3151.742704121385486 13502.10066044588348 
	5208.36086558511488 3213.292480736693051 13512.55667008346791 
	5208.360865584530075 3267.049650655362711 13529.13948840729063 
	5208.360865584371822 3312.7870279902927 13549.09584770408765 
	5208.360865584058956 3345.876181012626148 13566.58335409028405 
	5208.360865583690611 3377.565603660583292 13586.49550930225269 
	5208.360865583324994 3412.697609260399076 13612.42356635977922 
	5208.360865582286351 3449.938957962367567 13645.70406340028239 
	5208.360865581589678 3487.379662364287924 13687.60047987392136 
	5208.360865579079473 3519.894147811165567 13733.42537386488766 
	5208.360865576659307 3547.07342008581918 13782.60257834538606 
	5208.360865574244599 3568.57584150346338 13834.51368090037795 
	5208.360865571346949 3581.537995335856976 13879.5072155345606 
	5208.360865570411988 3588.836875178044011 13916.20300872191729 
	5208.360865569573434 3592.759654007238623 13943.98841406081556 
	5208.36086556864484 3594.725035150220265 13967.28981715121699 
	5208.360865568350164 3595.413338366110565 13983.63940123734938 
	5208.360865568257395 3595.585442102456 13991.81902259436174 
	5208.360865568238296 3595.628469495982699 13995.90943663661528 
	5208.360865568230111 3595.639226491498448 13997.95471918150542 
	5208.360865568228292 3595.641915735415751 13998.97736988383076 
	5208.360865568230111 3595.642684099295366 13999.5617430668317 
	5208.360865568230111 3595.642812151053022 13999.85392988125568 
	5208.360865568230111 3595.642812150730151 14000.00002328831397 
	5325.027532248891475 3595.642812150729696 14000.00002328831397 
	5325.027532248894204 3595.642812148146277 14001.16877054478209 
	5325.027532248906937 3595.634616789185657 14003.50626503826606 
	5325.027532248927855 3595.585440772103084 14008.18102380796518 
	5325.027532248999705 3595.413346274798641 14016.36064622869708 
	5325.027532249283468 3594.72499148848101 14032.71022500635809 
	5325.027532250174772 3591.973741263096599 14065.33222306882453 
	5325.027532253050595 3584.130716651423427 14111.49414898967007 
	5325.027532255349797 3568.575720246768924 14165.48636881400671 
	5325.027532257886378 3547.073435621458884 14217.39746986431783 
	5325.027532259799045 3519.894160569377163 14266.57473663418386 
	5325.02753226185996 3492.798620682367073 14304.76204747844531 
	5325.027532262353816 3468.65934256947321 14333.34785607742924 
	5325.027532263057765 3442.956070097049633 14360.53605145218171 
	5325.02753226340792 3409.594182670824011 14390.34993179282719 
	5325.027532265004083 3367.365961974804122 14420.70968898576393 
	5325.027532265140508 3324.126535823726044 14445.67388233276142 
	5325.027532265453374 3282.408862715102714 14464.49776414903681 
	5325.027532265698028 3243.157741170314239 14478.23156223531259 
	5325.02753226599998 3194.956949073136911 14491.14851732586067 
	5325.027532266369235 3133.147680912649321 14500.46601333993931 
	5325.027532266986782 3058.137920345644943 14500.46559936215272 
	5325.027532267467905 2996.328568097340394 14491.14872136599843 
	5325.027532267564311 2948.127688360024422 14478.23198505609071 
	5325.027532267798051 2918.689392566115657 14467.93156377255036 
	5325.02753226785444 2895.650074867764488 14458.38811835394881 
	5325.027532267919014 2872.983597167065 14447.99022289228924 
	5325.027532268098184 2845.409432151445344 14433.41682928358387 
	5325.027532268293726 2813.719848569777241 14413.50493129746974 
	5325.027532268352843 2783.606878602035067 14391.28058474232421 
	5325.027532268443792 2759.966980490562491 14370.9367322762173 
	5325.027532268461982 2744.251838496926212 14355.79851026909091 
	5325.027532268474715 2735.519012234105048 14346.90084560102514 
	5325.02753226848472 2726.954089465308698 14337.84144101242782 
	5325.027532268525647 2716.568405585783694 14326.21982661281982 
	5325.02753226853747 2700.658140440469197 14307.01698228751775 
	5325.027532268611139 2682.137742052109388 14281.92290770296677 
	5325.027532268654795 2662.225967122705242 14250.23327077303657 
	5325.027532268710274 2642.79463225931022 14213.4678159046307 
	5325.027532268829418 2625.016576367840571 14171.29387595350272 
	5325.027532268922187 2610.300128319685427 14123.58333132632106 
	5325.027532269123185 2602.880151849532922 14086.87936419930156 
	5325.027532269148651 2599.755614459859316 14064.23663801172188 
	5325.027532269155017 2598.773569569847496 14055.98360758911076 
	5325.027532269157746 2598.114273950426195 14049.78513063575883 
	5325.027532269160474 2597.532292992100338 14043.57891778223711 
	5325.027532269164112 2597.027731631584174 14037.36593152915339 
	5325.027532269165022 2596.671834742979627 14032.18360358304744 
	5325.027532269165022 2596.456645773211676 14028.5538565899169 
	5325.027532269165931 2596.357530404721274 14026.73850632590438 
	5325.027532269166841 2596.303328169016822 14025.70103510854824 
	5325.027532269138646 2595.014335587965434 14000.28092707493488 
	5325.027532269050425 2595.853170589981801 13966.69364043158021 
	5325.027532269022231 2601.53972074917192 13921.32329511028729 
	5325.027532268955838 2607.724135018410379 13888.63562586146145 
	5325.027532268901268 2617.41077974743439 13852.48474733757757 
	5325.027532268833056 2629.772007924894297 13817.15900318279273 
	5325.027532268760297 2649.726307525680568 13771.42079935726542 
	5325.027532268506548 2680.978887958333871 13717.28659558464642 
	5325.027532268270988 2722.55125283789539 13665.15895809962785 
	5325.027532268090908 2764.250972665642166 13624.48693274320249 
	5325.027532268019058 2803.286840947060682 13593.35737668186084 
	5325.027532267881725 2852.217811628232084 13561.75280793256752 
	5325.027532267615243 2901.026344786886511 13538.24831799206368 
	5325.027532267495189 2948.128140806123611 13521.76839653321076 
	5325.027532267340575 2990.303799585298748 13510.46651748537988 
	5325.027532267033166 3039.543199367876241 13502.10042384603912 
	5325.027532266681192 3095.643081425814216 13498.94961432149103 
	5325.027532266291018 3151.742704121385032 13502.10066044588348 
	5325.027532265778973 3213.292480736692596 13512.55667008346791 
	5325.027532265195077 3267.049650655362257 13529.13948840729063 
	5325.027532265035916 3312.787027990292245 13549.09584770408765 
	5325.027532264723959 3345.876181012625693 13566.58335409028405 
	5325.027532264354704 3377.565603660582838 13586.49550930225269 
	5325.027532263989087 3412.697609260398622 13612.42356635977922 
	5325.027532262949535 3449.938957962367112 13645.70406340028239 
	5325.027532262253771 3487.379662364287469 13687.60047987392136 
	5325.027532259742657 3519.894147811165112 13733.42537386488766 
	5325.027532257322491 3547.073420085818725 13782.60257834538606 
	5325.027532254906873 3568.575841503462925 13834.51368090037795 
	5325.027532252009223 3581.537995335856522 13879.5072155345606 
	5325.027532251074263 3588.836875178043556 13916.20300872191729 
	5325.027532250234799 3592.759654007238169 13943.98841406081556 
	5325.027532249306205 3594.72503515021981 13967.28981715121699 
	5325.027532249011529 3595.413338366110111 13983.63940123734938 
	5325.02753224891876 3595.585442102455545 13991.81902259436174 
	5325.027532248899661 3595.628469495982245 13995.90943663661528 
	5325.027532248891475 3595.639226491497993 13997.95471918150542 
	5325.027532248889656 3595.641915735415296 13998.97736988383076 
	5325.027532248891475 3595.642684099294911 13999.5617430668317 
	5325.027532248891475 3595.642812151052567 13999.85392988125568 
	5325.027532248891475 3595.642812150729696 14000.00002328831397 
	5441.69419892820224 3595.642812150729242 14000.00002328831397 
	5441.694198928205878 3595.642812148146277 14001.16877054478209 
	5441.69419892822043 3595.634616789185202 14003.50626503826606 
	5441.694198928243168 3595.585440772102629 14008.18102380796518 
	5441.694198928321384 3595.413346274797732 14016.36064622869708 
	5441.694198928622427 3594.72499148848101 14032.71022500635809 
	5441.694198929574668 3591.97374126309569 14065.33222306882453 
	5441.694198932643303 3584.130716651422972 14111.4941489896737 
	5441.69419893509712 3568.575720246768469 14165.48636881400853 
	5441.694198937802867 3547.073435621458884 14217.39746986432328 
	5441.694198939844682 3519.894160569376254 14266.57473663418932 
	5441.694198942042931 3492.798620682367073 14304.76204747844895 
	5441.694198942570438 3468.659342569472301 14333.34785607743288 
	5441.69419894332259 3442.956070097049633 14360.53605145218535 
	5441.694198943696392 3409.594182670823102 14390.34993179282719 
	5441.694198945398966 3367.365961974803213 14420.70968898576757 
	5441.694198945543576 3324.126535823725135 14445.67388233276142 
	5441.694198945877361 3282.40886271510135 14464.49776414904045 
	5441.694198946140204 3243.157741170312875 14478.23156223531441 
	5441.694198946462166 3194.956949073135092 14491.14851732586249 
	5441.694198946855977 3133.147680912648411 14500.46601333994113 
	5441.694198947514451 3058.137920345643124 14500.46559936215272 
	5441.694198948028315 2996.32856809733903 14491.14872136599843 
	5441.694198948131088 2948.127688360023058 14478.23198505609071 
	5441.69419894837938 2918.689392566113838 14467.93156377255036 
	5441.694198948439407 2895.650074867763124 14458.38811835394881 
	5441.69419894850671 2872.983597167063635 14447.99022289229106 
	5441.694198948699523 2845.409432151443525 14433.41682928358932 
	5441.694198948906887 2813.719848569774967 14413.50493129746974 
	5441.694198948970552 2783.606878602033703 14391.28058474232603 
	5441.694198949066958 2759.966980490560218 14370.9367322762173 
	5441.694198949087877 2744.251838496924847 14355.79851026909091 
	5441.69419894910061 2735.519012234102775 14346.90084560102514 
	5441.694198949111524 2726.954089465306879 14337.84144101242782 
	5441.694198949155179 2716.56840558578233 14326.21982661281982 
	5441.694198949168822 2700.658140440467378 14307.01698228751775 
	5441.694198949246129 2682.137742052107569 14281.92290770296677 
	5441.694198949292513 2662.225967122704333 14250.23327077303657 
	5441.69419894935254 2642.794632259308855 14213.46781590463252 
	5441.694198949477141 2625.016576367839207 14171.29387595350272 
	5441.694198949577185 2610.300128319684518 14123.5833313263247 
	5441.694198949790007 2602.880151849531558 14086.87936419930156 
	5441.694198949819111 2599.755614459858407 14064.23663801172188 
	5441.694198949823658 2598.773569569846586 14055.98360758911076 
	5441.694198949826387 2598.114273950424831 14049.78513063575883 
	5441.694198949829115 2597.532292992099428 14043.57891778223711 
	5441.694198949833662 2597.027731631583265 14037.36593152915339 
	5441.694198949834572 2596.671834742978717 14032.18360358304744 
	5441.694198949835481 2596.456645773210766 14028.5538565899169 
	5441.694198949836391 2596.357530404720364 14026.73850632590438 
	5441.694198949835481 2596.303328169015458 14025.70103510854824 
	5441.694198949806378 2595.014335587964069 14000.28092707493488 
	5441.6941989497127 2595.853170589980436 13966.69364043158021 
	5441.694198949683596 2601.539720749170556 13921.32329511028729 
	5441.694198949610836 2607.72413501840947 13888.63562586146145 
	5441.694198949553538 2617.410779747433025 13852.48474733757757 
	5441.694198949480779 2629.772007924893387 13817.15900318279273 
	5441.694198949402562 2649.726307525679658 13771.42079935726542 
	5441.694198949132442 2680.978887958332507 13717.28659558464642 
	5441.694198948879603 2722.551252837894026 13665.15895809962785 
	5441.694198948688609 2764.250972665640347 13624.48693274320249 
	5441.694198948612211 2803.286840947059318 13593.35737668186084 
	5441.694198948466692 2852.21781162823072 13561.75280793256752 
	5441.694198948181111 2901.026344786885147 13538.24831799206368 
	5441.694198948052872 2948.128140806121792 13521.76839653321076 
	5441.694198947888253 2990.303799585297384 13510.46651748537988 
	5441.694198947559926 3039.543199367874422 13502.10042384603912 
	5441.694198947186123 3095.643081425812397 13498.94961432149103 
	5441.694198946767756 3151.742704121383667 13502.10066044588348 
	5441.694198946224788 3213.292480736690777 13512.55667008346791 
	5441.694198945599055 3267.049650655360892 13529.13948840729427 
	5441.694198945430799 3312.787027990290426 13549.09584770408946 
	5441.694198945095195 3345.876181012623874 13566.58335409028405 
	5441.694198944703203 3377.565603660581019 13586.4955093022545 
	5441.694198944311211 3412.697609260396803 13612.42356635978103 
	5441.694198943203446 3449.938957962365293 13645.70406340028421 
	5441.694198942459479 3487.37966236428565 13687.60047987392136 
	5441.694198939780108 3519.894147811163293 13733.42537386488948 
	5441.694198937197143 3547.073420085816906 13782.60257834538606 
	5441.694198934620545 3568.575841503461106 13834.51368090037977 
	5441.694198931527353 3581.537995335855157 13879.5072155345606 
	5441.694198930529637 3588.836875178041737 13916.20300872191729 
	5441.694198929634695 3592.759654007237259 13943.98841406081556 
	5441.694198928646074 3594.725035150218901 13967.28981715121699 
	5441.69419892832957 3595.413338366109656 13983.63940123734938 
	5441.694198928232254 3595.585442102454635 13991.81902259436174 
	5441.694198928210426 3595.628469495981335 13995.90943663661528 
	5441.69419892820315 3595.639226491497084 13997.95471918150542 
	5441.694198928200422 3595.641915735414386 13998.97736988383076 
	5441.694198928200422 3595.642684099294456 13999.5617430668317 
	5441.69419892820224 3595.642812151052112 13999.85392988125568 
	5441.69419892820224 3595.642812150729242 14000.00002328831397 
	5558.360865608863605 3595.642812150728787 14000.00002328831397 
	5558.360865608867243 3595.642812148145822 14001.16877054478209 
	5558.360865608881795 3595.634616789184747 14003.50626503826606 
	5558.360865608904533 3595.585440772102174 14008.18102380796518 
	5558.360865608982749 3595.413346274797277 14016.36064622869708 
	5558.360865609283792 3594.724991488480555 14032.71022500635809 
	5558.360865610236942 3591.973741263095235 14065.33222306882453 
	5558.360865613306487 3584.130716651422517 14111.4941489896737 
	5558.360865615760304 3568.575720246768014 14165.48636881400853 
	5558.36086561846696 3547.07343562145843 14217.39746986432328 
	5558.360865620509685 3519.894160569375799 14266.57473663418932 
	5558.360865622708843 3492.798620682366618 14304.76204747844895 
	5558.36086562323635 3468.659342569471846 14333.34785607743288 
	5558.360865623988502 3442.956070097049178 14360.53605145218535 
	5558.360865624363214 3409.594182670822647 14390.34993179282719 
	5558.360865626065788 3367.365961974802758 14420.70968898576757 
	5558.360865626211307 3324.12653582372468 14445.67388233276142 
	5558.360865626545092 3282.408862715100895 14464.49776414904045 
	5558.360865626807936 3243.15774117031242 14478.23156223531441 
	5558.360865627129897 3194.956949073134638 14491.14851732586249 
	5558.360865627524618 3133.147680912647957 14500.46601333994113 
	5558.360865628183092 3058.137920345642669 14500.46559936215272 
	5558.360865628696956 2996.328568097338575 14491.14872136599843 
	5558.36086562879882 2948.127688360022603 14478.23198505609071 
	5558.360865629047112 2918.689392566113384 14467.93156377255036 
	5558.360865629107138 2895.650074867762669 14458.38811835394881 
	5558.360865629174441 2872.983597167063181 14447.99022289229106 
	5558.360865629366344 2845.40943215144307 14433.41682928358932 
	5558.360865629574619 2813.719848569774513 14413.50493129746974 
	5558.360865629637374 2783.606878602033248 14391.28058474232603 
	5558.36086562973378 2759.966980490559763 14370.9367322762173 
	5558.360865629753789 2744.251838496924393 14355.79851026909091 
	5558.360865629766522 2735.51901223410232 14346.90084560102514 
	5558.360865629777436 2726.954089465306424 14337.84144101242782 
	5558.360865629821092 2716.568405585781875 14326.21982661281982 
	5558.360865629833825 2700.658140440466923 14307.01698228751775 
	5558.360865629912041 2682.137742052107114 14281.92290770296677 
	5558.360865629957516 2662.225967122703878 14250.23327077303657 
	5558.360865630016633 2642.794632259308401 14213.46781590463252 
	5558.360865630141234 2625.016576367838752 14171.29387595350272 
	5558.360865630240369 2610.300128319684063 14123.5833313263247 
	5558.360865630452281 2602.880151849531103 14086.87936419930156 
	5558.360865630481385 2599.755614459857952 14064.23663801172188 
	5558.360865630485932 2598.773569569846131 14055.98360758911076 
	5558.360865630488661 2598.114273950424376 14049.78513063575883 
	5558.360865630491389 2597.532292992098974 14043.57891778223711 
	5558.360865630495937 2597.02773163158281 14037.36593152915339 
	5558.360865630495937 2596.671834742978263 14032.18360358304744 
	5558.360865630496846 2596.456645773210312 14028.5538565899169 
	5558.360865630497756 2596.35753040471991 14026.73850632590438 
	5558.360865630497756 2596.303328169015003 14025.70103510854824 
	5558.360865630467742 2595.014335587963615 14000.28092707493488 
	5558.360865630373155 2595.853170589979982 13966.69364043158021 
	5558.360865630344051 2601.539720749170101 13921.32329511028729 
	5558.360865630270382 2607.724135018409015 13888.63562586146145 
	5558.360865630213084 2617.410779747432571 13852.48474733757757 
	5558.360865630139415 2629.772007924892932 13817.15900318279273 
	5558.360865630060289 2649.726307525679204 13771.42079935726542 
	5558.360865629790169 2680.978887958332052 13717.28659558464642 
	5558.36086562953642 2722.551252837893571 13665.15895809962785 
	5558.360865629344516 2764.250972665639893 13624.48693274320249 
	5558.360865629268119 2803.286840947058863 13593.35737668186084 
	5558.36086562912169 2852.217811628230265 13561.75280793256752 
	5558.360865628836109 2901.026344786884692 13538.24831799206368 
	5558.36086562870787 2948.128140806121337 13521.76839653321076 
	5558.360865628542342 2990.303799585296929 13510.46651748537988 
	5558.360865628214924 3039.543199367873967 13502.10042384603912 
	5558.360865627840212 3095.643081425811943 13498.94961432149103 
	5558.360865627422754 3151.742704121383213 13502.10066044588348 
	5558.360865626878876 3213.292480736690322 13512.55667008346791 
	5558.360865626254053 3267.049650655360438 13529.13948840729427 
	5558.360865626085797 3312.787027990289971 13549.09584770408946 
	5558.360865625750193 3345.87618101262342 13566.58335409028405 
	5558.360865625359111 3377.565603660580564 13586.4955093022545 
	5558.360865624967118 3412.697609260396348 13612.42356635978103 
	5558.360865623859354 3449.938957962364839 13645.70406340028421 
	5558.360865623116297 3487.379662364285196 13687.60047987392136 
	5558.360865620437835 3519.894147811162838 13733.42537386488948 
	5558.360865617855779 3547.073420085816451 13782.60257834538606 
	5558.360865615279181 3568.575841503460651 13834.51368090037977 
	5558.360865612186899 3581.537995335854703 13879.5072155345606 
	5558.360865611190093 3588.836875178041282 13916.20300872191729 
	5558.36086561029515 3592.759654007236804 13943.98841406081556 
	5558.360865609307439 3594.725035150218446 13967.28981715121699 
	5558.360865608990935 3595.413338366109201 13983.63940123734938 
	5558.360865608893619 3595.585442102454181 13991.81902259436174 
	5558.360865608871791 3595.62846949598088 13995.90943663661528 
	5558.360865608864515 3595.639226491496629 13997.95471918150542 
	5558.360865608861786 3595.641915735413932 13998.97736988383076 
	5558.360865608861786 3595.642684099294001 13999.5617430668317 
	5558.360865608863605 3595.642812151051658 13999.85392988125568 
	5558.360865608863605 3595.642812150728787 14000.00002328831397 
	0 
	
	0 
	0 
	88 0 0.001116071428571428509 0.002232142857142857019 0.004464285714285714038 0.008928571428571428076 0.01785714285714285615 0.0357142857142857123 0.05357142857142856845 0.07142857142857142461 0.08928571428571427382 0.1071428571428571369 0.1160714285714285754 0.125 0.1428571428571428492 0.1587301587301587213 0.1746031746031745935 0.1904761904761904656 0.2023809523809523836 0.2142857142857142738 0.238095238095238082 0.2619047619047618625 0.2857142857142856984 0.2976190476190476164 0.3095238095238095344 0.3154761904761904656 0.3214285714285713969 0.3333333333333333148 0.3452380952380952328 0.3571428571428570953 0.3690476190476190133 0.375 0.3779761904761904656 0.3809523809523809312 0.3869047619047618625 0.3928571428571428492 0.4047619047619047672 0.4166666666666666297 0.4285714285714285476 0.4444444444444444198 0.4603174603174602919 0.476190476190476164 0.4801587301587301182 0.4821428571428570953 0.4841269841269840724 0.4861111111111110494 0.4880952380952380265 0.4900793650793650036 0.4910714285714284921 0.4915674603174602364 0.491815476190476164 0.4920634920634920362 0.5158730158730158166 0.5238095238095237249 0.5357142857142855874 0.5476190476190475609 0.5595238095238095344 0.5714285714285713969 0.5952380952380951218 0.6190476190476189577 0.6349206349206348854 0.650793650793650702 0.6666666666666666297 0.6904761904761904656 0.7023809523809523281 0.7142857142857141906 0.7321428571428569843 0.749999999999999889 0.7678571428571427937 0.7857142857142855874 0.8095238095238094234 0.8214285714285713969 0.8333333333333332593 0.8452380952380951218 0.8571428571428570953 0.875 0.8928571428571427937 0.9107142857142856984 0.9285714285714286031 0.9464285714285713969 0.9642857142857143016 0.9732142857142858094 0.9821428571428572063 0.9910714285714286031 0.9955357142857143016 0.9977678571428572063 0.9994419642857143016 0.9997209821428572063 0.9998604910714286031 
	0 
	0 
	0 
	F 1 F 0 F 1 F 0 } I I I I #
tcoedge-coedge $-1 -1 $-1 $13 $13 $17 $18 reversed $8 $19 -6.283185307179586232 -1.350498956678269526e-30 #
tcoedge-coedge $-1 -1 $-1 $20 $21 $10 $15 reversed $11 $22 -6.283185307179586232 1.350498956678269526e-30 #
tedge-edge $-1 -1 $-1 $23 -1.350498956678269526e-30 $23 6.283185307179586232 $14 $24 forward @7 unknown 0.0007873319897485875048 #
pcurve $-1 -1 $-1 0 forward { exppc nurbs 2 periodic 5 
	-1.350498956678269526e-30 2 1.570796326794896558 2 3.141592653589793116 2 4.712388980384689674 2 6.283185307179586232 2 
	0 500 1 
	-500 500 0.7071067811865463515 
	-500 0 1 
	-500 -500 0.7071067811865463515 
	0 -500 1 
	500 -500 0.7071067811865463515 
	500 0 1 
	500 500 0.7071067811865463515 
	0 500 1 
	0 
	plane 5558.360865630322223 3095.642797989796691 14000.00000000000364 1 -3.897834435702129261e-15 -5.197112580936172875e-15 -5.197112580936172875e-15 0 -1 forward_v I I I I 
	} 0 0 #
tcoedge-coedge $-1 -1 $-1 $21 $20 $13 $18 forward $11 $25 1.350498956678269526e-30 6.283185307179586232 #
tedge-edge $-1 -1 $-1 $26 1.350498956678269526e-30 $26 6.283185307179586232 $17 $27 forward @7 unknown 0.0007873319894727802415 #
pcurve $-1 -1 $-1 0 forward { exppc nurbs 2 periodic 5 
	-6.283185307179586232 2 -4.712388980384689674 2 -3.141592653589793116 2 -1.570796326794896558 2 -1.350498956678269526e-30 2 
	0 500 1 
	500 500 0.707106781186543798 
	500 0 1 
	500 -500 0.7071067811865463515 
	0 -500 1 
	-500 -500 0.7071067811865463515 
	-500 0 1 
	-500 500 0.7071067811865463515 
	0 500 1 
	0 
	plane 5208.360865588338129 3095.642797989798055 14000.00000000000182 -1 3.897834435702129261e-15 -5.197112580936172875e-15 5.197112580936172875e-15 0 -1 reverse_v I I I I 
	} 0 0 #
coedge $-1 -1 $-1 $17 $14 $21 $28 reversed $11 $29 #
coedge $-1 -1 $-1 $14 $17 $20 $28 forward $11 $30 #
pcurve $-1 -1 $-1 0 forward { exppc nubs 1 periodic 2 
	-6.283185307179586232 1 1.350498956678269526e-30 1 
	1 1 
	0 1 
	4.41140239955100949e-13 
	spline forward { ref 0 } I I I I 
	} 0 0 #
tvertex-vertex $-1 -1 $-1 $15 $31 2.725579574267382997e-05 #
ellipse-curve $-1 -1 $-1 5558.360865630322223 3095.642797989796691 14000.00000000000364 1 -3.897834435702129261e-15 -5.197112580936172875e-15 1.94891721785106465e-12 500 0 1 I I #
pcurve $-1 -1 $-1 0 forward { exppc nubs 1 periodic 2 
	1.350498956678269526e-30 1 6.283185307179586232 1 
	0 0 
	1 0 
	4.4114023995510105e-13 
	spline forward { ref 0 } I I I I 
	} 0 0 #
tvertex-vertex $-1 -1 $-1 $18 $32 2.725579626692188419e-05 #
ellipse-curve $-1 -1 $-1 5208.360865588338129 3095.642797989798055 14000.00000000000182 1 -3.897834435702129261e-15 5.197112580936172875e-15 1.94891721785106465e-12 500 0 1 I I #
edge $-1 -1 $-1 $26 0 $23 1 $21 $33 forward @7 tangent #
pcurve $-1 -1 $-1 -1 $33 0 0 #
pcurve $-1 -1 $-1 1 $33 1 0 #
point $-1 -1 $-1 5558.360865630324042 3595.642797989796691 14000.00000000000364 #
point $-1 -1 $-1 5208.360865588339948 3595.642797989798055 14000.00000000000182 #
intcurve-curve $-1 -1 $-1 forward { parcur full nubs 3 open 2 
	0 3 1 3 
	5208.360865568230111 3595.642812150730151 14000.00002328831397 
	5325.027532248891475 3595.642812150729696 14000.00002328831397 
	5441.69419892820224 3595.642812150729242 14000.00002328831397 
	5558.360865608863605 3595.642812150728787 14000.00002328831397 
	0 
	
	spline forward { ref 0 } I I I I 
	null_surface 
	nubs 1 open 2 
	0 1 1 1 
	0 0 
	0 1 
	
	nullbs 
	I I 
	0 
	0 
	0 
	surf1 } I I #
End-of-ACIS-data 