700 0 1 0           
4 LibG 19 ASM 222.0.0.1700 NT 24 Wed Oct  5 17:29:55 2016 
1000 9.999999999999999547e-07 1.000000000000000036e-10 
body $-1 -1 $-1 $1 $-1 $-1 #
lump $-1 -1 $-1 $-1 $2 $0 #
shell $-1 -1 $-1 $-1 $-1 $3 $-1 $1 #
face $-1 -1 $-1 $4 $5 $2 $-1 $6 forward single #
face $-1 -1 $-1 $7 $8 $2 $-1 $9 reversed single #
loop $-1 -1 $-1 $-1 $10 $3 #
plane-surface $-1 -1 $-1 9815.301504634491721 127.0111148168753061 13999.99999999999636 0.5399512509335046007 -0.8416962911973318029 -1.559133774280851705e-14 -2.887545443380887787e-14 0 -1 forward_v I I I I #
face $-1 -1 $-1 $-1 $11 $2 $-1 $12 forward single #
loop $-1 -1 $-1 $-1 $13 $4 #
plane-surface $-1 -1 $-1 9626.318566785095754 421.6048167712801842 14000.00000000000182 0.5399512509335046007 -0.8416962911973318029 -1.559133774280851705e-14 -2.887545443380887787e-14 0 -1 forward_v I I I I #
tcoedge-coedge $-1 -1 $-1 $10 $10 $14 $15 forward $5 $16 -1.341214278744536045e-29 6.283185307179586232 #
loop $-1 -1 $-1 $-1 $17 $7 #
spline-surface $-1 -1 $-1 forward { exactsur full nubs 3 3 periodic open none none 85 2 
	0 3 0.002232142857142857019 1 0.004464285714285714038 1 0.008928571428571428076 1 0.01785714285714285615 1 
	0.0357142857142857123 1 0.05357142857142856845 1 0.0625 1 0.07142857142857142461 1 0.08928571428571427382 1 
	0.1071428571428571369 1 0.125 1 0.1428571428571428492 1 0.1587301587301587213 1 0.1746031746031745935 1 
	0.1904761904761904656 1 0.2023809523809523836 1 0.2142857142857142738 1 0.238095238095238082 1 0.2619047619047618625 1 
	0.2857142857142856984 1 0.3095238095238095344 1 0.3214285714285713969 1 0.3333333333333333148 1 0.3392857142857143016 1 
	0.3452380952380952328 1 0.3571428571428570953 1 0.3630952380952380265 1 0.3690476190476190133 1 0.375 1 
	0.3779761904761904656 1 0.3809523809523809312 1 0.4047619047619047672 1 0.4077380952380952328 1 0.4107142857142856984 1 
	0.4166666666666666297 1 0.4285714285714285476 1 0.4444444444444444198 1 0.4484126984126983739 1 0.4523809523809523281 1 
	0.4603174603174602919 1 0.4682539682539682557 1 0.476190476190476164 1 0.4920634920634920362 1 0.5079365079365079083 1 
	0.5238095238095237249 1 0.5476190476190475609 1 0.5595238095238095344 1 0.5714285714285713969 1 0.5833333333333332593 1 
	0.5952380952380951218 1 0.6071428571428569843 1 0.6190476190476189577 1 0.6349206349206348854 1 0.650793650793650702 1 
	0.6587301587301586103 1 0.6666666666666666297 1 0.6785714285714286031 1 0.6904761904761904656 1 0.7023809523809523281 1 
	0.7142857142857141906 1 0.7232142857142855874 1 0.7321428571428569843 1 0.7410714285714283811 1 0.749999999999999889 1 
	0.7678571428571427937 1 0.7857142857142855874 1 0.7976190476190474499 1 0.8095238095238094234 1 0.8333333333333332593 1 
	0.8571428571428570953 1 0.875 1 0.8928571428571427937 1 0.9107142857142856984 1 0.9285714285714286031 1 
	0.9464285714285713969 1 0.9642857142857143016 1 0.9821428571428572063 1 0.9910714285714286031 1 0.9955357142857143016 1 
	0.9977678571428572063 1 0.9988839285714286031 1 0.9994419642857143016 1 0.9997209821428572063 1 1 3 
	0 3 1 3 
	10047.16674901319493 691.5804657899723225 13999.99989845189521 
	10047.16674899194004 691.5804657763293335 14002.33739298442015 
	10047.13915275851286 691.5627626914366601 14007.01238168218151 
	10046.97360660018057 691.4565642249066286 14016.36052164141074 
	10046.394225844635 691.0848893492911884 14032.71010462258528 
	10044.07848198601823 689.5993311872706499 14065.33209722349238 
	10037.47713488796762 685.3645428597814089 14111.49409104848382 
	10026.56645343072705 678.3653007718340859 14156.48753199605198 
	10015.33548066204094 671.1605906397296621 14191.44195151668828 
	10002.47318754499247 662.909382534811698 14225.59357235872267 
	9983.409439069406289 650.6799181196882955 14266.57473003334781 
	9956.041934386479625 633.1235637121013724 14312.39947800668051 
	9924.528303452940236 612.9074541405764194 14354.29602129310842 
	9890.570300678704371 591.1232710933225007 14390.34994535585429 
	9855.027012959615604 568.3221219490648082 14420.70976496868388 
	9818.632530504382885 544.9749282704992766 14445.67394105608219 
	9783.51891365908341 522.4494145676098924 14464.49779692396078 
	9750.481345016560226 501.2556933833164976 14478.23143748294569 
	9709.91100439415095 475.2296714084966425 14491.14870660818087 
	9657.886278668487648 441.8556194737989244 14500.46617489709024 
	9594.75104861437103 401.3541383531669453 14500.46540919004474 
	9532.320997480062942 361.305032090860152 14489.28636996112982 
	9482.046053062878855 329.0534712684727765 14470.86112104181484 
	9443.549203058089915 304.3576011131754626 14450.90446199265898 
	9420.340003738894666 289.4688148169479973 14436.33154775972434 
	9402.361707777685297 277.9356721673389075 14423.46087151049687 
	9384.800897804012493 266.6703483065269324 14409.80086387392475 
	9367.903587334662006 255.8306618056656987 14394.98463400266701 
	9351.740632836666919 245.4620673478351591 14379.07435080012874 
	9340.002409282264125 237.9319539823833622 14366.61152655270962 
	9330.554229038843914 231.8709117811727083 14355.79857045105746 
	9323.203901686816607 227.1556498868071969 14346.90084940618544 
	9305.180897437119711 215.5938267065974685 14324.25267743152654 
	9288.7792879675726 205.0721342109395948 14299.81751718196938 
	9274.204850353571601 195.722579147343879 14273.90196949496749 
	9268.539042935508405 192.0879429550068664 14263.40823072770945 
	9259.060181783872395 186.0072188389500241 14244.71846899022785 
	9245.158021861456291 177.0889323745227841 14213.46793762634115 
	9234.275608851565266 170.1078246050866483 14182.79587203913979 
	9227.343877039007566 165.6610932811118175 14159.25988405007956 
	9223.05329419971531 162.9086686885963786 14143.43727567787209 
	9218.315208647254622 159.8691694679780255 14123.42991451047601 
	9213.643918075280453 156.8725194717667932 14099.11419515908347 
	9208.783333048157147 153.7544363898794586 14066.36475520513341 
	9205.296023641243664 151.5173146437711296 14024.96430048118782 
	9205.296415419923505 151.5175659712584775 13975.03583118523784 
	9210.176855988964235 154.6483864560151744 13917.0749216434906 
	9220.323084060228211 161.1572288933040795 13864.2599275931716 
	9234.196755657045287 170.0572399925091815 13817.15916028005449 
	9246.793456205334223 178.1380694911671867 13782.85569866657897 
	9261.513286378049088 187.5808944133324303 13749.76678895551959 
	9278.272936976223718 198.3322716030397714 13718.07718362208652 
	9296.979176427126731 210.332392665219345 13687.9642845139897 
	9319.810149041692057 224.9785451460694219 13656.44430423359699 
	9347.387053545244271 242.6692303013906837 13624.48722001705391 
	9374.767479915486547 260.233874015036406 13598.54593150482287 
	9397.894296063688671 275.0698112052174906 13579.81305541294023 
	9418.792663499947594 288.4761903919136898 13564.64029114146797 
	9443.548984788094458 304.3574610927462345 13549.09536030536037 
	9472.421953783452409 322.879576362149578 13534.12892761325202 
	9502.155597992146795 341.9538179308626695 13521.76788692639275 
	9530.0479437526119 359.846859806832299 13512.88855385037823 
	9555.786830411781921 376.3584497887475777 13506.80594923376884 
	9579.173731572327597 391.3612324663611162 13502.88322309176692 
	9602.70896960265236 406.4591737888092666 13500.5248165049743 
	9634.18834471901755 426.6533081230701328 13499.47511769641642 
	9673.537487211631742 451.8959270292570523 13502.10030130003906 
	9714.982167901856883 478.4828413577574224 13510.46652323153648 
	9750.481262416076788 501.2556403962067861 13521.76839733296583 
	9790.126553430331114 526.6882396617703535 13538.248407802359 
	9837.52944181546809 557.0973660299376888 13565.36800070350182 
	9885.346381251820276 587.7721076640788169 13604.10246190425823 
	9924.528169220555355 612.907368031459896 13645.703911021983 
	9956.042134715380598 633.1236922243660956 13687.6000319182258 
	9983.409388803127513 650.6798858743781011 13733.42506232655251 
	10006.28615122269184 665.355412687341186 13782.60228672117591 
	10024.38449421879159 676.9655659544730497 13834.5134731204671 
	10037.4770825966043 685.3645093156360417 13888.50571255195791 
	10044.07850816866812 689.5993479840807368 13934.66768590110769 
	10046.39422405735058 691.0848882029278002 13967.28969249558577 
	10046.97360855119405 691.4565654765867748 13983.63927462114043 
	10047.11845963452834 691.549487976782757 13991.81889766696258 
	10047.15467705434821 691.5727215841801581 13995.90931171260308 
	10047.16373092480717 691.5785296752243312 13997.95459433259384 
	10047.1663178306826 691.5801891848134346 13999.12333799645967 
	10047.16674901585247 691.5804657916777387 13999.70771163533027 
	10047.16674901319493 691.5804657899723225 13999.99989845189521 
	10110.16106162966025 593.3825651385043329 13999.99989845189339 
	10110.16106160840536 593.382565124861344 14002.33739298441833 
	10110.13346537497819 593.3648620399686706 14007.01238168217969 
	10109.9679192166459 593.2586635734385254 14016.36052164140892 
	10109.38853846110032 592.8869886978231989 14032.71010462258346 
	10107.07279460248355 591.4014305358025467 14065.33209722349056 
	10100.47144750443294 587.166642208313533 14111.49409104848201 
	10089.56076604719237 580.1674001203659827 14156.48753199605017 
	10078.32979327850626 572.9626899882616726 14191.44195151668646 
	10065.46750016145779 564.7114818833437084 14225.59357235872085 
	10046.40375168587161 552.482017468220306 14266.57473003334599 
	10019.03624700294495 534.9256630606332692 14312.39947800667869 
	9987.522616069405558 514.7095534891086572 14354.29602129310661 
	9953.564613295169693 492.9253704418543407 14390.34994535585247 
	9918.021325576080926 470.124221297597046 14420.70976496868207 
	9881.626843120848207 446.7770276190311165 14445.67394105608037 
	9846.513226275548732 424.2515139161420734 14464.49779692395896 
	9813.475657633025548 403.0577927318483944 14478.23143748294387 
	9772.905317010616272 377.0317707570288235 14491.14870660817905 
	9720.88059128495297 343.6577188223305939 14500.46617489708842 
	9657.745361230836352 303.1562377016994105 14500.46540919004292 
	9595.315310096528265 263.1071314393917646 14489.286369961128 
	9545.040365679344177 230.8555706170050712 14470.86112104181302 
	9506.543515674555238 206.1597004617072741 14450.90446199265716 
	9483.334316355359988 191.2709141654801499 14436.33154775972253 
	9465.356020394150619 179.7377715158708327 14423.46087151049505 
	9447.795210420477815 168.4724476550590566 14409.80086387392294 
	9430.897899951127329 157.6327611541976239 14394.98463400266519 
	9414.734945453132241 147.2641666963672265 14379.07435080012692 
	9402.996721898729447 139.7340533309153443 14366.6115265527078 
	9393.548541655309236 133.673011129704804 14355.79857045105564 
	9386.198214303281929 128.9577492353392358 14346.90084940618362 
	9368.175210053585033 117.3959260551292942 14324.25267743152472 
	9351.773600584037922 106.8742335594718327 14299.81751718196756 
	9337.199162970036923 97.52467849587577575 14273.90196949496567 
	9331.533355551973727 93.89004230353891955 14263.40823072770763 
	9322.054494400337717 87.8093181874819777 14244.71846899022603 
	9308.152334477921613 78.89103172305495093 14213.46793762633934 
	9297.269921468030589 71.90992395361841716 14182.79587203913798 
	9290.338189655472888 67.46319262964405539 14159.25988405007774 
	9286.047606816180632 64.71076803712807646 14143.43727567787028 
	9281.309521263719944 61.6712688165104197 14123.42991451047419 
	9276.638230691745775 58.67461882029854792 14099.11419515908165 
	9271.777645664622469 55.55653573841173909 14066.36475520513159 
	9268.290336257708987 53.31941399230305478 14024.964300481186 
	9268.290728036388828 53.31966531979048796 13975.03583118523602 
	9273.171168605429557 56.45048580454712805 13917.07492164348878 
	9283.317396676693534 62.95932824183618948 13864.25992759316978 
	9297.191068273510609 71.85933934104104992 13817.15916028005267 
	9309.787768821799546 79.9401688396993535 13782.85569866657715 
	9324.50759899451441 89.38299376186436973 13749.76678895551777 
	9341.267249592689041 100.1343709515718956 13718.0771836220847 
	9359.973489043592053 112.1344920137511707 13687.96428451398788 
	9382.804461658157379 126.7806444946016455 13656.44430423359518 
	9410.381366161709593 144.4713296499225237 13624.4872200170521 
	9437.761792531951869 162.0359733635685586 13598.54593150482106 
	9460.888608680153993 176.8719105537494158 13579.81305541293841 
	9481.786976116412916 190.2782897404457856 13564.64029114146615 
	9506.54329740455978 206.1595604412782166 13549.09536030535855 
	9535.416266399917731 224.6816757106815317 13534.1289276132502 
	9565.149910608612117 243.7559172793946516 13521.76788692639093 
	9593.042256369077222 261.6489591553643095 13512.88855385037641 
	9618.781143028247243 278.1605491372795882 13506.80594923376702 
	9642.168044188792919 293.1633318148932403 13502.8832230917651 
	9665.703282219117682 308.2612731373412203 13500.52481650497248 
	9697.182657335482872 328.4554074716021432 13499.4751176964146 
	9736.531799828097064 353.6980263777890059 13502.10030130003724 
	9777.976480518322205 380.2849407062893761 13510.46652323153467 
	9813.47557503254211 403.0577397447389103 13521.76839733296401 
	9853.120866046796436 428.4903390103023071 13538.24840780235718 
	9900.523754431933412 458.899465378469813 13565.3680007035 
	9948.340693868285598 489.5742070126107706 13604.10246190425642 
	9987.522481837020678 514.7094673799919065 13645.70391102198118 
	10019.03644733184592 534.9257915728981061 13687.60003191822398 
	10046.40370141959284 552.4819852229101116 13733.42506232655069 
	10069.28046383915716 567.1575120358731965 13782.6022867211741 
	10087.37880683525691 578.7676653030050602 13834.51347312046528 
	10100.47139521306963 587.1666086641680522 13888.50571255195609 
	10107.07282078513344 591.4014473326128609 13934.66768590110587 
	10109.38853667381591 592.886987551459697 13967.28969249558395 
	10109.96792116765937 593.258664825118899 13983.63927462113861 
	10110.11277225099366 593.3515873253146538 13991.81889766696077 
	10110.14898967081353 593.3748209327122822 13995.90931171260127 
	10110.15804354127249 593.3806290237563417 13997.95459433259202 
	10110.16063044714792 593.3822885333454451 13999.12333799645785 
	10110.1610616323178 593.3825651402097492 13999.70771163532845 
	10110.16106162966025 593.3825651385043329 13999.99989845189339 
	10173.15537424435206 495.1846644898025147 13999.99989845189702 
	10173.15537422309535 495.1846644761589005 14002.33739298442197 
	10173.12777798967727 495.1669613912580985 14007.01238168218333 
	10172.96223183134862 495.0607629247202794 14016.36052164141256 
	10172.38285107582669 494.6890880490674931 14032.7101046225871 
	10170.06710721729178 493.2035298869237181 14065.3320972234942 
	10163.4657601194649 488.9687415590802857 14111.49409104848201 
	10152.5550786624317 481.9694994708142985 14156.48753199605198 
	10141.32410589381107 474.7647893386069313 14191.44195151668646 
	10128.46181277681717 466.513581233604782 14225.59357235872085 
	10109.39806430141107 454.2841168181976172 14266.57473003334599 
	10082.03055961861355 436.7277624104079905 14312.39947800667869 
	10050.5169286852597 416.5116528385926813 14354.29602129310842 
	10016.55892591104202 394.7274697913096588 14390.34994535585429 
	9981.015638192091501 371.9263206468357339 14420.70976496868388 
	9944.621155736871515 348.5791269682505344 14445.67394105608219 
	9909.507538891593867 326.0536132653231789 14464.49779692396078 
	9876.469970249116159 304.8598920809596393 14478.23143748294751 
	9835.899629626745082 278.8338701060812355 14491.14870660818269 
	9783.874903901107245 245.4598181713464555 14500.46617489709206 
	9720.739673847050653 204.9583370506199458 14500.46540919004656 
	9658.309622712778946 164.9092307882568207 14489.28636996113164 
	9608.0346782956276 132.6576699658166092 14470.86112104181666 
	9569.537828290860489 107.9617998104882162 14450.9044619926608 
	9546.328628971679791 93.0730135142360524 14436.33154775972616 
	9528.350333010475879 81.53987086462004186 14423.46087151049869 
	9510.789523036806713 70.27454700380226882 14409.80086387392657 
	9493.892212567463503 59.43486050293029166 14394.98463400266701 
	9477.729258069472053 49.06626604509288114 14379.07435080012874 
	9465.991034515072897 41.53615267963747471 14366.61152655270962 
	9456.542854271652686 35.47511047842255039 14355.79857045105928 
	9449.192526919627198 30.75984858405620059 14346.90084940618544 
	9431.169522669930302 19.19802540384318945 14324.25267743152654 
	9414.767913200397743 8.676332908165917956 14299.81751718196756 
	9400.193475586396744 -0.6732221554319295365 14273.90196949496567 
	9394.527668168335367 -4.307858347769737861 14263.40823072770945 
	9385.048807016701176 -10.38858246382821449 14244.71846899022421 
	9371.146647094292348 -19.30686892826530254 14213.46793762634115 
	9360.26423408440678 -26.2879766977082312 14182.79587203913979 
	9353.33250227184908 -30.73470802168441196 14159.25988405007956 
	9349.041919432558643 -33.48713261419999299 14143.43727567786846 
	9344.303833880097955 -36.52663183481972453 14123.42991451047419 
	9339.632543308123786 -39.52328183103131209 14099.11419515908347 
	9334.771958281000479 -42.64136491291957043 14066.36475520513341 
	9331.284648874086997 -44.87848665902765788 14024.96430048118418 
	9331.285040652765019 -44.87823533153883204 13975.0358311852342 
	9336.16548122180393 -41.74741484677826975 13917.07492164348514 
	9346.311709293062449 -35.23857240948233027 13864.2599275931716 
	9360.185380889877706 -26.3385613102725813 13817.15916028005267 
	9372.782081438159366 -18.25773181160667491 13782.85569866658079 
	9387.501911610868774 -8.814906889433530068 13749.76678895552141 
	9404.261562209037947 1.936470300282550738 13718.0771836220847 
	9422.967801659935503 13.93659136247326558 13687.96428451399152 
	9445.798774274493553 28.58274384333375906 13656.44430423359699 
	9473.375678778029396 46.27342899868011727 13624.48722001705391 
	9500.756105148260758 63.83807271234213232 13598.54593150482106 
	9523.882921296459244 78.67400990252835413 13579.81305541294023 
	9544.78128873271271 92.08038908923353461 13564.64029114146433 
	9569.537610020846842 107.9616597900871113 13549.09536030535855 
	9598.410579016197516 126.4837750595013688 13534.1289276132502 
	9628.144223224873713 145.5580166282443031 13521.76788692639457 
	9656.036568985322447 163.4510585042387447 13512.88855385037823 
	9681.775455644481553 179.9626484861720144 13506.80594923376884 
	9705.162356805014497 194.965431163803288 13502.88322309176692 
	9728.697594835326527 210.0633724862715042 13500.52481650497248 
	9760.176969951677165 230.2575068205566993 13499.4751176964146 
	9799.526112444236787 255.5001257268287986 13502.10030130004088 
	9840.97079313440554 282.0870400554174466 13510.4665232315383 
	9876.469887648590884 304.8598390939206411 13521.76839733296765 
	9916.115178662823382 330.2924383595186555 13538.24840780236082 
	9963.518067047913064 360.7015647277601147 13565.36800070350182 
	10011.33500648417066 391.376306362048922 13604.10246190425823 
	10050.51679445282934 416.5115667295500543 13645.70391102198482 
	10082.03075994749815 436.7278909226999417 13687.60003191822398 
	10109.39801403511046 454.2840845729225521 13733.42506232655251 
	10132.27477645451472 468.9596113861341564 13782.60228672117591 
	10150.37311945043439 480.5697646535464855 13834.51347312046892 
	10163.46570782807066 488.9687080149838039 13888.50571255195609 
	10170.06713339991984 493.2035466837612603 13934.66768590110951 
	10172.382849288535 494.6890869027134841 13967.28969249558759 
	10172.96223378235845 495.0607641764051436 13983.63927462114225 
	10173.10708486568728 495.1536866766096523 13991.8188976669644 
	10173.14330228550716 495.1769202840093271 13995.9093117126049 
	10173.15235615596612 495.1827283750542392 13997.95459433259566 
	10173.15494306184155 495.1843878846436269 13999.12333799646149 
	10173.1553742470096 495.1846644915079878 13999.70771163533209 
	10173.15537424435206 495.1846644898025147 13999.99989845189702 
	10236.14968686081738 396.9867638383345252 13999.99989845189521 
	10236.14968683956067 396.986763824690911 14002.33739298442015 
	10236.12209060614259 396.969060739790109 14007.01238168218151 
	10235.95654444781394 396.8628622732522331 14016.36052164141074 
	10235.37716369229202 396.4911873975995604 14032.71010462258528 
	10233.0614198337571 395.0056292354556717 14065.33209722349238 
	10226.46007273593023 390.7708409076124099 14111.49409104848019 
	10215.54939127889702 383.7715988193462522 14156.48753199605017 
	10204.31841851027639 376.5668886871389418 14191.44195151668464 
	10191.45612539328249 368.3156805821368494 14225.59357235871903 
	10172.39237691787639 356.0862161667296846 14266.57473003334417 
	10145.02487223507887 338.5298617589399441 14312.39947800667687 
	10113.51124130172502 318.3137521871248623 14354.29602129310661 
	10079.55323852750735 296.5295691398414988 14390.34994535585247 
	10044.00995080855682 273.7284199953680286 14420.70976496868207 
	10007.61546835333684 250.381226316782346 14445.67394105608037 
	9972.50185150805919 227.8557126138553883 14464.49779692395896 
	9939.464282865581481 206.661991429491593 14478.23143748294569 
	9898.893942243210404 180.6359694546133881 14491.14870660818087 
	9846.869216517572568 147.2619175198781249 14500.46617489709024 
	9783.733986463515976 106.7604363991523826 14500.46540919004474 
	9721.303935329244268 66.71133013678844748 14489.28636996112982 
	9671.028990912092922 34.45976931434889678 14470.86112104181484 
	9632.532140907325811 9.763899159020029472 14450.90446199265898 
	9609.322941588145113 -5.124887137231788792 14436.33154775972434 
	9591.344645626941201 -16.65802978684803648 14423.46087151049687 
	9573.783835653272035 -27.92335364766559991 14409.80086387392475 
	9556.886525183928825 -38.76304014853776891 14394.98463400266519 
	9540.723570685937375 -49.13163460637506574 14379.07435080012692 
	9528.985347131538219 -56.66174797183054324 14366.6115265527078 
	9519.537166888118009 -62.72279017304535387 14355.79857045105746 
	9512.186839536092521 -67.4380520674117605 14346.90084940618362 
	9494.163835286395624 -78.99987524762498481 14324.25267743152472 
	9477.762225816863065 -89.52156774330184419 14299.81751718196574 
	9463.187788202862066 -98.87112280690003274 14273.90196949496385 
	9457.521980784800689 -102.5057589992376847 14263.40823072770763 
	9448.043119633166498 -108.5864831152962608 14244.71846899022239 
	9434.14095971075767 -117.5047695797331357 14213.46793762633934 
	9423.258546700872103 -124.4858773491764623 14182.79587203913798 
	9416.326814888314402 -128.9326086731521741 14159.25988405007774 
	9412.036232049023965 -131.6850332656682951 14143.43727567786664 
	9407.298146496563277 -134.7245324862873304 14123.42991451047237 
	9402.626855924589108 -137.7211824824995574 14099.11419515908165 
	9397.766270897465802 -140.8392655643872899 14066.36475520513159 
	9394.278961490552319 -143.0763873104957327 14024.96430048118236 
	9394.279353269230342 -143.0761359830068216 13975.03583118523238 
	9399.159793838269252 -139.9453154982463161 13917.07492164348332 
	9409.306021909527772 -133.4364730609502203 13864.25992759316978 
	9423.179693506343028 -124.5364619617407129 13817.15916028005086 
	9435.776394054624689 -116.4556324630745081 13782.85569866657897 
	9450.496224227334096 -107.0128075409015906 13749.76678895551959 
	9467.25587482550327 -96.26143035118532509 13718.07718362208288 
	9485.962114276400825 -84.26130928899490868 13687.9642845139897 
	9508.793086890958875 -69.6151568081340173 13656.44430423359518 
	9536.369991394494718 -51.92447165278804277 13624.4872200170521 
	9563.75041776472608 -34.35982793912571509 13598.54593150481924 
	9586.877233912924567 -19.52389074893972776 13579.81305541293841 
	9607.775601349178032 -6.117511562234372313 13564.64029114146251 
	9632.531922637312164 9.763759138619091615 13549.09536030535673 
	9661.404891632662839 28.28587440803332242 13534.12892761324838 
	9691.138535841339035 47.36011597677629226 13521.76788692639275 
	9719.030881601787769 65.25315785277079783 13512.88855385037641 
	9744.769768260946876 81.76474783470401064 13506.80594923376702 
	9768.156669421479819 96.76753051233538372 13502.8832230917651 
	9791.691907451791849 111.8654718348034578 13500.52481650497066 
	9823.171282568142487 132.0596061690887382 13499.47511769641278 
	9862.520425060702109 157.3022250753607807 13502.10030130003906 
	9903.965105750870862 183.8891394039494571 13510.46652323153648 
	9939.464200265056206 206.6619384424527652 13521.76839733296583 
	9979.109491279288704 232.0945377080505807 13538.248407802359 
	10026.51237966437839 262.5036640762922389 13565.3680007035 
	10074.32931910063598 293.1784057105808756 13604.10246190425642 
	10113.51110706929467 318.3136660780820648 13645.703911021983 
	10145.02507256396348 338.5299902712319522 13687.60003191822216 
	10172.39232665157579 356.0861839214545626 13733.42506232655069 
	10195.26908907098004 370.7617107346662237 13782.6022867211741 
	10213.36743206689971 382.371864002078496 13834.5134731204671 
	10226.46002044453599 390.7708073635158144 13888.50571255195428 
	10233.06144601638516 395.0056460322934413 13934.66768590110769 
	10235.37716190500032 396.4911862512453808 13967.28969249558577 
	10235.95654639882378 396.8628635249372678 13983.63927462114043 
	10236.10139748215261 396.9557860251415491 13991.81889766696258 
	10236.13761490197248 396.9790196325414513 13995.90931171260308 
	10236.14666877243144 396.9848277235862497 13997.95459433259384 
	10236.14925567830687 396.9864872331756374 13999.12333799645967 
	10236.14968686347493 396.9867638400399983 13999.70771163533027 
	10236.14968686081738 396.9867638383345252 13999.99989845189521 
	0 
	
	0 
	0 
	84 0 0.002232142857142857019 0.004464285714285714038 0.008928571428571428076 0.01785714285714285615 0.0357142857142857123 0.05357142857142856845 0.0625 0.07142857142857142461 0.08928571428571427382 0.1071428571428571369 0.125 0.1428571428571428492 0.1587301587301587213 0.1746031746031745935 0.1904761904761904656 0.2023809523809523836 0.2142857142857142738 0.238095238095238082 0.2619047619047618625 0.2857142857142856984 0.3095238095238095344 0.3214285714285713969 0.3333333333333333148 0.3392857142857143016 0.3452380952380952328 0.3571428571428570953 0.3630952380952380265 0.3690476190476190133 0.375 0.3779761904761904656 0.3809523809523809312 0.4047619047619047672 0.4077380952380952328 0.4107142857142856984 0.4166666666666666297 0.4285714285714285476 0.4444444444444444198 0.4484126984126983739 0.4523809523809523281 0.4603174603174602919 0.4682539682539682557 0.476190476190476164 0.4920634920634920362 0.5079365079365079083 0.5238095238095237249 0.5476190476190475609 0.5595238095238095344 0.5714285714285713969 0.5833333333333332593 0.5952380952380951218 0.6071428571428569843 0.6190476190476189577 0.6349206349206348854 0.650793650793650702 0.6587301587301586103 0.6666666666666666297 0.6785714285714286031 0.6904761904761904656 0.7023809523809523281 0.7142857142857141906 0.7232142857142855874 0.7321428571428569843 0.7410714285714283811 0.749999999999999889 0.7678571428571427937 0.7857142857142855874 0.7976190476190474499 0.8095238095238094234 0.8333333333333332593 0.8571428571428570953 0.875 0.8928571428571427937 0.9107142857142856984 0.9285714285714286031 0.9464285714285713969 0.9642857142857143016 0.9821428571428572063 0.9910714285714286031 0.9955357142857143016 0.9977678571428572063 0.9988839285714286031 0.9994419642857143016 0.9997209821428572063 
	0 
	0 
	0 
	F 1 F 0 F 1 F 0 } I I I I #
tcoedge-coedge $-1 -1 $-1 $13 $13 $17 $18 reversed $8 $19 -6.283185307179586232 -1.146235991553051168e-29 #
tcoedge-coedge $-1 -1 $-1 $20 $21 $10 $15 reversed $11 $22 -6.283185307179586232 1.341214278744536045e-29 #
tedge-edge $-1 -1 $-1 $23 -1.341214278744536045e-29 $23 6.283185307179586232 $14 $24 forward @7 unknown 0.0006639829562070237445 #
pcurve $-1 -1 $-1 0 forward { exppc nurbs 2 periodic 5 
	-1.341214278744536045e-29 2 1.570796326794896558 2 3.141592653589793116 2 4.712388980384689674 2 6.283185307179586232 2 
	-1.091393642127513885e-11 500 1 
	-500.0000000000109139 499.9999999999872671 0.7071067811865501263 
	-500 -1.273292582482099533e-11 1 
	-499.9999999999872671 -500.0000000000109139 0.7071067811865399122 
	1.273292582482099533e-11 -499.9999999999990905 1 
	500.0000000000127329 -499.9999999999863576 0.7071067811865502373 
	500 1.455191522836685181e-11 1 
	499.9999999999890861 500.0000000000145519 0.7071067811865398012 
	-1.091393642127513885e-11 500 1 
	0 
	plane 9815.301504634491721 127.0111148168753061 13999.99999999999636 0.5399512509335046007 -0.8416962911973318029 -1.559133774280851705e-14 -2.887545443380887787e-14 0 -1 forward_v I I I I 
	} 0 0 #
tcoedge-coedge $-1 -1 $-1 $21 $20 $13 $18 forward $11 $25 1.146235991553051168e-29 6.283185307179586232 #
tedge-edge $-1 -1 $-1 $26 1.146235991553051168e-29 $26 6.283185307179586232 $17 $27 forward @7 unknown 0.0006639829524790935621 #
pcurve $-1 -1 $-1 0 forward { exppc nurbs 2 periodic 5 
	-6.283185307179586232 2 -4.712388980384689674 2 -3.141592653589793116 2 -1.570796326794896558 2 -1.146235991553051168e-29 2 
	-1.091393642127513885e-11 500 1 
	499.9999999999890861 500.0000000000127329 0.7071067811865400232 
	500 1.273292582482099533e-11 1 
	500.0000000000127329 -499.9999999999881766 0.7071067811865502373 
	1.273292582482099533e-11 -500 1 
	-499.9999999999872671 -500.0000000000127329 0.7071067811865399122 
	-500 -1.273292582482099533e-11 1 
	-500.0000000000109139 499.9999999999854481 0.7071067811865502373 
	-1.091393642127513885e-11 500 1 
	0 
	plane 9626.318566785095754 421.6048167712801842 14000.00000000000182 -0.5399512509335046007 0.8416962911973318029 1.559133774280851705e-14 -2.887545443380887787e-14 0 -1 reverse_v I I I I 
	} 0 0 #
coedge $-1 -1 $-1 $17 $14 $21 $28 reversed $11 $29 #
coedge $-1 -1 $-1 $14 $17 $20 $28 forward $11 $30 #
pcurve $-1 -1 $-1 0 forward { exppc nubs 1 periodic 2 
	-6.283185307179586232 1 1.341214278744536045e-29 1 
	1 1 
	0 1 
	3.43004976432161092e-13 
	spline forward { ref 0 } I I I I 
	} 0 0 #
tvertex-vertex $-1 -1 $-1 $15 $31 0.0001104917586362606601 #
ellipse-curve $-1 -1 $-1 9815.301504634491721 127.0111148168753061 13999.99999999999636 0.5399512509335046007 -0.8416962911973318029 -1.559133774280851705e-14 420.8481455986658943 269.9756254667523194 -3.754977908852016194e-28 1 I I #
pcurve $-1 -1 $-1 0 forward { exppc nubs 1 periodic 2 
	1.146235991553051168e-29 1 6.283185307179586232 1 
	0 0 
	1 0 
	1.896000578987265338e-12 
	spline forward { ref 0 } I I I I 
	} 0 0 #
tvertex-vertex $-1 -1 $-1 $18 $32 0.0001104917619326288163 #
ellipse-curve $-1 -1 $-1 9626.318566785095754 421.6048167712801842 14000.00000000000182 0.5399512509335046007 -0.8416962911973318029 -1.559133774280851705e-14 420.8481455986658943 269.9756254667523194 -3.754977908852016194e-28 1 I I #
edge $-1 -1 $-1 $26 1.299211788787548815e-10 $23 1 $21 $33 forward @7 tangent #
pcurve $-1 -1 $-1 -1 $33 0 0 #
pcurve $-1 -1 $-1 1 $33 1 0 #
point $-1 -1 $-1 10236.14965023315744 396.9867402836280803 13999.99999999999636 #
point $-1 -1 $-1 10047.16671238376148 691.580442238031992 14000.00000000000182 #
intcurve-curve $-1 -1 $-1 forward { parcur full nubs 3 open 2 
	0 3 1 3 
	10047.16674901319493 691.5804657899723225 13999.99989845189521 
	10110.16106162966025 593.3825651385043329 13999.99989845189339 
	10173.15537424435206 495.1846644898025147 13999.99989845189702 
	10236.14968686081738 396.9867638383345252 13999.99989845189521 
	0 
	
	spline forward { ref 0 } I I I I 
	null_surface 
	nubs 1 open 2 
	0 1 1 1 
	0 0 
	0 1 
	
	nullbs 
	I I 
	0 
	0 
	0 
	surf1 } F 1.299211788787548815e-10 F 1 #
End-of-ACIS-data 