700 0 1 0           
4 LibG 19 ASM 222.0.0.1700 NT 24 Wed Oct  5 17:29:54 2016 
1000 9.999999999999999547e-07 1.000000000000000036e-10 
body $-1 -1 $-1 $1 $-1 $-1 #
lump $-1 -1 $-1 $-1 $2 $0 #
shell $-1 -1 $-1 $-1 $-1 $3 $-1 $1 #
face $-1 -1 $-1 $4 $5 $2 $-1 $6 forward single #
face $-1 -1 $-1 $7 $8 $2 $-1 $9 reversed single #
loop $-1 -1 $-1 $-1 $10 $3 #
plane-surface $-1 -1 $-1 8931.121690643503825 1634.782999839215563 14000.00000000000909 0.5399512509335047117 -0.8416962911973320249 -5.197112580936174452e-15 -9.625151477936295253e-15 0 -1 forward_v I I I I #
face $-1 -1 $-1 $-1 $11 $2 $-1 $12 forward single #
loop $-1 -1 $-1 $-1 $13 $4 #
plane-surface $-1 -1 $-1 8713.661144544605122 1909.029077148915349 14000.00000000000364 0.62131584592232314 -0.7835602207908642924 -5.197112580936168141e-15 -8.364687002664841946e-15 0 -1 forward_v I I I I #
tcoedge-coedge $-1 -1 $-1 $10 $10 $14 $15 forward $5 $16 -4.313156050651995216e-29 6.283185307179586232 #
loop $-1 -1 $-1 $-1 $17 $7 #
spline-surface $-1 -1 $-1 forward { exactsur full nubs 3 3 periodic open none none 86 2 
	0 3 0.002232142857142857019 1 0.004464285714285714038 1 0.008928571428571428076 1 0.01785714285714285615 1 
	0.0357142857142857123 1 0.05357142857142856845 1 0.0625 1 0.07142857142857142461 1 0.08928571428571427382 1 
	0.1071428571428571369 1 0.125 1 0.1428571428571428492 1 0.1587301587301587213 1 0.1746031746031745935 1 
	0.1904761904761904656 1 0.2023809523809523836 1 0.2142857142857142738 1 0.238095238095238082 1 0.2619047619047618625 1 
	0.2857142857142856984 1 0.2976190476190476164 1 0.3095238095238095344 1 0.3214285714285713969 1 0.3273809523809523281 1 
	0.3333333333333333148 1 0.3452380952380952328 1 0.3571428571428570953 1 0.3690476190476190133 1 0.375 1 
	0.3809523809523809312 1 0.3928571428571428492 1 0.4047619047619047672 1 0.4166666666666666297 1 0.4285714285714285476 1 
	0.4444444444444444198 1 0.4603174603174602919 1 0.476190476190476164 1 0.4801587301587301182 1 0.4821428571428570953 1 
	0.4841269841269840724 1 0.4861111111111110494 1 0.4880952380952380265 1 0.4900793650793650036 1 0.4910714285714284921 1 
	0.4915674603174602364 1 0.491815476190476164 1 0.4920634920634920362 1 0.5158730158730158166 1 0.5238095238095237249 1 
	0.5357142857142855874 1 0.5476190476190475609 1 0.5595238095238095344 1 0.5714285714285713969 1 0.5952380952380951218 1 
	0.6190476190476189577 1 0.6349206349206348854 1 0.650793650793650702 1 0.6666666666666666297 1 0.6785714285714286031 1 
	0.6904761904761904656 1 0.7023809523809523281 1 0.7142857142857141906 1 0.7321428571428569843 1 0.749999999999999889 1 
	0.7678571428571427937 1 0.7857142857142855874 1 0.7976190476190474499 1 0.8095238095238094234 1 0.8333333333333332593 1 
	0.8452380952380951218 1 0.8571428571428570953 1 0.875 1 0.8928571428571427937 1 0.9107142857142856984 1 
	0.9285714285714286031 1 0.9464285714285713969 1 0.9642857142857143016 1 0.9821428571428572063 1 0.9910714285714286031 1 
	0.9955357142857143016 1 0.9977678571428572063 1 0.9988839285714286031 1 0.9994419642857143016 1 0.9997209821428572063 1 
	1 3 
	0 3 1 3 
	9105.441319120405751 2219.687050988976807 13999.99988088140708 
	9105.441319085763098 2219.687050961508703 14002.33737541791925 
	9105.415628760754771 2219.666680088208977 14007.01236415456515 
	9105.261516724054673 2219.5444785676641 14016.36050414155397 
	9104.722153068019907 2219.116795822713812 14032.71008722105216 
	9102.566355224458675 2217.407378569528646 14065.33207991390555 
	9096.420956084359204 2212.534448879396223 14111.49407353257266 
	9086.263869074009563 2204.480493434382879 14156.48751330904997 
	9075.808618372404453 2196.190112221496292 14191.44193213423205 
	9063.834723375543035 2186.695537967665132 14225.59355240844161 
	9046.087701970336639 2172.62322377488772 14266.57470567065138 
	9020.610468677201425 2152.421319269617015 14312.39945129651642 
	8991.273476387113988 2129.158859414167182 14354.29598425621589 
	8959.660958332058726 2104.092045306137152 14390.34991166685904 
	8926.572634277723409 2077.855006334932114 14420.70971058458599 
	8892.691928964739418 2050.989656967549308 14445.67389678901236 
	8860.003623081047408 2025.069808201814794 14464.49778605183383 
	8829.248002684618768 2000.682462090653189 14478.23158453850374 
	8791.479778080662072 1970.734545139265038 14491.14854767700672 
	8743.048493198426513 1932.331466553697965 14500.4660403594371 
	8684.273820896263715 1885.72670756899106 14500.46566564007662 
	8635.842477338848767 1847.32358245758337 14491.1487493313889 
	8598.074170479741952 1817.375600282736286 14478.232099258581 
	8570.394193972468202 1795.427053684345083 14465.87138370211687 
	8547.995264721394051 1777.666058031312787 14453.39921775305265 
	8530.551843284958522 1763.834480243210919 14442.16089144270882 
	8513.449820406029176 1750.273610854937033 14430.09814554297191 
	8492.757549106958322 1733.865891696856579 14413.50494309909845 
	8469.162234579098367 1715.156234906373356 14391.28058293024515 
	8450.638942350971774 1700.468384917832282 14370.93674520357308 
	8436.566080808126571 1689.30945719021679 14353.63591523098148 
	8423.009833823949521 1678.560173549960837 14335.67576345213274 
	8407.069225778708642 1665.920235853598797 14312.03585091601963 
	8389.655056463330766 1652.111853227560232 14281.92291634189132 
	8374.052984802952778 1639.740354401307741 14250.23329335195012 
	8358.82733798490699 1627.66733769949451 14213.46785096635358 
	8344.897255081956246 1616.621624794472382 14171.29388015181212 
	8333.365888298543723 1607.477948638400676 14123.58341482881042 
	8327.551966220416944 1602.867860200563427 14086.8794350777207 
	8325.103692268670784 1600.926527089169213 14064.23671753697272 
	8324.334202266902139 1600.316368075613809 14055.98368693295379 
	8323.817604016256155 1599.906736919529976 14049.7852106433329 
	8323.361587103963757 1599.545143099297093 14043.57899814408665 
	8322.966232815144394 1599.231651069098007 14037.36601235217677 
	8322.68736623076984 1599.010526740453543 14032.18368488168926 
	8322.51875270891469 1598.876826419552572 14028.55393800185266 
	8322.441089852816731 1598.815244473641087 14026.73858781745548 
	8322.39861913675486 1598.781567765487807 14025.70111655308938 
	8321.388615864043459 1597.980696280310895 14000.28101247637278 
	8322.045895405102783 1598.50187918786628 13966.6937418510297 
	8326.501649018857279 1602.035022209043063 13921.32340086333352 
	8331.347515432247747 1605.877501076648059 13888.63574821557086 
	8338.937576478754636 1611.895960251320503 13852.48487482042947 
	8348.623367955848153 1619.576206855663941 13817.15916254840522 
	8364.258695660730154 1631.974075713064394 13771.42092733676509 
	8388.747034274101679 1651.391846571114002 13717.28687925678059 
	8421.321406440853025 1677.22135279302438 13665.15911946511733 
	8453.995861741253975 1703.130218884366286 13624.48756150714507 
	8484.582584351368496 1727.383639270228969 13593.35744848893773 
	8514.70758210322856 1751.270939780060871 13568.52639452594303 
	8543.515657172019928 1774.114000282314009 13549.09551343031671 
	8570.394310676969326 1795.427146223782529 13534.12891282592682 
	8598.074275425755332 1817.375683498360104 13521.76812958826849 
	8631.1215692986043 1843.580188019033358 13510.46656629738209 
	8669.703546947741415 1874.173361899391239 13502.1003138862925 
	8713.661170515975755 1909.029097740770794 13498.94997834856622 
	8757.618708957061244 1943.884766081784619 13502.10035353506646 
	8796.200800098153195 1974.478029954198746 13510.46652158915458 
	8829.247875201001079 2000.682361003482811 13521.76858295236161 
	8866.154985288187163 2029.947466244685529 13538.24841669613852 
	8901.457620419403611 2057.940319924015967 13559.94463390349301 
	8934.564598720522554 2084.192150584987758 13586.49528495437517 
	8962.092785249373264 2106.02033691436236 13612.42300441893531 
	8991.27351239483869 2129.15888796571835 13645.70376966697404 
	9020.610612123267856 2152.421433014055765 13687.60010164075538 
	9046.087710491259713 2172.623230532011348 13733.4250234374631 
	9067.384255276476324 2189.51010200257997 13782.60232438058119 
	9084.232738139146022 2202.869929497122939 13834.51340040658033 
	9096.420909834747363 2212.534412206589423 13888.50570145504753 
	9102.566398607112205 2217.407412969431789 13934.6676602979278 
	9104.722152540021852 2219.116795404045661 13967.28967509486392 
	9105.261519567260621 2219.544480822142759 13983.63925672095502 
	9105.396365132084611 2219.651405196189899 13991.81888009061186 
	9105.430081006956243 2219.678139844977522 13995.90929412796322 
	9105.438509497511404 2219.684823128018706 13997.95457676071965 
	9105.44091772315187 2219.686732705240502 13999.12332042495837 
	9105.441319124736765 2219.68705099241015 13999.70769406434374 
	9105.441319120405751 2219.687050988976807 13999.99988088140708 
	9187.617512961342072 2114.710925951325407 13999.9998808814089 
	9187.617513241100824 2114.710925483836945 14002.33737541792107 
	9187.591186374827885 2114.6914454846833 14007.01236415456697 
	9187.433264964114642 2114.574575390422069 14016.36050414155579 
	9186.880558668384765 2114.165566395990936 14032.71008722105398 
	9184.671449260753434 2112.530761578570036 14065.33207991390736 
	9178.374062257027617 2107.870547176564287 14111.49407353257448 
	9167.965776940585783 2100.168157434121895 14156.48751330905179 
	9157.251947306509464 2092.239671512161749 14191.44193213423387 
	9144.981922981016396 2083.159546372624845 14225.59355240844343 
	9126.795987949752089 2069.701515690403085 14266.5747056706532 
	9100.688664044251709 2050.381457294148731 14312.39945129651824 
	9070.626119298685808 2028.134447593316736 14354.29598425621771 
	9038.231773612429606 2004.161843811491508 14390.34991166686086 
	9004.325123230173631 1979.070097079241577 14420.70971058458781 
	8969.606494993464366 1953.377466453324132 14445.67389678901418 
	8936.109754845334464 1928.589065445257575 14464.49778605183565 
	8904.593498597063444 1905.266270611582286 14478.23158453850556 
	8865.891206834408877 1876.625631491812555 14491.14854767700854 
	8816.262136406130594 1839.898918975638253 14500.46604035943892 
	8756.033875057963087 1795.328536982382047 14500.46566564007844 
	8706.404746309301117 1758.601777443812125 14491.14874933139072 
	8667.702372088349875 1729.961073384898555 14478.23209925858282 
	8639.337823519659651 1708.970622648995459 14465.87138370211869 
	8616.384934914201949 1691.984923265465795 14453.39921775305447 
	8598.510109565724633 1678.757118734388087 14442.16089144271064 
	8580.985126511606722 1665.78820513380424 14430.09814554297373 
	8559.781102885697692 1650.09671121277006 14413.50494309910027 
	8535.602239105322951 1632.203763364856741 14391.28058293024696 
	8516.620836201731436 1618.157064202449874 14370.9367452035749 
	8502.199931214887329 1607.485242219364409 14353.6359152309833 
	8488.308415962790605 1597.205184769341713 14335.67576345213456 
	8471.973572055747354 1585.117001620566953 14312.03585091602145 
	8454.128722731766175 1571.911379109285008 14281.92291634189314 
	8438.140786734413268 1560.079918425946744 14250.23329335195194 
	8422.538586033098909 1548.533909380299974 14213.4678509663554 
	8408.263988837505167 1537.970362980388927 14171.29388015181394 
	8396.447433513323631 1529.225823710468376 14123.58341482881224 
	8390.489721732208636 1524.816976788703641 14086.87943507772252 
	8387.980902976049038 1522.960379426654526 14064.23671753697454 
	8387.192380277037955 1522.376857708874013 14055.98368693295561 
	8386.663006947837857 1521.985105970599534 14049.78521064333472 
	8386.195711205884436 1521.639297486404303 14043.57899814408847 
	8385.790579968666862 1521.339488827666855 14037.36601235217859 
	8385.504815640926608 1521.128018266319486 14032.18368488169108 
	8385.332033271881301 1521.000152473979369 14028.55393800185448 
	8385.25244801583176 1520.941261031439808 14026.7385878174573 
	8385.208929397249449 1520.909050919902256 14025.7011165530912 
	8384.173927020794508 1520.143167041162542 14000.2810124763746 
	8384.847474610258359 1520.641581929475251 13966.69374185103152 
	8389.413422194433224 1524.020502490985564 13921.32340086333534 
	8394.379136607674809 1527.695247559246809 13888.63574821557268 
	8402.156910206163957 1533.450992799875621 13852.48487482043129 
	8412.082250599951294 1540.79597765621088 13817.15916254840704 
	8428.104258321454836 1552.652666782633332 13771.42092733676691 
	8453.198238691715233 1571.222809035703676 13717.28687925678241 
	8486.578224339900771 1595.924815339300949 13665.15911946511915 
	8520.060774522029533 1620.702708657550602 13624.48756150714689 
	8551.403951200214578 1643.897430399938685 13593.35744848893955 
	8582.273991025163923 1666.742003974449972 13568.52639452594485 
	8611.794534523702168 1688.587926128283243 13549.09551343031853 
	8639.337941157458772 1708.970713882232985 13534.12891282592864 
	8667.702475504735048 1729.961158741319423 13521.76812958827031 
	8701.567082352006764 1755.021789266414316 13510.46656629738391 
	8741.103253535184194 1784.279517357346549 13502.10031388629432 
	8786.14802003962177 1817.613737484288549 13498.94997834856804 
	8831.192697895503443 1850.947895039263585 13502.10035353506828 
	8870.728986928865197 1880.205707022672186 13510.4665215891564 
	8904.593368752925016 1905.266172828088884 13521.76858295236343 
	8942.413253978545981 1933.253799578993721 13538.24841669614034 
	8978.588973163914488 1960.0247246009435 13559.94463390349483 
	9012.514736666658791 1985.130620804230603 13586.49528495437698 
	9040.723742658919946 2006.005963236287016 13612.42300441893713 
	9070.626154168849098 2028.134477736947474 13645.70376966697586 
	9100.688808616427195 2050.381569462534571 13687.6001016407572 
	9126.795995326259799 2069.701524049198724 13733.42502343746492 
	9148.619239871106402 2085.851250536913994 13782.60232438058301 
	9165.884408472787982 2098.627903658724335 13834.51340040658215 
	9178.374014731234638 2107.870512289843191 13888.50570145504935 
	9184.671493413898133 2112.530794900128512 13934.66766029792961 
	9186.880557714828683 2114.165566572912667 13967.28967509486574 
	9187.43326811094812 2114.574577219957519 13983.63925672095684 
	9187.571446277219366 2114.676837436879396 13991.81888009061367 
	9187.605997236603798 2114.702403339437751 13995.90929412796504 
	9187.614633669723844 2114.708795595538504 13997.95457676072147 
	9187.61710149040664 2114.710621766256281 13999.12332042496018 
	9187.61751292637382 2114.710926009761351 13999.70769406434556 
	9187.617512961342072 2114.710925951325407 13999.9998808814089 
	9269.79371134239409 2009.734794559599322 13999.99988088141254 
	9269.793710990783438 2009.73479497574931 14002.33737541793198 
	9269.766751119284891 2009.716200901864795 14007.01236415457788 
	9269.605014149476119 2009.604670890245188 14016.36050414156489 
	9269.038975170717094 2009.214321711433513 14032.71008722106671 
	9266.776539965989286 2007.65414924966808 14065.33207991391464 
	9260.327172213563244 2003.206640178054613 14111.49407353258175 
	9249.667680774271503 1995.855827078151151 14156.48751330906089 
	9238.695284083494698 1988.289219826325734 14191.44193213424296 
	9226.129118029337405 1979.62356115560101 14225.59355240845071 
	9207.504274077966329 1966.779807397691911 14266.57470567066048 
	9180.766853931438163 1948.341602988067734 14312.39945129652369 
	9149.978762699854997 1927.110035087263441 14354.29598425622498 
	9116.802588768032365 1904.231642491481125 14390.34991166686632 
	9082.077610446958715 1880.285190252718394 14420.70971058459327 
	9046.521056917681562 1855.765281683589592 14445.67389678901782 
	9012.215883959888743 1832.108326397154542 14464.49778605184292 
	8979.938993232079156 1809.850080920347864 14478.23158453851102 
	8940.302631046926763 1782.516724200060025 14491.14854767701399 
	8889.475783665406198 1747.46636572718603 14500.46604035944438 
	8827.793927112710662 1704.930369344569044 14500.4656656400839 
	8776.967016347825847 1669.87997093521426 14491.14874933139799 
	8737.330566007760353 1642.546557248509316 14478.2320992585901 
	8708.281452069801162 1622.514193009072869 14465.87138370212597 
	8684.774598767833595 1606.303797371641849 14453.39921775306175 
	8666.468370600980052 1593.679764566942822 14442.16089144271609 
	8648.520427242250662 1581.302806935183071 14430.098145542981 
	8626.804649959056405 1566.32754011322595 14413.50494309910937 
	8602.042235747925588 1549.25130285690193 14391.28058293025424 
	8582.602722787722087 1535.845753654507007 14370.93674520358218 
	8567.83377196267611 1525.66104076677243 14353.63591523098876 
	8553.606990618609416 1515.85020646162161 14335.67576345214002 
	8536.87790868670163 1504.313780887753182 14312.0358509160269 
	8518.602379091858893 1491.710918858278092 14281.9229163418986 
	8502.228579649217863 1480.41949506988567 14250.23329335195558 
	8486.24982334982451 1469.400496080377934 14213.46785096635904 
	8471.630715441668144 1459.319111175057969 14171.29388015181576 
	8459.528970092096642 1450.973710869096067 14123.58341482881224 
	8453.427475105232588 1446.766096370165315 14086.87943507771888 
	8450.858096835017932 1444.994255344405929 14064.2367175369709 
	8450.050547396747788 1444.437362583878439 14055.98368693295197 
	8449.508395336239118 1444.063495375639604 14049.78521064333108 
	8449.029823183656845 1443.733468841915055 14043.57899814408665 
	8448.614912622684642 1443.447346879075667 14037.36601235217677 
	8448.322253339572853 1443.245526183078937 14032.18368488169108 
	8448.145298423425629 1443.123500097527312 14028.55393800185266 
	8448.063795789525102 1443.067292129651833 14026.7385878174573 
	8448.019221870974434 1443.03655896786745 14025.70111655308938 
	8446.959280741435578 1442.305578231533673 14000.28101247637278 
	8447.649058938506641 1442.781277501037039 13966.69374185102788 
	8452.325212196639768 1446.005959223141872 13921.3234008633317 
	8457.410768554440438 1449.512978966769879 13888.63574821556904 
	8465.376259883023522 1455.006003026306871 13852.48487482042765 
	8475.541137514877846 1462.015742479510664 13817.1591625484034 
	8491.949844746948656 1473.331224592116087 13771.42092733676327 
	8517.649448255901007 1491.053764297391353 13717.28687925677878 
	8551.83505499383682 1514.628260034413643 13665.15911946511733 
	8586.125689110220264 1538.275195901159123 13624.48756150714325 
	8618.225332503076061 1560.411201300464199 13593.35744848893592 
	8649.840405462977287 1582.213060449066688 13568.52639452594303 
	8680.073420607493972 1603.061839753193453 13549.09551343031671 
	8708.281576499841321 1622.514274736196285 13534.12891282592864 
	8737.330680269815275 1642.546627425825591 13521.76812958827213 
	8772.012597538090631 1666.463387528993962 13510.46656629738573 
	8812.502962613158161 1694.385669329666143 13502.10031388629614 
	8858.634869018000245 1726.19837799093898 13498.94997834856986 
	8904.766687501134584 1758.011023062979348 13502.1003535350701 
	8945.257170130424129 1785.933389170349983 13510.4665215891564 
	8979.938858650317343 1809.849989767414172 13521.76858295236343 
	9018.671508145400367 1836.56015323974384 13538.24841669614398 
	9055.720330118358106 1862.109123385846033 13559.94463390349847 
	9090.464887860121962 1886.069072483126774 13586.49528495438062 
	9119.354702395108689 1905.991586301962116 13612.42300441893894 
	9149.978802516679934 1927.110058307768668 13645.70376966697586 
	9180.767006894368023 1948.341703413135974 13687.60010164075902 
	9207.504284375550924 1966.779811668274078 13733.42502343746492 
	9229.854221644409336 1982.192403019872472 13782.60232438058301 
	9247.536088079743422 1994.385864841851117 13834.51340040658397 
	9260.327123808678152 2003.206606521665663 13888.50570145504935 
	9266.77658579691888 2007.654180223068579 13934.66766029793325 
	9269.038975029097855 2009.21432075200255 13967.28967509486392 
	9269.6050168999991 2009.604673274430979 13983.63925672095866 
	9269.746534699048425 2009.70225949350106 13991.81888009061004 
	9269.78191703099219 2009.726661844909813 13995.90929412796322 
	9269.790762928900222 2009.732760943642234 13997.95457676071965 
	9269.793290237243127 2009.734503858133621 13999.123320424962 
	9269.793711386344512 2009.734794507580546 13999.7076940643492 
	9269.79371134239409 2009.734794559599322 13999.99988088141254 
	9351.969905183328592 1904.758669521948605 13999.99988088141617 
	9351.969905146117526 1904.758669498078007 14002.33737541793562 
	9351.942308733356185 1904.740966298339799 14007.01236415458152 
	9351.776762389534269 1904.634767713003612 14016.36050414156853 
	9351.197380771078315 1904.263092284712002 14032.71008722107035 
	9348.881634002280407 1902.777532258710835 14065.33207991391828 
	9342.280278386228019 1898.542738475225406 14111.49407353258539 
	9331.369588640842267 1891.543491077893577 14156.48751330906452 
	9320.138613017596072 1884.338779116995056 14191.4419321342466 
	9307.276317634805309 1876.087569560565044 14225.59355240845434 
	9288.212560057376322 1863.858099313212279 14266.57470567066412 
	9260.845049298481172 1846.301741012604907 14312.39945129652733 
	9229.331405611419541 1826.085623266419361 14354.29598425622862 
	9195.373404048395969 1804.30144099684253 14390.34991166686996 
	9159.830099399401661 1781.500280997035588 14420.70971058459691 
	9123.435622946399235 1758.153091169372146 14445.67389678902146 
	9088.322015724168523 1735.627583640605508 14464.49778605184474 
	9055.284489144514737 1714.433889441285373 14478.23158453851283 
	9014.714059800664472 1688.407810552616411 14491.14854767701581 
	8962.689426873101183 1655.033818149134959 14500.4660403594462 
	8899.55398127440094 1614.532198757969127 14500.46566564008572 
	8847.529285318269103 1581.158165921451655 14491.14874933139981 
	8806.958767616359182 1555.132030350680225 14478.23209925859192 
	8777.225081616985335 1536.057761973731431 14465.87138370212779 
	8753.164268960634217 1520.622662605803043 14453.39921775306357 
	8734.426636881738887 1508.602403058127948 14442.16089144271791 
	8716.055733347820933 1496.817401214058236 14430.09814554298282 
	8693.828203737788499 1482.558359629146707 14413.50494309911119 
	8668.482240274142896 1466.29883131539259 14391.28058293025606 
	8648.584616638474472 1453.53443293913142 14370.936745203584 
	8633.46762236943141 1443.836825795926643 14353.63591523099058 
	8618.905572757443224 1434.495217681008626 14335.67576345214184 
	8601.782254963733067 1423.51054665472725 14312.03585091602872 
	8583.076045360288845 1411.510444740008097 14281.92291634190042 
	8566.316381580672896 1400.759059094529675 14250.2332933519574 
	8549.961071398010972 1390.267067761187491 14213.46785096636086 
	8534.997449197211608 1380.667849360978153 14171.29388015181758 
	8522.610515306872912 1372.721585941166495 14123.58341482881406 
	8516.365230617022462 1368.71521295830803 14086.8794350777207 
	8513.735307542392547 1367.028107681892834 14064.23671753697272 
	8512.908725406881786 1366.497852217140462 14055.98368693295379 
	8512.353798267817183 1366.141864426710754 14049.7852106433329 
	8511.863947285575705 1365.827623229023857 14043.57899814408847 
	8511.439259776203471 1365.55518463764588 14037.36601235217859 
	8511.139702749725984 1365.363017708946245 14032.1836848816929 
	8510.958578986388602 1365.246826151955474 14028.55393800185448 
	8510.875153952538312 1365.19330868745169 14026.73858781745912 
	8510.829532131467204 1365.164042122283263 14025.7011165530912 
	8509.744591898184808 1364.46804899238623 14000.2810124763746 
	8510.450638143660399 1364.920980242646237 13966.6937418510297 
	8515.236985372213894 1367.991439505083918 13921.32340086333352 
	8520.4423897298675 1371.330725449367492 13888.63574821557086 
	8528.595593610432843 1376.561035574860398 13852.48487482042947 
	8539.000020158980988 1383.235513280055557 13817.15916254840522 
	8555.795407407675157 1394.009815661682069 13771.42092733676509 
	8582.100652673516379 1410.884726761977163 13717.28687925678059 
	8617.091872892886386 1433.331722580685437 13665.15911946511915 
	8652.190601890997641 1455.847685674337981 13624.48756150714507 
	8685.046699351925781 1476.924992430168004 13593.35744848893773 
	8717.406814384916288 1497.684124643449422 13568.52639452594485 
	8748.35229795917985 1517.535765599156093 13549.09551343031853 
	8777.225206980334406 1536.05784239463992 13534.12891282593046 
	8806.95888034879863 1555.132102668777861 13521.76812958827395 
	8842.458110591498553 1577.904988776367645 13510.46656629738754 
	8883.902669200604578 1604.491824787613723 13502.10031388629795 
	8931.121718541649898 1634.783017734449231 13498.94997834857168 
	8978.340676439582239 1665.074152020450811 13502.10035353507192 
	9019.785356961139769 1691.661066238816375 13510.46652158915822 
	9055.284352202244918 1714.433801592012969 13521.76858295236525 
	9094.929776835762823 1739.866486574045439 13538.2484166961458 
	9132.851682862870803 1764.193528062766745 13559.94463390350029 
	9168.415025806261838 1787.00754270236348 13586.49528495438244 
	9197.985659804657189 1805.977212623881314 13612.42300441894076 
	9229.331444290692161 1826.085648078992563 13645.7037696669795 
	9260.845203387529182 1846.301839861610233 13687.60010164076266 
	9288.212569210552829 1863.858105185457816 13733.42502343746855 
	9311.089206239039413 1878.533551554203314 13782.60232438058665 
	9329.187758413385382 1890.143839003450694 13834.51340040658761 
	9342.280228705165428 1898.542706604918067 13888.50570145505299 
	9348.881680603702989 1902.777562153764848 13934.66766029793689 
	9351.197380203902867 1904.263091920869556 13967.28967509486756 
	9351.776765443684781 1904.634769672246193 13983.63925672096229 
	9351.92161584418136 1904.727691734191012 13991.81888009061367 
	9351.957833260636107 1904.750925339370269 13995.90929412796686 
	9351.966887101110842 1904.756733411162486 13997.95457676072328 
	9351.969474004494259 1904.758392919149856 13999.12332042496564 
	9351.969905187979748 1904.758669524932429 13999.70769406435284 
	9351.969905183328592 1904.758669521948605 13999.99988088141617 
	0 
	
	0 
	0 
	85 0 0.002232142857142857019 0.004464285714285714038 0.008928571428571428076 0.01785714285714285615 0.0357142857142857123 0.05357142857142856845 0.0625 0.07142857142857142461 0.08928571428571427382 0.1071428571428571369 0.125 0.1428571428571428492 0.1587301587301587213 0.1746031746031745935 0.1904761904761904656 0.2023809523809523836 0.2142857142857142738 0.238095238095238082 0.2619047619047618625 0.2857142857142856984 0.2976190476190476164 0.3095238095238095344 0.3214285714285713969 0.3273809523809523281 0.3333333333333333148 0.3452380952380952328 0.3571428571428570953 0.3690476190476190133 0.375 0.3809523809523809312 0.3928571428571428492 0.4047619047619047672 0.4166666666666666297 0.4285714285714285476 0.4444444444444444198 0.4603174603174602919 0.476190476190476164 0.4801587301587301182 0.4821428571428570953 0.4841269841269840724 0.4861111111111110494 0.4880952380952380265 0.4900793650793650036 0.4910714285714284921 0.4915674603174602364 0.491815476190476164 0.4920634920634920362 0.5158730158730158166 0.5238095238095237249 0.5357142857142855874 0.5476190476190475609 0.5595238095238095344 0.5714285714285713969 0.5952380952380951218 0.6190476190476189577 0.6349206349206348854 0.650793650793650702 0.6666666666666666297 0.6785714285714286031 0.6904761904761904656 0.7023809523809523281 0.7142857142857141906 0.7321428571428569843 0.749999999999999889 0.7678571428571427937 0.7857142857142855874 0.7976190476190474499 0.8095238095238094234 0.8333333333333332593 0.8452380952380951218 0.8571428571428570953 0.875 0.8928571428571427937 0.9107142857142856984 0.9285714285714286031 0.9464285714285713969 0.9642857142857143016 0.9821428571428572063 0.9910714285714286031 0.9955357142857143016 0.9977678571428572063 0.9988839285714286031 0.9994419642857143016 0.9997209821428572063 
	0 
	0 
	0 
	F 1 F 0 F 1 F 0 } I I I I #
tcoedge-coedge $-1 -1 $-1 $13 $13 $17 $18 reversed $8 $19 -6.283185307179586232 2.304288848829615076e-30 #
tcoedge-coedge $-1 -1 $-1 $20 $21 $10 $15 reversed $11 $22 -6.283185307179586232 4.313156050651995216e-29 #
tedge-edge $-1 -1 $-1 $23 -4.313156050651995216e-29 $23 6.283185307179586232 $14 $24 forward @7 unknown 0.000647686989056034737 #
pcurve $-1 -1 $-1 0 forward { exppc nurbs 2 periodic 5 
	-4.313156050651995216e-29 2 1.570796326794896558 2 3.141592653589793116 2 4.712388980384689674 2 6.283185307179586232 2 
	-3.637978807091712952e-12 500 1 
	-500.000000000003638 499.999999999994543 0.7071067811865479058 
	-500 -3.637978807091712952e-12 1 
	-499.999999999996362 -500.000000000003638 0.7071067811865506814 
	3.637978807091712952e-12 -500.0000000000009095 1 
	500.000000000003638 -499.9999999999954525 0.7071067811865474617 
	500 3.637978807091712952e-12 1 
	499.999999999996362 500.000000000003638 0.7071067811865511255 
	-3.637978807091712952e-12 500 1 
	0 
	plane 8931.121690643503825 1634.782999839215563 14000.00000000000909 0.5399512509335047117 -0.8416962911973320249 -5.197112580936174452e-15 -9.625151477936295253e-15 0 -1 forward_v I I I I 
	} 0 0 #
tcoedge-coedge $-1 -1 $-1 $21 $20 $13 $18 forward $11 $25 -2.304288848829615076e-30 6.283185307179586232 #
tedge-edge $-1 -1 $-1 $26 -2.304288848829615076e-30 $26 6.283185307179586232 $17 $27 forward @7 unknown 0.0006476870740494287872 #
pcurve $-1 -1 $-1 0 forward { exppc nurbs 2 periodic 5 
	-6.283185307179586232 2 -4.712388980384689674 2 -3.141592653589793116 2 -1.570796326794896558 2 2.304288848829615076e-30 2 
	-3.637978807091712952e-12 500.0000000000009095 1 
	499.999999999996362 500.0000000000009095 0.7071067811865466846 
	500 3.637978807091712952e-12 1 
	500.000000000003638 -499.999999999996362 0.70710678118654402 
	3.637978807091712952e-12 -499.9999999999990905 1 
	-499.999999999996362 -500.0000000000027285 0.7071067811865476838 
	-500 -2.728484105318784714e-12 1 
	-500.000000000003638 499.9999999999972715 0.7071067811865432429 
	-3.637978807091712952e-12 500.0000000000009095 1 
	0 
	plane 8713.661144544605122 1909.029077148915349 14000.00000000000364 -0.62131584592232314 0.7835602207908642924 5.197112580936168141e-15 -8.364687002664841946e-15 0 -1 reverse_v I I I I 
	} 0 0 #
coedge $-1 -1 $-1 $17 $14 $21 $28 reversed $11 $29 #
coedge $-1 -1 $-1 $14 $17 $20 $28 forward $11 $30 #
pcurve $-1 -1 $-1 0 forward { exppc nubs 1 periodic 2 
	-6.283185307179586232 1 4.313156050651995216e-29 1 
	1 0.999999999999999889 
	0 0.999999999999999889 
	1.58229683983745524e-11 
	spline forward { ref 0 } I I I I 
	} 0 0 #
tvertex-vertex $-1 -1 $-1 $15 $31 0.00014455856500844195 #
ellipse-curve $-1 -1 $-1 8931.121690643503825 1634.782999839215563 14000.00000000000909 0.5399512509335047117 -0.8416962911973320249 -5.197112580936174452e-15 420.8481455986659512 269.9756254667523763 -2.804031974363158027e-43 1 I I #
pcurve $-1 -1 $-1 0 forward { exppc nubs 1 periodic 2 
	-2.304288848829615076e-30 1 6.283185307179586232 1 
	0 0 
	1 0 
	4.451078357140778314e-12 
	spline forward { ref 0 } I I I I 
	} 0 0 #
tvertex-vertex $-1 -1 $-1 $18 $32 0.000144558033861042802 #
ellipse-curve $-1 -1 $-1 8713.661144544605122 1909.029077148915349 14000.00000000000364 0.62131584592232314 -0.7835602207908642924 -5.197112580936168141e-15 391.7801103954320752 310.6579229611616029 0 1 I I #
edge $-1 -1 $-1 $26 1.256055666374725092e-09 $23 0.9999999808003671165 $21 $33 forward @7 tangent #
pcurve $-1 -1 $-1 -1 $33 0 0 #
pcurve $-1 -1 $-1 1 $33 1 0 #
point $-1 -1 $-1 9351.969836242165911 1904.758625305970327 14000.00000000000909 #
point $-1 -1 $-1 9105.441254940036742 2219.687000110076951 14000.00000000000364 #
intcurve-curve $-1 -1 $-1 forward { parcur full nubs 3 open 2 
	0 3 1 3 
	9105.441319120405751 2219.687050988976807 13999.99988088140708 
	9187.617512961342072 2114.710925951325407 13999.9998808814089 
	9269.79371134239409 2009.734794559599322 13999.99988088141254 
	9351.969905183328592 1904.758669521948605 13999.99988088141617 
	0 
	
	spline forward { ref 0 } I I I I 
	null_surface 
	nubs 1 open 2 
	0 1 1 1 
	0 0 
	0 1 
	
	nullbs 
	I I 
	0 
	0 
	0 
	surf1 } F 1.256055666374725092e-09 F 0.9999999808003671165 #
End-of-ACIS-data 