700 0 1 0           
4 LibG 19 ASM 222.0.0.1700 NT 24 Wed Oct  5 17:29:54 2016 
1000 9.999999999999999547e-07 1.000000000000000036e-10 
body $-1 -1 $-1 $1 $-1 $-1 #
lump $-1 -1 $-1 $-1 $2 $0 #
shell $-1 -1 $-1 $-1 $-1 $3 $-1 $1 #
face $-1 -1 $-1 $4 $5 $2 $-1 $6 forward single #
face $-1 -1 $-1 $7 $8 $2 $-1 $9 reversed single #
loop $-1 -1 $-1 $-1 $10 $3 #
plane-surface $-1 -1 $-1 9437.335628935699788 716.1985187256846075 14000.00000000000182 0.5399512509335044896 -0.8416962911973318029 0 0 0 -1 forward_v I I I I #
face $-1 -1 $-1 $-1 $11 $2 $-1 $12 forward single #
loop $-1 -1 $-1 $-1 $13 $4 #
plane-surface $-1 -1 $-1 9278.72012871429979 1028.193908305248442 14000.00000000000182 0.4531871434353523242 -0.8914153986918249561 0 0 0 -1 forward_v I I I I #
tcoedge-coedge $-1 -1 $-1 $10 $10 $14 $15 forward $5 $16 0 6.283185307179586232 #
loop $-1 -1 $-1 $-1 $17 $7 #
spline-surface $-1 -1 $-1 forward { exactsur full nubs 3 3 periodic open none none 86 2 
	0 3 0.002232142857142857019 1 0.004464285714285714038 1 0.008928571428571428076 1 0.01785714285714285615 1 
	0.0357142857142857123 1 0.05357142857142856845 1 0.0625 1 0.07142857142857142461 1 0.08928571428571427382 1 
	0.1071428571428571369 1 0.125 1 0.1428571428571428492 1 0.1587301587301587213 1 0.1746031746031745935 1 
	0.1904761904761904656 1 0.2023809523809523836 1 0.2142857142857142738 1 0.238095238095238082 1 0.2619047619047618625 1 
	0.2857142857142856984 1 0.2976190476190476164 1 0.3095238095238095344 1 0.3214285714285713969 1 0.3273809523809523281 1 
	0.3333333333333333148 1 0.3452380952380952328 1 0.3571428571428570953 1 0.3690476190476190133 1 0.375 1 
	0.3809523809523809312 1 0.3928571428571428492 1 0.4047619047619047672 1 0.4166666666666666297 1 0.4285714285714285476 1 
	0.4444444444444444198 1 0.4603174603174602919 1 0.476190476190476164 1 0.4801587301587301182 1 0.4821428571428570953 1 
	0.4841269841269840724 1 0.4861111111111110494 1 0.4880952380952380265 1 0.4900793650793650036 1 0.4910714285714284921 1 
	0.4915674603174602364 1 0.491815476190476164 1 0.4920634920634920362 1 0.5158730158730158166 1 0.5238095238095237249 1 
	0.5357142857142855874 1 0.5476190476190475609 1 0.5595238095238095344 1 0.5714285714285713969 1 0.5952380952380951218 1 
	0.6190476190476189577 1 0.6349206349206348854 1 0.650793650793650702 1 0.6666666666666666297 1 0.6785714285714286031 1 
	0.6904761904761904656 1 0.7023809523809523281 1 0.7142857142857141906 1 0.7321428571428569843 1 0.749999999999999889 1 
	0.7678571428571427937 1 0.7857142857142855874 1 0.7976190476190474499 1 0.8095238095238094234 1 0.8333333333333332593 1 
	0.8452380952380951218 1 0.8571428571428570953 1 0.875 1 0.8928571428571427937 1 0.9107142857142856984 1 
	0.9285714285714286031 1 0.9464285714285713969 1 0.9642857142857143016 1 0.9821428571428572063 1 0.9910714285714286031 1 
	0.9955357142857143016 1 0.9977678571428572063 1 0.9988839285714286031 1 0.9994419642857143016 1 0.9997209821428572063 1 
	1 3 
	0 3 1 3 
	9724.427900951559423 1254.78751708404684 13999.99988105639568 
	9724.427900912172845 1254.787517064021586 14002.33737559292967 
	9724.398674376127019 1254.772658569974965 14007.01236432989208 
	9724.223349189036526 1254.683524905873355 14016.36050431717922 
	9723.60974342629379 1254.371573549328559 14032.71008739802892 
	9721.15720520800096 1253.124726354267523 14065.33208009508417 
	9714.165906696964157 1249.570416426169004 14111.49407372541282 
	9702.610721137112705 1243.695869560730443 14156.48751351055034 
	9690.716330356231992 1237.648873974891785 14191.44193233797523 
	9677.094257549035319 1230.723541214944817 14225.59355261419478 
	9656.90440140222745 1220.45920962792502 14266.57470587941862 
	9627.920288304536371 1205.723961123901972 14312.39945150560561 
	9594.545129684809581 1188.756346677043211 14354.29598445632655 
	9558.581224632120211 1170.472638069848927 14390.34991186639672 
	9520.9383724606123 1151.335368653444675 14420.70971076489514 
	9482.394069634210609 1131.739810264772586 14445.67389696786086 
	9445.206297150543833 1112.833899050539912 14464.49778621688893 
	9410.217239657280516 1095.045793706843597 14478.23158468637848 
	9367.250309872370053 1073.201813672322942 14491.14854780091446 
	9312.152575235642871 1045.190647378221684 14500.46604043215666 
	9245.28771081366358 1011.197183782849265 14500.46566563872148 
	9190.189909436825474 983.1859835586384406 14491.14874927700112 
	9147.222886075844144 961.3419559509484316 14478.23209918505199 
	9115.732827450659897 945.3327084822951747 14465.87138361580219 
	9090.250739520162824 932.3778563953931098 14453.39921765932195 
	9070.406273123506253 922.2891176855335971 14442.16089134305003 
	9050.9501979718043 912.3978334050211743 14430.09814544088476 
	9027.409685355960391 900.4300598135328073 14413.50494298604281 
	9000.566532592492877 886.7832552602841361 14391.28058281593258 
	8979.493553788337522 876.0699524813354628 14370.93674508638651 
	8963.483596735908577 867.9306419940148771 14353.63591511368577 
	8948.061364991996015 860.0901254854317131 14335.6757633349589 
	8929.926570626395915 850.8705678387213993 14312.03585079999903 
	8910.115382826286805 840.7987476520006567 14281.92291622905941 
	8892.36572356257966 831.7749890423491479 14250.23329324078622 
	8875.044303108616077 822.9689429863684609 14213.46785085994998 
	8859.196777814528104 814.9122112658999413 14171.29388005321016 
	8846.078146148271117 808.2428232124501619 14123.58341473369182 
	8839.463951642363099 804.8802293878213732 14086.87943499886205 
	8836.678678669764849 803.4642229961266366 14064.23671745958382 
	8835.80327022075835 803.0191736342499098 14055.98368685579953 
	8835.215563463681974 802.7203890868693179 14049.78521056634963 
	8834.696776920165576 802.4566429231130087 14043.57899806725254 
	8834.247003064292585 802.2279821559291122 14037.36601227546998 
	8833.92975116460002 802.0666942957536776 14032.18368480508434 
	8833.737928397127689 801.969173418094897 14028.55393792527502 
	8833.649575435607403 801.924255609511988 14026.73858774087785 
	8833.60125872790195 801.8996918530655194 14025.7011164765172 
	8832.452230922614035 801.3155370028094922 14000.28101239940224 
	8833.199983363092542 801.6956872596098265 13966.69374177242753 
	8838.269060727732722 804.2727581674619159 13921.32340078349444 
	8843.781948963553077 807.0754583176592405 13888.63574813331797 
	8852.416763626086322 811.4653162860594193 13852.48487473479872 
	8863.435780969708503 817.0672803096010739 13817.15916245998596 
	8881.223273871526544 826.1102731825394585 13771.42092723978567 
	8909.082373311517586 840.2735754013626774 13717.28687914178772 
	8946.140529371981756 859.1135908541302797 13665.15911933760071 
	8983.312544764508857 878.0114913127638374 13624.48756135695658 
	9018.109456100362877 895.7019113704034226 13593.35744833478566 
	9052.381087265146562 913.1252839655869593 13568.52639436960635 
	9085.154524515130106 929.7869889684285454 13549.09551327141344 
	9115.732959965655027 945.3327758517641541 13534.12891266794031 
	9147.223005228350303 961.3420165270928237 13521.76812943194636 
	9184.819179548268949 980.4555553657231712 13510.46656614650237 
	9228.711873535128689 1002.770185149794429 13502.10031373653328 
	9278.720158176120094 1028.193923283617096 13498.94997822194273 
	9328.728345955683835 1053.617612173793077 13502.10035341753974 
	9372.621169058662417 1075.932307599361593 13510.46652149205511 
	9410.217094486833957 1095.045719903741428 13521.76858287226059 
	9452.204379419681572 1116.391657776588318 13538.24841663151892 
	9492.366337269631913 1136.809616653714329 13559.94463389902921 
	9530.03041141787071 1155.957675121765533 13586.49528498588734 
	9561.347786543814436 1171.879131935412033 13612.42300446673107 
	9594.545170521700129 1188.756367438318421 13645.70376974609644 
	9627.920451394355041 1205.724044037131307 13687.60010174087438 
	9656.904411012048513 1220.459214513317875 13733.42502355682882 
	9681.132373912290859 1232.776481316564514 13782.60232451130469 
	9700.300009871261864 1242.521125844545168 13834.51340055063338 
	9714.165854051143469 1249.570389661431591 13888.50570161618816 
	9721.15725455296888 1253.124751440756427 13934.6676604692766 
	9723.609742822991393 1254.371573242617615 13967.28967526920678 
	9724.223352422852258 1254.683526549920316 13983.6392568958272 
	9724.376759154971296 1254.761517079172336 13991.81888026557499 
	9724.415115938847521 1254.781017304708485 13995.90929430294455 
	9724.424704590835972 1254.785892084536954 13997.95457693570097 
	9724.427444302933509 1254.787284928212557 13999.12332059994151 
	9724.427900956483427 1254.787517086549997 13999.7076942393287 
	9724.427900951559423 1254.78751708404684 13999.99988105639568 
	9769.013216380035374 1165.249738583665021 13999.99988105639568 
	9769.013216071767602 1165.249739032860816 14002.33737559292967 
	9768.984533918292072 1165.233930544530267 14007.01236432989208 
	9768.812466582561683 1165.139111650344375 14016.36050431717922 
	9768.210271706944695 1164.807247316937037 14032.71008739802892 
	9765.803326583716625 1163.480836259998568 14065.33208009508417 
	9758.942011074224865 1159.699694844223131 14111.49407372541282 
	9747.601655231892437 1153.450251693554037 14156.48751351055034 
	9735.928406224946229 1147.017344742590012 14191.44193233797523 
	9722.559589026868707 1139.650059220386765 14225.59355261419478 
	9702.745100420421295 1128.730679076294336 14266.57470587941862 
	9674.299853170878123 1113.055063443177232 14312.39945150560561 
	9641.545201239590824 1095.004611597737039 14354.29598445632655 
	9606.249930509209662 1075.554078742458842 14390.34991186639672 
	9569.306927061204988 1055.1955132703049 14420.70971076489514 
	9531.479232351339306 1034.349412247411919 14445.67389696786086 
	9494.982848704496064 1014.236968205377366 14464.49778621688893 
	9460.644301908250782 995.3136658943774364 14478.23158468637848 
	9418.476204675071131 972.0756545329873006 14491.14854780091446 
	9364.402839726604725 942.276875262122644 14500.46604043215666 
	9298.781113162513066 906.1140294679912586 14500.46566563872148 
	9244.707681170510114 876.3152167965248509 14491.14874927700112 
	9202.539490534993092 853.07715755878246 14478.23209918505199 
	9171.634891361596601 836.0462331258687527 14465.87138361580219 
	9146.626560334440001 822.2646346036250407 14453.39921765932195 
	9127.151039023448902 811.5320550710565612 14442.16089134305003 
	9108.056687708069148 801.0095316673813386 14430.09814544088476 
	9084.95383571790444 788.2780027414191863 14413.50494298604281 
	9058.609745718935301 773.760290854366076 14391.28058281593258 
	9037.928552148259769 762.3632892355360582 14370.93674508638651 
	9022.216248674476446 753.7045477206644364 14353.63591511368577 
	9007.080744928100103 745.3636662607659673 14335.6757633349589 
	8989.283108802712377 735.5557385633474041 14312.03585079999903 
	8969.840246991851018 724.8411579302737664 14281.92291622905941 
	8952.420586476153403 715.2415231979509826 14250.23329324078622 
	8935.42120228760723 705.8734962344486803 14213.46785085994998 
	8919.8683123727169 697.3026005033657384 14171.29388005321016 
	8906.993579539241182 690.2075880649956616 14123.58341473369182 
	8900.502356807130127 686.6303979465358225 14086.87943499886205 
	8897.768862938586608 685.1240325766386832 14064.23671745958382 
	8896.9097316255029 684.6505782163175127 14055.98368685579953 
	8896.332950366133446 684.3327277382454668 14049.78521056634963 
	8895.823809698928017 684.0521486929014827 14043.57899806725254 
	8895.38239728105691 683.8088964991569583 14037.36601227546998 
	8895.071044466760213 683.6373142289418183 14032.18368480508434 
	8894.882786979158482 683.5335716320778374 14028.55393792527502 
	8894.796078091776508 683.4857847730952471 14026.73858774087785 
	8894.748657570855357 683.4596570938338118 14025.7011164765172 
	8893.621009489335847 682.8381927916420864 14000.28101239940224 
	8894.354849175791969 683.2426219976513266 13966.69374177242753 
	8899.329686495959322 685.9841498670477904 13921.32340078349444 
	8904.740078372016796 688.9657149572028629 13888.63574813331797 
	8913.214357578939598 693.635721066422775 13852.48487473479872 
	8924.028507991308288 699.5951954585492558 13817.15916245998596 
	8941.485304559886572 709.2152818002241474 13771.42092723978567 
	8968.826447292391094 724.2824629040965192 13717.28687914178772 
	9005.195626904975143 744.3248013590271057 13665.15911933760071 
	9041.67654370742639 764.4287281399888343 13624.48756135695658 
	9075.826520689752215 783.2481041387627556 13593.35744833478566 
	9109.46097726291373 801.7834010533606488 13568.52639436960635 
	9141.625097539847047 819.5084164415703754 13549.09551327141344 
	9171.635023078413724 836.0463018882275037 13534.12891266794031 
	9202.53961099566186 853.0772158520708217 13521.76812943194636 
	9239.436803231861632 873.4105383856893923 13510.46656614650237 
	9282.513452196108119 897.1492367348125754 13502.10031373653328 
	9331.591990878539946 924.1954613202137807 13498.94997822194273 
	9380.670435711119353 951.2416314065128518 13502.10035341753974 
	9423.74721006424079 974.9804019014914047 13510.46652149205511 
	9460.644158756562319 995.3135885683685729 13521.76858287226059 
	9501.850820490957631 1018.021780884613236 13538.24841663151892 
	9541.266099736099932 1039.742757977446217 13559.94463389902921 
	9578.22993272304484 1060.1127973388584 13586.49528498588734 
	9608.965057692606933 1077.050330620988234 13612.42300446673107 
	9641.545243049344208 1095.004630661285546 13645.70376974609644 
	9674.30001529762194 1113.055148037054551 13687.60010174087438 
	9702.745111008967797 1128.73068225372981 13733.42502355682882 
	9726.522629945879089 1141.834012412208494 13782.60232451130469 
	9745.333908089391116 1152.20053189664668 13834.51340055063338 
	9758.941959519817829 1159.69966617487421 13888.50570161618816 
	9765.80337526974472 1163.480862496394366 13934.6676604692766 
	9768.210271467587518 1164.8072463751123 13967.28967526920678 
	9768.812469556709402 1165.139113747534566 13983.6392568958272 
	9768.963026182716931 1165.222077956435214 13991.81888026557499 
	9769.000668785942253 1165.242824488469978 13995.90929430294455 
	9769.010079601370308 1165.248009608351595 13997.95457693570097 
	9769.01276834661985 1165.249491393548851 13999.12332059994151 
	9769.013216418568845 1165.249738527515547 13999.7076942393287 
	9769.013216380035374 1165.249738583665021 13999.99988105639568 
	9813.598527930984346 1075.711966849940382 13999.99988105639568 
	9813.598528162676303 1075.711966356859875 14002.33737559292967 
	9813.570387367670264 1075.695213151561575 14007.01236432989208 
	9813.401583172884784 1075.594699796513851 14016.36050431717922 
	9812.810790669171183 1075.242937346038161 14032.71008739802892 
	9810.449450812993746 1073.836941186054673 14065.33208009508417 
	9803.71811221905773 1069.828978903171901 14111.49407372541282 
	9792.592592778188191 1063.204627803209632 14156.48751351055034 
	9781.140475388416235 1056.385827211542619 14191.44193233797523 
	9768.024924403825935 1048.57657042154483 14225.59355261419478 
	9748.585799311778828 1037.002148746025568 14266.57470587941862 
	9720.679422723162133 1020.38615758509593 14312.39945150560561 
	9688.54527237376351 1001.25287725244857 14354.29598445632655 
	9653.918636490971039 980.6355192324201653 14390.34991186639672 
	9617.675483142844314 959.0556553026234496 14420.70971076489514 
	9580.56439857528494 936.9590081103640387 14445.67389696786086 
	9544.759402520870935 915.6400334121038895 14464.49778621688893 
	9511.071365247826179 895.5815361822111527 14478.23158468637848 
	9469.702103357365559 870.9494886234305113 14491.14854780091446 
	9416.653100748082579 839.3631092005804248 14500.46604043215666 
	9352.274517307867427 801.0308720180838691 14500.46566563872148 
	9299.22545198437183 769.4444516395805067 14491.14874927700112 
	9257.85610156335315 744.8123477027822901 14478.23209918505199 
	9227.536956118156013 726.7597562937583007 14465.87138361580219 
	9203.002386562791798 712.1514033638362662 14453.39921765932195 
	9183.895809401934457 700.774984641140918 14442.16089134305003 
	9165.163182033464182 689.6212219213176695 14430.09814544088476 
	9142.49799180633272 676.1259356761087247 14413.50494298604281 
	9116.652965579449301 660.7373146969152913 14391.28058281593258 
	9096.363556712865829 648.6566151620376104 14370.93674508638651 
	9080.948908865297199 639.4784390464302533 14353.63591511368577 
	9066.100131255556335 630.6371958826422315 14335.6757633349589 
	9048.639655220364148 620.2408949061374415 14312.03585079999903 
	9029.565119623319333 608.8835534348143028 14281.92291622905941 
	9012.475457093200021 598.7080439103290246 14250.23329324078622 
	8995.79811063710622 588.7780334791967789 14213.46785085994998 
	8980.539853040671005 579.6929790787581851 14171.29388005321016 
	8967.909020310111373 572.1723400389730614 14123.58341473369182 
	8961.540763798195258 568.3805633181907524 14086.87943499886205 
	8958.859061614015445 566.7838170163669247 14064.23671745958382 
	8958.016202341537792 566.2819665493725552 14055.98368685579953 
	8957.450349703838583 565.9450446890257354 14049.78521056634963 
	8956.950852844205656 565.6476363722198357 14043.57899806725254 
	8956.517803895847464 565.3897892067557223 14037.36601227546998 
	8956.21234778267717 565.207916687251668 14032.18368480508434 
	8956.027658739199978 565.09794684928886 14028.55393792527502 
	8955.942589630967632 565.0472984350277557 14026.73858774087785 
	8955.896071623268654 565.0195957927755899 14025.7011164765172 
	8954.789751653204803 564.3609121065586578 14000.28101239940224 
	8955.509710608321257 564.7895643794549869 13966.69374177242753 
	8960.390297875270335 567.6955666765160231 13921.32340078349444 
	8965.698198571399189 570.8559876673733697 13888.63574813331797 
	8974.011937895013034 575.8061496441281406 13852.48487473479872 
	8984.621231364511914 582.1231169742540033 13817.15916245998596 
	9001.747314929230924 592.3203258763270469 13771.42092723978567 
	9028.570516878267881 608.2913580764698054 13717.28687914178772 
	9064.250713536670446 629.5360308876182671 13665.15911933760071 
	9100.040541112221035 650.8459676513712111 13624.48756135695658 
	9133.543572925456829 670.7943184653586286 13593.35744833478566 
	9166.54086255099719 690.4415263599312311 13568.52639436960635 
	9198.095663103935294 709.2298569341458006 13549.09551327141344 
	9227.53708204022405 726.7598351684484896 13534.12891266794031 
	9257.856212761884308 744.8124221592954655 13521.76812943194636 
	9294.054425097518106 766.3655245781083067 13510.46656614650237 
	9336.315028732880819 791.5282920267507052 13502.10031373653328 
	9384.463824051805204 820.1969985351480545 13498.94997822194273 
	9432.612524900256176 848.8656516274728574 13502.10035341753974 
	9474.873254177455237 874.0284907805379362 13510.46652149205511 
	9511.071226155534532 895.5814517722033088 13521.76858287226059 
	9551.497273986853543 919.6518823106125637 13538.24841663151892 
	9590.165858606649635 942.6759055763794777 13559.94463389902921 
	9626.429442703749373 964.2679393181308569 13586.49528498588734 
	9656.58232685659641 982.2215327702227796 13612.42300446673107 
	9688.54530996005451 1001.252903686287596 13645.70376974609644 
	9720.679577679660724 1020.386254691664021 13687.60010174087438 
	9748.585807406907406 1037.002156274678327 13733.42502355682882 
	9771.912888397479037 1050.891539288231343 13782.60232451130469 
	9790.367798382099863 1061.879951779307021 13834.51340055063338 
	9803.718061418185243 1069.828948918838705 13888.50570161618816 
	9810.449498064666841 1073.836969925520407 13934.6676604692766 
	9812.810789735569415 1075.242937615720393 13967.28967526920678 
	9813.401586486001179 1075.594701302175963 13983.6392568958272 
	9813.549286992560155 1075.682649684509443 13991.81888026557499 
	9813.586218589667624 1075.704636983210094 13995.90929430294455 
	9813.595450266700936 1075.71013471495371 13997.95457693570097 
	9813.598088136937804 1075.7117052814217 13999.12332059994151 
	9813.598527902022397 1075.711966911575473 13999.7076942393287 
	9813.598527930984346 1075.711966849940382 13999.99988105639568 
	9858.183843359460298 986.174188349559131 13999.99988105639568 
	9858.183843322271059 986.1741883256996744 14002.33737559292967 
	9858.156246909835318 986.1564851261173317 14007.01236432989208 
	9857.990700566411761 986.0502865409854394 14016.36050431717922 
	9857.411318949822089 985.6786111136472073 14032.71008739802892 
	9855.095572188709411 984.1930510917865149 14065.33208009508417 
	9848.494216596318438 979.9582573212264833 14111.49407372541282 
	9837.583526872967923 972.9590099360337945 14156.48751351055034 
	9826.352551257130472 965.7542979792414144 14191.44193233797523 
	9813.490255881659323 957.5030884269872331 14225.59355261419478 
	9794.426498329974493 945.2736181943954534 14266.57470587941862 
	9767.058987589503886 927.7172599043716446 14312.39945150560561 
	9735.545343928544753 907.5011421731430801 14354.29598445632655 
	9701.58734236806049 885.7169599050305351 14390.34991186639672 
	9666.044037743437002 862.9157999194843569 14420.70971076489514 
	9629.649561292413637 839.5686100930038265 14445.67389696786086 
	9594.535954074823167 817.043102566941684 14464.49778621688893 
	9561.498427498796445 795.8494083697456745 14478.23158468637848 
	9520.927998160066636 769.8233294840949839 14491.14854780091446 
	9468.903365239044433 736.4493370844822948 14500.46604043215666 
	9405.767919656716913 695.9477177032258624 14500.46566563872148 
	9353.74322371805647 662.5736848774675991 14491.14874927700112 
	9313.172706022502098 636.5475493106165459 14478.23209918505199 
	9283.439020029092717 617.4732809373323335 14465.87138361580219 
	9259.378207377068975 602.0381815720685381 14453.39921765932195 
	9240.640575301877107 590.017922026664337 14442.16089134305003 
	9222.26967176972903 578.2329201836780612 14430.09814544088476 
	9200.042142168276769 563.9738786039953311 14413.50494298604281 
	9174.696178705891725 547.714350290997686 14391.28058281593258 
	9154.798555072788076 534.9499519162385468 14370.93674508638651 
	9139.681560803865068 525.2523447730800399 14353.63591511368577 
	9125.119511191660422 515.9107366579768268 14335.6757633349589 
	9107.99619339668061 504.9260656307637305 14312.03585079999903 
	9089.289983788883546 492.9259637130878104 14281.92291622905941 
	9072.530320006773763 482.1745780659310299 14250.23329324078622 
	9056.175009816097372 471.6825867272772257 14213.46785085994998 
	9041.211387598859801 462.0833683162243801 14171.29388005321016 
	9028.824453701081438 454.1371048915185611 14123.58341473369182 
	9022.579168962962285 450.1307318769056565 14086.87943499886205 
	9019.949245882837204 448.4436265968791986 14064.23671745958382 
	9019.122663746282342 447.9133711314403854 14055.98368685579953 
	9018.567736606290055 447.5573833404022821 14049.78521056634963 
	9018.077885622968097 447.2431421420084803 14043.57899806725254 
	9017.65319811261179 446.9707035499840799 14037.36601227546998 
	9017.353641084837363 446.7785366204400361 14032.18368480508434 
	9017.172517321230771 446.6623450632720846 14028.55393792527502 
	9017.089092287134918 446.6088275986113558 14026.73858774087785 
	9017.043470466222061 446.5795610335441097 14025.7011164765172 
	9015.958530219926615 445.8835678953918205 14000.28101239940224 
	9016.664576421020683 446.3364991174964302 13966.69374177242753 
	9021.450923643496935 449.4069583761024091 13921.32340078349444 
	9026.656327979862908 452.7462443069169922 13888.63574813331797 
	9034.80953184786631 457.9765544244918942 13852.48487473479872 
	9045.213958386111699 464.6510321232023557 13817.15916245998596 
	9062.009345617590952 475.4253344940121337 13771.42092723978567 
	9088.31459085914139 492.3002455792038177 13717.28687914178772 
	9123.305811069662013 514.7472413925153205 13665.15911933760071 
	9158.404540055138568 537.2632044785964354 13624.48756135695658 
	9191.260637514846167 558.3405112337183027 13593.35744833478566 
	9223.620752548762539 579.0996434477053754 13568.52639436960635 
	9254.566236128652235 598.9512844072879716 13549.09551327141344 
	9283.439145152982746 617.4733612049122939 13534.12891266794031 
	9313.172818529195865 636.5476214842738045 13521.76812943194636 
	9348.67204878110897 659.3205075980750962 13510.46656614650237 
	9390.116607393860249 685.907343611769079 13502.10031373653328 
	9437.335656754225056 716.1985365717451941 13498.94997822194273 
	9484.554614655691694 746.4896708601932005 13502.10035341753974 
	9525.99929518303361 773.0765850826682026 13510.46652149205511 
	9561.498290425262894 795.8493204368311353 13521.76858287226059 
	9601.143715058129601 821.2820054186379366 13538.24841663151892 
	9639.065621073117654 845.6090469001119345 13559.94463389902921 
	9674.628964008923504 868.4230615352240648 13586.49528498588734 
	9704.199598005388907 887.3927314557995487 13612.42300446673107 
	9735.545382487698589 907.501166909255403 13645.70376974609644 
	9767.059141582927623 927.7173586915876058 13687.60010174087438 
	9794.42650740382669 945.2736240150911726 13733.42502355682882 
	9817.303144431067267 959.9490703838757781 13782.60232451130469 
	9835.401696600230935 971.559357831409443 13834.51340055063338 
	9848.494166886859603 979.9582254322816652 13888.50570161618816 
	9855.095618781442681 984.1930809811591416 13934.6676604692766 
	9857.41131838016554 985.678610748215533 13967.28967526920678 
	9857.990703619858323 986.0502884997910087 13983.6392568958272 
	9858.13555402030579 986.1432105617728894 13991.81888026557499 
	9858.171771436762356 986.1664441669721555 13995.90929430294455 
	9858.180825277235272 986.172252238769147 13997.95457693570097 
	9858.183412180624146 986.1739117467585629 13999.12332059994151 
	9858.183843364107815 986.1741883525415915 13999.7076942393287 
	9858.183843359460298 986.174188349559131 13999.99988105639568 
	0 
	
	0 
	0 
	85 0 0.002232142857142857019 0.004464285714285714038 0.008928571428571428076 0.01785714285714285615 0.0357142857142857123 0.05357142857142856845 0.0625 0.07142857142857142461 0.08928571428571427382 0.1071428571428571369 0.125 0.1428571428571428492 0.1587301587301587213 0.1746031746031745935 0.1904761904761904656 0.2023809523809523836 0.2142857142857142738 0.238095238095238082 0.2619047619047618625 0.2857142857142856984 0.2976190476190476164 0.3095238095238095344 0.3214285714285713969 0.3273809523809523281 0.3333333333333333148 0.3452380952380952328 0.3571428571428570953 0.3690476190476190133 0.375 0.3809523809523809312 0.3928571428571428492 0.4047619047619047672 0.4166666666666666297 0.4285714285714285476 0.4444444444444444198 0.4603174603174602919 0.476190476190476164 0.4801587301587301182 0.4821428571428570953 0.4841269841269840724 0.4861111111111110494 0.4880952380952380265 0.4900793650793650036 0.4910714285714284921 0.4915674603174602364 0.491815476190476164 0.4920634920634920362 0.5158730158730158166 0.5238095238095237249 0.5357142857142855874 0.5476190476190475609 0.5595238095238095344 0.5714285714285713969 0.5952380952380951218 0.6190476190476189577 0.6349206349206348854 0.650793650793650702 0.6666666666666666297 0.6785714285714286031 0.6904761904761904656 0.7023809523809523281 0.7142857142857141906 0.7321428571428569843 0.749999999999999889 0.7678571428571427937 0.7857142857142855874 0.7976190476190474499 0.8095238095238094234 0.8333333333333332593 0.8452380952380951218 0.8571428571428570953 0.875 0.8928571428571427937 0.9107142857142856984 0.9285714285714286031 0.9464285714285713969 0.9642857142857143016 0.9821428571428572063 0.9910714285714286031 0.9955357142857143016 0.9977678571428572063 0.9988839285714286031 0.9994419642857143016 0.9997209821428572063 
	0 
	0 
	0 
	F 1 F 0 F 1 F 0 } I I I I #
tcoedge-coedge $-1 -1 $-1 $13 $13 $17 $18 reversed $8 $19 -6.283185307179586232 -0 #
tcoedge-coedge $-1 -1 $-1 $20 $21 $10 $15 reversed $11 $22 -6.283185307179586232 -0 #
tedge-edge $-1 -1 $-1 $23 0 $23 6.283185307179586232 $14 $24 forward @7 unknown 0.0006476905130391721541 #
pcurve $-1 -1 $-1 0 forward { exppc nurbs 2 periodic 5 
	0 2 1.570796326794896558 2 3.141592653589793116 2 4.712388980384689674 2 6.283185307179586232 2 
	0 500 1 
	-500 500 0.7071067811865450192 
	-500 0 1 
	-500 -500 0.7071067811865452413 
	0 -500 1 
	500 -500 0.7071067811865450192 
	500 0 1 
	500 500 0.7071067811865451302 
	0 500 1 
	0 
	plane 9437.335628935699788 716.1985187256846075 14000.00000000000182 0.5399512509335044896 -0.8416962911973318029 0 0 0 -1 forward_v I I I I 
	} 0 0 #
tcoedge-coedge $-1 -1 $-1 $21 $20 $13 $18 forward $11 $25 0 6.283185307179586232 #
tedge-edge $-1 -1 $-1 $26 0 $26 6.283185307179586232 $17 $27 forward @7 unknown 0.0006476905453902337623 #
pcurve $-1 -1 $-1 0 forward { exppc nurbs 2 periodic 5 
	-6.283185307179586232 2 -4.712388980384689674 2 -3.141592653589793116 2 -1.570796326794896558 2 0 2 
	0 499.999999999998181 1 
	500 499.999999999998181 0.7071067811865461294 
	500 0 1 
	500 -500.000000000001819 0.7071067811865461294 
	0 -500.000000000001819 1 
	-500 -500.000000000001819 0.7071067811865464625 
	-500 0 1 
	-500 499.999999999998181 0.7071067811865461294 
	0 499.999999999998181 1 
	0 
	plane 9278.72012871429979 1028.193908305248442 14000.00000000000182 -0.4531871434353523242 0.8914153986918249561 -0 0 0 -1 reverse_v I I I I 
	} 0 0 #
coedge $-1 -1 $-1 $17 $14 $21 $28 reversed $11 $29 #
coedge $-1 -1 $-1 $14 $17 $20 $28 forward $11 $30 #
pcurve $-1 -1 $-1 0 forward { exppc nubs 1 periodic 2 
	-6.283185307179586232 1 -0 1 
	1 1 
	0 1 
	2.612025289416438775e-12 
	spline forward { ref 0 } I I I I 
	} 0 0 #
tvertex-vertex $-1 -1 $-1 $15 $31 0.0001443410180340980924 #
ellipse-curve $-1 -1 $-1 9437.335628935699788 716.1985187256846075 14000.00000000000182 0.5399512509335044896 -0.8416962911973318029 0 420.8481455986659512 269.9756254667523194 0 1 I I #
pcurve $-1 -1 $-1 0 forward { exppc nubs 1 periodic 2 
	0 1 6.283185307179586232 1 
	0 0 
	1 0 
	9.967475397926717459e-12 
	spline forward { ref 0 } I I I I 
	} 0 0 #
tvertex-vertex $-1 -1 $-1 $18 $32 0.0001443407760905009911 #
ellipse-curve $-1 -1 $-1 9278.72012871429979 1028.193908305248442 14000.00000000000182 0.4531871434353523242 -0.8914153986918249561 0 445.7076993459125447 226.5935717176762125 0 1 I I #
edge $-1 -1 $-1 $26 2.281785128137201518e-09 $23 1 $21 $33 forward @7 tangent #
pcurve $-1 -1 $-1 -1 $33 0 0 #
pcurve $-1 -1 $-1 1 $33 1 0 #
point $-1 -1 $-1 9858.183774534365511 986.1741441924364153 14000.00000000000182 #
point $-1 -1 $-1 9724.42782806021205 1254.787480022924456 14000.00000000000182 #
intcurve-curve $-1 -1 $-1 forward { parcur full nubs 3 open 2 
	0 3 1 3 
	9724.427900951559423 1254.78751708404684 13999.99988105639568 
	9769.013216380035374 1165.249738583665021 13999.99988105639568 
	9813.598527930984346 1075.711966849940382 13999.99988105639568 
	9858.183843359460298 986.174188349559131 13999.99988105639568 
	0 
	
	spline forward { ref 0 } I I I I 
	null_surface 
	nubs 1 open 2 
	0 1 1 1 
	0 0 
	0 1 
	
	nullbs 
	I I 
	0 
	0 
	0 
	surf1 } F 2.281785128137201518e-09 F 1 #
End-of-ACIS-data 