700 0 1 0           
4 LibG 20 ASM 224.0.1.65535 NT 24 Tue Jul 16 17:00:29 2019 
1000 9.999999999999999547e-07 1.000000000000000036e-10 
body $-1 -1 $-1 $1 $-1 $2 #
lump $-1 -1 $-1 $-1 $3 $0 #
transform $-1 -1 1 0 0 0 1 0 0 0 1 0 0 0 1 no_rotate no_reflect no_shear #
shell $-1 -1 $-1 $-1 $-1 $4 $-1 $1 #
face $-1 -1 $-1 $5 $6 $3 $-1 $7 forward single #
face $-1 -1 $-1 $8 $9 $3 $-1 $10 forward single #
loop $-1 -1 $-1 $-1 $11 $4 #
plane-surface $-1 -1 $-1 14075.00000000000546 -2275.029999999999291 17650 -1 4.530716538243341501e-30 1.751623080406021339e-46 5.338947149077553239e-44 0 304.8000000000000114 forward_v I I I I #
face $-1 -1 $-1 $12 $13 $3 $-1 $14 forward single #
loop $-1 -1 $-1 $-1 $15 $5 #
plane-surface $-1 -1 $-1 14125.00000000000364 -2325.029999999998381 17729.99999999999636 1.089469043690338949e-27 6.836527633599031502e-29 1 304.8000000000000114 0 -3.320701645168153448e-25 forward_v I I I I #
coedge $-1 -1 $-1 $16 $17 $18 $19 forward $6 $-1 #
face $-1 -1 $-1 $20 $21 $3 $-1 $22 forward single #
loop $-1 -1 $-1 $-1 $23 $8 #
plane-surface $-1 -1 $-1 14125 -2275.029999999998836 17650 -2.831697836402019372e-29 1 -2.888331793130058066e-29 0 8.803635305460417798e-27 304.8000000000000114 forward_v I I I I #
coedge $-1 -1 $-1 $24 $25 $26 $27 reversed $9 $-1 #
coedge $-1 -1 $-1 $28 $11 $29 $30 forward $6 $-1 #
coedge $-1 -1 $-1 $11 $28 $31 $32 reversed $6 $-1 #
coedge $-1 -1 $-1 $33 $34 $11 $19 reversed $35 $-1 #
edge $-1 -1 $-1 $36 0 $37 0.1640419947506561726 $11 $38 forward @7 unknown #
face $-1 -1 $-1 $39 $35 $3 $-1 $40 reversed single #
loop $-1 -1 $-1 $-1 $41 $12 #
plane-surface $-1 -1 $-1 14075.00000000000182 -2325.029999999999291 17650 -3.268588359732615038e-29 -1 -1.650475310360033181e-29 0 5.030648745977381189e-27 -304.8000000000000114 forward_v I I I I #
coedge $-1 -1 $-1 $31 $42 $33 $43 forward $13 $-1 #
coedge $-1 -1 $-1 $44 $15 $45 $46 reversed $9 $-1 #
coedge $-1 -1 $-1 $15 $44 $47 $48 reversed $9 $-1 #
coedge $-1 -1 $-1 $49 $50 $15 $27 forward $51 $-1 #
edge $-1 -1 $-1 $52 0 $53 0.1640419947506561726 $26 $54 forward @7 unknown #
coedge $-1 -1 $-1 $17 $16 $44 $55 forward $6 $-1 #
coedge $-1 -1 $-1 $41 $47 $16 $30 reversed $21 $-1 #
edge $-1 -1 $-1 $37 0 $56 0.2624671916010470341 $16 $57 forward @7 unknown #
coedge $-1 -1 $-1 $45 $23 $17 $32 forward $13 $-1 #
edge $-1 -1 $-1 $36 0 $58 0.2624671916010470341 $31 $59 forward @7 unknown #
coedge $-1 -1 $-1 $60 $18 $23 $43 reversed $35 $-1 #
coedge $-1 -1 $-1 $18 $60 $41 $61 reversed $35 $-1 #
loop $-1 -1 $-1 $-1 $34 $20 #
vertex $-1 -1 $-1 $43 $62 #
vertex $-1 -1 $-1 $19 $63 #
straight-curve $-1 -1 $-1 14074.99999999999818 -2275.029999999998836 17650 0 -304.8000000000000114 0 F 0 F 0.1640419947506561726 #
face $-1 -1 $-1 $-1 $51 $3 $-1 $64 forward single #
plane-surface $-1 -1 $-1 14125.00000000000364 -2325.029999999998381 17650.00000000000364 -6.56306652825505392e-28 -4.265993243365795765e-29 1 304.8000000000000114 0 2.000422677812140415e-25 forward_v I I I I #
coedge $-1 -1 $-1 $65 $29 $34 $61 forward $21 $-1 #
coedge $-1 -1 $-1 $23 $45 $50 $66 reversed $13 $-1 #
edge $-1 -1 $-1 $67 0 $36 0.1640419947506615017 $23 $68 forward @7 unknown #
coedge $-1 -1 $-1 $25 $24 $28 $55 reversed $9 $-1 #
coedge $-1 -1 $-1 $42 $31 $24 $46 forward $13 $-1 #
edge $-1 -1 $-1 $58 0 $52 0.1640419947506615017 $45 $69 forward @7 unknown #
coedge $-1 -1 $-1 $29 $65 $25 $48 forward $21 $-1 #
edge $-1 -1 $-1 $53 0 $56 0.1640419947506615017 $47 $70 forward @7 unknown #
coedge $-1 -1 $-1 $71 $26 $65 $72 forward $51 $-1 #
coedge $-1 -1 $-1 $26 $71 $42 $66 forward $51 $-1 #
loop $-1 -1 $-1 $-1 $71 $39 #
vertex $-1 -1 $-1 $66 $73 #
vertex $-1 -1 $-1 $27 $74 #
straight-curve $-1 -1 $-1 14125 -2275.029999999998836 17730 0 -304.8000000000000114 0 F 0 F 0.1640419947506561726 #
edge $-1 -1 $-1 $56 0 $58 0.1640419947506561726 $28 $75 forward @7 unknown #
vertex $-1 -1 $-1 $30 $76 #
straight-curve $-1 -1 $-1 14074.99999999999818 -2325.029999999998836 17650 0 0 304.8000000000000114 F 0 F 0.2624671916010470341 #
vertex $-1 -1 $-1 $32 $77 #
straight-curve $-1 -1 $-1 14074.99999999999818 -2275.029999999998836 17650 0 0 304.8000000000000114 F 0 F 0.2624671916010470341 #
coedge $-1 -1 $-1 $34 $33 $71 $78 reversed $35 $-1 #
edge $-1 -1 $-1 $37 0 $79 0.1640419947506615017 $41 $80 forward @7 unknown #
point $-1 -1 $-1 14074.99999999999818 -2275.029999999998836 17650 #
point $-1 -1 $-1 14074.99999999999818 -2325.029999999998836 17650 #
plane-surface $-1 -1 $-1 14124.99999999999454 -2325.029999999998381 17649.99999999999636 1 -8.090565246863118081e-30 1.313717310304516004e-46 4.004210361808165178e-44 0 -304.8000000000000114 forward_v I I I I #
coedge $-1 -1 $-1 $47 $41 $49 $72 reversed $21 $-1 #
edge $-1 -1 $-1 $67 0 $52 0.2624671916010470341 $50 $81 forward @7 unknown #
vertex $-1 -1 $-1 $78 $82 #
straight-curve $-1 -1 $-1 14125 -2275.029999999998836 17650 -304.8000000000000114 0 0 F 0 F 0.1640419947506615017 #
straight-curve $-1 -1 $-1 14074.99999999999818 -2275.029999999998836 17730 304.8000000000000114 0 0 F 0 F 0.1640419947506615017 #
straight-curve $-1 -1 $-1 14125 -2325.029999999998836 17730 -304.8000000000000114 0 0 F 0 F 0.1640419947506615017 #
coedge $-1 -1 $-1 $50 $49 $60 $78 forward $51 $-1 #
edge $-1 -1 $-1 $53 0 $79 0.2624671916010470341 $49 $83 forward @7 unknown #
point $-1 -1 $-1 14125 -2275.029999999998836 17730 #
point $-1 -1 $-1 14125 -2325.029999999998836 17730 #
straight-curve $-1 -1 $-1 14074.99999999999818 -2325.029999999998836 17730 0 304.8000000000000114 0 F 0 F 0.1640419947506561726 #
point $-1 -1 $-1 14074.99999999999818 -2325.029999999998836 17730 #
point $-1 -1 $-1 14074.99999999999818 -2275.029999999998836 17730 #
edge $-1 -1 $-1 $79 0 $67 0.1640419947506561726 $71 $84 forward @7 unknown #
vertex $-1 -1 $-1 $78 $85 #
straight-curve $-1 -1 $-1 14074.99999999999818 -2325.029999999998836 17650 304.8000000000000114 0 0 F 0 F 0.1640419947506615017 #
straight-curve $-1 -1 $-1 14125 -2275.029999999998836 17650 0 0 304.8000000000000114 F 0 F 0.2624671916010470341 #
point $-1 -1 $-1 14125 -2275.029999999998836 17650 #
straight-curve $-1 -1 $-1 14125 -2325.029999999998836 17730 0 0 -304.8000000000000114 F 0 F 0.2624671916010470341 #
straight-curve $-1 -1 $-1 14125 -2325.029999999998836 17650 0 304.8000000000000114 0 F 0 F 0.1640419947506561726 #
point $-1 -1 $-1 14125 -2325.029999999998836 17650 #
End-of-ACIS-data 