700 0 1 0           
4 LibG 20 ASM 224.0.1.65535 NT 24 Wed Jul 17 15:51:18 2019 
1000 9.999999999999999547e-07 1.000000000000000036e-10 
body $-1 -1 $-1 $1 $-1 $2 #
lump $-1 -1 $-1 $-1 $3 $0 #
transform $-1 -1 1 0 0 0 1 0 0 0 1 0 0 0 1 no_rotate no_reflect no_shear #
shell $-1 -1 $-1 $-1 $-1 $4 $-1 $1 #
face $-1 -1 $-1 $5 $6 $3 $-1 $7 forward single #
face $-1 -1 $-1 $8 $9 $3 $-1 $10 reversed single #
loop $-1 -1 $-1 $-1 $11 $4 #
plane-surface $-1 -1 $-1 9246.743120975370402 632.9132091131968991 13999.99999999999636 0.6213025945046596332 -0.7835707281807930968 1.559133774493090945e-14 2.509459622868833362e-14 0 -1 forward_v I I I I #
face $-1 -1 $-1 $-1 $12 $3 $-1 $13 forward single #
loop $-1 -1 $-1 $-1 $14 $5 #
plane-surface $-1 -1 $-1 9057.765165256558248 927.5101070065356907 14000.00000000000364 0.539937016348183918 -0.841705422566007333 -2.078845032657451858e-14 -3.850162092455775282e-14 0 -1 forward_v I I I I #
tcoedge-coedge $-1 -1 $-1 $11 $11 $15 $16 forward $6 $17 -3.846389848441805489e-29 6.283185307179586232 #
loop $-1 -1 $-1 $-1 $18 $8 #
spline-surface $-1 -1 $-1 forward { exactsur full nubs 3 3 periodic open none none 84 2 
	-4.898210214556049953e-30 3 0.002232142857142857019 1 0.004464285714285714038 1 0.008928571428571428076 1 0.01785714285714285615 1 
	0.0357142857142857123 1 0.05357142857142856845 1 0.0625 1 0.0669642857142857123 1 0.07142857142857142461 1 
	0.08928571428571427382 1 0.1071428571428571369 1 0.125 1 0.1428571428571428492 1 0.1587301587301587213 1 
	0.1746031746031745935 1 0.1825396825396825295 1 0.1904761904761904656 1 0.2023809523809523836 1 0.2142857142857142738 1 
	0.238095238095238082 1 0.2619047619047618625 1 0.2857142857142856984 1 0.3095238095238095344 1 0.3333333333333333148 1 
	0.3340773809523809312 1 0.3348214285714286031 1 0.336309523809523836 1 0.3377976190476190688 1 0.3392857142857143016 1 
	0.3452380952380952328 1 0.3571428571428570953 1 0.3690476190476190133 1 0.3720238095238095344 1 0.375 1 
	0.3779761904761904656 1 0.3809523809523809312 1 0.4047619047619047672 1 0.4166666666666666297 1 0.4285714285714285476 1 
	0.4444444444444444198 1 0.4603174603174602919 1 0.4682539682539682557 1 0.476190476190476164 1 0.4920634920634920362 1 
	0.5079365079365079083 1 0.5238095238095237249 1 0.5357142857142855874 1 0.5476190476190475609 1 0.5595238095238095344 1 
	0.5714285714285713969 1 0.5952380952380951218 1 0.6071428571428569843 1 0.6190476190476189577 1 0.6349206349206348854 1 
	0.650793650793650702 1 0.6666666666666666297 1 0.6785714285714286031 1 0.6904761904761904656 1 0.7023809523809523281 1 
	0.7142857142857141906 1 0.7232142857142855874 1 0.7321428571428569843 1 0.749999999999999889 1 0.7678571428571427937 1 
	0.7857142857142855874 1 0.7976190476190474499 1 0.8095238095238094234 1 0.8333333333333332593 1 0.8571428571428570953 1 
	0.875 1 0.8928571428571427937 1 0.9107142857142856984 1 0.9285714285714286031 1 0.9464285714285713969 1 
	0.9642857142857143016 1 0.9821428571428572063 1 0.9910714285714286031 1 0.9955357142857143016 1 0.9977678571428572063 1 
	0.9988839285714286031 1 0.9994419642857143016 1 0.9997209821428572063 1 1 3 
	0 3 1 3 
	9478.617924907812267 1197.478646260467713 13999.99990322068516 
	9478.617924887363188 1197.478646247343931 14002.33739775477989 
	9478.590328417141791 1197.460943669296284 14007.01238650835148 
	9478.424780313254814 1197.354747906490275 14016.36052636933346 
	9477.845394242247494 1196.983083451518723 14032.71011008105052 
	9475.529620942699694 1195.497561682928563 14065.33209966780123 
	9468.928222574379106 1191.262898047429871 14111.49410818350952 
	9458.017388745916833 1184.263818665801409 14156.48752479727773 
	9448.190226056047322 1177.959892421107043 14187.07267400667479 
	9441.962875581286426 1173.96517295592048 14204.24879867499294 
	9432.017469501894084 1167.585395968038938 14229.69169830064311 
	9414.859865988322781 1156.579140091916543 14266.57468389793758 
	9387.492130450298646 1139.023290886709219 14312.39951612332516 
	9355.978061478243035 1118.80765258687893 14354.29591886758681 
	9322.01965440256572 1097.024020798645779 14390.34980377446118 
	9286.476074918771701 1074.223532949568835 14420.70973017275173 
	9256.146983958762576 1054.768034098164662 14441.51320002850844 
	9230.928133069583055 1038.590650965943041 14455.94151303830586 
	9208.359600462496019 1024.113393444423082 14467.24451793019216 
	9181.929323860420482 1007.158905202409983 14478.23161904080189 
	9141.35845291806254 981.1335114949454237 14491.14850737439701 
	9089.333233569943332 947.7603847960651819 14500.46617390459869 
	9026.197226838588904 907.2599125570091019 14500.4653931139419 
	8963.766648366050504 867.2119582886166427 14489.28611432400612 
	8903.435710563171597 828.5108810728186199 14467.17644748995554 
	8864.920930941680126 803.8044283907403269 14445.14066583508429 
	8845.636351067294527 791.4337601737485102 14431.84100987145212 
	8843.373741496232469 789.9823418649142468 14430.2637971163058 
	8840.557172129116225 788.1755695433221263 14428.26873011415955 
	8837.196271092259849 786.0196194574206174 14425.8372233215614 
	8830.513042447153566 781.7324633604316659 14420.89973886403459 
	8816.244733618379541 772.5796316322506527 14409.80095420090765 
	8795.122858355531207 759.030375558292576 14391.28068237881416 
	8777.214801629404974 747.5427191191320162 14372.97123298735642 
	8765.776807814107087 740.2054772669579279 14360.12381743871811 
	8760.159872577078204 736.6023268397432275 14353.57422675358248 
	8754.647071466737543 733.0659763500810868 14346.90093055777834 
	8736.623903802554196 721.5044785708512336 14324.25273079852559 
	8715.301959326314318 707.8268821400912429 14292.48662124785915 
	8692.956239470146102 693.4925544954465977 14250.23308037530114 
	8676.60043775577833 683.0006382727847267 14213.46795752796243 
	8661.636781832814449 673.4017554378303885 14171.29384780948931 
	8651.314386798729174 666.7801476557237947 14131.5351407889666 
	8645.086115512391189 662.7848375089730553 14099.11412445206224 
	8640.225354063470149 659.6667572833364375 14066.36469262623541 
	8636.738199810732112 657.4298183112809966 14024.96430582854919 
	8636.738410320975163 657.4299533493702938 13975.03571659676527 
	8640.573904492754082 659.8903453391000085 13929.4952601048044 
	8647.081490887087057 664.0648304823165518 13888.63578499671712 
	8655.234441453460022 669.294783486422034 13852.48482765788867 
	8665.639282135571193 675.9692784854531737 13817.15928652862021 
	8682.434346829944843 686.7429730316542873 13771.42062820370302 
	8703.47949224758122 700.2430084608470224 13728.1141692342826 
	8728.422618248529034 716.243519649818154 13687.96450896654278 
	8751.25339295890808 730.88900017983201 13656.44420287875982 
	8778.830851928822085 748.5793827245153125 13624.48738500247055 
	8811.687501815011274 769.6562595407058325 13593.3575473419005 
	8844.047831342444624 790.4147568783041606 13568.52628198636557 
	8874.993689442524555 810.2658993841251913 13549.0953902825313 
	8903.866918919793534 828.787492519315947 13534.12884927153209 
	8933.600904633582104 847.8612433833054638 13521.76788227047655 
	8961.493533988244963 865.7538013596063138 13512.88848286514076 
	8987.232710224529001 882.2649626851422227 13506.80597850278173 
	9018.415550762372732 902.268124634893752 13501.57540487721963 
	9057.765118173099836 927.5100768119011718 13498.9497656813619 
	9104.984649947849903 957.8004520636658299 13502.10040134160954 
	9146.429732086249714 984.3866345849219215 13510.46651629775261 
	9181.929250602024695 1007.158858211185134 13521.7683289350698 
	9221.574961925958632 1032.590780722114232 13538.24838464883214 
	9268.978352796228137 1062.999097867511182 13565.36800356539788 
	9316.795814329434506 1093.67303297558783 13604.10244979589879 
	9355.978023151481466 1118.807628001360627 13645.70390777797365 
	9387.492329034159411 1139.023418274597134 13687.60002782205811 
	9414.8598779078402 1156.579147738622623 13733.42506119108293 
	9437.736887107965231 1171.254286763864684 13782.60228659304266 
	9455.83542505895457 1182.864133064051885 13834.51347477062518 
	9468.928154489181907 1191.262854373555911 13888.50571538799159 
	9475.529650792914254 1195.497580831887262 13934.667690156557 
	9477.845391614513574 1196.983081766103851 13967.28969711964419 
	9478.42478235551971 1197.354749216671735 13983.63927935706488 
	9478.569635005507735 1197.447669264095339 13991.81890242693771 
	9478.605852818154744 1197.470902258933847 13995.90931647949037 
	9478.614906786642678 1197.47671019673453 13997.95459910075988 
	9478.617493721272695 1197.478369663017247 13999.12334276548427 
	9478.617924910367947 1197.478646262108214 13999.70771640392195 
	9478.617924907812267 1197.478646260467713 13999.99990322068516 
	9531.921461015068417 1112.8406100841446 13999.99990322068334 
	9531.921460711342661 1112.84061046749548 14002.33739775477807 
	9531.894500656353557 1112.822017159843199 14007.01238650834966 
	9531.732762029465448 1112.710489636000148 14016.36052636933164 
	9531.166717925550984 1112.320151704238924 14032.7101100810487 
	9528.904255660887429 1110.760015572893508 14065.33209966779941 
	9522.454840156473438 1106.312636041622909 14111.49410818350771 
	9511.795200911223219 1098.961983598348525 14156.48752479727591 
	9502.194286697891584 1092.341398974433559 14187.07267400667297 
	9496.110306022510485 1088.146018497091745 14204.24879867499112 
	9486.393865074858695 1081.445780887221417 14229.69169830064129 
	9469.631275691393967 1069.886661468665807 14266.57468389793576 
	9442.893615106393554 1051.448956542416681 14312.39951612332334 
	9412.105081816305756 1030.21785525854898 14354.29591886758499 
	9378.928483907762711 1007.339999864866172 14390.34980377445936 
	9344.20321142919056 983.3942058729842302 14420.70973017274991 
	9314.57237237746449 962.9614305291685241 14441.51320002850662 
	9289.934126297433977 945.9714303104291275 14455.94151303830404 
	9267.885178292683122 930.7669598566420746 14467.24451793019034 
	9242.063396547504453 912.9608194926001943 14478.23161904080007 
	9202.426569688128438 885.6281335108895973 14491.14850737439519 
	9151.599109495653465 850.5786177431094757 14500.46617390459687 
	9089.916653838259663 808.0437489227451806 14500.46539311394008 
	9028.923390439344075 765.9841220516990461 14489.2861143240043 
	8969.981422834796831 725.339035936834307 14467.17644748995372 
	8932.353358933451091 699.3915319687205283 14445.14066583508247 
	8913.512752976903357 686.3994758715076614 14431.8410098714503 
	8911.302235334469515 684.8751494664861639 14430.26379711630398 
	8908.550509996399342 682.9776211519497338 14428.26873011415773 
	8905.266986090395221 680.7133736877879073 14425.83722332155958 
	8898.737621874890465 676.2108682472683086 14420.89973886403277 
	8884.797807354390898 666.5982744166726661 14409.80095420090584 
	8864.162210676138784 652.3684206617717791 14391.28068237881234 
	8846.666445343880696 640.3037193445779849 14372.9712329873546 
	8835.491781581369651 632.5979195732909375 14360.12381743871629 
	8830.00416556908749 628.8137733809912788 14353.57422675358066 
	8824.618277965560992 625.0997941798161719 14346.90093055777652 
	8807.0100694151879 612.9575177697945492 14324.25273079852377 
	8786.178997636059648 598.5928937176802265 14292.48662124785733 
	8764.3477349873192 583.5385294656047108 14250.23308037529932 
	8748.368485069002418 572.5195896657899084 14213.46795752796061 
	8733.749331734394218 562.4385394680525678 14171.29384780948749 
	8723.664589640889972 555.4843115678658023 14131.53514078896478 
	8717.57970578644381 551.2883157304170254 14099.11412445206042 
	8712.830854971052759 548.0136048817876144 14066.36469262623359 
	8709.423980332812789 545.6643062023860011 14024.96430582854737 
	8709.424190844871191 545.6644412379334881 13975.03571659676345 
	8713.171377638231206 548.2484286292828983 13929.49526010480258 
	8719.529141040557079 552.6326067019055017 13888.6357849967153 
	8727.494393249309724 558.1252631664547152 13852.48482765788685 
	8737.659681841880229 565.1350363409396778 13817.1592865286184 
	8754.068085783899733 576.4499030047284123 13771.4206282037012 
	8774.628717373718246 590.6280661533842249 13728.11416923428078 
	8798.997582987285568 607.4323147478014562 13687.96450896654096 
	8821.302740320976227 622.8134517080372916 13656.44420287875801 
	8848.245289914446403 641.3924562543953698 13624.48738500246873 
	8880.345500258128595 663.5280492359883056 13593.35754734189868 
	8911.960806964449148 685.3292838446907354 13568.52628198636376 
	8942.194212981456076 706.1775774710432643 13549.09539028252948 
	8970.402705092785254 725.6295399953545484 13534.12884927153027 
	8999.452137888705693 745.66139418353157 13521.76788227047473 
	9026.702606883056433 764.452722670944695 13512.88848286513894 
	9051.849200387690871 781.7932654368777321 13506.80597850277991 
	9082.314132019233512 802.8012159013467226 13501.57540487721781 
	9120.757769927095069 829.3111110605796057 13498.94976568136008 
	9166.890186919594271 861.1230170215997077 13502.10040134160772 
	9207.381094527203459 889.0446664818513227 13510.46651629775079 
	9242.063324863331218 912.9607702980883914 13521.76832893506798 
	9280.796287387329357 939.6701801099106888 13538.24838464883032 
	9327.108333959529773 971.6059476138091213 13565.36800356539607 
	9373.824911222187438 1003.820685268521288 13604.10244979589697 
	9412.105049296997095 1030.217822544892442 13645.70390777797184 
	9442.893810316892996 1051.449088651674629 13687.60002782205629 
	9469.63128977517772 1069.886666086256582 13733.42506119108111 
	9491.981609552414739 1085.298961982371566 13782.60228659304084 
	9509.663472673961223 1097.491988236617999 13834.51347477062336 
	9522.454773977264267 1106.312589700119361 13888.50571538798977 
	9528.904284411211847 1110.760036261264077 13934.66769015655518 
	9531.166715879619005 1112.320149204532527 13967.28969711964237 
	9531.732763691987202 1112.710491477671667 13983.63927935706306 
	9531.874283755709257 1112.808075827731045 13991.81890242693589 
	9531.909666532774281 1112.832477542103561 13995.90931647948855 
	9531.918512557034774 1112.838576519573962 13997.95459910075806 
	9531.921039887598454 1112.840319407976267 13999.12334276548245 
	9531.921461053034363 1112.840610036225826 13999.70771640392013 
	9531.921461015068417 1112.8406100841446 13999.99990322068334 
	9585.224993977300983 1028.20257830992864 13999.9999032206706 
	9585.224994241545573 1028.202577898352047 14002.33739775476351 
	9585.198667382050189 1028.18309836745334 14007.01238650833511 
	9585.040743835197645 1028.06623124053408 14016.36052636931527 
	9584.488032685869257 1027.657232445922318 14032.71011008103596 
	9582.278893588536448 1026.0224649711854 14065.33209966778304 
	9575.98145604797719 1021.362376402228847 14111.49410818350043 
	9565.573014311616134 1013.660146802480199 14156.48752479726681 
	9556.198343099367776 1006.722911462800425 14187.07267400666569 
	9550.257731871739452 1002.32687046543856 14204.24879867498203 
	9540.770267418667572 995.3061563300943817 14229.6916983006322 
	9524.402686737586919 983.1941809657403155 14266.57468389792848 
	9498.295103990583812 963.8746162806023676 14312.39951612331606 
	9468.232104975595576 941.6280539817290673 14354.29591886757953 
	9435.837319289272273 917.6559707066660394 14390.3498037744539 
	9401.930347638312014 892.5648792181706312 14420.70973017274446 
	9372.997766650776612 871.1548187660994245 14441.51320002849934 
	9348.940120081822897 853.3522088760482802 14455.94151303829858 
	9327.410760497985393 837.4205201454932421 14467.24451793018488 
	9302.197468608996132 818.7627346584345105 14478.23161904079461 
	9263.494692099178792 790.1227476317430956 14491.14850737438792 
	9213.864978110725133 753.3968609222054056 14500.46617390459505 
	9153.636081835993537 708.8275838916190423 14500.46539311393826 
	9094.08012748217152 664.7562928554738164 14489.2861143240043 
	9036.527141229664267 622.1671822307505408 14467.1764474899519 
	8999.78577481521279 594.9786524959398548 14445.14066583508429 
	8981.389163442867357 581.3651795937643101 14431.84100987145212 
	8979.230735281094894 579.7679485187398996 14430.26379711630398 
	8976.543855976056875 577.7796614064769756 14428.26873011415591 
	8973.337707659717125 575.4071187211073948 14425.83722332155958 
	8966.962210108069485 570.6892608099817608 14420.89973886403277 
	8953.350886868067391 560.6169091146600749 14409.80095420090402 
	8933.201573287467909 545.7064513623250832 14391.28068237880871 
	8916.118094239378479 533.0647123186555518 14372.97123298735642 
	8905.206766796418378 524.9903458572607633 14360.12381743871265 
	8899.848461377900094 521.025215979839686 14353.57422675357884 
	8894.589503494826204 517.1335853744690212 14346.90093055777288 
	8877.396196241485086 504.410611254283026 14324.25273079852195 
	8857.056037664155156 489.3589028902714517 14292.48662124785369 
	8835.73922905208201 473.5845064685777288 14250.2330803752975 
	8820.13653386227088 462.0385389873313216 14213.46795752795697 
	8805.861881302860638 451.4753239645122562 14171.29384780948385 
	8796.014777862645133 444.1884959428037973 14131.53514078896114 
	8790.073291789231007 439.7917999299536973 14099.11412445205679 
	8785.436341532653387 436.3604725589482314 14066.36469262622995 
	8782.109757541536965 433.8987987308929632 14024.96430582854191 
	8782.109953510491323 433.8989541210325456 13975.03571659675617 
	8785.768846132312319 436.6065184295945301 13929.49526010479531 
	8791.976791209533985 441.2003828998043673 13888.63578499670984 
	8799.754334233506597 446.9557579785379744 13852.4848276578814 
	8809.680088135812184 454.3007849763775425 13817.15928652861294 
	8825.701816359001896 466.1568447048970825 13771.4206282036921 
	8845.777934894875216 481.0131344899061219 13728.11416923427532 
	8869.572555849785203 498.6210984757775009 13687.96450896653369 
	8891.352077840965649 514.7379170112767497 13656.44420287875255 
	8917.659733319578663 534.2055221991247436 13624.48738500246327 
	8949.003488075502901 557.3998538031326007 13593.35754734189686 
	8979.873785478586797 580.243806763259613 13568.52628198636012 
	9009.394735066249268 602.0892575932062982 13549.09539028252402 
	9036.938493096493403 622.4715849091430755 13534.12884927152663 
	9065.30337242400492 643.4615431920449282 13521.76788227047109 
	9091.911681163903268 663.1516420424154603 13512.8884828651353 
	9116.465693304793604 681.3215643342175554 13506.80597850277627 
	9146.212714311197487 703.3343057190998024 13501.57540487721235 
	9183.750425388459917 731.1121401204577523 13498.94976568135462 
	9228.795725427622529 764.4455798294018223 13502.10040134160226 
	9268.332463786351582 793.7026888360728663 13510.46651629774533 
	9302.197398835754939 818.7626827893857353 13521.76832893506253 
	9340.017619131544052 846.7495707042860431 13538.24838464882487 
	9385.238309049169402 880.2128058609184791 13565.36800356539243 
	9430.854010675553582 913.9683339777077435 13604.10244979589334 
	9468.232063488476342 941.6280338194616206 13645.7039077779682 
	9498.295292232014617 963.8747581438050247 13687.60002782204901 
	9524.402695669496097 983.1941927939217294 13733.42506119107384 
	9546.226330883975606 999.3436387586780256 13782.60228659303721 
	9563.491518483217078 1012.119845936751972 13834.51347477061609 
	9575.981390759050555 1021.3623288146905 13888.50571538798067 
	9582.278922476847583 1026.022485466431817 13934.66769015654245 
	9584.488029657790321 1027.657231320835535 13967.28969711963146 
	9585.04074611613396 1028.066232216672233 13983.63927935705033 
	9585.178926706659695 1028.168490508348896 13991.8189024269268 
	9585.213478072279031 1028.194055869895692 13995.90931647947764 
	9585.222114647816852 1028.20044799273478 13997.95459910074896 
	9585.22458251277385 1028.202274109461086 13999.12334276547153 
	9585.224993944271773 1028.202578361375799 13999.70771640390922 
	9585.224993977300983 1028.20257830992864 13999.9999032206706 
	9638.528530084557133 943.5645421336059826 13999.99990322066878 
	9638.528530065525047 943.5645421185041641 14002.3373977547617 
	9638.502839621261955 943.5441718580009365 14007.01238650833329 
	9638.348725551408279 943.4219729700447488 14016.36052636931345 
	9637.809356369172747 942.9943006986438832 14032.71011008103414 
	9635.653528306724183 941.2849188611519367 14065.33209966778122 
	9629.508073630069703 936.4121143964244993 14111.49410818349861 
	9619.350826476920702 928.3583117350307248 14156.487524797265 
	9610.202403741210219 921.1044180161305803 14187.07267400666387 
	9604.405162312959874 916.5077160066140323 14204.24879867498021 
	9595.146662991630365 909.1665412492812948 14229.69169830063038 
	9579.174096440654466 896.501702342494923 14266.57468389792666 
	9553.696588646675082 876.3002819363158551 14312.39951612331424 
	9524.359125313654658 853.0382566534058242 14354.29591886757771 
	9492.746148794463807 827.9719497728938222 14390.34980377445208 
	9459.657484148727235 801.7355521415939847 14420.70973017274264 
	9431.423155069473069 779.3482151971114718 14441.51320002849752 
	9407.946113309668362 760.7329882205431204 14455.94151303829676 
	9386.936338328167039 744.0740865577208751 14467.24451793018306 
	9362.331541296074647 724.5646489486339306 14478.23161904079279 
	9324.562808869239234 694.6173696476962505 14491.1485073743861 
	9276.13085403642981 656.215093869259249 14500.46617390459323 
	9217.355508835658839 609.6114202573644434 14500.46539311393644 
	9159.236869555459634 563.5284566185655422 14489.28611432400248 
	9103.072853501284044 518.9953370947748681 14467.17644748995008 
	9067.218202806978297 490.5657560739287533 14445.14066583508247 
	9049.26556535247073 476.3308952915316468 14431.8410098714503 
	9047.159229119326483 474.6607561203200021 14430.26379711630216 
	9044.537193843336354 472.5817130151126548 14428.2687301141541 
	9041.40842265784886 470.1008729514828701 14425.83722332155776 
	9035.186789535802745 465.1676656968263046 14420.89973886403095 
	9021.903960604073291 454.6355518990898759 14409.8009542009022 
	9002.240925608071848 439.044496465811676 14391.28068237880689 
	8985.569737953850563 425.8257125441087396 14372.9712329873546 
	8974.921740563675485 417.3827881636007078 14360.12381743871083 
	8969.692754369903923 413.2366625210945017 14353.57422675357702 
	8964.560709993646014 409.1674032042107569 14346.90093055777106 
	8947.782361854115152 395.8636504532329354 14324.25273079852013 
	8927.933075973896848 380.1249144678661196 14292.48662124785187 
	8907.13072456925147 363.630481438740901 14250.23308037529569 
	8891.904581175493149 351.5574903803408802 14213.46795752795515 
	8877.974431204438588 340.5121079947382441 14171.29384780948203 
	8868.364980704804111 332.8926598549485902 14131.53514078895932 
	8862.56688206328181 328.2952781514002254 14099.11412445205497 
	8858.041842440235996 324.7073201574011705 14066.36469262622813 
	8854.795538063615822 322.1332866219991047 14024.96430582854009 
	8854.795734034387351 322.1334420095959103 13975.03571659675436 
	8858.366319277789444 324.9646017197768515 13929.49526010479349 
	8864.424441363005826 329.7681591193920099 13888.63578499670803 
	8872.014286029358118 335.7862376585686661 13852.48482765787958 
	8881.700487842123039 343.4665428318615454 13817.15928652861112 
	8897.335555312958604 355.8637746779678537 13771.42062820369028 
	8916.927160021015879 371.3981921824392316 13728.1141692342735 
	8940.147520588545376 389.8098935737560851 13687.96450896653187 
	8961.401425203037434 406.6623685394765175 13656.44420287875073 
	8987.074171305206619 427.0185957289988892 13624.48738500246145 
	9017.661486518625679 451.2716434984085367 13593.35754734189504 
	9047.786761100594958 475.1583337296392529 13568.5262819863583 
	9076.595258605186245 498.0009356801170952 13549.0953902825222 
	9103.47427926949058 519.3136323851741736 13534.12884927152481 
	9131.154605679133965 541.2616939922633037 13521.76788227046927 
	9157.120754058720195 561.8505633537458834 13512.88848286513348 
	9181.082183467960931 580.8498670859451067 13506.80597850277445 
	9210.111295568063724 603.8673969855447012 13501.57540487721053 
	9246.743077142460606 632.9131743691280008 13498.9497656813528 
	9290.701262399374173 667.7681447873276284 13502.10040134160045 
	9329.283826227310783 698.3607207329943094 13510.46651629774351 
	9362.331473097066919 724.5645948762811486 13521.76832893506071 
	9399.238944592920234 753.8289700920748828 13538.24838464882305 
	9443.368290212476495 788.8196556072094836 13565.36800356539061 
	9487.883107568311971 824.1159862706348349 13604.10244979589152 
	9524.359089633997428 853.0382283629879794 13645.70390777796638 
	9553.69677351475184 876.3004285208775173 13687.6000278220472 
	9579.174107536835436 896.5017111415515956 13733.42506119107202 
	9600.471053328426933 913.3883139771817241 13782.60228659303539 
	9617.31956609822555 926.7477011093156989 13834.51347477061427 
	9629.508010247134735 936.4120641412524719 13888.50571538797885 
	9635.653556095145177 941.284940895808063 13934.66769015654063 
	9637.809353922895752 942.9942987592643249 13967.28969711962964 
	9638.348727452601452 943.4219744776721654 13983.63927935704851 
	9638.483575456861217 943.5288970719851704 13991.81890242692498 
	9638.517291786898568 943.5556311530658604 13995.90931647947582 
	9638.525720418208948 943.5623143155747812 13997.95459910074715 
	9638.52812867909779 943.5642238544206748 13999.12334276546972 
	9638.528530086936371 943.5645421354937525 13999.7077164039074 
	9638.528530084557133 943.5645421336059826 13999.99990322066878 
	0 
	
	0 
	0 
	83 -4.898210214556049953e-30 0.002232142857142857019 0.004464285714285714038 0.008928571428571428076 0.01785714285714285615 0.0357142857142857123 0.05357142857142856845 0.0625 0.0669642857142857123 0.07142857142857142461 0.08928571428571427382 0.1071428571428571369 0.125 0.1428571428571428492 0.1587301587301587213 0.1746031746031745935 0.1825396825396825295 0.1904761904761904656 0.2023809523809523836 0.2142857142857142738 0.238095238095238082 0.2619047619047618625 0.2857142857142856984 0.3095238095238095344 0.3333333333333333148 0.3340773809523809312 0.3348214285714286031 0.336309523809523836 0.3377976190476190688 0.3392857142857143016 0.3452380952380952328 0.3571428571428570953 0.3690476190476190133 0.3720238095238095344 0.375 0.3779761904761904656 0.3809523809523809312 0.4047619047619047672 0.4166666666666666297 0.4285714285714285476 0.4444444444444444198 0.4603174603174602919 0.4682539682539682557 0.476190476190476164 0.4920634920634920362 0.5079365079365079083 0.5238095238095237249 0.5357142857142855874 0.5476190476190475609 0.5595238095238095344 0.5714285714285713969 0.5952380952380951218 0.6071428571428569843 0.6190476190476189577 0.6349206349206348854 0.650793650793650702 0.6666666666666666297 0.6785714285714286031 0.6904761904761904656 0.7023809523809523281 0.7142857142857141906 0.7232142857142855874 0.7321428571428569843 0.749999999999999889 0.7678571428571427937 0.7857142857142855874 0.7976190476190474499 0.8095238095238094234 0.8333333333333332593 0.8571428571428570953 0.875 0.8928571428571427937 0.9107142857142856984 0.9285714285714286031 0.9464285714285713969 0.9642857142857143016 0.9821428571428572063 0.9910714285714286031 0.9955357142857143016 0.9977678571428572063 0.9988839285714286031 0.9994419642857143016 0.9997209821428572063 
	0 
	0 
	0 
	F 1 F 0 F 1 F 0 } I I I I #
tcoedge-coedge $-1 -1 $-1 $14 $14 $18 $19 reversed $9 $20 -6.283185307179586232 -7.799131489938529928e-30 #
tcoedge-coedge $-1 -1 $-1 $21 $22 $11 $16 reversed $12 $23 -6.283185307179586232 3.846389848441805489e-29 #
tedge-edge $-1 -1 $-1 $24 -3.846389848441805489e-29 $24 6.283185307179586232 $15 $25 forward @7 unknown 0.000653915326222467906 #
pcurve $-1 -1 $-1 0 forward { exppc nurbs 2 periodic 5 
	-3.846389848441805489e-29 2 1.570796326794896558 2 3.141592653589793116 2 4.712388980384689674 2 6.283185307179586232 2 
	9.094947017729282379e-12 499.9999999999990905 1 
	-499.9999999999909051 500.000000000007276 0.7071067811865520136 
	-500 9.094947017729282379e-12 1 
	-500.0000000000109139 -499.9999999999899956 0.7071067811865505703 
	-1.091393642127513885e-11 -500 1 
	499.9999999999890861 -500.0000000000090949 0.7071067811865520136 
	500 -1.000444171950221062e-11 1 
	500.0000000000090949 499.9999999999899956 0.7071067811865502373 
	9.094947017729282379e-12 499.9999999999990905 1 
	0 
	plane 9246.743120975370402 632.9132091131968991 13999.99999999999636 0.6213025945046596332 -0.7835707281807930968 1.559133774493090945e-14 2.509459622868833362e-14 0 -1 forward_v I I I I 
	} 0 0 #
tcoedge-coedge $-1 -1 $-1 $22 $21 $14 $19 forward $12 $26 7.799131489938529928e-30 6.283185307179586232 #
tedge-edge $-1 -1 $-1 $27 7.799131489938529928e-30 $27 6.283185307179586232 $18 $28 forward @7 unknown 0.0006539145973186787997 #
pcurve $-1 -1 $-1 0 forward { exppc nurbs 2 periodic 5 
	-6.283185307179586232 2 -4.712388980384689674 2 -3.141592653589793116 2 -1.570796326794896558 2 -7.799131489938529928e-30 2 
	-1.637090463191270828e-11 500.0000000000009095 1 
	499.9999999999836291 500.0000000000154614 0.7071067811865476838 
	500 1.728039933368563652e-11 1 
	500.0000000000163709 -499.9999999999836291 0.7071067811865452413 
	1.637090463191270828e-11 -500 1 
	-499.9999999999836291 -500.0000000000154614 0.7071067811865473507 
	-500 -1.637090463191270828e-11 1 
	-500.0000000000163709 499.9999999999845386 0.7071067811865447972 
	-1.637090463191270828e-11 500.0000000000009095 1 
	0 
	plane 9057.765165256558248 927.5101070065356907 14000.00000000000364 -0.539937016348183918 0.841705422566007333 2.078845032657451858e-14 -3.850162092455775282e-14 0 -1 reverse_v I I I I 
	} 0 0 #
coedge $-1 -1 $-1 $18 $15 $22 $29 reversed $12 $30 #
coedge $-1 -1 $-1 $15 $18 $21 $29 forward $12 $31 #
pcurve $-1 -1 $-1 0 forward { exppc nubs 1 periodic 2 
	-6.283185307179586232 1 3.846389848441805489e-29 1 
	1 0.9999999999999942268 
	0 0.9999999999999942268 
	5.782850966868654938e-12 
	spline forward { ref 0 } I I I I 
	} 0 0 #
tvertex-vertex $-1 -1 $-1 $16 $32 0.0001125712553207418743 #
ellipse-curve $-1 -1 $-1 9246.743120975370402 632.9132091131968991 13999.99999999999636 0.6213025945046596332 -0.7835707281807930968 1.559133774493090945e-14 391.7853640903967971 310.6512972523298117 5.048709793414475555e-28 1 I I #
pcurve $-1 -1 $-1 0 forward { exppc nubs 1 periodic 2 
	7.799131489938529928e-30 1 6.283185307179586232 1 
	-2.374937600727103739e-30 0 
	1 0 
	7.841277978476854108e-12 
	spline forward { ref 0 } I I I I 
	} 0 0 #
tvertex-vertex $-1 -1 $-1 $19 $33 0.0001125685686400000742 #
ellipse-curve $-1 -1 $-1 9057.765165256558248 927.5101070065356907 14000.00000000000364 0.539937016348183918 -0.841705422566007333 -2.078845032657451858e-14 420.852711283003714 269.9685081740919372 -2.325652109353460502e-28 1 I I #
edge $-1 -1 $-1 $27 1.7437474274533628e-09 $24 1 $22 $34 forward @7 tangent #
pcurve $-1 -1 $-1 -1 $34 0 0 #
pcurve $-1 -1 $-1 1 $34 1 0 #
point $-1 -1 $-1 9638.528485065768109 943.5645063655258582 13999.99999999999636 #
point $-1 -1 $-1 9478.61787653956344 1197.478615180628367 14000.00000000000364 #
intcurve-curve $-1 -1 $-1 forward { parcur full nubs 3 open 2 
	0 3 1 3 
	9478.617924907812267 1197.478646260467713 13999.99990322068516 
	9531.921461015068417 1112.8406100841446 13999.99990322068334 
	9585.224993977300983 1028.20257830992864 13999.9999032206706 
	9638.528530084557133 943.5645421336059826 13999.99990322066878 
	0 
	
	spline forward { ref 0 } I I I I 
	null_surface 
	nubs 1 open 2 
	0 1 1 1 
	-4.898210214556049953e-30 0 
	-4.898210214556049953e-30 1 
	
	nullbs 
	I I 
	0 
	0 
	0 
	surf1 } F 1.7437474274533628e-09 F 1 #
End-of-ACIS-data 