700 0 1 0           
4 LibG 20 ASM 224.0.1.65535 NT 24 Wed Jul 17 15:51:16 2019 
1000 9.999999999999999547e-07 1.000000000000000036e-10 
body $-1 -1 $-1 $1 $-1 $2 #
lump $-1 -1 $-1 $-1 $3 $0 #
transform $-1 -1 1 0 0 0 1 0 0 0 1 0 0 0 1 no_rotate no_reflect no_shear #
shell $-1 -1 $-1 $-1 $-1 $4 $-1 $1 #
face $-1 -1 $-1 $5 $6 $3 $-1 $7 forward single #
face $-1 -1 $-1 $8 $9 $3 $-1 $10 reversed single #
loop $-1 -1 $-1 $-1 $11 $4 #
plane-surface $-1 -1 $-1 658.3608648471522429 3095.630959805689599 14000 0.9999999998569973902 -1.691169161366488208e-05 5.197112581643629645e-15 5.197112582386830492e-15 0 -1 forward_v I I I I #
face $-1 -1 $-1 $-1 $12 $3 $-1 $13 forward single #
loop $-1 -1 $-1 $-1 $14 $5 #
plane-surface $-1 -1 $-1 308.3608649028628861 3095.636878897754286 14000.00000000000182 0.9999999998569973902 -1.69116916136648787e-05 -5.197112581643629645e-15 -5.197112582386830492e-15 0 -1 forward_v I I I I #
tcoedge-coedge $-1 -1 $-1 $11 $11 $15 $16 forward $6 $17 4.08391938306541452e-31 6.283185307179586232 #
loop $-1 -1 $-1 $-1 $18 $8 #
spline-surface $-1 -1 $-1 forward { exactsur full nubs 3 3 periodic open none none 89 2 
	0 3 0.001116071428571428509 1 0.002232142857142857019 1 0.004464285714285714038 1 0.008928571428571428076 1 
	0.01785714285714285615 1 0.02678571428571428423 1 0.0357142857142857123 1 0.05357142857142856845 1 0.07142857142857142461 1 
	0.08928571428571427382 1 0.1071428571428571369 1 0.1160714285714285754 1 0.125 1 0.1339285714285714246 1 
	0.1428571428571428492 1 0.1587301587301587213 1 0.1746031746031745935 1 0.1904761904761904656 1 0.2023809523809523836 1 
	0.2142857142857142738 1 0.238095238095238082 1 0.2619047619047618625 1 0.2857142857142856984 1 0.2916666666666666297 1 
	0.2931547619047618625 1 0.2946428571428570953 1 0.2961309523809523281 1 0.2976190476190476164 1 0.3095238095238095344 1 
	0.3214285714285713969 1 0.3333333333333333148 1 0.3452380952380952328 1 0.3571428571428570953 1 0.3690476190476190133 1 
	0.3809523809523809312 1 0.3928571428571428492 1 0.4047619047619047672 1 0.4166666666666666297 1 0.4285714285714285476 1 
	0.4444444444444444198 1 0.4603174603174602919 1 0.476190476190476164 1 0.4841269841269840724 1 0.4880952380952380265 1 
	0.4900793650793650036 1 0.4920634920634920362 1 0.5079365079365079083 1 0.5158730158730158166 1 0.5198412698412697708 1 
	0.5238095238095237249 1 0.5476190476190475609 1 0.5714285714285713969 1 0.5833333333333332593 1 0.5952380952380951218 1 
	0.6071428571428569843 1 0.6190476190476189577 1 0.6349206349206348854 1 0.650793650793650702 1 0.6666666666666666297 1 
	0.6904761904761904656 1 0.7023809523809523281 1 0.7142857142857141906 1 0.7321428571428569843 1 0.749999999999999889 1 
	0.7678571428571427937 1 0.7767857142857141906 1 0.7857142857142855874 1 0.7916666666666665186 1 0.7976190476190474499 1 
	0.8095238095238094234 1 0.8333333333333332593 1 0.8452380952380951218 1 0.8571428571428570953 1 0.875 1 
	0.8928571428571427937 1 0.9107142857142856984 1 0.9285714285714286031 1 0.9464285714285713969 1 0.9642857142857143016 1 
	0.9821428571428572063 1 0.9910714285714286031 1 0.9955357142857143016 1 0.9977678571428572063 1 0.9988839285714286031 1 
	0.9994419642857143016 1 0.9997209821428572063 1 0.9998604910714286031 1 1 3 
	0 3 1 3 
	308.3693207551263527 3595.636935878594159 13999.99986922359494 
	308.3693207551260684 3595.636935873470975 14001.16861648565282 
	308.3693206165119136 3595.628739887292795 14003.50611098033369 
	308.3693197848862724 3595.579565615956653 14008.1808700181482 
	308.3693168742830721 3595.40746127574721 14016.36049156801346 
	308.3693052338044822 3594.719156858794577 14032.71007697849382 
	308.3692719954810855 3592.753767914400214 14056.01148091746472 
	308.3692056543940794 3588.830988233209609 14083.79689185867392 
	308.3690822173902006 3581.532088657094391 14120.49267642845552 
	308.3688630051000814 3568.569965457999388 14165.48625617798643 
	308.3684993597942707 3547.067404972895929 14217.39726667862305 
	308.3680397152317028 3519.888353432379063 14266.57466195621419 
	308.3675814830173181 3492.792774793941589 14304.76193892777701 
	308.367173246686832 3468.653492046157226 14333.34777980480794 
	308.3668472288512703 3449.375839098177948 14353.73868333716018 
	308.3665023841284665 3428.984940870884657 14373.01637616311018 
	308.3660458036002296 3401.987025153358445 14395.81433234438919 
	308.3654602047853928 3367.360187483737263 14420.70966432132809 
	308.3647289511526424 3324.120657029667655 14445.67373095321818 
	308.3640234354433574 3282.403031715703491 14464.49766537846699 
	308.3633596322445101 3243.151894001341589 14478.231409074775 
	308.3625444752626663 3194.951104432419925 14491.14841581870496 
	308.361499176177972 3133.141851910448622 14500.46570175206944 
	308.3602306332488752 3058.132046628219086 14500.46570447892555 
	308.3592898614286923 3002.503565801564037 14492.08090198403261 
	308.3587526089457924 2970.73545655612952 14484.20141329438775 
	308.3586000640582938 2961.715372133319761 14481.73930758920142 
	308.3585239897556676 2957.217046154059062 14480.4660895906145 
	308.3584481200506957 2952.730818151214407 14479.15088881139127 
	308.3581959252204001 2937.818363958600003 14474.62725666593542 
	308.3577727525608339 2912.795874738334078 14465.87148267821613 
	308.3571926250313027 2878.492535143157511 14450.90504965521177 
	308.3566330342855508 2845.403550098746109 14433.41698020841613 
	308.3560971099234962 2813.713974360401153 14413.5050638928933 
	308.3555878484203276 2783.60099084995818 14391.28073937025147 
	308.3551080990353057 2755.233080294722185 14366.86811820403636 
	308.3546605437016979 2728.768825500516414 14340.40386897285498 
	308.3542476857227825 2704.356249588586252 14312.03592680118527 
	308.3538718339852949 2682.131877550893023 14281.92296061442357 
	308.3535350912288209 2662.220046265469591 14250.23336398746142 
	308.3532064748606558 2642.78873413942847 14213.46788096956698 
	308.3529058181471214 2625.010695509276502 14171.2939542949207 
	308.3526569377847864 2610.294228361683508 14123.58340893227069 
	308.3525175123461395 2602.049906347950582 14082.80122047846817 
	308.3524563277662196 2598.432020034963898 14053.92911978552911 
	308.3524348876275667 2597.164249852000012 14039.43893379423025 
	308.3524252579717313 2596.594841664129945 14031.14720851764287 
	308.3524055533376327 2595.429693051037248 14010.40176098735174 
	308.3524055588331407 2595.430018002714405 13983.35712484269607 
	308.352442334448142 2597.604585452495485 13954.34061124172695 
	308.3524738125363456 2599.465906519172677 13937.82167354210833 
	308.3525506653496109 2604.010266301074807 13904.88675934775347 
	308.3527545221400601 2616.064458339009889 13852.0713770504226 
	308.3531407407031679 2638.90182768169052 13793.88480421854911 
	308.3535350994770852 2662.220533254662769 13749.7667911353783 
	308.3538718342309721 2682.131890866798585 13718.07697022704633 
	308.3542476895810864 2704.35647632125665 13687.96412994078855 
	308.3547064159948263 2731.481284522972146 13656.44408588887927 
	308.3552605035704914 2764.244864033534668 13624.4869901547554 
	308.3559206678503415 2803.28083255636875 13593.3575409602563 
	308.3567481714193264 2852.211688266581405 13561.7528324111554 
	308.3575736072154996 2901.0202741778985 13538.24845773028028 
	308.358370177941481 2948.122049625363161 13521.7685175109491 
	308.3590834396361515 2990.297704285694635 13510.46668436841173 
	308.3599161614272361 3039.537114687985195 13502.1005738859476 
	308.3608649042145657 3095.636926670816138 13498.949932593423 
	308.361655522168121 3142.386706821866937 13501.57562664494981 
	308.3622820534475295 3179.433932267815635 13506.80616902380279 
	308.3626957776375548 3203.897727450111233 13511.67225526166112 
	308.3630539478481296 3225.076578530439292 13516.92470338036583 
	308.3634592014543045 3249.039502358103164 13523.82844894016125 
	308.3641562004284538 3290.253530578976097 13538.24852962762816 
	308.3649181424321455 3335.30767619727294 13559.94466201839896 
	308.3656326951889923 3377.559666174769973 13586.49532487295255 
	308.3662268398834954 3412.691846452888967 13612.42304144792615 
	308.3668566523430741 3449.93307647309166 13645.70378293478643 
	308.3674898382334959 3487.373782482642582 13687.60015794365972 
	308.368039717108104 3519.888475552001182 13733.42495422689353 
	308.3684993640147241 3547.06767084017838 13782.60228447863119 
	308.3688630043184844 3568.569931569933033 13834.51342835288233 
	308.3691260656370332 3584.124885810917021 13888.50569065783384 
	308.3692587047723919 3591.967878776324142 13934.66765502009002 
	308.3693052331640274 3594.719118406774669 13967.28966385799504 
	308.3693168744525792 3595.407470757127157 13983.63924540635526 
	308.3693197848707541 3595.579564503568236 13991.81886848163231 
	308.3693205125708232 3595.622593535420492 13995.90928249383069 
	308.3693206944854523 3595.633350172920927 13997.95456510978875 
	308.3693207399664971 3595.636039472471566 13998.97721581450787 
	308.3693207529606752 3595.636807818391844 13999.5615889998644 
	308.3693207551264095 3595.636935879234443 13999.85377581583816 
	308.3693207551263527 3595.636935878594159 13999.99986922359494 
	425.0359874032230323 3595.634962847906081 13999.99986922359494 
	425.0359874032227481 3595.634962842782897 14001.16861648565282 
	425.0359872646085364 3595.626766856604718 14003.50611098033369 
	425.0359864329830089 3595.577592585268576 14008.1808700181482 
	425.0359835223798655 3595.405488245059132 14016.36049156801346 
	425.0359718819013324 3594.717183828106499 14032.71007697849382 
	425.035938643578163 3592.751794883712137 14056.01148091746472 
	425.0358723024912706 3588.829015202521532 14083.79689185867392 
	425.0357488654877898 3581.530115626406314 14120.49267642845552 
	425.0355296531977274 3568.56799242731131 14165.48625617798643 
	425.0351660078926557 3547.065431942207852 14217.39726667862305 
	425.034706363329974 3519.886380401690985 14266.57466195621419 
	425.0342481311162146 3492.790801763253512 14304.76193892777701 
	425.0338398947856717 3468.651519015469148 14333.34777980480794 
	425.0335138769503942 3449.373866067489871 14353.73868333716018 
	425.0331690322277609 3428.982967840196579 14373.01637616311018 
	425.0327124516995809 3401.985052122670368 14395.81433234438919 
	425.0321268528849714 3367.358214453049186 14420.70966432132809 
	425.0313955992523915 3324.118683998979577 14445.67373095321818 
	425.0306900835432202 3282.401058685015414 14464.49766537846699 
	425.0300262803444866 3243.149920970653511 14478.231409074775 
	425.0292111233627566 3194.949131401731847 14491.14841581870496 
	425.0281658242780622 3133.139878879760545 14500.46570175206944 
	425.0268972813489086 3058.130073597531009 14500.46570447892555 
	425.0259565095288963 3002.501592770875959 14492.08090198403261 
	425.0254192570456553 2970.733483525441443 14484.20141329438775 
	425.0252667121583841 2961.713399102631683 14481.73930758920142 
	425.0251906378556441 2957.215073123370985 14480.4660895906145 
	425.0251147681505017 2952.72884512052633 14479.15088881139127 
	425.0248625733204904 2937.816390927911925 14474.62725666593542 
	425.024439400660583 2912.793901707646 14465.87148267821613 
	425.0238592731311087 2878.490562112469433 14450.90504965521177 
	425.0232996823853 2845.401577068058032 14433.41698020841613 
	425.0227637580229043 2813.712001329713075 14413.5050638928933 
	425.0222544965198495 2783.599017819270102 14391.28073937025147 
	425.0217747471343728 2755.231107264034108 14366.86811820403636 
	425.0213271918008218 2728.766852469828336 14340.40386897285498 
	425.0209143338215654 2704.354276557898174 14312.03592680118527 
	425.0205384820839072 2682.129904520204946 14281.92296061442357 
	425.0202017393272627 2662.218073234781514 14250.23336398746142 
	425.0198731229586429 2642.786761108740393 14213.46788096956698 
	425.0195724662451084 2625.008722478588425 14171.2939542949207 
	425.019323585882205 2610.292255330995431 14123.58340893227069 
	425.0191841604435012 2602.047933317262505 14082.80122047846817 
	425.0191229758631835 2598.430047004275821 14053.92911978552911 
	425.0191015357245305 2597.162276821311934 14039.43893379423025 
	425.0190919060684109 2596.592868633441867 14031.14720851764287 
	425.0190722014348808 2595.42772002034917 14010.40176098735174 
	425.0190722069291951 2595.428044972026328 13983.35712484269607 
	425.0191089825447079 2597.602612421807407 13954.34061124172695 
	425.0191404606325136 2599.463933488484599 13937.82167354210833 
	425.0192173134455516 2604.00829327038673 13904.88675934775347 
	425.0194211702357165 2616.062485308321811 13852.0713770504226 
	425.0198073887983696 2638.899854651002443 13793.88480421854911 
	425.0202017475719458 2662.218560223974691 13749.7667911353783 
	425.0205384823257191 2682.129917836110508 13718.07697022704633 
	425.0209143376755492 2704.354503290568573 13687.96412994078855 
	425.0213730640890049 2731.479311492284069 13656.44408588887927 
	425.0219271516645563 2764.242891002846591 13624.4869901547554 
	425.022587315944179 2803.278859525680673 13593.3575409602563 
	425.0234148195128796 2852.209715235893327 13561.7528324111554 
	425.024240255308996 2901.018301147210423 13538.24845773028028 
	425.02503682603475 2948.120076594675083 13521.7685175109491 
	425.0257500877294206 2990.295731255006558 13510.46668436841173 
	425.026582809520562 3039.535141657297117 13502.1005738859476 
	425.0275315523076074 3095.63495364012806 13498.949932593423 
	425.0283221702613901 3142.38473379117886 13501.57562664494981 
	425.0289487015407417 3179.431959237127558 13506.80616902380279 
	425.0293624257308807 3203.895754419423156 13511.67225526166112 
	425.0297205959413418 3225.074605499751215 13516.92470338036583 
	425.0301258495477441 3249.037529327415086 13523.82844894016125 
	425.0308228485218933 3290.251557548288019 13538.24852962762816 
	425.0315847905256987 3335.305703166584863 13559.94466201839896 
	425.0322993432828298 3377.557693144081895 13586.49532487295255 
	425.0328934879773328 3412.68987342220089 13612.42304144792615 
	425.0335233004373094 3449.931103442403582 13645.70378293478643 
	425.0341564863280155 3487.371809451954505 13687.60015794365972 
	425.034706365202851 3519.886502521313105 13733.42495422689353 
	425.0351660121098121 3547.065697809490302 13782.60228447863119 
	425.035529652414084 3568.567958539244955 13834.51342835288233 
	425.0357927137328033 3584.122912780228944 13888.50569065783384 
	425.0359253528686168 3591.965905745636064 13934.66765502009002 
	425.0359718812604228 3594.717145376086592 13967.28966385799504 
	425.0359835225491452 3595.40549772643908 13983.63924540635526 
	425.0359864329672632 3595.577591472880158 13991.81886848163231 
	425.0359871606675028 3595.620620504732415 13995.90928249383069 
	425.0359873425820751 3595.63137714223285 13997.95456510978875 
	425.0359873880631767 3595.634066441783489 13998.97721581450787 
	425.0359874010573549 3595.634834787703767 13999.5615889998644 
	425.0359874032230891 3595.634962848546365 13999.85377581583816 
	425.0359874032230323 3595.634962847906081 13999.99986922359494 
	541.7026540575543549 3595.632989817216639 13999.99986922359494 
	541.7026540575537865 3595.632989812093001 14001.16861648565282 
	541.7026539189328105 3595.624793825914367 14003.50611098033369 
	541.7026530873007459 3595.575619554578225 14008.1808700181482 
	541.7026501766666797 3595.403515214369236 14016.36049156801346 
	541.7026385360887843 3594.715210797416603 14032.71007697849382 
	541.7026052974576942 3592.74982185302224 14056.01148091746472 
	541.7025389560898248 3588.827042171831181 14083.79689185867392 
	541.7024155187853012 3581.528142595715963 14120.49267642845552 
	541.7021963055186689 3568.566019396620959 14165.48625617798643 
	541.7018326594932205 3547.063458911517955 14217.39726667862305 
	541.7013730139940435 3519.884407371001089 14266.57466195621419 
	541.7009147816160066 3492.78882873256407 14304.76193892777701 
	541.7005065450299526 3468.649545984779252 14333.34777980480612 
	541.7001805270655268 3449.371893036799975 14353.73868333715836 
	541.6998356821831067 3428.980994809506683 14373.01637616310654 
	541.6993791015379429 3401.983079091980926 14395.81433234438919 
	541.6987935022519878 3367.35624142235929 14420.70966432132809 
	541.6980622485876893 3324.116710968290135 14445.67373095321818 
	541.6973567327702312 3282.399085654325972 14464.49766537846699 
	541.6966929295007276 3243.14794793996407 14478.231409074775 
	541.6958777724133824 3194.947158371042406 14491.14841581870496 
	541.6948324732520632 3133.137905849072013 14500.46570175206944 
	541.6935639300579624 3058.128100566841567 14500.46570447891827 
	541.6926231581152251 3002.499619740186972 14492.08090198403261 
	541.6920859056147037 2970.731510494752456 14484.20141329438229 
	541.6919333607253293 2961.711426071942697 14481.73930758920142 
	541.6918572864219641 2957.213100092681998 14480.46608959061086 
	541.6917814167163669 2952.726872089836888 14479.15088881138945 
	541.6915292218816376 2937.814417897222938 14474.6272566659336 
	541.6911060491786429 2912.791928676957468 14465.87148267821613 
	541.6905259216160857 2878.488589081780901 14450.90504965520995 
	541.6899663308312256 2845.399604037369954 14433.4169802084125 
	541.6894304064353491 2813.710028299024998 14413.50506389288785 
	541.6889211449181403 2783.597044788582025 14391.28073937024601 
	541.688441395499467 2755.229134233345576 14366.86811820403454 
	541.6879938401457366 2728.764879439139804 14340.40386897284952 
	541.6875809821406165 2704.352303527210097 14312.03592680117981 
	541.6872051303901117 2682.127931489516413 14281.92296061441448 
	541.6868683876266459 2662.216100204093436 14250.23336398745596 
	541.6865397712474532 2642.784788078052316 14213.46788096956152 
	541.6862391145264155 2625.006749447900347 14171.29395429491888 
	541.6859902341550423 2610.290282300307354 14123.58340893226887 
	541.685850808707869 2602.045960286574427 14082.80122047846453 
	541.6857896241257322 2598.428073973587743 14053.92911978552547 
	541.6857681839866245 2597.160303790624312 14039.43893379422661 
	541.685758554330846 2596.590895602754244 14031.14720851763741 
	541.6857388496966905 2595.425746989661093 14010.40176098734628 
	541.6857388551921986 2595.42607194133825 13983.35712484269061 
	541.6857756308083935 2597.60063939111933 13954.34061124172149 
	541.6858071088969382 2599.461960457796522 13937.82167354210287 
	541.6858839617125341 2604.006320239698653 13904.88675934774983 
	541.6860878185168531 2616.060512277634189 13852.07137705041896 
	541.6864740370975824 2638.89788162031482 13793.88480421854729 
	541.6868683958902011 2662.216587193287069 13749.76679113537466 
	541.6872051306605726 2682.12794480542243 13718.07697022704269 
	541.687580986027001 2704.352530259880496 13687.96412994078855 
	541.6880397124664341 2731.477338461595537 13656.44408588887927 
	541.6885938000677925 2764.240917972158059 13624.4869901547554 
	541.6892539643683904 2803.276886494992596 13593.3575409602563 
	541.6900814679680707 2852.207742205204795 13561.7528324111554 
	541.6909069038129019 2901.0163281165228 13538.24845773028028 
	541.6917034745677029 2948.118103563987006 13521.7685175109491 
	541.6924167362953995 2990.293758224318935 13510.46668436840991 
	541.693249458162768 3039.53316862660995 13502.1005738859476 
	541.6941982010266656 3095.632980609440892 13498.949932593423 
	541.6949888190805495 3142.382760760491692 13501.57562664494981 
	541.6956153503913356 3179.42998620644039 13506.80616902379916 
	541.6960290746153532 3203.893781388735988 13511.6722552616593 
	541.6963872448397979 3225.072632469064047 13516.92470338036219 
	541.6967924984783167 3249.035556296727464 13523.82844894016125 
	541.6974894974958943 3290.249584517600397 13538.24852962762816 
	541.6982514397122941 3335.303730135896785 13559.94466201839714 
	541.698965992618696 3377.555720113394273 13586.49532487295255 
	541.6995601374221678 3412.687900391512812 13612.42304144792433 
	541.7001899501789239 3449.929130411716415 13645.70378293478461 
	541.7008231363149662 3487.369836421266882 13687.6001579436579 
	541.7013730156573956 3519.884529490625937 13733.42495422689353 
	541.7018326634015466 3547.06372477880268 13782.60228447862755 
	541.702196304501058 3568.565985508557787 13834.51342835287869 
	541.7024593666475312 3584.120939749541776 13888.50569065783384 
	541.7025920067552534 3591.963932714948896 13934.66765502009002 
	541.7026385354599824 3594.715172345398969 13967.28966385799504 
	541.7026501768455091 3595.403524695751457 13983.63924540635526 
	541.7026530872890362 3595.57561844219299 13991.81886848163231 
	541.7026538149959833 3595.618647474043428 13995.90928249383069 
	541.7026539969126588 3595.629404111544318 13997.95456510978875 
	541.7026540423943288 3595.632093411094502 13998.97721581450787 
	541.7026540553886207 3595.63286175701387 13999.5615889998644 
	541.7026540575543549 3595.632989817857379 13999.85377581583816 
	541.7026540575543549 3595.632989817216639 13999.99986922359494 
	658.3693207056502388 3595.631016786528562 13999.99986922359494 
	658.3693207056496703 3595.631016781404924 14001.16861648565282 
	658.3693205670285806 3595.622820795226289 14003.50611098033369 
	658.3693197353966298 3595.573646523890147 14008.1808700181482 
	658.3693168247621088 3595.401542183681158 14016.36049156801346 
	658.3693051841845545 3594.713237766728525 14032.71007697849382 
	658.3692719455526685 3592.747848822334163 14056.01148091746472 
	658.3692056041846854 3588.825069141143103 14083.79689185867392 
	658.3690821668794797 3581.526169565027885 14120.49267642845552 
	658.3688629536122789 3568.564046365932882 14165.48625617798643 
	658.3684993075860348 3547.061485880829878 14217.39726667862305 
	658.368039662086403 3519.882434340313011 14266.57466195621419 
	658.3675814297075704 3492.786855701875993 14304.76193892777701 
	658.3671731931214026 3468.647572954091174 14333.34777980480612 
	658.3668471751562947 3449.369920006111897 14353.73868333715836 
	658.3665023302739883 3428.979021778818606 14373.01637616310654 
	658.3660457496281424 3401.981106061292849 14395.81433234438919 
	658.3654601503423009 3367.354268391671212 14420.70966432132809 
	658.3647288966772066 3324.114737937602058 14445.67373095321818 
	658.3640233808598623 3282.397112623637895 14464.49766537846699 
	658.3633595775900176 3243.145974909275992 14478.231409074775 
	658.3625444205023314 3194.945185340354328 14491.14841581870496 
	658.3614991213412395 3133.135932818383935 14500.46570175206944 
	658.3602305781466839 3058.12612753615349 14500.46570447891827 
	658.3592898062046288 3002.497646709498895 14492.08090198403261 
	658.3587525537037664 2970.729537464064379 14484.20141329438229 
	658.3586000088146193 2961.709453041254619 14481.73930758920142 
	658.3585239345111404 2957.211127061993921 14480.46608959061086 
	658.3584480648055433 2952.724899059148811 14479.15088881138945 
	658.3581958699710412 2937.812444866534861 14474.6272566659336 
	658.3577726972680466 2912.789955646269391 14465.87148267821613 
	658.3571925697058305 2878.486616051092824 14450.90504965520995 
	658.356632978921084 2845.397631006681877 14433.4169802084125 
	658.3560970545254349 2813.708055268336921 14413.50506389288785 
	658.3555877930086808 2783.595071757893948 14391.28073937024601 
	658.355108043590235 2755.227161202657499 14366.86811820403454 
	658.3546604882369593 2728.762906408451727 14340.40386897284952 
	658.3542476302320665 2704.35033049652202 14312.03592680117981 
	658.3538717784821301 2682.125958458828336 14281.92296061441448 
	658.3535350357191192 2662.214127173405359 14250.23336398745596 
	658.3532064193403812 2642.782815047364238 14213.46788096956152 
	658.3529057626200256 2625.00477641721227 14171.29395429491888 
	658.3526568822491072 2610.288309269619276 14123.58340893226887 
	658.3525174568028433 2602.04398725588635 14082.80122047846453 
	658.3524562722208202 2598.426100942899666 14053.92911978552547 
	658.3524348320820536 2597.158330759936234 14039.43893379422661 
	658.3524252024262751 2596.588922572066167 14031.14720851763741 
	658.352405497792347 2595.423773958973015 14010.40176098734628 
	658.3524055032884235 2595.424098910650173 13983.35712484269061 
	658.3524422789048458 2597.598666360431253 13954.34061124172149 
	658.3524737569937315 2599.459987427108445 13937.82167354210287 
	658.3525506098097821 2604.004347209010575 13904.88675934774983 
	658.3527544666147833 2616.058539246946111 13852.07137705041896 
	658.3531406851963084 2638.895908589626742 13793.88480421854729 
	658.3535350439896092 2662.214614162598991 13749.76679113537466 
	658.3538717787603218 2682.125971774734353 13718.07697022704269 
	658.3542476341273186 2704.350557229192418 13687.96412994078855 
	658.3547063605670928 2731.475365430907459 13656.44408588887927 
	658.3552604481689059 2764.238944941469981 13624.4869901547554 
	658.3559206124700722 2803.274913464304518 13593.3575409602563 
	658.3567481160699799 2852.205769174516718 13561.7528324111554 
	658.3575735519153795 2901.014355085834723 13538.24845773028028 
	658.3583701226700668 2948.116130533298929 13521.7685175109491 
	658.3590833843982182 2990.291785193630858 13510.46668436840991 
	658.3599161062655867 3039.531195595921872 13502.1005738859476 
	658.3608648491293707 3095.631007578752815 13498.949932593423 
	658.361655467183482 3142.380787729803615 13501.57562664494981 
	658.3622819984939269 3179.428013175752312 13506.80616902379916 
	658.3626957227180583 3203.891808358047911 13511.6722552616593 
	658.3630538929425029 3225.070659438375969 13516.92470338036219 
	658.3634591465806807 3249.033583266039386 13523.82844894016125 
	658.3641561455984856 3290.247611486912319 13538.24852962762816 
	658.3649180878140896 3335.301757105208708 13559.94466201839714 
	658.3656326407204915 3377.553747082706195 13586.49532487295255 
	658.3662267855232813 3412.685927360824735 13612.42304144792433 
	658.36685659827981 3449.927157381028337 13645.70378293478461 
	658.3674897844151701 3487.367863390578805 13687.6001579436579 
	658.3680396637571448 3519.882556459937859 13733.42495422689353 
	658.3684993115003863 3547.061751748114602 13782.60228447862755 
	658.3688629525993292 3568.56401247786971 13834.51342835287869 
	658.3691260147448929 3584.118966718853699 13888.50569065783384 
	658.369258654852274 3591.961959684260819 13934.66765502009002 
	658.3693051835562073 3594.713199314710891 13967.28966385799504 
	658.3693168249418477 3595.40155166506338 13983.63924540635526 
	658.36931973538492 3595.573645411504913 13991.81886848163231 
	658.3693204630919809 3595.61667444335535 13995.90928249383069 
	658.3693206450085427 3595.62743108085624 13997.95456510978875 
	658.3693206904902127 3595.630120380406424 13998.97721581450787 
	658.3693207034845045 3595.630888726325793 13999.5615889998644 
	658.3693207056502388 3595.631016787169301 13999.85377581583816 
	658.3693207056502388 3595.631016786528562 13999.99986922359494 
	0 
	
	0 
	0 
	86 0 0.002232142857142857019 0.004464285714285714038 0.008928571428571428076 0.01785714285714285615 0.02678571428571428423 0.0357142857142857123 0.05357142857142856845 0.07142857142857142461 0.08928571428571427382 0.1071428571428571369 0.1160714285714285754 0.125 0.1339285714285714246 0.1428571428571428492 0.1587301587301587213 0.1746031746031745935 0.1904761904761904656 0.2023809523809523836 0.2142857142857142738 0.238095238095238082 0.2619047619047618625 0.2857142857142856984 0.2916666666666666297 0.2931547619047618625 0.2946428571428570953 0.2961309523809523281 0.2976190476190476164 0.3095238095238095344 0.3214285714285713969 0.3333333333333333148 0.3452380952380952328 0.3571428571428570953 0.3690476190476190133 0.3809523809523809312 0.3928571428571428492 0.4047619047619047672 0.4166666666666666297 0.4285714285714285476 0.4444444444444444198 0.4603174603174602919 0.476190476190476164 0.4880952380952380265 0.4900793650793650036 0.4920634920634920362 0.5079365079365079083 0.5158730158730158166 0.5198412698412697708 0.5238095238095237249 0.5476190476190475609 0.5714285714285713969 0.5833333333333332593 0.5952380952380951218 0.6071428571428569843 0.6190476190476189577 0.6349206349206348854 0.650793650793650702 0.6666666666666666297 0.6904761904761904656 0.7023809523809523281 0.7142857142857141906 0.7321428571428569843 0.749999999999999889 0.7678571428571427937 0.7767857142857141906 0.7857142857142855874 0.7916666666666665186 0.7976190476190474499 0.8095238095238094234 0.8333333333333332593 0.8452380952380951218 0.8571428571428570953 0.875 0.8928571428571427937 0.9107142857142856984 0.9285714285714286031 0.9464285714285713969 0.9642857142857143016 0.9821428571428572063 0.9910714285714286031 0.9955357142857143016 0.9977678571428572063 0.9988839285714286031 0.9994419642857143016 0.9997209821428572063 0.9998604910714286031 
	0 
	0 
	0 
	F 1 F 0 F 1 F 0 } I I I I #
tcoedge-coedge $-1 -1 $-1 $14 $14 $18 $19 reversed $9 $20 -6.283185307179586232 -1.824693874901520916e-31 #
tcoedge-coedge $-1 -1 $-1 $21 $22 $11 $16 reversed $12 $23 -6.283185307179586232 -4.08391938306541452e-31 #
tedge-edge $-1 -1 $-1 $24 4.08391938306541452e-31 $24 6.283185307179586232 $15 $25 forward @7 unknown 0.0007418068965379856885 #
pcurve $-1 -1 $-1 0 forward { exppc nurbs 2 periodic 5 
	4.08391938306541452e-31 2 1.570796326794896558 2 3.141592653589793116 2 4.712388980384689674 2 6.283185307179586232 2 
	0 500 1 
	-500 500 0.7071067811865451302 
	-500 0 1 
	-500 -500 0.7071067811865451302 
	0 -500 1 
	500 -500 0.7071067811865451302 
	500 0 1 
	500 500 0.7071067811865451302 
	0 500 1 
	0 
	plane 658.3608648471522429 3095.630959805689599 14000 0.9999999998569973902 -1.691169161366488208e-05 5.197112581643629645e-15 5.197112582386830492e-15 0 -1 forward_v I I I I 
	} 0 0 #
tcoedge-coedge $-1 -1 $-1 $22 $21 $14 $19 forward $12 $26 1.824693874901520916e-31 6.283185307179586232 #
tedge-edge $-1 -1 $-1 $27 1.824693874901520916e-31 $27 6.283185307179586232 $18 $28 forward @7 unknown 0.0007418068944704974722 #
pcurve $-1 -1 $-1 0 forward { exppc nurbs 2 periodic 5 
	-6.283185307179586232 2 -4.712388980384689674 2 -3.141592653589793116 2 -1.570796326794896558 2 -1.824693874901520916e-31 2 
	0 500 1 
	500 500 0.7071067811865451302 
	500 0 1 
	500 -500 0.7071067811865451302 
	0 -500 1 
	-500 -500 0.7071067811865451302 
	-500 0 1 
	-500 500 0.7071067811865451302 
	0 500 1 
	0 
	plane 308.3608649028628861 3095.636878897754286 14000.00000000000182 -0.9999999998569973902 1.69116916136648787e-05 5.197112581643629645e-15 -5.197112582386830492e-15 0 -1 reverse_v I I I I 
	} 0 0 #
coedge $-1 -1 $-1 $18 $15 $22 $29 reversed $12 $30 #
coedge $-1 -1 $-1 $15 $18 $21 $29 forward $12 $31 #
pcurve $-1 -1 $-1 0 forward { exppc nubs 1 periodic 2 
	-6.283185307179586232 1 -4.08391938306541452e-31 1 
	1 1 
	0 1 
	4.411402399617608535e-13 
	spline forward { ref 0 } I I I I 
	} 0 0 #
tvertex-vertex $-1 -1 $-1 $16 $32 0.0001426795033033495118 #
ellipse-curve $-1 -1 $-1 658.3608648471522429 3095.630959805689599 14000 0.9999999998569973902 -1.691169161366488208e-05 5.197112581643629645e-15 0.008455845806832441164 499.9999999284987666 7.174648137343063403e-43 1 I I #
pcurve $-1 -1 $-1 0 forward { exppc nubs 1 periodic 2 
	1.824693874901520916e-31 1 6.283185307179586232 1 
	0 0 
	1 0 
	2.726396621713972455e-13 
	spline forward { ref 0 } I I I I 
	} 0 0 #
tvertex-vertex $-1 -1 $-1 $19 $33 0.0001426795049159171216 #
ellipse-curve $-1 -1 $-1 308.3608649028628861 3095.636878897754286 14000.00000000000182 0.9999999998569973902 -1.69116916136648787e-05 -5.197112581643629645e-15 0.008455845806832439429 499.9999999284987666 7.174648137343063403e-43 1 I I #
edge $-1 -1 $-1 $27 0 $24 0.9999999999664961337 $22 $34 forward @7 tangent #
pcurve $-1 -1 $-1 -1 $34 0 0 #
pcurve $-1 -1 $-1 1 $34 1 0 #
point $-1 -1 $-1 658.369320692959036 3595.630959734188309 14000 #
point $-1 -1 $-1 308.3693207486697361 3595.636878826252996 14000.00000000000182 #
intcurve-curve $-1 -1 $-1 forward { parcur full nubs 3 open 2 
	0 3 1 3 
	308.3693207551263527 3595.636935878594159 13999.99986922359494 
	425.0359874032230323 3595.634962847906081 13999.99986922359494 
	541.7026540575543549 3595.632989817216639 13999.99986922359494 
	658.3693207056502388 3595.631016786528562 13999.99986922359494 
	0 
	
	spline forward { ref 0 } I I I I 
	null_surface 
	nubs 1 open 2 
	0 1 1 1 
	0 0 
	0 1 
	
	nullbs 
	I I 
	0 
	0 
	0 
	surf1 } F 0 F 0.9999999999664961337 #
End-of-ACIS-data 