700 0 1 0           
4 LibG 20 ASM 224.0.1.65535 NT 24 Wed Jul 17 15:51:17 2019 
1000 9.999999999999999547e-07 1.000000000000000036e-10 
body $-1 -1 $-1 $1 $-1 $2 #
lump $-1 -1 $-1 $-1 $3 $0 #
transform $-1 -1 1 0 0 0 1 0 0 0 1 0 0 0 1 no_rotate no_reflect no_shear #
shell $-1 -1 $-1 $-1 $-1 $4 $-1 $1 #
face $-1 -1 $-1 $5 $6 $3 $-1 $7 forward single #
face $-1 -1 $-1 $8 $9 $3 $-1 $10 reversed single #
loop $-1 -1 $-1 $-1 $11 $4 #
plane-surface $-1 -1 $-1 3806.610273177178442 3060.62149495611493 14000.00000000000909 0.9949983108038356061 -0.09989174889606429464 5.19711258164362649e-15 5.223237592679933738e-15 0 -1 forward_v I I I I #
face $-1 -1 $-1 $-1 $12 $3 $-1 $13 forward single #
loop $-1 -1 $-1 $-1 $14 $5 #
plane-surface $-1 -1 $-1 3458.360864401467552 3095.583607069171649 14000.00000000000728 0.9949983108038356061 -0.09989174889606443342 5.197112581643632801e-15 5.223237592679940048e-15 0 -1 forward_v I I I I #
tcoedge-coedge $-1 -1 $-1 $11 $11 $15 $16 forward $6 $17 2.215662355088581581e-31 6.283185307179586232 #
loop $-1 -1 $-1 $-1 $18 $8 #
spline-surface $-1 -1 $-1 forward { exactsur full nubs 3 3 periodic open none none 85 2 
	0 3 0.002232142857142857019 1 0.004464285714285714038 1 0.008928571428571428076 1 0.01785714285714285615 1 
	0.0357142857142857123 1 0.05357142857142856845 1 0.0625 1 0.07142857142857142461 1 0.08928571428571427382 1 
	0.1071428571428571369 1 0.125 1 0.1428571428571428492 1 0.1587301587301587213 1 0.1746031746031745935 1 
	0.1904761904761904656 1 0.2023809523809523836 1 0.2142857142857142738 1 0.238095238095238082 1 0.2619047619047618625 1 
	0.2857142857142856984 1 0.3095238095238095344 1 0.3214285714285713969 1 0.3333333333333333148 1 0.3392857142857143016 1 
	0.3452380952380952328 1 0.3571428571428570953 1 0.3630952380952380265 1 0.3690476190476190133 1 0.375 1 
	0.3779761904761904656 1 0.3809523809523809312 1 0.4047619047619047672 1 0.4077380952380952328 1 0.4107142857142856984 1 
	0.4166666666666666297 1 0.4285714285714285476 1 0.4444444444444444198 1 0.4484126984126983739 1 0.4523809523809523281 1 
	0.4603174603174602919 1 0.4682539682539682557 1 0.476190476190476164 1 0.4920634920634920362 1 0.5079365079365079083 1 
	0.5238095238095237249 1 0.5476190476190475609 1 0.5595238095238095344 1 0.5714285714285713969 1 0.5833333333333332593 1 
	0.5952380952380951218 1 0.6071428571428569843 1 0.6190476190476189577 1 0.6349206349206348854 1 0.650793650793650702 1 
	0.6587301587301586103 1 0.6666666666666666297 1 0.6785714285714286031 1 0.6904761904761904656 1 0.7023809523809523281 1 
	0.7142857142857141906 1 0.7232142857142855874 1 0.7321428571428569843 1 0.7410714285714283811 1 0.749999999999999889 1 
	0.7678571428571427937 1 0.7857142857142855874 1 0.7976190476190474499 1 0.8095238095238094234 1 0.8333333333333332593 1 
	0.8571428571428570953 1 0.875 1 0.8928571428571427937 1 0.9107142857142856984 1 0.9285714285714286031 1 
	0.9464285714285713969 1 0.9642857142857143016 1 0.9821428571428572063 1 0.9910714285714286031 1 0.9955357142857143016 1 
	0.9977678571428572063 1 0.9988839285714286031 1 0.9994419642857143016 1 0.9997209821428572063 1 1 3 
	0 3 1 3 
	3508.306743214920516 3593.082805867427851 13999.99989876013387 
	3508.306743212393485 3593.082805842280777 14002.33739329263699 
	3508.303468116490421 3593.05018337945512 14007.0123819899145 
	3508.283821249204266 3592.854485537000983 14016.36052194867625 
	3508.215060868776163 3592.169579496062852 14032.71010492763162 
	3507.940230496828917 3589.432058544832671 14065.33209752092262 
	3507.156788635786597 3581.628377701759746 14111.49409132370602 
	3505.861918899744069 3568.730483598266346 14156.48753224978464 
	3504.529037284302831 3555.453962061714719 14191.44195176307767 
	3503.002552056558216 3540.249000294651523 14225.59357259911303 
	3500.740083756097647 3517.713083552807802 14266.57473025100262 
	3497.492133235723031 3485.361009268116504 14312.39947820652014 
	3493.752124228963112 3448.107655669489304 14354.29602146224897 
	3489.722019401572197 3407.964725549231389 14390.34994552149692 
	3485.503774399920076 3365.947775231422384 14420.70976510512264 
	3481.184510384156511 3322.924598171922298 14445.67394118808988 
	3477.017258331674384 3281.415576669962775 14464.49779704747561 
	3473.096389787662247 3242.360723580798094 14478.23143757899015 
	3468.281538729003387 3194.401120081019144 14491.1487066807822 
	3462.107291683431413 3132.900891597655573 14500.46617494476232 
	3454.614460107216019 3058.26655148879172 14500.46540919072322 
	3447.205318523320784 2984.465827787670605 14489.28636993665168 
	3441.238733929139016 2925.034076337487932 14470.86112099557431 
	3436.669962848176056 2879.525617849716582 14450.90446193265598 
	3433.915516220674817 2852.089220231547642 14436.33154769034627 
	3431.781868437557932 2830.836454477720508 14423.46087143810655 
	3429.697767511028815 2810.077213355791173 14409.80086379943532 
	3427.692410101094993 2790.102317956930619 14394.98463392428675 
	3425.774205388715473 2770.995530162485011 14379.07435071954933 
	3424.381123712980298 2757.119369924284911 14366.6115264710952 
	3423.259822290716784 2745.950349125546381 14355.79857036855537 
	3422.387492138108428 2737.261272821469447 14346.90084932343962 
	3420.248538415982239 2715.955655851974825 14324.25267734891349 
	3418.302010349201737 2696.566745759526384 14299.81751709637501 
	3416.572329373369485 2679.337798742433279 14273.90196940825626 
	3415.899916511615629 2672.640051741301249 14263.40823064095821 
	3414.774973907226922 2661.434761980309304 14244.71846890329653 
	3413.125078235431829 2645.000537686953521 14213.46793753971178 
	3411.833563375632821 2632.136060710033689 14182.79587195363274 
	3411.010911760343788 2623.941820678827298 14159.25988396473986 
	3410.501709298573132 2618.869774239398339 14143.43727559271429 
	3409.939397622692923 2613.268719359221905 14123.42991442576022 
	3409.385013114501817 2607.746625139436674 14099.1141950754045 
	3408.80816331288861 2602.000759394421493 14066.36475512258585 
	3408.394292612164463 2597.87829029499153 14024.96430040302039 
	3408.394339109280281 2597.878753441809749 13975.03583110914042 
	3408.973545350845598 2603.648091133073649 13917.0749215708056 
	3410.177690455435823 2615.642298444962762 13864.25992752524871 
	3411.824205159878147 2632.042845714631312 13817.15916021416524 
	3413.319170103966826 2646.933841322299031 13782.85569860301257 
	3415.066106136999679 2664.334661921957377 13749.76678889361028 
	3417.055126199404185 2684.146824829207617 13718.07718356168334 
	3419.275165653033127 2706.260117775387243 13687.96428445488345 
	3421.984724680000454 2733.249400520120616 13656.44430417549302 
	3425.257526579301157 2765.849013574353648 13624.48721996050881 
	3428.507010632443325 2798.216363025545888 13598.54593144906721 
	3431.251680100117028 2825.555372645604621 13579.81305535788852 
	3433.731879305210441 2850.260055932949399 13564.64029108769137 
	3436.669936958233848 2879.525359965005919 13549.09536025502166 
	3440.09655460998556 2913.657095698015382 13534.12892756505789 
	3443.625316411933909 2948.80626538297247 13521.76788688369015 
	3446.935554591734217 2981.778772457679224 13512.88855381234316 
	3449.990222207555689 3012.20560101302226 13506.80594919915166 
	3452.765758327479489 3039.852066125132296 13502.88322306047849 
	3455.558898931932617 3067.673885383677316 13500.5248164776367 
	3459.294842487145161 3104.886743980099254 13499.47511767367541 
	3463.964762863727628 3151.402726905345844 13502.10030129468032 
	3468.883379804081414 3200.395918044291193 13510.46652324719071 
	3473.096379994604831 3242.360626032129403 13521.76839736269721 
	3477.801447007804654 3289.2266963731131 13538.24840784112712 
	3483.427178608108989 3345.263290996460455 13565.36800076697 
	3489.102049409931169 3401.789349692844098 13604.10246200515212 
	3493.752108304173817 3448.107497044002685 13645.70391114398444 
	3497.492157014523855 3485.361246122238754 13687.60003207818409 
	3500.740077793710043 3517.713024161665544 13733.42506251276609 
	3503.455071113680788 3544.756436618559746 13782.60228693596036 
	3505.602965970818786 3566.151114130750102 13834.51347336295294 
	3507.156782431095053 3581.628315896682125 13888.50571281990415 
	3507.940233604609602 3589.4320894997918 13934.6676861974247 
	3508.215060656799324 3592.169577384283457 13967.28969280043202 
	3508.283821480804818 3592.854487843736024 13983.63927492853509 
	3508.301012275440826 3593.025721321846959 13991.8188979749757 
	3508.305310525840468 3593.068535187124326 13995.90931202079264 
	3508.306385030940419 3593.079238080705181 13997.95459464082342 
	3508.306692042573104 3593.082296151661922 13999.12333830469834 
	3508.306743215236111 3593.082805870571519 13999.70771194357076 
	3508.306743214920516 3593.082805867427851 13999.99989876013387 
	3624.389879473490964 3581.428768496408793 13999.99989876013387 
	3624.389879470963933 3581.428768471261719 14002.33739329263699 
	3624.386604375060415 3581.396146008436062 14007.0123819899145 
	3624.366957507774714 3581.200448165981925 14016.36052194867625 
	3624.298197127346157 3580.515542125043794 14032.71010492763162 
	3624.023366755398911 3577.778021173814068 14065.33209752092262 
	3623.239924894355681 3569.974340330741143 14111.49409132370602 
	3621.945055158313153 3557.076446227247743 14156.48753224978464 
	3620.612173542871005 3543.799924690696116 14191.44195176307767 
	3619.08568831512639 3528.59496292363292 14225.59357259911303 
	3616.823220014664912 3506.059046181789199 14266.57473025100262 
	3613.575269494290296 3473.706971897097901 14312.39947820652014 
	3609.835260487529922 3436.453618298470701 14354.29602146224897 
	3605.805155660138553 3396.310688178212786 14390.34994552149692 
	3601.586910658486431 3354.29373786040378 14420.70976510512264 
	3597.267646642722411 3311.270560800903695 14445.67394118808988 
	3593.10039459023983 3269.761539298944172 14464.49779704747561 
	3589.179526046227693 3230.706686209779491 14478.23143757899015 
	3584.364674987568833 3182.747082710000541 14491.1487066807822 
	3578.190427941996859 3121.24685422663697 14500.46617494476232 
	3570.697596365781465 3046.612514117773117 14500.46540919072322 
	3563.28845478188623 2972.811790416652002 14489.28636993665168 
	3557.321870187704462 2913.380038966469328 14470.86112099557431 
	3552.753099106741956 2867.871580478697979 14450.90446193265598 
	3549.998652479240718 2840.435182860529039 14436.33154769034627 
	3547.865004696123833 2819.182417106701905 14423.46087143810655 
	3545.78090376959517 2798.42317598477257 14409.80086379943532 
	3543.775546359661348 2778.448280585912016 14394.98463392428675 
	3541.857341647282283 2759.341492791466408 14379.07435071954933 
	3540.464259971547108 2745.465332553266308 14366.6115264710952 
	3539.342958549283594 2734.296311754527778 14355.79857036855537 
	3538.470628396675238 2725.607235450450844 14346.90084932343962 
	3536.331674674549049 2704.301618480956222 14324.25267734891349 
	3534.385146607769457 2684.912708388507781 14299.81751709637501 
	3532.655465631937204 2667.683761371414676 14273.90196940825626 
	3531.983052770183349 2660.986014370282646 14263.40823064095821 
	3530.858110165795097 2649.780724609290701 14244.71846890329653 
	3529.208214494000003 2633.346500315934918 14213.46793753971178 
	3527.91669963420145 2620.482023339015086 14182.79587195363274 
	3527.094048018912417 2612.287783307808695 14159.25988396473986 
	3526.584845557142216 2607.215736868379736 14143.43727559271429 
	3526.022533881262007 2601.614681988203301 14123.42991442576022 
	3525.468149373071356 2596.09258776841807 14099.1141950754045 
	3524.891299571458148 2590.34672202340289 14066.36475512258585 
	3524.477428870734911 2586.224252923972472 14024.96430040302039 
	3524.477475367851184 2586.224716070790691 13975.03583110914042 
	3525.056681609416955 2591.994053762054591 13917.0749215708056 
	3526.260826714007635 2603.988261073943704 13864.25992752524871 
	3527.907341418450869 2620.388808343612254 13817.15916021416524 
	3529.402306362539548 2635.279803951279973 13782.85569860301257 
	3531.149242395572855 2652.680624550938319 13749.76678889361028 
	3533.138262457977817 2672.492787458188559 13718.07718356168334 
	3535.358301911606759 2694.606080404368186 13687.96428445488345 
	3538.06786093857454 2721.595363149101559 13656.44430417549302 
	3541.340662837875698 2754.194976203334136 13624.48721996050881 
	3544.590146891017866 2786.562325654526376 13598.54593144906721 
	3547.334816358691569 2813.901335274585108 13579.81305535788852 
	3549.815015563785437 2838.606018561929886 13564.64029108769137 
	3552.753073216808843 2867.871322593986406 13549.09536025502166 
	3556.179690868561011 2902.00305832699587 13534.12892756505789 
	3559.708452670509359 2937.152228011952957 13521.76788688369015 
	3563.018690850309667 2970.124735086659712 13512.88855381234316 
	3566.07335846613114 3000.551563642002748 13506.80594919915166 
	3568.848894586054939 3028.198028754112784 13502.88322306047849 
	3571.642035190508068 3056.019848012657803 13500.5248164776367 
	3575.377978745721066 3093.232706609079742 13499.47511767367541 
	3580.047899122303079 3139.748689534326331 13502.10030129468032 
	3584.966516062656865 3188.74188067327168 13510.46652324719071 
	3589.179516253180282 3230.70658866110989 13521.76839736269721 
	3593.88458326637965 3277.572659002093587 13538.24840784112712 
	3599.510314866683984 3333.609253625440942 13565.36800076697 
	3605.18518566850571 3390.135312321824586 13604.10246200515212 
	3609.835244562747903 3436.453459672983627 13645.70391114398444 
	3613.575293273097486 3473.707208751219696 13687.60003207818409 
	3616.82321405228322 3506.058986790646486 13733.42506251276609 
	3619.53820737225351 3533.102399247540689 13782.60228693596036 
	3621.686102229391054 3554.497076759731044 13834.51347336295294 
	3623.239918689666865 3569.974278525663067 13888.50571281990415 
	3624.023369863180505 3577.778052128772742 13934.6676861974247 
	3624.298196915370227 3580.515540013264399 13967.28969280043202 
	3624.366957739375266 3581.200450472716966 13983.63927492853509 
	3624.384148534011274 3581.371683950827901 13991.8188979749757 
	3624.388446784410917 3581.414497816105268 13995.90931202079264 
	3624.389521289510867 3581.425200709686123 13997.95459464082342 
	3624.389828301143552 3581.428258780642864 13999.12333830469834 
	3624.389879473806559 3581.428768499552461 13999.70771194357076 
	3624.389879473490964 3581.428768496408793 13999.99989876013387 
	3740.473015733022294 3569.774731125294238 13999.99989876013387 
	3740.473015730495263 3569.77473110014671 14002.33739329263699 
	3740.469740634589016 3569.742108637321508 14007.0123819899145 
	3740.450093767299222 3569.54641079486737 14016.36052194867625 
	3740.381333386858387 3568.861504753931513 14032.71010492763162 
	3740.106503014868849 3566.12398380270497 14065.33209752092262 
	3739.323061153701019 3558.320302959645232 14111.49409132370602 
	3738.028191417547532 3545.422408856161383 14156.48753224978464 
	3736.695309802069914 3532.145887319613848 14191.44195176307767 
	3735.168824574295741 3516.940925552553836 14225.59357259911303 
	3732.906356273736492 3494.40500881071921 14266.57473025100262 
	3729.658405753290936 3462.052934526035187 14312.39947820652014 
	3725.918396746430062 3424.799580927417992 14354.29602146224897 
	3721.888291919029143 3384.656650807161896 14390.34994552149692 
	3717.670046917301534 3342.639700489359711 14420.70976510512264 
	3713.350782901531147 3299.616523429860536 14445.67394118808988 
	3709.183530849036742 3258.107501927901922 14464.49779704747561 
	3705.262662304999594 3219.05264883873997 14478.23143757899015 
	3700.447811246320271 3171.093045338962384 14491.1487066807822 
	3694.273564200734654 3109.592816855600176 14500.46617494476232 
	3686.780732624486518 3034.958476746739507 14500.46540919072322 
	3679.37159104057082 2961.157753045620211 14489.28636993665168 
	3673.405006446372226 2901.726001595439357 14470.86112099557431 
	3668.836235365396988 2856.217543107668916 14450.90446193265598 
	3666.081788737887109 2828.781145489501341 14436.33154769034627 
	3663.94814095476795 2807.528379735674207 14423.46087143810655 
	3661.864040028237923 2786.769138613745326 14409.80086379943532 
	3659.858682618300008 2766.794243214885228 14394.98463392428675 
	3657.940477905918215 2747.687455420440074 14379.07435071954933 
	3656.547396230181221 2733.811295182239974 14366.6115264710952 
	3655.426094807916797 2722.64227438350099 14355.79857036855537 
	3654.553764655308441 2713.95319807942451 14346.90084932343962 
	3652.414810933181798 2692.647581109929888 14324.25267734891349 
	3650.468282866395384 2673.258671017482811 14299.81751709637501 
	3648.738601890562222 2656.029724000389706 14273.90196940825626 
	3648.066189028808367 2649.331976999257222 14263.40823064095821 
	3646.941246424419205 2638.126687238265731 14244.71846890329653 
	3645.291350752621383 2621.692462944910403 14213.46793753971178 
	3643.999835892821011 2608.827985967991481 14182.79587195363274 
	3643.177184277531524 2600.633745936784635 14159.25988396473986 
	3642.667981815761323 2595.56169949735613 14143.43727559271429 
	3642.105670139880658 2589.960644617179696 14123.42991442576022 
	3641.551285631689552 2584.438550397394465 14099.1141950754045 
	3640.97443583007589 2578.692684652379285 14066.36475512258585 
	3640.560565129352653 2574.570215552949321 14024.96430040302039 
	3640.560611626468926 2574.570678699767541 13975.03583110914042 
	3641.139817868036971 2580.340016391030531 13917.0749215708056 
	3642.343962972630379 2592.334223702919189 13864.25992752524871 
	3643.990477677074978 2608.734770972587739 13817.15916021416524 
	3645.48544262116684 2623.625766580254549 13782.85569860301257 
	3647.23237865420333 2641.026587179912894 13749.7667888936121 
	3649.221398716609656 2660.83875008716268 13718.07718356168334 
	3651.44143817024451 2682.952043033342761 13687.96428445488345 
	3654.15099719721502 2709.941325778075225 13656.44430417549302 
	3657.423799096525727 2742.540938832307802 13624.48721996050881 
	3660.673283149672898 2774.908288283499587 13598.54593144906721 
	3663.417952617349329 2802.247297903558319 13579.81305535788852 
	3665.898151822445925 2826.951981190902643 13564.64029108769137 
	3668.836209475476608 2856.217285222958253 13549.09536025502166 
	3672.262827127231958 2890.349020955967717 13534.12892756505789 
	3675.791588929191221 2925.498190640923895 13521.76788688369015 
	3679.101827109000169 2958.470697715629285 13512.88855381234316 
	3682.156494724828008 2988.897526270971412 13506.80594919915166 
	3684.932030844758174 3016.543991383080538 13502.88322306047849 
	3687.725171449217669 3044.365810641625103 13500.5248164776367 
	3691.461115004438398 3081.578669238046132 13499.47511767367541 
	3696.131035381050879 3128.094652163290448 13502.10030129468032 
	3701.049652321435133 3177.087843302232613 13510.46652324719071 
	3705.262652511977194 3219.052551290069005 13521.76839736269721 
	3709.967719525189295 3265.918621631051337 13538.24840784112712 
	3715.593451125518641 3321.955216254396419 13565.36800076697 
	3721.268321927392208 3378.48127495077506 13604.10246200515212 
	3725.918380821675782 3424.799422301929553 13645.70391114398444 
	3729.658429532110404 3462.053171380157437 13687.60003207818409 
	3732.906350311369351 3494.404949419577406 13733.42506251276609 
	3735.621343631426043 3521.448361876462968 13782.60228693596036 
	3737.769238488659994 3542.843039388643319 13834.51347336295294 
	3739.323054949032212 3558.320241154566702 13888.50571281990415 
	3740.106506122659994 3566.124014757665464 13934.6676861974247 
	3740.381333174887004 3568.861502642153482 13967.28969280043202 
	3740.450093998902503 3569.546413101604685 13983.63927492853509 
	3740.467284793541239 3569.71764657971471 13991.8188979749757 
	3740.471583043942246 3569.760460444992077 13995.90931202079264 
	3740.472657549042196 3569.771163338572933 13997.95459464082342 
	3740.472964560675337 3569.774221409528764 13999.12333830469834 
	3740.473015733337888 3569.774731128437907 13999.70771194357076 
	3740.473015733022294 3569.774731125294238 13999.99989876013387 
	3856.556151991592742 3558.12069375427518 13999.99989876013387 
	3856.556151989065711 3558.120693729127652 14002.33739329263699 
	3856.552876893159464 3558.08807126630245 14007.0123819899145 
	3856.53323002586967 3557.892373423848312 14016.36052194867625 
	3856.46446964542929 3557.207467382912455 14032.71010492763162 
	3856.189639273439752 3554.469946431685912 14065.33209752092262 
	3855.406197412272832 3546.666265588626175 14111.49409132370602 
	3854.111327676119345 3533.768371485142325 14156.48753224978464 
	3852.778446060642182 3520.49184994859479 14191.44195176307767 
	3851.251960832868463 3505.286888181534778 14225.59357259911303 
	3848.989492532309669 3482.750971439700152 14266.57473025100262 
	3845.741542011864567 3450.39889715501613 14312.39947820652014 
	3842.001533005004148 3413.145543556398479 14354.29602146224897 
	3837.971428177603684 3373.002613436142383 14390.34994552149692 
	3833.753183175876529 3330.985663118340199 14420.70976510512264 
	3829.433919160106143 3287.962486058841023 14445.67394118808988 
	3825.266667107611738 3246.453464556882409 14464.49779704747561 
	3821.345798563575045 3207.398611467720457 14478.23143757899015 
	3816.530947504895721 3159.439007967942871 14491.1487066807822 
	3810.356700459310559 3097.938779484580664 14500.46617494476232 
	3802.863868883061969 3023.304439375719994 14500.46540919072322 
	3795.454727299146725 2949.503715674600699 14489.28636993665168 
	3789.488142704947222 2890.071964224419844 14470.86112099557431 
	3784.919371623971983 2844.563505736649404 14450.90446193265598 
	3782.164924996462105 2817.127108118481829 14436.33154769034627 
	3780.031277213342946 2795.874342364654694 14423.46087143810655 
	3777.947176286812464 2775.115101242725814 14409.80086379943532 
	3775.941818876874549 2755.140205843865715 14394.98463392428675 
	3774.023614164492756 2736.033418049420561 14379.07435071954933 
	3772.630532488755307 2722.157257811220461 14366.6115264710952 
	3771.509231066490884 2710.988237012481932 14355.79857036855537 
	3770.636900913882528 2702.299160708405452 14346.90084932343962 
	3768.497947191755429 2680.99354373891083 14324.25267734891349 
	3766.551419124969016 2661.604633646463753 14299.81751709637501 
	3764.821738149135399 2644.375686629370648 14273.90196940825626 
	3764.149325287381544 2637.677939628238164 14263.40823064095821 
	3763.024382682992382 2626.472649867246673 14244.71846890329653 
	3761.374487011194105 2610.038425573891345 14213.46793753971178 
	3760.082972151393278 2597.173948596972423 14182.79587195363274 
	3759.260320536103791 2588.979708565765577 14159.25988396473986 
	3758.751118074333135 2583.907662126337073 14143.43727559271429 
	3758.188806398452471 2578.306607246160638 14123.42991442576022 
	3757.63442189026091 2572.784513026375407 14099.1141950754045 
	3757.057572088647248 2567.038647281360227 14066.36475512258585 
	3756.643701387923556 2562.916178181930263 14024.96430040302039 
	3756.643747885039375 2562.916641328748483 13975.03583110914042 
	3757.22295412660651 2568.685979020011928 13917.0749215708056 
	3758.427099231199463 2580.680186331900586 13864.25992752524871 
	3760.073613935643607 2597.080733601569136 13817.15916021416524 
	3761.568578879735014 2611.971729209235946 13782.85569860301257 
	3763.31551491277105 2629.372549808894291 13749.7667888936121 
	3765.304534975177376 2649.184712716144077 13718.07718356168334 
	3767.524574428811775 2671.298005662324158 13687.96428445488345 
	3770.23413345578183 2698.287288407056622 13656.44430417549302 
	3773.506935355092082 2730.886901461289199 13624.48721996050881 
	3776.756419408239253 2763.254250912480984 13598.54593144906721 
	3779.501088875915229 2790.593260532539716 13579.81305535788852 
	3781.981288081011826 2815.29794381988404 13564.64029108769137 
	3784.919345734042508 2844.56324785193965 13549.09536025502166 
	3788.345963385797859 2878.694983584949114 13534.12892756505789 
	3791.874725187756667 2913.844153269905291 13521.76788688369015 
	3795.184963367565615 2946.816660344610682 13512.88855381234316 
	3798.239630983393454 2977.243488899952808 13506.80594919915166 
	3801.015167103323165 3004.88995401206239 13502.88322306047849 
	3803.808307707783115 3032.7117732706065 13500.5248164776367 
	3807.544251263003389 3069.924631867027983 13499.47511767367541 
	3812.214171639616325 3116.440614792271845 13502.10030129468032 
	3817.132788580000579 3165.43380593121401 13510.46652324719071 
	3821.34578877054264 3207.398513919050401 13521.76839736269721 
	3826.050855783754741 3254.264584260032734 13538.24840784112712 
	3831.676587384084542 3310.301178883377816 13565.36800076697 
	3837.351458185958563 3366.827237579756456 13604.10246200515212 
	3842.001517080242593 3413.14538493091095 13645.70391114398444 
	3845.741565790677669 3450.399134009138834 13687.60003207818409 
	3848.989486569937071 3482.750912048558803 13733.42506251276609 
	3851.704479889994218 3509.794324505444365 13782.60228693596036 
	3853.852374747229078 3531.189002017624716 13834.51347336295294 
	3855.406191207601296 3546.666203783548099 13888.50571281990415 
	3856.189642381229987 3554.469977386646406 13934.6676861974247 
	3856.464469433456998 3557.207465271134424 13967.28969280043202 
	3856.533230257472951 3557.892375730585627 13983.63927492853509 
	3856.550421052111687 3558.063609208695652 13991.8188979749757 
	3856.554719302512694 3558.106423073973019 13995.90931202079264 
	3856.555793807612645 3558.117125967553875 13997.95459464082342 
	3856.556100819245785 3558.120184038509706 13999.12333830469834 
	3856.556151991908337 3558.120693757418849 13999.70771194357076 
	3856.556151991592742 3558.12069375427518 13999.99989876013387 
	0 
	
	0 
	0 
	84 0 0.002232142857142857019 0.004464285714285714038 0.008928571428571428076 0.01785714285714285615 0.0357142857142857123 0.05357142857142856845 0.0625 0.07142857142857142461 0.08928571428571427382 0.1071428571428571369 0.125 0.1428571428571428492 0.1587301587301587213 0.1746031746031745935 0.1904761904761904656 0.2023809523809523836 0.2142857142857142738 0.238095238095238082 0.2619047619047618625 0.2857142857142856984 0.3095238095238095344 0.3214285714285713969 0.3333333333333333148 0.3392857142857143016 0.3452380952380952328 0.3571428571428570953 0.3630952380952380265 0.3690476190476190133 0.375 0.3779761904761904656 0.3809523809523809312 0.4047619047619047672 0.4077380952380952328 0.4107142857142856984 0.4166666666666666297 0.4285714285714285476 0.4444444444444444198 0.4484126984126983739 0.4523809523809523281 0.4603174603174602919 0.4682539682539682557 0.476190476190476164 0.4920634920634920362 0.5079365079365079083 0.5238095238095237249 0.5476190476190475609 0.5595238095238095344 0.5714285714285713969 0.5833333333333332593 0.5952380952380951218 0.6071428571428569843 0.6190476190476189577 0.6349206349206348854 0.650793650793650702 0.6587301587301586103 0.6666666666666666297 0.6785714285714286031 0.6904761904761904656 0.7023809523809523281 0.7142857142857141906 0.7232142857142855874 0.7321428571428569843 0.7410714285714283811 0.749999999999999889 0.7678571428571427937 0.7857142857142855874 0.7976190476190474499 0.8095238095238094234 0.8333333333333332593 0.8571428571428570953 0.875 0.8928571428571427937 0.9107142857142856984 0.9285714285714286031 0.9464285714285713969 0.9642857142857143016 0.9821428571428572063 0.9910714285714286031 0.9955357142857143016 0.9977678571428572063 0.9988839285714286031 0.9994419642857143016 0.9997209821428572063 
	0 
	0 
	0 
	F 1 F 0 F 1 F 0 } I I I I #
tcoedge-coedge $-1 -1 $-1 $14 $14 $18 $19 reversed $9 $20 -6.283185307179586232 -8.862649420354335083e-31 #
tcoedge-coedge $-1 -1 $-1 $21 $22 $11 $16 reversed $12 $23 -6.283185307179586232 -2.215662355088581581e-31 #
tedge-edge $-1 -1 $-1 $24 2.215662355088581581e-31 $24 6.283185307179586232 $15 $25 forward @7 unknown 0.0006640254261845325969 #
pcurve $-1 -1 $-1 0 forward { exppc nurbs 2 periodic 5 
	2.215662355088581581e-31 2 1.570796326794896558 2 3.141592653589793116 2 4.712388980384689674 2 6.283185307179586232 2 
	0 500 1 
	-500 500 0.7071067811865466846 
	-500 4.54747350886464119e-13 1 
	-500 -499.9999999999990905 0.7071067811865463515 
	0 -499.9999999999995453 1 
	500 -500.0000000000004547 0.7071067811865454633 
	500 -4.54747350886464119e-13 1 
	500 499.9999999999990905 0.7071067811865463515 
	0 500 1 
	0 
	plane 3806.610273177178442 3060.62149495611493 14000.00000000000909 0.9949983108038356061 -0.09989174889606429464 5.19711258164362649e-15 5.223237592679933738e-15 0 -1 forward_v I I I I 
	} 0 0 #
tcoedge-coedge $-1 -1 $-1 $22 $21 $14 $19 forward $12 $26 8.862649420354335083e-31 6.283185307179586232 #
tedge-edge $-1 -1 $-1 $27 8.862649420354335083e-31 $27 6.283185307179586232 $18 $28 forward @7 unknown 0.0006640254262024538083 #
pcurve $-1 -1 $-1 0 forward { exppc nurbs 2 periodic 5 
	-6.283185307179586232 2 -4.712388980384689674 2 -3.141592653589793116 2 -1.570796326794896558 2 -8.862649420354335083e-31 2 
	0 500 1 
	500 499.9999999999995453 0.7071067811865463515 
	500 -4.54747350886464119e-13 1 
	500 -500 0.7071067811865454633 
	0 -499.9999999999995453 1 
	-500 -499.9999999999986358 0.7071067811865463515 
	-500 9.094947017729282379e-13 1 
	-500 500 0.7071067811865466846 
	0 500 1 
	0 
	plane 3458.360864401467552 3095.583607069171649 14000.00000000000728 -0.9949983108038356061 0.09989174889606443342 -5.197112581643632801e-15 5.223237592679940048e-15 0 -1 reverse_v I I I I 
	} 0 0 #
coedge $-1 -1 $-1 $18 $15 $22 $29 reversed $12 $30 #
coedge $-1 -1 $-1 $15 $18 $21 $29 forward $12 $31 #
pcurve $-1 -1 $-1 0 forward { exppc nubs 1 periodic 2 
	-6.283185307179586232 1 -2.215662355088581581e-31 1 
	1 1 
	0 1 
	0 
	spline forward { ref 0 } I I I I 
	} 0 0 #
tvertex-vertex $-1 -1 $-1 $16 $32 0.0001102352653072429081 #
ellipse-curve $-1 -1 $-1 3806.610273177178442 3060.62149495611493 14000.00000000000909 0.9949983108038356061 -0.09989174889606429464 5.19711258164362649e-15 49.94587444803214282 497.4991554019177329 4.484155085839414627e-44 1 I I #
pcurve $-1 -1 $-1 0 forward { exppc nubs 1 periodic 2 
	8.862649420354335083e-31 1 6.283185307179586232 1 
	0 0 
	1 0 
	4.41372536986070037e-13 
	spline forward { ref 0 } I I I I 
	} 0 0 #
tvertex-vertex $-1 -1 $-1 $19 $33 0.000110235263335961968 #
ellipse-curve $-1 -1 $-1 3458.360864401467552 3095.583607069171649 14000.00000000000728 0.9949983108038356061 -0.09989174889606443342 5.197112581643632801e-15 49.94587444803220677 497.4991554019177329 4.484155085839414627e-44 1 I I #
edge $-1 -1 $-1 $27 0 $24 0.9999999999725247557 $22 $34 forward @7 tangent #
pcurve $-1 -1 $-1 -1 $34 0 0 #
pcurve $-1 -1 $-1 1 $34 1 0 #
point $-1 -1 $-1 3856.556147625210542 3558.120650358032435 14000.00000000000909 #
point $-1 -1 $-1 3508.306738849499652 3593.082762471089154 14000.00000000000728 #
intcurve-curve $-1 -1 $-1 forward { parcur full nubs 3 open 2 
	0 3 1 3 
	3508.306743214920516 3593.082805867427851 13999.99989876013387 
	3624.389879473490964 3581.428768496408793 13999.99989876013387 
	3740.473015733022294 3569.774731125294238 13999.99989876013387 
	3856.556151991592742 3558.12069375427518 13999.99989876013387 
	0 
	
	spline forward { ref 0 } I I I I 
	null_surface 
	nubs 1 open 2 
	0 1 1 1 
	0 0 
	0 1 
	
	nullbs 
	I I 
	0 
	0 
	0 
	surf1 } F 0 F 0.9999999999725247557 #
End-of-ACIS-data 