700 0 1 0           
4 LibG 20 ASM 224.0.1.65535 NT 24 Wed Jul 17 15:51:18 2019 
1000 9.999999999999999547e-07 1.000000000000000036e-10 
body $-1 -1 $-1 $1 $-1 $2 #
lump $-1 -1 $-1 $-1 $3 $0 #
transform $-1 -1 1 0 0 0 1 0 0 0 1 0 0 0 1 no_rotate no_reflect no_shear #
shell $-1 -1 $-1 $-1 $-1 $4 $-1 $1 #
face $-1 -1 $-1 $5 $6 $3 $-1 $7 forward single #
face $-1 -1 $-1 $8 $9 $3 $-1 $10 reversed single #
loop $-1 -1 $-1 $-1 $11 $4 #
plane-surface $-1 -1 $-1 9707.958330395176745 107.5033399785961592 14000.00000000000728 0.6964551467160913223 -0.7176003265137690379 1.559133774493087789e-14 2.238670762711250175e-14 0 -1 forward_v I I I I #
face $-1 -1 $-1 $-1 $12 $3 $-1 $13 forward single #
loop $-1 -1 $-1 $-1 $14 $5 #
plane-surface $-1 -1 $-1 9464.199029048482771 358.6634542543542921 14000.00000000000182 0.6964551467160911002 -0.7176003265137690379 1.559133774493088105e-14 2.238670762711251438e-14 0 -1 forward_v I I I I #
tcoedge-coedge $-1 -1 $-1 $11 $11 $15 $16 forward $6 $17 5.116702932012548391e-29 6.283185307179586232 #
loop $-1 -1 $-1 $-1 $18 $8 #
spline-surface $-1 -1 $-1 forward { exactsur full nubs 3 3 periodic open none none 84 2 
	-8.716473498753939765e-30 3 0.002232142857142857019 1 0.004464285714285714038 1 0.008928571428571428076 1 0.01785714285714285615 1 
	0.0357142857142857123 1 0.05357142857142856845 1 0.0625 1 0.0669642857142857123 1 0.07142857142857142461 1 
	0.08928571428571427382 1 0.1071428571428571369 1 0.125 1 0.1428571428571428492 1 0.1587301587301587213 1 
	0.1746031746031745935 1 0.1825396825396825295 1 0.1904761904761904656 1 0.2023809523809523836 1 0.2142857142857142738 1 
	0.238095238095238082 1 0.2619047619047618625 1 0.2857142857142856984 1 0.3095238095238095344 1 0.3333333333333333148 1 
	0.3348214285714286031 1 0.336309523809523836 1 0.3377976190476190688 1 0.3392857142857143016 1 0.3422619047619047672 1 
	0.3452380952380952328 1 0.3571428571428570953 1 0.3690476190476190133 1 0.375 1 0.3779761904761904656 1 
	0.3809523809523809312 1 0.4047619047619047672 1 0.4166666666666666297 1 0.4285714285714285476 1 0.4444444444444444198 1 
	0.4603174603174602919 1 0.4682539682539682557 1 0.476190476190476164 1 0.4920634920634920362 1 0.5079365079365079083 1 
	0.5238095238095237249 1 0.5357142857142855874 1 0.5476190476190475609 1 0.5595238095238095344 1 0.5654761904761904656 1 
	0.5714285714285713969 1 0.5952380952380951218 1 0.6071428571428569843 1 0.6190476190476189577 1 0.6349206349206348854 1 
	0.650793650793650702 1 0.6666666666666666297 1 0.6785714285714286031 1 0.6904761904761904656 1 0.7023809523809523281 1 
	0.7142857142857141906 1 0.7232142857142855874 1 0.7321428571428569843 1 0.749999999999999889 1 0.7678571428571427937 1 
	0.7857142857142855874 1 0.7976190476190474499 1 0.8095238095238094234 1 0.8333333333333332593 1 0.8571428571428570953 1 
	0.875 1 0.8928571428571427937 1 0.9107142857142856984 1 0.9285714285714286031 1 0.9464285714285713969 1 
	0.9642857142857143016 1 0.9821428571428572063 1 0.9910714285714286031 1 0.9955357142857143016 1 0.9977678571428572063 1 
	0.9988839285714286031 1 0.9994419642857143016 1 0.9997209821428572063 1 1 3 
	0 3 1 3 
	9822.999242337187752 706.8910761974599382 13999.99991982920255 
	9822.999242321582642 706.8910761823113944 14002.33741436632954 
	9822.975714830559809 706.8682419643278081 14007.01240315744872 
	9822.834575965174736 706.7312619691595046 14016.36054306467486 
	9822.34061751453919 706.2518587515368154 14032.71012701072505 
	9820.366293593144292 704.3357112715663106 14065.33211752235729 
	9814.738239230751788 698.8734960458959904 14111.49412910103092 
	9805.436153464801464 689.8455103135698891 14156.48754896928949 
	9797.057955757845775 681.7141888824312446 14187.07269942414678 
	9791.748795983970922 676.5614715371293642 14204.24882433733183 
	9783.269788958472418 668.3323112873011951 14229.69172486258503 
	9768.641987580236673 654.1355402150257987 14266.57471300772886 
	9745.309488048022104 631.4905680961949201 14312.39955525252481 
	9718.442004608919888 605.4147757215638421 14354.29595234532098 
	9689.49060236810692 577.3164703674453904 14390.34986746667164 
	9659.187727407417697 547.9065154830019537 14420.70975914365044 
	9633.330450436673345 522.8111623154297831 14441.51310421627204 
	9611.830010703382868 501.9442655822924166 14455.94146986068154 
	9592.589082474702082 483.270300426996755 14467.24445333228505 
	9570.055818515927967 461.4010131974530964 14478.231565620943 
	9535.466910330409519 427.8313195457204188 14491.14845031660843 
	9491.112544749619701 384.783922482096159 14500.46611719205794 
	9437.285613398908026 332.5430831363644302 14500.4653446163411 
	9384.060113381347037 280.8859530394452122 14489.28603907506658 
	9332.624639105053575 230.9661028659959641 14467.17642769658596 
	9299.2835400636759 198.6074497731178496 14444.8015229245666 
	9281.898763186778524 181.7349416608573733 14430.66276564446707 
	9279.017215929317899 178.9383035549146541 14428.26871141892661 
	9276.151867430535276 176.157386886708224 14425.83719227731854 
	9272.353315280863171 172.470764825698609 14422.54554665325486 
	9267.646854333170268 167.9029868736419644 14418.33844161353227 
	9256.488777482092701 157.0736996461097874 14407.94888952645488 
	9240.281943225601935 141.34442429202781 14391.28068057741621 
	9223.317976199448822 124.8803262313514608 14370.93679721405715 
	9212.040755404850643 113.9354058169384558 14355.79861418298788 
	9205.774115914135109 107.8534223441501183 14346.90090687980774 
	9190.408381396437107 92.94046245195798406 14324.25269339981242 
	9172.23023307915355 75.29796078973355122 14292.4865963815937 
	9153.179275992602925 56.80836898972468418 14250.23305105582949 
	9139.235047243610097 43.2750280471594877 14213.46792992068549 
	9126.477702817115642 30.89359808402985053 14171.29381922191351 
	9117.67728740630082 22.35250023384242368 14131.53511148973666 
	9112.36734169554984 17.19902011073762793 14099.11409513545004 
	9108.223270571343164 13.17706031478562068 14066.36466104073224 
	9105.250281426175206 10.29167479485057335 14024.96427889494407 
	9105.250437113727457 10.29182589487029809 13975.03567121102606 
	9108.52043962675998 13.46547283435680953 13929.49524219972955 
	9114.068424252760451 18.84997769586437855 13888.63569277221904 
	9121.019460745115794 25.59619137677488254 13852.48489776375936 
	9128.411323343478216 32.77024155525094784 13823.04662811210801 
	9135.259740251476615 39.41685949315212412 13800.00741105361521 
	9146.451463696110295 50.27880186647900018 13766.00722466953812 
	9162.151096814954144 65.51582153228164884 13728.11429275619048 
	9183.416357536782016 86.15446915949121376 13687.96452146167576 
	9202.880892713292269 105.0454523451551836 13656.44425008386861 
	9226.3921678130082 127.8639321371328919 13624.48740736058971 
	9254.404280543756613 155.0506255666034008 13593.35757487212868 
	9281.993240208817951 181.826634776014231 13568.52630392897481 
	9308.376290113124924 207.4322681811262044 13549.09541124742645 
	9332.992310261601233 231.3229400366350603 13534.1288691590853 
	9358.34217166885901 255.9258294076585685 13521.76790069603885 
	9382.122175852560758 279.0051197743350144 13512.88850020015161 
	9404.066243027535165 300.3025717951154547 13506.80599518330564 
	9430.651334550968386 326.1042933571717413 13501.57542095588906 
	9464.19900914194659 358.6634349385114433 13498.94977991224005 
	9504.456263509397104 397.7344483724011184 13502.1004143539576 
	9539.790480709911208 432.0274893812309074 13510.46652812469438 
	9570.055778137464586 461.4009740103703621 13521.76834038951529 
	9603.85593434015027 494.2051574501213054 13538.24839582972527 
	9644.269940475935073 533.4283037242041701 13565.36801493629537 
	9685.036964150032873 572.9940653412559186 13604.10246141096104 
	9718.441959150899493 605.4147316030085904 13645.70391970669334 
	9745.309643293976478 631.490718767660951 13687.60004027527975 
	9768.641988715169646 654.1355413167295865 13733.42507415297951 
	9788.145901273968775 673.0647415728960823 13782.60230016201422 
	9803.575903596532953 688.0400755246529343 13834.51348909620538 
	9814.738177993502177 698.8734366138271525 13888.50573048620572 
	9820.366318073851289 704.3357350312477365 13934.66770627334154 
	9822.340615011769842 706.251856322635831 13967.28971357644696 
	9822.83457763392471 706.7312635887996066 13983.63929592422392 
	9822.958072524401359 706.8511195154901543 13991.81891902324605 
	9822.988950212546115 706.8810873458423885 13995.90933308434251 
	9822.996669221547563 706.8885789025654276 13997.95461570791667 
	9822.998874726479698 706.890719418958156 13999.12335937335592 
	9822.999242339139528 706.8910761993535061 13999.707733012061 
	9822.999242337187752 706.8910761974599382 13999.99991982920255 
	9904.252342786086956 623.1710381055406742 13999.99991982920437 
	9904.252342770481846 623.1710380903920168 14002.33741436633136 
	9904.228815279457194 623.1482038724085442 14007.01240315745054 
	9904.08767641407394 623.0112238772402407 14016.36054306467668 
	9903.593717963436575 622.5318206596174377 14032.71012701072686 
	9901.619394042043496 620.6156731796470467 14065.33211752235911 
	9895.991339679649172 615.1534579539766128 14111.49412910103274 
	9886.689253913700668 606.1254722216506252 14156.48754896929131 
	9878.31105620674316 597.9941507905119806 14187.0726994241486 
	9873.001896432870126 592.8414334452099865 14204.24882433733364 
	9864.522889407369803 584.6122731953819311 14229.69172486258685 
	9849.895088029135877 570.4155021231065348 14266.57471300773068 
	9826.562588496919489 547.7705300042755425 14312.39955525252662 
	9799.695105057819092 521.6947376296445782 14354.2959523453228 
	9770.743702817004305 493.5964322755260127 14390.34986746667346 
	9740.440827856315082 464.1864773910826898 14420.70975914365226 
	9714.583550885572549 439.0911242235105192 14441.51310421627386 
	9693.083111152280253 418.2242274903730959 14455.94146986068336 
	9673.842182923601285 399.5502623350774911 14467.24445333228687 
	9651.308918964825352 377.6809751055337756 14478.23156562094482 
	9616.720010779306904 344.111281453801098 14491.14845031661025 
	9572.365645198517086 301.0638843901768951 14500.46611719205976 
	9518.53871384780723 248.8230450444449957 14500.46534461634292 
	9465.313213830244422 197.1659149475260051 14489.2860390750684 
	9413.877739553952779 147.2460647740765012 14467.17642769658778 
	9380.536640512573285 114.887411681198472 14444.80152292456842 
	9363.151863635675909 98.01490356893805256 14430.66276564446889 
	9360.270316378215284 95.21826546299533334 14428.26871141892843 
	9357.404967879432661 92.43734879478888899 14425.83719227732036 
	9353.606415729760556 88.7507267337792598 14422.54554665325668 
	9348.899954782067653 84.18294878172265783 14418.33844161353409 
	9337.741877930990086 73.35366155419038137 14407.9488895264567 
	9321.53504367449932 57.62438620010860291 14391.28068057741802 
	9304.571076648346207 41.16028813943205478 14370.93679721405897 
	9293.293855853748028 30.21536772501916346 14355.7986141829897 
	9287.027216363032494 24.1333842522307549 14346.90090687980955 
	9271.661481845334492 9.220424360038748546 14324.25269339981423 
	9253.483333528050935 -8.422077302185883241 14292.48659638159552 
	9234.43237644150031 -26.91166910219463659 14250.23305105583131 
	9220.488147692507482 -40.44501004475976202 14213.46792992068731 
	9207.730803266013027 -52.8264400078896017 14171.29381922191533 
	9198.930387855198205 -61.3675378580768438 14131.53511148973848 
	9193.620442144447225 -66.52101798118181364 14099.11409513545186 
	9189.476371020240549 -70.54297777713365747 14066.36466104073406 
	9186.503381875072591 -73.42836329706881315 14024.96427889494589 
	9186.503537562624842 -73.42821219704899249 13975.03567121102787 
	9189.773540075657365 -70.25456525756263204 13929.49524219973136 
	9195.321524701657836 -64.87006039605479657 13888.63569277222086 
	9202.272561194013178 -58.12384671514460877 13852.48489776376118 
	9209.664423792375601 -50.94979653666825925 13823.04662811210983 
	9216.512840700373999 -44.3031785987672535 13800.00741105361703 
	9227.70456414500768 -33.44123622544043428 13766.00722466953994 
	9243.404197263851529 -18.20421655963747298 13728.1142927561923 
	9264.669457985679401 2.434431067571679819 13687.96452146167758 
	9284.133993162189654 21.32541425323607598 13656.44425008387043 
	9307.645268261905585 44.14389404521330107 13624.48740736059153 
	9335.657380992653998 71.33058747468422212 13593.3575748721305 
	9363.246340657717155 98.10659668409478229 13568.52630392897663 
	9389.629390562022309 123.7122300892069404 13549.09541124742827 
	9414.245410710500437 147.6029019447156543 13534.12886915908712 
	9439.595272117756394 172.2057913157392193 13521.76790069604067 
	9463.375276301458143 195.2850816824157505 13512.88850020015343 
	9485.31934347643255 216.5825337031960771 13506.80599518330746 
	9511.90443499986759 242.3842552652524205 13501.57542095589088 
	9545.452109590843975 274.9433968465921225 13498.94977991224187 
	9585.709363958296308 314.0144102804817976 13502.10041435395942 
	9621.043581158808593 348.3074512893115866 13510.4665281246962 
	9651.30887858636379 377.6809359184510413 13521.76834038951711 
	9685.109034789047655 410.4851193582020414 13538.24839582972709 
	9725.523040924834277 449.7082656322846788 13565.36801493629719 
	9766.290064598930257 489.2740272493367115 13604.10246141096286 
	9799.695059599798697 521.6946935110892127 13645.70391970669516 
	9826.562743742873863 547.7706806757416871 13687.60004027528157 
	9849.89508916406885 570.4155032248102088 13733.42507415298132 
	9869.39900172286616 589.3447034809768184 13782.60230016201604 
	9884.829004045432157 604.3200374327336704 13834.51348909620719 
	9895.991278442399562 615.1533985219078886 13888.50573048620754 
	9901.619418522750493 620.6156969393283589 13934.66770627334336 
	9903.593715460667227 622.5318182307166808 13967.28971357644878 
	9904.087678082823913 623.011225496880229 13983.63929592422573 
	9904.211172973300563 623.1310814235708904 13991.81891902324787 
	9904.2420506614435 623.1610492539230108 13995.90933308434433 
	9904.249769670444948 623.1685408106461637 13997.95461570791849 
	9904.251975175378902 623.1706813270388921 13999.12335937335774 
	9904.252342788038732 623.1710381074342422 13999.70773301206282 
	9904.252342786086956 623.1710381055406742 13999.99991982920437 
	9985.505443234224003 539.4510000144035757 13999.99991982921529 
	9985.505443218615255 539.450999999255032 14002.33741436634591 
	9985.481915727594242 539.4281657812687172 14007.01240315746145 
	9985.340776862214625 539.2911857860981399 14016.36054306468941 
	9984.846818411589993 538.8117825684639683 14032.71012701073596 
	9982.872494490235113 536.8956350884564017 14065.33211752237003 
	9977.244440127942653 531.4334198626770558 14111.49412910104184 
	9967.942354362085098 522.4054341302567082 14156.48754896929859 
	9959.564156655158513 514.2741126990874818 14187.07269942415587 
	9954.254996881290936 509.1213953537792918 14204.24882433734092 
	9945.775989855801527 500.8922351039402656 14229.69172486259413 
	9931.148188477638541 486.6954640315903475 14266.57471300773796 
	9907.815688945476722 464.0504919127033645 14312.3995552525339 
	9880.94820550643999 437.974699538006405 14354.29595234532826 
	9851.996803265679773 409.8763941838347478 14390.34986746668437 
	9821.693928305036025 380.4664392993453816 14420.70975914365954 
	9795.836651334320777 355.3710861317455283 14441.51310421628114 
	9774.336211601033938 334.5041893986036143 14455.94146986069063 
	9755.095283372364065 315.8302242432964135 14467.24445333229414 
	9732.562019413593589 293.9609370137472411 14478.23156562095028 
	9697.973111228087873 260.3912433620004094 14491.14845031661753 
	9653.618745647310789 217.3438462983619104 14500.46611719206885 
	9599.791814296626399 165.1030069526021293 14500.46534461635383 
	9546.566314279087237 113.4458768556610835 14489.2860390750775 
	9495.130840002808327 63.52602668219326176 14467.17642769659687 
	9461.78974096145248 31.16737358929699298 14444.80152292457933 
	9444.404964084551466 14.294865477034989 14430.66276564447799 
	9441.52341682709266 11.49822737109241189 14428.26871141893571 
	9438.658068328310037 8.717310702885683327 14425.83719227732763 
	9434.859516178636113 5.030688641876224665 14422.54554665326577 
	9430.15305523094321 0.4629106898194237374 14418.33844161354136 
	9418.994978379867462 -10.36637653771273904 14407.94888952646215 
	9402.788144123376696 -26.09565189179501488 14391.28068057742348 
	9385.824177097223583 -42.55974995247180459 14370.93679721406079 
	9374.546956302625404 -53.5046703668846817 14355.79861418299515 
	9368.28031681190987 -59.58665383967303342 14346.90090687981137 
	9352.914582294213687 -74.49961373186545188 14324.25269339981605 
	9334.73643397693013 -92.14211539408921681 14292.48659638159734 
	9315.685476890379505 -110.6317071940981975 14250.23305105583313 
	9301.741248141386677 -124.1650481366625911 14213.46792992068731 
	9288.983903714892222 -136.5464780997920116 14171.29381922191715 
	9280.1834883040774 -145.0875759499783726 14131.53511148974212 
	9274.87354259332642 -150.241056073082774 14099.11409513545186 
	9270.729471469121563 -154.263015869034291 14066.36466104073588 
	9267.756482323949967 -157.1484013889669882 14024.96427889495135 
	9267.756638011502218 -157.1482502889462296 13975.03567121102969 
	9271.026640524532922 -153.9746033494581638 13929.49524219973318 
	9276.574625150531574 -148.5900984879484668 13888.63569277222268 
	9283.525661642885098 -141.8438848070363179 13852.48489776376118 
	9290.917524241245701 -134.6698346285582772 13823.04662811210983 
	9297.7659411492441 -128.0232166906562838 13800.00741105361521 
	9308.957664593874142 -117.1612743173280649 13766.00722466953812 
	9324.657297712714353 -101.9242546515211814 13728.11429275619048 
	9345.922558434534949 -81.28560702430721108 13687.96452146167576 
	9365.387093611045202 -62.39462383864015749 13656.44425008387225 
	9388.898368710750219 -39.57614404665356744 13624.48740736058971 
	9416.910481441496813 -12.38945061717953422 13593.35757487213232 
	9444.499441106552695 14.38655859223682398 13568.52630392897481 
	9470.882491010850572 39.9921919973557678 13549.09541124742827 
	9495.498511159325062 63.88286385286760805 13534.1288691590853 
	9520.848372566573744 88.48575322389918085 13521.76790069603885 
	9544.628376750270036 111.565043590582178 13512.88850020015161 
	9566.572443925240805 132.8624956113675637 13506.80599518330564 
	9593.157535448668568 158.6642171734294493 13501.57542095589088 
	9626.705210039626763 191.2233587547901266 13498.94977991224368 
	9666.962464407059088 230.2943721887002084 13502.10041435396124 
	9702.296681607549544 264.5874131975539285 13510.46652812469802 
	9732.56197903508837 293.9608978267094699 13521.76834038952074 
	9766.36213523776496 326.7650812664687692 13538.24839582973073 
	9806.776141373531573 365.9882275405714154 13565.36801493630264 
	9847.543165047589355 405.5539891576643186 13604.10246141096832 
	9880.948160048426871 437.9746554194505848 13645.70391970670062 
	9907.815844191434735 464.0506425841716691 13687.60004027528521 
	9931.148189612571514 486.6954651333001607 13733.42507415298678 
	9950.652102171301522 505.6246653895376539 13782.60230016202331 
	9966.082104493787483 520.599999341375451 13834.51348909621265 
	9977.244378890682128 531.43336043062925 13888.50573048621482 
	9982.872518970933015 536.8956588481473773 13934.66770627335063 
	9984.846815908824283 538.8117801395662809 13967.28971357645787 
	9985.340778530968237 539.2911874057399473 13983.63929592423665 
	9985.464273421441249 539.4110433324331098 13991.81891902325515 
	9985.495151109586004 539.4410111627857987 13995.90933308435342 
	9985.502870118585633 539.4485027195091789 13997.95461570792759 
	9985.505075623517769 539.4506432359016799 13999.12335937336684 
	9985.50544323617396 539.4510000162971437 13999.70773301207373 
	9985.505443234224003 539.4510000144035757 13999.99991982921529 
	10066.75854368312139 455.7309619224844255 13999.99991982921711 
	10066.75854366751264 455.7309619073358817 14002.33741436634773 
	10066.73501617649163 455.7081276893496806 14007.01240315746327 
	10066.59387731111201 455.571147694178876 14016.36054306469123 
	10066.09991886048738 455.0917444765449318 14032.71012701073778 
	10064.1255949391325 453.1755969965371378 14065.33211752237185 
	10058.49754057684004 447.7133817707579624 14111.49412910104365 
	10049.19545481098248 438.6853960383374442 14156.48754896930041 
	10040.8172571040559 430.5540746071685021 14187.07269942415769 
	10035.50809733018832 425.401357261859971 14204.24882433734274 
	10027.02909030469891 417.1721970120213996 14229.69172486259595 
	10012.40128892653593 402.9754259396709699 14266.57471300773977 
	9989.068789394374107 380.3304538207843279 14312.39955525253572 
	9962.201305955337375 354.254661446087141 14354.29595234533008 
	9933.249903714577158 326.1563560919156544 14390.34986746668619 
	9902.947028753933409 296.7464012074260609 14420.70975914366136 
	9877.089751783218162 271.6510480398264917 14441.51310421628295 
	9855.589312049931323 250.7841513066843788 14455.94146986069245 
	9836.34838382126145 232.1101861513773201 14467.24445333229596 
	9813.815119862490974 210.2408989218280055 14478.2315656209521 
	9779.226211676985258 176.6712052700812592 14491.14845031661935 
	9734.871846096208174 133.6238082064428454 14500.46611719207067 
	9681.044914745523783 81.38296886068282276 14500.46534461635565 
	9627.819414727984622 29.72583876374202205 14489.28603907507932 
	9576.383940451705712 -20.19401140972607323 14467.17642769659869 
	9543.042841410349865 -52.55266450262218569 14444.80152292458115 
	9525.658064533448851 -69.42517261488416125 14430.6627656444798 
	9522.776517275990045 -72.2218107208269231 14428.26871141893753 
	9519.911168777207422 -75.00272738903338166 14425.83719227732945 
	9516.112616627533498 -78.68934945004312453 14422.54554665326759 
	9511.406155679840595 -83.25712740209974072 14418.33844161354318 
	9500.248078828764847 -94.08641462963200297 14407.94888952646397 
	9484.041244572274081 -109.815689983714222 14391.2806805774253 
	9467.077277546120968 -126.279788044390969 14370.93679721406261 
	9455.800056751522789 -137.2247084588038888 14355.79861418299697 
	9449.533417260807255 -143.3066919315922689 14346.90090687981319 
	9434.167682743111072 -158.2196518237844316 14324.25269339981787 
	9415.989534425827514 -175.862153486008566 14292.48659638159916 
	9396.93857733927689 -194.3517452860173194 14250.23305105583495 
	9382.994348590284062 -207.8850862285819119 14213.46792992068913 
	9370.237004163789607 -220.2665161917110765 14171.29381922191897 
	9361.436588752974785 -228.8076140418976649 14131.53511148974394 
	9356.126643042223805 -233.9610941650019527 14099.11409513545368 
	9351.982571918018948 -237.9830539609535549 14066.3646610407377 
	9349.009582772847352 -240.8684394808862237 14024.96427889495317 
	9349.009738460399603 -240.8682883808654651 13975.03567121103151 
	9352.279740973430307 -237.6946414413773709 13929.495242199735 
	9357.827725599428959 -232.3101365798676454 13888.6356927722245 
	9364.778762091782482 -225.5639228989555818 13852.484897763763 
	9372.170624690143086 -218.3898727204773706 13823.04662811211165 
	9379.019041598141484 -211.7432547825755194 13800.00741105361703 
	9390.210765042771527 -200.8813124092472435 13766.00722466953994 
	9405.910398161611738 -185.6442927434404453 13728.1142927561923 
	9427.175658883432334 -165.0056451162264182 13687.96452146167758 
	9446.640194059942587 -146.1146619305592651 13656.44425008387407 
	9470.151469159649423 -123.2961821385729451 13624.48740736059153 
	9498.163581890394198 -96.10948870909861341 13593.35757487213414 
	9525.75254155545008 -69.33347949968246837 13568.52630392897663 
	9552.135591459747957 -43.72784609456338245 13549.09541124743009 
	9576.751611608222447 -19.83717423905164168 13534.12886915908712 
	9602.101473015471129 4.76571513197998442 13521.76790069604067 
	9625.881477199167421 27.8450054986629425 13512.88850020015343 
	9647.82554437413819 49.14245751944843477 13506.80599518330746 
	9674.410635897565953 74.94417908151014274 13501.5754209558927 
	9707.958310488524148 107.5033206628710047 13498.9497799122455 
	9748.215564855956472 146.5743340967810013 13502.10041435396306 
	9783.549782056446929 180.8673751056347783 13510.46652812469983 
	9813.815079483985755 210.2408597347902059 13521.76834038952256 
	9847.615235686662345 243.0450431745496189 13538.24839582973254 
	9888.029241822428958 282.2681894486522083 13565.36801493630446 
	9928.79626549648674 321.8339510657451115 13604.10246141097014 
	9962.201260497324256 354.2546173275314345 13645.70391970670244 
	9989.06894464033212 380.3306044922525189 13687.60004027528703 
	10012.4012900614689 402.9754270413808968 13733.4250741529886 
	10031.90520262019891 421.9046272976185605 13782.60230016202513 
	10047.33520494268487 436.8799612494563007 13834.51348909621447 
	10058.49747933957951 447.7133223387100429 13888.50573048621663 
	10064.1256194198304 453.1756207562281134 13934.66770627335245 
	10066.09991635772167 455.0917420476471875 13967.28971357645969 
	10066.59387897986562 455.571149313820797 13983.63929592423847 
	10066.71737387033863 455.6910052405139027 13991.81891902325697 
	10066.74825155848339 455.7209730708666484 13995.90933308435524 
	10066.75597056748302 455.7284646275900286 13997.95461570792941 
	10066.75817607241515 455.7306051439824728 13999.12335937336866 
	10066.75854368507134 455.7309619243779935 13999.70773301207555 
	10066.75854368312139 455.7309619224844255 13999.99991982921711 
	0 
	
	0 
	0 
	83 -8.716473498753939765e-30 0.002232142857142857019 0.004464285714285714038 0.008928571428571428076 0.01785714285714285615 0.0357142857142857123 0.05357142857142856845 0.0625 0.0669642857142857123 0.07142857142857142461 0.08928571428571427382 0.1071428571428571369 0.125 0.1428571428571428492 0.1587301587301587213 0.1746031746031745935 0.1825396825396825295 0.1904761904761904656 0.2023809523809523836 0.2142857142857142738 0.238095238095238082 0.2619047619047618625 0.2857142857142856984 0.3095238095238095344 0.3333333333333333148 0.3348214285714286031 0.336309523809523836 0.3377976190476190688 0.3392857142857143016 0.3422619047619047672 0.3452380952380952328 0.3571428571428570953 0.3690476190476190133 0.375 0.3779761904761904656 0.3809523809523809312 0.4047619047619047672 0.4166666666666666297 0.4285714285714285476 0.4444444444444444198 0.4603174603174602919 0.4682539682539682557 0.476190476190476164 0.4920634920634920362 0.5079365079365079083 0.5238095238095237249 0.5357142857142855874 0.5476190476190475609 0.5595238095238095344 0.5654761904761904656 0.5714285714285713969 0.5952380952380951218 0.6071428571428569843 0.6190476190476189577 0.6349206349206348854 0.650793650793650702 0.6666666666666666297 0.6785714285714286031 0.6904761904761904656 0.7023809523809523281 0.7142857142857141906 0.7232142857142855874 0.7321428571428569843 0.749999999999999889 0.7678571428571427937 0.7857142857142855874 0.7976190476190474499 0.8095238095238094234 0.8333333333333332593 0.8571428571428570953 0.875 0.8928571428571427937 0.9107142857142856984 0.9285714285714286031 0.9464285714285713969 0.9642857142857143016 0.9821428571428572063 0.9910714285714286031 0.9955357142857143016 0.9977678571428572063 0.9988839285714286031 0.9994419642857143016 0.9997209821428572063 
	0 
	0 
	0 
	F 1 F 0 F 1 F 0 } I I I I #
tcoedge-coedge $-1 -1 $-1 $14 $14 $18 $19 reversed $9 $20 -6.283185307179586232 -6.203854594248016166e-30 #
tcoedge-coedge $-1 -1 $-1 $21 $22 $11 $16 reversed $12 $23 -6.283185307179586232 -5.116702932012548391e-29 #
tedge-edge $-1 -1 $-1 $24 5.116702932012548391e-29 $24 6.283185307179586232 $15 $25 forward @7 unknown 0.0006524964820925046108 #
pcurve $-1 -1 $-1 0 forward { exppc nurbs 2 periodic 5 
	5.116702932012548391e-29 2 1.570796326794896558 2 3.141592653589793116 2 4.712388980384689674 2 6.283185307179586232 2 
	9.094947017729282379e-12 500 1 
	-499.9999999999909051 500.0000000000081855 0.7071067811865473507 
	-500 8.185452315956354141e-12 1 
	-500.000000000007276 -499.999999999992724 0.7071067811865456854 
	-7.275957614183425903e-12 -500 1 
	499.999999999992724 -500.0000000000090949 0.7071067811865474617 
	500 -8.185452315956354141e-12 1 
	500.0000000000090949 499.9999999999918145 0.7071067811865453523 
	9.094947017729282379e-12 500 1 
	0 
	plane 9707.958330395176745 107.5033399785961592 14000.00000000000728 0.6964551467160913223 -0.7176003265137690379 1.559133774493087789e-14 2.238670762711250175e-14 0 -1 forward_v I I I I 
	} 0 0 #
tcoedge-coedge $-1 -1 $-1 $22 $21 $14 $19 forward $12 $26 6.203854594248016166e-30 6.283185307179586232 #
tedge-edge $-1 -1 $-1 $27 6.203854594248016166e-30 $27 6.283185307179586232 $18 $28 forward @7 unknown 0.0006524964843547109835 #
pcurve $-1 -1 $-1 0 forward { exppc nurbs 2 periodic 5 
	-6.283185307179586232 2 -4.712388980384689674 2 -3.141592653589793116 2 -1.570796326794896558 2 -6.203854594248016166e-30 2 
	9.094947017729282379e-12 500.0000000000009095 1 
	500.0000000000090949 499.999999999992724 0.7071067811865453523 
	500 -8.185452315956354141e-12 1 
	499.999999999992724 -500.0000000000081855 0.7071067811865472397 
	-7.275957614183425903e-12 -500 1 
	-500.000000000007276 -499.9999999999918145 0.7071067811865456854 
	-500 8.185452315956354141e-12 1 
	-499.9999999999909051 500.0000000000081855 0.7071067811865470176 
	9.094947017729282379e-12 500.0000000000009095 1 
	0 
	plane 9464.199029048482771 358.6634542543542921 14000.00000000000182 -0.6964551467160911002 0.7176003265137690379 -1.559133774493088105e-14 2.238670762711251438e-14 0 -1 reverse_v I I I I 
	} 0 0 #
coedge $-1 -1 $-1 $18 $15 $22 $29 reversed $12 $30 #
coedge $-1 -1 $-1 $15 $18 $21 $29 forward $12 $31 #
pcurve $-1 -1 $-1 0 forward { exppc nubs 1 periodic 2 
	-6.283185307179586232 1 -5.116702932012548391e-29 1 
	1 1 
	0 1 
	1.379116209737458202e-12 
	spline forward { ref 0 } I I I I 
	} 0 0 #
tvertex-vertex $-1 -1 $-1 $16 $32 0.0001062593472710758147 #
ellipse-curve $-1 -1 $-1 9707.958330395176745 107.5033399785961592 14000.00000000000728 0.6964551467160913223 -0.7176003265137690379 1.559133774493087789e-14 358.800163256884673 348.2275733580456745 1.184283073555149096e-28 1 I I #
pcurve $-1 -1 $-1 0 forward { exppc nubs 1 periodic 2 
	6.203854594248016166e-30 1 6.283185307179586232 1 
	-2.024399984051442297e-30 1.165453026723817354e-15 
	1 1.165453026723817354e-15 
	1.192432664191599864e-11 
	spline forward { ref 0 } I I I I 
	} 0 0 #
tvertex-vertex $-1 -1 $-1 $19 $33 0.0001062593533829957583 #
ellipse-curve $-1 -1 $-1 9464.199029048482771 358.6634542543542921 14000.00000000000182 0.6964551467160911002 -0.7176003265137690379 1.559133774493088105e-14 358.8001632568845594 348.2275733580455608 3.667527047443929334e-28 1 I I #
edge $-1 -1 $-1 $27 5.638839592787194119e-11 $24 1 $22 $34 forward @7 tangent #
pcurve $-1 -1 $-1 -1 $34 0 0 #
pcurve $-1 -1 $-1 1 $34 1 0 #
point $-1 -1 $-1 10066.75849365205977 455.7309133366425158 14000.00000000000728 #
point $-1 -1 $-1 9822.999192305367615 706.8910276124004213 14000.00000000000182 #
intcurve-curve $-1 -1 $-1 forward { parcur full nubs 3 open 2 
	0 3 1 3 
	9822.999242337187752 706.8910761974599382 13999.99991982920255 
	9904.252342786086956 623.1710381055406742 13999.99991982920437 
	9985.505443234224003 539.4510000144035757 13999.99991982921529 
	10066.75854368312139 455.7309619224844255 13999.99991982921711 
	0 
	
	spline forward { ref 0 } I I I I 
	null_surface 
	nubs 1 open 2 
	0 1 1 1 
	-8.716473498753939765e-30 0 
	-8.716473498753939765e-30 1 
	
	nullbs 
	I I 
	0 
	0 
	0 
	surf1 } F 5.638839592787194119e-11 F 1 #
End-of-ACIS-data 