700 0 1 0           
4 LibG 20 ASM 224.0.1.65535 NT 24 Wed Jul 17 15:51:17 2019 
1000 9.999999999999999547e-07 1.000000000000000036e-10 
body $-1 -1 $-1 $1 $-1 $2 #
lump $-1 -1 $-1 $-1 $3 $0 #
transform $-1 -1 1 0 0 0 1 0 0 0 1 0 0 0 1 no_rotate no_reflect no_shear #
shell $-1 -1 $-1 $-1 $-1 $4 $-1 $1 #
face $-1 -1 $-1 $5 $6 $3 $-1 $7 forward single #
face $-1 -1 $-1 $8 $9 $3 $-1 $10 reversed single #
loop $-1 -1 $-1 $-1 $11 $4 #
plane-surface $-1 -1 $-1 6576.977306715824852 2747.712955234185756 14000.00000000000364 0.9209894165464311833 -0.3895875955538937729 -5.197112581643630434e-15 -5.642966670705081585e-15 0 -1 forward_v I I I I #
face $-1 -1 $-1 $-1 $12 $3 $-1 $13 forward single #
loop $-1 -1 $-1 $-1 $14 $5 #
plane-surface $-1 -1 $-1 6242.624231687978863 2851.192524306837186 14000.00000000000182 0.9552945000950084919 -0.2956559116409281374 5.197112581643634378e-15 5.440325031837571705e-15 0 -1 forward_v I I I I #
tcoedge-coedge $-1 -1 $-1 $11 $11 $15 $16 forward $6 $17 -5.908432946902877794e-31 6.283185307179586232 #
loop $-1 -1 $-1 $-1 $18 $8 #
spline-surface $-1 -1 $-1 forward { exactsur full nubs 3 3 periodic open none none 86 2 
	0 3 0.002232142857142857019 1 0.004464285714285714038 1 0.008928571428571428076 1 0.01785714285714285615 1 
	0.0357142857142857123 1 0.05357142857142856845 1 0.0625 1 0.07142857142857142461 1 0.08928571428571427382 1 
	0.1071428571428571369 1 0.125 1 0.1428571428571428492 1 0.1587301587301587213 1 0.1746031746031745935 1 
	0.1904761904761904656 1 0.2023809523809523836 1 0.2142857142857142738 1 0.238095238095238082 1 0.2619047619047618625 1 
	0.2857142857142856984 1 0.2976190476190476164 1 0.3095238095238095344 1 0.3214285714285713969 1 0.3273809523809523281 1 
	0.3333333333333333148 1 0.3452380952380952328 1 0.3571428571428570953 1 0.3690476190476190133 1 0.375 1 
	0.3809523809523809312 1 0.3928571428571428492 1 0.4047619047619047672 1 0.4166666666666666297 1 0.4285714285714285476 1 
	0.4444444444444444198 1 0.4603174603174602919 1 0.476190476190476164 1 0.4801587301587301182 1 0.4821428571428570953 1 
	0.4841269841269840724 1 0.4861111111111110494 1 0.4880952380952380265 1 0.4900793650793650036 1 0.4910714285714284921 1 
	0.4915674603174602364 1 0.491815476190476164 1 0.4920634920634920362 1 0.5158730158730158166 1 0.5238095238095237249 1 
	0.5357142857142855874 1 0.5476190476190475609 1 0.5595238095238095344 1 0.5714285714285713969 1 0.5952380952380951218 1 
	0.6190476190476189577 1 0.6349206349206348854 1 0.650793650793650702 1 0.6666666666666666297 1 0.6785714285714286031 1 
	0.6904761904761904656 1 0.7023809523809523281 1 0.7142857142857141906 1 0.7321428571428569843 1 0.749999999999999889 1 
	0.7678571428571427937 1 0.7857142857142855874 1 0.7976190476190474499 1 0.8095238095238094234 1 0.8333333333333332593 1 
	0.8452380952380951218 1 0.8571428571428570953 1 0.875 1 0.8928571428571427937 1 0.9107142857142856984 1 
	0.9285714285714286031 1 0.9464285714285713969 1 0.9642857142857143016 1 0.9821428571428572063 1 0.9910714285714286031 1 
	0.9955357142857143016 1 0.9977678571428572063 1 0.9988839285714286031 1 0.9994419642857143016 1 0.9997209821428572063 1 
	1 3 
	0 3 1 3 
	6390.452211618491674 3328.839852237391369 13999.99988167251104 
	6390.452211605440425 3328.83985219522674 14002.33737620906322 
	6390.442518034937166 3328.808531277206384 14007.01236494630939 
	6390.38436789764819 3328.620642234143816 14016.36050493384573 
	6390.180853160885817 3327.963065297661615 14032.71008801578682 
	6389.367419357328799 3325.334777454091181 14065.33208071586159 
	6387.048614091318996 3317.842480397307554 14111.49407435397734 
	6383.216103555274458 3305.459246740295384 14156.48751414163053 
	6379.271088750358103 3292.712500278219068 14191.44193296842604 
	6374.753053325603105 3278.114265565563528 14225.59355324466924 
	6368.056679988632823 3256.477598186693285 14266.57470650018513 
	6358.443513802184498 3225.416474683333036 14312.39945211478334 
	6347.373968733590118 3189.649642005228998 14354.29598502401859 
	6335.445813635044942 3151.108552471052917 14390.34991243091827 
	6322.960801849204472 3110.768202007691798 14420.70971126528093 
	6310.176805739189149 3069.461802601289037 14445.67389746353183 
	6297.842730303068493 3029.609142925400192 14464.49778667363898 
	6286.237903077395458 2992.112758829290669 14478.23158509599853 
	6271.987053461118194 2946.066805665475385 14491.14854814495084 
	6253.71277753693812 2887.020750450143623 14500.46604063850282 
	6231.535695489278623 2815.36432934045115 14500.46566564480599 
	6213.261397439199754 2756.318202634151021 14491.14874913954191 
	6199.010516787986489 2710.272149193125642 14478.23209899583708 
	6188.566203172172209 2676.525503306554128 14465.87138339151534 
	6180.114554316497561 2649.21736113640236 14453.39921741453691 
	6173.532736446491981 2627.950834189839497 14442.16089108173765 
	6167.079736371525541 2607.100530718807477 14430.09814517270388 
	6159.272050166346162 2581.873097758562835 14413.50494268654984 
	6150.368976680833839 2553.106356422531007 14391.28058251265065 
	6143.379697870237578 2530.523281488191969 14370.93674477422974 
	6138.069672426907346 2513.366045993658645 14353.63591480095965 
	6132.954577945991332 2496.838652382753025 14335.67576302212728 
	6126.939807312996891 2477.404313075505797 14312.035850489121 
	6120.369026953789216 2456.173449455574882 14281.92291592505171 
	6114.481994150869468 2437.151844146584608 14250.23329294043106 
	6108.73699538861365 2418.589165354979741 14213.4678505705233 
	6103.480843701057893 2401.606001477372956 14171.29387978149862 
	6099.129784680982993 2387.547284611559007 14123.58341446999293 
	6096.936053508698024 2380.459114745670831 14086.87943477048429 
	6096.0122614968368 2377.474248238979271 14064.23671723424195 
	6095.721914612188812 2376.536107748280756 14055.98368663092333 
	6095.526989801506716 2375.906285741534703 14049.78521034179357 
	6095.354923770776622 2375.350322791573944 14043.57899784296387 
	6095.205747191119372 2374.868317999936608 14037.36601205137231 
	6095.100524193117963 2374.528331727663499 14032.18368458113218 
	6095.036902299772919 2374.32276288089497 14028.55393770135015 
	6095.007598256311212 2374.22807851827065 14026.73858751695479 
	6094.991573044993856 2374.176299420910709 14025.70111625259779 
	6094.610474766572224 2372.944931891825036 14000.28101217534095 
	6094.858481917772224 2373.746268371799943 13966.69374154717116 
	6096.539743747846842 2379.178597360497861 13921.32340055564782 
	6098.368204398620946 2385.086540799279192 13888.63574790096573 
	6101.232114977919991 2394.340128897600607 13852.48487449493223 
	6104.886794507445302 2406.148772380422997 13817.15916221400948 
	6110.786375582372784 2425.210922440075592 13771.42092697350199 
	6120.026408271488435 2455.066413438290056 13717.286878832816 
	6132.317493800433112 2494.780168325847171 13665.15911899845014 
	6144.64634307243432 2534.615941730829945 13624.48756096335273 
	6156.187441148095786 2571.906410423074249 13593.35744793149206 
	6167.554319453464814 2608.633957212451151 13568.52639396163249 
	6178.424291508260467 2643.755949065886853 13549.0955128592359 
	6188.566246903909814 2676.525644607832419 13534.12891225914609 
	6199.010556100694885 2710.272276215996044 13521.76812902993515 
	6211.480086262896293 2750.562603970748569 13510.46656576164241 
	6226.037984272461472 2797.600661908674283 13502.10031335565327 
	6242.624241391686155 2851.192555657773937 13498.94997790891284 
	6259.210466368835114 2904.784345553050116 13502.10035313013213 
	6273.768407205088806 2951.822541868071767 13510.46652126212575 
	6286.237854809712189 2992.1126028708386 13521.76858268939759 
	6300.163785438991908 3037.10870954415941 13538.2484164911948 
	6313.484309484312689 3080.148685603081049 13559.94463392209582 
	6325.976359979942572 3120.511778859099195 13586.49528510729215 
	6336.363399631430184 3154.073366706813431 13612.42300463384709 
	6347.373982169176088 3189.649685416349712 13645.70377000279041 
	6358.443567805201383 3225.416649173212136 13687.60010206013249 
	6368.056683101314775 3256.477608244954808 13733.42502393680115 
	6376.092376078930101 3282.441754414266597 13782.60232492949399 
	6382.449709473945404 3302.982949052483036 13834.51340101996175 
	6387.048596603077385 3317.84242389153178 13888.50570215758307 
	6389.367435715322245 3325.334830308570417 13934.66766106326031 
	6390.180852958513242 3327.963064643778125 13967.28967588014166 
	6390.384368969602292 3328.620645697715645 13983.63925751069655 
	6390.435249409204516 3328.78504560374904 13991.81888088140295 
	6390.447971210920514 3328.826151046684117 13995.9092949189926 
	6390.451151480928274 3328.83642682445452 13997.9545775518036 
	6390.452060161755071 3328.839362865176554 13999.12332121605687 
	6390.452211620123308 3328.839852242661891 13999.70769485544224 
	6390.452211618491674 3328.839852237391369 13999.99988167251104 
	6517.558517398783806 3288.629148578339027 13999.99988167251104 
	6517.558517893716271 3288.629148350652486 14002.33737620906322 
	6517.547795849972317 3288.598203044555248 14007.01236494630939 
	6517.483490826168236 3288.412561846813333 14016.36050493384573 
	6517.258418103016993 3287.762858169846822 14032.71008801578682 
	6516.358847672919183 3285.166028552584976 14065.33208071586159 
	6513.794472387042333 3277.763416889457858 14111.49407435397734 
	6509.556095411754541 3265.528410981888555 14156.48751414163053 
	6505.193289132775135 3252.934247448453334 14191.44193296842604 
	6500.196791261211729 3238.510753499817383 14225.59355324466924 
	6492.791255854984229 3217.133081414355274 14266.57470650018513 
	6482.160038881415858 3186.443763417443733 14312.39945211478334 
	6469.918203297935179 3151.105066618322326 14354.29598502401859 
	6456.726832687660135 3113.025319965105155 14390.34991243091827 
	6442.919633670478106 3073.167849628539898 14420.70971126528093 
	6428.78178769299484 3032.35589395912757 14445.67389746353183 
	6415.141507842633473 2992.980277275500612 14464.49778667363898 
	6402.307705113305929 2955.932731160099138 14478.23158509599853 
	6386.547663346770605 2910.43795477337062 14491.14854814495084 
	6366.338099871853046 2852.098691966658407 14500.46604063850282 
	6341.812423124655652 2781.300008459797027 14500.46566564480599 
	6321.602838097090171 2722.960673952758498 14491.14874913954191 
	6305.842764967390394 2677.465797408692652 14478.23209899583708 
	6294.292373729904284 2644.123105583647884 14465.87138339151534 
	6284.945680977853954 2617.141845189332798 14453.39921741453691 
	6277.666834643051516 2596.129882184610324 14442.16089108173765 
	6270.530448828288172 2575.529160153227167 14430.09814517270388 
	6261.895913517721056 2550.603703336289527 14413.50494268654984 
	6252.049987108859568 2522.181304260102024 14391.28058251265065 
	6244.320529148483729 2499.868552463987271 14370.93674477422974 
	6238.448162519363905 2482.916691349617849 14353.63591480095965 
	6232.791367976022229 2466.587133709767386 14335.67576302212728 
	6226.139622086546296 2447.385426124657897 14312.035850489121 
	6218.872982888708066 2426.408699283743317 14281.92291592505171 
	6212.362500879801701 2407.614785805759766 14250.23329294043106 
	6206.009096009392124 2389.27430490843517 14213.4678505705233 
	6200.196305260858026 2372.494432920186682 14171.29387978149862 
	6195.38446105733783 2358.604000849848944 14123.58341446999293 
	6192.958405807479721 2351.600678785676791 14086.87943477048429 
	6191.936790269001904 2348.651538714558683 14064.23671723424195 
	6191.615691851117845 2347.724629087323592 14055.98368663092333 
	6191.400126074639047 2347.102345432139373 14049.78521034179357 
	6191.209836599236041 2346.553037923304146 14043.57899784296387 
	6191.044863196363622 2346.076802338792731 14037.36601205137231 
	6190.928495367880714 2345.740886304854939 14032.18368458113218 
	6190.858137779574463 2345.537777422273393 14028.55393770135015 
	6190.82572767367401 2345.44422743440964 14026.73858751695479 
	6190.808009343995764 2345.393066686092425 14025.70111625259779 
	6190.38651948261122 2344.176450693128118 14000.28101217534095 
	6190.660811265193843 2344.968187680812207 13966.69374154717116 
	6192.520115834076023 2350.335493124997811 13921.32340055564782 
	6194.542217444086418 2356.172716344484797 13888.63574790096573 
	6197.709419181112935 2365.315538532178834 13852.48487449493223 
	6201.75114298396602 2376.982828367537877 13817.15916221400948 
	6208.275491175812022 2395.816805277817366 13771.42092697350199 
	6218.494072116897769 2425.314917613777652 13717.286878832816 
	6232.086804461063366 2464.553294004039799 13665.15911899845014 
	6245.721309799452683 2503.912224680591862 13624.48756096335273 
	6258.484626781895713 2540.756322989966975 13593.35744793149206 
	6271.05528539133411 2577.044233416138923 13568.52639396163249 
	6283.076407822704823 2611.745810046506449 13549.0955128592359 
	6294.292418969605023 2644.123246334198939 13534.12891225914609 
	6305.842801808662443 2677.465925334164695 13521.76812902993515 
	6319.632881905436079 2717.273970924386504 13510.46656576164241 
	6335.732490677433816 2763.748975861346025 13502.10031335565327 
	6354.075267732348038 2816.699365480652887 13498.94997790891284 
	6372.418006955576857 2869.649653324056089 13502.10035313013213 
	6388.517665595947619 2916.124794066396134 13510.46652126212575 
	6402.307653031694826 2955.932576594544116 13521.76858268939759 
	6417.708373841798675 3000.390070541442583 13538.2484164911948 
	6432.439558339925497 3042.914854892133008 13559.94463392209582 
	6446.254537478891507 3082.794797247966017 13586.49528510729215 
	6457.741591599738058 3115.954645376939879 13612.42300463384709 
	6469.918214895549681 3151.105110700694695 13645.70377000279041 
	6482.160094703923278 3186.443937242821448 13687.60010206013249 
	6492.791257118618887 3217.13309214791343 13733.42502393680115 
	6501.67795008630128 3242.786441953921894 13782.60232492949399 
	6508.70853148129936 3263.081757588098753 13834.51340101996175 
	6513.794452836850724 3277.763361136733238 13888.50570215758307 
	6516.358865275814424 3285.166080952410084 13934.66766106326031 
	6517.258417213064604 3287.762857767076639 13967.28967588014166 
	6517.483492388700142 3288.412565131219708 13983.63925751069655 
	6517.539757383253345 3288.574998527128173 13991.81888088140295 
	6517.553828448754757 3288.615611201223601 13995.9092949189926 
	6517.557344695984284 3288.625764275704114 13997.9545775518036 
	6517.55834966578459 3288.628665150429242 13999.12332121605687 
	6517.558517336917248 3288.629148606799845 13999.70769485544224 
	6517.558517398783806 3288.629148578339027 13999.99988167251104 
	6644.664830480627643 3248.418442252685054 13999.99988167251104 
	6644.664829955446294 3248.418442397557101 14002.33737620906322 
	6644.653085151798223 3248.387870616797045 14007.01236494630939 
	6644.582615248230468 3248.204480914040687 14016.36050493384573 
	6644.336000626448367 3247.562644621131312 14032.71008801578682 
	6643.350270575659124 3244.997281627940993 14065.33208071586159 
	6640.540336773356103 3237.684351157260608 14111.49407435397734 
	6635.896080736381919 3225.597577609013115 14156.48751414163053 
	6631.115502173735877 3213.155989995633718 14191.44193296842604 
	6625.640521822898336 3198.907244127136437 14225.59355324466924 
	6617.525831959875177 3177.788564554908589 14266.57470650018513 
	6605.87655511126286 3147.471055383473868 14312.39945211478334 
	6592.462438666945673 3112.560490937546092 14354.29598502401859 
	6578.007851553186811 3074.942087527489548 14390.34991243091827 
	6562.878462710618805 3035.567498265097129 14420.70971126528093 
	6547.386763039006837 2995.249987730221619 14445.67389746353183 
	6532.440281126563605 2956.351413179816973 14464.49778667363898 
	6518.377505112146537 2919.752704234874727 14478.23158509599853 
	6501.108265923814542 2874.809106550468186 14491.14854814495084 
	6478.963428784108146 2817.176631081044889 14500.46604063850282 
	6452.089147393057829 2747.235688808808845 14500.46566564480599 
	6429.944280524675378 2689.603144625050845 14491.14874913954191 
	6412.675000769633698 2644.659450144562925 14478.23209899583708 
	6400.018542725406405 2611.720708431288585 14465.87138339151534 
	6389.776797447260833 2585.066332964497633 14453.39921741453691 
	6381.800924416139424 2564.308933255743796 14442.16089108173765 
	6373.981152653146637 2543.957792740131936 14430.09814517270388 
	6364.519766090836129 2519.33431285037932 14413.50494268654984 
	6353.730984855379575 2491.256256729124743 14391.28058251265065 
	6345.261348746059411 2469.213827705716994 14370.93674477422974 
	6338.826637062807094 2452.467342384280073 14353.63591480095965 
	6332.6281459726506 2436.335619431537452 14335.67576302212728 
	6325.339421331199446 2417.366544845166118 14312.035850489121 
	6317.376922869115333 2396.643954938708248 14281.92291592505171 
	6310.242993093885161 2378.077732765947076 14250.23329294043106 
	6303.281179341309326 2359.959450776010272 14213.4678505705233 
	6296.911755309365617 2343.382868567076002 14171.29387978149862 
	6291.639123520576504 2329.660722169392557 14123.58341446999293 
	6288.980754670825263 2322.742244080349337 14086.87943477048611 
	6287.861291836769851 2319.828839125540981 14064.23671723424195 
	6287.509451511656152 2318.91315684622532 14055.98368663092515 
	6287.273238867166583 2318.298413698169952 14049.78521034179539 
	6287.064729855124824 2317.755760203192949 14043.57899784296569 
	6286.883955790721302 2317.285295227612551 14037.36601205137413 
	6286.756447635841141 2316.953447787060213 14032.183684581134 
	6286.679348374434994 2316.752801051959523 14028.55393770135197 
	6286.643840320318304 2316.660382475436109 14026.73858751695661 
	6286.624416920120893 2316.609844441246878 14025.7011162525996 
	6286.162632980407579 2315.407944374432191 14000.28101217534459 
	6286.463148882723544 2316.190103969473512 13966.69374154717298 
	6288.500515097654898 2321.492378963973806 13921.32340055565146 
	6290.716247874754117 2327.258885540387837 13888.63574790096936 
	6294.18674913090581 2336.29093876376146 13852.48487449493587 
	6298.615498333600044 2347.816881844502404 13817.15916221401312 
	6305.764645132345322 2366.42267410485465 13771.42092697350927 
	6316.961744234115031 2395.563418768293104 13717.28687883281964 
	6331.856135683066896 2434.326412172950313 13665.15911899845378 
	6346.796279395080091 2473.208506582702739 13624.48756096335819 
	6360.781835717253671 2509.606227046826916 13593.35744793149752 
	6374.556260189685418 2545.4545063838641 13568.52639396163431 
	6387.728538196653062 2579.735665892413635 13549.09551285923953 
	6400.018598842988467 2611.720845209096751 13534.12891225914973 
	6412.675055043628163 2644.659571703377424 13521.76812902993879 
	6427.785680953331394 2683.985336634346368 13510.46656576164423 
	6445.427001067517267 2729.897288358605692 13502.10031335565691 
	6465.526293161542526 2782.206175636415082 13498.94997790891284 
	6485.6255485914171 2834.514960711921503 13502.10035313013577 
	6503.266918096876907 2880.427048415803711 13510.46652126212757 
	6518.377445323405482 2919.752552484067564 13521.76858268939759 
	6535.252938752989394 2963.671440118176633 13538.2484164911948 
	6551.394813967457594 3005.681021707995569 13559.94463392209582 
	6566.532736348905019 3045.077807831844893 13586.49528510729397 
	6579.119787293785521 3077.835922686383128 13612.42300463384709 
	6592.462458209016404 3112.560532118501214 13645.70377000279041 
	6605.876624451942916 3147.471224271838764 13687.60010206013249 
	6617.525837910613518 3177.788573576674935 13733.42502393680297 
	6627.26351950094886 3203.131131170910521 13782.60232492949581 
	6634.967368436717152 3223.18056066449617 13834.51340101996357 
	6640.540315790996829 3237.684295927581388 13888.50570215758489 
	6643.35029088579995 3244.997333039043497 13934.66766106326031 
	6644.336001047362515 3247.562643739613577 13967.28967588014166 
	6644.582616170174333 3248.204484432398203 13983.63925751069655 
	6644.6442770803842 3248.364947169103743 13991.81888088140295 
	6644.659691412203756 3248.405069264713347 13995.9092949189926 
	6644.663546096140635 3248.415098737666995 13997.9545775518036 
	6644.664647181424698 3248.41796450975653 13999.12332121605687 
	6644.66483054627588 3248.418442234576105 13999.70769485544224 
	6644.664830480627643 3248.418442252685054 13999.99988167251104 
	6771.771136260919775 3208.207738593632712 13999.99988167251104 
	6771.77113624372214 3208.207738552982391 14002.33737620906322 
	6771.758362966833374 3208.177542384145909 14007.01236494630939 
	6771.681738176750514 3207.996400526709749 14016.36050493384573 
	6771.413565568580452 3207.362437493316065 14032.71008801578682 
	6770.341698891250417 3204.828532726434332 14065.33208071586159 
	6767.286195069082169 3197.605287649410002 14111.49407435397734 
	6762.23607259286473 3185.666741850605376 14156.48751414163053 
	6757.037702556156546 3173.37773716586662 14191.44193296842604 
	6751.084259758510598 3159.303732061388928 14225.59355324466924 
	6742.26040782623204 3138.444047782568759 14266.57470650018513 
	6729.593080190500586 3108.498344117582292 14312.39945211478334 
	6715.0066732312971 3074.015915550637146 14354.29598502401859 
	6699.288870605810189 3036.858855021539057 14390.34991243091827 
	6682.837294531899715 2997.967145885942955 14420.70971126528093 
	6665.991744992821623 2958.144079088056969 14445.67389746353183 
	6649.73905866613768 2919.722547529914664 14464.49778667363898 
	6634.447307148066102 2883.572676565680467 14478.23158509599853 
	6615.668875809476049 2839.180255658360238 14491.14854814495084 
	6591.588751119033077 2782.254572597556944 14500.46604063850282 
	6562.365875028444862 2713.171367928151994 14500.46566564480599 
	6538.285721182574889 2656.245615943655139 14491.14874913954191 
	6519.507248949047607 2611.853098360127206 14478.23209899583708 
	6505.744713283147576 2579.318310708379613 14465.87138339151534 
	6494.607924108626321 2552.990817017425343 14453.39921741453691 
	6485.935022612708053 2532.487981250511893 14442.16089108173765 
	6477.431865109917453 2512.386422174549352 14430.09814517270388 
	6467.143629442219208 2488.064918428103738 14413.50494268654984 
	6455.41199528341258 2460.331204566693486 14391.28058251265065 
	6446.202180024312838 2438.559098681510477 14370.93674477422974 
	6439.20512715527002 2422.017987740237004 14353.63591480095965 
	6432.464936002687864 2406.084100758549994 14335.67576302212728 
	6424.539236104755219 2387.347657894316399 14312.035850489121 
	6415.880878804039639 2366.879204766875318 14281.92291592505171 
	6408.123499822822851 2348.540674425120869 14250.23329294043106 
	6400.553279962092347 2330.644590329464336 14213.4678505705233 
	6393.627216869169388 2314.271300009888819 14171.29387978149862 
	6387.89379989693316 2300.717438407682039 14123.58341446999293 
	6385.00310696960878 2293.883808120355297 14086.87943477048611 
	6383.785820608935865 2291.006129601119937 14064.23671723424195 
	6383.403228750586095 2290.101678185267701 14055.98368663092515 
	6383.146375140299824 2289.494473388774622 14049.78521034179539 
	6382.919642683585153 2288.958475334922696 14043.57899784296569 
	6382.723071795966462 2288.49377956646822 14037.36601205137413 
	6382.584418810604802 2288.166002364251653 14032.183684581134 
	6382.500583854236538 2287.967815593337946 14028.55393770135197 
	6382.461969737682011 2287.876531391575099 14026.73858751695661 
	6382.440853219122801 2287.826611706428594 14025.7011162525996 
	6381.938677696446575 2286.639463175735727 14000.28101217534459 
	6382.265478230144254 2287.412023278485776 13966.69374154717298 
	6384.48088718388226 2292.649274728474666 13921.32340055565146 
	6386.890260920216861 2298.345061085594352 13888.63574790096936 
	6390.664053334096025 2307.266348398340597 13852.48487449493587 
	6395.479846810116214 2318.650937831618194 13817.15916221401312 
	6403.253760725780012 2337.028556942598243 13771.42092697350927 
	6415.429408079517998 2365.81192294378252 13717.28687883281964 
	6431.625446343690783 2404.099537851145215 13665.15911899845378 
	6447.87124612209027 2442.504789532467385 13624.48756096335819 
	6463.079021351045412 2478.456139613722371 13593.35744793149752 
	6478.057226127545619 2513.8647825875546 13568.52639396163431 
	6492.380654511088323 2547.725526873036415 13549.09551285923953 
	6505.744770908674582 2579.318446935466 13534.12891225914973 
	6519.507300751585717 2611.853220821549257 13521.76812902993879 
	6535.938476595861175 2650.696703587987486 13510.46656576164423 
	6555.121507472479607 2696.045602311280618 13502.10031335565691 
	6576.977319502195314 2747.71298545929676 13498.94997790891284 
	6598.833089178148839 2799.38026848293066 13502.10035313013577 
	6618.016176487725716 2844.729300614131262 13510.46652126212757 
	6634.447243545378115 2883.572526207776264 13521.76858268939759 
	6652.797527155787066 2926.952801115462989 13538.2484164911948 
	6670.350062823061307 2968.447190997050257 13559.94463392209582 
	6686.810913847845768 3007.360826220713989 13586.49528510729397 
	6700.497979262086119 3039.71720135651185 13612.42300463384709 
	6715.006690935382721 3074.015957402848016 13645.70377000279041 
	6729.593151350658445 3108.498512341449896 13687.60010206013249 
	6742.260411927911264 3138.444057479635376 13733.42502393680297 
	6752.849093508315491 3163.475818710567182 13782.60232492949581 
	6761.22619044406656 3183.279369200112797 13834.51340101996357 
	6767.286172024768348 3197.605233172783755 13888.50570215758489 
	6770.34172044629031 3204.828583682883163 13934.66766106326031 
	6771.413565301912968 3207.362436862912091 13967.28967588014166 
	6771.681739589271274 3207.996403865902266 13983.63925751069655 
	6771.748785054433029 3208.154900092482876 13991.81888088140295 
	6771.76554865003709 3208.194529419252831 13995.9092949189926 
	6771.769739311195735 3208.204436188916134 13997.9545775518036 
	6771.770936685454217 3208.207266795009218 13999.12332121605687 
	6771.77113626306982 3208.207738598714059 13999.70769485544224 
	6771.771136260919775 3208.207738593632712 13999.99988167251104 
	0 
	
	0 
	0 
	85 0 0.002232142857142857019 0.004464285714285714038 0.008928571428571428076 0.01785714285714285615 0.0357142857142857123 0.05357142857142856845 0.0625 0.07142857142857142461 0.08928571428571427382 0.1071428571428571369 0.125 0.1428571428571428492 0.1587301587301587213 0.1746031746031745935 0.1904761904761904656 0.2023809523809523836 0.2142857142857142738 0.238095238095238082 0.2619047619047618625 0.2857142857142856984 0.2976190476190476164 0.3095238095238095344 0.3214285714285713969 0.3273809523809523281 0.3333333333333333148 0.3452380952380952328 0.3571428571428570953 0.3690476190476190133 0.375 0.3809523809523809312 0.3928571428571428492 0.4047619047619047672 0.4166666666666666297 0.4285714285714285476 0.4444444444444444198 0.4603174603174602919 0.476190476190476164 0.4801587301587301182 0.4821428571428570953 0.4841269841269840724 0.4861111111111110494 0.4880952380952380265 0.4900793650793650036 0.4910714285714284921 0.4915674603174602364 0.491815476190476164 0.4920634920634920362 0.5158730158730158166 0.5238095238095237249 0.5357142857142855874 0.5476190476190475609 0.5595238095238095344 0.5714285714285713969 0.5952380952380951218 0.6190476190476189577 0.6349206349206348854 0.650793650793650702 0.6666666666666666297 0.6785714285714286031 0.6904761904761904656 0.7023809523809523281 0.7142857142857141906 0.7321428571428569843 0.749999999999999889 0.7678571428571427937 0.7857142857142855874 0.7976190476190474499 0.8095238095238094234 0.8333333333333332593 0.8452380952380951218 0.8571428571428570953 0.875 0.8928571428571427937 0.9107142857142856984 0.9285714285714286031 0.9464285714285713969 0.9642857142857143016 0.9821428571428572063 0.9910714285714286031 0.9955357142857143016 0.9977678571428572063 0.9988839285714286031 0.9994419642857143016 0.9997209821428572063 
	0 
	0 
	0 
	F 1 F 0 F 1 F 0 } I I I I #
tcoedge-coedge $-1 -1 $-1 $14 $14 $18 $19 reversed $9 $20 -6.283185307179586232 8.567227773009181997e-30 #
tcoedge-coedge $-1 -1 $-1 $21 $22 $11 $16 reversed $12 $23 -6.283185307179586232 5.908432946902877794e-31 #
tedge-edge $-1 -1 $-1 $24 -5.908432946902877794e-31 $24 6.283185307179586232 $15 $25 forward @7 unknown 0.0006477195338669956923 #
pcurve $-1 -1 $-1 0 forward { exppc nurbs 2 periodic 5 
	-5.908432946902877794e-31 2 1.570796326794896558 2 3.141592653589793116 2 4.712388980384689674 2 6.283185307179586232 2 
	-1.818989403545856476e-12 500 1 
	-500.000000000001819 499.9999999999990905 0.7071067811865447972 
	-500 -9.094947017729282379e-13 1 
	-500 -500.000000000001819 0.7071067811865445751 
	0 -500 1 
	500 -500 0.7071067811865447972 
	500 0 1 
	499.999999999998181 500 0.7071067811865456854 
	-1.818989403545856476e-12 500 1 
	0 
	plane 6576.977306715824852 2747.712955234185756 14000.00000000000364 0.9209894165464311833 -0.3895875955538937729 -5.197112581643630434e-15 -5.642966670705081585e-15 0 -1 forward_v I I I I 
	} 0 0 #
tcoedge-coedge $-1 -1 $-1 $22 $21 $14 $19 forward $12 $26 -8.567227773009181997e-30 6.283185307179586232 #
tedge-edge $-1 -1 $-1 $27 -8.567227773009181997e-30 $27 6.283185307179586232 $18 $28 forward @7 unknown 0.0006477195880489847743 #
pcurve $-1 -1 $-1 0 forward { exppc nurbs 2 periodic 5 
	-6.283185307179586232 2 -4.712388980384689674 2 -3.141592653589793116 2 -1.570796326794896558 2 8.567227773009181997e-30 2 
	0 500 1 
	500 499.9999999999990905 0.7071067811865460184 
	500 -9.094947017729282379e-13 1 
	499.999999999998181 -500.0000000000009095 0.7071067811865469066 
	-1.818989403545856476e-12 -500 1 
	-500.000000000001819 -499.9999999999995453 0.7071067811865460184 
	-500 9.094947017729282379e-13 1 
	-500 500.0000000000009095 0.7071067811865443531 
	0 500 1 
	0 
	plane 6242.624231687978863 2851.192524306837186 14000.00000000000182 -0.9552945000950084919 0.2956559116409281374 -5.197112581643634378e-15 5.440325031837571705e-15 0 -1 reverse_v I I I I 
	} 0 0 #
coedge $-1 -1 $-1 $18 $15 $22 $29 reversed $12 $30 #
coedge $-1 -1 $-1 $15 $18 $21 $29 forward $12 $31 #
pcurve $-1 -1 $-1 0 forward { exppc nubs 1 periodic 2 
	-6.283185307179586232 1 5.908432946902877794e-31 1 
	1 1 
	0 1 
	1.012895610181130568e-12 
	spline forward { ref 0 } I I I I 
	} 0 0 #
tvertex-vertex $-1 -1 $-1 $16 $32 0.0001436960530972630106 #
ellipse-curve $-1 -1 $-1 6576.977306715824852 2747.712955234185756 14000.00000000000364 0.9209894165464311833 -0.3895875955538937729 -5.197112581643630434e-15 194.7937977769468887 460.494708273215565 8.747160906933680379e-45 1 I I #
pcurve $-1 -1 $-1 0 forward { exppc nubs 1 periodic 2 
	-8.567227773009181997e-30 1 6.283185307179586232 1 
	2.836705310942768677e-33 0 
	1 0 
	1.597210340997877623e-12 
	spline forward { ref 0 } I I I I 
	} 0 0 #
tvertex-vertex $-1 -1 $-1 $19 $33 0.0001436957265319161164 #
ellipse-curve $-1 -1 $-1 6242.624231687978863 2851.192524306837186 14000.00000000000182 0.9552945000950084919 -0.2956559116409281374 5.197112581643634378e-15 147.8279558204640409 477.6472500475042011 -6.471935888975587375e-59 1 I I #
edge $-1 -1 $-1 $27 1.260215793057611384e-09 $24 0.9999999808948656366 $22 $34 forward @7 tangent #
pcurve $-1 -1 $-1 -1 $34 0 0 #
pcurve $-1 -1 $-1 1 $34 1 0 #
point $-1 -1 $-1 6771.771104492771883 3208.207663507401776 14000.00000000000364 #
point $-1 -1 $-1 6390.452187508443785 3328.839774354341444 14000.00000000000182 #
intcurve-curve $-1 -1 $-1 forward { parcur full nubs 3 open 2 
	0 3 1 3 
	6390.452211618491674 3328.839852237391369 13999.99988167251104 
	6517.558517398783806 3288.629148578339027 13999.99988167251104 
	6644.664830480627643 3248.418442252685054 13999.99988167251104 
	6771.771136260919775 3208.207738593632712 13999.99988167251104 
	0 
	
	spline forward { ref 0 } I I I I 
	null_surface 
	nubs 1 open 2 
	0 1 1 1 
	0 0 
	0 1 
	
	nullbs 
	I I 
	0 
	0 
	0 
	surf1 } F 1.260215793057611384e-09 F 0.9999999808948656366 #
End-of-ACIS-data 