700 0 1 0           
4 LibG 20 ASM 224.0.1.65535 NT 24 Wed Jul 17 15:51:17 2019 
1000 9.999999999999999547e-07 1.000000000000000036e-10 
body $-1 -1 $-1 $1 $-1 $2 #
lump $-1 -1 $-1 $-1 $3 $0 #
transform $-1 -1 1 0 0 0 1 0 0 0 1 0 0 0 1 no_rotate no_reflect no_shear #
shell $-1 -1 $-1 $-1 $-1 $4 $-1 $1 #
face $-1 -1 $-1 $5 $6 $3 $-1 $7 forward single #
face $-1 -1 $-1 $8 $9 $3 $-1 $10 reversed single #
loop $-1 -1 $-1 $-1 $11 $4 #
plane-surface $-1 -1 $-1 2408.360864568599027 3095.601364345366164 14000.00000000000182 0.9999999998569973902 -1.691169161366488208e-05 -5.197112581643629645e-15 -5.197112582386830492e-15 0 -1 forward_v I I I I #
face $-1 -1 $-1 $-1 $12 $3 $-1 $13 forward single #
loop $-1 -1 $-1 $-1 $14 $5 #
plane-surface $-1 -1 $-1 2058.36086462430967 3095.607283437431306 14000.00000000000182 0.9999999998569973902 -1.691169161366488208e-05 0 0 0 -1 forward_v I I I I #
tcoedge-coedge $-1 -1 $-1 $11 $11 $15 $16 forward $6 $17 1.954981240454611768e-30 6.283185307179586232 #
loop $-1 -1 $-1 $-1 $18 $8 #
spline-surface $-1 -1 $-1 forward { exactsur full nubs 3 3 periodic open none none 84 2 
	0 3 0.002232142857142857019 1 0.004464285714285714038 1 0.008928571428571428076 1 0.01785714285714285615 1 
	0.0357142857142857123 1 0.05357142857142856845 1 0.0625 1 0.0669642857142857123 1 0.07142857142857142461 1 
	0.08928571428571427382 1 0.1071428571428571369 1 0.125 1 0.1428571428571428492 1 0.1587301587301587213 1 
	0.1746031746031745935 1 0.1825396825396825295 1 0.1904761904761904656 1 0.2023809523809523836 1 0.2142857142857142738 1 
	0.238095238095238082 1 0.2619047619047618625 1 0.2857142857142856984 1 0.3095238095238095344 1 0.3333333333333333148 1 
	0.3348214285714286031 1 0.336309523809523836 1 0.3377976190476190688 1 0.3392857142857143016 1 0.3422619047619047672 1 
	0.3452380952380952328 1 0.3571428571428570953 1 0.3690476190476190133 1 0.375 1 0.3779761904761904656 1 
	0.3809523809523809312 1 0.4047619047619047672 1 0.4166666666666666297 1 0.4285714285714285476 1 0.4444444444444444198 1 
	0.4603174603174602919 1 0.4682539682539682557 1 0.476190476190476164 1 0.4920634920634920362 1 0.5079365079365079083 1 
	0.5238095238095237249 1 0.5357142857142855874 1 0.5476190476190475609 1 0.5595238095238095344 1 0.5654761904761904656 1 
	0.5714285714285713969 1 0.5952380952380951218 1 0.6071428571428569843 1 0.6190476190476189577 1 0.6349206349206348854 1 
	0.650793650793650702 1 0.6666666666666666297 1 0.6785714285714286031 1 0.6904761904761904656 1 0.7023809523809523281 1 
	0.7142857142857141906 1 0.7232142857142855874 1 0.7321428571428569843 1 0.749999999999999889 1 0.7678571428571427937 1 
	0.7857142857142855874 1 0.7976190476190474499 1 0.8095238095238094234 1 0.8333333333333332593 1 0.8571428571428570953 1 
	0.875 1 0.8928571428571427937 1 0.9107142857142856984 1 0.9285714285714286031 1 0.9464285714285713969 1 
	0.9642857142857143016 1 0.9821428571428572063 1 0.9910714285714286031 1 0.9955357142857143016 1 0.9977678571428572063 1 
	0.9988839285714286031 1 0.9994419642857143016 1 0.9997209821428572063 1 1 3 
	0 3 1 3 
	2058.369320478856025 3595.607343719146229 13999.99990591784081 
	2058.369320478854206 3595.607343694551219 14002.33740045045488 
	2058.36931992435666 3595.57455731550408 14007.01238918569288 
	2058.369316598110345 3595.377875554416278 14016.3605290251453 
	2058.369304956872838 3594.68952775667367 14032.71011263067703 
	2058.369258427585009 3591.938240654907531 14065.33210180913375 
	2058.369125790074122 3584.095356361112408 14111.49410902067393 
	2058.368906566775877 3571.132586528610773 14156.48752424487793 
	2058.368709117420167 3559.457287366903984 14187.07267295625388 
	2058.368583996345933 3552.05879582577063 14204.24879749491811 
	2058.368384171417802 3540.243015916946661 14229.69169688666261 
	2058.368039437127209 3519.858683600739823 14266.57468051654359 
	2058.367489559286241 3487.344059834677864 14312.39951088019734 
	2058.366856372480925 3449.90332630219882 14354.29591105931468 
	2058.366174073762977 3409.558562320298279 14390.34979351364927 
	2058.365459925495998 3367.330511969397321 14420.70971699815345 
	2058.364850548055074 3331.297607763586711 14441.51318619977428 
	2058.364343846440534 3301.33599643493244 14455.94149832984294 
	2058.3638903954743 3274.523133036217132 14467.24450224646353 
	2058.363359353711985 3243.122270552806185 14478.23160188477414 
	2058.362544196592353 3194.921474698686779 14491.1484893342149 
	2058.361498896767444 3133.112181812259678 14500.46614811445579 
	2058.360230356839566 3058.102554228541067 14500.46537004169295 
	2058.358975990903673 2983.931040553668026 14489.28605797403361 
	2058.357763810559845 2912.253988643557022 14467.17644215148357 
	2058.356978060496203 2865.792052298212639 14444.80153276159763 
	2058.356568353332932 2841.565785453979061 14430.66277513014938 
	2058.356500443889672 2837.550253201073701 14428.26872090861434 
	2058.356432916200902 2833.557294444618492 14425.83720174182235 
	2058.356343395696967 2828.263885267769638 14422.5455561054896 
	2058.356232478497986 2821.705274861840735 14418.33845100710641 
	2058.355969516023379 2806.156122412540299 14407.94889885320845 
	2058.355587569421459 2783.571357776054811 14391.28068932370297 
	2058.355187779469816 2759.931503374734802 14370.93680542192669 
	2058.354922009122674 2744.21631980184884 14355.79862221959957 
	2058.35477432318703 2735.483548547621012 14346.90091488338294 
	2058.35441219881568 2714.070884704247419 14324.25270129680757 
	2058.353983794217584 2688.73902761481304 14292.48660295074296 
	2058.353534820173536 2662.190883024368304 14250.23305729271124 
	2058.353206196415613 2642.759134491299392 14213.46793540018552 
	2058.352905543976249 2624.981348989658272 14171.29382414096108 
	2058.352698144513397 2612.717676131806002 14131.53511590256312 
	2058.352573004983242 2605.318089462699845 14099.1140993249046 
	2058.352475341627269 2599.5431879465159 14066.36466503395786 
	2058.352405277164962 2595.400227884366359 14024.96428209691476 
	2058.35240528083159 2595.400444647897075 13975.03567410287178 
	2058.352482345006592 2599.9573020789353 13929.49524476450279 
	2058.352613094405115 2607.688603551484903 13888.63569493710384 
	2058.352776909535351 2617.375104710747109 13852.48489969190086 
	2058.352951113622112 2627.675911725150854 13823.0466297494786 
	2058.353112510312258 2637.219409164963963 13800.00741262253541 
	2058.353376265742099 2652.815449140309283 13766.00722609154582 
	2058.353746259128457 2674.693411558700973 13728.11429384362054 
	2058.354247417703846 2704.327261793304388 13687.96452226668589 
	2058.354706138557958 2731.451740935198814 13656.44425068455712 
	2058.355260229003761 2764.215487067236609 13624.48740753195671 
	2058.35592039068024 2803.251300756607179 13593.35757485389877 
	2058.356570579921481 2841.697436533440396 13568.52630372595013 
	2058.357192349495108 2878.463096784485515 13549.09541079868359 
	2058.357772475429101 2912.766342203406566 13534.12886863387757 
	2058.358369895853684 2948.092219813459906 13521.76789993980856 
	2058.358930319428509 2981.230449034740559 13512.8884992775038 
	2058.359447475451816 3011.810238795492296 13506.80599413448363 
	2058.360074006529885 3048.857450845147923 13501.57541977914661 
	2058.360864624997248 3095.607254505666333 13498.94977826045033 
	2058.361813368167532 3151.707081488772019 13502.10041228047703 
	2058.362646090122325 3200.946491859809157 13510.46652556924528 
	2058.363359352738826 3243.122193497949411 13521.76833753793653 
	2058.364155921321981 3290.223838893613447 13538.24839281472669 
	2058.365108358660564 3346.542104716004815 13565.36801159325114 
	2058.366069115770642 3403.352311984634071 13604.10245734679484 
	2058.366856371832 3449.903286755353292 13645.7039150403707 
	2058.367489563384424 3487.34430028361794 13687.60003435923682 
	2058.368039437499647 3519.858701456157632 13733.42506713742478 
	2058.368499087021519 3547.038053558191677 13782.60229183754745 
	2058.368862726767929 3568.540275696283061 13834.51347927662755 
	2058.369125788930432 3584.095276583568193 13888.50571919503091 
	2058.369258428285775 3591.938276426761149 13934.66769317979015 
	2058.369304956854194 3594.689524720257396 13967.28969991022677 
	2058.369316598168552 3595.377878001752833 13983.63928207747267 
	2058.369319508597982 3595.549972223157056 13991.81890513061808 
	2058.369320236299245 3595.593001303517212 13995.90931917847956 
	2058.369320418215466 3595.603757997920638 13997.95460179858128 
	2058.369320470192633 3595.606831441965824 13999.1233454629546 
	2058.36932047885648 3595.607343722220776 13999.70771910126496 
	2058.369320478856025 3595.607343719146229 13999.99990591784081 
	2175.035987126952477 3595.605370688458152 13999.99990591784081 
	2175.035987126950658 3595.605370663863141 14002.33740045045488 
	2175.035986572453112 3595.572584284816003 14007.01238918569288 
	2175.035983246206797 3595.3759025237282 14016.3605290251453 
	2175.035971604969291 3594.687554725985592 14032.71011263067703 
	2175.035925075681916 3591.936267624219454 14065.33210180913375 
	2175.035792438170574 3584.093383330424331 14111.49410902067393 
	2175.035573214872784 3571.130613497922695 14156.48752424487793 
	2175.035375765516619 3559.455314336215906 14187.07267295625388 
	2175.03525064444284 3552.056822795082553 14204.24879749491811 
	2175.035050819514709 3540.241042886258583 14229.69169688666261 
	2175.034706085224116 3519.856710570051746 14266.57468051654359 
	2175.034156207383148 3487.342086803989787 14312.39951088019734 
	2175.033523020577832 3449.901353271510743 14354.29591105931468 
	2175.032840721859884 3409.556589289610201 14390.34979351364927 
	2175.032126573593359 3367.328538938709244 14420.70971699815345 
	2175.031517196151981 3331.295634732898634 14441.51318619977428 
	2175.031010494537895 3301.334023404244363 14455.94149832984294 
	2175.030557043571662 3274.521160005529055 14467.24450224646353 
	2175.030026001809347 3243.120297522118108 14478.23160188477414 
	2175.029210844689715 3194.919501667998702 14491.1484893342149 
	2175.028165544864805 3133.1102087815716 14500.46614811445579 
	2175.026897004936927 3058.100581197852989 14500.46537004169295 
	2175.02564263900058 2983.929067522979949 14489.28605797403361 
	2175.024430458657207 2912.252015612868945 14467.17644215148357 
	2175.023644708593565 2865.790079267524561 14444.80153276159763 
	2175.023235001430294 2841.563812423290983 14430.66277513014938 
	2175.023167091987034 2837.548280170385624 14428.26872090861434 
	2175.023099564298263 2833.555321413930415 14425.83720174182235 
	2175.023010043793875 2828.26191223708156 14422.5455561054896 
	2175.022899126595348 2821.703301831152658 14418.33845100710641 
	2175.02263616412074 2806.154149381852221 14407.94889885320845 
	2175.022254217518366 2783.569384745366733 14391.28068932370297 
	2175.021854427567177 2759.929530344046725 14370.93680542192669 
	2175.021588657219581 2744.214346771160763 14355.79862221959957 
	2175.021440971283937 2735.481575516932935 14346.90091488338294 
	2175.021078846912587 2714.068911673559342 14324.25270129680757 
	2175.020650442314491 2688.737054584124962 14292.48660295074296 
	2175.020201468270443 2662.188909993680227 14250.23305729271124 
	2175.01987284451252 2642.757161460611314 14213.46793540018552 
	2175.019572192073156 2624.979375958970195 14171.29382414096108 
	2175.019364792609849 2612.715703101117924 14131.53511590256312 
	2175.019239653080149 2605.316116432011768 14099.1140993249046 
	2175.019141989723721 2599.541214915827823 14066.36466503395786 
	2175.019071925261414 2595.398254853678282 14024.96428209691476 
	2175.019071928928042 2595.398471617208997 13975.03567410287178 
	2175.019148993103045 2599.955329048247222 13929.49524476450279 
	2175.019279742501112 2607.686630520796825 13888.63569493710384 
	2175.019443557631803 2617.373131680059032 13852.48489969190086 
	2175.019617761718109 2627.673938694462777 13823.0466297494786 
	2175.019779158408255 2637.217436134275886 13800.00741262253541 
	2175.020042913838097 2652.813476109621206 13766.00722609154582 
	2175.020412907224454 2674.691438528012895 13728.11429384362054 
	2175.020914065799843 2704.32528876261631 13687.96452226668589 
	2175.021372786653501 2731.449767904510736 13656.44425068455712 
	2175.021926877100213 2764.213514036548531 13624.48740753195671 
	2175.022587038775782 2803.249327725919102 13593.35757485389877 
	2175.023237228017479 2841.695463502752318 13568.52630372595013 
	2175.023858997590651 2878.461123753797438 13549.09541079868359 
	2175.024439123525099 2912.764369172718489 13534.12886863387757 
	2175.025036543949227 2948.090246782771828 13521.76789993980856 
	2175.025596967524052 2981.228476004052482 13512.8884992775038 
	2175.026114123547359 3011.808265764804219 13506.80599413448363 
	2175.026740654625428 3048.855477814459846 13501.57541977914661 
	2175.027531273092791 3095.605281474978256 13498.94977826045033 
	2175.028480016263075 3151.705108458083942 13502.10041228047703 
	2175.029312738218323 3200.94451882912108 13510.46652556924528 
	2175.030026000834368 3243.120220467261333 13521.76833753793653 
	2175.030822569417978 3290.22186586292537 13538.24839281472669 
	2175.031775006756106 3346.540131685316737 13565.36801159325114 
	2175.03273576386664 3403.350338953945993 13604.10245734679484 
	2175.033523019927543 3449.901313724665215 13645.7039150403707 
	2175.034156211480422 3487.342327252929863 13687.60003435923682 
	2175.034706085595644 3519.856728425469555 13733.42506713742478 
	2175.035165735117516 3547.0360805275036 13782.60229183754745 
	2175.035529374863927 3568.538302665594983 13834.51347927662755 
	2175.035792437026885 3584.093303552880116 13888.50571919503091 
	2175.035925076381773 3591.936303396073072 13934.66769317979015 
	2175.035971604950646 3594.687551689569318 13967.28969991022677 
	2175.035983246265005 3595.375904971064756 13983.63928207747267 
	2175.035986156694435 3595.547999192468978 13991.81890513061808 
	2175.035986884395697 3595.591028272829135 13995.90931917847956 
	2175.035987066311918 3595.601784967232561 13997.95460179858128 
	2175.035987118289086 3595.604858411277746 13999.1233454629546 
	2175.035987126952932 3595.605370691532698 13999.70771910126496 
	2175.035987126952477 3595.605370688458152 13999.99990591784081 
	2291.702653776361331 3595.603397657771438 13999.99990591784081 
	2291.702653776359512 3595.603397633176883 14002.33740045045488 
	2291.702653221857418 3595.570611254128835 14007.01238918569288 
	2291.70264989560701 3595.373929493041487 14016.3605290251453 
	2291.702638254350404 3594.685581695299334 14032.71011263067703 
	2291.702591725000275 3591.934294593533195 14065.33210180913375 
	2291.702459087307943 3584.091410299737618 14111.49410902067393 
	2291.702239863850536 3571.128640467235073 14156.48752424487793 
	2291.702042414444804 3559.453341305528738 14187.07267295625388 
	2291.701917293358747 3552.05484976439493 14204.24879749491811 
	2291.70171746841379 3540.23906985557096 14229.69169688666261 
	2291.701372733995413 3519.854737539365033 14266.57468051654359 
	2291.700822856060768 3487.340113773302164 14312.39951088019734 
	2291.700189669142219 3449.899380240823575 14354.29591105931468 
	2291.69950737033696 3409.554616258923033 14390.34979351364927 
	2291.698793221984488 3367.326565908021621 14420.70971699815345 
	2291.698183844530831 3331.293661702211011 14441.51318619977428 
	2291.697677142902194 3301.332050373557195 14455.94149832984294 
	2291.697223691921408 3274.519186974841432 14467.24450224646353 
	2291.696692650148634 3243.11832449143094 14478.23160188477414 
	2291.695877493008538 3194.917528637311534 14491.1484893342149 
	2291.694832193162256 3133.108235750883523 14500.46614811445579 
	2291.693563653193905 3058.098608167165366 14500.46537004169295 
	2291.692309287229364 2983.927094492292326 14489.28605797403361 
	2291.691097106861434 2912.250042582182232 14467.17644215148357 
	2291.690311356775965 2865.788106236836938 14444.80153276159763 
	2291.689901649611784 2841.56183939260427 14430.66277513014938 
	2291.689833740168069 2837.546307139698456 14428.26872090861434 
	2291.689766212479299 2833.553348383243247 14425.83720174182235 
	2291.689676691975365 2828.259939206394392 14422.5455561054896 
	2291.689565774775929 2821.70132880046549 14418.33845100710641 
	2291.689302812300866 2806.152176351165053 14407.94889885320845 
	2291.688920865694399 2783.567411714679565 14391.28068932370297 
	2291.688521075738208 2759.927557313359557 14370.93680542192669 
	2291.688255305389248 2744.212373740473595 14355.79862221959957 
	2291.688107619453604 2735.479602486245767 14346.90091488338294 
	2291.687745495081344 2714.066938642872174 14324.25270129680757 
	2291.687317090476881 2688.735081553438249 14292.48660295074296 
	2291.68686811643056 2662.186936962993059 14250.23305729271124 
	2291.686539492669453 2642.755188429923692 14213.46793540018552 
	2291.686238840227361 2624.977402928282572 14171.29382414096108 
	2291.6860314407636 2612.713730070429392 14131.53511590256312 
	2291.68590630123208 2605.314143401323236 14099.1140993249046 
	2291.685808637876107 2599.539241885138836 14066.36466503395786 
	2291.685738573412436 2595.396281822990204 14024.96428209691476 
	2291.685738577079974 2595.396498586520465 13975.03567410287178 
	2291.685815641255886 2599.95335601755869 13929.49524476450279 
	2291.685946390655772 2607.684657490108293 13888.63569493710384 
	2291.686110205787372 2617.3711586493705 13852.48489969190086 
	2291.686284409876407 2627.67196566377379 13823.0466297494786 
	2291.686445806567463 2637.215463103587354 13800.00741262253541 
	2291.686709561999123 2652.811503078932674 13766.00722609154582 
	2291.687079555390937 2674.689465497323908 13728.11429384362054 
	2291.687580713972693 2704.323315731927323 13687.96452226668589 
	2291.688039434831353 2731.447794873821749 13656.44425068455712 
	2291.688593525290344 2764.211541005859544 13624.48740753195671 
	2291.689253686972279 2803.247354695230115 13593.35757485389877 
	2291.689903876221251 2841.693490472062877 13568.52630372595013 
	2291.690525645806247 2878.459150723108451 13549.09541079868359 
	2291.691105771744787 2912.762396142029502 13534.12886863387757 
	2291.691703192182558 2948.088273752082387 13521.76789993980856 
	2291.692263615766933 2981.22650297336304 13512.8884992775038 
	2291.692780771799335 3011.806292734114777 13506.80599413448363 
	2291.693407302886044 3048.853504783770404 13501.57541977914661 
	2291.694197921387968 3095.603308444289269 13498.94977826045033 
	2291.695146664592357 3151.703135427394045 13502.10041228047703 
	2291.695979386586259 3200.942545798431638 13510.46652556924528 
	2291.696692649230044 3243.118247436571892 13521.76833753793653 
	2291.697489217826842 3290.219892832235473 13538.24839281472669 
	2291.698441655198167 3346.538158654627296 13565.36801159325114 
	2291.699402412376912 3403.348365923256097 13604.10245734679484 
	2291.700189668494659 3449.899340693976228 13645.7039150403707 
	2291.700822860162134 3487.340354222240876 13687.60003435923682 
	2291.70137273437831 3519.854755394781023 13733.42506713742478 
	2291.701832384018417 3547.034107496815068 13782.60229183754745 
	2291.702196023901251 3568.536329634906906 13834.51347927662755 
	2291.702459086196541 3584.091330522191583 13888.50571919503091 
	2291.702591725716502 3591.934330365385904 13934.66769317979015 
	2291.702638254335852 3594.685578658881241 13967.28969991022677 
	2291.702649895667946 3595.373931940378043 13983.63928207747267 
	2291.702652806101923 3595.546026161781356 13991.81890513061808 
	2291.702653533804096 3595.589055242140603 13995.90931917847956 
	2291.702653715720317 3595.599811936544029 13997.95460179858128 
	2291.702653767697939 3595.602885380589669 13999.1233454629546 
	2291.702653776361331 3595.603397660845985 13999.70771910126496 
	2291.702653776361331 3595.603397657771438 13999.99990591784081 
	2408.369320424458238 3595.601424627083361 13999.99990591784081 
	2408.369320424456419 3595.601424602488805 14002.33740045045488 
	2408.369319869954325 3595.568638223440757 14007.01238918569288 
	2408.369316543704372 3595.37195646235341 14016.3605290251453 
	2408.369304902447311 3594.683608664611256 14032.71011263067703 
	2408.369258373097637 3591.932321562845118 14065.33210180913375 
	2408.36912573540485 3584.08943726904954 14111.49410902067393 
	2408.368906511947898 3571.126667436546995 14156.48752424487793 
	2408.368709062542166 3559.451368274840661 14187.07267295625388 
	2408.368583941456563 3552.052876733706853 14204.24879749491811 
	2408.368384116511152 3540.237096824882883 14229.69169688666261 
	2408.36803938209323 3519.852764508676955 14266.57468051654359 
	2408.367489504158129 3487.338140742614087 14312.39951088019734 
	2408.366856317240035 3449.897407210135498 14354.29591105931468 
	2408.366174018434776 3409.552643228234956 14390.34979351364927 
	2408.365459870082304 3367.324592877333544 14420.70971699815345 
	2408.364850492628648 3331.291688671522934 14441.51318619977428 
	2408.36434379100001 3301.330077342869117 14455.94149832984294 
	2408.363890340019225 3274.517213944153355 14467.24450224646353 
	2408.363359298246451 3243.116351460742862 14478.23160188477414 
	2408.362544141106355 3194.915555606623457 14491.1484893342149 
	2408.361498841260072 3133.106262720195446 14500.46614811445579 
	2408.360230301292177 3058.096635136477289 14500.46537004169295 
	2408.35897593532718 2983.925121461604249 14489.28605797403361 
	2408.357763754959251 2912.248069551494154 14467.17644215148357 
	2408.356978004873781 2865.786133206148861 14444.80153276159763 
	2408.3565682977096 2841.559866361916193 14430.66277513014938 
	2408.356500388265886 2837.544334109010379 14428.26872090861434 
	2408.356432860577115 2833.551375352555169 14425.83720174182235 
	2408.356343340073181 2828.257966175706315 14422.5455561054896 
	2408.356232422873745 2821.699355769777412 14418.33845100710641 
	2408.355969460398683 2806.150203320476976 14407.94889885320845 
	2408.355587513791761 2783.565438683991488 14391.28068932370297 
	2408.355187723836025 2759.92558428267148 14370.93680542192669 
	2408.354921953487064 2744.210400709785517 14355.79862221959957 
	2408.35477426755142 2735.47762945555769 14346.90091488338294 
	2408.354412143179161 2714.064965612184096 14324.25270129680757 
	2408.353983738574243 2688.733108522750172 14292.48660295074296 
	2408.353534764527922 2662.184963932304981 14250.23305729271124 
	2408.353206140766815 2642.753215399235614 14213.46793540018552 
	2408.352905488324723 2624.975429897594495 14171.29382414096108 
	2408.352698088860507 2612.711757039741315 14131.53511590256312 
	2408.352572949329442 2605.312170370635158 14099.1140993249046 
	2408.352475285973014 2599.537268854450758 14066.36466503395786 
	2408.352405221509798 2595.394308792302127 14024.96428209691476 
	2408.352405225176881 2595.394525555832388 13975.03567410287178 
	2408.352482289352793 2599.951382986870613 13929.49524476450279 
	2408.352613038752679 2607.682684459420216 13888.63569493710384 
	2408.352776853884279 2617.369185618682423 13852.48489969190086 
	2408.352951057973314 2627.669992633085712 13823.0466297494786 
	2408.35311245466437 2637.213490072899276 13800.00741262253541 
	2408.353376210095576 2652.809530048244596 13766.00722609154582 
	2408.35374620348739 2674.687492466635831 13728.11429384362054 
	2408.354247362069145 2704.321342701239246 13687.96452226668589 
	2408.354706082927805 2731.445821843133672 13656.44425068455712 
	2408.355260173386796 2764.209567975171467 13624.48740753195671 
	2408.355920335068276 2803.245381664542037 13593.35757485389877 
	2408.356570524317704 2841.691517441374799 13568.52630372595013 
	2408.357192293902244 2878.457177692420373 13549.09541079868359 
	2408.35777241984124 2912.760423111341424 13534.12886863387757 
	2408.358369840278556 2948.086300721394309 13521.76789993980856 
	2408.358930263863385 2981.224529942674963 13512.8884992775038 
	2408.359447419895332 3011.8043197034267 13506.80599413448363 
	2408.360073950982041 3048.851531753082327 13501.57541977914661 
	2408.36086456948442 3095.601335413601191 13498.94977826045033 
	2408.361813312688355 3151.701162396705968 13502.10041228047703 
	2408.362646034682712 3200.940572767743561 13510.46652556924528 
	2408.363359297326042 3243.116274405883814 13521.76833753793653 
	2408.364155865923294 3290.217919801547396 13538.24839281472669 
	2408.365108303294619 3346.536185623939218 13565.36801159325114 
	2408.366069060473365 3403.346392892568019 13604.10245734679484 
	2408.366856316591111 3449.897367663288151 13645.7039150403707 
	2408.367489508258586 3487.338381191552799 13687.60003435923682 
	2408.368039382474763 3519.852782364092945 13733.42506713742478 
	2408.368499032115324 3547.03213446612699 13782.60229183754745 
	2408.368862671997704 3568.534356604218829 13834.51347927662755 
	2408.369125734293902 3584.089357491503506 13888.50571919503091 
	2408.369258373813409 3591.932357334697826 13934.66769317979015 
	2408.369304902433214 3594.683605628193163 13967.28969991022677 
	2408.369316543764853 3595.371958909689965 13983.63928207747267 
	2408.36931945419883 3595.544053131093278 13991.81890513061808 
	2408.369320181901003 3595.587082211452525 13995.90931917847956 
	2408.369320363817224 3595.597838905855951 13997.95460179858128 
	2408.369320415794846 3595.600912349901591 13999.1233454629546 
	2408.369320424458238 3595.601424630157908 13999.70771910126496 
	2408.369320424458238 3595.601424627083361 13999.99990591784081 
	0 
	
	0 
	0 
	83 0 0.002232142857142857019 0.004464285714285714038 0.008928571428571428076 0.01785714285714285615 0.0357142857142857123 0.05357142857142856845 0.0625 0.0669642857142857123 0.07142857142857142461 0.08928571428571427382 0.1071428571428571369 0.125 0.1428571428571428492 0.1587301587301587213 0.1746031746031745935 0.1825396825396825295 0.1904761904761904656 0.2023809523809523836 0.2142857142857142738 0.238095238095238082 0.2619047619047618625 0.2857142857142856984 0.3095238095238095344 0.3333333333333333148 0.3348214285714286031 0.336309523809523836 0.3377976190476190688 0.3392857142857143016 0.3422619047619047672 0.3452380952380952328 0.3571428571428570953 0.3690476190476190133 0.375 0.3779761904761904656 0.3809523809523809312 0.4047619047619047672 0.4166666666666666297 0.4285714285714285476 0.4444444444444444198 0.4603174603174602919 0.4682539682539682557 0.476190476190476164 0.4920634920634920362 0.5079365079365079083 0.5238095238095237249 0.5357142857142855874 0.5476190476190475609 0.5595238095238095344 0.5654761904761904656 0.5714285714285713969 0.5952380952380951218 0.6071428571428569843 0.6190476190476189577 0.6349206349206348854 0.650793650793650702 0.6666666666666666297 0.6785714285714286031 0.6904761904761904656 0.7023809523809523281 0.7142857142857141906 0.7232142857142855874 0.7321428571428569843 0.749999999999999889 0.7678571428571427937 0.7857142857142855874 0.7976190476190474499 0.8095238095238094234 0.8333333333333332593 0.8571428571428570953 0.875 0.8928571428571427937 0.9107142857142856984 0.9285714285714286031 0.9464285714285713969 0.9642857142857143016 0.9821428571428572063 0.9910714285714286031 0.9955357142857143016 0.9977678571428572063 0.9988839285714286031 0.9994419642857143016 0.9997209821428572063 
	0 
	0 
	0 
	F 1 F 0 F 1 F 0 } I I I I #
tcoedge-coedge $-1 -1 $-1 $14 $14 $18 $19 reversed $9 $20 -6.283185307179586232 -0 #
tcoedge-coedge $-1 -1 $-1 $21 $22 $11 $16 reversed $12 $23 -6.283185307179586232 -1.954981240454611768e-30 #
tedge-edge $-1 -1 $-1 $24 1.954981240454611768e-30 $24 6.283185307179586232 $15 $25 forward @7 unknown 0.0006542245632285740393 #
pcurve $-1 -1 $-1 0 forward { exppc nurbs 2 periodic 5 
	1.954981240454611768e-30 2 1.570796326794896558 2 3.141592653589793116 2 4.712388980384689674 2 6.283185307179586232 2 
	0 500 1 
	-500 500 0.7071067811865451302 
	-500 0 1 
	-500 -500 0.7071067811865451302 
	0 -500 1 
	500 -500 0.7071067811865451302 
	500 0 1 
	500 500 0.7071067811865451302 
	0 500 1 
	0 
	plane 2408.360864568599027 3095.601364345366164 14000.00000000000182 0.9999999998569973902 -1.691169161366488208e-05 -5.197112581643629645e-15 -5.197112582386830492e-15 0 -1 forward_v I I I I 
	} 0 0 #
tcoedge-coedge $-1 -1 $-1 $22 $21 $14 $19 forward $12 $26 0 6.283185307179586232 #
tedge-edge $-1 -1 $-1 $27 0 $27 6.283185307179586232 $18 $28 forward @7 unknown 0.0006542245647989886276 #
pcurve $-1 -1 $-1 0 forward { exppc nurbs 2 periodic 5 
	-6.283185307179586232 2 -4.712388980384689674 2 -3.141592653589793116 2 -1.570796326794896558 2 0 2 
	0 500 1 
	500 500 0.7071067811865451302 
	500 0 1 
	500 -500 0.7071067811865476838 
	0 -500 1 
	-500 -500 0.7071067811865451302 
	-500 0 1 
	-500 500 0.7071067811865451302 
	0 500 1 
	0 
	plane 2058.36086462430967 3095.607283437431306 14000.00000000000182 -0.9999999998569973902 1.691169161366488208e-05 -0 0 0 -1 reverse_v I I I I 
	} 0 0 #
coedge $-1 -1 $-1 $18 $15 $22 $29 reversed $12 $30 #
coedge $-1 -1 $-1 $15 $18 $21 $29 forward $12 $31 #
pcurve $-1 -1 $-1 0 forward { exppc nubs 1 periodic 2 
	-6.283185307179586232 1 -1.954981240454611768e-30 1 
	1 1 
	0 1 
	2.726396621713971445e-13 
	spline forward { ref 0 } I I I I 
	} 0 0 #
tvertex-vertex $-1 -1 $-1 $16 $32 0.0001117764122664417916 #
ellipse-curve $-1 -1 $-1 2408.360864568599027 3095.601364345366164 14000.00000000000182 0.9999999998569973902 -1.691169161366488208e-05 -5.197112581643629645e-15 0.008455845806832441164 499.9999999284987666 0 1 I I #
pcurve $-1 -1 $-1 0 forward { exppc nubs 1 periodic 2 
	0 1 6.283185307179586232 1 
	0 0 
	1 0 
	4.41140239961761005e-13 
	spline forward { ref 0 } I I I I 
	} 0 0 #
tvertex-vertex $-1 -1 $-1 $19 $33 0.0001117764109283900654 #
ellipse-curve $-1 -1 $-1 2058.36086462430967 3095.607283437431306 14000.00000000000182 0.9999999998569973902 -1.691169161366488208e-05 0 0.008455845806832441164 499.9999999284987666 0 1 I I #
edge $-1 -1 $-1 $27 0 $24 0.9999999999741956414 $22 $34 forward @7 tangent #
pcurve $-1 -1 $-1 -1 $34 0 0 #
pcurve $-1 -1 $-1 1 $34 1 0 #
point $-1 -1 $-1 2408.369320414406047 3595.601364273864874 14000.00000000000182 #
point $-1 -1 $-1 2058.369320470116691 3595.607283365930016 14000.00000000000182 #
intcurve-curve $-1 -1 $-1 forward { parcur full nubs 3 open 2 
	0 3 1 3 
	2058.369320478856025 3595.607343719146229 13999.99990591784081 
	2175.035987126952477 3595.605370688458152 13999.99990591784081 
	2291.702653776361331 3595.603397657771438 13999.99990591784081 
	2408.369320424458238 3595.601424627083361 13999.99990591784081 
	0 
	
	spline forward { ref 0 } I I I I 
	null_surface 
	nubs 1 open 2 
	0 1 1 1 
	0 0 
	0 1 
	
	nullbs 
	I I 
	0 
	0 
	0 
	surf1 } F 0 F 0.9999999999741956414 #
End-of-ACIS-data 