700 0 1 0           
4 LibG 20 ASM 224.0.1.65535 NT 24 Wed Jul 17 15:51:17 2019 
1000 9.999999999999999547e-07 1.000000000000000036e-10 
body $-1 -1 $-1 $1 $-1 $2 #
lump $-1 -1 $-1 $-1 $3 $0 #
transform $-1 -1 1 0 0 0 1 0 0 0 1 0 0 0 1 no_rotate no_reflect no_shear #
shell $-1 -1 $-1 $-1 $-1 $4 $-1 $1 #
face $-1 -1 $-1 $5 $6 $3 $-1 $7 forward single #
face $-1 -1 $-1 $8 $9 $3 $-1 $10 reversed single #
loop $-1 -1 $-1 $-1 $11 $4 #
plane-surface $-1 -1 $-1 6899.323602501863206 2611.357296792528359 14000.00000000000182 0.9209894165464311833 -0.3895875955538937729 5.197112581643630434e-15 5.642966670705081585e-15 0 -1 forward_v I I I I #
face $-1 -1 $-1 $-1 $12 $3 $-1 $13 forward single #
loop $-1 -1 $-1 $-1 $14 $5 #
plane-surface $-1 -1 $-1 6576.977306715825762 2747.712955234185756 14000.00000000000364 0.9209894165464311833 -0.3895875955538937729 -5.197112581643630434e-15 -5.642966670705081585e-15 0 -1 forward_v I I I I #
tcoedge-coedge $-1 -1 $-1 $11 $11 $15 $16 forward $6 $17 -1.063517930449207031e-30 6.283185307179586232 #
loop $-1 -1 $-1 $-1 $18 $8 #
spline-surface $-1 -1 $-1 forward { exactsur full nubs 3 3 periodic open none none 86 2 
	0 3 0.002232142857142857019 1 0.004464285714285714038 1 0.008928571428571428076 1 0.01785714285714285615 1 
	0.0357142857142857123 1 0.05357142857142856845 1 0.0625 1 0.07142857142857142461 1 0.08928571428571427382 1 
	0.1071428571428571369 1 0.125 1 0.1428571428571428492 1 0.1587301587301587213 1 0.1746031746031745935 1 
	0.1904761904761904656 1 0.2023809523809523836 1 0.2142857142857142738 1 0.238095238095238082 1 0.2619047619047618625 1 
	0.2857142857142856984 1 0.2976190476190476164 1 0.3095238095238095344 1 0.3214285714285713969 1 0.3273809523809523281 1 
	0.3333333333333333148 1 0.3452380952380952328 1 0.3571428571428570953 1 0.3690476190476190133 1 0.375 1 
	0.3809523809523809312 1 0.3928571428571428492 1 0.4047619047619047672 1 0.4166666666666666297 1 0.4285714285714285476 1 
	0.4444444444444444198 1 0.4603174603174602919 1 0.476190476190476164 1 0.4801587301587301182 1 0.4821428571428570953 1 
	0.4841269841269840724 1 0.4861111111111110494 1 0.4880952380952380265 1 0.4900793650793650036 1 0.4910714285714284921 1 
	0.4915674603174602364 1 0.491815476190476164 1 0.4920634920634920362 1 0.5158730158730158166 1 0.5238095238095237249 1 
	0.5357142857142855874 1 0.5476190476190475609 1 0.5595238095238095344 1 0.5714285714285713969 1 0.5952380952380951218 1 
	0.6190476190476189577 1 0.6349206349206348854 1 0.650793650793650702 1 0.6666666666666666297 1 0.6785714285714286031 1 
	0.6904761904761904656 1 0.7023809523809523281 1 0.7142857142857141906 1 0.7321428571428569843 1 0.749999999999999889 1 
	0.7678571428571427937 1 0.7857142857142855874 1 0.7976190476190474499 1 0.8095238095238094234 1 0.8333333333333332593 1 
	0.8452380952380951218 1 0.8571428571428570953 1 0.875 1 0.8928571428571427937 1 0.9107142857142856984 1 
	0.9285714285714286031 1 0.9464285714285713969 1 0.9642857142857143016 1 0.9821428571428572063 1 0.9910714285714286031 1 
	0.9955357142857143016 1 0.9977678571428572063 1 0.9988839285714286031 1 0.9994419642857143016 1 0.9997209821428572063 1 
	1 3 
	0 3 1 3 
	6771.771136394118002 3208.20773888468284 13999.99988099467919 
	6771.771136376892173 3208.207738843972038 14002.33737553118772 
	6771.758363099655071 3208.177542674389315 14007.01236426789001 
	6771.681738309107459 3207.996400815933612 14016.36050425491158 
	6771.413565698784623 3207.36243777781101 14032.71008733459712 
	6770.341699012085883 3204.828532989954056 14065.33208002791798 
	6767.286195160674652 3197.60528784712551 14111.49407364781655 
	6762.236072657000477 3185.666741986360194 14156.48751342458308 
	6757.037702611009081 3173.377737280619385 14191.44193224960509 
	6751.084259803910754 3159.303732154555746 14225.59355252377827 
	6742.260407838244646 3138.444047799312557 14266.57470578413268 
	6729.593080178576201 3108.498344079518574 14312.39945140781856 
	6715.006673185589534 3074.015915435211809 14354.29598435994922 
	6699.288870556792062 3036.858854898529444 14390.34991176999938 
	6682.837294450660011 2997.967145688600795 14420.70971067612663 
	6665.991744908906185 2958.144078884507053 14445.67389687970172 
	6649.739058576133175 2919.722547312291226 14464.49778613551644 
	6634.447307053284021 2883.572676336983932 14478.23158461371895 
	6615.668875707913685 2839.180255413889881 14491.14854774044215 
	6591.588751008795043 2782.254572332827593 14500.46604039815975 
	6562.365874895903289 2713.171367611073492 14500.46566564289787 
	6538.285721025759813 2656.245615569355323 14491.14874930855694 
	6519.507248783390423 2611.853097964950848 14478.23209922652131 
	6505.74471310923218 2579.318310293697323 14465.87138366383988 
	6494.607923928716446 2552.990816588534926 14453.39921771118861 
	6485.935022427693184 2532.487980809520195 14442.16089139796532 
	6477.431864922472414 2512.386421727785546 14430.09814549705152 
	6467.143629243058058 2488.064917953476652 14413.50494304785207 
	6455.411995082569774 2460.331204088040522 14391.28058287838758 
	6446.20217982016311 2438.559098194894887 14370.93674515032581 
	6439.205126951040256 2422.017987253390402 14353.63591517768327 
	6432.464935798918304 2406.084100272727483 14335.67576339890002 
	6424.539235903210283 2387.347657413568868 14312.03585086336534 
	6415.88087860937685 2366.879204302102607 14281.92291629081956 
	6408.123499632057246 2348.540673969410818 14250.23329330170782 
	6400.553279783587641 2330.644589902383359 14213.46785091847596 
	6393.62721671566851 2314.271299641240148 14171.29388010786715 
	6387.893799754706379 2300.71743806539962 14123.58341478662078 
	6385.00310690056358 2293.883807949149286 14086.8794350439548 
	6383.785820548211632 2291.006129449369837 14064.23671750398717 
	6383.403228691442564 2290.101678037218335 14055.98368690009374 
	6383.146375082558734 2289.494473244003984 14049.78521061056927 
	6382.919642627473877 2288.958475193962386 14043.57899811141579 
	6382.723071741344029 2288.493779428994003 14037.36601231957684 
	6382.58441875792505 2288.16600223132491 14032.18368484915118 
	6382.500583801966059 2287.967815461367081 14028.55393796933276 
	6382.461969685768054 2287.876531260447337 14026.73858778493195 
	6382.44085316697965 2287.826611574757862 14025.70111652056949 
	6381.93867766295989 2286.639463088418324 14000.28101244357458 
	6382.265478260286727 2287.412023342419161 13966.69374181714011 
	6384.480887222644014 2292.64927481293762 13921.32340082880364 
	6386.890260989360286 2298.345061242329393 13888.63574817974404 
	6390.664053421055542 2307.26634859749629 13852.48487478290917 
	6395.47984691165675 2318.650938065501578 13817.15916250948976 
	6403.253760851623156 2337.028557234357322 13771.42092729369142 
	6415.429408239096119 2365.811923316071898 13717.28687920503398 
	6431.625446515186013 2404.09953825200455 13665.15911940740261 
	6447.871246310185597 2442.504789973198058 13624.48756143870742 
	6463.079021540672329 2478.456140058137862 13593.35744841863743 
	6478.057226315465414 2513.864783027991052 13568.52639445466775 
	6492.380654689978655 2547.725527292182051 13549.0955133580228 
	6505.744771082629086 2579.318447342929176 13534.12891275416405 
	6519.507300913493054 2611.853221200496137 13521.76812951753527 
	6535.938476743474894 2650.696703933033405 13510.46656622955743 
	6555.121507614466282 2696.045602642979702 13502.10031381912086 
	6576.97731961399495 2747.712985719134849 13498.9499782933417 
	6598.833089284328707 2799.380268729325962 13502.10035348441306 
	6618.016176584452296 2844.729300837805113 13510.46652154878393 
	6634.447243639858243 2883.572526425874457 13521.76858292044926 
	6652.797527250755593 2926.952801334490687 13538.24841667188593 
	6670.35006293448896 2968.447191254319478 13559.9446339086735 
	6686.810913969457943 3007.360826501564588 13586.49528497728534 
	6700.497979385821054 3039.717201641984047 13612.42300445009641 
	6715.006691062843856 3074.015957696110036 13645.70376971433507 
	6729.593151478733489 3108.498512635100269 13687.60010169947236 
	6742.260412056729365 3138.444057773570421 13733.42502350721952 
	6752.849093637014448 3163.475819003002471 13782.6023244573189 
	6761.226190576628142 3183.279369499307904 13834.51340049270584 
	6767.286172158612317 3197.60523347102253 13888.50570155445166 
	6770.341720580007859 3204.828583977012386 13934.66766040708535 
	6771.413565435722376 3207.362437155923999 13967.28967520716651 
	6771.681739722620478 3207.996404157449433 13983.63925683400521 
	6771.74878518769674 3208.154900383723088 13991.81888020382939 
	6771.765548783258964 3208.194529710361167 13995.90929424123169 
	6771.769739444403058 3208.204436479988999 13997.95457687398994 
	6771.77093681865972 3208.207267086072079 13999.12332053823411 
	6771.771136396270776 3208.207738889771463 13999.70769417761585 
	6771.771136394118002 3208.20773888468284 13999.99988099467919 
	6879.219901656130787 3162.755852737463556 13999.99988099467919 
	6879.219901638904958 3162.755852696752754 14002.33737553118772 
	6879.207128361667856 3162.725656527170031 14007.01236426789001 
	6879.130503571120244 3162.544514668714328 14016.36050425491158 
	6878.862330960797408 3161.910551630591726 14032.71008733459712 
	6877.790464274098667 3159.376646842734772 14065.33208002791798 
	6874.734960422687436 3152.153401699906226 14111.49407364781655 
	6869.684837919014171 3140.214855839140455 14156.48751342458308 
	6864.486467873022775 3127.925851133399647 14191.44193224960509 
	6858.533025065925358 3113.851846007336007 14225.59355252377827 
	6849.70917310025834 3092.992161652092818 14266.57470578413268 
	6837.041845440590805 3063.046457932298836 14312.39945140781856 
	6822.455438447604138 3028.564029287991616 14354.29598435994922 
	6806.737635818806666 2991.40696875130925 14390.34991176999938 
	6790.286059712675524 2952.515259541380146 14420.70971067612663 
	6773.440510170921698 2912.692192737286859 14445.67389687970172 
	6757.187823838148688 2874.270661165070578 14464.49778613551644 
	6741.896072315299534 2838.120790189763284 14478.23158461371895 
	6723.117640969929198 2793.728369266669233 14491.14854774044215 
	6699.037516270810556 2736.802686185606944 14500.46604039815975 
	6669.814640157918802 2667.719481463852844 14500.46566564289787 
	6645.734486287775326 2610.793729422134675 14491.14874930855694 
	6626.956014045405936 2566.4012118177302 14478.23209922652131 
	6613.193478371247693 2533.866424146476675 14465.87138366383988 
	6602.056689190731959 2507.538930441314733 14453.39921771118861 
	6593.383787689708697 2487.036094662300002 14442.16089139796532 
	6584.880630184487018 2466.934535580565353 14430.09814549705152 
	6574.592394505073571 2442.613031806256458 14413.50494304785207 
	6562.860760344584378 2414.879317940820329 14391.28058287838758 
	6553.650945082178623 2393.107212047674693 14370.93674515032581 
	6546.65389221305486 2376.566101106170208 14353.63591517768327 
	6539.913701060932908 2360.632214125507289 14335.67576339890002 
	6531.988001165224887 2341.895771266348675 14312.03585086336534 
	6523.329643871391454 2321.427318154882869 14281.92291629081956 
	6515.57226489407094 2303.08878782219108 14250.23329330170782 
	6508.002045045601335 2285.19270375516362 14213.46785091847596 
	6501.075981977682204 2268.819413494020409 14171.29388010786715 
	6495.342565016719163 2255.265551918180336 14123.58341478662078 
	6492.451872162576365 2248.431921801930002 14086.8794350439548 
	6491.234585810224416 2245.554243302150553 14064.23671750398717 
	6490.851993953455349 2244.649791889999051 14055.98368690009374 
	6490.595140344571519 2244.0425870967847 14049.78521061056927 
	6490.368407889486662 2243.506589046743102 14043.57899811141579 
	6490.171837003356814 2243.041893281774719 14037.36601231957684 
	6490.033184019937835 2242.714116084105626 14032.18368484915118 
	6489.949349063978843 2242.515929314147797 14028.55393796933276 
	6489.910734947780838 2242.424645113228053 14026.73858778493195 
	6489.889618428992435 2242.374725427538579 14025.70111652056949 
	6489.387442924972675 2241.18757694119904 14000.28101244357458 
	6489.714243522298602 2241.960137195200332 13966.69374181714011 
	6491.92965248465589 2247.19738866571879 13921.32340082880364 
	6494.339026251372161 2252.893175095110564 13888.63574817974404 
	6498.112818683067417 2261.81446245027746 13852.48487478290917 
	6502.928612173667716 2273.199051918282748 13817.15916250948976 
	6510.702526113634121 2291.576671087138948 13771.42092729369142 
	6522.878173501107085 2320.360037168853523 13717.28687920503398 
	6539.074211777196069 2358.647652104786175 13665.15911940740261 
	6555.320011572195654 2397.052903825980138 13624.48756143870742 
	6570.527786802682385 2433.004253910919942 13593.35744841863743 
	6585.50599157747547 2468.412896880773133 13568.52639445466775 
	6599.829419951987802 2502.273641144964131 13549.0955133580228 
	6613.193536344639142 2533.866561195711256 13534.12891275416405 
	6626.956066175502201 2566.401335053278217 13521.76812951753527 
	6643.38724200548404 2605.244817785815485 13510.46656622955743 
	6662.570272876475428 2650.593716495761782 13502.10031381912086 
	6684.426084876004097 2702.26109957191693 13498.9499782933417 
	6706.281854546337854 2753.928382582108043 13502.10035348441306 
	6725.464941846461443 2799.277414690587193 13510.46652154878393 
	6741.89600890186739 2838.120640278656538 13521.76858292044926 
	6760.24629251276474 2881.500915187272767 13538.24841667188593 
	6777.798828196499016 2922.995305107101558 13559.9446339086735 
	6794.259679231467999 2961.908940354346669 13586.49528497728534 
	6807.94674464783111 2994.265315494765673 13612.42300445009641 
	6822.455456324853913 3028.564071548891661 13645.70376971433507 
	6837.041916740743545 3063.046626487881895 13687.60010169947236 
	6849.709177318740331 3092.992171626352047 13733.42502350721952 
	6860.297858899025414 3118.023932855783642 13782.6023244573189 
	6868.674955838639107 3137.827483352089075 13834.51340049270584 
	6874.734937420624192 3152.1533473238037 13888.50570155445166 
	6877.790485842019734 3159.376697829793557 13934.66766040708535 
	6878.86233069773516 3161.910551008704715 13967.28967520716651 
	6879.130504984632353 3162.544518010230149 13983.63925683400521 
	6879.197550449709524 3162.703014236503805 13991.81888020382939 
	6879.214314045271749 3162.742643563141883 13995.90929424123169 
	6879.218504706415843 3162.752550332769715 13997.95457687398994 
	6879.219702080672505 3162.755380938852795 13999.12332053823411 
	6879.219901658283561 3162.755852742552179 13999.70769417761585 
	6879.219901656130787 3162.755852737463556 13999.99988099467919 
	6986.668666919094903 3117.303966589840002 13999.99988099467919 
	6986.668666901868164 3117.303966549130109 14002.33737553118772 
	6986.655893624629243 3117.27377037954875 14007.01236426789001 
	6986.579268834077993 3117.092628521094412 14016.36050425491158 
	6986.311096223741515 3116.458665482977722 14032.71008733459712 
	6985.239229536993662 3113.924760695141686 14065.33208002791798 
	6982.183725685449645 3106.701515552368619 14111.49407364781291 
	6977.133603181657236 3094.762969691654234 14156.48751342457945 
	6971.935233135627641 3082.473964985928887 14191.44193224959963 
	6965.981790328498391 3068.399959859878436 14225.59355252377463 
	6957.15793836273042 3047.540275504678448 14266.5747057841254 
	6944.490610702990125 3017.594571784914933 14312.39945140781492 
	6929.904203709900685 2983.112143140651824 14354.29598435994194 
	6914.186401081094118 2945.955082603973096 14390.34991176999392 
	6897.734824974885669 2907.063373394077189 14420.70971067612118 
	6880.889275433128205 2867.240306589984812 14445.67389687969626 
	6864.636589100341553 2828.818775017774897 14464.49778613551098 
	6849.344837577483304 2792.66890404247215 14478.23158461371168 
	6830.566406232100235 2748.276483119383101 14491.14854774043488 
	6806.48628153296977 2691.350800038325815 14500.46604039815065 
	6777.263405420055278 2622.26759531658081 14500.46566564289242 
	6753.183251549899978 2565.341843274868097 14491.14874930854967 
	6734.404779307526951 2520.949325670465441 14478.23209922651404 
	6720.642243633366888 2488.414537999212371 14465.87138366383624 
	6709.505454452849335 2462.087044294050429 14453.39921771118316 
	6700.832552951826983 2441.584208515035698 14442.16089139795804 
	6692.329395446605304 2421.482649433300594 14430.09814549704788 
	6682.041159767192767 2397.1611456589917 14413.50494304784297 
	6670.309525606704483 2369.42743179355557 14391.28058287838212 
	6661.099710344301457 2347.65532590040857 14370.93674515032035 
	6654.102657475177693 2331.114214958903631 14353.63591517767782 
	6647.362466323057561 2315.180327978240712 14335.67576339889638 
	6639.436766427354087 2296.443885119079823 14312.0358508633617 
	6630.778409133525201 2275.975432007610834 14281.92291629081592 
	6623.021030156210145 2257.636901674918136 14250.233293301706 
	6615.450810307747815 2239.740817607886584 14213.46785091847414 
	6608.524747239845965 2223.367527346737006 14171.29388010786715 
	6602.791330278889291 2209.81366577089284 14123.58341478661714 
	6599.900637424794695 2202.980035654622498 14086.8794350439548 
	6598.683351072448204 2200.102357154840774 14064.23671750398717 
	6598.300759215679136 2199.197905742688363 14055.98368690009193 
	6598.043905606797125 2198.590700949474467 14049.78521061056927 
	6597.817173151712268 2198.054702899431504 14043.57899811141397 
	6597.620602265583329 2197.590007134463576 14037.36601231957502 
	6597.48194928216526 2197.262229936793574 14032.18368484914754 
	6597.398114326207178 2197.0640431668362 14028.55393796932913 
	6597.359500210008264 2196.972758965916455 14026.73858778493013 
	6597.338383691221679 2196.922839280226981 14025.70111652056767 
	6596.836208187196462 2195.735690793890171 14000.28101244357276 
	6597.163008784502381 2196.508251047899648 13966.69374181713647 
	6599.37841774685603 2201.745502518419471 13921.32340082880182 
	6601.787791513561388 2207.441288947815792 13888.6357481797404 
	6605.561583945249367 2216.362576302985872 13852.48487478290554 
	6610.377377435845119 2227.747165770993888 13817.15916250948794 
	6618.15129137580152 2246.124784939853726 13771.4209272936896 
	6630.326938763257203 2274.908151021576032 13717.28687920503216 
	6646.522977039338912 2313.195765957511412 13665.15911940739898 
	6662.768776834328492 2351.601017678709923 13624.4875614387056 
	6677.976552064814314 2387.552367763649727 13593.35744841863743 
	6692.954756839606489 2422.961010733503372 13568.52639445466593 
	6707.278185214122459 2456.821754997693461 13549.09551335802098 
	6720.642301606775618 2488.414675048439221 13534.12891275416405 
	6734.404831437644134 2520.949448906004363 13521.76812951753527 
	6750.836007267633249 2559.792931638538448 13510.46656622955743 
	6770.019038138626456 2605.141830348483836 13502.10031381911904 
	6791.8748501381815 2656.809213424628069 13498.9499782933417 
	6813.730619808522533 2708.476496434816454 13502.10035348441306 
	6832.913707108663402 2753.825528543287419 13510.46652154878393 
	6849.344774164082082 2792.668754131352671 13521.76858292044926 
	6867.695057774987617 2836.049029039964353 13538.24841667188593 
	6885.247593458749179 2877.54341895978223 13559.9446339086735 
	6901.70844449373908 2916.457054207018246 13586.49528497728534 
	6915.395509910118562 2948.813429347429974 13612.42300445009641 
	6929.904221587183201 2983.112185401538682 13645.70376971433507 
	6944.49068200311649 3017.594740340509816 13687.60010169947236 
	6957.157942581172392 3047.540285478955411 13733.42502350721952 
	6967.746624161507498 3072.572046708365633 13782.6023244573189 
	6976.123721101216688 3092.375597204631504 13834.51340049270584 
	6982.183702683363663 3106.701461176277462 13888.50570155445166 
	6985.239251104911091 3113.924811682202289 13934.66766040708535 
	6986.311095960680177 3116.458664861091165 13967.28967520716651 
	6986.579270247592831 3117.092631862609778 13983.63925683400521 
	6986.646315712671822 3117.251128088882524 13991.81888020382939 
	6986.663079308235865 3117.290757415519693 13995.90929424123169 
	6986.667269969379959 3117.30066418514798 13997.95457687398994 
	6986.668467343635712 3117.303494791228786 13999.12332053823411 
	6986.668666921248587 3117.303966594929079 13999.70769417761585 
	6986.668666919094903 3117.303966589840002 13999.99988099467919 
	7094.117432181107688 3071.852080442620718 13999.99988099467919 
	7094.117432163880949 3071.852080401910825 14002.33737553118772 
	7094.104658886641118 3071.821884232329467 14007.01236426789001 
	7094.028034096089868 3071.640742373875582 14016.36050425491158 
	7093.75986148575339 3071.006779335758893 14032.71008733459712 
	7092.687994799005537 3068.472874547922856 14065.33208002791798 
	7089.63249094746061 3061.249629405150245 14111.49407364781291 
	7084.582368443667292 3049.31108354443586 14156.48751342457945 
	7079.383998397637697 3037.022078838710968 14191.44193224959963 
	7073.430555590508447 3022.948073712660516 14225.59355252377463 
	7064.606703624739566 3002.088389357460983 14266.5747057841254 
	7051.939375964998362 2972.142685637697468 14312.39945140781492 
	7037.352968971908922 2937.660256993434814 14354.29598435994194 
	7021.635166343101446 2900.503196456756086 14390.34991176999392 
	7005.183590236892996 2861.611487246860179 14420.70971067612118 
	6988.338040695134623 2821.788420442768256 14445.67389687969626 
	6972.085354362347971 2783.366888870558341 14464.49778613551098 
	6956.793602839489722 2747.217017895255594 14478.23158461371168 
	6938.015171494106653 2702.824596972166546 14491.14854774043488 
	6913.935046794975278 2645.89891389110926 14500.46604039815065 
	6884.712170682061696 2576.815709169364709 14500.46566564289242 
	6860.632016811906396 2519.889957127651542 14491.14874930854967 
	6841.853544569533369 2475.497439523248886 14478.23209922651404 
	6828.091008895373307 2442.962651851995815 14465.87138366383624 
	6816.954219714855753 2416.635158146833874 14453.39921771118316 
	6808.281318213833401 2396.132322367819143 14442.16089139795804 
	6799.778160708611722 2376.030763286084039 14430.09814549704788 
	6789.489925029200094 2351.70925951177469 14413.50494304784297 
	6777.758290868711811 2323.97554564633856 14391.28058287838212 
	6768.548475606308784 2302.20343975319156 14370.93674515032035 
	6761.551422737185931 2285.662328811686621 14353.63591517767782 
	6754.811231585065798 2269.728441831023247 14335.67576339889638 
	6746.885531689362324 2250.991998971862358 14312.0358508633617 
	6738.227174395534348 2230.523545860393369 14281.92291629081592 
	6730.469795418219292 2212.185015527700216 14250.233293301706 
	6722.899575569757872 2194.288931460668664 14213.46785091847414 
	6715.973512501856021 2177.915641199518632 14171.29388010786715 
	6710.240095540900256 2164.361779623674465 14123.58341478661714 
	6707.349402686805661 2157.528149507403668 14086.8794350439548 
	6706.132116334460079 2154.650471007621945 14064.23671750398717 
	6705.749524477691011 2153.746019595469534 14055.98368690009193 
	6705.492670868809 2153.138814802255638 14049.78521061056927 
	6705.265938413724143 2152.602816752212675 14043.57899811141397 
	6705.069367527595205 2152.138120987244747 14037.36601231957502 
	6704.930714544177135 2151.810343789574745 14032.18368484914754 
	6704.846879588219053 2151.612157019617371 14028.55393796932913 
	6704.808265472020139 2151.520872818697626 14026.73858778493013 
	6704.787148953233554 2151.470953133008152 14025.70111652056767 
	6704.284973449209247 2150.283804646671342 14000.28101244357276 
	6704.611774046515166 2151.056364900680364 13966.69374181713647 
	6706.827183008869724 2156.293616371200187 13921.32340082880182 
	6709.236556775575082 2161.989402800596054 13888.6357481797404 
	6713.010349207263971 2170.910690155766133 13852.48487478290554 
	6717.826142697859723 2182.295279623773695 13817.15916250948794 
	6725.600056637817033 2200.672898792633532 13771.4209272936896 
	6737.775704025273626 2229.456264874355384 13717.28687920503216 
	6753.971742301355334 2267.743879810290309 13665.15911940739898 
	6770.217542096345824 2306.14913153148882 13624.4875614387056 
	6785.425317326831646 2342.100481616428624 13593.35744841863743 
	6800.403522101624731 2377.509124586281814 13568.52639445466593 
	6814.726950476140701 2411.369868850471903 13549.09551335802098 
	6828.09106686879386 2442.962788901217664 13534.12891275416405 
	6841.853596699662376 2475.497562758782806 13521.76812951753527 
	6858.284772529651491 2514.341045491316891 13510.46656622955743 
	6877.467803400645607 2559.689944201261824 13502.10031381911904 
	6899.323615400199742 2611.357327277406512 13498.9499782933417 
	6921.179385070541684 2663.024610287594442 13502.10035348441306 
	6940.362472370681644 2708.373642396065861 13510.46652154878393 
	6956.793539426100324 2747.216867984131113 13521.76858292044926 
	6975.143823037005859 2790.597142892742795 13538.24841667188593 
	6992.696358720767421 2832.091532812560672 13559.9446339086735 
	7009.157209755756412 2871.005168059796688 13586.49528497728534 
	7022.844275172135895 2903.361543200208871 13612.42300445009641 
	7037.352986849200533 2937.660299254317579 13645.70376971433507 
	7051.939447265132912 2972.142854193289168 13687.60010169947236 
	7064.606707843187905 3002.088399331734763 13733.42502350721952 
	7075.195389423523011 3027.12016056114544 13782.6023244573189 
	7083.572486363231292 3046.92371105741131 13834.51340049270584 
	7089.632467945377357 3061.249575029057723 13888.50570155445166 
	7092.688016366923875 3068.472925534982551 13934.66766040708535 
	7093.759861222692962 3071.006778713871881 13967.28967520716651 
	7094.028035509605616 3071.640745715390494 13983.63925683400521 
	7094.095080974684606 3071.79924194166324 13991.81888020382939 
	7094.11184457024865 3071.838871268300409 13995.90929424123169 
	7094.116035231392743 3071.848778037928696 13997.95457687398994 
	7094.117232605648496 3071.851608644009502 13999.12332053823411 
	7094.117432183261371 3071.852080447709795 13999.70769417761585 
	7094.117432181107688 3071.852080442620718 13999.99988099467919 
	0 
	
	0 
	0 
	85 0 0.002232142857142857019 0.004464285714285714038 0.008928571428571428076 0.01785714285714285615 0.0357142857142857123 0.05357142857142856845 0.0625 0.07142857142857142461 0.08928571428571427382 0.1071428571428571369 0.125 0.1428571428571428492 0.1587301587301587213 0.1746031746031745935 0.1904761904761904656 0.2023809523809523836 0.2142857142857142738 0.238095238095238082 0.2619047619047618625 0.2857142857142856984 0.2976190476190476164 0.3095238095238095344 0.3214285714285713969 0.3273809523809523281 0.3333333333333333148 0.3452380952380952328 0.3571428571428570953 0.3690476190476190133 0.375 0.3809523809523809312 0.3928571428571428492 0.4047619047619047672 0.4166666666666666297 0.4285714285714285476 0.4444444444444444198 0.4603174603174602919 0.476190476190476164 0.4801587301587301182 0.4821428571428570953 0.4841269841269840724 0.4861111111111110494 0.4880952380952380265 0.4900793650793650036 0.4910714285714284921 0.4915674603174602364 0.491815476190476164 0.4920634920634920362 0.5158730158730158166 0.5238095238095237249 0.5357142857142855874 0.5476190476190475609 0.5595238095238095344 0.5714285714285713969 0.5952380952380951218 0.6190476190476189577 0.6349206349206348854 0.650793650793650702 0.6666666666666666297 0.6785714285714286031 0.6904761904761904656 0.7023809523809523281 0.7142857142857141906 0.7321428571428569843 0.749999999999999889 0.7678571428571427937 0.7857142857142855874 0.7976190476190474499 0.8095238095238094234 0.8333333333333332593 0.8452380952380951218 0.8571428571428570953 0.875 0.8928571428571427937 0.9107142857142856984 0.9285714285714286031 0.9464285714285713969 0.9642857142857143016 0.9821428571428572063 0.9910714285714286031 0.9955357142857143016 0.9977678571428572063 0.9988839285714286031 0.9994419642857143016 0.9997209821428572063 
	0 
	0 
	0 
	F 1 F 0 F 1 F 0 } I I I I #
tcoedge-coedge $-1 -1 $-1 $14 $14 $18 $19 reversed $9 $20 -6.283185307179586232 -1.063517930449207031e-30 #
tcoedge-coedge $-1 -1 $-1 $21 $22 $11 $16 reversed $12 $23 -6.283185307179586232 1.063517930449207031e-30 #
tedge-edge $-1 -1 $-1 $24 -1.063517930449207031e-30 $24 6.283185307179586232 $15 $25 forward @7 unknown 0.0006476939502290677067 #
pcurve $-1 -1 $-1 0 forward { exppc nurbs 2 periodic 5 
	-1.063517930449207031e-30 2 1.570796326794896558 2 3.141592653589793116 2 4.712388980384689674 2 6.283185307179586232 2 
	1.818989403545856476e-12 500 1 
	-499.999999999998181 500.0000000000009095 0.7071067811865445751 
	-500 9.094947017729282379e-13 1 
	-500 -499.9999999999990905 0.7071067811865447972 
	0 -500 1 
	500 -500.0000000000009095 0.7071067811865445751 
	500 -9.094947017729282379e-13 1 
	500.000000000001819 499.9999999999990905 0.7071067811865456854 
	1.818989403545856476e-12 500 1 
	0 
	plane 6899.323602501863206 2611.357296792528359 14000.00000000000182 0.9209894165464311833 -0.3895875955538937729 5.197112581643630434e-15 5.642966670705081585e-15 0 -1 forward_v I I I I 
	} 0 0 #
tcoedge-coedge $-1 -1 $-1 $22 $21 $14 $19 forward $12 $26 1.063517930449207031e-30 6.283185307179586232 #
tedge-edge $-1 -1 $-1 $27 1.063517930449207031e-30 $27 6.283185307179586232 $18 $28 forward @7 unknown 0.0006476939497958398174 #
pcurve $-1 -1 $-1 0 forward { exppc nurbs 2 periodic 5 
	-6.283185307179586232 2 -4.712388980384689674 2 -3.141592653589793116 2 -1.570796326794896558 2 -1.063517930449207031e-30 2 
	-1.818989403545856476e-12 500 1 
	499.999999999998181 500.0000000000009095 0.7071067811865445751 
	500 9.094947017729282379e-13 1 
	500 -499.9999999999990905 0.7071067811865447972 
	0 -500 1 
	-500 -500.0000000000009095 0.7071067811865445751 
	-500 -9.094947017729282379e-13 1 
	-500.000000000001819 499.9999999999990905 0.7071067811865447972 
	-1.818989403545856476e-12 500 1 
	0 
	plane 6576.977306715825762 2747.712955234185756 14000.00000000000364 -0.9209894165464311833 0.3895875955538937729 5.197112581643630434e-15 -5.642966670705081585e-15 0 -1 reverse_v I I I I 
	} 0 0 #
coedge $-1 -1 $-1 $18 $15 $22 $29 reversed $12 $30 #
coedge $-1 -1 $-1 $15 $18 $21 $29 forward $12 $31 #
pcurve $-1 -1 $-1 0 forward { exppc nubs 1 periodic 2 
	-6.283185307179586232 1 1.063517930449207031e-30 1 
	1 1 
	0 1 
	0 
	spline forward { ref 0 } I I I I 
	} 0 0 #
tvertex-vertex $-1 -1 $-1 $16 $32 0.0001444357983362200162 #
ellipse-curve $-1 -1 $-1 6899.323602501863206 2611.357296792528359 14000.00000000000182 0.9209894165464311833 -0.3895875955538937729 5.197112581643630434e-15 194.7937977769469171 460.494708273215565 0 1 I I #
pcurve $-1 -1 $-1 0 forward { exppc nubs 1 periodic 2 
	1.063517930449207031e-30 1 6.283185307179586232 1 
	0 0 
	1 0 
	1.002504543797288212e-11 
	spline forward { ref 0 } I I I I 
	} 0 0 #
tvertex-vertex $-1 -1 $-1 $19 $33 0.0001444358007265401087 #
ellipse-curve $-1 -1 $-1 6576.977306715825762 2747.712955234185756 14000.00000000000364 0.9209894165464311833 -0.3895875955538937729 -5.197112581643630434e-15 194.7937977769469171 460.494708273215565 0 1 I I #
edge $-1 -1 $-1 $27 0 $24 0.9999999999549081808 $22 $34 forward @7 tangent #
pcurve $-1 -1 $-1 -1 $34 0 0 #
pcurve $-1 -1 $-1 1 $34 1 0 #
point $-1 -1 $-1 7094.117400278810237 3071.852005065743924 14000.00000000000182 #
point $-1 -1 $-1 6771.771104492772793 3208.207663507401321 14000.00000000000364 #
intcurve-curve $-1 -1 $-1 forward { parcur full nubs 3 open 2 
	0 3 1 3 
	6771.771136394118002 3208.20773888468284 13999.99988099467919 
	6879.219901656130787 3162.755852737463556 13999.99988099467919 
	6986.668666919094903 3117.303966589840002 13999.99988099467919 
	7094.117432181107688 3071.852080442620718 13999.99988099467919 
	0 
	
	spline forward { ref 0 } I I I I 
	null_surface 
	nubs 1 open 2 
	0 1 1 1 
	0 0 
	0 1 
	
	nullbs 
	I I 
	0 
	0 
	0 
	surf1 } F 0 F 0.9999999999549081808 #
End-of-ACIS-data 