700 0 1 0           
4 LibG 20 ASM 224.0.1.65535 NT 24 Wed Jul 17 15:51:17 2019 
1000 9.999999999999999547e-07 1.000000000000000036e-10 
body $-1 -1 $-1 $1 $-1 $2 #
lump $-1 -1 $-1 $-1 $3 $0 #
transform $-1 -1 1 0 0 0 1 0 0 0 1 0 0 0 1 no_rotate no_reflect no_shear #
shell $-1 -1 $-1 $-1 $-1 $4 $-1 $1 #
face $-1 -1 $-1 $5 $6 $3 $-1 $7 forward single #
face $-1 -1 $-1 $8 $9 $3 $-1 $10 reversed single #
loop $-1 -1 $-1 $-1 $11 $4 #
plane-surface $-1 -1 $-1 4854.859681841469865 3025.647544658928837 14000.00000000000364 0.9949983108038353841 -0.09989174889606426688 -5.197112581643624912e-15 -5.223237592679932949e-15 0 -1 forward_v I I I I #
face $-1 -1 $-1 $-1 $12 $3 $-1 $13 forward single #
loop $-1 -1 $-1 $-1 $14 $5 #
plane-surface $-1 -1 $-1 4504.859681897179144 3025.653463750993524 14000.00000000000182 0.9999999998569973902 -1.691169161366485837e-05 5.197112581643623334e-15 5.197112582386824182e-15 0 -1 forward_v I I I I #
tcoedge-coedge $-1 -1 $-1 $11 $11 $15 $16 forward $6 $17 4.401782545444317396e-30 6.283185307179586232 #
loop $-1 -1 $-1 $-1 $18 $8 #
spline-surface $-1 -1 $-1 forward { exactsur full nubs 3 3 periodic open none none 78 2 
	0 3 0.002232142857142857019 1 0.004464285714285714038 1 0.008928571428571428076 1 0.01785714285714285615 1 
	0.0357142857142857123 1 0.04464285714285713691 1 0.05357142857142856845 1 0.0625 1 0.0669642857142857123 1 
	0.07142857142857142461 1 0.08928571428571427382 1 0.1071428571428571369 1 0.125 1 0.1428571428571428492 1 
	0.1587301587301587213 1 0.1746031746031745935 1 0.1825396825396825295 1 0.1865079365079365115 1 0.1904761904761904656 1 
	0.2142857142857142738 1 0.238095238095238082 1 0.2619047619047618625 1 0.2857142857142856984 1 0.3095238095238095344 1 
	0.3214285714285713969 1 0.3244047619047618625 1 0.3273809523809523281 1 0.3333333333333333148 1 0.3571428571428570953 1 
	0.3690476190476190133 1 0.375 1 0.3764880952380952328 1 0.3779761904761904656 1 0.3809523809523809312 1 
	0.3928571428571428492 1 0.4047619047619047672 1 0.4285714285714285476 1 0.4444444444444444198 1 0.4603174603174602919 1 
	0.476190476190476164 1 0.4841269841269840724 1 0.4920634920634920362 1 0.5079365079365079083 1 0.5238095238095237249 1 
	0.5476190476190475609 1 0.5714285714285713969 1 0.5952380952380951218 1 0.6190476190476189577 1 0.6349206349206348854 1 
	0.650793650793650702 1 0.6666666666666666297 1 0.6904761904761904656 1 0.7023809523809523281 1 0.7142857142857141906 1 
	0.7321428571428569843 1 0.749999999999999889 1 0.7678571428571427937 1 0.7857142857142855874 1 0.7976190476190474499 1 
	0.8095238095238094234 1 0.8154761904761904656 1 0.8333333333333332593 1 0.8571428571428570953 1 0.875 1 
	0.8928571428571427937 1 0.9107142857142856984 1 0.9285714285714286031 1 0.9464285714285713969 1 0.9642857142857143016 1 
	0.9821428571428572063 1 0.9910714285714286031 1 0.9955357142857143016 1 0.9977678571428572063 1 0.9988839285714286031 1 
	0.9994419642857143016 1 0.9997209821428572063 1 1 3 
	0 3 1 3 
	4504.868137694907091 3525.653530434155982 14000.0000201293733 
	4504.868137694916186 3525.653530414268971 14002.33751467825095 
	4504.868137140610088 3525.620742996532044 14007.01250321160296 
	4504.868133814598878 3525.42406484227331 14016.36064464726405 
	4504.868122174093514 3524.735698725799466 14032.71022270540016 
	4504.868075648874765 3521.9845138614387 14065.3322554281749 
	4504.867969542578066 3515.709875038267455 14102.26175360650268 
	4504.867811492908913 3506.364190572202915 14138.49040710072768 
	4504.867667384643028 3497.842855647073065 14165.22622610753751 
	4504.867526353883477 3489.503521028394516 14187.07283659777386 
	4504.867401232673728 3482.104991620652982 14204.24894687565211 
	4504.867201408818801 3470.28922897722714 14229.69185732679762 
	4504.866856680045203 3449.904888883555031 14266.57486990356665 
	4504.866306806593457 3417.390279595115771 14312.39973398566326 
	4504.865673624735791 3379.949547295539105 14354.29617902931932 
	4504.864991330119665 3339.604797975734073 14390.35009639262171 
	4504.864277185340143 3297.376748026721089 14420.71008952614648 
	4504.863667807844649 3261.343741002292973 14441.51333255295322 
	4504.863224445495689 3235.127396364980541 14454.1383149597732 
	4504.862966771073843 3219.890921502278616 14460.78582659938002 
	4504.862445981777455 3189.096266086522519 14473.31780839615385 
	4504.86157052350427 3137.329701574623414 14489.28572563680609 
	4504.860316156924455 3063.158087656224325 14500.46571316631525 
	4504.859047623477636 2988.148724781831334 14500.46546893895902 
	4504.85779325434487 2913.976947383388051 14489.28626615915709 
	4504.856783111722507 2854.246448675345164 14470.86115752088153 
	4504.856154647830408 2817.084927319923281 14454.6464480772338 
	4504.8558710005791 2800.312667097471603 14446.37541223969674 
	4504.855683680762922 2789.236316403451383 14440.65309942757449 
	4504.85517613893262 2759.225009787543058 14424.06758115892808 
	4504.854564752424267 2723.073282078204556 14399.41858434741334 
	4504.854005057594804 2689.978133669797444 14370.93618238082126 
	4504.853758269508944 2675.385380492448803 14356.87945261602181 
	4504.853646981809106 2668.804861812384843 14350.23709808289095 
	4504.853573493536715 2664.459449410294837 14345.76804212511524 
	4504.853374326949051 2652.68259092126118 14333.31142538474523 
	4504.853064691027612 2634.373599562047275 14312.03525102150343 
	4504.852563532414933 2604.739740884989715 14271.88546969174786 
	4504.852105444537301 2577.652679818504566 14224.97038774606335 
	4504.851722815092216 2555.027532415479982 14171.29367660928801 
	4504.851473924934908 2540.310484288917451 14123.58348977927199 
	4504.851334505452542 2532.06651276788898 14082.80112798970367 
	4504.851264580027419 2527.931774193069487 14049.8045077462084 
	4504.851222546151803 2525.446282287476606 14016.6427802686103 
	4504.851222550119019 2525.446518840452427 13975.03568802086011 
	4504.851320617703095 2531.245325936434256 13917.07491406560075 
	4504.851571511291695 2546.08084657799327 13852.07138405072146 
	4504.852034969529996 2573.485465053293865 13782.24727450613864 
	4504.852669227347178 2610.989583946342009 13717.28675067350014 
	4504.853372280203075 2652.561603668070802 13665.1589473799595 
	4504.854077495496313 2694.261484872547953 13624.48701564252769 
	4504.854737656783982 2733.297286731635268 13593.35742466458214 
	4504.855565162797575 2782.228301672290399 13561.75288854064456 
	4504.856390597152313 2831.036833490712525 13538.24843270216661 
	4504.857187168198834 2878.138643079635585 13521.76851001904652 
	4504.8579004294279 2920.314290147204701 13510.46669073789417 
	4504.858733151198066 2969.553739480933473 13502.10048946610368 
	4504.85968189254163 3025.653514002105112 13498.95005222817417 
	4504.860630635407688 3081.753380711472801 13502.10037602907141 
	4504.861463354464831 3130.992690051643422 13510.46680250254576 
	4504.862176619618367 3173.168577990209087 13521.76810160329114 
	4504.86267446950842 3202.606805574561349 13532.06890411136555 
	4504.863258920246153 3237.165799742767376 13546.3837400019529 
	4504.864012957418709 3281.752613997722165 13568.89012914079649 
	4504.864886375896276 3333.398618893254934 13604.10232011568041 
	4504.865673626399257 3379.949424742981591 13645.70419878504254 
	4504.866306813600204 3417.390508033139668 13687.60012304466181 
	4504.866856682449907 3449.904877582523568 13733.42522716070016 
	4504.867316326614855 3477.084243722898464 13782.60240708185484 
	4504.867679959946145 3498.586459656075476 13834.51360473521163 
	4504.867943015970013 3514.14146372186724 13888.50583286559231 
	4504.868075647751539 3521.984462618933321 13934.66780802678841 
	4504.868122173925258 3524.735711396169336 13967.28981378205208 
	4504.868133814485191 3525.424064671157339 13983.63939620853671 
	4504.868136724721808 3525.59615892487227 13991.81901929627747 
	4504.868137452367591 3525.639188002189258 13995.9094333713565 
	4504.86813763427017 3525.649944706685801 13997.9547160018974 
	4504.868137686243244 3525.653018138833431 13999.12345966472822 
	4504.868137694906181 3525.653530436642086 13999.70783331076382 
	4504.868137694907091 3525.653530434155982 14000.0000201293733 
	4638.180610717427953 3524.817942552576369 14000.0000201293733 
	4638.180611576815863 3524.817942489652069 14002.33751467825095 
	4638.179516387567674 3524.785209890763781 14007.01250321160296 
	4638.172970615749364 3524.588859379387941 14016.36064464726405 
	4638.150033552259629 3523.901641358273992 14032.71022270540016 
	4638.058407608939888 3521.155042751932342 14065.3322554281749 
	4637.84940386793096 3514.890865432799728 14102.26175360650268 
	4637.538109508070193 3505.560762539834741 14138.49040710072768 
	4637.254278675964997 3497.053634524281733 14165.22622610753751 
	4636.976507901430523 3488.728203484213282 14187.07283659777386 
	4636.730070974758746 3481.342009266150399 14204.24894687565211 
	4636.336513308357098 3469.545945814934839 14229.69185732679762 
	4635.657536558216634 3449.195591322114524 14266.57486990356665 
	4634.574524893696434 3416.735191256362668 14312.39973398566326 
	4633.32742821951706 3379.356881314400653 14354.29617902931932 
	4631.983605291022286 3339.07939590203614 14390.35009639262171 
	4630.577048313417436 3296.921749959719818 14420.71008952614648 
	4629.376847107536378 3260.948817980060539 14441.51333255295322 
	4628.503617517288149 3234.776182103072642 14454.1383149597732 
	4627.99611125109368 3219.565110032502616 14460.78582659938002 
	4626.970395233893214 3188.821795954487698 14473.31780839615385 
	4625.246121949407097 3137.141538467289593 14489.28572563680609 
	4622.775574754840818 3063.093585675681425 14500.46571316631525 
	4620.277122733885335 2988.209280680358006 14500.46546893895902 
	4617.8065738430887 2914.161164493524666 14489.28626615915709 
	4615.817032404745987 2854.530250580732172 14470.86115752088153 
	4614.579249235821408 2817.430685402846393 14454.6464480772338 
	4614.020581269743161 2800.686388827827159 14446.37541223969674 
	4613.651654004201191 2789.628504472292207 14440.65309942757449 
	4612.652000078782294 2759.667234679163357 14424.06758115892808 
	4611.447840937456021 2723.575780125693655 14399.41858434741334 
	4610.345495563828081 2690.535808671991617 14370.93618238082126 
	4609.859426967007494 2675.967385242661294 14356.87945261602181 
	4609.640241042400703 2669.397837726544822 14350.23709808289095 
	4609.495505887186482 2665.059669918751297 14345.76804212511524 
	4609.103220171461544 2653.30244695609872 14333.31142538474523 
	4608.493398208326653 2635.023979713069821 14312.03525102150343 
	4607.50631174753471 2605.439528805216469 14271.88546969174786 
	4606.604111949131038 2578.397626577219398 14224.97038774606335 
	4605.850507580212252 2555.810200196169717 14171.29367660928801 
	4605.360293662791264 2541.117689308233821 14123.58348977927199 
	4605.085699547493277 2532.887462360774407 14082.80112798970367 
	4604.947982857627721 2528.759617076939776 14049.8045077462084 
	4604.865183925203382 2526.278269601366901 14016.6427802686103 
	4604.865203375756209 2526.2785051804658 13975.03568802086011 
	4605.058341492888758 2532.067644913479398 13917.07491406560075 
	4605.552492722138595 2546.87843123785342 13852.07138405072146 
	4606.465303604074506 2574.237359745095091 13782.24727450613864 
	4607.714507463923837 2611.678950807456204 13717.28675067350014 
	4609.099212749798426 2653.1816602903682 13665.1589473799595 
	4610.488179621454947 2694.812017945932439 13624.48701564252769 
	4611.788399952810323 2733.782738388533744 13593.35742466458214 
	4613.418221140606875 2782.632174023591233 13561.75288854064456 
	4615.043945724713922 2831.359331588825171 13538.24843270216661 
	4616.612848404520264 2878.382611095718403 13521.76851001904652 
	4618.017649662690019 2920.487942038019355 13510.46669073789417 
	4619.657748403282312 2969.645297631912854 13502.10048946610368 
	4621.52634696979203 3025.651541050084688 13498.95005222817417 
	4623.394952541300881 3081.657876305721402 13502.10037602907141 
	4625.035041768055635 3130.815092382369585 13510.46680250254576 
	4626.43985702955797 3172.920663494583096 13521.76810160329114 
	4627.420403086291117 3202.309810684664171 13532.06890411136555 
	4628.57150913465648 3236.811187224232981 13546.3837400019529 
	4630.056632627674844 3281.323664892856414 13568.89012914079649 
	4631.776885049202065 3332.883564024630232 13604.10232011568041 
	4633.327416553414878 3379.356759346160288 13645.70419878504254 
	4634.574531436828693 3416.735419367060331 13687.60012304466181 
	4635.657532898449972 3449.195580204483576 13733.42522716070016 
	4636.562840643436175 3476.329631939675437 13782.60240708185484 
	4637.279047116413494 3497.79599877016517 13834.51360473521163 
	4637.797161017148937 3513.325069087540669 13888.50583286559231 
	4638.058403718539012 3521.154991704200256 13934.66780802678841 
	4638.150035295572707 3523.901653941331006 13967.28981378205208 
	4638.172969892033507 3524.588859244509422 13983.63939620853671 
	4638.178698211082519 3524.760666772204331 13991.81901929627747 
	4638.180133447576736 3524.803624009932719 13995.9094333713565 
	4638.180490991432634 3524.814362817895926 13997.9547160018974 
	4638.180593255970962 3524.817431131282319 13999.12345966472822 
	4638.180610610004805 3524.817942560442134 13999.70783331076382 
	4638.180610717427953 3524.817942552576369 14000.0000201293733 
	4771.493089885490008 3523.982354363039576 14000.0000201293733 
	4771.49308902413577 3523.982354386289899 14002.33751467824914 
	4771.490908466764267 3523.949676142171029 14007.01250321159932 
	4771.477804387919605 3523.753654068001197 14016.3606446472586 
	4771.431967716579493 3523.067582849440896 14032.7102227053947 
	4771.248726468994391 3520.325572298290808 14065.33225542816945 
	4770.830839466430007 3514.071855763427266 14102.26175360650086 
	4770.208419012225022 3504.757333931963785 14138.49040710072404 
	4769.640894689284323 3496.264413164882626 14165.22622610753388 
	4769.085493714762379 3487.9528857262776 14187.07283659777022 
	4768.592753478762461 3480.579026272411738 14204.24894687564847 
	4767.805814126833866 3468.802663207455225 14229.69185732679216 
	4766.448218770809945 3448.48629364366343 14266.57486990356665 
	4764.282739378551014 3416.080103097919618 14312.39973398565962 
	4761.789182645289657 3378.764215341653198 14354.29617902931932 
	4759.102215713641272 3338.553994005473669 14390.35009639262353 
	4756.289824786995268 3296.466751624970584 14420.71008952614829 
	4753.890016526836916 3260.553895452591405 14441.51333255295685 
	4752.144006239268492 3234.424968058961895 14454.13831495977684 
	4751.12925670992081 3219.239298513668473 14460.78582659938547 
	4749.078319951677258 3188.547327051082902 14473.31780839615749 
	4745.630665115641023 3136.953375773565767 14489.28572563681155 
	4740.690825710704303 3063.029084077822517 14500.46571316632253 
	4735.695192757824771 2988.269836833592308 14500.46546893896448 
	4730.755338716473489 2914.345382390663872 14489.28626615916073 
	4726.7772860341247 2854.814052268945488 14470.86115752088699 
	4724.302311379095045 2817.776445110577242 14454.64644807723926 
	4723.185285291164291 2801.060110871056622 14446.37541223969856 
	4722.447589194531247 2790.020694300574633 14440.65309942757813 
	4720.448853673305166 2760.109458085680672 14424.06758115892808 
	4718.041142121473968 2724.07827692123783 14399.41858434741516 
	4715.836995545422724 2691.093483199656475 14370.93618238082308 
	4714.865121717913098 2676.549388688123599 14356.87945261602545 
	4714.42685683513173 2669.990812552362513 14350.23709808289459 
	4714.137447657495613 2665.659889957621544 14345.76804212511888 
	4713.353123215504638 2653.922300126400842 14333.31142538474523 
	4712.133718375156604 2635.674360532671471 14312.03525102150525 
	4710.160125707190673 2606.139313432978724 14271.8854696917515 
	4708.356093515091743 2579.142574584843715 14224.97038774606335 
	4706.849249711194716 2556.592870111952379 14171.29367660928801 
	4705.869103062321301 2541.924894845283234 14123.58348977927199 
	4705.320053024955996 2533.708412532802868 14082.80112798970367 
	4705.044673521870209 2529.58746134366902 14049.8045077462084 
	4704.879150287063567 2527.110256665713678 14016.6427802686103 
	4704.8791544701362 2527.110493009402035 13975.03568802086011 
	4705.26536740294523 2532.889963638374411 13917.07491406560075 
	4706.253413170002204 2547.676015935916439 13852.07138405072146 
	4708.078561013803665 2574.989254999021796 13782.24727450613864 
	4710.576343439063749 2612.368317781813403 13717.28675067350014 
	4713.345042961458603 2653.801717426367759 13665.1589473799595 
	4716.122255367724392 2695.362552340388902 13624.48701564252769 
	4718.722049715321191 2734.268190673093613 13593.35742466458214 
	4721.980860691695852 2783.036047197521839 13561.75288854064456 
	4725.231531146543603 2831.681828169798791 13538.24843270216661 
	4728.368507174229308 2878.62657923531242 13521.76851001904652 
	4731.177418323982238 2920.661592955870219 13510.46669073789417 
	4734.456767013871286 2969.736855614680735 13502.10048946610368 
	4738.193021778350158 3025.649567610701979 13498.95005222817417 
	4741.929278748155411 3081.562371684553909 13502.10037602907141 
	4745.208622964616552 3130.637494573696586 13510.46680250254576 
	4748.01754417583652 3172.672748661572768 13521.76810160329114 
	4749.978132006875057 3202.012815779520679 13532.06890411136555 
	4752.279768776974379 3236.45657423351895 13546.3837400019529 
	4755.249254174102134 3280.89471569399484 13568.89012914079649 
	4758.688884921439239 3332.368509095914305 13604.10232011568041 
	4761.789182074849123 3378.764092817761593 13645.70419878504435 
	4764.282755664682554 3416.080330720703842 13687.60012304466545 
	4766.448221306731284 3448.486282215766096 13733.4252271607038 
	4768.258367619001547 3475.575020023191883 13782.60240708185847 
	4769.690418728795521 3497.005537660970276 13834.51360473521709 
	4770.726384439057256 3512.508674181591687 13888.50583286559413 
	4771.24872523931208 3520.325521117308199 13934.66780802679204 
	4771.431967238377183 3523.067595543749121 13967.2898137820539 
	4771.477805094317773 3523.753653861503153 13983.63939620853853 
	4771.489270481317362 3523.925174079293356 13991.81901929628293 
	4771.492134222205095 3523.968059778133011 13995.90943337135832 
	4771.492851366265313 3523.978780577472662 13997.95471600189921 
	4771.493056164206791 3523.981843756028866 13999.12345966472822 
	4771.493089993159629 3523.982354360133286 13999.70783331076382 
	4771.493089885490008 3523.982354363039576 14000.0000201293733 
	4904.80556290801178 3523.146766481459963 14000.0000201293733 
	4904.805562906035448 3523.146766461672996 14002.33751467824914 
	4904.802287713721853 3523.11414303640322 14007.01250321159932 
	4904.782641189070091 3522.918448605115827 14016.3606446472586 
	4904.713879094746517 3522.233525481915876 14032.7102227053947 
	4904.439058429061333 3519.496101188784451 14065.33225542816945 
	4903.812273791785628 3513.252846157959539 14102.26175360650086 
	4902.87871702738903 3503.953905899595611 14138.49040710072404 
	4902.027505980609931 3495.475192042091294 14165.22622610753388 
	4901.194475262313972 3487.177568182096365 14187.07283659777022 
	4900.455423220852026 3479.81604391790961 14204.24894687564847 
	4899.275126026376711 3468.059380045162925 14229.69185732679216 
	4897.238898648986833 3447.776996082223377 14266.57486990356665 
	4893.990957465661268 3415.425014759166515 14312.39973398565962 
	4890.250937240079111 3378.171549360515201 14354.29617902931932 
	4886.220829674552078 3338.028591931775736 14390.35009639262353 
	4882.002595915081656 3296.011753557969769 14420.71008952614829 
	4878.40319582653774 3260.158972430358972 14441.51333255295685 
	4875.784399311070956 3234.073753797053996 14454.13831495977684 
	4874.262401189950651 3218.913487043892474 14460.78582659938547 
	4871.186269203803931 3188.272856919048081 14473.31780839615749 
	4866.015216541552945 3136.765212666231946 14489.28572563681155 
	4858.60608430863158 3062.964582097279617 14500.46571316632253 
	4851.113267868242474 2988.33039273211898 14500.46546893896448 
	4843.704119305228232 2914.529599500800487 14489.28626615916073 
	4837.737535327157275 2855.097854174332497 14470.86115752088699 
	4834.025405967096049 2818.122203193500354 14454.64644807723926 
	4832.349995560337447 2801.433832601412178 14446.37541223969856 
	4831.243559517978611 2790.412882369415456 14440.65309942757813 
	4828.245677613163934 2760.55168297730097 14424.06758115892808 
	4824.634418306513908 2724.580774968726928 14399.41858434741516 
	4821.328486051664186 2691.651158201850649 14370.93618238082308 
	4819.870790415418924 2677.131393438335635 14356.87945261602545 
	4819.213450895731512 2670.583788466522492 14350.23709808289459 
	4818.779380051152657 2666.260110466078004 14345.76804212511888 
	4817.602969060024407 2654.542156161237926 14333.31142538474523 
	4815.774051892462921 2636.324740683693562 14312.03525102150525 
	4812.813873922315906 2606.839101353205479 14271.8854696917515 
	4810.108100019690937 2579.887521343558092 14224.97038774606335 
	4807.848034476318389 2557.375537892642114 14171.29367660928801 
	4806.377922800180386 2542.732099864599604 14123.58348977927199 
	4805.554418066998551 2534.529362125688294 14082.80112798970367 
	4805.141391799471421 2530.415304227539309 14049.8045077462084 
	4804.893111666116056 2527.942243979603973 14016.6427802686103 
	4804.893135295772481 2527.942479349415407 13975.03568802086011 
	4805.472388278129074 2533.712282615419554 13917.07491406560075 
	4806.954334380846376 2548.473600595776588 13852.07138405072146 
	4809.691829648344537 2575.741149690822567 13782.24727450613864 
	4813.438181675634041 2613.057684642927597 13717.28675067350014 
	4817.590883431047587 2654.421774048665156 13665.1589473799595 
	4821.756357493674841 2695.913085413773388 13624.48701564252769 
	4825.655712011339347 2734.75364232999209 13593.35742466458214 
	4830.543516669496057 2783.439919548822672 13561.75288854064456 
	4835.419086274095207 2832.004326267911438 13538.24843270216661 
	4840.124168410540733 2878.870547251395237 13521.76851001904652 
	4844.337167557234352 2920.835244846684873 13510.46669073789417 
	4849.255782265944617 2969.828413765660116 13502.10048946610368 
	4854.859686855589644 3025.647594658681555 13498.95005222817417 
	4860.463600654037691 3081.466867278802511 13502.10037602907141 
	4865.382201378197351 3130.459896904422749 13510.46680250254576 
	4869.595224585766118 3172.424834165946777 13521.76810160329114 
	4872.53586062364775 3201.715820889623501 13532.06890411136555 
	4875.988018991375611 3236.101961714984554 13546.3837400019529 
	4880.441873844349175 3280.465766589129089 13568.89012914079649 
	4885.600883594736842 3331.853454227289603 13604.10232011568041 
	4890.250925001857468 3378.17142742094029 13645.70419878504435 
	4893.990980287904677 3415.425242054624505 13687.60012304466545 
	4897.238897522725892 3447.776984837726104 13733.4252271607038 
	4899.953891935818319 3474.820408239968856 13782.60240708185847 
	4902.101785885259233 3496.21507677505997 13834.51360473521709 
	4903.655602440234361 3511.692279547265116 13888.50583286559413 
	4904.439053310097734 3519.496050202575134 13934.66780802679204 
	4904.713880360024632 3522.233538088911246 13967.2898137820539 
	4904.782641171866089 3522.918448434855691 13983.63939620853853 
	4904.799831967677164 3523.089681926625872 13991.81901929628293 
	4904.80413021741424 3523.132495785876927 13995.90943337135832 
	4904.805204723427778 3523.143198688682787 13997.95471600189921 
	4904.805511733935418 3523.146256748477754 13999.12345966472822 
	4904.805562908259162 3523.146766483933334 13999.70783331076382 
	4904.80556290801178 3523.146766481459963 14000.0000201293733 
	0 
	
	0 
	0 
	77 0 0.002232142857142857019 0.004464285714285714038 0.008928571428571428076 0.01785714285714285615 0.0357142857142857123 0.04464285714285713691 0.05357142857142856845 0.0625 0.0669642857142857123 0.07142857142857142461 0.08928571428571427382 0.1071428571428571369 0.125 0.1428571428571428492 0.1587301587301587213 0.1746031746031745935 0.1825396825396825295 0.1865079365079365115 0.1904761904761904656 0.2142857142857142738 0.238095238095238082 0.2619047619047618625 0.2857142857142856984 0.3095238095238095344 0.3214285714285713969 0.3244047619047618625 0.3273809523809523281 0.3333333333333333148 0.3571428571428570953 0.3690476190476190133 0.375 0.3764880952380952328 0.3779761904761904656 0.3809523809523809312 0.3928571428571428492 0.4047619047619047672 0.4285714285714285476 0.4444444444444444198 0.4603174603174602919 0.476190476190476164 0.4841269841269840724 0.4920634920634920362 0.5079365079365079083 0.5238095238095237249 0.5476190476190475609 0.5714285714285713969 0.5952380952380951218 0.6190476190476189577 0.6349206349206348854 0.650793650793650702 0.6666666666666666297 0.6904761904761904656 0.7023809523809523281 0.7142857142857141906 0.7321428571428569843 0.749999999999999889 0.7678571428571427937 0.7857142857142855874 0.7976190476190474499 0.8095238095238094234 0.8154761904761904656 0.8333333333333332593 0.8571428571428570953 0.875 0.8928571428571427937 0.9107142857142856984 0.9285714285714286031 0.9464285714285713969 0.9642857142857143016 0.9821428571428572063 0.9910714285714286031 0.9955357142857143016 0.9977678571428572063 0.9988839285714286031 0.9994419642857143016 0.9997209821428572063 
	0 
	0 
	0 
	F 1 F 0 F 1 F 0 } I I I I #
tcoedge-coedge $-1 -1 $-1 $14 $14 $18 $19 reversed $9 $20 -6.283185307179586232 -2.771664142871821026e-30 #
tcoedge-coedge $-1 -1 $-1 $21 $22 $11 $16 reversed $12 $23 -6.283185307179586232 -4.401782545444317396e-30 #
tedge-edge $-1 -1 $-1 $24 4.401782545444317396e-30 $24 6.283185307179586232 $15 $25 forward @7 unknown 0.0007717503651494639176 #
pcurve $-1 -1 $-1 0 forward { exppc nurbs 2 periodic 5 
	4.401782545444317396e-30 2 1.570796326794896558 2 3.141592653589793116 2 4.712388980384689674 2 6.283185307179586232 2 
	0 499.9999999999995453 1 
	-500 499.9999999999990905 0.7071067811865462405 
	-500 -4.54747350886464119e-13 1 
	-500 -500 0.7071067811865466846 
	0 -499.9999999999995453 1 
	500 -499.9999999999995453 0.7071067811865472397 
	500 0 1 
	500 500 0.7071067811865471286 
	0 499.9999999999995453 1 
	0 
	plane 4854.859681841469865 3025.647544658928837 14000.00000000000364 0.9949983108038353841 -0.09989174889606426688 -5.197112581643624912e-15 -5.223237592679932949e-15 0 -1 forward_v I I I I 
	} 0 0 #
tcoedge-coedge $-1 -1 $-1 $22 $21 $14 $19 forward $12 $26 2.771664142871821026e-30 6.283185307179586232 #
tedge-edge $-1 -1 $-1 $27 2.771664142871821026e-30 $27 6.283185307179586232 $18 $28 forward @7 unknown 0.0007717505108970158572 #
pcurve $-1 -1 $-1 0 forward { exppc nurbs 2 periodic 5 
	-6.283185307179586232 2 -4.712388980384689674 2 -3.141592653589793116 2 -1.570796326794896558 2 -2.771664142871821026e-30 2 
	0 500 1 
	500 500 0.7071067811865451302 
	500 0 1 
	500 -500.0000000000004547 0.7071067811865476838 
	0 -500.0000000000004547 1 
	-500 -500.0000000000004547 0.7071067811865451302 
	-500 0 1 
	-500 500 0.7071067811865451302 
	0 500 1 
	0 
	plane 4504.859681897179144 3025.653463750993524 14000.00000000000182 -0.9999999998569973902 1.691169161366485837e-05 -5.197112581643623334e-15 5.197112582386824182e-15 0 -1 reverse_v I I I I 
	} 0 0 #
coedge $-1 -1 $-1 $18 $15 $22 $29 reversed $12 $30 #
coedge $-1 -1 $-1 $15 $18 $21 $29 forward $12 $31 #
pcurve $-1 -1 $-1 0 forward { exppc nubs 1 periodic 2 
	-6.283185307179586232 1 -4.401782545444317396e-30 1 
	1 1 
	0 1 
	0 
	spline forward { ref 0 } I I I I 
	} 0 0 #
tvertex-vertex $-1 -1 $-1 $16 $32 6.971868829195089913e-05 #
ellipse-curve $-1 -1 $-1 4854.859681841469865 3025.647544658928837 14000.00000000000364 0.9949983108038353841 -0.09989174889606426688 -5.197112581643624912e-15 49.94587444803214282 497.499155401917676 7.174637459656409521e-43 1 I I #
pcurve $-1 -1 $-1 0 forward { exppc nubs 1 periodic 2 
	2.771664142871821026e-30 1 6.283185307179586232 1 
	0 0 
	1 0 
	4.411402515647609841e-13 
	spline forward { ref 0 } I I I I 
	} 0 0 #
tvertex-vertex $-1 -1 $-1 $19 $33 6.972360026801798665e-05 #
ellipse-curve $-1 -1 $-1 4504.859681897179144 3025.653463750993524 14000.00000000000182 0.9999999998569973902 -1.691169161366485837e-05 5.197112581643623334e-15 0.008455845806832430755 499.9999999284987666 -1.389112540257042059e-62 1 I I #
edge $-1 -1 $-1 $27 0 $24 1 $22 $34 forward @7 tangent #
pcurve $-1 -1 $-1 -1 $34 0 0 #
pcurve $-1 -1 $-1 1 $34 1 0 #
point $-1 -1 $-1 4904.80555628950242 3523.146700060846342 14000.00000000000364 #
point $-1 -1 $-1 4504.868137742985709 3525.653463679492233 14000.00000000000182 #
intcurve-curve $-1 -1 $-1 forward { parcur full nubs 3 open 2 
	0 3 1 3 
	4504.868137694907091 3525.653530434155982 14000.0000201293733 
	4638.180610717427953 3524.817942552576369 14000.0000201293733 
	4771.493089885490008 3523.982354363039576 14000.0000201293733 
	4904.80556290801178 3523.146766481459963 14000.0000201293733 
	0 
	
	spline forward { ref 0 } I I I I 
	null_surface 
	nubs 1 open 2 
	0 1 1 1 
	0 0 
	0 1 
	
	nullbs 
	I I 
	0 
	0 
	0 
	surf1 } I I #
End-of-ACIS-data 