700 0 1 0           
4 LibG 20 ASM 224.0.1.65535 NT 24 Wed Jul 17 15:51:18 2019 
1000 9.999999999999999547e-07 1.000000000000000036e-10 
body $-1 -1 $-1 $1 $-1 $2 #
lump $-1 -1 $-1 $-1 $3 $0 #
transform $-1 -1 1 0 0 0 1 0 0 0 1 0 0 0 1 no_rotate no_reflect no_shear #
shell $-1 -1 $-1 $-1 $-1 $4 $-1 $1 #
face $-1 -1 $-1 $5 $6 $3 $-1 $7 forward single #
face $-1 -1 $-1 $8 $9 $3 $-1 $10 reversed single #
loop $-1 -1 $-1 $-1 $11 $4 #
plane-surface $-1 -1 $-1 9464.199029048482771 358.6634542543542921 14000.00000000000182 0.6964551467160909892 -0.7176003265137689269 1.559133774493087789e-14 2.238670762711251122e-14 0 -1 forward_v I I I I #
face $-1 -1 $-1 $-1 $12 $3 $-1 $13 forward single #
loop $-1 -1 $-1 $-1 $14 $5 #
plane-surface $-1 -1 $-1 9246.743120975368583 632.9132091131968991 13999.99999999999636 0.6213025945046595222 -0.7835707281807929858 1.559133774493090945e-14 2.509459622868833993e-14 0 -1 forward_v I I I I #
tcoedge-coedge $-1 -1 $-1 $11 $11 $15 $16 forward $6 $17 5.317589652212583183e-30 6.283185307179586232 #
loop $-1 -1 $-1 $-1 $18 $8 #
spline-surface $-1 -1 $-1 forward { exactsur full nubs 3 3 periodic open none none 84 2 
	-2.064633575279573496e-30 3 0.002232142857142857019 1 0.004464285714285714038 1 0.008928571428571428076 1 0.01785714285714285615 1 
	0.0357142857142857123 1 0.05357142857142856845 1 0.0625 1 0.0669642857142857123 1 0.07142857142857142461 1 
	0.08928571428571427382 1 0.1071428571428571369 1 0.125 1 0.1428571428571428492 1 0.1587301587301587213 1 
	0.1746031746031745935 1 0.1825396825396825295 1 0.1904761904761904656 1 0.2023809523809523836 1 0.2142857142857142738 1 
	0.238095238095238082 1 0.2619047619047618625 1 0.2857142857142856984 1 0.3095238095238095344 1 0.3333333333333333148 1 
	0.3348214285714286031 1 0.336309523809523836 1 0.3377976190476190688 1 0.3392857142857143016 1 0.3422619047619047672 1 
	0.3452380952380952328 1 0.3571428571428570953 1 0.3690476190476190133 1 0.375 1 0.3779761904761904656 1 
	0.3809523809523809312 1 0.4047619047619047672 1 0.4166666666666666297 1 0.4285714285714285476 1 0.4444444444444444198 1 
	0.4603174603174602919 1 0.4682539682539682557 1 0.476190476190476164 1 0.4920634920634920362 1 0.5079365079365079083 1 
	0.5238095238095237249 1 0.5357142857142855874 1 0.5476190476190475609 1 0.5595238095238095344 1 0.5654761904761904656 1 
	0.5714285714285713969 1 0.5952380952380951218 1 0.6071428571428569843 1 0.6190476190476189577 1 0.6349206349206348854 1 
	0.650793650793650702 1 0.6666666666666666297 1 0.6785714285714286031 1 0.6904761904761904656 1 0.7023809523809523281 1 
	0.7142857142857141906 1 0.7232142857142855874 1 0.7321428571428569843 1 0.749999999999999889 1 0.7678571428571427937 1 
	0.7857142857142855874 1 0.7976190476190474499 1 0.8095238095238094234 1 0.8333333333333332593 1 0.8571428571428570953 1 
	0.875 1 0.8928571428571427937 1 0.9107142857142856984 1 0.9285714285714286031 1 0.9464285714285713969 1 
	0.9642857142857143016 1 0.9821428571428572063 1 0.9910714285714286031 1 0.9955357142857143016 1 0.9977678571428572063 1 
	0.9988839285714286031 1 0.9994419642857143016 1 0.9997209821428572063 1 1 3 
	0 3 1 3 
	9638.528532306689158 943.5645438449159883 13999.99990585192791 
	9638.528532287420603 943.5645438296379552 14002.33740038455107 
	9638.502841840663677 943.5441735673208541 14007.01238912011831 
	9638.348727770044206 943.4219746789053715 14016.36052895989087 
	9637.809358585580412 942.9943024064517658 14032.71011256691418 
	9635.653530550065625 941.2849205926494278 14065.33210175025852 
	9629.508075999676294 936.4121162348450298 14111.49410897604685 
	9619.350829008006258 928.3583137074633669 14156.48752421255267 
	9610.202406343018083 921.1044200465383938 14187.07267292781398 
	9604.405164938383678 916.5077180561796695 14204.24879746735496 
	9595.146665670752554 909.1665433420847648 14229.69169686044734 
	9579.174099558358648 896.5017047879236998 14266.57468049990712 
	9553.696592138438064 876.3002846819440492 14312.39951087009285 
	9524.359129302112706 853.0382597972424037 14354.2959110566062 
	9492.746153210151533 827.9719532588525226 14390.34979351580114 
	9459.657489046217961 801.7355560128916068 14420.70971700409063 
	9431.423160055775952 779.3482191393405856 14441.51318620586608 
	9407.946118446749097 760.7329922828826057 14455.94149833592019 
	9386.93634354644928 744.0740906850368219 14467.24450225195142 
	9362.331546861711104 724.5646533517717671 14478.23160188942893 
	9324.562814150913255 694.6173738264993744 14491.14848933683788 
	9276.130861509493116 656.2150997864808915 14500.46614811176914 
	9217.355512997137339 609.6114235504021508 14500.46537003091908 
	9159.236886011123715 563.5284696609476214 14489.28605795680232 
	9103.072846246648623 518.995331337991388 14467.17644212833147 
	9066.666632950038547 490.1284097390632155 14444.80153273108772 
	9047.68363939539995 475.0765672916397762 14430.66277509893553 
	9044.537185863497143 472.5817066842291752 14428.26872087741867 
	9041.408420262676373 470.1008710487494682 14425.83720171059576 
	9037.2606597788199 466.8120621929284653 14422.54555607424845 
	9032.121524646465332 462.7371805307969339 14418.3384509758198 
	9019.937663937422258 453.0764517703055958 14407.94889882189273 
	9002.240903462614369 439.0444789031129176 14391.28068929238361 
	8983.717405532099292 424.3569760272980034 14370.93680539093475 
	8971.40344769436706 414.5930916987227874 14355.79862218883682 
	8964.560703762621415 409.1673982604334583 14346.90091485266203 
	8947.782367159712521 395.8636546570111818 14324.25270126652867 
	8927.933065446242836 380.1249061175523138 14292.48660292494969 
	8907.130716453864807 363.6304750012047293 14250.23305726761828 
	8891.904567100937129 351.5574792178325083 14213.46793537745179 
	8877.974414765802067 340.5120949578009117 14171.29382411990082 
	8868.364959690708929 332.8926431901358569 14131.53511588313268 
	8862.566860174587418 328.2952607931146076 14099.11409930601803 
	8858.041816386941719 324.7072994969674937 14066.3646650155988 
	8854.795514151383031 322.1332676592152211 14024.96428208013822 
	8854.795683999900575 322.1334023341534589 13975.03567408665367 
	8858.366304095578016 324.9645896790564166 13929.49524474852478 
	8864.4243256204918 329.7680673431231071 13888.6356949212186 
	8872.014384388097824 335.7863156456523939 13852.48489967588648 
	8880.085795241746382 342.1862337696601912 13823.04662973306586 
	8887.563800480986174 348.1156334904190999 13800.00741260600444 
	8899.78440088226489 357.8054935919763579 13766.00722607442003 
	8916.927331826869704 371.3983284061399672 13728.11429382524693 
	8940.147549436895133 389.8099164444705025 13687.9645222474719 
	8961.401497312137508 406.6624257119852928 13656.44425066453186 
	8987.074209729958966 427.0186261922791573 13624.48740751071819 
	9017.661530691721055 451.2716785193964597 13593.35757483193811 
	9047.786797302702325 475.1583624300016027 13568.52630370416227 
	9076.59529248200306 498.0009625362825432 13549.09541077689755 
	9103.474311477808442 519.3136579181851857 13534.12886861213883 
	9131.154635124490596 541.2617173339702958 13521.76789991806982 
	9157.120781529803935 561.8505851296090441 13512.88849925570321 
	9181.082209663678441 580.8498878502284697 13506.80599411264666 
	9210.111320590580362 603.8674168192281968 13501.57541975717322 
	9246.743098291974093 632.9131911304842788 13498.94977823822592 
	9290.701280577526632 667.7681591913291186 13502.10041225859095 
	9329.283841221662442 698.3607326109663518 13510.46652554804496 
	9362.331486469500305 724.5646054671738057 13521.7683375177894 
	9399.238957055504216 753.8289799609833608 13538.24839279484513 
	9443.368301620443162 788.8196646386320481 13565.36801157491391 
	9487.88311710128437 824.11599381269275 13604.10245732924523 
	9524.359098302822531 853.03823521769948 13645.70391502136044 
	9553.696780537171435 876.3004340657265629 13687.60003433622296 
	9579.174113540686449 896.5017158749458304 13733.42506710952694 
	9600.471058258106495 913.3883178543314898 13782.60229180336501 
	9617.319570114621456 926.747704257192936 13834.51347923439243 
	9629.508013484430194 936.4120666663540078 13888.50571914456486 
	9635.653558578505908 941.2849428169998873 13934.66769311878306 
	9637.809356205936638 942.9943005196868171 13967.28969984580181 
	9638.348729687562809 943.4219761993680322 13983.63928201194722 
	9638.483577681839961 943.5288987856108633 13991.81890506480886 
	9638.517294009639954 943.5556328648743829 13995.90931911259031 
	9638.525722640501044 943.5623160270142762 13997.9546017326702 
	9638.528130901286204 943.5642255657738815 13999.12334539704352 
	9638.5285323090975 943.5645438468256998 13999.70771903535024 
	9638.528532306689158 943.5645438449159883 13999.99990585192791 
	9700.018767975892843 864.6733843486352953 13999.99990585192973 
	9700.018767635165204 864.6733846995575732 14002.33740038455289 
	9699.993799383115402 864.6521917232046235 14007.01238912012013 
	9699.84400825132434 864.5250682037758452 14016.36052895989269 
	9699.31977933615417 864.0801483498339621 14032.710112566916 
	9697.224447883989342 862.3018496805337918 14065.33210175026034 
	9691.251461266645492 857.2325722830712493 14111.49410897604866 
	9681.379266217289114 848.8540425987158642 14156.48752421255449 
	9672.487587017329133 841.3076703993430101 14187.0726729278158 
	9666.853039565945437 836.5256297494148612 14204.24879746735678 
	9657.854366584013405 828.8884645909931805 14229.69169686044916 
	9642.330056733988386 815.7129788176156353 14266.57468049990894 
	9617.56754916371392 794.697040955583816 14312.39951087009467 
	9589.05341361666251 770.497093221683599 14354.29591105660802 
	9558.327623143690289 744.420117324498392 14390.34979351580296 
	9526.167561810141706 717.1258688159916801 14420.70971700409245 
	9498.725598883516795 693.8358796851118768 14441.5131862058679 
	9475.907419124770968 674.4700866906268857 14455.94149833592201 
	9455.487261245105401 657.1395016891895011 14467.24450225195324 
	9431.572975618337296 636.8434438863606601 14478.23160188943075 
	9394.864182511731997 605.6886960960443957 14491.1484893368397 
	9347.791429397189859 565.7380411029288325 14500.46614811177096 
	9290.665549511926656 517.2553134439946234 14500.46537003092089 
	9234.177966473349443 469.3142972671904545 14489.28605795680414 
	9179.590110186198217 422.9855929315820617 14467.17644212833329 
	9144.205608705211489 392.9547516258090809 14444.80153273108954 
	9125.755344858745957 377.2960309997432091 14430.66277509893735 
	9122.697194869329905 374.7005762407202951 14428.26872087742049 
	9119.656234196098012 372.1197144686946103 14425.83720171059758 
	9115.624876833515373 368.6983008169652294 14422.54555607425027 
	9110.629966358719685 364.4591204567276463 14418.33845097582162 
	9098.78803325996887 354.4088725795467099 14407.94889882189455 
	9081.587915840369533 339.8111309403923883 14391.28068929238543 
	9063.584258899205452 324.5314325328452014 14370.93680539093657 
	9051.615883235892397 314.3738658596103619 14355.79862218883864 
	9044.965168953000102 308.7294149505921723 14346.90091485266385 
	9028.657720132434406 294.8892426192260814 14324.25270126653049 
	9009.365455279108573 278.5159255360293855 14292.48660292495151 
	8989.146903868795562 261.3564404385253965 14250.2330572676201 
	8974.348060462833018 248.7966637401055436 14213.46793537745361 
	8960.808844271705311 237.3059305321897909 14171.29382411990264 
	8951.469074585313138 229.3792569689499601 14131.53511588313449 
	8945.833688697661273 224.5965134986273313 14099.11409930601985 
	8941.435640109453743 220.8638810603437719 14066.36466501560062 
	8938.280436621205808 218.1860708130229511 14024.96428208014004 
	8938.280608746255893 218.186202894566776 13975.03567408665549 
	8941.751015016852762 221.1315524172250662 13929.4952447485266 
	8947.63902665538626 226.1287029488169082 13888.63569492122042 
	8955.016074352421128 232.3896104621160816 13852.4848996758883 
	8962.860974864814125 239.0475659758847655 13823.04662973306768 
	8970.129107631513762 245.2160494607535952 13800.00741260600626 
	8982.00676597257916 255.2965843260584506 13766.00722607442185 
	8998.668587920401478 269.4374917316632718 13728.11429382524875 
	9021.237152816533126 288.5914333614111911 13687.96452224747372 
	9041.89463311266627 306.1234300922224065 13656.44425066453368 
	9066.846862373538897 327.3003948350003043 13624.48740751072 
	9096.575785376424392 352.5313220240638543 13593.35757483193993 
	9125.85561171651716 377.3811195810030767 13568.52630370416409 
	9153.855626287690029 401.1447294064746529 13549.09541077689937 
	9179.980311242048629 423.3167515016031075 13534.12886861214065 
	9206.883814109745799 446.1497542052322842 13521.76789991807163 
	9232.121246393275214 467.5687628625410639 13512.88849925570503 
	9255.410220269277488 487.3341160004296171 13506.80599411264848 
	9283.624658677828847 511.2797084255179243 13501.57541975717504 
	9319.228400805872297 541.4966063793328885 13498.94977823822774 
	9361.952941129160536 577.7569219844785948 13502.10041225859277 
	9399.452718455762806 609.5829869055833115 13510.46652554804677 
	9431.572917021763715 636.8433939561974739 13521.76833751779122 
	9467.444613606989151 667.2877076000785337 13538.24839279484695 
	9510.335516610632112 703.6892074576281857 13565.36801157491573 
	9553.601064708236663 740.4086844354367258 13604.10245732924704 
	9589.053389207880173 770.4970611343293285 13645.70391502136226 
	9617.567733734242211 794.6971947004049071 13687.60003433622478 
	9642.330073172399352 815.7129871067024851 13733.42506710952875 
	9663.029338429207201 833.2804571077210767 13782.60229180336682 
	9679.405013778146895 847.1784921988598853 13834.51347923439425 
	9691.251400914277838 857.2325202506586947 13888.50571914456668 
	9697.224474664293666 862.301873326742566 13934.66769311878488 
	9699.319777616727151 864.0801457109589592 13967.28969984580363 
	9699.844009737917077 864.5250702151428186 13983.63928201194904 
	9699.9750759619983 864.6363009407168647 13991.81890506481068 
	9700.00784470362305 864.6641144968025401 13995.90931911259213 
	9700.016037362413044 864.6710664750007709 13997.95460173267202 
	9700.018377985374173 864.6730530658173848 13999.12334539704534 
	9700.01876801848266 864.6733843047699111 13999.70771903535206 
	9700.018767975892843 864.6733843486352953 13999.99990585192973 
	9761.508999896581372 785.7822291226902962 13999.99990585193518 
	9761.509000200396258 785.7822287393639726 14002.33740038455653 
	9761.48475048952605 785.7602172110218817 14007.01238912012195 
	9761.339288654855409 785.628161817301816 14016.36052895989633 
	9760.830189781796435 785.1660060325352788 14032.71011256691781 
	9758.795368678100203 783.3187748267035886 14065.33210175026215 
	9752.994844421633388 778.0530307373039705 14111.49410897605048 
	9743.407704620165532 769.3497701302997029 14156.48752421255631 
	9734.772762665481423 761.5109264779277964 14187.07267292782126 
	9729.300908766348584 756.5435476252454237 14204.24879746736042 
	9720.562074959694655 748.6103773388673517 14229.69169686045461 
	9705.486015175512875 734.9242514052621118 14266.57468049991257 
	9681.43851069599441 713.0937920949438649 14312.39951087009831 
	9653.747700800407983 687.95592337761002 14354.29591105661166 
	9623.909099374752259 660.8682742161188344 14390.3497935158066 
	9592.677633823979704 632.516182473595336 14420.70971700409245 
	9566.028043933727531 608.3235331423485377 14441.51318620587153 
	9543.868720008631499 588.207180863896383 14455.94149833592382 
	9524.038183456188563 570.204907552861755 14467.24450225195505 
	9500.81440322448907 549.1222357315640465 14478.23160188943257 
	9465.165556773095886 516.7600116437834004 14491.14848933683788 
	9419.451988483835521 475.2609924454164911 14500.46614811177096 
	9363.975586605591161 424.8992026781465938 14500.46537003092271 
	9309.119040222069088 375.1001325213669588 14489.28605795680414 
	9256.107380885609018 326.9758468244267533 14467.17644212833329 
	9221.744568376521784 295.7811118350592778 14444.8015327310859 
	9203.827061668522219 279.5154817821422739 14430.66277509893371 
	9200.857210869802657 276.8194378290070858 14428.26872087741685 
	9197.904057434430797 274.1385472886087769 14425.83720171059394 
	9193.989102158937385 270.5845300190998728 14422.54555607424845 
	9189.138416531939583 266.1810507440375773 14418.33845097581798 
	9177.63841204541859 255.741282608777766 14407.94889882189273 
	9160.93493451026734 240.5777758097439971 14391.28068929238361 
	9143.45112628087918 224.7058730731835681 14370.93680539093475 
	9131.828323241476028 214.1546349350971923 14355.79862218883682 
	9125.369654088270181 208.2914089198035299 14346.90091485266203 
	9109.533031737770216 193.9148777065742024 14324.25270126653049 
	9090.797845951978161 176.9069439975783666 14292.48660292495333 
	9071.163091140002507 159.0824060395712536 14250.23305726762192 
	9056.791556096353816 146.0358456745697708 14213.46793537745725 
	9043.643275267855643 134.0997644089052301 14171.29382411990446 
	9034.573174228722564 125.8658881217079966 14131.53511588313813 
	9029.10051478899004 120.8977689743449275 14099.11409930602349 
	9024.829448374635831 117.0204802324867472 14066.36466501560426 
	9021.76536013139048 114.238872781657534 14024.96428208014186 
	9021.765513403483055 114.2390263402261326 13975.03567408665731 
	9025.135729609153714 117.298510973407673 13929.49524474852842 
	9030.853723956863178 122.4893428075629203 13888.63569492122224 
	9038.017771422750229 128.9928971835154812 13852.48489967589012 
	9045.636144241370857 135.9089098547916024 13823.04662973306949 
	9052.694433593656868 142.3164440011578051 13800.00741260600989 
	9064.229099033464081 152.7877115476144922 13766.00722607442367 
	9080.409841006327042 167.4766584834080163 13728.11429382525057 
	9102.326754327068556 187.3729524076006214 13687.96452224747554 
	9122.387756997199176 205.584448046992577 13656.4442506645355 
	9146.619515079217308 227.582163406978907 13624.48740751072 
	9175.490025691016854 253.7909818989618884 13593.35757483193811 
	9203.924425552735556 279.6038773899939542 13568.52630370416409 
	9231.115955965458852 304.2885009791374387 13549.09541077689573 
	9256.486310123598741 327.3198460905721277 13534.12886861213701 
	9282.612992213707912 351.0377920804526184 13521.76789991806982 
	9307.121710448198428 373.2869415165604323 13512.88849925570321 
	9329.738231826228002 393.8183430668731262 13506.80599411264484 
	9357.137995811555811 418.6920011180509391 13501.57541975717322 
	9391.713705760468656 450.0800188477811616 13498.94977823822592 
	9433.204601888206525 487.7456845413562405 13502.10041225859095 
	9469.621602169374455 520.8052338188421118 13510.46652554804496 
	9500.81434612101657 549.1221841004880844 13521.76833751779122 
	9535.650276241427491 580.7464283095696373 13538.24839279484877 
	9577.302723749702636 618.5587592205275769 13565.36801157491936 
	9619.319014421038446 656.7013726592464309 13604.10245732924704 
	9653.74766582047414 687.9559033327567477 13645.70391502136408 
	9681.438687061234305 713.0939551871116464 13687.6000343362266 
	9705.486025524516663 734.9242666313181189 13733.42506710953239 
	9725.587616927090494 753.1725982672676309 13782.60229180337046 
	9741.49045505981303 767.6092828539656239 13834.51347923439971 
	9752.994785006700113 778.0529776369781985 13888.50571914457214 
	9758.795395594863294 783.3187983174600504 13934.66769311879216 
	9760.830186942264845 785.1660046696624704 13967.2896998458109 
	9761.339290841855473 785.6281630307769319 13983.63928201195631 
	9761.466567481415041 785.7437107976495554 13991.81890506481614 
	9761.498392749674167 785.7725991453000915 13995.90931911259577 
	9761.506347729155095 785.779821884419448 13997.95460173267566 
	9761.508620871425592 785.7818853482863233 13999.12334539705262 
	9761.508999858604511 785.7822291706060014 13999.70771903535751 
	9761.508999896581372 785.7822291226902962 13999.99990585193518 
	9822.999235565785057 706.8910696264091484 13999.999905851937 
	9822.999235548140859 706.8910696092831358 14002.33740038455835 
	9822.975708031977774 706.86823536690531 14007.01238912012377 
	9822.834569136135542 706.7312553421718349 14016.36052895989815 
	9822.340610532370192 706.251851975917134 14032.71011256691963 
	9820.36628601202392 704.3357039145874978 14065.33210175026397 
	9814.738229688602587 698.8734867855297352 14111.4941089760523 
	9805.436141829448388 689.8454990215518592 14156.48752421255813 
	9797.057943339792473 681.714176830731958 14187.07267292782308 
	9791.748783393910344 676.5614593184802743 14204.24879746736224 
	9783.269775872955506 668.3322985877754263 14229.69169686045643 
	9768.641972351142613 654.1355254349534789 14266.57468049991439 
	9745.309467721270266 631.4905483685835179 14312.39951087010013 
	9718.441985114957788 605.4147568020507606 14354.29591105661348 
	9689.490569308291015 577.3164382817644764 14390.34979351580841 
	9659.187706587903449 547.9064952766950682 14420.70971700409427 
	9633.330482761468375 522.8111936881196016 14441.51318620587335 
	9611.83002068665337 501.9442752716404925 14455.94149833592564 
	9592.589101154844684 483.2703185570143773 14467.24450225195687 
	9570.055831981115261 461.4010262661525985 14478.23160188943439 
	9535.466925133914629 427.8313339133284217 14491.1484893368397 
	9491.112556371532264 384.7839337618643754 14500.46614811177278 
	9437.285623120382297 332.5430925717390096 14500.46537003092453 
	9384.060120684294816 280.8859601276096782 14489.28605795680596 
	9332.624644825158612 230.9661084180175408 14467.17644212833511 
	9299.283544131694725 198.607453721805058 14444.80153273108772 
	9281.898767131868226 181.7349454902457637 14430.66277509893553 
	9279.017219875635419 178.9383073854982058 14428.26872087741867 
	9276.151871367854255 176.1573907085540043 14425.83720171059576 
	9272.353319213632858 172.4707686431366085 14422.54555607425027 
	9267.646858244195755 167.9029906699684034 14418.3384509758198 
	9256.488781367965203 157.0737034180188232 14407.94889882189455 
	9240.281946888022503 141.3444278470234678 14391.28068929238543 
	9223.317979647985339 124.880329578730823 14370.93680539093657 
	9212.040758783001365 113.9354090959849231 14355.79862218883864 
	9205.774119278650687 107.8534256099622723 14346.90091485266385 
	9190.408384710492101 92.94046566878931515 14324.25270126653231 
	9172.230235784843899 75.29796341605538146 14292.48660292495515 
	9153.179278554933262 56.80837147689213396 14250.23305726762374 
	9139.235049458251524 43.27503019684281327 14213.46793537745907 
	9126.477704773760706 30.89359998329436863 14171.29382411990628 
	9117.677289123326773 22.35250190052215657 14131.53511588313995 
	9112.367343312065714 17.19902167985778618 14099.11409930602531 
	9108.223272097149675 13.1770617958631977 14066.36466501560608 
	9105.250282601213257 10.29167593546534043 14024.96428208014368 
	9105.250438149838374 10.29182690063967165 13975.03567408665913 
	9108.520440530428459 13.46547371157636874 13929.49524474853024 
	9114.068424991757638 18.84997841325694878 13888.63569492122406 
	9121.019461387075353 25.59619199997931815 13852.48489967589194 
	9128.4113238644386 32.77024206101631876 13823.04662973307131 
	9135.259740744184455 39.41685997149249943 13800.00741260601171 
	9146.45146412378017 50.27880228169658494 13766.00722607442549 
	9162.151097099860635 65.51582180893153406 13728.11429382525239 
	9183.416357706706549 86.15446932454125317 13687.96452224747736 
	9202.880892797727938 105.0454524272298045 13656.44425066453732 
	9226.392167722799059 127.8639320497001961 13624.48740751072182 
	9254.404280375720191 155.0506254036292546 13593.35757483193993 
	9281.993239966550391 181.8266345409953999 13568.52630370416591 
	9308.376289771145821 207.4322678493296337 13549.09541077689755 
	9332.992309887838928 231.3229396739899926 13534.12886861213883 
	9358.342171198963115 255.9258289517145784 13521.76789991807163 
	9382.122175311669707 279.0051192494923384 13512.88849925570503 
	9404.06624243182705 300.3025712170741599 13506.80599411264666 
	9430.651333898804296 326.1042927243406098 13501.57541975717504 
	9464.199008274366861 358.6634340966297145 13498.94977823822774 
	9504.45626243984043 397.7344473345056599 13502.10041225859277 
	9539.790479403474819 432.0274881134587872 13510.46652554804677 
	9570.055776673279979 461.4009725895116389 13521.76833751779304 
	9603.855932792912427 494.2051559486646397 13538.24839279485059 
	9644.269938739891586 533.4283020395233734 13565.36801157492118 
	9685.036962027990739 572.9940632819901793 13604.10245732924886 
	9718.441956725531782 605.4147292493862551 13645.7039150213659 
	9745.30964025830508 631.4907158217897631 13687.60003433622842 
	9768.641985156229566 654.1355378630744326 13733.42506710953421 
	9788.145897098191199 673.0647375206567631 13782.60229180337228 
	9803.575898723338469 688.0400707956321185 13834.51347923440153 
	9814.738172436547757 698.8734312212825444 13888.50571914457396 
	9820.366311680651052 704.3357288272022743 13934.66769311879398 
	9822.340608353055359 706.2518498609342714 13967.28969984581272 
	9822.83457089220974 706.7312570465513772 13983.63928201195813 
	9822.95806576157338 706.851112952755102 13991.81890506481795 
	9822.988943443657263 706.881080777227794 13995.90931911259759 
	9822.996662451067095 706.8885723324054879 13997.95460173267747 
	9822.99886795551356 706.8907128483294855 13999.12334539705444 
	9822.999235567989672 706.8910696285498716 13999.70771903535933 
	9822.999235565785057 706.8910696264091484 13999.999905851937 
	0 
	
	0 
	0 
	83 -2.064633575279573496e-30 0.002232142857142857019 0.004464285714285714038 0.008928571428571428076 0.01785714285714285615 0.0357142857142857123 0.05357142857142856845 0.0625 0.0669642857142857123 0.07142857142857142461 0.08928571428571427382 0.1071428571428571369 0.125 0.1428571428571428492 0.1587301587301587213 0.1746031746031745935 0.1825396825396825295 0.1904761904761904656 0.2023809523809523836 0.2142857142857142738 0.238095238095238082 0.2619047619047618625 0.2857142857142856984 0.3095238095238095344 0.3333333333333333148 0.3348214285714286031 0.336309523809523836 0.3377976190476190688 0.3392857142857143016 0.3422619047619047672 0.3452380952380952328 0.3571428571428570953 0.3690476190476190133 0.375 0.3779761904761904656 0.3809523809523809312 0.4047619047619047672 0.4166666666666666297 0.4285714285714285476 0.4444444444444444198 0.4603174603174602919 0.4682539682539682557 0.476190476190476164 0.4920634920634920362 0.5079365079365079083 0.5238095238095237249 0.5357142857142855874 0.5476190476190475609 0.5595238095238095344 0.5654761904761904656 0.5714285714285713969 0.5952380952380951218 0.6071428571428569843 0.6190476190476189577 0.6349206349206348854 0.650793650793650702 0.6666666666666666297 0.6785714285714286031 0.6904761904761904656 0.7023809523809523281 0.7142857142857141906 0.7232142857142855874 0.7321428571428569843 0.749999999999999889 0.7678571428571427937 0.7857142857142855874 0.7976190476190474499 0.8095238095238094234 0.8333333333333332593 0.8571428571428570953 0.875 0.8928571428571427937 0.9107142857142856984 0.9285714285714286031 0.9464285714285713969 0.9642857142857143016 0.9821428571428572063 0.9910714285714286031 0.9955357142857143016 0.9977678571428572063 0.9988839285714286031 0.9994419642857143016 0.9997209821428572063 
	0 
	0 
	0 
	F 1 F 0 F 1 F 0 } I I I I #
tcoedge-coedge $-1 -1 $-1 $14 $14 $18 $19 reversed $9 $20 -6.283185307179586232 -2.901040576923969087e-29 #
tcoedge-coedge $-1 -1 $-1 $21 $22 $11 $16 reversed $12 $23 -6.283185307179586232 -5.317589652212583183e-30 #
tedge-edge $-1 -1 $-1 $24 5.317589652212583183e-30 $24 6.283185307179586232 $15 $25 forward @7 unknown 0.000654230824602581966 #
pcurve $-1 -1 $-1 0 forward { exppc nurbs 2 periodic 5 
	5.317589652212583183e-30 2 1.570796326794896558 2 3.141592653589793116 2 4.712388980384689674 2 6.283185307179586232 2 
	9.094947017729282379e-12 500.0000000000009095 1 
	-499.9999999999909051 500.0000000000081855 0.7071067811865470176 
	-500 8.185452315956354141e-12 1 
	-500.000000000007276 -499.9999999999918145 0.7071067811865456854 
	-7.275957614183425903e-12 -500 1 
	499.999999999992724 -500.0000000000081855 0.7071067811865472397 
	500 -8.185452315956354141e-12 1 
	500.0000000000090949 499.999999999992724 0.7071067811865453523 
	9.094947017729282379e-12 500.0000000000009095 1 
	0 
	plane 9464.199029048482771 358.6634542543542921 14000.00000000000182 0.6964551467160909892 -0.7176003265137689269 1.559133774493087789e-14 2.238670762711251122e-14 0 -1 forward_v I I I I 
	} 0 0 #
tcoedge-coedge $-1 -1 $-1 $22 $21 $14 $19 forward $12 $26 2.901040576923969087e-29 6.283185307179586232 #
tedge-edge $-1 -1 $-1 $27 2.901040576923969087e-29 $27 6.283185307179586232 $18 $28 forward @7 unknown 0.0006542305705813577718 #
pcurve $-1 -1 $-1 0 forward { exppc nurbs 2 periodic 5 
	-6.283185307179586232 2 -4.712388980384689674 2 -3.141592653589793116 2 -1.570796326794896558 2 -2.901040576923969087e-29 2 
	9.094947017729282379e-12 499.9999999999990905 1 
	500.0000000000090949 499.9999999999899956 0.7071067811865505703 
	500 -9.094947017729282379e-12 1 
	499.9999999999890861 -500.0000000000090949 0.7071067811865523467 
	-1.091393642127513885e-11 -499.9999999999990905 1 
	-500.0000000000109139 -499.9999999999899956 0.7071067811865506814 
	-500 8.185452315956354141e-12 1 
	-499.9999999999909051 500.0000000000081855 0.7071067811865520136 
	9.094947017729282379e-12 499.9999999999990905 1 
	0 
	plane 9246.743120975368583 632.9132091131968991 13999.99999999999636 -0.6213025945046595222 0.7835707281807929858 -1.559133774493090945e-14 2.509459622868833993e-14 0 -1 reverse_v I I I I 
	} 0 0 #
coedge $-1 -1 $-1 $18 $15 $22 $29 reversed $12 $30 #
coedge $-1 -1 $-1 $15 $18 $21 $29 forward $12 $31 #
pcurve $-1 -1 $-1 0 forward { exppc nubs 1 periodic 2 
	-6.283185307179586232 1 -5.317589652212583183e-30 1 
	1 1 
	0 1 
	1.603025807934800592e-12 
	spline forward { ref 0 } I I I I 
	} 0 0 #
tvertex-vertex $-1 -1 $-1 $16 $32 0.0001118056393554258792 #
ellipse-curve $-1 -1 $-1 9464.199029048482771 358.6634542543542921 14000.00000000000182 0.6964551467160909892 -0.7176003265137689269 1.559133774493087789e-14 358.8001632568845025 348.2275733580455608 3.029225876048685333e-28 1 I I #
pcurve $-1 -1 $-1 0 forward { exppc nubs 1 periodic 2 
	2.901040576923969087e-29 1 6.283185307179586232 1 
	-2.064633575279573496e-30 1.19527012999839385e-15 
	1 1.19527012999839385e-15 
	1.861119955611781917e-12 
	spline forward { ref 0 } I I I I 
	} 0 0 #
tvertex-vertex $-1 -1 $-1 $19 $33 0.0001118046088520693767 #
ellipse-curve $-1 -1 $-1 9246.743120975368583 632.9132091131968991 13999.99999999999636 0.6213025945046595222 -0.7835707281807929858 1.559133774493090945e-14 391.7853640903967403 310.6512972523298686 2.001813438605815663e-28 1 I I #
edge $-1 -1 $-1 $27 1.730386447822867621e-09 $24 1 $22 $34 forward @7 tangent #
pcurve $-1 -1 $-1 -1 $34 0 0 #
pcurve $-1 -1 $-1 1 $34 1 0 #
point $-1 -1 $-1 9822.999192305367615 706.8910276124004213 14000.00000000000182 #
point $-1 -1 $-1 9638.528485065764471 943.5645063655272224 13999.99999999999636 #
intcurve-curve $-1 -1 $-1 forward { parcur full nubs 3 open 2 
	0 3 1 3 
	9638.528532306689158 943.5645438449159883 13999.99990585192791 
	9700.018767975892843 864.6733843486352953 13999.99990585192973 
	9761.508999896581372 785.7822291226902962 13999.99990585193518 
	9822.999235565785057 706.8910696264091484 13999.999905851937 
	0 
	
	spline forward { ref 0 } I I I I 
	null_surface 
	nubs 1 open 2 
	0 1 1 1 
	-2.064633575279573496e-30 0 
	-2.064633575279573496e-30 1 
	
	nullbs 
	I I 
	0 
	0 
	0 
	surf1 } F 1.730386447822867621e-09 F 1 #
End-of-ACIS-data 