700 0 1 0           
4 LibG 20 ASM 224.0.1.65535 NT 24 Wed Jul 17 15:51:17 2019 
1000 9.999999999999999547e-07 1.000000000000000036e-10 
body $-1 -1 $-1 $1 $-1 $2 #
lump $-1 -1 $-1 $-1 $3 $0 #
transform $-1 -1 1 0 0 0 1 0 0 0 1 0 0 0 1 no_rotate no_reflect no_shear #
shell $-1 -1 $-1 $-1 $-1 $4 $-1 $1 #
face $-1 -1 $-1 $5 $6 $3 $-1 $7 forward single #
face $-1 -1 $-1 $8 $9 $3 $-1 $10 reversed single #
loop $-1 -1 $-1 $-1 $11 $4 #
plane-surface $-1 -1 $-1 6242.624231687979773 2851.192524306838095 14000.00000000000182 0.9552945000950084919 -0.2956559116409281929 5.197112581643634378e-15 5.440325031837571705e-15 0 -1 forward_v I I I I #
face $-1 -1 $-1 $-1 $12 $3 $-1 $13 forward single #
loop $-1 -1 $-1 $-1 $14 $5 #
plane-surface $-1 -1 $-1 5899.607908168603899 2920.761208319757316 14000.00000000001091 0.9800466386426351928 -0.1987676686115533164 -5.19711258164362649e-15 -5.302923735182264647e-15 0 -1 forward_v I I I I #
tcoedge-coedge $-1 -1 $-1 $11 $11 $15 $16 forward $6 $17 5.908432948240591465e-32 6.283185307179586232 #
loop $-1 -1 $-1 $-1 $18 $8 #
spline-surface $-1 -1 $-1 forward { exactsur full nubs 3 3 periodic open none none 80 2 
	0 3 0.002232142857142857019 1 0.004464285714285714038 1 0.008928571428571428076 1 0.01785714285714285615 1 
	0.0357142857142857123 1 0.05357142857142856845 1 0.0625 1 0.07142857142857142461 1 0.08928571428571427382 1 
	0.1071428571428571369 1 0.125 1 0.1428571428571428492 1 0.1587301587301587213 1 0.1746031746031745935 1 
	0.1904761904761904656 1 0.2023809523809523836 1 0.2142857142857142738 1 0.238095238095238082 1 0.2619047619047618625 1 
	0.2857142857142856984 1 0.2976190476190476164 1 0.3095238095238095344 1 0.3214285714285713969 1 0.3273809523809523281 1 
	0.3303571428571427937 1 0.3333333333333333148 1 0.3452380952380952328 1 0.3571428571428570953 1 0.3690476190476190133 1 
	0.375 1 0.3809523809523809312 1 0.3928571428571428492 1 0.4047619047619047672 1 0.4166666666666666297 1 
	0.4285714285714285476 1 0.4444444444444444198 1 0.4603174603174602919 1 0.476190476190476164 1 0.4841269841269840724 1 
	0.4920634920634920362 1 0.5 1 0.5079365079365079083 1 0.5158730158730158166 1 0.5238095238095237249 1 
	0.5476190476190475609 1 0.5714285714285713969 1 0.5952380952380951218 1 0.6190476190476189577 1 0.6269841269841269771 1 
	0.6349206349206348854 1 0.650793650793650702 1 0.6666666666666666297 1 0.6904761904761904656 1 0.7023809523809523281 1 
	0.7142857142857141906 1 0.7321428571428569843 1 0.7410714285714283811 1 0.749999999999999889 1 0.7678571428571427937 1 
	0.7857142857142855874 1 0.7976190476190474499 1 0.8095238095238094234 1 0.8333333333333332593 1 0.8452380952380951218 1 
	0.8571428571428570953 1 0.875 1 0.8928571428571427937 1 0.9107142857142856984 1 0.9285714285714286031 1 
	0.9464285714285713969 1 0.9642857142857143016 1 0.9821428571428572063 1 0.9910714285714286031 1 0.9955357142857143016 1 
	0.9977678571428572063 1 0.9988839285714286031 1 0.9994419642857143016 1 0.9997209821428572063 1 1 3 
	0 3 1 3 
	5998.991758495061731 3410.784606272790825 13999.99989068747345 
	5998.991758487086372 3410.784606233511568 14002.33738521736268 
	5998.985241565399519 3410.752473809755884 14007.01237388234586 
	5998.946147589274915 3410.559716507019857 14016.36051379697346 
	5998.809325903340323 3409.885101599618338 14032.71009655004673 
	5998.262459412539101 3407.188714071256527 14065.33208817908599 
	5996.703541045641941 3399.502289481549724 14111.49407879363935 
	5994.126967856823285 3386.798201830706603 14156.48751598669151 
	5991.474758538320202 3373.72118159436377 14191.44193401127086 
	5988.437310922087818 3358.744700032492347 14225.59355363362374 
	5983.935380251923561 3336.547417930108622 14266.5747049006859 
	5977.472507447531825 3304.681487184448088 14312.39944923497387 
	5970.030520243901265 3267.987921340364665 14354.29598078033996 
	5962.011294268919301 3228.448213924941683 14390.34990810657473 
	5953.617697482489348 3187.06262859233766 14420.70970653295808 
	5945.023094793470591 3144.685960725334098 14445.67389296996225 
	5936.730971261478771 3103.800700811771094 14464.49778227501338 
	5928.929116794096444 3065.332768383339499 14478.23158250602864 
	5919.348357937738001 3018.093745169182966 14491.14854356489195 
	5907.062673736400939 2957.517779330114081 14500.46604724792269 
	5892.153159233217593 2884.004719220103652 14500.46565158068552 
	5879.867458612708106 2823.42867242576358 14491.14878660432441 
	5870.286683093310785 2776.189567049128527 14478.23206055139963 
	5863.265023938217382 2741.56847650635018 14465.87155328986228 
	5857.583040442712445 2713.552809451759913 14453.39924645196515 
	5853.71123629882095 2694.462437948960087 14443.56575471579708 
	5851.531256734710951 2683.713800310863007 14437.63741458675577 
	5848.294904919579494 2667.756598920998385 14428.43889518934157 
	5843.570756116077064 2644.463644955318614 14413.50498002870881 
	5837.58526810470994 2614.951514300083545 14391.28066778233369 
	5832.886419811804444 2591.783307384683667 14370.93680290872726 
	5829.316521418229058 2574.181516583932535 14353.63597725570253 
	5825.877674488765479 2557.225889959806409 14335.67582194451279 
	5821.833982497973011 2537.28800584245846 14312.03589926706991 
	5817.416483506360237 2515.50702371432908 14281.92296694517245 
	5813.458673581315452 2495.992590907337217 14250.23332519210817 
	5809.596337942964965 2476.948904950172619 14213.46789452666962 
	5806.062680375749551 2459.525803673774135 14171.29387631006102 
	5803.137500485440796 2445.10287091583541 14123.58339670201894 
	5801.498818009467868 2437.023160249293142 14082.8011869009224 
	5800.676956424345917 2432.97087805706542 14049.80452553262694 
	5800.306462974391252 2431.144117886325603 14024.9332447374436 
	5800.182885975543286 2430.534807412555892 13999.99997073337727 
	5800.306449864944625 2431.144053248692217 13975.06667308719807 
	5800.676987429151268 2432.971030929827975 13950.19543645521117 
	5801.70413161686065 2438.035482384827901 13908.94946284222351 
	5804.284437623507074 2450.757975162344337 13852.07149590554036 
	5809.731527834421286 2477.615474113583787 13782.24727187294775 
	5817.186187055024675 2514.371520819081525 13717.28698250023081 
	5824.4163948007008 2550.020883951581254 13671.67480593280015 
	5830.185684275783387 2578.467023088757742 13641.91807237633111 
	5835.031050823393343 2602.357654955816088 13619.29867151017243 
	5841.496965253855706 2634.238582810993648 13593.35750787021971 
	5851.22283674893788 2682.193100428391517 13561.75278842716216 
	5860.924409280677537 2730.0278092366907 13538.24841756935348 
	5870.286720733624861 2776.189752640605093 13521.76849731379116 
	5878.669876302811645 2817.523856389732828 13510.46661250012221 
	5886.621986124760042 2856.732639963906422 13503.66930160272568 
	5894.032494114095243 2893.270993992851345 13500.52504106336346 
	5901.466385696442558 2929.924643491198822 13499.47524000748672 
	5910.758736526991015 2975.741638069929195 13502.10040870751982 
	5920.545944686488838 3023.998583094917194 13510.46668408317237 
	5928.929103358325847 3065.332702139250159 13521.76842550516994 
	5938.291388244125301 3111.494514550521671 13538.24866203615602 
	5947.246712797279542 3155.649762659679709 13559.94466419312994 
	5955.645037062722622 3197.058657387770381 13586.49536589565287 
	5962.628184357819919 3231.489860809833772 13612.42306374757754 
	5970.030526377691785 3267.987951583971153 13645.70383833863161 
	5977.472553098163189 3304.68171229039126 13687.60013108130806 
	5983.935367261553438 3336.547353910278161 13733.42511079404358 
	5989.337774440503381 3363.184538053665619 13782.60225294571137 
	5993.61170355167269 3384.257632471234047 13834.51347355371581 
	5996.703538238625697 3399.502275649931562 13888.50569882139644 
	5998.262467076950088 3407.188751861262972 13934.66767952516057 
	5998.809326174963644 3409.885102938682394 13967.28968447655097 
	5998.946148178789372 3410.559719413193307 13983.63926691904453 
	5998.980354918978264 3410.728379642036998 13991.8188898986391 
	5998.988907690451015 3410.770550055939566 13995.90930395202849 
	5998.991045771263089 3410.781092106917185 13997.95458656883966 
	5998.991656671400051 3410.784104219626897 13999.12333023259453 
	5998.991758496058537 3410.784606277700732 13999.70770387123775 
	5998.991758495061731 3410.784606272790825 13999.99989068747345 
	6129.47857362895229 3383.469688479241995 13999.99989068747163 
	6129.478574145190578 3383.469688306041007 14002.33738521736086 
	6129.470996378136988 3383.437826897536524 14007.01237388234404 
	6129.425553786695673 3383.2466914820493 14016.36051379697165 
	6129.266495563053468 3382.5777573656801 14032.71009655004491 
	6128.630781240992292 3379.904067883647258 14065.33208817908417 
	6126.818563382641514 3372.282353974106172 14111.49407879363753 
	6123.823348851872652 3359.685217055092835 14156.48751598668969 
	6120.740197808664561 3346.718289941944022 14191.44193401126904 
	6117.20922783761398 3331.867889040850969 14225.59355363362192 
	6111.975813774108246 3309.857479749152844 14266.57470490068408 
	6104.462846390226332 3278.259817739790833 14312.39944923497205 
	6095.811670087611674 3241.875164671628227 14354.29598078033814 
	6086.489468093069263 3202.668329872655249 14390.34990810657291 
	6076.732067398845174 3161.631156919324894 14420.70970653295626 
	6066.741001558418247 3119.611244921966318 14445.67389296996043 
	6057.101560009024979 3079.070185720396239 14464.49778227501156 
	6048.032047246190814 3040.926103253311339 14478.23158250602683 
	6036.894593487508246 2994.084770478097653 14491.14854356489013 
	6022.612707279507958 2934.018776407460791 14500.46604724792087 
	6005.280674683200232 2861.124599472543196 14500.4656515806837 
	5990.998772517769794 2801.058524328673229 14491.14878660432259 
	5979.861302026492012 2754.217109408750275 14478.23206055139781 
	5971.69875001993114 2719.887483929684095 14465.87155328986046 
	5965.093551576780555 2692.107671542067692 14453.39924645196334 
	5960.592649517637255 2673.178016327141904 14443.56575471579526 
	5958.058464197456487 2662.519867995843015 14437.63741458675395 
	5954.296263879564322 2646.697005660836567 14428.43889518933975 
	5948.804528764535462 2623.600147755278158 14413.504980028707 
	5941.846510521004348 2594.336470393194304 14391.28066778233188 
	5936.384185651518237 2571.363309619725442 14370.93680290872544 
	5932.234245990985983 2553.909702554731666 14353.63597725570071 
	5928.236648628490912 2537.096820475243021 14335.67582194451097 
	5923.53593223248663 2517.326787054723809 14312.03589926706809 
	5918.400671765823063 2495.72917218477869 14281.92296694517063 
	5913.799789253103881 2476.379025789518437 14250.23332519210635 
	5909.309897284727413 2457.495662289873962 14213.46789452666781 
	5905.202080414141165 2440.219242077978834 14171.2938763100592 
	5901.801610251614875 2425.917732212028113 14123.58339670201713 
	5899.896670292094313 2417.906042617145886 14082.80118690092058 
	5898.94127741313514 2413.887873801135811 14049.80452553262512 
	5898.510580213895082 2412.076493943804508 14024.93324473744178 
	5898.36693172525429 2411.472311154062027 13999.99997073337545 
	5898.51056378800422 2412.076430153426372 13975.06667308719625 
	5898.941316350648776 2413.888024647321345 13950.19543645520935 
	5900.1353374798191 2418.909843879398068 13908.94946284222169 
	5903.134906685372698 2431.525227058651581 13852.07149590553854 
	5909.467043526953603 2458.156622241895548 13782.24727187294593 
	5918.132953834320688 2494.603229393345373 13717.28698250022899 
	5926.537928832578473 2529.952473534232013 13671.67480593279834 
	5933.244638985017446 2558.159128852135382 13641.91807237632929 
	5938.877276145301039 2581.848635890524292 13619.29867151017061 
	5946.393792194439811 2613.461165475584039 13593.35750787021789 
	5957.699932466171049 2661.011970212253345 13561.75278842716034 
	5968.977821961731024 2708.443975713489635 13538.24841756935166 
	5979.861344614441805 2754.217293736248394 13521.76849731378934 
	5989.606602024735366 2795.203419934820431 13510.46661250012039 
	5998.850788236349217 2834.082115432142018 13503.66930160272386 
	6007.465365102075339 2870.312864753668691 13500.52504106336164 
	6016.107128981017922 2906.657937880948339 13499.4752400074849 
	6026.909313671468226 2952.08921365917513 13502.100408707518 
	6038.28676687834195 2999.939897155347808 13510.46668408317055 
	6048.032029612872066 3040.926038081573552 13521.76842550516812 
	6058.915522969731683 3086.699225808794836 13538.2486620361542 
	6069.325913437323834 3130.482746740495713 13559.94466419312812 
	6079.088802520478566 3171.543034698877364 13586.49536589565105 
	6087.206590192808108 3205.684370383216901 13612.42306374757572 
	6095.81167412882769 3241.875195449826606 13645.70383833862979 
	6104.46289396827342 3278.260042353334484 13687.60013108130624 
	6111.97579893263628 3309.857416202225068 13733.42511079404176 
	6118.255991600876769 3336.270351588831545 13782.60225294570955 
	6123.224359807181827 3357.166036940467166 13834.51347355371399 
	6126.818558480059437 3372.282340677844331 13888.50569882139462 
	6128.630790167609121 3379.904105351196449 13934.66767952515875 
	6129.266495136691447 3382.577758883059232 13967.28968447654916 
	6129.425554876216665 3383.246694260485128 13983.63926691904271 
	6129.465315662740977 3383.4139355914308 13991.81888989863728 
	6129.475260162198538 3383.455750459161663 13995.90930395202668 
	6129.477744797554806 3383.466203975495318 13997.95458656883784 
	6129.478455016620501 3383.469190715096829 13999.12333023259271 
	6129.478573564422732 3383.469688500892062 13999.70770387123594 
	6129.47857362895229 3383.469688479241995 13999.99989068747163 
	6259.965396169578526 3356.154768793735457 13999.99989068746618 
	6259.965395633504158 3356.154768889370644 14002.3373852173554 
	6259.956762918482127 3356.123176989502099 14007.01237388233858 
	6259.904961407017254 3355.933666093815646 14016.36051379696437 
	6259.72368325610023 3355.270408524990671 14032.71009655003945 
	6258.999097435480508 3352.619423135584384 14065.33208817907689 
	6256.933592097081601 3345.062416837608907 14111.49407879363025 
	6253.519723355642782 3332.572233937981309 14156.48751598668423 
	6250.005650435212374 3319.715394877559447 14191.44193401126176 
	6245.981137487352498 3304.991079905558308 14225.59355363361647 
	6240.016248050120339 3283.167541375739347 14266.57470490068044 
	6231.453176848574913 3251.838150462741851 14312.39944923496842 
	6221.592821661422022 3215.762407560979227 14354.29598078033632 
	6210.967642650654852 3176.888445633071115 14390.34990810657109 
	6199.846435658062546 3136.199685669716473 14420.7097065329508 
	6188.458902745494925 3094.536530543633489 14445.6738929699568 
	6177.472145712839847 3054.339671406652997 14464.4977822750061 
	6167.134977071013054 3016.519438283577983 14478.23158250602137 
	6154.440823162901324 2970.075797287786372 14491.14854356488468 
	6138.162749539459583 2910.519771257944285 14500.46604724791541 
	6118.408189573794516 2838.244479867919381 14500.46565158067824 
	6102.130091066129353 2778.688375045379871 14491.14878660431896 
	6089.435912441887012 2732.244653944443598 14478.23206055139053 
	6080.132475724226424 2698.206491449459463 14465.87155328985682 
	6072.604054538222954 2670.662535720264714 14453.39924645195788 
	6067.474057969759997 2651.89359592309529 14443.56575471579163 
	6064.585664716224528 2641.325937454827908 14437.63741458675031 
	6060.29761892233455 2625.637413401428603 14428.43889518933247 
	6054.03829521908574 2602.73665213761933 14413.50498002870154 
	6046.107743139267768 2573.721428989435481 14391.2806677823246 
	6039.881942811003682 2550.94331407232994 14370.93680290871998 
	6035.151957696990394 2533.637891812629277 14353.63597725569525 
	6030.595613552436589 2516.967753345059464 14335.67582194450733 
	6025.23786981018111 2497.365571372717568 14312.03589926706081 
	6019.384845902296547 2475.951324263256993 14281.92296694516335 
	6014.140895164424364 2456.765463165229903 14250.23332519210089 
	6009.023440888968253 2438.04242365006894 14213.46789452666053 
	6004.341480035859604 2420.91268058864398 14171.29387631005011 
	6000.465727036221324 2406.7325917152275 14123.58339670201349 
	5998.294534985370774 2398.788921814449623 14082.80118690091695 
	5997.205592635042194 2394.804871018488484 14049.8045255326233 
	5996.714707872465624 2393.00886733952575 14024.93324473743633 
	5996.550965412498044 2392.409817977190869 13999.99997073337181 
	5996.714691689330721 2393.008803487130081 13975.06667308719079 
	5997.205630820270926 2394.805022056861617 13950.19543645520753 
	5998.566574038493854 2399.784197532113922 13908.94946284222169 
	6001.985373287167022 2412.292479583447857 13852.07149590553308 
	6009.202572023250468 2438.697767099231442 13782.24727187294411 
	6019.079714150540894 2474.834939618751832 13717.28698250022353 
	6028.659480959180655 2509.88405849422179 13671.67480593279106 
	6036.303559230719657 2537.851243419963339 13641.91807237632383 
	6042.72350332185033 2561.339616351442601 13619.29867151016333 
	6051.29059173720907 2592.683755139540153 13593.35750787021243 
	6064.177018794073774 2639.830842394836509 13561.75278842715124 
	6077.031254299809007 2686.860137168510391 13538.24841756934256 
	6089.435963482284023 2732.244836112585745 13521.76849731378024 
	6100.543341811198843 2772.882979886850535 13510.4666125001113 
	6111.079588886836973 2811.431591273674712 13503.66930160271295 
	6120.898240710348546 2847.354734334165187 13500.52504106335255 
	6130.747870914691703 2883.391232615844729 13499.47524000747399 
	6143.059894880822867 2928.436788209998667 13502.10040870751072 
	6156.027580561749346 2975.881213389481672 13510.46668408316145 
	6167.134961283830307 3016.519372640205802 13521.76842550516085 
	6179.539633677819438 3061.90394320289488 13538.24866203614874 
	6191.405117644762868 3105.31572991000121 13559.94466419312084 
	6202.532595593041151 3146.027404955262682 13586.49536589564195 
	6211.785000522936571 3179.87887880829021 13612.42306374756663 
	6221.592832877688124 3215.762436506159702 13645.7038383386207 
	6231.453242825909001 3251.83837037578769 13687.60013108129715 
	6240.016230581727541 3283.167478499892241 13733.42511079403266 
	6247.174226918267777 3309.356160485527653 13782.60225294570228 
	6252.837020945480617 3330.074440162450628 13834.51347355370672 
	6256.933590018204995 3345.062402819965882 13888.50569882138552 
	6258.999107573639776 3352.619460293619341 13934.66767952514965 
	6259.723684358090395 3355.270409651920545 13967.28968447654006 
	6259.904961783833642 3355.933669054326401 13983.63926691903544 
	6259.950288371154784 3356.099488484451285 13991.81888989862819 
	6259.961618417576574 3356.140949385081967 13995.9093039520194 
	6259.964452139956848 3356.151313719796235 13997.95458656883056 
	6259.965261501186433 3356.154275131448685 13999.12333023258907 
	6259.965396236588276 3356.154768781781058 13999.70770387123048 
	6259.965396169578526 3356.154768793735457 13999.99989068746618 
	6390.452211303469994 3328.839851000186627 13999.99989068746436 
	6390.452211291609274 3328.839850961900083 14002.33738521735359 
	6390.442517731219596 3328.80853007728274 14007.01237388233676 
	6390.384367604438012 3328.620641068845089 14016.36051379696255 
	6390.180852915812466 3327.963064291052433 14032.71009655003763 
	6389.367419263933698 3325.334776947975115 14065.33208817907507 
	6387.048614434078445 3317.842481330165811 14111.49407879362843 
	6383.21610435069033 3305.459249162368451 14156.48751598668241 
	6379.271089705552185 3292.712503225140608 14191.44193401125995 
	6374.753054402875023 3278.11426891391784 14225.59355363361465 
	6368.056681572299567 3256.477603194784479 14266.57470490067863 
	6358.443515791263962 3225.416481018085506 14312.3994492349666 
	6347.373971505126065 3189.649650892244154 14354.2959807803345 
	6335.445816474797539 3151.108561580786045 14390.34990810656927 
	6322.960805574410188 3110.768213996705072 14420.70970653294899 
	6310.176809510434396 3069.461814740267528 14445.67389296995498 
	6297.84273446037696 3029.609156315279961 14464.49778227500428 
	6286.237907523098329 2992.112773153552098 14478.23158250601955 
	6271.987058712661565 2946.066822596702877 14491.14854356488286 
	6253.712783082556598 2887.020768335292814 14500.46604724791359 
	6231.53570502376715 2815.364360120360743 14500.46565158067642 
	6213.261404971181946 2756.31822694829134 14491.14878660431714 
	6199.010531375059145 2710.272196304067165 14478.23206055138871 
	6188.566201805931087 2676.525498872795197 14465.871553289855 
	6180.114565672281969 2649.217397810574312 14453.39924645195606 
	6174.355471188567208 2630.609174301278927 14443.56575471578981 
	6171.112872178961879 2620.132005139809735 14437.63741458674849 
	6166.298977882310282 2604.577820141268148 14428.43889518933065 
	6159.272067867535952 2581.873154937580239 14413.50498002869972 
	6150.3689855555549 2553.106385082547604 14391.28066778232278 
	6143.379708650711109 2530.523316307373079 14370.93680290871816 
	6138.069682269740952 2513.366077783429773 14353.63597725569161 
	6132.954587692155656 2496.83868386049744 14335.6758219445037 
	6126.939819544689271 2477.404352584983826 14312.03589926705718 
	6120.369034161753916 2456.173472733707513 14281.92296694515971 
	6114.482010836208246 2437.151898047412487 14250.23332519209725 
	6108.737000230727062 2418.589180989770739 14213.46789452665689 
	6103.48088007424758 2401.606118992849588 14171.29387631004647 
	6099.129836802393584 2387.547453011420657 14123.58339670200985 
	6096.69238726799631 2379.671804182302822 14082.80118690091331 
	6095.469913623831417 2375.721866762558875 14049.80452553261966 
	6094.918825111969454 2373.941243397004655 14024.93324473743269 
	6094.735011162209958 2373.347321718696548 13999.99997073336817 
	6094.918805612391225 2373.941180391864236 13975.06667308718716 
	6095.469959741769344 2375.722015774354531 13950.19543645520389 
	6096.997779901455033 2380.658559026683633 13908.94946284221805 
	6100.835842349035374 2393.059731479754646 13852.07149590552945 
	6108.938087715787333 2419.238915227542293 13782.24727187294047 
	6120.026480929842364 2455.066648193014316 13717.28698250021989 
	6130.781014991064694 2489.815648076871184 13671.67480593278742 
	6139.3625139399619 2517.543349183339615 13641.9180723763202 
	6146.569728643766211 2540.830597286148986 13619.29867151015969 
	6156.18741867780227 2571.906337804128725 13593.35750787020879 
	6170.654114511316038 2618.649712178696518 13561.75278842714943 
	6185.084666980872498 2665.276303645307053 13538.24841756934075 
	6199.010587363110972 2710.272377208227226 13521.76849731377843 
	6211.480067533132569 2750.562543431935865 13510.46661250010948 
	6223.308390998437062 2788.781066741908035 13503.66930160271113 
	6234.331111698338646 2824.396605094980259 13500.52504106335073 
	6245.388614199277981 2860.124527005591972 13499.47524000747217 
	6259.210472025310992 2904.784363799242328 13502.1004087075089 
	6273.768402753612463 2951.822527449910012 13510.46668408315963 
	6286.23788753838744 2992.112708582527375 13521.76842550515903 
	6300.163768403434915 3037.10865446116577 13538.24866203614692 
	6313.484318284817164 3080.14871399081494 13559.94466419311902 
	6325.97636105080619 3120.511782266367845 13586.49536589564013 
	6336.363406357932945 3154.073388381671521 13612.42306374756481 
	6347.373980628831305 3189.64968037201379 13645.70383833861888 
	6358.443583696025598 3225.416700438729549 13687.60013108129533 
	6368.05666225281675 3256.477540791837782 13733.42511079403084 
	6376.092444078645713 3282.441974020692669 13782.60225294570046 
	6382.449677200994302 3302.982844631683292 13834.5134735537049 
	6387.048610259641464 3317.842467847878197 13888.5056988213837 
	6389.367430664300628 3325.334813783552363 13934.66767952514783 
	6390.180853319819107 3327.963065596296929 13967.28968447653824 
	6390.384368481261845 3328.620643901618223 13983.63926691903362 
	6390.435249114918406 3328.785044433845087 13991.81888989862637 
	6390.447970889324097 3328.826149788304065 13995.90930395201758 
	6390.451151166249474 3328.836425588374368 13997.95458656882874 
	6390.452059846406883 3328.839361626918617 13999.12333023258725 
	6390.452211304952471 3328.839851004972388 13999.70770387122866 
	6390.452211303469994 3328.839851000186627 13999.99989068746436 
	0 
	
	0 
	0 
	79 0 0.002232142857142857019 0.004464285714285714038 0.008928571428571428076 0.01785714285714285615 0.0357142857142857123 0.05357142857142856845 0.0625 0.07142857142857142461 0.08928571428571427382 0.1071428571428571369 0.125 0.1428571428571428492 0.1587301587301587213 0.1746031746031745935 0.1904761904761904656 0.2023809523809523836 0.2142857142857142738 0.238095238095238082 0.2619047619047618625 0.2857142857142856984 0.2976190476190476164 0.3095238095238095344 0.3214285714285713969 0.3273809523809523281 0.3303571428571427937 0.3333333333333333148 0.3452380952380952328 0.3571428571428570953 0.3690476190476190133 0.375 0.3809523809523809312 0.3928571428571428492 0.4047619047619047672 0.4166666666666666297 0.4285714285714285476 0.4444444444444444198 0.4603174603174602919 0.476190476190476164 0.4841269841269840724 0.4920634920634920362 0.5 0.5079365079365079083 0.5158730158730158166 0.5238095238095237249 0.5476190476190475609 0.5714285714285713969 0.5952380952380951218 0.6190476190476189577 0.6269841269841269771 0.6349206349206348854 0.650793650793650702 0.6666666666666666297 0.6904761904761904656 0.7023809523809523281 0.7142857142857141906 0.7321428571428569843 0.7410714285714283811 0.749999999999999889 0.7678571428571427937 0.7857142857142855874 0.7976190476190474499 0.8095238095238094234 0.8333333333333332593 0.8452380952380951218 0.8571428571428570953 0.875 0.8928571428571427937 0.9107142857142856984 0.9285714285714286031 0.9464285714285713969 0.9642857142857143016 0.9821428571428572063 0.9910714285714286031 0.9955357142857143016 0.9977678571428572063 0.9988839285714286031 0.9994419642857143016 0.9997209821428572063 
	0 
	0 
	0 
	F 1 F 0 F 1 F 0 } I I I I #
tcoedge-coedge $-1 -1 $-1 $14 $14 $18 $19 reversed $9 $20 -6.283185307179586232 -1.536192566191403537e-30 #
tcoedge-coedge $-1 -1 $-1 $21 $22 $11 $16 reversed $12 $23 -6.283185307179586232 -5.908432948240591465e-32 #
tedge-edge $-1 -1 $-1 $24 5.908432948240591465e-32 $24 6.283185307179586232 $15 $25 forward @7 unknown 0.0007681855736189226571 #
pcurve $-1 -1 $-1 0 forward { exppc nurbs 2 periodic 5 
	5.908432948240591465e-32 2 1.570796326794896558 2 3.141592653589793116 2 4.712388980384689674 2 6.283185307179586232 2 
	0 500 1 
	-500 500.0000000000009095 0.7071067811865469066 
	-500 9.094947017729282379e-13 1 
	-500.000000000001819 -500 0.7071067811865460184 
	-1.818989403545856476e-12 -500.0000000000004547 1 
	499.999999999998181 -500.000000000001819 0.7071067811865469066 
	500 -9.094947017729282379e-13 1 
	500 499.9999999999990905 0.7071067811865460184 
	0 500 1 
	0 
	plane 6242.624231687979773 2851.192524306838095 14000.00000000000182 0.9552945000950084919 -0.2956559116409281929 5.197112581643634378e-15 5.440325031837571705e-15 0 -1 forward_v I I I I 
	} 0 0 #
tcoedge-coedge $-1 -1 $-1 $22 $21 $14 $19 forward $12 $26 1.536192566191403537e-30 6.283185307179586232 #
tedge-edge $-1 -1 $-1 $27 1.536192566191403537e-30 $27 6.283185307179586232 $18 $28 forward @7 unknown 0.000768186192213184192 #
pcurve $-1 -1 $-1 0 forward { exppc nurbs 2 periodic 5 
	-6.283185307179586232 2 -4.712388980384689674 2 -3.141592653589793116 2 -1.570796326794896558 2 -1.536192566191403537e-30 2 
	0 499.9999999999995453 1 
	500 499.9999999999995453 0.7071067811865445751 
	500 4.54747350886464119e-13 1 
	500 -499.9999999999995453 0.7071067811865453523 
	0 -500 1 
	-500 -500.0000000000004547 0.7071067811865445751 
	-500 -4.54747350886464119e-13 1 
	-500 499.9999999999995453 0.7071067811865453523 
	0 499.9999999999995453 1 
	0 
	plane 5899.607908168603899 2920.761208319757316 14000.00000000001091 -0.9800466386426351928 0.1987676686115533164 5.19711258164362649e-15 -5.302923735182264647e-15 0 -1 reverse_v I I I I 
	} 0 0 #
coedge $-1 -1 $-1 $18 $15 $22 $29 reversed $12 $30 #
coedge $-1 -1 $-1 $15 $18 $21 $29 forward $12 $31 #
pcurve $-1 -1 $-1 0 forward { exppc nubs 1 periodic 2 
	-6.283185307179586232 1 -5.908432948240591465e-32 1 
	1 1 
	0 1 
	7.773065779517983868e-12 
	spline forward { ref 0 } I I I I 
	} 0 0 #
tvertex-vertex $-1 -1 $-1 $16 $32 0.0001356098162933234313 #
ellipse-curve $-1 -1 $-1 6242.624231687979773 2851.192524306838095 14000.00000000000182 0.9552945000950084919 -0.2956559116409281929 5.197112581643634378e-15 147.8279558204640125 477.6472500475043148 -1.881133643405102754e-43 1 I I #
pcurve $-1 -1 $-1 0 forward { exppc nubs 1 periodic 2 
	1.536192566191403537e-30 1 6.283185307179586232 1 
	0 0 
	1 0 
	1.03386938029503812e-12 
	spline forward { ref 0 } I I I I 
	} 0 0 #
tvertex-vertex $-1 -1 $-1 $19 $33 0.0001356054661823664052 #
ellipse-curve $-1 -1 $-1 5899.607908168603899 2920.761208319757316 14000.00000000001091 0.9800466386426351928 -0.1987676686115533164 -5.19711258164362649e-15 99.38383430577665933 490.0233193213176719 -1.793662034335765652e-43 1 I I #
edge $-1 -1 $-1 $27 1.075254356935844632e-09 $24 0.999999981031768459 $22 $34 forward @7 tangent #
pcurve $-1 -1 $-1 -1 $34 0 0 #
pcurve $-1 -1 $-1 1 $34 1 0 #
point $-1 -1 $-1 6390.452187508443785 3328.839774354342353 14000.00000000000182 #
point $-1 -1 $-1 5998.991742474380771 3410.784527641075329 14000.00000000001091 #
intcurve-curve $-1 -1 $-1 forward { parcur full nubs 3 open 2 
	0 3 1 3 
	5998.991758495061731 3410.784606272790825 13999.99989068747345 
	6129.47857362895229 3383.469688479241995 13999.99989068747163 
	6259.965396169578526 3356.154768793735457 13999.99989068746618 
	6390.452211303469994 3328.839851000186627 13999.99989068746436 
	0 
	
	spline forward { ref 0 } I I I I 
	null_surface 
	nubs 1 open 2 
	0 1 1 1 
	0 0 
	0 1 
	
	nullbs 
	I I 
	0 
	0 
	0 
	surf1 } F 1.075254356935844632e-09 F 0.999999981031768459 #
End-of-ACIS-data 