700 0 1 0           
4 LibG 20 ASM 224.0.1.65535 NT 24 Wed Jul 17 15:51:17 2019 
1000 9.999999999999999547e-07 1.000000000000000036e-10 
body $-1 -1 $-1 $1 $-1 $2 #
lump $-1 -1 $-1 $-1 $3 $0 #
transform $-1 -1 1 0 0 0 1 0 0 0 1 0 0 0 1 no_rotate no_reflect no_shear #
shell $-1 -1 $-1 $-1 $-1 $4 $-1 $1 #
face $-1 -1 $-1 $5 $6 $3 $-1 $7 forward single #
face $-1 -1 $-1 $8 $9 $3 $-1 $10 reversed single #
loop $-1 -1 $-1 $-1 $11 $4 #
plane-surface $-1 -1 $-1 3458.360864401467097 3095.583607069172103 14000 0.9949983108038353841 -0.09989174889606440566 5.197112581643631223e-15 5.22323759267993926e-15 0 -1 forward_v I I I I #
face $-1 -1 $-1 $-1 $12 $3 $-1 $13 forward single #
loop $-1 -1 $-1 $-1 $14 $5 #
plane-surface $-1 -1 $-1 3108.36086445717774 3095.58952616123679 14000 0.9999999998569973902 -1.691169161366488208e-05 0 0 0 -1 forward_v I I I I #
tcoedge-coedge $-1 -1 $-1 $11 $11 $15 $16 forward $6 $17 8.124095301991469009e-31 6.283185307179586232 #
loop $-1 -1 $-1 $-1 $18 $8 #
spline-surface $-1 -1 $-1 forward { exactsur full nubs 3 3 periodic open none none 84 2 
	0 3 0.002232142857142857019 1 0.004464285714285714038 1 0.008928571428571428076 1 0.01785714285714285615 1 
	0.0357142857142857123 1 0.05357142857142856845 1 0.0625 1 0.0669642857142857123 1 0.07142857142857142461 1 
	0.08928571428571427382 1 0.1071428571428571369 1 0.125 1 0.1428571428571428492 1 0.1587301587301587213 1 
	0.1746031746031745935 1 0.1825396825396825295 1 0.1904761904761904656 1 0.2023809523809523836 1 0.2142857142857142738 1 
	0.238095238095238082 1 0.2619047619047618625 1 0.2857142857142856984 1 0.3095238095238095344 1 0.3333333333333333148 1 
	0.3348214285714286031 1 0.336309523809523836 1 0.3370535714285714524 1 0.3377976190476190688 1 0.3392857142857143016 1 
	0.3452380952380952328 1 0.3571428571428570953 1 0.3690476190476190133 1 0.375 1 0.3779761904761904656 1 
	0.3794642857142856984 1 0.3809523809523809312 1 0.4047619047619047672 1 0.4166666666666666297 1 0.4285714285714285476 1 
	0.4444444444444444198 1 0.4603174603174602919 1 0.4682539682539682557 1 0.476190476190476164 1 0.4920634920634920362 1 
	0.5079365079365079083 1 0.5238095238095237249 1 0.5357142857142855874 1 0.5476190476190475609 1 0.5595238095238095344 1 
	0.5714285714285713969 1 0.5952380952380951218 1 0.6071428571428569843 1 0.6190476190476189577 1 0.6349206349206348854 1 
	0.650793650793650702 1 0.6666666666666666297 1 0.6785714285714286031 1 0.6904761904761904656 1 0.7023809523809523281 1 
	0.7142857142857141906 1 0.7232142857142855874 1 0.7321428571428569843 1 0.749999999999999889 1 0.7678571428571427937 1 
	0.7857142857142855874 1 0.7976190476190474499 1 0.8095238095238094234 1 0.8333333333333332593 1 0.8571428571428570953 1 
	0.875 1 0.8928571428571427937 1 0.9107142857142856984 1 0.9285714285714286031 1 0.9464285714285713969 1 
	0.9642857142857143016 1 0.9821428571428572063 1 0.9910714285714286031 1 0.9955357142857143016 1 0.9977678571428572063 1 
	0.9988839285714286031 1 0.9994419642857143016 1 0.9997209821428572063 1 1 3 
	0 3 1 3 
	3108.369320329421498 3595.589583450518148 13999.99990417115077 
	3108.369320329418315 3595.589583426179615 14002.33739870522004 
	3108.36931977486347 3595.556797049701345 14007.01238745799674 
	3108.369316448565769 3595.360115289206533 14016.36052731808377 
	3108.369304807075423 3594.671767492228355 14032.71011102518241 
	3108.36925827695859 3591.920480353483072 14065.33210059366138 
	3108.369125637026627 3584.077595893580565 14111.49410905050536 
	3108.368906411606531 3571.114825844367715 14156.48752559752756 
	3108.368708961573702 3559.439526589701018 14187.0726747823428 
	3108.368583840347128 3552.041035018396542 14204.24879944424174 
	3108.368384015183437 3540.225255042617846 14229.69169905841773 
	3108.368039279171626 3519.840922171597867 14266.57468455329035 
	3108.367489400050545 3487.32629791589352 14312.3995166721179 
	3108.366856211697268 3449.885563726855708 14354.29591925879868 
	3108.366173911783335 3409.540799160181905 14390.34980400823042 
	3108.365459762338105 3367.312748146649938 14420.70973019463054 
	3108.364850384713463 3331.279843804241409 14441.51320001203749 
	3108.364343682900198 3301.318232278407322 14455.94151293411778 
	3108.363890231723417 3274.505368712977543 14467.24451779258379 
	3108.36335918981149 3243.104505841575246 14478.23161867683302 
	3108.362544032405367 3194.903710057081298 14491.14850724382995 
	3108.361498732243035 3133.094414889965265 14500.46617232372228 
	3108.36023019177992 3058.084789597742656 14500.46539406258125 
	3108.358975825234666 2983.913264054745923 14489.28610746320373 
	3108.357763644871739 2912.236232839513377 14467.17645711367186 
	3108.356977893763542 2865.77425201904498 14444.80163344225366 
	3108.356568187457469 2841.548039088943369 14430.66277732439266 
	3108.356511596155542 2838.201756283041505 14428.6677426582628 
	3108.356466514117528 2835.536024367999744 14427.05296887485019 
	3108.356421560155468 2832.877865586474854 14425.42575946524994 
	3108.356298469599551 2825.599436752441306 14420.89973152274433 
	3108.356011788358046 2808.647778738203215 14409.8009415603974 
	3108.355587403490517 2783.553612125810105 14391.28070165477038 
	3108.35518761292542 2759.91372464470669 14370.93684248441787 
	3108.354921843405464 2744.198590493411757 14355.79861976796747 
	3108.354792617192288 2736.557355567711511 14348.01317500525874 
	3108.35471983897105 2732.253929159318432 14343.50367267520596 
	3108.354395554405528 2713.07875945268961 14323.03100547616305 
	3108.35398362889282 2688.721326437742846 14292.48658494824849 
	3108.353534654042051 2662.173135026013369 14250.23308008984168 
	3108.353206030677484 2642.741411640339265 14213.46794282276096 
	3108.352905378115338 2624.963620013708351 14171.29384063826728 
	3108.352697978788456 2612.699955909999062 14131.53513122394361 
	3108.352572839247387 2605.300368598886962 14099.1141163428365 
	3108.352475175981908 2599.525472502672528 14066.36468443532067 
	3108.35240511146003 2595.38250793911493 14024.96429913705106 
	3108.352405115689635 2595.382757603934806 13975.03571027751241 
	3108.352482179128856 2599.939569957304684 13929.49525432300106 
	3108.35261293071926 2607.670999174285953 13888.63577975137923 
	3108.352776741255184 2617.357226691414326 13852.48482277626863 
	3108.352985797168003 2629.718844028387139 13817.15928201805946 
	3108.353323246604305 2649.672457054627557 13771.42062412607447 
	3108.353746089410379 2674.675438509206288 13728.11416553426352 
	3108.35424725115945 2704.309470813084772 13687.96450562878817 
	3108.354705971134536 2731.433894507809782 13656.44419975426899 
	3108.355260062474372 2764.197683151899128 13624.48738233910808 
	3108.355920224102192 2803.233489299984285 13593.35754486574479 
	3108.356570413627651 2841.679635089776184 13568.52627970529284 
	3108.357192183402731 2878.445298099328738 13549.09538824442279 
	3108.357772309435404 2912.748545598808505 13534.12884729711004 
	3108.358369730097365 2948.074426577786198 13521.76788048974049 
	3108.35893015386182 2981.212658223639664 13512.88848120375224 
	3108.359447310025189 3011.792449542707345 13506.80597692928495 
	3108.360073841251051 3048.839663027475126 13501.57540338035324 
	3108.360864460282755 3095.589471417120421 13498.9497644592484 
	3108.361813203979182 3151.689302021148251 13502.10040035860584 
	3108.36264592654652 3200.928716265958428 13510.46651558851772 
	3108.363359189561834 3243.10441986661408 13521.76832839869348 
	3108.364155758357811 3290.206066365630249 13538.2483841980993 
	3108.365108196161145 3346.524333444272997 13565.3680032843713 
	3108.366068954244383 3403.334542952321044 13604.10244978287483 
	3108.366856211078357 3449.885518748975301 13645.70390788916484 
	3108.367489404213757 3487.326534249934866 13687.60002815591361 
	3108.368039279694585 3519.840936644231988 13733.42506165813393 
	3108.368498930830356 3547.020290038321946 13782.60228719799488 
	3108.368862572399848 3568.522513274613175 13834.51347549063394 
	3108.369125636348599 3584.077515099224001 13888.50571620630762 
	3108.369258277874451 3591.920515845297359 13934.66769107114669 
	3108.369304807129083 3594.671764377908858 13967.28969806075838 
	3108.369316448658537 3595.360117717616959 13983.63928030539864 
	3108.369319359142992 3595.532211951048339 13991.81890337687037 
	3108.369320086859261 3595.575241034141527 13995.90931742982866 
	3108.369320268779575 3595.585997729096562 13997.95460005119457 
	3108.369320320758106 3595.589071173273624 13999.12334371594807 
	3108.369320329421953 3595.589583453560863 13999.70771735439303 
	3108.369320329421498 3595.589583450518148 13999.99990417115077 
	3241.681793295334501 3594.75399557177343 13999.99990417115077 
	3241.681793781997385 3594.753995523062713 14002.33739870522004 
	3241.680699872287278 3594.721263901342354 14007.01238745799674 
	3241.674151901711866 3594.524909893828408 14016.36052731808377 
	3241.651218891052395 3593.837709989197265 14032.71011102518241 
	3241.559584523648482 3591.091009530100109 14065.33210059366138 
	3241.298346807799135 3583.261201100522158 14111.49410905050536 
	3240.866577741622677 3570.320042882425241 14156.48752559752756 
	3240.477687618449181 3558.6642091902836 14187.0726747823428 
	3240.231254582072779 3551.278052613832642 14204.24879944424174 
	3239.837694896621542 3539.481971931311818 14229.69169905841773 
	3239.158719742954418 3519.131624580830703 14266.57468455329035 
	3238.075707247720402 3486.671209589131195 14312.3995166721179 
	3236.828610843724618 3449.292897743852336 14354.29591925879868 
	3235.484788029318224 3409.015397078640035 14390.34980400823042 
	3234.078230437617094 3366.857750102325099 14420.70973019463054 
	3232.878031099201507 3330.88492071115661 14441.51320001203749 
	3231.880051007866314 3300.973262225275903 14455.94151293411778 
	3230.986956278610251 3274.205101752576411 14467.24451779258379 
	3229.941037026795129 3242.856591474801462 14478.23161867683302 
	3228.335543233063618 3194.736157308847396 14491.14850724382995 
	3226.276759451904582 3133.029912803166553 14500.46617232372228 
	3223.778304269401815 3058.145345547991383 14500.46539406258125 
	3221.307756808640534 2984.097481145118309 14489.28610746320373 
	3218.920307056542242 2912.539951685031156 14467.17645711367186 
	3217.372716538234272 2866.155434184534442 14444.80163344225366 
	3216.565789769423191 2841.969611283349423 14430.66277732439266 
	3216.454327500949603 2838.628907626025466 14428.6677426582628 
	3216.365537375716031 2835.967620024721782 14427.05296887485019 
	3216.276997167248282 2833.313893047624333 14425.42575946524994 
	3216.03456466878697 2826.047598964914869 14420.89973152274433 
	3215.469928517572043 2809.124203330322416 14409.8009415603974 
	3214.634081066591079 2784.071874347121138 14391.28070165477038 
	3213.846669114119777 2760.471400097869719 14370.93684248441787 
	3213.323224308113822 2744.782466528551595 14355.79861976796747 
	3213.06870244241145 2737.1539714772357 14348.01317500525874 
	3212.925366956223115 2732.857719603873193 14343.50367267520596 
	3212.286637196539232 2713.714520969896512 14323.03100547616305 
	3211.475355041320199 2689.397695988614032 14292.48658494824849 
	3210.591068574420206 2662.893766779782709 14250.23308008984168 
	3209.943829977773476 2643.494440368384858 14213.46794282276096 
	3209.351675773317766 2625.746288514037587 14171.29384063826728 
	3208.943183738197604 2613.503071129948239 14131.53513122394361 
	3208.696720062889653 2606.115820347156841 14099.1141163428365 
	3208.504361191113276 2600.350552609885199 14066.36468443532067 
	3208.366371421965596 2596.214495006040124 14024.96429913705106 
	3208.366371482161867 2596.214744668056937 13975.03571027751241 
	3208.518159728429055 2600.763959390395485 13929.49525432300106 
	3208.775684934618766 2608.482498403378031 13888.63577975137923 
	3209.098312681301195 2618.152577064752677 13852.48482277626863 
	3209.510069892111005 2630.49358424646698 13817.15928201805946 
	3210.17468673558642 2650.413930445281949 13771.42062412607447 
	3211.007499604217628 2675.375226164027026 13728.11416553426352 
	3211.994574502457908 2704.959851277905727 13687.96450562878817 
	3212.898038742720473 2732.039052843091667 13656.44419975426899 
	3213.989360941986888 2764.748216287704963 13624.48738233910808 
	3215.289576850285357 2803.718941240826098 13593.35754486574479 
	3216.570168970457416 2842.100988087156111 13568.52627970529284 
	3217.794776461102629 2878.80535441625716 13549.09538824442279 
	3218.937368889910431 2913.051410428939562 13534.12884729711004 
	3220.114021538067846 2948.318395066036373 13521.76788048974049 
	3221.2178071894391 2981.401377665197742 13512.88848120375224 
	3222.236375691356898 3011.930185409080877 13506.80597692928495 
	3223.470362712434962 3048.915632728983383 13501.57540338035324 
	3225.027531369988537 3095.587498373331073 13498.9497644592484 
	3226.896132692717401 3151.593797736446504 13502.10040035860584 
	3228.536227940619938 3200.751118416373629 13510.46651558851772 
	3229.941034314549142 3242.856505635655594 13521.76832839869348 
	3231.509924407636845 3289.879622682866739 13538.2483841980993 
	3233.385795691342082 3346.10399462906571 13565.3680032843713 
	3235.278064874880329 3402.819488221548454 13604.10244978287483 
	3236.828600865752378 3449.292853265633312 13645.70390788916484 
	3238.075713047402132 3486.671445632935502 13687.60002815591361 
	3239.158716025214289 3519.131639239673405 13733.42506165813393 
	3240.064022961167666 3546.265678269445743 13782.60228719799488 
	3240.780229890430746 3567.732052380611549 13834.51347549063394 
	3241.298343532656418 3583.261120470149308 13888.50571620630762 
	3241.559586414163732 3591.091044927283747 13934.66769107114669 
	3241.651217891578654 3593.837706924933627 13967.28969806075838 
	3241.674152554198827 3594.52491228956751 13983.63928030539864 
	3241.679880815341221 3594.696719799891071 13991.81890337687037 
	3241.68131612603247 3594.739677039683556 13995.90931742982866 
	3241.681673554104236 3594.750415843904193 13997.95460005119457 
	3241.681776005288611 3594.753484159973141 13999.12334371594807 
	3241.681793234501583 3594.753995577862497 13999.70771735439303 
	3241.681793295334501 3594.75399557177343 13999.99990417115077 
	3374.994271639256567 3593.918407423843291 13999.99990417114168 
	3374.994271150156237 3593.91840742399836 14002.33739870521094 
	3374.992089416741692 3593.885730280021562 14007.012387457984 
	3374.97898717590715 3593.689704507553415 14016.36052731806922 
	3374.933148279406851 3593.003651719869595 14032.7101110251715 
	3374.749905231438333 3590.261538984234903 14065.33210059365047 
	3374.227570858618947 3582.444806163345675 14111.4941090504999 
	3373.364246925345924 3569.525260028064167 14156.48752559752029 
	3372.5866735359009 3557.888891427351155 14187.07267478234098 
	3372.093933188472874 3550.515069815498919 14204.2487994442381 
	3371.306994121899606 3538.738689403829994 14229.69169905841409 
	3369.949397876204785 3518.422327106849934 14266.57468455328672 
	3367.783917808406386 3486.016121627362736 14312.39951667211426 
	3365.290360603185491 3448.700232004917325 14354.29591925879686 
	3362.603392024017012 3408.489995504088256 14390.34980400822678 
	3359.791001595764556 3366.402752033851357 14420.70973019463054 
	3357.391201723210997 3330.489998123430723 14441.51320001203749 
	3355.395757336963015 3300.628292222047094 14455.94151293411778 
	3353.610014779896119 3273.90483517008397 14467.24451779258379 
	3351.518715880075888 3242.608677057159639 14478.23161867683302 
	3348.308532726199701 3194.568605046786615 14491.14850724382995 
	3344.192032613606898 3132.965410093299397 14500.46617232372228 
	3339.196376599274572 3058.205901585784886 14500.46539406258125 
	3334.256546287064339 2984.281697810080004 14489.28610746320373 
	3329.482839853488258 2912.843671062142676 14467.17645711367186 
	3326.388476098269166 2866.536615302592963 14444.80163344225366 
	3324.774994381647502 2842.391184327602332 14430.66277732439266 
	3324.552134016990294 2839.056059439205001 14428.6677426582628 
	3324.374594437063934 2836.399216372564752 14427.05296887485019 
	3324.197561562001738 2833.749921070293112 14425.42575946524994 
	3323.712815984344161 2826.49576192276345 14420.89973152274433 
	3322.583834688315164 2809.600628451214561 14409.8009415603974 
	3320.912557564008239 2784.590137428091111 14391.28070165477038 
	3319.338140021304298 2761.029076081585572 14370.93684248441787 
	3318.291506823039072 2745.366343562777274 14355.79861976796747 
	3317.782603141959953 2737.750587843778703 14348.01317500525874 
	3317.495989059685144 2733.461511301116388 14343.50367267520596 
	3316.218953297147436 2714.350278758262903 14323.03100547616305 
	3314.596716943905903 2690.074066015742574 14292.48658494824849 
	3312.828609165406306 2663.614398199498737 14250.23308008984168 
	3311.534450305299288 2644.247469277704113 14213.46794282276096 
	3310.350449159813707 2626.528956864571228 14171.29384063826728 
	3309.53369494021581 2614.306185075748544 14131.53513122394361 
	3309.040875758259062 2606.931271671173363 14099.1141163428365 
	3308.656272495939902 2601.175631450607398 14066.36468443532067 
	3308.380344224655801 2597.046481747845974 14024.96429913705106 
	3308.380369108152081 2597.046730166723137 13975.03571027751241 
	3308.683845880793342 2601.588348392655917 13929.49525432300106 
	3309.198757412299528 2609.293997608751397 13888.63577975137923 
	3309.843867683227018 2618.947926483487663 13852.48482277626863 
	3310.667143103533817 2631.268325009596992 13817.15928201805764 
	3311.996065011853261 2651.155403095403926 13771.42062412607447 
	3313.661266531594265 2676.075013147161371 13728.11416553425988 
	3315.634888109338135 2705.610232426043694 13687.96450562878817 
	3317.441388710190495 2732.644210317221678 13656.44419975426899 
	3319.623452751105106 2765.298749877763839 13624.48738233910808 
	3322.223251950806116 2804.204392256493065 13593.35754486574479 
	3324.783762762131119 2842.522341323186993 13568.52627970529284 
	3327.232363419355806 2879.165410598958715 13549.09538824442279 
	3329.516962502700153 2913.354275407705245 13534.12884729711004 
	3331.869671308253601 2948.562363656354137 13521.76788048974049 
	3334.076681995760282 2981.590097218413575 13512.88848120375224 
	3336.113299486346477 3012.067921505155027 13506.80597692928495 
	3338.580649943921344 3048.991602512625832 13501.57540338035324 
	3341.694192027362078 3095.585525642678476 13498.9497644592484 
	3345.430449641610267 3151.498293578965786 13502.10040035860584 
	3348.709798321298877 3200.573521149414773 13510.46651558851772 
	3351.518710005108005 3242.608591376408185 13521.76832839869348 
	3354.655682326438637 3289.553179537517281 13538.2483841980993 
	3358.406493675269758 3345.683655288625687 13565.3680032843713 
	3362.190056434892995 3402.304433709201021 13604.10244978287483 
	3365.290366087767325 3448.700186752340414 13645.70390788916484 
	3367.78393562087922 3486.016357069571768 13687.60002815591361 
	3369.949403040448942 3518.422341320887881 13733.42506165813393 
	3371.759548902741699 3545.511066404944813 13782.60228719799488 
	3373.191600302217466 3566.941591331779364 13834.51347549063212 
	3374.227566063091672 3582.444725609115721 13888.50571620630762 
	3374.749906887498582 3590.261574393162391 13934.66769107114123 
	3374.933148967946636 3593.003648571070244 13967.28969806075656 
	3374.978986766143862 3593.689706956490681 13983.63928030539137 
	3374.990452209520299 3593.86122715118654 13991.81890337686855 
	3374.993315876932684 3593.904112859486759 13995.90931742982502 
	3374.994033135858899 3593.914833643532802 13997.95460005119094 
	3374.994237748369414 3593.917896843406197 13999.12334371593715 
	3374.994271700394165 3593.918407423824192 13999.70771735438211 
	3374.994271639256567 3593.918407423843291 13999.99990417114168 
	3508.306744605170024 3593.082819545098573 13999.99990417114168 
	3508.306744602735762 3593.082819520881458 14002.33739870521094 
	3508.303469514165954 3593.050197131662571 14007.012387457984 
	3508.283822629053702 3592.854499112175745 14016.36052731806922 
	3508.215062363384732 3592.169594216838505 14032.7101110251715 
	3507.94023147812868 3589.432068160851941 14065.33210059365047 
	3507.156792029391909 3581.628411370287267 14111.4941090504999 
	3505.86191825536298 3568.730477066121693 14156.48752559752029 
	3504.695652192776834 3557.113574027933737 14187.07267478234098 
	3503.956603930199435 3549.752087410935019 14204.2487994442381 
	3502.776305003338166 3537.995406292523967 14229.69169905841409 
	3500.740078339988031 3517.71302951608277 14266.57468455328672 
	3497.492135656076698 3485.361033300600411 14312.39951667211426 
	3493.752115235213751 3448.107566021913954 14354.29591925879686 
	3489.722006141552356 3407.964593422546386 14390.34980400822678 
	3485.503772271044454 3365.947753989526518 14420.70973019463054 
	3481.904382437699951 3330.095075030345924 14441.51320001203749 
	3478.91146466193004 3300.283322168915674 14455.94151293411778 
	3476.233080826783407 3273.604568209682839 14467.24451779258379 
	3473.096393717059982 3242.360762690385855 14478.23161867683302 
	3468.281531926858406 3194.401052298552713 14491.14850724382995 
	3462.107293333269354 3132.900908006500686 14500.46617232372228 
	3454.614450676896922 3058.266457536033613 14500.46539406258125 
	3447.205327270471116 2984.46591490045239 14489.28610746320373 
	3440.045383265159217 2913.147389907660454 14467.17645711367186 
	3435.404214742740351 2866.917797468082426 14444.80163344225366 
	3432.984215963613678 2842.812756522008385 14430.66277732439266 
	3432.64994992178481 2839.483210782188962 14428.6677426582628 
	3432.383665298662891 2836.83081202928679 14427.05296887485019 
	3432.118137169095007 2834.185948531442591 14425.42575946524994 
	3431.391082183532035 2826.943924135237012 14420.89973152274433 
	3429.697751417530071 2810.077053043333763 14409.8009415603974 
	3427.191051227109256 2785.108399649402145 14391.28070165477038 
	3424.82962152249911 2761.586751534748146 14370.93684248441787 
	3423.259809287747885 2745.950219597917112 14355.79861976796747 
	3422.496512967180024 2738.347203753302892 14348.01317500525874 
	3422.066636176938118 2734.065301745670695 14343.50367267520596 
	3420.151194939281595 2714.98604027546935 14323.03100547616305 
	3417.718088356334192 2690.75043556661376 14292.48658494824849 
	3415.066143085784915 2664.335029953268076 14250.23308008984168 
	3413.125074252396189 2645.000498005749705 14213.46794282276096 
	3411.349219555016589 2627.31162536490001 14171.29384063826728 
	3410.124180699625413 2615.109300295697722 14131.53513122394361 
	3409.385022981902239 2607.746723419443242 14099.1141163428365 
	3408.808158511071724 2602.000711557820068 14066.36468443532067 
	3408.394310535162276 2597.878468814770713 14024.96429913705106 
	3408.394335474625223 2597.878717230845268 13975.03571027751241 
	3408.849523430093996 2602.412737825746717 13929.49525432300106 
	3409.621829416199489 2610.105496837843475 13888.63577975137923 
	3410.589403623273483 2619.74327685682556 13852.48482277626863 
	3411.824227198477274 2632.043065227676379 13817.15928201805764 
	3413.817428500835831 2651.896876486058318 13771.42062412607447 
	3416.315020046402424 2676.77480080198211 13728.11416553425988 
	3419.275215360637503 2706.26061289086465 13687.96450562878817 
	3421.984721481777342 2733.249368652503563 13656.44419975426899 
	3425.257553630618077 2765.84928301356922 13624.48738233910808 
	3429.156908576989736 2804.689844197334878 13593.35754486574479 
	3432.997361318961339 2842.943694320566919 13568.52627970529284 
	3436.669947697056614 2879.525466915887137 13549.09538824442279 
	3440.096559083175634 2913.657140237836302 13534.12884729711004 
	3443.62532311622499 2948.806332144604312 13521.76788048974049 
	3446.935559031338016 2981.778816659971199 13512.88848120375224 
	3449.990227867678641 3012.205657371528559 13506.80597692928495 
	3453.69093881510571 3049.067572214134088 13501.57540338035324 
	3458.36085893706877 3095.583552598889128 13498.9497644592484 
	3463.964769130349396 3151.402789294264039 13502.10040035860584 
	3468.883380335372749 3200.395923299829974 13510.46651558851772 
	3473.096385130095769 3242.360677145449699 13521.76832839869348 
	3477.801450975718126 3289.22673585475377 13538.2483841980993 
	3483.427181170451149 3345.263316473418399 13565.3680032843713 
	3489.102052355529395 3401.789378978428886 13604.10244978287483 
	3493.752110742441801 3448.107521268998426 13645.70390788916484 
	3497.492159264068505 3485.361268452572403 13687.60002815591361 
	3500.740079785969101 3517.713043916329752 13733.42506165813393 
	3503.455072933079919 3544.756454636068611 13782.60228719799488 
	3505.602967620248364 3566.151130437777738 13834.51347549063212 
	3507.1567839594004 3581.628330980041028 13888.50571620630762 
	3507.940235023787864 3589.432103475149233 13934.66769107114123 
	3508.21506205239757 3592.169591118095013 13967.28969806075656 
	3508.283822871684606 3592.854501528441233 13983.63928030539137 
	3508.301013665719438 3593.025735000029272 13991.81890337686855 
	3508.305311916106348 3593.068548865028788 13995.90931742982502 
	3508.306386421184015 3593.079251758340888 13997.95460005119094 
	3508.306693432900374 3593.082309830105714 13999.12334371593715 
	3508.30674460547425 3593.082819548125826 13999.70771735438211 
	3508.306744605170024 3593.082819545098573 13999.99990417114168 
	0 
	
	0 
	0 
	83 0 0.002232142857142857019 0.004464285714285714038 0.008928571428571428076 0.01785714285714285615 0.0357142857142857123 0.05357142857142856845 0.0625 0.0669642857142857123 0.07142857142857142461 0.08928571428571427382 0.1071428571428571369 0.125 0.1428571428571428492 0.1587301587301587213 0.1746031746031745935 0.1825396825396825295 0.1904761904761904656 0.2023809523809523836 0.2142857142857142738 0.238095238095238082 0.2619047619047618625 0.2857142857142856984 0.3095238095238095344 0.3333333333333333148 0.3348214285714286031 0.336309523809523836 0.3370535714285714524 0.3377976190476190688 0.3392857142857143016 0.3452380952380952328 0.3571428571428570953 0.3690476190476190133 0.375 0.3779761904761904656 0.3794642857142856984 0.3809523809523809312 0.4047619047619047672 0.4166666666666666297 0.4285714285714285476 0.4444444444444444198 0.4603174603174602919 0.4682539682539682557 0.476190476190476164 0.4920634920634920362 0.5079365079365079083 0.5238095238095237249 0.5357142857142855874 0.5476190476190475609 0.5595238095238095344 0.5714285714285713969 0.5952380952380951218 0.6071428571428569843 0.6190476190476189577 0.6349206349206348854 0.650793650793650702 0.6666666666666666297 0.6785714285714286031 0.6904761904761904656 0.7023809523809523281 0.7142857142857141906 0.7232142857142855874 0.7321428571428569843 0.749999999999999889 0.7678571428571427937 0.7857142857142855874 0.7976190476190474499 0.8095238095238094234 0.8333333333333332593 0.8571428571428570953 0.875 0.8928571428571427937 0.9107142857142856984 0.9285714285714286031 0.9464285714285713969 0.9642857142857143016 0.9821428571428572063 0.9910714285714286031 0.9955357142857143016 0.9977678571428572063 0.9988839285714286031 0.9994419642857143016 0.9997209821428572063 
	0 
	0 
	0 
	F 1 F 0 F 1 F 0 } I I I I #
tcoedge-coedge $-1 -1 $-1 $14 $14 $18 $19 reversed $9 $20 -6.283185307179586232 -0 #
tcoedge-coedge $-1 -1 $-1 $21 $22 $11 $16 reversed $12 $23 -6.283185307179586232 -8.124095301991469009e-31 #
tedge-edge $-1 -1 $-1 $24 8.124095301991469009e-31 $24 6.283185307179586232 $15 $25 forward @7 unknown 0.00065442741004300396 #
pcurve $-1 -1 $-1 0 forward { exppc nurbs 2 periodic 5 
	8.124095301991469009e-31 2 1.570796326794896558 2 3.141592653589793116 2 4.712388980384689674 2 6.283185307179586232 2 
	0 500 1 
	-500 500.0000000000004547 0.7071067811865454633 
	-500 9.094947017729282379e-13 1 
	-500 -499.9999999999990905 0.7071067811865463515 
	0 -499.9999999999995453 1 
	500 -500 0.7071067811865454633 
	500 -4.54747350886464119e-13 1 
	500 499.9999999999990905 0.7071067811865463515 
	0 500 1 
	0 
	plane 3458.360864401467097 3095.583607069172103 14000 0.9949983108038353841 -0.09989174889606440566 5.197112581643631223e-15 5.22323759267993926e-15 0 -1 forward_v I I I I 
	} 0 0 #
tcoedge-coedge $-1 -1 $-1 $22 $21 $14 $19 forward $12 $26 0 6.283185307179586232 #
tedge-edge $-1 -1 $-1 $27 0 $27 6.283185307179586232 $18 $28 forward @7 unknown 0.0006544270364193060076 #
pcurve $-1 -1 $-1 0 forward { exppc nurbs 2 periodic 5 
	-6.283185307179586232 2 -4.712388980384689674 2 -3.141592653589793116 2 -1.570796326794896558 2 0 2 
	0 500 1 
	500 500 0.7071067811865451302 
	500 0 1 
	500 -500 0.7071067811865451302 
	0 -500 1 
	-500 -500 0.7071067811865451302 
	-500 0 1 
	-500 500 0.7071067811865451302 
	0 500 1 
	0 
	plane 3108.36086445717774 3095.58952616123679 14000 -0.9999999998569973902 1.691169161366488208e-05 -0 0 0 -1 reverse_v I I I I 
	} 0 0 #
coedge $-1 -1 $-1 $18 $15 $22 $29 reversed $12 $30 #
coedge $-1 -1 $-1 $15 $18 $21 $29 forward $12 $31 #
pcurve $-1 -1 $-1 0 forward { exppc nubs 1 periodic 2 
	-6.283185307179586232 1 -8.124095301991469009e-31 1 
	1 1 
	0 1 
	0 
	spline forward { ref 0 } I I I I 
	} 0 0 #
tvertex-vertex $-1 -1 $-1 $16 $32 0.0001116859103319228248 #
ellipse-curve $-1 -1 $-1 3458.360864401467097 3095.583607069172103 14000 0.9949983108038353841 -0.09989174889606440566 5.197112581643631223e-15 49.94587444803220677 497.499155401917676 0 1 I I #
pcurve $-1 -1 $-1 0 forward { exppc nubs 1 periodic 2 
	0 1 6.283185307179586232 1 
	0 0 
	1 0 
	2.726468183204845845e-13 
	spline forward { ref 0 } I I I I 
	} 0 0 #
tvertex-vertex $-1 -1 $-1 $19 $33 0.0001116845139780604671 #
ellipse-curve $-1 -1 $-1 3108.36086445717774 3095.58952616123679 14000 0.9999999998569973902 -1.691169161366488208e-05 0 0.008455845806832441164 499.9999999284987666 0 1 I I #
edge $-1 -1 $-1 $27 8.328333763335575756e-10 $24 0.9999999865035756885 $22 $34 forward @7 tangent #
pcurve $-1 -1 $-1 -1 $34 0 0 #
pcurve $-1 -1 $-1 1 $34 1 0 #
point $-1 -1 $-1 3508.306738849499197 3593.082762471089609 14000 #
point $-1 -1 $-1 3108.369320302984761 3595.5895260897355 14000 #
intcurve-curve $-1 -1 $-1 forward { parcur full nubs 3 open 2 
	0 3 1 3 
	3108.369320329421498 3595.589583450518148 13999.99990417115077 
	3241.681793295334501 3594.75399557177343 13999.99990417115077 
	3374.994271639256567 3593.918407423843291 13999.99990417114168 
	3508.306744605170024 3593.082819545098573 13999.99990417114168 
	0 
	
	spline forward { ref 0 } I I I I 
	null_surface 
	nubs 1 open 2 
	0 1 1 1 
	0 0 
	0 1 
	
	nullbs 
	I I 
	0 
	0 
	0 
	surf1 } F 8.328333763335575756e-10 F 0.9999999865035756885 #
End-of-ACIS-data 