700 0 1 0           
4 LibG 20 ASM 224.0.1.65535 NT 24 Wed Jul 17 15:51:17 2019 
1000 9.999999999999999547e-07 1.000000000000000036e-10 
body $-1 -1 $-1 $1 $-1 $2 #
lump $-1 -1 $-1 $-1 $3 $0 #
transform $-1 -1 1 0 0 0 1 0 0 0 1 0 0 0 1 no_rotate no_reflect no_shear #
shell $-1 -1 $-1 $-1 $-1 $4 $-1 $1 #
face $-1 -1 $-1 $5 $6 $3 $-1 $7 forward single #
face $-1 -1 $-1 $8 $9 $3 $-1 $10 reversed single #
loop $-1 -1 $-1 $-1 $11 $4 #
plane-surface $-1 -1 $-1 9057.765165256560067 927.5101070065362592 14000.00000000000364 0.539937016348183918 -0.841705422566007333 -2.078845032657451858e-14 -3.850162092455775282e-14 0 -1 forward_v I I I I #
face $-1 -1 $-1 $-1 $12 $3 $-1 $13 forward single #
loop $-1 -1 $-1 $-1 $14 $5 #
plane-surface $-1 -1 $-1 8868.787209537751551 1222.107004899874937 14000.00000000000182 0.539937016348183918 -0.841705422566007333 5.197112581643629645e-15 9.625405231139438206e-15 0 -1 forward_v I I I I #
tcoedge-coedge $-1 -1 $-1 $11 $11 $15 $16 forward $6 $17 -1.829250840360596284e-28 6.283185307179586232 #
loop $-1 -1 $-1 $-1 $18 $8 #
spline-surface $-1 -1 $-1 forward { exactsur full nubs 3 3 periodic open none none 85 2 
	0 3 0.002232142857142857019 1 0.004464285714285714038 1 0.008928571428571428076 1 0.01785714285714285615 1 
	0.0357142857142857123 1 0.05357142857142856845 1 0.0625 1 0.07142857142857142461 1 0.08928571428571427382 1 
	0.1071428571428571369 1 0.125 1 0.1428571428571428492 1 0.1587301587301587213 1 0.1746031746031745935 1 
	0.1904761904761904656 1 0.2023809523809523836 1 0.2142857142857142738 1 0.238095238095238082 1 0.2619047619047618625 1 
	0.2857142857142856984 1 0.3095238095238095344 1 0.3214285714285713969 1 0.3333333333333333148 1 0.3392857142857143016 1 
	0.3452380952380952328 1 0.3571428571428570953 1 0.3630952380952380265 1 0.3690476190476190133 1 0.375 1 
	0.3779761904761904656 1 0.3809523809523809312 1 0.4047619047619047672 1 0.4077380952380952328 1 0.4107142857142856984 1 
	0.4166666666666666297 1 0.4285714285714285476 1 0.4444444444444444198 1 0.4484126984126983739 1 0.4523809523809523281 1 
	0.4603174603174602919 1 0.4682539682539682557 1 0.476190476190476164 1 0.4920634920634920362 1 0.5079365079365079083 1 
	0.5238095238095237249 1 0.5476190476190475609 1 0.5595238095238095344 1 0.5714285714285713969 1 0.5833333333333332593 1 
	0.5952380952380951218 1 0.6071428571428569843 1 0.6190476190476189577 1 0.6349206349206348854 1 0.650793650793650702 1 
	0.6587301587301586103 1 0.6666666666666666297 1 0.6785714285714286031 1 0.6904761904761904656 1 0.7023809523809523281 1 
	0.7142857142857141906 1 0.7232142857142855874 1 0.7321428571428569843 1 0.7410714285714283811 1 0.749999999999999889 1 
	0.7678571428571427937 1 0.7857142857142855874 1 0.7976190476190474499 1 0.8095238095238094234 1 0.8333333333333332593 1 
	0.8571428571428570953 1 0.875 1 0.8928571428571427937 1 0.9107142857142856984 1 0.9285714285714286031 1 
	0.9464285714285713969 1 0.9642857142857143016 1 0.9821428571428572063 1 0.9910714285714286031 1 0.9955357142857143016 1 
	0.9977678571428572063 1 0.9988839285714286031 1 0.9994419642857143016 1 0.9997209821428572063 1 1 3 
	0 3 1 3 
	9289.639957551975385 1492.07553664287866 13999.99989843261028 
	9289.639957530705942 1492.075536629236012 14002.33739296511521 
	9289.612360997673022 1492.057834011042814 14007.01238166251278 
	9289.446813043130533 1491.951638344179401 14016.36052162140368 
	9288.867426000950218 1491.579973266879506 14032.71010460102843 
	9286.551657015368619 1490.094454267775973 14065.33209719699335 
	9279.950238289231493 1485.8597775794683 14111.49409100823505 
	9269.039438454945412 1478.860720009931583 14156.48753194477104 
	9257.808343841015812 1471.656199813439116 14191.44195146223501 
	9244.945911180993789 1463.405209232402512 14225.59357230167916 
	9225.881955878046938 1451.176067218257913 14266.57472996993965 
	9198.514154285499899 1433.620175643691027 14312.39947794016916 
	9167.00018146104776 1413.40459902447401 14354.29602122710457 
	9133.041810283695668 1391.620990267736033 14390.34994529026335 
	9097.498136958383839 1368.820442224159024 14420.70976490946305 
	9061.103259667434031 1345.473864041299748 14445.67394099905687 
	9025.989261882234132 1322.948944172691654 14464.49779687125556 
	8992.951334823947036 1301.75578171457073 14478.23143744920162 
	8952.380554064302487 1275.730445858213443 14491.14870659079861 
	8900.355263936879055 1242.357273756637596 14500.46617489948221 
	8837.219348946247919 1201.85686036887364 14500.46540922751228 
	8774.788620523679128 1161.808809911652816 14489.28637001667448 
	8724.51313068579293 1129.558099329482729 14470.86112111275906 
	8686.015863036705923 1104.862880224559376 14450.90446207346213 
	8662.806411925952489 1089.974486437497262 14436.33154784697945 
	8644.827920922041812 1078.441647832851004 14423.46087159988383 
	8627.266920435073189 1067.176620956668103 14409.80086396475235 
	8610.369426650138848 1056.3372202192852 14394.9846340960903 
	8594.206296803711666 1045.96889910578102 14379.07435089495812 
	8582.46794590387799 1038.438984254585648 14366.61152664815381 
	8573.019663159275296 1032.378101838990005 14355.79857054693275 
	8565.66925606514269 1027.662964251716858 14346.9008495022008 
	8547.646056288594991 1016.101445873070588 14324.25267752707077 
	8531.244268879143419 1005.58003075651709 14299.81751727847768 
	8516.669673149017399 996.2307221717876473 14273.9019695922816 
	8511.003804263800703 992.5961817982934008 14263.40823082500356 
	8501.524840277508702 986.5156179862748331 14244.71846908752195 
	8487.622529530421161 977.5975666301737874 14213.46793772245474 
	8476.739998456796457 970.6166428999733853 14182.7958721335217 
	8469.808191442485622 966.1700288033216566 14159.25988414422682 
	8465.517562055028975 963.4176767718256542 14143.43727577177924 
	8460.779425098517095 960.3782576796326111 14123.42991460390476 
	8456.108083844983412 957.3816866808516579 14099.1141952514372 
	8451.24744608248875 954.263685797561493 14066.36475529638483 
	8447.760098825938258 952.0266230174123621 14024.96430056830468 
	8447.76049059966499 952.0268743323440503 13975.03583127056481 
	8452.640984101319191 955.1576122709969923 13917.07492172597631 
	8462.787322229789424 961.6662831065233377 13864.25992767188654 
	8476.661144332523691 970.5660595730546447 13817.15916035728515 
	8489.257981532500708 978.6466760344055729 13782.85569874243265 
	8503.977971392678228 988.0892520149255915 13749.76678903055836 
	8520.73780380847893 998.8403457663622476 13718.07718369657778 
	8539.444246196133463 1010.840150470613025 13687.9642845883227 
	8562.275466496674198 1025.48591683754853 13656.44430430803914 
	8589.852670173504521 1043.176135616405872 13624.48722009244011 
	8617.233393587330283 1060.740316277710463 13598.54593158108037 
	8640.360460632882678 1075.575862352013701 13579.81305548902128 
	8661.259054790791197 1088.981888109946794 13564.64029121723979 
	8686.015644654833523 1104.862740137057472 13549.09536037994076 
	8714.888926886746049 1123.384367113124426 13534.12892768687561 
	8744.622893670040867 1142.458105833118225 13521.76788699777535 
	8772.515542029492281 1160.350676000230578 13512.88855391979996 
	8798.254707924970717 1176.861830692049807 13506.80594930172811 
	8821.641862805834535 1191.864217855943934 13502.88322315832738 
	8845.177356166048412 1206.96176115618141 13500.52481656976124 
	8876.657072796906505 1227.155363118949936 13499.47511775926614 
	8916.006642186765021 1252.397316564308994 13502.10030135483612 
	8957.451772509268267 1278.983529993291313 13510.46652327519223 
	8992.95125215047301 1301.755728681355777 13521.76839736864531 
	9032.596973270961826 1327.187657476085178 13538.24840783288346 
	9080.000375928231733 1357.595982181467434 13565.36800071805374 
	9127.817834134863006 1388.269915153204465 13604.10246189802638 
	9167.000047187895689 1413.404512891114109 13645.70391100764573 
	9198.514354587727212 1433.620304133564559 13687.60003189202507 
	9225.881905589272719 1451.17603495908952 13733.42506229626269 
	9248.758916207454604 1465.851174889859067 13782.60228668834134 
	9266.857455562589166 1477.461022086094772 13834.51347308901131 
	9279.95018599218929 1485.859744032078652 13888.5057125233925 
	9286.551683197270904 1490.0944710629974 13934.66768587842125 
	9288.867424213434788 1491.579972120245429 13967.2896924751476 
	9289.4468149941913 1491.951639595755296 13983.63927460152809 
	9289.591667649314331 1492.04455964632939 13991.81889764758307 
	9289.627885462135964 1492.067792641240203 13995.90931169329269 
	9289.636939430840357 1492.073600579170716 13997.9545943133071 
	9289.639526364786434 1492.075260045011873 13999.12333797717656 
	9289.639957554634748 1492.07553664458419 13999.70771161604716 
	9289.639957551975385 1492.07553664287866 13999.99989843261028 
	9352.632609458247316 1393.876570678433609 13999.99989843261028 
	9352.632609436977873 1393.876570664790961 14002.33739296511521 
	9352.605012903944953 1393.858868046597763 14007.01238166251278 
	9352.439464949402463 1393.752672379734349 14016.36052162140368 
	9351.860077907222148 1393.381007302434682 14032.71010460102843 
	9349.54430892164055 1391.895488303331149 14065.33209719699335 
	9342.942890195503423 1387.660811615023476 14111.49409100823505 
	9332.032090361217342 1380.661754045486759 14156.48753194477104 
	9320.800995747285924 1373.457233848994292 14191.44195146223501 
	9307.93856308726572 1365.206243267957689 14225.59357230167916 
	9288.87460778431705 1352.977101253813089 14266.57472996993965 
	9261.50680619177183 1335.421209679246431 14312.39947794016916 
	9229.99283336731969 1315.205633060028958 14354.29602122710457 
	9196.03446218996578 1293.422024303291209 14390.34994529026335 
	9160.490788864655769 1270.6214762597142 14420.70976490946305 
	9124.095911573705962 1247.274898076854697 14445.67394099905687 
	9088.981913788506063 1224.749978208246603 14464.49779687125556 
	9055.943986730218967 1203.556815750125452 14478.23143744920162 
	9015.373205970574418 1177.531479893768392 14491.14870659079861 
	8963.347915843150986 1144.158307792192318 14500.46617489948221 
	8900.21200085251985 1103.657894404428134 14500.46540922751228 
	8837.781272429951059 1063.609843947207082 14489.28637001667448 
	8787.505782592064861 1031.359133365036769 14470.86112111275906 
	8749.008514942977854 1006.663914260113529 14450.90446207346213 
	8725.799063832224419 991.7755204730510741 14436.33154784697945 
	8707.820572828313743 980.2426818684049294 14423.46087159988383 
	8690.25957234134512 968.977654992221801 14409.80086396475235 
	8673.362078556410779 958.138254254839012 14394.9846340960903 
	8657.198948709983597 947.7699331413347181 14379.07435089495812 
	8645.46059781014992 940.2400182901392327 14366.61152664815381 
	8636.012315065547227 934.17913587454359 14355.79857054693275 
	8628.661907971414621 929.4639982872703285 14346.9008495022008 
	8610.638708194866922 917.9024799086241728 14324.25267752707077 
	8594.23692078541535 907.3810647920702195 14299.81751727847768 
	8579.66232505528933 898.0317562073410045 14273.9019695922816 
	8573.996456170072634 894.3972158338466443 14263.40823082500356 
	8564.517492183780632 888.3166520218280766 14244.71846908752195 
	8550.615181436693092 879.3986006657269172 14213.46793772245474 
	8539.732650363068387 872.4176769355265151 14182.7958721335217 
	8532.800843348757553 867.9710628388746727 14159.25988414422682 
	8528.510213961300906 865.2187108073786703 14143.43727577177924 
	8523.772077004789026 862.1792917151856273 14123.42991460390476 
	8519.100735751255343 859.182720716404333 14099.1141952514372 
	8514.240097988760681 856.0647198331145091 14066.36475529638483 
	8510.752750732210188 853.8276570529649234 14024.96430056830468 
	8510.753142505936921 853.8279083678969528 13975.03583127056481 
	8515.633636007591122 856.9586463065494399 13917.07492172597631 
	8525.779974136061355 863.467317142075899 13864.25992767188654 
	8539.653796238795621 872.3670936086070924 13817.15916035728515 
	8552.250633438772638 880.4477100699582479 13782.85569874243265 
	8566.970623298950159 889.8902860504779255 13749.76678903055836 
	8583.73045571475086 900.6413798019150363 13718.07718369657778 
	8602.436898102405394 912.6411845061652457 13687.9642845883227 
	8625.268118402946129 927.2869508731013184 13656.44430430803914 
	8652.845322079776452 944.9771696519582065 13624.48722009244011 
	8680.226045493602214 962.5413503132632513 13598.54593158108037 
	8703.353112539154608 977.3768963875662621 13579.81305548902128 
	8724.251706697063128 990.7829221454994695 13564.64029121723979 
	8749.008296561105453 1006.663774172610033 13549.09536037994076 
	8777.881578793017979 1025.185401148677329 13534.12892768687561 
	8807.615545576312797 1044.2591398686709 13521.76788699777535 
	8835.508193935764211 1062.151710035783708 13512.88855391979996 
	8861.247359831242647 1078.66286472760271 13506.80594930172811 
	8884.634514712106466 1093.665251891496837 13502.88322315832738 
	8908.170008072320343 1108.76279519173454 13500.52481656976124 
	8939.649724703178435 1128.956397154502838 13499.47511775926614 
	8978.999294093036951 1154.198350599862351 13502.10030135483612 
	9020.444424415540198 1180.78456402884467 13510.46652327519223 
	9055.943904056744941 1203.556762716909361 13521.76839736864531 
	9095.589625177233756 1228.988691511638535 13538.24840783288346 
	9142.993027834503664 1259.397016217021473 13565.36800071805374 
	9190.810486041134936 1290.07094918875805 13604.10246189802638 
	9229.992699094167619 1315.205546926668603 13645.70391100764573 
	9261.507006493999143 1335.421338169118599 13687.60003189202507 
	9288.87455749554465 1352.977068994644014 13733.42506229626269 
	9311.751568113726535 1367.652208925413561 13782.60228668834134 
	9329.850107468861097 1379.262056121649493 13834.51347308901131 
	9342.942837898461221 1387.660778067633373 13888.5057125233925 
	9349.544335103542835 1391.895505098552576 13934.66768587842125 
	9351.860076119706719 1393.381006155800151 13967.2896924751476 
	9352.439466900463231 1393.752673631310472 13983.63927460152809 
	9352.584319555586262 1393.845593681884111 13991.81889764758307 
	9352.620537368407895 1393.868826676795379 13995.90931169329269 
	9352.629591337112288 1393.874634614725665 13997.9545943133071 
	9352.632178271058365 1393.876294080566822 13999.12333797717656 
	9352.632609460906679 1393.876570680139139 13999.70771161604716 
	9352.632609458247316 1393.876570678433609 13999.99989843261028 
	9415.625261364235485 1295.677604714421932 13999.9998984326121 
	9415.625261342966041 1295.677604700779284 14002.33739296511885 
	9415.597664809931302 1295.659902082584949 14007.01238166251642 
	9415.43211685539427 1295.553706415719716 14016.36052162140732 
	9414.852729813213955 1295.182041338414137 14032.71010460103025 
	9412.536960827650546 1293.696522339291278 14065.33209719699698 
	9405.935542101546162 1289.461845650927671 14111.49409100823505 
	9395.024742267291003 1282.462788081340705 14156.48753194477467 
	9383.793647653372318 1275.258267884832321 14191.44195146223865 
	9370.93121499335939 1267.007277303782075 14225.59357230168098 
	9351.867259690441642 1254.778135289592683 14266.57472996994329 
	9324.499458097916431 1237.222243714993738 14312.3994779401728 
	9292.985485273491577 1217.006667095730791 14354.29602122711003 
	9259.027114096141304 1195.223058338987585 14390.34994529026517 
	9223.483440770853122 1172.422510295376696 14420.70976490946668 
	9187.088563479903314 1149.075932112513556 14445.67394099906051 
	9151.974565694708872 1126.55101224389955 14464.49779687125738 
	9118.936638636429052 1105.35784978576703 14478.23143744920162 
	9078.365857876788141 1079.33251392940042 14491.14870659079861 
	9026.340567749370166 1045.959341827818207 14500.46617489948221 
	8963.204652758749944 1005.458928440038903 14500.46540922751228 
	8900.77392433618661 965.4108779828087563 14489.28637001667448 
	8850.498434498305869 933.16016740063003 14470.86112111275906 
	8812.0011668492225 908.464948295701447 14450.90446207346213 
	8788.791715738472703 893.5765545086354678 14436.33154784697945 
	8770.813224734563846 882.0437159039877315 14423.46087159988383 
	8753.252224247595223 870.778689027804262 14409.80086396475235 
	8736.354730462662701 859.9392882904191993 14394.9846340960903 
	8720.191600616231881 849.5709671769145643 14379.07435089495812 
	8708.453249716400023 842.0410523257185105 14366.61152664815381 
	8699.004966971795511 835.9801699101224131 14355.79857054693275 
	8691.654559877662905 831.2650323228492653 14346.9008495022008 
	8673.631360101113387 819.7035139442025411 14324.25267752707077 
	8657.229572691661815 809.1820988276462003 14299.81751727847768 
	8642.654976961535795 799.832790242916758 14273.9019695922816 
	8636.989108076319098 796.198249869421943 14263.40823082500356 
	8627.510144090028916 790.1176860574037164 14244.71846908752195 
	8613.607833342943195 781.1996347013000559 14213.46793772245655 
	8602.725302269316671 774.2187109710989716 14182.79587213352534 
	8595.793495255007656 769.7720968744467882 14159.25988414422864 
	8591.50286586754919 767.0197448429510132 14143.43727577178106 
	8586.764728911039128 763.9803257507578564 14123.42991460390658 
	8582.093387657503627 760.9837547519771306 14099.11419525143901 
	8577.232749895008965 757.865753868686852 14066.36475529638847 
	8573.745402638460291 755.6286910885381758 14024.96430056830832 
	8573.745794412187024 755.6289424034703188 13975.03583127056845 
	8578.626287913841225 758.7596803421242839 13917.07492172597813 
	8588.772626042311458 765.2683511776522209 13864.25992767189018 
	8602.646448145043905 774.1681276441845512 13817.1591603572906 
	8615.243285345020922 782.2487441055369572 13782.85569874243811 
	8629.963275205196624 791.6913200860585675 13749.76678903056381 
	8646.723107620995506 802.4424138374967015 13718.07718369658141 
	8665.429550008648221 814.4422185417496394 13687.96428458832634 
	8688.260770309190775 829.0879849086867353 13656.44430430804459 
	8715.83797398601746 846.7782036875488529 13624.48722009244557 
	8743.218697399841403 864.3423843488560578 13598.54593158108401 
	8766.345764445391978 879.1779304231605465 13579.81305548902492 
	8787.244358603300498 892.5839561810948908 13564.64029121724161 
	8812.000948467339185 908.464808208209206 13549.0953603799444 
	8840.874230699251711 926.9864351842783208 13534.12892768687925 
	8870.608197482544711 946.0601739042767804 13521.76788699777899 
	8898.500845841994305 963.9527440713935675 13512.88855391980542 
	8924.240011737470923 980.4638987632155249 13506.80594930173356 
	8947.627166618334741 995.4662859271128355 13502.88322315833284 
	8971.16265997854498 1010.563829227353381 13500.52481656976488 
	9002.642376609399435 1030.757431190125999 13499.4751177592716 
	9041.991945999250675 1055.999384635498018 13502.10030135484158 
	9083.437076321744826 1082.585598064494889 13510.46652327519587 
	9118.936555962945931 1105.357796752567765 13521.76839736864895 
	9158.58227708342929 1130.789725547302851 13538.24840783288528 
	9205.985679740691921 1161.19805025269693 13565.36800071805737 
	9253.803137947310461 1191.871983224456926 13604.10246189803001 
	9292.985351000328592 1217.006580962385442 13645.70391100765119 
	9324.499658400138287 1237.222372204873864 13687.60003189202689 
	9351.867209401661967 1254.778103030432021 13733.42506229626451 
	9374.744220019818385 1269.453242961239994 13782.60228668834316 
	9392.842759374923844 1281.06309015751981 13834.51347308901313 
	9405.935489804494864 1289.461812103546436 13888.50571252339432 
	9412.536987009547374 1293.696539134517025 13934.66768587842307 
	9414.852728025698525 1295.182040191781653 13967.28969247515124 
	9415.432118806453218 1295.553707667296521 13983.63927460152991 
	9415.57697146157625 1295.646627717872207 13991.81889764758671 
	9415.613189274396063 1295.66986071278302 13995.90931169329451 
	9415.622243243102275 1295.67566865071376 13997.95459431330892 
	9415.624830177046533 1295.677328116554918 13999.12333797717838 
	9415.625261366893028 1295.677604716127234 13999.70771161604898 
	9415.625261364235485 1295.677604714421932 13999.9998984326121 
	9478.617913270503777 1197.478638749977563 13999.9998984326121 
	9478.617913249236153 1197.478638736334915 14002.33739296511885 
	9478.590316716199595 1197.460936118140353 14007.01238166251642 
	9478.424768761664382 1197.35474045127512 14016.36052162140732 
	9477.845381719484067 1196.983075373969086 14032.71010460103025 
	9475.529612733920658 1195.497556374845772 14065.33209719699698 
	9468.928194007816273 1191.262879686481483 14111.49409100823505 
	9458.017394173561115 1184.263822116893834 14156.48753194477467 
	9446.786299559644249 1177.059301920384769 14191.44195146223865 
	9433.923866899631321 1168.808311339334068 14225.59357230168098 
	9414.859911596713573 1156.579169325143766 14266.57472996994329 
	9387.492110004188362 1139.023277750544139 14312.3994779401728 
	9355.978137179765326 1118.807701131280282 14354.29602122711003 
	9322.019766002415054 1097.024092374536622 14390.34994529026517 
	9286.476092677126871 1074.223544330924824 14420.70976490946668 
	9250.081215386177064 1050.876966148061456 14445.67394099906051 
	9214.967217600982622 1028.352046279446768 14464.49779687125738 
	9181.929290542702802 1007.158883821314248 14478.23143744920162 
	9141.35850978306371 981.1335479649471836 14491.14870659079861 
	9089.333219655645735 947.7603758633647431 14500.46617489948221 
	9026.197304665025513 907.2599624755852119 14500.46540922751228 
	8963.766576242462179 867.2119120183550649 14489.28637001667448 
	8913.491086404581438 834.9612014361765659 14470.86112111275906 
	8874.993818755498069 810.2659823312482104 14450.90446207346213 
	8851.784367644748272 795.3775885441823448 14436.33154784697945 
	8833.805876640837596 783.8447499395349496 14423.46087159988383 
	8816.244876153868972 772.5797230633513664 14409.80086396475235 
	8799.347382368936451 761.7403223259668721 14394.9846340960903 
	8783.184252522505631 751.3720012124621235 14379.07435089495812 
	8771.445901622673773 743.8420863612664107 14366.61152664815381 
	8761.997618878069261 737.7812039456704269 14355.79857054693275 
	8754.647211783936655 733.0660663583972791 14346.9008495022008 
	8736.624012007387137 721.504547979750896 14324.25267752707077 
	8720.222224597935565 710.98313286319501 14299.81751727847768 
	8705.647628867809544 701.633824278465795 14273.9019695922816 
	8699.981759982592848 697.9992839049714348 14263.40823082500356 
	8690.502795996302666 691.9187200929529808 14244.71846908752195 
	8676.600485249215126 683.0006687368504572 14213.46793772245655 
	8665.717954175588602 676.0197450066492593 14182.79587213352534 
	8658.786147161279587 671.573130909997758 14159.25988414422864 
	8654.49551777382112 668.8207788785019829 14143.43727577178106 
	8649.757380817311059 665.7813597863092809 14123.42991460390658 
	8645.086039563775557 662.7847887875287824 14099.11419525143901 
	8640.225401801280896 659.666787904239186 14066.36475529638847 
	8636.738054544730403 657.4297251240910782 14024.96430056830832 
	8636.738446318457136 657.4299764390240171 13975.03583127056845 
	8641.618939820111336 660.5607143776790053 13917.07492172597813 
	8651.765277948579751 667.0693852132076245 13864.25992767189018 
	8665.639100051312198 675.9691616797408642 13817.1591603572906 
	8678.235937251289215 684.0497781410938387 13782.85569874243811 
	8692.955927111464916 693.4923541216160174 13749.76678903056381 
	8709.715759527263799 704.2434478730548335 13718.07718369658141 
	8728.422201914916513 716.2432525773081124 13687.96428458832634 
	8751.253422215457249 730.8890189442461178 13656.44430430804459 
	8778.830625892283933 748.5792377231083492 13624.48722009244557 
	8806.211349306107877 766.1434183844163499 13598.54593158108401 
	8829.338416351658452 780.978964458721066 13579.81305548902492 
	8850.237010509566971 794.384990216655865 13564.64029121724161 
	8874.993600373605659 810.2658422437704075 13549.0953603799444 
	8903.866882605516366 828.7874692198397497 13534.12892768687925 
	8933.600849388809365 847.8612079398386641 13521.76788699777899 
	8961.49349774825896 865.7537781069554512 13512.88855391980542 
	8987.232663643735577 882.2649327987777497 13506.80594930173356 
	9010.619818524599395 897.2673199626751739 13502.88322315833284 
	9034.155311884809635 912.3648632629158328 13500.52481656976488 
	9065.635028515664089 932.5584652256883373 13499.4751177592716 
	9104.984597905515329 957.800418671060811 13502.10030135484158 
	9146.429728228009481 984.3866321000573407 13510.46652327519587 
	9181.929207869210586 1007.158830788130217 13521.76839736864895 
	9221.574928989693944 1032.590759582865076 13538.24840783288528 
	9268.978331646956576 1062.999084288258928 13565.36800071805737 
	9316.795789853575116 1093.673017260018469 13604.10246189803001 
	9355.978002906595066 1118.807614997946303 13645.70391100765119 
	9387.492310306404761 1139.023406240434269 13687.60003189202689 
	9414.859861307928441 1156.579137065991745 13733.42506229626451 
	9437.736871926084859 1171.254276996799035 13782.60228668834316 
	9455.835411281192137 1182.864124193077942 13834.51347308901313 
	9468.928141710763157 1191.262846139103658 13888.50571252339432 
	9475.529638915815667 1195.497573170073792 13934.66768587842307 
	9477.845379931966818 1196.983074227337738 13967.28969247515124 
	9478.424770712721511 1197.35474170285238 13983.63927460152991 
	9478.569623367844542 1197.447661753427838 13991.81889764758671 
	9478.605841180664356 1197.470894748338651 13995.90931169329451 
	9478.614895149370568 1197.476702686269391 13997.95459431330892 
	9478.617482083314826 1197.478362152110549 13999.12333797717838 
	9478.617913273161321 1197.478638751682865 13999.70771161604898 
	9478.617913270503777 1197.478638749977563 13999.9998984326121 
	0 
	
	0 
	0 
	84 0 0.002232142857142857019 0.004464285714285714038 0.008928571428571428076 0.01785714285714285615 0.0357142857142857123 0.05357142857142856845 0.0625 0.07142857142857142461 0.08928571428571427382 0.1071428571428571369 0.125 0.1428571428571428492 0.1587301587301587213 0.1746031746031745935 0.1904761904761904656 0.2023809523809523836 0.2142857142857142738 0.238095238095238082 0.2619047619047618625 0.2857142857142856984 0.3095238095238095344 0.3214285714285713969 0.3333333333333333148 0.3392857142857143016 0.3452380952380952328 0.3571428571428570953 0.3630952380952380265 0.3690476190476190133 0.375 0.3779761904761904656 0.3809523809523809312 0.4047619047619047672 0.4077380952380952328 0.4107142857142856984 0.4166666666666666297 0.4285714285714285476 0.4444444444444444198 0.4484126984126983739 0.4523809523809523281 0.4603174603174602919 0.4682539682539682557 0.476190476190476164 0.4920634920634920362 0.5079365079365079083 0.5238095238095237249 0.5476190476190475609 0.5595238095238095344 0.5714285714285713969 0.5833333333333332593 0.5952380952380951218 0.6071428571428569843 0.6190476190476189577 0.6349206349206348854 0.650793650793650702 0.6587301587301586103 0.6666666666666666297 0.6785714285714286031 0.6904761904761904656 0.7023809523809523281 0.7142857142857141906 0.7232142857142855874 0.7321428571428569843 0.7410714285714283811 0.749999999999999889 0.7678571428571427937 0.7857142857142855874 0.7976190476190474499 0.8095238095238094234 0.8333333333333332593 0.8571428571428570953 0.875 0.8928571428571427937 0.9107142857142856984 0.9285714285714286031 0.9464285714285713969 0.9642857142857143016 0.9821428571428572063 0.9910714285714286031 0.9955357142857143016 0.9977678571428572063 0.9988839285714286031 0.9994419642857143016 0.9997209821428572063 
	0 
	0 
	0 
	F 1 F 0 F 1 F 0 } I I I I #
tcoedge-coedge $-1 -1 $-1 $14 $14 $18 $19 reversed $9 $20 -6.283185307179586232 -4.254071721763388238e-30 #
tcoedge-coedge $-1 -1 $-1 $21 $22 $11 $16 reversed $12 $23 -6.283185307179586232 1.829250840360596284e-28 #
tedge-edge $-1 -1 $-1 $24 -1.829250840360596284e-28 $24 6.283185307179586232 $15 $25 forward @7 unknown 0.0006639911939576094739 #
pcurve $-1 -1 $-1 0 forward { exppc nurbs 2 periodic 5 
	-1.829250840360596284e-28 2 1.570796326794896558 2 3.141592653589793116 2 4.712388980384689674 2 6.283185307179586232 2 
	-1.637090463191270828e-11 500 1 
	-500.0000000000163709 499.9999999999836291 0.7071067811865455743 
	-500 -1.637090463191270828e-11 1 
	-499.9999999999836291 -500.0000000000172804 0.7071067811865472397 
	1.637090463191270828e-11 -500 1 
	500.0000000000163709 -499.9999999999836291 0.7071067811865452413 
	500 1.637090463191270828e-11 1 
	499.9999999999836291 500.0000000000145519 0.7071067811865472397 
	-1.637090463191270828e-11 500 1 
	0 
	plane 9057.765165256560067 927.5101070065362592 14000.00000000000364 0.539937016348183918 -0.841705422566007333 -2.078845032657451858e-14 -3.850162092455775282e-14 0 -1 forward_v I I I I 
	} 0 0 #
tcoedge-coedge $-1 -1 $-1 $22 $21 $14 $19 forward $12 $26 4.254071721763388238e-30 6.283185307179586232 #
tedge-edge $-1 -1 $-1 $27 4.254071721763388238e-30 $27 6.283185307179586232 $18 $28 forward @7 unknown 0.0006639911957248361384 #
pcurve $-1 -1 $-1 0 forward { exppc nurbs 2 periodic 5 
	-6.283185307179586232 2 -4.712388980384689674 2 -3.141592653589793116 2 -1.570796326794896558 2 -4.254071721763388238e-30 2 
	3.637978807091712952e-12 499.9999999999990905 1 
	500.000000000003638 499.9999999999954525 0.7071067811865493491 
	500 -4.54747350886464119e-12 1 
	499.999999999996362 -500.000000000003638 0.7071067811865525687 
	-3.637978807091712952e-12 -500 1 
	-500.000000000003638 -499.999999999996362 0.7071067811865493491 
	-500 3.637978807091712952e-12 1 
	-499.999999999996362 500.0000000000045475 0.7071067811865525687 
	3.637978807091712952e-12 499.9999999999990905 1 
	0 
	plane 8868.787209537751551 1222.107004899874937 14000.00000000000182 -0.539937016348183918 0.841705422566007333 -5.197112581643629645e-15 9.625405231139438206e-15 0 -1 reverse_v I I I I 
	} 0 0 #
coedge $-1 -1 $-1 $18 $15 $22 $29 reversed $12 $30 #
coedge $-1 -1 $-1 $15 $18 $21 $29 forward $12 $31 #
pcurve $-1 -1 $-1 0 forward { exppc nubs 1 periodic 2 
	-6.283185307179586232 1 1.829250840360596284e-28 1 
	1 1 
	0 1 
	8.405334651786929792e-12 
	spline forward { ref 0 } I I I I 
	} 0 0 #
tvertex-vertex $-1 -1 $-1 $16 $32 0.0001105468832518095634 #
ellipse-curve $-1 -1 $-1 9057.765165256560067 927.5101070065362592 14000.00000000000364 0.539937016348183918 -0.841705422566007333 -2.078845032657451858e-14 420.852711283003714 269.9685081740919372 4.815120301397837007e-55 1 I I #
pcurve $-1 -1 $-1 0 forward { exppc nubs 1 periodic 2 
	4.254071721763388238e-30 1 6.283185307179586232 1 
	0 0 
	1 0 
	5.507221358615518255e-12 
	spline forward { ref 0 } I I I I 
	} 0 0 #
tvertex-vertex $-1 -1 $-1 $19 $33 0.000110546883180597037 #
ellipse-curve $-1 -1 $-1 8868.787209537751551 1222.107004899874937 14000.00000000000182 0.539937016348183918 -0.841705422566007333 5.197112581643629645e-15 420.852711283003714 269.9685081740919941 -3.226011120043215861e-57 1 I I #
edge $-1 -1 $-1 $27 1.581437713985911454e-11 $24 1 $22 $34 forward @7 tangent #
pcurve $-1 -1 $-1 -1 $34 0 0 #
pcurve $-1 -1 $-1 1 $34 1 0 #
point $-1 -1 $-1 9478.617876539561621 1197.478615180632005 14000.00000000000364 #
point $-1 -1 $-1 9289.639920820754924 1492.075513073967159 14000.00000000000182 #
intcurve-curve $-1 -1 $-1 forward { parcur full nubs 3 open 2 
	0 3 1 3 
	9289.639957551975385 1492.07553664287866 13999.99989843261028 
	9352.632609458247316 1393.876570678433609 13999.99989843261028 
	9415.625261364235485 1295.677604714421932 13999.9998984326121 
	9478.617913270503777 1197.478638749977563 13999.9998984326121 
	0 
	
	spline forward { ref 0 } I I I I 
	null_surface 
	nubs 1 open 2 
	0 1 1 1 
	0 0 
	0 1 
	
	nullbs 
	I I 
	0 
	0 
	0 
	surf1 } F 1.581437713985911454e-11 F 1 #
End-of-ACIS-data 