700 0 1 0           
4 LibG 20 ASM 224.0.1.65535 NT 24 Wed Jul 17 15:51:16 2019 
1000 9.999999999999999547e-07 1.000000000000000036e-10 
body $-1 -1 $-1 $1 $-1 $2 #
lump $-1 -1 $-1 $-1 $3 $0 #
transform $-1 -1 1 0 0 0 1 0 0 0 1 0 0 0 1 no_rotate no_reflect no_shear #
shell $-1 -1 $-1 $-1 $-1 $4 $-1 $1 #
face $-1 -1 $-1 $5 $6 $3 $-1 $7 forward single #
face $-1 -1 $-1 $8 $9 $3 $-1 $10 reversed single #
loop $-1 -1 $-1 $-1 $11 $4 #
plane-surface $-1 -1 $-1 1708.360864680020313 3095.613202529495993 14000.00000000000182 0.9999999998569973902 -1.691169161366488208e-05 -1.933810684302376152e-50 -1.933810684578916046e-50 0 -1 forward_v I I I I #
face $-1 -1 $-1 $-1 $12 $3 $-1 $13 forward single #
loop $-1 -1 $-1 $-1 $14 $5 #
plane-surface $-1 -1 $-1 1358.360864735730956 3095.61912162156068 14000.00000000000364 0.9999999998569973902 -1.691169161366488208e-05 -5.197112581643629645e-15 -5.197112582386830492e-15 0 -1 forward_v I I I I #
tcoedge-coedge $-1 -1 $-1 $11 $11 $15 $16 forward $6 $17 -2.793324590135857503e-64 6.283185307179586232 #
loop $-1 -1 $-1 $-1 $18 $8 #
spline-surface $-1 -1 $-1 forward { exactsur full nubs 3 3 periodic open none none 90 2 
	0 3 0.004464285714285714038 1 0.008928571428571428076 1 0.01785714285714285615 1 0.02678571428571428423 1 
	0.0357142857142857123 1 0.05357142857142856845 1 0.07142857142857142461 1 0.08928571428571427382 1 0.09374999999999998612 1 
	0.09821428571428569843 1 0.1026785714285714246 1 0.1071428571428571369 1 0.125 1 0.1428571428571428492 1 
	0.1587301587301587213 1 0.1785714285714285476 1 0.1825396825396825295 1 0.1904761904761904656 1 0.2142857142857142738 1 
	0.226190476190476164 1 0.238095238095238082 1 0.2410714285714285476 1 0.2440476190476190133 1 0.2499999999999999722 1 
	0.2619047619047618625 1 0.2738095238095237804 1 0.2857142857142856984 1 0.2976190476190476164 1 0.3095238095238095344 1 
	0.3214285714285713969 1 0.3333333333333333148 1 0.3452380952380952328 1 0.3571428571428570953 1 0.3630952380952380265 1 
	0.3690476190476190133 1 0.375 1 0.3809523809523809312 1 0.3928571428571428492 1 0.4047619047619047672 1 
	0.4166666666666666297 1 0.4285714285714285476 1 0.4444444444444444198 1 0.4603174603174602919 1 0.476190476190476164 1 
	0.4801587301587301182 1 0.4841269841269840724 1 0.4920634920634920362 1 0.5 1 0.5079365079365079083 1 
	0.5158730158730158166 1 0.5238095238095237249 1 0.5476190476190475609 1 0.5714285714285713969 1 0.5833333333333332593 1 
	0.5892857142857141906 1 0.5922619047619046562 1 0.5952380952380951218 1 0.6190476190476189577 1 0.6269841269841269771 1 
	0.6349206349206348854 1 0.650793650793650702 1 0.6666666666666666297 1 0.6904761904761904656 1 0.7023809523809523281 1 
	0.7142857142857141906 1 0.7321428571428569843 1 0.749999999999999889 1 0.7678571428571427937 1 0.7857142857142855874 1 
	0.7976190476190474499 1 0.8095238095238094234 1 0.8333333333333332593 1 0.8452380952380951218 1 0.851190476190476053 1 
	0.8571428571428570953 1 0.875 1 0.8928571428571427937 1 0.9107142857142856984 1 0.9285714285714286031 1 
	0.9464285714285713969 1 0.9642857142857143016 1 0.9732142857142858094 1 0.9821428571428572063 1 0.9910714285714286031 1 
	0.9955357142857143016 1 0.9977678571428572063 1 0.9988839285714286031 1 0.9994419642857143016 1 1 3 
	0 3 1 3 
	1358.369320582539558 3595.619205005304138 13999.99993673563586 
	1358.369320582537284 3595.619204808199356 14004.67492585228683 
	1358.369318364658511 3595.488059745499868 14014.02490524278983 
	1358.369305061324212 3594.70142411535744 14032.7101477907072 
	1358.36927182338809 3592.736040799824423 14056.01156230001834 
	1358.369205482489633 3588.813256680444738 14083.79697715711154 
	1358.369082046091989 3581.514376152956174 14120.49278715470791 
	1358.368862833778849 3568.552197093774794 14165.48635048774486 
	1358.368499191790988 3547.049792811811585 14217.39753023454614 
	1358.368154455196645 3526.665276990713664 14254.2804052946467 
	1358.367896437184754 3511.408493459041438 14277.82153242259847 
	1358.367761898588242 3503.453133224826615 14289.37361351560685 
	1358.367621931897247 3495.176806029553973 14300.69796176757882 
	1358.367331370470538 3477.995708015724631 14322.87369699035298 
	1358.366856483039328 3449.915284630087172 14354.29615341608223 
	1358.366174182710893 3409.570393781828898 14390.34989030522411 
	1358.365402906313875 3363.964286716441165 14423.13893961308349 
	1358.364788764303739 3327.649644608799917 14443.50612707594519 
	1358.364279176499622 3297.517365939110277 14457.55623385712533 
	1358.363696174231109 3263.044038922274012 14472.08968449480199 
	1358.362955399636803 3219.241525133380946 14485.60037523345636 
	1358.362126187482772 3170.209637792615013 14494.87632656821006 
	1358.361654470766098 3142.316702261023693 14498.01952301275742 
	1358.361338885827763 3123.655946947890243 14499.24251725264185 
	1358.361128275124656 3111.202390659118919 14499.82515920046535 
	1358.36075931916298 3089.385769869476007 14500.2332337162934 
	1358.360232239419702 3058.219180473085544 14499.0671148305446 
	1358.359603280767942 3021.028420997788089 14494.87669306456883 
	1358.358981376733936 2984.254805891658634 14487.91876048405538 
	1358.35837000516176 2948.103982604616249 14478.23217090383878 
	1358.357772585155772 2912.778125060998264 14465.87111974642357 
	1358.357192457642896 2878.474784595604888 14450.90472784401391 
	1358.356632867094959 2845.385809058467657 14433.41668847715846 
	1358.356096942633712 2813.696225578493795 14413.50481989691616 
	1358.355672558387823 2788.602092093948158 14394.9845408657402 
	1358.355347806074178 2769.399263554764275 14379.07425172249168 
	1358.355111956594101 2755.453320975570932 14366.61145111567021 
	1358.354884153786088 2741.983183655909215 14353.63585416300702 
	1358.354591567544503 2724.682357131936897 14335.67569378866756 
	1358.354247519182763 2704.338539871242119 14312.0357875293721 
	1358.353871666495706 2682.114110842173432 14281.9228639321118 
	1358.353534925254735 2662.202368751118229 14250.2332285623288 
	1358.353206307406026 2642.770968332989924 14213.46780643993952 
	1358.35290565395394 2624.993122024354307 14171.29380253548152 
	1358.35265677243865 2610.27658615356404 14123.583319007932 
	1358.352531290040815 2602.856725134390217 14086.87935666454905 
	1358.352473644759812 2599.448119850655075 14062.17821242914215 
	1358.352442167392155 2597.58684137287446 14045.6592692134891 
	1358.352415899692005 2596.03361412770164 14024.93319039616836 
	1358.352405384790927 2595.411860736746348 13999.99992360012948 
	1358.352415898277741 2596.033530492794853 13975.06662962141127 
	1358.352447424169668 2597.89767823230568 13950.1953839636808 
	1358.352534817762262 2603.065321732434313 13908.94945170796927 
	1358.352754351774593 2616.046519392725259 13852.07133370403244 
	1358.353140573396104 2638.884070519651686 13793.88479781975002 
	1358.353485635251445 2659.287816205025138 13755.28150726945205 
	1358.353676086539735 2670.549332370167122 13736.59169829968414 
	1358.353789926299214 2677.280755935525576 13726.09796083182846 
	1358.354082762545431 2694.596365330603021 13700.18246520129833 
	1358.354467239386167 2717.330746616090892 13671.67496820997621 
	1358.354958106484673 2746.356057063435856 13641.91819901993222 
	1358.355370363209204 2770.733081856723857 13619.29880148242228 
	1358.355920500833236 2803.263099520482228 13593.35765628271838 
	1358.35674800312654 2852.193881644112025 13561.7527697542173 
	1358.357573439533098 2901.002506461959456 13538.24848163231763 
	1358.358370010099179 2948.104274103799526 13521.76850916737385 
	1358.359083271825739 2990.279932551367892 13510.46671014334788 
	1358.359915993772347 3039.519356506903023 13502.10052974393329 
	1358.360864736140684 3095.619148101251085 13498.95006237416965 
	1358.361813478701151 3151.718951135357656 13502.10050811956535 
	1358.362646200378094 3200.958359237587501 13510.46672000297986 
	1358.363359462618519 3243.134048276289377 13521.76843410281799 
	1358.364156031595257 3290.235721840536826 13538.24866217799718 
	1358.36491797480835 3335.289950833026523 13559.94462461446528 
	1358.365543207194378 3372.260373846635503 13583.17665303819012 
	1358.365887160923421 3392.598595587686759 13597.60713925382515 
	1358.366305396264806 3417.329140113094127 13616.58339935446747 
	1358.366856486774168 3449.915503924177301 13645.70354468453479 
	1358.367489670265059 3487.356083372749254 13687.6001845524188 
	1358.368039547115814 3519.87068357693488 13733.42499698063148 
	1358.36849919287215 3547.049857351635637 13782.60234536196913 
	1358.368862835295431 3568.552287564482867 13834.51347242723023 
	1358.369082046543099 3581.514403329263587 13879.5070830052664 
	1358.36920548288299 3588.813280358428528 13916.20288923652151 
	1358.369271823583404 3592.736052748925886 13943.98830983430526 
	1358.369305061415616 3594.701429786643985 13967.28972536545734 
	1358.369316701757498 3595.38973159401894 13983.63931338432485 
	1358.369319612315394 3595.56183497087477 13991.8189357268293 
	1358.369320339980504 3595.604862355883597 13995.90935000089667 
	1358.369320547885991 3595.617155943773014 13998.24681583497295 
	1358.369320582539785 3595.61920502994235 13999.41556309605585 
	1358.369320582539558 3595.619205005304138 13999.99993673563586 
	1475.035987230636238 3595.617231974616061 13999.99993673563586 
	1475.035987230633964 3595.617231777511279 14004.67492585228683 
	1475.035985012755191 3595.48608671481179 14014.02490524278983 
	1475.035971709421119 3594.699451084669363 14032.7101477907072 
	1475.035938471485224 3592.734067769136345 14056.01156230001834 
	1475.035872130586995 3588.81128364975666 14083.79697715711154 
	1475.035748694189579 3581.512403122268097 14120.49278715470791 
	1475.03552948187712 3568.550224063086716 14165.48635048774486 
	1475.035165839889487 3547.047819781123508 14217.39753023454614 
	1475.034821103295599 3526.663303960025587 14254.2804052946467 
	1475.034563085283935 3511.40652042835336 14277.82153242259847 
	1475.034428546687423 3503.451160194138538 14289.37361351560685 
	1475.034288579996655 3495.174832998865895 14300.69796176757882 
	1475.033998018569946 3477.993734985036554 14322.87369699035298 
	1475.033523131139191 3449.913311599399094 14354.29615341608223 
	1475.032840830810983 3409.56842075114082 14390.34989030522411 
	1475.032069554414193 3363.962313685753088 14423.13893961308349 
	1475.031455412404284 3327.64767157811184 14443.50612707594519 
	1475.030945824600167 3297.5153929084222 14457.55623385712533 
	1475.030362822332108 3263.042065891585935 14472.08968449480199 
	1475.029622047737575 3219.239552102692869 14485.60037523345636 
	1475.028792835583772 3170.207664761926935 14494.87632656821006 
	1475.028321118867098 3142.314729230335615 14498.01952301275742 
	1475.028005533928763 3123.653973917202165 14499.24251725264185 
	1475.027794923225656 3111.200417628430841 14499.82515920046535 
	1475.02742596726398 3089.38379683878793 14500.2332337162934 
	1475.026898887520701 3058.217207442397466 14499.0671148305446 
	1475.026269928868942 3021.026447967100012 14494.87669306456883 
	1475.025648024834936 2984.252832860970557 14487.91876048405538 
	1475.025036653262532 2948.102009573928171 14478.23217090383878 
	1475.024439233256544 2912.776152030310186 14465.87111974642357 
	1475.023859105743441 2878.47281156491681 14450.90472784401391 
	1475.023299515195504 2845.38383602777958 14433.41668847715846 
	1475.022763590733803 2813.694252547805718 14413.50481989691616 
	1475.022339206487914 2788.600119063260081 14394.9845408657402 
	1475.022014454174041 2769.397290524076197 14379.07425172249168 
	1475.021778604693964 2755.451347944882855 14366.61145111567021 
	1475.021550801885724 2741.981210625221138 14353.63585416300702 
	1475.021258215644139 2724.680384101248819 14335.67569378866756 
	1475.020914167282172 2704.336566840554042 14312.0357875293721 
	1475.020538314594887 2682.112137811485354 14281.9228639321118 
	1475.020201573353688 2662.200395720430151 14250.2332285623288 
	1475.019872955504525 2642.768995302301846 14213.46780643993952 
	1475.019572302052211 2624.991148993666229 14171.29380253548152 
	1475.019323420536466 2610.274613122875962 14123.583319007932 
	1475.019197938138177 2602.85475210370214 14086.87935666454905 
	1475.019140292856946 2599.446146819966998 14062.17821242914215 
	1475.01910881548929 2597.584868342186383 14045.6592692134891 
	1475.019082547788912 2596.031641097013562 14024.93319039616836 
	1475.019072032887834 2595.409887706058271 13999.99992360012948 
	1475.019082546374193 2596.031557462106775 13975.06662962141127 
	1475.019114072265893 2597.895705201617602 13950.1953839636808 
	1475.019201465858259 2603.063348701746236 13908.94945170796927 
	1475.019420999869908 2616.044546362037181 13852.07133370403244 
	1475.019807221490964 2638.882097488963609 13793.88479781975002 
	1475.020152283346079 2659.28584317433706 13755.28150726945205 
	1475.020342734634141 2670.547359339479044 13736.59169829968414 
	1475.02045657439362 2677.278782904837499 13726.09796083182846 
	1475.020749410639382 2694.594392299914944 13700.18246520129833 
	1475.021133887480119 2717.328773585402814 13671.67496820997621 
	1475.02162475457817 2746.354084032747778 13641.91819901993222 
	1475.0220370113027 2770.731108826035779 13619.29880148242228 
	1475.022587148926277 2803.261126489794151 13593.35765628271838 
	1475.023414651219582 2852.191908613423948 13561.7527697542173 
	1475.024240087625685 2901.000533431271379 13538.24848163231763 
	1475.025036658191766 2948.102301073111448 13521.76850916737385 
	1475.025749919918098 2990.277959520679815 13510.46671014334788 
	1475.026582641864707 3039.517383476214945 13502.10052974393329 
	1475.027531384233043 3095.617175070563007 13498.95006237416965 
	1475.028480126793511 3151.716978104669579 13502.10050811956535 
	1475.029312848470454 3200.956386206899424 13510.46672000297986 
	1475.030026110711333 3243.1320752456013 13521.76843410281799 
	1475.030822679687617 3290.233748809848748 13538.24866217799718 
	1475.031584622901619 3335.287977802338446 13559.94462461446528 
	1475.032209855287192 3372.258400815947425 13583.17665303819012 
	1475.03255380901669 3392.596622556998682 13597.60713925382515 
	1475.032972044357848 3417.327167082406049 13616.58339935446747 
	1475.033523134868119 3449.913530893489224 13645.70354468453479 
	1475.034156318358782 3487.354110342061176 13687.6001845524188 
	1475.034706195210219 3519.868710546246803 13733.42499698063148 
	1475.035165840966783 3547.04788432094756 13782.60234536196913 
	1475.035529483390974 3568.55031453379479 13834.51347242723023 
	1475.035748694638414 3581.512430298575509 13879.5070830052664 
	1475.035872130979214 3588.811307327740451 13916.20288923652151 
	1475.035938471679401 3592.734079718237808 13943.98830983430526 
	1475.035971709512069 3594.699456755955907 13967.28972536545734 
	1475.03598334985395 3595.387758563330863 13983.63931338432485 
	1475.035986260412074 3595.559861940186693 13991.8189357268293 
	1475.035986988076957 3595.60288932519552 13995.90935000089667 
	1475.035987195982671 3595.615182913084936 13998.24681583497295 
	1475.035987230636465 3595.617231999254273 13999.41556309605585 
	1475.035987230636238 3595.617231974616061 13999.99993673563586 
	1591.702653878627189 3595.615258943926165 13999.99993673563586 
	1591.702653878625142 3595.615258746820473 14004.67492585228865 
	1591.702651660747961 3595.484113684121894 14014.02490524279165 
	1591.702638357414571 3594.697478053979466 14032.71014779071083 
	1591.702605119484588 3592.732094738446449 14056.01156230001834 
	1591.702538778590451 3588.809310619067674 14083.79697715711336 
	1591.702415342198265 3581.510430091578655 14120.49278715470791 
	1591.702196129901495 3568.548251032397729 14165.48635048774486 
	1591.701832487924094 3547.045846750434066 14217.39753023454614 
	1591.701487751343848 3526.661330929337055 14254.2804052946467 
	1591.701229733333548 3511.404547397665283 14277.82153242259847 
	1591.701095194737945 3503.449187163450006 14289.37361351560685 
	1591.700955228047405 3495.172859968177363 14300.69796176757882 
	1591.70066466662206 3477.991761954348021 14322.87369699035298 
	1591.700189779198126 3449.911338568710562 14354.29615341608223 
	1591.699507478876512 3409.566447720452743 14390.34989030522411 
	1591.698736202484724 3363.960340655064556 14423.13893961308349 
	1591.698122060479363 3327.645698547424217 14443.50612707594519 
	1591.697612472675473 3297.513419877734123 14457.55623385712533 
	1591.697029470408779 3263.040092860898767 14472.08968449480199 
	1591.696288695817429 3219.237579072005246 14485.60037523345636 
	1591.695459483664081 3170.205691731239313 14494.87632656821006 
	1591.69498776694968 3142.312756199647993 14498.01952301275742 
	1591.694672182011118 3123.652000886514543 14499.24251725264185 
	1591.694461571308466 3111.198444597743219 14499.82515920046535 
	1591.69409261534679 3089.381823808099853 14500.2332337162934 
	1591.693565535605103 3058.215234411709844 14499.0671148305446 
	1591.692936576954025 3021.024474936411934 14494.87669306456883 
	1591.692314672921384 2984.250859830283389 14487.91876048405538 
	1591.691703301349662 2948.100036543240094 14478.23217090383878 
	1591.691105881344583 2912.774178999622563 14465.87111974642357 
	1591.690525753832389 2878.470838534229188 14450.90472784401391 
	1591.68996616328468 2845.381862997091957 14433.41668847715846 
	1591.689430238824343 2813.692279517118095 14413.50481989691616 
	1591.689005854577999 2788.598146032572004 14394.9845408657402 
	1591.688681102264809 2769.39531749338812 14379.07425172249168 
	1591.688445252784732 2755.449374914194777 14366.61145111567021 
	1591.688217449976946 2741.97923759453306 14353.63585416300702 
	1591.687924863734679 2724.678411070561651 14335.67569378866756 
	1591.687580815373849 2704.334593809865964 14312.03578752936846 
	1591.687204962687247 2682.110164780797277 14281.92286393210816 
	1591.686868221446275 2662.198422689742074 14250.23322856232335 
	1591.686539603598021 2642.767022271614223 14213.46780643993407 
	1591.686238950146389 2624.989175962978607 14171.29380253547242 
	1591.685990068630872 2610.27264009218834 14123.58331900793019 
	1591.685864586233947 2602.852779073014972 14086.87935666454177 
	1591.685806940952943 2599.444173789279375 14062.17821242914033 
	1591.685775463584605 2597.58289531149876 14045.65926921348728 
	1591.685749195885137 2596.029668066325485 14024.93319039616654 
	1591.68573868098315 2595.407914675370648 13999.99992360012766 
	1591.685749194470873 2596.029584431418698 13975.06662962140945 
	1591.685780720362345 2597.893732170929525 13950.19538396367898 
	1591.685868113954712 2603.061375671058158 13908.94945170796564 
	1591.686087647967042 2616.042573331348649 13852.07133370403062 
	1591.686473869587417 2638.880124458275077 13793.8847978197482 
	1591.686818931443213 2659.283870143648073 13755.28150726945023 
	1591.687009382731048 2670.545386308790057 13736.5916982996805 
	1591.687123222490754 2677.276809874148512 13726.09796083182664 
	1591.687416058736517 2694.592419269226866 13700.18246520129469 
	1591.687800535576343 2717.326800554714282 13671.67496820997621 
	1591.688291402674167 2746.352111002059701 13641.91819901993222 
	1591.68870365939847 2770.729135795347702 13619.29880148242228 
	1591.689253797021593 2803.259153459105619 13593.35765628271838 
	1591.690081299313988 2852.18993558273587 13561.7527697542173 
	1591.690906735718727 2900.998560400583301 13538.24848163231763 
	1591.69170330628458 2948.100328042423371 13521.76850916737385 
	1591.692416568009548 2990.275986489990828 13510.46671014334788 
	1591.693249289955247 3039.515410445526868 13502.10052974393329 
	1591.694198032320628 3095.615202039874021 13498.95006237416965 
	1591.695146774880186 3151.715005073981047 13502.10050811956535 
	1591.695979496554401 3200.954413176210892 13510.46672000297986 
	1591.696692758793461 3243.130102214912313 13521.76843410281799 
	1591.697489327769745 3290.231775779159307 13538.24866217799718 
	1591.698251270979654 3335.28600477164855 13559.94462461446528 
	1591.698876503364545 3372.256427785257529 13583.17665303819012 
	1591.699220457092224 3392.594649526308785 13597.60713925382515 
	1591.699638692433609 3417.325194051717062 13616.58339935446747 
	1591.70018978293615 3449.911557862799782 13645.70354468453297 
	1591.700822966416126 3487.35213731137128 13687.60018455241698 
	1591.701372843256877 3519.866737515557816 13733.42499698062966 
	1591.701832489000253 3547.045911290257663 13782.60234536196731 
	1591.702196131412393 3568.548341503105803 13834.51347242722659 
	1591.702415342645281 3581.510457267886068 13879.50708300526276 
	1591.702538778980852 3588.809334297051009 13916.20288923651788 
	1591.702605119677401 3592.732106687548367 13943.98830983430162 
	1591.702638357505066 3594.69748372526692 13967.28972536545371 
	1591.702649997845811 3595.385785532640966 13983.63931338432303 
	1591.702652908403024 3595.557888909497251 13991.81893572682566 
	1591.702653636068362 3595.600916294506533 13995.90935000089303 
	1591.702653843973849 3595.61320988239595 13998.24681583497113 
	1591.702653878627416 3595.615258968564376 13999.41556309605585 
	1591.702653878627189 3595.615258943926165 13999.99993673563586 
	1708.369320526723413 3595.613285913238087 13999.99993673563586 
	1708.369320526721367 3595.613285716132395 14004.67492585228865 
	1708.369318308843731 3595.482140653433817 14014.02490524279165 
	1708.369305005510341 3594.695505023291389 14032.71014779071083 
	1708.369271767579903 3592.730121707758371 14056.01156230001834 
	1708.369205426685539 3588.807337588379596 14083.79697715711336 
	1708.369081990292898 3581.508457060890578 14120.49278715470791 
	1708.368862777995446 3568.546278001709652 14165.48635048774486 
	1708.36849913601759 3547.043873719745989 14217.39753023454614 
	1708.368154399436889 3526.659357898648977 14254.2804052946467 
	1708.367896381426362 3511.402574366977206 14277.82153242259847 
	1708.367761842830532 3503.447214132761928 14289.37361351560685 
	1708.367621876139992 3495.170886937489286 14300.69796176757882 
	1708.367331314714193 3477.989788923659944 14322.87369699035298 
	1708.366856427290031 3449.909365538022485 14354.29615341608223 
	1708.366174126967735 3409.564474689764666 14390.34989030522411 
	1708.36540285057572 3363.958367624376478 14423.13893961308349 
	1708.364788708570131 3327.64372551673614 14443.50612707594519 
	1708.364279120766014 3297.511446847046045 14457.55623385712533 
	1708.363696118499092 3263.03811983021069 14472.08968449480199 
	1708.362955343907743 3219.235606041317169 14485.60037523345636 
	1708.362126131754394 3170.203718700551235 14494.87632656821006 
	1708.361654415039766 3142.310783168959915 14498.01952301275742 
	1708.361338830101204 3123.650027855826465 14499.24251725264185 
	1708.361128219398552 3111.196471567055141 14499.82515920046535 
	1708.360759263436876 3089.379850777411775 14500.2332337162934 
	1708.360232183694961 3058.213261381021766 14499.0671148305446 
	1708.359603225044339 3021.022501905723857 14494.87669306456883 
	1708.35898132101147 2984.248886799595311 14487.91876048405538 
	1708.358369949440203 2948.098063512552017 14478.23217090383878 
	1708.357772529435124 2912.772205968934486 14465.87111974642357 
	1708.35719240192293 2878.46886550354111 14450.90472784401391 
	1708.356632811375675 2845.37988996640388 14433.41668847715846 
	1708.356096886915338 2813.690306486430018 14413.50481989691616 
	1708.355672502669449 2788.596173001883926 14394.9845408657402 
	1708.355347750356259 2769.393344462700043 14379.07425172249168 
	1708.355111900876409 2755.4474018835067 14366.61145111567021 
	1708.354884098068624 2741.977264563844983 14353.63585416300702 
	1708.354591511827039 2724.676438039873574 14335.67569378866756 
	1708.354247463466209 2704.332620779177887 14312.03578752936846 
	1708.353871610780061 2682.108191750109199 14281.92286393210816 
	1708.353534869539317 2662.196449659053997 14250.23322856232335 
	1708.353206251691518 2642.765049240926146 14213.46780643993407 
	1708.352905598240568 2624.987202932290529 14171.29380253547242 
	1708.352656716725278 2610.270667061500262 14123.58331900793019 
	1708.352531234329263 2602.850806042326894 14086.87935666454177 
	1708.352473589048259 2599.442200758591298 14062.17821242914033 
	1708.352442111680375 2597.580922280810682 14045.65926921348728 
	1708.35241584398068 2596.027695035637407 14024.93319039616654 
	1708.352405329079602 2595.405941644682571 13999.99992360012766 
	1708.352415842567098 2596.027611400730621 13975.06662962140945 
	1708.352447368459025 2597.891759140241447 13950.19538396367898 
	1708.352534762052073 2603.059402640370081 13908.94945170796564 
	1708.352754296064859 2616.040600300660572 13852.07133370403062 
	1708.353140517686143 2638.878151427586999 13793.8847978197482 
	1708.353485579542394 2659.281897112959996 13755.28150726945023 
	1708.353676030830457 2670.54341327810198 13736.5916982996805 
	1708.353789870590163 2677.274836843460434 13726.09796083182664 
	1708.35408270683638 2694.590446238538789 13700.18246520129469 
	1708.354467183676206 2717.324827524026205 13671.67496820997621 
	1708.354958050774712 2746.350137971371623 13641.91819901993222 
	1708.355370307499243 2770.727162764659624 13619.29880148242228 
	1708.35592044512282 2803.257180428417541 13593.35765628271838 
	1708.356747947415442 2852.187962552047793 13561.7527697542173 
	1708.357573383820636 2900.996587369895224 13538.24848163231763 
	1708.35836995438649 2948.098355011735293 13521.76850916737385 
	1708.359083216111912 2990.274013459302751 13510.46671014334788 
	1708.359915938057156 3039.513437414838791 13502.10052974393329 
	1708.360864680423219 3095.613229009185943 13498.95006237416965 
	1708.361813422982095 3151.713032043292969 13502.10050811956535 
	1708.362646144656765 3200.952440145522814 13510.46672000297986 
	1708.36335940689537 3243.128129184224235 13521.76843410281799 
	1708.364155975871427 3290.229802748471229 13538.24866217799718 
	1708.364917919081108 3335.284031740960472 13559.94462461446528 
	1708.365543151465772 3372.254454754569451 13583.17665303819012 
	1708.365887105193224 3392.592676495620708 13597.60713925382515 
	1708.366305340534382 3417.323221021028985 13616.58339935446747 
	1708.366856431036467 3449.909584832111705 13645.70354468453297 
	1708.367489614516217 3487.350164280683202 13687.60018455241698 
	1708.368039491356058 3519.864764484869738 13733.42499698062966 
	1708.368499137099207 3547.043938259569586 13782.60234536196731 
	1708.368862779510437 3568.546368472417726 13834.51347242722659 
	1708.369081990743098 3581.50848423719799 13879.50708300526276 
	1708.369205427077986 3588.807361266362932 13916.20288923651788 
	1708.36927176777408 3592.730133656860289 13943.98830983430162 
	1708.369305005601973 3594.695510694578843 13967.28972536545371 
	1708.369316645942035 3595.383812501952889 13983.63931338432303 
	1708.369319556499477 3595.555915878809174 13991.81893572682566 
	1708.36932028416436 3595.598943263818455 13995.90935000089303 
	1708.369320492070074 3595.611236851707872 13998.24681583497113 
	1708.369320526723641 3595.613285937876299 13999.41556309605585 
	1708.369320526723413 3595.613285913238087 13999.99993673563586 
	0 
	
	0 
	0 
	89 0 0.004464285714285714038 0.008928571428571428076 0.01785714285714285615 0.02678571428571428423 0.0357142857142857123 0.05357142857142856845 0.07142857142857142461 0.08928571428571427382 0.09374999999999998612 0.09821428571428569843 0.1026785714285714246 0.1071428571428571369 0.125 0.1428571428571428492 0.1587301587301587213 0.1785714285714285476 0.1825396825396825295 0.1904761904761904656 0.2142857142857142738 0.226190476190476164 0.238095238095238082 0.2410714285714285476 0.2440476190476190133 0.2499999999999999722 0.2619047619047618625 0.2738095238095237804 0.2857142857142856984 0.2976190476190476164 0.3095238095238095344 0.3214285714285713969 0.3333333333333333148 0.3452380952380952328 0.3571428571428570953 0.3630952380952380265 0.3690476190476190133 0.375 0.3809523809523809312 0.3928571428571428492 0.4047619047619047672 0.4166666666666666297 0.4285714285714285476 0.4444444444444444198 0.4603174603174602919 0.476190476190476164 0.4801587301587301182 0.4841269841269840724 0.4920634920634920362 0.5 0.5079365079365079083 0.5158730158730158166 0.5238095238095237249 0.5476190476190475609 0.5714285714285713969 0.5833333333333332593 0.5892857142857141906 0.5922619047619046562 0.5952380952380951218 0.6190476190476189577 0.6269841269841269771 0.6349206349206348854 0.650793650793650702 0.6666666666666666297 0.6904761904761904656 0.7023809523809523281 0.7142857142857141906 0.7321428571428569843 0.749999999999999889 0.7678571428571427937 0.7857142857142855874 0.7976190476190474499 0.8095238095238094234 0.8333333333333332593 0.8452380952380951218 0.851190476190476053 0.8571428571428570953 0.875 0.8928571428571427937 0.9107142857142856984 0.9285714285714286031 0.9464285714285713969 0.9642857142857143016 0.9732142857142858094 0.9821428571428572063 0.9910714285714286031 0.9955357142857143016 0.9977678571428572063 0.9988839285714286031 0.9994419642857143016 
	0 
	0 
	0 
	F 1 F 0 F 1 F 0 } I I I I #
tcoedge-coedge $-1 -1 $-1 $14 $14 $18 $19 reversed $9 $20 -6.283185307179586232 4.08391938306541452e-31 #
tcoedge-coedge $-1 -1 $-1 $21 $22 $11 $16 reversed $12 $23 -6.283185307179586232 2.793324590135857503e-64 #
tedge-edge $-1 -1 $-1 $24 -2.793324590135857503e-64 $24 6.283185307179586232 $15 $25 forward @7 unknown 0.0007426911269691945658 #
pcurve $-1 -1 $-1 0 forward { exppc nurbs 2 periodic 5 
	-2.793324590135857503e-64 2 1.570796326794896558 2 3.141592653589793116 2 4.712388980384689674 2 6.283185307179586232 2 
	0 500 1 
	-500 500 0.7071067811865451302 
	-500 0 1 
	-500 -500 0.7071067811865451302 
	0 -500 1 
	500 -500 0.7071067811865476838 
	500 0 1 
	500 500 0.7071067811865451302 
	0 500 1 
	0 
	plane 1708.360864680020313 3095.613202529495993 14000.00000000000182 0.9999999998569973902 -1.691169161366488208e-05 -1.933810684302376152e-50 -1.933810684578916046e-50 0 -1 forward_v I I I I 
	} 0 0 #
tcoedge-coedge $-1 -1 $-1 $22 $21 $14 $19 forward $12 $26 -4.08391938306541452e-31 6.283185307179586232 #
tedge-edge $-1 -1 $-1 $27 -4.08391938306541452e-31 $27 6.283185307179586232 $18 $28 forward @7 unknown 0.0007426911245499619998 #
pcurve $-1 -1 $-1 0 forward { exppc nurbs 2 periodic 5 
	-6.283185307179586232 2 -4.712388980384689674 2 -3.141592653589793116 2 -1.570796326794896558 2 4.08391938306541452e-31 2 
	0 500 1 
	500 500 0.7071067811865451302 
	500 0 1 
	500 -500.0000000000004547 0.7071067811865476838 
	0 -500.0000000000004547 1 
	-500 -500.0000000000004547 0.7071067811865451302 
	-500 0 1 
	-500 500 0.7071067811865451302 
	0 500 1 
	0 
	plane 1358.360864735730956 3095.61912162156068 14000.00000000000364 -0.9999999998569973902 1.691169161366488208e-05 5.197112581643629645e-15 -5.197112582386830492e-15 0 -1 reverse_v I I I I 
	} 0 0 #
coedge $-1 -1 $-1 $18 $15 $22 $29 reversed $12 $30 #
coedge $-1 -1 $-1 $15 $18 $21 $29 forward $12 $31 #
pcurve $-1 -1 $-1 0 forward { exppc nubs 1 periodic 2 
	-6.283185307179586232 1 2.793324590135857503e-64 1 
	1 1 
	0 1 
	4.41140239961761005e-13 
	spline forward { ref 0 } I I I I 
	} 0 0 #
tvertex-vertex $-1 -1 $-1 $16 $32 0.0001047242080147242019 #
ellipse-curve $-1 -1 $-1 1708.360864680020313 3095.613202529495993 14000.00000000000182 0.9999999998569973902 -1.691169161366488208e-05 -1.933810684302376152e-50 0.008455845806832441164 499.9999999284987666 1.389064320577083122e-61 1 I I #
pcurve $-1 -1 $-1 0 forward { exppc nubs 1 periodic 2 
	-4.08391938306541452e-31 1 6.283185307179586232 1 
	0 0 
	1 0 
	4.41140239961761005e-13 
	spline forward { ref 0 } I I I I 
	} 0 0 #
tvertex-vertex $-1 -1 $-1 $19 $33 0.0001047242102017115011 #
ellipse-curve $-1 -1 $-1 1358.360864735730956 3095.61912162156068 14000.00000000000364 0.9999999998569973902 -1.691169161366488208e-05 -5.197112581643629645e-15 0.008455845806832441164 499.9999999284987666 7.174648137343063403e-43 1 I I #
edge $-1 -1 $-1 $27 0 $24 1 $22 $34 forward @7 tangent #
pcurve $-1 -1 $-1 -1 $34 0 0 #
pcurve $-1 -1 $-1 1 $34 1 0 #
point $-1 -1 $-1 1708.369320525827106 3595.613202457994703 14000.00000000000182 #
point $-1 -1 $-1 1358.36932058153775 3595.61912155005939 14000.00000000000364 #
intcurve-curve $-1 -1 $-1 forward { parcur full nubs 3 open 2 
	0 3 1 3 
	1358.369320582539558 3595.619205005304138 13999.99993673563586 
	1475.035987230636238 3595.617231974616061 13999.99993673563586 
	1591.702653878627189 3595.615258943926165 13999.99993673563586 
	1708.369320526723413 3595.613285913238087 13999.99993673563586 
	0 
	
	spline forward { ref 0 } I I I I 
	null_surface 
	nubs 1 open 2 
	0 1 1 1 
	0 0 
	0 1 
	
	nullbs 
	I I 
	0 
	0 
	0 
	surf1 } F 0 F 1 #
End-of-ACIS-data 