700 0 1 0           
4 LibG 20 ASM 224.0.1.65535 NT 24 Wed Jul 17 15:51:17 2019 
1000 9.999999999999999547e-07 1.000000000000000036e-10 
body $-1 -1 $-1 $1 $-1 $2 #
lump $-1 -1 $-1 $-1 $3 $0 #
transform $-1 -1 1 0 0 0 1 0 0 0 1 0 0 0 1 no_rotate no_reflect no_shear #
shell $-1 -1 $-1 $-1 $-1 $4 $-1 $1 #
face $-1 -1 $-1 $5 $6 $3 $-1 $7 forward single #
face $-1 -1 $-1 $8 $9 $3 $-1 $10 reversed single #
loop $-1 -1 $-1 $-1 $11 $4 #
plane-surface $-1 -1 $-1 4504.859681897179144 3025.653463750993524 14000.00000000000182 0.9999999998569973902 -1.691169161366485837e-05 5.197112581643623334e-15 5.197112582386824182e-15 0 -1 forward_v I I I I #
face $-1 -1 $-1 $-1 $12 $3 $-1 $13 forward single #
loop $-1 -1 $-1 $-1 $14 $5 #
plane-surface $-1 -1 $-1 4154.859681952890242 3025.659382843058211 14000.00000000000364 0.9999999998569973902 -1.691169161366485837e-05 -5.197112581643623334e-15 -5.197112582386824182e-15 0 -1 forward_v I I I I #
tcoedge-coedge $-1 -1 $-1 $11 $11 $15 $16 forward $6 $17 2.771664142871821026e-30 6.283185307179586232 #
loop $-1 -1 $-1 $-1 $18 $8 #
spline-surface $-1 -1 $-1 forward { exactsur full nubs 3 3 periodic open none none 86 2 
	0 3 0.002232142857142857019 1 0.004464285714285714038 1 0.008928571428571428076 1 0.01785714285714285615 1 
	0.02678571428571428423 1 0.0357142857142857123 1 0.05357142857142856845 1 0.07142857142857142461 1 0.08928571428571427382 1 
	0.1071428571428571369 1 0.125 1 0.1428571428571428492 1 0.1587301587301587213 1 0.1746031746031745935 1 
	0.1904761904761904656 1 0.2023809523809523836 1 0.2142857142857142738 1 0.238095238095238082 1 0.2619047619047618625 1 
	0.2857142857142856984 1 0.2976190476190476164 1 0.3095238095238095344 1 0.3214285714285713969 1 0.3273809523809523281 1 
	0.3333333333333333148 1 0.3452380952380952328 1 0.3571428571428570953 1 0.3690476190476190133 1 0.375 1 
	0.3809523809523809312 1 0.3869047619047618625 1 0.3928571428571428492 1 0.4047619047619047672 1 0.4285714285714285476 1 
	0.4305555555555555802 1 0.4365079365079365115 1 0.4444444444444444198 1 0.4603174603174602919 1 0.476190476190476164 1 
	0.4801587301587301182 1 0.4841269841269840724 1 0.4880952380952380265 1 0.4900793650793650036 1 0.4920634920634920362 1 
	0.5158730158730158166 1 0.5238095238095237249 1 0.5357142857142855874 1 0.5476190476190475609 1 0.5595238095238095344 1 
	0.5714285714285713969 1 0.5952380952380951218 1 0.6190476190476189577 1 0.6269841269841269771 1 0.6309523809523809312 1 
	0.6349206349206348854 1 0.650793650793650702 1 0.6666666666666666297 1 0.6785714285714286031 1 0.6904761904761904656 1 
	0.7023809523809523281 1 0.7142857142857141906 1 0.7321428571428569843 1 0.749999999999999889 1 0.7678571428571427937 1 
	0.7857142857142855874 1 0.7976190476190474499 1 0.8095238095238094234 1 0.8333333333333332593 1 0.8452380952380951218 1 
	0.851190476190476053 1 0.8571428571428570953 1 0.875 1 0.8928571428571427937 1 0.9107142857142856984 1 
	0.9285714285714286031 1 0.9464285714285713969 1 0.9642857142857143016 1 0.9821428571428572063 1 0.9910714285714286031 1 
	0.9955357142857143016 1 0.9977678571428572063 1 0.9988839285714286031 1 0.9994419642857143016 1 0.9997209821428572063 1 
	1 3 
	0 3 1 3 
	4154.868137803414356 3525.659463572384084 13999.99989748891858 
	4154.868137803410718 3525.659463527189473 14002.33739203179903 
	4154.868137248964558 3525.626679515663454 14007.0123810285404 
	4154.868133922583183 3525.429989120425034 14016.36052049586942 
	4154.868122282129661 3524.741684605536648 14032.71010713676696 
	4154.868089043975488 3522.77629959639944 14056.01151823305372 
	4154.868022702934468 3518.853517125683993 14083.79693120674347 
	4154.867899266303539 3511.554633682437725 14120.49273310816534 
	4154.867680053629556 3498.592466864305152 14165.48629602159963 
	4154.867316410768581 3477.090037184407265 14217.39742336176096 
	4154.86685676263096 3449.91074958484387 14266.57465397158012 
	4154.866306887261999 3417.396262522318921 14312.39957585436605 
	4154.865673701124251 3379.955537148807707 14354.29600173530343 
	4154.86499140293472 3339.610780819110914 14390.34989582401067 
	4154.864277253362161 3297.38263930812127 14420.70972821382747 
	4154.863546001086434 3254.1431891401553 14445.67388300615676 
	4154.862840484955086 3212.42553642393932 14464.49781915903077 
	4154.862176681723213 3173.174395455005651 14478.2315029713227 
	4154.861361525815482 3124.973667804711113 14491.14879375880264 
	4154.860316225296629 3063.164327667012913 14500.46574396106007 
	4154.859047684054531 2988.154612279485264 14500.46578490302454 
	4154.85800238268439 2926.345221696991757 14491.14907721885174 
	4154.857187226428323 2878.144470931910291 14478.2317574559238 
	4154.856589804470786 2842.818499626102948 14465.87137193135641 
	4154.856106366327367 2814.232469582028443 14453.39902382503351 
	4154.855729882481683 2791.9707201762767 14442.16073568181127 
	4154.855360767198363 2770.144678901458065 14430.09797911872556 
	4154.854914163827743 2743.736714165159356 14413.50475714459571 
	4154.854404902366696 2713.623732477224166 14391.28043095490284 
	4154.854005112589221 2689.983887617373512 14370.93654057717686 
	4154.853701375513992 2672.023704747444754 14353.63573312966219 
	4154.85348193711161 2659.048160685828407 14340.16556092822793 
	4154.853271168390165 2646.585260698594084 14326.21967428364587 
	4154.853002103832296 2630.675287681064219 14307.01666159754495 
	4154.852563583601295 2604.745283824777744 14271.88578502722339 
	4154.852228826992359 2584.950894277432326 14237.60171988732509 
	4154.851988053114837 2570.713768605380665 14207.55945415993119 
	4154.851874015146677 2563.970624789139038 14192.36329997833127 
	4154.851681388766337 2552.580493799001488 14163.34215267552827 
	4154.85147398348272 2540.316476204216087 14123.58352623906103 
	4154.851348503334521 2532.896747784939635 14086.87949446867242 
	4154.851290857880485 2529.488132028598102 14062.17835659867524 
	4154.851267250116507 2528.092188619737954 14049.78914772863027 
	4154.851251935858272 2527.186645761159525 14039.43900910355478 
	4154.851242306738641 2526.617269317577666 14031.14728697700957 
	4154.851214714478374 2524.985719997190699 14002.10365198212821 
	4154.851229665636311 2525.86979286441192 13966.69382310084438 
	4154.851325837396871 2531.556495894837099 13921.3234657780522 
	4154.851430426238949 2537.740906304243708 13888.63584305005315 
	4154.851594244057196 2547.427568076702755 13852.48489893699843 
	4154.851803294895035 2559.788888294316166 13817.1592485811816 
	4154.852140745791985 2579.74259324777131 13771.42070791585502 
	4154.852669286514356 2610.995570727830454 13717.28695522378621 
	4154.853284454289678 2647.370865920072902 13671.67480798564429 
	4154.853726237805859 2673.493829724845455 13644.89396502217096 
	4154.853929920185692 2685.537709426641868 13633.43601608170866 
	4154.854242596478798 2704.026474397607217 13616.704894450957 
	4154.854737716720592 2733.303275192848105 13593.35744156381952 
	4154.855387906933174 2771.749471273826202 13568.52626071452505 
	4154.856009677118891 2808.515170153467807 13549.09546488145315 
	4154.856589802576309 2842.818388512200727 13534.12883992565185 
	4154.857187223620713 2878.144305967197397 13521.76808137643275 
	4154.857900488236737 2920.320133362723482 13510.46652290201928 
	4154.858733208629019 2969.559464404541814 13502.10028196564781 
	4154.859681952834762 3025.659359146430688 13498.94995980790372 
	4154.860630694509382 3081.759108073478728 13502.10036108441818 
	4154.861463417814775 3130.998608251511541 13510.46651446647047 
	4154.862176678258948 3173.174190219527645 13521.76844959995651 
	4154.862973249168135 3220.275976207775784 13538.24838648458899 
	4154.863735190698208 3265.330101852134703 13559.94460772839921 
	4154.864360423748622 3302.300561776385621 13583.17657412608423 
	4154.864704377318958 3322.63877239374915 13597.60708605163563 
	4154.865122613064159 3347.369340625732093 13616.58331708065452 
	4154.865673702126514 3379.955607315078851 13645.70359354018547 
	4154.866306887092833 3417.396260539233481 13687.60015476250919 
	4154.866856764061595 3449.910850602587743 13733.42498556071041 
	4154.867316410226522 3477.090033578694147 13782.602334583431 
	4154.867680054035191 3498.592520122839687 13834.51339240768357 
	4154.867943113645197 3514.147377884357866 13888.50571306817983 
	4154.868075753292942 3521.990414960745511 13934.66767311229341 
	4154.868122281449359 3524.741644101462498 13967.28969124915056 
	4154.868133922755987 3525.429998679368509 13983.63927313216664 
	4154.868136833159951 3525.602092114588231 13991.81889666652387 
	4154.868137560862124 3525.64512122667611 13995.90931072596322 
	4154.868137742774707 3525.655877869017331 13997.95459336595195 
	4154.868137794752329 3525.658951340564272 13999.1233370339487 
	4154.868137803415266 3525.65946357803341 13999.70771067105852 
	4154.868137803414356 3525.659463572384084 13999.99989748891858 
	4271.534804451511263 3525.657490541696006 13999.99989748891858 
	4271.534804451507625 3525.657490496501396 14002.33739203179903 
	4271.534803897061465 3525.624706484975377 14007.0123810285404 
	4271.53480057068009 3525.428016089736957 14016.36052049586942 
	4271.534788930226568 3524.73971157484857 14032.71010713676696 
	4271.534755692072395 3522.774326565711362 14056.01151823305372 
	4271.534689351031375 3518.851544094995916 14083.79693120674347 
	4271.534565914401355 3511.552660651749648 14120.49273310816534 
	4271.534346701727372 3498.590493833617074 14165.48629602159963 
	4271.533983058867307 3477.088064153719188 14217.39742336176096 
	4271.533523410729686 3449.908776554155793 14266.57465397158012 
	4271.532973535360725 3417.394289491630843 14312.39957585436605 
	4271.532340349223887 3379.95356411811963 14354.29600173530343 
	4271.531658051033446 3339.608807788422837 14390.34989582401067 
	4271.530943901461796 3297.380666277433193 14420.70972821382747 
	4271.530212649186069 3254.141216109467223 14445.67388300615676 
	4271.529507133054722 3212.423563393251243 14464.49781915903077 
	4271.528843329822848 3173.172422424317574 14478.2315029713227 
	4271.528028173915118 3124.971694774023035 14491.14879375880264 
	4271.526982873396264 3063.162354636324835 14500.46574396106007 
	4271.525714332155076 2988.152639248797186 14500.46578490302454 
	4271.524669030784025 2926.34324866630368 14491.14907721885174 
	4271.523853874528868 2878.142497901222214 14478.2317574559238 
	4271.523256452570422 2842.816526595414871 14465.87137193135641 
	4271.522773014427003 2814.230496551340366 14453.39902382503351 
	4271.522396530581318 2791.968747145588623 14442.16073568181127 
	4271.522027415297998 2770.142705870769987 14430.09797911872556 
	4271.521580811927379 2743.734741134471278 14413.50475714459571 
	4271.521071550465422 2713.621759446536089 14391.28043095490284 
	4271.520671760688856 2689.981914586685434 14370.93654057717686 
	4271.520368023612718 2672.021731716756676 14353.63573312966219 
	4271.520148585210336 2659.046187655140329 14340.16556092822793 
	4271.519937816488891 2646.583287667906006 14326.21967428364587 
	4271.519668751931022 2630.673314650376142 14307.01666159754495 
	4271.519230231700021 2604.743310794089666 14271.88578502722339 
	4271.518895475090176 2584.948921246744248 14237.60171988732509 
	4271.518654701212654 2570.711795574692587 14207.55945415993119 
	4271.518540663244494 2563.96865175845096 14192.36329997833127 
	4271.518348036865063 2552.57852076831341 14163.34215267552827 
	4271.518140631579627 2540.31450317352801 14123.58352623906103 
	4271.518015151432337 2532.894774754251557 14086.87949446867242 
	4271.517957505977392 2529.486158997910024 14062.17835659867524 
	4271.517933898213414 2528.090215589049876 14049.78914772863027 
	4271.517918583955179 2527.184672730471448 14039.43900910355478 
	4271.517908954835548 2526.615296286889588 14031.14728697700957 
	4271.517881362574371 2524.983746966502622 14002.10365198212821 
	4271.517896313733218 2525.867819833723843 13966.69382310084438 
	4271.517992485492869 2531.554522864149021 13921.3234657780522 
	4271.518097074334946 2537.738933273555631 13888.63584305005315 
	4271.518260892152284 2547.425595046014678 13852.48489893699843 
	4271.518469942990123 2559.786915263628089 13817.1592485811816 
	4271.518807393887073 2579.740620217083233 13771.42070791585502 
	4271.519335934609444 2610.993597697142377 13717.28695522378621 
	4271.519951102383857 2647.368892889384824 13671.67480798564429 
	4271.520392885900037 2673.491856694157377 13644.89396502217096 
	4271.520596568279871 2685.535736395953791 13633.43601608170866 
	4271.520909244572977 2704.024501366919139 13616.704894450957 
	4271.521404364814771 2733.301302162160027 13593.35744156381952 
	4271.522054555026443 2771.747498243138125 13568.52626071452505 
	4271.52267632521216 2808.513197122779729 13549.09546488145315 
	4271.523256450669578 2842.816415481512649 13534.12883992565185 
	4271.523853871713982 2878.14233293650932 13521.76808137643275 
	4271.524567136330006 2920.318160332035404 13510.46652290201928 
	4271.525399856722288 2969.557491373853736 13502.10028196564781 
	4271.526348600928031 3025.657386115742611 13498.94995980790372 
	4271.527297342602651 3081.757135042790651 13502.10036108441818 
	4271.528130065908044 3130.996635220823464 13510.46651446647047 
	4271.528843326352217 3173.172217188839568 13521.76844959995651 
	4271.529639897261404 3220.274003177087707 13538.24838648458899 
	4271.530401838791477 3265.328128821446626 13559.94460772839921 
	4271.531027071841891 3302.298588745697543 13583.17657412608423 
	4271.531371025413137 3322.636799363061073 13597.60708605163563 
	4271.531789261158337 3347.367367595044016 13616.58331708065452 
	4271.532340350220693 3379.953634284390773 13645.70359354018547 
	4271.532973535187011 3417.394287508545403 13687.60015476250919 
	4271.533523412156683 3449.908877571899666 13733.42498556071041 
	4271.53398305832161 3477.088060548006069 13782.602334583431 
	4271.534346702130279 3498.59054709215161 13834.51339240768357 
	4271.534609761741194 3514.145404853669788 13888.50571306817983 
	4271.534742401388939 3521.988441930057434 13934.66767311229341 
	4271.534788929545357 3524.739671070774421 13967.28969124915056 
	4271.534800570851985 3525.428025648680432 13983.63927313216664 
	4271.534803481256859 3525.600119083900154 13991.81889666652387 
	4271.534804208959031 3525.643148195988033 13995.90931072596322 
	4271.534804390871614 3525.653904838329254 13997.95459336595195 
	4271.534804442849236 3525.656978309876195 13999.1233370339487 
	4271.534804451512173 3525.657490547345333 13999.70771067105852 
	4271.534804451511263 3525.657490541696006 13999.99989748891858 
	4388.201471099890114 3525.655517511007019 13999.99989748890766 
	4388.201471099886476 3525.655517465811954 14002.33739203178993 
	4388.201470545438497 3525.622733454286845 14007.01238102853495 
	4388.201467219055303 3525.426043059047515 14016.36052049586579 
	4388.201455578597233 3524.737738544159129 14032.71010713676151 
	4388.201422340427598 3522.772353535022376 14056.01151823305008 
	4388.201355999374755 3518.849571064306929 14083.79693120673983 
	4388.201232562729274 3511.550687621060661 14120.4927331081617 
	4388.201013350014364 3498.588520802928088 14165.48629602159599 
	4388.200649707118828 3477.086091123029746 14217.39742336176096 
	4388.200190058947555 3449.906803523466351 14266.57465397157648 
	4388.199640183546762 3417.392316460941856 14312.39957585436241 
	4388.199006997397191 3379.951591087430188 14354.2960017352998 
	4388.198324699198565 3339.606834757733395 14390.34989582400704 
	4388.197610549604178 3297.378693246743751 14420.70972821382384 
	4388.196879297325722 3254.139243078777781 14445.6738830061513 
	4388.196173781188918 3212.421590362562711 14464.49781915902713 
	4388.195509977954316 3173.170449393628587 14478.23150297131724 
	4388.194694822040219 3124.969721743334958 14491.14879375880264 
	4388.193649521519546 3063.160381605636303 14500.46574396105643 
	4388.192380980271992 2988.150666218109109 14500.46578490302454 
	4388.191335678900941 2926.341275635615602 14491.14907721884992 
	4388.190520522642146 2878.140524870534136 14478.2317574559238 
	4388.18992310068279 2842.814553564726793 14465.87137193135277 
	4388.189439662539371 2814.228523520651834 14453.39902382503351 
	4388.189063178691868 2791.96677411490009 14442.16073568181127 
	4388.188694063408548 2770.140732840081455 14430.09797911872556 
	4388.188247460036109 2743.732768103782746 14413.50475714459571 
	4388.187738198575971 2713.619786415847557 14391.28043095490284 
	4388.187338408798496 2689.979941555997357 14370.93654057717686 
	4388.187034671722358 2672.019758686068599 14353.63573312966219 
	4388.186815233319066 2659.044214624451797 14340.16556092822793 
	4388.186604464597622 2646.581314637217474 14326.21967428364405 
	4388.186335400038843 2630.671341619688064 14307.01666159754313 
	4388.185896879808752 2604.741337763401589 14271.88578502722339 
	4388.185562123199816 2584.946948216056626 14237.60171988732509 
	4388.185321349322294 2570.709822544004965 14207.55945415993119 
	4388.185207311354134 2563.966678727763792 14192.36329997833127 
	4388.185014684973794 2552.576547737625788 14163.34215267552827 
	4388.184807279690176 2540.312530142840387 14123.58352623906103 
	4388.184681799542886 2532.892801723563935 14086.87949446867242 
	4388.184624154087942 2529.484185967221947 14062.17835659867524 
	4388.184600546323963 2528.088242558361799 14049.78914772863027 
	4388.184585232066638 2527.182699699783825 14039.43900910355478 
	4388.184575602947007 2526.613323256201511 14031.14728697700957 
	4388.184548010684921 2524.981773935814999 14002.10365198212821 
	4388.184562961843767 2525.865846803035765 13966.69382310084438 
	4388.184659133602509 2531.552549833460944 13921.3234657780522 
	4388.184763722444586 2537.736960242867553 13888.63584305005315 
	4388.184927540261015 2547.423622015326146 13852.48489893699843 
	4388.185136591098853 2559.784942232939557 13817.1592485811816 
	4388.185474041995803 2579.738647186394701 13771.42070791585502 
	4388.186002582717265 2610.991624666453845 13717.28695522378621 
	4388.186617750492587 2647.366919858695837 13671.67480798564429 
	4388.187059534009677 2673.489883663468845 13644.89396502217096 
	4388.187263216388601 2685.533763365265258 13633.43601608170866 
	4388.187575892681707 2704.022528336230152 13616.704894450957 
	4388.18807101292532 2733.299329131471495 13593.35744156381952 
	4388.188721203138812 2771.745525212449138 13568.52626071452505 
	4388.189342973325438 2808.511224092090288 13549.09546488145315 
	4388.189923098782856 2842.814442450823208 13534.12883992565003 
	4388.190520519829988 2878.140359905819878 13521.76808137642911 
	4388.191233784447832 2920.316187301346417 13510.46652290201564 
	4388.192066504841023 2969.555518343164749 13502.10028196564417 
	4388.193015249055861 3025.655413085053624 13498.94995980790191 
	4388.19396399073139 3081.755162012101209 13502.10036108441636 
	4388.194796714042241 3130.994662190134477 13510.46651446646683 
	4388.195509974487322 3173.170244158150126 13521.76844959995105 
	4388.196306545398329 3220.27203014639872 13538.24838648458535 
	4388.197068486932949 3265.326155790758094 13559.94460772839557 
	4388.197693719987001 3302.296615715008556 13583.1765741260806 
	4388.198037673559156 3322.63482633237254 13597.60708605163381 
	4388.198455909304357 3347.365394564355938 13616.58331708065271 
	4388.199006998380355 3379.951661253702696 13645.70359354018547 
	4388.199640183363044 3417.392314477856871 13687.60015476250555 
	4388.200190060352725 3449.906904541210679 13733.42498556070677 
	4388.200649706534932 3477.086087517317537 13782.60233458342918 
	4388.201013350376343 3498.588574061463078 13834.51339240768175 
	4388.201276410040009 3514.143431822980801 13888.50571306817255 
	4388.201409049740505 3521.986468899368901 13934.6676731122916 
	4388.201455577916931 3524.737698040085888 13967.28969124914329 
	4388.201467219228107 3525.426052617992354 13983.63927313216118 
	4388.20147012963389 3525.598146053211622 13991.81889666651477 
	4388.201470857336062 3525.641175165299501 13995.90931072595777 
	4388.201471039248645 3525.651931807640722 13997.95459336594467 
	4388.201471091228086 3525.655005279187662 13999.12333703393779 
	4388.201471099890114 3525.655517516656801 13999.70771067104761 
	4388.201471099890114 3525.655517511007019 13999.99989748890766 
	4504.868137747987021 3525.653544480318942 13999.99989748890766 
	4504.868137747983383 3525.653544435123877 14002.33739203178993 
	4504.868137193535404 3525.620760423598767 14007.01238102853495 
	4504.86813386715221 3525.424070028359438 14016.36052049586579 
	4504.868122226693231 3524.735765513471051 14032.71010713676151 
	4504.868088988523596 3522.770380504334298 14056.01151823305008 
	4504.868022647469843 3518.847598033618851 14083.79693120673983 
	4504.867899210824362 3511.548714590372583 14120.4927331081617 
	4504.867679998108542 3498.58654777224001 14165.48629602159599 
	4504.867316355213006 3477.084118092341669 14217.39742336176096 
	4504.866856707040824 3449.904830492778274 14266.57465397157648 
	4504.866306831639122 3417.390343430253779 14312.39957585436241 
	4504.865673645488641 3379.949618056742111 14354.2960017352998 
	4504.864991347290015 3339.604861727045318 14390.34989582400704 
	4504.864277197694719 3297.376720216055674 14420.70972821382384 
	4504.863545945416263 3254.137270048089704 14445.6738830061513 
	4504.862840429279458 3212.419617331874633 14464.49781915902713 
	4504.862176626043947 3173.16847636294051 14478.23150297131724 
	4504.86136147012985 3124.96774871264688 14491.14879375880264 
	4504.860316169609177 3063.158408574948226 14500.46574396105643 
	4504.859047628362532 2988.148693187421031 14500.46578490302454 
	4504.858002326990572 2926.339302604927525 14491.14907721884992 
	4504.857187170732686 2878.138551839846059 14478.2317574559238 
	4504.856589748773331 2842.812580534038716 14465.87137193135277 
	4504.856106310629912 2814.226550489963756 14453.39902382503351 
	4504.855729826782408 2791.964801084212013 14442.16073568181127 
	4504.855360711499088 2770.138759809393378 14430.09797911872556 
	4504.854914108127559 2743.730795073094669 14413.50475714459571 
	4504.854404846667421 2713.617813385159479 14391.28043095490284 
	4504.854005056889946 2689.977968525309279 14370.93654057717686 
	4504.853701319813808 2672.017785655380521 14353.63573312966219 
	4504.853481881411426 2659.04224159376372 14340.16556092822793 
	4504.853271112689981 2646.579341606529397 14326.21967428364405 
	4504.853002048131202 2630.669368588999987 14307.01666159754313 
	4504.852563527902021 2604.739364732713511 14271.88578502722339 
	4504.852228771293085 2584.944975185368548 14237.60171988732509 
	4504.851987997416472 2570.707849513316887 14207.55945415993119 
	4504.851873959448312 2563.964705697075715 14192.36329997833127 
	4504.851681333067972 2552.57457470693771 14163.34215267552827 
	4504.851473927785264 2540.31055711215231 14123.58352623906103 
	4504.851348447637974 2532.890828692875857 14086.87949446867242 
	4504.851290802183939 2529.48221293653387 14062.17835659867524 
	4504.851267194419961 2528.086269527673721 14049.78914772863027 
	4504.851251880162636 2527.180726669095748 14039.43900910355478 
	4504.851242251043004 2526.611350225513434 14031.14728697700957 
	4504.851214658781828 2524.979800905126922 14002.10365198212821 
	4504.851229609940674 2525.863873772347688 13966.69382310084438 
	4504.851325781700325 2531.550576802772866 13921.3234657780522 
	4504.851430370543312 2537.734987212179476 13888.63584305005315 
	4504.851594188359741 2547.421648984638068 13852.48489893699843 
	4504.851803239198489 2559.782969202251479 13817.1592485811816 
	4504.852140690095439 2579.736674155706623 13771.42070791585502 
	4504.85266923081781 2610.989651635765767 13717.28695522378621 
	4504.853284398594042 2647.36494682800776 13671.67480798564429 
	4504.853726182111131 2673.487910632780768 13644.89396502217096 
	4504.853929864490055 2685.531790334577181 13633.43601608170866 
	4504.854242540784071 2704.020555305542075 13616.704894450957 
	4504.854737661027684 2733.297356100783418 13593.35744156381952 
	4504.855387851241176 2771.743552181761061 13568.52626071452505 
	4504.856009621428711 2808.50925106140221 13549.09546488145315 
	4504.856589746886129 2842.81246942013513 13534.12883992565003 
	4504.857187167933262 2878.1383868751318 13521.76808137642911 
	4504.857900432551105 2920.31421427065834 13510.46652290201564 
	4504.858733152944296 2969.553545312476672 13502.10028196564417 
	4504.859681897159135 3025.653440054365547 13498.94995980790191 
	4504.860630638834664 3081.753188981413132 13502.10036108441636 
	4504.861463362145514 3130.9926891594464 13510.46651446646683 
	4504.862176622590596 3173.168271127462049 13521.76844959995105 
	4504.862973193501603 3220.270057115710642 13538.24838648458535 
	4504.863735135036222 3265.324182760070016 13559.94460772839557 
	4504.864360368089365 3302.294642684320479 13583.1765741260806 
	4504.86470432166152 3322.632853301684463 13597.60708605163381 
	4504.865122557406721 3347.363421533667861 13616.58331708065271 
	4504.86567364648181 3379.949688223014618 13645.70359354018547 
	4504.866306831464499 3417.390341447168794 13687.60015476250555 
	4504.86685670845327 3449.904931510522601 13733.42498556070677 
	4504.867316354634568 3477.08411448662946 13782.60233458342918 
	4504.867679998475069 3498.586601030775 13834.51339240768175 
	4504.867943058138735 3514.141458792292724 13888.50571306817255 
	4504.868075697838322 3521.984495868680824 13934.6676731122916 
	4504.868122226013838 3524.735725009397811 13967.28969124914329 
	4504.868133867325014 3525.424079587304277 13983.63927313216118 
	4504.868136777730797 3525.596173022523544 13991.81889666651477 
	4504.868137505432969 3525.639202134611423 13995.90931072595777 
	4504.868137687345552 3525.649958776952644 13997.95459336594467 
	4504.868137739324993 3525.653032248499585 13999.12333703393779 
	4504.868137747987021 3525.653544485968723 13999.70771067104761 
	4504.868137747987021 3525.653544480318942 13999.99989748890766 
	0 
	
	0 
	0 
	85 0 0.002232142857142857019 0.004464285714285714038 0.008928571428571428076 0.01785714285714285615 0.02678571428571428423 0.0357142857142857123 0.05357142857142856845 0.07142857142857142461 0.08928571428571427382 0.1071428571428571369 0.125 0.1428571428571428492 0.1587301587301587213 0.1746031746031745935 0.1904761904761904656 0.2023809523809523836 0.2142857142857142738 0.238095238095238082 0.2619047619047618625 0.2857142857142856984 0.2976190476190476164 0.3095238095238095344 0.3214285714285713969 0.3273809523809523281 0.3333333333333333148 0.3452380952380952328 0.3571428571428570953 0.3690476190476190133 0.375 0.3809523809523809312 0.3869047619047618625 0.3928571428571428492 0.4047619047619047672 0.4285714285714285476 0.4305555555555555802 0.4365079365079365115 0.4444444444444444198 0.4603174603174602919 0.476190476190476164 0.4801587301587301182 0.4841269841269840724 0.4880952380952380265 0.4900793650793650036 0.4920634920634920362 0.5158730158730158166 0.5238095238095237249 0.5357142857142855874 0.5476190476190475609 0.5595238095238095344 0.5714285714285713969 0.5952380952380951218 0.6190476190476189577 0.6269841269841269771 0.6309523809523809312 0.6349206349206348854 0.650793650793650702 0.6666666666666666297 0.6785714285714286031 0.6904761904761904656 0.7023809523809523281 0.7142857142857141906 0.7321428571428569843 0.749999999999999889 0.7678571428571427937 0.7857142857142855874 0.7976190476190474499 0.8095238095238094234 0.8333333333333332593 0.8452380952380951218 0.851190476190476053 0.8571428571428570953 0.875 0.8928571428571427937 0.9107142857142856984 0.9285714285714286031 0.9464285714285713969 0.9642857142857143016 0.9821428571428572063 0.9910714285714286031 0.9955357142857143016 0.9977678571428572063 0.9988839285714286031 0.9994419642857143016 0.9997209821428572063 
	0 
	0 
	0 
	F 1 F 0 F 1 F 0 } I I I I #
tcoedge-coedge $-1 -1 $-1 $14 $14 $18 $19 reversed $9 $20 -6.283185307179586232 2.771664142871821026e-30 #
tcoedge-coedge $-1 -1 $-1 $21 $22 $11 $16 reversed $12 $23 -6.283185307179586232 -2.771664142871821026e-30 #
tedge-edge $-1 -1 $-1 $24 2.771664142871821026e-30 $24 6.283185307179586232 $15 $25 forward @7 unknown 0.0006582074683671094821 #
pcurve $-1 -1 $-1 0 forward { exppc nurbs 2 periodic 5 
	2.771664142871821026e-30 2 1.570796326794896558 2 3.141592653589793116 2 4.712388980384689674 2 6.283185307179586232 2 
	0 500 1 
	-500 500 0.7071067811865451302 
	-500 0 1 
	-500 -500.0000000000004547 0.7071067811865451302 
	0 -500.0000000000004547 1 
	500 -500.0000000000004547 0.7071067811865476838 
	500 0 1 
	500 500 0.7071067811865451302 
	0 500 1 
	0 
	plane 4504.859681897179144 3025.653463750993524 14000.00000000000182 0.9999999998569973902 -1.691169161366485837e-05 5.197112581643623334e-15 5.197112582386824182e-15 0 -1 forward_v I I I I 
	} 0 0 #
tcoedge-coedge $-1 -1 $-1 $22 $21 $14 $19 forward $12 $26 -2.771664142871821026e-30 6.283185307179586232 #
tedge-edge $-1 -1 $-1 $27 -2.771664142871821026e-30 $27 6.283185307179586232 $18 $28 forward @7 unknown 0.0006582074679124302191 #
pcurve $-1 -1 $-1 0 forward { exppc nurbs 2 periodic 5 
	-6.283185307179586232 2 -4.712388980384689674 2 -3.141592653589793116 2 -1.570796326794896558 2 2.771664142871821026e-30 2 
	0 500.0000000000004547 1 
	500 500.0000000000004547 0.7071067811865451302 
	500 0 1 
	500 -500 0.7071067811865476838 
	0 -500 1 
	-500 -500 0.7071067811865451302 
	-500 0 1 
	-500 500.0000000000004547 0.7071067811865451302 
	0 500.0000000000004547 1 
	0 
	plane 4154.859681952890242 3025.659382843058211 14000.00000000000364 -0.9999999998569973902 1.691169161366485837e-05 5.197112581643623334e-15 -5.197112582386824182e-15 0 -1 reverse_v I I I I 
	} 0 0 #
coedge $-1 -1 $-1 $18 $15 $22 $29 reversed $12 $30 #
coedge $-1 -1 $-1 $15 $18 $21 $29 forward $12 $31 #
pcurve $-1 -1 $-1 0 forward { exppc nubs 1 periodic 2 
	-6.283185307179586232 1 -2.771664142871821026e-30 1 
	1 1 
	0 1 
	4.41140239961761005e-13 
	spline forward { ref 0 } I I I I 
	} 0 0 #
tvertex-vertex $-1 -1 $-1 $16 $32 0.0001305270112172152728 #
ellipse-curve $-1 -1 $-1 4504.859681897179144 3025.653463750993524 14000.00000000000182 0.9999999998569973902 -1.691169161366485837e-05 5.197112581643623334e-15 0.008455845806832430755 499.9999999284987666 1.389112540257042059e-62 1 I I #
pcurve $-1 -1 $-1 0 forward { exppc nubs 1 periodic 2 
	-2.771664142871821026e-30 1 6.283185307179586232 1 
	0 0 
	1 0 
	4.41140239961761005e-13 
	spline forward { ref 0 } I I I I 
	} 0 0 #
tvertex-vertex $-1 -1 $-1 $19 $33 0.0001305270043453197776 #
ellipse-curve $-1 -1 $-1 4154.859681952890242 3025.659382843058211 14000.00000000000364 0.9999999998569973902 -1.691169161366485837e-05 -5.197112581643623334e-15 0.008455845806832430755 499.9999999284987666 1.389112540257042059e-62 1 I I #
edge $-1 -1 $-1 $27 0 $24 0.9999999999896147518 $22 $34 forward @7 tangent #
pcurve $-1 -1 $-1 -1 $34 0 0 #
pcurve $-1 -1 $-1 1 $34 1 0 #
point $-1 -1 $-1 4504.868137742985709 3525.653463679492233 14000.00000000000182 #
point $-1 -1 $-1 4154.868137798696807 3525.65938277155692 14000.00000000000364 #
intcurve-curve $-1 -1 $-1 forward { parcur full nubs 3 open 2 
	0 3 1 3 
	4154.868137803414356 3525.659463572384084 13999.99989748891858 
	4271.534804451511263 3525.657490541696006 13999.99989748891858 
	4388.201471099890114 3525.655517511007019 13999.99989748890766 
	4504.868137747987021 3525.653544480318942 13999.99989748890766 
	0 
	
	spline forward { ref 0 } I I I I 
	null_surface 
	nubs 1 open 2 
	0 1 1 1 
	0 0 
	0 1 
	
	nullbs 
	I I 
	0 
	0 
	0 
	surf1 } F 0 F 0.9999999999896147518 #
End-of-ACIS-data 