700 0 1 0           
4 LibG 20 ASM 224.0.1.65535 NT 24 Wed Jul 17 15:51:17 2019 
1000 9.999999999999999547e-07 1.000000000000000036e-10 
body $-1 -1 $-1 $1 $-1 $2 #
lump $-1 -1 $-1 $-1 $3 $0 #
transform $-1 -1 1 0 0 0 1 0 0 0 1 0 0 0 1 no_rotate no_reflect no_shear #
shell $-1 -1 $-1 $-1 $-1 $4 $-1 $1 #
face $-1 -1 $-1 $5 $6 $3 $-1 $7 forward single #
face $-1 -1 $-1 $8 $9 $3 $-1 $10 reversed single #
loop $-1 -1 $-1 $-1 $11 $4 #
plane-surface $-1 -1 $-1 3108.36086445717774 3095.58952616123679 14000 0.9999999998569973902 -1.691169161366488208e-05 0 0 0 -1 forward_v I I I I #
face $-1 -1 $-1 $-1 $12 $3 $-1 $13 forward single #
loop $-1 -1 $-1 $-1 $14 $5 #
plane-surface $-1 -1 $-1 2758.360864512888838 3095.595445253301477 14000 0.9999999998569973902 -1.691169161366488208e-05 0 0 0 -1 forward_v I I I I #
tcoedge-coedge $-1 -1 $-1 $11 $11 $15 $16 forward $6 $17 0 6.283185307179586232 #
loop $-1 -1 $-1 $-1 $18 $8 #
spline-surface $-1 -1 $-1 forward { exactsur full nubs 3 3 periodic open none none 80 2 
	0 3 0.002232142857142857019 1 0.004464285714285714038 1 0.008928571428571428076 1 0.01785714285714285615 1 
	0.0357142857142857123 1 0.05357142857142856845 1 0.0625 1 0.07142857142857142461 1 0.08928571428571427382 1 
	0.1071428571428571369 1 0.125 1 0.1428571428571428492 1 0.1587301587301587213 1 0.1746031746031745935 1 
	0.1904761904761904656 1 0.2023809523809523836 1 0.2142857142857142738 1 0.238095238095238082 1 0.2619047619047618625 1 
	0.2857142857142856984 1 0.2976190476190476164 1 0.3095238095238095344 1 0.3214285714285713969 1 0.3273809523809523281 1 
	0.3303571428571427937 1 0.3333333333333333148 1 0.3452380952380952328 1 0.3571428571428570953 1 0.3690476190476190133 1 
	0.375 1 0.3809523809523809312 1 0.3928571428571428492 1 0.4047619047619047672 1 0.4166666666666666297 1 
	0.4285714285714285476 1 0.4444444444444444198 1 0.4603174603174602919 1 0.476190476190476164 1 0.4841269841269840724 1 
	0.4920634920634920362 1 0.5 1 0.5079365079365079083 1 0.5158730158730158166 1 0.5238095238095237249 1 
	0.5476190476190475609 1 0.5714285714285713969 1 0.5952380952380951218 1 0.6190476190476189577 1 0.6269841269841269771 1 
	0.6349206349206348854 1 0.650793650793650702 1 0.6666666666666666297 1 0.6904761904761904656 1 0.7023809523809523281 1 
	0.7142857142857141906 1 0.7321428571428569843 1 0.7410714285714283811 1 0.749999999999999889 1 0.7678571428571427937 1 
	0.7857142857142855874 1 0.7976190476190474499 1 0.8095238095238094234 1 0.8333333333333332593 1 0.8452380952380951218 1 
	0.8571428571428570953 1 0.875 1 0.8928571428571427937 1 0.9107142857142856984 1 0.9285714285714286031 1 
	0.9464285714285713969 1 0.9642857142857143016 1 0.9821428571428572063 1 0.9910714285714286031 1 0.9955357142857143016 1 
	0.9977678571428572063 1 0.9988839285714286031 1 0.9994419642857143016 1 0.9997209821428572063 1 1 3 
	0 3 1 3 
	2758.369320391971087 3595.595525418125362 13999.99989304541123 
	2758.369320391967904 3595.595525377970262 14002.3373875749694 
	2758.369319837383955 3595.562738749929849 14007.01237623595443 
	2758.369316511064881 3595.366056984395527 14016.36051614641474 
	2758.369304869439929 3594.677707182564063 14032.71009888024855 
	2758.369258339029329 3591.926422272914351 14065.33209044300565 
	2758.36912569766946 3584.083505133260132 14111.49408086444419 
	2758.368906471941045 3571.120767300855732 14156.48751786914363 
	2758.368680813531228 3557.777504118010711 14191.44193582837761 
	2758.368422378239302 3542.496107335668967 14225.59355539703756 
	2758.368039338347444 3519.846897398703277 14266.57470645332432 
	2758.367489457185002 3487.332188952058459 14312.39945062405423 
	2758.366856269246455 3449.89155666853685 14354.29598186811927 
	2758.366173971446187 3409.546836480204092 14390.3499091670401 
	2758.365459818832733 3367.318657056231586 14420.70970726489759 
	2758.364728566582926 3324.079217026743208 14445.67389367762371 
	2758.364023049745811 3282.361549420239498 14464.49778285134016 
	2758.363359246467553 3243.110425126116752 14478.23158293893903 
	2758.362544089086896 3194.909634111746982 14491.14854379753342 
	2758.361498789258803 3133.100365595568746 14500.46604709302119 
	2758.360230246466472 3058.090608700647408 14500.46565080518849 
	2758.359184945128618 2996.281257605526662 14491.14878529262933 
	2758.358369786636558 2948.080382765127524 14478.23205908545606 
	2758.357772364565335 2912.754420535767622 14465.87155155612163 
	2758.357288925777539 2884.168365596656258 14453.39924447843441 
	2758.356959502122663 2864.689321691550504 14443.56575266976506 
	2758.356774023539401 2853.721846049212218 14437.63741252151522 
	2758.356498665935305 2837.439762359609176 14428.4388930958703 
	2758.356096722342954 2813.672573053998804 14413.50497767797424 
	2758.35558746077686 2783.559587103060494 14391.28066537647828 
	2758.355187669827501 2759.919684622843761 14370.93680019680687 
	2758.354883933173824 2741.959528323432551 14353.6359744915826 
	2758.35459134671737 2724.658691837414608 14335.67581909531691 
	2758.354247298345399 2704.314880237880971 14312.0358962039536 
	2758.353871445447567 2682.090445835838636 14281.92296357731902 
	2758.353534704213416 2662.178706865743152 14250.23332170082358 
	2758.353206086143473 2642.747298859320381 14213.46789068907128 
	2758.352905432906937 2624.969469966733413 14171.29387205714738 
	2758.352656550639495 2610.252891902958709 14123.58339221917777 
	2758.352517127030751 2602.008681259698278 14082.80118166192369 
	2758.352447200808911 2597.873896134425195 14049.80452007090025 
	2758.352415678214584 2596.009943781120455 14024.9332390591444 
	2758.352405163944695 2595.388227911246759 13999.99996479956644 
	2758.352415677096815 2596.009877693149974 13975.06666695701279 
	2758.352447203438714 2597.874051883259654 13950.19543020073797 
	2758.352534595672296 2603.04161338870108 13908.94945596409525 
	2758.352754135162286 2616.023130805524488 13852.07148787407459 
	2758.353217588478401 2643.427437261697833 13782.2472615351835 
	2758.353851851225045 2680.931822380092854 13717.28697110282519 
	2758.354467017088609 2717.306991423043655 13671.67479038254351 
	2758.354957883920179 2746.332283235743034 13641.91805844273404 
	2758.355370140851846 2770.709317161677518 13619.29865176860767 
	2758.355920278601843 2803.239333216398791 13593.3575043740293 
	2758.356747782428556 2852.170196241455869 13561.75282010731826 
	2758.357573218733705 2900.978793854771538 13538.24842705656738 
	2758.358369789758399 2948.080577849586462 13521.76851272053864 
	2758.359083051516791 2990.256226344980405 13510.4666241093546 
	2758.359759638995911 3030.263284921567447 13503.66931267691507 
	2758.360390145235669 3067.545545038430191 13500.52505121091235 
	2758.361022641052386 3104.945448151338041 13499.47524975001579 
	2758.361813260028157 3151.695258010426642 13502.10041697322413 
	2758.362645982859249 3200.934694861092794 13510.46669126299821 
	2758.3633592451406 3243.110359926778528 13521.76843210979132 
	2758.364155813905199 3290.212008452266673 13538.24866841678158 
	2758.364917758346564 3335.266239460647284 13559.94466993160313 
	2758.365632311272748 3377.518202654071047 13586.49537136123763 
	2758.366226457252651 3412.650411529508801 13612.42306889377687 
	2758.366856269765321 3449.891588759942806 13645.70384315443516 
	2758.367489459284116 3487.332419673558888 13687.60013552789496 
	2758.368039334534387 3519.846832980052113 13733.42511498163549 
	2758.36849898853643 3547.026339446187194 13782.602256813434 
	2758.368862631086358 3568.528473411625782 13834.5134768606822 
	2758.36912569666265 3584.083491298463741 13888.50570175746543 
	2758.369258339700991 3591.926460905224303 13934.66768203092397 
	2758.369304869478583 3594.67770857001733 13967.28968687520683 
	2758.36931651115583 3595.36605995480204 13983.63926928582441 
	2758.369319421678483 3595.538154036310971 13991.81889225890882 
	2758.369320149405212 3595.581183022455662 13995.90930631052652 
	2758.369320331328254 3595.591939705279401 13997.95458892695933 
	2758.369320383306331 3595.595013143375581 13999.12333259060688 
	2758.369320391971087 3595.595525423144863 13999.70770622921737 
	2758.369320391971087 3595.595525418125362 13999.99989304541123 
	2875.035987040067539 3595.593552387437285 13999.99989304541123 
	2875.035987040064356 3595.593552347282184 14002.3373875749694 
	2875.035986485479953 3595.560765719241772 14007.01237623595443 
	2875.035983159161333 3595.36408395370745 14016.36051614641474 
	2875.035971517535927 3594.675734151875986 14032.71009888024855 
	2875.035924987125782 3591.924449242226274 14065.33209044300565 
	2875.035792345765458 3584.081532102572055 14111.49408086444419 
	2875.035573120037498 3571.118794270167655 14156.48751786914363 
	2875.035347461627225 3557.775531087322634 14191.44193582837761 
	2875.035089026335754 3542.494134304980889 14225.59355539703756 
	2875.034705986443441 3519.844924368015199 14266.57470645332432 
	2875.034156105281454 3487.330215921370382 14312.39945062405423 
	2875.033522917342452 3449.889583637848773 14354.29598186811927 
	2875.03284061954264 3409.544863449516015 14390.3499091670401 
	2875.03212646692873 3367.316684025543509 14420.70970726489759 
	2875.031395214679833 3324.077243996055131 14445.67389367762371 
	2875.030689697841808 3282.359576389551421 14464.49778285134016 
	2875.030025894564005 3243.108452095428675 14478.23158293893903 
	2875.029210737182893 3194.907661081058905 14491.14854379753342 
	2875.028165437355256 3133.098392564880669 14500.46604709302119 
	2875.026896894562469 3058.088635669959331 14500.46565080518849 
	2875.02585159322507 2996.279284574838584 14491.14878529262933 
	2875.025036434733011 2948.078409734439447 14478.23205908545606 
	2875.024439012661787 2912.752447505079544 14465.87155155612163 
	2875.023955573873536 2884.166392565968181 14453.39924447843441 
	2875.023626150219116 2864.687348660862426 14443.56575266976506 
	2875.023440671635399 2853.71987301852414 14437.63741252151522 
	2875.023165314031758 2837.437789328921099 14428.4388930958703 
	2875.022763370439407 2813.670600023310726 14413.50497767797424 
	2875.022254108872858 2783.557614072372417 14391.28066537647828 
	2875.021854317923953 2759.917711592155683 14370.93680019680687 
	2875.021550581270276 2741.957555292744473 14353.6359744915826 
	2875.021257994813823 2724.656718806726531 14335.67581909531691 
	2875.020913946441851 2704.312907207192893 14312.0358962039536 
	2875.020538093543564 2682.088472805150559 14281.92296357731902 
	2875.020201352309869 2662.176733835055074 14250.23332170082358 
	2875.019872734239925 2642.745325828632303 14213.46789068907128 
	2875.019572081003389 2624.967496936045336 14171.29387205714738 
	2875.019323198735947 2610.250918872270631 14123.58339221917777 
	2875.019183775126749 2602.006708229010201 14082.80118166192369 
	2875.019113848905363 2597.871923103737117 14049.80452007090025 
	2875.019082326311036 2596.007970750432378 14024.9332390591444 
	2875.019071812041147 2595.386254880558681 13999.99996479956644 
	2875.019082325193267 2596.007904662461897 13975.06666695701279 
	2875.019113851534712 2597.872078852571576 13950.19543020073797 
	2875.019201243768748 2603.039640358013003 13908.94945596409525 
	2875.019420783258283 2616.021157774836411 13852.07148787407459 
	2875.019884236575308 2643.425464231009755 13782.2472615351835 
	2875.020518499321042 2680.929849349404776 13717.28697110282519 
	2875.021133665185062 2717.305018392355578 13671.67479038254351 
	2875.021624532016631 2746.330310205054957 13641.91805844273404 
	2875.022036788948299 2770.707344130989441 13619.29865176860767 
	2875.022586926698295 2803.237360185710713 13593.3575043740293 
	2875.023414430524554 2852.168223210767792 13561.75282010731826 
	2875.024239866830158 2900.976820824083461 13538.24842705656738 
	2875.025036437854851 2948.078604818898384 13521.76851272053864 
	2875.025749699612788 2990.254253314292328 13510.4666241093546 
	2875.026426287092363 3030.261311890879369 13503.66931267691507 
	2875.027056793331667 3067.543572007742114 13500.52505121091235 
	2875.027689289148839 3104.943475120649964 13499.47524975001579 
	2875.028479908124609 3151.693284979738564 13502.10041697322413 
	2875.029312630955246 3200.932721830404716 13510.46669126299821 
	2875.030025893237053 3243.108386896090451 13521.76843210979132 
	2875.030822462001652 3290.210035421578596 13538.24866841678158 
	2875.031584406442562 3335.264266429959207 13559.94466993160313 
	2875.0322989593692 3377.516229623382969 13586.49537136123763 
	2875.032893105348649 3412.648438498820724 13612.42306889377687 
	2875.033522917861774 3449.889615729254729 13645.70384315443516 
	2875.034156107380568 3487.330446642870811 13687.60013552789496 
	2875.03470598263084 3519.844859949364036 13733.42511498163549 
	2875.035165636632428 3547.024366415499117 13782.602256813434 
	2875.035529279182811 3568.526500380937705 13834.5134768606822 
	2875.035792344758647 3584.081518267775664 13888.50570175746543 
	2875.035924987797443 3591.924487874536226 13934.66768203092397 
	2875.035971517575035 3594.675735539329253 13967.28968687520683 
	2875.035983159252282 3595.364086924113963 13983.63926928582441 
	2875.035986069774935 3595.536181005622893 13991.81889225890882 
	2875.035986797501664 3595.579209991767584 13995.90930631052652 
	2875.035986979424706 3595.589966674591324 13997.95458892695933 
	2875.035987031402783 3595.593040112687504 13999.12333259060688 
	2875.035987040067539 3595.593552392456786 13999.70770622921737 
	2875.035987040067539 3595.593552387437285 13999.99989304541123 
	2991.702653692213062 3595.591579356747388 13999.99989304541123 
	2991.702653692209878 3595.591579316592288 14002.3373875749694 
	2991.702653137612288 3595.558792688551875 14007.01237623595443 
	2991.702649811280025 3595.362110923018008 14016.36051614641474 
	2991.702638169596412 3594.67376112118518 14032.71009888024855 
	2991.70259163899118 3591.922476211536377 14065.33209044300565 
	2991.702458997077883 3584.079559071882159 14111.49408086444419 
	2991.702239770854248 3571.116821239478668 14156.48751786914363 
	2991.70201411228436 3557.773558056633192 14191.44193582837761 
	2991.701755676862831 3542.492161274291448 14225.59355539703756 
	2991.701372636535325 3519.842951337327122 14266.57470645332432 
	2991.700822755063655 3487.32824289068185 14312.39945062405423 
	2991.700189566679455 3449.88761060716115 14354.29598186811927 
	2991.699507268837351 3409.542890418827938 14390.3499091670401 
	2991.69879311588511 3367.314710994855432 14420.70970726489759 
	2991.69806186361393 3324.075270965367054 14445.67389367762371 
	2991.697356346711331 3282.357603358862889 14464.49778285134016 
	2991.696692543387144 3243.106479064739688 14478.23158293893903 
	2991.695877385947369 3194.905688050370372 14491.14854379753342 
	2991.69483208605061 3133.096419534191682 14500.46604709302119 
	2991.693563543142773 3058.086662639271253 14500.46565080518849 
	2991.692518241721245 2996.277311544150507 14491.14878529262933 
	2991.691703083209177 2948.076436703751824 14478.23205908545606 
	2991.691105661101119 2912.750474474391467 14465.87155155612163 
	2991.690622222281945 2884.164419535280103 14453.39924447843441 
	2991.69029279861843 2864.685375630174804 14443.56575266976506 
	2991.690107320032439 2853.717899987836518 14437.63741252151522 
	2991.68983196242516 2837.435816298233476 14428.4388930958703 
	2991.689430018805069 2813.668626992622649 14413.50497767797424 
	2991.688920757235792 2783.555641041684339 14391.28066537647828 
	2991.688520966259148 2759.915738561467606 14370.93680019680687 
	2991.688217229602287 2741.955582262056396 14353.6359744915826 
	2991.687924643139468 2724.654745776038453 14335.67581909531691 
	2991.687580594754309 2704.31093417650527 14312.0358962039536 
	2991.68720474184147 2682.086499774462936 14281.92296357731902 
	2991.686868000601862 2662.174760804367452 14250.23332170082358 
	2991.68653938252055 2642.743352797944681 14213.46789068907128 
	2991.686238729273555 2624.965523905357713 14171.29387205714738 
	2991.685989847001565 2610.248945841583463 14123.58339221917777 
	2991.685850423385546 2602.004735198322578 14082.80118166192369 
	2991.685780497161886 2597.869950073049495 14049.80452007090025 
	2991.685748974567105 2596.0059977197443 14024.9332390591444 
	2991.685738460297216 2595.384281849870604 13999.99996479956644 
	2991.68574897344979 2596.005931631773365 13975.06666695701279 
	2991.685780499792145 2597.870105821883044 13950.19543020073797 
	2991.685867892029364 2603.037667327323561 13908.94945596409525 
	2991.686087431528449 2616.019184744147424 13852.07148787407459 
	2991.68655088486139 2643.423491200320314 13782.2472615351835 
	2991.687185147627133 2680.92787631871488 13717.28697110282519 
	2991.687800313517982 2717.303045361665681 13671.67479038254351 
	2991.688291180356373 2746.328337174365515 13641.91805844273404 
	2991.688703437294407 2770.705371100299544 13619.29865176860767 
	2991.689253575063503 2803.235387155021726 13593.3575043740293 
	2991.69008107890977 2852.16625018007835 13561.75282010731826 
	2991.69090651525994 2900.974847793393565 13538.24842705656738 
	2991.691703086307371 2948.076631788208488 13521.76851272053864 
	2991.692416348091683 2990.252280283602886 13510.4666241093546 
	2991.693092935625828 3030.259338860189018 13503.66931267691507 
	2991.693723441885595 3067.541598977052672 13500.52505121091235 
	2991.694355937725504 3104.941502089960068 13499.47524975001579 
	2991.695146556778582 3151.691311949048668 13502.10041697322413 
	2991.695979279693802 3200.930748799715275 13510.46669126299821 
	2991.696692542030632 3243.106413865400555 13521.76843210979132 
	2991.697489110821607 3290.208062390889154 13538.24866841678158 
	2991.698251055413039 3335.262293399269311 13559.94466993160313 
	2991.698965608435174 3377.514256592693528 13586.49537136123763 
	2991.699559754529218 3412.646465468130828 13612.42306889377687 
	2991.700189567195139 3449.887642698565742 13645.70384315443516 
	2991.700822756933576 3487.328473612181369 13687.60013552789496 
	2991.701372632377115 3519.842886918674139 13733.42511498163549 
	2991.701832286704757 3547.02239338480922 13782.602256813434 
	2991.702195929899972 3568.524527350246899 13834.5134768606822 
	2991.702458995972847 3584.079545237085313 13888.50570175746543 
	2991.70259163966557 3591.922514843845875 13934.66768203092397 
	2991.70263816963552 3594.673762508639356 13967.28968687520683 
	2991.702649811375977 3595.362113893423157 13983.63926928582441 
	2991.702652721913637 3595.534207974932087 13991.81889225890882 
	2991.702653449644913 3595.577236961076778 13995.90930631052652 
	2991.702653631569774 3595.587993643900973 13997.95458892695933 
	2991.702653683549215 3595.591067081997153 13999.12333259060688 
	2991.702653692213516 3595.591579361766435 13999.70770622921737 
	2991.702653692213062 3595.591579356747388 13999.99989304541123 
	3108.369320340309969 3595.589606326059311 13999.99989304541123 
	3108.369320340306786 3595.58960628590421 14002.3373875749694 
	3108.369319785709195 3595.556819657863798 14007.01237623595443 
	3108.369316459376932 3595.360137892329931 14016.36051614641474 
	3108.369304817693319 3594.671788090497103 14032.71009888024855 
	3108.369258287088087 3591.9205031808483 14065.33209044300565 
	3108.36912564517479 3584.077586041194081 14111.49408086444419 
	3108.368906418951156 3571.11484820879059 14156.48751786914363 
	3108.368680760381267 3557.771585025945114 14191.44193582837761 
	3108.368422324959738 3542.49018824360337 14225.59355539703756 
	3108.368039284632232 3519.840978306639045 14266.57470645332432 
	3108.367489403160562 3487.326269859993772 14312.39945062405423 
	3108.366856214776362 3449.885637576473073 14354.29598186811927 
	3108.366173916934258 3409.54091738813986 14390.3499091670401 
	3108.365459763982017 3367.312737964167354 14420.70970726489759 
	3108.364728511710837 3324.073297934678976 14445.67389367762371 
	3108.364022994808238 3282.355630328174811 14464.49778285134016 
	3108.363359191484051 3243.10450603405161 14478.23158293893903 
	3108.362544034044276 3194.903715019682295 14491.14854379753342 
	3108.361498734147517 3133.094446503503605 14500.46604709302119 
	3108.36023019123968 3058.084689608583176 14500.46565080518849 
	3108.359184889818152 2996.27533851346243 14491.14878529262933 
	3108.358369731306084 2948.074463673063747 14478.23205908545606 
	3108.357772309198026 2912.74850144370339 14465.87155155612163 
	3108.357288870378852 2884.162446504592026 14453.39924447843441 
	3108.356959446715337 2864.683402599486726 14443.56575266976506 
	3108.356773968129346 2853.71592695714844 14437.63741252151522 
	3108.356498610522067 2837.433843267545399 14428.4388930958703 
	3108.356096666901976 2813.666653961934571 14413.50497767797424 
	3108.355587405332244 2783.553668010996262 14391.28066537647828 
	3108.355187614356055 2759.913765530779528 14370.93680019680687 
	3108.354883877699194 2741.953609231368318 14353.6359744915826 
	3108.354591291236375 2724.652772745350376 14335.67581909531691 
	3108.354247242851216 2704.308961145817193 14312.0358962039536 
	3108.353871389938377 2682.084526743774859 14281.92296357731902 
	3108.353534648698769 2662.172787773679374 14250.23332170082358 
	3108.353206030617457 2642.741379767256603 14213.46789068907128 
	3108.352905377370462 2624.963550874669636 14171.29387205714738 
	3108.352656495098472 2610.246972810895386 14123.58339221917777 
	3108.352517071482453 2602.002762167634501 14082.80118166192369 
	3108.352447145258793 2597.867977042361417 14049.80452007090025 
	3108.352415622664012 2596.004024689056223 14024.9332390591444 
	3108.352405108394123 2595.382308819182526 13999.99996479956644 
	3108.352415621546697 2596.003958601085287 13975.06666695701279 
	3108.352447147889052 2597.868132791194967 13950.19543020073797 
	3108.352534540126271 2603.035694296635484 13908.94945596409525 
	3108.352754079624901 2616.017211713459346 13852.07148787407459 
	3108.353217532958752 2643.421518169632236 13782.2472615351835 
	3108.353851795723585 2680.925903288026802 13717.28697110282519 
	3108.354466961615344 2717.301072330977604 13671.67479038254351 
	3108.35495782845328 2746.326364143677438 13641.91805844273404 
	3108.355370085391314 2770.703398069611467 13619.29865176860767 
	3108.35592022316041 2803.233414124333649 13593.3575043740293 
	3108.356747727006677 2852.164277149390273 13561.75282010731826 
	3108.357573163356847 2900.972874762705487 13538.24842705656738 
	3108.358369734404278 2948.07465875752041 13521.76851272053864 
	3108.35908299618859 2990.250307252914808 13510.4666241093546 
	3108.359759583722735 3030.257365829500941 13503.66931267691507 
	3108.360390089982502 3067.539625946364595 13500.52505121091235 
	3108.361022585822411 3104.93952905927199 13499.47524975001579 
	3108.361813204875489 3151.68933891836059 13502.10041697322413 
	3108.362645927790709 3200.928775769027197 13510.46669126299821 
	3108.363359190127539 3243.104440834712477 13521.76843210979132 
	3108.364155758918514 3290.206089360201076 13538.24866841678158 
	3108.364917703509946 3335.260320368581233 13559.94466993160313 
	3108.365632256532081 3377.51228356200545 13586.49537136123763 
	3108.366226402626125 3412.64449243744275 13612.42306889377687 
	3108.366856215292046 3449.885669667877664 13645.70384315443516 
	3108.367489405030483 3487.326500581493292 13687.60013552789496 
	3108.368039280474022 3519.840913887986062 13733.42511498163549 
	3108.368498934801664 3547.020420354121143 13782.602256813434 
	3108.368862577996879 3568.522554319558822 13834.5134768606822 
	3108.369125644069754 3584.077572206397235 13888.50570175746543 
	3108.369258287762023 3591.920541813157797 13934.66768203092397 
	3108.369304817732882 3594.671789477951279 13967.28968687520683 
	3108.369316459472884 3595.360140862735079 13983.63926928582441 
	3108.369319370010544 3595.53223494424401 13991.81889225890882 
	3108.36932009774182 3595.575263930388701 13995.90930631052652 
	3108.369320279666681 3595.586020613212895 13997.95458892695933 
	3108.369320331646122 3595.589094051309075 13999.12333259060688 
	3108.369320340310423 3595.589606331078357 13999.70770622921737 
	3108.369320340309969 3595.589606326059311 13999.99989304541123 
	0 
	
	0 
	0 
	79 0 0.002232142857142857019 0.004464285714285714038 0.008928571428571428076 0.01785714285714285615 0.0357142857142857123 0.05357142857142856845 0.0625 0.07142857142857142461 0.08928571428571427382 0.1071428571428571369 0.125 0.1428571428571428492 0.1587301587301587213 0.1746031746031745935 0.1904761904761904656 0.2023809523809523836 0.2142857142857142738 0.238095238095238082 0.2619047619047618625 0.2857142857142856984 0.2976190476190476164 0.3095238095238095344 0.3214285714285713969 0.3273809523809523281 0.3303571428571427937 0.3333333333333333148 0.3452380952380952328 0.3571428571428570953 0.3690476190476190133 0.375 0.3809523809523809312 0.3928571428571428492 0.4047619047619047672 0.4166666666666666297 0.4285714285714285476 0.4444444444444444198 0.4603174603174602919 0.476190476190476164 0.4841269841269840724 0.4920634920634920362 0.5 0.5079365079365079083 0.5158730158730158166 0.5238095238095237249 0.5476190476190475609 0.5714285714285713969 0.5952380952380951218 0.6190476190476189577 0.6269841269841269771 0.6349206349206348854 0.650793650793650702 0.6666666666666666297 0.6904761904761904656 0.7023809523809523281 0.7142857142857141906 0.7321428571428569843 0.7410714285714283811 0.749999999999999889 0.7678571428571427937 0.7857142857142855874 0.7976190476190474499 0.8095238095238094234 0.8333333333333332593 0.8452380952380951218 0.8571428571428570953 0.875 0.8928571428571427937 0.9107142857142856984 0.9285714285714286031 0.9464285714285713969 0.9642857142857143016 0.9821428571428572063 0.9910714285714286031 0.9955357142857143016 0.9977678571428572063 0.9988839285714286031 0.9994419642857143016 0.9997209821428572063 
	0 
	0 
	0 
	F 1 F 0 F 1 F 0 } I I I I #
tcoedge-coedge $-1 -1 $-1 $14 $14 $18 $19 reversed $9 $20 -6.283185307179586232 -0 #
tcoedge-coedge $-1 -1 $-1 $21 $22 $11 $16 reversed $12 $23 -6.283185307179586232 -0 #
tedge-edge $-1 -1 $-1 $24 0 $24 6.283185307179586232 $15 $25 forward @7 unknown 0.0007727611913123343113 #
pcurve $-1 -1 $-1 0 forward { exppc nurbs 2 periodic 5 
	0 2 1.570796326794896558 2 3.141592653589793116 2 4.712388980384689674 2 6.283185307179586232 2 
	0 500 1 
	-500 500 0.7071067811865451302 
	-500 0 1 
	-500 -500 0.7071067811865451302 
	0 -500 1 
	500 -500 0.7071067811865451302 
	500 0 1 
	500 500 0.7071067811865451302 
	0 500 1 
	0 
	plane 3108.36086445717774 3095.58952616123679 14000 0.9999999998569973902 -1.691169161366488208e-05 0 0 0 -1 forward_v I I I I 
	} 0 0 #
tcoedge-coedge $-1 -1 $-1 $22 $21 $14 $19 forward $12 $26 0 6.283185307179586232 #
tedge-edge $-1 -1 $-1 $27 0 $27 6.283185307179586232 $18 $28 forward @7 unknown 0.0007727611892781245965 #
pcurve $-1 -1 $-1 0 forward { exppc nurbs 2 periodic 5 
	-6.283185307179586232 2 -4.712388980384689674 2 -3.141592653589793116 2 -1.570796326794896558 2 0 2 
	0 500 1 
	500 500 0.7071067811865451302 
	500 0 1 
	500 -500 0.7071067811865451302 
	0 -500 1 
	-500 -500 0.7071067811865451302 
	-500 0 1 
	-500 500 0.7071067811865451302 
	0 500 1 
	0 
	plane 2758.360864512888838 3095.595445253301477 14000 -0.9999999998569973902 1.691169161366488208e-05 -0 0 0 -1 reverse_v I I I I 
	} 0 0 #
coedge $-1 -1 $-1 $18 $15 $22 $29 reversed $12 $30 #
coedge $-1 -1 $-1 $15 $18 $21 $29 forward $12 $31 #
pcurve $-1 -1 $-1 0 forward { exppc nubs 1 periodic 2 
	-6.283185307179586232 1 -0 1 
	1 1 
	0 1 
	4.411402399617608535e-13 
	spline forward { ref 0 } I I I I 
	} 0 0 #
tvertex-vertex $-1 -1 $-1 $16 $32 0.0001337054815090770983 #
ellipse-curve $-1 -1 $-1 3108.36086445717774 3095.58952616123679 14000 0.9999999998569973902 -1.691169161366488208e-05 0 0.008455845806832441164 499.9999999284987666 0 1 I I #
pcurve $-1 -1 $-1 0 forward { exppc nubs 1 periodic 2 
	0 1 6.283185307179586232 1 
	0 0 
	1 0 
	2.72639662171397195e-13 
	spline forward { ref 0 } I I I I 
	} 0 0 #
tvertex-vertex $-1 -1 $-1 $19 $33 0.0001337054812585009272 #
ellipse-curve $-1 -1 $-1 2758.360864512888838 3095.595445253301477 14000 0.9999999998569973902 -1.691169161366488208e-05 0 0.008455845806832441164 499.9999999284987666 0 1 I I #
edge $-1 -1 $-1 $27 0 $24 0.999999999897233538 $22 $34 forward @7 tangent #
pcurve $-1 -1 $-1 -1 $34 0 0 #
pcurve $-1 -1 $-1 1 $34 1 0 #
point $-1 -1 $-1 3108.369320302984761 3595.5895260897355 14000 #
point $-1 -1 $-1 2758.369320358695859 3595.595445181800187 14000 #
intcurve-curve $-1 -1 $-1 forward { parcur full nubs 3 open 2 
	0 3 1 3 
	2758.369320391971087 3595.595525418125362 13999.99989304541123 
	2875.035987040067539 3595.593552387437285 13999.99989304541123 
	2991.702653692213062 3595.591579356747388 13999.99989304541123 
	3108.369320340309969 3595.589606326059311 13999.99989304541123 
	0 
	
	spline forward { ref 0 } I I I I 
	null_surface 
	nubs 1 open 2 
	0 1 1 1 
	0 0 
	0 1 
	
	nullbs 
	I I 
	0 
	0 
	0 
	surf1 } F 0 F 0.999999999897233538 #
End-of-ACIS-data 