700 0 1 0           
4 LibG 20 ASM 224.0.1.65535 NT 24 Wed Jul 17 15:51:16 2019 
1000 9.999999999999999547e-07 1.000000000000000036e-10 
body $-1 -1 $-1 $1 $-1 $2 #
lump $-1 -1 $-1 $-1 $3 $0 #
transform $-1 -1 1 0 0 0 1 0 0 0 1 0 0 0 1 no_rotate no_reflect no_shear #
shell $-1 -1 $-1 $-1 $-1 $4 $-1 $1 #
face $-1 -1 $-1 $5 $6 $3 $-1 $7 forward single #
face $-1 -1 $-1 $8 $9 $3 $-1 $10 reversed single #
loop $-1 -1 $-1 $-1 $11 $4 #
plane-surface $-1 -1 $-1 2058.36086462430967 3095.607283437431306 14000.00000000000182 0.9999999998569973902 -1.691169161366488208e-05 0 0 0 -1 forward_v I I I I #
face $-1 -1 $-1 $-1 $12 $3 $-1 $13 forward single #
loop $-1 -1 $-1 $-1 $14 $5 #
plane-surface $-1 -1 $-1 1708.360864680020313 3095.613202529495993 14000.00000000000182 0.9999999998569973902 -1.691169161366488208e-05 0 0 0 -1 forward_v I I I I #
tcoedge-coedge $-1 -1 $-1 $11 $11 $15 $16 forward $6 $17 0 6.283185307179586232 #
loop $-1 -1 $-1 $-1 $18 $8 #
spline-surface $-1 -1 $-1 forward { exactsur full nubs 3 3 periodic open none none 88 2 
	0 3 0.004464285714285714038 1 0.008928571428571428076 1 0.01785714285714285615 1 0.02678571428571428423 1 
	0.0357142857142857123 1 0.05357142857142856845 1 0.0625 1 0.07142857142857142461 1 0.08928571428571427382 1 
	0.09821428571428569843 1 0.1026785714285714246 1 0.1071428571428571369 1 0.125 1 0.1428571428571428492 1 
	0.1587301587301587213 1 0.1746031746031745935 1 0.1785714285714285476 1 0.1825396825396825295 1 0.1904761904761904656 1 
	0.2142857142857142738 1 0.226190476190476164 1 0.238095238095238082 1 0.2410714285714285476 1 0.2440476190476190133 1 
	0.2470238095238094789 1 0.2499999999999999722 1 0.2619047619047618625 1 0.2738095238095237804 1 0.2857142857142856984 1 
	0.3095238095238095344 1 0.3333333333333333148 1 0.3452380952380952328 1 0.3571428571428570953 1 0.3630952380952380265 1 
	0.3690476190476190133 1 0.3720238095238095344 1 0.375 1 0.3809523809523809312 1 0.3928571428571428492 1 
	0.4047619047619047672 1 0.4285714285714285476 1 0.4444444444444444198 1 0.4603174603174602919 1 0.476190476190476164 1 
	0.4841269841269840724 1 0.4920634920634920362 1 0.5 1 0.5079365079365079083 1 0.5238095238095237249 1 
	0.5476190476190475609 1 0.5714285714285713969 1 0.5773809523809523281 1 0.5833333333333332593 1 0.5952380952380951218 1 
	0.6190476190476189577 1 0.6269841269841269771 1 0.6349206349206348854 1 0.650793650793650702 1 0.6666666666666666297 1 
	0.6904761904761904656 1 0.7023809523809523281 1 0.7142857142857141906 1 0.7321428571428569843 1 0.749999999999999889 1 
	0.7678571428571427937 1 0.7857142857142855874 1 0.7976190476190474499 1 0.8095238095238094234 1 0.8333333333333332593 1 
	0.8452380952380951218 1 0.851190476190476053 1 0.8541666666666665186 1 0.8571428571428570953 1 0.875 1 
	0.8928571428571427937 1 0.9107142857142856984 1 0.9285714285714286031 1 0.9464285714285713969 1 0.9642857142857143016 1 
	0.9821428571428572063 1 0.9866071428571429047 1 0.9910714285714286031 1 0.9955357142857143016 1 0.9977678571428572063 1 
	0.9988839285714286031 1 0.9994419642857143016 1 1 3 
	0 3 1 3 
	1708.369320528548542 3595.613273536494944 13999.99994414115463 
	1708.369320528544677 3595.613273329777712 14004.67493319270034 
	1708.369318310650669 3595.482129006745254 14014.02491181548612 
	1708.369305007274761 3594.695492407896381 14032.71015295892539 
	1708.369271769343641 3592.73011506854391 14056.01156560261916 
	1708.369205428197574 3588.807321419470099 14083.7969726238789 
	1708.369081992255815 3581.508472618119413 14120.49279051194389 
	1708.368906620385587 3571.138626602702061 14156.48758653609548 
	1708.368680961306382 3557.795252513218657 14191.44197972897018 
	1708.368422528522387 3542.513946769121048 14225.59365476330095 
	1708.368116095882897 3524.39438355704533 14258.37840925622913 
	1708.367808497874876 3506.205903118576316 14285.59870228532236 
	1708.367621876830754 3495.170872735910962 14300.69787132454076 
	1708.367331314986359 3477.989751284452268 14322.87359782480235 
	1708.366856426923277 3449.909299536749586 14354.29595159173186 
	1708.36617412855253 3409.564531274991168 14390.34987148310211 
	1708.365459979354682 3367.336401346979073 14420.70966092102935 
	1708.364911542013942 3334.906924642112244 14439.43298060539928 
	1708.364533915955235 3312.577635547642785 14450.53110407825079 
	1708.364279124064296 3297.511615441121194 14457.55634637734329 
	1708.363696120218719 3263.038196879330371 14472.08963513548406 
	1708.362955346897934 3219.235761727018598 14485.60041421937058 
	1708.36212613433986 3170.203851401185602 14494.87631245611192 
	1708.36165441793878 3142.310936553953979 14498.01951166475374 
	1708.361338832979754 3123.650180185029058 14499.24249537100877 
	1708.36118087499608 3114.310015641726295 14499.67948876927221 
	1708.361022806288929 3104.963303956256368 14499.94171906996962 
	1708.360706558537913 3086.263356273514546 14500.11658346241165 
	1708.36023218614946 3058.213390770763908 14499.06724833290355 
	1708.359603229614777 3021.022757729801469 14494.87632411658342 
	1708.358774019421844 2971.990988123355237 14485.60045243493005 
	1708.35776386595694 2912.259918097495301 14467.17693328858149 
	1708.356811448280723 2855.94280483123066 14440.05481660888836 
	1708.356096895521205 2813.690807938181479 14413.5043725659707 
	1708.355672507679628 2788.596462218270972 14394.98447186792691 
	1708.355347756465562 2769.393699049277075 14379.07407835907361 
	1708.355151215296473 2757.772084165248089 14368.68842910773856 
	1708.35499800537923 2748.71267605932826 14360.12350437537862 
	1708.354847531461473 2739.815049468254983 14351.39066022488441 
	1708.354591515284255 2724.676636374825648 14335.67563765335763 
	1708.354247476221417 2704.333369272569598 14312.03540584955408 
	1708.353746314713135 2674.699343718614273 14271.88572065035441 
	1708.353288228528982 2647.612391835782091 14224.97057293198304 
	1708.352905598902908 2624.987238206467282 14171.29385600884052 
	1708.352656709542316 2610.270238552050159 14123.5836613775391 
	1708.352517289347588 2602.026226394751575 14082.80128933758169 
	1708.352447362699877 2597.89141552529054 14049.80465656128399 
	1708.352415841047559 2596.02751849940023 14024.93336425640518 
	1708.352405326078951 2595.405761204105602 14000.00007312046182 
	1708.352419346665101 2596.234808146124124 13966.75571945143565 
	1708.352503399909438 2601.204934507201415 13917.0750679819721 
	1708.352754294856823 2616.04052582041777 13852.07144921142026 
	1708.353101894707379 2636.594344759281284 13799.70354806455907 
	1708.353386991040907 2653.452287679439451 13766.31111300639168 
	1708.353590993044236 2665.515066931729962 13744.48513709708277 
	1708.353983844898039 2688.744668132001152 13707.5132236292884 
	1708.354467178237201 2717.324501387763121 13671.67476050057667 
	1708.354958047739501 2746.349953821113559 13641.91809864863535 
	1708.35537030371097 2770.726933839445792 13619.29864983629523 
	1708.355920442928891 2803.257045345856113 13593.35758229272869 
	1708.356747946376117 2852.187894942492221 13561.75287981330621 
	1708.357573382696728 2900.996513375738687 13538.24849570604601 
	1708.358369953510646 2948.098295056662209 13521.76854855993224 
	1708.359083215315422 2990.273957350009368 13510.46673332954197 
	1708.35991593750532 3039.513394104154486 13502.10054936327106 
	1708.360864680055784 3095.613194688006388 13498.95007062854347 
	1708.361813422858404 3151.713009992527986 13502.10050726212285 
	1708.36264614465631 3200.952423177659057 13510.46671345961295 
	1708.363359407128655 3243.128124348952952 13521.76841740453892 
	1708.364155975858239 3290.229782686670205 13538.24865742685688 
	1708.364917919764366 3335.284049024459819 13559.94456635410643 
	1708.365543151404154 3372.254425997704402 13583.17667001117115 
	1708.365844112223613 3390.050446079425001 13595.80322548758522 
	1708.366012575826971 3400.011815057599506 13603.30002964584855 
	1708.366344705750407 3419.650885987214679 13618.66326943939384 
	1708.366856427331868 3449.909329179405631 13645.70383798613329 
	1708.367489614852047 3487.350137810532487 13687.60018494529504 
	1708.368039490051842 3519.864628991088466 13733.42510335877887 
	1708.368499138143079 3547.043929370452133 13782.60236985678421 
	1708.368862777822642 3568.546183605870738 13834.51352674457667 
	1708.369125838462878 3584.101131570131201 13888.50577827194684 
	1708.369245214365947 3591.159898189848718 13930.05153551381409 
	1708.369291711939468 3593.909330018703258 13957.96917413013944 
	1708.369308333403751 3594.89216778054697 13971.96104170875878 
	1708.369316647696223 3595.383796535578767 13983.63932207152902 
	1708.369319558331881 3595.555904090168042 13991.81894308324263 
	1708.369320285987669 3595.598930768886021 13995.90935747052936 
	1708.369320493895657 3595.611224490426139 13998.24682325494541 
	1708.369320528548997 3595.613273562334598 13999.41557050971096 
	1708.369320528548542 3595.613273536494944 13999.99994414115463 
	1825.035987176644994 3595.611300505806867 13999.99994414115463 
	1825.035987176641129 3595.611300299089635 14004.67493319270034 
	1825.035984958747122 3595.480155976057176 14014.02491181548612 
	1825.035971655371213 3594.693519377208304 14032.71015295892539 
	1825.035938417439866 3592.728142037855832 14056.01156560261916 
	1825.035872076294254 3588.805348388782022 14083.7969726238789 
	1825.035748640352267 3581.506499587431335 14120.49279051194389 
	1825.03557326848204 3571.136653572013984 14156.48758653609548 
	1825.035347609402834 3557.793279482530579 14191.44197972897018 
	1825.03508917661884 3542.511973738432971 14225.59365476330095 
	1825.034782743979349 3524.392410526357253 14258.37840925622913 
	1825.034475145971328 3506.203930087888239 14285.59870228532236 
	1825.034288524927206 3495.168899705222884 14300.69787132454076 
	1825.033997963082811 3477.987778253764191 14322.87359782480235 
	1825.033523075019957 3449.907326506061509 14354.29595159173186 
	1825.032840776648754 3409.562558244303091 14390.34987148310211 
	1825.032126627451362 3367.334428316290996 14420.70966092102935 
	1825.031578190110167 3334.904951611424167 14439.43298060539928 
	1825.031200564051915 3312.575662516954708 14450.53110407825079 
	1825.030945772160521 3297.509642410433116 14457.55634637734329 
	1825.030362768315399 3263.036223848642294 14472.08963513548406 
	1825.029621994994159 3219.233788696330521 14485.60041421937058 
	1825.02879278243654 3170.201878370497525 14494.87631245611192 
	1825.028321066035005 3142.308963523265902 14498.01951166475374 
	1825.028005481076434 3123.64820715434098 14499.24249537100877 
	1825.027847523092532 3114.308042611038218 14499.67948876927221 
	1825.027689454385381 3104.961330925568291 14499.94171906996962 
	1825.027373206634365 3086.261383242826469 14500.11658346241165 
	1825.026898834245912 3058.211417740075831 14499.06724833290355 
	1825.026269877711229 3021.020784699113392 14494.87632411658342 
	1825.025440667518296 2971.989015092667159 14485.60045243493005 
	1825.024430514053392 2912.257945066807224 14467.17693328858149 
	1825.023478096377175 2855.940831800542583 14440.05481660888836 
	1825.022763543617657 2813.688834907493401 14413.5043725659707 
	1825.022339155776081 2788.594489187582894 14394.98447186792691 
	1825.022014404562015 2769.391726018588997 14379.07407835907361 
	1825.021817863392926 2757.770111134560011 14368.68842910773856 
	1825.021664653475682 2748.710703028640182 14360.12350437537862 
	1825.021514179558153 2739.813076437566906 14351.39066022488441 
	1825.021258163380708 2724.674663344137571 14335.67563765335763 
	1825.020914124317869 2704.331396241881521 14312.03540584955408 
	1825.020412962809587 2674.697370687926195 14271.88572065035441 
	1825.019954876625434 2647.610418805094014 14224.97057293198304 
	1825.01957224699936 2624.985265175779205 14171.29385600884052 
	1825.019323357638768 2610.268265521362082 14123.5836613775391 
	1825.019183937444041 2602.024253364063497 14082.80128933758169 
	1825.019114010796329 2597.889442494602463 14049.80465656128399 
	1825.019082489144012 2596.025545468712153 14024.93336425640518 
	1825.019071974175404 2595.403788173417524 14000.00007312046182 
	1825.019085994761781 2596.232835115436046 13966.75571945143565 
	1825.019170048005662 2601.202961476513337 13917.0750679819721 
	1825.01942094295373 2616.038552789729692 13852.07144921142026 
	1825.019768542803604 2636.592371728593207 13799.70354806455907 
	1825.020053639137359 2653.450314648751373 13766.31111300639168 
	1825.020257641140688 2665.513093901041884 13744.48513709708277 
	1825.020650492994491 2688.742695101313075 13707.5132236292884 
	1825.021133826333653 2717.322528357075043 13671.67476050057667 
	1825.021624695835953 2746.347980790425481 13641.91809864863535 
	1825.022036951807422 2770.724960808757714 13619.29864983629523 
	1825.022587091025571 2803.255072315168036 13593.35758229272869 
	1825.023414594472115 2852.185921911804144 13561.75287981330621 
	1825.024240030793408 2900.994540345050609 13538.24849570604601 
	1825.025036601607098 2948.096322025974132 13521.76854855993224 
	1825.025749863411875 2990.271984319321291 13510.46673332954197 
	1825.026582585602 3039.511421073466408 13502.10054936327106 
	1825.027531328152008 3095.61122165731831 13498.95007062854347 
	1825.028480070955084 3151.711036961839909 13502.10050726212285 
	1825.029312792752535 3200.950450146970979 13510.46671345961295 
	1825.030026055225335 3243.126151318264874 13521.76841740453892 
	1825.030822623954691 3290.227809655982128 13538.24865742685688 
	1825.031584567861046 3335.282075993771741 13559.94456635410643 
	1825.032209799500606 3372.252452967016325 13583.17667001117115 
	1825.032510760320065 3390.048473048736923 13595.80322548758522 
	1825.032679223923424 3400.009842026911429 13603.30002964584855 
	1825.033011353846859 3419.648912956526601 13618.66326943939384 
	1825.03352307542832 3449.907356148717554 13645.70383798613329 
	1825.0341562629485 3487.34816477984441 13687.60018494529504 
	1825.034706138148294 3519.862655960400389 13733.42510335877887 
	1825.035165786239531 3547.041956339764056 13782.60236985678421 
	1825.035529425919094 3568.54421057518266 13834.51352674457667 
	1825.03579248655933 3584.099158539443124 13888.50577827194684 
	1825.035911862462399 3591.157925159160641 13930.05153551381409 
	1825.03595836003592 3593.907356988015181 13957.96917413013944 
	1825.035974981500203 3594.890194749858892 13971.96104170875878 
	1825.035983295792676 3595.38182350489069 13983.63932207152902 
	1825.035986206428333 3595.553931059479964 13991.81894308324263 
	1825.035986934084121 3595.596957738197943 13995.90935747052936 
	1825.035987141992109 3595.609251459738061 13998.24682325494541 
	1825.035987176645449 3595.611300531646521 13999.41557050971096 
	1825.035987176644994 3595.611300505806867 13999.99994414115463 
	1941.702653825052721 3595.609327475118334 13999.99994414115463 
	1941.702653825048856 3595.609327268401557 14004.67493319270034 
	1941.702651607150301 3595.478182945368644 14014.02491181548612 
	1941.7026383037703 3594.691546346521591 14032.71015295892539 
	1941.702605065823491 3592.726169007167755 14056.01156560261916 
	1941.702538724663782 3588.803375358094854 14083.7969726238789 
	1941.70241528870929 3581.504526556743258 14120.49279051194389 
	1941.702239916791541 3571.134680541325906 14156.48758653609548 
	1941.702014257701876 3557.791306451842502 14191.44197972897018 
	1941.701755824906741 3542.510000707745348 14225.59365476330095 
	1941.701449392231325 3524.390437495668266 14258.37840925622913 
	1941.701141794216255 3506.201957057199706 14285.59870228532236 
	1941.700955173168722 3495.166926674534352 14300.69787132454076 
	1941.700664611321372 3477.985805223075658 14322.87359782480235 
	1941.700189723233052 3449.905353475372522 14354.29595159173186 
	1941.699507424844114 3409.560585213614104 14390.34987148310211 
	1941.698793275627395 3367.332455285602919 14420.70966092102935 
	1941.698244838281198 3334.902978580735635 14439.43298060539928 
	1941.69786721221999 3312.573689486266176 14450.53110407825079 
	1941.697612420328824 3297.507669379744129 14457.55634637734329 
	1941.697029416478017 3263.034250817952852 14472.08963513548406 
	1941.696288643149046 3219.231815665641534 14485.60041421937058 
	1941.695459430587107 3170.199905339808083 14494.87631245611192 
	1941.69498771418148 3142.306990492576915 14498.01951166475374 
	1941.694672129221772 3123.646234123651084 14499.24249537100877 
	1941.694514171238097 3114.306069580348776 14499.67948876927221 
	1941.694356102530264 3104.959357894878849 14499.94171906996962 
	1941.694039854779021 3086.259410212137027 14500.11658346241165 
	1941.693565482385793 3058.209444709386844 14499.06724833290355 
	1941.692936525847927 3021.018811668424405 14494.87632411658342 
	1941.692107315649309 2971.987042061978627 14485.60045243493005 
	1941.691097162178494 2912.255972036118237 14467.17693328858149 
	1941.690144744497275 2855.93885876985405 14440.05481660888836 
	1941.689430191733891 2813.686861876804869 14413.5043725659707 
	1941.689005803891632 2788.592516156894362 14394.98447186792691 
	1941.688681052676429 2769.38975298790001 14379.07407835907361 
	1941.688484511506658 2757.768138103871934 14368.68842910773856 
	1941.688331301589642 2748.70872999795165 14360.12350437537862 
	1941.688180827671204 2739.811103406878829 14351.39066022488441 
	1941.687924811493531 2724.672690313449493 14335.67563765335763 
	1941.687580772429556 2704.329423211193898 14312.03540584955408 
	1941.687079610920136 2674.695397657238118 14271.88572065035441 
	1941.686621524733937 2647.608445774405936 14224.97057293198304 
	1941.686238895106953 2624.983292145090672 14171.29385600884052 
	1941.685990005746135 2610.266292490674005 14123.5836613775391 
	1941.685850585550725 2602.022280333374965 14082.80128933758169 
	1941.685780658902786 2597.887469463914385 14049.80465656128399 
	1941.685749137250468 2596.023572438023621 14024.93336425640518 
	1941.68573862228186 2595.401815142728992 14000.00007312046182 
	1941.685752642867783 2596.230862084747514 13966.75571945143565 
	1941.685836696113029 2601.200988445824805 13917.0750679819721 
	1941.686087591059959 2616.03657975904116 13852.07144921142026 
	1941.68643519091188 2636.590398697905584 13799.70354806455907 
	1941.68672028724518 2653.448341618063296 13766.31111300639168 
	1941.686924289248736 2665.511120870354262 13744.48513709708277 
	1941.687317141103449 2688.740722070625907 13707.5132236292884 
	1941.687800474444657 2717.320555326387421 13671.67476050057667 
	1941.68829134394764 2746.346007759737859 13641.91809864863535 
	1941.688703599919563 2770.722987778070092 13619.29864983629523 
	1941.689253739138394 2803.253099284480413 13593.35758229272869 
	1941.690081242587439 2852.183948881116521 13561.75287981330621 
	1941.690906678911006 2900.992567314362987 13538.24849570604601 
	1941.691703249727198 2948.094348995286964 13521.76854855993224 
	1941.692416511533565 2990.270011288634123 13510.46673332954197 
	1941.693249233727556 3039.509448042778786 13502.10054936327106 
	1941.694197976283249 3095.609248626630688 13498.95007062854347 
	1941.695146719090872 3151.709063931152741 13502.10050726212285 
	1941.695979440894916 3200.948477116283811 13510.46671345961295 
	1941.696692703370672 3243.124178287577706 13521.76841740453892 
	1941.697489272102757 3290.22583662529496 13538.24865742685688 
	1941.698251216018207 3335.280102963084573 13559.94456635410643 
	1941.698876447663679 3372.250479936328702 13583.17667001117115 
	1941.699177408486094 3390.046500018049301 13595.80322548758522 
	1941.699345872090362 3400.007868996224261 13603.30002964584855 
	1941.699678002016071 3419.646939925839433 13618.66326943939384 
	1941.700189723622543 3449.905383118030386 13645.70383798613329 
	1941.700822911165233 3487.346191749157242 13687.60018494529504 
	1941.701372786396632 3519.860682929713221 13733.42510335877887 
	1941.701832434516973 3547.039983309077343 13782.60236985678421 
	1941.702196074235189 3568.542237544494583 13834.51352674457667 
	1941.702459134907031 3584.097185508755956 13888.50577827194684 
	1941.702578510855801 3591.155952128472563 13930.05153551381409 
	1941.702625008434779 3593.905383957327558 13957.96917413013944 
	1941.702641629902701 3594.888221719170815 13971.96104170875878 
	1941.702649944198811 3595.379850474203067 13983.63932207152902 
	1941.702652854835833 3595.551958028791432 13991.81894308324263 
	1941.702653582491848 3595.594984707509411 13995.90935747052936 
	1941.702653790399609 3595.607278429049984 13998.24682325494541 
	1941.702653825053176 3595.609327500957988 13999.41557050971096 
	1941.702653825052721 3595.609327475118334 13999.99994414115463 
	2058.369320473149401 3595.607354444430257 13999.99994414115463 
	2058.369320473145308 3595.60735423771348 14004.67493319270034 
	2058.369318255246981 3595.476209914680567 14014.02491181548612 
	2058.36930495186698 3594.689573315833513 14032.71015295892539 
	2058.36927171392017 3592.724195976479677 14056.01156560261916 
	2058.369205372760462 3588.801402327406777 14083.7969726238789 
	2058.369081936805742 3581.502553526055181 14120.49279051194389 
	2058.368906564888221 3571.132707510637829 14156.48758653609548 
	2058.368680905798556 3557.789333421154424 14191.44197972897018 
	2058.368422473003193 3542.508027677057271 14225.59365476330095 
	2058.368116040328005 3524.388464464980188 14258.37840925622913 
	2058.367808442312707 3506.199984026511629 14285.59870228532236 
	2058.367621821265402 3495.164953643846275 14300.69787132454076 
	2058.367331259417824 3477.983832192387581 14322.87359782480235 
	2058.366856371329959 3449.903380444684444 14354.29595159173186 
	2058.366174072940339 3409.558612182926026 14390.34987148310211 
	2058.365459923724302 3367.330482254914841 14420.70966092102935 
	2058.364911486377423 3334.901005550047557 14439.43298060539928 
	2058.364533860316897 3312.571716455578098 14450.53110407825079 
	2058.364279068425276 3297.505696349056052 14457.55634637734329 
	2058.363696064574924 3263.032277787264775 14472.08963513548406 
	2058.362955291245271 3219.229842634953457 14485.60041421937058 
	2058.362126078684014 3170.197932309120006 14494.87631245611192 
	2058.361654362277932 3142.305017461888838 14498.01951166475374 
	2058.361338777318451 3123.644261092963006 14499.24249537100877 
	2058.36118081933455 3114.304096549660699 14499.67948876927221 
	2058.361022750626944 3104.957384864190772 14499.94171906996962 
	2058.360706502875473 3086.25743718144895 14500.11658346241165 
	2058.360232130482473 3058.207471678698766 14499.06724833290355 
	2058.359603173944379 3021.016838637736328 14494.87632411658342 
	2058.358773963745989 2971.98506903129055 14485.60045243493005 
	2058.357763810275173 2912.25399900543016 14467.17693328858149 
	2058.356811392593954 2855.936885739165973 14440.05481660888836 
	2058.35609683983057 2813.684888846116792 14413.5043725659707 
	2058.355672451988085 2788.590543126206285 14394.98447186792691 
	2058.355347700773109 2769.387779957211933 14379.07407835907361 
	2058.355151159603338 2757.766165073183856 14368.68842910773856 
	2058.354997949686094 2748.706756967263573 14360.12350437537862 
	2058.354847475768111 2739.809130376190751 14351.39066022488441 
	2058.354591459589756 2724.670717282761416 14335.67563765335763 
	2058.354247420526463 2704.327450180505821 14312.03540584955408 
	2058.353746259016589 2674.693424626550041 14271.88572065035441 
	2058.353288172830617 2647.606472743717859 14224.97057293198304 
	2058.352905543203633 2624.981319114402595 14171.29385600884052 
	2058.352656653842587 2610.264319459985927 14123.5836613775391 
	2058.352517233647632 2602.020307302686888 14082.80128933758169 
	2058.352447306999238 2597.885496433226308 14049.80465656128399 
	2058.352415785347148 2596.021599407335543 14024.93336425640518 
	2058.352405270378313 2595.399842112040915 14000.00007312046182 
	2058.352419290964463 2596.228889054059437 13966.75571945143565 
	2058.352503344209254 2601.199015415136728 13917.0750679819721 
	2058.352754239157093 2616.034606728353083 13852.07144921142026 
	2058.353101839008104 2636.588425667217507 13799.70354806455907 
	2058.353386935341859 2653.446368587375218 13766.31111300639168 
	2058.353590937345416 2665.509147839666184 13744.48513709708277 
	2058.353983789199901 2688.738749039937829 13707.5132236292884 
	2058.354467122541337 2717.318582295699343 13671.67476050057667 
	2058.354957992044092 2746.344034729049781 13641.91809864863535 
	2058.355370248016243 2770.721014747382014 13619.29864983629523 
	2058.355920387235074 2803.251126253792336 13593.35758229272869 
	2058.356747890683891 2852.181975850428444 13561.75287981330621 
	2058.357573327007685 2900.990594283674909 13538.24849570604601 
	2058.35836989782365 2948.092375964598887 13521.76854855993224 
	2058.359083159630245 2990.268038257946046 13510.46673332954197 
	2058.359915881824236 3039.507475012090708 13502.10054936327106 
	2058.360864624379701 3095.60727559594261 13498.95007062854347 
	2058.361813367187551 3151.707090900464664 13502.10050726212285 
	2058.362646088991369 3200.946504085595734 13510.46671345961295 
	2058.363359351467352 3243.122205256889629 13521.76841740453892 
	2058.36415592019921 3290.223863594606883 13538.24865742685688 
	2058.364917864114886 3335.278129932396496 13559.94456635410643 
	2058.365543095760131 3372.248506905640625 13583.17667001117115 
	2058.365844056582773 3390.044526987361223 13595.80322548758522 
	2058.366012520186814 3400.005895965536183 13603.30002964584855 
	2058.366344650112751 3419.644966895151356 13618.66326943939384 
	2058.366856371719223 3449.903410087342309 13645.70383798613329 
	2058.367489559261685 3487.344218718469165 13687.60018494529504 
	2058.368039434493312 3519.858709899025143 13733.42510335877887 
	2058.368499082613653 3547.038010278389265 13782.60236985678421 
	2058.368862722331869 3568.540264513806505 13834.51352674457667 
	2058.36912578300371 3584.095212478067879 13888.50577827194684 
	2058.369245158952253 3591.153979097784486 13930.05153551381409 
	2058.369291656531459 3593.903410926639481 13957.96917413013944 
	2058.369308277999153 3594.886248688482738 13971.96104170875878 
	2058.36931659229549 3595.37787744351499 13983.63932207152902 
	2058.369319502932285 3595.549984998103355 13991.81894308324263 
	2058.369320230588528 3595.593011676821334 13995.90935747052936 
	2058.369320438496288 3595.605305398361907 13998.24682325494541 
	2058.369320473149855 3595.607354470269911 13999.41557050971096 
	2058.369320473149401 3595.607354444430257 13999.99994414115463 
	0 
	
	0 
	0 
	85 0 0.004464285714285714038 0.008928571428571428076 0.01785714285714285615 0.02678571428571428423 0.0357142857142857123 0.05357142857142856845 0.0625 0.07142857142857142461 0.08928571428571427382 0.09821428571428569843 0.1026785714285714246 0.1071428571428571369 0.125 0.1428571428571428492 0.1587301587301587213 0.1746031746031745935 0.1785714285714285476 0.1825396825396825295 0.1904761904761904656 0.2142857142857142738 0.226190476190476164 0.238095238095238082 0.2410714285714285476 0.2440476190476190133 0.2470238095238094789 0.2499999999999999722 0.2619047619047618625 0.2738095238095237804 0.2857142857142856984 0.3095238095238095344 0.3333333333333333148 0.3452380952380952328 0.3571428571428570953 0.3690476190476190133 0.3720238095238095344 0.375 0.3809523809523809312 0.3928571428571428492 0.4047619047619047672 0.4285714285714285476 0.4444444444444444198 0.4603174603174602919 0.476190476190476164 0.4841269841269840724 0.4920634920634920362 0.5 0.5079365079365079083 0.5238095238095237249 0.5476190476190475609 0.5714285714285713969 0.5773809523809523281 0.5833333333333332593 0.5952380952380951218 0.6190476190476189577 0.6269841269841269771 0.6349206349206348854 0.650793650793650702 0.6666666666666666297 0.6904761904761904656 0.7023809523809523281 0.7142857142857141906 0.7321428571428569843 0.749999999999999889 0.7678571428571427937 0.7857142857142855874 0.7976190476190474499 0.8095238095238094234 0.8333333333333332593 0.8452380952380951218 0.851190476190476053 0.8541666666666665186 0.8571428571428570953 0.875 0.8928571428571427937 0.9107142857142856984 0.9285714285714286031 0.9464285714285713969 0.9642857142857143016 0.9821428571428572063 0.9866071428571429047 0.9910714285714286031 0.9977678571428572063 0.9988839285714286031 0.9994419642857143016 
	0 
	0 
	0 
	F 1 F 0 F 1 F 0 } I I I I #
tcoedge-coedge $-1 -1 $-1 $14 $14 $18 $19 reversed $9 $20 -6.283185307179586232 -0 #
tcoedge-coedge $-1 -1 $-1 $21 $22 $11 $16 reversed $12 $23 -6.283185307179586232 -0 #
tedge-edge $-1 -1 $-1 $24 0 $24 6.283185307179586232 $15 $25 forward @7 unknown 0.0007374497989778271969 #
pcurve $-1 -1 $-1 0 forward { exppc nurbs 2 periodic 5 
	0 2 1.570796326794896558 2 3.141592653589793116 2 4.712388980384689674 2 6.283185307179586232 2 
	0 500 1 
	-500 500 0.7071067811865451302 
	-500 0 1 
	-500 -500 0.7071067811865451302 
	0 -500 1 
	500 -500 0.7071067811865476838 
	500 0 1 
	500 500 0.7071067811865451302 
	0 500 1 
	0 
	plane 2058.36086462430967 3095.607283437431306 14000.00000000000182 0.9999999998569973902 -1.691169161366488208e-05 0 0 0 -1 forward_v I I I I 
	} 0 0 #
tcoedge-coedge $-1 -1 $-1 $22 $21 $14 $19 forward $12 $26 0 6.283185307179586232 #
tedge-edge $-1 -1 $-1 $27 0 $27 6.283185307179586232 $18 $28 forward @7 unknown 0.0007374497986455480708 #
pcurve $-1 -1 $-1 0 forward { exppc nurbs 2 periodic 5 
	-6.283185307179586232 2 -4.712388980384689674 2 -3.141592653589793116 2 -1.570796326794896558 2 0 2 
	0 500 1 
	500 500 0.7071067811865451302 
	500 0 1 
	500 -500 0.7071067811865476838 
	0 -500 1 
	-500 -500 0.7071067811865451302 
	-500 0 1 
	-500 500 0.7071067811865451302 
	0 500 1 
	0 
	plane 1708.360864680020313 3095.613202529495993 14000.00000000000182 -0.9999999998569973902 1.691169161366488208e-05 -0 0 0 -1 reverse_v I I I I 
	} 0 0 #
coedge $-1 -1 $-1 $18 $15 $22 $29 reversed $12 $30 #
coedge $-1 -1 $-1 $15 $18 $21 $29 forward $12 $31 #
pcurve $-1 -1 $-1 0 forward { exppc nubs 1 periodic 2 
	-6.283185307179586232 1 -0 1 
	1 1 
	0 1 
	4.41140239961761005e-13 
	spline forward { ref 0 } I I I I 
	} 0 0 #
tvertex-vertex $-1 -1 $-1 $16 $32 9.040113839541951812e-05 #
ellipse-curve $-1 -1 $-1 2058.36086462430967 3095.607283437431306 14000.00000000000182 0.9999999998569973902 -1.691169161366488208e-05 0 0.008455845806832441164 499.9999999284987666 0 1 I I #
pcurve $-1 -1 $-1 0 forward { exppc nubs 1 periodic 2 
	0 1 6.283185307179586232 1 
	0 0 
	1 0 
	4.41140239961761005e-13 
	spline forward { ref 0 } I I I I 
	} 0 0 #
tvertex-vertex $-1 -1 $-1 $19 $33 9.040113838551301379e-05 #
ellipse-curve $-1 -1 $-1 1708.360864680020313 3095.613202529495993 14000.00000000000182 0.9999999998569973902 -1.691169161366488208e-05 0 0.008455845806832441164 499.9999999284987666 0 1 I I #
edge $-1 -1 $-1 $27 0 $24 1 $22 $34 forward @7 tangent #
pcurve $-1 -1 $-1 -1 $34 0 0 #
pcurve $-1 -1 $-1 1 $34 1 0 #
point $-1 -1 $-1 2058.369320470116691 3595.607283365930016 14000.00000000000182 #
point $-1 -1 $-1 1708.369320525827106 3595.613202457994703 14000.00000000000182 #
intcurve-curve $-1 -1 $-1 forward { parcur full nubs 3 open 2 
	0 3 1 3 
	1708.369320528548542 3595.613273536494944 13999.99994414115463 
	1825.035987176644994 3595.611300505806867 13999.99994414115463 
	1941.702653825052721 3595.609327475118334 13999.99994414115463 
	2058.369320473149401 3595.607354444430257 13999.99994414115463 
	0 
	
	spline forward { ref 0 } I I I I 
	null_surface 
	nubs 1 open 2 
	0 1 1 1 
	0 0 
	0 1 
	
	nullbs 
	I I 
	0 
	0 
	0 
	surf1 } I I #
End-of-ACIS-data 