700 0 1 0           
4 LibG 20 ASM 224.0.1.65535 NT 24 Wed Jul 17 15:51:17 2019 
1000 9.999999999999999547e-07 1.000000000000000036e-10 
body $-1 -1 $-1 $1 $-1 $2 #
lump $-1 -1 $-1 $-1 $3 $0 #
transform $-1 -1 1 0 0 0 1 0 0 0 1 0 0 0 1 no_rotate no_reflect no_shear #
shell $-1 -1 $-1 $-1 $-1 $4 $-1 $1 #
face $-1 -1 $-1 $5 $6 $3 $-1 $7 forward single #
face $-1 -1 $-1 $8 $9 $3 $-1 $10 reversed single #
loop $-1 -1 $-1 $-1 $11 $4 #
plane-surface $-1 -1 $-1 5899.607908168602989 2920.761208319757316 14000.00000000000364 0.9800466386426349708 -0.1987676686115533442 -5.197112581643624912e-15 -5.302923735182264647e-15 0 -1 forward_v I I I I #
face $-1 -1 $-1 $-1 $12 $3 $-1 $13 forward single #
loop $-1 -1 $-1 $-1 $14 $5 #
plane-surface $-1 -1 $-1 5551.358499392892554 2955.723320432814035 14000.00000000000909 0.9949983108038356061 -0.09989174889606429464 5.19711258164362649e-15 5.223237592679933738e-15 0 -1 forward_v I I I I #
tcoedge-coedge $-1 -1 $-1 $11 $11 $15 $16 forward $6 $17 1.506650401450200602e-30 6.283185307179586232 #
loop $-1 -1 $-1 $-1 $18 $8 #
spline-surface $-1 -1 $-1 forward { exactsur full nubs 3 3 periodic open none none 78 2 
	0 3 0.002232142857142857019 1 0.004464285714285714038 1 0.008928571428571428076 1 0.01785714285714285615 1 
	0.0357142857142857123 1 0.04464285714285713691 1 0.05357142857142856845 1 0.0625 1 0.0669642857142857123 1 
	0.07142857142857142461 1 0.08928571428571427382 1 0.1071428571428571369 1 0.125 1 0.1428571428571428492 1 
	0.1587301587301587213 1 0.1746031746031745935 1 0.1825396825396825295 1 0.1865079365079365115 1 0.1904761904761904656 1 
	0.2142857142857142738 1 0.238095238095238082 1 0.2619047619047618625 1 0.2857142857142856984 1 0.3095238095238095344 1 
	0.3214285714285713969 1 0.3244047619047618625 1 0.3273809523809523281 1 0.3333333333333333148 1 0.3571428571428570953 1 
	0.3690476190476190133 1 0.375 1 0.3764880952380952328 1 0.3779761904761904656 1 0.3809523809523809312 1 
	0.3928571428571428492 1 0.4047619047619047672 1 0.4285714285714285476 1 0.4444444444444444198 1 0.4603174603174602919 1 
	0.476190476190476164 1 0.4841269841269840724 1 0.4920634920634920362 1 0.5079365079365079083 1 0.5238095238095237249 1 
	0.5476190476190475609 1 0.5714285714285713969 1 0.5952380952380951218 1 0.6190476190476189577 1 0.6349206349206348854 1 
	0.650793650793650702 1 0.6666666666666666297 1 0.6904761904761904656 1 0.7023809523809523281 1 0.7142857142857141906 1 
	0.7321428571428569843 1 0.749999999999999889 1 0.7678571428571427937 1 0.7857142857142855874 1 0.7976190476190474499 1 
	0.8095238095238094234 1 0.8154761904761904656 1 0.8333333333333332593 1 0.8571428571428570953 1 0.875 1 
	0.8928571428571427937 1 0.9107142857142856984 1 0.9285714285714286031 1 0.9464285714285713969 1 0.9642857142857143016 1 
	0.9821428571428572063 1 0.9910714285714286031 1 0.9955357142857143016 1 0.9977678571428572063 1 0.9988839285714286031 1 
	0.9994419642857143016 1 0.9997209821428572063 1 1 3 
	0 3 1 3 
	5601.30438054212209 3453.222542325691393 14000.00002036307706 
	5601.304380540129387 3453.222542305890329 14002.33751491190378 
	5601.301105347506564 3453.189918880388177 14007.01250344441178 
	5601.281458822611057 3452.994224448907062 14016.36064487939984 
	5601.212696726731338 3452.309301324481567 14032.7102229332686 
	5600.93787605774196 3449.571877028581639 14065.33225564699387 
	5600.311091406265405 3443.328621985896916 14102.26175378651897 
	5599.377534639075748 3434.029681725188311 14138.49040727309875 
	5598.526323589052481 3425.550967864820905 14165.2262262710392 
	5597.69329286822267 3417.253344002453105 14187.07283675432518 
	5596.954240826015848 3409.891819737552851 14204.24894703015889 
	5595.773943630371832 3398.135155863555156 14229.69185747807569 
	5593.737716244539115 3377.85277189151202 14266.57487003149254 
	5590.489775055008977 3345.500790561700342 14312.39973409637787 
	5586.749754822060822 3308.247325154897226 14354.29617911933929 
	5582.719647250741218 3268.104367719639413 14390.35009646607432 
	5578.501413486092133 3226.087529339829416 14420.71008958427046 
	5574.902013394736059 3190.234748208791189 14441.51333260232968 
	5572.283216878596249 3164.149529574705412 14454.13831500701235 
	5570.761218757228562 3148.989262821253305 14460.78582664582245 
	5567.685086770341513 3118.348632695459401 14473.31780843990055 
	5562.514034104813618 3066.840988439103512 14489.28572566956063 
	5555.104901870470712 2993.040357869468608 14500.46571319572467 
	5547.612085427215789 2918.406168502763194 14500.46546895932624 
	5540.202936862518982 2844.605375271399225 14489.28626617269401 
	5534.236352882744541 2785.173629945533321 14470.86115752595288 
	5530.524223522287684 2748.197978965310085 14454.64644807931472 
	5528.848813115487246 2731.509608373419269 14446.37541224112101 
	5527.742377073112948 2720.488658141448468 14440.65309942887507 
	5524.744495168253707 2690.627458750943333 14424.06758115626326 
	5521.133235861520006 2654.656550747170968 14399.41858433303969 
	5517.827303606550231 2621.726933980874946 14370.93618236334987 
	5516.369607970261313 2607.207169217797855 14356.87945259691878 
	5515.712268450571173 2600.659564245976526 14350.23709806372426 
	5515.278197605986861 2596.33588624551976 14345.76804210590126 
	5514.101786614839511 2584.61793194066513 14333.31142536525476 
	5512.272869446927871 2566.400516461059397 14312.03525100111983 
	5509.312691476582586 2536.914877129634533 14271.88546967038565 
	5506.606917572808925 2509.963297110753047 14224.97038772699489 
	5504.346852028834292 2487.451313654916248 14171.29367659169657 
	5502.876740352559864 2472.807875625846009 14123.58348976190609 
	5502.053235619174302 2464.605137885202112 14082.80112797303809 
	5501.640209351608974 2460.49107998664158 14049.80450772982113 
	5501.391929218247242 2458.018019738589828 14016.64278025246858 
	5501.391952847941866 2458.018255108240282 13975.03568800555877 
	5501.971205830452163 2463.788058374939737 13917.0749140513235 
	5503.453151933560548 2478.54937635668648 13852.07138403924728 
	5506.190647201481625 2505.816925452632859 13782.24727449799866 
	5509.936999229378671 2543.133460406565518 13717.28675067051881 
	5514.08970098545069 2584.497549813954265 13665.15894738320458 
	5518.255175048650017 2625.988861181097946 13624.48701565167175 
	5522.154529566721067 2664.829418098983751 13593.35742467794444 
	5527.042334225522609 2713.515695320847954 13561.75288856113912 
	5531.917903831508738 2762.080102046379125 13538.248432737646 
	5536.622985968439934 2808.946323031160773 13521.76851005770004 
	5540.835985115831136 2850.911020628691404 13510.46669078186642 
	5545.754599825761034 2899.904189550486535 13502.1004895168935 
	5551.358504416822143 2955.723370446294666 13498.95005228532864 
	5556.962418216704464 3011.54264306879395 13502.1003760915064 
	5561.881018942574883 3060.535672696846632 13510.46680256968102 
	5566.094042150958558 3102.500609959501617 13521.76810167231088 
	5569.034678189417718 3131.791596683799071 13532.06890418143666 
	5572.486836557706738 3166.177737509908184 13546.38374007293169 
	5576.940691412845808 3210.541542386015863 13568.8901292155515 
	5582.099701168052889 3261.929230028819347 13604.10232019909563 
	5586.749742579160738 3308.24720322589701 13645.70419887672506 
	5590.489797873277894 3345.501017865638005 13687.60012315467975 
	5593.737715114951243 3377.852760653604037 13733.42522728712356 
	5596.452709536117254 3404.896184061354234 13782.60240722820163 
	5598.600603494648567 3426.290852602579434 13834.51360490464867 
	5600.154420058533105 3441.768055380741771 13888.50583305796863 
	5600.937870939278582 3449.571826043478268 13934.66780824752095 
	5601.212697992667927 3452.309313932194527 13967.2898140118632 
	5601.281458805589864 3452.994224278838374 13983.63939644121638 
	5601.298649601678335 3453.165457770789999 13991.81901952969929 
	5601.302947851495446 3453.20827163009244 13995.90943360499114 
	5601.304022357528993 3453.218974532910579 13997.95471623558478 
	5601.304329368046638 3453.222032592712367 13999.12345989843561 
	5601.304380542370382 3453.222542328166583 13999.70783354447303 
	5601.30438054212209 3453.222542325691393 14000.00002036307706 
	5733.866836925218195 3439.076559568471112 14000.00002036307524 
	5733.866837774007763 3439.076559420017929 14002.33751491190196 
	5733.862478894646301 3439.044099865849603 14007.01250344440996 
	5733.836355359479967 3438.849384865299726 14016.36064487939802 
	5733.74489713366529 3438.167893770584669 14032.71022293326678 
	5733.379412995825987 3435.444179288632768 14065.33225564699205 
	5732.545820039708815 3429.232197077392811 14102.26175378651715 
	5731.304238852272647 3419.979835196560998 14138.49040727309693 
	5730.172178426012579 3411.543590400574885 14165.22622627103738 
	5729.064294728952518 3403.287528847867179 14187.07283675432336 
	5728.081394416414696 3395.962878469000316 14204.24894703015707 
	5726.511673622717353 3384.265101875006621 14229.69185747807387 
	5723.803601684852765 3364.084311895860537 14266.57487003149072 
	5719.484025155084055 3331.894379529332582 14312.39973409637605 
	5714.510008175360781 3294.82751481214973 14354.29617911933747 
	5709.150193650824804 3254.885631030539571 14390.3500964660725 
	5703.540177862177188 3213.079253080352373 14420.71008958426864 
	5698.753183891974004 3177.406055758883213 14441.51333260232786 
	5695.270330488092441 3151.451496797560139 14454.13831500701053 
	5693.246157119789132 3136.367167235704073 14460.78582664582063 
	5689.155083593228483 3105.880013034156036 14473.31780843989873 
	5682.277869997958078 3054.630368490461933 14489.28572566955881 
	5672.424142045134431 2981.199401170023975 14500.46571319572286 
	5662.459118177697746 2906.939050398471409 14500.46546895932443 
	5652.605372217782133 2833.507920669855139 14489.28626617269219 
	5644.670145622401833 2774.373866622875084 14470.86115752595106 
	5639.733235198822513 2737.583422768691435 14454.6464480793129 
	5637.505025261889386 2720.978644596159938 14446.37541224111919 
	5636.033537297629664 2710.012896244218155 14440.65309942887325 
	5632.046502164861522 2680.301273159283028 14424.06758115626144 
	5627.243732618811009 2644.510541183467922 14399.41858433303787 
	5622.847034407472165 2611.745866245588331 14370.93618236334805 
	5620.908376003171725 2597.298830996934612 14356.87945259691696 
	5620.034152963900851 2590.784022395465854 14350.23709806372244 
	5619.456867313997463 2586.482000839003831 14345.76804210589944 
	5617.892291303120146 2574.822743496323255 14333.31142536525294 
	5615.459957963347733 2556.69657450832392 14312.03525100111801 
	5611.523062214418132 2527.358631037139276 14271.88546967038383 
	5607.924565544132747 2500.542045445355143 14224.97038772699307 
	5604.918811753501359 2478.142822368694397 14171.29367659169475 
	5602.963635529888052 2463.57273411082906 14123.58348976190427 
	5601.868421112375472 2455.411083362162572 14082.80112797303627 
	5601.319124781090068 2451.317631747963333 14049.80450772981931 
	5600.988915458296105 2448.856960546550454 14016.64278025246676 
	5600.988958340077261 2448.857193004967485 13975.03568800555695 
	5601.759320644768195 2454.598097385664914 13917.07491405132168 
	5603.730227243865556 2469.285476464422572 13852.07138403924546 
	5607.370944916380722 2496.416443414574587 13782.24727449799684 
	5612.35337873610024 2533.546062385637924 13717.28675067051699 
	5617.876240359346411 2574.702960990641259 13665.15894738320276 
	5623.416091111616879 2615.98644390228128 13624.48701565166994 
	5628.602007997525106 2654.632451340433363 13593.35742467794262 
	5635.102513642935264 2703.074861536684239 13561.7528885611373 
	5641.586730655752945 2751.396014204815856 13538.24843273764418 
	5647.844235185099933 2798.027483283026868 13521.76851005769822 
	5653.447279071936464 2839.781983157053219 13510.4666907818646 
	5659.988764364749841 2888.52974724231035 13502.10048951689168 
	5667.441639120254877 2944.069333310437742 13498.95005228532682 
	5674.894530018012119 2999.60901005680762 13502.10037609150459 
	5681.435991910769189 3048.356636272176274 13510.4668025696792 
	5687.039073717988686 3090.111373715558329 13521.76810167230906 
	5690.949955821717595 3119.255643209559821 13532.06890418143485 
	5695.541128623493023 3153.469546240608452 13546.38374007292987 
	5701.464506726453692 3197.611134930025855 13568.89012921554968 
	5708.325698783275584 3248.74142449445435 13604.10232019909381 
	5714.509984381391405 3294.827394629862283 13645.70419887672324 
	5719.484054444106732 3331.894605854785823 13687.60012315467793 
	5723.803596929721607 3364.08430120619505 13733.42522728712174 
	5727.414389438530634 3390.992265147498529 13782.60240722819981 
	5730.270966596182916 3412.279769083935207 13834.51360490464685 
	5732.337454619461823 3427.679447469815386 13888.50583305796681 
	5733.379404026984048 3435.444128885770624 13934.66780824751913 
	5733.744900125645472 3438.167906117291295 13967.28981401186138 
	5733.836354626094362 3438.849384803557314 13983.63939644121456 
	5733.859213567211555 3439.019761178361478 13991.81901952969747 
	5733.864931978359891 3439.06236028581452 13995.90943360498932 
	5733.86636027212262 3439.073009690084746 13997.95471623558296 
	5733.866768472907097 3439.076052448246628 13999.12345989843379 
	5733.866836819118362 3439.076559587027987 13999.70783354447121 
	5733.866836925218195 3439.076559568471112 14000.00002036307524 
	5866.42929940014983 3424.930575890152795 14000.00002036307342 
	5866.429298545406709 3424.930575999302619 14002.33751491190196 
	5866.423865153413317 3424.898278929191292 14007.01250344440814 
	5866.391248905375505 3424.704545734066414 14016.36064487939439 
	5866.277120106426082 3424.026482804448733 14032.71022293326496 
	5865.820936972191703 3421.316483508792771 14065.33225564698841 
	5864.780549939519005 3415.135771977461445 14102.26175378651715 
	5863.230954445249154 3405.929986947187899 14138.49040727309512 
	5861.818037943123272 3397.536212228674685 14165.22622627103738 
	5860.435300817924144 3389.321713053960138 14187.07283675432154 
	5859.208560646136903 3382.033935289231522 14204.24894703015707 
	5857.249392649742731 3370.395049544652466 14229.69185747807023 
	5853.869489440169673 3350.315851550191383 14266.57487003148708 
	5848.478271692143608 3318.287969035793139 14312.39973409637059 
	5842.270261363666577 3281.407704494386508 14354.29617911933201 
	5835.580736549640278 3241.666894870917531 14390.35009646606704 
	5828.578947531280392 3200.07097602050635 14420.71008958426319 
	5822.604344608258543 3164.577364788037357 14441.51333260232423 
	5818.257439791817887 3138.753464671538495 14454.13831500700326 
	5815.731096451870144 3123.745071503567033 14460.78582664581518 
	5810.625056127570133 3093.411397045700141 14473.31780843989327 
	5802.041697714063957 3042.419749778337973 14489.28572566955336 
	5789.74337465411736 2969.358445614649099 14500.46571319571922 
	5777.306145892342101 2895.471933055691807 14500.46546895931897 
	5765.007792014601364 2822.410468421012865 14489.28626617268674 
	5755.103942654820457 2763.574102651086832 14470.86115752594378 
	5748.942214754975794 2726.968871429211504 14454.64644807930745 
	5746.161231222886272 2710.44768175424224 14446.37541224111374 
	5744.324662740283202 2699.537139606585697 14440.65309942886779 
	5739.348538519556314 2669.975083128199913 14424.06758115625416 
	5733.354254125540137 2634.364527877246928 14399.41858433302696 
	5727.866774589525448 2601.764797091724176 14370.93618236334441 
	5725.44716982949285 2587.390488875685605 14356.87945259690787 
	5724.356058992592807 2580.908477291480267 14350.2370980637188 
	5723.63554630546605 2576.628114028680102 14345.76804210589398 
	5721.682852619419464 2565.027546488893222 14333.31142536524749 
	5718.647033263199774 2546.992634554156666 14312.03525100111256 
	5713.733498039514416 2517.802375102378846 14271.88546967037837 
	5709.242188825612175 2491.120797513473462 14224.97038772699125 
	5705.490729269313306 2468.834337465151748 14171.29367659169111 
	5703.050520471057098 2454.337594143692968 14123.58348976190609 
	5701.683595155259354 2446.217030570604038 14082.80112797303264 
	5700.99801287194714 2442.144187643340047 14049.80450772981749 
	5700.585906629860801 2439.695900608788179 14016.64278025246495 
	5700.585934396847733 2439.696135352811325 13975.03568800555695 
	5701.547440442195693 2445.408135642864636 13917.07491405131987 
	5704.007301797557375 2460.021576686574463 13852.07138403924364 
	5708.551231517560154 2487.015963057097906 13782.2472744979932 
	5714.769756003018301 2523.95866470340934 13717.28675067051518 
	5721.662769577086692 2564.90837370311192 13665.15894738320094 
	5728.576981058127785 2605.984030572709798 13624.48701565166994 
	5735.049474019729132 2644.435486458273772 13593.35742467794262 
	5743.162676797787753 2692.634030211694608 13561.7528885611373 
	5751.255587471782746 2740.711921828005416 13538.24843273764054 
	5759.065481960462421 2787.108643904065048 13521.7685100576964 
	5766.058592262631464 2828.652942776835971 13510.46669078186278 
	5774.222932229815342 2877.155304431185868 13502.10048951688987 
	5783.524783459118225 2932.415294717554843 13498.95005228532682 
	5792.826646078965496 2987.675376400703499 13502.10037609150277 
	5800.990967636055757 3036.177599430600822 13510.46680256967738 
	5807.984111956057859 3077.722136462857179 13521.76810167230906 
	5812.865233756922862 3106.719689689530696 13532.06890418143485 
	5818.595430025114183 3140.761353559591953 13546.38374007293169 
	5825.988323899904572 3184.68072719281372 13568.89012921554968 
	5834.551697588380193 3235.553618780181296 13604.10232019909199 
	5842.270248555380022 3281.407582650874701 13645.70419887672506 
	5848.478310627512656 3318.288193902552848 13687.60012315467611 
	5853.869490819372004 3350.315839932907238 13733.42522728712356 
	5858.376071978263099 3377.088345834887605 13782.60240722820345 
	5861.941334114928395 3398.26868489739627 13834.51360490465231 
	5864.520494553440585 3413.590838746465124 13888.50583305796863 
	5865.820930637566562 3421.316432707591503 13934.66780824752459 
	5866.27712089918532 3424.026495483712097 13967.28981401186138 
	5866.391249587816674 3424.704545458223947 13983.6393964412182 
	5866.419788216513552 3424.874062970457999 13991.81901952969747 
	5866.426920844597589 3424.916448224952092 13995.90943360498932 
	5866.428705141955106 3424.92704379559882 13997.95471623558296 
	5866.429214850638346 3424.930071204089927 13999.12345989843197 
	5866.429299506991811 3424.93057587650901 13999.70783354447121 
	5866.42929940014983 3424.930575890152795 14000.00002036307342 
	5998.991755783248664 3410.784593132932969 14000.00002036306978 
	5998.991755779288724 3410.784593113430674 14002.33751491189832 
	5998.985238700556692 3410.752459914653173 14007.0125034444045 
	5998.946145442248053 3410.559706150459533 14016.36064487939075 
	5998.809320513364582 3409.885075250552291 14032.71022293326132 
	5998.262473910280278 3407.188785768844355 14065.33225564698478 
	5997.015278572967873 3401.039347068957795 14102.26175378651351 
	5995.157658658452419 3391.880140418561041 14138.49040727309148 
	5993.463892780089736 3383.528834764429121 14165.22622627103374 
	5991.806302678661268 3375.355897899374213 14187.0728367543179 
	5990.335714236543936 3368.104994020679442 14204.24894703015343 
	5987.987122642096438 3356.524995556103931 14229.69185747806659 
	5983.935374880491509 3336.5473915545399 14266.57487003148344 
	5977.47252179222869 3304.681558003424925 14312.39973409636696 
	5970.030514716976541 3267.987894151639011 14354.29617911932837 
	5962.011282949735687 3228.448158181817234 14390.35009646606341 
	5953.61771190737727 3187.062699761028853 14420.71008958425955 
	5946.455515105508312 3151.748672338129381 14441.51333260232059 
	5941.244553401326812 3126.055431894392768 14454.13831500700144 
	5938.216034814442537 3111.122975918017346 14460.78582664581336 
	5932.095052950469835 3080.942777384396322 14473.31780843989145 
	5921.80553360722206 3030.209129829695485 14489.28572566955154 
	5907.062614828794722 2957.517488915204012 14500.4657131957174 
	5892.153178642837702 2884.004814951399112 14500.46546895931715 
	5877.410227369878157 2811.313013819467869 14489.28626617268492 
	5865.537735394490483 2752.774339328427686 14470.86115752594196 
	5858.151226431523355 2716.354315232592398 14454.64644807930563 
	5854.817443369301145 2699.916717976982454 14446.37541224111192 
	5852.615822964811741 2689.061377709354474 14440.65309942886597 
	5846.650545516175043 2659.648897536539152 14424.06758115625234 
	5839.464750882842054 2624.218518313543427 14399.41858433302514 
	5832.886505390457387 2591.783729356437107 14370.9361823633426 
	5829.985937862414175 2577.482150654821908 14356.87945259690605 
	5828.677943505933399 2571.03293544096914 14350.23709806371699 
	5827.814216013487567 2566.774228622163719 14345.76804210589216 
	5825.473357307710103 2555.232358044550892 14333.31142536524567 
	5821.834121779629641 2537.288692601420735 14312.03525100111074 
	5815.943868777358148 2508.246129009883589 14271.88546967037655 
	5810.559836796944182 2481.699545848075559 14224.97038772698943 
	5806.06268899398674 2459.525846178929896 14171.29367659168929 
	5803.137415648390743 2445.102452628676019 14123.58348976190427 
	5801.498780648465072 2437.022976047564498 14082.80112797303082 
	5800.676928301432781 2432.970739404661799 14049.80450772981567 
	5800.182892869913303 2430.534841416748804 14016.64278025246313 
	5800.182939888985857 2430.535073249538527 13975.03568800555513 
	5801.335555256513544 2436.218174653590268 13917.07491405131805 
	5804.284377107862383 2450.75767679431101 13852.07138403924182 
	5809.731529232457433 2477.615481019040544 13782.24727449799138 
	5817.186135509737142 2514.371266682482201 13717.28675067051336 
	5825.449308950978775 2555.113784879799823 13665.15894738319912 
	5833.7378971210901 2595.981613293894043 13624.48701565166812 
	5841.496952450527715 2634.238519699724748 13593.3574246779408 
	5851.222856215194042 2682.193196427531802 13561.75288856113548 
	5860.924414296020586 2730.027833986443511 13538.24843273763872 
	5870.286731177116053 2776.189804155932507 13521.76851005769458 
	5878.669886218730426 2817.52390530519915 13510.46669078186096 
	5888.457096768796873 2865.780862123011048 13502.10048951688805 
	5899.607918162543683 2920.761257581699738 13498.950052285325 
	5910.758757880265875 2975.741743388718533 13502.10037609150095 
	5920.545940604242787 3023.998563005931828 13510.46680256967556 
	5928.929143523081621 3065.332900218915256 13521.76810167230724 
	5934.780511389216372 3094.183736215292811 13532.06890418143303 
	5941.649722090894102 3128.053162290293585 13546.38374007292987 
	5950.512139213506998 3171.750319736825077 13568.89012921554786 
	5960.777695203598341 3222.365813245817662 13604.10232019909017 
	5970.030490357606141 3267.987774054841339 13645.70419887672142 
	5977.472567198337856 3304.681781891701576 13687.60012315467247 
	5983.93537263413964 3336.547380485499161 13733.42522728711992 
	5989.337751880675569 3363.184426921032809 13782.60240722819981 
	5993.611697216462744 3384.257601378752952 13834.51360490464867 
	5996.703529114370212 3399.502230835539649 13888.50583305796499 
	5998.262463725273847 3407.188735549884314 13934.66780824752095 
	5998.809323032165594 3409.885087668809774 13967.28981401185774 
	5998.9461454083239 3410.559705982943342 13983.63939644121456 
	5998.980352182049501 3410.728366378030387 13991.81901952969383 
	5998.988904971465672 3410.770536880674626 13995.90943360498568 
	5998.991043056551462 3410.781078952773441 13997.95471623557933 
	5998.991653955501533 3410.784091059625098 13999.12345989842834 
	5998.991755783743429 3410.784593135370869 13999.70783354446758 
	5998.991755783248664 3410.784593132932969 14000.00002036306978 
	0 
	
	0 
	0 
	77 0 0.002232142857142857019 0.004464285714285714038 0.008928571428571428076 0.01785714285714285615 0.0357142857142857123 0.04464285714285713691 0.05357142857142856845 0.0625 0.0669642857142857123 0.07142857142857142461 0.08928571428571427382 0.1071428571428571369 0.125 0.1428571428571428492 0.1587301587301587213 0.1746031746031745935 0.1825396825396825295 0.1865079365079365115 0.1904761904761904656 0.2142857142857142738 0.238095238095238082 0.2619047619047618625 0.2857142857142856984 0.3095238095238095344 0.3214285714285713969 0.3244047619047618625 0.3273809523809523281 0.3333333333333333148 0.3571428571428570953 0.3690476190476190133 0.375 0.3764880952380952328 0.3779761904761904656 0.3809523809523809312 0.3928571428571428492 0.4047619047619047672 0.4285714285714285476 0.4444444444444444198 0.4603174603174602919 0.476190476190476164 0.4841269841269840724 0.4920634920634920362 0.5079365079365079083 0.5238095238095237249 0.5476190476190475609 0.5714285714285713969 0.5952380952380951218 0.6190476190476189577 0.6349206349206348854 0.650793650793650702 0.6666666666666666297 0.6904761904761904656 0.7023809523809523281 0.7142857142857141906 0.7321428571428569843 0.749999999999999889 0.7678571428571427937 0.7857142857142855874 0.7976190476190474499 0.8095238095238094234 0.8154761904761904656 0.8333333333333332593 0.8571428571428570953 0.875 0.8928571428571427937 0.9107142857142856984 0.9285714285714286031 0.9464285714285713969 0.9642857142857143016 0.9821428571428572063 0.9910714285714286031 0.9955357142857143016 0.9977678571428572063 0.9988839285714286031 0.9994419642857143016 0.9997209821428572063 
	0 
	0 
	0 
	F 1 F 0 F 1 F 0 } I I I I #
tcoedge-coedge $-1 -1 $-1 $14 $14 $18 $19 reversed $9 $20 -6.283185307179586232 4.505180122013447668e-30 #
tcoedge-coedge $-1 -1 $-1 $21 $22 $11 $16 reversed $12 $23 -6.283185307179586232 -1.506650401450200602e-30 #
tedge-edge $-1 -1 $-1 $24 1.506650401450200602e-30 $24 6.283185307179586232 $15 $25 forward @7 unknown 0.0007717597121366627988 #
pcurve $-1 -1 $-1 0 forward { exppc nurbs 2 periodic 5 
	1.506650401450200602e-30 2 1.570796326794896558 2 3.141592653589793116 2 4.712388980384689674 2 6.283185307179586232 2 
	0 500 1 
	-500 499.9999999999990905 0.7071067811865453523 
	-500 -9.094947017729282379e-13 1 
	-500 -500.0000000000009095 0.7071067811865445751 
	0 -500 1 
	500 -499.9999999999995453 0.7071067811865453523 
	500 4.54747350886464119e-13 1 
	500 500 0.7071067811865445751 
	0 500 1 
	0 
	plane 5899.607908168602989 2920.761208319757316 14000.00000000000364 0.9800466386426349708 -0.1987676686115533442 -5.197112581643624912e-15 -5.302923735182264647e-15 0 -1 forward_v I I I I 
	} 0 0 #
tcoedge-coedge $-1 -1 $-1 $22 $21 $14 $19 forward $12 $26 -4.505180122013447668e-30 6.283185307179586232 #
tedge-edge $-1 -1 $-1 $27 -4.505180122013447668e-30 $27 6.283185307179586232 $18 $28 forward @7 unknown 0.0007717596355230617019 #
pcurve $-1 -1 $-1 0 forward { exppc nurbs 2 periodic 5 
	-6.283185307179586232 2 -4.712388980384689674 2 -3.141592653589793116 2 -1.570796326794896558 2 4.505180122013447668e-30 2 
	0 500 1 
	500 499.9999999999995453 0.7071067811865442421 
	500 -9.094947017729282379e-13 1 
	500 -500.0000000000009095 0.7071067811865433539 
	0 -500.0000000000004547 1 
	-500 -499.9999999999995453 0.7071067811865442421 
	-500 4.54747350886464119e-13 1 
	-500 500.0000000000009095 0.7071067811865433539 
	0 500 1 
	0 
	plane 5551.358499392892554 2955.723320432814035 14000.00000000000909 -0.9949983108038356061 0.09989174889606429464 -5.19711258164362649e-15 5.223237592679933738e-15 0 -1 reverse_v I I I I 
	} 0 0 #
coedge $-1 -1 $-1 $18 $15 $22 $29 reversed $12 $30 #
coedge $-1 -1 $-1 $15 $18 $21 $29 forward $12 $31 #
pcurve $-1 -1 $-1 0 forward { exppc nubs 1 periodic 2 
	-6.283185307179586232 1 -1.506650401450200602e-30 1 
	1 1 
	0 1 
	7.696750734154287387e-12 
	spline forward { ref 0 } I I I I 
	} 0 0 #
tvertex-vertex $-1 -1 $-1 $16 $32 6.986390531532767328e-05 #
ellipse-curve $-1 -1 $-1 5899.607908168602989 2920.761208319757316 14000.00000000000364 0.9800466386426349708 -0.1987676686115533442 -5.197112581643624912e-15 99.38383430577664512 490.023319321317615 0 1 I I #
pcurve $-1 -1 $-1 0 forward { exppc nubs 1 periodic 2 
	-4.505180122013447668e-30 1 6.283185307179586232 1 
	0 0 
	1 0 
	4.413823263353598727e-13 
	spline forward { ref 0 } I I I I 
	} 0 0 #
tvertex-vertex $-1 -1 $-1 $19 $33 6.98613606874357978e-05 #
ellipse-curve $-1 -1 $-1 5551.358499392892554 2955.723320432814035 14000.00000000000909 0.9949983108038356061 -0.09989174889606429464 5.19711258164362649e-15 49.94587444803214282 497.4991554019177329 0 1 I I #
edge $-1 -1 $-1 $27 0 $24 1 $22 $34 forward @7 tangent #
pcurve $-1 -1 $-1 -1 $34 0 0 #
pcurve $-1 -1 $-1 1 $34 1 0 #
point $-1 -1 $-1 5998.991742474379862 3410.784527641075329 14000.00000000000364 #
point $-1 -1 $-1 5601.304373840925109 3453.22247583473154 14000.00000000000909 #
intcurve-curve $-1 -1 $-1 forward { parcur full nubs 3 open 2 
	0 3 1 3 
	5601.30438054212209 3453.222542325691393 14000.00002036307706 
	5733.866836925218195 3439.076559568471112 14000.00002036307524 
	5866.42929940014983 3424.930575890152795 14000.00002036307342 
	5998.991755783248664 3410.784593132932969 14000.00002036306978 
	0 
	
	spline forward { ref 0 } I I I I 
	null_surface 
	nubs 1 open 2 
	0 1 1 1 
	0 0 
	0 1 
	
	nullbs 
	I I 
	0 
	0 
	0 
	surf1 } I I #
End-of-ACIS-data 