700 0 1 0           
4 LibG 20 ASM 224.0.1.65535 NT 24 Wed Jul 17 15:51:17 2019 
1000 9.999999999999999547e-07 1.000000000000000036e-10 
body $-1 -1 $-1 $1 $-1 $2 #
lump $-1 -1 $-1 $-1 $3 $0 #
transform $-1 -1 1 0 0 0 1 0 0 0 1 0 0 0 1 no_rotate no_reflect no_shear #
shell $-1 -1 $-1 $-1 $-1 $4 $-1 $1 #
face $-1 -1 $-1 $5 $6 $3 $-1 $7 forward single #
face $-1 -1 $-1 $8 $9 $3 $-1 $10 reversed single #
loop $-1 -1 $-1 $-1 $11 $4 #
plane-surface $-1 -1 $-1 5203.1090906171803 2990.685432545871208 14000.00000000000182 0.994998310803835273 -0.09989174889606428076 0 0 0 -1 forward_v I I I I #
face $-1 -1 $-1 $-1 $12 $3 $-1 $13 forward single #
loop $-1 -1 $-1 $-1 $14 $5 #
plane-surface $-1 -1 $-1 4854.859681841469865 3025.647544658928382 14000.00000000001091 0.9949983108038356061 -0.09989174889606429464 -5.19711258164362649e-15 -5.223237592679933738e-15 0 -1 forward_v I I I I #
tcoedge-coedge $-1 -1 $-1 $11 $11 $15 $16 forward $6 $17 0 6.283185307179586232 #
loop $-1 -1 $-1 $-1 $18 $8 #
spline-surface $-1 -1 $-1 forward { exactsur full nubs 3 3 periodic open none none 85 2 
	0 3 0.002232142857142857019 1 0.004464285714285714038 1 0.008928571428571428076 1 0.01785714285714285615 1 
	0.02678571428571428423 1 0.0357142857142857123 1 0.05357142857142856845 1 0.07142857142857142461 1 0.08928571428571427382 1 
	0.1071428571428571369 1 0.125 1 0.1428571428571428492 1 0.1587301587301587213 1 0.1746031746031745935 1 
	0.1904761904761904656 1 0.2023809523809523836 1 0.2142857142857142738 1 0.238095238095238082 1 0.2619047619047618625 1 
	0.2857142857142856984 1 0.2976190476190476164 1 0.3095238095238095344 1 0.3214285714285713969 1 0.3273809523809523281 1 
	0.3333333333333333148 1 0.3452380952380952328 1 0.3571428571428570953 1 0.3690476190476190133 1 0.375 1 
	0.3809523809523809312 1 0.3869047619047618625 1 0.3928571428571428492 1 0.4047619047619047672 1 0.4166666666666666297 1 
	0.4285714285714285476 1 0.4444444444444444198 1 0.4603174603174602919 1 0.476190476190476164 1 0.4801587301587301182 1 
	0.4841269841269840724 1 0.4880952380952380265 1 0.4900793650793650036 1 0.4920634920634920362 1 0.5158730158730158166 1 
	0.5238095238095237249 1 0.5357142857142855874 1 0.5476190476190475609 1 0.5595238095238095344 1 0.5714285714285713969 1 
	0.5952380952380951218 1 0.6190476190476189577 1 0.6269841269841269771 1 0.6309523809523809312 1 0.6349206349206348854 1 
	0.650793650793650702 1 0.6666666666666666297 1 0.6785714285714286031 1 0.6904761904761904656 1 0.7023809523809523281 1 
	0.7142857142857141906 1 0.7321428571428569843 1 0.749999999999999889 1 0.7678571428571427937 1 0.7857142857142855874 1 
	0.7976190476190474499 1 0.8095238095238094234 1 0.8333333333333332593 1 0.8452380952380951218 1 0.851190476190476053 1 
	0.8571428571428570953 1 0.875 1 0.8928571428571427937 1 0.9107142857142856984 1 0.9285714285714286031 1 
	0.9464285714285713969 1 0.9642857142857143016 1 0.9821428571428572063 1 0.9910714285714286031 1 0.9955357142857143016 1 
	0.9977678571428572063 1 0.9988839285714286031 1 0.9994419642857143016 1 0.9997209821428572063 1 1 3 
	0 3 1 3 
	4904.805562710044796 3523.146763804209058 13999.99989156744778 
	4904.805562705731973 3523.146763761300917 14002.33738610083128 
	4904.802287855018221 3523.11414374122387 14007.01237500225761 
	4904.782640103908307 3522.918437095695026 14016.36051432975546 
	4904.713884169529592 3522.233575342747372 14032.71010064161055 
	4904.51755832431536 3520.278019597463299 14056.01150985427921 
	4904.125704787818904 3516.374858321603824 14083.79692274475201 
	4903.39660609882867 3509.112477083079284 14120.49271993333241 
	4902.101793620669014 3496.215153330022986 14165.4862915806516 
	4899.953874688625547 3474.820236026351722 14217.39738568354187 
	4897.238894600264757 3447.776955382999404 14266.57467703468865 
	4893.990950676536158 3415.424946817998261 14312.3994618362176 
	4890.250937368370614 3378.171550388427477 14354.2959784956347 
	4886.220833807808049 3338.028632888364882 14390.34991196784722 
	4882.002586446129499 3296.01165907433051 14420.70970877033324 
	4877.683323300746451 3252.988490685094348 14445.67389584675584 
	4873.516072352121228 3211.479480180736573 14464.49778520535619 
	4869.595208848510083 3172.424677298234656 14478.23158440192674 
	4864.780347271062055 3124.464969024752463 14491.14854831255434 
	4858.606111273915303 3062.964850594869858 14500.46604266207396 
	4851.113254118962686 2988.33025570613745 14500.46567082029651 
	4844.939010623142167 2926.830062584697771 14491.14875652903174 
	4840.124138497097192 2878.870249237398639 14478.23210778631801 
	4836.595371838721803 2843.721031179365582 14465.87139183990075 
	4833.739856308663548 2815.27790989880441 14453.39922853962162 
	4831.516091599469291 2793.127510555084427 14442.16089856173676 
	4829.335848325632469 2771.410618033790342 14430.09816523771042 
	4826.697910471524665 2745.134737015252085 14413.50490911880479 
	4823.689871630415837 2715.17236676167613 14391.28058996246727 
	4821.32844177734205 2691.650717168368374 14370.93672956662522 
	4819.534368862802694 2673.780377133923594 14353.63591664888736 
	4818.238214176584734 2660.869683932918178 14340.16577385047458 
	4816.99328182152567 2648.469204373557659 14326.21983993841422 
	4815.403977705707803 2632.638518375432795 14307.016996210652 
	4813.55394167869963 2614.210742887556535 14281.92293242413325 
	4811.564922483316877 2594.398588616390498 14250.23329136056964 
	4809.62388769097106 2575.064395743576824 14213.46786078530749 
	4807.848019780638424 2557.375391491716982 14171.29388670670414 
	4806.377948357450805 2542.73235441426732 14123.58342615876609 
	4805.636766325583267 2535.349613819696515 14086.87944855907699 
	4805.296272196061182 2531.95803155737849 14062.17830528368904 
	4805.156829773824029 2530.569078254317446 14049.78909801988448 
	4805.066370899838148 2529.668038600848377 14039.43895800569226 
	4805.009498084760708 2529.101541812488904 14031.14723682787553 
	4804.84648963699965 2527.477852849547617 14002.10359375631378 
	4804.93481820438592 2528.357673017945217 13966.69375933325136 
	4805.502862678208658 2534.015830955422643 13921.32341937013189 
	4806.120634183524089 2540.169308204820027 13888.63577111495397 
	4807.088249665158401 2549.807499350194121 13852.48489432779024 
	4808.32303895494897 2562.106946212392813 13817.15919783220852 
	4810.316296709406743 2581.961319777096833 13771.42092645263438 
	4813.438196843901096 2613.057835700740725 13717.28704114680477 
	4817.071802765336543 2649.251333099384283 13671.67497791736969 
	4819.681262092996803 2675.243546187545235 13644.89405053351584 
	4820.884348075860544 2687.227203836122044 13633.43612112549999 
	4822.731218832881495 2705.62345081131707 13616.70495064772149 
	4825.655726435707038 2734.753785967354816 13593.35746178765112 
	4829.496186332093203 2773.007707355045113 13568.52630972203588 
	4833.168773929987765 2809.589492100551524 13549.0954876217329 
	4836.595382633355257 2843.72113870027988 13534.12887079177381 
	4840.124149375451452 2878.870357591529682 13521.76809002480331 
	4844.337165741415447 2920.835226698206043 13510.46655842410655 
	4849.255768790335424 2969.828279469078552 13502.10023601455032 
	4854.859683009831315 3025.647556269059805 13498.95010206759252 
	4860.463583972175911 3081.466701016695879 13502.10040777471841 
	4865.382202826884168 3130.459911225005271 13510.46648494250076 
	4869.595189667184968 3172.424486231074297 13521.76862786389029 
	4874.300278012479794 3219.290769054840439 13538.24836269888692 
	4878.800813810931686 3264.119551873549426 13559.94458137433685 
	4882.493859153806625 3300.905111422531263 13583.17650295497333 
	4884.525476128408627 3321.141572193077991 13597.60707659427862 
	4886.99585784159899 3345.748465742086864 13616.58327755668506 
	4890.250942398258303 3378.171600488815329 13645.7037248863835 
	4893.990968189679734 3415.42512127429427 13687.60014823693018 
	4897.238892200314694 3447.776931497667647 13733.42507321729681 
	4899.953899845575506 3474.820486636554961 13782.60224927892341 
	4902.101786734408051 3496.215084753407154 13834.51346104957156 
	4903.655604816013692 3511.692302651795217 13888.50569648213423 
	4904.439053317810249 3519.496049618694087 13934.66767833037738 
	4904.713880337048977 3522.233537168086059 13967.28968507765239 
	4904.782640998744682 3522.918446008543924 13983.63926769080354 
	4904.799831781786452 3523.089679370640624 13991.81889076040352 
	4904.804130025861923 3523.132493172744034 13995.90930482775548 
	4904.805204528047398 3523.143196037249254 13997.9545874479154 
	4904.805511542253953 3523.146254133826915 13999.12333111484622 
	4904.805562710583217 3523.146763809572803 13999.70770475077552 
	4904.805562710044796 3523.146763804209058 13999.99989156744778 
	5020.888698968614335 3511.492726433190001 13999.99989156744596 
	5020.888698964301511 3511.492726390281859 14002.33738610082946 
	5020.88542411358776 3511.460106370204812 14007.01237500225579 
	5020.865776362477845 3511.264399724675968 14016.36051432975364 
	5020.797020428099131 3510.579537971728314 14032.71010064160873 
	5020.600694582884898 3508.623982226444241 14056.01150985427739 
	5020.208841046388443 3504.720820950584766 14083.79692274475019 
	5019.479742357399118 3497.458439712060226 14120.49271993333059 
	5018.184929879239462 3484.561115959003928 14165.48629158064978 
	5016.037010947196904 3463.166198655332664 14217.39738568354005 
	5013.322030858836115 3436.122918011980346 14266.57467703468683 
	5010.074086935108426 3403.770909446979203 14312.39946183621578 
	5006.334073626942882 3366.517513017408419 14354.29597849563288 
	5002.303970066380316 3326.374595517345824 14390.3499119678454 
	4998.085722704702675 3284.357621703311452 14420.70970877033142 
	4993.766459559319628 3241.334453314074835 14445.67389584675402 
	4989.599208610694404 3199.82544280971706 14464.49778520535438 
	4985.67834510708326 3160.770639927215143 14478.23158440192492 
	4980.863483529635232 3112.810931653732951 14491.14854831255252 
	4974.68924753248848 3051.310813223850346 14500.46604266207214 
	4967.196390377536773 2976.676218335117937 14500.46567082029469 
	4961.022146881715344 2915.176025213678258 14491.14875652902992 
	4956.207274755670369 2867.216211866379126 14478.23210778631619 
	4952.67850809729498 2832.066993808346069 14465.87139183989893 
	4949.822992567236724 2803.623872527784897 14453.3992285396198 
	4947.599227858042468 2781.473473184064915 14442.16089856173494 
	4945.418984584204736 2759.756580662771285 14430.0981652377086 
	4942.781046730097842 2733.480699644232573 14413.50490911880297 
	4939.773007888988104 2703.518329390657073 14391.28058996246546 
	4937.411578035914317 2679.996679797349316 14370.9367295666234 
	4935.617505121374961 2662.126339762904536 14353.63591664888554 
	4934.321350435157001 2649.215646561899121 14340.16577385047276 
	4933.076418080097937 2636.815167002538601 14326.21983993841241 
	4931.48711396428007 2620.984481004413738 14307.01699621065018 
	4929.637077937270988 2602.556705516537477 14281.92293242413143 
	4927.648058741888235 2582.74455124537144 14250.23329136056782 
	4925.707023949542418 2563.410358372557766 14213.46786078530567 
	4923.931156039208872 2545.721354120697924 14171.29388670670232 
	4922.461084616021253 2531.078317043248262 14123.58342615876427 
	4921.719902584153715 2523.695576448677457 14086.87944855907517 
	4921.37940845463072 2520.303994186359432 14062.17830528368722 
	4921.239966032393568 2518.915040883298389 14049.78909801988266 
	4921.149507158407687 2518.014001229829319 14039.43895800569044 
	4921.092634343330246 2517.447504441469846 14031.14723682787371 
	4920.929625895569188 2515.823815478528559 14002.10359375631197 
	4921.017954462954549 2516.703635646926159 13966.69375933324955 
	4921.585998936777287 2522.361793584403586 13921.32341937013007 
	4922.203770442092718 2528.515270833800969 13888.63577111495215 
	4923.17138592372612 2538.153461979175518 13852.48489432778842 
	4924.40617521351669 2550.45290884137421 13817.1591978322067 
	4926.399432967973553 2570.30728240607823 13771.42092645263256 
	4929.521333102467906 2601.403798329722122 13717.28704114680295 
	4933.154939023902443 2637.59729572836568 13671.67497791736787 
	4935.764398351562704 2663.589508816526632 13644.89405053351402 
	4936.967484334426445 2675.573166465103441 13633.43612112549818 
	4938.814355091447396 2693.969413440298467 13616.70495064771967 
	4941.738862694272939 2723.099748596336212 13593.3574617876493 
	4945.579322590659103 2761.35366998402651 13568.52630972203406 
	4949.251910188552756 2797.935454729532921 13549.09548762173108 
	4952.678518891921158 2832.067101329261277 13534.12887079177199 
	4956.207285634016444 2867.216320220511079 13521.7680900248015 
	4960.420301999980438 2909.18118932718744 13510.46655842410473 
	4965.338905048900415 2958.174242098059949 13502.1002360145485 
	4970.942819268396306 3013.993518898041202 13498.95010206759071 
	4976.546720230740902 3069.812663645677276 13502.10040777471659 
	4981.465339085449159 3118.805873853986668 13510.46648494249894 
	4985.678325925749959 3160.770448860055694 13521.76862786388847 
	4990.383414271044785 3207.636731683821836 13538.2483626988851 
	4994.883950069497587 3252.465514502530823 13559.94458137433503 
	4998.576995412372526 3289.25107405151266 13583.17650295497151 
	5000.608612386974528 3309.487534822059388 13597.6070765942768 
	5003.078994100164891 3334.094428371068261 13616.58327755668324 
	5006.334078656824204 3366.517563117796726 13645.70372488638168 
	5010.074104448246544 3403.771083903275667 13687.60014823692836 
	5013.322028458881505 3436.122894126649044 13733.42507321729499 
	5016.037036104143226 3463.166449265536357 13782.60224927892159 
	5018.184922992975771 3484.561047382388551 13834.51346104956974 
	5019.738741074581412 3500.038265280776159 13888.50569648213241 
	5020.522189576378878 3507.842012247675029 13934.66767833037557 
	5020.797016595617606 3510.579499797067001 13967.28968507765057 
	5020.865777257313312 3511.264408637524866 13983.63926769080172 
	5020.882968040355991 3511.435641999621566 13991.8188907604017 
	5020.887266284431462 3511.478455801724976 13995.90930482775366 
	5020.888340786616936 3511.489158666230196 13997.95458744791358 
	5020.888647800823492 3511.492216762807857 13999.1233311148444 
	5020.888698969152756 3511.492726438553746 13999.7077047507737 
	5020.888698968614335 3511.492726433190001 13999.99989156744596 
	5136.971835228800046 3499.838689062009962 13999.99989156744414 
	5136.971835224487222 3499.838689019102276 14002.33738610082582 
	5136.968560373769833 3499.806068999025683 14007.01237500225398 
	5136.948912622653552 3499.610362353497294 14016.36051432974818 
	5136.880156688249372 3498.925500600552823 14032.7101006416051 
	5136.683830842968746 3496.969944855275571 14056.01150985427375 
	5136.291977306408626 3493.066783579422463 14083.79692274474655 
	5135.56287861734927 3485.804402340904744 14120.49271993332513 
	5134.268066138974064 3472.907078587869819 14165.48629158064614 
	5132.120147206763249 3451.512161284214926 14217.39738568353459 
	5129.405167118213285 3424.468880640881252 14266.57467703467955 
	5126.157223194342805 3392.116872075894662 14312.39946183621214 
	5122.417209885999 3354.863475646341158 14354.2959784956256 
	5118.387106325414607 3314.720558146280837 14390.34991196783994 
	5114.168858963595994 3272.703584332260107 14420.70970877032414 
	5109.849595818204762 3229.6804159430244 14445.67389584674493 
	5105.682344869551343 3188.171405438670263 14464.4977852053471 
	5101.761481365921099 3149.11660255616971 14478.23158440191946 
	5096.946619788446696 3101.1568942826907 14491.14854831254888 
	5090.77238379127084 3039.656775852811279 14500.4660426620685 
	5083.279526636262744 2965.022180964082963 14500.46567082028741 
	5077.105283140404936 2903.521987842647832 14491.14875652902265 
	5072.290411014347228 2855.562174495349609 14478.23210778630892 
	5068.761644355959106 2820.412956437317462 14465.87139183988984 
	5065.906128825894484 2791.969835156757199 14453.3992285396107 
	5063.682364116692952 2769.819435813038126 14442.16089856172766 
	5061.502120842852491 2748.102543291744496 14430.09816523770314 
	5058.864182988734683 2721.826662273207148 14413.50490911879569 
	5055.856144147623127 2691.864292019631193 14391.28058996245818 
	5053.494714294542973 2668.342642426324346 14370.93672956661612 
	5051.700641380001798 2650.472302391879566 14353.63591664887826 
	5050.404486693781109 2637.561609190873696 14340.16577385046367 
	5049.159554338721136 2625.161129631513631 14326.21983993840695 
	5047.570250222903269 2609.330443633388768 14307.01699621064654 
	5045.720214195892368 2590.902668145513417 14281.92293242412597 
	5043.731195000507796 2571.09051387434738 14250.23329136056054 
	5041.79016020815925 2551.756321001533706 14213.46786078530022 
	5040.014292297823886 2534.067316749673864 14171.29388670669869 
	5038.544220874633538 2519.424279672224202 14123.58342615875881 
	5037.803038842760543 2512.041539077654306 14086.87944855907335 
	5037.462544713237548 2508.649956815336736 14062.17830528368359 
	5037.323102291000396 2507.261003512275693 14049.78909801987902 
	5037.232643417013605 2506.359963858806623 14039.4389580056868 
	5037.175770601936165 2505.79346707044715 14031.14723682787007 
	5037.012762154176016 2504.169778107505863 14002.10359375630833 
	5037.101090721562286 2505.049598275903918 13966.69375933324591 
	5037.669135195385934 2510.707756213381344 13921.32341937012643 
	5038.286906700701365 2516.861233462778728 13888.63577111494851 
	5039.254522182338405 2526.499424608152822 13852.48489432778661 
	5040.489311472129884 2538.79887147035106 13817.15919783220488 
	5042.482569226593114 2558.653245035055079 13771.42092645263074 
	5045.604469361098381 2589.749760958698062 13717.28704114679749 
	5049.238075282543832 2625.943258357340255 13671.67497791736605 
	5051.84753461021046 2651.935471445500752 13644.89405053350856 
	5053.050620593075109 2663.919129094077562 13633.43612112549454 
	5054.89749135009879 2682.315376069272588 13616.70495064771603 
	5057.82199895292888 2711.445711225309424 13593.35746178764384 
	5061.662458849319592 2749.699632612999267 13568.52630972203042 
	5065.335046447231434 2786.281417358503859 13549.09548762172562 
	5068.761655150605293 2820.41306395823176 13534.12887079176471 
	5072.290421892719678 2855.562282849479743 13521.76809002479604 
	5076.503438258702772 2897.52715195615383 13510.46655842410291 
	5081.422041307634572 2946.520204727024975 13502.10023601454668 
	5087.025955527177757 3002.339481527000771 13498.95010206758889 
	5092.629856489578742 3058.158626274631843 13502.10040777471659 
	5097.548475344299732 3107.151836482939416 13510.46648494249712 
	5101.761462184641459 3149.116411489005259 13521.76862786389211 
	5106.466550529952656 3195.982694312769127 13538.24836269888692 
	5110.967086328446385 3240.811477131474021 13559.94458137433685 
	5114.660131671353156 3277.59703668045313 13583.17650295497333 
	5116.691748645963344 3297.833497450998948 13597.60707659427862 
	5119.162130359165531 3322.440391000006457 13616.58327755668506 
	5122.417214915889417 3354.863525746728556 13645.70372488638168 
	5126.157240707389974 3392.117046532199311 13687.60014823693018 
	5129.405164718106789 3424.468856755564957 13733.42507321729317 
	5132.12017236349584 3451.512411894439083 13782.60224927891977 
	5134.268059252586681 3472.907010011265356 13834.5134610495661 
	5135.821877334392411 3488.38422790963341 13888.50569648212695 
	5136.605325836452721 3496.18797487650636 13934.66767833037011 
	5136.880152855768756 3498.925462425889691 13967.28968507764512 
	5136.948913517490837 3499.610371266346192 13983.63926769079626 
	5136.966104300538063 3499.781604628440618 13991.81889076039806 
	5136.970402544616263 3499.824418430543574 13995.9093048277482 
	5136.971477046801738 3499.835121295049248 13997.95458744790812 
	5136.971784061010112 3499.838179391627818 13999.1233311148444 
	5136.971835229339376 3499.838689067373252 13999.70770475077188 
	5136.971835228800046 3499.838689062009962 13999.99989156744414 
	5253.054971487372313 3488.184651690990904 13999.99989156744232 
	5253.054971483059489 3488.184651648083218 14002.33738610082401 
	5253.0516966323421 3488.152031628006625 14007.01237500225216 
	5253.032048881225819 3487.956324982478236 14016.36051432974637 
	5252.963292946821639 3487.271463229533765 14032.71010064160328 
	5252.766967101540104 3485.315907484256513 14056.01150985427194 
	5252.375113564979983 3481.412746208403405 14083.79692274474473 
	5251.646014875920628 3474.150364969885686 14120.49271993332331 
	5250.351202397544512 3461.253041216851216 14165.48629158064432 
	5248.203283465332788 3439.858123913196323 14217.39738568353278 
	5245.488303376782824 3412.814843269862649 14266.57467703467773 
	5242.240359452911434 3380.462834704876059 14312.39946183621032 
	5238.50034614456672 3343.209438275322555 14354.29597849562379 
	5234.470242583982326 3303.066520775262234 14390.34991196783812 
	5230.251995222163714 3261.049546961241504 14420.70970877032232 
	5225.932732076771572 3218.026378572005797 14445.67389584674311 
	5221.765481128118154 3176.51736806765166 14464.49778520534528 
	5217.84461762448791 3137.462565185151107 14478.23158440191764 
	5213.029756047013507 3089.502856911672552 14491.14854831254706 
	5206.855520049836741 3028.002738481792676 14500.46604266206668 
	5199.362662894829555 2953.368143593064815 14500.4656708202856 
	5193.188419398971746 2891.867950471629229 14491.14875652902083 
	5188.373547272914038 2843.908137124331006 14478.2321077863071 
	5184.844780614525916 2808.758919066298859 14465.87139183988802 
	5181.989265084461294 2780.315797785738596 14453.39922853960888 
	5179.765500375259762 2758.165398442019523 14442.16089856172584 
	5177.585257101419302 2736.448505920725893 14430.09816523770132 
	5174.947319247302403 2710.172624902188545 14413.50490911879388 
	5171.939280406190846 2680.21025464861259 14391.28058996245636 
	5169.577850553110693 2656.688605055305743 14370.9367295666143 
	5167.783777638569518 2638.818265020860963 14353.63591664887645 
	5166.487622952349739 2625.907571819855093 14340.16577385046185 
	5165.242690597289766 2613.507092260495028 14326.21983993840513 
	5163.653386481471898 2597.676406262370165 14307.01699621064472 
	5161.803350454460997 2579.248630774494814 14281.92293242412416 
	5159.814331259077335 2559.436476503328777 14250.23329136055872 
	5157.873296466728789 2540.102283630515103 14213.4678607852984 
	5156.097428556394334 2522.413279378655261 14171.29388670669687 
	5154.627357133203986 2507.770242301205599 14123.58342615875699 
	5153.886175101331901 2500.387501706635248 14086.87944855907153 
	5153.545680971808906 2496.995919444317678 14062.17830528368177 
	5153.406238549571754 2495.606966141256635 14049.7890980198772 
	5153.315779675585873 2494.705926487787565 14039.43895800568498 
	5153.258906860508432 2494.139429699428092 14031.14723682786826 
	5153.095898412748284 2492.515740736486805 14002.10359375630651 
	5153.184226980135463 2493.39556090488486 13966.69375933324409 
	5153.752271453959111 2499.053718842362287 13921.32341937012461 
	5154.370042959275452 2505.20719609175967 13888.63577111494669 
	5155.337658440912492 2514.845387237133764 13852.48489432778479 
	5156.57244773070488 2527.144834099332002 13817.15919783220306 
	5158.56570548516811 2546.999207664036021 13771.42092645262892 
	5161.687605619674287 2578.095723587678549 13717.28704114679567 
	5165.321211541119737 2614.289220986320743 13671.67497791736423 
	5167.930670868787274 2640.28143407448124 13644.89405053350674 
	5169.133756851651924 2652.265091723058049 13633.43612112549272 
	5170.980627608675604 2670.661338698253076 13616.70495064771421 
	5173.905135211506604 2699.791673854289911 13593.35746178764202 
	5177.745595107897316 2738.045595241979754 13568.5263097220286 
	5181.418182705809159 2774.627379987484346 13549.09548762172381 
	5184.844791409183017 2808.759026587212247 13534.12887079176289 
	5188.373558151298312 2843.908245478460231 13521.76809002479422 
	5192.586574517281406 2885.873114585134317 13510.46655842410109 
	5197.505177566213206 2934.866167356005462 13502.10023601454486 
	5203.109091785756391 2990.685444155981259 13498.95010206758707 
	5208.712992748157376 3046.50458890361233 13502.10040777471477 
	5213.631611602878365 3095.497799111919903 13510.4664849424953 
	5217.844598443219184 3137.462374117985746 13521.76862786389029 
	5222.54968678853038 3184.328656941749614 13538.2483626988851 
	5227.050222587024109 3229.157439760454508 13559.94458137433503 
	5230.74326792993088 3265.942999309433617 13583.17650295497151 
	5232.774884904540158 3286.179460079979435 13597.6070765942768 
	5235.245266617742345 3310.786353628986944 13616.58327755668324 
	5238.500351174466232 3343.209488375709043 13645.70372488637986 
	5242.240376965966789 3380.463009161179798 13687.60014823692836 
	5245.488300976681785 3412.814819384545444 13733.42507321729136 
	5248.203308622070836 3439.858374523420025 13782.60224927891795 
	5250.351195511160768 3461.252972640246298 13834.51346104956428 
	5251.905013592966498 3476.730190538614352 13888.50569648212513 
	5252.688462095025898 3484.533937505487302 13934.66767833036829 
	5252.963289114341933 3487.271425054870633 13967.2896850776433 
	5253.032049776063104 3487.956333895327134 13983.63926769079444 
	5253.049240559110331 3488.12756725742156 13991.81889076039624 
	5253.05353880318853 3488.170381059524516 13995.90930482774638 
	5253.054613305374005 3488.18108392403019 13997.95458744790631 
	5253.054920319582379 3488.184142020608761 13999.12333111484259 
	5253.054971487911644 3488.184651696354194 13999.70770475077006 
	5253.054971487372313 3488.184651690990904 13999.99989156744232 
	0 
	
	0 
	0 
	84 0 0.002232142857142857019 0.004464285714285714038 0.008928571428571428076 0.01785714285714285615 0.02678571428571428423 0.0357142857142857123 0.05357142857142856845 0.07142857142857142461 0.08928571428571427382 0.1071428571428571369 0.125 0.1428571428571428492 0.1587301587301587213 0.1746031746031745935 0.1904761904761904656 0.2023809523809523836 0.2142857142857142738 0.238095238095238082 0.2619047619047618625 0.2857142857142856984 0.2976190476190476164 0.3095238095238095344 0.3214285714285713969 0.3273809523809523281 0.3333333333333333148 0.3452380952380952328 0.3571428571428570953 0.3690476190476190133 0.375 0.3809523809523809312 0.3869047619047618625 0.3928571428571428492 0.4047619047619047672 0.4166666666666666297 0.4285714285714285476 0.4444444444444444198 0.4603174603174602919 0.476190476190476164 0.4801587301587301182 0.4841269841269840724 0.4880952380952380265 0.4900793650793650036 0.4920634920634920362 0.5158730158730158166 0.5238095238095237249 0.5357142857142855874 0.5476190476190475609 0.5595238095238095344 0.5714285714285713969 0.5952380952380951218 0.6190476190476189577 0.6269841269841269771 0.6309523809523809312 0.6349206349206348854 0.650793650793650702 0.6666666666666666297 0.6785714285714286031 0.6904761904761904656 0.7023809523809523281 0.7142857142857141906 0.7321428571428569843 0.749999999999999889 0.7678571428571427937 0.7857142857142855874 0.7976190476190474499 0.8095238095238094234 0.8333333333333332593 0.8452380952380951218 0.851190476190476053 0.8571428571428570953 0.875 0.8928571428571427937 0.9107142857142856984 0.9285714285714286031 0.9464285714285713969 0.9642857142857143016 0.9821428571428572063 0.9910714285714286031 0.9955357142857143016 0.9977678571428572063 0.9988839285714286031 0.9994419642857143016 0.9997209821428572063 
	0 
	0 
	0 
	F 1 F 0 F 1 F 0 } I I I I #
tcoedge-coedge $-1 -1 $-1 $14 $14 $18 $19 reversed $9 $20 -6.283185307179586232 -4.505180122013447668e-30 #
tcoedge-coedge $-1 -1 $-1 $21 $22 $11 $16 reversed $12 $23 -6.283185307179586232 -0 #
tedge-edge $-1 -1 $-1 $24 0 $24 6.283185307179586232 $15 $25 forward @7 unknown 0.0006927578996935086124 #
pcurve $-1 -1 $-1 0 forward { exppc nurbs 2 periodic 5 
	0 2 1.570796326794896558 2 3.141592653589793116 2 4.712388980384689674 2 6.283185307179586232 2 
	0 500.0000000000004547 1 
	-500 500.0000000000004547 0.7071067811865471286 
	-500 0 1 
	-500 -499.9999999999995453 0.7071067811865471286 
	0 -499.9999999999995453 1 
	500 -499.9999999999995453 0.7071067811865471286 
	500 0 1 
	500 500.0000000000004547 0.7071067811865471286 
	0 500.0000000000004547 1 
	0 
	plane 5203.1090906171803 2990.685432545871208 14000.00000000000182 0.994998310803835273 -0.09989174889606428076 0 0 0 -1 forward_v I I I I 
	} 0 0 #
tcoedge-coedge $-1 -1 $-1 $22 $21 $14 $19 forward $12 $26 4.505180122013447668e-30 6.283185307179586232 #
tedge-edge $-1 -1 $-1 $27 4.505180122013447668e-30 $27 6.283185307179586232 $18 $28 forward @7 unknown 0.0006927578980915801701 #
pcurve $-1 -1 $-1 0 forward { exppc nurbs 2 periodic 5 
	-6.283185307179586232 2 -4.712388980384689674 2 -3.141592653589793116 2 -1.570796326794896558 2 -4.505180122013447668e-30 2 
	0 500.0000000000004547 1 
	500 500.0000000000004547 0.7071067811865452413 
	500 4.54747350886464119e-13 1 
	500 -500 0.7071067811865424657 
	0 -500 1 
	-500 -500.0000000000004547 0.7071067811865445751 
	-500 -4.54747350886464119e-13 1 
	-500 499.9999999999995453 0.7071067811865442421 
	0 500.0000000000004547 1 
	0 
	plane 4854.859681841469865 3025.647544658928382 14000.00000000001091 -0.9949983108038356061 0.09989174889606429464 5.19711258164362649e-15 -5.223237592679933738e-15 0 -1 reverse_v I I I I 
	} 0 0 #
coedge $-1 -1 $-1 $18 $15 $22 $29 reversed $12 $30 #
coedge $-1 -1 $-1 $15 $18 $21 $29 forward $12 $31 #
pcurve $-1 -1 $-1 0 forward { exppc nubs 1 periodic 2 
	-6.283185307179586232 1 -0 1 
	1 1 
	0 1 
	2.752044897764221435e-13 
	spline forward { ref 0 } I I I I 
	} 0 0 #
tvertex-vertex $-1 -1 $-1 $16 $32 0.0001259446798331739802 #
ellipse-curve $-1 -1 $-1 5203.1090906171803 2990.685432545871208 14000.00000000000182 0.994998310803835273 -0.09989174889606428076 0 49.94587444803213572 497.4991554019177329 0 1 I I #
pcurve $-1 -1 $-1 0 forward { exppc nubs 1 periodic 2 
	4.505180122013447668e-30 1 6.283185307179586232 1 
	0 0 
	1 0 
	2.768004117215109095e-12 
	spline forward { ref 0 } I I I I 
	} 0 0 #
tvertex-vertex $-1 -1 $-1 $19 $33 0.0001259446822234585922 #
ellipse-curve $-1 -1 $-1 4854.859681841469865 3025.647544658928382 14000.00000000001091 0.9949983108038356061 -0.09989174889606429464 -5.19711258164362649e-15 49.94587444803214282 497.4991554019177329 0 1 I I #
edge $-1 -1 $-1 $27 0 $24 0.9999999999353773594 $22 $34 forward @7 tangent #
pcurve $-1 -1 $-1 -1 $34 0 0 #
pcurve $-1 -1 $-1 1 $34 1 0 #
point $-1 -1 $-1 5253.054965065212855 3488.184587947789169 14000.00000000000182 #
point $-1 -1 $-1 4904.80555628950242 3523.146700060845887 14000.00000000001091 #
intcurve-curve $-1 -1 $-1 forward { parcur full nubs 3 open 2 
	0 3 1 3 
	4904.805562710044796 3523.146763804209058 13999.99989156744778 
	5020.888698968614335 3511.492726433190001 13999.99989156744596 
	5136.971835228800046 3499.838689062009962 13999.99989156744414 
	5253.054971487372313 3488.184651690990904 13999.99989156744232 
	0 
	
	spline forward { ref 0 } I I I I 
	null_surface 
	nubs 1 open 2 
	0 1 1 1 
	0 0 
	0 1 
	
	nullbs 
	I I 
	0 
	0 
	0 
	surf1 } F 0 F 0.9999999999353773594 #
End-of-ACIS-data 