700 0 1 0           
4 LibG 20 ASM 224.0.1.65535 NT 24 Wed Jul 17 15:51:17 2019 
1000 9.999999999999999547e-07 1.000000000000000036e-10 
body $-1 -1 $-1 $1 $-1 $2 #
lump $-1 -1 $-1 $-1 $3 $0 #
transform $-1 -1 1 0 0 0 1 0 0 0 1 0 0 0 1 no_rotate no_reflect no_shear #
shell $-1 -1 $-1 $-1 $-1 $4 $-1 $1 #
face $-1 -1 $-1 $5 $6 $3 $-1 $7 forward single #
face $-1 -1 $-1 $8 $9 $3 $-1 $10 reversed single #
loop $-1 -1 $-1 $-1 $11 $4 #
plane-surface $-1 -1 $-1 8139.946898511150721 1973.075746584390799 14000.00000000000364 0.7646431474603594403 -0.6444539215816094124 -1.039422516328726087e-14 -1.359356347834937888e-14 0 -1 forward_v I I I I #
face $-1 -1 $-1 $-1 $12 $3 $-1 $13 forward single #
loop $-1 -1 $-1 $-1 $14 $5 #
plane-surface $-1 -1 $-1 7851.132247660311805 2170.777788682965365 14000.00000000001091 0.8251847167300258024 -0.5648629774336318965 0 0 0 -1 forward_v I I I I #
tcoedge-coedge $-1 -1 $-1 $11 $11 $15 $16 forward $6 $17 -2.103402129098765068e-29 6.283185307179586232 #
loop $-1 -1 $-1 $-1 $18 $8 #
spline-surface $-1 -1 $-1 forward { exactsur full nubs 3 3 periodic open none none 84 2 
	0 3 0.002232142857142857019 1 0.004464285714285714038 1 0.008928571428571428076 1 0.01785714285714285615 1 
	0.0357142857142857123 1 0.05357142857142856845 1 0.0625 1 0.0669642857142857123 1 0.07142857142857142461 1 
	0.08928571428571427382 1 0.1071428571428571369 1 0.125 1 0.1428571428571428492 1 0.1587301587301587213 1 
	0.1746031746031745935 1 0.1825396825396825295 1 0.1904761904761904656 1 0.2023809523809523836 1 0.2142857142857142738 1 
	0.238095238095238082 1 0.2619047619047618625 1 0.2857142857142856984 1 0.3095238095238095344 1 0.3333333333333333148 1 
	0.3340773809523809312 1 0.3348214285714286031 1 0.336309523809523836 1 0.3377976190476190688 1 0.3392857142857143016 1 
	0.3452380952380952328 1 0.3571428571428570953 1 0.3690476190476190133 1 0.3720238095238095344 1 0.375 1 
	0.3779761904761904656 1 0.3809523809523809312 1 0.4047619047619047672 1 0.4166666666666666297 1 0.4285714285714285476 1 
	0.4444444444444444198 1 0.4603174603174602919 1 0.4682539682539682557 1 0.476190476190476164 1 0.4920634920634920362 1 
	0.5079365079365079083 1 0.5238095238095237249 1 0.5357142857142855874 1 0.5476190476190475609 1 0.5595238095238095344 1 
	0.5714285714285713969 1 0.5952380952380951218 1 0.6071428571428569843 1 0.6190476190476189577 1 0.6349206349206348854 1 
	0.650793650793650702 1 0.6666666666666666297 1 0.6785714285714286031 1 0.6904761904761904656 1 0.7023809523809523281 1 
	0.7142857142857141906 1 0.7232142857142855874 1 0.7321428571428569843 1 0.749999999999999889 1 0.7678571428571427937 1 
	0.7857142857142855874 1 0.7976190476190474499 1 0.8095238095238094234 1 0.8333333333333332593 1 0.8571428571428570953 1 
	0.875 1 0.8928571428571427937 1 0.9107142857142856984 1 0.9285714285714286031 1 0.9464285714285713969 1 
	0.9642857142857143016 1 0.9821428571428572063 1 0.9910714285714286031 1 0.9955357142857143016 1 0.9977678571428572063 1 
	0.9988839285714286031 1 0.9994419642857143016 1 0.9997209821428572063 1 1 3 
	0 3 1 3 
	8133.563768897604859 2583.37019461763839 13999.99990298597913 
	8133.563768883876946 2583.37019459756948 14002.33739752006477 
	8133.54524907391442 2583.343139780988622 14007.01238627336534 
	8133.434150829171813 2583.180840998123131 14016.36052613411266 
	8133.045328643677749 2582.612826916286394 14032.71010984469285 
	8131.49122839744723 2580.342506813329692 14065.33209942796566 
	8127.061073323661731 2573.870678404642149 14111.49410793375318 
	8119.738884435395448 2563.173998662573922 14156.48752454052737 
	8113.143940133861179 2553.539720148939523 14187.07267374806906 
	8108.964806155018778 2547.43459797493415 14204.24879841600159 
	8102.290509493764148 2537.684396916848527 14229.69169804114244 
	8090.776154519130614 2520.863556941478237 14266.5746836372 
	8072.409847048182201 2494.032985925611683 14312.39951586712596 
	8051.26096245725148 2463.137464284928228 14354.29591862147572 
	8028.471698633006781 2429.845581178969042 14390.34980354411528 
	8004.618636024593798 2394.999638888043137 14420.70972996666205 
	7984.264982401693487 2365.265836938596749 14441.51319983011308 
	7967.340777306310883 2340.541973017931923 14455.94151284967302 
	7952.195183392310355 2318.416407839607928 14467.24451775721536 
	7934.457998462981777 2292.504895656132703 14478.23161888215145 
	7907.231153602682753 2252.730335875065975 14491.14850724836106 
	7872.31737080590301 2201.726249718485178 14500.46617383979174 
	7829.947211611826788 2139.829454902388989 14500.46539314825168 
	7788.05046068244792 2078.624242435868382 14489.28611443140653 
	7747.562764807420535 2019.477459610566484 14467.17644766483136 
	7721.715749310285901 1981.718634879808178 14445.14066607682253 
	7708.773994492257771 1962.81256613356436 14431.84101012350948 
	7707.255572078935074 1960.594366288523133 14430.26379736811577 
	7705.365390886935529 1957.833079580401773 14428.26873036676625 
	7703.109912288793566 1954.538145158324824 14425.83722357442093 
	7698.624841466895305 1947.986092636652984 14420.89973911784728 
	7689.049473182943984 1933.997837288445226 14409.80095446216183 
	7674.874721506695096 1913.290534961922958 14391.28068264569083 
	7662.856742331620808 1895.733971445503585 14372.9712332593208 
	7655.180779852636988 1884.520478657143258 14360.12381771096079 
	7651.411291529766459 1879.013790702367714 14353.5742270256269 
	7647.711686934765567 1873.609192965031525 14346.90093082977364 
	7635.616457565939527 1855.939777869238469 14324.25273106725945 
	7621.307440788121312 1835.036333266845759 14292.48662148435324 
	7606.311375053582196 1813.129207557361724 14250.23308060719864 
	7595.335104032185882 1797.094431947166186 14213.46795774203383 
	7585.293092897489259 1782.424477560518199 14171.29384801057677 
	7578.365801443701457 1772.304686984001592 14131.53514097659718 
	7574.186049520028973 1766.198662080718123 14099.11412463480519 
	7570.924024461356566 1761.433306000467837 14066.36469280425081 
	7568.583818173204236 1758.014596437013097 14024.9643059899372 
	7568.583959451023475 1758.014802823865693 13975.03571675188869 
	7571.157934382306848 1761.775015228337224 13929.49526025427622 
	7575.525132843406936 1768.154872944352292 13888.63578513976972 
	7580.996524386841884 1776.147800187435905 13852.48482779781807 
	7587.979144586292023 1786.348418216181017 13817.1592866644587 
	7599.25020212511663 1802.813835129823474 13771.42062833737145 
	7613.373460904313106 1823.445913635110173 13728.11416936534624 
	7630.112628833768213 1847.899464492869583 13687.96450909361556 
	7645.434211697830506 1870.282124572831663 13656.44420300547426 
	7663.941263169083868 1897.318302612926573 13624.48738512389173 
	7685.99114497381197 1929.530053423326763 13593.35754746294151 
	7707.707949444350561 1961.255225476462556 13568.52628209843351 
	7728.475511435419321 1991.593688862630415 13549.09539038492221 
	7747.852145982528782 2019.900204475859709 13534.12884937027047 
	7767.806428380501529 2049.050581693507411 13521.7678823595179 
	7786.524988629035761 2076.395744066770021 13512.88848294751369 
	7803.798380643021119 2101.629720563177216 13506.80597857980138 
	7824.72497999477946 2132.200514982913774 13501.57540494962996 
	7851.132216078070087 2170.777742555795612 13498.94976573360509 
	7882.82093352719221 2217.070465529960074 13502.10040136985481 
	7910.634455775842071 2257.702077789904706 13510.46651629522967 
	7934.457949353160984 2292.504823916321584 13521.76832890676633 
	7961.063925673779522 2331.372382795086196 13538.24838460952378 
	7992.876029759573612 2377.845356150075077 13565.36800349235455 
	8024.966013949187982 2424.724272937161913 13604.10244967410472 
	8051.260936791248241 2463.13742679074312 13645.70390763510295 
	8072.409980364889634 2494.033180682714374 13687.6000276450668 
	8090.776162559328441 2520.863568687661882 13733.42506099679122 
	8106.128773089903007 2543.291555794253327 13782.60228638256922 
	8118.274582968650066 2561.034861849352637 13834.51347454975985 
	8127.061027646554976 2573.870611678501064 13888.50571515964111 
	8131.491248434125737 2580.342536084834137 13934.66768992302968 
	8133.0453268814681 2582.612824342210388 13967.28969688506731 
	8133.434152200073186 2583.180843000947334 13983.63927912234612 
	8133.531361861538244 2583.322852532941397 13991.81890219222078 
	8133.555667397579782 2583.35835947481155 13995.90931624477707 
	8133.561743456327349 2583.367235735116537 13997.95459886605204 
	8133.563479531151643 2583.369771894282167 13999.12334253077461 
	8133.563768899321076 2583.370194620147231 13999.70771616921957 
	8133.563768897604859 2583.37019461763839 13999.99990298597913 
	8243.100476632511345 2507.379252302201621 13999.99990298597731 
	8243.100477006610163 2507.3792519871281 14002.33739752006295 
	8243.081085894411444 2507.352859934449498 14007.01238627336352 
	8242.964772177665509 2507.194528347386495 14016.36052613411084 
	8242.55768379555775 2506.640408612694955 14032.71010984469103 
	8240.930596572361537 2504.425606711828095 14065.33209942796384 
	8236.292365069164589 2498.112053515219486 14111.49410793375137 
	8228.626271147009902 2487.67696823787719 14156.48752454052556 
	8221.721574983008395 2478.278305271195222 14187.07267374806725 
	8217.346156533842077 2472.322488649271236 14204.24879841599977 
	8210.35838869663894 2462.810732267471849 14229.69169804114063 
	8198.303228478263918 2446.401260676733273 14266.57468363719818 
	8179.074299109574895 2420.226850784906674 14312.39951586712414 
	8156.932099415647826 2390.086903233190696 14354.2959186214739 
	8133.072477685272133 2357.609197519032477 14390.34980354411346 
	8108.099088775373275 2323.615441530356748 14420.70972996666023 
	8086.789473669902691 2294.608800301714837 14441.51319983011126 
	8069.070375173499997 2270.489579213409797 14455.9415128496712 
	8053.213429294858543 2248.905110320642507 14467.24451775721354 
	8034.643167307470321 2223.627285712524099 14478.23161888214963 
	8006.137543032804388 2184.825441022656833 14491.14850724835924 
	7969.583934258305817 2135.068703280936461 14500.46617383978992 
	7925.223749941243113 2074.685639016995992 14500.46539314824986 
	7881.359202243384061 2014.977248904360977 14489.28611443140471 
	7838.96989751588535 1957.276941997872882 14467.17644766482954 
	7811.908898835325999 1920.441544521035439 14445.14066607682071 
	7798.359308994312414 1901.997830965353842 14431.84101012350766 
	7796.769568655854528 1899.833879743079706 14430.26379736811396 
	7794.790610915722937 1897.140121716717658 14428.26873036676443 
	7792.429196972686441 1893.925767969862363 14425.83722357441911 
	7787.733473710756698 1887.533950125973888 14420.89973911784546 
	7777.708371022605206 1873.887789307191952 14409.80095446216001 
	7762.867865925333717 1853.686898322899879 14391.28068264568901 
	7750.285427580926807 1836.559695762879073 14372.97123325931898 
	7742.248945660920981 1825.62043533782753 14360.12381771095897 
	7738.302409203491152 1820.248420642896008 14353.57422702562508 
	7734.42905008996604 1814.975990846671948 14346.90093082977182 
	7721.765709234525275 1797.738714875347569 14324.25273106725763 
	7706.784649336284019 1777.346465931743296 14292.48662148435142 
	7691.084251441819106 1755.975096830067514 14250.23308060719683 
	7679.592451556200103 1740.332462898526273 14213.46795774203201 
	7669.078789429637254 1726.021274091315036 14171.29384801057495 
	7661.826132510004754 1716.148975689935696 14131.53514097659536 
	7657.450071975718856 1710.192274701262022 14099.11412463480337 
	7654.034832505633858 1705.543462544456133 14066.36469280424899 
	7651.584717145433387 1702.208356307611439 14024.96430598993538 
	7651.584858420766068 1702.20856269635533 13975.03571675188687 
	7654.279733060870967 1705.876811647262002 13929.4952602542744 
	7658.852050917797897 1712.100643445455034 13888.6357851397679 
	7664.580416195352882 1719.898101300768076 13852.48482779781625 
	7671.891001944131858 1729.849249377431079 13817.15928666445689 
	7683.69142829912289 1745.911997128190706 13771.42062833736964 
	7698.478024409262616 1766.039502111949787 13728.11416936534442 
	7716.003399730047931 1789.895017228933511 13687.96450909361374 
	7732.044593898749554 1811.730298481902082 13656.44420300547245 
	7751.420885971574535 1838.105280821212091 13624.48738512388991 
	7774.506392681800207 1869.52927420990045 13593.35754746293969 
	7797.243191673190267 1900.478578234332645 13568.52628209843169 
	7818.986156296913578 1930.07509281359944 13549.09539038492039 
	7839.272868296481647 1957.689349807226108 13534.12884937026865 
	7860.16435718755838 1986.12683245590415 13521.76788235951608 
	7879.762085201780792 2012.803247941491691 13512.88848294751187 
	7897.846769329651579 2037.420107776744999 13506.80597857979956 
	7919.756242131919862 2067.243270644621134 13501.57540494962814 
	7947.40376657015895 2104.877061697691715 13498.94976573360327 
	7980.580829194766011 2150.037661494986878 13502.10040136985299 
	8009.700691015522352 2189.675594781262134 13510.46651629522785 
	8034.643116042416295 2223.627215612110831 13521.76832890676451 
	8062.498716869108648 2261.544236343534976 13538.24838460952196 
	8095.804956668392151 2306.880681896713213 13565.36800349235273 
	8129.402137540078002 2352.613135938478081 13604.1024496741029 
	8156.932065798785516 2390.086871786898428 13645.70390763510113 
	8179.074437044675506 2420.227042028987398 13687.60002764506498 
	8198.303233555412589 2446.401274676787125 13733.4250609967894 
	8214.376923105730384 2468.280766525657782 13782.6022863825674 
	8227.093193419999807 2485.590146707121676 13834.51347454975803 
	8236.292316782612033 2498.111988773977828 13888.50571515963929 
	8240.930618114876779 2504.425634837904909 13934.66768992302787 
	8242.557681236816279 2506.640406644507493 13967.2896968850655 
	8242.964774068464976 2507.194529954746031 13983.63927912234431 
	8243.066546301217386 2507.333068925754105 13991.81890219221896 
	8243.09199506629011 2507.367706260153682 13995.90931624477525 
	8243.098355816950061 2507.376365966988033 13997.95459886605022 
	8243.100173494405681 2507.378840054376724 13999.12334253077279 
	8243.100476585748766 2507.379252341585925 13999.70771616921775 
	8243.100476632511345 2507.379252302201621 13999.99990298597731 
	8352.637188675198558 2431.388306709864992 13999.9999029859664 
	8352.637188271706691 2431.388306986272255 14002.33739752005386 
	8352.616930265343399 2431.362574344455879 14007.01238627335442 
	8352.495393405586583 2431.208215788217785 14016.36052613410357 
	8352.07005116565233 2430.667981015062651 14032.71010984468376 
	8350.369960354961222 2428.508709951242508 14065.33209942795838 
	8345.523659129983571 2422.353426864513494 14111.49410793375137 
	8337.513656167622685 2412.179939099354669 14156.4875245405201 
	8330.29921563716016 2403.01688597772727 14187.07267374806179 
	8325.72751319897543 2397.210374541777583 14204.24879841599432 
	8318.426258628995129 2387.937074669708636 14229.69169804113517 
	8305.830300596280722 2371.938965812370498 14266.57468363719454 
	8285.73874537903248 2346.420720049821284 14312.39951586711868 
	8262.603232506986387 2317.036345122908642 14354.29591862147026 
	8237.673248687022351 2285.372819982747387 14390.349803544108 
	8211.579541932625943 2252.231243863444433 14420.70972996666023 
	8189.313956916579627 2223.951769766448706 14441.51319983010762 
	8170.799972272595369 2200.437185993111598 14455.94151284966938 
	8154.231669201354634 2179.393817362597929 14467.24451775721172 
	8134.82833700228457 2154.749675122078315 14478.23161888214599 
	8105.043924733809035 2116.92055204944154 14491.14850724835742 
	8066.850507713537809 2068.411149234620552 14500.46617383978446 
	8020.500286897924525 2009.541824175764305 14500.46539314824622 
	7974.667950684238349 1951.330250139563759 14489.28611443139926 
	7930.377021833017352 1895.076430768103592 14467.17644766482408 
	7902.102064930426423 1859.164441558085173 14445.14066607681525 
	7887.944611772325516 1841.183104715127229 14431.84101012350038 
	7886.283556860195858 1839.073399566299486 14430.26379736810668 
	7884.215819828310487 1836.447172308656263 14428.26873036675715 
	7881.748472650388067 1833.313397632027772 14425.83722357441184 
	7876.842093889548778 1827.081816792684776 14420.89973911783818 
	7866.36726094252117 1813.777747350152367 14409.80095446215637 
	7850.860996245597562 1794.083272407919821 14391.28068264567992 
	7837.714105727856804 1777.385425482729943 14372.9712332593117 
	7829.317095787202561 1766.720403947157365 14360.1238177109517 
	7825.193523011772413 1761.483053523699027 14353.5742270256178 
	7821.146387182018771 1756.342808553470377 14346.90093082976455 
	7807.915013996110247 1739.537611495778719 14324.25273106725035 
	7792.261855528071465 1719.6566003890307 14292.4866214843405 
	7775.857129815532971 1698.820984592494142 14250.23308060718773 
	7763.849797053686416 1683.570495391375516 14213.46795774202474 
	7752.864486419688546 1669.618070273796093 14171.29384801056767 
	7745.28648359678391 1659.993249167106569 14131.53514097659172 
	7740.714100283758853 1654.185882870156547 14099.11412463479974 
	7737.14566019603717 1649.653604144434894 14066.36469280424353 
	7734.585620661145185 1646.402112722161746 14024.96430598993356 
	7734.585781847931685 1646.402303965078318 13975.03571675188505 
	7737.401538115498624 1649.978603216170541 13929.49526025427076 
	7742.178968978802914 1656.046413956734568 13888.63578513976427 
	7748.164322813573563 1663.64839114895517 13852.48482779781079 
	7755.802850290396236 1673.350087393411513 13817.15928666445507 
	7768.132665951635317 1689.010150395321261 13771.42062833736782 
	7783.582598332806811 1708.633082663783853 13728.1141693653426 
	7801.894159510373356 1731.890578420440761 13687.9645090936101 
	7818.654989580126312 1753.178462136932694 13656.44420300546881 
	7838.900501359352347 1778.892264669555516 13624.48738512388627 
	7863.0216549420511 1809.528483927155776 13593.35754746293787 
	7886.778429946556571 1839.701934000957863 13568.52628209842987 
	7909.49680315254227 1868.556495247700923 13549.09539038491857 
	7930.693588107109463 1895.478497042755635 13534.12884937026865 
	7952.522284244369075 1923.203084549626965 13521.76788235951608 
	7972.999179878980613 1949.210753258062141 13512.88848294751187 
	7991.895154247713435 1973.210497856892061 13506.80597857979956 
	8014.787502853535443 2002.286027383043574 13501.57540494962632 
	8043.675311987662099 2038.976384699594746 13498.94976573360145 
	8078.34072275993185 2083.004859059203682 13502.10040136985299 
	8108.766916921352276 2121.649118872465351 13510.46651629522239 
	8134.828283128200383 2154.749607006242513 13521.76832890676087 
	8163.933499463822955 2191.716096434082829 13538.24838460951651 
	8198.733891894260523 2235.916001316871643 13565.36800349234727 
	8233.838257627929124 2280.502001604366797 13604.10244967409744 
	8262.603211175439355 2317.036304331682913 13645.70390763509386 
	8285.738892862107605 2346.420904031149803 13687.60002764505589 
	8305.830312732467064 2371.938974442904055 13733.4250609967803 
	8322.625074648471127 2393.269976095509719 13782.6022863825583 
	8335.911806346548474 2410.145429682003851 13834.51347454974893 
	8345.523609626421603 2422.353363048997835 13888.50571515962656 
	8350.369981709100102 2428.508738220607029 13934.66768992301695 
	8352.07004995169882 2430.667978023953765 13967.28969688505094 
	8352.495394449768355 2431.208218039565963 13983.63927912233157 
	8352.601738682536961 2431.34327927753975 13991.81890219220622 
	8352.628325714906168 2431.377050778656212 13995.90931624476434 
	8352.634973217249353 2431.385492365237951 13997.9545988660393 
	8352.636872307768499 2431.387904525046906 13999.12334253076551 
	8352.637188725633678 2431.388306675314197 13999.70771616920683 
	8352.637188675198558 2431.388306709864992 13999.9999029859664 
	8462.173896410104135 2355.397364394428223 13999.99990298596458 
	8462.173896394440817 2355.397364375830875 14002.33739752005204 
	8462.152767085839514 2355.372294497916755 14007.0123862733526 
	8462.026014754081189 2355.221903137481149 14016.36052613410175 
	8461.582406317531422 2354.695562711471212 14032.71010984468194 
	8459.809328529876439 2352.591809849740912 14065.33209942795656 
	8454.754950875487339 2346.594801975090832 14111.49410793374955 
	8446.40104287923532 2336.682908674657938 14156.48752454051828 
	8438.876850486307376 2327.755471099982969 14187.07267374805997 
	8434.10886357779782 2322.098265216114669 14204.2487984159925 
	8426.49413783187083 2313.063410020331958 14229.69169804113335 
	8413.357374555413116 2297.476669547625534 14266.57468363719272 
	8392.403197440426084 2272.614584909116729 14312.39951586711686 
	8368.274369465383643 2243.985784071171111 14354.29591862146845 
	8342.274027739287703 2213.136436322810823 14390.34980354410618 
	8315.059994683404511 2180.847046505758044 14420.70972996665841 
	8291.838448184787921 2153.294733129566794 14441.5131998301058 
	8272.529570139784482 2130.384792188589472 14455.94151284966756 
	8255.249915103902822 2109.882519843632508 14467.24451775720991 
	8235.013505846773114 2085.872065178469711 14478.23161888214418 
	8203.95031416393067 2049.015657197032397 14491.1485072483556 
	8164.117071165940615 2001.753602797072062 14500.46617383978264 
	8115.776825227340851 1944.398008290371308 14500.4653931482444 
	8067.97669224517449 1887.683256608056581 14489.28611443139744 
	8021.784154541482167 1832.875913155410217 14467.17644766482226 
	7992.295214455465612 1797.887351199312661 14445.14066607681343 
	7977.529926274380159 1780.368369546916938 14431.84101012349856 
	7975.797553437115312 1778.312913020856513 14430.26379736810486 
	7973.641039857096985 1775.754214444972149 14428.26873036675534 
	7971.067757334280941 1772.701020443565767 14425.83722357441002 
	7965.950726133410171 1766.629674282005908 14420.89973911783636 
	7955.026158782181483 1753.667699368899321 14409.80095446215455 
	7938.854140664236184 1734.479635768896969 14391.2806826456781 
	7925.142790977162804 1718.211149800105659 14372.97123325930988 
	7916.385261595486554 1707.820360627841865 14360.12381771094988 
	7912.084640685497106 1702.717683464227775 14353.57422702561598 
	7907.863750337218335 1697.709606435111027 14346.90093082976273 
	7894.064265664695995 1681.336548501888274 14324.25273106724853 
	7877.739064076234172 1661.966733053928465 14292.48662148433868 
	7860.630006203769881 1641.666873865200387 14250.23308060718591 
	7848.107144577700637 1626.808526342736059 14213.46795774202292 
	7836.650182951836541 1613.214866804593157 14171.29384801056585 
	7828.746814663087207 1603.837537873040901 14131.5351409765899 
	7823.978122739448736 1598.179495490700674 14099.11412463479792 
	7820.256468240314462 1593.763760688423645 14066.36469280424171 
	7817.586519633373427 1590.595872592760315 14024.96430598993174 
	7817.586680817673368 1590.596063837568181 13975.03571675188323 
	7820.523336794062743 1594.080399635095546 13929.49526025426894 
	7825.505887053193874 1599.992184457837766 13888.63578513976245 
	7831.748214622084561 1607.398692262287568 13852.48482779780898 
	7839.714707648236072 1616.850918554661803 13817.15928666445325 
	7852.573892125641578 1632.10831239368872 13771.420628337366 
	7868.687161837756321 1651.226671140623694 13728.11416936534079 
	7887.784930406653075 1673.886131156504916 13687.96450909360829 
	7905.26537178104445 1694.626636046003341 13656.44420300546699 
	7926.380124161842105 1719.679242877841261 13624.48738512388445 
	7951.536902650039337 1749.52770471372969 13593.35754746293605 
	7976.313672175395368 1778.925286758828179 13568.52628209842806 
	8000.007448014036527 1807.037899198670402 13549.09539038491675 
	8022.114310421062328 1833.267642374122033 13534.12884937026683 
	8044.880213051425926 1860.279335312023932 13521.76788235951426 
	8066.236276451725644 1885.61825713278381 13512.88848294751006 
	8085.943542934342986 1909.000885070460072 13506.80597857979774 
	8109.818764990675845 1937.328783044751162 13501.5754049496245 
	8139.946862479750962 1973.075703841491077 13498.94976573359963 
	8176.100618427505651 2015.972055024230713 13502.10040136985117 
	8207.833152161032558 2053.622635863822779 13510.46651629522057 
	8235.013449817455694 2085.87199870203176 13521.76832890675905 
	8265.368290659151171 2121.887949982531609 13538.24838460951469 
	8301.662818803079062 2164.95132706350978 13565.36800349234545 
	8338.274381218818235 2208.390864605682964 13604.10244967409562 
	8368.27434018297572 2243.985749327838221 13645.70390763509204 
	8392.403349541893476 2272.614765377422827 13687.60002764505407 
	8413.357383728551213 2297.476680432029298 13733.42506099677848 
	8430.873224664297595 2318.259186826914174 13782.60228638255649 
	8444.730416797898215 2334.700714539773344 13834.51347454974712 
	8454.754898762477751 2346.594740144474599 13888.50571515962474 
	8459.809351389851145 2352.5918369736778 13934.66768992301513 
	8461.582404307047909 2354.69556032625087 13967.28969688504912 
	8462.026016318159236 2355.22190499336466 13983.63927912232975 
	8462.136923122214284 2355.353495670352459 13991.8189021922044 
	8462.164653383615587 2355.386397563998344 13995.90931624476252 
	8462.171585577872975 2355.394622597109446 13997.95459886603749 
	8462.173566271021627 2355.396972685141463 13999.12334253076369 
	8462.173896412061367 2355.397364396752891 13999.70771616920501 
	8462.173896410104135 2355.397364394428223 13999.99990298596458 
	0 
	
	0 
	0 
	83 0 0.002232142857142857019 0.004464285714285714038 0.008928571428571428076 0.01785714285714285615 0.0357142857142857123 0.05357142857142856845 0.0625 0.0669642857142857123 0.07142857142857142461 0.08928571428571427382 0.1071428571428571369 0.125 0.1428571428571428492 0.1587301587301587213 0.1746031746031745935 0.1825396825396825295 0.1904761904761904656 0.2023809523809523836 0.2142857142857142738 0.238095238095238082 0.2619047619047618625 0.2857142857142856984 0.3095238095238095344 0.3333333333333333148 0.3340773809523809312 0.3348214285714286031 0.336309523809523836 0.3377976190476190688 0.3392857142857143016 0.3452380952380952328 0.3571428571428570953 0.3690476190476190133 0.3720238095238095344 0.375 0.3779761904761904656 0.3809523809523809312 0.4047619047619047672 0.4166666666666666297 0.4285714285714285476 0.4444444444444444198 0.4603174603174602919 0.4682539682539682557 0.476190476190476164 0.4920634920634920362 0.5079365079365079083 0.5238095238095237249 0.5357142857142855874 0.5476190476190475609 0.5595238095238095344 0.5714285714285713969 0.5952380952380951218 0.6071428571428569843 0.6190476190476189577 0.6349206349206348854 0.650793650793650702 0.6666666666666666297 0.6785714285714286031 0.6904761904761904656 0.7023809523809523281 0.7142857142857141906 0.7232142857142855874 0.7321428571428569843 0.749999999999999889 0.7678571428571427937 0.7857142857142855874 0.7976190476190474499 0.8095238095238094234 0.8333333333333332593 0.8571428571428570953 0.875 0.8928571428571427937 0.9107142857142856984 0.9285714285714286031 0.9464285714285713969 0.9642857142857143016 0.9821428571428572063 0.9910714285714286031 0.9955357142857143016 0.9977678571428572063 0.9988839285714286031 0.9994419642857143016 0.9997209821428572063 
	0 
	0 
	0 
	F 1 F 0 F 1 F 0 } I I I I #
tcoedge-coedge $-1 -1 $-1 $14 $14 $18 $19 reversed $9 $20 -6.283185307179586232 -0 #
tcoedge-coedge $-1 -1 $-1 $21 $22 $11 $16 reversed $12 $23 -6.283185307179586232 2.103402129098765068e-29 #
tedge-edge $-1 -1 $-1 $24 -2.103402129098765068e-29 $24 6.283185307179586232 $15 $25 forward @7 unknown 0.0006540051777890471939 #
pcurve $-1 -1 $-1 0 forward { exppc nurbs 2 periodic 5 
	-2.103402129098765068e-29 2 1.570796326794896558 2 3.141592653589793116 2 4.712388980384689674 2 6.283185307179586232 2 
	-3.637978807091712952e-12 500 1 
	-500.000000000003638 499.9999999999954525 0.7071067811865461294 
	-500 -3.637978807091712952e-12 1 
	-499.999999999994543 -500.0000000000045475 0.7071067811865456854 
	5.456968210637569427e-12 -499.9999999999990905 1 
	500.000000000005457 -499.999999999994543 0.7071067811865457964 
	500 5.456968210637569427e-12 1 
	499.999999999996362 500.0000000000045475 0.7071067811865449082 
	-3.637978807091712952e-12 500 1 
	0 
	plane 8139.946898511150721 1973.075746584390799 14000.00000000000364 0.7646431474603594403 -0.6444539215816094124 -1.039422516328726087e-14 -1.359356347834937888e-14 0 -1 forward_v I I I I 
	} 0 0 #
tcoedge-coedge $-1 -1 $-1 $22 $21 $14 $19 forward $12 $26 0 6.283185307179586232 #
tedge-edge $-1 -1 $-1 $27 0 $27 6.283185307179586232 $18 $28 forward @7 unknown 0.0006540056671882258201 #
pcurve $-1 -1 $-1 0 forward { exppc nurbs 2 periodic 5 
	-6.283185307179586232 2 -4.712388980384689674 2 -3.141592653589793116 2 -1.570796326794896558 2 0 2 
	0 500 1 
	500 500 0.7071067811865459074 
	500 0 1 
	500 -500 0.7071067811865459074 
	0 -500 1 
	-500 -500 0.7071067811865459074 
	-500 0 1 
	-500 500 0.7071067811865459074 
	0 500 1 
	0 
	plane 7851.132247660311805 2170.777788682965365 14000.00000000001091 -0.8251847167300258024 0.5648629774336318965 -0 0 0 -1 reverse_v I I I I 
	} 0 0 #
coedge $-1 -1 $-1 $18 $15 $22 $29 reversed $12 $30 #
coedge $-1 -1 $-1 $15 $18 $21 $29 forward $12 $31 #
pcurve $-1 -1 $-1 0 forward { exppc nubs 1 periodic 2 
	-6.283185307179586232 1 2.103402129098765068e-29 1 
	1 1 
	0 1 
	1.901164218457315955e-12 
	spline forward { ref 0 } I I I I 
	} 0 0 #
tvertex-vertex $-1 -1 $-1 $16 $32 0.0001128351656482233956 #
ellipse-curve $-1 -1 $-1 8139.946898511150721 1973.075746584390799 14000.00000000000364 0.7646431474603594403 -0.6444539215816094124 -1.039422516328726087e-14 322.2269607908046396 382.3215737301796935 0 1 I I #
pcurve $-1 -1 $-1 0 forward { exppc nubs 1 periodic 2 
	0 1 6.283185307179586232 1 
	0 0 
	1 0 
	7.959345416931094041e-12 
	spline forward { ref 0 } I I I I 
	} 0 0 #
tvertex-vertex $-1 -1 $-1 $19 $33 0.0001128369557967426844 #
ellipse-curve $-1 -1 $-1 7851.132247660311805 2170.777788682965365 14000.00000000001091 0.8251847167300258024 -0.5648629774336318965 0 282.4314887168159771 412.592358365012899 0 1 I I #
edge $-1 -1 $-1 $27 9.879686265796955888e-10 $24 0.9999999865894312334 $22 $34 forward @7 tangent #
pcurve $-1 -1 $-1 -1 $34 0 0 #
pcurve $-1 -1 $-1 1 $34 1 0 #
point $-1 -1 $-1 8462.173859301954508 2355.397320314571061 14000.00000000000364 #
point $-1 -1 $-1 8133.563736377127498 2583.370147047978662 14000.00000000001091 #
intcurve-curve $-1 -1 $-1 forward { parcur full nubs 3 open 2 
	0 3 1 3 
	8133.563768897604859 2583.37019461763839 13999.99990298597913 
	8243.100476632511345 2507.379252302201621 13999.99990298597731 
	8352.637188675198558 2431.388306709864992 13999.9999029859664 
	8462.173896410104135 2355.397364394428223 13999.99990298596458 
	0 
	
	spline forward { ref 0 } I I I I 
	null_surface 
	nubs 1 open 2 
	0 1 1 1 
	0 0 
	0 1 
	
	nullbs 
	I I 
	0 
	0 
	0 
	surf1 } F 9.879686265796955888e-10 F 0.9999999865894312334 #
End-of-ACIS-data 