700 0 1 0           
4 LibG 20 ASM 224.0.1.65535 NT 24 Wed Jul 17 15:51:16 2019 
1000 9.999999999999999547e-07 1.000000000000000036e-10 
body $-1 -1 $-1 $1 $-1 $2 #
lump $-1 -1 $-1 $-1 $3 $0 #
transform $-1 -1 1 0 0 0 1 0 0 0 1 0 0 0 1 no_rotate no_reflect no_shear #
shell $-1 -1 $-1 $-1 $-1 $4 $-1 $1 #
face $-1 -1 $-1 $5 $6 $3 $-1 $7 forward single #
face $-1 -1 $-1 $8 $9 $3 $-1 $10 reversed single #
loop $-1 -1 $-1 $-1 $11 $4 #
plane-surface $-1 -1 $-1 1008.360864791441713 3095.625040713625367 14000.00000000000182 0.9999999998569973902 -1.691169161366488208e-05 5.197112581643629645e-15 5.197112582386830492e-15 0 -1 forward_v I I I I #
face $-1 -1 $-1 $-1 $12 $3 $-1 $13 forward single #
loop $-1 -1 $-1 $-1 $14 $5 #
plane-surface $-1 -1 $-1 658.3608648471522429 3095.630959805689599 14000 0.9999999998569973902 -1.691169161366488208e-05 5.197112581643629645e-15 5.197112582386830492e-15 0 -1 forward_v I I I I #
tcoedge-coedge $-1 -1 $-1 $11 $11 $15 $16 forward $6 $17 4.08391938306541452e-31 6.283185307179586232 #
loop $-1 -1 $-1 $-1 $18 $8 #
spline-surface $-1 -1 $-1 forward { exactsur full nubs 3 3 periodic open none none 95 2 
	0 3 0.004464285714285714038 1 0.008928571428571428076 1 0.01785714285714285615 1 0.02678571428571428423 1 
	0.0357142857142857123 1 0.05357142857142856845 1 0.0625 1 0.07142857142857142461 1 0.08928571428571427382 1 
	0.09821428571428569843 1 0.1071428571428571369 1 0.125 1 0.1428571428571428492 1 0.1587301587301587213 1 
	0.1746031746031745935 1 0.1825396825396825295 1 0.1865079365079365115 1 0.1904761904761904656 1 0.2142857142857142738 1 
	0.226190476190476164 1 0.232142857142857123 1 0.238095238095238082 1 0.2499999999999999722 1 0.2529761904761904656 1 
	0.2559523809523809312 1 0.2619047619047618625 1 0.2738095238095237804 1 0.2857142857142856984 1 0.2976190476190476164 1 
	0.3095238095238095344 1 0.3214285714285713969 1 0.3333333333333333148 1 0.3452380952380952328 1 0.3571428571428570953 1 
	0.3690476190476190133 1 0.375 1 0.3809523809523809312 1 0.3928571428571428492 1 0.4047619047619047672 1 
	0.4166666666666666297 1 0.4285714285714285476 1 0.4444444444444444198 1 0.4603174603174602919 1 0.476190476190476164 1 
	0.4801587301587301182 1 0.4821428571428570953 1 0.4841269841269840724 1 0.4880952380952380265 1 0.4900793650793650036 1 
	0.4910714285714284921 1 0.4915674603174602364 1 0.491815476190476164 1 0.4920634920634920362 1 0.5158730158730158166 1 
	0.5238095238095237249 1 0.5357142857142855874 1 0.5476190476190475609 1 0.5595238095238095344 1 0.5714285714285713969 1 
	0.5833333333333332593 1 0.5952380952380951218 1 0.6071428571428569843 1 0.6190476190476189577 1 0.6349206349206348854 1 
	0.650793650793650702 1 0.6666666666666666297 1 0.6785714285714286031 1 0.6904761904761904656 1 0.7023809523809523281 1 
	0.7142857142857141906 1 0.7321428571428569843 1 0.749999999999999889 1 0.7678571428571427937 1 0.7857142857142855874 1 
	0.7916666666666665186 1 0.7976190476190474499 1 0.8095238095238094234 1 0.8333333333333332593 1 0.8452380952380951218 1 
	0.851190476190476053 1 0.8571428571428570953 1 0.875 1 0.8928571428571427937 1 0.9107142857142856984 1 
	0.9285714285714286031 1 0.9464285714285713969 1 0.9642857142857143016 1 0.9821428571428572063 1 0.9910714285714286031 1 
	0.9955357142857143016 1 0.9977678571428572063 1 0.9988839285714286031 1 0.9994419642857143016 1 1 3 
	0 3 1 3 
	658.3693206949365049 3595.631026837034824 13999.99992675225076 
	658.3693206949338901 3595.631026706020748 14004.67491588010489 
	658.3693184770381777 3595.499881722569626 14014.02489567130033 
	658.3693051736642019 3594.713244678785486 14032.71013795190629 
	658.3692719357329679 3592.747865295705651 14056.01155520148131 
	658.3692055945791708 3588.82506926490305 14083.79696667487769 
	658.369082158641163 3581.52621897552126 14120.49278940906697 
	658.368906786702496 3571.156362374588298 14156.48760129120092 
	658.3686811276501203 3557.812988420420879 14191.44200234419804 
	658.3684226947347042 3542.531673343430157 14225.5936737232023 
	658.3681162624029639 3524.412123290472209 14258.37847538611459 
	658.3677647211966359 3503.625250181148203 14289.48734347146637 
	658.3673842471133639 3481.127556407294833 14319.3822912884898 
	658.3668565937299491 3449.927051359838515 14354.29607758031852 
	658.3661742949706195 3409.582257881968872 14390.34998826612537 
	658.3654601459957121 3367.35413862729547 14420.70984089468402 
	658.3648507706085411 3331.321352314663727 14441.51349167675289 
	658.3644074072346939 3305.104970391995721 14454.13841011127079 
	658.3641497326410672 3289.86849394082401 14460.78590176967919 
	658.3636289429364297 3259.073839478136051 14473.31799353101633 
	658.3629555116731353 3219.253385195582268 14485.60041600081968 
	658.3622299505468618 3176.350455127962505 14493.7168039596163 
	658.3618118218745394 3151.626218295660692 14496.97193945470099 
	658.3613919260546936 3126.797488651998265 14499.30022133038983 
	658.3610229704996755 3104.980892256681273 14500.1166070153613 
	658.3607067225248102 3086.280931193492052 14499.94170736289925 
	658.3604959643370194 3073.818654064149086 14499.59205453294271 
	658.3601275243283908 3052.032542031747198 14498.36863882994476 
	658.3596033920669015 3021.040239610790195 14494.87669753550836 
	658.3589814879574078 2984.266620209386929 14487.91873135063179 
	658.3583701163287287 2948.115793591930924 14478.23216197821603 
	658.3577726962245151 2912.789930146019742 14465.87110892316741 
	658.3571925686952682 2878.486588510269485 14450.9047202724887 
	658.3566329779379203 2845.397600292489187 14433.41669203956553 
	658.3560970536798322 2813.708028358807042 14413.50480841442368 
	658.3555877920074408 2783.595033807181153 14391.28051152152693 
	658.3551880012877291 2759.955131621254623 14370.93666391928309 
	658.3548842645890318 2741.994970683456359 14353.63584435275152 
	658.3545916782923086 2724.694140708601481 14335.67568974445749 
	658.3542476294006747 2704.350290903999394 14312.03579831896968 
	658.3538717778591263 2682.125929098124743 14281.92283757579753 
	658.3535350349715145 2662.214088878622988 14250.23325772969474 
	658.3532064186975958 2642.78278058233218 14213.46778971774984 
	658.3529057617025728 2625.004722955658963 14171.29388575516896 
	658.3526568819112299 2610.288287288880383 14123.58335302055639 
	658.352531397834241 2602.868322690165314 14086.87943044838175 
	658.3524785566612536 2599.743787003001671 14064.23670966704231 
	658.3524619486419169 2598.761743247142476 14055.98367993738975 
	658.3524470821956811 2597.882679936605655 14047.71904523885678 
	658.3524348309933885 2597.158257486143611 14039.43893765006942 
	658.3524264047346151 2596.660006907840398 14032.18367911667519 
	658.3524227655126424 2596.444817143400087 14028.55393237345561 
	658.3524210893075406 2596.345701984885181 14026.7385822230226 
	658.3524201726550018 2596.291499674903207 14025.70111092548905 
	658.3523983736583887 2595.00251082918885 14000.28100959205767 
	658.3524125596313752 2595.841340231620961 13966.69373962166173 
	658.3525087291733371 2601.527912190103962 13921.32341019228625 
	658.3526133172861137 2607.712281193662875 13888.63573725639617 
	658.3527771370522714 2617.399058149801022 13852.48493110910385 
	658.3529861815064805 2629.760002214393353 13817.15907955390139 
	658.3532392887094602 2644.72640686375189 13782.85574445656675 
	658.3535350407552187 2662.214430115428968 13749.76678945816093 
	658.353871783655336 2682.126271846188502 13718.07720505808538 
	658.3542476359539251 2704.350678922055522 13687.9643479419683 
	658.3547063627548823 2731.475512746277218 13656.44424981829434 
	658.3552604501982159 2764.239086340684025 13624.48734507502013 
	658.3559206129531276 2803.274967102116534 13593.35754855457708 
	658.356570802033616 2841.721096322317862 13568.52630958118425 
	658.3571925724887706 2878.486813308335513 13549.09553784713353 
	658.3577726976509439 2912.790014710037212 13534.12890287659684 
	658.358370118633843 2948.115930229046171 13521.76814268661656 
	658.3590833828724271 2990.291737211274722 13510.46659437190101 
	658.3599161035294856 3039.5310846083039 13502.1003236167453 
	658.3608648464100952 3095.630905887129302 13498.95008512294589 
	658.361813589528424 3151.730741306387245 13502.10034312859716 
	658.3625422195754027 3194.815138596467023 13509.42097872580052 
	658.3630538900973761 3225.070569625869211 13516.92474569449587 
	658.3634591434249614 3249.033478378389191 13523.82848976925561 
	658.3641561450974677 3290.247668138386871 13538.2482796470922 
	658.3649180855188661 3335.301730315919485 13559.94455783606281 
	658.3655433190824624 3372.272221754915336 13583.17646790713843 
	658.3658872721890702 3392.610406185613556 13597.60704432603779 
	658.3663055081372022 3417.340986247846104 13616.58325164565395 
	658.3668565954098995 3449.927155049731027 13645.70367174606872 
	658.3674897803509793 3487.367816078655324 13687.60018600529293 
	658.3680396594138529 3519.882541134687017 13733.42492075559676 
	658.3684993056391477 3547.061733530591937 13782.60230039419366 
	658.3688629455577939 3568.564006971838353 13834.51344395859451 
	658.3691260063288837 3584.118965738327461 13888.50572772713713 
	658.3692586448717066 3591.961967026082675 13934.66770497606194 
	658.3693051730588195 3594.713208487874454 13967.28971952374013 
	658.3693168142850709 3595.401561494005364 13983.63930240490117 
	658.3693197246865338 3595.573655369510561 13991.81892586847425 
	658.3693204523821123 3595.616684444813473 13995.90933998070068 
	658.3693206602829378 3595.628977749892329 13998.24680585329588 
	658.3693206949367323 3595.63102685341164 13999.41555311127013 
	658.3693206949365049 3595.631026837034824 13999.99992675225076 
	775.0359873430332982 3595.629053806346747 13999.99992675225076 
	775.0359873430306834 3595.629053675332671 14004.67491588010489 
	775.0359851251346299 3595.497908691881548 14014.02489567130033 
	775.0359718217607679 3594.711271648097409 14032.71013795190629 
	775.0359385838290791 3592.745892265017574 14056.01155520148131 
	775.0358722426749409 3588.823096234214972 14083.79696667487769 
	775.0357488067368195 3581.524245944833183 14120.49278940906697 
	775.035573434797243 3571.15438934390022 14156.48760129120092 
	775.0353477757450946 3557.811015389732802 14191.44200234419804 
	775.0350893428288828 3542.529700312742079 14225.5936737232023 
	775.0347829104971424 3524.410150259784132 14258.37847538611459 
	775.034431369290246 3503.623277150460126 14289.48734347146637 
	775.0340508952067466 3481.125583376606755 14319.3822912884898 
	775.033523241822877 3449.925078329150438 14354.29607758031852 
	775.0328409430633201 3409.580284851280794 14390.34998826612537 
	775.0321267940880716 3367.352165596607392 14420.70984089468402 
	775.0315174187006733 3331.31937928397565 14441.51349167675289 
	775.0310740553265987 3305.102997361307644 14454.13841011127079 
	775.0308163807331994 3289.866520910135932 14460.78590176967919 
	775.030295591027766 3259.071866447447974 14473.31799353101633 
	775.0296221597652675 3219.251412164894191 14485.60041600081968 
	775.0288965986380845 3176.348482097274427 14493.7168039596163 
	775.0284784699663305 3151.624245264972615 14496.97193945470099 
	775.0280585741459163 3126.795515621310187 14499.30022133038983 
	775.0276896185915803 3104.978919225993195 14500.1166070153613 
	775.0273733706161465 3086.278958162803974 14499.94170736289925 
	775.0271626124286968 3073.816681033461009 14499.59205453294271 
	775.0267941724196135 3052.030569001059121 14498.36863882994476 
	775.0262700401588063 3021.038266580102118 14494.87669753550836 
	775.0256481360488579 2984.264647178698851 14487.91873135063179 
	775.0250367644205198 2948.113820561242846 14478.23216197821603 
	775.0244393443163062 2912.787957115331665 14465.87110892316741 
	775.0238592167872866 2878.484615479581407 14450.9047202724887 
	775.0232996260301661 2845.39562726180111 14433.41669203956553 
	775.0227637017721918 2813.706055328118964 14413.50480841442368 
	775.0222544401001414 2783.593060776493076 14391.28051152152693 
	775.0218546493805434 2759.953158590566545 14370.93666391928309 
	775.0215509126820734 2741.992997652768281 14353.63584435275152 
	775.0212583263856914 2724.692167677913403 14335.67568974445749 
	775.02091427749383 2704.348317873311316 14312.03579831896968 
	775.0205384259531911 2682.123956067436666 14281.92283757579753 
	775.020201683065352 2662.212115847934911 14250.23325772969474 
	775.0198730667922291 2642.780807551644102 14213.46778971774984 
	775.0195724097974335 2625.002749924970885 14171.29388575516896 
	775.0193235300067727 2610.286314258192306 14123.58335302055639 
	775.0191980459300112 2602.866349659477237 14086.87943044838175 
	775.0191452047572511 2599.741813972313594 14064.23670966704231 
	775.0191285967382555 2598.759770216454399 14055.98367993738975 
	775.0191137302915649 2597.880706905917577 14047.71904523885678 
	775.0191014790899544 2597.156284455455534 14039.43893765006942 
	775.01909305283084 2596.65803387715232 14032.18367911667519 
	775.0190894136092083 2596.44284411271201 14028.55393237345561 
	775.0190877374037655 2596.343728954197104 14026.7385822230226 
	775.0190868207514541 2596.28952664421513 14025.70111092548905 
	775.0190650217549546 2595.000537798500773 14000.28100959205767 
	775.0190792077286233 2595.839367200932884 13966.69373962166173 
	775.0191753772708125 2601.525939159415884 13921.32341019228625 
	775.0192799653841575 2607.710308162974798 13888.63573725639617 
	775.0194437851503153 2617.397085119112944 13852.48493110910385 
	775.0196528296052065 2629.758029183705275 13817.15907955390139 
	775.0199059368084136 2644.724433833063813 13782.85574445656675 
	775.0202016888545131 2662.21245708474089 13749.76678945816093 
	775.0205384317550852 2682.124298815500424 13718.07720505808538 
	775.0209142840537879 2704.348705891367445 13687.9643479419683 
	775.0213730108551999 2731.473539715589141 13656.44424981829434 
	775.0219270982987609 2764.237113309995948 13624.48734507502013 
	775.0225872610541273 2803.272994071428457 13593.35754855457708 
	775.0232374501348431 2841.719123291629785 13568.52630958118425 
	775.023859220590225 2878.484840277647436 13549.09553784713353 
	775.0244393457523984 2912.788041679349135 13534.12890287659684 
	775.0250367667355249 2948.113957198358094 13521.76814268661656 
	775.0257500309742227 2990.289764180586644 13510.46659437190101 
	775.0265827516316222 3039.529111577615822 13502.1003236167453 
	775.0275314945117771 3095.628932856441224 13498.95008512294589 
	775.0284802376304469 3151.728768275699167 13502.10034312859716 
	775.0292088676771982 3194.813165565778945 13509.42097872580052 
	775.029720538199058 3225.068596595181134 13516.92474569449587 
	775.0301257915266433 3249.031505347701113 13523.82848976925561 
	775.0308227931989222 3290.245695107698793 13538.2482796470922 
	775.0315847336204342 3335.299757285231408 13559.94455783606281 
	775.0322099671833485 3372.270248724227258 13583.17646790713843 
	775.03255392029007 3392.608433154925478 13597.60704432603779 
	775.0329721562376335 3417.339013217158026 13616.58325164565395 
	775.0335232435105581 3449.92518201904295 13645.70367174606872 
	775.0341564284508422 3487.365843047967246 13687.60018600529293 
	775.0347063075133747 3519.880568103998939 13733.42492075559676 
	775.0351659537382147 3547.059760499903859 13782.60230039419366 
	775.0355295936561788 3568.562033941150275 13834.51344395859451 
	775.0357926544269276 3584.116992707639383 13888.50572772713713 
	775.0359252929690683 3591.959993995394598 13934.66770497606194 
	775.0359718211558402 3594.711235457186376 13967.28971952374013 
	775.0359834623820916 3595.399588463317286 13983.63930240490117 
	775.0359863727832135 3595.571682338822484 13991.81892586847425 
	775.0359871004789056 3595.614711414125395 13995.90933998070068 
	775.0359873083796174 3595.627004719204251 13998.24680585329588 
	775.0359873430335256 3595.629053822723563 13999.41555311127013 
	775.0359873430332982 3595.629053806346747 13999.99992675225076 
	891.7026539915780177 3595.62708077565776 13999.99992675225076 
	891.7026539915751755 3595.627080644644138 14004.67491588010489 
	891.7026517736730966 3595.495935661192107 14014.02489567130033 
	891.7026384702929818 3594.709298617409331 14032.71013795190629 
	891.7026052323400336 3592.743919234329042 14056.01155520148131 
	891.7025388911657728 3588.821123203526895 14083.79696667487769 
	891.7024154552104847 3581.522272914144196 14120.49278940906697 
	891.7022400832064477 3571.152416313212143 14156.48760129120092 
	891.7020144241395201 3557.80904235904427 14191.44200234419804 
	891.7017559912092111 3542.527727282053547 14225.5936737232023 
	891.7014495588299496 3524.408177229096054 14258.37847538611459 
	891.7010980176133899 3503.621304119771594 14289.48734347146637 
	891.7007175435171575 3481.123610345918223 14319.3822912884898 
	891.7001898900989545 3449.92310529846236 14354.29607758031852 
	891.699507591311658 3409.578311820591807 14390.34998826612537 
	891.6987934423120805 3367.350192565918405 14420.70984089468402 
	891.698184066916383 3331.317406253286663 14441.51349167675289 
	891.6977407035379883 3305.101024330618202 14454.13841011127079 
	891.6974830289432248 3289.864547879446945 14460.78590176967919 
	891.6969622392355177 3259.069893416758987 14473.31799353101633 
	891.6962888079615368 3219.249439134205659 14485.60041600081968 
	891.6955632468331032 3176.346509066585895 14493.7168039596163 
	891.6951451181589618 3151.622272234284537 14496.97193945470099 
	891.6947252223385476 3126.793542590621655 14499.30022133038983 
	891.6943562667810284 3104.976946195305118 14500.1166070153613 
	891.6940400188061631 3086.276985132115442 14499.94170736289925 
	891.6938292606183722 3073.814708002772932 14499.59205453294271 
	891.6934608206095163 3052.028595970371043 14498.36863882994476 
	891.692936688348027 3021.036293549414495 14494.87669753550836 
	891.6923147842389881 2984.262674148011229 14487.91873135063179 
	891.691703412612128 2948.111847530555679 14478.23216197821603 
	891.6911059925101881 2912.785984084644042 14465.87110892316741 
	891.6905258649843518 2878.482642448894239 14450.9047202724887 
	891.6899662742312103 2845.393654231113487 14433.41669203956553 
	891.6894303499784655 2813.704082297430887 14413.50480841442368 
	891.6889210883089163 2783.591087745805453 14391.28051152152693 
	891.6885212975978448 2759.951185559878468 14370.93666391928309 
	891.6882175609015349 2741.991024622080204 14353.63584435275152 
	891.6879249746071991 2724.690194647225326 14335.67568974445749 
	891.6875809257285255 2704.346344842623239 14312.03579831896968 
	891.6872050741923204 2682.121983036748134 14281.92283757579753 
	891.6868683313133488 2662.210142817246833 14250.23325772969474 
	891.6865397150493209 2642.778834520956025 14213.46778971774984 
	891.6862390580730562 2625.000776894282808 14171.29388575516896 
	891.6859901782976294 2610.284341227504228 14123.58335302055639 
	891.6858646942621363 2602.864376628789614 14086.87943044838175 
	891.6858118530947195 2599.739840941625062 14064.23670966704231 
	891.6857952450766334 2598.757797185766321 14055.98367993738975 
	891.6857803786308523 2597.878733875229045 14047.71904523885678 
	891.6857681274327661 2597.154311424767457 14039.43893765006942 
	891.68575970117422 2596.656060846463788 14032.18367911667519 
	891.6857560619529295 2596.440871082023932 14028.55393237345561 
	891.6857543857479413 2596.341755923509027 14026.7385822230226 
	891.6857534690952889 2596.287553613527052 14025.70111092548905 
	891.685731670090945 2594.99856476781315 14000.28100959205767 
	891.6857458560369878 2595.837394170245261 13966.69373962166173 
	891.6858420255742885 2601.523966128728262 13921.32341019228625 
	891.6859466136719448 2607.708335132287175 13888.63573725639617 
	891.6861104334286665 2617.395112088425776 13852.48493110910385 
	891.6863194778721891 2629.756056153017198 13817.15907955390503 
	891.6865725850667559 2644.72246080237619 13782.85574445656857 
	891.68686833710683 2662.210484054052358 13749.76678945816275 
	891.6872050799931912 2682.122325784811892 13718.07720505808538 
	891.6875809322809801 2704.346732860678912 13687.9643479419683 
	891.6880396590697728 2731.471566684900608 13656.44424981829434 
	891.6885937465079905 2764.235140279307416 13624.48734507502013 
	891.6892539092514198 2803.271021040739925 13593.35754855457708 
	891.6899040983316809 2841.717150260941253 13568.52630958118425 
	891.690525868780469 2878.482867246958449 13549.09553784713353 
	891.6911059939417328 2912.786068648660148 13534.12890287659684 
	891.691703414921335 2948.111984167669561 13521.76814268661656 
	891.6924166791585549 2990.287791149897657 13510.46659437190101 
	891.6932493998145901 3039.52713854692729 13502.1003236167453 
	891.6941981426975872 3095.626959825753147 13498.95008512294589 
	891.6951468858162571 3151.726795245010635 13502.10034312859716 
	891.6958755158673284 3194.811192535090868 13509.42097872580052 
	891.6963871863902114 3225.066623564493057 13516.92474569449587 
	891.6967924397205252 3249.029532317013036 13523.82848976925561 
	891.6974894413953052 3290.243722077010716 13538.2482796470922 
	891.6982513818252301 3335.297784254544695 13559.94455783606281 
	891.6988766153959887 3372.26827569354009 13583.17646790713843 
	891.6992205685043018 3392.606460124238311 13597.60704432603779 
	891.6996388044547075 3417.337040186470858 13616.58325164565395 
	891.700189891745822 3449.923208988355327 13645.70367174607054 
	891.7008230767014538 3487.363870017279169 13687.60018600529656 
	891.7013729557957049 3519.878595073311317 13733.42492075559676 
	891.7018326020763652 3547.057787469215782 13782.60230039419366 
	891.7021962420483305 3568.560060910462198 13834.51344395859451 
	891.7024593028752406 3584.115019676950851 13888.50572772713713 
	891.7025919414834334 3591.958020964706066 13934.66770497606194 
	891.7026384696915784 3594.709262426498299 13967.28971952374013 
	891.7026501109241963 3595.397615432629209 13983.63930240490117 
	891.7026530213273645 3595.569709308134406 13991.81892586847425 
	891.702653749023284 3595.612738383436863 13995.90933998070068 
	891.7026539569245642 3595.625031688515264 13998.24680585329588 
	891.7026539915783587 3595.627080792034576 13999.41555311127013 
	891.7026539915780177 3595.62708077565776 13999.99992675225076 
	1008.369320639674015 3595.625107744969682 13999.99992675225076 
	1008.369320639671287 3595.625107613956061 14004.67491588010489 
	1008.369318421769094 3595.493962630504029 14014.02489567130033 
	1008.369305118389434 3594.707325586721254 14032.71013795190629 
	1008.369271880436372 3592.741946203640964 14056.01155520148131 
	1008.369205539262794 3588.819150172838818 14083.79696667487769 
	1008.369082103307505 3581.520299883456119 14120.49278940906697 
	1008.368906731304151 3571.150443282524066 14156.48760129120092 
	1008.36868107223745 3557.807069328356192 14191.44200234419804 
	1008.368422639307596 3542.52575425136547 14225.5936737232023 
	1008.368116206928562 3524.406204198407977 14258.37847538611459 
	1008.367764665712343 3503.619331089083516 14289.48734347146637 
	1008.367384191616338 3481.121637315230146 14319.3822912884898 
	1008.366856538198931 3449.921132267774283 14354.29607758031852 
	1008.366174239411407 3409.57633878990373 14390.34998826612537 
	1008.365460090412626 3367.348219535230328 14420.70984089468402 
	1008.364850715016814 3331.315433222598585 14441.51349167675289 
	1008.364407351638761 3305.099051299930125 14454.13841011127079 
	1008.364149677043997 3289.862574848758868 14460.78590176967919 
	1008.363628887336517 3259.067920386070909 14473.31799353101633 
	1008.362955456062423 3219.247466103517581 14485.60041600081968 
	1008.362229894934217 3176.344536035897818 14493.7168039596163 
	1008.361811766260075 3151.62029920359646 14496.97193945470099 
	1008.361391870439661 3126.791569559933578 14499.30022133038983 
	1008.361022914882255 3104.97497316461704 14500.1166070153613 
	1008.360706666907276 3086.275012101427365 14499.94170736289925 
	1008.360495908719486 3073.812734972084854 14499.59205453294271 
	1008.360127468710743 3052.026622939682966 14498.36863882994476 
	1008.359603336449027 3021.034320518726418 14494.87669753550836 
	1008.358981432340101 2984.260701117323151 14487.91873135063179 
	1008.3583700607129 2948.109874499867601 14478.23216197821603 
	1008.357772640611074 2912.784011053955965 14465.87110892316741 
	1008.35719251308501 2878.480669418206162 14450.9047202724887 
	1008.356632922331642 2845.39168120042541 14433.41669203956553 
	1008.356096998078669 2813.702109266742809 14413.50480841442368 
	1008.355587736409007 2783.589114715117375 14391.28051152152693 
	1008.355187945697594 2759.94921252919039 14370.93666391928309 
	1008.35488420900117 2741.989051591392126 14353.63584435275152 
	1008.354591622706948 2724.688221616537248 14335.67568974445749 
	1008.354247573827251 2704.344371811935162 14312.03579831896968 
	1008.353871722291728 2682.120010006060056 14281.92283757579753 
	1008.353534979411393 2662.208169786558756 14250.23325772969474 
	1008.353206363147933 2642.776861490267947 14213.46778971774984 
	1008.352905706170418 2624.998803863594731 14171.29388575516896 
	1008.352656826395332 2610.282368196816151 14123.58335302055639 
	1008.352531342358589 2602.862403598101537 14086.87943044838175 
	1008.352478501191513 2599.737867910936984 14064.23670966704231 
	1008.352461893173086 2598.755824155078244 14055.98367993738975 
	1008.352447026727532 2597.876760844540968 14047.71904523885678 
	1008.352434775528764 2597.152338394079379 14039.43893765006942 
	1008.352426349270672 2596.654087815775711 14032.18367911667519 
	1008.352422710049154 2596.438898051335855 14028.55393237345561 
	1008.352421033844053 2596.339782892820949 14026.7385822230226 
	1008.352420117191514 2596.285580582838975 14025.70111092548905 
	1008.352398318186943 2594.996591737125073 14000.28100959205767 
	1008.352412504132531 2595.835421139557184 13966.69373962166173 
	1008.35250867366949 2601.521993098040184 13921.32341019228625 
	1008.352613261766805 2607.706362101599098 13888.63573725639617 
	1008.352777081522959 2617.393139057737699 13852.48493110910385 
	1008.352986125966481 2629.754083122329121 13817.15907955390503 
	1008.353239233160252 2644.720487771688113 13782.85574445656857 
	1008.353534985200326 2662.208511023364281 13749.76678945816275 
	1008.353871728086006 2682.120352754123815 13718.07720505808538 
	1008.354247580373908 2704.344759829990835 13687.9643479419683 
	1008.354706307161905 2731.469593654212531 13656.44424981829434 
	1008.355260394600236 2764.233167248619338 13624.48734507502013 
	1008.355920557343097 2803.269048010051847 13593.35754855457708 
	1008.356570746423131 2841.715177230253175 13568.52630958118425 
	1008.357192516871692 2878.480894216270372 13549.09553784713353 
	1008.357772642032955 2912.784095617972071 13534.12890287659684 
	1008.35837006301233 2948.110011136981484 13521.76814268661656 
	1008.359083327249436 2990.28581811920958 13510.46659437190101 
	1008.359916047905585 3039.525165516239213 13502.1003236167453 
	1008.360864790788014 3095.62498679506507 13498.95008512294589 
	1008.361813533907366 3151.724822214322558 13502.10034312859716 
	1008.362542163957983 3194.80921950440279 13509.42097872580052 
	1008.36305383448132 3225.064650533804979 13516.92474569449587 
	1008.363459087811407 3249.027559286324959 13523.82848976925561 
	1008.364156089486528 3290.241749046322639 13538.2482796470922 
	1008.36491802991668 3335.295811223856617 13559.94455783606281 
	1008.365543263487552 3372.266302662852013 13583.17646790713843 
	1008.365887216596093 3392.604487093550233 13597.60704432603779 
	1008.366305452546612 3417.335067155782781 13616.58325164565395 
	1008.366856539838068 3449.92123595766725 13645.70367174607054 
	1008.367489724794154 3487.361896986591091 13687.60018600529656 
	1008.36803960388886 3519.876622042623239 13733.42492075559676 
	1008.368499250170089 3547.055814438527705 13782.60230039419366 
	1008.368862890142623 3568.558087879774121 13834.51344395859451 
	1008.369125950969988 3584.113046646262774 13888.50572772713713 
	1008.369258589578635 3591.956047934017988 13934.66770497606194 
	1008.369305117787235 3594.707289395810221 13967.28971952374013 
	1008.36931675902008 3595.395642401941132 13983.63930240490117 
	1008.369319669423135 3595.567736277446329 13991.81892586847425 
	1008.369320397119282 3595.610765352748786 13995.90933998070068 
	1008.369320605020448 3595.623058657827187 13998.24680585329588 
	1008.369320639674356 3595.625107761346499 13999.41555311127013 
	1008.369320639674015 3595.625107744969682 13999.99992675225076 
	0 
	
	0 
	0 
	94 0 0.004464285714285714038 0.008928571428571428076 0.01785714285714285615 0.02678571428571428423 0.0357142857142857123 0.05357142857142856845 0.0625 0.07142857142857142461 0.08928571428571427382 0.09821428571428569843 0.1071428571428571369 0.125 0.1428571428571428492 0.1587301587301587213 0.1746031746031745935 0.1825396825396825295 0.1865079365079365115 0.1904761904761904656 0.2142857142857142738 0.226190476190476164 0.232142857142857123 0.238095238095238082 0.2499999999999999722 0.2529761904761904656 0.2559523809523809312 0.2619047619047618625 0.2738095238095237804 0.2857142857142856984 0.2976190476190476164 0.3095238095238095344 0.3214285714285713969 0.3333333333333333148 0.3452380952380952328 0.3571428571428570953 0.3690476190476190133 0.375 0.3809523809523809312 0.3928571428571428492 0.4047619047619047672 0.4166666666666666297 0.4285714285714285476 0.4444444444444444198 0.4603174603174602919 0.476190476190476164 0.4801587301587301182 0.4821428571428570953 0.4841269841269840724 0.4880952380952380265 0.4900793650793650036 0.4910714285714284921 0.4915674603174602364 0.491815476190476164 0.4920634920634920362 0.5158730158730158166 0.5238095238095237249 0.5357142857142855874 0.5476190476190475609 0.5595238095238095344 0.5714285714285713969 0.5833333333333332593 0.5952380952380951218 0.6071428571428569843 0.6190476190476189577 0.6349206349206348854 0.650793650793650702 0.6666666666666666297 0.6785714285714286031 0.6904761904761904656 0.7023809523809523281 0.7142857142857141906 0.7321428571428569843 0.749999999999999889 0.7678571428571427937 0.7857142857142855874 0.7916666666666665186 0.7976190476190474499 0.8095238095238094234 0.8333333333333332593 0.8452380952380951218 0.851190476190476053 0.8571428571428570953 0.875 0.8928571428571427937 0.9107142857142856984 0.9285714285714286031 0.9464285714285713969 0.9642857142857143016 0.9821428571428572063 0.9910714285714286031 0.9955357142857143016 0.9977678571428572063 0.9988839285714286031 0.9994419642857143016 
	0 
	0 
	0 
	F 1 F 0 F 1 F 0 } I I I I #
tcoedge-coedge $-1 -1 $-1 $14 $14 $18 $19 reversed $9 $20 -6.283185307179586232 -4.08391938306541452e-31 #
tcoedge-coedge $-1 -1 $-1 $21 $22 $11 $16 reversed $12 $23 -6.283185307179586232 -4.08391938306541452e-31 #
tedge-edge $-1 -1 $-1 $24 4.08391938306541452e-31 $24 6.283185307179586232 $15 $25 forward @7 unknown 0.0006089795403055285605 #
pcurve $-1 -1 $-1 0 forward { exppc nurbs 2 periodic 5 
	4.08391938306541452e-31 2 1.570796326794896558 2 3.141592653589793116 2 4.712388980384689674 2 6.283185307179586232 2 
	0 500.0000000000004547 1 
	-500 500.0000000000004547 0.7071067811865451302 
	-500 0 1 
	-500 -500 0.7071067811865451302 
	0 -500 1 
	500 -500 0.7071067811865476838 
	500 0 1 
	500 500.0000000000004547 0.7071067811865451302 
	0 500.0000000000004547 1 
	0 
	plane 1008.360864791441713 3095.625040713625367 14000.00000000000182 0.9999999998569973902 -1.691169161366488208e-05 5.197112581643629645e-15 5.197112582386830492e-15 0 -1 forward_v I I I I 
	} 0 0 #
tcoedge-coedge $-1 -1 $-1 $22 $21 $14 $19 forward $12 $26 4.08391938306541452e-31 6.283185307179586232 #
tedge-edge $-1 -1 $-1 $27 4.08391938306541452e-31 $27 6.283185307179586232 $18 $28 forward @7 unknown 0.0006089795377630695871 #
pcurve $-1 -1 $-1 0 forward { exppc nurbs 2 periodic 5 
	-6.283185307179586232 2 -4.712388980384689674 2 -3.141592653589793116 2 -1.570796326794896558 2 -4.08391938306541452e-31 2 
	0 500 1 
	500 500 0.7071067811865451302 
	500 0 1 
	500 -500 0.7071067811865451302 
	0 -500 1 
	-500 -500 0.7071067811865451302 
	-500 0 1 
	-500 500 0.7071067811865451302 
	0 500 1 
	0 
	plane 658.3608648471522429 3095.630959805689599 14000 -0.9999999998569973902 1.691169161366488208e-05 -5.197112581643629645e-15 5.197112582386830492e-15 0 -1 reverse_v I I I I 
	} 0 0 #
coedge $-1 -1 $-1 $18 $15 $22 $29 reversed $12 $30 #
coedge $-1 -1 $-1 $15 $18 $21 $29 forward $12 $31 #
pcurve $-1 -1 $-1 0 forward { exppc nubs 1 periodic 2 
	-6.283185307179586232 1 -4.08391938306541452e-31 1 
	1 1 
	0 1 
	0 
	spline forward { ref 0 } I I I I 
	} 0 0 #
tvertex-vertex $-1 -1 $-1 $16 $32 9.933794298493064761e-05 #
ellipse-curve $-1 -1 $-1 1008.360864791441713 3095.625040713625367 14000.00000000000182 0.9999999998569973902 -1.691169161366488208e-05 5.197112581643629645e-15 0.008455845806832441164 499.9999999284987666 -2.778128641154166244e-61 1 I I #
pcurve $-1 -1 $-1 0 forward { exppc nubs 1 periodic 2 
	4.08391938306541452e-31 1 6.283185307179586232 1 
	0 0 
	1 0 
	2.726396621713971445e-13 
	spline forward { ref 0 } I I I I 
	} 0 0 #
tvertex-vertex $-1 -1 $-1 $19 $33 9.933794224811692071e-05 #
ellipse-curve $-1 -1 $-1 658.3608648471522429 3095.630959805689599 14000 0.9999999998569973902 -1.691169161366488208e-05 5.197112581643629645e-15 0.008455845806832441164 499.9999999284987666 -7.174648137343063403e-43 1 I I #
edge $-1 -1 $-1 $27 0 $24 1 $22 $34 forward @7 tangent #
pcurve $-1 -1 $-1 -1 $34 0 0 #
pcurve $-1 -1 $-1 1 $34 1 0 #
point $-1 -1 $-1 1008.369320637248507 3595.625040642124077 14000.00000000000182 #
point $-1 -1 $-1 658.369320692959036 3595.630959734188309 14000 #
intcurve-curve $-1 -1 $-1 forward { parcur full nubs 3 open 2 
	0 3 1 3 
	658.3693206949365049 3595.631026837034824 13999.99992675225076 
	775.0359873430332982 3595.629053806346747 13999.99992675225076 
	891.7026539915780177 3595.62708077565776 13999.99992675225076 
	1008.369320639674015 3595.625107744969682 13999.99992675225076 
	0 
	
	spline forward { ref 0 } I I I I 
	null_surface 
	nubs 1 open 2 
	0 1 1 1 
	0 0 
	0 1 
	
	nullbs 
	I I 
	0 
	0 
	0 
	surf1 } I I #
End-of-ACIS-data 