700 0 1 0           
4 LibG 20 ASM 224.0.1.65535 NT 24 Wed Jul 17 15:51:17 2019 
1000 9.999999999999999547e-07 1.000000000000000036e-10 
body $-1 -1 $-1 $1 $-1 $2 #
lump $-1 -1 $-1 $-1 $3 $0 #
transform $-1 -1 1 0 0 0 1 0 0 0 1 0 0 0 1 no_rotate no_reflect no_shear #
shell $-1 -1 $-1 $-1 $-1 $4 $-1 $1 #
face $-1 -1 $-1 $5 $6 $3 $-1 $7 forward single #
face $-1 -1 $-1 $8 $9 $3 $-1 $10 reversed single #
loop $-1 -1 $-1 $-1 $11 $4 #
plane-surface $-1 -1 $-1 8407.572000117947027 1747.516874034475222 14000 0.6964551467160912113 -0.7176003265137690379 0 0 0 -1 forward_v I I I I #
face $-1 -1 $-1 $-1 $12 $3 $-1 $13 forward single #
loop $-1 -1 $-1 $-1 $14 $5 #
plane-surface $-1 -1 $-1 8139.946898511149811 1973.075746584391254 14000.00000000000364 0.7646431474603594403 -0.6444539215816093014 -1.039422516328726087e-14 -1.359356347834937888e-14 0 -1 forward_v I I I I #
tcoedge-coedge $-1 -1 $-1 $11 $11 $15 $16 forward $6 $17 -2.019483917365790264e-31 6.283185307179586232 #
loop $-1 -1 $-1 $-1 $18 $8 #
spline-surface $-1 -1 $-1 forward { exactsur full nubs 3 3 periodic open none none 84 2 
	0 3 0.002232142857142857019 1 0.004464285714285714038 1 0.008928571428571428076 1 0.01785714285714285615 1 
	0.0357142857142857123 1 0.05357142857142856845 1 0.0625 1 0.0669642857142857123 1 0.07142857142857142461 1 
	0.08928571428571427382 1 0.1071428571428571369 1 0.125 1 0.1428571428571428492 1 0.1587301587301587213 1 
	0.1746031746031745935 1 0.1825396825396825295 1 0.1904761904761904656 1 0.2023809523809523836 1 0.2142857142857142738 1 
	0.238095238095238082 1 0.2619047619047618625 1 0.2857142857142856984 1 0.3095238095238095344 1 0.3333333333333333148 1 
	0.3340773809523809312 1 0.3348214285714286031 1 0.336309523809523836 1 0.3377976190476190688 1 0.3392857142857143016 1 
	0.3452380952380952328 1 0.3571428571428570953 1 0.3690476190476190133 1 0.3720238095238095344 1 0.375 1 
	0.3779761904761904656 1 0.3809523809523809312 1 0.4047619047619047672 1 0.4166666666666666297 1 0.4285714285714285476 1 
	0.4444444444444444198 1 0.4603174603174602919 1 0.4682539682539682557 1 0.476190476190476164 1 0.4920634920634920362 1 
	0.5079365079365079083 1 0.5238095238095237249 1 0.5357142857142855874 1 0.5476190476190475609 1 0.5595238095238095344 1 
	0.5714285714285713969 1 0.5952380952380951218 1 0.6071428571428569843 1 0.6190476190476189577 1 0.6349206349206348854 1 
	0.650793650793650702 1 0.6666666666666666297 1 0.6785714285714286031 1 0.6904761904761904656 1 0.7023809523809523281 1 
	0.7142857142857141906 1 0.7232142857142855874 1 0.7321428571428569843 1 0.749999999999999889 1 0.7678571428571427937 1 
	0.7857142857142855874 1 0.7976190476190474499 1 0.8095238095238094234 1 0.8333333333333332593 1 0.8571428571428570953 1 
	0.875 1 0.8928571428571427937 1 0.9107142857142856984 1 0.9285714285714286031 1 0.9464285714285713969 1 
	0.9642857142857143016 1 0.9821428571428572063 1 0.9910714285714286031 1 0.9955357142857143016 1 0.9977678571428572063 1 
	0.9988839285714286031 1 0.9994419642857143016 1 0.9997209821428572063 1 1 3 
	0 3 1 3 
	8462.173896456997682 2355.397364399766957 13999.99990312446062 
	8462.173896441319812 2355.3973643811687 14002.33739765852079 
	8462.152767132569352 2355.372294503230478 14007.0123864115485 
	8462.026014800667326 2355.221903142780775 14016.36052627202298 
	8461.582406363466362 2354.69556271671081 14032.71010998135534 
	8459.809328573839593 2352.591809854993244 14065.33209956046994 
	8454.75495091391349 2346.594801980613283 14111.49410805411753 
	8446.40104291283933 2336.682908680458695 14156.48752464997415 
	8438.876850518443462 2327.755471105954257 14187.07267385397608 
	8434.108863609639229 2322.098265222165082 14204.24879852110826 
	8426.494137863339347 2313.06341002660065 14229.6916981450031 
	8413.357374584147692 2297.47666955549721 14266.57468373151642 
	8392.403197467010614 2272.614584918024775 14312.39951595350794 
	8368.274369489299715 2243.98578408125195 14354.29591869751675 
	8342.274027760950048 2213.136436333573329 14390.34980361088492 
	8315.059994702667609 2180.847046516960745 14420.70973002293795 
	8291.838448203649023 2153.294733140809058 14441.51319988411888 
	8272.529570158159913 2130.384792199804906 14455.94151290101036 
	8255.249915121738013 2109.882519854794737 14467.24451780486379 
	8235.013505864199033 2085.8720651895419 14478.23161892670396 
	8203.950314180567148 2049.015657207978165 14491.14850728605415 
	8164.117071181547544 2001.753602807627431 14500.46617386599246 
	8115.776825241754523 1944.398008301107211 14500.46539315533846 
	8067.976692259608171 1887.683256619952544 14489.28611442446345 
	8021.784154556151407 1832.875913168584248 14467.17644764502984 
	7992.295214471098916 1797.887351214441424 14445.1406660446446 
	7977.529926290199001 1780.368369562372663 14431.84101008944708 
	7975.797553452929606 1778.312913036303144 14430.26379733410067 
	7973.641039872919464 1775.754214460437197 14428.26873033260927 
	7971.067757350097963 1772.701020459029905 14425.83722354021666 
	7965.950726149223556 1766.62967429747664 14420.89973908347019 
	7955.026158797805692 1753.667699384260686 14409.80095442638049 
	7938.854140679642114 1734.479635784094171 14391.28068260882355 
	7925.142790991890251 1718.211149814639839 14372.97123322138214 
	7916.385261610116686 1707.820360642269179 14360.12381767295665 
	7912.084640700036289 1702.7176834785555 14353.57422698764094 
	7907.863750351703857 1697.70960644937918 14346.90093079178769 
	7894.064265678580341 1681.33654851546612 14324.2527310297537 
	7877.739064083747508 1661.966733060218758 14292.48662145150411 
	7860.630006210155443 1641.666873870205336 14250.23308057498434 
	7848.107144580397289 1626.808526343485255 14213.46795771245706 
	7836.65018295176742 1613.214866802135475 14171.2938479829445 
	7828.74681466018319 1603.837537867266974 14131.5351409510331 
	7823.978122735685247 1598.179495483916753 14099.11412461001419 
	7820.256468235630564 1593.763760680558562 14066.36469278020013 
	7817.586519626273002 1590.595872582006905 14024.96430596861683 
	7817.586680809532481 1590.596063825572401 13975.0357167315924 
	7820.523336786124673 1594.080399623280073 13929.4952602350204 
	7825.505887045458621 1599.992184446182137 13888.63578512171443 
	7831.748214614602148 1607.398692250847034 13852.48482778044126 
	7839.714707641269342 1616.850918543732178 13817.15928664794592 
	7852.573892119080483 1632.108312383074917 13771.42062832154625 
	7868.687161831929188 1651.226671130694967 13728.11416935032139 
	7887.784930401987367 1673.886131147689184 13687.96450907976941 
	7905.265371776807115 1694.626636037523667 13656.44420299203557 
	7926.380124159220941 1719.679242870771304 13624.48738511232841 
	7951.536902647939314 1749.527704707059456 13593.35754745188387 
	7976.313672174532257 1778.925286753295495 13568.52628208948227 
	8000.007448014610418 1807.037899194406464 13549.09539037840477 
	8022.114310422118251 1833.267642370251679 13534.12884936469891 
	8044.880213053826992 1860.27933530923724 13521.7678823565293 
	8066.236276455022562 1885.618257130642633 13512.88848294643321 
	8085.943542938282917 1909.000885068757725 13506.80597858023066 
	8109.818764995192396 1937.328783043384874 13501.57540495149988 
	8139.946862486291138 1973.075703841160475 13498.94976574144675 
	8176.100618435605611 2015.972055024440806 13502.10040138417207 
	8207.833152170771427 2053.622635864431231 13510.46651631757413 
	8235.013449827909426 2085.871998702452402 13521.76832893532082 
	8265.368290670061469 2121.887949982944065 13538.24838464093955 
	8301.662818814396815 2164.951327063147801 13565.36800353169929 
	8338.274381231560255 2208.390864604365561 13604.1024497265571 
	8368.274340197222045 2243.985749326161113 13645.70390769522783 
	8392.403349560039715 2272.614765375980824 13687.60002771946711 
	8413.357383750426379 2297.476680431208024 13733.42506108159978 
	8430.873224690827556 2318.259186827096528 13782.6022864790375 
	8444.730416829843307 2334.700714541274465 13834.51347465814433 
	8454.754898799834336 2346.59474014737134 13888.50571527930333 
	8459.809351433734264 2352.591836978208903 13934.66769005578135 
	8461.582404353004677 2354.69556033129993 13967.28969702187896 
	8462.026016364807219 2355.221904998627906 13983.63927926040014 
	8462.136923169036891 2355.353495675668455 13991.81890233058948 
	8462.164653430490944 2355.386397569331166 13995.90931638323127 
	8462.171585624762884 2355.394622602446816 13997.9545990045317 
	8462.173566317918812 2355.396972690479743 13999.12334266926337 
	8462.173896458956733 2355.397364402091625 13999.70771630770287 
	8462.173896456997682 2355.397364399766957 13999.99990312446062 
	8563.573331233699719 2268.846406679152551 13999.9999031244588 
	8563.573331574445547 2268.846406328290868 14002.33739765851897 
	8563.551401513463134 2268.822082921677975 14007.01238641154669 
	8563.41985601028864 2268.676159815910523 14016.36052627202116 
	8562.959460404290439 2268.165468600207532 14032.71010998135353 
	8561.119305448673913 2266.124245918185352 14065.33209956046812 
	8555.87369946590843 2260.305503496935216 14111.49410805411571 
	8547.203732682815826 2250.688244177542401 14156.48752464997233 
	8539.394869269586707 2242.026180515289525 14187.07267385397427 
	8534.446491193144539 2236.537137551941669 14204.24879852110644 
	8526.543676270168362 2227.770842718459789 14229.69169814500128 
	8512.909897158690001 2212.647426671480389 14266.5746837315146 
	8491.162945294237943 2188.524376646988912 14312.39951595350612 
	8466.121231692077345 2160.746579296950586 14354.29591869751494 
	8439.137199750444779 2130.814239966262903 14390.3498036108831 
	8410.89355406246068 2099.484668022115329 14420.70973002293613 
	8386.793451008394186 2072.751356141458018 14441.51319988411706 
	8366.75404268447528 2050.522424734900142 14455.94151290100854 
	8348.820634392428474 2030.629589415843611 14467.24451780486197 
	8327.818602959141572 2007.332857394078928 14478.23161892670214 
	8295.580175601859082 1971.572018922238613 14491.14850728605234 
	8254.239884580372745 1925.714853685927437 14500.46617386599064 
	8204.070747363695773 1870.064174682294606 14500.46539315533664 
	8154.462151612419802 1815.035294791581691 14489.28611442446163 
	8106.521979769999234 1761.857117914823903 14467.17644764502802 
	8075.917353642190392 1727.908612553815829 14445.14066604464278 
	8060.59344730191151 1710.910381791730288 14431.84101008944526 
	8058.795531206088526 1708.91602551750816 14430.26379733409885 
	8056.557429382494774 1706.433384530792864 14428.26873033260745 
	8053.886789180138294 1703.470948585515998 14425.83722354021484 
	8048.576162227342138 1697.580074824327085 14420.89973908346838 
	8037.238275808111212 1685.003401156330256 14409.80095442637867 
	8020.454410829222979 1666.385708912529708 14391.28068260882173 
	8006.22430665992033 1650.600812410075378 14372.97123322138032 
	7997.135449370164679 1640.518891290168085 14360.12381767295483 
	7992.672116047489908 1635.567896688589144 14353.57422698763912 
	7988.291540216006069 1630.708680479765007 14346.90093079178587 
	7973.969944474953991 1614.822341064984812 14324.25273102975189 
	7957.027115601735204 1596.028285544314258 14292.48662145150229 
	7939.270755878314048 1576.331849298447651 14250.23308057498252 
	7926.274108148136293 1561.915171146976036 14213.46795771245525 
	7914.383685466782481 1548.725589463084134 14171.29384798294268 
	7906.181296798315088 1539.62701109292675 14131.53514095103128 
	7901.23219152054935 1534.137152311742511 14099.11412461001237 
	7897.36972849637641 1529.852680989565897 14066.36469278019831 
	7894.598770236037126 1526.778955360964346 14024.96430596861501 
	7894.598931417011954 1526.779146606659424 13975.03571673159058 
	7897.6466977611517 1530.159903919107819 13929.49526023501858 
	7902.817758742995466 1535.895956670163514 13888.63578512171262 
	7909.29625268777545 1543.082307202402262 13852.48482778043945 
	7917.564155644075981 1552.253555359380471 13817.1592866479441 
	7930.909845542827497 1567.057422712548487 13771.42062832154443 
	7947.632741658972009 1585.607480042208181 13728.11416935031957 
	7967.453057810575046 1607.593372095420364 13687.96450907976759 
	7985.594843015982406 1627.717363929635212 13656.44420299203375 
	8007.508452928064798 1652.025265703513924 13624.48738511232659 
	8033.617000986881067 1680.986475948771385 13593.35754745188206 
	8059.331175303044802 1709.510197433463873 13568.52628208948045 
	8083.921374683563045 1736.787152550070687 13549.09539037840295 
	8106.864624880784504 1762.237204485035136 13534.12884936469709 
	8130.491847683821106 1788.445963902708172 13521.76788235652748 
	8152.655891968781361 1813.031675759049676 13512.8884829464314 
	8173.108759627097243 1835.719244882903695 13506.80597858022884 
	8197.887271124503968 1863.205085054443543 13501.57540495149806 
	8229.155229880158004 1897.889412812574847 13498.94976574144493 
	8266.676818565349095 1939.510653076891685 13502.10040138417025 
	8299.60991656499391 1976.04205277550227 13510.46651631757231 
	8327.818544942141671 2007.332792753433068 13521.768328935319 
	8359.321827244724773 2042.278152427526265 13538.24838464093773 
	8396.989509798677318 2084.061457657419396 13565.36800353169747 
	8434.986230037493442 2126.209733616317408 13604.10244972655528 
	8466.121195092935523 2160.746551353596715 13645.70390769522601 
	8491.163101631713289 2188.524553148219184 13687.60002771946529 
	8512.909903601846963 2212.647440085720518 13733.42506108159796 
	8531.088437245931345 2232.81217598948524 13782.60228647903568 
	8545.469899205605543 2248.764972768021835 13834.51347465814251 
	8555.873644953673647 2260.30544389928491 13888.50571527930151 
	8561.11932969247755 2266.12427175130324 13934.66769005577953 
	8562.959457661794659 2268.165466897209171 13967.28969702187715 
	8563.419858052229756 2268.676161226344448 13983.63927926039833 
	8563.534957992882482 2268.803843008754484 13991.81890233058766 
	8563.563738915245267 2268.835765463073585 13995.90931638322945 
	8563.570932749709755 2268.843746591903709 13997.95459900452988 
	8563.572988438068933 2268.846026768461797 13999.12334266926155 
	8563.573331191106263 2268.846406723010205 13999.70771630770105 
	8563.573331233699719 2268.846406679152551 13999.9999031244588 
	8664.9727699703908 2182.295445266985553 13999.99990312446971 
	8664.972769596510261 2182.295445582309185 14002.33739765852988 
	8664.950042834436317 2182.271864870494028 14007.01238641155942 
	8664.81369711010484 2182.130416591398898 14016.36052627203389 
	8664.336525675007579 2181.635364015058258 14032.71010998136626 
	8662.429278287816487 2179.656685743501384 14065.33209956047904 
	8656.992450146675765 2174.016203028788823 14111.49410805412481 
	8648.00642089961184 2164.693581122520754 14156.48752464998506 
	8639.912893356593486 2156.296884950466847 14187.07267385398336 
	8634.784124554849768 2150.976004495207235 14204.24879852111735 
	8626.593206158033354 2142.478283351806112 14229.69169814501038 
	8612.462418042210629 2127.818185363853445 14266.57468373152369 
	8589.922687799589767 2104.434173337071115 14312.3995159535134 
	8563.968090342066716 2077.507377824601008 14354.29591869752221 
	8536.00036434246249 2048.492050494971863 14390.34980361088674 
	8506.727113797007405 2018.122289177917992 14420.70973002293977 
	8481.748446442306886 1992.207986013287609 14441.5131998841207 
	8460.978514506070496 1970.660057926940681 14455.94151290101217 
	8442.39134815374382 1951.376664112801336 14467.24451780486561 
	8420.623700836713397 1928.793648869034769 14478.23161892670578 
	8387.210029921003297 1894.128387257207351 14491.14850728605597 
	8344.362707173182571 1849.676095993475428 14500.46617386599428 
	8292.364668225147398 1795.730342238522553 14500.46539315534028 
	8240.947617289271875 1742.387327067857541 14489.28611442446527 
	8191.25979727327649 1690.838329848952071 14467.17644764503166 
	8159.539508043137175 1657.92985969572419 14445.14066604464642 
	8143.656957540404619 1641.452404064016719 14431.8410100894489 
	8141.793501266117346 1639.519145170341289 14430.26379733410249 
	8139.473808677474153 1637.112564123319316 14428.26873033261109 
	8136.705812734740903 1634.240884426466209 14425.83722354021847 
	8131.201587218825807 1628.530485686275142 14420.89973908347201 
	8119.450385541443211 1616.339109712082745 14409.8009544263823 
	8102.054668023474733 1598.291794118084454 14391.28068260882537 
	8087.305815802083998 1582.990481089005698 14372.97123322138395 
	8077.885622719407365 1573.217435372000182 14360.12381767295847 
	8073.259587843890586 1568.418113208958175 14353.57422698764276 
	8068.719306128909921 1563.707776837945403 14346.90093079178769 
	8053.875672066678817 1548.30808812686314 14324.25273102975189 
	8036.315164954778993 1530.08984004660033 14292.48662145150229 
	8017.911507371693006 1510.996823025197955 14250.2330805749807 
	8004.441069853537556 1497.021817686563963 14213.46795771245525 
	7992.117188402417014 1484.236311731928254 14171.2938479829445 
	7983.615797335324714 1475.416467166922985 14131.5351409510331 
	7978.486265683269266 1470.094804126262716 14099.11412461001237 
	7974.483006811759878 1465.941584467814437 14066.36469278019831 
	7971.611025020390116 1462.962034248316513 14024.96430596861319 
	7971.611204500455642 1462.962208435369575 13975.03571673159422 
	7974.770064594858013 1466.23940275339919 13929.49526023501858 
	7980.129630427138181 1471.799728906632026 13888.63578512171443 
	7986.844304370432837 1478.76590946702413 13852.48482778043763 
	7995.413595363957938 1487.6561998964753 13817.15928664794592 
	8009.245809514667599 1502.006523208956196 13771.42062832154625 
	8026.578331060085475 1519.988280028652753 13728.11416935032139 
	8047.121175002461314 1541.300622567290247 13687.96450907976578 
	8065.924326643308632 1560.808080273354108 13656.44420299203375 
	8088.636774881927522 1584.371294889265982 13624.48738511232659 
	8115.697112699174795 1612.445234723676322 13593.35754745188569 
	8142.348674795869556 1640.095111502864484 13568.52628208948227 
	8167.835303184818258 1666.536404197639513 13549.09539037840295 
	8191.614937038497374 1691.206768744796591 13534.12884936469709 
	8216.103480705072798 1716.612593995870611 13521.7678823565293 
	8239.075505740327571 1740.445096011569376 13512.8884829464314 
	8260.273972852381121 1762.437607925796556 13506.80597858023066 
	8285.95577595283612 1789.081388278290888 13501.57540495149806 
	8318.363592610377964 1822.703126131501904 13498.94976574144675 
	8357.253016763028427 1863.049252930439252 13502.10040138417389 
	8391.386672381298922 1898.46147768301671 13510.46651631757595 
	8420.623640420952142 1928.793586464550117 13521.76832893532264 
	8453.275355915333421 1962.668362240368879 13538.24838464094137 
	8492.316208426675075 2003.171581126126284 13565.36800353170111 
	8531.698075624064586 2044.028605629399181 13604.10244972655892 
	8563.968065032371669 2077.507339357086948 13645.70390769522965 
	8589.922852910949587 2104.434341659177335 13687.60002771947075 
	8612.462430972009315 2127.818192731169347 13733.42506108160342 
	8631.303651204645575 2147.365163843413484 13782.60228647904114 
	8646.20938385665977 2162.829228873721149 13834.51347465815161 
	8656.992394515744309 2174.016144474006524 13888.50571527930879 
	8662.4293023584396 2179.656711738065496 13934.66769005579226 
	8664.336524168395044 2181.635361159955664 13967.28969702188624 
	8664.813698373982334 2182.130418727160759 13983.63927926041106 
	8664.933000116343464 2182.254183537050267 13991.81890233059494 
	8664.96282713963592 2182.2851308028944 13995.90931638323855 
	8664.970284507282486 2182.292866262769166 13997.95459900453716 
	8664.972415016623927 2182.295076690263613 13999.12334266927428 
	8664.972770017127914 2182.295445227569871 13999.70771630771196 
	8664.9727699703908 2182.295445266985553 13999.99990312446971 
	8766.372204747092837 2095.744487546371147 13999.99990312446789 
	8766.372204729635996 2095.744487529430899 14002.33739765852806 
	8766.348677215330099 2095.72165328894107 14007.0123864115576 
	8766.207538319726154 2095.584673264528192 14016.36052627203208 
	8765.713579715831656 2095.105269898554525 14032.71010998136444 
	8763.739255162650807 2093.189121806692583 14065.33209956047722 
	8758.111198698672524 2087.726904545108937 14111.49410805412299 
	8748.809110669590154 2078.698916619602187 14156.48752464998324 
	8740.430912107740369 2070.567594359799386 14187.07267385398154 
	8735.121752138358715 2065.414876824981093 14204.24879852111553 
	8726.642744564866007 2057.185716043662069 14229.69169814500856 
	8712.014940616756576 2042.988942479832986 14266.57468373152187 
	8688.682435626820734 2020.343965066030705 14312.39951595351158 
	8661.814952544849803 1994.268173040294869 14354.29591869752039 
	8632.863536331962678 1966.169854127655981 14390.34980361088492 
	8602.560673156805933 1936.759910683066664 14420.70973002293795 
	8576.703449247057506 1911.664609013930658 14441.51319988411888 
	8555.202987032393139 1890.797690462029777 14455.94151290101036 
	8535.962067424441557 1872.123733673844072 14467.24451780486379 
	8513.428797931663212 1850.254441073565204 14478.23161892670396 
	8478.839891342302508 1816.684748971461204 14491.14850728605415 
	8434.485520572014138 1773.637346871768841 14500.46617386599246 
	8380.658590347096833 1721.396508619703354 14500.46539315533846 
	8327.433076642091692 1669.739365239480321 14489.28611442446345 
	8275.997622487131594 1619.819534595185587 14467.17644764502984 
	8243.161647214235927 1587.951121035092683 14445.1406660446446 
	8226.720478552124405 1571.994416293368658 14431.84101008944708 
	8224.791479019282633 1570.122257651540849 14430.26379733410067 
	8222.39019818705674 1567.791734193669527 14428.26873033260927 
	8219.524844564788509 1565.010812552946845 14425.83722354021666 
	8213.827023296951666 1559.480886213120357 14420.89973908347019 
	8201.662502551755097 1547.674811484147085 14409.80095442638049 
	8183.654938173062874 1530.197867246515216 14391.28068260882355 
	8168.387331470119534 1515.380143684436689 14372.97123322138214 
	8158.635810479460815 1505.91596601989454 14360.12381767295665 
	8153.847063191350571 1501.268326418987272 14353.57422698764094 
	8149.14709599321759 1496.70685086832691 14346.90093079178587 
	8133.781350863057924 1481.793880676377512 14324.25273102975007 
	8115.603216472771237 1464.151392530692419 14292.48662145150047 
	8096.552257039856158 1445.661798453437086 14250.23308057497889 
	8082.608033421279288 1432.12846249005247 14213.46795771245343 
	8069.850690917434804 1419.747034392874866 14171.29384798294268 
	8061.050279473459341 1411.205940392581624 14131.53514095103128 
	8055.740334468135188 1406.052460954087337 14099.11412461001055 
	8051.596267072507544 1402.030504776821317 14066.36469278019649 
	8048.623275630154239 1399.145117027273955 14024.96430596861137 
	8048.623455107935115 1399.145291216457053 13975.0357167315924 
	8051.89342556988413 1402.318907049228528 13929.49526023501676 
	8057.441502124674116 1407.703501130615223 13888.63578512171262 
	8064.392342443604321 1414.449524418581859 13852.48482778043581 
	8073.263043366761849 1423.058836712126322 13817.1592866479441 
	8087.581762938410975 1436.955633538433176 13771.42062832154443 
	8105.523910887123748 1454.369088940169831 13728.11416935031957 
	8126.789302411043536 1475.007863515025974 13687.96450907976396 
	8146.253797882478466 1493.898808165470427 13656.44420299203193 
	8169.765103650765923 1516.717317722014059 13624.48738511232477 
	8197.777211038110181 1543.904005965393935 13593.35754745188387 
	8225.366177924375734 1570.680022183039 13568.52628208948045 
	8251.749229853763609 1596.285657553309875 13549.09539037840113 
	8276.365251497156351 1620.176330859586642 13534.12884936469527 
	8301.715115335058726 1644.779222589348137 13521.76788235652748 
	8325.495121254078185 1667.858514639983014 13512.88848294642958 
	8347.439189541188171 1689.155967739949347 13506.80597858022884 
	8374.024282082140417 1714.957690289356378 13501.57540495149624 
	8407.571960004237553 1747.516835102923324 13498.94976574144493 
	8447.829216892763725 1786.587850982896725 13502.10040138417207 
	8483.163436775512309 1820.880894594094343 13510.46651631757413 
	8513.428735535177111 1850.25438051553715 13521.76832893532082 
	8547.228892489987629 1883.058564684957219 13538.24838464093955 
	8587.642899410948303 1922.281711720403564 13565.36800353169929 
	8628.409924429990497 1961.847474641356484 13604.1024497265571 
	8661.814919928079689 1994.268141384526871 13645.70390769522783 
	8688.682604982617704 2020.344129431419788 13687.60002771946893 
	8712.014950823424442 2042.988952385685252 13733.4250610816016 
	8731.518863759745727 2061.918153005804925 13782.60228647903932 
	8746.948866232418368 2076.893487100470793 13834.51347465814979 
	8758.1111406695818 2087.726848225921003 13888.50571527930697 
	8763.739280617181066 2093.189146511160743 13934.66769005579044 
	8765.713577477183208 2095.105267725864906 13967.28969702188442 
	8766.20754006140487 2095.584674954877755 13983.63927926040924 
	8766.331034940189056 2095.704530870135841 13991.81890233059312 
	8766.361912624390243 2095.73449869663682 13995.90931638323673 
	8766.369631632229357 2095.74199025222606 13997.95459900453534 
	8766.371837136774047 2095.744130768245668 13999.12334266927246 
	8766.372204749275625 2095.744487548488451 13999.70771630771014 
	8766.372204747092837 2095.744487546371147 13999.99990312446789 
	0 
	
	0 
	0 
	83 0 0.002232142857142857019 0.004464285714285714038 0.008928571428571428076 0.01785714285714285615 0.0357142857142857123 0.05357142857142856845 0.0625 0.0669642857142857123 0.07142857142857142461 0.08928571428571427382 0.1071428571428571369 0.125 0.1428571428571428492 0.1587301587301587213 0.1746031746031745935 0.1825396825396825295 0.1904761904761904656 0.2023809523809523836 0.2142857142857142738 0.238095238095238082 0.2619047619047618625 0.2857142857142856984 0.3095238095238095344 0.3333333333333333148 0.3340773809523809312 0.3348214285714286031 0.336309523809523836 0.3377976190476190688 0.3392857142857143016 0.3452380952380952328 0.3571428571428570953 0.3690476190476190133 0.3720238095238095344 0.375 0.3779761904761904656 0.3809523809523809312 0.4047619047619047672 0.4166666666666666297 0.4285714285714285476 0.4444444444444444198 0.4603174603174602919 0.4682539682539682557 0.476190476190476164 0.4920634920634920362 0.5079365079365079083 0.5238095238095237249 0.5357142857142855874 0.5476190476190475609 0.5595238095238095344 0.5714285714285713969 0.5952380952380951218 0.6071428571428569843 0.6190476190476189577 0.6349206349206348854 0.650793650793650702 0.6666666666666666297 0.6785714285714286031 0.6904761904761904656 0.7023809523809523281 0.7142857142857141906 0.7232142857142855874 0.7321428571428569843 0.749999999999999889 0.7678571428571427937 0.7857142857142855874 0.7976190476190474499 0.8095238095238094234 0.8333333333333332593 0.8571428571428570953 0.875 0.8928571428571427937 0.9107142857142856984 0.9285714285714286031 0.9464285714285713969 0.9642857142857143016 0.9821428571428572063 0.9910714285714286031 0.9955357142857143016 0.9977678571428572063 0.9988839285714286031 0.9994419642857143016 0.9997209821428572063 
	0 
	0 
	0 
	F 1 F 0 F 1 F 0 } I I I I #
tcoedge-coedge $-1 -1 $-1 $14 $14 $18 $19 reversed $9 $20 -6.283185307179586232 -4.490409039659569734e-30 #
tcoedge-coedge $-1 -1 $-1 $21 $22 $11 $16 reversed $12 $23 -6.283185307179586232 2.019483917365790264e-31 #
tedge-edge $-1 -1 $-1 $24 -2.019483917365790264e-31 $24 6.283185307179586232 $15 $25 forward @7 unknown 0.0006539739225564324739 #
pcurve $-1 -1 $-1 0 forward { exppc nurbs 2 periodic 5 
	-2.019483917365790264e-31 2 1.570796326794896558 2 3.141592653589793116 2 4.712388980384689674 2 6.283185307179586232 2 
	0 500 1 
	-500 500 0.7071067811865470176 
	-500 0 1 
	-500 -500 0.7071067811865431318 
	0 -500 1 
	500 -500 0.7071067811865470176 
	500 0 1 
	500 500 0.7071067811865470176 
	0 500 1 
	0 
	plane 8407.572000117947027 1747.516874034475222 14000 0.6964551467160912113 -0.7176003265137690379 0 0 0 -1 forward_v I I I I 
	} 0 0 #
tcoedge-coedge $-1 -1 $-1 $22 $21 $14 $19 forward $12 $26 4.490409039659569734e-30 6.283185307179586232 #
tedge-edge $-1 -1 $-1 $27 4.490409039659569734e-30 $27 6.283185307179586232 $18 $28 forward @7 unknown 0.0006539739336938399849 #
pcurve $-1 -1 $-1 0 forward { exppc nurbs 2 periodic 5 
	-6.283185307179586232 2 -4.712388980384689674 2 -3.141592653589793116 2 -1.570796326794896558 2 -4.490409039659569734e-30 2 
	-3.637978807091712952e-12 499.9999999999990905 1 
	499.999999999996362 500.0000000000045475 0.7071067811865449082 
	500 3.637978807091712952e-12 1 
	500.000000000005457 -499.999999999996362 0.7071067811865457964 
	5.456968210637569427e-12 -500.0000000000009095 1 
	-499.999999999994543 -500.000000000005457 0.7071067811865456854 
	-500 -6.366462912410497665e-12 1 
	-500.000000000003638 499.999999999994543 0.7071067811865460184 
	-3.637978807091712952e-12 499.9999999999990905 1 
	0 
	plane 8139.946898511149811 1973.075746584391254 14000.00000000000364 -0.7646431474603594403 0.6444539215816093014 1.039422516328726087e-14 -1.359356347834937888e-14 0 -1 reverse_v I I I I 
	} 0 0 #
coedge $-1 -1 $-1 $18 $15 $22 $29 reversed $12 $30 #
coedge $-1 -1 $-1 $15 $18 $21 $29 forward $12 $31 #
pcurve $-1 -1 $-1 0 forward { exppc nubs 1 periodic 2 
	-6.283185307179586232 1 2.019483917365790264e-31 1 
	1 1 
	0 1 
	6.911159107454901145e-12 
	spline forward { ref 0 } I I I I 
	} 0 0 #
tvertex-vertex $-1 -1 $-1 $16 $32 0.0001127336092812334501 #
ellipse-curve $-1 -1 $-1 8407.572000117947027 1747.516874034475222 14000 0.6964551467160912113 -0.7176003265137690379 0 358.8001632568845025 348.2275733580455608 1.009741958682895111e-28 1 I I #
pcurve $-1 -1 $-1 0 forward { exppc nubs 1 periodic 2 
	4.490409039659569734e-30 1 6.283185307179586232 1 
	0 0 
	1 0 
	7.246916517020012124e-12 
	spline forward { ref 0 } I I I I 
	} 0 0 #
tvertex-vertex $-1 -1 $-1 $19 $33 0.0001127336456476206737 #
ellipse-curve $-1 -1 $-1 8139.946898511149811 1973.075746584391254 14000.00000000000364 0.7646431474603594403 -0.6444539215816093014 -1.039422516328726087e-14 322.2269607908046964 382.3215737301796935 3.53301499395133623e-28 1 I I #
edge $-1 -1 $-1 $27 9.024141757270949393e-10 $24 0.9999999865006254929 $22 $34 forward @7 tangent #
pcurve $-1 -1 $-1 -1 $34 0 0 #
pcurve $-1 -1 $-1 1 $34 1 0 #
point $-1 -1 $-1 8766.372163374831871 2095.744447392520669 14000 #
point $-1 -1 $-1 8462.173859301954508 2355.397320314570607 14000.00000000000364 #
intcurve-curve $-1 -1 $-1 forward { parcur full nubs 3 open 2 
	0 3 1 3 
	8462.173896456997682 2355.397364399766957 13999.99990312446062 
	8563.573331233699719 2268.846406679152551 13999.9999031244588 
	8664.9727699703908 2182.295445266985553 13999.99990312446971 
	8766.372204747092837 2095.744487546371147 13999.99990312446789 
	0 
	
	spline forward { ref 0 } I I I I 
	null_surface 
	nubs 1 open 2 
	0 1 1 1 
	0 0 
	0 1 
	
	nullbs 
	I I 
	0 
	0 
	0 
	surf1 } F 9.024141757270949393e-10 F 0.9999999865006254929 #
End-of-ACIS-data 