700 0 1 0           
4 LibG 20 ASM 224.0.1.65535 NT 24 Wed Jul 17 15:51:17 2019 
1000 9.999999999999999547e-07 1.000000000000000036e-10 
body $-1 -1 $-1 $1 $-1 $2 #
lump $-1 -1 $-1 $-1 $3 $0 #
transform $-1 -1 1 0 0 0 1 0 0 0 1 0 0 0 1 no_rotate no_reflect no_shear #
shell $-1 -1 $-1 $-1 $-1 $4 $-1 $1 #
face $-1 -1 $-1 $5 $6 $3 $-1 $7 forward single #
face $-1 -1 $-1 $8 $9 $3 $-1 $10 reversed single #
loop $-1 -1 $-1 $-1 $11 $4 #
plane-surface $-1 -1 $-1 5551.358499392891645 2955.723320432814035 14000.00000000000909 0.9949983108038356061 -0.09989174889606428076 5.19711258164362649e-15 5.223237592679933738e-15 0 -1 forward_v I I I I #
face $-1 -1 $-1 $-1 $12 $3 $-1 $13 forward single #
loop $-1 -1 $-1 $-1 $14 $5 #
plane-surface $-1 -1 $-1 5203.109090617182119 2990.685432545871208 14000.00000000000909 0.9949983108038356061 -0.09989174889606429464 0 0 0 -1 forward_v I I I I #
tcoedge-coedge $-1 -1 $-1 $11 $11 $15 $16 forward $6 $17 -3.825710333124628369e-30 6.283185307179586232 #
loop $-1 -1 $-1 $-1 $18 $8 #
spline-surface $-1 -1 $-1 forward { exactsur full nubs 3 3 periodic open none none 86 2 
	0 3 0.002232142857142857019 1 0.004464285714285714038 1 0.008928571428571428076 1 0.01785714285714285615 1 
	0.02678571428571428423 1 0.0357142857142857123 1 0.05357142857142856845 1 0.07142857142857142461 1 0.08928571428571427382 1 
	0.1071428571428571369 1 0.125 1 0.1428571428571428492 1 0.1587301587301587213 1 0.1746031746031745935 1 
	0.1904761904761904656 1 0.2023809523809523836 1 0.2142857142857142738 1 0.238095238095238082 1 0.2619047619047618625 1 
	0.2857142857142856984 1 0.2976190476190476164 1 0.3095238095238095344 1 0.3214285714285713969 1 0.3273809523809523281 1 
	0.3333333333333333148 1 0.3452380952380952328 1 0.3571428571428570953 1 0.3690476190476190133 1 0.375 1 
	0.3809523809523809312 1 0.3869047619047618625 1 0.3928571428571428492 1 0.4047619047619047672 1 0.4285714285714285476 1 
	0.4305555555555555802 1 0.4365079365079365115 1 0.4444444444444444198 1 0.4603174603174602919 1 0.476190476190476164 1 
	0.4801587301587301182 1 0.4841269841269840724 1 0.4880952380952380265 1 0.4900793650793650036 1 0.4920634920634920362 1 
	0.5158730158730158166 1 0.5238095238095237249 1 0.5357142857142855874 1 0.5476190476190475609 1 0.5595238095238095344 1 
	0.5714285714285713969 1 0.5952380952380951218 1 0.6190476190476189577 1 0.6269841269841269771 1 0.6309523809523809312 1 
	0.6349206349206348854 1 0.650793650793650702 1 0.6666666666666666297 1 0.6785714285714286031 1 0.6904761904761904656 1 
	0.7023809523809523281 1 0.7142857142857141906 1 0.7321428571428569843 1 0.749999999999999889 1 0.7678571428571427937 1 
	0.7857142857142855874 1 0.7976190476190474499 1 0.8095238095238094234 1 0.8333333333333332593 1 0.8452380952380951218 1 
	0.851190476190476053 1 0.8571428571428570953 1 0.875 1 0.8928571428571427937 1 0.9107142857142856984 1 
	0.9285714285714286031 1 0.9464285714285713969 1 0.9642857142857143016 1 0.9821428571428572063 1 0.9910714285714286031 1 
	0.9955357142857143016 1 0.9977678571428572063 1 0.9988839285714286031 1 0.9994419642857143016 1 0.9997209821428572063 1 
	1 3 
	0 3 1 3 
	5253.054973121295006 3488.184668205216894 13999.99989773741072 
	5253.054973116779365 3488.184668160249657 14002.33739228030936 
	5253.051698264538572 3488.152048124186877 14007.01238127723991 
	5253.032050516981144 3487.956341513245661 14016.36052074477266 
	5252.963294575274631 3487.271479683987764 14032.71010738648511 
	5252.766968829723737 3485.315924921812439 14056.0115184851602 
	5252.375115228440336 3481.412762991776162 14083.79693146089812 
	5251.646016996694016 3474.150386298214926 14120.49273336468468 
	5250.351203485102815 3461.253052221389225 14165.48629628438721 
	5248.203288179575793 3439.858171017247969 14217.39742362727156 
	5245.488301608080292 3412.814825770985408 14266.57465423751819 
	5242.240372630880302 3380.462966064940247 14312.39957611573845 
	5238.500353093003469 3343.209507558738551 14354.29600199126253 
	5234.470244824112342 3303.066543157153319 14390.34989607809439 
	5230.252001915816436 3261.049613683014286 14420.7097284430638 
	5225.932737616705708 3218.026433800429913 14445.67388323403611 
	5221.765488326263949 3176.517439809108964 14464.49781936677027 
	5217.844623207920449 3137.462620839867668 14478.23150315795647 
	5213.02976822382152 3089.502978237587286 14491.14879390157694 
	5206.855525138139456 3028.002789196526464 14500.46574407479784 
	5199.362673483101389 2953.368249084002855 14500.46578494110872 
	5193.188425359150642 2891.8680098579066 14491.14907724559271 
	5188.373568067320775 2843.908344269023019 14478.23175746677589 
	5184.844795012834766 2808.759062499120319 14465.87137193483431 
	5181.989286478671602 2780.316010901922709 14453.3990238192273 
	5179.76552139726482 2758.165607849814933 14442.16073567347485 
	5177.585279963061112 2736.448733651953717 14430.09797910770976 
	5174.947342182845205 2710.172853368175765 14413.50475712211301 
	5171.939303778071917 2680.210487460466084 14391.28043092782355 
	5169.577878334994239 2656.688881793079418 14370.93654053112732 
	5167.783804258237979 2638.818530181866208 14353.63573307917795 
	5166.487654469980043 2625.907885768097003 14340.16556087195386 
	5165.242713594897396 2613.507321342622618 14326.21967422129455 
	5163.653438566639124 2597.676925078681506 14307.01666152631151 
	5161.063245139795981 2571.876615114558717 14271.88578491365297 
	5159.085948951269529 2552.181230968318232 14237.60171975978301 
	5157.663777569626291 2538.015314983808821 14207.55945402363977 
	5156.990193140823067 2531.305898277733377 14192.36329984119766 
	5155.852413035528116 2519.972737177387444 14163.34215253505681 
	5154.627338869106097 2507.770060383026248 14123.58352609576832 
	5153.886169217136739 2500.387443101020381 14086.879494321327 
	5153.545676627319153 2496.995876175264584 14062.17835645076775 
	5153.406233398583936 2495.606914838853754 14049.78914758059182 
	5153.31577713823026 2494.705901219129373 14039.43900895537809 
	5153.258901129512196 2494.139372619665664 14031.14728682880741 
	5153.095922812444769 2492.515983781549494 14002.10365183398972 
	5153.184234389519588 2493.395634713549043 13966.69382295174182 
	5153.752289096464665 2499.053894580892575 13921.32346563371721 
	5154.37006066759659 2505.207372486045188 13888.63584290427025 
	5155.33767824586721 2514.845584515887822 13852.484898808254 
	5156.572472142045626 2527.145077261434835 13817.15924845038353 
	5158.565682625213412 2546.99897996865775 13771.42070780641916 
	5161.687597206265309 2578.095639792459679 13717.28695511752085 
	5165.321189061589394 2614.288997083330742 13671.67480788744069 
	5167.930657604390944 2640.281301962200814 13644.89396492711057 
	5169.133741811578147 2652.264941923816878 13633.43601598640998 
	5170.980616880071466 2670.661231844912436 13616.70489435432137 
	5173.905127715208437 2699.791599198056701 13593.35744145958233 
	5177.745585480924092 2738.045499363299314 13568.52626061090814 
	5181.418175443481232 2774.627307664866294 13549.09546477324511 
	5184.84478391900393 2808.758951995981988 13534.12883981796767 
	5188.37355159670642 2843.908180208952672 13521.76808126817014 
	5192.586568758055364 2885.873057241010429 13510.46652279724549 
	5197.50517165146357 2934.866108464389072 13502.10028185987903 
	5203.109088252347647 2990.685408991389068 13498.94995972503966 
	5208.712990286298009 3046.504564420307361 13502.10036100936486 
	5213.631610074424316 3095.497783928207809 13510.4665144245846 
	5217.844602718429087 3137.462416748652231 13521.76844956445893 
	5222.549682496943205 3184.328614243102948 13538.2483864722999 
	5227.050217900783537 3229.157393136639712 13559.94460777553104 
	5230.743261799257198 3265.94293830252127 13583.17657420608703 
	5232.774881227080186 3286.179423510043762 13597.60708614275609 
	5235.245260939240325 3310.786297128825026 13616.58331717397414 
	5238.500360107506822 3343.209577427635395 13645.70359367318088 
	5242.240372437120641 3380.462964134236245 13687.6001549226421 
	5245.488311702247302 3412.814926315389584 13733.42498574477395 
	5248.203287822745551 3439.858167460940876 13782.60233478109512 
	5250.351208807652256 3461.253105235998191 13834.51339262075635 
	5251.905010751044756 3476.730162413788094 13888.50571330033381 
	5252.688465439453466 3484.533971040771576 13934.66767335601617 
	5252.963290529316509 3487.27143938310428 13967.28969149664954 
	5253.032051471859631 3487.956351024553442 13983.63927338041685 
	5253.049242186046285 3488.127583701664207 13991.8188969149669 
	5253.053540439301287 3488.170397595472423 13995.90931097443899 
	5253.054614939114799 3488.181100436424003 13997.95459361444045 
	5253.05492195356328 3488.184158535421375 13999.12333728243721 
	5253.054973121859803 3488.184668210837572 13999.70771091954884 
	5253.054973121295006 3488.184668205216894 13999.99989773741072 
	5369.138109379864545 3476.530630834197382 13999.99989773741072 
	5369.138109375348904 3476.530630789230145 14002.33739228030936 
	5369.134834523108111 3476.498010753167364 14007.01238127723991 
	5369.115186775550683 3476.302304142226149 14016.36052074477266 
	5369.04643083384417 3475.617442312968251 14032.71010738648511 
	5368.850105088293276 3473.661887550792926 14056.0115184851602 
	5368.458251487009875 3469.75872562075665 14083.79693146089812 
	5367.729153255263554 3462.496348927195413 14120.49273336468468 
	5366.434339743672354 3449.599014850369713 14165.48629628438721 
	5364.286424438145332 3428.204133646228456 14217.39742362727156 
	5361.571437866649831 3401.160788399965895 14266.57465423751819 
	5358.32350888944984 3368.808928693920734 14312.39957611573845 
	5354.583489351573007 3331.555470187719038 14354.29600199126253 
	5350.553381082680971 3291.412505786133806 14390.34989607809439 
	5346.335138174385975 3249.395576311994773 14420.7097284430638 
	5342.015873875274337 3206.372396429410401 14445.67388323403611 
	5337.848624584833487 3164.863402438089452 14464.49781936677027 
	5333.927759466489078 3125.808583468848155 14478.23150315795647 
	5329.112904482391059 3077.848940866567773 14491.14879390157694 
	5322.938661396708085 3016.348751825506952 14500.46574407479784 
	5315.445809741670928 2941.714211712983342 14500.46578494110872 
	5309.271561617719271 2880.213972486887087 14491.14907724559271 
	5304.456704325889405 2832.254306898003506 14478.23175746677589 
	5300.927931271403395 2797.105025128100806 14465.87137193483431 
	5298.072422737240231 2768.661973530903197 14453.3990238192273 
	5295.848657655834359 2746.51157047879542 14442.16073567347485 
	5293.668416221629741 2724.794696280934204 14430.09797910770976 
	5291.030478441414743 2698.518815997156253 14413.50475712211301 
	5288.022440036640546 2668.556450089446571 14391.28043092782355 
	5285.661014593563777 2645.034844422059905 14370.93654053112732 
	5283.866940516807517 2627.164492810846696 14353.63573307917795 
	5282.570790728549582 2614.253848397077491 14340.16556087195386 
	5281.325849853466934 2601.853283971603105 14326.21967422129455 
	5279.736574825208663 2586.022887707661994 14307.01666152631151 
	5277.146381398364611 2560.222577743539205 14271.88578491365297 
	5275.169085209839068 2540.527193597298719 14237.60171975978301 
	5273.746913828195829 2526.361277612789308 14207.55945402363977 
	5273.073329399392605 2519.651860906713864 14192.36329984119766 
	5271.935549294097655 2508.318699806367931 14163.34215253505681 
	5270.710475127675636 2496.116023012006735 14123.58352609576832 
	5269.969305475706278 2488.733405730000868 14086.879494321327 
	5269.628812885888692 2485.341838804245072 14062.17835645076775 
	5269.489369657153475 2483.952877467834242 14049.78914758059182 
	5269.398913396799799 2483.051863848109861 14039.43900895537809 
	5269.342037388081735 2482.485335248646152 14031.14728682880741 
	5269.179059071014308 2480.861946410529981 14002.10365183398972 
	5269.267370648089127 2481.741597342529531 13966.69382295174182 
	5269.835425355034204 2487.399857209873062 13921.32346563371721 
	5270.453196926167038 2493.553335115025675 13888.63584290427025 
	5271.420814504437658 2503.191547144868309 13852.484898808254 
	5272.655608400616075 2515.491039890415323 13817.15924845038353 
	5274.648818883783861 2535.344942597638237 13771.42070780641916 
	5277.770733464835757 2566.441602421440166 13717.28695511752085 
	5281.404325320159842 2602.634959712311229 13671.67480788744069 
	5284.013793862961393 2628.627264591181302 13644.89396492711057 
	5285.216878070148596 2640.610904552797365 13633.43601598640998 
	5287.063753138641914 2659.007194473892923 13616.70489435432137 
	5289.988263973778885 2688.137561827037189 13593.35744145958233 
	5293.82872173949454 2726.391461992279801 13568.52626061090814 
	5297.50131170205168 2762.973270293846781 13549.09546477324511 
	5300.927920177574379 2797.104914624962476 13534.12883981796767 
	5304.456687855276869 2832.254142837933159 13521.76808126817014 
	5308.669705016625812 2874.219019869990916 13510.46652279724549 
	5313.588307910034018 2923.212071093369559 13502.10028185987903 
	5319.192224510918095 2979.031371620369555 13498.94995972503966 
	5324.796126544868457 3034.850527049287848 13502.10036100936486 
	5329.714746332994764 3083.843746557188297 13510.4665144245846 
	5333.927738976999535 3125.808379377632718 13521.76844956445893 
	5338.632818755513654 3172.674576872083435 13538.2483864722999 
	5343.133354159353985 3217.503355765620199 13559.94460777553104 
	5346.826398057827646 3254.288900931501757 13583.17657420608703 
	5348.858017485650635 3274.525386139024249 13597.60708614275609 
	5351.328397197810773 3299.132259757805514 13616.58331717397414 
	5354.58349636607727 3331.555540056615882 13645.70359367318088 
	5358.323508695691089 3368.808926763216732 13687.6001549226421 
	5361.57144796081775 3401.160888944370072 13733.42498574477395 
	5364.286424081316 3428.204130089921364 13782.60233478109512 
	5366.434345066222704 3449.599067864978679 13834.51339262075635 
	5367.988147009614295 3465.076125042768581 13888.50571330033381 
	5368.771601698023005 3472.879933669752063 13934.66767335601617 
	5369.046426787886048 3475.617402012084767 13967.28969149664954 
	5369.11518773042917 3476.302313653533929 13983.63927338041685 
	5369.132378444615824 3476.473546330644695 13991.8188969149669 
	5369.136676697870826 3476.51636022445291 13995.90931097443899 
	5369.137751197684338 3476.527063065404491 13997.95459361444045 
	5369.138058212132819 3476.530121164401862 13999.12333728243721 
	5369.138109380429341 3476.530630839818059 13999.70771091954884 
	5369.138109379864545 3476.530630834197382 13999.99989773741072 
	5485.221245638344044 3464.876593463187874 13999.99989773741072 
	5485.221245633829312 3464.876593418220182 14002.33739228030936 
	5485.217970781588519 3464.843973382157401 14007.01238127723991 
	5485.198323034031091 3464.648266771215731 14016.36052074477266 
	5485.129567092326397 3463.963404941958288 14032.71010738648511 
	5484.933241346779141 3462.007850179782508 14056.0115184851602 
	5484.541387745500288 3458.104688249744868 14083.79693146089812 
	5483.812289513757605 3450.842311556183176 14120.49273336468468 
	5482.517476002180047 3437.944977479356567 14165.48629628438721 
	5480.369560696663029 3416.550096275213036 14217.39742362727156 
	5477.654574125178442 3389.506751028950021 14266.57465423751819 
	5474.406645147989366 3357.154891322904405 14312.39957611573845 
	5470.666625610116171 3319.901432816701799 14354.29600199126253 
	5466.636517341226863 3279.758468415117022 14390.34989607809439 
	5462.418274432938233 3237.741538940977534 14420.7097284430638 
	5458.099010133827505 3194.718359058393162 14445.67388323403611 
	5453.931760843387565 3153.209365067072213 14464.49781936677027 
	5450.010895725044975 3114.154546097830462 14478.23150315795647 
	5445.196040740947865 3066.194903495550079 14491.14879390157694 
	5439.02179765526671 3004.694714454489713 14500.46574407479784 
	5431.528946000229553 2930.060174341965649 14500.46578494110872 
	5425.354697876279715 2868.559935115869393 14491.14907724559271 
	5420.539840584448939 2820.600269526985358 14478.23175746677589 
	5417.011067529964748 2785.450987757082657 14465.87137193483431 
	5414.155558995800675 2757.007936159884594 14453.3990238192273 
	5411.931793914395712 2734.857533107776362 14442.16073567347485 
	5409.751552480191094 2713.140658909914691 14430.09797910770976 
	5407.113614699977006 2686.864778626136285 14413.50475712211301 
	5404.105576295202809 2656.902412718427058 14391.28043092782355 
	5401.744150852127859 2633.380807051039483 14370.93654053112732 
	5399.95007677537069 2615.510455439826728 14353.63573307917795 
	5398.653926987113664 2602.599811026057068 14340.16556087195386 
	5397.408986112031016 2590.199246600583137 14326.21967422129455 
	5395.819711083773655 2574.368850336642481 14307.01666152631151 
	5393.229517656931421 2548.568540372519692 14271.88578491365297 
	5391.252221468404969 2528.873156226279207 14237.60171975978301 
	5389.83005008676264 2514.707240241769796 14207.55945402363977 
	5389.156465657959416 2507.997823535694351 14192.36329984119766 
	5388.018685552665374 2496.664662435347964 14163.34215253505681 
	5386.793611386242446 2484.461985640986768 14123.58352609576832 
	5386.052441734274908 2477.079368358980901 14086.879494321327 
	5385.711949144456412 2473.687801433224649 14062.17835645076775 
	5385.572505915722104 2472.298840096814274 14049.78914758059182 
	5385.482049655368428 2471.397826477090348 14039.43900895537809 
	5385.425173646650364 2470.831297877626639 14031.14728682880741 
	5385.262195329583847 2469.207909039510923 14002.10365183398972 
	5385.350506906658666 2470.087559971510473 13966.69382295174182 
	5385.918561613604652 2475.745819838853549 13921.32346563371721 
	5386.536333184736577 2481.899297744006162 13888.63584290427025 
	5387.503950763006287 2491.537509773849251 13852.484898808254 
	5388.738744659184704 2503.83700251939581 13817.15924845038353 
	5390.73195514235249 2523.690905226618725 13771.42070780641916 
	5393.853869723401658 2554.787565050420653 13717.28695511752085 
	5397.487461578726652 2590.980922341291262 13671.67480788744069 
	5400.096930121527294 2616.973227220161789 13644.89396492711057 
	5401.300014328713587 2628.956867181777852 13633.43601598640998 
	5403.146889397207815 2647.353157102873411 13616.70489435432137 
	5406.071400232343876 2676.483524456018131 13593.35744145958233 
	5409.911857998059531 2714.737424621260288 13568.52626061090814 
	5413.584447960615762 2751.319232922827723 13549.09546477324511 
	5417.01105643613846 2785.450877253943418 13534.12883981796767 
	5420.53982411384095 2820.600105466914556 13521.76808126817014 
	5424.752841275189894 2862.564982498971858 13510.46652279724549 
	5429.671444168597191 2911.558033722350501 13502.10028185987903 
	5435.275360769480358 2967.377334249350952 13498.94995972503966 
	5440.87926280342981 3023.1964896782697 13502.10036100936486 
	5445.797882591555208 3072.189709186170603 13510.4665144245846 
	5450.010875235559979 3114.15434200661457 13521.76844956445893 
	5454.715955014072279 3161.020539501065286 13538.2483864722999 
	5459.21649041791261 3205.849318394602506 13559.94460777553104 
	5462.909534316385361 3242.634863560484519 13583.17657420608703 
	5464.941153744206531 3262.871348768007465 13597.60708614275609 
	5467.411533456368488 3287.478222386788275 13616.58331717397414 
	5470.666632624629528 3319.901502685599098 13645.70359367318088 
	5474.40664495423789 3357.154889392200857 13687.6001549226421 
	5477.654584219359094 3389.506851573354652 13733.42498574477395 
	5480.369560339850068 3416.550092718906399 13782.60233478109512 
	5482.517481324744949 3437.945030493965078 13834.51339262075635 
	5484.071283268120169 3453.422087671757708 13888.50571330033381 
	5484.854737956512508 3461.225896298742555 13934.66767335601617 
	5485.129563046368276 3463.963364641076623 13967.28969149664954 
	5485.198323988909578 3464.648276282524876 13983.63927338041685 
	5485.215514703096233 3464.819508959636096 13991.8188969149669 
	5485.219812956350324 3464.862322853443402 13995.90931097443899 
	5485.220887456164746 3464.873025694395437 13997.95459361444045 
	5485.221194470612318 3464.876083793392354 13999.12333728243721 
	5485.22124563890884 3464.876593468808551 13999.70771091954884 
	5485.221245638344044 3464.876593463187874 13999.99989773741072 
	5601.304381896914492 3453.222556092169725 13999.99989773741072 
	5601.304381892399761 3453.222556047202033 14002.33739228030936 
	5601.301107040158968 3453.189936011139253 14007.01238127723991 
	5601.281459292601539 3452.994229400197582 14016.36052074477266 
	5601.212703350895936 3452.30936757094014 14032.71010738648511 
	5601.016377605349589 3450.35381280876436 14056.0115184851602 
	5600.624524004069826 3446.450650878726719 14083.79693146089812 
	5599.895425772328053 3439.188274185165028 14120.49273336468468 
	5598.600612260749585 3426.290940108338418 14165.48629628438721 
	5596.452696955233478 3404.896058904194888 14217.39742362727156 
	5593.737710383747981 3377.852713657931872 14266.57465423751819 
	5590.489781406558905 3345.500853951886256 14312.39957611573845 
	5586.749761868685709 3308.247395445683651 14354.29600199126253 
	5582.719653599796402 3268.104431044098874 14390.34989607809439 
	5578.501410691507772 3226.087501569959386 14420.7097284430638 
	5574.182146392397044 3183.064321687375013 14445.67388323403611 
	5570.014897101957104 3141.555327696054064 14464.49781936677027 
	5566.094031983614514 3102.500508726812313 14478.23150315795647 
	5561.279176999517404 3054.540866124531931 14491.14879390157694 
	5555.104933913836248 2993.040677083471564 14500.46574407479784 
	5547.612082258799092 2918.4061369709475 14500.46578494110872 
	5541.437834134848345 2856.905897744851245 14491.14907724559271 
	5536.622976843018478 2808.946232155967209 14478.23175746677589 
	5533.094203788534287 2773.796950386064509 14465.87137193483431 
	5530.238695254370214 2745.353898788866445 14453.3990238192273 
	5528.014930172965251 2723.203495736758214 14442.16073567347485 
	5525.834688738760633 2701.486621538896543 14430.09797910770976 
	5523.196750958546545 2675.210741255118137 14413.50475712211301 
	5520.188712553772348 2645.24837534740891 14391.28043092782355 
	5517.827287110697398 2621.726769680021334 14370.93654053112732 
	5516.033213033940228 2603.85641806880858 14353.63573307917795 
	5514.737063245683203 2590.94577365503892 14340.16556087195386 
	5513.492122370600555 2578.545209229564989 14326.21967422129455 
	5511.902847342343193 2562.714812965624333 14307.01666152631151 
	5509.31265391550096 2536.914503001501544 14271.88578491365297 
	5507.335357726975417 2517.219118855261058 14237.60171975978301 
	5505.913186345332178 2503.053202870751647 14207.55945402363977 
	5505.239601916529864 2496.343786164676203 14192.36329984119766 
	5504.101821811234913 2485.010625064329815 14163.34215253505681 
	5502.876747644812895 2472.80794826996862 14123.58352609576832 
	5502.135577992844446 2465.425330987962752 14086.879494321327 
	5501.79508540302686 2462.033764062206501 14062.17835645076775 
	5501.655642174291643 2460.644802725796126 14049.78914758059182 
	5501.565185913938876 2459.7437891060722 14039.43900895537809 
	5501.508309905220813 2459.177260506608491 14031.14728682880741 
	5501.345331588154295 2457.553871668492775 14002.10365183398972 
	5501.433643165229114 2458.433522600492324 13966.69382295174182 
	5502.0016978721751 2464.091782467835401 13921.32346563371721 
	5502.619469443307025 2470.245260372988014 13888.63584290427025 
	5503.587087021576735 2479.883472402831103 13852.484898808254 
	5504.821880917755152 2492.182965148377662 13817.15924845038353 
	5506.815091400922938 2512.036867855600576 13771.42070780641916 
	5509.937005981973016 2543.133527679402505 13717.28695511752085 
	5513.5705978372971 2579.326884970273113 13671.67480788744069 
	5516.180066380097742 2605.31918984914364 13644.89396492711057 
	5517.383150587284945 2617.302829810759704 13633.43601598640998 
	5519.230025655778263 2635.699119731855262 13616.70489435432137 
	5522.154536490915234 2664.829487084999982 13593.35744145958233 
	5525.994994256630889 2703.08338725024214 13568.52626061090814 
	5529.66758421918712 2739.665195551809575 13549.09546477324511 
	5533.094192694709818 2773.796839882925269 13534.12883981796767 
	5536.622960372412308 2808.946068095896408 13521.76808126817014 
	5540.835977533761252 2850.91094512795371 13510.46652279724549 
	5545.754580427168548 2899.903996351332353 13502.10028185987903 
	5551.358497028051715 2955.723296878332803 13498.94995972503966 
	5556.962399062001168 3011.542452307251551 13502.10036100936486 
	5561.881018850126566 3060.535671815152455 13510.4665144245846 
	5566.094011494131337 3102.500304635596422 13521.76844956445893 
	5570.799091272643636 3149.366502130047138 13538.2483864722999 
	5575.299626676483967 3194.195281023584357 13559.94460777553104 
	5578.99267057495581 3230.98082618946637 13583.17657420608703 
	5581.024290002777889 3251.217311396989317 13597.60708614275609 
	5583.494669714938937 3275.824185015770126 13616.58331717397414 
	5586.749768883200886 3308.24746531458095 13645.70359367318088 
	5590.489781212808339 3345.500852021182709 13687.6001549226421 
	5593.737720477929543 3377.852814202336504 13733.42498574477395 
	5596.452696598420516 3404.89605534788825 13782.60233478109512 
	5598.600617583315397 3426.290993122946929 13834.51339262075635 
	5600.154419526690617 3441.76805030073956 13888.50571330033381 
	5600.937874215082957 3449.571858927724406 13934.66767335601617 
	5601.212699304938724 3452.309327270058475 13967.28969149664954 
	5601.281460247480027 3452.994238911506727 13983.63927338041685 
	5601.298650961666681 3453.165471588617947 13991.8188969149669 
	5601.302949214920773 3453.208285482425254 13995.90931097443899 
	5601.304023714735195 3453.218988323377289 13997.95459361444045 
	5601.304330729182766 3453.222046422374206 13999.12333728243721 
	5601.304381897479288 3453.222556097790402 13999.70771091954884 
	5601.304381896914492 3453.222556092169725 13999.99989773741072 
	0 
	
	0 
	0 
	85 0 0.002232142857142857019 0.004464285714285714038 0.008928571428571428076 0.01785714285714285615 0.02678571428571428423 0.0357142857142857123 0.05357142857142856845 0.07142857142857142461 0.08928571428571427382 0.1071428571428571369 0.125 0.1428571428571428492 0.1587301587301587213 0.1746031746031745935 0.1904761904761904656 0.2023809523809523836 0.2142857142857142738 0.238095238095238082 0.2619047619047618625 0.2857142857142856984 0.2976190476190476164 0.3095238095238095344 0.3214285714285713969 0.3273809523809523281 0.3333333333333333148 0.3452380952380952328 0.3571428571428570953 0.3690476190476190133 0.375 0.3809523809523809312 0.3869047619047618625 0.3928571428571428492 0.4047619047619047672 0.4285714285714285476 0.4305555555555555802 0.4365079365079365115 0.4444444444444444198 0.4603174603174602919 0.476190476190476164 0.4801587301587301182 0.4841269841269840724 0.4880952380952380265 0.4900793650793650036 0.4920634920634920362 0.5158730158730158166 0.5238095238095237249 0.5357142857142855874 0.5476190476190475609 0.5595238095238095344 0.5714285714285713969 0.5952380952380951218 0.6190476190476189577 0.6269841269841269771 0.6309523809523809312 0.6349206349206348854 0.650793650793650702 0.6666666666666666297 0.6785714285714286031 0.6904761904761904656 0.7023809523809523281 0.7142857142857141906 0.7321428571428569843 0.749999999999999889 0.7678571428571427937 0.7857142857142855874 0.7976190476190474499 0.8095238095238094234 0.8333333333333332593 0.8452380952380951218 0.851190476190476053 0.8571428571428570953 0.875 0.8928571428571427937 0.9107142857142856984 0.9285714285714286031 0.9464285714285713969 0.9642857142857143016 0.9821428571428572063 0.9910714285714286031 0.9955357142857143016 0.9977678571428572063 0.9988839285714286031 0.9994419642857143016 0.9997209821428572063 
	0 
	0 
	0 
	F 1 F 0 F 1 F 0 } I I I I #
tcoedge-coedge $-1 -1 $-1 $14 $14 $18 $19 reversed $9 $20 -6.283185307179586232 -0 #
tcoedge-coedge $-1 -1 $-1 $21 $22 $11 $16 reversed $12 $23 -6.283185307179586232 3.825710333124628369e-30 #
tedge-edge $-1 -1 $-1 $24 -3.825710333124628369e-30 $24 6.283185307179586232 $15 $25 forward @7 unknown 0.0006582612118740356144 #
pcurve $-1 -1 $-1 0 forward { exppc nurbs 2 periodic 5 
	-3.825710333124628369e-30 2 1.570796326794896558 2 3.141592653589793116 2 4.712388980384689674 2 6.283185307179586232 2 
	0 500.0000000000004547 1 
	-500 500.0000000000009095 0.7071067811865433539 
	-500 9.094947017729282379e-13 1 
	-500 -499.9999999999995453 0.7071067811865442421 
	0 -500 1 
	500 -500.0000000000004547 0.7071067811865433539 
	500 -4.54747350886464119e-13 1 
	500 499.9999999999995453 0.7071067811865442421 
	0 500.0000000000004547 1 
	0 
	plane 5551.358499392891645 2955.723320432814035 14000.00000000000909 0.9949983108038356061 -0.09989174889606428076 5.19711258164362649e-15 5.223237592679933738e-15 0 -1 forward_v I I I I 
	} 0 0 #
tcoedge-coedge $-1 -1 $-1 $22 $21 $14 $19 forward $12 $26 0 6.283185307179586232 #
tedge-edge $-1 -1 $-1 $27 0 $27 6.283185307179586232 $18 $28 forward @7 unknown 0.0006582612114218790731 #
pcurve $-1 -1 $-1 0 forward { exppc nurbs 2 periodic 5 
	-6.283185307179586232 2 -4.712388980384689674 2 -3.141592653589793116 2 -1.570796326794896558 2 0 2 
	0 499.9999999999995453 1 
	500 499.9999999999995453 0.7071067811865471286 
	500 0 1 
	500 -500 0.7071067811865471286 
	0 -500 1 
	-500 -500 0.7071067811865471286 
	-500 0 1 
	-500 499.9999999999995453 0.7071067811865471286 
	0 499.9999999999995453 1 
	0 
	plane 5203.109090617182119 2990.685432545871208 14000.00000000000909 -0.9949983108038356061 0.09989174889606429464 -0 0 0 -1 reverse_v I I I I 
	} 0 0 #
coedge $-1 -1 $-1 $18 $15 $22 $29 reversed $12 $30 #
coedge $-1 -1 $-1 $15 $18 $21 $29 forward $12 $31 #
pcurve $-1 -1 $-1 0 forward { exppc nubs 1 periodic 2 
	-6.283185307179586232 1 3.825710333124628369e-30 1 
	1 1 
	0 1 
	1.855369191616773638e-12 
	spline forward { ref 0 } I I I I 
	} 0 0 #
tvertex-vertex $-1 -1 $-1 $16 $32 0.0001302451416443617643 #
ellipse-curve $-1 -1 $-1 5551.358499392891645 2955.723320432814035 14000.00000000000909 0.9949983108038356061 -0.09989174889606428076 5.19711258164362649e-15 49.94587444803215703 497.4991554019177329 0 1 I I #
pcurve $-1 -1 $-1 0 forward { exppc nubs 1 periodic 2 
	0 1 6.283185307179586232 1 
	0 0 
	1 0 
	9.574602148858057419e-12 
	spline forward { ref 0 } I I I I 
	} 0 0 #
tvertex-vertex $-1 -1 $-1 $19 $33 0.0001302451413290430025 #
ellipse-curve $-1 -1 $-1 5203.109090617182119 2990.685432545871208 14000.00000000000909 0.9949983108038356061 -0.09989174889606429464 0 49.94587444803214282 497.4991554019177329 0 1 I I #
edge $-1 -1 $-1 $27 0 $24 1 $22 $34 forward @7 tangent #
pcurve $-1 -1 $-1 -1 $34 0 0 #
pcurve $-1 -1 $-1 1 $34 1 0 #
point $-1 -1 $-1 5601.3043738409242 3453.222475834731995 14000.00000000000909 #
point $-1 -1 $-1 5253.054965065214674 3488.184587947788714 14000.00000000000909 #
intcurve-curve $-1 -1 $-1 forward { parcur full nubs 3 open 2 
	0 3 1 3 
	5253.054973121295006 3488.184668205216894 13999.99989773741072 
	5369.138109379864545 3476.530630834197382 13999.99989773741072 
	5485.221245638344044 3464.876593463187874 13999.99989773741072 
	5601.304381896914492 3453.222556092169725 13999.99989773741072 
	0 
	
	spline forward { ref 0 } I I I I 
	null_surface 
	nubs 1 open 2 
	0 1 1 1 
	0 0 
	0 1 
	
	nullbs 
	I I 
	0 
	0 
	0 
	surf1 } F 0 F 1 #
End-of-ACIS-data 