700 0 1 0           
4 LibG 20 ASM 224.0.1.65535 NT 24 Wed Jul 17 15:51:17 2019 
1000 9.999999999999999547e-07 1.000000000000000036e-10 
body $-1 -1 $-1 $1 $-1 $2 #
lump $-1 -1 $-1 $-1 $3 $0 #
transform $-1 -1 1 0 0 0 1 0 0 0 1 0 0 0 1 no_rotate no_reflect no_shear #
shell $-1 -1 $-1 $-1 $-1 $4 $-1 $1 #
face $-1 -1 $-1 $5 $6 $3 $-1 $7 forward single #
face $-1 -1 $-1 $8 $9 $3 $-1 $10 reversed single #
loop $-1 -1 $-1 $-1 $11 $4 #
plane-surface $-1 -1 $-1 7544.016194073940824 2338.645979909212656 14000.00000000000364 0.877474438832389958 -0.479623403511319768 0 0 0 -1 forward_v I I I I #
face $-1 -1 $-1 $-1 $12 $3 $-1 $13 forward single #
loop $-1 -1 $-1 $-1 $14 $5 #
plane-surface $-1 -1 $-1 7221.66989828790247 2475.001638350870053 14000.00000000000364 0.9209894165464311833 -0.3895875955538937729 0 0 0 -1 forward_v I I I I #
tcoedge-coedge $-1 -1 $-1 $11 $11 $15 $16 forward $6 $17 0 6.283185307179586232 #
loop $-1 -1 $-1 $-1 $18 $8 #
spline-surface $-1 -1 $-1 forward { exactsur full nubs 3 3 periodic open none none 86 2 
	0 3 0.002232142857142857019 1 0.004464285714285714038 1 0.008928571428571428076 1 0.01785714285714285615 1 
	0.0357142857142857123 1 0.05357142857142856845 1 0.0625 1 0.07142857142857142461 1 0.08928571428571427382 1 
	0.1071428571428571369 1 0.125 1 0.1428571428571428492 1 0.1587301587301587213 1 0.1746031746031745935 1 
	0.1904761904761904656 1 0.2023809523809523836 1 0.2142857142857142738 1 0.238095238095238082 1 0.2619047619047618625 1 
	0.2857142857142856984 1 0.2976190476190476164 1 0.3095238095238095344 1 0.3214285714285713969 1 0.3273809523809523281 1 
	0.3333333333333333148 1 0.3452380952380952328 1 0.3571428571428570953 1 0.3690476190476190133 1 0.375 1 
	0.3809523809523809312 1 0.3928571428571428492 1 0.4047619047619047672 1 0.4166666666666666297 1 0.4285714285714285476 1 
	0.4444444444444444198 1 0.4603174603174602919 1 0.476190476190476164 1 0.4801587301587301182 1 0.4821428571428570953 1 
	0.4841269841269840724 1 0.4861111111111110494 1 0.4880952380952380265 1 0.4900793650793650036 1 0.4910714285714284921 1 
	0.4915674603174602364 1 0.491815476190476164 1 0.4920634920634920362 1 0.5158730158730158166 1 0.5238095238095237249 1 
	0.5357142857142855874 1 0.5476190476190475609 1 0.5595238095238095344 1 0.5714285714285713969 1 0.5952380952380951218 1 
	0.6190476190476189577 1 0.6349206349206348854 1 0.650793650793650702 1 0.6666666666666666297 1 0.6785714285714286031 1 
	0.6904761904761904656 1 0.7023809523809523281 1 0.7142857142857141906 1 0.7321428571428569843 1 0.749999999999999889 1 
	0.7678571428571427937 1 0.7857142857142855874 1 0.7976190476190474499 1 0.8095238095238094234 1 0.8333333333333332593 1 
	0.8452380952380951218 1 0.8571428571428570953 1 0.875 1 0.8928571428571427937 1 0.9107142857142856984 1 
	0.9285714285714286031 1 0.9464285714285713969 1 0.9642857142857143016 1 0.9821428571428572063 1 0.9910714285714286031 1 
	0.9955357142857143016 1 0.9977678571428572063 1 0.9988839285714286031 1 0.9994419642857143016 1 0.9997209821428572063 1 
	1 3 
	0 3 1 3 
	7416.463727802648464 2935.49642173690836 13999.99988146014948 
	7416.463727785456285 2935.496421696252582 14002.33737599671622 
	7416.45095450869394 2935.466225527368351 14007.01236473422614 
	7416.374329718704757 2935.285083669833512 14016.36050472200623 
	7416.106157110984896 2934.651120635989628 14032.71008780511693 
	7415.034290434748073 2932.117215866726838 14065.33208050914436 
	7411.978786615221907 2924.893970781900407 14111.49407415858514 
	7406.92866414110722 2912.955424975591995 14156.48751395717227 
	7401.730294104996574 2900.666420288260269 14191.44193278776038 
	7395.776851307510697 2886.592415180924036 14225.59355306695579 
	7386.952999375476793 2865.73273089184795 14266.57470633430057 
	7374.28567173985266 2835.787027219482297 14312.39945195817381 
	7359.699264780896556 2801.304598642164365 14354.29598488564989 
	7343.981462155415102 2764.147538112041275 14390.34991229412663 
	7327.529886080576944 2725.255828965980527 14420.70971114874737 
	7310.684336541342418 2685.432762167186411 14445.67389734842254 
	7294.431650214493857 2647.011230607067318 14464.49778656769013 
	7279.13989869623947 2610.861359641256513 14478.23158500044337 
	7260.361467357311085 2566.468938731654362 14491.14854806374569 
	7236.281342666330602 2509.543255667876565 14500.46604058615594 
	7207.058466573622354 2440.460050990467153 14500.4656656348634 
	7182.978312724825628 2383.534298996954021 14491.14874915991641 
	7164.199840490191491 2339.141781410117801 14478.23209902708368 
	7150.437304823268278 2306.606993755284748 14465.87138343029073 
	7139.30051564796122 2280.279500062062198 14453.39921745771608 
	7130.627614151388116 2259.776664293222893 14442.1608911285075 
	7122.124456648284649 2239.675105216340853 14430.09814522098168 
	7111.836220979091195 2215.353601465460997 14413.50494274175799 
	7100.104586820081749 2187.619887603413645 14391.28058256872828 
	7090.894771560623667 2165.847781716986447 14370.93674483237373 
	7083.897718691600858 2149.306670775687053 14353.63591485926918 
	7077.157527539136026 2133.372783794184215 14335.67576308051684 
	7069.231827641663585 2114.63634093082328 14312.03585054725772 
	7060.573470342179462 2094.16788780605566 14281.92291598195334 
	7052.816091361646613 2075.829357465813246 14250.2332929966542 
	7045.245871502994305 2057.933273374906548 14213.46785062462732 
	7038.319808414260478 2041.559983065008282 14171.29387983211382 
	7032.586391443903267 2028.006121467163894 14123.5834145190147 
	7029.695698528719731 2021.172491208124939 14086.87943481239381 
	7028.478412169422882 2018.294812692105097 14064.23671727552392 
	7028.095820311335046 2017.390361276865178 14055.98368667211253 
	7027.838966701280697 2016.783156480914158 14049.78521038291728 
	7027.612234244832507 2016.247158427691375 14043.57899788402756 
	7027.415663357460289 2015.782462659813746 14037.36601209239598 
	7027.277010372417863 2015.454685458348422 14032.18368462212129 
	7027.193175416116901 2015.256498687592966 14028.55393774232834 
	7027.154561299620582 2015.165214485969273 14026.73858755793481 
	7027.133444781023172 2015.115294800732727 14025.70111629357598 
	7026.631269261433772 2013.92814627738062 14000.28101221636643 
	7026.958069805669766 2014.700706405163828 13966.69374158850769 
	7029.173478760811122 2019.937957858537629 13921.32340059747548 
	7031.582852502137939 2025.633744227598072 13888.63574794366832 
	7035.356644918910206 2034.555031547333556 13852.48487453906091 
	7040.172438397287806 2045.939620986329146 13817.15916225928595 
	7047.946352316832417 2064.317240106814097 13771.42092702262198 
	7060.121999675776351 2093.100606121136479 13717.28687888988134 
	7076.318037941645343 2131.388221033091213 13665.15911906110523 
	7092.563837722161225 2169.793472720714362 13624.48756103585947 
	7107.771612951260067 2205.744822802529143 13593.35744800575048 
	7122.749817727287336 2241.153465775618315 13568.52639403651301 
	7137.07324610881642 2275.014210057350738 13549.09551293410914 
	7150.437362505356759 2306.607130117748511 13534.12891233296796 
	7164.199892345715853 2339.141903998873659 13521.76812910149056 
	7180.631068186910852 2377.985386759399717 13510.46656582860487 
	7199.814099062334208 2423.334285480371818 13502.10031342138973 
	7221.669911085110471 2475.001668615684594 13498.94997795792005 
	7243.525680759636089 2526.668951636886959 13502.10035317321308 
	7262.708768066526318 2572.017983763863413 13510.46652129189533 
	7279.13983512307459 2610.86120935628378 13521.76858270857338 
	7297.490118732984229 2654.241484263886832 13538.24841650093185 
	7315.042654401348045 2695.735874151139342 13559.9446338965754 
	7331.503505426621814 2734.649509378219591 13586.49528506018214 
	7345.190570840269174 2767.005884514396712 13612.4230045760396 
	7359.699282511805905 2801.304640561051201 13645.70376992311867 
	7374.285742924732403 2835.787195498714482 13687.60010196382973 
	7386.953003498756516 2865.732740635578466 13733.42502382268685 
	7397.54168507635768 2890.764501865123293 13782.6023248030051 
	7405.918782007408481 2910.568052353608437 13834.51340087413337 
	7411.978763579308179 2924.893916322438145 13888.50570198193236 
	7415.034311992262701 2932.117266828367519 13934.66766086244934 
	7416.106156844909492 2934.651120006988094 13967.289675670816 
	7416.374331131333747 2935.285087009387098 13983.63925729911352 
	7416.441376596255395 2935.443583235823098 13991.81888066923602 
	7416.458140191792154 2935.483212562547124 13995.90929470668016 
	7416.4623308529317 2935.493119332197239 13997.9545773394475 
	7416.463528227182906 2935.49594993828623 13999.12332100369167 
	7416.463727804798509 2935.496421741990162 13999.70769464307887 
	7416.463727802648464 2935.49642173690836 13999.99988146014948 
	7538.918461171487252 2882.792039248957281 13999.99988146014948 
	7538.918461641209433 2882.792038972972023 14002.33737599671622 
	7538.904702547783927 2882.762319256636147 14007.01236473422614 
	7538.822178149088359 2882.584028724004384 14016.36050472200623 
	7538.533341686089443 2881.960052685582468 14032.71008780511693 
	7537.378910954336789 2879.466051740334933 14065.33208050914436 
	7534.088022286719024 2872.356569908721212 14111.49407415858514 
	7528.648866940438893 2860.60604659198043 14156.48751395717227 
	7523.050033595697641 2848.510588809437195 14191.44193278776038 
	7516.637972883775547 2834.658237161749184 14225.59355306695579 
	7507.134371827501127 2814.127080695808218 14266.57470633430057 
	7493.491217704566225 2784.65300124508758 14312.39945195817381 
	7477.78114172072128 2750.713650290831538 14354.29598488564989 
	7460.852516245217885 2714.141789477684142 14390.34991229412663 
	7443.133591490085564 2675.862599404090815 14420.70971114874737 
	7424.99034386227595 2636.666719773212662 14445.67389734842254 
	7407.48562877479435 2598.85030305409191 14464.49778656769013 
	7391.015874288617852 2563.269769711379467 14478.23158500044337 
	7370.790845497679584 2519.576500142931764 14491.14854806374569 
	7344.855700530239119 2463.547362218477247 14500.46604058615594 
	7313.381639187478868 2395.552172167787376 14500.4656656348634 
	7287.446465611697022 2339.522965048031892 14491.14874915991641 
	7267.221395610438776 2295.829598954406265 14478.23209902708368 
	7252.398657590248149 2263.807215006735987 14465.87138343029073 
	7240.403947029839401 2237.894361119608675 14453.39921745771608 
	7231.062926764571785 2217.71443213629891 14442.1608911285075 
	7221.904727377132076 2197.929459689173655 14430.09814522098168 
	7210.823936691769632 2173.991003690606249 14413.50494274175799 
	7198.188555030293173 2146.694077739070508 14391.28058256872828 
	7188.269260019089415 2125.264868709862185 14370.93674483237373 
	7180.73318942035894 2108.984269058768405 14353.63591485926918 
	7173.473765557914703 2093.30133111982741 14335.67576308051684 
	7164.937509355295333 2074.859974673908255 14312.03585054725772 
	7155.612154402298074 2054.713886491338599 14281.92291598195334 
	7147.257184165619947 2036.664176463627427 14250.2332929966542 
	7139.103792226664154 2019.049943789990721 14213.46785062462732 
	7131.644177033804226 2002.934523192677261 14171.29387983211382 
	7125.469086236703333 1989.594125850484716 14123.5834145190147 
	7122.355705031894104 1982.868122503227596 14086.87943481239381 
	7121.044652438570665 1980.035761907672168 14064.23671727552392 
	7120.632584486523228 1979.145556508554819 14055.98368667211253 
	7120.355946007774037 1978.547913887252435 14049.78521038291728 
	7120.111745935537328 1978.020358063060485 14043.57899788402756 
	7119.900033408177478 1977.56298036275598 14037.36601209239598 
	7119.750697831541402 1977.240366137507408 14032.18368462212129 
	7119.660406547483944 1977.045299758125111 14028.55393774232834 
	7119.618815194452509 1976.955454477131298 14026.73858755793481 
	7119.59607578064697 1976.906319149256205 14025.70111629357598 
	7119.055183944527016 1975.737882510533609 14000.28101221636643 
	7119.407178948446017 1976.498265967984253 13966.69374158850769 
	7121.793246207278571 1981.6530369899574 13921.32340059747548 
	7124.388229526674877 1987.259116865163378 13888.63574794366832 
	7128.452733908726259 1996.039900923170762 13852.48487453906091 
	7133.639518754581331 2007.245187466417292 13817.15916225928595 
	7142.012287180014027 2025.333375736345488 13771.42092702262198 
	7155.125896883731002 2053.663417551603743 13717.28687888988134 
	7172.569595340512933 2091.348028984898974 13665.15911906110523 
	7190.066898276882057 2129.148419860235208 13624.48756103585947 
	7206.446200111156031 2164.533562393385637 13593.35744800575048 
	7222.578257642346216 2199.384539721379952 13568.52639403651301 
	7238.005091711050227 2232.711999802345872 13549.09551293410914 
	7252.398716717749267 2263.807350670620963 13534.12891233296796 
	7267.221445097024116 2295.829722688087713 13521.76812910149056 
	7284.918400229661529 2334.061444873487289 13510.46656582860487 
	7305.579198439278116 2378.69612761669714 13502.10031342138973 
	7329.118677623281656 2429.549781851689204 13498.94997795792005 
	7352.658109005406914 2480.403338608350168 13502.10035317321308 
	7373.318970396115219 2525.038151495419697 13510.46652129189533 
	7391.015807059704457 2563.26962119325708 13521.76858270857338 
	7410.779712995614318 2605.966681884122863 13538.24841650093185 
	7429.684401082960903 2646.807566419306568 13559.9446338965754 
	7447.413311449990942 2685.108339105932373 13586.49528506018214 
	7462.154767537666885 2716.95511936288176 13612.4230045760396 
	7477.781157689885731 2750.713693061182767 13645.70376992311867 
	7493.491290633467543 2784.653168681420993 13687.60010196382973 
	7507.134374178419421 2814.12709129613404 13733.42502382268685 
	7518.538759983665841 2838.764616586751345 13782.6023248030051 
	7527.561181528402813 2858.256276874882133 13834.51340087413337 
	7534.087997274375084 2872.356516404483045 13888.50570198193236 
	7537.37893370511847 2879.466102125260477 13934.66766086244934 
	7538.533340760952342 2881.96005237511099 13967.289675670816 
	7538.822180031947028 2882.58403183629207 13983.63925729911352 
	7538.894386724000469 2882.740033603149186 13991.81888066923602 
	7538.912443621754392 2882.779037867262559 13995.90929470668016 
	7538.916956325248066 2882.78878899144047 13997.9545773394475 
	7538.918245994826975 2882.791574990508707 13999.12332100369167 
	7538.918461112773002 2882.792039283455324 13999.70769464307887 
	7538.918461171487252 2882.792039248957281 13999.99988146014948 
	7661.37320154111967 2830.087653377359402 13999.99988146014948 
	7661.37320103303864 2830.087653573953958 14002.33737599671622 
	7661.358461599318616 2830.058407663395428 14007.01236473422614 
	7661.270028013138472 2829.88297308516303 14016.36050472200623 
	7660.960543115330438 2829.268976589337399 14032.71008780511693 
	7659.72352628740191 2826.814890120524979 14065.33208050914436 
	7656.197263797331289 2819.81916621336768 14111.49407415858514 
	7650.369063479297438 2808.25667123402809 14156.48751395717227 
	7644.369785220155791 2796.354751466210018 14191.44193278776038 
	7637.499087391928697 2782.724062558580044 14225.59355306695579 
	7627.315744507195632 2762.521430389680518 14266.57470633430057 
	7612.696755185271286 2733.518979371032856 14312.39945195817381 
	7595.863019429223641 2700.122701567959666 14354.29598488564989 
	7577.723570152980756 2664.136040931276966 14390.34991229412663 
	7558.737294230120824 2626.469371132355263 14420.70971114874737 
	7539.296344845703061 2587.900680442182875 14445.67389734842254 
	7520.539603252005691 2550.689377474484445 14464.49778656769013 
	7502.891847924305694 2515.678180727166364 14478.23158500044337 
	7481.220216628246817 2472.684064942083296 14491.14854806374569 
	7453.430064694081921 2417.551465724257469 14500.46604058615594 
	7419.704808568635599 2350.644294907484436 14500.4656656348634 
	7391.914620188620574 2295.511630282285296 14491.14874915991641 
	7370.242938860311369 2252.517422235725917 14478.23209902708368 
	7354.36000885293015 2221.007436985217282 14465.87138343029073 
	7341.507368635404418 2195.509226902112914 14453.39921745771608 
	7331.49823129638844 2175.65220388515263 14442.1608911285075 
	7321.684989824734657 2156.183818164386139 14430.09814522098168 
	7309.811642065438718 2132.628410912665458 14413.50494274175799 
	7296.272511077128911 2105.768273753371886 14391.28058256872828 
	7285.643737273385341 2084.681961117792525 14370.93674483237373 
	7277.568645237046439 2068.66187454896135 14353.63591485926918 
	7269.78999203443982 2053.22988402392366 14335.67576308051684 
	7260.643176176241468 2035.083615614734072 14312.03585054725772 
	7250.650823162033703 2015.259892571406226 14281.92291598195334 
	7241.69826304930848 1997.49900218921448 14250.23329299665602 
	7232.961696371557991 1980.166622217717531 14213.46785062463096 
	7224.968534613459269 1964.309068656003319 14171.29387983211745 
	7218.3517676878364 1951.182136681929933 14123.58341451902015 
	7215.015708239281594 1944.563755391206087 14086.87943481239927 
	7213.61086662912021 1941.77672372721895 14064.23671727553301 
	7213.169331809935102 1940.900759884832041 14055.9836866721198 
	7212.872902805126614 1940.312682172424729 14049.78521038292274 
	7212.611238863110884 1939.793566766789581 14043.5789978840312 
	7212.384381016697262 1939.343508912177867 14037.36601209240143 
	7212.224367165817057 1939.026055576538965 14032.18368462212493 
	7212.127613823827232 1938.834112357966433 14028.55393774233562 
	7212.083053011951961 1938.745702238585636 14026.73858755794026 
	7212.058679246497377 1938.69735680505687 14025.70111629358144 
	7211.479164555128591 1937.547586880428298 14000.28101221636825 
	7211.856296019290312 1938.295821699108501 13966.69374158850769 
	7214.413039705197662 1943.368103530514418 13921.3234005974773 
	7217.193623217816821 1948.884481447632425 13888.63574794366832 
	7221.548847580434995 1957.52475837006341 13852.48487453906091 
	7227.106605703626883 1968.550750760660094 13817.15916225928595 
	7236.078258819791699 1986.349493591470946 13771.42092702262198 
	7250.129802026330253 2014.226225147195464 13717.28687888988134 
	7268.821172454318912 2051.307827408325466 13665.15911906110523 
	7287.569961588205842 2088.503365667465005 13624.48756103585947 
	7305.120809613187703 2123.322291186115763 13593.35744800575048 
	7322.40670605734249 2157.6156095590527 13568.52639403651301 
	7338.936950796238307 2190.409783030921517 13549.09551293410914 
	7354.360078420379978 2221.007567603398456 13534.12891233296796 
	7370.243005069030005 2252.517537887476465 13521.76812910149056 
	7389.20573554182829 2290.1375014074315 13510.46656582860487 
	7411.344301641118363 2334.057967904411271 13502.10031342138973 
	7436.567443291598465 2384.097895508085003 13498.94997795792005 
	7461.790538260331232 2434.137725092066376 13502.10035317321308 
	7483.929167083206266 2478.058321954018538 13510.46652129189533 
	7502.891773315038336 2515.67803577602308 13521.76858270857338 
	7524.069284743961362 2557.691890385658553 13538.24841650093185 
	7544.326154259162649 2597.879255548565197 13559.9446338965754 
	7563.323137961908287 2635.56715893135015 13586.49528506018214 
	7579.118967810167305 2666.904352483463754 13612.4230045760396 
	7595.863043019850011 2700.12274065479869 13645.70376992311867 
	7612.696841077101453 2733.519140542290188 13687.60010196382973 
	7627.315751355406974 2762.521438816437239 13733.42502382268685 
	7639.535830492186506 2786.764733434292339 13782.6023248030051 
	7649.203595380777188 2805.944494469627898 13834.51340087413337 
	7656.197237413911353 2819.81911337178326 13888.50570198193236 
	7659.723551633655006 2826.814939251039959 13934.66766086244934 
	7660.960543446823976 2829.268975671525823 13967.289675670816 
	7661.27002928201 2829.882976494194736 13983.63925729911352 
	7661.347408090687168 2830.036478538498613 13991.81888066923602 
	7661.366752541937785 2830.074860518401238 13995.90929470668016 
	7661.371589645258609 2830.084454857721539 13997.9545773394475 
	7661.37297144387594 2830.087196330140159 13999.12332100369167 
	7661.373201604628775 2830.087653352784855 13999.70769464307887 
	7661.37320154111967 2830.087653377359402 13999.99988146014948 
	7783.82793490995482 2777.383270889407868 13999.99988146014948 
	7783.827934888789059 2777.383270850672943 14002.33737599671622 
	7783.812209638405875 2777.354501392662769 14007.01236473422614 
	7783.717876443518435 2777.181918139333447 14016.36050472200623 
	7783.387727690432257 2776.577908638929785 14032.71008780511693 
	7782.068146806987897 2774.163725994132619 14065.33208050914436 
	7778.306499468825677 2767.281765340188485 14111.49407415858514 
	7772.089266278625473 2755.90729285041607 14156.48751395717227 
	7765.68952471085413 2744.198919987386944 14191.44193278776038 
	7758.360208968189909 2730.789884539404738 14225.59355306695579 
	7747.497116959217237 2710.91578019364033 14266.57470633430057 
	7731.902301149981213 2682.384953396637684 14312.39945195817381 
	7713.944896369044727 2649.531753216626839 14354.29598488564989 
	7694.59462424278081 2614.130292296919833 14390.34991229412663 
	7674.340999639625807 2577.076141570465552 14420.70971114874737 
	7653.602352166633864 2539.134638048209126 14445.67389734842254 
	7633.593581812302546 2502.528449921509036 14464.49778656769013 
	7614.767823516681347 2468.086590797289318 14478.23158500044337 
	7591.649594768612587 2425.791626353360698 14491.14854806374569 
	7562.004422557987709 2371.55557227485815 14500.46604058615594 
	7526.027981182489384 2305.736416084804659 14500.4656656348634 
	7496.38277307548924 2251.500296333363167 14491.14874915991641 
	7473.264493980555017 2209.205239780014836 14478.23209902708368 
	7456.321361619907293 2178.207658236668976 14465.87138343029073 
	7442.610800017279871 2153.124087959659846 14453.39921745771608 
	7431.93354390956938 2133.589971728229102 14442.1608911285075 
	7421.465260553578446 2114.438172637219395 14430.09814522098168 
	7408.799357778114427 2091.265813137811165 14413.50494274175799 
	7394.356479287337606 2064.842463889029204 14391.28058256872828 
	7383.018225731848361 2044.099048110668718 14370.93674483237373 
	7374.404115965802703 2028.339472832043157 14353.63591485926918 
	7366.106230053215768 2013.158431349566854 14335.67576308051684 
	7356.348857889870487 1995.307249357819501 14312.03585054725772 
	7345.689507222149587 1975.80589125668962 14281.92291598195334 
	7336.139355853279085 1958.333821187029116 14250.23329299665602 
	7326.819617095225112 1941.283292632802159 14213.46785062463096 
	7318.292903233000288 1925.68360878367298 14171.29387983211745 
	7311.234462480633738 1912.77014106525121 14123.58341451902015 
	7307.675714742452328 1906.259386686309426 14086.87943481239927 
	7306.177106898266175 1903.517672942786476 14064.23671727553301 
	7305.706095985120555 1902.655955116522136 14055.9836866721198 
	7305.389882111617226 1902.077439578763688 14049.78521038292274 
	7305.110750553812977 1901.566766402159146 14043.5789978840312 
	7304.868751067411722 1901.124026615120783 14037.36601209240143 
	7304.698054624937868 1900.811736255698179 14032.18368462212493 
	7304.594844955191547 1900.622913428499032 14028.55393774233562 
	7304.547306906781159 1900.535942229748116 14026.73858755794026 
	7304.521310246118446 1900.488381153581031 14025.70111629358144 
	7303.903079238219107 1899.35732311358197 14000.28101221636825 
	7304.305405162063835 1900.09338126192938 13966.69374158850769 
	7307.032807151662382 1905.083182661934643 13921.3234005974773 
	7309.99900024235103 1910.509854085198185 13888.63574794366832 
	7314.644936570248319 1919.009627745901071 13852.48487453906091 
	7320.57368606091768 1929.856317240748695 13817.15916225928595 
	7330.14419368297149 1947.365629221002791 13771.42092702262198 
	7345.133699234281266 1974.78903657766341 13717.28687888988134 
	7365.072729853183773 2011.267635360133454 13665.15911906110523 
	7385.073022142923946 2047.858312806986305 13624.48756103585947 
	7403.795396773080938 2082.111030776972711 13593.35744800575048 
	7422.235145972398641 2115.846683504814791 13568.52639403651301 
	7439.868796398469385 2148.107572775916651 13549.09551293410914 
	7456.321432632769756 2178.207788156271363 13534.12891233296796 
	7473.26455782033554 2209.205356576690519 13521.76812910149056 
	7493.493067584576238 2246.213559521519528 13510.46656582860487 
	7517.109401018058634 2289.419810040736593 13502.10031342138973 
	7544.016209829766922 2338.646008744089613 13498.94997795792005 
	7570.922966506098419 2387.872112063529585 13502.10035317321308 
	7594.539369412792439 2431.078489685574823 13510.46652129189533 
	7614.767745251665474 2468.08644761299638 13521.76858270857338 
	7637.358879006588722 2509.417088005894129 13538.24841650093185 
	7658.96790094077187 2548.950947816732423 13559.9446338965754 
	7679.232943985274687 2586.025988659062932 13586.49528506018214 
	7696.083164507562287 2616.853587331948802 13612.4230045760396 
	7713.944918197927109 2649.531793154930256 13645.70376992311867 
	7731.902388785833864 2682.3851137249967 13687.60010196382973 
	7747.49712203506715 2710.915789476992359 13733.42502382268685 
	7760.532905399491028 2734.764848155919935 13782.6023248030051 
	7770.84599490176879 2753.632718990901139 13834.51340087413337 
	7778.306471108975529 2767.281713453827706 13888.50570198193236 
	7782.068173346508047 2774.163774547932462 13934.66766086244934 
	7783.387727362863188 2776.577908039648264 13967.289675670816 
	7783.717878182620552 2777.181921321099253 13983.63925729911352 
	7783.800418218429513 2777.332928905824247 13991.81888066923602 
	7783.821055971896385 2777.370685823116673 13995.90929470668016 
	7783.826215117572247 2777.380124516964315 13997.9545773394475 
	7783.827689211517281 2777.382821382362181 13999.12332100369167 
	7783.82793491259963 2777.383270894249563 13999.70769464307887 
	7783.82793490995482 2777.383270889407868 13999.99988146014948 
	0 
	
	0 
	0 
	85 0 0.002232142857142857019 0.004464285714285714038 0.008928571428571428076 0.01785714285714285615 0.0357142857142857123 0.05357142857142856845 0.0625 0.07142857142857142461 0.08928571428571427382 0.1071428571428571369 0.125 0.1428571428571428492 0.1587301587301587213 0.1746031746031745935 0.1904761904761904656 0.2023809523809523836 0.2142857142857142738 0.238095238095238082 0.2619047619047618625 0.2857142857142856984 0.2976190476190476164 0.3095238095238095344 0.3214285714285713969 0.3273809523809523281 0.3333333333333333148 0.3452380952380952328 0.3571428571428570953 0.3690476190476190133 0.375 0.3809523809523809312 0.3928571428571428492 0.4047619047619047672 0.4166666666666666297 0.4285714285714285476 0.4444444444444444198 0.4603174603174602919 0.476190476190476164 0.4801587301587301182 0.4821428571428570953 0.4841269841269840724 0.4861111111111110494 0.4880952380952380265 0.4900793650793650036 0.4910714285714284921 0.4915674603174602364 0.491815476190476164 0.4920634920634920362 0.5158730158730158166 0.5238095238095237249 0.5357142857142855874 0.5476190476190475609 0.5595238095238095344 0.5714285714285713969 0.5952380952380951218 0.6190476190476189577 0.6349206349206348854 0.650793650793650702 0.6666666666666666297 0.6785714285714286031 0.6904761904761904656 0.7023809523809523281 0.7142857142857141906 0.7321428571428569843 0.749999999999999889 0.7678571428571427937 0.7857142857142855874 0.7976190476190474499 0.8095238095238094234 0.8333333333333332593 0.8452380952380951218 0.8571428571428570953 0.875 0.8928571428571427937 0.9107142857142856984 0.9285714285714286031 0.9464285714285713969 0.9642857142857143016 0.9821428571428572063 0.9910714285714286031 0.9955357142857143016 0.9977678571428572063 0.9988839285714286031 0.9994419642857143016 0.9997209821428572063 
	0 
	0 
	0 
	F 1 F 0 F 1 F 0 } I I I I #
tcoedge-coedge $-1 -1 $-1 $14 $14 $18 $19 reversed $9 $20 -6.283185307179586232 -0 #
tcoedge-coedge $-1 -1 $-1 $21 $22 $11 $16 reversed $12 $23 -6.283185307179586232 -0 #
tedge-edge $-1 -1 $-1 $24 0 $24 6.283185307179586232 $15 $25 forward @7 unknown 0.0006476998647091125345 #
pcurve $-1 -1 $-1 0 forward { exppc nurbs 2 periodic 5 
	0 2 1.570796326794896558 2 3.141592653589793116 2 4.712388980384689674 2 6.283185307179586232 2 
	0 500 1 
	-500 500 0.7071067811865450192 
	-500 0 1 
	-500 -500 0.7071067811865459074 
	0 -500 1 
	500 -500 0.7071067811865471286 
	500 0 1 
	500 500 0.7071067811865450192 
	0 500 1 
	0 
	plane 7544.016194073940824 2338.645979909212656 14000.00000000000364 0.877474438832389958 -0.479623403511319768 0 0 0 -1 forward_v I I I I 
	} 0 0 #
tcoedge-coedge $-1 -1 $-1 $22 $21 $14 $19 forward $12 $26 0 6.283185307179586232 #
tedge-edge $-1 -1 $-1 $27 0 $27 6.283185307179586232 $18 $28 forward @7 unknown 0.0006476995621764408771 #
pcurve $-1 -1 $-1 0 forward { exppc nurbs 2 periodic 5 
	-6.283185307179586232 2 -4.712388980384689674 2 -3.141592653589793116 2 -1.570796326794896558 2 0 2 
	0 500 1 
	500 500 0.70710678118654402 
	500 0 1 
	500 -500 0.7071067811865463515 
	0 -500 1 
	-500 -500 0.70710678118654402 
	-500 0 1 
	-500 500 0.70710678118654402 
	0 500 1 
	0 
	plane 7221.66989828790247 2475.001638350870053 14000.00000000000364 -0.9209894165464311833 0.3895875955538937729 -0 0 0 -1 reverse_v I I I I 
	} 0 0 #
coedge $-1 -1 $-1 $18 $15 $22 $29 reversed $12 $30 #
coedge $-1 -1 $-1 $15 $18 $21 $29 forward $12 $31 #
pcurve $-1 -1 $-1 0 forward { exppc nubs 1 periodic 2 
	-6.283185307179586232 1 -0 1 
	1 1 
	0 1 
	1.039193400518844436e-11 
	spline forward { ref 0 } I I I I 
	} 0 0 #
tvertex-vertex $-1 -1 $-1 $16 $32 0.0001438762665429982063 #
ellipse-curve $-1 -1 $-1 7544.016194073940824 2338.645979909212656 14000.00000000000364 0.877474438832389958 -0.479623403511319768 0 239.8117017556599535 438.7372194161951029 0 1 I I #
pcurve $-1 -1 $-1 0 forward { exppc nubs 1 periodic 2 
	0 1 6.283185307179586232 1 
	0 0 
	1 0 
	9.651377329610277905e-12 
	spline forward { ref 0 } I I I I 
	} 0 0 #
tvertex-vertex $-1 -1 $-1 $19 $33 0.0001438781565225548528 #
ellipse-curve $-1 -1 $-1 7221.66989828790247 2475.001638350870053 14000.00000000000364 0.9209894165464311833 -0.3895875955538937729 0 194.7937977769469171 460.494708273215565 0 1 I I #
edge $-1 -1 $-1 $27 1.356581693062369829e-09 $24 0.9999999809853364896 $22 $34 forward @7 tangent #
pcurve $-1 -1 $-1 -1 $34 0 0 #
pcurve $-1 -1 $-1 1 $34 1 0 #
point $-1 -1 $-1 7783.827895829600493 2777.383199325407986 14000.00000000000364 #
point $-1 -1 $-1 7416.463696064849501 2935.496346624085618 14000.00000000000364 #
intcurve-curve $-1 -1 $-1 forward { parcur full nubs 3 open 2 
	0 3 1 3 
	7416.463727802648464 2935.49642173690836 13999.99988146014948 
	7538.918461171487252 2882.792039248957281 13999.99988146014948 
	7661.37320154111967 2830.087653377359402 13999.99988146014948 
	7783.82793490995482 2777.383270889407868 13999.99988146014948 
	0 
	
	spline forward { ref 0 } I I I I 
	null_surface 
	nubs 1 open 2 
	0 1 1 1 
	0 0 
	0 1 
	
	nullbs 
	I I 
	0 
	0 
	0 
	surf1 } F 1.356581693062369829e-09 F 0.9999999809853364896 #
End-of-ACIS-data 