700 0 1 0           
4 LibG 20 ASM 224.0.1.65535 NT 24 Wed Jul 17 15:51:17 2019 
1000 9.999999999999999547e-07 1.000000000000000036e-10 
body $-1 -1 $-1 $1 $-1 $2 #
lump $-1 -1 $-1 $-1 $3 $0 #
transform $-1 -1 1 0 0 0 1 0 0 0 1 0 0 0 1 no_rotate no_reflect no_shear #
shell $-1 -1 $-1 $-1 $-1 $4 $-1 $1 #
face $-1 -1 $-1 $5 $6 $3 $-1 $7 forward single #
face $-1 -1 $-1 $8 $9 $3 $-1 $10 reversed single #
loop $-1 -1 $-1 $-1 $11 $4 #
plane-surface $-1 -1 $-1 8868.787209537749732 1222.10700489987471 14000.00000000000909 0.539937016348183918 -0.841705422566007444 5.197112581643631223e-15 9.625405231139441361e-15 0 -1 forward_v I I I I #
face $-1 -1 $-1 $-1 $12 $3 $-1 $13 forward single #
loop $-1 -1 $-1 $-1 $14 $5 #
plane-surface $-1 -1 $-1 8651.331301464637363 1496.356759758718454 14000 0.6213025945046597442 -0.7835707281807930968 5.197112581643638323e-15 8.364865409562779976e-15 0 -1 forward_v I I I I #
tcoedge-coedge $-1 -1 $-1 $11 $11 $15 $16 forward $6 $17 -3.013300802900409611e-30 6.283185307179586232 #
loop $-1 -1 $-1 $-1 $18 $8 #
spline-surface $-1 -1 $-1 forward { exactsur full nubs 3 3 periodic open none none 85 2 
	0 3 0.002232142857142857019 1 0.004464285714285714038 1 0.008928571428571428076 1 0.01785714285714285615 1 
	0.0357142857142857123 1 0.05357142857142856845 1 0.0625 1 0.07142857142857142461 1 0.08928571428571427382 1 
	0.1071428571428571369 1 0.125 1 0.1428571428571428492 1 0.1587301587301587213 1 0.1746031746031745935 1 
	0.1904761904761904656 1 0.2023809523809523836 1 0.2142857142857142738 1 0.238095238095238082 1 0.2619047619047618625 1 
	0.2857142857142856984 1 0.3095238095238095344 1 0.3214285714285713969 1 0.3333333333333333148 1 0.3392857142857143016 1 
	0.3452380952380952328 1 0.3571428571428570953 1 0.3630952380952380265 1 0.3690476190476190133 1 0.375 1 
	0.3779761904761904656 1 0.3809523809523809312 1 0.4047619047619047672 1 0.4077380952380952328 1 0.4107142857142856984 1 
	0.4166666666666666297 1 0.4285714285714285476 1 0.4444444444444444198 1 0.4484126984126983739 1 0.4523809523809523281 1 
	0.4603174603174602919 1 0.4682539682539682557 1 0.476190476190476164 1 0.4920634920634920362 1 0.5079365079365079083 1 
	0.5238095238095237249 1 0.5476190476190475609 1 0.5595238095238095344 1 0.5714285714285713969 1 0.5833333333333332593 1 
	0.5952380952380951218 1 0.6071428571428569843 1 0.6190476190476189577 1 0.6349206349206348854 1 0.650793650793650702 1 
	0.6587301587301586103 1 0.6666666666666666297 1 0.6785714285714286031 1 0.6904761904761904656 1 0.7023809523809523281 1 
	0.7142857142857141906 1 0.7232142857142855874 1 0.7321428571428569843 1 0.7410714285714283811 1 0.749999999999999889 1 
	0.7678571428571427937 1 0.7857142857142855874 1 0.7976190476190474499 1 0.8095238095238094234 1 0.8333333333333332593 1 
	0.8571428571428570953 1 0.875 1 0.8928571428571427937 1 0.9107142857142856984 1 0.9285714285714286031 1 
	0.9464285714285713969 1 0.9642857142857143016 1 0.9821428571428572063 1 0.9910714285714286031 1 0.9955357142857143016 1 
	0.9977678571428572063 1 0.9988839285714286031 1 0.9994419642857143016 1 0.9997209821428572063 1 1 3 
	0 3 1 3 
	9043.116699596206672 1807.008084045638043 13999.99989897035448 
	9043.116699576414248 1807.008084029936981 14002.33739350289761 
	9043.09100907375614 1806.987713723230854 14007.01238220072264 
	9042.93689514309699 1806.865514945736777 14016.36052215996824 
	9042.39752505737124 1806.43784195839612 14032.7101051411446 
	9040.241701014978389 1804.728463309897506 14065.3320977411513 
	9034.096227398889823 1799.855643832173655 14111.49409156215916 
	9023.939011899157776 1791.801866272784309 14156.487532500827 
	9013.483623651634844 1783.51166398169471 14191.44195201712682 
	9001.509570197726134 1774.017293899814604 14225.59357285561055 
	8983.762319283459874 1759.945286555413077 14266.5747305091918 
	8958.284750000811982 1739.743817396140003 14312.39947846186806 
	8928.947376172796794 1716.481863084562292 14354.29602169983445 
	8897.334433071338935 1691.415582705730685 14390.3499457562757 
	8864.245681065174722 1665.17911580667942 14420.70976531006636 
	8830.364515829944139 1638.314334991539681 14445.67394138577583 
	8797.675762641169058 1612.395031937787508 14464.49779723104621 
	8766.919690647780953 1588.00817490001532 14478.23143770585193 
	8729.15104216380314 1558.060962158644088 14491.1487067588514 
	8680.719021424811217 1519.65863412302906 14500.46617496568433 
	8621.9437616042851 1473.055028211011404 14500.46540910890508 
	8563.824982720008848 1426.971953879248986 14489.28636980145166 
	8517.021907519714659 1389.861236227893869 14470.86112081476858 
	8481.183559285669617 1361.444581623322392 14450.90446172275915 
	8459.577132594080467 1344.312587689693828 14436.33154746123 
	8442.840375399355253 1331.041812895811518 14423.46087120268749 
	8426.492273592846686 1318.079207603928126 14409.80086355972344 
	8410.761851578932692 1305.606368001147985 14394.98463367677687 
	8395.715072642384257 1293.675597164407009 14379.07435046777027 
	8384.787463154096258 1285.010965009737447 14366.61152621743167 
	8375.991751980147455 1278.036740505932585 14355.79857011345302 
	8369.14902091955264 1272.61105727331892 14346.9008490679098 
	8352.37064288264628 1259.30728081633265 14324.25267709451327 
	8337.101689931727378 1247.200345548288851 14299.81751683830407 
	8323.533728649932527 1236.442146902809554 14273.90196914781518 
	8318.259188545100187 1232.259901019827566 14263.40823038054441 
	8309.434915216699665 1225.263029242468747 14244.71846864278268 
	8296.492805718939053 1215.001075955773786 14213.46793728194461 
	8286.36190652464029 1206.968164914332874 14182.79587170028935 
	8279.908863784856294 1201.851470208301862 14159.25988371199855 
	8275.914578490910571 1198.684353664669743 14143.43727534060235 
	8271.503693970640597 1195.186910615885154 14123.42991417494522 
	8267.154991734509167 1191.738772643299853 14099.11419482751626 
	8262.630067273157692 1188.150905962391562 14066.36475487773896 
	8259.383583297973018 1185.576730021092771 14024.96430016964223 
	8259.383948054452048 1185.577019240893378 13975.03583088082269 
	8263.927356946116561 1189.179542447565154 13917.07492135058055 
	8273.37291047027793 1196.669034716902615 13864.25992731590486 
	8286.288499013160617 1206.909959221488407 13817.15916000918514 
	8298.01530112261571 1216.208280756376553 13782.85569840231074 
	8311.718614517505557 1227.073801709946792 13749.76678869557691 
	8327.320883142559978 1239.445026959165943 13718.0771833656363 
	8344.735313776422117 1253.253137121594136 13687.96428425984777 
	8365.989633215243884 1270.105941006402418 13656.44430398071017 
	8391.662141669448829 1290.461979761674456 13624.48721976439629 
	8417.15174029987611 1310.67298713167088 13598.54593125139399 
	8438.681473007667591 1327.744169488695889 13579.81305516098109 
	8458.136648421464997 1343.170410575207143 13564.6402908921209 
	8481.183356483245007 1361.444420819406105 13549.09536006390408 
	8508.062426258034975 1382.757156464667105 13534.12892737718903 
	8535.742735042813365 1404.705204096518628 13521.76788670370843 
	8561.708901111194791 1425.294087483449857 13512.88855363916991 
	8585.670320891047595 1444.293383580203226 13506.80594903104429 
	8607.442177749442635 1461.55654906996665 13502.88322289723146 
	8629.352127682035643 1478.92921020859194 13500.52481632041963 
	8658.65761130687315 1502.165878392835566 13499.47511752319042 
	8695.28939469953184 1531.211657217508218 13502.1003011712819 
	8733.872003355223569 1561.804268706795938 13510.46652315971915 
	8766.919614016647756 1588.00811413942165 13521.76839730042229 
	8803.827094619942727 1617.272496576361618 13538.24840779513397 
	8847.956451179526994 1652.263190765322179 13565.36800076964573 
	8892.471265386009691 1687.559518930091599 13604.10246207404089 
	8928.947251358365975 1716.481764118882211 13645.70391124219896 
	8958.284936601199661 1739.743965354269449 13687.60003222315936 
	8983.762272570420464 1759.945249516658805 13733.42506268099169 
	9005.059219647600912 1776.831853369036935 13782.60228712530079 
	9021.907733691885369 1790.191241508741541 13834.51347356428778 
	9034.096178742165648 1799.855605252446139 13888.50571302868047 
	9040.241725396232141 1804.728482642526842 13934.66768640865666 
	9042.397523395298776 1806.437840640668583 13967.28969301134202 
	9042.936896959829028 1806.86551638633 13983.63927513901399 
	9043.071744968330677 1806.972438983910479 13991.81889818528725 
	9043.105461298411683 1806.999173065000377 13995.90931223103507 
	9043.113889929898505 1807.005856227641971 13997.95459485105312 
	9043.116298190143425 1807.007765765974455 13999.12333851491167 
	9043.116699598680498 1807.008084047600505 13999.70771215378772 
	9043.116699596206672 1807.008084045638043 13999.99989897035448 
	9125.2911180912688 1702.030569297555758 13999.9998989703563 
	9125.291118387682218 1702.030568839291163 14002.33739350289943 
	9125.264791356683418 1702.011089420496546 14007.01238220072446 
	9125.106868143302563 1701.894222132128561 14016.36052215997006 
	9124.554155733003427 1701.48522312190903 14032.71010514114641 
	9122.345021388957321 1699.850457809933459 14065.33209774115312 
	9116.047563506012011 1695.190356191554883 14111.49409156216097 
	9105.639155646476866 1687.488148581919177 14156.48753250082882 
	9094.925194586019643 1679.559845955778201 14191.44195201712864 
	9082.655018813902643 1670.479929994297208 14225.59357285561236 
	9064.468864659318569 1657.022213587190663 14266.57473050919361 
	9038.361219683107265 1637.702601185423191 14312.39947846186988 
	9008.298310563697669 1615.456109311232467 14354.29602169983627 
	8975.903558351117681 1591.484052459455825 14390.34994575627752 
	8941.996499357021094 1566.392891679010518 14420.70976531006818 
	8907.27743108082359 1540.700843705908255 14445.67394138577765 
	8873.780262989273979 1515.913001764149385 14464.49779723104803 
	8842.263572193758591 1492.590710202230412 14478.23143770585375 
	8803.560880187020302 1463.950788951017785 14491.14870675885322 
	8753.931099878707755 1427.224850563286282 14500.46617496568615 
	8693.702289481987464 1382.655640535900602 14500.4654091089069 
	8634.146194757524427 1338.584239879679444 14489.28636980145347 
	8586.185645724761343 1303.093527778808948 14470.8611208147704 
	8549.460994546547226 1275.917346737170647 14450.90446172276097 
	8527.320222918468062 1259.533224365477963 14436.33154746123182 
	8510.169557445142345 1246.84175744872914 14423.4608712026893 
	8493.417153886868618 1234.445014696072803 14409.80086355972526 
	8477.297710336684759 1222.516651374601224 14394.98463367677869 
	8461.878813195828116 1211.106698840189893 14379.07435046777209 
	8450.680958010567338 1202.820303771153704 14366.61152621743349 
	8441.667720365257992 1196.150530289132575 14355.79857011345484 
	8434.655767750478844 1190.96169030027022 14346.90084906791162 
	8417.462438524096797 1178.238681383139919 14324.25267709451509 
	8401.81587434037101 1166.660252484670309 14299.81751683830589 
	8387.912378321547294 1156.371669757164909 14273.901969147817 
	8382.507392453297143 1152.371996347828372 14263.40823038054623 
	8373.464890342798753 1145.680558549501484 14244.7184686427845 
	8360.202714341417959 1135.866571772150792 14213.46793728194643 
	8349.821265787044467 1128.184330735168032 14182.79587170029117 
	8343.208638369773325 1123.290991457180098 14159.25988371200037 
	8339.115570188545462 1120.262131884204109 14143.43727534060417 
	8334.595602642863014 1116.917361925448631 14123.42991417494704 
	8330.139352970843902 1113.619747824931892 14099.11419482751808 
	8325.502525443393097 1110.188501175605097 14066.36475487774078 
	8322.175749914133121 1107.726701652338761 14024.96430016964405 
	8322.176134105746314 1107.726963670637815 13975.03583088082451 
	8326.831896327632421 1111.172236654049129 13917.07492135058237 
	8336.511047034111471 1118.3347852627046 13864.25992731590668 
	8349.746056835398122 1128.128646346033747 13817.15916000918696 
	8361.762859906893937 1137.021081237980979 13782.85569840231256 
	8375.805072540057154 1147.412277302594248 13749.76678869557873 
	8391.793191152990403 1159.24346518381094 13718.07718336563812 
	8409.638295141070557 1172.448802994322023 13687.96428425984959 
	8431.418245921275229 1188.565930903861044 13656.44430398071199 
	8457.725654702582688 1208.033360322957606 13624.48721976439811 
	8483.845624951067293 1227.362096758204643 13598.54593125139581 
	8505.907804133225 1243.688064649369608 13579.81305516098291 
	8525.844118306795281 1258.440901776740247 13564.64029089212272 
	8549.460787274623726 1275.917192188786885 13549.0953600639059 
	8577.004594892496243 1296.299557777114387 13534.12892737719085 
	8605.369456172280479 1317.289502676621169 13521.76788670371025 
	8631.977783092404934 1336.979614864629184 13512.88855363917173 
	8656.531784916189281 1355.149530483520948 13506.80594903104611 
	8678.842074497912108 1371.659103126616856 13502.88322289723328 
	8701.29387216096984 1388.273391759317747 13500.52481632042145 
	8731.324100354726397 1410.495704204884987 13499.47511752319224 
	8768.861812261120576 1438.273541431719877 13502.10030117128372 
	8808.39859521343169 1467.530686309760085 13510.46652315972096 
	8842.263494887631168 1492.59065038636254 13521.76839730042411 
	8880.083724016265478 1520.577545906736077 13538.24840779513579 
	8925.30442434730503 1554.040790474244886 13565.36800076964755 
	8970.920123240028261 1587.796315510574232 13604.10246207404271 
	9008.29817971227385 1615.456018794956435 13645.70391124220077 
	9038.361409971705143 1637.702743981515596 13687.60003222316118 
	9064.468815270121922 1657.022180293998645 13733.42506268099351 
	9086.292451816863831 1673.171627210177121 13782.60228712530261 
	9103.557640664905193 1685.947835431772319 13834.5134735642896 
	9116.047513857482045 1695.190318999963438 13888.50571302868229 
	9122.345046371327044 1699.850476301237222 13934.66768640865848 
	9124.554153729861355 1701.48522228154502 13967.28969301134384 
	9125.106870218689437 1701.894223210709242 13983.63927513901581 
	9125.245050817844458 1701.996481499511447 13991.81889818528907 
	9125.279602177344714 1702.022046869692986 13995.90931223103689 
	9125.288238763112531 1702.028438978593613 13997.95459485105494 
	9125.290706610991037 1702.030265117807403 13999.12333851491348 
	9125.291118054215985 1702.03056935483869 13999.70771215378954 
	9125.2911180912688 1702.030569297555758 13999.9998989703563 
	9207.465538895839927 1597.053051316823257 13999.99989897037449 
	9207.465538558373737 1597.053051745741868 14002.3373935029158 
	9207.438578553783373 1597.03445823961556 14007.01238220073901 
	9207.2768398821554 1596.922931083666072 14016.36052215998825 
	9206.710795165290619 1596.532592029326679 14032.71010514116279 
	9204.448336485995242 1594.972459695361977 14065.33209774117313 
	9197.998902040786561 1590.52506515298569 14111.49409156218098 
	9187.339294574703672 1583.174437635703953 14156.48753250084883 
	9176.366772776045764 1575.608017774671225 14191.44195201714683 
	9163.800462438390241 1566.942573075013343 14225.59357285562874 
	9145.175410386333169 1554.099140127353621 14266.57473050920999 
	9118.437684491662367 1535.661391795901181 14312.39947846188443 
	9087.649246957020296 1514.430352735218094 14354.29602169984901 
	9054.472684890120945 1491.552520450682778 14390.34994575629025 
	9019.747318552736033 1467.606666286215386 14420.70976531008273 
	8984.190344302181984 1443.08735526073815 14445.6739413857922 
	8949.884761417124537 1419.430974278049916 14464.49779723106076 
	8917.607453146812986 1397.173246334249598 14478.23143770586466 
	8877.970715898047274 1369.840618979496185 14491.14870675886414 
	8827.143185323462603 1334.791057219059667 14500.46617496569525 
	8765.460820883263295 1292.256247929143683 14500.46540910891599 
	8704.467408289479863 1250.196523788451714 14489.28636980146621 
	8655.349392275147693 1216.325807649521721 14470.86112081478313 
	8617.738427570651766 1190.390114981594024 14450.90446172277188 
	8595.063321395009552 1174.753849631448247 14436.33154746124637 
	8577.498738670399689 1162.641703150040939 14423.46087120270022 
	8560.342039935136199 1150.810813734530484 14409.80086355973617 
	8543.833567687897812 1139.426936716636192 14394.9846336767896 
	8528.042556046284517 1128.537797301048158 14379.07435046778119 
	8516.574450843732848 1120.629645364379257 14366.61152621744441 
	8507.343694570243315 1114.264311926790242 14355.79857011346394 
	8500.162509030689762 1109.312331096009302 14346.90084906792072 
	8482.554260440461803 1097.170045175441601 14324.25267709452419 
	8466.530084274258115 1086.120123695791108 14299.81751683831862 
	8452.291023287718417 1076.301199197264623 14273.90196914782609 
	8446.755600166412478 1072.484086350434154 14263.40823038055532 
	8437.49486496530335 1066.09808856134714 14244.7184686427936 
	8423.912620736864483 1056.732070705474598 14213.46793728195189 
	8413.280639036704088 1049.40047697935529 14182.79587170029663 
	8406.508416704584306 1044.730507457672957 14159.25988371200583 
	8402.316570207336554 1041.83989845739211 14143.43727534060963 
	8397.687516284164303 1038.647806280252553 14123.4299141749525 
	8393.123722484813698 1035.500711421128699 14099.11419482752171 
	8388.374987807766956 1032.226090518667661 14066.36475487774624 
	8384.967932185754762 1029.876651372113429 14024.9643001696495 
	8384.968304569121756 1029.876929917287498 13975.03583088082996 
	8389.736444809574095 1033.164918123521375 13917.07492135058783 
	8399.649185838345147 1040.00053267281146 13864.25992731591032 
	8413.203586713931145 1049.347372580695719 13817.1591600091906 
	8425.510422986752019 1057.8338757074564 13782.85569840231619 
	8439.891513631699127 1067.75077659179874 13749.76678869558236 
	8456.265496079800869 1079.041907724283192 13718.07718336564176 
	8474.541265128636951 1091.644484790445631 13687.96428425985505 
	8496.84685409859776 1107.025927139699434 13656.44430398071745 
	8523.789157461798823 1125.604755263638708 13624.48721976439992 
	8550.539509261128842 1144.051206862158324 13598.54593125140127 
	8573.134129833566476 1159.631967403175167 13579.81305516098655 
	8593.551585232351499 1173.711397120763195 13564.64029089212818 
	8617.738214191462248 1190.389968980965023 13549.09536006390954 
	8645.946758579717425 1209.84196601371309 13534.12892737719449 
	8674.996172865952758 1229.873807465049822 13521.7678867037157 
	8702.246660369986785 1248.665148828993324 13512.88855363917355 
	8727.393244218492327 1266.005683996909966 13506.80594903104975 
	8750.241966372175739 1281.761664005185139 13502.8832228972351 
	8773.235611996917214 1297.617579808347045 13500.52481632042145 
	8803.990584051967744 1318.825537505630336 13499.47511752319406 
	8842.434224901970083 1345.335432532968753 13502.10030117128554 
	8882.925180897187602 1373.257112554458445 13510.46652315972278 
	8917.60737150535715 1397.173192586117921 13521.76839730042775 
	8956.340344087031553 1423.882608289133486 13538.24840779513761 
	9002.652402937390434 1455.81838259400638 13565.36800076965483 
	9049.368976401028704 1488.033118659338697 13604.10246207404816 
	9087.649118919449393 1514.430258280651287 13645.70391124220623 
	9118.437881248139092 1535.661525539517015 13687.60003222317027 
	9145.175362883768685 1554.099104193619269 13733.4250626810026 
	9167.525683994757856 1569.511401039079601 13782.6022871253117 
	9185.207548510417837 1581.704428133475631 13834.51347356430051 
	9197.998850765987299 1590.525030237518649 13888.50571302869321 
	9204.448362075065234 1594.972477337526698 13934.66768640867122 
	9206.710793720985748 1596.532590406806548 13967.28969301135476 
	9207.276841575028811 1596.922932697613533 13983.63927513902854 
	9207.418361638901843 1597.020517056669405 13991.81889818529999 
	9207.45374442217144 1597.044918762428779 13995.90931223105144 
	9207.462590436563914 1597.051017754086615 13997.95459485106767 
	9207.465117782865491 1597.052760619041919 13999.12333851493349 
	9207.465538938022291 1597.053051263208545 13999.70771215380591 
	9207.465538895839927 1597.053051316823257 13999.99989897037449 
	9289.639957390902055 1492.075536568742564 13999.99989897037631 
	9289.639957369641706 1492.075536555097187 14002.33739350291762 
	9289.61236083671065 1492.057833936882616 14007.01238220074083 
	9289.446812882362792 1491.951638270058766 14016.36052215999007 
	9288.867425840922806 1491.579973192840725 14032.7101051411646 
	9286.551656859974173 1490.09445419539793 14065.33209774117495 
	9279.950238147910568 1485.859777512366691 14111.4940915621828 
	9269.03943832202458 1478.860719944837456 14156.48753250085065 
	9257.808343710434201 1471.656199748753124 14191.44195201714865 
	9244.945911054570388 1463.405209169493219 14225.59357285563055 
	9225.881955762195503 1451.176067159128479 14266.5747305092118 
	9198.514154173961288 1433.620175585180277 14312.39947846188625 
	9167.000181347926627 1413.404598961883949 14354.29602169985083 
	9133.041810169905148 1391.620990204402688 14390.34994575629207 
	9097.498136844587862 1368.8204421585408 14420.70976531008455 
	9061.103259553066891 1345.473863975100812 14445.67394138579402 
	9025.989261765234914 1322.9489441044052 14464.49779723106258 
	8992.951334692796081 1301.755781636458096 14478.23143770586648 
	8952.380553921269893 1275.730445771862833 14491.14870675886596 
	8900.355263777364598 1242.357273659310067 14500.46617496569706 
	8837.219348760972935 1201.856860254025605 14500.46540910891781 
	8774.788620327000899 1161.808809788875351 14489.28636980146803 
	8724.513130480199834 1129.558099200429979 14470.86112081478495 
	8686.015862831534832 1104.862880095435912 14450.9044617227737 
	8662.806411719402604 1089.974486307225789 14436.33154746124819 
	8644.827920716192239 1078.441647702952423 14423.46087120270204 
	8627.266920229163588 1067.17662082666925 14409.80086355973981 
	8610.369426445655336 1056.337220090083747 14394.98463367679324 
	8594.206296599732013 1045.968898976825585 14379.07435046778483 
	8582.467945700209384 1038.438984125790284 14366.61152621744804 
	8573.019662955357489 1032.378101709985231 14355.79857011346758 
	8565.669255861619604 1027.6629641229556 14346.90084906792436 
	8547.646056081915958 1016.10144574224455 14324.25267709452783 
	8531.244268682903567 1005.580030632168246 14299.81751683832226 
	8516.669672959336822 996.2307220516164534 14273.90196914782973 
	8511.003804074613072 992.5961816784312077 14263.40823038055896 
	8501.524840091404258 986.5156178683765802 14244.71846864279723 
	8487.622529359345208 977.5975665218488757 14213.46793728195553 
	8476.739998299110084 970.6166428001882878 14182.79587170030027 
	8469.808191289503156 966.1700287065491466 14159.25988371200947 
	8465.517561904973263 963.4176766769248843 14143.43727534061327 
	8460.779424956388539 960.3782575898146661 14123.42991417495614 
	8456.108083721148432 957.3816866027597143 14099.11419482752535 
	8451.247445978002361 954.2636857318808552 14066.36475487774987 
	8447.760098801914864 952.0266230033596457 14024.96430016965314 
	8447.760490620416022 952.0268743470331856 13975.0358308808336 
	8452.640984191088137 955.1576123300071686 13917.07492135059147 
	8462.78732240217505 961.6662832186163996 13864.25992731591396 
	8476.661144536165011 970.5660597052446974 13817.15916000919424 
	8489.257981771026607 978.6466761890652606 13782.85569840231983 
	8503.977971654247085 988.0892521844508565 13749.766788695586 
	8520.737804090225836 998.8403459489335319 13718.0771833656454 
	8539.444246493279934 1010.840150663179315 13687.96428425985869 
	8562.275466804623647 1025.485917037164199 13656.44430398072109 
	8589.852670494927224 1043.176135824928679 13624.48721976440356 
	8617.233393912312749 1060.740316488699364 13598.54593125140309 
	8640.360460959116608 1075.57586256385639 13579.81305516098837 
	8661.259055117674507 1088.981888322304258 13564.64029089213 
	8686.015644982833692 1104.862740350353988 13549.09536006391136 
	8714.888927214173236 1123.384367326168785 13534.12892737719631 
	8744.622893995412596 1142.45810604516123 13521.76788670371752 
	8772.515542351191471 1160.350676210181291 13512.88855363917537 
	8798.254708243626737 1176.861830900236782 13506.80594903105157 
	8821.641863120637936 1191.86421806184444 13502.88322289723692 
	8845.177356475844135 1206.961761359082175 13500.52481632042327 
	8876.657073099813715 1227.155363317688625 13499.47511752319588 
	8916.006642463551543 1252.397316747189961 13502.10030117128736 
	8957.451772755390266 1278.98353015743146 13510.4665231597246 
	8992.951252376335106 1301.755728833067678 13521.76839730042957 
	9032.596973483348847 1327.187657619516585 13538.24840779513943 
	9080.000376105163014 1357.595982302937273 13565.36800076965665 
	9127.817834255043635 1388.269915239829061 13604.10246207404998 
	9167.000047273351811 1413.40451295673256 13645.70391124220805 
	9198.514354618640937 1433.620304166769529 13687.60003222317209 
	9225.881905583466505 1451.176034970964793 13733.42506268100442 
	9248.758916164018956 1465.851174880224562 13782.60228712531352 
	9266.857455483435842 1477.461022056510501 13834.51347356430233 
	9279.950185881303696 1485.859743985039358 13888.50571302869503 
	9286.551683050158317 1490.094470996239352 13934.66768640867303 
	9288.867424055548327 1491.579972047685033 13967.28969301135658 
	9289.446814833889221 1491.951639521994366 13983.63927513903036 
	9289.591667488415624 1492.044559572271964 13991.8188981853018 
	9289.62788530110447 1492.067792567122751 13995.90931223105326 
	9289.63693926977794 1492.073600505039622 13997.95459485106949 
	9289.639526203713103 1492.075259970876232 13999.12333851493531 
	9289.639957393559598 1492.075536570448321 13999.70771215380773 
	9289.639957390902055 1492.075536568742564 13999.99989897037631 
	0 
	
	0 
	0 
	84 0 0.002232142857142857019 0.004464285714285714038 0.008928571428571428076 0.01785714285714285615 0.0357142857142857123 0.05357142857142856845 0.0625 0.07142857142857142461 0.08928571428571427382 0.1071428571428571369 0.125 0.1428571428571428492 0.1587301587301587213 0.1746031746031745935 0.1904761904761904656 0.2023809523809523836 0.2142857142857142738 0.238095238095238082 0.2619047619047618625 0.2857142857142856984 0.3095238095238095344 0.3214285714285713969 0.3333333333333333148 0.3392857142857143016 0.3452380952380952328 0.3571428571428570953 0.3630952380952380265 0.3690476190476190133 0.375 0.3779761904761904656 0.3809523809523809312 0.4047619047619047672 0.4077380952380952328 0.4107142857142856984 0.4166666666666666297 0.4285714285714285476 0.4444444444444444198 0.4484126984126983739 0.4523809523809523281 0.4603174603174602919 0.4682539682539682557 0.476190476190476164 0.4920634920634920362 0.5079365079365079083 0.5238095238095237249 0.5476190476190475609 0.5595238095238095344 0.5714285714285713969 0.5833333333333332593 0.5952380952380951218 0.6071428571428569843 0.6190476190476189577 0.6349206349206348854 0.650793650793650702 0.6587301587301586103 0.6666666666666666297 0.6785714285714286031 0.6904761904761904656 0.7023809523809523281 0.7142857142857141906 0.7232142857142855874 0.7321428571428569843 0.7410714285714283811 0.749999999999999889 0.7678571428571427937 0.7857142857142855874 0.7976190476190474499 0.8095238095238094234 0.8333333333333332593 0.8571428571428570953 0.875 0.8928571428571427937 0.9107142857142856984 0.9285714285714286031 0.9464285714285713969 0.9642857142857143016 0.9821428571428572063 0.9910714285714286031 0.9955357142857143016 0.9977678571428572063 0.9988839285714286031 0.9994419642857143016 0.9997209821428572063 
	0 
	0 
	0 
	F 1 F 0 F 1 F 0 } I I I I #
tcoedge-coedge $-1 -1 $-1 $14 $14 $18 $19 reversed $9 $20 -6.283185307179586232 1.258496217690983773e-29 #
tcoedge-coedge $-1 -1 $-1 $21 $22 $11 $16 reversed $12 $23 -6.283185307179586232 3.013300802900409611e-30 #
tedge-edge $-1 -1 $-1 $24 -3.013300802900409611e-30 $24 6.283185307179586232 $15 $25 forward @7 unknown 0.0006640309959315878743 #
pcurve $-1 -1 $-1 0 forward { exppc nurbs 2 periodic 5 
	-3.013300802900409611e-30 2 1.570796326794896558 2 3.141592653589793116 2 4.712388980384689674 2 6.283185307179586232 2 
	3.637978807091712952e-12 499.9999999999972715 1 
	-499.999999999996362 500.0000000000027285 0.707106781186543798 
	-500 2.728484105318784714e-12 1 
	-500.000000000003638 -499.999999999996362 0.707106781186549127 
	-3.637978807091712952e-12 -500.0000000000009095 1 
	499.999999999996362 -500.0000000000045475 0.7071067811865524577 
	500 -5.456968210637569427e-12 1 
	500.000000000003638 499.9999999999954525 0.707106781186548905 
	3.637978807091712952e-12 499.9999999999972715 1 
	0 
	plane 8868.787209537749732 1222.10700489987471 14000.00000000000909 0.539937016348183918 -0.841705422566007444 5.197112581643631223e-15 9.625405231139441361e-15 0 -1 forward_v I I I I 
	} 0 0 #
tcoedge-coedge $-1 -1 $-1 $22 $21 $14 $19 forward $12 $26 -1.258496217690983773e-29 6.283185307179586232 #
tedge-edge $-1 -1 $-1 $27 -1.258496217690983773e-29 $27 6.283185307179586232 $18 $28 forward @7 unknown 0.0006640310324052943079 #
pcurve $-1 -1 $-1 0 forward { exppc nurbs 2 periodic 5 
	-6.283185307179586232 2 -4.712388980384689674 2 -3.141592653589793116 2 -1.570796326794896558 2 1.258496217690983773e-29 2 
	3.637978807091712952e-12 499.9999999999972715 1 
	500.000000000003638 499.9999999999972715 0.7071067811865446862 
	500 -3.637978807091712952e-12 1 
	499.999999999996362 -500.000000000003638 0.707106781186549016 
	-3.637978807091712952e-12 -499.9999999999990905 1 
	-500.000000000003638 -499.9999999999972715 0.7071067811865446862 
	-500 1.818989403545856476e-12 1 
	-499.999999999996362 500.0000000000027285 0.7071067811865481278 
	3.637978807091712952e-12 499.9999999999972715 1 
	0 
	plane 8651.331301464637363 1496.356759758718454 14000 -0.6213025945046597442 0.7835707281807930968 -5.197112581643638323e-15 8.364865409562779976e-15 0 -1 reverse_v I I I I 
	} 0 0 #
coedge $-1 -1 $-1 $18 $15 $22 $29 reversed $12 $30 #
coedge $-1 -1 $-1 $15 $18 $21 $29 forward $12 $31 #
pcurve $-1 -1 $-1 0 forward { exppc nubs 1 periodic 2 
	-6.283185307179586232 1 3.013300802900409611e-30 1 
	1 1 
	0 1 
	1.892975769853217466e-12 
	spline forward { ref 0 } I I I I 
	} 0 0 #
tvertex-vertex $-1 -1 $-1 $16 $32 0.0001099834951671629902 #
ellipse-curve $-1 -1 $-1 8868.787209537749732 1222.10700489987471 14000.00000000000909 0.539937016348183918 -0.841705422566007444 5.197112581643631223e-15 420.8527112830036003 269.9685081740920509 1.118846118624750906e-42 1 I I #
pcurve $-1 -1 $-1 0 forward { exppc nubs 1 periodic 2 
	-1.258496217690983773e-29 1 6.283185307179586232 1 
	9.61360519416755478e-30 0 
	1 0 
	6.588688582583223355e-12 
	spline forward { ref 0 } I I I I 
	} 0 0 #
tvertex-vertex $-1 -1 $-1 $19 $33 0.0001099848258444262468 #
ellipse-curve $-1 -1 $-1 8651.331301464637363 1496.356759758718454 14000 0.6213025945046597442 -0.7835707281807930968 5.197112581643638323e-15 391.7853640903965697 310.6512972523298117 0 1 I I #
edge $-1 -1 $-1 $27 7.635332287876125067e-10 $24 0.9999999898964703204 $22 $34 forward @7 tangent #
pcurve $-1 -1 $-1 -1 $34 0 0 #
pcurve $-1 -1 $-1 1 $34 1 0 #
point $-1 -1 $-1 9289.639920820753105 1492.075513073966249 14000.00000000000909 #
point $-1 -1 $-1 9043.11666555503507 1807.00805701104764 14000 #
intcurve-curve $-1 -1 $-1 forward { parcur full nubs 3 open 2 
	0 3 1 3 
	9043.116699596206672 1807.008084045638043 13999.99989897035448 
	9125.2911180912688 1702.030569297555758 13999.9998989703563 
	9207.465538895839927 1597.053051316823257 13999.99989897037449 
	9289.639957390902055 1492.075536568742564 13999.99989897037631 
	0 
	
	spline forward { ref 0 } I I I I 
	null_surface 
	nubs 1 open 2 
	0 1 1 1 
	0 0 
	0 1 
	
	nullbs 
	I I 
	0 
	0 
	0 
	surf1 } F 7.635332287876125067e-10 F 0.9999999898964703204 #
End-of-ACIS-data 