700 0 1 0           
4 LibG 20 ASM 224.0.1.65535 NT 24 Wed Jul 17 15:51:17 2019 
1000 9.999999999999999547e-07 1.000000000000000036e-10 
body $-1 -1 $-1 $1 $-1 $2 #
lump $-1 -1 $-1 $-1 $3 $0 #
transform $-1 -1 1 0 0 0 1 0 0 0 1 0 0 0 1 no_rotate no_reflect no_shear #
shell $-1 -1 $-1 $-1 $-1 $4 $-1 $1 #
face $-1 -1 $-1 $5 $6 $3 $-1 $7 forward single #
face $-1 -1 $-1 $8 $9 $3 $-1 $10 reversed single #
loop $-1 -1 $-1 $-1 $11 $4 #
plane-surface $-1 -1 $-1 2758.360864512888838 3095.595445253301477 14000 0.9999999998569973902 -1.691169161366488208e-05 -1.933810684302376152e-50 -1.933810684578916046e-50 0 -1 forward_v I I I I #
face $-1 -1 $-1 $-1 $12 $3 $-1 $13 forward single #
loop $-1 -1 $-1 $-1 $14 $5 #
plane-surface $-1 -1 $-1 2408.360864568599027 3095.601364345366164 14000.00000000000182 0.9999999998569973902 -1.691169161366488208e-05 -5.197112581643629645e-15 -5.197112582386830492e-15 0 -1 forward_v I I I I #
tcoedge-coedge $-1 -1 $-1 $11 $11 $15 $16 forward $6 $17 1.201869676623511346e-63 6.283185307179586232 #
loop $-1 -1 $-1 $-1 $18 $8 #
spline-surface $-1 -1 $-1 forward { exactsur full nubs 3 3 periodic open none none 85 2 
	0 3 0.002232142857142857019 1 0.004464285714285714038 1 0.008928571428571428076 1 0.01785714285714285615 1 
	0.0357142857142857123 1 0.05357142857142856845 1 0.0625 1 0.07142857142857142461 1 0.08928571428571427382 1 
	0.1071428571428571369 1 0.125 1 0.1428571428571428492 1 0.1587301587301587213 1 0.1746031746031745935 1 
	0.1904761904761904656 1 0.2023809523809523836 1 0.2142857142857142738 1 0.238095238095238082 1 0.2619047619047618625 1 
	0.2857142857142856984 1 0.3095238095238095344 1 0.3214285714285713969 1 0.3333333333333333148 1 0.3392857142857143016 1 
	0.3452380952380952328 1 0.3571428571428570953 1 0.3630952380952380265 1 0.3690476190476190133 1 0.375 1 
	0.3779761904761904656 1 0.3809523809523809312 1 0.4047619047619047672 1 0.4077380952380952328 1 0.4107142857142856984 1 
	0.4166666666666666297 1 0.4285714285714285476 1 0.4444444444444444198 1 0.4484126984126983739 1 0.4523809523809523281 1 
	0.4603174603174602919 1 0.4682539682539682557 1 0.476190476190476164 1 0.4920634920634920362 1 0.5079365079365079083 1 
	0.5238095238095237249 1 0.5476190476190475609 1 0.5595238095238095344 1 0.5714285714285713969 1 0.5833333333333332593 1 
	0.5952380952380951218 1 0.6071428571428569843 1 0.6190476190476189577 1 0.6349206349206348854 1 0.650793650793650702 1 
	0.6587301587301586103 1 0.6666666666666666297 1 0.6785714285714286031 1 0.6904761904761904656 1 0.7023809523809523281 1 
	0.7142857142857141906 1 0.7232142857142855874 1 0.7321428571428569843 1 0.7410714285714283811 1 0.749999999999999889 1 
	0.7678571428571427937 1 0.7857142857142855874 1 0.7976190476190474499 1 0.8095238095238094234 1 0.8333333333333332593 1 
	0.8571428571428570953 1 0.875 1 0.8928571428571427937 1 0.9107142857142856984 1 0.9285714285714286031 1 
	0.9464285714285713969 1 0.9642857142857143016 1 0.9821428571428572063 1 0.9910714285714286031 1 0.9955357142857143016 1 
	0.9977678571428572063 1 0.9988839285714286031 1 0.9994419642857143016 1 0.9997209821428572063 1 1 3 
	0 3 1 3 
	2408.36932042301396 3595.601407856545393 13999.99989894437567 
	2408.36932042301396 3595.601407831272809 14002.3373934768988 
	2408.369319868515959 3595.568621380784862 14007.01238217419996 
	2408.369316542275101 3595.371939798213589 14016.3605221329708 
	2408.369304901024407 3594.683590849826487 14032.71010511192253 
	2408.369258371838441 3591.932308842049679 14065.3320977048752 
	2408.369125733977853 3584.089400210590156 14111.49409150619795 
	2408.368906511381283 3571.126670564367487 14156.48753242906423 
	2408.368680853983278 3557.783410188407743 14191.44195194080567 
	2408.368422419512626 3542.502015638210196 14225.59357277556774 
	2408.368039382401093 3519.852814636898529 14266.57473041993944 
	2408.367489503198158 3487.33811191935456 14312.39947836809188 
	2408.366856318153168 3449.897491978966173 14354.29602160657669 
	2408.366174020575272 3409.552770104467072 14390.34994566357454 
	2408.365459870300583 3367.324607647012272 14420.7097652262255 
	2408.364728618044865 3324.085160316752535 14445.67394130503453 
	2408.364023101392831 3282.367479948366054 14464.49779715639488 
	2408.363359297421084 3243.116304680236226 14478.2314376580216 
	2408.362544142078605 3194.915616320681238 14491.14870673417863 
	2408.361498840801232 3133.106236533216816 14500.46617496902036 
	2408.360230302759646 3058.096722147990477 14500.46540916182676 
	2408.358975933552756 2983.925014624988307 14489.28636987987375 
	2408.357965789525679 2924.194509759048287 14470.86112091487121 
	2408.357192295644836 2878.457287909282968 14450.90446183674248 
	2408.356725967250895 2850.882972137091201 14436.33154758427736 
	2408.356364740264326 2829.523372306773126 14423.46087132872708 
	2408.356011901574675 2808.659777973374275 14409.80086368777665 
	2408.355672394161957 2788.584472137446937 14394.98463380847352 
	2408.355347641726894 2769.38163773648148 14379.07435060142052 
	2408.355111792730895 2755.435724376155576 14366.61152635193503 
	2408.354921956180078 2744.210558789451625 14355.79857024855301 
	2408.354774270520466 2735.477803961264271 14346.90084920319532 
	2408.354412145248716 2714.065087239849163 14324.25267722911667 
	2408.354082597632441 2694.578712362785609 14299.81751697418258 
	2408.353789762314591 2677.263158330789793 14273.901969284816 
	2408.353675922690854 2670.53174288285345 14263.40823051751249 
	2408.353485469694988 2659.270126017070197 14244.71846877975622 
	2408.353206142023282 2642.753289648990176 14213.46793741725742 
	2408.352987488299277 2629.824145115797364 14182.79587183316653 
	2408.352848213224206 2621.588714020587759 14159.25988384453922 
	2408.352762005151362 2616.491171258292979 14143.43727547280469 
	2408.352666805678382 2610.861960820524928 14123.42991430647635 
	2408.352572948276247 2605.312107968563396 14099.11419495753398 
	2408.352475287496418 2599.537358729932748 14066.36475500620145 
	2408.352405219111461 2595.394166699069501 14024.96430029228031 
	2408.352405226987685 2595.394632189046661 13975.03583100093419 
	2408.352503286724641 2601.192971393050357 13917.0749214667012 
	2408.35270714873559 2613.247471594215767 13864.2599274267086 
	2408.352985903992703 2629.73046166533959 13817.15916011789886 
	2408.353239001859038 2644.696311813557259 13782.85569850909997 
	2408.353534758474325 2662.184603417635117 13749.76678880123654 
	2408.353871499966772 2682.096358740320738 13718.07718347056834 
	2408.354247353088795 2704.320811493777455 13687.96428436459246 
	2408.35470608196556 2731.445764824356047 13656.44430408565859 
	2408.355260168004861 2764.209250651697403 13624.48721987076351 
	2408.355810306305557 2796.739305322581004 13598.54593135906907 
	2408.356274979369118 2824.21574354338145 13579.81305526840697 
	2408.356694877580594 2849.044613116178425 13564.64029099914296 
	2408.357192291345655 2878.457028906881078 13549.09536016927632 
	2408.357772418379227 2912.76033913104493 13534.12892748122431 
	2408.358369838491399 2948.08619777605918 13521.76788680460595 
	2408.358930262498234 2981.224452093622858 13512.88855373732258 
	2408.359447418343734 3011.804231194493696 13506.80594912714514 
	2408.359917317173313 3039.589670432754247 13502.88322299137326 
	2408.36039019645159 3067.551345292867154 13500.52481641207487 
	2408.361022692458846 3104.951266664531431 13499.47511761214082 
	2408.36181331108628 3151.701077599382188 13502.10030124894183 
	2408.362646034099271 3200.940549255222777 13510.4665232216812 
	2408.363359295966347 3243.116206761231297 13521.76839735113026 
	2408.364155864781424 3290.217864946165264 13538.24840783855143 
	2408.365108302396948 3346.536146088621535 13565.36800079044406 
	2408.366069059495203 3403.346351751097245 13604.10246206542433 
	2408.366856315669793 3449.897332623124385 13645.70391122216279 
	2408.367489507303162 3487.338350011983039 13687.60003218645215 
	2408.368039381493872 3519.852754984307012 13733.42506263863106 
	2408.368499031073497 3547.032110113698764 13782.60228707948409 
	2408.368862670870385 3568.534335059378009 13834.51347352060293 
	2408.369125733066085 3584.089338105401566 13888.50571298926116 
	2408.36925837244371 3591.932339955610587 13934.6676863777775 
	2408.369304901014402 3594.683588728222276 13967.28969298370976 
	2408.369316542327397 3595.371942116741138 13983.6392751125677 
	2408.369319452756827 3595.54403635659628 13991.8188981591702 
	2408.369320180457635 3595.587065439941853 13995.90931220502353 
	2408.369320362372946 3595.597822135162005 13997.95459482506521 
	2408.369320414349659 3595.60089557852325 13999.12333848893286 
	2408.36932042301396 3595.601407859704523 13999.70771212781074 
	2408.36932042301396 3595.601407856545393 13999.99989894437567 
	2525.035987071110412 3595.599434825857315 13999.99989894437567 
	2525.035987071110867 3595.599434800584731 14002.3373934768988 
	2525.035986516612411 3595.566648350096784 14007.01238217419996 
	2525.035983190372008 3595.369966767525511 14016.3605221329708 
	2525.035971549120859 3594.68161781913841 14032.71010511192253 
	2525.035925019935803 3591.930335811361601 14065.3320977048752 
	2525.035792382075215 3584.087427179902079 14111.49409150619795 
	2525.035573159479554 3571.124697533679409 14156.48753242906423 
	2525.035347502081549 3557.781437157719665 14191.44195194080567 
	2525.035089067611352 3542.500042607522118 14225.59357277556774 
	2525.034706030499819 3519.850841606210452 14266.57473041993944 
	2525.034156151297793 3487.336138888666483 14312.39947836809188 
	2525.033522966252804 3449.895518948278095 14354.29602160657669 
	2525.032840668675362 3409.550797073778995 14390.34994566357454 
	2525.032126518400673 3367.322634616324194 14420.7097652262255 
	2525.03139526614541 3324.083187286064458 14445.67394130503453 
	2525.030689749493376 3282.365506917677976 14464.49779715639488 
	2525.030025945521629 3243.114331649548149 14478.2314376580216 
	2525.029210790179604 3194.913643289993161 14491.14870673417863 
	2525.028165488901777 3133.104263502528738 14500.46617496902036 
	2525.026896950860646 3058.094749117302399 14500.46540916182676 
	2525.025642581653301 2983.92304159430023 14489.28636987987375 
	2525.024632437626678 2924.19253672836021 14470.86112091487121 
	2525.023858943745381 2878.455314878594891 14450.90446183674248 
	2525.02339261535144 2850.880999106403124 14436.33154758427736 
	2525.023031388364416 2829.521399276085049 14423.46087132872708 
	2525.022678549674765 2808.657804942686198 14409.80086368777665 
	2525.022339042261592 2788.58249910675886 14394.98463380847352 
	2525.022014289826984 2769.379664705793402 14379.07435060142052 
	2525.021778440830531 2755.433751345467499 14366.61152635193503 
	2525.021588604279714 2744.208585758763547 14355.79857024855301 
	2525.021440918620101 2735.475830930576194 14346.90084920319532 
	2525.021078793348352 2714.063114209161085 14324.25267722911667 
	2525.020749245731622 2694.576739332097532 14299.81751697418258 
	2525.020456410413772 2677.261185300101715 14273.901969284816 
	2525.02034257078958 2670.529769852165373 14263.40823051751249 
	2525.020152117793714 2659.26815298638212 14244.71846877975622 
	2525.019872790122008 2642.751316618302099 14213.46793741725742 
	2525.019654136397548 2629.822172085109287 14182.79587183316653 
	2525.019514861322023 2621.586740989899681 14159.25988384453922 
	2525.019428653249179 2616.489198227604902 14143.43727547280469 
	2525.019333453775744 2610.85998778983685 14123.42991430647635 
	2525.019239596374064 2605.310134937875318 14099.11419495753398 
	2525.019141935593325 2599.535385699244671 14066.36475500620145 
	2525.019071867208368 2595.392193668381424 14024.96430029228031 
	2525.019071875084137 2595.392659158358583 13975.03583100093419 
	2525.019169934820638 2601.190998362362279 13917.0749214667012 
	2525.019373796830678 2613.24549856352769 13864.2599274267086 
	2525.019652552087791 2629.728488634651512 13817.15916011789886 
	2525.019905649953671 2644.694338782869181 13782.85569850909997 
	2525.020201406568958 2662.182630386947039 13749.76678880123654 
	2525.02053814806095 2682.094385709632661 13718.07718347056834 
	2525.020914001182973 2704.318838463089378 13687.96428436459246 
	2525.021372730058829 2731.44379179366797 13656.44430408565859 
	2525.021926816098585 2764.207277621009325 13624.48721987076351 
	2525.022476954398371 2796.737332291892926 13598.54593135906907 
	2525.022941627461933 2824.213770512693372 13579.81305526840697 
	2525.023361525673408 2849.042640085490348 13564.64029099914296 
	2525.023858939438469 2878.455055876193001 13549.09536016927632 
	2525.024439066472041 2912.758366100356852 13534.12892748122431 
	2525.025036486583758 2948.084224745371102 13521.76788680460595 
	2525.025596910590593 2981.222479062934781 13512.88855373732258 
	2525.026114066436094 3011.802258163805618 13506.80594912714514 
	2525.026583965265672 3039.587697402066169 13502.88322299137326 
	2525.027056844543949 3067.549372262179077 13500.52481641207487 
	2525.027689340551206 3104.949293633843354 13499.47511761214082 
	2525.028479959178185 3151.699104568694111 13502.10030124894183 
	2525.02931268219163 3200.9385762245347 13510.4665232216812 
	2525.030025944058707 3243.114233730543219 13521.76839735113026 
	2525.030822512873783 3290.215891915477187 13538.24840783855143 
	2525.031774950490217 3346.534173057933458 13565.36800079044406 
	2525.032735707588017 3403.344378720409168 13604.10246206542433 
	2525.033522963763517 3449.895359592436307 13645.70391122216279 
	2525.034156155396886 3487.336376981294961 13687.60003218645215 
	2525.034706029588506 3519.850781953618934 13733.42506263863106 
	2525.035165679168131 3547.030137083010686 13782.60228707948409 
	2525.035529318965928 3568.532362028689931 13834.51347352060293 
	2525.035792381161627 3584.087365074713489 13888.50571298926116 
	2525.035925020539707 3591.930366924922509 13934.6676863777775 
	2525.035971549110855 3594.681615697534198 13967.28969298370976 
	2525.035983190423849 3595.369969086053061 13983.6392751125677 
	2525.035986100853279 3595.542063325908202 13991.8188981591702 
	2525.035986828554087 3595.585092409253775 13995.90931220502353 
	2525.035987010469398 3595.595849104473928 13997.95459482506521 
	2525.035987062446111 3595.598922547835173 13999.12333848893286 
	2525.035987071110412 3595.599434829016445 13999.70771212781074 
	2525.035987071110412 3595.599434825857315 13999.99989894437567 
	2641.702653720350099 3595.597461795169238 13999.99989894437385 
	2641.702653720350554 3595.597461769896654 14002.33739347689334 
	2641.70265316584846 3595.564675319408707 14007.01238217418904 
	2641.702649839603964 3595.367993736837434 14016.36052213296352 
	2641.702638198338718 3594.679644788449878 14032.71010511191344 
	2641.702591669101821 3591.928362780673524 14065.33209770486792 
	2641.702459031093895 3584.085454149214002 14111.49409150618339 
	2641.702239808365448 3571.122724502991787 14156.48753242905514 
	2641.702014150925152 3557.779464127032043 14191.44195194079475 
	2641.701755716419484 3542.498069576834951 14225.59357277555682 
	2641.701372679191536 3519.848868575523738 14266.57473041992853 
	2641.700822799904472 3487.334165857979315 14312.3994783680846 
	2641.700189614740339 3449.893545917589563 14354.29602160657123 
	2641.69950731714971 3409.548824043091372 14390.34994566357273 
	2641.6987931667868 3367.320661585635662 14420.70976522622186 
	2641.698061914521531 3324.081214255376381 14445.67394130502908 
	2641.697356397854946 3282.363533886989444 14464.49779715638761 
	2641.696692593853641 3243.112358618860071 14478.23143765801251 
	2641.695877438487514 3194.911670259304628 14491.14870673417136 
	2641.69483213719468 3133.102290471840206 14500.46617496901308 
	2641.693563599114441 3058.092776086614322 14500.46540916181948 
	2641.692309229883904 2983.921068563611243 14489.28636987986647 
	2641.691299085834999 2924.190563697671678 14470.86112091486575 
	2641.690525591940968 2878.453341847905904 14450.90446183673703 
	2641.690059263537478 2850.879026075714592 14436.3315475842719 
	2641.689698036547725 2829.519426245396517 14423.46087132872162 
	2641.689345197855346 2808.655831911997666 14409.80086368777302 
	2641.689005690438535 2788.580526076070328 14394.98463380846806 
	2641.688680938000289 2769.37769167510487 14379.07435060141506 
	2641.688445089002926 2755.431778314778512 14366.61152635193139 
	2641.68825525245029 2744.206612728075015 14355.79857024854573 
	2641.688107566790677 2735.473857899887207 14346.90084920318986 
	2641.687745441517109 2714.061141178471644 14324.25267722911121 
	2641.687415893893558 2694.57476630140809 14299.81751697417712 
	2641.687123058574343 2677.259212269411819 14273.90196928481419 
	2641.687009218950152 2670.527796821475476 14263.40823051750885 
	2641.686818765952921 2659.266179955692678 14244.7184687797544 
	2641.686539438276668 2642.749343587612202 14213.46793741725378 
	2641.68632078454948 2629.820199054419845 14182.79587183316107 
	2641.686181509473499 2621.584767959210239 14159.25988384453376 
	2641.686095301400655 2616.487225196915915 14143.43727547280105 
	2641.686000101927675 2610.858014759147864 14123.42991430647089 
	2641.68590624452554 2605.308161907186332 14099.11419495753034 
	2641.685808583745256 2599.533412668556139 14066.36475500619781 
	2641.685738515360299 2595.390220637692892 14024.96430029227849 
	2641.685738523236978 2595.390686127669596 13975.03583100093238 
	2641.685836582974844 2601.189025331673747 13917.07492146669574 
	2641.686040444988521 2613.243525532839158 13864.25992742670496 
	2641.686319200247453 2629.726515603963435 13817.15916011789159 
	2641.686572298117426 2644.692365752180649 13782.85569850909269 
	2641.686868054735442 2662.180657356258507 13749.76678880123109 
	2641.687204796232891 2682.092412678943674 13718.07718347056289 
	2641.687580649357642 2704.316865432400391 13687.964284364587 
	2641.688039378239864 2731.441818762978983 13656.44430408565495 
	2641.688593464287806 2764.205304590320793 13624.48721987076351 
	2641.689143602595777 2796.735359261203939 13598.54593135906907 
	2641.689608275661158 2824.21179748200484 13579.81305526840697 
	2641.690028173876726 2849.040667054801816 13564.64029099914296 
	2641.690525587650427 2878.453082845504923 13549.09536016927632 
	2641.691105714688092 2912.756393069668775 13534.12892748122431 
	2641.691703134812997 2948.082251714683025 13521.76788680460595 
	2641.692263558829836 2981.220506032246703 13512.88855373732258 
	2641.692780714682613 3011.800285133117541 13506.80594912714514 
	2641.693250613519012 3039.585724371378092 13502.88322299137326 
	2641.693723492805475 3067.547399231490999 13500.52481641207487 
	2641.694355988822736 3104.947320603155276 13499.47511761214082 
	2641.695146607485185 3151.697131538005578 13502.10030124894183 
	2641.695979330534556 3200.936603193846167 13510.4665232216812 
	2641.69669259242437 3243.112260699854687 13521.76839735113026 
	2641.697489161253543 3290.213918884788654 13538.24840783855143 
	2641.69844159889999 3346.532200027244926 13565.36800079044406 
	2641.699402356059636 3403.34240568972109 13604.10246206542433 
	2641.700189612284248 3449.89338656174823 13645.70391122216279 
	2641.700822804019026 3487.334403950606429 13687.60003218645215 
	2641.701372678296138 3519.848808922930857 13733.42506263863106 
	2641.701832327979446 3547.028164052322154 13782.60228707948227 
	2641.702195967892294 3568.530388998001399 13834.51347352059929 
	2641.702459030202135 3584.085392044025411 13888.50571298925934 
	2641.702591669718004 3591.928393894234432 13934.66768637777386 
	2641.702638198332806 3594.679642666845666 13967.28969298370794 
	2641.702649839658989 3595.367996055364983 13983.63927511256588 
	2641.702652750092057 3595.540090295218761 13991.81889815916838 
	2641.702653477793774 3595.583119378565243 13995.90931220501989 
	2641.702653659709085 3595.593876073784941 13997.95459482506158 
	2641.702653711686253 3595.596949517147095 13999.12333848893468 
	2641.702653720350099 3595.597461798328368 13999.70771212780892 
	2641.702653720350099 3595.597461795169238 13999.99989894437385 
	2758.369320368447461 3595.595488764481161 13999.99989894437385 
	2758.369320368447916 3595.595488739208577 14002.33739347689334 
	2758.369319813945367 3595.562702288720629 14007.01238217418904 
	2758.369316487701326 3595.366020706149357 14016.36052213296352 
	2758.36930484643517 3594.6776717577618 14032.71010511191344 
	2758.369258317198728 3591.926389749985447 14065.33209770486792 
	2758.369125679189438 3584.083481118525924 14111.49409150618339 
	2758.368906456460991 3571.120751472303709 14156.48753242905514 
	2758.368680799019785 3557.777491096343965 14191.44195194079475 
	2758.368422364514117 3542.496096546146873 14225.59357277555682 
	2758.36803932728526 3519.846895544835661 14266.57473041992853 
	2758.367489447997741 3487.332192827291237 14312.3994783680846 
	2758.366856262833153 3449.891572886901486 14354.29602160657123 
	2758.366173965242069 3409.546851012403295 14390.34994566357273 
	2758.365459814878704 3367.318688554947585 14420.70976522622186 
	2758.364728562613436 3324.079241224688303 14445.67394130502908 
	2758.364023045946396 3282.361560856301367 14464.49779715638761 
	2758.363359241945091 3243.110385588171994 14478.23143765801251 
	2758.362544086578509 3194.909697228616551 14491.14870673417136 
	2758.36149878528613 3133.100317441152129 14500.46617496901308 
	2758.360230247205436 3058.090803055926244 14500.46540916181948 
	2758.358975877975354 2983.919095532923166 14489.28636987986647 
	2758.357965733926449 2924.1885906669836 14470.86112091486575 
	2758.357192240032873 2878.451368817217826 14450.90446183673703 
	2758.356725911629383 2850.877053045026514 14436.3315475842719 
	2758.35636468463963 2829.517453214708439 14423.46087132872162 
	2758.356011845947705 2808.653858881309588 14409.80086368777302 
	2758.355672338530894 2788.57855304538225 14394.98463380846806 
	2758.355347586093103 2769.375718644416793 14379.07435060141506 
	2758.35511173709574 2755.429805284090435 14366.61152635193139 
	2758.354921900543104 2744.204639697386938 14355.79857024854573 
	2758.354774214883491 2735.47188486919913 14346.90084920318986 
	2758.354412089610378 2714.059168147783566 14324.25267722911121 
	2758.354082541987282 2694.572793270720013 14299.81751697417712 
	2758.353789706668067 2677.257239238723741 14273.90196928481419 
	2758.353675867044331 2670.525823790787399 14263.40823051750885 
	2758.3534854140471 2659.264206925004601 14244.7184687797544 
	2758.353206086371301 2642.747370556924125 14213.46793741725378 
	2758.352987432644568 2629.818226023731768 14182.79587183316107 
	2758.352848157569042 2621.582794928522162 14159.25988384453376 
	2758.352761949496198 2616.485252166227838 14143.43727547280105 
	2758.352666750023673 2610.856041728459786 14123.42991430647089 
	2758.352572892621538 2605.306188876498254 14099.11419495753034 
	2758.352475231841709 2599.531439637868061 14066.36475500619781 
	2758.352405163457206 2595.388247607004814 14024.96430029227849 
	2758.35240517133434 2595.388713096981519 13975.03583100093238 
	2758.352503231073115 2601.18705230098567 13917.07492146669574 
	2758.352707093087247 2613.24155250215108 13864.25992742670496 
	2758.352985848347089 2629.724542573275357 13817.15916011789159 
	2758.353238946217061 2644.690392721492572 13782.85569850909269 
	2758.353534702835987 2662.17868432557043 13749.76678880123109 
	2758.353871444332981 2682.090439648255597 13718.07718347056289 
	2758.354247297459096 2704.314892401712314 13687.964284364587 
	2758.354706026340864 2731.439845732290905 13656.44430408565495 
	2758.355260112389715 2764.203331559632716 13624.48721987076351 
	2758.355810250697687 2796.733386230515862 13598.54593135906907 
	2758.356274923763522 2824.209824451316763 13579.81305526840697 
	2758.35669482197909 2849.038694024113738 13564.64029099914296 
	2758.357192235752791 2878.451109814816846 13549.09536016927632 
	2758.357772362791366 2912.754420038980697 13534.12892748122431 
	2758.358369782915815 2948.080278683994948 13521.76788680460595 
	2758.35893020693311 2981.218533001558626 13512.88855373732258 
	2758.359447362785886 3011.798312102429463 13506.80594912714514 
	2758.359917261622286 3039.583751340690014 13502.88322299137326 
	2758.360390140908748 3067.545426200802922 13500.52481641207487 
	2758.361022636926009 3104.945347572467199 13499.47511761214082 
	2758.361813255588459 3151.695158507317501 13502.10030124894183 
	2758.362645978637829 3200.93463016315809 13510.4665232216812 
	2758.363359240527188 3243.11028766916661 13521.76839735113026 
	2758.364155809356362 3290.211945854100577 13538.24840783855143 
	2758.365108247002354 3346.530226996556848 13565.36800079044406 
	2758.366069004161545 3403.340432659033013 13604.10246206542433 
	2758.366856260385703 3449.891413531060152 13645.70391122216279 
	2758.367489452120026 3487.332430919918352 13687.60003218645215 
	2758.368039326396683 3519.84683589224278 13733.42506263863106 
	2758.368498976079536 3547.026191021634077 13782.60228707948227 
	2758.368862615991475 3568.528415967313322 13834.51347352059929 
	2758.369125678300861 3584.083419013337334 13888.50571298925934 
	2758.36925831781582 3591.926420863546355 13934.66768637777386 
	2758.369304846430168 3594.677669636157589 13967.28969298370794 
	2758.36931648775635 3595.366023024676906 13983.63927511256588 
	2758.369319398189418 3595.538117264530683 13991.81889815916838 
	2758.369320125891136 3595.581146347877166 13995.90931220501989 
	2758.369320307806447 3595.591903043096863 13997.95459482506158 
	2758.369320359783615 3595.594976486459018 13999.12333848893468 
	2758.369320368447461 3595.59548876764029 13999.70771212780892 
	2758.369320368447461 3595.595488764481161 13999.99989894437385 
	0 
	
	0 
	0 
	84 0 0.002232142857142857019 0.004464285714285714038 0.008928571428571428076 0.01785714285714285615 0.0357142857142857123 0.05357142857142856845 0.0625 0.07142857142857142461 0.08928571428571427382 0.1071428571428571369 0.125 0.1428571428571428492 0.1587301587301587213 0.1746031746031745935 0.1904761904761904656 0.2023809523809523836 0.2142857142857142738 0.238095238095238082 0.2619047619047618625 0.2857142857142856984 0.3095238095238095344 0.3214285714285713969 0.3333333333333333148 0.3392857142857143016 0.3452380952380952328 0.3571428571428570953 0.3630952380952380265 0.3690476190476190133 0.375 0.3779761904761904656 0.3809523809523809312 0.4047619047619047672 0.4077380952380952328 0.4107142857142856984 0.4166666666666666297 0.4285714285714285476 0.4444444444444444198 0.4484126984126983739 0.4523809523809523281 0.4603174603174602919 0.4682539682539682557 0.476190476190476164 0.4920634920634920362 0.5079365079365079083 0.5238095238095237249 0.5476190476190475609 0.5595238095238095344 0.5714285714285713969 0.5833333333333332593 0.5952380952380951218 0.6071428571428569843 0.6190476190476189577 0.6349206349206348854 0.650793650793650702 0.6587301587301586103 0.6666666666666666297 0.6785714285714286031 0.6904761904761904656 0.7023809523809523281 0.7142857142857141906 0.7232142857142855874 0.7321428571428569843 0.7410714285714283811 0.749999999999999889 0.7678571428571427937 0.7857142857142855874 0.7976190476190474499 0.8095238095238094234 0.8333333333333332593 0.8571428571428570953 0.875 0.8928571428571427937 0.9107142857142856984 0.9285714285714286031 0.9464285714285713969 0.9642857142857143016 0.9821428571428572063 0.9910714285714286031 0.9955357142857143016 0.9977678571428572063 0.9988839285714286031 0.9994419642857143016 0.9997209821428572063 
	0 
	0 
	0 
	F 1 F 0 F 1 F 0 } I I I I #
tcoedge-coedge $-1 -1 $-1 $14 $14 $18 $19 reversed $9 $20 -6.283185307179586232 -1.954981240454611768e-30 #
tcoedge-coedge $-1 -1 $-1 $21 $22 $11 $16 reversed $12 $23 -6.283185307179586232 -1.201869676623511346e-63 #
tedge-edge $-1 -1 $-1 $24 1.201869676623511346e-63 $24 6.283185307179586232 $15 $25 forward @7 unknown 0.0006640423363418435868 #
pcurve $-1 -1 $-1 0 forward { exppc nurbs 2 periodic 5 
	1.201869676623511346e-63 2 1.570796326794896558 2 3.141592653589793116 2 4.712388980384689674 2 6.283185307179586232 2 
	0 500 1 
	-500 500 0.7071067811865451302 
	-500 0 1 
	-500 -500 0.7071067811865451302 
	0 -500 1 
	500 -500 0.7071067811865451302 
	500 0 1 
	500 500 0.7071067811865451302 
	0 500 1 
	0 
	plane 2758.360864512888838 3095.595445253301477 14000 0.9999999998569973902 -1.691169161366488208e-05 -1.933810684302376152e-50 -1.933810684578916046e-50 0 -1 forward_v I I I I 
	} 0 0 #
tcoedge-coedge $-1 -1 $-1 $22 $21 $14 $19 forward $12 $26 1.954981240454611768e-30 6.283185307179586232 #
tedge-edge $-1 -1 $-1 $27 1.954981240454611768e-30 $27 6.283185307179586232 $18 $28 forward @7 unknown 0.0006640423418167686791 #
pcurve $-1 -1 $-1 0 forward { exppc nurbs 2 periodic 5 
	-6.283185307179586232 2 -4.712388980384689674 2 -3.141592653589793116 2 -1.570796326794896558 2 -1.954981240454611768e-30 2 
	0 500 1 
	500 500 0.7071067811865451302 
	500 0 1 
	500 -500 0.7071067811865451302 
	0 -500 1 
	-500 -500 0.7071067811865451302 
	-500 0 1 
	-500 500 0.7071067811865451302 
	0 500 1 
	0 
	plane 2408.360864568599027 3095.601364345366164 14000.00000000000182 -0.9999999998569973902 1.691169161366488208e-05 5.197112581643629645e-15 -5.197112582386830492e-15 0 -1 reverse_v I I I I 
	} 0 0 #
coedge $-1 -1 $-1 $18 $15 $22 $29 reversed $12 $30 #
coedge $-1 -1 $-1 $15 $18 $21 $29 forward $12 $31 #
pcurve $-1 -1 $-1 0 forward { exppc nubs 1 periodic 2 
	-6.283185307179586232 1 -1.201869676623511346e-63 1 
	1 1 
	0 1 
	4.411402399617608535e-13 
	spline forward { ref 0 } I I I I 
	} 0 0 #
tvertex-vertex $-1 -1 $-1 $16 $32 0.0001100531324079698811 #
ellipse-curve $-1 -1 $-1 2758.360864512888838 3095.595445253301477 14000 0.9999999998569973902 -1.691169161366488208e-05 -1.933810684302376152e-50 0.008455845806832441164 499.9999999284987666 -5.972976578481457425e-61 1 I I #
pcurve $-1 -1 $-1 0 forward { exppc nubs 1 periodic 2 
	1.954981240454611768e-30 1 6.283185307179586232 1 
	0 0 
	1 0 
	2.72639662171397195e-13 
	spline forward { ref 0 } I I I I 
	} 0 0 #
tvertex-vertex $-1 -1 $-1 $19 $33 0.0001100531321324856423 #
ellipse-curve $-1 -1 $-1 2408.360864568599027 3095.601364345366164 14000.00000000000182 0.9999999998569973902 -1.691169161366488208e-05 -5.197112581643629645e-15 0.008455845806832441164 499.9999999284987666 7.174648137343063403e-43 1 I I #
edge $-1 -1 $-1 $27 0 $24 0.9999999999742441581 $22 $34 forward @7 tangent #
pcurve $-1 -1 $-1 -1 $34 0 0 #
pcurve $-1 -1 $-1 1 $34 1 0 #
point $-1 -1 $-1 2758.369320358695859 3595.595445181800187 14000 #
point $-1 -1 $-1 2408.369320414406047 3595.601364273864874 14000.00000000000182 #
intcurve-curve $-1 -1 $-1 forward { parcur full nubs 3 open 2 
	0 3 1 3 
	2408.36932042301396 3595.601407856545393 13999.99989894437567 
	2525.035987071110412 3595.599434825857315 13999.99989894437567 
	2641.702653720350099 3595.597461795169238 13999.99989894437385 
	2758.369320368447461 3595.595488764481161 13999.99989894437385 
	0 
	
	spline forward { ref 0 } I I I I 
	null_surface 
	nubs 1 open 2 
	0 1 1 1 
	0 0 
	0 1 
	
	nullbs 
	I I 
	0 
	0 
	0 
	surf1 } F 0 F 0.9999999999742441581 #
End-of-ACIS-data 