700 0 1 0           
4 LibG 20 ASM 224.0.1.65535 NT 24 Wed Jul 17 15:51:16 2019 
1000 9.999999999999999547e-07 1.000000000000000036e-10 
body $-1 -1 $-1 $1 $-1 $2 #
lump $-1 -1 $-1 $-1 $3 $0 #
transform $-1 -1 1 0 0 0 1 0 0 0 1 0 0 0 1 no_rotate no_reflect no_shear #
shell $-1 -1 $-1 $-1 $-1 $4 $-1 $1 #
face $-1 -1 $-1 $5 $6 $3 $-1 $7 forward single #
face $-1 -1 $-1 $8 $9 $3 $-1 $10 reversed single #
loop $-1 -1 $-1 $-1 $11 $4 #
plane-surface $-1 -1 $-1 1358.360864735730956 3095.61912162156068 14000.00000000000364 0.9999999998569973902 -1.691169161366488208e-05 -5.197112581643629645e-15 -5.197112582386830492e-15 0 -1 forward_v I I I I #
face $-1 -1 $-1 $-1 $12 $3 $-1 $13 forward single #
loop $-1 -1 $-1 $-1 $14 $5 #
plane-surface $-1 -1 $-1 1008.360864791441713 3095.625040713625367 14000.00000000000182 0.9999999998569973902 -1.691169161366488208e-05 5.197112581643629645e-15 5.197112582386830492e-15 0 -1 forward_v I I I I #
tcoedge-coedge $-1 -1 $-1 $11 $11 $15 $16 forward $6 $17 -4.08391938306541452e-31 6.283185307179586232 #
loop $-1 -1 $-1 $-1 $18 $8 #
spline-surface $-1 -1 $-1 forward { exactsur full nubs 3 3 periodic open none none 90 2 
	0 3 0.004464285714285714038 1 0.008928571428571428076 1 0.01785714285714285615 1 0.02678571428571428423 1 
	0.0357142857142857123 1 0.05357142857142856845 1 0.07142857142857142461 1 0.08928571428571427382 1 0.09374999999999998612 1 
	0.09821428571428569843 1 0.1026785714285714246 1 0.1071428571428571369 1 0.125 1 0.1428571428571428492 1 
	0.1587301587301587213 1 0.1785714285714285476 1 0.1825396825396825295 1 0.1904761904761904656 1 0.2142857142857142738 1 
	0.226190476190476164 1 0.238095238095238082 1 0.2410714285714285476 1 0.2440476190476190133 1 0.2499999999999999722 1 
	0.2619047619047618625 1 0.2738095238095237804 1 0.2857142857142856984 1 0.2976190476190476164 1 0.3095238095238095344 1 
	0.3214285714285713969 1 0.3333333333333333148 1 0.3452380952380952328 1 0.3571428571428570953 1 0.3630952380952380265 1 
	0.3690476190476190133 1 0.375 1 0.3809523809523809312 1 0.3928571428571428492 1 0.4047619047619047672 1 
	0.4166666666666666297 1 0.4285714285714285476 1 0.4444444444444444198 1 0.4603174603174602919 1 0.476190476190476164 1 
	0.4801587301587301182 1 0.4841269841269840724 1 0.4920634920634920362 1 0.5 1 0.5079365079365079083 1 
	0.5158730158730158166 1 0.5238095238095237249 1 0.5476190476190475609 1 0.5714285714285713969 1 0.5833333333333332593 1 
	0.5892857142857141906 1 0.5922619047619046562 1 0.5952380952380951218 1 0.6190476190476189577 1 0.6269841269841269771 1 
	0.6349206349206348854 1 0.650793650793650702 1 0.6666666666666666297 1 0.6904761904761904656 1 0.7023809523809523281 1 
	0.7142857142857141906 1 0.7321428571428569843 1 0.749999999999999889 1 0.7678571428571427937 1 0.7857142857142855874 1 
	0.7976190476190474499 1 0.8095238095238094234 1 0.8333333333333332593 1 0.8452380952380951218 1 0.851190476190476053 1 
	0.8571428571428570953 1 0.875 1 0.8928571428571427937 1 0.9107142857142856984 1 0.9285714285714286031 1 
	0.9464285714285713969 1 0.9642857142857143016 1 0.9732142857142858094 1 0.9821428571428572063 1 0.9910714285714286031 1 
	0.9955357142857143016 1 0.9977678571428572063 1 0.9988839285714286031 1 0.9994419642857143016 1 1 3 
	0 3 1 3 
	1008.369320638755426 3595.625123129928852 13999.99993733861447 
	1008.369320638752129 3595.625122933355669 14004.67492645537277 
	1008.369318420865511 3595.493977877466477 14014.02490584697262 
	1008.369305117524959 3594.707342254892865 14032.71014839511554 
	1008.369271879563257 3592.741958972564589 14056.01156290481777 
	1008.369205538643087 3588.819174886594283 14083.79697775845671 
	1008.369082102221796 3581.520294402979289 14120.49278775294806 
	1008.368862889831007 3568.5581155025111 14165.48635105667563 
	1008.368499247790282 3547.055711322402203 14217.397530776243 
	1008.368154511132161 3526.671195630044622 14254.28040578854234 
	1008.367896493112312 3511.414412110986632 14277.82153290990027 
	1008.367761954512616 3503.45905188650022 14289.37361400137343 
	1008.367621987818779 3495.182724700104245 14300.69796225169375 
	1008.3673314263865 3478.001626710809887 14322.87369747401499 
	1008.366856538918228 3449.921203509431507 14354.29615389594073 
	1008.366174238560689 3409.576312816356221 14390.3498907741814 
	1008.365402962136386 3363.970205907105083 14423.13894006850023 
	1008.364788820103968 3327.655563938773867 14443.50612753260066 
	1008.364279232299054 3297.523285273408874 14457.55623430538617 
	1008.363696230022583 3263.049958318880272 14472.08968495304543 
	1008.362955455414181 3219.247444629994334 14485.60037563024525 
	1008.362126243255716 3170.215557317355888 14494.87632692688021 
	1008.361654526529605 3142.322621857197646 14498.01952332586552 
	1008.361338941590361 3123.661866549326533 14499.24251755974547 
	1008.3611283308868 3111.208310265451473 14499.82515950490597 
	1008.360759374924442 3089.391689491736543 14500.23323401214657 
	1008.360232295176161 3058.225100151013976 14499.06711510278728 
	1008.359603336521673 3021.034340727042036 14494.87669331861252 
	1008.358981432484256 2984.260725677974278 14487.91876072083687 
	1008.358370060909806 2948.109902444164163 14478.23217112736347 
	1008.357772640901771 2912.784044953597459 14465.87111995885425 
	1008.35719251338719 2878.480704538990722 14450.90472804748242 
	1008.356632922837434 2845.391729050098093 14433.41668867372573 
	1008.356096998375051 2813.702145616959569 14413.50482008685867 
	1008.355672614127911 2788.608012149150909 14394.98454105494056 
	1008.355347861813812 2769.405183623633548 14379.07425191268339 
	1008.355112012333848 2755.459241047551131 14366.61145130950172 
	1008.354884209525835 2741.989103731112209 14353.6358543619117 
	1008.354591623283682 2724.688277204793849 14335.67569399753847 
	1008.354247574920691 2704.344459937103693 14312.03578776916038 
	1008.353871722231588 2682.120030872807547 14281.92286422634243 
	1008.353534980990389 2662.208288767752038 14250.23322887902032 
	1008.353206363139407 2642.77688827850352 14213.46780682887402 
	1008.352905709685501 2624.999041882558686 14171.29380300531011 
	1008.352656828168961 2610.282505952359315 14123.58331952198387 
	1008.352531345768625 2602.862644850065408 14086.87935726531759 
	1008.352473700487849 2599.454039557528176 14062.17821303956407 
	1008.352442223120079 2597.592761075031376 14045.65926982826022 
	1008.352415955420156 2596.039533814843253 14024.93319102356691 
	1008.352405440519078 2595.4177804101123 13999.99992423735421 
	1008.352415954006119 2596.039450154288716 13975.06663026292881 
	1008.352447479898274 2597.903597889489447 13950.19538460678814 
	1008.352534873491891 2603.071241359142277 13908.94945234607803 
	1008.352754407505131 2616.052438991837789 13852.07133431927468 
	1008.353140629129257 2638.889990143411978 13793.88479837680825 
	1008.35348569098494 2659.293735836526594 13755.28150779598218 
	1008.353676142273684 2670.555251991892419 13736.5916988063891 
	1008.353789982033049 2677.286675556596037 13726.09796133444434 
	1008.354082818279039 2694.602284932027032 13700.18246567560345 
	1008.354467295120003 2717.336666052996407 13671.67496830725213 
	1008.354958162219305 2746.361976496705665 13641.91819907818171 
	1008.355370418944517 2770.739001251760783 13619.2988014490038 
	1008.35592055657014 2803.26901882990478 13593.35765601761887 
	1008.356748058865719 2852.199800792200676 13561.75276908787237 
	1008.357573495274551 2901.008425421831362 13538.24848050657602 
	1008.358370065842792 2948.110193019512735 13521.76850794026905 
	1008.359083327571739 2990.285851403149081 13510.46670877352517 
	1008.359916049524713 3039.525275280928781 13502.10052824011291 
	1008.360864791900099 3095.62506680412298 13498.95006079591803 
	1008.36181353446932 3151.724869765568656 13502.10050655155646 
	1008.362646256155131 3200.96427780252543 13510.46671849017002 
	1008.363359518402262 3243.13996677444311 13521.76843270873542 
	1008.364156087380138 3290.241640332198585 13538.24866078265404 
	1008.364918030608123 3335.295869153142576 13559.94462361605838 
	1008.365543263000859 3372.266292080796575 13583.17665224420307 
	1008.365887216736269 3392.604513793049591 13597.60713854154346 
	1008.366305452078677 3417.335058312128695 13616.58339866064671 
	1008.366856542619757 3449.921422047957094 13645.70354425404184 
	1008.367489726162944 3487.362001442805195 13687.6001844168859 
	1008.368039603064631 3519.876601630111963 13733.42499705881346 
	1008.368499248882699 3547.055775407109195 13782.60234562602818 
	1008.368862891363165 3568.558205635916238 13834.51347282355528 
	1008.369082102683137 3581.520321419247921 13879.50708352645415 
	1008.369205539045197 3588.81919845379025 13916.20288978927965 
	1008.369271879766529 3592.741970854919145 13943.98831041078665 
	1008.369305117622048 3594.707347904711241 13967.2897259616766 
	1008.369316757971319 3595.395649716653679 13983.6393139857264 
	1008.36931966853092 3595.567753094887848 13991.81893632947504 
	1008.369320396196713 3595.610780480278208 13995.90935060378433 
	1008.369320604102313 3595.623074068288133 13998.2468164379261 
	1008.36932063875588 3595.62512315450067 13999.41556369901991 
	1008.369320638755426 3595.625123129928852 13999.99993733861447 
	1125.035987286852105 3595.623150099240775 13999.99993733861447 
	1125.035987286848695 3595.623149902667592 14004.67492645537277 
	1125.035985068961963 3595.4920048467784 14014.02490584697262 
	1125.035971765621525 3594.705369224204787 14032.71014839511554 
	1125.035938527659482 3592.739985941876512 14056.01156290481777 
	1125.035872186739198 3588.817201855906205 14083.79697775845671 
	1125.03574875031768 3581.518321372291211 14120.49278775294806 
	1125.035529537926323 3568.556142471823023 14165.48635105667563 
	1125.035165895885712 3547.053738291714126 14217.397530776243 
	1125.034821159226794 3526.669222599356544 14254.28040578854234 
	1125.034563141207173 3511.412439080298554 14277.82153290990027 
	1125.03442860260725 3503.457078855812142 14289.37361400137343 
	1125.034288635913299 3495.180751669416168 14300.69796225169375 
	1125.033998074480678 3477.99965368012181 14322.87369747401499 
	1125.033523187012634 3449.91923047874343 14354.29615389594073 
	1125.032840886654412 3409.574339785668144 14390.3498907741814 
	1125.03206961023011 3363.968232876417005 14423.13894006850023 
	1125.031455468197464 3327.653590908085789 14443.50612753260066 
	1125.030945880392665 3297.521312242720796 14457.55623430538617 
	1125.030362878115739 3263.047985288192194 14472.08968495304543 
	1125.029622103507791 3219.245471599306256 14485.60037563024525 
	1125.02879289134853 3170.21358428666781 14494.87632692688021 
	1125.028321174622988 3142.320648826509569 14498.01952332586552 
	1125.028005589683517 3123.659893518638455 14499.24251755974547 
	1125.027794978980182 3111.206337234763396 14499.82515950490597 
	1125.027426023017597 3089.389716461048465 14500.23323401214657 
	1125.026898943269316 3058.223127120325898 14499.06711510278728 
	1125.026269984614828 3021.032367696353958 14494.87669331861252 
	1125.025648080577639 2984.258752647286201 14487.91876072083687 
	1125.025036709002961 2948.107929413476086 14478.23217112736347 
	1125.024439288995154 2912.782071922909381 14465.87111995885425 
	1125.023859161480686 2878.478731508302644 14450.90472804748242 
	1125.023299570931158 2845.389756019410015 14433.41668867372573 
	1125.022763646468775 2813.700172586271492 14413.50482008685867 
	1125.022339262221976 2788.606039118462832 14394.98454105494056 
	1125.022014509907649 2769.40321059294547 14379.07425191268339 
	1125.021778660428026 2755.457268016863054 14366.61145130950172 
	1125.021550857619786 2741.987130700424132 14353.6358543619117 
	1125.021258271378201 2724.686304174105771 14335.67569399753847 
	1125.020914223015097 2704.342486906415616 14312.03578776916038 
	1125.020538370326449 2682.11805784211947 14281.92286422634243 
	1125.02020162908525 2662.20631573706396 14250.23322887902032 
	1125.019873011234949 2642.774915247815443 14213.46780682887402 
	1125.019572357780589 2624.997068851870608 14171.29380300531011 
	1125.019323476264844 2610.280532921671238 14123.58331952198387 
	1125.019197993864736 2602.86067181937733 14086.87935726531759 
	1125.01914034858396 2599.452066526840099 14062.17821303956407 
	1125.019108871216531 2597.590788044343299 14045.65926982826022 
	1125.019082603516381 2596.037560784155175 14024.93319102356691 
	1125.019072088615758 2595.415807379424223 13999.99992423735421 
	1125.019082602102799 2596.037477123600638 13975.06663026292881 
	1125.019114127995181 2597.90162485880137 13950.19538460678814 
	1125.019201521589366 2603.0692683284542 13908.94945234607803 
	1125.019421055602606 2616.050465961149712 13852.07133431927468 
	1125.019807277227301 2638.888017112723901 13793.88479837680825 
	1125.020152339083324 2659.291762805838516 13755.28150779598218 
	1125.020342790372069 2670.553278961204342 13736.5916988063891 
	1125.020456630131775 2677.28470252590796 13726.09796133444434 
	1125.020749466377538 2694.600311901338955 13700.18246567560345 
	1125.021133943218956 2717.334693022308329 13671.67496830725213 
	1125.021624810318372 2746.360003466017588 13641.91819907818171 
	1125.022037067043811 2770.737028221072705 13619.2988014490038 
	1125.022587204669662 2803.267045799216703 13593.35765601761887 
	1125.023414706965241 2852.197827761512599 13561.75276908787237 
	1125.024240143374527 2901.006452391143284 13538.24848050657602 
	1125.025036713942654 2948.108219988824658 13521.76850794026905 
	1125.025749975671715 2990.283878372461004 13510.46670877352517 
	1125.026582697624917 3039.523302250240704 13502.10052824011291 
	1125.027531440000075 3095.623093773434903 13498.95006079591803 
	1125.028480182569638 3151.722896734880578 13502.10050655155646 
	1125.029312904254994 3200.962304771837353 13510.46671849017002 
	1125.030026166502466 3243.137993743755032 13521.76843270873542 
	1125.03082273547966 3290.239667301510508 13538.24866078265404 
	1125.031584678707986 3335.293896122454498 13559.94462361605838 
	1125.032209911100153 3372.264319050108497 13583.17665224420307 
	1125.032553864835791 3392.602540762361514 13597.60713854154346 
	1125.032972100177858 3417.333085281440617 13616.58339866064671 
	1125.033523190719052 3449.919449017269017 13645.70354425404184 
	1125.034156374261556 3487.360028412117117 13687.6001844168859 
	1125.034706251163243 3519.874628599423886 13733.42499705881346 
	1125.035165896980743 3547.053802376421118 13782.60234562602818 
	1125.035529539461095 3568.556232605228161 13834.51347282355528 
	1125.035748750780385 3581.518348388559843 13879.50708352645415 
	1125.035872187142559 3588.817225423102172 13916.20288978927965 
	1125.035938527863436 3592.739997824231068 13943.98831041078665 
	1125.035971765719069 3594.705374874023164 13967.2897259616766 
	1125.035983406067999 3595.393676685965602 13983.6393139857264 
	1125.035986316627714 3595.565780064199771 13991.81893632947504 
	1125.035987044293279 3595.608807449590131 13995.90935060378433 
	1125.035987252198993 3595.621101037600056 13998.2468164379261 
	1125.03598728685256 3595.623150123812593 13999.41556369901991 
	1125.035987286852105 3595.623150099240775 13999.99993733861447 
	1241.702653934987211 3595.621177068554061 13999.99993733861447 
	1241.702653934984028 3595.621176871979515 14004.67492645537277 
	1241.702651717096387 3595.490031816090777 14014.02490584697262 
	1241.702638413755267 3594.70339619351671 14032.71014839511554 
	1241.702605175791405 3592.738012911188434 14056.01156290481777 
	1241.702538834869756 3588.815228825217673 14083.79697775845671 
	1241.702415398446419 3581.516348341602679 14120.49278775294806 
	1241.702196186049378 3568.554169441134036 14165.48635105667745 
	1241.701832544004446 3547.051765261025594 14217.39753077624664 
	1241.701487807341437 3526.667249568667103 14254.28040578854598 
	1241.70122978932045 3511.410466049609113 14277.82153290990391 
	1241.701095250720527 3503.4551058251227 14289.37361400137524 
	1241.700955284026804 3495.178778638726726 14300.69796225169557 
	1241.700664722593956 3477.997680649431913 14322.87369747402045 
	1241.700189835121819 3449.917257448054443 14354.29615389594437 
	1241.699507534761324 3409.572366754978702 14390.34989077418868 
	1241.698736258334293 3363.966259845727564 14423.13894006850387 
	1241.698122116299146 3327.651617877396802 14443.50612753260793 
	1241.697612528494801 3297.519339212031355 14457.55623430539163 
	1241.697029526216966 3263.046012257502753 14472.08968495305089 
	1241.696288751607426 3219.24349856861636 14485.60037563024707 
	1241.695459539448393 3170.211611255977459 14494.87632692688385 
	1241.694987822721259 3142.318675795820582 14498.01952332586734 
	1241.694672237781788 3123.657920487948559 14499.24251755974547 
	1241.694461627077999 3111.204364204073954 14499.82515950490961 
	1241.694092671115641 3089.387743430359023 14500.23323401215202 
	1241.69356559136736 3058.221154089636457 14499.06711510279092 
	1241.692936632712644 3021.030394665664517 14494.87669331861798 
	1241.692314728675001 2984.256779616597214 14487.91876072084233 
	1241.691703357100778 2948.105956382787554 14478.23217112736711 
	1241.691105937092516 2912.780098892221304 14465.87111995885607 
	1241.690525809577821 2878.476758477613657 14450.90472804748788 
	1241.689966219028065 2845.387782988721483 14433.41668867373119 
	1241.689430294565909 2813.69819955558296 14413.50482008686413 
	1241.689005910318429 2788.604066087774299 14394.98454105494784 
	1241.688681158004556 2769.401237562256483 14379.07425191268885 
	1241.688445308524251 2755.455294986174067 14366.61145130950536 
	1241.688217505716921 2741.985157669735145 14353.63585436191534 
	1241.687924919474654 2724.684331143417239 14335.67569399754029 
	1241.687580871112004 2704.340513875727538 14312.03578776916402 
	1241.687205018423583 2682.116084811430937 14281.92286422634606 
	1241.686868277182384 2662.204342706375428 14250.23322887902032 
	1241.686539659332311 2642.772942217126911 14213.46780682887766 
	1241.686239005878861 2624.995095821182531 14171.29380300531193 
	1241.685990124362888 2610.278559890982251 14123.58331952198387 
	1241.685864641963462 2602.858698788688798 14086.87935726531759 
	1241.685806996682913 2599.450093496151567 14062.17821303956407 
	1241.685775519314802 2597.588815013654767 14045.65926982826022 
	1241.685749251615334 2596.035587753466189 14024.93319102356691 
	1241.685738736714484 2595.413834348736145 13999.99992423735421 
	1241.685749250201525 2596.035504092912106 13975.06663026292881 
	1241.685780776094134 2597.899651828112837 13950.19538460678814 
	1241.685868169688092 2603.067295297765213 13908.94945234607803 
	1241.686087703702015 2616.048492930459815 13852.07133431927468 
	1241.686473925326709 2638.886044082034914 13793.88479837680825 
	1241.686818987182278 2659.289789775149075 13755.28150779598218 
	1241.687009438471478 2670.5513059305149 13736.5916988063891 
	1241.687123278230729 2677.282729495218973 13726.09796133444434 
	1241.687416114477628 2694.598338870650423 13700.18246567560345 
	1241.687800591317455 2717.332719991619797 13671.67496830725213 
	1241.688291458417098 2746.358030435328601 13641.91819907818171 
	1241.688703715142537 2770.735055190383719 13619.2988014490038 
	1241.689253852767706 2803.265072768528171 13593.35765601761887 
	1241.690081355063967 2852.195854730823612 13561.75276908787237 
	1241.690906791472344 2901.004479360454752 13538.24848050657602 
	1241.691703362041153 2948.106246958136126 13521.76850794026905 
	1241.692416623770214 2990.281905341772472 13510.46670877352517 
	1241.693249345723871 3039.521329219552172 13502.10052824011291 
	1241.694198088099711 3095.621120742745916 13498.95006079591803 
	1241.695146830669501 3151.720923704192501 13502.10050655155646 
	1241.695979552355766 3200.960331741148366 13510.46671849017002 
	1241.696692814603239 3243.136020713066955 13521.76843270873542 
	1241.697489383581342 3290.237694270821976 13538.24866078265404 
	1241.698251326810805 3335.291923091766421 13559.94462361605838 
	1241.698876559204109 3372.262346019420875 13583.17665224420307 
	1241.699220512939974 3392.600567731673436 13597.60713854154346 
	1241.699638748282496 3417.33111225075254 13616.58339866064671 
	1241.700189838825736 3449.917475986580484 13645.70354425404184 
	1241.700823022372788 3487.358055381429949 13687.6001844168859 
	1241.701372899277885 3519.872655568736263 13733.42499705881346 
	1241.701832545100388 3547.05182934573395 13782.60234562602818 
	1241.702196187584377 3568.554259574540538 13834.51347282355528 
	1241.702415398910034 3581.516375357872676 13879.50708352645415 
	1241.702538835273344 3588.815252392415005 13916.20288978927965 
	1241.702605175996496 3592.738024793544355 13943.98831041078665 
	1241.702638413853265 3594.703401843335996 13967.2897259616766 
	1241.702650054203104 3595.391703655278434 13983.6393139857264 
	1241.702652964762592 3595.563807033512148 13991.81893632947504 
	1241.702653692428385 3595.606834418902508 13995.90935060378433 
	1241.702653900334099 3595.619128006914707 13998.2468164379261 
	1241.702653934987666 3595.62117709312588 13999.41556369901991 
	1241.702653934987211 3595.621177068554061 13999.99993733861447 
	1358.369320583083436 3595.619204037865984 13999.99993733861447 
	1358.369320583080253 3595.619203841291437 14004.67492645537277 
	1358.369318365192612 3595.4880587854027 14014.02490584697262 
	1358.369305061851946 3594.701423162828632 14032.71014839511554 
	1358.369271823888312 3592.736039880500357 14056.01156290481777 
	1358.369205482967118 3588.813255794529596 14083.79697775845671 
	1358.369082046544008 3581.514375310914602 14120.49278775294806 
	1358.368862834147876 3568.552196410445958 14165.48635105667745 
	1358.368499192103627 3547.049792230337516 14217.39753077624664 
	1358.368154455440845 3526.665276537979025 14254.28040578854598 
	1358.367896437420541 3511.408493018921035 14277.82153290990391 
	1358.367761898820618 3503.453132794434623 14289.37361400137524 
	1358.367621932127122 3495.176805608038649 14300.69796225169557 
	1358.367331370694274 3477.995707618743836 14322.87369747402045 
	1358.366856483223046 3449.915284417366365 14354.29615389594437 
	1358.366174182862778 3409.570393724290625 14390.34989077418868 
	1358.365402906436202 3363.964286815039486 14423.13894006850387 
	1358.364788764401737 3327.649644846708725 14443.50612753260793 
	1358.364279176596938 3297.517366181343277 14457.55623430539163 
	1358.363696174320012 3263.044039226814675 14472.08968495305089 
	1358.362955399710017 3219.241525537928283 14485.60037563024707 
	1358.362126187551439 3170.209638225289382 14494.87632692688385 
	1358.361654470824305 3142.316702765132504 14498.01952332586734 
	1358.361338885884834 3123.655947457260481 14499.24251755974547 
	1358.361128275181045 3111.202391173385877 14499.82515950490961 
	1358.360759319218687 3089.385770399670946 14500.23323401215202 
	1358.360232239470406 3058.219181058948379 14499.06711510279092 
	1358.359603280815691 3021.028421634976439 14494.87669331861798 
	1358.358981376778047 2984.254806585909137 14487.91876072084233 
	1358.358370005203369 2948.103983352099476 14478.23217112736711 
	1358.357772585195107 2912.778125861533226 14465.87111995885607 
	1358.357192457680185 2878.47478544692558 14450.90472804748788 
	1358.356632867130202 2845.385809958033406 14433.41668867373119 
	1358.356096942667591 2813.696226524894882 14413.50482008686413 
	1358.35567255842011 2788.602093057086222 14394.98454105494784 
	1358.355347806105783 2769.399264531568406 14379.07425191268885 
	1358.355111956625706 2755.45332195548599 14366.61145130950536 
	1358.354884153817693 2741.983184639047067 14353.63585436191534 
	1358.354591567575653 2724.682358112729162 14335.67569399754029 
	1358.354247519212549 2704.338540845039461 14312.03578776916402 
	1358.353871666523673 2682.11411178074286 14281.92286422634606 
	1358.35353492528202 2662.202369675687351 14250.23322887902032 
	1358.353206307431265 2642.770969186438833 14213.46780682887766 
	1358.352905653977359 2624.993122790494454 14171.29380300531193 
	1358.352656772460705 2610.276586860294174 14123.58331952198387 
	1358.352531290060824 2602.856725758000721 14086.87935726531759 
	1358.35247364477982 2599.448120465463489 14062.17821303956407 
	1358.352442167411709 2597.586841982966689 14045.65926982826022 
	1358.352415899711559 2596.033614722778111 14024.93319102356691 
	1358.352405384810709 2595.411861318048068 13999.99992423735421 
	1358.352415898297295 2596.033531062224029 13975.06663026292881 
	1358.35244742418945 2597.89767879742476 13950.19538460678814 
	1358.352534817782953 2603.065322267077136 13908.94945234607803 
	1358.352754351795966 2616.046519899771738 13852.07133431927468 
	1358.353140573419978 2638.884071051346837 13793.88479837680825 
	1358.353485635275092 2659.287816744460997 13755.28150779598218 
	1358.353676086563837 2670.549332899826823 13736.5916988063891 
	1358.353789926323088 2677.280756464530896 13726.09796133444434 
	1358.354082762569305 2694.596365839962345 13700.18246567560345 
	1358.354467239409132 2717.33074696093172 13671.67496830725213 
	1358.35495810650832 2746.356057404640524 13641.91819907818171 
	1358.355370363233305 2770.733082159695641 13619.2988014490038 
	1358.355920500858474 2803.263099737840093 13593.35765601761887 
	1358.356748003153598 2852.193881700135535 13561.75276908787237 
	1358.357573439562202 2901.002506329766675 13538.24848050657602 
	1358.358370010130557 2948.104273927448048 13521.76850794026905 
	1358.359083271859618 2990.279932311084394 13510.46670877352517 
	1358.359915993813047 3039.519356188864094 13502.10052824011291 
	1358.360864736188887 3095.619147712057838 13498.95006079591803 
	1358.361813478758677 3151.718950673504423 13502.10050655155646 
	1358.36264620044517 3200.958358710460288 13510.46671849017002 
	1358.36335946269287 3243.134047682378878 13521.76843270873542 
	1358.364156031670973 3290.235721240133898 13538.24866078265404 
	1358.364917974900891 3335.289950061078343 13559.94462361605838 
	1358.365543207294422 3372.260372988732797 13583.17665224420307 
	1358.365887161030514 3392.598594700985359 13597.60713854154346 
	1358.366305396373264 3417.329139220064462 13616.58339866064671 
	1358.366856486916959 3449.915502955892407 13645.70354425404184 
	1358.367489670464465 3487.356082350741872 13687.6001844168859 
	1358.368039547370245 3519.870682538048186 13733.42499705881346 
	1358.368499193193429 3547.049856315045872 13782.60234562602818 
	1358.368862835678328 3568.55228654385246 13834.51347282355528 
	1358.36908204700444 3581.514402327184598 13879.50708352645415 
	1358.369205483368432 3588.813279361726927 13916.20288978927965 
	1358.369271824091584 3592.736051762856277 13943.98831041078665 
	1358.369305061949035 3594.701428812647919 13967.2897259616766 
	1358.369316702298875 3595.389730624590356 13983.6393139857264 
	1358.36931961285859 3595.561834002824071 13991.81893632947504 
	1358.369320340524382 3595.604861388214431 13995.90935060378433 
	1358.369320548430096 3595.61715497622663 13998.2468164379261 
	1358.369320583083663 3595.619204062437802 13999.41556369901991 
	1358.369320583083436 3595.619204037865984 13999.99993733861447 
	0 
	
	0 
	0 
	89 0 0.004464285714285714038 0.008928571428571428076 0.01785714285714285615 0.02678571428571428423 0.0357142857142857123 0.05357142857142856845 0.07142857142857142461 0.08928571428571427382 0.09374999999999998612 0.09821428571428569843 0.1026785714285714246 0.1071428571428571369 0.125 0.1428571428571428492 0.1587301587301587213 0.1785714285714285476 0.1825396825396825295 0.1904761904761904656 0.2142857142857142738 0.226190476190476164 0.238095238095238082 0.2410714285714285476 0.2440476190476190133 0.2499999999999999722 0.2619047619047618625 0.2738095238095237804 0.2857142857142856984 0.2976190476190476164 0.3095238095238095344 0.3214285714285713969 0.3333333333333333148 0.3452380952380952328 0.3571428571428570953 0.3630952380952380265 0.3690476190476190133 0.375 0.3809523809523809312 0.3928571428571428492 0.4047619047619047672 0.4166666666666666297 0.4285714285714285476 0.4444444444444444198 0.4603174603174602919 0.476190476190476164 0.4801587301587301182 0.4841269841269840724 0.4920634920634920362 0.5 0.5079365079365079083 0.5158730158730158166 0.5238095238095237249 0.5476190476190475609 0.5714285714285713969 0.5833333333333332593 0.5892857142857141906 0.5922619047619046562 0.5952380952380951218 0.6190476190476189577 0.6269841269841269771 0.6349206349206348854 0.650793650793650702 0.6666666666666666297 0.6904761904761904656 0.7023809523809523281 0.7142857142857141906 0.7321428571428569843 0.749999999999999889 0.7678571428571427937 0.7857142857142855874 0.7976190476190474499 0.8095238095238094234 0.8333333333333332593 0.8452380952380951218 0.851190476190476053 0.8571428571428570953 0.875 0.8928571428571427937 0.9107142857142856984 0.9285714285714286031 0.9464285714285713969 0.9642857142857143016 0.9732142857142858094 0.9821428571428572063 0.9910714285714286031 0.9955357142857143016 0.9977678571428572063 0.9988839285714286031 0.9994419642857143016 
	0 
	0 
	0 
	F 1 F 0 F 1 F 0 } I I I I #
tcoedge-coedge $-1 -1 $-1 $14 $14 $18 $19 reversed $9 $20 -6.283185307179586232 -4.08391938306541452e-31 #
tcoedge-coedge $-1 -1 $-1 $21 $22 $11 $16 reversed $12 $23 -6.283185307179586232 4.08391938306541452e-31 #
tedge-edge $-1 -1 $-1 $24 -4.08391938306541452e-31 $24 6.283185307179586232 $15 $25 forward @7 unknown 0.0007418805022324727241 #
pcurve $-1 -1 $-1 0 forward { exppc nurbs 2 periodic 5 
	-4.08391938306541452e-31 2 1.570796326794896558 2 3.141592653589793116 2 4.712388980384689674 2 6.283185307179586232 2 
	0 500 1 
	-500 500 0.7071067811865451302 
	-500 0 1 
	-500 -500.0000000000004547 0.7071067811865451302 
	0 -500.0000000000004547 1 
	500 -500.0000000000004547 0.7071067811865476838 
	500 0 1 
	500 500 0.7071067811865451302 
	0 500 1 
	0 
	plane 1358.360864735730956 3095.61912162156068 14000.00000000000364 0.9999999998569973902 -1.691169161366488208e-05 -5.197112581643629645e-15 -5.197112582386830492e-15 0 -1 forward_v I I I I 
	} 0 0 #
tcoedge-coedge $-1 -1 $-1 $22 $21 $14 $19 forward $12 $26 4.08391938306541452e-31 6.283185307179586232 #
tedge-edge $-1 -1 $-1 $27 4.08391938306541452e-31 $27 6.283185307179586232 $18 $28 forward @7 unknown 0.0007418805039660026019 #
pcurve $-1 -1 $-1 0 forward { exppc nurbs 2 periodic 5 
	-6.283185307179586232 2 -4.712388980384689674 2 -3.141592653589793116 2 -1.570796326794896558 2 -4.08391938306541452e-31 2 
	0 500.0000000000004547 1 
	500 500.0000000000004547 0.7071067811865451302 
	500 0 1 
	500 -500 0.7071067811865476838 
	0 -500 1 
	-500 -500 0.7071067811865451302 
	-500 0 1 
	-500 500.0000000000004547 0.7071067811865451302 
	0 500.0000000000004547 1 
	0 
	plane 1008.360864791441713 3095.625040713625367 14000.00000000000182 -0.9999999998569973902 1.691169161366488208e-05 -5.197112581643629645e-15 5.197112582386830492e-15 0 -1 reverse_v I I I I 
	} 0 0 #
coedge $-1 -1 $-1 $18 $15 $22 $29 reversed $12 $30 #
coedge $-1 -1 $-1 $15 $18 $21 $29 forward $12 $31 #
pcurve $-1 -1 $-1 0 forward { exppc nubs 1 periodic 2 
	-6.283185307179586232 1 4.08391938306541452e-31 1 
	1 1 
	0 1 
	0 
	spline forward { ref 0 } I I I I 
	} 0 0 #
tvertex-vertex $-1 -1 $-1 $16 $32 0.000103589043836816393 #
ellipse-curve $-1 -1 $-1 1358.360864735730956 3095.61912162156068 14000.00000000000364 0.9999999998569973902 -1.691169161366488208e-05 -5.197112581643629645e-15 0.008455845806832441164 499.9999999284987666 -1.389064320577083122e-61 1 I I #
pcurve $-1 -1 $-1 0 forward { exppc nubs 1 periodic 2 
	4.08391938306541452e-31 1 6.283185307179586232 1 
	0 0 
	1 0 
	0 
	spline forward { ref 0 } I I I I 
	} 0 0 #
tvertex-vertex $-1 -1 $-1 $19 $33 0.0001035890412874730069 #
ellipse-curve $-1 -1 $-1 1008.360864791441713 3095.625040713625367 14000.00000000000182 0.9999999998569973902 -1.691169161366488208e-05 5.197112581643629645e-15 0.008455845806832441164 499.9999999284987666 -7.174648137343063403e-43 1 I I #
edge $-1 -1 $-1 $27 0 $24 1 $22 $34 forward @7 tangent #
pcurve $-1 -1 $-1 -1 $34 0 0 #
pcurve $-1 -1 $-1 1 $34 1 0 #
point $-1 -1 $-1 1358.36932058153775 3595.61912155005939 14000.00000000000364 #
point $-1 -1 $-1 1008.369320637248507 3595.625040642124077 14000.00000000000182 #
intcurve-curve $-1 -1 $-1 forward { parcur full nubs 3 open 2 
	0 3 1 3 
	1008.369320638755426 3595.625123129928852 13999.99993733861447 
	1125.035987286852105 3595.623150099240775 13999.99993733861447 
	1241.702653934987211 3595.621177068554061 13999.99993733861447 
	1358.369320583083436 3595.619204037865984 13999.99993733861447 
	0 
	
	spline forward { ref 0 } I I I I 
	null_surface 
	nubs 1 open 2 
	0 1 1 1 
	0 0 
	0 1 
	
	nullbs 
	I I 
	0 
	0 
	0 
	surf1 } F 0 F 1 #
End-of-ACIS-data 