700 0 1 0           
4 LibG 20 ASM 224.0.1.65535 NT 24 Wed Jul 17 15:51:16 2019 
1000 9.999999999999999547e-07 1.000000000000000036e-10 
body $-1 -1 $-1 $1 $-1 $2 #
lump $-1 -1 $-1 $-1 $3 $0 #
transform $-1 -1 1 0 0 0 1 0 0 0 1 0 0 0 1 no_rotate no_reflect no_shear #
shell $-1 -1 $-1 $-1 $-1 $4 $-1 $1 #
face $-1 -1 $-1 $5 $6 $3 $-1 $7 forward single #
face $-1 -1 $-1 $8 $9 $3 $-1 $10 reversed single #
loop $-1 -1 $-1 $-1 $11 $4 #
plane-surface $-1 -1 $-1 308.3608649028628292 3095.636878897754286 14000.00000000000182 0.9999999998569973902 -1.69116916136648787e-05 -5.197112581643629645e-15 -5.197112582386830492e-15 0 -1 forward_v I I I I #
face $-1 -1 $-1 $-1 $12 $3 $-1 $13 forward single #
loop $-1 -1 $-1 $-1 $14 $5 #
plane-surface $-1 -1 $-1 -391.6391349857160549 3095.64871708188366 14000.00000000000182 0.9999999998569973902 -1.69116916136648787e-05 0 0 0 -1 forward_v I I I I #
tcoedge-coedge $-1 -1 $-1 $11 $11 $15 $16 forward $6 $17 1.824567657156685428e-31 6.283185307179586232 #
loop $-1 -1 $-1 $-1 $18 $8 #
spline-surface $-1 -1 $-1 forward { exactsur full nubs 3 3 periodic open none none 89 2 
	0 3 0.001116071428571428509 1 0.002232142857142857019 1 0.004464285714285714038 1 0.008928571428571428076 1 
	0.01785714285714285615 1 0.02678571428571428423 1 0.0357142857142857123 1 0.05357142857142856845 1 0.07142857142857142461 1 
	0.08928571428571427382 1 0.1071428571428571369 1 0.1160714285714285754 1 0.125 1 0.1339285714285714246 1 
	0.1428571428571428492 1 0.1587301587301587213 1 0.1746031746031745935 1 0.1904761904761904656 1 0.2023809523809523836 1 
	0.2142857142857142738 1 0.238095238095238082 1 0.2619047619047618625 1 0.2857142857142856984 1 0.2916666666666666297 1 
	0.2931547619047618625 1 0.2946428571428570953 1 0.2961309523809523281 1 0.2976190476190476164 1 0.3095238095238095344 1 
	0.3214285714285713969 1 0.3333333333333333148 1 0.3452380952380952328 1 0.3571428571428570953 1 0.3690476190476190133 1 
	0.3809523809523809312 1 0.3928571428571428492 1 0.4047619047619047672 1 0.4166666666666666297 1 0.4285714285714285476 1 
	0.4444444444444444198 1 0.4603174603174602919 1 0.476190476190476164 1 0.4841269841269840724 1 0.4880952380952380265 1 
	0.4900793650793650036 1 0.4920634920634920362 1 0.5079365079365079083 1 0.5158730158730158166 1 0.5198412698412697708 1 
	0.5238095238095237249 1 0.5476190476190475609 1 0.5714285714285713969 1 0.5833333333333332593 1 0.5952380952380951218 1 
	0.6071428571428569843 1 0.6190476190476189577 1 0.6349206349206348854 1 0.650793650793650702 1 0.6666666666666666297 1 
	0.6904761904761904656 1 0.7023809523809523281 1 0.7142857142857141906 1 0.7321428571428569843 1 0.749999999999999889 1 
	0.7678571428571427937 1 0.7767857142857141906 1 0.7857142857142855874 1 0.7916666666666665186 1 0.7976190476190474499 1 
	0.8095238095238094234 1 0.8333333333333332593 1 0.8452380952380951218 1 0.8571428571428570953 1 0.875 1 
	0.8928571428571427937 1 0.9107142857142856984 1 0.9285714285714286031 1 0.9464285714285713969 1 0.9642857142857143016 1 
	0.9821428571428572063 1 0.9910714285714286031 1 0.9955357142857143016 1 0.9977678571428572063 1 0.9988839285714286031 1 
	0.9994419642857143016 1 0.9997209821428572063 1 0.9998604910714286031 1 1 3 
	0 3 1 3 
	-391.6306791473720068 3595.648773509304647 13999.99987090258037 
	-391.6306791473718931 3595.648773504210112 14001.16861816469464 
	-391.6306792859703023 3595.640577518383452 14003.50611265996122 
	-391.6306801175818464 3595.591403247453854 14008.18087169840692 
	-391.6306830281145608 3595.419298909434474 14016.36049325138629 
	-391.6306946683725414 3594.730994500243014 14032.71007867224034 
	-391.6307279060042674 3592.765605584257173 14056.01148264569747 
	-391.6307942464630401 3588.842825931902553 14083.79689362019053 
	-391.6309176827921306 3581.543926393461788 14120.49267822779439 
	-391.6311368928955403 3568.581803318626044 14165.4862581010384 
	-391.6315005365898969 3547.079242919975059 14217.39726868814796 
	-391.6319601790578417 3519.90019147287876 14266.57466404955449 
	-391.6324184109054158 3492.804612850562535 14304.76194102603404 
	-391.6328266466649097 3468.665330132869713 14333.34778190450561 
	-391.6331526642114227 3449.387677204112606 14353.73868543256867 
	-391.6334975085782162 3428.996779000662173 14373.0163782376294 
	-391.6339540888439501 3401.998863303420421 14395.81433440733053 
	-391.6345396866068427 3367.372025716060307 14420.70966622489686 
	-391.6352709401681977 3324.132495268176172 14445.67373285062968 
	-391.6359764556358414 3282.41486997857146 14464.4976671355289 
	-391.6366402586763229 3243.163732281561352 14478.23141068792756 
	-391.6374554154207885 3194.962942757659221 14491.1484171298307 
	-391.6385007143342705 3133.153690264085526 14500.46570271443488 
	-391.6397692566626461 3058.143885224550104 14500.46570403107944 
	-391.6407100282057172 3002.515404556896101 14492.08090084998912 
	-391.6412472806467804 2970.747295337503601 14484.20141205406071 
	-391.6413998255306979 2961.727210916943022 14481.73930634283352 
	-391.6414758998311072 2957.228884939243926 14480.4660883399265 
	-391.6415517695347717 2952.742656937142783 14479.15088755868419 
	-391.6418039643558586 2937.83020275160743 14474.62725540207066 
	-391.64222713691953 2912.807713606555808 14465.87148131461254 
	-391.6428072643772111 2878.504374073238978 14450.90504824979689 
	-391.6433668550366178 2845.415389104484348 14433.41697876474791 
	-391.6439027793246055 2813.72581343481761 14413.50506244371718 
	-391.6444120407971923 2783.61282995334841 14391.28073793355361 
	-391.6448917901079199 2755.244919464129453 14366.86811681953623 
	-391.6453393453979857 2728.780664705469007 14340.4038676417531 
	-391.6457522033189207 2704.368088830280158 14312.03592556225703 
	-391.6461280550288961 2682.143716805422173 14281.92295943011595 
	-391.6464647977704203 2662.231885513554516 14250.23336285306323 
	-391.646793414114768 2642.800573373410316 14213.46787991944439 
	-391.6470940708132389 2625.022534689536315 14171.29395335216032 
	-391.6473429511566451 2610.306067474092288 14123.58340811693051 
	-391.6474823765798874 2602.061745329313453 14082.80121986714221 
	-391.6475435611550893 2598.443858975374042 14053.92911923374413 
	-391.647565001293458 2597.176088776335291 14039.43893325871068 
	-391.6475746309490091 2596.606680587112805 14031.14720798411145 
	-391.6475943355834488 2595.441531946803025 14010.40176047222121 
	-391.6475943300913514 2595.44185676196912 13983.35712441904434 
	-391.6475575544793628 2597.616424186959648 13954.34061083219785 
	-391.6475260763924098 2599.47774523697899 13937.82167314267099 
	-391.6474492235855109 2604.022104966142706 13904.88675896917084 
	-391.6472453668298499 2616.076296827734041 13852.0713767548732 
	-391.6468591483073851 2638.913666098307658 13793.88480395190709 
	-391.6464647895763278 2662.232371617125409 13749.76679088394121 
	-391.6461280548595596 2682.143729186911514 13718.07696995524384 
	-391.6457521995471893 2704.368314606636886 13687.96412964020237 
	-391.6452934731910887 2731.493122752784984 13656.44408551183551 
	-391.644739385674086 2764.256702199169922 13624.48698967073869 
	-391.6440792214414728 2803.292670677848946 13593.35754037682455 
	-391.6432517179416095 2852.223526300614594 13561.75283162803862 
	-391.6424262822567357 2901.032112065388901 13538.24845660610299 
	-391.6416297115941916 2948.133887494352166 13521.76851634606282 
	-391.6409164499741564 2990.309542115440308 13510.46668311611575 
	-391.6400837283528631 3039.548952484170968 13502.10057259513451 
	-391.6391349857360069 3095.648764440928971 13498.94993130188413 
	-391.6383443680060168 3142.398544565362045 13501.57562543485619 
	-391.6377178367962415 3179.445770001701476 13506.80616785075654 
	-391.6373041126825001 3203.909565171943996 13511.67225413597771 
	-391.6369459425030755 3225.088416247956957 13516.92470227439117 
	-391.6365406889683527 3249.051340059056656 13523.82844789488263 
	-391.6358436900918605 3290.265368271976058 13538.24852863546766 
	-391.6350817485637208 3335.319513763607119 13559.94466147770981 
	-391.6343671961420227 3377.571503672766084 13586.49532459745933 
	-391.633773051690298 3412.703683931283649 13612.42304129997501 
	-391.6331432398946504 3449.944913920842282 13645.70378305449776 
	-391.6325100545523696 3487.385619924616549 13687.60015822839523 
	-391.6319601767229415 3519.900312987324014 13733.42495474852694 
	-391.6315005316857309 3547.079508303495459 13782.60228534668386 
	-391.6311368931597485 3568.581769078433808 13834.51342947533703 
	-391.6308738336910551 3584.136723369479114 13888.50569201932558 
	-391.6307411967310941 3591.979716386600558 13934.66765661027966 
	-391.6306946690389736 3594.730956030135076 13967.28966551371741 
	-391.6306830279684164 3595.419308386200555 13983.63924707989281 
	-391.6306801176057206 3595.591402133765769 13991.81887015922621 
	-391.6306793899216814 3595.634431166001377 13995.90928417247233 
	-391.6306792080112587 3595.645187803589579 13997.95456678867595 
	-391.6306791625313508 3595.647877103166138 13998.97721749345874 
	-391.6306791495376274 3595.648645449095966 13999.56159067883709 
	-391.6306791473720068 3595.648773509941748 13999.85377749481631 
	-391.6306791473720068 3595.648773509304647 13999.99987090258037 
	-158.2973458511788181 3595.644827447928037 13999.99987090258037 
	-158.2973458511785907 3595.644827442833503 14001.16861816469464 
	-158.2973459897772557 3595.636631457006843 14003.50611265996122 
	-158.2973468213885724 3595.587457186077245 14008.18087169840692 
	-158.2973497319214289 3595.415352848057864 14016.36049325138629 
	-158.29736137217904 3594.727048438866404 14032.71007867224034 
	-158.2973946098111355 3592.761659522880564 14056.01148264569747 
	-158.2974609502694534 3588.838879870525943 14083.79689362019053 
	-158.297584386598885 3581.539980332085179 14120.49267822779439 
	-158.2978035967021526 3568.577857257249434 14165.4862581010384 
	-158.2981672403961682 3547.075296858598449 14217.39726868814796 
	-158.2986268828639709 3519.89624541150215 14266.57466404955449 
	-158.2990851147119145 3492.800666789185925 14304.76194102603404 
	-158.299493350470982 3468.661384071493103 14333.34778190450561 
	-158.2998193680175802 3449.383731142735996 14353.73868543256867 
	-158.3001642123842885 3428.992832939285563 14373.0163782376294 
	-158.3006207926502213 3401.994917242043812 14395.81433440733053 
	-158.3012063904127444 3367.368079654683697 14420.70966622489686 
	-158.3019376439742416 3324.128549206799562 14445.67373285062968 
	-158.3026431594418852 3282.41092391719485 14464.4976671355289 
	-158.303306962482111 3243.159786220184742 14478.23141068792756 
	-158.3041221192268324 3194.958996696282611 14491.1484171298307 
	-158.3051674181400017 3133.149744202708916 14500.46570271443488 
	-158.3064359604688889 3058.139939163173494 14500.46570403107944 
	-158.3073767320111642 3002.511458495519491 14492.08090084998912 
	-158.3079139844529379 2970.743349276126992 14484.20141205406071 
	-158.3080665293365143 2961.723264855566413 14481.73930634283352 
	-158.3081426036370374 2957.224938877867316 14480.4660883399265 
	-158.3082184733409008 2952.738710875766174 14479.15088755868419 
	-158.3084706681614193 2937.826256690230821 14474.62725540207066 
	-158.3088938407258013 2912.803767545179198 14465.87148131461254 
	-158.3094739681830561 2878.500428011862368 14450.90504824979689 
	-158.3100335588426901 2845.411443043107738 14433.41697876474791 
	-158.3105694831306778 2813.721867373441 14413.50506244371718 
	-158.3110787446031509 2783.6088838919718 14391.28073793355361 
	-158.3115584939141058 2755.240973402752843 14366.86811681953623 
	-158.3120060492041148 2728.776718644092398 14340.4038676417531 
	-158.3124189071252772 2704.364142768903548 14312.03592556225703 
	-158.3127947588349684 2682.139770744045563 14281.92295943011595 
	-158.313131501577061 2662.227939452177907 14250.23336285306323 
	-158.3134601179208119 2642.796627312033706 14213.46787991944439 
	-158.3137607746199933 2625.018588628159705 14171.29395335216032 
	-158.3140096549629163 2610.302121412715678 14123.58340811693051 
	-158.3141490803866986 2602.057799267936844 14082.80121986714221 
	-158.3142102649616731 2598.439912913997432 14053.92911923374413 
	-158.3142317051001555 2597.172142714958682 14039.43893325871068 
	-158.3142413347559341 2596.602734525736196 14031.14720798411145 
	-158.3142610393895779 2595.437585885426415 14010.40176047222121 
	-158.3142610338987879 2595.437910700592511 13983.35712441904434 
	-158.3142242582858614 2597.612478125583038 13954.34061083219785 
	-158.3141927801993347 2599.47379917560238 13937.82167314267099 
	-158.3141159273923222 2604.018158904766096 13904.88675896917084 
	-158.3139120706370022 2616.072350766357431 13852.0713767548732 
	-158.3135258521144806 2638.909720036931049 13793.88480395190709 
	-158.3131314933835085 2662.2284255557488 13749.76679088394121 
	-158.312794758666854 2682.139783125534905 13718.07696995524384 
	-158.3124189033544553 2704.364368545260277 13687.96412964020237 
	-158.3119601769984968 2731.489176691408375 13656.44408551183551 
	-158.3114060894814656 2764.252756137793313 13624.48698967073869 
	-158.3107459252488525 2803.288724616472336 13593.35754037682455 
	-158.309918421749444 2852.219580239237985 13561.75283162803862 
	-158.3090929860641722 2901.028166004012292 13538.24845660610299 
	-158.3082964154019692 2948.129941432975556 13521.76851634606282 
	-158.3075831537814793 2990.305596054063699 13510.46668311611575 
	-158.306750432160527 3039.545006422794359 13502.10057259513451 
	-158.3058016895436424 3095.644818379552362 13498.94993130188413 
	-158.3050110718133965 3142.394598503985435 13501.57562543485619 
	-158.304384540604218 3179.441823940324866 13506.80616785075654 
	-158.3039708164896524 3203.905619110567386 13511.67225413597771 
	-158.303612646311052 3225.084470186580347 13516.92470227439117 
	-158.3032073927757324 3249.047393997680047 13523.82844789488263 
	-158.3025103938993539 3290.261422210599449 13538.24852863546766 
	-158.3017484523713563 3335.31556770223051 13559.94466147770981 
	-158.3010338999494309 3377.567557611389475 13586.49532459745933 
	-158.300439755497905 3412.69973786990704 13612.42304129997501 
	-158.2998099437019732 3449.940967859465673 13645.70378305449776 
	-158.2991767583594651 3487.381673863239939 13687.60015822839523 
	-158.2986268805304917 3519.896366925947405 13733.42495474852694 
	-158.2981672354924854 3547.075562242118849 13782.60228534668386 
	-158.2978035969673556 3568.577823017057199 13834.51342947533703 
	-158.2975405374971842 3584.132777308102504 13888.50569201932558 
	-158.297407900538758 3591.975770325223948 13934.66765661027966 
	-158.2973613728452165 3594.727009968758466 13967.28966551371741 
	-158.2973497317755971 3595.415362324823946 13983.63924707989281 
	-158.2973468214123614 3595.587456072389159 13991.81887015922621 
	-158.2973460937286063 3595.630485104624768 13995.90928417247233 
	-158.2973459118179846 3595.641241742212969 13997.95456678867595 
	-158.2973458663380484 3595.643931041789529 13998.97721749345874 
	-158.2973458533444671 3595.644699387719356 13999.56159067883709 
	-158.2973458511788181 3595.644827448565138 13999.85377749481631 
	-158.2973458511788181 3595.644827447928037 13999.99987090258037 
	75.03598746005886255 3595.640881386552337 13999.99987090258037 
	75.03598746005877729 3595.640881381458712 14001.16861816469464 
	75.03598732144288874 3595.632685395631142 14003.50611265996122 
	75.03598648981650854 3595.583511124701545 14008.18087169840692 
	75.03598357920733974 3595.411406786680345 14016.36049325138629 
	75.03597193870976412 3594.723102377491159 14032.71007867224034 
	75.03593870032881341 3592.757713461504409 14056.01148264569747 
	75.03587235918882925 3588.834933809150243 14083.79689362019053 
	75.03574892212918712 3581.536034270709933 14120.49267822779439 
	75.03552970965847635 3568.573911195874189 14165.4862581010384 
	75.03516606421993629 3547.071350797222749 14217.39726868814796 
	75.03470641948507591 3519.89229935012645 14266.57466404955449 
	75.03424818724056422 3492.79672072780977 14304.76194102603404 
	75.03383995086338132 3468.657438010116493 14333.34778190450561 
	75.03351393300448535 3449.379785081360296 14353.73868543256867 
	75.03316908825257769 3428.988886877909408 14373.0163782376294 
	75.03271250770325196 3401.990971180668112 14395.81433440733053 
	75.03212690880383207 3367.364133593307088 14420.70966622489686 
	75.03139565516511311 3324.124603145423407 14445.67373285062968 
	75.03069013943658661 3282.40697785581915 14464.4976671355289 
	75.03002633622440953 3243.155840158809042 14478.23141068792756 
	75.02921117922369376 3194.95505063490782 14491.1484171298307 
	75.02816588012467491 3133.145798141333671 14500.46570271443488 
	75.02689733714851172 3058.135993101798249 14500.46570403107944 
	75.02595656530652946 3002.507512434145156 14492.08090084998912 
	75.0254193128205884 2970.739403214752201 14484.20141205406071 
	75.02526676793260663 2961.719318794191622 14481.73930634283352 
	75.02519069362980986 2957.220992816492526 14480.4660883399265 
	75.02511482392492326 2952.734764814391383 14479.15088755868419 
	75.02486262909394554 2937.82231062885603 14474.62725540207066 
	75.02443945642988865 2912.799821483803498 14465.87148131461254 
	75.02385932889745845 2878.496481950487578 14450.90504824979689 
	75.02329973814755704 2845.407496981732493 14433.41697876474791 
	75.02276381378322867 2813.717921312066665 14413.50506244371718 
	75.02225455227775797 2783.604937830597009 14391.28073793355361 
	75.02177480289068967 2755.237027341377598 14366.86811681953623 
	75.0213272475548365 2728.772772582717607 14340.4038676417531 
	75.02091438957376113 2704.360196707528303 14312.03592556225703 
	75.02053853783468185 2682.135824682670773 14281.92295943011595 
	75.02020179507729836 2662.223993390803116 14250.23336285306323 
	75.01987317870765537 2642.792681250658916 14213.46787991944439 
	75.01957252199196091 2625.014642566784914 14171.29395335216032 
	75.01932364162794897 2610.298175351340888 14123.58340811693051 
	75.01918421618520938 2602.053853206562053 14082.80121986714221 
	75.01912303160483475 2598.435966852622641 14053.92911923374413 
	75.0191015914657271 2597.168196653583891 14039.43893325871068 
	75.01909196181020434 2596.59878846436095 14031.14720798411145 
	75.01907225717479832 2595.43363982405117 14010.40176047222121 
	75.01907226266965267 2595.43396463921772 13983.35712441904434 
	75.0191090382838297 2597.608532064207793 13954.34061083219785 
	75.01914051637237435 2599.469853114227135 13937.82167314267099 
	75.01921736918458805 2604.014212843390851 13904.88675896917084 
	75.01942122597637308 2616.068404704981731 13852.0713767548732 
	75.019807444540902 2638.905773975555348 13793.88480395190709 
	75.02020180331749089 2662.224479494373554 13749.76679088394121 
	75.02053853807404948 2682.135837064159659 13718.07696995524384 
	75.02091439342581225 2704.360422483885031 13687.96412964020237 
	75.02137311984438384 2731.485230630032675 13656.44408551183551 
	75.02192720742272058 2764.248810076418067 13624.48698967073869 
	75.02258737170595282 2803.284778555096636 13593.35754037682455 
	75.02341487527883146 2852.21563417786183 13561.75283162803862 
	75.02424031108137115 2901.024219942636591 13538.24845660610299 
	75.02503688181187158 2948.125995371598947 13521.76851634606282 
	75.02575014351120331 2990.301649992687544 13510.46668311611575 
	75.02658286531581666 3039.541060361418204 13502.10057259513451 
	75.02753160811522548 3095.640872318176207 13498.94993130188413 
	75.02832222608677171 3142.390652442609735 13501.57562543485619 
	75.02894875737092661 3179.437877878949166 13506.80616785075654 
	75.02936248156723309 3203.901673049191686 13511.67225413597771 
	75.02972065177993954 3225.080524125204192 13516.92470227439117 
	75.03012590539194093 3249.043447936304347 13523.82844789488263 
	75.03082290437274082 3290.257476149223749 13538.24852863546766 
	75.031584846414205 3335.31162164085481 13559.94466147770981 
	75.03229939919557978 3377.56361155001332 13586.49532459745933 
	75.03289354391037591 3412.69579180853043 13612.42304129997501 
	75.03352335642239268 3449.937021798089518 13645.70378305449776 
	75.03415654235789134 3487.377727801863784 13687.60015822839523 
	75.03470642131790669 3519.892420864570795 13733.42495474852694 
	75.03516606837882819 3547.071616180742694 13782.60228534668386 
	75.03552970883055195 3568.573876955681044 13834.51342947533703 
	75.03579277030308958 3584.128831246726349 13888.50569201932558 
	75.03592540962111457 3591.971824263848248 13934.66765661027966 
	75.03597193807135568 3594.723063907382766 13967.28966551371741 
	75.03598357937866581 3595.4114162634487 13983.63924707989281 
	75.03598648980130292 3595.58351001101255 13991.81887015922621 
	75.03598721750290679 3595.626539043249068 13995.90928417247233 
	75.03598739941747908 3595.637295680836814 13997.95456678867595 
	75.03598744489886485 3595.639984980413374 13998.97721749345874 
	75.03598745789298619 3595.640753326343201 13999.56159067883709 
	75.03598746005886255 3595.640881387188983 13999.85377749481631 
	75.03598746005886255 3595.640881386552337 13999.99987090258037 
	308.3693207562512271 3595.636935325175727 13999.99987090258037 
	308.3693207562509428 3595.636935320082102 14001.16861816469464 
	308.3693206176354806 3595.628739334254533 14003.50611265996122 
	308.3693197860087594 3595.579565063324935 14008.18087169840692 
	308.3693168753997043 3595.407460725303736 14016.36049325138629 
	308.369305234902356 3594.71915631611455 14032.71007867224034 
	308.3692719965210927 3592.753767400127799 14056.01148264569747 
	308.3692056553815632 3588.830987747773634 14083.79689362019053 
	308.3690822183216369 3581.532088209333324 14120.49267822779439 
	308.3688630058510967 3568.569965134497579 14165.4862581010384 
	308.3684993604126703 3547.067404735846139 14217.39726868814796 
	308.3680397156779236 3519.88835328874984 14266.57466404955449 
	308.3675814834334119 3492.792774666433161 14304.76194102603404 
	308.3671732470563143 3468.653491948739884 14333.34778190450561 
	308.366847229197333 3449.375839019983687 14353.73868543256867 
	308.3665023844456528 3428.984940816532799 14373.0163782376294 
	308.3660458038962702 3401.987025119291502 14395.81433440733053 
	308.3654602049967934 3367.360187531930478 14420.70966622489686 
	308.3647289513584155 3324.120657084046798 14445.67373285062968 
	308.3640234356295196 3282.403031794442541 14464.4976671355289 
	308.3633596324178257 3243.151894097432432 14478.23141068792756 
	308.3625444754168257 3194.951104573531211 14491.1484171298307 
	308.3614991763180342 3133.141852079957062 14500.46570271443488 
	308.3602306333417005 3058.132047040421639 14500.46570403107944 
	308.3592898614999172 3002.503566372768546 14492.08090084998912 
	308.3587526090137203 2970.735457153375592 14484.20141205406071 
	308.3586000641258806 2961.715372732815013 14481.73930634283352 
	308.3585239898230839 2957.217046755115916 14480.4660883399265 
	308.3584481201179415 2952.730818753014773 14479.15088755868419 
	308.358195925287248 2937.818364567479421 14474.62725540207066 
	308.3577727526230774 2912.795875422426889 14465.87148131461254 
	308.3571926250904198 2878.492535889110968 14450.90504824979689 
	308.3566330343410868 2845.403550920355883 14433.41697876474791 
	308.3560971099757921 2813.713975250690055 14413.50506244371718 
	308.3555878484714867 2783.6009917692204 14391.28073793355361 
	308.3551080990832816 2755.233081280000988 14366.86811681953623 
	308.3546605437479684 2728.768826521340998 14340.4038676417531 
	308.3542476857664383 2704.356250646151693 14312.03592556225703 
	308.3538718340275864 2682.131878621294163 14281.92295943011595 
	308.3535350912702029 2662.220047329426507 14250.23336285306323 
	308.3532064749002188 2642.788735189282306 14213.46787991944439 
	308.3529058181849223 2625.010696505408305 14171.29395335216032 
	308.3526569378201998 2610.294229289964278 14123.58340811693051 
	308.3525175123780286 2602.049907145185443 14082.80121986714221 
	308.3524563277971993 2598.432020791246032 14053.92911923374413 
	308.3524348876582053 2597.164250592207281 14039.43893325871068 
	308.3524252580023699 2596.594842402984341 14031.14720798411145 
	308.3524055533677029 2595.42969376267456 14010.40176047222121 
	308.3524055588615624 2595.430018577841111 13983.35712441904434 
	308.3524423344763932 2597.604586002831184 13954.34061083219785 
	308.3524738125644262 2599.465907052850525 13937.82167314267099 
	308.3525506653772936 2604.010266782014241 13904.88675896917084 
	308.3527545221679702 2616.064458643605121 13852.0713767548732 
	308.3531407407330107 2638.901827914178739 13793.88480395190709 
	308.3535350995095428 2662.220533432996945 13749.76679088394121 
	308.3538718342656466 2682.13189100278305 13718.07696995524384 
	308.3542476896181483 2704.356476422508422 13687.96412964020237 
	308.3547064160356399 2731.481284568656065 13656.44408551183551 
	308.3552605036146588 2764.244864015041458 13624.48698967073869 
	308.3559206678976352 2803.280832493720027 13593.35754037682455 
	308.3567481714704854 2852.21168811648522 13561.75283162803862 
	308.3575736072727409 2901.020273881259982 13538.24845660610299 
	308.3583701780033266 2948.122049310222337 13521.76851634606282 
	308.3590834397029994 2990.297703931310934 13510.46668311611575 
	308.3599161615069306 3039.537114300041594 13502.10057259513451 
	308.3608649043072205 3095.636926256799597 13498.94993130188413 
	308.361655522277772 3142.386706381233125 13501.57562543485619 
	308.3622820535626943 3179.433931817572557 13506.80616785075654 
	308.3626957777585744 3203.897726987815076 13511.67225413597771 
	308.3630539479715367 3225.076578063827583 13516.92470227439117 
	308.3634592015831686 3249.039501874927737 13523.82844789488263 
	308.3641562005649917 3290.253530087847139 13538.24852863546766 
	308.3649181426050632 3335.3076755794782 13559.94466147770981 
	308.3656326953876032 3377.559665488636711 13586.49532459745933 
	308.3662268401014899 3412.69184574715382 13612.42304129997501 
	308.3668566526145014 3449.933075736712908 13645.70378305449776 
	308.3674898385495453 3487.373781740487175 13687.60015822839523 
	308.3680397175098165 3519.888474803194185 13733.42495474852694 
	308.3684993645709369 3547.067670119366085 13782.60228534668386 
	308.3688630050224901 3568.569930894304434 13834.51342947533703 
	308.3691260664953688 3584.12488518534974 13888.50569201932558 
	308.3692587058133654 3591.967878202471638 13934.66765661027966 
	308.3693052342638339 3594.719117846006156 13967.28966551371741 
	308.3693168755708029 3595.407470202072091 13983.63924707989281 
	308.3693197859937527 3595.57956394963594 13991.81887015922621 
	308.3693205136951292 3595.622592981872458 13995.90928417247233 
	308.3693206956099857 3595.633349619460205 13997.95456678867595 
	308.3693207410912009 3595.636038919036764 13998.97721749345874 
	308.369320754085436 3595.636807264966592 13999.56159067883709 
	308.3693207562512271 3595.636935325812374 13999.85377749481631 
	308.3693207562512271 3595.636935325175727 13999.99987090258037 
	0 
	
	0 
	0 
	86 0 0.002232142857142857019 0.004464285714285714038 0.008928571428571428076 0.01785714285714285615 0.02678571428571428423 0.0357142857142857123 0.05357142857142856845 0.07142857142857142461 0.08928571428571427382 0.1071428571428571369 0.1160714285714285754 0.125 0.1339285714285714246 0.1428571428571428492 0.1587301587301587213 0.1746031746031745935 0.1904761904761904656 0.2023809523809523836 0.2142857142857142738 0.238095238095238082 0.2619047619047618625 0.2857142857142856984 0.2916666666666666297 0.2931547619047618625 0.2946428571428570953 0.2961309523809523281 0.2976190476190476164 0.3095238095238095344 0.3214285714285713969 0.3333333333333333148 0.3452380952380952328 0.3571428571428570953 0.3690476190476190133 0.3809523809523809312 0.3928571428571428492 0.4047619047619047672 0.4166666666666666297 0.4285714285714285476 0.4444444444444444198 0.4603174603174602919 0.476190476190476164 0.4880952380952380265 0.4900793650793650036 0.4920634920634920362 0.5079365079365079083 0.5158730158730158166 0.5198412698412697708 0.5238095238095237249 0.5476190476190475609 0.5714285714285713969 0.5833333333333332593 0.5952380952380951218 0.6071428571428569843 0.6190476190476189577 0.6349206349206348854 0.650793650793650702 0.6666666666666666297 0.6904761904761904656 0.7023809523809523281 0.7142857142857141906 0.7321428571428569843 0.749999999999999889 0.7678571428571427937 0.7767857142857141906 0.7857142857142855874 0.7916666666666665186 0.7976190476190474499 0.8095238095238094234 0.8333333333333332593 0.8452380952380951218 0.8571428571428570953 0.875 0.8928571428571427937 0.9107142857142856984 0.9285714285714286031 0.9464285714285713969 0.9642857142857143016 0.9821428571428572063 0.9910714285714286031 0.9955357142857143016 0.9977678571428572063 0.9988839285714286031 0.9994419642857143016 0.9997209821428572063 0.9998604910714286031 
	0 
	0 
	0 
	F 1 F 0 F 1 F 0 } I I I I #
tcoedge-coedge $-1 -1 $-1 $14 $14 $18 $19 reversed $9 $20 -6.283185307179586232 -0 #
tcoedge-coedge $-1 -1 $-1 $21 $22 $11 $16 reversed $12 $23 -6.283185307179586232 -1.824567657156685428e-31 #
tedge-edge $-1 -1 $-1 $24 1.824567657156685428e-31 $24 6.283185307179586232 $15 $25 forward @7 unknown 0.0007408243455943463876 #
pcurve $-1 -1 $-1 0 forward { exppc nurbs 2 periodic 5 
	1.824567657156685428e-31 2 1.570796326794896558 2 3.141592653589793116 2 4.712388980384689674 2 6.283185307179586232 2 
	0 500 1 
	-500 500 0.7071067811865451302 
	-500 0 1 
	-500 -500 0.7071067811865451302 
	0 -500 1 
	500 -500 0.7071067811865451302 
	500 0 1 
	500 500 0.7071067811865451302 
	0 500 1 
	0 
	plane 308.3608649028628292 3095.636878897754286 14000.00000000000182 0.9999999998569973902 -1.69116916136648787e-05 -5.197112581643629645e-15 -5.197112582386830492e-15 0 -1 forward_v I I I I 
	} 0 0 #
tcoedge-coedge $-1 -1 $-1 $22 $21 $14 $19 forward $12 $26 0 6.283185307179586232 #
tedge-edge $-1 -1 $-1 $27 0 $27 6.283185307179586232 $18 $28 forward @7 unknown 0.000740824344919487239 #
pcurve $-1 -1 $-1 0 forward { exppc nurbs 2 periodic 5 
	-6.283185307179586232 2 -4.712388980384689674 2 -3.141592653589793116 2 -1.570796326794896558 2 0 2 
	0 499.9999999999995453 1 
	500 499.9999999999995453 0.7071067811865451302 
	500 0 1 
	500 -500 0.7071067811865451302 
	0 -500 1 
	-500 -500 0.7071067811865451302 
	-500 0 1 
	-500 499.9999999999995453 0.7071067811865451302 
	0 499.9999999999995453 1 
	0 
	plane -391.6391349857160549 3095.64871708188366 14000.00000000000182 -0.9999999998569973902 1.69116916136648787e-05 -0 0 0 -1 reverse_v I I I I 
	} 0 0 #
coedge $-1 -1 $-1 $18 $15 $22 $29 reversed $12 $30 #
coedge $-1 -1 $-1 $15 $18 $21 $29 forward $12 $31 #
pcurve $-1 -1 $-1 0 forward { exppc nubs 1 periodic 2 
	-6.283185307179586232 1 -1.824567657156685428e-31 1 
	1 1 
	0 1 
	4.411402399617608535e-13 
	spline forward { ref 0 } I I I I 
	} 0 0 #
tvertex-vertex $-1 -1 $-1 $16 $32 0.0001409193931674309415 #
ellipse-curve $-1 -1 $-1 308.3608649028628292 3095.636878897754286 14000.00000000000182 0.9999999998569973902 -1.69116916136648787e-05 -5.197112581643629645e-15 0.008455845806832441164 499.9999999284987666 0 1 I I #
pcurve $-1 -1 $-1 0 forward { exppc nubs 1 periodic 2 
	0 1 6.283185307179586232 1 
	0 0 
	1 0 
	2.726396621713971445e-13 
	spline forward { ref 0 } I I I I 
	} 0 0 #
tvertex-vertex $-1 -1 $-1 $19 $33 0.0001409193929787640155 #
ellipse-curve $-1 -1 $-1 -391.6391349857160549 3095.64871708188366 14000.00000000000182 0.9999999998569973902 -1.69116916136648787e-05 0 0.008455845806832441164 499.9999999284987666 0 1 I I #
edge $-1 -1 $-1 $27 1.202613465579635751e-11 $24 1 $22 $34 forward @7 tangent #
pcurve $-1 -1 $-1 -1 $34 0 0 #
pcurve $-1 -1 $-1 1 $34 1 0 #
point $-1 -1 $-1 308.3693207486696792 3595.636878826252996 14000.00000000000182 #
point $-1 -1 $-1 -391.6306791399092049 3595.64871701038237 14000.00000000000182 #
intcurve-curve $-1 -1 $-1 forward { parcur full nubs 3 open 2 
	0 3 1 3 
	-391.6306791473720068 3595.648773509304647 13999.99987090258037 
	-158.2973458511788181 3595.644827447928037 13999.99987090258037 
	75.03598746005886255 3595.640881386552337 13999.99987090258037 
	308.3693207562512271 3595.636935325175727 13999.99987090258037 
	0 
	
	spline forward { ref 0 } I I I I 
	null_surface 
	nubs 1 open 2 
	0 1 1 1 
	0 0 
	0 1 
	
	nullbs 
	I I 
	0 
	0 
	0 
	surf1 } F 1.202613465579635751e-11 F 1 #
End-of-ACIS-data 