700 0 1 0           
4 LibG 20 ASM 224.0.1.65535 NT 24 Wed Jul 17 15:51:17 2019 
1000 9.999999999999999547e-07 1.000000000000000036e-10 
body $-1 -1 $-1 $1 $-1 $2 #
lump $-1 -1 $-1 $-1 $3 $0 #
transform $-1 -1 1 0 0 0 1 0 0 0 1 0 0 0 1 no_rotate no_reflect no_shear #
shell $-1 -1 $-1 $-1 $-1 $4 $-1 $1 #
face $-1 -1 $-1 $5 $6 $3 $-1 $7 forward single #
face $-1 -1 $-1 $8 $9 $3 $-1 $10 reversed single #
loop $-1 -1 $-1 $-1 $11 $4 #
plane-surface $-1 -1 $-1 8651.331301464639182 1496.356759758717544 14000.00000000000728 0.6213025945046597442 -0.7835707281807930968 5.1971125816436399e-15 8.364865409562781554e-15 0 -1 forward_v I I I I #
face $-1 -1 $-1 $-1 $12 $3 $-1 $13 forward single #
loop $-1 -1 $-1 $-1 $14 $5 #
plane-surface $-1 -1 $-1 8407.572000117948846 1747.516874034476132 14000 0.6964551467160912113 -0.7176003265137690379 0 0 0 -1 forward_v I I I I #
tcoedge-coedge $-1 -1 $-1 $11 $11 $15 $16 forward $6 $17 7.870032685274014695e-29 6.283185307179586232 #
loop $-1 -1 $-1 $-1 $18 $8 #
spline-surface $-1 -1 $-1 forward { exactsur full nubs 3 3 periodic open none none 84 2 
	-1.826318281626126997e-29 3 0.002232142857142857019 1 0.004464285714285714038 1 0.008928571428571428076 1 0.01785714285714285615 1 
	0.0357142857142857123 1 0.05357142857142856845 1 0.0625 1 0.0669642857142857123 1 0.07142857142857142461 1 
	0.08928571428571427382 1 0.1071428571428571369 1 0.125 1 0.1428571428571428492 1 0.1587301587301587213 1 
	0.1746031746031745935 1 0.1825396825396825295 1 0.1904761904761904656 1 0.2023809523809523836 1 0.2142857142857142738 1 
	0.238095238095238082 1 0.2619047619047618625 1 0.2857142857142856984 1 0.3095238095238095344 1 0.3333333333333333148 1 
	0.3340773809523809312 1 0.3348214285714286031 1 0.336309523809523836 1 0.3377976190476190688 1 0.3392857142857143016 1 
	0.3452380952380952328 1 0.3571428571428570953 1 0.3690476190476190133 1 0.3720238095238095344 1 0.375 1 
	0.3779761904761904656 1 0.3809523809523809312 1 0.4047619047619047672 1 0.4166666666666666297 1 0.4285714285714285476 1 
	0.4444444444444444198 1 0.4603174603174602919 1 0.4682539682539682557 1 0.476190476190476164 1 0.4920634920634920362 1 
	0.5079365079365079083 1 0.5238095238095237249 1 0.5357142857142855874 1 0.5476190476190475609 1 0.5595238095238095344 1 
	0.5714285714285713969 1 0.5952380952380951218 1 0.6071428571428569843 1 0.6190476190476189577 1 0.6349206349206348854 1 
	0.650793650793650702 1 0.6666666666666666297 1 0.6785714285714286031 1 0.6904761904761904656 1 0.7023809523809523281 1 
	0.7142857142857141906 1 0.7232142857142855874 1 0.7321428571428569843 1 0.749999999999999889 1 0.7678571428571427937 1 
	0.7857142857142855874 1 0.7976190476190474499 1 0.8095238095238094234 1 0.8333333333333332593 1 0.8571428571428570953 1 
	0.875 1 0.8928571428571427937 1 0.9107142857142856984 1 0.9285714285714286031 1 0.9464285714285713969 1 
	0.9642857142857143016 1 0.9821428571428572063 1 0.9910714285714286031 1 0.9955357142857143016 1 0.9977678571428572063 1 
	0.9988839285714286031 1 0.9994419642857143016 1 0.9997209821428572063 1 1 3 
	0 3 1 3 
	8766.372204824670916 2095.744487564917563 13999.99990324835198 
	8766.372204807206799 2095.744487547975496 14002.33739778240124 
	8766.348677292649882 2095.721653307426095 14007.01238653502878 
	8766.207538396814925 2095.584673282957738 14016.36052639513946 
	8765.713579791814482 2095.105269916719863 14032.71011010270377 
	8763.739255235012024 2093.189121823992537 14065.33209967603761 
	8758.111198760472689 2087.726904559884588 14111.49410815281408 
	8748.809110722140758 2078.698916632166856 14156.48752473390232 
	8740.430912157349667 2070.567594371660562 14187.07267393320217 
	8735.121752187300444 2065.414876836682652 14204.24879859926659 
	8726.642744612787283 2057.185716055119883 14229.6916982215298 
	8712.014940657169063 2042.988942489496367 14266.57468379605234 
	8688.682435661668933 2020.343965074363723 14312.39951600915447 
	8661.814952572958646 1994.268173047017854 14354.29591874240214 
	8632.863536354878306 1966.169854133137051 14390.34980364746298 
	8602.560673174604744 1936.759910687325828 14420.70973005134874 
	8576.703449264061419 1911.664609017999737 14441.5131999112582 
	8555.202987048543946 1890.797690465895357 14455.94151292678725 
	8535.96206743968105 1872.123733677491373 14467.24451782918368 
	8513.428797946280611 1850.254441077064257 14478.2316189500325 
	8478.839891355646614 1816.684748974655349 14491.14850730734361 
	8434.485520584039477 1773.637346874649438 14500.46617388517552 
	8380.658590356591958 1721.396508621980047 14500.46539317047973 
	8327.433076649756913 1669.739365241320684 14489.28611443667796 
	8275.997622493181552 1619.819534596640551 14467.17644765466321 
	8243.161647218948929 1587.951121036230461 14445.14066605213338 
	8226.720478556653688 1571.994416294462326 14431.84101009664846 
	8224.791479023817374 1570.122257652635653 14430.26379734130933 
	8222.39019819157329 1567.791734194760011 14428.26873033978518 
	8219.524844569301422 1565.010812554036193 14425.83722354738711 
	8213.82702330144275 1559.480886214204475 14420.89973909060609 
	8201.66250255605155 1547.674811485184819 14409.80095443320351 
	8183.654938177199256 1530.197867247514523 14391.28068261539192 
	8168.387331474028542 1515.380143685381881 14372.97123322759217 
	8158.635810483343448 1505.915966020833366 14360.1238176791212 
	8153.84706319522229 1501.268326419923596 14353.57422699379094 
	8149.147095997081124 1496.706850869261189 14346.90093079792314 
	8133.781350866894172 1481.793880677304969 14324.25273103584186 
	8115.603216476308262 1464.15139253154689 14292.48662145712478 
	8096.5522570433277 1445.661798454275186 14250.2330805804977 
	8082.608033424629866 1432.128462490860329 14213.46795771777943 
	8069.850690920712623 1419.747034393665217 14171.29384798815227 
	8061.050279476695323 1411.205940393361061 14131.53514095617902 
	8055.740334471373899 1406.052460954867456 14099.11412461516557 
	8051.596267075744436 1402.030504777600754 14066.36469278534969 
	8048.6232756334839 1399.145117028074083 14024.96430597391554 
	8048.623455111308431 1399.145291217267413 13975.0357167369657 
	8051.89342557337568 1402.3189070500664 13929.49526024057923 
	8057.441502128322099 1407.703501131490157 13888.63578512752792 
	8064.392342447399642 1414.449524419491809 13852.4848277864894 
	8073.26304337073725 1423.058836713078563 13817.1592866542851 
	8087.58176294266832 1436.955633539452492 13771.42062832833653 
	8105.52391089169123 1454.369088941262817 13728.11416935760826 
	8126.789302416036662 1475.007863516220368 13687.96450908773113 
	8146.253797887750807 1493.898808166731214 13656.44420300044476 
	8169.765103656827705 1516.717317723463793 13624.48738512199634 
	8197.777211044518481 1543.904005966926661 13593.35754746211023 
	8225.366177931298807 1570.680022184694508 13568.52628210052535 
	8251.749229861368804 1596.285657555128864 13549.09539039053743 
	8276.36525150504167 1620.176330861472252 13534.12884937727722 
	8301.715115343737125 1644.779222591423604 13521.76788237037908 
	8325.495121263400506 1667.858514642211958 13512.88848296130709 
	8347.439189551014351 1689.155967742298799 13506.80597859591217 
	8374.024282092505018 1714.957690291834297 13501.57540496803995 
	8407.571960016701269 1747.51683510590351 13498.9497657613465 
	8447.829216907246519 1786.587850986359626 13502.10040140729689 
	8483.163436792374341 1820.880894598126361 13510.46651634450063 
	8513.428735553634397 1850.254380519950701 13521.76832896479391 
	8547.228892509287107 1883.058564689571995 13538.2483846717605 
	8587.642899432194099 1922.281711725483092 13565.36800356562344 
	8628.409924455316286 1961.8474746474119 13604.10244976699869 
	8661.81491995671422 1994.268141391372637 13645.7039077409554 
	8688.682605018026152 2020.344129439885592 13687.60002777601585 
	8712.014950864713683 2042.988952395555998 13733.42506114753996 
	8731.518863807992602 2061.918153017340046 13782.60228655609171 
	8746.9488662885542 2076.893487113891752 13834.51347474780232 
	8758.111140733457432 2087.726848241192783 13888.50571538131953 
	8763.739280690497253 2093.189146528689434 13934.66769017287879 
	8765.713577553489813 2095.105267744108005 13967.28969714374762 
	8766.207540138650074 2095.5846749733455 13983.63927938376764 
	8766.331035017672548 2095.704530888660429 13991.81890245433169 
	8766.361912701939218 2095.734498715177324 13995.90931650707898 
	8766.369631709798341 2095.741990270771112 13997.95459912840852 
	8766.371837214350307 2095.744130786791629 13999.12334279315655 
	8766.372204826853704 2095.744487567035321 13999.70771643159605 
	8766.372204824670916 2095.744487564917563 13999.99990324835198 
	8858.620372295403286 1999.499024016332896 13999.9999032483538 
	8858.620372599398252 1999.499023633190745 14002.33739778240306 
	8858.596122890134211 1999.477012106676284 14007.0123865350306 
	8858.450661055470846 1999.344956713222928 14016.36052639514128 
	8857.941562181178597 1998.882800928470715 14032.71011010270558 
	8855.906741041022542 1997.035569691246337 14065.33209967603943 
	8850.106216633445001 1991.769825466787097 14111.4941081528159 
	8840.519076652784861 1983.066564696057867 14156.48752473390414 
	8831.884134622983765 1975.227720973980013 14187.07267393320399 
	8826.412280699660187 1970.26034209859813 14204.24879859926841 
	8817.673446839509779 1962.32717176129222 14229.69169822153162 
	8802.597386621382611 1948.641045415044118 14266.57468379605416 
	8778.549881776467373 1926.810585755701368 14312.39951600915629 
	8750.859071398099331 1901.672716577989604 14354.29591874240396 
	8721.020469561719437 1874.585067022118665 14390.3498036474648 
	8689.789003549825793 1846.232974840262386 14420.70973005135056 
	8663.139413577308005 1822.040325426165055 14441.51319991126002 
	8640.980089508735546 1801.923973015248521 14455.94151292678907 
	8621.149552885823141 1783.921699622935193 14467.2445178291855 
	8597.92577232073927 1762.839027507692435 14478.23161895003432 
	8562.276926153908789 1730.476803638433921 14491.14850730734543 
	8516.563355795311509 1688.977782560005153 14500.46617388517734 
	8461.086957049852572 1638.615995605926628 14500.46539317048155 
	8406.23039920093106 1588.816914734359898 14489.28611443667978 
	8353.218761960288248 1540.692649654341949 14467.17644765466503 
	8319.376554644395583 1509.970521460348436 14445.1406660521352 
	8302.431570867920527 1494.587755799085244 14431.84101009665028 
	8300.443458175697742 1492.782938035667939 14430.26379734131115 
	8297.96859328685423 1490.536240498443021 14428.268730339787 
	8295.015433227203175 1487.855346714196912 14425.83722354738893 
	8289.14300885305056 1482.52432577330751 14420.89973909060791 
	8276.605717566912062 1471.142905992847545 14409.80095443320533 
	8258.046331356241353 1454.294589412116011 14391.28068261539374 
	8242.310862404116051 1440.009847932914909 14372.97123322759398 
	8232.260518317567403 1430.886085329459775 14360.12381767912302 
	8227.325021462942459 1426.405620767354094 14353.57422699379276 
	8222.481034671853195 1422.008210308081061 14346.90093079792496 
	8206.644400003104238 1407.631670844730252 14324.25273103584368 
	8187.909230448952258 1390.623749309992718 14292.4866214571266 
	8168.274472494736983 1372.799210283765433 14250.23308058049952 
	8153.902943400425102 1359.752654698441347 14213.46795771778125 
	8140.754664393452913 1347.816575958151589 14171.29384798815408 
	8131.684567865282588 1339.582703406486189 14131.53514095618084 
	8126.211908897569629 1334.614585421693164 14099.11412461516738 
	8121.940846950357809 1330.73729964853419 14066.36469278535151 
	8118.876755374690219 1327.955691887598732 14024.96430597391736 
	8118.876934850453836 1327.955866079139696 13975.03571673696752 
	8122.247115235117235 1331.015324179838899 13929.49526024058105 
	8127.965208732031897 1336.206237356110705 13888.63578512752974 
	8135.129046404505061 1342.709617059755828 13852.48482778649122 
	8144.271587538481981 1351.009252814970296 13817.15928665428692 
	8159.029084081918882 1364.40620109674046 13771.42062832833835 
	8177.521051242555586 1381.19331019833794 13728.11416935761008 
	8199.438105062843533 1401.089720266145832 13687.96450908773295 
	8219.499063452787595 1419.301182762967755 13656.44420300044658 
	8243.730855104331567 1441.298924952341622 13624.48738512199816 
	8272.601359031019456 1467.507739951366148 13593.35754746211205 
	8301.03576692819297 1493.320641680366634 13568.52628210052717 
	8328.227299071084417 1518.005267781938755 13549.09539039053925 
	8353.597654963828973 1541.036614138533196 13534.12884937727904 
	8379.724339450362095 1564.75456273004238 13521.7678823703809 
	8404.233059563028291 1587.003713838028716 13512.88848296130891 
	8426.849582075117723 1607.535116558890422 13506.80597859591398 
	8454.249347152686823 1632.408775632141896 13501.57540496804177 
	8488.825060638400828 1663.796796817131508 13498.94976576134832 
	8530.315959497853328 1701.462465145718397 13502.1004014072987 
	8566.732962697187759 1734.5220172598099 13510.46651634450245 
	8597.925708141692667 1762.838968985621477 13521.76832896479573 
	8632.761639097529041 1794.463214005850887 13538.24838467176232 
	8674.414087582088541 1832.275545861453566 13565.36800356562526 
	8716.430379988225468 1870.418160979888171 13604.10244976700051 
	8750.859032191643564 1901.6726924298207 13645.70390774095722 
	8778.550054960865964 1926.810745760372811 13687.60002777601767 
	8802.597394372951385 1948.641058118916135 13733.42506114754178 
	8822.698986776818856 1966.889390719094308 13782.60228655609353 
	8838.601825764970272 1981.326076127353645 13834.51347474780414 
	8850.106156443542204 1991.769771612026261 13888.50571538132135 
	8855.906767744647368 1997.035592974079009 13934.66769017288061 
	8857.941559282633534 1998.88279950797164 13967.28969714374944 
	8858.450663228231861 1999.344957912704558 13983.63927938376946 
	8858.577939877450262 1999.460505688689409 13991.81890245433351 
	8858.609765147892176 1999.48939403838358 13995.9093165070808 
	8858.617720127822395 1999.496616777919371 13997.95459912841034 
	8858.619993270198393 1999.498680241882539 13999.12334279315837 
	8858.620372257404597 1999.49902406422575 13999.70771643159787 
	8858.620372295403286 1999.499024016332896 13999.9999032483538 
	8950.868543340084216 1903.253556396593012 13999.99990324835926 
	8950.868542999554847 1903.25355674767934 14002.33739778240852 
	8950.843574749284016 1903.232363772956887 14007.01238653503424 
	8950.693783617529334 1903.105240253761849 14016.36052639514128 
	8950.169554701127709 1902.660320399830653 14032.71011010270922 
	8948.074223209541742 1900.882021702492921 14065.33209967604307 
	8942.101236428299671 1895.812744184496523 14111.49410815281772 
	8932.229041184280504 1887.434214353997959 14156.48752473390232 
	8923.337361902573321 1879.887842092459323 14187.07267393320399 
	8917.702814424894314 1875.105801422226705 14204.24879859927023 
	8908.704141384527247 1867.468636218497977 14229.69169822153526 
	8893.179831061746881 1854.293150076659231 14266.57468379605416 
	8868.417323092588049 1833.277211903727675 14312.39951600915629 
	8839.903187019885081 1809.077263758263143 14354.29591874240396 
	8809.177396097531528 1783.000287510709313 14390.34980364746662 
	8777.01733426359533 1755.70603860758024 14420.70973005135238 
	8749.575371243372501 1732.416049406758248 14441.51319991126002 
	8726.75719133385428 1713.050256288116771 14455.94151292679089 
	8706.337033363561204 1695.719671228358038 14467.2445178291855 
	8682.422747401513334 1675.423613133743629 14478.23161895003432 
	8645.713954547198227 1644.268865598706952 14491.14850730734724 
	8598.641199298974243 1604.31820879882207 14500.46617388518098 
	8541.51532260658314 1555.835483884620089 14500.46539317047973 
	8485.027727455968488 1507.894457729661099 14489.2861144366816 
	8430.439894473454842 1461.5657726338884 14467.17644765466503 
	8395.591475805726077 1431.989906236756269 14445.14066605214066 
	8378.142653463015449 1417.181106372250724 14431.8410100966521 
	8376.095430389321336 1415.44362632267439 14430.26379734131297 
	8373.546979169783299 1413.280757296721731 14428.26873033979246 
	8370.506014421665895 1410.699889376612191 14425.83722354739257 
	8364.458984405815499 1405.567776722964027 14420.89973909061337 
	8351.548926014840617 1394.611007976923247 14409.80095443321079 
	8332.437712851058677 1378.391324887229985 14391.28068261540102 
	8316.234387448672351 1364.639558885169663 14372.97123322759762 
	8305.885213154871963 1355.856219444002136 14360.12381767912848 
	8300.802976528106228 1351.542918763104353 14353.5742269937964 
	8295.814951745091093 1347.309594355075205 14346.90093079792859 
	8279.507493147728383 1333.469410878397866 14324.25273103584732 
	8260.215242469148507 1317.096108312648312 14292.48662145713206 
	8239.996689592408075 1299.9366202378651 14250.23308058050497 
	8225.197851696684666 1287.376848819332281 14213.46795771778852 
	8211.658638245646216 1275.886117090378775 14171.29384798816318 
	8202.31887284782897 1267.959447516014961 14131.53514095618993 
	8196.683488174128797 1263.176704363062299 14099.11412461517466 
	8192.28544310846155 1259.444075969552614 14066.36469278535878 
	8189.130238881041805 1256.766262457932044 14024.96430597392646 
	8189.130434860669084 1256.766417848502215 13975.03571673697843 
	8192.600810180883855 1259.71173529013322 13929.49526024059196 
	8198.488915323774563 1264.708973594374584 13888.63578512754066 
	8205.865762636061845 1270.969695717149762 13852.48482778650214 
	8215.280124236021948 1278.959677426827056 13817.15928665429783 
	8230.476414734579521 1291.856757816496838 13771.42062832834927 
	8249.518200228372734 1308.017521618608725 13728.11416935761918 
	8272.086898495410423 1327.171587512815677 13687.9645090877475 
	8292.744340190807634 1344.703544631112436 13656.44420300045931 
	8317.696600405630306 1365.880539182908251 13624.48738512201089 
	8347.42551907908819 1391.111460195456402 13593.35754746212478 
	8376.705352646300526 1415.961264911207309 13568.52628210053808 
	8404.705369933586553 1439.72487612593909 13549.0953903905538 
	8430.830056347649588 1461.896899779391561 13534.12884937729177 
	8457.733562106344834 1484.729904521237586 13521.76788237039 
	8482.970996291662232 1506.148914823530504 13512.88848296132164 
	8506.259971475790735 1525.914268933677477 13506.80597859592308 
	8534.474411039853294 1549.859862308765287 13501.57540496805086 
	8570.078157054376788 1580.076763319500969 13498.94976576135377 
	8612.802700346401252 1616.337081289653497 13502.10040140730416 
	8650.302480866152109 1648.16314873411352 13510.46651634450973 
	8682.422681059146271 1675.423557076105226 13521.768328964803 
	8718.294378557753589 1705.86787144232585 13538.2483846717696 
	8761.185282626483968 1742.2693721433684 13565.36800356563253 
	8804.45083261840773 1778.988850619184632 13604.10244976700778 
	8839.903157995338915 1809.077228011007492 13645.70390774096086 
	8868.417504190127147 1833.277362893863028 13687.60002777602131 
	8893.179844663607582 1854.293156115962347 13733.42506114754178 
	8913.879111013076908 1871.860626977153288 13782.60228655609535 
	8930.254787295225469 1885.758662801277978 13834.51347474780596 
	8942.101175229507135 1895.812691479052546 13888.50571538132317 
	8948.074249757000871 1900.882045163230714 13934.66769017288061 
	8950.169552917226611 1902.660317709543961 13967.28969714375125 
	8950.693785088553341 1903.10524225264885 13983.63927938377128 
	8950.824851323157418 1903.216472986351164 13991.81890245433715 
	8950.857620067157768 1903.244286544261513 13995.90931650708626 
	8950.865812726435252 1903.251238522831045 13997.95459912841579 
	8950.868153349512795 1903.253225113734288 13999.12334279316019 
	8950.868543382652206 1903.253556352707392 13999.70771643160333 
	8950.868543340084216 1903.253556396593012 13999.99990324835926 
	9043.116710810811128 1807.008092848008801 13999.99990324836108 
	9043.116710791739024 1807.008092832894818 14002.33739778241033 
	9043.091020346762889 1806.987722572207758 14007.01238653503606 
	9042.936906276177979 1806.865523684027039 14016.3605263951431 
	9042.397537090484548 1806.43785141158196 14032.71011010271104 
	9040.241709015544984 1804.728469569746721 14065.33209967604489 
	9034.096254301264707 1799.855665091399715 14111.49410815281954 
	9023.93900711491915 1791.801862417889197 14156.48752473390414 
	9014.790584368201962 1784.547968694779229 14187.07267393320581 
	9008.993342937248599 1779.951266684142411 14204.24879859927205 
	8999.734843611244287 1772.610091924670996 14229.69169822153708 
	8983.762277025954972 1759.94525300220721 14266.57468379605598 
	8958.284769207379213 1739.743832585066002 14312.39951600915811 
	8928.94730584502031 1716.481807289235576 14354.29591874240577 
	8897.334329304367202 1691.415500399691609 14390.34980364746843 
	8864.245664638810922 1665.17910276051748 14420.7097300513542 
	8836.011335556611812 1642.791765814924247 14441.51319991126184 
	8812.534293794040423 1624.176538837470844 14455.94151292679271 
	8791.524518809696019 1607.517637173802768 14467.24451782918732 
	8766.919721775966536 1588.008199564372717 14478.23161895003614 
	8729.150989345454946 1558.060920262486434 14491.14850730734906 
	8680.719034510240817 1519.658644484178922 14500.4661738851828 
	8621.943689299838297 1473.054970868567807 14500.46539317048155 
	8563.825050007137179 1426.972007222701677 14489.28611443668342 
	8507.661033940556081 1382.438887691591162 14467.17644765466684 
	8471.806383231167274 1354.009306660875836 14445.14066605214248 
	8453.853745774276831 1339.774445876875234 14431.84101009665392 
	8451.747409541196248 1338.104306705708268 14430.26379734131478 
	8449.125374265058781 1336.025263600406333 14428.26873033979427 
	8445.996603079562192 1333.544423536774502 14425.83722354739439 
	8439.774969957417852 1328.611216282068654 14420.89973909061518 
	8426.492141025695673 1318.079102484587338 14409.80095443321261 
	8406.829106030094408 1302.488047051833291 14391.28068261540284 
	8390.157918378754403 1289.269263132704282 14372.97123322759944 
	8379.50992098909046 1280.826338752630363 14360.1238176791303 
	8374.28093479582094 1276.680213110536442 14353.57422699379822 
	8369.148890419857707 1272.610953793896897 14346.90093079793041 
	8352.370542283933901 1259.307201045824741 14324.25273103584914 
	8332.521256441787045 1243.568465091095959 14292.48662145713388 
	8311.718905043811901 1227.074032067356939 14250.23308058050679 
	8296.492761672474444 1215.001041026915345 14213.46795771779034 
	8282.562611718381959 1203.955658654866966 14171.293847988165 
	8272.953161236411688 1196.336210529142136 14131.53514095619175 
	8267.15506260031907 1191.738828829889826 14099.11412461517648 
	8262.630022983070376 1188.150870840488096 14066.3646927853606 
	8259.383718622242668 1185.576837317458512 14024.96430597392828 
	8259.383914599809941 1185.576992710376317 13975.03571673698025 
	8262.954499842620862 1188.408152419907537 13929.49526024059378 
	8269.012621927478904 1193.211709818997178 13888.63578512754248 
	8276.602466593161807 1199.2297883574156 13852.48482778650396 
	8286.288668403762131 1206.910093528720608 13817.15928665429965 
	8301.923735873824626 1219.307325373786398 13771.42062832835109 
	8321.515340579231633 1234.841742875685668 13728.11416935762099 
	8344.735701142211838 1253.25344426274296 13687.96450908774932 
	8365.989605755838056 1270.105919227350569 13656.44420300046113 
	8391.662351853130531 1290.462146411787899 13624.48738512201271 
	8422.249667065583708 1314.71519417989748 13593.3575474621266 
	8452.37494164319105 1338.601884406881027 13568.5262821005399 
	8481.18343914329671 1361.444486352750346 13549.09539039055562 
	8508.062459806431434 1382.757183056453869 13534.12884937729359 
	8535.742786212964347 1404.705244659857499 13521.76788237039182 
	8561.70893459128456 1425.294114019348399 13512.88848296132346 
	8585.67036399988865 1444.293417750270464 13506.8059785959249 
	8614.699476100029642 1467.310947649074251 13501.57540496805268 
	8651.331257676070891 1496.356725030730104 13498.94976576135559 
	8695.289442937002605 1531.211695449013632 13502.10040140730598 
	8733.87200677096007 1561.804271395797741 13510.46651634451155 
	8766.919653647199084 1588.008145541777139 13521.76832896480482 
	8803.827125145990067 1617.272520758605197 13538.24838467177142 
	8847.956470776371134 1652.263206279340011 13565.36800356563435 
	8892.471288151311455 1687.559536951661357 13604.1024497670096 
	8928.947270230260983 1716.481779049456236 13645.70390774096268 
	8958.284954132959683 1739.743979214350702 13687.60002777602313 
	8983.762288171839828 1759.945261839322939 13733.4250611475436 
	9005.059233981897705 1776.831864678908005 13782.60228655609717 
	9021.907746771634265 1790.191251814740326 13834.51347474780778 
	9034.096190939584631 1799.855614849886251 13888.50571538132499 
	9040.24173681114371 1804.728491608620743 13934.66769017288243 
	9042.397534646364875 1806.437849473407823 13967.28969714375307 
	9042.936908178127851 1806.865525192008363 13983.6392793837731 
	9043.071756182927857 1806.972447786380599 13991.81890245433897 
	9043.10547251310345 1806.999181867468224 13995.90931650708808 
	9043.113901144452029 1807.005865029979532 13997.95459912841761 
	9043.116309405355423 1807.007774568825653 13999.12334279316201 
	9043.116710813195823 1807.008092849898048 13999.70771643160515 
	9043.116710810811128 1807.008092848008801 13999.99990324836108 
	0 
	
	0 
	0 
	83 -1.826318281626126997e-29 0.002232142857142857019 0.004464285714285714038 0.008928571428571428076 0.01785714285714285615 0.0357142857142857123 0.05357142857142856845 0.0625 0.0669642857142857123 0.07142857142857142461 0.08928571428571427382 0.1071428571428571369 0.125 0.1428571428571428492 0.1587301587301587213 0.1746031746031745935 0.1825396825396825295 0.1904761904761904656 0.2023809523809523836 0.2142857142857142738 0.238095238095238082 0.2619047619047618625 0.2857142857142856984 0.3095238095238095344 0.3333333333333333148 0.3340773809523809312 0.3348214285714286031 0.336309523809523836 0.3377976190476190688 0.3392857142857143016 0.3452380952380952328 0.3571428571428570953 0.3690476190476190133 0.3720238095238095344 0.375 0.3779761904761904656 0.3809523809523809312 0.4047619047619047672 0.4166666666666666297 0.4285714285714285476 0.4444444444444444198 0.4603174603174602919 0.4682539682539682557 0.476190476190476164 0.4920634920634920362 0.5079365079365079083 0.5238095238095237249 0.5357142857142855874 0.5476190476190475609 0.5595238095238095344 0.5714285714285713969 0.5952380952380951218 0.6071428571428569843 0.6190476190476189577 0.6349206349206348854 0.650793650793650702 0.6666666666666666297 0.6785714285714286031 0.6904761904761904656 0.7023809523809523281 0.7142857142857141906 0.7232142857142855874 0.7321428571428569843 0.749999999999999889 0.7678571428571427937 0.7857142857142855874 0.7976190476190474499 0.8095238095238094234 0.8333333333333332593 0.8571428571428570953 0.875 0.8928571428571427937 0.9107142857142856984 0.9285714285714286031 0.9464285714285713969 0.9642857142857143016 0.9821428571428572063 0.9910714285714286031 0.9955357142857143016 0.9977678571428572063 0.9988839285714286031 0.9994419642857143016 0.9997209821428572063 
	0 
	0 
	0 
	F 1 F 0 F 1 F 0 } I I I I #
tcoedge-coedge $-1 -1 $-1 $14 $14 $18 $19 reversed $9 $20 -6.283185307179586232 -0 #
tcoedge-coedge $-1 -1 $-1 $21 $22 $11 $16 reversed $12 $23 -6.283185307179586232 -7.870032685274014695e-29 #
tedge-edge $-1 -1 $-1 $24 7.870032685274014695e-29 $24 6.283185307179586232 $15 $25 forward @7 unknown 0.0006539541648534494614 #
pcurve $-1 -1 $-1 0 forward { exppc nurbs 2 periodic 5 
	7.870032685274014695e-29 2 1.570796326794896558 2 3.141592653589793116 2 4.712388980384689674 2 6.283185307179586232 2 
	3.637978807091712952e-12 499.999999999998181 1 
	-499.999999999996362 500.000000000001819 0.707106781186549127 
	-500 1.818989403545856476e-12 1 
	-500.000000000003638 -499.999999999996362 0.7071067811865456854 
	-3.637978807091712952e-12 -500 1 
	499.999999999996362 -500.0000000000027285 0.707106781186549016 
	500 -3.637978807091712952e-12 1 
	500.000000000003638 499.999999999996362 0.7071067811865446862 
	3.637978807091712952e-12 499.999999999998181 1 
	0 
	plane 8651.331301464639182 1496.356759758717544 14000.00000000000728 0.6213025945046597442 -0.7835707281807930968 5.1971125816436399e-15 8.364865409562781554e-15 0 -1 forward_v I I I I 
	} 0 0 #
tcoedge-coedge $-1 -1 $-1 $22 $21 $14 $19 forward $12 $26 0 6.283185307179586232 #
tedge-edge $-1 -1 $-1 $27 0 $27 6.283185307179586232 $18 $28 forward @7 unknown 0.0006539536101963165215 #
pcurve $-1 -1 $-1 0 forward { exppc nurbs 2 periodic 5 
	-6.283185307179586232 2 -4.712388980384689674 2 -3.141592653589793116 2 -1.570796326794896558 2 0 2 
	0 500 1 
	500 500 0.7071067811865470176 
	500 0 1 
	500 -500.0000000000009095 0.7071067811865459074 
	0 -500.0000000000009095 1 
	-500 -500.0000000000009095 0.7071067811865463515 
	-500 0 1 
	-500 500 0.7071067811865470176 
	0 500 1 
	0 
	plane 8407.572000117948846 1747.516874034476132 14000 -0.6964551467160912113 0.7176003265137690379 -0 0 0 -1 reverse_v I I I I 
	} 0 0 #
coedge $-1 -1 $-1 $18 $15 $22 $29 reversed $12 $30 #
coedge $-1 -1 $-1 $15 $18 $21 $29 forward $12 $31 #
pcurve $-1 -1 $-1 0 forward { exppc nubs 1 periodic 2 
	-6.283185307179586232 1 -7.870032685274014695e-29 1 
	1 0.999999999999999889 
	0 0.999999999999999889 
	1.589212841730390144e-11 
	spline forward { ref 0 } I I I I 
	} 0 0 #
tvertex-vertex $-1 -1 $-1 $16 $32 0.000112664353346241661 #
ellipse-curve $-1 -1 $-1 8651.331301464639182 1496.356759758717544 14000.00000000000728 0.6213025945046597442 -0.7835707281807930968 5.1971125816436399e-15 391.7853640903966266 310.6512972523298686 0 1 I I #
pcurve $-1 -1 $-1 0 forward { exppc nubs 1 periodic 2 
	0 1 6.283185307179586232 1 
	0 0 
	1 0 
	2.265103292254367277e-13 
	spline forward { ref 0 } I I I I 
	} 0 0 #
tvertex-vertex $-1 -1 $-1 $19 $33 0.0001126623009362175414 #
ellipse-curve $-1 -1 $-1 8407.572000117948846 1747.516874034476132 14000 0.6964551467160912113 -0.7176003265137690379 0 358.8001632568845594 348.2275733580456745 0 1 I I #
edge $-1 -1 $-1 $27 8.01582063686682481e-10 $24 0.9999999863909314612 $22 $34 forward @7 tangent #
pcurve $-1 -1 $-1 -1 $34 0 0 #
pcurve $-1 -1 $-1 1 $34 1 0 #
point $-1 -1 $-1 9043.116665555029613 1807.008057011052188 14000.00000000000728 #
point $-1 -1 $-1 8766.37216337483369 2095.744447392521579 14000 #
intcurve-curve $-1 -1 $-1 forward { parcur full nubs 3 open 2 
	0 3 1 3 
	8766.372204824670916 2095.744487564917563 13999.99990324835198 
	8858.620372295403286 1999.499024016332896 13999.9999032483538 
	8950.868543340084216 1903.253556396593012 13999.99990324835926 
	9043.116710810811128 1807.008092848008801 13999.99990324836108 
	0 
	
	spline forward { ref 0 } I I I I 
	null_surface 
	nubs 1 open 2 
	0 1 1 1 
	-1.826318281626126997e-29 0 
	-1.826318281626126997e-29 1 
	
	nullbs 
	I I 
	0 
	0 
	0 
	surf1 } F 8.01582063686682481e-10 F 0.9999999863909314612 #
End-of-ACIS-data 