700 0 1 0           
4 LibG 20 ASM 224.0.1.65535 NT 24 Wed Jul 17 15:51:17 2019 
1000 9.999999999999999547e-07 1.000000000000000036e-10 
body $-1 -1 $-1 $1 $-1 $2 #
lump $-1 -1 $-1 $-1 $3 $0 #
transform $-1 -1 1 0 0 0 1 0 0 0 1 0 0 0 1 no_rotate no_reflect no_shear #
shell $-1 -1 $-1 $-1 $-1 $4 $-1 $1 #
face $-1 -1 $-1 $5 $6 $3 $-1 $7 forward single #
face $-1 -1 $-1 $8 $9 $3 $-1 $10 reversed single #
loop $-1 -1 $-1 $-1 $11 $4 #
plane-surface $-1 -1 $-1 7851.132247660309986 2170.777788682966275 14000.00000000000364 0.8251847167300256913 -0.5648629774336317855 0 0 0 -1 forward_v I I I I #
face $-1 -1 $-1 $-1 $12 $3 $-1 $13 forward single #
loop $-1 -1 $-1 $-1 $14 $5 #
plane-surface $-1 -1 $-1 7544.016194073939005 2338.645979909212656 14000.00000000000364 0.877474438832389847 -0.4796234035113197125 0 0 0 -1 forward_v I I I I #
tcoedge-coedge $-1 -1 $-1 $11 $11 $15 $16 forward $6 $17 -1.211690350419474158e-30 6.283185307179586232 #
loop $-1 -1 $-1 $-1 $18 $8 #
spline-surface $-1 -1 $-1 forward { exactsur full nubs 3 3 periodic open none none 85 2 
	-1.22454562689640637e-29 3 0.002232142857142857019 1 0.004464285714285714038 1 0.008928571428571428076 1 0.01785714285714285615 1 
	0.0357142857142857123 1 0.05357142857142856845 1 0.0625 1 0.07142857142857142461 1 0.08928571428571427382 1 
	0.1071428571428571369 1 0.125 1 0.1428571428571428492 1 0.1587301587301587213 1 0.1746031746031745935 1 
	0.1904761904761904656 1 0.2023809523809523836 1 0.2142857142857142738 1 0.238095238095238082 1 0.2619047619047618625 1 
	0.2857142857142856984 1 0.3095238095238095344 1 0.3214285714285713969 1 0.3333333333333333148 1 0.3392857142857143016 1 
	0.3452380952380952328 1 0.3571428571428570953 1 0.3630952380952380265 1 0.3690476190476190133 1 0.375 1 
	0.3779761904761904656 1 0.3809523809523809312 1 0.4047619047619047672 1 0.4077380952380952328 1 0.4107142857142856984 1 
	0.4166666666666666297 1 0.4285714285714285476 1 0.4444444444444444198 1 0.4484126984126983739 1 0.4523809523809523281 1 
	0.4603174603174602919 1 0.4682539682539682557 1 0.476190476190476164 1 0.4920634920634920362 1 0.5079365079365079083 1 
	0.5238095238095237249 1 0.5476190476190475609 1 0.5595238095238095344 1 0.5714285714285713969 1 0.5833333333333332593 1 
	0.5952380952380951218 1 0.6071428571428569843 1 0.6190476190476189577 1 0.6349206349206348854 1 0.650793650793650702 1 
	0.6587301587301586103 1 0.6666666666666666297 1 0.6785714285714286031 1 0.6904761904761904656 1 0.7023809523809523281 1 
	0.7142857142857141906 1 0.7232142857142855874 1 0.7321428571428569843 1 0.7410714285714283811 1 0.749999999999999889 1 
	0.7678571428571427937 1 0.7857142857142855874 1 0.7976190476190474499 1 0.8095238095238094234 1 0.8333333333333332593 1 
	0.8571428571428570953 1 0.875 1 0.8928571428571427937 1 0.9107142857142856984 1 0.9285714285714286031 1 
	0.9464285714285713969 1 0.9642857142857143016 1 0.9821428571428572063 1 0.9910714285714286031 1 0.9955357142857143016 1 
	0.9977678571428572063 1 0.9988839285714286031 1 0.9994419642857143016 1 0.9997209821428572063 1 1 3 
	0 3 1 3 
	7783.827916713572449 2777.38323754572184 13999.99989893643215 
	7783.827916701454342 2777.383237523546541 14002.33739346895891 
	7783.812191552518016 2777.354468251333401 14007.01238216645834 
	7783.717858462506229 2777.181885190052071 14016.3605221254129 
	7783.387710197222987 2776.577876582935005 14032.71010510522319 
	7782.068130957184621 2774.163696947518929 14065.33209770092981 
	7778.306488427557269 2767.281745098619467 14111.49409150998508 
	7772.089259916690025 2755.907281176617289 14156.48753243926149 
	7765.689519960864345 2744.198911264863909 14191.44195195291468 
	7758.360205495804621 2730.789878156051145 14225.59357278923562 
	7747.4971186248913 2710.915783216352338 14266.57473043789651 
	7731.902306242172926 2682.384962692371573 14312.39947838852095 
	7713.94490867535751 2649.531775716653101 14354.29602162849551 
	7694.594635853519321 2614.130313524942721 14390.34994568550246 
	7674.341020849650704 2577.076180364995707 14420.70976524678372 
	7653.602369952256595 2539.134670578036548 14445.67394132481058 
	7633.593594104539989 2502.528472402037096 14464.49779717459933 
	7614.767811827538026 2468.086569404144029 14478.23143766880639 
	7591.649633621297653 2425.791697427571762 14491.14870673853511 
	7562.00440851383064 2371.555546574874825 14500.46617496542785 
	7526.028089922658182 2305.736615021177386 14500.46540914430807 
	7490.453603110831864 2240.652837575033573 14489.28636985524463 
	7461.805455069276832 2188.240846328482803 14470.86112088422124 
	7439.868813055561077 2148.107603246496637 14450.90446180222716 
	7426.643525873554609 2123.911845984593583 14436.33154754725729 
	7416.398961903899362 2105.16934310720444 14423.46087129087937 
	7406.39229377882657 2086.862072374871786 14409.80086364937779 
	7396.763707266010897 2069.246504649742747 14394.9846337690833 
	7387.553578472293339 2052.396508307419936 14379.0743505615028 
	7380.864792040416432 2040.159325805851722 14366.61152631179721 
	7375.4809399159858 2030.309529930439794 14355.79857020827149 
	7371.292506322684858 2022.646760787057474 14346.90084916286833 
	7361.02246624872987 2003.85764919509802 14324.25267718900795 
	7351.676344807377063 1986.758853333509705 14299.81751693386286 
	7343.371399848015244 1971.564897274631448 14273.90196924419433 
	7340.142855459991551 1965.658252281106343 14263.40823047690174 
	7334.741520449167183 1955.776471340323724 14244.71846873915456 
	7326.819659174690969 1941.283369616245182 14213.4679373771869 
	7320.618538868970063 1929.938375771983829 14182.79587179383088 
	7316.668633377368678 1922.711995492559936 14159.25988380530907 
	7314.223732567963452 1918.239032017412455 14143.43727543367095 
	7311.523831498719119 1913.299543747462621 14123.42991426753906 
	7308.861992185378767 1908.429689731515282 14099.1141949190278 
	7306.092287301662509 1903.3624948849465 14066.36475496814273 
	7304.105115442024726 1899.726949789320315 14024.96430025588779 
	7304.10533870407744 1899.727358248854216 13975.03583096526199 
	7306.886357891535226 1904.815252694896571 13917.0749214321404 
	7312.667978310450962 1915.392768503157413 13864.25992739364483 
	7320.573606111030131 1929.856170970929952 13817.15916008540444 
	7327.751578098236678 1942.988321936339389 13782.85569847710758 
	7336.139372041262504 1958.333850801983317 13749.76678876952246 
	7345.689515901310187 1975.805907134186327 13718.07718343899614 
	7356.348883574318279 1995.307296346505382 13687.96428433300389 
	7369.358646013146426 2019.108749552938662 13656.44430405393723 
	7385.072780599330144 2047.857870898706324 13624.48721983846008 
	7400.674956139316237 2076.402162370573024 13598.54593132628543 
	7413.853298957064908 2100.512034583025525 13579.81305523565788 
	7425.761805888603703 2122.2987329814041 13564.64029096646118 
	7439.868688857606685 2148.107376025781832 13549.09536013694378 
	7456.321359261303769 2178.207653919045697 13534.12892744922283 
	7473.26446781877803 2209.205191914013085 13521.7678867733448 
	7489.158350142982272 2238.283163028962463 13512.888553706729 
	7503.825127875838916 2265.116137538630937 13506.80594909704269 
	7517.151674812997044 2289.497150245028024 13502.88322296175102 
	7530.562748478872891 2314.032805204725264 13500.52481638306563 
	7548.50062606033589 2346.850280226710765 13499.47511758378459 
	7570.922929496006873 2387.872044345586346 13502.10030122340868 
	7594.539332480202575 2431.078422108392715 13510.46652320023168 
	7614.767764880247341 2468.08648351419788 13521.76839733265842 
	7637.358822492366016 2509.416984602711182 13538.24840782201318 
	7664.370388175654625 2558.834836747890222 13565.36800078009037 
	7691.617892370196387 2608.684340083177631 13604.10246206282136 
	7713.944832253839195 2649.531635903362712 13645.70391122222463 
	7731.902420443720075 2682.385171625107887 13687.60003219000828 
	7747.497090019263851 2710.915730882371463 13733.42506264265467 
	7760.532944830673841 2734.76492027170616 13782.6022870831257 
	7770.845915140762372 2753.632573038272767 13834.51347352204903 
	7778.306458641717654 2767.281690605454969 13888.50571298793147 
	7782.068145880254633 2774.163724249523966 13934.66768637208952 
	7783.387709179713056 2776.577874721442186 13967.28969297648291 
	7783.717859574524482 2777.181887224527145 13983.63927510481699 
	7783.800399999518959 2777.332895521014507 13991.81889815127215 
	7783.821037754903955 2777.370652441762559 13995.90931219707636 
	7783.826196917676498 2777.380091166863167 13997.95459481711623 
	7783.827671013043073 2777.382788034852183 13999.12333848099115 
	7783.827916715087667 2777.38323754849398 13999.70771211986721 
	7783.827916713572449 2777.38323754572184 13999.99989893643215 
	7900.406530336676951 2712.712220054112549 13999.99989893643033 
	7900.406530788193777 2712.71221974752325 14002.33739346895709 
	7900.389872334195388 2712.684023005886047 14007.01238216645652 
	7900.289953911026714 2712.514866234825604 14016.36052212541108 
	7899.940242559125181 2711.922858489699138 14032.71010510522137 
	7898.542497476008975 2709.556629237236848 14065.33209770092799 
	7894.558009117629808 2702.811380869138247 14111.49409150998326 
	7887.972471631396729 2691.66285395131672 14156.48753243925967 
	7881.193601164342908 2680.187059452137873 14191.44195195291286 
	7873.430099498336858 2667.044375962793765 14225.5935727892338 
	7861.923473935194124 2647.565056100331731 14266.57473043789469 
	7845.404817637477208 2619.600962266295028 14312.39947838851913 
	7826.383609212825831 2587.400363889581513 14354.29602162849369 
	7805.887014453195661 2552.702106240183639 14390.34994568550064 
	7784.433562764423186 2516.384005933698063 14420.7097652467819 
	7762.466342611517575 2479.196154828945964 14445.67394132480877 
	7741.272234277003918 2443.31709199022589 14464.49779717459751 
	7721.331200199054365 2409.559333739452995 14478.23143766880457 
	7696.843487453293164 2368.104594780748357 14491.14870673853329 
	7665.442056066082841 2314.945778481670004 14500.46617496542603 
	7627.33447948689718 2250.434254776153921 14500.46540914430625 
	7589.652538750953681 2186.643282713293956 14489.28636985524281 
	7559.307253099074842 2135.272390687794996 14470.86112088421942 
	7536.07107582287972 2095.936339973278791 14450.90446180222534 
	7522.062309253983585 2072.221203595881434 14436.33154754725547 
	7511.210855273397101 2053.850993874804772 14423.46087129087755 
	7500.611382637680435 2035.907375630350998 14409.80086364937597 
	7490.412396119345431 2018.641716479413162 14394.98463376908148 
	7480.656651707974561 2002.126424872331881 14379.07435056150098 
	7473.571619483324866 1990.132317053506767 14366.61152631179539 
	7467.86882074823825 1980.478177126022047 14355.79857020826967 
	7463.432267278681138 1972.967615681253619 14346.90084916286651 
	7452.553808033291716 1954.551735300246264 14324.25267718900614 
	7442.654016861095442 1937.792584922909782 14299.81751693386104 
	7433.857096527598515 1922.900428303083117 14273.90196924419251 
	7430.437286985242281 1917.111113808851997 14263.40823047689992 
	7424.715975605737185 1907.425620515082755 14244.71846873915274 
	7416.324819142150773 1893.220405202131815 14213.46793737718508 
	7409.756332654751532 1882.10077001073364 14182.79587179382906 
	7405.57243728744379 1875.017929463061819 14159.25988380530725 
	7402.982696786149972 1870.633817056611178 14143.43727543366913 
	7400.122853522203513 1865.792444398090993 14123.42991426753724 
	7397.303323561159232 1861.019324795129933 14099.11419491902598 
	7394.369541618541916 1856.052782068445595 14066.36475496814091 
	7392.264642850190285 1852.489455861973056 14024.96430025588597 
	7392.264894608867507 1852.48984684041784 13975.03583096526017 
	7395.210651051729656 1857.476684172861496 13917.07492143213858 
	7401.334781644658506 1867.844089101957934 13864.25992739364301 
	7409.708758548231344 1882.020185529642731 13817.15916008540262 
	7417.311942342308612 1894.891492779007876 13782.85569847710576 
	7426.196644835012194 1909.932195977683932 13749.76678876952064 
	7436.312538440757635 1927.057196410604547 13718.07718343899433 
	7447.603377795202505 1946.171212983450687 13687.96428433300207 
	7461.383843375305332 1969.499882819129652 13656.44430405393541 
	7478.028895960415866 1997.677937919208034 13624.48721983845826 
	7494.555349312542603 2025.655236529446029 13598.54593132628361 
	7508.514387910864571 2049.286195444538862 13579.81305523565607 
	7521.128361058648807 2070.640129685347802 13564.64029096645936 
	7536.070945071541246 2095.936116772699279 13549.09536013694196 
	7553.498282515525716 2125.438490824662495 13534.12892744922101 
	7571.445111202928274 2155.820302529042237 13521.76788677334298 
	7588.280557217646674 2184.320676860559161 13512.88855370672718 
	7603.816204073714289 2210.620648647367489 13506.80594909704087 
	7617.932224085559028 2234.517363676252899 13502.8832229617492 
	7632.137778055564013 2258.565649302586735 13500.52481638306381 
	7651.138307103770785 2290.731246947306317 13499.47511758378278 
	7674.888921650931479 2330.938166321080644 13502.10030122340686 
	7699.90437577578723 2373.286304278291936 13510.46652320022986 
	7721.33115226204427 2409.559248456643672 13521.7683973326566 
	7745.260520778192586 2450.068770485336245 13538.24840782201136 
	7773.872261349564724 2498.505004628889765 13565.36800078008855 
	7802.733929729283773 2547.364308309407988 13604.10246206281954 
	7826.383523939599399 2587.400229506319647 13645.70391122222281 
	7845.404937246828922 2619.601167881644869 13687.60003219000646 
	7861.923441405662743 2647.565006173446363 13733.42506264265285 
	7875.731550831115783 2670.940460450058254 13782.60228708312388 
	7886.655467549575405 2689.433331686836027 13834.51347352204721 
	7894.557977877558187 2702.811327268063451 13888.50571298792966 
	7898.542513280461208 2709.556655998564111 13934.6676863720877 
	7899.940241041522313 2711.922856934984793 13967.28969297648109 
	7900.289955402293344 2712.514868036653297 13983.63927510481517 
	7900.377382214159297 2712.662878807462675 13991.81889815127033 
	7900.399244325373729 2712.699884654230573 13995.90931219707454 
	7900.404708399601077 2712.709136333167862 13997.95459481711441 
	7900.406269864904061 2712.711779604576805 13999.12333848098933 
	7900.406530280237348 2712.712220092436837 13999.70771211986539 
	7900.406530336676951 2712.712220054112549 13999.99989893643033 
	8016.985147350694206 2648.041200482341992 13999.99989893643215 
	8016.985146872788391 2648.041200745901733 14002.33739346895891 
	8016.967560325848353 2648.013573337495018 14007.01238216645834 
	8016.862047514696314 2647.847848411287487 14016.3605221254129 
	8016.4927877649734 2647.267832517393799 14032.71010510522319 
	8015.016856261972862 2644.949566270609012 14065.33209770092981 
	8010.809533371181715 2638.341014453640582 14111.49409150998508 
	8003.855676283781577 2627.418431058340502 14156.48753243926149 
	7996.697693009893555 2616.175201111078877 14191.44195195291468 
	7988.499986185258422 2603.298878257240176 14225.59357278923562 
	7976.349829763446905 2584.214328666565052 14266.57473043789651 
	7958.90732188957918 2556.816966222163956 14312.39947838852095 
	7938.822312689116188 2525.268950259698158 14354.29602162849551 
	7917.179394901984779 2491.273897821090031 14390.34994568550246 
	7894.526106007178896 2455.691830687751462 14420.70976524678372 
	7871.330312297702221 2419.25764090366647 14445.67394132481058 
	7848.950871636635384 2384.105713303925313 14464.49779717459933 
	7827.894587704196056 2351.032098606229283 14478.23143766880639 
	7802.037337898274927 2310.417494211665144 14491.14870673853511 
	7768.879713872179309 2258.336004098298872 14500.46617496542785 
	7728.640874221595368 2195.131891359336805 14500.46540914430807 
	7688.851476586551144 2132.63372650475003 14489.28636985524463 
	7656.809063369593787 2082.303927538104745 14470.86112088422124 
	7632.273335314947872 2043.765078709241607 14450.90446180222716 
	7617.481104591871372 2020.530553871932625 14436.33154754725729 
	7606.022747444205379 2002.532645377730887 14423.46087129087937 
	7594.830479938057579 1984.952673707424083 14409.80086364937779 
	7584.06108291471719 1968.036929571525434 14394.9846337690833 
	7573.75972831598483 1951.85633936850445 14379.07435056150098 
	7566.278443963924474 1940.105310118369971 14366.61152631179175 
	7560.256710118191222 1930.646819084197432 14355.79857020826967 
	7555.572020100322334 1923.288475565418366 14346.90084916286469 
	7544.085188347661642 1905.245797769502587 14324.25267718900432 
	7533.63172634520015 1888.826293550852824 14299.81751693386104 
	7524.342786311904092 1874.235963561399103 14273.90196924419251 
	7520.731724093458979 1868.563971911755516 14263.40823047689992 
	7514.690430027890216 1859.074770140362034 14244.71846873915092 
	7505.829975847893365 1845.157442788895423 14213.46793737718508 
	7498.894146952624396 1834.263151666457361 14182.79587179382725 
	7494.476246699045987 1827.323860058679657 14159.25988380530725 
	7491.741673208385691 1823.028594609303582 14143.43727543367095 
	7488.72188283460855 1818.285340577370334 14123.42991426753724 
	7485.744667076630321 1813.608952411719429 14099.11419491902598 
	7482.646802087303513 1808.743065478105336 14066.36475496814273 
	7480.42419321363559 1805.251947852841113 14024.96430025588597 
	7480.424427657617343 1805.252349452885483 13975.03583096526199 
	7483.534957553541062 1810.138107466485735 13917.07492143213676 
	7490.001588260296558 1820.295407687782472 13864.25992739364301 
	7498.843870008979138 1834.184225225119917 13817.15916008540262 
	7506.872312879815581 1846.794659761002777 13782.85569847710758 
	7516.253892798533343 1861.530556385341242 13749.76678876952246 
	7526.935556453048775 1878.308488464178936 13718.07718343899614 
	7538.857855328381447 1897.035139857370041 13687.96428433300389 
	7553.409034090917885 1919.891020162604491 13656.44430405393723 
	7570.98499625081331 1947.498014184733847 13624.48721983846008 
	7588.435741978897568 1974.908310999255718 13598.54593132628543 
	7603.17546890326139 1998.060361189928017 13579.81305523565788 
	7616.494911882216911 2018.98152905561119 13564.64029096646118 
	7632.273195597717859 2043.764861008738762 13549.09536013694378 
	7650.675198509170514 2072.669332184239011 13534.12892744922283 
	7669.625748076459786 2102.435417137970944 13521.7678867733448 
	7687.402757389073486 2130.358194926905981 13512.888553706729 
	7703.807273340255961 2156.125164008089087 13506.80594909704269 
	7718.712766204942454 2179.537581495553241 13502.88322296175102 
	7733.712800818208962 2203.098497580482672 13500.52481638306563 
	7753.775980295766203 2234.612218484321147 13499.47511758378459 
	7778.854906585297613 2274.004292725981031 13502.10030122340868 
	7805.269410013243942 2315.494192004841807 13510.46652320023168 
	7827.894533403103196 2351.032017227428696 13521.76839733266024 
	7853.162205386357527 2390.720564758437831 13538.24840782201682 
	7883.374142470539482 2438.1751676348008 13565.36800078009037 
	7913.849960205167008 2486.044280758091645 13604.102462062825 
	7938.822231537564221 2525.268813348017375 13645.70391122222463 
	7958.907450979449095 2556.81716602174356 13687.60003219001192 
	7976.349799997894479 2584.214277044132814 13733.4250626426583 
	7990.930156845900456 2607.116000619594615 13782.60228708312934 
	8002.465021240235728 2625.234089549038345 13834.51347352205266 
	8010.809499745994799 2638.340962315699016 13888.50571298793511 
	8015.016872955830877 2644.949592486336314 13934.66768637209134 
	8016.492787066721576 2647.267830460053119 13967.28969297648655 
	8016.86204844509939 2647.847850557174297 13983.63927510481881 
	8016.954371722893484 2647.992857619364713 13991.81889815127943 
	8016.977452903181074 2648.029115635283688 13995.90931219708 
	8016.983224050616627 2648.038178941944352 13997.95459481711987 
	8016.984872755047945 2648.040768697013846 13999.12333848099115 
	8016.985147410432546 2648.041200449396456 13999.70771211986721 
	8016.985147350694206 2648.041200482341992 13999.99989893643215 
	8133.563760973799617 2583.370182990732701 13999.99989893643215 
	8133.563760959528736 2583.370182969878442 14002.33739346895891 
	8133.545241107526635 2583.343128092047664 14007.01238216645834 
	8133.434142963218619 2583.180829456061019 14016.3605221254129 
	8133.045320126876504 2582.612814424157932 14032.71010510522319 
	8131.491222780799035 2580.342498560326931 14065.33209770092981 
	8127.061054061254254 2573.870650224159363 14111.49409150998508 
	8119.73888799848919 2563.174003833039933 14156.48753243926149 
	8112.201774213373028 2552.163349298352841 14191.44195195291468 
	8103.569880187791568 2539.553376063982796 14225.59357278923562 
	8090.776185073750639 2520.863601550544445 14266.57473043789651 
	8072.409833284884371 2494.03296579608741 14312.39947838852095 
	8051.261013226585419 2463.13753843262657 14354.29602162849551 
	8028.471773501662028 2429.845690536330949 14390.34994568550246 
	8004.618647921952288 2394.999656256453818 14420.70976524678372 
	7980.194284956964111 2359.319125154575886 14445.67394132481058 
	7956.629511809100222 2324.894332892114107 14464.49779717459933 
	7934.457976075713304 2292.504862941538249 14478.23143766880639 
	7907.231191730271348 2252.730391564842193 14491.14870673853511 
	7872.31736142443242 2201.726236005094052 14500.46617496542785 
	7829.947263785835275 2139.82953111431334 14500.46540914430807 
	7788.05041222667387 2078.624171643010413 14489.28636985524463 
	7754.310861399392707 2029.335471897417165 14470.86112088422124 
	7728.475598082267425 1991.59381543602376 14450.90446180222716 
	7712.899887972300348 1968.839911483220476 14436.33154754725729 
	7700.834640813704937 1951.214296145330991 14423.46087129087937 
	7689.049568796912354 1933.997976962903294 14409.80086364937779 
	7677.709771768052633 1917.432141401195622 14394.9846337690833 
	7666.862801551667872 1901.586255933416396 14379.07435056150098 
	7658.985271406833817 1890.078301366025016 14366.61152631179175 
	7652.64459095044549 1880.815466279779685 14355.79857020826967 
	7647.711781056319523 1873.609330459614512 14346.90084916286469 
	7635.616530132224398 1855.939883874650832 14324.25267718900432 
	7624.609398398919438 1839.860025140252901 14299.81751693386104 
	7614.828482991488272 1825.571494589850545 14273.90196924419251 
	7611.026155618710618 1820.01683343950117 14263.40823047689992 
	7604.664885184461127 1810.723919315120838 14244.71846873915092 
	7595.335135815354079 1797.094478374782057 14213.46793737718508 
	7588.031940738406774 1786.425545905207173 14182.79587179382725 
	7583.380050609122009 1779.629794029181539 14159.25988380530725 
	7580.500637426573121 1775.423379648502305 14143.43727543367095 
	7577.320904858093854 1770.778241227998706 14123.42991426753724 
	7574.185998452412605 1766.198587475333852 14099.11419491902598 
	7570.92405640418383 1761.433352661604431 14066.36475496814273 
	7568.583720621802058 1758.014453925493626 14024.96430025588597 
	7568.583983562408321 1758.014838044449107 13975.03583096526199 
	7571.859250713736401 1762.799538944450433 13917.07492143213676 
	7578.66839159450501 1772.746728286582993 13864.25992739364301 
	7587.979022446181261 1786.348239783832469 13817.15916008540262 
	7596.432677123888425 1798.697830603671264 13782.85569847710758 
	7606.311165592283942 1813.12890156104163 13749.76678876952246 
	7617.558578992497132 1829.559777740597156 13718.07718343899614 
	7630.112349549266582 1847.899056494315346 13687.96428433300389 
	7645.4342314530777 1870.282153428795255 13656.44430405393723 
	7663.941111611899942 1897.31808120523533 13624.48721983846008 
	7682.316135152124843 1924.161385158128496 13598.54593132628543 
	7697.836557857061962 1946.834522051441354 13579.81305523565788 
	7711.861467052262924 1967.322925759554664 13564.64029096646118 
	7728.475451811653329 1991.593601755656209 13549.09536013694378 
	7747.85212176339337 2019.900169089855581 13534.12892744922283 
	7767.806391460610939 2049.050527753000097 13521.7678867733448 
	7786.524964463738797 2076.395708758502678 13512.888553706729 
	7803.798349538133152 2101.629675116825638 13506.80594909704269 
	7819.493315477505348 2124.557794926778115 13502.88322296175102 
	7835.287830394900993 2147.631341678344143 13500.52481638306563 
	7856.413661339202008 2178.493185204916699 13499.47511758378459 
	7882.820898740224038 2217.070414701475329 13502.10030122340868 
	7910.634453308829507 2257.702074174741028 13510.46652320023168 
	7934.457920784901034 2292.504782169874488 13521.76839733266024 
	7961.063903672185006 2331.372350641062894 13538.24840782201682 
	7992.87601564445049 2377.845335515800343 13565.36800078009037 
	8024.965997564255304 2424.724248984322003 13604.102462062825 
	8051.260923223325335 2463.137406950974309 13645.70391122222463 
	8072.409967782558851 2494.033162278280543 13687.60003219001192 
	8090.77615138429428 2520.863552335207714 13733.4250626426583 
	8106.128762846343307 2543.291540797946709 13782.60228708312934 
	8118.274573649049671 2561.03484819760115 13834.51347352205266 
	8127.061018981836241 2573.870598978307498 13888.50571298793511 
	8131.491240356037451 2580.342524235376004 13934.66768637209134 
	8133.045318928532652 2582.612812673595727 13967.28969297648655 
	8133.434144272869162 2583.180831369300449 13983.63927510481881 
	8133.531353937535641 2583.322840905812882 13991.81889815127943 
	8133.555659473651758 2583.358347847751702 13995.90931219708 
	8133.561735532542116 2583.367224108249047 13997.95459481711987 
	8133.563471606909843 2583.369760266738467 13999.12333848099115 
	8133.563760975583136 2583.370182993339313 13999.70771211986721 
	8133.563760973799617 2583.370182990732701 13999.99989893643215 
	0 
	
	0 
	0 
	84 -1.22454562689640637e-29 0.002232142857142857019 0.004464285714285714038 0.008928571428571428076 0.01785714285714285615 0.0357142857142857123 0.05357142857142856845 0.0625 0.07142857142857142461 0.08928571428571427382 0.1071428571428571369 0.125 0.1428571428571428492 0.1587301587301587213 0.1746031746031745935 0.1904761904761904656 0.2023809523809523836 0.2142857142857142738 0.238095238095238082 0.2619047619047618625 0.2857142857142856984 0.3095238095238095344 0.3214285714285713969 0.3333333333333333148 0.3392857142857143016 0.3452380952380952328 0.3571428571428570953 0.3630952380952380265 0.3690476190476190133 0.375 0.3779761904761904656 0.3809523809523809312 0.4047619047619047672 0.4077380952380952328 0.4107142857142856984 0.4166666666666666297 0.4285714285714285476 0.4444444444444444198 0.4484126984126983739 0.4523809523809523281 0.4603174603174602919 0.4682539682539682557 0.476190476190476164 0.4920634920634920362 0.5079365079365079083 0.5238095238095237249 0.5476190476190475609 0.5595238095238095344 0.5714285714285713969 0.5833333333333332593 0.5952380952380951218 0.6071428571428569843 0.6190476190476189577 0.6349206349206348854 0.650793650793650702 0.6587301587301586103 0.6666666666666666297 0.6785714285714286031 0.6904761904761904656 0.7023809523809523281 0.7142857142857141906 0.7232142857142855874 0.7321428571428569843 0.7410714285714283811 0.749999999999999889 0.7678571428571427937 0.7857142857142855874 0.7976190476190474499 0.8095238095238094234 0.8333333333333332593 0.8571428571428570953 0.875 0.8928571428571427937 0.9107142857142856984 0.9285714285714286031 0.9464285714285713969 0.9642857142857143016 0.9821428571428572063 0.9910714285714286031 0.9955357142857143016 0.9977678571428572063 0.9988839285714286031 0.9994419642857143016 0.9997209821428572063 
	0 
	0 
	0 
	F 1 F 0 F 1 F 0 } I I I I #
tcoedge-coedge $-1 -1 $-1 $14 $14 $18 $19 reversed $9 $20 -6.283185307179586232 -0 #
tcoedge-coedge $-1 -1 $-1 $21 $22 $11 $16 reversed $12 $23 -6.283185307179586232 1.211690350419474158e-30 #
tedge-edge $-1 -1 $-1 $24 -1.211690350419474158e-30 $24 6.283185307179586232 $15 $25 forward @7 unknown 0.0006640365178841461675 #
pcurve $-1 -1 $-1 0 forward { exppc nurbs 2 periodic 5 
	-1.211690350419474158e-30 2 1.570796326794896558 2 3.141592653589793116 2 4.712388980384689674 2 6.283185307179586232 2 
	0 500 1 
	-500 500 0.7071067811865459074 
	-500 0 1 
	-500 -500 0.7071067811865447972 
	0 -500 1 
	500 -500 0.7071067811865459074 
	500 0 1 
	500 500 0.7071067811865459074 
	0 500 1 
	0 
	plane 7851.132247660309986 2170.777788682966275 14000.00000000000364 0.8251847167300256913 -0.5648629774336317855 0 0 0 -1 forward_v I I I I 
	} 0 0 #
tcoedge-coedge $-1 -1 $-1 $22 $21 $14 $19 forward $12 $26 0 6.283185307179586232 #
tedge-edge $-1 -1 $-1 $27 0 $27 6.283185307179586232 $18 $28 forward @7 unknown 0.0006640365269522120186 #
pcurve $-1 -1 $-1 0 forward { exppc nurbs 2 periodic 5 
	-6.283185307179586232 2 -4.712388980384689674 2 -3.141592653589793116 2 -1.570796326794896558 2 0 2 
	0 500 1 
	500 500 0.7071067811865467956 
	500 0 1 
	500 -500 0.7071067811865467956 
	0 -500 1 
	-500 -500 0.7071067811865467956 
	-500 0 1 
	-500 500 0.7071067811865467956 
	0 500 1 
	0 
	plane 7544.016194073939005 2338.645979909212656 14000.00000000000364 -0.877474438832389847 0.4796234035113197125 -0 0 0 -1 reverse_v I I I I 
	} 0 0 #
coedge $-1 -1 $-1 $18 $15 $22 $29 reversed $12 $30 #
coedge $-1 -1 $-1 $15 $18 $21 $29 forward $12 $31 #
pcurve $-1 -1 $-1 0 forward { exppc nubs 1 periodic 2 
	-6.283185307179586232 1 1.211690350419474158e-30 1 
	1 1 
	0 1 
	1.484798535065991016e-11 
	spline forward { ref 0 } I I I I 
	} 0 0 #
tvertex-vertex $-1 -1 $-1 $16 $32 0.0001100487418725574459 #
ellipse-curve $-1 -1 $-1 7851.132247660309986 2170.777788682966275 14000.00000000000364 0.8251847167300256913 -0.5648629774336317855 0 282.4314887168159203 412.5923583650127853 6.058451752097370666e-28 1 I I #
pcurve $-1 -1 $-1 0 forward { exppc nubs 1 periodic 2 
	0 1 6.283185307179586232 1 
	-6.136532112821228174e-30 0 
	1 0 
	1.151121480933438922e-12 
	spline forward { ref 0 } I I I I 
	} 0 0 #
tvertex-vertex $-1 -1 $-1 $19 $33 0.0001100489913708905588 #
ellipse-curve $-1 -1 $-1 7544.016194073939005 2338.645979909212656 14000.00000000000364 0.877474438832389847 -0.4796234035113197125 0 239.8117017556598967 438.7372194161949892 0 1 I I #
edge $-1 -1 $-1 $27 6.962292957736757234e-10 $24 0.9999999898161194833 $22 $34 forward @7 tangent #
pcurve $-1 -1 $-1 -1 $34 0 0 #
pcurve $-1 -1 $-1 1 $34 1 0 #
point $-1 -1 $-1 8133.563736377125679 2583.370147047979117 14000.00000000000364 #
point $-1 -1 $-1 7783.827895829599584 2777.383199325406622 14000.00000000000364 #
intcurve-curve $-1 -1 $-1 forward { parcur full nubs 3 open 2 
	0 3 1 3 
	7783.827916713572449 2777.38323754572184 13999.99989893643215 
	7900.406530336676951 2712.712220054112549 13999.99989893643033 
	8016.985147350694206 2648.041200482341992 13999.99989893643215 
	8133.563760973799617 2583.370182990732701 13999.99989893643215 
	0 
	
	spline forward { ref 0 } I I I I 
	null_surface 
	nubs 1 open 2 
	0 1 1 1 
	-1.22454562689640637e-29 0 
	-1.22454562689640637e-29 1 
	
	nullbs 
	I I 
	0 
	0 
	0 
	surf1 } F 6.962292957736757234e-10 F 0.9999999898161194833 #
End-of-ACIS-data 