700 0 1 0           
4 LibG 20 ASM 224.0.1.65535 NT 24 Wed Jul 17 15:51:17 2019 
1000 9.999999999999999547e-07 1.000000000000000036e-10 
body $-1 -1 $-1 $1 $-1 $2 #
lump $-1 -1 $-1 $-1 $3 $0 #
transform $-1 -1 1 0 0 0 1 0 0 0 1 0 0 0 1 no_rotate no_reflect no_shear #
shell $-1 -1 $-1 $-1 $-1 $4 $-1 $1 #
face $-1 -1 $-1 $5 $6 $3 $-1 $7 forward single #
face $-1 -1 $-1 $8 $9 $3 $-1 $10 reversed single #
loop $-1 -1 $-1 $-1 $11 $4 #
plane-surface $-1 -1 $-1 4154.859681952888423 3025.659382843056846 14000.00000000000364 0.9999999998569972792 -1.691169161364969309e-05 -5.197112581643623334e-15 -5.197112582386824182e-15 0 -1 forward_v I I I I #
face $-1 -1 $-1 $-1 $12 $3 $-1 $13 forward single #
loop $-1 -1 $-1 $-1 $14 $5 #
plane-surface $-1 -1 $-1 3806.610273177178442 3060.62149495611493 14000.00000000000909 0.9949983108038356061 -0.09989174889606429464 5.19711258164362649e-15 5.223237592679933738e-15 0 -1 forward_v I I I I #
tcoedge-coedge $-1 -1 $-1 $11 $11 $15 $16 forward $6 $17 6.646978049714368826e-30 6.283185307179586232 #
loop $-1 -1 $-1 $-1 $18 $8 #
spline-surface $-1 -1 $-1 forward { exactsur full nubs 3 3 periodic open none none 86 2 
	0 3 0.002232142857142857019 1 0.004464285714285714038 1 0.008928571428571428076 1 0.01785714285714285615 1 
	0.0357142857142857123 1 0.05357142857142856845 1 0.0625 1 0.07142857142857142461 1 0.08928571428571427382 1 
	0.1071428571428571369 1 0.125 1 0.1428571428571428492 1 0.1587301587301587213 1 0.1746031746031745935 1 
	0.1904761904761904656 1 0.2023809523809523836 1 0.2142857142857142738 1 0.238095238095238082 1 0.2619047619047618625 1 
	0.2857142857142856984 1 0.2976190476190476164 1 0.3095238095238095344 1 0.3214285714285713969 1 0.3273809523809523281 1 
	0.3333333333333333148 1 0.3452380952380952328 1 0.3571428571428570953 1 0.3690476190476190133 1 0.375 1 
	0.3809523809523809312 1 0.3928571428571428492 1 0.4047619047619047672 1 0.4166666666666666297 1 0.4285714285714285476 1 
	0.4444444444444444198 1 0.4603174603174602919 1 0.476190476190476164 1 0.4801587301587301182 1 0.4821428571428570953 1 
	0.4841269841269840724 1 0.4861111111111110494 1 0.4880952380952380265 1 0.4900793650793650036 1 0.4910714285714284921 1 
	0.4915674603174602364 1 0.491815476190476164 1 0.4920634920634920362 1 0.5158730158730158166 1 0.5238095238095237249 1 
	0.5357142857142855874 1 0.5476190476190475609 1 0.5595238095238095344 1 0.5714285714285713969 1 0.5952380952380951218 1 
	0.6190476190476189577 1 0.6349206349206348854 1 0.650793650793650702 1 0.6666666666666666297 1 0.6785714285714286031 1 
	0.6904761904761904656 1 0.7023809523809523281 1 0.7142857142857141906 1 0.7321428571428569843 1 0.749999999999999889 1 
	0.7678571428571427937 1 0.7857142857142855874 1 0.7976190476190474499 1 0.8095238095238094234 1 0.8333333333333332593 1 
	0.8452380952380951218 1 0.8571428571428570953 1 0.875 1 0.8928571428571427937 1 0.9107142857142856984 1 
	0.9285714285714286031 1 0.9464285714285713969 1 0.9642857142857143016 1 0.9821428571428572063 1 0.9910714285714286031 1 
	0.9955357142857143016 1 0.9977678571428572063 1 0.9988839285714286031 1 0.9994419642857143016 1 0.9997209821428572063 1 
	1 3 
	0 3 1 3 
	3856.556155796473377 3558.12073177810862 13999.99988094494984 
	3856.556155792060053 3558.120731734130914 14002.33737548147474 
	3856.552880674969856 3558.088109059922772 14007.01236421835165 
	3856.533233785765333 3557.892410998798368 14016.3605042055533 
	3856.464473303378327 3557.207503940681818 14032.7100872860392 
	3856.189642587578874 3554.46997955911138 14065.33207998201942 
	3855.406199720055156 3546.666288675654869 14111.49407360939949 
	3854.11132900452003 3533.768384802132005 14156.48751339278533 
	3852.778447051663989 3520.491859900301279 14191.441932219921 
	3851.251961556147307 3505.286895462480061 14225.59355249579858 
	3848.989492179425724 3482.750967988330558 14266.5747057617773 
	3845.741540940854975 3450.398886541388492 14312.39945138940857 
	3842.00153042484726 3413.14551789734287 14354.29598434703439 
	3837.971425741643543 3373.002589212108887 14390.34991175761388 
	3833.753178734244102 3330.985618906443051 14420.70971066766833 
	3829.433915431131936 3287.962448944733296 14445.67389687148716 
	3825.26666452140762 3246.453438823894885 14464.49778612788941 
	3821.345800970569599 3207.398635468053271 14478.23158460639752 
	3816.530939383660552 3159.438927096618954 14491.14854773347361 
	3810.356703352452314 3097.938808323110152 14500.4660403912294 
	3802.863846198071315 3023.304213432432789 14500.4656656361658 
	3796.68960268732053 2961.804020156903334 14491.14874930182305 
	3791.874730614194959 2913.844207334948806 14478.23209921973466 
	3788.345963853114881 2878.694988252153962 14465.87138365705869 
	3785.490448531228594 2850.251869044027899 14453.39921770436194 
	3783.266683429823843 2828.101465792670751 14442.160891391115 
	3781.086441337862198 2806.384585043032075 14430.09814549017756 
	3778.448498377697888 2780.10865316290392 14413.50494304086169 
	3775.440462528831176 2750.146312713992302 14391.28058287135536 
	3773.079030686366877 2726.624643303805897 14370.93674514319355 
	3771.284959580937993 2708.75432128931925 14353.63591517050918 
	3769.556748801731374 2691.540018556331233 14335.67576339167681 
	3767.524569048446665 2671.297952078210983 14312.03585085598206 
	3765.304533137305953 2649.184694417604078 14281.92291628317071 
	3763.315511510985289 2629.37251593227893 14250.2332932939189 
	3761.374478200775229 2610.038337822345056 14213.46785091035053 
	3759.598609151651544 2592.349322226933964 14171.29388009906506 
	3758.128539123916653 2577.706299049142217 14123.58341477753311 
	3757.38735442461666 2570.323531884579552 14086.87943503282258 
	3757.075237550138354 2567.214608812287224 14064.23671749261302 
	3756.977139535405513 2566.237477467292138 14055.98368688868504 
	3756.911281288128066 2565.581478893665462 14049.78521059912055 
	3756.853146219836617 2565.002409096740394 14043.57899809991977 
	3756.802744693133718 2564.500371295985587 14037.36601230804081 
	3756.767193538105857 2564.146254568727272 14032.18368483757331 
	3756.745697934893997 2563.932141900552324 14028.55393795774035 
	3756.735797127877959 2563.833522281162459 14026.73858777333953 
	3756.730382771731911 2563.779591147923384 14025.70111650897525 
	3756.601623052698869 2562.497045748924393 14000.28101243226411 
	3756.685415975266551 2563.331687421718925 13966.69374180677187 
	3757.253455302750808 2568.989794097799859 13921.32340081859184 
	3757.871227947618081 2575.143282698106304 13888.63574816999608 
	3758.838842754359575 2584.781467121273181 13852.48487477344861 
	3760.073630616179798 2597.080899759959721 13817.1591625002693 
	3762.066891870137624 2616.935308183016787 13771.42092728479292 
	3765.188774407914934 2648.031648831213261 13717.28687919664299 
	3769.341500539492245 2689.395981038993796 13665.1591193991917 
	3773.506985714753682 2730.887403092177919 13624.48756143065293 
	3777.40631742327696 2769.727732810352791 13593.3574484105593 
	3781.24678638930709 2807.981744539360534 13568.52639444653869 
	3784.9193681830684 2844.563471473628852 13549.09551334968455 
	3788.345978717236449 2878.695136310498128 13534.1289127457203 
	3791.874743980073163 2913.844340469743202 13521.76812950882413 
	3796.087760279312533 2955.809208914764895 13510.46656622046248 
	3801.006362731470745 3004.802255743056776 13502.10031380987493 
	3806.610276482852441 3060.621527887492903 13498.94997828293162 
	3812.21417938102195 3116.440691924896782 13502.10035347371377 
	3817.132796301701092 3165.433882871202968 13510.46652153740251 
	3821.345784710687894 3207.398473507974359 13521.76858290864948 
	3826.050867581695911 3254.264701806237554 13538.24841665976055 
	3830.551404834210643 3299.09349911464551 13559.94463389582234 
	3834.772029969330106 3341.134157391774806 13586.49528496376843 
	3838.281445867685761 3376.090627064301771 13612.42300443589738 
	3842.001535008210794 3413.145563551991017 13645.70376969826248 
	3845.741559222604337 3450.399068640678706 13687.6001016812952 
	3848.989493261307416 3482.750978763432613 13733.42502348603011 
	3851.704471698663383 3509.794242987357848 13782.6023244335629 
	3853.852391378844459 3531.18916776769629 13834.51340046388032 
	3855.406193822415389 3546.666229929896417 13888.5057015170205 
	3856.189648117715024 3554.470034643336021 13934.66766036139416 
	3856.464473235922469 3557.207503268782602 13967.28967515856675 
	3856.533234148183055 3557.892414608805211 13983.6392567845669 
	3856.550424861709416 3558.063647279376255 13991.81888015417826 
	3856.554723111687053 3558.106461140576812 13995.90929419151144 
	3856.555797613224968 3558.117163998684646 13997.9545768242624 
	3856.556104624562067 3558.120222066690076 13999.1233204884993 
	3856.55615579702544 3558.120731783606061 13999.70769412788468 
	3856.556155796473377 3558.12073177810862 13999.99988094494984 
	3955.993485727932239 3547.30030925561141 13999.99988094494802 
	3955.993485183394569 3547.300309238682985 14002.33737548147292 
	3955.991303612094271 3547.26763180017042 14007.01236421834983 
	3955.978201035341954 3547.071606002682074 14016.36050420555148 
	3955.932362535094398 3546.385551021521678 14032.71008728603738 
	3955.749118397909569 3543.643440023337007 14065.3320799820176 
	3955.226783015471938 3535.826672988906012 14111.49407360939767 
	3954.363458322083261 3522.907157475501208 14156.48751339278351 
	3953.474801935289179 3509.608385947662555 14191.44193221991918 
	3952.457051692806999 3494.377944266350369 14225.59355249579676 
	3950.948613791601019 3471.804255218992239 14266.57470576177548 
	3948.783126450127838 3439.397964443894125 14312.39945138940675 
	3946.289578463623002 3402.082173490451169 14354.29598434703257 
	3943.602614223902947 3361.871980907311809 14390.34991175761206 
	3940.790210580351413 3319.784606568355684 14420.70971066766651 
	3937.910456604441606 3276.689346596335326 14445.67389687148534 
	3935.132054992350277 3235.110783497761076 14464.49778612788759 
	3932.517925476744495 3195.990539461340177 14478.2315846063957 
	3929.307744164245378 3147.950469389331374 14491.14854773347179 
	3925.191243297806068 3086.347300120462478 14500.46604039122758 
	3920.19557882116851 3011.58764689047257 14500.46566563616398 
	3916.079069865666497 2949.984403150107482 14491.14874930182123 
	3912.86887841594671 2901.944228610101163 14478.23209921973285 
	3910.516171933976693 2866.736112932442666 14465.87138365705687 
	3908.61233084721016 2838.245334286391881 14453.39921770436013 
	3907.129695911351973 2816.057815553901492 14442.16089139111318 
	3905.676078070834137 2794.304545773091832 14430.09814549017574 
	3903.917299800932597 2767.984585701976812 14413.50494304085987 
	3901.911772139979803 2737.97204007256596 14391.28058287135354 
	3900.337351335823314 2714.410957486797088 14370.93674514319173 
	3899.141201315640501 2696.510691840556319 14353.63591517050736 
	3897.988964513419887 2679.267544577592162 14335.67576339167499 
	3896.634062089724466 2658.991560341003606 14312.03585085598024 
	3895.153912714525632 2636.841249479700764 14281.92291628316889 
	3893.827786560310869 2616.995873473168103 14250.23329329391709 
	3892.533653832255368 2597.62929885926178 14213.46785091034872 
	3891.349642964323266 2579.910643259733661 14171.29388009906324 
	3890.369512467806089 2565.24308412014625 14123.58341477753129 
	3889.875351227043666 2557.84794612662381 14086.87943503282077 
	3889.667247273323937 2554.733814131826875 14064.23671749261121 
	3889.601846472649868 2553.755045324362072 14055.98368688868322 
	3889.557935166092648 2553.097947657347504 14049.78521059911873 
	3889.519176558376785 2552.517907495579493 14043.57899809991795 
	3889.485571335978875 2552.015028543101835 14037.36601230803899 
	3889.461870156205805 2551.660318374159942 14032.18368483757149 
	3889.447536422235316 2551.445847042642072 14028.55393795773853 
	3889.440938201390964 2551.347062031151836 14026.73858777333771 
	3889.437324088929017 2551.293040742480571 14025.70111650897343 
	3889.351511569443119 2550.00834456613029 14000.28101243226229 
	3889.40735680523585 2550.84438584710324 13966.69374180677005 
	3889.786088448528972 2556.511972970894476 13921.32340081859002 
	3890.197968273485458 2562.675772595402123 13888.63574816999426 
	3890.843102382109919 2572.330106713754958 13852.48487477344679 
	3891.666357285304002 2584.650148746677132 13817.15916250026748 
	3892.995321770658393 2604.537824867270501 13771.42092728479111 
	3895.076742312111946 2635.686271406429114 13717.28687919664117 
	3897.845465109006909 2677.119913908197304 13665.15911939918988 
	3900.622684029016 2718.680859740604774 13624.48756143065111 
	3903.222465795944117 2757.586270363027779 13593.35744841055748 
	3905.782990052261994 2795.904381174671471 13568.52639444653687 
	3908.231587012909131 2832.547404744933374 13549.09551334968273 
	3910.516185194738682 2866.736261071082026 13534.12891274571848 
	3912.868894409644781 2901.944361613294859 13521.76812950882231 
	3915.677808235240718 2943.979546908571592 13510.46656622046066 
	3918.9571543151078 2993.054686993604719 13502.10031380987311 
	3922.693411325810757 3048.967490587366683 13498.94997828292981 
	3926.429663532898303 3104.880185771135075 13502.10035347371195 
	3929.709016594068544 3153.955470349138977 13510.46652153740069 
	3932.517913272115038 3195.990377298175645 13521.76858290864766 
	3935.654894485784098 3242.935135455543332 13538.24841665975873 
	3938.655517362173214 3287.839047833229415 13559.94463389582052 
	3941.469510811557939 3329.950149622471145 13586.49528496376661 
	3943.809313204937098 3364.965193038175585 13612.42300443589556 
	3946.289585001257819 3402.082219047229501 13645.70376969826066 
	3948.78314279727465 3439.398146640067807 13687.60010168129338 
	3950.948616839529222 3471.804265895635126 13733.42502348602829 
	3952.758751650874729 3498.89284430064663 13782.60232443356108 
	3954.190826244548134 3520.323618296194581 13834.5134004638785 
	3955.226779310246911 3535.826614133351995 13888.50570151701868 
	3955.749122604380318 3543.64349517385017 13934.66766036139234 
	3955.932363198723124 3546.385550313010299 13967.28967515856493 
	3955.978200876143092 3547.071609638811424 13983.63925678456508 
	3955.989666348443279 3547.243129027010127 13991.81888015417644 
	3955.992529965342328 3547.286014734020227 13995.90929419150962 
	3955.993247232037447 3547.296735482296299 13997.95457682426058 
	3955.993451862099391 3547.299798677511717 13999.12332048849748 
	3955.993485795999732 3547.300309257727804 13999.70769412788286 
	3955.993485727932239 3547.30030925561141 13999.99988094494802 
	4055.43080786527662 3536.479887123453864 13999.99988094495166 
	4055.430808405401876 3536.479887052207232 14002.33737548148019 
	4055.429714305144444 3536.447155153608946 14007.01236421835529 
	4055.423166666481848 3536.250801087631316 14016.36050420555694 
	4055.400233043230855 3535.56359904004421 14032.71008728604284 
	4055.308599935893653 3532.816900200737564 14065.33207998202124 
	4055.04735981425938 3524.987057627517061 14111.49407360940131 
	4054.615594570678695 3512.04592980177722 14156.48751339278715 
	4054.171143347589805 3498.724912669671539 14191.44193221992282 
	4053.662149660385239 3483.468992678061568 14225.5935524958004 
	4052.907735148748088 3460.85754246243323 14266.57470576177911 
	4051.824721373155171 3428.397041874969091 14312.39945138940857 
	4050.577625659545447 3391.018829125774118 14354.29598434703439 
	4049.233802918623951 3350.741372591880008 14390.34991175761206 
	4047.827245405051144 3308.58359408110482 14420.70971066766288 
	4046.387004825787244 3265.416243894978834 14445.67389687148534 
	4044.997450011854198 3223.768127943840682 14464.49778612788577 
	4043.690052173731601 3184.582443344915191 14478.2315846063957 
	4042.08455674240895 3136.462011291546787 14491.14854773346997 
	4040.025776278388548 3074.755792266610115 14500.46604039122576 
	4037.527315058629483 2999.871080167507898 14500.46566563616216 
	4035.468535202869589 2938.164786235517568 14491.14874930181941 
	4033.863039420748464 2890.044249224051782 14478.23209921973466 
	4032.686381720789996 2854.777237527299803 14465.87138365705869 
	4031.734224046404961 2826.238798983731158 14453.39921770436194 
	4030.992717397025899 2804.014164864209761 14442.160891391115 
	4030.265724030195088 2782.22450604109963 14430.09814549017756 
	4029.3861127357236 2755.860517664556937 14413.50494304086351 
	4028.383095286784283 2725.797766753280939 14391.28058287135536 
	4027.595684457637617 2702.197271045177786 14370.93674514319719 
	4026.997459635820178 2684.26706156120099 14353.63591517050918 
	4026.421193072430015 2666.995069955466533 14335.67576339167863 
	4025.74357169443465 2646.685167774307956 14312.03585085598388 
	4025.003309305998755 2624.497803689732336 14281.92291628317435 
	4024.340077092162574 2604.619230238699402 14250.23329329392254 
	4023.692847892703412 2585.220258973264663 14213.46785091035417 
	4023.100689056540432 2567.471963677580334 14171.2938800990687 
	4022.610500642189436 2552.77986844844645 14123.58341477753675 
	4022.363351700901603 2545.37236018480553 14086.87943503282622 
	4022.259285938692301 2542.253018001955752 14064.23671749261666 
	4022.226572116622265 2541.272612244607444 14055.98368688868868 
	4022.204614026087711 2540.614415169941367 14049.78521059912418 
	4022.185227723232856 2540.033404851445994 14043.57899809992341 
	4022.16842288593989 2539.529684542880659 14037.36601230804445 
	4022.156566891865168 2539.174381172114863 14032.18368483757695 
	4022.149401383414897 2538.959550858934108 14028.55393795774398 
	4022.146097121034018 2538.860600887415785 14026.73858777334317 
	4022.144295960697946 2538.806488806878406 14025.70111650897888 
	4022.101326962115309 2537.519647045358397 14000.28101243226774 
	4022.129288835064926 2538.357084713194581 13966.69374180677369 
	4022.318692688424107 2544.034153291583152 13921.32340081859365 
	4022.524690097366147 2550.20826341926886 13888.6357481699979 
	4022.84733461285532 2559.878747678266791 13852.48487477344861 
	4023.25907662130021 2572.219398100635317 13817.15916250027294 
	4023.923710849407598 2592.140343595860941 13771.42092728479292 
	4024.964701381024042 2623.340894424112776 13717.28687919664299 
	4026.349407773008807 2664.84384787442059 13665.1591193991917 
	4027.738379245657143 2706.474316544160047 13624.48756143064929 
	4029.038589344829688 2745.444809158867884 13593.35744841055384 
	4030.319184246642635 2783.827018284165206 13568.52639444653505 
	4031.543790848510071 2820.531338767143552 13549.09551334968091 
	4032.686383326637042 2854.777386249611482 13534.12891274571848 
	4033.863036795150038 2890.044383159691733 13521.76812950882231 
	4035.2678525331944 2932.149885085569167 13510.46656622046066 
	4036.907941625778221 2981.307118458142668 13502.10031380987675 
	4038.776547109977855 3037.313453240107719 13498.94997828293162 
	4040.645146542829025 3093.319679674564668 13502.10035347371559 
	4042.285243125025772 3142.477057514652188 13510.46652153740433 
	4043.69004811564173 3184.582280773774983 13521.7685829086513 
	4045.258946344345986 3231.605567855143363 13538.24841665976237 
	4046.759622662164929 3276.584596913790847 13559.94463389582415 
	4048.166968900441589 3318.766142992649748 13586.49528496377025 
	4049.337176550121967 3353.839759211973615 13612.4230044358992 
	4050.577623705958104 3391.018875107788062 13645.7037696982643 
	4051.824723310970512 3428.397224792754059 13687.6001016812952 
	4052.907733183042183 3460.857553390154408 13733.42502348603011 
	4053.81303645522803 3487.991445370948441 13782.60232443355926 
	4054.529245184595766 3509.458069622250605 13834.5134004638785 
	4055.047357620936509 3524.986998696244882 13888.50570151701686 
	4055.308601260519026 3532.816955495571619 13934.6676603613887 
	4055.400232312133994 3535.563598401377476 13967.28967515856493 
	4055.42316718815573 3536.250804689661436 13983.63925678456144 
	4055.428895339759947 3536.422611400421374 13991.81888015417644 
	4055.430330700526156 3536.465568633887415 13995.9092941915078 
	4055.430688117283353 3536.476307403293504 13997.95457682426058 
	4055.430790550534311 3536.479375716482991 13999.1233204884993 
	4055.43080779776119 3536.479887132359636 13999.7076941278865 
	4055.43080786527662 3536.479887123453864 13999.99988094495166 
	4154.868137796735027 3525.659464600956653 13999.99988094494984 
	4154.868137796735937 3525.659464556759303 14002.33737548147838 
	4154.868137242268858 3525.626677893856595 14007.01236421835347 
	4154.868133916058468 3525.429996091515022 14016.36050420555512 
	4154.868122274947382 3524.74164612088407 14032.71008728604102 
	4154.868075746225259 3521.990360664963191 14065.33207998201942 
	4154.867943109677981 3514.147441940767749 14111.49407360939949 
	4154.867723888244655 3501.184702475146423 14156.48751339278533 
	4154.867498231218633 3487.841438717032361 14191.441932219921 
	4154.867239797049479 3472.560041481931421 14225.59355249579858 
	4154.866856760928385 3449.910829693094456 14266.5747057617773 
	4154.866306882434401 3417.396119777473814 14312.39945138940675 
	4154.865673698327555 3379.955484718881507 14354.29598434703257 
	4154.864991400891086 3339.61076428708202 14390.34991175761024 
	4154.864277251166641 3297.38258174301609 14420.70971066766106 
	4154.863545999105554 3254.143141546579955 14445.67389687148352 
	4154.86284048280595 3212.425472617705964 14464.49778612788396 
	4154.862176679916047 3173.174347338201187 14478.23158460639388 
	4154.861361523003325 3124.973553584258298 14491.14854773346815 
	4154.860316223752307 3063.164284063961532 14500.46604039122394 
	4154.859047681736229 2988.15451362554677 14500.46566563616034 
	4154.85800238122556 2926.345169228720806 14491.14874930181759 
	4154.85718722250931 2878.144270499202776 14478.23209921973103 
	4154.856589801661357 2842.818362207587597 14465.87138365705505 
	4154.856106362395622 2814.23226422609423 14453.39921770435831 
	4154.85572987856267 2791.970514625439137 14442.16089139111136 
	4154.855360763175668 2770.144466771158477 14430.09814549017392 
	4154.854914158966494 2743.73645020362892 14413.50494304085987 
	4154.854404897941095 2713.623494111853688 14391.28058287135173 
	4154.854005107101329 2689.983585228168067 14370.93674514319355 
	4154.853701370529052 2672.023432112437149 14353.63591517050554 
	4154.853408784125349 2654.722595976726552 14335.67576339167499 
	4154.853064735718362 2634.378776037100124 14312.03585085598024 
	4154.852688883223891 2612.154358751828568 14281.92291628317071 
	4154.852352141492702 2592.242587779587666 14250.2332932939189 
	4154.852023524187643 2572.811220010180477 14213.46785091035053 
	4154.851722869215337 2555.033284710379576 14171.29388009906506 
	4154.851473986081146 2540.316653519450028 14123.58341477753311 
	4154.851348503329973 2532.896774426849333 14086.87943503282258 
	4154.851295661878794 2529.772223321495403 14064.23671749261302 
	4154.851279053867074 2528.790180101676924 14055.98368688868504 
	4154.851267904053202 2528.130883933623409 14049.78521059912055 
	4154.851258061773478 2527.548903250284638 14043.57899809991977 
	4154.851249528785047 2527.044341789996452 14037.36601230804081 
	4154.85124350996557 2526.688444977547533 14032.18368483757331 
	4154.851239870756217 2526.473256001023856 14028.55393795774035 
	4154.851238194546568 2526.374140637405162 14026.73858777333953 
	4154.851237277895052 2526.319938401435593 14025.70111650897525 
	4154.851215478858649 2525.03094586256384 14000.28101243226411 
	4154.851229665033316 2525.869783138578896 13966.69374180677005 
	4154.851325834199997 2531.556332164678224 13921.32340081859002 
	4154.85143042323125 2537.740753316564678 13888.63574816999426 
	4154.851594240602026 2547.427387270749023 13852.48487477344497 
	4154.851803290420321 2559.788647087353183 13817.1591625002693 
	4154.85214074992291 2579.74286028011511 13771.42092728478929 
	4154.852669285214688 2610.995516999329084 13717.28687919663935 
	4154.853372342516195 2652.567780743624553 13665.15911939918988 
	4154.854077559911275 2694.267773192587356 13624.48756143064747 
	4154.854737717488206 2733.303346711543782 13593.35744841055202 
	4154.855387909587989 2771.749654919477052 13568.52639444653323 
	4154.856009678341252 2808.515272038448984 13549.09551334967909 
	4154.856589804128816 2842.818511010196289 13534.12891274571666 
	4154.857187224711197 2878.144404303244301 13521.76812950882049 
	4154.857900489111671 2920.320223079376774 13510.46656622045884 
	4154.858733209404818 2969.55954970869152 13502.10031380987493 
	4154.859681952925712 3025.659415939982409 13498.94997828292981 
	4154.860630694694919 3081.75917352080387 13502.10035347371377 
	4154.861463417382765 3130.998644992589561 13510.46652153740251 
	4154.862176677058414 3173.174184563977178 13521.76858290864948 
	4154.862973248424169 3220.276001504450051 13538.24841665976055 
	4154.86373519011795 3265.330145632375661 13559.94463389582234 
	4154.864449742660327 3307.582135223346995 13586.49528496376843 
	4154.865043887364664 3342.714325185848338 13612.42300443589738 
	4154.865673698996943 3379.955530603027455 13645.70376969826248 
	4154.866306885634003 3417.39630279214407 13687.60010168129338 
	4154.866856761257623 3449.910840522357375 13733.42502348602829 
	4154.867316407434373 3477.090046684237677 13782.60232443355744 
	4154.867680050295348 3498.592520150749351 13834.51340046387668 
	4154.867943108765758 3514.147382899700915 13888.50570151701504 
	4154.868075747182047 3521.990416026085768 13934.66766036138688 
	4154.868122274933739 3524.741645445605172 13967.28967515856311 
	4154.868133916114857 3525.429999719667649 13983.63925678455962 
	4154.868136826493355 3525.602093148055246 13991.81888015417462 
	4154.868137554180976 3525.64512222733083 13995.90929419150598 
	4154.868137736095377 3525.655878886905157 13997.95457682425877 
	4154.868137788071181 3525.658952327304632 13999.12332048849748 
	4154.868137796735027 3525.659464606481379 13999.70769412788468 
	4154.868137796735027 3525.659464600956653 13999.99988094494984 
	0 
	
	0 
	0 
	85 0 0.002232142857142857019 0.004464285714285714038 0.008928571428571428076 0.01785714285714285615 0.0357142857142857123 0.05357142857142856845 0.0625 0.07142857142857142461 0.08928571428571427382 0.1071428571428571369 0.125 0.1428571428571428492 0.1587301587301587213 0.1746031746031745935 0.1904761904761904656 0.2023809523809523836 0.2142857142857142738 0.238095238095238082 0.2619047619047618625 0.2857142857142856984 0.2976190476190476164 0.3095238095238095344 0.3214285714285713969 0.3273809523809523281 0.3333333333333333148 0.3452380952380952328 0.3571428571428570953 0.3690476190476190133 0.375 0.3809523809523809312 0.3928571428571428492 0.4047619047619047672 0.4166666666666666297 0.4285714285714285476 0.4444444444444444198 0.4603174603174602919 0.476190476190476164 0.4801587301587301182 0.4821428571428570953 0.4841269841269840724 0.4861111111111110494 0.4880952380952380265 0.4900793650793650036 0.4910714285714284921 0.4915674603174602364 0.491815476190476164 0.4920634920634920362 0.5158730158730158166 0.5238095238095237249 0.5357142857142855874 0.5476190476190475609 0.5595238095238095344 0.5714285714285713969 0.5952380952380951218 0.6190476190476189577 0.6349206349206348854 0.650793650793650702 0.6666666666666666297 0.6785714285714286031 0.6904761904761904656 0.7023809523809523281 0.7142857142857141906 0.7321428571428569843 0.749999999999999889 0.7678571428571427937 0.7857142857142855874 0.7976190476190474499 0.8095238095238094234 0.8333333333333332593 0.8452380952380951218 0.8571428571428570953 0.875 0.8928571428571427937 0.9107142857142856984 0.9285714285714286031 0.9464285714285713969 0.9642857142857143016 0.9821428571428572063 0.9910714285714286031 0.9955357142857143016 0.9977678571428572063 0.9988839285714286031 0.9994419642857143016 0.9997209821428572063 
	0 
	0 
	0 
	F 1 F 0 F 1 F 0 } I I I I #
tcoedge-coedge $-1 -1 $-1 $14 $14 $18 $19 reversed $9 $20 -6.283185307179586232 -2.215662355088581581e-31 #
tcoedge-coedge $-1 -1 $-1 $21 $22 $11 $16 reversed $12 $23 -6.283185307179586232 -6.646978049714368826e-30 #
tedge-edge $-1 -1 $-1 $24 6.646978049714368826e-30 $24 6.283185307179586232 $15 $25 forward @7 unknown 0.0006476850224115149757 #
pcurve $-1 -1 $-1 0 forward { exppc nurbs 2 periodic 5 
	6.646978049714368826e-30 2 1.570796326794896558 2 3.141592653589793116 2 4.712388980384689674 2 6.283185307179586232 2 
	0 500 1 
	-500 500 0.7071067811865451302 
	-500 0 1 
	-500 -500 0.7071067811865451302 
	0 -500 1 
	500 -500 0.7071067811865451302 
	500 0 1 
	500 500 0.7071067811865451302 
	0 500 1 
	0 
	plane 4154.859681952888423 3025.659382843056846 14000.00000000000364 0.9999999998569972792 -1.691169161364969309e-05 -5.197112581643623334e-15 -5.197112582386824182e-15 0 -1 forward_v I I I I 
	} 0 0 #
tcoedge-coedge $-1 -1 $-1 $22 $21 $14 $19 forward $12 $26 2.215662355088581581e-31 6.283185307179586232 #
tedge-edge $-1 -1 $-1 $27 2.215662355088581581e-31 $27 6.283185307179586232 $18 $28 forward @7 unknown 0.0006476850486885588846 #
pcurve $-1 -1 $-1 0 forward { exppc nurbs 2 periodic 5 
	-6.283185307179586232 2 -4.712388980384689674 2 -3.141592653589793116 2 -1.570796326794896558 2 -2.215662355088581581e-31 2 
	0 500 1 
	500 499.9999999999990905 0.7071067811865463515 
	500 -4.54747350886464119e-13 1 
	500 -500.0000000000004547 0.7071067811865454633 
	0 -499.9999999999995453 1 
	-500 -499.9999999999990905 0.7071067811865463515 
	-500 4.54747350886464119e-13 1 
	-500 500 0.7071067811865466846 
	0 500 1 
	0 
	plane 3806.610273177178442 3060.62149495611493 14000.00000000000909 -0.9949983108038356061 0.09989174889606429464 -5.19711258164362649e-15 5.223237592679933738e-15 0 -1 reverse_v I I I I 
	} 0 0 #
coedge $-1 -1 $-1 $18 $15 $22 $29 reversed $12 $30 #
coedge $-1 -1 $-1 $15 $18 $21 $29 forward $12 $31 #
pcurve $-1 -1 $-1 0 forward { exppc nubs 1 periodic 2 
	-6.283185307179586232 1 -6.646978049714368826e-30 1 
	1 1 
	0 1 
	7.140469717244242707e-12 
	spline forward { ref 0 } I I I I 
	} 0 0 #
tvertex-vertex $-1 -1 $-1 $16 $32 0.0001444650809457093978 #
ellipse-curve $-1 -1 $-1 4154.859681952888423 3025.659382843056846 14000.00000000000364 0.9999999998569972792 -1.691169161364969309e-05 -5.197112581643623334e-15 0.008455845806835782241 499.9999999284986529 0 1 I I #
pcurve $-1 -1 $-1 0 forward { exppc nubs 1 periodic 2 
	2.215662355088581581e-31 1 6.283185307179586232 1 
	0 0 
	1 0 
	4.413832302510660473e-13 
	spline forward { ref 0 } I I I I 
	} 0 0 #
tvertex-vertex $-1 -1 $-1 $19 $33 0.0001444649035807272673 #
ellipse-curve $-1 -1 $-1 3806.610273177178442 3060.62149495611493 14000.00000000000909 0.9949983108038356061 -0.09989174889606429464 5.19711258164362649e-15 49.94587444803214282 497.4991554019177329 0 1 I I #
edge $-1 -1 $-1 $27 2.281259227602130916e-09 $24 1 $22 $34 forward @7 tangent #
pcurve $-1 -1 $-1 -1 $34 0 0 #
pcurve $-1 -1 $-1 1 $34 1 0 #
point $-1 -1 $-1 4154.868137798695898 3525.659382771555556 14000.00000000000364 #
point $-1 -1 $-1 3856.556147625210542 3558.120650358032435 14000.00000000000909 #
intcurve-curve $-1 -1 $-1 forward { parcur full nubs 3 open 2 
	0 3 1 3 
	3856.556155796473377 3558.12073177810862 13999.99988094494984 
	3955.993485727932239 3547.30030925561141 13999.99988094494802 
	4055.43080786527662 3536.479887123453864 13999.99988094495166 
	4154.868137796735027 3525.659464600956653 13999.99988094494984 
	0 
	
	spline forward { ref 0 } I I I I 
	null_surface 
	nubs 1 open 2 
	0 1 1 1 
	0 0 
	0 1 
	
	nullbs 
	I I 
	0 
	0 
	0 
	surf1 } F 2.281259227602130916e-09 F 1 #
End-of-ACIS-data 