700 0 1 0           
4 LibG 20 ASM 224.0.1.65535 NT 24 Wed Jul 17 15:51:17 2019 
1000 9.999999999999999547e-07 1.000000000000000036e-10 
body $-1 -1 $-1 $1 $-1 $2 #
lump $-1 -1 $-1 $-1 $3 $0 #
transform $-1 -1 1 0 0 0 1 0 0 0 1 0 0 0 1 no_rotate no_reflect no_shear #
shell $-1 -1 $-1 $-1 $-1 $4 $-1 $1 #
face $-1 -1 $-1 $5 $6 $3 $-1 $7 forward single #
face $-1 -1 $-1 $8 $9 $3 $-1 $10 reversed single #
loop $-1 -1 $-1 $-1 $11 $4 #
plane-surface $-1 -1 $-1 7221.66989828790247 2475.001638350870053 14000.00000000000364 0.9209894165464311833 -0.3895875955538937729 0 0 0 -1 forward_v I I I I #
face $-1 -1 $-1 $-1 $12 $3 $-1 $13 forward single #
loop $-1 -1 $-1 $-1 $14 $5 #
plane-surface $-1 -1 $-1 6899.323602501863206 2611.357296792528359 14000.00000000000182 0.9209894165464311833 -0.3895875955538937729 5.197112581643630434e-15 5.642966670705081585e-15 0 -1 forward_v I I I I #
tcoedge-coedge $-1 -1 $-1 $11 $11 $15 $16 forward $6 $17 0 6.283185307179586232 #
loop $-1 -1 $-1 $-1 $18 $8 #
spline-surface $-1 -1 $-1 forward { exactsur full nubs 3 3 periodic open none none 80 2 
	0 3 0.002232142857142857019 1 0.004464285714285714038 1 0.008928571428571428076 1 0.01785714285714285615 1 
	0.0357142857142857123 1 0.05357142857142856845 1 0.0625 1 0.07142857142857142461 1 0.08928571428571427382 1 
	0.1071428571428571369 1 0.125 1 0.1428571428571428492 1 0.1587301587301587213 1 0.1746031746031745935 1 
	0.1904761904761904656 1 0.2023809523809523836 1 0.2142857142857142738 1 0.238095238095238082 1 0.2619047619047618625 1 
	0.2857142857142856984 1 0.2976190476190476164 1 0.3095238095238095344 1 0.3214285714285713969 1 0.3273809523809523281 1 
	0.3303571428571427937 1 0.3333333333333333148 1 0.3452380952380952328 1 0.3571428571428570953 1 0.3690476190476190133 1 
	0.375 1 0.3809523809523809312 1 0.3928571428571428492 1 0.4047619047619047672 1 0.4166666666666666297 1 
	0.4285714285714285476 1 0.4444444444444444198 1 0.4603174603174602919 1 0.476190476190476164 1 0.4841269841269840724 1 
	0.4920634920634920362 1 0.5 1 0.5079365079365079083 1 0.5158730158730158166 1 0.5238095238095237249 1 
	0.5476190476190475609 1 0.5714285714285713969 1 0.5952380952380951218 1 0.6190476190476189577 1 0.6269841269841269771 1 
	0.6349206349206348854 1 0.650793650793650702 1 0.6666666666666666297 1 0.6904761904761904656 1 0.7023809523809523281 1 
	0.7142857142857141906 1 0.7321428571428569843 1 0.7410714285714283811 1 0.749999999999999889 1 0.7678571428571427937 1 
	0.7857142857142855874 1 0.7976190476190474499 1 0.8095238095238094234 1 0.8333333333333332593 1 0.8452380952380951218 1 
	0.8571428571428570953 1 0.875 1 0.8928571428571427937 1 0.9107142857142856984 1 0.9285714285714286031 1 
	0.9464285714285713969 1 0.9642857142857143016 1 0.9821428571428572063 1 0.9910714285714286031 1 0.9955357142857143016 1 
	0.9977678571428572063 1 0.9988839285714286031 1 0.9994419642857143016 1 0.9997209821428572063 1 1 3 
	0 3 1 3 
	7094.11743162460607 3071.852079152424267 13999.99989247839767 
	7094.117431608951847 3071.852079115411016 14002.33738700792128 
	7094.104658345212556 3071.821882977670612 14007.01237566880627 
	7094.028033568853971 3071.640741152672035 14016.36051557914834 
	7093.759861023580015 3071.006778267973004 14032.71009831250376 
	7092.687994545899528 3068.472873973081278 14065.33208987395119 
	7089.632491299405956 3061.249630257027093 14111.49408029197912 
	7084.582369420416398 3049.311085870142961 14156.48751729711694 
	7079.383999594586385 3037.022081683952365 14191.44193525775336 
	7073.430556959425303 3022.948076963621133 14225.59355482711908 
	7064.606705699636223 3002.088394274650909 14266.57470589439981 
	7051.939378601273347 2972.142691880097573 14312.39945007700408 
	7037.352972674728335 2937.660265754475859 14354.29598136009736 
	7021.635170139340516 2900.503205438385066 14390.34990866209228 
	7005.183595234318091 2861.611499066147189 14420.70970681937433 
	6988.338045756321662 2821.788432412664406 14445.67389323656244 
	6972.085359936542773 2783.366902052863225 14464.49778244503068 
	6956.793608796058834 2747.217031981263062 14478.23158257438627 
	6938.015178515851403 2702.824613575965486 14491.14854349102643 
	6913.935054205493543 2645.898931413690207 14500.46604690760068 
	6884.712183360875315 2576.815739145794851 14500.46565079610991 
	6860.632026869362562 2519.889980906958044 14491.14878541692269 
	6841.85356393051643 2475.497485296129526 14478.232059248925 
	6828.091007236542282 2442.962647933816243 14465.87155176948909 
	6816.954234819206249 2416.635193857074228 14453.3992447317687 
	6809.365440937827771 2398.6952005696794 14443.56575293269998 
	6805.092648472024848 2388.594271574475442 14437.63741278671478 
	6798.749350635357587 2373.598644813666397 14428.43889336333996 
	6789.489948494922828 2351.709314988557708 14413.50497796142736 
	6777.758302701071443 2323.975573621759395 14391.28066565904555 
	6768.548489930193682 2302.203473618788394 14370.93680048151691 
	6761.551435820648294 2285.662359744954301 14353.63597477409166 
	6754.811244532195815 2269.728472442076963 14335.67581937416799 
	6746.885547886627137 2250.992037266486477 14312.03589646965702 
	6738.227183928604973 2230.523568401134526 14281.92296381718916 
	6730.469817420610525 2212.185067546231949 14250.23332193014721 
	6722.899581905171544 2194.288946442699398 14213.46789088208607 
	6715.973560302755686 2177.915754207171631 14171.29387220912758 
	6710.240164047230792 2164.361941579514678 14123.58339234641971 
	6707.028321857070296 2156.76911085671918 14082.80118173366282 
	6705.417460864461646 2152.961017522517977 14049.80452012851674 
	6704.691288151240769 2151.244337137689854 14024.93323910485014 
	6704.449075362487747 2150.671743406423047 13999.99996483340146 
	6704.691262407976865 2151.244276280332087 13975.06666698394838 
	6705.417521549023149 2152.961160981505145 13950.19543022320613 
	6707.430739415083735 2157.720430447477156 13908.94945597445621 
	6712.48817757474626 2169.676270605222726 13852.07148786091966 
	6723.164555430314067 2194.915346808425056 13782.2472615055467 
	6737.77579864562631 2229.456488563047515 13717.28697106473737 
	6751.947113280339181 2262.957634251543368 13671.67479035775978 
	6763.255006926919123 2289.689620820876826 13641.91805842239228 
	6772.751996963591409 2312.140611079886185 13619.29865176617932 
	6785.425287706611016 2342.100411597946731 13593.35750442125754 
	6804.488144994395043 2387.165218618282779 13561.75282023045111 
	6823.503369206424395 2432.117420516718084 13538.24842734270351 
	6841.853639986004055 2475.497665092242642 13521.76851303222611 
	6858.284749483726046 2514.340991014778865 13510.46662446762457 
	6873.871003250309514 2551.187068575677586 13503.66931307617961 
	6888.395709330710815 2585.523635579174424 13500.52505161805493 
	6902.966247662881869 2619.968550536485964 13499.47525016260261 
	6921.179393687924858 2663.024630664298456 13502.10041738057225 
	6940.362467505977293 2708.373630901370234 13510.46669164459672 
	6956.793583457601017 2747.216972080899268 13521.76843246015051 
	6975.143801456894835 2790.597091883229496 13538.24866875783118 
	6992.696371007285052 2832.091561864764117 13559.9446701315228 
	7009.157211768194429 2871.005172824477086 13586.49537147940282 
	7022.844284559119842 2903.361565398673974 13612.42306894586 
	7037.352985259959496 2937.660295506064358 13645.70384313364775 
	7051.939468558216504 2972.14290454013053 13687.60013542907836 
	7064.606680663532643 3002.088335090296823 13733.42511482674672 
	7075.195479241434441 3027.120372904158103 13782.60225658414129 
	7083.572443915863005 3046.923610725486014 13834.51347650626303 
	7089.632485933400858 3061.249617572093939 13888.5057013214373 
	7092.688009603923092 3068.47290957041514 13934.66768149828749 
	7093.759861566122709 3071.006779550556075 13967.28968631781026 
	7094.028034726629812 3071.640743889658552 13983.63926872098637 
	7094.095080445964413 3071.799240717111843 13991.81889169247552 
	7094.111844005178682 3071.838869957850875 13995.90930574365848 
	7094.116034675365881 3071.848776748860018 13997.95458835998761 
	7094.117232048719416 3071.851607352809424 13999.12333202360787 
	7094.117431626563302 3071.852079157050866 13999.70770566220745 
	7094.11743162460607 3071.852079152424267 13999.99989247839767 
	7201.566196886618854 3026.400193005204983 13999.99989247839767 
	7201.566196870964632 3026.400192968191732 14002.33738700792128 
	7201.553423607225341 3026.369996830451328 14007.01237566880627 
	7201.476798830866755 3026.188855005452751 14016.36051557914834 
	7201.2086262855928 3025.554892120753721 14032.71009831250376 
	7200.136759807912313 3023.020987825861994 14065.33208987395119 
	7197.081256561417831 3015.797744109807809 14111.49408029197912 
	7192.031134682428274 3003.859199722924131 14156.48751729711694 
	7186.83276485659826 2991.570195536733536 14191.44193525775336 
	7180.879322221436269 2977.496190816402759 14225.59355482711908 
	7172.055470961647188 2956.636508127432535 14266.57470589439981 
	7159.388143863283403 2926.690805732879198 14312.39945007700408 
	7144.801737936738391 2892.208379607257484 14354.29598136009736 
	7129.083935401350573 2855.051319291167147 14390.34990866209228 
	7112.632360496328147 2816.15961291892927 14420.70970681937433 
	7095.786811018331719 2776.336546265446486 14445.67389323656244 
	7079.534125198551919 2737.915015905645305 14464.49778244503068 
	7064.242374058067981 2701.765145834045143 14478.23158257438627 
	7045.46394377786055 2657.372727428747567 14491.14854349102643 
	7021.38381946750269 2600.447045266472742 14500.46604690760068 
	6992.160948622884462 2531.363852998576931 14500.46565079610991 
	6968.080792131371709 2474.438094759740579 14491.14878541692269 
	6949.302329192525576 2430.045599148911606 14478.232059248925 
	6935.539772498551429 2397.510761786598323 14465.87155176948909 
	6924.403000081215396 2371.183307709856308 14453.3992447317687 
	6916.814206199837827 2353.243314422461481 14443.56575293269998 
	6912.541413734033995 2343.142385427257523 14437.63741278671478 
	6906.198115897366733 2328.146758666448477 14428.43889336333996 
	6896.938713756932884 2306.257428841339788 14413.50497796142736 
	6885.207067963081499 2278.52368747454102 14391.28066565904555 
	6875.997255192203738 2256.751587471570474 14370.93680048151691 
	6869.00020108265835 2240.210473597735927 14353.63597477409166 
	6862.260009794205871 2224.276586294858589 14335.67581937416799 
	6854.334313148638103 2205.540151119268103 14312.03589646965702 
	6845.675949190615029 2185.071682253916151 14281.92296381718916 
	6837.918582682621491 2166.733181399013574 14250.23332193014721 
	6830.34834716718251 2148.837060295480569 14213.46789088208607 
	6823.422325564767561 2132.463868059952802 14171.29387220912758 
	6817.688929309242667 2118.910055432295849 14123.58339234641971 
	6814.47708711908308 2111.317224709499897 14082.80118173366282 
	6812.86622612647443 2107.509131375298693 14049.80452012851674 
	6812.140053413253554 2105.79245099047057 14024.93323910485014 
	6811.897840624500532 2105.219857259203764 13999.99996483340146 
	6812.140027669989649 2105.792390133112804 13975.06666698394838 
	6812.866286811036844 2107.509274834285407 13950.19543022320613 
	6814.87950467709743 2112.268544300257417 13908.94945597445621 
	6819.936942836759954 2124.224384458002987 13852.07148786091966 
	6830.61332069232958 2149.463460661204863 13782.2472615055467 
	6845.224563907640913 2184.004602415827321 13717.28697106473737 
	6859.395878542354694 2217.50574810432272 13671.67479035775978 
	6870.703772188934636 2244.237734673656178 13641.91805842239228 
	6880.200762225607832 2266.688724932665536 13619.29865176617932 
	6892.874052968627439 2296.648525450725629 13593.35750442125754 
	6911.936910256411466 2341.713332471062131 13561.75282023045111 
	6930.952134468440818 2386.665534369496982 13538.24842734270351 
	6949.302405248020477 2430.045778945021539 13521.76851303222611 
	6965.733514745743378 2468.889104867557762 13510.46662446762457 
	6981.319768512326846 2505.735182428456483 13503.66931307617961 
	6995.844474592728147 2540.071749431953322 13500.52505161805493 
	7010.415012924898292 2574.516664389264861 13499.47525016260261 
	7028.62815894994219 2617.572744517077354 13502.10041738057225 
	7047.811232767993715 2662.921744754149131 13510.46669164459672 
	7064.242348719618349 2701.765085933678165 13521.76843246015051 
	7082.592566718911257 2745.145205736008393 13538.24866875783118 
	7100.145136269301474 2786.639675717543469 13559.9446701315228 
	7116.605977030210852 2825.553286677256438 13586.49537147940282 
	7130.293049821136265 2857.909679251453326 13612.42306894586 
	7144.801750521975009 2892.20840935884371 13645.70384313364775 
	7159.388233820232017 2926.691018392909882 13687.60013542907836 
	7172.055445925548156 2956.63644894307663 13733.42511482674672 
	7182.644244503449045 2981.668486756937909 13782.60225658414129 
	7191.021209177877608 3001.471724578265821 13834.51347650626303 
	7197.081251195414552 3015.7977314248742 13888.5057013214373 
	7200.136774865936786 3023.021023423195402 13934.66768149828749 
	7201.208626828136403 3025.554893403336337 13967.28968631781026 
	7201.476799988642597 3026.188857742439268 13983.63926872098637 
	7201.543845707977198 3026.347354569892559 13991.81889169247552 
	7201.560609267191467 3026.386983810631591 13995.90930574365848 
	7201.564799937378666 3026.396890601640735 13997.95458835998761 
	7201.5659973107322 3026.39972120559014 13999.12333202360787 
	7201.566196888576087 3026.400193009831582 13999.70770566220745 
	7201.566196886618854 3026.400193005204983 13999.99989247839767 
	7309.014962148987252 2980.948306857834723 13999.99989247839767 
	7309.014962133333029 2980.948306820822381 14002.33738700792128 
	7309.002188869591919 2980.918110683081977 14007.01237566880627 
	7308.925564093232424 2980.736968858083401 14016.36051557914834 
	7308.657391547953011 2980.103005973387098 14032.71009831250376 
	7307.585525070256153 2977.569101678503102 14065.33208987395119 
	7304.530021823716197 2970.345857962469836 14111.49408029197912 
	7299.479899944682074 2958.407313575603439 14156.48751729711694 
	7294.281530118838418 2946.11830938941921 14191.44193525775336 
	7288.328087483666422 2932.04430466909298 14225.59355482711908 
	7279.504236223839143 2911.184621980139127 14266.57470589439981 
	7266.836909125448074 2881.238919585597159 14312.39945007700408 
	7252.250503198865772 2846.756493459992726 14354.29598136009736 
	7236.532700663472497 2809.599433143902843 14390.34990866209228 
	7220.081125758420058 2770.707726771678608 14420.70970681937433 
	7203.23557628042181 2730.884660118196734 14445.67389323656244 
	7186.982890460637464 2692.463129758397827 14464.49778244503068 
	7171.691139320148977 2656.313259686799029 14478.23158257438627 
	7152.912709039936999 2611.920841281503272 14491.14854349102643 
	7128.832584729571863 2554.995159119230721 14500.46604690760068 
	7099.609713884942721 2485.911966851339002 14500.46565079610991 
	7075.529557393424511 2428.986208612504925 14491.14878541692269 
	7056.75109445457565 2384.593713001677315 14478.232059248925 
	7042.988537760598774 2352.058875639364942 14465.87155176948909 
	7031.851765343260922 2325.731421562624291 14453.3992447317687 
	7024.262971461880625 2307.791428275229464 14443.56575293269998 
	7019.990178996078612 2297.690499280025961 14437.63741278671478 
	7013.646881159410441 2282.694872519217824 14428.43889336333996 
	7004.387479018972954 2260.80554269410959 14413.50497796142736 
	6992.655833225121569 2233.071801327311732 14391.28066565904555 
	6983.446020454241079 2211.299701324341186 14370.93680048151691 
	6976.448966344694782 2194.758587450507548 14353.63597477409166 
	6969.708775056242303 2178.824700147629756 14335.67581937416799 
	6961.783078410671806 2160.088264972039724 14312.03589646965702 
	6953.124714452649641 2139.619796106688227 14281.92296381718916 
	6945.367347944653375 2121.281295251786105 14250.23332193014721 
	6937.797112429214394 2103.3851741482531 14213.46789088208607 
	6930.871090826796717 2087.011981912726242 14171.29387220912758 
	6925.137694571271822 2073.458169285068379 14123.58339234641971 
	6921.925852381111326 2065.865338562274246 14082.80118173366282 
	6920.314991388501767 2062.057245228072588 14049.80452012851674 
	6919.5888186752818 2060.340564843244465 14024.93323910485014 
	6919.346605886528778 2059.767971111977204 13999.99996483340146 
	6919.588792932017896 2060.340503985887153 13975.06666698394838 
	6920.31505207306418 2062.057388687059756 13950.19543022320613 
	6922.328269939125676 2066.816658153031767 13908.94945597445621 
	6927.385708098791838 2078.772498310776882 13852.07148786091966 
	6938.062085954361464 2104.011574513978758 13782.2472615055467 
	6952.673329169675526 2138.552716268599397 13717.28697106473737 
	6966.844643804391126 2172.053861957095251 13671.67479035775978 
	6978.152537450971067 2198.785848526427799 13641.91805842239228 
	6987.649527487643354 2221.236838785436703 13619.29865176617932 
	7000.322818230666599 2251.196639303496795 13593.35750442125754 
	7019.385675518451535 2296.261446323831933 13561.75282023045111 
	7038.400899730485435 2341.213648222264965 13538.24842734270351 
	7056.751170510068732 2384.593892797788612 13521.76851303222611 
	7073.182280007792542 2423.437218720324381 13510.46662446762457 
	7088.768533774379648 2460.283296281220373 13503.66931307617961 
	7103.293239854783678 2494.619863284717212 13500.52505161805493 
	7117.863778186955642 2529.064778242027842 13499.47525016260261 
	7136.076924212004997 2572.120858369838061 13502.10041738057225 
	7155.259998030064708 2617.469858606905746 13510.46669164459672 
	7171.691113981692979 2656.313199786432961 13521.76843246015051 
	7190.041331980987707 2699.693319588761824 13538.24866875783118 
	7207.593901531391566 2741.187789570291898 13559.9446701315228 
	7224.054742292308219 2780.101400530001229 13586.49537147940282 
	7237.741815083244546 2812.45779310419357 13612.42306894586 
	7252.250515784096024 2846.756523211578042 13645.70384313364775 
	7266.836999082371221 2881.239132245636483 13687.60013542907836 
	7279.504211187703731 2911.184562795795046 13733.42511482674672 
	7290.093009765634633 2936.216600609644502 13782.60225658414129 
	7298.469974440121405 2956.019838430947857 13834.51347650626303 
	7304.530016457702004 2970.345845277538047 13888.5057013214373 
	7307.585540128282446 2977.569137275834692 13934.66768149828749 
	7308.657392090496614 2980.10300725596835 13967.28968631781026 
	7308.925565251010084 2980.736971595068553 13983.63926872098637 
	7308.992610970346504 2980.895468422521844 13991.81889169247552 
	7309.009374529559864 2980.935097663260876 13995.90930574365848 
	7309.013565199747973 2980.94500445427002 13997.95458835998761 
	7309.014762573099688 2980.947835058218971 13999.12333202360787 
	7309.014962150944484 2980.948306862461322 13999.70770566220745 
	7309.014962148987252 2980.948306857834723 13999.99989247839767 
	7416.463727411000036 2935.496420710615439 13999.99989247839767 
	7416.463727395345813 2935.496420673603097 14002.33738700792128 
	7416.450954131604703 2935.466224535862693 14007.01237566880627 
	7416.374329355245209 2935.285082710864117 14016.36051557914834 
	7416.106156809965796 2934.651119826167815 14032.71009831250376 
	7415.034290332269848 2932.117215531283364 14065.33208987395119 
	7411.978787085729891 2924.893971815250097 14111.49408029197912 
	7406.928665206696678 2912.955427428383246 14156.48751729711694 
	7401.730295380853931 2900.666423242199016 14191.44193525775336 
	7395.776852745681936 2886.592418521872332 14225.59355482711908 
	7386.953001485854656 2865.732735832918479 14266.57470589439981 
	7374.285674387464496 2835.787033438376511 14312.39945007700408 
	7359.699268460882195 2801.304607312771623 14354.29598136009736 
	7343.981465925489829 2764.14754699668174 14390.34990866209228 
	7327.52989102043739 2725.255840624457505 14420.70970681937433 
	7310.684341542439142 2685.432773970975177 14445.67389323656244 
	7294.431655722655705 2647.011243611176269 14464.49778244503068 
	7279.139904582167219 2610.861373539577471 14478.23158257438627 
	7260.361474301955241 2566.468955134281714 14491.14854349102643 
	7236.281349991590105 2509.543272972009163 14500.46604690760068 
	7207.058479146960963 2440.46008070411699 14500.46565079610991 
	7182.978322655442753 2383.534322465283367 14491.14878541692269 
	7164.199859716593892 2339.141826854455758 14478.232059248925 
	7150.437303022617016 2306.606989492143384 14465.87155176948909 
	7139.300530605279164 2280.279535415402734 14453.3992447317687 
	7131.711736723898866 2262.339542128007906 14443.56575293269998 
	7127.438944258095944 2252.238613132804403 14437.63741278671478 
	7121.095646421427773 2237.242986371996267 14428.43889336333996 
	7111.836244280990286 2215.353656546888487 14413.50497796142736 
	7100.104598487138901 2187.619915180090175 14391.28066565904555 
	7090.894785716258411 2165.847815177120083 14370.93680048151691 
	7083.897731606712114 2149.306701303286445 14353.63597477409166 
	7077.157540318258725 2133.372814000409107 14335.67581937416799 
	7069.231843672688228 2114.636378824818621 14312.03589646965702 
	7060.573479714665154 2094.167909959467579 14281.92296381718916 
	7052.816113206669797 2075.829409104565457 14250.23332193014721 
	7045.245877691229907 2057.933288001032906 14213.46789088208607 
	7038.319856088811321 2041.560095765505821 14171.29387220912758 
	7032.586459833286426 2028.006283137848641 14123.58339234641971 
	7029.374617643125021 2020.41345241505428 14082.80118173366282 
	7027.763756650515461 2016.60535908085285 14049.80452012851674 
	7027.037583937294585 2014.888678696025181 14024.93323910485014 
	7026.795371148541562 2014.316084964758147 13999.99996483340146 
	7027.03755819403068 2014.888617838667642 13975.06666698394838 
	7027.763817335076965 2016.6055025398407 13950.19543022320613 
	7029.777035201137551 2021.364772005812711 13908.94945597445621 
	7034.834473360802804 2033.32061216355828 13852.07148786091966 
	7045.51085121637152 2058.559688366760383 13782.2472615055467 
	7060.122094431685582 2093.100830121381478 13717.28697106473737 
	7074.293409066400272 2126.601975809877331 13671.67479035775978 
	7085.601302712980214 2153.333962379210334 13641.91805842239228 
	7095.098292749652501 2175.784952638219238 13619.29865176617932 
	7107.771583492674836 2205.74475315627933 13593.35750442125754 
	7126.834440780459772 2250.809560176614468 13561.75282023045111 
	7145.849664992492762 2295.761762075047955 13538.24842734270351 
	7164.19993577207606 2339.142006650571602 13521.76851303222611 
	7180.63104526979987 2377.985332573107371 13510.46662446762457 
	7196.217299036386976 2414.831410134003363 13503.66931307617961 
	7210.742005116791006 2449.167977137500202 13500.52505161805493 
	7225.31254344896297 2483.612892094810832 13499.47525016260261 
	7243.525689474012324 2526.668972222621051 13502.10041738057225 
	7262.708763292072035 2572.017972459688735 13510.46669164459672 
	7279.139879243700307 2610.86131363921595 13521.76843246015051 
	7297.490097242995944 2654.241433441544814 13538.24866875783118 
	7315.042666793399803 2695.735903423074433 13559.9446701315228 
	7331.503507554316457 2734.649514382783764 13586.49537147940282 
	7345.190580345252783 2767.005906956976105 13612.42306894586 
	7359.69928104610517 2801.304637064360577 13645.70384313364775 
	7374.285764344380368 2835.787246098418564 13687.60013542907836 
	7386.952976449713788 2865.732676648577126 13733.42511482674672 
	7397.541775027645599 2890.764714462426127 13782.60225658414129 
	7405.91873970213237 2910.567952283729483 13834.51347650626303 
	7411.978781719713879 2924.893959130319217 13888.5057013214373 
	7415.034305390294321 2932.117251128615408 13934.66768149828749 
	7416.106157352509399 2934.651121108749066 13967.28968631781026 
	7416.374330513022869 2935.285085447849269 13983.63926872098637 
	7416.441376232359289 2935.44358227530256 13991.81889169247552 
	7416.458139791572648 2935.483211516041592 13995.90930574365848 
	7416.462330461760757 2935.493118307050736 13997.95458835998761 
	7416.463527835112473 2935.495948910999687 13999.12333202360787 
	7416.463727412957269 2935.496420715242039 13999.70770566220745 
	7416.463727411000036 2935.496420710615439 13999.99989247839767 
	0 
	
	0 
	0 
	79 0 0.002232142857142857019 0.004464285714285714038 0.008928571428571428076 0.01785714285714285615 0.0357142857142857123 0.05357142857142856845 0.0625 0.07142857142857142461 0.08928571428571427382 0.1071428571428571369 0.125 0.1428571428571428492 0.1587301587301587213 0.1746031746031745935 0.1904761904761904656 0.2023809523809523836 0.2142857142857142738 0.238095238095238082 0.2619047619047618625 0.2857142857142856984 0.2976190476190476164 0.3095238095238095344 0.3214285714285713969 0.3273809523809523281 0.3303571428571427937 0.3333333333333333148 0.3452380952380952328 0.3571428571428570953 0.3690476190476190133 0.375 0.3809523809523809312 0.3928571428571428492 0.4047619047619047672 0.4166666666666666297 0.4285714285714285476 0.4444444444444444198 0.4603174603174602919 0.476190476190476164 0.4841269841269840724 0.4920634920634920362 0.5 0.5079365079365079083 0.5158730158730158166 0.5238095238095237249 0.5476190476190475609 0.5714285714285713969 0.5952380952380951218 0.6190476190476189577 0.6269841269841269771 0.6349206349206348854 0.650793650793650702 0.6666666666666666297 0.6904761904761904656 0.7023809523809523281 0.7142857142857141906 0.7321428571428569843 0.7410714285714283811 0.749999999999999889 0.7678571428571427937 0.7857142857142855874 0.7976190476190474499 0.8095238095238094234 0.8333333333333332593 0.8452380952380951218 0.8571428571428570953 0.875 0.8928571428571427937 0.9107142857142856984 0.9285714285714286031 0.9464285714285713969 0.9642857142857143016 0.9821428571428572063 0.9910714285714286031 0.9955357142857143016 0.9977678571428572063 0.9988839285714286031 0.9994419642857143016 0.9997209821428572063 
	0 
	0 
	0 
	F 1 F 0 F 1 F 0 } I I I I #
tcoedge-coedge $-1 -1 $-1 $14 $14 $18 $19 reversed $9 $20 -6.283185307179586232 1.063517930449207031e-30 #
tcoedge-coedge $-1 -1 $-1 $21 $22 $11 $16 reversed $12 $23 -6.283185307179586232 -0 #
tedge-edge $-1 -1 $-1 $24 0 $24 6.283185307179586232 $15 $25 forward @7 unknown 0.0007729680129562583159 #
pcurve $-1 -1 $-1 0 forward { exppc nurbs 2 periodic 5 
	0 2 1.570796326794896558 2 3.141592653589793116 2 4.712388980384689674 2 6.283185307179586232 2 
	0 500 1 
	-500 500 0.70710678118654402 
	-500 0 1 
	-500 -500 0.70710678118654402 
	0 -500 1 
	500 -500 0.7071067811865463515 
	500 0 1 
	500 500 0.70710678118654402 
	0 500 1 
	0 
	plane 7221.66989828790247 2475.001638350870053 14000.00000000000364 0.9209894165464311833 -0.3895875955538937729 0 0 0 -1 forward_v I I I I 
	} 0 0 #
tcoedge-coedge $-1 -1 $-1 $22 $21 $14 $19 forward $12 $26 -1.063517930449207031e-30 6.283185307179586232 #
tedge-edge $-1 -1 $-1 $27 -1.063517930449207031e-30 $27 6.283185307179586232 $18 $28 forward @7 unknown 0.000772968015162505003 #
pcurve $-1 -1 $-1 0 forward { exppc nurbs 2 periodic 5 
	-6.283185307179586232 2 -4.712388980384689674 2 -3.141592653589793116 2 -1.570796326794896558 2 1.063517930449207031e-30 2 
	1.818989403545856476e-12 500 1 
	500.000000000001819 499.9999999999990905 0.7071067811865456854 
	500 -9.094947017729282379e-13 1 
	500 -500.0000000000009095 0.7071067811865445751 
	0 -500 1 
	-500 -499.9999999999990905 0.7071067811865447972 
	-500 9.094947017729282379e-13 1 
	-499.999999999998181 500.0000000000009095 0.7071067811865445751 
	1.818989403545856476e-12 500 1 
	0 
	plane 6899.323602501863206 2611.357296792528359 14000.00000000000182 -0.9209894165464311833 0.3895875955538937729 -5.197112581643630434e-15 5.642966670705081585e-15 0 -1 reverse_v I I I I 
	} 0 0 #
coedge $-1 -1 $-1 $18 $15 $22 $29 reversed $12 $30 #
coedge $-1 -1 $-1 $15 $18 $21 $29 forward $12 $31 #
pcurve $-1 -1 $-1 0 forward { exppc nubs 1 periodic 2 
	-6.283185307179586232 1 -0 1 
	1 1 
	0 1 
	9.280887874865963251e-13 
	spline forward { ref 0 } I I I I 
	} 0 0 #
tvertex-vertex $-1 -1 $-1 $16 $32 0.0001342843754506948162 #
ellipse-curve $-1 -1 $-1 7221.66989828790247 2475.001638350870053 14000.00000000000364 0.9209894165464311833 -0.3895875955538937729 0 194.7937977769469171 460.494708273215565 0 1 I I #
pcurve $-1 -1 $-1 0 forward { exppc nubs 1 periodic 2 
	-1.063517930449207031e-30 1 6.283185307179586232 1 
	0 0 
	1 0 
	4.44660539424815058e-13 
	spline forward { ref 0 } I I I I 
	} 0 0 #
tvertex-vertex $-1 -1 $-1 $19 $33 0.0001342843742407864491 #
ellipse-curve $-1 -1 $-1 6899.323602501863206 2611.357296792528359 14000.00000000000182 0.9209894165464311833 -0.3895875955538937729 5.197112581643630434e-15 194.7937977769469171 460.494708273215565 0 1 I I #
edge $-1 -1 $-1 $27 0 $24 0.9999999999820574637 $22 $34 forward @7 tangent #
pcurve $-1 -1 $-1 -1 $34 0 0 #
pcurve $-1 -1 $-1 1 $34 1 0 #
point $-1 -1 $-1 7416.463696064849501 2935.496346624085618 14000.00000000000364 #
point $-1 -1 $-1 7094.117400278810237 3071.852005065743924 14000.00000000000182 #
intcurve-curve $-1 -1 $-1 forward { parcur full nubs 3 open 2 
	0 3 1 3 
	7094.11743162460607 3071.852079152424267 13999.99989247839767 
	7201.566196886618854 3026.400193005204983 13999.99989247839767 
	7309.014962148987252 2980.948306857834723 13999.99989247839767 
	7416.463727411000036 2935.496420710615439 13999.99989247839767 
	0 
	
	spline forward { ref 0 } I I I I 
	null_surface 
	nubs 1 open 2 
	0 1 1 1 
	0 0 
	0 1 
	
	nullbs 
	I I 
	0 
	0 
	0 
	surf1 } F 0 F 0.9999999999820574637 #
End-of-ACIS-data 