700 0 1 0           
4 LibG 20 ASM 224.0.1.65535 NT 24 Wed Jul 17 10:17:49 2019 
1000 9.999999999999999547e-07 1.000000000000000036e-10 
body $-1 -1 $-1 $1 $-1 $2 #
lump $-1 -1 $-1 $-1 $3 $0 #
transform $-1 -1 1 0 0 0 1 0 0 0 1 0 0 0 1 no_rotate no_reflect no_shear #
shell $-1 -1 $-1 $-1 $-1 $4 $-1 $1 #
face $-1 -1 $-1 $5 $6 $3 $-1 $7 forward single #
face $-1 -1 $-1 $8 $9 $3 $-1 $10 reversed single #
loop $-1 -1 $-1 $-1 $11 $4 #
cone-surface $-1 -1 $-1 -24284.44175949169221 3824.017223976388323 14000.00000000000546 -0.9999951171278942397 -0.003125015259046735102 6.597963467129804782e-17 0.8951364910458362578 -286.4408798060996446 6.047735142994707422e-12 1 I I -0.008726203243937203854 0.9999619259636566282 286.4422784671110662 forward I I I I #
face $-1 -1 $-1 $12 $13 $3 $-1 $14 forward single #
loop $-1 -1 $-1 $-1 $15 $5 #
cone-surface $-1 -1 $-1 -23009.11495095650389 3828.002659173259417 14000.00000000000546 -0.9999951171278941287 -0.003125015259046735536 3.466862029945263504e-17 0.8517901512954700882 -272.5701865446032457 3.023867571497352499e-12 1 I I -0.008726203243937203854 0.9999619259636567392 272.5715174764627591 forward I I I I #
coedge $-1 -1 $-1 $16 $17 $18 $19 forward $6 $-1 #
face $-1 -1 $-1 $20 $21 $3 $-1 $22 reversed single #
loop $-1 -1 $-1 $23 $24 $8 #
plane-surface $-1 -1 $-1 -612.9449368333310986 3404.98896669022497 14000.00000000000546 0.9999951171278941287 0.00312501525904673727 -1.018786891735600958e-17 -3.105277608683528292e-15 0 -304.8000000000000114 forward_v I I I I #
coedge $-1 -1 $-1 $25 $26 $27 $28 forward $9 $-1 #
coedge $-1 -1 $-1 $29 $11 $30 $31 reversed $6 $-1 #
coedge $-1 -1 $-1 $11 $29 $32 $33 reversed $6 $-1 #
coedge $-1 -1 $-1 $34 $34 $11 $19 reversed $23 $-1 #
edge $-1 -1 $-1 $35 -5.226340458649535219e-37 $36 3.141592653589788675 $11 $37 forward @7 unknown #
face $-1 -1 $-1 $38 $39 $3 $-1 $40 forward single #
loop $-1 -1 $-1 $-1 $27 $12 #
cone-surface $-1 -1 $-1 -23384.11311987927911 3826.830778451547758 14000.00000000000546 -0.9999951171278941287 -0.003125015259046740306 3.508990417559522783e-17 0.8415636925738366747 -269.2977517116724471 3.023867571497347652e-12 1 I I -0.008726203243937203854 0.9999619259636567392 269.2990666645732176 forward I I I I #
loop $-1 -1 $-1 $-1 $34 $8 #
coedge $-1 -1 $-1 $41 $41 $26 $42 reversed $13 $-1 #
coedge $-1 -1 $-1 $43 $15 $44 $45 forward $9 $-1 #
coedge $-1 -1 $-1 $15 $43 $24 $42 forward $9 $-1 #
coedge $-1 -1 $-1 $46 $47 $15 $28 reversed $21 $-1 #
edge $-1 -1 $-1 $48 0 $49 2.460723610940050321 $15 $50 forward @7 unknown #
coedge $-1 -1 $-1 $17 $16 $51 $52 forward $6 $-1 #
coedge $-1 -1 $-1 $53 $54 $16 $31 forward $55 $-1 #
edge $-1 -1 $-1 $56 4.834517075959033713e-14 $36 2.460723610940093842 $30 $57 forward @7 unknown #
coedge $-1 -1 $-1 $54 $53 $17 $33 forward $55 $-1 #
edge $-1 -1 $-1 $35 2.421799315096423093e-14 $58 2.460723610940069417 $32 $59 forward @7 unknown #
coedge $-1 -1 $-1 $18 $18 $53 $60 reversed $23 $-1 #
vertex $-1 -1 $-1 $60 $61 #
vertex $-1 -1 $-1 $60 $62 #
ellipse-curve $-1 -1 $-1 -614.4855693560414238 3897.98655943433414 14000.00000000000364 -0.9999951171278941287 -0.003125015259046738138 -3.315403158983901223e-18 -1.540632522710218444 492.9975927441083741 0 1 F -5.226340458649535219e-37 F 3.141592653589788675 #
face $-1 -1 $-1 $-1 $55 $3 $-1 $63 forward single #
loop $-1 -1 $-1 $64 $44 $20 #
plane-surface $-1 -1 $-1 -1362.961727596697756 3409.190074911342435 14000.00000000000182 -0.9999951171278941287 -0.003125015259046732066 9.829424634731463602e-18 2.996023257864544777e-15 0 304.8000000000000114 forward_v I I I I #
coedge $-1 -1 $-1 $24 $24 $46 $65 reversed $13 $-1 #
edge $-1 -1 $-1 $66 -1.851054921877374446e-14 $48 3.141592653589779349 $26 $67 forward @7 unknown #
coedge $-1 -1 $-1 $26 $25 $68 $69 forward $9 $-1 #
coedge $-1 -1 $-1 $70 $70 $25 $45 reversed $39 $-1 #
edge $-1 -1 $-1 $49 9.386543853204105859e-15 $71 3.14159265358978379 $25 $72 forward @7 unknown #
coedge $-1 -1 $-1 $68 $27 $41 $65 forward $21 $-1 #
coedge $-1 -1 $-1 $27 $68 $70 $73 forward $21 $-1 #
vertex $-1 -1 $-1 $28 $74 #
vertex $-1 -1 $-1 $28 $75 #
straight-curve $-1 -1 $-1 -613.0230622148178554 3429.988844618414987 14000.00000000000546 -304.7952185401452994 1.707265376288109371 0 F 0 F 2.460723610940050321 #
coedge $-1 -1 $-1 $76 $76 $29 $52 reversed $64 $-1 #
edge $-1 -1 $-1 $56 -1.238810367756663242e-30 $58 3.141592653589788675 $29 $77 forward @7 unknown #
coedge $-1 -1 $-1 $32 $30 $34 $60 forward $55 $-1 #
coedge $-1 -1 $-1 $30 $32 $76 $78 forward $55 $-1 #
loop $-1 -1 $-1 $-1 $53 $38 #
vertex $-1 -1 $-1 $78 $79 #
straight-curve $-1 -1 $-1 -1362.961727596710034 3409.190074911799002 14000.00000000000546 304.7952185401452994 -1.707265376288109371 0 F 4.834517075959033713e-14 F 2.460723610940093842 #
vertex $-1 -1 $-1 $33 $80 #
straight-curve $-1 -1 $-1 -616.026201878749589 4390.984152178442855 14000.00000000000182 -304.7785950417951426 -3.612202146809789127 0 F 2.421799315096423093e-14 F 2.460723610940069417 #
edge $-1 -1 $-1 $36 -6.030683214674112148e-31 $35 3.141592653589788675 $53 $81 forward @7 unknown #
point $-1 -1 $-1 -616.0262018787516354 4390.984152177990836 14000.00000000000728 #
point $-1 -1 $-1 -612.9449368333312123 3404.988966689770223 14000.00000000000182 #
cone-surface $-1 -1 $-1 -24284.44175949180499 3824.01722397593494 14000.00000000000546 -0.9999951171278941287 -0.003125015259046738571 6.597963467129777665e-17 0.8951364910458406987 -286.4408798061007246 6.047735142994698536e-12 1 I I -0.008726203243937203854 0.9999619259636567392 286.4422784671122031 forward I I I I #
loop $-1 -1 $-1 $-1 $51 $20 #
edge $-1 -1 $-1 $48 0 $66 3.141592653589788675 $46 $82 forward @7 unknown #
vertex $-1 -1 $-1 $69 $83 #
ellipse-curve $-1 -1 $-1 -614.4855693560414238 3897.986559433891216 14000.00000000000364 0.9999951171278941287 0.003125015259046665279 1.434838715078121408e-17 -1.462507141234013819 467.9977148159101716 4.331468517193570895e-12 1 F -1.851054921877374446e-14 F 3.141592653589779349 #
coedge $-1 -1 $-1 $47 $46 $43 $69 reversed $21 $-1 #
edge $-1 -1 $-1 $71 1.152524891418509315e-15 $66 2.460723610940068973 $43 $84 forward @7 unknown #
coedge $-1 -1 $-1 $44 $44 $47 $73 reversed $39 $-1 #
vertex $-1 -1 $-1 $45 $85 #
ellipse-curve $-1 -1 $-1 -1364.481907201964759 3895.642797989606152 14000.00000000000364 -0.9999951171278942397 -0.003125015259046697372 -2.932736138044920175e-17 1.442054223790771195 -461.4528451500524966 -2.165734258596785447e-12 1 F 9.386543853204105859e-15 F 3.14159265358978379 #
edge $-1 -1 $-1 $71 9.386543853204172123e-15 $49 3.141592653589797557 $47 $86 forward @7 unknown #
point $-1 -1 $-1 -613.0230622148178554 3429.988844618414987 14000.00000000000546 #
point $-1 -1 $-1 -1363.039852978185763 3434.189952839987654 14000.00000000000546 #
coedge $-1 -1 $-1 $51 $51 $54 $78 reversed $64 $-1 #
ellipse-curve $-1 -1 $-1 -1364.481907201964759 3895.642797990049075 14000.00000000000364 0.9999951171278942397 0.003125015259046771098 -1.736660165046342457e-17 1.520179605266975598 -486.4527230782501306 2.165734258596785447e-12 1 F -1.238810367756663242e-30 F 3.141592653589788675 #
edge $-1 -1 $-1 $58 -4.452074334970884516e-15 $56 3.141592653589788675 $54 $87 forward @7 unknown #
point $-1 -1 $-1 -1362.961727596697756 3409.190074911343345 14000.00000000000546 #
point $-1 -1 $-1 -1366.002086807236765 4382.095521068299604 14000.00000000000182 #
ellipse-curve $-1 -1 $-1 -614.4855693560414238 3897.986559433880757 14000.00000000000364 -0.9999951171278941287 -0.003125015259046723826 -1.724009642671613521e-17 1.540632522710218444 -492.9975927441105341 -2.165734258596785447e-12 1 F -6.030683214674112148e-31 F 3.141592653589788675 #
ellipse-curve $-1 -1 $-1 -614.4855693560414238 3897.986559434321862 14000.00000000000364 0.9999951171278941287 0.003125015259046687831 -2.170653440759239611e-17 1.462507141234013819 -467.9977148159068747 2.165734258596785447e-12 1 F 0 F 3.141592653589788675 #
point $-1 -1 $-1 -615.9480764972737461 4365.984274250228736 13999.99999999999818 #
straight-curve $-1 -1 $-1 -1365.923961425760808 4357.095643140086395 13999.99999999999818 304.7785950417951426 3.612202146809567971 0 F 1.152524891418509315e-15 F 2.460723610940068973 #
point $-1 -1 $-1 -1365.923961425755579 4357.095643139658932 14000.00000000000909 #
ellipse-curve $-1 -1 $-1 -1364.481907201964759 3895.642797990036797 14000.00000000000364 -0.9999951171278942397 -0.003125015259046719489 -3.594966878893806189e-18 -1.442054223790771195 461.4528451500492565 0 1 F 9.386543853204172123e-15 F 3.141592653589797557 #
ellipse-curve $-1 -1 $-1 -1364.481907201964759 3895.642797989595692 14000.00000000000364 0.9999951171278942397 0.003125015259046757653 -3.405216009894759449e-18 -1.520179605266975598 486.4527230782522906 0 1 F -4.452074334970884516e-15 F 3.141592653589788675 #
End-of-ACIS-data 