700 0 1 0           
4 LibG 20 ASM 224.0.1.65535 NT 24 Wed Jul 17 12:52:14 2019 
1000 9.999999999999999547e-07 1.000000000000000036e-10 
body $-1 -1 $-1 $1 $-1 $2 #
lump $-1 -1 $-1 $-1 $3 $0 #
transform $-1 -1 1 0 0 0 1 0 0 0 1 0 0 0 1 no_rotate no_reflect no_shear #
shell $-1 -1 $-1 $-1 $-1 $4 $-1 $1 #
face $-1 -1 $-1 $5 $6 $3 $-1 $7 forward single #
face $-1 -1 $-1 $8 $9 $3 $-1 $10 reversed single #
loop $-1 -1 $-1 $-1 $11 $4 #
plane-surface $-1 -1 $-1 16031.79757191538738 3935.642797989759856 14000.00000000000182 1 -3.637978807091713027e-15 0 0 0 -1 forward_v I I I I #
face $-1 -1 $-1 $-1 $12 $3 $-1 $13 forward single #
loop $-1 -1 $-1 $-1 $14 $5 #
plane-surface $-1 -1 $-1 15781.79757191538738 3935.642797989760766 14000.00000000000182 1 -3.637978807091713027e-15 0 0 0 -1 forward_v I I I I #
tcoedge-coedge $-1 -1 $-1 $11 $11 $15 $16 forward $6 $17 0 6.283185307179586232 #
loop $-1 -1 $-1 $-1 $18 $8 #
spline-surface $-1 -1 $-1 forward { exactsur full nubs 3 3 periodic open none none 84 2 
	0 3 0.001116071428571428509 1 0.002232142857142857019 1 0.004464285714285714038 1 0.008928571428571428076 1 
	0.01785714285714285615 1 0.02678571428571428423 1 0.0357142857142857123 1 0.05357142857142856845 1 0.07142857142857142461 1 
	0.08928571428571427382 1 0.1071428571428571369 1 0.125 1 0.1428571428571428492 1 0.1587301587301587213 1 
	0.1825396825396825295 1 0.1904761904761904656 1 0.2023809523809523836 1 0.2142857142857142738 1 0.238095238095238082 1 
	0.2619047619047618625 1 0.2857142857142856984 1 0.2976190476190476164 1 0.3095238095238095344 1 0.3214285714285713969 1 
	0.3333333333333333148 1 0.3392857142857143016 1 0.3452380952380952328 1 0.3571428571428570953 1 0.3630952380952380265 1 
	0.3690476190476190133 1 0.3809523809523809312 1 0.3928571428571428492 1 0.4047619047619047672 1 0.4166666666666666297 1 
	0.4285714285714285476 1 0.4444444444444444198 1 0.4603174603174602919 1 0.476190476190476164 1 0.4781746031746031411 1 
	0.4791666666666666297 1 0.4801587301587301182 1 0.4841269841269840724 1 0.4920634920634920362 1 0.5 1 
	0.5039682539682539542 1 0.5079365079365079083 1 0.5238095238095237249 1 0.5476190476190475609 1 0.5595238095238095344 1 
	0.5654761904761904656 1 0.5714285714285713969 1 0.5952380952380951218 1 0.6190476190476189577 1 0.6349206349206348854 1 
	0.650793650793650702 1 0.6666666666666666297 1 0.6904761904761904656 1 0.7142857142857141906 1 0.7321428571428569843 1 
	0.749999999999999889 1 0.7678571428571427937 1 0.7857142857142855874 1 0.8095238095238094234 1 0.8214285714285713969 1 
	0.8333333333333332593 1 0.8452380952380951218 1 0.8571428571428570953 1 0.875 1 0.8928571428571427937 1 
	0.9107142857142856984 1 0.9285714285714286031 1 0.9464285714285713969 1 0.9642857142857143016 1 0.9732142857142858094 1 
	0.9821428571428572063 1 0.9910714285714286031 1 0.9955357142857143016 1 0.9977678571428572063 1 0.9988839285714286031 1 
	0.9994419642857143016 1 0.9997209821428572063 1 0.9998604910714286031 1 1 3 
	0 3 1 3 
	15781.7975719396436 4435.642811346921007 14000.00005010932364 
	15781.79757193965088 4435.642811345463087 14001.16879736408009 
	15781.79757193962541 4435.634615443645089 14003.50629177261544 
	15781.79757193961086 4435.585441237478335 14008.18105072763683 
	15781.79757193953446 4435.413337340613907 14016.36067194597126 
	15781.79757193926162 4434.725033866295234 14032.71025625866605 
	15781.79757193843398 4432.759650200745455 14056.01165799646697 
	15781.79757193765727 4428.83687165568972 14083.79706614650786 
	15781.79757193679325 4421.537984163536748 14120.49285233296723 
	15781.797571933992 4408.575845027708965 14165.486418855784 
	15781.79757193172009 4387.07336740521896 14217.39745874917753 
	15781.79757192918805 4359.894195490372113 14266.57481310872754 
	15781.79757192709985 4327.379474316600863 14312.39940479104189 
	15781.79757192471334 4289.939024623367004 14354.29630071203246 
	15781.79757192407487 4249.593979183721785 14390.34957342621601 
	15781.7975719226597 4200.610233931428411 14425.56876019222909 
	15781.79757192232137 4156.693793653878856 14449.48396317450715 
	15781.79757192198485 4114.558373443135679 14467.24402501392797 
	15781.79757192176839 4083.157843488045273 14478.23174731632571 
	15781.79757192133729 4034.956829679219936 14491.14829420540809 
	15781.79757192085162 3973.147710846135851 14500.46606964932107 
	15781.79757191998215 3898.137884403909538 14500.46555027189243 
	15781.79757191933095 3836.328574486774869 14491.14873824202186 
	15781.79757191917452 3788.127686015265681 14478.23201653603792 
	15781.79757191883982 3752.801747358630109 14465.87146882806155 
	15781.79757191860153 3718.498439091345517 14450.90481889809598 
	15781.79757191833596 3690.924289624224002 14436.33151311805159 
	15781.79757191825956 3669.564643279205939 14423.46092888083331 
	15781.79757191819772 3648.701067058613717 14409.8008797936327 
	15781.79757191806857 3628.625734152373298 14394.98467820852056 
	15781.79757191799217 3609.422920584378062 14379.07436383681306 
	15781.79757191793942 3590.828302545574843 14362.45732460282306 
	15781.79757191774479 3568.774727452187562 14340.40380535786971 
	15781.79757191760473 3544.362198375252774 14312.03585346003456 
	15781.79757191739736 3522.137752419270328 14281.92292736438685 
	15781.79757191733006 3502.226016552350302 14250.23327748637166 
	15781.79757191715908 3482.794620487148677 14213.46783728852643 
	15781.79757191698991 3465.016767474828612 14171.29381075646597 
	15781.79757191691351 3450.300263232824364 14123.58331281289611 
	15781.79757191671888 3443.292572272097914 14088.91843709121531 
	15781.79757191669887 3440.472381725555806 14069.38170827972681 
	15781.79757191669887 3439.917129161803132 14065.26340490346774 
	15781.79757191669887 3439.12278076252278 14059.08087650640482 
	15781.79757191670069 3437.610509235940299 14045.65922932147987 
	15781.79757191670979 3436.057281280777261 14024.93314641869074 
	15781.79757191671888 3435.539133894260885 14004.15541570696405 
	15781.79757191672434 3435.746365799423984 13987.53321968558703 
	15781.79757191674798 3436.678751941648898 13962.61548203267193 
	15781.79757191681165 3441.234332845353038 13917.07469203372239 
	15781.79757191701719 3453.289085167408757 13864.25971920053053 
	15781.79757191708813 3467.711520379904869 13823.04649127191624 
	15781.7975719171136 3477.254716410265701 13800.00714793398402 
	15781.7975719171518 3492.851233044561923 13766.00725444442469 
	15781.7975719174774 3520.978848736760483 13717.28661424078928 
	15781.79757191776844 3562.551099502163197 13665.15888705108591 
	15781.79757191804492 3604.250896303030913 13624.48694997675739 
	15781.79757191812496 3643.286733699108936 13593.35726841211726 
	15781.7975719183687 3692.217783070569567 13561.75299551237549 
	15781.79757191869066 3752.28959248548108 13532.82328741017409 
	15781.7975719193455 3817.993886903160728 13512.55745041540467 
	15781.79757191981662 3879.543240560289632 13502.10063626595729 
	15781.79757192030593 3935.643090583729645 13498.94953449651257 
	15781.79757192082798 3991.742730765552096 13502.10071445223548 
	15781.79757192150464 4053.292501647485551 13512.55667760353572 
	15781.79757192227407 4107.049674488614983 13529.13952631424763 
	15781.79757192247052 4152.787050516848467 13549.09587973064845 
	15781.79757192287798 4185.876205122162901 13566.58338901576826 
	15781.79757192330908 4217.565623981740828 13586.49554567084124 
	15781.79757192383295 4252.697638621131773 13612.42359583089092 
	15781.7975719248625 4289.938957451861825 13645.70411368064015 
	15781.79757192623219 4327.379721654777313 13687.60047952880814 
	15781.79757192714351 4359.894251463468208 13733.42535142014822 
	15781.79757193047044 4387.073367502609472 13782.60266016642345 
	15781.79757193307159 4408.575867141821618 13834.51370124629284 
	15781.79757193638761 4421.537987299305314 13879.50725325808344 
	15781.79757193737532 4428.836876106137424 13916.20303819338915 
	15781.79757193826845 4432.759651959078838 13943.98844400490816 
	15781.79757193921432 4434.72503461166707 13967.28984442521687 
	15781.79757193951991 4435.413337496886925 13983.63942827217761 
	15781.79757193959995 4435.585441302324398 13991.81904944860253 
	15781.79757193962723 4435.628468686488304 13995.90946346926285 
	15781.79757193963451 4435.63922568119051 13997.95474600427769 
	15781.79757193963997 4435.641914928861297 13998.97739670550254 
	15781.79757193963815 4435.642683286546344 13999.56176988721381 
	15781.79757193964178 4435.642811347102906 13999.85395670247999 
	15781.7975719396436 4435.642811346921007 14000.00005010932364 
	15865.13090527297754 4435.642811346920098 14000.00005010932364 
	15865.13090527298482 4435.642811345462178 14001.16879736408009 
	15865.13090527295935 4435.634615443644179 14003.50629177261544 
	15865.1309052729448 4435.585441237477426 14008.18105072763683 
	15865.1309052728684 4435.413337340612998 14016.36067194597126 
	15865.13090527259556 4434.725033866294325 14032.71025625866605 
	15865.13090527176792 4432.759650200744545 14056.01165799646697 
	15865.13090527099121 4428.83687165568881 14083.79706614650786 
	15865.13090527012719 4421.537984163535839 14120.49285233296723 
	15865.13090526732594 4408.575845027708056 14165.486418855784 
	15865.13090526505403 4387.07336740521805 14217.39745874917753 
	15865.13090526252199 4359.894195490371203 14266.57481310872754 
	15865.13090526043379 4327.379474316599953 14312.39940479104189 
	15865.13090525804728 4289.939024623366095 14354.29630071203246 
	15865.13090525740881 4249.593979183720876 14390.34957342621601 
	15865.13090525599364 4200.610233931427501 14425.56876019222909 
	15865.13090525565531 4156.693793653877947 14449.48396317450715 
	15865.13090525531879 4114.558373443134769 14467.24402501392797 
	15865.13090525510233 4083.157843488044819 14478.23174731632571 
	15865.13090525467123 4034.956829679219481 14491.14829420540809 
	15865.13090525418556 3973.147710846135396 14500.46606964932107 
	15865.13090525331609 3898.137884403909084 14500.46555027189243 
	15865.13090525266489 3836.328574486774414 14491.14873824202186 
	15865.13090525250846 3788.127686015265226 14478.23201653603792 
	15865.13090525217376 3752.801747358629655 14465.87146882806155 
	15865.13090525193547 3718.498439091345062 14450.90481889809598 
	15865.1309052516699 3690.924289624223547 14436.33151311805159 
	15865.1309052515935 3669.564643279205484 14423.46092888083331 
	15865.13090525153166 3648.701067058613262 14409.8008797936327 
	15865.13090525140251 3628.625734152372843 14394.98467820852056 
	15865.13090525132611 3609.422920584377607 14379.07436383681306 
	15865.13090525127336 3590.828302545574388 14362.45732460282306 
	15865.13090525107873 3568.774727452187108 14340.40380535786971 
	15865.13090525093867 3544.362198375252319 14312.03585346003456 
	15865.1309052507313 3522.137752419269873 14281.92292736438685 
	15865.130905250664 3502.226016552349847 14250.23327748637166 
	15865.13090525049302 3482.794620487148222 14213.46783728852643 
	15865.13090525032385 3465.016767474828157 14171.29381075646597 
	15865.13090525024745 3450.300263232823909 14123.58331281289611 
	15865.13090525005282 3443.292572272097459 14088.91843709121531 
	15865.13090525003281 3440.472381725555351 14069.38170827972681 
	15865.13090525003281 3439.917129161802677 14065.26340490346774 
	15865.13090525003281 3439.122780762522325 14059.08087650640482 
	15865.13090525003463 3437.610509235939844 14045.65922932147987 
	15865.13090525004372 3436.057281280776806 14024.93314641869074 
	15865.13090525005282 3435.539133894260431 14004.15541570696405 
	15865.13090525005828 3435.746365799423529 13987.53321968558703 
	15865.13090525008192 3436.678751941648443 13962.61548203267193 
	15865.13090525014559 3441.234332845352583 13917.07469203372239 
	15865.13090525035113 3453.289085167408302 13864.25971920053053 
	15865.13090525042207 3467.711520379904414 13823.04649127191624 
	15865.13090525044754 3477.254716410265246 13800.00714793398402 
	15865.13090525048574 3492.851233044561468 13766.00725444442469 
	15865.13090525081134 3520.978848736760028 13717.28661424078928 
	15865.13090525110238 3562.551099502162742 13665.15888705108591 
	15865.13090525137886 3604.250896303030459 13624.48694997675739 
	15865.1309052514589 3643.286733699108481 13593.35726841211726 
	15865.13090525170264 3692.217783070569112 13561.75299551237549 
	15865.1309052520246 3752.289592485480625 13532.82328741017409 
	15865.13090525267944 3817.993886903160274 13512.55745041540467 
	15865.13090525315056 3879.543240560289178 13502.10063626595729 
	15865.13090525363987 3935.64309058372919 13498.94953449651257 
	15865.13090525416192 3991.742730765551642 13502.10071445223548 
	15865.13090525483858 4053.292501647485096 13512.55667760353572 
	15865.13090525560801 4107.049674488614073 13529.13952631424763 
	15865.13090525580446 4152.787050516847557 13549.09587973064845 
	15865.13090525621192 4185.876205122161991 13566.58338901576826 
	15865.13090525664302 4217.565623981739918 13586.49554567084124 
	15865.13090525716689 4252.697638621130864 13612.42359583089092 
	15865.13090525819644 4289.938957451860915 13645.70411368064015 
	15865.13090525956613 4327.379721654776404 13687.60047952880814 
	15865.13090526047745 4359.894251463467299 13733.42535142014822 
	15865.13090526380438 4387.073367502608562 13782.60266016642345 
	15865.13090526640553 4408.575867141820709 13834.51370124629284 
	15865.13090526972155 4421.537987299304405 13879.50725325808344 
	15865.13090527070926 4428.836876106136515 13916.20303819338915 
	15865.13090527160239 4432.759651959077928 13943.98844400490816 
	15865.13090527254826 4434.72503461166616 13967.28984442521687 
	15865.13090527285385 4435.413337496886015 13983.63942827217761 
	15865.13090527293389 4435.585441302323488 13991.81904944860253 
	15865.13090527296117 4435.628468686487395 13995.90946346926285 
	15865.13090527296845 4435.6392256811896 13997.95474600427769 
	15865.13090527297391 4435.641914928860388 13998.97739670550254 
	15865.13090527297209 4435.642683286545434 13999.56176988721381 
	15865.13090527297572 4435.642811347101997 13999.85395670247999 
	15865.13090527297754 4435.642811346920098 14000.00005010932364 
	15948.46423860668256 4435.642811346920098 14000.00005010932364 
	15948.46423860668619 4435.642811345462178 14001.16879736408009 
	15948.46423860666255 4435.63461544364327 14003.50629177261544 
	15948.46423860664981 4435.585441237477426 14008.18105072763683 
	15948.46423860656614 4435.413337340612088 14016.36067194597126 
	15948.46423860629693 4434.725033866295234 14032.71025625866605 
	15948.46423860545474 4432.759650200744545 14056.01165799646697 
	15948.46423860466348 4428.83687165568972 14083.79706614650786 
	15948.46423860378491 4421.537984163536748 14120.49285233296723 
	15948.46423860094001 4408.575845027708056 14165.486418855784 
	15948.46423859863353 4387.073367405217141 14217.39745874917753 
	15948.46423859606148 4359.894195490371203 14266.57481310872754 
	15948.46423859394235 4327.379474316599044 14312.39940479104189 
	15948.46423859152128 4289.939024623366095 14354.29630071203246 
	15948.46423859087372 4249.593979183719966 14390.34957342621601 
	15948.46423858944036 4200.610233931426592 14425.56876019222909 
	15948.46423858909475 4156.693793653877037 14449.48396317450715 
	15948.46423858875278 4114.558373443134769 14467.24402501392797 
	15948.46423858853086 4083.157843488044819 14478.23174731632571 
	15948.4642385880943 4034.956829679219027 14491.14829420540809 
	15948.46423858759954 3973.147710846135851 14500.46606964932107 
	15948.46423858671915 3898.137884403909084 14500.46555027189243 
	15948.46423858605522 3836.328574486774869 14491.14873824202186 
	15948.46423858589696 3788.127686015265681 14478.23201653603792 
	15948.46423858555681 3752.801747358630564 14465.87146882806155 
	15948.46423858531307 3718.498439091345972 14450.90481889809598 
	15948.46423858504386 3690.924289624224457 14436.33151311805159 
	15948.46423858496746 3669.564643279206393 14423.46092888083331 
	15948.4642385849038 3648.701067058614171 14409.8008797936327 
	15948.46423858477647 3628.625734152373752 14394.98467820852056 
	15948.46423858469643 3609.422920584378517 14379.07436383681306 
	15948.46423858464368 3590.828302545575298 14362.45732460282306 
	15948.46423858444541 3568.774727452188017 14340.40380535786971 
	15948.46423858430717 3544.362198375252319 14312.03585346003456 
	15948.46423858409435 3522.137752419270328 14281.92292736438685 
	15948.46423858402704 3502.226016552349392 14250.23327748637166 
	15948.46423858385424 3482.794620487148677 14213.46783728852643 
	15948.46423858368144 3465.016767474828612 14171.29381075646597 
	15948.46423858360686 3450.300263232824364 14123.58331281289611 
	15948.46423858340677 3443.292572272098369 14088.91843709121531 
	15948.46423858338858 3440.472381725556261 14069.38170827972681 
	15948.46423858338858 3439.917129161803587 14065.26340490346774 
	15948.46423858338858 3439.122780762523234 14059.08087650640482 
	15948.4642385833904 3437.610509235940754 14045.65922932147987 
	15948.46423858340131 3436.057281280777715 14024.93314641869074 
	15948.46423858340859 3435.53913389426134 14004.15541570696405 
	15948.46423858341404 3435.746365799424439 13987.53321968558703 
	15948.46423858343951 3436.678751941649352 13962.61548203267193 
	15948.46423858350499 3441.234332845353492 13917.07469203372239 
	15948.46423858371054 3453.289085167409212 13864.25971920053053 
	15948.46423858378512 3467.711520379905323 13823.04649127191624 
	15948.46423858380876 3477.254716410266155 13800.00714793398402 
	15948.46423858384878 3492.851233044562377 13766.00725444442469 
	15948.46423858417984 3520.978848736760938 13717.28661424078928 
	15948.46423858447633 3562.551099502163652 13665.15888705108591 
	15948.46423858475282 3604.250896303031368 13624.48694997675739 
	15948.46423858483467 3643.286733699109391 13593.35726841211726 
	15948.46423858508206 3692.217783070570022 13561.75299551237549 
	15948.46423858540948 3752.289592485481535 13532.82328741017409 
	15948.46423858607886 3817.993886903160728 13512.55745041540467 
	15948.46423858655362 3879.543240560290087 13502.10063626595729 
	15948.4642385870502 3935.64309058372919 13498.94953449651257 
	15948.46423858758135 3991.742730765551642 13502.10071445223548 
	15948.46423858826711 4053.292501647484642 13512.55667760353572 
	15948.46423858905109 4107.049674488613164 13529.13952631424763 
	15948.46423858924936 4152.787050516846648 13549.09587973064845 
	15948.46423858966045 4185.876205122161082 13566.58338901576826 
	15948.46423859009883 4217.565623981739918 13586.49554567084124 
	15948.46423859062816 4252.697638621130864 13612.42359583089092 
	15948.46423859167407 4289.938957451860915 13645.70411368064015 
	15948.4642385930656 4327.379721654776404 13687.60047952880814 
	15948.46423859398965 4359.894251463467299 13733.42535142014822 
	15948.46423859737115 4387.073367502606743 13782.60266016642345 
	15948.4642386000105 4408.57586714181798 13834.51370124629284 
	15948.46423860337745 4421.537987299301676 13879.50725325808344 
	15948.46423860437972 4428.836876106133786 13916.20303819338915 
	15948.46423860528739 4432.7596519590752 13943.98844400490816 
	15948.464238606246 4434.725034611663432 13967.28984442521687 
	15948.46423860655523 4435.413337496883287 13983.63942827217761 
	15948.46423860663708 4435.58544130232076 13991.81904944860253 
	15948.46423860666437 4435.628468686485576 13995.90946346926285 
	15948.46423860667164 4435.639225681187781 13997.95474600427769 
	15948.4642386066771 4435.641914928859478 13998.97739670550254 
	15948.46423860668256 4435.642683286546344 13999.56176988721381 
	15948.46423860668074 4435.642811347101997 13999.85395670247999 
	15948.46423860668256 4435.642811346920098 14000.00005010932364 
	16031.7975719400165 4435.642811346920098 14000.00005010932364 
	16031.79757194002013 4435.642811345462178 14001.16879736408009 
	16031.79757193999649 4435.63461544364327 14003.50629177261544 
	16031.79757193998375 4435.585441237477426 14008.18105072763683 
	16031.79757193990008 4435.413337340612088 14016.36067194597126 
	16031.79757193963087 4434.725033866295234 14032.71025625866605 
	16031.79757193878868 4432.759650200744545 14056.01165799646697 
	16031.79757193799742 4428.83687165568972 14083.79706614650786 
	16031.79757193711885 4421.537984163536748 14120.49285233296723 
	16031.79757193427395 4408.575845027708056 14165.486418855784 
	16031.79757193196747 4387.073367405217141 14217.39745874917753 
	16031.79757192939542 4359.894195490371203 14266.57481310872754 
	16031.79757192727629 4327.379474316599044 14312.39940479104189 
	16031.79757192485522 4289.939024623366095 14354.29630071203246 
	16031.79757192420766 4249.593979183719966 14390.34957342621601 
	16031.7975719227743 4200.610233931426592 14425.56876019222909 
	16031.79757192242869 4156.693793653877037 14449.48396317450715 
	16031.79757192208672 4114.558373443134769 14467.24402501392797 
	16031.7975719218648 4083.157843488044364 14478.23174731632571 
	16031.79757192142824 4034.956829679218572 14491.14829420540809 
	16031.79757192093348 3973.147710846135396 14500.46606964932107 
	16031.79757192005309 3898.137884403908629 14500.46555027189243 
	16031.79757191938916 3836.328574486774414 14491.14873824202186 
	16031.7975719192309 3788.127686015265226 14478.23201653603792 
	16031.79757191889075 3752.801747358630109 14465.87146882806155 
	16031.79757191864701 3718.498439091345517 14450.90481889809598 
	16031.7975719183778 3690.924289624224002 14436.33151311805159 
	16031.7975719183014 3669.564643279205939 14423.46092888083331 
	16031.79757191823774 3648.701067058613717 14409.8008797936327 
	16031.79757191811041 3628.625734152373298 14394.98467820852056 
	16031.79757191803037 3609.422920584378062 14379.07436383681306 
	16031.79757191797762 3590.828302545574843 14362.45732460282306 
	16031.79757191777935 3568.774727452187562 14340.40380535786971 
	16031.79757191764111 3544.362198375251864 14312.03585346003456 
	16031.79757191742829 3522.137752419269873 14281.92292736438685 
	16031.79757191736098 3502.226016552348938 14250.23327748637166 
	16031.79757191718818 3482.794620487148222 14213.46783728852643 
	16031.79757191701538 3465.016767474828157 14171.29381075646597 
	16031.7975719169408 3450.300263232823909 14123.58331281289611 
	16031.79757191674071 3443.292572272097914 14088.91843709121531 
	16031.79757191672252 3440.472381725555806 14069.38170827972681 
	16031.79757191672252 3439.917129161803132 14065.26340490346774 
	16031.79757191672252 3439.12278076252278 14059.08087650640482 
	16031.79757191672434 3437.610509235940299 14045.65922932147987 
	16031.79757191673525 3436.057281280777261 14024.93314641869074 
	16031.79757191674253 3435.539133894260885 14004.15541570696405 
	16031.79757191674798 3435.746365799423984 13987.53321968558703 
	16031.79757191677345 3436.678751941648898 13962.61548203267193 
	16031.79757191683893 3441.234332845353038 13917.07469203372239 
	16031.79757191704448 3453.289085167408757 13864.25971920053053 
	16031.79757191711906 3467.711520379904869 13823.04649127191624 
	16031.7975719171427 3477.254716410265701 13800.00714793398402 
	16031.79757191718272 3492.851233044561923 13766.00725444442469 
	16031.79757191751378 3520.978848736760483 13717.28661424078928 
	16031.79757191781027 3562.551099502163197 13665.15888705108591 
	16031.79757191808676 3604.250896303030913 13624.48694997675739 
	16031.79757191816861 3643.286733699108936 13593.35726841211726 
	16031.797571918416 3692.217783070569567 13561.75299551237549 
	16031.79757191874342 3752.28959248548108 13532.82328741017409 
	16031.7975719194128 3817.993886903160274 13512.55745041540467 
	16031.79757191988756 3879.543240560289632 13502.10063626595729 
	16031.79757192038414 3935.643090583728736 13498.94953449651257 
	16031.79757192091529 3991.742730765551187 13502.10071445223548 
	16031.79757192160105 4053.292501647484187 13512.55667760353572 
	16031.79757192238503 4107.049674488613164 13529.13952631424763 
	16031.7975719225833 4152.787050516846648 13549.09587973064845 
	16031.79757192299439 4185.876205122161082 13566.58338901576826 
	16031.79757192343277 4217.565623981739918 13586.49554567084124 
	16031.7975719239621 4252.697638621130864 13612.42359583089092 
	16031.79757192500801 4289.938957451860915 13645.70411368064015 
	16031.79757192639954 4327.379721654776404 13687.60047952880814 
	16031.79757192732359 4359.894251463467299 13733.42535142014822 
	16031.79757193070509 4387.073367502606743 13782.60266016642345 
	16031.79757193334444 4408.57586714181798 13834.51370124629284 
	16031.79757193671139 4421.537987299301676 13879.50725325808344 
	16031.79757193771366 4428.836876106133786 13916.20303819338915 
	16031.79757193862133 4432.7596519590752 13943.98844400490816 
	16031.79757193957994 4434.725034611663432 13967.28984442521687 
	16031.79757193988917 4435.413337496883287 13983.63942827217761 
	16031.79757193997102 4435.58544130232076 13991.81904944860253 
	16031.79757193999831 4435.628468686485576 13995.90946346926285 
	16031.79757194000558 4435.639225681187781 13997.95474600427769 
	16031.79757194001104 4435.641914928859478 13998.97739670550254 
	16031.7975719400165 4435.642683286546344 13999.56176988721381 
	16031.79757194001468 4435.642811347101997 13999.85395670247999 
	16031.7975719400165 4435.642811346920098 14000.00005010932364 
	0 
	
	0 
	0 
	81 0 0.001116071428571428509 0.002232142857142857019 0.004464285714285714038 0.008928571428571428076 0.01785714285714285615 0.02678571428571428423 0.0357142857142857123 0.05357142857142856845 0.07142857142857142461 0.08928571428571427382 0.1071428571428571369 0.125 0.1428571428571428492 0.1587301587301587213 0.1825396825396825295 0.1904761904761904656 0.2023809523809523836 0.2142857142857142738 0.238095238095238082 0.2619047619047618625 0.2857142857142856984 0.2976190476190476164 0.3095238095238095344 0.3214285714285713969 0.3333333333333333148 0.3392857142857143016 0.3452380952380952328 0.3571428571428570953 0.3630952380952380265 0.3690476190476190133 0.3809523809523809312 0.3928571428571428492 0.4047619047619047672 0.4166666666666666297 0.4285714285714285476 0.4444444444444444198 0.4603174603174602919 0.476190476190476164 0.4781746031746031411 0.4791666666666666297 0.4801587301587301182 0.4841269841269840724 0.4920634920634920362 0.5 0.5039682539682539542 0.5079365079365079083 0.5238095238095237249 0.5476190476190475609 0.5595238095238095344 0.5654761904761904656 0.5714285714285713969 0.5952380952380951218 0.6190476190476189577 0.6349206349206348854 0.650793650793650702 0.6666666666666666297 0.6904761904761904656 0.7142857142857141906 0.7321428571428569843 0.749999999999999889 0.7678571428571427937 0.7857142857142855874 0.8095238095238094234 0.8214285714285713969 0.8333333333333332593 0.8452380952380951218 0.8571428571428570953 0.875 0.8928571428571427937 0.9107142857142856984 0.9285714285714286031 0.9464285714285713969 0.9642857142857143016 0.9732142857142858094 0.9821428571428572063 0.9910714285714286031 0.9955357142857143016 0.9977678571428572063 0.9994419642857143016 0.9998604910714286031 
	0 
	0 
	0 
	F 1 F 0 F 1 F 0 } I I I I #
tcoedge-coedge $-1 -1 $-1 $14 $14 $18 $19 reversed $9 $20 -6.283185307179586232 -0 #
tcoedge-coedge $-1 -1 $-1 $21 $22 $11 $16 reversed $12 $23 -6.283185307179586232 -0 #
tedge-edge $-1 -1 $-1 $24 0 $24 6.283185307179586232 $15 $25 forward @7 unknown 0.0008055477910445421434 #
pcurve $-1 -1 $-1 0 forward { exppc nurbs 2 periodic 5 
	0 2 1.570796326794896558 2 3.141592653589793116 2 4.712388980384689674 2 6.283185307179586232 2 
	0 500 1 
	-500 500 0.707106781186543798 
	-500 0 1 
	-500 -500 0.7071067811865463515 
	0 -500 1 
	500 -500 0.7071067811865463515 
	500 0 1 
	500 500 0.707106781186543798 
	0 500 1 
	0 
	plane 16031.79757191538738 3935.642797989759856 14000.00000000000182 1 -3.637978807091713027e-15 0 0 0 -1 forward_v I I I I 
	} 0 0 #
tcoedge-coedge $-1 -1 $-1 $22 $21 $14 $19 forward $12 $26 0 6.283185307179586232 #
tedge-edge $-1 -1 $-1 $27 0 $27 6.283185307179586232 $18 $28 forward @7 unknown 0.000805547791043674348 #
pcurve $-1 -1 $-1 0 forward { exppc nurbs 2 periodic 5 
	-6.283185307179586232 2 -4.712388980384689674 2 -3.141592653589793116 2 -1.570796326794896558 2 0 2 
	0 500 1 
	500 500 0.707106781186543798 
	500 0 1 
	500 -500 0.7071067811865463515 
	0 -500 1 
	-500 -500 0.7071067811865463515 
	-500 0 1 
	-500 500 0.707106781186543798 
	0 500 1 
	0 
	plane 15781.79757191538738 3935.642797989760766 14000.00000000000182 -1 3.637978807091713027e-15 -0 0 0 -1 reverse_v I I I I 
	} 0 0 #
coedge $-1 -1 $-1 $18 $15 $22 $29 reversed $12 $30 #
coedge $-1 -1 $-1 $15 $18 $21 $29 forward $12 $31 #
pcurve $-1 -1 $-1 0 forward { exppc nubs 1 periodic 2 
	-6.283185307179586232 1 -0 1 
	1 1 
	0 1 
	2.726396620975368931e-13 
	spline forward { ref 0 } I I I I 
	} 0 0 #
tvertex-vertex $-1 -1 $-1 $16 $32 5.18590349560714298e-05 #
ellipse-curve $-1 -1 $-1 16031.79757191538738 3935.642797989759856 14000.00000000000182 1 -3.637978807091713027e-15 0 1.818989403545856476e-12 500 0 1 I I #
pcurve $-1 -1 $-1 0 forward { exppc nubs 1 periodic 2 
	0 1 6.283185307179586232 1 
	0 0 
	1 0 
	4.4114023995510105e-13 
	spline forward { ref 0 } I I I I 
	} 0 0 #
tvertex-vertex $-1 -1 $-1 $19 $33 5.185903478032925074e-05 #
ellipse-curve $-1 -1 $-1 15781.79757191538738 3935.642797989760766 14000.00000000000182 1 -3.637978807091713027e-15 0 1.818989403545856476e-12 500 0 1 I I #
edge $-1 -1 $-1 $27 0 $24 1 $22 $34 forward @7 tangent #
pcurve $-1 -1 $-1 -1 $34 0 0 #
pcurve $-1 -1 $-1 1 $34 1 0 #
point $-1 -1 $-1 16031.7975719153892 4435.642797989759856 14000.00000000000182 #
point $-1 -1 $-1 15781.7975719153892 4435.642797989760766 14000.00000000000182 #
intcurve-curve $-1 -1 $-1 forward { parcur full nubs 3 open 2 
	0 3 1 3 
	15781.7975719396436 4435.642811346921007 14000.00005010932364 
	15865.13090527297754 4435.642811346920098 14000.00005010932364 
	15948.46423860668256 4435.642811346920098 14000.00005010932364 
	16031.7975719400165 4435.642811346920098 14000.00005010932364 
	0 
	
	spline forward { ref 0 } I I I I 
	null_surface 
	nubs 1 open 2 
	0 1 1 1 
	0 0 
	0 1 
	
	nullbs 
	I I 
	0 
	0 
	0 
	surf1 } I I #
End-of-ACIS-data 