700 0 1 0           
4 LibG 20 ASM 224.0.1.65535 NT 24 Wed Jul 17 12:52:13 2019 
1000 9.999999999999999547e-07 1.000000000000000036e-10 
body $-1 -1 $-1 $1 $-1 $2 #
lump $-1 -1 $-1 $-1 $3 $0 #
transform $-1 -1 1 0 0 0 1 0 0 0 1 0 0 0 1 no_rotate no_reflect no_shear #
shell $-1 -1 $-1 $-1 $-1 $4 $-1 $1 #
face $-1 -1 $-1 $5 $6 $3 $-1 $7 forward single #
face $-1 -1 $-1 $8 $9 $3 $-1 $10 reversed single #
loop $-1 -1 $-1 $-1 $11 $4 #
plane-surface $-1 -1 $-1 8781.79757191538738 3935.642797989786231 14000.00000000000182 1 -3.637978807091713027e-15 0 0 0 -1 forward_v I I I I #
face $-1 -1 $-1 $-1 $12 $3 $-1 $13 forward single #
loop $-1 -1 $-1 $-1 $14 $5 #
plane-surface $-1 -1 $-1 8531.79757191538738 3935.642797989787141 14000.00000000000182 1 -3.637978807091713027e-15 0 0 0 -1 forward_v I I I I #
tcoedge-coedge $-1 -1 $-1 $11 $11 $15 $16 forward $6 $17 0 6.283185307179586232 #
loop $-1 -1 $-1 $-1 $18 $8 #
spline-surface $-1 -1 $-1 forward { exactsur full nubs 3 3 periodic open none none 88 2 
	0 3 0.001116071428571428509 1 0.002232142857142857019 1 0.004464285714285714038 1 0.006696428571428571057 1 
	0.008928571428571428076 1 0.01785714285714285615 1 0.0357142857142857123 1 0.05357142857142856845 1 0.07142857142857142461 1 
	0.08928571428571427382 1 0.1071428571428571369 1 0.1160714285714285754 1 0.125 1 0.1428571428571428492 1 
	0.1587301587301587213 1 0.1746031746031745935 1 0.1904761904761904656 1 0.2023809523809523836 1 0.2142857142857142738 1 
	0.238095238095238082 1 0.2619047619047618625 1 0.2857142857142856984 1 0.3095238095238095344 1 0.3110119047619047672 1 
	0.3125 1 0.3154761904761904656 1 0.3184523809523809312 1 0.3214285714285713969 1 0.3333333333333333148 1 
	0.3452380952380952328 1 0.3571428571428570953 1 0.3630952380952380265 1 0.3690476190476190133 1 0.375 1 
	0.3809523809523809312 1 0.3928571428571428492 1 0.4047619047619047672 1 0.4285714285714285476 1 0.4325396825396825573 1 
	0.4365079365079365115 1 0.4444444444444444198 1 0.4603174603174602919 1 0.476190476190476164 1 0.4920634920634920362 1 
	0.5079365079365079083 1 0.5238095238095237249 1 0.5476190476190475609 1 0.5535714285714286031 1 0.5595238095238095344 1 
	0.5714285714285713969 1 0.5833333333333332593 1 0.5952380952380951218 1 0.6190476190476189577 1 0.6349206349206348854 1 
	0.650793650793650702 1 0.6666666666666666297 1 0.6904761904761904656 1 0.7023809523809523281 1 0.7142857142857141906 1 
	0.7232142857142855874 1 0.7321428571428569843 1 0.7410714285714283811 1 0.749999999999999889 1 0.7678571428571427937 1 
	0.7857142857142855874 1 0.7976190476190474499 1 0.8095238095238094234 1 0.8214285714285713969 1 0.8333333333333332593 1 
	0.8452380952380951218 1 0.8571428571428570953 1 0.875 1 0.8928571428571427937 1 0.9107142857142856984 1 
	0.9285714285714286031 1 0.9464285714285713969 1 0.9642857142857143016 1 0.9732142857142858094 1 0.9821428571428572063 1 
	0.9910714285714286031 1 0.9955357142857143016 1 0.9977678571428572063 1 0.9988839285714286031 1 0.9994419642857143016 1 
	0.9997209821428572063 1 0.9998604910714286031 1 1 3 
	0 3 1 3 
	8531.797571569282809 4435.642848671002866 13999.99998329700975 
	8531.797571569295542 4435.642848671293905 14001.16873055479664 
	8531.797571569595675 4435.634652626237767 14003.50622494150048 
	8531.797571569833963 4435.585478982146014 14008.18098411862775 
	8531.797571570961736 4435.462545647367733 14014.02357009583284 
	8531.797571571689332 4435.21672029317142 14021.03191649788459 
	8531.797571573826644 4434.528510910772638 14035.04032957140043 
	8531.797571588429491 4431.973793399134593 14065.33218622637469 
	8531.797571633716871 4424.130765636308752 14111.49411092231639 
	8531.797571671915648 4408.575782434451867 14165.48633068748313 
	8531.797571713557772 4387.07350559007773 14217.39743038400775 
	8531.797571745586538 4359.894240857685872 14266.57469616435446 
	8531.797571780209182 4332.798713098110056 14304.76200530542519 
	8531.797571788558344 4308.65943842955221 14333.34781362460126 
	8531.797571800530932 4282.956172335679184 14360.53600784146511 
	8531.797571806504493 4249.594287396510481 14390.3498886488087 
	8531.7975718341022 4207.366089508236655 14420.70964089279732 
	8531.797571836454154 4164.126663779078626 14445.6738377044876 
	8531.797571841963872 4122.409001753638222 14464.49771248056459 
	8531.79757184621667 4083.157882397737922 14478.23152610478428 
	8531.797571851711837 4034.95712344838239 14491.14843274422128 
	8531.797571857823641 3973.147822996430477 14500.4660606493544 
	8531.797571869927197 3898.138267925869968 14500.46526615314724 
	8531.797571877224982 3823.966724434798834 14489.28591440313539 
	8531.797571884580975 3774.688881886053878 14474.08555554031955 
	8531.797571885568686 3748.625976719431947 14463.71537670562975 
	8531.797571885575962 3742.855978950014105 14461.356936517137 
	8531.797571885834259 3735.685321368691348 14458.30787719450382 
	8531.797571885999787 3727.150446892471336 14454.48876263475904 
	8531.797571886412697 3710.226490730899968 14446.53271709813816 
	8531.797571889428582 3685.409781832093813 14433.4166711654907 
	8531.797571891809639 3653.720238388546022 14413.50475116689086 
	8531.797571893155691 3628.626118025034884 14394.98445907214773 
	8531.79757189414704 3609.423317163190404 14379.07414486744528 
	8531.797571894659995 3595.477361084178028 14366.61134958745788 
	8531.79757189522752 3582.007290592019217 14353.63570688295295 
	8531.797571895920555 3564.706323337505637 14335.67562944741621 
	8531.797571896642694 3544.36292175819608 14312.03547645901199 
	8531.797571897932357 3514.729258736020711 14271.88554870568623 
	8531.797571899149261 3493.892523135616557 14235.79735823848205 
	8531.797571899489412 3479.842342612340872 14205.66504467124832 
	8531.797571899509421 3473.194681764594407 14190.42864026411917 
	8531.797571899698596 3462.563891757678448 14163.34222774176669 
	8531.79757189992597 3450.299967222943451 14123.58356934313451 
	8531.797571900126059 3440.406871370287718 14074.64487756183371 
	8531.797571900355251 3435.435503216324832 14024.9642815156858 
	8531.797571900166076 3435.435754912895845 13975.03576430264184 
	8531.797571900062394 3441.234643236884949 13917.07494630366637 
	8531.797571898832757 3451.897826131911188 13870.35382731890604 
	8531.797571898654496 3463.590876965696225 13834.82185261600534 
	8531.797571898498063 3472.265731107748707 13811.44171073846883 
	8531.797571897934176 3484.737647982477483 13782.85546981728112 
	8531.797571897202943 3502.226015305549936 13749.76676901952669 
	8531.797571896264344 3528.774095742964619 13707.51309366500209 
	8531.797571892871929 3562.550659767499383 13665.15892473266285 
	8531.797571890607287 3604.250816272997326 13624.4870739748003 
	8531.797571889028404 3643.286534539958666 13593.35743392018048 
	8531.797571886945661 3692.217606798412817 13561.75290357515587 
	8531.797571882792909 3741.026102089496362 13538.24840524320643 
	8531.797571879955285 3788.128000756377787 13521.76856745240002 
	8531.797571877861628 3821.266000677427655 13512.88868994767108 
	8531.797571876479196 3851.845865294325449 13506.80624834957052 
	8531.79757187481664 3879.631266096446325 13502.88344029767541 
	8531.797571873543347 3907.59296034144927 13500.52504591682555 
	8531.797571870127285 3944.9928545520238 13499.47531460242681 
	8531.797571862860423 3991.742727611213468 13502.10030721993462 
	8531.797571856375725 4040.982074392640698 13510.46678609404989 
	8531.797571847286235 4083.157911413748934 13521.76820880763808 
	8531.79757184159098 4118.48383156255386 13534.12900763618927 
	8531.797571835555573 4152.787099882831171 13549.09553193011925 
	8531.797571826535204 4185.876119569187722 13566.58345832163104 
	8531.797571815388437 4217.565594629150837 13586.49543364972487 
	8531.797571804221661 4252.697579402283736 13612.42356395598836 
	8531.797571777933626 4289.93891591443662 13645.704033627022 
	8531.797571751010764 4327.379648329253541 13687.60043127505378 
	8531.797571720702763 4359.894221207308874 13733.42526484238988 
	8531.797571686252923 4387.073445944605737 13782.60252041497188 
	8531.797571653532941 4408.575886594288932 13834.51361631395957 
	8531.797571612878528 4421.538030092066947 13879.50716928813199 
	8531.797571599883668 4428.836912127207142 13916.20296333312945 
	8531.797571588083883 4432.759690052987935 13943.98837161252413 
	8531.797571575119946 4434.72507165486968 13967.28977636820127 
	8531.797571570956279 4435.413374829899112 13983.63936108116286 
	8531.79757156971209 4435.585478605861681 13991.81898256126988 
	8531.797571569397405 4435.62850600695765 13995.90939663585232 
	8531.797571569311913 4435.639263001619838 13997.95467918652867 
	8531.797571569288266 4435.641952251630755 13998.97732989133692 
	8531.79757156928099 4435.642720607679621 13999.5617030733265 
	8531.79757156928099 4435.642848670966487 13999.85388988978775 
	8531.797571569282809 4435.642848671002866 13999.99998329700975 
	8615.130904902616749 4435.642848671001957 13999.99998329700975 
	8615.130904902629482 4435.642848671292995 14001.16873055479664 
	8615.130904902929615 4435.634652626236857 14003.50622494150048 
	8615.130904903167902 4435.585478982145105 14008.18098411862775 
	8615.130904904295676 4435.462545647366824 14014.02357009583284 
	8615.130904905023272 4435.216720293170511 14021.03191649788459 
	8615.130904907160584 4434.528510910771729 14035.04032957140043 
	8615.130904921763431 4431.973793399133683 14065.33218622637469 
	8615.13090496705081 4424.130765636307842 14111.49411092231639 
	8615.130905005249588 4408.575782434450957 14165.48633068748313 
	8615.130905046891712 4387.07350559007682 14217.39743038400775 
	8615.130905078920478 4359.894240857684963 14266.57469616435446 
	8615.130905113543122 4332.798713098109147 14304.76200530542519 
	8615.130905121892283 4308.659438429551301 14333.34781362460126 
	8615.130905133864871 4282.956172335678275 14360.53600784146511 
	8615.130905139838433 4249.594287396509571 14390.3498886488087 
	8615.13090516743614 4207.366089508235746 14420.70964089279732 
	8615.130905169788093 4164.126663779077717 14445.6738377044876 
	8615.130905175297812 4122.409001753637313 14464.49771248056459 
	8615.130905179550609 4083.157882397737467 14478.23152610478428 
	8615.130905185045776 4034.957123448381935 14491.14843274422128 
	8615.130905191157581 3973.147822996430023 14500.4660606493544 
	8615.130905203261136 3898.138267925869513 14500.46526615314724 
	8615.130905210558922 3823.96672443479838 14489.28591440313539 
	8615.130905217914915 3774.688881886053423 14474.08555554031955 
	8615.130905218902626 3748.625976719431492 14463.71537670562975 
	8615.130905218909902 3742.85597895001365 14461.356936517137 
	8615.130905219168199 3735.685321368690893 14458.30787719450382 
	8615.130905219333727 3727.150446892470882 14454.48876263475904 
	8615.130905219746637 3710.226490730899513 14446.53271709813816 
	8615.130905222762522 3685.409781832093358 14433.4166711654907 
	8615.130905225143579 3653.720238388545567 14413.50475116689086 
	8615.130905226489631 3628.62611802503443 14394.98445907214773 
	8615.13090522748098 3609.423317163189949 14379.07414486744528 
	8615.130905227993935 3595.477361084177574 14366.61134958745788 
	8615.13090522856146 3582.007290592018762 14353.63570688295295 
	8615.130905229254495 3564.706323337505182 14335.67562944741621 
	8615.130905229976634 3544.362921758195625 14312.03547645901199 
	8615.130905231266297 3514.729258736020256 14271.88554870568623 
	8615.130905232483201 3493.892523135616102 14235.79735823848205 
	8615.130905232823352 3479.842342612340417 14205.66504467124832 
	8615.130905232843361 3473.194681764593952 14190.42864026411917 
	8615.130905233032536 3462.563891757677993 14163.34222774176669 
	8615.130905233259909 3450.299967222942996 14123.58356934313451 
	8615.130905233459998 3440.406871370287263 14074.64487756183371 
	8615.130905233689191 3435.435503216324378 14024.9642815156858 
	8615.130905233500016 3435.435754912895391 13975.03576430264184 
	8615.130905233396334 3441.234643236884494 13917.07494630366637 
	8615.130905232166697 3451.897826131910733 13870.35382731890604 
	8615.130905231988436 3463.59087696569577 13834.82185261600534 
	8615.130905231832003 3472.265731107748252 13811.44171073846883 
	8615.130905231268116 3484.737647982477029 13782.85546981728112 
	8615.130905230536882 3502.226015305549481 13749.76676901952669 
	8615.130905229598284 3528.774095742964164 13707.51309366500209 
	8615.130905226205869 3562.550659767498928 13665.15892473266285 
	8615.130905223941227 3604.250816272996872 13624.4870739748003 
	8615.130905222362344 3643.286534539958211 13593.35743392018048 
	8615.130905220279601 3692.217606798412362 13561.75290357515587 
	8615.130905216126848 3741.026102089495907 13538.24840524320643 
	8615.130905213289225 3788.128000756377332 13521.76856745240002 
	8615.130905211195568 3821.266000677427201 13512.88868994767108 
	8615.130905209813136 3851.845865294324994 13506.80624834957052 
	8615.13090520815058 3879.63126609644587 13502.88344029767541 
	8615.130905206877287 3907.592960341448816 13500.52504591682555 
	8615.130905203461225 3944.992854552023346 13499.47531460242681 
	8615.130905196194362 3991.742727611213013 13502.10030721993462 
	8615.130905189709665 4040.982074392640243 13510.46678609404989 
	8615.130905180620175 4083.157911413748479 13521.76820880763808 
	8615.130905174924919 4118.48383156255295 13534.12900763618927 
	8615.130905168889512 4152.787099882830262 13549.09553193011925 
	8615.130905159869144 4185.876119569186812 13566.58345832163104 
	8615.130905148722377 4217.565594629149928 13586.49543364972487 
	8615.130905137555601 4252.697579402282827 13612.42356395598836 
	8615.130905111267566 4289.938915914435711 13645.704033627022 
	8615.130905084344704 4327.379648329252632 13687.60043127505378 
	8615.130905054036702 4359.894221207307965 13733.42526484238988 
	8615.130905019586862 4387.073445944604828 13782.60252041497188 
	8615.130904986866881 4408.575886594288022 13834.51361631395957 
	8615.130904946212468 4421.538030092066037 13879.50716928813199 
	8615.130904933217607 4428.836912127206233 13916.20296333312945 
	8615.130904921417823 4432.759690052987025 13943.98837161252413 
	8615.130904908453886 4434.725071654868771 13967.28977636820127 
	8615.130904904290219 4435.413374829898203 13983.63936108116286 
	8615.13090490304603 4435.585478605860771 13991.81898256126988 
	8615.130904902731345 4435.628506006956741 13995.90939663585232 
	8615.130904902645852 4435.639263001618929 13997.95467918652867 
	8615.130904902622206 4435.641952251629846 13998.97732989133692 
	8615.13090490261493 4435.642720607678712 13999.5617030733265 
	8615.13090490261493 4435.642848670965577 13999.85388988978775 
	8615.130904902616749 4435.642848671001957 13999.99998329700975 
	8698.464238225802546 4435.642848671001047 13999.99998329700975 
	8698.464238225815279 4435.642848671292086 14001.16873055479664 
	8698.464238226126326 4435.634652626234129 14003.50622494150048 
	8698.464238226370071 4435.585478982142376 14008.18098411862775 
	8698.464238227532405 4435.462545647365005 14014.02357009583284 
	8698.46423822828001 4435.216720293167782 14021.03191649788459 
	8698.464238230479168 4434.528510910769 14035.04032957140043 
	8698.464238245509478 4431.973793399131864 14065.33218622637469 
	8698.464238292126538 4424.130765636306023 14111.49411092231639 
	8698.464238331445813 4408.575782434450957 14165.48633068748313 
	8698.464238374308479 4387.073505590075911 14217.39743038400775 
	8698.464238407277662 4359.894240857684963 14266.57469616435446 
	8698.464238442915303 4332.798713098109147 14304.76200530542519 
	8698.464238451508209 4308.659438429551301 14333.34781362460126 
	8698.464238463831862 4282.956172335678275 14360.53600784146511 
	8698.464238469978227 4249.594287396509571 14390.3498886488087 
	8698.464238498387203 4207.366089508236655 14420.70964089279732 
	8698.464238500806459 4164.126663779078626 14445.6738377044876 
	8698.464238506478068 4122.409001753638222 14464.49771248056459 
	8698.464238510854557 4083.157882397738376 14478.23152610478428 
	8698.464238516509795 4034.957123448382845 14491.14843274422128 
	8698.46423852279986 3973.147822996430932 14500.4660606493544 
	8698.464238535259938 3898.138267925870423 14500.46526615314724 
	8698.464238542770545 3823.966724434799289 14489.28591440313539 
	8698.464238550344817 3774.688881886054332 14474.08555554031955 
	8698.464238551359813 3748.625976719432401 14463.71537670562975 
	8698.464238551368908 3742.85597895001456 14461.356936517137 
	8698.46423855163448 3735.685321368691802 14458.30787719450382 
	8698.464238551805465 3727.150446892471791 14454.48876263475904 
	8698.464238552231109 3710.226490730900423 14446.53271709813816 
	8698.464238555336124 3685.409781832094268 14433.4166711654907 
	8698.464238557786302 3653.720238388546477 14413.50475116689086 
	8698.464238559172372 3628.626118025035339 14394.98445907214773 
	8698.464238560192825 3609.423317163190859 14379.07414486744528 
	8698.464238560720332 3595.477361084178483 14366.61134958745788 
	8698.464238561302409 3582.007290592019672 14353.63570688295295 
	8698.464238562015453 3564.706323337506092 14335.67562944741621 
	8698.4642385627576 3544.362921758196535 14312.03547645901199 
	8698.464238564087282 3514.729258736021166 14271.88554870568623 
	8698.464238565336927 3493.892523135617012 14235.79735823848205 
	8698.464238565687992 3479.842342612341326 14205.66504467124832 
	8698.46423856570982 3473.194681764594861 14190.42864026411917 
	8698.464238565904452 3462.563891757678903 14163.34222774176669 
	8698.464238566139102 3450.299967222943906 14123.58356934313451 
	8698.464238566344648 3440.406871370288172 14074.64487756183371 
	8698.464238566581116 3435.435503216325287 14024.9642815156858 
	8698.464238566384665 3435.4357549128963 13975.03576430264184 
	8698.464238566279164 3441.234643236885404 13917.07494630366637 
	8698.464238565013147 3451.897826131911643 13870.35382731890604 
	8698.464238564831248 3463.59087696569668 13834.82185261600534 
	8698.464238564669358 3472.265731107749161 13811.44171073846883 
	8698.464238564089101 3484.737647982477938 13782.85546981728112 
	8698.464238563336039 3502.226015305550391 13749.76676901952669 
	8698.464238562368337 3528.774095742965073 13707.51309366500209 
	8698.464238558875877 3562.550659767499383 13665.15892473266285 
	8698.464238556545752 3604.250816272997326 13624.4870739748003 
	8698.464238554917756 3643.286534539958666 13593.35743392018048 
	8698.464238552774987 3692.217606798413271 13561.75290357515587 
	8698.46423854850218 3741.026102089496817 13538.24840524320643 
	8698.464238545579065 3788.128000756378242 13521.76856745240002 
	8698.464238543425381 3821.26600067742811 13512.88868994767108 
	8698.464238542001112 3851.845865294325904 13506.80624834957052 
	8698.464238540289443 3879.63126609644678 13502.88344029767541 
	8698.464238538977952 3907.592960341449725 13500.52504591682555 
	8698.464238535463664 3944.992854552024255 13499.47531460242681 
	8698.46423852798398 3991.742727611213923 13502.10030721993462 
	8698.464238521310108 4040.982074392641152 13510.46678609404989 
	8698.464238511955045 4083.157911413749389 13521.76820880763808 
	8698.464238506090624 4118.48383156255386 13534.12900763618927 
	8698.464238499878775 4152.787099882831171 13549.09553193011925 
	8698.464238490592834 4185.876119569187722 13566.58345832163104 
	8698.464238479120468 4217.565594629150837 13586.49543364972487 
	8698.464238467628093 4252.697579402283736 13612.42356395598836 
	8698.464238440570625 4289.938915914434801 13645.704033627022 
	8698.464238412858322 4327.379648329251722 13687.60043127505378 
	8698.464238381662653 4359.894221207306146 13733.42526484238988 
	8698.464238346203274 4387.073445944603009 13782.60252041497188 
	8698.464238312522866 4408.575886594284384 13834.51361631395957 
	8698.464238270677015 4421.538030092063309 13879.50716928813199 
	8698.464238257301986 4428.836912127202595 13916.20296333312945 
	8698.464238245156594 4432.759690052984297 13943.98837161252413 
	8698.464238231812487 4434.725071654865133 13967.28977636820127 
	8698.464238227526948 4435.413374829896384 13983.63936108116286 
	8698.46423822624638 4435.585478605858043 13991.81898256126988 
	8698.464238225924419 4435.628506006954922 13995.90939663585232 
	8698.464238225835288 4435.63926300161711 13997.95467918652867 
	8698.464238225811641 4435.641952251628027 13998.97732989133692 
	8698.464238225802546 4435.642720607677802 13999.5617030733265 
	8698.464238225800727 4435.642848670964668 13999.85388988978775 
	8698.464238225802546 4435.642848671001047 13999.99998329700975 
	8781.797571559136486 4435.642848671001047 13999.99998329700975 
	8781.797571559149219 4435.642848671292086 14001.16873055479664 
	8781.797571559460266 4435.634652626234129 14003.50622494150048 
	8781.797571559704011 4435.585478982142376 14008.18098411862775 
	8781.797571560866345 4435.462545647365005 14014.02357009583284 
	8781.79757156161395 4435.216720293167782 14021.03191649788459 
	8781.797571563813108 4434.528510910769 14035.04032957140043 
	8781.797571578843417 4431.973793399131864 14065.33218622637469 
	8781.797571625460478 4424.130765636306023 14111.49411092231639 
	8781.797571664779753 4408.575782434450957 14165.48633068748313 
	8781.797571707642419 4387.073505590075911 14217.39743038400775 
	8781.797571740611602 4359.894240857684963 14266.57469616435446 
	8781.797571776249242 4332.798713098109147 14304.76200530542519 
	8781.797571784842148 4308.659438429551301 14333.34781362460126 
	8781.797571797165801 4282.956172335678275 14360.53600784146511 
	8781.797571803312167 4249.594287396509571 14390.3498886488087 
	8781.797571831721143 4207.366089508236655 14420.70964089279732 
	8781.797571834140399 4164.126663779078626 14445.6738377044876 
	8781.797571839812008 4122.409001753638222 14464.49771248056459 
	8781.797571844188496 4083.157882397737922 14478.23152610478428 
	8781.797571849843735 4034.95712344838239 14491.14843274422128 
	8781.7975718561338 3973.147822996430477 14500.4660606493544 
	8781.797571868593877 3898.138267925869968 14500.46526615314724 
	8781.797571876104485 3823.966724434798834 14489.28591440313539 
	8781.797571883678756 3774.688881886053878 14474.08555554031955 
	8781.797571884693753 3748.625976719431947 14463.71537670562975 
	8781.797571884702847 3742.855978950014105 14461.356936517137 
	8781.79757188496842 3735.685321368691348 14458.30787719450382 
	8781.797571885139405 3727.150446892471336 14454.48876263475904 
	8781.797571885565048 3710.226490730899968 14446.53271709813816 
	8781.797571888670063 3685.409781832093813 14433.4166711654907 
	8781.797571891120242 3653.720238388546022 14413.50475116689086 
	8781.797571892506312 3628.626118025034884 14394.98445907214773 
	8781.797571893526765 3609.423317163190404 14379.07414486744528 
	8781.797571894054272 3595.477361084178028 14366.61134958745788 
	8781.797571894636349 3582.007290592019217 14353.63570688295295 
	8781.797571895349392 3564.706323337505637 14335.67562944741621 
	8781.79757189609154 3544.36292175819608 14312.03547645901199 
	8781.797571897421221 3514.729258736020711 14271.88554870568623 
	8781.797571898670867 3493.892523135616557 14235.79735823848205 
	8781.797571899021932 3479.842342612340872 14205.66504467124832 
	8781.79757189904376 3473.194681764594407 14190.42864026411917 
	8781.797571899238392 3462.563891757678448 14163.34222774176669 
	8781.797571899473041 3450.299967222943451 14123.58356934313451 
	8781.797571899678587 3440.406871370287718 14074.64487756183371 
	8781.797571899915056 3435.435503216324832 14024.9642815156858 
	8781.797571899718605 3435.435754912895845 13975.03576430264184 
	8781.797571899613104 3441.234643236884949 13917.07494630366637 
	8781.797571898347087 3451.897826131911188 13870.35382731890604 
	8781.797571898165188 3463.590876965696225 13834.82185261600534 
	8781.797571898003298 3472.265731107748707 13811.44171073846883 
	8781.79757189742304 3484.737647982477483 13782.85546981728112 
	8781.797571896669979 3502.226015305549936 13749.76676901952669 
	8781.797571895702276 3528.774095742964619 13707.51309366500209 
	8781.797571892209817 3562.550659767498928 13665.15892473266285 
	8781.797571889879691 3604.250816272996872 13624.4870739748003 
	8781.797571888251696 3643.286534539958211 13593.35743392018048 
	8781.797571886108926 3692.217606798412817 13561.75290357515587 
	8781.79757188183612 3741.026102089496362 13538.24840524320643 
	8781.797571878913004 3788.128000756377787 13521.76856745240002 
	8781.797571876759321 3821.266000677427655 13512.88868994767108 
	8781.797571875335052 3851.845865294325449 13506.80624834957052 
	8781.797571873623383 3879.631266096446325 13502.88344029767541 
	8781.797571872311892 3907.59296034144927 13500.52504591682555 
	8781.797571868797604 3944.9928545520238 13499.47531460242681 
	8781.79757186131792 3991.742727611213468 13502.10030721993462 
	8781.797571854644048 4040.982074392640698 13510.46678609404989 
	8781.797571845288985 4083.157911413748934 13521.76820880763808 
	8781.797571839424563 4118.48383156255386 13534.12900763618927 
	8781.797571833212714 4152.787099882831171 13549.09553193011925 
	8781.797571823926774 4185.876119569187722 13566.58345832163104 
	8781.797571812454407 4217.565594629150837 13586.49543364972487 
	8781.797571800962032 4252.697579402283736 13612.42356395598836 
	8781.797571773904565 4289.938915914434801 13645.704033627022 
	8781.797571746192261 4327.379648329251722 13687.60043127505378 
	8781.797571714996593 4359.894221207306146 13733.42526484238988 
	8781.797571679537214 4387.073445944603009 13782.60252041497188 
	8781.797571645856806 4408.575886594284384 13834.51361631395957 
	8781.797571604010955 4421.538030092063309 13879.50716928813199 
	8781.797571590635926 4428.836912127202595 13916.20296333312945 
	8781.797571578490533 4432.759690052984297 13943.98837161252413 
	8781.797571565146427 4434.725071654865133 13967.28977636820127 
	8781.797571560860888 4435.413374829896384 13983.63936108116286 
	8781.797571559580319 4435.585478605858043 13991.81898256126988 
	8781.797571559258358 4435.628506006954922 13995.90939663585232 
	8781.797571559169228 4435.63926300161711 13997.95467918652867 
	8781.797571559145581 4435.641952251628027 13998.97732989133692 
	8781.797571559136486 4435.642720607677802 13999.5617030733265 
	8781.797571559134667 4435.642848670964668 13999.85388988978775 
	8781.797571559136486 4435.642848671001047 13999.99998329700975 
	0 
	
	0 
	0 
	86 0 0.001116071428571428509 0.002232142857142857019 0.004464285714285714038 0.006696428571428571057 0.008928571428571428076 0.01785714285714285615 0.0357142857142857123 0.05357142857142856845 0.07142857142857142461 0.08928571428571427382 0.1071428571428571369 0.1160714285714285754 0.125 0.1428571428571428492 0.1587301587301587213 0.1746031746031745935 0.1904761904761904656 0.2023809523809523836 0.2142857142857142738 0.238095238095238082 0.2619047619047618625 0.2857142857142856984 0.3095238095238095344 0.3110119047619047672 0.3125 0.3154761904761904656 0.3184523809523809312 0.3214285714285713969 0.3333333333333333148 0.3452380952380952328 0.3571428571428570953 0.3630952380952380265 0.3690476190476190133 0.375 0.3809523809523809312 0.3928571428571428492 0.4047619047619047672 0.4285714285714285476 0.4325396825396825573 0.4365079365079365115 0.4444444444444444198 0.4603174603174602919 0.476190476190476164 0.4920634920634920362 0.5079365079365079083 0.5238095238095237249 0.5476190476190475609 0.5535714285714286031 0.5595238095238095344 0.5714285714285713969 0.5833333333333332593 0.5952380952380951218 0.6190476190476189577 0.6349206349206348854 0.650793650793650702 0.6666666666666666297 0.6904761904761904656 0.7023809523809523281 0.7142857142857141906 0.7232142857142855874 0.7321428571428569843 0.7410714285714283811 0.749999999999999889 0.7678571428571427937 0.7857142857142855874 0.7976190476190474499 0.8095238095238094234 0.8214285714285713969 0.8333333333333332593 0.8452380952380951218 0.8571428571428570953 0.875 0.8928571428571427937 0.9107142857142856984 0.9285714285714286031 0.9464285714285713969 0.9642857142857143016 0.9732142857142858094 0.9821428571428572063 0.9910714285714286031 0.9955357142857143016 0.9977678571428572063 0.9994419642857143016 0.9997209821428572063 0.9998604910714286031 
	0 
	0 
	0 
	F 1 F 0 F 1 F 0 } I I I I #
tcoedge-coedge $-1 -1 $-1 $14 $14 $18 $19 reversed $9 $20 -6.283185307179586232 -0 #
tcoedge-coedge $-1 -1 $-1 $21 $22 $11 $16 reversed $12 $23 -6.283185307179586232 -0 #
tedge-edge $-1 -1 $-1 $24 0 $24 6.283185307179586232 $15 $25 forward @7 unknown 0.0007209178528631724012 #
pcurve $-1 -1 $-1 0 forward { exppc nurbs 2 periodic 5 
	0 2 1.570796326794896558 2 3.141592653589793116 2 4.712388980384689674 2 6.283185307179586232 2 
	0 500 1 
	-500 500 0.707106781186543798 
	-500 0 1 
	-500 -500 0.7071067811865463515 
	0 -500 1 
	500 -500 0.7071067811865463515 
	500 0 1 
	500 500 0.707106781186543798 
	0 500 1 
	0 
	plane 8781.79757191538738 3935.642797989786231 14000.00000000000182 1 -3.637978807091713027e-15 0 0 0 -1 forward_v I I I I 
	} 0 0 #
tcoedge-coedge $-1 -1 $-1 $22 $21 $14 $19 forward $12 $26 0 6.283185307179586232 #
tedge-edge $-1 -1 $-1 $27 0 $27 6.283185307179586232 $18 $28 forward @7 unknown 0.0007209178523450422661 #
pcurve $-1 -1 $-1 0 forward { exppc nurbs 2 periodic 5 
	-6.283185307179586232 2 -4.712388980384689674 2 -3.141592653589793116 2 -1.570796326794896558 2 0 2 
	0 500 1 
	500 500 0.707106781186543798 
	500 0 1 
	500 -500 0.7071067811865463515 
	0 -500 1 
	-500 -500 0.7071067811865463515 
	-500 0 1 
	-500 500 0.707106781186543798 
	0 500 1 
	0 
	plane 8531.79757191538738 3935.642797989787141 14000.00000000000182 -1 3.637978807091713027e-15 -0 0 0 -1 reverse_v I I I I 
	} 0 0 #
coedge $-1 -1 $-1 $18 $15 $22 $29 reversed $12 $30 #
coedge $-1 -1 $-1 $15 $18 $21 $29 forward $12 $31 #
pcurve $-1 -1 $-1 0 forward { exppc nubs 1 periodic 2 
	-6.283185307179586232 1 -0 1 
	1 1 
	0 1 
	2.726396620975368931e-13 
	spline forward { ref 0 } I I I I 
	} 0 0 #
tvertex-vertex $-1 -1 $-1 $16 $32 5.336387788195268302e-05 #
ellipse-curve $-1 -1 $-1 8781.79757191538738 3935.642797989786231 14000.00000000000182 1 -3.637978807091713027e-15 0 1.818989403545856476e-12 500 0 1 I I #
pcurve $-1 -1 $-1 0 forward { exppc nubs 1 periodic 2 
	0 1 6.283185307179586232 1 
	0 0 
	1 0 
	4.4114023995510105e-13 
	spline forward { ref 0 } I I I I 
	} 0 0 #
tvertex-vertex $-1 -1 $-1 $19 $33 5.336381197426767276e-05 #
ellipse-curve $-1 -1 $-1 8531.79757191538738 3935.642797989787141 14000.00000000000182 1 -3.637978807091713027e-15 0 1.818989403545856476e-12 500 0 1 I I #
edge $-1 -1 $-1 $27 0 $24 1 $22 $34 forward @7 tangent #
pcurve $-1 -1 $-1 -1 $34 0 0 #
pcurve $-1 -1 $-1 1 $34 1 0 #
point $-1 -1 $-1 8781.797571915389199 4435.642797989786231 14000.00000000000182 #
point $-1 -1 $-1 8531.797571915389199 4435.642797989787141 14000.00000000000182 #
intcurve-curve $-1 -1 $-1 forward { parcur full nubs 3 open 2 
	0 3 1 3 
	8531.797571569282809 4435.642848671002866 13999.99998329700975 
	8615.130904902616749 4435.642848671001957 13999.99998329700975 
	8698.464238225802546 4435.642848671001047 13999.99998329700975 
	8781.797571559136486 4435.642848671001047 13999.99998329700975 
	0 
	
	spline forward { ref 0 } I I I I 
	null_surface 
	nubs 1 open 2 
	0 1 1 1 
	0 0 
	0 1 
	
	nullbs 
	I I 
	0 
	0 
	0 
	surf1 } I I #
End-of-ACIS-data 