700 0 1 0           
4 LibG 20 ASM 224.0.1.65535 NT 24 Wed Jul 17 12:52:12 2019 
1000 9.999999999999999547e-07 1.000000000000000036e-10 
body $-1 -1 $-1 $1 $-1 $2 #
lump $-1 -1 $-1 $-1 $3 $0 #
transform $-1 -1 1 0 0 0 1 0 0 0 1 0 0 0 1 no_rotate no_reflect no_shear #
shell $-1 -1 $-1 $-1 $-1 $4 $-1 $1 #
face $-1 -1 $-1 $5 $6 $3 $-1 $7 forward single #
face $-1 -1 $-1 $8 $9 $3 $-1 $10 reversed single #
loop $-1 -1 $-1 $-1 $11 $4 #
plane-surface $-1 -1 $-1 2031.797571915386925 3935.642797989810788 14000.00000000000182 1 -3.637978807091713027e-15 0 0 0 -1 forward_v I I I I #
face $-1 -1 $-1 $-1 $12 $3 $-1 $13 forward single #
loop $-1 -1 $-1 $-1 $14 $5 #
plane-surface $-1 -1 $-1 1781.797571915386925 3935.642797989811697 14000.00000000000182 1 -3.637978807091713027e-15 0 0 0 -1 forward_v I I I I #
tcoedge-coedge $-1 -1 $-1 $11 $11 $15 $16 forward $6 $17 0 6.283185307179586232 #
loop $-1 -1 $-1 $-1 $18 $8 #
spline-surface $-1 -1 $-1 forward { exactsur full nubs 3 3 periodic open none none 85 2 
	0 3 0.002232142857142857019 1 0.004464285714285714038 1 0.008928571428571428076 1 0.01785714285714285615 1 
	0.0357142857142857123 1 0.05357142857142856845 1 0.0625 1 0.07142857142857142461 1 0.08928571428571427382 1 
	0.1071428571428571369 1 0.125 1 0.1428571428571428492 1 0.1587301587301587213 1 0.1746031746031745935 1 
	0.1904761904761904656 1 0.2023809523809523836 1 0.2142857142857142738 1 0.238095238095238082 1 0.2619047619047618625 1 
	0.2857142857142856984 1 0.3095238095238095344 1 0.3214285714285713969 1 0.3333333333333333148 1 0.3392857142857143016 1 
	0.3452380952380952328 1 0.3571428571428570953 1 0.3630952380952380265 1 0.3690476190476190133 1 0.375 1 
	0.3779761904761904656 1 0.3809523809523809312 1 0.4047619047619047672 1 0.4077380952380952328 1 0.4107142857142856984 1 
	0.4166666666666666297 1 0.4285714285714285476 1 0.4444444444444444198 1 0.4484126984126983739 1 0.4523809523809523281 1 
	0.4603174603174602919 1 0.4682539682539682557 1 0.476190476190476164 1 0.4920634920634920362 1 0.5079365079365079083 1 
	0.5238095238095237249 1 0.5476190476190475609 1 0.5595238095238095344 1 0.5714285714285713969 1 0.5833333333333332593 1 
	0.5952380952380951218 1 0.6071428571428569843 1 0.6190476190476189577 1 0.6349206349206348854 1 0.650793650793650702 1 
	0.6587301587301586103 1 0.6666666666666666297 1 0.6785714285714286031 1 0.6904761904761904656 1 0.7023809523809523281 1 
	0.7142857142857141906 1 0.7232142857142855874 1 0.7321428571428569843 1 0.7410714285714283811 1 0.749999999999999889 1 
	0.7678571428571427937 1 0.7857142857142855874 1 0.7976190476190474499 1 0.8095238095238094234 1 0.8333333333333332593 1 
	0.8571428571428570953 1 0.875 1 0.8928571428571427937 1 0.9107142857142856984 1 0.9285714285714286031 1 
	0.9464285714285713969 1 0.9642857142857143016 1 0.9821428571428572063 1 0.9910714285714286031 1 0.9955357142857143016 1 
	0.9977678571428572063 1 0.9988839285714286031 1 0.9994419642857143016 1 0.9997209821428572063 1 1 3 
	0 3 1 3 
	1781.797571925591456 4435.642841664792286 13999.99989856354478 
	1781.797571925588272 4435.642841639517428 14002.33739309602606 
	1781.797571925557804 4435.610055189044942 14007.01238179312713 
	1781.7975719255287 4435.413373606393179 14016.36052175173609 
	1781.797571925391594 4434.725024657786889 14032.71010473001661 
	1781.797571924935937 4431.973742647522158 14065.33209732149044 
	1781.797571923632177 4424.130834008303282 14111.49409111975001 
	1781.797571922455518 4411.168104357599077 14156.48753204427885 
	1781.797571922075804 4397.824843979175057 14191.44195155777015 
	1781.797571921765439 4382.543449424575556 14225.5935723939765 
	1781.79757192071861 4359.894248415247603 14266.57473005073371 
	1781.797571919969641 4327.379545692183456 14312.39947801241215 
	1781.797571918899393 4289.938925751253009 14354.2960212859598 
	1781.797571918789345 4249.594203871873106 14390.3499453476652 
	1781.797571917992173 4207.366041411043625 14420.70976495551076 
	1781.797571917917367 4164.126594075297362 14445.67394104367304 
	1781.797571917777759 4122.408913703470716 14464.49779691314507 
	1781.797571917515825 4083.157738441679157 14478.23143748345319 
	1781.797571917298228 4034.957050085250103 14491.14870661857094 
	1781.797571917157711 3973.147670302322695 14500.46617492093355 
	1781.797571916806191 3898.138155927693333 14500.46540923649445 
	1781.797571916590869 3823.966448403722552 14489.28637001881543 
	1781.797571916393736 3764.23594353685894 14470.86112110890099 
	1781.797571916273228 3718.498721680610288 14450.90446206584238 
	1781.797571916180459 3690.924405905854201 14436.33154783672398 
	1781.797571916152719 3669.56480607201911 14423.46087158879709 
	1781.797571916131346 3648.701211735753532 14409.80086395306716 
	1781.797571916089055 3628.625905895968572 14394.98463408328826 
	1781.797571916062452 3609.42307149195085 14379.07435088151215 
	1781.7975719160479 3595.477158129428972 14366.61152663438406 
	1781.797571916032211 3584.251992541372147 14355.79857053288106 
	1781.797571916028801 3575.519237711637743 14346.90084948807089 
	1781.797571916015841 3554.106520989676483 14324.25267751289539 
	1781.797571915946946 3534.620146101894534 14299.81751726323091 
	1781.797571915937169 3517.304592062318534 14273.90196957673288 
	1781.797571915935123 3510.573176613041596 14263.40823080943301 
	1781.797571915930121 3499.311559743247471 14244.71846907187864 
	1781.797571915903745 3482.794723361101205 14213.46793770670774 
	1781.797571915882372 3469.865578815612935 14182.79587211787657 
	1781.797571915881008 3461.630147715547082 14159.25988412860715 
	1781.797571915878734 3456.532604950235054 14143.43727575618323 
	1781.79757191587646 3450.903394505450706 14123.4299145883906 
	1781.797571915874414 3445.353541638369734 14099.11419523614313 
	1781.797571915873732 3439.578792383752898 14066.36475528133815 
	1781.797571915877597 3435.435600289231388 14024.96430055424389 
	1781.797571915884191 3435.436065744107964 13975.03583125699879 
	1781.797571915900789 3441.234404894800718 13917.07492171325794 
	1781.797571915930121 3453.28890503285993 13864.25992766039599 
	1781.797571915946946 3469.771895081797538 13817.15916034634574 
	1781.797571915979233 3484.737745204707608 13782.85569873220265 
	1781.797571916008337 3502.226036793128515 13749.76678902087406 
	1781.797571916043125 3522.137792102722415 13718.07718368744099 
	1781.79757191608519 3544.362244847149668 13687.96428457973343 
	1781.797571916126572 3571.487198172994795 13656.4443042999319 
	1781.797571916220477 3604.250683994141582 13624.4872200852642 
	1781.797571916284141 3636.780738666665911 13598.54593157448289 
	1781.797571916302559 3664.257176890354913 13579.81305548268756 
	1781.797571916337347 3689.086046466076823 13564.64029121140629 
	1781.797571916415563 3718.49846225984902 13549.09536037534417 
	1781.797571916455809 3752.801772489232462 13534.12892768300117 
	1781.797571916567676 3788.127631140539506 13521.76788699579447 
	1781.797571916659308 3821.265885465413248 13512.88855391941252 
	1781.797571916726383 3851.845664572823353 13506.80594930250118 
	1781.797571916791412 3879.631103817861458 13502.8832231602355 
	1781.797571916865309 3907.592778685650501 13500.52481657299359 
	1781.797571916954666 3944.992700067759415 13499.47511776405918 
	1781.797571917266851 3991.742511028718127 13502.1003013653808 
	1781.797571917591995 4040.981982714545666 13510.46652329235258 
	1781.797571917790719 4083.157640241800436 13521.7683973901203 
	1781.797571917916684 4130.259298443605076 13538.24840785711058 
	1781.797571918191124 4186.577579620984579 13565.36800074938583 
	1781.797571918735457 4243.387785334240107 13604.10246194091815 
	1781.797571919178608 4289.938766238662538 13645.70391105791168 
	1781.797571920078099 4327.379783672635313 13687.60003195618447 
	1781.79757192085458 4359.894188675807527 13733.42506237099951 
	1781.797571921771578 4387.073543835529563 13782.60228677503073 
	1781.797571922804536 4408.575768808841531 13834.51347318819535 
	1781.797571923815667 4424.130771878593805 13888.50571263444363 
	1781.797571925041893 4431.973773754225476 13934.66768600331852 
	1781.797571925428883 4434.725022534385971 13967.28969260432859 
	1781.797571925549619 4435.413375924490538 13983.63927473201329 
	1781.797571925580542 4435.585470164737671 13991.81889777839751 
	1781.797571925589409 4435.628499248164189 13995.90931182420354 
	1781.79757192559191 4435.639255943404351 13997.95459444424159 
	1781.797571925592138 4435.642329386771053 13999.12333810811469 
	1781.79757192559191 4435.64284166795187 13999.7077117469853 
	1781.797571925591456 4435.642841664792286 13999.99989856354478 
	1865.130905258924713 4435.642841664791376 13999.99989856354478 
	1865.13090525892153 4435.642841639516519 14002.33739309602606 
	1865.130905258890834 4435.610055189044033 14007.01238179312713 
	1865.130905258861958 4435.41337360639227 14016.36052175173609 
	1865.130905258724852 4434.72502465778598 14032.71010473001661 
	1865.130905258269195 4431.973742647521249 14065.33209732149044 
	1865.130905256965434 4424.130834008302372 14111.49409111975001 
	1865.130905255788775 4411.168104357598168 14156.48753204427885 
	1865.130905255409061 4397.824843979174148 14191.44195155777015 
	1865.130905255098696 4382.543449424574646 14225.5935723939765 
	1865.130905254051868 4359.894248415246693 14266.57473005073371 
	1865.130905253302899 4327.379545692182546 14312.39947801241215 
	1865.130905252232651 4289.9389257512521 14354.2960212859598 
	1865.130905252122602 4249.594203871872196 14390.3499453476652 
	1865.13090525132543 4207.366041411042715 14420.70976495551076 
	1865.130905251250624 4164.126594075296453 14445.67394104367304 
	1865.130905251111017 4122.408913703469807 14464.49779691314507 
	1865.130905250849082 4083.157738441678703 14478.23143748345319 
	1865.130905250631486 4034.957050085249648 14491.14870661857094 
	1865.130905250490969 3973.14767030232224 14500.46617492093355 
	1865.130905250139449 3898.138155927692878 14500.46540923649445 
	1865.130905249924126 3823.966448403722097 14489.28637001881543 
	1865.130905249726993 3764.235943536858485 14470.86112110890099 
	1865.130905249606258 3718.498721680609833 14450.90446206584238 
	1865.130905249513717 3690.924405905853746 14436.33154783672398 
	1865.130905249485977 3669.564806072018655 14423.46087158879709 
	1865.130905249464604 3648.701211735753077 14409.80086395306716 
	1865.130905249422312 3628.625905895968117 14394.98463408328826 
	1865.13090524939571 3609.423071491950395 14379.07435088151215 
	1865.130905249381158 3595.477158129428517 14366.61152663438406 
	1865.130905249365242 3584.251992541371692 14355.79857053288106 
	1865.130905249362058 3575.519237711637288 14346.90084948807089 
	1865.130905249349098 3554.106520989676028 14324.25267751289539 
	1865.130905249280204 3534.620146101894079 14299.81751726323091 
	1865.130905249270427 3517.304592062318079 14273.90196957673288 
	1865.13090524926838 3510.573176613041142 14263.40823080943301 
	1865.130905249263378 3499.311559743247017 14244.71846907187864 
	1865.130905249237003 3482.79472336110075 14213.46793770670774 
	1865.13090524921563 3469.86557881561248 14182.79587211787657 
	1865.130905249214265 3461.630147715546627 14159.25988412860715 
	1865.130905249211992 3456.5326049502346 14143.43727575618323 
	1865.130905249209718 3450.903394505450251 14123.4299145883906 
	1865.130905249207672 3445.353541638369279 14099.11419523614313 
	1865.13090524920699 3439.578792383752443 14066.36475528133815 
	1865.130905249210855 3435.435600289230933 14024.96430055424389 
	1865.130905249217449 3435.436065744107509 13975.03583125699879 
	1865.130905249234047 3441.234404894800264 13917.07492171325794 
	1865.130905249263378 3453.288905032859475 13864.25992766039599 
	1865.130905249280204 3469.771895081797084 13817.15916034634574 
	1865.130905249312491 3484.737745204707153 13782.85569873220265 
	1865.130905249341595 3502.22603679312806 13749.76678902087406 
	1865.130905249376156 3522.13779210272196 13718.07718368744099 
	1865.130905249418447 3544.362244847149213 13687.96428457973343 
	1865.130905249459602 3571.48719817299434 13656.4443042999319 
	1865.130905249553962 3604.250683994141127 13624.4872200852642 
	1865.130905249617399 3636.780738666665457 13598.54593157448289 
	1865.130905249635816 3664.257176890354458 13579.81305548268756 
	1865.130905249670377 3689.086046466076368 13564.64029121140629 
	1865.130905249748821 3718.498462259848566 13549.09536037534417 
	1865.130905249789066 3752.801772489232008 13534.12892768300117 
	1865.130905249900934 3788.127631140539052 13521.76788699579447 
	1865.130905249992566 3821.265885465412794 13512.88855391941252 
	1865.130905250059641 3851.845664572822898 13506.80594930250118 
	1865.13090525012467 3879.631103817861003 13502.8832231602355 
	1865.130905250198339 3907.592778685650046 13500.52481657299359 
	1865.130905250288151 3944.99270006775896 13499.47511776405918 
	1865.130905250599881 3991.742511028717672 13502.1003013653808 
	1865.130905250925252 4040.981982714545211 13510.46652329235258 
	1865.130905251123977 4083.157640241799982 13521.7683973901203 
	1865.130905251249942 4130.259298443604166 13538.24840785711058 
	1865.130905251524382 4186.57757962098367 13565.36800074938583 
	1865.130905252068715 4243.387785334239197 13604.10246194091815 
	1865.130905252511866 4289.938766238661628 13645.70391105791168 
	1865.130905253411129 4327.379783672634403 13687.60003195618447 
	1865.130905254187837 4359.894188675806618 13733.42506237099951 
	1865.130905255104835 4387.073543835528653 13782.60228677503073 
	1865.130905256137794 4408.575768808840621 13834.51347318819535 
	1865.130905257148697 4424.130771878592896 13888.50571263444363 
	1865.130905258375378 4431.973773754224567 13934.66768600331852 
	1865.130905258761914 4434.725022534385062 13967.28969260432859 
	1865.130905258882876 4435.413375924489628 13983.63927473201329 
	1865.130905258913799 4435.585470164736762 13991.81889777839751 
	1865.130905258922667 4435.62849924816328 13995.90931182420354 
	1865.130905258925168 4435.639255943403441 13997.95459444424159 
	1865.130905258925395 4435.642329386770143 13999.12333810811469 
	1865.130905258925168 4435.642841667950961 13999.7077117469853 
	1865.130905258924713 4435.642841664791376 13999.99989856354478 
	1948.464238593688833 4435.642841664790467 13999.99989856354478 
	1948.464238593685195 4435.642841639515609 14002.33739309602606 
	1948.464238593650407 4435.610055189044033 14007.01238179312713 
	1948.464238593617438 4435.41337360639136 14016.36052175173609 
	1948.464238593461005 4434.72502465778598 14032.71010473001661 
	1948.464238592941683 4431.973742647521249 14065.33209732149044 
	1948.464238591454887 4424.130834008301463 14111.49409111975001 
	1948.464238590113382 4411.168104357599077 14156.48753204427885 
	1948.464238589680235 4397.824843979175057 14191.44195155777015 
	1948.464238589326669 4382.543449424575556 14225.5935723939765 
	1948.464238588132503 4359.894248415246693 14266.57473005073371 
	1948.464238587278714 4327.379545692182546 14312.39947801241215 
	1948.464238586057945 4289.9389257512521 14354.2960212859598 
	1948.464238585932435 4249.594203871872196 14390.3499453476652 
	1948.46423858502385 4207.366041411042715 14420.70976495551076 
	1948.46423858493813 4164.126594075296453 14445.67394104367304 
	1948.464238584778968 4122.408913703469807 14464.49779691314507 
	1948.464238584480199 4083.157738441679612 14478.23143748345319 
	1948.464238584232589 4034.957050085250103 14491.14870661857094 
	1948.464238584072291 3973.147670302323149 14500.46617492093355 
	1948.464238583672113 3898.138155927692878 14500.46540923649445 
	1948.464238583426322 3823.966448403722097 14489.28637001881543 
	1948.464238583201677 3764.235943536859395 14470.86112110890099 
	1948.464238583064343 3718.498721680609833 14450.90446206584238 
	1948.464238582958842 3690.924405905854655 14436.33154783672398 
	1948.464238582927237 3669.56480607201911 14423.46087158879709 
	1948.464238582902681 3648.701211735753986 14409.80086395306716 
	1948.464238582854477 3628.625905895969026 14394.98463408328826 
	1948.464238582824237 3609.423071491951305 14379.07435088151215 
	1948.464238582807411 3595.477158129429426 14366.61152663438406 
	1948.464238582790131 3584.251992541372601 14355.79857053288106 
	1948.464238582785583 3575.519237711638198 14346.90084948807089 
	1948.464238582771031 3554.106520989676937 14324.25267751289539 
	1948.464238582692587 3534.620146101894989 14299.81751726323091 
	1948.464238582681674 3517.304592062318989 14273.90196957673288 
	1948.4642385826794 3510.573176613042051 14263.40823080943301 
	1948.46423858267417 3499.311559743247926 14244.71846907187864 
	1948.464238582643929 3482.79472336110166 14213.46793770670774 
	1948.464238582619828 3469.865578815613389 14182.79587211787657 
	1948.464238582618009 3461.630147715547537 14159.25988412860715 
	1948.464238582615508 3456.532604950235509 14143.43727575618323 
	1948.464238582612552 3450.903394505450706 14123.4299145883906 
	1948.464238582610278 3445.353541638370189 14099.11419523614313 
	1948.464238582609369 3439.578792383752443 14066.36475528133815 
	1948.464238582613689 3435.435600289231388 14024.96430055424389 
	1948.464238582621419 3435.436065744107054 13975.03583125699879 
	1948.464238582640064 3441.234404894800718 13917.07492171325794 
	1948.464238582673488 3453.28890503285902 13864.25992766039599 
	1948.464238582692815 3469.771895081796629 13817.15916034634574 
	1948.464238582729422 3484.737745204706243 13782.85569873220265 
	1948.464238582762619 3502.22603679312715 13749.76678902087406 
	1948.464238582802409 3522.137792102721505 13718.07718368744099 
	1948.464238582849703 3544.362244847148759 13687.96428457973343 
	1948.464238582897451 3571.487198172993885 13656.4443042999319 
	1948.464238583004317 3604.250683994140672 13624.4872200852642 
	1948.464238583077076 3636.780738666664092 13598.54593157448289 
	1948.464238583097995 3664.257176890353094 13579.81305548268756 
	1948.46423858313824 3689.086046466075459 13564.64029121140629 
	1948.464238583226916 3718.498462259847201 13549.09536037534417 
	1948.464238583272618 3752.801772489231098 13534.12892768300117 
	1948.464238583400174 3788.127631140538597 13521.76788699579447 
	1948.464238583504994 3821.265885465412794 13512.88855391941252 
	1948.464238583581391 3851.845664572822443 13506.80594930250118 
	1948.464238583655515 3879.631103817861003 13502.8832231602355 
	1948.464238583740098 3907.592778685650046 13500.52481657299359 
	1948.464238583841507 3944.99270006775896 13499.47511776405918 
	1948.464238584198029 3991.742511028717672 13502.1003013653808 
	1948.464238584568648 4040.98198271454612 13510.46652329235258 
	1948.464238584795339 4083.157640241800436 13521.7683973901203 
	1948.464238584938585 4130.259298443605076 13538.24840785711058 
	1948.464238585251451 4186.57757962098367 13565.36800074938583 
	1948.464238585872181 4243.387785334240107 13604.10246194091815 
	1948.464238586377633 4289.938766238662538 13645.70391105791168 
	1948.464238587403088 4327.379783672635313 13687.60003195618447 
	1948.464238588288481 4359.894188675807527 13733.42506237099951 
	1948.4642385893344 4387.073543835529563 13782.60228677503073 
	1948.464238590512423 4408.575768808841531 13834.51347318819535 
	1948.464238591665435 4424.130771878592896 13888.50571263444363 
	1948.464238593063101 4431.973773754224567 13934.66768600331852 
	1948.464238593505115 4434.725022534385062 13967.28969260432859 
	1948.464238593642449 4435.413375924489628 13983.63927473201329 
	1948.464238593677464 4435.585470164736762 13991.81889777839751 
	1948.464238593687469 4435.62849924816328 13995.90931182420354 
	1948.464238593690197 4435.639255943403441 13997.95459444424159 
	1948.464238593689743 4435.642329386769234 13999.12333810811469 
	1948.464238593689288 4435.642841667949142 13999.7077117469853 
	1948.464238593688833 4435.642841664790467 13999.99989856354478 
	2031.797571927022091 4435.642841664790467 13999.99989856354478 
	2031.797571927018453 4435.642841639515609 14002.33739309602606 
	2031.797571926983665 4435.610055189044033 14007.01238179312713 
	2031.797571926950695 4435.41337360639136 14016.36052175173609 
	2031.797571926794262 4434.72502465778598 14032.71010473001661 
	2031.797571926274941 4431.973742647521249 14065.33209732149044 
	2031.797571924788144 4424.130834008301463 14111.49409111975001 
	2031.79757192344664 4411.168104357599077 14156.48753204427885 
	2031.797571923013493 4397.824843979175057 14191.44195155777015 
	2031.797571922659927 4382.543449424575556 14225.5935723939765 
	2031.79757192146576 4359.894248415246693 14266.57473005073371 
	2031.797571920611972 4327.379545692182546 14312.39947801241215 
	2031.797571919391203 4289.9389257512521 14354.2960212859598 
	2031.797571919265692 4249.594203871872196 14390.3499453476652 
	2031.797571918357107 4207.366041411042715 14420.70976495551076 
	2031.797571918271387 4164.126594075296453 14445.67394104367304 
	2031.797571918112226 4122.408913703469807 14464.49779691314507 
	2031.797571917813457 4083.157738441679157 14478.23143748345319 
	2031.797571917565847 4034.957050085249648 14491.14870661857094 
	2031.797571917405548 3973.147670302322695 14500.46617492093355 
	2031.797571917005371 3898.138155927692424 14500.46540923649445 
	2031.79757191675958 3823.966448403721643 14489.28637001881543 
	2031.797571916534935 3764.23594353685894 14470.86112110890099 
	2031.797571916397374 3718.498721680609378 14450.90446206584238 
	2031.7975719162921 3690.924405905854201 14436.33154783672398 
	2031.797571916260495 3669.564806072018655 14423.46087158879709 
	2031.797571916235938 3648.701211735753532 14409.80086395306716 
	2031.797571916187735 3628.625905895968572 14394.98463408328826 
	2031.797571916157494 3609.42307149195085 14379.07435088151215 
	2031.797571916140669 3595.477158129428972 14366.61152663438406 
	2031.797571916123161 3584.251992541372147 14355.79857053288106 
	2031.797571916118841 3575.519237711637743 14346.90084948807089 
	2031.797571916104289 3554.106520989676483 14324.25267751289539 
	2031.797571916025845 3534.620146101894534 14299.81751726323091 
	2031.797571916014931 3517.304592062318534 14273.90196957673288 
	2031.797571916012657 3510.573176613041596 14263.40823080943301 
	2031.7975719160072 3499.311559743247471 14244.71846907187864 
	2031.797571915977187 3482.794723361101205 14213.46793770670774 
	2031.797571915953085 3469.865578815612935 14182.79587211787657 
	2031.797571915951266 3461.630147715547082 14159.25988412860715 
	2031.797571915948765 3456.532604950235054 14143.43727575618323 
	2031.797571915945809 3450.903394505450251 14123.4299145883906 
	2031.797571915943536 3445.353541638369734 14099.11419523614313 
	2031.797571915942626 3439.578792383751988 14066.36475528133815 
	2031.797571915946946 3435.435600289230933 14024.96430055424389 
	2031.797571915954677 3435.4360657441066 13975.03583125699879 
	2031.797571915973322 3441.234404894800264 13917.07492171325794 
	2031.797571916006746 3453.288905032858565 13864.25992766039599 
	2031.797571916026072 3469.771895081796174 13817.15916034634574 
	2031.79757191606268 3484.737745204705789 13782.85569873220265 
	2031.797571916095876 3502.226036793126696 13749.76678902087406 
	2031.797571916135439 3522.13779210272105 13718.07718368744099 
	2031.797571916183188 3544.362244847148304 13687.96428457973343 
	2031.797571916230481 3571.48719817299343 13656.4443042999319 
	2031.797571916337574 3604.250683994140218 13624.4872200852642 
	2031.797571916410334 3636.780738666663638 13598.54593157448289 
	2031.797571916431252 3664.257176890352639 13579.81305548268756 
	2031.79757191647127 3689.086046466075004 13564.64029121140629 
	2031.797571916560173 3718.498462259846747 13549.09536037534417 
	2031.797571916605875 3752.801772489230643 13534.12892768300117 
	2031.797571916733432 3788.127631140538142 13521.76788699579447 
	2031.797571916838251 3821.265885465412339 13512.88855391941252 
	2031.797571916914649 3851.845664572821988 13506.80594930250118 
	2031.797571916988773 3879.631103817860549 13502.8832231602355 
	2031.797571917073128 3907.592778685649591 13500.52481657299359 
	2031.797571917174992 3944.992700067758506 13499.47511776405918 
	2031.797571917531286 3991.742511028717217 13502.1003013653808 
	2031.797571917901905 4040.981982714545666 13510.46652329235258 
	2031.797571918128597 4083.157640241799982 13521.7683973901203 
	2031.797571918271842 4130.259298443605076 13538.24840785711058 
	2031.797571918584708 4186.57757962098367 13565.36800074938583 
	2031.797571919205438 4243.387785334240107 13604.10246194091815 
	2031.79757191971089 4289.938766238662538 13645.70391105791168 
	2031.797571920736345 4327.379783672635313 13687.60003195618447 
	2031.797571921621966 4359.894188675807527 13733.42506237099951 
	2031.797571922667657 4387.073543835529563 13782.60228677503073 
	2031.79757192384568 4408.575768808841531 13834.51347318819535 
	2031.797571924998465 4424.130771878592896 13888.50571263444363 
	2031.797571926396586 4431.973773754224567 13934.66768600331852 
	2031.797571926838145 4434.725022534385062 13967.28969260432859 
	2031.797571926975706 4435.413375924489628 13983.63927473201329 
	2031.797571927010722 4435.585470164736762 13991.81889777839751 
	2031.797571927020726 4435.62849924816328 13995.90931182420354 
	2031.797571927023455 4435.639255943403441 13997.95459444424159 
	2031.797571927023 4435.642329386769234 13999.12333810811469 
	2031.797571927022545 4435.642841667949142 13999.7077117469853 
	2031.797571927022091 4435.642841664790467 13999.99989856354478 
	0 
	
	0 
	0 
	84 0 0.002232142857142857019 0.004464285714285714038 0.008928571428571428076 0.01785714285714285615 0.0357142857142857123 0.05357142857142856845 0.0625 0.07142857142857142461 0.08928571428571427382 0.1071428571428571369 0.125 0.1428571428571428492 0.1587301587301587213 0.1746031746031745935 0.1904761904761904656 0.2023809523809523836 0.2142857142857142738 0.238095238095238082 0.2619047619047618625 0.2857142857142856984 0.3095238095238095344 0.3214285714285713969 0.3333333333333333148 0.3392857142857143016 0.3452380952380952328 0.3571428571428570953 0.3630952380952380265 0.3690476190476190133 0.375 0.3779761904761904656 0.3809523809523809312 0.4047619047619047672 0.4077380952380952328 0.4107142857142856984 0.4166666666666666297 0.4285714285714285476 0.4444444444444444198 0.4484126984126983739 0.4523809523809523281 0.4603174603174602919 0.4682539682539682557 0.476190476190476164 0.4920634920634920362 0.5079365079365079083 0.5238095238095237249 0.5476190476190475609 0.5595238095238095344 0.5714285714285713969 0.5833333333333332593 0.5952380952380951218 0.6071428571428569843 0.6190476190476189577 0.6349206349206348854 0.650793650793650702 0.6587301587301586103 0.6666666666666666297 0.6785714285714286031 0.6904761904761904656 0.7023809523809523281 0.7142857142857141906 0.7232142857142855874 0.7321428571428569843 0.7410714285714283811 0.749999999999999889 0.7678571428571427937 0.7857142857142855874 0.7976190476190474499 0.8095238095238094234 0.8333333333333332593 0.8571428571428570953 0.875 0.8928571428571427937 0.9107142857142856984 0.9285714285714286031 0.9464285714285713969 0.9642857142857143016 0.9821428571428572063 0.9910714285714286031 0.9955357142857143016 0.9977678571428572063 0.9988839285714286031 0.9994419642857143016 0.9997209821428572063 
	0 
	0 
	0 
	F 1 F 0 F 1 F 0 } I I I I #
tcoedge-coedge $-1 -1 $-1 $14 $14 $18 $19 reversed $9 $20 -6.283185307179586232 -0 #
tcoedge-coedge $-1 -1 $-1 $21 $22 $11 $16 reversed $12 $23 -6.283185307179586232 -0 #
tedge-edge $-1 -1 $-1 $24 0 $24 6.283185307179586232 $15 $25 forward @7 unknown 0.0006640114888620604746 #
pcurve $-1 -1 $-1 0 forward { exppc nurbs 2 periodic 5 
	0 2 1.570796326794896558 2 3.141592653589793116 2 4.712388980384689674 2 6.283185307179586232 2 
	0 500 1 
	-500 500 0.707106781186543798 
	-500 0 1 
	-500 -500 0.7071067811865463515 
	0 -500 1 
	500 -500 0.7071067811865463515 
	500 0 1 
	500 500 0.707106781186543798 
	0 500 1 
	0 
	plane 2031.797571915386925 3935.642797989810788 14000.00000000000182 1 -3.637978807091713027e-15 0 0 0 -1 forward_v I I I I 
	} 0 0 #
tcoedge-coedge $-1 -1 $-1 $22 $21 $14 $19 forward $12 $26 0 6.283185307179586232 #
tedge-edge $-1 -1 $-1 $27 0 $27 6.283185307179586232 $18 $28 forward @7 unknown 0.0006640114888283428713 #
pcurve $-1 -1 $-1 0 forward { exppc nurbs 2 periodic 5 
	-6.283185307179586232 2 -4.712388980384689674 2 -3.141592653589793116 2 -1.570796326794896558 2 0 2 
	0 500 1 
	500 500 0.707106781186543798 
	500 0 1 
	500 -500 0.7071067811865463515 
	0 -500 1 
	-500 -500 0.7071067811865463515 
	-500 0 1 
	-500 500 0.707106781186543798 
	0 500 1 
	0 
	plane 1781.797571915386925 3935.642797989811697 14000.00000000000182 -1 3.637978807091713027e-15 -0 0 0 -1 reverse_v I I I I 
	} 0 0 #
coedge $-1 -1 $-1 $18 $15 $22 $29 reversed $12 $30 #
coedge $-1 -1 $-1 $15 $18 $21 $29 forward $12 $31 #
pcurve $-1 -1 $-1 0 forward { exppc nubs 1 periodic 2 
	-6.283185307179586232 1 -0 1 
	1 1 
	0 1 
	0 
	spline forward { ref 0 } I I I I 
	} 0 0 #
tvertex-vertex $-1 -1 $-1 $16 $32 0.0001104393997252621176 #
ellipse-curve $-1 -1 $-1 2031.797571915386925 3935.642797989810788 14000.00000000000182 1 -3.637978807091713027e-15 0 1.818989403545856476e-12 500 0 1 I I #
pcurve $-1 -1 $-1 0 forward { exppc nubs 1 periodic 2 
	0 1 6.283185307179586232 1 
	0 0 
	1 0 
	4.411402399551012014e-13 
	spline forward { ref 0 } I I I I 
	} 0 0 #
tvertex-vertex $-1 -1 $-1 $19 $33 0.0001104393999435035039 #
ellipse-curve $-1 -1 $-1 1781.797571915386925 3935.642797989811697 14000.00000000000182 1 -3.637978807091713027e-15 0 1.818989403545856476e-12 500 0 1 I I #
edge $-1 -1 $-1 $27 0 $24 0.9999999999534666673 $22 $34 forward @7 tangent #
pcurve $-1 -1 $-1 -1 $34 0 0 #
pcurve $-1 -1 $-1 1 $34 1 0 #
point $-1 -1 $-1 2031.797571915388744 4435.642797989810788 14000.00000000000182 #
point $-1 -1 $-1 1781.797571915388744 4435.642797989811697 14000.00000000000182 #
intcurve-curve $-1 -1 $-1 forward { parcur full nubs 3 open 2 
	0 3 1 3 
	1781.797571925591456 4435.642841664792286 13999.99989856354478 
	1865.130905258924713 4435.642841664791376 13999.99989856354478 
	1948.464238593688833 4435.642841664790467 13999.99989856354478 
	2031.797571927022091 4435.642841664790467 13999.99989856354478 
	0 
	
	spline forward { ref 0 } I I I I 
	null_surface 
	nubs 1 open 2 
	0 1 1 1 
	0 0 
	0 1 
	
	nullbs 
	I I 
	0 
	0 
	0 
	surf1 } F 0 F 0.9999999999534666673 #
End-of-ACIS-data 