700 0 1 0           
4 LibG 20 ASM 224.0.1.65535 NT 24 Wed Jul 17 12:52:13 2019 
1000 9.999999999999999547e-07 1.000000000000000036e-10 
body $-1 -1 $-1 $1 $-1 $2 #
lump $-1 -1 $-1 $-1 $3 $0 #
transform $-1 -1 1 0 0 0 1 0 0 0 1 0 0 0 1 no_rotate no_reflect no_shear #
shell $-1 -1 $-1 $-1 $-1 $4 $-1 $1 #
face $-1 -1 $-1 $5 $6 $3 $-1 $7 forward single #
face $-1 -1 $-1 $8 $9 $3 $-1 $10 reversed single #
loop $-1 -1 $-1 $-1 $11 $4 #
plane-surface $-1 -1 $-1 9781.79757191538738 3935.642797989782594 14000.00000000000182 1 -3.637978807091713027e-15 0 0 0 -1 forward_v I I I I #
face $-1 -1 $-1 $-1 $12 $3 $-1 $13 forward single #
loop $-1 -1 $-1 $-1 $14 $5 #
plane-surface $-1 -1 $-1 9531.79757191538738 3935.642797989783503 14000.00000000000182 1 -3.637978807091713027e-15 0 0 0 -1 forward_v I I I I #
tcoedge-coedge $-1 -1 $-1 $11 $11 $15 $16 forward $6 $17 0 6.283185307179586232 #
loop $-1 -1 $-1 $-1 $18 $8 #
spline-surface $-1 -1 $-1 forward { exactsur full nubs 3 3 periodic open none none 104 2 
	0 3 0.0005580357142857142547 1 0.001116071428571428509 1 0.002232142857142857019 1 0.004464285714285714038 1 
	0.008928571428571428076 1 0.01785714285714285615 1 0.0357142857142857123 1 0.05357142857142856845 1 0.07142857142857142461 1 
	0.08928571428571427382 1 0.1071428571428571369 1 0.1160714285714285754 1 0.125 1 0.1428571428571428492 1 
	0.1587301587301587213 1 0.1746031746031745935 1 0.1904761904761904656 1 0.2023809523809523836 1 0.2142857142857142738 1 
	0.226190476190476164 1 0.238095238095238082 1 0.2619047619047618625 1 0.2738095238095237804 1 0.2857142857142856984 1 
	0.2976190476190476164 1 0.3095238095238095344 1 0.3125 1 0.3154761904761904656 1 0.3214285714285713969 1 
	0.3273809523809523281 1 0.3333333333333333148 1 0.3452380952380952328 1 0.351190476190476164 1 0.3571428571428570953 1 
	0.3630952380952380265 1 0.3690476190476190133 1 0.3809523809523809312 1 0.3869047619047618625 1 0.3928571428571428492 1 
	0.4047619047619047672 1 0.4166666666666666297 1 0.4285714285714285476 1 0.4444444444444444198 1 0.4603174603174602919 1 
	0.476190476190476164 1 0.4801587301587301182 1 0.4821428571428570953 1 0.4841269841269840724 1 0.4920634920634920362 1 
	0.5 1 0.5039682539682539542 1 0.5079365079365079083 1 0.5238095238095237249 1 0.5357142857142855874 1 
	0.5476190476190475609 1 0.5595238095238095344 1 0.5714285714285713969 1 0.5833333333333332593 1 0.5892857142857141906 1 
	0.5952380952380951218 1 0.601190476190476053 1 0.6071428571428569843 1 0.6130952380952379155 1 0.6160714285714283811 1 
	0.616815476190476053 1 0.6175595238095237249 1 0.6190476190476189577 1 0.6349206349206348854 1 0.650793650793650702 1 
	0.6666666666666666297 1 0.6785714285714286031 1 0.6904761904761904656 1 0.7023809523809523281 1 0.7142857142857141906 1 
	0.7321428571428569843 1 0.749999999999999889 1 0.7678571428571427937 1 0.7767857142857141906 1 0.7857142857142855874 1 
	0.7976190476190474499 1 0.8095238095238094234 1 0.8214285714285713969 1 0.8333333333333332593 1 0.8452380952380951218 1 
	0.851190476190476053 1 0.8571428571428570953 1 0.875 1 0.8928571428571427937 1 0.9107142857142856984 1 
	0.9285714285714286031 1 0.9464285714285713969 1 0.9642857142857143016 1 0.9821428571428572063 1 0.9866071428571429047 1 
	0.9910714285714286031 1 0.9955357142857143016 1 0.9977678571428572063 1 0.9988839285714286031 1 0.9994419642857143016 1 
	0.9997209821428572063 1 0.9998604910714286031 1 0.9999302455357143016 1 1 3 
	0 3 1 3 
	9531.797571144683388 4435.642827940315328 13999.99999562377525 
	9531.797571144683388 4435.642827940728239 14000.58436925731621 
	9531.797571144816175 4435.640778887441229 14001.75311651034463 
	9531.797571144943504 4435.628485513927444 14004.09058235838347 
	9531.797571145558322 4435.585456366933613 14008.18099638487001 
	9531.797571147586495 4435.413362038192645 14016.36061945958136 
	9531.797571155870173 4434.725007349677981 14032.71020076058812 
	9531.79757118229827 4431.973758271685256 14065.33220812805666 
	9531.797571268834872 4424.130735354083299 14111.49416436787942 
	9531.79757133946805 4408.575745263661702 14165.48641653389132 
	9531.797571417524523 4387.073458639350065 14217.39754559533685 
	9531.797571477671227 4359.894202246122404 14266.57485954745425 
	9531.79757154062645 4332.798640542128851 14304.76217553318384 
	9531.797571557530318 4308.659404804840051 14333.34804249245462 
	9531.797571574164976 4282.956029877915171 14360.53612933460863 
	9531.797571621329553 4249.594176063324994 14390.35008719112011 
	9531.79757166168929 4207.366011489501034 14420.70989819057468 
	9531.797571682984199 4164.126536383409984 14445.67406518632924 
	9531.797571699291439 4122.408885748837747 14464.49792443210754 
	9531.797571719795087 4083.157831142087161 14478.23205124239576 
	9531.797571736628015 4047.007056989026296 14487.91901389230043 
	9531.797571744278684 4010.233422083368623 14494.87627203438024 
	9531.797571761824656 3960.645758965903042 14500.46526687337973 
	9531.797571777877238 3910.639772134044051 14500.46525725570609 
	9531.797571792192684 3861.052100735239947 14494.87628748517818 
	9531.797571803073879 3824.278489540649844 14487.91895992365244 
	9531.797571811552189 3788.127664723980615 14478.2320975945986 
	9531.797571820847224 3761.633284214809009 14468.96141321145478 
	9531.797571821996826 3744.289879594353806 14461.96673489573914 
	9531.797571822597092 3732.816812620412747 14457.08828035428633 
	9531.797571824494298 3718.65028949983207 14450.58952618581679 
	9531.797571826484273 3701.953966951431994 14442.16080284198688 
	9531.797571827974025 3680.127919840330378 14430.09806850122004 
	9531.797571835249983 3659.001546696011246 14416.82348854567681 
	9531.797571835862982 3638.663428120833032 14402.39273287404649 
	9531.797571837401847 3623.825137385901144 14391.00696234623501 
	9531.797571838787917 3609.422999034846725 14379.07427335307511 
	9531.797571839926604 3590.828386957713064 14362.45722762160221 
	9531.797571844466802 3573.18555902410435 14344.8144182339438 
	9531.797571845461789 3556.568518826641139 14326.21980022650678 
	9531.797571846531355 3540.658244883004045 14307.01697207051802 
	9531.797571850627719 3522.137844769784351 14281.92291505214416 
	9531.797571851857356 3502.226126116246178 14250.23326619882209 
	9531.797571855193382 3482.794727311889346 14213.4678593894605 
	9531.797571858054653 3465.016896975842883 14171.29386034465642 
	9531.79757185946255 3450.300372663446979 14123.58338117844505 
	9531.797571862134646 3442.880523006130716 14086.87943320908562 
	9531.79757186243296 3439.755984480371353 14064.23671736129836 
	9531.797571862462064 3438.773944950028636 14055.98368700085302 
	9531.79757186250572 3437.455341870068878 14043.58673631438251 
	9531.797571862733093 3436.057456574555545 14024.93327705533011 
	9531.797571862787663 3435.539276426565266 14004.15554740498737 
	9531.797571862780387 3435.746565126634323 13987.53336881934956 
	9531.797571862762197 3436.678779476077125 13962.61558231906929 
	9531.797571861841789 3439.992817165929864 13929.49528191506579 
	9531.797571860639437 3447.724182803839085 13888.63574771683489 
	9531.797571859327945 3457.410634712382944 13852.48492381476535 
	9531.797571857612638 3469.771752995989118 13817.15908872578439 
	9531.797571855915521 3484.738095524407072 13782.85574576687213 
	9531.797571853652698 3499.31151362976243 13755.28163751647662 
	9531.797571852939654 3512.182041964853852 13733.92197679107267 
	9531.797571852212059 3522.427123523236787 13718.2743289108239 
	9531.797571851415341 3533.250153129461978 13703.02071669311954 
	9531.797571850618624 3544.635951548767935 13688.18244844537003 
	9531.797571849694577 3554.579839597798127 13676.18065101009779 
	9531.797571849408996 3561.258743356603645 13668.56482901008894 
	9531.797571849354426 3564.382053678779357 13665.08624099035296 
	9531.797571849367159 3566.475081731413866 13662.77694411742414 
	9531.797571848510415 3579.305925803036189 13648.81819464519867 
	9531.797571839053489 3604.251027370169595 13624.48747767809436 
	9531.797571835311828 3643.286641379009779 13593.35732666099284 
	9531.797571826880812 3681.732843556647367 13568.52614376368911 
	9531.797571818420693 3718.498508693998247 13549.09524642132601 
	9531.797571814990079 3752.801757649950105 13534.12867571255993 
	9531.797571804567269 3788.12767103079841 13521.76782339740203 
	9531.797571796752891 3830.303546360407381 13510.46643379694433 
	9531.797571774193784 3879.542888040155958 13502.10012020538488 
	9531.797571755583704 3935.642785431888115 13498.94963647709119 
	9531.797571730114214 3982.392591505039036 13501.57525815387453 
	9531.797571722792782 4019.439816979840543 13506.80585106362196 
	9531.797571714581863 4050.019607833603004 13512.88836539862496 
	9531.797571702440109 4083.157857369419617 13521.76776287908615 
	9531.797571692355632 4118.483736668556958 13534.12873103296988 
	9531.797571680994224 4152.78703791402495 13549.09520336326932 
	9531.797571665623764 4185.876017287624563 13566.58321891329797 
	9531.797571645467542 4212.283988075227171 13583.17646209683517 
	9531.797571639563103 4232.622064033780589 13597.60726709096889 
	9531.797571631010214 4257.352691118754592 13616.58338051689498 
	9531.797571577903 4289.938800531563174 13645.70389034125583 
	9531.797571528521075 4327.379589591198055 13687.60027956245176 
	9531.797571463879649 4359.894119226293697 13733.42516714317389 
	9531.797571402037647 4387.073429300115095 13782.60243749457368 
	9531.797571324388628 4408.575705413415562 13834.5135842560303 
	9531.797571259543474 4424.130665655884513 13888.50583415376605 
	9531.797571172293829 4431.189448867686224 13930.05158727000162 
	9531.797571160252119 4433.938882587549415 13957.96922569665185 
	9531.79757115458051 4434.921721161412279 13971.96109316977891 
	9531.797571147621056 4435.413350683596036 13983.63937352513858 
	9531.797571145541951 4435.585458515450227 13991.81899453832011 
	9531.797571144903486 4435.628485160292257 13995.90940894372579 
	9531.797571144745234 4435.639242295504118 13997.95469149473865 
	9531.797571144701578 4435.641931516974182 13998.97734221457904 
	9531.797571144690664 4435.642603836155104 13999.48866875039857 
	9531.797571144683388 4435.642795923688936 13999.78085551097502 
	9531.797571144681569 4435.642827940263487 13999.92694891958126 
	9531.797571144683388 4435.642827940315328 13999.99999562377525 
	9615.130904478017328 4435.642827940314419 13999.99999562377525 
	9615.130904478017328 4435.642827940727329 14000.58436925731621 
	9615.130904478150114 4435.64077888744032 14001.75311651034463 
	9615.130904478277444 4435.628485513926535 14004.09058235838347 
	9615.130904478892262 4435.585456366932704 14008.18099638487001 
	9615.130904480920435 4435.413362038191735 14016.36061945958136 
	9615.130904489204113 4434.725007349677071 14032.71020076058812 
	9615.13090451563221 4431.973758271684346 14065.33220812805666 
	9615.130904602168812 4424.13073535408239 14111.49416436787942 
	9615.130904672801989 4408.575745263660792 14165.48641653389132 
	9615.130904750858463 4387.073458639349155 14217.39754559533685 
	9615.130904811005166 4359.894202246121495 14266.57485954745425 
	9615.13090487396039 4332.798640542127941 14304.76217553318384 
	9615.130904890864258 4308.659404804839141 14333.34804249245462 
	9615.130904907498916 4282.956029877914261 14360.53612933460863 
	9615.130904954663492 4249.594176063324085 14390.35008719112011 
	9615.130904995023229 4207.366011489500124 14420.70989819057468 
	9615.130905016318138 4164.126536383409075 14445.67406518632924 
	9615.130905032625378 4122.408885748836838 14464.49792443210754 
	9615.130905053129027 4083.157831142086707 14478.23205124239576 
	9615.130905069961955 4047.007056989025841 14487.91901389230043 
	9615.130905077612624 4010.233422083368168 14494.87627203438024 
	9615.130905095158596 3960.645758965902587 14500.46526687337973 
	9615.130905111211177 3910.639772134043596 14500.46525725570609 
	9615.130905125526624 3861.052100735239492 14494.87628748517818 
	9615.130905136407819 3824.278489540649389 14487.91895992365244 
	9615.130905144886128 3788.12766472398016 14478.2320975945986 
	9615.130905154181164 3761.633284214808555 14468.96141321145478 
	9615.130905155330765 3744.289879594353351 14461.96673489573914 
	9615.130905155931032 3732.816812620412293 14457.08828035428633 
	9615.130905157828238 3718.650289499831615 14450.58952618581679 
	9615.130905159818212 3701.953966951431539 14442.16080284198688 
	9615.130905161307965 3680.127919840329923 14430.09806850122004 
	9615.130905168583922 3659.001546696010791 14416.82348854567681 
	9615.130905169196922 3638.663428120832577 14402.39273287404649 
	9615.130905170735787 3623.825137385900689 14391.00696234623501 
	9615.130905172121857 3609.422999034846271 14379.07427335307511 
	9615.130905173260544 3590.82838695771261 14362.45722762160221 
	9615.130905177800742 3573.185559024103895 14344.8144182339438 
	9615.130905178795729 3556.568518826640684 14326.21980022650678 
	9615.130905179865294 3540.65824488300359 14307.01697207051802 
	9615.130905183961659 3522.137844769783896 14281.92291505214416 
	9615.130905185191295 3502.226126116245723 14250.23326619882209 
	9615.130905188527322 3482.794727311888892 14213.4678593894605 
	9615.130905191388592 3465.016896975842428 14171.29386034465642 
	9615.13090519279649 3450.300372663446524 14123.58338117844505 
	9615.130905195468586 3442.880523006130261 14086.87943320908562 
	9615.1309051957669 3439.755984480370898 14064.23671736129836 
	9615.130905195796004 3438.773944950028181 14055.98368700085302 
	9615.130905195839659 3437.455341870068423 14043.58673631438251 
	9615.130905196067033 3436.05745657455509 14024.93327705533011 
	9615.130905196121603 3435.539276426564811 14004.15554740498737 
	9615.130905196114327 3435.746565126633868 13987.53336881934956 
	9615.130905196096137 3436.67877947607667 13962.61558231906929 
	9615.130905195175728 3439.992817165929409 13929.49528191506579 
	9615.130905193973376 3447.72418280383863 13888.63574771683489 
	9615.130905192661885 3457.410634712382489 13852.48492381476535 
	9615.130905190946578 3469.771752995988663 13817.15908872578439 
	9615.130905189249461 3484.738095524406617 13782.85574576687213 
	9615.130905186986638 3499.311513629761976 13755.28163751647662 
	9615.130905186273594 3512.182041964853397 13733.92197679107267 
	9615.130905185545998 3522.427123523236332 13718.2743289108239 
	9615.130905184749281 3533.250153129461523 13703.02071669311954 
	9615.130905183952564 3544.63595154876748 13688.18244844537003 
	9615.130905183028517 3554.579839597797672 13676.18065101009779 
	9615.130905182742936 3561.25874335660319 13668.56482901008894 
	9615.130905182688366 3564.382053678778902 13665.08624099035296 
	9615.130905182701099 3566.475081731413411 13662.77694411742414 
	9615.130905181844355 3579.305925803035734 13648.81819464519867 
	9615.130905172387429 3604.25102737016914 13624.48747767809436 
	9615.130905168645768 3643.286641379009325 13593.35732666099284 
	9615.130905160214752 3681.732843556646912 13568.52614376368911 
	9615.130905151754632 3718.498508693997792 13549.09524642132601 
	9615.130905148324018 3752.80175764994965 13534.12867571255993 
	9615.130905137901209 3788.127671030797956 13521.76782339740203 
	9615.13090513008683 3830.303546360406926 13510.46643379694433 
	9615.130905107527724 3879.542888040155503 13502.10012020538488 
	9615.130905088917643 3935.64278543188766 13498.94963647709119 
	9615.130905063448154 3982.392591505038581 13501.57525815387453 
	9615.130905056126721 4019.439816979840089 13506.80585106362196 
	9615.130905047915803 4050.019607833602549 13512.88836539862496 
	9615.130905035774049 4083.157857369419162 13521.76776287908615 
	9615.130905025689572 4118.483736668556048 13534.12873103296988 
	9615.130905014328164 4152.78703791402404 13549.09520336326932 
	9615.130904998957703 4185.876017287623654 13566.58321891329797 
	9615.130904978801482 4212.283988075226262 13583.17646209683517 
	9615.130904972897042 4232.622064033779679 13597.60726709096889 
	9615.130904964344154 4257.352691118753683 13616.58338051689498 
	9615.130904911236939 4289.938800531562265 13645.70389034125583 
	9615.130904861855015 4327.379589591197146 13687.60027956245176 
	9615.130904797213589 4359.894119226292787 13733.42516714317389 
	9615.130904735371587 4387.073429300114185 13782.60243749457368 
	9615.130904657722567 4408.575705413414653 13834.5135842560303 
	9615.130904592877414 4424.130665655883604 13888.50583415376605 
	9615.130904505627768 4431.189448867685314 13930.05158727000162 
	9615.130904493586058 4433.938882587548505 13957.96922569665185 
	9615.130904487914449 4434.921721161411369 13971.96109316977891 
	9615.130904480954996 4435.413350683595127 13983.63937352513858 
	9615.130904478875891 4435.585458515449318 13991.81899453832011 
	9615.130904478237426 4435.628485160291348 13995.90940894372579 
	9615.130904478079174 4435.639242295503209 13997.95469149473865 
	9615.130904478035518 4435.641931516973273 13998.97734221457904 
	9615.130904478024604 4435.642603836154194 13999.48866875039857 
	9615.130904478017328 4435.642795923688027 13999.78085551097502 
	9615.130904478015509 4435.642827940262578 13999.92694891958126 
	9615.130904478017328 4435.642827940314419 13999.99999562377525 
	9698.464237791138657 4435.64282794031169 13999.99999562377525 
	9698.464237791140476 4435.642827940724601 14000.58436925731621 
	9698.464237791275082 4435.64077888743941 14001.75311651034463 
	9698.464237791406049 4435.628485513925625 14004.09058235838347 
	9698.464237792035419 4435.585456366930885 14008.18099638487001 
	9698.464237794118162 4435.413362038189916 14016.36061945958136 
	9698.4642378026183 4434.725007349674343 14032.71020076058812 
	9698.464237829741251 4431.973758271682527 14065.33220812805666 
	9698.464237918542494 4424.130735354080571 14111.49416436787942 
	9698.464237991027403 4408.575745263658973 14165.48641653389132 
	9698.464238071132058 4387.073458639348246 14217.39754559533685 
	9698.464238132855826 4359.894202246119676 14266.57485954745425 
	9698.464238197462691 4332.798640542127032 14304.76217553318384 
	9698.464238214808574 4308.659404804838232 14333.34804249245462 
	9698.464238231881609 4282.956029877913352 14360.53612933460863 
	9698.464238280283098 4249.594176063324085 14390.35008719112011 
	9698.464238321701487 4207.366011489500124 14420.70989819057468 
	9698.464238343554825 4164.126536383408165 14445.67406518632924 
	9698.464238360289528 4122.408885748836838 14464.49792443210754 
	9698.464238381333416 4083.157831142086252 14478.23205124239576 
	9698.46423839860654 4047.007056989025841 14487.91901389230043 
	9698.464238406459117 4010.233422083368168 14494.87627203438024 
	9698.464238424465293 3960.645758965902587 14500.46526687337973 
	9698.46423844093988 3910.639772134043142 14500.46525725570609 
	9698.464238455631858 3861.052100735239947 14494.87628748517818 
	9698.464238466796814 3824.278489540649389 14487.91895992365244 
	9698.464238475495222 3788.127664723980615 14478.2320975945986 
	9698.464238485034002 3761.633284214809009 14468.96141321145478 
	9698.464238486212707 3744.289879594353806 14461.96673489573914 
	9698.464238486829345 3732.816812620412747 14457.08828035428633 
	9698.464238488777482 3718.650289499831615 14450.58952618581679 
	9698.464238490818389 3701.953966951431539 14442.16080284198688 
	9698.46423849234634 3680.127919840329014 14430.09806850122004 
	9698.46423849981511 3659.001546696009427 14416.82348854567681 
	9698.464238500442661 3638.663428120831213 14402.39273287404649 
	9698.464238502025182 3623.825137385899325 14391.00696234623501 
	9698.464238503445813 3609.422999034844452 14379.07427335307511 
	9698.464238504613604 3590.828386957711245 14362.45722762160221 
	9698.464238509273855 3573.185559024101622 14344.8144182339438 
	9698.464238510294308 3556.56851882663932 14326.21980022650678 
	9698.464238511391159 3540.658244883001316 14307.01697207051802 
	9698.464238515596662 3522.137844769781623 14281.92291505214416 
	9698.464238516857222 3502.226126116243449 14250.23326619882209 
	9698.46423852028056 3482.794727311887073 14213.4678593894605 
	9698.464238523218228 3465.016896975840609 14171.29386034465642 
	9698.464238524664324 3450.30037266344516 14123.58338117844505 
	9698.464238527405541 3442.880523006128442 14086.87943320908562 
	9698.464238527711132 3439.755984480369079 14064.23671736129836 
	9698.464238527740235 3438.773944950026817 14055.98368700085302 
	9698.464238527783891 3437.455341870067514 14043.58673631438251 
	9698.464238528016722 3436.057456574553271 14024.93327705533011 
	9698.464238528069473 3435.539276426563447 14004.15554740498737 
	9698.464238528064016 3435.746565126632049 13987.53336881934956 
	9698.464238528044007 3436.678779476074851 13962.61558231906929 
	9698.464238527099951 3439.992817165928045 13929.49528191506579 
	9698.464238525866676 3447.724182803837266 13888.63574771683489 
	9698.464238524520624 3457.410634712381579 13852.48492381476535 
	9698.464238522759842 3469.771752995987299 13817.15908872578439 
	9698.46423852101907 3484.738095524405253 13782.85574576687213 
	9698.46423851869622 3499.311513629760157 13755.28163751647662 
	9698.464238517963167 3512.182041964852033 13733.92197679107267 
	9698.464238517215563 3522.427123523234968 13718.2743289108239 
	9698.464238516398837 3533.250153129459704 13703.02071669311954 
	9698.46423851558211 3544.63595154876657 13688.18244844537003 
	9698.464238514634417 3554.579839597795853 13676.18065101009779 
	9698.464238514341559 3561.258743356601826 13668.56482901008894 
	9698.464238514283352 3564.382053678777993 13665.08624099035296 
	9698.464238514296085 3566.475081731412047 13662.77694411742414 
	9698.464238513417513 3579.30592580303437 13648.81819464519867 
	9698.464238503713204 3604.251027370168231 13624.48747767809436 
	9698.464238499875137 3643.28664137900887 13593.35732666099284 
	9698.464238491222204 3681.732843556646003 13568.52614376368911 
	9698.464238482541987 3718.498508693996882 13549.09524642132601 
	9698.464238479022242 3752.80175764994874 13534.12867571255993 
	9698.464238468324766 3788.127671030797501 13521.76782339740203 
	9698.464238460304841 3830.303546360406472 13510.46643379694433 
	9698.464238437154563 3879.542888040155049 13502.10012020538488 
	9698.464238418055174 3935.64278543188675 13498.94963647709119 
	9698.464238391918116 3982.392591505038126 13501.57525815387453 
	9698.46423838440387 4019.439816979839179 13506.80585106362196 
	9698.464238375978312 4050.019607833602095 13512.88836539862496 
	9698.464238363516415 4083.157857369418707 13521.76776287908615 
	9698.464238353168184 4118.483736668555139 13534.12873103296988 
	9698.464238341508462 4152.78703791402404 13549.09520336326932 
	9698.464238325737824 4185.876017287622744 13566.58321891329797 
	9698.464238305052277 4212.283988075225352 13583.17646209683517 
	9698.464238298993223 4232.622064033776951 13597.60726709096889 
	9698.464238290216599 4257.352691118751864 13616.58338051689498 
	9698.464238235717858 4289.938800531560446 13645.70389034125583 
	9698.464238185040813 4327.379589591196236 13687.60027956245176 
	9698.464238118704088 4359.894119226291878 13733.42516714317389 
	9698.464238055241367 4387.073429300114185 13782.60243749457368 
	9698.464237975556898 4408.575705413412834 13834.5135842560303 
	9698.464237909012809 4424.130665655882694 13888.50583415376605 
	9698.464237819473055 4431.189448867683495 13930.05158727000162 
	9698.464237807114841 4433.938882587546686 13957.96922569665185 
	9698.464237801295894 4434.92172116141046 13971.96109316977891 
	9698.464237794150904 4435.413350683594217 13983.63937352513858 
	9698.464237792019048 4435.585458515447499 13991.81899453832011 
	9698.464237791360574 4435.628485160290438 13995.90940894372579 
	9698.464237791200503 4435.639242295502299 13997.95469149473865 
	9698.464237791155028 4435.641931516972363 13998.97734221457904 
	9698.464237791144114 4435.642603836153285 13999.48866875039857 
	9698.464237791140476 4435.642795923686208 13999.78085551097502 
	9698.464237791138657 4435.642827940259849 13999.92694891958126 
	9698.464237791138657 4435.64282794031169 13999.99999562377525 
	9781.797571124472597 4435.64282794031169 13999.99999562377525 
	9781.797571124474416 4435.642827940724601 14000.58436925731621 
	9781.797571124609021 4435.64077888743941 14001.75311651034463 
	9781.797571124739989 4435.628485513925625 14004.09058235838347 
	9781.797571125369359 4435.585456366930885 14008.18099638487001 
	9781.797571127452102 4435.413362038189916 14016.36061945958136 
	9781.797571135952239 4434.725007349674343 14032.71020076058812 
	9781.79757116307519 4431.973758271682527 14065.33220812805666 
	9781.797571251876434 4424.130735354080571 14111.49416436787942 
	9781.797571324361343 4408.575745263658973 14165.48641653389132 
	9781.797571404465998 4387.073458639348246 14217.39754559533685 
	9781.797571466189765 4359.894202246119676 14266.57485954745425 
	9781.797571530796631 4332.798640542127032 14304.76217553318384 
	9781.797571548142514 4308.659404804838232 14333.34804249245462 
	9781.797571565215549 4282.956029877913352 14360.53612933460863 
	9781.797571613617038 4249.594176063324085 14390.35008719112011 
	9781.797571655035426 4207.366011489500124 14420.70989819057468 
	9781.797571676888765 4164.126536383408165 14445.67406518632924 
	9781.797571693623468 4122.408885748836838 14464.49792443210754 
	9781.797571714667356 4083.157831142085797 14478.23205124239576 
	9781.797571731940479 4047.007056989025386 14487.91901389230043 
	9781.797571739793057 4010.233422083367714 14494.87627203438024 
	9781.797571757799233 3960.645758965902132 14500.46526687337973 
	9781.79757177427382 3910.639772134042687 14500.46525725570609 
	9781.797571788965797 3861.052100735239492 14494.87628748517818 
	9781.797571800130754 3824.278489540648934 14487.91895992365244 
	9781.797571808829161 3788.12766472398016 14478.2320975945986 
	9781.797571818367942 3761.633284214808555 14468.96141321145478 
	9781.797571819546647 3744.289879594353351 14461.96673489573914 
	9781.797571820163284 3732.816812620412293 14457.08828035428633 
	9781.797571822111422 3718.65028949983116 14450.58952618581679 
	9781.797571824152328 3701.953966951431084 14442.16080284198688 
	9781.797571825680279 3680.127919840328559 14430.09806850122004 
	9781.79757183314905 3659.001546696008973 14416.82348854567681 
	9781.797571833776601 3638.663428120830758 14402.39273287404649 
	9781.797571835359122 3623.82513738589887 14391.00696234623501 
	9781.797571836779753 3609.422999034843997 14379.07427335307511 
	9781.797571837947544 3590.828386957710791 14362.45722762160221 
	9781.797571842607795 3573.185559024101167 14344.8144182339438 
	9781.797571843628248 3556.568518826638865 14326.21980022650678 
	9781.797571844725098 3540.658244883000862 14307.01697207051802 
	9781.797571848930602 3522.137844769781168 14281.92291505214416 
	9781.797571850191162 3502.226126116242995 14250.23326619882209 
	9781.7975718536145 3482.794727311886618 14213.4678593894605 
	9781.797571856552167 3465.016896975840154 14171.29386034465642 
	9781.797571857998264 3450.300372663444705 14123.58338117844505 
	9781.797571860739481 3442.880523006127987 14086.87943320908562 
	9781.797571861045071 3439.755984480368625 14064.23671736129836 
	9781.797571861074175 3438.773944950026362 14055.98368700085302 
	9781.797571861117831 3437.455341870067059 14043.58673631438251 
	9781.797571861350661 3436.057456574552816 14024.93327705533011 
	9781.797571861403412 3435.539276426562992 14004.15554740498737 
	9781.797571861397955 3435.746565126631594 13987.53336881934956 
	9781.797571861377946 3436.678779476074396 13962.61558231906929 
	9781.797571860433891 3439.99281716592759 13929.49528191506579 
	9781.797571859200616 3447.724182803836811 13888.63574771683489 
	9781.797571857854564 3457.410634712381125 13852.48492381476535 
	9781.797571856093782 3469.771752995986844 13817.15908872578439 
	9781.797571854353009 3484.738095524404798 13782.85574576687213 
	9781.79757185203016 3499.311513629759702 13755.28163751647662 
	9781.797571851297107 3512.182041964851578 13733.92197679107267 
	9781.797571850549502 3522.427123523234513 13718.2743289108239 
	9781.797571849732776 3533.25015312945925 13703.02071669311954 
	9781.79757184891605 3544.635951548766116 13688.18244844537003 
	9781.797571847968356 3554.579839597795399 13676.18065101009779 
	9781.797571847675499 3561.258743356601371 13668.56482901008894 
	9781.797571847617291 3564.382053678777538 13665.08624099035296 
	9781.797571847630024 3566.475081731411592 13662.77694411742414 
	9781.797571846751453 3579.305925803033915 13648.81819464519867 
	9781.797571837047144 3604.251027370167776 13624.48747767809436 
	9781.797571833209076 3643.286641379008415 13593.35732666099284 
	9781.797571824556144 3681.732843556645548 13568.52614376368911 
	9781.797571815875926 3718.498508693996428 13549.09524642132601 
	9781.797571812356182 3752.801757649948286 13534.12867571255993 
	9781.797571801658705 3788.127671030797046 13521.76782339740203 
	9781.797571793638781 3830.303546360406017 13510.46643379694433 
	9781.797571770488503 3879.542888040154594 13502.10012020538488 
	9781.797571751389114 3935.642785431886296 13498.94963647709119 
	9781.797571725252055 3982.392591505037672 13501.57525815387453 
	9781.79757171773781 4019.439816979838724 13506.80585106362196 
	9781.797571709312251 4050.01960783360164 13512.88836539862496 
	9781.797571696850355 4083.157857369418252 13521.76776287908615 
	9781.797571686502124 4118.483736668555139 13534.12873103296988 
	9781.797571674842402 4152.78703791402404 13549.09520336326932 
	9781.797571659071764 4185.876017287622744 13566.58321891329797 
	9781.797571638386216 4212.283988075225352 13583.17646209683517 
	9781.797571632327163 4232.622064033776951 13597.60726709096889 
	9781.797571623550539 4257.352691118751864 13616.58338051689498 
	9781.797571569051797 4289.938800531560446 13645.70389034125583 
	9781.797571518374752 4327.379589591196236 13687.60027956245176 
	9781.797571452038028 4359.894119226291878 13733.42516714317389 
	9781.797571388575307 4387.073429300114185 13782.60243749457368 
	9781.797571308890838 4408.575705413412834 13834.5135842560303 
	9781.797571242346748 4424.130665655882694 13888.50583415376605 
	9781.797571152806995 4431.189448867683495 13930.05158727000162 
	9781.797571140448781 4433.938882587546686 13957.96922569665185 
	9781.797571134629834 4434.92172116141046 13971.96109316977891 
	9781.797571127484844 4435.413350683594217 13983.63937352513858 
	9781.797571125352988 4435.585458515447499 13991.81899453832011 
	9781.797571124694514 4435.628485160290438 13995.90940894372579 
	9781.797571124534443 4435.639242295502299 13997.95469149473865 
	9781.797571124488968 4435.641931516972363 13998.97734221457904 
	9781.797571124478054 4435.642603836153285 13999.48866875039857 
	9781.797571124474416 4435.642795923686208 13999.78085551097502 
	9781.797571124472597 4435.642827940259849 13999.92694891958126 
	9781.797571124472597 4435.64282794031169 13999.99999562377525 
	0 
	
	0 
	0 
	102 0 0.0005580357142857142547 0.001116071428571428509 0.002232142857142857019 0.004464285714285714038 0.008928571428571428076 0.01785714285714285615 0.0357142857142857123 0.05357142857142856845 0.07142857142857142461 0.08928571428571427382 0.1071428571428571369 0.1160714285714285754 0.125 0.1428571428571428492 0.1587301587301587213 0.1746031746031745935 0.1904761904761904656 0.2023809523809523836 0.2142857142857142738 0.226190476190476164 0.238095238095238082 0.2619047619047618625 0.2738095238095237804 0.2857142857142856984 0.2976190476190476164 0.3095238095238095344 0.3125 0.3154761904761904656 0.3214285714285713969 0.3273809523809523281 0.3333333333333333148 0.3452380952380952328 0.351190476190476164 0.3571428571428570953 0.3630952380952380265 0.3690476190476190133 0.3809523809523809312 0.3869047619047618625 0.3928571428571428492 0.4047619047619047672 0.4166666666666666297 0.4285714285714285476 0.4444444444444444198 0.4603174603174602919 0.476190476190476164 0.4801587301587301182 0.4821428571428570953 0.4841269841269840724 0.4920634920634920362 0.5 0.5039682539682539542 0.5079365079365079083 0.5238095238095237249 0.5357142857142855874 0.5476190476190475609 0.5595238095238095344 0.5714285714285713969 0.5833333333333332593 0.5892857142857141906 0.5952380952380951218 0.601190476190476053 0.6071428571428569843 0.6130952380952379155 0.6160714285714283811 0.616815476190476053 0.6175595238095237249 0.6190476190476189577 0.6349206349206348854 0.650793650793650702 0.6666666666666666297 0.6785714285714286031 0.6904761904761904656 0.7023809523809523281 0.7142857142857141906 0.7321428571428569843 0.749999999999999889 0.7678571428571427937 0.7767857142857141906 0.7857142857142855874 0.7976190476190474499 0.8095238095238094234 0.8214285714285713969 0.8333333333333332593 0.8452380952380951218 0.851190476190476053 0.8571428571428570953 0.875 0.8928571428571427937 0.9107142857142856984 0.9285714285714286031 0.9464285714285713969 0.9642857142857143016 0.9821428571428572063 0.9866071428571429047 0.9910714285714286031 0.9977678571428572063 0.9988839285714286031 0.9994419642857143016 0.9997209821428572063 0.9998604910714286031 0.9999302455357143016 
	0 
	0 
	0 
	F 1 F 0 F 1 F 0 } I I I I #
tcoedge-coedge $-1 -1 $-1 $14 $14 $18 $19 reversed $9 $20 -6.283185307179586232 -0 #
tcoedge-coedge $-1 -1 $-1 $21 $22 $11 $16 reversed $12 $23 -6.283185307179586232 -0 #
tedge-edge $-1 -1 $-1 $24 0 $24 6.283185307179586232 $15 $25 forward @7 unknown 0.0004864609776213529857 #
pcurve $-1 -1 $-1 0 forward { exppc nurbs 2 periodic 5 
	0 2 1.570796326794896558 2 3.141592653589793116 2 4.712388980384689674 2 6.283185307179586232 2 
	0 500 1 
	-500 500 0.707106781186543798 
	-500 0 1 
	-500 -500 0.7071067811865463515 
	0 -500 1 
	500 -500 0.7071067811865463515 
	500 0 1 
	500 500 0.707106781186543798 
	0 500 1 
	0 
	plane 9781.79757191538738 3935.642797989782594 14000.00000000000182 1 -3.637978807091713027e-15 0 0 0 -1 forward_v I I I I 
	} 0 0 #
tcoedge-coedge $-1 -1 $-1 $22 $21 $14 $19 forward $12 $26 0 6.283185307179586232 #
tedge-edge $-1 -1 $-1 $27 0 $27 6.283185307179586232 $18 $28 forward @7 unknown 0.0004864609764630195739 #
pcurve $-1 -1 $-1 0 forward { exppc nurbs 2 periodic 5 
	-6.283185307179586232 2 -4.712388980384689674 2 -3.141592653589793116 2 -1.570796326794896558 2 0 2 
	0 500 1 
	500 500 0.707106781186543798 
	500 0 1 
	500 -500 0.7071067811865463515 
	0 -500 1 
	-500 -500 0.7071067811865463515 
	-500 0 1 
	-500 500 0.707106781186543798 
	0 500 1 
	0 
	plane 9531.79757191538738 3935.642797989783503 14000.00000000000182 -1 3.637978807091713027e-15 -0 0 0 -1 reverse_v I I I I 
	} 0 0 #
coedge $-1 -1 $-1 $18 $15 $22 $29 reversed $12 $30 #
coedge $-1 -1 $-1 $15 $18 $21 $29 forward $12 $31 #
pcurve $-1 -1 $-1 0 forward { exppc nubs 1 periodic 2 
	-6.283185307179586232 1 -0 1 
	1 1 
	0 1 
	2.726396620975368931e-13 
	spline forward { ref 0 } I I I I 
	} 0 0 #
tvertex-vertex $-1 -1 $-1 $16 $32 3.02788987056014643e-05 #
ellipse-curve $-1 -1 $-1 9781.79757191538738 3935.642797989782594 14000.00000000000182 1 -3.637978807091713027e-15 0 1.818989403545856476e-12 500 0 1 I I #
pcurve $-1 -1 $-1 0 forward { exppc nubs 1 periodic 2 
	0 1 6.283185307179586232 1 
	0 0 
	1 0 
	4.4114023995510105e-13 
	spline forward { ref 0 } I I I I 
	} 0 0 #
tvertex-vertex $-1 -1 $-1 $19 $33 3.027838021804007027e-05 #
ellipse-curve $-1 -1 $-1 9531.79757191538738 3935.642797989783503 14000.00000000000182 1 -3.637978807091713027e-15 0 1.818989403545856476e-12 500 0 1 I I #
edge $-1 -1 $-1 $27 0 $24 1 $22 $34 forward @7 tangent #
pcurve $-1 -1 $-1 -1 $34 0 0 #
pcurve $-1 -1 $-1 1 $34 1 0 #
point $-1 -1 $-1 9781.797571915389199 4435.642797989782594 14000.00000000000182 #
point $-1 -1 $-1 9531.797571915389199 4435.642797989783503 14000.00000000000182 #
intcurve-curve $-1 -1 $-1 forward { parcur full nubs 3 open 2 
	0 3 1 3 
	9531.797571144683388 4435.642827940315328 13999.99999562377525 
	9615.130904478017328 4435.642827940314419 13999.99999562377525 
	9698.464237791138657 4435.64282794031169 13999.99999562377525 
	9781.797571124472597 4435.64282794031169 13999.99999562377525 
	0 
	
	spline forward { ref 0 } I I I I 
	null_surface 
	nubs 1 open 2 
	0 1 1 1 
	0 0 
	0 1 
	
	nullbs 
	I I 
	0 
	0 
	0 
	surf1 } I I #
End-of-ACIS-data 