700 0 1 0           
4 LibG 20 ASM 224.0.1.65535 NT 24 Wed Jul 17 12:52:14 2019 
1000 9.999999999999999547e-07 1.000000000000000036e-10 
body $-1 -1 $-1 $1 $-1 $2 #
lump $-1 -1 $-1 $-1 $3 $0 #
transform $-1 -1 1 0 0 0 1 0 0 0 1 0 0 0 1 no_rotate no_reflect no_shear #
shell $-1 -1 $-1 $-1 $-1 $4 $-1 $1 #
face $-1 -1 $-1 $5 $6 $3 $-1 $7 forward single #
face $-1 -1 $-1 $8 $9 $3 $-1 $10 reversed single #
loop $-1 -1 $-1 $-1 $11 $4 #
plane-surface $-1 -1 $-1 16281.79757191538738 3935.642797989758947 14000.00000000000182 1 -3.637978807091713027e-15 0 0 0 -1 forward_v I I I I #
face $-1 -1 $-1 $-1 $12 $3 $-1 $13 forward single #
loop $-1 -1 $-1 $-1 $14 $5 #
plane-surface $-1 -1 $-1 16031.79757191538738 3935.642797989759856 14000.00000000000182 1 -3.637978807091713027e-15 0 0 0 -1 forward_v I I I I #
tcoedge-coedge $-1 -1 $-1 $11 $11 $15 $16 forward $6 $17 0 6.283185307179586232 #
loop $-1 -1 $-1 $-1 $18 $8 #
spline-surface $-1 -1 $-1 forward { exactsur full nubs 3 3 periodic open none none 84 2 
	0 3 0.001116071428571428509 1 0.002232142857142857019 1 0.004464285714285714038 1 0.008928571428571428076 1 
	0.01785714285714285615 1 0.02678571428571428423 1 0.0357142857142857123 1 0.05357142857142856845 1 0.07142857142857142461 1 
	0.08928571428571427382 1 0.1071428571428571369 1 0.125 1 0.1428571428571428492 1 0.1587301587301587213 1 
	0.1825396825396825295 1 0.1904761904761904656 1 0.2023809523809523836 1 0.2142857142857142738 1 0.238095238095238082 1 
	0.2619047619047618625 1 0.2857142857142856984 1 0.2976190476190476164 1 0.3095238095238095344 1 0.3214285714285713969 1 
	0.3333333333333333148 1 0.3392857142857143016 1 0.3452380952380952328 1 0.3571428571428570953 1 0.3630952380952380265 1 
	0.3690476190476190133 1 0.3809523809523809312 1 0.3928571428571428492 1 0.4047619047619047672 1 0.4166666666666666297 1 
	0.4285714285714285476 1 0.4444444444444444198 1 0.4603174603174602919 1 0.476190476190476164 1 0.4781746031746031411 1 
	0.4791666666666666297 1 0.4801587301587301182 1 0.4841269841269840724 1 0.4920634920634920362 1 0.5 1 
	0.5039682539682539542 1 0.5079365079365079083 1 0.5238095238095237249 1 0.5476190476190475609 1 0.5595238095238095344 1 
	0.5654761904761904656 1 0.5714285714285713969 1 0.5952380952380951218 1 0.6190476190476189577 1 0.6349206349206348854 1 
	0.650793650793650702 1 0.6666666666666666297 1 0.6904761904761904656 1 0.7142857142857141906 1 0.7321428571428569843 1 
	0.749999999999999889 1 0.7678571428571427937 1 0.7857142857142855874 1 0.8095238095238094234 1 0.8214285714285713969 1 
	0.8333333333333332593 1 0.8452380952380951218 1 0.8571428571428570953 1 0.875 1 0.8928571428571427937 1 
	0.9107142857142856984 1 0.9285714285714286031 1 0.9464285714285713969 1 0.9642857142857143016 1 0.9732142857142858094 1 
	0.9821428571428572063 1 0.9910714285714286031 1 0.9955357142857143016 1 0.9977678571428572063 1 0.9988839285714286031 1 
	0.9994419642857143016 1 0.9997209821428572063 1 0.9998604910714286031 1 1 3 
	0 3 1 3 
	16031.79757183724359 4435.642811402273765 14000.00005032933768 
	16031.79757183723268 4435.642811400796745 14001.16879758405594 
	16031.79757183729816 4435.634615498818675 14003.506291992353 
	16031.79757183734546 4435.585441292472751 14008.18105094708699 
	16031.79757183760012 4435.413337394682458 14016.36067216395531 
	16031.79757183843503 4434.725033917200562 14032.71025647152237 
	16031.79757184109803 4432.75965024053221 14056.01165819154812 
	16031.7975718435755 4428.836871684410653 14083.79706632324087 
	16031.79757184633127 4421.537984178195074 14120.49285248799788 
	16031.79757185523704 4408.575844995933039 14165.4864189350883 
	16031.79757186248207 4387.073367336810406 14217.39745876456254 
	16031.79757187053656 4359.894195381234567 14266.57481305259353 
	16031.79757187717587 4327.379474175786527 14312.39940467878478 
	16031.79757188475378 4289.939024448341115 14354.29630054070367 
	16031.79757188678013 4249.593978998756938 14390.34957324234165 
	16031.79757189125849 4200.610233715708091 14425.56875997200041 
	16031.7975718923517 4156.693793418909081 14449.48396293079531 
	16031.79757189339762 4114.558373198196023 14467.24402476758223 
	16031.79757189410157 4083.157843234222128 14478.23174707219368 
	16031.79757189544216 4034.956829410143655 14491.14829396957794 
	16031.79757189693009 3973.147710564061072 14500.46606946746579 
	16031.79757189957127 3898.137884093245702 14500.46555016043749 
	16031.79757190150303 3836.328574146923984 14491.14873818381238 
	16031.79757190195232 3788.127685668071081 14478.23201649503972 
	16031.79757190289638 3752.801746997117789 14465.87146880109503 
	16031.7975719035785 3718.498438719445858 14450.90481887985334 
	16031.79757190431337 3690.924289242009763 14436.33151310231369 
	16031.7975719045171 3669.564642894475128 14423.46092886409133 
	16031.79757190468445 3648.701066671923854 14409.80087977584662 
	16031.79757190498458 3628.62573376371347 14394.98467818240715 
	16031.79757190518103 3609.422920195318966 14379.07436380336367 
	16031.79757190529563 3590.828302157080088 14362.45732456272526 
	16031.79757190575583 3568.77472707000652 14340.40380528442984 
	16031.7975719060596 3544.362197999550062 14312.03585335857497 
	16031.79757190649434 3522.137752061062201 14281.92292721103877 
	16031.79757190663258 3502.226016200856066 14250.23327731422251 
	16031.79757190693454 3482.794620163739182 14213.46783705754024 
	16031.7975719071801 3465.01676718658382 14171.29381045800255 
	16031.79757190729106 3450.300262964709418 14123.58331248236391 
	16031.79757190745659 3443.292572046138503 14088.9184366729005 
	16031.79757190746204 3440.472381503485849 14069.38170785315378 
	16031.79757190746204 3439.917128939779559 14065.26340447682924 
	16031.79757190746386 3439.122780540906206 14059.08087607896414 
	16031.79757190749842 3437.610509017500135 14045.65922888824025 
	16031.79757190759119 3436.057281070608497 14024.93314597064636 
	16031.79757190766759 3435.53913369472366 14004.15541524135006 
	16031.79757190768214 3435.746365601462912 13987.53321921786119 
	16031.79757190769669 3436.678751749285311 13962.6154815560385 
	16031.79757190772398 3441.234332677132898 13917.07469153617421 
	16031.79757190762939 3453.289085043193609 13864.25971866330838 
	16031.7975719075439 3467.711520268104323 13823.04649072784559 
	16031.79757190752025 3477.254716305087186 13800.00714738962961 
	16031.79757190744567 3492.851232952873943 13766.00725390296429 
	16031.79757190675991 3520.978848743792696 13717.28661373999967 
	16031.79757190604141 3562.55109958005869 13665.15888659360826 
	16031.79757190536111 3604.25089644460877 13624.48694958414853 
	16031.79757190514465 3643.286733863968493 13593.35726804143815 
	16031.79757190444434 3692.217783288698229 13561.75299523524336 
	16031.79757190352939 3752.289592785133209 13532.82328727426284 
	16031.79757190149576 3817.993887279315459 13512.55745046792981 
	16031.79757190007331 3879.543240976192465 13502.10063642556088 
	16031.79757189854718 3935.643091016640028 13498.94953475253897 
	16031.79757189692828 3991.742731204788015 13502.10071479095495 
	16031.79757189479824 4053.292502075131779 13512.55667805310441 
	16031.79757189236807 4107.049674892115945 13529.13952686975244 
	16031.79757189174779 4152.787050917337183 13549.09588029133374 
	16031.79757189045449 4185.876205511355693 13566.58338959348475 
	16031.79757188910844 4217.565624360286165 13586.49554625288329 
	16031.79757188746407 4252.69763898529709 13612.42359641542316 
	16031.79757188420444 4289.938957788381231 13645.70411425846396 
	16031.79757187986615 4327.379721957718175 13687.600480082996 
	16031.79757187696669 4359.894251742983215 13733.4253519568374 
	16031.79757186640018 4387.073367708446312 13782.60266062275514 
	16031.79757185813469 4408.575867297209697 13834.51370163472893 
	16031.79757184757909 4421.537987399633494 13879.50725355843861 
	16031.79757184442678 4428.836876192393902 13916.20303846805291 
	16031.79757184157643 4432.759652032090344 13943.98844425699281 
	16031.79757183856236 4434.725034672240326 13967.28984465461872 
	16031.79757183762376 4435.413337553622114 13983.6394284947346 
	16031.79757183734 4435.585441358016396 13991.81904966923685 
	16031.79757183727452 4435.628468741932011 13995.90946368944606 
	16031.79757183725451 4435.639225736567823 13997.95474622433721 
	16031.79757183725269 4435.641914984223149 13998.97739692553296 
	16031.79757183724723 4435.642683341905467 13999.56177010724059 
	16031.79757183724359 4435.642811402458392 13999.85395692249767 
	16031.79757183724359 4435.642811402273765 14000.00005032933768 
	16115.13090517057753 4435.642811402272855 14000.00005032933768 
	16115.13090517056662 4435.642811400795836 14001.16879758405594 
	16115.1309051706321 4435.634615498817766 14003.506291992353 
	16115.1309051706794 4435.585441292471842 14008.18105094708699 
	16115.13090517093406 4435.413337394681548 14016.36067216395531 
	16115.13090517176897 4434.725033917199653 14032.71025647152237 
	16115.13090517443197 4432.7596502405313 14056.01165819154812 
	16115.13090517690944 4428.836871684409743 14083.79706632324087 
	16115.13090517966521 4421.537984178194165 14120.49285248799788 
	16115.13090518857098 4408.57584499593213 14165.4864189350883 
	16115.13090519581601 4387.073367336809497 14217.39745876456254 
	16115.1309052038705 4359.894195381233658 14266.57481305259353 
	16115.13090521050981 4327.379474175785617 14312.39940467878478 
	16115.13090521808772 4289.939024448340206 14354.29630054070367 
	16115.13090522011407 4249.593978998756029 14390.34957324234165 
	16115.13090522459242 4200.610233715707182 14425.56875997200041 
	16115.13090522568564 4156.693793418908172 14449.48396293079531 
	16115.13090522673156 4114.558373198195113 14467.24402476758223 
	16115.13090522743551 4083.157843234221673 14478.23174707219368 
	16115.1309052287761 4034.9568294101432 14491.14829396957794 
	16115.13090523026403 3973.147710564060617 14500.46606946746579 
	16115.13090523290521 3898.137884093245248 14500.46555016043749 
	16115.13090523483697 3836.328574146923529 14491.14873818381238 
	16115.13090523528626 3788.127685668070626 14478.23201649503972 
	16115.13090523623032 3752.801746997117334 14465.87146880109503 
	16115.13090523691244 3718.498438719445403 14450.90481887985334 
	16115.13090523764731 3690.924289242009309 14436.33151310231369 
	16115.13090523785104 3669.564642894474673 14423.46092886409133 
	16115.13090523801839 3648.7010666719234 14409.80087977584662 
	16115.13090523831852 3628.625733763713015 14394.98467818240715 
	16115.13090523851497 3609.422920195318511 14379.07436380336367 
	16115.13090523862957 3590.828302157079634 14362.45732456272526 
	16115.13090523908977 3568.774727070006065 14340.40380528442984 
	16115.13090523939354 3544.362197999549608 14312.03585335857497 
	16115.13090523982828 3522.137752061061747 14281.92292721103877 
	16115.13090523996652 3502.226016200855611 14250.23327731422251 
	16115.13090524026848 3482.794620163738728 14213.46783705754024 
	16115.13090524051404 3465.016767186583365 14171.29381045800255 
	16115.130905240625 3450.300262964708963 14123.58331248236391 
	16115.13090524079053 3443.292572046138048 14088.9184366729005 
	16115.13090524079598 3440.472381503485394 14069.38170785315378 
	16115.13090524079598 3439.917128939779104 14065.26340447682924 
	16115.1309052407978 3439.122780540905751 14059.08087607896414 
	16115.13090524083236 3437.61050901749968 14045.65922888824025 
	16115.13090524092513 3436.057281070608042 14024.93314597064636 
	16115.13090524100153 3435.539133694723205 14004.15541524135006 
	16115.13090524101608 3435.746365601462458 13987.53321921786119 
	16115.13090524103063 3436.678751749284856 13962.6154815560385 
	16115.13090524105792 3441.234332677132443 13917.07469153617421 
	16115.13090524096333 3453.289085043193154 13864.25971866330838 
	16115.13090524087784 3467.711520268103868 13823.04649072784559 
	16115.13090524085419 3477.254716305086731 13800.00714738962961 
	16115.13090524077961 3492.851232952873488 13766.00725390296429 
	16115.13090524009385 3520.978848743792241 13717.28661373999967 
	16115.13090523937535 3562.551099580058235 13665.15888659360826 
	16115.13090523869505 3604.250896444608316 13624.48694958414853 
	16115.13090523847859 3643.286733863968038 13593.35726804143815 
	16115.13090523777828 3692.217783288697774 13561.75299523524336 
	16115.13090523686333 3752.289592785132754 13532.82328727426284 
	16115.1309052348297 3817.993887279315004 13512.55745046792981 
	16115.13090523340725 3879.54324097619201 13502.10063642556088 
	16115.13090523188112 3935.643091016639573 13498.94953475253897 
	16115.13090523026221 3991.74273120478756 13502.10071479095495 
	16115.13090522813218 4053.292502075131324 13512.55667805310441 
	16115.13090522570201 4107.049674892115036 13529.13952686975244 
	16115.13090522508173 4152.787050917336273 13549.09588029133374 
	16115.13090522378843 4185.876205511354783 13566.58338959348475 
	16115.13090522244238 4217.565624360285256 13586.49554625288329 
	16115.13090522079801 4252.69763898529618 13612.42359641542316 
	16115.13090521753838 4289.938957788380321 13645.70411425846396 
	16115.13090521320009 4327.379721957717265 13687.600480082996 
	16115.13090521030063 4359.894251742982306 13733.4253519568374 
	16115.13090519973412 4387.073367708445403 13782.60266062275514 
	16115.13090519146863 4408.575867297208788 13834.51370163472893 
	16115.13090518091303 4421.537987399632584 13879.50725355843861 
	16115.13090517776072 4428.836876192392992 13916.20303846805291 
	16115.13090517491037 4432.759652032089434 13943.98844425699281 
	16115.1309051718963 4434.725034672239417 13967.28984465461872 
	16115.1309051709577 4435.413337553621204 13983.6394284947346 
	16115.13090517067394 4435.585441358015487 13991.81904966923685 
	16115.13090517060846 4435.628468741931101 13995.90946368944606 
	16115.13090517058845 4435.639225736566914 13997.95474622433721 
	16115.13090517058663 4435.64191498422224 13998.97739692553296 
	16115.13090517058117 4435.642683341904558 13999.56177010724059 
	16115.13090517057753 4435.642811402457482 13999.85395692249767 
	16115.13090517057753 4435.642811402272855 14000.00005032933768 
	16198.46423850269457 4435.642811402270127 14000.00005032933768 
	16198.46423850268184 4435.642811400793107 14001.16879758405594 
	16198.4642385027455 4435.634615498815037 14003.506291992353 
	16198.46423850279461 4435.585441292469113 14008.18105094708699 
	16198.46423850305655 4435.41333739467882 14016.36067216395531 
	16198.46423850390238 4434.725033917196924 14032.71025647152237 
	16198.46423850660722 4432.759650240528572 14056.01165819154812 
	16198.46423850912652 4428.836871684407015 14083.79706632324087 
	16198.4642385119223 4421.537984178190527 14120.49285248799788 
	16198.46423852096268 4408.575844995930311 14165.4864189350883 
	16198.46423852831867 4387.073367336807678 14217.39745876456254 
	16198.46423853649867 4359.894195381232748 14266.57481305259353 
	16198.46423854324166 4327.379474175783798 14312.39940467878478 
	16198.46423855093963 4289.939024448339296 14354.29630054070367 
	16198.46423855299872 4249.593978998755119 14390.34957324234165 
	16198.4642385575462 4200.610233715707182 14425.56875997200041 
	16198.4642385586576 4156.693793418908172 14449.48396293079531 
	16198.46423855971989 4114.558373198195113 14467.24402476758223 
	16198.46423856043475 4083.157843234221673 14478.23174707219368 
	16198.46423856179354 4034.956829410143655 14491.14829396957794 
	16198.46423856330512 3973.147710564061072 14500.46606946746579 
	16198.46423856598994 3898.137884093245248 14500.46555016043749 
	16198.46423856795263 3836.328574146923984 14491.14873818381238 
	16198.4642385684092 3788.127685668071081 14478.23201649503972 
	16198.46423856936781 3752.801746997118244 14465.87146880109503 
	16198.46423857006448 3718.498438719445858 14450.90481887985334 
	16198.46423857080845 3690.924289242009763 14436.33151310231369 
	16198.46423857101581 3669.564642894475583 14423.46092886409133 
	16198.4642385711868 3648.701066671924309 14409.80087977584662 
	16198.46423857149057 3628.625733763713924 14394.98467818240715 
	16198.46423857169066 3609.422920195319421 14379.07436380336367 
	16198.46423857180525 3590.828302157080543 14362.45732456272526 
	16198.46423857227273 3568.774727070006975 14340.40380528442984 
	16198.46423857258014 3544.362197999550517 14312.03585335857497 
	16198.46423857302398 3522.137752061062656 14281.92292721103877 
	16198.4642385731604 3502.22601620085652 14250.23327731422251 
	16198.46423857346781 3482.794620163739637 14213.46783705754024 
	16198.46423857371519 3465.016767186584275 14171.29381045800255 
	16198.46423857383161 3450.300262964709873 14123.58331248236391 
	16198.46423857399532 3443.292572046138503 14088.9184366729005 
	16198.46423857400623 3440.472381503485394 14069.38170785315378 
	16198.46423857400623 3439.917128939779559 14065.26340447682924 
	16198.46423857400805 3439.122780540906206 14059.08087607896414 
	16198.46423857404261 3437.61050901749968 14045.65922888824025 
	16198.46423857413538 3436.057281070607587 14024.93314597064636 
	16198.46423857421723 3435.53913369472275 14004.15541524135006 
	16198.46423857422997 3435.746365601462458 13987.53321921786119 
	16198.46423857424634 3436.678751749284402 13962.6154815560385 
	16198.46423857427362 3441.234332677131533 13917.07469153617421 
	16198.46423857417903 3453.289085043192699 13864.25971866330838 
	16198.46423857409172 3467.711520268103413 13823.04649072784559 
	16198.46423857406444 3477.254716305085822 13800.00714738962961 
	16198.46423857398986 3492.851232952873033 13766.00725390296429 
	16198.46423857328955 3520.978848743792241 13717.28661373999967 
	16198.46423857256195 3562.551099580058235 13665.15888659360826 
	16198.46423857186892 3604.250896444608316 13624.48694958414853 
	16198.46423857164882 3643.286733863968493 13593.35726804143815 
	16198.46423857094123 3692.217783288698683 13561.75299523524336 
	16198.46423857000809 3752.289592785133664 13532.82328727426284 
	16198.46423856794536 3817.993887279315913 13512.55745046792981 
	16198.46423856649926 3879.543240976192919 13502.10063642556088 
	16198.46423856494948 3935.643091016640028 13498.94953475253897 
	16198.46423856330512 3991.74273120478847 13502.10071479095495 
	16198.46423856114052 4053.292502075132234 13512.55667805310441 
	16198.46423855867397 4107.049674892115945 13529.13952686975244 
	16198.46423855804278 4152.787050917337183 13549.09588029133374 
	16198.46423855673129 4185.876205511355693 13566.58338959348475 
	16198.46423855536341 4217.565624360286165 13586.49554625288329 
	16198.4642385536954 4252.69763898529618 13612.42359641542316 
	16198.46423855038483 4289.938957788380321 13645.70411425846396 
	16198.46423854597742 4327.379721957717265 13687.600480082996 
	16198.46423854303066 4359.894251742982306 13733.4253519568374 
	16198.46423853230044 4387.073367708445403 13782.60266062275514 
	16198.46423852390399 4408.575867297209697 13834.51370163472893 
	16198.46423851318832 4421.537987399632584 13879.50725355843861 
	16198.4642385099869 4428.836876192392992 13916.20303846805291 
	16198.46423850709289 4432.759652032087615 13943.98844425699281 
	16198.46423850403517 4434.725034672239417 13967.28984465461872 
	16198.4642385030802 4435.413337553619385 13983.6394284947346 
	16198.4642385027928 4435.585441358014577 13991.81904966923685 
	16198.46423850272731 4435.628468741929282 13995.90946368944606 
	16198.4642385027073 4435.639225736565095 13997.95474622433721 
	16198.46423850270367 4435.641914984220421 13998.97739692553296 
	16198.46423850270367 4435.64268334190092 13999.56177010724059 
	16198.46423850269457 4435.642811402454754 13999.85395692249767 
	16198.46423850269457 4435.642811402270127 14000.00005032933768 
	16281.79757183602851 4435.642811402270127 14000.00005032933768 
	16281.79757183601578 4435.642811400793107 14001.16879758405594 
	16281.79757183607944 4435.634615498815037 14003.506291992353 
	16281.79757183612855 4435.585441292469113 14008.18105094708699 
	16281.79757183639049 4435.41333739467882 14016.36067216395531 
	16281.79757183723632 4434.725033917196924 14032.71025647152237 
	16281.79757183994116 4432.759650240528572 14056.01165819154812 
	16281.79757184246046 4428.836871684407015 14083.79706632324087 
	16281.79757184525624 4421.537984178190527 14120.49285248799788 
	16281.79757185429662 4408.575844995930311 14165.4864189350883 
	16281.79757186165261 4387.073367336807678 14217.39745876456254 
	16281.79757186983261 4359.894195381232748 14266.57481305259353 
	16281.7975718765756 4327.379474175783798 14312.39940467878478 
	16281.79757188427357 4289.939024448339296 14354.29630054070367 
	16281.79757188633266 4249.593978998755119 14390.34957324234165 
	16281.79757189088014 4200.610233715707182 14425.56875997200041 
	16281.79757189199154 4156.693793418908172 14449.48396293079531 
	16281.79757189305383 4114.558373198195113 14467.24402476758223 
	16281.79757189376869 4083.157843234221218 14478.23174707219368 
	16281.79757189512748 4034.9568294101432 14491.14829396957794 
	16281.79757189663906 3973.147710564060617 14500.46606946746579 
	16281.79757189932388 3898.137884093244793 14500.46555016043749 
	16281.79757190128657 3836.328574146923529 14491.14873818381238 
	16281.79757190174314 3788.127685668070626 14478.23201649503972 
	16281.79757190270175 3752.801746997117789 14465.87146880109503 
	16281.79757190339842 3718.498438719445403 14450.90481887985334 
	16281.79757190414239 3690.924289242009309 14436.33151310231369 
	16281.79757190434975 3669.564642894475128 14423.46092886409133 
	16281.79757190452074 3648.701066671923854 14409.80087977584662 
	16281.79757190482451 3628.62573376371347 14394.98467818240715 
	16281.7975719050246 3609.422920195318966 14379.07436380336367 
	16281.79757190513919 3590.828302157080088 14362.45732456272526 
	16281.79757190560667 3568.77472707000652 14340.40380528442984 
	16281.79757190591408 3544.362197999550062 14312.03585335857497 
	16281.79757190635792 3522.137752061062201 14281.92292721103877 
	16281.79757190649434 3502.226016200856066 14250.23327731422251 
	16281.79757190680175 3482.794620163739182 14213.46783705754024 
	16281.79757190704913 3465.01676718658382 14171.29381045800255 
	16281.79757190716555 3450.300262964709418 14123.58331248236391 
	16281.79757190732926 3443.292572046138048 14088.9184366729005 
	16281.79757190734017 3440.472381503484939 14069.38170785315378 
	16281.79757190734017 3439.917128939779104 14065.26340447682924 
	16281.79757190734199 3439.122780540905751 14059.08087607896414 
	16281.79757190737655 3437.610509017499226 14045.65922888824025 
	16281.79757190746932 3436.057281070607132 14024.93314597064636 
	16281.79757190755117 3435.539133694722295 14004.15541524135006 
	16281.79757190756391 3435.746365601462003 13987.53321921786119 
	16281.79757190758028 3436.678751749283947 13962.6154815560385 
	16281.79757190760756 3441.234332677131079 13917.07469153617421 
	16281.79757190751297 3453.289085043192244 13864.25971866330838 
	16281.79757190742566 3467.711520268102959 13823.04649072784559 
	16281.79757190739838 3477.254716305085367 13800.00714738962961 
	16281.7975719073238 3492.851232952872579 13766.00725390296429 
	16281.79757190662349 3520.978848743791787 13717.28661373999967 
	16281.79757190589589 3562.55109958005778 13665.15888659360826 
	16281.79757190520286 3604.250896444607861 13624.48694958414853 
	16281.79757190498276 3643.286733863968038 13593.35726804143815 
	16281.79757190427517 3692.217783288698229 13561.75299523524336 
	16281.79757190334203 3752.289592785133209 13532.82328727426284 
	16281.7975719012793 3817.993887279315459 13512.55745046792981 
	16281.7975718998332 3879.543240976192465 13502.10063642556088 
	16281.79757189828342 3935.643091016639573 13498.94953475253897 
	16281.79757189663906 3991.742731204788015 13502.10071479095495 
	16281.79757189447446 4053.292502075131779 13512.55667805310441 
	16281.79757189200791 4107.049674892115945 13529.13952686975244 
	16281.79757189137672 4152.787050917337183 13549.09588029133374 
	16281.79757189006523 4185.876205511355693 13566.58338959348475 
	16281.79757188869735 4217.565624360286165 13586.49554625288329 
	16281.79757188702933 4252.69763898529618 13612.42359641542316 
	16281.79757188371877 4289.938957788380321 13645.70411425846396 
	16281.79757187931136 4327.379721957717265 13687.600480082996 
	16281.7975718763646 4359.894251742982306 13733.4253519568374 
	16281.79757186563438 4387.073367708445403 13782.60266062275514 
	16281.79757185723793 4408.575867297209697 13834.51370163472893 
	16281.79757184652226 4421.537987399632584 13879.50725355843861 
	16281.79757184332084 4428.836876192392992 13916.20303846805291 
	16281.79757184042683 4432.759652032087615 13943.98844425699281 
	16281.79757183736911 4434.725034672239417 13967.28984465461872 
	16281.79757183641414 4435.413337553619385 13983.6394284947346 
	16281.79757183612674 4435.585441358014577 13991.81904966923685 
	16281.79757183606125 4435.628468741929282 13995.90946368944606 
	16281.79757183604124 4435.639225736565095 13997.95474622433721 
	16281.7975718360376 4435.641914984220421 13998.97739692553296 
	16281.7975718360376 4435.64268334190092 13999.56177010724059 
	16281.79757183602851 4435.642811402454754 13999.85395692249767 
	16281.79757183602851 4435.642811402270127 14000.00005032933768 
	0 
	
	0 
	0 
	81 0 0.001116071428571428509 0.002232142857142857019 0.004464285714285714038 0.008928571428571428076 0.01785714285714285615 0.02678571428571428423 0.0357142857142857123 0.05357142857142856845 0.07142857142857142461 0.08928571428571427382 0.1071428571428571369 0.125 0.1428571428571428492 0.1587301587301587213 0.1825396825396825295 0.1904761904761904656 0.2023809523809523836 0.2142857142857142738 0.238095238095238082 0.2619047619047618625 0.2857142857142856984 0.2976190476190476164 0.3095238095238095344 0.3214285714285713969 0.3333333333333333148 0.3392857142857143016 0.3452380952380952328 0.3571428571428570953 0.3630952380952380265 0.3690476190476190133 0.3809523809523809312 0.3928571428571428492 0.4047619047619047672 0.4166666666666666297 0.4285714285714285476 0.4444444444444444198 0.4603174603174602919 0.476190476190476164 0.4781746031746031411 0.4791666666666666297 0.4801587301587301182 0.4841269841269840724 0.4920634920634920362 0.5 0.5039682539682539542 0.5079365079365079083 0.5238095238095237249 0.5476190476190475609 0.5595238095238095344 0.5654761904761904656 0.5714285714285713969 0.5952380952380951218 0.6190476190476189577 0.6349206349206348854 0.650793650793650702 0.6666666666666666297 0.6904761904761904656 0.7142857142857141906 0.7321428571428569843 0.749999999999999889 0.7678571428571427937 0.7857142857142855874 0.8095238095238094234 0.8214285714285713969 0.8333333333333332593 0.8452380952380951218 0.8571428571428570953 0.875 0.8928571428571427937 0.9107142857142856984 0.9285714285714286031 0.9464285714285713969 0.9642857142857143016 0.9732142857142858094 0.9821428571428572063 0.9910714285714286031 0.9955357142857143016 0.9977678571428572063 0.9994419642857143016 0.9998604910714286031 
	0 
	0 
	0 
	F 1 F 0 F 1 F 0 } I I I I #
tcoedge-coedge $-1 -1 $-1 $14 $14 $18 $19 reversed $9 $20 -6.283185307179586232 -0 #
tcoedge-coedge $-1 -1 $-1 $21 $22 $11 $16 reversed $12 $23 -6.283185307179586232 -0 #
tedge-edge $-1 -1 $-1 $24 0 $24 6.283185307179586232 $15 $25 forward @7 unknown 0.0008059099409619192205 #
pcurve $-1 -1 $-1 0 forward { exppc nurbs 2 periodic 5 
	0 2 1.570796326794896558 2 3.141592653589793116 2 4.712388980384689674 2 6.283185307179586232 2 
	0 500 1 
	-500 500 0.707106781186543798 
	-500 0 1 
	-500 -500 0.7071067811865463515 
	0 -500 1 
	500 -500 0.7071067811865463515 
	500 0 1 
	500 500 0.707106781186543798 
	0 500 1 
	0 
	plane 16281.79757191538738 3935.642797989758947 14000.00000000000182 1 -3.637978807091713027e-15 0 0 0 -1 forward_v I I I I 
	} 0 0 #
tcoedge-coedge $-1 -1 $-1 $22 $21 $14 $19 forward $12 $26 0 6.283185307179586232 #
tedge-edge $-1 -1 $-1 $27 0 $27 6.283185307179586232 $18 $28 forward @7 unknown 0.0008059099410898621241 #
pcurve $-1 -1 $-1 0 forward { exppc nurbs 2 periodic 5 
	-6.283185307179586232 2 -4.712388980384689674 2 -3.141592653589793116 2 -1.570796326794896558 2 0 2 
	0 500 1 
	500 500 0.707106781186543798 
	500 0 1 
	500 -500 0.7071067811865463515 
	0 -500 1 
	-500 -500 0.7071067811865463515 
	-500 0 1 
	-500 500 0.707106781186543798 
	0 500 1 
	0 
	plane 16031.79757191538738 3935.642797989759856 14000.00000000000182 -1 3.637978807091713027e-15 -0 0 0 -1 reverse_v I I I I 
	} 0 0 #
coedge $-1 -1 $-1 $18 $15 $22 $29 reversed $12 $30 #
coedge $-1 -1 $-1 $15 $18 $21 $29 forward $12 $31 #
pcurve $-1 -1 $-1 0 forward { exppc nubs 1 periodic 2 
	-6.283185307179586232 1 -0 1 
	1 1 
	0 1 
	2.726396620975368931e-13 
	spline forward { ref 0 } I I I I 
	} 0 0 #
tvertex-vertex $-1 -1 $-1 $16 $32 5.208593710816052037e-05 #
ellipse-curve $-1 -1 $-1 16281.79757191538738 3935.642797989758947 14000.00000000000182 1 -3.637978807091713027e-15 0 1.818989403545856476e-12 500 0 1 I I #
pcurve $-1 -1 $-1 0 forward { exppc nubs 1 periodic 2 
	0 1 6.283185307179586232 1 
	0 0 
	1 0 
	4.4114023995510105e-13 
	spline forward { ref 0 } I I I I 
	} 0 0 #
tvertex-vertex $-1 -1 $-1 $19 $33 5.208593597357509346e-05 #
ellipse-curve $-1 -1 $-1 16031.79757191538738 3935.642797989759856 14000.00000000000182 1 -3.637978807091713027e-15 0 1.818989403545856476e-12 500 0 1 I I #
edge $-1 -1 $-1 $27 0 $24 1 $22 $34 forward @7 tangent #
pcurve $-1 -1 $-1 -1 $34 0 0 #
pcurve $-1 -1 $-1 1 $34 1 0 #
point $-1 -1 $-1 16281.7975719153892 4435.642797989758947 14000.00000000000182 #
point $-1 -1 $-1 16031.7975719153892 4435.642797989759856 14000.00000000000182 #
intcurve-curve $-1 -1 $-1 forward { parcur full nubs 3 open 2 
	0 3 1 3 
	16031.79757183724359 4435.642811402273765 14000.00005032933768 
	16115.13090517057753 4435.642811402272855 14000.00005032933768 
	16198.46423850269457 4435.642811402270127 14000.00005032933768 
	16281.79757183602851 4435.642811402270127 14000.00005032933768 
	0 
	
	spline forward { ref 0 } I I I I 
	null_surface 
	nubs 1 open 2 
	0 1 1 1 
	0 0 
	0 1 
	
	nullbs 
	I I 
	0 
	0 
	0 
	surf1 } I I #
End-of-ACIS-data 