700 0 1 0           
4 LibG 20 ASM 224.0.1.65535 NT 24 Wed Jul 17 12:52:11 2019 
1000 9.999999999999999547e-07 1.000000000000000036e-10 
body $-1 -1 $-1 $1 $-1 $2 #
lump $-1 -1 $-1 $-1 $3 $0 #
transform $-1 -1 1 0 0 0 1 0 0 0 1 0 0 0 1 no_rotate no_reflect no_shear #
shell $-1 -1 $-1 $-1 $-1 $4 $-1 $1 #
face $-1 -1 $-1 $5 $6 $3 $-1 $7 forward single #
face $-1 -1 $-1 $8 $9 $3 $-1 $10 reversed single #
loop $-1 -1 $-1 $-1 $11 $4 #
plane-surface $-1 -1 $-1 31.79757191538692496 3935.642797989818064 14000.00000000000182 1 -3.637978807091713027e-15 0 0 0 -1 forward_v I I I I #
face $-1 -1 $-1 $-1 $12 $3 $-1 $13 forward single #
loop $-1 -1 $-1 $-1 $14 $5 #
plane-surface $-1 -1 $-1 -218.202428084613075 3935.642797989818973 14000.00000000000182 1 -3.637978807091713027e-15 0 0 0 -1 forward_v I I I I #
tcoedge-coedge $-1 -1 $-1 $11 $11 $15 $16 forward $6 $17 0 6.283185307179586232 #
loop $-1 -1 $-1 $-1 $18 $8 #
spline-surface $-1 -1 $-1 forward { exactsur full nubs 3 3 periodic open none none 95 2 
	0 3 0.004464285714285714038 1 0.008928571428571428076 1 0.01785714285714285615 1 0.02678571428571428423 1 
	0.0357142857142857123 1 0.05357142857142856845 1 0.0625 1 0.07142857142857142461 1 0.08928571428571427382 1 
	0.09821428571428569843 1 0.1071428571428571369 1 0.125 1 0.1428571428571428492 1 0.1587301587301587213 1 
	0.1746031746031745935 1 0.1825396825396825295 1 0.1865079365079365115 1 0.1904761904761904656 1 0.2142857142857142738 1 
	0.226190476190476164 1 0.232142857142857123 1 0.238095238095238082 1 0.2499999999999999722 1 0.2529761904761904656 1 
	0.2559523809523809312 1 0.2619047619047618625 1 0.2738095238095237804 1 0.2857142857142856984 1 0.2976190476190476164 1 
	0.3095238095238095344 1 0.3214285714285713969 1 0.3333333333333333148 1 0.3452380952380952328 1 0.3571428571428570953 1 
	0.3690476190476190133 1 0.375 1 0.3809523809523809312 1 0.3928571428571428492 1 0.4047619047619047672 1 
	0.4166666666666666297 1 0.4285714285714285476 1 0.4444444444444444198 1 0.4603174603174602919 1 0.476190476190476164 1 
	0.4801587301587301182 1 0.4821428571428570953 1 0.4841269841269840724 1 0.4880952380952380265 1 0.4900793650793650036 1 
	0.4910714285714284921 1 0.4915674603174602364 1 0.491815476190476164 1 0.4920634920634920362 1 0.5158730158730158166 1 
	0.5238095238095237249 1 0.5357142857142855874 1 0.5476190476190475609 1 0.5595238095238095344 1 0.5714285714285713969 1 
	0.5833333333333332593 1 0.5952380952380951218 1 0.6071428571428569843 1 0.6190476190476189577 1 0.6349206349206348854 1 
	0.650793650793650702 1 0.6666666666666666297 1 0.6785714285714286031 1 0.6904761904761904656 1 0.7023809523809523281 1 
	0.7142857142857141906 1 0.7321428571428569843 1 0.749999999999999889 1 0.7678571428571427937 1 0.7857142857142855874 1 
	0.7916666666666665186 1 0.7976190476190474499 1 0.8095238095238094234 1 0.8333333333333332593 1 0.8452380952380951218 1 
	0.851190476190476053 1 0.8571428571428570953 1 0.875 1 0.8928571428571427937 1 0.9107142857142856984 1 
	0.9285714285714286031 1 0.9464285714285713969 1 0.9642857142857143016 1 0.9821428571428572063 1 0.9910714285714286031 1 
	0.9955357142857143016 1 0.9977678571428572063 1 0.9988839285714286031 1 0.9994419642857143016 1 1 3 
	0 3 1 3 
	-218.2024280843714337 4435.642865180920126 13999.99992657527764 
	-218.2024280843716326 4435.642865049833745 14004.67491570320453 
	-218.2024280843750716 4435.51172006548677 14014.02489549553684 
	-218.2024280843782549 4434.725083020535749 14032.71013777737789 
	-218.2024280843899646 4432.759703632750643 14056.01155503164955 
	-218.2024280844004807 4428.836907596427409 14083.79696651022277 
	-218.2024280844098882 4421.538057300630499 14120.49278924884129 
	-218.2024280844445343 4411.168200677220739 14156.48760115123696 
	-218.2024280844521797 4397.824826716522693 14191.44200220978928 
	-218.2024280844600241 4382.543511630922694 14225.59367359365569 
	-218.2024280844854616 4364.423961553258778 14258.37847527712438 
	-218.2024280844909754 4343.63708843627137 14289.48734336783127 
	-218.2024280844978819 4321.139394651467228 14319.38229119119933 
	-218.2024280845163275 4289.938889577134432 14354.29607750290415 
	-218.2024280845319026 4249.594096074607478 14390.34998821020599 
	-218.2024280845450335 4207.365976797928852 14420.70984085836426 
	-218.2024280845500073 4171.333190474120784 14441.51349165059219 
	-218.2024280845523947 4145.116808543825755 14454.13841008785494 
	-218.2024280845531337 4129.880332088932846 14460.78590174700912 
	-218.2024280845547537 4099.085677616821158 14473.31799350610527 
	-218.2024280845609496 4059.265223308173063 14485.60041597794043 
	-218.2024280845624276 4016.362293228568888 14493.71680394038412 
	-218.2024280845636213 3991.638056386467724 14496.97193943588718 
	-218.2024280845640192 3966.809326737608899 14499.30022131213627 
	-218.2024280845656108 3944.992730326086985 14500.11660700028733 
	-218.2024280845657529 3926.292769259229772 14499.94170734820182 
	-218.2024280845658097 3913.830492127030084 14499.59205451853086 
	-218.2024280845659518 3892.044380088178059 14498.36863881644967 
	-218.2024280845656108 3861.052077651128457 14494.87669752532747 
	-218.2024280845649571 3824.278458233909532 14487.91873134374691 
	-218.2024280845637918 3788.127631599669712 14478.23216197515649 
	-218.2024280845623139 3752.801768138233001 14465.87110892390774 
	-218.2024280845602675 3718.49842648726235 14450.90472027733085 
	-218.2024280845578801 3685.409438255709574 14433.4166920484422 
	-218.20242808455464 3653.719866308359087 14413.50480842800971 
	-218.2024280845531621 3623.606871749957463 14391.2805115369265 
	-218.2024280845480462 3599.966969554512616 14370.93666393937201 
	-218.2024280845467672 3582.006808613940393 14353.6358443735844 
	-218.2024280845454314 3564.70597863618832 14335.67568976603798 
	-218.2024280845387523 3544.362128832171493 14312.03579834255834 
	-218.2024280845351996 3522.137767025656558 14281.92283760003556 
	-218.2024280845312774 3502.225926809608609 14250.23325775416743 
	-218.2024280845253941 3482.794618520203585 14213.46778974207518 
	-218.2024280845155033 3465.016560913334615 14171.29388577919053 
	-218.2024280845064936 3450.300125266369832 14123.58335304339016 
	-218.20242808448387 3442.880160718736079 14086.87943047289991 
	-218.2024280844804878 3439.755625038903418 14064.23670969183695 
	-218.202428084480033 3438.773581284259308 14055.98367996224806 
	-218.2024280844796067 3437.894517974713835 14047.71904526376966 
	-218.2024280844780151 3437.17009552941181 14039.43893767527152 
	-218.2024280844776456 3436.671844952437823 14032.18367914196824 
	-218.2024280844774182 3436.45665518841588 14028.55393239876139 
	-218.2024280844774466 3436.357540030162909 14026.73858224835931 
	-218.2024280844773614 3436.303337719979481 14025.70111095079665 
	-218.2024280844822783 3435.014348890069869 14000.28100961961172 
	-218.202428084497086 3435.853178347337689 13966.69373965736304 
	-218.2024280845000419 3441.539750313524564 13921.32341023041045 
	-218.2024280845084832 3447.724119343984512 13888.63573730074495 
	-218.2024280845141107 3457.41089631472687 13852.48493115875317 
	-218.2024280845199087 3469.771840394937954 13817.15907960929144 
	-218.2024280845249962 3484.7382450551886 13782.85574451837056 
	-218.2024280845280373 3502.226268314232129 13749.76678952415205 
	-218.2024280845361375 3522.138110055967445 13718.07720513737877 
	-218.2024280845421629 3544.36251713928732 13687.96434803184638 
	-218.202428084549183 3571.487350970715852 13656.44424992196582 
	-218.2024280845520536 3604.250924570483676 13624.48734518546917 
	-218.2024280845587612 3643.286805338104386 13593.35754868319964 
	-218.2024280845588464 3681.732934562088758 13568.52630970943574 
	-218.2024280845626549 3718.498651547235113 13549.09553798267007 
	-218.2024280845629391 3752.801852951025921 13534.12890301109837 
	-218.2024280845649287 3788.127768467898477 13521.76814282147643 
	-218.2024280845657813 3830.303575449334403 13510.46659450094194 
	-218.2024280845660655 3879.542922850384002 13502.10032374538241 
	-218.2024280845656676 3935.642744128961567 13498.95008521982527 
	-218.2024280845649002 3991.742579556088913 13502.10034321347302 
	-218.2024280845631949 4034.826976856200872 13509.42097877982451 
	-218.2024280845623423 4065.082407892639822 13516.92474573587242 
	-218.2024280845610917 4089.045316653877308 13523.82848979137998 
	-218.2024280845595285 4130.259506424510619 13538.24827964788892 
	-218.2024280845549526 4175.313568628753274 13559.94455777787334 
	-218.2024280845509736 4212.284060085595229 13583.17646780955874 
	-218.2024280845499504 4232.622244520105596 13597.60704422454546 
	-218.2024280845485578 4257.352824587094801 13616.58325153833357 
	-218.2024280845382975 4289.938993396324804 13645.70367161768991 
	-218.2024280845301405 4327.379654431220843 13687.60018586609294 
	-218.2024280845127464 4359.894379493534871 13733.42492060279437 
	-218.202428084482591 4387.07357189043978 13782.60230022759424 
	-218.2024280844534303 4408.575845328954529 13834.51344378659269 
	-218.2024280844232749 4424.13080409102804 13888.50572755157918 
	-218.202428084387634 4431.973805372666902 13934.66770479941079 
	-218.2024280843762369 4434.725046832892076 13967.28971934676338 
	-218.202428084372599 4435.413399838167607 13983.6393022279226 
	-218.2024280843717179 4435.585493713497272 13991.8189256914975 
	-218.2024280843714337 4435.62852278873288 13995.90933980372029 
	-218.2024280843714621 4435.640816093793546 13998.24680567631185 
	-218.2024280843714052 4435.642865197305582 13999.4155529342861 
	-218.2024280843714337 4435.642865180920126 13999.99992657527764 
	-134.8690947510381193 4435.642865180919216 13999.99992657527764 
	-134.8690947510383467 4435.642865049832835 14004.67491570320453 
	-134.8690947510417004 4435.511720065485861 14014.02489549553684 
	-134.8690947510449973 4434.725083020534839 14032.71013777737789 
	-134.8690947510566218 4432.759703632749734 14056.01155503164955 
	-134.8690947510671947 4428.836907596426499 14083.79696651022277 
	-134.8690947510764886 4421.538057300629589 14120.49278924884129 
	-134.8690947511113336 4411.168200677219829 14156.48760115123696 
	-134.8690947511188654 4397.824826716521784 14191.44200220978928 
	-134.8690947511266529 4382.543511630921785 14225.59367359365569 
	-134.869094751152204 4364.423961553257868 14258.37847527712438 
	-134.869094751157661 4343.63708843627046 14289.48734336783127 
	-134.869094751164539 4321.139394651466318 14319.38229119119933 
	-134.8690947511830132 4289.938889577133523 14354.29607750290415 
	-134.8690947511985598 4249.594096074606568 14390.34998821020599 
	-134.8690947512117191 4207.365976797927942 14420.70984085836426 
	-134.8690947512167213 4171.333190474119874 14441.51349165059219 
	-134.8690947512190519 4145.116808543824845 14454.13841008785494 
	-134.8690947512197624 4129.880332088931937 14460.78590174700912 
	-134.8690947512216098 4099.085677616820249 14473.31799350610527 
	-134.86909475122755 4059.265223308172608 14485.60041597794043 
	-134.8690947512291132 4016.362293228568433 14493.71680394038412 
	-134.8690947512303069 3991.638056386467269 14496.97193943588718 
	-134.8690947512306764 3966.809326737608444 14499.30022131213627 
	-134.8690947512322964 3944.99273032608653 14500.11660700028733 
	-134.8690947512324385 3926.292769259229317 14499.94170734820182 
	-134.8690947512325238 3913.830492127029629 14499.59205451853086 
	-134.8690947512326375 3892.044380088177604 14498.36863881644967 
	-134.8690947512322964 3861.052077651128002 14494.87669752532747 
	-134.8690947512316711 3824.278458233909078 14487.91873134374691 
	-134.8690947512304206 3788.127631599669257 14478.23216197515649 
	-134.8690947512290563 3752.801768138232546 14465.87110892390774 
	-134.8690947512268679 3718.498426487261895 14450.90472027733085 
	-134.8690947512246794 3685.409438255709119 14433.4166920484422 
	-134.8690947512212972 3653.719866308358633 14413.50480842800971 
	-134.8690947512198477 3623.606871749957008 14391.2805115369265 
	-134.8690947512147318 3599.966969554512161 14370.93666393937201 
	-134.8690947512134812 3582.006808613939938 14353.6358443735844 
	-134.8690947512119465 3564.705978636187865 14335.67568976603798 
	-134.8690947512057221 3544.362128832171038 14312.03579834255834 
	-134.869094751201601 3522.137767025656103 14281.92283760003556 
	-134.8690947511981904 3502.225926809608154 14250.23325775416743 
	-134.8690947511919376 3482.79461852020313 14213.46778974207518 
	-134.869094751182331 3465.01656091333416 14171.29388577919053 
	-134.8690947511730656 3450.300125266369378 14123.58335304339016 
	-134.8690947511506693 3442.880160718735624 14086.87943047289991 
	-134.869094751147145 3439.755625038902963 14064.23670969183695 
	-134.8690947511467186 3438.773581284258853 14055.98367996224806 
	-134.8690947511463207 3437.894517974713381 14047.71904526376966 
	-134.8690947511446439 3437.170095529411356 14039.43893767527152 
	-134.8690947511443881 3436.671844952437368 14032.18367914196824 
	-134.8690947511440754 3436.456655188415425 14028.55393239876139 
	-134.8690947511442175 3436.357540030162454 14026.73858224835931 
	-134.8690947511440186 3436.303337719979027 14025.70111095079665 
	-134.8690947511491345 3435.014348890069414 14000.28100961961172 
	-134.8690947511636296 3435.853178347337234 13966.69373965736304 
	-134.8690947511667559 3441.53975031352411 13921.32341023041045 
	-134.8690947511750835 3447.724119343984057 13888.63573730074495 
	-134.8690947511808531 3457.410896314726415 13852.48493115875317 
	-134.8690947511865659 3469.771840394937499 13817.15907960929144 
	-134.8690947511917102 3484.738245055188145 13782.85574451837056 
	-134.8690947511947513 3502.226268314231675 13749.76678952415205 
	-134.8690947512028231 3522.13811005596699 13718.07720513737877 
	-134.8690947512088201 3544.362517139286865 13687.96434803184638 
	-134.8690947512159823 3571.487350970715397 13656.44424992196582 
	-134.8690947512185687 3604.250924570483221 13624.48734518546917 
	-134.8690947512256457 3643.286805338103932 13593.35754868319964 
	-134.8690947512253899 3681.732934562088303 13568.52630970943574 
	-134.8690947512293974 3718.498651547234658 13549.09553798267007 
	-134.8690947512296248 3752.801852951025467 13534.12890301109837 
	-134.8690947512315574 3788.127768467898022 13521.76814282147643 
	-134.8690947512325806 3830.303575449333948 13510.46659450094194 
	-134.869094751232609 3879.542922850383547 13502.10032374538241 
	-134.8690947512324669 3935.642744128961112 13498.95008521982527 
	-134.8690947512314438 3991.742579556088458 13502.10034321347302 
	-134.8690947512300227 4034.826976856200417 13509.42097877982451 
	-134.8690947512289426 4065.082407892639367 13516.92474573587242 
	-134.8690947512279195 4089.045316653876853 13523.82848979137998 
	-134.8690947512261005 4130.259506424509709 13538.24827964788892 
	-134.8690947512217235 4175.313568628752364 13559.94455777787334 
	-134.8690947512176024 4212.284060085594319 13583.17646780955874 
	-134.869094751216636 4232.622244520104687 13597.60704422454546 
	-134.8690947512152434 4257.352824587093892 13616.58325153833357 
	-134.8690947512049547 4289.938993396323895 13645.70367161768991 
	-134.8690947511967977 4327.379654431219933 13687.60018586609294 
	-134.8690947511793752 4359.894379493533961 13733.42492060279437 
	-134.8690947511493903 4387.07357189043887 13782.60230022759424 
	-134.8690947511200022 4408.575845328953619 13834.51344378659269 
	-134.8690947510900457 4424.13080409102713 13888.50572755157918 
	-134.8690947510542628 4431.973805372665993 13934.66770479941079 
	-134.8690947510429794 4434.725046832891167 13967.28971934676338 
	-134.8690947510392562 4435.413399838166697 13983.6393022279226 
	-134.8690947510383467 4435.585493713496362 13991.8189256914975 
	-134.8690947510381761 4435.628522788731971 13995.90933980372029 
	-134.8690947510381193 4435.640816093792637 13998.24680567631185 
	-134.8690947510380624 4435.642865197304673 13999.4155529342861 
	-134.8690947510381193 4435.642865180919216 13999.99992657527764 
	-51.53576141797953625 4435.642865180917397 13999.99992657527764 
	-51.53576141797948651 4435.642865049830107 14004.67491570320453 
	-51.53576141797901755 4435.511720065484042 14014.02489549553684 
	-51.53576141797850596 4434.72508302053302 14032.71013777737789 
	-51.5357614179768575 4432.759703632747915 14056.01155503164955 
	-51.5357614179752872 4428.83690759642468 14083.79696651022277 
	-51.53576141797400112 4421.53805730062777 14120.49278924884129 
	-51.5357614179689989 4411.16820067721892 14156.48760115123696 
	-51.53576141796788335 4397.824826716520874 14191.44200220978928 
	-51.53576141796694543 4382.543511630921785 14225.59367359365569 
	-51.53576141796314403 4364.423961553256959 14258.37847527712438 
	-51.53576141796254007 4343.63708843627046 14289.48734336783127 
	-51.53576141796149557 4321.139394651466318 14319.38229119119933 
	-51.5357614179590513 4289.938889577133523 14354.29607750290415 
	-51.53576141795689125 4249.594096074606568 14390.34998821020599 
	-51.53576141795524279 4207.365976797928852 14420.70984085836426 
	-51.53576141795453935 4171.333190474120784 14441.51349165059219 
	-51.53576141795437593 4145.116808543825755 14454.13841008785494 
	-51.53576141795437593 4129.880332088931937 14460.78590174700912 
	-51.53576141795408461 4099.085677616820249 14473.31799350610527 
	-51.53576141795360854 4059.265223308171699 14485.60041597794043 
	-51.53576141795340249 4016.362293228567978 14493.71680394038412 
	-51.53576141795345222 3991.63805638646636 14496.97193943588718 
	-51.53576141795331012 3966.809326737607989 14499.30022131213627 
	-51.53576141795350907 3944.992730326086075 14500.11660700028733 
	-51.53576141795326748 3926.292769259228407 14499.94170734820182 
	-51.53576141795339538 3913.830492127029174 14499.59205451853086 
	-51.53576141795349486 3892.044380088177149 14498.36863881644967 
	-51.53576141795358012 3861.052077651126638 14494.87669752532747 
	-51.53576141795385013 3824.278458233907713 14487.91873134374691 
	-51.53576141795427645 3788.127631599668348 14478.23216197515649 
	-51.53576141795454646 3752.801768138230727 14465.87110892390774 
	-51.53576141795496568 3718.498426487260076 14450.90472027733085 
	-51.53576141795555543 3685.409438255707755 14433.4166920484422 
	-51.53576141795598886 3653.719866308358178 14413.50480842800971 
	-51.53576141795655019 3623.606871749956099 14391.2805115369265 
	-51.53576141795723231 3599.966969554511707 14370.93666393937201 
	-51.53576141795748811 3582.006808613939484 14353.6358443735844 
	-51.53576141795798549 3564.70597863618832 14335.67568976603798 
	-51.53576141795868182 3544.362128832171038 14312.03579834255834 
	-51.53576141795965526 3522.137767025656103 14281.92283760003556 
	-51.53576141795998922 3502.225926809607699 14250.23325775416743 
	-51.53576141796121135 3482.79461852020313 14213.46778974207518 
	-51.53576141796237664 3465.016560913333706 14171.29388577919053 
	-51.53576141796414589 3450.300125266368468 14123.58335304339016 
	-51.53576141796713728 3442.88016071873426 14086.87943047289991 
	-51.5357614179678194 3439.755625038901144 14064.23670969183695 
	-51.53576141796789045 3438.773581284257034 14055.98367996224806 
	-51.53576141796789045 3437.894517974711562 14047.71904526376966 
	-51.53576141796813204 3437.170095529409082 14039.43893767527152 
	-51.53576141796820309 3436.671844952435549 14032.18367914196824 
	-51.53576141796825993 3436.456655188413606 14028.55393239876139 
	-51.53576141796824572 3436.357540030160635 14026.73858224835931 
	-51.53576141796828836 3436.303337719977662 14025.70111095079665 
	-51.53576141796744992 3435.014348890068504 14000.28100961961172 
	-51.5357614179654604 3435.853178347337234 13966.69373965736304 
	-51.53576141796490617 3441.5397503135232 13921.32341023041045 
	-51.53576141796377641 3447.724119343983602 13888.63573730074495 
	-51.53576141796270349 3457.410896314725505 13852.48493115875317 
	-51.53576141796200716 3469.771840394937044 13817.15907960929144 
	-51.53576141796106924 3484.73824505518769 13782.85574451837056 
	-51.53576141796061449 3502.226268314230765 13749.76678952415205 
	-51.53576141795926446 3522.138110055966536 13718.07720513737877 
	-51.53576141795851839 3544.362517139285956 13687.96434803184638 
	-51.53576141795704046 3571.487350970714488 13656.44424992196582 
	-51.53576141795684862 3604.250924570482766 13624.48734518546917 
	-51.53576141795539201 3643.286805338103932 13593.35754868319964 
	-51.5357614179555128 3681.732934562087848 13568.52630970943574 
	-51.5357614179545962 3718.498651547233749 13549.09553798267007 
	-51.53576141795447541 3752.801852951025012 13534.12890301109837 
	-51.53576141795413434 3788.127768467897567 13521.76814282147643 
	-51.53576141795363696 3830.303575449334403 13510.46659450094194 
	-51.53576141795353749 3879.542922850383547 13502.10032374538241 
	-51.53576141795331722 3935.642744128960658 13498.95008521982527 
	-51.53576141795319643 3991.742579556088913 13502.10034321347302 
	-51.53576141795322485 4034.826976856200417 13509.42097877982451 
	-51.53576141795325327 4065.082407892639367 13516.92474573587242 
	-51.53576141795340959 4089.045316653876853 13523.82848979137998 
	-51.5357614179532959 4130.259506424509709 13538.24827964788892 
	-51.5357614179540775 4175.313568628752364 13559.94455777787334 
	-51.53576141795423382 4212.2840600855925 13583.17646780955874 
	-51.53576141795439014 4232.622244520103777 13597.60704422454546 
	-51.53576141795448962 4257.352824587092982 13616.58325153833357 
	-51.53576141795582544 4289.938993396322985 13645.70367161768991 
	-51.53576141795690546 4327.379654431219933 13687.60018586609294 
	-51.53576141795922183 4359.894379493533052 13733.42492060279437 
	-51.53576141796358456 4387.07357189043887 13782.60230022759424 
	-51.53576141796769861 4408.575845328954529 13834.51344378659269 
	-51.53576141797206844 4424.13080409102713 13888.50572755157918 
	-51.5357614179771204 4431.973805372666902 13934.66770479941079 
	-51.53576141797893229 4434.725046832891167 13967.28971934676338 
	-51.53576141797926624 4435.413399838167607 13983.6393022279226 
	-51.53576141797955046 4435.585493713496362 13991.8189256914975 
	-51.53576141797950072 4435.628522788731971 13995.90933980372029 
	-51.53576141797954335 4435.640816093791727 13998.24680567631185 
	-51.53576141797954335 4435.642865197303763 13999.4155529342861 
	-51.53576141797953625 4435.642865180917397 13999.99992657527764 
	31.79757191535379235 4435.642865180917397 13999.99992657527764 
	31.79757191535383143 4435.642865049830107 14004.67491570320453 
	31.79757191535432526 4435.511720065484042 14014.02489549553684 
	31.79757191535478 4434.72508302053302 14032.71013777737789 
	31.79757191535648886 4432.759703632747915 14056.01155503164955 
	31.79757191535799876 4428.83690759642468 14083.79696651022277 
	31.79757191535934169 4421.53805730062777 14120.49278924884129 
	31.79757191536434746 4411.16820067721892 14156.48760115123696 
	31.79757191536540262 4397.824826716520874 14191.44200220978928 
	31.79757191536648264 4382.543511630921785 14225.59367359365569 
	31.79757191537011707 4364.423961553256959 14258.37847527712438 
	31.79757191537083116 4343.63708843627046 14289.48734336783127 
	31.79757191537174776 4321.139394651466318 14319.38229119119933 
	31.79757191537429506 4289.938889577133523 14354.29607750290415 
	31.79757191537639471 4249.594096074606568 14390.34998821020599 
	31.79757191537813199 4207.365976797928852 14420.70984085836426 
	31.79757191537870398 4171.333190474120784 14441.51349165059219 
	31.79757191537894911 4145.116808543825755 14454.13841008785494 
	31.79757191537899175 4129.880332088931937 14460.78590174700912 
	31.79757191537910188 4099.085677616820249 14473.31799350610527 
	31.79757191537983374 4059.265223308171244 14485.60041597794043 
	31.79757191537986927 4016.362293228567523 14493.71680394038412 
	31.79757191537994743 3991.638056386465905 14496.97193943588718 
	31.79757191537990124 3966.809326737607535 14499.30022131213627 
	31.79757191538005046 3944.992730326085621 14500.11660700028733 
	31.79757191537999006 3926.292769259227953 14499.94170734820182 
	31.79757191537994743 3913.83049212702872 14499.59205451853086 
	31.79757191537987637 3892.044380088176695 14498.36863881644967 
	31.79757191537969518 3861.052077651126183 14494.87669752532747 
	31.79757191537945005 3824.278458233907259 14487.91873134374691 
	31.79757191537912675 3788.127631599667893 14478.23216197515649 
	31.79757191537876437 3752.801768138230273 14465.87110892390774 
	31.79757191537832028 3718.498426487259621 14450.90472027733085 
	31.79757191537784067 3685.4094382557073 14433.4166920484422 
	31.79757191537724026 3653.719866308357723 14413.50480842800971 
	31.79757191537690275 3623.606871749955644 14391.2805115369265 
	31.79757191537605365 3599.966969554511252 14370.93666393937201 
	31.79757191537579786 3582.006808613939029 14353.6358443735844 
	31.79757191537552785 3564.705978636187865 14335.67568976603798 
	31.79757191537446204 3544.362128832170583 14312.03579834255834 
	31.79757191537385808 3522.137767025655648 14281.92283760003556 
	31.79757191537320082 3502.225926809607245 14250.23325775416743 
	31.79757191537226291 3482.794618520202675 14213.46778974207518 
	31.797571915370753 3465.016560913333251 14171.29388577919053 
	31.79757191536936745 3450.300125266368013 14123.58335304339016 
	31.79757191536605276 3442.880160718733805 14086.87943047289991 
	31.79757191536553762 3439.755625038900689 14064.23670969183695 
	31.79757191536547012 3438.773581284256579 14055.98367996224806 
	31.79757191536539906 3437.894517974711107 14047.71904526376966 
	31.79757191536516814 3437.170095529408627 14039.43893767527152 
	31.79757191536511485 3436.671844952435094 14032.18367914196824 
	31.79757191536507932 3436.456655188413151 14028.55393239876139 
	31.79757191536508287 3436.35754003016018 14026.73858224835931 
	31.79757191536506866 3436.303337719977208 14025.70111095079665 
	31.7975719153657792 3435.01434889006805 14000.28100961961172 
	31.79757191536794281 3435.85317834733678 13966.69373965736304 
	31.79757191536839045 3441.539750313522745 13921.32341023041045 
	31.79757191536965166 3447.724119343983148 13888.63573730074495 
	31.79757191537051497 3457.410896314725051 13852.48493115875317 
	31.79757191537141026 3469.771840394936589 13817.15907960929144 
	31.79757191537221672 3484.738245055187235 13782.85574451837056 
	31.79757191537272831 3502.22626831423031 13749.76678952415205 
	31.79757191537399663 3522.138110055966081 13718.07720513737877 
	31.79757191537496652 3544.362517139285501 13687.96434803184638 
	31.79757191537610339 3571.487350970714033 13656.44424992196582 
	31.79757191537666472 3604.250924570482312 13624.48734518546917 
	31.79757191537779448 3643.286805338103477 13593.35754868319964 
	31.79757191537797212 3681.732934562087394 13568.52630970943574 
	31.79757191537867556 3718.498651547233294 13549.09553798267007 
	31.79757191537885674 3752.801852951024557 13534.12890301109837 
	31.79757191537929373 3788.127768467897113 13521.76814282147643 
	31.79757191537959216 3830.303575449333948 13510.46659450094194 
	31.79757191537983729 3879.542922850383093 13502.10032374538241 
	31.79757191538001138 3935.642744128960203 13498.95008521982527 
	31.79757191538013217 3991.742579556088458 13502.10034321347302 
	31.79757191538006111 4034.826976856199963 13509.42097877982451 
	31.79757191538006111 4065.082407892638912 13516.92474573587242 
	31.7975719153799794 4089.045316653876398 13523.82848979137998 
	31.79757191537992256 4130.259506424509709 13538.24827964788892 
	31.79757191537945005 4175.313568628752364 13559.94455777787334 
	31.79757191537901306 4212.2840600855925 13583.17646780955874 
	31.79757191537895622 4232.622244520103777 13597.60704422454546 
	31.79757191537885674 4257.352824587092982 13616.58325153833357 
	31.79757191537750316 4289.938993396322985 13645.70367161768991 
	31.79757191537646221 4327.379654431219933 13687.60018586609294 
	31.79757191537407479 4359.894379493533052 13733.42492060279437 
	31.79757191536978667 4387.07357189043887 13782.60230022759424 
	31.79757191536562999 4408.575845328954529 13834.51344378659269 
	31.79757191536129923 4424.13080409102713 13888.50572755157918 
	31.79757191535613714 4431.973805372666902 13934.66770479941079 
	31.79757191535448513 4434.725046832891167 13967.28971934676338 
	31.79757191535396288 4435.413399838167607 13983.6393022279226 
	31.79757191535383498 4435.585493713496362 13991.8189256914975 
	31.7975719153537959 4435.628522788731971 13995.90933980372029 
	31.79757191535378524 4435.640816093791727 13998.24680567631185 
	31.79757191535378524 4435.642865197303763 13999.4155529342861 
	31.79757191535379235 4435.642865180917397 13999.99992657527764 
	0 
	
	0 
	0 
	94 0 0.004464285714285714038 0.008928571428571428076 0.01785714285714285615 0.02678571428571428423 0.0357142857142857123 0.05357142857142856845 0.0625 0.07142857142857142461 0.08928571428571427382 0.09821428571428569843 0.1071428571428571369 0.125 0.1428571428571428492 0.1587301587301587213 0.1746031746031745935 0.1825396825396825295 0.1865079365079365115 0.1904761904761904656 0.2142857142857142738 0.226190476190476164 0.232142857142857123 0.238095238095238082 0.2499999999999999722 0.2529761904761904656 0.2559523809523809312 0.2619047619047618625 0.2738095238095237804 0.2857142857142856984 0.2976190476190476164 0.3095238095238095344 0.3214285714285713969 0.3333333333333333148 0.3452380952380952328 0.3571428571428570953 0.3690476190476190133 0.375 0.3809523809523809312 0.3928571428571428492 0.4047619047619047672 0.4166666666666666297 0.4285714285714285476 0.4444444444444444198 0.4603174603174602919 0.476190476190476164 0.4801587301587301182 0.4821428571428570953 0.4841269841269840724 0.4880952380952380265 0.4900793650793650036 0.4910714285714284921 0.4915674603174602364 0.491815476190476164 0.4920634920634920362 0.5158730158730158166 0.5238095238095237249 0.5357142857142855874 0.5476190476190475609 0.5595238095238095344 0.5714285714285713969 0.5833333333333332593 0.5952380952380951218 0.6071428571428569843 0.6190476190476189577 0.6349206349206348854 0.650793650793650702 0.6666666666666666297 0.6785714285714286031 0.6904761904761904656 0.7023809523809523281 0.7142857142857141906 0.7321428571428569843 0.749999999999999889 0.7678571428571427937 0.7857142857142855874 0.7916666666666665186 0.7976190476190474499 0.8095238095238094234 0.8333333333333332593 0.8452380952380951218 0.851190476190476053 0.8571428571428570953 0.875 0.8928571428571427937 0.9107142857142856984 0.9285714285714286031 0.9464285714285713969 0.9642857142857143016 0.9821428571428572063 0.9910714285714286031 0.9955357142857143016 0.9977678571428572063 0.9988839285714286031 0.9994419642857143016 
	0 
	0 
	0 
	F 1 F 0 F 1 F 0 } I I I I #
tcoedge-coedge $-1 -1 $-1 $14 $14 $18 $19 reversed $9 $20 -6.283185307179586232 -0 #
tcoedge-coedge $-1 -1 $-1 $21 $22 $11 $16 reversed $12 $23 -6.283185307179586232 -0 #
tedge-edge $-1 -1 $-1 $24 0 $24 6.283185307179586232 $15 $25 forward @7 unknown 0.0006090929470650185192 #
pcurve $-1 -1 $-1 0 forward { exppc nurbs 2 periodic 5 
	0 2 1.570796326794896558 2 3.141592653589793116 2 4.712388980384689674 2 6.283185307179586232 2 
	0 500 1 
	-500 500 0.707106781186543798 
	-500 0 1 
	-500 -500 0.7071067811865463515 
	0 -500 1 
	500 -500 0.7071067811865463515 
	500 0 1 
	500 500 0.707106781186543798 
	0 500 1 
	0 
	plane 31.79757191538692496 3935.642797989818064 14000.00000000000182 1 -3.637978807091713027e-15 0 0 0 -1 forward_v I I I I 
	} 0 0 #
tcoedge-coedge $-1 -1 $-1 $22 $21 $14 $19 forward $12 $26 0 6.283185307179586232 #
tedge-edge $-1 -1 $-1 $27 0 $27 6.283185307179586232 $18 $28 forward @7 unknown 0.0006090929477548661123 #
pcurve $-1 -1 $-1 0 forward { exppc nurbs 2 periodic 5 
	-6.283185307179586232 2 -4.712388980384689674 2 -3.141592653589793116 2 -1.570796326794896558 2 0 2 
	0 500 1 
	500 500 0.707106781186543798 
	500 0 1 
	500 -500 0.7071067811865463515 
	0 -500 1 
	-500 -500 0.7071067811865463515 
	-500 0 1 
	-500 500 0.707106781186543798 
	0 500 1 
	0 
	plane -218.202428084613075 3935.642797989818973 14000.00000000000182 -1 3.637978807091713027e-15 -0 0 0 -1 reverse_v I I I I 
	} 0 0 #
coedge $-1 -1 $-1 $18 $15 $22 $29 reversed $12 $30 #
coedge $-1 -1 $-1 $15 $18 $21 $29 forward $12 $31 #
pcurve $-1 -1 $-1 0 forward { exppc nubs 1 periodic 2 
	-6.283185307179586232 1 -0 1 
	1 1 
	0 1 
	2.726396620975369436e-13 
	spline forward { ref 0 } I I I I 
	} 0 0 #
tvertex-vertex $-1 -1 $-1 $16 $32 9.952806609594651906e-05 #
ellipse-curve $-1 -1 $-1 31.79757191538692496 3935.642797989818064 14000.00000000000182 1 -3.637978807091713027e-15 0 1.818989403545856476e-12 500 0 1 I I #
pcurve $-1 -1 $-1 0 forward { exppc nubs 1 periodic 2 
	0 1 6.283185307179586232 1 
	0 0 
	1 0 
	4.411402399551011509e-13 
	spline forward { ref 0 } I I I I 
	} 0 0 #
tvertex-vertex $-1 -1 $-1 $19 $33 9.952806732422375105e-05 #
ellipse-curve $-1 -1 $-1 -218.202428084613075 3935.642797989818973 14000.00000000000182 1 -3.637978807091713027e-15 0 1.818989403545856476e-12 500 0 1 I I #
edge $-1 -1 $-1 $27 0 $24 1 $22 $34 forward @7 tangent #
pcurve $-1 -1 $-1 -1 $34 0 0 #
pcurve $-1 -1 $-1 1 $34 1 0 #
point $-1 -1 $-1 31.79757191538874395 4435.642797989818064 14000.00000000000182 #
point $-1 -1 $-1 -218.2024280846112561 4435.642797989818973 14000.00000000000182 #
intcurve-curve $-1 -1 $-1 forward { parcur full nubs 3 open 2 
	0 3 1 3 
	-218.2024280843714337 4435.642865180920126 13999.99992657527764 
	-134.8690947510381193 4435.642865180919216 13999.99992657527764 
	-51.53576141797953625 4435.642865180917397 13999.99992657527764 
	31.79757191535379235 4435.642865180917397 13999.99992657527764 
	0 
	
	spline forward { ref 0 } I I I I 
	null_surface 
	nubs 1 open 2 
	0 1 1 1 
	0 0 
	0 1 
	
	nullbs 
	I I 
	0 
	0 
	0 
	surf1 } I I #
End-of-ACIS-data 