700 0 1 0           
4 LibG 20 ASM 224.0.1.65535 NT 24 Wed Jul 17 12:52:13 2019 
1000 9.999999999999999547e-07 1.000000000000000036e-10 
body $-1 -1 $-1 $1 $-1 $2 #
lump $-1 -1 $-1 $-1 $3 $0 #
transform $-1 -1 1 0 0 0 1 0 0 0 1 0 0 0 1 no_rotate no_reflect no_shear #
shell $-1 -1 $-1 $-1 $-1 $4 $-1 $1 #
face $-1 -1 $-1 $5 $6 $3 $-1 $7 forward single #
face $-1 -1 $-1 $8 $9 $3 $-1 $10 reversed single #
loop $-1 -1 $-1 $-1 $11 $4 #
plane-surface $-1 -1 $-1 9531.79757191538738 3935.642797989783503 14000.00000000000182 1 -3.637978807091713027e-15 0 0 0 -1 forward_v I I I I #
face $-1 -1 $-1 $-1 $12 $3 $-1 $13 forward single #
loop $-1 -1 $-1 $-1 $14 $5 #
plane-surface $-1 -1 $-1 9281.79757191538738 3935.642797989784412 14000.00000000000182 1 -3.637978807091713027e-15 0 0 0 -1 forward_v I I I I #
tcoedge-coedge $-1 -1 $-1 $11 $11 $15 $16 forward $6 $17 0 6.283185307179586232 #
loop $-1 -1 $-1 $-1 $18 $8 #
spline-surface $-1 -1 $-1 forward { exactsur full nubs 3 3 periodic open none none 105 2 
	0 3 0.0005580357142857142547 1 0.001116071428571428509 1 0.002232142857142857019 1 0.004464285714285714038 1 
	0.008928571428571428076 1 0.01785714285714285615 1 0.0357142857142857123 1 0.05357142857142856845 1 0.07142857142857142461 1 
	0.08928571428571427382 1 0.1071428571428571369 1 0.1160714285714285754 1 0.125 1 0.1428571428571428492 1 
	0.1587301587301587213 1 0.1746031746031745935 1 0.1904761904761904656 1 0.2023809523809523836 1 0.2142857142857142738 1 
	0.226190476190476164 1 0.238095238095238082 1 0.2499999999999999722 1 0.2619047619047618625 1 0.2738095238095237804 1 
	0.2857142857142856984 1 0.2976190476190476164 1 0.3095238095238095344 1 0.3125 1 0.3154761904761904656 1 
	0.3214285714285713969 1 0.3273809523809523281 1 0.3333333333333333148 1 0.3452380952380952328 1 0.351190476190476164 1 
	0.3571428571428570953 1 0.3630952380952380265 1 0.3690476190476190133 1 0.3809523809523809312 1 0.3869047619047618625 1 
	0.3928571428571428492 1 0.4047619047619047672 1 0.4166666666666666297 1 0.4285714285714285476 1 0.4444444444444444198 1 
	0.4603174603174602919 1 0.476190476190476164 1 0.4801587301587301182 1 0.4821428571428570953 1 0.4841269841269840724 1 
	0.4920634920634920362 1 0.5 1 0.5039682539682539542 1 0.5079365079365079083 1 0.5238095238095237249 1 
	0.5357142857142855874 1 0.5476190476190475609 1 0.5595238095238095344 1 0.5714285714285713969 1 0.5833333333333332593 1 
	0.5892857142857141906 1 0.5952380952380951218 1 0.601190476190476053 1 0.6071428571428569843 1 0.6130952380952379155 1 
	0.6160714285714283811 1 0.616815476190476053 1 0.6175595238095237249 1 0.6190476190476189577 1 0.6349206349206348854 1 
	0.650793650793650702 1 0.6666666666666666297 1 0.6785714285714286031 1 0.6904761904761904656 1 0.7023809523809523281 1 
	0.7142857142857141906 1 0.7321428571428569843 1 0.749999999999999889 1 0.7678571428571427937 1 0.7767857142857141906 1 
	0.7857142857142855874 1 0.7976190476190474499 1 0.8095238095238094234 1 0.8214285714285713969 1 0.8333333333333332593 1 
	0.8452380952380951218 1 0.851190476190476053 1 0.8571428571428570953 1 0.875 1 0.8928571428571427937 1 
	0.9107142857142856984 1 0.9285714285714286031 1 0.9464285714285713969 1 0.9642857142857143016 1 0.9821428571428572063 1 
	0.9866071428571429047 1 0.9910714285714286031 1 0.9955357142857143016 1 0.9977678571428572063 1 0.9988839285714286031 1 
	0.9994419642857143016 1 0.9997209821428572063 1 0.9998604910714286031 1 0.9999302455357143016 1 1 3 
	0 3 1 3 
	9281.797572186344041 4435.64282844126501 13999.99999774348362 
	9281.797572186336765 4435.642828441674283 14000.58437137701731 
	9281.797572186289472 4435.640779388305418 14001.75311862990384 
	9281.797572186243997 4435.628486014716145 14004.09058447783536 
	9281.797572186023899 4435.585456867358516 14008.18099850380713 
	9281.797572185309036 4435.413362537553439 14016.36062157734705 
	9281.79757218238592 4434.72500784463773 14032.71020287381361 
	9281.797572173056324 4431.973758755365452 14065.33221023845908 
	9281.797572142528225 4424.130735801370975 14111.49416645943165 
	9281.797572117622622 4408.575745680162981 14165.48641868576487 
	9281.797572090106769 4387.073459021635244 14217.39754771161461 
	9281.797572068913723 4359.894202600870813 14266.57486191335374 
	9281.797572046736605 4332.79864086805992 14304.76217763700879 
	9281.797572040788509 4308.659405121629788 14333.34804516678196 
	9281.797572034931363 4282.956030192558501 14360.53613057193434 
	9281.797572018338542 4249.594176352968134 14390.35009445647302 
	9281.797572004143149 4207.366011789488766 14420.70989330041448 
	9281.79757199665255 4164.126536629579277 14445.67408639134374 
	9281.797571990922734 4122.40888607200668 14464.4978998861734 
	9281.797571983714079 4083.157831242953762 14478.23213808093897 
	9281.797571977800544 4047.007057569263452 14487.91884418976224 
	9281.797571975121173 4010.233421537573122 14494.87669120421015 
	9281.797571970484569 3973.042676724866396 14499.06710748240221 
	9281.797571966148098 3935.642763418009963 14500.46650509373103 
	9281.797571962044458 3898.24285624735694 14499.06710394971378 
	9281.797571958286426 3861.052100140912444 14494.87671434173353 
	9281.797571954455634 3824.278490113382304 14487.91876884152407 
	9281.797571951477948 3788.127664729532171 14478.23219971700019 
	9281.797571948211043 3761.633284444514629 14468.96139174681048 
	9281.797571947807228 3744.28987979078056 14461.96673009187725 
	9281.797571947594406 3732.816812823381952 14457.08827157107044 
	9281.797571946935932 3718.650289693945524 14450.58952026857332 
	9281.797571946239259 3701.95396714311164 14442.16079574394826 
	9281.797571945720847 3680.127920027111941 14430.09806219904567 
	9281.797571943172443 3659.001546860666622 14416.82348249813913 
	9281.79757194296144 3638.663428283049598 14402.3927269901269 
	9281.7975719424212 3623.825137541593449 14391.00695656513017 
	9281.797571941944625 3609.422999183048887 14379.07426773099724 
	9281.797571941544447 3590.828387099360953 14362.45722210453641 
	9281.797571939978297 3573.185559134392861 14344.81441319933219 
	9281.797571939632689 3556.568518927896093 14326.21979530051976 
	9281.797571939263435 3540.658244975243178 14307.01696726205228 
	9281.797571937848261 3522.13784481288485 14281.92291073172055 
	9281.797571937426255 3502.226126144044429 14250.23326202846874 
	9281.79757193628393 3482.79472728113933 14213.46785566872131 
	9281.797571935310771 3465.016896884452763 14171.29385706105859 
	9281.797571934830557 3450.300372536146369 14123.58337810905505 
	9281.797571933937434 3442.880522816410576 14086.87943067552442 
	9281.797571933837389 3439.755984283723137 14064.23671489406479 
	9281.797571933826475 3438.773944752635089 14055.98368454139199 
	9281.797571933813742 3437.455341671401584 14043.58673387092495 
	9281.797571933731888 3436.057456368667772 14024.93327471479279 
	9281.797571933711879 3435.539276216398775 14004.15554515285476 
	9281.797571933715517 3435.746564915560612 13987.53336660120294 
	9281.797571933722793 3436.678779263987508 13962.61558011822672 
	9281.797571934048392 3439.992816963496807 13929.49527994510754 
	9281.797571934474036 3447.724182612609638 13888.63574593979502 
	9281.797571934941516 3457.410634531217056 13852.48492220940716 
	9281.797571935552696 3469.771752827418368 13817.1590872898505 
	9281.797571936156601 3484.7380953673146 13782.85574447581348 
	9281.797571936953318 3499.311513487406501 13755.2816363804377 
	9281.797571937209796 3512.182041826952172 13733.92197569721066 
	9281.797571937468092 3522.42712338960655 13718.27432785487508 
	9281.797571937751854 3533.250153000306909 13703.02071567248822 
	9281.797571938037436 3544.635951423966617 13688.1824474570858 
	9281.797571938366673 3554.579839477866699 13676.18065005438075 
	9281.797571938464898 3561.258743238146508 13668.56482806350323 
	9281.797571938484907 3564.382053560593704 13665.08624004527883 
	9281.797571938483088 3566.475081613186376 13662.77694317221176 
	9281.797571938775945 3579.30592568890188 13648.81819371960773 
	9281.797571942070135 3604.251027302869716 13624.48747696624559 
	9281.797571943368894 3643.286641334252636 13593.3573260205103 
	9281.797571946308381 3681.732843553015755 13568.5261432776515 
	9281.7975719492606 3718.498508726005639 13549.09524606464038 
	9281.797571950461133 3752.801757692327556 13534.12867539717081 
	9281.797571954106388 3788.127671102645309 13521.76782319929407 
	9281.797571956843967 3830.303546449208625 13510.46643367119032 
	9281.797571964742019 3879.542888171793948 13502.10012027098855 
	9281.797571971264915 3935.642785593202916 13498.94963668374658 
	9281.797571980192515 3982.392591702073332 13501.5752585375667 
	9281.797571982759109 4019.439817185912489 13506.80585149407489 
	9281.797571985640388 4050.01960804919463 13512.88836587423066 
	9281.797571989896824 4083.157857598269857 13521.76776341924051 
	9281.797571993438396 4118.483736906887316 13534.12873161500829 
	9281.797571997425621 4152.787038163437501 13549.09520399256871 
	9281.797572002824381 4185.876017550282995 13566.58321959487694 
	9281.797572009905707 4212.283988354699432 13583.17646284555303 
	9281.797572011981174 4232.622064317726654 13597.60726785768202 
	9281.797572014989782 4257.352691409850195 13616.58338130780612 
	9281.797572033674442 4289.93880086135232 13645.70389127866292 
	9281.797572051054885 4327.37958994994915 13687.6002806350898 
	9281.797572073810443 4359.894119618737932 13733.42516839197742 
	9281.797572095592841 4387.073429719655906 13782.60243891160462 
	9281.79757212295408 4408.575705861250754 13834.51358588445692 
	9281.797572145813319 4424.13066612507464 13888.50583595884564 
	9281.797572176588801 4431.189449359650098 13930.0515893140182 
	9281.797572180839779 4433.938883082287248 13957.96922777374311 
	9281.797572182842487 4434.921721658292881 13971.96109526238979 
	9281.79757218530176 4435.413351183171471 13983.63937563681247 
	9281.797572186038451 4435.58545901598518 13991.81899665568744 
	9281.797572186265825 4435.628485661125524 13995.90941106283753 
	9281.797572186322213 4435.639242796423787 13997.95469361429059 
	9281.797572186334946 4435.641932017914769 13998.97734433424012 
	9281.797572186342222 4435.642604337104785 13999.48867087009785 
	9281.79757218634586 4435.642796424639528 13999.7808576306852 
	9281.79757218634586 4435.642828441214078 13999.92695103929327 
	9281.797572186344041 4435.64282844126501 13999.99999774348362 
	9365.130905519677981 4435.642828441264101 13999.99999774348362 
	9365.130905519670705 4435.642828441673373 14000.58437137701731 
	9365.130905519623411 4435.640779388304509 14001.75311862990384 
	9365.130905519577937 4435.628486014715236 14004.09058447783536 
	9365.130905519357839 4435.585456867357607 14008.18099850380713 
	9365.130905518642976 4435.41336253755253 14016.36062157734705 
	9365.13090551571986 4434.725007844636821 14032.71020287381361 
	9365.130905506390263 4431.973758755364543 14065.33221023845908 
	9365.130905475862164 4424.130735801370065 14111.49416645943165 
	9365.130905450956561 4408.575745680162072 14165.48641868576487 
	9365.130905423440709 4387.073459021634335 14217.39754771161461 
	9365.130905402247663 4359.894202600869903 14266.57486191335374 
	9365.130905380070544 4332.79864086805901 14304.76217763700879 
	9365.130905374122449 4308.659405121628879 14333.34804516678196 
	9365.130905368265303 4282.956030192557591 14360.53613057193434 
	9365.130905351672482 4249.594176352967224 14390.35009445647302 
	9365.130905337477088 4207.366011789487857 14420.70989330041448 
	9365.13090532998649 4164.126536629578368 14445.67408639134374 
	9365.130905324256673 4122.408886072005771 14464.4978998861734 
	9365.130905317048018 4083.157831242953307 14478.23213808093897 
	9365.130905311134484 4047.007057569262997 14487.91884418976224 
	9365.130905308455112 4010.233421537572667 14494.87669120421015 
	9365.130905303818508 3973.042676724865942 14499.06710748240221 
	9365.130905299482038 3935.642763418009508 14500.46650509373103 
	9365.130905295378398 3898.242856247356485 14499.06710394971378 
	9365.130905291620365 3861.052100140911989 14494.87671434173353 
	9365.130905287789574 3824.278490113381849 14487.91876884152407 
	9365.130905284811888 3788.127664729531716 14478.23219971700019 
	9365.130905281544983 3761.633284444514175 14468.96139174681048 
	9365.130905281141168 3744.289879790780105 14461.96673009187725 
	9365.130905280928346 3732.816812823381497 14457.08827157107044 
	9365.130905280269872 3718.650289693945069 14450.58952026857332 
	9365.130905279573199 3701.953967143111186 14442.16079574394826 
	9365.130905279054787 3680.127920027111486 14430.09806219904567 
	9365.130905276506383 3659.001546860666167 14416.82348249813913 
	9365.13090527629538 3638.663428283049143 14402.3927269901269 
	9365.13090527575514 3623.825137541592994 14391.00695656513017 
	9365.130905275278565 3609.422999183048432 14379.07426773099724 
	9365.130905274878387 3590.828387099360498 14362.45722210453641 
	9365.130905273312237 3573.185559134392406 14344.81441319933219 
	9365.130905272966629 3556.568518927895639 14326.21979530051976 
	9365.130905272597374 3540.658244975242724 14307.01696726205228 
	9365.130905271182201 3522.137844812884396 14281.92291073172055 
	9365.130905270760195 3502.226126144043974 14250.23326202846874 
	9365.13090526961787 3482.794727281138876 14213.46785566872131 
	9365.13090526864471 3465.016896884452308 14171.29385706105859 
	9365.130905268164497 3450.300372536145915 14123.58337810905505 
	9365.130905267271373 3442.880522816410121 14086.87943067552442 
	9365.130905267171329 3439.755984283722682 14064.23671489406479 
	9365.130905267160415 3438.773944752634634 14055.98368454139199 
	9365.130905267147682 3437.455341671401129 14043.58673387092495 
	9365.130905267065828 3436.057456368667317 14024.93327471479279 
	9365.130905267045819 3435.539276216398321 14004.15554515285476 
	9365.130905267049457 3435.746564915560157 13987.53336660120294 
	9365.130905267056733 3436.678779263987053 13962.61558011822672 
	9365.130905267382332 3439.992816963496352 13929.49527994510754 
	9365.130905267807975 3447.724182612609184 13888.63574593979502 
	9365.130905268275455 3457.410634531216601 13852.48492220940716 
	9365.130905268886636 3469.771752827417913 13817.1590872898505 
	9365.13090526949054 3484.738095367314145 13782.85574447581348 
	9365.130905270287258 3499.311513487406046 13755.2816363804377 
	9365.130905270543735 3512.182041826951718 13733.92197569721066 
	9365.130905270802032 3522.427123389606095 13718.27432785487508 
	9365.130905271085794 3533.250153000306454 13703.02071567248822 
	9365.130905271371375 3544.635951423966162 13688.1824474570858 
	9365.130905271700613 3554.579839477866244 13676.18065005438075 
	9365.130905271798838 3561.258743238146053 13668.56482806350323 
	9365.130905271818847 3564.382053560593249 13665.08624004527883 
	9365.130905271817028 3566.475081613185921 13662.77694317221176 
	9365.130905272109885 3579.305925688901425 13648.81819371960773 
	9365.130905275404075 3604.251027302869261 13624.48747696624559 
	9365.130905276702833 3643.286641334252181 13593.3573260205103 
	9365.13090527964232 3681.7328435530153 13568.5261432776515 
	9365.13090528259454 3718.498508726005184 13549.09524606464038 
	9365.130905283795073 3752.801757692327101 13534.12867539717081 
	9365.130905287440328 3788.127671102644854 13521.76782319929407 
	9365.130905290177907 3830.30354644920817 13510.46643367119032 
	9365.130905298075959 3879.542888171793493 13502.10012027098855 
	9365.130905304598855 3935.642785593202461 13498.94963668374658 
	9365.130905313526455 3982.392591702072878 13501.5752585375667 
	9365.130905316093049 4019.439817185912034 13506.80585149407489 
	9365.130905318974328 4050.019608049194176 13512.88836587423066 
	9365.130905323230763 4083.157857598269402 13521.76776341924051 
	9365.130905326772336 4118.483736906886406 13534.12873161500829 
	9365.13090533075956 4152.787038163436591 13549.09520399256871 
	9365.130905336158321 4185.876017550282086 13566.58321959487694 
	9365.130905343239647 4212.283988354698522 13583.17646284555303 
	9365.130905345315114 4232.622064317725744 13597.60726785768202 
	9365.130905348323722 4257.352691409849285 13616.58338130780612 
	9365.130905367008381 4289.93880086135141 13645.70389127866292 
	9365.130905384388825 4327.37958994994824 13687.6002806350898 
	9365.130905407144382 4359.894119618737022 13733.42516839197742 
	9365.130905428926781 4387.073429719654996 13782.60243891160462 
	9365.130905456288019 4408.575705861249844 13834.51358588445692 
	9365.130905479147259 4424.130666125073731 13888.50583595884564 
	9365.130905509922741 4431.189449359649188 13930.0515893140182 
	9365.130905514173719 4433.938883082286338 13957.96922777374311 
	9365.130905516176426 4434.921721658291972 13971.96109526238979 
	9365.1309055186357 4435.413351183170562 13983.63937563681247 
	9365.130905519372391 4435.58545901598427 13991.81899665568744 
	9365.130905519599764 4435.628485661124614 13995.90941106283753 
	9365.130905519656153 4435.639242796422877 13997.95469361429059 
	9365.130905519668886 4435.641932017913859 13998.97734433424012 
	9365.130905519676162 4435.642604337103876 13999.48867087009785 
	9365.1309055196798 4435.642796424638618 13999.7808576306852 
	9365.1309055196798 4435.642828441213169 13999.92695103929327 
	9365.130905519677981 4435.642828441264101 13999.99999774348362 
	9448.464238860304249 4435.642828441263191 13999.99999774348362 
	9448.464238860296973 4435.642828441672464 14000.58437137701731 
	9448.464238860246041 4435.640779388303599 14001.75311862990384 
	9448.464238860202386 4435.628486014715236 14004.09058447783536 
	9448.464238859975012 4435.585456867357607 14008.18099850380713 
	9448.464238859241959 4435.413362537550711 14016.36062157734705 
	9448.46423885623517 4434.725007844635911 14032.71020287381361 
	9448.464238846658191 4431.973758755363633 14065.33221023845908 
	9448.464238815306089 4424.130735801370065 14111.49416645943165 
	9448.464238789732917 4408.575745680161162 14165.48641868576487 
	9448.464238761474917 4387.073459021634335 14217.39754771161461 
	9448.464238739712528 4359.894202600869903 14266.57486191335374 
	9448.464238716940599 4332.79864086805901 14304.76217763700879 
	9448.464238710830614 4308.659405121629788 14333.34804516678196 
	9448.464238704817035 4282.956030192557591 14360.53613057193434 
	9448.464238687774923 4249.594176352968134 14390.35009445647302 
	9448.464238673199361 4207.366011789488766 14420.70989330041448 
	9448.464238665506855 4164.126536629579277 14445.67408639134374 
	9448.464238659620605 4122.40888607200668 14464.4978998861734 
	9448.464238652219137 4083.157831242954217 14478.23213808093897 
	9448.464238646145532 4047.007057569263907 14487.91884418976224 
	9448.464238643391582 4010.233421537573577 14494.87669120421015 
	9448.464238638631286 3973.042676724866851 14499.06710748240221 
	9448.464238634176581 3935.642763418009963 14500.46650509373103 
	9448.464238629961983 3898.24285624735694 14499.06710394971378 
	9448.464238626105725 3861.052100140912444 14494.87671434173353 
	9448.464238622169432 3824.278490113382759 14487.91876884152407 
	9448.46423861911353 3788.127664729532171 14478.23219971700019 
	9448.464238615757495 3761.633284444514629 14468.96139174681048 
	9448.464238615344584 3744.28987979078056 14461.96673009187725 
	9448.464238615126305 3732.816812823381497 14457.08827157107044 
	9448.464238614449641 3718.650289693945069 14450.58952026857332 
	9448.464238613734778 3701.953967143111186 14442.16079574394826 
	9448.464238613203634 3680.127920027111486 14430.09806219904567 
	9448.464238610587927 3659.001546860665712 14416.82348249813913 
	9448.464238610371467 3638.663428283048688 14402.3927269901269 
	9448.464238609814856 3623.825137541592539 14391.00695656513017 
	9448.464238609323729 3609.422999183047978 14379.07426773099724 
	9448.464238608914457 3590.828387099360498 14362.45722210453641 
	9448.464238607304651 3573.185559134391951 14344.81441319933219 
	9448.464238606949948 3556.568518927895184 14326.21979530051976 
	9448.464238606569779 3540.658244975242269 14307.01696726205228 
	9448.464238605118226 3522.137844812884396 14281.92291073172055 
	9448.464238604685306 3502.226126144043519 14250.23326202846874 
	9448.464238603510239 3482.794727281138876 14213.46785566872131 
	9448.464238602513433 3465.016896884451853 14171.29385706105859 
	9448.464238602018668 3450.300372536145915 14123.58337810905505 
	9448.464238601101897 3442.88052281641103 14086.87943067552442 
	9448.464238601000034 3439.755984283722682 14064.23671489406479 
	9448.46423860098912 3438.773944752635089 14055.98368454139199 
	9448.464238600976387 3437.455341671401584 14043.58673387092495 
	9448.464238600892713 3436.057456368668227 14024.93327471479279 
	9448.464238600872704 3435.539276216398775 14004.15554515285476 
	9448.464238600876342 3435.746564915560612 13987.53336660120294 
	9448.464238600881799 3436.678779263987508 13962.61558011822672 
	9448.464238601216493 3439.992816963497262 13929.49527994510754 
	9448.46423860165487 3447.724182612609184 13888.63574593979502 
	9448.464238602131445 3457.410634531216601 13852.48492220940716 
	9448.464238602762634 3469.771752827418368 13817.1590872898505 
	9448.464238603381091 3484.738095367314145 13782.85574447581348 
	9448.464238604201455 3499.311513487406955 13755.2816363804377 
	9448.464238604465208 3512.182041826952627 13733.92197569721066 
	9448.464238604730781 3522.427123389607004 13718.27432785487508 
	9448.464238605023638 3533.250153000307364 13703.02071567248822 
	9448.464238605314677 3544.635951423967072 13688.1824474570858 
	9448.464238605654828 3554.579839477867154 13676.18065005438075 
	9448.464238605753053 3561.258743238146963 13668.56482806350323 
	9448.464238605774881 3564.382053560594159 13665.08624004527883 
	9448.464238605771243 3566.475081613186831 13662.77694317221176 
	9448.464238606071376 3579.305925688902335 13648.81819371960773 
	9448.464238609454696 3604.251027302869716 13624.48747696624559 
	9448.464238610788016 3643.28664133425309 13593.3573260205103 
	9448.464238613807538 3681.73284355301621 13568.5261432776515 
	9448.464238616837974 3718.498508726006094 13549.09524606464038 
	9448.46423861806943 3752.80175769232801 13534.12867539717081 
	9448.464238621814729 3788.127671102645763 13521.76782319929407 
	9448.464238624625068 3830.30354644920908 13510.46643367119032 
	9448.464238632735942 3879.542888171794402 13502.10012027098855 
	9448.464238639431642 3935.642785593203371 13498.94963668374658 
	9448.464238648601167 3982.392591702072878 13501.5752585375667 
	9448.464238651236883 4019.439817185912489 13506.80585149407489 
	9448.464238654196379 4050.01960804919463 13512.88836587423066 
	9448.46423865856741 4083.157857598269857 13521.76776341924051 
	9448.464238662207208 4118.483736906886406 13534.12873161500829 
	9448.464238666301753 4152.787038163436591 13549.09520399256871 
	9448.464238671846033 4185.876017550282086 13566.58321959487694 
	9448.464238679118353 4212.283988354698522 13583.17646284555303 
	9448.464238681248389 4232.622064317725744 13597.60726785768202 
	9448.464238684338852 4257.352691409848376 13616.58338130780612 
	9448.46423870352919 4289.93880086135141 13645.70389127866292 
	9448.464238721375295 4327.37958994994824 13687.6002806350898 
	9448.464238744743852 4359.894119618737022 13733.42516839197742 
	9448.464238767111965 4387.073429719654087 13782.60243891160462 
	9448.464238795211713 4408.575705861248935 13834.51358588445692 
	9448.464238818683953 4424.130666125073731 13888.50583595884564 
	9448.464238850290712 4431.189449359648279 13930.0515893140182 
	9448.464238854654468 4433.938883082285429 13957.96922777374311 
	9448.464238856711745 4434.921721658291972 13971.96109526238979 
	9448.464238859232864 4435.413351183170562 13983.63937563681247 
	9448.464238859995021 4435.58545901598427 13991.81899665568744 
	9448.464238860220576 4435.628485661123705 13995.90941106283753 
	9448.46423886028424 4435.639242796422877 13997.95469361429059 
	9448.464238860295154 4435.64193201791295 13998.97734433424012 
	9448.464238860304249 4435.642604337102966 13999.48867087009785 
	9448.464238860306068 4435.642796424637709 13999.7808576306852 
	9448.464238860304249 4435.642828441212259 13999.92695103929327 
	9448.464238860304249 4435.642828441263191 13999.99999774348362 
	9531.797572193638189 4435.642828441263191 13999.99999774348362 
	9531.797572193630913 4435.642828441672464 14000.58437137701731 
	9531.797572193579981 4435.640779388303599 14001.75311862990384 
	9531.797572193536325 4435.628486014715236 14004.09058447783536 
	9531.797572193308952 4435.585456867357607 14008.18099850380713 
	9531.797572192575899 4435.413362537550711 14016.36062157734705 
	9531.797572189569109 4434.725007844635911 14032.71020287381361 
	9531.79757217999213 4431.973758755363633 14065.33221023845908 
	9531.797572148640029 4424.130735801370065 14111.49416645943165 
	9531.797572123066857 4408.575745680161162 14165.48641868576487 
	9531.797572094808856 4387.073459021634335 14217.39754771161461 
	9531.797572073046467 4359.894202600869903 14266.57486191335374 
	9531.797572050274539 4332.79864086805901 14304.76217763700879 
	9531.797572044164554 4308.659405121629788 14333.34804516678196 
	9531.797572038150975 4282.956030192557591 14360.53613057193434 
	9531.797572021108863 4249.594176352968134 14390.35009445647302 
	9531.797572006533301 4207.366011789488766 14420.70989330041448 
	9531.797571998840795 4164.126536629579277 14445.67408639134374 
	9531.797571992954545 4122.40888607200668 14464.4978998861734 
	9531.797571985553077 4083.157831242953762 14478.23213808093897 
	9531.797571979479471 4047.007057569263452 14487.91884418976224 
	9531.797571976725521 4010.233421537573122 14494.87669120421015 
	9531.797571971965226 3973.042676724866396 14499.06710748240221 
	9531.797571967510521 3935.642763418009508 14500.46650509373103 
	9531.797571963295923 3898.242856247356485 14499.06710394971378 
	9531.797571959439665 3861.052100140911989 14494.87671434173353 
	9531.797571955503372 3824.278490113382304 14487.91876884152407 
	9531.79757195244747 3788.127664729531716 14478.23219971700019 
	9531.797571949091434 3761.633284444514175 14468.96139174681048 
	9531.797571948678524 3744.289879790780105 14461.96673009187725 
	9531.797571948460245 3732.816812823381042 14457.08827157107044 
	9531.797571947783581 3718.650289693944615 14450.58952026857332 
	9531.797571947068718 3701.953967143110731 14442.16079574394826 
	9531.797571946537573 3680.127920027111031 14430.09806219904567 
	9531.797571943921866 3659.001546860665258 14416.82348249813913 
	9531.797571943705407 3638.663428283048233 14402.3927269901269 
	9531.797571943148796 3623.825137541592085 14391.00695656513017 
	9531.797571942657669 3609.422999183047523 14379.07426773099724 
	9531.797571942248396 3590.828387099360043 14362.45722210453641 
	9531.797571940638591 3573.185559134391497 14344.81441319933219 
	9531.797571940283888 3556.568518927894729 14326.21979530051976 
	9531.797571939903719 3540.658244975241814 14307.01696726205228 
	9531.797571938452165 3522.137844812883941 14281.92291073172055 
	9531.797571938019246 3502.226126144043064 14250.23326202846874 
	9531.797571936844179 3482.794727281138421 14213.46785566872131 
	9531.797571935847373 3465.016896884451398 14171.29385706105859 
	9531.797571935352607 3450.30037253614546 14123.58337810905505 
	9531.797571934435837 3442.880522816410576 14086.87943067552442 
	9531.797571934333973 3439.755984283722228 14064.23671489406479 
	9531.797571934323059 3438.773944752634634 14055.98368454139199 
	9531.797571934310326 3437.455341671401129 14043.58673387092495 
	9531.797571934226653 3436.057456368667772 14024.93327471479279 
	9531.797571934206644 3435.539276216398321 14004.15554515285476 
	9531.797571934210282 3435.746564915560157 13987.53336660120294 
	9531.797571934215739 3436.678779263987053 13962.61558011822672 
	9531.797571934550433 3439.992816963496807 13929.49527994510754 
	9531.79757193498881 3447.724182612608729 13888.63574593979502 
	9531.797571935465385 3457.410634531216147 13852.48492220940716 
	9531.797571936096574 3469.771752827417913 13817.1590872898505 
	9531.79757193671503 3484.73809536731369 13782.85574447581348 
	9531.797571937535395 3499.311513487406501 13755.2816363804377 
	9531.797571937799148 3512.182041826952172 13733.92197569721066 
	9531.797571938064721 3522.42712338960655 13718.27432785487508 
	9531.797571938357578 3533.250153000306909 13703.02071567248822 
	9531.797571938648616 3544.635951423966617 13688.1824474570858 
	9531.797571938988767 3554.579839477866699 13676.18065005438075 
	9531.797571939086993 3561.258743238146508 13668.56482806350323 
	9531.797571939108821 3564.382053560593704 13665.08624004527883 
	9531.797571939105183 3566.475081613186376 13662.77694317221176 
	9531.797571939405316 3579.30592568890188 13648.81819371960773 
	9531.797571942788636 3604.251027302869261 13624.48747696624559 
	9531.797571944121955 3643.286641334252636 13593.3573260205103 
	9531.797571947141478 3681.732843553015755 13568.5261432776515 
	9531.797571950171914 3718.498508726005639 13549.09524606464038 
	9531.79757195140337 3752.801757692327556 13534.12867539717081 
	9531.797571955148669 3788.127671102645309 13521.76782319929407 
	9531.797571957959008 3830.303546449208625 13510.46643367119032 
	9531.797571966069881 3879.542888171793948 13502.10012027098855 
	9531.797571972765581 3935.642785593202916 13498.94963668374658 
	9531.797571981935107 3982.392591702072423 13501.5752585375667 
	9531.797571984570823 4019.439817185912034 13506.80585149407489 
	9531.797571987530318 4050.019608049194176 13512.88836587423066 
	9531.79757199190135 4083.157857598269402 13521.76776341924051 
	9531.797571995541148 4118.483736906886406 13534.12873161500829 
	9531.797571999635693 4152.787038163436591 13549.09520399256871 
	9531.797572005179973 4185.876017550282086 13566.58321959487694 
	9531.797572012452292 4212.283988354698522 13583.17646284555303 
	9531.797572014582329 4232.622064317725744 13597.60726785768202 
	9531.797572017672792 4257.352691409848376 13616.58338130780612 
	9531.79757203686313 4289.93880086135141 13645.70389127866292 
	9531.797572054709235 4327.37958994994824 13687.6002806350898 
	9531.797572078077792 4359.894119618737022 13733.42516839197742 
	9531.797572100445905 4387.073429719654087 13782.60243891160462 
	9531.797572128545653 4408.575705861248935 13834.51358588445692 
	9531.797572152017892 4424.130666125073731 13888.50583595884564 
	9531.797572183624652 4431.189449359648279 13930.0515893140182 
	9531.797572187988408 4433.938883082285429 13957.96922777374311 
	9531.797572190045685 4434.921721658291972 13971.96109526238979 
	9531.797572192566804 4435.413351183170562 13983.63937563681247 
	9531.797572193328961 4435.58545901598427 13991.81899665568744 
	9531.797572193554515 4435.628485661123705 13995.90941106283753 
	9531.79757219361818 4435.639242796422877 13997.95469361429059 
	9531.797572193629094 4435.64193201791295 13998.97734433424012 
	9531.797572193638189 4435.642604337102966 13999.48867087009785 
	9531.797572193640008 4435.642796424637709 13999.7808576306852 
	9531.797572193638189 4435.642828441212259 13999.92695103929327 
	9531.797572193638189 4435.642828441263191 13999.99999774348362 
	0 
	
	0 
	0 
	103 0 0.0005580357142857142547 0.001116071428571428509 0.002232142857142857019 0.004464285714285714038 0.008928571428571428076 0.01785714285714285615 0.0357142857142857123 0.05357142857142856845 0.07142857142857142461 0.08928571428571427382 0.1071428571428571369 0.1160714285714285754 0.125 0.1428571428571428492 0.1587301587301587213 0.1746031746031745935 0.1904761904761904656 0.2023809523809523836 0.2142857142857142738 0.226190476190476164 0.238095238095238082 0.2499999999999999722 0.2619047619047618625 0.2738095238095237804 0.2857142857142856984 0.2976190476190476164 0.3095238095238095344 0.3125 0.3154761904761904656 0.3214285714285713969 0.3273809523809523281 0.3333333333333333148 0.3452380952380952328 0.351190476190476164 0.3571428571428570953 0.3630952380952380265 0.3690476190476190133 0.3809523809523809312 0.3869047619047618625 0.3928571428571428492 0.4047619047619047672 0.4166666666666666297 0.4285714285714285476 0.4444444444444444198 0.4603174603174602919 0.476190476190476164 0.4801587301587301182 0.4821428571428570953 0.4841269841269840724 0.4920634920634920362 0.5 0.5039682539682539542 0.5079365079365079083 0.5238095238095237249 0.5357142857142855874 0.5476190476190475609 0.5595238095238095344 0.5714285714285713969 0.5833333333333332593 0.5892857142857141906 0.5952380952380951218 0.601190476190476053 0.6071428571428569843 0.6130952380952379155 0.6160714285714283811 0.616815476190476053 0.6175595238095237249 0.6190476190476189577 0.6349206349206348854 0.650793650793650702 0.6666666666666666297 0.6785714285714286031 0.6904761904761904656 0.7023809523809523281 0.7142857142857141906 0.7321428571428569843 0.749999999999999889 0.7678571428571427937 0.7767857142857141906 0.7857142857142855874 0.7976190476190474499 0.8095238095238094234 0.8214285714285713969 0.8333333333333332593 0.8452380952380951218 0.851190476190476053 0.8571428571428570953 0.875 0.8928571428571427937 0.9107142857142856984 0.9285714285714286031 0.9464285714285713969 0.9642857142857143016 0.9821428571428572063 0.9866071428571429047 0.9910714285714286031 0.9977678571428572063 0.9988839285714286031 0.9994419642857143016 0.9997209821428572063 0.9998604910714286031 0.9999302455357143016 
	0 
	0 
	0 
	F 1 F 0 F 1 F 0 } I I I I #
tcoedge-coedge $-1 -1 $-1 $14 $14 $18 $19 reversed $9 $20 -6.283185307179586232 -0 #
tcoedge-coedge $-1 -1 $-1 $21 $22 $11 $16 reversed $12 $23 -6.283185307179586232 -0 #
tedge-edge $-1 -1 $-1 $24 0 $24 6.283185307179586232 $15 $25 forward @7 unknown 0.0002725987144821689933 #
pcurve $-1 -1 $-1 0 forward { exppc nurbs 2 periodic 5 
	0 2 1.570796326794896558 2 3.141592653589793116 2 4.712388980384689674 2 6.283185307179586232 2 
	0 500 1 
	-500 500 0.707106781186543798 
	-500 0 1 
	-500 -500 0.7071067811865463515 
	0 -500 1 
	500 -500 0.7071067811865463515 
	500 0 1 
	500 500 0.707106781186543798 
	0 500 1 
	0 
	plane 9531.79757191538738 3935.642797989783503 14000.00000000000182 1 -3.637978807091713027e-15 0 0 0 -1 forward_v I I I I 
	} 0 0 #
tcoedge-coedge $-1 -1 $-1 $22 $21 $14 $19 forward $12 $26 0 6.283185307179586232 #
tedge-edge $-1 -1 $-1 $27 0 $27 6.283185307179586232 $18 $28 forward @7 unknown 0.0002725987140008366799 #
pcurve $-1 -1 $-1 0 forward { exppc nurbs 2 periodic 5 
	-6.283185307179586232 2 -4.712388980384689674 2 -3.141592653589793116 2 -1.570796326794896558 2 0 2 
	0 500 1 
	500 500 0.707106781186543798 
	500 0 1 
	500 -500 0.7071067811865463515 
	0 -500 1 
	-500 -500 0.7071067811865463515 
	-500 0 1 
	-500 500 0.707106781186543798 
	0 500 1 
	0 
	plane 9281.79757191538738 3935.642797989784412 14000.00000000000182 -1 3.637978807091713027e-15 -0 0 0 -1 reverse_v I I I I 
	} 0 0 #
coedge $-1 -1 $-1 $18 $15 $22 $29 reversed $12 $30 #
coedge $-1 -1 $-1 $15 $18 $21 $29 forward $12 $31 #
pcurve $-1 -1 $-1 0 forward { exppc nubs 1 periodic 2 
	-6.283185307179586232 1 -0 1 
	1 1 
	0 1 
	2.726396620975368931e-13 
	spline forward { ref 0 } I I I I 
	} 0 0 #
tvertex-vertex $-1 -1 $-1 $16 $32 3.053624932449281452e-05 #
ellipse-curve $-1 -1 $-1 9531.79757191538738 3935.642797989783503 14000.00000000000182 1 -3.637978807091713027e-15 0 1.818989403545856476e-12 500 0 1 I I #
pcurve $-1 -1 $-1 0 forward { exppc nubs 1 periodic 2 
	0 1 6.283185307179586232 1 
	0 0 
	1 0 
	4.4114023995510105e-13 
	spline forward { ref 0 } I I I I 
	} 0 0 #
tvertex-vertex $-1 -1 $-1 $19 $33 3.053618463763026539e-05 #
ellipse-curve $-1 -1 $-1 9281.79757191538738 3935.642797989784412 14000.00000000000182 1 -3.637978807091713027e-15 0 1.818989403545856476e-12 500 0 1 I I #
edge $-1 -1 $-1 $27 0 $24 1 $22 $34 forward @7 tangent #
pcurve $-1 -1 $-1 -1 $34 0 0 #
pcurve $-1 -1 $-1 1 $34 1 0 #
point $-1 -1 $-1 9531.797571915389199 4435.642797989783503 14000.00000000000182 #
point $-1 -1 $-1 9281.797571915389199 4435.642797989784412 14000.00000000000182 #
intcurve-curve $-1 -1 $-1 forward { parcur full nubs 3 open 2 
	0 3 1 3 
	9281.797572186344041 4435.64282844126501 13999.99999774348362 
	9365.130905519677981 4435.642828441264101 13999.99999774348362 
	9448.464238860304249 4435.642828441263191 13999.99999774348362 
	9531.797572193638189 4435.642828441263191 13999.99999774348362 
	0 
	
	spline forward { ref 0 } I I I I 
	null_surface 
	nubs 1 open 2 
	0 1 1 1 
	0 0 
	0 1 
	
	nullbs 
	I I 
	0 
	0 
	0 
	surf1 } I I #
End-of-ACIS-data 