700 0 1 0           
4 LibG 20 ASM 224.0.1.65535 NT 24 Wed Jul 17 12:52:12 2019 
1000 9.999999999999999547e-07 1.000000000000000036e-10 
body $-1 -1 $-1 $1 $-1 $2 #
lump $-1 -1 $-1 $-1 $3 $0 #
transform $-1 -1 1 0 0 0 1 0 0 0 1 0 0 0 1 no_rotate no_reflect no_shear #
shell $-1 -1 $-1 $-1 $-1 $4 $-1 $1 #
face $-1 -1 $-1 $5 $6 $3 $-1 $7 forward single #
face $-1 -1 $-1 $8 $9 $3 $-1 $10 reversed single #
loop $-1 -1 $-1 $-1 $11 $4 #
plane-surface $-1 -1 $-1 4531.79757191538738 3935.642797989801693 14000.00000000000182 1 -3.637978807091713027e-15 0 0 0 -1 forward_v I I I I #
face $-1 -1 $-1 $-1 $12 $3 $-1 $13 forward single #
loop $-1 -1 $-1 $-1 $14 $5 #
plane-surface $-1 -1 $-1 4281.79757191538738 3935.642797989802602 14000.00000000000182 1 -3.637978807091713027e-15 0 0 0 -1 forward_v I I I I #
tcoedge-coedge $-1 -1 $-1 $11 $11 $15 $16 forward $6 $17 0 6.283185307179586232 #
loop $-1 -1 $-1 $-1 $18 $8 #
spline-surface $-1 -1 $-1 forward { exactsur full nubs 3 3 periodic open none none 88 2 
	0 3 0.001116071428571428509 1 0.002232142857142857019 1 0.004464285714285714038 1 0.008928571428571428076 1 
	0.01785714285714285615 1 0.0357142857142857123 1 0.05357142857142856845 1 0.07142857142857142461 1 0.08928571428571427382 1 
	0.1071428571428571369 1 0.1160714285714285754 1 0.125 1 0.1428571428571428492 1 0.1587301587301587213 1 
	0.1746031746031745935 1 0.1904761904761904656 1 0.2023809523809523836 1 0.2142857142857142738 1 0.238095238095238082 1 
	0.2619047619047618625 1 0.2738095238095237804 1 0.2857142857142856984 1 0.2976190476190476164 1 0.3095238095238095344 1 
	0.3154761904761904656 1 0.3214285714285713969 1 0.3333333333333333148 1 0.3452380952380952328 1 0.3571428571428570953 1 
	0.3690476190476190133 1 0.375 1 0.3779761904761904656 1 0.3809523809523809312 1 0.3869047619047618625 1 
	0.3928571428571428492 1 0.4047619047619047672 1 0.4166666666666666297 1 0.4285714285714285476 1 0.4444444444444444198 1 
	0.4603174603174602919 1 0.476190476190476164 1 0.4771825396825396526 1 0.4781746031746031411 1 0.4801587301587301182 1 
	0.4841269841269840724 1 0.4920634920634920362 1 0.5 1 0.5158730158730158166 1 0.5198412698412697708 1 
	0.5218253968253967479 1 0.5238095238095237249 1 0.5476190476190475609 1 0.5714285714285713969 1 0.5952380952380951218 1 
	0.6190476190476189577 1 0.6349206349206348854 1 0.650793650793650702 1 0.6666666666666666297 1 0.6904761904761904656 1 
	0.7023809523809523281 1 0.7142857142857141906 1 0.7321428571428569843 1 0.749999999999999889 1 0.7678571428571427937 1 
	0.7857142857142855874 1 0.7976190476190474499 1 0.8095238095238094234 1 0.8154761904761904656 1 0.8333333333333332593 1 
	0.8452380952380951218 1 0.8571428571428570953 1 0.875 1 0.8928571428571427937 1 0.9107142857142856984 1 
	0.9285714285714286031 1 0.9464285714285713969 1 0.9642857142857143016 1 0.9732142857142858094 1 0.9821428571428572063 1 
	0.9910714285714286031 1 0.9955357142857143016 1 0.9977678571428572063 1 0.9988839285714286031 1 0.9994419642857143016 1 
	0.9997209821428572063 1 0.9998604910714286031 1 1 3 
	0 3 1 3 
	4281.797572005514667 4435.642872356249427 13999.99991801152282 
	4281.797572005511029 4435.642872349652862 14001.16866527680941 
	4281.797572005440088 4435.634676944393505 14003.50615987229867 
	4281.797572005366419 4435.585500877754384 14008.18091875387654 
	4281.797572005057191 4435.413406170572671 14016.36054164596862 
	4281.797572003885762 4434.725050597136942 14032.71012225384766 
	4281.797572000131368 4431.973797796278632 14065.33212627644753 
	4281.797571988007803 4424.130764930032456 14111.49407209453966 
	4281.797571978225278 4408.575761922244055 14165.48630859188779 
	4281.797571967408658 4387.073470150386129 14217.39742900505735 
	4281.797571959210472 4359.894189661957171 14266.57471111941595 
	4281.797571950379279 4332.798644318294464 14304.76203992541195 
	4281.797571948257428 4308.659364676128462 14333.34785308564096 
	4281.797571945263371 4282.956090941936964 14360.53605557703122 
	4281.797571943712683 4249.594200818796708 14390.34993982474043 
	4281.797571937045177 4207.365980674134335 14420.70971682158051 
	4281.797571936274835 4164.126546919418615 14445.67391337870322 
	4281.797571935346241 4122.408887852748194 14464.49780558391831 
	4281.797571932977007 4083.157691276760943 14478.23146186950362 
	4281.797571931117091 4034.957010768160671 14491.14858987020489 
	4281.797571930021149 3973.147603844571677 14500.46638516204621 
	4281.797571927202625 3910.639709967590989 14500.46496229842887 
	4281.797571926627825 3861.052146357063975 14494.87661189417486 
	4281.797571925349985 3824.278486883752521 14487.9190343888331 
	4281.79757192463785 3788.127673507081454 14478.23227044323903 
	4281.797571923734722 3758.689460159323517 14467.93142029872979 
	4281.797571923515534 3735.650122777315573 14458.38809267777469 
	4281.797571923282703 3712.983654990253854 14447.99015998531468 
	4281.797571922614225 3685.409480696525861 14433.41681966319629 
	4281.797571921981216 3653.719921207664811 14413.50490241559601 
	4281.797571921732924 3623.60692152340107 14391.28060788323455 
	4281.797571921088092 3599.967030190371133 14370.93673581428993 
	4281.797571920980772 3584.251882795241272 14355.79852112048866 
	4281.797571920935297 3575.519060101522882 14346.90085418641866 
	4281.797571920909832 3566.954138474356114 14337.84145070946943 
	4281.797571920800692 3556.568451460429969 14326.21984451329627 
	4281.797571920728842 3540.65819420668322 14307.0169947402137 
	4281.797571920340488 3522.137769004279107 14281.92293267456625 
	4281.797571920237715 3502.22604900131364 14250.233274492688 
	4281.797571919943948 3482.794636714212629 14213.467853408476 
	4281.797571919703842 3465.016776606209532 14171.29383828310529 
	4281.797571919589245 3450.300274202949822 14123.58334699061925 
	4281.79757191940007 3443.49866959588735 14089.93804580608594 
	4281.797571919383699 3440.769245099973432 14071.43826032364086 
	4281.797571919384609 3440.188333630625038 14067.32349762359081 
	4281.797571919380971 3439.239109244027986 14060.11336662622125 
	4281.797571919378242 3437.610478502514979 14045.65928424396407 
	4281.797571919369148 3436.057368974443762 14024.93321509197995 
	4281.797571919375514 3435.227973692116393 13991.68882606372972 
	4281.797571919406437 3436.679642796345433 13962.60004403476159 
	4281.797571919430993 3439.239034646197979 13939.88649291356523 
	4281.797571919431903 3440.323885715426059 13931.64634760876288 
	4281.797571919474649 3444.479669308416305 13902.8553432160079 
	4281.797571919770235 3456.070632530550938 13852.07146565696166 
	4281.797571920214068 3483.474782263092493 13782.24728319836868 
	4281.797571920798873 3520.979087848565996 13717.28681698557557 
	4281.797571921512827 3562.550982331415526 13665.15897709355886 
	4281.797571921979397 3604.250931114253035 13624.4871165961049 
	4281.797571922422321 3643.286616962371681 13593.35740538007303 
	4281.797571922884345 3692.217630585276765 13561.75287260670302 
	4281.797571923892065 3741.026158588288581 13538.24843477332433 
	4281.797571924375916 3788.127965056567973 13521.76851344225724 
	4281.7975719250162 3830.303608661247836 13510.4667010420053 
	4281.797571926287674 3879.543053812179551 13502.10050493355266 
	4281.797571927825629 3935.642816749687881 13498.95008287227392 
	4281.797571929432706 3991.742687137150824 13502.10040010986268 
	4281.797571931404491 4040.981965858286912 13510.46686519225841 
	4281.797571932322171 4083.157889318710204 13521.76811513380198 
	4281.797571933033396 4112.596054961181835 13532.06899848401918 
	4281.797571933425388 4147.155225623885599 13546.38362200467236 
	4281.797571935738233 4180.594816566557711 13563.26410468662107 
	4281.797571937596331 4217.565628334602479 13586.49525664594148 
	4281.797571940366652 4252.697722642995359 13612.42320702476536 
	4281.797571943242474 4289.9389305923969 13645.70387407166709 
	4281.797571949331541 4327.37984332639553 13687.60011596411096 
	4281.79757196006085 4359.894304673084662 13733.42507798062434 
	4281.797571970168065 4387.073542635678677 13782.6023394796739 
	4281.797571980404427 4408.575944476367113 13834.513488900011 
	4281.797571992550729 4421.538073475048805 13879.50707216218689 
	4281.797571996460647 4428.83694733196171 13916.20287858654774 
	4281.797571999962202 4432.759720804345307 13943.98829482978181 
	4281.797572003797541 4434.725097207768158 13967.28970799089257 
	4281.79757200502354 4435.413399036408009 13983.63929496859782 
	4281.797572005390066 4435.585502414915936 13991.81891708991316 
	4281.797572005481015 4435.628529728136527 13995.90933130233134 
	4281.797572005506481 4435.639286703721154 13997.95461389019874 
	4281.797572005512848 4435.641975943059151 13998.97726460239755 
	4281.797572005514667 4435.642744305721862 13999.56163778805603 
	4281.797572005515576 4435.642872357073429 13999.85382460336223 
	4281.797572005514667 4435.642872356249427 13999.99991801152282 
	4365.130905338847697 4435.642872356248517 13999.99991801152282 
	4365.130905338844059 4435.642872349651952 14001.16866527680941 
	4365.130905338773118 4435.634676944392595 14003.50615987229867 
	4365.130905338699449 4435.585500877753475 14008.18091875387654 
	4365.130905338390221 4435.413406170571761 14016.36054164596862 
	4365.130905337218792 4434.725050597136033 14032.71012225384766 
	4365.130905333464398 4431.973797796277722 14065.33212627644753 
	4365.130905321340833 4424.130764930031546 14111.49407209453966 
	4365.130905311558308 4408.575761922243146 14165.48630859188779 
	4365.130905300741688 4387.073470150385219 14217.39742900505735 
	4365.130905292543503 4359.894189661956261 14266.57471111941595 
	4365.130905283712309 4332.798644318293555 14304.76203992541195 
	4365.130905281590458 4308.659364676127552 14333.34785308564096 
	4365.130905278596401 4282.956090941936054 14360.53605557703122 
	4365.130905277045713 4249.594200818795798 14390.34993982474043 
	4365.130905270378207 4207.365980674133425 14420.70971682158051 
	4365.130905269607865 4164.126546919417706 14445.67391337870322 
	4365.130905268679271 4122.408887852747284 14464.49780558391831 
	4365.130905266310037 4083.157691276760488 14478.23146186950362 
	4365.130905264450121 4034.957010768160217 14491.14858987020489 
	4365.13090526335418 3973.147603844571222 14500.46638516204621 
	4365.130905260535656 3910.639709967590534 14500.46496229842887 
	4365.130905259960855 3861.052146357063521 14494.87661189417486 
	4365.130905258683015 3824.278486883752066 14487.9190343888331 
	4365.13090525797088 3788.127673507080999 14478.23227044323903 
	4365.130905257067752 3758.689460159323062 14467.93142029872979 
	4365.130905256848564 3735.650122777315119 14458.38809267777469 
	4365.130905256615733 3712.983654990253399 14447.99015998531468 
	4365.130905255947255 3685.409480696525407 14433.41681966319629 
	4365.130905255314246 3653.719921207664356 14413.50490241559601 
	4365.130905255065954 3623.606921523400615 14391.28060788323455 
	4365.130905254421123 3599.967030190370679 14370.93673581428993 
	4365.130905254313802 3584.251882795240817 14355.79852112048866 
	4365.130905254268328 3575.519060101522427 14346.90085418641866 
	4365.130905254242862 3566.954138474355659 14337.84145070946943 
	4365.130905254133722 3556.568451460429515 14326.21984451329627 
	4365.130905254061872 3540.658194206682765 14307.0169947402137 
	4365.130905253673518 3522.137769004278653 14281.92293267456625 
	4365.130905253570745 3502.226049001313186 14250.233274492688 
	4365.130905253276978 3482.794636714212174 14213.467853408476 
	4365.130905253036872 3465.016776606209078 14171.29383828310529 
	4365.130905252922275 3450.300274202949367 14123.58334699061925 
	4365.1309052527331 3443.498669595886895 14089.93804580608594 
	4365.13090525271673 3440.769245099972977 14071.43826032364086 
	4365.130905252717639 3440.188333630624584 14067.32349762359081 
	4365.130905252714001 3439.239109244027532 14060.11336662622125 
	4365.130905252711273 3437.610478502514525 14045.65928424396407 
	4365.130905252702178 3436.057368974443307 14024.93321509197995 
	4365.130905252708544 3435.227973692115938 13991.68882606372972 
	4365.130905252739467 3436.679642796344979 13962.60004403476159 
	4365.130905252764023 3439.239034646197524 13939.88649291356523 
	4365.130905252764933 3440.323885715425604 13931.64634760876288 
	4365.130905252807679 3444.479669308415851 13902.8553432160079 
	4365.130905253103265 3456.070632530550483 13852.07146565696166 
	4365.130905253547098 3483.474782263092038 13782.24728319836868 
	4365.130905254131903 3520.979087848565541 13717.28681698557557 
	4365.130905254845857 3562.550982331415071 13665.15897709355886 
	4365.130905255312427 3604.25093111425258 13624.4871165961049 
	4365.130905255755351 3643.286616962371227 13593.35740538007303 
	4365.130905256217375 3692.217630585276311 13561.75287260670302 
	4365.130905257225095 3741.026158588288126 13538.24843477332433 
	4365.130905257708946 3788.127965056567518 13521.76851344225724 
	4365.13090525834923 3830.303608661247381 13510.4667010420053 
	4365.130905259620704 3879.543053812179096 13502.10050493355266 
	4365.130905261158659 3935.642816749687427 13498.95008287227392 
	4365.130905262765737 3991.742687137150369 13502.10040010986268 
	4365.130905264737521 4040.981965858286458 13510.46686519225841 
	4365.130905265655201 4083.157889318709749 13521.76811513380198 
	4365.130905266366426 4112.596054961180926 13532.06899848401918 
	4365.130905266758418 4147.155225623884689 13546.38362200467236 
	4365.130905269071263 4180.594816566556801 13563.26410468662107 
	4365.130905270929361 4217.56562833460157 13586.49525664594148 
	4365.130905273699682 4252.697722642994449 13612.42320702476536 
	4365.130905276575504 4289.938930592395991 13645.70387407166709 
	4365.130905282664571 4327.379843326394621 13687.60011596411096 
	4365.13090529339388 4359.894304673083752 13733.42507798062434 
	4365.130905303501095 4387.073542635677768 13782.6023394796739 
	4365.130905313737458 4408.575944476366203 13834.513488900011 
	4365.130905325883759 4421.538073475047895 13879.50707216218689 
	4365.130905329793677 4428.836947331960801 13916.20287858654774 
	4365.130905333295232 4432.759720804344397 13943.98829482978181 
	4365.130905337130571 4434.725097207767249 13967.28970799089257 
	4365.13090533835657 4435.4133990364071 13983.63929496859782 
	4365.130905338723096 4435.585502414915027 13991.81891708991316 
	4365.130905338814046 4435.628529728135618 13995.90933130233134 
	4365.130905338839511 4435.639286703720245 13997.95461389019874 
	4365.130905338845878 4435.641975943058242 13998.97726460239755 
	4365.130905338847697 4435.642744305720953 13999.56163778805603 
	4365.130905338848606 4435.64287235707252 13999.85382460336223 
	4365.130905338847697 4435.642872356248517 13999.99991801152282 
	4448.464238677440335 4435.642872356246698 13999.99991801152282 
	4448.464238677435787 4435.642872349651043 14001.16866527680941 
	4448.464238677361209 4435.634676944390776 14003.50615987229867 
	4448.464238677282992 4435.585500877753475 14008.18091875387654 
	4448.464238676955574 4435.413406170569942 14016.36054164596862 
	4448.464238675716842 4434.725050597135123 14032.71012225384766 
	4448.464238671742351 4431.973797796276813 14065.33212627644753 
	4448.464238658912109 4424.130764930031546 14111.49407209453966 
	4448.464238648558421 4408.575761922241327 14165.48630859188779 
	4448.464238637110611 4387.07347015038431 14217.39742900505735 
	4448.464238628434941 4359.894189661955352 14266.57471111941595 
	4448.464238619088064 4332.798644318291736 14304.76203992541195 
	4448.464238616841612 4308.659364676125733 14333.34785308564096 
	4448.464238613673842 4282.956090941934235 14360.53605557703122 
	4448.464238612031295 4249.594200818794889 14390.34993982474043 
	4448.464238604974526 4207.365980674132516 14420.70971682158051 
	4448.464238604158709 4164.126546919417706 14445.67391337870322 
	4448.464238603176454 4122.408887852746375 14464.49780558391831 
	4448.464238600668978 4083.157691276759579 14478.23146186950362 
	4448.464238598699922 4034.957010768159762 14491.14858987020489 
	4448.464238597540316 3973.147603844570767 14500.46638516204621 
	4448.464238594556264 3910.639709967589624 14500.46496229842887 
	4448.464238593948721 3861.052146357062156 14494.87661189417486 
	4448.464238592596303 3824.278486883750702 14487.9190343888331 
	4448.464238591842332 3788.127673507079635 14478.23227044323903 
	4448.464238590886453 3758.689460159321698 14467.93142029872979 
	4448.464238590654531 3735.650122777313754 14458.38809267777469 
	4448.464238590408968 3712.983654990252489 14447.99015998531468 
	4448.46423858970229 3685.409480696525407 14433.41681966319629 
	4448.464238589032902 3653.719921207664356 14413.50490241559601 
	4448.464238588770058 3623.606921523399706 14391.28060788323455 
	4448.464238588087937 3599.967030190371133 14370.93673581428993 
	4448.46423858797516 3584.251882795240817 14355.79852112048866 
	4448.464238587926047 3575.519060101522882 14346.90085418641866 
	4448.464238587899672 3566.954138474355204 14337.84145070946943 
	4448.464238587784166 3556.56845146042906 14326.21984451329627 
	4448.464238587708678 3540.65819420668231 14307.0169947402137 
	4448.464238587297586 3522.137769004278653 14281.92293267456625 
	4448.464238587189357 3502.226049001312731 14250.233274492688 
	4448.464238586878309 3482.794636714212629 14213.467853408476 
	4448.46423858662456 3465.016776606208623 14171.29383828310529 
	4448.464238586504507 3450.300274202949822 14123.58334699061925 
	4448.464238586302599 3443.49866959588735 14089.93804580608594 
	4448.464238586286228 3440.769245099973887 14071.43826032364086 
	4448.464238586287138 3440.188333630625038 14067.32349762359081 
	4448.46423858628259 3439.239109244027986 14060.11336662622125 
	4448.464238586278952 3437.610478502514979 14045.65928424396407 
	4448.464238586268948 3436.057368974443762 14024.93321509197995 
	4448.464238586274405 3435.227973692116848 13991.68882606372972 
	4448.464238586308056 3436.679642796345888 13962.60004403476159 
	4448.464238586333522 3439.239034646198434 13939.88649291356523 
	4448.464238586334432 3440.323885715426513 13931.64634760876288 
	4448.464238586379906 3444.47966930841676 13902.8553432160079 
	4448.464238586694592 3456.070632530550483 13852.07146565696166 
	4448.464238587162072 3483.474782263092493 13782.24728319836868 
	4448.464238587782347 3520.979087848565996 13717.28681698557557 
	4448.464238588537228 3562.55098233141598 13665.15897709355886 
	4448.464238589031993 3604.25093111425349 13624.4871165961049 
	4448.464238589499473 3643.286616962372136 13593.35740538007303 
	4448.464238589989691 3692.21763058527722 13561.75287260670302 
	4448.464238591055619 3741.026158588289036 13538.24843477332433 
	4448.464238591567664 3788.127965056568428 13521.76851344225724 
	4448.464238592246147 3830.30360866124829 13510.4667010420053 
	4448.46423859359038 3879.543053812180005 13502.10050493355266 
	4448.464238595219285 3935.642816749688336 13498.95008287227392 
	4448.46423859692004 3991.742687137151279 13502.10040010986268 
	4448.464238599006421 4040.981965858287367 13510.46686519225841 
	4448.464238599977762 4083.157889318710659 13521.76811513380198 
	4448.464238600730823 4112.596054961181835 13532.06899848401918 
	4448.464238601145553 4147.155225623885599 13546.38362200467236 
	4448.464238603593003 4180.594816566557711 13563.26410468662107 
	4448.464238605559331 4217.565628334602479 13586.49525664594148 
	4448.464238608491542 4252.697722642995359 13612.42320702476536 
	4448.46423861153562 4289.9389305923969 13645.70387407166709 
	4448.46423861797939 4327.37984332639553 13687.60011596411096 
	4448.464238629335341 4359.894304673082843 13733.42507798062434 
	4448.464238640031908 4387.073542635676858 13782.6023394796739 
	4448.464238650866719 4408.575944476365294 13834.513488900011 
	4448.464238663720607 4421.538073475046076 13879.50707216218689 
	4448.464238667859718 4428.836947331959891 13916.20287858654774 
	4448.464238671564999 4432.759720804342578 13943.98829482978181 
	4448.464238675624074 4434.72509720776543 13967.28970799089257 
	4448.464238676921923 4435.413399036405281 13983.63929496859782 
	4448.464238677309368 4435.585502414914117 13991.81891708991316 
	4448.464238677406684 4435.628529728133799 13995.90933130233134 
	4448.464238677433059 4435.639286703718426 13997.95461389019874 
	4448.464238677440335 4435.641975943056423 13998.97726460239755 
	4448.464238677441244 4435.642744305718224 13999.56163778805603 
	4448.464238677441244 4435.64287235707161 13999.85382460336223 
	4448.464238677440335 4435.642872356246698 13999.99991801152282 
	4531.797572010773365 4435.642872356246698 13999.99991801152282 
	4531.797572010768818 4435.642872349651043 14001.16866527680941 
	4531.797572010694239 4435.634676944390776 14003.50615987229867 
	4531.797572010616022 4435.585500877753475 14008.18091875387654 
	4531.797572010288604 4435.413406170569942 14016.36054164596862 
	4531.797572009049873 4434.725050597135123 14032.71012225384766 
	4531.797572005075381 4431.973797796276813 14065.33212627644753 
	4531.797571992245139 4424.130764930031546 14111.49407209453966 
	4531.797571981891451 4408.575761922241327 14165.48630859188779 
	4531.797571970443641 4387.07347015038431 14217.39742900505735 
	4531.797571961767972 4359.894189661955352 14266.57471111941595 
	4531.797571952421094 4332.798644318291736 14304.76203992541195 
	4531.797571950174643 4308.659364676125733 14333.34785308564096 
	4531.797571947006873 4282.956090941934235 14360.53605557703122 
	4531.797571945364325 4249.594200818794889 14390.34993982474043 
	4531.797571938307556 4207.365980674132516 14420.70971682158051 
	4531.797571937491739 4164.126546919417706 14445.67391337870322 
	4531.797571936509485 4122.408887852746375 14464.49780558391831 
	4531.797571934002008 4083.157691276759124 14478.23146186950362 
	4531.797571932032952 4034.957010768159307 14491.14858987020489 
	4531.797571930873346 3973.147603844570313 14500.46638516204621 
	4531.797571927889294 3910.63970996758917 14500.46496229842887 
	4531.797571927281751 3861.052146357061702 14494.87661189417486 
	4531.797571925929333 3824.278486883750247 14487.9190343888331 
	4531.797571925175362 3788.12767350707918 14478.23227044323903 
	4531.797571924219483 3758.689460159321243 14467.93142029872979 
	4531.797571923987562 3735.6501227773133 14458.38809267777469 
	4531.797571923741998 3712.983654990252035 14447.99015998531468 
	4531.797571923035321 3685.409480696524952 14433.41681966319629 
	4531.797571922365933 3653.719921207663901 14413.50490241559601 
	4531.797571922103089 3623.606921523399251 14391.28060788323455 
	4531.797571921420968 3599.967030190370679 14370.93673581428993 
	4531.79757192130819 3584.251882795240363 14355.79852112048866 
	4531.797571921259077 3575.519060101522427 14346.90085418641866 
	4531.797571921232702 3566.95413847435475 14337.84145070946943 
	4531.797571921117196 3556.568451460428605 14326.21984451329627 
	4531.797571921041708 3540.658194206681856 14307.0169947402137 
	4531.797571920630617 3522.137769004278198 14281.92293267456625 
	4531.797571920522387 3502.226049001312276 14250.233274492688 
	4531.79757192021134 3482.794636714212174 14213.467853408476 
	4531.797571919957591 3465.016776606208168 14171.29383828310529 
	4531.797571919837537 3450.300274202949367 14123.58334699061925 
	4531.797571919635629 3443.498669595886895 14089.93804580608594 
	4531.797571919619259 3440.769245099973432 14071.43826032364086 
	4531.797571919620168 3440.188333630624584 14067.32349762359081 
	4531.797571919615621 3439.239109244027532 14060.11336662622125 
	4531.797571919611983 3437.610478502514525 14045.65928424396407 
	4531.797571919601978 3436.057368974443307 14024.93321509197995 
	4531.797571919607435 3435.227973692116393 13991.68882606372972 
	4531.797571919641086 3436.679642796345433 13962.60004403476159 
	4531.797571919666552 3439.239034646197979 13939.88649291356523 
	4531.797571919667462 3440.323885715426059 13931.64634760876288 
	4531.797571919712937 3444.479669308416305 13902.8553432160079 
	4531.797571920027622 3456.070632530550029 13852.07146565696166 
	4531.797571920495102 3483.474782263092038 13782.24728319836868 
	4531.797571921115377 3520.979087848565541 13717.28681698557557 
	4531.797571921870258 3562.550982331415526 13665.15897709355886 
	4531.797571922365023 3604.250931114253035 13624.4871165961049 
	4531.797571922832503 3643.286616962371681 13593.35740538007303 
	4531.797571923322721 3692.217630585276765 13561.75287260670302 
	4531.797571924388649 3741.026158588288581 13538.24843477332433 
	4531.797571924900694 3788.127965056567973 13521.76851344225724 
	4531.797571925579177 3830.303608661247836 13510.4667010420053 
	4531.797571926923411 3879.543053812179551 13502.10050493355266 
	4531.797571928552316 3935.642816749687881 13498.95008287227392 
	4531.797571930253071 3991.742687137150824 13502.10040010986268 
	4531.797571932339451 4040.981965858286912 13510.46686519225841 
	4531.797571933310792 4083.157889318710204 13521.76811513380198 
	4531.797571934063853 4112.596054961181835 13532.06899848401918 
	4531.797571934478583 4147.155225623885599 13546.38362200467236 
	4531.797571936926033 4180.594816566557711 13563.26410468662107 
	4531.797571938892361 4217.565628334602479 13586.49525664594148 
	4531.797571941824572 4252.697722642995359 13612.42320702476536 
	4531.79757194486865 4289.9389305923969 13645.70387407166709 
	4531.79757195131242 4327.37984332639553 13687.60011596411096 
	4531.797571962668371 4359.894304673082843 13733.42507798062434 
	4531.797571973364938 4387.073542635676858 13782.6023394796739 
	4531.797571984199749 4408.575944476365294 13834.513488900011 
	4531.797571997053637 4421.538073475046076 13879.50707216218689 
	4531.797572001192748 4428.836947331959891 13916.20287858654774 
	4531.797572004898029 4432.759720804342578 13943.98829482978181 
	4531.797572008957104 4434.72509720776543 13967.28970799089257 
	4531.797572010254953 4435.413399036405281 13983.63929496859782 
	4531.797572010642398 4435.585502414914117 13991.81891708991316 
	4531.797572010739714 4435.628529728133799 13995.90933130233134 
	4531.797572010766089 4435.639286703718426 13997.95461389019874 
	4531.797572010773365 4435.641975943056423 13998.97726460239755 
	4531.797572010774275 4435.642744305718224 13999.56163778805603 
	4531.797572010774275 4435.64287235707161 13999.85382460336223 
	4531.797572010773365 4435.642872356246698 13999.99991801152282 
	0 
	
	0 
	0 
	86 0 0.001116071428571428509 0.002232142857142857019 0.004464285714285714038 0.008928571428571428076 0.01785714285714285615 0.0357142857142857123 0.05357142857142856845 0.07142857142857142461 0.08928571428571427382 0.1071428571428571369 0.1160714285714285754 0.125 0.1428571428571428492 0.1587301587301587213 0.1746031746031745935 0.1904761904761904656 0.2023809523809523836 0.2142857142857142738 0.238095238095238082 0.2619047619047618625 0.2738095238095237804 0.2857142857142856984 0.2976190476190476164 0.3095238095238095344 0.3154761904761904656 0.3214285714285713969 0.3333333333333333148 0.3452380952380952328 0.3571428571428570953 0.3690476190476190133 0.375 0.3779761904761904656 0.3809523809523809312 0.3869047619047618625 0.3928571428571428492 0.4047619047619047672 0.4166666666666666297 0.4285714285714285476 0.4444444444444444198 0.4603174603174602919 0.476190476190476164 0.4771825396825396526 0.4781746031746031411 0.4801587301587301182 0.4841269841269840724 0.4920634920634920362 0.5 0.5158730158730158166 0.5198412698412697708 0.5218253968253967479 0.5238095238095237249 0.5476190476190475609 0.5714285714285713969 0.5952380952380951218 0.6190476190476189577 0.6349206349206348854 0.650793650793650702 0.6666666666666666297 0.6904761904761904656 0.7023809523809523281 0.7142857142857141906 0.7321428571428569843 0.749999999999999889 0.7678571428571427937 0.7857142857142855874 0.7976190476190474499 0.8095238095238094234 0.8154761904761904656 0.8333333333333332593 0.8452380952380951218 0.8571428571428570953 0.875 0.8928571428571427937 0.9107142857142856984 0.9285714285714286031 0.9464285714285713969 0.9642857142857143016 0.9732142857142858094 0.9821428571428572063 0.9910714285714286031 0.9955357142857143016 0.9977678571428572063 0.9994419642857143016 0.9997209821428572063 0.9998604910714286031 
	0 
	0 
	0 
	F 1 F 0 F 1 F 0 } I I I I #
tcoedge-coedge $-1 -1 $-1 $14 $14 $18 $19 reversed $9 $20 -6.283185307179586232 -0 #
tcoedge-coedge $-1 -1 $-1 $21 $22 $11 $16 reversed $12 $23 -6.283185307179586232 -0 #
tedge-edge $-1 -1 $-1 $24 0 $24 6.283185307179586232 $15 $25 forward @7 unknown 0.0007370897984678778788 #
pcurve $-1 -1 $-1 0 forward { exppc nurbs 2 periodic 5 
	0 2 1.570796326794896558 2 3.141592653589793116 2 4.712388980384689674 2 6.283185307179586232 2 
	0 500 1 
	-500 500 0.707106781186543798 
	-500 0 1 
	-500 -500 0.7071067811865463515 
	0 -500 1 
	500 -500 0.7071067811865463515 
	500 0 1 
	500 500 0.707106781186543798 
	0 500 1 
	0 
	plane 4531.79757191538738 3935.642797989801693 14000.00000000000182 1 -3.637978807091713027e-15 0 0 0 -1 forward_v I I I I 
	} 0 0 #
tcoedge-coedge $-1 -1 $-1 $22 $21 $14 $19 forward $12 $26 0 6.283185307179586232 #
tedge-edge $-1 -1 $-1 $27 0 $27 6.283185307179586232 $18 $28 forward @7 unknown 0.0007370897983771941249 #
pcurve $-1 -1 $-1 0 forward { exppc nurbs 2 periodic 5 
	-6.283185307179586232 2 -4.712388980384689674 2 -3.141592653589793116 2 -1.570796326794896558 2 0 2 
	0 500 1 
	500 500 0.707106781186543798 
	500 0 1 
	500 -500 0.7071067811865463515 
	0 -500 1 
	-500 -500 0.7071067811865463515 
	-500 0 1 
	-500 500 0.707106781186543798 
	0 500 1 
	0 
	plane 4281.79757191538738 3935.642797989802602 14000.00000000000182 -1 3.637978807091713027e-15 -0 0 0 -1 reverse_v I I I I 
	} 0 0 #
coedge $-1 -1 $-1 $18 $15 $22 $29 reversed $12 $30 #
coedge $-1 -1 $-1 $15 $18 $21 $29 forward $12 $31 #
pcurve $-1 -1 $-1 0 forward { exppc nubs 1 periodic 2 
	-6.283185307179586232 1 -0 1 
	1 1 
	0 1 
	0 
	spline forward { ref 0 } I I I I 
	} 0 0 #
tvertex-vertex $-1 -1 $-1 $16 $32 0.000110690966852937961 #
ellipse-curve $-1 -1 $-1 4531.79757191538738 3935.642797989801693 14000.00000000000182 1 -3.637978807091713027e-15 0 1.818989403545856476e-12 500 0 1 I I #
pcurve $-1 -1 $-1 0 forward { exppc nubs 1 periodic 2 
	0 1 6.283185307179586232 1 
	0 0 
	1 0 
	2.726396620975368931e-13 
	spline forward { ref 0 } I I I I 
	} 0 0 #
tvertex-vertex $-1 -1 $-1 $19 $33 0.0001106909636684155453 #
ellipse-curve $-1 -1 $-1 4281.79757191538738 3935.642797989802602 14000.00000000000182 1 -3.637978807091713027e-15 0 1.818989403545856476e-12 500 0 1 I I #
edge $-1 -1 $-1 $27 0 $24 0.9999999996184633089 $22 $34 forward @7 tangent #
pcurve $-1 -1 $-1 -1 $34 0 0 #
pcurve $-1 -1 $-1 1 $34 1 0 #
point $-1 -1 $-1 4531.797571915389199 4435.642797989801693 14000.00000000000182 #
point $-1 -1 $-1 4281.797571915389199 4435.642797989802602 14000.00000000000182 #
intcurve-curve $-1 -1 $-1 forward { parcur full nubs 3 open 2 
	0 3 1 3 
	4281.797572005514667 4435.642872356249427 13999.99991801152282 
	4365.130905338847697 4435.642872356248517 13999.99991801152282 
	4448.464238677440335 4435.642872356246698 13999.99991801152282 
	4531.797572010773365 4435.642872356246698 13999.99991801152282 
	0 
	
	spline forward { ref 0 } I I I I 
	null_surface 
	nubs 1 open 2 
	0 1 1 1 
	0 0 
	0 1 
	
	nullbs 
	I I 
	0 
	0 
	0 
	surf1 } F 0 F 0.9999999996184633089 #
End-of-ACIS-data 