700 0 1 0           
4 LibG 20 ASM 224.0.1.65535 NT 24 Wed Jul 17 12:52:14 2019 
1000 9.999999999999999547e-07 1.000000000000000036e-10 
body $-1 -1 $-1 $1 $-1 $2 #
lump $-1 -1 $-1 $-1 $3 $0 #
transform $-1 -1 1 0 0 0 1 0 0 0 1 0 0 0 1 no_rotate no_reflect no_shear #
shell $-1 -1 $-1 $-1 $-1 $4 $-1 $1 #
face $-1 -1 $-1 $5 $6 $3 $-1 $7 forward single #
face $-1 -1 $-1 $8 $9 $3 $-1 $10 reversed single #
loop $-1 -1 $-1 $-1 $11 $4 #
plane-surface $-1 -1 $-1 13531.79757191538738 3935.642797989768951 14000.00000000000182 1 -3.637978807091713027e-15 0 0 0 -1 forward_v I I I I #
face $-1 -1 $-1 $-1 $12 $3 $-1 $13 forward single #
loop $-1 -1 $-1 $-1 $14 $5 #
plane-surface $-1 -1 $-1 13281.79757191538738 3935.642797989769861 14000.00000000000182 1 -3.637978807091713027e-15 0 0 0 -1 forward_v I I I I #
tcoedge-coedge $-1 -1 $-1 $11 $11 $15 $16 forward $6 $17 0 6.283185307179586232 #
loop $-1 -1 $-1 $-1 $18 $8 #
spline-surface $-1 -1 $-1 forward { exactsur full nubs 3 3 periodic open none none 84 2 
	0 3 0.001116071428571428509 1 0.002232142857142857019 1 0.004464285714285714038 1 0.008928571428571428076 1 
	0.01785714285714285615 1 0.02678571428571428423 1 0.0357142857142857123 1 0.05357142857142856845 1 0.07142857142857142461 1 
	0.08928571428571427382 1 0.1071428571428571369 1 0.125 1 0.1428571428571428492 1 0.1587301587301587213 1 
	0.1825396825396825295 1 0.1904761904761904656 1 0.2023809523809523836 1 0.2142857142857142738 1 0.238095238095238082 1 
	0.2619047619047618625 1 0.2857142857142856984 1 0.2976190476190476164 1 0.3095238095238095344 1 0.3214285714285713969 1 
	0.3333333333333333148 1 0.3392857142857143016 1 0.3452380952380952328 1 0.3571428571428570953 1 0.3630952380952380265 1 
	0.3690476190476190133 1 0.3809523809523809312 1 0.3928571428571428492 1 0.4047619047619047672 1 0.4166666666666666297 1 
	0.4285714285714285476 1 0.4444444444444444198 1 0.4603174603174602919 1 0.476190476190476164 1 0.4781746031746031411 1 
	0.4791666666666666297 1 0.4801587301587301182 1 0.4841269841269840724 1 0.4920634920634920362 1 0.5 1 
	0.5039682539682539542 1 0.5079365079365079083 1 0.5238095238095237249 1 0.5476190476190475609 1 0.5595238095238095344 1 
	0.5654761904761904656 1 0.5714285714285713969 1 0.5952380952380951218 1 0.6190476190476189577 1 0.6349206349206348854 1 
	0.650793650793650702 1 0.6666666666666666297 1 0.6904761904761904656 1 0.7142857142857141906 1 0.7321428571428569843 1 
	0.749999999999999889 1 0.7678571428571427937 1 0.7857142857142855874 1 0.8095238095238094234 1 0.8214285714285713969 1 
	0.8333333333333332593 1 0.8452380952380951218 1 0.8571428571428570953 1 0.875 1 0.8928571428571427937 1 
	0.9107142857142856984 1 0.9285714285714286031 1 0.9464285714285713969 1 0.9642857142857143016 1 0.9732142857142858094 1 
	0.9821428571428572063 1 0.9910714285714286031 1 0.9955357142857143016 1 0.9977678571428572063 1 0.9988839285714286031 1 
	0.9994419642857143016 1 0.9997209821428572063 1 0.9998604910714286031 1 1 3 
	0 3 1 3 
	13281.79757197951949 4435.642810510054915 14000.0000469639308 
	13281.79757197952313 4435.642810508752518 14001.16879421895828 
	13281.79757197946856 4435.634614608809898 14003.50628863077327 
	13281.79757197943218 4435.585440404674955 14008.18104758938716 
	13281.79757197920117 4435.413336518284268 14016.36066882605883 
	13281.79757197849176 4434.725033079635068 14032.71025320234912 
	13281.79757197620529 4432.759649538487793 14056.0116551575411 
	13281.79757197409526 4428.83687111643485 14083.79706352861649 
	13281.79757197174877 4421.537983779744536 14120.49284997436553 
	13281.79757196420542 4408.575845154944545 14165.48641739269624 
	13281.79757195809543 4387.073367933973714 14217.39745803704682 
	13281.79757195130514 4359.894196464387278 14266.5748132349363 
	13281.7975719457354 4327.379475635853851 14312.39940557605223 
	13281.79757193937257 4289.939026314626972 14354.2963021941614 
	13281.79757193768091 4249.593980982595895 14390.34957505921557 
	13281.79757193391742 4200.610236063170305 14425.56876225234919 
	13281.79757193300429 4156.693795993935964 14449.48396549746576 
	13281.7975719321239 4114.558375890931529 14467.24402737350829 
	13281.79757193152909 4083.157846031798272 14478.23174965740691 
	13281.79757193040132 4034.956832387659233 14491.14829646739781 
	13281.7975719291353 3973.147713694847425 14500.46607133846373 
	13281.79757192688703 3898.137887561538264 14500.46555122048994 
	13281.7975719252081 3836.328577961522114 14491.14873862898821 
	13281.7975719248152 3788.12768956996797 14478.23201673973745 
	13281.79757192397483 3752.801751070368482 14465.87146888572897 
	13281.79757192335637 3718.498442917444663 14450.90481886501948 
	13281.79757192268698 3690.924293564701657 14436.33151306131003 
	13281.79757192249235 3669.564647248012079 14423.46092883558413 
	13281.79757192234138 3648.701071049484199 14409.80087976025789 
	13281.79757192204124 3628.625738167201234 14394.98467826539854 
	13281.79757192185207 3609.422924605489698 14379.07436397297352 
	13281.79757192172656 3590.828306562038051 14362.4573248105462 
	13281.79757192126453 3568.774731407118452 14340.40380592435031 
	13281.79757192094257 3544.36220226546402 14312.03585432763794 
	13281.79757192046418 3522.137756129741774 14281.92292878943044 
	13281.79757192031138 3502.226020193603745 14250.23327911329943 
	13281.79757191992576 3482.794623834888625 14213.46783954712737 
	13281.79757191955105 3465.016770454561083 14171.29381373949946 
	13281.79757191938188 3450.300266000103875 14123.58331614019153 
	13281.79757191897079 3443.29257460239478 14088.91844136098916 
	13281.79757191893077 3440.472384015621174 14069.3817126381291 
	13281.79757191893441 3439.917131451393743 14065.26340926259218 
	13281.79757191893623 3439.122783047917892 14059.08088087415126 
	13281.79757191894896 3437.610511488743668 14045.65923375193415 
	13281.79757191897625 3436.057283448709768 14024.93315100925429 
	13281.79757191903809 3435.539135953488312 14004.15542048796124 
	13281.79757191904355 3435.746367842321433 13987.53322448940526 
	13281.79757191908902 3436.678753927908019 13962.6154869332986 
	13281.79757191919998 3441.234334580678023 13917.07469716175183 
	13281.79757191957469 3453.289086453348318 13864.2597247637641 
	13281.7975719197093 3467.711521539891237 13823.04649691194209 
	13281.79757191976205 3477.254717501014511 13800.00715357808622 
	13281.79757191985118 3492.851233993242204 13766.00726005929027 
	13281.79757192060788 3520.978848646431743 13717.28661943326915 
	13281.7975719213282 3562.551098670351166 13665.15889179313672 
	13281.7975719219794 3604.25089479967528 13624.48695403161582 
	13281.79757192217949 3643.28673194996145 13593.35727223461436 
	13281.7975719227943 3692.217780753680472 13561.75299833385543 
	13281.79757192360375 3752.289589298343799 13532.82328871827303 
	13281.79757192532452 3817.993882901832876 13512.55744970949127 
	13281.79757192653051 3879.543236136601081 13502.10063441648526 
	13281.7975719278038 3935.64308598025309 13498.94953161480043 
	13281.79757192916077 3991.742726095413218 13502.10071068340221 
	13281.79757193093064 4053.292497101886966 13512.55667263923169 
	13281.79757193295336 4107.049670199679895 13529.13952020011857 
	13281.79757193346632 4152.787046258252303 13549.09587355776421 
	13281.79757193454134 4185.876200980439535 13566.58338265023485 
	13281.79757193566911 4217.565619948649328 13586.49553924754582 
	13281.79757193704063 4252.697634735052816 13612.42358936513119 
	13281.79757193976911 4289.938953846927689 13645.70410725407783 
	13281.79757194341619 4327.379718387979665 13687.60047330814086 
	13281.79757194585181 4359.894248433123721 13733.42534535446975 
	13281.79757195477578 4387.073365206695598 13782.6026548379632 
	13281.7975719617607 4408.575865342661928 13834.51369654759765 
	13281.79757197069921 4421.537986033990819 13879.50724937698578 
	13281.79757197337676 4428.836874974953389 13916.20303454966233 
	13281.79757197580875 4432.759650955024881 13943.98844056867529 
	13281.79757197837898 4434.72503372547726 13967.28984119535198 
	13281.79757197919207 4435.413336647049618 13983.63942510410743 
	13281.797571979434 4435.585440462294173 13991.81904629772907 
	13281.79757197949402 4435.628467848791843 13995.90946032241482 
	13281.79757197951221 4435.639224844100681 13997.95474285849377 
	13281.79757197951949 4435.641914091921535 13998.97739355998056 
	13281.79757197951767 4435.642682449647509 13999.56176674175731 
	13281.79757197951767 4435.642810510217714 13999.85395355705259 
	13281.79757197951949 4435.642810510054915 14000.0000469639308 
	13365.13090531285343 4435.642810510054005 14000.0000469639308 
	13365.13090531285707 4435.642810508751609 14001.16879421895828 
	13365.1309053128025 4435.634614608808988 14003.50628863077327 
	13365.13090531276612 4435.585440404674046 14008.18104758938716 
	13365.13090531253511 4435.413336518283359 14016.36066882605883 
	13365.1309053118257 4434.725033079634159 14032.71025320234912 
	13365.13090530953923 4432.759649538486883 14056.0116551575411 
	13365.1309053074292 4428.83687111643394 14083.79706352861649 
	13365.13090530508271 4421.537983779743627 14120.49284997436553 
	13365.13090529753936 4408.575845154943636 14165.48641739269624 
	13365.13090529142937 4387.073367933972804 14217.39745803704682 
	13365.13090528463908 4359.894196464386368 14266.5748132349363 
	13365.13090527906934 4327.379475635852941 14312.39940557605223 
	13365.13090527270651 4289.939026314626062 14354.2963021941614 
	13365.13090527101485 4249.593980982594985 14390.34957505921557 
	13365.13090526725136 4200.610236063169395 14425.56876225234919 
	13365.13090526633823 4156.693795993935055 14449.48396549746576 
	13365.13090526545784 4114.55837589093062 14467.24402737350829 
	13365.13090526486303 4083.157846031797817 14478.23174965740691 
	13365.13090526373526 4034.956832387658778 14491.14829646739781 
	13365.13090526246924 3973.147713694846971 14500.46607133846373 
	13365.13090526022097 3898.137887561537809 14500.46555122048994 
	13365.13090525854204 3836.32857796152166 14491.14873862898821 
	13365.13090525814914 3788.127689569967515 14478.23201673973745 
	13365.13090525730877 3752.801751070368027 14465.87146888572897 
	13365.13090525669031 3718.498442917444208 14450.90481886501948 
	13365.13090525602092 3690.924293564701202 14436.33151306131003 
	13365.13090525582629 3669.564647248011624 14423.46092883558413 
	13365.13090525567532 3648.701071049483744 14409.80087976025789 
	13365.13090525537518 3628.62573816720078 14394.98467826539854 
	13365.13090525518601 3609.422924605489243 14379.07436397297352 
	13365.1309052550605 3590.828306562037596 14362.4573248105462 
	13365.13090525459847 3568.774731407117997 14340.40380592435031 
	13365.13090525427651 3544.362202265463566 14312.03585432763794 
	13365.13090525379812 3522.137756129741319 14281.92292878943044 
	13365.13090525364532 3502.22602019360329 14250.23327911329943 
	13365.1309052532597 3482.794623834888171 14213.46783954712737 
	13365.13090525288499 3465.016770454560628 14171.29381373949946 
	13365.13090525271582 3450.30026600010342 14123.58331614019153 
	13365.13090525230473 3443.292574602394325 14088.91844136098916 
	13365.13090525226471 3440.472384015620719 14069.3817126381291 
	13365.13090525226835 3439.917131451393288 14065.26340926259218 
	13365.13090525227017 3439.122783047917437 14059.08088087415126 
	13365.1309052522829 3437.610511488743214 14045.65923375193415 
	13365.13090525231019 3436.057283448709313 14024.93315100925429 
	13365.13090525237203 3435.539135953487857 14004.15542048796124 
	13365.13090525237749 3435.746367842320979 13987.53322448940526 
	13365.13090525242296 3436.678753927907565 13962.6154869332986 
	13365.13090525253392 3441.234334580677569 13917.07469716175183 
	13365.13090525290863 3453.289086453347863 13864.2597247637641 
	13365.13090525304324 3467.711521539890782 13823.04649691194209 
	13365.13090525309599 3477.254717501014056 13800.00715357808622 
	13365.13090525318512 3492.851233993241749 13766.00726005929027 
	13365.13090525394182 3520.978848646431288 13717.28661943326915 
	13365.13090525466214 3562.551098670350711 13665.15889179313672 
	13365.13090525531334 3604.250894799674825 13624.48695403161582 
	13365.13090525551343 3643.286731949960995 13593.35727223461436 
	13365.13090525612824 3692.217780753680017 13561.75299833385543 
	13365.13090525693769 3752.289589298343344 13532.82328871827303 
	13365.13090525865846 3817.993882901832421 13512.55744970949127 
	13365.13090525986445 3879.543236136600626 13502.10063441648526 
	13365.13090526113774 3935.643085980252636 13498.94953161480043 
	13365.13090526249471 3991.742726095412763 13502.10071068340221 
	13365.13090526426458 4053.292497101886511 13512.55667263923169 
	13365.1309052662873 4107.049670199678985 13529.13952020011857 
	13365.13090526680026 4152.787046258251394 13549.09587355776421 
	13365.13090526787528 4185.876200980438625 13566.58338265023485 
	13365.13090526900305 4217.565619948648418 13586.49553924754582 
	13365.13090527037457 4252.697634735051906 13612.42358936513119 
	13365.13090527310305 4289.938953846926779 13645.70410725407783 
	13365.13090527675013 4327.379718387978755 13687.60047330814086 
	13365.13090527918575 4359.894248433122812 13733.42534535446975 
	13365.13090528810972 4387.073365206694689 13782.6026548379632 
	13365.13090529509464 4408.575865342661018 13834.51369654759765 
	13365.13090530403315 4421.53798603398991 13879.50724937698578 
	13365.1309053067107 4428.83687497495248 13916.20303454966233 
	13365.13090530914269 4432.759650955023972 13943.98844056867529 
	13365.13090531171292 4434.725033725476351 13967.28984119535198 
	13365.13090531252601 4435.413336647048709 13983.63942510410743 
	13365.13090531276794 4435.585440462293263 13991.81904629772907 
	13365.13090531282796 4435.628467848790933 13995.90946032241482 
	13365.13090531284615 4435.639224844099772 13997.95474285849377 
	13365.13090531285343 4435.641914091920626 13998.97739355998056 
	13365.13090531285161 4435.6426824496466 13999.56176674175731 
	13365.13090531285161 4435.642810510216805 13999.85395355705259 
	13365.13090531285343 4435.642810510054005 14000.0000469639308 
	13448.46423864739154 4435.642810510054915 14000.0000469639308 
	13448.464238647397 4435.642810508752518 14001.16879421895828 
	13448.46423864734061 4435.634614608809898 14003.50628863077327 
	13448.46423864730241 4435.585440404674955 14008.18104758938716 
	13448.46423864706776 4435.413336518284268 14016.36066882605883 
	13448.46423864634562 4434.725033079634159 14032.71025320234912 
	13448.46423864401731 4432.759649538486883 14056.0116551575411 
	13448.46423864186363 4428.83687111643394 14083.79706352861649 
	13448.4642386394753 4421.537983779742717 14120.49284997436553 
	13448.46423863178825 4408.575845154942726 14165.48641739269624 
	13448.46423862556185 4387.073367933970985 14217.39745803704682 
	13448.46423861864605 4359.894196464386368 14266.5748132349363 
	13448.46423861297262 4327.379475635852032 14312.39940557605223 
	13448.46423860649156 4289.939026314626062 14354.2963021941614 
	13448.46423860476716 4249.593980982594076 14390.34957505921557 
	13448.46423860093273 4200.610236063169395 14425.56876225234919 
	13448.46423860000141 4156.693795993935055 14449.48396549746576 
	13448.46423859910647 4114.55837589093062 14467.24402737350829 
	13448.46423859849892 4083.157846031797362 14478.23174965740691 
	13448.46423859735114 4034.956832387658324 14491.14829646739781 
	13448.4642385960633 3973.147713694846971 14500.46607133846373 
	13448.46423859377137 3898.137887561537354 14500.46555122048994 
	13448.46423859206334 3836.32857796152166 14491.14873862898821 
	13448.46423859166134 3788.12768956996706 14478.23201673973745 
	13448.46423859080824 3752.801751070367118 14465.87146888572897 
	13448.46423859017887 3718.498442917442844 14450.90481886501948 
	13448.46423858949674 3690.924293564700292 14436.33151306131003 
	13448.46423858929847 3669.564647248010715 14423.46092883558413 
	13448.46423858914204 3648.701071049483289 14409.80087976025789 
	13448.46423858883827 3628.62573816719987 14394.98467826539854 
	13448.46423858864546 3609.422924605488333 14379.07436397297352 
	13448.46423858851995 3590.828306562036687 14362.4573248105462 
	13448.46423858805065 3568.774731407117088 14340.40380592435031 
	13448.46423858772141 3544.362202265462201 14312.03585432763794 
	13448.46423858723392 3522.13775612974041 14281.92292878943044 
	13448.46423858707749 3502.226020193601926 14250.23327911329943 
	13448.46423858668459 3482.794623834887716 14213.46783954712737 
	13448.4642385863026 3465.016770454559719 14171.29381373949946 
	13448.4642385861298 3450.300266000102056 14123.58331614019153 
	13448.46423858571143 3443.292574602392961 14088.91844136098916 
	13448.46423858567141 3440.472384015618445 14069.3817126381291 
	13448.46423858567505 3439.917131451391469 14065.26340926259218 
	13448.46423858567687 3439.122783047916073 14059.08088087415126 
	13448.4642385856896 3437.610511488741849 14045.65923375193415 
	13448.46423858571688 3436.057283448708404 14024.93315100925429 
	13448.46423858578055 3435.539135953486948 14004.15542048796124 
	13448.46423858578419 3435.746367842319614 13987.53322448940526 
	13448.46423858582966 3436.678753927906655 13962.6154869332986 
	13448.46423858594244 3441.234334580676659 13917.07469716175183 
	13448.46423858632079 3453.289086453346954 13864.2597247637641 
	13448.46423858645721 3467.711521539890782 13823.04649691194209 
	13448.46423858650996 3477.254717501013147 13800.00715357808622 
	13448.46423858660091 3492.851233993241294 13766.00726005929027 
	13448.46423858736853 3520.978848646429924 13717.28661943326915 
	13448.4642385881034 3562.551098670350257 13665.15889179313672 
	13448.46423858876733 3604.250894799673915 13624.48695403161582 
	13448.46423858897288 3643.286731949960085 13593.35727223461436 
	13448.46423858959861 3692.217780753679108 13561.75299833385543 
	13448.46423859042625 3752.289589298342889 13532.82328871827303 
	13448.46423859217612 3817.993882901832421 13512.55744970949127 
	13448.46423859340575 3879.543236136600171 13502.10063441648526 
	13448.46423859470451 3935.64308598025309 13498.94953161480043 
	13448.46423859608694 3991.742726095413673 13502.10071068340221 
	13448.46423859789138 4053.292497101886511 13512.55667263923169 
	13448.46423859995048 4107.049670199679895 13529.13952020011857 
	13448.46423860047435 4152.787046258251394 13549.09587355776421 
	13448.46423860156756 4185.876200980439535 13566.58338265023485 
	13448.46423860271716 4217.565619948648418 13586.49553924754582 
	13448.46423860411414 4252.697634735052816 13612.42358936513119 
	13448.46423860689356 4289.938953846926779 13645.70410725407783 
	13448.46423861060975 4327.379718387979665 13687.60047330814086 
	13448.46423861309086 4359.894248433123721 13733.42534535446975 
	13448.4642386221858 4387.073365206695598 13782.6026548379632 
	13448.46423862930169 4408.575865342661928 13834.51369654759765 
	13448.46423863841119 4421.537986033990819 13879.50724937698578 
	13448.46423864113967 4428.836874974953389 13916.20303454966233 
	13448.46423864361714 4432.759650955024881 13943.98844056867529 
	13448.46423864623466 4434.72503372547726 13967.28984119535198 
	13448.46423864706594 4435.413336647049618 13983.63942510410743 
	13448.46423864730787 4435.585440462294173 13991.81904629772907 
	13448.46423864737153 4435.628467848791843 13995.90946032241482 
	13448.4642386473879 4435.639224844100681 13997.95474285849377 
	13448.46423864739518 4435.641914091921535 13998.97739355998056 
	13448.46423864738972 4435.642682449647509 13999.56176674175731 
	13448.46423864738972 4435.642810510217714 13999.85395355705259 
	13448.46423864739154 4435.642810510054915 14000.0000469639308 
	13531.79757198072548 4435.642810510054915 14000.0000469639308 
	13531.79757198073094 4435.642810508752518 14001.16879421895828 
	13531.79757198067455 4435.634614608809898 14003.50628863077327 
	13531.79757198063635 4435.585440404674955 14008.18104758938716 
	13531.7975719804017 4435.413336518284268 14016.36066882605883 
	13531.79757197967956 4434.725033079634159 14032.71025320234912 
	13531.79757197735125 4432.759649538486883 14056.0116551575411 
	13531.79757197519757 4428.83687111643394 14083.79706352861649 
	13531.79757197280924 4421.537983779742717 14120.49284997436553 
	13531.79757196512219 4408.575845154942726 14165.48641739269624 
	13531.79757195889579 4387.073367933970985 14217.39745803704682 
	13531.79757195197999 4359.894196464386368 14266.5748132349363 
	13531.79757194630656 4327.379475635852032 14312.39940557605223 
	13531.7975719398255 4289.939026314626062 14354.2963021941614 
	13531.7975719381011 4249.593980982594076 14390.34957505921557 
	13531.79757193426667 4200.610236063169395 14425.56876225234919 
	13531.79757193333535 4156.693795993935055 14449.48396549746576 
	13531.79757193244041 4114.55837589093062 14467.24402737350829 
	13531.79757193183286 4083.157846031796907 14478.23174965740691 
	13531.79757193068508 4034.956832387657869 14491.14829646739781 
	13531.79757192939724 3973.147713694846516 14500.46607133846373 
	13531.79757192710531 3898.1378875615369 14500.46555122048994 
	13531.79757192539728 3836.328577961521205 14491.14873862898821 
	13531.79757192499528 3788.127689569966606 14478.23201673973745 
	13531.79757192414218 3752.801751070366663 14465.87146888572897 
	13531.79757192351281 3718.498442917442389 14450.90481886501948 
	13531.79757192283068 3690.924293564699838 14436.33151306131003 
	13531.79757192263241 3669.56464724801026 14423.46092883558413 
	13531.79757192247598 3648.701071049482834 14409.80087976025789 
	13531.79757192217221 3628.625738167199415 14394.98467826539854 
	13531.7975719219794 3609.422924605487879 14379.07436397297352 
	13531.79757192185389 3590.828306562036232 14362.4573248105462 
	13531.79757192138459 3568.774731407116633 14340.40380592435031 
	13531.79757192105535 3544.362202265461747 14312.03585432763794 
	13531.79757192056786 3522.137756129739955 14281.92292878943044 
	13531.79757192041143 3502.226020193601471 14250.23327911329943 
	13531.79757192001853 3482.794623834887261 14213.46783954712737 
	13531.79757191963654 3465.016770454559264 14171.29381373949946 
	13531.79757191946373 3450.300266000101601 14123.58331614019153 
	13531.79757191904537 3443.292574602392506 14088.91844136098916 
	13531.79757191900535 3440.47238401561799 14069.3817126381291 
	13531.79757191900899 3439.917131451391015 14065.26340926259218 
	13531.79757191901081 3439.122783047915618 14059.08088087415126 
	13531.79757191902354 3437.610511488741395 14045.65923375193415 
	13531.79757191905082 3436.057283448707949 14024.93315100925429 
	13531.79757191911449 3435.539135953486493 14004.15542048796124 
	13531.79757191911813 3435.74636784231916 13987.53322448940526 
	13531.7975719191636 3436.6787539279062 13962.6154869332986 
	13531.79757191927638 3441.234334580676204 13917.07469716175183 
	13531.79757191965473 3453.289086453346499 13864.2597247637641 
	13531.79757191979115 3467.711521539890327 13823.04649691194209 
	13531.7975719198439 3477.254717501012692 13800.00715357808622 
	13531.79757191993485 3492.851233993240839 13766.00726005929027 
	13531.79757192070247 3520.978848646429469 13717.28661943326915 
	13531.79757192143734 3562.551098670349802 13665.15889179313672 
	13531.79757192210127 3604.250894799673461 13624.48695403161582 
	13531.79757192230682 3643.286731949959631 13593.35727223461436 
	13531.79757192293255 3692.217780753678653 13561.75299833385543 
	13531.79757192376019 3752.289589298342435 13532.82328871827303 
	13531.79757192551006 3817.993882901831967 13512.55744970949127 
	13531.79757192673969 3879.543236136599717 13502.10063441648526 
	13531.79757192803845 3935.643085980252636 13498.94953161480043 
	13531.79757192942088 3991.742726095413218 13502.10071068340221 
	13531.79757193122532 4053.292497101886056 13512.55667263923169 
	13531.79757193328442 4107.049670199679895 13529.13952020011857 
	13531.79757193380829 4152.787046258251394 13549.09587355776421 
	13531.7975719349015 4185.876200980439535 13566.58338265023485 
	13531.7975719360511 4217.565619948648418 13586.49553924754582 
	13531.79757193744808 4252.697634735052816 13612.42358936513119 
	13531.7975719402275 4289.938953846926779 13645.70410725407783 
	13531.79757194394369 4327.379718387979665 13687.60047330814086 
	13531.7975719464248 4359.894248433123721 13733.42534535446975 
	13531.79757195551974 4387.073365206695598 13782.6026548379632 
	13531.79757196263563 4408.575865342661928 13834.51369654759765 
	13531.79757197174513 4421.537986033990819 13879.50724937698578 
	13531.79757197447361 4428.836874974953389 13916.20303454966233 
	13531.79757197695108 4432.759650955024881 13943.98844056867529 
	13531.7975719795686 4434.72503372547726 13967.28984119535198 
	13531.79757198039988 4435.413336647049618 13983.63942510410743 
	13531.79757198064181 4435.585440462294173 13991.81904629772907 
	13531.79757198070547 4435.628467848791843 13995.90946032241482 
	13531.79757198072184 4435.639224844100681 13997.95474285849377 
	13531.79757198072912 4435.641914091921535 13998.97739355998056 
	13531.79757198072366 4435.642682449647509 13999.56176674175731 
	13531.79757198072366 4435.642810510217714 13999.85395355705259 
	13531.79757198072548 4435.642810510054915 14000.0000469639308 
	0 
	
	0 
	0 
	81 0 0.001116071428571428509 0.002232142857142857019 0.004464285714285714038 0.008928571428571428076 0.01785714285714285615 0.02678571428571428423 0.0357142857142857123 0.05357142857142856845 0.07142857142857142461 0.08928571428571427382 0.1071428571428571369 0.125 0.1428571428571428492 0.1587301587301587213 0.1825396825396825295 0.1904761904761904656 0.2023809523809523836 0.2142857142857142738 0.238095238095238082 0.2619047619047618625 0.2857142857142856984 0.2976190476190476164 0.3095238095238095344 0.3214285714285713969 0.3333333333333333148 0.3392857142857143016 0.3452380952380952328 0.3571428571428570953 0.3630952380952380265 0.3690476190476190133 0.3809523809523809312 0.3928571428571428492 0.4047619047619047672 0.4166666666666666297 0.4285714285714285476 0.4444444444444444198 0.4603174603174602919 0.476190476190476164 0.4781746031746031411 0.4791666666666666297 0.4801587301587301182 0.4841269841269840724 0.4920634920634920362 0.5 0.5039682539682539542 0.5079365079365079083 0.5238095238095237249 0.5476190476190475609 0.5595238095238095344 0.5654761904761904656 0.5714285714285713969 0.5952380952380951218 0.6190476190476189577 0.6349206349206348854 0.650793650793650702 0.6666666666666666297 0.6904761904761904656 0.7142857142857141906 0.7321428571428569843 0.749999999999999889 0.7678571428571427937 0.7857142857142855874 0.8095238095238094234 0.8214285714285713969 0.8333333333333332593 0.8452380952380951218 0.8571428571428570953 0.875 0.8928571428571427937 0.9107142857142856984 0.9285714285714286031 0.9464285714285713969 0.9642857142857143016 0.9732142857142858094 0.9821428571428572063 0.9910714285714286031 0.9955357142857143016 0.9977678571428572063 0.9994419642857143016 0.9998604910714286031 
	0 
	0 
	0 
	F 1 F 0 F 1 F 0 } I I I I #
tcoedge-coedge $-1 -1 $-1 $14 $14 $18 $19 reversed $9 $20 -6.283185307179586232 -0 #
tcoedge-coedge $-1 -1 $-1 $21 $22 $11 $16 reversed $12 $23 -6.283185307179586232 -0 #
tedge-edge $-1 -1 $-1 $24 0 $24 6.283185307179586232 $15 $25 forward @7 unknown 0.0008015080042497695198 #
pcurve $-1 -1 $-1 0 forward { exppc nurbs 2 periodic 5 
	0 2 1.570796326794896558 2 3.141592653589793116 2 4.712388980384689674 2 6.283185307179586232 2 
	0 500 1 
	-500 500 0.707106781186543798 
	-500 0 1 
	-500 -500 0.7071067811865463515 
	0 -500 1 
	500 -500 0.7071067811865463515 
	500 0 1 
	500 500 0.707106781186543798 
	0 500 1 
	0 
	plane 13531.79757191538738 3935.642797989768951 14000.00000000000182 1 -3.637978807091713027e-15 0 0 0 -1 forward_v I I I I 
	} 0 0 #
tcoedge-coedge $-1 -1 $-1 $22 $21 $14 $19 forward $12 $26 0 6.283185307179586232 #
tedge-edge $-1 -1 $-1 $27 0 $27 6.283185307179586232 $18 $28 forward @7 unknown 0.0008015080023717637394 #
pcurve $-1 -1 $-1 0 forward { exppc nurbs 2 periodic 5 
	-6.283185307179586232 2 -4.712388980384689674 2 -3.141592653589793116 2 -1.570796326794896558 2 0 2 
	0 500 1 
	500 500 0.707106781186543798 
	500 0 1 
	500 -500 0.7071067811865463515 
	0 -500 1 
	-500 -500 0.7071067811865463515 
	-500 0 1 
	-500 500 0.707106781186543798 
	0 500 1 
	0 
	plane 13281.79757191538738 3935.642797989769861 14000.00000000000182 -1 3.637978807091713027e-15 -0 0 0 -1 reverse_v I I I I 
	} 0 0 #
coedge $-1 -1 $-1 $18 $15 $22 $29 reversed $12 $30 #
coedge $-1 -1 $-1 $15 $18 $21 $29 forward $12 $31 #
pcurve $-1 -1 $-1 0 forward { exppc nubs 1 periodic 2 
	-6.283185307179586232 1 -0 1 
	1 1 
	0 1 
	2.726396620975368931e-13 
	spline forward { ref 0 } I I I I 
	} 0 0 #
tvertex-vertex $-1 -1 $-1 $16 $32 4.860425317603253137e-05 #
ellipse-curve $-1 -1 $-1 13531.79757191538738 3935.642797989768951 14000.00000000000182 1 -3.637978807091713027e-15 0 1.818989403545856476e-12 500 0 1 I I #
pcurve $-1 -1 $-1 0 forward { exppc nubs 1 periodic 2 
	0 1 6.283185307179586232 1 
	0 0 
	1 0 
	4.4114023995510105e-13 
	spline forward { ref 0 } I I I I 
	} 0 0 #
tvertex-vertex $-1 -1 $-1 $19 $33 4.860425133555889605e-05 #
ellipse-curve $-1 -1 $-1 13281.79757191538738 3935.642797989769861 14000.00000000000182 1 -3.637978807091713027e-15 0 1.818989403545856476e-12 500 0 1 I I #
edge $-1 -1 $-1 $27 0 $24 1 $22 $34 forward @7 tangent #
pcurve $-1 -1 $-1 -1 $34 0 0 #
pcurve $-1 -1 $-1 1 $34 1 0 #
point $-1 -1 $-1 13531.7975719153892 4435.642797989768951 14000.00000000000182 #
point $-1 -1 $-1 13281.7975719153892 4435.642797989769861 14000.00000000000182 #
intcurve-curve $-1 -1 $-1 forward { parcur full nubs 3 open 2 
	0 3 1 3 
	13281.79757197951949 4435.642810510054915 14000.0000469639308 
	13365.13090531285343 4435.642810510054005 14000.0000469639308 
	13448.46423864739154 4435.642810510054915 14000.0000469639308 
	13531.79757198072548 4435.642810510054915 14000.0000469639308 
	0 
	
	spline forward { ref 0 } I I I I 
	null_surface 
	nubs 1 open 2 
	0 1 1 1 
	0 0 
	0 1 
	
	nullbs 
	I I 
	0 
	0 
	0 
	surf1 } I I #
End-of-ACIS-data 