700 0 1 0           
4 LibG 20 ASM 224.0.1.65535 NT 24 Wed Jul 17 12:52:13 2019 
1000 9.999999999999999547e-07 1.000000000000000036e-10 
body $-1 -1 $-1 $1 $-1 $2 #
lump $-1 -1 $-1 $-1 $3 $0 #
transform $-1 -1 1 0 0 0 1 0 0 0 1 0 0 0 1 no_rotate no_reflect no_shear #
shell $-1 -1 $-1 $-1 $-1 $4 $-1 $1 #
face $-1 -1 $-1 $5 $6 $3 $-1 $7 forward single #
face $-1 -1 $-1 $8 $9 $3 $-1 $10 reversed single #
loop $-1 -1 $-1 $-1 $11 $4 #
plane-surface $-1 -1 $-1 7031.79757191538738 3935.642797989792598 14000.00000000000182 1 -3.637978807091713027e-15 0 0 0 -1 forward_v I I I I #
face $-1 -1 $-1 $-1 $12 $3 $-1 $13 forward single #
loop $-1 -1 $-1 $-1 $14 $5 #
plane-surface $-1 -1 $-1 6781.79757191538738 3935.642797989793507 14000.00000000000182 1 -3.637978807091713027e-15 0 0 0 -1 forward_v I I I I #
tcoedge-coedge $-1 -1 $-1 $11 $11 $15 $16 forward $6 $17 0 6.283185307179586232 #
loop $-1 -1 $-1 $-1 $18 $8 #
spline-surface $-1 -1 $-1 forward { exactsur full nubs 3 3 periodic open none none 97 2 
	0 3 0.001116071428571428509 1 0.002232142857142857019 1 0.004464285714285714038 1 0.008928571428571428076 1 
	0.01785714285714285615 1 0.0357142857142857123 1 0.05357142857142856845 1 0.07142857142857142461 1 0.08928571428571427382 1 
	0.1071428571428571369 1 0.1160714285714285754 1 0.125 1 0.1428571428571428492 1 0.1587301587301587213 1 
	0.1746031746031745935 1 0.1904761904761904656 1 0.2023809523809523836 1 0.2142857142857142738 1 0.226190476190476164 1 
	0.238095238095238082 1 0.2499999999999999722 1 0.2619047619047618625 1 0.2738095238095237804 1 0.2857142857142856984 1 
	0.2976190476190476164 1 0.3095238095238095344 1 0.3125 1 0.3154761904761904656 1 0.3214285714285713969 1 
	0.3273809523809523281 1 0.3333333333333333148 1 0.3452380952380952328 1 0.3571428571428570953 1 0.3690476190476190133 1 
	0.375 1 0.3809523809523809312 1 0.3839285714285713969 1 0.3869047619047618625 1 0.3898809523809523281 1 
	0.3928571428571428492 1 0.4047619047619047672 1 0.4166666666666666297 1 0.4285714285714285476 1 0.4444444444444444198 1 
	0.4603174603174602919 1 0.476190476190476164 1 0.4771825396825396526 1 0.4781746031746031411 1 0.4791666666666666297 1 
	0.4801587301587301182 1 0.4841269841269840724 1 0.4880952380952380265 1 0.4900793650793650036 1 0.4920634920634920362 1 
	0.5158730158730158166 1 0.5178571428571427937 1 0.5198412698412697708 1 0.5218253968253967479 1 0.5238095238095237249 1 
	0.5476190476190475609 1 0.5714285714285713969 1 0.5952380952380951218 1 0.6190476190476189577 1 0.6349206349206348854 1 
	0.650793650793650702 1 0.6666666666666666297 1 0.6785714285714286031 1 0.6904761904761904656 1 0.7023809523809523281 1 
	0.7142857142857141906 1 0.7321428571428569843 1 0.749999999999999889 1 0.7678571428571427937 1 0.7857142857142855874 1 
	0.7976190476190474499 1 0.8095238095238094234 1 0.8333333333333332593 1 0.8392857142857141906 1 0.8452380952380951218 1 
	0.8571428571428570953 1 0.875 1 0.8928571428571427937 1 0.9107142857142856984 1 0.9285714285714286031 1 
	0.9464285714285713969 1 0.9642857142857143016 1 0.9732142857142858094 1 0.9821428571428572063 1 0.9910714285714286031 1 
	0.9955357142857143016 1 0.9977678571428572063 1 0.9988839285714286031 1 0.9994419642857143016 1 0.9997209821428572063 1 
	0.9998604910714286031 1 1 3 
	0 3 1 3 
	6781.797571902392519 4435.642904908556375 13999.99989503684083 
	6781.797571902386153 4435.642904901441398 14001.16864230957799 
	6781.797571902397067 4435.634709490947898 14003.50613699378118 
	6781.797571902407071 4435.585533417570332 14008.18089597713879 
	6781.797571902447089 4435.413438704065811 14016.36051933311137 
	6781.797571902599884 4434.725083035264106 14032.71010175806259 
	6781.797571903091011 4431.973830520545562 14065.3321126722567 
	6781.797571904671713 4424.130796557846224 14111.49408020746705 
	6781.797571905942277 4408.575797236394465 14165.48634140194736 
	6781.797571907336533 4387.073500255680301 14217.39748007723756 
	6781.797571908394275 4359.894235689360357 14266.5748015038389 
	6781.797571909494764 4332.798665115380572 14304.76212452015898 
	6781.797571909786711 4308.659426905705914 14333.34799394049696 
	6781.797571910074112 4282.956049522424109 14360.5360812045019 
	6781.79757191088629 4249.594188554814536 14390.35005021816323 
	6781.79757191157023 4207.366017233363891 14420.70985301284054 
	6781.79757191193039 4164.126538634763165 14445.67404832895772 
	6781.79757191220142 4122.408884534479512 14464.49786283722642 
	6781.797571912540661 4083.157825422897986 14478.23210250004013 
	6781.797571912818057 4047.007047590215279 14487.91880955423221 
	6781.797571912939929 4010.233409703183042 14494.87665702333652 
	6781.79757191315548 3973.042660914475618 14499.0670737681321 
	6781.797571913351931 3935.642743657354004 14500.46647170491633 
	6781.797571913540196 3898.24283225385625 14499.06707067303796 
	6781.79757191371209 3861.05207196067613 14494.87668101846066 
	6781.797571913889442 3824.278457016840093 14487.91873526094605 
	6781.797571914024047 3788.127627614000176 14478.23216575924016 
	6781.797571914175023 3761.633242076872648 14468.96135726580178 
	6781.797571914192304 3744.289836814057253 14461.96669538340393 
	6781.797571914204127 3732.816769225497865 14457.08823709446187 
	6781.797571914233231 3718.650245505539715 14450.58948427037467 
	6781.797571914264154 3701.953919300062353 14442.16076233243075 
	6781.797571914295986 3680.127876146179915 14430.09802014233719 
	6781.79757191441422 3653.719878258806602 14413.50482740136795 
	6781.797571914443324 3623.606893739764473 14391.28051018426595 
	6781.797571914567925 3599.966998473525564 14370.93666460419627 
	6781.797571914586115 3582.00682548745317 14353.63585512616919 
	6781.797571914610671 3571.193832944433325 14342.41073617641086 
	6781.797571914615219 3562.799822121869511 14333.19275112206378 
	6781.797571914619766 3556.634677847552666 14326.16276273486801 
	6781.797571914625223 3550.602075684560987 14319.01871204811505 
	6781.797571914636137 3538.806112861664587 14304.50753725844334 
	6781.797571914733453 3522.137750044885252 14281.92287862861667 
	6781.797571914779837 3502.225995511371821 14250.23324274410879 
	6781.79757191482895 3482.794659380816029 14213.46779794612121 
	6781.797571914889886 3465.016616743139366 14171.29388348710927 
	6781.797571914944456 3450.300207911646794 14123.5833520577653 
	6781.797571915040862 3443.498542174945214 14089.9380962228006 
	6781.797571915049957 3440.769119699444673 14071.43831088598381 
	6781.797571915049957 3440.333435857146014 14068.35223907002546 
	6781.797571915049048 3439.917001294073089 14065.26351086932482 
	6781.797571915048138 3439.122646196724418 14059.08098342990525 
	6781.797571915036315 3438.075719983804447 14049.78907475766573 
	6781.797571915028129 3437.170150075011406 14039.43893823495091 
	6781.797571915025401 3436.600788431092496 14031.14721572125381 
	6781.79757191500812 3434.969132063596135 14002.10358359283055 
	6781.797571914945365 3435.696543992720308 13972.94251045135024 
	6781.797571914932632 3438.77389643472543 13944.01631523298056 
	6781.797571914930813 3439.510337860272102 13937.82653644426864 
	6781.797571914929904 3440.324030241980836 13931.64643106171752 
	6781.79757191491899 3444.479756923042714 13902.85542647509283 
	6781.79757191482804 3456.07076240990591 13852.0715961740807 
	6781.797571914732544 3483.474856662779985 13782.24740981228933 
	6781.797571914582477 3520.979214734569268 13717.28706423009498 
	6781.797571914484251 3562.550990933544654 13665.15909780836591 
	6781.797571914267792 3604.251241173187282 13624.48768242135884 
	6781.797571914248692 3643.286712258958232 13593.35750661012389 
	6781.797571914104992 3681.733034924883214 13568.52644047200374 
	6781.797571913959473 3718.498615302627059 13549.09551027816087 
	6781.797571913898537 3752.801873711931421 13534.12894434526243 
	6781.797571913725733 3788.127763912882529 13521.76814474477396 
	6781.797571913554748 3830.303588675528772 13510.46664232249168 
	6781.797571913401043 3879.542918221233322 13502.10030562821703 
	6781.79757191317276 3935.642766349238173 13498.94995846432539 
	6781.797571912935382 3991.742552387169781 13502.10039343381686 
	6781.797571912667081 4040.981975628965756 13510.46663889865704 
	6781.797571912492458 4083.157663483142187 13521.76836663732684 
	6781.79757191241788 4130.259263195632229 13538.24871689687279 
	6781.797571911959494 4169.681841936131605 13557.2324307974668 
	6781.797571911818522 4201.720950854634793 13576.53901431119448 
	6781.797571911753948 4222.584560976656576 13590.19894634577031 
	6781.797571911460182 4252.697679261900703 13612.42314420009097 
	6781.797571910873557 4289.938992049791523 13645.70364063944362 
	6781.797571910110491 4327.379748174499582 13687.60009091277971 
	6781.797571909462931 4359.894213003685763 13733.42501591846303 
	6781.79757190827786 4387.073646719194585 13782.60221666758298 
	6781.797571906321537 4408.575957274581015 13834.51342833502713 
	6781.797571904451615 4421.538117573290947 13879.50702317542164 
	6781.797571903799508 4428.83698049332088 13916.20284131937842 
	6781.797571903256539 4432.759756047525116 13943.98826261993236 
	6781.797571902656273 4434.72512984498735 13967.28968265295771 
	6781.797571902470736 4435.413431747123468 13983.63927130794764 
	6781.797571902414347 4435.585534977583848 13991.81889396244333 
	6781.797571902397976 4435.628562287560271 13995.90930828547425 
	6781.797571902397067 4435.639319256827548 13997.95459090472468 
	6781.797571902394338 4435.642008495768096 13998.97724162401028 
	6781.797571902395248 4435.642776858157958 13999.56161481173149 
	6781.797571902393429 4435.642904909445861 13999.85380162774891 
	6781.797571902392519 4435.642904908556375 13999.99989503684083 
	6865.13090523572555 4435.642904908555465 13999.99989503684083 
	6865.130905235719183 4435.642904901440488 14001.16864230957799 
	6865.130905235730097 4435.634709490946989 14003.50613699378118 
	6865.130905235740101 4435.585533417569422 14008.18089597713879 
	6865.130905235780119 4435.413438704064902 14016.36051933311137 
	6865.130905235932914 4434.725083035263197 14032.71010175806259 
	6865.130905236424042 4431.973830520544652 14065.3321126722567 
	6865.130905238004743 4424.130796557845315 14111.49408020746705 
	6865.130905239275307 4408.575797236393555 14165.48634140194736 
	6865.130905240669563 4387.073500255679392 14217.39748007723756 
	6865.130905241727305 4359.894235689359448 14266.5748015038389 
	6865.130905242827794 4332.798665115379663 14304.76212452015898 
	6865.130905243119741 4308.659426905705004 14333.34799394049696 
	6865.130905243407142 4282.9560495224232 14360.5360812045019 
	6865.130905244219321 4249.594188554813627 14390.35005021816323 
	6865.130905244903261 4207.366017233362982 14420.70985301284054 
	6865.130905245263421 4164.126538634762255 14445.67404832895772 
	6865.13090524553445 4122.408884534478602 14464.49786283722642 
	6865.130905245873691 4083.157825422897531 14478.23210250004013 
	6865.130905246151087 4047.007047590214825 14487.91880955423221 
	6865.13090524627296 4010.233409703182588 14494.87665702333652 
	6865.13090524648851 3973.042660914475164 14499.0670737681321 
	6865.130905246684961 3935.642743657353549 14500.46647170491633 
	6865.130905246873226 3898.242832253855795 14499.06707067303796 
	6865.130905247045121 3861.052071960675676 14494.87668101846066 
	6865.130905247222472 3824.278457016839639 14487.91873526094605 
	6865.130905247357077 3788.127627613999721 14478.23216575924016 
	6865.130905247508053 3761.633242076872193 14468.96135726580178 
	6865.130905247525334 3744.289836814056798 14461.96669538340393 
	6865.130905247537157 3732.81676922549741 14457.08823709446187 
	6865.130905247566261 3718.65024550553926 14450.58948427037467 
	6865.130905247597184 3701.953919300061898 14442.16076233243075 
	6865.130905247629016 3680.12787614617946 14430.09802014233719 
	6865.130905247747251 3653.719878258806148 14413.50482740136795 
	6865.130905247776354 3623.606893739764018 14391.28051018426595 
	6865.130905247900955 3599.966998473525109 14370.93666460419627 
	6865.130905247919145 3582.006825487452716 14353.63585512616919 
	6865.130905247943701 3571.19383294443287 14342.41073617641086 
	6865.130905247948249 3562.799822121869056 14333.19275112206378 
	6865.130905247952796 3556.634677847552211 14326.16276273486801 
	6865.130905247958253 3550.602075684560532 14319.01871204811505 
	6865.130905247969167 3538.806112861664133 14304.50753725844334 
	6865.130905248066483 3522.137750044884797 14281.92287862861667 
	6865.130905248112867 3502.225995511371366 14250.23324274410879 
	6865.13090524816198 3482.794659380815574 14213.46779794612121 
	6865.130905248222916 3465.016616743138911 14171.29388348710927 
	6865.130905248277486 3450.300207911646339 14123.5833520577653 
	6865.130905248373892 3443.49854217494476 14089.9380962228006 
	6865.130905248382987 3440.769119699444218 14071.43831088598381 
	6865.130905248382987 3440.33343585714556 14068.35223907002546 
	6865.130905248382078 3439.917001294072634 14065.26351086932482 
	6865.130905248381168 3439.122646196723963 14059.08098342990525 
	6865.130905248369345 3438.075719983803992 14049.78907475766573 
	6865.130905248361159 3437.170150075010952 14039.43893823495091 
	6865.130905248358431 3436.600788431092042 14031.14721572125381 
	6865.130905248341151 3434.96913206359568 14002.10358359283055 
	6865.130905248278395 3435.696543992719853 13972.94251045135024 
	6865.130905248265663 3438.773896434724975 13944.01631523298056 
	6865.130905248263844 3439.510337860271648 13937.82653644426864 
	6865.130905248262934 3440.324030241980381 13931.64643106171752 
	6865.13090524825202 3444.47975692304226 13902.85542647509283 
	6865.130905248161071 3456.070762409905456 13852.0715961740807 
	6865.130905248065574 3483.47485666277953 13782.24740981228933 
	6865.130905247915507 3520.979214734568814 13717.28706423009498 
	6865.130905247817282 3562.550990933544199 13665.15909780836591 
	6865.130905247600822 3604.251241173186827 13624.48768242135884 
	6865.130905247581723 3643.286712258957778 13593.35750661012389 
	6865.130905247438022 3681.733034924882759 13568.52644047200374 
	6865.130905247292503 3718.498615302626604 13549.09551027816087 
	6865.130905247231567 3752.801873711930966 13534.12894434526243 
	6865.130905247058763 3788.127763912882074 13521.76814474477396 
	6865.130905246887778 3830.303588675528317 13510.46664232249168 
	6865.130905246734073 3879.542918221232867 13502.10030562821703 
	6865.13090524650579 3935.642766349237718 13498.94995846432539 
	6865.130905246268412 3991.742552387169326 13502.10039343381686 
	6865.130905246000111 4040.981975628965301 13510.46663889865704 
	6865.130905245825488 4083.157663483141732 13521.76836663732684 
	6865.13090524575091 4130.25926319563132 13538.24871689687279 
	6865.130905245292524 4169.681841936130695 13557.2324307974668 
	6865.130905245151553 4201.720950854633884 13576.53901431119448 
	6865.130905245086979 4222.584560976655666 13590.19894634577031 
	6865.130905244793212 4252.697679261899793 13612.42314420009097 
	6865.130905244206588 4289.938992049790613 13645.70364063944362 
	6865.130905243443522 4327.379748174498673 13687.60009091277971 
	6865.130905242795961 4359.894213003684854 13733.42501591846303 
	6865.13090524161089 4387.073646719193675 13782.60221666758298 
	6865.130905239654567 4408.575957274580105 13834.51342833502713 
	6865.130905237784646 4421.538117573290037 13879.50702317542164 
	6865.130905237132538 4428.83698049331997 13916.20284131937842 
	6865.13090523658957 4432.759756047524206 13943.98826261993236 
	6865.130905235989303 4434.725129844986441 13967.28968265295771 
	6865.130905235803766 4435.413431747122559 13983.63927130794764 
	6865.130905235747377 4435.585534977582938 13991.81889396244333 
	6865.130905235731007 4435.628562287559362 13995.90930828547425 
	6865.130905235730097 4435.639319256826639 13997.95459090472468 
	6865.130905235727369 4435.642008495767186 13998.97724162401028 
	6865.130905235728278 4435.642776858157049 13999.56161481173149 
	6865.130905235726459 4435.642904909444951 13999.85380162774891 
	6865.13090523572555 4435.642904908555465 13999.99989503684083 
	6948.464238568576548 4435.642904908555465 13999.99989503684083 
	6948.464238568570181 4435.642904901439579 14001.16864230957799 
	6948.464238568582914 4435.634709490946079 14003.50613699378118 
	6948.464238568592009 4435.585533417567603 14008.18089597713879 
	6948.464238568633846 4435.413438704063083 14016.36051933311137 
	6948.464238568793007 4434.725083035262287 14032.71010175806259 
	6948.464238569301415 4431.973830520542833 14065.3321126722567 
	6948.464238570942143 4424.130796557845315 14111.49408020746705 
	6948.464238572260911 4408.575797236392646 14165.48634140194736 
	6948.464238573705188 4387.073500255678482 14217.39748007723756 
	6948.464238574803858 4359.894235689358538 14266.5748015038389 
	6948.464238575945274 4332.798665115378753 14304.76212452015898 
	6948.464238576248135 4308.659426905705004 14333.34799394049696 
	6948.46423857654554 4282.9560495224232 14360.5360812045019 
	6948.464238577385913 4249.594188554814536 14390.35005021816323 
	6948.464238578095319 4207.366017233363891 14420.70985301284054 
	6948.464238578468212 4164.126538634763165 14445.67404832895772 
	6948.464238578748336 4122.408884534478602 14464.49786283722642 
	6948.46423857910122 4083.157825422897076 14478.23210250004013 
	6948.464238579387711 4047.007047590214825 14487.91880955423221 
	6948.46423857951595 4010.233409703182588 14494.87665702333652 
	6948.464238579738776 3973.042660914474709 14499.0670737681321 
	6948.464238579943412 3935.642743657354004 14500.46647170491633 
	6948.464238580137135 3898.242832253855795 14499.06707067303796 
	6948.464238580315396 3861.052071960675221 14494.87668101846066 
	6948.464238580500023 3824.278457016838729 14487.91873526094605 
	6948.464238580639176 3788.127627613997902 14478.23216575924016 
	6948.464238580796518 3761.633242076871284 14468.96135726580178 
	6948.464238580814708 3744.289836814055889 14461.96669538340393 
	6948.464238580826532 3732.816769225496046 14457.08823709446187 
	6948.464238580856545 3718.650245505538351 14450.58948427037467 
	6948.464238580887468 3701.953919300060988 14442.16076233243075 
	6948.46423858092021 3680.127876146178551 14430.09802014233719 
	6948.464238581042991 3653.719878258806148 14413.50482740136795 
	6948.464238581073005 3623.606893739763564 14391.28051018426595 
	6948.464238581202153 3599.966998473524654 14370.93666460419627 
	6948.464238581219433 3582.006825487452716 14353.63585512616919 
	6948.464238581245809 3571.193832944432415 14342.41073617641086 
	6948.464238581250356 3562.799822121869511 14333.19275112206378 
	6948.464238581255813 3556.634677847552211 14326.16276273486801 
	6948.46423858126127 3550.602075684560987 14319.01871204811505 
	6948.464238581272184 3538.806112861664133 14304.50753725844334 
	6948.464238581374047 3522.137750044885252 14281.92287862861667 
	6948.464238581421341 3502.225995511371821 14250.23324274410879 
	6948.464238581471363 3482.794659380816483 14213.46779794612121 
	6948.464238581535028 3465.016616743139821 14171.29388348710927 
	6948.464238581591417 3450.300207911646339 14123.5833520577653 
	6948.464238581691461 3443.498542174945669 14089.9380962228006 
	6948.464238581700556 3440.769119699445127 14071.43831088598381 
	6948.464238581700556 3440.333435857146469 14068.35223907002546 
	6948.464238581700556 3439.917001294073543 14065.26351086932482 
	6948.464238581699647 3439.122646196724872 14059.08098342990525 
	6948.464238581687823 3438.075719983804902 14049.78907475766573 
	6948.464238581677819 3437.170150075011861 14039.43893823495091 
	6948.46423858167509 3436.600788431092951 14031.14721572125381 
	6948.46423858165781 3434.969132063596589 14002.10358359283055 
	6948.464238581593236 3435.696543992720763 13972.94251045135024 
	6948.464238581579593 3438.773896434725884 13944.01631523298056 
	6948.464238581577774 3439.510337860272557 13937.82653644426864 
	6948.464238581576865 3440.324030241981291 13931.64643106171752 
	6948.464238581565041 3444.479756923042714 13902.85542647509283 
	6948.464238581470454 3456.070762409905456 13852.0715961740807 
	6948.464238581372229 3483.47485666277953 13782.24740981228933 
	6948.464238581216705 3520.979214734568814 13717.28706423009498 
	6948.46423858111666 3562.550990933543744 13665.15909780836591 
	6948.464238580892015 3604.251241173185917 13624.48768242135884 
	6948.464238580873825 3643.286712258956868 13593.35750661012389 
	6948.464238580723759 3681.733034924881395 13568.52644047200374 
	6948.464238580574602 3718.498615302625694 13549.09551027816087 
	6948.464238580509118 3752.801873711929602 13534.12894434526243 
	6948.464238580330857 3788.127763912881164 13521.76814474477396 
	6948.464238580154415 3830.303588675527408 13510.46664232249168 
	6948.464238579994344 3879.542918221231503 13502.10030562821703 
	6948.464238579756966 3935.642766349236354 13498.94995846432539 
	6948.464238579512312 3991.742552387167507 13502.10039343381686 
	6948.464238579232187 4040.981975628963482 13510.46663889865704 
	6948.464238579051198 4083.157663483139459 13521.76836663732684 
	6948.464238578973891 4130.25926319563041 13538.24871689687279 
	6948.464238578498225 4169.681841936128876 13557.2324307974668 
	6948.464238578352706 4201.720950854632065 13576.53901431119448 
	6948.464238578285403 4222.584560976653847 13590.19894634577031 
	6948.464238577979813 4252.697679261898884 13612.42314420009097 
	6948.46423857737318 4289.938992049788794 13645.70364063944362 
	6948.46423857658192 4327.379748174497763 13687.60009091277971 
	6948.464238575910713 4359.894213003683035 13733.42501591846303 
	6948.464238574683804 4387.073646719192766 13782.60221666758298 
	6948.464238572653812 4408.575957274580105 13834.51342833502713 
	6948.46423857071477 4421.538117573289128 13879.50702317542164 
	6948.464238570038106 4428.836980493319061 13916.20284131937842 
	6948.464238569475128 4432.759756047523297 13943.98826261993236 
	6948.464238568853034 4434.725129844986441 13967.28968265295771 
	6948.464238568660221 4435.413431747121649 13983.63927130794764 
	6948.464238568601104 4435.585534977582029 13991.81889396244333 
	6948.464238568584733 4435.628562287559362 13995.90930828547425 
	6948.464238568582914 4435.639319256826639 13997.95459090472468 
	6948.464238568580186 4435.642008495767186 13998.97724162401028 
	6948.464238568578367 4435.642776858157958 13999.56161481173149 
	6948.464238568577457 4435.642904909444951 13999.85380162774891 
	6948.464238568576548 4435.642904908555465 13999.99989503684083 
	7031.797571901909578 4435.642904908555465 13999.99989503684083 
	7031.797571901903211 4435.642904901439579 14001.16864230957799 
	7031.797571901915944 4435.634709490946079 14003.50613699378118 
	7031.797571901925039 4435.585533417567603 14008.18089597713879 
	7031.797571901966876 4435.413438704063083 14016.36051933311137 
	7031.797571902126037 4434.725083035262287 14032.71010175806259 
	7031.797571902634445 4431.973830520542833 14065.3321126722567 
	7031.797571904275173 4424.130796557845315 14111.49408020746705 
	7031.797571905593941 4408.575797236392646 14165.48634140194736 
	7031.797571907038218 4387.073500255678482 14217.39748007723756 
	7031.797571908136888 4359.894235689358538 14266.5748015038389 
	7031.797571909278304 4332.798665115378753 14304.76212452015898 
	7031.797571909581166 4308.659426905705004 14333.34799394049696 
	7031.79757190987857 4282.9560495224232 14360.5360812045019 
	7031.797571910718943 4249.594188554814536 14390.35005021816323 
	7031.797571911428349 4207.366017233363891 14420.70985301284054 
	7031.797571911801242 4164.126538634763165 14445.67404832895772 
	7031.797571912081366 4122.408884534478602 14464.49786283722642 
	7031.79757191243425 4083.157825422896622 14478.23210250004013 
	7031.797571912720741 4047.00704759021437 14487.91880955423221 
	7031.79757191284898 4010.233409703182133 14494.87665702333652 
	7031.797571913071806 3973.042660914474254 14499.0670737681321 
	7031.797571913276443 3935.642743657353549 14500.46647170491633 
	7031.797571913470165 3898.24283225385534 14499.06707067303796 
	7031.797571913648426 3861.052071960674766 14494.87668101846066 
	7031.797571913833053 3824.278457016838274 14487.91873526094605 
	7031.797571913972206 3788.127627613997447 14478.23216575924016 
	7031.797571914129549 3761.633242076870829 14468.96135726580178 
	7031.797571914147738 3744.289836814055434 14461.96669538340393 
	7031.797571914159562 3732.816769225495591 14457.08823709446187 
	7031.797571914189575 3718.650245505537896 14450.58948427037467 
	7031.797571914220498 3701.953919300060534 14442.16076233243075 
	7031.79757191425324 3680.127876146178096 14430.09802014233719 
	7031.797571914376022 3653.719878258805693 14413.50482740136795 
	7031.797571914406035 3623.606893739763109 14391.28051018426595 
	7031.797571914535183 3599.9669984735242 14370.93666460419627 
	7031.797571914552464 3582.006825487452261 14353.63585512616919 
	7031.797571914578839 3571.193832944431961 14342.41073617641086 
	7031.797571914583386 3562.799822121869056 14333.19275112206378 
	7031.797571914588843 3556.634677847551757 14326.16276273486801 
	7031.7975719145943 3550.602075684560532 14319.01871204811505 
	7031.797571914605214 3538.806112861663678 14304.50753725844334 
	7031.797571914707078 3522.137750044884797 14281.92287862861667 
	7031.797571914754371 3502.225995511371366 14250.23324274410879 
	7031.797571914804394 3482.794659380816029 14213.46779794612121 
	7031.797571914868058 3465.016616743139366 14171.29388348710927 
	7031.797571914924447 3450.300207911645884 14123.5833520577653 
	7031.797571915024491 3443.498542174945214 14089.9380962228006 
	7031.797571915033586 3440.769119699444673 14071.43831088598381 
	7031.797571915033586 3440.333435857146014 14068.35223907002546 
	7031.797571915033586 3439.917001294073089 14065.26351086932482 
	7031.797571915032677 3439.122646196724418 14059.08098342990525 
	7031.797571915020853 3438.075719983804447 14049.78907475766573 
	7031.797571915010849 3437.170150075011406 14039.43893823495091 
	7031.79757191500812 3436.600788431092496 14031.14721572125381 
	7031.79757191499084 3434.969132063596135 14002.10358359283055 
	7031.797571914926266 3435.696543992720308 13972.94251045135024 
	7031.797571914912623 3438.77389643472543 13944.01631523298056 
	7031.797571914910804 3439.510337860272102 13937.82653644426864 
	7031.797571914909895 3440.324030241980836 13931.64643106171752 
	7031.797571914898072 3444.47975692304226 13902.85542647509283 
	7031.797571914803484 3456.070762409905001 13852.0715961740807 
	7031.797571914705259 3483.474856662779075 13782.24740981228933 
	7031.797571914549735 3520.979214734568359 13717.28706423009498 
	7031.797571914449691 3562.550990933543289 13665.15909780836591 
	7031.797571914225045 3604.251241173185463 13624.48768242135884 
	7031.797571914206856 3643.286712258956413 13593.35750661012389 
	7031.797571914056789 3681.73303492488094 13568.52644047200374 
	7031.797571913907632 3718.49861530262524 13549.09551027816087 
	7031.797571913842148 3752.801873711929147 13534.12894434526243 
	7031.797571913663887 3788.12776391288071 13521.76814474477396 
	7031.797571913487445 3830.303588675526953 13510.46664232249168 
	7031.797571913327374 3879.542918221231048 13502.10030562821703 
	7031.797571913089996 3935.642766349235899 13498.94995846432539 
	7031.797571912845342 3991.742552387167052 13502.10039343381686 
	7031.797571912565218 4040.981975628963028 13510.46663889865704 
	7031.797571912384228 4083.157663483139004 13521.76836663732684 
	7031.797571912306921 4130.25926319563041 13538.24871689687279 
	7031.797571911831255 4169.681841936128876 13557.2324307974668 
	7031.797571911685736 4201.720950854632065 13576.53901431119448 
	7031.797571911618434 4222.584560976653847 13590.19894634577031 
	7031.797571911312843 4252.697679261898884 13612.42314420009097 
	7031.79757191070621 4289.938992049788794 13645.70364063944362 
	7031.79757190991495 4327.379748174497763 13687.60009091277971 
	7031.797571909243743 4359.894213003683035 13733.42501591846303 
	7031.797571908016835 4387.073646719192766 13782.60221666758298 
	7031.797571905986842 4408.575957274580105 13834.51342833502713 
	7031.7975719040478 4421.538117573289128 13879.50702317542164 
	7031.797571903371136 4428.836980493319061 13916.20284131937842 
	7031.797571902808158 4432.759756047523297 13943.98826261993236 
	7031.797571902186064 4434.725129844986441 13967.28968265295771 
	7031.797571901993251 4435.413431747121649 13983.63927130794764 
	7031.797571901934134 4435.585534977582029 13991.81889396244333 
	7031.797571901917763 4435.628562287559362 13995.90930828547425 
	7031.797571901915944 4435.639319256826639 13997.95459090472468 
	7031.797571901913216 4435.642008495767186 13998.97724162401028 
	7031.797571901911397 4435.642776858157958 13999.56161481173149 
	7031.797571901910487 4435.642904909444951 13999.85380162774891 
	7031.797571901909578 4435.642904908555465 13999.99989503684083 
	0 
	
	0 
	0 
	95 0 0.001116071428571428509 0.002232142857142857019 0.004464285714285714038 0.008928571428571428076 0.01785714285714285615 0.0357142857142857123 0.05357142857142856845 0.07142857142857142461 0.08928571428571427382 0.1071428571428571369 0.1160714285714285754 0.125 0.1428571428571428492 0.1587301587301587213 0.1746031746031745935 0.1904761904761904656 0.2023809523809523836 0.2142857142857142738 0.226190476190476164 0.238095238095238082 0.2499999999999999722 0.2619047619047618625 0.2738095238095237804 0.2857142857142856984 0.2976190476190476164 0.3095238095238095344 0.3125 0.3154761904761904656 0.3214285714285713969 0.3273809523809523281 0.3333333333333333148 0.3452380952380952328 0.3571428571428570953 0.3690476190476190133 0.375 0.3809523809523809312 0.3839285714285713969 0.3869047619047618625 0.3898809523809523281 0.3928571428571428492 0.4047619047619047672 0.4166666666666666297 0.4285714285714285476 0.4444444444444444198 0.4603174603174602919 0.476190476190476164 0.4771825396825396526 0.4781746031746031411 0.4791666666666666297 0.4801587301587301182 0.4841269841269840724 0.4880952380952380265 0.4900793650793650036 0.4920634920634920362 0.5158730158730158166 0.5178571428571427937 0.5198412698412697708 0.5218253968253967479 0.5238095238095237249 0.5476190476190475609 0.5714285714285713969 0.5952380952380951218 0.6190476190476189577 0.6349206349206348854 0.650793650793650702 0.6666666666666666297 0.6785714285714286031 0.6904761904761904656 0.7023809523809523281 0.7142857142857141906 0.7321428571428569843 0.749999999999999889 0.7678571428571427937 0.7857142857142855874 0.7976190476190474499 0.8095238095238094234 0.8333333333333332593 0.8392857142857141906 0.8452380952380951218 0.8571428571428570953 0.875 0.8928571428571427937 0.9107142857142856984 0.9285714285714286031 0.9464285714285713969 0.9642857142857143016 0.9732142857142858094 0.9821428571428572063 0.9910714285714286031 0.9955357142857143016 0.9977678571428572063 0.9994419642857143016 0.9997209821428572063 0.9998604910714286031 
	0 
	0 
	0 
	F 1 F 0 F 1 F 0 } I I I I #
tcoedge-coedge $-1 -1 $-1 $14 $14 $18 $19 reversed $9 $20 -6.283185307179586232 -0 #
tcoedge-coedge $-1 -1 $-1 $21 $22 $11 $16 reversed $12 $23 -6.283185307179586232 -0 #
tedge-edge $-1 -1 $-1 $24 0 $24 6.283185307179586232 $15 $25 forward @7 unknown 0.0007155832149377726542 #
pcurve $-1 -1 $-1 0 forward { exppc nurbs 2 periodic 5 
	0 2 1.570796326794896558 2 3.141592653589793116 2 4.712388980384689674 2 6.283185307179586232 2 
	0 500 1 
	-500 500 0.707106781186543798 
	-500 0 1 
	-500 -500 0.7071067811865463515 
	0 -500 1 
	500 -500 0.7071067811865463515 
	500 0 1 
	500 500 0.707106781186543798 
	0 500 1 
	0 
	plane 7031.79757191538738 3935.642797989792598 14000.00000000000182 1 -3.637978807091713027e-15 0 0 0 -1 forward_v I I I I 
	} 0 0 #
tcoedge-coedge $-1 -1 $-1 $22 $21 $14 $19 forward $12 $26 0 6.283185307179586232 #
tedge-edge $-1 -1 $-1 $27 0 $27 6.283185307179586232 $18 $28 forward @7 unknown 0.0007155832165848074848 #
pcurve $-1 -1 $-1 0 forward { exppc nurbs 2 periodic 5 
	-6.283185307179586232 2 -4.712388980384689674 2 -3.141592653589793116 2 -1.570796326794896558 2 0 2 
	0 500 1 
	500 500 0.707106781186543798 
	500 0 1 
	500 -500 0.7071067811865463515 
	0 -500 1 
	-500 -500 0.7071067811865463515 
	-500 0 1 
	-500 500 0.707106781186543798 
	0 500 1 
	0 
	plane 6781.79757191538738 3935.642797989793507 14000.00000000000182 -1 3.637978807091713027e-15 -0 0 0 -1 reverse_v I I I I 
	} 0 0 #
coedge $-1 -1 $-1 $18 $15 $22 $29 reversed $12 $30 #
coedge $-1 -1 $-1 $15 $18 $21 $29 forward $12 $31 #
pcurve $-1 -1 $-1 0 forward { exppc nubs 1 periodic 2 
	-6.283185307179586232 1 -0 1 
	1 1 
	0 1 
	0 
	spline forward { ref 0 } I I I I 
	} 0 0 #
tvertex-vertex $-1 -1 $-1 $16 $32 0.0001498295371314243044 #
ellipse-curve $-1 -1 $-1 7031.79757191538738 3935.642797989792598 14000.00000000000182 1 -3.637978807091713027e-15 0 1.818989403545856476e-12 500 0 1 I I #
pcurve $-1 -1 $-1 0 forward { exppc nubs 1 periodic 2 
	0 1 6.283185307179586232 1 
	0 0 
	1 0 
	2.726396620975368931e-13 
	spline forward { ref 0 } I I I I 
	} 0 0 #
tvertex-vertex $-1 -1 $-1 $19 $33 0.0001498295370887541185 #
ellipse-curve $-1 -1 $-1 6781.79757191538738 3935.642797989793507 14000.00000000000182 1 -3.637978807091713027e-15 0 1.818989403545856476e-12 500 0 1 I I #
edge $-1 -1 $-1 $27 5.198671944505226857e-11 $24 1 $22 $34 forward @7 tangent #
pcurve $-1 -1 $-1 -1 $34 0 0 #
pcurve $-1 -1 $-1 1 $34 1 0 #
point $-1 -1 $-1 7031.797571915389199 4435.642797989792598 14000.00000000000182 #
point $-1 -1 $-1 6781.797571915389199 4435.642797989793507 14000.00000000000182 #
intcurve-curve $-1 -1 $-1 forward { parcur full nubs 3 open 2 
	0 3 1 3 
	6781.797571902392519 4435.642904908556375 13999.99989503684083 
	6865.13090523572555 4435.642904908555465 13999.99989503684083 
	6948.464238568576548 4435.642904908555465 13999.99989503684083 
	7031.797571901909578 4435.642904908555465 13999.99989503684083 
	0 
	
	spline forward { ref 0 } I I I I 
	null_surface 
	nubs 1 open 2 
	0 1 1 1 
	0 0 
	0 1 
	
	nullbs 
	I I 
	0 
	0 
	0 
	surf1 } F 5.198671944505226857e-11 F 1 #
End-of-ACIS-data 