700 0 1 0           
4 LibG 20 ASM 224.0.1.65535 NT 24 Wed Jul 17 12:52:13 2019 
1000 9.999999999999999547e-07 1.000000000000000036e-10 
body $-1 -1 $-1 $1 $-1 $2 #
lump $-1 -1 $-1 $-1 $3 $0 #
transform $-1 -1 1 0 0 0 1 0 0 0 1 0 0 0 1 no_rotate no_reflect no_shear #
shell $-1 -1 $-1 $-1 $-1 $4 $-1 $1 #
face $-1 -1 $-1 $5 $6 $3 $-1 $7 forward single #
face $-1 -1 $-1 $8 $9 $3 $-1 $10 reversed single #
loop $-1 -1 $-1 $-1 $11 $4 #
plane-surface $-1 -1 $-1 8281.79757191538738 3935.64279798978805 14000.00000000000182 1 -3.637978807091713027e-15 0 0 0 -1 forward_v I I I I #
face $-1 -1 $-1 $-1 $12 $3 $-1 $13 forward single #
loop $-1 -1 $-1 $-1 $14 $5 #
plane-surface $-1 -1 $-1 8031.79757191538738 3935.64279798978896 14000.00000000000182 1 -3.637978807091713027e-15 0 0 0 -1 forward_v I I I I #
tcoedge-coedge $-1 -1 $-1 $11 $11 $15 $16 forward $6 $17 0 6.283185307179586232 #
loop $-1 -1 $-1 $-1 $18 $8 #
spline-surface $-1 -1 $-1 forward { exactsur full nubs 3 3 periodic open none none 88 2 
	0 3 0.001116071428571428509 1 0.002232142857142857019 1 0.004464285714285714038 1 0.006696428571428571057 1 
	0.008928571428571428076 1 0.01785714285714285615 1 0.0357142857142857123 1 0.05357142857142856845 1 0.07142857142857142461 1 
	0.08928571428571427382 1 0.1071428571428571369 1 0.1160714285714285754 1 0.125 1 0.1428571428571428492 1 
	0.1587301587301587213 1 0.1746031746031745935 1 0.1904761904761904656 1 0.2023809523809523836 1 0.2142857142857142738 1 
	0.238095238095238082 1 0.2619047619047618625 1 0.2857142857142856984 1 0.3095238095238095344 1 0.3110119047619047672 1 
	0.3125 1 0.3154761904761904656 1 0.3184523809523809312 1 0.3214285714285713969 1 0.3333333333333333148 1 
	0.3452380952380952328 1 0.3571428571428570953 1 0.3630952380952380265 1 0.3690476190476190133 1 0.375 1 
	0.3809523809523809312 1 0.3928571428571428492 1 0.4047619047619047672 1 0.4285714285714285476 1 0.4325396825396825573 1 
	0.4365079365079365115 1 0.4444444444444444198 1 0.4603174603174602919 1 0.476190476190476164 1 0.4920634920634920362 1 
	0.5079365079365079083 1 0.5238095238095237249 1 0.5476190476190475609 1 0.5535714285714286031 1 0.5595238095238095344 1 
	0.5714285714285713969 1 0.5833333333333332593 1 0.5952380952380951218 1 0.6190476190476189577 1 0.6349206349206348854 1 
	0.650793650793650702 1 0.6666666666666666297 1 0.6904761904761904656 1 0.7023809523809523281 1 0.7142857142857141906 1 
	0.7232142857142855874 1 0.7321428571428569843 1 0.7410714285714283811 1 0.749999999999999889 1 0.7678571428571427937 1 
	0.7857142857142855874 1 0.7976190476190474499 1 0.8095238095238094234 1 0.8214285714285713969 1 0.8333333333333332593 1 
	0.8452380952380951218 1 0.8571428571428570953 1 0.875 1 0.8928571428571427937 1 0.9107142857142856984 1 
	0.9285714285714286031 1 0.9464285714285713969 1 0.9642857142857143016 1 0.9732142857142858094 1 0.9821428571428572063 1 
	0.9910714285714286031 1 0.9955357142857143016 1 0.9977678571428572063 1 0.9988839285714286031 1 0.9994419642857143016 1 
	0.9997209821428572063 1 0.9998604910714286031 1 1 3 
	0 3 1 3 
	8031.797571671974765 4435.642847964754765 13999.99998366249929 
	8031.797571671986589 4435.642847965025794 14001.16873092037531 
	8031.797571672204867 4435.634651919673161 14003.50622530811961 
	8031.797571672372214 4435.585478275341302 14008.18098448618184 
	8031.79757167317257 4435.462544939337022 14014.02357046802354 
	8031.797571673686434 4435.216719584429484 14021.03191687329672 
	8031.797571675202562 4434.528510199259472 14035.04032995737361 
	8031.797571685544426 4431.973792673497883 14065.33218668964219 
	8031.797571717582287 4424.130764855043708 14111.49411165195306 
	8031.797571744573361 4408.575781591624036 14165.4863316596493 
	8031.797571773969139 4387.073504665718247 14217.39743163043022 
	8031.797571796564625 4359.894239858870606 14266.57469762968321 
	8031.797571820961821 4332.798712002176217 14304.76200700057598 
	8031.797571826847161 4308.659437306523614 14333.34781537338131 
	8031.797571835275448 4282.956171179653211 14360.53600966651538 
	8031.797571839482771 4249.594286224567441 14390.34989051832417 
	8031.797571858888659 4207.366088253585076 14420.70964289319454 
	8031.797571860540302 4164.126662518561716 14445.6738397179779 
	8031.79757186441293 4122.409000465600002 14464.49771446584418 
	8031.797571867393344 4083.157881084287055 14478.23152803565245 
	8031.797571871250511 4034.957122105350663 14491.14843458631731 
	8031.797571875527865 3973.14782160966115 14500.46606228140445 
	8031.797571883999808 3898.138266529109842 14500.46526744004404 
	8031.797571889098435 3823.9667230781738 14489.28591548993427 
	8031.797571894246175 3774.68888065891133 14474.08555635247649 
	8031.797571894933753 3748.625975520130396 14463.71537747271032 
	8031.79757189494012 3742.855977751132741 14461.35693728428123 
	8031.797571895122019 3735.685320179162318 14458.30787795107244 
	8031.797571895236615 3727.150445710429267 14454.48876338515402 
	8031.797571895524015 3710.226489569231489 14446.53271783310993 
	8031.797571897611306 3685.409780847167895 14433.41667178792886 
	8031.797571899268405 3653.720237566431024 14413.50475169793026 
	8031.797571900199728 3628.626117325487485 14394.98445954222188 
	8031.797571900890034 3609.42331656271017 14379.07414529069501 
	8031.797571901243828 3595.477360546616637 14366.61134998379384 
	8031.79757190163491 3582.007290133100923 14353.63570724610327 
	8031.797571902115124 3564.706322985181032 14335.67562976835507 
	8031.797571902617165 3544.362921565130819 14312.03547671688466 
	8031.797571903513017 3514.72925883472135 14271.88554885421399 
	8031.797571904359756 3493.892523739858461 14235.79735818907284 
	8031.797571904598044 3479.842343365733541 14205.66504456702933 
	8031.797571904612596 3473.194682524711425 14190.42864015608393 
	8031.797571904741744 3462.563892612494328 14163.34222762143145 
	8031.797571904899996 3450.299968148055996 14123.58356920377082 
	8031.797571905030964 3440.406872569120878 14074.64487747775092 
	8031.797571905187397 3435.435504657718411 14024.96428147814004 
	8031.797571905051882 3435.435756442362162 13975.03576429521672 
	8031.797571904981851 3441.234644832127287 13917.07494631737245 
	8031.797571904126016 3451.897827968381989 13870.35382742543879 
	8031.797571904002325 3463.590878837781929 13834.8218527302397 
	8031.797571903892276 3472.265732985984869 13811.44171085236485 
	8031.797571903502103 3484.737649861825957 13782.85546991370029 
	8031.797571902990967 3502.226017159357525 13749.76676908215268 
	8031.79757190233704 3528.774097523492856 13707.51309364914232 
	8031.797571899966897 3562.5506613009793 13665.15892446102407 
	8031.797571898385286 3604.250817636201191 13624.48707348872449 
	8031.797571897281159 3643.286535764573728 13593.35743327171622 
	8031.797571895830515 3692.217607837683317 13561.75290265674084 
	8031.797571892930137 3741.026102755317879 13538.24840378971385 
	8031.797571890955624 3788.128001269346896 13521.768565807286 
	8031.797571889487699 3821.266001079054604 13512.88868816206923 
	8031.79757188853182 3851.845865644645528 13506.80624650874961 
	8031.797571887369486 3879.631266396323554 13502.88343840565722 
	8031.797571886481819 3907.592960610235423 13500.52504399854115 
	8031.797571884093486 3944.992854759295369 13499.47531264199279 
	8031.797571879009411 3991.742727713101431 13502.10030521466433 
	8031.797571874466485 4040.982074431557066 13510.46678409436208 
	8031.797571868097293 4083.157911373356455 13521.76820682918878 
	8031.797571864096426 4118.48383149061101 13534.12900569681369 
	8031.79757185985909 4152.787099775209754 13549.09553002793655 
	8031.797571853521731 4185.876119429048231 13566.58345649572766 
	8031.797571845687344 4217.56559444946015 13586.49543192110286 
	8031.797571837837495 4252.697579193309139 13612.42356232854945 
	8031.797571819339282 4289.938915641447238 13645.70403224658003 
	8031.797571800384503 4327.379647994855077 13687.60043015295196 
	8031.797571779022292 4359.894220807364036 13733.42526400569113 
	8031.797571754716955 4387.073445470122351 13782.60251988849268 
	8031.797571731610333 4408.575886051135058 13834.51361607017316 
	8031.797571702862115 4421.538029460337384 13879.50716936773824 
	8031.797571693661666 4428.836911467763457 13916.20296350730132 
	8031.797571685305229 4432.759689373782749 13943.98837186673518 
	8031.797571676112057 4434.725070955906631 13967.28977670157292 
	8031.797571673159837 4435.413374125563678 13983.63936143805404 
	8031.797571672274898 4435.585477900040132 13991.81898292468941 
	8031.797571672052072 4435.628505300817778 13995.9093970007907 
	8031.797571671990227 4435.639262295395383 13997.95467955186723 
	8031.797571671976584 4435.641951545389929 13998.97733025677735 
	8031.797571671972946 4435.642719901436976 13999.56170343879421 
	8031.797571671973856 4435.642847964721113 13999.85389025526456 
	8031.797571671974765 4435.642847964754765 13999.99998366249929 
	8115.130905005307795 4435.642847964753855 13999.99998366249929 
	8115.130905005319619 4435.642847965024885 14001.16873092037531 
	8115.130905005537898 4435.634651919672251 14003.50622530811961 
	8115.130905005705245 4435.585478275340392 14008.18098448618184 
	8115.1309050065056 4435.462544939336112 14014.02357046802354 
	8115.130905007019464 4435.216719584428574 14021.03191687329672 
	8115.130905008535592 4434.528510199258562 14035.04032995737361 
	8115.130905018877456 4431.973792673496973 14065.33218668964219 
	8115.130905050915317 4424.130764855042798 14111.49411165195306 
	8115.130905077906391 4408.575781591623127 14165.4863316596493 
	8115.130905107302169 4387.073504665717337 14217.39743163043022 
	8115.130905129897656 4359.894239858869696 14266.57469762968321 
	8115.130905154294851 4332.798712002175307 14304.76200700057598 
	8115.130905160180191 4308.659437306522705 14333.34781537338131 
	8115.130905168608479 4282.956171179652301 14360.53600966651538 
	8115.130905172815801 4249.594286224566531 14390.34989051832417 
	8115.13090519222169 4207.366088253584167 14420.70964289319454 
	8115.130905193873332 4164.126662518560806 14445.6738397179779 
	8115.13090519774596 4122.409000465599092 14464.49771446584418 
	8115.130905200726374 4083.157881084286601 14478.23152803565245 
	8115.130905204583541 4034.957122105350209 14491.14843458631731 
	8115.130905208860895 3973.147821609660696 14500.46606228140445 
	8115.130905217332838 3898.138266529109387 14500.46526744004404 
	8115.130905222431466 3823.966723078173345 14489.28591548993427 
	8115.130905227579206 3774.688880658910875 14474.08555635247649 
	8115.130905228266784 3748.625975520129941 14463.71537747271032 
	8115.13090522827315 3742.855977751132286 14461.35693728428123 
	8115.130905228455049 3735.685320179161863 14458.30787795107244 
	8115.130905228569645 3727.150445710428812 14454.48876338515402 
	8115.130905228857046 3710.226489569231035 14446.53271783310993 
	8115.130905230944336 3685.40978084716744 14433.41667178792886 
	8115.130905232601435 3653.720237566430569 14413.50475169793026 
	8115.130905233532758 3628.62611732548703 14394.98445954222188 
	8115.130905234223064 3609.423316562709715 14379.07414529069501 
	8115.130905234576858 3595.477360546616183 14366.61134998379384 
	8115.13090523496794 3582.007290133100469 14353.63570724610327 
	8115.130905235448154 3564.706322985180577 14335.67562976835507 
	8115.130905235950195 3544.362921565130364 14312.03547671688466 
	8115.130905236846047 3514.729258834720895 14271.88554885421399 
	8115.130905237692787 3493.892523739858007 14235.79735818907284 
	8115.130905237931074 3479.842343365733086 14205.66504456702933 
	8115.130905237945626 3473.19468252471097 14190.42864015608393 
	8115.130905238074774 3462.563892612493873 14163.34222762143145 
	8115.130905238233026 3450.299968148055541 14123.58356920377082 
	8115.130905238363994 3440.406872569120424 14074.64487747775092 
	8115.130905238520427 3435.435504657717956 14024.96428147814004 
	8115.130905238384912 3435.435756442361708 13975.03576429521672 
	8115.130905238314881 3441.234644832126833 13917.07494631737245 
	8115.130905237459046 3451.897827968381534 13870.35382742543879 
	8115.130905237335355 3463.590878837781474 13834.8218527302397 
	8115.130905237225306 3472.265732985984414 13811.44171085236485 
	8115.130905236835133 3484.737649861825503 13782.85546991370029 
	8115.130905236323997 3502.22601715935707 13749.76676908215268 
	8115.13090523567007 3528.774097523492401 13707.51309364914232 
	8115.130905233299927 3562.550661300978845 13665.15892446102407 
	8115.130905231718316 3604.250817636200736 13624.48707348872449 
	8115.130905230614189 3643.286535764573273 13593.35743327171622 
	8115.130905229163545 3692.217607837682863 13561.75290265674084 
	8115.130905226263167 3741.026102755317424 13538.24840378971385 
	8115.130905224288654 3788.128001269346441 13521.768565807286 
	8115.130905222820729 3821.266001079054149 13512.88868816206923 
	8115.13090522186485 3851.845865644645073 13506.80624650874961 
	8115.130905220702516 3879.631266396323099 13502.88343840565722 
	8115.130905219814849 3907.592960610234968 13500.52504399854115 
	8115.130905217426516 3944.992854759294914 13499.47531264199279 
	8115.130905212342441 3991.742727713100976 13502.10030521466433 
	8115.130905207799515 4040.982074431556612 13510.46678409436208 
	8115.130905201430323 4083.157911373356001 13521.76820682918878 
	8115.130905197429456 4118.4838314906101 13534.12900569681369 
	8115.13090519319212 4152.787099775208844 13549.09553002793655 
	8115.130905186854761 4185.876119429047321 13566.58345649572766 
	8115.130905179020374 4217.56559444945924 13586.49543192110286 
	8115.130905171170525 4252.697579193308229 13612.42356232854945 
	8115.130905152672312 4289.938915641446329 13645.70403224658003 
	8115.130905133717533 4327.379647994854167 13687.60043015295196 
	8115.130905112355322 4359.894220807363126 13733.42526400569113 
	8115.130905088049985 4387.073445470121442 13782.60251988849268 
	8115.130905064943363 4408.575886051134148 13834.51361607017316 
	8115.130905036195145 4421.538029460336475 13879.50716936773824 
	8115.130905026994697 4428.836911467762548 13916.20296350730132 
	8115.130905018638259 4432.759689373781839 13943.98837186673518 
	8115.130905009445087 4434.725070955905721 13967.28977670157292 
	8115.130905006492867 4435.413374125562768 13983.63936143805404 
	8115.130905005607929 4435.585477900039223 13991.81898292468941 
	8115.130905005385102 4435.628505300816869 13995.9093970007907 
	8115.130905005323257 4435.639262295394474 13997.95467955186723 
	8115.130905005309614 4435.64195154538902 13998.97733025677735 
	8115.130905005305976 4435.642719901436067 13999.56170343879421 
	8115.130905005306886 4435.642847964720204 13999.85389025526456 
	8115.130905005307795 4435.642847964753855 13999.99998366249929 
	8198.464238331063825 4435.642847964752946 13999.99998366249929 
	8198.464238331074739 4435.642847965023066 14001.16873092037531 
	8198.464238331300294 4435.634651919671342 14003.50622530811961 
	8198.464238331473098 4435.585478275339483 14008.18098448618184 
	8198.4642383322971 4435.462544939334293 14014.02357046802354 
	8198.464238332828245 4435.216719584428574 14021.03191687329672 
	8198.464238334388938 4434.528510199256743 14035.04032995737361 
	8198.464238345055492 4431.973792673496973 14065.33218668964219 
	8198.464238378088339 4424.130764855041889 14111.49411165195306 
	8198.464238405920696 4408.575781591623127 14165.4863316596493 
	8198.464238436232336 4387.073504665717337 14217.39743163043022 
	8198.464238459529952 4359.894239858870606 14266.57469762968321 
	8198.464238484688394 4332.798712002175307 14304.76200700057598 
	8198.464238490754724 4308.659437306522705 14333.34781537338131 
	8198.464238499445855 4282.956171179652301 14360.53600966651538 
	8198.464238503784145 4249.594286224566531 14390.34989051832417 
	8198.464238523791209 4207.366088253584167 14420.70964289319454 
	8198.464238525495603 4164.126662518560806 14445.6738397179779 
	8198.464238529488284 4122.409000465599092 14464.49771446584418 
	8198.464238532562376 4083.157881084287055 14478.23152803565245 
	8198.464238536542325 4034.957122105350663 14491.14843458631731 
	8198.464238540951555 3973.147821609661605 14500.46606228140445 
	8198.464238549686343 3898.138266529110297 14500.46526744004404 
	8198.46423855494686 3823.966723078174255 14489.28591548993427 
	8198.464238560251033 3774.688880658911785 14474.08555635247649 
	8198.464238560962258 3748.625975520130851 14463.71537747271032 
	8198.464238560967715 3742.855977751133196 14461.35693728428123 
	8198.46423856115689 3735.685320179162773 14458.30787795107244 
	8198.464238561273305 3727.150445710429722 14454.48876338515402 
	8198.4642385615698 3710.226489569231944 14446.53271783310993 
	8198.464238563721665 3685.409780847168349 14433.41667178792886 
	8198.464238565429696 3653.720237566431479 14413.50475169793026 
	8198.464238566390122 3628.62611732548794 14394.98445954222188 
	8198.464238567103166 3609.423316562710625 14379.07414529069501 
	8198.464238567468783 3595.477360546617092 14366.61134998379384 
	8198.464238567872599 3582.007290133101378 14353.63570724610327 
	8198.464238568367364 3564.706322985181487 14335.67562976835507 
	8198.464238568885776 3544.362921565131273 14312.03547671688466 
	8198.464238569809822 3514.729258834721804 14271.88554885421399 
	8198.464238570681118 3493.892523739858916 14235.79735818907284 
	8198.464238570928501 3479.842343365733996 14205.66504456702933 
	8198.464238570943053 3473.19468252471188 14190.42864015608393 
	8198.464238571075839 3462.563892612494783 14163.34222762143145 
	8198.464238571237729 3450.29996814805645 14123.58356920377082 
	8198.464238571374153 3440.406872569121333 14074.64487747775092 
	8198.464238571534224 3435.435504657718866 14024.96428147814004 
	8198.464238571392343 3435.435756442362617 13975.03576429521672 
	8198.464238571321403 3441.234644832127742 13917.07494631737245 
	8198.464238570439193 3451.897827968382444 13870.35382742543879 
	8198.464238570311863 3463.590878837782384 13834.8218527302397 
	8198.464238570199086 3472.265732985985323 13811.44171085236485 
	8198.464238569797089 3484.737649861826412 13782.85546991370029 
	8198.464238569269583 3502.22601715935798 13749.76676908215268 
	8198.464238568596556 3528.77409752349331 13707.51309364914232 
	8198.464238566153654 3562.550661300979755 13665.15892446102407 
	8198.46423856452202 3604.250817636201646 13624.48707348872449 
	8198.464238563385152 3643.286535764574182 13593.35743327171622 
	8198.464238561888124 3692.217607837683772 13561.75290265674084 
	8198.464238558899524 3741.026102755318334 13538.24840378971385 
	8198.464238556862256 3788.128001269347351 13521.768565807286 
	8198.464238555348857 3821.266001079055059 13512.88868816206923 
	8198.464238554361145 3851.845865644645983 13506.80624650874961 
	8198.464238553162431 3879.631266396324008 13502.88343840565722 
	8198.46423855224748 3907.592960610235878 13500.52504399854115 
	8198.464238549784568 3944.992854759295824 13499.47531264199279 
	8198.46423854454406 3991.742727713101885 13502.10030521466433 
	8198.464238539860162 4040.982074431557066 13510.46678409436208 
	8198.464238533291791 4083.157911373356001 13521.76820682918878 
	8198.464238529166323 4118.4838314906101 13534.12900569681369 
	8198.464238524797111 4152.787099775208844 13549.09553002793655 
	8198.464238518263301 4185.876119429046412 13566.58345649572766 
	8198.464238510185169 4217.565594449458331 13586.49543192110286 
	8198.464238502092485 4252.69757919330732 13612.42356232854945 
	8198.464238483018562 4289.938915641445419 13645.70403224658003 
	8198.464238463471702 4327.379647994853258 13687.60043015295196 
	8198.464238441445559 4359.894220807361307 13733.42526400569113 
	8198.464238416381704 4387.073445470119623 13782.60251988849268 
	8198.464238392556581 4408.575886051133239 13834.51361607017316 
	8198.46423836291433 4421.538029460335565 13879.50716936773824 
	8198.4642383534283 4428.836911467761638 13916.20296350730132 
	8198.464238344811747 4432.75968937378093 13943.98837186673518 
	8198.464238335332993 4434.725070955904812 13967.28977670157292 
	8198.464238332288005 4435.413374125562768 13983.63936143805404 
	8198.464238331376691 4435.585477900038313 13991.81898292468941 
	8198.464238331147499 4435.628505300815959 13995.9093970007907 
	8198.464238331082015 4435.639262295393564 13997.95467955186723 
	8198.464238331067463 4435.64195154538811 13998.97733025677735 
	8198.464238331062006 4435.642719901435157 13999.56170343879421 
	8198.464238331062006 4435.642847964719294 13999.85389025526456 
	8198.464238331063825 4435.642847964752946 13999.99998366249929 
	8281.797571664397765 4435.642847964752946 13999.99998366249929 
	8281.797571664408679 4435.642847965023066 14001.16873092037531 
	8281.797571664634233 4435.634651919671342 14003.50622530811961 
	8281.797571664807037 4435.585478275339483 14008.18098448618184 
	8281.79757166563104 4435.462544939334293 14014.02357046802354 
	8281.797571666162185 4435.216719584428574 14021.03191687329672 
	8281.797571667722877 4434.528510199256743 14035.04032995737361 
	8281.797571678389431 4431.973792673496973 14065.33218668964219 
	8281.797571711422279 4424.130764855041889 14111.49411165195306 
	8281.797571739254636 4408.575781591623127 14165.4863316596493 
	8281.797571769566275 4387.073504665717337 14217.39743163043022 
	8281.797571792863891 4359.894239858870606 14266.57469762968321 
	8281.797571818022334 4332.798712002175307 14304.76200700057598 
	8281.797571824088664 4308.659437306522705 14333.34781537338131 
	8281.797571832779795 4282.956171179652301 14360.53600966651538 
	8281.797571837118085 4249.594286224566531 14390.34989051832417 
	8281.797571857125149 4207.366088253584167 14420.70964289319454 
	8281.797571858829542 4164.126662518560806 14445.6738397179779 
	8281.797571862822224 4122.409000465599092 14464.49771446584418 
	8281.797571865896316 4083.157881084286601 14478.23152803565245 
	8281.797571869876265 4034.957122105350209 14491.14843458631731 
	8281.797571874285495 3973.14782160966115 14500.46606228140445 
	8281.797571883020282 3898.138266529109842 14500.46526744004404 
	8281.7975718882808 3823.9667230781738 14489.28591548993427 
	8281.797571893584973 3774.68888065891133 14474.08555635247649 
	8281.797571894296198 3748.625975520130396 14463.71537747271032 
	8281.797571894301655 3742.855977751132741 14461.35693728428123 
	8281.797571894490829 3735.685320179162318 14458.30787795107244 
	8281.797571894607245 3727.150445710429267 14454.48876338515402 
	8281.79757189490374 3710.226489569231489 14446.53271783310993 
	8281.797571897055604 3685.409780847167895 14433.41667178792886 
	8281.797571898763636 3653.720237566431024 14413.50475169793026 
	8281.797571899724062 3628.626117325487485 14394.98445954222188 
	8281.797571900437106 3609.42331656271017 14379.07414529069501 
	8281.797571900802723 3595.477360546616637 14366.61134998379384 
	8281.797571901206538 3582.007290133100923 14353.63570724610327 
	8281.797571901701303 3564.706322985181032 14335.67562976835507 
	8281.797571902219715 3544.362921565130819 14312.03547671688466 
	8281.797571903143762 3514.72925883472135 14271.88554885421399 
	8281.797571904015058 3493.892523739858461 14235.79735818907284 
	8281.797571904262441 3479.842343365733541 14205.66504456702933 
	8281.797571904276992 3473.194682524711425 14190.42864015608393 
	8281.797571904409779 3462.563892612494328 14163.34222762143145 
	8281.797571904571669 3450.299968148055996 14123.58356920377082 
	8281.797571904708093 3440.406872569120878 14074.64487747775092 
	8281.797571904868164 3435.435504657718411 14024.96428147814004 
	8281.797571904726283 3435.435756442362162 13975.03576429521672 
	8281.797571904655342 3441.234644832127287 13917.07494631737245 
	8281.797571903773132 3451.897827968381989 13870.35382742543879 
	8281.797571903645803 3463.590878837781929 13834.8218527302397 
	8281.797571903533026 3472.265732985984869 13811.44171085236485 
	8281.797571903131029 3484.737649861825957 13782.85546991370029 
	8281.797571902603522 3502.226017159357525 13749.76676908215268 
	8281.797571901930496 3528.774097523492856 13707.51309364914232 
	8281.797571899487593 3562.5506613009793 13665.15892446102407 
	8281.79757189785596 3604.250817636201191 13624.48707348872449 
	8281.797571896719091 3643.286535764573728 13593.35743327171622 
	8281.797571895222063 3692.217607837683317 13561.75290265674084 
	8281.797571892233464 3741.026102755317879 13538.24840378971385 
	8281.797571890196195 3788.128001269346896 13521.768565807286 
	8281.797571888682796 3821.266001079054604 13512.88868816206923 
	8281.797571887695085 3851.845865644645528 13506.80624650874961 
	8281.797571886496371 3879.631266396323554 13502.88343840565722 
	8281.797571885581419 3907.592960610235423 13500.52504399854115 
	8281.797571883118508 3944.992854759295369 13499.47531264199279 
	8281.797571877877999 3991.742727713101431 13502.10030521466433 
	8281.797571873194101 4040.982074431556612 13510.46678409436208 
	8281.797571866625731 4083.157911373355546 13521.76820682918878 
	8281.797571862500263 4118.4838314906101 13534.12900569681369 
	8281.79757185813105 4152.787099775208844 13549.09553002793655 
	8281.79757185159724 4185.876119429046412 13566.58345649572766 
	8281.797571843519108 4217.565594449458331 13586.49543192110286 
	8281.797571835426425 4252.69757919330732 13612.42356232854945 
	8281.797571816352502 4289.938915641445419 13645.70403224658003 
	8281.797571796805641 4327.379647994853258 13687.60043015295196 
	8281.797571774779499 4359.894220807361307 13733.42526400569113 
	8281.797571749715644 4387.073445470119623 13782.60251988849268 
	8281.797571725890521 4408.575886051133239 13834.51361607017316 
	8281.797571696248269 4421.538029460335565 13879.50716936773824 
	8281.79757168676224 4428.836911467761638 13916.20296350730132 
	8281.797571678145687 4432.75968937378093 13943.98837186673518 
	8281.797571668666933 4434.725070955904812 13967.28977670157292 
	8281.797571665621945 4435.413374125562768 13983.63936143805404 
	8281.797571664710631 4435.585477900038313 13991.81898292468941 
	8281.797571664481438 4435.628505300815959 13995.9093970007907 
	8281.797571664415955 4435.639262295393564 13997.95467955186723 
	8281.797571664401403 4435.64195154538811 13998.97733025677735 
	8281.797571664395946 4435.642719901435157 13999.56170343879421 
	8281.797571664395946 4435.642847964719294 13999.85389025526456 
	8281.797571664397765 4435.642847964752946 13999.99998366249929 
	0 
	
	0 
	0 
	86 0 0.001116071428571428509 0.002232142857142857019 0.004464285714285714038 0.006696428571428571057 0.008928571428571428076 0.01785714285714285615 0.0357142857142857123 0.05357142857142856845 0.07142857142857142461 0.08928571428571427382 0.1071428571428571369 0.1160714285714285754 0.125 0.1428571428571428492 0.1587301587301587213 0.1746031746031745935 0.1904761904761904656 0.2023809523809523836 0.2142857142857142738 0.238095238095238082 0.2619047619047618625 0.2857142857142856984 0.3095238095238095344 0.3110119047619047672 0.3125 0.3154761904761904656 0.3184523809523809312 0.3214285714285713969 0.3333333333333333148 0.3452380952380952328 0.3571428571428570953 0.3630952380952380265 0.3690476190476190133 0.375 0.3809523809523809312 0.3928571428571428492 0.4047619047619047672 0.4285714285714285476 0.4325396825396825573 0.4365079365079365115 0.4444444444444444198 0.4603174603174602919 0.476190476190476164 0.4920634920634920362 0.5079365079365079083 0.5238095238095237249 0.5476190476190475609 0.5535714285714286031 0.5595238095238095344 0.5714285714285713969 0.5833333333333332593 0.5952380952380951218 0.6190476190476189577 0.6349206349206348854 0.650793650793650702 0.6666666666666666297 0.6904761904761904656 0.7023809523809523281 0.7142857142857141906 0.7232142857142855874 0.7321428571428569843 0.7410714285714283811 0.749999999999999889 0.7678571428571427937 0.7857142857142855874 0.7976190476190474499 0.8095238095238094234 0.8214285714285713969 0.8333333333333332593 0.8452380952380951218 0.8571428571428570953 0.875 0.8928571428571427937 0.9107142857142856984 0.9285714285714286031 0.9464285714285713969 0.9642857142857143016 0.9732142857142858094 0.9821428571428572063 0.9910714285714286031 0.9955357142857143016 0.9977678571428572063 0.9994419642857143016 0.9997209821428572063 0.9998604910714286031 
	0 
	0 
	0 
	F 1 F 0 F 1 F 0 } I I I I #
tcoedge-coedge $-1 -1 $-1 $14 $14 $18 $19 reversed $9 $20 -6.283185307179586232 -0 #
tcoedge-coedge $-1 -1 $-1 $21 $22 $11 $16 reversed $12 $23 -6.283185307179586232 -0 #
tedge-edge $-1 -1 $-1 $24 0 $24 6.283185307179586232 $15 $25 forward @7 unknown 0.0007201612368694160953 #
pcurve $-1 -1 $-1 0 forward { exppc nurbs 2 periodic 5 
	0 2 1.570796326794896558 2 3.141592653589793116 2 4.712388980384689674 2 6.283185307179586232 2 
	0 500 1 
	-500 500 0.707106781186543798 
	-500 0 1 
	-500 -500 0.7071067811865463515 
	0 -500 1 
	500 -500 0.7071067811865463515 
	500 0 1 
	500 500 0.707106781186543798 
	0 500 1 
	0 
	plane 8281.79757191538738 3935.64279798978805 14000.00000000000182 1 -3.637978807091713027e-15 0 0 0 -1 forward_v I I I I 
	} 0 0 #
tcoedge-coedge $-1 -1 $-1 $22 $21 $14 $19 forward $12 $26 0 6.283185307179586232 #
tedge-edge $-1 -1 $-1 $27 0 $27 6.283185307179586232 $18 $28 forward @7 unknown 0.0007201612364807803571 #
pcurve $-1 -1 $-1 0 forward { exppc nurbs 2 periodic 5 
	-6.283185307179586232 2 -4.712388980384689674 2 -3.141592653589793116 2 -1.570796326794896558 2 0 2 
	0 500 1 
	500 500 0.707106781186543798 
	500 0 1 
	500 -500 0.7071067811865463515 
	0 -500 1 
	-500 -500 0.7071067811865463515 
	-500 0 1 
	-500 500 0.707106781186543798 
	0 500 1 
	0 
	plane 8031.79757191538738 3935.64279798978896 14000.00000000000182 -1 3.637978807091713027e-15 -0 0 0 -1 reverse_v I I I I 
	} 0 0 #
coedge $-1 -1 $-1 $18 $15 $22 $29 reversed $12 $30 #
coedge $-1 -1 $-1 $15 $18 $21 $29 forward $12 $31 #
pcurve $-1 -1 $-1 0 forward { exppc nubs 1 periodic 2 
	-6.283185307179586232 1 -0 1 
	1 1 
	0 1 
	2.726396620975368931e-13 
	spline forward { ref 0 } I I I I 
	} 0 0 #
tvertex-vertex $-1 -1 $-1 $16 $32 5.257827644042532351e-05 #
ellipse-curve $-1 -1 $-1 8281.79757191538738 3935.64279798978805 14000.00000000000182 1 -3.637978807091713027e-15 0 1.818989403545856476e-12 500 0 1 I I #
pcurve $-1 -1 $-1 0 forward { exppc nubs 1 periodic 2 
	0 1 6.283185307179586232 1 
	0 0 
	1 0 
	2.726396620975368931e-13 
	spline forward { ref 0 } I I I I 
	} 0 0 #
tvertex-vertex $-1 -1 $-1 $19 $33 5.25782416807141483e-05 #
ellipse-curve $-1 -1 $-1 8031.79757191538738 3935.64279798978896 14000.00000000000182 1 -3.637978807091713027e-15 0 1.818989403545856476e-12 500 0 1 I I #
edge $-1 -1 $-1 $27 0 $24 1 $22 $34 forward @7 tangent #
pcurve $-1 -1 $-1 -1 $34 0 0 #
pcurve $-1 -1 $-1 1 $34 1 0 #
point $-1 -1 $-1 8281.797571915389199 4435.64279798978805 14000.00000000000182 #
point $-1 -1 $-1 8031.797571915389199 4435.64279798978896 14000.00000000000182 #
intcurve-curve $-1 -1 $-1 forward { parcur full nubs 3 open 2 
	0 3 1 3 
	8031.797571671974765 4435.642847964754765 13999.99998366249929 
	8115.130905005307795 4435.642847964753855 13999.99998366249929 
	8198.464238331063825 4435.642847964752946 13999.99998366249929 
	8281.797571664397765 4435.642847964752946 13999.99998366249929 
	0 
	
	spline forward { ref 0 } I I I I 
	null_surface 
	nubs 1 open 2 
	0 1 1 1 
	0 0 
	0 1 
	
	nullbs 
	I I 
	0 
	0 
	0 
	surf1 } I I #
End-of-ACIS-data 