700 0 1 0           
4 LibG 20 ASM 224.0.1.65535 NT 24 Wed Jul 17 12:52:12 2019 
1000 9.999999999999999547e-07 1.000000000000000036e-10 
body $-1 -1 $-1 $1 $-1 $2 #
lump $-1 -1 $-1 $-1 $3 $0 #
transform $-1 -1 1 0 0 0 1 0 0 0 1 0 0 0 1 no_rotate no_reflect no_shear #
shell $-1 -1 $-1 $-1 $-1 $4 $-1 $1 #
face $-1 -1 $-1 $5 $6 $3 $-1 $7 forward single #
face $-1 -1 $-1 $8 $9 $3 $-1 $10 reversed single #
loop $-1 -1 $-1 $-1 $11 $4 #
plane-surface $-1 -1 $-1 1781.797571915386925 3935.642797989811697 14000.00000000000182 1 -3.637978807091713027e-15 0 0 0 -1 forward_v I I I I #
face $-1 -1 $-1 $-1 $12 $3 $-1 $13 forward single #
loop $-1 -1 $-1 $-1 $14 $5 #
plane-surface $-1 -1 $-1 1531.797571915386925 3935.642797989812607 14000.00000000000182 1 -3.637978807091713027e-15 0 0 0 -1 forward_v I I I I #
tcoedge-coedge $-1 -1 $-1 $11 $11 $15 $16 forward $6 $17 0 6.283185307179586232 #
loop $-1 -1 $-1 $-1 $18 $8 #
spline-surface $-1 -1 $-1 forward { exactsur full nubs 3 3 periodic open none none 84 2 
	0 3 0.002232142857142857019 1 0.004464285714285714038 1 0.008928571428571428076 1 0.01785714285714285615 1 
	0.0357142857142857123 1 0.05357142857142856845 1 0.0625 1 0.0669642857142857123 1 0.07142857142857142461 1 
	0.08928571428571427382 1 0.1071428571428571369 1 0.125 1 0.1428571428571428492 1 0.1587301587301587213 1 
	0.1746031746031745935 1 0.1825396825396825295 1 0.1904761904761904656 1 0.2023809523809523836 1 0.2142857142857142738 1 
	0.238095238095238082 1 0.2619047619047618625 1 0.2857142857142856984 1 0.3095238095238095344 1 0.3333333333333333148 1 
	0.3340773809523809312 1 0.3348214285714286031 1 0.336309523809523836 1 0.3377976190476190688 1 0.3392857142857143016 1 
	0.3452380952380952328 1 0.3571428571428570953 1 0.3690476190476190133 1 0.3720238095238095344 1 0.375 1 
	0.3779761904761904656 1 0.3809523809523809312 1 0.4047619047619047672 1 0.4166666666666666297 1 0.4285714285714285476 1 
	0.4444444444444444198 1 0.4603174603174602919 1 0.4682539682539682557 1 0.476190476190476164 1 0.4920634920634920362 1 
	0.5079365079365079083 1 0.5238095238095237249 1 0.5357142857142855874 1 0.5476190476190475609 1 0.5595238095238095344 1 
	0.5714285714285713969 1 0.5952380952380951218 1 0.6071428571428569843 1 0.6190476190476189577 1 0.6349206349206348854 1 
	0.650793650793650702 1 0.6666666666666666297 1 0.6785714285714286031 1 0.6904761904761904656 1 0.7023809523809523281 1 
	0.7142857142857141906 1 0.7232142857142855874 1 0.7321428571428569843 1 0.749999999999999889 1 0.7678571428571427937 1 
	0.7857142857142855874 1 0.7976190476190474499 1 0.8095238095238094234 1 0.8333333333333332593 1 0.8571428571428570953 1 
	0.875 1 0.8928571428571427937 1 0.9107142857142856984 1 0.9285714285714286031 1 0.9464285714285713969 1 
	0.9642857142857143016 1 0.9821428571428572063 1 0.9910714285714286031 1 0.9955357142857143016 1 0.9977678571428572063 1 
	0.9988839285714286031 1 0.9994419642857143016 1 0.9997209821428572063 1 1 3 
	0 3 1 3 
	1531.797571923437317 4435.642855660621535 13999.99990322589656 
	1531.797571923436863 4435.642855636298009 14002.33739775995855 
	1531.797571923411624 4435.610069259980264 14007.01238651275526 
	1531.797571923387295 4435.413387499366763 14016.36052637301509 
	1531.797571923272926 4434.725039702116192 14032.71011008131063 
	1531.79757192289776 4431.973752557084481 14065.33209965701099 
	1531.797571921803865 4424.130868075065337 14111.49410814067778 
	1531.79757192084594 4411.168098011632537 14156.48752472765227 
	1531.797571920540804 4399.492798750255133 14187.07267392879112 
	1531.79757192047191 4392.094307175963877 14204.24879859527209 
	1531.797571920366181 4380.278527193404443 14229.69169821816286 
	1531.7975719195897 4359.894194288742256 14266.57468379708553 
	1531.797571919015581 4327.379570022339067 14312.39951601297798 
	1531.7975719183205 4289.938835828874289 14354.29591874918515 
	1531.79757191778549 4249.594071280379467 14390.34980365584124 
	1531.79757191725912 4207.366020294482041 14420.70973006050554 
	1531.797571917177947 4171.333115968154743 14441.51319992019489 
	1531.797571917089954 4141.371504440983699 14455.94151293533832 
	1531.797571916996958 4114.558640933031711 14467.24451783687255 
	1531.797571916933293 4083.15777800092701 14478.23161895680096 
	1531.797571916804145 4034.956982500185404 14491.1485073119602 
	1531.797571916672268 3973.147686807563787 14500.46617388512095 
	1531.797571916420338 3898.138063433329535 14500.46539316316193 
	1531.797571916242077 3823.966534048604899 14489.28611442405781 
	1531.79757191608519 3752.289512377982192 14467.17644763712451 
	1531.797571915960361 3706.53148516048941 14445.14066602962157 
	1531.797571915943536 3683.620168018517688 14431.84101007336358 
	1531.79757191594399 3680.932042802328397 14430.263797318039 
	1531.797571915942171 3677.585777836301531 14428.26873031644936 
	1531.797571915941035 3673.592811952083593 14425.83722352401855 
	1531.797571915938079 3665.652707889528301 14420.89973906715022 
	1531.79757191590943 3648.701042323205002 14409.80095440902187 
	1531.797571915886692 3623.606900481967386 14391.28068259066822 
	1531.797571915850085 3602.330981088815861 14372.97123320231367 
	1531.797571915846447 3588.741911197912941 14360.1238176538136 
	1531.797571915844628 3582.068632060159416 14353.57422696849244 
	1531.797571915843491 3575.519070940250003 14346.90093077262827 
	1531.797571915839399 3554.106392374190364 14324.2527310108344 
	1531.797571915798699 3528.774555524874359 14292.48662143496949 
	1531.797571915790058 3502.226407858639504 14250.23308055874077 
	1531.797571915771414 3482.794666949827388 14213.46795769756682 
	1531.79757191575959 3465.016884479239707 14171.29384796906015 
	1531.797571915751178 3452.753217476013106 14131.53514093823105 
	1531.797571915750268 3445.353631927230708 14099.11412459761959 
	1531.797571915748904 3439.578735730701283 14066.36469276820208 
	1531.797571915753451 3435.435772950345836 14024.96430595809397 
	1531.797571915756407 3435.436023057690363 13975.03571672164253 
	1531.797571915765957 3439.992836009443181 13929.49526022564896 
	1531.797571915780281 3447.724265817766536 13888.63578511303604 
	1531.797571915793924 3457.410493739115282 13852.48482777215577 
	1531.797571915810749 3469.772111474897883 13817.15928664018429 
	1531.79757191583758 3489.725724987585636 13771.42062831422299 
	1531.797571915867366 3514.728706851134575 13728.11416934352019 
	1531.797571915909884 3544.362739527589383 13687.96450907372855 
	1531.797571915937397 3571.487163461733417 13656.44420298629302 
	1531.797571916018114 3604.250952580016019 13624.48738510783551 
	1531.797571916051993 3643.286758937121704 13593.35754744775477 
	1531.797571916104971 3681.732904887133373 13568.52628208668102 
	1531.797571916175002 3718.498568105689174 13549.09539037715695 
	1531.797571916203196 3752.801815657462612 13534.12884936406226 
	1531.797571916285506 3788.127696794833355 13521.76788235757522 
	1531.797571916351217 3821.265928538625303 13512.8884829487306 
	1531.79757191640374 3851.845719930314317 13506.80597858352667 
	1531.797571916459674 3888.892933482109584 13501.57540495576177 
	1531.79757191667818 3935.642742091966284 13498.94976574969223 
	1531.797571916888501 3991.742572877479688 13502.10040139666307 
	1531.797571917136793 4040.981987322704754 13510.46651633529655 
	1531.797571917302776 4083.15769104177707 13521.76832895701045 
	1531.797571917390087 4130.259337607511043 13538.24838466448819 
	1531.797571917593132 4186.577604792711099 13565.36800356030653 
	1531.797571918016502 4243.38781447738711 13604.10244976377908 
	1531.797571918360518 4289.938790367536967 13645.70390773777763 
	1531.797571919064012 4327.379806017594092 13687.60002777210138 
	1531.797571919673828 4359.894208505686947 13733.42506114187745 
	1531.797571920395967 4387.073561994067859 13782.60228654796265 
	1531.797571921214285 4408.575785312858898 13834.51347473617352 
	1531.797571922017141 4424.13078720795238 13888.50571536600364 
	1531.797571922996212 4431.973788028426497 13934.66769015271711 
	1531.797571923305895 4434.725036582381108 13967.28969712199068 
	1531.797571923403439 4435.413389926437048 13983.63927936150321 
	1531.797571923427768 4435.585484160897977 13991.81890243192902 
	1531.797571923435271 4435.62851324418989 13995.90931648464539 
	1531.797571923436635 4435.639269939188125 13997.95459910595673 
	1531.79757192343709 4435.642343383372463 13999.12334277069749 
	1531.797571923437317 4435.642855663661976 13999.70771640913881 
	1531.797571923437317 4435.642855660621535 13999.99990322589656 
	1615.130905256770575 4435.642855660620626 13999.99990322589656 
	1615.13090525677012 4435.642855636297099 14002.33739775995855 
	1615.130905256744882 4435.610069259979355 14007.01238651275526 
	1615.130905256720553 4435.413387499365854 14016.36052637301509 
	1615.130905256606184 4434.725039702115282 14032.71011008131063 
	1615.130905256231017 4431.973752557083571 14065.33209965701099 
	1615.130905255137122 4424.130868075064427 14111.49410814067778 
	1615.130905254179197 4411.168098011631628 14156.48752472765227 
	1615.130905253874062 4399.492798750254224 14187.07267392879112 
	1615.130905253805167 4392.094307175962967 14204.24879859527209 
	1615.130905253699439 4380.278527193403534 14229.69169821816286 
	1615.130905252922958 4359.894194288741346 14266.57468379708553 
	1615.130905252348839 4327.379570022338157 14312.39951601297798 
	1615.130905251653758 4289.93883582887338 14354.29591874918515 
	1615.130905251118747 4249.594071280378557 14390.34980365584124 
	1615.130905250592377 4207.366020294481132 14420.70973006050554 
	1615.130905250511205 4171.333115968153834 14441.51319992019489 
	1615.130905250423211 4141.37150444098279 14455.94151293533832 
	1615.130905250330215 4114.558640933030802 14467.24451783687255 
	1615.130905250266323 4083.157778000926555 14478.23161895680096 
	1615.13090525013763 4034.956982500184949 14491.1485073119602 
	1615.130905250005299 3973.147686807563332 14500.46617388512095 
	1615.130905249753596 3898.13806343332908 14500.46539316316193 
	1615.130905249575335 3823.966534048604444 14489.28611442405781 
	1615.130905249418447 3752.289512377981737 14467.17644763712451 
	1615.130905249293619 3706.531485160488955 14445.14066602962157 
	1615.130905249276793 3683.620168018517234 14431.84101007336358 
	1615.130905249277248 3680.932042802327942 14430.263797318039 
	1615.130905249275429 3677.585777836301077 14428.26873031644936 
	1615.130905249274292 3673.592811952083139 14425.83722352401855 
	1615.130905249271336 3665.652707889527846 14420.89973906715022 
	1615.130905249242915 3648.701042323204547 14409.80095440902187 
	1615.130905249219722 3623.606900481966932 14391.28068259066822 
	1615.13090524918357 3602.330981088815406 14372.97123320231367 
	1615.130905249179705 3588.741911197912486 14360.1238176538136 
	1615.130905249177886 3582.068632060158961 14353.57422696849244 
	1615.130905249176749 3575.519070940249549 14346.90093077262827 
	1615.130905249172656 3554.106392374189909 14324.2527310108344 
	1615.130905249131956 3528.774555524873904 14292.48662143496949 
	1615.130905249123316 3502.22640785863905 14250.23308055874077 
	1615.130905249104671 3482.794666949826933 14213.46795769756682 
	1615.130905249092848 3465.016884479239252 14171.29384796906015 
	1615.130905249084435 3452.753217476012651 14131.53514093823105 
	1615.130905249083526 3445.353631927230253 14099.11412459761959 
	1615.130905249082161 3439.578735730700828 14066.36469276820208 
	1615.130905249086709 3435.435772950345381 14024.96430595809397 
	1615.130905249089665 3435.436023057689908 13975.03571672164253 
	1615.130905249099214 3439.992836009442726 13929.49526022564896 
	1615.130905249113539 3447.724265817766081 13888.63578511303604 
	1615.130905249127181 3457.410493739114827 13852.48482777215577 
	1615.130905249144007 3469.772111474897429 13817.15928664018429 
	1615.130905249170837 3489.725724987585181 13771.42062831422299 
	1615.130905249200623 3514.72870685113412 13728.11416934352019 
	1615.130905249243142 3544.362739527588928 13687.96450907372855 
	1615.130905249270654 3571.487163461732962 13656.44420298629302 
	1615.130905249351372 3604.250952580015564 13624.48738510783551 
	1615.13090524938525 3643.286758937121249 13593.35754744775477 
	1615.130905249438229 3681.732904887132918 13568.52628208668102 
	1615.13090524950826 3718.498568105688719 13549.09539037715695 
	1615.130905249536454 3752.801815657462157 13534.12884936406226 
	1615.130905249618763 3788.1276967948329 13521.76788235757522 
	1615.130905249684474 3821.265928538624848 13512.8884829487306 
	1615.130905249736998 3851.845719930313862 13506.80597858352667 
	1615.130905249792931 3888.892933482109129 13501.57540495576177 
	1615.130905250011438 3935.642742091965829 13498.94976574969223 
	1615.130905250221758 3991.742572877479233 13502.10040139666307 
	1615.13090525047005 4040.981987322704299 13510.46651633529655 
	1615.130905250636033 4083.157691041776616 13521.76832895701045 
	1615.130905250723345 4130.259337607510133 13538.24838466448819 
	1615.130905250926389 4186.57760479271019 13565.36800356030653 
	1615.130905251349759 4243.3878144773862 13604.10244976377908 
	1615.130905251693775 4289.938790367536058 13645.70390773777763 
	1615.130905252397042 4327.379806017593182 13687.60002777210138 
	1615.130905253007313 4359.894208505686038 13733.42506114187745 
	1615.130905253728997 4387.073561994066949 13782.60228654796265 
	1615.13090525454777 4408.575785312857988 13834.51347473617352 
	1615.130905255350172 4424.130787207951471 13888.50571536600364 
	1615.130905256329697 4431.973788028425588 13934.66769015271711 
	1615.130905256638925 4434.725036582380199 13967.28969712199068 
	1615.130905256736696 4435.413389926436139 13983.63927936150321 
	1615.130905256761025 4435.585484160897067 13991.81890243192902 
	1615.130905256768528 4435.62851324418898 13995.90931648464539 
	1615.130905256769893 4435.639269939187216 13997.95459910595673 
	1615.130905256770347 4435.642343383371554 13999.12334277069749 
	1615.130905256770575 4435.642855663661067 13999.70771640913881 
	1615.130905256770575 4435.642855660620626 13999.99990322589656 
	1698.46423859141828 4435.642855660621535 13999.99990322589656 
	1698.46423859141737 4435.642855636298009 14002.33739775995855 
	1698.464238591388039 4435.610069259980264 14007.01238651275526 
	1698.464238591359617 4435.413387499366763 14016.36052637301509 
	1698.464238591227058 4434.725039702116192 14032.71011008131063 
	1698.464238590790046 4431.973752557084481 14065.33209965701099 
	1698.464238589517663 4424.130868075065337 14111.49410814067778 
	1698.464238588403305 4411.168098011632537 14156.48752472765227 
	1698.464238588048602 4399.492798750255133 14187.07267392879112 
	1698.464238587968339 4392.094307175963877 14204.24879859527209 
	1698.46423858784533 4380.278527193404443 14229.69169821816286 
	1698.464238586942201 4359.894194288742256 14266.57468379708553 
	1698.464238586274632 4327.379570022339067 14312.39951601297798 
	1698.464238585466092 4289.938835828874289 14354.29591874918515 
	1698.46423858484377 4249.594071280379467 14390.34980365584124 
	1698.46423858423168 4207.366020294482041 14420.70973006050554 
	1698.464238584137092 4171.333115968154743 14441.51319992019489 
	1698.464238584034774 4141.371504440983699 14455.94151293533832 
	1698.46423858392609 4114.558640933031711 14467.24451783687255 
	1698.464238583852648 4083.157778000927465 14478.23161895680096 
	1698.464238583701899 4034.956982500185859 14491.1485073119602 
	1698.464238583548877 3973.147686807563332 14500.46617388512095 
	1698.464238583255792 3898.138063433329989 14500.46539316316193 
	1698.464238583048427 3823.966534048604444 14489.28611442405781 
	1698.464238582866074 3752.289512377982192 14467.17644763712451 
	1698.464238582721009 3706.531485160488955 14445.14066602962157 
	1698.464238582701228 3683.620168018516779 14431.84101007336358 
	1698.464238582701682 3680.932042802327487 14430.263797318039 
	1698.464238582699409 3677.585777836300622 14428.26873031644936 
	1698.464238582698044 3673.592811952082684 14425.83722352401855 
	1698.464238582694861 3665.652707889527392 14420.89973906715022 
	1698.464238582661437 3648.701042323203637 14409.80095440902187 
	1698.464238582634835 3623.606900481966477 14391.28068259066822 
	1698.464238582591861 3602.330981088814042 14372.97123320231367 
	1698.464238582587996 3588.741911197911577 14360.1238176538136 
	1698.464238582585949 3582.068632060158507 14353.57422696849244 
	1698.464238582584812 3575.519070940249094 14346.90093077262827 
	1698.46423858257981 3554.106392374189909 14324.2527310108344 
	1698.464238582532744 3528.774555524873449 14292.48662143496949 
	1698.464238582522512 3502.226407858638595 14250.23308055874077 
	1698.464238582500911 3482.794666949826478 14213.46795769756682 
	1698.464238582487496 3465.016884479239252 14171.29384796906015 
	1698.464238582477947 3452.753217476012651 14131.53514093823105 
	1698.464238582476582 3445.353631927230708 14099.11412459761959 
	1698.464238582474991 3439.578735730701283 14066.36469276820208 
	1698.46423858248022 3435.435772950346291 14024.96430595809397 
	1698.464238582483176 3435.436023057690363 13975.03571672164253 
	1698.464238582494545 3439.992836009442726 13929.49526022564896 
	1698.464238582511371 3447.724265817766536 13888.63578511303604 
	1698.464238582527059 3457.410493739114827 13852.48482777215577 
	1698.464238582546841 3469.772111474897429 13817.15928664018429 
	1698.464238582577991 3489.725724987585636 13771.42062831422299 
	1698.464238582612779 3514.728706851133666 13728.11416934352019 
	1698.464238582662119 3544.362739527588474 13687.96450907372855 
	1698.464238582693724 3571.487163461733871 13656.44420298629302 
	1698.46423858278763 3604.250952580015564 13624.48738510783551 
	1698.464238582827193 3643.286758937121249 13593.35754744775477 
	1698.464238582888811 3681.732904887132918 13568.52628208668102 
	1698.464238582969756 3718.498568105689174 13549.09539037715695 
	1698.464238583002725 3752.801815657462612 13534.12884936406226 
	1698.464238583098449 3788.127696794833355 13521.76788235757522 
	1698.464238583175302 3821.265928538625303 13512.8884829487306 
	1698.464238583236238 3851.845719930314317 13506.80597858352667 
	1698.464238583301267 3888.892933482109129 13501.57540495576177 
	1698.464238583555925 3935.642742091966738 13498.94976574969223 
	1698.464238583800352 3991.742572877480143 13502.10040139666307 
	1698.464238584089117 4040.981987322705208 13510.46651633529655 
	1698.464238584282384 4083.157691041777525 13521.76832895701045 
	1698.46423858438402 4130.259337607511043 13538.24838466448819 
	1698.464238584620261 4186.577604792711099 13565.36800356030653 
	1698.46423858511298 4243.3878144773862 13604.10244976377908 
	1698.464238585512703 4289.938790367536967 13645.70390773777763 
	1698.464238586331248 4327.379806017594092 13687.60002777210138 
	1698.464238587040199 4359.894208505686947 13733.42506114187745 
	1698.464238587880573 4387.073561994067859 13782.60228654796265 
	1698.464238588832359 4408.575785312858898 13834.51347473617352 
	1698.464238589766637 4424.13078720795238 13888.50571536600364 
	1698.464238590905097 4431.973788028426497 13934.66769015271711 
	1698.464238591265939 4434.725036582381108 13967.28969712199068 
	1698.464238591379171 4435.413389926437048 13983.63927936150321 
	1698.464238591407593 4435.585484160897977 13991.81890243192902 
	1698.464238591416006 4435.62851324418989 13995.90931648464539 
	1698.464238591417825 4435.639269939188125 13997.95459910595673 
	1698.464238591418507 4435.642343383372463 13999.12334277069749 
	1698.46423859141828 4435.642855663661976 13999.70771640913881 
	1698.46423859141828 4435.642855660621535 13999.99990322589656 
	1781.797571924751537 4435.642855660621535 13999.99990322589656 
	1781.797571924750628 4435.642855636298009 14002.33739775995855 
	1781.797571924721296 4435.610069259980264 14007.01238651275526 
	1781.797571924692875 4435.413387499366763 14016.36052637301509 
	1781.797571924560316 4434.725039702116192 14032.71011008131063 
	1781.797571924123304 4431.973752557084481 14065.33209965701099 
	1781.797571922850921 4424.130868075065337 14111.49410814067778 
	1781.797571921736562 4411.168098011632537 14156.48752472765227 
	1781.797571921381859 4399.492798750255133 14187.07267392879112 
	1781.797571921301596 4392.094307175963877 14204.24879859527209 
	1781.797571921178587 4380.278527193404443 14229.69169821816286 
	1781.797571920275459 4359.894194288742256 14266.57468379708553 
	1781.79757191960789 4327.379570022339067 14312.39951601297798 
	1781.797571918799349 4289.938835828874289 14354.29591874918515 
	1781.797571918177027 4249.594071280379467 14390.34980365584124 
	1781.797571917564937 4207.366020294482041 14420.70973006050554 
	1781.79757191747035 4171.333115968154743 14441.51319992019489 
	1781.797571917368032 4141.371504440983699 14455.94151293533832 
	1781.797571917259575 4114.558640933031711 14467.24451783687255 
	1781.797571917185678 4083.15777800092701 14478.23161895680096 
	1781.797571917035384 4034.956982500185404 14491.1485073119602 
	1781.797571916881907 3973.147686807562877 14500.46617388512095 
	1781.79757191658905 3898.138063433329535 14500.46539316316193 
	1781.797571916381685 3823.96653404860399 14489.28611442405781 
	1781.797571916199331 3752.289512377981737 14467.17644763712451 
	1781.797571916054267 3706.531485160488501 14445.14066602962157 
	1781.797571916034485 3683.620168018516324 14431.84101007336358 
	1781.79757191603494 3680.932042802327032 14430.263797318039 
	1781.797571916032666 3677.585777836300167 14428.26873031644936 
	1781.797571916031302 3673.592811952082229 14425.83722352401855 
	1781.797571916028119 3665.652707889526937 14420.89973906715022 
	1781.797571915994695 3648.701042323203183 14409.80095440902187 
	1781.797571915967865 3623.606900481966022 14391.28068259066822 
	1781.797571915925346 3602.330981088813587 14372.97123320231367 
	1781.797571915921253 3588.741911197911122 14360.1238176538136 
	1781.797571915919207 3582.068632060158052 14353.57422696849244 
	1781.79757191591807 3575.519070940248639 14346.90093077262827 
	1781.797571915913068 3554.106392374189454 14324.2527310108344 
	1781.797571915866001 3528.774555524872994 14292.48662143496949 
	1781.797571915855769 3502.22640785863814 14250.23308055874077 
	1781.797571915834169 3482.794666949826023 14213.46795769756682 
	1781.797571915820754 3465.016884479238797 14171.29384796906015 
	1781.797571915811204 3452.753217476012196 14131.53514093823105 
	1781.79757191580984 3445.353631927230253 14099.11412459761959 
	1781.797571915808248 3439.578735730700828 14066.36469276820208 
	1781.797571915813478 3435.435772950345836 14024.96430595809397 
	1781.797571915816434 3435.436023057689908 13975.03571672164253 
	1781.797571915827803 3439.992836009442271 13929.49526022564896 
	1781.797571915844628 3447.724265817766081 13888.63578511303604 
	1781.797571915860317 3457.410493739114372 13852.48482777215577 
	1781.797571915880098 3469.772111474896974 13817.15928664018429 
	1781.797571915911249 3489.725724987585181 13771.42062831422299 
	1781.797571915946037 3514.728706851133211 13728.11416934352019 
	1781.797571915995377 3544.362739527588019 13687.96450907372855 
	1781.797571916026982 3571.487163461733417 13656.44420298629302 
	1781.797571916120887 3604.25095258001511 13624.48738510783551 
	1781.79757191616045 3643.286758937120794 13593.35754744775477 
	1781.797571916222068 3681.732904887132463 13568.52628208668102 
	1781.797571916303013 3718.498568105688719 13549.09539037715695 
	1781.797571916335983 3752.801815657462157 13534.12884936406226 
	1781.797571916431707 3788.1276967948329 13521.76788235757522 
	1781.797571916508559 3821.265928538624848 13512.8884829487306 
	1781.797571916569495 3851.845719930313862 13506.80597858352667 
	1781.797571916634524 3888.892933482108674 13501.57540495576177 
	1781.797571916889183 3935.642742091966284 13498.94976574969223 
	1781.79757191713361 3991.742572877479688 13502.10040139666307 
	1781.797571917422374 4040.981987322704754 13510.46651633529655 
	1781.797571917615642 4083.15769104177707 13521.76832895701045 
	1781.797571917717278 4130.259337607511043 13538.24838466448819 
	1781.797571917953519 4186.577604792711099 13565.36800356030653 
	1781.797571918446238 4243.3878144773862 13604.10244976377908 
	1781.797571918845961 4289.938790367536967 13645.70390773777763 
	1781.797571919664279 4327.379806017594092 13687.60002777210138 
	1781.797571920373684 4359.894208505686947 13733.42506114187745 
	1781.79757192121383 4387.073561994067859 13782.60228654796265 
	1781.797571922165844 4408.575785312858898 13834.51347473617352 
	1781.797571923099667 4424.13078720795238 13888.50571536600364 
	1781.797571924238582 4431.973788028426497 13934.66769015271711 
	1781.797571924598969 4434.725036582381108 13967.28969712199068 
	1781.797571924712429 4435.413389926437048 13983.63927936150321 
	1781.797571924740851 4435.585484160897977 13991.81890243192902 
	1781.797571924749263 4435.62851324418989 13995.90931648464539 
	1781.797571924751082 4435.639269939188125 13997.95459910595673 
	1781.797571924751765 4435.642343383372463 13999.12334277069749 
	1781.797571924751537 4435.642855663661976 13999.70771640913881 
	1781.797571924751537 4435.642855660621535 13999.99990322589656 
	0 
	
	0 
	0 
	83 0 0.002232142857142857019 0.004464285714285714038 0.008928571428571428076 0.01785714285714285615 0.0357142857142857123 0.05357142857142856845 0.0625 0.0669642857142857123 0.07142857142857142461 0.08928571428571427382 0.1071428571428571369 0.125 0.1428571428571428492 0.1587301587301587213 0.1746031746031745935 0.1825396825396825295 0.1904761904761904656 0.2023809523809523836 0.2142857142857142738 0.238095238095238082 0.2619047619047618625 0.2857142857142856984 0.3095238095238095344 0.3333333333333333148 0.3340773809523809312 0.3348214285714286031 0.336309523809523836 0.3377976190476190688 0.3392857142857143016 0.3452380952380952328 0.3571428571428570953 0.3690476190476190133 0.3720238095238095344 0.375 0.3779761904761904656 0.3809523809523809312 0.4047619047619047672 0.4166666666666666297 0.4285714285714285476 0.4444444444444444198 0.4603174603174602919 0.4682539682539682557 0.476190476190476164 0.4920634920634920362 0.5079365079365079083 0.5238095238095237249 0.5357142857142855874 0.5476190476190475609 0.5595238095238095344 0.5714285714285713969 0.5952380952380951218 0.6071428571428569843 0.6190476190476189577 0.6349206349206348854 0.650793650793650702 0.6666666666666666297 0.6785714285714286031 0.6904761904761904656 0.7023809523809523281 0.7142857142857141906 0.7232142857142855874 0.7321428571428569843 0.749999999999999889 0.7678571428571427937 0.7857142857142855874 0.7976190476190474499 0.8095238095238094234 0.8333333333333332593 0.8571428571428570953 0.875 0.8928571428571427937 0.9107142857142856984 0.9285714285714286031 0.9464285714285713969 0.9642857142857143016 0.9821428571428572063 0.9910714285714286031 0.9955357142857143016 0.9977678571428572063 0.9988839285714286031 0.9994419642857143016 0.9997209821428572063 
	0 
	0 
	0 
	F 1 F 0 F 1 F 0 } I I I I #
tcoedge-coedge $-1 -1 $-1 $14 $14 $18 $19 reversed $9 $20 -6.283185307179586232 -0 #
tcoedge-coedge $-1 -1 $-1 $21 $22 $11 $16 reversed $12 $23 -6.283185307179586232 -0 #
tedge-edge $-1 -1 $-1 $24 0 $24 6.283185307179586232 $15 $25 forward @7 unknown 0.0006539502948539601887 #
pcurve $-1 -1 $-1 0 forward { exppc nurbs 2 periodic 5 
	0 2 1.570796326794896558 2 3.141592653589793116 2 4.712388980384689674 2 6.283185307179586232 2 
	0 500 1 
	-500 500 0.707106781186543798 
	-500 0 1 
	-500 -500 0.7071067811865463515 
	0 -500 1 
	500 -500 0.7071067811865463515 
	500 0 1 
	500 500 0.707106781186543798 
	0 500 1 
	0 
	plane 1781.797571915386925 3935.642797989811697 14000.00000000000182 1 -3.637978807091713027e-15 0 0 0 -1 forward_v I I I I 
	} 0 0 #
tcoedge-coedge $-1 -1 $-1 $22 $21 $14 $19 forward $12 $26 0 6.283185307179586232 #
tedge-edge $-1 -1 $-1 $27 0 $27 6.283185307179586232 $18 $28 forward @7 unknown 0.0006539502953079183488 #
pcurve $-1 -1 $-1 0 forward { exppc nurbs 2 periodic 5 
	-6.283185307179586232 2 -4.712388980384689674 2 -3.141592653589793116 2 -1.570796326794896558 2 0 2 
	0 500 1 
	500 500 0.707106781186543798 
	500 0 1 
	500 -500 0.7071067811865463515 
	0 -500 1 
	-500 -500 0.7071067811865463515 
	-500 0 1 
	-500 500 0.707106781186543798 
	0 500 1 
	0 
	plane 1531.797571915386925 3935.642797989812607 14000.00000000000182 -1 3.637978807091713027e-15 -0 0 0 -1 reverse_v I I I I 
	} 0 0 #
coedge $-1 -1 $-1 $18 $15 $22 $29 reversed $12 $30 #
coedge $-1 -1 $-1 $15 $18 $21 $29 forward $12 $31 #
pcurve $-1 -1 $-1 0 forward { exppc nubs 1 periodic 2 
	-6.283185307179586232 1 -0 1 
	1 1 
	0 1 
	0 
	spline forward { ref 0 } I I I I 
	} 0 0 #
tvertex-vertex $-1 -1 $-1 $16 $32 0.0001126550136337381658 #
ellipse-curve $-1 -1 $-1 1781.797571915386925 3935.642797989811697 14000.00000000000182 1 -3.637978807091713027e-15 0 1.818989403545856476e-12 500 0 1 I I #
pcurve $-1 -1 $-1 0 forward { exppc nubs 1 periodic 2 
	0 1 6.283185307179586232 1 
	0 0 
	1 0 
	4.411402399551012014e-13 
	spline forward { ref 0 } I I I I 
	} 0 0 #
tvertex-vertex $-1 -1 $-1 $19 $33 0.0001126550130665864528 #
ellipse-curve $-1 -1 $-1 1531.797571915386925 3935.642797989812607 14000.00000000000182 1 -3.637978807091713027e-15 0 1.818989403545856476e-12 500 0 1 I I #
edge $-1 -1 $-1 $27 0 $24 0.9999999999625488467 $22 $34 forward @7 tangent #
pcurve $-1 -1 $-1 -1 $34 0 0 #
pcurve $-1 -1 $-1 1 $34 1 0 #
point $-1 -1 $-1 1781.797571915388744 4435.642797989811697 14000.00000000000182 #
point $-1 -1 $-1 1531.797571915388744 4435.642797989812607 14000.00000000000182 #
intcurve-curve $-1 -1 $-1 forward { parcur full nubs 3 open 2 
	0 3 1 3 
	1531.797571923437317 4435.642855660621535 13999.99990322589656 
	1615.130905256770575 4435.642855660620626 13999.99990322589656 
	1698.46423859141828 4435.642855660621535 13999.99990322589656 
	1781.797571924751537 4435.642855660621535 13999.99990322589656 
	0 
	
	spline forward { ref 0 } I I I I 
	null_surface 
	nubs 1 open 2 
	0 1 1 1 
	0 0 
	0 1 
	
	nullbs 
	I I 
	0 
	0 
	0 
	surf1 } F 0 F 0.9999999999625488467 #
End-of-ACIS-data 