700 0 1 0           
4 LibG 20 ASM 224.0.1.65535 NT 24 Wed Jul 17 12:52:12 2019 
1000 9.999999999999999547e-07 1.000000000000000036e-10 
body $-1 -1 $-1 $1 $-1 $2 #
lump $-1 -1 $-1 $-1 $3 $0 #
transform $-1 -1 1 0 0 0 1 0 0 0 1 0 0 0 1 no_rotate no_reflect no_shear #
shell $-1 -1 $-1 $-1 $-1 $4 $-1 $1 #
face $-1 -1 $-1 $5 $6 $3 $-1 $7 forward single #
face $-1 -1 $-1 $8 $9 $3 $-1 $10 reversed single #
loop $-1 -1 $-1 $-1 $11 $4 #
plane-surface $-1 -1 $-1 1031.797571915386925 3935.642797989814426 14000.00000000000182 1 -3.637978807091713027e-15 0 0 0 -1 forward_v I I I I #
face $-1 -1 $-1 $-1 $12 $3 $-1 $13 forward single #
loop $-1 -1 $-1 $-1 $14 $5 #
plane-surface $-1 -1 $-1 781.797571915386925 3935.642797989815335 14000.00000000000182 1 -3.637978807091713027e-15 0 0 0 -1 forward_v I I I I #
tcoedge-coedge $-1 -1 $-1 $11 $11 $15 $16 forward $6 $17 0 6.283185307179586232 #
loop $-1 -1 $-1 $-1 $18 $8 #
spline-surface $-1 -1 $-1 forward { exactsur full nubs 3 3 periodic open none none 90 2 
	0 3 0.004464285714285714038 1 0.008928571428571428076 1 0.01785714285714285615 1 0.02678571428571428423 1 
	0.0357142857142857123 1 0.05357142857142856845 1 0.07142857142857142461 1 0.08928571428571427382 1 0.09374999999999998612 1 
	0.09821428571428569843 1 0.1026785714285714246 1 0.1071428571428571369 1 0.125 1 0.1428571428571428492 1 
	0.1587301587301587213 1 0.1785714285714285476 1 0.1825396825396825295 1 0.1904761904761904656 1 0.2142857142857142738 1 
	0.226190476190476164 1 0.238095238095238082 1 0.2410714285714285476 1 0.2440476190476190133 1 0.2499999999999999722 1 
	0.2619047619047618625 1 0.2738095238095237804 1 0.2857142857142856984 1 0.2976190476190476164 1 0.3095238095238095344 1 
	0.3214285714285713969 1 0.3333333333333333148 1 0.3452380952380952328 1 0.3571428571428570953 1 0.3630952380952380265 1 
	0.3690476190476190133 1 0.375 1 0.3809523809523809312 1 0.3928571428571428492 1 0.4047619047619047672 1 
	0.4166666666666666297 1 0.4285714285714285476 1 0.4444444444444444198 1 0.4603174603174602919 1 0.476190476190476164 1 
	0.4801587301587301182 1 0.4841269841269840724 1 0.4920634920634920362 1 0.5 1 0.5079365079365079083 1 
	0.5158730158730158166 1 0.5238095238095237249 1 0.5476190476190475609 1 0.5714285714285713969 1 0.5833333333333332593 1 
	0.5892857142857141906 1 0.5922619047619046562 1 0.5952380952380951218 1 0.6190476190476189577 1 0.6269841269841269771 1 
	0.6349206349206348854 1 0.650793650793650702 1 0.6666666666666666297 1 0.6904761904761904656 1 0.7023809523809523281 1 
	0.7142857142857141906 1 0.7321428571428569843 1 0.749999999999999889 1 0.7678571428571427937 1 0.7857142857142855874 1 
	0.7976190476190474499 1 0.8095238095238094234 1 0.8333333333333332593 1 0.8452380952380951218 1 0.851190476190476053 1 
	0.8571428571428570953 1 0.875 1 0.8928571428571427937 1 0.9107142857142856984 1 0.9285714285714286031 1 
	0.9464285714285713969 1 0.9642857142857143016 1 0.9732142857142858094 1 0.9821428571428572063 1 0.9910714285714286031 1 
	0.9955357142857143016 1 0.9977678571428572063 1 0.9988839285714286031 1 0.9994419642857143016 1 1 3 
	0 3 1 3 
	781.7975719135320105 4435.642881884196868 13999.99993643164817 
	781.7975719135332611 4435.64288168684925 14004.67492554825185 
	781.7975719135591817 4435.511736621111595 14014.02490493858022 
	781.7975719135810095 4434.72510098746352 14032.71014748667585 
	781.7975719136695716 4432.759717656738758 14056.01156199692014 
	781.7975719137433543 4428.836933521702122 14083.796976856529 
	781.7975719138241857 4421.538052973305639 14120.49278685656463 
	781.7975719140974888 4408.575873840157328 14165.48635020649999 
	781.7975719142737034 4387.073469508740345 14217.39752996798234 
	781.7975719144981213 4366.688953625958675 14254.28040505281024 
	781.7975719145221092 4351.432170086331098 14277.8215321840762 
	781.7975719145335916 4343.476809846525612 14289.37361327793587 
	781.7975719145438234 4335.200482646002456 14300.69796153080279 
	781.7975719145634912 4318.019384618472031 14322.87369675405171 
	781.7975719147049176 4289.938961144295718 14354.29615318350625 
	781.7975719148131475 4249.594070218952766 14390.34989007915101 
	781.7975719149195584 4203.987963075284824 14423.13893939473201 
	781.7975719149998213 4167.673320898406928 14443.50612685819942 
	781.7975719150031182 4137.541042222402211 14457.55623364326311 
	781.7975719150339273 4103.067715171985583 14472.08968427686887 
	781.7975719150886107 4059.265201330697437 14485.60037504440515 
	781.797571915105209 4010.233313969912615 14494.87632639679578 
	781.7975719151396561 3982.340378401372618 14498.0195228626726 
	781.7975719151423846 3963.679623083140541 14499.24251710533827 
	781.7975719151443172 3951.226066790328787 14499.82515905440778 
	781.7975719151510248 3929.409445990220775 14500.23323357427216 
	781.7975719151725116 3898.242856563709665 14499.06711469966285 
	781.7975719151904741 3861.052097059441621 14494.87669294231819 
	781.7975719152093461 3824.278481921769071 14487.91876037001566 
	781.7975719152254896 3788.127658605048509 14478.23217079615279 
	781.7975719152409511 3752.801801031971536 14465.87111964408541 
	781.7975719152544798 3718.498460538317886 14450.90472774602495 
	781.7975719152673264 3685.40948497428235 14433.416688382551 
	781.7975719152791498 3653.719901468271019 14413.5048198055556 
	781.7975719152834699 3628.625767972465837 14394.98454077478891 
	781.797571915287449 3609.422939424269771 14379.07425163116568 
	781.7975719152890406 3595.476996841657638 14366.61145102271257 
	781.7975719152913143 3582.006859518595775 14353.63585406777929 
	781.7975719152935881 3564.706032993226472 14335.67569368892873 
	781.7975719152997272 3544.362215732841833 14312.03578741563615 
	781.7975719153060936 3522.13778671674936 14281.92286379365396 
	781.797571915308481 3502.226044629270291 14250.23322841367917 
	781.7975719153134833 3482.794644240947036 14213.46780625845531 
	781.7975719153176897 3465.016797969792606 14171.2938023172519 
	781.797571915319736 3450.300262124080291 14123.58331876960074 
	781.7975719153232603 3442.880401142157552 14086.87935638690942 
	781.7975719153238288 3439.471795862004001 14062.1782121471424 
	781.7975719153238288 3437.610517386138781 14045.65926892952848 
	781.7975719153243972 3436.057290147704862 14024.93319010654341 
	781.7975719153247383 3435.435536763071468 13999.9999233061335 
	781.7975719153246246 3436.057206524718822 13975.06662932555082 
	781.7975719153246246 3437.921354266525213 13950.19538366715096 
	781.7975719153232603 3443.088997781549551 13908.94945141400967 
	781.7975719153203045 3456.070195456830788 13852.0713334211141 
	781.7975719153140517 3478.907746576511272 13793.88479756421293 
	781.7975719153114369 3499.311492261525473 13755.28150702813036 
	781.7975719153106411 3510.573008432804272 13736.59169806748832 
	781.7975719153105274 3517.304431999441931 13726.09796060152439 
	781.7975719153096179 3534.620041406004475 13700.18246498397275 
	781.7975719152958618 3557.354422770737983 13671.67496816591301 
	781.7975719152939291 3586.379733224025586 13641.91819899383336 
	781.7975719152908596 3610.756758038417047 13619.2988014983639 
	781.797571915281992 3643.286775746358217 13593.35765640491627 
	781.7975719152673264 3692.217557951213621 13561.75277006010947 
	781.7975719152510692 3741.026182862542555 13538.24848214837039 
	781.7975719152412921 3788.12795053157015 13521.76850972986358 
	781.7975719152294687 3830.303609014661561 13510.46671077111023 
	781.7975719152049123 3879.543033013294462 13502.10053043298103 
	781.7975719151771727 3935.642824648690748 13498.950063097167 
	781.7975719151440899 3991.742627724498561 13502.10050883768236 
	781.7975719151122576 4040.982035863991314 13510.46672069560555 
	781.7975719150852001 4083.157724939409491 13521.76843474087946 
	781.7975719150783789 4130.25939851345629 13538.2486628165334 
	781.7975719150159648 4175.313627590770921 13559.94462507072603 
	781.7975719149824272 4212.284050648907396 13583.17665340053099 
	781.7975719149587803 4232.622272405996227 13597.60713957838743 
	781.7975719149550287 4257.352816937833268 13616.58339967052962 
	781.7975719148390681 4289.939180787680925 13645.70354487794611 
	781.7975719146538722 4327.379760265645928 13687.60018460727224 
	781.7975719144737923 4359.894360481643162 13733.42499693414902 
	781.7975719142581283 4387.07353425841211 13782.60234522626524 
	781.7975719140574711 4408.575964466262121 13834.51347222717413 
	781.7975719138052 4421.538080223313045 13879.50708274343742 
	781.797571913724255 4428.836957250679916 13916.20288895879457 
	781.7975719136503585 4432.759729636525662 13943.98830954443656 
	781.797571913568845 4434.725106668597618 13967.2897250651713 
	781.797571913542356 4435.413408473846175 13983.6393130812321 
	781.7975719135343979 4435.585511850053081 13991.81893542302896 
	781.7975719135324653 4435.628539234884556 13995.90934969695991 
	781.7975719135320105 4435.64083282271713 13998.24681553100345 
	781.7975719135318968 4435.642881908865093 13999.41556279207362 
	781.7975719135320105 4435.642881884196868 13999.99993643164817 
	865.1309052468653817 4435.642881884195958 13999.99993643164817 
	865.1309052468666323 4435.642881686848341 14004.67492554825185 
	865.1309052468925529 4435.511736621110686 14014.02490493858022 
	865.1309052469143808 4434.725100987462611 14032.71014748667585 
	865.1309052470029428 4432.759717656737848 14056.01156199692014 
	865.1309052470767256 4428.836933521701212 14083.796976856529 
	865.1309052471576706 4421.53805297330473 14120.49278685656463 
	865.1309052474307464 4408.575873840156419 14165.48635020649999 
	865.1309052476071884 4387.073469508739436 14217.39752996798234 
	865.1309052478312651 4366.688953625957765 14254.28040505281024 
	865.1309052478555941 4351.432170086330188 14277.8215321840762 
	865.1309052478668491 4343.476809846524702 14289.37361327793587 
	865.1309052478771946 4335.200482646001547 14300.69796153080279 
	865.1309052478967487 4318.019384618471122 14322.87369675405171 
	865.1309052480384025 4289.938961144294808 14354.29615318350625 
	865.1309052481465187 4249.594070218951856 14390.34989007915101 
	865.1309052482529296 4203.987963075283915 14423.13893939473201 
	865.1309052483333062 4167.673320898406018 14443.50612685819942 
	865.1309052483363757 4137.541042222401302 14457.55623364326311 
	865.1309052483676396 4103.067715171984673 14472.08968427686887 
	865.1309052484216409 4059.265201330696982 14485.60037504440515 
	865.1309052484389213 4010.23331396991216 14494.87632639679578 
	865.1309052484727999 3982.340378401372163 14498.0195228626726 
	865.1309052484757558 3963.679623083140086 14499.24251710533827 
	865.1309052484776885 3951.226066790328332 14499.82515905440778 
	865.130905248484396 3929.40944599022032 14500.23323357427216 
	865.1309052485058828 3898.242856563709211 14499.06711469966285 
	865.1309052485238453 3861.052097059441166 14494.87669294231819 
	865.1309052485427173 3824.278481921768616 14487.91876037001566 
	865.1309052485588609 3788.127658605048055 14478.23217079615279 
	865.130905248574436 3752.801801031971081 14465.87111964408541 
	865.130905248587851 3718.498460538317431 14450.90472774602495 
	865.1309052486006976 3685.409484974281895 14433.416688382551 
	865.1309052486126348 3653.719901468270564 14413.5048198055556 
	865.1309052486167275 3628.625767972465383 14394.98454077478891 
	865.1309052486209339 3609.422939424269316 14379.07425163116568 
	865.1309052486224118 3595.476996841657183 14366.61145102271257 
	865.1309052486246856 3582.00685951859532 14353.63585406777929 
	865.1309052486269593 3564.706032993226017 14335.67569368892873 
	865.1309052486330984 3544.362215732841378 14312.03578741563615 
	865.1309052486394648 3522.137786716748906 14281.92286379365396 
	865.1309052486418523 3502.226044629269836 14250.23322841367917 
	865.1309052486468545 3482.794644240946582 14213.46780625845531 
	865.1309052486510609 3465.016797969792151 14171.2938023172519 
	865.130905248653221 3450.300262124079836 14123.58331876960074 
	865.1309052486565179 3442.880401142157098 14086.87935638690942 
	865.1309052486572 3439.471795862003546 14062.1782121471424 
	865.1309052486572 3437.610517386138326 14045.65926892952848 
	865.1309052486577684 3436.057290147704407 14024.93319010654341 
	865.1309052486581095 3435.435536763071013 13999.9999233061335 
	865.1309052486581095 3436.057206524718367 13975.06662932555082 
	865.1309052486578821 3437.921354266524759 13950.19538366715096 
	865.1309052486567452 3443.088997781549097 13908.94945141400967 
	865.130905248653562 3456.070195456830334 13852.0713334211141 
	865.1309052486474229 3478.907746576510817 13793.88479756421293 
	865.1309052486448081 3499.311492261525018 13755.28150702813036 
	865.1309052486440123 3510.573008432803817 13736.59169806748832 
	865.1309052486438986 3517.304431999441476 13726.09796060152439 
	865.1309052486429891 3534.62004140600402 13700.18246498397275 
	865.130905248629233 3557.354422770737528 13671.67496816591301 
	865.1309052486273004 3586.379733224025131 13641.91819899383336 
	865.1309052486242308 3610.756758038416592 13619.2988014983639 
	865.1309052486152495 3643.286775746357762 13593.35765640491627 
	865.1309052486006976 3692.217557951213166 13561.75277006010947 
	865.1309052485844404 3741.0261828625421 13538.24848214837039 
	865.1309052485745497 3788.127950531569695 13521.76850972986358 
	865.1309052485628399 3830.303609014661106 13510.46671077111023 
	865.1309052485382836 3879.543033013294007 13502.10053043298103 
	865.130905248510544 3935.642824648690294 13498.950063097167 
	865.1309052484775748 3991.742627724498107 13502.10050883768236 
	865.1309052484455151 4040.982035863990859 13510.46672069560555 
	865.130905248418685 4083.157724939409036 13521.76843474087946 
	865.1309052484116364 4130.25939851345538 13538.2486628165334 
	865.130905248349336 4175.313627590770011 13559.94462507072603 
	865.1309052483157984 4212.284050648906486 13583.17665340053099 
	865.1309052482920379 4232.622272405995318 13597.60713957838743 
	865.1309052482885136 4257.352816937832358 13616.58339967052962 
	865.1309052481723256 4289.939180787680016 13645.70354487794611 
	865.1309052479873571 4327.379760265645018 13687.60018460727224 
	865.1309052478070498 4359.894360481642252 13733.42499693414902 
	865.1309052475914996 4387.0735342584112 13782.60234522626524 
	865.1309052473907286 4408.575964466261212 13834.51347222717413 
	865.1309052471385712 4421.538080223312136 13879.50708274343742 
	865.1309052470576262 4428.836957250679006 13916.20288895879457 
	865.1309052469837297 4432.759729636524753 13943.98830954443656 
	865.1309052469021026 4434.725106668596709 13967.2897250651713 
	865.1309052468757272 4435.413408473845266 13983.6393130812321 
	865.1309052468677692 4435.585511850052171 13991.81893542302896 
	865.1309052468657228 4435.628539234883647 13995.90934969695991 
	865.1309052468653817 4435.64083282271622 13998.24681553100345 
	865.1309052468652681 4435.642881908864183 13999.41556279207362 
	865.1309052468653817 4435.642881884195958 13999.99993643164817 
	948.4642385796045119 4435.642881884196868 13999.99993643164817 
	948.4642385796059898 4435.64288168684925 14004.67492554825185 
	948.4642385796404369 4435.511736621110686 14014.02490493858022 
	948.4642385796693134 4434.72510098746352 14032.71014748667585 
	948.4642385797859561 4432.759717656737848 14056.01156199692014 
	948.464238579883272 4428.836933521702122 14083.796976856529 
	948.4642385799897966 4421.538052973305639 14120.49278685656463 
	948.4642385803510933 4408.575873840156419 14165.48635020649999 
	948.4642385805836966 4387.073469508740345 14217.39752996798234 
	948.4642385808798508 4366.688953625957765 14254.28040505281024 
	948.4642385809113421 4351.432170086330188 14277.8215321840762 
	948.4642385809265761 4343.476809846525612 14289.37361327793587 
	948.4642385809401048 4335.200482646001547 14300.69796153080279 
	948.4642385809661391 4318.019384618471122 14322.87369675405171 
	948.4642385811525855 4289.938961144294808 14354.29615318350625 
	948.4642385812952625 4249.594070218950947 14390.34989007915101 
	948.4642385814360068 4203.987963075283005 14423.13893939473201 
	948.4642385815416219 4167.673320898404199 14443.50612685819942 
	948.4642385815463967 4137.541042222400392 14457.55623364326311 
	948.4642385815866419 4103.067715171982854 14472.08968427686887 
	948.4642385816594015 4059.265201330695163 14485.60037504440515 
	948.4642385816805472 4010.233313969911705 14494.87632639679578 
	948.4642385817267041 3982.340378401370799 14498.0195228626726 
	948.464238581730001 3963.679623083138722 14499.24251710533827 
	948.4642385817327295 3951.226066790326968 14499.82515905440778 
	948.464238581741597 3929.409445990218956 14500.23323357427216 
	948.4642385817702461 3898.242856563707392 14499.06711469966285 
	948.464238581793893 3861.052097059439348 14494.87669294231819 
	948.4642385818186767 3824.278481921767252 14487.91876037001566 
	948.4642385818402772 3788.1276586050476 14478.23217079615279 
	948.4642385818606272 3752.801801031969262 14465.87111964408541 
	948.4642385818788171 3718.498460538316522 14450.90472774602495 
	948.464238581895529 3685.409484974280986 14433.416688382551 
	948.4642385819111041 3653.7199014682692 14413.5048198055556 
	948.4642385819172432 3628.625767972464928 14394.98454077478891 
	948.4642385819222454 3609.422939424268407 14379.07425163116568 
	948.4642385819246329 3595.476996841656273 14366.61145102271257 
	948.4642385819275887 3582.006859518593956 14353.63585406777929 
	948.4642385819305446 3564.706032993224653 14335.67569368892873 
	948.46423858193873 3544.362215732840468 14312.03578741563615 
	948.4642385819471428 3522.137786716747542 14281.92286379365396 
	948.4642385819505535 3502.226044629269381 14250.23322841367917 
	948.4642385819569199 3482.794644240945672 14213.46780625845531 
	948.4642385819626043 3465.016797969791696 14171.2938023172519 
	948.4642385819652191 3450.300262124078927 14123.58331876960074 
	948.4642385819699939 3442.880401142155733 14086.87935638690942 
	948.4642385819707897 3439.471795862002637 14062.1782121471424 
	948.4642385819707897 3437.610517386137417 14045.65926892952848 
	948.4642385819714718 3436.057290147703952 14024.93319010654341 
	948.4642385819718129 3435.435536763070559 13999.9999233061335 
	948.4642385819715855 3436.057206524717913 13975.06662932555082 
	948.4642385819718129 3437.921354266523849 13950.19538366715096 
	948.4642385819697665 3443.088997781547732 13908.94945141400967 
	948.4642385819661285 3456.070195456829879 13852.0713334211141 
	948.4642385819570336 3478.907746576509908 13793.88479756421293 
	948.4642385819539641 3499.311492261525018 13755.28150702813036 
	948.4642385819528272 3510.573008432803363 13736.59169806748832 
	948.4642385819528272 3517.304431999441476 13726.09796060152439 
	948.4642385819514629 3534.62004140600402 13700.18246498397275 
	948.4642385819335004 3557.354422770737074 13671.67496816591301 
	948.4642385819309993 3586.379733224024676 13641.91819899383336 
	948.4642385819267929 3610.756758038416592 13619.2988014983639 
	948.4642385819154242 3643.286775746357762 13593.35765640491627 
	948.4642385818959838 3692.217557951213166 13561.75277006010947 
	948.4642385818743833 3741.0261828625421 13538.24848214837039 
	948.4642385818615367 3788.12795053157015 13521.76850972986358 
	948.4642385818457342 3830.303609014662015 13510.46671077111023 
	948.4642385818134471 3879.543033013294462 13502.10053043298103 
	948.4642385817767263 3935.642824648690748 13498.950063097167 
	948.4642385817328432 3991.742627724499016 13502.10050883768236 
	948.4642385816910064 4040.982035863991769 13510.46672069560555 
	948.4642385816550814 4083.157724939409945 13521.76843474087946 
	948.4642385816462138 4130.25939851345629 13538.2486628165334 
	948.4642385815635635 4175.313627590770921 13559.94462507072603 
	948.4642385815192256 4212.284050648907396 13583.17665340053099 
	948.4642385814881891 4232.622272405996227 13597.60713957838743 
	948.4642385814829595 4257.352816937832358 13616.58339967052962 
	948.464238581329937 4289.939180787679106 13645.70354487794611 
	948.4642385810852829 4327.379760265645018 13687.60018460727224 
	948.4642385808476774 4359.894360481642252 13733.42499693414902 
	948.4642385805627782 4387.0735342584112 13782.60234522626524 
	948.4642385802983426 4408.575964466261212 13834.51347222717413 
	948.4642385799651265 4421.538080223312136 13879.50708274343742 
	948.4642385798583746 4428.836957250679006 13916.20288895879457 
	948.4642385797608313 4432.759729636524753 13943.98830954443656 
	948.4642385796532835 4434.725106668595799 13967.2897250651713 
	948.464238579618609 4435.413408473846175 13983.6393130812321 
	948.4642385796078088 4435.585511850052171 13991.81893542302896 
	948.4642385796055351 4435.628539234883647 13995.90934969695991 
	948.4642385796045119 4435.64083282271713 13998.24681553100345 
	948.4642385796042845 4435.642881908865093 13999.41556279207362 
	948.4642385796045119 4435.642881884196868 13999.99993643164817 
	1031.797571912937883 4435.642881884196868 13999.99993643164817 
	1031.797571912939247 4435.64288168684925 14004.67492554825185 
	1031.797571912973808 4435.511736621110686 14014.02490493858022 
	1031.797571913002685 4434.72510098746352 14032.71014748667585 
	1031.797571913119327 4432.759717656737848 14056.01156199692014 
	1031.797571913216643 4428.836933521702122 14083.796976856529 
	1031.797571913323281 4421.538052973305639 14120.49278685656463 
	1031.797571913684351 4408.575873840156419 14165.48635020649999 
	1031.797571913917182 4387.073469508740345 14217.39752996798234 
	1031.797571914212995 4366.688953625957765 14254.28040505281024 
	1031.797571914244827 4351.432170086330188 14277.8215321840762 
	1031.797571914259834 4343.476809846525612 14289.37361327793587 
	1031.797571914273476 4335.200482646001547 14300.69796153080279 
	1031.797571914299397 4318.019384618471122 14322.87369675405171 
	1031.79757191448607 4289.938961144294808 14354.29615318350625 
	1031.797571914628634 4249.594070218950947 14390.34989007915101 
	1031.797571914769378 4203.987963075283005 14423.13893939473201 
	1031.797571914875107 4167.673320898404199 14443.50612685819942 
	1031.797571914879654 4137.541042222400392 14457.55623364326311 
	1031.797571914920354 4103.067715171982854 14472.08968427686887 
	1031.797571914992432 4059.265201330694708 14485.60037504440515 
	1031.79757191501426 4010.233313969911251 14494.87632639679578 
	1031.797571915059962 3982.340378401370344 14498.0195228626726 
	1031.797571915063372 3963.679623083138267 14499.24251710533827 
	1031.797571915066101 3951.226066790326513 14499.82515905440778 
	1031.797571915074968 3929.409445990218501 14500.23323357427216 
	1031.797571915103617 3898.242856563706937 14499.06711469966285 
	1031.797571915127264 3861.052097059438893 14494.87669294231819 
	1031.797571915152048 3824.278481921766797 14487.91876037001566 
	1031.797571915173648 3788.127658605047145 14478.23217079615279 
	1031.797571915194112 3752.801801031968807 14465.87111964408541 
	1031.797571915212075 3718.498460538316067 14450.90472774602495 
	1031.7975719152289 3685.409484974280531 14433.416688382551 
	1031.797571915244589 3653.719901468268745 14413.5048198055556 
	1031.797571915250501 3628.625767972464473 14394.98454077478891 
	1031.79757191525573 3609.422939424267952 14379.07425163116568 
	1031.797571915258004 3595.476996841655819 14366.61145102271257 
	1031.79757191526096 3582.006859518593501 14353.63585406777929 
	1031.797571915263916 3564.706032993224198 14335.67569368892873 
	1031.797571915272101 3544.362215732840014 14312.03578741563615 
	1031.797571915280514 3522.137786716747087 14281.92286379365396 
	1031.797571915283925 3502.226044629268927 14250.23322841367917 
	1031.797571915290291 3482.794644240945217 14213.46780625845531 
	1031.797571915295975 3465.016797969791241 14171.2938023172519 
	1031.797571915298704 3450.300262124078472 14123.58331876960074 
	1031.797571915303251 3442.880401142155279 14086.87935638690942 
	1031.797571915304161 3439.471795862002182 14062.1782121471424 
	1031.797571915304161 3437.610517386136962 14045.65926892952848 
	1031.797571915304843 3436.057290147703497 14024.93319010654341 
	1031.79757191530507 3435.435536763070104 13999.9999233061335 
	1031.79757191530507 3436.057206524717458 13975.06662932555082 
	1031.79757191530507 3437.921354266523394 13950.19538366715096 
	1031.797571915303251 3443.088997781547278 13908.94945141400967 
	1031.797571915299386 3456.070195456829424 13852.0713334211141 
	1031.797571915290519 3478.907746576509453 13793.88479756421293 
	1031.797571915287335 3499.311492261524563 13755.28150702813036 
	1031.797571915286198 3510.573008432802908 13736.59169806748832 
	1031.797571915286198 3517.304431999441022 13726.09796060152439 
	1031.797571915284834 3534.620041406003565 13700.18246498397275 
	1031.797571915266872 3557.354422770736619 13671.67496816591301 
	1031.797571915264371 3586.379733224024221 13641.91819899383336 
	1031.797571915260278 3610.756758038416137 13619.2988014983639 
	1031.797571915248682 3643.286775746357307 13593.35765640491627 
	1031.797571915229355 3692.217557951212711 13561.75277006010947 
	1031.797571915207755 3741.026182862541646 13538.24848214837039 
	1031.797571915194794 3788.127950531569695 13521.76850972986358 
	1031.797571915179105 3830.303609014661561 13510.46671077111023 
	1031.797571915146818 3879.543033013294007 13502.10053043298103 
	1031.797571915109984 3935.642824648690294 13498.950063097167 
	1031.797571915066328 3991.742627724498561 13502.10050883768236 
	1031.797571915024264 4040.982035863991314 13510.46672069560555 
	1031.797571914988566 4083.157724939409491 13521.76843474087946 
	1031.797571914979471 4130.25939851345629 13538.2486628165334 
	1031.797571914896935 4175.313627590770921 13559.94462507072603 
	1031.797571914852597 4212.284050648907396 13583.17665340053099 
	1031.797571914821447 4232.622272405996227 13597.60713957838743 
	1031.797571914816444 4257.352816937832358 13616.58339967052962 
	1031.797571914663195 4289.939180787679106 13645.70354487794611 
	1031.797571914418768 4327.379760265645018 13687.60018460727224 
	1031.797571914180935 4359.894360481642252 13733.42499693414902 
	1031.797571913896263 4387.0735342584112 13782.60234522626524 
	1031.7975719136316 4408.575964466261212 13834.51347222717413 
	1031.797571913298498 4421.538080223312136 13879.50708274343742 
	1031.797571913191632 4428.836957250679006 13916.20288895879457 
	1031.797571913094316 4432.759729636524753 13943.98830954443656 
	1031.797571912986541 4434.725106668595799 13967.2897250651713 
	1031.79757191295198 4435.413408473846175 13983.6393130812321 
	1031.797571912941294 4435.585511850052171 13991.81893542302896 
	1031.797571912938793 4435.628539234883647 13995.90934969695991 
	1031.797571912937883 4435.64083282271713 13998.24681553100345 
	1031.797571912937656 4435.642881908865093 13999.41556279207362 
	1031.797571912937883 4435.642881884196868 13999.99993643164817 
	0 
	
	0 
	0 
	89 0 0.004464285714285714038 0.008928571428571428076 0.01785714285714285615 0.02678571428571428423 0.0357142857142857123 0.05357142857142856845 0.07142857142857142461 0.08928571428571427382 0.09374999999999998612 0.09821428571428569843 0.1026785714285714246 0.1071428571428571369 0.125 0.1428571428571428492 0.1587301587301587213 0.1785714285714285476 0.1825396825396825295 0.1904761904761904656 0.2142857142857142738 0.226190476190476164 0.238095238095238082 0.2410714285714285476 0.2440476190476190133 0.2499999999999999722 0.2619047619047618625 0.2738095238095237804 0.2857142857142856984 0.2976190476190476164 0.3095238095238095344 0.3214285714285713969 0.3333333333333333148 0.3452380952380952328 0.3571428571428570953 0.3630952380952380265 0.3690476190476190133 0.375 0.3809523809523809312 0.3928571428571428492 0.4047619047619047672 0.4166666666666666297 0.4285714285714285476 0.4444444444444444198 0.4603174603174602919 0.476190476190476164 0.4801587301587301182 0.4841269841269840724 0.4920634920634920362 0.5 0.5079365079365079083 0.5158730158730158166 0.5238095238095237249 0.5476190476190475609 0.5714285714285713969 0.5833333333333332593 0.5892857142857141906 0.5922619047619046562 0.5952380952380951218 0.6190476190476189577 0.6269841269841269771 0.6349206349206348854 0.650793650793650702 0.6666666666666666297 0.6904761904761904656 0.7023809523809523281 0.7142857142857141906 0.7321428571428569843 0.749999999999999889 0.7678571428571427937 0.7857142857142855874 0.7976190476190474499 0.8095238095238094234 0.8333333333333332593 0.8452380952380951218 0.851190476190476053 0.8571428571428570953 0.875 0.8928571428571427937 0.9107142857142856984 0.9285714285714286031 0.9464285714285713969 0.9642857142857143016 0.9732142857142858094 0.9821428571428572063 0.9910714285714286031 0.9955357142857143016 0.9977678571428572063 0.9988839285714286031 0.9994419642857143016 
	0 
	0 
	0 
	F 1 F 0 F 1 F 0 } I I I I #
tcoedge-coedge $-1 -1 $-1 $14 $14 $18 $19 reversed $9 $20 -6.283185307179586232 -0 #
tcoedge-coedge $-1 -1 $-1 $21 $22 $11 $16 reversed $12 $23 -6.283185307179586232 -0 #
tedge-edge $-1 -1 $-1 $24 0 $24 6.283185307179586232 $15 $25 forward @7 unknown 0.0007430609806273318638 #
pcurve $-1 -1 $-1 0 forward { exppc nurbs 2 periodic 5 
	0 2 1.570796326794896558 2 3.141592653589793116 2 4.712388980384689674 2 6.283185307179586232 2 
	0 500 1 
	-500 500 0.707106781186543798 
	-500 0 1 
	-500 -500 0.7071067811865463515 
	0 -500 1 
	500 -500 0.7071067811865463515 
	500 0 1 
	500 500 0.707106781186543798 
	0 500 1 
	0 
	plane 1031.797571915386925 3935.642797989814426 14000.00000000000182 1 -3.637978807091713027e-15 0 0 0 -1 forward_v I I I I 
	} 0 0 #
tcoedge-coedge $-1 -1 $-1 $22 $21 $14 $19 forward $12 $26 0 6.283185307179586232 #
tedge-edge $-1 -1 $-1 $27 0 $27 6.283185307179586232 $18 $28 forward @7 unknown 0.0007430609808916285863 #
pcurve $-1 -1 $-1 0 forward { exppc nurbs 2 periodic 5 
	-6.283185307179586232 2 -4.712388980384689674 2 -3.141592653589793116 2 -1.570796326794896558 2 0 2 
	0 500 1 
	500 500 0.707106781186543798 
	500 0 1 
	500 -500 0.7071067811865463515 
	0 -500 1 
	-500 -500 0.7071067811865463515 
	-500 0 1 
	-500 500 0.707106781186543798 
	0 500 1 
	0 
	plane 781.797571915386925 3935.642797989815335 14000.00000000000182 -1 3.637978807091713027e-15 -0 0 0 -1 reverse_v I I I I 
	} 0 0 #
coedge $-1 -1 $-1 $18 $15 $22 $29 reversed $12 $30 #
coedge $-1 -1 $-1 $15 $18 $21 $29 forward $12 $31 #
pcurve $-1 -1 $-1 0 forward { exppc nubs 1 periodic 2 
	-6.283185307179586232 1 -0 1 
	1 1 
	0 1 
	4.411402399551011005e-13 
	spline forward { ref 0 } I I I I 
	} 0 0 #
tvertex-vertex $-1 -1 $-1 $16 $32 0.0001052578030486303455 #
ellipse-curve $-1 -1 $-1 1031.797571915386925 3935.642797989814426 14000.00000000000182 1 -3.637978807091713027e-15 0 1.818989403545856476e-12 500 0 1 I I #
pcurve $-1 -1 $-1 0 forward { exppc nubs 1 periodic 2 
	0 1 6.283185307179586232 1 
	0 0 
	1 0 
	4.411402399551011509e-13 
	spline forward { ref 0 } I I I I 
	} 0 0 #
tvertex-vertex $-1 -1 $-1 $19 $33 0.0001052578023115720768 #
ellipse-curve $-1 -1 $-1 781.797571915386925 3935.642797989815335 14000.00000000000182 1 -3.637978807091713027e-15 0 1.818989403545856476e-12 500 0 1 I I #
edge $-1 -1 $-1 $27 0 $24 1 $22 $34 forward @7 tangent #
pcurve $-1 -1 $-1 -1 $34 0 0 #
pcurve $-1 -1 $-1 1 $34 1 0 #
point $-1 -1 $-1 1031.797571915388744 4435.642797989814426 14000.00000000000182 #
point $-1 -1 $-1 781.7975719153887439 4435.642797989815335 14000.00000000000182 #
intcurve-curve $-1 -1 $-1 forward { parcur full nubs 3 open 2 
	0 3 1 3 
	781.7975719135320105 4435.642881884196868 13999.99993643164817 
	865.1309052468653817 4435.642881884195958 13999.99993643164817 
	948.4642385796045119 4435.642881884196868 13999.99993643164817 
	1031.797571912937883 4435.642881884196868 13999.99993643164817 
	0 
	
	spline forward { ref 0 } I I I I 
	null_surface 
	nubs 1 open 2 
	0 1 1 1 
	0 0 
	0 1 
	
	nullbs 
	I I 
	0 
	0 
	0 
	surf1 } F 0 F 1 #
End-of-ACIS-data 