700 0 1 0           
4 LibG 20 ASM 224.0.1.65535 NT 24 Wed Jul 17 12:52:14 2019 
1000 9.999999999999999547e-07 1.000000000000000036e-10 
body $-1 -1 $-1 $1 $-1 $2 #
lump $-1 -1 $-1 $-1 $3 $0 #
transform $-1 -1 1 0 0 0 1 0 0 0 1 0 0 0 1 no_rotate no_reflect no_shear #
shell $-1 -1 $-1 $-1 $-1 $4 $-1 $1 #
face $-1 -1 $-1 $5 $6 $3 $-1 $7 forward single #
face $-1 -1 $-1 $8 $9 $3 $-1 $10 reversed single #
loop $-1 -1 $-1 $-1 $11 $4 #
plane-surface $-1 -1 $-1 14281.79757191538738 3935.642797989766223 14000.00000000000182 1 -3.637978807091713027e-15 0 0 0 -1 forward_v I I I I #
face $-1 -1 $-1 $-1 $12 $3 $-1 $13 forward single #
loop $-1 -1 $-1 $-1 $14 $5 #
plane-surface $-1 -1 $-1 14031.79757191538738 3935.642797989767132 14000.00000000000182 1 -3.637978807091713027e-15 0 0 0 -1 forward_v I I I I #
tcoedge-coedge $-1 -1 $-1 $11 $11 $15 $16 forward $6 $17 0 6.283185307179586232 #
loop $-1 -1 $-1 $-1 $18 $8 #
spline-surface $-1 -1 $-1 forward { exactsur full nubs 3 3 periodic open none none 84 2 
	0 3 0.001116071428571428509 1 0.002232142857142857019 1 0.004464285714285714038 1 0.008928571428571428076 1 
	0.01785714285714285615 1 0.02678571428571428423 1 0.0357142857142857123 1 0.05357142857142856845 1 0.07142857142857142461 1 
	0.08928571428571427382 1 0.1071428571428571369 1 0.125 1 0.1428571428571428492 1 0.1587301587301587213 1 
	0.1825396825396825295 1 0.1904761904761904656 1 0.2023809523809523836 1 0.2142857142857142738 1 0.238095238095238082 1 
	0.2619047619047618625 1 0.2857142857142856984 1 0.2976190476190476164 1 0.3095238095238095344 1 0.3214285714285713969 1 
	0.3333333333333333148 1 0.3392857142857143016 1 0.3452380952380952328 1 0.3571428571428570953 1 0.3630952380952380265 1 
	0.3690476190476190133 1 0.3809523809523809312 1 0.3928571428571428492 1 0.4047619047619047672 1 0.4166666666666666297 1 
	0.4285714285714285476 1 0.4444444444444444198 1 0.4603174603174602919 1 0.476190476190476164 1 0.4781746031746031411 1 
	0.4791666666666666297 1 0.4801587301587301182 1 0.4841269841269840724 1 0.4920634920634920362 1 0.5 1 
	0.5039682539682539542 1 0.5079365079365079083 1 0.5238095238095237249 1 0.5476190476190475609 1 0.5595238095238095344 1 
	0.5654761904761904656 1 0.5714285714285713969 1 0.5952380952380951218 1 0.6190476190476189577 1 0.6349206349206348854 1 
	0.650793650793650702 1 0.6666666666666666297 1 0.6904761904761904656 1 0.7142857142857141906 1 0.7321428571428569843 1 
	0.749999999999999889 1 0.7678571428571427937 1 0.7857142857142855874 1 0.8095238095238094234 1 0.8214285714285713969 1 
	0.8333333333333332593 1 0.8452380952380951218 1 0.8571428571428570953 1 0.875 1 0.8928571428571427937 1 
	0.9107142857142856984 1 0.9285714285714286031 1 0.9464285714285713969 1 0.9642857142857143016 1 0.9732142857142858094 1 
	0.9821428571428572063 1 0.9910714285714286031 1 0.9955357142857143016 1 0.9977678571428572063 1 0.9988839285714286031 1 
	0.9994419642857143016 1 0.9997209821428572063 1 0.9998604910714286031 1 1 3 
	0 3 1 3 
	14031.79757131954466 4435.642810558233577 14000.00004727740634 
	14031.79757131955739 4435.642810556884797 14001.16879453235379 
	14031.79757131999577 4435.63461465652199 14003.50628894363399 
	14031.79757132040686 4435.585440451905015 14008.18104790157849 
	14031.79757132245686 4435.413336563014127 14016.36066913479408 
	14031.79757132901068 4434.725033115707447 14032.71025349851516 
	14031.79757134995634 4432.759649543670093 14056.011655409171 
	14031.79757136935586 4428.836871090673412 14083.79706373296904 
	14031.79757139094181 4421.537983713744325 14120.49285012199834 
	14031.79757146038537 4408.575844956489163 14165.48641733914337 
	14031.7975715167031 4387.07336763252988 14217.39745781303645 
	14031.7975715793109 4359.894196049032871 14266.57481282061963 
	14031.79757163073373 4327.379475133649066 14312.39940501512683 
	14031.79757168944161 4289.939025720451355 14354.29630148340038 
	14031.79757170508856 4249.593980361322792 14390.34957431959992 
	14031.79757173975486 4200.610235352090058 14425.56876141945941 
	14031.79757174821316 4156.69379522086183 14449.48396459168907 
	14031.7975717563022 4114.558375087462991 14467.24402646581621 
	14031.79757176176645 4083.157845200492829 14478.23174876203302 
	14031.79757177210922 4034.956831509030053 14491.14829560920953 
	14031.79757178367799 3973.147712777141805 14500.46607067474542 
	14031.79757180419801 3898.137886555522073 14500.46555081456791 
	14031.79757181941022 3836.328576861941656 14491.14873841838562 
	14031.7975718229518 3788.127688446638786 14478.23201659125152 
	14031.79757183047332 3752.801749900423147 14465.87146879257489 
	14031.79757183595757 3718.498441713470129 14450.90481880735388 
	14031.79757184185837 3690.924292326725208 14436.33151301860016 
	14031.79757184354457 3669.564646001632354 14423.46092879145726 
	14031.79757184489608 3648.70106979657794 14409.8008797141465 
	14031.7975718474263 3628.625736907346436 14394.98467819432153 
	14031.79757184905975 3609.422923343996899 14379.0743638791846 
	14031.79757185008566 3590.828305302179615 14362.45732469567884 
	14031.79757185397648 3568.774730167073812 14340.40380570216257 
	14031.79757185663948 3544.362201045961683 14312.03585401460077 
	14031.79757186050119 3522.137754966781358 14281.92292830678707 
	14031.79757186176175 3502.226019052359788 14250.23327856904143 
	14031.79757186468851 3482.794622785488173 14213.46783880873045 
	14031.79757186738789 3465.016769519979334 14171.29381277752691 
	14031.79757186862116 3450.30026513202165 14123.58331507190815 
	14031.79757187117139 3443.292573869523039 14088.91844000049969 
	14031.79757187140967 3440.472383295179498 14069.38171125015106 
	14031.79757187140422 3439.917130731095767 14065.26340787437948 
	14031.79757187141877 3439.12278232890867 14059.08087948324828 
	14031.7975718714606 3437.610510779698416 14045.65923234136426 
	14031.79757187155337 3436.057282765606033 14024.93314954845118 
	14031.79757187149335 3435.539135303450621 14004.15541896709146 
	14031.79757187149153 3435.746367197298241 13987.53322296135411 
	14031.79757187130599 3436.678753299915115 13962.61548537441558 
	14031.79757187071664 3441.23433402959563 13917.07469553022565 
	14031.79757186825736 3453.289086037784273 13864.25972299063505 
	14031.7975718672169 3467.711521161979363 13823.04649511265779 
	14031.7975718668622 3477.25471714431751 13800.00715177684833 
	14031.79757186615461 3492.851233680282803 13766.00725826589951 
	14031.79757186002826 3520.978848652788656 13717.28661776117588 
	14031.7975718540074 3562.551098902997182 13665.15889025121578 
	14031.79757184840855 3604.250895238230441 13624.48695269575546 
	14031.7975718466987 3643.286732464083798 13593.35727096867959 
	14031.79757184112896 3692.217781442715477 13561.75299737368914 
	14031.79757183393667 3752.289590256333668 13532.82328822245836 
	14031.79757181823879 3817.99388410704023 13512.557449822134 
	14031.79757180720844 3879.543237468654752 13502.10063487148545 
	14031.79757179549233 3935.643087363036102 13498.94953237687514 
	14031.79757178300861 3991.742727493394796 13502.10071170639276 
	14031.79757176662497 4053.292498453578901 13512.55667401569008 
	14031.79757174793849 4107.049671463133564 13529.13952191392309 
	14031.79757174317274 4152.787047510484626 13549.0958752840088 
	14031.79757173326107 4185.876202192505843 13566.58338442510649 
	14031.79757172287282 4217.565621123172605 13586.49554102834918 
	14031.79757171019628 4252.697635859315596 13612.42359114476494 
	14031.79757168503784 4289.93895487498321 13645.70410899296439 
	14031.79757165146475 4327.379719299565295 13687.60047494530227 
	14031.7975716290166 4359.894249263600614 13733.42534691835135 
	14031.79757154689469 4387.073365781749999 13782.602656081448 
	14031.79757148264434 4408.575865742426686 13834.51369752400751 
	14031.79757140038055 4421.537986241381077 13879.50725000816237 
	14031.79757137581328 4428.836875132799832 13916.20303507992139 
	14031.79757135347973 4432.759651066149672 13943.98844100982751 
	14031.79757132991654 4434.725033792359682 13967.28984154646423 
	14031.79757132246777 4435.413336700214131 13983.63942542783843 
	14031.79757132029044 4435.585440511701563 13991.81904661372937 
	14031.79757131974657 4435.628467897295195 13995.9094606365652 
	14031.79757131959923 4435.639224892367565 13997.95474317215485 
	14031.79757131956285 4435.641914140128392 13998.9773938735143 
	14031.79757131954648 4435.642682497838905 13999.56176705526013 
	14031.79757131954466 4435.642810558402743 13999.85395387053723 
	14031.79757131954466 4435.642810558233577 14000.00004727740634 
	14115.1309046528786 4435.642810558232668 14000.00004727740634 
	14115.13090465289133 4435.642810556883887 14001.16879453235379 
	14115.13090465332971 4435.63461465652108 14003.50628894363399 
	14115.1309046537408 4435.585440451904105 14008.18104790157849 
	14115.1309046557908 4435.413336563013218 14016.36066913479408 
	14115.13090466234462 4434.725033115706538 14032.71025349851516 
	14115.13090468329028 4432.759649543669184 14056.011655409171 
	14115.1309047026898 4428.836871090672503 14083.79706373296904 
	14115.13090472427575 4421.537983713743415 14120.49285012199834 
	14115.13090479371931 4408.575844956488254 14165.48641733914337 
	14115.13090485003704 4387.073367632528971 14217.39745781303645 
	14115.13090491264484 4359.894196049031962 14266.57481282061963 
	14115.13090496406767 4327.379475133648157 14312.39940501512683 
	14115.13090502277555 4289.939025720450445 14354.29630148340038 
	14115.1309050384225 4249.593980361321883 14390.34957431959992 
	14115.1309050730888 4200.610235352089148 14425.56876141945941 
	14115.1309050815471 4156.69379522086092 14449.48396459168907 
	14115.13090508963614 4114.558375087462082 14467.24402646581621 
	14115.13090509510039 4083.157845200492375 14478.23174876203302 
	14115.13090510544316 4034.956831509029598 14491.14829560920953 
	14115.13090511701193 3973.147712777141351 14500.46607067474542 
	14115.13090513753195 3898.137886555521618 14500.46555081456791 
	14115.13090515274416 3836.328576861941201 14491.14873841838562 
	14115.13090515628573 3788.127688446638331 14478.23201659125152 
	14115.13090516380726 3752.801749900422692 14465.87146879257489 
	14115.13090516929151 3718.498441713469674 14450.90481880735388 
	14115.13090517519231 3690.924292326724753 14436.33151301860016 
	14115.13090517687851 3669.5646460016319 14423.46092879145726 
	14115.13090517823002 3648.701069796577485 14409.8008797141465 
	14115.13090518076024 3628.625736907345981 14394.98467819432153 
	14115.13090518239369 3609.422923343996445 14379.0743638791846 
	14115.1309051834196 3590.82830530217916 14362.45732469567884 
	14115.13090518731042 3568.774730167073358 14340.40380570216257 
	14115.13090518997342 3544.362201045961228 14312.03585401460077 
	14115.13090519383513 3522.137754966780903 14281.92292830678707 
	14115.13090519509569 3502.226019052359334 14250.23327856904143 
	14115.13090519802245 3482.794622785487718 14213.46783880873045 
	14115.13090520072183 3465.01676951997888 14171.29381277752691 
	14115.1309052019551 3450.300265132021195 14123.58331507190815 
	14115.13090520450532 3443.292573869522585 14088.91844000049969 
	14115.13090520474361 3440.472383295179043 14069.38171125015106 
	14115.13090520473816 3439.917130731095313 14065.26340787437948 
	14115.13090520475271 3439.122782328908215 14059.08087948324828 
	14115.13090520479454 3437.610510779697961 14045.65923234136426 
	14115.13090520488731 3436.057282765605578 14024.93314954845118 
	14115.13090520482729 3435.539135303450166 14004.15541896709146 
	14115.13090520482547 3435.746367197297786 13987.53322296135411 
	14115.13090520463993 3436.678753299914661 13962.61548537441558 
	14115.13090520405058 3441.234334029595175 13917.07469553022565 
	14115.1309052015913 3453.289086037783818 13864.25972299063505 
	14115.13090520055084 3467.711521161978908 13823.04649511265779 
	14115.13090520019614 3477.254717144317055 13800.00715177684833 
	14115.13090519948855 3492.851233680282348 13766.00725826589951 
	14115.1309051933622 3520.978848652788201 13717.28661776117588 
	14115.13090518734134 3562.551098902996728 13665.15889025121578 
	14115.13090518174249 3604.250895238229987 13624.48695269575546 
	14115.13090518003264 3643.286732464083343 13593.35727096867959 
	14115.1309051744629 3692.217781442715022 13561.75299737368914 
	14115.13090516727061 3752.289590256333213 13532.82328822245836 
	14115.13090515157273 3817.993884107039776 13512.557449822134 
	14115.13090514054238 3879.543237468654297 13502.10063487148545 
	14115.13090512882627 3935.643087363035647 13498.94953237687514 
	14115.13090511634255 3991.742727493394341 13502.10071170639276 
	14115.13090509995891 4053.292498453578446 13512.55667401569008 
	14115.13090508127243 4107.049671463132654 13529.13952191392309 
	14115.13090507650668 4152.787047510483717 13549.0958752840088 
	14115.13090506659501 4185.876202192504934 13566.58338442510649 
	14115.13090505620676 4217.565621123171695 13586.49554102834918 
	14115.13090504353022 4252.697635859314687 13612.42359114476494 
	14115.13090501837178 4289.938954874982301 13645.70410899296439 
	14115.13090498479869 4327.379719299564385 13687.60047494530227 
	14115.13090496235054 4359.894249263599704 13733.42534691835135 
	14115.13090488022863 4387.073365781749089 13782.602656081448 
	14115.13090481597828 4408.575865742425776 13834.51369752400751 
	14115.13090473371449 4421.537986241380167 13879.50725000816237 
	14115.13090470914722 4428.836875132798923 13916.20303507992139 
	14115.13090468681366 4432.759651066148763 13943.98844100982751 
	14115.13090466325048 4434.725033792358772 13967.28984154646423 
	14115.13090465580171 4435.413336700213222 13983.63942542783843 
	14115.13090465362438 4435.585440511700654 13991.81904661372937 
	14115.13090465308051 4435.628467897294286 13995.9094606365652 
	14115.13090465293317 4435.639224892366656 13997.95474317215485 
	14115.13090465289679 4435.641914140127483 13998.9773938735143 
	14115.13090465288042 4435.642682497837995 13999.56176705526013 
	14115.1309046528786 4435.642810558401834 13999.85395387053723 
	14115.1309046528786 4435.642810558232668 14000.00004727740634 
	14198.46423797559873 4435.642810558233577 14000.00004727740634 
	14198.46423797560965 4435.642810556884797 14001.16879453235379 
	14198.46423797605712 4435.63461465652199 14003.50628894363399 
	14198.46423797647549 4435.585440451905015 14008.18104790157849 
	14198.46423797856005 4435.413336563014127 14016.36066913479408 
	14198.46423798523574 4434.725033115707447 14032.71025349851516 
	14198.46423800655248 4432.759649543670093 14056.011655409171 
	14198.46423802630125 4428.836871090673412 14083.79706373296904 
	14198.46423804826736 4421.537983713744325 14120.49285012199834 
	14198.46423811894965 4408.575844956489163 14165.48641733914337 
	14198.46423817626965 4387.07336763252988 14217.39745781303645 
	14198.46423823999248 4359.894196049032871 14266.57481282061963 
	14198.46423829232663 4327.379475133649066 14312.39940501512683 
	14198.46423835208043 4289.939025720451355 14354.29630148340038 
	14198.46423836800568 4249.593980361322792 14390.34957431959992 
	14198.4642384032868 4200.610235352090058 14425.56876141945941 
	14198.46423841189608 4156.69379522086183 14449.48396459168907 
	14198.46423842013064 4114.558375087462991 14467.24402646581621 
	14198.46423842569129 4083.157845200492829 14478.23174876203302 
	14198.4642384362196 4034.956831509030053 14491.14829560920953 
	14198.46423844799574 3973.14771277714226 14500.46607067474542 
	14198.46423846888138 3898.137886555522527 14500.46555081456791 
	14198.46423848436461 3836.328576861942111 14491.14873841838562 
	14198.46423848796985 3788.127688446638786 14478.23201659125152 
	14198.46423849562416 3752.801749900423602 14465.87146879257489 
	14198.46423850121027 3718.498441713470584 14450.90481880735388 
	14198.46423850721112 3690.924292326725663 14436.33151301860016 
	14198.46423850892825 3669.564646001632809 14423.46092879145726 
	14198.46423851030522 3648.70106979657794 14409.8008797141465 
	14198.46423851287909 3628.625736907346436 14394.98467819432153 
	14198.46423851454165 3609.422923343996445 14379.0743638791846 
	14198.46423851558575 3590.82830530217916 14362.45732469567884 
	14198.46423851954933 3568.774730167072903 14340.40380570216257 
	14198.46423852225598 3544.362201045961228 14312.03585401460077 
	14198.46423852619046 3522.137754966780449 14281.92292830678707 
	14198.46423852747103 3502.226019052358879 14250.23327856904143 
	14198.46423853045053 3482.794622785487718 14213.46783880873045 
	14198.46423853319902 3465.016769519979334 14171.29381277752691 
	14198.46423853445594 3450.30026513202165 14123.58331507190815 
	14198.46423853705164 3443.292573869523494 14088.91844000049969 
	14198.46423853729357 3440.472383295179952 14069.38171125015106 
	14198.46423853728811 3439.917130731096222 14065.26340787437948 
	14198.46423853730266 3439.122782328909125 14059.08087948324828 
	14198.4642385373445 3437.61051077969887 14045.65923234136426 
	14198.46423853743909 3436.057282765606487 14024.93314954845118 
	14198.46423853737724 3435.539135303451076 14004.15541896709146 
	14198.46423853737724 3435.746367197298696 13987.53322296135411 
	14198.46423853718989 3436.67875329991557 13962.61548537441558 
	14198.46423853659144 3441.23433402959563 13917.07469553022565 
	14198.46423853409033 3453.289086037784728 13864.25972299063505 
	14198.46423853303168 3467.711521161979817 13823.04649511265779 
	14198.46423853267152 3477.254717144317965 13800.00715177684833 
	14198.46423853194756 3492.851233680283258 13766.00725826589951 
	14198.46423852571024 3520.978848652789111 13717.28661776117588 
	14198.46423851958389 3562.551098902997637 13665.15889025121578 
	14198.46423851388499 3604.250895238230896 13624.48695269575546 
	14198.46423851214422 3643.286732464084253 13593.35727096867959 
	14198.46423850647625 3692.217781442715932 13561.75299737368914 
	14198.46423849915482 3752.289590256334122 13532.82328822245836 
	14198.46423848317681 3817.993884107040685 13512.557449822134 
	14198.46423847195001 3879.543237468655207 13502.10063487148545 
	14198.46423846002472 3935.643087363036557 13498.94953237687514 
	14198.46423844731908 3991.74272749339525 13502.10071170639276 
	14198.46423843064076 4053.292498453579356 13512.55667401569008 
	14198.46423841162505 4107.049671463133564 13529.13952191392309 
	14198.46423840677198 4152.787047510484626 13549.0958752840088 
	14198.46423839668387 4185.876202192505843 13566.58338442510649 
	14198.46423838610826 4217.565621123172605 13586.49554102834918 
	14198.46423837320617 4252.697635859315596 13612.42359114476494 
	14198.46423834760208 4289.93895487498321 13645.70410899296439 
	14198.46423831343054 4327.379719299565295 13687.60047494530227 
	14198.46423829058222 4359.894249263600614 13733.42534691835135 
	14198.4642382069942 4387.073365781749999 13782.602656081448 
	14198.46423814160516 4408.575865742426686 13834.51369752400751 
	14198.46423805787163 4421.537986241381077 13879.50725000816237 
	14198.4642380328678 4428.836875132799832 13916.20303507992139 
	14198.46423801013225 4432.759651066149672 13943.98844100982751 
	14198.46423798615615 4434.725033792359682 13967.28984154646423 
	14198.46423797856733 4435.413336700214131 13983.63942542783843 
	14198.46423797635543 4435.585440511701563 13991.81904661372937 
	14198.464237975797 4435.628467897295195 13995.9094606365652 
	14198.46423797564967 4435.639224892367565 13997.95474317215485 
	14198.46423797561147 4435.641914140128392 13998.9773938735143 
	14198.46423797560055 4435.642682497838905 13999.56176705526013 
	14198.46423797559692 4435.642810558402743 13999.85395387053723 
	14198.46423797559873 4435.642810558233577 14000.00004727740634 
	14281.79757130893267 4435.642810558233577 14000.00004727740634 
	14281.79757130894359 4435.642810556884797 14001.16879453235379 
	14281.79757130939106 4435.63461465652199 14003.50628894363399 
	14281.79757130980943 4435.585440451905015 14008.18104790157849 
	14281.79757131189399 4435.413336563014127 14016.36066913479408 
	14281.79757131856968 4434.725033115707447 14032.71025349851516 
	14281.79757133988642 4432.759649543670093 14056.011655409171 
	14281.79757135963519 4428.836871090673412 14083.79706373296904 
	14281.7975713816013 4421.537983713744325 14120.49285012199834 
	14281.79757145228359 4408.575844956489163 14165.48641733914337 
	14281.79757150960359 4387.07336763252988 14217.39745781303645 
	14281.79757157332642 4359.894196049032871 14266.57481282061963 
	14281.79757162566057 4327.379475133649066 14312.39940501512683 
	14281.79757168541437 4289.939025720451355 14354.29630148340038 
	14281.79757170133962 4249.593980361322792 14390.34957431959992 
	14281.79757173662074 4200.610235352090058 14425.56876141945941 
	14281.79757174523002 4156.69379522086183 14449.48396459168907 
	14281.79757175346458 4114.558375087462991 14467.24402646581621 
	14281.79757175902523 4083.157845200492375 14478.23174876203302 
	14281.79757176955354 4034.956831509029598 14491.14829560920953 
	14281.79757178132968 3973.147712777141805 14500.46607067474542 
	14281.79757180221532 3898.137886555522073 14500.46555081456791 
	14281.79757181769855 3836.328576861941656 14491.14873841838562 
	14281.79757182130379 3788.127688446638331 14478.23201659125152 
	14281.7975718289581 3752.801749900423147 14465.87146879257489 
	14281.79757183454421 3718.498441713470129 14450.90481880735388 
	14281.79757184054506 3690.924292326725208 14436.33151301860016 
	14281.79757184226219 3669.564646001632354 14423.46092879145726 
	14281.79757184363916 3648.701069796577485 14409.8008797141465 
	14281.79757184621303 3628.625736907345981 14394.98467819432153 
	14281.79757184787559 3609.42292334399599 14379.0743638791846 
	14281.79757184891969 3590.828305302178705 14362.45732469567884 
	14281.79757185288327 3568.774730167072448 14340.40380570216257 
	14281.79757185558992 3544.362201045960774 14312.03585401460077 
	14281.7975718595244 3522.137754966779994 14281.92292830678707 
	14281.79757186080496 3502.226019052358424 14250.23327856904143 
	14281.79757186378447 3482.794622785487263 14213.46783880873045 
	14281.79757186653296 3465.01676951997888 14171.29381277752691 
	14281.79757186778988 3450.300265132021195 14123.58331507190815 
	14281.79757187038558 3443.292573869523039 14088.91844000049969 
	14281.79757187062751 3440.472383295179498 14069.38171125015106 
	14281.79757187062205 3439.917130731095767 14065.26340787437948 
	14281.7975718706366 3439.12278232890867 14059.08087948324828 
	14281.79757187067844 3437.610510779698416 14045.65923234136426 
	14281.79757187077303 3436.057282765606033 14024.93314954845118 
	14281.79757187071118 3435.539135303450621 14004.15541896709146 
	14281.79757187071118 3435.746367197298241 13987.53322296135411 
	14281.79757187052383 3436.678753299915115 13962.61548537441558 
	14281.79757186992538 3441.234334029595175 13917.07469553022565 
	14281.79757186742427 3453.289086037784273 13864.25972299063505 
	14281.79757186636562 3467.711521161979363 13823.04649511265779 
	14281.79757186600546 3477.25471714431751 13800.00715177684833 
	14281.7975718652815 3492.851233680282803 13766.00725826589951 
	14281.79757185904418 3520.978848652788656 13717.28661776117588 
	14281.79757185291783 3562.551098902997182 13665.15889025121578 
	14281.79757184721893 3604.250895238230441 13624.48695269575546 
	14281.79757184547816 3643.286732464083798 13593.35727096867959 
	14281.79757183981019 3692.217781442715477 13561.75299737368914 
	14281.79757183248876 3752.289590256333668 13532.82328822245836 
	14281.79757181651075 3817.99388410704023 13512.557449822134 
	14281.79757180528395 3879.543237468654752 13502.10063487148545 
	14281.79757179335866 3935.643087363036102 13498.94953237687514 
	14281.79757178065302 3991.742727493394796 13502.10071170639276 
	14281.7975717639747 4053.292498453578901 13512.55667401569008 
	14281.79757174495899 4107.049671463133564 13529.13952191392309 
	14281.79757174010592 4152.787047510484626 13549.0958752840088 
	14281.79757173001781 4185.876202192505843 13566.58338442510649 
	14281.7975717194422 4217.565621123172605 13586.49554102834918 
	14281.79757170654011 4252.697635859315596 13612.42359114476494 
	14281.79757168093602 4289.93895487498321 13645.70410899296439 
	14281.79757164676448 4327.379719299565295 13687.60047494530227 
	14281.79757162391616 4359.894249263600614 13733.42534691835135 
	14281.79757154032814 4387.073365781749999 13782.602656081448 
	14281.7975714749391 4408.575865742426686 13834.51369752400751 
	14281.79757139120557 4421.537986241381077 13879.50725000816237 
	14281.79757136620174 4428.836875132799832 13916.20303507992139 
	14281.79757134346619 4432.759651066149672 13943.98844100982751 
	14281.79757131949009 4434.725033792359682 13967.28984154646423 
	14281.79757131190127 4435.413336700214131 13983.63942542783843 
	14281.79757130968937 4435.585440511701563 13991.81904661372937 
	14281.79757130913094 4435.628467897295195 13995.9094606365652 
	14281.79757130898361 4435.639224892367565 13997.95474317215485 
	14281.79757130894541 4435.641914140128392 13998.9773938735143 
	14281.79757130893449 4435.642682497838905 13999.56176705526013 
	14281.79757130893086 4435.642810558402743 13999.85395387053723 
	14281.79757130893267 4435.642810558233577 14000.00004727740634 
	0 
	
	0 
	0 
	81 0 0.001116071428571428509 0.002232142857142857019 0.004464285714285714038 0.008928571428571428076 0.01785714285714285615 0.02678571428571428423 0.0357142857142857123 0.05357142857142856845 0.07142857142857142461 0.08928571428571427382 0.1071428571428571369 0.125 0.1428571428571428492 0.1587301587301587213 0.1825396825396825295 0.1904761904761904656 0.2023809523809523836 0.2142857142857142738 0.238095238095238082 0.2619047619047618625 0.2857142857142856984 0.2976190476190476164 0.3095238095238095344 0.3214285714285713969 0.3333333333333333148 0.3392857142857143016 0.3452380952380952328 0.3571428571428570953 0.3630952380952380265 0.3690476190476190133 0.3809523809523809312 0.3928571428571428492 0.4047619047619047672 0.4166666666666666297 0.4285714285714285476 0.4444444444444444198 0.4603174603174602919 0.476190476190476164 0.4781746031746031411 0.4791666666666666297 0.4801587301587301182 0.4841269841269840724 0.4920634920634920362 0.5 0.5039682539682539542 0.5079365079365079083 0.5238095238095237249 0.5476190476190475609 0.5595238095238095344 0.5654761904761904656 0.5714285714285713969 0.5952380952380951218 0.6190476190476189577 0.6349206349206348854 0.650793650793650702 0.6666666666666666297 0.6904761904761904656 0.7142857142857141906 0.7321428571428569843 0.749999999999999889 0.7678571428571427937 0.7857142857142855874 0.8095238095238094234 0.8214285714285713969 0.8333333333333332593 0.8452380952380951218 0.8571428571428570953 0.875 0.8928571428571427937 0.9107142857142856984 0.9285714285714286031 0.9464285714285713969 0.9642857142857143016 0.9732142857142858094 0.9821428571428572063 0.9910714285714286031 0.9955357142857143016 0.9977678571428572063 0.9994419642857143016 0.9998604910714286031 
	0 
	0 
	0 
	F 1 F 0 F 1 F 0 } I I I I #
tcoedge-coedge $-1 -1 $-1 $14 $14 $18 $19 reversed $9 $20 -6.283185307179586232 -0 #
tcoedge-coedge $-1 -1 $-1 $21 $22 $11 $16 reversed $12 $23 -6.283185307179586232 -0 #
tedge-edge $-1 -1 $-1 $24 0 $24 6.283185307179586232 $15 $25 forward @7 unknown 0.0008026135228886380766 #
pcurve $-1 -1 $-1 0 forward { exppc nurbs 2 periodic 5 
	0 2 1.570796326794896558 2 3.141592653589793116 2 4.712388980384689674 2 6.283185307179586232 2 
	0 500 1 
	-500 500 0.707106781186543798 
	-500 0 1 
	-500 -500 0.7071067811865463515 
	0 -500 1 
	500 -500 0.7071067811865463515 
	500 0 1 
	500 500 0.707106781186543798 
	0 500 1 
	0 
	plane 14281.79757191538738 3935.642797989766223 14000.00000000000182 1 -3.637978807091713027e-15 0 0 0 -1 forward_v I I I I 
	} 0 0 #
tcoedge-coedge $-1 -1 $-1 $22 $21 $14 $19 forward $12 $26 0 6.283185307179586232 #
tedge-edge $-1 -1 $-1 $27 0 $27 6.283185307179586232 $18 $28 forward @7 unknown 0.0008026135224543594869 #
pcurve $-1 -1 $-1 0 forward { exppc nurbs 2 periodic 5 
	-6.283185307179586232 2 -4.712388980384689674 2 -3.141592653589793116 2 -1.570796326794896558 2 0 2 
	0 500 1 
	500 500 0.707106781186543798 
	500 0 1 
	500 -500 0.7071067811865463515 
	0 -500 1 
	-500 -500 0.7071067811865463515 
	-500 0 1 
	-500 500 0.707106781186543798 
	0 500 1 
	0 
	plane 14031.79757191538738 3935.642797989767132 14000.00000000000182 -1 3.637978807091713027e-15 -0 0 0 -1 reverse_v I I I I 
	} 0 0 #
coedge $-1 -1 $-1 $18 $15 $22 $29 reversed $12 $30 #
coedge $-1 -1 $-1 $15 $18 $21 $29 forward $12 $31 #
pcurve $-1 -1 $-1 0 forward { exppc nubs 1 periodic 2 
	-6.283185307179586232 1 -0 1 
	1 1 
	0 1 
	2.726396620975368931e-13 
	spline forward { ref 0 } I I I I 
	} 0 0 #
tvertex-vertex $-1 -1 $-1 $16 $32 4.89232880917642564e-05 #
ellipse-curve $-1 -1 $-1 14281.79757191538738 3935.642797989766223 14000.00000000000182 1 -3.637978807091713027e-15 0 1.818989403545856476e-12 500 0 1 I I #
pcurve $-1 -1 $-1 0 forward { exppc nubs 1 periodic 2 
	0 1 6.283185307179586232 1 
	0 0 
	1 0 
	4.4114023995510105e-13 
	spline forward { ref 0 } I I I I 
	} 0 0 #
tvertex-vertex $-1 -1 $-1 $19 $33 4.892315746193585707e-05 #
ellipse-curve $-1 -1 $-1 14031.79757191538738 3935.642797989767132 14000.00000000000182 1 -3.637978807091713027e-15 0 1.818989403545856476e-12 500 0 1 I I #
edge $-1 -1 $-1 $27 0 $24 1 $22 $34 forward @7 tangent #
pcurve $-1 -1 $-1 -1 $34 0 0 #
pcurve $-1 -1 $-1 1 $34 1 0 #
point $-1 -1 $-1 14281.7975719153892 4435.642797989766223 14000.00000000000182 #
point $-1 -1 $-1 14031.7975719153892 4435.642797989767132 14000.00000000000182 #
intcurve-curve $-1 -1 $-1 forward { parcur full nubs 3 open 2 
	0 3 1 3 
	14031.79757131954466 4435.642810558233577 14000.00004727740634 
	14115.1309046528786 4435.642810558232668 14000.00004727740634 
	14198.46423797559873 4435.642810558233577 14000.00004727740634 
	14281.79757130893267 4435.642810558233577 14000.00004727740634 
	0 
	
	spline forward { ref 0 } I I I I 
	null_surface 
	nubs 1 open 2 
	0 1 1 1 
	0 0 
	0 1 
	
	nullbs 
	I I 
	0 
	0 
	0 
	surf1 } I I #
End-of-ACIS-data 