700 0 1 0           
4 LibG 20 ASM 224.0.1.65535 NT 24 Wed Jul 17 12:52:14 2019 
1000 9.999999999999999547e-07 1.000000000000000036e-10 
body $-1 -1 $-1 $1 $-1 $2 #
lump $-1 -1 $-1 $-1 $3 $0 #
transform $-1 -1 1 0 0 0 1 0 0 0 1 0 0 0 1 no_rotate no_reflect no_shear #
shell $-1 -1 $-1 $-1 $-1 $4 $-1 $1 #
face $-1 -1 $-1 $5 $6 $3 $-1 $7 forward single #
face $-1 -1 $-1 $8 $9 $3 $-1 $10 reversed single #
loop $-1 -1 $-1 $-1 $11 $4 #
plane-surface $-1 -1 $-1 15781.79757191538738 3935.642797989760766 14000.00000000000182 1 -3.637978807091713027e-15 0 0 0 -1 forward_v I I I I #
face $-1 -1 $-1 $-1 $12 $3 $-1 $13 forward single #
loop $-1 -1 $-1 $-1 $14 $5 #
plane-surface $-1 -1 $-1 15531.79757191538738 3935.642797989761675 14000.00000000000182 1 -3.637978807091713027e-15 0 0 0 -1 forward_v I I I I #
tcoedge-coedge $-1 -1 $-1 $11 $11 $15 $16 forward $6 $17 0 6.283185307179586232 #
loop $-1 -1 $-1 $-1 $18 $8 #
spline-surface $-1 -1 $-1 forward { exactsur full nubs 3 3 periodic open none none 84 2 
	0 3 0.001116071428571428509 1 0.002232142857142857019 1 0.004464285714285714038 1 0.008928571428571428076 1 
	0.01785714285714285615 1 0.02678571428571428423 1 0.0357142857142857123 1 0.05357142857142856845 1 0.07142857142857142461 1 
	0.08928571428571427382 1 0.1071428571428571369 1 0.125 1 0.1428571428571428492 1 0.1587301587301587213 1 
	0.1825396825396825295 1 0.1904761904761904656 1 0.2023809523809523836 1 0.2142857142857142738 1 0.238095238095238082 1 
	0.2619047619047618625 1 0.2857142857142856984 1 0.2976190476190476164 1 0.3095238095238095344 1 0.3214285714285713969 1 
	0.3333333333333333148 1 0.3392857142857143016 1 0.3452380952380952328 1 0.3571428571428570953 1 0.3630952380952380265 1 
	0.3690476190476190133 1 0.3809523809523809312 1 0.3928571428571428492 1 0.4047619047619047672 1 0.4166666666666666297 1 
	0.4285714285714285476 1 0.4444444444444444198 1 0.4603174603174602919 1 0.476190476190476164 1 0.4781746031746031411 1 
	0.4791666666666666297 1 0.4801587301587301182 1 0.4841269841269840724 1 0.4920634920634920362 1 0.5 1 
	0.5039682539682539542 1 0.5079365079365079083 1 0.5238095238095237249 1 0.5476190476190475609 1 0.5595238095238095344 1 
	0.5654761904761904656 1 0.5714285714285713969 1 0.5952380952380951218 1 0.6190476190476189577 1 0.6349206349206348854 1 
	0.650793650793650702 1 0.6666666666666666297 1 0.6904761904761904656 1 0.7142857142857141906 1 0.7321428571428569843 1 
	0.749999999999999889 1 0.7678571428571427937 1 0.7857142857142855874 1 0.8095238095238094234 1 0.8214285714285713969 1 
	0.8333333333333332593 1 0.8452380952380951218 1 0.8571428571428570953 1 0.875 1 0.8928571428571427937 1 
	0.9107142857142856984 1 0.9285714285714286031 1 0.9464285714285713969 1 0.9642857142857143016 1 0.9732142857142858094 1 
	0.9821428571428572063 1 0.9910714285714286031 1 0.9955357142857143016 1 0.9977678571428572063 1 0.9988839285714286031 1 
	0.9994419642857143016 1 0.9997209821428572063 1 0.9998604910714286031 1 1 3 
	0 3 1 3 
	15531.79757175232407 4435.642811209498177 14000.00004962935418 
	15531.79757175232953 4435.642811208055718 14001.16879688413974 
	15531.7975717524514 4435.634615306462365 14003.50629129312438 
	15531.79757175255509 4435.585441100529351 14008.18105024860051 
	15531.79757175310988 4435.413337204870004 14016.36067146927599 
	15531.79757175486156 4434.725033734617682 14032.71025578993613 
	15531.79757176047679 4432.759650083065935 14056.01165755456168 
	15531.7975717656991 4428.836871551757213 14083.79706573138537 
	15531.79757177150168 4421.537984076666362 14120.49285194893309 
	15531.79757179022999 4408.575844996941669 14165.48641857782241 
	15531.79757180546039 4387.073367418895032 14217.39745855979345 
	15531.79757182240974 4359.894195553456484 14266.57481301828739 
	15531.7975718363632 4327.379474418457903 14312.39940477924029 
	15531.79757185229937 4289.939024767500996 14354.2963007849412 
	15531.79757185655944 4249.593979339953876 14390.3495735184697 
	15531.79757186598908 4200.610234123317241 14425.56876033600929 
	15531.79757186830102 4156.693793866378655 14449.48396334568679 
	15531.79757187050927 4114.558373666793159 14467.24402519122486 
	15531.79757187200448 4083.157843721412519 14478.23174749369173 
	15531.79757187484392 4034.956829929392825 14491.14829437878689 
	15531.79757187801988 3973.147711110992077 14500.46606977290685 
	15531.79757188366057 3898.137884700426184 14500.46555033288678 
	15531.79757188784242 3836.328574814894182 14491.14873825552786 
	15531.79757188882104 3788.12768635130351 14478.23201653360593 
	15531.79757189089105 3752.8017477102062 14465.87146881460103 
	15531.79757189239717 3718.49843945420298 14450.90481887810529 
	15531.79757189402335 3690.924289998360109 14436.33151309801542 
	15531.7975718944781 3669.564643656130556 14423.46092886250881 
	15531.79757189485099 3648.701067437717938 14409.80087977693984 
	15531.79757189554039 3628.625734533850391 14394.98467820132464 
	15531.79757189598604 3609.422920966507718 14379.07436383772983 
	15531.79757189626616 3590.828302927289315 14362.45732461089574 
	15531.79757189730844 3568.774727828120376 14340.40380540131446 
	15531.79757189803058 3544.362198745052865 14312.03585353295966 
	15531.79757189905831 3522.137752771993746 14281.92292749145054 
	15531.79757189938755 3502.226016898482158 14250.23327763298221 
	15531.79757190014971 3482.794620805354043 14213.46783749590759 
	15531.79757190083001 3465.016767757925209 14171.29381103324704 
	15531.79757190114651 3450.300263495756099 14123.58331312264454 
	15531.79757190174678 3443.292572492913223 14088.91843749084001 
	15531.79757190179953 3440.472381942487118 14069.38170868780071 
	15531.79757190179953 3439.91712937868715 14065.26340531160713 
	15531.79757190180317 3439.122780978999799 14059.08087691536275 
	15531.79757190181954 3437.610509449236361 14045.65922973635679 
	15531.79757190186137 3436.05728148578919 14024.93314684866891 
	15531.79757190186501 3435.53913408860717 14004.15541615481015 
	15531.79757190186865 3435.746365992186384 13987.53322013557772 
	15531.79757190182863 3436.678752128780161 13962.61548249164298 
	15531.7975719017013 3441.234333008107569 13917.07469251371731 
	15531.7975719010974 3453.289085285683996 13864.25971971991021 
	15531.79757190083001 3467.711520485595429 13823.04649179785702 
	15531.79757190073724 3477.254716509236914 13800.00714846009214 
	15531.79757190054806 3492.851233129827051 13766.00725496734231 
	15531.79757189890006 3520.978848721605573 13717.28661472023668 
	15531.79757189726297 3562.551099414783039 13665.15888748443285 
	15531.79757189573138 3604.250896150626886 13624.48695034224147 
	15531.7975718952639 3643.286733522973009 13593.35726875473119 
	15531.79757189372867 3692.21778283983258 13561.7529957580191 
	15531.79757189174961 3752.289592171330696 13532.82328750987472 
	15531.79757188742769 3817.993886509610093 13512.55745031797778 
	15531.79757188438998 3879.543240125120064 13502.10063605564574 
	15531.79757188116855 3935.64309012985359 13498.94953418377918 
	15531.79757187773248 3991.742730303660665 13502.10071405062808 
	15531.79757187321411 4053.292501195192017 13512.55667708284091 
	15531.79757186810093 4107.049674058298478 13529.13952567840533 
	15531.79757186679853 4152.787050088932119 13549.09587908755748 
	15531.79757186408642 4185.876204704326483 13566.58338835120958 
	15531.79757186126881 4217.565623573248558 13586.49554499747501 
	15531.79757185782364 4252.697638225441551 13612.42359514956843 
	15531.79757185099334 4289.938957080662476 13645.70411299532316 
	15531.79757184188384 4327.37972131288825 13687.60047885299355 
	15531.79757183580296 4359.894251142165558 13733.42535075239721 
	15531.79757181359128 4387.073367244443943 13782.60265954471288 
	15531.79757179623812 4408.575866925765695 13834.51370066571326 
	15531.79757177404645 4421.537987127537235 13879.50725273136413 
	15531.79757176743624 4428.836875945203246 13916.20303768215308 
	15531.79757176142084 4432.759651808461967 13943.98844350698164 
	15531.79757175509985 4434.725034470387072 13967.28984394017243 
	15531.7975717531026 4435.41333735846456 13983.63942779088393 
	15531.79757175251689 4435.58544116466237 13991.81904896832748 
	15531.79757175236773 4435.62846854899999 13995.90946298920971 
	15531.79757175233681 4435.639225543750399 13997.95474552429005 
	15531.79757175232407 4435.641914791430281 13998.97739622552399 
	15531.79757175232226 4435.642683149122604 13999.5617694072389 
	15531.79757175232407 4435.642811209678257 13999.85395622250508 
	15531.79757175232407 4435.642811209498177 14000.00004962935418 
	15615.13090508565801 4435.642811209497268 14000.00004962935418 
	15615.13090508566347 4435.642811208054809 14001.16879688413974 
	15615.13090508578534 4435.634615306461455 14003.50629129312438 
	15615.13090508588903 4435.585441100528442 14008.18105024860051 
	15615.13090508644382 4435.413337204869094 14016.36067146927599 
	15615.1309050881955 4434.725033734616773 14032.71025578993613 
	15615.13090509381072 4432.759650083065026 14056.01165755456168 
	15615.13090509903304 4428.836871551756303 14083.79706573138537 
	15615.13090510483562 4421.537984076665452 14120.49285194893309 
	15615.13090512356393 4408.575844996940759 14165.48641857782241 
	15615.13090513879433 4387.073367418894122 14217.39745855979345 
	15615.13090515574368 4359.894195553455575 14266.57481301828739 
	15615.13090516969714 4327.379474418456994 14312.39940477924029 
	15615.13090518563331 4289.939024767500086 14354.2963007849412 
	15615.13090518989338 4249.593979339952966 14390.3495735184697 
	15615.13090519932302 4200.610234123316332 14425.56876033600929 
	15615.13090520163496 4156.693793866377746 14449.48396334568679 
	15615.13090520384321 4114.558373666792249 14467.24402519122486 
	15615.13090520533842 4083.157843721412064 14478.23174749369173 
	15615.13090520817786 4034.95682992939237 14491.14829437878689 
	15615.13090521135382 3973.147711110991622 14500.46606977290685 
	15615.13090521699451 3898.13788470042573 14500.46555033288678 
	15615.13090522117636 3836.328574814893727 14491.14873825552786 
	15615.13090522215498 3788.127686351303055 14478.23201653360593 
	15615.13090522422499 3752.801747710205746 14465.87146881460103 
	15615.13090522573111 3718.498439454202526 14450.90481887810529 
	15615.13090522735729 3690.924289998359654 14436.33151309801542 
	15615.13090522781204 3669.564643656130102 14423.46092886250881 
	15615.13090522818493 3648.701067437717484 14409.80087977693984 
	15615.13090522887433 3628.625734533849936 14394.98467820132464 
	15615.13090522931998 3609.422920966507263 14379.07436383772983 
	15615.1309052296001 3590.82830292728886 14362.45732461089574 
	15615.13090523064238 3568.774727828119921 14340.40380540131446 
	15615.13090523136452 3544.36219874505241 14312.03585353295966 
	15615.13090523239225 3522.137752771993291 14281.92292749145054 
	15615.13090523272149 3502.226016898481703 14250.23327763298221 
	15615.13090523348365 3482.794620805353588 14213.46783749590759 
	15615.13090523416395 3465.016767757924754 14171.29381103324704 
	15615.13090523448045 3450.300263495755644 14123.58331312264454 
	15615.13090523508072 3443.292572492912768 14088.91843749084001 
	15615.13090523513347 3440.472381942486663 14069.38170868780071 
	15615.13090523513347 3439.917129378686695 14065.26340531160713 
	15615.13090523513711 3439.122780978999344 14059.08087691536275 
	15615.13090523515348 3437.610509449235906 14045.65922973635679 
	15615.13090523519531 3436.057281485788735 14024.93314684866891 
	15615.13090523519895 3435.539134088606716 14004.15541615481015 
	15615.13090523520259 3435.746365992185929 13987.53322013557772 
	15615.13090523516257 3436.678752128779706 13962.61548249164298 
	15615.13090523503524 3441.234333008107114 13917.07469251371731 
	15615.13090523443134 3453.289085285683541 13864.25971971991021 
	15615.13090523416395 3467.711520485594974 13823.04649179785702 
	15615.13090523407118 3477.254716509236459 13800.00714846009214 
	15615.130905233882 3492.851233129826596 13766.00725496734231 
	15615.130905232234 3520.978848721605118 13717.28661472023668 
	15615.13090523059691 3562.551099414782584 13665.15888748443285 
	15615.13090522906532 3604.250896150626431 13624.48695034224147 
	15615.13090522859784 3643.286733522972554 13593.35726875473119 
	15615.13090522706261 3692.217782839832125 13561.7529957580191 
	15615.13090522508355 3752.289592171330241 13532.82328750987472 
	15615.13090522076163 3817.993886509609638 13512.55745031797778 
	15615.13090521772392 3879.54324012511961 13502.10063605564574 
	15615.13090521450249 3935.643090129853135 13498.94953418377918 
	15615.13090521106642 3991.74273030366021 13502.10071405062808 
	15615.13090520654805 4053.292501195191562 13512.55667708284091 
	15615.13090520143487 4107.049674058297569 13529.13952567840533 
	15615.13090520013247 4152.78705008893121 13549.09587908755748 
	15615.13090519742036 4185.876204704325573 13566.58338835120958 
	15615.13090519460275 4217.565623573247649 13586.49554499747501 
	15615.13090519115758 4252.697638225440642 13612.42359514956843 
	15615.13090518432728 4289.938957080661567 13645.70411299532316 
	15615.13090517521778 4327.379721312887341 13687.60047885299355 
	15615.13090516913689 4359.894251142164649 13733.42535075239721 
	15615.13090514692522 4387.073367244443034 13782.60265954471288 
	15615.13090512957206 4408.575866925764785 13834.51370066571326 
	15615.13090510738039 4421.537987127536326 13879.50725273136413 
	15615.13090510077018 4428.836875945202337 13916.20303768215308 
	15615.13090509475478 4432.759651808461058 13943.98844350698164 
	15615.13090508843379 4434.725034470386163 13967.28984394017243 
	15615.13090508643654 4435.41333735846365 13983.63942779088393 
	15615.13090508585083 4435.585441164661461 13991.81904896832748 
	15615.13090508570167 4435.628468548999081 13995.90946298920971 
	15615.13090508567075 4435.63922554374949 13997.95474552429005 
	15615.13090508565801 4435.641914791429372 13998.97739622552399 
	15615.1309050856562 4435.642683149121694 13999.5617694072389 
	15615.13090508565801 4435.642811209677348 13999.85395622250508 
	15615.13090508565801 4435.642811209497268 14000.00004962935418 
	15698.46423841635988 4435.642811209496358 14000.00004962935418 
	15698.46423841636533 4435.642811208054809 14001.16879688413974 
	15698.46423841649084 4435.634615306460546 14003.50629129312438 
	15698.46423841659634 4435.585441100527532 14008.18105024860051 
	15698.46423841715841 4435.413337204867275 14016.36067146927599 
	15698.4642384189392 4434.725033734615863 14032.71025578993613 
	15698.46423842465083 4432.759650083063207 14056.01165755456168 
	15698.46423842995682 4428.836871551755394 14083.79706573138537 
	15698.46423843585399 4421.537984076663633 14120.49285194893309 
	15698.46423845488789 4408.57584499693985 14165.48641857782241 
	15698.46423847036021 4387.073367418894122 14217.39745855979345 
	15698.46423848758423 4359.894195553455575 14266.57481301828739 
	15698.46423850176143 4327.379474418457903 14312.39940477924029 
	15698.46423851795589 4289.939024767500996 14354.2963007849412 
	15698.46423852228327 4249.593979339953876 14390.3495735184697 
	15698.4642385318657 4200.610234123317241 14425.56876033600929 
	15698.46423853421584 4156.693793866378655 14449.48396334568679 
	15698.46423853645865 4114.558373666793159 14467.24402519122486 
	15698.46423853797933 4083.157843721412974 14478.23174749369173 
	15698.46423854086061 4034.95682992939328 14491.14829437878689 
	15698.46423854408931 3973.147711110992532 14500.46606977290685 
	15698.46423854981913 3898.137884700426639 14500.46555033288678 
	15698.46423855406829 3836.328574814894637 14491.14873825552786 
	15698.46423855506146 3788.127686351303964 14478.23201653360593 
	15698.46423855716421 3752.801747710206655 14465.87146881460103 
	15698.46423855869398 3718.498439454203435 14450.90481887810529 
	15698.46423856034562 3690.924289998360564 14436.33151309801542 
	15698.46423856080764 3669.564643656131011 14423.46092886250881 
	15698.46423856118781 3648.701067437718393 14409.80087977693984 
	15698.4642385618863 3628.625734533850846 14394.98467820132464 
	15698.46423856233741 3609.422920966508173 14379.07436383772983 
	15698.46423856262118 3590.828302927289769 14362.45732461089574 
	15698.46423856368165 3568.774727828120376 14340.40380540131446 
	15698.46423856441288 3544.36219874505332 14312.03585353295966 
	15698.4642385654588 3522.137752771993746 14281.92292749145054 
	15698.46423856579167 3502.226016898482612 14250.23327763298221 
	15698.46423856656838 3482.794620805354043 14213.46783749590759 
	15698.4642385672596 3465.016767757925663 14171.29381103324704 
	15698.46423856757792 3450.300263495756553 14123.58331312264454 
	15698.46423856819274 3443.292572492913678 14088.91843749084001 
	15698.46423856824367 3440.472381942487573 14069.38170868780071 
	15698.46423856824367 3439.917129378687605 14065.26340531160713 
	15698.46423856824731 3439.122780979000254 14059.08087691536275 
	15698.4642385682655 3437.610509449236815 14045.65922973635679 
	15698.46423856831098 3436.057281485789645 14024.93314684866891 
	15698.46423856831461 3435.539134088607625 14004.15541615481015 
	15698.46423856831825 3435.746365992186838 13987.53322013557772 
	15698.46423856828005 3436.678752128780161 13962.61548249164298 
	15698.4642385681509 3441.234333008107569 13917.07469251371731 
	15698.46423856753427 3453.28908528568445 13864.25971971991021 
	15698.46423856726142 3467.711520485594974 13823.04649179785702 
	15698.46423856717047 3477.254716509236914 13800.00714846009214 
	15698.46423856697766 3492.851233129826596 13766.00725496734231 
	15698.46423856530419 3520.978848721605573 13717.28661472023668 
	15698.46423856364163 3562.551099414782129 13665.15888748443285 
	15698.46423856208094 3604.250896150626431 13624.48695034224147 
	15698.46423856160982 3643.286733522972554 13593.35726875473119 
	15698.46423856004731 3692.217782839832125 13561.7529957580191 
	15698.4642385580355 3752.289592171329787 13532.82328750987472 
	15698.46423855364446 3817.993886509609183 13512.55745031797778 
	15698.46423855055764 3879.5432401251187 13502.10063605564574 
	15698.46423854728528 3935.643090129853135 13498.94953418377918 
	15698.46423854379464 3991.742730303659755 13502.10071405062808 
	15698.46423853920533 4053.292501195192017 13512.55667708284091 
	15698.46423853400483 4107.049674058298478 13529.13952567840533 
	15698.46423853268243 4152.787050088932119 13549.09587908755748 
	15698.46423852992848 4185.876204704325573 13566.58338835120958 
	15698.46423852706357 4217.565623573248558 13586.49554499747501 
	15698.46423852356384 4252.697638225440642 13612.42359514956843 
	15698.46423851662621 4289.938957080661567 13645.70411299532316 
	15698.46423850737119 4327.379721312887341 13687.60047885299355 
	15698.46423850119027 4359.894251142164649 13733.42535075239721 
	15698.46423847862388 4387.073367244442125 13782.60265954471288 
	15698.46423846098878 4408.575866925765695 13834.51370066571326 
	15698.46423843843877 4421.537987127536326 13879.50725273136413 
	15698.46423843172124 4428.836875945202337 13916.20303768215308 
	15698.46423842560944 4432.759651808460148 13943.98844350698164 
	15698.4642384191884 4434.725034470386163 13967.28984394017243 
	15698.46423841715477 4435.413337358462741 13983.63942779088393 
	15698.46423841656542 4435.585441164661461 13991.81904896832748 
	15698.46423841640899 4435.628468548999081 13995.90946298920971 
	15698.46423841637443 4435.63922554374949 13997.95474552429005 
	15698.4642384163617 4435.641914791429372 13998.97739622552399 
	15698.4642384163617 4435.642683149118966 13999.5617694072389 
	15698.46423841635806 4435.642811209676438 13999.85395622250508 
	15698.46423841635988 4435.642811209496358 14000.00004962935418 
	15781.79757174969382 4435.642811209496358 14000.00004962935418 
	15781.79757174969927 4435.642811208054809 14001.16879688413974 
	15781.79757174982478 4435.634615306460546 14003.50629129312438 
	15781.79757174993028 4435.585441100527532 14008.18105024860051 
	15781.79757175049235 4435.413337204867275 14016.36067146927599 
	15781.79757175227314 4434.725033734615863 14032.71025578993613 
	15781.79757175798477 4432.759650083063207 14056.01165755456168 
	15781.79757176329076 4428.836871551755394 14083.79706573138537 
	15781.79757176918793 4421.537984076663633 14120.49285194893309 
	15781.79757178822183 4408.57584499693985 14165.48641857782241 
	15781.79757180369415 4387.073367418894122 14217.39745855979345 
	15781.79757182091817 4359.894195553455575 14266.57481301828739 
	15781.79757183509537 4327.379474418457903 14312.39940477924029 
	15781.79757185128983 4289.939024767500996 14354.2963007849412 
	15781.79757185561721 4249.593979339953876 14390.3495735184697 
	15781.79757186519964 4200.610234123317241 14425.56876033600929 
	15781.79757186754978 4156.693793866378655 14449.48396334568679 
	15781.79757186979259 4114.558373666793159 14467.24402519122486 
	15781.79757187131327 4083.157843721412519 14478.23174749369173 
	15781.79757187419455 4034.956829929392825 14491.14829437878689 
	15781.79757187742325 3973.147711110992077 14500.46606977290685 
	15781.79757188315307 3898.137884700426184 14500.46555033288678 
	15781.79757188740223 3836.328574814894182 14491.14873825552786 
	15781.7975718883954 3788.12768635130351 14478.23201653360593 
	15781.79757189049815 3752.8017477102062 14465.87146881460103 
	15781.79757189202792 3718.49843945420298 14450.90481887810529 
	15781.79757189367956 3690.924289998360109 14436.33151309801542 
	15781.79757189414158 3669.564643656130556 14423.46092886250881 
	15781.79757189452175 3648.701067437717938 14409.80087977693984 
	15781.79757189522024 3628.625734533850391 14394.98467820132464 
	15781.79757189567135 3609.422920966507718 14379.07436383772983 
	15781.79757189595512 3590.828302927289315 14362.45732461089574 
	15781.79757189701559 3568.774727828119921 14340.40380540131446 
	15781.79757189774682 3544.362198745052865 14312.03585353295966 
	15781.79757189879274 3522.137752771993291 14281.92292749145054 
	15781.79757189912561 3502.226016898482158 14250.23327763298221 
	15781.79757189990232 3482.794620805353588 14213.46783749590759 
	15781.79757190059354 3465.016767757925209 14171.29381103324704 
	15781.79757190091186 3450.300263495756099 14123.58331312264454 
	15781.79757190152668 3443.292572492913223 14088.91843749084001 
	15781.79757190157761 3440.472381942487118 14069.38170868780071 
	15781.79757190157761 3439.91712937868715 14065.26340531160713 
	15781.79757190158125 3439.122780978999799 14059.08087691536275 
	15781.79757190159944 3437.610509449236361 14045.65922973635679 
	15781.79757190164491 3436.05728148578919 14024.93314684866891 
	15781.79757190164855 3435.53913408860717 14004.15541615481015 
	15781.79757190165219 3435.746365992186384 13987.53322013557772 
	15781.79757190161399 3436.678752128779706 13962.61548249164298 
	15781.79757190148484 3441.234333008107114 13917.07469251371731 
	15781.79757190086821 3453.289085285683996 13864.25971971991021 
	15781.79757190059536 3467.711520485594519 13823.04649179785702 
	15781.79757190050441 3477.254716509236459 13800.00714846009214 
	15781.7975719003116 3492.851233129826142 13766.00725496734231 
	15781.79757189863813 3520.978848721605118 13717.28661472023668 
	15781.79757189697557 3562.551099414781675 13665.15888748443285 
	15781.79757189541488 3604.250896150625977 13624.48695034224147 
	15781.79757189494376 3643.286733522972099 13593.35726875473119 
	15781.79757189338125 3692.217782839831671 13561.7529957580191 
	15781.79757189136944 3752.289592171329332 13532.82328750987472 
	15781.7975718869784 3817.993886509608728 13512.55745031797778 
	15781.79757188389158 3879.543240125118245 13502.10063605564574 
	15781.79757188061922 3935.643090129852681 13498.94953418377918 
	15781.79757187712858 3991.7427303036593 13502.10071405062808 
	15781.79757187253927 4053.292501195191562 13512.55667708284091 
	15781.79757186733877 4107.049674058298478 13529.13952567840533 
	15781.79757186601637 4152.787050088932119 13549.09587908755748 
	15781.79757186326242 4185.876204704325573 13566.58338835120958 
	15781.79757186039751 4217.565623573248558 13586.49554499747501 
	15781.79757185689778 4252.697638225440642 13612.42359514956843 
	15781.79757184996015 4289.938957080661567 13645.70411299532316 
	15781.79757184070513 4327.379721312887341 13687.60047885299355 
	15781.79757183452421 4359.894251142164649 13733.42535075239721 
	15781.79757181195782 4387.073367244442125 13782.60265954471288 
	15781.79757179432272 4408.575866925765695 13834.51370066571326 
	15781.79757177177271 4421.537987127536326 13879.50725273136413 
	15781.79757176505518 4428.836875945202337 13916.20303768215308 
	15781.79757175894338 4432.759651808460148 13943.98844350698164 
	15781.79757175252234 4434.725034470386163 13967.28984394017243 
	15781.79757175048871 4435.413337358462741 13983.63942779088393 
	15781.79757174989936 4435.585441164661461 13991.81904896832748 
	15781.79757174974293 4435.628468548999081 13995.90946298920971 
	15781.79757174970837 4435.63922554374949 13997.95474552429005 
	15781.79757174969563 4435.641914791429372 13998.97739622552399 
	15781.79757174969563 4435.642683149118966 13999.5617694072389 
	15781.797571749692 4435.642811209676438 13999.85395622250508 
	15781.79757174969382 4435.642811209496358 14000.00004962935418 
	0 
	
	0 
	0 
	81 0 0.001116071428571428509 0.002232142857142857019 0.004464285714285714038 0.008928571428571428076 0.01785714285714285615 0.02678571428571428423 0.0357142857142857123 0.05357142857142856845 0.07142857142857142461 0.08928571428571427382 0.1071428571428571369 0.125 0.1428571428571428492 0.1587301587301587213 0.1825396825396825295 0.1904761904761904656 0.2023809523809523836 0.2142857142857142738 0.238095238095238082 0.2619047619047618625 0.2857142857142856984 0.2976190476190476164 0.3095238095238095344 0.3214285714285713969 0.3333333333333333148 0.3392857142857143016 0.3452380952380952328 0.3571428571428570953 0.3630952380952380265 0.3690476190476190133 0.3809523809523809312 0.3928571428571428492 0.4047619047619047672 0.4166666666666666297 0.4285714285714285476 0.4444444444444444198 0.4603174603174602919 0.476190476190476164 0.4781746031746031411 0.4791666666666666297 0.4801587301587301182 0.4841269841269840724 0.4920634920634920362 0.5 0.5039682539682539542 0.5079365079365079083 0.5238095238095237249 0.5476190476190475609 0.5595238095238095344 0.5654761904761904656 0.5714285714285713969 0.5952380952380951218 0.6190476190476189577 0.6349206349206348854 0.650793650793650702 0.6666666666666666297 0.6904761904761904656 0.7142857142857141906 0.7321428571428569843 0.749999999999999889 0.7678571428571427937 0.7857142857142855874 0.8095238095238094234 0.8214285714285713969 0.8333333333333332593 0.8452380952380951218 0.8571428571428570953 0.875 0.8928571428571427937 0.9107142857142856984 0.9285714285714286031 0.9464285714285713969 0.9642857142857143016 0.9732142857142858094 0.9821428571428572063 0.9910714285714286031 0.9955357142857143016 0.9977678571428572063 0.9994419642857143016 0.9998604910714286031 
	0 
	0 
	0 
	F 1 F 0 F 1 F 0 } I I I I #
tcoedge-coedge $-1 -1 $-1 $14 $14 $18 $19 reversed $9 $20 -6.283185307179586232 -0 #
tcoedge-coedge $-1 -1 $-1 $21 $22 $11 $16 reversed $12 $23 -6.283185307179586232 -0 #
tedge-edge $-1 -1 $-1 $24 0 $24 6.283185307179586232 $15 $25 forward @7 unknown 0.0008051204803595331727 #
pcurve $-1 -1 $-1 0 forward { exppc nurbs 2 periodic 5 
	0 2 1.570796326794896558 2 3.141592653589793116 2 4.712388980384689674 2 6.283185307179586232 2 
	0 500 1 
	-500 500 0.707106781186543798 
	-500 0 1 
	-500 -500 0.7071067811865463515 
	0 -500 1 
	500 -500 0.7071067811865463515 
	500 0 1 
	500 500 0.707106781186543798 
	0 500 1 
	0 
	plane 15781.79757191538738 3935.642797989760766 14000.00000000000182 1 -3.637978807091713027e-15 0 0 0 -1 forward_v I I I I 
	} 0 0 #
tcoedge-coedge $-1 -1 $-1 $22 $21 $14 $19 forward $12 $26 0 6.283185307179586232 #
tedge-edge $-1 -1 $-1 $27 0 $27 6.283185307179586232 $18 $28 forward @7 unknown 0.0008051204820524047101 #
pcurve $-1 -1 $-1 0 forward { exppc nurbs 2 periodic 5 
	-6.283185307179586232 2 -4.712388980384689674 2 -3.141592653589793116 2 -1.570796326794896558 2 0 2 
	0 500 1 
	500 500 0.707106781186543798 
	500 0 1 
	500 -500 0.7071067811865463515 
	0 -500 1 
	-500 -500 0.7071067811865463515 
	-500 0 1 
	-500 500 0.707106781186543798 
	0 500 1 
	0 
	plane 15531.79757191538738 3935.642797989761675 14000.00000000000182 -1 3.637978807091713027e-15 -0 0 0 -1 reverse_v I I I I 
	} 0 0 #
coedge $-1 -1 $-1 $18 $15 $22 $29 reversed $12 $30 #
coedge $-1 -1 $-1 $15 $18 $21 $29 forward $12 $31 #
pcurve $-1 -1 $-1 0 forward { exppc nubs 1 periodic 2 
	-6.283185307179586232 1 -0 1 
	1 1 
	0 1 
	2.726396620975368931e-13 
	spline forward { ref 0 } I I I I 
	} 0 0 #
tvertex-vertex $-1 -1 $-1 $16 $32 5.136012565284739639e-05 #
ellipse-curve $-1 -1 $-1 15781.79757191538738 3935.642797989760766 14000.00000000000182 1 -3.637978807091713027e-15 0 1.818989403545856476e-12 500 0 1 I I #
pcurve $-1 -1 $-1 0 forward { exppc nubs 1 periodic 2 
	0 1 6.283185307179586232 1 
	0 0 
	1 0 
	4.4114023995510105e-13 
	spline forward { ref 0 } I I I I 
	} 0 0 #
tvertex-vertex $-1 -1 $-1 $19 $33 5.136011746868861494e-05 #
ellipse-curve $-1 -1 $-1 15531.79757191538738 3935.642797989761675 14000.00000000000182 1 -3.637978807091713027e-15 0 1.818989403545856476e-12 500 0 1 I I #
edge $-1 -1 $-1 $27 0 $24 1 $22 $34 forward @7 tangent #
pcurve $-1 -1 $-1 -1 $34 0 0 #
pcurve $-1 -1 $-1 1 $34 1 0 #
point $-1 -1 $-1 15781.7975719153892 4435.642797989760766 14000.00000000000182 #
point $-1 -1 $-1 15531.7975719153892 4435.642797989761675 14000.00000000000182 #
intcurve-curve $-1 -1 $-1 forward { parcur full nubs 3 open 2 
	0 3 1 3 
	15531.79757175232407 4435.642811209498177 14000.00004962935418 
	15615.13090508565801 4435.642811209497268 14000.00004962935418 
	15698.46423841635988 4435.642811209496358 14000.00004962935418 
	15781.79757174969382 4435.642811209496358 14000.00004962935418 
	0 
	
	spline forward { ref 0 } I I I I 
	null_surface 
	nubs 1 open 2 
	0 1 1 1 
	0 0 
	0 1 
	
	nullbs 
	I I 
	0 
	0 
	0 
	surf1 } I I #
End-of-ACIS-data 