700 0 1 0           
4 LibG 20 ASM 224.0.1.65535 NT 24 Wed Jul 17 12:52:11 2019 
1000 9.999999999999999547e-07 1.000000000000000036e-10 
body $-1 -1 $-1 $1 $-1 $2 #
lump $-1 -1 $-1 $-1 $3 $0 #
transform $-1 -1 1 0 0 0 1 0 0 0 1 0 0 0 1 no_rotate no_reflect no_shear #
shell $-1 -1 $-1 $-1 $-1 $4 $-1 $1 #
face $-1 -1 $-1 $5 $6 $3 $-1 $7 forward single #
face $-1 -1 $-1 $8 $9 $3 $-1 $10 reversed single #
loop $-1 -1 $-1 $-1 $11 $4 #
plane-surface $-1 -1 $-1 281.797571915386925 3935.642797989817154 14000.00000000000182 1 -3.637978807091713027e-15 0 0 0 -1 forward_v I I I I #
face $-1 -1 $-1 $-1 $12 $3 $-1 $13 forward single #
loop $-1 -1 $-1 $-1 $14 $5 #
plane-surface $-1 -1 $-1 31.79757191538692496 3935.642797989818064 14000.00000000000182 1 -3.637978807091713027e-15 0 0 0 -1 forward_v I I I I #
tcoedge-coedge $-1 -1 $-1 $11 $11 $15 $16 forward $6 $17 0 6.283185307179586232 #
loop $-1 -1 $-1 $-1 $18 $8 #
spline-surface $-1 -1 $-1 forward { exactsur full nubs 3 3 periodic open none none 95 2 
	0 3 0.004464285714285714038 1 0.008928571428571428076 1 0.01785714285714285615 1 0.02678571428571428423 1 
	0.0357142857142857123 1 0.05357142857142856845 1 0.0625 1 0.07142857142857142461 1 0.08928571428571427382 1 
	0.09821428571428569843 1 0.1071428571428571369 1 0.125 1 0.1428571428571428492 1 0.1587301587301587213 1 
	0.1746031746031745935 1 0.1825396825396825295 1 0.1865079365079365115 1 0.1904761904761904656 1 0.2142857142857142738 1 
	0.226190476190476164 1 0.232142857142857123 1 0.238095238095238082 1 0.2499999999999999722 1 0.2529761904761904656 1 
	0.2559523809523809312 1 0.2619047619047618625 1 0.2738095238095237804 1 0.2857142857142856984 1 0.2976190476190476164 1 
	0.3095238095238095344 1 0.3214285714285713969 1 0.3333333333333333148 1 0.3452380952380952328 1 0.3571428571428570953 1 
	0.3690476190476190133 1 0.375 1 0.3809523809523809312 1 0.3928571428571428492 1 0.4047619047619047672 1 
	0.4166666666666666297 1 0.4285714285714285476 1 0.4444444444444444198 1 0.4603174603174602919 1 0.476190476190476164 1 
	0.4801587301587301182 1 0.4821428571428570953 1 0.4841269841269840724 1 0.4880952380952380265 1 0.4900793650793650036 1 
	0.4910714285714284921 1 0.4915674603174602364 1 0.491815476190476164 1 0.4920634920634920362 1 0.5158730158730158166 1 
	0.5238095238095237249 1 0.5357142857142855874 1 0.5476190476190475609 1 0.5595238095238095344 1 0.5714285714285713969 1 
	0.5833333333333332593 1 0.5952380952380951218 1 0.6071428571428569843 1 0.6190476190476189577 1 0.6349206349206348854 1 
	0.650793650793650702 1 0.6666666666666666297 1 0.6785714285714286031 1 0.6904761904761904656 1 0.7023809523809523281 1 
	0.7142857142857141906 1 0.7321428571428569843 1 0.749999999999999889 1 0.7678571428571427937 1 0.7857142857142855874 1 
	0.7916666666666665186 1 0.7976190476190474499 1 0.8095238095238094234 1 0.8333333333333332593 1 0.8452380952380951218 1 
	0.851190476190476053 1 0.8571428571428570953 1 0.875 1 0.8928571428571427937 1 0.9107142857142856984 1 
	0.9285714285714286031 1 0.9464285714285713969 1 0.9642857142857143016 1 0.9821428571428572063 1 0.9910714285714286031 1 
	0.9955357142857143016 1 0.9977678571428572063 1 0.9988839285714286031 1 0.9994419642857143016 1 1 3 
	0 3 1 3 
	31.79757191540695516 4435.642865312258436 13999.99992641641984 
	31.79757191540691963 4435.642865181062916 14004.67491554438493 
	31.79757191540664962 4435.511720195323505 14014.024895337212 
	31.79757191540640804 4434.725083148779959 14032.71013761976064 
	31.79757191540542749 4432.759703754421025 14056.01155487674259 
	31.79757191540454997 4428.836907710940977 14083.79696635897562 
	31.7975719154037364 4421.538057407564338 14120.49278910061366 
	31.79757191540078765 4411.168200754666032 14156.48760101909102 
	31.79757191540007355 4397.824826787467828 14191.44200208256007 
	31.79757191539934524 4382.543511693076653 14225.59367347043008 
	31.79757191539703243 4364.423961585233883 14258.378475172869 
	31.7975719153964711 4343.637088461842723 14289.48734326886188 
	31.79757191539575345 4321.139394666653061 14319.38229109837266 
	31.79757191539386696 4289.93888956232513 14354.29607743011911 
	31.797571915392151 4249.594096034498762 14390.34998816029838 
	31.79757191539064465 4207.365976736432458 14420.70984082962241 
	31.797571915389927 4171.333190404534434 14441.51349163330451 
	31.79757191538956818 4145.116808469118041 14454.13841007339761 
	31.79757191538941186 4129.880332012201507 14460.78590173328848 
	31.79757191538906369 4099.085677533586932 14473.31799348911045 
	31.79757191538780248 4059.265223198469812 14485.60041596164046 
	31.7975719153873122 4016.36229311130819 14493.71680392828057 
	31.79757191538690009 3991.638056261136171 14496.97193942391823 
	31.7975719153867189 3966.809326610155495 14499.30022130077123 
	31.79757191538591243 3944.992730181820662 14500.11660699231106 
	31.79757191538579875 3926.292769113691975 14499.94170734066574 
	31.79757191538568506 3913.830491980116676 14499.59205451132402 
	31.7975719153854044 3892.044379936999576 14498.36863881030695 
	31.79757191538452332 3861.052077485059726 14494.87669752312468 
	31.79757191538368488 3824.278458054385737 14487.91873134557136 
	31.79757191538271854 3788.127631405366628 14478.23216198174487 
	31.79757191538178418 3752.801767930621736 14465.8711089353219 
	31.7975719153807681 3718.498426266570277 14450.90472029404191 
	31.79757191537976269 3685.409438023576968 14433.41669207044652 
	31.7975719153786045 3653.719866064694088 14413.5048084562859 
	31.79757191537806094 3623.606871503197453 14391.28051156768743 
	31.79757191537662564 3599.966969300091023 14370.93666397667585 
	31.79757191537623129 3582.006808359291881 14353.63584441200146 
	31.79757191537583338 3564.705978381039586 14335.67568980557917 
	31.79757191537417427 3544.362128581632533 14312.03579838555925 
	31.79757191537331096 3522.13776677843407 14281.9228376443607 
	31.7975719153723837 3502.225926570488355 14250.23325779936931 
	31.79757191537108696 3482.79461829350339 14213.46778978795555 
	31.79757191536906547 3465.01656071524485 14171.29388582617139 
	31.79757191536721095 3450.300125096319334 14123.58335309024005 
	31.79757191536286598 3442.88016061544522 14086.87943052534138 
	31.79757191536220517 3439.755624945570162 14064.23670974513516 
	31.79757191536210925 3438.77358119265682 14055.9836800157027 
	31.79757191536203109 3437.894517884539709 14047.71904531735709 
	31.79757191536169358 3437.170095445952938 14039.4389377294865 
	31.79757191536162608 3436.671844870765199 14032.1836791963633 
	31.79757191536157634 3436.45665510731942 14028.5539324532092 
	31.79757191536157634 3436.357539949413876 14026.73858230284168 
	31.79757191536156924 3436.303337638988978 14025.70111100525355 
	31.79757191536236149 3435.014348829147366 14000.28100967615137 
	31.79757191536515393 3435.853178355172076 13966.6937397219117 
	31.7975719153657046 3441.539750329994149 13921.32341029757299 
	31.79757191536732819 3447.724119393123601 13888.63573737448314 
	31.79757191536844374 3457.41089638044059 13852.48493123835033 
	31.79757191536963035 3469.771840478023023 13817.15907969526052 
	31.79757191537072103 3484.73824514922444 13782.8557446117029 
	31.79757191537141381 3502.226268414352944 13749.76678962232472 
	31.79757191537321859 3522.138110166210936 13718.07720525122386 
	31.79757191537461836 3544.362517254825889 13687.96434815823341 
	31.79757191537635919 3571.487351090351694 13656.44425006483652 
	31.79757191537718342 3604.250924690932607 13624.48734533652168 
	31.7975719153791232 3643.286805459261814 13593.35754885640745 
	31.79757191537938255 3681.732934681087499 13568.52630988216333 
	31.79757191538084982 3718.498651658512699 13549.09553816425432 
	31.79757191538127614 3752.801853058779216 13534.12890319139296 
	31.79757191538239169 3788.12776856663686 13521.76814300214573 
	31.79757191538348593 3830.303575539581743 13510.46659467439531 
	31.79757191538404726 3879.542922936858304 13502.10032391836103 
	31.79757191538624994 3935.642744205427789 13498.9500853535028 
	31.7975719153868539 3991.742579632482375 13502.10034333224576 
	31.79757191538781314 4034.82697693776845 13509.42097886027841 
	31.7975719153881613 4065.082407977730782 13516.92474580059934 
	31.79757191538853434 4089.045316745799482 13523.82848983216172 
	31.7975719153890708 4130.259506522605079 13538.2482796621789 
	31.79757191538990568 4175.313568752901119 13559.94455771888897 
	31.7975719153905878 4212.284060225990288 13583.17646770189094 
	31.79757191539077965 4232.622244661728473 13597.60704411221013 
	31.79757191539102479 4257.352824730378416 13616.58325141899877 
	31.797571915392151 4289.938993543863035 13645.70367147451907 
	31.79757191539303918 4327.379654580215174 13687.60018571146793 
	31.7975719153947054 4359.894379646011657 13733.4249204357111 
	31.79757191539744099 4387.073572041735133 13782.60230005135054 
	31.79757191539999894 4408.575845475275855 13834.51344361149677 
	31.7975719154026244 4424.130804231406728 13888.50572738028313 
	31.79757191540560868 4431.973805506770987 13934.66770463649846 
	31.79757191540657502 4434.725046965442743 13967.28971918658317 
	31.79757191540686634 4435.413399969801503 13983.63930206872283 
	31.79757191540693739 4435.58549384494745 13991.81892553253783 
	31.79757191540695871 4435.628522920113937 13995.90933964483702 
	31.79757191540696937 4435.640816225153685 13998.24680551744677 
	31.79757191540695516 4435.642865328658445 13999.41555277542466 
	31.79757191540695516 4435.642865312258436 13999.99992641641984 
	115.1309052487402766 4435.642865312257527 13999.99992641641984 
	115.130905248740234 4435.642865181062007 14004.67491554438493 
	115.1309052487399924 4435.511720195322596 14014.024895337212 
	115.130905248739694 4434.725083148779049 14032.71013761976064 
	115.1309052487387703 4432.759703754420116 14056.01155487674259 
	115.1309052487378324 4428.836907710940068 14083.79696635897562 
	115.1309052487370792 4421.538057407563429 14120.49278910061366 
	115.1309052487341376 4411.168200754665122 14156.48760101909102 
	115.130905248733356 4397.824826787466918 14191.44200208256007 
	115.1309052487327733 4382.543511693075743 14225.59367347043008 
	115.1309052487302864 4364.423961585232973 14258.378475172869 
	115.1309052487298459 4343.637088461841813 14289.48734326886188 
	115.1309052487289932 4321.139394666652151 14319.38229109837266 
	115.1309052487272027 4289.938889562324221 14354.29607743011911 
	115.1309052487254405 4249.594096034497852 14390.34998816029838 
	115.1309052487240194 4207.365976736431548 14420.70984082962241 
	115.1309052487231668 4171.333190404533525 14441.51349163330451 
	115.1309052487228968 4145.116808469117132 14454.13841007339761 
	115.1309052487227831 4129.880332012200597 14460.78590173328848 
	115.1309052487222573 4099.085677533586022 14473.31799348911045 
	115.1309052487212483 4059.265223198469357 14485.60041596164046 
	115.1309052487205804 4016.362293111307736 14493.71680392828057 
	115.1309052487202962 3991.638056261135716 14496.97193942391823 
	115.1309052487199267 3966.80932661015504 14499.30022130077123 
	115.130905248719472 3944.992730181820207 14500.11660699231106 
	115.1309052487190598 3926.29276911369152 14499.94170734066574 
	115.1309052487190314 3913.830491980116221 14499.59205451132402 
	115.1309052487187756 3892.044379936999121 14498.36863881030695 
	115.1309052487177951 3861.052077485059272 14494.87669752312468 
	115.1309052487169851 3824.278458054385283 14487.91873134557136 
	115.1309052487161182 3788.127631405366174 14478.23216198174487 
	115.130905248715095 3752.801767930621281 14465.8711089353219 
	115.1309052487140576 3718.498426266569822 14450.90472029404191 
	115.1309052487131623 3685.409438023576513 14433.41669207044652 
	115.1309052487118265 3653.719866064693633 14413.5048084562859 
	115.1309052487115139 3623.606871503196999 14391.28051156768743 
	115.1309052487099081 3599.966969300090568 14370.93666397667585 
	115.1309052487095244 3582.006808359291426 14353.63584441200146 
	115.1309052487093538 3564.705978381039131 14335.67568980557917 
	115.1309052487073217 3544.362128581632078 14312.03579838555925 
	115.1309052487068243 3522.137766778433615 14281.9228376443607 
	115.1309052487055737 3502.2259265704879 14250.23325779936931 
	115.1309052487045506 3482.794618293502936 14213.46778978795555 
	115.1309052487021916 3465.016560715244395 14171.29388582617139 
	115.1309052487007278 3450.30012509631888 14123.58335309024005 
	115.1309052486960525 3442.880160615444765 14086.87943052534138 
	115.1309052486955693 3439.755624945569707 14064.23670974513516 
	115.1309052486954698 3438.773581192656366 14055.9836800157027 
	115.1309052486953135 3437.894517884539255 14047.71904531735709 
	115.1309052486950009 3437.170095445952484 14039.4389377294865 
	115.130905248694944 3436.671844870764744 14032.1836791963633 
	115.1309052486949156 3436.456655107318966 14028.5539324532092 
	115.1309052486949014 3436.357539949413422 14026.73858230284168 
	115.1309052486949298 3436.303337638988523 14025.70111100525355 
	115.1309052486955977 3435.014348829146911 14000.28100967615137 
	115.1309052486985536 3435.853178355171622 13966.6937397219117 
	115.1309052486990083 3441.539750329993694 13921.32341029757299 
	115.1309052487007563 3447.724119393123146 13888.63573737448314 
	115.1309052487016515 3457.410896380440136 13852.48493123835033 
	115.1309052487030442 3469.771840478022568 13817.15907969526052 
	115.1309052487040105 3484.738245149223985 13782.8557446117029 
	115.1309052487047495 3502.226268414352489 13749.76678962232472 
	115.1309052487064832 3522.138110166210481 13718.07720525122386 
	115.1309052487081033 3544.362517254825434 13687.96434815823341 
	115.1309052487094959 3571.48735109035124 13656.44425006483652 
	115.1309052487106896 3604.250924690932152 13624.48734533652168 
	115.1309052487123097 3643.286805459261359 13593.35754885640745 
	115.1309052487128639 3681.732934681087045 13568.52630988216333 
	115.1309052487141287 3718.498651658512244 13549.09553816425432 
	115.1309052487146118 3752.801853058778761 13534.12890319139296 
	115.1309052487158198 3788.127768566636405 13521.76814300214573 
	115.1309052487167151 3830.303575539581288 13510.46659467439531 
	115.1309052487174256 3879.542922936857849 13502.10032391836103 
	115.1309052487195856 3935.642744205427334 13498.9500853535028 
	115.1309052487201825 3991.74257963248192 13502.10034333224576 
	115.130905248721092 4034.826976937767995 13509.42097886027841 
	115.1309052487214757 4065.082407977730327 13516.92474580059934 
	115.1309052487219162 4089.045316745799028 13523.82848983216172 
	115.1309052487222857 4130.25950652260417 13538.2482796621789 
	115.1309052487234368 4175.31356875290021 13559.94455771888897 
	115.1309052487238347 4212.284060225989379 13583.17646770189094 
	115.1309052487241189 4232.622244661727564 13597.60704411221013 
	115.1309052487243605 4257.352824730377506 13616.58325141899877 
	115.1309052487254831 4289.938993543862125 13645.70367147451907 
	115.1309052487264069 4327.379654580214265 13687.60018571146793 
	115.1309052487279985 4359.894379646010748 13733.4249204357111 
	115.1309052487308122 4387.073572041734224 13782.60230005135054 
	115.1309052487333275 4408.575845475274946 13834.51344361149677 
	115.1309052487359992 4424.130804231405818 13888.50572738028313 
	115.1309052487388698 4431.973805506770077 13934.66770463649846 
	115.1309052487399924 4434.725046965441834 13967.28971918658317 
	115.1309052487400919 4435.413399969800594 13983.63930206872283 
	115.1309052487403193 4435.585493844946541 13991.81892553253783 
	115.1309052487402624 4435.628522920113028 13995.90933964483702 
	115.1309052487403051 4435.640816225152776 13998.24680551744677 
	115.1309052487402766 4435.642865328657535 13999.41555277542466 
	115.1309052487402766 4435.642865312257527 13999.99992641641984 
	198.4642385822166943 4435.642865312257527 13999.99992641641984 
	198.4642385822164954 4435.642865181061097 14004.67491554438493 
	198.4642385822140227 4435.511720195322596 14014.024895337212 
	198.4642385822119763 4434.725083148779049 14032.71013761976064 
	198.4642385822033077 4432.759703754420116 14056.01155487674259 
	198.4642385821957475 4428.836907710940068 14083.79696635897562 
	198.4642385821885284 4421.538057407563429 14120.49278910061366 
	198.4642385821629205 4411.168200754663303 14156.48760101909102 
	198.4642385821568382 4397.824826787466009 14191.44200208256007 
	198.464238582150756 4382.543511693074834 14225.59367347043008 
	198.4642385821309176 4364.423961585232973 14258.378475172869 
	198.4642385821264838 4343.637088461841813 14289.48734326886188 
	198.4642385821207426 4321.139394666652151 14319.38229109837266 
	198.4642385821048833 4289.938889562324221 14354.29607743011911 
	198.4642385820908146 4249.594096034497852 14390.34998816029838 
	198.4642385820786785 4207.365976736430639 14420.70984082962241 
	198.4642385820734489 4171.333190404532616 14441.51349163330451 
	198.4642385820709478 4145.116808469116222 14454.13841007339761 
	198.4642385820699815 4129.880332012200597 14460.78590173328848 
	198.464238582067992 4099.085677533585113 14473.31799348911045 
	198.4642385820576749 4059.265223198470267 14485.60041596164046 
	198.4642385820546906 4016.362293111307736 14493.71680392828057 
	198.4642385820516779 3991.638056261136626 14496.97193942391823 
	198.4642385820507968 3966.809326610155949 14499.30022130077123 
	198.4642385820443451 3944.992730181821116 14500.11660699231106 
	198.4642385820438903 3926.29276911369243 14499.94170734066574 
	198.4642385820432082 3913.830491980117131 14499.59205451132402 
	198.4642385820413324 3892.044379936999121 14498.36863881030695 
	198.4642385820343975 3861.052077485058817 14494.87669752312468 
	198.4642385820280026 3824.278458054385283 14487.91873134557136 
	198.4642385820204709 3788.127631405365719 14478.23216198174487 
	198.4642385820132517 3752.801767930620372 14465.8711089353219 
	198.4642385820050947 3718.498426266569368 14450.90472029404191 
	198.4642385819974493 3685.409438023575603 14433.41669207044652 
	198.464238581987928 3653.719866064693178 14413.5048084562859 
	198.4642385819840342 3623.606871503196544 14391.28051156768743 
	198.4642385819719834 3599.966969300090568 14370.93666397667585 
	198.464238581969056 3582.006808359290972 14353.63584441200146 
	198.4642385819658443 3564.705978381038676 14335.67568980557917 
	198.4642385819520882 3544.362128581631623 14312.03579838555925 
	198.4642385819445849 3522.137766778433615 14281.9228376443607 
	198.4642385819374226 3502.2259265704879 14250.23325779936931 
	198.4642385819261676 3482.794618293502936 14213.46778978795555 
	198.4642385819089725 3465.016560715243941 14171.29388582617139 
	198.4642385818928005 3450.30012509631888 14123.58335309024005 
	198.4642385818547154 3442.880160615444765 14086.87943052534138 
	198.4642385818487753 3439.755624945569252 14064.23670974513516 
	198.4642385818480079 3438.773581192656366 14055.9836800157027 
	198.4642385818473542 3437.894517884538345 14047.71904531735709 
	198.4642385818442563 3437.170095445952938 14039.4389377294865 
	198.4642385818438584 3436.671844870763834 14032.1836791963633 
	198.4642385818433183 3436.45665510731942 14028.5539324532092 
	198.464238581843432 3436.357539949413422 14026.73858230284168 
	198.4642385818432047 3436.303337638988523 14025.70111100525355 
	198.4642385818504522 3435.014348829146911 14000.28100967615137 
	198.4642385818748949 3435.853178355171622 13966.6937397219117 
	198.4642385818797834 3441.539750329993694 13921.32341029757299 
	198.4642385818938521 3447.724119393123601 13888.63573737448314 
	198.4642385819036008 3457.410896380440136 13852.48493123835033 
	198.4642385819136337 3469.771840478022568 13817.15907969526052 
	198.464238581922956 3484.73824514922444 13782.8557446117029 
	198.4642385819285835 3502.226268414352944 13749.76678962232472 
	198.4642385819440733 3522.138110166210936 13718.07720525122386 
	198.464238581955783 3544.362517254825434 13687.96434815823341 
	198.4642385819705623 3571.487351090350785 13656.44425006483652 
	198.4642385819767014 3604.250924690931697 13624.48734533652168 
	198.4642385819930723 3643.286805459261359 13593.35754885640745 
	198.4642385819939534 3681.73293468108659 13568.52630988216333 
	198.4642385820060326 3718.498651658512244 13549.09553816425432 
	198.464238582008818 3752.801853058778306 13534.12890319139296 
	198.4642385820175718 3788.12776856663595 13521.76814300214573 
	198.4642385820262689 3830.303575539580834 13510.46659467439531 
	198.4642385820295374 3879.542922936857849 13502.10032391836103 
	198.4642385820477557 3935.64274420542597 13498.9500853535028 
	198.4642385820511947 3991.742579632481011 13502.10034333224576 
	198.4642385820587549 4034.826976937766176 13509.42097886027841 
	198.464238582060716 4065.082407977728963 13516.92474580059934 
	198.4642385820635866 4089.045316745797663 13523.82848983216172 
	198.4642385820669119 4130.259506522602351 13538.2482796621789 
	198.4642385820731931 4175.313568752898391 13559.94455771888897 
	198.4642385820780532 4212.28406022598665 13583.17646770189094 
	198.4642385820791901 4232.622244661725745 13597.60704411221013 
	198.464238582080668 4257.352824730375687 13616.58325141899877 
	198.464238582089763 4289.938993543860306 13645.70367147451907 
	198.4642385820965558 4327.379654580213355 13687.60018571146793 
	198.4642385821102835 4359.894379646008929 13733.4249204357111 
	198.4642385821339872 4387.073572041733314 13782.60230005135054 
	198.4642385821557582 4408.575845475273127 13834.51344361149677 
	198.4642385821788082 4424.130804231404909 13888.50572738028313 
	198.4642385822048709 4431.973805506768258 13934.66770463649846 
	198.4642385822134543 4434.725046965440924 13967.28971918658317 
	198.464238582215927 4435.413399969799684 13983.63930206872283 
	198.4642385822165238 4435.585493844945631 13991.81892553253783 
	198.464238582216808 4435.628522920113028 13995.90933964483702 
	198.4642385822167796 4435.640816225153685 13998.24680551744677 
	198.4642385822167512 4435.642865328657535 13999.41555277542466 
	198.4642385822166943 4435.642865312257527 13999.99992641641984 
	281.7975719155500087 4435.642865312257527 13999.99992641641984 
	281.7975719155497814 4435.642865181061097 14004.67491554438493 
	281.7975719155473939 4435.511720195322596 14014.024895337212 
	281.7975719155452339 4434.725083148779049 14032.71013761976064 
	281.7975719155366505 4432.759703754420116 14056.01155487674259 
	281.7975719155290335 4428.836907710940068 14083.79696635897562 
	281.7975719155219281 4421.538057407563429 14120.49278910061366 
	281.7975719154961212 4411.168200754663303 14156.48760101909102 
	281.7975719154901526 4397.824826787466009 14191.44200208256007 
	281.7975719154841272 4382.543511693074834 14225.59367347043008 
	281.7975719154641752 4364.423961585232973 14258.378475172869 
	281.7975719154597982 4343.637088461841813 14289.48734326886188 
	281.797571915454057 4321.139394666652151 14319.38229109837266 
	281.7975719154381977 4289.938889562324221 14354.29607743011911 
	281.7975719154241574 4249.594096034497852 14390.34998816029838 
	281.7975719154119929 4207.365976736430639 14420.70984082962241 
	281.7975719154067065 4171.333190404532616 14441.51349163330451 
	281.7975719154042622 4145.116808469116222 14454.13841007339761 
	281.7975719154033527 4129.880332012200597 14460.78590173328848 
	281.7975719154011358 4099.085677533585113 14473.31799348911045 
	281.7975719153910745 4059.265223198469812 14485.60041596164046 
	281.797571915388005 4016.362293111307281 14493.71680392828057 
	281.7975719153849923 3991.638056261136171 14496.97193942391823 
	281.7975719153841396 3966.809326610155495 14499.30022130077123 
	281.7975719153776595 3944.992730181820662 14500.11660699231106 
	281.7975719153772047 3926.292769113691975 14499.94170734066574 
	281.7975719153765226 3913.830491980116676 14499.59205451132402 
	281.7975719153746468 3892.044379936998666 14498.36863881030695 
	281.7975719153677119 3861.052077485058362 14494.87669752312468 
	281.7975719153612886 3824.278458054384828 14487.91873134557136 
	281.7975719153538421 3788.127631405365264 14478.23216198174487 
	281.7975719153465093 3752.801767930619917 14465.8711089353219 
	281.7975719153384944 3718.498426266568913 14450.90472029404191 
	281.79757191533065 3685.409438023575149 14433.41669207044652 
	281.7975719153212708 3653.719866064692724 14413.5048084562859 
	281.7975719153173486 3623.606871503196089 14391.28051156768743 
	281.7975719153052978 3599.966969300090113 14370.93666397667585 
	281.7975719153023419 3582.006808359290517 14353.63584441200146 
	281.7975719152993292 3564.705978381038221 14335.67568980557917 
	281.7975719152851184 3544.362128581631168 14312.03579838555925 
	281.7975719152781835 3522.137766778433161 14281.9228376443607 
	281.7975719152705096 3502.225926570487445 14250.23325779936931 
	281.7975719152595957 3482.794618293502481 14213.46778978795555 
	281.7975719152421448 3465.016560715243486 14171.29388582617139 
	281.7975719152262286 3450.300125096318425 14123.58335309024005 
	281.7975719151879161 3442.880160615444311 14086.87943052534138 
	281.7975719151821181 3439.755624945568798 14064.23670974513516 
	281.7975719151813223 3438.773581192655911 14055.9836800157027 
	281.7975719151806402 3437.89451788453789 14047.71904531735709 
	281.7975719151776275 3437.170095445952484 14039.4389377294865 
	281.7975719151771159 3436.67184487076338 14032.1836791963633 
	281.7975719151766612 3436.456655107318966 14028.5539324532092 
	281.7975719151766612 3436.357539949412967 14026.73858230284168 
	281.7975719151765475 3436.303337638988069 14025.70111100525355 
	281.797571915183596 3435.014348829146456 14000.28100967615137 
	281.7975719152083229 3435.853178355171167 13966.6937397219117 
	281.7975719152130409 3441.53975032999324 13921.32341029757299 
	281.7975719152272518 3447.724119393123146 13888.63573737448314 
	281.7975719152368583 3457.410896380439681 13852.48493123835033 
	281.7975719152469765 3469.771840478022114 13817.15907969526052 
	281.7975719152562419 3484.738245149223985 13782.8557446117029 
	281.7975719152618694 3502.226268414352489 13749.76678962232472 
	281.7975719152773877 3522.138110166210481 13718.07720525122386 
	281.7975719152891543 3544.362517254824979 13687.96434815823341 
	281.797571915303763 3571.48735109035033 13656.44425006483652 
	281.7975719153101863 3604.250924690931242 13624.48734533652168 
	281.7975719153262162 3643.286805459260904 13593.35754885640745 
	281.7975719153274099 3681.732934681086135 13568.52630988216333 
	281.7975719153392902 3718.49865165851179 13549.09553816425432 
	281.7975719153421323 3752.801853058777851 13534.12890319139296 
	281.7975719153509431 3788.127768566635496 13521.76814300214573 
	281.7975719153594696 3830.303575539580379 13510.46659467439531 
	281.7975719153629939 3879.542922936857394 13502.10032391836103 
	281.7975719153809564 3935.642744205425515 13498.9500853535028 
	281.7975719153846512 3991.742579632480556 13502.10034333224576 
	281.7975719153919272 4034.826976937765721 13509.42097886027841 
	281.7975719153940872 4065.082407977728508 13516.92474580059934 
	281.7975719153967589 4089.045316745797209 13523.82848983216172 
	281.79757191540034 4130.259506522602351 13538.2482796621789 
	281.7975719154064222 4175.313568752898391 13559.94455771888897 
	281.7975719154114245 4212.28406022598665 13583.17646770189094 
	281.7975719154125045 4232.622244661725745 13597.60704411221013 
	281.7975719154139824 4257.352824730375687 13616.58325141899877 
	281.7975719154230774 4289.938993543860306 13645.70367147451907 
	281.7975719154298986 4327.379654580213355 13687.60018571146793 
	281.7975719154436547 4359.894379646008929 13733.4249204357111 
	281.7975719154671879 4387.073572041733314 13782.60230005135054 
	281.7975719154891863 4408.575845475273127 13834.51344361149677 
	281.7975719155120373 4424.130804231404909 13888.50572738028313 
	281.7975719155382421 4431.973805506768258 13934.66770463649846 
	281.7975719155467118 4434.725046965440924 13967.28971918658317 
	281.7975719155492698 4435.413399969799684 13983.63930206872283 
	281.797571915549895 4435.585493844945631 13991.81892553253783 
	281.7975719155500656 4435.628522920113028 13995.90933964483702 
	281.7975719155501224 4435.640816225153685 13998.24680551744677 
	281.7975719155500656 4435.642865328657535 13999.41555277542466 
	281.7975719155500087 4435.642865312257527 13999.99992641641984 
	0 
	
	0 
	0 
	94 0 0.004464285714285714038 0.008928571428571428076 0.01785714285714285615 0.02678571428571428423 0.0357142857142857123 0.05357142857142856845 0.0625 0.07142857142857142461 0.08928571428571427382 0.09821428571428569843 0.1071428571428571369 0.125 0.1428571428571428492 0.1587301587301587213 0.1746031746031745935 0.1825396825396825295 0.1865079365079365115 0.1904761904761904656 0.2142857142857142738 0.226190476190476164 0.232142857142857123 0.238095238095238082 0.2499999999999999722 0.2529761904761904656 0.2559523809523809312 0.2619047619047618625 0.2738095238095237804 0.2857142857142856984 0.2976190476190476164 0.3095238095238095344 0.3214285714285713969 0.3333333333333333148 0.3452380952380952328 0.3571428571428570953 0.3690476190476190133 0.375 0.3809523809523809312 0.3928571428571428492 0.4047619047619047672 0.4166666666666666297 0.4285714285714285476 0.4444444444444444198 0.4603174603174602919 0.476190476190476164 0.4801587301587301182 0.4821428571428570953 0.4841269841269840724 0.4880952380952380265 0.4900793650793650036 0.4910714285714284921 0.4915674603174602364 0.491815476190476164 0.4920634920634920362 0.5158730158730158166 0.5238095238095237249 0.5357142857142855874 0.5476190476190475609 0.5595238095238095344 0.5714285714285713969 0.5833333333333332593 0.5952380952380951218 0.6071428571428569843 0.6190476190476189577 0.6349206349206348854 0.650793650793650702 0.6666666666666666297 0.6785714285714286031 0.6904761904761904656 0.7023809523809523281 0.7142857142857141906 0.7321428571428569843 0.749999999999999889 0.7678571428571427937 0.7857142857142855874 0.7916666666666665186 0.7976190476190474499 0.8095238095238094234 0.8333333333333332593 0.8452380952380951218 0.851190476190476053 0.8571428571428570953 0.875 0.8928571428571427937 0.9107142857142856984 0.9285714285714286031 0.9464285714285713969 0.9642857142857143016 0.9821428571428572063 0.9910714285714286031 0.9955357142857143016 0.9977678571428572063 0.9988839285714286031 0.9994419642857143016 
	0 
	0 
	0 
	F 1 F 0 F 1 F 0 } I I I I #
tcoedge-coedge $-1 -1 $-1 $14 $14 $18 $19 reversed $9 $20 -6.283185307179586232 -0 #
tcoedge-coedge $-1 -1 $-1 $21 $22 $11 $16 reversed $12 $23 -6.283185307179586232 -0 #
tedge-edge $-1 -1 $-1 $24 0 $24 6.283185307179586232 $15 $25 forward @7 unknown 0.0006092258798047862304 #
pcurve $-1 -1 $-1 0 forward { exppc nurbs 2 periodic 5 
	0 2 1.570796326794896558 2 3.141592653589793116 2 4.712388980384689674 2 6.283185307179586232 2 
	0 500 1 
	-500 500 0.707106781186543798 
	-500 0 1 
	-500 -500 0.7071067811865463515 
	0 -500 1 
	500 -500 0.7071067811865463515 
	500 0 1 
	500 500 0.707106781186543798 
	0 500 1 
	0 
	plane 281.797571915386925 3935.642797989817154 14000.00000000000182 1 -3.637978807091713027e-15 0 0 0 -1 forward_v I I I I 
	} 0 0 #
tcoedge-coedge $-1 -1 $-1 $22 $21 $14 $19 forward $12 $26 0 6.283185307179586232 #
tedge-edge $-1 -1 $-1 $27 0 $27 6.283185307179586232 $18 $28 forward @7 unknown 0.0006092258817933605746 #
pcurve $-1 -1 $-1 0 forward { exppc nurbs 2 periodic 5 
	-6.283185307179586232 2 -4.712388980384689674 2 -3.141592653589793116 2 -1.570796326794896558 2 0 2 
	0 500 1 
	500 500 0.707106781186543798 
	500 0 1 
	500 -500 0.7071067811865463515 
	0 -500 1 
	-500 -500 0.7071067811865463515 
	-500 0 1 
	-500 500 0.707106781186543798 
	0 500 1 
	0 
	plane 31.79757191538692496 3935.642797989818064 14000.00000000000182 -1 3.637978807091713027e-15 -0 0 0 -1 reverse_v I I I I 
	} 0 0 #
coedge $-1 -1 $-1 $18 $15 $22 $29 reversed $12 $30 #
coedge $-1 -1 $-1 $15 $18 $21 $29 forward $12 $31 #
pcurve $-1 -1 $-1 0 forward { exppc nubs 1 periodic 2 
	-6.283185307179586232 1 -0 1 
	1 1 
	0 1 
	2.726396620975368931e-13 
	spline forward { ref 0 } I I I I 
	} 0 0 #
tvertex-vertex $-1 -1 $-1 $16 $32 9.973392857692259098e-05 #
ellipse-curve $-1 -1 $-1 281.797571915386925 3935.642797989817154 14000.00000000000182 1 -3.637978807091713027e-15 0 1.818989403545856476e-12 500 0 1 I I #
pcurve $-1 -1 $-1 0 forward { exppc nubs 1 periodic 2 
	0 1 6.283185307179586232 1 
	0 0 
	1 0 
	4.411402399551012014e-13 
	spline forward { ref 0 } I I I I 
	} 0 0 #
tvertex-vertex $-1 -1 $-1 $19 $33 9.973392857679377421e-05 #
ellipse-curve $-1 -1 $-1 31.79757191538692496 3935.642797989818064 14000.00000000000182 1 -3.637978807091713027e-15 0 1.818989403545856476e-12 500 0 1 I I #
edge $-1 -1 $-1 $27 0 $24 1 $22 $34 forward @7 tangent #
pcurve $-1 -1 $-1 -1 $34 0 0 #
pcurve $-1 -1 $-1 1 $34 1 0 #
point $-1 -1 $-1 281.7975719153887439 4435.642797989817154 14000.00000000000182 #
point $-1 -1 $-1 31.79757191538874395 4435.642797989818064 14000.00000000000182 #
intcurve-curve $-1 -1 $-1 forward { parcur full nubs 3 open 2 
	0 3 1 3 
	31.79757191540695516 4435.642865312258436 13999.99992641641984 
	115.1309052487402766 4435.642865312257527 13999.99992641641984 
	198.4642385822166943 4435.642865312257527 13999.99992641641984 
	281.7975719155500087 4435.642865312257527 13999.99992641641984 
	0 
	
	spline forward { ref 0 } I I I I 
	null_surface 
	nubs 1 open 2 
	0 1 1 1 
	0 0 
	0 1 
	
	nullbs 
	I I 
	0 
	0 
	0 
	surf1 } I I #
End-of-ACIS-data 