700 0 1 0           
4 LibG 20 ASM 224.0.1.65535 NT 24 Wed Jul 17 12:52:13 2019 
1000 9.999999999999999547e-07 1.000000000000000036e-10 
body $-1 -1 $-1 $1 $-1 $2 #
lump $-1 -1 $-1 $-1 $3 $0 #
transform $-1 -1 1 0 0 0 1 0 0 0 1 0 0 0 1 no_rotate no_reflect no_shear #
shell $-1 -1 $-1 $-1 $-1 $4 $-1 $1 #
face $-1 -1 $-1 $5 $6 $3 $-1 $7 forward single #
face $-1 -1 $-1 $8 $9 $3 $-1 $10 reversed single #
loop $-1 -1 $-1 $-1 $11 $4 #
plane-surface $-1 -1 $-1 10281.79757191538738 3935.642797989780775 14000.00000000000182 1 -3.637978807091713027e-15 0 0 0 -1 forward_v I I I I #
face $-1 -1 $-1 $-1 $12 $3 $-1 $13 forward single #
loop $-1 -1 $-1 $-1 $14 $5 #
plane-surface $-1 -1 $-1 10031.79757191538738 3935.642797989781684 14000.00000000000182 1 -3.637978807091713027e-15 0 0 0 -1 forward_v I I I I #
tcoedge-coedge $-1 -1 $-1 $11 $11 $15 $16 forward $6 $17 0 6.283185307179586232 #
loop $-1 -1 $-1 $-1 $18 $8 #
spline-surface $-1 -1 $-1 forward { exactsur full nubs 3 3 periodic open none none 91 2 
	0 3 0.0005580357142857142547 1 0.001116071428571428509 1 0.002232142857142857019 1 0.004464285714285714038 1 
	0.008928571428571428076 1 0.01785714285714285615 1 0.0357142857142857123 1 0.05357142857142856845 1 0.07142857142857142461 1 
	0.08928571428571427382 1 0.1071428571428571369 1 0.1160714285714285754 1 0.125 1 0.1428571428571428492 1 
	0.1587301587301587213 1 0.1746031746031745935 1 0.1904761904761904656 1 0.2023809523809523836 1 0.2142857142857142738 1 
	0.226190476190476164 1 0.238095238095238082 1 0.2499999999999999722 1 0.2619047619047618625 1 0.2738095238095237804 1 
	0.2857142857142856984 1 0.2916666666666666297 1 0.2976190476190476164 1 0.3095238095238095344 1 0.3214285714285713969 1 
	0.3273809523809523281 1 0.3333333333333333148 1 0.3452380952380952328 1 0.351190476190476164 1 0.3571428571428570953 1 
	0.3690476190476190133 1 0.3809523809523809312 1 0.3928571428571428492 1 0.4047619047619047672 1 0.4285714285714285476 1 
	0.4305555555555555802 1 0.4325396825396825573 1 0.4365079365079365115 1 0.4444444444444444198 1 0.4603174603174602919 1 
	0.476190476190476164 1 0.4841269841269840724 1 0.4880952380952380265 1 0.4920634920634920362 1 0.5079365079365079083 1 
	0.5238095238095237249 1 0.5476190476190475609 1 0.5535714285714286031 1 0.5595238095238095344 1 0.5714285714285713969 1 
	0.5952380952380951218 1 0.6190476190476189577 1 0.6349206349206348854 1 0.650793650793650702 1 0.6666666666666666297 1 
	0.6904761904761904656 1 0.7023809523809523281 1 0.7142857142857141906 1 0.7321428571428569843 1 0.7410714285714283811 1 
	0.749999999999999889 1 0.7678571428571427937 1 0.7857142857142855874 1 0.7976190476190474499 1 0.8095238095238094234 1 
	0.8333333333333332593 1 0.8452380952380951218 1 0.851190476190476053 1 0.8571428571428570953 1 0.875 1 
	0.8928571428571427937 1 0.9107142857142856984 1 0.9285714285714286031 1 0.9464285714285713969 1 0.9642857142857143016 1 
	0.9821428571428572063 1 0.9866071428571429047 1 0.9910714285714286031 1 0.9955357142857143016 1 0.9977678571428572063 1 
	0.9988839285714286031 1 0.9994419642857143016 1 0.9997209821428572063 1 0.9998604910714286031 1 0.9999302455357143016 1 
	1 3 
	0 3 1 3 
	10031.79757184762275 4435.642892583607136 13999.99996389537046 
	10031.79757184762821 4435.642892583830871 14000.58433752883684 
	10031.79757184764276 4435.640843528572077 14001.75308478054103 
	10031.79757184765549 4435.628550154031473 14004.09055062664993 
	10031.79757184772461 4435.585521006084491 14008.18096464115115 
	10031.79757184792106 4435.413426689728112 14016.36058766789756 
	10031.79757184872324 4434.725072141453893 14032.71016870475978 
	10031.79757185126255 4431.973823794112832 14065.33217508783491 
	10031.79757185948256 4424.130804473244098 14111.49412720480177 
	10031.79757186611278 4408.575818419935786 14165.48637524125479 
	10031.79757187338873 4387.073537622451113 14217.39749861422024 
	10031.79757187893847 4359.894286852687401 14266.57480761195802 
	10031.7975718847083 4332.798732816597294 14304.7621165571054 
	10031.79757188624353 4308.659499623117881 14333.34798190838774 
	10031.79757188774784 4282.95612789595998 14360.53606477994981 
	10031.79757189199154 4249.59428421028133 14390.35002071831877 
	10031.79757189559314 4207.366131646233043 14420.70981025568835 
	10031.79757189749398 4164.126662587957981 14445.673998778022 
	10031.79757189893462 4122.409020287593194 14464.49780571829979 
	10031.79757190074633 4083.157975327666918 14478.23203636988546 
	10031.79757190223063 4047.007212934796826 14487.91873366751679 
	10031.79757190290002 4010.233581677231541 14494.87657761330229 
	10031.79757190406963 3973.042849475813 14499.06698318971576 
	10031.79757190514647 3935.642947730450487 14500.46637499777535 
	10031.7975719062033 3898.243056736373092 14499.06695544221839 
	10031.79757190708915 3861.052310294674953 14494.87657298128215 
	10031.79757190801683 3830.407659235797837 14489.07823905385703 
	10031.79757190826967 3806.203301541071596 14483.07535897612433 
	10031.79757190853161 3782.240277739258545 14476.17181539626472 
	10031.79757190927012 3752.802065469921217 14465.87098139587579 
	10031.79757190996497 3724.21599247561835 14453.39892820185742 
	10031.79757191019053 3701.95426290525711 14442.16056666263103 
	10031.79757191041062 3680.128205149839687 14430.09786425223137 
	10031.79757191066165 3659.001838452611082 14416.82327654346227 
	10031.79757191077988 3638.663760366417137 14402.39247678003994 
	10031.7975719109636 3618.879312059610584 14387.21151566357366 
	10031.79757191118006 3595.239454445167667 14366.8676853777979 
	10031.79757191142198 3568.775083904845815 14340.40352193967374 
	10031.79757191161661 3544.362896962943978 14312.03539410174744 
	10031.79757191191129 3514.729365071223128 14271.88541404528405 
	10031.79757191219505 3494.934274648856444 14237.60174765788543 
	10031.79757191225508 3482.476855763981803 14211.31473661213386 
	10031.7975719122569 3479.011345878268912 14203.76045830751718 
	10031.79757191226781 3473.194755540113874 14190.42853969936914 
	10031.79757191231693 3462.563882645913964 14163.34218665629851 
	10031.7975719124006 3450.299907913893549 14123.58351766786473 
	10031.797571912477 3442.055862686597266 14082.80126535959971 
	10031.79757191249701 3438.437912181856518 14053.9291844222189 
	10031.79757191250064 3436.989110072812764 14037.36897173213401 
	10031.79757191249519 3435.435626643418345 14012.48216890923868 
	10031.79757191247518 3435.436047440459333 13975.03584279549068 
	10031.79757191236968 3441.234512183398692 13917.07489680789513 
	10031.79757191217504 3451.897862833941417 13870.35387256016838 
	10031.79757191213866 3463.590838390017325 13834.82187535876255 
	10031.79757191210956 3472.265819887438283 13811.44177825565566 
	10031.79757191197859 3489.725780756297354 13771.42081223735295 
	10031.79757191148201 3520.978512473244791 13717.28667200885502 
	10031.7975719109254 3562.550907187999201 13665.15903805131347 
	10031.79757191050521 3604.250690967310675 13624.48705007916396 
	10031.79757191024692 3643.286535972657475 13593.35747285342586 
	10031.7975719098813 3692.217538478957977 13561.75293549874186 
	10031.79757190912278 3741.02608933903457 13538.24846556776174 
	10031.79757190874625 3788.127900536052039 13521.76857494316937 
	10031.79757190832788 3830.303546334353996 13510.46667401655941 
	10031.79757190741475 3870.310618357338626 13503.66936255644032 
	10031.79757190709643 3907.592880157416857 13500.52509751874095 
	10031.79757190671626 3944.992786427424107 13499.47529562888121 
	10031.79757190547753 3991.742605788133915 13502.10045258772516 
	10031.7975719041624 4040.982048323125127 13510.46672958894669 
	10031.79757190327837 4083.157722679943618 13521.76845199703894 
	10031.79757190288183 4130.259363712360937 13538.24871851140961 
	10031.79757190054806 4175.313635523601988 13559.94461183776002 
	10031.79757189934935 4212.284054077097608 13583.17665233175285 
	10031.79757189853262 4232.622283498215438 13597.6071271892306 
	10031.79757189836891 4257.352827472530407 13616.58338947833727 
	10031.79757189231714 4289.938986811233917 13645.70377433080466 
	10031.79757188731128 4327.379719212668533 13687.60024446217358 
	10031.79757188048825 4359.894247855900176 13733.42510562551433 
	10031.79757187413452 4387.07353477412471 13782.60239627458759 
	10031.79757186612187 4408.575798726132234 13834.51354170227205 
	10031.79757185946801 4424.130745500739067 13888.50579870688489 
	10031.79757185048038 4431.189516598454247 13930.05155451396422 
	10031.79757184923983 4433.938948651491955 13957.96919360143147 
	10031.79757184865048 4434.921786649989372 13971.96106120343211 
	10031.79757184792652 4435.413415528275436 13983.63934175180657 
	10031.7975718477137 4435.585523211148029 13991.81896279766988 
	10031.79757184764821 4435.628549813747668 13995.90937721366572 
	10031.79757184762821 4435.639306941261566 13997.95465976597188 
	10031.79757184762275 4435.641996160767121 13998.97731048615606 
	10031.79757184762275 4435.642668479585154 13999.48863702200288 
	10031.79757184761911 4435.642860567028038 13999.78082378258114 
	10031.79757184762093 4435.642892583578941 13999.92691719118739 
	10031.79757184762275 4435.642892583607136 13999.99996389537046 
	10115.13090518095669 4435.642892583606226 13999.99996389537046 
	10115.13090518096215 4435.642892583829962 14000.58433752883684 
	10115.1309051809767 4435.640843528571168 14001.75308478054103 
	10115.13090518098943 4435.628550154030563 14004.09055062664993 
	10115.13090518105855 4435.585521006083582 14008.18096464115115 
	10115.130905181255 4435.413426689727203 14016.36058766789756 
	10115.13090518205718 4434.725072141452983 14032.71016870475978 
	10115.13090518459649 4431.973823794111922 14065.33217508783491 
	10115.1309051928165 4424.130804473243188 14111.49412720480177 
	10115.13090519944672 4408.575818419934876 14165.48637524125479 
	10115.13090520672267 4387.073537622450203 14217.39749861422024 
	10115.13090521227241 4359.894286852686491 14266.57480761195802 
	10115.13090521804224 4332.798732816596385 14304.7621165571054 
	10115.13090521957747 4308.659499623116972 14333.34798190838774 
	10115.13090522108178 4282.956127895959071 14360.53606477994981 
	10115.13090522532548 4249.594284210280421 14390.35002071831877 
	10115.13090522892708 4207.366131646232134 14420.70981025568835 
	10115.13090523082792 4164.126662587957071 14445.673998778022 
	10115.13090523226856 4122.409020287592284 14464.49780571829979 
	10115.13090523408027 4083.157975327666463 14478.23203636988546 
	10115.13090523556457 4047.007212934796371 14487.91873366751679 
	10115.13090523623396 4010.233581677231086 14494.87657761330229 
	10115.13090523740357 3973.042849475812545 14499.06698318971576 
	10115.13090523848041 3935.642947730450032 14500.46637499777535 
	10115.13090523953724 3898.243056736372637 14499.06695544221839 
	10115.13090524042309 3861.052310294674498 14494.87657298128215 
	10115.13090524135077 3830.407659235797382 14489.07823905385703 
	10115.13090524160361 3806.203301541071141 14483.07535897612433 
	10115.13090524186555 3782.24027773925809 14476.17181539626472 
	10115.13090524260406 3752.802065469920763 14465.87098139587579 
	10115.13090524329891 3724.215992475617895 14453.39892820185742 
	10115.13090524352447 3701.954262905256655 14442.16056666263103 
	10115.13090524374456 3680.128205149839232 14430.09786425223137 
	10115.13090524399558 3659.001838452610627 14416.82327654346227 
	10115.13090524411382 3638.663760366416682 14402.39247678003994 
	10115.13090524429754 3618.879312059610129 14387.21151566357366 
	10115.130905244514 3595.239454445167212 14366.8676853777979 
	10115.13090524475592 3568.77508390484536 14340.40352193967374 
	10115.13090524495055 3544.362896962943523 14312.03539410174744 
	10115.13090524524523 3514.729365071222674 14271.88541404528405 
	10115.13090524552899 3494.93427464885599 14237.60174765788543 
	10115.13090524558902 3482.476855763981348 14211.31473661213386 
	10115.13090524559084 3479.011345878268457 14203.76045830751718 
	10115.13090524560175 3473.19475554011342 14190.42853969936914 
	10115.13090524565087 3462.563882645913509 14163.34218665629851 
	10115.13090524573454 3450.299907913893094 14123.58351766786473 
	10115.13090524581094 3442.055862686596811 14082.80126535959971 
	10115.13090524583095 3438.437912181856063 14053.9291844222189 
	10115.13090524583458 3436.989110072812309 14037.36897173213401 
	10115.13090524582913 3435.435626643417891 14012.48216890923868 
	10115.13090524580912 3435.436047440458879 13975.03584279549068 
	10115.13090524570362 3441.234512183398238 13917.07489680789513 
	10115.13090524550898 3451.897862833940962 13870.35387256016838 
	10115.1309052454726 3463.59083839001687 13834.82187535876255 
	10115.1309052454435 3472.265819887437829 13811.44177825565566 
	10115.13090524531253 3489.725780756296899 13771.42081223735295 
	10115.13090524481595 3520.978512473244336 13717.28667200885502 
	10115.13090524425934 3562.550907187998746 13665.15903805131347 
	10115.13090524383915 3604.25069096731022 13624.48705007916396 
	10115.13090524358086 3643.28653597265702 13593.35747285342586 
	10115.13090524321524 3692.217538478957522 13561.75293549874186 
	10115.13090524245672 3741.026089339034115 13538.24846556776174 
	10115.13090524208019 3788.127900536051584 13521.76857494316937 
	10115.13090524166182 3830.303546334353541 13510.46667401655941 
	10115.13090524074869 3870.310618357338171 13503.66936255644032 
	10115.13090524043037 3907.592880157416403 13500.52509751874095 
	10115.1309052400502 3944.992786427423653 13499.47529562888121 
	10115.13090523881147 3991.74260578813346 13502.10045258772516 
	10115.13090523749634 4040.982048323124673 13510.46672958894669 
	10115.13090523661231 4083.157722679943163 13521.76845199703894 
	10115.13090523621577 4130.259363712360027 13538.24871851140961 
	10115.130905233882 4175.313635523601079 13559.94461183776002 
	10115.13090523268329 4212.284054077096698 13583.17665233175285 
	10115.13090523186656 4232.622283498214529 13597.6071271892306 
	10115.13090523170285 4257.352827472529498 13616.58338947833727 
	10115.13090522565108 4289.938986811233008 13645.70377433080466 
	10115.13090522064522 4327.379719212667624 13687.60024446217358 
	10115.13090521382219 4359.894247855899266 13733.42510562551433 
	10115.13090520746846 4387.0735347741238 13782.60239627458759 
	10115.13090519945581 4408.575798726131325 13834.51354170227205 
	10115.13090519280195 4424.130745500738158 13888.50579870688489 
	10115.13090518381432 4431.189516598453338 13930.05155451396422 
	10115.13090518257377 4433.938948651491046 13957.96919360143147 
	10115.13090518198442 4434.921786649988462 13971.96106120343211 
	10115.13090518126046 4435.413415528274527 13983.63934175180657 
	10115.13090518104764 4435.58552321114712 13991.81896279766988 
	10115.13090518098215 4435.628549813746758 13995.90937721366572 
	10115.13090518096215 4435.639306941260656 13997.95465976597188 
	10115.13090518095669 4435.641996160766212 13998.97731048615606 
	10115.13090518095669 4435.642668479584245 13999.48863702200288 
	10115.13090518095305 4435.642860567027128 13999.78082378258114 
	10115.13090518095487 4435.642892583578032 13999.92691719118739 
	10115.13090518095669 4435.642892583606226 13999.99996389537046 
	10198.46423851260261 4435.642892583604407 13999.99996389537046 
	10198.46423851260988 4435.642892583827233 14000.58433752883684 
	10198.46423851262443 4435.640843528570258 14001.75308478054103 
	10198.46423851263535 4435.628550154027835 14004.09055062664993 
	10198.46423851270265 4435.585521006080853 14008.18096464115115 
	10198.4642385129082 4435.413426689723565 14016.36058766789756 
	10198.46423851372674 4434.725072141448436 14032.71016870475978 
	10198.46423851633153 4431.973823794108284 14065.33217508783491 
	10198.46423852475164 4424.13080447324046 14111.49412720480177 
	10198.46423853155102 4408.575818419931238 14165.48637524125479 
	10198.46423853900524 4387.073537622448384 14217.39749861422024 
	10198.46423854469322 4359.894286852683763 14266.57480761195802 
	10198.46423855060311 4332.798732816595475 14304.7621165571054 
	10198.46423855217836 4308.659499623115153 14333.34798190838774 
	10198.46423855371904 4282.956127895957252 14360.53606477994981 
	10198.46423855807006 4249.594284210278602 14390.35002071831877 
	10198.46423856176079 4207.366131646231224 14420.70981025568835 
	10198.46423856371075 4164.126662587956162 14445.673998778022 
	10198.46423856518595 4122.409020287591375 14464.49780571829979 
	10198.46423856704314 4083.157975327665554 14478.23203636988546 
	10198.46423856856381 4047.007212934795461 14487.91873366751679 
	10198.46423856924957 4010.233581677231086 14494.87657761330229 
	10198.46423857044829 3973.042849475811636 14499.06698318971576 
	10198.46423857155241 3935.642947730450032 14500.46637499777535 
	10198.46423857263471 3898.243056736372182 14499.06695544221839 
	10198.46423857354421 3861.052310294674498 14494.87657298128215 
	10198.4642385744919 3830.407659235796928 14489.07823905385703 
	10198.46423857475202 3806.203301541071596 14483.07535897612433 
	10198.46423857501941 3782.24027773925809 14476.17181539626472 
	10198.46423857577793 3752.802065469920308 14465.87098139587579 
	10198.46423857648915 3724.215992475617441 14453.39892820185742 
	10198.46423857672198 3701.954262905256201 14442.16056666263103 
	10198.46423857694572 3680.128205149838777 14430.09786425223137 
	10198.46423857720583 3659.001838452610627 14416.82327654346227 
	10198.46423857732407 3638.663760366416682 14402.39247678003994 
	10198.46423857751506 3618.879312059610584 14387.21151566357366 
	10198.46423857773516 3595.239454445167667 14366.8676853777979 
	10198.46423857798436 3568.775083904846269 14340.40352193967374 
	10198.46423857818445 3544.362896962944433 14312.03539410174744 
	10198.4642385784864 3514.729365071223583 14271.88541404528405 
	10198.46423857877562 3494.934274648856899 14237.60174765788543 
	10198.4642385788411 3482.476855763982257 14211.31473661213386 
	10198.46423857884292 3479.011345878269367 14203.76045830751718 
	10198.46423857885566 3473.194755540114329 14190.42853969936914 
	10198.46423857890659 3462.563882645914418 14163.34218665629851 
	10198.46423857899026 3450.299907913893549 14123.58351766786473 
	10198.4642385790703 3442.05586268659772 14082.80126535959971 
	10198.46423857909213 3438.437912181856973 14053.9291844222189 
	10198.46423857909576 3436.989110072813219 14037.36897173213401 
	10198.46423857909213 3435.4356266434188 14012.48216890923868 
	10198.4642385790703 3435.436047440459788 13975.03584279549068 
	10198.46423857896298 3441.234512183399147 13917.07489680789513 
	10198.46423857876471 3451.897862833941872 13870.35387256016838 
	10198.46423857872651 3463.59083839001778 13834.82187535876255 
	10198.4642385786974 3472.265819887438738 13811.44177825565566 
	10198.46423857856462 3489.725780756297809 13771.42081223735295 
	10198.4642385780553 3520.978512473245246 13717.28667200885502 
	10198.46423857748232 3562.550907187999655 13665.15903805131347 
	10198.46423857705304 3604.250690967311129 13624.48705007916396 
	10198.46423857678747 3643.286535972657475 13593.35747285342586 
	10198.46423857641275 3692.217538478958431 13561.75293549874186 
	10198.46423857563786 3741.026089339035025 13538.24846556776174 
	10198.46423857525042 3788.127900536052493 13521.76857494316937 
	10198.46423857481932 3830.303546334354451 13510.46667401655941 
	10198.46423857388618 3870.310618357339081 13503.66936255644032 
	10198.46423857355876 3907.592880157417312 13500.52509751874095 
	10198.46423857316768 3944.992786427424562 13499.47529562888121 
	10198.46423857189802 3991.74260578813437 13502.10045258772516 
	10198.46423857055015 4040.982048323125582 13510.46672958894669 
	10198.46423856964611 4083.157722679944072 13521.76845199703894 
	10198.46423856923684 4130.259363712360937 13538.24871851140961 
	10198.46423856684487 4175.313635523601988 13559.94461183776002 
	10198.46423856561523 4212.284054077097608 13583.17665233175285 
	10198.4642385647785 4232.622283498215438 13597.6071271892306 
	10198.46423856461115 4257.352827472530407 13616.58338947833727 
	10198.4642385584084 4289.938986811233917 13645.70377433080466 
	10198.46423855327703 4327.379719212668533 13687.60024446217358 
	10198.46423854628483 4359.894247855900176 13733.42510562551433 
	10198.46423853977285 4387.07353477412471 13782.60239627458759 
	10198.46423853155829 4408.575798726132234 13834.51354170227205 
	10198.4642385247389 4424.130745500739067 13888.50579870688489 
	10198.46423851552572 4431.189516598454247 13930.05155451396422 
	10198.46423851425425 4433.938948651491955 13957.96919360143147 
	10198.46423851364852 4434.921786649989372 13971.96106120343211 
	10198.46423851291001 4435.413415528275436 13983.63934175180657 
	10198.4642385126881 4435.585523211148029 13991.81896279766988 
	10198.46423851262443 4435.628549813747668 13995.90937721366572 
	10198.46423851260261 4435.639306941260656 13997.95465976597188 
	10198.46423851260079 4435.641996160766212 13998.97731048615606 
	10198.46423851259897 4435.642668479583335 13999.48863702200288 
	10198.46423851259897 4435.642860567026219 13999.78082378258114 
	10198.46423851260079 4435.642892583577122 13999.92691719118739 
	10198.46423851260261 4435.642892583604407 13999.99996389537046 
	10281.79757184593655 4435.642892583604407 13999.99996389537046 
	10281.79757184594382 4435.642892583827233 14000.58433752883684 
	10281.79757184595837 4435.640843528570258 14001.75308478054103 
	10281.79757184596929 4435.628550154027835 14004.09055062664993 
	10281.79757184603659 4435.585521006080853 14008.18096464115115 
	10281.79757184624214 4435.413426689723565 14016.36058766789756 
	10281.79757184706068 4434.725072141448436 14032.71016870475978 
	10281.79757184966547 4431.973823794108284 14065.33217508783491 
	10281.79757185808558 4424.13080447324046 14111.49412720480177 
	10281.79757186488496 4408.575818419931238 14165.48637524125479 
	10281.79757187233918 4387.073537622448384 14217.39749861422024 
	10281.79757187802716 4359.894286852683763 14266.57480761195802 
	10281.79757188393705 4332.798732816595475 14304.7621165571054 
	10281.7975718855123 4308.659499623115153 14333.34798190838774 
	10281.79757188705298 4282.956127895957252 14360.53606477994981 
	10281.797571891404 4249.594284210278602 14390.35002071831877 
	10281.79757189509473 4207.366131646231224 14420.70981025568835 
	10281.79757189704469 4164.126662587956162 14445.673998778022 
	10281.79757189851989 4122.409020287591375 14464.49780571829979 
	10281.79757190037708 4083.157975327665099 14478.23203636988546 
	10281.79757190189775 4047.007212934795007 14487.91873366751679 
	10281.79757190258351 4010.233581677230632 14494.87657761330229 
	10281.79757190378223 3973.042849475811181 14499.06698318971576 
	10281.79757190488635 3935.642947730449578 14500.46637499777535 
	10281.79757190596865 3898.243056736371727 14499.06695544221839 
	10281.79757190687815 3861.052310294674044 14494.87657298128215 
	10281.79757190782584 3830.407659235796473 14489.07823905385703 
	10281.79757190808596 3806.203301541071141 14483.07535897612433 
	10281.79757190835335 3782.240277739257635 14476.17181539626472 
	10281.79757190911187 3752.802065469919853 14465.87098139587579 
	10281.79757190982309 3724.215992475616986 14453.39892820185742 
	10281.79757191005592 3701.954262905255746 14442.16056666263103 
	10281.79757191027966 3680.128205149838323 14430.09786425223137 
	10281.79757191053977 3659.001838452610173 14416.82327654346227 
	10281.79757191065801 3638.663760366416227 14402.39247678003994 
	10281.797571910849 3618.879312059610129 14387.21151566357366 
	10281.7975719110691 3595.239454445167212 14366.8676853777979 
	10281.7975719113183 3568.775083904845815 14340.40352193967374 
	10281.79757191151839 3544.362896962943978 14312.03539410174744 
	10281.79757191182034 3514.729365071223128 14271.88541404528405 
	10281.79757191210956 3494.934274648856444 14237.60174765788543 
	10281.79757191217504 3482.476855763981803 14211.31473661213386 
	10281.79757191217686 3479.011345878268912 14203.76045830751718 
	10281.7975719121896 3473.194755540113874 14190.42853969936914 
	10281.79757191224053 3462.563882645913964 14163.34218665629851 
	10281.7975719123242 3450.299907913893094 14123.58351766786473 
	10281.79757191240424 3442.055862686597266 14082.80126535959971 
	10281.79757191242606 3438.437912181856518 14053.9291844222189 
	10281.7975719124297 3436.989110072812764 14037.36897173213401 
	10281.79757191242606 3435.435626643418345 14012.48216890923868 
	10281.79757191240424 3435.436047440459333 13975.03584279549068 
	10281.79757191229692 3441.234512183398692 13917.07489680789513 
	10281.79757191209865 3451.897862833941417 13870.35387256016838 
	10281.79757191206045 3463.590838390017325 13834.82187535876255 
	10281.79757191203134 3472.265819887438283 13811.44177825565566 
	10281.79757191189856 3489.725780756297354 13771.42081223735295 
	10281.79757191138924 3520.978512473244791 13717.28667200885502 
	10281.79757191081626 3562.550907187999201 13665.15903805131347 
	10281.79757191038698 3604.250690967310675 13624.48705007916396 
	10281.79757191012141 3643.28653597265702 13593.35747285342586 
	10281.79757190974669 3692.217538478957977 13561.75293549874186 
	10281.7975719089718 3741.02608933903457 13538.24846556776174 
	10281.79757190858436 3788.127900536052039 13521.76857494316937 
	10281.79757190815326 3830.303546334353996 13510.46667401655941 
	10281.79757190722012 3870.310618357338626 13503.66936255644032 
	10281.7975719068927 3907.592880157416857 13500.52509751874095 
	10281.79757190650162 3944.992786427424107 13499.47529562888121 
	10281.79757190523196 3991.742605788133915 13502.10045258772516 
	10281.79757190388409 4040.982048323125127 13510.46672958894669 
	10281.79757190298005 4083.157722679943618 13521.76845199703894 
	10281.79757190257078 4130.259363712360937 13538.24871851140961 
	10281.79757190017881 4175.313635523601988 13559.94461183776002 
	10281.79757189894917 4212.284054077097608 13583.17665233175285 
	10281.79757189811244 4232.622283498215438 13597.6071271892306 
	10281.79757189794509 4257.352827472530407 13616.58338947833727 
	10281.79757189174234 4289.938986811233917 13645.70377433080466 
	10281.79757188661097 4327.379719212668533 13687.60024446217358 
	10281.79757187961877 4359.894247855900176 13733.42510562551433 
	10281.79757187310679 4387.07353477412471 13782.60239627458759 
	10281.79757186489223 4408.575798726132234 13834.51354170227205 
	10281.79757185807284 4424.130745500739067 13888.50579870688489 
	10281.79757184885966 4431.189516598454247 13930.05155451396422 
	10281.79757184758819 4433.938948651491955 13957.96919360143147 
	10281.79757184698246 4434.921786649989372 13971.96106120343211 
	10281.79757184624395 4435.413415528275436 13983.63934175180657 
	10281.79757184602204 4435.585523211148029 13991.81896279766988 
	10281.79757184595837 4435.628549813747668 13995.90937721366572 
	10281.79757184593655 4435.639306941260656 13997.95465976597188 
	10281.79757184593473 4435.641996160766212 13998.97731048615606 
	10281.79757184593291 4435.642668479583335 13999.48863702200288 
	10281.79757184593291 4435.642860567026219 13999.78082378258114 
	10281.79757184593473 4435.642892583577122 13999.92691719118739 
	10281.79757184593655 4435.642892583604407 13999.99996389537046 
	0 
	
	0 
	0 
	89 0 0.0005580357142857142547 0.001116071428571428509 0.002232142857142857019 0.004464285714285714038 0.008928571428571428076 0.01785714285714285615 0.0357142857142857123 0.05357142857142856845 0.07142857142857142461 0.08928571428571427382 0.1071428571428571369 0.1160714285714285754 0.125 0.1428571428571428492 0.1587301587301587213 0.1746031746031745935 0.1904761904761904656 0.2023809523809523836 0.2142857142857142738 0.226190476190476164 0.238095238095238082 0.2499999999999999722 0.2619047619047618625 0.2738095238095237804 0.2857142857142856984 0.2916666666666666297 0.2976190476190476164 0.3095238095238095344 0.3214285714285713969 0.3273809523809523281 0.3333333333333333148 0.3452380952380952328 0.351190476190476164 0.3571428571428570953 0.3690476190476190133 0.3809523809523809312 0.3928571428571428492 0.4047619047619047672 0.4285714285714285476 0.4305555555555555802 0.4325396825396825573 0.4365079365079365115 0.4444444444444444198 0.4603174603174602919 0.476190476190476164 0.4841269841269840724 0.4880952380952380265 0.4920634920634920362 0.5079365079365079083 0.5238095238095237249 0.5476190476190475609 0.5535714285714286031 0.5595238095238095344 0.5714285714285713969 0.5952380952380951218 0.6190476190476189577 0.6349206349206348854 0.650793650793650702 0.6666666666666666297 0.6904761904761904656 0.7023809523809523281 0.7142857142857141906 0.7321428571428569843 0.7410714285714283811 0.749999999999999889 0.7678571428571427937 0.7857142857142855874 0.7976190476190474499 0.8095238095238094234 0.8333333333333332593 0.8452380952380951218 0.851190476190476053 0.8571428571428570953 0.875 0.8928571428571427937 0.9107142857142856984 0.9285714285714286031 0.9464285714285713969 0.9642857142857143016 0.9821428571428572063 0.9866071428571429047 0.9910714285714286031 0.9977678571428572063 0.9988839285714286031 0.9994419642857143016 0.9997209821428572063 0.9998604910714286031 0.9999302455357143016 
	0 
	0 
	0 
	F 1 F 0 F 1 F 0 } I I I I #
tcoedge-coedge $-1 -1 $-1 $14 $14 $18 $19 reversed $9 $20 -6.283185307179586232 -0 #
tcoedge-coedge $-1 -1 $-1 $21 $22 $11 $16 reversed $12 $23 -6.283185307179586232 -0 #
tedge-edge $-1 -1 $-1 $24 0 $24 6.283185307179586232 $15 $25 forward @7 unknown 0.0007706402388084636259 #
pcurve $-1 -1 $-1 0 forward { exppc nurbs 2 periodic 5 
	0 2 1.570796326794896558 2 3.141592653589793116 2 4.712388980384689674 2 6.283185307179586232 2 
	0 500 1 
	-500 500 0.707106781186543798 
	-500 0 1 
	-500 -500 0.7071067811865463515 
	0 -500 1 
	500 -500 0.7071067811865463515 
	500 0 1 
	500 500 0.707106781186543798 
	0 500 1 
	0 
	plane 10281.79757191538738 3935.642797989780775 14000.00000000000182 1 -3.637978807091713027e-15 0 0 0 -1 forward_v I I I I 
	} 0 0 #
tcoedge-coedge $-1 -1 $-1 $22 $21 $14 $19 forward $12 $26 0 6.283185307179586232 #
tedge-edge $-1 -1 $-1 $27 0 $27 6.283185307179586232 $18 $28 forward @7 unknown 0.000770640238802449448 #
pcurve $-1 -1 $-1 0 forward { exppc nurbs 2 periodic 5 
	-6.283185307179586232 2 -4.712388980384689674 2 -3.141592653589793116 2 -1.570796326794896558 2 0 2 
	0 500 1 
	500 500 0.707106781186543798 
	500 0 1 
	500 -500 0.7071067811865463515 
	0 -500 1 
	-500 -500 0.7071067811865463515 
	-500 0 1 
	-500 500 0.707106781186543798 
	0 500 1 
	0 
	plane 10031.79757191538738 3935.642797989781684 14000.00000000000182 -1 3.637978807091713027e-15 -0 0 0 -1 reverse_v I I I I 
	} 0 0 #
coedge $-1 -1 $-1 $18 $15 $22 $29 reversed $12 $30 #
coedge $-1 -1 $-1 $15 $18 $21 $29 forward $12 $31 #
pcurve $-1 -1 $-1 0 forward { exppc nubs 1 periodic 2 
	-6.283185307179586232 1 -0 1 
	1 1 
	0 1 
	2.726396620975368931e-13 
	spline forward { ref 0 } I I I I 
	} 0 0 #
tvertex-vertex $-1 -1 $-1 $16 $32 0.0001012499023405883904 #
ellipse-curve $-1 -1 $-1 10281.79757191538738 3935.642797989780775 14000.00000000000182 1 -3.637978807091713027e-15 0 1.818989403545856476e-12 500 0 1 I I #
pcurve $-1 -1 $-1 0 forward { exppc nubs 1 periodic 2 
	0 1 6.283185307179586232 1 
	0 0 
	1 0 
	4.4114023995510105e-13 
	spline forward { ref 0 } I I I I 
	} 0 0 #
tvertex-vertex $-1 -1 $-1 $19 $33 0.0001012499028973842515 #
ellipse-curve $-1 -1 $-1 10031.79757191538738 3935.642797989781684 14000.00000000000182 1 -3.637978807091713027e-15 0 1.818989403545856476e-12 500 0 1 I I #
edge $-1 -1 $-1 $27 2.710657995719291018e-10 $24 1 $22 $34 forward @7 tangent #
pcurve $-1 -1 $-1 -1 $34 0 0 #
pcurve $-1 -1 $-1 1 $34 1 0 #
point $-1 -1 $-1 10281.7975719153892 4435.642797989780775 14000.00000000000182 #
point $-1 -1 $-1 10031.7975719153892 4435.642797989781684 14000.00000000000182 #
intcurve-curve $-1 -1 $-1 forward { parcur full nubs 3 open 2 
	0 3 1 3 
	10031.79757184762275 4435.642892583607136 13999.99996389537046 
	10115.13090518095669 4435.642892583606226 13999.99996389537046 
	10198.46423851260261 4435.642892583604407 13999.99996389537046 
	10281.79757184593655 4435.642892583604407 13999.99996389537046 
	0 
	
	spline forward { ref 0 } I I I I 
	null_surface 
	nubs 1 open 2 
	0 1 1 1 
	0 0 
	0 1 
	
	nullbs 
	I I 
	0 
	0 
	0 
	surf1 } F 2.710657995719291018e-10 F 1 #
End-of-ACIS-data 