700 0 1 0           
4 LibG 20 ASM 224.0.1.65535 NT 24 Wed Jul 17 12:52:13 2019 
1000 9.999999999999999547e-07 1.000000000000000036e-10 
body $-1 -1 $-1 $1 $-1 $2 #
lump $-1 -1 $-1 $-1 $3 $0 #
transform $-1 -1 1 0 0 0 1 0 0 0 1 0 0 0 1 no_rotate no_reflect no_shear #
shell $-1 -1 $-1 $-1 $-1 $4 $-1 $1 #
face $-1 -1 $-1 $5 $6 $3 $-1 $7 forward single #
face $-1 -1 $-1 $8 $9 $3 $-1 $10 reversed single #
loop $-1 -1 $-1 $-1 $11 $4 #
plane-surface $-1 -1 $-1 5781.79757191538738 3935.642797989797145 14000.00000000000182 1 -3.637978807091713027e-15 0 0 0 -1 forward_v I I I I #
face $-1 -1 $-1 $-1 $12 $3 $-1 $13 forward single #
loop $-1 -1 $-1 $-1 $14 $5 #
plane-surface $-1 -1 $-1 5531.79757191538738 3935.642797989798055 14000.00000000000182 1 -3.637978807091713027e-15 0 0 0 -1 forward_v I I I I #
tcoedge-coedge $-1 -1 $-1 $11 $11 $15 $16 forward $6 $17 0 6.283185307179586232 #
loop $-1 -1 $-1 $-1 $18 $8 #
spline-surface $-1 -1 $-1 forward { exactsur full nubs 3 3 periodic open none none 90 2 
	0 3 0.001116071428571428509 1 0.002232142857142857019 1 0.004464285714285714038 1 0.008928571428571428076 1 
	0.01785714285714285615 1 0.0357142857142857123 1 0.05357142857142856845 1 0.07142857142857142461 1 0.08928571428571427382 1 
	0.1071428571428571369 1 0.1160714285714285754 1 0.125 1 0.1428571428571428492 1 0.1587301587301587213 1 
	0.1746031746031745935 1 0.1904761904761904656 1 0.2023809523809523836 1 0.2142857142857142738 1 0.238095238095238082 1 
	0.2619047619047618625 1 0.2857142857142856984 1 0.2976190476190476164 1 0.3095238095238095344 1 0.3154761904761904656 1 
	0.3214285714285713969 1 0.3333333333333333148 1 0.3452380952380952328 1 0.3571428571428570953 1 0.3690476190476190133 1 
	0.375 1 0.3779761904761904656 1 0.3809523809523809312 1 0.3869047619047618625 1 0.3928571428571428492 1 
	0.4047619047619047672 1 0.4166666666666666297 1 0.4285714285714285476 1 0.4444444444444444198 1 0.4603174603174602919 1 
	0.476190476190476164 1 0.4801587301587301182 1 0.4821428571428570953 1 0.4841269841269840724 1 0.4861111111111110494 1 
	0.4880952380952380265 1 0.4900793650793650036 1 0.4910714285714284921 1 0.4915674603174602364 1 0.491815476190476164 1 
	0.4920634920634920362 1 0.5158730158730158166 1 0.5238095238095237249 1 0.5357142857142855874 1 0.5476190476190475609 1 
	0.5595238095238095344 1 0.5714285714285713969 1 0.5952380952380951218 1 0.6190476190476189577 1 0.6349206349206348854 1 
	0.650793650793650702 1 0.6666666666666666297 1 0.6904761904761904656 1 0.7023809523809523281 1 0.7142857142857141906 1 
	0.7321428571428569843 1 0.749999999999999889 1 0.7678571428571427937 1 0.7857142857142855874 1 0.8095238095238094234 1 
	0.8214285714285713969 1 0.8333333333333332593 1 0.8452380952380951218 1 0.8571428571428570953 1 0.875 1 
	0.8928571428571427937 1 0.9107142857142856984 1 0.9285714285714286031 1 0.9464285714285713969 1 0.9642857142857143016 1 
	0.9732142857142858094 1 0.9821428571428572063 1 0.9910714285714286031 1 0.9955357142857143016 1 0.9977678571428572063 1 
	0.9988839285714286031 1 0.9994419642857143016 1 0.9997209821428572063 1 0.9998604910714286031 1 1 3 
	0 3 1 3 
	5531.797571862609402 4435.642812921227232 14000.00002328336996 
	5531.797571862614859 4435.642812918638811 14001.16877053969438 
	5531.797571862659424 4435.634617559636354 14003.50626503152671 
	5531.79757186270308 4435.585441542593799 14008.18102379915945 
	5531.797571862898621 4435.413347045229784 14016.36064621092555 
	5531.797571863623489 4434.724992261127227 14032.71022494973113 
	5531.797571865946338 4431.973742038298951 14065.33222287565331 
	5531.797571873390552 4424.130717463617657 14111.49414829675334 
	5531.797571879365933 4408.575721120223534 14165.48636766950221 
	5531.797571885942489 4387.073436603751361 14217.39746817569721 
	5531.797571890906511 4359.894161664858984 14266.5747344991596 
	5531.797571896247973 4332.798621963104779 14304.76204482145658 
	5531.797571897524904 4308.659343904359957 14333.34785329171609 
	5531.797571899342984 4282.956071531131784 14360.53604845231166 
	5531.79757190024884 4249.594184146459156 14390.34992868368317 
	5531.797571904367942 4207.365963830644432 14420.70968529832317 
	5531.797571904717188 4164.126537713282232 14445.67387859096198 
	5531.797571905514815 4122.408864780431941 14464.49776028557972 
	5531.797571906128724 4083.157743433459018 14478.23155827438677 
	5531.797571906884514 4034.956951620602922 14491.14851322690629 
	5531.797571907772181 3973.147684016812036 14500.46600906845197 
	5531.797571909244652 3898.137924469828704 14500.46559459081436 
	5531.797571910335137 3836.328573409849923 14491.14871583704189 
	5531.797571910553415 3788.127693914031624 14478.23197939667625 
	5531.797571911044543 3758.689398964805605 14467.93155748194476 
	5531.797571911159139 3735.650081477948788 14458.3881119017733 
	5531.79757191128283 3712.983604106841995 14447.99021618177539 
	5531.797571911627529 3685.409439786903022 14433.41682197214868 
	5531.797571911973137 3653.719857754550958 14413.50492276112163 
	5531.797571912075909 3623.606887485047992 14391.28057633323442 
	5531.797571912204148 3599.96699139479324 14370.93672239430634 
	5531.797571912227795 3584.251847785868449 14355.79850141963107 
	5531.79757191223689 3575.519024637871098 14346.90083466034775 
	5531.797571912238709 3566.954103156301699 14337.84143091395708 
	5531.797571912242347 3556.568417621876961 14326.21982431256947 
	5531.797571912241438 3540.65815631831947 14307.01697544149101 
	5531.797571912202329 3522.137748242123962 14281.92290609761767 
	5531.797571912163221 3502.22599288915535 14250.23326097618337 
	5531.797571912074091 3482.794613544854201 14213.46782272609198 
	5531.797571911869454 3465.016682988364209 14171.29383570105347 
	5531.797571911778505 3450.30004802751364 14123.58336917239103 
	5531.797571911118212 3442.880168594826955 14086.87935934879351 
	5531.797571911041814 3439.755616952136734 14064.2366390331681 
	5531.797571911028172 3438.773573727166422 14055.9836078806984 
	5531.797571911017258 3438.114277513526304 14049.78513115920214 
	5531.797571911002706 3437.532296801765824 14043.57891818288408 
	5531.797571910989973 3437.027735308370666 14037.36593197048205 
	5531.797571910978149 3436.67183846397711 14032.18360398985715 
	5531.797571910969964 3436.45664947816158 14028.55385700004445 
	5531.797571910971783 3436.357534111537916 14026.73850673349261 
	5531.797571910969054 3436.303331875427375 14025.70103551707143 
	5531.797571911058185 3435.01433928872666 14000.28092741697947 
	5531.797571911345585 3435.853174255458725 13966.6936405415654 
	5531.797571911381056 3441.539724392075641 13921.32329517647122 
	5531.797571911510204 3447.724138617433255 13888.6356257966745 
	5531.79757191157023 3457.410783304209872 13852.48474719223668 
	5531.797571911623891 3469.772011429275153 13817.15900295253596 
	5531.797571911648447 3489.726310988120531 13771.42079906085382 
	5531.797571911621162 3520.978891259247575 13717.28659515815525 
	5531.797571911497471 3562.551255941745694 13665.15895760753301 
	5531.797571911325576 3604.250975692182692 13624.48693235000974 
	5531.797571911253726 3643.286843951596893 13593.35737634048746 
	5531.797571911010891 3692.217814660226395 13561.75280786051735 
	5531.797571910540682 3741.026347879449531 13538.24831844735127 
	5531.797571910277838 3788.128143861826175 13521.76839709018532 
	5531.797571909949511 3830.303802615056156 13510.46651822797867 
	5531.797571909255566 3879.543202289888541 13502.10042481142409 
	5531.797571908432474 3935.64308420231464 13498.94961552217501 
	5531.797571907494785 3991.742706727950917 13502.1006618449137 
	5531.797571906254234 4053.292483095642638 13512.55667178654949 
	5531.797571904793585 4107.049652744841296 13529.13949041925116 
	5531.797571904397046 4152.787030041798971 13549.09584970678043 
	5531.797571903593962 4185.876182978070574 13566.5833561211839 
	5531.797571902656273 4217.565605554182184 13586.49551131090448 
	5531.797571901714036 4252.697611080952811 13612.42356835247847 
	5531.797571899038303 4289.938959628520024 13645.70406528411331 
	5531.797571897233865 4327.379663941881518 13687.60048167357127 
	5531.797571890722793 4359.894149125559125 13733.42537532931965 
	5531.797571884450917 4387.073421220651653 13782.60257946194179 
	5531.797571878189956 4408.575842482450753 13834.51368167136025 
	5531.797571870679349 4421.537996192002538 13879.5072159033698 
	5531.797571868255545 4428.836876004880651 13916.20300896911795 
	5531.797571866078215 4432.759654807542574 13943.98841420442113 
	5531.797571863682606 4434.725035928876423 13967.28981718970499 
	5531.797571862915902 4435.413339138513038 13983.63940124422697 
	5531.7975718626858 4435.585442873366446 13991.81902259230628 
	5531.797571862629411 4435.62847026657164 13995.90943663244616 
	5531.79757186261304 4435.639227262014174 13997.95471917677241 
	5531.797571862611221 4435.641916505918743 13998.97736987896496 
	5531.797571862607583 4435.642684869794721 13999.56174306192042 
	5531.797571862608493 4435.642812921551013 13999.85392987632804 
	5531.797571862609402 4435.642812921227232 14000.00002328336996 
	5615.130905195942432 4435.642812921226323 14000.00002328336996 
	5615.130905195947889 4435.642812918637901 14001.16877053969438 
	5615.130905195992455 4435.634617559635444 14003.50626503152671 
	5615.13090519603611 4435.585441542592889 14008.18102379915945 
	5615.130905196231652 4435.413347045228875 14016.36064621092555 
	5615.130905196956519 4434.724992261126317 14032.71022494973113 
	5615.130905199279368 4431.973742038298042 14065.33222287565331 
	5615.130905206723583 4424.130717463616747 14111.49414829675334 
	5615.130905212698963 4408.575721120222624 14165.48636766950221 
	5615.130905219275519 4387.073436603750451 14217.39746817569721 
	5615.130905224239541 4359.894161664858075 14266.5747344991596 
	5615.130905229581003 4332.798621963103869 14304.76204482145658 
	5615.130905230857934 4308.659343904359048 14333.34785329171609 
	5615.130905232676014 4282.956071531130874 14360.53604845231166 
	5615.130905233581871 4249.594184146458247 14390.34992868368317 
	5615.130905237700972 4207.365963830643523 14420.70968529832317 
	5615.130905238050218 4164.126537713281323 14445.67387859096198 
	5615.130905238847845 4122.408864780431031 14464.49776028557972 
	5615.130905239461754 4083.157743433458563 14478.23155827438677 
	5615.130905240217544 4034.956951620602467 14491.14851322690629 
	5615.130905241105211 3973.147684016811581 14500.46600906845197 
	5615.130905242577683 3898.137924469828249 14500.46559459081436 
	5615.130905243668167 3836.328573409849469 14491.14871583704189 
	5615.130905243886446 3788.12769391403117 14478.23197939667625 
	5615.130905244377573 3758.68939896480515 14467.93155748194476 
	5615.130905244492169 3735.650081477948333 14458.3881119017733 
	5615.13090524461586 3712.98360410684154 14447.99021618177539 
	5615.130905244960559 3685.409439786902567 14433.41682197214868 
	5615.130905245306167 3653.719857754550503 14413.50492276112163 
	5615.13090524540894 3623.606887485047537 14391.28057633323442 
	5615.130905245537178 3599.966991394792785 14370.93672239430634 
	5615.130905245560825 3584.251847785867994 14355.79850141963107 
	5615.13090524556992 3575.519024637870643 14346.90083466034775 
	5615.130905245571739 3566.954103156301244 14337.84143091395708 
	5615.130905245575377 3556.568417621876506 14326.21982431256947 
	5615.130905245574468 3540.658156318319016 14307.01697544149101 
	5615.130905245535359 3522.137748242123507 14281.92290609761767 
	5615.130905245496251 3502.225992889154895 14250.23326097618337 
	5615.130905245407121 3482.794613544853746 14213.46782272609198 
	5615.130905245202484 3465.016682988363755 14171.29383570105347 
	5615.130905245111535 3450.300048027513185 14123.58336917239103 
	5615.130905244451242 3442.8801685948265 14086.87935934879351 
	5615.130905244374844 3439.755616952136279 14064.2366390331681 
	5615.130905244361202 3438.773573727165967 14055.9836078806984 
	5615.130905244350288 3438.114277513525849 14049.78513115920214 
	5615.130905244335736 3437.532296801765369 14043.57891818288408 
	5615.130905244323003 3437.027735308370211 14037.36593197048205 
	5615.13090524431118 3436.671838463976655 14032.18360398985715 
	5615.130905244302994 3436.456649478161125 14028.55385700004445 
	5615.130905244304813 3436.357534111537461 14026.73850673349261 
	5615.130905244302085 3436.30333187542692 14025.70103551707143 
	5615.130905244391215 3435.014339288726205 14000.28092741697947 
	5615.130905244678615 3435.853174255458271 13966.6936405415654 
	5615.130905244714086 3441.539724392075186 13921.32329517647122 
	5615.130905244843234 3447.7241386174328 13888.6356257966745 
	5615.130905244903261 3457.410783304209417 13852.48474719223668 
	5615.130905244956921 3469.772011429274698 13817.15900295253596 
	5615.130905244981477 3489.726310988120076 13771.42079906085382 
	5615.130905244954192 3520.978891259247121 13717.28659515815525 
	5615.130905244830501 3562.551255941745239 13665.15895760753301 
	5615.130905244658607 3604.250975692182237 13624.48693235000974 
	5615.130905244586756 3643.286843951596438 13593.35737634048746 
	5615.130905244343921 3692.21781466022594 13561.75280786051735 
	5615.130905243873713 3741.026347879449077 13538.24831844735127 
	5615.130905243610869 3788.12814386182572 13521.76839709018532 
	5615.130905243282541 3830.303802615055702 13510.46651822797867 
	5615.130905242588597 3879.543202289888086 13502.10042481142409 
	5615.130905241765504 3935.643084202314185 13498.94961552217501 
	5615.130905240827815 3991.742706727950463 13502.1006618449137 
	5615.130905239587264 4053.292483095642183 13512.55667178654949 
	5615.130905238126616 4107.049652744840387 13529.13949041925116 
	5615.130905237730076 4152.787030041798062 13549.09584970678043 
	5615.130905236926992 4185.876182978069664 13566.5833561211839 
	5615.130905235989303 4217.565605554181275 13586.49551131090448 
	5615.130905235047067 4252.697611080951901 13612.42356835247847 
	5615.130905232371333 4289.938959628519115 13645.70406528411331 
	5615.130905230566896 4327.379663941880608 13687.60048167357127 
	5615.130905224055823 4359.894149125558215 13733.42537532931965 
	5615.130905217783948 4387.073421220650744 13782.60257946194179 
	5615.130905211522986 4408.575842482449843 13834.51368167136025 
	5615.130905204012379 4421.537996192001629 13879.5072159033698 
	5615.130905201588575 4428.836876004879741 13916.20300896911795 
	5615.130905199411245 4432.759654807541665 13943.98841420442113 
	5615.130905197015636 4434.725035928875513 13967.28981718970499 
	5615.130905196248932 4435.413339138512129 13983.63940124422697 
	5615.13090519601883 4435.585442873365537 13991.81902259230628 
	5615.130905195962441 4435.62847026657073 13995.90943663244616 
	5615.13090519594607 4435.639227262013264 13997.95471917677241 
	5615.130905195944251 4435.641916505917834 13998.97736987896496 
	5615.130905195940613 4435.642684869793811 13999.56174306192042 
	5615.130905195941523 4435.642812921550103 13999.85392987632804 
	5615.130905195942432 4435.642812921226323 14000.00002328336996 
	5698.464238526892586 4435.642812921225413 14000.00002328336996 
	5698.464238526898953 4435.642812918636992 14001.16877053969438 
	5698.464238526947156 4435.634617559634535 14003.50626503152671 
	5698.464238526990812 4435.58544154259107 14008.18102379915945 
	5698.464238527198177 4435.413347045228875 14016.36064621092555 
	5698.464238527953967 4434.724992261125408 14032.71022494973113 
	5698.464238530382318 4431.973742038298951 14065.33222287565331 
	5698.464238538161226 4424.130717463616747 14111.49414829675334 
	5698.464238544406726 4408.575721120221715 14165.48636766950221 
	5698.464238551280687 4387.073436603749542 14217.39746817569721 
	5698.464238556469354 4359.894161664858075 14266.5747344991596 
	5698.464238562053652 4332.798621963103869 14304.76204482145658 
	5698.46423856338879 4308.659343904359048 14333.34785329171609 
	5698.464238565289634 4282.956071531130874 14360.53604845231166 
	5698.464238566236418 4249.594184146458247 14390.34992868368317 
	5698.464238570542875 4207.365963830642613 14420.70968529832317 
	5698.464238570906673 4164.126537713280413 14445.67387859096198 
	5698.464238571741589 4122.408864780430122 14464.49776028557972 
	5698.464238572382783 4083.157743433457654 14478.23155827438677 
	5698.464238573171315 4034.956951620602013 14491.14851322690629 
	5698.464238574099909 3973.147684016810217 14500.46600906845197 
	5698.464238575637864 3898.13792446982734 14500.46559459081436 
	5698.464238576777461 3836.328573409848559 14491.14871583704189 
	5698.464238577005744 3788.12769391403026 14478.23197939667625 
	5698.46423857751779 3758.689398964804695 14467.93155748194476 
	5698.464238577637843 3735.650081477947879 14458.3881119017733 
	5698.464238577766992 3712.98360410684154 14447.99021618177539 
	5698.464238578128061 3685.409439786902112 14433.41682197214868 
	5698.464238578488221 3653.719857754550503 14413.50492276112163 
	5698.464238578596451 3623.606887485047082 14391.28057633323442 
	5698.464238578730146 3599.966991394792785 14370.93672239430634 
	5698.464238578753793 3584.251847785867994 14355.79850141963107 
	5698.464238578763798 3575.519024637870643 14346.90083466034775 
	5698.464238578764707 3566.954103156301699 14337.84143091395708 
	5698.464238578768345 3556.568417621876506 14326.21982431256947 
	5698.464238578767436 3540.658156318318561 14307.01697544149101 
	5698.464238578726508 3522.137748242123507 14281.92290609761767 
	5698.464238578685581 3502.225992889154895 14250.23326097618337 
	5698.464238578591903 3482.794613544853746 14213.46782272609198 
	5698.464238578376353 3465.016682988363755 14171.29383570105347 
	5698.464238578282675 3450.30004802751364 14123.58336917239103 
	5698.46423857759055 3442.8801685948265 14086.87935934879351 
	5698.464238577512333 3439.755616952136279 14064.2366390331681 
	5698.464238577496872 3438.773573727165967 14055.9836078806984 
	5698.464238577485958 3438.114277513525849 14049.78513115920214 
	5698.464238577472315 3437.532296801765369 14043.57891818288408 
	5698.464238577458673 3437.027735308370666 14037.36593197048205 
	5698.46423857744594 3436.67183846397711 14032.18360398985715 
	5698.464238577438664 3436.45664947816158 14028.55385700004445 
	5698.464238577438664 3436.357534111537461 14026.73850673349261 
	5698.464238577436845 3436.30333187542692 14025.70103551707143 
	5698.464238577529613 3435.014339288726205 14000.28092741697947 
	5698.464238577829747 3435.853174255458271 13966.6936405415654 
	5698.464238577867945 3441.539724392075641 13921.32329517647122 
	5698.464238578001641 3447.7241386174328 13888.6356257966745 
	5698.464238578064396 3457.410783304209417 13852.48474719223668 
	5698.464238578120785 3469.772011429274698 13817.15900295253596 
	5698.464238578146251 3489.726310988120076 13771.42079906085382 
	5698.464238578119875 3520.978891259247121 13717.28659515815525 
	5698.464238577988908 3562.551255941745694 13665.15895760753301 
	5698.464238577810647 3604.250975692183147 13624.48693235000974 
	5698.464238577735159 3643.286843951596438 13593.35737634048746 
	5698.46423857748141 3692.21781466022594 13561.75280786051735 
	5698.464238576988464 3741.026347879449986 13538.24831844735127 
	5698.464238576713797 3788.128143861826175 13521.76839709018532 
	5698.464238576370008 3830.303802615056611 13510.46651822797867 
	5698.46423857564514 3879.543202289888541 13502.10042481142409 
	5698.464238574785668 3935.643084202315094 13498.94961552217501 
	5698.464238573805233 3991.742706727951372 13502.1006618449137 
	5698.464238572509203 4053.292483095643092 13512.55667178654949 
	5698.464238570982161 4107.049652744841296 13529.13949041925116 
	5698.464238570567431 4152.787030041798971 13549.09584970678043 
	5698.464238569728877 4185.876182978069664 13566.5833561211839 
	5698.464238568748442 4217.565605554182184 13586.49551131090448 
	5698.464238567764369 4252.697611080951901 13612.42356835247847 
	5698.464238564965854 4289.938959628520024 13645.70406528411331 
	5698.464238563079562 4327.379663941881518 13687.60048167357127 
	5698.464238556274722 4359.894149125559125 13733.42537532931965 
	5698.464238549718175 4387.073421220651653 13782.60257946194179 
	5698.46423854317527 4408.575842482450753 13834.51368167136025 
	5698.464238535326331 4421.537996192002538 13879.5072159033698 
	5698.464238532792479 4428.836876004879741 13916.20300896911795 
	5698.464238530517832 4432.759654807541665 13943.98841420442113 
	5698.464238528013993 4434.725035928874604 13967.28981718970499 
	5698.464238527213638 4435.413339138512129 13983.63940124422697 
	5698.464238526972622 4435.585442873363718 13991.81902259230628 
	5698.464238526912595 4435.62847026657073 13995.90943663244616 
	5698.464238526895315 4435.639227262013264 13997.95471917677241 
	5698.464238526893496 4435.641916505917834 13998.97736987896496 
	5698.464238526890767 4435.642684869792902 13999.56174306192042 
	5698.464238526891677 4435.642812921549194 13999.85392987632804 
	5698.464238526892586 4435.642812921225413 14000.00002328336996 
	5781.797571860225617 4435.642812921225413 14000.00002328336996 
	5781.797571860231983 4435.642812918636992 14001.16877053969438 
	5781.797571860280186 4435.634617559634535 14003.50626503152671 
	5781.797571860323842 4435.58544154259107 14008.18102379915945 
	5781.797571860531207 4435.413347045228875 14016.36064621092555 
	5781.797571861286997 4434.724992261125408 14032.71022494973113 
	5781.797571863715348 4431.973742038298951 14065.33222287565331 
	5781.797571871494256 4424.130717463616747 14111.49414829675334 
	5781.797571877739756 4408.575721120221715 14165.48636766950221 
	5781.797571884613717 4387.073436603749542 14217.39746817569721 
	5781.797571889802384 4359.894161664858075 14266.5747344991596 
	5781.797571895386682 4332.798621963103869 14304.76204482145658 
	5781.79757189672182 4308.659343904359048 14333.34785329171609 
	5781.797571898622664 4282.956071531130874 14360.53604845231166 
	5781.797571899569448 4249.594184146458247 14390.34992868368317 
	5781.797571903875905 4207.365963830642613 14420.70968529832317 
	5781.797571904239703 4164.126537713280413 14445.67387859096198 
	5781.797571905074619 4122.408864780430122 14464.49776028557972 
	5781.797571905715813 4083.157743433457199 14478.23155827438677 
	5781.797571906504345 4034.956951620601558 14491.14851322690629 
	5781.797571907432939 3973.147684016809762 14500.46600906845197 
	5781.797571908970895 3898.137924469826885 14500.46559459081436 
	5781.797571910110491 3836.328573409848104 14491.14871583704189 
	5781.797571910338775 3788.127693914029805 14478.23197939667625 
	5781.79757191085082 3758.689398964804241 14467.93155748194476 
	5781.797571910970873 3735.650081477947424 14458.3881119017733 
	5781.797571911100022 3712.983604106841085 14447.99021618177539 
	5781.797571911461091 3685.409439786901657 14433.41682197214868 
	5781.797571911821251 3653.719857754550048 14413.50492276112163 
	5781.797571911929481 3623.606887485046627 14391.28057633323442 
	5781.797571912063177 3599.966991394792331 14370.93672239430634 
	5781.797571912086823 3584.25184778586754 14355.79850141963107 
	5781.797571912096828 3575.519024637870189 14346.90083466034775 
	5781.797571912097737 3566.954103156301244 14337.84143091395708 
	5781.797571912101375 3556.568417621876051 14326.21982431256947 
	5781.797571912100466 3540.658156318318106 14307.01697544149101 
	5781.797571912059539 3522.137748242123052 14281.92290609761767 
	5781.797571912018611 3502.22599288915444 14250.23326097618337 
	5781.797571911924933 3482.794613544853291 14213.46782272609198 
	5781.797571911709383 3465.0166829883633 14171.29383570105347 
	5781.797571911615705 3450.300048027513185 14123.58336917239103 
	5781.79757191092358 3442.880168594826046 14086.87935934879351 
	5781.797571910845363 3439.755616952135824 14064.2366390331681 
	5781.797571910829902 3438.773573727165513 14055.9836078806984 
	5781.797571910818988 3438.114277513525394 14049.78513115920214 
	5781.797571910805345 3437.532296801764915 14043.57891818288408 
	5781.797571910791703 3437.027735308370211 14037.36593197048205 
	5781.79757191077897 3436.671838463976655 14032.18360398985715 
	5781.797571910771694 3436.456649478161125 14028.55385700004445 
	5781.797571910771694 3436.357534111537007 14026.73850673349261 
	5781.797571910769875 3436.303331875426466 14025.70103551707143 
	5781.797571910862644 3435.014339288725751 14000.28092741697947 
	5781.797571911162777 3435.853174255457816 13966.6936405415654 
	5781.797571911200976 3441.539724392075186 13921.32329517647122 
	5781.797571911334671 3447.724138617432345 13888.6356257966745 
	5781.797571911397426 3457.410783304208962 13852.48474719223668 
	5781.797571911453815 3469.772011429274244 13817.15900295253596 
	5781.797571911479281 3489.726310988119621 13771.42079906085382 
	5781.797571911452906 3520.978891259246666 13717.28659515815525 
	5781.797571911321938 3562.551255941745239 13665.15895760753301 
	5781.797571911143677 3604.250975692182692 13624.48693235000974 
	5781.797571911068189 3643.286843951595984 13593.35737634048746 
	5781.79757191081444 3692.217814660225486 13561.75280786051735 
	5781.797571910321494 3741.026347879449531 13538.24831844735127 
	5781.797571910046827 3788.12814386182572 13521.76839709018532 
	5781.797571909703038 3830.303802615056156 13510.46651822797867 
	5781.797571908978171 3879.543202289888086 13502.10042481142409 
	5781.797571908118698 3935.64308420231464 13498.94961552217501 
	5781.797571907138263 3991.742706727950917 13502.1006618449137 
	5781.797571905842233 4053.292483095642638 13512.55667178654949 
	5781.797571904315191 4107.049652744841296 13529.13949041925116 
	5781.797571903900462 4152.787030041798971 13549.09584970678043 
	5781.797571903061908 4185.876182978069664 13566.5833561211839 
	5781.797571902081472 4217.565605554182184 13586.49551131090448 
	5781.797571901097399 4252.697611080951901 13612.42356835247847 
	5781.797571898298884 4289.938959628520024 13645.70406528411331 
	5781.797571896412592 4327.379663941881518 13687.60048167357127 
	5781.797571889607752 4359.894149125559125 13733.42537532931965 
	5781.797571883051205 4387.073421220651653 13782.60257946194179 
	5781.7975718765083 4408.575842482450753 13834.51368167136025 
	5781.797571868659361 4421.537996192002538 13879.5072159033698 
	5781.797571866125509 4428.836876004879741 13916.20300896911795 
	5781.797571863850862 4432.759654807541665 13943.98841420442113 
	5781.797571861347024 4434.725035928874604 13967.28981718970499 
	5781.797571860546668 4435.413339138512129 13983.63940124422697 
	5781.797571860305652 4435.585442873363718 13991.81902259230628 
	5781.797571860245625 4435.62847026657073 13995.90943663244616 
	5781.797571860228345 4435.639227262013264 13997.95471917677241 
	5781.797571860226526 4435.641916505917834 13998.97736987896496 
	5781.797571860223798 4435.642684869792902 13999.56174306192042 
	5781.797571860224707 4435.642812921549194 13999.85392987632804 
	5781.797571860225617 4435.642812921225413 14000.00002328336996 
	0 
	
	0 
	0 
	88 0 0.001116071428571428509 0.002232142857142857019 0.004464285714285714038 0.008928571428571428076 0.01785714285714285615 0.0357142857142857123 0.05357142857142856845 0.07142857142857142461 0.08928571428571427382 0.1071428571428571369 0.1160714285714285754 0.125 0.1428571428571428492 0.1587301587301587213 0.1746031746031745935 0.1904761904761904656 0.2023809523809523836 0.2142857142857142738 0.238095238095238082 0.2619047619047618625 0.2857142857142856984 0.2976190476190476164 0.3095238095238095344 0.3154761904761904656 0.3214285714285713969 0.3333333333333333148 0.3452380952380952328 0.3571428571428570953 0.3690476190476190133 0.375 0.3779761904761904656 0.3809523809523809312 0.3869047619047618625 0.3928571428571428492 0.4047619047619047672 0.4166666666666666297 0.4285714285714285476 0.4444444444444444198 0.4603174603174602919 0.476190476190476164 0.4801587301587301182 0.4821428571428570953 0.4841269841269840724 0.4861111111111110494 0.4880952380952380265 0.4900793650793650036 0.4910714285714284921 0.4915674603174602364 0.491815476190476164 0.4920634920634920362 0.5158730158730158166 0.5238095238095237249 0.5357142857142855874 0.5476190476190475609 0.5595238095238095344 0.5714285714285713969 0.5952380952380951218 0.6190476190476189577 0.6349206349206348854 0.650793650793650702 0.6666666666666666297 0.6904761904761904656 0.7023809523809523281 0.7142857142857141906 0.7321428571428569843 0.749999999999999889 0.7678571428571427937 0.7857142857142855874 0.8095238095238094234 0.8214285714285713969 0.8333333333333332593 0.8452380952380951218 0.8571428571428570953 0.875 0.8928571428571427937 0.9107142857142856984 0.9285714285714286031 0.9464285714285713969 0.9642857142857143016 0.9732142857142858094 0.9821428571428572063 0.9910714285714286031 0.9955357142857143016 0.9977678571428572063 0.9994419642857143016 0.9997209821428572063 0.9998604910714286031 
	0 
	0 
	0 
	F 1 F 0 F 1 F 0 } I I I I #
tcoedge-coedge $-1 -1 $-1 $14 $14 $18 $19 reversed $9 $20 -6.283185307179586232 -0 #
tcoedge-coedge $-1 -1 $-1 $21 $22 $11 $16 reversed $12 $23 -6.283185307179586232 -0 #
tedge-edge $-1 -1 $-1 $24 0 $24 6.283185307179586232 $15 $25 forward @7 unknown 0.0007884600138611662801 #
pcurve $-1 -1 $-1 0 forward { exppc nurbs 2 periodic 5 
	0 2 1.570796326794896558 2 3.141592653589793116 2 4.712388980384689674 2 6.283185307179586232 2 
	0 500 1 
	-500 500 0.707106781186543798 
	-500 0 1 
	-500 -500 0.7071067811865463515 
	0 -500 1 
	500 -500 0.7071067811865463515 
	500 0 1 
	500 500 0.707106781186543798 
	0 500 1 
	0 
	plane 5781.79757191538738 3935.642797989797145 14000.00000000000182 1 -3.637978807091713027e-15 0 0 0 -1 forward_v I I I I 
	} 0 0 #
tcoedge-coedge $-1 -1 $-1 $22 $21 $14 $19 forward $12 $26 0 6.283185307179586232 #
tedge-edge $-1 -1 $-1 $27 0 $27 6.283185307179586232 $18 $28 forward @7 unknown 0.0007884600120883255084 #
pcurve $-1 -1 $-1 0 forward { exppc nurbs 2 periodic 5 
	-6.283185307179586232 2 -4.712388980384689674 2 -3.141592653589793116 2 -1.570796326794896558 2 0 2 
	0 500 1 
	500 500 0.707106781186543798 
	500 0 1 
	500 -500 0.7071067811865463515 
	0 -500 1 
	-500 -500 0.7071067811865463515 
	-500 0 1 
	-500 500 0.707106781186543798 
	0 500 1 
	0 
	plane 5531.79757191538738 3935.642797989798055 14000.00000000000182 -1 3.637978807091713027e-15 -0 0 0 -1 reverse_v I I I I 
	} 0 0 #
coedge $-1 -1 $-1 $18 $15 $22 $29 reversed $12 $30 #
coedge $-1 -1 $-1 $15 $18 $21 $29 forward $12 $31 #
pcurve $-1 -1 $-1 0 forward { exppc nubs 1 periodic 2 
	-6.283185307179586232 1 -0 1 
	1 1 
	0 1 
	0 
	spline forward { ref 0 } I I I I 
	} 0 0 #
tvertex-vertex $-1 -1 $-1 $16 $32 2.765983329895308501e-05 #
ellipse-curve $-1 -1 $-1 5781.79757191538738 3935.642797989797145 14000.00000000000182 1 -3.637978807091713027e-15 0 1.818989403545856476e-12 500 0 1 I I #
pcurve $-1 -1 $-1 0 forward { exppc nubs 1 periodic 2 
	0 1 6.283185307179586232 1 
	0 0 
	1 0 
	2.726396620975368931e-13 
	spline forward { ref 0 } I I I I 
	} 0 0 #
tvertex-vertex $-1 -1 $-1 $19 $33 2.765982913851833873e-05 #
ellipse-curve $-1 -1 $-1 5531.79757191538738 3935.642797989798055 14000.00000000000182 1 -3.637978807091713027e-15 0 1.818989403545856476e-12 500 0 1 I I #
edge $-1 -1 $-1 $27 0 $24 1 $22 $34 forward @7 tangent #
pcurve $-1 -1 $-1 -1 $34 0 0 #
pcurve $-1 -1 $-1 1 $34 1 0 #
point $-1 -1 $-1 5781.797571915389199 4435.642797989797145 14000.00000000000182 #
point $-1 -1 $-1 5531.797571915389199 4435.642797989798055 14000.00000000000182 #
intcurve-curve $-1 -1 $-1 forward { parcur full nubs 3 open 2 
	0 3 1 3 
	5531.797571862609402 4435.642812921227232 14000.00002328336996 
	5615.130905195942432 4435.642812921226323 14000.00002328336996 
	5698.464238526892586 4435.642812921225413 14000.00002328336996 
	5781.797571860225617 4435.642812921225413 14000.00002328336996 
	0 
	
	spline forward { ref 0 } I I I I 
	null_surface 
	nubs 1 open 2 
	0 1 1 1 
	0 0 
	0 1 
	
	nullbs 
	I I 
	0 
	0 
	0 
	surf1 } I I #
End-of-ACIS-data 