700 0 1 0           
4 LibG 20 ASM 224.0.1.65535 NT 24 Wed Jul 17 12:52:12 2019 
1000 9.999999999999999547e-07 1.000000000000000036e-10 
body $-1 -1 $-1 $1 $-1 $2 #
lump $-1 -1 $-1 $-1 $3 $0 #
transform $-1 -1 1 0 0 0 1 0 0 0 1 0 0 0 1 no_rotate no_reflect no_shear #
shell $-1 -1 $-1 $-1 $-1 $4 $-1 $1 #
face $-1 -1 $-1 $5 $6 $3 $-1 $7 forward single #
face $-1 -1 $-1 $8 $9 $3 $-1 $10 reversed single #
loop $-1 -1 $-1 $-1 $11 $4 #
plane-surface $-1 -1 $-1 2531.797571915386925 3935.642797989808969 14000.00000000000182 1 -3.637978807091713027e-15 0 0 0 -1 forward_v I I I I #
face $-1 -1 $-1 $-1 $12 $3 $-1 $13 forward single #
loop $-1 -1 $-1 $-1 $14 $5 #
plane-surface $-1 -1 $-1 2281.797571915386925 3935.642797989809878 14000.00000000000182 1 -3.637978807091713027e-15 0 0 0 -1 forward_v I I I I #
tcoedge-coedge $-1 -1 $-1 $11 $11 $15 $16 forward $6 $17 0 6.283185307179586232 #
loop $-1 -1 $-1 $-1 $18 $8 #
spline-surface $-1 -1 $-1 forward { exactsur full nubs 3 3 periodic open none none 80 2 
	0 3 0.002232142857142857019 1 0.004464285714285714038 1 0.008928571428571428076 1 0.01785714285714285615 1 
	0.0357142857142857123 1 0.05357142857142856845 1 0.0625 1 0.07142857142857142461 1 0.08928571428571427382 1 
	0.1071428571428571369 1 0.125 1 0.1428571428571428492 1 0.1587301587301587213 1 0.1746031746031745935 1 
	0.1904761904761904656 1 0.2023809523809523836 1 0.2142857142857142738 1 0.238095238095238082 1 0.2619047619047618625 1 
	0.2857142857142856984 1 0.2976190476190476164 1 0.3095238095238095344 1 0.3214285714285713969 1 0.3273809523809523281 1 
	0.3303571428571427937 1 0.3333333333333333148 1 0.3452380952380952328 1 0.3571428571428570953 1 0.3690476190476190133 1 
	0.375 1 0.3809523809523809312 1 0.3928571428571428492 1 0.4047619047619047672 1 0.4166666666666666297 1 
	0.4285714285714285476 1 0.4444444444444444198 1 0.4603174603174602919 1 0.476190476190476164 1 0.4841269841269840724 1 
	0.4920634920634920362 1 0.5 1 0.5079365079365079083 1 0.5158730158730158166 1 0.5238095238095237249 1 
	0.5476190476190475609 1 0.5714285714285713969 1 0.5952380952380951218 1 0.6190476190476189577 1 0.6269841269841269771 1 
	0.6349206349206348854 1 0.650793650793650702 1 0.6666666666666666297 1 0.6904761904761904656 1 0.7023809523809523281 1 
	0.7142857142857141906 1 0.7321428571428569843 1 0.7410714285714283811 1 0.749999999999999889 1 0.7678571428571427937 1 
	0.7857142857142855874 1 0.7976190476190474499 1 0.8095238095238094234 1 0.8333333333333332593 1 0.8452380952380951218 1 
	0.8571428571428570953 1 0.875 1 0.8928571428571427937 1 0.9107142857142856984 1 0.9285714285714286031 1 
	0.9464285714285713969 1 0.9642857142857143016 1 0.9821428571428572063 1 0.9910714285714286031 1 0.9955357142857143016 1 
	0.9977678571428572063 1 0.9988839285714286031 1 0.9994419642857143016 1 0.9997209821428572063 1 1 3 
	0 3 1 3 
	2281.797571920671089 4435.642878327534163 13999.99989027173615 
	2281.79757192067018 4435.642878287439999 14002.33738480162174 
	2281.797571920652899 4435.610091660121725 14007.01237346679954 
	2281.797571920636983 4435.413409894792494 14016.36051338159268 
	2281.797571920560586 4434.725060093899629 14032.71009613551723 
	2281.797571920308656 4431.973775177374591 14065.33208776755419 
	2281.797571919592883 4424.13085800781937 14111.49407839093146 
	2281.797571918949416 4411.168120146076944 14156.48751559407356 
	2281.797571918742506 4397.824856951352558 14191.44193362267833 
	2281.797571918574249 4382.543460150219289 14225.5935532480853 
	2281.797571918006724 4359.894250152355198 14266.57470453061069 
	2281.797571917604273 4327.379541661899566 14312.39944887838101 
	2281.797571917023561 4289.938909328846421 14354.29598045620332 
	2281.797571916968991 4249.59418913022364 14390.34990778516476 
	2281.79757191652925 4207.366009651034801 14420.70970625406699 
	2281.797571916498782 4164.126569610062688 14445.67389269419982 
	2281.797571916415109 4122.408901996290297 14464.49778202125526 
	2281.797571916353718 4083.157777698754217 14478.23158227803833 
	2281.797571916276411 4034.956986680466798 14491.14854337263387 
	2281.797571916187735 3973.147718167912444 14500.46604712887347 
	2281.797571916037214 3898.137961260978955 14500.46565156898214 
	2281.797571915928984 3836.328610130896777 14491.14878667398079 
	2281.797571915902608 3788.127735275523264 14478.23206064481383 
	2281.79757191585486 3752.80177303362143 14465.87155341408834 
	2281.797571915814842 3724.215718086820743 14453.39924660094766 
	2281.797571915803474 3704.736674179746387 14443.56575487081864 
	2281.79757191580029 3693.769198536391286 14437.63741474320523 
	2281.797571915795743 3677.487114846271652 14428.43889534726986 
	2281.797571915757999 3653.719925557965325 14413.50498019729093 
	2281.797571915751178 3623.606939611765938 14391.28066795062114 
	2281.797571915713888 3599.967037176273607 14370.93680307963223 
	2281.797571915707977 3582.006880886972795 14353.6359774255161 
	2281.797571915699791 3564.706044421402567 14335.67582211250556 
	2281.797571915680237 3544.362232882767785 14312.03589942811595 
	2281.797571915657045 3522.137798593156276 14281.92296709199945 
	2281.797571915648405 3502.226059666847959 14250.23332533313078 
	2281.79757191562976 3482.794651820959643 14213.46789464723042 
	2281.797571915614299 3465.016823120903609 14171.29387640735695 
	2281.797571915606113 3450.300245177197212 14123.58339678524135 
	2281.797571915592471 3442.056034820479454 14082.80118695247074 
	2281.797571915589288 3437.921249772146894 14049.80452557609351 
	2281.797571915588378 3436.057297491679947 14024.93324477408351 
	2281.797571915587469 3435.43558170132701 13999.99997076318141 
	2281.797571915587923 3436.057231543888975 13975.06667311300225 
	2281.797571915588378 3437.921405767750912 13950.19543647842511 
	2281.79757191559429 3443.08896745437778 13908.94946285825972 
	2281.797571915607932 3456.070485148326497 13852.07149590753943 
	2281.797571915634308 3483.47479213056431 13782.24727186407836 
	2281.797571915662047 3520.979177375838844 13717.28698248519504 
	2281.797571915701155 3557.354347401151699 13671.67480592233187 
	2281.79757191571025 3586.379638659534976 13641.91807236823661 
	2281.797571915718436 3610.756674329616999 13619.29867151052895 
	2281.79757191574663 3643.286685253292944 13593.35750790113889 
	2281.797571915778008 3692.217537870501928 13561.7527885049949 
	2281.797571915834396 3741.026142432989218 13538.24841773151093 
	2281.797571915864864 3788.127924725346929 13521.76849749032954 
	2281.797571915897151 3830.303574463717723 13510.46661270093318 
	2281.797571915969911 3870.310633351910383 13503.66930182417127 
	2281.797571915995832 3907.592893799227568 13500.52504128825058 
	2281.797571916027209 3944.992797085773873 13499.47524023448568 
	2281.797571916128163 3991.742607535028583 13502.10040892844154 
	2281.797571916238667 4040.982044854358264 13510.46668428630983 
	2281.797571916311426 4083.157710197388951 13521.76842568838947 
	2281.797571916345987 4130.259358825566778 13538.24866221322009 
	2281.797571916541528 4175.313590324890356 13559.9446642840976 
	2281.797571916667039 4217.565553762658055 13586.49536593670928 
	2281.797571916815286 4252.697762857368616 13612.42306374760665 
	2281.797571917015375 4289.938940310643375 13645.70383829299499 
	2281.797571917301866 4327.379771456716298 13687.60013098584932 
	2281.797571917551977 4359.894184920606676 13733.42511066219959 
	2281.797571917977621 4387.073691586087989 13782.60225276445453 
	2281.797571918817539 4408.575825858862117 13834.51347328767406 
	2281.79757191946328 4424.130843930461197 13888.50569849878229 
	2281.797571920312748 4431.973813747652457 13934.66767913442163 
	2281.797571920563314 4434.725061463190286 13967.28968406790227 
	2281.797571920643804 4435.413412860907556 13983.63926650494068 
	2281.797571920663358 4435.585506944968074 13991.8188894833329 
	2281.79757192066927 4435.62853593170712 13995.90930353638942 
	2281.797571920671089 4435.639292614646365 13997.95458615313146 
	2281.797571920671089 4435.64236605277074 13999.12332981686268 
	2281.797571920671544 4435.642878332546388 13999.70770345550045 
	2281.797571920671089 4435.642878327534163 13999.99989027173615 
	2365.130905254004574 4435.642878327533253 13999.99989027173615 
	2365.130905254003665 4435.642878287439089 14002.33738480162174 
	2365.130905253986384 4435.610091660120816 14007.01237346679954 
	2365.130905253970468 4435.413409894791585 14016.36051338159268 
	2365.13090525389407 4434.725060093898719 14032.71009613551723 
	2365.13090525364214 4431.973775177373682 14065.33208776755419 
	2365.130905252926368 4424.13085800781846 14111.49407839093146 
	2365.130905252282901 4411.168120146076035 14156.48751559407356 
	2365.130905252075991 4397.824856951351649 14191.44193362267833 
	2365.130905251907734 4382.54346015021838 14225.5935532480853 
	2365.130905251340209 4359.894250152354289 14266.57470453061069 
	2365.130905250937758 4327.379541661898656 14312.39944887838101 
	2365.130905250357046 4289.938909328845511 14354.29598045620332 
	2365.130905250302476 4249.59418913022273 14390.34990778516476 
	2365.130905249862735 4207.366009651033892 14420.70970625406699 
	2365.130905249832267 4164.126569610061779 14445.67389269419982 
	2365.130905249748594 4122.408901996289387 14464.49778202125526 
	2365.130905249687203 4083.157777698753762 14478.23158227803833 
	2365.130905249609896 4034.956986680466343 14491.14854337263387 
	2365.13090524952122 3973.147718167911989 14500.46604712887347 
	2365.130905249370699 3898.1379612609785 14500.46565156898214 
	2365.130905249262469 3836.328610130896323 14491.14878667398079 
	2365.130905249236093 3788.127735275522809 14478.23206064481383 
	2365.130905249188345 3752.801773033620975 14465.87155341408834 
	2365.130905249148327 3724.215718086820289 14453.39924660094766 
	2365.130905249136958 3704.736674179745933 14443.56575487081864 
	2365.130905249133775 3693.769198536390832 14437.63741474320523 
	2365.130905249129228 3677.487114846271197 14428.43889534726986 
	2365.130905249091484 3653.719925557964871 14413.50498019729093 
	2365.130905249084663 3623.606939611765483 14391.28066795062114 
	2365.130905249047373 3599.967037176273152 14370.93680307963223 
	2365.130905249041462 3582.00688088697234 14353.6359774255161 
	2365.130905249033276 3564.706044421402112 14335.67582211250556 
	2365.130905249013722 3544.36223288276733 14312.03589942811595 
	2365.13090524899053 3522.137798593155821 14281.92296709199945 
	2365.13090524898189 3502.226059666847505 14250.23332533313078 
	2365.130905248963245 3482.794651820959189 14213.46789464723042 
	2365.130905248947784 3465.016823120903155 14171.29387640735695 
	2365.130905248939598 3450.300245177196757 14123.58339678524135 
	2365.130905248925956 3442.056034820478999 14082.80118695247074 
	2365.130905248922772 3437.921249772146439 14049.80452557609351 
	2365.130905248921863 3436.057297491679492 14024.93324477408351 
	2365.130905248920953 3435.435581701326555 13999.99997076318141 
	2365.130905248921408 3436.05723154388852 13975.06667311300225 
	2365.130905248921863 3437.921405767750457 13950.19543647842511 
	2365.130905248927775 3443.088967454377325 13908.94946285825972 
	2365.130905248941417 3456.070485148326043 13852.07149590753943 
	2365.130905248967792 3483.474792130563856 13782.24727186407836 
	2365.130905248995532 3520.97917737583839 13717.28698248519504 
	2365.13090524903464 3557.354347401151244 13671.67480592233187 
	2365.130905249043735 3586.379638659534521 13641.91807236823661 
	2365.130905249051921 3610.756674329616544 13619.29867151052895 
	2365.130905249080115 3643.28668525329249 13593.35750790113889 
	2365.130905249111493 3692.217537870501474 13561.7527885049949 
	2365.130905249167881 3741.026142432988763 13538.24841773151093 
	2365.130905249198349 3788.127924725346475 13521.76849749032954 
	2365.130905249230636 3830.303574463717268 13510.46661270093318 
	2365.130905249303396 3870.310633351909928 13503.66930182417127 
	2365.130905249329317 3907.592893799227113 13500.52504128825058 
	2365.130905249360694 3944.992797085773418 13499.47524023448568 
	2365.130905249461648 3991.742607535028128 13502.10040892844154 
	2365.130905249572152 4040.98204485435781 13510.46668428630983 
	2365.130905249644911 4083.157710197388496 13521.76842568838947 
	2365.130905249679472 4130.259358825565869 13538.24866221322009 
	2365.130905249875013 4175.313590324889446 13559.9446642840976 
	2365.130905250000524 4217.565553762657146 13586.49536593670928 
	2365.130905250148771 4252.697762857367707 13612.42306374760665 
	2365.13090525034886 4289.938940310642465 13645.70383829299499 
	2365.130905250635351 4327.379771456715389 13687.60013098584932 
	2365.130905250885462 4359.894184920605767 13733.42511066219959 
	2365.130905251311106 4387.073691586087079 13782.60225276445453 
	2365.130905252151024 4408.575825858861208 13834.51347328767406 
	2365.130905252796765 4424.130843930460287 13888.50569849878229 
	2365.130905253646233 4431.973813747651548 13934.66767913442163 
	2365.130905253896799 4434.725061463189377 13967.28968406790227 
	2365.130905253977289 4435.413412860906647 13983.63926650494068 
	2365.130905253996843 4435.585506944967165 13991.8188894833329 
	2365.130905254002755 4435.62853593170621 13995.90930353638942 
	2365.130905254004574 4435.639292614645456 13997.95458615313146 
	2365.130905254004574 4435.64236605276983 13999.12332981686268 
	2365.130905254005029 4435.642878332545479 13999.70770345550045 
	2365.130905254004574 4435.642878327533253 13999.99989027173615 
	2448.464238587916498 4435.642878327534163 13999.99989027173615 
	2448.464238587916498 4435.642878287439999 14002.33738480162174 
	2448.464238587896489 4435.610091660121725 14007.01237346679954 
	2448.464238587878299 4435.413409894792494 14016.36051338159268 
	2448.464238587793261 4434.725060093899629 14032.71009613551723 
	2448.464238587513591 4431.973775177375501 14065.33208776755419 
	2448.464238586719603 4424.130858007817551 14111.49407839093146 
	2448.464238586006104 4411.168120146076035 14156.48751559407356 
	2448.464238585776002 4397.824856951350739 14191.44193362267833 
	2448.464238585589101 4382.54346015021747 14225.5935532480853 
	2448.46423858495973 4359.894250152353379 14266.57470453061069 
	2448.464238584513168 4327.379541661896837 14312.39944887838101 
	2448.464238583868791 4289.938909328845511 14354.29598045620332 
	2448.464238583807855 4249.594189130221821 14390.34990778516476 
	2448.464238583319457 4207.366009651032982 14420.70970625406699 
	2448.464238583286715 4164.126569610060869 14445.67389269419982 
	2448.464238583193492 4122.408901996288478 14464.49778202125526 
	2448.464238583126189 4083.157777698752398 14478.23158227803833 
	2448.464238583040697 4034.956986680465889 14491.14854337263387 
	2448.464238582941562 3973.14771816791108 14500.46604712887347 
	2448.464238582775124 3898.13796126097759 14500.46565156898214 
	2448.464238582654616 3836.328610130895413 14491.14878667398079 
	2448.464238582625512 3788.1277352755219 14478.23206064481383 
	2448.464238582572762 3752.801773033620066 14465.87155341408834 
	2448.464238582528196 3724.215718086819834 14453.39924660094766 
	2448.464238582515463 3704.736674179745478 14443.56575487081864 
	2448.464238582511825 3693.769198536389922 14437.63741474320523 
	2448.464238582507278 3677.487114846270288 14428.43889534726986 
	2448.464238582465441 3653.719925557963506 14413.50498019729093 
	2448.46423858245771 3623.606939611764574 14391.28066795062114 
	2448.464238582416328 3599.967037176272243 14370.93680307963223 
	2448.464238582409962 3582.006880886971885 14353.6359774255161 
	2448.464238582400412 3564.706044421401657 14335.67582211250556 
	2448.46423858237813 3544.362232882766875 14312.03589942811595 
	2448.464238582352209 3522.137798593155821 14281.92296709199945 
	2448.464238582342659 3502.226059666847505 14250.23332533313078 
	2448.464238582322196 3482.794651820958734 14213.46789464723042 
	2448.464238582304915 3465.016823120903609 14171.29387640735695 
	2448.46423858229582 3450.300245177197212 14123.58339678524135 
	2448.464238582280359 3442.056034820479454 14082.80118695247074 
	2448.464238582277176 3437.921249772146894 14049.80452557609351 
	2448.464238582276266 3436.057297491679947 14024.93324477408351 
	2448.464238582275357 3435.435581701327465 13999.99997076318141 
	2448.464238582275811 3436.05723154388852 13975.06667311300225 
	2448.464238582276721 3437.921405767750457 13950.19543647842511 
	2448.464238582283087 3443.088967454377325 13908.94946285825972 
	2448.464238582298549 3456.070485148326043 13852.07149590753943 
	2448.464238582327653 3483.474792130563856 13782.24727186407836 
	2448.464238582358576 3520.979177375838844 13717.28698248519504 
	2448.464238582402231 3557.354347401151244 13671.67480592233187 
	2448.464238582411781 3586.379638659534521 13641.91807236823661 
	2448.464238582420421 3610.756674329616089 13619.29867151052895 
	2448.464238582452708 3643.28668525329249 13593.35750790113889 
	2448.464238582487269 3692.217537870501019 13561.7527885049949 
	2448.464238582550024 3741.026142432988763 13538.24841773151093 
	2448.464238582583221 3788.12792472534602 13521.76849749032954 
	2448.4642385826196 3830.303574463716814 13510.46661270093318 
	2448.464238582700546 3870.310633351909019 13503.66930182417127 
	2448.46423858272874 3907.592893799226204 13500.52504128825058 
	2448.464238582763755 3944.992797085772963 13499.47524023448568 
	2448.464238582876078 3991.742607535027673 13502.10040892844154 
	2448.46423858299886 4040.982044854357355 13510.46668428630983 
	2448.464238583079805 4083.157710197387587 13521.76842568838947 
	2448.464238583118004 4130.259358825564959 13538.24866221322009 
	2448.464238583334918 4175.313590324889446 13559.9446642840976 
	2448.464238583474071 4217.565553762656236 13586.49536593670928 
	2448.464238583638235 4252.697762857366797 13612.42306374760665 
	2448.464238583860151 4289.938940310642465 13645.70383829299499 
	2448.464238584177565 4327.379771456715389 13687.60013098584932 
	2448.464238584455416 4359.894184920605767 13733.42511066219959 
	2448.464238584926989 4387.073691586087079 13782.60225276445453 
	2448.464238585858766 4408.575825858861208 13834.51347328767406 
	2448.464238586575448 4424.130843930460287 13888.50569849878229 
	2448.464238587517684 4431.973813747652457 13934.66767913442163 
	2448.46423858779599 4434.725061463190286 13967.28968406790227 
	2448.464238587885575 4435.413412860907556 13983.63926650494068 
	2448.464238587907403 4435.585506944968074 13991.8188894833329 
	2448.464238587913769 4435.62853593170712 13995.90930353638942 
	2448.464238587916043 4435.639292614646365 13997.95458615313146 
	2448.464238587916043 4435.64236605277074 13999.12332981686268 
	2448.464238587916498 4435.642878332546388 13999.70770345550045 
	2448.464238587916498 4435.642878327534163 13999.99989027173615 
	2531.797571921249983 4435.642878327534163 13999.99989027173615 
	2531.797571921249983 4435.642878287439999 14002.33738480162174 
	2531.797571921229974 4435.610091660121725 14007.01237346679954 
	2531.797571921211784 4435.413409894792494 14016.36051338159268 
	2531.797571921126746 4434.725060093899629 14032.71009613551723 
	2531.797571920847076 4431.973775177375501 14065.33208776755419 
	2531.797571920053088 4424.130858007817551 14111.49407839093146 
	2531.797571919339589 4411.168120146076035 14156.48751559407356 
	2531.797571919109487 4397.824856951350739 14191.44193362267833 
	2531.797571918922586 4382.54346015021747 14225.5935532480853 
	2531.797571918293215 4359.894250152353379 14266.57470453061069 
	2531.797571917846653 4327.379541661896837 14312.39944887838101 
	2531.797571917202276 4289.938909328845511 14354.29598045620332 
	2531.79757191714134 4249.594189130221821 14390.34990778516476 
	2531.797571916652942 4207.366009651032982 14420.70970625406699 
	2531.7975719166202 4164.126569610060869 14445.67389269419982 
	2531.797571916526977 4122.408901996288478 14464.49778202125526 
	2531.797571916459674 4083.157777698751943 14478.23158227803833 
	2531.797571916374181 4034.956986680465434 14491.14854337263387 
	2531.797571916275047 3973.147718167910625 14500.46604712887347 
	2531.797571916108609 3898.137961260977136 14500.46565156898214 
	2531.797571915988101 3836.328610130894958 14491.14878667398079 
	2531.797571915958997 3788.127735275521445 14478.23206064481383 
	2531.797571915906246 3752.801773033619611 14465.87155341408834 
	2531.797571915861681 3724.215718086819379 14453.39924660094766 
	2531.797571915848948 3704.736674179745023 14443.56575487081864 
	2531.79757191584531 3693.769198536389467 14437.63741474320523 
	2531.797571915840763 3677.487114846269833 14428.43889534726986 
	2531.797571915798926 3653.719925557963052 14413.50498019729093 
	2531.797571915791195 3623.606939611764119 14391.28066795062114 
	2531.797571915749813 3599.967037176271788 14370.93680307963223 
	2531.797571915743447 3582.00688088697143 14353.6359774255161 
	2531.797571915733897 3564.706044421401202 14335.67582211250556 
	2531.797571915711615 3544.362232882766421 14312.03589942811595 
	2531.797571915685694 3522.137798593155367 14281.92296709199945 
	2531.797571915676144 3502.22605966684705 14250.23332533313078 
	2531.797571915655681 3482.794651820958279 14213.46789464723042 
	2531.7975719156384 3465.016823120903155 14171.29387640735695 
	2531.797571915629305 3450.300245177196757 14123.58339678524135 
	2531.797571915613844 3442.056034820478999 14082.80118695247074 
	2531.797571915610661 3437.921249772146439 14049.80452557609351 
	2531.797571915609751 3436.057297491679492 14024.93324477408351 
	2531.797571915608842 3435.43558170132701 13999.99997076318141 
	2531.797571915609296 3436.057231543888065 13975.06667311300225 
	2531.797571915610206 3437.921405767750002 13950.19543647842511 
	2531.797571915616572 3443.088967454376871 13908.94946285825972 
	2531.797571915632034 3456.070485148325588 13852.07149590753943 
	2531.797571915661138 3483.474792130563401 13782.24727186407836 
	2531.79757191569206 3520.97917737583839 13717.28698248519504 
	2531.797571915735716 3557.35434740115079 13671.67480592233187 
	2531.797571915745266 3586.379638659534066 13641.91807236823661 
	2531.797571915753906 3610.756674329615635 13619.29867151052895 
	2531.797571915786193 3643.286685253292035 13593.35750790113889 
	2531.797571915820754 3692.217537870500564 13561.7527885049949 
	2531.797571915883509 3741.026142432988308 13538.24841773151093 
	2531.797571915916706 3788.127924725345565 13521.76849749032954 
	2531.797571915953085 3830.303574463716359 13510.46661270093318 
	2531.79757191603403 3870.310633351908564 13503.66930182417127 
	2531.797571916062225 3907.592893799225749 13500.52504128825058 
	2531.79757191609724 3944.992797085772509 13499.47524023448568 
	2531.797571916209563 3991.742607535027219 13502.10040892844154 
	2531.797571916332345 4040.9820448543569 13510.46668428630983 
	2531.79757191641329 4083.157710197387132 13521.76842568838947 
	2531.797571916451489 4130.259358825564959 13538.24866221322009 
	2531.797571916668403 4175.313590324889446 13559.9446642840976 
	2531.797571916807556 4217.565553762656236 13586.49536593670928 
	2531.797571916971719 4252.697762857366797 13612.42306374760665 
	2531.797571917193636 4289.938940310642465 13645.70383829299499 
	2531.79757191751105 4327.379771456715389 13687.60013098584932 
	2531.7975719177889 4359.894184920605767 13733.42511066219959 
	2531.797571918260473 4387.073691586087079 13782.60225276445453 
	2531.797571919192251 4408.575825858861208 13834.51347328767406 
	2531.797571919908933 4424.130843930460287 13888.50569849878229 
	2531.797571920851169 4431.973813747652457 13934.66767913442163 
	2531.797571921129475 4434.725061463190286 13967.28968406790227 
	2531.79757192121906 4435.413412860907556 13983.63926650494068 
	2531.797571921240888 4435.585506944968074 13991.8188894833329 
	2531.797571921247254 4435.62853593170712 13995.90930353638942 
	2531.797571921249528 4435.639292614646365 13997.95458615313146 
	2531.797571921249528 4435.64236605277074 13999.12332981686268 
	2531.797571921249983 4435.642878332546388 13999.70770345550045 
	2531.797571921249983 4435.642878327534163 13999.99989027173615 
	0 
	
	0 
	0 
	79 0 0.002232142857142857019 0.004464285714285714038 0.008928571428571428076 0.01785714285714285615 0.0357142857142857123 0.05357142857142856845 0.0625 0.07142857142857142461 0.08928571428571427382 0.1071428571428571369 0.125 0.1428571428571428492 0.1587301587301587213 0.1746031746031745935 0.1904761904761904656 0.2023809523809523836 0.2142857142857142738 0.238095238095238082 0.2619047619047618625 0.2857142857142856984 0.2976190476190476164 0.3095238095238095344 0.3214285714285713969 0.3273809523809523281 0.3303571428571427937 0.3333333333333333148 0.3452380952380952328 0.3571428571428570953 0.3690476190476190133 0.375 0.3809523809523809312 0.3928571428571428492 0.4047619047619047672 0.4166666666666666297 0.4285714285714285476 0.4444444444444444198 0.4603174603174602919 0.476190476190476164 0.4841269841269840724 0.4920634920634920362 0.5 0.5079365079365079083 0.5158730158730158166 0.5238095238095237249 0.5476190476190475609 0.5714285714285713969 0.5952380952380951218 0.6190476190476189577 0.6269841269841269771 0.6349206349206348854 0.650793650793650702 0.6666666666666666297 0.6904761904761904656 0.7023809523809523281 0.7142857142857141906 0.7321428571428569843 0.7410714285714283811 0.749999999999999889 0.7678571428571427937 0.7857142857142855874 0.7976190476190474499 0.8095238095238094234 0.8333333333333332593 0.8452380952380951218 0.8571428571428570953 0.875 0.8928571428571427937 0.9107142857142856984 0.9285714285714286031 0.9464285714285713969 0.9642857142857143016 0.9821428571428572063 0.9910714285714286031 0.9955357142857143016 0.9977678571428572063 0.9988839285714286031 0.9994419642857143016 0.9997209821428572063 
	0 
	0 
	0 
	F 1 F 0 F 1 F 0 } I I I I #
tcoedge-coedge $-1 -1 $-1 $14 $14 $18 $19 reversed $9 $20 -6.283185307179586232 -0 #
tcoedge-coedge $-1 -1 $-1 $21 $22 $11 $16 reversed $12 $23 -6.283185307179586232 -0 #
tedge-edge $-1 -1 $-1 $24 0 $24 6.283185307179586232 $15 $25 forward @7 unknown 0.000768289331499888103 #
pcurve $-1 -1 $-1 0 forward { exppc nurbs 2 periodic 5 
	0 2 1.570796326794896558 2 3.141592653589793116 2 4.712388980384689674 2 6.283185307179586232 2 
	0 500 1 
	-500 500 0.707106781186543798 
	-500 0 1 
	-500 -500 0.7071067811865463515 
	0 -500 1 
	500 -500 0.7071067811865463515 
	500 0 1 
	500 500 0.707106781186543798 
	0 500 1 
	0 
	plane 2531.797571915386925 3935.642797989808969 14000.00000000000182 1 -3.637978807091713027e-15 0 0 0 -1 forward_v I I I I 
	} 0 0 #
tcoedge-coedge $-1 -1 $-1 $22 $21 $14 $19 forward $12 $26 0 6.283185307179586232 #
tedge-edge $-1 -1 $-1 $27 0 $27 6.283185307179586232 $18 $28 forward @7 unknown 0.0007682893294666155726 #
pcurve $-1 -1 $-1 0 forward { exppc nurbs 2 periodic 5 
	-6.283185307179586232 2 -4.712388980384689674 2 -3.141592653589793116 2 -1.570796326794896558 2 0 2 
	0 500 1 
	500 500 0.707106781186543798 
	500 0 1 
	500 -500 0.7071067811865463515 
	0 -500 1 
	-500 -500 0.7071067811865463515 
	-500 0 1 
	-500 500 0.707106781186543798 
	0 500 1 
	0 
	plane 2281.797571915386925 3935.642797989809878 14000.00000000000182 -1 3.637978807091713027e-15 -0 0 0 -1 reverse_v I I I I 
	} 0 0 #
coedge $-1 -1 $-1 $18 $15 $22 $29 reversed $12 $30 #
coedge $-1 -1 $-1 $15 $18 $21 $29 forward $12 $31 #
pcurve $-1 -1 $-1 0 forward { exppc nubs 1 periodic 2 
	-6.283185307179586232 1 -0 1 
	1 1 
	0 1 
	2.726396620975368931e-13 
	spline forward { ref 0 } I I I I 
	} 0 0 #
tvertex-vertex $-1 -1 $-1 $16 $32 0.0001359942834481608161 #
ellipse-curve $-1 -1 $-1 2531.797571915386925 3935.642797989808969 14000.00000000000182 1 -3.637978807091713027e-15 0 1.818989403545856476e-12 500 0 1 I I #
pcurve $-1 -1 $-1 0 forward { exppc nubs 1 periodic 2 
	0 1 6.283185307179586232 1 
	0 0 
	1 0 
	4.411402399551011509e-13 
	spline forward { ref 0 } I I I I 
	} 0 0 #
tvertex-vertex $-1 -1 $-1 $19 $33 0.0001359942828871650675 #
ellipse-curve $-1 -1 $-1 2281.797571915386925 3935.642797989809878 14000.00000000000182 1 -3.637978807091713027e-15 0 1.818989403545856476e-12 500 0 1 I I #
edge $-1 -1 $-1 $27 0 $24 0.9999999999765550873 $22 $34 forward @7 tangent #
pcurve $-1 -1 $-1 -1 $34 0 0 #
pcurve $-1 -1 $-1 1 $34 1 0 #
point $-1 -1 $-1 2531.797571915388744 4435.642797989808969 14000.00000000000182 #
point $-1 -1 $-1 2281.797571915388744 4435.642797989809878 14000.00000000000182 #
intcurve-curve $-1 -1 $-1 forward { parcur full nubs 3 open 2 
	0 3 1 3 
	2281.797571920671089 4435.642878327534163 13999.99989027173615 
	2365.130905254004574 4435.642878327533253 13999.99989027173615 
	2448.464238587916498 4435.642878327534163 13999.99989027173615 
	2531.797571921249983 4435.642878327534163 13999.99989027173615 
	0 
	
	spline forward { ref 0 } I I I I 
	null_surface 
	nubs 1 open 2 
	0 1 1 1 
	0 0 
	0 1 
	
	nullbs 
	I I 
	0 
	0 
	0 
	surf1 } F 0 F 0.9999999999765550873 #
End-of-ACIS-data 