700 0 1 0           
4 LibG 20 ASM 224.0.1.65535 NT 24 Wed Jul 17 12:52:11 2019 
1000 9.999999999999999547e-07 1.000000000000000036e-10 
body $-1 -1 $-1 $1 $-1 $2 #
lump $-1 -1 $-1 $-1 $3 $0 #
transform $-1 -1 1 0 0 0 1 0 0 0 1 0 0 0 1 no_rotate no_reflect no_shear #
shell $-1 -1 $-1 $-1 $-1 $4 $-1 $1 #
face $-1 -1 $-1 $5 $6 $3 $-1 $7 forward single #
face $-1 -1 $-1 $8 $9 $3 $-1 $10 reversed single #
loop $-1 -1 $-1 $-1 $11 $4 #
plane-surface $-1 -1 $-1 -968.202428084613075 3935.642797989821702 14000.00000000000182 1 -3.637978807091713027e-15 0 0 0 -1 forward_v I I I I #
face $-1 -1 $-1 $-1 $12 $3 $-1 $13 forward single #
loop $-1 -1 $-1 $-1 $14 $5 #
plane-surface $-1 -1 $-1 -1218.202428084613075 3935.642797989822611 14000.00000000000182 1 -3.637978807091713027e-15 0 0 0 -1 forward_v I I I I #
tcoedge-coedge $-1 -1 $-1 $11 $11 $15 $16 forward $6 $17 0 6.283185307179586232 #
loop $-1 -1 $-1 $-1 $18 $8 #
spline-surface $-1 -1 $-1 forward { exactsur full nubs 3 3 periodic open none none 88 2 
	0 3 0.004464285714285714038 1 0.008928571428571428076 1 0.01785714285714285615 1 0.02678571428571428423 1 
	0.0357142857142857123 1 0.05357142857142856845 1 0.0625 1 0.07142857142857142461 1 0.08928571428571427382 1 
	0.09821428571428569843 1 0.1026785714285714246 1 0.1071428571428571369 1 0.125 1 0.1428571428571428492 1 
	0.1587301587301587213 1 0.1746031746031745935 1 0.1785714285714285476 1 0.1825396825396825295 1 0.1904761904761904656 1 
	0.2142857142857142738 1 0.226190476190476164 1 0.238095238095238082 1 0.2410714285714285476 1 0.2440476190476190133 1 
	0.2470238095238094789 1 0.2499999999999999722 1 0.2619047619047618625 1 0.2738095238095237804 1 0.2857142857142856984 1 
	0.3095238095238095344 1 0.3333333333333333148 1 0.3452380952380952328 1 0.3571428571428570953 1 0.3630952380952380265 1 
	0.3690476190476190133 1 0.3720238095238095344 1 0.375 1 0.3809523809523809312 1 0.3928571428571428492 1 
	0.4047619047619047672 1 0.4285714285714285476 1 0.4444444444444444198 1 0.4603174603174602919 1 0.476190476190476164 1 
	0.4841269841269840724 1 0.4920634920634920362 1 0.5 1 0.5079365079365079083 1 0.5238095238095237249 1 
	0.5476190476190475609 1 0.5714285714285713969 1 0.5773809523809523281 1 0.5833333333333332593 1 0.5952380952380951218 1 
	0.6190476190476189577 1 0.6269841269841269771 1 0.6349206349206348854 1 0.650793650793650702 1 0.6666666666666666297 1 
	0.6904761904761904656 1 0.7023809523809523281 1 0.7142857142857141906 1 0.7321428571428569843 1 0.749999999999999889 1 
	0.7678571428571427937 1 0.7857142857142855874 1 0.7976190476190474499 1 0.8095238095238094234 1 0.8333333333333332593 1 
	0.8452380952380951218 1 0.851190476190476053 1 0.8541666666666665186 1 0.8571428571428570953 1 0.875 1 
	0.8928571428571427937 1 0.9107142857142856984 1 0.9285714285714286031 1 0.9464285714285713969 1 0.9642857142857143016 1 
	0.9821428571428572063 1 0.9866071428571429047 1 0.9910714285714286031 1 0.9955357142857143016 1 0.9977678571428572063 1 
	0.9988839285714286031 1 0.9994419642857143016 1 1 3 
	0 3 1 3 
	-1218.202428086281543 4435.642869071301902 13999.99994414780849 
	-1218.202428086279951 4435.642868864581033 14004.67493319933965 
	-1218.202428086255622 4435.511724541486728 14014.02491182202539 
	-1218.20242808623334 4434.725087942488244 14032.71015296537189 
	-1218.202428086149439 4432.759710602708765 14056.01156560871641 
	-1218.202428086072814 4428.836916952940555 14083.79697262966147 
	-1218.202428086004829 4421.538068150428444 14120.49279051745179 
	-1218.202428085748124 4411.168222133082963 14156.48758654053927 
	-1218.202428085691054 4397.824848041593214 14191.44197973317932 
	-1218.202428085632164 4382.543542295209591 14225.59365476726998 
	-1218.202428085439351 4364.423979080208483 14258.37840925939599 
	-1218.202428085398878 4346.235498639069192 14285.59870228832006 
	-1218.202428085383872 4335.200468254798579 14300.69787132747297 
	-1218.202428085365227 4318.019346800851054 14322.87359782765998 
	-1218.202428085224483 4289.938895048881932 14354.29595159397286 
	-1218.202428085118299 4249.594126781170417 14390.34987148487744 
	-1218.202428085017118 4207.365996846941925 14420.70966092235903 
	-1218.202428084980966 4174.936520137378466 14439.43298060657435 
	-1218.202428084971416 4152.607231039697581 14450.53110407937857 
	-1218.202428084965732 4137.541210931010937 14457.55634637844378 
	-1218.202428084938219 4103.067792364240631 14472.08963513645176 
	-1218.202428084879557 4059.265357205556484 14485.60041422003997 
	-1218.202428084863868 4010.23344687268218 14494.87631245669581 
	-1218.202428084827716 3982.340532021391482 14498.01951166514664 
	-1218.202428084824987 3963.679775649792646 14499.2424953713853 
	-1218.202428084823396 3954.339611105151107 14499.67948876964147 
	-1218.202428084821804 3944.992899418342404 14499.9417190703316 
	-1218.202428084819076 3926.292951732922575 14500.11658346276636 
	-1218.202428084800886 3898.242986226138783 14499.06724833323824 
	-1218.202428084786106 3861.05235317983761 14494.87632411688901 
	-1218.202428084763824 3812.02058356634825 14485.60045243519198 
	-1218.202428084741086 3752.289513531914054 14467.1769332888216 
	-1218.202428084720395 3695.972400257555364 14440.05481660909027 
	-1218.202428084706526 3653.720403358433032 14413.50437256616715 
	-1218.202428084701751 3628.626057634918652 14394.98447186811427 
	-1218.202428084698113 3609.423294463167167 14379.0740783592646 
	-1218.202428084696294 3597.801679577468803 14368.68842910792591 
	-1218.202428084695612 3588.742271470251126 14360.12350437556961 
	-1218.20242808469493 3579.844644877903193 14351.39066022507359 
	-1218.202428084691974 3564.706231782296072 14335.67563765354862 
	-1218.20242808468879 3544.362964677110995 14312.03540584973962 
	-1218.202428084683561 3514.728939118884682 14271.88572065054905 
	-1218.202428084677422 3487.641987232109841 14224.97057293219041 
	-1218.202428084673329 3465.016833599516303 14171.29385600906426 
	-1218.20242808467242 3450.299833942986879 14123.5836613777592 
	-1218.202428084669918 3442.055821784481395 14082.80128933780543 
	-1218.202428084669009 3437.921010914415547 14049.80465656150773 
	-1218.202428084668327 3436.057113888250115 14024.9333642566271 
	-1218.202428084668782 3435.435356592861808 14000.00007312069101 
	-1218.202428084667872 3436.264403534992653 13966.75571945165757 
	-1218.202428084669691 3441.234529896777985 13917.07506798221038 
	-1218.202428084672192 3456.070121212108006 13852.071449211664 
	-1218.202428084678104 3476.623940153902822 13799.70354806483192 
	-1218.202428084678786 3493.481883076468421 13766.31111300666089 
	-1218.202428084679696 3505.544662330484698 13744.4851370973538 
	-1218.202428084681287 3528.774263534079637 13707.51322362956489 
	-1218.202428084691974 3557.354096793943427 13671.67476050088953 
	-1218.202428084693565 3586.379549231445708 13641.91809864895731 
	-1218.202428084696521 3610.756529253275403 13619.29864983664083 
	-1218.202428084700387 3643.286640764346885 13593.35758229309431 
	-1218.202428084708345 3692.217490368012932 13561.75287981373367 
	-1218.20242808472517 3741.026108808300251 13538.24849570658625 
	-1218.202428084733128 3788.127890495980409 13521.76854856051068 
	-1218.202428084743133 3830.303552795387986 13510.46673333017134 
	-1218.202428084763824 3879.542989556624889 13502.1005493639841 
	-1218.202428084787925 3935.642790148556287 13498.95007062935474 
	-1218.20242808481521 3991.742605461161929 13502.10050726303234 
	-1218.202428084843405 4040.982018653397063 13510.46671346061885 
	-1218.20242808486455 4083.157719830768201 13521.76841740561395 
	-1218.202428084875237 4130.259378175244819 13538.24865742797374 
	-1218.202428084926169 4175.313644519585978 13559.94456635537972 
	-1218.202428084955045 4212.284021498179754 13583.17667001254267 
	-1218.202428084971871 4230.080041582476952 13595.80322548901495 
	-1218.202428084975509 4240.041410562083911 13603.30002964729283 
	-1218.202428084988469 4259.680481494531705 13618.66326944088723 
	-1218.202428085125121 4289.938924691303328 13645.70383798816874 
	-1218.20242808524813 4327.379733328007205 13687.60018494781616 
	-1218.202428085418205 4359.894224513520385 13733.42510336197847 
	-1218.202428085578958 4387.073524897059542 13782.60236986062773 
	-1218.202428085786323 4408.575779135921948 13834.51352674924601 
	-1218.202428085960264 4424.130727102718083 13888.50577827731649 
	-1218.202428086202644 4431.189493723876694 13930.05153552015145 
	-1218.202428086236296 4433.938925553185982 13957.96917413661504 
	-1218.202428086252667 4434.921763315197495 13971.96104171529623 
	-1218.202428086272676 4435.413392070336158 13983.63932207815378 
	-1218.202428086279042 4435.585499624960903 13991.81894308989285 
	-1218.202428086280634 4435.628526303687977 13995.9093574771814 
	-1218.20242808628177 4435.640820025234461 13998.24682326160291 
	-1218.202428086281543 4435.642869097142466 13999.41557051636664 
	-1218.202428086281543 4435.642869071301902 13999.99994414780849 
	-1134.869094752948286 4435.642869071300993 13999.99994414780849 
	-1134.869094752946694 4435.642868864580123 14004.67493319933965 
	-1134.869094752922365 4435.511724541485819 14014.02491182202539 
	-1134.869094752900082 4434.725087942487335 14032.71015296537189 
	-1134.869094752816181 4432.759710602707855 14056.01156560871641 
	-1134.869094752739556 4428.836916952939646 14083.79697262966147 
	-1134.869094752671572 4421.538068150427534 14120.49279051745179 
	-1134.869094752414867 4411.168222133082054 14156.48758654053927 
	-1134.869094752357796 4397.824848041592304 14191.44197973317932 
	-1134.869094752298906 4382.543542295208681 14225.59365476726998 
	-1134.869094752106321 4364.423979080207573 14258.37840925939599 
	-1134.869094752065621 4346.235498639068283 14285.59870228832006 
	-1134.869094752050614 4335.20046825479767 14300.69787132747297 
	-1134.86909475203197 4318.019346800850144 14322.87359782765998 
	-1134.869094751891225 4289.938895048881022 14354.29595159397286 
	-1134.869094751785269 4249.594126781169507 14390.34987148487744 
	-1134.869094751683861 4207.365996846941016 14420.70966092235903 
	-1134.869094751647708 4174.936520137377556 14439.43298060657435 
	-1134.869094751638158 4152.607231039696671 14450.53110407937857 
	-1134.869094751632474 4137.541210931010028 14457.55634637844378 
	-1134.869094751604734 4103.067792364239722 14472.08963513645176 
	-1134.869094751546527 4059.265357205556029 14485.60041422003997 
	-1134.869094751530383 4010.233446872681725 14494.87631245669581 
	-1134.869094751494686 3982.340532021391027 14498.01951166514664 
	-1134.869094751491502 3963.679775649792191 14499.2424953713853 
	-1134.869094751490366 3954.339611105150652 14499.67948876964147 
	-1134.869094751488547 3944.992899418341949 14499.9417190703316 
	-1134.869094751486045 3926.29295173292212 14500.11658346276636 
	-1134.869094751467401 3898.242986226138328 14499.06724833323824 
	-1134.869094751453076 3861.052353179837155 14494.87632411688901 
	-1134.869094751430339 3812.020583566347796 14485.60045243519198 
	-1134.869094751408056 3752.289513531913599 14467.1769332888216 
	-1134.869094751387138 3695.972400257554909 14440.05481660909027 
	-1134.869094751373268 3653.720403358432577 14413.50437256616715 
	-1134.869094751368721 3628.626057634918197 14394.98447186811427 
	-1134.869094751364855 3609.423294463166712 14379.0740783592646 
	-1134.869094751363036 3597.801679577468349 14368.68842910792591 
	-1134.869094751362354 3588.742271470250671 14360.12350437556961 
	-1134.869094751361672 3579.844644877902738 14351.39066022507359 
	-1134.869094751358716 3564.706231782295617 14335.67563765354862 
	-1134.869094751355306 3544.36296467711054 14312.03540584973962 
	-1134.869094751350531 3514.728939118884227 14271.88572065054905 
	-1134.869094751343937 3487.641987232109386 14224.97057293219041 
	-1134.869094751340299 3465.016833599515849 14171.29385600906426 
	-1134.869094751338935 3450.299833942986425 14123.5836613777592 
	-1134.869094751336888 3442.055821784480941 14082.80128933780543 
	-1134.869094751335751 3437.921010914415092 14049.80465656150773 
	-1134.869094751335069 3436.05711388824966 14024.9333642566271 
	-1134.869094751335524 3435.435356592861353 14000.00007312069101 
	-1134.869094751334842 3436.264403534992198 13966.75571945165757 
	-1134.869094751336434 3441.234529896777531 13917.07506798221038 
	-1134.869094751338935 3456.070121212107551 13852.071449211664 
	-1134.869094751344619 3476.623940153902367 13799.70354806483192 
	-1134.869094751345528 3493.481883076467966 13766.31111300666089 
	-1134.869094751346211 3505.544662330484243 13744.4851370973538 
	-1134.869094751348484 3528.774263534079182 13707.51322362956489 
	-1134.869094751358261 3557.354096793942972 13671.67476050088953 
	-1134.869094751360535 3586.379549231445253 13641.91809864895731 
	-1134.869094751363036 3610.756529253274948 13619.29864983664083 
	-1134.869094751367356 3643.28664076434643 13593.35758229309431 
	-1134.86909475137486 3692.217490368012477 13561.75287981373367 
	-1134.869094751391913 3741.026108808299796 13538.24849570658625 
	-1134.869094751399871 3788.127890495979955 13521.76854856051068 
	-1134.869094751409875 3830.303552795387532 13510.46673333017134 
	-1134.869094751430566 3879.542989556624434 13502.1005493639841 
	-1134.869094751454895 3935.642790148555832 13498.95007062935474 
	-1134.869094751481953 3991.742605461161475 13502.10050726303234 
	-1134.869094751510147 4040.982018653396608 13510.46671346061885 
	-1134.869094751531293 4083.157719830767746 13521.76841740561395 
	-1134.869094751541979 4130.25937817524391 13538.24865742797374 
	-1134.869094751592911 4175.313644519585068 13559.94456635537972 
	-1134.869094751621788 4212.284021498178845 13583.17667001254267 
	-1134.869094751638613 4230.080041582476042 13595.80322548901495 
	-1134.869094751642251 4240.041410562083001 13603.30002964729283 
	-1134.869094751655211 4259.680481494530795 13618.66326944088723 
	-1134.869094751791863 4289.938924691302418 13645.70383798816874 
	-1134.869094751914872 4327.379733328006296 13687.60018494781616 
	-1134.869094752084948 4359.894224513519475 13733.42510336197847 
	-1134.869094752245701 4387.073524897058633 13782.60236986062773 
	-1134.869094752453066 4408.575779135921039 13834.51352674924601 
	-1134.869094752626779 4424.130727102717174 13888.50577827731649 
	-1134.869094752869614 4431.189493723875785 13930.05153552015145 
	-1134.869094752903038 4433.938925553185072 13957.96917413661504 
	-1134.869094752919409 4434.921763315196586 13971.96104171529623 
	-1134.869094752939418 4435.413392070335249 13983.63932207815378 
	-1134.869094752945784 4435.585499624959994 13991.81894308989285 
	-1134.869094752947376 4435.628526303687067 13995.9093574771814 
	-1134.869094752948513 4435.640820025233552 13998.24682326160291 
	-1134.869094752948286 4435.642869097141556 13999.41557051636664 
	-1134.869094752948286 4435.642869071300993 13999.99994414780849 
	-1051.535761419271694 4435.642869071298264 13999.99994414780849 
	-1051.535761419270557 4435.642868864578304 14004.67493319933965 
	-1051.535761419251457 4435.511724541484 14014.02491182202539 
	-1051.535761419233495 4434.725087942484606 14032.71015296537189 
	-1051.535761419166874 4432.759710602706036 14056.01156560871641 
	-1051.535761419105938 4428.836916952938736 14083.79697262966147 
	-1051.535761419052051 4421.538068150426625 14120.49279051745179 
	-1051.535761418847869 4411.168222133082054 14156.48758654053927 
	-1051.535761418802622 4397.824848041592304 14191.44197973317932 
	-1051.535761418755783 4382.543542295207772 14225.59365476726998 
	-1051.535761418602306 4364.423979080206664 14258.37840925939599 
	-1051.535761418570701 4346.235498639066464 14285.59870228832006 
	-1051.535761418558423 4335.20046825479676 14300.69787132747297 
	-1051.535761418544098 4318.019346800849235 14322.87359782765998 
	-1051.53576141843223 4289.938895048881022 14354.29595159397286 
	-1051.535761418347647 4249.594126781168598 14390.34987148487744 
	-1051.535761418267384 4207.365996846940106 14420.70966092235903 
	-1051.535761418238735 4174.936520137376647 14439.43298060657435 
	-1051.535761418231004 4152.607231039695762 14450.53110407937857 
	-1051.535761418226457 4137.541210931009118 14457.55634637844378 
	-1051.535761418204856 4103.067792364237903 14472.08963513645176 
	-1051.535761418158017 4059.265357205554665 14485.60041422003997 
	-1051.535761418145739 4010.233446872680361 14494.87631245669581 
	-1051.535761418116863 3982.340532021390572 14498.01951166514664 
	-1051.535761418115271 3963.679775649791736 14499.2424953713853 
	-1051.535761418113452 3954.339611105150198 14499.67948876964147 
	-1051.535761418112543 3944.992899418341494 14499.9417190703316 
	-1051.535761418110269 3926.292951732920756 14500.11658346276636 
	-1051.535761418096399 3898.242986226136964 14499.06724833323824 
	-1051.535761418084121 3861.052353179836246 14494.87632411688901 
	-1051.535761418067068 3812.020583566346431 14485.60045243519198 
	-1051.535761418048423 3752.289513531911325 14467.1769332888216 
	-1051.53576141803228 3695.97240025755309 14440.05481660909027 
	-1051.535761418021139 3653.720403358430303 14413.50437256616715 
	-1051.535761418017046 3628.626057634916378 14394.98447186811427 
	-1051.535761418014545 3609.423294463164893 14379.0740783592646 
	-1051.535761418012953 3597.801679577467894 14368.68842910792591 
	-1051.535761418012498 3588.742271470249307 14360.12350437556961 
	-1051.535761418012044 3579.844644877901374 14351.39066022507359 
	-1051.535761418009542 3564.706231782294253 14335.67563765354862 
	-1051.535761418007269 3544.36296467710963 14312.03540584973962 
	-1051.535761418002721 3514.728939118882863 14271.88572065054905 
	-1051.535761417998174 3487.641987232109386 14224.97057293219041 
	-1051.535761417994308 3465.016833599514939 14171.29385600906426 
	-1051.535761417994081 3450.29983394298597 14123.5836613777592 
	-1051.535761417991807 3442.055821784480486 14082.80128933780543 
	-1051.535761417991125 3437.921010914415092 14049.80465656150773 
	-1051.535761417990443 3436.05711388824966 14024.9333642566271 
	-1051.535761417990898 3435.435356592861353 14000.00007312069101 
	-1051.535761417989988 3436.264403534992653 13966.75571945165757 
	-1051.535761417991807 3441.234529896777531 13917.07506798221038 
	-1051.535761417993399 3456.070121212107097 13852.071449211664 
	-1051.535761417998401 3476.623940153902367 13799.70354806483192 
	-1051.535761417998629 3493.481883076467966 13766.31111300666089 
	-1051.535761417999765 3505.544662330484243 13744.4851370973538 
	-1051.53576141800022 3528.774263534080092 13707.51322362956489 
	-1051.53576141800977 3557.354096793943427 13671.67476050088953 
	-1051.535761418010452 3586.379549231446163 13641.91809864895731 
	-1051.53576141801318 3610.756529253274948 13619.29864983664083 
	-1051.535761418015682 3643.286640764346885 13593.35758229309431 
	-1051.535761418022503 3692.217490368012022 13561.75287981373367 
	-1051.535761418035463 3741.026108808299341 13538.24849570658625 
	-1051.53576141804183 3788.127890495980409 13521.76854856051068 
	-1051.535761418049788 3830.303552795387532 13510.46673333017134 
	-1051.535761418066159 3879.542989556625344 13502.1005493639841 
	-1051.535761418085031 3935.642790148556742 13498.95007062935474 
	-1051.535761418107086 3991.742605461162384 13502.10050726303234 
	-1051.535761418129368 4040.982018653397517 13510.46671346061885 
	-1051.535761418146421 4083.157719830768656 13521.76841740561395 
	-1051.535761418154834 4130.259378175244819 13538.24865742797374 
	-1051.535761418195079 4175.313644519585978 13559.94456635537972 
	-1051.535761418218044 4212.284021498179754 13583.17667001254267 
	-1051.535761418231232 4230.080041582476952 13595.80322548901495 
	-1051.535761418234188 4240.041410562083911 13603.30002964729283 
	-1051.535761418244419 4259.680481494531705 13618.66326944088723 
	-1051.535761418353104 4289.938924691303328 13645.70383798816874 
	-1051.535761418450647 4327.379733328007205 13687.60018494781616 
	-1051.535761418585707 4359.894224513520385 13733.42510336197847 
	-1051.535761418713491 4387.073524897059542 13782.60236986062773 
	-1051.53576141887811 4408.575779135921948 13834.51352674924601 
	-1051.53576141901658 4424.130727102717174 13888.50577827731649 
	-1051.535761419208939 4431.189493723876694 13930.05153552015145 
	-1051.535761419235769 4433.938925553185982 13957.96917413661504 
	-1051.535761419248729 4434.921763315197495 13971.96104171529623 
	-1051.5357614192651 4435.413392070335249 13983.63932207815378 
	-1051.535761419270102 4435.585499624959994 13991.81894308989285 
	-1051.535761419271239 4435.628526303686158 13995.9093574771814 
	-1051.535761419271694 4435.640820025229914 13998.24682326160291 
	-1051.535761419271921 4435.642869097137918 13999.41557051636664 
	-1051.535761419271694 4435.642869071298264 13999.99994414780849 
	-968.2024280859384362 4435.642869071298264 13999.99994414780849 
	-968.2024280859372993 4435.642868864578304 14004.67493319933965 
	-968.2024280859180863 4435.511724541484 14014.02491182202539 
	-968.2024280859003511 4434.725087942484606 14032.71015296537189 
	-968.2024280858336169 4432.759710602706036 14056.01156560871641 
	-968.2024280857726808 4428.836916952938736 14083.79697262966147 
	-968.2024280857186795 4421.538068150426625 14120.49279051745179 
	-968.2024280855147254 4411.168222133082054 14156.48758654053927 
	-968.202428085469478 4397.824848041592304 14191.44197973317932 
	-968.2024280854225253 4382.543542295207772 14225.59365476726998 
	-968.2024280852692755 4364.423979080206664 14258.37840925939599 
	-968.2024280852373295 4346.235498639066464 14285.59870228832006 
	-968.2024280852252787 4335.20046825479676 14300.69787132747297 
	-968.2024280852107267 4318.019346800849235 14322.87359782765998 
	-968.2024280850988589 4289.938895048881022 14354.29595159397286 
	-968.202428085014617 4249.594126781168598 14390.34987148487744 
	-968.202428084934013 4207.365996846940106 14420.70966092235903 
	-968.2024280849054776 4174.936520137376647 14439.43298060657435 
	-968.2024280848978606 4152.607231039695762 14450.53110407937857 
	-968.2024280848931994 4137.541210931009118 14457.55634637844378 
	-968.2024280848714852 4103.067792364237903 14472.08963513645176 
	-968.2024280848248736 4059.26535720555421 14485.60041422003997 
	-968.2024280848123681 4010.233446872679906 14494.87631245669581 
	-968.202428084783719 3982.340532021390118 14498.01951166514664 
	-968.2024280847817863 3963.679775649791281 14499.2424953713853 
	-968.2024280847804221 3954.339611105149743 14499.67948876964147 
	-968.2024280847792852 3944.99289941834104 14499.9417190703316 
	-968.2024280847772388 3926.292951732920301 14500.11658346276636 
	-968.2024280847629143 3898.242986226136509 14499.06724833323824 
	-968.2024280847510909 3861.052353179835791 14494.87632411688901 
	-968.2024280847335831 3812.020583566345977 14485.60045243519198 
	-968.2024280847153932 3752.28951353191087 14467.1769332888216 
	-968.2024280846989086 3695.972400257552636 14440.05481660909027 
	-968.2024280846877673 3653.720403358429849 14413.50437256616715 
	-968.2024280846840156 3628.626057634915924 14394.98447186811427 
	-968.2024280846812871 3609.423294463164439 14379.0740783592646 
	-968.2024280846796955 3597.801679577467439 14368.68842910792591 
	-968.2024280846792408 3588.742271470248852 14360.12350437556961 
	-968.2024280846786723 3579.844644877900919 14351.39066022507359 
	-968.2024280846763986 3564.706231782293798 14335.67563765354862 
	-968.2024280846738975 3544.362964677109176 14312.03540584973962 
	-968.2024280846695774 3514.728939118882408 14271.88572065054905 
	-968.2024280846646889 3487.641987232108931 14224.97057293219041 
	-968.2024280846612783 3465.016833599514484 14171.29385600906426 
	-968.2024280846605961 3450.299833942985515 14123.5836613777592 
	-968.2024280846586635 3442.055821784480031 14082.80128933780543 
	-968.2024280846578677 3437.921010914414637 14049.80465656150773 
	-968.2024280846571855 3436.057113888249205 14024.9333642566271 
	-968.2024280846575266 3435.435356592860899 14000.00007312069101 
	-968.2024280846569582 3436.264403534992198 13966.75571945165757 
	-968.2024280846584361 3441.234529896777076 13917.07506798221038 
	-968.2024280846601414 3456.070121212106642 13852.071449211664 
	-968.2024280846650299 3476.623940153901913 13799.70354806483192 
	-968.2024280846654847 3493.481883076467511 13766.31111300666089 
	-968.2024280846662805 3505.544662330483789 13744.4851370973538 
	-968.202428084667531 3528.774263534079637 13707.51322362956489 
	-968.2024280846761712 3557.354096793942972 13671.67476050088953 
	-968.2024280846774218 3586.379549231445708 13641.91809864895731 
	-968.2024280846798092 3610.756529253274493 13619.29864983664083 
	-968.2024280846825377 3643.28664076434643 13593.35758229309431 
	-968.2024280846891315 3692.217490368011568 13561.75287981373367 
	-968.2024280847023192 3741.026108808298886 13538.24849570658625 
	-968.202428084708572 3788.127890495979955 13521.76854856051068 
	-968.2024280847165301 3830.303552795387077 13510.46673333017134 
	-968.2024280847327873 3879.542989556624889 13502.1005493639841 
	-968.2024280847520004 3935.642790148556287 13498.95007062935474 
	-968.2024280847737145 3991.742605461161929 13502.10050726303234 
	-968.2024280847962245 4040.982018653397063 13510.46671346061885 
	-968.2024280848131639 4083.157719830768201 13521.76841740561395 
	-968.202428084821463 4130.259378175244819 13538.24865742797374 
	-968.2024280848618218 4175.313644519585978 13559.94456635537972 
	-968.2024280848847866 4212.284021498179754 13583.17667001254267 
	-968.2024280848979743 4230.080041582476952 13595.80322548901495 
	-968.2024280849009301 4240.041410562083911 13603.30002964729283 
	-968.2024280849111619 4259.680481494531705 13618.66326944088723 
	-968.2024280850198465 4289.938924691303328 13645.70383798816874 
	-968.2024280851175035 4327.379733328007205 13687.60018494781616 
	-968.2024280852524498 4359.894224513520385 13733.42510336197847 
	-968.2024280853802338 4387.073524897059542 13782.60236986062773 
	-968.2024280855449661 4408.575779135921948 13834.51352674924601 
	-968.2024280856832092 4424.130727102717174 13888.50577827731649 
	-968.2024280858757947 4431.189493723876694 13930.05153552015145 
	-968.2024280859025112 4433.938925553185982 13957.96917413661504 
	-968.2024280859155851 4434.921763315197495 13971.96104171529623 
	-968.2024280859318424 4435.413392070335249 13983.63932207815378 
	-968.2024280859368446 4435.585499624959994 13991.81894308989285 
	-968.2024280859380951 4435.628526303686158 13995.9093574771814 
	-968.2024280859384362 4435.640820025229914 13998.24682326160291 
	-968.2024280859386636 4435.642869097137918 13999.41557051636664 
	-968.2024280859384362 4435.642869071298264 13999.99994414780849 
	0 
	
	0 
	0 
	85 0 0.004464285714285714038 0.008928571428571428076 0.01785714285714285615 0.02678571428571428423 0.0357142857142857123 0.05357142857142856845 0.0625 0.07142857142857142461 0.08928571428571427382 0.09821428571428569843 0.1026785714285714246 0.1071428571428571369 0.125 0.1428571428571428492 0.1587301587301587213 0.1746031746031745935 0.1785714285714285476 0.1825396825396825295 0.1904761904761904656 0.2142857142857142738 0.226190476190476164 0.238095238095238082 0.2410714285714285476 0.2440476190476190133 0.2470238095238094789 0.2499999999999999722 0.2619047619047618625 0.2738095238095237804 0.2857142857142856984 0.3095238095238095344 0.3333333333333333148 0.3452380952380952328 0.3571428571428570953 0.3690476190476190133 0.3720238095238095344 0.375 0.3809523809523809312 0.3928571428571428492 0.4047619047619047672 0.4285714285714285476 0.4444444444444444198 0.4603174603174602919 0.476190476190476164 0.4841269841269840724 0.4920634920634920362 0.5 0.5079365079365079083 0.5238095238095237249 0.5476190476190475609 0.5714285714285713969 0.5773809523809523281 0.5833333333333332593 0.5952380952380951218 0.6190476190476189577 0.6269841269841269771 0.6349206349206348854 0.650793650793650702 0.6666666666666666297 0.6904761904761904656 0.7023809523809523281 0.7142857142857141906 0.7321428571428569843 0.749999999999999889 0.7678571428571427937 0.7857142857142855874 0.7976190476190474499 0.8095238095238094234 0.8333333333333332593 0.8452380952380951218 0.851190476190476053 0.8541666666666665186 0.8571428571428570953 0.875 0.8928571428571427937 0.9107142857142856984 0.9285714285714286031 0.9464285714285713969 0.9642857142857143016 0.9821428571428572063 0.9866071428571429047 0.9910714285714286031 0.9977678571428572063 0.9988839285714286031 0.9994419642857143016 
	0 
	0 
	0 
	F 1 F 0 F 1 F 0 } I I I I #
tcoedge-coedge $-1 -1 $-1 $14 $14 $18 $19 reversed $9 $20 -6.283185307179586232 -0 #
tcoedge-coedge $-1 -1 $-1 $21 $22 $11 $16 reversed $12 $23 -6.283185307179586232 -0 #
tedge-edge $-1 -1 $-1 $24 0 $24 6.283185307179586232 $15 $25 forward @7 unknown 0.000737450261634658771 #
pcurve $-1 -1 $-1 0 forward { exppc nurbs 2 periodic 5 
	0 2 1.570796326794896558 2 3.141592653589793116 2 4.712388980384689674 2 6.283185307179586232 2 
	0 500 1 
	-500 500 0.707106781186543798 
	-500 0 1 
	-500 -500 0.7071067811865463515 
	0 -500 1 
	500 -500 0.7071067811865463515 
	500 0 1 
	500 500 0.707106781186543798 
	0 500 1 
	0 
	plane -968.202428084613075 3935.642797989821702 14000.00000000000182 1 -3.637978807091713027e-15 0 0 0 -1 forward_v I I I I 
	} 0 0 #
tcoedge-coedge $-1 -1 $-1 $22 $21 $14 $19 forward $12 $26 0 6.283185307179586232 #
tedge-edge $-1 -1 $-1 $27 0 $27 6.283185307179586232 $18 $28 forward @7 unknown 0.0007374502609632510716 #
pcurve $-1 -1 $-1 0 forward { exppc nurbs 2 periodic 5 
	-6.283185307179586232 2 -4.712388980384689674 2 -3.141592653589793116 2 -1.570796326794896558 2 0 2 
	0 500 1 
	500 500 0.707106781186543798 
	500 0 1 
	500 -500 0.7071067811865463515 
	0 -500 1 
	-500 -500 0.7071067811865463515 
	-500 0 1 
	-500 500 0.707106781186543798 
	0 500 1 
	0 
	plane -1218.202428084613075 3935.642797989822611 14000.00000000000182 -1 3.637978807091713027e-15 -0 0 0 -1 reverse_v I I I I 
	} 0 0 #
coedge $-1 -1 $-1 $18 $15 $22 $29 reversed $12 $30 #
coedge $-1 -1 $-1 $15 $18 $21 $29 forward $12 $31 #
pcurve $-1 -1 $-1 0 forward { exppc nubs 1 periodic 2 
	-6.283185307179586232 1 -0 1 
	1 1 
	0 1 
	0 
	spline forward { ref 0 } I I I I 
	} 0 0 #
tvertex-vertex $-1 -1 $-1 $16 $32 9.039936736235204518e-05 #
ellipse-curve $-1 -1 $-1 -968.202428084613075 3935.642797989821702 14000.00000000000182 1 -3.637978807091713027e-15 0 1.818989403545856476e-12 500 0 1 I I #
pcurve $-1 -1 $-1 0 forward { exppc nubs 1 periodic 2 
	0 1 6.283185307179586232 1 
	0 0 
	1 0 
	4.411402399551012014e-13 
	spline forward { ref 0 } I I I I 
	} 0 0 #
tvertex-vertex $-1 -1 $-1 $19 $33 9.039936951346141394e-05 #
ellipse-curve $-1 -1 $-1 -1218.202428084613075 3935.642797989822611 14000.00000000000182 1 -3.637978807091713027e-15 0 1.818989403545856476e-12 500 0 1 I I #
edge $-1 -1 $-1 $27 0 $24 1 $22 $34 forward @7 tangent #
pcurve $-1 -1 $-1 -1 $34 0 0 #
pcurve $-1 -1 $-1 1 $34 1 0 #
point $-1 -1 $-1 -968.2024280846112561 4435.642797989821702 14000.00000000000182 #
point $-1 -1 $-1 -1218.202428084611256 4435.642797989822611 14000.00000000000182 #
intcurve-curve $-1 -1 $-1 forward { parcur full nubs 3 open 2 
	0 3 1 3 
	-1218.202428086281543 4435.642869071301902 13999.99994414780849 
	-1134.869094752948286 4435.642869071300993 13999.99994414780849 
	-1051.535761419271694 4435.642869071298264 13999.99994414780849 
	-968.2024280859384362 4435.642869071298264 13999.99994414780849 
	0 
	
	spline forward { ref 0 } I I I I 
	null_surface 
	nubs 1 open 2 
	0 1 1 1 
	0 0 
	0 1 
	
	nullbs 
	I I 
	0 
	0 
	0 
	surf1 } I I #
End-of-ACIS-data 