700 0 1 0           
4 LibG 20 ASM 224.0.1.65535 NT 24 Wed Jul 17 12:52:13 2019 
1000 9.999999999999999547e-07 1.000000000000000036e-10 
body $-1 -1 $-1 $1 $-1 $2 #
lump $-1 -1 $-1 $-1 $3 $0 #
transform $-1 -1 1 0 0 0 1 0 0 0 1 0 0 0 1 no_rotate no_reflect no_shear #
shell $-1 -1 $-1 $-1 $-1 $4 $-1 $1 #
face $-1 -1 $-1 $5 $6 $3 $-1 $7 forward single #
face $-1 -1 $-1 $8 $9 $3 $-1 $10 reversed single #
loop $-1 -1 $-1 $-1 $11 $4 #
plane-surface $-1 -1 $-1 9031.79757191538738 3935.642797989785322 14000.00000000000182 1 -3.637978807091713027e-15 0 0 0 -1 forward_v I I I I #
face $-1 -1 $-1 $-1 $12 $3 $-1 $13 forward single #
loop $-1 -1 $-1 $-1 $14 $5 #
plane-surface $-1 -1 $-1 8781.79757191538738 3935.642797989786231 14000.00000000000182 1 -3.637978807091713027e-15 0 0 0 -1 forward_v I I I I #
tcoedge-coedge $-1 -1 $-1 $11 $11 $15 $16 forward $6 $17 0 6.283185307179586232 #
loop $-1 -1 $-1 $-1 $18 $8 #
spline-surface $-1 -1 $-1 forward { exactsur full nubs 3 3 periodic open none none 107 2 
	0 3 0.0005580357142857142547 1 0.001116071428571428509 1 0.002232142857142857019 1 0.004464285714285714038 1 
	0.008928571428571428076 1 0.01785714285714285615 1 0.0357142857142857123 1 0.05357142857142856845 1 0.07142857142857142461 1 
	0.08928571428571427382 1 0.1071428571428571369 1 0.1160714285714285754 1 0.125 1 0.1428571428571428492 1 
	0.1587301587301587213 1 0.1746031746031745935 1 0.1904761904761904656 1 0.2023809523809523836 1 0.2142857142857142738 1 
	0.226190476190476164 1 0.238095238095238082 1 0.2619047619047618625 1 0.2738095238095237804 1 0.2857142857142856984 1 
	0.3095238095238095344 1 0.3125 1 0.3154761904761904656 1 0.3214285714285713969 1 0.3333333333333333148 1 
	0.3452380952380952328 1 0.351190476190476164 1 0.3571428571428570953 1 0.3630952380952380265 1 0.3690476190476190133 1 
	0.375 1 0.3809523809523809312 1 0.3928571428571428492 1 0.4047619047619047672 1 0.4166666666666666297 1 
	0.4285714285714285476 1 0.4444444444444444198 1 0.4603174603174602919 1 0.476190476190476164 1 0.4841269841269840724 1 
	0.4920634920634920362 1 0.5079365079365079083 1 0.5158730158730158166 1 0.5238095238095237249 1 0.5476190476190475609 1 
	0.5483630952380951218 1 0.5491071428571427937 1 0.5505952380952381375 1 0.5535714285714286031 1 0.5595238095238095344 1 
	0.5714285714285713969 1 0.5773809523809523281 1 0.5833333333333332593 1 0.5863095238095237249 1 0.5892857142857141906 1 
	0.5952380952380951218 1 0.601190476190476053 1 0.6071428571428569843 1 0.6130952380952379155 1 0.6190476190476189577 1 
	0.6349206349206348854 1 0.650793650793650702 1 0.6666666666666666297 1 0.6785714285714286031 1 0.6904761904761904656 1 
	0.7023809523809523281 1 0.7053571428571427937 1 0.7083333333333332593 1 0.7142857142857141906 1 0.718749999999999889 1 
	0.7232142857142855874 1 0.7276785714285712858 1 0.7321428571428569843 1 0.7410714285714283811 1 0.749999999999999889 1 
	0.7589285714285713969 1 0.7678571428571427937 1 0.7857142857142855874 1 0.7976190476190474499 1 0.8095238095238094234 1 
	0.8214285714285713969 1 0.8333333333333332593 1 0.8452380952380951218 1 0.851190476190476053 1 0.8571428571428570953 1 
	0.875 1 0.8928571428571427937 1 0.9107142857142856984 1 0.9285714285714286031 1 0.9464285714285713969 1 
	0.9642857142857143016 1 0.9821428571428572063 1 0.9866071428571429047 1 0.9910714285714286031 1 0.9955357142857143016 1 
	0.9977678571428572063 1 0.9988839285714286031 1 0.9994419642857143016 1 0.9997209821428572063 1 0.9998604910714286031 1 
	0.9999302455357143016 1 1 3 
	0 3 1 3 
	8781.797571299308402 4435.642831137405665 13999.9999862247987 
	8781.797571299310221 4435.642831138094152 14000.58435985800679 
	8781.797571299422998 4435.640782088153173 14001.75310710700796 
	8781.79757129952668 4435.628488718385597 14004.09057295050661 
	8781.797571300039635 4435.585459590426581 14008.18098695354638 
	8781.797571301716744 4435.413365330073248 14016.36060994441868 
	8781.797571308574334 4434.725010953105084 14032.71019085420812 
	8781.797571330362189 4431.973762969336349 14065.33219686287885 
	8781.797571401401001 4424.130744061380938 14111.4941480225134 
	8781.797571459113897 4408.575757633079775 14165.48639545093101 
	8781.797571522674843 4387.073475541261359 14217.39751855050054 
	8781.797571571469234 4359.894223037063057 14266.57482732254539 
	8781.79757162236092 4332.798666041023353 14304.76213692456804 
	8781.797571635977874 4308.659431726607181 14333.34800195122079 
	8781.79757164934199 4282.956058481183391 14360.53608649439229 
	8781.79757168712058 4249.594209621579466 14390.35003781684281 
	8781.797571719291227 4207.366050768546302 14420.70984059978764 
	8781.797571736264217 4164.126577982847266 14445.67400515898407 
	8781.797571749131748 4122.40893161295844 14464.49785708670788 
	8781.797571765320754 4083.157878964117117 14478.23198394611427 
	8781.797571778550264 4047.007114157816432 14487.91892667673892 
	8781.797571784507454 4010.23346990684604 14494.87621316653713 
	8781.797571798328136 3960.64584669693977 14500.46510610375117 
	8781.797571810431691 3910.639783984210681 14500.46531401146603 
	8781.797571822105965 3861.052267485028096 14494.87592698494882 
	8781.797571831504683 3812.020380276521337 14485.60061782873709 
	8781.797571842032994 3773.195397684046384 14473.62508432045979 
	8781.797571844232152 3744.289900782207042 14461.96680002625908 
	8781.797571844585036 3732.816811543256335 14457.08840827057065 
	8781.797571846553183 3712.983682315881197 14447.99014227247608 
	8781.797571851284374 3685.409488618922296 14433.4168899913202 
	8781.797571856648574 3659.001572755624238 14416.82356174134839 
	8781.797571857461662 3638.663444345788321 14402.39282646883476 
	8781.797571858576703 3623.825165085998833 14391.00703986729604 
	8781.797571859620803 3609.423012972977631 14379.07436769219566 
	8781.797571860563039 3595.477088420230757 14366.61154713926771 
	8781.797571861476172 3582.006948250797905 14353.63595865594834 
	8781.797571862462064 3564.706128993330367 14335.67579451738857 
	8781.797571865226928 3544.362324191816242 14312.03589132014713 
	8781.797571868268278 3522.137913024569571 14281.92296870219434 
	8781.797571869465173 3502.226183597374984 14250.23333336809992 
	8781.797571872046319 3482.794793190045766 14213.46791700651738 
	8781.797571874069035 3465.017008691300362 14171.2939096363516 
	8781.797571875871654 3450.30041182080322 14123.58344613240115 
	8781.797571876477377 3442.056152314790324 14082.80127334656754 
	8781.797571877021255 3437.921524240821782 14049.80459433148462 
	8781.797571877292285 3435.43609645778406 14016.6429166446851 
	8781.797571877568771 3435.435806610002601 13983.3571827300766 
	8781.797571877605151 3437.921531641944966 13950.19554155049809 
	8781.797571877601513 3443.089154036882519 13908.94954115506516 
	8781.797571876892107 3450.680811123694184 13875.68620157632904 
	8781.797571876757502 3458.548814252297234 13850.38986724726419 
	8781.797571876757502 3459.488317818513224 13847.41817653681392 
	8781.79757187674295 3461.168918371144173 13842.22933885228304 
	8781.797571876626535 3464.675436729521152 13831.89948576441202 
	8781.797571876380971 3472.266055401038557 13811.44187334580965 
	8781.797571874742061 3482.243666737797412 13788.57300587473947 
	8781.797571874392816 3493.482012733104966 13766.31125753177184 
	8781.797571873834386 3501.021247224908166 13752.66999935209606 
	8781.79757187368341 3507.355526660768646 13741.93186342739864 
	8781.797571873497873 3513.889473177573564 13731.31404044842748 
	8781.797571872843037 3522.427055884761558 13718.27434007747615 
	8781.797571872166372 3533.25008741247666 13703.02073123498485 
	8781.797571871382388 3544.63587517662063 13688.18244923398561 
	8781.797571870516549 3556.568579257435886 13673.78032863753833 
	8781.797571869310559 3575.955070311455074 13652.08655324673964 
	8781.797571862232871 3604.250942211479924 13624.48745765902459 
	8781.797571859162417 3643.286604796142456 13593.35734788037735 
	8781.797571853330737 3681.73279906378275 13568.52615568597139 
	8781.797571846787832 3718.498479310059793 13549.09525329590178 
	8781.797571844943377 3752.801729628703015 13534.12870660312183 
	8781.797571837674695 3779.296171031479844 13524.85801540641478 
	8781.797571836985298 3797.216887415288056 13519.51322073859774 
	8781.797571836525094 3809.228562694964239 13516.17401220134889 
	8781.797571834709743 3822.843531027312565 13512.79744846510221 
	8781.79757183374204 3838.084760174573148 13509.54293386083737 
	8781.797571832552421 3851.878618954423473 13506.99972690199684 
	8781.797571831306414 3865.738379698097106 13504.84440187081964 
	8781.797571829913068 3884.291387992203454 13502.49000822215203 
	8781.797571824405168 3907.592782809327218 13500.52457350035729 
	8781.797571819690347 3935.642730713531364 13499.73751316075868 
	8781.797571812823662 3963.692644139760887 13500.52465813145682 
	8781.797571807313943 4000.974952137112723 13503.66896101972998 
	8781.79757177978172 4040.981923813139019 13510.46644626451598 
	8781.797571770244758 4083.157807695168231 13521.76789262128113 
	8781.797571759889252 4118.483715094384024 13534.1287161697619 
	8781.797571750485076 4152.787008804344623 13549.09523798385453 
	8781.79757173697908 4185.875995526756924 13566.58322225868869 
	8781.797571719873304 4212.283966091873481 13583.17647718388434 
	8781.797571714831065 4232.622043179874709 13597.60727859369763 
	8781.797571707606039 4257.352670769225369 13616.58339271214209 
	8781.797571662849805 4289.938784322652282 13645.70389846069338 
	8781.797571621409588 4327.379576390896545 13687.6002856474679 
	8781.797571567189152 4359.894109735097118 13733.42516986963528 
	8781.797571515393429 4387.073422838464467 13782.60243760863887 
	8781.797571450297255 4408.575702284494582 13834.51358120955047 
	8781.797571395929481 4424.130665078750098 13888.50582866252807 
	8781.797571322596923 4431.189451252469553 13930.05157873796634 
	8781.797571312454238 4433.93888534789312 13957.96921676749116 
	8781.797571307672115 4434.921724089861527 13971.96108406273379 
	8781.797571301787684 4435.413353805123734 13983.63936420924438 
	8781.79757130003054 4435.585461691252021 13991.818985163045 
	8781.797571299484844 4435.628488352275781 13995.90939955049544 
	8781.797571299353876 4435.639245491192924 13997.95468209735918 
	8781.797571299313859 4435.641934713681621 13998.97733281602996 
	8781.797571299306583 4435.642607033110835 13999.48865935156937 
	8781.797571299308402 4435.642799120721065 13999.78084611207487 
	8781.797571299308402 4435.642831137320172 13999.92693952064838 
	8781.797571299308402 4435.642831137405665 13999.9999862247987 
	8865.130904632642341 4435.642831137404755 13999.9999862247987 
	8865.13090463264416 4435.642831138093243 14000.58435985800679 
	8865.130904632756938 4435.640782088152264 14001.75310710700796 
	8865.13090463286062 4435.628488718384688 14004.09057295050661 
	8865.130904633373575 4435.585459590425671 14008.18098695354638 
	8865.130904635050683 4435.413365330072338 14016.36060994441868 
	8865.130904641908273 4434.725010953104174 14032.71019085420812 
	8865.130904663696128 4431.973762969335439 14065.33219686287885 
	8865.130904734734941 4424.130744061380028 14111.4941480225134 
	8865.130904792447836 4408.575757633078865 14165.48639545093101 
	8865.130904856008783 4387.07347554126045 14217.39751855050054 
	8865.130904904803174 4359.894223037062147 14266.57482732254539 
	8865.130904955694859 4332.798666041022443 14304.76213692456804 
	8865.130904969311814 4308.659431726606272 14333.34800195122079 
	8865.130904982675929 4282.956058481182481 14360.53608649439229 
	8865.13090502045452 4249.594209621578557 14390.35003781684281 
	8865.130905052625167 4207.366050768545392 14420.70984059978764 
	8865.130905069598157 4164.126577982846356 14445.67400515898407 
	8865.130905082465688 4122.408931612957531 14464.49785708670788 
	8865.130905098654694 4083.157878964116662 14478.23198394611427 
	8865.130905111884204 4047.007114157815977 14487.91892667673892 
	8865.130905117841394 4010.233469906845585 14494.87621316653713 
	8865.130905131662075 3960.645846696939316 14500.46510610375117 
	8865.130905143765631 3910.639783984210226 14500.46531401146603 
	8865.130905155439905 3861.052267485027642 14494.87592698494882 
	8865.130905164838623 3812.020380276520882 14485.60061782873709 
	8865.130905175366934 3773.195397684045929 14473.62508432045979 
	8865.130905177566092 3744.289900782206587 14461.96680002625908 
	8865.130905177918976 3732.816811543255881 14457.08840827057065 
	8865.130905179887122 3712.983682315880742 14447.99014227247608 
	8865.130905184618314 3685.409488618921841 14433.4168899913202 
	8865.130905189982514 3659.001572755623783 14416.82356174134839 
	8865.130905190795602 3638.663444345787866 14402.39282646883476 
	8865.130905191910642 3623.825165085998378 14391.00703986729604 
	8865.130905192954742 3609.423012972977176 14379.07436769219566 
	8865.130905193896979 3595.477088420230302 14366.61154713926771 
	8865.130905194810111 3582.00694825079745 14353.63595865594834 
	8865.130905195796004 3564.706128993329912 14335.67579451738857 
	8865.130905198560868 3544.362324191815787 14312.03589132014713 
	8865.130905201602218 3522.137913024569116 14281.92296870219434 
	8865.130905202799113 3502.226183597374529 14250.23333336809992 
	8865.130905205380259 3482.794793190045311 14213.46791700651738 
	8865.130905207402975 3465.017008691299907 14171.2939096363516 
	8865.130905209205594 3450.300411820802765 14123.58344613240115 
	8865.130905209811317 3442.05615231478987 14082.80127334656754 
	8865.130905210355195 3437.921524240821327 14049.80459433148462 
	8865.130905210626224 3435.436096457783606 14016.6429166446851 
	8865.130905210902711 3435.435806610002146 13983.3571827300766 
	8865.13090521093909 3437.921531641944512 13950.19554155049809 
	8865.130905210935452 3443.089154036882064 13908.94954115506516 
	8865.130905210226047 3450.680811123693729 13875.68620157632904 
	8865.130905210091441 3458.548814252296779 13850.38986724726419 
	8865.130905210091441 3459.488317818512769 13847.41817653681392 
	8865.130905210076889 3461.168918371143718 13842.22933885228304 
	8865.130905209960474 3464.675436729520698 13831.89948576441202 
	8865.130905209714911 3472.266055401038102 13811.44187334580965 
	8865.130905208076001 3482.243666737796957 13788.57300587473947 
	8865.130905207726755 3493.482012733104511 13766.31125753177184 
	8865.130905207168325 3501.021247224907711 13752.66999935209606 
	8865.130905207017349 3507.355526660768192 13741.93186342739864 
	8865.130905206831812 3513.889473177573109 13731.31404044842748 
	8865.130905206176976 3522.427055884761103 13718.27434007747615 
	8865.130905205500312 3533.250087412476205 13703.02073123498485 
	8865.130905204716328 3544.635875176620175 13688.18244923398561 
	8865.130905203850489 3556.568579257435431 13673.78032863753833 
	8865.130905202644499 3575.95507031145462 13652.08655324673964 
	8865.130905195566811 3604.250942211479469 13624.48745765902459 
	8865.130905192496357 3643.286604796142001 13593.35734788037735 
	8865.130905186664677 3681.732799063782295 13568.52615568597139 
	8865.130905180121772 3718.498479310059338 13549.09525329590178 
	8865.130905178277317 3752.80172962870256 13534.12870660312183 
	8865.130905171008635 3779.296171031479389 13524.85801540641478 
	8865.130905170319238 3797.216887415287601 13519.51322073859774 
	8865.130905169859034 3809.228562694963784 13516.17401220134889 
	8865.130905168043682 3822.84353102731211 13512.79744846510221 
	8865.13090516707598 3838.084760174572693 13509.54293386083737 
	8865.130905165886361 3851.878618954423018 13506.99972690199684 
	8865.130905164640353 3865.738379698096651 13504.84440187081964 
	8865.130905163247007 3884.291387992202999 13502.49000822215203 
	8865.130905157739107 3907.592782809326764 13500.52457350035729 
	8865.130905153024287 3935.642730713530909 13499.73751316075868 
	8865.130905146157602 3963.692644139760432 13500.52465813145682 
	8865.130905140647883 4000.974952137112268 13503.66896101972998 
	8865.130905113115659 4040.981923813138565 13510.46644626451598 
	8865.130905103578698 4083.157807695167776 13521.76789262128113 
	8865.130905093223191 4118.483715094383115 13534.1287161697619 
	8865.130905083819016 4152.787008804343714 13549.09523798385453 
	8865.13090507031302 4185.875995526756014 13566.58322225868869 
	8865.130905053207243 4212.283966091872571 13583.17647718388434 
	8865.130905048165005 4232.622043179873799 13597.60727859369763 
	8865.130905040939979 4257.35267076922446 13616.58339271214209 
	8865.130904996183745 4289.938784322651372 13645.70389846069338 
	8865.130904954743528 4327.379576390895636 13687.6002856474679 
	8865.130904900523092 4359.894109735096208 13733.42516986963528 
	8865.130904848727369 4387.073422838463557 13782.60243760863887 
	8865.130904783631195 4408.575702284493673 13834.51358120955047 
	8865.13090472926342 4424.130665078749189 13888.50582866252807 
	8865.130904655930863 4431.189451252468643 13930.05157873796634 
	8865.130904645788178 4433.93888534789221 13957.96921676749116 
	8865.130904641006055 4434.921724089860618 13971.96108406273379 
	8865.130904635121624 4435.413353805122824 13983.63936420924438 
	8865.13090463336448 4435.585461691251112 13991.818985163045 
	8865.130904632818783 4435.628488352274871 13995.90939955049544 
	8865.130904632687816 4435.639245491192014 13997.95468209735918 
	8865.130904632647798 4435.641934713680712 13998.97733281602996 
	8865.130904632640522 4435.642607033109925 13999.48865935156937 
	8865.130904632642341 4435.642799120720156 13999.78084611207487 
	8865.130904632642341 4435.642831137319263 13999.92693952064838 
	8865.130904632642341 4435.642831137404755 13999.9999862247987 
	8948.464237948432128 4435.642831137402936 13999.9999862247987 
	8948.464237948433947 4435.642831138092333 14000.58435985800679 
	8948.464237948552181 4435.640782088150445 14001.75310710700796 
	8948.464237948659502 4435.628488718383778 14004.09057295050661 
	8948.46423794918519 4435.585459590424762 14008.18098695354638 
	8948.464237950911411 4435.413365330072338 14016.36060994441868 
	8948.464237957963633 4434.725010953103265 14032.71019085420812 
	8948.464237980371763 4431.973762969335439 14065.33219686287885 
	8948.464238053429654 4424.130744061379119 14111.4941480225134 
	8948.464238112786916 4408.575757633078865 14165.48639545093101 
	8948.464238178159576 4387.07347554125954 14217.39751855050054 
	8948.464238228341856 4359.894223037060328 14266.57482732254539 
	8948.464238280681457 4332.798666041021534 14304.76213692456804 
	8948.464238294687675 4308.659431726605362 14333.34800195122079 
	8948.464238308431959 4282.956058481180662 14360.53608649439229 
	8948.464238347285573 4249.594209621576738 14390.35003781684281 
	8948.46423838037299 4207.366050768544483 14420.70984059978764 
	8948.464238397828012 4164.126577982844537 14445.67400515898407 
	8948.464238411062979 4122.408931612956621 14464.49785708670788 
	8948.464238427712189 4083.157878964116207 14478.23198394611427 
	8948.46423844131823 4047.007114157815067 14487.91892667673892 
	8948.464238447444586 4010.233469906845585 14494.87621316653713 
	8948.464238461658169 3960.645846696938406 14500.46510610375117 
	8948.464238474107333 3910.639783984208862 14500.46531401146603 
	8948.464238486112663 3861.052267485025823 14494.87592698494882 
	8948.464238495780592 3812.020380276519063 14485.60061782873709 
	8948.464238506607217 3773.195397684044565 14473.62508432045979 
	8948.464238508870039 3744.289900782205223 14461.96680002625908 
	8948.464238509232018 3732.816811543255426 14457.08840827057065 
	8948.464238511256553 3712.983682315880287 14447.99014227247608 
	8948.464238516124169 3685.409488618922751 14433.4168899913202 
	8948.464238521639345 3659.001572755624693 14416.82356174134839 
	8948.464238522477899 3638.663444345788776 14402.39282646883476 
	8948.464238523623862 3623.825165085999288 14391.00703986729604 
	8948.464238524698885 3609.423012972978086 14379.07436769219566 
	8948.464238525668407 3595.477088420231212 14366.61154713926771 
	8948.464238526607005 3582.006948250798359 14353.63595865594834 
	8948.464238527622001 3564.706128993330822 14335.67579451738857 
	8948.464238530466901 3544.362324191816242 14312.03589132014713 
	8948.464238533595562 3522.137913024570025 14281.92296870219434 
	8948.464238534825199 3502.226183597374984 14250.23333336809992 
	8948.464238537479105 3482.794793190046221 14213.46791700651738 
	8948.464238539560029 3465.017008691300816 14171.2939096363516 
	8948.464238541413579 3450.300411820803674 14123.58344613240115 
	8948.464238542037492 3442.056152314790779 14082.80127334656754 
	8948.464238542594103 3437.921524240822237 14049.80459433148462 
	8948.464238542874227 3435.436096457784515 14016.6429166446851 
	8948.464238543159809 3435.435806610003056 13983.3571827300766 
	8948.464238543196188 3437.921531641945421 13950.19554155049809 
	8948.46423854319255 3443.089154036882974 13908.94954115506516 
	8948.464238542461317 3450.680811123694639 13875.68620157632904 
	8948.464238542326711 3458.548814252297689 13850.38986724726419 
	8948.464238542324892 3459.488317818513679 13847.41817653681392 
	8948.464238542308522 3461.168918371144628 13842.22933885228304 
	8948.464238542190287 3464.675436729521607 13831.89948576441202 
	8948.464238541937448 3472.266055401039011 13811.44187334580965 
	8948.464238540251245 3482.243666737797867 13788.57300587473947 
	8948.464238539891085 3493.482012733105421 13766.31125753177184 
	8948.464238539318103 3501.02124722490862 13752.66999935209606 
	8948.46423853916167 3507.355526660769101 13741.93186342739864 
	8948.464238538972495 3513.889473177574018 13731.31404044842748 
	8948.46423853829765 3522.427055884762012 13718.27434007747615 
	8948.464238537602796 3533.250087412477114 13703.02073123498485 
	8948.464238536796984 3544.635875176621084 13688.18244923398561 
	8948.464238535905679 3556.56857925743634 13673.78032863753833 
	8948.464238534665128 3575.955070311455529 13652.08655324673964 
	8948.464238527385533 3604.250942211480378 13624.48745765902459 
	8948.464238524227767 3643.28660479614291 13593.35734788037735 
	8948.464238518230559 3681.732799063783204 13568.52615568597139 
	8948.464238511502117 3718.498479310060247 13549.09525329590178 
	8948.464238509603092 3752.80172962870347 13534.12870660312183 
	8948.464238502128865 3779.296171031480299 13524.85801540641478 
	8948.464238501419459 3797.216887415288511 13519.51322073859774 
	8948.464238500946522 3809.228562694964694 13516.17401220134889 
	8948.464238499080238 3822.84353102731302 13512.79744846510221 
	8948.46423849808707 3838.084760174573603 13509.54293386083737 
	8948.46423849686289 3851.878618954423928 13506.99972690199684 
	8948.464238495580503 3865.73837969809756 13504.84440187081964 
	8948.464238494147139 3884.291387992203909 13502.49000822215203 
	8948.464238488482806 3907.592782809327673 13500.52457350035729 
	8948.464238483629742 3935.642730713531819 13499.73751316075868 
	8948.464238476570245 3963.692644139760887 13500.52465813145682 
	8948.464238470900455 4000.974952137113178 13503.66896101972998 
	8948.464238442587884 4040.981923813139019 13510.46644626451598 
	8948.464238432776256 4083.157807695167776 13521.76789262128113 
	8948.464238422127892 4118.483715094383115 13534.1287161697619 
	8948.464238412458144 4152.787008804343714 13549.09523798385453 
	8948.464238398564703 4185.875995526756014 13566.58322225868869 
	8948.464238380973256 4212.283966091872571 13583.17647718388434 
	8948.464238375785499 4232.622043179873799 13597.60727859369763 
	8948.464238368354927 4257.35267076922446 13616.58339271214209 
	8948.464238322323581 4289.938784322651372 13645.70389846069338 
	8948.46423827970284 4327.379576390894727 13687.6002856474679 
	8948.464238223938082 4359.894109735096208 13733.42516986963528 
	8948.464238170667159 4387.073422838462648 13782.60243760863887 
	8948.464238103719254 4408.575702284493673 13834.51358120955047 
	8948.464238047803519 4424.13066507874737 13888.50582866252807 
	8948.464237972384581 4431.189451252467734 13930.05157873796634 
	8948.464237961952676 4433.938885347890391 13957.96921676749116 
	8948.464237957035948 4434.921724089859708 13971.96108406273379 
	8948.464237950982351 4435.413353805121915 13983.63936420924438 
	8948.464237949176095 4435.585461691249293 13991.818985163045 
	8948.464237948612208 4435.628488352273962 13995.90939955049544 
	8948.464237948481241 4435.639245491190195 13997.95468209735918 
	8948.464237948439404 4435.641934713679802 13998.97733281602996 
	8948.464237948432128 4435.642607033109016 13999.48865935156937 
	8948.464237948435766 4435.642799120717427 13999.78084611207487 
	8948.464237948432128 4435.642831137316534 13999.92693952064838 
	8948.464237948432128 4435.642831137402936 13999.9999862247987 
	9031.797571281766068 4435.642831137402936 13999.9999862247987 
	9031.797571281767887 4435.642831138092333 14000.58435985800679 
	9031.797571281886121 4435.640782088150445 14001.75310710700796 
	9031.797571281993442 4435.628488718383778 14004.09057295050661 
	9031.797571282519129 4435.585459590424762 14008.18098695354638 
	9031.79757128424535 4435.413365330072338 14016.36060994441868 
	9031.797571291297572 4434.725010953103265 14032.71019085420812 
	9031.797571313705703 4431.973762969335439 14065.33219686287885 
	9031.797571386763593 4424.130744061379119 14111.4941480225134 
	9031.797571446120855 4408.575757633078865 14165.48639545093101 
	9031.797571511493516 4387.07347554125954 14217.39751855050054 
	9031.797571561675795 4359.894223037060328 14266.57482732254539 
	9031.797571614015396 4332.798666041021534 14304.76213692456804 
	9031.797571628021615 4308.659431726605362 14333.34800195122079 
	9031.797571641765899 4282.956058481180662 14360.53608649439229 
	9031.797571680619512 4249.594209621576738 14390.35003781684281 
	9031.79757171370693 4207.366050768544483 14420.70984059978764 
	9031.797571731161952 4164.126577982844537 14445.67400515898407 
	9031.797571744396919 4122.408931612956621 14464.49785708670788 
	9031.797571761046129 4083.157878964115753 14478.23198394611427 
	9031.79757177465217 4047.007114157814613 14487.91892667673892 
	9031.797571780778526 4010.23346990684513 14494.87621316653713 
	9031.797571794992109 3960.645846696937951 14500.46510610375117 
	9031.797571807441273 3910.639783984208407 14500.46531401146603 
	9031.797571819446603 3861.052267485025368 14494.87592698494882 
	9031.797571829114531 3812.020380276518608 14485.60061782873709 
	9031.797571839941156 3773.19539768404411 14473.62508432045979 
	9031.797571842203979 3744.289900782204768 14461.96680002625908 
	9031.797571842565958 3732.816811543254971 14457.08840827057065 
	9031.797571844590493 3712.983682315879832 14447.99014227247608 
	9031.797571849458109 3685.409488618922296 14433.4168899913202 
	9031.797571854973285 3659.001572755624238 14416.82356174134839 
	9031.797571855811839 3638.663444345788321 14402.39282646883476 
	9031.797571856957802 3623.825165085998833 14391.00703986729604 
	9031.797571858032825 3609.423012972977631 14379.07436769219566 
	9031.797571859002346 3595.477088420230757 14366.61154713926771 
	9031.797571859940945 3582.006948250797905 14353.63595865594834 
	9031.797571860955941 3564.706128993330367 14335.67579451738857 
	9031.79757186380084 3544.362324191815787 14312.03589132014713 
	9031.797571866929502 3522.137913024569571 14281.92296870219434 
	9031.797571868159139 3502.226183597374529 14250.23333336809992 
	9031.797571870813044 3482.794793190045766 14213.46791700651738 
	9031.797571872893968 3465.017008691300362 14171.2939096363516 
	9031.797571874747518 3450.30041182080322 14123.58344613240115 
	9031.797571875371432 3442.056152314790324 14082.80127334656754 
	9031.797571875928043 3437.921524240821782 14049.80459433148462 
	9031.797571876208167 3435.43609645778406 14016.6429166446851 
	9031.797571876493748 3435.435806610002601 13983.3571827300766 
	9031.797571876530128 3437.921531641944966 13950.19554155049809 
	9031.79757187652649 3443.089154036882519 13908.94954115506516 
	9031.797571875795256 3450.680811123694184 13875.68620157632904 
	9031.797571875660651 3458.548814252297234 13850.38986724726419 
	9031.797571875658832 3459.488317818513224 13847.41817653681392 
	9031.797571875642461 3461.168918371144173 13842.22933885228304 
	9031.797571875524227 3464.675436729521152 13831.89948576441202 
	9031.797571875271387 3472.266055401038557 13811.44187334580965 
	9031.797571873585184 3482.243666737797412 13788.57300587473947 
	9031.797571873225024 3493.482012733104966 13766.31125753177184 
	9031.797571872652043 3501.021247224908166 13752.66999935209606 
	9031.79757187249561 3507.355526660768646 13741.93186342739864 
	9031.797571872306435 3513.889473177573564 13731.31404044842748 
	9031.79757187163159 3522.427055884761558 13718.27434007747615 
	9031.797571870936736 3533.25008741247666 13703.02073123498485 
	9031.797571870130923 3544.63587517662063 13688.18244923398561 
	9031.797571869239619 3556.568579257435886 13673.78032863753833 
	9031.797571867999068 3575.955070311455074 13652.08655324673964 
	9031.797571860719472 3604.250942211479924 13624.48745765902459 
	9031.797571857561707 3643.286604796142456 13593.35734788037735 
	9031.797571851564499 3681.73279906378275 13568.52615568597139 
	9031.797571844836057 3718.498479310059793 13549.09525329590178 
	9031.797571842937032 3752.801729628703015 13534.12870660312183 
	9031.797571835462804 3779.296171031479844 13524.85801540641478 
	9031.797571834753398 3797.216887415288056 13519.51322073859774 
	9031.797571834280461 3809.228562694964239 13516.17401220134889 
	9031.797571832414178 3822.843531027312565 13512.79744846510221 
	9031.79757183142101 3838.084760174573148 13509.54293386083737 
	9031.79757183019683 3851.878618954423473 13506.99972690199684 
	9031.797571828914442 3865.738379698097106 13504.84440187081964 
	9031.797571827481079 3884.291387992203454 13502.49000822215203 
	9031.797571821816746 3907.592782809327218 13500.52457350035729 
	9031.797571816963682 3935.642730713531364 13499.73751316075868 
	9031.797571809904184 3963.692644139760432 13500.52465813145682 
	9031.797571804234394 4000.974952137112723 13503.66896101972998 
	9031.797571775921824 4040.981923813138565 13510.46644626451598 
	9031.797571766110195 4083.157807695167321 13521.76789262128113 
	9031.797571755461831 4118.483715094383115 13534.1287161697619 
	9031.797571745792084 4152.787008804343714 13549.09523798385453 
	9031.797571731898643 4185.875995526756014 13566.58322225868869 
	9031.797571714307196 4212.283966091872571 13583.17647718388434 
	9031.797571709119438 4232.622043179873799 13597.60727859369763 
	9031.797571701688867 4257.35267076922446 13616.58339271214209 
	9031.797571655657521 4289.938784322651372 13645.70389846069338 
	9031.79757161303678 4327.379576390894727 13687.6002856474679 
	9031.797571557272022 4359.894109735096208 13733.42516986963528 
	9031.797571504001098 4387.073422838462648 13782.60243760863887 
	9031.797571437053193 4408.575702284493673 13834.51358120955047 
	9031.797571381137459 4424.13066507874737 13888.50582866252807 
	9031.79757130571852 4431.189451252467734 13930.05157873796634 
	9031.797571295286616 4433.938885347890391 13957.96921676749116 
	9031.797571290369888 4434.921724089859708 13971.96108406273379 
	9031.797571284316291 4435.413353805121915 13983.63936420924438 
	9031.797571282510035 4435.585461691249293 13991.818985163045 
	9031.797571281946148 4435.628488352273962 13995.90939955049544 
	9031.797571281815181 4435.639245491190195 13997.95468209735918 
	9031.797571281773344 4435.641934713679802 13998.97733281602996 
	9031.797571281766068 4435.642607033109016 13999.48865935156937 
	9031.797571281769706 4435.642799120717427 13999.78084611207487 
	9031.797571281766068 4435.642831137316534 13999.92693952064838 
	9031.797571281766068 4435.642831137402936 13999.9999862247987 
	0 
	
	0 
	0 
	104 0 0.0005580357142857142547 0.001116071428571428509 0.002232142857142857019 0.004464285714285714038 0.008928571428571428076 0.01785714285714285615 0.0357142857142857123 0.05357142857142856845 0.07142857142857142461 0.08928571428571427382 0.1071428571428571369 0.1160714285714285754 0.125 0.1428571428571428492 0.1587301587301587213 0.1746031746031745935 0.1904761904761904656 0.2023809523809523836 0.2142857142857142738 0.226190476190476164 0.238095238095238082 0.2619047619047618625 0.2738095238095237804 0.2857142857142856984 0.3095238095238095344 0.3125 0.3154761904761904656 0.3214285714285713969 0.3333333333333333148 0.3452380952380952328 0.351190476190476164 0.3571428571428570953 0.3630952380952380265 0.3690476190476190133 0.375 0.3809523809523809312 0.3928571428571428492 0.4047619047619047672 0.4166666666666666297 0.4285714285714285476 0.4444444444444444198 0.4603174603174602919 0.476190476190476164 0.4841269841269840724 0.4920634920634920362 0.5079365079365079083 0.5158730158730158166 0.5238095238095237249 0.5476190476190475609 0.5483630952380951218 0.5491071428571427937 0.5505952380952381375 0.5535714285714286031 0.5595238095238095344 0.5714285714285713969 0.5773809523809523281 0.5833333333333332593 0.5892857142857141906 0.5952380952380951218 0.601190476190476053 0.6071428571428569843 0.6130952380952379155 0.6190476190476189577 0.6349206349206348854 0.650793650793650702 0.6666666666666666297 0.6785714285714286031 0.6904761904761904656 0.7023809523809523281 0.7053571428571427937 0.7083333333333332593 0.7142857142857141906 0.718749999999999889 0.7232142857142855874 0.7276785714285712858 0.7321428571428569843 0.7410714285714283811 0.749999999999999889 0.7589285714285713969 0.7678571428571427937 0.7857142857142855874 0.7976190476190474499 0.8095238095238094234 0.8214285714285713969 0.8333333333333332593 0.8452380952380951218 0.851190476190476053 0.8571428571428570953 0.875 0.8928571428571427937 0.9107142857142856984 0.9285714285714286031 0.9464285714285713969 0.9642857142857143016 0.9821428571428572063 0.9866071428571429047 0.9910714285714286031 0.9977678571428572063 0.9988839285714286031 0.9994419642857143016 0.9997209821428572063 0.9998604910714286031 0.9999302455357143016 
	0 
	0 
	0 
	F 1 F 0 F 1 F 0 } I I I I #
tcoedge-coedge $-1 -1 $-1 $14 $14 $18 $19 reversed $9 $20 -6.283185307179586232 -0 #
tcoedge-coedge $-1 -1 $-1 $21 $22 $11 $16 reversed $12 $23 -6.283185307179586232 -0 #
tedge-edge $-1 -1 $-1 $24 0 $24 6.283185307179586232 $15 $25 forward @7 unknown 0.0006031014787939334128 #
pcurve $-1 -1 $-1 0 forward { exppc nurbs 2 periodic 5 
	0 2 1.570796326794896558 2 3.141592653589793116 2 4.712388980384689674 2 6.283185307179586232 2 
	0 500 1 
	-500 500 0.707106781186543798 
	-500 0 1 
	-500 -500 0.7071067811865463515 
	0 -500 1 
	500 -500 0.7071067811865463515 
	500 0 1 
	500 500 0.707106781186543798 
	0 500 1 
	0 
	plane 9031.79757191538738 3935.642797989785322 14000.00000000000182 1 -3.637978807091713027e-15 0 0 0 -1 forward_v I I I I 
	} 0 0 #
tcoedge-coedge $-1 -1 $-1 $22 $21 $14 $19 forward $12 $26 0 6.283185307179586232 #
tedge-edge $-1 -1 $-1 $27 0 $27 6.283185307179586232 $18 $28 forward @7 unknown 0.0006031014779574159256 #
pcurve $-1 -1 $-1 0 forward { exppc nurbs 2 periodic 5 
	-6.283185307179586232 2 -4.712388980384689674 2 -3.141592653589793116 2 -1.570796326794896558 2 0 2 
	0 500 1 
	500 500 0.707106781186543798 
	500 0 1 
	500 -500 0.7071067811865463515 
	0 -500 1 
	-500 -500 0.7071067811865463515 
	-500 0 1 
	-500 500 0.707106781186543798 
	0 500 1 
	0 
	plane 8781.79757191538738 3935.642797989786231 14000.00000000000182 -1 3.637978807091713027e-15 -0 0 0 -1 reverse_v I I I I 
	} 0 0 #
coedge $-1 -1 $-1 $18 $15 $22 $29 reversed $12 $30 #
coedge $-1 -1 $-1 $15 $18 $21 $29 forward $12 $31 #
pcurve $-1 -1 $-1 0 forward { exppc nubs 1 periodic 2 
	-6.283185307179586232 1 -0 1 
	1 1 
	0 1 
	2.726396620975368931e-13 
	spline forward { ref 0 } I I I I 
	} 0 0 #
tvertex-vertex $-1 -1 $-1 $16 $32 3.590157337316835558e-05 #
ellipse-curve $-1 -1 $-1 9031.79757191538738 3935.642797989785322 14000.00000000000182 1 -3.637978807091713027e-15 0 1.818989403545856476e-12 500 0 1 I I #
pcurve $-1 -1 $-1 0 forward { exppc nubs 1 periodic 2 
	0 1 6.283185307179586232 1 
	0 0 
	1 0 
	4.4114023995510105e-13 
	spline forward { ref 0 } I I I I 
	} 0 0 #
tvertex-vertex $-1 -1 $-1 $19 $33 3.590126973422789439e-05 #
ellipse-curve $-1 -1 $-1 8781.79757191538738 3935.642797989786231 14000.00000000000182 1 -3.637978807091713027e-15 0 1.818989403545856476e-12 500 0 1 I I #
edge $-1 -1 $-1 $27 0 $24 1 $22 $34 forward @7 tangent #
pcurve $-1 -1 $-1 -1 $34 0 0 #
pcurve $-1 -1 $-1 1 $34 1 0 #
point $-1 -1 $-1 9031.797571915389199 4435.642797989785322 14000.00000000000182 #
point $-1 -1 $-1 8781.797571915389199 4435.642797989786231 14000.00000000000182 #
intcurve-curve $-1 -1 $-1 forward { parcur full nubs 3 open 2 
	0 3 1 3 
	8781.797571299308402 4435.642831137405665 13999.9999862247987 
	8865.130904632642341 4435.642831137404755 13999.9999862247987 
	8948.464237948432128 4435.642831137402936 13999.9999862247987 
	9031.797571281766068 4435.642831137402936 13999.9999862247987 
	0 
	
	spline forward { ref 0 } I I I I 
	null_surface 
	nubs 1 open 2 
	0 1 1 1 
	0 0 
	0 1 
	
	nullbs 
	I I 
	0 
	0 
	0 
	surf1 } I I #
End-of-ACIS-data 