700 0 1 0           
4 LibG 20 ASM 224.0.1.65535 NT 24 Wed Jul 17 12:52:14 2019 
1000 9.999999999999999547e-07 1.000000000000000036e-10 
body $-1 -1 $-1 $1 $-1 $2 #
lump $-1 -1 $-1 $-1 $3 $0 #
transform $-1 -1 1 0 0 0 1 0 0 0 1 0 0 0 1 no_rotate no_reflect no_shear #
shell $-1 -1 $-1 $-1 $-1 $4 $-1 $1 #
face $-1 -1 $-1 $5 $6 $3 $-1 $7 forward single #
face $-1 -1 $-1 $8 $9 $3 $-1 $10 reversed single #
loop $-1 -1 $-1 $-1 $11 $4 #
plane-surface $-1 -1 $-1 13781.79757191538738 3935.642797989768042 14000.00000000000182 1 -3.637978807091713027e-15 0 0 0 -1 forward_v I I I I #
face $-1 -1 $-1 $-1 $12 $3 $-1 $13 forward single #
loop $-1 -1 $-1 $-1 $14 $5 #
plane-surface $-1 -1 $-1 13531.79757191538738 3935.642797989768951 14000.00000000000182 1 -3.637978807091713027e-15 0 0 0 -1 forward_v I I I I #
tcoedge-coedge $-1 -1 $-1 $11 $11 $15 $16 forward $6 $17 0 6.283185307179586232 #
loop $-1 -1 $-1 $-1 $18 $8 #
spline-surface $-1 -1 $-1 forward { exactsur full nubs 3 3 periodic open none none 84 2 
	0 3 0.001116071428571428509 1 0.002232142857142857019 1 0.004464285714285714038 1 0.008928571428571428076 1 
	0.01785714285714285615 1 0.02678571428571428423 1 0.0357142857142857123 1 0.05357142857142856845 1 0.07142857142857142461 1 
	0.08928571428571427382 1 0.1071428571428571369 1 0.125 1 0.1428571428571428492 1 0.1587301587301587213 1 
	0.1825396825396825295 1 0.1904761904761904656 1 0.2023809523809523836 1 0.2142857142857142738 1 0.238095238095238082 1 
	0.2619047619047618625 1 0.2857142857142856984 1 0.2976190476190476164 1 0.3095238095238095344 1 0.3214285714285713969 1 
	0.3333333333333333148 1 0.3392857142857143016 1 0.3452380952380952328 1 0.3571428571428570953 1 0.3630952380952380265 1 
	0.3690476190476190133 1 0.3809523809523809312 1 0.3928571428571428492 1 0.4047619047619047672 1 0.4166666666666666297 1 
	0.4285714285714285476 1 0.4444444444444444198 1 0.4603174603174602919 1 0.476190476190476164 1 0.4781746031746031411 1 
	0.4791666666666666297 1 0.4801587301587301182 1 0.4841269841269840724 1 0.4920634920634920362 1 0.5 1 
	0.5039682539682539542 1 0.5079365079365079083 1 0.5238095238095237249 1 0.5476190476190475609 1 0.5595238095238095344 1 
	0.5654761904761904656 1 0.5714285714285713969 1 0.5952380952380951218 1 0.6190476190476189577 1 0.6349206349206348854 1 
	0.650793650793650702 1 0.6666666666666666297 1 0.6904761904761904656 1 0.7142857142857141906 1 0.7321428571428569843 1 
	0.749999999999999889 1 0.7678571428571427937 1 0.7857142857142855874 1 0.8095238095238094234 1 0.8214285714285713969 1 
	0.8333333333333332593 1 0.8452380952380951218 1 0.8571428571428570953 1 0.875 1 0.8928571428571427937 1 
	0.9107142857142856984 1 0.9285714285714286031 1 0.9464285714285713969 1 0.9642857142857143016 1 0.9732142857142858094 1 
	0.9821428571428572063 1 0.9910714285714286031 1 0.9955357142857143016 1 0.9977678571428572063 1 0.9988839285714286031 1 
	0.9994419642857143016 1 0.9997209821428572063 1 0.9998604910714286031 1 1 3 
	0 3 1 3 
	13531.79757204414273 4435.64281061704969 14000.00004735647781 
	13531.79757204413181 4435.642810615726376 14001.16879461146164 
	13531.79757204404996 4435.634614715580028 14003.50628902289827 
	13531.79757204395901 4435.585440511218621 14008.18104798108288 
	13531.79757204350972 4435.413336623675605 14016.36066921559905 
	13531.79757204208909 4434.725033181121944 14032.71025358448605 
	13531.79757203754161 4432.759649626410464 14056.01165551455779 
	13531.79757203333247 4428.836871191017963 14083.79706386034013 
	13531.79757202865039 4421.537983837524735 14120.49285027656879 
	13531.79757201359826 4408.575845157699405 14165.48641759366546 
	13531.79757200140557 4387.073367893639443 14217.39745815350398 
	13531.79757198785956 4359.894196376373657 14266.57481325720619 
	13531.79757197674007 4327.379475510974771 14312.3994055242747 
	13531.79757196405262 4289.939026150113023 14354.29630206380898 
	13531.79757196067476 4249.593980806652326 14390.34957491167734 
	13531.79757195319689 4200.610235851839207 14425.5687620568151 
	13531.79757195137609 4156.693795760413195 14449.48396527325531 
	13531.79757194964077 4114.558375645964588 14467.24402714481766 
	13531.79757194847116 4083.157845776632257 14478.23174943029881 
	13531.79757194626109 4034.956832115005909 14491.1482962479713 
	13531.79757194380181 3973.147713407327501 14500.46607117937856 
	13531.79757193945079 3898.137887241220596 14500.46555113894101 
	13531.79757193625301 3836.328577607365332 14491.14873860639455 
	13531.79757193550904 3788.127689207265121 14478.23201673651238 
	13531.79757193393925 3752.801750690791323 14465.87146889775067 
	13531.7975719328042 3718.49844252554567 14450.90481888653994 
	13531.79757193158548 3690.924293160418529 14436.3315130852061 
	13531.79757193123805 3669.564646840628484 14423.46092885824692 
	13531.79757193095975 3648.70107063968635 14409.80087978163465 
	13531.79757193044679 3628.6257377546508 14394.98467827722743 
	13531.79757193011574 3609.422924192120263 14379.07436397640777 
	13531.79757192991383 3590.828306149053333 14362.45732480641709 
	13531.79757192914258 3568.774731000171414 14340.40380588228436 
	13531.79757192862417 3544.362201864999406 14312.03585425375059 
	13531.79757192789293 3522.137755747702158 14281.92292865663694 
	13531.79757192765464 3502.226019818674558 14250.23327895916555 
	13531.79757192713078 3482.79462349044752 14213.46783932624385 
	13531.79757192668148 3465.016770148381056 14171.29381344206195 
	13531.7975719264723 3450.300265716158719 14123.58331580637059 
	13531.79757192612487 3443.292574363528274 14088.91844092760402 
	13531.79757192609213 3440.472383780896507 14069.38171219537799 
	13531.79757192609031 3439.917131216716825 14065.26340881975739 
	13531.79757192608122 3439.122782813669346 14059.08088043039606 
	13531.7975719260503 3437.610511257817507 14045.65923330147962 
	13531.7975719259648 3436.057283226436084 14024.93315054168852 
	13531.79757192591205 3435.539135742262715 14004.15542000001005 
	13531.79757192590296 3435.746367632775218 13987.53322399901481 
	13531.79757192591205 3436.678753724062972 13962.61548643251444 
	13531.79757192594298 3441.234334402703553 13917.07469663652228 
	13531.79757192628131 3453.289086320990918 13864.25972419140453 
	13531.79757192645411 3467.711521420240842 13823.04649633108966 
	13531.79757192651232 3477.254717388538211 13800.00715299669173 
	13531.79757192664511 3492.851233895581117 13766.00725948080617 
	13531.79757192781472 3520.978848657049184 13717.28661889805335 
	13531.79757192898978 3562.551098757850923 13665.15889130417418 
	13531.79757193011756 3604.2508949572657 13624.48695361451064 
	13531.79757193045771 3643.286732133231453 13593.35727184180359 
	13531.79757193161277 3692.217780996739293 13561.75299804673705 
	13531.79757193309888 3752.289589633166088 13532.82328859112749 
	13531.79757193640216 3817.993883322256806 13512.55744979472729 
	13531.79757193872138 3879.543236601355602 13502.10063462218204 
	13531.7975719412043 3935.643086463763211 13498.94953192943467 
	13531.79757194385093 3991.742726585817763 13502.10071109177625 
	13531.7975719473452 4053.292497579002884 13512.5566731745057 
	13531.79757195133425 4107.04967064972243 13529.13952085803794 
	13531.79757195235652 4152.787046705228931 13549.09587422210825 
	13531.79757195449201 4185.876201415363539 13566.58338333569918 
	13531.79757195672573 4217.565620372498415 13586.49553993995141 
	13531.79757195946331 4252.697635143898879 13612.42359006321749 
	13531.79757196490027 4289.93895422721198 13645.70410795049247 
	13531.7975719721635 4327.379718734204289 13687.60047398641655 
	13531.79757197702202 4359.894248755485933 13733.42534601886291 
	13531.79757199481719 4387.07336545574617 13782.60265543401874 
	13531.79757200874337 4408.575865542659812 13834.51369708467246 
	13531.79757202658584 4421.53798618201472 13879.50724983747932 
	13531.7975720319173 4428.836875110124311 13916.20303498802059 
	13531.79757203676854 4432.759651077937633 13943.98844098781774 
	13531.79757204189445 4434.725033837160481 13967.28984159555876 
	13531.79757204351154 4435.413336755272212 13983.63942549870262 
	13531.79757204398811 4435.585440569589991 13991.81904669076903 
	13531.79757204410453 4435.628467955865744 13995.90946071509643 
	13531.79757204413727 4435.639224951118194 13997.9547432510808 
	13531.79757204414636 4435.641914198923587 13998.9773939525403 
	13531.79757204414636 4435.642682556647742 13999.56176713431887 
	13531.79757204414273 4435.642810617215218 13999.85395394960506 
	13531.79757204414273 4435.64281061704969 14000.00004735647781 
	13615.13090537747667 4435.642810617048781 14000.00004735647781 
	13615.13090537746575 4435.642810615725466 14001.16879461146164 
	13615.1309053773839 4435.634614715579119 14003.50628902289827 
	13615.13090537729295 4435.585440511217712 14008.18104798108288 
	13615.13090537684366 4435.413336623674695 14016.36066921559905 
	13615.13090537542303 4434.725033181121034 14032.71025358448605 
	13615.13090537087555 4432.759649626409555 14056.01165551455779 
	13615.13090536666641 4428.836871191017053 14083.79706386034013 
	13615.13090536198433 4421.537983837523825 14120.49285027656879 
	13615.1309053469322 4408.575845157698495 14165.48641759366546 
	13615.13090533473951 4387.073367893638533 14217.39745815350398 
	13615.1309053211935 4359.894196376372747 14266.57481325720619 
	13615.13090531007401 4327.379475510973862 14312.3994055242747 
	13615.13090529738656 4289.939026150112113 14354.29630206380898 
	13615.1309052940087 4249.593980806651416 14390.34957491167734 
	13615.13090528653083 4200.610235851838297 14425.5687620568151 
	13615.13090528471002 4156.693795760412286 14449.48396527325531 
	13615.13090528297471 4114.558375645963679 14467.24402714481766 
	13615.1309052818051 4083.157845776631802 14478.23174943029881 
	13615.13090527959503 4034.956832115005454 14491.1482962479713 
	13615.13090527713575 3973.147713407327046 14500.46607117937856 
	13615.13090527278473 3898.137887241220142 14500.46555113894101 
	13615.13090526958695 3836.328577607364878 14491.14873860639455 
	13615.13090526884298 3788.127689207264666 14478.23201673651238 
	13615.13090526727319 3752.801750690790868 14465.87146889775067 
	13615.13090526613814 3718.498442525545215 14450.90481888653994 
	13615.13090526491942 3690.924293160418074 14436.3315130852061 
	13615.13090526457199 3669.564646840628029 14423.46092885824692 
	13615.13090526429369 3648.701070639685895 14409.80087978163465 
	13615.13090526378073 3628.625737754650345 14394.98467827722743 
	13615.13090526344968 3609.422924192119808 14379.07436397640777 
	13615.13090526324777 3590.828306149052878 14362.45732480641709 
	13615.13090526247652 3568.774731000170959 14340.40380588228436 
	13615.13090526195811 3544.362201864998951 14312.03585425375059 
	13615.13090526122687 3522.137755747701704 14281.92292865663694 
	13615.13090526098858 3502.226019818674104 14250.23327895916555 
	13615.13090526046471 3482.794623490447066 14213.46783932624385 
	13615.13090526001542 3465.016770148380601 14171.29381344206195 
	13615.13090525980624 3450.300265716158265 14123.58331580637059 
	13615.13090525945881 3443.29257436352782 14088.91844092760402 
	13615.13090525942607 3440.472383780896052 14069.38171219537799 
	13615.13090525942425 3439.917131216716371 14065.26340881975739 
	13615.13090525941516 3439.122782813668891 14059.08088043039606 
	13615.13090525938424 3437.610511257817052 14045.65923330147962 
	13615.13090525929874 3436.057283226435629 14024.93315054168852 
	13615.13090525924599 3435.53913574226226 14004.15542000001005 
	13615.1309052592369 3435.746367632774763 13987.53322399901481 
	13615.13090525924599 3436.678753724062517 13962.61548643251444 
	13615.13090525927691 3441.234334402703098 13917.07469663652228 
	13615.13090525961525 3453.289086320990464 13864.25972419140453 
	13615.13090525978805 3467.711521420240388 13823.04649633108966 
	13615.13090525984626 3477.254717388537756 13800.00715299669173 
	13615.13090525997904 3492.851233895580663 13766.00725948080617 
	13615.13090526114865 3520.978848657048729 13717.28661889805335 
	13615.13090526232372 3562.551098757850468 13665.15889130417418 
	13615.1309052634515 3604.250894957265245 13624.48695361451064 
	13615.13090526379165 3643.286732133230998 13593.35727184180359 
	13615.1309052649467 3692.217780996738838 13561.75299804673705 
	13615.13090526643282 3752.289589633165633 13532.82328859112749 
	13615.1309052697361 3817.993883322256352 13512.55744979472729 
	13615.13090527205532 3879.543236601355147 13502.10063462218204 
	13615.13090527453824 3935.643086463762756 13498.94953192943467 
	13615.13090527718487 3991.742726585817309 13502.10071109177625 
	13615.13090528067914 4053.292497579002429 13512.5566731745057 
	13615.13090528466819 4107.04967064972152 13529.13952085803794 
	13615.13090528569046 4152.787046705228022 13549.09587422210825 
	13615.13090528782595 4185.87620141536263 13566.58338333569918 
	13615.13090529005967 4217.565620372497506 13586.49553993995141 
	13615.13090529279725 4252.697635143897969 13612.42359006321749 
	13615.13090529823421 4289.93895422721107 13645.70410795049247 
	13615.13090530549744 4327.379718734203379 13687.60047398641655 
	13615.13090531035596 4359.894248755485023 13733.42534601886291 
	13615.13090532815113 4387.073365455745261 13782.60265543401874 
	13615.13090534207731 4408.575865542658903 13834.51369708467246 
	13615.13090535991978 4421.53798618201381 13879.50724983747932 
	13615.13090536525124 4428.836875110123401 13916.20303498802059 
	13615.13090537010248 4432.759651077936724 13943.98844098781774 
	13615.13090537522839 4434.725033837159572 13967.28984159555876 
	13615.13090537684548 4435.413336755271303 13983.63942549870262 
	13615.13090537732205 4435.585440569589082 13991.81904669076903 
	13615.13090537743847 4435.628467955864835 13995.90946071509643 
	13615.13090537747121 4435.639224951117285 13997.9547432510808 
	13615.1309053774803 4435.641914198922677 13998.9773939525403 
	13615.1309053774803 4435.642682556646832 13999.56176713431887 
	13615.13090537747667 4435.642810617214309 13999.85395394960506 
	13615.13090537747667 4435.642810617048781 14000.00004735647781 
	13698.46423871318802 4435.64281061704969 14000.00004735647781 
	13698.46423871318075 4435.642810615727285 14001.16879461146164 
	13698.46423871309526 4435.634614715580028 14003.50628902289827 
	13698.46423871300431 4435.585440511219531 14008.18104798108288 
	13698.46423871255138 4435.413336623675605 14016.36066921559905 
	13698.46423871110346 4434.725033181122853 14032.71025358448605 
	13698.46423870646686 4432.759649626412283 14056.01165551455779 
	13698.46423870218314 4428.836871191019782 14083.79706386034013 
	13698.46423869741193 4421.537983837526554 14120.49285027656879 
	13698.46423868208149 4408.575845157700314 14165.48641759366546 
	13698.46423866966143 4387.073367893640352 14217.39745815350398 
	13698.46423865586439 4359.894196376374566 14266.57481325720619 
	13698.46423864453755 4327.379475510974771 14312.3994055242747 
	13698.46423863161544 4289.939026150113023 14354.29630206380898 
	13698.46423862817574 4249.593980806652326 14390.34957491167734 
	13698.46423862055963 4200.610235851839207 14425.5687620568151 
	13698.4642386187079 4156.693795760413195 14449.48396527325531 
	13698.46423861693802 4114.558375645964588 14467.24402714481766 
	13698.4642386157484 4083.157845776632712 14478.23174943029881 
	13698.46423861349831 4034.956832115006364 14491.1482962479713 
	13698.46423861099356 3973.147713407327956 14500.46607117937856 
	13698.46423860656614 3898.137887241221051 14500.46555113894101 
	13698.46423860330651 3836.328577607365787 14491.14873860639455 
	13698.46423860254981 3788.127689207265576 14478.23201673651238 
	13698.46423860095092 3752.801750690791778 14465.87146889775067 
	13698.46423859979586 3718.498442525546125 14450.90481888653994 
	13698.46423859855349 3690.924293160418983 14436.3315130852061 
	13698.46423859820061 3669.564646840628939 14423.46092885824692 
	13698.46423859791503 3648.701070639686804 14409.80087978163465 
	13698.46423859739298 3628.625737754651254 14394.98467827722743 
	13698.46423859705646 3609.422924192120718 14379.07436397640777 
	13698.46423859685092 3590.828306149053333 14362.45732480641709 
	13698.46423859606693 3568.774731000171414 14340.40380588228436 
	13698.46423859553761 3544.362201864999861 14312.03585425375059 
	13698.46423859479182 3522.137755747702158 14281.92292865663694 
	13698.46423859455172 3502.226019818675013 14250.23327895916555 
	13698.46423859401693 3482.794623490447975 14213.46783932624385 
	13698.464238593564 3465.016770148381511 14171.29381344206195 
	13698.46423859334936 3450.300265716159174 14123.58331580637059 
	13698.46423859299466 3443.292574363528729 14088.91844092760402 
	13698.4642385929601 3440.472383780896962 14069.38171219537799 
	13698.46423859295828 3439.91713121671728 14065.26340881975739 
	13698.46423859295101 3439.122782813669801 14059.08088043039606 
	13698.46423859291826 3437.610511257817507 14045.65923330147962 
	13698.46423859283277 3436.057283226436084 14024.93315054168852 
	13698.4642385927782 3435.539135742262715 14004.15542000001005 
	13698.46423859276911 3435.746367632775218 13987.53322399901481 
	13698.46423859278002 3436.678753724062972 13962.61548643251444 
	13698.46423859281094 3441.234334402704008 13917.07469663652228 
	13698.46423859315837 3453.289086320990009 13864.25972419140453 
	13698.46423859333299 3467.711521420240388 13823.04649633108966 
	13698.46423859339302 3477.254717388537756 13800.00715299669173 
	13698.46423859352581 3492.851233895580208 13766.00725948080617 
	13698.46423859471906 3520.978848657049184 13717.28661889805335 
	13698.46423859591414 3562.551098757850013 13665.15889130417418 
	13698.46423859706374 3604.250894957264791 13624.48695361451064 
	13698.46423859740935 3643.286732133230089 13593.35727184180359 
	13698.46423859858623 3692.217780996737929 13561.75299804673705 
	13698.464238600096 3752.289589633165178 13532.82328859112749 
	13698.46423860345931 3817.993883322255897 13512.55744979472729 
	13698.46423860582036 3879.543236601355147 13502.10063462218204 
	13698.46423860835057 3935.643086463762302 13498.94953192943467 
	13698.46423861104449 3991.742726585818218 13502.10071109177625 
	13698.46423861460244 4053.292497579003339 13512.5566731745057 
	13698.46423861866424 4107.04967064972243 13529.13952085803794 
	13698.46423861970834 4152.787046705228931 13549.09587422210825 
	13698.46423862188203 4185.876201415363539 13566.58338333569918 
	13698.46423862415941 4217.565620372498415 13586.49553993995141 
	13698.46423862694792 4252.697635143898879 13612.42359006321749 
	13698.46423863248674 4289.93895422721198 13645.70410795049247 
	13698.46423863988639 4327.379718734204289 13687.60047398641655 
	13698.46423864483222 4359.894248755485933 13733.42534601886291 
	13698.46423866295481 4387.073365455745261 13782.60265543401874 
	13698.46423867713747 4408.575865542659812 13834.51369708467246 
	13698.464238695311 4421.53798618201381 13879.50724983747932 
	13698.46423870073886 4428.836875110123401 13916.20303498802059 
	13698.46423870567924 4432.759651077937633 13943.98844098781774 
	13698.46423871089792 4434.725033837159572 13967.28984159555876 
	13698.46423871254774 4435.413336755271303 13983.63942549870262 
	13698.46423871302795 4435.585440569589082 13991.81904669076903 
	13698.46423871314983 4435.628467955864835 13995.90946071509643 
	13698.46423871318257 4435.639224951117285 13997.9547432510808 
	13698.46423871318984 4435.641914198922677 13998.9773939525403 
	13698.46423871318984 4435.642682556646832 13999.56176713431887 
	13698.46423871318984 4435.642810617214309 13999.85395394960506 
	13698.46423871318802 4435.64281061704969 14000.00004735647781 
	13781.79757204652196 4435.64281061704969 14000.00004735647781 
	13781.79757204651469 4435.642810615727285 14001.16879461146164 
	13781.7975720464292 4435.634614715580028 14003.50628902289827 
	13781.79757204633825 4435.585440511219531 14008.18104798108288 
	13781.79757204588532 4435.413336623675605 14016.36066921559905 
	13781.7975720444374 4434.725033181122853 14032.71025358448605 
	13781.7975720398008 4432.759649626412283 14056.01165551455779 
	13781.79757203551708 4428.836871191019782 14083.79706386034013 
	13781.79757203074587 4421.537983837526554 14120.49285027656879 
	13781.79757201541543 4408.575845157700314 14165.48641759366546 
	13781.79757200299537 4387.073367893640352 14217.39745815350398 
	13781.79757198919833 4359.894196376374566 14266.57481325720619 
	13781.79757197787148 4327.379475510974771 14312.3994055242747 
	13781.79757196494938 4289.939026150113023 14354.29630206380898 
	13781.79757196150968 4249.593980806652326 14390.34957491167734 
	13781.79757195389357 4200.610235851839207 14425.5687620568151 
	13781.79757195204184 4156.693795760413195 14449.48396527325531 
	13781.79757195027196 4114.558375645964588 14467.24402714481766 
	13781.79757194908234 4083.157845776632257 14478.23174943029881 
	13781.79757194683225 4034.956832115005909 14491.1482962479713 
	13781.7975719443275 3973.147713407327501 14500.46607117937856 
	13781.79757193990008 3898.137887241220596 14500.46555113894101 
	13781.79757193664045 3836.328577607365332 14491.14873860639455 
	13781.79757193588375 3788.127689207265121 14478.23201673651238 
	13781.79757193428486 3752.801750690791323 14465.87146889775067 
	13781.7975719331298 3718.49844252554567 14450.90481888653994 
	13781.79757193188743 3690.924293160418529 14436.3315130852061 
	13781.79757193153455 3669.564646840628484 14423.46092885824692 
	13781.79757193124897 3648.70107063968635 14409.80087978163465 
	13781.79757193072692 3628.6257377546508 14394.98467827722743 
	13781.7975719303904 3609.422924192120263 14379.07436397640777 
	13781.79757193018486 3590.828306149052878 14362.45732480641709 
	13781.79757192940087 3568.774731000170959 14340.40380588228436 
	13781.79757192887155 3544.362201864999406 14312.03585425375059 
	13781.79757192812576 3522.137755747701704 14281.92292865663694 
	13781.79757192788566 3502.226019818674558 14250.23327895916555 
	13781.79757192735087 3482.79462349044752 14213.46783932624385 
	13781.79757192689794 3465.016770148381056 14171.29381344206195 
	13781.7975719266833 3450.300265716158719 14123.58331580637059 
	13781.7975719263286 3443.292574363528274 14088.91844092760402 
	13781.79757192629404 3440.472383780896507 14069.38171219537799 
	13781.79757192629222 3439.917131216716825 14065.26340881975739 
	13781.79757192628495 3439.122782813669346 14059.08088043039606 
	13781.7975719262522 3437.610511257817052 14045.65923330147962 
	13781.79757192616671 3436.057283226435629 14024.93315054168852 
	13781.79757192611214 3435.53913574226226 14004.15542000001005 
	13781.79757192610305 3435.746367632774763 13987.53322399901481 
	13781.79757192611396 3436.678753724062517 13962.61548643251444 
	13781.79757192614488 3441.234334402703553 13917.07469663652228 
	13781.79757192649231 3453.289086320989554 13864.25972419140453 
	13781.79757192666693 3467.711521420239933 13823.04649633108966 
	13781.79757192672696 3477.254717388537301 13800.00715299669173 
	13781.79757192685975 3492.851233895579753 13766.00725948080617 
	13781.797571928053 3520.978848657048729 13717.28661889805335 
	13781.79757192924808 3562.551098757849559 13665.15889130417418 
	13781.79757193039768 3604.250894957264336 13624.48695361451064 
	13781.79757193074329 3643.286732133229634 13593.35727184180359 
	13781.79757193192017 3692.217780996737474 13561.75299804673705 
	13781.79757193342994 3752.289589633164724 13532.82328859112749 
	13781.79757193679325 3817.993883322255442 13512.55744979472729 
	13781.7975719391543 3879.543236601354693 13502.10063462218204 
	13781.79757194168451 3935.643086463761847 13498.94953192943467 
	13781.79757194437843 3991.742726585817763 13502.10071109177625 
	13781.79757194793638 4053.292497579002884 13512.5566731745057 
	13781.79757195199818 4107.04967064972243 13529.13952085803794 
	13781.79757195304228 4152.787046705228931 13549.09587422210825 
	13781.79757195521597 4185.876201415363539 13566.58338333569918 
	13781.79757195749335 4217.565620372498415 13586.49553993995141 
	13781.79757196028186 4252.697635143898879 13612.42359006321749 
	13781.79757196582068 4289.93895422721198 13645.70410795049247 
	13781.79757197322033 4327.379718734204289 13687.60047398641655 
	13781.79757197816616 4359.894248755485933 13733.42534601886291 
	13781.79757199628875 4387.073365455745261 13782.60265543401874 
	13781.79757201047141 4408.575865542659812 13834.51369708467246 
	13781.79757202864494 4421.53798618201381 13879.50724983747932 
	13781.7975720340728 4428.836875110123401 13916.20303498802059 
	13781.79757203901318 4432.759651077937633 13943.98844098781774 
	13781.79757204423186 4434.725033837159572 13967.28984159555876 
	13781.79757204588168 4435.413336755271303 13983.63942549870262 
	13781.79757204636189 4435.585440569589082 13991.81904669076903 
	13781.79757204648377 4435.628467955864835 13995.90946071509643 
	13781.79757204651651 4435.639224951117285 13997.9547432510808 
	13781.79757204652378 4435.641914198922677 13998.9773939525403 
	13781.79757204652378 4435.642682556646832 13999.56176713431887 
	13781.79757204652378 4435.642810617214309 13999.85395394960506 
	13781.79757204652196 4435.64281061704969 14000.00004735647781 
	0 
	
	0 
	0 
	81 0 0.001116071428571428509 0.002232142857142857019 0.004464285714285714038 0.008928571428571428076 0.01785714285714285615 0.02678571428571428423 0.0357142857142857123 0.05357142857142856845 0.07142857142857142461 0.08928571428571427382 0.1071428571428571369 0.125 0.1428571428571428492 0.1587301587301587213 0.1825396825396825295 0.1904761904761904656 0.2023809523809523836 0.2142857142857142738 0.238095238095238082 0.2619047619047618625 0.2857142857142856984 0.2976190476190476164 0.3095238095238095344 0.3214285714285713969 0.3333333333333333148 0.3392857142857143016 0.3452380952380952328 0.3571428571428570953 0.3630952380952380265 0.3690476190476190133 0.3809523809523809312 0.3928571428571428492 0.4047619047619047672 0.4166666666666666297 0.4285714285714285476 0.4444444444444444198 0.4603174603174602919 0.476190476190476164 0.4781746031746031411 0.4791666666666666297 0.4801587301587301182 0.4841269841269840724 0.4920634920634920362 0.5 0.5039682539682539542 0.5079365079365079083 0.5238095238095237249 0.5476190476190475609 0.5595238095238095344 0.5654761904761904656 0.5714285714285713969 0.5952380952380951218 0.6190476190476189577 0.6349206349206348854 0.650793650793650702 0.6666666666666666297 0.6904761904761904656 0.7142857142857141906 0.7321428571428569843 0.749999999999999889 0.7678571428571427937 0.7857142857142855874 0.8095238095238094234 0.8214285714285713969 0.8333333333333332593 0.8452380952380951218 0.8571428571428570953 0.875 0.8928571428571427937 0.9107142857142856984 0.9285714285714286031 0.9464285714285713969 0.9642857142857143016 0.9732142857142858094 0.9821428571428572063 0.9910714285714286031 0.9955357142857143016 0.9977678571428572063 0.9994419642857143016 0.9998604910714286031 
	0 
	0 
	0 
	F 1 F 0 F 1 F 0 } I I I I #
tcoedge-coedge $-1 -1 $-1 $14 $14 $18 $19 reversed $9 $20 -6.283185307179586232 -0 #
tcoedge-coedge $-1 -1 $-1 $21 $22 $11 $16 reversed $12 $23 -6.283185307179586232 -0 #
tedge-edge $-1 -1 $-1 $24 0 $24 6.283185307179586232 $15 $25 forward @7 unknown 0.0008019466958634560456 #
pcurve $-1 -1 $-1 0 forward { exppc nurbs 2 periodic 5 
	0 2 1.570796326794896558 2 3.141592653589793116 2 4.712388980384689674 2 6.283185307179586232 2 
	0 500 1 
	-500 500 0.707106781186543798 
	-500 0 1 
	-500 -500 0.7071067811865463515 
	0 -500 1 
	500 -500 0.7071067811865463515 
	500 0 1 
	500 500 0.707106781186543798 
	0 500 1 
	0 
	plane 13781.79757191538738 3935.642797989768042 14000.00000000000182 1 -3.637978807091713027e-15 0 0 0 -1 forward_v I I I I 
	} 0 0 #
tcoedge-coedge $-1 -1 $-1 $22 $21 $14 $19 forward $12 $26 0 6.283185307179586232 #
tedge-edge $-1 -1 $-1 $27 0 $27 6.283185307179586232 $18 $28 forward @7 unknown 0.0008019466956986170915 #
pcurve $-1 -1 $-1 0 forward { exppc nurbs 2 periodic 5 
	-6.283185307179586232 2 -4.712388980384689674 2 -3.141592653589793116 2 -1.570796326794896558 2 0 2 
	0 500 1 
	500 500 0.707106781186543798 
	500 0 1 
	500 -500 0.7071067811865463515 
	0 -500 1 
	-500 -500 0.7071067811865463515 
	-500 0 1 
	-500 500 0.707106781186543798 
	0 500 1 
	0 
	plane 13531.79757191538738 3935.642797989768951 14000.00000000000182 -1 3.637978807091713027e-15 -0 0 0 -1 reverse_v I I I I 
	} 0 0 #
coedge $-1 -1 $-1 $18 $15 $22 $29 reversed $12 $30 #
coedge $-1 -1 $-1 $15 $18 $21 $29 forward $12 $31 #
pcurve $-1 -1 $-1 0 forward { exppc nubs 1 periodic 2 
	-6.283185307179586232 1 -0 1 
	1 1 
	0 1 
	2.726396620975368931e-13 
	spline forward { ref 0 } I I I I 
	} 0 0 #
tvertex-vertex $-1 -1 $-1 $16 $32 4.901124601482731354e-05 #
ellipse-curve $-1 -1 $-1 13781.79757191538738 3935.642797989768042 14000.00000000000182 1 -3.637978807091713027e-15 0 1.818989403545856476e-12 500 0 1 I I #
pcurve $-1 -1 $-1 0 forward { exppc nubs 1 periodic 2 
	0 1 6.283185307179586232 1 
	0 0 
	1 0 
	4.4114023995510105e-13 
	spline forward { ref 0 } I I I I 
	} 0 0 #
tvertex-vertex $-1 -1 $-1 $19 $33 4.901123947244679139e-05 #
ellipse-curve $-1 -1 $-1 13531.79757191538738 3935.642797989768951 14000.00000000000182 1 -3.637978807091713027e-15 0 1.818989403545856476e-12 500 0 1 I I #
edge $-1 -1 $-1 $27 0 $24 1 $22 $34 forward @7 tangent #
pcurve $-1 -1 $-1 -1 $34 0 0 #
pcurve $-1 -1 $-1 1 $34 1 0 #
point $-1 -1 $-1 13781.7975719153892 4435.642797989768042 14000.00000000000182 #
point $-1 -1 $-1 13531.7975719153892 4435.642797989768951 14000.00000000000182 #
intcurve-curve $-1 -1 $-1 forward { parcur full nubs 3 open 2 
	0 3 1 3 
	13531.79757204414273 4435.64281061704969 14000.00004735647781 
	13615.13090537747667 4435.642810617048781 14000.00004735647781 
	13698.46423871318802 4435.64281061704969 14000.00004735647781 
	13781.79757204652196 4435.64281061704969 14000.00004735647781 
	0 
	
	spline forward { ref 0 } I I I I 
	null_surface 
	nubs 1 open 2 
	0 1 1 1 
	0 0 
	0 1 
	
	nullbs 
	I I 
	0 
	0 
	0 
	surf1 } I I #
End-of-ACIS-data 