700 0 1 0           
4 LibG 20 ASM 224.0.1.65535 NT 24 Wed Jul 17 12:52:13 2019 
1000 9.999999999999999547e-07 1.000000000000000036e-10 
body $-1 -1 $-1 $1 $-1 $2 #
lump $-1 -1 $-1 $-1 $3 $0 #
transform $-1 -1 1 0 0 0 1 0 0 0 1 0 0 0 1 no_rotate no_reflect no_shear #
shell $-1 -1 $-1 $-1 $-1 $4 $-1 $1 #
face $-1 -1 $-1 $5 $6 $3 $-1 $7 forward single #
face $-1 -1 $-1 $8 $9 $3 $-1 $10 reversed single #
loop $-1 -1 $-1 $-1 $11 $4 #
plane-surface $-1 -1 $-1 10531.79757191538738 3935.642797989779865 14000.00000000000182 1 -3.637978807091713027e-15 0 0 0 -1 forward_v I I I I #
face $-1 -1 $-1 $-1 $12 $3 $-1 $13 forward single #
loop $-1 -1 $-1 $-1 $14 $5 #
plane-surface $-1 -1 $-1 10281.79757191538738 3935.642797989780775 14000.00000000000182 1 -3.637978807091713027e-15 0 0 0 -1 forward_v I I I I #
tcoedge-coedge $-1 -1 $-1 $11 $11 $15 $16 forward $6 $17 0 6.283185307179586232 #
loop $-1 -1 $-1 $-1 $18 $8 #
spline-surface $-1 -1 $-1 forward { exactsur full nubs 3 3 periodic open none none 91 2 
	0 3 0.0005580357142857142547 1 0.001116071428571428509 1 0.002232142857142857019 1 0.004464285714285714038 1 
	0.008928571428571428076 1 0.01785714285714285615 1 0.0357142857142857123 1 0.05357142857142856845 1 0.07142857142857142461 1 
	0.08928571428571427382 1 0.1071428571428571369 1 0.1160714285714285754 1 0.125 1 0.1428571428571428492 1 
	0.1587301587301587213 1 0.1746031746031745935 1 0.1904761904761904656 1 0.2023809523809523836 1 0.2142857142857142738 1 
	0.226190476190476164 1 0.238095238095238082 1 0.2499999999999999722 1 0.2619047619047618625 1 0.2738095238095237804 1 
	0.2857142857142856984 1 0.2916666666666666297 1 0.2976190476190476164 1 0.3095238095238095344 1 0.3214285714285713969 1 
	0.3273809523809523281 1 0.3333333333333333148 1 0.3452380952380952328 1 0.351190476190476164 1 0.3571428571428570953 1 
	0.3690476190476190133 1 0.3809523809523809312 1 0.3928571428571428492 1 0.4047619047619047672 1 0.4285714285714285476 1 
	0.4305555555555555802 1 0.4325396825396825573 1 0.4365079365079365115 1 0.4444444444444444198 1 0.4603174603174602919 1 
	0.476190476190476164 1 0.4841269841269840724 1 0.4880952380952380265 1 0.4920634920634920362 1 0.5079365079365079083 1 
	0.5238095238095237249 1 0.5476190476190475609 1 0.5535714285714286031 1 0.5595238095238095344 1 0.5714285714285713969 1 
	0.5952380952380951218 1 0.6190476190476189577 1 0.6349206349206348854 1 0.650793650793650702 1 0.6666666666666666297 1 
	0.6904761904761904656 1 0.7023809523809523281 1 0.7142857142857141906 1 0.7321428571428569843 1 0.7410714285714283811 1 
	0.749999999999999889 1 0.7678571428571427937 1 0.7857142857142855874 1 0.7976190476190474499 1 0.8095238095238094234 1 
	0.8333333333333332593 1 0.8452380952380951218 1 0.851190476190476053 1 0.8571428571428570953 1 0.875 1 
	0.8928571428571427937 1 0.9107142857142856984 1 0.9285714285714286031 1 0.9464285714285713969 1 0.9642857142857143016 1 
	0.9821428571428572063 1 0.9866071428571429047 1 0.9910714285714286031 1 0.9955357142857143016 1 0.9977678571428572063 1 
	0.9988839285714286031 1 0.9994419642857143016 1 0.9997209821428572063 1 0.9998604910714286031 1 0.9999302455357143016 1 
	1 3 
	0 3 1 3 
	10281.79757313397204 4435.642893696503961 13999.99996548160379 
	10281.79757313397022 4435.642893696726787 14000.58433911505563 
	10281.79757313372829 4435.640844641384319 14001.753086366356 
	10281.79757313350638 4435.628551266768227 14004.09055221209383 
	10281.7975731324259 4435.585522118451081 14008.18096622475423 
	10281.79757312888432 4435.413427800775025 14016.36058924546523 
	10281.79757311451431 4434.725073247473119 14032.71017025764377 
	10281.79757306899592 4431.973824881622932 14065.33217656169836 
	10281.79757292155773 4424.130805503506053 14111.49412842026322 
	10281.79757280249214 4408.575819408061761 14165.48637624586627 
	10281.79757267190325 4387.073538567438845 14217.39749938544264 
	10281.79757257212259 4359.894287767739115 14266.57480820268756 
	10281.79757246841473 4332.798733703618382 14304.76211695797974 
	10281.79757244074972 4308.659500503323216 14333.3479822579302 
	10281.79757241365769 4282.956128766035363 14360.53606507541554 
	10281.79757233727651 4249.594285052857231 14390.35002085891392 
	10281.79757227240407 4207.366132465526789 14420.7098102654254 
	10281.79757223817069 4164.126663392343289 14445.67399871364432 
	10281.7975722122319 4122.409021084789856 14464.49780561038642 
	10281.79757217956285 4083.157976113153836 14478.23203620123604 
	10281.79757215281643 4047.007213706652237 14487.9187334479775 
	10281.79757214073288 4010.233582442940133 14494.87657737015797 
	10281.79757211968172 3973.042850223864207 14499.06698290664463 
	10281.79757210026946 3935.642948459899799 14500.46637467914115 
	10281.79757208120463 3898.243057441416568 14499.06695509112615 
	10281.79757206513204 3861.052310975734144 14494.87657260445121 
	10281.79757204842463 3830.407659883763245 14489.07823865427781 
	10281.79757204382076 3806.203302177904334 14483.07535857131188 
	10281.79757203904592 3782.240278361893616 14476.17181498705577 
	10281.79757202568908 3752.802066047096105 14465.87098097715352 
	10281.7975720131235 3724.215992997344074 14453.39892778101603 
	10281.79757200902168 3701.954263405662005 14442.16056624284283 
	10281.79757200508357 3680.12820562752222 14430.09786383449318 
	10281.79757200039967 3659.001838892113483 14416.82327613408961 
	10281.79757199823871 3638.663760785634622 14402.39247637602602 
	10281.79757199489177 3618.879312438576108 14387.2115152722854 
	10281.79757199092455 3595.23945476560084 14366.86768500734615 
	10281.79757198655352 3568.775084145080655 14340.40352160029761 
	10281.79757198289008 3544.362897106442233 14312.03539380432994 
	10281.79757197753315 3514.72936506852875 14271.8854138116676 
	10281.79757197224535 3494.934274400425238 14237.60174754233958 
	10281.79757197110484 3482.476855461393825 14211.31473652274326 
	10281.79757197109575 3479.011345575303039 14203.76045821821936 
	10281.797571970832 3473.19475522509174 14190.42853961588844 
	10281.79757197010804 3462.563882297874443 14163.34218658704594 
	10281.79757196881474 3450.29990751078094 14123.58351762326492 
	10281.79757196770515 3442.055862211885142 14082.80126534128249 
	10281.79757196740138 3438.437911681437981 14053.92918441315851 
	10281.79757196737955 3436.989109567667583 14037.36897172451427 
	10281.79757196742685 3435.435626130375567 14012.48216890428921 
	10281.79757196801074 3435.436046878227444 13975.0358428014315 
	10281.79757196985156 3441.234511546776048 13917.07489682642699 
	10281.79757197355138 3451.897862062476634 13870.35387259445815 
	10281.79757197419349 3463.590837600233954 13834.82187539543884 
	10281.79757197473918 3472.265819092388938 13811.44177829683395 
	10281.79757197714571 3489.725779958438579 13771.42081230153781 
	10281.79757198612788 3520.978511707337475 13717.28667217312614 
	10281.7975719961978 3562.550906467068216 13665.15903832684671 
	10281.79757200382664 3604.250690301858413 13624.4870504611863 
	10281.79757200851964 3643.286535347470362 13593.35747330814775 
	10281.79757201510984 3692.217537924930184 13561.75293607296953 
	10281.79757202878136 3741.026088933241226 13538.24846638952658 
	10281.79757203559166 3788.127900170856719 13521.76857581329205 
	10281.79757204311682 3830.303546024365914 13510.4666749640146 
	10281.79757205956957 3870.310618132676154 13503.66936359172905 
	10281.79757206528666 3907.592879959396214 13500.52509857617224 
	10281.79757207219518 3944.992786257123953 13499.47529670703989 
	10281.79757209444688 3991.742605697590989 13502.1004537030658 
	10281.79757211815922 4040.982048306809247 13510.46673071761325 
	10281.79757213399898 4083.157722711727274 13521.76845311778015 
	10281.79757214114579 4130.259363760620545 13538.2487196337388 
	10281.79757218312625 4175.31363569106361 13559.94461286973456 
	10281.79757220460669 4212.284054299488162 13583.1766533188129 
	10281.79757221936779 4232.62228374551978 13597.60712816778505 
	10281.79757222222725 4257.352827724733288 13616.58339045449975 
	10281.79757233122655 4289.938987191651904 13645.70377532167186 
	10281.79757242119376 4327.379719685465716 13687.60024548933688 
	10281.79757254393189 4359.894248449672887 13733.42510671564924 
	10281.79757265809894 4387.073535472291951 13782.60239744139653 
	10281.79757280203921 4408.575799552641911 13834.51354298230399 
	10281.79757292152135 4424.130746431264924 13888.50580008880024 
	10281.79757308275293 4431.189517670146415 13930.05155604723404 
	10281.79757310503737 4433.938949742781915 13957.96919515656737 
	10281.79757311555477 4434.92178774938202 13971.9610627695256 
	10281.7975731284987 4435.413416637410592 13983.63934333185716 
	10281.79757313236587 4435.585524322969832 13991.81896438205149 
	10281.79757313356458 4435.628550926388016 13995.90937879941703 
	10281.79757313385926 4435.639308054090179 13997.95466135207243 
	10281.79757313394111 4435.641997273646666 13998.97731207235483 
	10281.79757313396112 4435.642669592476523 13999.48863860822348 
	10281.79757313397022 4435.642861679923953 13999.78082536881629 
	10281.79757313397204 4435.642893696476676 13999.92691877742254 
	10281.79757313397204 4435.642893696503961 13999.99996548160379 
	10365.13090646730598 4435.642893696503052 13999.99996548160379 
	10365.13090646730416 4435.642893696725878 14000.58433911505563 
	10365.13090646706223 4435.64084464138341 14001.753086366356 
	10365.13090646684032 4435.628551266767317 14004.09055221209383 
	10365.13090646575984 4435.585522118450172 14008.18096622475423 
	10365.13090646221826 4435.413427800774116 14016.36058924546523 
	10365.13090644784825 4434.72507324747221 14032.71017025764377 
	10365.13090640232986 4431.973824881622022 14065.33217656169836 
	10365.13090625489167 4424.130805503505144 14111.49412842026322 
	10365.13090613582608 4408.575819408060852 14165.48637624586627 
	10365.13090600523719 4387.073538567437936 14217.39749938544264 
	10365.13090590545653 4359.894287767738206 14266.57480820268756 
	10365.13090580174867 4332.798733703617472 14304.76211695797974 
	10365.13090577408366 4308.659500503322306 14333.3479822579302 
	10365.13090574699163 4282.956128766034453 14360.53606507541554 
	10365.13090567061045 4249.594285052856321 14390.35002085891392 
	10365.13090560573801 4207.36613246552588 14420.7098102654254 
	10365.13090557150463 4164.12666339234238 14445.67399871364432 
	10365.13090554556584 4122.409021084788947 14464.49780561038642 
	10365.13090551289679 4083.157976113153381 14478.23203620123604 
	10365.13090548615037 4047.007213706651783 14487.9187334479775 
	10365.13090547406682 4010.233582442939678 14494.87657737015797 
	10365.13090545301566 3973.042850223863752 14499.06698290664463 
	10365.1309054336034 3935.642948459899344 14500.46637467914115 
	10365.13090541453857 3898.243057441416113 14499.06695509112615 
	10365.13090539846598 3861.05231097573369 14494.87657260445121 
	10365.13090538175857 3830.40765988376279 14489.07823865427781 
	10365.1309053771547 3806.203302177903879 14483.07535857131188 
	10365.13090537237986 3782.240278361893161 14476.17181498705577 
	10365.13090535902302 3752.80206604709565 14465.87098097715352 
	10365.13090534645744 3724.215992997343619 14453.39892778101603 
	10365.13090534235562 3701.95426340566155 14442.16056624284283 
	10365.13090533841751 3680.128205627521766 14430.09786383449318 
	10365.13090533373361 3659.001838892113028 14416.82327613408961 
	10365.13090533157265 3638.663760785634167 14402.39247637602602 
	10365.13090532822571 3618.879312438575653 14387.2115152722854 
	10365.13090532425849 3595.239454765600385 14366.86768500734615 
	10365.13090531988746 3568.7750841450802 14340.40352160029761 
	10365.13090531622402 3544.362897106441778 14312.03539380432994 
	10365.13090531086709 3514.729365068528296 14271.8854138116676 
	10365.13090530557929 3494.934274400424783 14237.60174754233958 
	10365.13090530443878 3482.47685546139337 14211.31473652274326 
	10365.13090530442969 3479.011345575302585 14203.76045821821936 
	10365.13090530416594 3473.194755225091285 14190.42853961588844 
	10365.13090530344198 3462.563882297873988 14163.34218658704594 
	10365.13090530214868 3450.299907510780486 14123.58351762326492 
	10365.13090530103909 3442.055862211884687 14082.80126534128249 
	10365.13090530073532 3438.437911681437527 14053.92918441315851 
	10365.13090530071349 3436.989109567667128 14037.36897172451427 
	10365.13090530076079 3435.435626130375113 14012.48216890428921 
	10365.13090530134468 3435.436046878226989 13975.0358428014315 
	10365.1309053031855 3441.234511546775593 13917.07489682642699 
	10365.13090530688532 3451.897862062476179 13870.35387259445815 
	10365.13090530752743 3463.590837600233499 13834.82187539543884 
	10365.13090530807312 3472.265819092388483 13811.44177829683395 
	10365.13090531047965 3489.725779958438125 13771.42081230153781 
	10365.13090531946182 3520.97851170733702 13717.28667217312614 
	10365.13090532953174 3562.550906467067762 13665.15903832684671 
	10365.13090533716058 3604.250690301857958 13624.4870504611863 
	10365.13090534185358 3643.286535347469908 13593.35747330814775 
	10365.13090534844378 3692.217537924929729 13561.75293607296953 
	10365.1309053621153 3741.026088933240771 13538.24846638952658 
	10365.1309053689256 3788.127900170856265 13521.76857581329205 
	10365.13090537645076 3830.30354602436546 13510.4666749640146 
	10365.13090539290351 3870.3106181326757 13503.66936359172905 
	10365.1309053986206 3907.592879959395759 13500.52509857617224 
	10365.13090540552912 3944.992786257123498 13499.47529670703989 
	10365.13090542778082 3991.742605697590534 13502.1004537030658 
	10365.13090545149316 4040.982048306808792 13510.46673071761325 
	10365.13090546733292 4083.157722711726819 13521.76845311778015 
	10365.13090547447973 4130.259363760619635 13538.2487196337388 
	10365.13090551646019 4175.3136356910627 13559.94461286973456 
	10365.13090553794063 4212.284054299487252 13583.1766533188129 
	10365.13090555270173 4232.622283745518871 13597.60712816778505 
	10365.13090555556118 4257.352827724732379 13616.58339045449975 
	10365.13090566456049 4289.938987191650995 13645.70377532167186 
	10365.1309057545277 4327.379719685464806 13687.60024548933688 
	10365.13090587726583 4359.894248449671977 13733.42510671564924 
	10365.13090599143288 4387.073535472291042 13782.60239744139653 
	10365.13090613537315 4408.575799552641001 13834.51354298230399 
	10365.13090625485529 4424.130746431264015 13888.50580008880024 
	10365.13090641608687 4431.189517670145506 13930.05155604723404 
	10365.13090643837131 4433.938949742781006 13957.96919515656737 
	10365.13090644888871 4434.92178774938111 13971.9610627695256 
	10365.13090646183264 4435.413416637409682 13983.63934333185716 
	10365.13090646569981 4435.585524322968922 13991.81896438205149 
	10365.13090646689852 4435.628550926387106 13995.90937879941703 
	10365.1309064671932 4435.63930805408927 13997.95466135207243 
	10365.13090646727505 4435.641997273645757 13998.97731207235483 
	10365.13090646729506 4435.642669592475613 13999.48863860822348 
	10365.13090646730416 4435.642861679923044 13999.78082536881629 
	10365.13090646730598 4435.642893696475767 13999.92691877742254 
	10365.13090646730598 4435.642893696503052 13999.99996548160379 
	10448.46423983026398 4435.642893696503961 13999.99996548160379 
	10448.46423983026398 4435.642893696726787 14000.58433911505563 
	10448.46423983001478 4435.640844641384319 14001.753086366356 
	10448.46423982979104 4435.628551266768227 14004.09055221209383 
	10448.46423982867782 4435.585522118451081 14008.18096622475423 
	10448.46423982505621 4435.413427800775025 14016.36058924546523 
	10448.46423981033331 4434.725073247473119 14032.71017025764377 
	10448.46423976371261 4431.973824881622932 14065.33217656169836 
	10448.46423961268192 4424.130805503506053 14111.49412842026322 
	10448.46423949072414 4408.575819408061761 14165.48637624586627 
	10448.46423935695748 4387.073538567438845 14217.39749938544264 
	10448.4642392547521 4359.894287767739115 14266.57480820268756 
	10448.4642391485213 4332.798733703617472 14304.76211695797974 
	10448.46423912018508 4308.659500503323216 14333.3479822579302 
	10448.46423909243276 4282.956128766034453 14360.53606507541554 
	10448.46423901419621 4249.594285052856321 14390.35002085891392 
	10448.46423894774489 4207.36613246552497 14420.7098102654254 
	10448.46423891268023 4164.12666339234238 14445.67399871364432 
	10448.46423888611207 4122.409021084788037 14464.49780561038642 
	10448.46423885264812 4083.157976113152472 14478.23203620123604 
	10448.46423882525232 4047.007213706650418 14487.9187334479775 
	10448.4642388128741 4010.233582442939223 14494.87657737015797 
	10448.46423879131362 3973.042850223863297 14499.06698290664463 
	10448.46423877142843 3935.642948459899344 14500.46637467914115 
	10448.46423875189976 3898.243057441415658 14499.06695509112615 
	10448.46423873543972 3861.052310975733235 14494.87657260445121 
	10448.46423871832485 3830.407659883762335 14489.07823865427781 
	10448.46423871360821 3806.203302177903879 14483.07535857131188 
	10448.46423870871513 3782.240278361893161 14476.17181498705577 
	10448.46423869503269 3752.802066047096559 14465.87098097715352 
	10448.46423868216152 3724.215992997344529 14453.39892778101603 
	10448.46423867795966 3701.954263405662459 14442.16056624284283 
	10448.46423867392514 3680.128205627522675 14430.09786383449318 
	10448.46423866912664 3659.001838892113938 14416.82327613408961 
	10448.46423866691475 3638.663760785635077 14402.39247637602602 
	10448.46423866348596 3618.879312438576562 14387.2115152722854 
	10448.46423865942415 3595.239454765601295 14366.86768500734615 
	10448.4642386549458 3568.775084145081109 14340.40352160029761 
	10448.46423865119323 3544.362897106442688 14312.03539380432994 
	10448.46423864570534 3514.729365068529205 14271.8854138116676 
	10448.4642386402902 3494.934274400425693 14237.60174754233958 
	10448.46423863912423 3482.47685546139428 14211.31473652274326 
	10448.46423863911514 3479.011345575303494 14203.76045821821936 
	10448.46423863884593 3473.194755225092194 14190.42853961588844 
	10448.46423863810378 3462.563882297874898 14163.34218658704594 
	10448.46423863677956 3450.299907510781395 14123.58351762326492 
	10448.46423863564451 3442.055862211885596 14082.80126534128249 
	10448.46423863533164 3438.437911681438436 14053.92918441315851 
	10448.46423863530981 3436.989109567668038 14037.36897172451427 
	10448.46423863535892 3435.435626130376022 14012.48216890428921 
	10448.46423863595555 3435.436046878227899 13975.0358428014315 
	10448.46423863784003 3441.234511546775593 13917.07489682642699 
	10448.4642386416308 3451.897862062476634 13870.35387259445815 
	10448.46423864228927 3463.590837600234408 13834.82187539543884 
	10448.46423864284588 3472.265819092388938 13811.44177829683395 
	10448.46423864531062 3489.725779958439034 13771.42081230153781 
	10448.46423865451288 3520.97851170733793 13717.28667217312614 
	10448.46423866483019 3562.550906467067762 13665.15903832684671 
	10448.46423867264639 3604.250690301858867 13624.4870504611863 
	10448.46423867745398 3643.286535347470817 13593.35747330814775 
	10448.46423868420425 3692.217537924930639 13561.75293607296953 
	10448.46423869820865 3741.026088933241681 13538.24846638952658 
	10448.46423870518629 3788.127900170857174 13521.76857581329205 
	10448.46423871288971 3830.303546024366369 13510.4666749640146 
	10448.46423872974265 3870.310618132676609 13503.66936359172905 
	10448.46423873559797 3907.592879959396669 13500.52509857617224 
	10448.46423874267384 3944.992786257124408 13499.47529670703989 
	10448.46423876546578 3991.742605697591443 13502.1004537030658 
	10448.46423878975656 4040.982048306809702 13510.46673071761325 
	10448.46423880598013 4083.157722711727729 13521.76845311778015 
	10448.46423881330156 4130.259363760620545 13538.2487196337388 
	10448.46423885630065 4175.31363569106361 13559.94461286973456 
	10448.46423887830679 4212.284054299488162 13583.1766533188129 
	10448.46423889342441 4232.62228374551978 13597.60712816778505 
	10448.4642388963548 4257.352827724733288 13616.58339045449975 
	10448.46423900800255 4289.938987191650995 13645.70377532167186 
	10448.46423910015619 4327.379719685465716 13687.60024548933688 
	10448.46423922587928 4359.894248449671977 13733.42510671564924 
	10448.46423934282393 4387.073535472291951 13782.60239744139653 
	10448.46423949026212 4408.575799552641001 13834.51354298230399 
	10448.46423961264918 4424.130746431264924 13888.50580008880024 
	10448.46423977779887 4431.189517670146415 13930.05155604723404 
	10448.46423980062536 4433.938949742781915 13957.96919515656737 
	10448.46423981139924 4434.92178774938202 13971.9610627695256 
	10448.46423982465785 4435.413416637410592 13983.63934333185716 
	10448.46423982861961 4435.585524322969832 13991.81896438205149 
	10448.46423982984743 4435.628550926388016 13995.90937879941703 
	10448.46423983014938 4435.639308054090179 13997.95466135207243 
	10448.46423983023487 4435.641997273646666 13998.97731207235483 
	10448.46423983025306 4435.642669592476523 13999.48863860822348 
	10448.46423983026034 4435.642861679923953 13999.78082536881629 
	10448.46423983026398 4435.642893696476676 13999.92691877742254 
	10448.46423983026398 4435.642893696503961 13999.99996548160379 
	10531.79757316359792 4435.642893696503961 13999.99996548160379 
	10531.79757316359792 4435.642893696726787 14000.58433911505563 
	10531.79757316334872 4435.640844641384319 14001.753086366356 
	10531.79757316312498 4435.628551266768227 14004.09055221209383 
	10531.79757316201176 4435.585522118451081 14008.18096622475423 
	10531.79757315839015 4435.413427800775025 14016.36058924546523 
	10531.79757314366725 4434.725073247473119 14032.71017025764377 
	10531.79757309704655 4431.973824881622932 14065.33217656169836 
	10531.79757294601586 4424.130805503506053 14111.49412842026322 
	10531.79757282405808 4408.575819408061761 14165.48637624586627 
	10531.79757269029142 4387.073538567438845 14217.39749938544264 
	10531.79757258808604 4359.894287767739115 14266.57480820268756 
	10531.79757248185524 4332.798733703617472 14304.76211695797974 
	10531.79757245351902 4308.659500503323216 14333.3479822579302 
	10531.7975724257667 4282.956128766034453 14360.53606507541554 
	10531.79757234753015 4249.594285052856321 14390.35002085891392 
	10531.79757228107883 4207.36613246552497 14420.7098102654254 
	10531.79757224601417 4164.12666339234238 14445.67399871364432 
	10531.79757221944601 4122.409021084788037 14464.49780561038642 
	10531.79757218598206 4083.157976113152017 14478.23203620123604 
	10531.79757215858626 4047.007213706649964 14487.9187334479775 
	10531.79757214620804 4010.233582442938769 14494.87657737015797 
	10531.79757212464756 3973.042850223862843 14499.06698290664463 
	10531.79757210476237 3935.642948459898889 14500.46637467914115 
	10531.7975720852337 3898.243057441415203 14499.06695509112615 
	10531.79757206877366 3861.05231097573278 14494.87657260445121 
	10531.79757205165879 3830.40765988376188 14489.07823865427781 
	10531.79757204694215 3806.203302177903424 14483.07535857131188 
	10531.79757204204907 3782.240278361892706 14476.17181498705577 
	10531.79757202836663 3752.802066047096105 14465.87098097715352 
	10531.79757201549546 3724.215992997344074 14453.39892778101603 
	10531.7975720112936 3701.954263405662005 14442.16056624284283 
	10531.79757200725908 3680.12820562752222 14430.09786383449318 
	10531.79757200246058 3659.001838892113483 14416.82327613408961 
	10531.79757200024869 3638.663760785634622 14402.39247637602602 
	10531.7975719968199 3618.879312438576108 14387.2115152722854 
	10531.79757199275809 3595.23945476560084 14366.86768500734615 
	10531.79757198827974 3568.775084145080655 14340.40352160029761 
	10531.79757198452717 3544.362897106442233 14312.03539380432994 
	10531.79757197903928 3514.72936506852875 14271.8854138116676 
	10531.79757197362414 3494.934274400425238 14237.60174754233958 
	10531.79757197245817 3482.476855461393825 14211.31473652274326 
	10531.79757197244908 3479.011345575303039 14203.76045821821936 
	10531.79757197217987 3473.19475522509174 14190.42853961588844 
	10531.79757197143772 3462.563882297874443 14163.34218658704594 
	10531.79757197011349 3450.29990751078094 14123.58351762326492 
	10531.79757196897845 3442.055862211885142 14082.80126534128249 
	10531.79757196866558 3438.437911681437981 14053.92918441315851 
	10531.79757196864375 3436.989109567667583 14037.36897172451427 
	10531.79757196869286 3435.435626130375567 14012.48216890428921 
	10531.79757196928949 3435.436046878227444 13975.0358428014315 
	10531.79757197117397 3441.234511546775138 13917.07489682642699 
	10531.79757197496474 3451.897862062476179 13870.35387259445815 
	10531.79757197562321 3463.590837600233954 13834.82187539543884 
	10531.79757197617982 3472.265819092388483 13811.44177829683395 
	10531.79757197864456 3489.725779958438579 13771.42081230153781 
	10531.79757198784682 3520.978511707337475 13717.28667217312614 
	10531.79757199816413 3562.550906467067307 13665.15903832684671 
	10531.79757200598033 3604.250690301858413 13624.4870504611863 
	10531.79757201078792 3643.286535347470362 13593.35747330814775 
	10531.79757201753819 3692.217537924930184 13561.75293607296953 
	10531.79757203154259 3741.026088933241226 13538.24846638952658 
	10531.79757203852023 3788.127900170856719 13521.76857581329205 
	10531.79757204622365 3830.303546024365914 13510.4666749640146 
	10531.79757206307659 3870.310618132676154 13503.66936359172905 
	10531.79757206893191 3907.592879959396214 13500.52509857617224 
	10531.79757207600778 3944.992786257123953 13499.47529670703989 
	10531.79757209879972 3991.742605697590989 13502.1004537030658 
	10531.7975721230905 4040.982048306809247 13510.46673071761325 
	10531.79757213931407 4083.157722711727274 13521.76845311778015 
	10531.7975721466355 4130.259363760620545 13538.2487196337388 
	10531.79757218963459 4175.31363569106361 13559.94461286973456 
	10531.79757221164073 4212.284054299488162 13583.1766533188129 
	10531.79757222675835 4232.62228374551978 13597.60712816778505 
	10531.79757222968874 4257.352827724733288 13616.58339045449975 
	10531.79757234133649 4289.938987191650995 13645.70377532167186 
	10531.79757243349013 4327.379719685465716 13687.60024548933688 
	10531.79757255921322 4359.894248449671977 13733.42510671564924 
	10531.79757267615787 4387.073535472291951 13782.60239744139653 
	10531.79757282359606 4408.575799552641001 13834.51354298230399 
	10531.79757294598312 4424.130746431264924 13888.50580008880024 
	10531.79757311113281 4431.189517670146415 13930.05155604723404 
	10531.7975731339593 4433.938949742781915 13957.96919515656737 
	10531.79757314473318 4434.92178774938202 13971.9610627695256 
	10531.79757315799179 4435.413416637410592 13983.63934333185716 
	10531.79757316195355 4435.585524322969832 13991.81896438205149 
	10531.79757316318137 4435.628550926388016 13995.90937879941703 
	10531.79757316348332 4435.639308054090179 13997.95466135207243 
	10531.79757316356881 4435.641997273646666 13998.97731207235483 
	10531.797573163587 4435.642669592476523 13999.48863860822348 
	10531.79757316359428 4435.642861679923953 13999.78082536881629 
	10531.79757316359792 4435.642893696476676 13999.92691877742254 
	10531.79757316359792 4435.642893696503961 13999.99996548160379 
	0 
	
	0 
	0 
	89 0 0.0005580357142857142547 0.001116071428571428509 0.002232142857142857019 0.004464285714285714038 0.008928571428571428076 0.01785714285714285615 0.0357142857142857123 0.05357142857142856845 0.07142857142857142461 0.08928571428571427382 0.1071428571428571369 0.1160714285714285754 0.125 0.1428571428571428492 0.1587301587301587213 0.1746031746031745935 0.1904761904761904656 0.2023809523809523836 0.2142857142857142738 0.226190476190476164 0.238095238095238082 0.2499999999999999722 0.2619047619047618625 0.2738095238095237804 0.2857142857142856984 0.2916666666666666297 0.2976190476190476164 0.3095238095238095344 0.3214285714285713969 0.3273809523809523281 0.3333333333333333148 0.3452380952380952328 0.351190476190476164 0.3571428571428570953 0.3690476190476190133 0.3809523809523809312 0.3928571428571428492 0.4047619047619047672 0.4285714285714285476 0.4305555555555555802 0.4325396825396825573 0.4365079365079365115 0.4444444444444444198 0.4603174603174602919 0.476190476190476164 0.4841269841269840724 0.4880952380952380265 0.4920634920634920362 0.5079365079365079083 0.5238095238095237249 0.5476190476190475609 0.5535714285714286031 0.5595238095238095344 0.5714285714285713969 0.5952380952380951218 0.6190476190476189577 0.6349206349206348854 0.650793650793650702 0.6666666666666666297 0.6904761904761904656 0.7023809523809523281 0.7142857142857141906 0.7321428571428569843 0.7410714285714283811 0.749999999999999889 0.7678571428571427937 0.7857142857142855874 0.7976190476190474499 0.8095238095238094234 0.8333333333333332593 0.8452380952380951218 0.851190476190476053 0.8571428571428570953 0.875 0.8928571428571427937 0.9107142857142856984 0.9285714285714286031 0.9464285714285713969 0.9642857142857143016 0.9821428571428572063 0.9866071428571429047 0.9910714285714286031 0.9977678571428572063 0.9988839285714286031 0.9994419642857143016 0.9997209821428572063 0.9998604910714286031 0.9999302455357143016 
	0 
	0 
	0 
	F 1 F 0 F 1 F 0 } I I I I #
tcoedge-coedge $-1 -1 $-1 $14 $14 $18 $19 reversed $9 $20 -6.283185307179586232 -0 #
tcoedge-coedge $-1 -1 $-1 $21 $22 $11 $16 reversed $12 $23 -6.283185307179586232 -0 #
tedge-edge $-1 -1 $-1 $24 0 $24 6.283185307179586232 $15 $25 forward @7 unknown 0.0007715766976447604834 #
pcurve $-1 -1 $-1 0 forward { exppc nurbs 2 periodic 5 
	0 2 1.570796326794896558 2 3.141592653589793116 2 4.712388980384689674 2 6.283185307179586232 2 
	0 500 1 
	-500 500 0.707106781186543798 
	-500 0 1 
	-500 -500 0.7071067811865463515 
	0 -500 1 
	500 -500 0.7071067811865463515 
	500 0 1 
	500 500 0.707106781186543798 
	0 500 1 
	0 
	plane 10531.79757191538738 3935.642797989779865 14000.00000000000182 1 -3.637978807091713027e-15 0 0 0 -1 forward_v I I I I 
	} 0 0 #
tcoedge-coedge $-1 -1 $-1 $22 $21 $14 $19 forward $12 $26 0 6.283185307179586232 #
tedge-edge $-1 -1 $-1 $27 0 $27 6.283185307179586232 $18 $28 forward @7 unknown 0.0007715766957428918469 #
pcurve $-1 -1 $-1 0 forward { exppc nurbs 2 periodic 5 
	-6.283185307179586232 2 -4.712388980384689674 2 -3.141592653589793116 2 -1.570796326794896558 2 0 2 
	0 500 1 
	500 500 0.707106781186543798 
	500 0 1 
	500 -500 0.7071067811865463515 
	0 -500 1 
	-500 -500 0.7071067811865463515 
	-500 0 1 
	-500 500 0.707106781186543798 
	0 500 1 
	0 
	plane 10281.79757191538738 3935.642797989780775 14000.00000000000182 -1 3.637978807091713027e-15 -0 0 0 -1 reverse_v I I I I 
	} 0 0 #
coedge $-1 -1 $-1 $18 $15 $22 $29 reversed $12 $30 #
coedge $-1 -1 $-1 $15 $18 $21 $29 forward $12 $31 #
pcurve $-1 -1 $-1 0 forward { exppc nubs 1 periodic 2 
	-6.283185307179586232 1 -0 1 
	1 1 
	0 1 
	2.726396620975368931e-13 
	spline forward { ref 0 } I I I I 
	} 0 0 #
tvertex-vertex $-1 -1 $-1 $16 $32 0.0001017489896724241061 #
ellipse-curve $-1 -1 $-1 10531.79757191538738 3935.642797989779865 14000.00000000000182 1 -3.637978807091713027e-15 0 1.818989403545856476e-12 500 0 1 I I #
pcurve $-1 -1 $-1 0 forward { exppc nubs 1 periodic 2 
	0 1 6.283185307179586232 1 
	0 0 
	1 0 
	4.4114023995510105e-13 
	spline forward { ref 0 } I I I I 
	} 0 0 #
tvertex-vertex $-1 -1 $-1 $19 $33 0.0001017486296929382702 #
ellipse-curve $-1 -1 $-1 10281.79757191538738 3935.642797989780775 14000.00000000000182 1 -3.637978807091713027e-15 0 1.818989403545856476e-12 500 0 1 I I #
edge $-1 -1 $-1 $27 0 $24 0.9999999950071650767 $22 $34 forward @7 tangent #
pcurve $-1 -1 $-1 -1 $34 0 0 #
pcurve $-1 -1 $-1 1 $34 1 0 #
point $-1 -1 $-1 10531.7975719153892 4435.642797989779865 14000.00000000000182 #
point $-1 -1 $-1 10281.7975719153892 4435.642797989780775 14000.00000000000182 #
intcurve-curve $-1 -1 $-1 forward { parcur full nubs 3 open 2 
	0 3 1 3 
	10281.79757313397204 4435.642893696503961 13999.99996548160379 
	10365.13090646730598 4435.642893696503052 13999.99996548160379 
	10448.46423983026398 4435.642893696503961 13999.99996548160379 
	10531.79757316359792 4435.642893696503961 13999.99996548160379 
	0 
	
	spline forward { ref 0 } I I I I 
	null_surface 
	nubs 1 open 2 
	0 1 1 1 
	0 0 
	0 1 
	
	nullbs 
	I I 
	0 
	0 
	0 
	surf1 } F 0 F 0.9999999950071650767 #
End-of-ACIS-data 