700 0 1 0           
4 LibG 20 ASM 224.0.1.65535 NT 24 Wed Jul 17 12:52:12 2019 
1000 9.999999999999999547e-07 1.000000000000000036e-10 
body $-1 -1 $-1 $1 $-1 $2 #
lump $-1 -1 $-1 $-1 $3 $0 #
transform $-1 -1 1 0 0 0 1 0 0 0 1 0 0 0 1 no_rotate no_reflect no_shear #
shell $-1 -1 $-1 $-1 $-1 $4 $-1 $1 #
face $-1 -1 $-1 $5 $6 $3 $-1 $7 forward single #
face $-1 -1 $-1 $8 $9 $3 $-1 $10 reversed single #
loop $-1 -1 $-1 $-1 $11 $4 #
plane-surface $-1 -1 $-1 2781.797571915386925 3935.642797989808059 14000.00000000000182 1 -3.637978807091713027e-15 0 0 0 -1 forward_v I I I I #
face $-1 -1 $-1 $-1 $12 $3 $-1 $13 forward single #
loop $-1 -1 $-1 $-1 $14 $5 #
plane-surface $-1 -1 $-1 2531.797571915386925 3935.642797989808969 14000.00000000000182 1 -3.637978807091713027e-15 0 0 0 -1 forward_v I I I I #
tcoedge-coedge $-1 -1 $-1 $11 $11 $15 $16 forward $6 $17 0 6.283185307179586232 #
loop $-1 -1 $-1 $-1 $18 $8 #
spline-surface $-1 -1 $-1 forward { exactsur full nubs 3 3 periodic open none none 78 2 
	0 3 0.002232142857142857019 1 0.004464285714285714038 1 0.008928571428571428076 1 0.01785714285714285615 1 
	0.0357142857142857123 1 0.04464285714285713691 1 0.05357142857142856845 1 0.0625 1 0.0669642857142857123 1 
	0.07142857142857142461 1 0.08928571428571427382 1 0.1071428571428571369 1 0.125 1 0.1428571428571428492 1 
	0.1587301587301587213 1 0.1746031746031745935 1 0.1825396825396825295 1 0.1865079365079365115 1 0.1904761904761904656 1 
	0.2142857142857142738 1 0.238095238095238082 1 0.2619047619047618625 1 0.2857142857142856984 1 0.3095238095238095344 1 
	0.3214285714285713969 1 0.3244047619047618625 1 0.3273809523809523281 1 0.3333333333333333148 1 0.3571428571428570953 1 
	0.3690476190476190133 1 0.375 1 0.3764880952380952328 1 0.3779761904761904656 1 0.3809523809523809312 1 
	0.3928571428571428492 1 0.4047619047619047672 1 0.4285714285714285476 1 0.4444444444444444198 1 0.4603174603174602919 1 
	0.476190476190476164 1 0.4841269841269840724 1 0.4920634920634920362 1 0.5079365079365079083 1 0.5238095238095237249 1 
	0.5476190476190475609 1 0.5714285714285713969 1 0.5952380952380951218 1 0.6190476190476189577 1 0.6349206349206348854 1 
	0.650793650793650702 1 0.6666666666666666297 1 0.6904761904761904656 1 0.7023809523809523281 1 0.7142857142857141906 1 
	0.7321428571428569843 1 0.749999999999999889 1 0.7678571428571427937 1 0.7857142857142855874 1 0.7976190476190474499 1 
	0.8095238095238094234 1 0.8154761904761904656 1 0.8333333333333332593 1 0.8571428571428570953 1 0.875 1 
	0.8928571428571427937 1 0.9107142857142856984 1 0.9285714285714286031 1 0.9464285714285713969 1 0.9642857142857143016 1 
	0.9821428571428572063 1 0.9910714285714286031 1 0.9955357142857143016 1 0.9977678571428572063 1 0.9988839285714286031 1 
	0.9994419642857143016 1 0.9997209821428572063 1 1 3 
	0 3 1 3 
	2531.797571884108038 4435.642864462340185 14000.0000199004935 
	2531.797571884112585 4435.642864442486825 14002.33751444937843 
	2531.797571884231729 4435.610077025248756 14007.01250298305058 
	2531.797571884324952 4435.413398871513891 14016.36064441897179 
	2531.797571884919762 4434.725032758374255 14032.71022247863948 
	2531.79757188617441 4431.973847904064314 14065.33225520505766 
	2531.79757189157317 4425.699209124276422 14102.26175339793554 
	2531.797571892634096 4416.353524665816622 14138.49040689533831 
	2531.797571893858731 4407.832189752546583 14165.22622590634091 
	2531.797571894809607 4399.492855145511385 14187.07283640094465 
	2531.797571895088822 4392.094325740793465 14204.24894668021079 
	2531.797571895520832 4380.278563104615387 14229.69185713462866 
	2531.797571898639944 4359.894223073853027 14266.57486973569212 
	2531.797571900926414 4327.379613830364178 14312.3997338368863 
	2531.797571903634434 4289.938881586869684 14354.29617890853842 
	2531.797571905759469 4249.594132311655812 14390.35009629966589 
	2531.797571907650308 4207.366082405058478 14420.71008946820075 
	2531.797571908671671 4171.333075404992087 14441.51333252247059 
	2531.79757190891587 4145.116730770248978 14454.13831493648104 
	2531.79757190900591 4129.880255907746687 14460.78582657893458 
	2531.797571909267845 4099.085600496290681 14473.31780839013845 
	2531.797571910455645 4047.319036002615121 14489.28572567447918 
	2531.797571911001796 3973.147422068279866 14500.46571319291616 
	2531.797571912093645 3898.138059175666967 14500.46546898514498 
	2531.797571912764397 3823.966281745596916 14489.28626623942364 
	2531.797571913467891 3764.235782995207956 14470.86115765997602 
	2531.797571913645697 3727.074261617574848 14454.64644824583957 
	2531.797571913671163 3710.302001388368808 14446.37541241673352 
	2531.797571913677984 3699.225650692077579 14440.65309960594095 
	2531.797571913764386 3669.214344040181459 14424.06758139744306 
	2531.797571914002674 3633.062616231817628 14399.41858476610651 
	2531.797571914075888 3599.967467805851811 14370.93618284546574 
	2531.797571914112268 3585.374714617387326 14356.87945310545911 
	2531.797571914113178 3578.794195936493452 14350.23709857325593 
	2531.797571914114997 3574.448783533952792 14345.76804261614416 
	2531.797571914123637 3562.671925043271131 14333.31142587983595 
	2531.797571914189575 3544.362933716637144 14312.03525152510338 
	2531.797571914237324 3514.729075050832762 14271.88547020748229 
	2531.797571914341916 3487.64201414369245 14224.97038820910166 
	2531.797571914393302 3465.016866824533281 14171.29367704028118 
	2531.797571914411492 3450.299818713896002 14123.58349020447713 
	2531.797571914430591 3442.055847222445664 14082.8011284009317 
	2531.797571914431501 3437.921108654466025 14049.8045081526343 
	2531.797571914431501 3435.435616750675763 14016.64278067099622 
	2531.797571914414675 3435.435853307250909 13975.03568841120796 
	2531.797571914383752 3441.234660392637124 13917.0749144420879 
	2531.797571914289165 3456.070181014632453 13852.07138439058326 
	2531.797571914159562 3483.474799482052276 13782.24727480411275 
	2531.79757191399176 3520.978918353202516 13717.28675090173783 
	2531.797571913794854 3562.550938057709573 13665.15894752303393 
	2531.797571913647062 3604.250819236387088 13624.48701569942205 
	2531.797571913551565 3643.286621074224968 13593.35742465864496 
	2531.797571913410593 3692.21763597178915 13561.75288842492228 
	2531.797571913105912 3741.026167691030423 13538.24843235717708 
	2531.797571912958574 3788.127977267994538 13521.76850963586003 
	2531.797571912764397 3830.303624307485734 13510.46669028433644 
	2531.797571912377862 3879.543073609834209 13502.10048893969542 
	2531.797571911908562 3935.642848103802862 13498.95005164748363 
	2531.797571911417435 3991.742714794059793 13502.10037541657766 
	2531.797571910811712 4040.982024116693083 13510.46680188268874 
	2531.797571910523402 4083.157912050109644 13521.76810098650822 
	2531.797571910310126 4112.596139634217252 13532.06890350264985 
	2531.797571910110037 4147.155133800231852 13546.38373940238489 
	2531.797571909297403 4191.741948051871077 13568.8901285765769 
	2531.797571907499332 4243.387952927907463 13604.1023196240476 
	2531.797571905993664 4289.938758770019376 13645.70419833582855 
	2531.797571902909112 4327.379842053568609 13687.60012265724981 
	2531.79757190027658 4359.894211602791984 13733.42522681216724 
	2531.797571897165653 4387.073577745722105 13782.6024067697108 
	2531.797571893656368 4408.575793681735377 13834.5136044526389 
	2531.79757189021575 4424.130797750543934 13888.50583260661188 
	2531.797571886012065 4431.973796646831943 13934.66780779007058 
	2531.797571884678291 4434.725045423491792 13967.28981355124415 
	2531.79757188425674 4435.413398699142817 13983.63939597923491 
	2531.797571884149875 4435.585492952964159 13991.81901906730491 
	2531.797571884118952 4435.628522030346176 13995.90943314246215 
	2531.797571884111221 4435.639278734857726 13997.95471577301578 
	2531.797571884108038 4435.642352167011268 13999.12345943585024 
	2531.797571884107583 4435.642864464822196 13999.70783308188402 
	2531.797571884108038 4435.642864462340185 14000.0000199004935 
	2615.130905217441523 4435.642864462339276 14000.0000199004935 
	2615.13090521744607 4435.642864442485916 14002.33751444937843 
	2615.130905217565214 4435.610077025247847 14007.01250298305058 
	2615.130905217658437 4435.413398871512982 14016.36064441897179 
	2615.130905218253247 4434.725032758373345 14032.71022247863948 
	2615.130905219507895 4431.973847904063405 14065.33225520505766 
	2615.130905224906655 4425.699209124275512 14102.26175339793554 
	2615.130905225967581 4416.353524665815712 14138.49040689533831 
	2615.130905227192216 4407.832189752545673 14165.22622590634091 
	2615.130905228143092 4399.492855145510475 14187.07283640094465 
	2615.130905228422307 4392.094325740792556 14204.24894668021079 
	2615.130905228854317 4380.278563104614477 14229.69185713462866 
	2615.130905231973429 4359.894223073852118 14266.57486973569212 
	2615.130905234259899 4327.379613830363269 14312.3997338368863 
	2615.130905236967919 4289.938881586868774 14354.29617890853842 
	2615.130905239092954 4249.594132311654903 14390.35009629966589 
	2615.130905240983793 4207.366082405057568 14420.71008946820075 
	2615.130905242005156 4171.333075404991177 14441.51333252247059 
	2615.130905242249355 4145.116730770248068 14454.13831493648104 
	2615.130905242339395 4129.880255907745777 14460.78582657893458 
	2615.13090524260133 4099.085600496289771 14473.31780839013845 
	2615.13090524378913 4047.319036002614666 14489.28572567447918 
	2615.130905244335281 3973.147422068279411 14500.46571319291616 
	2615.13090524542713 3898.138059175666513 14500.46546898514498 
	2615.130905246097882 3823.966281745596461 14489.28626623942364 
	2615.130905246801376 3764.235782995207501 14470.86115765997602 
	2615.130905246979182 3727.074261617574393 14454.64644824583957 
	2615.130905247004648 3710.302001388368353 14446.37541241673352 
	2615.130905247011469 3699.225650692077124 14440.65309960594095 
	2615.130905247097871 3669.214344040181004 14424.06758139744306 
	2615.130905247336159 3633.062616231817174 14399.41858476610651 
	2615.130905247409373 3599.967467805851356 14370.93618284546574 
	2615.130905247445753 3585.374714617386871 14356.87945310545911 
	2615.130905247446663 3578.794195936492997 14350.23709857325593 
	2615.130905247448482 3574.448783533952337 14345.76804261614416 
	2615.130905247457122 3562.671925043270676 14333.31142587983595 
	2615.13090524752306 3544.362933716636689 14312.03525152510338 
	2615.130905247570809 3514.729075050832307 14271.88547020748229 
	2615.1309052476754 3487.642014143691995 14224.97038820910166 
	2615.130905247726787 3465.016866824532826 14171.29367704028118 
	2615.130905247744977 3450.299818713895547 14123.58349020447713 
	2615.130905247764076 3442.055847222445209 14082.8011284009317 
	2615.130905247764986 3437.92110865446557 14049.8045081526343 
	2615.130905247764986 3435.435616750675308 14016.64278067099622 
	2615.13090524774816 3435.435853307250454 13975.03568841120796 
	2615.130905247717237 3441.23466039263667 13917.0749144420879 
	2615.13090524762265 3456.070181014631999 13852.07138439058326 
	2615.130905247493047 3483.474799482051822 13782.24727480411275 
	2615.130905247325245 3520.978918353202062 13717.28675090173783 
	2615.130905247128339 3562.550938057709118 13665.15894752303393 
	2615.130905246980547 3604.250819236386633 13624.48701569942205 
	2615.13090524688505 3643.286621074224513 13593.35742465864496 
	2615.130905246744078 3692.217635971788695 13561.75288842492228 
	2615.130905246439397 3741.026167691029968 13538.24843235717708 
	2615.130905246292059 3788.127977267994083 13521.76850963586003 
	2615.130905246097882 3830.303624307485279 13510.46669028433644 
	2615.130905245711347 3879.543073609833755 13502.10048893969542 
	2615.130905245242047 3935.642848103802407 13498.95005164748363 
	2615.13090524475092 3991.742714794059339 13502.10037541657766 
	2615.130905244145197 4040.982024116692628 13510.46680188268874 
	2615.130905243856887 4083.157912050109189 13521.76810098650822 
	2615.13090524364361 4112.596139634216343 13532.06890350264985 
	2615.130905243443522 4147.155133800230942 13546.38373940238489 
	2615.130905242630888 4191.741948051870168 13568.8901285765769 
	2615.130905240832817 4243.387952927906554 13604.1023196240476 
	2615.130905239327149 4289.938758770018467 13645.70419833582855 
	2615.130905236242597 4327.3798420535677 13687.60012265724981 
	2615.130905233610065 4359.894211602791074 13733.42522681216724 
	2615.130905230499138 4387.073577745721195 13782.6024067697108 
	2615.130905226989853 4408.575793681734467 13834.5136044526389 
	2615.130905223549235 4424.130797750543024 13888.50583260661188 
	2615.13090521934555 4431.973796646831033 13934.66780779007058 
	2615.130905218011776 4434.725045423490883 13967.28981355124415 
	2615.130905217590225 4435.413398699141908 13983.63939597923491 
	2615.13090521748336 4435.58549295296325 13991.81901906730491 
	2615.130905217452437 4435.628522030345266 13995.90943314246215 
	2615.130905217444706 4435.639278734856816 13997.95471577301578 
	2615.130905217441523 4435.642352167010358 13999.12345943585024 
	2615.130905217441068 4435.642864464821287 13999.70783308188402 
	2615.130905217441523 4435.642864462339276 14000.0000199004935 
	2698.464238547685909 4435.642864462340185 14000.0000199004935 
	2698.464238547690456 4435.642864442486825 14002.33751444937843 
	2698.464238547821878 4435.610077025248756 14007.01250298305058 
	2698.464238547924197 4435.413398871513891 14016.36064441897179 
	2698.464238548577669 4434.725032758374255 14032.71022247863948 
	2698.464238549956463 4431.973847904064314 14065.33225520505766 
	2698.464238555888187 4425.699209124276422 14102.26175339793554 
	2698.46423855705325 4416.353524665816622 14138.49040689533831 
	2698.464238558399302 4407.832189752546583 14165.22622590634091 
	2698.464238559443857 4399.492855145511385 14187.07283640094465 
	2698.464238559750811 4392.094325740793465 14204.24894668021079 
	2698.464238560225567 4380.278563104614477 14229.69185713462866 
	2698.464238563652998 4359.894223073852118 14266.57486973569212 
	2698.464238566164568 4327.379613830363269 14312.3997338368863 
	2698.464238569140434 4289.938881586868774 14354.29617890853842 
	2698.464238571475107 4249.594132311655812 14390.35009629966589 
	2698.464238573552393 4207.366082405058478 14420.71008946820075 
	2698.464238574675164 4171.333075404992087 14441.51333252247059 
	2698.464238574943465 4145.116730770248978 14454.13831493648104 
	2698.4642385750426 4129.880255907746687 14460.78582657893458 
	2698.46423857533 4099.085600496290681 14473.31780839013845 
	2698.464238576635125 4047.319036002615576 14489.28572567447918 
	2698.464238577234937 3973.147422068280321 14500.46571319291616 
	2698.464238578435015 3898.138059175667422 14500.46546898514498 
	2698.464238579171251 3823.966281745597371 14489.28626623942364 
	2698.464238579945686 3764.235782995207956 14470.86115765997602 
	2698.464238580140318 3727.074261617575303 14454.64644824583957 
	2698.464238580168058 3710.302001388368808 14446.37541241673352 
	2698.464238580175333 3699.225650692077124 14440.65309960594095 
	2698.464238580270376 3669.214344040181459 14424.06758139744306 
	2698.464238580531401 3633.062616231817174 14399.41858476610651 
	2698.4642385806128 3599.967467805852266 14370.93618284546574 
	2698.464238580652363 3585.374714617387326 14356.87945310545911 
	2698.464238580654182 3578.794195936493452 14350.23709857325593 
	2698.464238580655547 3574.448783533952792 14345.76804261614416 
	2698.464238580665096 3562.671925043271131 14333.31142587983595 
	2698.464238580738311 3544.362933716636235 14312.03525152510338 
	2698.464238580791061 3514.729075050832762 14271.88547020748229 
	2698.464238580906567 3487.642014143692904 14224.97038820910166 
	2698.464238580962956 3465.016866824533736 14171.29367704028118 
	2698.46423858098251 3450.299818713896457 14123.58349020447713 
	2698.464238581003428 3442.055847222446118 14082.8011284009317 
	2698.464238581004793 3437.921108654466479 14049.8045081526343 
	2698.464238581004338 3435.435616750676218 14016.64278067099622 
	2698.464238580986148 3435.435853307250909 13975.03568841120796 
	2698.464238580952042 3441.234660392637124 13917.0749144420879 
	2698.46423858084836 3456.070181014631544 13852.07138439058326 
	2698.464238580705569 3483.474799482052276 13782.24727480411275 
	2698.464238580520941 3520.978918353202516 13717.28675090173783 
	2698.464238580304936 3562.550938057710027 13665.15894752303393 
	2698.464238580142137 3604.250819236387542 13624.48701569942205 
	2698.46423858003709 3643.286621074225422 13593.35742465864496 
	2698.464238579882021 3692.217635971789605 13561.75288842492228 
	2698.464238579548237 3741.026167691029968 13538.24843235717708 
	2698.464238579385892 3788.127977267994993 13521.76850963586003 
	2698.464238579172616 3830.303624307486189 13510.46669028433644 
	2698.464238578747882 3879.543073609834664 13502.10048893969542 
	2698.464238578231743 3935.642848103802407 13498.95005164748363 
	2698.464238577691503 3991.742714794059339 13502.10037541657766 
	2698.464238577026208 4040.982024116693083 13510.46680188268874 
	2698.464238576709704 4083.157912050109189 13521.76810098650822 
	2698.464238576475054 4112.596139634217252 13532.06890350264985 
	2698.464238576255866 4147.155133800230942 13546.38373940238489 
	2698.464238575362288 4191.741948051870168 13568.8901285765769 
	2698.46423857338732 4243.387952927906554 13604.1023196240476 
	2698.464238571732494 4289.938758770018467 13645.70419833582855 
	2698.464238568343262 4327.3798420535677 13687.60012265724981 
	2698.464238565451069 4359.894211602791984 13733.42522681216724 
	2698.464238562032733 4387.073577745722105 13782.6024067697108 
	2698.464238558177385 4408.575793681735377 13834.5136044526389 
	2698.464238554396161 4424.130797750543024 13888.50583260661188 
	2698.464238549777292 4431.973796646831943 13934.66780779007058 
	2698.464238548311641 4434.725045423490883 13967.28981355124415 
	2698.464238547848709 4435.413398699142817 13983.63939597923491 
	2698.464238547731384 4435.585492952964159 13991.81901906730491 
	2698.464238547697732 4435.628522030346176 13995.90943314246215 
	2698.464238547689092 4435.639278734857726 13997.95471577301578 
	2698.464238547686364 4435.642352167011268 13999.12345943585024 
	2698.464238547685454 4435.642864464822196 13999.70783308188402 
	2698.464238547685909 4435.642864462340185 14000.0000199004935 
	2781.797571881019394 4435.642864462340185 14000.0000199004935 
	2781.797571881023941 4435.642864442486825 14002.33751444937843 
	2781.797571881155363 4435.610077025248756 14007.01250298305058 
	2781.797571881257682 4435.413398871513891 14016.36064441897179 
	2781.797571881911153 4434.725032758374255 14032.71022247863948 
	2781.797571883289947 4431.973847904064314 14065.33225520505766 
	2781.797571889221672 4425.699209124276422 14102.26175339793554 
	2781.797571890386735 4416.353524665816622 14138.49040689533831 
	2781.797571891732787 4407.832189752546583 14165.22622590634091 
	2781.797571892777341 4399.492855145511385 14187.07283640094465 
	2781.797571893084296 4392.094325740793465 14204.24894668021079 
	2781.797571893559052 4380.278563104614477 14229.69185713462866 
	2781.797571896986483 4359.894223073852118 14266.57486973569212 
	2781.797571899498053 4327.379613830363269 14312.3997338368863 
	2781.797571902473919 4289.938881586868774 14354.29617890853842 
	2781.797571904808592 4249.594132311655812 14390.35009629966589 
	2781.797571906885878 4207.366082405058478 14420.71008946820075 
	2781.797571908008649 4171.333075404992087 14441.51333252247059 
	2781.79757190827695 4145.116730770248978 14454.13831493648104 
	2781.797571908376085 4129.880255907746687 14460.78582657893458 
	2781.797571908663485 4099.085600496290681 14473.31780839013845 
	2781.79757190996861 4047.319036002615121 14489.28572567447918 
	2781.797571910568422 3973.147422068279866 14500.46571319291616 
	2781.7975719117685 3898.138059175666967 14500.46546898514498 
	2781.797571912504736 3823.966281745596916 14489.28626623942364 
	2781.797571913279171 3764.235782995207501 14470.86115765997602 
	2781.797571913473803 3727.074261617574848 14454.64644824583957 
	2781.797571913501542 3710.302001388368353 14446.37541241673352 
	2781.797571913508818 3699.22565069207667 14440.65309960594095 
	2781.797571913603861 3669.214344040181004 14424.06758139744306 
	2781.797571913864886 3633.062616231816719 14399.41858476610651 
	2781.797571913946285 3599.967467805851811 14370.93618284546574 
	2781.797571913985848 3585.374714617386871 14356.87945310545911 
	2781.797571913987667 3578.794195936492997 14350.23709857325593 
	2781.797571913989032 3574.448783533952337 14345.76804261614416 
	2781.797571913998581 3562.671925043270676 14333.31142587983595 
	2781.797571914071796 3544.36293371663578 14312.03525152510338 
	2781.797571914124546 3514.729075050832307 14271.88547020748229 
	2781.797571914240052 3487.64201414369245 14224.97038820910166 
	2781.797571914296441 3465.016866824533281 14171.29367704028118 
	2781.797571914315995 3450.299818713896002 14123.58349020447713 
	2781.797571914336913 3442.055847222445664 14082.8011284009317 
	2781.797571914338278 3437.921108654466025 14049.8045081526343 
	2781.797571914337823 3435.435616750675763 14016.64278067099622 
	2781.797571914319633 3435.435853307250454 13975.03568841120796 
	2781.797571914285527 3441.23466039263667 13917.0749144420879 
	2781.797571914181844 3456.070181014631089 13852.07138439058326 
	2781.797571914039054 3483.474799482051822 13782.24727480411275 
	2781.797571913854426 3520.978918353202062 13717.28675090173783 
	2781.797571913638421 3562.550938057709573 13665.15894752303393 
	2781.797571913475622 3604.250819236387088 13624.48701569942205 
	2781.797571913370575 3643.286621074224968 13593.35742465864496 
	2781.797571913215506 3692.21763597178915 13561.75288842492228 
	2781.797571912881722 3741.026167691029514 13538.24843235717708 
	2781.797571912719377 3788.127977267994538 13521.76850963586003 
	2781.7975719125061 3830.303624307485734 13510.46669028433644 
	2781.797571912081366 3879.543073609834209 13502.10048893969542 
	2781.797571911565228 3935.642848103801953 13498.95005164748363 
	2781.797571911024988 3991.742714794058884 13502.10037541657766 
	2781.797571910359693 4040.982024116692628 13510.46680188268874 
	2781.797571910043189 4083.157912050108735 13521.76810098650822 
	2781.797571909808539 4112.596139634217252 13532.06890350264985 
	2781.797571909589351 4147.155133800230942 13546.38373940238489 
	2781.797571908695772 4191.741948051870168 13568.8901285765769 
	2781.797571906720805 4243.387952927906554 13604.1023196240476 
	2781.797571905065979 4289.938758770018467 13645.70419833582855 
	2781.797571901676747 4327.3798420535677 13687.60012265724981 
	2781.797571898784554 4359.894211602791984 13733.42522681216724 
	2781.797571895366218 4387.073577745722105 13782.6024067697108 
	2781.79757189151087 4408.575793681735377 13834.5136044526389 
	2781.797571887729646 4424.130797750543024 13888.50583260661188 
	2781.797571883110777 4431.973796646831943 13934.66780779007058 
	2781.797571881645126 4434.725045423490883 13967.28981355124415 
	2781.797571881182193 4435.413398699142817 13983.63939597923491 
	2781.797571881064869 4435.585492952964159 13991.81901906730491 
	2781.797571881031217 4435.628522030346176 13995.90943314246215 
	2781.797571881022577 4435.639278734857726 13997.95471577301578 
	2781.797571881019849 4435.642352167011268 13999.12345943585024 
	2781.797571881018939 4435.642864464822196 13999.70783308188402 
	2781.797571881019394 4435.642864462340185 14000.0000199004935 
	0 
	
	0 
	0 
	77 0 0.002232142857142857019 0.004464285714285714038 0.008928571428571428076 0.01785714285714285615 0.0357142857142857123 0.04464285714285713691 0.05357142857142856845 0.0625 0.0669642857142857123 0.07142857142857142461 0.08928571428571427382 0.1071428571428571369 0.125 0.1428571428571428492 0.1587301587301587213 0.1746031746031745935 0.1825396825396825295 0.1865079365079365115 0.1904761904761904656 0.2142857142857142738 0.238095238095238082 0.2619047619047618625 0.2857142857142856984 0.3095238095238095344 0.3214285714285713969 0.3244047619047618625 0.3273809523809523281 0.3333333333333333148 0.3571428571428570953 0.3690476190476190133 0.375 0.3764880952380952328 0.3779761904761904656 0.3809523809523809312 0.3928571428571428492 0.4047619047619047672 0.4285714285714285476 0.4444444444444444198 0.4603174603174602919 0.476190476190476164 0.4841269841269840724 0.4920634920634920362 0.5079365079365079083 0.5238095238095237249 0.5476190476190475609 0.5714285714285713969 0.5952380952380951218 0.6190476190476189577 0.6349206349206348854 0.650793650793650702 0.6666666666666666297 0.6904761904761904656 0.7023809523809523281 0.7142857142857141906 0.7321428571428569843 0.749999999999999889 0.7678571428571427937 0.7857142857142855874 0.7976190476190474499 0.8095238095238094234 0.8154761904761904656 0.8333333333333332593 0.8571428571428570953 0.875 0.8928571428571427937 0.9107142857142856984 0.9285714285714286031 0.9464285714285713969 0.9642857142857143016 0.9821428571428572063 0.9910714285714286031 0.9955357142857143016 0.9977678571428572063 0.9988839285714286031 0.9994419642857143016 0.9997209821428572063 
	0 
	0 
	0 
	F 1 F 0 F 1 F 0 } I I I I #
tcoedge-coedge $-1 -1 $-1 $14 $14 $18 $19 reversed $9 $20 -6.283185307179586232 -0 #
tcoedge-coedge $-1 -1 $-1 $21 $22 $11 $16 reversed $12 $23 -6.283185307179586232 -0 #
tedge-edge $-1 -1 $-1 $24 0 $24 6.283185307179586232 $15 $25 forward @7 unknown 0.0007715508287344316355 #
pcurve $-1 -1 $-1 0 forward { exppc nurbs 2 periodic 5 
	0 2 1.570796326794896558 2 3.141592653589793116 2 4.712388980384689674 2 6.283185307179586232 2 
	0 500 1 
	-500 500 0.707106781186543798 
	-500 0 1 
	-500 -500 0.7071067811865463515 
	0 -500 1 
	500 -500 0.7071067811865463515 
	500 0 1 
	500 500 0.707106781186543798 
	0 500 1 
	0 
	plane 2781.797571915386925 3935.642797989808059 14000.00000000000182 1 -3.637978807091713027e-15 0 0 0 -1 forward_v I I I I 
	} 0 0 #
tcoedge-coedge $-1 -1 $-1 $22 $21 $14 $19 forward $12 $26 0 6.283185307179586232 #
tedge-edge $-1 -1 $-1 $27 0 $27 6.283185307179586232 $18 $28 forward @7 unknown 0.0007715508274215473724 #
pcurve $-1 -1 $-1 0 forward { exppc nurbs 2 periodic 5 
	-6.283185307179586232 2 -4.712388980384689674 2 -3.141592653589793116 2 -1.570796326794896558 2 0 2 
	0 500 1 
	500 500 0.707106781186543798 
	500 0 1 
	500 -500 0.7071067811865463515 
	0 -500 1 
	-500 -500 0.7071067811865463515 
	-500 0 1 
	-500 500 0.707106781186543798 
	0 500 1 
	0 
	plane 2531.797571915386925 3935.642797989808969 14000.00000000000182 -1 3.637978807091713027e-15 -0 0 0 -1 reverse_v I I I I 
	} 0 0 #
coedge $-1 -1 $-1 $18 $15 $22 $29 reversed $12 $30 #
coedge $-1 -1 $-1 $15 $18 $21 $29 forward $12 $31 #
pcurve $-1 -1 $-1 0 forward { exppc nubs 1 periodic 2 
	-6.283185307179586232 1 -0 1 
	1 1 
	0 1 
	2.726396620975368931e-13 
	spline forward { ref 0 } I I I I 
	} 0 0 #
tvertex-vertex $-1 -1 $-1 $16 $32 6.93875324917804108e-05 #
ellipse-curve $-1 -1 $-1 2781.797571915386925 3935.642797989808059 14000.00000000000182 1 -3.637978807091713027e-15 0 1.818989403545856476e-12 500 0 1 I I #
pcurve $-1 -1 $-1 0 forward { exppc nubs 1 periodic 2 
	0 1 6.283185307179586232 1 
	0 0 
	1 0 
	4.411402399551011509e-13 
	spline forward { ref 0 } I I I I 
	} 0 0 #
tvertex-vertex $-1 -1 $-1 $19 $33 6.938753015935465436e-05 #
ellipse-curve $-1 -1 $-1 2531.797571915386925 3935.642797989808969 14000.00000000000182 1 -3.637978807091713027e-15 0 1.818989403545856476e-12 500 0 1 I I #
edge $-1 -1 $-1 $27 0 $24 1 $22 $34 forward @7 tangent #
pcurve $-1 -1 $-1 -1 $34 0 0 #
pcurve $-1 -1 $-1 1 $34 1 0 #
point $-1 -1 $-1 2781.797571915388744 4435.642797989808059 14000.00000000000182 #
point $-1 -1 $-1 2531.797571915388744 4435.642797989808969 14000.00000000000182 #
intcurve-curve $-1 -1 $-1 forward { parcur full nubs 3 open 2 
	0 3 1 3 
	2531.797571884108038 4435.642864462340185 14000.0000199004935 
	2615.130905217441523 4435.642864462339276 14000.0000199004935 
	2698.464238547685909 4435.642864462340185 14000.0000199004935 
	2781.797571881019394 4435.642864462340185 14000.0000199004935 
	0 
	
	spline forward { ref 0 } I I I I 
	null_surface 
	nubs 1 open 2 
	0 1 1 1 
	0 0 
	0 1 
	
	nullbs 
	I I 
	0 
	0 
	0 
	surf1 } I I #
End-of-ACIS-data 