700 0 1 0           
4 LibG 20 ASM 224.0.1.65535 NT 24 Wed Jul 17 12:52:12 2019 
1000 9.999999999999999547e-07 1.000000000000000036e-10 
body $-1 -1 $-1 $1 $-1 $2 #
lump $-1 -1 $-1 $-1 $3 $0 #
transform $-1 -1 1 0 0 0 1 0 0 0 1 0 0 0 1 no_rotate no_reflect no_shear #
shell $-1 -1 $-1 $-1 $-1 $4 $-1 $1 #
face $-1 -1 $-1 $5 $6 $3 $-1 $7 forward single #
face $-1 -1 $-1 $8 $9 $3 $-1 $10 reversed single #
loop $-1 -1 $-1 $-1 $11 $4 #
plane-surface $-1 -1 $-1 4781.79757191538738 3935.642797989800783 14000.00000000000182 1 -3.637978807091713027e-15 0 0 0 -1 forward_v I I I I #
face $-1 -1 $-1 $-1 $12 $3 $-1 $13 forward single #
loop $-1 -1 $-1 $-1 $14 $5 #
plane-surface $-1 -1 $-1 4531.79757191538738 3935.642797989801693 14000.00000000000182 1 -3.637978807091713027e-15 0 0 0 -1 forward_v I I I I #
tcoedge-coedge $-1 -1 $-1 $11 $11 $15 $16 forward $6 $17 0 6.283185307179586232 #
loop $-1 -1 $-1 $-1 $18 $8 #
spline-surface $-1 -1 $-1 forward { exactsur full nubs 3 3 periodic open none none 90 2 
	0 3 0.001116071428571428509 1 0.002232142857142857019 1 0.004464285714285714038 1 0.008928571428571428076 1 
	0.01785714285714285615 1 0.0357142857142857123 1 0.05357142857142856845 1 0.07142857142857142461 1 0.08928571428571427382 1 
	0.1071428571428571369 1 0.1160714285714285754 1 0.125 1 0.1428571428571428492 1 0.1587301587301587213 1 
	0.1746031746031745935 1 0.1904761904761904656 1 0.2023809523809523836 1 0.2142857142857142738 1 0.238095238095238082 1 
	0.2619047619047618625 1 0.2857142857142856984 1 0.2976190476190476164 1 0.3095238095238095344 1 0.3154761904761904656 1 
	0.3214285714285713969 1 0.3333333333333333148 1 0.3452380952380952328 1 0.3571428571428570953 1 0.3690476190476190133 1 
	0.375 1 0.3779761904761904656 1 0.3809523809523809312 1 0.3869047619047618625 1 0.3928571428571428492 1 
	0.4047619047619047672 1 0.4166666666666666297 1 0.4285714285714285476 1 0.4444444444444444198 1 0.4603174603174602919 1 
	0.476190476190476164 1 0.4801587301587301182 1 0.4821428571428570953 1 0.4841269841269840724 1 0.4861111111111110494 1 
	0.4880952380952380265 1 0.4900793650793650036 1 0.4910714285714284921 1 0.4915674603174602364 1 0.491815476190476164 1 
	0.4920634920634920362 1 0.5158730158730158166 1 0.5238095238095237249 1 0.5357142857142855874 1 0.5476190476190475609 1 
	0.5595238095238095344 1 0.5714285714285713969 1 0.5952380952380951218 1 0.6190476190476189577 1 0.6349206349206348854 1 
	0.650793650793650702 1 0.6666666666666666297 1 0.6904761904761904656 1 0.7023809523809523281 1 0.7142857142857141906 1 
	0.7321428571428569843 1 0.749999999999999889 1 0.7678571428571427937 1 0.7857142857142855874 1 0.8095238095238094234 1 
	0.8214285714285713969 1 0.8333333333333332593 1 0.8452380952380951218 1 0.8571428571428570953 1 0.875 1 
	0.8928571428571427937 1 0.9107142857142856984 1 0.9285714285714286031 1 0.9464285714285713969 1 0.9642857142857143016 1 
	0.9732142857142858094 1 0.9821428571428572063 1 0.9910714285714286031 1 0.9955357142857143016 1 0.9977678571428572063 1 
	0.9988839285714286031 1 0.9994419642857143016 1 0.9997209821428572063 1 0.9998604910714286031 1 1 3 
	0 3 1 3 
	4531.797571692819474 4435.642811967393754 14000.00002272141137 
	4531.79757169282675 4435.642811964807152 14001.16876997788131 
	4531.797571693022292 4435.634616605940209 14003.5062644717691 
	4531.797571693214195 4435.585440588929487 14008.18102324182109 
	4531.797571694043654 4435.413346091901985 14016.36064566409368 
	4531.797571697142303 4434.724991306537049 14032.71022444711161 
	4531.797571707043062 4431.973741082767447 14065.33222252570522 
	4531.797571738786246 4424.130716475065128 14111.4941484940282 
	4531.797571764232089 4408.575720073302364 14165.48636835328034 
	4531.79757179225544 4387.073435450645775 14217.39746944070248 
	4531.797571813402101 4359.894160400450346 14266.57473623724218 
	4531.797571836167663 4332.798620515359289 14304.76204711166974 
	4531.797571841619174 4308.659342403192568 14333.34785571822795 
	4531.79757184938444 4282.956069929423393 14360.53605110393619 
	4531.797571853249792 4249.594182502389231 14390.34993144892906 
	4531.797571870880347 4207.365961798584067 14420.70968867506963 
	4531.797571872380104 4164.126535646452794 14445.67388202465554 
	4531.797571875838912 4122.408862536703055 14464.49776385708174 
	4531.797571878525559 4083.157740990864113 14478.23156196234413 
	4531.797571881852491 4034.956948892018318 14491.14851707866183 
	4531.79757188586791 3973.147680728726755 14500.46601314704822 
	4531.797571892590895 3898.137920151875733 14500.46559924539906 
	4531.797571897795933 3836.328567887169356 14491.14872130864751 
	4531.797571898849128 3788.127688146074888 14478.23198501444676 
	4531.797571901343872 3758.689392342826977 14467.9315637542295 
	4531.797571901948686 3735.650074642110212 14458.38811834130865 
	4531.797571902614436 3712.983596938994651 14447.99022288418018 
	4531.797571904498 3685.40943191645465 14433.41682928637965 
	4531.797571906527992 3653.719848327991258 14413.50493130832911 
	4531.797571907140991 3623.606878358524227 14391.28058475484977 
	4531.797571908053214 3599.966980245818377 14370.93673228887928 
	4531.797571908224199 3584.251838252344896 14355.79851028122539 
	4531.797571908365171 3575.519011989846149 14346.90084561253025 
	4531.797571908454302 3566.95408922136312 14337.84144102338905 
	4531.797571908844475 3556.568405343877657 14326.21982662065784 
	4531.797571908948157 3540.658140199395802 14307.01698229424073 
	4531.797571909630278 3522.137741818507493 14281.9229077002874 
	4531.79757191002318 3502.225966896113277 14250.23327076297028 
	4531.797571910503393 3482.794632042862759 14213.46781588415797 
	4531.797571911449268 3465.016576181843448 14171.29387590770966 
	4531.797571912189596 3450.300128159148244 14123.58333125935678 
	4531.797571913668435 3442.880151749899142 14086.87936409010945 
	4531.797571913877618 3439.755614369254545 14064.23663789669808 
	4531.797571913902175 3438.773569480576953 14055.98360747343031 
	4531.797571913925822 3438.114273862508981 14049.78513051941445 
	4531.79757191394765 3437.532292905669237 14043.57891766531247 
	4531.797571913968568 3437.027731546540508 14037.3659314116976 
	4531.797571913990396 3436.671834659719934 14032.18360346505506 
	4531.797571913996762 3436.456645690329879 14028.55385647180265 
	4531.797571913997672 3436.357530322166895 14026.73850620771373 
	4531.797571913999491 3436.303328086253259 14025.70103499040306 
	4531.797571913822139 3435.014335522231249 14000.28092695280066 
	4531.797571913165484 3435.853170582980511 13966.69364029511053 
	4531.79757191295721 3441.539720751120512 13921.32329497100909 
	4531.79757191241697 3447.7241350510144 13888.6356257139978 
	4531.797571911954037 3457.410779798243311 13852.48474718522266 
	4531.79757191137287 3469.772007995786225 13817.15900302563932 
	4531.797571910702572 3489.726307616486338 13771.42079919719072 
	4531.797571908342434 3520.978888101751181 13717.286595423584 
	4531.797571906087796 3562.551253011540666 13665.15895794137214 
	4531.797571904295182 3604.250972863439983 13624.48693260449727 
	4531.797571903583048 3643.286841155239472 13593.35737655250523 
	4531.797571902129675 3692.217811853815874 13561.75280784046117 
	4531.797571899339346 3741.026345045162088 13538.24831797234765 
	4531.797571898051501 3788.128141064869396 13521.76839652599483 
	4531.797571896373483 3830.303799848640665 13510.46651750194542 
	4531.797571893057466 3879.543199626913065 13502.10042388842157 
	4531.797571889211213 3935.64308167412355 13498.94961438983955 
	4531.797571884930221 3991.74270435351491 13502.10066053362789 
	4531.797571879345924 4053.29248094100376 13512.55667020178589 
	4531.797571872886692 4107.04965082626768 13529.13948855420676 
	4531.797571871153195 4152.787028155903499 13549.09584784591607 
	4531.797571867677107 4185.87618116561498 13566.58335422807977 
	4531.797571863641679 4217.565603801614088 13586.49550942762835 
	4531.797571859584423 4252.69760938897889 13612.42356647344786 
	4531.797571848140251 4289.938958060773075 13645.70406347173594 
	4531.797571840432283 4327.379662443810957 13687.60047991529245 
	4531.7975718126836 4359.894147828380483 13733.4253737931067 
	4531.797571785947184 4387.073420051699941 13782.60257816082958 
	4531.79757175927989 4408.575841420767574 13834.51368060338427 
	4531.797571727268405 4421.537995202372258 13879.50721510394214 
	4531.797571716941093 4428.836875029347539 13916.20300824922197 
	4531.797571707650604 4432.759653844688728 13943.98841355100194 
	4531.797571697420608 4434.725034973239417 13967.28981660168211 
	4531.797571694140061 4435.413338184554959 13983.63940067534895 
	4531.797571693158716 4435.585441919572986 13991.81902202870333 
	4531.797571692910424 4435.628469312767265 13995.90943607004556 
	4531.797571692843121 4435.639226308195248 13997.95471861469741 
	4531.797571692824931 4435.641915552088903 13998.97736931695727 
	4531.797571692819474 4435.642683915962152 13999.56174249993819 
	4531.797571692818565 4435.642811967716625 13999.85392931435308 
	4531.797571692819474 4435.642811967393754 14000.00002272141137 
	4615.130905026152504 4435.642811967392845 14000.00002272141137 
	4615.13090502615978 4435.642811964806242 14001.16876997788131 
	4615.130905026355322 4435.6346166059393 14003.5062644717691 
	4615.130905026547225 4435.585440588928577 14008.18102324182109 
	4615.130905027376684 4435.413346091901076 14016.36064566409368 
	4615.130905030475333 4434.72499130653614 14032.71022444711161 
	4615.130905040376092 4431.973741082766537 14065.33222252570522 
	4615.130905072119276 4424.130716475064219 14111.4941484940282 
	4615.130905097565119 4408.575720073301454 14165.48636835328034 
	4615.13090512558847 4387.073435450644865 14217.39746944070248 
	4615.130905146735131 4359.894160400449437 14266.57473623724218 
	4615.130905169500693 4332.79862051535838 14304.76204711166974 
	4615.130905174952204 4308.659342403191658 14333.34785571822795 
	4615.13090518271747 4282.956069929422483 14360.53605110393619 
	4615.130905186582822 4249.594182502388321 14390.34993144892906 
	4615.130905204213377 4207.365961798583157 14420.70968867506963 
	4615.130905205713134 4164.126535646451885 14445.67388202465554 
	4615.130905209171942 4122.408862536702145 14464.49776385708174 
	4615.13090521185859 4083.157740990863658 14478.23156196234413 
	4615.130905215185521 4034.956948892017863 14491.14851707866183 
	4615.13090521920094 3973.1476807287263 14500.46601314704822 
	4615.130905225923925 3898.137920151875278 14500.46559924539906 
	4615.130905231128963 3836.328567887168902 14491.14872130864751 
	4615.130905232182158 3788.127688146074433 14478.23198501444676 
	4615.130905234676902 3758.689392342826523 14467.9315637542295 
	4615.130905235281716 3735.650074642109757 14458.38811834130865 
	4615.130905235947466 3712.983596938994197 14447.99022288418018 
	4615.13090523783103 3685.409431916454196 14433.41682928637965 
	4615.130905239861022 3653.719848327990803 14413.50493130832911 
	4615.130905240474021 3623.606878358523772 14391.28058475484977 
	4615.130905241386245 3599.966980245817922 14370.93673228887928 
	4615.13090524155723 3584.251838252344442 14355.79851028122539 
	4615.130905241698201 3575.519011989845694 14346.90084561253025 
	4615.130905241787332 3566.954089221362665 14337.84144102338905 
	4615.130905242177505 3556.568405343877203 14326.21982662065784 
	4615.130905242281187 3540.658140199395348 14307.01698229424073 
	4615.130905242963308 3522.137741818507038 14281.9229077002874 
	4615.13090524335621 3502.225966896112823 14250.23327076297028 
	4615.130905243836423 3482.794632042862304 14213.46781588415797 
	4615.130905244782298 3465.016576181842993 14171.29387590770966 
	4615.130905245522627 3450.300128159147789 14123.58333125935678 
	4615.130905247001465 3442.880151749898687 14086.87936409010945 
	4615.130905247210649 3439.75561436925409 14064.23663789669808 
	4615.130905247235205 3438.773569480576498 14055.98360747343031 
	4615.130905247258852 3438.114273862508526 14049.78513051941445 
	4615.13090524728068 3437.532292905668783 14043.57891766531247 
	4615.130905247301598 3437.027731546540053 14037.3659314116976 
	4615.130905247323426 3436.67183465971948 14032.18360346505506 
	4615.130905247329792 3436.456645690329424 14028.55385647180265 
	4615.130905247330702 3436.35753032216644 14026.73850620771373 
	4615.130905247332521 3436.303328086252804 14025.70103499040306 
	4615.130905247155169 3435.014335522230795 14000.28092695280066 
	4615.130905246498514 3435.853170582980056 13966.69364029511053 
	4615.13090524629024 3441.539720751120058 13921.32329497100909 
	4615.13090524575 3447.724135051013945 13888.6356257139978 
	4615.130905245287067 3457.410779798242856 13852.48474718522266 
	4615.1309052447059 3469.772007995785771 13817.15900302563932 
	4615.130905244035603 3489.726307616485883 13771.42079919719072 
	4615.130905241675464 3520.978888101750726 13717.286595423584 
	4615.130905239420827 3562.551253011540211 13665.15895794137214 
	4615.130905237628212 3604.250972863439529 13624.48693260449727 
	4615.130905236916078 3643.286841155239017 13593.35737655250523 
	4615.130905235462706 3692.217811853815419 13561.75280784046117 
	4615.130905232672376 3741.026345045161634 13538.24831797234765 
	4615.130905231384531 3788.128141064868942 13521.76839652599483 
	4615.130905229706514 3830.30379984864021 13510.46651750194542 
	4615.130905226390496 3879.54319962691261 13502.10042388842157 
	4615.130905222544243 3935.643081674123096 13498.94961438983955 
	4615.130905218263251 3991.742704353514455 13502.10066053362789 
	4615.130905212678954 4053.292480941003305 13512.55667020178589 
	4615.130905206219722 4107.04965082626677 13529.13948855420676 
	4615.130905204486226 4152.78702815590259 13549.09584784591607 
	4615.130905201010137 4185.876181165614071 13566.58335422807977 
	4615.130905196974709 4217.565603801613179 13586.49550942762835 
	4615.130905192917453 4252.69760938897798 13612.42356647344786 
	4615.130905181473281 4289.938958060772165 13645.70406347173594 
	4615.130905173765314 4327.379662443810048 13687.60047991529245 
	4615.13090514601663 4359.894147828379573 13733.4253737931067 
	4615.130905119280214 4387.073420051699031 13782.60257816082958 
	4615.13090509261292 4408.575841420766665 13834.51368060338427 
	4615.130905060601435 4421.537995202371349 13879.50721510394214 
	4615.130905050274123 4428.836875029346629 13916.20300824922197 
	4615.130905040983635 4432.759653844687818 13943.98841355100194 
	4615.130905030753638 4434.725034973238508 13967.28981660168211 
	4615.130905027473091 4435.41333818455405 13983.63940067534895 
	4615.130905026491746 4435.585441919572077 13991.81902202870333 
	4615.130905026243454 4435.628469312766356 13995.90943607004556 
	4615.130905026176151 4435.639226308194338 13997.95471861469741 
	4615.130905026157961 4435.641915552087994 13998.97736931695727 
	4615.130905026152504 4435.642683915961243 13999.56174249993819 
	4615.130905026151595 4435.642811967715716 13999.85392931435308 
	4615.130905026152504 4435.642811967392845 14000.00002272141137 
	4698.464238347208266 4435.642811967393754 14000.00002272141137 
	4698.464238347215542 4435.642811964807152 14001.16876997788131 
	4698.464238347421997 4435.634616605940209 14003.5062644717691 
	4698.464238347624814 4435.585440588929487 14008.18102324182109 
	4698.464238348497929 4435.413346091901985 14016.36064566409368 
	4698.464238351768472 4434.724991306537049 14032.71022444711161 
	4698.464238362215838 4431.973741082766537 14065.33222252570522 
	4698.464238395711618 4424.130716475064219 14111.4941484940282 
	4698.464238422560811 4408.575720073300545 14165.48636835328034 
	4698.464238452130303 4387.073435450643956 14217.39746944070248 
	4698.464238474443846 4359.894160400448527 14266.57473623724218 
	4698.46423849846451 4332.79862051535747 14304.76204711166974 
	4698.464238504217064 4308.659342403190749 14333.34785571822795 
	4698.464238512409793 4282.956069929421574 14360.53605110393619 
	4698.464238516488876 4249.594182502388321 14390.34993144892906 
	4698.464238535091681 4207.365961798583157 14420.70968867506963 
	4698.464238536674202 4164.126535646451885 14445.67388202465554 
	4698.464238540323095 4122.408862536702145 14464.49776385708174 
	4698.46423854315799 4083.157740990863203 14478.23156196234413 
	4698.464238546668639 4034.956948892016953 14491.14851707866183 
	4698.464238550905065 3973.147680728725845 14500.46601314704822 
	4698.464238557999124 3898.137920151873914 14500.46559924539906 
	4698.464238563490653 3836.328567887166628 14491.14872130864751 
	4698.464238564602056 3788.12768814607216 14478.23198501444676 
	4698.464238567235043 3758.689392342824249 14467.9315637542295 
	4698.464238567872599 3735.650074642107484 14458.38811834130865 
	4698.464238568575638 3712.983596938991923 14447.99022288418018 
	4698.464238570562884 3685.409431916451467 14433.41682928637965 
	4698.464238572704744 3653.719848327988984 14413.50493130832911 
	4698.464238573351395 3623.606878358521499 14391.28058475484977 
	4698.46423857431364 3599.966980245815193 14370.93673228887928 
	4698.46423857449463 3584.251838252342168 14355.79851028122539 
	4698.464238574642877 3575.51901198984342 14346.90084561253025 
	4698.464238574738374 3566.954089221360391 14337.84144102338905 
	4698.464238575149466 3556.568405343874474 14326.21982662065784 
	4698.464238575258605 3540.658140199392619 14307.01698229424073 
	4698.464238575978015 3522.13774181850431 14281.9229077002874 
	4698.464238576392745 3502.225966896110094 14250.23327076297028 
	4698.464238576898424 3482.794632042859575 14213.46781588415797 
	4698.46423857789614 3465.016576181840264 14171.29387590770966 
	4698.464238578675577 3450.300128159144606 14123.58333125935678 
	4698.46423858023627 3442.880151749895958 14086.87936409010945 
	4698.464238580456367 3439.755614369251361 14064.23663789669808 
	4698.464238580482743 3438.773569480573769 14055.98360747343031 
	4698.464238580507299 3438.114273862506252 14049.78513051941445 
	4698.464238580531855 3437.532292905666509 14043.57891766531247 
	4698.464238580552774 3437.02773154653778 14037.3659314116976 
	4698.46423858057733 3436.671834659717206 14032.18360346505506 
	4698.464238580582787 3436.456645690327605 14028.55385647180265 
	4698.464238580584606 3436.357530322164621 14026.73850620771373 
	4698.464238580586425 3436.30332808625144 14025.70103499040306 
	4698.464238580399979 3435.014335522229885 14000.28092695280066 
	4698.464238579707853 3435.853170582979146 13966.69364029511053 
	4698.464238579486846 3441.539720751119148 13921.32329497100909 
	4698.464238578917502 3447.724135051013036 13888.6356257139978 
	4698.464238578429104 3457.410779798242402 13852.48474718522266 
	4698.464238577816104 3469.772007995784861 13817.15900302563932 
	4698.464238577110336 3489.726307616485428 13771.42079919719072 
	4698.464238574621049 3520.978888101748908 13717.286595423584 
	4698.464238572242721 3562.551253011539302 13665.15895794137214 
	4698.464238570351881 3604.250972863438164 13624.48693260449727 
	4698.464238569599729 3643.286841155238108 13593.35737655250523 
	4698.464238568066321 3692.21781185381451 13561.75280784046117 
	4698.464238565121377 3741.026345045160724 13538.24831797234765 
	4698.464238563762592 3788.128141064868032 13521.76839652599483 
	4698.464238561992715 3830.303799848639301 13510.46651750194542 
	4698.464238558494799 3879.543199626911701 13502.10042388842157 
	4698.464238554435724 3935.643081674121731 13498.94961438983955 
	4698.464238549919173 3991.742704353513545 13502.10066053362789 
	4698.464238544026557 4053.292480941001941 13512.55667020178589 
	4698.464238537212623 4107.049650826264951 13529.13948855420676 
	4698.46423853538181 4152.78702815590168 13549.09584784591607 
	4698.464238531714727 4185.876181165613161 13566.58335422807977 
	4698.464238527455564 4217.565603801612269 13586.49550942762835 
	4698.464238523175482 4252.697609388977071 13612.42356647344786 
	4698.464238511099211 4289.938958060772165 13645.70406347173594 
	4698.464238502966509 4327.379662443809138 13687.60047991529245 
	4698.464238473686237 4359.894147828378664 13733.4253737931067 
	4698.464238445473711 4387.073420051698122 13782.60257816082958 
	4698.464238417334855 4408.575841420765755 13834.51368060338427 
	4698.46423838355804 4421.537995202371349 13879.50721510394214 
	4698.464238372660475 4428.836875029346629 13916.20300824922197 
	4698.464238362857031 4432.759653844688728 13943.98841355100194 
	4698.464238352062239 4434.725034973239417 13967.28981660168211 
	4698.464238348602521 4435.413338184554959 13983.63940067534895 
	4698.464238347565697 4435.585441919572986 13991.81902202870333 
	4698.464238347304672 4435.628469312767265 13995.90943607004556 
	4698.464238347232822 4435.639226308195248 13997.95471861469741 
	4698.464238347213723 4435.641915552088903 13998.97736931695727 
	4698.464238347209175 4435.642683915962152 13999.56174249993819 
	4698.464238347207356 4435.642811967716625 13999.85392931435308 
	4698.464238347208266 4435.642811967393754 14000.00002272141137 
	4781.797571680541296 4435.642811967393754 14000.00002272141137 
	4781.797571680548572 4435.642811964807152 14001.16876997788131 
	4781.797571680755027 4435.634616605940209 14003.5062644717691 
	4781.797571680957844 4435.585440588929487 14008.18102324182109 
	4781.797571681830959 4435.413346091901985 14016.36064566409368 
	4781.797571685101502 4434.724991306537049 14032.71022444711161 
	4781.797571695548868 4431.973741082766537 14065.33222252570522 
	4781.797571729044648 4424.130716475064219 14111.4941484940282 
	4781.797571755893841 4408.575720073300545 14165.48636835328034 
	4781.797571785463333 4387.073435450643956 14217.39746944070248 
	4781.797571807776876 4359.894160400448527 14266.57473623724218 
	4781.797571831797541 4332.79862051535747 14304.76204711166974 
	4781.797571837550095 4308.659342403190749 14333.34785571822795 
	4781.797571845742823 4282.956069929421574 14360.53605110393619 
	4781.797571849821907 4249.594182502388321 14390.34993144892906 
	4781.797571868424711 4207.365961798583157 14420.70968867506963 
	4781.797571870007232 4164.126535646451885 14445.67388202465554 
	4781.797571873656125 4122.408862536702145 14464.49776385708174 
	4781.79757187649102 4083.157740990862749 14478.23156196234413 
	4781.797571880001669 4034.956948892016499 14491.14851707866183 
	4781.797571884238096 3973.147680728725391 14500.46601314704822 
	4781.797571891332154 3898.137920151873459 14500.46559924539906 
	4781.797571896823683 3836.328567887166173 14491.14872130864751 
	4781.797571897935086 3788.127688146071705 14478.23198501444676 
	4781.797571900568073 3758.689392342823794 14467.9315637542295 
	4781.797571901205629 3735.650074642107029 14458.38811834130865 
	4781.797571901908668 3712.983596938991468 14447.99022288418018 
	4781.797571903895914 3685.409431916451013 14433.41682928637965 
	4781.797571906037774 3653.719848327988529 14413.50493130832911 
	4781.797571906684425 3623.606878358521044 14391.28058475484977 
	4781.79757190764667 3599.966980245814739 14370.93673228887928 
	4781.79757190782766 3584.251838252341713 14355.79851028122539 
	4781.797571907975907 3575.519011989842966 14346.90084561253025 
	4781.797571908071404 3566.954089221359936 14337.84144102338905 
	4781.797571908482496 3556.568405343874019 14326.21982662065784 
	4781.797571908591635 3540.658140199392165 14307.01698229424073 
	4781.797571909311046 3522.137741818503855 14281.9229077002874 
	4781.797571909725775 3502.225966896109639 14250.23327076297028 
	4781.797571910231454 3482.794632042859121 14213.46781588415797 
	4781.79757191122917 3465.01657618183981 14171.29387590770966 
	4781.797571912008607 3450.300128159144151 14123.58333125935678 
	4781.7975719135693 3442.880151749895504 14086.87936409010945 
	4781.797571913789398 3439.755614369250907 14064.23663789669808 
	4781.797571913815773 3438.773569480573315 14055.98360747343031 
	4781.797571913840329 3438.114273862505797 14049.78513051941445 
	4781.797571913864886 3437.532292905666054 14043.57891766531247 
	4781.797571913885804 3437.027731546537325 14037.3659314116976 
	4781.79757191391036 3436.671834659716751 14032.18360346505506 
	4781.797571913915817 3436.45664569032715 14028.55385647180265 
	4781.797571913917636 3436.357530322164166 14026.73850620771373 
	4781.797571913919455 3436.303328086250986 14025.70103499040306 
	4781.797571913733009 3435.01433552222943 14000.28092695280066 
	4781.797571913040883 3435.853170582978692 13966.69364029511053 
	4781.797571912819876 3441.539720751118693 13921.32329497100909 
	4781.797571912250532 3447.724135051012581 13888.6356257139978 
	4781.797571911762134 3457.410779798241947 13852.48474718522266 
	4781.797571911149134 3469.772007995784406 13817.15900302563932 
	4781.797571910443367 3489.726307616484974 13771.42079919719072 
	4781.79757190795408 3520.978888101748453 13717.286595423584 
	4781.797571905575751 3562.551253011538847 13665.15895794137214 
	4781.797571903684911 3604.25097286343771 13624.48693260449727 
	4781.797571902932759 3643.286841155237653 13593.35737655250523 
	4781.797571901399351 3692.217811853814055 13561.75280784046117 
	4781.797571898454407 3741.026345045160269 13538.24831797234765 
	4781.797571897095622 3788.128141064867577 13521.76839652599483 
	4781.797571895325746 3830.303799848638846 13510.46651750194542 
	4781.797571891827829 3879.543199626911246 13502.10042388842157 
	4781.797571887768754 3935.643081674121277 13498.94961438983955 
	4781.797571883252203 3991.742704353513091 13502.10066053362789 
	4781.797571877359587 4053.292480941001486 13512.55667020178589 
	4781.797571870545653 4107.049650826264951 13529.13948855420676 
	4781.79757186871484 4152.78702815590168 13549.09584784591607 
	4781.797571865047757 4185.876181165613161 13566.58335422807977 
	4781.797571860788594 4217.565603801612269 13586.49550942762835 
	4781.797571856508512 4252.697609388977071 13612.42356647344786 
	4781.797571844432241 4289.938958060772165 13645.70406347173594 
	4781.797571836299539 4327.379662443809138 13687.60047991529245 
	4781.797571807019267 4359.894147828378664 13733.4253737931067 
	4781.797571778806741 4387.073420051698122 13782.60257816082958 
	4781.797571750667885 4408.575841420765755 13834.51368060338427 
	4781.797571716891071 4421.537995202371349 13879.50721510394214 
	4781.797571705993505 4428.836875029346629 13916.20300824922197 
	4781.797571696190062 4432.759653844688728 13943.98841355100194 
	4781.797571685395269 4434.725034973239417 13967.28981660168211 
	4781.797571681935551 4435.413338184554959 13983.63940067534895 
	4781.797571680898727 4435.585441919572986 13991.81902202870333 
	4781.797571680637702 4435.628469312767265 13995.90943607004556 
	4781.797571680565852 4435.639226308195248 13997.95471861469741 
	4781.797571680546753 4435.641915552088903 13998.97736931695727 
	4781.797571680542205 4435.642683915962152 13999.56174249993819 
	4781.797571680540386 4435.642811967716625 13999.85392931435308 
	4781.797571680541296 4435.642811967393754 14000.00002272141137 
	0 
	
	0 
	0 
	88 0 0.001116071428571428509 0.002232142857142857019 0.004464285714285714038 0.008928571428571428076 0.01785714285714285615 0.0357142857142857123 0.05357142857142856845 0.07142857142857142461 0.08928571428571427382 0.1071428571428571369 0.1160714285714285754 0.125 0.1428571428571428492 0.1587301587301587213 0.1746031746031745935 0.1904761904761904656 0.2023809523809523836 0.2142857142857142738 0.238095238095238082 0.2619047619047618625 0.2857142857142856984 0.2976190476190476164 0.3095238095238095344 0.3154761904761904656 0.3214285714285713969 0.3333333333333333148 0.3452380952380952328 0.3571428571428570953 0.3690476190476190133 0.375 0.3779761904761904656 0.3809523809523809312 0.3869047619047618625 0.3928571428571428492 0.4047619047619047672 0.4166666666666666297 0.4285714285714285476 0.4444444444444444198 0.4603174603174602919 0.476190476190476164 0.4801587301587301182 0.4821428571428570953 0.4841269841269840724 0.4861111111111110494 0.4880952380952380265 0.4900793650793650036 0.4910714285714284921 0.4915674603174602364 0.491815476190476164 0.4920634920634920362 0.5158730158730158166 0.5238095238095237249 0.5357142857142855874 0.5476190476190475609 0.5595238095238095344 0.5714285714285713969 0.5952380952380951218 0.6190476190476189577 0.6349206349206348854 0.650793650793650702 0.6666666666666666297 0.6904761904761904656 0.7023809523809523281 0.7142857142857141906 0.7321428571428569843 0.749999999999999889 0.7678571428571427937 0.7857142857142855874 0.8095238095238094234 0.8214285714285713969 0.8333333333333332593 0.8452380952380951218 0.8571428571428570953 0.875 0.8928571428571427937 0.9107142857142856984 0.9285714285714286031 0.9464285714285713969 0.9642857142857143016 0.9732142857142858094 0.9821428571428572063 0.9910714285714286031 0.9955357142857143016 0.9977678571428572063 0.9994419642857143016 0.9997209821428572063 0.9998604910714286031 
	0 
	0 
	0 
	F 1 F 0 F 1 F 0 } I I I I #
tcoedge-coedge $-1 -1 $-1 $14 $14 $18 $19 reversed $9 $20 -6.283185307179586232 -0 #
tcoedge-coedge $-1 -1 $-1 $21 $22 $11 $16 reversed $12 $23 -6.283185307179586232 -0 #
tedge-edge $-1 -1 $-1 $24 0 $24 6.283185307179586232 $15 $25 forward @7 unknown 0.0007874044143961452316 #
pcurve $-1 -1 $-1 0 forward { exppc nurbs 2 periodic 5 
	0 2 1.570796326794896558 2 3.141592653589793116 2 4.712388980384689674 2 6.283185307179586232 2 
	0 500 1 
	-500 500 0.707106781186543798 
	-500 0 1 
	-500 -500 0.7071067811865463515 
	0 -500 1 
	500 -500 0.7071067811865463515 
	500 0 1 
	500 500 0.707106781186543798 
	0 500 1 
	0 
	plane 4781.79757191538738 3935.642797989800783 14000.00000000000182 1 -3.637978807091713027e-15 0 0 0 -1 forward_v I I I I 
	} 0 0 #
tcoedge-coedge $-1 -1 $-1 $22 $21 $14 $19 forward $12 $26 0 6.283185307179586232 #
tedge-edge $-1 -1 $-1 $27 0 $27 6.283185307179586232 $18 $28 forward @7 unknown 0.0007874044142818397481 #
pcurve $-1 -1 $-1 0 forward { exppc nurbs 2 periodic 5 
	-6.283185307179586232 2 -4.712388980384689674 2 -3.141592653589793116 2 -1.570796326794896558 2 0 2 
	0 500 1 
	500 500 0.707106781186543798 
	500 0 1 
	500 -500 0.7071067811865463515 
	0 -500 1 
	-500 -500 0.7071067811865463515 
	-500 0 1 
	-500 500 0.707106781186543798 
	0 500 1 
	0 
	plane 4531.79757191538738 3935.642797989801693 14000.00000000000182 -1 3.637978807091713027e-15 -0 0 0 -1 reverse_v I I I I 
	} 0 0 #
coedge $-1 -1 $-1 $18 $15 $22 $29 reversed $12 $30 #
coedge $-1 -1 $-1 $15 $18 $21 $29 forward $12 $31 #
pcurve $-1 -1 $-1 0 forward { exppc nubs 1 periodic 2 
	-6.283185307179586232 1 -0 1 
	1 1 
	0 1 
	0 
	spline forward { ref 0 } I I I I 
	} 0 0 #
tvertex-vertex $-1 -1 $-1 $16 $32 2.66775419464513545e-05 #
ellipse-curve $-1 -1 $-1 4781.79757191538738 3935.642797989800783 14000.00000000000182 1 -3.637978807091713027e-15 0 1.818989403545856476e-12 500 0 1 I I #
pcurve $-1 -1 $-1 0 forward { exppc nubs 1 periodic 2 
	0 1 6.283185307179586232 1 
	0 0 
	1 0 
	2.726396620975368931e-13 
	spline forward { ref 0 } I I I I 
	} 0 0 #
tvertex-vertex $-1 -1 $-1 $19 $33 2.667743620781799698e-05 #
ellipse-curve $-1 -1 $-1 4531.79757191538738 3935.642797989801693 14000.00000000000182 1 -3.637978807091713027e-15 0 1.818989403545856476e-12 500 0 1 I I #
edge $-1 -1 $-1 $27 0 $24 1 $22 $34 forward @7 tangent #
pcurve $-1 -1 $-1 -1 $34 0 0 #
pcurve $-1 -1 $-1 1 $34 1 0 #
point $-1 -1 $-1 4781.797571915389199 4435.642797989800783 14000.00000000000182 #
point $-1 -1 $-1 4531.797571915389199 4435.642797989801693 14000.00000000000182 #
intcurve-curve $-1 -1 $-1 forward { parcur full nubs 3 open 2 
	0 3 1 3 
	4531.797571692819474 4435.642811967393754 14000.00002272141137 
	4615.130905026152504 4435.642811967392845 14000.00002272141137 
	4698.464238347208266 4435.642811967393754 14000.00002272141137 
	4781.797571680541296 4435.642811967393754 14000.00002272141137 
	0 
	
	spline forward { ref 0 } I I I I 
	null_surface 
	nubs 1 open 2 
	0 1 1 1 
	0 0 
	0 1 
	
	nullbs 
	I I 
	0 
	0 
	0 
	surf1 } I I #
End-of-ACIS-data 