700 0 1 0           
4 LibG 20 ASM 224.0.1.65535 NT 24 Wed Jul 17 12:52:12 2019 
1000 9.999999999999999547e-07 1.000000000000000036e-10 
body $-1 -1 $-1 $1 $-1 $2 #
lump $-1 -1 $-1 $-1 $3 $0 #
transform $-1 -1 1 0 0 0 1 0 0 0 1 0 0 0 1 no_rotate no_reflect no_shear #
shell $-1 -1 $-1 $-1 $-1 $4 $-1 $1 #
face $-1 -1 $-1 $5 $6 $3 $-1 $7 forward single #
face $-1 -1 $-1 $8 $9 $3 $-1 $10 reversed single #
loop $-1 -1 $-1 $-1 $11 $4 #
plane-surface $-1 -1 $-1 1531.797571915386925 3935.642797989812607 14000.00000000000182 1 -3.637978807091713027e-15 0 0 0 -1 forward_v I I I I #
face $-1 -1 $-1 $-1 $12 $3 $-1 $13 forward single #
loop $-1 -1 $-1 $-1 $14 $5 #
plane-surface $-1 -1 $-1 1281.797571915386925 3935.642797989813516 14000.00000000000182 1 -3.637978807091713027e-15 0 0 0 -1 forward_v I I I I #
tcoedge-coedge $-1 -1 $-1 $11 $11 $15 $16 forward $6 $17 0 6.283185307179586232 #
loop $-1 -1 $-1 $-1 $18 $8 #
spline-surface $-1 -1 $-1 forward { exactsur full nubs 3 3 periodic open none none 84 2 
	0 3 0.002232142857142857019 1 0.004464285714285714038 1 0.008928571428571428076 1 0.01785714285714285615 1 
	0.0357142857142857123 1 0.05357142857142856845 1 0.0625 1 0.0669642857142857123 1 0.07142857142857142461 1 
	0.08928571428571427382 1 0.1071428571428571369 1 0.125 1 0.1428571428571428492 1 0.1587301587301587213 1 
	0.1746031746031745935 1 0.1825396825396825295 1 0.1904761904761904656 1 0.2023809523809523836 1 0.2142857142857142738 1 
	0.238095238095238082 1 0.2619047619047618625 1 0.2857142857142856984 1 0.3095238095238095344 1 0.3333333333333333148 1 
	0.3348214285714286031 1 0.336309523809523836 1 0.3377976190476190688 1 0.3392857142857143016 1 0.3422619047619047672 1 
	0.3452380952380952328 1 0.3571428571428570953 1 0.3690476190476190133 1 0.375 1 0.3779761904761904656 1 
	0.3809523809523809312 1 0.4047619047619047672 1 0.4166666666666666297 1 0.4285714285714285476 1 0.4444444444444444198 1 
	0.4603174603174602919 1 0.4682539682539682557 1 0.476190476190476164 1 0.4920634920634920362 1 0.5079365079365079083 1 
	0.5238095238095237249 1 0.5357142857142855874 1 0.5476190476190475609 1 0.5595238095238095344 1 0.5654761904761904656 1 
	0.5714285714285713969 1 0.5952380952380951218 1 0.6071428571428569843 1 0.6190476190476189577 1 0.6349206349206348854 1 
	0.650793650793650702 1 0.6666666666666666297 1 0.6785714285714286031 1 0.6904761904761904656 1 0.7023809523809523281 1 
	0.7142857142857141906 1 0.7232142857142855874 1 0.7321428571428569843 1 0.749999999999999889 1 0.7678571428571427937 1 
	0.7857142857142855874 1 0.7976190476190474499 1 0.8095238095238094234 1 0.8333333333333332593 1 0.8571428571428570953 1 
	0.875 1 0.8928571428571427937 1 0.9107142857142856984 1 0.9285714285714286031 1 0.9464285714285713969 1 
	0.9642857142857143016 1 0.9821428571428572063 1 0.9910714285714286031 1 0.9955357142857143016 1 0.9977678571428572063 1 
	0.9988839285714286031 1 0.9994419642857143016 1 0.9997209821428572063 1 1 3 
	0 3 1 3 
	1281.797571914691616 4435.642858275437902 13999.99990600620004 
	1281.797571914692298 4435.642858250856989 14002.33740053883776 
	1281.797571914694572 4435.610071871974469 14007.01238927433951 
	1281.797571914696846 4435.413390111073568 14016.36052911405204 
	1281.797571914706168 4434.725042314219536 14032.71011272077703 
	1281.797571914737773 4431.973755216232348 14065.33210190314458 
	1281.797571914827813 4424.130870934432096 14111.49410912614076 
	1281.797571914906257 4411.168101111747092 14156.48752435978531 
	1281.797571914931041 4399.492801952453192 14187.07267307403527 
	1281.797571914936498 4392.094310411356673 14204.24879761334705 
	1281.797571914944911 4380.278530502957437 14229.69169700608654 
	1281.797571915005165 4359.894198199349375 14266.57468064215755 
	1281.797571915048366 4327.379574439522003 14312.39951100781582 
	1281.797571915099752 4289.938840914587672 14354.29591118704593 
	1281.797571915137951 4249.594076936037709 14390.34979363745697 
	1281.797571915174331 4207.366026587185843 14420.70971711352649 
	1281.797571915178651 4171.333122377454856 14441.513186311764 
	1281.797571915184562 4141.371511045540501 14455.94149843740888 
	1281.797571915188428 4114.558647644106713 14467.24450234652068 
	1281.797571915191838 4083.157785156795853 14478.23160197772995 
	1281.797571915196386 4034.956989297375458 14491.14848941097443 
	1281.797571915197977 3973.147696403249483 14500.46614815936664 
	1281.797571915197295 3898.138068815436327 14500.46537003537378 
	1281.797571915188428 3823.966555140948458 14489.28605792759117 
	1281.797571915179105 3752.289503231333583 14467.17644206878504 
	1281.797571915160233 3705.827566895286964 14444.80153263667307 
	1281.797571915159097 3681.601300049102065 14430.66277500127762 
	1281.797571915158869 3677.585767795574611 14428.26872077983353 
	1281.797571915158869 3673.59280903861827 14425.83720161281417 
	1281.797571915159097 3668.299399861013626 14422.54555597641411 
	1281.797571915159551 3661.740789454130663 14418.33845087770715 
	1281.797571915161825 3646.191637002503739 14407.9488987235618 
	1281.797571915173648 3623.606872360639954 14391.28068919305952 
	1281.797571915185245 3599.967017952285914 14370.93680529198537 
	1281.797571915188882 3584.251834375369526 14355.79862209042039 
	1281.797571915189337 3575.51906311953735 14346.9009147543602 
	1281.797571915191611 3554.106399270229758 14324.25270116975298 
	1281.79757191522026 3528.774542147182729 14292.48660284367179 
	1281.797571915226854 3502.226397547879969 14250.23305718866504 
	1281.797571915242997 3482.794648994585714 14213.46793530682589 
	1281.797571915254366 3465.016863477185325 14171.29382405522847 
	1281.797571915264598 3452.753190603631992 14131.5351158244448 
	1281.797571915268918 3445.35360392902885 14099.11409924938926 
	1281.797571915272783 3439.578702407321998 14066.36466496098728 
	1281.797571915285971 3435.435742330699213 14024.96428203196228 
	1281.797571915291201 3435.435959088165419 13975.03567404083515 
	1281.797571915295748 3439.992816518492418 13929.49524470418874 
	1281.797571915301432 3447.724117989168917 13888.63569487808127 
	1281.797571915304388 3457.410619148010937 13852.48489963291104 
	1281.797571915307344 3467.711426160655719 13823.04662968953926 
	1281.797571915308026 3477.254923601171868 13800.0074125623014 
	1281.797571915308708 3492.850963575002879 13766.00722602916539 
	1281.797571915311437 3514.728925990762036 13728.11429377719469 
	1281.797571915311664 3544.3627762282822 13687.96452219839193 
	1281.797571915312346 3571.487255371734591 13656.44425061396578 
	1281.797571915310527 3604.251001508087029 13624.48740745970099 
	1281.797571915309618 3643.286815202165599 13593.35757478002051 
	1281.797571915307572 3681.7329509877286 13568.52630365550067 
	1281.797571915303934 3718.49861124740346 13549.09541073167748 
	1281.797571915302115 3752.801856672607755 13534.12886856847399 
	1281.797571915296658 3788.127734291204888 13521.76789987841948 
	1281.79757191529211 3821.265963519488196 13512.88849921905421 
	1281.797571915288245 3851.845753286131639 13506.80599407842601 
	1281.797571915284607 3888.892965342272419 13501.57541972517174 
	1281.797571915267781 3935.642769013180441 13498.94977821597058 
	1281.797571915252092 3991.742596006080021 13502.10041224781889 
	1281.797571915232766 4040.982006385211662 13510.46652555190667 
	1281.797571915219805 4083.157708028007619 13521.76833753369829 
	1281.797571915212984 4130.259353430102237 13538.24839281601271 
	1281.797571915196386 4186.577619256171602 13565.36801161185394 
	1281.797571915161598 4243.387826526510253 13604.10245739004495 
	1281.797571915132494 4289.938801300098021 13645.70391509386536 
	1281.797571915072695 4327.379814830095711 13687.60003442890411 
	1281.797571915020171 4359.894216005599446 13733.42506721462996 
	1281.797571914958326 4387.073568110507949 13782.60229192138831 
	1281.797571914886703 4408.575790250916725 13834.51347936377169 
	1281.797571914816444 4424.130791139917164 13888.50571928395948 
	1281.79757191473027 4431.973790982958235 13934.66769326876965 
	1281.797571914702985 4434.725039276353527 13967.28969999888977 
	1281.797571914694117 4435.413392557999941 13983.63928216593376 
	1281.797571914692753 4435.58548677942872 13991.81890521901005 
	1281.797571914691389 4435.628515859801155 13995.90931926684607 
	1281.797571914691844 4435.639272554209128 13997.95460188693869 
	1281.797571914691389 4435.642345998253404 13999.12334555130838 
	1281.797571914691389 4435.642858278510175 13999.70771918962055 
	1281.797571914691616 4435.642858275437902 13999.99990600620004 
	1365.130905248024874 4435.642858275436993 13999.99990600620004 
	1365.130905248025556 4435.642858250856079 14002.33740053883776 
	1365.13090524802783 4435.61007187197356 14007.01238927433951 
	1365.130905248030103 4435.413390111072658 14016.36052911405204 
	1365.130905248039426 4434.725042314218626 14032.71011272077703 
	1365.130905248071031 4431.973755216231439 14065.33210190314458 
	1365.130905248161071 4424.130870934431186 14111.49410912614076 
	1365.130905248239287 4411.168101111746182 14156.48752435978531 
	1365.130905248264298 4399.492801952452282 14187.07267307403527 
	1365.130905248269755 4392.094310411355764 14204.24879761334705 
	1365.130905248278168 4380.278530502956528 14229.69169700608654 
	1365.130905248338422 4359.894198199348466 14266.57468064215755 
	1365.130905248381623 4327.379574439521093 14312.39951100781582 
	1365.13090524843301 4289.938840914586763 14354.29591118704593 
	1365.130905248471208 4249.594076936036799 14390.34979363745697 
	1365.130905248507588 4207.366026587184933 14420.70971711352649 
	1365.130905248511908 4171.333122377453947 14441.513186311764 
	1365.13090524851782 4141.371511045539592 14455.94149843740888 
	1365.130905248521685 4114.558647644105804 14467.24450234652068 
	1365.130905248524869 4083.157785156795399 14478.23160197772995 
	1365.130905248529871 4034.956989297375003 14491.14848941097443 
	1365.130905248531008 3973.147696403249029 14500.46614815936664 
	1365.13090524853078 3898.138068815435872 14500.46537003537378 
	1365.130905248521685 3823.966555140948003 14489.28605792759117 
	1365.130905248512363 3752.289503231333128 14467.17644206878504 
	1365.130905248493491 3705.827566895286509 14444.80153263667307 
	1365.130905248492354 3681.60130004910161 14430.66277500127762 
	1365.130905248492127 3677.585767795574156 14428.26872077983353 
	1365.130905248492127 3673.592809038617816 14425.83720161281417 
	1365.130905248492354 3668.299399861013171 14422.54555597641411 
	1365.130905248492809 3661.740789454130208 14418.33845087770715 
	1365.130905248495083 3646.191637002503285 14407.9488987235618 
	1365.130905248506906 3623.6068723606395 14391.28068919305952 
	1365.130905248518502 3599.96701795228546 14370.93680529198537 
	1365.13090524852214 3584.251834375369071 14355.79862209042039 
	1365.130905248522595 3575.519063119536895 14346.9009147543602 
	1365.130905248524869 3554.106399270229304 14324.25270116975298 
	1365.13090524855329 3528.774542147182274 14292.48660284367179 
	1365.130905248560339 3502.226397547879515 14250.23305718866504 
	1365.130905248576255 3482.794648994585259 14213.46793530682589 
	1365.130905248587624 3465.01686347718487 14171.29382405522847 
	1365.130905248597855 3452.753190603631538 14131.5351158244448 
	1365.130905248602176 3445.353603929028395 14099.11409924938926 
	1365.130905248606268 3439.578702407321543 14066.36466496098728 
	1365.130905248619001 3435.435742330698758 14024.96428203196228 
	1365.130905248624458 3435.435959088164964 13975.03567404083515 
	1365.130905248629006 3439.992816518491964 13929.49524470418874 
	1365.13090524863469 3447.724117989168462 13888.63569487808127 
	1365.130905248637646 3457.410619148010483 13852.48489963291104 
	1365.130905248640602 3467.711426160655265 13823.04662968953926 
	1365.130905248641284 3477.254923601171413 13800.0074125623014 
	1365.130905248641966 3492.850963575002424 13766.00722602916539 
	1365.130905248644694 3514.728925990761581 13728.11429377719469 
	1365.130905248644922 3544.362776228281746 13687.96452219839193 
	1365.130905248645377 3571.487255371734136 13656.44425061396578 
	1365.130905248644012 3604.251001508086574 13624.48740745970099 
	1365.130905248642648 3643.286815202165144 13593.35757478002051 
	1365.130905248641056 3681.732950987728145 13568.52630365550067 
	1365.130905248636964 3718.498611247403005 13549.09541073167748 
	1365.130905248635599 3752.8018566726073 13534.12886856847399 
	1365.130905248629915 3788.127734291204433 13521.76789987841948 
	1365.130905248625368 3821.265963519487741 13512.88849921905421 
	1365.130905248621502 3851.845753286131185 13506.80599407842601 
	1365.130905248617864 3888.892965342271964 13501.57541972517174 
	1365.130905248601039 3935.642769013179986 13498.94977821597058 
	1365.13090524858535 3991.742596006079566 13502.10041224781889 
	1365.130905248566023 4040.982006385211207 13510.46652555190667 
	1365.130905248553063 4083.157708028007164 13521.76833753369829 
	1365.130905248546242 4130.259353430101328 13538.24839281601271 
	1365.130905248529643 4186.577619256170692 13565.36801161185394 
	1365.130905248494855 4243.387826526509343 13604.10245739004495 
	1365.130905248465751 4289.938801300097111 13645.70391509386536 
	1365.130905248405952 4327.379814830094801 13687.60003442890411 
	1365.130905248353429 4359.894216005598537 13733.42506721462996 
	1365.130905248291583 4387.07356811050704 13782.60229192138831 
	1365.13090524821996 4408.575790250915816 13834.51347936377169 
	1365.130905248149702 4424.130791139916255 13888.50571928395948 
	1365.130905248063755 4431.973790982957325 13934.66769326876965 
	1365.130905248036242 4434.725039276352618 13967.28969999888977 
	1365.130905248027375 4435.413392557999032 13983.63928216593376 
	1365.130905248026011 4435.585486779427811 13991.81890521901005 
	1365.130905248024646 4435.628515859800245 13995.90931926684607 
	1365.130905248025101 4435.639272554208219 13997.95460188693869 
	1365.130905248024646 4435.642345998252495 13999.12334555130838 
	1365.130905248024646 4435.642858278509266 13999.70771918962055 
	1365.130905248024874 4435.642858275436993 13999.99990600620004 
	1448.464238581221935 4435.642858275436993 13999.99990600620004 
	1448.464238581223071 4435.642858250856079 14002.33740053883776 
	1448.464238581225572 4435.61007187197356 14007.01238927433951 
	1448.464238581228301 4435.413390111072658 14016.36052911405204 
	1448.464238581239442 4434.725042314217717 14032.71011272077703 
	1448.464238581277414 4431.973755216230529 14065.33210190314458 
	1448.464238581385416 4424.130870934429367 14111.49410912614076 
	1448.464238581479094 4411.168101111745273 14156.48752435978531 
	1448.464238581508653 4399.492801952450463 14187.07267307403527 
	1448.464238581515247 4392.094310411354854 14204.24879761334705 
	1448.464238581525024 4380.278530502955618 14229.69169700608654 
	1448.464238581597101 4359.894198199347557 14266.57468064215755 
	1448.464238581648488 4327.379574439520184 14312.39951100781582 
	1448.464238581709878 4289.938840914586763 14354.29591118704593 
	1448.464238581755581 4249.594076936036799 14390.34979363745697 
	1448.464238581799009 4207.366026587184933 14420.70971711352649 
	1448.464238581804238 4171.333122377453037 14441.513186311764 
	1448.464238581811287 4141.371511045539592 14455.94149843740888 
	1448.464238581816062 4114.558647644105804 14467.24450234652068 
	1448.464238581820382 4083.157785156795853 14478.23160197772995 
	1448.464238581825612 4034.956989297375458 14491.14848941097443 
	1448.464238581827658 3973.147696403249029 14500.46614815936664 
	1448.464238581826976 3898.138068815436327 14500.46537003537378 
	1448.464238581816971 3823.966555140948913 14489.28605792759117 
	1448.464238581805148 3752.289503231334038 14467.17644206878504 
	1448.464238581783547 3705.827566895287418 14444.80153263667307 
	1448.464238581781501 3681.60130004910252 14430.66277500127762 
	1448.464238581781501 3677.585767795575066 14428.26872077983353 
	1448.464238581781274 3673.592809038618725 14425.83720161281417 
	1448.464238581781728 3668.299399861014081 14422.54555597641411 
	1448.464238581782411 3661.740789454131118 14418.33845087770715 
	1448.464238581784912 3646.191637002504194 14407.9488987235618 
	1448.464238581799009 3623.606872360640409 14391.28068919305952 
	1448.464238581812879 3599.967017952286369 14370.93680529198537 
	1448.464238581817654 3584.251834375369981 14355.79862209042039 
	1448.464238581817881 3575.519063119537805 14346.9009147543602 
	1448.464238581820837 3554.106399270230213 14324.25270116975298 
	1448.46423858185517 3528.774542147183183 14292.48660284367179 
	1448.464238581862901 3502.226397547880424 14250.23305718866504 
	1448.464238581882 3482.794648994586169 14213.46793530682589 
	1448.464238581895415 3465.01686347718578 14171.29382405522847 
	1448.464238581907921 3452.753190603632447 14131.5351158244448 
	1448.46423858191315 3445.353603929029305 14099.11409924938926 
	1448.464238581917471 3439.578702407322453 14066.36466496098728 
	1448.464238581933387 3435.435742330699213 14024.96428203196228 
	1448.464238581939526 3435.435959088165419 13975.03567404083515 
	1448.46423858194521 3439.992816518491964 13929.49524470418874 
	1448.464238581951804 3447.724117989168462 13888.63569487808127 
	1448.464238581955442 3457.410619148010028 13852.48489963291104 
	1448.46423858195908 3467.711426160655265 13823.04662968953926 
	1448.464238581959762 3477.254923601171413 13800.0074125623014 
	1448.464238581960444 3492.850963575002879 13766.00722602916539 
	1448.4642385819634 3514.728925990761127 13728.11429377719469 
	1448.464238581963855 3544.362776228281291 13687.96452219839193 
	1448.464238581964764 3571.487255371733681 13656.44425061396578 
	1448.464238581962491 3604.251001508086119 13624.48740745970099 
	1448.464238581961581 3643.286815202164689 13593.35757478002051 
	1448.464238581958853 3681.732950987727691 13568.52630365550067 
	1448.46423858195476 3718.498611247402096 13549.09541073167748 
	1448.464238581952259 3752.801856672606846 13534.12886856847399 
	1448.464238581945665 3788.127734291203524 13521.76789987841948 
	1448.464238581940663 3821.265963519487286 13512.88849921905421 
	1448.46423858193566 3851.845753286130275 13506.80599407842601 
	1448.46423858193134 3888.892965342271509 13501.57541972517174 
	1448.464238581911331 3935.642769013179986 13498.94977821597058 
	1448.464238581892687 3991.742596006078657 13502.10041224781889 
	1448.464238581869267 4040.982006385210752 13510.46652555190667 
	1448.464238581853579 4083.157708028007164 13521.76833753369829 
	1448.464238581845621 4130.259353430101328 13538.24839281601271 
	1448.464238581825612 4186.577619256171602 13565.36801161185394 
	1448.464238581784002 4243.387826526509343 13604.10245739004495 
	1448.464238581749214 4289.938801300096202 13645.70391509386536 
	1448.464238581677591 4327.379814830094801 13687.60003442890411 
	1448.464238581615064 4359.894216005597627 13733.42506721462996 
	1448.464238581540712 4387.07356811050613 13782.60229192138831 
	1448.464238581454993 4408.575790250914906 13834.51347936377169 
	1448.464238581370864 4424.130791139914436 13888.50571928395948 
	1448.464238581268091 4431.973790982956416 13934.66769326876965 
	1448.464238581235804 4434.725039276351708 13967.28969999888977 
	1448.464238581225118 4435.413392557999032 13983.63928216593376 
	1448.464238581223526 4435.585486779426901 13991.81890521901005 
	1448.464238581221707 4435.628515859799336 13995.90931926684607 
	1448.464238581222389 4435.639272554207309 13997.95460188693869 
	1448.464238581221707 4435.642345998252495 13999.12334555130838 
	1448.464238581221707 4435.642858278509266 13999.70771918962055 
	1448.464238581221935 4435.642858275436993 13999.99990600620004 
	1531.797571914555192 4435.642858275436993 13999.99990600620004 
	1531.797571914556329 4435.642858250856079 14002.33740053883776 
	1531.79757191455883 4435.61007187197356 14007.01238927433951 
	1531.797571914561559 4435.413390111072658 14016.36052911405204 
	1531.7975719145727 4434.725042314217717 14032.71011272077703 
	1531.797571914610671 4431.973755216230529 14065.33210190314458 
	1531.797571914718674 4424.130870934429367 14111.49410912614076 
	1531.797571914812352 4411.168101111745273 14156.48752435978531 
	1531.79757191484191 4399.492801952450463 14187.07267307403527 
	1531.797571914848504 4392.094310411354854 14204.24879761334705 
	1531.797571914858281 4380.278530502955618 14229.69169700608654 
	1531.797571914930359 4359.894198199347557 14266.57468064215755 
	1531.797571914981745 4327.379574439520184 14312.39951100781582 
	1531.797571915043136 4289.938840914586763 14354.29591118704593 
	1531.797571915088838 4249.594076936036799 14390.34979363745697 
	1531.797571915132266 4207.366026587184933 14420.70971711352649 
	1531.797571915137496 4171.333122377453037 14441.513186311764 
	1531.797571915144545 4141.371511045539592 14455.94149843740888 
	1531.797571915149319 4114.558647644105804 14467.24450234652068 
	1531.797571915153412 4083.157785156795399 14478.23160197772995 
	1531.797571915159097 4034.956989297375003 14491.14848941097443 
	1531.797571915160688 3973.147696403248574 14500.46614815936664 
	1531.797571915160461 3898.138068815435872 14500.46537003537378 
	1531.797571915150002 3823.966555140948458 14489.28605792759117 
	1531.797571915138406 3752.289503231333583 14467.17644206878504 
	1531.797571915116805 3705.827566895286964 14444.80153263667307 
	1531.797571915114759 3681.601300049102065 14430.66277500127762 
	1531.797571915114759 3677.585767795574611 14428.26872077983353 
	1531.797571915114531 3673.59280903861827 14425.83720161281417 
	1531.797571915114986 3668.299399861013626 14422.54555597641411 
	1531.797571915115668 3661.740789454130663 14418.33845087770715 
	1531.797571915118169 3646.191637002503739 14407.9488987235618 
	1531.797571915132266 3623.606872360639954 14391.28068919305952 
	1531.797571915146136 3599.967017952285914 14370.93680529198537 
	1531.797571915150911 3584.251834375369526 14355.79862209042039 
	1531.797571915151138 3575.51906311953735 14346.9009147543602 
	1531.797571915154094 3554.106399270229758 14324.25270116975298 
	1531.7975719151882 3528.774542147182729 14292.48660284367179 
	1531.797571915196158 3502.226397547879969 14250.23305718866504 
	1531.797571915215258 3482.794648994585714 14213.46793530682589 
	1531.797571915228673 3465.016863477185325 14171.29382405522847 
	1531.797571915241178 3452.753190603631992 14131.5351158244448 
	1531.797571915246408 3445.35360392902885 14099.11409924938926 
	1531.797571915250955 3439.578702407321998 14066.36466496098728 
	1531.797571915266644 3435.435742330698758 14024.96428203196228 
	1531.797571915272783 3435.435959088164964 13975.03567404083515 
	1531.797571915278468 3439.992816518491509 13929.49524470418874 
	1531.797571915285062 3447.724117989168008 13888.63569487808127 
	1531.7975719152887 3457.410619148009573 13852.48489963291104 
	1531.797571915292338 3467.71142616065481 13823.04662968953926 
	1531.79757191529302 3477.254923601170958 13800.0074125623014 
	1531.797571915293702 3492.850963575002424 13766.00722602916539 
	1531.797571915296658 3514.728925990760672 13728.11429377719469 
	1531.797571915297112 3544.362776228280836 13687.96452219839193 
	1531.797571915297794 3571.487255371733227 13656.44425061396578 
	1531.797571915295975 3604.251001508085665 13624.48740745970099 
	1531.797571915294611 3643.286815202164235 13593.35757478002051 
	1531.797571915292338 3681.732950987727236 13568.52630365550067 
	1531.79757191528779 3718.498611247401641 13549.09541073167748 
	1531.797571915285744 3752.801856672606391 13534.12886856847399 
	1531.797571915278922 3788.127734291203069 13521.76789987841948 
	1531.79757191527392 3821.265963519486832 13512.88849921905421 
	1531.797571915268918 3851.84575328612982 13506.80599407842601 
	1531.797571915264598 3888.892965342271054 13501.57541972517174 
	1531.797571915244589 3935.642769013179532 13498.94977821597058 
	1531.797571915225944 3991.742596006078202 13502.10041224781889 
	1531.797571915202525 4040.982006385210298 13510.46652555190667 
	1531.797571915186836 4083.157708028006709 13521.76833753369829 
	1531.797571915178878 4130.259353430101328 13538.24839281601271 
	1531.797571915158869 4186.577619256171602 13565.36801161185394 
	1531.79757191511726 4243.387826526509343 13604.10245739004495 
	1531.797571915082472 4289.938801300096202 13645.70391509386536 
	1531.797571915010849 4327.379814830094801 13687.60003442890411 
	1531.797571914948321 4359.894216005597627 13733.42506721462996 
	1531.79757191487397 4387.07356811050613 13782.60229192138831 
	1531.79757191478825 4408.575790250914906 13834.51347936377169 
	1531.797571914704122 4424.130791139914436 13888.50571928395948 
	1531.797571914601349 4431.973790982956416 13934.66769326876965 
	1531.797571914569062 4434.725039276351708 13967.28969999888977 
	1531.797571914558375 4435.413392557999032 13983.63928216593376 
	1531.797571914556784 4435.585486779426901 13991.81890521901005 
	1531.797571914554965 4435.628515859799336 13995.90931926684607 
	1531.797571914555647 4435.639272554207309 13997.95460188693869 
	1531.797571914554965 4435.642345998252495 13999.12334555130838 
	1531.797571914554965 4435.642858278509266 13999.70771918962055 
	1531.797571914555192 4435.642858275436993 13999.99990600620004 
	0 
	
	0 
	0 
	83 0 0.002232142857142857019 0.004464285714285714038 0.008928571428571428076 0.01785714285714285615 0.0357142857142857123 0.05357142857142856845 0.0625 0.0669642857142857123 0.07142857142857142461 0.08928571428571427382 0.1071428571428571369 0.125 0.1428571428571428492 0.1587301587301587213 0.1746031746031745935 0.1825396825396825295 0.1904761904761904656 0.2023809523809523836 0.2142857142857142738 0.238095238095238082 0.2619047619047618625 0.2857142857142856984 0.3095238095238095344 0.3333333333333333148 0.3348214285714286031 0.336309523809523836 0.3377976190476190688 0.3392857142857143016 0.3422619047619047672 0.3452380952380952328 0.3571428571428570953 0.3690476190476190133 0.375 0.3779761904761904656 0.3809523809523809312 0.4047619047619047672 0.4166666666666666297 0.4285714285714285476 0.4444444444444444198 0.4603174603174602919 0.4682539682539682557 0.476190476190476164 0.4920634920634920362 0.5079365079365079083 0.5238095238095237249 0.5357142857142855874 0.5476190476190475609 0.5595238095238095344 0.5654761904761904656 0.5714285714285713969 0.5952380952380951218 0.6071428571428569843 0.6190476190476189577 0.6349206349206348854 0.650793650793650702 0.6666666666666666297 0.6785714285714286031 0.6904761904761904656 0.7023809523809523281 0.7142857142857141906 0.7232142857142855874 0.7321428571428569843 0.749999999999999889 0.7678571428571427937 0.7857142857142855874 0.7976190476190474499 0.8095238095238094234 0.8333333333333332593 0.8571428571428570953 0.875 0.8928571428571427937 0.9107142857142856984 0.9285714285714286031 0.9464285714285713969 0.9642857142857143016 0.9821428571428572063 0.9910714285714286031 0.9955357142857143016 0.9977678571428572063 0.9988839285714286031 0.9994419642857143016 0.9997209821428572063 
	0 
	0 
	0 
	F 1 F 0 F 1 F 0 } I I I I #
tcoedge-coedge $-1 -1 $-1 $14 $14 $18 $19 reversed $9 $20 -6.283185307179586232 -0 #
tcoedge-coedge $-1 -1 $-1 $21 $22 $11 $16 reversed $12 $23 -6.283185307179586232 -0 #
tedge-edge $-1 -1 $-1 $24 0 $24 6.283185307179586232 $15 $25 forward @7 unknown 0.0006541832367188421407 #
pcurve $-1 -1 $-1 0 forward { exppc nurbs 2 periodic 5 
	0 2 1.570796326794896558 2 3.141592653589793116 2 4.712388980384689674 2 6.283185307179586232 2 
	0 500 1 
	-500 500 0.707106781186543798 
	-500 0 1 
	-500 -500 0.7071067811865463515 
	0 -500 1 
	500 -500 0.7071067811865463515 
	500 0 1 
	500 500 0.707106781186543798 
	0 500 1 
	0 
	plane 1531.797571915386925 3935.642797989812607 14000.00000000000182 1 -3.637978807091713027e-15 0 0 0 -1 forward_v I I I I 
	} 0 0 #
tcoedge-coedge $-1 -1 $-1 $22 $21 $14 $19 forward $12 $26 0 6.283185307179586232 #
tedge-edge $-1 -1 $-1 $27 0 $27 6.283185307179586232 $18 $28 forward @7 unknown 0.000654183235144207946 #
pcurve $-1 -1 $-1 0 forward { exppc nurbs 2 periodic 5 
	-6.283185307179586232 2 -4.712388980384689674 2 -3.141592653589793116 2 -1.570796326794896558 2 0 2 
	0 500 1 
	500 500 0.707106781186543798 
	500 0 1 
	500 -500 0.7071067811865463515 
	0 -500 1 
	-500 -500 0.7071067811865463515 
	-500 0 1 
	-500 500 0.707106781186543798 
	0 500 1 
	0 
	plane 1281.797571915386925 3935.642797989813516 14000.00000000000182 -1 3.637978807091713027e-15 -0 0 0 -1 reverse_v I I I I 
	} 0 0 #
coedge $-1 -1 $-1 $18 $15 $22 $29 reversed $12 $30 #
coedge $-1 -1 $-1 $15 $18 $21 $29 forward $12 $31 #
pcurve $-1 -1 $-1 0 forward { exppc nubs 1 periodic 2 
	-6.283185307179586232 1 -0 1 
	1 1 
	0 1 
	0 
	spline forward { ref 0 } I I I I 
	} 0 0 #
tvertex-vertex $-1 -1 $-1 $16 $32 0.0001116655430978802214 #
ellipse-curve $-1 -1 $-1 1531.797571915386925 3935.642797989812607 14000.00000000000182 1 -3.637978807091713027e-15 0 1.818989403545856476e-12 500 0 1 I I #
pcurve $-1 -1 $-1 0 forward { exppc nubs 1 periodic 2 
	0 1 6.283185307179586232 1 
	0 0 
	1 0 
	4.411402399551012014e-13 
	spline forward { ref 0 } I I I I 
	} 0 0 #
tvertex-vertex $-1 -1 $-1 $19 $33 0.0001116655430969451919 #
ellipse-curve $-1 -1 $-1 1281.797571915386925 3935.642797989813516 14000.00000000000182 1 -3.637978807091713027e-15 0 1.818989403545856476e-12 500 0 1 I I #
edge $-1 -1 $-1 $27 0 $24 1 $22 $34 forward @7 tangent #
pcurve $-1 -1 $-1 -1 $34 0 0 #
pcurve $-1 -1 $-1 1 $34 1 0 #
point $-1 -1 $-1 1531.797571915388744 4435.642797989812607 14000.00000000000182 #
point $-1 -1 $-1 1281.797571915388744 4435.642797989813516 14000.00000000000182 #
intcurve-curve $-1 -1 $-1 forward { parcur full nubs 3 open 2 
	0 3 1 3 
	1281.797571914691616 4435.642858275437902 13999.99990600620004 
	1365.130905248024874 4435.642858275436993 13999.99990600620004 
	1448.464238581221935 4435.642858275436993 13999.99990600620004 
	1531.797571914555192 4435.642858275436993 13999.99990600620004 
	0 
	
	spline forward { ref 0 } I I I I 
	null_surface 
	nubs 1 open 2 
	0 1 1 1 
	0 0 
	0 1 
	
	nullbs 
	I I 
	0 
	0 
	0 
	surf1 } F 0 F 1 #
End-of-ACIS-data 