700 0 1 0           
4 LibG 20 ASM 224.0.1.65535 NT 24 Wed Jul 17 12:52:14 2019 
1000 9.999999999999999547e-07 1.000000000000000036e-10 
body $-1 -1 $-1 $1 $-1 $2 #
lump $-1 -1 $-1 $-1 $3 $0 #
transform $-1 -1 1 0 0 0 1 0 0 0 1 0 0 0 1 no_rotate no_reflect no_shear #
shell $-1 -1 $-1 $-1 $-1 $4 $-1 $1 #
face $-1 -1 $-1 $5 $6 $3 $-1 $7 forward single #
face $-1 -1 $-1 $8 $9 $3 $-1 $10 reversed single #
loop $-1 -1 $-1 $-1 $11 $4 #
plane-surface $-1 -1 $-1 13281.79757191538738 3935.642797989769861 14000.00000000000182 1 -3.637978807091713027e-15 0 0 0 -1 forward_v I I I I #
face $-1 -1 $-1 $-1 $12 $3 $-1 $13 forward single #
loop $-1 -1 $-1 $-1 $14 $5 #
plane-surface $-1 -1 $-1 13031.79757191538738 3935.64279798977077 14000.00000000000182 1 -3.637978807091713027e-15 0 0 0 -1 forward_v I I I I #
tcoedge-coedge $-1 -1 $-1 $11 $11 $15 $16 forward $6 $17 0 6.283185307179586232 #
loop $-1 -1 $-1 $-1 $18 $8 #
spline-surface $-1 -1 $-1 forward { exactsur full nubs 3 3 periodic open none none 84 2 
	0 3 0.001116071428571428509 1 0.002232142857142857019 1 0.004464285714285714038 1 0.008928571428571428076 1 
	0.01785714285714285615 1 0.02678571428571428423 1 0.0357142857142857123 1 0.05357142857142856845 1 0.07142857142857142461 1 
	0.08928571428571427382 1 0.1071428571428571369 1 0.125 1 0.1428571428571428492 1 0.1587301587301587213 1 
	0.1825396825396825295 1 0.1904761904761904656 1 0.2023809523809523836 1 0.2142857142857142738 1 0.238095238095238082 1 
	0.2619047619047618625 1 0.2857142857142856984 1 0.2976190476190476164 1 0.3095238095238095344 1 0.3214285714285713969 1 
	0.3333333333333333148 1 0.3392857142857143016 1 0.3452380952380952328 1 0.3571428571428570953 1 0.3630952380952380265 1 
	0.3690476190476190133 1 0.3809523809523809312 1 0.3928571428571428492 1 0.4047619047619047672 1 0.4166666666666666297 1 
	0.4285714285714285476 1 0.4444444444444444198 1 0.4603174603174602919 1 0.476190476190476164 1 0.4781746031746031411 1 
	0.4801587301587301182 1 0.4821428571428570953 1 0.4841269841269840724 1 0.4920634920634920362 1 0.5 1 
	0.5079365079365079083 1 0.5158730158730158166 1 0.5198412698412697708 1 0.5238095238095237249 1 0.5476190476190475609 1 
	0.5714285714285713969 1 0.5952380952380951218 1 0.6190476190476189577 1 0.6269841269841269771 1 0.6349206349206348854 1 
	0.650793650793650702 1 0.6666666666666666297 1 0.6904761904761904656 1 0.7142857142857141906 1 0.7321428571428569843 1 
	0.749999999999999889 1 0.7678571428571427937 1 0.7857142857142855874 1 0.8095238095238094234 1 0.8214285714285713969 1 
	0.8333333333333332593 1 0.8452380952380951218 1 0.8571428571428570953 1 0.875 1 0.8928571428571427937 1 
	0.9107142857142856984 1 0.9285714285714286031 1 0.9464285714285713969 1 0.9642857142857143016 1 0.9732142857142858094 1 
	0.9821428571428572063 1 0.9910714285714286031 1 0.9955357142857143016 1 0.9977678571428572063 1 0.9988839285714286031 1 
	0.9994419642857143016 1 0.9997209821428572063 1 0.9998604910714286031 1 1 3 
	0 3 1 3 
	13031.7975719154565 4435.642804474736295 14000.00004258397894 
	13031.79757191546014 4435.642804473799515 14001.16878983941751 
	13031.79757191545832 4435.634608578224288 14003.50628425622381 
	13031.79757191545832 4435.585434378488571 14008.18104321999454 
	13031.79757191546014 4435.413330513430083 14016.36066448212478 
	13031.79757191545468 4434.72502714327311 14032.7102489424833 
	13031.7975719154565 4432.759643820551901 14056.0116511725646 
	13031.79757191545286 4428.836865601293539 14083.79705980979634 
	13031.79757191545468 4421.537978489520356 14120.49284655901647 
	13031.79757191543285 4408.575840591345695 14165.48641500034137 
	13031.79757191542558 4387.073363963791053 14217.39745652360398 
	13031.79757191541648 4359.894193157413611 14266.57481274733982 
	13031.79757191540739 4327.379472878768865 14312.39940598895919 
	13031.79757191539466 4289.93902419177175 14354.29630370751147 
	13031.79757191539284 4249.593979031471463 14390.34957691088312 
	13031.79757191538738 4200.610234491307892 14425.56876490269133 
	13031.79757191538738 4156.693794512435488 14449.48396840010355 
	13031.79757191538374 4114.558374502964398 14467.24403055432958 
	13031.79757191538556 4083.157844709794972 14478.23175308284408 
	13031.7975719153801 4034.956831193339895 14491.14830038240507 
	13031.79757191537647 3973.147712663373113 14500.46607605753343 
	13031.79757191537101 3898.137886824421003 14500.46555746715421 
	13031.79757191536373 3836.328577471202152 14491.14874644794691 
	13031.79757191536009 3788.127689138870664 14478.23202495419355 
	13031.79757191535646 3752.801750783763509 14465.87147816289325 
	13031.79757191534918 3718.498442742236421 14450.90482899352719 
	13031.79757191534918 3690.924293518465674 14436.33152421515661 
	13031.79757191534918 3669.564647242911178 14423.46094033271402 
	13031.797571915351 3648.70107107704689 14409.8008915306491 
	13031.797571915351 3628.625738270606689 14394.98469070950705 
	13031.79757191535464 3609.422924760192018 14379.07437689473772 
	13031.79757191535646 3590.82830675695277 14362.4573380730144 
	13031.79757191535828 3568.774731745535973 14340.40382068176223 
	13031.79757191536009 3544.362202755187354 14312.03587022361353 
	13031.79757191536919 3522.137756752217683 14281.92294668199429 
	13031.79757191536919 3502.22602104290354 14250.23329768048097 
	13031.79757191536919 3482.794624502259012 14213.46786031013653 
	13031.79757191536919 3465.016772471627064 14171.29383682001026 
	13031.79757191537101 3450.30026550831235 14123.58334094368911 
	13031.79757191536373 3443.292578954991313 14088.91846913519475 
	13031.79757191536555 3440.323951811068582 14068.35349327488802 
	13031.79757191536191 3439.510314911776277 14062.17338258419295 
	13031.79757191536373 3438.773799298903668 14055.98360674176365 
	13031.79757191536191 3437.455187788980766 14043.58665619320709 
	13031.79757191536555 3436.057300206291529 14024.93318532308331 
	13031.79757191537101 3435.43548446961131 13999.9999014792138 
	13031.79757191537465 3436.057289471812965 13975.06662631654399 
	13031.7975719153801 3437.610431365369095 13954.34053731254789 
	13031.7975719153801 3439.471801642166156 13937.82160550470871 
	13031.79757191537647 3444.016104973235542 13904.88666596928306 
	13031.79757191537283 3456.070633285495205 13852.07143523394916 
	13031.79757191536737 3483.474788142008492 13782.2471630996115 
	13031.79757191536191 3520.979243364180547 13717.28686100907362 
	13031.79757191535828 3557.354382538967457 13671.67465518965582 
	13031.79757191535282 3586.379683942917836 13641.91791556771386 
	13031.79757191535646 3610.756706884378218 13619.29851512081768 
	13031.79757191535282 3643.286766575474303 13593.35731427783685 
	13031.79757191535828 3692.217694850344287 13561.75291563637438 
	13031.79757191536919 3752.289567276611706 13532.82327130988961 
	13031.79757191537465 3817.993833696465117 13512.55740351479471 
	13031.79757191538738 3879.54320405823637 13502.10060540794984 
	13031.79757191539466 3935.643052930230169 13498.94950123444505 
	13031.79757191540011 3991.742698563349677 13502.10068567045346 
	13031.79757191540557 4053.292472348243336 13512.55665017722276 
	13031.79757191541285 4107.049649099298222 13529.13950124335861 
	13031.79757191540739 4152.787025659403298 13549.0958550622945 
	13031.79757191541285 4185.876181477381579 13566.58336520011471 
	13031.79757191541103 4217.565601295403212 13586.49552260212658 
	13031.79757191541466 4252.697616963144355 13612.42357356180946 
	13031.79757191541466 4289.93893754986766 13645.70409286002905 
	13031.7975719154183 4327.37970355370453 13687.60046032133141 
	13031.79757191542194 4359.894234485522247 13733.42533322396775 
	13031.79757191543649 4387.073353786770895 13782.60264516705502 
	13031.79757191544741 4408.575855718114326 13834.51368862663912 
	13031.79757191545832 4421.537978438187565 13879.50724344299124 
	13031.79757191546196 4428.836867912807065 13916.20302914186323 
	13031.79757191546014 4432.759644345141169 13943.98843560983551 
	13031.7975719154656 4434.72502752957007 13967.28983665208034 
	13031.7975719154656 4435.413330570845574 13983.63942068212964 
	13031.79757191546014 4435.58543441756774 13991.81904190797468 
	13031.79757191545832 4435.628461811101261 13995.90945593996003 
	13031.79757191546196 4435.639218808184523 13997.95473847790345 
	13031.79757191546196 4435.641908056411012 13998.97738917981951 
	13031.79757191545468 4435.642676414247944 13999.56176236171996 
	13031.7975719154565 4435.642804474853619 13999.8539491770498 
	13031.7975719154565 4435.642804474736295 14000.00004258397894 
	13115.13090524879044 4435.642804474735385 14000.00004258397894 
	13115.13090524879408 4435.642804473798606 14001.16878983941751 
	13115.13090524879226 4435.634608578223379 14003.50628425622381 
	13115.13090524879226 4435.585434378487662 14008.18104321999454 
	13115.13090524879408 4435.413330513429173 14016.36066448212478 
	13115.13090524878862 4434.7250271432722 14032.7102489424833 
	13115.13090524879044 4432.759643820550991 14056.0116511725646 
	13115.1309052487868 4428.836865601292629 14083.79705980979634 
	13115.13090524878862 4421.537978489519446 14120.49284655901647 
	13115.13090524876679 4408.575840591344786 14165.48641500034137 
	13115.13090524875952 4387.073363963790143 14217.39745652360398 
	13115.13090524875042 4359.894193157412701 14266.57481274733982 
	13115.13090524874133 4327.379472878767956 14312.39940598895919 
	13115.1309052487286 4289.939024191770841 14354.29630370751147 
	13115.13090524872678 4249.593979031470553 14390.34957691088312 
	13115.13090524872132 4200.610234491306983 14425.56876490269133 
	13115.13090524872132 4156.693794512434579 14449.48396840010355 
	13115.13090524871768 4114.558374502963488 14467.24403055432958 
	13115.1309052487195 4083.157844709794517 14478.23175308284408 
	13115.13090524871404 4034.95683119333944 14491.14830038240507 
	13115.13090524871041 3973.147712663372658 14500.46607605753343 
	13115.13090524870495 3898.137886824420548 14500.46555746715421 
	13115.13090524869767 3836.328577471201697 14491.14874644794691 
	13115.13090524869403 3788.12768913887021 14478.23202495419355 
	13115.1309052486904 3752.801750783763055 14465.87147816289325 
	13115.13090524868312 3718.498442742235966 14450.90482899352719 
	13115.13090524868312 3690.92429351846522 14436.33152421515661 
	13115.13090524868312 3669.564647242910723 14423.46094033271402 
	13115.13090524868494 3648.701071077046436 14409.8008915306491 
	13115.13090524868494 3628.625738270606234 14394.98469070950705 
	13115.13090524868858 3609.422924760191563 14379.07437689473772 
	13115.1309052486904 3590.828306756952315 14362.4573380730144 
	13115.13090524869222 3568.774731745535519 14340.40382068176223 
	13115.13090524869403 3544.3622027551869 14312.03587022361353 
	13115.13090524870313 3522.137756752217228 14281.92294668199429 
	13115.13090524870313 3502.226021042903085 14250.23329768048097 
	13115.13090524870313 3482.794624502258557 14213.46786031013653 
	13115.13090524870313 3465.016772471626609 14171.29383682001026 
	13115.13090524870495 3450.300265508311895 14123.58334094368911 
	13115.13090524869767 3443.292578954990859 14088.91846913519475 
	13115.13090524869949 3440.323951811068127 14068.35349327488802 
	13115.13090524869585 3439.510314911775822 14062.17338258419295 
	13115.13090524869767 3438.773799298903214 14055.98360674176365 
	13115.13090524869585 3437.455187788980311 14043.58665619320709 
	13115.13090524869949 3436.057300206291075 14024.93318532308331 
	13115.13090524870495 3435.435484469610856 13999.9999014792138 
	13115.13090524870859 3436.05728947181251 13975.06662631654399 
	13115.13090524871404 3437.61043136536864 13954.34053731254789 
	13115.13090524871404 3439.471801642165701 13937.82160550470871 
	13115.13090524871041 3444.016104973235088 13904.88666596928306 
	13115.13090524870677 3456.07063328549475 13852.07143523394916 
	13115.13090524870131 3483.474788142008038 13782.2471630996115 
	13115.13090524869585 3520.979243364180093 13717.28686100907362 
	13115.13090524869222 3557.354382538967002 13671.67465518965582 
	13115.13090524868676 3586.379683942917382 13641.91791556771386 
	13115.1309052486904 3610.756706884377763 13619.29851512081768 
	13115.13090524868676 3643.286766575473848 13593.35731427783685 
	13115.13090524869222 3692.217694850343833 13561.75291563637438 
	13115.13090524870313 3752.289567276611251 13532.82327130988961 
	13115.13090524870859 3817.993833696464662 13512.55740351479471 
	13115.13090524872132 3879.543204058235915 13502.10060540794984 
	13115.1309052487286 3935.643052930229715 13498.94950123444505 
	13115.13090524873405 3991.742698563349222 13502.10068567045346 
	13115.13090524873951 4053.292472348242882 13512.55665017722276 
	13115.13090524874679 4107.049649099297312 13529.13950124335861 
	13115.13090524874133 4152.787025659402389 13549.0958550622945 
	13115.13090524874679 4185.876181477380669 13566.58336520011471 
	13115.13090524874497 4217.565601295402303 13586.49552260212658 
	13115.1309052487486 4252.697616963143446 13612.42357356180946 
	13115.1309052487486 4289.93893754986675 13645.70409286002905 
	13115.13090524875224 4327.379703553703621 13687.60046032133141 
	13115.13090524875588 4359.894234485521338 13733.42533322396775 
	13115.13090524877043 4387.073353786769985 13782.60264516705502 
	13115.13090524878135 4408.575855718113417 13834.51368862663912 
	13115.13090524879226 4421.537978438186656 13879.50724344299124 
	13115.1309052487959 4428.836867912806156 13916.20302914186323 
	13115.13090524879408 4432.759644345140259 13943.98843560983551 
	13115.13090524879954 4434.725027529569161 13967.28983665208034 
	13115.13090524879954 4435.413330570844664 13983.63942068212964 
	13115.13090524879408 4435.58543441756683 13991.81904190797468 
	13115.13090524879226 4435.628461811100351 13995.90945593996003 
	13115.1309052487959 4435.639218808183614 13997.95473847790345 
	13115.1309052487959 4435.641908056410102 13998.97738917981951 
	13115.13090524878862 4435.642676414247035 13999.56176236171996 
	13115.13090524879044 4435.64280447485271 13999.8539491770498 
	13115.13090524879044 4435.642804474735385 14000.00004258397894 
	13198.4642385821262 4435.642804474736295 14000.00004258397894 
	13198.4642385821262 4435.642804473799515 14001.16878983941751 
	13198.46423858212438 4435.634608578224288 14003.50628425622381 
	13198.46423858212438 4435.585434378488571 14008.18104321999454 
	13198.46423858212438 4435.413330513430083 14016.36066448212478 
	13198.46423858212438 4434.72502714327311 14032.7102489424833 
	13198.46423858212256 4432.759643820551901 14056.0116511725646 
	13198.46423858212074 4428.836865601293539 14083.79705980979634 
	13198.46423858212074 4421.537978489520356 14120.49284655901647 
	13198.46423858210073 4408.575840591345695 14165.48641500034137 
	13198.46423858209346 4387.073363963791053 14217.39745652360398 
	13198.46423858208072 4359.894193157412701 14266.57481274733982 
	13198.46423858206981 4327.379472878767956 14312.39940598895919 
	13198.46423858205708 4289.939024191769931 14354.29630370751147 
	13198.46423858205708 4249.593979031469644 14390.34957691088312 
	13198.4642385820498 4200.610234491306073 14425.56876490269133 
	13198.46423858205344 4156.693794512433669 14449.48396840010355 
	13198.4642385820498 4114.558374502963488 14467.24403055432958 
	13198.46423858205162 4083.157844709794517 14478.23175308284408 
	13198.46423858204798 4034.956831193338985 14491.14830038240507 
	13198.46423858204435 3973.147712663372658 14500.46607605753343 
	13198.46423858203889 3898.137886824421003 14500.46555746715421 
	13198.46423858203161 3836.328577471201243 14491.14874644794691 
	13198.46423858202797 3788.127689138869755 14478.23202495419355 
	13198.46423858202252 3752.8017507837626 14465.87147816289325 
	13198.46423858201524 3718.498442742235511 14450.90482899352719 
	13198.46423858201524 3690.92429351846431 14436.33152421515661 
	13198.46423858201524 3669.564647242909814 14423.46094033271402 
	13198.46423858201706 3648.701071077045981 14409.8008915306491 
	13198.46423858201706 3628.625738270605325 14394.98469070950705 
	13198.46423858201888 3609.422924760190654 14379.07437689473772 
	13198.4642385820207 3590.828306756951861 14362.4573380730144 
	13198.46423858202616 3568.774731745534609 14340.40382068176223 
	13198.46423858202616 3544.362202755185535 14312.03587022361353 
	13198.46423858203525 3522.137756752216319 14281.92294668199429 
	13198.46423858203525 3502.226021042902175 14250.23329768048097 
	13198.46423858203707 3482.794624502257193 14213.46786031013653 
	13198.46423858203525 3465.016772471625245 14171.29383682001026 
	13198.46423858203525 3450.300265508310986 14123.58334094368911 
	13198.46423858202979 3443.29257895498904 14088.91846913519475 
	13198.46423858202979 3440.323951811066308 14068.35349327488802 
	13198.46423858202434 3439.510314911774003 14062.17338258419295 
	13198.46423858202797 3438.773799298901395 14055.98360674176365 
	13198.46423858202616 3437.455187788978947 14043.58665619320709 
	13198.46423858203343 3436.057300206289256 14024.93318532308331 
	13198.46423858203889 3435.435484469608582 13999.9999014792138 
	13198.46423858204435 3436.057289471810691 13975.06662631654399 
	13198.4642385820498 3437.610431365366821 13954.34053731254789 
	13198.4642385820498 3439.471801642163882 13937.82160550470871 
	13198.46423858204435 3444.016104973233723 13904.88666596928306 
	13198.46423858204071 3456.070633285494296 13852.07143523394916 
	13198.46423858203889 3483.474788142006673 13782.2471630996115 
	13198.46423858203161 3520.979243364178728 13717.28686100907362 
	13198.46423858202797 3557.354382538965638 13671.67465518965582 
	13198.46423858202434 3586.379683942916472 13641.91791556771386 
	13198.46423858202616 3610.756706884377309 13619.29851512081768 
	13198.46423858202252 3643.286766575473848 13593.35731427783685 
	13198.46423858202797 3692.217694850343378 13561.75291563637438 
	13198.46423858203889 3752.289567276611251 13532.82327130988961 
	13198.46423858204616 3817.993833696464662 13512.55740351479471 
	13198.46423858205708 3879.54320405823546 13502.10060540794984 
	13198.46423858206253 3935.643052930229715 13498.94950123444505 
	13198.46423858206799 3991.742698563348767 13502.10068567045346 
	13198.46423858207527 4053.292472348241972 13512.55665017722276 
	13198.46423858208254 4107.049649099297312 13529.13950124335861 
	13198.46423858207891 4152.787025659401479 13549.0958550622945 
	13198.46423858208072 4185.876181477380669 13566.58336520011471 
	13198.46423858207891 4217.565601295402303 13586.49552260212658 
	13198.46423858208254 4252.697616963143446 13612.42357356180946 
	13198.46423858208072 4289.93893754986675 13645.70409286002905 
	13198.46423858208618 4327.379703553703621 13687.60046032133141 
	13198.46423858208982 4359.894234485521338 13733.42533322396775 
	13198.46423858210255 4387.073353786769985 13782.60264516705502 
	13198.46423858211165 4408.575855718114326 13834.51368862663912 
	13198.4642385821262 4421.537978438187565 13879.50724344299124 
	13198.46423858212802 4428.836867912807065 13916.20302914186323 
	13198.46423858212984 4432.759644345141169 13943.98843560983551 
	13198.46423858212984 4434.72502752957007 13967.28983665208034 
	13198.46423858213348 4435.413330570845574 13983.63942068212964 
	13198.46423858212438 4435.58543441756774 13991.81904190797468 
	13198.4642385821262 4435.628461811101261 13995.90945593996003 
	13198.46423858212984 4435.639218808184523 13997.95473847790345 
	13198.46423858212984 4435.641908056411012 13998.97738917981951 
	13198.4642385821262 4435.642676414247944 13999.56176236171996 
	13198.4642385821262 4435.642804474853619 13999.8539491770498 
	13198.4642385821262 4435.642804474736295 14000.00004258397894 
	13281.79757191546014 4435.642804474736295 14000.00004258397894 
	13281.79757191546014 4435.642804473799515 14001.16878983941751 
	13281.79757191545832 4435.634608578224288 14003.50628425622381 
	13281.79757191545832 4435.585434378488571 14008.18104321999454 
	13281.79757191545832 4435.413330513430083 14016.36066448212478 
	13281.79757191545832 4434.72502714327311 14032.7102489424833 
	13281.7975719154565 4432.759643820551901 14056.0116511725646 
	13281.79757191545468 4428.836865601293539 14083.79705980979634 
	13281.79757191545468 4421.537978489520356 14120.49284655901647 
	13281.79757191543467 4408.575840591345695 14165.48641500034137 
	13281.7975719154274 4387.073363963791053 14217.39745652360398 
	13281.79757191541466 4359.894193157412701 14266.57481274733982 
	13281.79757191540375 4327.379472878767956 14312.39940598895919 
	13281.79757191539102 4289.939024191769931 14354.29630370751147 
	13281.79757191539102 4249.593979031469644 14390.34957691088312 
	13281.79757191538374 4200.610234491306073 14425.56876490269133 
	13281.79757191538738 4156.693794512433669 14449.48396840010355 
	13281.79757191538374 4114.558374502963488 14467.24403055432958 
	13281.79757191538556 4083.157844709794063 14478.23175308284408 
	13281.79757191538192 4034.95683119333853 14491.14830038240507 
	13281.79757191537828 3973.147712663372204 14500.46607605753343 
	13281.79757191537283 3898.137886824420548 14500.46555746715421 
	13281.79757191536555 3836.328577471200788 14491.14874644794691 
	13281.79757191536191 3788.1276891388693 14478.23202495419355 
	13281.79757191535646 3752.801750783762145 14465.87147816289325 
	13281.79757191534918 3718.498442742235056 14450.90482899352719 
	13281.79757191534918 3690.924293518463855 14436.33152421515661 
	13281.79757191534918 3669.564647242909359 14423.46094033271402 
	13281.797571915351 3648.701071077045526 14409.8008915306491 
	13281.797571915351 3628.62573827060487 14394.98469070950705 
	13281.79757191535282 3609.422924760190199 14379.07437689473772 
	13281.79757191535464 3590.828306756951406 14362.4573380730144 
	13281.79757191536009 3568.774731745534154 14340.40382068176223 
	13281.79757191536009 3544.362202755185081 14312.03587022361353 
	13281.79757191536919 3522.137756752215864 14281.92294668199429 
	13281.79757191536919 3502.226021042901721 14250.23329768048097 
	13281.79757191537101 3482.794624502256738 14213.46786031013653 
	13281.79757191536919 3465.01677247162479 14171.29383682001026 
	13281.79757191536919 3450.300265508310531 14123.58334094368911 
	13281.79757191536373 3443.292578954988585 14088.91846913519475 
	13281.79757191536373 3440.323951811065854 14068.35349327488802 
	13281.79757191535828 3439.510314911773548 14062.17338258419295 
	13281.79757191536191 3438.77379929890094 14055.98360674176365 
	13281.79757191536009 3437.455187788978492 14043.58665619320709 
	13281.79757191536737 3436.057300206288801 14024.93318532308331 
	13281.79757191537283 3435.435484469608127 13999.9999014792138 
	13281.79757191537828 3436.057289471810236 13975.06662631654399 
	13281.79757191538374 3437.610431365366367 13954.34053731254789 
	13281.79757191538374 3439.471801642163427 13937.82160550470871 
	13281.79757191537828 3444.016104973233269 13904.88666596928306 
	13281.79757191537465 3456.070633285493841 13852.07143523394916 
	13281.79757191537283 3483.474788142006219 13782.2471630996115 
	13281.79757191536555 3520.979243364178274 13717.28686100907362 
	13281.79757191536191 3557.354382538965183 13671.67465518965582 
	13281.79757191535828 3586.379683942916017 13641.91791556771386 
	13281.79757191536009 3610.756706884376854 13619.29851512081768 
	13281.79757191535646 3643.286766575473393 13593.35731427783685 
	13281.79757191536191 3692.217694850342923 13561.75291563637438 
	13281.79757191537283 3752.289567276610796 13532.82327130988961 
	13281.7975719153801 3817.993833696464208 13512.55740351479471 
	13281.79757191539102 3879.543204058235006 13502.10060540794984 
	13281.79757191539647 3935.64305293022926 13498.94950123444505 
	13281.79757191540193 3991.742698563348313 13502.10068567045346 
	13281.79757191540921 4053.292472348241517 13512.55665017722276 
	13281.79757191541648 4107.049649099297312 13529.13950124335861 
	13281.79757191541285 4152.787025659401479 13549.0958550622945 
	13281.79757191541466 4185.876181477380669 13566.58336520011471 
	13281.79757191541285 4217.565601295402303 13586.49552260212658 
	13281.79757191541648 4252.697616963143446 13612.42357356180946 
	13281.79757191541466 4289.93893754986675 13645.70409286002905 
	13281.79757191542012 4327.379703553703621 13687.60046032133141 
	13281.79757191542376 4359.894234485521338 13733.42533322396775 
	13281.79757191543649 4387.073353786769985 13782.60264516705502 
	13281.79757191544559 4408.575855718114326 13834.51368862663912 
	13281.79757191546014 4421.537978438187565 13879.50724344299124 
	13281.79757191546196 4428.836867912807065 13916.20302914186323 
	13281.79757191546378 4432.759644345141169 13943.98843560983551 
	13281.79757191546378 4434.72502752957007 13967.28983665208034 
	13281.79757191546742 4435.413330570845574 13983.63942068212964 
	13281.79757191545832 4435.58543441756774 13991.81904190797468 
	13281.79757191546014 4435.628461811101261 13995.90945593996003 
	13281.79757191546378 4435.639218808184523 13997.95473847790345 
	13281.79757191546378 4435.641908056411012 13998.97738917981951 
	13281.79757191546014 4435.642676414247944 13999.56176236171996 
	13281.79757191546014 4435.642804474853619 13999.8539491770498 
	13281.79757191546014 4435.642804474736295 14000.00004258397894 
	0 
	
	0 
	0 
	81 0 0.001116071428571428509 0.002232142857142857019 0.004464285714285714038 0.008928571428571428076 0.01785714285714285615 0.02678571428571428423 0.0357142857142857123 0.05357142857142856845 0.07142857142857142461 0.08928571428571427382 0.1071428571428571369 0.125 0.1428571428571428492 0.1587301587301587213 0.1825396825396825295 0.1904761904761904656 0.2023809523809523836 0.2142857142857142738 0.238095238095238082 0.2619047619047618625 0.2857142857142856984 0.2976190476190476164 0.3095238095238095344 0.3214285714285713969 0.3333333333333333148 0.3392857142857143016 0.3452380952380952328 0.3571428571428570953 0.3630952380952380265 0.3690476190476190133 0.3809523809523809312 0.3928571428571428492 0.4047619047619047672 0.4166666666666666297 0.4285714285714285476 0.4444444444444444198 0.4603174603174602919 0.476190476190476164 0.4781746031746031411 0.4801587301587301182 0.4821428571428570953 0.4841269841269840724 0.4920634920634920362 0.5 0.5079365079365079083 0.5158730158730158166 0.5198412698412697708 0.5238095238095237249 0.5476190476190475609 0.5714285714285713969 0.5952380952380951218 0.6190476190476189577 0.6269841269841269771 0.6349206349206348854 0.650793650793650702 0.6666666666666666297 0.6904761904761904656 0.7142857142857141906 0.7321428571428569843 0.749999999999999889 0.7678571428571427937 0.7857142857142855874 0.8095238095238094234 0.8214285714285713969 0.8333333333333332593 0.8452380952380951218 0.8571428571428570953 0.875 0.8928571428571427937 0.9107142857142856984 0.9285714285714286031 0.9464285714285713969 0.9642857142857143016 0.9732142857142858094 0.9821428571428572063 0.9910714285714286031 0.9955357142857143016 0.9977678571428572063 0.9994419642857143016 0.9998604910714286031 
	0 
	0 
	0 
	F 1 F 0 F 1 F 0 } I I I I #
tcoedge-coedge $-1 -1 $-1 $14 $14 $18 $19 reversed $9 $20 -6.283185307179586232 -0 #
tcoedge-coedge $-1 -1 $-1 $21 $22 $11 $16 reversed $12 $23 -6.283185307179586232 -0 #
tedge-edge $-1 -1 $-1 $24 0 $24 6.283185307179586232 $15 $25 forward @7 unknown 0.0007888987518618603223 #
pcurve $-1 -1 $-1 0 forward { exppc nurbs 2 periodic 5 
	0 2 1.570796326794896558 2 3.141592653589793116 2 4.712388980384689674 2 6.283185307179586232 2 
	0 500 1 
	-500 500 0.707106781186543798 
	-500 0 1 
	-500 -500 0.7071067811865463515 
	0 -500 1 
	500 -500 0.7071067811865463515 
	500 0 1 
	500 500 0.707106781186543798 
	0 500 1 
	0 
	plane 13281.79757191538738 3935.642797989769861 14000.00000000000182 1 -3.637978807091713027e-15 0 0 0 -1 forward_v I I I I 
	} 0 0 #
tcoedge-coedge $-1 -1 $-1 $22 $21 $14 $19 forward $12 $26 0 6.283185307179586232 #
tedge-edge $-1 -1 $-1 $27 0 $27 6.283185307179586232 $18 $28 forward @7 unknown 0.0007888987535957740077 #
pcurve $-1 -1 $-1 0 forward { exppc nurbs 2 periodic 5 
	-6.283185307179586232 2 -4.712388980384689674 2 -3.141592653589793116 2 -1.570796326794896558 2 0 2 
	0 500 1 
	500 500 0.707106781186543798 
	500 0 1 
	500 -500 0.7071067811865463515 
	0 -500 1 
	-500 -500 0.7071067811865463515 
	-500 0 1 
	-500 500 0.707106781186543798 
	0 500 1 
	0 
	plane 13031.79757191538738 3935.64279798977077 14000.00000000000182 -1 3.637978807091713027e-15 -0 0 0 -1 reverse_v I I I I 
	} 0 0 #
coedge $-1 -1 $-1 $18 $15 $22 $29 reversed $12 $30 #
coedge $-1 -1 $-1 $15 $18 $21 $29 forward $12 $31 #
pcurve $-1 -1 $-1 0 forward { exppc nubs 1 periodic 2 
	-6.283185307179586232 1 -0 1 
	1 1 
	0 1 
	2.726396620975368931e-13 
	spline forward { ref 0 } I I I I 
	} 0 0 #
tvertex-vertex $-1 -1 $-1 $16 $32 4.307494351106624713e-05 #
ellipse-curve $-1 -1 $-1 13281.79757191538738 3935.642797989769861 14000.00000000000182 1 -3.637978807091713027e-15 0 1.818989403545856476e-12 500 0 1 I I #
pcurve $-1 -1 $-1 0 forward { exppc nubs 1 periodic 2 
	0 1 6.283185307179586232 1 
	0 0 
	1 0 
	4.4114023995510105e-13 
	spline forward { ref 0 } I I I I 
	} 0 0 #
tvertex-vertex $-1 -1 $-1 $19 $33 4.307494337413524647e-05 #
ellipse-curve $-1 -1 $-1 13031.79757191538738 3935.64279798977077 14000.00000000000182 1 -3.637978807091713027e-15 0 1.818989403545856476e-12 500 0 1 I I #
edge $-1 -1 $-1 $27 0 $24 1 $22 $34 forward @7 tangent #
pcurve $-1 -1 $-1 -1 $34 0 0 #
pcurve $-1 -1 $-1 1 $34 1 0 #
point $-1 -1 $-1 13281.7975719153892 4435.642797989769861 14000.00000000000182 #
point $-1 -1 $-1 13031.7975719153892 4435.64279798977077 14000.00000000000182 #
intcurve-curve $-1 -1 $-1 forward { parcur full nubs 3 open 2 
	0 3 1 3 
	13031.7975719154565 4435.642804474736295 14000.00004258397894 
	13115.13090524879044 4435.642804474735385 14000.00004258397894 
	13198.4642385821262 4435.642804474736295 14000.00004258397894 
	13281.79757191546014 4435.642804474736295 14000.00004258397894 
	0 
	
	spline forward { ref 0 } I I I I 
	null_surface 
	nubs 1 open 2 
	0 1 1 1 
	0 0 
	0 1 
	
	nullbs 
	I I 
	0 
	0 
	0 
	surf1 } I I #
End-of-ACIS-data 