700 0 1 0           
4 LibG 20 ASM 224.0.1.65535 NT 24 Wed Jul 17 12:52:11 2019 
1000 9.999999999999999547e-07 1.000000000000000036e-10 
body $-1 -1 $-1 $1 $-1 $2 #
lump $-1 -1 $-1 $-1 $3 $0 #
transform $-1 -1 1 0 0 0 1 0 0 0 1 0 0 0 1 no_rotate no_reflect no_shear #
shell $-1 -1 $-1 $-1 $-1 $4 $-1 $1 #
face $-1 -1 $-1 $5 $6 $3 $-1 $7 forward single #
face $-1 -1 $-1 $8 $9 $3 $-1 $10 reversed single #
loop $-1 -1 $-1 $-1 $11 $4 #
plane-surface $-1 -1 $-1 -218.202428084613075 3935.642797989818973 14000.00000000000182 1 -3.637978807091713027e-15 0 0 0 -1 forward_v I I I I #
face $-1 -1 $-1 $-1 $12 $3 $-1 $13 forward single #
loop $-1 -1 $-1 $-1 $14 $5 #
plane-surface $-1 -1 $-1 -468.202428084613075 3935.642797989819883 14000.00000000000182 1 -3.637978807091713027e-15 0 0 0 -1 forward_v I I I I #
tcoedge-coedge $-1 -1 $-1 $11 $11 $15 $16 forward $6 $17 0 6.283185307179586232 #
loop $-1 -1 $-1 $-1 $18 $8 #
spline-surface $-1 -1 $-1 forward { exactsur full nubs 3 3 periodic open none none 80 2 
	0 3 0.004464285714285714038 1 0.008928571428571428076 1 0.01785714285714285615 1 0.02678571428571428423 1 
	0.0357142857142857123 1 0.05357142857142856845 1 0.0625 1 0.07142857142857142461 1 0.08928571428571427382 1 
	0.1071428571428571369 1 0.125 1 0.1428571428571428492 1 0.1587301587301587213 1 0.1746031746031745935 1 
	0.1785714285714285476 1 0.1825396825396825295 1 0.1904761904761904656 1 0.2142857142857142738 1 0.226190476190476164 1 
	0.238095238095238082 1 0.2499999999999999722 1 0.2619047619047618625 1 0.2857142857142856984 1 0.2976190476190476164 1 
	0.3095238095238095344 1 0.3214285714285713969 1 0.3333333333333333148 1 0.3452380952380952328 1 0.3571428571428570953 1 
	0.3690476190476190133 1 0.3809523809523809312 1 0.3928571428571428492 1 0.4047619047619047672 1 0.4285714285714285476 1 
	0.4444444444444444198 1 0.4603174603174602919 1 0.476190476190476164 1 0.4841269841269840724 1 0.4920634920634920362 1 
	0.5 1 0.5079365079365079083 1 0.5238095238095237249 1 0.5476190476190475609 1 0.5714285714285713969 1 
	0.5833333333333332593 1 0.5952380952380951218 1 0.6190476190476189577 1 0.6349206349206348854 1 0.650793650793650702 1 
	0.6666666666666666297 1 0.6785714285714286031 1 0.6904761904761904656 1 0.7023809523809523281 1 0.7142857142857141906 1 
	0.7321428571428569843 1 0.749999999999999889 1 0.7678571428571427937 1 0.7857142857142855874 1 0.7976190476190474499 1 
	0.8095238095238094234 1 0.8333333333333332593 1 0.8392857142857141906 1 0.8452380952380951218 1 0.851190476190476053 1 
	0.8571428571428570953 1 0.875 1 0.8928571428571427937 1 0.9107142857142856984 1 0.9285714285714286031 1 
	0.9464285714285713969 1 0.9642857142857143016 1 0.9732142857142858094 1 0.9821428571428572063 1 0.9910714285714286031 1 
	0.9955357142857143016 1 0.9977678571428572063 1 0.9988839285714286031 1 0.9994419642857143016 1 1 3 
	0 3 1 3 
	-468.2024280834970114 4435.642889679105792 13999.99988719049361 
	-468.2024280834972387 4435.64288948254125 14004.67487628740855 
	-468.2024280835128707 4435.511744847609407 14014.0248556091974 
	-468.2024280835260015 4434.725107842506986 14032.71009720899019 
	-468.2024280835775585 4432.759729937085467 14056.01151256816593 
	-468.2024280836238859 4428.836933988929559 14083.79692043209252 
	-468.2024280836646426 4421.538087843635367 14120.4927431929882 
	-468.2024280838188588 4411.168226568440332 14156.48753522439802 
	-468.2024280838499521 4397.824869193394989 14191.44194508951841 
	-468.2024280838908226 4382.543515447216123 14225.59358019882166 
	-468.2024280840009283 4359.894262991479081 14266.57470603525144 
	-468.2024280840931851 4327.379640415831091 14312.3995448556434 
	-468.2024280841866357 4289.938883905174407 14354.29592605512516 
	-468.2024280842695703 4249.594172583180807 14390.34989222439981 
	-468.2024280843314159 4207.366013172100793 14420.7096692606774 
	-468.2024280843573933 4174.936544584147669 14439.4329981633382 
	-468.2024280843635893 4152.607254298611224 14450.53112114181022 
	-468.2024280843671136 4137.541233428451051 14457.55636535984377 
	-468.2024280843840529 4103.067820180853232 14472.08964713166097 
	-468.2024280844165673 4059.265363426009117 14485.6004622206965 
	-468.2024280844277655 4010.233484466843493 14494.87631651887023 
	-468.2024280844480586 3973.042842503770771 14499.06738640481126 
	-468.2024280844611894 3935.642969470163735 14500.46599391977725 
	-468.2024280844800614 3885.776198518320598 14498.60195180579467 
	-468.2024280844957502 3836.328737911613644 14491.14888326079563 
	-468.2024280845100748 3788.127936593332834 14478.23167454735449 
	-468.2024280845200224 3752.80199925888337 14465.87121045799358 
	-468.2024280845291173 3718.498728340636717 14450.90453222851102 
	-468.2024280845374733 3685.409736979329864 14433.41661203860349 
	-468.2024280845456587 3653.720226264894791 14413.50464442490011 
	-468.2024280845490694 3623.607203954183205 14391.28037983772629 
	-468.2024280845569706 3595.239480197733428 14366.8676741072868 
	-468.2024280845632802 3568.774930177377428 14340.40363401127797 
	-468.202428084565156 3544.362903823996476 14312.03540227391568 
	-468.2024280845692488 3514.728931387062403 14271.88569651775106 
	-468.2024280845731141 3487.641919813832374 14224.97056893572153 
	-468.2024280845755584 3465.016794764294445 14171.293853558107 
	-468.202428084576411 3450.29972187390058 14123.58365959281218 
	-468.2024280845772637 3442.055828250611285 14082.8012966118622 
	-468.2024280845773774 3437.920985881735305 14049.80467193854565 
	-468.2024280845774342 3436.057076032356235 14024.93338138219406 
	-468.2024280845772068 3435.435311861395803 14000.00009296810094 
	-468.2024280845770363 3436.264351632376474 13966.75574484005665 
	-468.2024280845757858 3441.234461286917849 13917.07508606662304 
	-468.2024280845723752 3456.070014987687955 13852.07152359816973 
	-468.2024280845678277 3478.907548999444771 13793.8848941070537 
	-468.2024280845649855 3502.226289904055193 13749.76702090575782 
	-468.2024280845623707 3528.774113240488532 13707.51330005452292 
	-468.2024280845559474 3562.550669783587182 13665.1590647173507 
	-468.2024280845433282 3604.251198136226321 13624.48774837524434 
	-468.2024280845398607 3643.286594818029698 13593.35751327474827 
	-468.2024280845355975 3681.732947148962921 13568.52646755049864 
	-468.2024280845246835 3718.498564108324899 13549.09558686115815 
	-468.2024280845199655 3752.801812701926792 13534.12899317191841 
	-468.2024280845074031 3788.127714993185236 13521.76819627936493 
	-468.2024280844944428 3830.30354222644155 13510.46668441788097 
	-468.2024280844826762 3879.542878204081262 13502.1003429864686 
	-468.202428084465339 3935.642727175564687 13498.94999667312732 
	-468.2024280844462965 3991.742523055198944 13502.10041649210689 
	-468.2024280844260602 4040.981935233335207 13510.46668763938214 
	-468.2024280844103146 4083.157645137607688 13521.76837169799728 
	-468.2024280844035502 4130.259263982780794 13538.24871256213373 
	-468.2024280843679094 4169.681835089805645 13557.2324376445431 
	-468.2024280843564839 4201.720922335589421 13576.53905268619928 
	-468.2024280843521069 4217.368673521949859 13586.78393994945509 
	-468.2024280843463657 4232.622203385800276 13597.60710076177202 
	-468.2024280843365887 4257.352848789690142 13616.58318108419553 
	-468.2024280842823032 4289.938927648611752 13645.70372676135776 
	-468.2024280842168764 4327.379726852982458 13687.60010803787918 
	-468.2024280841562813 4359.894175674096914 13733.42505769577292 
	-468.2024280840483357 4387.073621974339403 13782.60223604383464 
	-468.2024280838674599 4408.575932505905257 13834.51344384720869 
	-468.2024280836936327 4421.538098772568446 13879.50702523020846 
	-468.2024280836319576 4428.836962456323818 13916.20284072621325 
	-468.2024280835805143 4432.759739276648361 13943.98825892481909 
	-468.2024280835224772 4434.725114067514369 13967.28967609621031 
	-468.2024280835045715 4435.413416362947828 13983.63926380786324 
	-468.2024280834988872 4435.585519636308163 13991.81888620633435 
	-468.2024280834976366 4435.62854703445646 13995.90930046157519 
	-468.202428083497125 4435.640840624039811 13998.24676629677197 
	-468.2024280834970114 4435.642889703676701 13999.41551355337833 
	-468.2024280834970114 4435.642889679105792 13999.99988719049361 
	-384.869094750163697 4435.642889679104883 13999.99988719049361 
	-384.8690947501639812 4435.64288948254034 14004.67487628740855 
	-384.8690947501794994 4435.511744847608497 14014.0248556091974 
	-384.869094750192744 4434.725107842506077 14032.71009720899019 
	-384.8690947502442441 4432.759729937084558 14056.01151256816593 
	-384.8690947502906283 4428.836933988928649 14083.79692043209252 
	-384.8690947503312145 4421.538087843634457 14120.4927431929882 
	-384.8690947504857149 4411.168226568439422 14156.48753522439802 
	-384.8690947505166378 4397.824869193394079 14191.44194508951841 
	-384.869094750557565 4382.543515447215213 14225.59358019882166 
	-384.8690947506675002 4359.894262991478172 14266.57470603525144 
	-384.8690947507599276 4327.379640415830181 14312.3995448556434 
	-384.8690947508532076 4289.938883905173498 14354.29592605512516 
	-384.8690947509364264 4249.594172583179898 14390.34989222439981 
	-384.8690947509978741 4207.366013172099883 14420.7096692606774 
	-384.8690947510242495 4174.936544584146759 14439.4329981633382 
	-384.869094751030218 4152.607254298610314 14450.53112114181022 
	-384.8690947510339129 4137.541233428450141 14457.55636535984377 
	-384.8690947510506817 4103.067820180852323 14472.08964713166097 
	-384.869094751083253 4059.265363426008662 14485.6004622206965 
	-384.8690947510944511 4010.233484466843038 14494.87631651887023 
	-384.8690947511147442 3973.042842503770316 14499.06738640481126 
	-384.8690947511279319 3935.64296947016328 14500.46599391977725 
	-384.8690947511466334 3885.776198518320143 14498.60195180579467 
	-384.8690947511625495 3836.328737911613189 14491.14888326079563 
	-384.8690947511766467 3788.127936593332379 14478.23167454735449 
	-384.8690947511868217 3752.801999258882915 14465.87121045799358 
	-384.8690947511956892 3718.498728340636262 14450.90453222851102 
	-384.8690947512042158 3685.409736979329409 14433.41661203860349 
	-384.8690947512122875 3653.720226264894336 14413.50464442490011 
	-384.869094751215755 3623.607203954182751 14391.28037983772629 
	-384.8690947512236562 3595.239480197732973 14366.8676741072868 
	-384.8690947512298521 3568.774930177376973 14340.40363401127797 
	-384.869094751232069 3544.362903823996021 14312.03540227391568 
	-384.8690947512356502 3514.728931387061948 14271.88569651775106 
	-384.8690947512401408 3487.641919813831919 14224.97056893572153 
	-384.8690947512420166 3465.016794764293991 14171.293853558107 
	-384.8690947512432672 3450.299721873900126 14123.58365959281218 
	-384.8690947512438356 3442.05582825061083 14082.8012966118622 
	-384.8690947512441198 3437.92098588173485 14049.80467193854565 
	-384.8690947512442335 3436.057076032355781 14024.93338138219406 
	-384.8690947512438356 3435.435311861395348 14000.00009296810094 
	-384.8690947512437788 3436.26435163237602 13966.75574484005665 
	-384.8690947512424714 3441.234461286917394 13917.07508606662304 
	-384.8690947512390039 3456.0700149876875 13852.07152359816973 
	-384.8690947512345701 3478.907548999444316 13793.8848941070537 
	-384.8690947512316143 3502.226289904054738 13749.76702090575782 
	-384.8690947512291132 3528.774113240488077 13707.51330005452292 
	-384.869094751222633 3562.550669783586727 13665.1590647173507 
	-384.8690947512099001 3604.251198136225867 13624.48774837524434 
	-384.86909475120666 3643.286594818029243 13593.35751327474827 
	-384.8690947512021694 3681.732947148962467 13568.52646755049864 
	-384.869094751191426 3718.498564108324445 13549.09558686115815 
	-384.869094751186708 3752.801812701926337 13534.12899317191841 
	-384.8690947511740887 3788.127714993184782 13521.76819627936493 
	-384.8690947511611853 3830.303542226441095 13510.46668441788097 
	-384.869094751149305 3879.542878204080807 13502.1003429864686 
	-384.8690947511320246 3935.642727175564232 13498.94999667312732 
	-384.8690947511130389 3991.74252305519849 13502.10041649210689 
	-384.869094751092689 4040.981935233334752 13510.46668763938214 
	-384.8690947510770002 4083.157645137607233 13521.76837169799728 
	-384.869094751070179 4130.259263982779885 13538.24871256213373 
	-384.8690947510347087 4169.681835089804736 13557.2324376445431 
	-384.8690947510230558 4201.720922335588511 13576.53905268619928 
	-384.8690947510189062 4217.368673521948949 13586.78393994945509 
	-384.8690947510128808 4232.622203385799367 13597.60710076177202 
	-384.8690947510034448 4257.352848789689233 13616.58318108419553 
	-384.8690947509488183 4289.938927648610843 13645.70372676135776 
	-384.8690947508837326 4327.379726852981548 13687.60010803787918 
	-384.8690947508227964 4359.894175674096005 13733.42505769577292 
	-384.869094750715135 4387.073621974338494 13782.60223604383464 
	-384.8690947505340887 4408.575932505904348 13834.51344384720869 
	-384.8690947503603752 4421.538098772567537 13879.50702523020846 
	-384.8690947502985864 4428.836962456322908 13916.20284072621325 
	-384.8690947502472568 4432.759739276647451 13943.98825892481909 
	-384.8690947501891628 4434.725114067513459 13967.28967609621031 
	-384.8690947501712571 4435.413416362946919 13983.63926380786324 
	-384.8690947501655728 4435.585519636307254 13991.81888620633435 
	-384.8690947501643791 4435.628547034455551 13995.90930046157519 
	-384.8690947501638107 4435.640840624038901 13998.24676629677197 
	-384.869094750163697 4435.642889703675792 13999.41551355337833 
	-384.869094750163697 4435.642889679104883 13999.99988719049361 
	-301.5357614174254195 4435.642889679105792 13999.99988719049361 
	-301.53576141742559 4435.64288948254125 14004.67487628740855 
	-301.535761417432866 4435.511744847609407 14014.0248556091974 
	-301.5357614174388914 4434.725107842506986 14032.71009720899019 
	-301.5357614174630498 4432.759729937083648 14056.01151256816593 
	-301.5357614174845935 4428.836933988928649 14083.79692043209252 
	-301.5357614175037497 4421.538087843634457 14120.4927431929882 
	-301.5357614175754293 4411.168226568438513 14156.48753522439802 
	-301.5357614175900949 4397.824869193394079 14191.44194508951841 
	-301.5357614176090237 4382.543515447215213 14225.59358019882166 
	-301.5357614176605239 4359.894262991478172 14266.57470603525144 
	-301.5357614177033838 4327.379640415829272 14312.3995448556434 
	-301.5357614177472101 4289.938883905172588 14354.29592605512516 
	-301.5357614177856362 4249.594172583178988 14390.34989222439981 
	-301.5357614178149106 4207.366013172098974 14420.7096692606774 
	-301.5357614178266203 4174.93654458414585 14439.4329981633382 
	-301.5357614178298036 4152.607254298609405 14450.53112114181022 
	-301.5357614178313383 4137.541233428449232 14457.55636535984377 
	-301.5357614178394101 4103.067820180852323 14472.08964713166097 
	-301.5357614178545873 4059.265363426008207 14485.6004622206965 
	-301.5357614178599306 4010.233484466843493 14494.87631651887023 
	-301.5357614178694803 3973.042842503769862 14499.06738640481126 
	-301.5357614178756194 3935.64296947016328 14500.46599391977725 
	-301.5357614178846006 3885.776198518321053 14498.60195180579467 
	-301.5357614178917629 3836.328737911613644 14491.14888326079563 
	-301.5357614178987546 3788.127936593332834 14478.23167454735449 
	-301.5357614179032453 3752.80199925888337 14465.87121045799358 
	-301.5357614179077927 3718.498728340637172 14450.90453222851102 
	-301.5357614179115444 3685.409736979329409 14433.41661203860349 
	-301.5357614179155235 3653.720226264894336 14413.50464442490011 
	-301.5357614179171151 3623.607203954182751 14391.28037983772629 
	-301.5357614179208667 3595.239480197733428 14366.8676741072868 
	-301.5357614179239363 3568.774930177376973 14340.40363401127797 
	-301.5357614179245616 3544.362903823996021 14312.03540227391568 
	-301.535761417926949 3514.728931387061948 14271.88569651775106 
	-301.5357614179282564 3487.641919813831919 14224.97056893572153 
	-301.5357614179299048 3465.016794764293991 14171.293853558107 
	-301.5357614179299617 3450.299721873900126 14123.58365959281218 
	-301.5357614179306438 3442.055828250610375 14082.8012966118622 
	-301.5357614179305301 3437.920985881734396 14049.80467193854565 
	-301.535761417930587 3436.057076032355326 14024.93338138219406 
	-301.5357614179306438 3435.435311861394894 14000.00009296810094 
	-301.5357614179304164 3436.264351632375565 13966.75574484005665 
	-301.535761417929848 3441.234461286917394 13917.07508606662304 
	-301.5357614179283132 3456.070014987687046 13852.07152359816973 
	-301.5357614179261532 3478.907548999444771 13793.8848941070537 
	-301.5357614179248458 3502.226289904054283 13749.76702090575782 
	-301.5357614179234247 3528.774113240488077 13707.51330005452292 
	-301.535761417920412 3562.550669783586727 13665.1590647173507 
	-301.5357614179145003 3604.251198136225867 13624.48774837524434 
	-301.5357614179126813 3643.286594818029243 13593.35751327474827 
	-301.5357614179108623 3681.732947148962012 13568.52646755049864 
	-301.535761417905519 3718.49856410832399 13549.09558686115815 
	-301.5357614179032453 3752.801812701926792 13534.12899317191841 
	-301.5357614178973336 3788.127714993184782 13521.76819627936493 
	-301.5357614178911945 3830.30354222644155 13510.46668441788097 
	-301.5357614178857375 3879.542878204081717 13502.1003429864686 
	-301.5357614178774952 3935.642727175564687 13498.94999667312732 
	-301.5357614178684571 3991.742523055199399 13502.10041649210689 
	-301.5357614178590211 4040.981935233335662 13510.46668763938214 
	-301.5357614178516314 4083.157645137608142 13521.76837169799728 
	-301.5357614178483914 4130.259263982780794 13538.24871256213373 
	-301.5357614178315657 4169.681835089805645 13557.2324376445431 
	-301.535761417826393 4201.720922335589421 13576.53905268619928 
	-301.5357614178241192 4217.368673521949859 13586.78393994945509 
	-301.5357614178217318 4232.622203385800276 13597.60710076177202 
	-301.5357614178167296 4257.352848789690142 13616.58318108419553 
	-301.5357614177917185 4289.938927648611752 13645.70372676135776 
	-301.5357614177609094 4327.379726852982458 13687.60010803787918 
	-301.5357614177328287 4359.894175674096914 13733.42505769577292 
	-301.5357614176823517 4387.073621974339403 13782.60223604383464 
	-301.5357614175981666 4408.575932505905257 13834.51344384720869 
	-301.5357614175170511 4421.538098772568446 13879.50702523020846 
	-301.535761417488402 4428.836962456323818 13916.20284072621325 
	-301.5357614174643004 4432.759739276648361 13943.98825892481909 
	-301.5357614174373566 4434.725114067514369 13967.28967609621031 
	-301.5357614174288869 4435.413416362947828 13983.63926380786324 
	-301.535761417426329 4435.585519636308163 13991.81888620633435 
	-301.5357614174256469 4435.62854703445646 13995.90930046157519 
	-301.5357614174255332 4435.640840624039811 13998.24676629677197 
	-301.5357614174254195 4435.642889703676701 13999.41551355337833 
	-301.5357614174254195 4435.642889679105792 13999.99988719049361 
	-218.2024280840921335 4435.642889679105792 13999.99988719049361 
	-218.2024280840923041 4435.64288948254125 14004.67487628740855 
	-218.2024280840995232 4435.511744847609407 14014.0248556091974 
	-218.2024280841056338 4434.725107842506986 14032.71009720899019 
	-218.2024280841296786 4432.759729937083648 14056.01151256816593 
	-218.2024280841513075 4428.836933988928649 14083.79692043209252 
	-218.2024280841702932 4421.538087843634457 14120.4927431929882 
	-218.202428084242257 4411.168226568438513 14156.48753522439802 
	-218.2024280842567521 4397.824869193394079 14191.44194508951841 
	-218.2024280842757946 4382.543515447215213 14225.59358019882166 
	-218.2024280843270958 4359.894262991478172 14266.57470603525144 
	-218.2024280843701547 4327.379640415829272 14312.3995448556434 
	-218.202428084413782 4289.938883905172588 14354.29592605512516 
	-218.2024280844524924 4249.594172583178988 14390.34989222439981 
	-218.2024280844813404 4207.366013172098974 14420.7096692606774 
	-218.2024280844934765 4174.93654458414585 14439.4329981633382 
	-218.2024280844964323 4152.607254298609405 14450.53112114181022 
	-218.2024280844981092 4137.541233428449232 14457.55636535984377 
	-218.2024280845060389 4103.067820180852323 14472.08964713166097 
	-218.2024280845213298 4059.265363426007752 14485.6004622206965 
	-218.2024280845266446 4010.233484466843038 14494.87631651887023 
	-218.2024280845361375 3973.042842503769407 14499.06738640481126 
	-218.2024280845423618 3935.642969470162825 14500.46599391977725 
	-218.202428084551201 3885.776198518320598 14498.60195180579467 
	-218.2024280845585906 3836.328737911613189 14491.14888326079563 
	-218.202428084565355 3788.127936593332379 14478.23167454735449 
	-218.2024280845700446 3752.801999258882915 14465.87121045799358 
	-218.2024280845743647 3718.498728340636717 14450.90453222851102 
	-218.2024280845783153 3685.409736979328954 14433.41661203860349 
	-218.2024280845821806 3653.720226264893881 14413.50464442490011 
	-218.2024280845838291 3623.607203954182296 14391.28037983772629 
	-218.2024280845875523 3595.239480197732973 14366.8676741072868 
	-218.2024280845905082 3568.774930177376518 14340.40363401127797 
	-218.2024280845914461 3544.362903823995566 14312.03540227391568 
	-218.2024280845933504 3514.728931387061493 14271.88569651775106 
	-218.2024280845952262 3487.641919813831464 14224.97056893572153 
	-218.2024280845963631 3465.016794764293536 14171.293853558107 
	-218.2024280845968178 3450.299721873899671 14123.58365959281218 
	-218.2024280845971873 3442.05582825060992 14082.8012966118622 
	-218.202428084597301 3437.920985881733941 14049.80467193854565 
	-218.2024280845973578 3436.057076032354871 14024.93338138219406 
	-218.2024280845972442 3435.435311861394439 14000.00009296810094 
	-218.2024280845971589 3436.26435163237511 13966.75574484005665 
	-218.202428084596562 3441.23446128691694 13917.07508606662304 
	-218.2024280845949704 3456.070014987686591 13852.07152359816973 
	-218.2024280845928672 3478.907548999444316 13793.8848941070537 
	-218.2024280845914461 3502.226289904053829 13749.76702090575782 
	-218.2024280845901956 3528.774113240487623 13707.51330005452292 
	-218.2024280845870976 3562.550669783586272 13665.1590647173507 
	-218.202428084581129 3604.251198136225412 13624.48774837524434 
	-218.2024280845794522 3643.286594818028789 13593.35751327474827 
	-218.2024280845774058 3681.732947148961557 13568.52646755049864 
	-218.2024280845722615 3718.498564108323535 13549.09558686115815 
	-218.2024280845699877 3752.801812701926337 13534.12899317191841 
	-218.2024280845640476 3788.127714993184327 13521.76819627936493 
	-218.2024280845579369 3830.303542226441095 13510.46668441788097 
	-218.2024280845523379 3879.542878204081262 13502.1003429864686 
	-218.2024280845442092 3935.642727175564232 13498.94999667312732 
	-218.2024280845351996 3991.742523055198944 13502.10041649210689 
	-218.2024280845256783 4040.981935233335207 13510.46668763938214 
	-218.2024280845182886 4083.157645137607688 13521.76837169799728 
	-218.2024280845150201 4130.259263982780794 13538.24871256213373 
	-218.202428084498365 4169.681835089805645 13557.2324376445431 
	-218.2024280844929933 4201.720922335589421 13576.53905268619928 
	-218.2024280844909185 4217.368673521949859 13586.78393994945509 
	-218.2024280844882469 4232.622203385800276 13597.60710076177202 
	-218.2024280844836426 4257.352848789690142 13616.58318108419553 
	-218.2024280844582336 4289.938927648611752 13645.70372676135776 
	-218.2024280844277371 4327.379726852982458 13687.60010803787918 
	-218.2024280843994006 4359.894175674096914 13733.42505769577292 
	-218.2024280843491226 4387.073621974339403 13782.60223604383464 
	-218.2024280842647954 4408.575932505905257 13834.51344384720869 
	-218.2024280841837935 4421.538098772568446 13879.50702523020846 
	-218.2024280841550592 4428.836962456323818 13916.20284072621325 
	-218.2024280841310429 4432.759739276648361 13943.98825892481909 
	-218.2024280841040422 4434.725114067514369 13967.28967609621031 
	-218.2024280840955726 4435.413416362947828 13983.63926380786324 
	-218.2024280840929578 4435.585519636308163 13991.81888620633435 
	-218.2024280840923609 4435.62854703445646 13995.90930046157519 
	-218.2024280840921904 4435.640840624039811 13998.24676629677197 
	-218.2024280840921335 4435.642889703676701 13999.41551355337833 
	-218.2024280840921335 4435.642889679105792 13999.99988719049361 
	0 
	
	0 
	0 
	79 0 0.004464285714285714038 0.008928571428571428076 0.01785714285714285615 0.02678571428571428423 0.0357142857142857123 0.05357142857142856845 0.0625 0.07142857142857142461 0.08928571428571427382 0.1071428571428571369 0.125 0.1428571428571428492 0.1587301587301587213 0.1746031746031745935 0.1785714285714285476 0.1825396825396825295 0.1904761904761904656 0.2142857142857142738 0.226190476190476164 0.238095238095238082 0.2499999999999999722 0.2619047619047618625 0.2857142857142856984 0.2976190476190476164 0.3095238095238095344 0.3214285714285713969 0.3333333333333333148 0.3452380952380952328 0.3571428571428570953 0.3690476190476190133 0.3809523809523809312 0.3928571428571428492 0.4047619047619047672 0.4285714285714285476 0.4444444444444444198 0.4603174603174602919 0.476190476190476164 0.4841269841269840724 0.4920634920634920362 0.5 0.5079365079365079083 0.5238095238095237249 0.5476190476190475609 0.5714285714285713969 0.5833333333333332593 0.5952380952380951218 0.6190476190476189577 0.6349206349206348854 0.650793650793650702 0.6666666666666666297 0.6785714285714286031 0.6904761904761904656 0.7023809523809523281 0.7142857142857141906 0.7321428571428569843 0.749999999999999889 0.7678571428571427937 0.7857142857142855874 0.7976190476190474499 0.8095238095238094234 0.8333333333333332593 0.8392857142857141906 0.8452380952380951218 0.851190476190476053 0.8571428571428570953 0.875 0.8928571428571427937 0.9107142857142856984 0.9285714285714286031 0.9464285714285713969 0.9642857142857143016 0.9732142857142858094 0.9821428571428572063 0.9910714285714286031 0.9955357142857143016 0.9977678571428572063 0.9988839285714286031 0.9994419642857143016 
	0 
	0 
	0 
	F 1 F 0 F 1 F 0 } I I I I #
tcoedge-coedge $-1 -1 $-1 $14 $14 $18 $19 reversed $9 $20 -6.283185307179586232 -0 #
tcoedge-coedge $-1 -1 $-1 $21 $22 $11 $16 reversed $12 $23 -6.283185307179586232 -0 #
tedge-edge $-1 -1 $-1 $24 0 $24 6.283185307179586232 $15 $25 forward @7 unknown 0.0007203610419411733906 #
pcurve $-1 -1 $-1 0 forward { exppc nurbs 2 periodic 5 
	0 2 1.570796326794896558 2 3.141592653589793116 2 4.712388980384689674 2 6.283185307179586232 2 
	0 500 1 
	-500 500 0.707106781186543798 
	-500 0 1 
	-500 -500 0.7071067811865463515 
	0 -500 1 
	500 -500 0.7071067811865463515 
	500 0 1 
	500 500 0.707106781186543798 
	0 500 1 
	0 
	plane -218.202428084613075 3935.642797989818973 14000.00000000000182 1 -3.637978807091713027e-15 0 0 0 -1 forward_v I I I I 
	} 0 0 #
tcoedge-coedge $-1 -1 $-1 $22 $21 $14 $19 forward $12 $26 0 6.283185307179586232 #
tedge-edge $-1 -1 $-1 $27 0 $27 6.283185307179586232 $18 $28 forward @7 unknown 0.0007203610419412011462 #
pcurve $-1 -1 $-1 0 forward { exppc nurbs 2 periodic 5 
	-6.283185307179586232 2 -4.712388980384689674 2 -3.141592653589793116 2 -1.570796326794896558 2 0 2 
	0 500 1 
	500 500 0.707106781186543798 
	500 0 1 
	500 -500 0.7071067811865463515 
	0 -500 1 
	-500 -500 0.7071067811865463515 
	-500 0 1 
	-500 500 0.707106781186543798 
	0 500 1 
	0 
	plane -468.202428084613075 3935.642797989819883 14000.00000000000182 -1 3.637978807091713027e-15 -0 0 0 -1 reverse_v I I I I 
	} 0 0 #
coedge $-1 -1 $-1 $18 $15 $22 $29 reversed $12 $30 #
coedge $-1 -1 $-1 $15 $18 $21 $29 forward $12 $31 #
pcurve $-1 -1 $-1 0 forward { exppc nubs 1 periodic 2 
	-6.283185307179586232 1 -0 1 
	1 1 
	0 1 
	2.726396620975368931e-13 
	spline forward { ref 0 } I I I I 
	} 0 0 #
tvertex-vertex $-1 -1 $-1 $16 $32 0.0001453716388005034756 #
ellipse-curve $-1 -1 $-1 -218.202428084613075 3935.642797989818973 14000.00000000000182 1 -3.637978807091713027e-15 0 1.818989403545856476e-12 500 0 1 I I #
pcurve $-1 -1 $-1 0 forward { exppc nubs 1 periodic 2 
	0 1 6.283185307179586232 1 
	0 0 
	1 0 
	4.411402399551011509e-13 
	spline forward { ref 0 } I I I I 
	} 0 0 #
tvertex-vertex $-1 -1 $-1 $19 $33 0.0001453716382302072511 #
ellipse-curve $-1 -1 $-1 -468.202428084613075 3935.642797989819883 14000.00000000000182 1 -3.637978807091713027e-15 0 1.818989403545856476e-12 500 0 1 I I #
edge $-1 -1 $-1 $27 0 $24 1 $22 $34 forward @7 tangent #
pcurve $-1 -1 $-1 -1 $34 0 0 #
pcurve $-1 -1 $-1 1 $34 1 0 #
point $-1 -1 $-1 -218.2024280846112561 4435.642797989818973 14000.00000000000182 #
point $-1 -1 $-1 -468.2024280846112561 4435.642797989819883 14000.00000000000182 #
intcurve-curve $-1 -1 $-1 forward { parcur full nubs 3 open 2 
	0 3 1 3 
	-468.2024280834970114 4435.642889679105792 13999.99988719049361 
	-384.869094750163697 4435.642889679104883 13999.99988719049361 
	-301.5357614174254195 4435.642889679105792 13999.99988719049361 
	-218.2024280840921335 4435.642889679105792 13999.99988719049361 
	0 
	
	spline forward { ref 0 } I I I I 
	null_surface 
	nubs 1 open 2 
	0 1 1 1 
	0 0 
	0 1 
	
	nullbs 
	I I 
	0 
	0 
	0 
	surf1 } F 0 F 1 #
End-of-ACIS-data 