700 0 1 0           
4 LibG 20 ASM 224.0.1.65535 NT 24 Wed Jul 17 12:52:14 2019 
1000 9.999999999999999547e-07 1.000000000000000036e-10 
body $-1 -1 $-1 $1 $-1 $2 #
lump $-1 -1 $-1 $-1 $3 $0 #
transform $-1 -1 1 0 0 0 1 0 0 0 1 0 0 0 1 no_rotate no_reflect no_shear #
shell $-1 -1 $-1 $-1 $-1 $4 $-1 $1 #
face $-1 -1 $-1 $5 $6 $3 $-1 $7 forward single #
face $-1 -1 $-1 $8 $9 $3 $-1 $10 reversed single #
loop $-1 -1 $-1 $-1 $11 $4 #
plane-surface $-1 -1 $-1 11531.79757191538738 3935.642797989776227 14000.00000000000182 1 -3.637978807091713027e-15 0 0 0 -1 forward_v I I I I #
face $-1 -1 $-1 $-1 $12 $3 $-1 $13 forward single #
loop $-1 -1 $-1 $-1 $14 $5 #
plane-surface $-1 -1 $-1 11281.79757191538738 3935.642797989777137 14000.00000000000182 1 -3.637978807091713027e-15 0 0 0 -1 forward_v I I I I #
tcoedge-coedge $-1 -1 $-1 $11 $11 $15 $16 forward $6 $17 0 6.283185307179586232 #
loop $-1 -1 $-1 $-1 $18 $8 #
spline-surface $-1 -1 $-1 forward { exactsur full nubs 3 3 periodic open none none 86 2 
	0 3 0.001116071428571428509 1 0.002232142857142857019 1 0.004464285714285714038 1 0.008928571428571428076 1 
	0.01785714285714285615 1 0.0357142857142857123 1 0.05357142857142856845 1 0.07142857142857142461 1 0.08928571428571427382 1 
	0.1071428571428571369 1 0.1160714285714285754 1 0.125 1 0.1428571428571428492 1 0.1587301587301587213 1 
	0.1746031746031745935 1 0.1904761904761904656 1 0.2023809523809523836 1 0.2142857142857142738 1 0.238095238095238082 1 
	0.2619047619047618625 1 0.2738095238095237804 1 0.2857142857142856984 1 0.2916666666666666297 1 0.2976190476190476164 1 
	0.3095238095238095344 1 0.3214285714285713969 1 0.3333333333333333148 1 0.3452380952380952328 1 0.3571428571428570953 1 
	0.3630952380952380265 1 0.3690476190476190133 1 0.3809523809523809312 1 0.3928571428571428492 1 0.4047619047619047672 1 
	0.4166666666666666297 1 0.4285714285714285476 1 0.4444444444444444198 1 0.4603174603174602919 1 0.476190476190476164 1 
	0.4841269841269840724 1 0.4880952380952380265 1 0.4920634920634920362 1 0.5 1 0.5158730158730158166 1 
	0.5238095238095237249 1 0.5357142857142855874 1 0.5416666666666665186 1 0.5476190476190475609 1 0.5714285714285713969 1 
	0.5952380952380951218 1 0.6190476190476189577 1 0.6349206349206348854 1 0.650793650793650702 1 0.6666666666666666297 1 
	0.6785714285714286031 1 0.6904761904761904656 1 0.7023809523809523281 1 0.7142857142857141906 1 0.7321428571428569843 1 
	0.749999999999999889 1 0.7678571428571427937 1 0.7857142857142855874 1 0.7976190476190474499 1 0.8095238095238094234 1 
	0.8333333333333332593 1 0.8392857142857141906 1 0.8452380952380951218 1 0.8571428571428570953 1 0.875 1 
	0.8928571428571427937 1 0.9107142857142856984 1 0.9285714285714286031 1 0.9375 1 0.9464285714285713969 1 
	0.9642857142857143016 1 0.9732142857142858094 1 0.9821428571428572063 1 0.9910714285714286031 1 0.9955357142857143016 1 
	0.9977678571428572063 1 0.9988839285714286031 1 0.9994419642857143016 1 0.9997209821428572063 1 0.9998604910714286031 1 
	1 3 
	0 3 1 3 
	11281.79757216090729 4435.642941511997378 13999.99982425199414 
	11281.79757216091093 4435.642941500043889 14001.16857152066223 
	11281.79757216072358 4435.634746033840202 14003.50606616114601 
	11281.79757216054168 4435.58556987157499 14008.18082506997962 
	11281.79757215974678 4435.4134749417899 14016.3604482212686 
	11281.79757215673453 4434.725117487171701 14032.7100290638009 
	11281.79757214673191 4431.973863286340929 14065.33203758990749 
	11281.79757211464675 4424.130802900214803 14111.49398095500328 
	11281.79757208656702 4408.575813562109943 14165.48624368824676 
	11281.79757205875831 4387.073448920339615 14217.39732596798058 
	11281.79757202933797 4359.894269832252576 14266.57470160585035 
	11281.79757202266046 4332.798778760838104 14304.7620617727116 
	11281.79757201446228 4308.659382208433271 14333.34779711499505 
	11281.79757200665335 4282.956145430679499 14360.53602921303536 
	11281.79757200199128 4249.594230337826048 14390.34990068840852 
	11281.79757198237348 4207.36601023133062 14420.70968326091861 
	11281.79757198063271 4164.12657654954819 14445.67389108871612 
	11281.79757197663457 4122.408907224900759 14464.49775620676337 
	11281.79757197359504 4083.157772665100765 14478.23162551162386 
	11281.79757196938954 4034.957011295361553 14491.14840136832754 
	11281.79757196545688 3973.147651894106275 14500.46644771786487 
	11281.79757195666571 3910.639733012995748 14500.46484800013423 
	11281.79757195575803 3861.052169165468058 14494.8766330962244 
	11281.79757195234743 3830.407444610482344 14489.07870175800963 
	11281.79757195162892 3806.203091976472479 14483.07571580092372 
	11281.79757195082311 3782.240053589282979 14476.17221151560261 
	11281.79757194844024 3752.801825387856297 14465.87133130693837 
	11281.79757194644117 3718.498486057177615 14450.90492192618694 
	11281.79757194431659 3685.409502905359659 14433.41687348142113 
	11281.79757194243211 3653.719919804555957 14413.504989064857 
	11281.79757194167905 3628.625779642201906 14394.98471133497878 
	11281.79757194101148 3609.42295953398434 14379.07440736821445 
	11281.7975719406495 3590.828340058649246 14362.45736980971742 
	11281.79757193937257 3568.774773070465017 14340.40385624248665 
	11281.79757193822115 3544.362213752545813 14312.03592842019498 
	11281.79757193744626 3522.137831612782065 14281.92297820625754 
	11281.79757193726255 3502.226020788701589 14250.2333826879767 
	11281.79757193638216 3482.794655331554168 14213.46793243887078 
	11281.79757193583464 3465.01680432620924 14171.29393118842927 
	11281.79757193550358 3450.300252496977009 14123.58344670357474 
	11281.7975719351889 3442.056005013990671 14082.80125523384049 
	11281.79757193513979 3438.438112817772435 14053.92917091611889 
	11281.7975719351416 3436.989235598207415 14037.36895727873707 
	11281.79757193515616 3435.953770356232781 14020.7777678795901 
	11281.79757193525984 3435.227945537102187 13991.6889318738904 
	11281.79757193549631 3436.887160072393272 13958.44461549550033 
	11281.79757193576006 3441.53936036165851 13921.32344071786429 
	11281.79757193640398 3446.564207561557851 13894.76466769237777 
	11281.79757193657315 3452.567342942577397 13870.56038202153832 
	11281.7975719370861 3462.92179678156981 13834.61554527030785 
	11281.79757193871228 3483.474637770486424 13782.24747431666583 
	11281.79757194134436 3520.979152787691874 13717.28707896375454 
	11281.79757194356171 3562.550872814144896 13665.15911842921014 
	11281.79757194773811 3604.251168228801362 13624.48770081153998 
	11281.79757194880403 3643.286623357031658 13593.35750161840951 
	11281.79757195009915 3681.732947889564912 13568.52644512920233 
	11281.79757195358798 3718.49857300301619 13549.09557685998334 
	11281.79757195502862 3752.80181493138798 13534.12898168927313 
	11281.79757195900856 3788.127714826168813 13521.76819005035759 
	11281.79757196297214 3830.303537829572633 13510.46667890002027 
	11281.79757196658647 3879.542869846989106 13502.10034164775971 
	11281.79757197176514 3935.642717878873555 13498.94998974957889 
	11281.79757197723484 3991.742504377960358 13502.10042181981953 
	11281.79757198331026 4040.981927163370074 13510.46666367072066 
	11281.79757198726838 4083.157614737301628 13521.76838933097315 
	11281.79757198887273 4130.259213991840625 13538.24873895837845 
	11281.79757199911 4169.68179157258146 13557.23244760362468 
	11281.79757200214044 4201.720898961965759 13576.53903023356725 
	11281.79757200362292 4222.584510730515831 13590.19896081120351 
	11281.79757200975109 4252.697616807845407 13612.42316253986246 
	11281.79757202274959 4289.938957784470404 13645.70364024115406 
	11281.79757203800909 4327.379631710633475 13687.60012817763163 
	11281.79757205404348 4359.894262863239419 13733.42496367809144 
	11281.79757207097464 4382.543436199655844 13774.40614176028794 
	11281.79757207855619 4397.824816529656346 13808.55777392835262 
	11281.79757208363299 4411.168091607764836 13843.51221389355851 
	11281.79757211212382 4421.538281566561636 13879.50692078509019 
	11281.79757212989898 4428.836994891529685 13916.20278639179378 
	11281.79757214146412 4432.759816833584409 13943.98818842223409 
	11281.79757215527752 4434.725163307321054 13967.28961440183411 
	11281.79757215928475 4435.413469725953291 13983.63920045327359 
	11281.7975721605053 4435.585571523053659 13991.81882329796827 
	11281.7975721607927 4435.62859895127167 13995.90923750744514 
	11281.79757216087637 4435.639355862290358 13997.95452012692112 
	11281.79757216089456 4435.642045102764314 13998.97717084065698 
	11281.79757216090184 4435.642813462694903 13999.56154402785614 
	11281.79757216090547 4435.642941513491678 13999.85373084340972 
	11281.79757216090729 4435.642941511997378 13999.99982425199414 
	11365.13090549424123 4435.642941511996469 13999.99982425199414 
	11365.13090549424487 4435.64294150004298 14001.16857152066223 
	11365.13090549405752 4435.634746033839292 14003.50606616114601 
	11365.13090549387562 4435.58556987157408 14008.18082506997962 
	11365.13090549308072 4435.413474941788991 14016.3604482212686 
	11365.13090549006847 4434.725117487170792 14032.7100290638009 
	11365.13090548006585 4431.97386328634002 14065.33203758990749 
	11365.13090544798069 4424.130802900213894 14111.49398095500328 
	11365.13090541990096 4408.575813562109033 14165.48624368824676 
	11365.13090539209225 4387.073448920338706 14217.39732596798058 
	11365.13090536267191 4359.894269832251666 14266.57470160585035 
	11365.1309053559944 4332.798778760837195 14304.7620617727116 
	11365.13090534779622 4308.659382208432362 14333.34779711499505 
	11365.13090533998729 4282.956145430678589 14360.53602921303536 
	11365.13090533532522 4249.594230337825138 14390.34990068840852 
	11365.13090531570742 4207.36601023132971 14420.70968326091861 
	11365.13090531396665 4164.126576549547281 14445.67389108871612 
	11365.13090530996851 4122.408907224899849 14464.49775620676337 
	11365.13090530692898 4083.15777266510031 14478.23162551162386 
	11365.13090530272348 4034.957011295361099 14491.14840136832754 
	11365.13090529879082 3973.14765189410582 14500.46644771786487 
	11365.13090528999965 3910.639733012995293 14500.46484800013423 
	11365.13090528909197 3861.052169165467603 14494.8766330962244 
	11365.13090528568137 3830.407444610481889 14489.07870175800963 
	11365.13090528496286 3806.203091976472024 14483.07571580092372 
	11365.13090528415705 3782.240053589282525 14476.17221151560261 
	11365.13090528177418 3752.801825387855843 14465.87133130693837 
	11365.13090527977511 3718.498486057177161 14450.90492192618694 
	11365.13090527765053 3685.409502905359204 14433.41687348142113 
	11365.13090527576605 3653.719919804555502 14413.504989064857 
	11365.13090527501299 3628.625779642201451 14394.98471133497878 
	11365.13090527434542 3609.422959533983885 14379.07440736821445 
	11365.13090527398344 3590.828340058648791 14362.45736980971742 
	11365.13090527270651 3568.774773070464562 14340.40385624248665 
	11365.13090527155509 3544.362213752545358 14312.03592842019498 
	11365.1309052707802 3522.137831612781611 14281.92297820625754 
	11365.13090527059649 3502.226020788701135 14250.2333826879767 
	11365.1309052697161 3482.794655331553713 14213.46793243887078 
	11365.13090526916858 3465.016804326208785 14171.29393118842927 
	11365.13090526883752 3450.300252496976555 14123.58344670357474 
	11365.13090526852284 3442.056005013990216 14082.80125523384049 
	11365.13090526847373 3438.43811281777198 14053.92917091611889 
	11365.13090526847554 3436.98923559820696 14037.36895727873707 
	11365.1309052684901 3435.953770356232326 14020.7777678795901 
	11365.13090526859378 3435.227945537101732 13991.6889318738904 
	11365.13090526883025 3436.887160072392817 13958.44461549550033 
	11365.130905269094 3441.539360361658055 13921.32344071786429 
	11365.13090526973792 3446.564207561557396 13894.76466769237777 
	11365.13090526990709 3452.567342942576943 13870.56038202153832 
	11365.13090527042004 3462.921796781569356 13834.61554527030785 
	11365.13090527204622 3483.47463777048597 13782.24747431666583 
	11365.1309052746783 3520.979152787691419 13717.28707896375454 
	11365.13090527689565 3562.550872814144441 13665.15911842921014 
	11365.13090528107205 3604.251168228800907 13624.48770081153998 
	11365.13090528213797 3643.286623357031203 13593.35750161840951 
	11365.13090528343309 3681.732947889564457 13568.52644512920233 
	11365.13090528692192 3718.498573003015736 13549.09557685998334 
	11365.13090528836256 3752.801814931387526 13534.12898168927313 
	11365.1309052923425 3788.127714826168358 13521.76819005035759 
	11365.13090529630608 3830.303537829572178 13510.46667890002027 
	11365.13090529992041 3879.542869846988651 13502.10034164775971 
	11365.13090530509908 3935.6427178788731 13498.94998974957889 
	11365.13090531056878 3991.742504377959904 13502.10042181981953 
	11365.1309053166442 4040.981927163369619 13510.46666367072066 
	11365.13090532060232 4083.157614737301174 13521.76838933097315 
	11365.13090532220667 4130.259213991839715 13538.24873895837845 
	11365.13090533244394 4169.681791572580551 13557.23244760362468 
	11365.13090533547438 4201.720898961964849 13576.53903023356725 
	11365.13090533695686 4222.584510730514921 13590.19896081120351 
	11365.13090534308503 4252.697616807844497 13612.42316253986246 
	11365.13090535608353 4289.938957784469494 13645.70364024115406 
	11365.13090537134303 4327.379631710632566 13687.60012817763163 
	11365.13090538737742 4359.894262863238509 13733.42496367809144 
	11365.13090540430858 4382.543436199654934 13774.40614176028794 
	11365.13090541189013 4397.824816529655436 13808.55777392835262 
	11365.13090541696693 4411.168091607763927 13843.51221389355851 
	11365.13090544545776 4421.538281566560727 13879.50692078509019 
	11365.13090546323292 4428.836994891528775 13916.20278639179378 
	11365.13090547479806 4432.7598168335835 13943.98818842223409 
	11365.13090548861146 4434.725163307320145 13967.28961440183411 
	11365.13090549261869 4435.413469725952382 13983.63920045327359 
	11365.13090549383924 4435.585571523052749 13991.81882329796827 
	11365.13090549412664 4435.62859895127076 13995.90923750744514 
	11365.13090549421031 4435.639355862289449 13997.95452012692112 
	11365.1309054942285 4435.642045102763404 13998.97717084065698 
	11365.13090549423578 4435.642813462693994 13999.56154402785614 
	11365.13090549423941 4435.642941513490769 13999.85373084340972 
	11365.13090549424123 4435.642941511996469 13999.99982425199414 
	11448.46423883300668 4435.642941511995559 13999.99982425199414 
	11448.46423883300849 4435.64294150004207 14001.16857152066223 
	11448.46423883281932 4435.634746033837473 14003.50606616114601 
	11448.46423883263378 4435.585569871572261 14008.18082506997962 
	11448.46423883181888 4435.413474941787172 14016.3604482212686 
	11448.46423882874296 4434.725117487169882 14032.7100290638009 
	11448.46423881851661 4431.973863286338201 14065.33203758990749 
	11448.46423878572205 4424.130802900213894 14111.49398095500328 
	11448.46423875701839 4408.575813562108124 14165.48624368824676 
	11448.46423872859486 4387.073448920337796 14217.39732596798058 
	11448.46423869852515 4359.894269832251666 14266.57470160585035 
	11448.4642386917003 4332.798778760838104 14304.7620617727116 
	11448.46423868332204 4308.659382208433271 14333.34779711499505 
	11448.46423867534031 4282.956145430678589 14360.53602921303536 
	11448.46423867057274 4249.594230337825138 14390.34990068840852 
	11448.4642386505202 4207.36601023133062 14420.70968326091861 
	11448.46423864874123 4164.126576549547281 14445.67389108871612 
	11448.46423864465578 4122.408907224900759 14464.49775620676337 
	11448.46423864154895 4083.157772665100765 14478.23162551162386 
	11448.46423863725067 4034.957011295361553 14491.14840136832754 
	11448.46423863323071 3973.147651894106275 14500.46644771786487 
	11448.46423862424126 3910.639733012994839 14500.46484800013423 
	11448.4642386233154 3861.052169165467149 14494.8766330962244 
	11448.46423861983021 3830.407444610481434 14489.07870175800963 
	11448.46423861909534 3806.203091976472024 14483.07571580092372 
	11448.46423861827134 3782.240053589282525 14476.17221151560261 
	11448.46423861583935 3752.801825387855843 14465.87133130693837 
	11448.46423861379299 3718.498486057177615 14450.90492192618694 
	11448.46423861162293 3685.409502905359659 14433.41687348142113 
	11448.46423860969662 3653.719919804555502 14413.504989064857 
	11448.46423860892537 3628.62577964220236 14394.98471133497878 
	11448.46423860824325 3609.42295953398434 14379.07440736821445 
	11448.46423860787399 3590.828340058648791 14362.45736980971742 
	11448.46423860656978 3568.774773070465017 14340.40385624248665 
	11448.46423860539289 3544.362213752545358 14312.03592842019498 
	11448.46423860460163 3522.137831612781611 14281.92297820625754 
	11448.46423860441428 3502.226020788701589 14250.2333826879767 
	11448.4642386035157 3482.794655331554168 14213.46793243887078 
	11448.46423860295363 3465.01680432620924 14171.29393118842927 
	11448.46423860261893 3450.300252496977464 14123.58344670357474 
	11448.46423860229515 3442.056005013990216 14082.80125523384049 
	11448.46423860224786 3438.438112817772435 14053.92917091611889 
	11448.46423860224968 3436.989235598207415 14037.36895727873707 
	11448.46423860226423 3435.953770356232781 14020.7777678795901 
	11448.46423860236791 3435.227945537102187 13991.6889318738904 
	11448.46423860261166 3436.887160072392817 13958.44461549550033 
	11448.46423860288087 3441.539360361658055 13921.32344071786429 
	11448.4642386035357 3446.564207561557396 13894.76466769237777 
	11448.46423860370851 3452.567342942576943 13870.56038202153832 
	11448.46423860423056 3462.921796781568901 13834.61554527030785 
	11448.46423860589312 3483.474637770485515 13782.24747431666583 
	11448.46423860858522 3520.979152787690964 13717.28707896375454 
	11448.46423861084986 3562.550872814143986 13665.15911842921014 
	11448.46423861512267 3604.251168228800452 13624.48770081153998 
	11448.4642386162086 3643.286623357030749 13593.35750161840951 
	11448.46423861753283 3681.732947889564002 13568.52644512920233 
	11448.46423862109805 3718.498573003015736 13549.09557685998334 
	11448.46423862256961 3752.801814931387526 13534.12898168927313 
	11448.46423862663687 3788.127714826167903 13521.76819005035759 
	11448.46423863068958 3830.303537829571724 13510.46667890002027 
	11448.46423863438213 3879.542869846987742 13502.10034164775971 
	11448.46423863967902 3935.64271787887219 13498.94998974957889 
	11448.46423864526696 3991.742504377959449 13502.10042181981953 
	11448.46423865147881 4040.981927163368709 13510.46666367072066 
	11448.46423865552424 4083.157614737300719 13521.76838933097315 
	11448.46423865716497 4130.259213991838806 13538.24873895837845 
	11448.46423866762962 4169.681791572580551 13557.23244760362468 
	11448.46423867072554 4201.72089896196394 13576.53903023356725 
	11448.46423867224257 4222.584510730514012 13590.19896081120351 
	11448.46423867850717 4252.697616807843588 13612.42316253986246 
	11448.46423869179125 4289.938957784469494 13645.70364024115406 
	11448.46423870738909 4327.379631710631656 13687.60012817763163 
	11448.46423872378 4359.894262863238509 13733.42496367809144 
	11448.46423874108405 4382.543436199654934 13774.40614176028794 
	11448.46423874883476 4397.824816529654527 13808.55777392835262 
	11448.46423875402616 4411.168091607763017 13843.51221389355851 
	11448.46423878314636 4421.538281566559817 13879.50692078509019 
	11448.46423880131442 4428.836994891527866 13916.20278639179378 
	11448.46423881313603 4432.7598168335835 13943.98818842223409 
	11448.46423882725685 4434.725163307320145 13967.28961440183411 
	11448.46423883135139 4435.413469725952382 13983.63920045327359 
	11448.46423883259922 4435.58557152305184 13991.81882329796827 
	11448.4642388328939 4435.62859895127076 13995.90923750744514 
	11448.46423883298121 4435.639355862289449 13997.95452012692112 
	11448.46423883299758 4435.642045102763404 13998.97717084065698 
	11448.46423883300304 4435.642813462692175 13999.56154402785614 
	11448.46423883300668 4435.642941513489859 13999.85373084340972 
	11448.46423883300668 4435.642941511995559 13999.99982425199414 
	11531.79757216634061 4435.642941511995559 13999.99982425199414 
	11531.79757216634243 4435.64294150004207 14001.16857152066223 
	11531.79757216615326 4435.634746033837473 14003.50606616114601 
	11531.79757216596772 4435.585569871572261 14008.18082506997962 
	11531.79757216515281 4435.413474941787172 14016.3604482212686 
	11531.7975721620769 4434.725117487169882 14032.7100290638009 
	11531.79757215185055 4431.973863286338201 14065.33203758990749 
	11531.79757211905599 4424.130802900213894 14111.49398095500328 
	11531.79757209035233 4408.575813562108124 14165.48624368824676 
	11531.7975720619288 4387.073448920337796 14217.39732596798058 
	11531.79757203185909 4359.894269832251666 14266.57470160585035 
	11531.79757202503424 4332.798778760838104 14304.7620617727116 
	11531.79757201665598 4308.659382208433271 14333.34779711499505 
	11531.79757200867425 4282.956145430678589 14360.53602921303536 
	11531.79757200390668 4249.594230337825138 14390.34990068840852 
	11531.79757198385414 4207.36601023133062 14420.70968326091861 
	11531.79757198207517 4164.126576549547281 14445.67389108871612 
	11531.79757197798972 4122.408907224900759 14464.49775620676337 
	11531.79757197488289 4083.15777266510031 14478.23162551162386 
	11531.79757197058461 4034.957011295361099 14491.14840136832754 
	11531.79757196656465 3973.14765189410582 14500.46644771786487 
	11531.7975719575752 3910.639733012994384 14500.46484800013423 
	11531.79757195664934 3861.052169165466694 14494.8766330962244 
	11531.79757195316415 3830.407444610480979 14489.07870175800963 
	11531.79757195242928 3806.203091976471569 14483.07571580092372 
	11531.79757195160528 3782.24005358928207 14476.17221151560261 
	11531.79757194917329 3752.801825387855388 14465.87133130693837 
	11531.79757194712693 3718.498486057177161 14450.90492192618694 
	11531.79757194495687 3685.409502905359204 14433.41687348142113 
	11531.79757194303056 3653.719919804555047 14413.504989064857 
	11531.79757194225931 3628.625779642201906 14394.98471133497878 
	11531.79757194157719 3609.422959533983885 14379.07440736821445 
	11531.79757194120793 3590.828340058648337 14362.45736980971742 
	11531.79757193990372 3568.774773070464562 14340.40385624248665 
	11531.79757193872683 3544.362213752544903 14312.03592842019498 
	11531.79757193793557 3522.137831612781156 14281.92297820625754 
	11531.79757193774822 3502.226020788701135 14250.2333826879767 
	11531.79757193684964 3482.794655331553713 14213.46793243887078 
	11531.79757193628757 3465.016804326208785 14171.29393118842927 
	11531.79757193595287 3450.300252496977009 14123.58344670357474 
	11531.79757193562909 3442.056005013989761 14082.80125523384049 
	11531.7975719355818 3438.43811281777198 14053.92917091611889 
	11531.79757193558362 3436.98923559820696 14037.36895727873707 
	11531.79757193559817 3435.953770356232326 14020.7777678795901 
	11531.79757193570185 3435.227945537101732 13991.6889318738904 
	11531.7975719359456 3436.887160072392362 13958.44461549550033 
	11531.79757193621481 3441.5393603616576 13921.32344071786429 
	11531.79757193686964 3446.564207561556941 13894.76466769237777 
	11531.79757193704245 3452.567342942576488 13870.56038202153832 
	11531.7975719375645 3462.921796781568446 13834.61554527030785 
	11531.79757193922705 3483.47463777048506 13782.24747431666583 
	11531.79757194191916 3520.979152787690509 13717.28707896375454 
	11531.7975719441838 3562.550872814143531 13665.15911842921014 
	11531.79757194845661 3604.251168228799997 13624.48770081153998 
	11531.79757194954254 3643.286623357030294 13593.35750161840951 
	11531.79757195086677 3681.732947889563548 13568.52644512920233 
	11531.79757195443199 3718.498573003015281 13549.09557685998334 
	11531.79757195590355 3752.801814931387071 13534.12898168927313 
	11531.79757195997081 3788.127714826167448 13521.76819005035759 
	11531.79757196402352 3830.303537829571269 13510.46667890002027 
	11531.79757196771607 3879.542869846987287 13502.10034164775971 
	11531.79757197301296 3935.642717878871736 13498.94998974957889 
	11531.7975719786009 3991.742504377958994 13502.10042181981953 
	11531.79757198481275 4040.981927163368255 13510.46666367072066 
	11531.79757198885818 4083.157614737300264 13521.76838933097315 
	11531.79757199049891 4130.259213991838806 13538.24873895837845 
	11531.79757200096356 4169.681791572580551 13557.23244760362468 
	11531.79757200405948 4201.72089896196394 13576.53903023356725 
	11531.79757200557651 4222.584510730514012 13590.19896081120351 
	11531.79757201184111 4252.697616807843588 13612.42316253986246 
	11531.79757202512519 4289.938957784469494 13645.70364024115406 
	11531.79757204072303 4327.379631710631656 13687.60012817763163 
	11531.79757205711394 4359.894262863238509 13733.42496367809144 
	11531.79757207441799 4382.543436199654934 13774.40614176028794 
	11531.7975720821687 4397.824816529654527 13808.55777392835262 
	11531.79757208736009 4411.168091607763017 13843.51221389355851 
	11531.7975721164803 4421.538281566559817 13879.50692078509019 
	11531.79757213464836 4428.836994891527866 13916.20278639179378 
	11531.79757214646997 4432.7598168335835 13943.98818842223409 
	11531.79757216059079 4434.725163307320145 13967.28961440183411 
	11531.79757216468533 4435.413469725952382 13983.63920045327359 
	11531.79757216593316 4435.58557152305184 13991.81882329796827 
	11531.79757216622784 4435.62859895127076 13995.90923750744514 
	11531.79757216631515 4435.639355862289449 13997.95452012692112 
	11531.79757216633152 4435.642045102763404 13998.97717084065698 
	11531.79757216633698 4435.642813462692175 13999.56154402785614 
	11531.79757216634061 4435.642941513489859 13999.85373084340972 
	11531.79757216634061 4435.642941511995559 13999.99982425199414 
	0 
	
	0 
	0 
	83 0 0.001116071428571428509 0.002232142857142857019 0.004464285714285714038 0.008928571428571428076 0.01785714285714285615 0.0357142857142857123 0.05357142857142856845 0.07142857142857142461 0.08928571428571427382 0.1071428571428571369 0.1160714285714285754 0.125 0.1428571428571428492 0.1587301587301587213 0.1746031746031745935 0.1904761904761904656 0.2023809523809523836 0.2142857142857142738 0.238095238095238082 0.2619047619047618625 0.2738095238095237804 0.2857142857142856984 0.2916666666666666297 0.2976190476190476164 0.3095238095238095344 0.3214285714285713969 0.3333333333333333148 0.3452380952380952328 0.3571428571428570953 0.3630952380952380265 0.3690476190476190133 0.3809523809523809312 0.3928571428571428492 0.4047619047619047672 0.4166666666666666297 0.4285714285714285476 0.4444444444444444198 0.4603174603174602919 0.476190476190476164 0.4880952380952380265 0.4920634920634920362 0.5 0.5158730158730158166 0.5238095238095237249 0.5357142857142855874 0.5416666666666665186 0.5476190476190475609 0.5714285714285713969 0.5952380952380951218 0.6190476190476189577 0.6349206349206348854 0.650793650793650702 0.6666666666666666297 0.6785714285714286031 0.6904761904761904656 0.7023809523809523281 0.7142857142857141906 0.7321428571428569843 0.749999999999999889 0.7678571428571427937 0.7857142857142855874 0.7976190476190474499 0.8095238095238094234 0.8333333333333332593 0.8392857142857141906 0.8452380952380951218 0.8571428571428570953 0.875 0.8928571428571427937 0.9107142857142856984 0.9285714285714286031 0.9375 0.9464285714285713969 0.9642857142857143016 0.9732142857142858094 0.9821428571428572063 0.9910714285714286031 0.9955357142857143016 0.9977678571428572063 0.9988839285714286031 0.9997209821428572063 0.9998604910714286031 
	0 
	0 
	0 
	F 1 F 0 F 1 F 0 } I I I I #
tcoedge-coedge $-1 -1 $-1 $14 $14 $18 $19 reversed $9 $20 -6.283185307179586232 -0 #
tcoedge-coedge $-1 -1 $-1 $21 $22 $11 $16 reversed $12 $23 -6.283185307179586232 -0 #
tedge-edge $-1 -1 $-1 $24 0 $24 6.283185307179586232 $15 $25 forward @7 unknown 0.0007543842211022113884 #
pcurve $-1 -1 $-1 0 forward { exppc nurbs 2 periodic 5 
	0 2 1.570796326794896558 2 3.141592653589793116 2 4.712388980384689674 2 6.283185307179586232 2 
	0 500 1 
	-500 500 0.707106781186543798 
	-500 0 1 
	-500 -500 0.7071067811865463515 
	0 -500 1 
	500 -500 0.7071067811865463515 
	500 0 1 
	500 500 0.707106781186543798 
	0 500 1 
	0 
	plane 11531.79757191538738 3935.642797989776227 14000.00000000000182 1 -3.637978807091713027e-15 0 0 0 -1 forward_v I I I I 
	} 0 0 #
tcoedge-coedge $-1 -1 $-1 $22 $21 $14 $19 forward $12 $26 0 6.283185307179586232 #
tedge-edge $-1 -1 $-1 $27 0 $27 6.283185307179586232 $18 $28 forward @7 unknown 0.0007543842221819435038 #
pcurve $-1 -1 $-1 0 forward { exppc nurbs 2 periodic 5 
	-6.283185307179586232 2 -4.712388980384689674 2 -3.141592653589793116 2 -1.570796326794896558 2 0 2 
	0 500 1 
	500 500 0.707106781186543798 
	500 0 1 
	500 -500 0.7071067811865463515 
	0 -500 1 
	-500 -500 0.7071067811865463515 
	-500 0 1 
	-500 500 0.707106781186543798 
	0 500 1 
	0 
	plane 11281.79757191538738 3935.642797989777137 14000.00000000000182 -1 3.637978807091713027e-15 -0 0 0 -1 reverse_v I I I I 
	} 0 0 #
coedge $-1 -1 $-1 $18 $15 $22 $29 reversed $12 $30 #
coedge $-1 -1 $-1 $15 $18 $21 $29 forward $12 $31 #
pcurve $-1 -1 $-1 0 forward { exppc nubs 1 periodic 2 
	-6.283185307179586232 1 -0 1 
	1 1 
	0 1 
	2.726396620975368931e-13 
	spline forward { ref 0 } I I I I 
	} 0 0 #
tvertex-vertex $-1 -1 $-1 $16 $32 0.0002269053925304961004 #
ellipse-curve $-1 -1 $-1 11531.79757191538738 3935.642797989776227 14000.00000000000182 1 -3.637978807091713027e-15 0 1.818989403545856476e-12 500 0 1 I I #
pcurve $-1 -1 $-1 0 forward { exppc nubs 1 periodic 2 
	0 1 6.283185307179586232 1 
	0 0 
	1 0 
	4.4114023995510105e-13 
	spline forward { ref 0 } I I I I 
	} 0 0 #
tvertex-vertex $-1 -1 $-1 $19 $33 0.000226905387161709793 #
ellipse-curve $-1 -1 $-1 11281.79757191538738 3935.642797989777137 14000.00000000000182 1 -3.637978807091713027e-15 0 1.818989403545856476e-12 500 0 1 I I #
edge $-1 -1 $-1 $27 0 $24 0.9999999989961942948 $22 $34 forward @7 tangent #
pcurve $-1 -1 $-1 -1 $34 0 0 #
pcurve $-1 -1 $-1 1 $34 1 0 #
point $-1 -1 $-1 11531.7975719153892 4435.642797989776227 14000.00000000000182 #
point $-1 -1 $-1 11281.7975719153892 4435.642797989777137 14000.00000000000182 #
intcurve-curve $-1 -1 $-1 forward { parcur full nubs 3 open 2 
	0 3 1 3 
	11281.79757216090729 4435.642941511997378 13999.99982425199414 
	11365.13090549424123 4435.642941511996469 13999.99982425199414 
	11448.46423883300668 4435.642941511995559 13999.99982425199414 
	11531.79757216634061 4435.642941511995559 13999.99982425199414 
	0 
	
	spline forward { ref 0 } I I I I 
	null_surface 
	nubs 1 open 2 
	0 1 1 1 
	0 0 
	0 1 
	
	nullbs 
	I I 
	0 
	0 
	0 
	surf1 } F 0 F 0.9999999989961942948 #
End-of-ACIS-data 