700 0 1 0           
4 LibG 20 ASM 224.0.1.65535 NT 24 Wed Jul 17 12:52:13 2019 
1000 9.999999999999999547e-07 1.000000000000000036e-10 
body $-1 -1 $-1 $1 $-1 $2 #
lump $-1 -1 $-1 $-1 $3 $0 #
transform $-1 -1 1 0 0 0 1 0 0 0 1 0 0 0 1 no_rotate no_reflect no_shear #
shell $-1 -1 $-1 $-1 $-1 $4 $-1 $1 #
face $-1 -1 $-1 $5 $6 $3 $-1 $7 forward single #
face $-1 -1 $-1 $8 $9 $3 $-1 $10 reversed single #
loop $-1 -1 $-1 $-1 $11 $4 #
plane-surface $-1 -1 $-1 7281.79757191538738 3935.642797989791688 14000.00000000000182 1 -3.637978807091713027e-15 0 0 0 -1 forward_v I I I I #
face $-1 -1 $-1 $-1 $12 $3 $-1 $13 forward single #
loop $-1 -1 $-1 $-1 $14 $5 #
plane-surface $-1 -1 $-1 7031.79757191538738 3935.642797989792598 14000.00000000000182 1 -3.637978807091713027e-15 0 0 0 -1 forward_v I I I I #
tcoedge-coedge $-1 -1 $-1 $11 $11 $15 $16 forward $6 $17 0 6.283185307179586232 #
loop $-1 -1 $-1 $-1 $18 $8 #
spline-surface $-1 -1 $-1 forward { exactsur full nubs 3 3 periodic open none none 97 2 
	0 3 0.001116071428571428509 1 0.002232142857142857019 1 0.004464285714285714038 1 0.008928571428571428076 1 
	0.01785714285714285615 1 0.0357142857142857123 1 0.05357142857142856845 1 0.07142857142857142461 1 0.08928571428571427382 1 
	0.1071428571428571369 1 0.1160714285714285754 1 0.125 1 0.1428571428571428492 1 0.1587301587301587213 1 
	0.1746031746031745935 1 0.1904761904761904656 1 0.2023809523809523836 1 0.2142857142857142738 1 0.226190476190476164 1 
	0.238095238095238082 1 0.2499999999999999722 1 0.2619047619047618625 1 0.2738095238095237804 1 0.2857142857142856984 1 
	0.2976190476190476164 1 0.3095238095238095344 1 0.3125 1 0.3154761904761904656 1 0.3214285714285713969 1 
	0.3273809523809523281 1 0.3333333333333333148 1 0.3452380952380952328 1 0.3571428571428570953 1 0.3690476190476190133 1 
	0.375 1 0.3779761904761904656 1 0.3809523809523809312 1 0.3869047619047618625 1 0.3898809523809523281 1 
	0.3928571428571428492 1 0.4047619047619047672 1 0.4166666666666666297 1 0.4285714285714285476 1 0.4444444444444444198 1 
	0.4603174603174602919 1 0.476190476190476164 1 0.4771825396825396526 1 0.4781746031746031411 1 0.4791666666666666297 1 
	0.4801587301587301182 1 0.4841269841269840724 1 0.4880952380952380265 1 0.4900793650793650036 1 0.4920634920634920362 1 
	0.5158730158730158166 1 0.5178571428571427937 1 0.5198412698412697708 1 0.5218253968253967479 1 0.5238095238095237249 1 
	0.5476190476190475609 1 0.5714285714285713969 1 0.5952380952380951218 1 0.6190476190476189577 1 0.6349206349206348854 1 
	0.650793650793650702 1 0.6666666666666666297 1 0.6785714285714286031 1 0.6904761904761904656 1 0.7023809523809523281 1 
	0.7142857142857141906 1 0.7321428571428569843 1 0.749999999999999889 1 0.7678571428571427937 1 0.7857142857142855874 1 
	0.7976190476190474499 1 0.8095238095238094234 1 0.8333333333333332593 1 0.8392857142857141906 1 0.8452380952380951218 1 
	0.8571428571428570953 1 0.875 1 0.8928571428571427937 1 0.9107142857142856984 1 0.9285714285714286031 1 
	0.9464285714285713969 1 0.9642857142857143016 1 0.9732142857142858094 1 0.9821428571428572063 1 0.9910714285714286031 1 
	0.9955357142857143016 1 0.9977678571428572063 1 0.9988839285714286031 1 0.9994419642857143016 1 0.9997209821428572063 1 
	0.9998604910714286031 1 1 3 
	0 3 1 3 
	7031.797571836053066 4435.642905362014062 13999.9998943064129 
	7031.797571836057614 4435.642905354884533 14001.16864157918098 
	7031.797571836114912 4435.63470994416366 14003.50613626360246 
	7031.79757183617221 4435.585533870472318 14008.18089524723473 
	7031.797571836421412 4435.413439155442575 14016.36051860445332 
	7031.797571837350006 4434.725083479878776 14032.71010103517619 
	7031.797571840341334 4431.973830937538878 14065.33211196987213 
	7031.797571849962878 4424.130796872959763 14111.49407958388292 
	7031.797571857727235 4408.575797460121976 14165.48634085292542 
	7031.797571866223734 4387.07350036952721 14217.3974796203147 
	7031.797571872703884 4359.894235711520196 14266.57480112560916 
	7031.797571879422321 4332.798665032806639 14304.76212423395918 
	7031.797571881210388 4308.659426792625709 14333.34799368136373 
	7031.797571882959346 4282.956049372224697 14360.53608097092365 
	7031.79757188788426 4249.594188292983745 14390.3500500617647 
	7031.79757189204156 4207.366016862785727 14420.70985293866943 
	7031.797571894241628 4164.126538204297503 14445.67404829147745 
	7031.797571895885994 4122.408884052332724 14464.49786285655864 
	7031.797571897962371 4083.157824874352627 14478.23210258192012 
	7031.797571899646755 4047.007046976800666 14487.91880969585327 
	7031.79757190041073 4010.233409060669601 14494.87665719086363 
	7031.797571901716765 3973.04266021000285 14499.06707399148218 
	7031.79757190293094 3935.642742891946 14500.46647198422215 
	7031.797571904075994 3898.242831424090582 14499.06707101275788 
	7031.797571905117366 3861.052071068640998 14494.87668141759423 
	7031.797571906177836 3824.278456053058562 14487.91873573112025 
	7031.79757190699911 3788.127626594590311 14478.23216628492082 
	7031.797571907896781 3761.633240983369888 14468.96135786951891 
	7031.797571908009559 3744.289835716107973 14461.96669599162851 
	7031.797571908066857 3732.816768111387319 14457.08823772087999 
	7031.79757190825876 3718.650244420235595 14450.58948486385634 
	7031.797571908437931 3701.953918088891442 14442.16076306938339 
	7031.797571908628925 3680.127875218691315 14430.09802055795262 
	7031.79757190933924 3653.719876072530951 14413.50482925319739 
	7031.797571909503858 3623.606893640886483 14391.28050966927731 
	7031.797571910225997 3599.96699336425263 14370.93666979891896 
	7031.79757191032968 3584.251848646844792 14355.79845393138567 
	7031.797571910381521 3575.519024178464406 14346.90079014673029 
	7031.797571910406077 3566.954106578481969 14337.84138372178859 
	7031.797571910519764 3558.645543502454984 14328.54411341010746 
	7031.797571910540682 3550.602075613096986 14319.01871137668604 
	7031.797571910585248 3538.806112118696092 14304.50753705337956 
	7031.797571910956322 3522.137749802608596 14281.92287816892531 
	7031.797571911123669 3502.225995077978041 14250.23324246126322 
	7031.797571911310115 3482.794659043349839 14213.46779765007159 
	7031.797571911487466 3465.0166164007519 14171.29388327628476 
	7031.797571911658451 3450.300207631444664 14123.58335187631565 
	7031.797571911879459 3443.498541968114296 14089.93809614641214 
	7031.797571911897649 3440.769119501117075 14071.43831081806093 
	7031.797571911897649 3440.33343565877567 14068.35223900200799 
	7031.797571911899468 3439.917001096353488 14065.2635108018967 
	7031.797571911899468 3439.122646000258101 14059.08098336329022 
	7031.797571911907653 3438.075719795748228 14049.78907469698061 
	7031.797571911909472 3437.170149898028285 14039.43893818053766 
	7031.797571911910381 3436.600788255958378 14031.14721566817025 
	7031.797571911904015 3434.969131918876428 14002.10358355385688 
	7031.79757191184035 3435.696543937629031 13972.94251045802775 
	7031.797571911819432 3438.773896388717731 13944.01631524786353 
	7031.797571911815794 3439.510337817715026 13937.82653646105246 
	7031.797571911813975 3440.324030200103152 13931.64643107916163 
	7031.797571911746672 3444.479756908742274 13902.8554265093735 
	7031.797571911286468 3456.070762527634542 13852.07159631198374 
	7031.797571910770785 3483.474856850717515 13782.24741003830241 
	7031.797571909935868 3520.979214989325556 13717.28706456682266 
	7031.797571909383805 3562.550991215168779 13665.15909821242349 
	7031.797571908105056 3604.251241479410055 13624.4876829213099 
	7031.797571908008649 3643.286712569789415 13593.35750712112531 
	7031.797571907140991 3681.733035218667737 13568.52644099281861 
	7031.797571906277881 3718.498615577253076 13549.0955108008875 
	7031.797571905899531 3752.801873977145533 13534.1289448625248 
	7031.79757190487453 3788.127764154062788 13521.76814524590736 
	7031.797571903839525 3830.303588894892073 13510.46664279905235 
	7031.79757190289547 3879.542918424314394 13502.10030607572116 
	7031.797571901523952 3935.642766537546777 13498.94995885886419 
	7031.79757190006967 3991.742552571455235 13502.10039375897941 
	7031.797571898434398 4040.981975816864178 13510.46663913596785 
	7031.797571897363014 4083.157663686169144 13521.76836680127053 
	7031.797571896922818 4130.259263400333111 13538.24871703992358 
	7031.797571894098837 4169.681842222255 13557.2324307010058 
	7031.797571893250279 4201.720951165851147 13576.53901414533721 
	7031.797571892842825 4222.584561293878323 13590.1989461607227 
	7031.797571891079315 4252.697679600762058 13612.42314394415553 
	7031.797571887534104 4289.938992415044595 13645.70364028588847 
	7031.797571882896591 4327.379748563343128 13687.60009047406493 
	7031.797571878968483 4359.894213406393646 13733.42501542500759 
	7031.797571871779837 4387.073647145035466 13782.60221611276029 
	7031.797571859890013 4408.575957722603562 13834.5134276988083 
	7031.797571848551343 4421.538118031730846 13879.50702248575726 
	7031.797571844584127 4428.836980954562932 13916.20284061274469 
	7031.797571841286299 4432.759756507037309 13943.9882619025575 
	7031.797571837642863 4434.725130301066201 13967.28968192577668 
	7031.797571836508723 4435.41343220145427 13983.63927057830915 
	7031.797571836169482 4435.585535431308926 13991.81889323216092 
	7031.797571836084899 4435.628562741100723 13995.90930755507725 
	7031.797571836062161 4435.639319710309792 13997.95459017429675 
	7031.797571836055795 4435.642008949234878 13998.97724089357871 
	7031.797571836052157 4435.642777311617465 13999.56161408129265 
	7031.797571836052157 4435.642905362905367 13999.85380089731552 
	7031.797571836053066 4435.642905362014062 13999.9998943064129 
	7115.130905169386097 4435.642905362013153 13999.9998943064129 
	7115.130905169390644 4435.642905354883624 14001.16864157918098 
	7115.130905169447942 4435.634709944162751 14003.50613626360246 
	7115.13090516950524 4435.585533870471409 14008.18089524723473 
	7115.130905169754442 4435.413439155441665 14016.36051860445332 
	7115.130905170683036 4434.725083479877867 14032.71010103517619 
	7115.130905173674364 4431.973830937537969 14065.33211196987213 
	7115.130905183295909 4424.130796872958854 14111.49407958388292 
	7115.130905191060265 4408.575797460121066 14165.48634085292542 
	7115.130905199556764 4387.0735003695263 14217.3974796203147 
	7115.130905206036914 4359.894235711519286 14266.57480112560916 
	7115.130905212755351 4332.798665032805729 14304.76212423395918 
	7115.130905214543418 4308.659426792624799 14333.34799368136373 
	7115.130905216292376 4282.956049372223788 14360.53608097092365 
	7115.13090522121729 4249.594188292982835 14390.3500500617647 
	7115.13090522537459 4207.366016862784818 14420.70985293866943 
	7115.130905227574658 4164.126538204296594 14445.67404829147745 
	7115.130905229219024 4122.408884052331814 14464.49786285655864 
	7115.130905231295401 4083.157824874352173 14478.23210258192012 
	7115.130905232979785 4047.007046976800211 14487.91880969585327 
	7115.130905233743761 4010.233409060669146 14494.87665719086363 
	7115.130905235049795 3973.042660210002396 14499.06707399148218 
	7115.13090523626397 3935.642742891945545 14500.46647198422215 
	7115.130905237409024 3898.242831424090127 14499.06707101275788 
	7115.130905238450396 3861.052071068640544 14494.87668141759423 
	7115.130905239510867 3824.278456053058107 14487.91873573112025 
	7115.13090524033214 3788.127626594589856 14478.23216628492082 
	7115.130905241229812 3761.633240983369433 14468.96135786951891 
	7115.130905241342589 3744.289835716107518 14461.96669599162851 
	7115.130905241399887 3732.816768111386864 14457.08823772087999 
	7115.13090524159179 3718.65024442023514 14450.58948486385634 
	7115.130905241770961 3701.953918088890987 14442.16076306938339 
	7115.130905241961955 3680.12787521869086 14430.09802055795262 
	7115.13090524267227 3653.719876072530496 14413.50482925319739 
	7115.130905242836889 3623.606893640886028 14391.28050966927731 
	7115.130905243559027 3599.966993364252176 14370.93666979891896 
	7115.13090524366271 3584.251848646844337 14355.79845393138567 
	7115.130905243714551 3575.519024178463951 14346.90079014673029 
	7115.130905243739107 3566.954106578481515 14337.84138372178859 
	7115.130905243852794 3558.64554350245453 14328.54411341010746 
	7115.130905243873713 3550.602075613096531 14319.01871137668604 
	7115.130905243918278 3538.806112118695637 14304.50753705337956 
	7115.130905244289352 3522.137749802608141 14281.92287816892531 
	7115.130905244456699 3502.225995077977586 14250.23324246126322 
	7115.130905244643145 3482.794659043349384 14213.46779765007159 
	7115.130905244820497 3465.016616400751445 14171.29388327628476 
	7115.130905244991482 3450.300207631444209 14123.58335187631565 
	7115.130905245212489 3443.498541968113841 14089.93809614641214 
	7115.130905245230679 3440.76911950111662 14071.43831081806093 
	7115.130905245230679 3440.333435658775215 14068.35223900200799 
	7115.130905245232498 3439.917001096353033 14065.2635108018967 
	7115.130905245232498 3439.122646000257646 14059.08098336329022 
	7115.130905245240683 3438.075719795747773 14049.78907469698061 
	7115.130905245242502 3437.17014989802783 14039.43893818053766 
	7115.130905245243412 3436.600788255957923 14031.14721566817025 
	7115.130905245237045 3434.969131918875973 14002.10358355385688 
	7115.130905245173381 3435.696543937628576 13972.94251045802775 
	7115.130905245152462 3438.773896388717276 13944.01631524786353 
	7115.130905245148824 3439.510337817714571 13937.82653646105246 
	7115.130905245147005 3440.324030200102698 13931.64643107916163 
	7115.130905245079703 3444.47975690874182 13902.8554265093735 
	7115.130905244619498 3456.070762527634088 13852.07159631198374 
	7115.130905244103815 3483.47485685071706 13782.24741003830241 
	7115.130905243268899 3520.979214989325101 13717.28706456682266 
	7115.130905242716835 3562.550991215168324 13665.15909821242349 
	7115.130905241438086 3604.2512414794096 13624.4876829213099 
	7115.130905241341679 3643.286712569788961 13593.35750712112531 
	7115.130905240474021 3681.733035218667283 13568.52644099281861 
	7115.130905239610911 3718.498615577252622 13549.0955108008875 
	7115.130905239232561 3752.801873977145078 13534.1289448625248 
	7115.130905238207561 3788.127764154062334 13521.76814524590736 
	7115.130905237172556 3830.303588894891618 13510.46664279905235 
	7115.1309052362285 3879.542918424313939 13502.10030607572116 
	7115.130905234856982 3935.642766537546322 13498.94995885886419 
	7115.1309052334027 3991.74255257145478 13502.10039375897941 
	7115.130905231767429 4040.981975816863724 13510.46663913596785 
	7115.130905230696044 4083.157663686168689 13521.76836680127053 
	7115.130905230255848 4130.259263400332202 13538.24871703992358 
	7115.130905227431867 4169.68184222225409 13557.2324307010058 
	7115.130905226583309 4201.720951165850238 13576.53901414533721 
	7115.130905226175855 4222.584561293877414 13590.1989461607227 
	7115.130905224412345 4252.697679600761148 13612.42314394415553 
	7115.130905220867135 4289.938992415043685 13645.70364028588847 
	7115.130905216229621 4327.379748563342218 13687.60009047406493 
	7115.130905212301514 4359.894213406392737 13733.42501542500759 
	7115.130905205112867 4387.073647145034556 13782.60221611276029 
	7115.130905193223043 4408.575957722602652 13834.5134276988083 
	7115.130905181884373 4421.538118031729937 13879.50702248575726 
	7115.130905177917157 4428.836980954562023 13916.20284061274469 
	7115.130905174619329 4432.7597565070364 13943.9882619025575 
	7115.130905170975893 4434.725130301065292 13967.28968192577668 
	7115.130905169841753 4435.413432201453361 13983.63927057830915 
	7115.130905169502512 4435.585535431308017 13991.81889323216092 
	7115.130905169417929 4435.628562741099813 13995.90930755507725 
	7115.130905169395191 4435.639319710308882 13997.95459017429675 
	7115.130905169388825 4435.642008949233968 13998.97724089357871 
	7115.130905169385187 4435.642777311616555 13999.56161408129265 
	7115.130905169385187 4435.642905362904457 13999.85380089731552 
	7115.130905169386097 4435.642905362013153 13999.9998943064129 
	7198.464238499899693 4435.642905362014062 13999.9998943064129 
	7198.46423849990606 4435.642905354884533 14001.16864157918098 
	7198.464238499966086 4435.63470994416366 14003.50613626360246 
	7198.464238500022475 4435.585533870472318 14008.18089524723473 
	7198.464238500281681 4435.413439155442575 14016.36051860445332 
	7198.464238501242107 4434.725083479878776 14032.71010103517619 
	7198.464238504342575 4431.973830937537969 14065.33211196987213 
	7198.46423851430518 4424.130796872959763 14111.49407958388292 
	7198.464238522346932 4408.575797460121066 14165.48634085292542 
	7198.464238531142655 4387.073500369525391 14217.3974796203147 
	7198.464238537852907 4359.894235711518377 14266.57480112560916 
	7198.464238544809632 4332.798665032805729 14304.76212423395918 
	7198.464238546662273 4308.65942679262389 14333.34799368136373 
	7198.464238548471258 4282.956049372222878 14360.53608097092365 
	7198.464238553570794 4249.594188292982835 14390.3500500617647 
	7198.464238557876342 4207.366016862783908 14420.70985293866943 
	7198.464238560155536 4164.126538204296594 14445.67404829147745 
	7198.464238561856291 4122.408884052330905 14464.49786285655864 
	7198.464238564008156 4083.157824874350808 14478.23210258192012 
	7198.464238565751657 4047.007046976799302 14487.91880969585327 
	7198.464238566542917 4010.233409060668691 14494.87665719086363 
	7198.464238567896246 3973.042660210001941 14499.06707399148218 
	7198.464238569154077 3935.642742891944181 14500.46647198422215 
	7198.464238570339148 3898.242831424088763 14499.06707101275788 
	7198.464238571417809 3861.052071068639179 14494.87668141759423 
	7198.464238572516479 3824.278456053057198 14487.91873573112025 
	7198.464238573367766 3788.127626594588946 14478.23216628492082 
	7198.46423857429636 3761.633240983368523 14468.96135786951891 
	7198.464238574413685 3744.289835716106154 14461.96669599162851 
	7198.464238574472802 3732.816768111385954 14457.08823772087999 
	7198.464238574671981 3718.65024442023423 14450.58948486385634 
	7198.464238574856608 3701.953918088890532 14442.16076306938339 
	7198.464238575054878 3680.127875218689951 14430.09802055795262 
	7198.464238575791569 3653.719876072530496 14413.50482925319739 
	7198.464238575961645 3623.606893640885119 14391.28050966927731 
	7198.464238576709249 3599.966993364253085 14370.93666979891896 
	7198.46423857681657 3584.251848646844337 14355.79845393138567 
	7198.46423857687023 3575.519024178464861 14346.90079014673029 
	7198.464238576894786 3566.954106578482424 14337.84138372178859 
	7198.46423857701393 3558.645543502455439 14328.54411341010746 
	7198.464238577035758 3550.602075613097441 14319.01871137668604 
	7198.464238577081233 3538.806112118696547 14304.50753705337956 
	7198.464238577465949 3522.137749802609051 14281.92287816892531 
	7198.464238577639662 3502.225995077978496 14250.23324246126322 
	7198.464238577833385 3482.794659043350293 14213.46779765007159 
	7198.464238578016193 3465.016616400752355 14171.29388327628476 
	7198.464238578194454 3450.300207631445119 14123.58335187631565 
	7198.464238578421828 3443.49854196811475 14089.93809614641214 
	7198.464238578443656 3440.76911950111753 14071.43831081806093 
	7198.464238578441837 3440.333435658776125 14068.35223900200799 
	7198.464238578444565 3439.917001096353943 14065.2635108018967 
	7198.464238578443656 3439.122646000258555 14059.08098336329022 
	7198.464238578451841 3438.075719795748228 14049.78907469698061 
	7198.46423857845457 3437.170149898028285 14039.43893818053766 
	7198.464238578455479 3436.600788255958378 14031.14721566817025 
	7198.464238578449113 3434.969131918876428 14002.10358355385688 
	7198.46423857838181 3435.696543937629485 13972.94251045802775 
	7198.464238578360892 3438.773896388718185 13944.01631524786353 
	7198.464238578355435 3439.510337817715481 13937.82653646105246 
	7198.464238578354525 3440.324030200103607 13931.64643107916163 
	7198.464238578284494 3444.479756908742729 13902.8554265093735 
	7198.464238577807919 3456.070762527634997 13852.07159631198374 
	7198.464238577272226 3483.47485685071797 13782.24741003830241 
	7198.464238576407297 3520.97921498932601 13717.28706456682266 
	7198.464238575836134 3562.550991215169233 13665.15909821242349 
	7198.46423857451191 3604.25124147941051 13624.4876829213099 
	7198.464238574412775 3643.286712569789415 13593.35750712112531 
	7198.464238573513285 3681.733035218668192 13568.52644099281861 
	7198.464238572619251 3718.498615577253076 13549.0955108008875 
	7198.464238572227259 3752.801873977145533 13534.1289448625248 
	7198.464238571166788 3788.127764154063243 13521.76814524590736 
	7198.464238570094494 3830.303588894892073 13510.46664279905235 
	7198.464238569117697 3879.542918424314848 13502.10030607572116 
	7198.464238567697066 3935.642766537547232 13498.94995885886419 
	7198.464238566190943 3991.74255257145569 13502.10039375897941 
	7198.464238564497464 4040.981975816864633 13510.46663913596785 
	7198.46423856338788 4083.157663686169599 13521.76836680127053 
	7198.464238562932223 4130.259263400333111 13538.24871703992358 
	7198.464238560008198 4169.681842222255 13557.2324307010058 
	7198.464238559130536 4201.720951165851147 13576.53901414533721 
	7198.464238558707621 4222.584561293878323 13590.1989461607227 
	7198.464238556881355 4252.697679600762058 13612.42314394415553 
	7198.464238553209725 4289.938992415044595 13645.70364028588847 
	7198.464238548407593 4327.379748563343128 13687.60009047406493 
	7198.464238544341242 4359.894213406393646 13733.42501542500759 
	7198.464238536896119 4387.073647145035466 13782.60221611276029 
	7198.464238524583379 4408.575957722603562 13834.5134276988083 
	7198.464238512841803 4421.538118031729937 13879.50702248575726 
	7198.464238508732706 4428.836980954562932 13916.20284061274469 
	7198.464238505318463 4432.759756507037309 13943.9882619025575 
	7198.464238501544969 4434.725130301066201 13967.28968192577668 
	7198.464238500371721 4435.41343220145427 13983.63927057830915 
	7198.464238500018837 4435.585535431308926 13991.81889323216092 
	7198.464238499932435 4435.628562741100723 13995.90930755507725 
	7198.464238499908788 4435.639319710309792 13997.95459017429675 
	7198.464238499902422 4435.642008949234878 13998.97724089357871 
	7198.464238499897874 4435.642777311617465 13999.56161408129265 
	7198.464238499897874 4435.642905362905367 13999.85380089731552 
	7198.464238499899693 4435.642905362014062 13999.9998943064129 
	7281.797571833232723 4435.642905362014062 13999.9998943064129 
	7281.79757183323909 4435.642905354884533 14001.16864157918098 
	7281.797571833299116 4435.63470994416366 14003.50613626360246 
	7281.797571833355505 4435.585533870472318 14008.18089524723473 
	7281.797571833614711 4435.413439155442575 14016.36051860445332 
	7281.797571834575137 4434.725083479878776 14032.71010103517619 
	7281.797571837675605 4431.973830937537969 14065.33211196987213 
	7281.79757184763821 4424.130796872959763 14111.49407958388292 
	7281.797571855679962 4408.575797460121066 14165.48634085292542 
	7281.797571864475685 4387.073500369525391 14217.3974796203147 
	7281.797571871185937 4359.894235711518377 14266.57480112560916 
	7281.797571878142662 4332.798665032805729 14304.76212423395918 
	7281.797571879995303 4308.65942679262389 14333.34799368136373 
	7281.797571881804288 4282.956049372222878 14360.53608097092365 
	7281.797571886903825 4249.594188292982835 14390.3500500617647 
	7281.797571891209373 4207.366016862783908 14420.70985293866943 
	7281.797571893488566 4164.126538204296594 14445.67404829147745 
	7281.797571895189321 4122.408884052330905 14464.49786285655864 
	7281.797571897341186 4083.157824874350354 14478.23210258192012 
	7281.797571899084687 4047.007046976798847 14487.91880969585327 
	7281.797571899875948 4010.233409060668237 14494.87665719086363 
	7281.797571901229276 3973.042660210001486 14499.06707399148218 
	7281.797571902487107 3935.642742891943726 14500.46647198422215 
	7281.797571903672178 3898.242831424088308 14499.06707101275788 
	7281.797571904750839 3861.052071068638725 14494.87668141759423 
	7281.797571905849509 3824.278456053056743 14487.91873573112025 
	7281.797571906700796 3788.127626594588492 14478.23216628492082 
	7281.79757190762939 3761.633240983368069 14468.96135786951891 
	7281.797571907746715 3744.289835716105699 14461.96669599162851 
	7281.797571907805832 3732.8167681113855 14457.08823772087999 
	7281.797571908005011 3718.650244420233776 14450.58948486385634 
	7281.797571908189639 3701.953918088890077 14442.16076306938339 
	7281.797571908387908 3680.127875218689496 14430.09802055795262 
	7281.797571909124599 3653.719876072530042 14413.50482925319739 
	7281.797571909294675 3623.606893640884664 14391.28050966927731 
	7281.797571910042279 3599.96699336425263 14370.93666979891896 
	7281.7975719101496 3584.251848646843882 14355.79845393138567 
	7281.79757191020326 3575.519024178464406 14346.90079014673029 
	7281.797571910227816 3566.954106578481969 14337.84138372178859 
	7281.79757191034696 3558.645543502454984 14328.54411341010746 
	7281.797571910368788 3550.602075613096986 14319.01871137668604 
	7281.797571910414263 3538.806112118696092 14304.50753705337956 
	7281.797571910798979 3522.137749802608596 14281.92287816892531 
	7281.797571910972692 3502.225995077978041 14250.23324246126322 
	7281.797571911166415 3482.794659043349839 14213.46779765007159 
	7281.797571911349223 3465.0166164007519 14171.29388327628476 
	7281.797571911527484 3450.300207631444664 14123.58335187631565 
	7281.797571911754858 3443.498541968114296 14089.93809614641214 
	7281.797571911776686 3440.769119501117075 14071.43831081806093 
	7281.797571911774867 3440.33343565877567 14068.35223900200799 
	7281.797571911777595 3439.917001096353488 14065.2635108018967 
	7281.797571911776686 3439.122646000258101 14059.08098336329022 
	7281.797571911784871 3438.075719795747773 14049.78907469698061 
	7281.7975719117876 3437.17014989802783 14039.43893818053766 
	7281.797571911788509 3436.600788255957923 14031.14721566817025 
	7281.797571911782143 3434.969131918875973 14002.10358355385688 
	7281.79757191171484 3435.696543937629031 13972.94251045802775 
	7281.797571911693922 3438.773896388717731 13944.01631524786353 
	7281.797571911688465 3439.510337817715026 13937.82653646105246 
	7281.797571911687555 3440.324030200103152 13931.64643107916163 
	7281.797571911617524 3444.479756908742274 13902.8554265093735 
	7281.797571911140949 3456.070762527634542 13852.07159631198374 
	7281.797571910605257 3483.474856850717515 13782.24741003830241 
	7281.797571909740327 3520.979214989325556 13717.28706456682266 
	7281.797571909169164 3562.550991215168779 13665.15909821242349 
	7281.79757190784494 3604.251241479410055 13624.4876829213099 
	7281.797571907745805 3643.286712569788961 13593.35750712112531 
	7281.797571906846315 3681.733035218667737 13568.52644099281861 
	7281.797571905952282 3718.498615577252622 13549.0955108008875 
	7281.797571905560289 3752.801873977145078 13534.1289448625248 
	7281.797571904499819 3788.127764154062788 13521.76814524590736 
	7281.797571903427524 3830.303588894891618 13510.46664279905235 
	7281.797571902450727 3879.542918424314394 13502.10030607572116 
	7281.797571901030096 3935.642766537546777 13498.94995885886419 
	7281.797571899523973 3991.742552571455235 13502.10039375897941 
	7281.797571897830494 4040.981975816864178 13510.46663913596785 
	7281.79757189672091 4083.157663686169144 13521.76836680127053 
	7281.797571896265254 4130.259263400333111 13538.24871703992358 
	7281.797571893341228 4169.681842222255 13557.2324307010058 
	7281.797571892463566 4201.720951165851147 13576.53901414533721 
	7281.797571892040651 4222.584561293878323 13590.1989461607227 
	7281.797571890214385 4252.697679600762058 13612.42314394415553 
	7281.797571886542755 4289.938992415044595 13645.70364028588847 
	7281.797571881740623 4327.379748563343128 13687.60009047406493 
	7281.797571877674272 4359.894213406393646 13733.42501542500759 
	7281.797571870229149 4387.073647145035466 13782.60221611276029 
	7281.797571857916409 4408.575957722603562 13834.5134276988083 
	7281.797571846174833 4421.538118031729937 13879.50702248575726 
	7281.797571842065736 4428.836980954562932 13916.20284061274469 
	7281.797571838651493 4432.759756507037309 13943.9882619025575 
	7281.797571834877999 4434.725130301066201 13967.28968192577668 
	7281.797571833704751 4435.41343220145427 13983.63927057830915 
	7281.797571833351867 4435.585535431308926 13991.81889323216092 
	7281.797571833265465 4435.628562741100723 13995.90930755507725 
	7281.797571833241818 4435.639319710309792 13997.95459017429675 
	7281.797571833235452 4435.642008949234878 13998.97724089357871 
	7281.797571833230904 4435.642777311617465 13999.56161408129265 
	7281.797571833230904 4435.642905362905367 13999.85380089731552 
	7281.797571833232723 4435.642905362014062 13999.9998943064129 
	0 
	
	0 
	0 
	95 0 0.001116071428571428509 0.002232142857142857019 0.004464285714285714038 0.008928571428571428076 0.01785714285714285615 0.0357142857142857123 0.05357142857142856845 0.07142857142857142461 0.08928571428571427382 0.1071428571428571369 0.1160714285714285754 0.125 0.1428571428571428492 0.1587301587301587213 0.1746031746031745935 0.1904761904761904656 0.2023809523809523836 0.2142857142857142738 0.226190476190476164 0.238095238095238082 0.2499999999999999722 0.2619047619047618625 0.2738095238095237804 0.2857142857142856984 0.2976190476190476164 0.3095238095238095344 0.3125 0.3154761904761904656 0.3214285714285713969 0.3273809523809523281 0.3333333333333333148 0.3452380952380952328 0.3571428571428570953 0.3690476190476190133 0.375 0.3779761904761904656 0.3809523809523809312 0.3869047619047618625 0.3898809523809523281 0.3928571428571428492 0.4047619047619047672 0.4166666666666666297 0.4285714285714285476 0.4444444444444444198 0.4603174603174602919 0.476190476190476164 0.4771825396825396526 0.4781746031746031411 0.4791666666666666297 0.4801587301587301182 0.4841269841269840724 0.4880952380952380265 0.4900793650793650036 0.4920634920634920362 0.5158730158730158166 0.5178571428571427937 0.5198412698412697708 0.5218253968253967479 0.5238095238095237249 0.5476190476190475609 0.5714285714285713969 0.5952380952380951218 0.6190476190476189577 0.6349206349206348854 0.650793650793650702 0.6666666666666666297 0.6785714285714286031 0.6904761904761904656 0.7023809523809523281 0.7142857142857141906 0.7321428571428569843 0.749999999999999889 0.7678571428571427937 0.7857142857142855874 0.7976190476190474499 0.8095238095238094234 0.8333333333333332593 0.8392857142857141906 0.8452380952380951218 0.8571428571428570953 0.875 0.8928571428571427937 0.9107142857142856984 0.9285714285714286031 0.9464285714285713969 0.9642857142857143016 0.9732142857142858094 0.9821428571428572063 0.9910714285714286031 0.9955357142857143016 0.9977678571428572063 0.9994419642857143016 0.9997209821428572063 0.9998604910714286031 
	0 
	0 
	0 
	F 1 F 0 F 1 F 0 } I I I I #
tcoedge-coedge $-1 -1 $-1 $14 $14 $18 $19 reversed $9 $20 -6.283185307179586232 -0 #
tcoedge-coedge $-1 -1 $-1 $21 $22 $11 $16 reversed $12 $23 -6.283185307179586232 -0 #
tedge-edge $-1 -1 $-1 $24 0 $24 6.283185307179586232 $15 $25 forward @7 unknown 0.0007155034611820122129 #
pcurve $-1 -1 $-1 0 forward { exppc nurbs 2 periodic 5 
	0 2 1.570796326794896558 2 3.141592653589793116 2 4.712388980384689674 2 6.283185307179586232 2 
	0 500 1 
	-500 500 0.707106781186543798 
	-500 0 1 
	-500 -500 0.7071067811865463515 
	0 -500 1 
	500 -500 0.7071067811865463515 
	500 0 1 
	500 500 0.707106781186543798 
	0 500 1 
	0 
	plane 7281.79757191538738 3935.642797989791688 14000.00000000000182 1 -3.637978807091713027e-15 0 0 0 -1 forward_v I I I I 
	} 0 0 #
tcoedge-coedge $-1 -1 $-1 $22 $21 $14 $19 forward $12 $26 0 6.283185307179586232 #
tedge-edge $-1 -1 $-1 $27 0 $27 6.283185307179586232 $18 $28 forward @7 unknown 0.0007155034611621050684 #
pcurve $-1 -1 $-1 0 forward { exppc nurbs 2 periodic 5 
	-6.283185307179586232 2 -4.712388980384689674 2 -3.141592653589793116 2 -1.570796326794896558 2 0 2 
	0 500 1 
	500 500 0.707106781186543798 
	500 0 1 
	500 -500 0.7071067811865463515 
	0 -500 1 
	-500 -500 0.7071067811865463515 
	-500 0 1 
	-500 500 0.707106781186543798 
	0 500 1 
	0 
	plane 7031.79757191538738 3935.642797989792598 14000.00000000000182 -1 3.637978807091713027e-15 -0 0 0 -1 reverse_v I I I I 
	} 0 0 #
coedge $-1 -1 $-1 $18 $15 $22 $29 reversed $12 $30 #
coedge $-1 -1 $-1 $15 $18 $21 $29 forward $12 $31 #
pcurve $-1 -1 $-1 0 forward { exppc nubs 1 periodic 2 
	-6.283185307179586232 1 -0 1 
	1 1 
	0 1 
	0 
	spline forward { ref 0 } I I I I 
	} 0 0 #
tvertex-vertex $-1 -1 $-1 $16 $32 0.0001506649881009024564 #
ellipse-curve $-1 -1 $-1 7281.79757191538738 3935.642797989791688 14000.00000000000182 1 -3.637978807091713027e-15 0 1.818989403545856476e-12 500 0 1 I I #
pcurve $-1 -1 $-1 0 forward { exppc nubs 1 periodic 2 
	0 1 6.283185307179586232 1 
	0 0 
	1 0 
	2.726396620975368931e-13 
	spline forward { ref 0 } I I I I 
	} 0 0 #
tvertex-vertex $-1 -1 $-1 $19 $33 0.0001506649859412316852 #
ellipse-curve $-1 -1 $-1 7031.79757191538738 3935.642797989792598 14000.00000000000182 1 -3.637978807091713027e-15 0 1.818989403545856476e-12 500 0 1 I I #
edge $-1 -1 $-1 $27 3.173445276811348917e-10 $24 1 $22 $34 forward @7 tangent #
pcurve $-1 -1 $-1 -1 $34 0 0 #
pcurve $-1 -1 $-1 1 $34 1 0 #
point $-1 -1 $-1 7281.797571915389199 4435.642797989791688 14000.00000000000182 #
point $-1 -1 $-1 7031.797571915389199 4435.642797989792598 14000.00000000000182 #
intcurve-curve $-1 -1 $-1 forward { parcur full nubs 3 open 2 
	0 3 1 3 
	7031.797571836053066 4435.642905362014062 13999.9998943064129 
	7115.130905169386097 4435.642905362013153 13999.9998943064129 
	7198.464238499899693 4435.642905362014062 13999.9998943064129 
	7281.797571833232723 4435.642905362014062 13999.9998943064129 
	0 
	
	spline forward { ref 0 } I I I I 
	null_surface 
	nubs 1 open 2 
	0 1 1 1 
	0 0 
	0 1 
	
	nullbs 
	I I 
	0 
	0 
	0 
	surf1 } F 3.173445276811348917e-10 F 1 #
End-of-ACIS-data 