700 0 1 0           
4 LibG 20 ASM 224.0.1.65535 NT 24 Wed Jul 17 12:52:11 2019 
1000 9.999999999999999547e-07 1.000000000000000036e-10 
body $-1 -1 $-1 $1 $-1 $2 #
lump $-1 -1 $-1 $-1 $3 $0 #
transform $-1 -1 1 0 0 0 1 0 0 0 1 0 0 0 1 no_rotate no_reflect no_shear #
shell $-1 -1 $-1 $-1 $-1 $4 $-1 $1 #
face $-1 -1 $-1 $5 $6 $3 $-1 $7 forward single #
face $-1 -1 $-1 $8 $9 $3 $-1 $10 reversed single #
loop $-1 -1 $-1 $-1 $11 $4 #
plane-surface $-1 -1 $-1 -1218.202428084613075 3935.642797989822611 14000.00000000000182 1 -3.637978807091713027e-15 0 0 0 -1 forward_v I I I I #
face $-1 -1 $-1 $-1 $12 $3 $-1 $13 forward single #
loop $-1 -1 $-1 $-1 $14 $5 #
plane-surface $-1 -1 $-1 -1468.202428084613075 3935.642797989823521 14000.00000000000182 1 -3.637978807091713027e-15 0 0 0 -1 forward_v I I I I #
tcoedge-coedge $-1 -1 $-1 $11 $11 $15 $16 forward $6 $17 0 6.283185307179586232 #
loop $-1 -1 $-1 $-1 $18 $8 #
spline-surface $-1 -1 $-1 forward { exactsur full nubs 3 3 periodic open none none 84 2 
	0 3 0.002232142857142857019 1 0.004464285714285714038 1 0.008928571428571428076 1 0.01785714285714285615 1 
	0.0357142857142857123 1 0.05357142857142856845 1 0.0625 1 0.0669642857142857123 1 0.07142857142857142461 1 
	0.08928571428571427382 1 0.1071428571428571369 1 0.125 1 0.1428571428571428492 1 0.1587301587301587213 1 
	0.1746031746031745935 1 0.1825396825396825295 1 0.1904761904761904656 1 0.2023809523809523836 1 0.2142857142857142738 1 
	0.238095238095238082 1 0.2619047619047618625 1 0.2857142857142856984 1 0.3095238095238095344 1 0.3333333333333333148 1 
	0.3348214285714286031 1 0.336309523809523836 1 0.3377976190476190688 1 0.3392857142857143016 1 0.3422619047619047672 1 
	0.3452380952380952328 1 0.3571428571428570953 1 0.3690476190476190133 1 0.375 1 0.3779761904761904656 1 
	0.3809523809523809312 1 0.4047619047619047672 1 0.4166666666666666297 1 0.4285714285714285476 1 0.4444444444444444198 1 
	0.4603174603174602919 1 0.4682539682539682557 1 0.476190476190476164 1 0.4920634920634920362 1 0.5079365079365079083 1 
	0.5238095238095237249 1 0.5357142857142855874 1 0.5476190476190475609 1 0.5595238095238095344 1 0.5654761904761904656 1 
	0.5714285714285713969 1 0.5952380952380951218 1 0.6071428571428569843 1 0.6190476190476189577 1 0.6349206349206348854 1 
	0.650793650793650702 1 0.6666666666666666297 1 0.6785714285714286031 1 0.6904761904761904656 1 0.7023809523809523281 1 
	0.7142857142857141906 1 0.7232142857142855874 1 0.7321428571428569843 1 0.749999999999999889 1 0.7678571428571427937 1 
	0.7857142857142855874 1 0.7976190476190474499 1 0.8095238095238094234 1 0.8333333333333332593 1 0.8571428571428570953 1 
	0.875 1 0.8928571428571427937 1 0.9107142857142856984 1 0.9285714285714286031 1 0.9464285714285713969 1 
	0.9642857142857143016 1 0.9821428571428572063 1 0.9910714285714286031 1 0.9955357142857143016 1 0.9977678571428572063 1 
	0.9988839285714286031 1 0.9994419642857143016 1 0.9997209821428572063 1 1 3 
	0 3 1 3 
	-1468.202428068176459 4435.642867617042612 13999.99991989118644 
	-1468.202428068178278 4435.642867595309326 14002.33741442834071 
	-1468.202428068231939 4435.610081251666998 14007.01240321990554 
	-1468.202428068281733 4435.413399533445954 14016.3605431275646 
	-1468.202428068520703 4434.725051951094429 14032.71012707566479 
	-1468.202428069297412 4431.973765691962399 14065.33211759405276 
	-1468.202428071554777 4424.130884155696549 14111.49412919254428 
	-1468.202428073521105 4411.168117261516272 14156.48754907779949 
	-1468.202428074144791 4399.492819196933851 14187.07269953805917 
	-1468.202428074285308 4392.094327896564209 14204.24882445251387 
	-1468.202428074500403 4380.278548680502354 14229.69172497983163 
	-1468.202428076064734 4359.894219378328671 14266.57471313938186 
	-1468.202428077224113 4327.379602733454703 14312.39955539265247 
	-1468.202428078596313 4289.938868061913126 14354.2959524940361 
	-1468.202428079692936 4249.594122999981664 14390.34986761846085 
	-1468.20242808064836 4207.366055605350084 14420.70975929527958 
	-1468.202428081210883 4171.33307734590835 14441.51310436455788 
	-1468.202428081308426 4141.371497148630624 14455.94147000662815 
	-1468.202428081538073 4114.558621630680136 14467.24445347102665 
	-1468.202428081652897 4083.157766411708508 14478.23156575216854 
	-1468.202428081932339 4034.956968690274152 14491.14845042951856 
	-1468.202428082205188 3973.147680231747472 14500.46611726473566 
	-1468.202428082742472 3898.13805529818228 14500.4653446240136 
	-1468.202428083131053 3823.966545000928363 14489.28603903029398 
	-1468.202428083469158 3752.28949530363343 14467.17642760412673 
	-1468.202428083769973 3705.827561278868416 14444.80152277581692 
	-1468.202428083795667 3681.601294604844952 14430.66276549045506 
	-1468.202428083794985 3677.585762349573542 14428.26871126502556 
	-1468.202428083796804 3673.592803605201425 14425.83719212311189 
	-1468.202428083797713 3668.29939443392368 14422.54554649894453 
	-1468.202428083801351 3661.740784057335986 14418.33844145876719 
	-1468.202428083805898 3646.191631640693231 14407.94888937130236 
	-1468.202428083843188 3623.606867308913479 14391.28068042053746 
	-1468.202428083877976 3599.967013196424432 14370.93679705766772 
	-1468.202428083888435 3584.251829716553857 14355.79861402746246 
	-1468.202428083890254 3575.519058479510932 14346.90090672446058 
	-1468.202428083896621 3554.106394698870645 14324.25269324698093 
	-1468.202428083957329 3528.774538405969452 14292.4865962536951 
	-1468.202428083970744 3502.226394003349924 14250.23305093147246 
	-1468.202428083995301 3482.794645924155247 14213.46792980935425 
	-1468.20242808401008 3465.016860758343682 14171.2938191197718 
	-1468.202428084018038 3452.753188210367171 14131.53511139678267 
	-1468.202428084017811 3445.353601673061348 14099.11409504548101 
	-1468.202428084018266 3439.578700274884341 14066.36466095373726 
	-1468.202428084000758 3435.435740678140519 14024.96427881675118 
	-1468.202428083993482 3435.435957625352785 13975.03567113597092 
	-1468.202428083971199 3439.992815238876119 13929.49524212604956 
	-1468.202428083939367 3447.724116936605242 13888.6356926991084 
	-1468.202428083915038 3457.410618229191641 13852.4848976899666 
	-1468.202428083878658 3467.711425408046125 13823.04662803612882 
	-1468.202428083868654 3477.254922887418616 13800.00741097702121 
	-1468.202428083842506 3492.850962949473342 13766.0072245895899 
	-1468.202428083770883 3514.728925560167227 13728.11429266964842 
	-1468.2024280836863 3544.362775956397854 13687.96452137153756 
	-1468.202428083624682 3571.48725521713186 13656.44424998986506 
	-1468.202428083458472 3604.251001595328034 13624.48740726256256 
	-1468.202428083384802 3643.286815396804741 13593.35757477114566 
	-1468.202428083277709 3681.732951286907337 13568.5263038316989 
	-1468.202428083134464 3718.498611686493405 13549.09541115360298 
	-1468.202428083076711 3752.801857156439382 13534.12886906702806 
	-1468.202428082909819 3788.127734910005074 13521.76790060822532 
	-1468.202428082775668 3821.265964237773915 13512.88850011543582 
	-1468.202428082670394 3851.845754081113228 13506.80599510117463 
	-1468.202428082558072 3888.892966216037166 13501.57542087591537 
	-1468.202428082118558 3935.642770187096176 13498.94977984262187 
	-1468.202428081695416 3991.742597460523484 13502.10041429804005 
	-1468.202428081196786 4040.982008168112316 13510.46652808684667 
	-1468.202428080861409 4083.157710028569454 13521.76834036771106 
	-1468.202428080684513 4130.259355545477774 13538.24839581450033 
	-1468.202428080272966 4186.577621630681278 13565.36801494270367 
	-1468.202428079410311 4243.387829432165745 13604.10246144711709 
	-1468.202428078704997 4289.938804623896431 13645.70391975412167 
	-1468.202428077263221 4327.37981899737224 13687.60004033938822 
	-1468.202428076004935 4359.894220896922889 13733.42507422302697 
	-1468.202428074514501 4387.07357385594878 13782.60230023615441 
	-1468.202428072816474 4408.575796962443746 13834.5134891695925 
	-1468.202428071147324 4424.130798798827527 13888.50573055704808 
	-1468.202428069103235 4431.973799800415691 13934.66770633856868 
	-1468.202428068453628 4434.725048461663391 13967.28971363953497 
	-1468.202428068249219 4435.413401858435464 13983.63929598652612 
	-1468.202428068196923 4435.585496109137239 13991.81891908532634 
	-1468.202428068181689 4435.628525197918862 13995.90933314635186 
	-1468.202428068178051 4435.639281894535998 13997.95461576991329 
	-1468.202428068176687 4435.64235533925239 13999.12335943533435 
	-1468.202428068176232 4435.642867619759272 13999.70773307404306 
	-1468.202428068176459 4435.642867617042612 13999.99991989118644 
	-1384.869094734843202 4435.642867617041702 13999.99991989118644 
	-1384.869094734845021 4435.642867595308417 14002.33741442834071 
	-1384.869094734898681 4435.610081251666088 14007.01240321990554 
	-1384.869094734948476 4435.413399533445045 14016.3605431275646 
	-1384.869094735187446 4434.725051951093519 14032.71012707566479 
	-1384.869094735964154 4431.973765691961489 14065.33211759405276 
	-1384.86909473822152 4424.130884155695639 14111.49412919254428 
	-1384.869094740187847 4411.168117261515363 14156.48754907779949 
	-1384.869094740811533 4399.492819196932942 14187.07269953805917 
	-1384.86909474095205 4392.0943278965633 14204.24882445251387 
	-1384.869094741167146 4380.278548680501444 14229.69172497983163 
	-1384.869094742731477 4359.894219378327762 14266.57471313938186 
	-1384.869094743890855 4327.379602733453794 14312.39955539265247 
	-1384.869094745263055 4289.938868061912217 14354.2959524940361 
	-1384.869094746359451 4249.594122999980755 14390.34986761846085 
	-1384.86909474731533 4207.366055605349175 14420.70975929527958 
	-1384.869094747877625 4171.333077345907441 14441.51310436455788 
	-1384.869094747975169 4141.371497148629715 14455.94147000662815 
	-1384.869094748204816 4114.558621630679227 14467.24445347102665 
	-1384.869094748319867 4083.157766411708053 14478.23156575216854 
	-1384.869094748598854 4034.956968690273698 14491.14845042951856 
	-1384.869094748872158 3973.147680231747017 14500.46611726473566 
	-1384.869094749408987 3898.138055298181825 14500.4653446240136 
	-1384.869094749797796 3823.966545000927908 14489.28603903029398 
	-1384.869094750135901 3752.289495303632975 14467.17642760412673 
	-1384.869094750436716 3705.827561278867961 14444.80152277581692 
	-1384.869094750462409 3681.601294604844497 14430.66276549045506 
	-1384.869094750461727 3677.585762349573088 14428.26871126502556 
	-1384.869094750463546 3673.59280360520097 14425.83719212311189 
	-1384.869094750464456 3668.299394433923226 14422.54554649894453 
	-1384.869094750468093 3661.740784057335532 14418.33844145876719 
	-1384.869094750472641 3646.191631640692776 14407.94888937130236 
	-1384.86909475050993 3623.606867308913024 14391.28068042053746 
	-1384.869094750544718 3599.967013196423977 14370.93679705766772 
	-1384.869094750555178 3584.251829716553402 14355.79861402746246 
	-1384.869094750556997 3575.519058479510477 14346.90090672446058 
	-1384.869094750563363 3554.10639469887019 14324.25269324698093 
	-1384.869094750624072 3528.774538405968997 14292.4865962536951 
	-1384.869094750637487 3502.226394003349469 14250.23305093147246 
	-1384.869094750662043 3482.794645924154793 14213.46792980935425 
	-1384.869094750676823 3465.016860758343228 14171.2938191197718 
	-1384.869094750684781 3452.753188210366716 14131.53511139678267 
	-1384.869094750684553 3445.353601673060894 14099.11409504548101 
	-1384.869094750684781 3439.578700274883886 14066.36466095373726 
	-1384.8690947506675 3435.435740678140064 14024.96427881675118 
	-1384.869094750660224 3435.43595762535233 13975.03567113597092 
	-1384.869094750637942 3439.992815238875664 13929.49524212604956 
	-1384.869094750606109 3447.724116936604787 13888.6356926991084 
	-1384.86909475058178 3457.410618229191186 13852.4848976899666 
	-1384.869094750545401 3467.71142540804567 13823.04662803612882 
	-1384.869094750535396 3477.254922887418161 13800.00741097702121 
	-1384.869094750509248 3492.850962949472887 13766.0072245895899 
	-1384.869094750437625 3514.728925560166772 13728.11429266964842 
	-1384.869094750353042 3544.3627759563974 13687.96452137153756 
	-1384.869094750291652 3571.487255217131406 13656.44424998986506 
	-1384.869094750124987 3604.25100159532758 13624.48740726256256 
	-1384.869094750051772 3643.286815396804286 13593.35757477114566 
	-1384.869094749944225 3681.732951286906882 13568.5263038316989 
	-1384.869094749801434 3718.49861168649295 13549.09541115360298 
	-1384.869094749743226 3752.801857156438928 13534.12886906702806 
	-1384.869094749576561 3788.127734910004619 13521.76790060822532 
	-1384.869094749442411 3821.26596423777346 13512.88850011543582 
	-1384.869094749337137 3851.845754081112773 13506.80599510117463 
	-1384.869094749224814 3888.892966216036712 13501.57542087591537 
	-1384.869094748785301 3935.642770187095721 13498.94977984262187 
	-1384.869094748362158 3991.742597460523029 13502.10041429804005 
	-1384.869094747863528 4040.982008168111861 13510.46652808684667 
	-1384.869094747528152 4083.157710028568999 13521.76834036771106 
	-1384.869094747351255 4130.259355545476865 13538.24839581450033 
	-1384.869094746939709 4186.577621630680369 13565.36801494270367 
	-1384.869094746077053 4243.387829432164835 13604.10246144711709 
	-1384.86909474537174 4289.938804623895521 13645.70391975412167 
	-1384.869094743929963 4327.379818997371331 13687.60004033938822 
	-1384.869094742671678 4359.894220896921979 13733.42507422302697 
	-1384.869094741181243 4387.07357385594787 13782.60230023615441 
	-1384.869094739483216 4408.575796962442837 13834.5134891695925 
	-1384.869094737814066 4424.130798798826618 13888.50573055704808 
	-1384.869094735769977 4431.973799800414781 13934.66770633856868 
	-1384.86909473512037 4434.725048461662482 13967.28971363953497 
	-1384.869094734915961 4435.413401858434554 13983.63929598652612 
	-1384.869094734863666 4435.585496109136329 13991.81891908532634 
	-1384.869094734848431 4435.628525197917952 13995.90933314635186 
	-1384.869094734844793 4435.639281894535088 13997.95461576991329 
	-1384.869094734843429 4435.64235533925148 13999.12335943533435 
	-1384.869094734842975 4435.642867619758363 13999.70773307404306 
	-1384.869094734843202 4435.642867617041702 13999.99991989118644 
	-1301.535761404308232 4435.642867617042612 13999.99991989118644 
	-1301.535761404310051 4435.642867595309326 14002.33741442834071 
	-1301.535761404354616 4435.610081251666998 14007.01240321990554 
	-1301.535761404395998 4435.413399533445954 14016.3605431275646 
	-1301.535761404594041 4434.725051951094429 14032.71012707566479 
	-1301.535761405238418 4431.973765691962399 14065.33211759405276 
	-1301.535761407111522 4424.130884155696549 14111.49412919254428 
	-1301.535761408742928 4411.168117261516272 14156.48754907779949 
	-1301.535761409260658 4399.492819196933851 14187.07269953805917 
	-1301.535761409377074 4392.094327896564209 14204.24882445251387 
	-1301.535761409555334 4380.278548680502354 14229.69172497983163 
	-1301.535761410853411 4359.894219378328671 14266.57471313938186 
	-1301.535761411815201 4327.379602733454703 14312.39955539265247 
	-1301.535761412953889 4289.938868061912217 14354.2959524940361 
	-1301.535761413863838 4249.594122999981664 14390.34986761846085 
	-1301.535761414656463 4207.366055605349175 14420.70975929527958 
	-1301.535761415123488 4171.333077345907441 14441.51310436455788 
	-1301.535761415204661 4141.371497148630624 14455.94147000662815 
	-1301.535761415394973 4114.558621630680136 14467.24445347102665 
	-1301.535761415490015 4083.157766411708053 14478.23156575216854 
	-1301.535761415722618 4034.956968690274607 14491.14845042951856 
	-1301.535761415948627 3973.147680231747472 14500.46611726473566 
	-1301.535761416394507 3898.138055298181825 14500.4653446240136 
	-1301.53576141671715 3823.966545000927908 14489.28603903029398 
	-1301.535761416997275 3752.289495303633885 14467.17642760412673 
	-1301.535761417246704 3705.82756127886887 14444.80152277581692 
	-1301.535761417268304 3681.601294604845407 14430.66276549045506 
	-1301.535761417267622 3677.585762349573997 14428.26871126502556 
	-1301.535761417269214 3673.59280360520188 14425.83719212311189 
	-1301.535761417269669 3668.299394433924135 14422.54554649894453 
	-1301.535761417272852 3661.740784057336441 14418.33844145876719 
	-1301.535761417276717 3646.191631640693686 14407.94888937130236 
	-1301.53576141730764 3623.606867308913934 14391.28068042053746 
	-1301.535761417336516 3599.967013196424887 14370.93679705766772 
	-1301.535761417345384 3584.251829716554312 14355.79861402746246 
	-1301.535761417346976 3575.519058479511386 14346.90090672446058 
	-1301.535761417352205 3554.1063946988711 14324.25269324698093 
	-1301.535761417402455 3528.774538405969906 14292.4865962536951 
	-1301.535761417413596 3502.226394003350379 14250.23305093147246 
	-1301.53576141743406 3482.794645924155702 14213.46792980935425 
	-1301.535761417446565 3465.016860758344137 14171.2938191197718 
	-1301.535761417453159 3452.753188210367625 14131.53511139678267 
	-1301.535761417452932 3445.353601673061803 14099.11409504548101 
	-1301.535761417453386 3439.578700274884795 14066.36466095373726 
	-1301.535761417438607 3435.435740678140974 14024.96427881675118 
	-1301.535761417432695 3435.43595762535324 13975.03567113597092 
	-1301.535761417414278 3439.992815238876574 13929.49524212604956 
	-1301.535761417387903 3447.724116936605697 13888.6356926991084 
	-1301.535761417367439 3457.410618229192096 13852.4848976899666 
	-1301.535761417337426 3467.71142540804658 13823.04662803612882 
	-1301.535761417328786 3477.25492288741907 13800.00741097702121 
	-1301.535761417306958 3492.850962949473796 13766.0072245895899 
	-1301.535761417247386 3514.728925560167681 13728.11429266964842 
	-1301.5357614171769 3544.362775956398309 13687.96452137153756 
	-1301.535761417125968 3571.487255217132315 13656.44424998986506 
	-1301.535761416987953 3604.251001595328489 13624.48740726256256 
	-1301.535761416926562 3643.286815396805196 13593.35757477114566 
	-1301.535761416838113 3681.732951286907337 13568.5263038316989 
	-1301.535761416718969 3718.498611686493859 13549.09541115360298 
	-1301.535761416671448 3752.801857156439837 13534.12886906702806 
	-1301.535761416532978 3788.127734910005529 13521.76790060822532 
	-1301.535761416421337 3821.265964237773915 13512.88850011543582 
	-1301.535761416334026 3851.845754081113682 13506.80599510117463 
	-1301.535761416240803 3888.892966216037621 13501.57542087591537 
	-1301.535761415876095 3935.64277018709663 13498.94977984262187 
	-1301.53576141552503 3991.742597460523939 13502.10041429804005 
	-1301.53576141511121 4040.98200816811277 13510.46652808684667 
	-1301.535761414832905 4083.157710028569909 13521.76834036771106 
	-1301.535761414686249 4130.259355545477774 13538.24839581450033 
	-1301.535761414344734 4186.577621630680369 13565.36801494270367 
	-1301.535761413628734 4243.387829432165745 13604.10246144711709 
	-1301.535761413043701 4289.938804623896431 13645.70391975412167 
	-1301.535761411847261 4327.37981899737224 13687.60004033938822 
	-1301.535761410803389 4359.894220896922889 13733.42507422302697 
	-1301.535761409566703 4387.07357385594878 13782.60230023615441 
	-1301.535761408157896 4408.575796962443746 13834.5134891695925 
	-1301.535761406772963 4424.130798798827527 13888.50573055704808 
	-1301.53576140507721 4431.973799800415691 13934.66770633856868 
	-1301.535761404538107 4434.725048461663391 13967.28971363953497 
	-1301.535761404368031 4435.413401858435464 13983.63929598652612 
	-1301.535761404325285 4435.585496109137239 13991.81891908532634 
	-1301.535761404312325 4435.628525197918862 13995.90933314635186 
	-1301.535761404309369 4435.639281894535998 13997.95461576991329 
	-1301.535761404308232 4435.64235533925239 13999.12335943533435 
	-1301.535761404308005 4435.642867619759272 13999.70773307404306 
	-1301.535761404308232 4435.642867617042612 13999.99991989118644 
	-1218.202428070974975 4435.642867617042612 13999.99991989118644 
	-1218.202428070976794 4435.642867595309326 14002.33741442834071 
	-1218.202428071021359 4435.610081251666998 14007.01240321990554 
	-1218.202428071062741 4435.413399533445954 14016.3605431275646 
	-1218.202428071260783 4434.725051951094429 14032.71012707566479 
	-1218.20242807190516 4431.973765691962399 14065.33211759405276 
	-1218.202428073778265 4424.130884155696549 14111.49412919254428 
	-1218.202428075409671 4411.168117261516272 14156.48754907779949 
	-1218.202428075927401 4399.492819196933851 14187.07269953805917 
	-1218.202428076043816 4392.094327896564209 14204.24882445251387 
	-1218.202428076222077 4380.278548680502354 14229.69172497983163 
	-1218.202428077520153 4359.894219378328671 14266.57471313938186 
	-1218.202428078481944 4327.379602733454703 14312.39955539265247 
	-1218.202428079620631 4289.938868061912217 14354.2959524940361 
	-1218.202428080530353 4249.594122999981664 14390.34986761846085 
	-1218.202428081323433 4207.366055605349175 14420.70975929527958 
	-1218.202428081790231 4171.333077345907441 14441.51310436455788 
	-1218.202428081871403 4141.371497148630624 14455.94147000662815 
	-1218.202428082061715 4114.558621630680136 14467.24445347102665 
	-1218.202428082156985 4083.157766411707598 14478.23156575216854 
	-1218.202428082389133 4034.956968690274152 14491.14845042951856 
	-1218.202428082615597 3973.147680231747017 14500.46611726473566 
	-1218.202428083061022 3898.138055298181371 14500.4653446240136 
	-1218.202428083383893 3823.966545000927454 14489.28603903029398 
	-1218.202428083664017 3752.28949530363343 14467.17642760412673 
	-1218.202428083913446 3705.827561278868416 14444.80152277581692 
	-1218.202428083935047 3681.601294604844952 14430.66276549045506 
	-1218.202428083934365 3677.585762349573542 14428.26871126502556 
	-1218.202428083935956 3673.592803605201425 14425.83719212311189 
	-1218.202428083936411 3668.29939443392368 14422.54554649894453 
	-1218.202428083939594 3661.740784057335986 14418.33844145876719 
	-1218.20242808394346 3646.191631640693231 14407.94888937130236 
	-1218.202428083974382 3623.606867308913479 14391.28068042053746 
	-1218.202428084003259 3599.967013196424432 14370.93679705766772 
	-1218.202428084012126 3584.251829716553857 14355.79861402746246 
	-1218.202428084013718 3575.519058479510932 14346.90090672446058 
	-1218.202428084018948 3554.106394698870645 14324.25269324698093 
	-1218.202428084069197 3528.774538405969452 14292.4865962536951 
	-1218.202428084080339 3502.226394003349924 14250.23305093147246 
	-1218.202428084100802 3482.794645924155247 14213.46792980935425 
	-1218.202428084113308 3465.016860758343682 14171.2938191197718 
	-1218.202428084119902 3452.753188210367171 14131.53511139678267 
	-1218.202428084119674 3445.353601673061348 14099.11409504548101 
	-1218.202428084119902 3439.578700274884341 14066.36466095373726 
	-1218.202428084105577 3435.435740678140519 14024.96427881675118 
	-1218.202428084099438 3435.435957625352785 13975.03567113597092 
	-1218.202428084081021 3439.992815238876119 13929.49524212604956 
	-1218.202428084054645 3447.724116936605242 13888.6356926991084 
	-1218.202428084034182 3457.410618229191641 13852.4848976899666 
	-1218.202428084004168 3467.711425408046125 13823.04662803612882 
	-1218.202428083995528 3477.254922887418616 13800.00741097702121 
	-1218.2024280839737 3492.850962949473342 13766.0072245895899 
	-1218.202428083914128 3514.728925560167227 13728.11429266964842 
	-1218.202428083843643 3544.362775956397854 13687.96452137153756 
	-1218.202428083792938 3571.48725521713186 13656.44424998986506 
	-1218.202428083654468 3604.251001595328034 13624.48740726256256 
	-1218.202428083593531 3643.286815396804741 13593.35757477114566 
	-1218.202428083504628 3681.732951286906882 13568.5263038316989 
	-1218.202428083385939 3718.498611686493405 13549.09541115360298 
	-1218.202428083337963 3752.801857156439382 13534.12886906702806 
	-1218.20242808319972 3788.127734910005074 13521.76790060822532 
	-1218.20242808308808 3821.26596423777346 13512.88850011543582 
	-1218.202428083000768 3851.845754081113228 13506.80599510117463 
	-1218.202428082907545 3888.892966216037166 13501.57542087591537 
	-1218.202428082542838 3935.642770187096176 13498.94977984262187 
	-1218.202428082191773 3991.742597460523484 13502.10041429804005 
	-1218.202428081777953 4040.982008168112316 13510.46652808684667 
	-1218.202428081499647 4083.157710028569454 13521.76834036771106 
	-1218.202428081352991 4130.259355545477774 13538.24839581450033 
	-1218.202428081011476 4186.577621630680369 13565.36801494270367 
	-1218.202428080295476 4243.387829432165745 13604.10246144711709 
	-1218.202428079710444 4289.938804623896431 13645.70391975412167 
	-1218.202428078514004 4327.37981899737224 13687.60004033938822 
	-1218.202428077470131 4359.894220896922889 13733.42507422302697 
	-1218.202428076233446 4387.07357385594878 13782.60230023615441 
	-1218.202428074824638 4408.575796962443746 13834.5134891695925 
	-1218.202428073439705 4424.130798798827527 13888.50573055704808 
	-1218.202428071743725 4431.973799800415691 13934.66770633856868 
	-1218.202428071204849 4434.725048461663391 13967.28971363953497 
	-1218.202428071034774 4435.413401858435464 13983.63929598652612 
	-1218.202428070992028 4435.585496109137239 13991.81891908532634 
	-1218.202428070979067 4435.628525197918862 13995.90933314635186 
	-1218.202428070976111 4435.639281894535998 13997.95461576991329 
	-1218.202428070974975 4435.64235533925239 13999.12335943533435 
	-1218.202428070974747 4435.642867619759272 13999.70773307404306 
	-1218.202428070974975 4435.642867617042612 13999.99991989118644 
	0 
	
	0 
	0 
	83 0 0.002232142857142857019 0.004464285714285714038 0.008928571428571428076 0.01785714285714285615 0.0357142857142857123 0.05357142857142856845 0.0625 0.0669642857142857123 0.07142857142857142461 0.08928571428571427382 0.1071428571428571369 0.125 0.1428571428571428492 0.1587301587301587213 0.1746031746031745935 0.1825396825396825295 0.1904761904761904656 0.2023809523809523836 0.2142857142857142738 0.238095238095238082 0.2619047619047618625 0.2857142857142856984 0.3095238095238095344 0.3333333333333333148 0.3348214285714286031 0.336309523809523836 0.3377976190476190688 0.3392857142857143016 0.3422619047619047672 0.3452380952380952328 0.3571428571428570953 0.3690476190476190133 0.375 0.3779761904761904656 0.3809523809523809312 0.4047619047619047672 0.4166666666666666297 0.4285714285714285476 0.4444444444444444198 0.4603174603174602919 0.4682539682539682557 0.476190476190476164 0.4920634920634920362 0.5079365079365079083 0.5238095238095237249 0.5357142857142855874 0.5476190476190475609 0.5595238095238095344 0.5654761904761904656 0.5714285714285713969 0.5952380952380951218 0.6071428571428569843 0.6190476190476189577 0.6349206349206348854 0.650793650793650702 0.6666666666666666297 0.6785714285714286031 0.6904761904761904656 0.7023809523809523281 0.7142857142857141906 0.7232142857142855874 0.7321428571428569843 0.749999999999999889 0.7678571428571427937 0.7857142857142855874 0.7976190476190474499 0.8095238095238094234 0.8333333333333332593 0.8571428571428570953 0.875 0.8928571428571427937 0.9107142857142856984 0.9285714285714286031 0.9464285714285713969 0.9642857142857143016 0.9821428571428572063 0.9910714285714286031 0.9955357142857143016 0.9977678571428572063 0.9988839285714286031 0.9994419642857143016 0.9997209821428572063 
	0 
	0 
	0 
	F 1 F 0 F 1 F 0 } I I I I #
tcoedge-coedge $-1 -1 $-1 $14 $14 $18 $19 reversed $9 $20 -6.283185307179586232 -0 #
tcoedge-coedge $-1 -1 $-1 $21 $22 $11 $16 reversed $12 $23 -6.283185307179586232 -0 #
tedge-edge $-1 -1 $-1 $24 0 $24 6.283185307179586232 $15 $25 forward @7 unknown 0.0006524528247263256236 #
pcurve $-1 -1 $-1 0 forward { exppc nurbs 2 periodic 5 
	0 2 1.570796326794896558 2 3.141592653589793116 2 4.712388980384689674 2 6.283185307179586232 2 
	0 500 1 
	-500 500 0.707106781186543798 
	-500 0 1 
	-500 -500 0.7071067811865463515 
	0 -500 1 
	500 -500 0.7071067811865463515 
	500 0 1 
	500 500 0.707106781186543798 
	0 500 1 
	0 
	plane -1218.202428084613075 3935.642797989822611 14000.00000000000182 1 -3.637978807091713027e-15 0 0 0 -1 forward_v I I I I 
	} 0 0 #
tcoedge-coedge $-1 -1 $-1 $22 $21 $14 $19 forward $12 $26 0 6.283185307179586232 #
tedge-edge $-1 -1 $-1 $27 0 $27 6.283185307179586232 $18 $28 forward @7 unknown 0.0006524528256416386963 #
pcurve $-1 -1 $-1 0 forward { exppc nurbs 2 periodic 5 
	-6.283185307179586232 2 -4.712388980384689674 2 -3.141592653589793116 2 -1.570796326794896558 2 0 2 
	0 500 1 
	500 500 0.707106781186543798 
	500 0 1 
	500 -500 0.7071067811865463515 
	0 -500 1 
	-500 -500 0.7071067811865463515 
	-500 0 1 
	-500 500 0.707106781186543798 
	0 500 1 
	0 
	plane -1468.202428084613075 3935.642797989823521 14000.00000000000182 -1 3.637978807091713027e-15 -0 0 0 -1 reverse_v I I I I 
	} 0 0 #
coedge $-1 -1 $-1 $18 $15 $22 $29 reversed $12 $30 #
coedge $-1 -1 $-1 $15 $18 $21 $29 forward $12 $31 #
pcurve $-1 -1 $-1 0 forward { exppc nubs 1 periodic 2 
	-6.283185307179586232 1 -0 1 
	1 1 
	0 1 
	0 
	spline forward { ref 0 } I I I I 
	} 0 0 #
tvertex-vertex $-1 -1 $-1 $16 $32 0.0001061384679350889712 #
ellipse-curve $-1 -1 $-1 -1218.202428084613075 3935.642797989822611 14000.00000000000182 1 -3.637978807091713027e-15 0 1.818989403545856476e-12 500 0 1 I I #
pcurve $-1 -1 $-1 0 forward { exppc nubs 1 periodic 2 
	0 1 6.283185307179586232 1 
	0 0 
	1 0 
	4.411402399551012014e-13 
	spline forward { ref 0 } I I I I 
	} 0 0 #
tvertex-vertex $-1 -1 $-1 $19 $33 0.0001061384677348938319 #
ellipse-curve $-1 -1 $-1 -1468.202428084613075 3935.642797989823521 14000.00000000000182 1 -3.637978807091713027e-15 0 1.818989403545856476e-12 500 0 1 I I #
edge $-1 -1 $-1 $27 0 $24 0.9999999999454548538 $22 $34 forward @7 tangent #
pcurve $-1 -1 $-1 -1 $34 0 0 #
pcurve $-1 -1 $-1 1 $34 1 0 #
point $-1 -1 $-1 -1218.202428084611256 4435.642797989822611 14000.00000000000182 #
point $-1 -1 $-1 -1468.202428084611256 4435.642797989823521 14000.00000000000182 #
intcurve-curve $-1 -1 $-1 forward { parcur full nubs 3 open 2 
	0 3 1 3 
	-1468.202428068176459 4435.642867617042612 13999.99991989118644 
	-1384.869094734843202 4435.642867617041702 13999.99991989118644 
	-1301.535761404308232 4435.642867617042612 13999.99991989118644 
	-1218.202428070974975 4435.642867617042612 13999.99991989118644 
	0 
	
	spline forward { ref 0 } I I I I 
	null_surface 
	nubs 1 open 2 
	0 1 1 1 
	0 0 
	0 1 
	
	nullbs 
	I I 
	0 
	0 
	0 
	surf1 } F 0 F 0.9999999999454548538 #
End-of-ACIS-data 