700 0 1 0           
4 LibG 20 ASM 224.0.1.65535 NT 24 Wed Jul 17 12:52:12 2019 
1000 9.999999999999999547e-07 1.000000000000000036e-10 
body $-1 -1 $-1 $1 $-1 $2 #
lump $-1 -1 $-1 $-1 $3 $0 #
transform $-1 -1 1 0 0 0 1 0 0 0 1 0 0 0 1 no_rotate no_reflect no_shear #
shell $-1 -1 $-1 $-1 $-1 $4 $-1 $1 #
face $-1 -1 $-1 $5 $6 $3 $-1 $7 forward single #
face $-1 -1 $-1 $8 $9 $3 $-1 $10 reversed single #
loop $-1 -1 $-1 $-1 $11 $4 #
plane-surface $-1 -1 $-1 4031.797571915386925 3935.642797989803512 14000.00000000000182 1 -3.637978807091706717e-15 0 0 0 -1 forward_v I I I I #
face $-1 -1 $-1 $-1 $12 $3 $-1 $13 forward single #
loop $-1 -1 $-1 $-1 $14 $5 #
plane-surface $-1 -1 $-1 3781.797571915386925 3935.642797989804421 14000.00000000000182 1 -3.637978807091713027e-15 0 0 0 -1 forward_v I I I I #
tcoedge-coedge $-1 -1 $-1 $11 $11 $15 $16 forward $6 $17 0 6.283185307179586232 #
loop $-1 -1 $-1 $-1 $18 $8 #
spline-surface $-1 -1 $-1 forward { exactsur full nubs 3 3 periodic open none none 87 2 
	0 3 0.002232142857142857019 1 0.004464285714285714038 1 0.008928571428571428076 1 0.01785714285714285615 1 
	0.02678571428571428423 1 0.0357142857142857123 1 0.05357142857142856845 1 0.07142857142857142461 1 0.08928571428571427382 1 
	0.1071428571428571369 1 0.125 1 0.1428571428571428492 1 0.1587301587301587213 1 0.1746031746031745935 1 
	0.1904761904761904656 1 0.2023809523809523836 1 0.2142857142857142738 1 0.238095238095238082 1 0.2619047619047618625 1 
	0.2857142857142856984 1 0.2976190476190476164 1 0.3095238095238095344 1 0.3214285714285713969 1 0.3273809523809523281 1 
	0.3333333333333333148 1 0.3452380952380952328 1 0.3571428571428570953 1 0.3690476190476190133 1 0.375 1 
	0.3809523809523809312 1 0.3869047619047618625 1 0.3898809523809523281 1 0.3928571428571428492 1 0.4047619047619047672 1 
	0.4285714285714285476 1 0.4305555555555555802 1 0.4365079365079365115 1 0.4444444444444444198 1 0.4603174603174602919 1 
	0.476190476190476164 1 0.4801587301587301182 1 0.4841269841269840724 1 0.4880952380952380265 1 0.4900793650793650036 1 
	0.4920634920634920362 1 0.5158730158730158166 1 0.5238095238095237249 1 0.5357142857142855874 1 0.5476190476190475609 1 
	0.5595238095238095344 1 0.5714285714285713969 1 0.5952380952380951218 1 0.6190476190476189577 1 0.6269841269841269771 1 
	0.6309523809523809312 1 0.6349206349206348854 1 0.650793650793650702 1 0.6666666666666666297 1 0.6785714285714286031 1 
	0.6904761904761904656 1 0.7023809523809523281 1 0.7142857142857141906 1 0.7321428571428569843 1 0.749999999999999889 1 
	0.7678571428571427937 1 0.7857142857142855874 1 0.7976190476190474499 1 0.8095238095238094234 1 0.8333333333333332593 1 
	0.8452380952380951218 1 0.851190476190476053 1 0.8571428571428570953 1 0.875 1 0.8928571428571427937 1 
	0.9107142857142856984 1 0.9285714285714286031 1 0.9464285714285713969 1 0.9642857142857143016 1 0.9821428571428572063 1 
	0.9910714285714286031 1 0.9955357142857143016 1 0.9977678571428572063 1 0.9988839285714286031 1 0.9994419642857143016 1 
	0.9997209821428572063 1 1 3 
	0 3 1 3 
	3781.797571904504821 4435.642879985085528 13999.99989583656497 
	3781.797571904510733 4435.642879940207422 14002.33739037923624 
	3781.797571904557117 4435.610095932366676 14007.012379373351 
	3781.797571904603501 4435.413405541549764 14016.36051883735672 
	3781.797571904794495 4434.725101046034979 14032.7101054638897 
	3781.797571905343375 4432.759716097696582 14056.01151651301734 
	3781.797571905840869 4428.836933693244646 14083.7969294363138 
	3781.797571906378835 4421.538050324703363 14120.49273127615015 
	3781.797571908020927 4408.575883792623245 14165.48629397124569 
	3781.797571909334238 4387.073454416373352 14217.39742110839506 
	3781.797571910668012 4359.894167193162502 14266.57465148431402 
	3781.797571911945397 4327.379680583284426 14312.39957312651313 
	3781.797571912391959 4289.938955463536331 14354.29599888207849 
	3781.797571912757121 4249.594199316674349 14390.34989286667769 
	3781.797571913629781 4207.366058615002657 14420.70972489133965 
	3781.79757191372164 4164.12660851140663 14445.67387964719455 
	3781.797571913903539 4122.408956153877625 14464.49781568767503 
	3781.797571914038599 4083.157815493692397 14478.2314994225253 
	3781.797571914257787 4034.957088574595218 14491.14878999452048 
	3781.797571914322816 3973.147748718558887 14500.46574017281819 
	3781.797571914551554 3898.138034994979989 14500.4657804753333 
	3781.797571914615673 3836.328645219008649 14491.14907234825478 
	3781.797571914700256 3788.127895826330132 14478.23175181751139 
	3781.79757191479348 3752.801926240498233 14465.87136526327777 
	3781.797571914867149 3724.215898044269579 14453.39901607121283 
	3781.79757191489125 3701.954148945745146 14442.16072772502412 
	3781.797571914910804 3680.128109063205557 14430.09797037142562 
	3781.797571914982655 3653.720143282454956 14413.50474883197603 
	3781.797571914998571 3623.607168453916984 14391.28041885811945 
	3781.797571915070421 3599.967312495540227 14370.93653434752014 
	3781.797571915082699 3582.007152348933687 14353.63571447465256 
	3781.797571915094522 3569.031561739841891 14340.16556760826825 
	3781.797571915107255 3558.64590506395507 14328.54394442502598 
	3781.797571915110439 3550.60240167216034 14319.01856311424672 
	3781.797571915115896 3538.806591690237383 14304.50729845894057 
	3781.797571915178196 3514.728651138228088 14271.88581103626893 
	3781.797571915175922 3494.93430284547776 14237.60172439434427 
	3781.797571915181834 3480.697173254567133 14207.55946063686497 
	3781.797571915181834 3473.954030678096842 14192.36330580400863 
	3781.797571915183198 3462.56389943987142 14163.34215860129552 
	3781.797571915181834 3450.299882910161159 14123.58353157708189 
	3781.797571915173194 3442.880155707575796 14086.87949915871468 
	3781.79757191517001 3439.47154019912432 14062.17836115956743 
	3781.797571915168646 3438.075596841840706 14049.78915226451136 
	3781.797571915168191 3437.170054079078454 14039.43901359615666 
	3781.797571915168191 3436.600677637355147 14031.14729146790341 
	3781.797571915168191 3434.969128561571324 14002.10365638187432 
	3781.797571915175922 3435.853202290336412 13966.6938272057414 
	3781.797571915175467 3441.539905969661049 13921.32346958901144 
	3781.797571915177286 3447.724316406814523 13888.63584687029106 
	3781.797571915167737 3457.410979540091375 13852.48490205617964 
	3781.797571915169101 3469.772299608688627 13817.15925177910503 
	3781.79757191514409 3489.726005528986661 13771.42071047552781 
	3781.797571915124081 3520.978983176111342 13717.28695761200106 
	3781.79757191509043 3557.354278819649153 13671.67481001897067 
	3781.797571915057233 3583.477242796100199 13644.8939668891453 
	3781.797571915052231 3595.521122536026269 13633.43601792421941 
	3781.797571915039498 3614.009887584167245 13616.70489624362745 
	3781.797571914982655 3643.286688679047529 13593.35744317526587 
	3781.797571914970831 3681.732884775987714 13568.52626230944225 
	3781.797571914888067 3718.498583902766768 13549.09546630247132 
	3781.79757191485578 3752.801802309069444 13534.12884130519524 
	3781.797571914772561 3788.127719926470945 13521.76808262340091 
	3781.797571914663877 3830.303547471250113 13510.46652401072606 
	3781.797571914627042 3879.542878576201019 13502.10028303026047 
	3781.797571914319178 3935.642773640021915 13498.94996052181159 
	3781.797571914254604 3991.742522633772296 13502.10036171786669 
	3781.797571914047239 4040.982022988967856 13510.46651483656206 
	3781.797571914015407 4083.157604989290121 13521.7684499255447 
	3781.797571913917182 4130.259391055703418 13538.24838667275981 
	3781.797571913750744 4175.313516867591716 13559.9446076014101 
	3781.797571913642969 4212.283976885933043 13583.17657382626567 
	3781.797571913560205 4232.622187540392588 13597.60708568962946 
	3781.797571913558841 4257.352755781051201 13616.5833167072069 
	3781.797571912986314 4289.939022620797914 13645.70359293047477 
	3781.797571912388321 4327.379675967342337 13687.60015397896495 
	3781.797571911572049 4359.894266168609647 13733.42498460848219 
	3781.797571910911302 4387.073449242960123 13782.60233352487194 
	3781.797571909646194 4408.5759359652493 13834.51339120339071 
	3781.797571907520705 4424.130793983111289 13888.50571165410474 
	3781.797571905494351 4431.973831275602606 13934.66767153455476 
	3781.797571904782671 4434.725060490585747 13967.28968961584724 
	3781.797571904576216 4435.41341508586811 13983.63927148472612 
	3781.797571904522101 4435.585508525738078 13991.81889501544902 
	3781.797571904507095 4435.628537638935086 13995.90930907395341 
	3781.797571904503911 4435.639294281570074 13997.95459171371476 
	3781.797571904503002 4435.642367753194776 13999.12333538163693 
	3781.797571904503911 4435.642879990695292 13999.7077090187322 
	3781.797571904504821 4435.642879985085528 13999.99989583656497 
	3865.130905237838306 4435.642879985084619 13999.99989583656497 
	3865.130905237844217 4435.642879940206512 14002.33739037923624 
	3865.130905237890602 4435.610095932365766 14007.012379373351 
	3865.130905237936986 4435.413405541548855 14016.36051883735672 
	3865.13090523812798 4434.725101046034069 14032.7101054638897 
	3865.13090523867686 4432.759716097695673 14056.01151651301734 
	3865.130905239174353 4428.836933693243736 14083.7969294363138 
	3865.13090523971232 4421.538050324702454 14120.49273127615015 
	3865.130905241354412 4408.575883792622335 14165.48629397124569 
	3865.130905242667723 4387.073454416372442 14217.39742110839506 
	3865.130905244001497 4359.894167193161593 14266.57465148431402 
	3865.130905245278882 4327.379680583283516 14312.39957312651313 
	3865.130905245725444 4289.938955463535422 14354.29599888207849 
	3865.130905246090606 4249.594199316673439 14390.34989286667769 
	3865.130905246963266 4207.366058615001748 14420.70972489133965 
	3865.130905247055125 4164.12660851140572 14445.67387964719455 
	3865.130905247237024 4122.408956153876716 14464.49781568767503 
	3865.130905247372084 4083.157815493691942 14478.2314994225253 
	3865.130905247591272 4034.957088574594763 14491.14878999452048 
	3865.130905247656301 3973.147748718558432 14500.46574017281819 
	3865.130905247885039 3898.138034994979535 14500.4657804753333 
	3865.130905247949158 3836.328645219008195 14491.14907234825478 
	3865.130905248033741 3788.127895826329677 14478.23175181751139 
	3865.130905248126965 3752.801926240497778 14465.87136526327777 
	3865.130905248200634 3724.215898044269125 14453.39901607121283 
	3865.130905248224735 3701.954148945744691 14442.16072772502412 
	3865.130905248244289 3680.128109063205102 14430.09797037142562 
	3865.130905248316594 3653.720143282454501 14413.50474883197603 
	3865.130905248331601 3623.607168453916529 14391.28041885811945 
	3865.13090524840436 3599.967312495539772 14370.93653434752014 
	3865.130905248416184 3582.007152348933232 14353.63571447465256 
	3865.130905248428007 3569.031561739841436 14340.16556760826825 
	3865.13090524844074 3558.645905063954615 14328.54394442502598 
	3865.130905248443923 3550.602401672159885 14319.01856311424672 
	3865.13090524844938 3538.806591690236928 14304.50729845894057 
	3865.130905248511226 3514.728651138227633 14271.88581103626893 
	3865.130905248509407 3494.934302845477305 14237.60172439434427 
	3865.130905248515319 3480.697173254566678 14207.55946063686497 
	3865.130905248515319 3473.954030678096387 14192.36330580400863 
	3865.130905248516683 3462.563899439870966 14163.34215860129552 
	3865.130905248515774 3450.299882910160704 14123.58353157708189 
	3865.130905248506224 3442.880155707575341 14086.87949915871468 
	3865.130905248503495 3439.471540199123865 14062.17836115956743 
	3865.130905248502131 3438.075596841840252 14049.78915226451136 
	3865.130905248501676 3437.170054079078 14039.43901359615666 
	3865.130905248501676 3436.600677637354693 14031.14729146790341 
	3865.130905248501676 3434.969128561570869 14002.10365638187432 
	3865.130905248509407 3435.853202290335958 13966.6938272057414 
	3865.130905248508952 3441.539905969660595 13921.32346958901144 
	3865.130905248510771 3447.724316406814069 13888.63584687029106 
	3865.130905248501222 3457.410979540090921 13852.48490205617964 
	3865.130905248502586 3469.772299608688172 13817.15925177910503 
	3865.130905248477575 3489.726005528986207 13771.42071047552781 
	3865.130905248457566 3520.978983176110887 13717.28695761200106 
	3865.130905248423915 3557.354278819648698 13671.67481001897067 
	3865.130905248390718 3583.477242796099745 13644.8939668891453 
	3865.130905248385716 3595.521122536025814 13633.43601792421941 
	3865.130905248372983 3614.00988758416679 13616.70489624362745 
	3865.130905248316139 3643.286688679047074 13593.35744317526587 
	3865.130905248304316 3681.732884775987259 13568.52626230944225 
	3865.130905248221552 3718.498583902766313 13549.09546630247132 
	3865.130905248189265 3752.801802309068989 13534.12884130519524 
	3865.130905248106046 3788.12771992647049 13521.76808262340091 
	3865.130905247997362 3830.303547471249658 13510.46652401072606 
	3865.130905247960527 3879.542878576200565 13502.10028303026047 
	3865.130905247652663 3935.64277364002146 13498.94996052181159 
	3865.130905247588089 3991.742522633771841 13502.10036171786669 
	3865.130905247380724 4040.982022988967401 13510.46651483656206 
	3865.130905247348892 4083.157604989289666 13521.7684499255447 
	3865.130905247250666 4130.259391055703418 13538.24838667275981 
	3865.130905247084229 4175.313516867590806 13559.9446076014101 
	3865.130905246976454 4212.283976885932134 13583.17657382626567 
	3865.13090524689369 4232.622187540391678 13597.60708568962946 
	3865.130905246892326 4257.352755781050291 13616.5833167072069 
	3865.130905246319799 4289.939022620797004 13645.70359293047477 
	3865.130905245721806 4327.379675967341427 13687.60015397896495 
	3865.130905244905534 4359.894266168608738 13733.42498460848219 
	3865.130905244244786 4387.073449242959214 13782.60233352487194 
	3865.130905242979679 4408.575935965248391 13834.51339120339071 
	3865.13090524085419 4424.130793983110379 13888.50571165410474 
	3865.130905238827836 4431.973831275601697 13934.66767153455476 
	3865.130905238116156 4434.725060490584838 13967.28968961584724 
	3865.130905237909701 4435.4134150858672 13983.63927148472612 
	3865.130905237855586 4435.585508525737168 13991.81889501544902 
	3865.13090523784058 4435.628537638934176 13995.90930907395341 
	3865.130905237837396 4435.639294281569164 13997.95459171371476 
	3865.130905237836487 4435.642367753193867 13999.12333538163693 
	3865.130905237837396 4435.642879990694382 13999.7077090187322 
	3865.130905237838306 4435.642879985084619 13999.99989583656497 
	3948.464238570452835 4435.642879985085528 13999.99989583656497 
	3948.464238570458747 4435.642879940207422 14002.33739037923624 
	3948.464238570506495 4435.610095932366676 14007.012379373351 
	3948.464238570556972 4435.413405541549764 14016.36051883735672 
	3948.464238570760244 4434.725101046034979 14032.7101054638897 
	3948.464238571346414 4432.759716097696582 14056.01151651301734 
	3948.464238571876194 4428.836933693244646 14083.7969294363138 
	3948.464238572450085 4421.538050324703363 14120.49273127615015 
	3948.464238574201318 4408.575883792623245 14165.48629397124569 
	3948.464238575601485 4387.073454416373352 14217.39742110839506 
	3948.46423857702348 4359.894167193162502 14266.57465148431402 
	3948.464238578385903 4327.379680583284426 14312.39957312651313 
	3948.464238578861568 4289.938955463536331 14354.29599888207849 
	3948.464238579249923 4249.594199316674349 14390.34989286667769 
	3948.464238580180336 4207.366058615002657 14420.70972489133965 
	3948.464238580278561 4164.12660851140663 14445.67387964719455 
	3948.464238580471829 4122.408956153877625 14464.49781568767503 
	3948.464238580617348 4083.157815493692851 14478.2314994225253 
	3948.464238580850179 4034.957088574595673 14491.14878999452048 
	3948.46423858092021 3973.147748718559342 14500.46574017281819 
	3948.464238581163045 3898.138034994979989 14500.4657804753333 
	3948.464238581231712 3836.328645219008195 14491.14907234825478 
	3948.464238581322661 3788.127895826329677 14478.23175181751139 
	3948.464238581421796 3752.801926240498233 14465.87136526327777 
	3948.464238581500467 3724.215898044269125 14453.39901607121283 
	3948.464238581526388 3701.954148945744691 14442.16072772502412 
	3948.464238581547306 3680.128109063204647 14430.09797037142562 
	3948.46423858162234 3653.720143282454046 14413.50474883197603 
	3948.464238581640984 3623.607168453916074 14391.28041885811945 
	3948.464238581716472 3599.967312495538863 14370.93653434752014 
	3948.464238581730569 3582.007152348932323 14353.63571447465256 
	3948.464238581742848 3569.031561739840981 14340.16556760826825 
	3948.464238581756945 3558.645905063953251 14328.54394442502598 
	3948.464238581760128 3550.602401672158976 14319.01856311424672 
	3948.46423858176604 3538.806591690235564 14304.50729845894057 
	3948.464238581831069 3514.728651138226724 14271.88581103626893 
	3948.46423858182925 3494.934302845475941 14237.60172439434427 
	3948.464238581835616 3480.697173254565769 14207.55946063686497 
	3948.464238581834707 3473.954030678095478 14192.36330580400863 
	3948.46423858183698 3462.563899439870056 14163.34215860129552 
	3948.464238581834252 3450.299882910158885 14123.58353157708189 
	3948.464238581826976 3442.880155707573977 14086.87949915871468 
	3948.464238581822428 3439.471540199122046 14062.17836115956743 
	3948.464238581821519 3438.075596841838433 14049.78915226451136 
	3948.464238581821064 3437.170054079075726 14039.43901359615666 
	3948.464238581821064 3436.600677637353328 14031.14729146790341 
	3948.464238581821519 3434.969128561569505 14002.10365638187432 
	3948.464238581828795 3435.853202290334139 13966.6938272057414 
	3948.464238581827885 3441.53990596965923 13921.32346958901144 
	3948.464238581830159 3447.724316406812704 13888.63584687029106 
	3948.464238581819245 3457.410979540090466 13852.48490205617964 
	3948.464238581821064 3469.772299608687263 13817.15925177910503 
	3948.464238581795144 3489.726005528985297 13771.42071047552781 
	3948.464238581772861 3520.978983176110432 13717.28695761200106 
	3948.464238581736936 3557.354278819648243 13671.67481001897067 
	3948.464238581701466 3583.477242796098835 13644.8939668891453 
	3948.464238581696463 3595.521122536024905 13633.43601792421941 
	3948.464238581682821 3614.009887584166336 13616.70489624362745 
	3948.464238581621885 3643.28668867904662 13593.35744317526587 
	3948.464238581609152 3681.732884775986804 13568.52626230944225 
	3948.46423858152184 3718.498583902765404 13549.09546630247132 
	3948.46423858148728 3752.801802309068535 13534.12884130519524 
	3948.464238581398149 3788.127719926470036 13521.76808262340091 
	3948.464238581282643 3830.303547471249658 13510.46652401072606 
	3948.46423858124308 3879.542878576200565 13502.10028303026047 
	3948.464238580914753 3935.64277364002146 13498.94996052181159 
	3948.464238580846541 3991.742522633771841 13502.10036171786669 
	3948.464238580625533 4040.982022988967401 13510.46651483656206 
	3948.464238580591427 4083.157604989290121 13521.7684499255447 
	3948.464238580486835 4130.259391055702508 13538.24838667275981 
	3948.464238580309029 4175.313516867590806 13559.9446076014101 
	3948.464238580194433 4212.283976885932134 13583.17657382626567 
	3948.464238580106212 4232.622187540391678 13597.60708568962946 
	3948.464238580104848 4257.352755781050291 13616.5833167072069 
	3948.464238579494122 4289.939022620797004 13645.70359293047477 
	3948.464238578856566 4327.379675967341427 13687.60015397896495 
	3948.464238577985725 4359.894266168609647 13733.42498460848219 
	3948.464238577281321 4387.073449242960123 13782.60233352487194 
	3948.464238575932541 4408.575935965248391 13834.51339120339071 
	3948.464238573666989 4424.130793983111289 13888.50571165410474 
	3948.464238571505575 4431.973831275602606 13934.66767153455476 
	3948.464238570747511 4434.725060490585747 13967.28968961584724 
	3948.464238570526504 4435.41341508586811 13983.63927148472612 
	3948.464238570470116 4435.585508525738078 13991.81889501544902 
	3948.464238570453745 4435.628537638935086 13995.90930907395341 
	3948.464238570451016 4435.639294281570074 13997.95459171371476 
	3948.464238570451471 4435.642367753194776 13999.12333538163693 
	3948.46423857045238 4435.642879990695292 13999.7077090187322 
	3948.464238570452835 4435.642879985085528 13999.99989583656497 
	4031.79757190378632 4435.642879985085528 13999.99989583656497 
	4031.797571903792232 4435.642879940207422 14002.33739037923624 
	4031.79757190383998 4435.610095932366676 14007.012379373351 
	4031.797571903890457 4435.413405541549764 14016.36051883735672 
	4031.797571904093729 4434.725101046034979 14032.7101054638897 
	4031.797571904679899 4432.759716097696582 14056.01151651301734 
	4031.797571905209679 4428.836933693244646 14083.7969294363138 
	4031.79757190578357 4421.538050324703363 14120.49273127615015 
	4031.797571907534802 4408.575883792623245 14165.48629397124569 
	4031.79757190893497 4387.073454416373352 14217.39742110839506 
	4031.797571910356965 4359.894167193162502 14266.57465148431402 
	4031.797571911719388 4327.379680583284426 14312.39957312651313 
	4031.797571912195053 4289.938955463536331 14354.29599888207849 
	4031.797571912583408 4249.594199316674349 14390.34989286667769 
	4031.797571913513821 4207.366058615002657 14420.70972489133965 
	4031.797571913612046 4164.12660851140663 14445.67387964719455 
	4031.797571913805314 4122.408956153877625 14464.49781568767503 
	4031.797571913950833 4083.157815493692397 14478.2314994225253 
	4031.797571914183663 4034.957088574595218 14491.14878999452048 
	4031.797571914253695 3973.147748718558887 14500.46574017281819 
	4031.79757191449653 3898.138034994979535 14500.4657804753333 
	4031.797571914565196 3836.32864521900774 14491.14907234825478 
	4031.797571914656146 3788.127895826329222 14478.23175181751139 
	4031.797571914755281 3752.801926240497778 14465.87136526327777 
	4031.797571914833952 3724.21589804426867 14453.39901607121283 
	4031.797571914859873 3701.954148945744237 14442.16072772502412 
	4031.797571914880791 3680.128109063204192 14430.09797037142562 
	4031.797571914956279 3653.720143282453591 14413.50474883197603 
	4031.797571914974014 3623.607168453915619 14391.28041885811945 
	4031.797571915050412 3599.967312495538408 14370.93653434752014 
	4031.797571915064054 3582.007152348931868 14353.63571447465256 
	4031.797571915076333 3569.031561739840527 14340.16556760826825 
	4031.79757191509043 3558.645905063952796 14328.54394442502598 
	4031.797571915093613 3550.602401672158521 14319.01856311424672 
	4031.797571915099525 3538.806591690235109 14304.50729845894057 
	4031.797571915164099 3514.728651138226269 14271.88581103626893 
	4031.797571915162735 3494.934302845475486 14237.60172439434427 
	4031.797571915169101 3480.697173254565314 14207.55946063686497 
	4031.797571915168191 3473.954030678095023 14192.36330580400863 
	4031.79757191517001 3462.563899439869601 14163.34215860129552 
	4031.797571915167737 3450.299882910158431 14123.58353157708189 
	4031.797571915160006 3442.880155707573522 14086.87949915871468 
	4031.797571915155913 3439.471540199121591 14062.17836115956743 
	4031.797571915155004 3438.075596841837978 14049.78915226451136 
	4031.797571915154549 3437.170054079075271 14039.43901359615666 
	4031.797571915154549 3436.600677637352874 14031.14729146790341 
	4031.797571915155004 3434.96912856156905 14002.10365638187432 
	4031.79757191516228 3435.853202290333684 13966.6938272057414 
	4031.79757191516137 3441.539905969658776 13921.32346958901144 
	4031.797571915163644 3447.72431640681225 13888.63584687029106 
	4031.79757191515273 3457.410979540090011 13852.48490205617964 
	4031.797571915154549 3469.772299608686808 13817.15925177910503 
	4031.797571915128628 3489.726005528984842 13771.42071047552781 
	4031.797571915106346 3520.978983176109978 13717.28695761200106 
	4031.797571915070421 3557.354278819647789 13671.67481001897067 
	4031.797571915034951 3583.47724279609838 13644.8939668891453 
	4031.797571915029948 3595.52112253602445 13633.43601792421941 
	4031.797571915016306 3614.009887584165881 13616.70489624362745 
	4031.79757191495537 3643.286688679046165 13593.35744317526587 
	4031.797571914942637 3681.732884775986349 13568.52626230944225 
	4031.797571914855325 3718.498583902764949 13549.09546630247132 
	4031.797571914820765 3752.80180230906808 13534.12884130519524 
	4031.797571914731634 3788.127719926469581 13521.76808262340091 
	4031.797571914616128 3830.303547471249203 13510.46652401072606 
	4031.797571914576565 3879.54287857620011 13502.10028303026047 
	4031.797571914248238 3935.642773640021005 13498.94996052181159 
	4031.797571914180025 3991.742522633771387 13502.10036171786669 
	4031.797571913959018 4040.982022988966946 13510.46651483656206 
	4031.797571913924912 4083.157604989289666 13521.7684499255447 
	4031.79757191382032 4130.259391055702508 13538.24838667275981 
	4031.797571913642514 4175.313516867590806 13559.9446076014101 
	4031.797571913527918 4212.283976885932134 13583.17657382626567 
	4031.797571913439697 4232.622187540391678 13597.60708568962946 
	4031.797571913438333 4257.352755781050291 13616.5833167072069 
	4031.797571912827607 4289.939022620797004 13645.70359293047477 
	4031.797571912190051 4327.379675967341427 13687.60015397896495 
	4031.79757191131921 4359.894266168609647 13733.42498460848219 
	4031.797571910614806 4387.073449242960123 13782.60233352487194 
	4031.797571909266026 4408.575935965248391 13834.51339120339071 
	4031.797571907000474 4424.130793983111289 13888.50571165410474 
	4031.79757190483906 4431.973831275602606 13934.66767153455476 
	4031.797571904080996 4434.725060490585747 13967.28968961584724 
	4031.797571903859989 4435.41341508586811 13983.63927148472612 
	4031.7975719038036 4435.585508525738078 13991.81889501544902 
	4031.79757190378723 4435.628537638935086 13995.90930907395341 
	4031.797571903784501 4435.639294281570074 13997.95459171371476 
	4031.797571903784956 4435.642367753194776 13999.12333538163693 
	4031.797571903785865 4435.642879990695292 13999.7077090187322 
	4031.79757190378632 4435.642879985085528 13999.99989583656497 
	0 
	
	0 
	0 
	86 0 0.002232142857142857019 0.004464285714285714038 0.008928571428571428076 0.01785714285714285615 0.02678571428571428423 0.0357142857142857123 0.05357142857142856845 0.07142857142857142461 0.08928571428571427382 0.1071428571428571369 0.125 0.1428571428571428492 0.1587301587301587213 0.1746031746031745935 0.1904761904761904656 0.2023809523809523836 0.2142857142857142738 0.238095238095238082 0.2619047619047618625 0.2857142857142856984 0.2976190476190476164 0.3095238095238095344 0.3214285714285713969 0.3273809523809523281 0.3333333333333333148 0.3452380952380952328 0.3571428571428570953 0.3690476190476190133 0.375 0.3809523809523809312 0.3869047619047618625 0.3898809523809523281 0.3928571428571428492 0.4047619047619047672 0.4285714285714285476 0.4305555555555555802 0.4365079365079365115 0.4444444444444444198 0.4603174603174602919 0.476190476190476164 0.4801587301587301182 0.4841269841269840724 0.4880952380952380265 0.4900793650793650036 0.4920634920634920362 0.5158730158730158166 0.5238095238095237249 0.5357142857142855874 0.5476190476190475609 0.5595238095238095344 0.5714285714285713969 0.5952380952380951218 0.6190476190476189577 0.6269841269841269771 0.6309523809523809312 0.6349206349206348854 0.650793650793650702 0.6666666666666666297 0.6785714285714286031 0.6904761904761904656 0.7023809523809523281 0.7142857142857141906 0.7321428571428569843 0.749999999999999889 0.7678571428571427937 0.7857142857142855874 0.7976190476190474499 0.8095238095238094234 0.8333333333333332593 0.8452380952380951218 0.851190476190476053 0.8571428571428570953 0.875 0.8928571428571427937 0.9107142857142856984 0.9285714285714286031 0.9464285714285713969 0.9642857142857143016 0.9821428571428572063 0.9910714285714286031 0.9955357142857143016 0.9977678571428572063 0.9988839285714286031 0.9994419642857143016 0.9997209821428572063 
	0 
	0 
	0 
	F 1 F 0 F 1 F 0 } I I I I #
tcoedge-coedge $-1 -1 $-1 $14 $14 $18 $19 reversed $9 $20 -6.283185307179586232 -0 #
tcoedge-coedge $-1 -1 $-1 $21 $22 $11 $16 reversed $12 $23 -6.283185307179586232 -0 #
tedge-edge $-1 -1 $-1 $24 0 $24 6.283185307179586232 $15 $25 forward @7 unknown 0.0006523544721967068204 #
pcurve $-1 -1 $-1 0 forward { exppc nurbs 2 periodic 5 
	0 2 1.570796326794896558 2 3.141592653589793116 2 4.712388980384689674 2 6.283185307179586232 2 
	0 500 1 
	-500 500 0.707106781186543798 
	-500 0 1 
	-500 -500 0.7071067811865463515 
	0 -500 1 
	500 -500 0.7071067811865463515 
	500 0 1 
	500 500 0.707106781186543798 
	0 500 1 
	0 
	plane 4031.797571915386925 3935.642797989803512 14000.00000000000182 1 -3.637978807091706717e-15 0 0 0 -1 forward_v I I I I 
	} 0 0 #
tcoedge-coedge $-1 -1 $-1 $22 $21 $14 $19 forward $12 $26 0 6.283185307179586232 #
tedge-edge $-1 -1 $-1 $27 0 $27 6.283185307179586232 $18 $28 forward @7 unknown 0.0006523544740824831862 #
pcurve $-1 -1 $-1 0 forward { exppc nurbs 2 periodic 5 
	-6.283185307179586232 2 -4.712388980384689674 2 -3.141592653589793116 2 -1.570796326794896558 2 0 2 
	0 500 1 
	500 500 0.707106781186543798 
	500 0 1 
	500 -500 0.7071067811865463515 
	0 -500 1 
	-500 -500 0.7071067811865463515 
	-500 0 1 
	-500 500 0.707106781186543798 
	0 500 1 
	0 
	plane 3781.797571915386925 3935.642797989804421 14000.00000000000182 -1 3.637978807091713027e-15 -0 0 0 -1 reverse_v I I I I 
	} 0 0 #
coedge $-1 -1 $-1 $18 $15 $22 $29 reversed $12 $30 #
coedge $-1 -1 $-1 $15 $18 $21 $29 forward $12 $31 #
pcurve $-1 -1 $-1 0 forward { exppc nubs 1 periodic 2 
	-6.283185307179586232 1 -0 1 
	1 1 
	0 1 
	2.726396620975368931e-13 
	spline forward { ref 0 } I I I I 
	} 0 0 #
tvertex-vertex $-1 -1 $-1 $16 $32 0.0001325641378133756744 #
ellipse-curve $-1 -1 $-1 4031.797571915386925 3935.642797989803512 14000.00000000000182 1 -3.637978807091706717e-15 0 1.818989403545853447e-12 500 0 1 I I #
pcurve $-1 -1 $-1 0 forward { exppc nubs 1 periodic 2 
	0 1 6.283185307179586232 1 
	0 0 
	1 0 
	4.411402399551011509e-13 
	spline forward { ref 0 } I I I I 
	} 0 0 #
tvertex-vertex $-1 -1 $-1 $19 $33 0.0001325641371898849676 #
ellipse-curve $-1 -1 $-1 3781.797571915386925 3935.642797989804421 14000.00000000000182 1 -3.637978807091713027e-15 0 1.818989403545856476e-12 500 0 1 I I #
edge $-1 -1 $-1 $27 4.353569133429447179e-11 $24 1 $22 $34 forward @7 tangent #
pcurve $-1 -1 $-1 -1 $34 0 0 #
pcurve $-1 -1 $-1 1 $34 1 0 #
point $-1 -1 $-1 4031.797571915388744 4435.642797989803512 14000.00000000000182 #
point $-1 -1 $-1 3781.797571915388744 4435.642797989804421 14000.00000000000182 #
intcurve-curve $-1 -1 $-1 forward { parcur full nubs 3 open 2 
	0 3 1 3 
	3781.797571904504821 4435.642879985085528 13999.99989583656497 
	3865.130905237838306 4435.642879985084619 13999.99989583656497 
	3948.464238570452835 4435.642879985085528 13999.99989583656497 
	4031.79757190378632 4435.642879985085528 13999.99989583656497 
	0 
	
	spline forward { ref 0 } I I I I 
	null_surface 
	nubs 1 open 2 
	0 1 1 1 
	0 0 
	0 1 
	
	nullbs 
	I I 
	0 
	0 
	0 
	surf1 } F 4.353569133429447179e-11 F 1 #
End-of-ACIS-data 