700 0 1 0           
4 LibG 20 ASM 224.0.1.65535 NT 24 Wed Jul 17 12:52:13 2019 
1000 9.999999999999999547e-07 1.000000000000000036e-10 
body $-1 -1 $-1 $1 $-1 $2 #
lump $-1 -1 $-1 $-1 $3 $0 #
transform $-1 -1 1 0 0 0 1 0 0 0 1 0 0 0 1 no_rotate no_reflect no_shear #
shell $-1 -1 $-1 $-1 $-1 $4 $-1 $1 #
face $-1 -1 $-1 $5 $6 $3 $-1 $7 forward single #
face $-1 -1 $-1 $8 $9 $3 $-1 $10 reversed single #
loop $-1 -1 $-1 $-1 $11 $4 #
plane-surface $-1 -1 $-1 11031.79757191538738 3935.642797989778046 14000.00000000000182 1 -3.637978807091713027e-15 0 0 0 -1 forward_v I I I I #
face $-1 -1 $-1 $-1 $12 $3 $-1 $13 forward single #
loop $-1 -1 $-1 $-1 $14 $5 #
plane-surface $-1 -1 $-1 10781.79757191538738 3935.642797989778956 14000.00000000000182 1 -3.637978807091713027e-15 0 0 0 -1 forward_v I I I I #
tcoedge-coedge $-1 -1 $-1 $11 $11 $15 $16 forward $6 $17 0 6.283185307179586232 #
loop $-1 -1 $-1 $-1 $18 $8 #
spline-surface $-1 -1 $-1 forward { exactsur full nubs 3 3 periodic open none none 91 2 
	0 3 0.0005580357142857142547 1 0.001116071428571428509 1 0.002232142857142857019 1 0.004464285714285714038 1 
	0.008928571428571428076 1 0.01785714285714285615 1 0.0357142857142857123 1 0.05357142857142856845 1 0.07142857142857142461 1 
	0.08928571428571427382 1 0.1071428571428571369 1 0.1160714285714285754 1 0.125 1 0.1428571428571428492 1 
	0.1587301587301587213 1 0.1746031746031745935 1 0.1904761904761904656 1 0.2023809523809523836 1 0.2142857142857142738 1 
	0.226190476190476164 1 0.238095238095238082 1 0.2499999999999999722 1 0.2619047619047618625 1 0.2738095238095237804 1 
	0.2857142857142856984 1 0.2916666666666666297 1 0.2976190476190476164 1 0.3095238095238095344 1 0.3214285714285713969 1 
	0.3273809523809523281 1 0.3333333333333333148 1 0.3452380952380952328 1 0.351190476190476164 1 0.3571428571428570953 1 
	0.3690476190476190133 1 0.3809523809523809312 1 0.3928571428571428492 1 0.4047619047619047672 1 0.4285714285714285476 1 
	0.4305555555555555802 1 0.4325396825396825573 1 0.4365079365079365115 1 0.4444444444444444198 1 0.4603174603174602919 1 
	0.476190476190476164 1 0.4841269841269840724 1 0.4880952380952380265 1 0.4920634920634920362 1 0.5079365079365079083 1 
	0.5238095238095237249 1 0.5476190476190475609 1 0.5535714285714286031 1 0.5595238095238095344 1 0.5714285714285713969 1 
	0.5952380952380951218 1 0.6190476190476189577 1 0.6349206349206348854 1 0.650793650793650702 1 0.6666666666666666297 1 
	0.6904761904761904656 1 0.7023809523809523281 1 0.7142857142857141906 1 0.7321428571428569843 1 0.7410714285714283811 1 
	0.749999999999999889 1 0.7678571428571427937 1 0.7857142857142855874 1 0.7976190476190474499 1 0.8095238095238094234 1 
	0.8333333333333332593 1 0.8452380952380951218 1 0.851190476190476053 1 0.8571428571428570953 1 0.875 1 
	0.8928571428571427937 1 0.9107142857142856984 1 0.9285714285714286031 1 0.9464285714285713969 1 0.9642857142857143016 1 
	0.9821428571428572063 1 0.9866071428571429047 1 0.9910714285714286031 1 0.9955357142857143016 1 0.9977678571428572063 1 
	0.9988839285714286031 1 0.9994419642857143016 1 0.9997209821428572063 1 0.9998604910714286031 1 0.9999302455357143016 1 
	1 3 
	0 3 1 3 
	10781.79757200641143 4435.64289431371617 13999.99996361019657 
	10781.79757200640233 4435.642894313941724 14000.5843372436284 
	10781.7975720063896 4435.64084525875478 14001.75308449513068 
	10781.79757200636777 4435.628551884272383 14004.09055034102857 
	10781.79757200628774 4435.585522736639177 14008.18096435452026 
	10781.7975720060258 4435.413428420975833 14016.36058737783424 
	10781.79757200495987 4434.725073876468741 14032.71016840025186 
	10781.79757200158565 4431.973825533416857 14065.33217473505283 
	10781.79757199064079 4424.130806234355077 14111.49412668830701 
	10781.79757198178413 4408.575820210652637 14165.48637458599842 
	10781.79757197207437 4387.073539454610909 14217.39749780042439 
	10781.79757196463652 4359.894288725334263 14266.57480667052369 
	10781.79757195691491 4332.798734740268628 14304.76211547634921 
	10781.79757195485035 4308.659501562306104 14333.34798078841777 
	10781.79757195282946 4282.956129840092217 14360.53606361035781 
	10781.79757194712147 4249.594286171376552 14390.35001940167786 
	10781.79757194226841 4207.366133621624613 14420.70980881621108 
	10781.79757193970545 4164.126664563189479 14445.67399725879113 
	10781.79757193776277 4122.409022274448944 14464.49780417597685 
	10781.79757193531077 4083.157977321381168 14478.23203478102914 
	10781.79757193330443 4047.007214921892682 14487.91873203725299 
	10781.79757193239857 4010.233583661387456 14494.87657596250938 
	10781.79757193081423 3973.04285143398738 14499.06698150684497 
	10781.79757192935904 3935.642949657730242 14500.46637328907855 
	10781.79757192792385 3898.243058614982601 14499.06695371552814 
	10781.79757192671968 3861.05231212208173 14494.87657124426551 
	10781.79757192545912 3830.407660985682924 14489.0782373180482 
	10781.79757192511352 3806.203303263607722 14483.07535724372246 
	10781.79757192475518 3782.240279425545395 14476.17181367046942 
	10781.79757192374927 3752.802067037728648 14465.87097969686693 
	10781.79757192280704 3724.215993894317762 14453.39892654833238 
	10781.79757192249599 3701.954264265735674 14442.16056502912033 
	10781.7975719221995 3680.128206447737739 14430.09786264103423 
	10781.79757192184843 3659.001839643009589 14416.82327497637016 
	10781.79757192168654 3638.663761499306474 14402.3924752377352 
	10781.79757192143734 3618.879313077256484 14387.21151417280635 
	10781.79757192113902 3595.239455294176878 14366.86768396513435 
	10781.79757192080797 3568.775084521518238 14340.40352063714636 
	10781.79757192052602 3544.362897297591189 14312.03539293858375 
	10781.79757192012039 3514.729364979371439 14271.88541309322318 
	10781.79757191971476 3494.934273836261582 14237.60174707708939 
	10781.79757191962563 3482.476854792530048 14211.31473611343608 
	10781.79757191962381 3479.011344905695751 14203.76045780914865 
	10781.79757191960016 3473.194754532178649 14190.42853921929782 
	10781.79757191953286 3462.563881540873808 14163.34218622159824 
	10781.79757191941644 3450.299906647003354 14123.5835173118594 
	10781.79757191929275 3442.055861208184524 14082.80126508699323 
	10781.79757191925273 3438.43791062741866 14053.9291841786162 
	10781.79757191925091 3436.98910850434595 14037.36897149297874 
	10781.79757191925455 3435.435625051365605 14012.48216867797782 
	10781.79757191929821 3435.436045701400872 13975.03584259524541 
	10781.79757191943463 3441.234510220891025 13917.07489663931483 
	10781.79757191970202 3451.897860466768179 13870.35387242611432 
	10781.79757191975477 3463.590835967797375 13834.82187522953973 
	10781.79757191979479 3472.265817448880171 13811.44177813777605 
	10781.79757191998942 3489.72577830614091 13771.42081217865416 
	10781.79757192069519 3520.978510105642272 13717.28667221233627 
	10781.79757192147918 3562.550904940474993 13665.15903854546013 
	10781.79757192207035 3604.250688874153184 13624.48705085850634 
	10781.79757192242687 3643.286533992601107 13593.35747382940463 
	10781.79757192293073 3692.217536701025892 13561.75293680154937 
	10781.79757192396937 3741.026087982228546 13538.24846754746068 
	10781.79757192448415 3788.127899290934238 13521.76857703841597 
	10781.79757192505531 3830.303545243167264 13510.46667631008677 
	10781.79757192629222 3870.310617498220836 13503.66936504315709 
	10781.79757192672514 3907.592879370029095 13500.52510004776377 
	10781.79757192724355 3944.992785713482135 13499.47529819114243 
	10781.79757192891702 3991.742605282511249 13502.10045516942409 
	10781.79757193069963 4040.982048007581398 13510.46673211346933 
	10781.79757193188925 4083.157722486850616 13521.76845443356433 
	10781.79757193242403 4130.259363559082885 13538.24872092340593 
	10781.79757193557271 4175.313635669806899 13559.94461381129076 
	10781.79757193717887 4212.284054358523463 13583.17665408473113 
	10781.79757193828118 4232.622283834642985 13597.60712885662178 
	10781.79757193849582 4257.35282781982005 13616.58339112694011 
	10781.7975719466358 4289.938987399518737 13645.70377557595384 
	10781.79757195335333 4327.379719959908471 13687.6002454456102 
	10781.79757196251376 4359.894248804856943 13733.42510629177013 
	10781.79757197102845 4387.073535886415812 13782.60239669935072 
	10781.79757198174411 4408.575800034255735 13834.51354187171819 
	10781.79757199063897 4424.130746963810452 13888.50579868783643 
	10781.79757200262065 4431.189518272473833 13930.05155428190847 
	10781.79757200427412 4433.938950354885492 13957.96919334276572 
	10781.79757200505446 4434.921788363838459 13971.96106093409799 
	10781.79757200600943 4435.413417254296292 13983.63934147073633 
	10781.79757200629501 4435.585524940143841 13991.81896251360376 
	10781.79757200638596 4435.628551543621143 13995.90937692873558 
	10781.79757200640779 4435.639308671311483 13997.95465948086894 
	10781.79757200641507 4435.641997890864332 13998.97731020100946 
	10781.79757200641325 4435.64267020969146 13999.48863673684173 
	10781.79757200641507 4435.642862297137071 13999.78082349741999 
	10781.79757200641143 4435.642894313687975 13999.92691690601714 
	10781.79757200641143 4435.64289431371617 13999.99996361019657 
	10865.13090533974537 4435.64289431371526 13999.99996361019657 
	10865.13090533973627 4435.642894313940815 14000.5843372436284 
	10865.13090533972354 4435.64084525875387 14001.75308449513068 
	10865.13090533970171 4435.628551884271474 14004.09055034102857 
	10865.13090533962168 4435.585522736638268 14008.18096435452026 
	10865.13090533935974 4435.413428420974924 14016.36058737783424 
	10865.13090533829381 4434.725073876467832 14032.71016840025186 
	10865.13090533491959 4431.973825533415948 14065.33217473505283 
	10865.13090532397473 4424.130806234354168 14111.49412668830701 
	10865.13090531511807 4408.575820210651727 14165.48637458599842 
	10865.13090530540831 4387.07353945461 14217.39749780042439 
	10865.13090529797046 4359.894288725333354 14266.57480667052369 
	10865.13090529024885 4332.798734740267719 14304.76211547634921 
	10865.13090528818429 4308.659501562305195 14333.34798078841777 
	10865.1309052861634 4282.956129840091307 14360.53606361035781 
	10865.13090528045541 4249.594286171375643 14390.35001940167786 
	10865.13090527560234 4207.366133621623703 14420.70980881621108 
	10865.13090527303939 4164.126664563188569 14445.67399725879113 
	10865.13090527109671 4122.409022274448034 14464.49780417597685 
	10865.13090526864471 4083.157977321380713 14478.23203478102914 
	10865.13090526663836 4047.007214921892228 14487.91873203725299 
	10865.13090526573251 4010.233583661387001 14494.87657596250938 
	10865.13090526414817 3973.042851433986925 14499.06698150684497 
	10865.13090526269298 3935.642949657729787 14500.46637328907855 
	10865.13090526125779 3898.243058614982147 14499.06695371552814 
	10865.13090526005362 3861.052312122081275 14494.87657124426551 
	10865.13090525879306 3830.407660985682469 14489.0782373180482 
	10865.13090525844746 3806.203303263607268 14483.07535724372246 
	10865.13090525808911 3782.240279425544941 14476.17181367046942 
	10865.13090525708321 3752.802067037728193 14465.87097969686693 
	10865.13090525614098 3724.215993894317307 14453.39892654833238 
	10865.13090525582993 3701.954264265735219 14442.16056502912033 
	10865.13090525553343 3680.128206447737284 14430.09786264103423 
	10865.13090525518237 3659.001839643009134 14416.82327497637016 
	10865.13090525502048 3638.66376149930602 14402.3924752377352 
	10865.13090525477128 3618.879313077256029 14387.21151417280635 
	10865.13090525447296 3595.239455294176423 14366.86768396513435 
	10865.13090525414191 3568.775084521517783 14340.40352063714636 
	10865.13090525385996 3544.362897297590735 14312.03539293858375 
	10865.13090525345433 3514.729364979370985 14271.88541309322318 
	10865.1309052530487 3494.934273836261127 14237.60174707708939 
	10865.13090525295956 3482.476854792529593 14211.31473611343608 
	10865.13090525295775 3479.011344905695296 14203.76045780914865 
	10865.1309052529341 3473.194754532178194 14190.42853921929782 
	10865.1309052528668 3462.563881540873354 14163.34218622159824 
	10865.13090525275038 3450.299906647002899 14123.5835173118594 
	10865.13090525262669 3442.055861208184069 14082.80126508699323 
	10865.13090525258667 3438.437910627418205 14053.9291841786162 
	10865.13090525258485 3436.989108504345495 14037.36897149297874 
	10865.13090525258849 3435.43562505136515 14012.48216867797782 
	10865.13090525263215 3435.436045701400417 13975.03584259524541 
	10865.13090525276857 3441.23451022089057 13917.07489663931483 
	10865.13090525303596 3451.897860466767725 13870.35387242611432 
	10865.13090525308871 3463.59083596779692 13834.82187522953973 
	10865.13090525312873 3472.265817448879716 13811.44177813777605 
	10865.13090525332336 3489.725778306140455 13771.42081217865416 
	10865.13090525402913 3520.978510105641817 13717.28667221233627 
	10865.13090525481311 3562.550904940474538 13665.15903854546013 
	10865.13090525540429 3604.250688874152729 13624.48705085850634 
	10865.13090525576081 3643.286533992600653 13593.35747382940463 
	10865.13090525626467 3692.217536701025438 13561.75293680154937 
	10865.13090525730331 3741.026087982228091 13538.24846754746068 
	10865.13090525781809 3788.127899290933783 13521.76857703841597 
	10865.13090525838925 3830.303545243166809 13510.46667631008677 
	10865.13090525962616 3870.310617498220381 13503.66936504315709 
	10865.13090526005908 3907.592879370028641 13500.52510004776377 
	10865.13090526057749 3944.99278571348168 13499.47529819114243 
	10865.13090526225096 3991.742605282510794 13502.10045516942409 
	10865.13090526403357 4040.982048007580943 13510.46673211346933 
	10865.13090526522319 4083.157722486850162 13521.76845443356433 
	10865.13090526575797 4130.259363559081976 13538.24872092340593 
	10865.13090526890664 4175.31363566980599 13559.94461381129076 
	10865.13090527051281 4212.284054358522553 13583.17665408473113 
	10865.13090527161512 4232.622283834642076 13597.60712885662178 
	10865.13090527182976 4257.35282781981914 13616.58339112694011 
	10865.13090527996974 4289.938987399517828 13645.70377557595384 
	10865.13090528668727 4327.379719959907561 13687.6002454456102 
	10865.1309052958477 4359.894248804856034 13733.42510629177013 
	10865.13090530436239 4387.073535886414902 13782.60239669935072 
	10865.13090531507805 4408.575800034254826 13834.51354187171819 
	10865.13090532397291 4424.130746963809543 13888.50579868783643 
	10865.13090533595459 4431.189518272472924 13930.05155428190847 
	10865.13090533760806 4433.938950354884582 13957.96919334276572 
	10865.1309053383884 4434.92178836383755 13971.96106093409799 
	10865.13090533934337 4435.413417254295382 13983.63934147073633 
	10865.13090533962895 4435.585524940142932 13991.81896251360376 
	10865.1309053397199 4435.628551543620233 13995.90937692873558 
	10865.13090533974173 4435.639308671310573 13997.95465948086894 
	10865.13090533974901 4435.641997890863422 13998.97731020100946 
	10865.13090533974719 4435.64267020969055 13999.48863673684173 
	10865.13090533974901 4435.642862297136162 13999.78082349741999 
	10865.13090533974537 4435.642894313687066 13999.92691690601714 
	10865.13090533974537 4435.64289431371526 13999.99996361019657 
	10948.4642386751857 4435.642894313713441 13999.99996361019657 
	10948.46423867517842 4435.642894313938996 14000.5843372436284 
	10948.46423867516387 4435.640845258752051 14001.75308449513068 
	10948.46423867514204 4435.628551884269655 14004.09055034102857 
	10948.46423867506383 4435.585522736635539 14008.18096435452026 
	10948.46423867479643 4435.413428420973105 14016.36058737783424 
	10948.46423867370504 4434.725073876465103 14032.71016840025186 
	10948.46423867025078 4431.973825533415948 14065.33217473505283 
	10948.46423865905126 4424.130806234352349 14111.49412668830701 
	10948.46423864999088 4408.575820210651727 14165.48637458599842 
	10948.46423864005556 4387.07353945460909 14217.39749780042439 
	10948.4642386324449 4359.894288725333354 14266.57480667052369 
	10948.46423862454139 4332.798734740267719 14304.76211547634921 
	10948.46423862242955 4308.659501562305195 14333.34798078841777 
	10948.46423862036318 4282.956129840091307 14360.53606361035781 
	10948.46423861452422 4249.594286171375643 14390.35001940167786 
	10948.46423860955656 4207.366133621623703 14420.70980881621108 
	10948.46423860693722 4164.126664563188569 14445.67399725879113 
	10948.46423860494724 4122.409022274448944 14464.49780417597685 
	10948.46423860244067 4083.157977321381168 14478.23203478102914 
	10948.46423860038703 4047.007214921892228 14487.91873203725299 
	10948.46423859946117 4010.233583661387001 14494.87657596250938 
	10948.46423859784045 3973.042851433986471 14499.06698150684497 
	10948.46423859635252 3935.642949657729332 14500.46637328907855 
	10948.46423859488641 3898.243058614982147 14499.06695371552814 
	10948.46423859365314 3861.052312122080821 14494.87657124426551 
	10948.46423859236529 3830.407660985682014 14489.0782373180482 
	10948.46423859201059 3806.203303263606813 14483.07535724372246 
	10948.46423859164497 3782.240279425544486 14476.17181367046942 
	10948.4642385906136 3752.802067037727738 14465.87097969686693 
	10948.46423858965136 3724.215993894316853 14453.39892654833238 
	10948.46423858933304 3701.954264265734764 14442.16056502912033 
	10948.46423858902926 3680.128206447736375 14430.09786264103423 
	10948.46423858867092 3659.00183964300868 14416.82327497637016 
	10948.46423858850358 3638.663761499305565 14402.3924752377352 
	10948.46423858824892 3618.879313077256029 14387.21151417280635 
	10948.46423858794151 3595.239455294176423 14366.86768396513435 
	10948.46423858760318 3568.775084521517783 14340.40352063714636 
	10948.46423858731396 3544.36289729759028 14312.03539293858375 
	10948.46423858690105 3514.72936497937053 14271.88541309322318 
	10948.46423858648268 3494.934273836260672 14237.60174707708939 
	10948.46423858639355 3482.476854792529593 14211.31473611343608 
	10948.46423858638991 3479.011344905694841 14203.76045780914865 
	10948.46423858636626 3473.194754532178649 14190.42853921929782 
	10948.46423858629532 3462.563881540873354 14163.34218622159824 
	10948.46423858617709 3450.299906647003809 14123.5835173118594 
	10948.46423858604976 3442.055861208184069 14082.80126508699323 
	10948.4642385860061 3438.437910627419114 14053.9291841786162 
	10948.4642385860061 3436.98910850434595 14037.36897149297874 
	10948.4642385860061 3435.43562505136515 14012.48216867797782 
	10948.46423858605158 3435.436045701399962 13975.03584259524541 
	10948.46423858619164 3441.234510220890115 13917.07489663931483 
	10948.46423858646449 3451.897860466768179 13870.35387242611432 
	10948.46423858651724 3463.590835967796465 13834.82187522953973 
	10948.46423858655908 3472.265817448879716 13811.44177813777605 
	10948.46423858675735 3489.72577830614091 13771.42081217865416 
	10948.46423858747585 3520.978510105641362 13717.28667221233627 
	10948.46423858827984 3562.550904940474538 13665.15903854546013 
	10948.46423858888375 3604.250688874152729 13624.48705085850634 
	10948.46423858924936 3643.286533992600653 13593.35747382940463 
	10948.46423858976414 3692.217536701025438 13561.75293680154937 
	10948.46423859082643 3741.026087982226727 13538.24846754746068 
	10948.46423859135393 3788.127899290933328 13521.76857703841597 
	10948.46423859193783 3830.3035452431659 13510.46667631008677 
	10948.46423859320566 3870.310617498219472 13503.66936504315709 
	10948.46423859364768 3907.592879370027731 13500.52510004776377 
	10948.46423859418064 3944.99278571348168 13499.47529819114243 
	10948.46423859589231 3991.74260528251034 13502.10045516942409 
	10948.46423859771676 4040.982048007580033 13510.46673211346933 
	10948.46423859893548 4083.157722486850162 13521.76845443356433 
	10948.464238599483 4130.259363559081066 13538.24872092340593 
	10948.46423860270079 4175.31363566980508 13559.94461381129076 
	10948.46423860434516 4212.284054358521644 13583.17665408473113 
	10948.46423860547293 4232.622283834641166 13597.60712885662178 
	10948.46423860569485 4257.352827819818231 13616.58339112694011 
	10948.46423861402218 4289.938987399517828 13645.70377557595384 
	10948.46423862089796 4327.379719959907561 13687.6002454456102 
	10948.46423863026939 4359.894248804855124 13733.42510629177013 
	10948.46423863898053 4387.073535886414902 13782.60239669935072 
	10948.46423864994722 4408.575800034255735 13834.51354187171819 
	10948.46423865904762 4424.130746963810452 13888.50579868783643 
	10948.46423867130761 4431.189518272473833 13930.05155428190847 
	10948.46423867299927 4433.938950354885492 13957.96919334276572 
	10948.46423867379781 4434.921788363838459 13971.96106093409799 
	10948.46423867477642 4435.413417254296292 13983.63934147073633 
	10948.46423867506928 4435.585524940143841 13991.81896251360376 
	10948.46423867516205 4435.628551543621143 13995.90937692873558 
	10948.46423867518024 4435.639308671311483 13997.95465948086894 
	10948.46423867518934 4435.641997890864332 13998.97731020100946 
	10948.46423867518752 4435.64267020969055 13999.48863673684173 
	10948.46423867518752 4435.642862297134343 13999.78082349741999 
	10948.4642386751857 4435.642894313685247 13999.92691690601714 
	10948.4642386751857 4435.642894313713441 13999.99996361019657 
	11031.79757200851964 4435.642894313713441 13999.99996361019657 
	11031.79757200851236 4435.642894313938996 14000.5843372436284 
	11031.79757200849781 4435.640845258752051 14001.75308449513068 
	11031.79757200847598 4435.628551884269655 14004.09055034102857 
	11031.79757200839776 4435.585522736635539 14008.18096435452026 
	11031.79757200813037 4435.413428420973105 14016.36058737783424 
	11031.79757200703898 4434.725073876465103 14032.71016840025186 
	11031.79757200358472 4431.973825533415948 14065.33217473505283 
	11031.7975719923852 4424.130806234352349 14111.49412668830701 
	11031.79757198332481 4408.575820210651727 14165.48637458599842 
	11031.79757197338949 4387.07353945460909 14217.39749780042439 
	11031.79757196577884 4359.894288725333354 14266.57480667052369 
	11031.79757195787533 4332.798734740267719 14304.76211547634921 
	11031.79757195576349 4308.659501562305195 14333.34798078841777 
	11031.79757195369712 4282.956129840091307 14360.53606361035781 
	11031.79757194785816 4249.594286171375643 14390.35001940167786 
	11031.7975719428905 4207.366133621623703 14420.70980881621108 
	11031.79757194027115 4164.126664563188569 14445.67399725879113 
	11031.79757193828118 4122.409022274448944 14464.49780417597685 
	11031.79757193577461 4083.157977321380713 14478.23203478102914 
	11031.79757193372097 4047.007214921891773 14487.91873203725299 
	11031.79757193279511 4010.233583661386547 14494.87657596250938 
	11031.79757193117439 3973.042851433986016 14499.06698150684497 
	11031.79757192968646 3935.642949657728877 14500.46637328907855 
	11031.79757192822035 3898.243058614981692 14499.06695371552814 
	11031.79757192698708 3861.052312122080366 14494.87657124426551 
	11031.79757192569923 3830.407660985681559 14489.0782373180482 
	11031.79757192534453 3806.203303263606358 14483.07535724372246 
	11031.79757192497891 3782.240279425544031 14476.17181367046942 
	11031.79757192394754 3752.802067037727284 14465.87097969686693 
	11031.7975719229853 3724.215993894316398 14453.39892654833238 
	11031.79757192266698 3701.954264265734309 14442.16056502912033 
	11031.7975719223632 3680.12820644773592 14430.09786264103423 
	11031.79757192200486 3659.001839643008225 14416.82327497637016 
	11031.79757192183752 3638.66376149930511 14402.3924752377352 
	11031.79757192158286 3618.879313077255574 14387.21151417280635 
	11031.79757192127545 3595.239455294175968 14366.86768396513435 
	11031.79757192093712 3568.775084521517329 14340.40352063714636 
	11031.7975719206479 3544.362897297589825 14312.03539293858375 
	11031.79757192023499 3514.729364979370075 14271.88541309322318 
	11031.79757191981662 3494.934273836260218 14237.60174707708939 
	11031.79757191972749 3482.476854792529139 14211.31473611343608 
	11031.79757191972385 3479.011344905694386 14203.76045780914865 
	11031.7975719197002 3473.194754532178194 14190.42853921929782 
	11031.79757191962926 3462.563881540872899 14163.34218622159824 
	11031.79757191951103 3450.299906647003354 14123.5835173118594 
	11031.7975719193837 3442.055861208183615 14082.80126508699323 
	11031.79757191934004 3438.43791062741866 14053.9291841786162 
	11031.79757191934004 3436.989108504345495 14037.36897149297874 
	11031.79757191934004 3435.435625051364696 14012.48216867797782 
	11031.79757191938552 3435.436045701399507 13975.03584259524541 
	11031.79757191952558 3441.234510220889661 13917.07489663931483 
	11031.79757191979843 3451.897860466767725 13870.35387242611432 
	11031.79757191985118 3463.590835967796011 13834.82187522953973 
	11031.79757191989302 3472.265817448879261 13811.44177813777605 
	11031.79757192009129 3489.725778306140455 13771.42081217865416 
	11031.79757192080979 3520.978510105640908 13717.28667221233627 
	11031.79757192161378 3562.550904940474084 13665.15903854546013 
	11031.79757192221768 3604.250688874152274 13624.48705085850634 
	11031.7975719225833 3643.286533992600198 13593.35747382940463 
	11031.79757192309808 3692.217536701024983 13561.75293680154937 
	11031.79757192416037 3741.026087982226272 13538.24846754746068 
	11031.79757192468787 3788.127899290932874 13521.76857703841597 
	11031.79757192527177 3830.303545243165445 13510.46667631008677 
	11031.7975719265396 3870.310617498219017 13503.66936504315709 
	11031.79757192698162 3907.592879370027276 13500.52510004776377 
	11031.79757192751458 3944.992785713481226 13499.47529819114243 
	11031.79757192922625 3991.742605282509885 13502.10045516942409 
	11031.7975719310507 4040.982048007579579 13510.46673211346933 
	11031.79757193226942 4083.157722486849707 13521.76845443356433 
	11031.79757193281694 4130.259363559081066 13538.24872092340593 
	11031.79757193603473 4175.31363566980508 13559.94461381129076 
	11031.79757193767909 4212.284054358521644 13583.17665408473113 
	11031.79757193880687 4232.622283834641166 13597.60712885662178 
	11031.79757193902878 4257.352827819818231 13616.58339112694011 
	11031.79757194735612 4289.938987399517828 13645.70377557595384 
	11031.7975719542319 4327.379719959907561 13687.6002454456102 
	11031.79757196360333 4359.894248804855124 13733.42510629177013 
	11031.79757197231447 4387.073535886414902 13782.60239669935072 
	11031.79757198328116 4408.575800034255735 13834.51354187171819 
	11031.79757199238156 4424.130746963810452 13888.50579868783643 
	11031.79757200464155 4431.189518272473833 13930.05155428190847 
	11031.79757200633321 4433.938950354885492 13957.96919334276572 
	11031.79757200713175 4434.921788363838459 13971.96106093409799 
	11031.79757200811036 4435.413417254296292 13983.63934147073633 
	11031.79757200840322 4435.585524940143841 13991.81896251360376 
	11031.79757200849599 4435.628551543621143 13995.90937692873558 
	11031.79757200851418 4435.639308671311483 13997.95465948086894 
	11031.79757200852328 4435.641997890864332 13998.97731020100946 
	11031.79757200852146 4435.64267020969055 13999.48863673684173 
	11031.79757200852146 4435.642862297134343 13999.78082349741999 
	11031.79757200851964 4435.642894313685247 13999.92691690601714 
	11031.79757200851964 4435.642894313713441 13999.99996361019657 
	0 
	
	0 
	0 
	89 0 0.0005580357142857142547 0.001116071428571428509 0.002232142857142857019 0.004464285714285714038 0.008928571428571428076 0.01785714285714285615 0.0357142857142857123 0.05357142857142856845 0.07142857142857142461 0.08928571428571427382 0.1071428571428571369 0.1160714285714285754 0.125 0.1428571428571428492 0.1587301587301587213 0.1746031746031745935 0.1904761904761904656 0.2023809523809523836 0.2142857142857142738 0.226190476190476164 0.238095238095238082 0.2499999999999999722 0.2619047619047618625 0.2738095238095237804 0.2857142857142856984 0.2916666666666666297 0.2976190476190476164 0.3095238095238095344 0.3214285714285713969 0.3273809523809523281 0.3333333333333333148 0.3452380952380952328 0.351190476190476164 0.3571428571428570953 0.3690476190476190133 0.3809523809523809312 0.3928571428571428492 0.4047619047619047672 0.4285714285714285476 0.4305555555555555802 0.4325396825396825573 0.4365079365079365115 0.4444444444444444198 0.4603174603174602919 0.476190476190476164 0.4841269841269840724 0.4880952380952380265 0.4920634920634920362 0.5079365079365079083 0.5238095238095237249 0.5476190476190475609 0.5535714285714286031 0.5595238095238095344 0.5714285714285713969 0.5952380952380951218 0.6190476190476189577 0.6349206349206348854 0.650793650793650702 0.6666666666666666297 0.6904761904761904656 0.7023809523809523281 0.7142857142857141906 0.7321428571428569843 0.7410714285714283811 0.749999999999999889 0.7678571428571427937 0.7857142857142855874 0.7976190476190474499 0.8095238095238094234 0.8333333333333332593 0.8452380952380951218 0.851190476190476053 0.8571428571428570953 0.875 0.8928571428571427937 0.9107142857142856984 0.9285714285714286031 0.9464285714285713969 0.9642857142857143016 0.9821428571428572063 0.9866071428571429047 0.9910714285714286031 0.9977678571428572063 0.9988839285714286031 0.9994419642857143016 0.9997209821428572063 0.9998604910714286031 0.9999302455357143016 
	0 
	0 
	0 
	F 1 F 0 F 1 F 0 } I I I I #
tcoedge-coedge $-1 -1 $-1 $14 $14 $18 $19 reversed $9 $20 -6.283185307179586232 -0 #
tcoedge-coedge $-1 -1 $-1 $21 $22 $11 $16 reversed $12 $23 -6.283185307179586232 -0 #
tedge-edge $-1 -1 $-1 $24 0 $24 6.283185307179586232 $15 $25 forward @7 unknown 0.0007726559876501389946 #
pcurve $-1 -1 $-1 0 forward { exppc nurbs 2 periodic 5 
	0 2 1.570796326794896558 2 3.141592653589793116 2 4.712388980384689674 2 6.283185307179586232 2 
	0 500 1 
	-500 500 0.707106781186543798 
	-500 0 1 
	-500 -500 0.7071067811865463515 
	0 -500 1 
	500 -500 0.7071067811865463515 
	500 0 1 
	500 500 0.707106781186543798 
	0 500 1 
	0 
	plane 11031.79757191538738 3935.642797989778046 14000.00000000000182 1 -3.637978807091713027e-15 0 0 0 -1 forward_v I I I I 
	} 0 0 #
tcoedge-coedge $-1 -1 $-1 $22 $21 $14 $19 forward $12 $26 0 6.283185307179586232 #
tedge-edge $-1 -1 $-1 $27 0 $27 6.283185307179586232 $18 $28 forward @7 unknown 0.0007726559876399636487 #
pcurve $-1 -1 $-1 0 forward { exppc nurbs 2 periodic 5 
	-6.283185307179586232 2 -4.712388980384689674 2 -3.141592653589793116 2 -1.570796326794896558 2 0 2 
	0 500 1 
	500 500 0.707106781186543798 
	500 0 1 
	500 -500 0.7071067811865463515 
	0 -500 1 
	-500 -500 0.7071067811865463515 
	-500 0 1 
	-500 500 0.707106781186543798 
	0 500 1 
	0 
	plane 10781.79757191538738 3935.642797989778956 14000.00000000000182 -1 3.637978807091713027e-15 -0 0 0 -1 reverse_v I I I I 
	} 0 0 #
coedge $-1 -1 $-1 $18 $15 $22 $29 reversed $12 $30 #
coedge $-1 -1 $-1 $15 $18 $21 $29 forward $12 $31 #
pcurve $-1 -1 $-1 0 forward { exppc nubs 1 periodic 2 
	-6.283185307179586232 1 -0 1 
	1 1 
	0 1 
	2.726396620975368931e-13 
	spline forward { ref 0 } I I I I 
	} 0 0 #
tvertex-vertex $-1 -1 $-1 $16 $32 0.0001029685835022001921 #
ellipse-curve $-1 -1 $-1 11031.79757191538738 3935.642797989778046 14000.00000000000182 1 -3.637978807091713027e-15 0 1.818989403545856476e-12 500 0 1 I I #
pcurve $-1 -1 $-1 0 forward { exppc nubs 1 periodic 2 
	0 1 6.283185307179586232 1 
	0 0 
	1 0 
	4.4114023995510105e-13 
	spline forward { ref 0 } I I I I 
	} 0 0 #
tvertex-vertex $-1 -1 $-1 $19 $33 0.0001029685833186110727 #
ellipse-curve $-1 -1 $-1 10781.79757191538738 3935.642797989778956 14000.00000000000182 1 -3.637978807091713027e-15 0 1.818989403545856476e-12 500 0 1 I I #
edge $-1 -1 $-1 $27 0 $24 0.9999999996274782088 $22 $34 forward @7 tangent #
pcurve $-1 -1 $-1 -1 $34 0 0 #
pcurve $-1 -1 $-1 1 $34 1 0 #
point $-1 -1 $-1 11031.7975719153892 4435.642797989778046 14000.00000000000182 #
point $-1 -1 $-1 10781.7975719153892 4435.642797989778956 14000.00000000000182 #
intcurve-curve $-1 -1 $-1 forward { parcur full nubs 3 open 2 
	0 3 1 3 
	10781.79757200641143 4435.64289431371617 13999.99996361019657 
	10865.13090533974537 4435.64289431371526 13999.99996361019657 
	10948.4642386751857 4435.642894313713441 13999.99996361019657 
	11031.79757200851964 4435.642894313713441 13999.99996361019657 
	0 
	
	spline forward { ref 0 } I I I I 
	null_surface 
	nubs 1 open 2 
	0 1 1 1 
	0 0 
	0 1 
	
	nullbs 
	I I 
	0 
	0 
	0 
	surf1 } F 0 F 0.9999999996274782088 #
End-of-ACIS-data 