700 0 1 0           
4 LibG 20 ASM 224.0.1.65535 NT 24 Wed Jul 17 12:52:14 2019 
1000 9.999999999999999547e-07 1.000000000000000036e-10 
body $-1 -1 $-1 $1 $-1 $2 #
lump $-1 -1 $-1 $-1 $3 $0 #
transform $-1 -1 1 0 0 0 1 0 0 0 1 0 0 0 1 no_rotate no_reflect no_shear #
shell $-1 -1 $-1 $-1 $-1 $4 $-1 $1 #
face $-1 -1 $-1 $5 $6 $3 $-1 $7 forward single #
face $-1 -1 $-1 $8 $9 $3 $-1 $10 reversed single #
loop $-1 -1 $-1 $-1 $11 $4 #
plane-surface $-1 -1 $-1 11781.79757191538738 3935.642797989775318 14000.00000000000182 1 -3.637978807091713027e-15 0 0 0 -1 forward_v I I I I #
face $-1 -1 $-1 $-1 $12 $3 $-1 $13 forward single #
loop $-1 -1 $-1 $-1 $14 $5 #
plane-surface $-1 -1 $-1 11531.79757191538738 3935.642797989776227 14000.00000000000182 1 -3.637978807091713027e-15 0 0 0 -1 forward_v I I I I #
tcoedge-coedge $-1 -1 $-1 $11 $11 $15 $16 forward $6 $17 0 6.283185307179586232 #
loop $-1 -1 $-1 $-1 $18 $8 #
spline-surface $-1 -1 $-1 forward { exactsur full nubs 3 3 periodic open none none 86 2 
	0 3 0.001116071428571428509 1 0.002232142857142857019 1 0.004464285714285714038 1 0.008928571428571428076 1 
	0.01785714285714285615 1 0.0357142857142857123 1 0.05357142857142856845 1 0.07142857142857142461 1 0.08928571428571427382 1 
	0.1071428571428571369 1 0.1160714285714285754 1 0.125 1 0.1428571428571428492 1 0.1587301587301587213 1 
	0.1746031746031745935 1 0.1904761904761904656 1 0.2023809523809523836 1 0.2142857142857142738 1 0.238095238095238082 1 
	0.2619047619047618625 1 0.2738095238095237804 1 0.2857142857142856984 1 0.2916666666666666297 1 0.2976190476190476164 1 
	0.3095238095238095344 1 0.3214285714285713969 1 0.3333333333333333148 1 0.3452380952380952328 1 0.3571428571428570953 1 
	0.3630952380952380265 1 0.3690476190476190133 1 0.3809523809523809312 1 0.3928571428571428492 1 0.4047619047619047672 1 
	0.4166666666666666297 1 0.4285714285714285476 1 0.4444444444444444198 1 0.4603174603174602919 1 0.476190476190476164 1 
	0.4841269841269840724 1 0.4880952380952380265 1 0.4920634920634920362 1 0.5 1 0.5158730158730158166 1 
	0.5238095238095237249 1 0.5357142857142855874 1 0.5416666666666665186 1 0.5476190476190475609 1 0.5714285714285713969 1 
	0.5952380952380951218 1 0.6190476190476189577 1 0.6349206349206348854 1 0.650793650793650702 1 0.6666666666666666297 1 
	0.6785714285714286031 1 0.6904761904761904656 1 0.7023809523809523281 1 0.7142857142857141906 1 0.7321428571428569843 1 
	0.749999999999999889 1 0.7678571428571427937 1 0.7857142857142855874 1 0.7976190476190474499 1 0.8095238095238094234 1 
	0.8333333333333332593 1 0.8392857142857141906 1 0.8452380952380951218 1 0.8571428571428570953 1 0.875 1 
	0.8928571428571427937 1 0.9107142857142856984 1 0.9285714285714286031 1 0.9375 1 0.9464285714285713969 1 
	0.9642857142857143016 1 0.9732142857142858094 1 0.9821428571428572063 1 0.9910714285714286031 1 0.9955357142857143016 1 
	0.9977678571428572063 1 0.9988839285714286031 1 0.9994419642857143016 1 0.9997209821428572063 1 0.9998604910714286031 1 
	1 3 
	0 3 1 3 
	11531.7975719599217 4435.642941814250662 13999.99982320043455 
	11531.79757195991624 4435.642941802297173 14001.1685704690899 
	11531.79757195988714 4435.634746336138051 14003.50606510966281 
	11531.79757195985258 4435.585570173861015 14008.18082401861102 
	11531.79757195971251 4435.413475243864923 14016.36044717046934 
	11531.79757195916682 4434.725117787722411 14032.7100280158611 
	11531.7975719573551 4431.973863577255543 14065.3320365531581 
	11531.79757195154161 4424.130803152000226 14111.49397996212247 
	11531.79757194644662 4408.575813774835296 14165.48624274519716 
	11531.79757194139711 4387.07344909152107 14217.39732508136694 
	11531.79757193605474 4359.894269961070677 14266.57470079611267 
	11531.79757193483783 4332.798778876949655 14304.76206098580587 
	11531.79757193334808 4308.659382308089334 14333.34779635709128 
	11531.79757193192927 4282.956145508534973 14360.5360284903054 
	11531.79757193108162 4249.594230402806716 14390.34989998285528 
	11531.7975719275255 4207.366010229031417 14420.70968268438082 
	11531.79757192720353 4164.126576540635142 14445.67389052250655 
	11531.79757192647594 4122.408907203003764 14464.49775569696976 
	11531.79757192592115 4083.157772633815057 14478.23162505842993 
	11531.79757192515899 4034.957011248480285 14491.14840101096524 
	11531.79757192444595 3973.147651836977275 14500.46644748862127 
	11531.79757192285433 3910.639732908792212 14500.46484805739965 
	11531.79757192268517 3861.052169053394664 14494.87663318906925 
	11531.79757192206307 3830.40744447226507 14489.07870196066142 
	11531.7975719219321 3806.203091831662732 14483.07571602699863 
	11531.79757192178477 3782.240053437343704 14476.17221176604471 
	11531.79757192135185 3752.801825212622589 14465.87133162681494 
	11531.79757192098805 3718.498485860985056 14450.90492230191012 
	11531.79757192059878 3685.409502686241012 14433.41687391466439 
	11531.79757192026045 3653.719919564246084 14413.50498954790237 
	11531.79757192011857 3628.625779393632001 14394.9847118366506 
	11531.79757192000034 3609.422959278522285 14379.07440788585154 
	11531.79757191993122 3590.828339800432332 14362.45737033448495 
	11531.79757191970384 3568.774772803409633 14340.4038567914231 
	11531.79757191949102 3544.36221348121444 14312.035928986812 
	11531.79757191935096 3522.13783134221876 14281.92297878255522 
	11531.79757191932003 3502.226020519814938 14250.23338326555677 
	11531.79757191916542 3482.79465508212661 14213.46793301686739 
	11531.79757191907629 3465.016804100628633 14171.29393176164012 
	11531.79757191902172 3450.300252289986929 14123.58344727261829 
	11531.79757191897806 3442.056004832124472 14082.80125579799824 
	11531.79757191897079 3438.438112641485986 14053.92917147962544 
	11531.79757191897261 3436.989235423587616 14037.36895784216358 
	11531.79757191897443 3435.953770182639346 14020.77776844319487 
	11531.79757191899625 3435.227945368224937 13991.68893243858292 
	11531.79757191904537 3436.887159907660589 13958.44461606330879 
	11531.79757191909448 3441.539360199863495 13921.32344128874502 
	11531.79757191921453 3446.564207408409857 13894.76466827170589 
	11531.79757191924182 3452.567342790567182 13870.56038260274909 
	11531.79757191933641 3462.921796641471246 13834.61554585979138 
	11531.79757191963654 3483.474637649001579 13782.24747492554707 
	11531.79757192012403 3520.9791526783888 13717.28707959438179 
	11531.79757192052784 3562.550872714671186 13665.15911907646114 
	11531.79757192129 3604.251168136070191 13624.48770147246978 
	11531.79757192148099 3643.286623265343678 13593.35750227913195 
	11531.79757192171746 3681.732947793268067 13568.52644578203763 
	11531.79757192235229 3718.498572894454355 13549.09557748346197 
	11531.79757192261604 3752.801814817278228 13534.12898229671919 
	11531.79757192333454 3788.127714697946431 13521.76819061279275 
	11531.79757192405305 3830.303537689400855 13510.46667941279156 
	11531.79757192471516 3879.542869698721006 13502.10034211145103 
	11531.79757192566103 3935.642717725639159 13498.94999013711094 
	11531.7975719266542 3991.742504228122016 13502.10042211961627 
	11531.79757192776378 4040.981927023373828 13510.46666386730976 
	11531.7975719284841 4083.15761461314969 13521.76838945082818 
	11531.79757192877878 4130.259213870886924 13538.24873905347886 
	11531.79757193064324 4169.681791523890752 13557.23244747160061 
	11531.79757193119622 4201.720898935453988 13576.53903003619962 
	11531.79757193147088 4222.584510710344148 13590.19896059301573 
	11531.79757193258229 4252.697616811651642 13612.42316224278147 
	11531.79757193494515 4289.93895782546133 13645.70363981694936 
	11531.79757193771184 4327.379631790111489 13687.60012763047234 
	11531.79757194061858 4359.89426297830687 13733.42496302479412 
	11531.79757194368904 4382.543436352383651 13774.40614101142273 
	11531.79757194506237 4397.824816699495386 13808.55777314543775 
	11531.79757194597732 4411.168091786857985 13843.51221308657841 
	11531.79757195112143 4421.53828180389246 13879.50691987729078 
	11531.7975719543283 4428.836995160145307 13916.20278542506458 
	11531.7975719564165 4432.759817117079365 13943.98818742161711 
	11531.79757195891034 4434.725163605661692 13967.28961336367684 
	11531.7975719596343 4435.413470027306175 13983.63919940535925 
	11531.79757195985439 4435.58557182518507 13991.8188222472254 
	11531.79757195990533 4435.628599253506763 13995.90923645610201 
	11531.79757195992352 4435.639356164546371 13997.95451907541792 
	11531.7975719599217 4435.642045405020326 13998.97716978911558 
	11531.79757195992352 4435.642813764947277 13999.56154297630383 
	11531.7975719599217 4435.642941815744052 13999.85372979185377 
	11531.7975719599217 4435.642941814250662 13999.99982320043455 
	11615.13090529325564 4435.642941814249752 13999.99982320043455 
	11615.13090529325018 4435.642941802296264 14001.1685704690899 
	11615.13090529322108 4435.634746336137141 14003.50606510966281 
	11615.13090529318652 4435.585570173860106 14008.18082401861102 
	11615.13090529304645 4435.413475243864013 14016.36044717046934 
	11615.13090529250076 4434.725117787721501 14032.7100280158611 
	11615.13090529068904 4431.973863577254633 14065.3320365531581 
	11615.13090528487555 4424.130803151999316 14111.49397996212247 
	11615.13090527978056 4408.575813774834387 14165.48624274519716 
	11615.13090527473105 4387.07344909152016 14217.39732508136694 
	11615.13090526938868 4359.894269961069767 14266.57470079611267 
	11615.13090526817177 4332.798778876948745 14304.76206098580587 
	11615.13090526668202 4308.659382308088425 14333.34779635709128 
	11615.13090526526321 4282.956145508534064 14360.5360284903054 
	11615.13090526441556 4249.594230402805806 14390.34989998285528 
	11615.13090526085944 4207.366010229030508 14420.70968268438082 
	11615.13090526053747 4164.126576540634233 14445.67389052250655 
	11615.13090525980988 4122.408907203002855 14464.49775569696976 
	11615.13090525925509 4083.157772633814602 14478.23162505842993 
	11615.13090525849293 4034.95701124847983 14491.14840101096524 
	11615.13090525777989 3973.14765183697682 14500.46644748862127 
	11615.13090525618827 3910.639732908791757 14500.46484805739965 
	11615.1309052560191 3861.052169053394209 14494.87663318906925 
	11615.13090525539701 3830.407444472264615 14489.07870196066142 
	11615.13090525526604 3806.203091831662277 14483.07571602699863 
	11615.13090525511871 3782.240053437343249 14476.17221176604471 
	11615.13090525468579 3752.801825212622134 14465.87133162681494 
	11615.13090525432199 3718.498485860984601 14450.90492230191012 
	11615.13090525393272 3685.409502686240558 14433.41687391466439 
	11615.13090525359439 3653.719919564245629 14413.50498954790237 
	11615.13090525345251 3628.625779393631547 14394.9847118366506 
	11615.13090525333428 3609.42295927852183 14379.07440788585154 
	11615.13090525326515 3590.828339800431877 14362.45737033448495 
	11615.13090525303778 3568.774772803409178 14340.4038567914231 
	11615.13090525282496 3544.362213481213985 14312.035928986812 
	11615.1309052526849 3522.137831342218306 14281.92297878255522 
	11615.13090525265397 3502.226020519814483 14250.23338326555677 
	11615.13090525249936 3482.794655082126155 14213.46793301686739 
	11615.13090525241023 3465.016804100628178 14171.29393176164012 
	11615.13090525235566 3450.300252289986474 14123.58344727261829 
	11615.130905252312 3442.056004832124017 14082.80125579799824 
	11615.13090525230473 3438.438112641485532 14053.92917147962544 
	11615.13090525230655 3436.989235423587161 14037.36895784216358 
	11615.13090525230837 3435.953770182638891 14020.77776844319487 
	11615.13090525233019 3435.227945368224482 13991.68893243858292 
	11615.13090525237931 3436.887159907660134 13958.44461606330879 
	11615.13090525242842 3441.53936019986304 13921.32344128874502 
	11615.13090525254847 3446.564207408409402 13894.76466827170589 
	11615.13090525257576 3452.567342790566727 13870.56038260274909 
	11615.13090525267035 3462.921796641470792 13834.61554585979138 
	11615.13090525297048 3483.474637649001124 13782.24747492554707 
	11615.13090525345797 3520.979152678388346 13717.28707959438179 
	11615.13090525386178 3562.550872714670732 13665.15911907646114 
	11615.13090525462394 3604.251168136069737 13624.48770147246978 
	11615.13090525481493 3643.286623265343223 13593.35750227913195 
	11615.1309052550514 3681.732947793267613 13568.52644578203763 
	11615.13090525568623 3718.498572894453901 13549.09557748346197 
	11615.13090525594998 3752.801814817277773 13534.12898229671919 
	11615.13090525666848 3788.127714697945976 13521.76819061279275 
	11615.13090525738698 3830.3035376894004 13510.46667941279156 
	11615.1309052580491 3879.542869698720551 13502.10034211145103 
	11615.13090525899497 3935.642717725638704 13498.94999013711094 
	11615.13090525998814 3991.742504228121561 13502.10042211961627 
	11615.13090526109772 4040.981927023373373 13510.46666386730976 
	11615.13090526181804 4083.157614613149235 13521.76838945082818 
	11615.13090526211272 4130.259213870886015 13538.24873905347886 
	11615.13090526397718 4169.681791523889842 13557.23244747160061 
	11615.13090526453016 4201.720898935453079 13576.53903003619962 
	11615.13090526480482 4222.584510710343238 13590.19896059301573 
	11615.13090526591623 4252.697616811650732 13612.42316224278147 
	11615.13090526827909 4289.93895782546042 13645.70363981694936 
	11615.13090527104578 4327.379631790110579 13687.60012763047234 
	11615.13090527395252 4359.89426297830596 13733.42496302479412 
	11615.13090527702298 4382.543436352382741 13774.40614101142273 
	11615.13090527839631 4397.824816699494477 13808.55777314543775 
	11615.13090527931126 4411.168091786857076 13843.51221308657841 
	11615.13090528445537 4421.53828180389155 13879.50691987729078 
	11615.13090528766224 4428.836995160144397 13916.20278542506458 
	11615.13090528975044 4432.759817117078455 13943.98818742161711 
	11615.13090529224428 4434.725163605660782 13967.28961336367684 
	11615.13090529296824 4435.413470027305266 13983.63919940535925 
	11615.13090529318833 4435.585571825184161 13991.8188222472254 
	11615.13090529323927 4435.628599253505854 13995.90923645610201 
	11615.13090529325746 4435.639356164545461 13997.95451907541792 
	11615.13090529325564 4435.642045405019417 13998.97716978911558 
	11615.13090529325746 4435.642813764946368 13999.56154297630383 
	11615.13090529325564 4435.642941815743143 13999.85372979185377 
	11615.13090529325564 4435.642941814249752 13999.99982320043455 
	11698.46423862755182 4435.642941814250662 13999.99982320043455 
	11698.46423862754818 4435.642941802297173 14001.1685704690899 
	11698.46423862751726 4435.634746336138051 14003.50606510966281 
	11698.4642386274827 4435.585570173861015 14008.18082401861102 
	11698.464238627339 4435.413475243864923 14016.36044717046934 
	11698.46423862677875 4434.725117787722411 14032.7100280158611 
	11698.46423862493066 4431.973863577255543 14065.3320365531581 
	11698.46423861898984 4424.130803152000226 14111.49397996212247 
	11698.46423861378389 4408.575813774834387 14165.48624274519716 
	11698.46423860862706 4387.07344909152016 14217.39732508136694 
	11698.46423860317009 4359.894269961069767 14266.57470079611267 
	11698.46423860192772 4332.798778876947836 14304.76206098580587 
	11698.46423860040341 4308.659382308088425 14333.34779635709128 
	11698.46423859895367 4282.956145508534064 14360.5360284903054 
	11698.46423859808783 4249.594230402805806 14390.34989998285528 
	11698.46423859445531 4207.366010229030508 14420.70968268438082 
	11698.46423859412607 4164.126576540634233 14445.67389052250655 
	11698.46423859338393 4122.408907203002855 14464.49775569696976 
	11698.46423859281822 4083.157772633814602 14478.23162505842993 
	11698.46423859203787 4034.957011248480285 14491.14840101096524 
	11698.46423859130846 3973.14765183697682 14500.46644748862127 
	11698.46423858968046 3910.639732908792666 14500.46484805739965 
	11698.46423858950766 3861.052169053395119 14494.87663318906925 
	11698.46423858887283 3830.407444472265524 14489.07870196066142 
	11698.46423858874005 3806.203091831663187 14483.07571602699863 
	11698.46423858859089 3782.240053437344159 14476.17221176604471 
	11698.46423858814705 3752.801825212623044 14465.87133162681494 
	11698.46423858777598 3718.498485860985511 14450.90492230191012 
	11698.46423858737944 3685.409502686241467 14433.41687391466439 
	11698.46423858703383 3653.719919564246538 14413.50498954790237 
	11698.46423858688831 3628.625779393631547 14394.9847118366506 
	11698.46423858677008 3609.422959278522285 14379.07440788585154 
	11698.46423858669732 3590.828339800432332 14362.45737033448495 
	11698.46423858646449 3568.774772803409633 14340.4038567914231 
	11698.46423858624803 3544.36221348121444 14312.035928986812 
	11698.46423858610251 3522.13783134221876 14281.92297878255522 
	11698.46423858607159 3502.226020519814938 14250.23338326555677 
	11698.46423858591515 3482.79465508212661 14213.46793301686739 
	11698.46423858582602 3465.016804100628178 14171.29393176164012 
	11698.46423858576782 3450.300252289987384 14123.58344727261829 
	11698.46423858572234 3442.056004832124472 14082.80125579799824 
	11698.46423858571507 3438.438112641485532 14053.92917147962544 
	11698.46423858571688 3436.989235423587616 14037.36895784216358 
	11698.46423858572234 3435.953770182638891 14020.77776844319487 
	11698.46423858574417 3435.227945368225392 13991.68893243858292 
	11698.46423858579146 3436.887159907660589 13958.44461606330879 
	11698.46423858584239 3441.539360199863495 13921.32344128874502 
	11698.46423858596245 3446.564207408409857 13894.76466827170589 
	11698.46423858599337 3452.567342790566727 13870.56038260274909 
	11698.46423858608796 3462.921796641470792 13834.61554585979138 
	11698.46423858639719 3483.474637649002034 13782.24747492554707 
	11698.46423858689377 3520.979152678389255 13717.28707959438179 
	11698.4642385873085 3562.550872714671641 13665.15911907646114 
	11698.46423858808521 3604.251168136070646 13624.48770147246978 
	11698.46423858828348 3643.286623265344133 13593.35750227913195 
	11698.46423858852359 3681.732947793268522 13568.52644578203763 
	11698.46423858917296 3718.49857289445481 13549.09557748346197 
	11698.46423858944217 3752.801814817278682 13534.12898229671919 
	11698.46423859017523 3788.127714697946431 13521.76819061279275 
	11698.46423859091192 3830.30353768940131 13510.46667941279156 
	11698.46423859158676 3879.542869698721461 13502.10034211145103 
	11698.46423859255265 3935.642717725639159 13498.94999013711094 
	11698.46423859356946 3991.742504228121106 13502.10042211961627 
	11698.46423859470269 4040.981927023374283 13510.46666386730976 
	11698.46423859543756 4083.157614613149235 13521.76838945082818 
	11698.4642385957377 4130.259213870886924 13538.24873905347886 
	11698.46423859764764 4169.681791523889842 13557.23244747160061 
	11698.46423859821152 4201.720898935453988 13576.53903003619962 
	11698.46423859848983 4222.584510710343238 13590.19896059301573 
	11698.4642385996267 4252.697616811651642 13612.42316224278147 
	11698.46423860203868 4289.93895782546133 13645.70363981694936 
	11698.46423860486357 4327.379631790111489 13687.60012763047234 
	11698.46423860783216 4359.89426297830687 13733.42496302479412 
	11698.46423861096991 4382.543436352383651 13774.40614101142273 
	11698.46423861237054 4397.824816699495386 13808.55777314543775 
	11698.46423861330732 4411.168091786857985 13843.51221308657841 
	11698.46423861856238 4421.53828180389246 13879.50691987729078 
	11698.46423862183838 4428.836995160145307 13916.20278542506458 
	11698.46423862397023 4432.759817117079365 13943.98818742161711 
	11698.46423862652045 4434.725163605661692 13967.28961336367684 
	11698.46423862725896 4435.413470027306175 13983.63919940535925 
	11698.46423862748452 4435.58557182518507 13991.8188222472254 
	11698.46423862753545 4435.628599253506763 13995.90923645610201 
	11698.46423862755364 4435.639356164546371 13997.95451907541792 
	11698.46423862755182 4435.642045405020326 13998.97716978911558 
	11698.46423862755364 4435.642813764947277 13999.56154297630383 
	11698.46423862755182 4435.642941815744052 13999.85372979185377 
	11698.46423862755182 4435.642941814250662 13999.99982320043455 
	11781.79757196088576 4435.642941814250662 13999.99982320043455 
	11781.79757196088212 4435.642941802297173 14001.1685704690899 
	11781.7975719608512 4435.634746336138051 14003.50606510966281 
	11781.79757196081664 4435.585570173861015 14008.18082401861102 
	11781.79757196067294 4435.413475243864923 14016.36044717046934 
	11781.79757196011269 4434.725117787722411 14032.7100280158611 
	11781.7975719582646 4431.973863577255543 14065.3320365531581 
	11781.79757195232378 4424.130803152000226 14111.49397996212247 
	11781.79757194711783 4408.575813774834387 14165.48624274519716 
	11781.797571941961 4387.07344909152016 14217.39732508136694 
	11781.79757193650403 4359.894269961069767 14266.57470079611267 
	11781.79757193526166 4332.798778876947836 14304.76206098580587 
	11781.79757193373734 4308.659382308088425 14333.34779635709128 
	11781.79757193228761 4282.956145508534064 14360.5360284903054 
	11781.79757193142177 4249.594230402805806 14390.34989998285528 
	11781.79757192778925 4207.366010229030508 14420.70968268438082 
	11781.79757192746001 4164.126576540634233 14445.67389052250655 
	11781.79757192671786 4122.408907203002855 14464.49775569696976 
	11781.79757192615216 4083.157772633814147 14478.23162505842993 
	11781.79757192537181 4034.95701124847983 14491.14840101096524 
	11781.7975719246424 3973.147651836976365 14500.46644748862127 
	11781.7975719230144 3910.639732908792212 14500.46484805739965 
	11781.7975719228416 3861.052169053394664 14494.87663318906925 
	11781.79757192220677 3830.40744447226507 14489.07870196066142 
	11781.79757192207398 3806.203091831662732 14483.07571602699863 
	11781.79757192192483 3782.240053437343704 14476.17221176604471 
	11781.79757192148099 3752.801825212622589 14465.87133162681494 
	11781.79757192110992 3718.498485860985056 14450.90492230191012 
	11781.79757192071338 3685.409502686241012 14433.41687391466439 
	11781.79757192036777 3653.719919564246084 14413.50498954790237 
	11781.79757192022225 3628.625779393631092 14394.9847118366506 
	11781.79757192010402 3609.42295927852183 14379.07440788585154 
	11781.79757192003126 3590.828339800431877 14362.45737033448495 
	11781.79757191979843 3568.774772803409178 14340.4038567914231 
	11781.79757191958197 3544.362213481213985 14312.035928986812 
	11781.79757191943645 3522.137831342218306 14281.92297878255522 
	11781.79757191940553 3502.226020519814483 14250.23338326555677 
	11781.79757191924909 3482.794655082126155 14213.46793301686739 
	11781.79757191915996 3465.016804100627724 14171.29393176164012 
	11781.79757191910176 3450.300252289986929 14123.58344727261829 
	11781.79757191905628 3442.056004832124017 14082.80125579799824 
	11781.79757191904901 3438.438112641485077 14053.92917147962544 
	11781.79757191905082 3436.989235423587161 14037.36895784216358 
	11781.79757191905628 3435.953770182638436 14020.77776844319487 
	11781.79757191907811 3435.227945368224937 13991.68893243858292 
	11781.7975719191254 3436.887159907660134 13958.44461606330879 
	11781.79757191917633 3441.53936019986304 13921.32344128874502 
	11781.79757191929639 3446.564207408409402 13894.76466827170589 
	11781.79757191932731 3452.567342790566272 13870.56038260274909 
	11781.7975719194219 3462.921796641470337 13834.61554585979138 
	11781.79757191973113 3483.474637649001579 13782.24747492554707 
	11781.79757192022771 3520.9791526783888 13717.28707959438179 
	11781.79757192064244 3562.550872714671186 13665.15911907646114 
	11781.79757192141915 3604.251168136070191 13624.48770147246978 
	11781.79757192161742 3643.286623265343678 13593.35750227913195 
	11781.79757192185753 3681.732947793268067 13568.52644578203763 
	11781.7975719225069 3718.498572894454355 13549.09557748346197 
	11781.79757192277611 3752.801814817278228 13534.12898229671919 
	11781.79757192350917 3788.127714697945976 13521.76819061279275 
	11781.79757192424586 3830.303537689400855 13510.46667941279156 
	11781.7975719249207 3879.542869698721006 13502.10034211145103 
	11781.79757192588659 3935.642717725638704 13498.94999013711094 
	11781.7975719269034 3991.742504228120652 13502.10042211961627 
	11781.79757192803663 4040.981927023373828 13510.46666386730976 
	11781.7975719287715 4083.15761461314878 13521.76838945082818 
	11781.79757192907164 4130.259213870886924 13538.24873905347886 
	11781.79757193098158 4169.681791523889842 13557.23244747160061 
	11781.79757193154546 4201.720898935453988 13576.53903003619962 
	11781.79757193182377 4222.584510710343238 13590.19896059301573 
	11781.79757193296064 4252.697616811651642 13612.42316224278147 
	11781.79757193537262 4289.93895782546133 13645.70363981694936 
	11781.79757193819751 4327.379631790111489 13687.60012763047234 
	11781.7975719411661 4359.89426297830687 13733.42496302479412 
	11781.79757194430385 4382.543436352383651 13774.40614101142273 
	11781.79757194570448 4397.824816699495386 13808.55777314543775 
	11781.79757194664126 4411.168091786857985 13843.51221308657841 
	11781.79757195189632 4421.53828180389246 13879.50691987729078 
	11781.79757195517232 4428.836995160145307 13916.20278542506458 
	11781.79757195730417 4432.759817117079365 13943.98818742161711 
	11781.79757195985439 4434.725163605661692 13967.28961336367684 
	11781.7975719605929 4435.413470027306175 13983.63919940535925 
	11781.79757196081846 4435.58557182518507 13991.8188222472254 
	11781.79757196086939 4435.628599253506763 13995.90923645610201 
	11781.79757196088758 4435.639356164546371 13997.95451907541792 
	11781.79757196088576 4435.642045405020326 13998.97716978911558 
	11781.79757196088758 4435.642813764947277 13999.56154297630383 
	11781.79757196088576 4435.642941815744052 13999.85372979185377 
	11781.79757196088576 4435.642941814250662 13999.99982320043455 
	0 
	
	0 
	0 
	83 0 0.001116071428571428509 0.002232142857142857019 0.004464285714285714038 0.008928571428571428076 0.01785714285714285615 0.0357142857142857123 0.05357142857142856845 0.07142857142857142461 0.08928571428571427382 0.1071428571428571369 0.1160714285714285754 0.125 0.1428571428571428492 0.1587301587301587213 0.1746031746031745935 0.1904761904761904656 0.2023809523809523836 0.2142857142857142738 0.238095238095238082 0.2619047619047618625 0.2738095238095237804 0.2857142857142856984 0.2916666666666666297 0.2976190476190476164 0.3095238095238095344 0.3214285714285713969 0.3333333333333333148 0.3452380952380952328 0.3571428571428570953 0.3630952380952380265 0.3690476190476190133 0.3809523809523809312 0.3928571428571428492 0.4047619047619047672 0.4166666666666666297 0.4285714285714285476 0.4444444444444444198 0.4603174603174602919 0.476190476190476164 0.4880952380952380265 0.4920634920634920362 0.5 0.5158730158730158166 0.5238095238095237249 0.5357142857142855874 0.5416666666666665186 0.5476190476190475609 0.5714285714285713969 0.5952380952380951218 0.6190476190476189577 0.6349206349206348854 0.650793650793650702 0.6666666666666666297 0.6785714285714286031 0.6904761904761904656 0.7023809523809523281 0.7142857142857141906 0.7321428571428569843 0.749999999999999889 0.7678571428571427937 0.7857142857142855874 0.7976190476190474499 0.8095238095238094234 0.8333333333333332593 0.8392857142857141906 0.8452380952380951218 0.8571428571428570953 0.875 0.8928571428571427937 0.9107142857142856984 0.9285714285714286031 0.9375 0.9464285714285713969 0.9642857142857143016 0.9732142857142858094 0.9821428571428572063 0.9910714285714286031 0.9955357142857143016 0.9977678571428572063 0.9988839285714286031 0.9997209821428572063 0.9998604910714286031 
	0 
	0 
	0 
	F 1 F 0 F 1 F 0 } I I I I #
tcoedge-coedge $-1 -1 $-1 $14 $14 $18 $19 reversed $9 $20 -6.283185307179586232 -0 #
tcoedge-coedge $-1 -1 $-1 $21 $22 $11 $16 reversed $12 $23 -6.283185307179586232 -0 #
tedge-edge $-1 -1 $-1 $24 0 $24 6.283185307179586232 $15 $25 forward @7 unknown 0.0007544067380773915223 #
pcurve $-1 -1 $-1 0 forward { exppc nurbs 2 periodic 5 
	0 2 1.570796326794896558 2 3.141592653589793116 2 4.712388980384689674 2 6.283185307179586232 2 
	0 500 1 
	-500 500 0.707106781186543798 
	-500 0 1 
	-500 -500 0.7071067811865463515 
	0 -500 1 
	500 -500 0.7071067811865463515 
	500 0 1 
	500 500 0.707106781186543798 
	0 500 1 
	0 
	plane 11781.79757191538738 3935.642797989775318 14000.00000000000182 1 -3.637978807091713027e-15 0 0 0 -1 forward_v I I I I 
	} 0 0 #
tcoedge-coedge $-1 -1 $-1 $22 $21 $14 $19 forward $12 $26 0 6.283185307179586232 #
tedge-edge $-1 -1 $-1 $27 0 $27 6.283185307179586232 $18 $28 forward @7 unknown 0.0007544067384567954958 #
pcurve $-1 -1 $-1 0 forward { exppc nurbs 2 periodic 5 
	-6.283185307179586232 2 -4.712388980384689674 2 -3.141592653589793116 2 -1.570796326794896558 2 0 2 
	0 500 1 
	500 500 0.707106781186543798 
	500 0 1 
	500 -500 0.7071067811865463515 
	0 -500 1 
	-500 -500 0.7071067811865463515 
	-500 0 1 
	-500 500 0.707106781186543798 
	0 500 1 
	0 
	plane 11531.79757191538738 3935.642797989776227 14000.00000000000182 -1 3.637978807091713027e-15 -0 0 0 -1 reverse_v I I I I 
	} 0 0 #
coedge $-1 -1 $-1 $18 $15 $22 $29 reversed $12 $30 #
coedge $-1 -1 $-1 $15 $18 $21 $29 forward $12 $31 #
pcurve $-1 -1 $-1 0 forward { exppc nubs 1 periodic 2 
	-6.283185307179586232 1 -0 1 
	1 1 
	0 1 
	2.726396620975368931e-13 
	spline forward { ref 0 } I I I I 
	} 0 0 #
tvertex-vertex $-1 -1 $-1 $16 $32 0.0002279113277645663496 #
ellipse-curve $-1 -1 $-1 11781.79757191538738 3935.642797989775318 14000.00000000000182 1 -3.637978807091713027e-15 0 1.818989403545856476e-12 500 0 1 I I #
pcurve $-1 -1 $-1 0 forward { exppc nubs 1 periodic 2 
	0 1 6.283185307179586232 1 
	0 0 
	1 0 
	4.4114023995510105e-13 
	spline forward { ref 0 } I I I I 
	} 0 0 #
tvertex-vertex $-1 -1 $-1 $19 $33 0.0002279113270002141992 #
ellipse-curve $-1 -1 $-1 11531.79757191538738 3935.642797989776227 14000.00000000000182 1 -3.637978807091713027e-15 0 1.818989403545856476e-12 500 0 1 I I #
edge $-1 -1 $-1 $27 0 $24 0.9999999998180137961 $22 $34 forward @7 tangent #
pcurve $-1 -1 $-1 -1 $34 0 0 #
pcurve $-1 -1 $-1 1 $34 1 0 #
point $-1 -1 $-1 11781.7975719153892 4435.642797989775318 14000.00000000000182 #
point $-1 -1 $-1 11531.7975719153892 4435.642797989776227 14000.00000000000182 #
intcurve-curve $-1 -1 $-1 forward { parcur full nubs 3 open 2 
	0 3 1 3 
	11531.7975719599217 4435.642941814250662 13999.99982320043455 
	11615.13090529325564 4435.642941814249752 13999.99982320043455 
	11698.46423862755182 4435.642941814250662 13999.99982320043455 
	11781.79757196088576 4435.642941814250662 13999.99982320043455 
	0 
	
	spline forward { ref 0 } I I I I 
	null_surface 
	nubs 1 open 2 
	0 1 1 1 
	0 0 
	0 1 
	
	nullbs 
	I I 
	0 
	0 
	0 
	surf1 } F 0 F 0.9999999998180137961 #
End-of-ACIS-data 