700 0 1 0           
4 LibG 20 ASM 224.0.1.65535 NT 24 Wed Jul 17 12:52:14 2019 
1000 9.999999999999999547e-07 1.000000000000000036e-10 
body $-1 -1 $-1 $1 $-1 $2 #
lump $-1 -1 $-1 $-1 $3 $0 #
transform $-1 -1 1 0 0 0 1 0 0 0 1 0 0 0 1 no_rotate no_reflect no_shear #
shell $-1 -1 $-1 $-1 $-1 $4 $-1 $1 #
face $-1 -1 $-1 $5 $6 $3 $-1 $7 forward single #
face $-1 -1 $-1 $8 $9 $3 $-1 $10 reversed single #
loop $-1 -1 $-1 $-1 $11 $4 #
plane-surface $-1 -1 $-1 14031.79757191538738 3935.642797989767132 14000.00000000000182 1 -3.637978807091713027e-15 0 0 0 -1 forward_v I I I I #
face $-1 -1 $-1 $-1 $12 $3 $-1 $13 forward single #
loop $-1 -1 $-1 $-1 $14 $5 #
plane-surface $-1 -1 $-1 13781.79757191538738 3935.642797989768042 14000.00000000000182 1 -3.637978807091713027e-15 0 0 0 -1 forward_v I I I I #
tcoedge-coedge $-1 -1 $-1 $11 $11 $15 $16 forward $6 $17 0 6.283185307179586232 #
loop $-1 -1 $-1 $-1 $18 $8 #
spline-surface $-1 -1 $-1 forward { exactsur full nubs 3 3 periodic open none none 84 2 
	0 3 0.001116071428571428509 1 0.002232142857142857019 1 0.004464285714285714038 1 0.008928571428571428076 1 
	0.01785714285714285615 1 0.02678571428571428423 1 0.0357142857142857123 1 0.05357142857142856845 1 0.07142857142857142461 1 
	0.08928571428571427382 1 0.1071428571428571369 1 0.125 1 0.1428571428571428492 1 0.1587301587301587213 1 
	0.1825396825396825295 1 0.1904761904761904656 1 0.2023809523809523836 1 0.2142857142857142738 1 0.238095238095238082 1 
	0.2619047619047618625 1 0.2857142857142856984 1 0.2976190476190476164 1 0.3095238095238095344 1 0.3214285714285713969 1 
	0.3333333333333333148 1 0.3392857142857143016 1 0.3452380952380952328 1 0.3571428571428570953 1 0.3630952380952380265 1 
	0.3690476190476190133 1 0.3809523809523809312 1 0.3928571428571428492 1 0.4047619047619047672 1 0.4166666666666666297 1 
	0.4285714285714285476 1 0.4444444444444444198 1 0.4603174603174602919 1 0.476190476190476164 1 0.4781746031746031411 1 
	0.4791666666666666297 1 0.4801587301587301182 1 0.4841269841269840724 1 0.4920634920634920362 1 0.5 1 
	0.5039682539682539542 1 0.5079365079365079083 1 0.5238095238095237249 1 0.5476190476190475609 1 0.5595238095238095344 1 
	0.5654761904761904656 1 0.5714285714285713969 1 0.5952380952380951218 1 0.6190476190476189577 1 0.6349206349206348854 1 
	0.650793650793650702 1 0.6666666666666666297 1 0.6904761904761904656 1 0.7142857142857141906 1 0.7321428571428569843 1 
	0.749999999999999889 1 0.7678571428571427937 1 0.7857142857142855874 1 0.8095238095238094234 1 0.8214285714285713969 1 
	0.8333333333333332593 1 0.8452380952380951218 1 0.8571428571428570953 1 0.875 1 0.8928571428571427937 1 
	0.9107142857142856984 1 0.9285714285714286031 1 0.9464285714285713969 1 0.9642857142857143016 1 0.9732142857142858094 1 
	0.9821428571428572063 1 0.9910714285714286031 1 0.9955357142857143016 1 0.9977678571428572063 1 0.9988839285714286031 1 
	0.9994419642857143016 1 0.9997209821428572063 1 0.9998604910714286031 1 1 3 
	0 3 1 3 
	13781.79757209833588 4435.642810719728004 14000.00004773429828 
	13781.7975720983286 4435.642810718390137 14001.16879498925664 
	13781.79757209819581 4435.634614818035516 14003.50628940030037 
	13781.79757209807212 4435.585440613454921 14008.18104835807753 
	13781.79757209743366 4435.413336724780493 14016.36066959050004 
	13781.7975720954164 4434.725033278385126 14032.71025395218567 
	13781.79757208895353 4432.75964971033136 14056.01165585778836 
	13781.79757208297451 4428.836871261798478 14083.79706417890156 
	13781.79757207632611 4421.537983891755175 14120.49285056631379 
	13781.79757205492569 4408.575845157669391 14165.48641778443562 
	13781.79757203758163 4387.073367851083276 14217.39745826157923 
	13781.79757201830216 4359.894196286733859 14266.57481327306959 
	13781.79757200246786 4327.379475384897887 14312.39940546763137 
	13781.7975719843871 4289.939025984826912 14354.29630193021876 
	13781.79757197957224 4249.593980630055739 14390.34957476127602 
	13781.79757196889659 4200.610235640255269 14425.56876185936562 
	13781.79757196628634 4156.693795526929534 14449.48396504760422 
	13781.79757196379069 4114.558375401167723 14467.24402691479008 
	13781.79757196210994 4083.15784552175819 14478.23174920185375 
	13781.79757195891762 4034.956831842843712 14491.14829602713144 
	13781.79757195534148 3973.147713120440585 14500.46607101796872 
	13781.79757194899503 3898.137886921879726 14500.46555105389052 
	13781.79757194427475 3836.328577254590527 14491.14873857930615 
	13781.7975719431688 3788.127688846048841 14478.23201672845789 
	13781.79757194082049 3752.801750312919921 14465.87146890457734 
	13781.79757193911246 3718.498442135514324 14450.90481890258889 
	13781.79757193726255 3690.924292758171305 14436.3315131034251 
	13781.79757193673686 3669.564646435328541 14423.46092887518716 
	13781.79757193631485 3648.701070232008988 14409.80087979727068 
	13781.7975719355145 3628.625737344274512 14394.98467828331195 
	13781.79757193500154 3609.422923780951805 14379.07436397413221 
	13781.79757193467594 3590.828305738271865 14362.45732479661274 
	13781.79757193343721 3568.774730595397614 14340.40380583478873 
	13781.79757193258411 3544.362201466662555 14312.03585417464456 
	13781.79757193133628 3522.137755367605223 14281.92292851903403 
	13781.79757193093246 3502.226019445619841 14250.2332788003896 
	13781.7975719299684 3482.794623147533002 14213.46783910121303 
	13781.79757192907164 3465.016769843288785 14171.29381314103193 
	13781.79757192864963 3450.300265433026198 14123.58331546922273 
	13781.79757192775469 3443.292574125007377 14088.91844049151769 
	13781.7975719276601 3440.472383546474248 14069.38171174997478 
	13781.79757192766192 3439.917130982343224 14065.26340837428324 
	13781.79757192765828 3439.122782579725481 14059.08087998402516 
	13781.79757192767283 3437.610511027201937 14045.65923284859127 
	13781.79757192767829 3436.057283004481178 14024.93315007213459 
	13781.79757192776015 3435.539135531374086 14004.15541951061459 
	13781.7975719277656 3435.746367423561878 13987.53322350724375 
	13781.7975719278511 3436.678753520568989 13962.61548593061889 
	13781.79757192809484 3441.234334224973736 13917.0746961108689 
	13781.79757192898796 3453.289086188879082 13864.25972362006178 
	13781.79757192935176 3467.71152130085693 13823.04649575161784 
	13781.79757192947 3477.254717276284737 13800.00715241676153 
	13781.79757192970465 3492.851233798019166 13766.00725890385729 
	13781.79757193168189 3520.978848666880367 13717.2866183646438 
	13781.79757193359546 3562.55109884403646 13665.15889081714522 
	13781.7975719353617 3604.250895112932994 13624.48695319888066 
	13781.79757193590376 3643.286732314347773 13593.35727145032433 
	13781.79757193762998 3692.217781236981864 13561.75299775980056 
	13781.79757193987462 3752.289589964129391 13532.8232884623867 
	13781.79757194472768 3817.993883737934084 13512.5574498761307 
	13781.79757194813646 3879.543237060940555 13502.10063482285659 
	13781.7975719517508 3935.643086941977799 13498.94953223790981 
	13781.79757195559978 3991.742727070931778 13502.10071149301984 
	13781.79757196064747 4053.292498051088842 13512.55667370115407 
	13781.79757196640276 4107.049671095132908 13529.13952150577097 
	13781.79757196786159 4152.787047147592602 13549.09587487617682 
	13781.79757197091749 4185.876201845785545 13566.58338401054425 
	13781.79757197411163 4217.565620791920082 13586.49554062155767 
	13781.79757197801518 4252.697635548413928 13612.42359075026616 
	13781.7975719857568 4289.938954603320781 13645.70410863552388 
	13781.79757199609048 4327.379719076378933 13687.6004746529743 
	13781.79757200299719 4359.894249073890933 13733.42534667131076 
	13781.79757202828841 4387.073365700965041 13782.60265601740321 
	13781.79757204807538 4408.575865738799621 13834.5136976085505 
	13781.79757207341572 4421.537986326000464 13879.50725028406487 
	13781.79757208098636 4428.836875241169764 13916.20303541225803 
	13781.79757208787305 4432.759651196659433 13943.98844139260837 
	13781.79757209514173 4434.72503394456362 13967.28984198116268 
	13781.79757209744093 4435.41333685918562 13983.63942587859856 
	13781.79757209811578 4435.585440672570257 13991.81904706909336 
	13781.79757209827949 4435.628468058624094 13995.90946109305332 
	13781.79757209833042 4435.639225053820155 13997.95474362894311 
	13781.79757209833951 4435.641914301610996 13998.97739433037896 
	13781.7975720983377 4435.642682659327875 13999.56176751214298 
	13781.7975720983377 4435.642810719895351 13999.85395432742735 
	13781.79757209833588 4435.642810719728004 14000.00004773429828 
	13865.13090543166982 4435.642810719727095 14000.00004773429828 
	13865.13090543166254 4435.642810718389228 14001.16879498925664 
	13865.13090543152975 4435.634614818034606 14003.50628940030037 
	13865.13090543140606 4435.585440613454011 14008.18104835807753 
	13865.1309054307676 4435.413336724779583 14016.36066959050004 
	13865.13090542875034 4434.725033278384217 14032.71025395218567 
	13865.13090542228747 4432.75964971033045 14056.01165585778836 
	13865.13090541630845 4428.836871261797569 14083.79706417890156 
	13865.13090540966004 4421.537983891754266 14120.49285056631379 
	13865.13090538825963 4408.575845157668482 14165.48641778443562 
	13865.13090537091557 4387.073367851082367 14217.39745826157923 
	13865.1309053516361 4359.894196286732949 14266.57481327306959 
	13865.1309053358018 4327.379475384896978 14312.39940546763137 
	13865.13090531772104 4289.939025984826003 14354.29630193021876 
	13865.13090531290618 4249.59398063005483 14390.34957476127602 
	13865.13090530223053 4200.610235640254359 14425.56876185936562 
	13865.13090529962028 4156.693795526928625 14449.48396504760422 
	13865.13090529712463 4114.558375401166813 14467.24402691479008 
	13865.13090529544388 4083.157845521757736 14478.23174920185375 
	13865.13090529225155 4034.956831842843258 14491.14829602713144 
	13865.13090528867542 3973.14771312044013 14500.46607101796872 
	13865.13090528232897 3898.137886921879272 14500.46555105389052 
	13865.13090527760869 3836.328577254590073 14491.14873857930615 
	13865.13090527650274 3788.127688846048386 14478.23201672845789 
	13865.13090527415443 3752.801750312919467 14465.87146890457734 
	13865.1309052724464 3718.498442135513869 14450.90481890258889 
	13865.13090527059649 3690.92429275817085 14436.3315131034251 
	13865.1309052700708 3669.564646435328086 14423.46092887518716 
	13865.13090526964879 3648.701070232008533 14409.80087979727068 
	13865.13090526884844 3628.625737344274057 14394.98467828331195 
	13865.13090526833548 3609.422923780951351 14379.07436397413221 
	13865.13090526800988 3590.828305738271411 14362.45732479661274 
	13865.13090526677115 3568.774730595397159 14340.40380583478873 
	13865.13090526591805 3544.3622014666621 14312.03585417464456 
	13865.13090526467022 3522.137755367604768 14281.92292851903403 
	13865.1309052642664 3502.226019445619386 14250.2332788003896 
	13865.13090526330234 3482.794623147532548 14213.46783910121303 
	13865.13090526240558 3465.01676984328833 14171.29381314103193 
	13865.13090526198357 3450.300265433025743 14123.58331546922273 
	13865.13090526108863 3443.292574125006922 14088.91844049151769 
	13865.13090526099404 3440.472383546473793 14069.38171174997478 
	13865.13090526099586 3439.917130982342769 14065.26340837428324 
	13865.13090526099222 3439.122782579725026 14059.08087998402516 
	13865.13090526100677 3437.610511027201483 14045.65923284859127 
	13865.13090526101223 3436.057283004480723 14024.93315007213459 
	13865.13090526109409 3435.539135531373631 14004.15541951061459 
	13865.13090526109954 3435.746367423561423 13987.53322350724375 
	13865.13090526118503 3436.678753520568534 13962.61548593061889 
	13865.13090526142878 3441.234334224973281 13917.0746961108689 
	13865.1309052623219 3453.289086188878628 13864.25972362006178 
	13865.1309052626857 3467.711521300856475 13823.04649575161784 
	13865.13090526280394 3477.254717276284282 13800.00715241676153 
	13865.13090526303858 3492.851233798018711 13766.00725890385729 
	13865.13090526501583 3520.978848666879912 13717.2866183646438 
	13865.1309052669294 3562.551098844036005 13665.15889081714522 
	13865.13090526869564 3604.25089511293254 13624.48695319888066 
	13865.1309052692377 3643.286732314347319 13593.35727145032433 
	13865.13090527096392 3692.217781236981409 13561.75299775980056 
	13865.13090527320855 3752.289589964128936 13532.8232884623867 
	13865.13090527806162 3817.993883737933629 13512.5574498761307 
	13865.1309052814704 3879.5432370609401 13502.10063482285659 
	13865.13090528508474 3935.643086941977344 13498.94953223790981 
	13865.13090528893372 3991.742727070931323 13502.10071149301984 
	13865.13090529398141 4053.292498051088387 13512.55667370115407 
	13865.1309052997367 4107.049671095131998 13529.13952150577097 
	13865.13090530119553 4152.787047147591693 13549.09587487617682 
	13865.13090530425143 4185.876201845784635 13566.58338401054425 
	13865.13090530744557 4217.565620791919173 13586.49554062155767 
	13865.13090531134912 4252.697635548413018 13612.42359075026616 
	13865.13090531909074 4289.938954603319871 13645.70410863552388 
	13865.13090532942442 4327.379719076378024 13687.6004746529743 
	13865.13090533633112 4359.894249073890023 13733.42534667131076 
	13865.13090536162235 4387.073365700964132 13782.60265601740321 
	13865.13090538140932 4408.575865738798711 13834.5136976085505 
	13865.13090540674966 4421.537986325999555 13879.50725028406487 
	13865.1309054143203 4428.836875241168855 13916.20303541225803 
	13865.13090542120699 4432.759651196658524 13943.98844139260837 
	13865.13090542847567 4434.725033944562711 13967.28984198116268 
	13865.13090543077487 4435.41333685918471 13983.63942587859856 
	13865.13090543144972 4435.585440672569348 13991.81904706909336 
	13865.13090543161343 4435.628468058623184 13995.90946109305332 
	13865.13090543166436 4435.639225053819246 13997.95474362894311 
	13865.13090543167345 4435.641914301610086 13998.97739433037896 
	13865.13090543167164 4435.642682659326965 13999.56176751214298 
	13865.13090543167164 4435.642810719894442 13999.85395432742735 
	13865.13090543166982 4435.642810719727095 14000.00004773429828 
	13948.46423876832159 4435.642810719728004 14000.00004773429828 
	13948.46423876831432 4435.642810718390137 14001.16879498925664 
	13948.46423876817244 4435.634614818035516 14003.50628940030037 
	13948.46423876804874 4435.585440613454921 14008.18104835807753 
	13948.46423876739937 4435.413336724780493 14016.36066959050004 
	13948.46423876534755 4434.725033278385126 14032.71025395218567 
	13948.46423875876644 4432.75964971033045 14056.01165585778836 
	13948.46423875268192 4428.836871261798478 14083.79706417890156 
	13948.46423874591164 4421.537983891754266 14120.49285056631379 
	13948.46423872412561 4408.575845157668482 14165.48641778443562 
	13948.46423870646504 4387.073367851082367 14217.39745826157923 
	13948.46423868683632 4359.89419628673204 14266.57481327306959 
	13948.46423867071462 4327.379475384895159 14312.39940546763137 
	13948.46423865230645 4289.939025984825093 14354.29630193021876 
	13948.46423864740245 4249.593980630053011 14390.34957476127602 
	13948.46423863653581 4200.61023564025345 14425.56876185936562 
	13948.46423863387463 4156.693795526927715 14449.48396504760422 
	13948.46423863133714 4114.558375401165904 14467.24402691479008 
	13948.46423862962547 4083.157845521757281 14478.23174920185375 
	13948.46423862637675 4034.956831842842803 14491.14829602713144 
	13948.46423862273514 3973.147713120439676 14500.46607101796872 
	13948.46423861627773 3898.137886921880181 14500.46555105389052 
	13948.46423861147196 3836.328577254590073 14491.14873857930615 
	13948.46423861034782 3788.127688846048841 14478.23201672845789 
	13948.46423860795585 3752.801750312919012 14465.87146890457734 
	13948.4642386062169 3718.498442135514779 14450.90481890258889 
	13948.4642386043306 3690.924292758171759 14436.3315131034251 
	13948.46423860379764 3669.564646435328996 14423.46092887518716 
	13948.46423860336654 3648.701070232009442 14409.80087979727068 
	13948.46423860255345 3628.625737344274967 14394.98467828331195 
	13948.46423860202958 3609.42292378095226 14379.07436397413221 
	13948.46423860169853 3590.82830573827232 14362.45732479661274 
	13948.46423860043433 3568.774730595398069 14340.40380583478873 
	13948.46423859956667 3544.362201466663009 14312.03585417464456 
	13948.4642385982952 3522.137755367605678 14281.92292851903403 
	13948.4642385978841 3502.226019445620295 14250.2332788003896 
	13948.46423859690185 3482.794623147533457 14213.46783910121303 
	13948.4642385959869 3465.016769843289239 14171.29381314103193 
	13948.46423859555944 3450.300265433026652 14123.58331546922273 
	13948.46423859464267 3443.292574125007377 14088.91844049151769 
	13948.4642385945499 3440.472383546473793 14069.38171174997478 
	13948.46423859455172 3439.917130982343224 14065.26340837428324 
	13948.46423859454808 3439.122782579725026 14059.08087998402516 
	13948.46423859456263 3437.610511027202392 14045.65923284859127 
	13948.46423859457173 3436.057283004480723 14024.93315007213459 
	13948.4642385946554 3435.539135531374541 14004.15541951061459 
	13948.46423859466086 3435.746367423561878 13987.53322350724375 
	13948.46423859474635 3436.678753520568534 13962.61548593061889 
	13948.46423859499555 3441.234334224973281 13917.0746961108689 
	13948.46423859590504 3453.289086188879082 13864.25972362006178 
	13948.46423859627612 3467.711521300856475 13823.04649575161784 
	13948.46423859639435 3477.254717276284737 13800.00715241676153 
	13948.46423859663264 3492.851233798018256 13766.00725890385729 
	13948.46423859864444 3520.978848666879458 13717.2866183646438 
	13948.46423860059804 3562.55109884403646 13665.15889081714522 
	13948.46423860239156 3604.25089511293254 13624.48695319888066 
	13948.46423860294635 3643.286732314347773 13593.35727145032433 
	13948.4642386047035 3692.217781236982319 13561.75299775980056 
	13948.46423860699178 3752.289589964129391 13532.8232884623867 
	13948.46423861192852 3817.993883737934539 13512.5574498761307 
	13948.46423861539733 3879.54323706094101 13502.10063482285659 
	13948.46423861907715 3935.643086941978254 13498.94953223790981 
	13948.46423862299525 3991.742727070932233 13502.10071149301984 
	13948.4642386281339 4053.292498051089296 13512.55667370115407 
	13948.4642386339965 4107.049671095132908 13529.13952150577097 
	13948.46423863547898 4152.787047147592602 13549.09587487617682 
	13948.46423863859127 4185.876201845785545 13566.58338401054425 
	13948.4642386418418 4217.565620791920082 13586.49554062155767 
	13948.46423864581629 4252.697635548413928 13612.42359075026616 
	13948.46423865369798 4289.938954603320781 13645.70410863552388 
	13948.46423866422083 4327.379719076378933 13687.6004746529743 
	13948.46423867125304 4359.894249073890933 13733.42534667131076 
	13948.46423869700084 4387.073365700964132 13782.60265601740321 
	13948.46423871714796 4408.575865738799621 13834.5136976085505 
	13948.46423874294851 4421.537986325999555 13879.50725028406487 
	13948.46423875065557 4428.836875241169764 13916.20303541225803 
	13948.46423875766777 4432.759651196658524 13943.98844139260837 
	13948.46423876506742 4434.72503394456362 13967.28984198116268 
	13948.46423876740846 4435.41333685918562 13983.63942587859856 
	13948.46423876809604 4435.585440672570257 13991.81904706909336 
	13948.46423876826157 4435.628468058624094 13995.90946109305332 
	13948.4642387683125 4435.639225053820155 13997.95474362894311 
	13948.46423876832341 4435.641914301610996 13998.97739433037896 
	13948.46423876832159 4435.642682659327875 13999.56176751214298 
	13948.46423876832341 4435.642810719895351 13999.85395432742735 
	13948.46423876832159 4435.642810719728004 14000.00004773429828 
	14031.79757210165553 4435.642810719728004 14000.00004773429828 
	14031.79757210164826 4435.642810718390137 14001.16879498925664 
	14031.79757210150638 4435.634614818035516 14003.50628940030037 
	14031.79757210138268 4435.585440613454921 14008.18104835807753 
	14031.7975721007333 4435.413336724780493 14016.36066959050004 
	14031.79757209868148 4434.725033278385126 14032.71025395218567 
	14031.79757209210038 4432.75964971033045 14056.01165585778836 
	14031.79757208601586 4428.836871261798478 14083.79706417890156 
	14031.79757207924558 4421.537983891754266 14120.49285056631379 
	14031.79757205745955 4408.575845157668482 14165.48641778443562 
	14031.79757203979898 4387.073367851082367 14217.39745826157923 
	14031.79757202017026 4359.89419628673204 14266.57481327306959 
	14031.79757200404856 4327.379475384895159 14312.39940546763137 
	14031.79757198564039 4289.939025984825093 14354.29630193021876 
	14031.79757198073639 4249.593980630053011 14390.34957476127602 
	14031.79757196986975 4200.61023564025345 14425.56876185936562 
	14031.79757196720857 4156.693795526927715 14449.48396504760422 
	14031.79757196467108 4114.558375401165904 14467.24402691479008 
	14031.79757196295941 4083.157845521756826 14478.23174920185375 
	14031.79757195971069 4034.956831842842348 14491.14829602713144 
	14031.79757195606908 3973.147713120439221 14500.46607101796872 
	14031.79757194961167 3898.137886921879726 14500.46555105389052 
	14031.7975719448059 3836.328577254589618 14491.14873857930615 
	14031.79757194368176 3788.127688846048386 14478.23201672845789 
	14031.79757194128979 3752.801750312918557 14465.87146890457734 
	14031.79757193955083 3718.498442135514324 14450.90481890258889 
	14031.79757193766454 3690.924292758171305 14436.3315131034251 
	14031.79757193713158 3669.564646435328541 14423.46092887518716 
	14031.79757193670048 3648.701070232008988 14409.80087979727068 
	14031.79757193588739 3628.625737344274512 14394.98467828331195 
	14031.79757193536352 3609.422923780951805 14379.07436397413221 
	14031.79757193503247 3590.828305738271865 14362.45732479661274 
	14031.79757193376827 3568.774730595397614 14340.40380583478873 
	14031.79757193290061 3544.362201466662555 14312.03585417464456 
	14031.79757193162914 3522.137755367605223 14281.92292851903403 
	14031.79757193121804 3502.226019445619841 14250.2332788003896 
	14031.79757193023579 3482.794623147533002 14213.46783910121303 
	14031.79757192932084 3465.016769843288785 14171.29381314103193 
	14031.79757192889338 3450.300265433026198 14123.58331546922273 
	14031.79757192797661 3443.292574125006922 14088.91844049151769 
	14031.79757192788384 3440.472383546473338 14069.38171174997478 
	14031.79757192788566 3439.917130982342769 14065.26340837428324 
	14031.79757192788202 3439.122782579724571 14059.08087998402516 
	14031.79757192789657 3437.610511027201937 14045.65923284859127 
	14031.79757192790566 3436.057283004480269 14024.93315007213459 
	14031.79757192798934 3435.539135531374086 14004.15541951061459 
	14031.7975719279948 3435.746367423561423 13987.53322350724375 
	14031.79757192808029 3436.67875352056808 13962.61548593061889 
	14031.79757192832949 3441.234334224972827 13917.0746961108689 
	14031.79757192923898 3453.289086188878628 13864.25972362006178 
	14031.79757192961006 3467.71152130085602 13823.04649575161784 
	14031.79757192972829 3477.254717276284282 13800.00715241676153 
	14031.79757192996658 3492.851233798017802 13766.00725890385729 
	14031.79757193197838 3520.978848666879003 13717.2866183646438 
	14031.79757193393198 3562.551098844036005 13665.15889081714522 
	14031.7975719357255 3604.250895112932085 13624.48695319888066 
	14031.79757193628029 3643.286732314347319 13593.35727145032433 
	14031.79757193803744 3692.217781236981864 13561.75299775980056 
	14031.79757194032572 3752.289589964128936 13532.8232884623867 
	14031.79757194526246 3817.993883737934084 13512.5574498761307 
	14031.79757194873127 3879.543237060940555 13502.10063482285659 
	14031.79757195241109 3935.643086941977799 13498.94953223790981 
	14031.79757195632919 3991.742727070931778 13502.10071149301984 
	14031.79757196146784 4053.292498051088842 13512.55667370115407 
	14031.79757196733044 4107.049671095132908 13529.13952150577097 
	14031.79757196881292 4152.787047147592602 13549.09587487617682 
	14031.79757197192521 4185.876201845785545 13566.58338401054425 
	14031.79757197517574 4217.565620791920082 13586.49554062155767 
	14031.79757197915023 4252.697635548413928 13612.42359075026616 
	14031.79757198703192 4289.938954603320781 13645.70410863552388 
	14031.79757199755477 4327.379719076378933 13687.6004746529743 
	14031.79757200458698 4359.894249073890933 13733.42534667131076 
	14031.79757203033478 4387.073365700964132 13782.60265601740321 
	14031.7975720504819 4408.575865738799621 13834.5136976085505 
	14031.79757207628245 4421.537986325999555 13879.50725028406487 
	14031.79757208398951 4428.836875241169764 13916.20303541225803 
	14031.79757209100171 4432.759651196658524 13943.98844139260837 
	14031.79757209840136 4434.72503394456362 13967.28984198116268 
	14031.7975721007424 4435.41333685918562 13983.63942587859856 
	14031.79757210142998 4435.585440672570257 13991.81904706909336 
	14031.79757210159551 4435.628468058624094 13995.90946109305332 
	14031.79757210164644 4435.639225053820155 13997.95474362894311 
	14031.79757210165735 4435.641914301610996 13998.97739433037896 
	14031.79757210165553 4435.642682659327875 13999.56176751214298 
	14031.79757210165735 4435.642810719895351 13999.85395432742735 
	14031.79757210165553 4435.642810719728004 14000.00004773429828 
	0 
	
	0 
	0 
	81 0 0.001116071428571428509 0.002232142857142857019 0.004464285714285714038 0.008928571428571428076 0.01785714285714285615 0.02678571428571428423 0.0357142857142857123 0.05357142857142856845 0.07142857142857142461 0.08928571428571427382 0.1071428571428571369 0.125 0.1428571428571428492 0.1587301587301587213 0.1825396825396825295 0.1904761904761904656 0.2023809523809523836 0.2142857142857142738 0.238095238095238082 0.2619047619047618625 0.2857142857142856984 0.2976190476190476164 0.3095238095238095344 0.3214285714285713969 0.3333333333333333148 0.3392857142857143016 0.3452380952380952328 0.3571428571428570953 0.3630952380952380265 0.3690476190476190133 0.3809523809523809312 0.3928571428571428492 0.4047619047619047672 0.4166666666666666297 0.4285714285714285476 0.4444444444444444198 0.4603174603174602919 0.476190476190476164 0.4781746031746031411 0.4791666666666666297 0.4801587301587301182 0.4841269841269840724 0.4920634920634920362 0.5 0.5039682539682539542 0.5079365079365079083 0.5238095238095237249 0.5476190476190475609 0.5595238095238095344 0.5654761904761904656 0.5714285714285713969 0.5952380952380951218 0.6190476190476189577 0.6349206349206348854 0.650793650793650702 0.6666666666666666297 0.6904761904761904656 0.7142857142857141906 0.7321428571428569843 0.749999999999999889 0.7678571428571427937 0.7857142857142855874 0.8095238095238094234 0.8214285714285713969 0.8333333333333332593 0.8452380952380951218 0.8571428571428570953 0.875 0.8928571428571427937 0.9107142857142856984 0.9285714285714286031 0.9464285714285713969 0.9642857142857143016 0.9732142857142858094 0.9821428571428572063 0.9910714285714286031 0.9955357142857143016 0.9977678571428572063 0.9994419642857143016 0.9998604910714286031 
	0 
	0 
	0 
	F 1 F 0 F 1 F 0 } I I I I #
tcoedge-coedge $-1 -1 $-1 $14 $14 $18 $19 reversed $9 $20 -6.283185307179586232 -0 #
tcoedge-coedge $-1 -1 $-1 $21 $22 $11 $16 reversed $12 $23 -6.283185307179586232 -0 #
tedge-edge $-1 -1 $-1 $24 0 $24 6.283185307179586232 $15 $25 forward @7 unknown 0.0008023777514977691299 #
pcurve $-1 -1 $-1 0 forward { exppc nurbs 2 periodic 5 
	0 2 1.570796326794896558 2 3.141592653589793116 2 4.712388980384689674 2 6.283185307179586232 2 
	0 500 1 
	-500 500 0.707106781186543798 
	-500 0 1 
	-500 -500 0.7071067811865463515 
	0 -500 1 
	500 -500 0.7071067811865463515 
	500 0 1 
	500 500 0.707106781186543798 
	0 500 1 
	0 
	plane 14031.79757191538738 3935.642797989767132 14000.00000000000182 1 -3.637978807091713027e-15 0 0 0 -1 forward_v I I I I 
	} 0 0 #
tcoedge-coedge $-1 -1 $-1 $22 $21 $14 $19 forward $12 $26 0 6.283185307179586232 #
tedge-edge $-1 -1 $-1 $27 0 $27 6.283185307179586232 $18 $28 forward @7 unknown 0.0008023777513061245781 #
pcurve $-1 -1 $-1 0 forward { exppc nurbs 2 periodic 5 
	-6.283185307179586232 2 -4.712388980384689674 2 -3.141592653589793116 2 -1.570796326794896558 2 0 2 
	0 500 1 
	500 500 0.707106781186543798 
	500 0 1 
	500 -500 0.7071067811865463515 
	0 -500 1 
	-500 -500 0.7071067811865463515 
	-500 0 1 
	-500 500 0.707106781186543798 
	0 500 1 
	0 
	plane 13781.79757191538738 3935.642797989768042 14000.00000000000182 -1 3.637978807091713027e-15 -0 0 0 -1 reverse_v I I I I 
	} 0 0 #
coedge $-1 -1 $-1 $18 $15 $22 $29 reversed $12 $30 #
coedge $-1 -1 $-1 $15 $18 $21 $29 forward $12 $31 #
pcurve $-1 -1 $-1 0 forward { exppc nubs 1 periodic 2 
	-6.283185307179586232 1 -0 1 
	1 1 
	0 1 
	2.726396620975368931e-13 
	spline forward { ref 0 } I I I I 
	} 0 0 #
tvertex-vertex $-1 -1 $-1 $16 $32 4.940294166761582403e-05 #
ellipse-curve $-1 -1 $-1 14031.79757191538738 3935.642797989767132 14000.00000000000182 1 -3.637978807091713027e-15 0 1.818989403545856476e-12 500 0 1 I I #
pcurve $-1 -1 $-1 0 forward { exppc nubs 1 periodic 2 
	0 1 6.283185307179586232 1 
	0 0 
	1 0 
	4.4114023995510105e-13 
	spline forward { ref 0 } I I I I 
	} 0 0 #
tvertex-vertex $-1 -1 $-1 $19 $33 4.94029290285289644e-05 #
ellipse-curve $-1 -1 $-1 13781.79757191538738 3935.642797989768042 14000.00000000000182 1 -3.637978807091713027e-15 0 1.818989403545856476e-12 500 0 1 I I #
edge $-1 -1 $-1 $27 0 $24 1 $22 $34 forward @7 tangent #
pcurve $-1 -1 $-1 -1 $34 0 0 #
pcurve $-1 -1 $-1 1 $34 1 0 #
point $-1 -1 $-1 14031.7975719153892 4435.642797989767132 14000.00000000000182 #
point $-1 -1 $-1 13781.7975719153892 4435.642797989768042 14000.00000000000182 #
intcurve-curve $-1 -1 $-1 forward { parcur full nubs 3 open 2 
	0 3 1 3 
	13781.79757209833588 4435.642810719728004 14000.00004773429828 
	13865.13090543166982 4435.642810719727095 14000.00004773429828 
	13948.46423876832159 4435.642810719728004 14000.00004773429828 
	14031.79757210165553 4435.642810719728004 14000.00004773429828 
	0 
	
	spline forward { ref 0 } I I I I 
	null_surface 
	nubs 1 open 2 
	0 1 1 1 
	0 0 
	0 1 
	
	nullbs 
	I I 
	0 
	0 
	0 
	surf1 } I I #
End-of-ACIS-data 