700 0 1 0           
4 LibG 20 ASM 224.0.1.65535 NT 24 Wed Jul 17 12:52:13 2019 
1000 9.999999999999999547e-07 1.000000000000000036e-10 
body $-1 -1 $-1 $1 $-1 $2 #
lump $-1 -1 $-1 $-1 $3 $0 #
transform $-1 -1 1 0 0 0 1 0 0 0 1 0 0 0 1 no_rotate no_reflect no_shear #
shell $-1 -1 $-1 $-1 $-1 $4 $-1 $1 #
face $-1 -1 $-1 $5 $6 $3 $-1 $7 forward single #
face $-1 -1 $-1 $8 $9 $3 $-1 $10 reversed single #
loop $-1 -1 $-1 $-1 $11 $4 #
plane-surface $-1 -1 $-1 10781.79757191538738 3935.642797989778956 14000.00000000000182 1 -3.637978807091713027e-15 0 0 0 -1 forward_v I I I I #
face $-1 -1 $-1 $-1 $12 $3 $-1 $13 forward single #
loop $-1 -1 $-1 $-1 $14 $5 #
plane-surface $-1 -1 $-1 10531.79757191538738 3935.642797989779865 14000.00000000000182 1 -3.637978807091713027e-15 0 0 0 -1 forward_v I I I I #
tcoedge-coedge $-1 -1 $-1 $11 $11 $15 $16 forward $6 $17 0 6.283185307179586232 #
loop $-1 -1 $-1 $-1 $18 $8 #
spline-surface $-1 -1 $-1 forward { exactsur full nubs 3 3 periodic open none none 91 2 
	0 3 0.0005580357142857142547 1 0.001116071428571428509 1 0.002232142857142857019 1 0.004464285714285714038 1 
	0.008928571428571428076 1 0.01785714285714285615 1 0.0357142857142857123 1 0.05357142857142856845 1 0.07142857142857142461 1 
	0.08928571428571427382 1 0.1071428571428571369 1 0.1160714285714285754 1 0.125 1 0.1428571428571428492 1 
	0.1587301587301587213 1 0.1746031746031745935 1 0.1904761904761904656 1 0.2023809523809523836 1 0.2142857142857142738 1 
	0.226190476190476164 1 0.238095238095238082 1 0.2499999999999999722 1 0.2619047619047618625 1 0.2738095238095237804 1 
	0.2857142857142856984 1 0.2916666666666666297 1 0.2976190476190476164 1 0.3095238095238095344 1 0.3214285714285713969 1 
	0.3273809523809523281 1 0.3333333333333333148 1 0.3452380952380952328 1 0.351190476190476164 1 0.3571428571428570953 1 
	0.3690476190476190133 1 0.3809523809523809312 1 0.3928571428571428492 1 0.4047619047619047672 1 0.4285714285714285476 1 
	0.4305555555555555802 1 0.4325396825396825573 1 0.4365079365079365115 1 0.4444444444444444198 1 0.4603174603174602919 1 
	0.476190476190476164 1 0.4841269841269840724 1 0.4880952380952380265 1 0.4920634920634920362 1 0.5079365079365079083 1 
	0.5238095238095237249 1 0.5476190476190475609 1 0.5535714285714286031 1 0.5595238095238095344 1 0.5714285714285713969 1 
	0.5952380952380951218 1 0.6190476190476189577 1 0.6349206349206348854 1 0.650793650793650702 1 0.6666666666666666297 1 
	0.6904761904761904656 1 0.7023809523809523281 1 0.7142857142857141906 1 0.7321428571428569843 1 0.7410714285714283811 1 
	0.749999999999999889 1 0.7678571428571427937 1 0.7857142857142855874 1 0.7976190476190474499 1 0.8095238095238094234 1 
	0.8333333333333332593 1 0.8452380952380951218 1 0.851190476190476053 1 0.8571428571428570953 1 0.875 1 
	0.8928571428571427937 1 0.9107142857142856984 1 0.9285714285714286031 1 0.9464285714285713969 1 0.9642857142857143016 1 
	0.9821428571428572063 1 0.9866071428571429047 1 0.9910714285714286031 1 0.9955357142857143016 1 0.9977678571428572063 1 
	0.9988839285714286031 1 0.9994419642857143016 1 0.9997209821428572063 1 0.9998604910714286031 1 0.9999302455357143016 1 
	1 3 
	0 3 1 3 
	10531.79757196677747 4435.642893746672598 13999.99996372468013 
	10531.79757196677383 4435.642893746896334 14000.58433735812105 
	10531.79757196676655 4435.640844691685743 14001.75308460968881 
	10531.79757196675746 4435.628551317183337 14004.09055045566129 
	10531.79757196671198 4435.585522169438264 14008.1809644694622 
	10531.79757196656465 4435.413427853525718 14016.36058749386029 
	10531.79757196596256 4434.725073307688035 14032.71016852081812 
	10531.79757196405262 4431.973824962938124 14065.33217487086949 
	10531.79757195785169 4424.130805655800032 14111.49412687593576 
	10531.79757195284037 4408.575819621672053 14165.48637481766855 
	10531.79757194734339 4387.073538851289413 14217.39749808249508 
	10531.79757194313424 4359.894288108197543 14266.57480699326152 
	10531.79757193876867 4332.798734105893345 14304.76211584355042 
	10531.79757193760088 4308.659500922723964 14333.34798116815364 
	10531.79757193646037 4282.956129198790222 14360.53606400604622 
	10531.79757193324076 4249.594285524267434 14390.35001984469636 
	10531.79757193050136 4207.366132969731552 14420.70980929873622 
	10531.79757192906072 4164.126663911286414 14445.67399776706225 
	10531.79757192796205 4122.409021618812403 14464.49780469147663 
	10531.7975719265869 4083.157976663578211 14478.23203531137551 
	10531.79757192545731 4047.007214266425308 14487.91873258078886 
	10531.79757192494799 4010.233583006954632 14494.87657651260815 
	10531.7975719240585 3973.04285078831299 14499.06698206711189 
	10531.79757192323814 3935.642949022435914 14500.46637385747454 
	10531.79757192243596 3898.243057995967774 14499.06695428946659 
	10531.79757192175384 3861.052311520159037 14494.87657182125986 
	10531.79757192105171 3830.407660409568052 14489.07823789428403 
	10531.79757192086072 3806.203302696583705 14483.07535781873412 
	10531.79757192065699 3782.240278870552629 14476.17181424318915 
	10531.79757192009856 3752.802066522036057 14465.87098026043896 
	10531.79757191957106 3724.215993428014372 14453.39892709660489 
	10531.79757191940007 3701.954263818699474 14442.16056557069896 
	10531.79757191923818 3680.128206021404822 14430.09786317516591 
	10531.79757191904719 3659.001839252190621 14416.82327549585898 
	10531.79757191895987 3638.663761127476846 14402.39247574900583 
	10531.79757191882709 3618.879312743456467 14387.21151466702395 
	10531.79757191866884 3595.239455015989734 14366.86768443353321 
	10531.79757191849421 3568.775084319921916 14340.40352106916725 
	10531.79757191834869 3544.362897188871557 14312.0353933246588 
	10531.79757191813769 3514.729365011125537 14271.88541340968368 
	10531.79757191793942 3494.934274105094573 14237.60174727133926 
	10531.79757191789759 3482.476855113611236 14211.31473628066851 
	10531.79757191789577 3479.011345227150287 14203.76045797626466 
	10531.79757191788667 3473.194754865266532 14190.42853938039661 
	10531.79757191785029 3462.563881905994094 14163.34218636766673 
	10531.79757191778117 3450.29990706550916 14123.58351743187814 
	10531.79757191771932 3442.055861696583179 14082.80126517921599 
	10531.7975719176975 3438.437911140924825 14053.92918426117467 
	10531.79757191769568 3436.989109022487355 14037.36897157404201 
	10531.7975719176975 3435.435625577312294 14012.48216875638354 
	10531.79757191771387 3435.436046275908666 13975.03584266306825 
	10531.79757191777935 3441.23451086917521 13917.07489669610368 
	10531.79757191792669 3451.897861248392928 13870.35387247059953 
	10531.79757191795034 3463.590836767523797 13834.82187527231326 
	10531.79757191797398 3472.265818253996713 13811.44177817674608 
	10531.79757191807221 3489.725779115136902 13771.42081219788633 
	10531.79757191845056 3520.978510887660377 13717.2866721446062 
	10531.79757191886711 3562.550905683051496 13665.15903838145823 
	10531.79757191918725 3604.250689565993071 13624.48705060044085 
	10531.79757191938552 3643.286534647272219 13593.35747350654128 
	10531.79757191966746 3692.217537289251595 13561.75293637130562 
	10531.79757192024954 3741.026088432016422 13538.24846689482547 
	10531.79757192053876 3788.127899703915773 13521.76857634781663 
	10531.79757192085708 3830.30354560547994 13510.46667555436034 
	10531.7975719215483 3870.31061778403091 13503.66936422402796 
	10531.79757192178658 3907.592879632188215 13500.52509921476667 
	10531.79757192207762 3944.992785951411406 13499.47529734729324 
	10531.79757192301986 3991.742605451700001 13502.10045431945218 
	10531.7975719240203 4040.982048114028657 13510.46673128260227 
	10531.79757192468787 4083.157722552915402 13521.76845363183384 
	10531.79757192499164 4130.259363611993649 13538.2487201298718 
	10531.79757192675243 4175.313635624113886 13559.94461316246088 
	10531.79757192765464 4212.284054268324326 13583.17665350872448 
	10531.79757192827492 4232.622283726312162 13597.60712830904049 
	10531.79757192839861 4257.352827707910365 13616.5833905855925 
	10531.79757193298792 4289.938987208062827 13645.70377516963526 
	10531.79757193678051 4327.379719715991996 13687.60024512736709 
	10531.79757194195008 4359.894248494405474 13733.42510608056728 
	10531.79757194675767 4387.073535522140446 13782.60239657011334 
	10531.79757195281672 4408.575799605574502 13834.5135418296104 
	10531.79757195784259 4424.130746484221163 13888.50579871032096 
	10531.79757196462742 4431.189517723749304 13930.05155437786379 
	10531.79757196556238 4433.938949796548513 13957.96919344793423 
	10531.7975719660044 4434.921787802088147 13971.96106104298997 
	10531.79757196654828 4435.413416688581492 13983.63934158375559 
	10531.79757196671198 4435.585524373462249 13991.8189626276835 
	10531.7975719667611 4435.628550976654878 13995.90937704312091 
	10531.79757196677383 4435.63930810428883 13997.95465959531975 
	10531.79757196677747 4435.641997323826217 13998.97731031547664 
	10531.79757196678111 4435.642669642651526 13999.48863685131982 
	10531.79757196677929 4435.64286173009441 13999.7808236118999 
	10531.79757196677747 4435.642893746644404 13999.92691702049888 
	10531.79757196677747 4435.642893746672598 13999.99996372468013 
	10615.13090530011141 4435.642893746671689 13999.99996372468013 
	10615.13090530010777 4435.642893746895425 14000.58433735812105 
	10615.13090530010049 4435.640844691684833 14001.75308460968881 
	10615.1309053000914 4435.628551317182428 14004.09055045566129 
	10615.13090530004592 4435.585522169437354 14008.1809644694622 
	10615.13090529989859 4435.413427853524809 14016.36058749386029 
	10615.1309052992965 4434.725073307687126 14032.71016852081812 
	10615.13090529738656 4431.973824962937215 14065.33217487086949 
	10615.13090529118563 4424.130805655799122 14111.49412687593576 
	10615.13090528617431 4408.575819621671144 14165.48637481766855 
	10615.13090528067733 4387.073538851288504 14217.39749808249508 
	10615.13090527646818 4359.894288108196633 14266.57480699326152 
	10615.13090527210261 4332.798734105892436 14304.76211584355042 
	10615.13090527093482 4308.659500922723055 14333.34798116815364 
	10615.13090526979431 4282.956129198789313 14360.53606400604622 
	10615.1309052665747 4249.594285524266525 14390.35001984469636 
	10615.1309052638353 4207.366132969730643 14420.70980929873622 
	10615.13090526239466 4164.126663911285505 14445.67399776706225 
	10615.13090526129599 4122.409021618811494 14464.49780469147663 
	10615.13090525992084 4083.157976663577756 14478.23203531137551 
	10615.13090525879124 4047.007214266424853 14487.91873258078886 
	10615.13090525828193 4010.233583006954177 14494.87657651260815 
	10615.13090525739244 3973.042850788312535 14499.06698206711189 
	10615.13090525657208 3935.642949022435459 14500.46637385747454 
	10615.1309052557699 3898.24305799596732 14499.06695428946659 
	10615.13090525508778 3861.052311520158582 14494.87657182125986 
	10615.13090525438565 3830.407660409567598 14489.07823789428403 
	10615.13090525419466 3806.203302696583251 14483.07535781873412 
	10615.13090525399093 3782.240278870552174 14476.17181424318915 
	10615.1309052534325 3752.802066522035602 14465.87098026043896 
	10615.13090525290499 3724.215993428013917 14453.39892709660489 
	10615.13090525273401 3701.954263818699019 14442.16056557069896 
	10615.13090525257212 3680.128206021404367 14430.09786317516591 
	10615.13090525238113 3659.001839252190166 14416.82327549585898 
	10615.13090525229381 3638.663761127476391 14402.39247574900583 
	10615.13090525216103 3618.879312743456012 14387.21151466702395 
	10615.13090525200278 3595.239455015989279 14366.86768443353321 
	10615.13090525182815 3568.775084319921461 14340.40352106916725 
	10615.13090525168263 3544.362897188871102 14312.0353933246588 
	10615.13090525147163 3514.729365011125083 14271.88541340968368 
	10615.13090525127336 3494.934274105094119 14237.60174727133926 
	10615.13090525123152 3482.476855113610782 14211.31473628066851 
	10615.13090525122971 3479.011345227149832 14203.76045797626466 
	10615.13090525122061 3473.194754865266077 14190.42853938039661 
	10615.13090525118423 3462.56388190599364 14163.34218636766673 
	10615.13090525111511 3450.299907065508705 14123.58351743187814 
	10615.13090525105326 3442.055861696582724 14082.80126517921599 
	10615.13090525103144 3438.437911140924371 14053.92918426117467 
	10615.13090525102962 3436.9891090224869 14037.36897157404201 
	10615.13090525103144 3435.435625577311839 14012.48216875638354 
	10615.13090525104781 3435.436046275908211 13975.03584266306825 
	10615.13090525111329 3441.234510869174755 13917.07489669610368 
	10615.13090525126063 3451.897861248392473 13870.35387247059953 
	10615.13090525128428 3463.590836767523342 13834.82187527231326 
	10615.13090525130792 3472.265818253996258 13811.44177817674608 
	10615.13090525140615 3489.725779115136447 13771.42081219788633 
	10615.1309052517845 3520.978510887659922 13717.2866721446062 
	10615.13090525220105 3562.550905683051042 13665.15903838145823 
	10615.13090525252119 3604.250689565992616 13624.48705060044085 
	10615.13090525271946 3643.286534647271765 13593.35747350654128 
	10615.1309052530014 3692.21753728925114 13561.75293637130562 
	10615.13090525358348 3741.026088432015968 13538.24846689482547 
	10615.1309052538727 3788.127899703915318 13521.76857634781663 
	10615.13090525419102 3830.303545605479485 13510.46667555436034 
	10615.13090525488224 3870.310617784030455 13503.66936422402796 
	10615.13090525512052 3907.59287963218776 13500.52509921476667 
	10615.13090525541156 3944.992785951410951 13499.47529734729324 
	10615.1309052563538 3991.742605451699546 13502.10045431945218 
	10615.13090525735424 4040.982048114028203 13510.46673128260227 
	10615.13090525802181 4083.157722552914947 13521.76845363183384 
	10615.13090525832558 4130.25936361199274 13538.2487201298718 
	10615.13090526008637 4175.313635624112976 13559.94461316246088 
	10615.13090526098858 4212.284054268323416 13583.17665350872448 
	10615.13090526160886 4232.622283726311252 13597.60712830904049 
	10615.13090526173255 4257.352827707909455 13616.5833905855925 
	10615.13090526632186 4289.938987208061917 13645.70377516963526 
	10615.13090527011445 4327.379719715991087 13687.60024512736709 
	10615.13090527528402 4359.894248494404565 13733.42510608056728 
	10615.13090528009161 4387.073535522139537 13782.60239657011334 
	10615.13090528615066 4408.575799605573593 13834.5135418296104 
	10615.13090529117653 4424.130746484220253 13888.50579871032096 
	10615.13090529796136 4431.189517723748395 13930.05155437786379 
	10615.13090529889632 4433.938949796547604 13957.96919344793423 
	10615.13090529933834 4434.921787802087238 13971.96106104298997 
	10615.13090529988222 4435.413416688580583 13983.63934158375559 
	10615.13090530004592 4435.58552437346134 13991.8189626276835 
	10615.13090530009504 4435.628550976653969 13995.90937704312091 
	10615.13090530010777 4435.63930810428792 13997.95465959531975 
	10615.13090530011141 4435.641997323825308 13998.97731031547664 
	10615.13090530011505 4435.642669642650617 13999.48863685131982 
	10615.13090530011323 4435.6428617300935 13999.7808236118999 
	10615.13090530011141 4435.642893746643495 13999.92691702049888 
	10615.13090530011141 4435.642893746671689 13999.99996372468013 
	10698.46423863466771 4435.642893746672598 13999.99996372468013 
	10698.46423863466225 4435.642893746896334 14000.58433735812105 
	10698.46423863465679 4435.640844691685743 14001.75308460968881 
	10698.46423863464588 4435.628551317183337 14004.09055045566129 
	10698.46423863460041 4435.585522169438264 14008.1809644694622 
	10698.46423863445307 4435.413427853525718 14016.36058749386029 
	10698.46423863382915 4434.725073307688035 14032.71016852081812 
	10698.46423863187556 4431.973824962938124 14065.33217487086949 
	10698.46423862552547 4424.130805655799122 14111.49412687593576 
	10698.46423862039774 4408.575819621671144 14165.48637481766855 
	10698.4642386147716 4387.073538851288504 14217.39749808249508 
	10698.4642386104606 4359.894288108195724 14266.57480699326152 
	10698.46423860599134 4332.798734105891526 14304.76211584355042 
	10698.46423860479445 4308.659500922722145 14333.34798116815364 
	10698.46423860362665 4282.956129198788403 14360.53606400604622 
	10698.46423860032883 4249.594285524267434 14390.35001984469636 
	10698.46423859752576 4207.366132969729733 14420.70980929873622 
	10698.46423859604874 4164.126663911286414 14445.67399776706225 
	10698.46423859492643 4122.409021618812403 14464.49780469147663 
	10698.46423859351853 4083.157976663577756 14478.23203531137551 
	10698.46423859236165 4047.007214266424853 14487.91873258078886 
	10698.46423859184324 4010.233583006954177 14494.87657651260815 
	10698.46423859093193 3973.04285078831208 14499.06698206711189 
	10698.46423859009155 3935.642949022435914 14500.46637385747454 
	10698.46423858927119 3898.243057995967774 14499.06695428946659 
	10698.46423858857088 3861.052311520159037 14494.87657182125986 
	10698.4642385878542 3830.407660409568507 14489.07823789428403 
	10698.46423858765775 3806.20330269658416 14483.07535781873412 
	10698.46423858744856 3782.240278870553084 14476.17181424318915 
	10698.46423858687376 3752.802066522036512 14465.87098026043896 
	10698.46423858633716 3724.215993428014826 14453.39892709660489 
	10698.4642385861589 3701.954263818699928 14442.16056557069896 
	10698.46423858599337 3680.128206021405276 14430.09786317516591 
	10698.46423858579692 3659.001839252191076 14416.82327549585898 
	10698.46423858570779 3638.663761127477301 14402.39247574900583 
	10698.46423858557318 3618.879312743456921 14387.21151466702395 
	10698.46423858540766 3595.239455015990188 14366.86768443353321 
	10698.4642385852294 3568.775084319922371 14340.40352106916725 
	10698.46423858508206 3544.362897188872012 14312.0353933246588 
	10698.4642385848656 3514.729365011125992 14271.88541340968368 
	10698.46423858466369 3494.934274105095028 14237.60174727133926 
	10698.46423858462003 3482.476855113611691 14211.31473628066851 
	10698.46423858461822 3479.011345227150741 14203.76045797626466 
	10698.4642385846073 3473.194754865266987 14190.42853938039661 
	10698.4642385845691 3462.563881905994549 14163.34218636766673 
	10698.46423858449998 3450.299907065509615 14123.58351743187814 
	10698.46423858443632 3442.055861696583634 14082.80126517921599 
	10698.46423858441267 3438.43791114092528 14053.92918426117467 
	10698.46423858441267 3436.98910902248781 14037.36897157404201 
	10698.46423858441449 3435.435625577311839 14012.48216875638354 
	10698.4642385844345 3435.436046275908666 13975.03584266306825 
	10698.4642385845018 3441.234510869174301 13917.07489669610368 
	10698.46423858465278 3451.897861248392019 13870.35387247059953 
	10698.46423858467642 3463.590836767522887 13834.82187527231326 
	10698.46423858470007 3472.265818253996258 13811.44177817674608 
	10698.46423858480193 3489.725779115136447 13771.42081219788633 
	10698.46423858518756 3520.978510887659922 13717.2866721446062 
	10698.46423858561138 3562.550905683051496 13665.15903838145823 
	10698.46423858594244 3604.250689565993525 13624.48705060044085 
	10698.46423858614617 3643.286534647272674 13593.35747350654128 
	10698.46423858643357 3692.21753728925205 13561.75293637130562 
	10698.4642385870302 3741.026088432016877 13538.24846689482547 
	10698.46423858732669 3788.127899703916228 13521.76857634781663 
	10698.46423858765229 3830.30354560547994 13510.46667555436034 
	10698.46423858835988 3870.310617784030455 13503.66936422402796 
	10698.46423858860362 3907.592879632188669 13500.52509921476667 
	10698.46423858890194 3944.992785951411861 13499.47529734729324 
	10698.464238589866 3991.742605451700001 13502.10045431945218 
	10698.46423859089191 4040.982048114029112 13510.46673128260227 
	10698.46423859157403 4083.157722552915857 13521.76845363183384 
	10698.46423859188508 4130.259363611993649 13538.2487201298718 
	10698.4642385936877 4175.313635624113886 13559.94461316246088 
	10698.46423859460992 4212.284054268324326 13583.17665350872448 
	10698.46423859524475 4232.622283726312162 13597.60712830904049 
	10698.46423859537026 4257.352827707910365 13616.5833905855925 
	10698.46423860007053 4289.938987208062827 13645.70377516963526 
	10698.46423860395225 4327.379719715991996 13687.60024512736709 
	10698.46423860924551 4359.894248494405474 13733.42510608056728 
	10698.4642386141677 4387.073535522140446 13782.60239657011334 
	10698.46423862037227 4408.575799605574502 13834.5135418296104 
	10698.46423862551819 4424.130746484221163 13888.50579871032096 
	10698.46423863246309 4431.189517723749304 13930.05155437786379 
	10698.4642386334217 4433.938949796548513 13957.96919344793423 
	10698.46423863387281 4434.921787802088147 13971.96106104298997 
	10698.46423863443124 4435.413416688581492 13983.63934158375559 
	10698.46423863459859 4435.585524373462249 13991.8189626276835 
	10698.46423863464952 4435.628550976654878 13995.90937704312091 
	10698.46423863466225 4435.63930810428883 13997.95465959531975 
	10698.46423863466771 4435.641997323826217 13998.97731031547664 
	10698.46423863466953 4435.642669642651526 13999.48863685131982 
	10698.46423863466953 4435.64286173009441 13999.7808236118999 
	10698.46423863466953 4435.642893746644404 13999.92691702049888 
	10698.46423863466771 4435.642893746672598 13999.99996372468013 
	10781.79757196800165 4435.642893746672598 13999.99996372468013 
	10781.79757196799619 4435.642893746896334 14000.58433735812105 
	10781.79757196799073 4435.640844691685743 14001.75308460968881 
	10781.79757196797982 4435.628551317183337 14004.09055045566129 
	10781.79757196793435 4435.585522169438264 14008.1809644694622 
	10781.79757196778701 4435.413427853525718 14016.36058749386029 
	10781.79757196716309 4434.725073307688035 14032.71016852081812 
	10781.7975719652095 4431.973824962938124 14065.33217487086949 
	10781.79757195885941 4424.130805655799122 14111.49412687593576 
	10781.79757195373168 4408.575819621671144 14165.48637481766855 
	10781.79757194810554 4387.073538851288504 14217.39749808249508 
	10781.79757194379454 4359.894288108195724 14266.57480699326152 
	10781.79757193932528 4332.798734105891526 14304.76211584355042 
	10781.79757193812839 4308.659500922722145 14333.34798116815364 
	10781.79757193696059 4282.956129198788403 14360.53606400604622 
	10781.79757193366277 4249.594285524267434 14390.35001984469636 
	10781.7975719308597 4207.366132969729733 14420.70980929873622 
	10781.79757192938268 4164.126663911286414 14445.67399776706225 
	10781.79757192826037 4122.409021618812403 14464.49780469147663 
	10781.79757192685247 4083.157976663577301 14478.23203531137551 
	10781.79757192569559 4047.007214266424398 14487.91873258078886 
	10781.79757192517718 4010.233583006953722 14494.87657651260815 
	10781.79757192426587 3973.042850788311625 14499.06698206711189 
	10781.79757192342549 3935.642949022435459 14500.46637385747454 
	10781.79757192260513 3898.24305799596732 14499.06695428946659 
	10781.79757192190482 3861.052311520158582 14494.87657182125986 
	10781.79757192118814 3830.407660409568052 14489.07823789428403 
	10781.79757192099169 3806.203302696583705 14483.07535781873412 
	10781.7975719207825 3782.240278870552629 14476.17181424318915 
	10781.7975719202077 3752.802066522036057 14465.87098026043896 
	10781.7975719196711 3724.215993428014372 14453.39892709660489 
	10781.79757191949284 3701.954263818699474 14442.16056557069896 
	10781.79757191932731 3680.128206021404822 14430.09786317516591 
	10781.79757191913086 3659.001839252190621 14416.82327549585898 
	10781.79757191904173 3638.663761127476846 14402.39247574900583 
	10781.79757191890712 3618.879312743456467 14387.21151466702395 
	10781.7975719187416 3595.239455015989734 14366.86768443353321 
	10781.79757191856334 3568.775084319921916 14340.40352106916725 
	10781.797571918416 3544.362897188871557 14312.0353933246588 
	10781.79757191819954 3514.729365011125537 14271.88541340968368 
	10781.79757191799763 3494.934274105094573 14237.60174727133926 
	10781.79757191795397 3482.476855113611236 14211.31473628066851 
	10781.79757191795215 3479.011345227150287 14203.76045797626466 
	10781.79757191794124 3473.194754865266532 14190.42853938039661 
	10781.79757191790304 3462.563881905994094 14163.34218636766673 
	10781.79757191783392 3450.29990706550916 14123.58351743187814 
	10781.79757191777026 3442.055861696583179 14082.80126517921599 
	10781.79757191774661 3438.437911140924825 14053.92918426117467 
	10781.79757191774661 3436.989109022487355 14037.36897157404201 
	10781.79757191774843 3435.435625577311384 14012.48216875638354 
	10781.79757191776844 3435.436046275908211 13975.03584266306825 
	10781.79757191783574 3441.234510869173846 13917.07489669610368 
	10781.79757191798672 3451.897861248391564 13870.35387247059953 
	10781.79757191801036 3463.590836767522433 13834.82187527231326 
	10781.79757191803401 3472.265818253995803 13811.44177817674608 
	10781.79757191813587 3489.725779115135992 13771.42081219788633 
	10781.7975719185215 3520.978510887659468 13717.2866721446062 
	10781.79757191894532 3562.550905683051042 13665.15903838145823 
	10781.79757191927638 3604.250689565993071 13624.48705060044085 
	10781.79757191948011 3643.286534647272219 13593.35747350654128 
	10781.79757191976751 3692.217537289251595 13561.75293637130562 
	10781.79757192036413 3741.026088432016422 13538.24846689482547 
	10781.79757192066063 3788.127899703915773 13521.76857634781663 
	10781.79757192098623 3830.303545605479485 13510.46667555436034 
	10781.79757192169382 3870.310617784030001 13503.66936422402796 
	10781.79757192193756 3907.592879632188215 13500.52509921476667 
	10781.79757192223587 3944.992785951411406 13499.47529734729324 
	10781.79757192319994 3991.742605451699546 13502.10045431945218 
	10781.79757192422585 4040.982048114028657 13510.46673128260227 
	10781.79757192490797 4083.157722552915402 13521.76845363183384 
	10781.79757192521902 4130.259363611993649 13538.2487201298718 
	10781.79757192702164 4175.313635624113886 13559.94461316246088 
	10781.79757192794386 4212.284054268324326 13583.17665350872448 
	10781.79757192857869 4232.622283726312162 13597.60712830904049 
	10781.7975719287042 4257.352827707910365 13616.5833905855925 
	10781.79757193340447 4289.938987208062827 13645.70377516963526 
	10781.79757193728619 4327.379719715991996 13687.60024512736709 
	10781.79757194257945 4359.894248494405474 13733.42510608056728 
	10781.79757194750164 4387.073535522140446 13782.60239657011334 
	10781.79757195370621 4408.575799605574502 13834.5135418296104 
	10781.79757195885213 4424.130746484221163 13888.50579871032096 
	10781.79757196579703 4431.189517723749304 13930.05155437786379 
	10781.79757196675564 4433.938949796548513 13957.96919344793423 
	10781.79757196720675 4434.921787802088147 13971.96106104298997 
	10781.79757196776518 4435.413416688581492 13983.63934158375559 
	10781.79757196793253 4435.585524373462249 13991.8189626276835 
	10781.79757196798346 4435.628550976654878 13995.90937704312091 
	10781.79757196799619 4435.63930810428883 13997.95465959531975 
	10781.79757196800165 4435.641997323826217 13998.97731031547664 
	10781.79757196800347 4435.642669642651526 13999.48863685131982 
	10781.79757196800347 4435.64286173009441 13999.7808236118999 
	10781.79757196800347 4435.642893746644404 13999.92691702049888 
	10781.79757196800165 4435.642893746672598 13999.99996372468013 
	0 
	
	0 
	0 
	89 0 0.0005580357142857142547 0.001116071428571428509 0.002232142857142857019 0.004464285714285714038 0.008928571428571428076 0.01785714285714285615 0.0357142857142857123 0.05357142857142856845 0.07142857142857142461 0.08928571428571427382 0.1071428571428571369 0.1160714285714285754 0.125 0.1428571428571428492 0.1587301587301587213 0.1746031746031745935 0.1904761904761904656 0.2023809523809523836 0.2142857142857142738 0.226190476190476164 0.238095238095238082 0.2499999999999999722 0.2619047619047618625 0.2738095238095237804 0.2857142857142856984 0.2916666666666666297 0.2976190476190476164 0.3095238095238095344 0.3214285714285713969 0.3273809523809523281 0.3333333333333333148 0.3452380952380952328 0.351190476190476164 0.3571428571428570953 0.3690476190476190133 0.3809523809523809312 0.3928571428571428492 0.4047619047619047672 0.4285714285714285476 0.4305555555555555802 0.4325396825396825573 0.4365079365079365115 0.4444444444444444198 0.4603174603174602919 0.476190476190476164 0.4841269841269840724 0.4880952380952380265 0.4920634920634920362 0.5079365079365079083 0.5238095238095237249 0.5476190476190475609 0.5535714285714286031 0.5595238095238095344 0.5714285714285713969 0.5952380952380951218 0.6190476190476189577 0.6349206349206348854 0.650793650793650702 0.6666666666666666297 0.6904761904761904656 0.7023809523809523281 0.7142857142857141906 0.7321428571428569843 0.7410714285714283811 0.749999999999999889 0.7678571428571427937 0.7857142857142855874 0.7976190476190474499 0.8095238095238094234 0.8333333333333332593 0.8452380952380951218 0.851190476190476053 0.8571428571428570953 0.875 0.8928571428571427937 0.9107142857142856984 0.9285714285714286031 0.9464285714285713969 0.9642857142857143016 0.9821428571428572063 0.9866071428571429047 0.9910714285714286031 0.9977678571428572063 0.9988839285714286031 0.9994419642857143016 0.9997209821428572063 0.9998604910714286031 0.9999302455357143016 
	0 
	0 
	0 
	F 1 F 0 F 1 F 0 } I I I I #
tcoedge-coedge $-1 -1 $-1 $14 $14 $18 $19 reversed $9 $20 -6.283185307179586232 -0 #
tcoedge-coedge $-1 -1 $-1 $21 $22 $11 $16 reversed $12 $23 -6.283185307179586232 -0 #
tedge-edge $-1 -1 $-1 $24 0 $24 6.283185307179586232 $15 $25 forward @7 unknown 0.0007719919484309501791 #
pcurve $-1 -1 $-1 0 forward { exppc nurbs 2 periodic 5 
	0 2 1.570796326794896558 2 3.141592653589793116 2 4.712388980384689674 2 6.283185307179586232 2 
	0 500 1 
	-500 500 0.707106781186543798 
	-500 0 1 
	-500 -500 0.7071067811865463515 
	0 -500 1 
	500 -500 0.7071067811865463515 
	500 0 1 
	500 500 0.707106781186543798 
	0 500 1 
	0 
	plane 10781.79757191538738 3935.642797989778956 14000.00000000000182 1 -3.637978807091713027e-15 0 0 0 -1 forward_v I I I I 
	} 0 0 #
tcoedge-coedge $-1 -1 $-1 $22 $21 $14 $19 forward $12 $26 0 6.283185307179586232 #
tedge-edge $-1 -1 $-1 $27 0 $27 6.283185307179586232 $18 $28 forward @7 unknown 0.0007719919484276101859 #
pcurve $-1 -1 $-1 0 forward { exppc nurbs 2 periodic 5 
	-6.283185307179586232 2 -4.712388980384689674 2 -3.141592653589793116 2 -1.570796326794896558 2 0 2 
	0 500 1 
	500 500 0.707106781186543798 
	500 0 1 
	500 -500 0.7071067811865463515 
	0 -500 1 
	-500 -500 0.7071067811865463515 
	-500 0 1 
	-500 500 0.707106781186543798 
	0 500 1 
	0 
	plane 10531.79757191538738 3935.642797989779865 14000.00000000000182 -1 3.637978807091713027e-15 -0 0 0 -1 reverse_v I I I I 
	} 0 0 #
coedge $-1 -1 $-1 $18 $15 $22 $29 reversed $12 $30 #
coedge $-1 -1 $-1 $15 $18 $21 $29 forward $12 $31 #
pcurve $-1 -1 $-1 0 forward { exppc nubs 1 periodic 2 
	-6.283185307179586232 1 -0 1 
	1 1 
	0 1 
	2.726396620975368931e-13 
	spline forward { ref 0 } I I I I 
	} 0 0 #
tvertex-vertex $-1 -1 $-1 $16 $32 0.000102397687766352837 #
ellipse-curve $-1 -1 $-1 10781.79757191538738 3935.642797989778956 14000.00000000000182 1 -3.637978807091713027e-15 0 1.818989403545856476e-12 500 0 1 I I #
pcurve $-1 -1 $-1 0 forward { exppc nubs 1 periodic 2 
	0 1 6.283185307179586232 1 
	0 0 
	1 0 
	4.4114023995510105e-13 
	spline forward { ref 0 } I I I I 
	} 0 0 #
tvertex-vertex $-1 -1 $-1 $19 $33 0.0001023976862941692424 #
ellipse-curve $-1 -1 $-1 10531.79757191538738 3935.642797989779865 14000.00000000000182 1 -3.637978807091713027e-15 0 1.818989403545856476e-12 500 0 1 I I #
edge $-1 -1 $-1 $27 0 $24 0.9999999997895502313 $22 $34 forward @7 tangent #
pcurve $-1 -1 $-1 -1 $34 0 0 #
pcurve $-1 -1 $-1 1 $34 1 0 #
point $-1 -1 $-1 10781.7975719153892 4435.642797989778956 14000.00000000000182 #
point $-1 -1 $-1 10531.7975719153892 4435.642797989779865 14000.00000000000182 #
intcurve-curve $-1 -1 $-1 forward { parcur full nubs 3 open 2 
	0 3 1 3 
	10531.79757196677747 4435.642893746672598 13999.99996372468013 
	10615.13090530011141 4435.642893746671689 13999.99996372468013 
	10698.46423863466771 4435.642893746672598 13999.99996372468013 
	10781.79757196800165 4435.642893746672598 13999.99996372468013 
	0 
	
	spline forward { ref 0 } I I I I 
	null_surface 
	nubs 1 open 2 
	0 1 1 1 
	0 0 
	0 1 
	
	nullbs 
	I I 
	0 
	0 
	0 
	surf1 } F 0 F 0.9999999997895502313 #
End-of-ACIS-data 