700 0 1 0           
4 LibG 20 ASM 224.0.1.65535 NT 24 Wed Jul 17 12:52:11 2019 
1000 9.999999999999999547e-07 1.000000000000000036e-10 
body $-1 -1 $-1 $1 $-1 $2 #
lump $-1 -1 $-1 $-1 $3 $0 #
transform $-1 -1 1 0 0 0 1 0 0 0 1 0 0 0 1 no_rotate no_reflect no_shear #
shell $-1 -1 $-1 $-1 $-1 $4 $-1 $1 #
face $-1 -1 $-1 $5 $6 $3 $-1 $7 forward single #
face $-1 -1 $-1 $8 $9 $3 $-1 $10 reversed single #
loop $-1 -1 $-1 $-1 $11 $4 #
plane-surface $-1 -1 $-1 -1968.202428084613075 3935.64279798982534 14000.00000000000182 1 -3.637978807091713027e-15 0 0 0 -1 forward_v I I I I #
face $-1 -1 $-1 $-1 $12 $3 $-1 $13 forward single #
loop $-1 -1 $-1 $-1 $14 $5 #
plane-surface $-1 -1 $-1 -2468.202428084613075 3935.642797989827159 14000.00000000000182 1 -3.637978807091713027e-15 0 0 0 -1 forward_v I I I I #
tcoedge-coedge $-1 -1 $-1 $11 $11 $15 $16 forward $6 $17 0 6.283185307179586232 #
loop $-1 -1 $-1 $-1 $18 $8 #
spline-surface $-1 -1 $-1 forward { exactsur full nubs 3 3 periodic open none none 80 2 
	0 3 0.002232142857142857019 1 0.004464285714285714038 1 0.008928571428571428076 1 0.01785714285714285615 1 
	0.0357142857142857123 1 0.05357142857142856845 1 0.0625 1 0.07142857142857142461 1 0.08928571428571427382 1 
	0.1071428571428571369 1 0.125 1 0.1428571428571428492 1 0.1587301587301587213 1 0.1746031746031745935 1 
	0.1904761904761904656 1 0.2023809523809523836 1 0.2142857142857142738 1 0.238095238095238082 1 0.2619047619047618625 1 
	0.2857142857142856984 1 0.2976190476190476164 1 0.3095238095238095344 1 0.3214285714285713969 1 0.3273809523809523281 1 
	0.3303571428571427937 1 0.3333333333333333148 1 0.3452380952380952328 1 0.3571428571428570953 1 0.3690476190476190133 1 
	0.375 1 0.3809523809523809312 1 0.3928571428571428492 1 0.4047619047619047672 1 0.4166666666666666297 1 
	0.4285714285714285476 1 0.4444444444444444198 1 0.4603174603174602919 1 0.476190476190476164 1 0.4841269841269840724 1 
	0.4920634920634920362 1 0.5 1 0.5079365079365079083 1 0.5158730158730158166 1 0.5238095238095237249 1 
	0.5476190476190475609 1 0.5714285714285713969 1 0.5952380952380951218 1 0.6190476190476189577 1 0.6269841269841269771 1 
	0.6349206349206348854 1 0.650793650793650702 1 0.6666666666666666297 1 0.6904761904761904656 1 0.7023809523809523281 1 
	0.7142857142857141906 1 0.7321428571428569843 1 0.7410714285714283811 1 0.749999999999999889 1 0.7678571428571427937 1 
	0.7857142857142855874 1 0.7976190476190474499 1 0.8095238095238094234 1 0.8333333333333332593 1 0.8452380952380951218 1 
	0.8571428571428570953 1 0.875 1 0.8928571428571427937 1 0.9107142857142856984 1 0.9285714285714286031 1 
	0.9464285714285713969 1 0.9642857142857143016 1 0.9821428571428572063 1 0.9910714285714286031 1 0.9955357142857143016 1 
	0.9977678571428572063 1 0.9988839285714286031 1 0.9994419642857143016 1 0.9997209821428572063 1 1 3 
	0 3 1 3 
	-2468.202428100038105 4435.642878223367006 13999.99989054458638 
	-2468.202428100037196 4435.642878183291032 14002.3373850744938 
	-2468.202428099985354 4435.610091556141924 14007.01237373977165 
	-2468.202428099938061 4435.413409791080994 14016.3605136546721 
	-2468.20242809971478 4434.725059991419585 14032.71009640905504 
	-2468.202428098979908 4431.973775080833548 14065.33208804242531 
	-2468.202428096882613 4424.130857930197635 14111.49407866937327 
	-2468.202428095002688 4411.168120086033014 14156.4875158738505 
	-2468.20242809439651 4397.824856897248537 14191.44193390222426 
	-2468.202428093904928 4382.543460102533572 14225.59355352763487 
	-2468.202428092246009 4359.894250127053056 14266.57470480573102 
	-2468.202428091068214 4327.379541652372609 14312.39944914823536 
	-2468.202428089371551 4289.938909340561622 14354.2959807073421 
	-2468.20242808921148 4249.594189144020675 14390.34990803484288 
	-2468.202428087921817 4207.366009685158133 14420.70970647429567 
	-2468.202428087838143 4164.126569645954078 14445.6738929122148 
	-2468.202428087592125 4122.408902035307619 14464.49778222181521 
	-2468.202428087413864 4083.157777739954781 14478.23158245758896 
	-2468.20242808718649 4034.956986724692797 14491.14854352293332 
	-2468.202428086924101 3973.147718215539044 14500.46604721817857 
	-2468.202428086476175 3898.137961319488113 14500.46565156914949 
	-2468.202428086155578 3836.328610204820052 14491.14878660649993 
	-2468.202428086076452 3788.127735353875778 14478.23206055749688 
	-2468.202428085932752 3752.801773120120743 14465.87155330126734 
	-2468.202428085812699 3724.215718180454132 14453.39924646765394 
	-2468.202428085777228 3704.736674275412497 14443.56575473255907 
	-2468.202428085768588 3693.769198632560347 14437.63741460377605 
	-2468.202428085756765 3677.487114943091001 14428.43889520664015 
	-2468.202428085652627 3653.719925660370336 14413.50498004813926 
	-2468.202428085636257 3623.606939714908094 14391.28066780180234 
	-2468.202428085535757 3599.967037283290665 14370.93680292912541 
	-2468.20242808552166 3582.006880994067615 14353.63597727601154 
	-2468.202428085500287 3564.706044528225448 14335.67582196467265 
	-2468.20242808545072 3544.36223298813502 14312.03589928646397 
	-2468.20242808539524 3522.137798692611341 14281.92296696276026 
	-2468.202428085372958 3502.226059763947433 14250.23332520895383 
	-2468.202428085331121 3482.794651906182025 14213.4678945407195 
	-2468.202428085294287 3465.016823191776439 14171.29387632086582 
	-2468.202428085277916 3450.300245237755007 14123.58339671085196 
	-2468.202428085248357 3442.056034865258425 14082.80118690522795 
	-2468.202428085244264 3437.921249813367012 14049.80452553577015 
	-2468.202428085241536 3436.05729752970592 14024.93324473959728 
	-2468.202428085241991 3435.435581736534914 13999.99997073453051 
	-2468.202428085243355 3436.057231576940012 13975.06667308775286 
	-2468.202428085245174 3437.921405800102093 13950.19543645538215 
	-2468.202428085256997 3443.088967481533928 13908.94946284125399 
	-2468.202428085289739 3456.070485172904228 13852.07149590228437 
	-2468.202428085354768 3483.474792162865924 13782.24727186770542 
	-2468.202428085426618 3520.979177418067138 13717.28698249365516 
	-2468.20242808553121 3557.354347459906421 13671.67480592629909 
	-2468.202428085555312 3586.379638721546598 13641.9180723700465 
	-2468.202428085577139 3610.756674390321677 13619.29867150501377 
	-2468.202428085659449 3643.286685309069526 13593.35750786915196 
	-2468.202428085750853 3692.217537912265925 13561.75278843255364 
	-2468.202428085912743 3741.026142448516111 13538.24841758638104 
	-2468.202428086001419 3788.127924735756096 13521.76849733247946 
	-2468.202428086095551 3830.30357446574908 13510.46661252190097 
	-2468.202428086307918 3870.310633344020061 13503.66930162643621 
	-2468.202428086382497 3907.592893788269066 13500.52504108719222 
	-2468.202428086472992 3944.992797071952282 13499.47524003114631 
	-2468.202428086766758 3991.742607512891027 13502.10040872873287 
	-2468.202428087084627 4040.982044824543664 13510.46668410006532 
	-2468.202428087297903 4083.157710160746774 13521.76842551799928 
	-2468.202428087397948 4130.259358787694509 13538.24866204753562 
	-2468.202428087970475 4175.313590261802347 13559.94466418877346 
	-2468.202428088336546 4217.565553686056774 13586.49536588199408 
	-2468.20242808877174 4252.697762772272654 13612.42306372556595 
	-2468.20242808935609 4289.938940218004973 13645.7038383067902 
	-2468.20242809019328 4327.379771357829668 13687.60013103769415 
	-2468.202428090927242 4359.894184818559552 13733.42511074118011 
	-2468.202428092167793 4387.073691479317858 13782.60225287901085 
	-2468.202428094621155 4408.575825749672731 13834.51347346152943 
	-2468.202428096506083 4424.130843822618772 13888.50569871090556 
	-2468.202428098987639 4431.973813641820925 13934.66767939149759 
	-2468.202428099720692 4434.725061358171843 13967.28968433636874 
	-2468.202428099957615 4435.413412756511207 13983.63926677680865 
	-2468.202428100014913 4435.585506840719972 13991.81888975592483 
	-2468.202428100032193 4435.628535827516316 13995.90930380917598 
	-2468.202428100036741 4435.639292510470113 13997.95458642595986 
	-2468.20242810003765 4435.642365948599036 13999.12333008970927 
	-2468.202428100038105 4435.642878228376503 13999.70770372834886 
	-2468.202428100038105 4435.642878223367006 13999.99989054458638 
	-2301.53576143337159 4435.642878223366097 13999.99989054458638 
	-2301.535761433370681 4435.642878183290122 14002.3373850744938 
	-2301.535761433318839 4435.610091556141015 14007.01237373977165 
	-2301.535761433271546 4435.413409791080085 14016.3605136546721 
	-2301.535761433048265 4434.725059991418675 14032.71009640905504 
	-2301.535761432313393 4431.973775080832638 14065.33208804242531 
	-2301.535761430216098 4424.130857930196726 14111.49407866937327 
	-2301.535761428336173 4411.168120086032104 14156.4875158738505 
	-2301.535761427729994 4397.824856897247628 14191.44193390222426 
	-2301.535761427238413 4382.543460102532663 14225.59355352763487 
	-2301.535761425579494 4359.894250127052146 14266.57470480573102 
	-2301.535761424401699 4327.379541652371699 14312.39944914823536 
	-2301.535761422705036 4289.938909340560713 14354.2959807073421 
	-2301.535761422544965 4249.594189144019765 14390.34990803484288 
	-2301.535761421255302 4207.366009685157223 14420.70970647429567 
	-2301.535761421171628 4164.126569645954078 14445.6738929122148 
	-2301.53576142092561 4122.40890203530671 14464.49778222181521 
	-2301.535761420747349 4083.157777739954327 14478.23158245758896 
	-2301.535761420519975 4034.956986724692342 14491.14854352293332 
	-2301.535761420257586 3973.147718215538589 14500.46604721817857 
	-2301.535761419810115 3898.137961319487658 14500.46565156914949 
	-2301.535761419489063 3836.328610204819597 14491.14878660649993 
	-2301.535761419409937 3788.127735353875323 14478.23206055749688 
	-2301.535761419266237 3752.801773120120288 14465.87155330126734 
	-2301.535761419146183 3724.215718180453678 14453.39924646765394 
	-2301.535761419110713 3704.736674275412042 14443.56575473255907 
	-2301.535761419102073 3693.769198632559892 14437.63741460377605 
	-2301.53576141909025 3677.487114943090546 14428.43889520664015 
	-2301.535761418986567 3653.719925660369881 14413.50498004813926 
	-2301.535761418969287 3623.606939714907639 14391.28066780180234 
	-2301.535761418869697 3599.96703728329021 14370.93680292912541 
	-2301.53576141885469 3582.00688099406716 14353.63597727601154 
	-2301.535761418834227 3564.706044528224993 14335.67582196467265 
	-2301.53576141878375 3544.362232988134565 14312.03589928646397 
	-2301.53576141872918 3522.137798692610886 14281.92296696276026 
	-2301.535761418705988 3502.226059763946978 14250.23332520895383 
	-2301.535761418665061 3482.794651906181571 14213.4678945407195 
	-2301.535761418627771 3465.016823191775984 14171.29387632086582 
	-2301.535761418611401 3450.300245237754552 14123.58339671085196 
	-2301.535761418581842 3442.056034865257971 14082.80118690522795 
	-2301.535761418577749 3437.921249813366558 14049.80452553577015 
	-2301.535761418575021 3436.057297529705465 14024.93324473959728 
	-2301.535761418575476 3435.435581736534459 13999.99997073453051 
	-2301.53576141857684 3436.057231576939557 13975.06667308775286 
	-2301.535761418578659 3437.921405800101638 13950.19543645538215 
	-2301.535761418590027 3443.088967481533473 13908.94946284125399 
	-2301.535761418623679 3456.070485172903773 13852.07149590228437 
	-2301.535761418687798 3483.474792162865469 13782.24727186770542 
	-2301.535761418760558 3520.979177418066683 13717.28698249365516 
	-2301.53576141886424 3557.354347459905966 13671.67480592629909 
	-2301.535761418888796 3586.379638721546144 13641.9180723700465 
	-2301.53576141891017 3610.756674390321223 13619.29867150501377 
	-2301.535761418993388 3643.286685309069071 13593.35750786915196 
	-2301.535761419083883 3692.21753791226547 13561.75278843255364 
	-2301.535761419246228 3741.026142448515657 13538.24841758638104 
	-2301.535761419334904 3788.127924735755641 13521.76849733247946 
	-2301.535761419429036 3830.303574465748625 13510.46661252190097 
	-2301.535761419641403 3870.310633344019607 13503.66930162643621 
	-2301.535761419715982 3907.592893788268611 13500.52504108719222 
	-2301.535761419806477 3944.992797071951827 13499.47524003114631 
	-2301.535761420100698 3991.742607512890572 13502.10040872873287 
	-2301.535761420417657 4040.982044824543209 13510.46668410006532 
	-2301.535761420631843 4083.157710160746319 13521.76842551799928 
	-2301.535761420730978 4130.2593587876936 13538.24866204753562 
	-2301.535761421304414 4175.313590261802347 13559.94466418877346 
	-2301.535761421670031 4217.565553686055864 13586.49536588199408 
	-2301.535761422105224 4252.697762772271744 13612.42306372556595 
	-2301.535761422689575 4289.938940218004063 13645.7038383067902 
	-2301.535761423526765 4327.379771357828758 13687.60013103769415 
	-2301.535761424260727 4359.894184818558642 13733.42511074118011 
	-2301.535761425501278 4387.073691479316949 13782.60225287901085 
	-2301.53576142795464 4408.575825749671822 13834.51347346152943 
	-2301.535761429839567 4424.130843822618772 13888.50569871090556 
	-2301.535761432320669 4431.973813641820016 13934.66767939149759 
	-2301.535761433054176 4434.725061358170933 13967.28968433636874 
	-2301.5357614332911 4435.413412756510297 13983.63926677680865 
	-2301.535761433348398 4435.585506840719063 13991.81888975592483 
	-2301.535761433365678 4435.628535827515407 13995.90930380917598 
	-2301.535761433370226 4435.639292510469204 13997.95458642595986 
	-2301.535761433371135 4435.642365948598126 13999.12333008970927 
	-2301.53576143337159 4435.642878228375594 13999.70770372834886 
	-2301.53576143337159 4435.642878223366097 13999.99989054458638 
	-2134.869094763579142 4435.642878223364278 13999.99989054458638 
	-2134.869094763578232 4435.642878183288303 14002.3373850744938 
	-2134.86909476353685 4435.610091556138286 14007.01237373977165 
	-2134.869094763499561 4435.413409791077356 14016.3605136546721 
	-2134.8690947633213 4434.725059991416856 14032.71009640905504 
	-2134.869094762735131 4431.973775080830819 14065.33208804242531 
	-2134.869094761063025 4424.130857930195816 14111.49407866937327 
	-2134.869094759563268 4411.168120086031195 14156.4875158738505 
	-2134.869094759080326 4397.824856897245809 14191.44193390222426 
	-2134.869094758688334 4382.543460102532663 14225.59355352763487 
	-2134.869094757366383 4359.894250127051237 14266.57470480573102 
	-2134.869094756426421 4327.37954165237079 14312.39944914823536 
	-2134.869094755074002 4289.938909340559803 14354.2959807073421 
	-2134.869094754945763 4249.594189144018856 14390.34990803484288 
	-2134.86909475391758 4207.366009685157223 14420.70970647429567 
	-2134.869094753850732 4164.126569645953168 14445.6738929122148 
	-2134.869094753654736 4122.408902035307619 14464.49778222181521 
	-2134.869094753513309 4083.157777739953417 14478.23158245758896 
	-2134.86909475333141 4034.956986724691888 14491.14854352293332 
	-2134.869094753122681 3973.147718215537679 14500.46604721817857 
	-2134.869094752764795 3898.137961319487204 14500.46565156914949 
	-2134.869094752509682 3836.328610204818688 14491.14878660649993 
	-2134.869094752446472 3788.127735353874414 14478.23206055749688 
	-2134.869094752331875 3752.801773120119378 14465.87155330126734 
	-2134.869094752236379 3724.215718180453223 14453.39924646765394 
	-2134.869094752208184 3704.736674275411588 14443.56575473255907 
	-2134.869094752200908 3693.769198632558982 14437.63741460377605 
	-2134.869094752191813 3677.487114943089637 14428.43889520664015 
	-2134.869094752109049 3653.719925660368972 14413.50498004813926 
	-2134.869094752096316 3623.606939714906275 14391.28066780180234 
	-2134.869094752015371 3599.967037283288846 14370.93680292912541 
	-2134.869094752004912 3582.006880994065796 14353.63597727601154 
	-2134.869094751987632 3564.706044528223629 14335.67582196467265 
	-2134.869094751948523 3544.362232988132746 14312.03589928646397 
	-2134.869094751903503 3522.137798692609977 14281.92296696276026 
	-2134.869094751886223 3502.226059763945159 14250.23332520895383 
	-2134.869094751852117 3482.794651906180206 14213.4678945407195 
	-2134.869094751823013 3465.01682319177462 14171.29387632086582 
	-2134.869094751809826 3450.300245237753188 14123.58339671085196 
	-2134.869094751786179 3442.056034865257061 14082.80118690522795 
	-2134.869094751782995 3437.921249813366103 14049.80452553577015 
	-2134.869094751780722 3436.057297529705011 14024.93324473959728 
	-2134.869094751780722 3435.435581736534004 13999.99997073453051 
	-2134.869094751782086 3436.057231576938648 13975.06667308775286 
	-2134.869094751783905 3437.921405800100729 13950.19543645538215 
	-2134.869094751793909 3443.088967481532563 13908.94946284125399 
	-2134.869094751819375 3456.070485172903773 13852.07149590228437 
	-2134.869094751872126 3483.474792162865469 13782.24727186770542 
	-2134.869094751928515 3520.979177418066229 13717.28698249365516 
	-2134.869094752012643 3557.354347459905057 13671.67480592629909 
	-2134.869094752031287 3586.379638721545234 13641.9180723700465 
	-2134.869094752049023 3610.756674390320313 13619.29867150501377 
	-2134.869094752114052 3643.286685309067707 13593.35750786915196 
	-2134.869094752187266 3692.217537912264106 13561.75278843255364 
	-2134.869094752315505 3741.026142448513838 13538.24841758638104 
	-2134.869094752386445 3788.127924735753822 13521.76849733247946 
	-2134.869094752461478 3830.303574465747261 13510.46661252190097 
	-2134.869094752630645 3870.310633344017788 13503.66930162643621 
	-2134.869094752690216 3907.592893788266338 13500.52504108719222 
	-2134.869094752762976 3944.992797071950463 13499.47524003114631 
	-2134.869094752996716 3991.742607512889208 13502.10040872873287 
	-2134.869094753250465 4040.982044824542754 13510.46668410006532 
	-2134.869094753419631 4083.157710160746319 13521.76842551799928 
	-2134.869094753500121 4130.259358787694509 13538.24866204753562 
	-2134.869094753955778 4175.313590261801437 13559.94466418877346 
	-2134.869094754248181 4217.565553686056774 13586.49536588199408 
	-2134.869094754594244 4252.697762772271744 13612.42306372556595 
	-2134.869094755060814 4289.938940218004063 13645.7038383067902 
	-2134.869094755728383 4327.379771357828758 13687.60013103769415 
	-2134.869094756314098 4359.894184818557733 13733.42511074118011 
	-2134.869094757303174 4387.073691479316039 13782.60225287901085 
	-2134.869094759259042 4408.575825749670912 13834.51347346152943 
	-2134.869094760762437 4424.130843822616043 13888.50569871090556 
	-2134.869094762741952 4431.973813641820016 13934.66767939149759 
	-2134.869094763325847 4434.725061358169114 13967.28968433636874 
	-2134.869094763514568 4435.413412756510297 13983.63926677680865 
	-2134.869094763560497 4435.585506840718153 13991.81888975592483 
	-2134.869094763573685 4435.628535827515407 13995.90930380917598 
	-2134.869094763577323 4435.639292510468294 13997.95458642595986 
	-2134.869094763579142 4435.642365948595398 13999.12333008970927 
	-2134.869094763579142 4435.642878228374684 13999.70770372834886 
	-2134.869094763579142 4435.642878223364278 13999.99989054458638 
	-1968.202428096912627 4435.642878223364278 13999.99989054458638 
	-1968.202428096911717 4435.642878183288303 14002.3373850744938 
	-1968.202428096870563 4435.610091556138286 14007.01237373977165 
	-1968.202428096833273 4435.413409791077356 14016.3605136546721 
	-1968.202428096654785 4434.725059991416856 14032.71009640905504 
	-1968.202428096068616 4431.973775080830819 14065.33208804242531 
	-1968.20242809439651 4424.130857930195816 14111.49407866937327 
	-1968.20242809289698 4411.168120086030285 14156.4875158738505 
	-1968.202428092414038 4397.824856897245809 14191.44193390222426 
	-1968.202428092021592 4382.543460102531753 14225.59355352763487 
	-1968.202428090699868 4359.894250127051237 14266.57470480573102 
	-1968.202428089759906 4327.37954165237079 14312.39944914823536 
	-1968.20242808840726 4289.938909340559803 14354.2959807073421 
	-1968.202428088279476 4249.594189144018856 14390.34990803484288 
	-1968.202428087251064 4207.366009685156314 14420.70970647429567 
	-1968.202428087184444 4164.126569645953168 14445.6738929122148 
	-1968.202428086988448 4122.40890203530671 14464.49778222181521 
	-1968.202428086846567 4083.157777739952962 14478.23158245758896 
	-1968.202428086665122 4034.956986724691433 14491.14854352293332 
	-1968.202428086456166 3973.147718215537225 14500.46604721817857 
	-1968.202428086098735 3898.137961319486749 14500.46565156914949 
	-1968.202428085843167 3836.328610204818233 14491.14878660649993 
	-1968.202428085779957 3788.127735353873959 14478.23206055749688 
	-1968.202428085665588 3752.801773120118924 14465.87155330126734 
	-1968.202428085569863 3724.215718180452768 14453.39924646765394 
	-1968.202428085541669 3704.736674275411133 14443.56575473255907 
	-1968.202428085534621 3693.769198632558528 14437.63741460377605 
	-1968.202428085525071 3677.487114943089182 14428.43889520664015 
	-1968.202428085442762 3653.719925660368517 14413.50498004813926 
	-1968.202428085429574 3623.60693971490582 14391.28066780180234 
	-1968.202428085349311 3599.967037283288391 14370.93680292912541 
	-1968.20242808533817 3582.006880994065341 14353.63597727601154 
	-1968.202428085321344 3564.706044528223174 14335.67582196467265 
	-1968.202428085281554 3544.362232988132291 14312.03589928646397 
	-1968.202428085237443 3522.137798692609522 14281.92296696276026 
	-1968.202428085219708 3502.226059763944704 14250.23332520895383 
	-1968.202428085186057 3482.794651906179752 14213.4678945407195 
	-1968.202428085156498 3465.016823191774165 14171.29387632086582 
	-1968.20242808514331 3450.300245237752733 14123.58339671085196 
	-1968.202428085119891 3442.056034865256606 14082.80118690522795 
	-1968.20242808511648 3437.921249813365648 14049.80452553577015 
	-1968.202428085114434 3436.057297529704556 14024.93324473959728 
	-1968.202428085114434 3435.43558173653355 13999.99997073453051 
	-1968.202428085115571 3436.057231576938193 13975.06667308775286 
	-1968.202428085117617 3437.921405800100274 13950.19543645538215 
	-1968.20242808512694 3443.088967481532109 13908.94946284125399 
	-1968.202428085153088 3456.070485172903318 13852.07149590228437 
	-1968.202428085205383 3483.474792162865015 13782.24727186770542 
	-1968.202428085262227 3520.979177418065774 13717.28698249365516 
	-1968.202428085345673 3557.354347459904602 13671.67480592629909 
	-1968.202428085365 3586.379638721544779 13641.9180723700465 
	-1968.202428085382053 3610.756674390319859 13619.29867150501377 
	-1968.202428085447764 3643.286685309067252 13593.35750786915196 
	-1968.202428085520523 3692.217537912263651 13561.75278843255364 
	-1968.20242808564899 3741.026142448513383 13538.24841758638104 
	-1968.202428085719703 3788.127924735753368 13521.76849733247946 
	-1968.202428085794963 3830.303574465746806 13510.46661252190097 
	-1968.202428085964129 3870.310633344017333 13503.66930162643621 
	-1968.202428086023929 3907.592893788265883 13500.52504108719222 
	-1968.202428086096234 3944.992797071950008 13499.47524003114631 
	-1968.202428086330428 3991.742607512888753 13502.10040872873287 
	-1968.202428086583723 4040.982044824542299 13510.46668410006532 
	-1968.202428086753571 4083.157710160745864 13521.76842551799928 
	-1968.202428086833379 4130.259358787694509 13538.24866204753562 
	-1968.202428087289491 4175.313590261801437 13559.94466418877346 
	-1968.202428087581666 4217.565553686056774 13586.49536588199408 
	-1968.202428087927728 4252.697762772271744 13612.42306372556595 
	-1968.202428088394299 4289.938940218004063 13645.7038383067902 
	-1968.202428089061641 4327.379771357828758 13687.60013103769415 
	-1968.202428089647583 4359.894184818557733 13733.42511074118011 
	-1968.202428090636431 4387.073691479316039 13782.60225287901085 
	-1968.202428092592527 4408.575825749670912 13834.51347346152943 
	-1968.202428094095922 4424.130843822616043 13888.50569871090556 
	-1968.202428096074982 4431.973813641820016 13934.66767939149759 
	-1968.202428096659787 4434.725061358169114 13967.28968433636874 
	-1968.202428096848053 4435.413412756510297 13983.63926677680865 
	-1968.202428096894209 4435.585506840718153 13991.81888975592483 
	-1968.20242809690717 4435.628535827515407 13995.90930380917598 
	-1968.202428096911035 4435.639292510468294 13997.95458642595986 
	-1968.202428096912399 4435.642365948595398 13999.12333008970927 
	-1968.202428096912627 4435.642878228374684 13999.70770372834886 
	-1968.202428096912627 4435.642878223364278 13999.99989054458638 
	0 
	
	0 
	0 
	79 0 0.002232142857142857019 0.004464285714285714038 0.008928571428571428076 0.01785714285714285615 0.0357142857142857123 0.05357142857142856845 0.0625 0.07142857142857142461 0.08928571428571427382 0.1071428571428571369 0.125 0.1428571428571428492 0.1587301587301587213 0.1746031746031745935 0.1904761904761904656 0.2023809523809523836 0.2142857142857142738 0.238095238095238082 0.2619047619047618625 0.2857142857142856984 0.2976190476190476164 0.3095238095238095344 0.3214285714285713969 0.3273809523809523281 0.3303571428571427937 0.3333333333333333148 0.3452380952380952328 0.3571428571428570953 0.3690476190476190133 0.375 0.3809523809523809312 0.3928571428571428492 0.4047619047619047672 0.4166666666666666297 0.4285714285714285476 0.4444444444444444198 0.4603174603174602919 0.476190476190476164 0.4841269841269840724 0.4920634920634920362 0.5 0.5079365079365079083 0.5158730158730158166 0.5238095238095237249 0.5476190476190475609 0.5714285714285713969 0.5952380952380951218 0.6190476190476189577 0.6269841269841269771 0.6349206349206348854 0.650793650793650702 0.6666666666666666297 0.6904761904761904656 0.7023809523809523281 0.7142857142857141906 0.7321428571428569843 0.7410714285714283811 0.749999999999999889 0.7678571428571427937 0.7857142857142855874 0.7976190476190474499 0.8095238095238094234 0.8333333333333332593 0.8452380952380951218 0.8571428571428570953 0.875 0.8928571428571427937 0.9107142857142856984 0.9285714285714286031 0.9464285714285713969 0.9642857142857143016 0.9821428571428572063 0.9910714285714286031 0.9955357142857143016 0.9977678571428572063 0.9988839285714286031 0.9994419642857143016 0.9997209821428572063 
	0 
	0 
	0 
	F 1 F 0 F 1 F 0 } I I I I #
tcoedge-coedge $-1 -1 $-1 $14 $14 $18 $19 reversed $9 $20 -6.283185307179586232 -0 #
tcoedge-coedge $-1 -1 $-1 $21 $22 $11 $16 reversed $12 $23 -6.283185307179586232 -0 #
tedge-edge $-1 -1 $-1 $24 0 $24 6.283185307179586232 $15 $25 forward @7 unknown 0.0007681891179045615076 #
pcurve $-1 -1 $-1 0 forward { exppc nurbs 2 periodic 5 
	0 2 1.570796326794896558 2 3.141592653589793116 2 4.712388980384689674 2 6.283185307179586232 2 
	0 500 1 
	-500 500 0.707106781186543798 
	-500 0 1 
	-500 -500 0.7071067811865463515 
	0 -500 1 
	500 -500 0.7071067811865463515 
	500 0 1 
	500 500 0.707106781186543798 
	0 500 1 
	0 
	plane -1968.202428084613075 3935.64279798982534 14000.00000000000182 1 -3.637978807091713027e-15 0 0 0 -1 forward_v I I I I 
	} 0 0 #
tcoedge-coedge $-1 -1 $-1 $22 $21 $14 $19 forward $12 $26 0 6.283185307179586232 #
tedge-edge $-1 -1 $-1 $27 0 $27 6.283185307179586232 $18 $28 forward @7 unknown 0.0007681891182938728121 #
pcurve $-1 -1 $-1 0 forward { exppc nurbs 2 periodic 5 
	-6.283185307179586232 2 -4.712388980384689674 2 -3.141592653589793116 2 -1.570796326794896558 2 0 2 
	0 500 1 
	500 500 0.707106781186543798 
	500 0 1 
	500 -500 0.7071067811865463515 
	0 -500 1 
	-500 -500 0.7071067811865463515 
	-500 0 1 
	-500 500 0.707106781186543798 
	0 500 1 
	0 
	plane -2468.202428084613075 3935.642797989827159 14000.00000000000182 -1 3.637978807091713027e-15 -0 0 0 -1 reverse_v I I I I 
	} 0 0 #
coedge $-1 -1 $-1 $18 $15 $22 $29 reversed $12 $30 #
coedge $-1 -1 $-1 $15 $18 $21 $29 forward $12 $31 #
pcurve $-1 -1 $-1 0 forward { exppc nubs 1 periodic 2 
	-6.283185307179586232 1 -0 1 
	1 1 
	0 1 
	0 
	spline forward { ref 0 } I I I I 
	} 0 0 #
tvertex-vertex $-1 -1 $-1 $16 $32 0.0001357126066560307941 #
ellipse-curve $-1 -1 $-1 -1968.202428084613075 3935.64279798982534 14000.00000000000182 1 -3.637978807091713027e-15 0 1.818989403545856476e-12 500 0 1 I I #
pcurve $-1 -1 $-1 0 forward { exppc nubs 1 periodic 2 
	0 1 6.283185307179586232 1 
	0 0 
	1 0 
	4.411402399551012014e-13 
	spline forward { ref 0 } I I I I 
	} 0 0 #
tvertex-vertex $-1 -1 $-1 $19 $33 0.0001357126075130179641 #
ellipse-curve $-1 -1 $-1 -2468.202428084613075 3935.642797989827159 14000.00000000000182 1 -3.637978807091713027e-15 0 1.818989403545856476e-12 500 0 1 I I #
edge $-1 -1 $-1 $27 3.085369817864458549e-11 $24 1 $22 $34 forward @7 tangent #
pcurve $-1 -1 $-1 -1 $34 0 0 #
pcurve $-1 -1 $-1 1 $34 1 0 #
point $-1 -1 $-1 -1968.202428084611256 4435.64279798982534 14000.00000000000182 #
point $-1 -1 $-1 -2468.202428084611256 4435.642797989827159 14000.00000000000182 #
intcurve-curve $-1 -1 $-1 forward { parcur full nubs 3 open 2 
	0 3 1 3 
	-2468.202428100038105 4435.642878223367006 13999.99989054458638 
	-2301.53576143337159 4435.642878223366097 13999.99989054458638 
	-2134.869094763579142 4435.642878223364278 13999.99989054458638 
	-1968.202428096912627 4435.642878223364278 13999.99989054458638 
	0 
	
	spline forward { ref 0 } I I I I 
	null_surface 
	nubs 1 open 2 
	0 1 1 1 
	0 0 
	0 1 
	
	nullbs 
	I I 
	0 
	0 
	0 
	surf1 } F 3.085369817864458549e-11 F 1 #
End-of-ACIS-data 