700 0 1 0           
4 LibG 20 ASM 224.0.1.65535 NT 24 Wed Jul 17 12:52:12 2019 
1000 9.999999999999999547e-07 1.000000000000000036e-10 
body $-1 -1 $-1 $1 $-1 $2 #
lump $-1 -1 $-1 $-1 $3 $0 #
transform $-1 -1 1 0 0 0 1 0 0 0 1 0 0 0 1 no_rotate no_reflect no_shear #
shell $-1 -1 $-1 $-1 $-1 $4 $-1 $1 #
face $-1 -1 $-1 $5 $6 $3 $-1 $7 forward single #
face $-1 -1 $-1 $8 $9 $3 $-1 $10 reversed single #
loop $-1 -1 $-1 $-1 $11 $4 #
plane-surface $-1 -1 $-1 4281.79757191538738 3935.642797989802602 14000.00000000000182 1 -3.637978807091713027e-15 0 0 0 -1 forward_v I I I I #
face $-1 -1 $-1 $-1 $12 $3 $-1 $13 forward single #
loop $-1 -1 $-1 $-1 $14 $5 #
plane-surface $-1 -1 $-1 4031.797571915386925 3935.642797989803512 14000.00000000000182 1 -3.637978807091706717e-15 0 0 0 -1 forward_v I I I I #
tcoedge-coedge $-1 -1 $-1 $11 $11 $15 $16 forward $6 $17 0 6.283185307179586232 #
loop $-1 -1 $-1 $-1 $18 $8 #
spline-surface $-1 -1 $-1 forward { exactsur full nubs 3 3 periodic open none none 92 2 
	0 3 0.001116071428571428509 1 0.002232142857142857019 1 0.004464285714285714038 1 0.008928571428571428076 1 
	0.01785714285714285615 1 0.0357142857142857123 1 0.05357142857142856845 1 0.07142857142857142461 1 0.08928571428571427382 1 
	0.1071428571428571369 1 0.1160714285714285754 1 0.125 1 0.1428571428571428492 1 0.1587301587301587213 1 
	0.1746031746031745935 1 0.1904761904761904656 1 0.2023809523809523836 1 0.2142857142857142738 1 0.238095238095238082 1 
	0.2619047619047618625 1 0.2738095238095237804 1 0.2857142857142856984 1 0.2976190476190476164 1 0.3095238095238095344 1 
	0.3154761904761904656 1 0.3214285714285713969 1 0.3333333333333333148 1 0.3452380952380952328 1 0.3571428571428570953 1 
	0.3690476190476190133 1 0.375 1 0.3809523809523809312 1 0.3869047619047618625 1 0.3928571428571428492 1 
	0.4047619047619047672 1 0.4166666666666666297 1 0.4285714285714285476 1 0.4444444444444444198 1 0.4603174603174602919 1 
	0.476190476190476164 1 0.4781746031746031411 1 0.4791666666666666297 1 0.4801587301587301182 1 0.4821428571428570953 1 
	0.4841269841269840724 1 0.4880952380952380265 1 0.4900793650793650036 1 0.4910714285714284921 1 0.4915674603174602364 1 
	0.4920634920634920362 1 0.5158730158730158166 1 0.5238095238095237249 1 0.5357142857142855874 1 0.5476190476190475609 1 
	0.5595238095238095344 1 0.5714285714285713969 1 0.5952380952380951218 1 0.6190476190476189577 1 0.6349206349206348854 1 
	0.650793650793650702 1 0.6666666666666666297 1 0.6785714285714286031 1 0.6904761904761904656 1 0.7023809523809523281 1 
	0.7142857142857141906 1 0.7321428571428569843 1 0.749999999999999889 1 0.7678571428571427937 1 0.7857142857142855874 1 
	0.7976190476190474499 1 0.8095238095238094234 1 0.8154761904761904656 1 0.8333333333333332593 1 0.8452380952380951218 1 
	0.8571428571428570953 1 0.875 1 0.8928571428571427937 1 0.9107142857142856984 1 0.9285714285714286031 1 
	0.9464285714285713969 1 0.9642857142857143016 1 0.9732142857142858094 1 0.9821428571428572063 1 0.9910714285714286031 1 
	0.9955357142857143016 1 0.9977678571428572063 1 0.9988839285714286031 1 0.9994419642857143016 1 0.9997209821428572063 1 
	0.9998604910714286031 1 1 3 
	0 3 1 3 
	4031.797572114324794 4435.642858975317722 13999.99991860447517 
	4031.797572114319792 4435.642858969231384 14001.16866586919787 
	4031.797572114152445 4435.634663569901932 14003.5061604575094 
	4031.797572113990554 4435.585487509242739 14008.18091933013238 
	4031.797572113282513 4435.413392827546886 14016.36054218313438 
	4031.797572110636338 4434.725037341990173 14032.71012261772012 
	4031.797572102156209 4431.97378482775548 14065.33212603528409 
	4031.797572074859545 4424.13075278447559 14111.49406957263272 
	4031.797572052895248 4408.575750332240204 14165.48630393610802 
	4031.797572028661307 4387.073459023543364 14217.39742157114779 
	4031.797572010334079 4359.894178773093699 14266.57470130133515 
	4031.797571990615779 4332.798633454917763 14304.76202690485115 
	4031.797571985881859 4308.659353779221419 14333.34783924140356 
	4031.797571979209806 4282.956079908959509 14360.53604012964206 
	4031.797571975758729 4249.594189697912043 14390.34992382431665 
	4031.797571960915775 4207.365968675226213 14420.70969511624389 
	4031.79757195920638 4164.126534654969873 14445.67389178578378 
	4031.797571957128184 4122.408875329662806 14464.49778090999644 
	4031.797571951859027 4083.157676930649814 14478.23143734512632 
	4031.797571947621691 4034.9569960080903 14491.14854519485743 
	4031.797571945324762 3973.14758568462139 14500.46637219391778 
	4031.797571938534929 3910.639692617862238 14500.46485611958269 
	4031.797571937815064 3861.052120452005965 14494.87662708030621 
	4031.797571935128417 3824.278456059244945 14487.91907533934318 
	4031.797571933439485 3788.127641563943143 14478.23228964229747 
	4031.797571931439961 3758.689424735814555 14467.93144256043524 
	4031.79757193092928 3735.650086529239616 14458.38811181232995 
	4031.797571930404501 3712.983617705309825 14447.99017842158901 
	4031.797571928858815 3685.409439602929524 14433.4168340886954 
	4031.797571927375884 3653.719876576254592 14413.50491240564224 
	4031.797571926788351 3623.606873989898759 14391.28061754306691 
	4031.797571925214015 3599.966978998608283 14370.93673778227276 
	4031.79757192493571 3582.006805701139911 14353.63592542061997 
	4031.797571924623298 3569.031208110982334 14340.16578183635829 
	4031.79757192433317 3556.568396785797631 14326.21984153810263 
	4031.797571924228578 3540.658129097525944 14307.01700043018354 
	4031.797571923757005 3522.137735741298457 14281.92293006463842 
	4031.797571923499618 3502.225960746708552 14250.23329783956797 
	4031.797571923210853 3482.794631364258748 14213.46784708400992 
	4031.797571922742463 3465.016573154768594 14171.29392042979634 
	4031.797571922385941 3450.300152446990523 14123.58338097722481 
	4031.797571921853887 3443.292367298960016 14088.91855028955979 
	4031.797571921796589 3440.472177256005125 14069.38182115757627 
	4031.797571921797498 3439.916924245227165 14065.26351793662434 
	4031.797571921795679 3439.387358629192931 14061.14183250510177 
	4031.797571921797044 3438.773588531138103 14055.98368694352575 
	4031.797571921795225 3437.894522799927472 14047.71905306920416 
	4031.797571921802955 3437.17009455157131 14039.4389433044289 
	4031.797571921805684 3436.671854605810495 14032.18368506860315 
	4031.797571921807503 3436.456650788222305 14028.55393777388235 
	4031.797571921807048 3436.34339723021094 14026.47925246452905 
	4031.797571921834333 3435.007853779064135 14000.54137863505821 
	4031.797571921950293 3435.853183425261705 13966.69374043241623 
	4031.797571922054885 3441.539740193732541 13921.32339930108537 
	4031.797571922265433 3447.724161810594524 13888.6357459382798 
	4031.797571922546467 3457.410799122398657 13852.48487192385255 
	4031.797571922804309 3469.772060242491989 13817.15915905571819 
	4031.797571923474152 3489.72627718213198 13771.42092257875811 
	4031.797571925166721 3520.978940325170242 13717.28687143059324 
	4031.797571926398177 3562.551207921499099 13665.15910929972233 
	4031.797571929133028 3604.251207363248795 13624.4875467800739 
	4031.797571929610967 3643.286782026161745 13593.35743235955124 
	4031.797571930407685 3681.733091424020131 13568.52637800116281 
	4031.797571932575011 3718.498712373389935 13549.09548930373057 
	4031.797571933491326 3752.801951541702238 13534.1288926860525 
	4031.797571935856013 3788.127851135176115 13521.76808674260428 
	4031.797571938584497 3830.303665202789489 13510.46656452503157 
	4031.797571940111084 3879.543013225060804 13502.10019834465675 
	4031.79757194666081 3935.642834874894106 13498.95014505329709 
	4031.797571953957231 3991.742685005407566 13502.10020189436182 
	4031.797571956087268 4040.982000954009891 13510.46662793786163 
	4031.797571960715686 4083.157878402524602 13521.76804715473008 
	4031.797571962944858 4112.596053463304997 13532.06887756209653 
	4031.797571964739291 4147.155252834368184 13546.38343900266955 
	4031.797571970224453 4180.59470940994288 13563.26420579225851 
	4031.797571973462254 4217.56558677555131 13586.49524128473058 
	4031.797571976937888 4252.697623463562195 13612.42326040241278 
	4031.797571985788181 4289.938951941503547 13645.70381872797407 
	4031.797571993651673 4327.379611948201273 13687.60027703125706 
	4031.797572007681993 4359.894362485521924 13733.42501726152477 
	4031.797572035342 4387.073483410385961 13782.60237129528286 
	4031.797572056398167 4408.575944526799503 13834.51347656268081 
	4031.797572084952208 4421.538052608159887 13879.5070775416043 
	4031.79757209361469 4428.836933606488856 13916.20287883330093 
	4031.797572101674177 4432.759705663984278 13943.98829647029379 
	4031.797572110392139 4434.725083767882097 13967.28970855420084 
	4031.797572113198385 4435.413385548174119 13983.63929562895464 
	4031.797572114034665 4435.585489025910647 13991.81891768653804 
	4031.797572114243849 4435.628516342049807 13995.90933189886346 
	4031.797572114302056 4435.639273322098234 13997.95461448366586 
	4031.797572114317973 4435.641962561792752 13998.97726519562275 
	4031.797572114324339 4435.642730924675561 13999.56163838112479 
	4031.797572114325249 4435.64285897607806 13999.8538251963837 
	4031.797572114324794 4435.642858975317722 13999.99991860447517 
	4115.130905447658733 4435.642858975316813 13999.99991860447517 
	4115.130905447653276 4435.642858969230474 14001.16866586919787 
	4115.130905447485929 4435.634663569901022 14003.5061604575094 
	4115.130905447324039 4435.58548750924183 14008.18091933013238 
	4115.130905446615543 4435.413392827545977 14016.36054218313438 
	4115.130905443969823 4434.725037341989264 14032.71012261772012 
	4115.130905435489694 4431.973784827754571 14065.33212603528409 
	4115.13090540819303 4424.13075278447468 14111.49406957263272 
	4115.130905386228733 4408.575750332239295 14165.48630393610802 
	4115.130905361995246 4387.073459023542455 14217.39742157114779 
	4115.130905343667109 4359.89417877309279 14266.57470130133515 
	4115.130905323949264 4332.798633454916853 14304.76202690485115 
	4115.130905319215344 4308.65935377922051 14333.34783924140356 
	4115.130905312543291 4282.9560799089586 14360.53604012964206 
	4115.130905309091759 4249.594189697911133 14390.34992382431665 
	4115.130905294249715 4207.365968675225304 14420.70969511624389 
	4115.130905292539865 4164.126534654968964 14445.67389178578378 
	4115.130905290461669 4122.408875329661896 14464.49778090999644 
	4115.130905285192057 4083.157676930649359 14478.23143734512632 
	4115.130905280955631 4034.956996008089845 14491.14854519485743 
	4115.130905278658247 3973.147585684620935 14500.46637219391778 
	4115.13090527186796 3910.639692617861783 14500.46485611958269 
	4115.130905271148549 3861.052120452005511 14494.87662708030621 
	4115.130905268461902 3824.27845605924449 14487.91907533934318 
	4115.13090526677297 3788.127641563942689 14478.23228964229747 
	4115.130905264773901 3758.6894247358141 14467.93144256043524 
	4115.130905264262765 3735.650086529239161 14458.38811181232995 
	4115.130905263737986 3712.983617705309371 14447.99017842158901 
	4115.130905262191845 3685.409439602929069 14433.4168340886954 
	4115.130905260709369 3653.719876576254137 14413.50491240564224 
	4115.130905260121835 3623.606873989898304 14391.28061754306691 
	4115.1309052585475 3599.966978998607829 14370.93673778227276 
	4115.130905258269195 3582.006805701139456 14353.63592542061997 
	4115.130905257957238 3569.031208110981879 14340.16578183635829 
	4115.1309052576662 3556.568396785797177 14326.21984153810263 
	4115.130905257561608 3540.658129097525489 14307.01700043018354 
	4115.13090525709049 3522.137735741298002 14281.92293006463842 
	4115.130905256833103 3502.225960746708097 14250.23329783956797 
	4115.130905256543883 3482.794631364258294 14213.46784708400992 
	4115.130905256076403 3465.016573154768139 14171.29392042979634 
	4115.130905255718972 3450.300152446990069 14123.58338097722481 
	4115.130905255187827 3443.292367298959562 14088.91855028955979 
	4115.130905255130529 3440.47217725600467 14069.38182115757627 
	4115.130905255130529 3439.91692424522671 14065.26351793662434 
	4115.13090525512871 3439.387358629192477 14061.14183250510177 
	4115.130905255130529 3438.773588531137648 14055.98368694352575 
	4115.13090525512871 3437.894522799927017 14047.71905306920416 
	4115.130905255136895 3437.170094551570855 14039.4389433044289 
	4115.130905255139623 3436.67185460581004 14032.18368506860315 
	4115.130905255140533 3436.45665078822185 14028.55393777388235 
	4115.130905255140533 3436.343397230210485 14026.47925246452905 
	4115.130905255167818 3435.00785377906368 14000.54137863505821 
	4115.130905255283324 3435.85318342526125 13966.69374043241623 
	4115.130905255388825 3441.539740193732086 13921.32339930108537 
	4115.130905255598918 3447.724161810594069 13888.6357459382798 
	4115.130905255879952 3457.410799122398203 13852.48487192385255 
	4115.130905256137339 3469.772060242491534 13817.15915905571819 
	4115.130905256807637 3489.726277182131525 13771.42092257875811 
	4115.130905258500206 3520.978940325169788 13717.28687143059324 
	4115.130905259731662 3562.551207921498644 13665.15910929972233 
	4115.130905262466513 3604.251207363248341 13624.4875467800739 
	4115.130905262944907 3643.286782026161291 13593.35743235955124 
	4115.130905263740715 3681.733091424019676 13568.52637800116281 
	4115.13090526590895 3718.49871237338948 13549.09548930373057 
	4115.130905266824811 3752.801951541701783 13534.1288926860525 
	4115.130905269189498 3788.127851135175661 13521.76808674260428 
	4115.130905271917982 3830.303665202789034 13510.46656452503157 
	4115.130905273445023 3879.543013225060349 13502.10019834465675 
	4115.130905279994295 3935.642834874893651 13498.95014505329709 
	4115.130905287291171 3991.742685005407111 13502.10020189436182 
	4115.130905289421207 4040.982000954009436 13510.46662793786163 
	4115.130905294048716 4083.157878402524148 13521.76804715473008 
	4115.130905296278797 4112.596053463304088 13532.06887756209653 
	4115.130905298072321 4147.155252834367275 13546.38343900266955 
	4115.130905303558393 4180.59470940994197 13563.26420579225851 
	4115.130905306795285 4217.5655867755504 13586.49524128473058 
	4115.130905310271373 4252.697623463561285 13612.42326040241278 
	4115.130905319121666 4289.938951941502637 13645.70381872797407 
	4115.130905326985157 4327.379611948200363 13687.60027703125706 
	4115.130905341015023 4359.894362485521015 13733.42501726152477 
	4115.130905368675485 4387.073483410385052 13782.60237129528286 
	4115.130905389732106 4408.575944526798594 13834.51347656268081 
	4115.130905418285693 4421.538052608158978 13879.5070775416043 
	4115.13090542694863 4428.836933606487946 13916.20287883330093 
	4115.130905435007662 4432.759705663983368 13943.98829647029379 
	4115.130905443726078 4434.725083767881188 13967.28970855420084 
	4115.13090544653187 4435.41338554817321 13983.63929562895464 
	4115.130905447367695 4435.585489025909737 13991.81891768653804 
	4115.130905447577788 4435.628516342048897 13995.90933189886346 
	4115.130905447635087 4435.639273322097324 13997.95461448366586 
	4115.130905447651458 4435.641962561791843 13998.97726519562275 
	4115.130905447657824 4435.642730924674652 13999.56163838112479 
	4115.130905447658733 4435.64285897607715 13999.8538251963837 
	4115.130905447658733 4435.642858975316813 13999.99991860447517 
	4198.464238793329059 4435.642858975315903 13999.99991860447517 
	4198.464238793323602 4435.642858969229565 14001.16866586919787 
	4198.464238793144432 4435.634663569900113 14003.5061604575094 
	4198.464238792972537 4435.58548750924092 14008.18091933013238 
	4198.464238792221295 4435.413392827545977 14016.36054218313438 
	4198.464238789410047 4434.725037341987445 14032.71012261772012 
	4198.46423878040423 4431.973784827754571 14065.33212603528409 
	4198.464238751414996 4424.130752784472861 14111.49406957263272 
	4198.464238728087366 4408.575750332237476 14165.48630393610802 
	4198.464238702351395 4387.073459023540636 14217.39742157114779 
	4198.464238682887299 4359.894178773090971 14266.57470130133515 
	4198.464238661946183 4332.798633454914125 14304.76202690485115 
	4198.464238656918496 4308.659353779218691 14333.34783924140356 
	4198.464238649833533 4282.95607990895769 14360.53604012964206 
	4198.464238646169179 4249.594189697909314 14390.34992382431665 
	4198.464238630405816 4207.365968675223485 14420.70969511624389 
	4198.464238628590465 4164.126534654967145 14445.67389178578378 
	4198.464238626383121 4122.408875329660077 14464.49778090999644 
	4198.464238620786091 4083.157676930648449 14478.23143734512632 
	4198.464238616285911 4034.956996008088481 14491.14854519485743 
	4198.464238613845737 3973.147585684619571 14500.46637219391778 
	4198.464238606635263 3910.639692617860419 14500.46485611958269 
	4198.464238605871287 3861.052120452004601 14494.87662708030621 
	4198.464238603018202 3824.278456059243581 14487.91907533934318 
	4198.464238601224679 3788.127641563941324 14478.23228964229747 
	4198.464238599101009 3758.689424735812736 14467.93144256043524 
	4198.46423859855895 3735.650086529237797 14458.38811181232995 
	4198.46423859800143 3712.983617705308006 14447.99017842158901 
	4198.464238596358882 3685.409439602928614 14433.4168340886954 
	4198.464238594784547 3653.719876576253228 14413.50491240564224 
	4198.464238594160634 3623.606873989897849 14391.28061754306691 
	4198.464238592488073 3599.966978998607829 14370.93673778227276 
	4198.464238592193396 3582.006805701139001 14353.63592542061997 
	4198.464238591861431 3569.031208110981879 14340.16578183635829 
	4198.464238591554022 3556.568396785796722 14326.21984153810263 
	4198.464238591443063 3540.658129097524579 14307.01700043018354 
	4198.464238590943751 3522.137735741297092 14281.92293006463842 
	4198.464238590669993 3502.225960746708097 14250.23329783956797 
	4198.464238590363493 3482.794631364257839 14213.46784708400992 
	4198.46423858986509 3465.016573154767684 14171.29392042979634 
	4198.46423858948765 3450.300152446990523 14123.58338097722481 
	4198.464238588921944 3443.292367298959107 14088.91855028955979 
	4198.464238588861917 3440.47217725600467 14069.38182115757627 
	4198.464238588862827 3439.916924245226255 14065.26351793662434 
	4198.464238588861008 3439.387358629192022 14061.14183250510177 
	4198.464238588861917 3438.773588531137648 14055.98368694352575 
	4198.464238588860098 3437.894522799926563 14047.71905306920416 
	4198.464238588867374 3437.170094551570401 14039.4389433044289 
	4198.464238588871012 3436.671854605809585 14032.18368506860315 
	4198.464238588872831 3436.456650788221395 14028.55393777388235 
	4198.464238588872831 3436.343397230209575 14026.47925246452905 
	4198.464238588901026 3435.007853779063225 14000.54137863505821 
	4198.464238589023807 3435.853183425260795 13966.69374043241623 
	4198.464238589135675 3441.539740193732086 13921.32339930108537 
	4198.464238589358501 3447.724161810593159 13888.6357459382798 
	4198.464238589657725 3457.410799122398203 13852.48487192385255 
	4198.464238589932393 3469.772060242491534 13817.15915905571819 
	4198.464238590643617 3489.726277182131071 13771.42092257875811 
	4198.464238592442598 3520.978940325168878 13717.28687143059324 
	4198.464238593749542 3562.551207921497735 13665.15910929972233 
	4198.464238596654468 3604.251207363246976 13624.4875467800739 
	4198.464238597161966 3643.286782026159926 13593.35743235955124 
	4198.464238598007796 3681.733091424018312 13568.52637800116281 
	4198.464238600308818 3718.498712373388116 13549.09548930373057 
	4198.464238601281977 3752.801951541700419 13534.1288926860525 
	4198.464238603793092 3788.127851135174296 13521.76808674260428 
	4198.464238606690742 3830.30366520278767 13510.46656452503157 
	4198.464238608311462 3879.54301322505944 13502.10019834465675 
	4198.464238615266368 3935.642834874892742 13498.95014505329709 
	4198.464238623016172 3991.742685005406656 13502.10020189436182 
	4198.464238625278085 4040.982000954008072 13510.46662793786163 
	4198.464238630192995 4083.157878402523238 13521.76804715473008 
	4198.464238632560409 4112.596053463303178 13532.06887756209653 
	4198.464238634465801 4147.155252834367275 13546.38343900266955 
	4198.464238640292024 4180.59470940994288 13563.26420579225851 
	4198.464238643730823 4217.5655867755504 13586.49524128473058 
	4198.464238647421553 4252.697623463561285 13612.42326040241278 
	4198.464238656820271 4289.938951941501728 13645.70381872797407 
	4198.464238665171251 4327.379611948199454 13687.60027703125706 
	4198.464238680072413 4359.894362485521015 13733.42501726152477 
	4198.464238709447272 4387.073483410383233 13782.60237129528286 
	4198.464238731809928 4408.575944526797684 13834.51347656268081 
	4198.46423876213521 4421.538052608157159 13879.5070775416043 
	4198.464238771333839 4428.836933606487037 13916.20287883330093 
	4198.464238779894004 4432.759705663982459 13943.98829647029379 
	4198.464238789150841 4434.725083767880278 13967.28970855420084 
	4198.464238792132164 4435.413385548171391 13983.63929562895464 
	4198.464238793019831 4435.585489025908828 13991.81891768653804 
	4198.464238793241748 4435.628516342048897 13995.90933189886346 
	4198.464238793303593 4435.639273322096415 13997.95461448366586 
	4198.464238793319964 4435.641962561790933 13998.97726519562275 
	4198.46423879332815 4435.642730924673742 13999.56163838112479 
	4198.464238793329059 4435.64285897607715 13999.8538251963837 
	4198.464238793329059 4435.642858975315903 13999.99991860447517 
	4281.797572126662999 4435.642858975315903 13999.99991860447517 
	4281.797572126657542 4435.642858969229565 14001.16866586919787 
	4281.797572126478372 4435.634663569900113 14003.5061604575094 
	4281.797572126306477 4435.58548750924092 14008.18091933013238 
	4281.797572125555234 4435.413392827545977 14016.36054218313438 
	4281.797572122743986 4434.725037341987445 14032.71012261772012 
	4281.79757211373817 4431.973784827754571 14065.33212603528409 
	4281.797572084748936 4424.130752784472861 14111.49406957263272 
	4281.797572061421306 4408.575750332237476 14165.48630393610802 
	4281.797572035685334 4387.073459023540636 14217.39742157114779 
	4281.797572016221238 4359.894178773090971 14266.57470130133515 
	4281.797571995280123 4332.798633454914125 14304.76202690485115 
	4281.797571990252436 4308.659353779218691 14333.34783924140356 
	4281.797571983167472 4282.95607990895769 14360.53604012964206 
	4281.797571979503118 4249.594189697909314 14390.34992382431665 
	4281.797571963739756 4207.365968675223485 14420.70969511624389 
	4281.797571961924405 4164.126534654967145 14445.67389178578378 
	4281.797571959717061 4122.408875329660077 14464.49778090999644 
	4281.797571954120031 4083.157676930647995 14478.23143734512632 
	4281.797571949619851 4034.956996008088026 14491.14854519485743 
	4281.797571947179676 3973.147585684619116 14500.46637219391778 
	4281.797571939969203 3910.639692617859964 14500.46485611958269 
	4281.797571939205227 3861.052120452004147 14494.87662708030621 
	4281.797571936352142 3824.278456059243126 14487.91907533934318 
	4281.797571934558619 3788.12764156394087 14478.23228964229747 
	4281.797571932434948 3758.689424735812281 14467.93144256043524 
	4281.79757193189289 3735.650086529237342 14458.38811181232995 
	4281.797571931335369 3712.983617705307552 14447.99017842158901 
	4281.797571929692822 3685.40943960292816 14433.4168340886954 
	4281.797571928118487 3653.719876576252773 14413.50491240564224 
	4281.797571927494573 3623.606873989897394 14391.28061754306691 
	4281.797571925822012 3599.966978998607374 14370.93673778227276 
	4281.797571925527336 3582.006805701138546 14353.63592542061997 
	4281.797571925195371 3569.031208110981424 14340.16578183635829 
	4281.797571924887961 3556.568396785796267 14326.21984153810263 
	4281.797571924777003 3540.658129097524125 14307.01700043018354 
	4281.79757192427769 3522.137735741296638 14281.92293006463842 
	4281.797571924003933 3502.225960746707642 14250.23329783956797 
	4281.797571923697433 3482.794631364257384 14213.46784708400992 
	4281.79757192319903 3465.016573154767229 14171.29392042979634 
	4281.797571922821589 3450.300152446990069 14123.58338097722481 
	4281.797571922255884 3443.292367298958652 14088.91855028955979 
	4281.797571922195857 3440.472177256004215 14069.38182115757627 
	4281.797571922196767 3439.9169242452258 14065.26351793662434 
	4281.797571922194948 3439.387358629191567 14061.14183250510177 
	4281.797571922195857 3438.773588531137193 14055.98368694352575 
	4281.797571922194038 3437.894522799926108 14047.71905306920416 
	4281.797571922201314 3437.170094551569946 14039.4389433044289 
	4281.797571922204952 3436.671854605809131 14032.18368506860315 
	4281.797571922206771 3436.456650788220941 14028.55393777388235 
	4281.797571922206771 3436.343397230209121 14026.47925246452905 
	4281.797571922234965 3435.007853779062771 14000.54137863505821 
	4281.797571922357747 3435.85318342526034 13966.69374043241623 
	4281.797571922469615 3441.539740193731632 13921.32339930108537 
	4281.797571922692441 3447.724161810592705 13888.6357459382798 
	4281.797571922991665 3457.410799122397748 13852.48487192385255 
	4281.797571923266332 3469.772060242491079 13817.15915905571819 
	4281.797571923977557 3489.726277182130616 13771.42092257875811 
	4281.797571925776538 3520.978940325168423 13717.28687143059324 
	4281.797571927083482 3562.55120792149728 13665.15910929972233 
	4281.797571929988408 3604.251207363246522 13624.4875467800739 
	4281.797571930495906 3643.286782026159472 13593.35743235955124 
	4281.797571931341736 3681.733091424017857 13568.52637800116281 
	4281.797571933642757 3718.498712373387662 13549.09548930373057 
	4281.797571934615917 3752.801951541699964 13534.1288926860525 
	4281.797571937127032 3788.127851135173842 13521.76808674260428 
	4281.797571940024682 3830.303665202787215 13510.46656452503157 
	4281.797571941645401 3879.543013225058985 13502.10019834465675 
	4281.797571948600307 3935.642834874892287 13498.95014505329709 
	4281.797571956350112 3991.742685005406202 13502.10020189436182 
	4281.797571958612025 4040.982000954007617 13510.46662793786163 
	4281.797571963526934 4083.157878402522783 13521.76804715473008 
	4281.797571965894349 4112.596053463303178 13532.06887756209653 
	4281.79757196779974 4147.155252834367275 13546.38343900266955 
	4281.797571973625963 4180.59470940994288 13563.26420579225851 
	4281.797571977064763 4217.5655867755504 13586.49524128473058 
	4281.797571980755492 4252.697623463561285 13612.42326040241278 
	4281.797571990154211 4289.938951941501728 13645.70381872797407 
	4281.797571998505191 4327.379611948199454 13687.60027703125706 
	4281.797572013406352 4359.894362485521015 13733.42501726152477 
	4281.797572042781212 4387.073483410383233 13782.60237129528286 
	4281.797572065143868 4408.575944526797684 13834.51347656268081 
	4281.79757209546915 4421.538052608157159 13879.5070775416043 
	4281.797572104667779 4428.836933606487037 13916.20287883330093 
	4281.797572113227943 4432.759705663982459 13943.98829647029379 
	4281.79757212248478 4434.725083767880278 13967.28970855420084 
	4281.797572125466104 4435.413385548171391 13983.63929562895464 
	4281.797572126353771 4435.585489025908828 13991.81891768653804 
	4281.797572126575687 4435.628516342048897 13995.90933189886346 
	4281.797572126637533 4435.639273322096415 13997.95461448366586 
	4281.797572126653904 4435.641962561790933 13998.97726519562275 
	4281.797572126662089 4435.642730924673742 13999.56163838112479 
	4281.797572126662999 4435.64285897607715 13999.8538251963837 
	4281.797572126662999 4435.642858975315903 13999.99991860447517 
	0 
	
	0 
	0 
	89 0 0.001116071428571428509 0.002232142857142857019 0.004464285714285714038 0.008928571428571428076 0.01785714285714285615 0.0357142857142857123 0.05357142857142856845 0.07142857142857142461 0.08928571428571427382 0.1071428571428571369 0.1160714285714285754 0.125 0.1428571428571428492 0.1587301587301587213 0.1746031746031745935 0.1904761904761904656 0.2023809523809523836 0.2142857142857142738 0.238095238095238082 0.2619047619047618625 0.2738095238095237804 0.2857142857142856984 0.2976190476190476164 0.3095238095238095344 0.3154761904761904656 0.3214285714285713969 0.3333333333333333148 0.3452380952380952328 0.3571428571428570953 0.3690476190476190133 0.375 0.3809523809523809312 0.3869047619047618625 0.3928571428571428492 0.4047619047619047672 0.4166666666666666297 0.4285714285714285476 0.4444444444444444198 0.4603174603174602919 0.476190476190476164 0.4781746031746031411 0.4791666666666666297 0.4801587301587301182 0.4821428571428570953 0.4880952380952380265 0.4900793650793650036 0.4910714285714284921 0.4915674603174602364 0.4920634920634920362 0.5158730158730158166 0.5238095238095237249 0.5357142857142855874 0.5476190476190475609 0.5595238095238095344 0.5714285714285713969 0.5952380952380951218 0.6190476190476189577 0.6349206349206348854 0.650793650793650702 0.6666666666666666297 0.6785714285714286031 0.6904761904761904656 0.7023809523809523281 0.7142857142857141906 0.7321428571428569843 0.749999999999999889 0.7678571428571427937 0.7857142857142855874 0.7976190476190474499 0.8095238095238094234 0.8154761904761904656 0.8333333333333332593 0.8452380952380951218 0.8571428571428570953 0.875 0.8928571428571427937 0.9107142857142856984 0.9285714285714286031 0.9464285714285713969 0.9642857142857143016 0.9732142857142858094 0.9821428571428572063 0.9910714285714286031 0.9955357142857143016 0.9977678571428572063 0.9994419642857143016 0.9997209821428572063 0.9998604910714286031 
	0 
	0 
	0 
	F 1 F 0 F 1 F 0 } I I I I #
tcoedge-coedge $-1 -1 $-1 $14 $14 $18 $19 reversed $9 $20 -6.283185307179586232 -0 #
tcoedge-coedge $-1 -1 $-1 $21 $22 $11 $16 reversed $12 $23 -6.283185307179586232 -0 #
tedge-edge $-1 -1 $-1 $24 0 $24 6.283185307179586232 $15 $25 forward @7 unknown 0.0006466743636430879408 #
pcurve $-1 -1 $-1 0 forward { exppc nurbs 2 periodic 5 
	0 2 1.570796326794896558 2 3.141592653589793116 2 4.712388980384689674 2 6.283185307179586232 2 
	0 500 1 
	-500 500 0.707106781186543798 
	-500 0 1 
	-500 -500 0.7071067811865463515 
	0 -500 1 
	500 -500 0.7071067811865463515 
	500 0 1 
	500 500 0.707106781186543798 
	0 500 1 
	0 
	plane 4281.79757191538738 3935.642797989802602 14000.00000000000182 1 -3.637978807091713027e-15 0 0 0 -1 forward_v I I I I 
	} 0 0 #
tcoedge-coedge $-1 -1 $-1 $22 $21 $14 $19 forward $12 $26 0 6.283185307179586232 #
tedge-edge $-1 -1 $-1 $27 0 $27 6.283185307179586232 $18 $28 forward @7 unknown 0.0006466743640313317399 #
pcurve $-1 -1 $-1 0 forward { exppc nurbs 2 periodic 5 
	-6.283185307179586232 2 -4.712388980384689674 2 -3.141592653589793116 2 -1.570796326794896558 2 0 2 
	0 500 1 
	500 500 0.707106781186543798 
	500 0 1 
	500 -500 0.7071067811865463515 
	0 -500 1 
	-500 -500 0.7071067811865463515 
	-500 0 1 
	-500 500 0.707106781186543798 
	0 500 1 
	0 
	plane 4031.797571915386925 3935.642797989803512 14000.00000000000182 -1 3.637978807091706717e-15 -0 0 0 -1 reverse_v I I I I 
	} 0 0 #
coedge $-1 -1 $-1 $18 $15 $22 $29 reversed $12 $30 #
coedge $-1 -1 $-1 $15 $18 $21 $29 forward $12 $31 #
pcurve $-1 -1 $-1 0 forward { exppc nubs 1 periodic 2 
	-6.283185307179586232 1 -0 1 
	1 1 
	0 1 
	4.4114023995510105e-13 
	spline forward { ref 0 } I I I I 
	} 0 0 #
tvertex-vertex $-1 -1 $-1 $16 $32 0.000101707970493295787 #
ellipse-curve $-1 -1 $-1 4281.79757191538738 3935.642797989802602 14000.00000000000182 1 -3.637978807091713027e-15 0 1.818989403545856476e-12 500 0 1 I I #
pcurve $-1 -1 $-1 0 forward { exppc nubs 1 periodic 2 
	0 1 6.283185307179586232 1 
	0 0 
	1 0 
	4.411402399551011509e-13 
	spline forward { ref 0 } I I I I 
	} 0 0 #
tvertex-vertex $-1 -1 $-1 $19 $33 0.000101707946158252109 #
ellipse-curve $-1 -1 $-1 4031.797571915386925 3935.642797989803512 14000.00000000000182 1 -3.637978807091706717e-15 0 1.818989403545853447e-12 500 0 1 I I #
edge $-1 -1 $-1 $27 0 $24 0.999999999154904784 $22 $34 forward @7 tangent #
pcurve $-1 -1 $-1 -1 $34 0 0 #
pcurve $-1 -1 $-1 1 $34 1 0 #
point $-1 -1 $-1 4281.797571915389199 4435.642797989802602 14000.00000000000182 #
point $-1 -1 $-1 4031.797571915388744 4435.642797989803512 14000.00000000000182 #
intcurve-curve $-1 -1 $-1 forward { parcur full nubs 3 open 2 
	0 3 1 3 
	4031.797572114324794 4435.642858975317722 13999.99991860447517 
	4115.130905447658733 4435.642858975316813 13999.99991860447517 
	4198.464238793329059 4435.642858975315903 13999.99991860447517 
	4281.797572126662999 4435.642858975315903 13999.99991860447517 
	0 
	
	spline forward { ref 0 } I I I I 
	null_surface 
	nubs 1 open 2 
	0 1 1 1 
	0 0 
	0 1 
	
	nullbs 
	I I 
	0 
	0 
	0 
	surf1 } F 0 F 0.999999999154904784 #
End-of-ACIS-data 