700 0 1 0           
4 LibG 20 ASM 224.0.1.65535 NT 24 Wed Jul 17 12:52:14 2019 
1000 9.999999999999999547e-07 1.000000000000000036e-10 
body $-1 -1 $-1 $1 $-1 $2 #
lump $-1 -1 $-1 $-1 $3 $0 #
transform $-1 -1 1 0 0 0 1 0 0 0 1 0 0 0 1 no_rotate no_reflect no_shear #
shell $-1 -1 $-1 $-1 $-1 $4 $-1 $1 #
face $-1 -1 $-1 $5 $6 $3 $-1 $7 forward single #
face $-1 -1 $-1 $8 $9 $3 $-1 $10 reversed single #
loop $-1 -1 $-1 $-1 $11 $4 #
plane-surface $-1 -1 $-1 13031.79757191538738 3935.64279798977077 14000.00000000000182 1 -3.637978807091713027e-15 0 0 0 -1 forward_v I I I I #
face $-1 -1 $-1 $-1 $12 $3 $-1 $13 forward single #
loop $-1 -1 $-1 $-1 $14 $5 #
plane-surface $-1 -1 $-1 12781.79757191538738 3935.64279798977168 14000.00000000000182 1 -3.637978807091713027e-15 0 0 0 -1 forward_v I I I I #
tcoedge-coedge $-1 -1 $-1 $11 $11 $15 $16 forward $6 $17 0 6.283185307179586232 #
loop $-1 -1 $-1 $-1 $18 $8 #
spline-surface $-1 -1 $-1 forward { exactsur full nubs 3 3 periodic open none none 91 2 
	0 3 0.0005580357142857142547 1 0.001116071428571428509 1 0.002232142857142857019 1 0.004464285714285714038 1 
	0.008928571428571428076 1 0.01785714285714285615 1 0.02678571428571428423 1 0.0357142857142857123 1 0.05357142857142856845 1 
	0.07142857142857142461 1 0.08928571428571427382 1 0.1071428571428571369 1 0.125 1 0.1428571428571428492 1 
	0.1587301587301587213 1 0.1746031746031745935 1 0.1904761904761904656 1 0.2023809523809523836 1 0.2142857142857142738 1 
	0.238095238095238082 1 0.2619047619047618625 1 0.2857142857142856984 1 0.2976190476190476164 1 0.3095238095238095344 1 
	0.3214285714285713969 1 0.3333333333333333148 1 0.3392857142857143016 1 0.3452380952380952328 1 0.351190476190476164 1 
	0.3571428571428570953 1 0.3690476190476190133 1 0.3809523809523809312 1 0.3869047619047618625 1 0.3928571428571428492 1 
	0.4047619047619047672 1 0.4166666666666666297 1 0.4285714285714285476 1 0.4444444444444444198 1 0.4603174603174602919 1 
	0.476190476190476164 1 0.4841269841269840724 1 0.4920634920634920362 1 0.5 1 0.5079365079365079083 1 
	0.5158730158730158166 1 0.5198412698412697708 1 0.5218253968253967479 1 0.5228174603174602364 1 0.5233134920634919807 1 
	0.5235615079365079083 1 0.5238095238095237249 1 0.5476190476190475609 1 0.5714285714285713969 1 0.5952380952380951218 1 
	0.6071428571428569843 1 0.6130952380952379155 1 0.6190476190476189577 1 0.6349206349206348854 1 0.650793650793650702 1 
	0.6666666666666666297 1 0.6904761904761904656 1 0.7023809523809523281 1 0.7142857142857141906 1 0.7321428571428569843 1 
	0.749999999999999889 1 0.7678571428571427937 1 0.7857142857142855874 1 0.7976190476190474499 1 0.8095238095238094234 1 
	0.8333333333333332593 1 0.8571428571428570953 1 0.8616071428571427937 1 0.8660714285714286031 1 0.875 1 
	0.8928571428571427937 1 0.9107142857142856984 1 0.9285714285714286031 1 0.9464285714285713969 1 0.9642857142857143016 1 
	0.9821428571428572063 1 0.9866071428571429047 1 0.9910714285714286031 1 0.9955357142857143016 1 0.9977678571428572063 1 
	0.9988839285714286031 1 0.9994419642857143016 1 0.9997209821428572063 1 0.9998604910714286031 1 0.9999302455357143016 1 
	1 3 
	0 3 1 3 
	12781.7975717625468 4435.642893300009746 13999.99988953339744 
	12781.79757176254861 4435.64289329838175 14000.58426316614168 
	12781.79757176258136 4435.640844324277168 14001.75301042030515 
	12781.797571762605 4435.628550590619852 14004.090476218802 
	12781.79757176273961 4435.585523079053019 14008.18089037043501 
	12781.79757176323255 4435.413418846763307 14016.36051213776045 
	12781.79757176493695 4434.725114102114276 14032.71009787128787 
	12781.79757177026113 4432.759726990858326 14056.01150535102715 
	12781.79757177519969 4428.836944081728689 14083.79691665274186 
	12781.7975717806421 4421.538054696192376 14120.4927120993907 
	12781.79757179817534 4408.575893724725574 14165.48627836479136 
	12781.797571812147 4387.073424205082119 14217.39736845446714 
	12781.79757182799767 4359.894197646674911 14266.5746557881339 
	12781.79757184016307 4327.379558115073451 14312.39943781458896 
	12781.79757185584094 4289.93889205764026 14354.29595231051826 
	12781.79757185756353 4249.594182488322076 14390.34988553069888 
	12781.79757186993447 4207.365994248887546 14420.70968239569629 
	12781.79757187077848 4164.126555405378895 14445.67386969382642 
	12781.79757187315772 4122.408886246370457 14464.49776021549224 
	12781.79757187489849 4083.157761572334039 14478.23156228442167 
	12781.79757187710311 4034.956969107124223 14491.14852680886361 
	12781.79757187961877 3973.147699790995375 14500.46603436885016 
	12781.79757188381882 3898.137936989402078 14500.46565345829731 
	12781.79757188668373 3836.328585954640403 14491.14878281992242 
	12781.79757188732583 3788.127703026824747 14478.232077789713 
	12781.79757188854273 3752.801756350502728 14465.87152221219731 
	12781.79757188936674 3718.498441919633933 14450.90488281885155 
	12781.79757189019801 3690.924293825203222 14436.33156669340497 
	12781.79757189037446 3669.564635431011084 14423.46099999041144 
	12781.7975718905418 3653.916974477683652 14413.21592951801722 
	12781.79757189060001 3638.663372506119231 14402.39287845914441 
	12781.79757189067459 3618.878970016648054 14387.21185863772735 
	12781.79757189082375 3595.238982621355262 14366.8680984167986 
	12781.79757189081101 3573.185489569905712 14344.81450628428502 
	12781.79757189076918 3556.568433833685503 14326.21989669614959 
	12781.79757189072916 3540.658161926020512 14307.0170589283789 
	12781.79757189024713 3522.137743554512781 14281.92298354186642 
	12781.7975718900816 3502.22602475196436 14250.23332626175761 
	12781.79757188923577 3482.794601725202483 14213.46790033810976 
	12781.79757188810981 3465.016775952532953 14171.29387544169549 
	12781.79757188745316 3450.300190432731597 14123.58339471072941 
	12781.79757188509939 3442.055981921966577 14082.8011797079962 
	12781.79757188443182 3437.921184597164483 14049.80451530742721 
	12781.79757188367876 3436.057251931076735 14024.93323697420783 
	12781.79757188297663 3435.435484381706829 13999.9999525158637 
	12781.79757188243457 3436.057240722136612 13975.06667675683639 
	12781.79757188172516 3437.610466077876026 13954.34060199803571 
	12781.79757188150143 3439.239061165452767 13939.88652150741837 
	12781.79757188139411 3440.188289465595972 13932.67639000690724 
	12781.7975718813741 3440.696585627857985 13929.07597259073373 
	12781.79757188136864 3440.959142892845193 13927.27697770612212 
	12781.797571881365 3441.111582301246926 13926.24933586044972 
	12781.79757188172516 3444.885301976089522 13901.07791122246272 
	12781.79757188466283 3456.070885502776946 13852.07166503804183 
	12781.79757188660005 3483.474494156992023 13782.24702183415866 
	12781.79757188865915 3514.728976423434688 13728.11413325861395 
	12781.79757188896474 3540.658382738005912 13692.98300318810834 
	12781.79757188915028 3556.568469090613235 13673.78005249076523 
	12781.79757188930853 3575.955005621528471 13652.08632920309719 
	12781.79757188959775 3604.250838005246806 13624.48706200503329 
	12781.79757188953226 3643.286710934253733 13593.35748057498859 
	12781.79757188931762 3692.217583841569649 13561.75279508509811 
	12781.79757188868643 3741.026181435192484 13538.24843673596479 
	12781.79757188814074 3788.127962811927318 13521.76849152448085 
	12781.79757188745316 3830.303619080366389 13510.46668313982263 
	12781.79757188587064 3879.543050309942373 13502.10050590645733 
	12781.7975718838552 3935.642841042753389 13498.95002990955436 
	12781.79757188159783 3991.742655848683626 13502.10047207730167 
	12781.79757187887662 4040.982051368721386 13510.46666922755503 
	12781.79757187735595 4083.15777323981456 13521.76838134548052 
	12781.79757187612449 4130.259303984867984 13538.24872844213132 
	12781.79757187167706 4186.577554644172778 13565.36822231531369 
	12781.79757186285497 4231.767649305538725 13596.17954587939676 
	12781.79757186105962 4258.271166560331949 13617.93119474820924 
	12781.79757185981725 4272.389462035965153 13630.19621479776106 
	12781.79757185843482 4296.178906441813524 13652.686807498907 
	12781.79757184982373 4327.380007699131966 13687.59995520758457 
	12781.7975718339967 4359.894249093336839 13733.42512195774179 
	12781.79757182011053 4387.07363500671272 13782.60227889190355 
	12781.79757180239903 4408.575824478261893 13834.51348632926056 
	12781.79757178791988 4424.13078008658249 13888.5057147489224 
	12781.79757176857493 4431.18952126892782 13930.05148215512054 
	12781.79757176593193 4433.93895235605487 13957.96911937321602 
	12781.79757176469138 4434.92178893145865 13971.96098726404489 
	12781.79757176318162 4435.413416749112002 13983.63926744649143 
	12781.79757176273597 4435.585524053351946 13991.81888847376285 
	12781.79757176259773 4435.628550563526005 13995.90930285909053 
	12781.79757176256317 4435.639307666621789 13997.95458540692925 
	12781.79757176255407 4435.641996880760416 13998.97723612507798 
	12781.79757176255043 4435.642669197271061 13999.48856266039365 
	12781.7975717625468 4435.642861285450635 13999.78074942094099 
	12781.7975717625468 4435.642893300213473 13999.9268428293035 
	12781.7975717625468 4435.642893300009746 13999.99988953339744 
	12865.13090509588073 4435.642893300008836 13999.99988953339744 
	12865.13090509588255 4435.642893298380841 14000.58426316614168 
	12865.1309050959153 4435.640844324276259 14001.75301042030515 
	12865.13090509593894 4435.628550590618943 14004.090476218802 
	12865.13090509607355 4435.585523079052109 14008.18089037043501 
	12865.13090509656649 4435.413418846762397 14016.36051213776045 
	12865.13090509827089 4434.725114102113366 14032.71009787128787 
	12865.13090510359507 4432.759726990857416 14056.01150535102715 
	12865.13090510853363 4428.836944081727779 14083.79691665274186 
	12865.13090511397604 4421.538054696191466 14120.4927120993907 
	12865.13090513150928 4408.575893724724665 14165.48627836479136 
	12865.13090514548094 4387.07342420508121 14217.39736845446714 
	12865.13090516133161 4359.894197646674002 14266.5746557881339 
	12865.13090517349701 4327.379558115072541 14312.39943781458896 
	12865.13090518917488 4289.93889205763935 14354.29595231051826 
	12865.13090519089747 4249.594182488321167 14390.34988553069888 
	12865.13090520326841 4207.365994248886636 14420.70968239569629 
	12865.13090520411242 4164.126555405377985 14445.67386969382642 
	12865.13090520649166 4122.408886246369548 14464.49776021549224 
	12865.13090520823243 4083.157761572333584 14478.23156228442167 
	12865.13090521043705 4034.956969107123768 14491.14852680886361 
	12865.13090521295271 3973.14769979099492 14500.46603436885016 
	12865.13090521715276 3898.137936989401624 14500.46565345829731 
	12865.13090522001767 3836.328585954639948 14491.14878281992242 
	12865.13090522065977 3788.127703026824292 14478.232077789713 
	12865.13090522187667 3752.801756350502274 14465.87152221219731 
	12865.13090522270068 3718.498441919633478 14450.90488281885155 
	12865.13090522353195 3690.924293825202767 14436.33156669340497 
	12865.1309052237084 3669.564635431010629 14423.46099999041144 
	12865.13090522387574 3653.916974477683198 14413.21592951801722 
	12865.13090522393395 3638.663372506118776 14402.39287845914441 
	12865.13090522400853 3618.8789700166476 14387.21185863772735 
	12865.13090522415769 3595.238982621354808 14366.8680984167986 
	12865.13090522414495 3573.185489569905258 14344.81450628428502 
	12865.13090522410312 3556.568433833685049 14326.21989669614959 
	12865.1309052240631 3540.658161926020057 14307.0170589283789 
	12865.13090522358107 3522.137743554512326 14281.92298354186642 
	12865.13090522341554 3502.226024751963905 14250.23332626175761 
	12865.13090522256971 3482.794601725202028 14213.46790033810976 
	12865.13090522144375 3465.016775952532498 14171.29387544169549 
	12865.1309052207871 3450.300190432731142 14123.58339471072941 
	12865.13090521843333 3442.055981921966122 14082.8011797079962 
	12865.13090521776576 3437.921184597164029 14049.80451530742721 
	12865.1309052170127 3436.05725193107628 14024.93323697420783 
	12865.13090521631057 3435.435484381706374 13999.9999525158637 
	12865.13090521576851 3436.057240722136157 13975.06667675683639 
	12865.1309052150591 3437.610466077875572 13954.34060199803571 
	12865.13090521483537 3439.239061165452313 13939.88652150741837 
	12865.13090521472805 3440.188289465595517 13932.67639000690724 
	12865.13090521470804 3440.69658562785753 13929.07597259073373 
	12865.13090521470258 3440.959142892844739 13927.27697770612212 
	12865.13090521469894 3441.111582301246472 13926.24933586044972 
	12865.1309052150591 3444.885301976089067 13901.07791122246272 
	12865.13090521799677 3456.070885502776491 13852.07166503804183 
	12865.13090521993399 3483.474494156991568 13782.24702183415866 
	12865.13090522199309 3514.728976423434233 13728.11413325861395 
	12865.13090522229868 3540.658382738005457 13692.98300318810834 
	12865.13090522248422 3556.56846909061278 13673.78005249076523 
	12865.13090522264247 3575.955005621528016 13652.08632920309719 
	12865.13090522293169 3604.250838005246351 13624.48706200503329 
	12865.1309052228662 3643.286710934253279 13593.35748057498859 
	12865.13090522265156 3692.217583841569194 13561.75279508509811 
	12865.13090522202037 3741.026181435192029 13538.24843673596479 
	12865.13090522147468 3788.127962811926864 13521.76849152448085 
	12865.1309052207871 3830.303619080365934 13510.46668313982263 
	12865.13090521920458 3879.543050309941918 13502.10050590645733 
	12865.13090521718914 3935.642841042752934 13498.95002990955436 
	12865.13090521493177 3991.742655848683171 13502.10047207730167 
	12865.13090521221056 4040.982051368720931 13510.46666922755503 
	12865.13090521068989 4083.157773239814105 13521.76838134548052 
	12865.13090520945843 4130.259303984867074 13538.24872844213132 
	12865.130905205011 4186.577554644171869 13565.36822231531369 
	12865.13090519618891 4231.767649305537816 13596.17954587939676 
	12865.13090519439356 4258.271166560331039 13617.93119474820924 
	12865.13090519315119 4272.389462035964243 13630.19621479776106 
	12865.13090519176876 4296.178906441812615 13652.686807498907 
	12865.13090518315767 4327.380007699131056 13687.59995520758457 
	12865.13090516733064 4359.89424909333593 13733.42512195774179 
	12865.13090515344447 4387.073635006711811 13782.60227889190355 
	12865.13090513573297 4408.575824478260984 13834.51348632926056 
	12865.13090512125382 4424.130780086581581 13888.5057147489224 
	12865.13090510190887 4431.18952126892691 13930.05148215512054 
	12865.13090509926587 4433.93895235605396 13957.96911937321602 
	12865.13090509802532 4434.921788931457741 13971.96098726404489 
	12865.13090509651556 4435.413416749111093 13983.63926744649143 
	12865.13090509606991 4435.585524053351037 13991.81888847376285 
	12865.13090509593167 4435.628550563525096 13995.90930285909053 
	12865.13090509589711 4435.63930766662088 13997.95458540692925 
	12865.13090509588801 4435.641996880759507 13998.97723612507798 
	12865.13090509588437 4435.642669197270152 13999.48856266039365 
	12865.13090509588073 4435.642861285449726 13999.78074942094099 
	12865.13090509588073 4435.642893300212563 13999.9268428293035 
	12865.13090509588073 4435.642893300008836 13999.99988953339744 
	12948.46423842622062 4435.642893300009746 13999.99988953339744 
	12948.46423842622062 4435.64289329838175 14000.58426316614168 
	12948.46423842625154 4435.640844324277168 14001.75301042030515 
	12948.46423842627701 4435.628550590619852 14004.090476218802 
	12948.46423842641343 4435.585523079053019 14008.18089037043501 
	12948.46423842691547 4435.413418846763307 14016.36051213776045 
	12948.46423842865261 4434.725114102114276 14032.71009787128787 
	12948.46423843407865 4432.759726990858326 14056.01150535102715 
	12948.46423843911725 4428.836944081728689 14083.79691665274186 
	12948.46423844466517 4421.538054696192376 14120.4927120993907 
	12948.46423846254038 4408.575893724725574 14165.48627836479136 
	12948.4642384767867 4387.073424205082119 14217.39736845446714 
	12948.46423849294479 4359.894197646674911 14266.5746557881339 
	12948.46423850535029 4327.379558115073451 14312.39943781458896 
	12948.46423852133739 4289.93889205764026 14354.29595231051826 
	12948.4642385230909 4249.594182488321167 14390.34988553069888 
	12948.46423853570377 4207.365994248886636 14420.70968239569629 
	12948.46423853656415 4164.126555405377985 14445.67386969382642 
	12948.46423853899068 4122.408886246369548 14464.49776021549224 
	12948.46423854076602 4083.157761572334039 14478.23156228442167 
	12948.46423854301065 4034.956969107124223 14491.14852680886361 
	12948.46423854557725 3973.147699790995375 14500.46603436885016 
	12948.46423854986097 3898.137936989401624 14500.46565345829731 
	12948.46423855278226 3836.328585954639948 14491.14878281992242 
	12948.4642385534371 3788.127703026824292 14478.232077789713 
	12948.46423855467947 3752.801756350501819 14465.87152221219731 
	12948.46423855551984 3718.498441919634388 14450.90488281885155 
	12948.46423855636749 3690.924293825202312 14436.33156669340497 
	12948.46423855654757 3669.564635431010174 14423.46099999041144 
	12948.46423855671856 3653.916974477683198 14413.21592951801722 
	12948.46423855677858 3638.663372506118321 14402.39287845914441 
	12948.46423855685498 3618.8789700166476 14387.21185863772735 
	12948.46423855700777 3595.238982621354353 14366.8680984167986 
	12948.46423855699504 3573.185489569904803 14344.81450628428502 
	12948.46423855695139 3556.568433833684594 14326.21989669614959 
	12948.46423855691137 3540.658161926019602 14307.0170589283789 
	12948.46423855642206 3522.137743554511871 14281.92298354186642 
	12948.46423855625289 3502.226024751963905 14250.23332626175761 
	12948.46423855539069 3482.794601725201119 14213.46790033810976 
	12948.46423855423927 3465.016775952532043 14171.29387544169549 
	12948.4642385535717 3450.300190432730687 14123.58339471072941 
	12948.46423855117428 3442.055981921965667 14082.8011797079962 
	12948.46423855049215 3437.921184597163574 14049.80451530742721 
	12948.46423854972818 3436.057251931075371 14024.93323697420783 
	12948.46423854900968 3435.435484381706374 13999.9999525158637 
	12948.46423854845852 3436.057240722135703 13975.06667675683639 
	12948.46423854773275 3437.610466077875117 13954.34060199803571 
	12948.46423854750537 3439.239061165452767 13939.88652150741837 
	12948.46423854739623 3440.188289465595517 13932.67639000690724 
	12948.46423854737623 3440.696585627857985 13929.07597259073373 
	12948.46423854736895 3440.959142892845193 13927.27697770612212 
	12948.46423854736531 3441.111582301246926 13926.24933586044972 
	12948.46423854773093 3444.885301976089067 13901.07791122246272 
	12948.46423855072499 3456.070885502776946 13852.07166503804183 
	12948.46423855269859 3483.474494156992478 13782.24702183415866 
	12948.46423855480134 3514.728976423433323 13728.11413325861395 
	12948.46423855511239 3540.658382738005457 13692.98300318810834 
	12948.46423855530338 3556.568469090612325 13673.78005249076523 
	12948.46423855546345 3575.955005621528016 13652.08632920309719 
	12948.46423855575813 3604.250838005245896 13624.48706200503329 
	12948.46423855569083 3643.286710934253279 13593.35748057498859 
	12948.46423855547073 3692.217583841568739 13561.75279508509811 
	12948.46423855483044 3741.026181435192029 13538.24843673596479 
	12948.46423855427201 3788.127962811926864 13521.76849152448085 
	12948.46423855357352 3830.303619080366843 13510.46668313982263 
	12948.46423855196008 3879.543050309942373 13502.10050590645733 
	12948.46423854990462 3935.642841042753844 13498.95002990955436 
	12948.4642385476036 3991.74265584868408 13502.10047207730167 
	12948.46423854482964 4040.982051368721841 13510.46666922755503 
	12948.46423854327986 4083.157773239815015 13521.76838134548052 
	12948.46423854202112 4130.259303984867984 13538.24872844213132 
	12948.46423853748638 4186.577554644172778 13565.36822231531369 
	12948.46423852849148 4231.767649305538725 13596.17954587939676 
	12948.46423852665976 4258.271166560331949 13617.93119474820924 
	12948.46423852539374 4272.389462035965153 13630.19621479776106 
	12948.46423852398402 4296.178906441813524 13652.686807498907 
	12948.46423851520376 4327.380007699131966 13687.59995520758457 
	12948.46423849906751 4359.894249093336839 13733.42512195774179 
	12948.46423848491031 4387.07363500671272 13782.60227889190355 
	12948.46423846685138 4408.575824478261893 13834.51348632926056 
	12948.4642384520921 4424.13078008658249 13888.5057147489224 
	12948.46423843236516 4431.18952126892782 13930.05148215512054 
	12948.46423842967124 4433.93895235605487 13957.96911937321602 
	12948.46423842840522 4434.92178893145865 13971.96098726404489 
	12948.46423842686636 4435.413416749112002 13983.63926744649143 
	12948.46423842641343 4435.585524053351946 13991.81888847376285 
	12948.46423842627155 4435.628550563526005 13995.90930285909053 
	12948.46423842623699 4435.639307666621789 13997.95458540692925 
	12948.46423842622971 4435.641996880760416 13998.97723612507798 
	12948.46423842622426 4435.642669197271061 13999.48856266039365 
	12948.46423842622062 4435.642861285450635 13999.78074942094099 
	12948.46423842622062 4435.642893300213473 13999.9268428293035 
	12948.46423842622062 4435.642893300009746 13999.99988953339744 
	13031.79757175955456 4435.642893300009746 13999.99988953339744 
	13031.79757175955456 4435.64289329838175 14000.58426316614168 
	13031.79757175958548 4435.640844324277168 14001.75301042030515 
	13031.79757175961095 4435.628550590619852 14004.090476218802 
	13031.79757175974737 4435.585523079053019 14008.18089037043501 
	13031.79757176024941 4435.413418846763307 14016.36051213776045 
	13031.79757176198655 4434.725114102114276 14032.71009787128787 
	13031.79757176741259 4432.759726990858326 14056.01150535102715 
	13031.79757177245119 4428.836944081728689 14083.79691665274186 
	13031.79757177799911 4421.538054696192376 14120.4927120993907 
	13031.79757179587432 4408.575893724725574 14165.48627836479136 
	13031.79757181012064 4387.073424205082119 14217.39736845446714 
	13031.79757182627873 4359.894197646674911 14266.5746557881339 
	13031.79757183868423 4327.379558115073451 14312.39943781458896 
	13031.79757185467133 4289.93889205764026 14354.29595231051826 
	13031.79757185642484 4249.594182488321167 14390.34988553069888 
	13031.79757186903771 4207.365994248886636 14420.70968239569629 
	13031.79757186989809 4164.126555405377985 14445.67386969382642 
	13031.79757187232462 4122.408886246369548 14464.49776021549224 
	13031.79757187409996 4083.157761572333584 14478.23156228442167 
	13031.79757187634459 4034.956969107123768 14491.14852680886361 
	13031.79757187891119 3973.14769979099492 14500.46603436885016 
	13031.79757188319491 3898.137936989401169 14500.46565345829731 
	13031.7975718861162 3836.328585954639493 14491.14878281992242 
	13031.79757188677104 3788.127703026823838 14478.232077789713 
	13031.79757188801341 3752.801756350501364 14465.87152221219731 
	13031.79757188885378 3718.498441919633933 14450.90488281885155 
	13031.79757188970143 3690.924293825201858 14436.33156669340497 
	13031.79757188988151 3669.564635431009719 14423.46099999041144 
	13031.7975718900525 3653.916974477682743 14413.21592951801722 
	13031.79757189011252 3638.663372506117867 14402.39287845914441 
	13031.79757189018892 3618.878970016647145 14387.21185863772735 
	13031.79757189034171 3595.238982621353898 14366.8680984167986 
	13031.79757189032898 3573.185489569904348 14344.81450628428502 
	13031.79757189028533 3556.568433833684139 14326.21989669614959 
	13031.79757189024531 3540.658161926019147 14307.0170589283789 
	13031.797571889756 3522.137743554511417 14281.92298354186642 
	13031.79757188958683 3502.22602475196345 14250.23332626175761 
	13031.79757188872463 3482.794601725200664 14213.46790033810976 
	13031.79757188757321 3465.016775952531589 14171.29387544169549 
	13031.79757188690564 3450.300190432730233 14123.58339471072941 
	13031.79757188450822 3442.055981921965213 14082.8011797079962 
	13031.79757188382609 3437.921184597163119 14049.80451530742721 
	13031.79757188306212 3436.057251931074916 14024.93323697420783 
	13031.79757188234362 3435.435484381705919 13999.9999525158637 
	13031.79757188179246 3436.057240722135248 13975.06667675683639 
	13031.79757188106669 3437.610466077874662 13954.34060199803571 
	13031.79757188083931 3439.239061165452313 13939.88652150741837 
	13031.79757188073017 3440.188289465595062 13932.67639000690724 
	13031.79757188071017 3440.69658562785753 13929.07597259073373 
	13031.79757188070289 3440.959142892844739 13927.27697770612212 
	13031.79757188069925 3441.111582301246472 13926.24933586044972 
	13031.79757188106487 3444.885301976088613 13901.07791122246272 
	13031.79757188405893 3456.070885502776491 13852.07166503804183 
	13031.79757188603253 3483.474494156992023 13782.24702183415866 
	13031.79757188813528 3514.728976423432869 13728.11413325861395 
	13031.79757188844633 3540.658382738005002 13692.98300318810834 
	13031.79757188863732 3556.56846909061187 13673.78005249076523 
	13031.79757188879739 3575.955005621527562 13652.08632920309719 
	13031.79757188909207 3604.250838005245441 13624.48706200503329 
	13031.79757188902477 3643.286710934252824 13593.35748057498859 
	13031.79757188880467 3692.217583841568285 13561.75279508509811 
	13031.79757188816438 3741.026181435191575 13538.24843673596479 
	13031.79757188760595 3788.127962811926409 13521.76849152448085 
	13031.79757188690746 3830.303619080366389 13510.46668313982263 
	13031.79757188529402 3879.543050309941918 13502.10050590645733 
	13031.79757188323856 3935.642841042753389 13498.95002990955436 
	13031.79757188093754 3991.742655848683626 13502.10047207730167 
	13031.79757187816358 4040.982051368721386 13510.46666922755503 
	13031.7975718766138 4083.15777323981456 13521.76838134548052 
	13031.79757187535506 4130.259303984867984 13538.24872844213132 
	13031.79757187082032 4186.577554644172778 13565.36822231531369 
	13031.79757186182542 4231.767649305538725 13596.17954587939676 
	13031.7975718599937 4258.271166560331949 13617.93119474820924 
	13031.79757185872768 4272.389462035965153 13630.19621479776106 
	13031.79757185731796 4296.178906441813524 13652.686807498907 
	13031.7975718485377 4327.380007699131966 13687.59995520758457 
	13031.79757183240145 4359.894249093336839 13733.42512195774179 
	13031.79757181824425 4387.07363500671272 13782.60227889190355 
	13031.79757180018532 4408.575824478261893 13834.51348632926056 
	13031.79757178542604 4424.13078008658249 13888.5057147489224 
	13031.7975717656991 4431.18952126892782 13930.05148215512054 
	13031.79757176300518 4433.93895235605487 13957.96911937321602 
	13031.79757176173916 4434.92178893145865 13971.96098726404489 
	13031.7975717602003 4435.413416749112002 13983.63926744649143 
	13031.79757175974737 4435.585524053351946 13991.81888847376285 
	13031.79757175960549 4435.628550563526005 13995.90930285909053 
	13031.79757175957093 4435.639307666621789 13997.95458540692925 
	13031.79757175956365 4435.641996880760416 13998.97723612507798 
	13031.7975717595582 4435.642669197271061 13999.48856266039365 
	13031.79757175955456 4435.642861285450635 13999.78074942094099 
	13031.79757175955456 4435.642893300213473 13999.9268428293035 
	13031.79757175955456 4435.642893300009746 13999.99988953339744 
	0 
	
	0 
	0 
	87 0 0.0005580357142857142547 0.002232142857142857019 0.004464285714285714038 0.008928571428571428076 0.01785714285714285615 0.02678571428571428423 0.0357142857142857123 0.05357142857142856845 0.07142857142857142461 0.08928571428571427382 0.1071428571428571369 0.125 0.1428571428571428492 0.1587301587301587213 0.1746031746031745935 0.1904761904761904656 0.2023809523809523836 0.2142857142857142738 0.238095238095238082 0.2619047619047618625 0.2857142857142856984 0.2976190476190476164 0.3095238095238095344 0.3214285714285713969 0.3333333333333333148 0.3392857142857143016 0.3452380952380952328 0.351190476190476164 0.3571428571428570953 0.3690476190476190133 0.3809523809523809312 0.3869047619047618625 0.3928571428571428492 0.4047619047619047672 0.4166666666666666297 0.4285714285714285476 0.4444444444444444198 0.4603174603174602919 0.476190476190476164 0.4841269841269840724 0.4920634920634920362 0.5 0.5079365079365079083 0.5158730158730158166 0.5218253968253967479 0.5228174603174602364 0.5233134920634919807 0.5235615079365079083 0.5238095238095237249 0.5476190476190475609 0.5714285714285713969 0.5952380952380951218 0.6071428571428569843 0.6130952380952379155 0.6190476190476189577 0.6349206349206348854 0.650793650793650702 0.6666666666666666297 0.6904761904761904656 0.7023809523809523281 0.7142857142857141906 0.7321428571428569843 0.749999999999999889 0.7678571428571427937 0.7857142857142855874 0.7976190476190474499 0.8095238095238094234 0.8333333333333332593 0.8571428571428570953 0.8616071428571427937 0.8660714285714286031 0.875 0.8928571428571427937 0.9107142857142856984 0.9285714285714286031 0.9464285714285713969 0.9642857142857143016 0.9821428571428572063 0.9866071428571429047 0.9910714285714286031 0.9977678571428572063 0.9988839285714286031 0.9994419642857143016 0.9997209821428572063 0.9998604910714286031 0.9999302455357143016 
	0 
	0 
	0 
	F 1 F 0 F 1 F 0 } I I I I #
tcoedge-coedge $-1 -1 $-1 $14 $14 $18 $19 reversed $9 $20 -6.283185307179586232 -0 #
tcoedge-coedge $-1 -1 $-1 $21 $22 $11 $16 reversed $12 $23 -6.283185307179586232 -0 #
tedge-edge $-1 -1 $-1 $24 0 $24 6.283185307179586232 $15 $25 forward @7 unknown 0.0007086179160491608243 #
pcurve $-1 -1 $-1 0 forward { exppc nurbs 2 periodic 5 
	0 2 1.570796326794896558 2 3.141592653589793116 2 4.712388980384689674 2 6.283185307179586232 2 
	0 500 1 
	-500 500 0.707106781186543798 
	-500 0 1 
	-500 -500 0.7071067811865463515 
	0 -500 1 
	500 -500 0.7071067811865463515 
	500 0 1 
	500 500 0.707106781186543798 
	0 500 1 
	0 
	plane 13031.79757191538738 3935.64279798977077 14000.00000000000182 1 -3.637978807091713027e-15 0 0 0 -1 forward_v I I I I 
	} 0 0 #
tcoedge-coedge $-1 -1 $-1 $22 $21 $14 $19 forward $12 $26 0 6.283185307179586232 #
tedge-edge $-1 -1 $-1 $27 0 $27 6.283185307179586232 $18 $28 forward @7 unknown 0.0007086179159229201181 #
pcurve $-1 -1 $-1 0 forward { exppc nurbs 2 periodic 5 
	-6.283185307179586232 2 -4.712388980384689674 2 -3.141592653589793116 2 -1.570796326794896558 2 0 2 
	0 500 1 
	500 500 0.707106781186543798 
	500 0 1 
	500 -500 0.7071067811865463515 
	0 -500 1 
	-500 -500 0.7071067811865463515 
	-500 0 1 
	-500 500 0.707106781186543798 
	0 500 1 
	0 
	plane 12781.79757191538738 3935.64279798977168 14000.00000000000182 -1 3.637978807091713027e-15 -0 0 0 -1 reverse_v I I I I 
	} 0 0 #
coedge $-1 -1 $-1 $18 $15 $22 $29 reversed $12 $30 #
coedge $-1 -1 $-1 $15 $18 $21 $29 forward $12 $31 #
pcurve $-1 -1 $-1 0 forward { exppc nubs 1 periodic 2 
	-6.283185307179586232 1 -0 1 
	1 1 
	0 1 
	2.726396620975368931e-13 
	spline forward { ref 0 } I I I I 
	} 0 0 #
tvertex-vertex $-1 -1 $-1 $16 $32 0.0001459004439334242779 #
ellipse-curve $-1 -1 $-1 13031.79757191538738 3935.64279798977077 14000.00000000000182 1 -3.637978807091713027e-15 0 1.818989403545856476e-12 500 0 1 I I #
pcurve $-1 -1 $-1 0 forward { exppc nubs 1 periodic 2 
	0 1 6.283185307179586232 1 
	0 0 
	1 0 
	4.4114023995510105e-13 
	spline forward { ref 0 } I I I I 
	} 0 0 #
tvertex-vertex $-1 -1 $-1 $19 $33 0.0001459004401739995944 #
ellipse-curve $-1 -1 $-1 12781.79757191538738 3935.64279798977168 14000.00000000000182 1 -3.637978807091713027e-15 0 1.818989403545856476e-12 500 0 1 I I #
edge $-1 -1 $-1 $27 6.113696131181280936e-10 $24 1 $22 $34 forward @7 tangent #
pcurve $-1 -1 $-1 -1 $34 0 0 #
pcurve $-1 -1 $-1 1 $34 1 0 #
point $-1 -1 $-1 13031.7975719153892 4435.64279798977077 14000.00000000000182 #
point $-1 -1 $-1 12781.7975719153892 4435.64279798977168 14000.00000000000182 #
intcurve-curve $-1 -1 $-1 forward { parcur full nubs 3 open 2 
	0 3 1 3 
	12781.7975717625468 4435.642893300009746 13999.99988953339744 
	12865.13090509588073 4435.642893300008836 13999.99988953339744 
	12948.46423842622062 4435.642893300009746 13999.99988953339744 
	13031.79757175955456 4435.642893300009746 13999.99988953339744 
	0 
	
	spline forward { ref 0 } I I I I 
	null_surface 
	nubs 1 open 2 
	0 1 1 1 
	0 0 
	0 1 
	
	nullbs 
	I I 
	0 
	0 
	0 
	surf1 } F 6.113696131181280936e-10 F 1 #
End-of-ACIS-data 