700 0 1 0           
4 LibG 20 ASM 224.0.1.65535 NT 24 Wed Jul 17 12:52:11 2019 
1000 9.999999999999999547e-07 1.000000000000000036e-10 
body $-1 -1 $-1 $1 $-1 $2 #
lump $-1 -1 $-1 $-1 $3 $0 #
transform $-1 -1 1 0 0 0 1 0 0 0 1 0 0 0 1 no_rotate no_reflect no_shear #
shell $-1 -1 $-1 $-1 $-1 $4 $-1 $1 #
face $-1 -1 $-1 $5 $6 $3 $-1 $7 forward single #
face $-1 -1 $-1 $8 $9 $3 $-1 $10 reversed single #
loop $-1 -1 $-1 $-1 $11 $4 #
plane-surface $-1 -1 $-1 -1718.202428084613075 3935.64279798982443 14000.00000000000182 1 -3.637978807091713027e-15 0 0 0 -1 forward_v I I I I #
face $-1 -1 $-1 $-1 $12 $3 $-1 $13 forward single #
loop $-1 -1 $-1 $-1 $14 $5 #
plane-surface $-1 -1 $-1 -1968.202428084613075 3935.64279798982534 14000.00000000000182 1 -3.637978807091713027e-15 0 0 0 -1 forward_v I I I I #
tcoedge-coedge $-1 -1 $-1 $11 $11 $15 $16 forward $6 $17 0 6.283185307179586232 #
loop $-1 -1 $-1 $-1 $18 $8 #
spline-surface $-1 -1 $-1 forward { exactsur full nubs 3 3 periodic open none none 85 2 
	0 3 0.002232142857142857019 1 0.004464285714285714038 1 0.008928571428571428076 1 0.01785714285714285615 1 
	0.0357142857142857123 1 0.05357142857142856845 1 0.0625 1 0.07142857142857142461 1 0.08928571428571427382 1 
	0.1071428571428571369 1 0.125 1 0.1428571428571428492 1 0.1587301587301587213 1 0.1746031746031745935 1 
	0.1904761904761904656 1 0.2023809523809523836 1 0.2142857142857142738 1 0.238095238095238082 1 0.2619047619047618625 1 
	0.2857142857142856984 1 0.3095238095238095344 1 0.3214285714285713969 1 0.3333333333333333148 1 0.3392857142857143016 1 
	0.3452380952380952328 1 0.3571428571428570953 1 0.3630952380952380265 1 0.3690476190476190133 1 0.375 1 
	0.3779761904761904656 1 0.3809523809523809312 1 0.4047619047619047672 1 0.4077380952380952328 1 0.4107142857142856984 1 
	0.4166666666666666297 1 0.4285714285714285476 1 0.4444444444444444198 1 0.4484126984126983739 1 0.4523809523809523281 1 
	0.4603174603174602919 1 0.4682539682539682557 1 0.476190476190476164 1 0.4920634920634920362 1 0.5079365079365079083 1 
	0.5238095238095237249 1 0.5476190476190475609 1 0.5595238095238095344 1 0.5714285714285713969 1 0.5833333333333332593 1 
	0.5952380952380951218 1 0.6071428571428569843 1 0.6190476190476189577 1 0.6349206349206348854 1 0.650793650793650702 1 
	0.6587301587301586103 1 0.6666666666666666297 1 0.6785714285714286031 1 0.6904761904761904656 1 0.7023809523809523281 1 
	0.7142857142857141906 1 0.7232142857142855874 1 0.7321428571428569843 1 0.7410714285714283811 1 0.749999999999999889 1 
	0.7678571428571427937 1 0.7857142857142855874 1 0.7976190476190474499 1 0.8095238095238094234 1 0.8333333333333332593 1 
	0.8571428571428570953 1 0.875 1 0.8928571428571427937 1 0.9107142857142856984 1 0.9285714285714286031 1 
	0.9464285714285713969 1 0.9642857142857143016 1 0.9821428571428572063 1 0.9910714285714286031 1 0.9955357142857143016 1 
	0.9977678571428572063 1 0.9988839285714286031 1 0.9994419642857143016 1 0.9997209821428572063 1 1 3 
	0 3 1 3 
	-1968.202428098484916 4435.642841626726295 13999.99989881421425 
	-1968.202428098484233 4435.642841601454165 14002.33739334672282 
	-1968.202428098441715 4435.610055150928929 14007.0123820438148 
	-1968.202428098402606 4435.413373568268071 14016.36052200240738 
	-1968.202428098215023 4434.725024619545366 14032.71010498054966 
	-1968.202428097596112 4431.97374260984634 14065.33209757116674 
	-1968.202428095819641 4424.13083397259652 14111.4940913662922 
	-1968.20242809421984 4411.168104321797728 14156.48753228553505 
	-1968.202428093702338 4397.824843943178166 14191.44195179663438 
	-1968.202428093281014 4382.543449389404486 14225.5935726308835 
	-1968.202428091857428 4359.894248381351645 14266.57473027683227 
	-1968.202428090839931 4327.37954565777909 14312.39947822817521 
	-1968.202428089384512 4289.938925712738637 14354.2960214781524 
	-1968.202428089236491 4249.594203832719359 14390.34994553682918 
	-1968.202428088153965 4207.366041369342383 14420.70976511645495 
	-1968.202428088051875 4164.126594033106812 14445.67394119910932 
	-1968.202428087863836 4122.408913659685822 14464.49779705794754 
	-1968.202428087507997 4083.157738390872964 14478.23143758890728 
	-1968.202428087214912 4034.957050028564026 14491.14870669029006 
	-1968.202428087024828 3973.147670237983675 14500.46617495441751 
	-1968.202428086552572 3898.138155850988824 14500.46540920010739 
	-1968.202428086263126 3823.966448321356438 14489.28636994571207 
	-1968.202428085998463 3764.235943449984461 14470.86112100428181 
	-1968.202428085837937 3718.498721593550272 14450.90446194117976 
	-1968.202428085713564 3690.924405817905154 14436.33154769866269 
	-1968.202428085676729 3669.564805984294253 14423.4608714463775 
	-1968.20242808564808 3648.701211647936361 14409.80086380765169 
	-1968.202428085592373 3628.625905808651169 14394.98463393239763 
	-1968.202428085557585 3609.423071404773509 14379.07435072758017 
	-1968.202428085538486 3595.477158042347128 14366.61152647908057 
	-1968.202428085517113 3584.251992454129777 14355.7985703764607 
	-1968.202428085512111 3575.519237624557718 14346.90084933133403 
	-1968.20242808549483 3554.106520901176282 14324.25267735671696 
	-1968.202428085399788 3534.620146017742172 14299.81751710383105 
	-1968.202428085387055 3517.304591981005615 14273.90196941569775 
	-1968.202428085383872 3510.573176531936497 14263.40823064838332 
	-1968.202428085377505 3499.311559663478874 14244.71846891070163 
	-1968.202428085339989 3482.794723287845954 14213.46793754693135 
	-1968.202428085315205 3469.865578748182998 14182.79587196069406 
	-1968.202428085311567 3461.630147650168965 14159.25988397177389 
	-1968.202428085308838 3456.532604886134322 14143.43727559973195 
	-1968.20242808530611 3450.903394444818787 14123.42991443274877 
	-1968.202428085302699 3445.353541585739094 14099.11419508233666 
	-1968.202428085301563 3439.578792339591473 14066.36475512946527 
	-1968.202428085302017 3435.435600280303333 14024.96430040971427 
	-1968.202428085310203 3435.436065754793162 13975.03583111578519 
	-1968.202428085329529 3441.234404935752082 13917.07492157739398 
	-1968.202428085366364 3453.288905110061023 13864.25992753181345 
	-1968.202428085387965 3469.771895172730183 13817.15916022074634 
	-1968.202428085430483 3484.737745311020717 13782.85569860970645 
	-1968.202428085468682 3502.2260369096266 13749.76678890042058 
	-1968.202428085515066 3522.137792228174931 13718.07718356866098 
	-1968.202428085570546 3544.362244979482512 13687.9642844620721 
	-1968.202428085625797 3571.487198310198892 13656.44430418291631 
	-1968.202428085750398 3604.250684137556618 13624.48721996846689 
	-1968.202428085834072 3636.78073881185037 13598.54593145740546 
	-1968.202428085858628 3664.257177036145094 13579.81305536631044 
	-1968.20242808590433 3689.086046612262635 13564.64029109628063 
	-1968.202428086008695 3718.498462406773342 13549.09536026396927 
	-1968.202428086062355 3752.801772636034457 13534.12892757417103 
	-1968.202428086211967 3788.127631286794895 13521.76788689329442 
	-1968.202428086335885 3821.265885610353507 13512.88855382234215 
	-1968.202428086425016 3851.845664716639476 13506.80594920943622 
	-1968.202428086513919 3879.631103960198288 13502.88322307104863 
	-1968.202428086613509 3907.592778826029644 13500.52481648852154 
	-1968.202428086735608 3944.992700205410074 13499.47511768495497 
	-1968.202428087161252 3991.742511155930515 13502.10030130727682 
	-1968.202428087602129 4040.98198282936437 13510.46652326102776 
	-1968.202428087872249 4083.157640348380937 13521.76839737723458 
	-1968.202428088043234 4130.259298544689955 13538.2484078561065 
	-1968.202428088415445 4186.577579707421137 13565.36800078269334 
	-1968.202428089153955 4243.387785397562766 13604.10246202285634 
	-1968.202428089756495 4289.938766288189981 13645.70391116370047 
	-1968.202428090977946 4327.379783701127053 13687.60003210218929 
	-1968.202428092034097 4359.894188690680494 13733.42506254077125 
	-1968.202428093281696 4387.073543836831959 13782.6022869687913 
	-1968.202428094687548 4408.575768797779347 13834.51347340141729 
	-1968.202428096063841 4424.130771856846877 13888.50571286395279 
	-1968.20242809773481 4431.973773720520512 13934.66768624837459 
	-1968.202428098260953 4434.725022497191276 13967.28969285356106 
	-1968.202428098427163 4435.413375886628273 13983.6392749823699 
	-1968.202428098468545 4435.58547012670806 13991.81889802897786 
	-1968.202428098480596 4435.628499210105474 13995.90931207484573 
	-1968.202428098484006 4435.639255905339269 13997.95459469489651 
	-1968.202428098484461 4435.642329348703242 13999.12333835877507 
	-1968.202428098485143 4435.642841629885879 13999.70771199765113 
	-1968.202428098484916 4435.642841626726295 13999.99989881421425 
	-1884.869094765151658 4435.642841626725385 13999.99989881421425 
	-1884.869094765150976 4435.642841601453256 14002.33739334672282 
	-1884.869094765108457 4435.610055150928019 14007.0123820438148 
	-1884.869094765069349 4435.413373568267161 14016.36052200240738 
	-1884.869094764881766 4434.725024619544456 14032.71010498054966 
	-1884.869094764262854 4431.973742609845431 14065.33209757116674 
	-1884.869094762486384 4424.13083397259561 14111.4940913662922 
	-1884.869094760886583 4411.168104321796818 14156.48753228553505 
	-1884.86909476036908 4397.824843943177257 14191.44195179663438 
	-1884.869094759947757 4382.543449389403577 14225.5935726308835 
	-1884.86909475852417 4359.894248381350735 14266.57473027683227 
	-1884.869094757506673 4327.379545657778181 14312.39947822817521 
	-1884.869094756051254 4289.938925712737728 14354.2960214781524 
	-1884.869094755903234 4249.594203832718449 14390.34994553682918 
	-1884.869094754820708 4207.366041369341474 14420.70976511645495 
	-1884.869094754718617 4164.126594033105903 14445.67394119910932 
	-1884.869094754530579 4122.408913659684913 14464.49779705794754 
	-1884.869094754174739 4083.15773839087251 14478.23143758890728 
	-1884.869094753881654 4034.957050028563572 14491.14870669029006 
	-1884.86909475369157 3973.14767023798322 14500.46617495441751 
	-1884.869094753219315 3898.138155850988369 14500.46540920010739 
	-1884.869094752929868 3823.966448321355983 14489.28636994571207 
	-1884.869094752665205 3764.235943449984006 14470.86112100428181 
	-1884.869094752504679 3718.498721593549817 14450.90446194117976 
	-1884.869094752380306 3690.924405817904699 14436.33154769866269 
	-1884.869094752343472 3669.564805984293798 14423.4608714463775 
	-1884.869094752314822 3648.701211647935907 14409.80086380765169 
	-1884.869094752259116 3628.625905808650714 14394.98463393239763 
	-1884.869094752224328 3609.423071404773054 14379.07435072758017 
	-1884.869094752205228 3595.477158042346673 14366.61152647908057 
	-1884.869094752184083 3584.251992454129322 14355.7985703764607 
	-1884.869094752178853 3575.519237624557263 14346.90084933133403 
	-1884.869094752161573 3554.106520901175827 14324.25267735671696 
	-1884.86909475206653 3534.620146017741718 14299.81751710383105 
	-1884.869094752053797 3517.30459198100516 14273.90196941569775 
	-1884.869094752050614 3510.573176531936042 14263.40823064838332 
	-1884.869094752044475 3499.31155966347842 14244.71846891070163 
	-1884.869094752006731 3482.7947232878455 14213.46793754693135 
	-1884.869094751981947 3469.865578748182543 14182.79587196069406 
	-1884.869094751978309 3461.63014765016851 14159.25988397177389 
	-1884.869094751975581 3456.532604886133868 14143.43727559973195 
	-1884.869094751972852 3450.903394444818332 14123.42991443274877 
	-1884.869094751969442 3445.35354158573864 14099.11419508233666 
	-1884.869094751968305 3439.578792339591018 14066.36475512946527 
	-1884.86909475196876 3435.435600280302879 14024.96430040971427 
	-1884.869094751976945 3435.436065754792708 13975.03583111578519 
	-1884.869094751996272 3441.234404935751627 13917.07492157739398 
	-1884.869094752033106 3453.288905110060568 13864.25992753181345 
	-1884.869094752054707 3469.771895172729728 13817.15916022074634 
	-1884.869094752097226 3484.737745311020262 13782.85569860970645 
	-1884.869094752135425 3502.226036909626146 13749.76678890042058 
	-1884.869094752181809 3522.137792228174476 13718.07718356866098 
	-1884.869094752237288 3544.362244979482057 13687.9642844620721 
	-1884.869094752292767 3571.487198310198437 13656.44430418291631 
	-1884.869094752416913 3604.250684137556163 13624.48721996846689 
	-1884.869094752500814 3636.780738811849915 13598.54593145740546 
	-1884.86909475252537 3664.25717703614464 13579.81305536631044 
	-1884.8690947525713 3689.08604661226218 13564.64029109628063 
	-1884.869094752675437 3718.498462406772887 13549.09536026396927 
	-1884.869094752729097 3752.801772636034002 13534.12892757417103 
	-1884.869094752878709 3788.12763128679444 13521.76788689329442 
	-1884.869094753002628 3821.265885610353052 13512.88855382234215 
	-1884.869094753091758 3851.845664716639021 13506.80594920943622 
	-1884.869094753180661 3879.631103960197834 13502.88322307104863 
	-1884.869094753280478 3907.592778826029189 13500.52481648852154 
	-1884.869094753402123 3944.992700205409619 13499.47511768495497 
	-1884.869094753827994 3991.74251115593006 13502.10030130727682 
	-1884.869094754268872 4040.981982829363915 13510.46652326102776 
	-1884.869094754538992 4083.157640348380482 13521.76839737723458 
	-1884.869094754709977 4130.259298544689045 13538.2484078561065 
	-1884.869094755082187 4186.577579707420227 13565.36800078269334 
	-1884.869094755820697 4243.387785397561856 13604.10246202285634 
	-1884.869094756423237 4289.938766288189072 13645.70391116370047 
	-1884.869094757644689 4327.379783701126144 13687.60003210218929 
	-1884.869094758700612 4359.894188690679584 13733.42506254077125 
	-1884.869094759948439 4387.07354383683105 13782.6022869687913 
	-1884.86909476135429 4408.575768797778437 13834.51347340141729 
	-1884.869094762730583 4424.130771856845968 13888.50571286395279 
	-1884.869094764401325 4431.973773720519603 13934.66768624837459 
	-1884.869094764927922 4434.725022497190366 13967.28969285356106 
	-1884.869094765093905 4435.413375886627364 13983.6392749823699 
	-1884.869094765135287 4435.58547012670715 13991.81889802897786 
	-1884.869094765147338 4435.628499210104565 13995.90931207484573 
	-1884.869094765150749 4435.639255905338359 13997.95459469489651 
	-1884.869094765151203 4435.642329348702333 13999.12333835877507 
	-1884.869094765151885 4435.64284162988497 13999.70771199765113 
	-1884.869094765151658 4435.642841626725385 13999.99989881421425 
	-1801.535761430055572 4435.642841626726295 13999.99989881421425 
	-1801.535761430055572 4435.642841601454165 14002.33739334672282 
	-1801.535761430017828 4435.610055150928929 14007.0123820438148 
	-1801.535761429983722 4435.413373568268071 14016.36052200240738 
	-1801.535761429820013 4434.725024619545366 14032.71010498054966 
	-1801.535761429280228 4431.97374260984634 14065.33209757116674 
	-1801.535761427729312 4424.13083397259561 14111.4940913662922 
	-1801.535761426332783 4411.168104321796818 14156.48753228553505 
	-1801.535761425880992 4397.824843943177257 14191.44195179663438 
	-1801.535761425513329 4382.543449389403577 14225.5935726308835 
	-1801.535761424270504 4359.894248381349826 14266.57473027683227 
	-1801.535761423382382 4327.379545657778181 14312.39947822817521 
	-1801.535761422111591 4289.938925712737728 14354.2960214781524 
	-1801.53576142198267 4249.594203832719359 14390.34994553682918 
	-1801.535761421037478 4207.366041369341474 14420.70976511645495 
	-1801.535761420948575 4164.126594033104993 14445.67394119910932 
	-1801.535761420784411 4122.408913659684913 14464.49779705794754 
	-1801.535761420473818 4083.157738390872055 14478.23143758890728 
	-1801.535761420217796 4034.957050028562207 14491.14870669029006 
	-1801.53576142005204 3973.147670237982311 14500.46617495441751 
	-1801.535761419639357 3898.138155850987914 14500.46540920010739 
	-1801.535761419386972 3823.966448321355074 14489.28636994571207 
	-1801.535761419155506 3764.235943449983097 14470.86112100428181 
	-1801.535761419015671 3718.498721593548453 14450.90446194117976 
	-1801.535761418906532 3690.924405817903335 14436.33154769866269 
	-1801.535761418874699 3669.564805984291979 14423.4608714463775 
	-1801.535761418849461 3648.701211647934088 14409.80086380765169 
	-1801.53576141880103 3628.625905808648895 14394.98463393239763 
	-1801.535761418770562 3609.423071404770781 14379.07435072758017 
	-1801.535761418753964 3595.477158042345309 14366.61152647908057 
	-1801.535761418735092 3584.251992454127503 14355.7985703764607 
	-1801.535761418730999 3575.519237624555444 14346.90084933133403 
	-1801.535761418715765 3554.106520901174463 14324.25267735671696 
	-1801.535761418633228 3534.620146017740353 14299.81751710383105 
	-1801.53576141862186 3517.304591981003796 14273.90196941569775 
	-1801.535761418619131 3510.573176531935133 14263.40823064838332 
	-1801.53576141861322 3499.311559663477965 14244.71846891070163 
	-1801.535761418581387 3482.794723287845954 14213.46793754693135 
	-1801.535761418558877 3469.865578748182088 14182.79587196069406 
	-1801.535761418556149 3461.630147650168965 14159.25988397177389 
	-1801.535761418553875 3456.532604886134322 14143.43727559973195 
	-1801.535761418551374 3450.903394444817877 14123.42991443274877 
	-1801.535761418548418 3445.35354158573864 14099.11419508233666 
	-1801.535761418547281 3439.578792339590564 14066.36475512946527 
	-1801.535761418547736 3435.435600280303788 14024.96430040971427 
	-1801.535761418555012 3435.436065754793617 13975.03583111578519 
	-1801.535761418571838 3441.234404935752536 13917.07492157739398 
	-1801.53576141860367 3453.288905110061023 13864.25992753181345 
	-1801.535761418622542 3469.771895172730638 13817.15916022074634 
	-1801.535761418659604 3484.737745311021172 13782.85569860970645 
	-1801.535761418693028 3502.2260369096266 13749.76678890042058 
	-1801.535761418733273 3522.137792228174931 13718.07718356866098 
	-1801.535761418781931 3544.362244979481602 13687.9642844620721 
	-1801.535761418829907 3571.487198310198437 13656.44430418291631 
	-1801.535761418938364 3604.250684137556163 13624.48721996846689 
	-1801.535761419011806 3636.78073881184946 13598.54593145740546 
	-1801.535761419032951 3664.25717703614464 13579.81305536631044 
	-1801.535761419072742 3689.08604661226218 13564.64029109628063 
	-1801.535761419164146 3718.498462406772887 13549.09536026396927 
	-1801.535761419210985 3752.801772636034002 13534.12892757417103 
	-1801.535761419341725 3788.12763128679444 13521.76788689329442 
	-1801.535761419449727 3821.265885610353052 13512.88855382234215 
	-1801.535761419527489 3851.845664716639021 13506.80594920943622 
	-1801.535761419605024 3879.631103960197379 13502.88322307104863 
	-1801.53576141969188 3907.592778826029189 13500.52481648852154 
	-1801.535761419798973 3944.992700205409164 13499.47511768495497 
	-1801.535761420170275 3991.74251115593006 13502.10030130727682 
	-1801.535761420555446 4040.98198282936346 13510.46652326102776 
	-1801.535761420791005 4083.157640348380028 13521.76839737723458 
	-1801.535761420940162 4130.259298544688136 13538.2484078561065 
	-1801.535761421265079 4186.577579707419318 13565.36800078269334 
	-1801.53576142190991 4243.387785397561856 13604.10246202285634 
	-1801.535761422435826 4289.938766288188162 13645.70391116370047 
	-1801.535761423501754 4327.379783701125234 13687.60003210218929 
	-1801.535761424423981 4359.894188690678675 13733.42506254077125 
	-1801.535761425513101 4387.07354383683014 13782.6022869687913 
	-1801.535761426740237 4408.575768797777528 13834.51347340141729 
	-1801.535761427941907 4424.130771856845058 13888.50571286395279 
	-1801.535761429400736 4431.973773720518693 13934.66768624837459 
	-1801.535761429859576 4434.725022497190366 13967.28969285356106 
	-1801.535761430004868 4435.413375886627364 13983.6392749823699 
	-1801.535761430041021 4435.58547012670715 13991.81889802897786 
	-1801.535761430051707 4435.628499210105474 13995.90931207484573 
	-1801.535761430054663 4435.639255905338359 13997.95459469489651 
	-1801.535761430055118 4435.642329348703242 13999.12333835877507 
	-1801.535761430055572 4435.642841629885879 13999.70771199765113 
	-1801.535761430055572 4435.642841626726295 13999.99989881421425 
	-1718.202428096722315 4435.642841626726295 13999.99989881421425 
	-1718.202428096722315 4435.642841601454165 14002.33739334672282 
	-1718.202428096684798 4435.610055150928929 14007.0123820438148 
	-1718.202428096650465 4435.413373568268071 14016.36052200240738 
	-1718.202428096486756 4434.725024619545366 14032.71010498054966 
	-1718.202428095946971 4431.97374260984634 14065.33209757116674 
	-1718.202428094396055 4424.13083397259561 14111.4940913662922 
	-1718.202428092999526 4411.168104321796818 14156.48753228553505 
	-1718.202428092547734 4397.824843943177257 14191.44195179663438 
	-1718.202428092180071 4382.543449389403577 14225.5935726308835 
	-1718.202428090937246 4359.894248381349826 14266.57473027683227 
	-1718.202428090049125 4327.379545657778181 14312.39947822817521 
	-1718.202428088778333 4289.938925712737728 14354.2960214781524 
	-1718.202428088649413 4249.594203832719359 14390.34994553682918 
	-1718.20242808770422 4207.366041369341474 14420.70976511645495 
	-1718.202428087615317 4164.126594033104993 14445.67394119910932 
	-1718.202428087451153 4122.408913659684913 14464.49779705794754 
	-1718.202428087140561 4083.1577383908716 14478.23143758890728 
	-1718.202428086884538 4034.957050028561753 14491.14870669029006 
	-1718.202428086718783 3973.147670237981856 14500.46617495441751 
	-1718.202428086306099 3898.138155850987459 14500.46540920010739 
	-1718.202428086053715 3823.966448321354619 14489.28636994571207 
	-1718.202428085822248 3764.235943449982642 14470.86112100428181 
	-1718.202428085682413 3718.498721593547998 14450.90446194117976 
	-1718.202428085573274 3690.92440581790288 14436.33154769866269 
	-1718.202428085541442 3669.564805984291525 14423.4608714463775 
	-1718.202428085516203 3648.701211647933633 14409.80086380765169 
	-1718.202428085467773 3628.62590580864844 14394.98463393239763 
	-1718.202428085437305 3609.423071404770326 14379.07435072758017 
	-1718.202428085420706 3595.477158042344854 14366.61152647908057 
	-1718.202428085402062 3584.251992454127048 14355.7985703764607 
	-1718.202428085397742 3575.519237624554989 14346.90084933133403 
	-1718.202428085382508 3554.106520901174008 14324.25267735671696 
	-1718.202428085299971 3534.620146017739899 14299.81751710383105 
	-1718.202428085288602 3517.304591981003341 14273.90196941569775 
	-1718.202428085285874 3510.573176531934678 14263.40823064838332 
	-1718.202428085280189 3499.31155966347751 14244.71846891070163 
	-1718.20242808524813 3482.7947232878455 14213.46793754693135 
	-1718.20242808522562 3469.865578748181633 14182.79587196069406 
	-1718.202428085222891 3461.63014765016851 14159.25988397177389 
	-1718.202428085220618 3456.532604886133868 14143.43727559973195 
	-1718.202428085218116 3450.903394444817422 14123.42991443274877 
	-1718.202428085215161 3445.353541585738185 14099.11419508233666 
	-1718.202428085214024 3439.578792339590109 14066.36475512946527 
	-1718.202428085214478 3435.435600280303333 14024.96430040971427 
	-1718.202428085221754 3435.436065754793162 13975.03583111578519 
	-1718.20242808523858 3441.234404935752082 13917.07492157739398 
	-1718.202428085270412 3453.288905110060568 13864.25992753181345 
	-1718.202428085289284 3469.771895172730183 13817.15916022074634 
	-1718.202428085326346 3484.737745311020717 13782.85569860970645 
	-1718.20242808535977 3502.226036909626146 13749.76678890042058 
	-1718.202428085400243 3522.137792228174476 13718.07718356866098 
	-1718.202428085448446 3544.362244979481147 13687.9642844620721 
	-1718.202428085496877 3571.487198310197982 13656.44430418291631 
	-1718.202428085605106 3604.250684137555709 13624.48721996846689 
	-1718.202428085678548 3636.780738811849005 13598.54593145740546 
	-1718.202428085699694 3664.257177036144185 13579.81305536631044 
	-1718.202428085739712 3689.086046612261725 13564.64029109628063 
	-1718.202428085830888 3718.498462406772433 13549.09536026396927 
	-1718.202428085877727 3752.801772636033547 13534.12892757417103 
	-1718.202428086008467 3788.127631286793985 13521.76788689329442 
	-1718.20242808611647 3821.265885610352598 13512.88855382234215 
	-1718.202428086194232 3851.845664716638566 13506.80594920943622 
	-1718.202428086271766 3879.631103960196924 13502.88322307104863 
	-1718.20242808635885 3907.592778826028734 13500.52481648852154 
	-1718.202428086465488 3944.99270020540871 13499.47511768495497 
	-1718.202428086837017 3991.742511155929606 13502.10030130727682 
	-1718.202428087222188 4040.981982829363005 13510.46652326102776 
	-1718.202428087457747 4083.157640348379573 13521.76839737723458 
	-1718.202428087606904 4130.259298544688136 13538.2484078561065 
	-1718.202428087931821 4186.577579707419318 13565.36800078269334 
	-1718.202428088576653 4243.387785397561856 13604.10246202285634 
	-1718.202428089102568 4289.938766288188162 13645.70391116370047 
	-1718.202428090168496 4327.379783701125234 13687.60003210218929 
	-1718.202428091090724 4359.894188690678675 13733.42506254077125 
	-1718.202428092179844 4387.07354383683014 13782.6022869687913 
	-1718.202428093406979 4408.575768797777528 13834.51347340141729 
	-1718.202428094608649 4424.130771856845058 13888.50571286395279 
	-1718.202428096067251 4431.973773720518693 13934.66768624837459 
	-1718.202428096526546 4434.725022497190366 13967.28969285356106 
	-1718.202428096671611 4435.413375886627364 13983.6392749823699 
	-1718.202428096707763 4435.58547012670715 13991.81889802897786 
	-1718.20242809671845 4435.628499210105474 13995.90931207484573 
	-1718.202428096721405 4435.639255905338359 13997.95459469489651 
	-1718.20242809672186 4435.642329348703242 13999.12333835877507 
	-1718.202428096722315 4435.642841629885879 13999.70771199765113 
	-1718.202428096722315 4435.642841626726295 13999.99989881421425 
	0 
	
	0 
	0 
	84 0 0.002232142857142857019 0.004464285714285714038 0.008928571428571428076 0.01785714285714285615 0.0357142857142857123 0.05357142857142856845 0.0625 0.07142857142857142461 0.08928571428571427382 0.1071428571428571369 0.125 0.1428571428571428492 0.1587301587301587213 0.1746031746031745935 0.1904761904761904656 0.2023809523809523836 0.2142857142857142738 0.238095238095238082 0.2619047619047618625 0.2857142857142856984 0.3095238095238095344 0.3214285714285713969 0.3333333333333333148 0.3392857142857143016 0.3452380952380952328 0.3571428571428570953 0.3630952380952380265 0.3690476190476190133 0.375 0.3779761904761904656 0.3809523809523809312 0.4047619047619047672 0.4077380952380952328 0.4107142857142856984 0.4166666666666666297 0.4285714285714285476 0.4444444444444444198 0.4484126984126983739 0.4523809523809523281 0.4603174603174602919 0.4682539682539682557 0.476190476190476164 0.4920634920634920362 0.5079365079365079083 0.5238095238095237249 0.5476190476190475609 0.5595238095238095344 0.5714285714285713969 0.5833333333333332593 0.5952380952380951218 0.6071428571428569843 0.6190476190476189577 0.6349206349206348854 0.650793650793650702 0.6587301587301586103 0.6666666666666666297 0.6785714285714286031 0.6904761904761904656 0.7023809523809523281 0.7142857142857141906 0.7232142857142855874 0.7321428571428569843 0.7410714285714283811 0.749999999999999889 0.7678571428571427937 0.7857142857142855874 0.7976190476190474499 0.8095238095238094234 0.8333333333333332593 0.8571428571428570953 0.875 0.8928571428571427937 0.9107142857142856984 0.9285714285714286031 0.9464285714285713969 0.9642857142857143016 0.9821428571428572063 0.9910714285714286031 0.9955357142857143016 0.9977678571428572063 0.9988839285714286031 0.9994419642857143016 0.9997209821428572063 
	0 
	0 
	0 
	F 1 F 0 F 1 F 0 } I I I I #
tcoedge-coedge $-1 -1 $-1 $14 $14 $18 $19 reversed $9 $20 -6.283185307179586232 -0 #
tcoedge-coedge $-1 -1 $-1 $21 $22 $11 $16 reversed $12 $23 -6.283185307179586232 -0 #
tedge-edge $-1 -1 $-1 $24 0 $24 6.283185307179586232 $15 $25 forward @7 unknown 0.0006640353644250190186 #
pcurve $-1 -1 $-1 0 forward { exppc nurbs 2 periodic 5 
	0 2 1.570796326794896558 2 3.141592653589793116 2 4.712388980384689674 2 6.283185307179586232 2 
	0 500 1 
	-500 500 0.707106781186543798 
	-500 0 1 
	-500 -500 0.7071067811865463515 
	0 -500 1 
	500 -500 0.7071067811865463515 
	500 0 1 
	500 500 0.707106781186543798 
	0 500 1 
	0 
	plane -1718.202428084613075 3935.64279798982443 14000.00000000000182 1 -3.637978807091713027e-15 0 0 0 -1 forward_v I I I I 
	} 0 0 #
tcoedge-coedge $-1 -1 $-1 $22 $21 $14 $19 forward $12 $26 0 6.283185307179586232 #
tedge-edge $-1 -1 $-1 $27 0 $27 6.283185307179586232 $18 $28 forward @7 unknown 0.0006640353662402031978 #
pcurve $-1 -1 $-1 0 forward { exppc nurbs 2 periodic 5 
	-6.283185307179586232 2 -4.712388980384689674 2 -3.141592653589793116 2 -1.570796326794896558 2 0 2 
	0 500 1 
	500 500 0.707106781186543798 
	500 0 1 
	500 -500 0.7071067811865463515 
	0 -500 1 
	-500 -500 0.7071067811865463515 
	-500 0 1 
	-500 500 0.707106781186543798 
	0 500 1 
	0 
	plane -1968.202428084613075 3935.64279798982534 14000.00000000000182 -1 3.637978807091713027e-15 -0 0 0 -1 reverse_v I I I I 
	} 0 0 #
coedge $-1 -1 $-1 $18 $15 $22 $29 reversed $12 $30 #
coedge $-1 -1 $-1 $15 $18 $21 $29 forward $12 $31 #
pcurve $-1 -1 $-1 0 forward { exppc nubs 1 periodic 2 
	-6.283185307179586232 1 -0 1 
	1 1 
	0 1 
	0 
	spline forward { ref 0 } I I I I 
	} 0 0 #
tvertex-vertex $-1 -1 $-1 $16 $32 0.000110194124894420634 #
ellipse-curve $-1 -1 $-1 -1718.202428084613075 3935.64279798982443 14000.00000000000182 1 -3.637978807091713027e-15 0 1.818989403545856476e-12 500 0 1 I I #
pcurve $-1 -1 $-1 0 forward { exppc nubs 1 periodic 2 
	0 1 6.283185307179586232 1 
	0 0 
	1 0 
	4.411402399551012014e-13 
	spline forward { ref 0 } I I I I 
	} 0 0 #
tvertex-vertex $-1 -1 $-1 $19 $33 0.0001101941249491984173 #
ellipse-curve $-1 -1 $-1 -1968.202428084613075 3935.64279798982534 14000.00000000000182 1 -3.637978807091713027e-15 0 1.818989403545856476e-12 500 0 1 I I #
edge $-1 -1 $-1 $27 5.549463810187281367e-11 $24 1 $22 $34 forward @7 tangent #
pcurve $-1 -1 $-1 -1 $34 0 0 #
pcurve $-1 -1 $-1 1 $34 1 0 #
point $-1 -1 $-1 -1718.202428084611256 4435.64279798982443 14000.00000000000182 #
point $-1 -1 $-1 -1968.202428084611256 4435.64279798982534 14000.00000000000182 #
intcurve-curve $-1 -1 $-1 forward { parcur full nubs 3 open 2 
	0 3 1 3 
	-1968.202428098484916 4435.642841626726295 13999.99989881421425 
	-1884.869094765151658 4435.642841626725385 13999.99989881421425 
	-1801.535761430055572 4435.642841626726295 13999.99989881421425 
	-1718.202428096722315 4435.642841626726295 13999.99989881421425 
	0 
	
	spline forward { ref 0 } I I I I 
	null_surface 
	nubs 1 open 2 
	0 1 1 1 
	0 0 
	0 1 
	
	nullbs 
	I I 
	0 
	0 
	0 
	surf1 } F 5.549463810187281367e-11 F 1 #
End-of-ACIS-data 