700 0 1 0           
4 LibG 20 ASM 224.0.1.65535 NT 24 Wed Jul 17 12:52:14 2019 
1000 9.999999999999999547e-07 1.000000000000000036e-10 
body $-1 -1 $-1 $1 $-1 $2 #
lump $-1 -1 $-1 $-1 $3 $0 #
transform $-1 -1 1 0 0 0 1 0 0 0 1 0 0 0 1 no_rotate no_reflect no_shear #
shell $-1 -1 $-1 $-1 $-1 $4 $-1 $1 #
face $-1 -1 $-1 $5 $6 $3 $-1 $7 forward single #
face $-1 -1 $-1 $8 $9 $3 $-1 $10 reversed single #
loop $-1 -1 $-1 $-1 $11 $4 #
plane-surface $-1 -1 $-1 17031.79757191538738 3935.642797989756218 14000.00000000000182 1 -3.637978807091713027e-15 0 0 0 -1 forward_v I I I I #
face $-1 -1 $-1 $-1 $12 $3 $-1 $13 forward single #
loop $-1 -1 $-1 $-1 $14 $5 #
plane-surface $-1 -1 $-1 16781.79757191538738 3935.642797989757128 14000.00000000000182 1 -3.637978807091713027e-15 0 0 0 -1 forward_v I I I I #
tcoedge-coedge $-1 -1 $-1 $11 $11 $15 $16 forward $6 $17 0 6.283185307179586232 #
loop $-1 -1 $-1 $-1 $18 $8 #
spline-surface $-1 -1 $-1 forward { exactsur full nubs 3 3 periodic open none none 84 2 
	0 3 0.001116071428571428509 1 0.002232142857142857019 1 0.004464285714285714038 1 0.008928571428571428076 1 
	0.01785714285714285615 1 0.02678571428571428423 1 0.0357142857142857123 1 0.05357142857142856845 1 0.07142857142857142461 1 
	0.08928571428571427382 1 0.1071428571428571369 1 0.125 1 0.1428571428571428492 1 0.1587301587301587213 1 
	0.1825396825396825295 1 0.1904761904761904656 1 0.2023809523809523836 1 0.2142857142857142738 1 0.238095238095238082 1 
	0.2619047619047618625 1 0.2857142857142856984 1 0.2976190476190476164 1 0.3095238095238095344 1 0.3214285714285713969 1 
	0.3333333333333333148 1 0.3392857142857143016 1 0.3452380952380952328 1 0.3571428571428570953 1 0.3630952380952380265 1 
	0.3690476190476190133 1 0.3809523809523809312 1 0.3928571428571428492 1 0.4047619047619047672 1 0.4166666666666666297 1 
	0.4285714285714285476 1 0.4444444444444444198 1 0.4603174603174602919 1 0.476190476190476164 1 0.4781746031746031411 1 
	0.4791666666666666297 1 0.4801587301587301182 1 0.4841269841269840724 1 0.4920634920634920362 1 0.5 1 
	0.5039682539682539542 1 0.5079365079365079083 1 0.5238095238095237249 1 0.5476190476190475609 1 0.5595238095238095344 1 
	0.5654761904761904656 1 0.5714285714285713969 1 0.5952380952380951218 1 0.6190476190476189577 1 0.6349206349206348854 1 
	0.650793650793650702 1 0.6666666666666666297 1 0.6904761904761904656 1 0.7142857142857141906 1 0.7321428571428569843 1 
	0.749999999999999889 1 0.7678571428571427937 1 0.7857142857142855874 1 0.8095238095238094234 1 0.8214285714285713969 1 
	0.8333333333333332593 1 0.8452380952380951218 1 0.8571428571428570953 1 0.875 1 0.8928571428571427937 1 
	0.9107142857142856984 1 0.9285714285714286031 1 0.9464285714285713969 1 0.9642857142857143016 1 0.9732142857142858094 1 
	0.9821428571428572063 1 0.9910714285714286031 1 0.9955357142857143016 1 0.9977678571428572063 1 0.9988839285714286031 1 
	0.9994419642857143016 1 0.9997209821428572063 1 0.9998604910714286031 1 1 3 
	0 3 1 3 
	16781.79757240227991 4435.642811802347751 14000.00005172318015 
	16781.79757240227991 4435.642811800827076 14001.16879897782928 
	16781.79757240194886 4435.634615898203265 14003.50629338487124 
	16781.79757240162144 4435.585441691172491 14008.18105233827919 
	16781.797572400028 4435.413337789869729 14016.36067354841543 
	16781.79757239487299 4434.725034300500738 14032.71025783299228 
	16781.79757237837839 4432.759650582899667 14056.01165947550908 
	16781.79757236302976 4428.836871986524784 14083.79706752969832 
	16781.79757234592034 4421.537984430375218 14120.49285360440263 
	16781.7975722906267 4408.575845083656532 14165.48641974382735 
	16781.79757224560308 4387.073367293899537 14217.397459315991 
	16781.79757219542807 4359.894195192926418 14266.5748133163579 
	16781.79757215409336 4327.379473873051211 14312.39940471357477 
	16781.79757210680327 4289.939024020542092 14354.29630032847126 
	16781.79757209415402 4249.59397853516748 14390.34957297351139 
	16781.79757206610884 4200.610233147330291 14425.56875955283795 
	16781.79757205921851 4156.693792790670159 14449.48396243231218 
	16781.79757205263741 4114.558372537310788 14467.24402425104927 
	16781.79757204816997 4083.157842545018866 14478.23174655513685 
	16781.79757203970803 4034.956828671865424 14491.14829346347688 
	16781.79757203018744 3973.147709782736456 14500.46606910397895 
	16781.79757201329267 3898.137883219437299 14500.46554997604289 
	16781.797572000738 3836.328573181386673 14491.14873813517988 
	16781.79757199780943 3788.127684679592676 14478.23201649202383 
	16781.79757199160667 3752.801745963758549 14465.87146882921297 
	16781.79757198708467 3718.498437653562178 14450.9048189262503 
	16781.79757198222796 3690.924288143702597 14436.33151314824681 
	16781.79757198084189 3669.564641788195786 14423.4609289048658 
	16781.79757197972503 3648.701065559414019 14409.80087981176803 
	16781.79757197765139 3628.625732644606614 14394.98467819058897 
	16781.79757197630897 3609.422919074518177 14379.07436378788589 
	16781.79757197546496 3590.828301037628535 14362.45732452644552 
	16781.79757197228537 3568.77472596793632 14340.40380514535718 
	16781.79757197011713 3544.362196915757067 14312.0358531339516 
	16781.79757196699575 3522.137751027579725 14281.92292682941661 
	16781.79757196598439 3502.226015186764926 14250.23327687592973 
	16781.79757196367063 3482.794619231378874 14213.46783644325842 
	16781.79757196159335 3465.016766356955486 14171.29380964290249 
	16781.79757196063292 3450.300262193844446 14123.58331157186694 
	16781.79757195878847 3443.292571399169901 14088.91843550261365 
	16781.79757195862476 3440.472380867962784 14069.38170665847429 
	16781.79757195862476 3439.917128304394737 14065.26340328195329 
	16781.79757195860657 3439.122779906721007 14059.08087488172168 
	16781.79757195854108 3437.610508392699103 14045.65922767386655 
	16781.79757195836282 3436.057280470245587 14024.93314471254234 
	16781.79757195829734 3435.539133125899298 14004.15541393163403 
	16781.79757195827915 3435.746365037292435 13987.53321790193149 
	16781.79757195838829 3436.678751201863179 13962.6154802142446 
	16781.7975719587339 3441.234332201302095 13917.07469013384434 
	16781.79757196051651 3453.289084699189971 13864.25971714833577 
	16781.79757196131322 3467.711519961540489 13823.04648919443207 
	16781.79757196158971 3477.254716018216641 13800.0071458559014 
	16781.7975719621536 3492.851232706042538 13766.00725237879487 
	16781.79757196711216 3520.978848790474785 13717.28661234440006 
	16781.79757197202343 3562.551099838559821 13665.15888533430007 
	16781.79757197662911 3604.2508968930847 13624.48694852325025 
	16781.79757197803701 3643.286734381734277 13593.35726704739318 
	16781.79757198263906 3692.217783965202216 13561.75299452295803 
	16781.79757198859079 3752.289593703885203 13532.82328698555102 
	16781.79757200158201 3817.993888429565231 13512.55745075331288 
	16781.79757201070606 3879.543242248044862 13502.10063704019194 
	16781.79757202037217 3935.643092343695571 13498.94953566590448 
	16781.7975720306531 3991.742732555964722 13502.10071596369562 
	16781.79757204410998 4053.292503399588895 13512.55667957242622 
	16781.79757205939313 4107.049676153843393 13529.13952872373375 
	16781.79757206328213 4152.787052172144286 13549.09588216675184 
	16781.79757207133662 4185.876206737008943 13566.58339153145789 
	16781.79757207977673 4217.565625558770989 13586.49554821672427 
	16781.79757209004674 4252.69764014651264 13612.42359840245808 
	16781.79757211039032 4289.938958878127778 13645.70411625724591 
	16781.79757213742414 4327.379722961595689 13687.60048205389103 
	16781.79757215549398 4359.89425268658124 13733.42535390403282 
	16781.79757222129774 4387.073368466408283 13782.60266243448859 
	16781.79757227269147 4408.575867930911954 13834.51370332556144 
	16781.79757233827695 4421.537987902029272 13879.50725509067706 
	16781.79757235779107 4428.836876662512623 13916.20303995462746 
	16781.79757237550075 4432.759652471532718 13943.98844570421352 
	16781.79757239410901 4434.725035083834882 13967.28984606361155 
	16781.79757239998798 4435.413337956681062 13983.63942989254792 
	16781.79757240169783 4435.585441758812522 13991.81905106402337 
	16781.79757240212348 4435.628469142193353 13995.90946508353591 
	16781.79757240224353 4435.639226136692741 13997.95474761825244 
	16781.797572402269 4435.641915384314416 13998.97739831940271 
	16781.79757240227627 4435.642683741987639 13999.56177150108851 
	16781.79757240227991 4435.642811802537835 13999.85395831634924 
	16781.79757240227991 4435.642811802347751 14000.00005172318015 
	16865.13090573561203 4435.642811802346841 14000.00005172318015 
	16865.13090573561203 4435.642811800826166 14001.16879897782928 
	16865.13090573528098 4435.634615898202355 14003.50629338487124 
	16865.13090573495356 4435.585441691171582 14008.18105233827919 
	16865.13090573336012 4435.41333778986882 14016.36067354841543 
	16865.13090572820511 4434.725034300499829 14032.71025783299228 
	16865.13090571171051 4432.759650582898757 14056.01165947550908 
	16865.13090569636188 4428.836871986523875 14083.79706752969832 
	16865.13090567925246 4421.537984430374308 14120.49285360440263 
	16865.13090562395882 4408.575845083655622 14165.48641974382735 
	16865.1309055789352 4387.073367293898627 14217.397459315991 
	16865.1309055287602 4359.894195192925508 14266.5748133163579 
	16865.13090548742548 4327.379473873050301 14312.39940471357477 
	16865.13090544013539 4289.939024020541183 14354.29630032847126 
	16865.13090542748614 4249.593978535166571 14390.34957297351139 
	16865.13090539944096 4200.610233147329382 14425.56875955283795 
	16865.13090539255063 4156.693792790669249 14449.48396243231218 
	16865.13090538596953 4114.558372537309879 14467.24402425104927 
	16865.13090538150209 4083.157842545018411 14478.23174655513685 
	16865.13090537304015 4034.956828671864969 14491.14829346347688 
	16865.13090536351956 3973.147709782736001 14500.46606910397895 
	16865.13090534662479 3898.137883219436844 14500.46554997604289 
	16865.13090533407012 3836.328573181386218 14491.14873813517988 
	16865.13090533114155 3788.127684679592221 14478.23201649202383 
	16865.13090532493879 3752.801745963758094 14465.87146882921297 
	16865.13090532041679 3718.498437653561723 14450.9048189262503 
	16865.13090531556009 3690.924288143702142 14436.33151314824681 
	16865.13090531417402 3669.564641788195331 14423.4609289048658 
	16865.13090531305716 3648.701065559413564 14409.80087981176803 
	16865.13090531098351 3628.62573264460616 14394.98467819058897 
	16865.13090530964109 3609.422919074517722 14379.07436378788589 
	16865.13090530879708 3590.82830103762808 14362.45732452644552 
	16865.13090530561749 3568.774725967935865 14340.40380514535718 
	16865.13090530344925 3544.362196915756613 14312.0358531339516 
	16865.13090530032787 3522.13775102757927 14281.92292682941661 
	16865.13090529931651 3502.226015186764471 14250.23327687592973 
	16865.13090529700276 3482.794619231378419 14213.46783644325842 
	16865.13090529492547 3465.016766356955031 14171.29380964290249 
	16865.13090529396504 3450.300262193843992 14123.58331157186694 
	16865.13090529212059 3443.292571399169447 14088.91843550261365 
	16865.13090529195688 3440.472380867962329 14069.38170665847429 
	16865.13090529195688 3439.917128304394282 14065.26340328195329 
	16865.13090529193869 3439.122779906720552 14059.08087488172168 
	16865.1309052918732 3437.610508392698648 14045.65922767386655 
	16865.13090529169494 3436.057280470245132 14024.93314471254234 
	16865.13090529162946 3435.539133125898843 14004.15541393163403 
	16865.13090529161127 3435.74636503729198 13987.53321790193149 
	16865.13090529172041 3436.678751201862724 13962.6154802142446 
	16865.13090529206602 3441.23433220130164 13917.07469013384434 
	16865.13090529384863 3453.289084699189516 13864.25971714833577 
	16865.13090529464534 3467.711519961540034 13823.04648919443207 
	16865.13090529492183 3477.254716018216186 13800.0071458559014 
	16865.13090529548572 3492.851232706042083 13766.00725237879487 
	16865.13090530044428 3520.978848790474331 13717.28661234440006 
	16865.13090530535555 3562.551099838559367 13665.15888533430007 
	16865.13090530996124 3604.250896893084246 13624.48694852325025 
	16865.13090531136913 3643.286734381733822 13593.35726704739318 
	16865.13090531597118 3692.217783965201761 13561.75299452295803 
	16865.13090532192291 3752.289593703884748 13532.82328698555102 
	16865.13090533491413 3817.993888429564777 13512.55745075331288 
	16865.13090534403818 3879.543242248044407 13502.10063704019194 
	16865.13090535370429 3935.643092343695116 13498.94953566590448 
	16865.13090536398522 3991.742732555964267 13502.10071596369562 
	16865.1309053774421 4053.292503399588441 13512.55667957242622 
	16865.13090539272525 4107.049676153842483 13529.13952872373375 
	16865.13090539661425 4152.787052172143376 13549.09588216675184 
	16865.13090540466874 4185.876206737008033 13566.58339153145789 
	16865.13090541310885 4217.56562555877008 13586.49554821672427 
	16865.13090542337886 4252.697640146511731 13612.42359840245808 
	16865.13090544372244 4289.938958878126869 13645.70411625724591 
	16865.13090547075626 4327.37972296159478 13687.60048205389103 
	16865.1309054888261 4359.89425268658033 13733.42535390403282 
	16865.13090555462986 4387.073368466407373 13782.60266243448859 
	16865.13090560602359 4408.575867930911045 13834.51370332556144 
	16865.13090567160907 4421.537987902028362 13879.50725509067706 
	16865.13090569112319 4428.836876662511713 13916.20303995462746 
	16865.13090570883287 4432.759652471531808 13943.98844570421352 
	16865.13090572744113 4434.725035083833973 13967.28984606361155 
	16865.13090573332011 4435.413337956680152 13983.63942989254792 
	16865.13090573502996 4435.585441758811612 13991.81905106402337 
	16865.1309057354556 4435.628469142192444 13995.90946508353591 
	16865.13090573557565 4435.639226136691832 13997.95474761825244 
	16865.13090573560112 4435.641915384313506 13998.97739831940271 
	16865.13090573560839 4435.64268374198673 13999.56177150108851 
	16865.13090573561203 4435.642811802536926 13999.85395831634924 
	16865.13090573561203 4435.642811802346841 14000.00005172318015 
	16948.46423907619828 4435.642811802347751 14000.00005172318015 
	16948.46423907619828 4435.642811800827076 14001.16879897782928 
	16948.46423907585631 4435.634615898203265 14003.50629338487124 
	16948.46423907552889 4435.585441691172491 14008.18105233827919 
	16948.46423907390999 4435.413337789869729 14016.36067354841543 
	16948.46423906867858 4434.725034300500738 14032.71025783299228 
	16948.46423905194024 4432.759650582899667 14056.01165947550908 
	16948.46423903635878 4428.836871986524784 14083.79706752969832 
	16948.46423901899834 4421.537984430374308 14120.49285360440263 
	16948.46423896288616 4408.575845083654713 14165.48641974382735 
	16948.46423891718587 4387.073367293898627 14217.397459315991 
	16948.46423886626872 4359.894195192924599 14266.5748133163579 
	16948.46423882431554 4327.379473873049392 14312.39940471357477 
	16948.46423877631969 4289.939024020540273 14354.29630032847126 
	16948.4642387634849 4249.593978535165661 14390.34957297351139 
	16948.46423873501772 4200.610233147328472 14425.56875955283795 
	16948.4642387280328 4156.69379279066834 14449.48396243231218 
	16948.46423872134619 4114.558372537308969 14467.24402425104927 
	16948.46423871681327 4083.157842545017502 14478.23174655513685 
	16948.464238708224 4034.956828671864059 14491.14829346347688 
	16948.46423869856153 3973.147709782735092 14500.46606910397895 
	16948.46423868141937 3898.13788321943548 14500.46554997604289 
	16948.4642386686719 3836.328573181385309 14491.14873813517988 
	16948.46423866570331 3788.127684679591312 14478.23201649202383 
	16948.46423865940596 3752.801745963757185 14465.87146882921297 
	16948.46423865481847 3718.498437653560813 14450.9048189262503 
	16948.46423864988901 3690.924288143701688 14436.33151314824681 
	16948.46423864848111 3669.564641788194876 14423.4609289048658 
	16948.46423864734606 3648.701065559413109 14409.80087981176803 
	16948.46423864524331 3628.62573264460616 14394.98467819058897 
	16948.46423864387907 3609.422919074517722 14379.07436378788589 
	16948.46423864302415 3590.82830103762808 14362.45732452644552 
	16948.46423863979726 3568.774725967935865 14340.40380514535718 
	16948.46423863759628 3544.362196915756613 14312.0358531339516 
	16948.4642386344276 3522.137751027578815 14281.92292682941661 
	16948.46423863340533 3502.226015186764471 14250.23327687592973 
	16948.46423863105156 3482.794619231377965 14213.46783644325842 
	16948.46423862894881 3465.016766356954122 14171.29380964290249 
	16948.46423862797383 3450.300262193843992 14123.58331157186694 
	16948.46423862610391 3443.292571399167628 14088.91843550261365 
	16948.4642386259402 3440.472380867961874 14069.38170665847429 
	16948.4642386259402 3439.917128304392918 14065.26340328195329 
	16948.46423862592565 3439.122779906720098 14059.08087488172168 
	16948.46423862585652 3437.610508392698193 14045.65922767386655 
	16948.46423862567462 3436.057280470244677 14024.93314471254234 
	16948.4642386256055 3435.539133125898388 14004.15541393163403 
	16948.46423862558731 3435.746365037291525 13987.53321790193149 
	16948.46423862569645 3436.678751201862724 13962.6154802142446 
	16948.4642386260457 3441.23433220130164 13917.07469013384434 
	16948.46423862785377 3453.289084699189516 13864.25971714833577 
	16948.46423862866504 3467.711519961540034 13823.04648919443207 
	16948.46423862894517 3477.254716018216641 13800.0071458559014 
	16948.46423862951633 3492.851232706042083 13766.00725237879487 
	16948.46423863454766 3520.978848790474331 13717.28661234440006 
	16948.46423863952805 3562.551099838559367 13665.15888533430007 
	16948.46423864420285 3604.250896893085155 13624.48694852325025 
	16948.46423864563621 3643.286734381734277 13593.35726704739318 
	16948.46423865030738 3692.217783965202216 13561.75299452295803 
	16948.46423865634642 3752.289593703885203 13532.82328698555102 
	16948.4642386695341 3817.993888429564777 13512.55745075331288 
	16948.46423867879275 3879.543242248044862 13502.10063704019194 
	16948.46423868860438 3935.643092343695571 13498.94953566590448 
	16948.46423869903811 3991.742732555964267 13502.10071596369562 
	16948.46423871269508 4053.292503399588895 13512.55667957242622 
	16948.46423872820378 4107.049676153842483 13529.13952872373375 
	16948.46423873215099 4152.787052172144286 13549.09588216675184 
	16948.46423874032553 4185.876206737008033 13566.58339153145789 
	16948.46423874889297 4217.565625558770989 13586.49554821672427 
	16948.46423875931214 4252.69764014651264 13612.42359840245808 
	16948.46423877996494 4289.938958878127778 13645.70411625724591 
	16948.46423880739894 4327.379722961595689 13687.60048205389103 
	16948.46423882573799 4359.89425268658124 13733.42535390403282 
	16948.46423889252037 4387.073368466408283 13782.60266243448859 
	16948.46423894468171 4408.575867930911954 13834.51370332556144 
	16948.46423901123489 4421.537987902029272 13879.50725509067706 
	16948.46423903104733 4428.836876662512623 13916.20303995462746 
	16948.4642390490153 4432.759652471532718 13943.98844570421352 
	16948.46423906790369 4434.725035083834882 13967.28984606361155 
	16948.46423907386634 4435.413337956681062 13983.63942989254792 
	16948.46423907560529 4435.585441758812522 13991.81905106402337 
	16948.46423907603821 4435.628469142193353 13995.90946508353591 
	16948.46423907615826 4435.639226136692741 13997.95474761825244 
	16948.46423907618737 4435.641915384314416 13998.97739831940271 
	16948.46423907619101 4435.642683741987639 13999.56177150108851 
	16948.46423907619828 4435.642811802537835 13999.85395831634924 
	16948.46423907619828 4435.642811802347751 14000.00005172318015 
	17031.7975724095304 4435.642811802347751 14000.00005172318015 
	17031.7975724095304 4435.642811800827076 14001.16879897782928 
	17031.79757240918843 4435.634615898203265 14003.50629338487124 
	17031.79757240886101 4435.585441691172491 14008.18105233827919 
	17031.79757240724211 4435.413337789869729 14016.36067354841543 
	17031.7975724020107 4434.725034300500738 14032.71025783299228 
	17031.79757238527236 4432.759650582899667 14056.01165947550908 
	17031.7975723696909 4428.836871986524784 14083.79706752969832 
	17031.79757235233046 4421.537984430374308 14120.49285360440263 
	17031.79757229621828 4408.575845083654713 14165.48641974382735 
	17031.79757225051799 4387.073367293898627 14217.397459315991 
	17031.79757219960084 4359.894195192924599 14266.5748133163579 
	17031.79757215764766 4327.379473873049392 14312.39940471357477 
	17031.79757210965181 4289.939024020540273 14354.29630032847126 
	17031.79757209681702 4249.593978535165661 14390.34957297351139 
	17031.79757206834984 4200.610233147328472 14425.56875955283795 
	17031.79757206136492 4156.69379279066834 14449.48396243231218 
	17031.79757205467831 4114.558372537308969 14467.24402425104927 
	17031.79757205014539 4083.157842545017047 14478.23174655513685 
	17031.79757204155612 4034.956828671863605 14491.14829346347688 
	17031.79757203189365 3973.147709782734637 14500.46606910397895 
	17031.79757201475149 3898.137883219435025 14500.46554997604289 
	17031.79757200200402 3836.328573181384854 14491.14873813517988 
	17031.79757199903543 3788.127684679590857 14478.23201649202383 
	17031.79757199273809 3752.80174596375673 14465.87146882921297 
	17031.79757198815059 3718.498437653560359 14450.9048189262503 
	17031.79757198322113 3690.924288143701233 14436.33151314824681 
	17031.79757198181323 3669.564641788194422 14423.4609289048658 
	17031.79757198067819 3648.701065559412655 14409.80087981176803 
	17031.79757197857543 3628.625732644605705 14394.98467819058897 
	17031.79757197721119 3609.422919074517267 14379.07436378788589 
	17031.79757197635627 3590.828301037627625 14362.45732452644552 
	17031.79757197312938 3568.77472596793541 14340.40380514535718 
	17031.7975719709284 3544.362196915756158 14312.0358531339516 
	17031.79757196775972 3522.137751027578361 14281.92292682941661 
	17031.79757196673745 3502.226015186764016 14250.23327687592973 
	17031.79757196438368 3482.79461923137751 14213.46783644325842 
	17031.79757196228093 3465.016766356953667 14171.29380964290249 
	17031.79757196130595 3450.300262193843537 14123.58331157186694 
	17031.79757195943603 3443.292571399167173 14088.91843550261365 
	17031.79757195927232 3440.472380867961419 14069.38170665847429 
	17031.79757195927232 3439.917128304392463 14065.26340328195329 
	17031.79757195925777 3439.122779906719643 14059.08087488172168 
	17031.79757195918864 3437.610508392697739 14045.65922767386655 
	17031.79757195900675 3436.057280470244223 14024.93314471254234 
	17031.79757195893762 3435.539133125897933 14004.15541393163403 
	17031.79757195891943 3435.746365037291071 13987.53321790193149 
	17031.79757195902857 3436.678751201862269 13962.6154802142446 
	17031.79757195937782 3441.234332201301186 13917.07469013384434 
	17031.79757196118589 3453.289084699189061 13864.25971714833577 
	17031.79757196199716 3467.71151996153958 13823.04648919443207 
	17031.79757196227729 3477.254716018216186 13800.0071458559014 
	17031.79757196284845 3492.851232706041628 13766.00725237879487 
	17031.79757196787978 3520.978848790473876 13717.28661234440006 
	17031.79757197286017 3562.551099838558912 13665.15888533430007 
	17031.79757197753497 3604.2508968930847 13624.48694852325025 
	17031.79757197896834 3643.286734381733822 13593.35726704739318 
	17031.7975719836395 3692.217783965201761 13561.75299452295803 
	17031.79757198967854 3752.289593703884748 13532.82328698555102 
	17031.79757200286622 3817.993888429564322 13512.55745075331288 
	17031.79757201212487 3879.543242248044407 13502.10063704019194 
	17031.7975720219365 3935.643092343695116 13498.94953566590448 
	17031.79757203237023 3991.742732555963812 13502.10071596369562 
	17031.7975720460272 4053.292503399588441 13512.55667957242622 
	17031.7975720615359 4107.049676153842483 13529.13952872373375 
	17031.79757206548311 4152.787052172144286 13549.09588216675184 
	17031.79757207365765 4185.876206737008033 13566.58339153145789 
	17031.79757208222509 4217.565625558770989 13586.49554821672427 
	17031.79757209264426 4252.69764014651264 13612.42359840245808 
	17031.79757211329706 4289.938958878127778 13645.70411625724591 
	17031.79757214073106 4327.379722961595689 13687.60048205389103 
	17031.79757215907011 4359.89425268658124 13733.42535390403282 
	17031.79757222585249 4387.073368466408283 13782.60266243448859 
	17031.79757227801383 4408.575867930911954 13834.51370332556144 
	17031.79757234456702 4421.537987902029272 13879.50725509067706 
	17031.79757236437945 4428.836876662512623 13916.20303995462746 
	17031.79757238234743 4432.759652471532718 13943.98844570421352 
	17031.79757240123581 4434.725035083834882 13967.28984606361155 
	17031.79757240719846 4435.413337956681062 13983.63942989254792 
	17031.79757240893741 4435.585441758812522 13991.81905106402337 
	17031.79757240937033 4435.628469142193353 13995.90946508353591 
	17031.79757240949039 4435.639226136692741 13997.95474761825244 
	17031.79757240951949 4435.641915384314416 13998.97739831940271 
	17031.79757240952313 4435.642683741987639 13999.56177150108851 
	17031.7975724095304 4435.642811802537835 13999.85395831634924 
	17031.7975724095304 4435.642811802347751 14000.00005172318015 
	0 
	
	0 
	0 
	81 0 0.001116071428571428509 0.002232142857142857019 0.004464285714285714038 0.008928571428571428076 0.01785714285714285615 0.02678571428571428423 0.0357142857142857123 0.05357142857142856845 0.07142857142857142461 0.08928571428571427382 0.1071428571428571369 0.125 0.1428571428571428492 0.1587301587301587213 0.1825396825396825295 0.1904761904761904656 0.2023809523809523836 0.2142857142857142738 0.238095238095238082 0.2619047619047618625 0.2857142857142856984 0.2976190476190476164 0.3095238095238095344 0.3214285714285713969 0.3333333333333333148 0.3392857142857143016 0.3452380952380952328 0.3571428571428570953 0.3630952380952380265 0.3690476190476190133 0.3809523809523809312 0.3928571428571428492 0.4047619047619047672 0.4166666666666666297 0.4285714285714285476 0.4444444444444444198 0.4603174603174602919 0.476190476190476164 0.4781746031746031411 0.4791666666666666297 0.4801587301587301182 0.4841269841269840724 0.4920634920634920362 0.5 0.5039682539682539542 0.5079365079365079083 0.5238095238095237249 0.5476190476190475609 0.5595238095238095344 0.5654761904761904656 0.5714285714285713969 0.5952380952380951218 0.6190476190476189577 0.6349206349206348854 0.650793650793650702 0.6666666666666666297 0.6904761904761904656 0.7142857142857141906 0.7321428571428569843 0.749999999999999889 0.7678571428571427937 0.7857142857142855874 0.8095238095238094234 0.8214285714285713969 0.8333333333333332593 0.8452380952380951218 0.8571428571428570953 0.875 0.8928571428571427937 0.9107142857142856984 0.9285714285714286031 0.9464285714285713969 0.9642857142857143016 0.9732142857142858094 0.9821428571428572063 0.9910714285714286031 0.9955357142857143016 0.9977678571428572063 0.9994419642857143016 0.9998604910714286031 
	0 
	0 
	0 
	F 1 F 0 F 1 F 0 } I I I I #
tcoedge-coedge $-1 -1 $-1 $14 $14 $18 $19 reversed $9 $20 -6.283185307179586232 -0 #
tcoedge-coedge $-1 -1 $-1 $21 $22 $11 $16 reversed $12 $23 -6.283185307179586232 -0 #
tedge-edge $-1 -1 $-1 $24 0 $24 6.283185307179586232 $15 $25 forward @7 unknown 0.0008071543970670933205 #
pcurve $-1 -1 $-1 0 forward { exppc nurbs 2 periodic 5 
	0 2 1.570796326794896558 2 3.141592653589793116 2 4.712388980384689674 2 6.283185307179586232 2 
	0 500 1 
	-500 500 0.707106781186543798 
	-500 0 1 
	-500 -500 0.7071067811865463515 
	0 -500 1 
	500 -500 0.7071067811865463515 
	500 0 1 
	500 500 0.707106781186543798 
	0 500 1 
	0 
	plane 17031.79757191538738 3935.642797989756218 14000.00000000000182 1 -3.637978807091713027e-15 0 0 0 -1 forward_v I I I I 
	} 0 0 #
tcoedge-coedge $-1 -1 $-1 $22 $21 $14 $19 forward $12 $26 0 6.283185307179586232 #
tedge-edge $-1 -1 $-1 $27 0 $27 6.283185307179586232 $18 $28 forward @7 unknown 0.0008071543967135632897 #
pcurve $-1 -1 $-1 0 forward { exppc nurbs 2 periodic 5 
	-6.283185307179586232 2 -4.712388980384689674 2 -3.141592653589793116 2 -1.570796326794896558 2 0 2 
	0 500 1 
	500 500 0.707106781186543798 
	500 0 1 
	500 -500 0.7071067811865463515 
	0 -500 1 
	-500 -500 0.7071067811865463515 
	-500 0 1 
	-500 500 0.707106781186543798 
	0 500 1 
	0 
	plane 16781.79757191538738 3935.642797989757128 14000.00000000000182 -1 3.637978807091713027e-15 -0 0 0 -1 reverse_v I I I I 
	} 0 0 #
coedge $-1 -1 $-1 $18 $15 $22 $29 reversed $12 $30 #
coedge $-1 -1 $-1 $15 $18 $21 $29 forward $12 $31 #
pcurve $-1 -1 $-1 0 forward { exppc nubs 1 periodic 2 
	-6.283185307179586232 1 -0 1 
	1 1 
	0 1 
	4.4114023995510105e-13 
	spline forward { ref 0 } I I I I 
	} 0 0 #
tvertex-vertex $-1 -1 $-1 $16 $32 5.353802486047004112e-05 #
ellipse-curve $-1 -1 $-1 17031.79757191538738 3935.642797989756218 14000.00000000000182 1 -3.637978807091713027e-15 0 1.818989403545856476e-12 500 0 1 I I #
pcurve $-1 -1 $-1 0 forward { exppc nubs 1 periodic 2 
	0 1 6.283185307179586232 1 
	0 0 
	1 0 
	4.411402399551011509e-13 
	spline forward { ref 0 } I I I I 
	} 0 0 #
tvertex-vertex $-1 -1 $-1 $19 $33 5.353795819693315427e-05 #
ellipse-curve $-1 -1 $-1 16781.79757191538738 3935.642797989757128 14000.00000000000182 1 -3.637978807091713027e-15 0 1.818989403545856476e-12 500 0 1 I I #
edge $-1 -1 $-1 $27 0 $24 1 $22 $34 forward @7 tangent #
pcurve $-1 -1 $-1 -1 $34 0 0 #
pcurve $-1 -1 $-1 1 $34 1 0 #
point $-1 -1 $-1 17031.79757191539102 4435.642797989756218 14000.00000000000182 #
point $-1 -1 $-1 16781.79757191539102 4435.642797989757128 14000.00000000000182 #
intcurve-curve $-1 -1 $-1 forward { parcur full nubs 3 open 2 
	0 3 1 3 
	16781.79757240227991 4435.642811802347751 14000.00005172318015 
	16865.13090573561203 4435.642811802346841 14000.00005172318015 
	16948.46423907619828 4435.642811802347751 14000.00005172318015 
	17031.7975724095304 4435.642811802347751 14000.00005172318015 
	0 
	
	spline forward { ref 0 } I I I I 
	null_surface 
	nubs 1 open 2 
	0 1 1 1 
	0 0 
	0 1 
	
	nullbs 
	I I 
	0 
	0 
	0 
	surf1 } I I #
End-of-ACIS-data 