700 0 1 0           
4 LibG 20 ASM 224.0.1.65535 NT 24 Wed Jul 17 12:52:14 2019 
1000 9.999999999999999547e-07 1.000000000000000036e-10 
body $-1 -1 $-1 $1 $-1 $2 #
lump $-1 -1 $-1 $-1 $3 $0 #
transform $-1 -1 1 0 0 0 1 0 0 0 1 0 0 0 1 no_rotate no_reflect no_shear #
shell $-1 -1 $-1 $-1 $-1 $4 $-1 $1 #
face $-1 -1 $-1 $5 $6 $3 $-1 $7 forward single #
face $-1 -1 $-1 $8 $9 $3 $-1 $10 reversed single #
loop $-1 -1 $-1 $-1 $11 $4 #
plane-surface $-1 -1 $-1 15031.79757191538738 3935.642797989763494 14000.00000000000182 1 -3.637978807091713027e-15 0 0 0 -1 forward_v I I I I #
face $-1 -1 $-1 $-1 $12 $3 $-1 $13 forward single #
loop $-1 -1 $-1 $-1 $14 $5 #
plane-surface $-1 -1 $-1 14781.79757191538738 3935.642797989764404 14000.00000000000182 1 -3.637978807091713027e-15 0 0 0 -1 forward_v I I I I #
tcoedge-coedge $-1 -1 $-1 $11 $11 $15 $16 forward $6 $17 0 6.283185307179586232 #
loop $-1 -1 $-1 $-1 $18 $8 #
spline-surface $-1 -1 $-1 forward { exactsur full nubs 3 3 periodic open none none 84 2 
	0 3 0.001116071428571428509 1 0.002232142857142857019 1 0.004464285714285714038 1 0.008928571428571428076 1 
	0.01785714285714285615 1 0.02678571428571428423 1 0.0357142857142857123 1 0.05357142857142856845 1 0.07142857142857142461 1 
	0.08928571428571427382 1 0.1071428571428571369 1 0.125 1 0.1428571428571428492 1 0.1587301587301587213 1 
	0.1825396825396825295 1 0.1904761904761904656 1 0.2023809523809523836 1 0.2142857142857142738 1 0.238095238095238082 1 
	0.2619047619047618625 1 0.2857142857142856984 1 0.2976190476190476164 1 0.3095238095238095344 1 0.3214285714285713969 1 
	0.3333333333333333148 1 0.3392857142857143016 1 0.3452380952380952328 1 0.3571428571428570953 1 0.3630952380952380265 1 
	0.3690476190476190133 1 0.3809523809523809312 1 0.3928571428571428492 1 0.4047619047619047672 1 0.4166666666666666297 1 
	0.4285714285714285476 1 0.4444444444444444198 1 0.4603174603174602919 1 0.476190476190476164 1 0.4781746031746031411 1 
	0.4791666666666666297 1 0.4801587301587301182 1 0.4841269841269840724 1 0.4920634920634920362 1 0.5 1 
	0.5039682539682539542 1 0.5079365079365079083 1 0.5238095238095237249 1 0.5476190476190475609 1 0.5595238095238095344 1 
	0.5654761904761904656 1 0.5714285714285713969 1 0.5952380952380951218 1 0.6190476190476189577 1 0.6349206349206348854 1 
	0.650793650793650702 1 0.6666666666666666297 1 0.6904761904761904656 1 0.7142857142857141906 1 0.7321428571428569843 1 
	0.749999999999999889 1 0.7678571428571427937 1 0.7857142857142855874 1 0.8095238095238094234 1 0.8214285714285713969 1 
	0.8333333333333332593 1 0.8452380952380951218 1 0.8571428571428570953 1 0.875 1 0.8928571428571427937 1 
	0.9107142857142856984 1 0.9285714285714286031 1 0.9464285714285713969 1 0.9642857142857143016 1 0.9732142857142858094 1 
	0.9821428571428572063 1 0.9910714285714286031 1 0.9955357142857143016 1 0.9977678571428572063 1 0.9988839285714286031 1 
	0.9994419642857143016 1 0.9997209821428572063 1 0.9998604910714286031 1 1 3 
	0 3 1 3 
	14781.79757199275809 4435.642811025652009 14000.00004890508899 
	14781.79757199275264 4435.642811024250477 14001.16879615994003 
	14781.79757199269625 4435.634615123162803 14003.50629056973048 
	14781.79757199264532 4435.585440917787309 14008.18104952612339 
	14781.79757199237974 4435.413337025000146 14016.36067075146639 
	14781.79757199154483 4434.725033564591286 14032.71025508853927 
	14781.79757198884727 4432.75964994754122 14056.0116569097645 
	14781.79757198635707 4428.83687145051681 14083.7970651448104 
	14781.79757198357584 4421.537984018994393 14120.49285143106863 
	14781.79757197463732 4408.575845082859814 14165.4864182991314 
	14781.79757196738683 4387.0733676177706 14217.39745848252278 
	14781.79757195931415 4359.894195877738639 14266.57481316613121 
	14781.7975719526803 4327.379474839993236 14312.39940510355882 
	14781.79757194511512 4289.939025293802842 14354.29630129496218 
	14781.79757194309423 4249.593979896682868 14390.34957406792091 
	14781.79757193861769 4200.610234774771925 14425.56876099962574 
	14781.79757193752448 4156.693794577690824 14449.48396408293775 
	14781.79757193647856 4114.558374408928103 14467.24402593685227 
	14781.79757193576734 4083.15784449107241 14478.2317482324579 
	14781.79757193442856 4034.956830746267769 14491.14829509179435 
	14781.79757193292608 3973.147711967973464 14500.46607031712847 
	14781.79757193027217 3898.137885645897313 14500.46555065721986 
	14781.79757192830584 3836.328575851220194 14491.14873841334338 
	14781.7975719278511 3788.127687410528324 14478.23201663752661 
	14781.79757192687975 3752.801748814224993 14465.87146887444942 
	14781.79757192618126 3718.498440590785322 14450.9048189104451 
	14781.79757192542456 3690.924291167385491 14436.33151312220616 
	14781.7975719252081 3669.564644833127204 14423.46092888970998 
	14781.7975719250353 3648.701068620919159 14409.80087980729877 
	14781.7975719247188 3628.625735723514481 14394.98467825742227 
	14781.79757192451507 3609.422922157654739 14379.07436391654664 
	14781.79757192438774 3590.828304116848813 14362.45732471030715 
	14781.7975719239148 3568.774728998812861 14340.40380560424819 
	14781.79757192358738 3544.362199896190305 14312.03585382289202 
	14781.79757192313627 3522.137753869713833 14281.92292794265086 
	14781.79757192297802 3502.226017975669947 14250.23327814260119 
	14781.79757192264879 3482.794621796154388 14213.46783818851691 
	14781.79757192235229 3465.016768640520695 14171.29381193579502 
	14781.79757192221223 3450.300264316146695 14123.58331412496955 
	14781.7975719219703 3443.292573184264711 14088.91843876644634 
	14781.79757192194302 3440.472382621946053 14069.38170998910209 
	14781.79757192194302 3439.917130058005114 14065.26340661311588 
	14781.79757192194302 3439.122781657075848 14059.08087821937079 
	14781.7975719219321 3437.610510117649937 14045.65923105851653 
	14781.79757192191391 3436.057282129045689 14024.93314821719287 
	14781.79757192191573 3435.539134699593433 14004.15541757843857 
	14781.79757192191028 3435.746366598352779 13987.53322156581271 
	14781.79757192192301 3436.678752718046781 13962.61548394985039 
	14781.79757192195211 3441.234333523445002 13917.07469403762661 
	14781.79757192219586 3453.289085667564905 13864.25972136924793 
	14781.79757192230136 3467.711520829959682 13823.04649346916449 
	14781.79757192234683 3477.254716833270777 13800.0071501325001 
	14781.79757192242505 3492.85123341228109 13766.00725663111007 
	14781.79757192314173 3520.978848699917762 13717.28661626026769 
	14781.79757192386569 3562.55109917550908 13665.15888889254165 
	14781.79757192455145 3604.250895715027582 13624.48695155038149 
	14781.79757192476063 3643.286733015539539 13593.35726989523027 
	14781.79757192546822 3692.217782167304449 13561.75299660831661 
	14781.79757192638863 3752.289591245864358 13532.82328792154112 
	14781.79757192840952 3817.993885347554169 13512.55745014603599 
	14781.79757192982652 3879.543238840367849 13502.10063555248962 
	14781.79757193133082 3935.643088793046445 13498.94953338222331 
	14781.79757193293699 3991.742728947881915 13502.10071299321498 
	14781.79757193504338 4053.29249987626099 13512.55667568145145 
	14781.79757193745536 4107.04967281502195 13529.13952394756961 
	14781.79757193806836 4152.787048854939712 13549.0958773407383 
	14781.79757193934893 4185.876203505287776 13566.58338655117586 
	14781.79757194069316 4217.565622406959847 13586.49554318362971 
	14781.79757194233389 4252.697637103373381 13612.42359332727392 
	14781.7975719455917 4289.938956043419239 13645.70411119231176 
	14781.79757194993181 4327.379720378292404 13687.60047712086816 
	14781.79757195283673 4359.894250279221524 13733.42534907281515 
	14781.79757196344326 4387.073366605935007 13782.60265810746023 
	14781.79757197173421 4408.575866440331993 13834.5136994335553 
	14781.7975719823371 4421.53798680842101 13879.50725176521701 
	14781.79757198550942 4428.836875668390348 13916.20303679350036 
	14781.79757198838342 4432.759651571574068 13943.98844268638277 
	14781.7975719914175 4434.725034270858487 13967.28984318774201 
	14781.7975719923852 4435.413337170474733 13983.63942705901536 
	14781.79757199266351 4435.585440979803025 13991.81904824221238 
	14781.79757199273445 4435.628468364890978 13995.90946226446249 
	14781.79757199275809 4435.639225359836018 13997.95474479989934 
	14781.79757199275991 4435.641914607564104 13998.97739550122424 
	14781.79757199275991 4435.642682965266431 13999.56176868295734 
	14781.79757199275991 4435.642811025826632 13999.85395549823261 
	14781.79757199275809 4435.642811025652009 14000.00004890508899 
	14865.13090532609203 4435.642811025651099 14000.00004890508899 
	14865.13090532608658 4435.642811024249568 14001.16879615994003 
	14865.13090532603019 4435.634615123161893 14003.50629056973048 
	14865.13090532597926 4435.5854409177864 14008.18104952612339 
	14865.13090532571368 4435.413337024999237 14016.36067075146639 
	14865.13090532487877 4434.725033564590376 14032.71025508853927 
	14865.13090532218121 4432.759649947540311 14056.0116569097645 
	14865.13090531969101 4428.836871450515901 14083.7970651448104 
	14865.13090531690978 4421.537984018993484 14120.49285143106863 
	14865.13090530797126 4408.575845082858905 14165.4864182991314 
	14865.13090530072077 4387.073367617769691 14217.39745848252278 
	14865.13090529264809 4359.894195877737729 14266.57481316613121 
	14865.13090528601424 4327.379474839992326 14312.39940510355882 
	14865.13090527844906 4289.939025293801933 14354.29630129496218 
	14865.13090527642817 4249.593979896681958 14390.34957406792091 
	14865.13090527195163 4200.610234774771016 14425.56876099962574 
	14865.13090527085842 4156.693794577689914 14449.48396408293775 
	14865.1309052698125 4114.558374408927193 14467.24402593685227 
	14865.13090526910128 4083.157844491071955 14478.2317482324579 
	14865.1309052677625 4034.956830746267315 14491.14829509179435 
	14865.13090526626002 3973.147711967973009 14500.46607031712847 
	14865.13090526360611 3898.137885645896858 14500.46555065721986 
	14865.13090526163978 3836.328575851219739 14491.14873841334338 
	14865.13090526118503 3788.127687410527869 14478.23201663752661 
	14865.13090526021369 3752.801748814224538 14465.87146887444942 
	14865.1309052595152 3718.498440590784867 14450.9048189104451 
	14865.1309052587585 3690.924291167385036 14436.33151312220616 
	14865.13090525854204 3669.564644833126749 14423.46092888970998 
	14865.13090525836924 3648.701068620918704 14409.80087980729877 
	14865.13090525805274 3628.625735723514026 14394.98467825742227 
	14865.13090525784901 3609.422922157654284 14379.07436391654664 
	14865.13090525772168 3590.828304116848358 14362.45732471030715 
	14865.13090525724874 3568.774728998812407 14340.40380560424819 
	14865.13090525692132 3544.36219989618985 14312.03585382289202 
	14865.13090525647021 3522.137753869713379 14281.92292794265086 
	14865.13090525631196 3502.226017975669492 14250.23327814260119 
	14865.13090525598273 3482.794621796153933 14213.46783818851691 
	14865.13090525568623 3465.01676864052024 14171.29381193579502 
	14865.13090525554617 3450.30026431614624 14123.58331412496955 
	14865.13090525530424 3443.292573184264256 14088.91843876644634 
	14865.13090525527696 3440.472382621945599 14069.38170998910209 
	14865.13090525527696 3439.917130058004659 14065.26340661311588 
	14865.13090525527696 3439.122781657075393 14059.08087821937079 
	14865.13090525526604 3437.610510117649483 14045.65923105851653 
	14865.13090525524785 3436.057282129045234 14024.93314821719287 
	14865.13090525524967 3435.539134699592978 14004.15541757843857 
	14865.13090525524422 3435.746366598352324 13987.53322156581271 
	14865.13090525525695 3436.678752718046326 13962.61548394985039 
	14865.13090525528605 3441.234333523444548 13917.07469403762661 
	14865.1309052555298 3453.28908566756445 13864.25972136924793 
	14865.1309052556353 3467.711520829959227 13823.04649346916449 
	14865.13090525568077 3477.254716833270322 13800.0071501325001 
	14865.13090525575899 3492.851233412280635 13766.00725663111007 
	14865.13090525647567 3520.978848699917307 13717.28661626026769 
	14865.13090525719963 3562.551099175508625 13665.15888889254165 
	14865.13090525788539 3604.250895715027127 13624.48695155038149 
	14865.13090525809457 3643.286733015539085 13593.35726989523027 
	14865.13090525880216 3692.217782167303994 13561.75299660831661 
	14865.13090525972257 3752.289591245863903 13532.82328792154112 
	14865.13090526174346 3817.993885347553714 13512.55745014603599 
	14865.13090526316046 3879.543238840367394 13502.10063555248962 
	14865.13090526466476 3935.64308879304599 13498.94953338222331 
	14865.13090526627093 3991.74272894788146 13502.10071299321498 
	14865.13090526837732 4053.292499876260536 13512.55667568145145 
	14865.1309052707893 4107.04967281502104 13529.13952394756961 
	14865.1309052714023 4152.787048854938803 13549.0958773407383 
	14865.13090527268287 4185.876203505286867 13566.58338655117586 
	14865.1309052740271 4217.565622406958937 13586.49554318362971 
	14865.13090527566783 4252.697637103372472 13612.42359332727392 
	14865.13090527892564 4289.93895604341833 13645.70411119231176 
	14865.13090528326575 4327.379720378291495 13687.60047712086816 
	14865.13090528617067 4359.894250279220614 13733.42534907281515 
	14865.1309052967772 4387.073366605934098 13782.60265810746023 
	14865.13090530506815 4408.575866440331083 13834.5136994335553 
	14865.13090531567104 4421.537986808420101 13879.50725176521701 
	14865.13090531884336 4428.836875668389439 13916.20303679350036 
	14865.13090532171736 4432.759651571573158 13943.98844268638277 
	14865.13090532475144 4434.725034270857577 13967.28984318774201 
	14865.13090532571914 4435.413337170473824 13983.63942705901536 
	14865.13090532599745 4435.585440979802115 13991.81904824221238 
	14865.13090532606839 4435.628468364890068 13995.90946226446249 
	14865.13090532609203 4435.639225359835109 13997.95474479989934 
	14865.13090532609385 4435.641914607563194 13998.97739550122424 
	14865.13090532609385 4435.642682965265521 13999.56176868295734 
	14865.13090532609385 4435.642811025825722 13999.85395549823261 
	14865.13090532609203 4435.642811025651099 14000.00004890508899 
	14948.46423866073565 4435.64281102565019 14000.00004890508899 
	14948.46423866072837 4435.642811024249568 14001.16879615994003 
	14948.46423866066834 4435.634615123160984 14003.50629056973048 
	14948.46423866061741 4435.585440917787309 14008.18104952612339 
	14948.46423866034638 4435.413337024999237 14016.36067075146639 
	14948.46423865949873 4434.725033564591286 14032.71025508853927 
	14948.46423865675206 4432.75964994754122 14056.0116569097645 
	14948.46423865422003 4428.83687145051681 14083.7970651448104 
	14948.46423865139695 4421.537984018994393 14120.49285143106863 
	14948.46423864230383 4408.575845082858905 14165.4864182991314 
	14948.46423863493328 4387.073367617769691 14217.39745848252278 
	14948.46423862672236 4359.89419587773591 14266.57481316613121 
	14948.46423861997937 4327.379474839991417 14312.39940510355882 
	14948.46423861228504 4289.939025293800114 14354.29630129496218 
	14948.46423861022959 4249.593979896680139 14390.34957406792091 
	14948.46423860567666 4200.610234774769197 14425.56876099962574 
	14948.46423860456525 4156.693794577688095 14449.48396408293775 
	14948.46423860350296 4114.558374408925374 14467.24402593685227 
	14948.46423860277901 4083.157844491070136 14478.2317482324579 
	14948.46423860142204 4034.95683074626686 14491.14829509179435 
	14948.46423859989409 3973.147711967972555 14500.46607031712847 
	14948.46423859719653 3898.137885645896404 14500.46555065721986 
	14948.46423859519564 3836.328575851219284 14491.14873841334338 
	14948.46423859473543 3788.12768741052696 14478.23201663752661 
	14948.46423859374772 3752.801748814224538 14465.87146887444942 
	14948.4642385930365 3718.498440590783957 14450.9048189104451 
	14948.46423859226707 3690.924291167384581 14436.33151312220616 
	14948.46423859205061 3669.564644833126295 14423.46092888970998 
	14948.46423859187416 3648.701068620917795 14409.80087980729877 
	14948.4642385915522 3628.625735723513571 14394.98467825742227 
	14948.46423859134484 3609.422922157653375 14379.07436391654664 
	14948.46423859121205 3590.828304116847903 14362.45732471030715 
	14948.46423859073184 3568.774728998811042 14340.40380560424819 
	14948.46423859039896 3544.362199896189395 14312.03585382289202 
	14948.4642385899424 3522.13775386971156 14281.92292794265086 
	14948.46423858978051 3502.226017975668583 14250.23327814260119 
	14948.46423858944763 3482.794621796153024 14213.46783818851691 
	14948.46423858914386 3465.016768640519786 14171.29381193579502 
	14948.46423858900562 3450.300264316144876 14123.58331412496955 
	14948.46423858875823 3443.292573184264256 14088.91843876644634 
	14948.46423858873459 3440.472382621944234 14069.38170998910209 
	14948.46423858873277 3439.91713005800375 14065.26340661311588 
	14948.46423858872913 3439.122781657074484 14059.08087821937079 
	14948.4642385887164 3437.610510117648573 14045.65923105851653 
	14948.46423858870003 3436.057282129044779 14024.93314821719287 
	14948.46423858869821 3435.539134699591614 14004.15541757843857 
	14948.46423858869275 3435.746366598351869 13987.53322156581271 
	14948.4642385887073 3436.678752718045416 13962.61548394985039 
	14948.46423858873459 3441.234333523444093 13917.07469403762661 
	14948.46423858898743 3453.289085667563995 13864.25972136924793 
	14948.46423858909111 3467.711520829959227 13823.04649346916449 
	14948.46423858913658 3477.254716833270322 13800.0071501325001 
	14948.46423858921662 3492.851233412280635 13766.00725663111007 
	14948.46423858994422 3520.978848699917762 13717.28661626026769 
	14948.46423859068273 3562.551099175508625 13665.15888889254165 
	14948.4642385913794 3604.250895715026672 13624.48695155038149 
	14948.46423859159222 3643.286733015538175 13593.35726989523027 
	14948.46423859231254 3692.217782167303085 13561.75299660831661 
	14948.46423859324932 3752.289591245862539 13532.82328792154112 
	14948.46423859530296 3817.993885347552805 13512.55745014603599 
	14948.4642385967436 3879.543238840366485 13502.10063555248962 
	14948.46423859827155 3935.64308879304599 13498.94953338222331 
	14948.464238599905 3991.74272894788146 13502.10071299321498 
	14948.46423860204595 4053.292499876259626 13512.55667568145145 
	14948.46423860449795 4107.04967281502104 13529.13952394756961 
	14948.46423860512186 4152.787048854937893 13549.0958773407383 
	14948.46423860642426 4185.876203505285048 13566.58338655117586 
	14948.46423860779032 4217.565622406958028 13586.49554318362971 
	14948.46423860945833 4252.697637103371562 13612.42359332727392 
	14948.46423861277253 4289.93895604341742 13645.70411119231176 
	14948.46423861718722 4327.379720378289676 13687.60047712086816 
	14948.46423862014126 4359.894250279218795 13733.42534907281515 
	14948.46423863092605 4387.073366605933188 13782.60265810746023 
	14948.46423863935343 4408.575866440329264 13834.5136994335553 
	14948.46423865014003 4421.537986808420101 13879.50725176521701 
	14948.46423865336328 4428.836875668388529 13916.20303679350036 
	14948.46423865629004 4432.759651571572249 13943.98844268638277 
	14948.46423865937504 4434.725034270857577 13967.28984318774201 
	14948.46423866035911 4435.413337170472005 13983.63942705901536 
	14948.46423866064288 4435.585440979802115 13991.81904824221238 
	14948.46423866071382 4435.628468364889159 13995.90946226446249 
	14948.46423866073746 4435.639225359834199 13997.95474479989934 
	14948.46423866073928 4435.641914607562285 13998.97739550122424 
	14948.46423866073746 4435.642682965263702 13999.56176868295734 
	14948.46423866073565 4435.642811025825722 13999.85395549823261 
	14948.46423866073565 4435.64281102565019 14000.00004890508899 
	15031.79757199406959 4435.64281102565019 14000.00004890508899 
	15031.79757199406231 4435.642811024249568 14001.16879615994003 
	15031.79757199400228 4435.634615123160984 14003.50629056973048 
	15031.79757199395135 4435.585440917787309 14008.18104952612339 
	15031.79757199368032 4435.413337024999237 14016.36067075146639 
	15031.79757199283267 4434.725033564591286 14032.71025508853927 
	15031.797571990086 4432.75964994754122 14056.0116569097645 
	15031.79757198755397 4428.83687145051681 14083.7970651448104 
	15031.79757198473089 4421.537984018994393 14120.49285143106863 
	15031.79757197563777 4408.575845082858905 14165.4864182991314 
	15031.79757196826722 4387.073367617769691 14217.39745848252278 
	15031.7975719600563 4359.89419587773591 14266.57481316613121 
	15031.79757195331331 4327.379474839991417 14312.39940510355882 
	15031.79757194561898 4289.939025293800114 14354.29630129496218 
	15031.79757194356353 4249.593979896680139 14390.34957406792091 
	15031.7975719390106 4200.610234774769197 14425.56876099962574 
	15031.79757193789919 4156.693794577688095 14449.48396408293775 
	15031.7975719368369 4114.558374408925374 14467.24402593685227 
	15031.79757193611294 4083.157844491069682 14478.2317482324579 
	15031.79757193475598 4034.956830746266405 14491.14829509179435 
	15031.79757193322803 3973.1477119679721 14500.46607031712847 
	15031.79757193053047 3898.137885645895949 14500.46555065721986 
	15031.79757192852958 3836.328575851218829 14491.14873841334338 
	15031.79757192806937 3788.127687410526505 14478.23201663752661 
	15031.79757192708166 3752.801748814224084 14465.87146887444942 
	15031.79757192637044 3718.498440590783503 14450.9048189104451 
	15031.79757192560101 3690.924291167384126 14436.33151312220616 
	15031.79757192538455 3669.56464483312584 14423.46092888970998 
	15031.7975719252081 3648.70106862091734 14409.80087980729877 
	15031.79757192488614 3628.625735723513117 14394.98467825742227 
	15031.79757192467878 3609.42292215765292 14379.07436391654664 
	15031.79757192454599 3590.828304116847448 14362.45732471030715 
	15031.79757192406578 3568.774728998810588 14340.40380560424819 
	15031.7975719237329 3544.36219989618894 14312.03585382289202 
	15031.79757192327634 3522.137753869711105 14281.92292794265086 
	15031.79757192311445 3502.226017975668128 14250.23327814260119 
	15031.79757192278157 3482.794621796152569 14213.46783818851691 
	15031.7975719224778 3465.016768640519331 14171.29381193579502 
	15031.79757192233956 3450.300264316144421 14123.58331412496955 
	15031.79757192209217 3443.292573184263802 14088.91843876644634 
	15031.79757192206853 3440.47238262194378 14069.38170998910209 
	15031.79757192206671 3439.917130058003295 14065.26340661311588 
	15031.79757192206307 3439.122781657074029 14059.08087821937079 
	15031.79757192205034 3437.610510117648118 14045.65923105851653 
	15031.79757192203397 3436.057282129044324 14024.93314821719287 
	15031.79757192203215 3435.539134699591159 14004.15541757843857 
	15031.79757192202669 3435.746366598351415 13987.53322156581271 
	15031.79757192204124 3436.678752718044962 13962.61548394985039 
	15031.79757192206853 3441.234333523443638 13917.07469403762661 
	15031.79757192232137 3453.28908566756354 13864.25972136924793 
	15031.79757192242505 3467.711520829958772 13823.04649346916449 
	15031.79757192247052 3477.254716833269867 13800.0071501325001 
	15031.79757192255056 3492.85123341228018 13766.00725663111007 
	15031.79757192327816 3520.978848699917307 13717.28661626026769 
	15031.79757192401667 3562.55109917550817 13665.15888889254165 
	15031.79757192471334 3604.250895715026218 13624.48695155038149 
	15031.79757192492616 3643.28673301553772 13593.35726989523027 
	15031.79757192564648 3692.21778216730263 13561.75299660831661 
	15031.79757192658326 3752.289591245862084 13532.82328792154112 
	15031.7975719286369 3817.99388534755235 13512.55745014603599 
	15031.79757193007754 3879.54323884036603 13502.10063555248962 
	15031.79757193160549 3935.643088793045536 13498.94953338222331 
	15031.79757193323894 3991.742728947881005 13502.10071299321498 
	15031.79757193537989 4053.292499876259171 13512.55667568145145 
	15031.79757193783189 4107.04967281502104 13529.13952394756961 
	15031.7975719384558 4152.787048854937893 13549.0958773407383 
	15031.7975719397582 4185.876203505285048 13566.58338655117586 
	15031.79757194112426 4217.565622406958028 13586.49554318362971 
	15031.79757194279227 4252.697637103371562 13612.42359332727392 
	15031.79757194610647 4289.93895604341742 13645.70411119231176 
	15031.79757195052116 4327.379720378289676 13687.60047712086816 
	15031.7975719534752 4359.894250279218795 13733.42534907281515 
	15031.79757196425999 4387.073366605933188 13782.60265810746023 
	15031.79757197268736 4408.575866440329264 13834.5136994335553 
	15031.79757198347397 4421.537986808420101 13879.50725176521701 
	15031.79757198669722 4428.836875668388529 13916.20303679350036 
	15031.79757198962398 4432.759651571572249 13943.98844268638277 
	15031.79757199270898 4434.725034270857577 13967.28984318774201 
	15031.79757199369305 4435.413337170472005 13983.63942705901536 
	15031.79757199397682 4435.585440979802115 13991.81904824221238 
	15031.79757199404776 4435.628468364889159 13995.90946226446249 
	15031.7975719940714 4435.639225359834199 13997.95474479989934 
	15031.79757199407322 4435.641914607562285 13998.97739550122424 
	15031.7975719940714 4435.642682965263702 13999.56176868295734 
	15031.79757199406959 4435.642811025825722 13999.85395549823261 
	15031.79757199406959 4435.64281102565019 14000.00004890508899 
	0 
	
	0 
	0 
	81 0 0.001116071428571428509 0.002232142857142857019 0.004464285714285714038 0.008928571428571428076 0.01785714285714285615 0.02678571428571428423 0.0357142857142857123 0.05357142857142856845 0.07142857142857142461 0.08928571428571427382 0.1071428571428571369 0.125 0.1428571428571428492 0.1587301587301587213 0.1825396825396825295 0.1904761904761904656 0.2023809523809523836 0.2142857142857142738 0.238095238095238082 0.2619047619047618625 0.2857142857142856984 0.2976190476190476164 0.3095238095238095344 0.3214285714285713969 0.3333333333333333148 0.3392857142857143016 0.3452380952380952328 0.3571428571428570953 0.3630952380952380265 0.3690476190476190133 0.3809523809523809312 0.3928571428571428492 0.4047619047619047672 0.4166666666666666297 0.4285714285714285476 0.4444444444444444198 0.4603174603174602919 0.476190476190476164 0.4781746031746031411 0.4791666666666666297 0.4801587301587301182 0.4841269841269840724 0.4920634920634920362 0.5 0.5039682539682539542 0.5079365079365079083 0.5238095238095237249 0.5476190476190475609 0.5595238095238095344 0.5654761904761904656 0.5714285714285713969 0.5952380952380951218 0.6190476190476189577 0.6349206349206348854 0.650793650793650702 0.6666666666666666297 0.6904761904761904656 0.7142857142857141906 0.7321428571428569843 0.749999999999999889 0.7678571428571427937 0.7857142857142855874 0.8095238095238094234 0.8214285714285713969 0.8333333333333332593 0.8452380952380951218 0.8571428571428570953 0.875 0.8928571428571427937 0.9107142857142856984 0.9285714285714286031 0.9464285714285713969 0.9642857142857143016 0.9732142857142858094 0.9821428571428572063 0.9910714285714286031 0.9955357142857143016 0.9977678571428572063 0.9994419642857143016 0.9998604910714286031 
	0 
	0 
	0 
	F 1 F 0 F 1 F 0 } I I I I #
tcoedge-coedge $-1 -1 $-1 $14 $14 $18 $19 reversed $9 $20 -6.283185307179586232 -0 #
tcoedge-coedge $-1 -1 $-1 $21 $22 $11 $16 reversed $12 $23 -6.283185307179586232 -0 #
tedge-edge $-1 -1 $-1 $24 0 $24 6.283185307179586232 $15 $25 forward @7 unknown 0.0008039876863285122912 #
pcurve $-1 -1 $-1 0 forward { exppc nurbs 2 periodic 5 
	0 2 1.570796326794896558 2 3.141592653589793116 2 4.712388980384689674 2 6.283185307179586232 2 
	0 500 1 
	-500 500 0.707106781186543798 
	-500 0 1 
	-500 -500 0.7071067811865463515 
	0 -500 1 
	500 -500 0.7071067811865463515 
	500 0 1 
	500 500 0.707106781186543798 
	0 500 1 
	0 
	plane 15031.79757191538738 3935.642797989763494 14000.00000000000182 1 -3.637978807091713027e-15 0 0 0 -1 forward_v I I I I 
	} 0 0 #
tcoedge-coedge $-1 -1 $-1 $22 $21 $14 $19 forward $12 $26 0 6.283185307179586232 #
tedge-edge $-1 -1 $-1 $27 0 $27 6.283185307179586232 $18 $28 forward @7 unknown 0.0008039876844476637327 #
pcurve $-1 -1 $-1 0 forward { exppc nurbs 2 periodic 5 
	-6.283185307179586232 2 -4.712388980384689674 2 -3.141592653589793116 2 -1.570796326794896558 2 0 2 
	0 500 1 
	500 500 0.707106781186543798 
	500 0 1 
	500 -500 0.7071067811865463515 
	0 -500 1 
	-500 -500 0.7071067811865463515 
	-500 0 1 
	-500 500 0.707106781186543798 
	0 500 1 
	0 
	plane 14781.79757191538738 3935.642797989764404 14000.00000000000182 -1 3.637978807091713027e-15 -0 0 0 -1 reverse_v I I I I 
	} 0 0 #
coedge $-1 -1 $-1 $18 $15 $22 $29 reversed $12 $30 #
coedge $-1 -1 $-1 $15 $18 $21 $29 forward $12 $31 #
pcurve $-1 -1 $-1 0 forward { exppc nubs 1 periodic 2 
	-6.283185307179586232 1 -0 1 
	1 1 
	0 1 
	2.726396620975368931e-13 
	spline forward { ref 0 } I I I I 
	} 0 0 #
tvertex-vertex $-1 -1 $-1 $16 $32 5.061273649810847441e-05 #
ellipse-curve $-1 -1 $-1 15031.79757191538738 3935.642797989763494 14000.00000000000182 1 -3.637978807091713027e-15 0 1.818989403545856476e-12 500 0 1 I I #
pcurve $-1 -1 $-1 0 forward { exppc nubs 1 periodic 2 
	0 1 6.283185307179586232 1 
	0 0 
	1 0 
	4.4114023995510105e-13 
	spline forward { ref 0 } I I I I 
	} 0 0 #
tvertex-vertex $-1 -1 $-1 $19 $33 5.061273471056253306e-05 #
ellipse-curve $-1 -1 $-1 14781.79757191538738 3935.642797989764404 14000.00000000000182 1 -3.637978807091713027e-15 0 1.818989403545856476e-12 500 0 1 I I #
edge $-1 -1 $-1 $27 0 $24 1 $22 $34 forward @7 tangent #
pcurve $-1 -1 $-1 -1 $34 0 0 #
pcurve $-1 -1 $-1 1 $34 1 0 #
point $-1 -1 $-1 15031.7975719153892 4435.642797989763494 14000.00000000000182 #
point $-1 -1 $-1 14781.7975719153892 4435.642797989764404 14000.00000000000182 #
intcurve-curve $-1 -1 $-1 forward { parcur full nubs 3 open 2 
	0 3 1 3 
	14781.79757199275809 4435.642811025652009 14000.00004890508899 
	14865.13090532609203 4435.642811025651099 14000.00004890508899 
	14948.46423866073565 4435.64281102565019 14000.00004890508899 
	15031.79757199406959 4435.64281102565019 14000.00004890508899 
	0 
	
	spline forward { ref 0 } I I I I 
	null_surface 
	nubs 1 open 2 
	0 1 1 1 
	0 0 
	0 1 
	
	nullbs 
	I I 
	0 
	0 
	0 
	surf1 } I I #
End-of-ACIS-data 