700 0 1 0           
4 LibG 20 ASM 224.0.1.65535 NT 24 Wed Jul 17 12:52:14 2019 
1000 9.999999999999999547e-07 1.000000000000000036e-10 
body $-1 -1 $-1 $1 $-1 $2 #
lump $-1 -1 $-1 $-1 $3 $0 #
transform $-1 -1 1 0 0 0 1 0 0 0 1 0 0 0 1 no_rotate no_reflect no_shear #
shell $-1 -1 $-1 $-1 $-1 $4 $-1 $1 #
face $-1 -1 $-1 $5 $6 $3 $-1 $7 forward single #
face $-1 -1 $-1 $8 $9 $3 $-1 $10 reversed single #
loop $-1 -1 $-1 $-1 $11 $4 #
plane-surface $-1 -1 $-1 16781.79757191538738 3935.642797989757128 14000.00000000000182 1 -3.637978807091713027e-15 0 0 0 -1 forward_v I I I I #
face $-1 -1 $-1 $-1 $12 $3 $-1 $13 forward single #
loop $-1 -1 $-1 $-1 $14 $5 #
plane-surface $-1 -1 $-1 16531.79757191538738 3935.642797989758037 14000.00000000000182 1 -3.637978807091713027e-15 0 0 0 -1 forward_v I I I I #
tcoedge-coedge $-1 -1 $-1 $11 $11 $15 $16 forward $6 $17 0 6.283185307179586232 #
loop $-1 -1 $-1 $-1 $18 $8 #
spline-surface $-1 -1 $-1 forward { exactsur full nubs 3 3 periodic open none none 84 2 
	0 3 0.001116071428571428509 1 0.002232142857142857019 1 0.004464285714285714038 1 0.008928571428571428076 1 
	0.01785714285714285615 1 0.02678571428571428423 1 0.0357142857142857123 1 0.05357142857142856845 1 0.07142857142857142461 1 
	0.08928571428571427382 1 0.1071428571428571369 1 0.125 1 0.1428571428571428492 1 0.1587301587301587213 1 
	0.1825396825396825295 1 0.1904761904761904656 1 0.2023809523809523836 1 0.2142857142857142738 1 0.238095238095238082 1 
	0.2619047619047618625 1 0.2857142857142856984 1 0.2976190476190476164 1 0.3095238095238095344 1 0.3214285714285713969 1 
	0.3333333333333333148 1 0.3392857142857143016 1 0.3452380952380952328 1 0.3571428571428570953 1 0.3630952380952380265 1 
	0.3690476190476190133 1 0.3809523809523809312 1 0.3928571428571428492 1 0.4047619047619047672 1 0.4166666666666666297 1 
	0.4285714285714285476 1 0.4444444444444444198 1 0.4603174603174602919 1 0.476190476190476164 1 0.4781746031746031411 1 
	0.4791666666666666297 1 0.4801587301587301182 1 0.4841269841269840724 1 0.4920634920634920362 1 0.5 1 
	0.5039682539682539542 1 0.5079365079365079083 1 0.5238095238095237249 1 0.5476190476190475609 1 0.5595238095238095344 1 
	0.5654761904761904656 1 0.5714285714285713969 1 0.5952380952380951218 1 0.6190476190476189577 1 0.6349206349206348854 1 
	0.650793650793650702 1 0.6666666666666666297 1 0.6904761904761904656 1 0.7142857142857141906 1 0.7321428571428569843 1 
	0.749999999999999889 1 0.7678571428571427937 1 0.7857142857142855874 1 0.8095238095238094234 1 0.8214285714285713969 1 
	0.8333333333333332593 1 0.8452380952380951218 1 0.8571428571428570953 1 0.875 1 0.8928571428571427937 1 
	0.9107142857142856984 1 0.9285714285714286031 1 0.9464285714285713969 1 0.9642857142857143016 1 0.9732142857142858094 1 
	0.9821428571428572063 1 0.9910714285714286031 1 0.9955357142857143016 1 0.9977678571428572063 1 0.9988839285714286031 1 
	0.9994419642857143016 1 0.9997209821428572063 1 0.9998604910714286031 1 1 3 
	0 3 1 3 
	16531.79757127816993 4435.64281141968695 14000.00005047253035 
	16531.79757127818084 4435.642811418186284 14001.16879772721586 
	16531.79757127863195 4435.634615515949008 14003.50629213522006 
	16531.79757127905395 4435.585441309312046 14008.18105108959026 
	16531.79757128116034 4435.413337409996529 14016.36067230455228 
	16531.79757128793426 4434.725033927220466 14032.7102566050944 
	16531.79757130960206 4432.759650231667365 14056.0116583000181 
	16531.79757132977102 4428.836871656531912 14083.79706640476252 
	16531.79757135222826 4421.537984125720868 14120.49285253700873 
	16531.79757142480594 4408.575844861938094 14165.48641886792029 
	16531.79757148389763 4387.073367138663343 14217.39745859827417 
	16531.79757154973413 4359.894195111732188 14266.57481277524857 
	16531.79757160397276 4327.379473851115108 14312.39940431534887 
	16531.79757166601485 4289.939024064493424 14354.29630008881759 
	16531.79757168260767 4249.59397859751607 14390.3495727731588 
	16531.79757171939491 4200.610233258834342 14425.56875944779313 
	16531.79757172842801 4156.693792925466369 14449.48396236460758 
	16531.79757173706457 4114.558372686296025 14467.24402420004844 
	16531.79757174292536 4083.157842705659277 14478.23174651161753 
	16531.79757175403574 4034.956828853085426 14491.1482934302021 
	16531.79757176653948 3973.147709983111326 14500.4660690394121 
	16531.79757178876389 3898.137883459100522 14500.46554988028947 
	16531.79757180530578 3836.328573457792572 14491.1487380154158 
	16531.79757180917295 3788.127684965075787 14478.23201636208978 
	16531.79757181738023 3752.801746267237377 14465.87146869928802 
	16531.7975718233829 3718.498437970094074 14450.90481879781146 
	16531.79757182984395 3690.924288473422621 14436.33151302803162 
	16531.7975718316884 3669.56464212125411 14423.46092878865602 
	16531.79757183317997 3648.701065895100328 14409.80087969901979 
	16531.79757183595211 3628.625732983523449 14394.98467809044087 
	16531.79757183774927 3609.422919414676016 14379.07436369777679 
	16531.79757183888069 3590.828301377769549 14362.45732444460009 
	16531.7975718431735 3568.774726303957777 14340.40380510271825 
	16531.79757184611663 3544.362197246849519 14312.03585312315045 
	16531.79757185038397 3522.137751343665514 14281.92292687562076 
	16531.79757185177368 3502.226015496970376 14250.23327694252293 
	16531.79757185501876 3482.794619515821523 14213.46783657181368 
	16531.79757185800554 3465.016766608588114 14171.29380984124691 
	16531.79757185936614 3450.300262426604604 14123.58331180330242 
	16531.79757186218922 3443.292571591975957 14088.91843582299953 
	16531.79757186244387 3440.472381057074017 14069.38170698719841 
	16531.79757186244024 3439.917128493459586 14065.26340361074108 
	16531.79757186245115 3439.122780095394319 14059.08087521130619 
	16531.79757186250572 3437.610508578284225 14045.65922800916269 
	16531.7975718626185 3436.057280647781226 14024.93314506239767 
	16531.79757186256393 3435.539133292959832 14004.1554142984296 
	16531.79757186256757 3435.746365202815468 13987.53321827078071 
	16531.79757186236748 3436.678751361743707 13962.61548059135566 
	16531.79757186173083 3441.234332337249725 13917.07469053009663 
	16531.79757185902781 3453.289084790333618 13864.25971757822299 
	16531.79757185788912 3467.71152003979887 13823.04648962892861 
	16531.79757185749622 3477.254716089808426 13800.00714628999958 
	16531.7975718567177 3492.851232764101042 13766.00725280874758 
	16531.79757184992923 3520.978848748893142 13717.28661272333557 
	16531.79757184326445 3562.55109972430273 13665.1588856598064 
	16531.7975718370908 3604.250896713640032 13624.48694877554772 
	16531.79757183519541 3643.286734178660481 13593.3572672752598 
	16531.7975718291018 3692.217783707371836 13561.75299465034186 
	16531.79757182120738 3752.289593363073891 13532.82328696350669 
	16531.7975718040725 3817.993888005589724 13512.55745052054408 
	16531.79757179204898 3879.543241779168966 13502.10063668379007 
	16531.7975717793197 3935.643091851521149 13498.94953519506998 
	16531.79757176579369 3991.742732050429822 13502.10071539041564 
	16531.79757174809492 4053.292502895785219 13512.55667886282754 
	16531.79757172799509 4107.049675662710797 13529.13952787882408 
	16531.79757172289828 4152.787051681284538 13549.0958813084053 
	16531.7975717123154 4185.876206251590702 13566.58339063933454 
	16531.79757170125231 4217.565625077965706 13586.49554730230375 
	16531.79757168778087 4252.697639672713194 13612.42359746366856 
	16531.79757166111449 4289.938958417445065 13645.70411528146542 
	16531.79757162565147 4327.379722515368485 13687.60048104333146 
	16531.79757160196823 4359.894252250972386 13733.42535287192186 
	16531.79757151564991 4387.073368058321648 13782.60266134010453 
	16531.79757144823816 4408.575867537509112 13834.51370218753618 
	16531.79757136218177 4421.537987518381669 13879.50725389838044 
	16531.79757133656676 4428.836876279528042 13916.20303874567981 
	16531.79757131332735 4432.759652089602241 13943.98844447947522 
	16531.79757128889105 4434.725034701560617 13967.28984482124361 
	16531.79757128118217 4435.413337574213983 13983.63942864432465 
	16531.7975712789339 4435.585441376214476 13991.81904981401567 
	16531.79757127837001 4435.628468759551652 13995.90946383306436 
	16531.79757127821722 4435.639225754035579 13997.95474636764266 
	16531.79757127818084 4435.641915001653615 13998.977397068762 
	16531.79757127817356 4435.64268335932411 13999.56177025043689 
	16531.79757127816993 4435.642811419874306 13999.85395706569398 
	16531.79757127816993 4435.64281141968695 14000.00005047253035 
	16615.13090461150205 4435.642811419686041 14000.00005047253035 
	16615.13090461151296 4435.642811418185374 14001.16879772721586 
	16615.13090461196407 4435.634615515948099 14003.50629213522006 
	16615.13090461238608 4435.585441309311136 14008.18105108959026 
	16615.13090461449247 4435.41333740999562 14016.36067230455228 
	16615.13090462126638 4434.725033927219556 14032.7102566050944 
	16615.13090464293418 4432.759650231666456 14056.0116583000181 
	16615.13090466310314 4428.836871656531002 14083.79706640476252 
	16615.13090468556038 4421.537984125719959 14120.49285253700873 
	16615.13090475813806 4408.575844861937185 14165.48641886792029 
	16615.13090481722975 4387.073367138662434 14217.39745859827417 
	16615.13090488306625 4359.894195111731278 14266.57481277524857 
	16615.13090493730488 4327.379473851114199 14312.39940431534887 
	16615.13090499934697 4289.939024064492514 14354.29630008881759 
	16615.13090501593979 4249.593978597515161 14390.3495727731588 
	16615.13090505272703 4200.610233258833432 14425.56875944779313 
	16615.13090506176013 4156.693792925465459 14449.48396236460758 
	16615.13090507039669 4114.558372686295115 14467.24402420004844 
	16615.13090507625748 4083.157842705658823 14478.23174651161753 
	16615.13090508736786 4034.956828853084971 14491.1482934302021 
	16615.1309050998716 3973.147709983110872 14500.4660690394121 
	16615.13090512209601 3898.137883459100067 14500.46554988028947 
	16615.1309051386379 3836.328573457792118 14491.1487380154158 
	16615.13090514250507 3788.127684965075332 14478.23201636208978 
	16615.13090515071235 3752.801746267236922 14465.87146869928802 
	16615.13090515671502 3718.498437970093619 14450.90481879781146 
	16615.13090516317607 3690.924288473422166 14436.33151302803162 
	16615.13090516502052 3669.564642121253655 14423.46092878865602 
	16615.13090516651209 3648.701065895099873 14409.80087969901979 
	16615.13090516928423 3628.625732983522994 14394.98467809044087 
	16615.13090517108139 3609.422919414675562 14379.07436369777679 
	16615.13090517221281 3590.828301377769094 14362.45732444460009 
	16615.13090517650562 3568.774726303957323 14340.40380510271825 
	16615.13090517944875 3544.362197246849064 14312.03585312315045 
	16615.1309051837161 3522.137751343665059 14281.92292687562076 
	16615.1309051851058 3502.226015496969922 14250.23327694252293 
	16615.13090518835088 3482.794619515821068 14213.46783657181368 
	16615.13090519133766 3465.016766608587659 14171.29380984124691 
	16615.13090519269826 3450.300262426604149 14123.58331180330242 
	16615.13090519552134 3443.292571591975502 14088.91843582299953 
	16615.13090519577599 3440.472381057073562 14069.38170698719841 
	16615.13090519577236 3439.917128493459131 14065.26340361074108 
	16615.13090519578327 3439.122780095393864 14059.08087521130619 
	16615.13090519583784 3437.61050857828377 14045.65922800916269 
	16615.13090519595062 3436.057280647780772 14024.93314506239767 
	16615.13090519589605 3435.539133292959377 14004.1554142984296 
	16615.13090519589969 3435.746365202815014 13987.53321827078071 
	16615.1309051956996 3436.678751361743252 13962.61548059135566 
	16615.13090519506295 3441.23433233724927 13917.07469053009663 
	16615.13090519235993 3453.289084790333163 13864.25971757822299 
	16615.13090519122125 3467.711520039798415 13823.04648962892861 
	16615.13090519082834 3477.254716089807971 13800.00714628999958 
	16615.13090519004982 3492.851232764100587 13766.00725280874758 
	16615.13090518326135 3520.978848748892688 13717.28661272333557 
	16615.13090517659657 3562.551099724302276 13665.1588856598064 
	16615.13090517042292 3604.250896713639577 13624.48694877554772 
	16615.13090516852753 3643.286734178660026 13593.3572672752598 
	16615.13090516243392 3692.217783707371382 13561.75299465034186 
	16615.13090515453951 3752.289593363073436 13532.82328696350669 
	16615.13090513740462 3817.99388800558927 13512.55745052054408 
	16615.1309051253811 3879.543241779168511 13502.10063668379007 
	16615.13090511265182 3935.643091851520694 13498.94953519506998 
	16615.13090509912581 3991.742732050429368 13502.10071539041564 
	16615.13090508142704 4053.292502895784764 13512.55667886282754 
	16615.13090506132721 4107.049675662709888 13529.13952787882408 
	16615.1309050562304 4152.787051681283629 13549.0958813084053 
	16615.13090504564752 4185.876206251589792 13566.58339063933454 
	16615.13090503458443 4217.565625077964796 13586.49554730230375 
	16615.13090502111299 4252.697639672712285 13612.42359746366856 
	16615.13090499444661 4289.938958417444155 13645.70411528146542 
	16615.13090495898359 4327.379722515367575 13687.60048104333146 
	16615.13090493530035 4359.894252250971476 13733.42535287192186 
	16615.13090484898203 4387.073368058320739 13782.60266134010453 
	16615.13090478157028 4408.575867537508202 13834.51370218753618 
	16615.13090469551389 4421.53798751838076 13879.50725389838044 
	16615.13090466989888 4428.836876279527132 13916.20303874567981 
	16615.13090464665947 4432.759652089601332 13943.98844447947522 
	16615.13090462222317 4434.725034701559707 13967.28984482124361 
	16615.13090461451429 4435.413337574213074 13983.63942864432465 
	16615.13090461226602 4435.585441376213566 13991.81904981401567 
	16615.13090461170214 4435.628468759550742 13995.90946383306436 
	16615.13090461154934 4435.639225754034669 13997.95474636764266 
	16615.13090461151296 4435.641915001652706 13998.977397068762 
	16615.13090461150568 4435.6426833593232 13999.56177025043689 
	16615.13090461150205 4435.642811419873397 13999.85395706569398 
	16615.13090461150205 4435.642811419686041 14000.00005047253035 
	16698.46423793519352 4435.642811419686041 14000.00005047253035 
	16698.46423793520808 4435.642811418186284 14001.16879772721586 
	16698.4642379356701 4435.634615515949008 14003.50629213522006 
	16698.46423793609574 4435.585441309312046 14008.18105108959026 
	16698.46423793823851 4435.413337409996529 14016.36067230455228 
	16698.46423794511065 4434.725033927220466 14032.7102566050944 
	16698.46423796710951 4432.759650231667365 14056.0116583000181 
	16698.46423798758042 4428.836871656531912 14083.79706640476252 
	16698.46423801037599 4421.537984125720868 14120.49285253700873 
	16698.46423808405598 4408.575844861938094 14165.48641886792029 
	16698.46423814403533 4387.073367138663343 14217.39745859827417 
	16698.46423821087228 4359.894195111732188 14266.57481277524857 
	16698.46423826592581 4327.379473851115108 14312.39940431534887 
	16698.46423832891378 4289.939024064493424 14354.29630008881759 
	16698.46423834575398 4249.59397859751607 14390.3495727731588 
	16698.46423838309784 4200.610233258834342 14425.56875944779313 
	16698.46423839226554 4156.693792925466369 14449.48396236460758 
	16698.46423840103307 4114.558372686296025 14467.24402420004844 
	16698.4642384069848 4083.157842705659732 14478.23174651161753 
	16698.46423841826254 4034.956828853085426 14491.1482934302021 
	16698.46423843095545 3973.147709983111781 14500.4660690394121 
	16698.46423845351819 3898.137883459100067 14500.46554988028947 
	16698.46423847031474 3836.328573457792572 14491.1487380154158 
	16698.46423847423648 3788.127684965075787 14478.23201636208978 
	16698.46423848256745 3752.801746267236922 14465.87146869928802 
	16698.46423848866107 3718.498437970094074 14450.90481879781146 
	16698.46423849522034 3690.924288473422166 14436.33151302803162 
	16698.4642384970939 3669.56464212125411 14423.46092878865602 
	16698.4642384986073 3648.701065895100328 14409.80087969901979 
	16698.46423850141946 3628.625732983522539 14394.98467809044087 
	16698.46423850324572 3609.422919414675562 14379.07436369777679 
	16698.46423850439169 3590.828301377768639 14362.45732444460009 
	16698.46423850875362 3568.774726303956868 14340.40380510271825 
	16698.4642385117404 3544.362197246848154 14312.03585312315045 
	16698.46423851607324 3522.137751343664149 14281.92292687562076 
	16698.46423851748477 3502.226015496968557 14250.23327694252293 
	16698.46423852078078 3482.794619515819704 14213.46783657181368 
	16698.46423852381122 3465.01676660858584 14171.29380984124691 
	16698.46423852519729 3450.300262426602785 14123.58331180330242 
	16698.46423852806038 3443.292571591973683 14088.91843582299953 
	16698.46423852832231 3440.472381057072198 14069.38170698719841 
	16698.46423852831867 3439.917128493457767 14065.26340361074108 
	16698.46423852832595 3439.122780095392955 14059.08087521130619 
	16698.46423852838052 3437.610508578283316 14045.65922800916269 
	16698.46423852849694 3436.057280647781226 14024.93314506239767 
	16698.46423852843509 3435.539133292960287 14004.1554142984296 
	16698.46423852844237 3435.746365202815468 13987.53321827078071 
	16698.46423852823864 3436.678751361743707 13962.61548059135566 
	16698.46423852759472 3441.234332337249725 13917.07469053009663 
	16698.46423852484804 3453.289084790334073 13864.25971757822299 
	16698.4642385236948 3467.711520039799325 13823.04648962892861 
	16698.46423852329463 3477.25471608980888 13800.00714628999958 
	16698.46423852250155 3492.851232764101496 13766.00725280874758 
	16698.46423851561121 3520.978848748893597 13717.28661272333557 
	16698.46423850884457 3562.551099724303185 13665.1588856598064 
	16698.46423850257634 3604.250896713640486 13624.48694877554772 
	16698.46423850065185 3643.286734178660936 13593.3572672752598 
	16698.46423849446364 3692.217783707372291 13561.75299465034186 
	16698.46423848645281 3752.289593363074346 13532.82328696350669 
	16698.464238469056 3817.993888005590179 13512.55745052054408 
	16698.46423845685786 3879.543241779169421 13502.10063668379007 
	16698.46423844393212 3935.643091851521604 13498.94953519506998 
	16698.46423843020239 3991.742732050430277 13502.10071539041564 
	16698.46423841223805 4053.292502895785674 13512.55667886282754 
	16698.46423839183262 4107.049675662710797 13529.13952787882408 
	16698.46423838665942 4152.787051681284538 13549.0958813084053 
	16698.46423837591647 4185.876206251590702 13566.58339063933454 
	16698.46423836468239 4217.565625077965706 13586.49554730230375 
	16698.4642383510145 4252.697639672713194 13612.42359746366856 
	16698.46423832393702 4289.938958417445065 13645.70411528146542 
	16698.46423828793922 4327.379722515368485 13687.60048104333146 
	16698.46423826389582 4359.894252250971476 13733.42535287192186 
	16698.46423817627146 4387.073368058320739 13782.60266134010453 
	16698.46423810784108 4408.575867537508202 13834.51370218753618 
	16698.4642380204823 4421.53798751837985 13879.50725389838044 
	16698.46423799448166 4428.836876279526223 13916.20303874567981 
	16698.46423797088937 4432.759652089600422 13943.98844447947522 
	16698.46423794608563 4434.725034701559707 13967.28984482124361 
	16698.46423793826034 4435.413337574212164 13983.63942864432465 
	16698.46423793597569 4435.585441376213566 13991.81904981401567 
	16698.46423793540453 4435.628468759549833 13995.90946383306436 
	16698.46423793524809 4435.63922575403376 13997.95474636764266 
	16698.46423793520808 4435.641915001651796 13998.977397068762 
	16698.46423793519352 4435.642683359322291 13999.56177025043689 
	16698.46423793518989 4435.642811419873397 13999.85395706569398 
	16698.46423793519352 4435.642811419686041 14000.00005047253035 
	16781.79757126852564 4435.642811419686041 14000.00005047253035 
	16781.7975712685402 4435.642811418186284 14001.16879772721586 
	16781.79757126900222 4435.634615515949008 14003.50629213522006 
	16781.79757126942786 4435.585441309312046 14008.18105108959026 
	16781.79757127157063 4435.413337409996529 14016.36067230455228 
	16781.79757127844277 4434.725033927220466 14032.7102566050944 
	16781.79757130044163 4432.759650231667365 14056.0116583000181 
	16781.79757132091254 4428.836871656531912 14083.79706640476252 
	16781.79757134370811 4421.537984125720868 14120.49285253700873 
	16781.7975714173881 4408.575844861938094 14165.48641886792029 
	16781.79757147736746 4387.073367138663343 14217.39745859827417 
	16781.7975715442044 4359.894195111732188 14266.57481277524857 
	16781.79757159925794 4327.379473851115108 14312.39940431534887 
	16781.7975716622459 4289.939024064493424 14354.29630008881759 
	16781.7975716790861 4249.59397859751607 14390.3495727731588 
	16781.79757171642996 4200.610233258834342 14425.56875944779313 
	16781.79757172559766 4156.693792925466369 14449.48396236460758 
	16781.79757173436519 4114.558372686296025 14467.24402420004844 
	16781.79757174031693 4083.157842705659277 14478.23174651161753 
	16781.79757175159466 4034.956828853084971 14491.1482934302021 
	16781.79757176428757 3973.147709983111326 14500.4660690394121 
	16781.79757178685031 3898.137883459099612 14500.46554988028947 
	16781.79757180364686 3836.328573457792118 14491.1487380154158 
	16781.7975718075686 3788.127684965075332 14478.23201636208978 
	16781.79757181589957 3752.801746267236467 14465.87146869928802 
	16781.79757182199319 3718.498437970093619 14450.90481879781146 
	16781.79757182855246 3690.924288473421711 14436.33151302803162 
	16781.79757183042602 3669.564642121253655 14423.46092878865602 
	16781.79757183193942 3648.701065895099873 14409.80087969901979 
	16781.79757183475158 3628.625732983522084 14394.98467809044087 
	16781.79757183657784 3609.422919414675107 14379.07436369777679 
	16781.79757183772381 3590.828301377768184 14362.45732444460009 
	16781.79757184208574 3568.774726303956413 14340.40380510271825 
	16781.79757184507253 3544.3621972468477 14312.03585312315045 
	16781.79757184940536 3522.137751343663695 14281.92292687562076 
	16781.79757185081689 3502.226015496968103 14250.23327694252293 
	16781.7975718541129 3482.79461951581925 14213.46783657181368 
	16781.79757185714334 3465.016766608585385 14171.29380984124691 
	16781.79757185852941 3450.30026242660233 14123.58331180330242 
	16781.7975718613925 3443.292571591973228 14088.91843582299953 
	16781.79757186165443 3440.472381057071743 14069.38170698719841 
	16781.79757186165079 3439.917128493457312 14065.26340361074108 
	16781.79757186165807 3439.1227800953925 14059.08087521130619 
	16781.79757186171264 3437.610508578282861 14045.65922800916269 
	16781.79757186182906 3436.057280647780772 14024.93314506239767 
	16781.79757186176721 3435.539133292959832 14004.1554142984296 
	16781.79757186177449 3435.746365202815014 13987.53321827078071 
	16781.79757186157076 3436.678751361743252 13962.61548059135566 
	16781.79757186092684 3441.23433233724927 13917.07469053009663 
	16781.79757185818016 3453.289084790333618 13864.25971757822299 
	16781.79757185702692 3467.71152003979887 13823.04648962892861 
	16781.79757185662675 3477.254716089808426 13800.00714628999958 
	16781.79757185583367 3492.851232764101042 13766.00725280874758 
	16781.79757184894333 3520.978848748893142 13717.28661272333557 
	16781.79757184217669 3562.55109972430273 13665.1588856598064 
	16781.79757183590846 3604.250896713640032 13624.48694877554772 
	16781.79757183398397 3643.286734178660481 13593.3572672752598 
	16781.79757182779576 3692.217783707371836 13561.75299465034186 
	16781.79757181978493 3752.289593363073891 13532.82328696350669 
	16781.79757180238812 3817.993888005589724 13512.55745052054408 
	16781.79757179018998 3879.543241779168966 13502.10063668379007 
	16781.79757177726424 3935.643091851521149 13498.94953519506998 
	16781.79757176353451 3991.742732050429822 13502.10071539041564 
	16781.79757174557017 4053.292502895785219 13512.55667886282754 
	16781.79757172516474 4107.049675662710797 13529.13952787882408 
	16781.79757171999154 4152.787051681284538 13549.0958813084053 
	16781.79757170924859 4185.876206251590702 13566.58339063933454 
	16781.79757169801451 4217.565625077965706 13586.49554730230375 
	16781.79757168434662 4252.697639672713194 13612.42359746366856 
	16781.79757165726915 4289.938958417445065 13645.70411528146542 
	16781.79757162127135 4327.379722515368485 13687.60048104333146 
	16781.79757159722794 4359.894252250971476 13733.42535287192186 
	16781.79757150960359 4387.073368058320739 13782.60266134010453 
	16781.7975714411732 4408.575867537508202 13834.51370218753618 
	16781.79757135381442 4421.53798751837985 13879.50725389838044 
	16781.79757132781378 4428.836876279526223 13916.20303874567981 
	16781.79757130422149 4432.759652089600422 13943.98844447947522 
	16781.79757127941775 4434.725034701559707 13967.28984482124361 
	16781.79757127159246 4435.413337574212164 13983.63942864432465 
	16781.79757126930781 4435.585441376213566 13991.81904981401567 
	16781.79757126873665 4435.628468759549833 13995.90946383306436 
	16781.79757126858021 4435.63922575403376 13997.95474636764266 
	16781.7975712685402 4435.641915001651796 13998.977397068762 
	16781.79757126852564 4435.642683359322291 13999.56177025043689 
	16781.79757126852201 4435.642811419873397 13999.85395706569398 
	16781.79757126852564 4435.642811419686041 14000.00005047253035 
	0 
	
	0 
	0 
	81 0 0.001116071428571428509 0.002232142857142857019 0.004464285714285714038 0.008928571428571428076 0.01785714285714285615 0.02678571428571428423 0.0357142857142857123 0.05357142857142856845 0.07142857142857142461 0.08928571428571427382 0.1071428571428571369 0.125 0.1428571428571428492 0.1587301587301587213 0.1825396825396825295 0.1904761904761904656 0.2023809523809523836 0.2142857142857142738 0.238095238095238082 0.2619047619047618625 0.2857142857142856984 0.2976190476190476164 0.3095238095238095344 0.3214285714285713969 0.3333333333333333148 0.3392857142857143016 0.3452380952380952328 0.3571428571428570953 0.3630952380952380265 0.3690476190476190133 0.3809523809523809312 0.3928571428571428492 0.4047619047619047672 0.4166666666666666297 0.4285714285714285476 0.4444444444444444198 0.4603174603174602919 0.476190476190476164 0.4781746031746031411 0.4791666666666666297 0.4801587301587301182 0.4841269841269840724 0.4920634920634920362 0.5 0.5039682539682539542 0.5079365079365079083 0.5238095238095237249 0.5476190476190475609 0.5595238095238095344 0.5654761904761904656 0.5714285714285713969 0.5952380952380951218 0.6190476190476189577 0.6349206349206348854 0.650793650793650702 0.6666666666666666297 0.6904761904761904656 0.7142857142857141906 0.7321428571428569843 0.749999999999999889 0.7678571428571427937 0.7857142857142855874 0.8095238095238094234 0.8214285714285713969 0.8333333333333332593 0.8452380952380951218 0.8571428571428570953 0.875 0.8928571428571427937 0.9107142857142856984 0.9285714285714286031 0.9464285714285713969 0.9642857142857143016 0.9732142857142858094 0.9821428571428572063 0.9910714285714286031 0.9955357142857143016 0.9977678571428572063 0.9994419642857143016 0.9998604910714286031 
	0 
	0 
	0 
	F 1 F 0 F 1 F 0 } I I I I #
tcoedge-coedge $-1 -1 $-1 $14 $14 $18 $19 reversed $9 $20 -6.283185307179586232 -0 #
tcoedge-coedge $-1 -1 $-1 $21 $22 $11 $16 reversed $12 $23 -6.283185307179586232 -0 #
tedge-edge $-1 -1 $-1 $24 0 $24 6.283185307179586232 $15 $25 forward @7 unknown 0.0008065527702928095575 #
pcurve $-1 -1 $-1 0 forward { exppc nurbs 2 periodic 5 
	0 2 1.570796326794896558 2 3.141592653589793116 2 4.712388980384689674 2 6.283185307179586232 2 
	0 500 1 
	-500 500 0.707106781186543798 
	-500 0 1 
	-500 -500 0.7071067811865463515 
	0 -500 1 
	500 -500 0.7071067811865463515 
	500 0 1 
	500 500 0.707106781186543798 
	0 500 1 
	0 
	plane 16781.79757191538738 3935.642797989757128 14000.00000000000182 1 -3.637978807091713027e-15 0 0 0 -1 forward_v I I I I 
	} 0 0 #
tcoedge-coedge $-1 -1 $-1 $22 $21 $14 $19 forward $12 $26 0 6.283185307179586232 #
tedge-edge $-1 -1 $-1 $27 0 $27 6.283185307179586232 $18 $28 forward @7 unknown 0.0008065527696867943195 #
pcurve $-1 -1 $-1 0 forward { exppc nurbs 2 periodic 5 
	-6.283185307179586232 2 -4.712388980384689674 2 -3.141592653589793116 2 -1.570796326794896558 2 0 2 
	0 500 1 
	500 500 0.707106781186543798 
	500 0 1 
	500 -500 0.7071067811865463515 
	0 -500 1 
	-500 -500 0.7071067811865463515 
	-500 0 1 
	-500 500 0.707106781186543798 
	0 500 1 
	0 
	plane 16531.79757191538738 3935.642797989758037 14000.00000000000182 -1 3.637978807091713027e-15 -0 0 0 -1 reverse_v I I I I 
	} 0 0 #
coedge $-1 -1 $-1 $18 $15 $22 $29 reversed $12 $30 #
coedge $-1 -1 $-1 $15 $18 $21 $29 forward $12 $31 #
pcurve $-1 -1 $-1 0 forward { exppc nubs 1 periodic 2 
	-6.283185307179586232 1 -0 1 
	1 1 
	0 1 
	4.4114023995510105e-13 
	spline forward { ref 0 } I I I I 
	} 0 0 #
tvertex-vertex $-1 -1 $-1 $16 $32 5.223273500499694001e-05 #
ellipse-curve $-1 -1 $-1 16781.79757191538738 3935.642797989757128 14000.00000000000182 1 -3.637978807091713027e-15 0 1.818989403545856476e-12 500 0 1 I I #
pcurve $-1 -1 $-1 0 forward { exppc nubs 1 periodic 2 
	0 1 6.283185307179586232 1 
	0 0 
	1 0 
	4.411402399551011509e-13 
	spline forward { ref 0 } I I I I 
	} 0 0 #
tvertex-vertex $-1 -1 $-1 $19 $33 5.223261645761304874e-05 #
ellipse-curve $-1 -1 $-1 16531.79757191538738 3935.642797989758037 14000.00000000000182 1 -3.637978807091713027e-15 0 1.818989403545856476e-12 500 0 1 I I #
edge $-1 -1 $-1 $27 0 $24 1 $22 $34 forward @7 tangent #
pcurve $-1 -1 $-1 -1 $34 0 0 #
pcurve $-1 -1 $-1 1 $34 1 0 #
point $-1 -1 $-1 16781.79757191539102 4435.642797989757128 14000.00000000000182 #
point $-1 -1 $-1 16531.79757191539102 4435.642797989758037 14000.00000000000182 #
intcurve-curve $-1 -1 $-1 forward { parcur full nubs 3 open 2 
	0 3 1 3 
	16531.79757127816993 4435.64281141968695 14000.00005047253035 
	16615.13090461150205 4435.642811419686041 14000.00005047253035 
	16698.46423793519352 4435.642811419686041 14000.00005047253035 
	16781.79757126852564 4435.642811419686041 14000.00005047253035 
	0 
	
	spline forward { ref 0 } I I I I 
	null_surface 
	nubs 1 open 2 
	0 1 1 1 
	0 0 
	0 1 
	
	nullbs 
	I I 
	0 
	0 
	0 
	surf1 } I I #
End-of-ACIS-data 