700 0 1 0           
4 LibG 20 ASM 224.0.1.65535 NT 24 Wed Jul 17 15:51:50 2019 
1000 9.999999999999999547e-07 1.000000000000000036e-10 
body $-1 -1 $-1 $1 $-1 $2 #
lump $-1 -1 $-1 $-1 $3 $0 #
transform $-1 -1 1 0 0 0 1 0 0 0 1 0 0 0 1 no_rotate no_reflect no_shear #
shell $-1 -1 $-1 $-1 $-1 $4 $-1 $1 #
face $-1 -1 $-1 $-1 $5 $3 $-1 $6 forward double out #
loop $-1 -1 $-1 $-1 $7 $4 #
spline-surface $-1 -1 $-1 forward { exactsur full nubs 3 3 open open none none 63 2 
	0 3 0.01785714285714285615 1 0.0357142857142857123 1 0.05357142857142856845 1 0.07142857142857142461 1 
	0.08928571428571427382 1 0.1071428571428571369 1 0.125 1 0.1428571428571428492 1 0.1587301587301587213 1 
	0.1746031746031745935 1 0.1904761904761904656 1 0.2142857142857142738 1 0.226190476190476164 1 0.238095238095238082 1 
	0.2619047619047618625 1 0.2857142857142856984 1 0.3095238095238095344 1 0.3333333333333333148 1 0.3452380952380952328 1 
	0.3571428571428570953 1 0.3809523809523809312 1 0.3968253968253968034 1 0.4126984126984126755 1 0.4146825396825396526 1 
	0.4166666666666666297 1 0.4206349206349205838 1 0.4285714285714285476 1 0.4444444444444444198 1 0.4603174603174602919 1 
	0.476190476190476164 1 0.4999999999999999445 1 0.5238095238095237249 1 0.5476190476190475609 1 0.5714285714285713969 1 
	0.5952380952380951218 1 0.6190476190476189577 1 0.6269841269841269771 1 0.6349206349206348854 1 0.650793650793650702 1 
	0.6666666666666666297 1 0.674603174603174538 1 0.6904761904761904656 1 0.7142857142857141906 1 0.7321428571428569843 1 
	0.749999999999999889 1 0.7738095238095237249 1 0.7797619047619046562 1 0.7857142857142855874 1 0.8035714285714284921 1 
	0.8214285714285713969 1 0.8392857142857141906 1 0.8571428571428570953 1 0.8660714285714286031 1 0.875 1 
	0.8839285714285713969 1 0.8928571428571427937 1 0.9107142857142856984 1 0.9285714285714286031 1 0.9464285714285713969 1 
	0.9642857142857143016 1 0.9821428571428572063 1 1 3 
	0 3 1 3 
	1008.360864791441713 3095.625040713614908 14487.45509837622376 
	1008.360864791441713 3113.259463964797305 14487.45509837622376 
	1008.360864791442054 3148.528248477170564 14485.53937233006218 
	1008.360864791442623 3200.808957483831819 14476.95238216126381 
	1008.360864791442623 3251.851939236749331 14462.75304923596923 
	1008.36086479144285 3301.056577700719572 14443.10844384838492 
	1008.360864791443305 3347.843906178962698 14418.24975241058019 
	1008.360864791443532 3391.663279817723833 14388.46943412043584 
	1008.360864791443873 3431.999290498905339 14354.11804032975851 
	1008.360864791444101 3467.029484530950867 14317.02612227600548 
	1008.360864791444214 3496.877421768444947 14278.11366389909745 
	1008.360864791444442 3521.799684547283505 14238.1714071334336 
	1008.360864791444783 3546.253376740545718 14188.98855613847809 
	1008.360864791444897 3563.325518550775541 14140.8489015695086 
	1008.360864791444897 3574.155304454327052 14095.05610466286453 
	1008.360864791444897 3581.649834941089011 14048.60088362907118 
	1008.360864791445465 3584.677103728883594 13989.74320345188971 
	1008.360864791445465 3578.086326963365082 13919.32837653147908 
	1008.360864791445806 3561.411013056075717 13850.5997697687726 
	1008.360864791446147 3539.400564835104888 13795.92863049096195 
	1008.360864791446602 3517.200873491613947 13754.43853575723551 
	1008.360864791446602 3492.062883388519367 13714.65978709039518 
	1008.360864791447511 3460.258890157722362 13674.69237026359951 
	1008.36086479144808 3421.135072739190491 13636.14027061196975 
	1008.360864791447852 3395.238139185754335 13615.12960365398794 
	1008.360864791448194 3379.374616476210576 13603.62828493879169 
	1008.360864791447966 3372.97423907593884 13599.10455718678895 
	1008.360864791447511 3361.631564265761881 13591.39154171847258 
	1008.360864791446943 3338.398176100614364 13576.79275031682664 
	1008.360864791445465 3303.756589608827653 13558.37505979981142 
	1008.360864791444783 3260.250924673176087 13540.38156001326752 
	1008.360864791444328 3207.708648005453142 13524.3740741447109 
	1008.360864791443646 3145.805736646693276 13513.42111158317857 
	1008.360864791442737 3075.115737769785937 13511.27079905695791 
	1008.360864791441713 3004.854559044502366 13519.33614907425545 
	1008.360864791440576 2936.490809536652705 13537.44921987324415 
	1008.360864791439326 2871.453331138335216 13565.23088690206532 
	1008.360864791438757 2824.513584622561211 13593.90775071716962 
	1008.360864791438303 2793.187497258317308 13617.47130130004916 
	1008.360864791438075 2769.063890330910453 13637.50752137881136 
	1008.36086479143853 2740.774579099382663 13664.69136787418211 
	1008.360864791437848 2715.23518331832156 13694.47365923866164 
	1008.360864791437848 2691.936029032940951 13725.99680337439167 
	1008.360864791437734 2666.761406339091536 13765.78071104860828 
	1008.360864791438075 2642.311706244029665 13817.23839699062955 
	1008.360864791436939 2623.966574050373765 13873.17501151368015 
	1008.36086479143728 2611.784372151772004 13930.76880019481723 
	1008.360864791436825 2607.931943992932702 13977.75941585475812 
	1008.360864791437052 2608.23792136876682 14013.03274712814164 
	1008.360864791436939 2609.554570565453105 14042.39874035557114 
	1008.360864791437962 2614.372040037443639 14083.32379852434315 
	1008.360864791438757 2626.228887630369172 14134.96120919704299 
	1008.36086479143944 2643.609057570905861 14185.01060518168561 
	1008.360864791440235 2662.525216084974545 14224.90407174547727 
	1008.360864791440235 2680.183577419502853 14255.44896333871111 
	1008.360864791440349 2694.65005094250364 14277.60579322443846 
	1008.360864791440463 2710.29720367066966 14298.94520743950488 
	1008.360864791440576 2732.672192694210935 14326.22464958536511 
	1008.360864791440804 2763.354826191204666 14357.97187128416772 
	1008.36086479144069 2804.084134476073359 14391.85602137494789 
	1008.360864791441145 2848.243910751106341 14421.12925907974204 
	1008.360864791440918 2895.314696288265623 14445.446978337568 
	1008.360864791441259 2944.742542860406502 14464.52310340173426 
	1008.360864791441713 2978.878060164367525 14473.596440388872 
	1008.360864791441713 2996.141323857049429 14477.19541386456876 
	1258.360864791441827 3095.625040713673116 14489.63673225081584 
	1258.3608647914416 3113.376325488781276 14489.63673566942271 
	1258.360864791442282 3148.878832898720702 14487.704154631856 
	1258.360864791442509 3201.503299488149878 14479.04178099108503 
	1258.360864791442964 3252.876497894131717 14464.71828108301997 
	1258.360864791442737 3302.391320487406574 14444.90292043918453 
	1258.360864791443419 3349.462641819270175 14419.82990205238821 
	1258.360864791443419 3393.534087237096628 14389.79548430577415 
	1258.360864791444101 3434.085055979429399 14355.15473888967244 
	1258.360864791443873 3469.282085892870782 14317.75521324027977 
	1258.360864791444556 3499.250592121064074 14278.52568940037236 
	1258.360864791444101 3524.250358997846888 14238.26416178000727 
	1258.360864791445238 3548.747894873114546 14188.69681565746578 
	1258.360864791444556 3565.804992775920709 14140.19263656895419 
	1258.360864791445238 3576.573720000692447 14094.06542221726522 
	1258.360864791444783 3583.975946656035376 14047.27996150566105 
	1258.360864791445692 3586.8296415848381 13988.0225458152072 
	1258.360864791445692 3579.941538261040478 13917.16537567375781 
	1258.360864791445465 3562.886748289210573 13848.04738443009592 
	1258.360864791446375 3540.499535194203872 13793.10785301006035 
	1258.360864791446602 3517.968076899682728 13751.44302213282936 
	1258.360864791446602 3492.48041217999662 13711.51795155620312 
	1258.360864791447284 3460.272310902926165 13671.44105675343053 
	1258.360864791448648 3420.693252015492817 13632.83497215606803 
	1258.360864791447511 3394.513756287283741 13611.82375725891688 
	1258.360864791448421 3378.483189703431435 13600.33307637609141 
	1258.360864791447739 3372.015937656437018 13595.81457355299426 
	1258.360864791447739 3360.556110337419341 13588.11326879881017 
	1258.360864791446602 3337.088234158999512 13573.54818574043202 
	1258.360864791446147 3302.11280371087696 13555.20820541484318 
	1258.360864791444101 3258.213773718337507 13537.35527914245358 
	1258.360864791444783 3205.22734743504725 13521.56624150686002 
	1258.360864791443646 3142.846918146249209 13510.93879032398218 
	1258.360864791442737 3071.677893337865953 13509.25049452486564 
	1258.3608647914416 3001.012288008116229 13517.86405424937948 
	1258.36086479144069 2932.333521702315011 13536.59922410869876 
	1258.360864791439326 2867.083176604528944 13565.06208966898885 
	1258.360864791438871 2820.065322518831181 13594.30160872316446 
	1258.360864791438416 2788.727860337360653 13618.27580481821315 
	1258.360864791437962 2764.613128290340683 13638.64305653077463 
	1258.360864791438644 2736.369110749830725 13666.24360272849117 
	1258.360864791437962 2710.921281003881177 13696.44146942200496 
	1258.360864791437962 2687.748517035835448 13728.37552481834609 
	1258.360864791437734 2662.767177864897803 13768.64462893679411 
	1258.360864791437962 2638.633786695592335 13820.66338844399252 
	1258.360864791437052 2620.701670345147249 13877.13816230410339 
	1258.360864791437052 2609.001906050004436 13935.22470616921964 
	1258.360864791437052 2605.595515482147221 13982.55893554492468 
	1258.360864791436825 2606.26397495434594 14018.0574903342349 
	1258.36086479143728 2607.891546485270283 14047.5999758185153 
	1258.360864791437507 2613.168064565159966 14088.73955260412731 
	1258.360864791439099 2625.653552057319757 14140.58406602026844 
	1258.360864791439553 2643.692724095676112 14190.76679700895329 
	1258.360864791440008 2663.176079080667023 14230.70648924726265 
	1258.36086479144069 2681.294390431957709 14261.24790638454215 
	1258.360864791440008 2696.107718449194181 14283.38164969725221 
	1258.36086479144069 2712.102408623586143 14304.67726622098053 
	1258.360864791440918 2734.940042562544022 14331.87054314635679 
	1258.360864791440235 2766.196493870737413 14363.45776459903209 
	1258.360864791441145 2807.597155913731513 14397.0666099687769 
	1258.36086479144069 2852.40101626407295 14425.98282839581952 
	1258.3608647914416 2900.07873181250261 14449.86460218257344 
	1258.36086479144069 2950.06676066914315 14468.42982953529827 
	1258.360864791442054 2984.538472887953048 14477.11603003972232 
	1258.360864791441827 3001.959085076790871 14480.51083304819258 
	1508.360864791441827 3095.625040713731323 14491.81836612540974 
	1508.360864791441827 3113.493187352274617 14491.81836270680287 
	1508.360864791442054 3149.229416110181319 14489.86893846241401 
	1508.360864791442964 3202.19763998977578 14481.13117532697652 
	1508.360864791442509 3253.901053473467982 14466.68351205274303 
	1508.360864791443419 3303.726059829970836 14446.6973951497057 
	1508.360864791444101 3351.081371859716455 14421.41005080595096 
	1508.360864791444556 3395.404889464371081 14391.12153405305799 
	1508.360864791445238 3436.170812629283319 14356.1914369196802 
	1508.360864791446147 3471.534680303830555 14318.48430488690428 
	1508.360864791445465 3501.623750274519807 14278.93771505477889 
	1508.360864791446602 3526.701034698756757 14238.35692100961023 
	1508.360864791446602 3551.24240671001553 14188.40507896963209 
	1508.360864791447057 3568.284452496754966 14139.53637545112178 
	1508.360864791447057 3578.99214071968845 14093.07474660789194 
	1508.360864791447511 3586.302052653140436 14045.95904608690398 
	1508.360864791447511 3588.98217942845622 13986.30189546009569 
	1508.360864791447511 3581.79674345078638 13915.00238442847694 
	1508.360864791448648 3564.362479576531314 13845.49500621091465 
	1508.360864791448648 3541.598492330163026 13790.28709205500127 
	1508.360864791449785 3518.735275733377421 13748.44751555827133 
	1508.360864791449785 3492.897929402462523 13708.37613396225061 
	1508.360864791451377 3460.285733746850838 13668.18973724725038 
	1508.360864791451377 3420.25143798871477 13629.52965845510698 
	1508.360864791452059 3393.789372342212118 13608.51790959660684 
	1508.360864791452059 3377.591769423502228 13597.03784985079437 
	1508.360864791452286 3371.057640233555048 13592.52457627648982 
	1508.360864791451149 3359.480662720174678 13584.83498034949844 
	1508.360864791451149 3335.778295288749632 13570.30360467305945 
	1508.360864791447284 3300.469022667300578 13552.04134057331794 
	1508.360864791447511 3256.176625473334298 13534.32898301594651 
	1508.360864791445692 3202.746051062274091 13518.7584026554523 
	1508.360864791444783 3139.888109004423313 13508.45648183584672 
	1508.360864791442964 3068.24005422215896 13507.23019017573461 
	1508.360864791441372 2997.170021946966244 13516.39196599118986 
	1508.360864791439326 2928.176238625701899 13535.74923016676439 
	1508.360864791437507 2862.71302118917265 13564.89329520473439 
	1508.360864791436597 2815.617069407193867 13594.69547036380754 
	1508.360864791436143 2784.268214599013845 13619.08030689193038 
	1508.360864791435915 2760.162371530939708 13639.77859358345631 
	1508.360864791436143 2731.963639738683469 13667.79583844921399 
	1508.360864791435233 2706.607388558429648 13698.40927971622841 
	1508.360864791435233 2683.560996808429991 13730.75424794653554 
	1508.360864791435233 2658.772960434027937 13771.50854593994336 
	1508.360864791435915 2634.95587287979879 13824.08837964387385 
	1508.360864791433869 2617.436783230745732 13881.10130713054605 
	1508.360864791434778 2606.219438932825142 13939.68061870995371 
	1508.360864791433414 2603.259106028128826 13987.35844302529767 
	1508.360864791434324 2604.290017004231231 14023.08224552620595 
	1508.360864791433869 2606.228532731558971 14052.80120545497266 
	1508.360864791435688 2611.964084639600969 14094.15531174311946 
	1508.360864791436825 2625.078219716865533 14146.20692117348517 
	1508.360864791437962 2643.776389155073957 14196.52299110923741 
	1508.360864791439553 2663.826943518360167 14236.50890367390821 
	1508.360864791439099 2682.405200942562715 14267.04685581807462 
	1508.360864791440008 2697.56538588473768 14289.15750443671459 
	1508.360864791439781 2713.907611668756545 14310.40933114248764 
	1508.360864791439781 2737.207891827643834 14337.51643325402074 
	1508.360864791440918 2769.038160320589668 14368.94365777139319 
	1508.360864791439781 2811.110175437012458 14402.27719584574879 
	1508.360864791441372 2856.558120849182615 14430.83639657790809 
	1508.360864791440235 2904.842763424720488 14454.2822208476191 
	1508.360864791441827 2955.390979785951913 14472.33655719881426 
	1508.3608647914416 2990.198877107090084 14480.63560805886482 
	1508.360864791441827 3007.776846296531858 14483.8262522318164 
	1758.360864791441827 3095.625040713789531 14494.00000000000182 
	1758.360864791441827 3113.610048876258588 14494.00000000000182 
	1758.360864791442282 3149.580000531731457 14492.03372076420783 
	1758.360864791442964 3202.89198199409384 14483.22057415679774 
	1758.360864791442737 3254.925612130850368 14468.64874389979377 
	1758.360864791443419 3305.060802616657838 14448.4918717405053 
	1758.360864791444101 3352.700107500023933 14422.99020044775898 
	1758.360864791444556 3397.275696883743876 14392.4475842383963 
	1758.360864791445465 3438.256578109807378 14357.22813547959413 
	1758.36086479144592 3473.78728166575047 14319.21339585117857 
	1758.36086479144592 3503.996920627138934 14279.3497405560538 
	1758.360864791446147 3529.151709149320141 14238.4496756561839 
	1758.360864791447057 3553.736924842584358 14188.11333848861977 
	1758.360864791446829 3570.763926721900134 14138.88011045056737 
	1758.360864791447284 3581.410556266053845 14092.08406416229263 
	1758.360864791447284 3588.6281643680868 14044.63812396349385 
	1758.360864791447739 3591.134717284410726 13984.58123782341318 
	1758.360864791447739 3583.651954748461776 13912.83938357075567 
	1758.360864791448421 3565.838214809666169 13842.94262087223797 
	1758.360864791448876 3542.697462689262011 13787.46631457409967 
	1758.360864791449785 3519.502479141446202 13745.45200193386518 
	1758.360864791449785 3493.315458193939776 13705.23429842805854 
	1758.360864791451149 3460.29915449205464 13664.93842373708139 
	1758.360864791452059 3419.809617265017096 13626.22435999920526 
	1758.360864791451604 3393.064989443741524 13605.21206320153578 
	1758.360864791452286 3376.700342650723087 13593.74264128809409 
	1758.360864791452059 3370.099338814053226 13589.23459264269513 
	1758.360864791451377 3358.405208791832138 13581.55670742983602 
	1758.360864791450695 3334.46835334713478 13567.05904009666483 
	1758.360864791447966 3298.825236769349885 13548.87448618834969 
	1758.360864791446829 3254.139474518495717 13531.30270214513257 
	1758.360864791446147 3200.264750491868199 13515.95057001760142 
	1758.360864791444783 3136.929290503979246 13505.97416057665032 
	1758.360864791442964 3064.802209790238976 13505.20988564364234 
	1758.360864791441372 2993.327750910580107 13514.9198711663139 
	1758.360864791439553 2924.018950791364205 13534.89923440221901 
	1758.360864791437507 2858.342866655366379 13564.72449797165791 
	1758.360864791436825 2811.168807303463836 13595.08932836980239 
	1758.360864791436143 2779.80857767805719 13619.88481041009436 
	1758.360864791435688 2755.711609490369938 13640.91412873541958 
	1758.360864791436143 2727.55817138913153 13669.34807330352305 
	1758.360864791435461 2702.293486243989264 13700.37708989957173 
	1758.360864791435233 2679.373484811324488 13733.13296939048996 
	1758.360864791435233 2654.778731959834204 13774.37246382812918 
	1758.360864791435915 2631.277953331361459 13827.51337109723681 
	1758.360864791434096 2614.171879525519216 13885.06445792096929 
	1758.360864791434551 2603.436972831057574 13944.13652468435612 
	1758.360864791433869 2600.922677517343345 13992.15796271546424 
	1758.360864791434096 2602.316070589810352 14028.10698873229921 
	1758.360864791434096 2604.565508651376149 14058.00244091791683 
	1758.360864791435461 2610.760109167317296 14099.57106582290362 
	1758.36086479143728 2624.502884143816118 14151.82977799671062 
	1758.360864791437962 2643.860055679844208 14202.27918293650509 
	1758.360864791439326 2664.477806514052645 14242.31132117569359 
	1758.360864791439553 2683.51601395501757 14272.84579886390566 
	1758.360864791439781 2699.02305339142822 14294.93336090952835 
	1758.360864791440008 2715.712816621673028 14316.14138992396329 
	1758.360864791440008 2739.475741695976922 14343.16232681501242 
	1758.360864791440463 2771.879828000122416 14374.42955108625756 
	1758.360864791440235 2814.623196874670612 14407.48778443957781 
	1758.360864791440918 2860.715226362149224 14435.68996589398557 
	1758.360864791440918 2909.606798948957476 14458.69984469262454 
	1758.360864791441372 2960.715197594688561 14476.24328333237827 
	1758.360864791441827 2995.859289830675607 14484.15519770971514 
	1758.360864791441827 3013.5946075162733 14487.14167141544021 
	0 
	
	0 
	0 
	61 0.01785714285714285615 0.0357142857142857123 0.05357142857142856845 0.07142857142857142461 0.08928571428571427382 0.1071428571428571369 0.125 0.1428571428571428492 0.1587301587301587213 0.1746031746031745935 0.1904761904761904656 0.2142857142857142738 0.226190476190476164 0.238095238095238082 0.2619047619047618625 0.2857142857142856984 0.3095238095238095344 0.3333333333333333148 0.3452380952380952328 0.3571428571428570953 0.3809523809523809312 0.3968253968253968034 0.4126984126984126755 0.4146825396825396526 0.4166666666666666297 0.4206349206349205838 0.4285714285714285476 0.4444444444444444198 0.4603174603174602919 0.476190476190476164 0.4999999999999999445 0.5238095238095237249 0.5476190476190475609 0.5714285714285713969 0.5952380952380951218 0.6190476190476189577 0.6269841269841269771 0.6349206349206348854 0.650793650793650702 0.6666666666666666297 0.674603174603174538 0.6904761904761904656 0.7142857142857141906 0.7321428571428569843 0.749999999999999889 0.7738095238095237249 0.7797619047619046562 0.7857142857142855874 0.8035714285714284921 0.8214285714285713969 0.8392857142857141906 0.8571428571428570953 0.8660714285714286031 0.875 0.8839285714285713969 0.8928571428571427937 0.9107142857142856984 0.9285714285714286031 0.9464285714285713969 0.9642857142857143016 0.9821428571428572063 
	0 
	0 
	0 
	F 1 F 0 F 1 F 0 } I I I I #
tcoedge-coedge $-1 -1 $-1 $8 $9 $-1 $10 forward $5 $11 0 6.077653338876559452 #
coedge $-1 -1 $-1 $12 $7 $-1 $13 forward $5 $14 #
coedge $-1 -1 $-1 $7 $12 $-1 $15 forward $5 $16 #
tedge-edge $-1 -1 $-1 $17 0 $18 6.077653338876559452 $7 $19 forward @7 unknown 0.000629233123099440456 #
pcurve $-1 -1 $-1 0 forward { exppc nubs 1 open 2 
	0 1 6.077653338876559452 1 
	0 0 
	0.999999999999999778 0 
	5.406393230863889615e-13 
	spline forward { ref 0 } I I I I 
	} 0 0 #
tcoedge-coedge $-1 -1 $-1 $9 $8 $-1 $20 forward $5 $21 5.388854305665205386e-15 6.116359051203988706 #
edge $-1 -1 $-1 $18 -4.132285959758209822e-17 $22 2.46151240769578683 $8 $23 forward @7 unknown #
pcurve $-1 -1 $-1 0 forward { exppc nubs 1 open 2 
	0 1 2.461512407695786386 1 
	1 0 
	1 0.999999999999999778 
	5.438812220404015887e-13 
	spline forward { ref 0 } I I I I 
	} 0 0 #
edge $-1 -1 $-1 $24 6.200340325500537452e-17 $17 2.460723610940036554 $9 $25 forward @7 unknown #
pcurve $-1 -1 $-1 0 forward { exppc nubs 1 open 2 
	0 1 2.460723610940036554 1 
	0 1 
	5.519610265533915884e-30 0 
	5.522622359421802951e-13 
	spline forward { ref 0 } I I I I 
	} 0 0 #
tvertex-vertex $-1 -1 $-1 $10 $26 1.045474735088646351e-11 #
tvertex-vertex $-1 -1 $-1 $10 $27 1.045474735088646351e-11 #
ellipse-curve $-1 -1 $-1 1008.360864791441713 3095.625040713614453 14000.00000000000364 -1 0 0 0 5.414335646491963618e-13 487.4550983762203487 1 F 0 F 6.077653338876559452 #
tedge-edge $-1 -1 $-1 $22 5.388854305665205386e-15 $24 6.116359051203988706 $12 $28 forward @7 unknown 0.0006546158675733661138 #
pcurve $-1 -1 $-1 0 forward { exppc nubs 1 open 2 
	0 1 6.116359051203988706 1 
	1 1 
	1.102427751101454986e-15 1 
	1.796092436963192727e-11 
	spline forward { ref 0 } I I I I 
	} 0 0 #
tvertex-vertex $-1 -1 $-1 $13 $29 1.363797880709171235e-11 #
straight-curve $-1 -1 $-1 1008.360864791441713 2996.141323857049429 14477.19541386456876 304.6907249604614094 7.090471534759609895 4.040709898425014934 F -4.132285959758209822e-17 F 2.46151240769578683 #
tvertex-vertex $-1 -1 $-1 $20 $30 1.483403064787792057e-11 #
straight-curve $-1 -1 $-1 1758.360864791441827 3095.625040713789531 14494.00000000000182 -304.7883950337225656 -7.084973177887292816e-11 -2.659746748753124113 F 6.200340325500537452e-17 F 2.460723610940036554 #
point $-1 -1 $-1 1008.360864791441713 3095.625040713615363 14487.45509837622376 #
point $-1 -1 $-1 1008.360864791441713 2996.141323857048974 14477.19541386456876 #
ellipse-curve $-1 -1 $-1 1758.360864791441827 3095.625040713781345 13999.99999999999818 1 0 0 0 -82.03043319750453577 487.1416714154415786 1 F 5.388854305665205386e-15 F 6.116359051203988706 #
point $-1 -1 $-1 1758.360864791441827 3013.594607516274209 14487.14167141544021 #
point $-1 -1 $-1 1758.360864791441827 3095.625040713792714 14493.99999999999818 #
End-of-ACIS-data 