700 0 1 0           
4 LibG 19 ASM 222.0.0.1700 NT 24 Wed Oct  5 17:30:03 2016 
1000 9.999999999999999547e-07 1.000000000000000036e-10 
body $-1 -1 $-1 $1 $-1 $-1 #
lump $-1 -1 $-1 $-1 $2 $0 #
shell $-1 -1 $-1 $-1 $-1 $3 $-1 $1 #
face $-1 -1 $-1 $4 $5 $2 $-1 $6 forward single #
face $-1 -1 $-1 $7 $8 $2 $-1 $9 forward single #
loop $-1 -1 $-1 $-1 $10 $3 #
plane-surface $-1 -1 $-1 4975.000000000001819 4475.000000000000909 14899.99999999999818 -1 -9.094700404485773296e-31 -3.582760765403485155e-30 -1.09202548129498224e-27 0 304.8000000000000114 forward_v I I I I #
face $-1 -1 $-1 $11 $12 $2 $-1 $13 forward single #
loop $-1 -1 $-1 $-1 $14 $4 #
plane-surface $-1 -1 $-1 5025 3925 14979.99999999999636 -3.798070907555131863e-30 -1.823074035626464291e-31 1 304.8000000000000114 0 1.157652012622804151e-27 forward_v I I I I #
coedge $-1 -1 $-1 $15 $16 $17 $18 forward $5 $-1 #
face $-1 -1 $-1 $19 $20 $2 $-1 $21 forward single #
loop $-1 -1 $-1 $-1 $22 $7 #
plane-surface $-1 -1 $-1 5025 4475.000000000001819 14900 2.071184703196974372e-29 1 3.883471318494326386e-29 0 -1.183682057877070683e-26 304.8000000000000114 forward_v I I I I #
coedge $-1 -1 $-1 $23 $24 $25 $26 reversed $8 $-1 #
coedge $-1 -1 $-1 $27 $10 $28 $29 forward $5 $-1 #
coedge $-1 -1 $-1 $10 $27 $30 $31 reversed $5 $-1 #
coedge $-1 -1 $-1 $32 $33 $10 $18 reversed $34 $-1 #
edge $-1 -1 $-1 $35 0 $36 1.804461942257219675 $10 $37 forward @7 unknown #
face $-1 -1 $-1 $38 $34 $2 $-1 $39 reversed single #
loop $-1 -1 $-1 $-1 $40 $11 #
plane-surface $-1 -1 $-1 4975.000000000000909 3925 14900 -2.588980878996217965e-29 -1 5.177961757992435929e-29 0 -1.578242743836094435e-26 -304.8000000000000114 forward_v I I I I #
coedge $-1 -1 $-1 $30 $41 $32 $42 forward $12 $-1 #
coedge $-1 -1 $-1 $43 $14 $44 $45 reversed $8 $-1 #
coedge $-1 -1 $-1 $14 $43 $46 $47 reversed $8 $-1 #
coedge $-1 -1 $-1 $48 $49 $14 $26 forward $50 $-1 #
edge $-1 -1 $-1 $51 0 $52 1.804461942257219675 $25 $53 forward @7 unknown #
coedge $-1 -1 $-1 $16 $15 $43 $54 forward $5 $-1 #
coedge $-1 -1 $-1 $40 $46 $15 $29 reversed $20 $-1 #
edge $-1 -1 $-1 $36 0 $55 0.2624671916010470341 $15 $56 forward @7 unknown #
coedge $-1 -1 $-1 $44 $22 $16 $31 forward $12 $-1 #
edge $-1 -1 $-1 $35 0 $57 0.2624671916010470341 $30 $58 forward @7 unknown #
coedge $-1 -1 $-1 $59 $17 $22 $42 reversed $34 $-1 #
coedge $-1 -1 $-1 $17 $59 $40 $60 reversed $34 $-1 #
loop $-1 -1 $-1 $-1 $33 $19 #
vertex $-1 -1 $-1 $42 $61 #
vertex $-1 -1 $-1 $18 $62 #
straight-curve $-1 -1 $-1 4975.000000000000909 4475.000000000000909 14900 0 -304.8000000000000114 0 F 0 F 1.804461942257219675 #
face $-1 -1 $-1 $-1 $50 $2 $-1 $63 forward single #
plane-surface $-1 -1 $-1 5025 3925 14900.00000000000182 3.798070907555131863e-30 1.823074035626464291e-31 1 304.8000000000000114 0 -1.157652012622804151e-27 forward_v I I I I #
coedge $-1 -1 $-1 $64 $28 $33 $60 forward $20 $-1 #
coedge $-1 -1 $-1 $22 $44 $49 $65 reversed $12 $-1 #
edge $-1 -1 $-1 $66 0 $35 0.1640419947506543963 $22 $67 forward @7 unknown #
coedge $-1 -1 $-1 $24 $23 $27 $54 reversed $8 $-1 #
coedge $-1 -1 $-1 $41 $30 $23 $45 forward $12 $-1 #
edge $-1 -1 $-1 $57 0 $51 0.1640419947506543963 $44 $68 forward @7 unknown #
coedge $-1 -1 $-1 $28 $64 $24 $47 forward $20 $-1 #
edge $-1 -1 $-1 $52 0 $55 0.1640419947506543963 $46 $69 forward @7 unknown #
coedge $-1 -1 $-1 $70 $25 $64 $71 forward $50 $-1 #
coedge $-1 -1 $-1 $25 $70 $41 $65 forward $50 $-1 #
loop $-1 -1 $-1 $-1 $70 $38 #
vertex $-1 -1 $-1 $65 $72 #
vertex $-1 -1 $-1 $26 $73 #
straight-curve $-1 -1 $-1 5025 4475.000000000000909 14979.99999999999818 0 -304.8000000000000114 0 F 0 F 1.804461942257219675 #
edge $-1 -1 $-1 $55 0 $57 1.804461942257219675 $27 $74 forward @7 unknown #
vertex $-1 -1 $-1 $29 $75 #
straight-curve $-1 -1 $-1 4975.000000000000909 3925 14900 0 0 304.8000000000000114 F 0 F 0.2624671916010470341 #
vertex $-1 -1 $-1 $31 $76 #
straight-curve $-1 -1 $-1 4975.000000000000909 4475.000000000000909 14900 0 0 304.8000000000000114 F 0 F 0.2624671916010470341 #
coedge $-1 -1 $-1 $33 $32 $70 $77 reversed $34 $-1 #
edge $-1 -1 $-1 $36 0 $78 0.1640419947506543963 $40 $79 forward @7 unknown #
point $-1 -1 $-1 4975.000000000000909 4475.000000000000909 14900 #
point $-1 -1 $-1 4975.000000000000909 3925 14900 #
plane-surface $-1 -1 $-1 5025 3925 14899.99999999999818 1 2.039417666460446759e-30 3.582760765403485856e-30 1.092025481294982599e-27 0 -304.8000000000000114 forward_v I I I I #
coedge $-1 -1 $-1 $46 $40 $48 $71 reversed $20 $-1 #
edge $-1 -1 $-1 $66 0 $51 0.2624671916010470341 $49 $80 forward @7 unknown #
vertex $-1 -1 $-1 $77 $81 #
straight-curve $-1 -1 $-1 5025 4475.000000000000909 14900 -304.8000000000000114 0 0 F 0 F 0.1640419947506543963 #
straight-curve $-1 -1 $-1 4975.000000000000909 4475.000000000000909 14979.99999999999818 304.8000000000000114 0 0 F 0 F 0.1640419947506543963 #
straight-curve $-1 -1 $-1 5025 3925 14979.99999999999818 -304.8000000000000114 0 0 F 0 F 0.1640419947506543963 #
coedge $-1 -1 $-1 $49 $48 $59 $77 forward $50 $-1 #
edge $-1 -1 $-1 $52 0 $78 0.2624671916010470341 $48 $82 forward @7 unknown #
point $-1 -1 $-1 5025 4475.000000000000909 14979.99999999999818 #
point $-1 -1 $-1 5025 3925 14979.99999999999818 #
straight-curve $-1 -1 $-1 4975.000000000000909 3925 14979.99999999999818 0 304.8000000000000114 0 F 0 F 1.804461942257219675 #
point $-1 -1 $-1 4975.000000000000909 3925 14979.99999999999818 #
point $-1 -1 $-1 4975.000000000000909 4475.000000000000909 14979.99999999999818 #
edge $-1 -1 $-1 $78 0 $66 1.804461942257219675 $70 $83 forward @7 unknown #
vertex $-1 -1 $-1 $77 $84 #
straight-curve $-1 -1 $-1 4975.000000000000909 3925 14900 304.8000000000000114 0 0 F 0 F 0.1640419947506543963 #
straight-curve $-1 -1 $-1 5025 4475.000000000000909 14900 0 0 304.8000000000000114 F 0 F 0.2624671916010470341 #
point $-1 -1 $-1 5025 4475.000000000000909 14900 #
straight-curve $-1 -1 $-1 5025 3925 14979.99999999999818 0 0 -304.8000000000000114 F 0 F 0.2624671916010470341 #
straight-curve $-1 -1 $-1 5025 3925 14900 0 304.8000000000000114 0 F 0 F 1.804461942257219675 #
point $-1 -1 $-1 5025 3925 14900 #
End-of-ACIS-data 