700 0 1 0           
4 LibG 19 ASM 222.0.0.1700 NT 24 Wed Oct  5 17:30:03 2016 
1000 9.999999999999999547e-07 1.000000000000000036e-10 
body $-1 -1 $-1 $1 $-1 $-1 #
lump $-1 -1 $-1 $-1 $2 $0 #
shell $-1 -1 $-1 $-1 $-1 $3 $-1 $1 #
face $-1 -1 $-1 $4 $5 $2 $-1 $6 forward single #
face $-1 -1 $-1 $7 $8 $2 $-1 $9 forward single #
loop $-1 -1 $-1 $-1 $10 $3 #
plane-surface $-1 -1 $-1 5025 3275.000000000000455 15400.00000000000182 -1 -4.822947184196999365e-32 -1.102387927816456998e-31 -3.360078403984560971e-29 0 304.8000000000000114 forward_v I I I I #
face $-1 -1 $-1 $11 $12 $2 $-1 $13 forward single #
loop $-1 -1 $-1 $-1 $14 $4 #
plane-surface $-1 -1 $-1 5575.000000000001819 2725.000000000000455 15480.00000000000182 5.785623385789759261e-31 -5.876023751192726029e-31 1 304.8000000000000114 0 -1.763458007988718663e-28 forward_v I I I I #
coedge $-1 -1 $-1 $15 $16 $17 $18 forward $5 $-1 #
face $-1 -1 $-1 $19 $20 $2 $-1 $21 forward single #
loop $-1 -1 $-1 $-1 $22 $7 #
plane-surface $-1 -1 $-1 5575.000000000000909 3275.000000000000455 15400.00000000000182 0 1 0 0 0 304.8000000000000114 forward_v I I I I #
coedge $-1 -1 $-1 $23 $24 $25 $26 reversed $8 $-1 #
coedge $-1 -1 $-1 $27 $10 $28 $29 forward $5 $-1 #
coedge $-1 -1 $-1 $10 $27 $30 $31 reversed $5 $-1 #
coedge $-1 -1 $-1 $32 $33 $10 $18 reversed $34 $-1 #
edge $-1 -1 $-1 $35 0 $36 1.804461942257219675 $10 $37 forward @7 unknown #
face $-1 -1 $-1 $38 $34 $2 $-1 $39 reversed single #
loop $-1 -1 $-1 $-1 $40 $11 #
plane-surface $-1 -1 $-1 5025 2725 15400.00000000000182 9.645894368393997635e-32 -1 -5.511939639082284989e-32 0 1.680039201992280486e-29 -304.8000000000000114 forward_v I I I I #
coedge $-1 -1 $-1 $30 $41 $32 $42 forward $12 $-1 #
coedge $-1 -1 $-1 $43 $14 $44 $45 reversed $8 $-1 #
coedge $-1 -1 $-1 $14 $43 $46 $47 reversed $8 $-1 #
coedge $-1 -1 $-1 $48 $49 $14 $26 forward $50 $-1 #
edge $-1 -1 $-1 $51 0 $52 1.804461942257219675 $25 $53 forward @7 unknown #
coedge $-1 -1 $-1 $16 $15 $43 $54 forward $5 $-1 #
coedge $-1 -1 $-1 $40 $46 $15 $29 reversed $20 $-1 #
edge $-1 -1 $-1 $36 0 $55 0.2624671916010470341 $15 $56 forward @7 unknown #
coedge $-1 -1 $-1 $44 $22 $16 $31 forward $12 $-1 #
edge $-1 -1 $-1 $35 0 $57 0.2624671916010470341 $30 $58 forward @7 unknown #
coedge $-1 -1 $-1 $59 $17 $22 $42 reversed $34 $-1 #
coedge $-1 -1 $-1 $17 $59 $40 $60 reversed $34 $-1 #
loop $-1 -1 $-1 $-1 $33 $19 #
vertex $-1 -1 $-1 $42 $61 #
vertex $-1 -1 $-1 $18 $62 #
straight-curve $-1 -1 $-1 5025 3275.000000000000455 15400.00000000000182 0 -304.8000000000000114 0 F 0 F 1.804461942257219675 #
face $-1 -1 $-1 $-1 $50 $2 $-1 $63 forward single #
plane-surface $-1 -1 $-1 5575.000000000001819 2725.000000000000455 15400.00000000000364 1.880327600381671278e-30 -1.808007308059300316e-30 1 304.8000000000000114 0 -5.731238525963334591e-28 forward_v I I I I #
coedge $-1 -1 $-1 $64 $28 $33 $60 forward $20 $-1 #
coedge $-1 -1 $-1 $22 $44 $49 $65 reversed $12 $-1 #
edge $-1 -1 $-1 $66 0 $35 1.804461942257219675 $22 $67 forward @7 unknown #
coedge $-1 -1 $-1 $24 $23 $27 $54 reversed $8 $-1 #
coedge $-1 -1 $-1 $41 $30 $23 $45 forward $12 $-1 #
edge $-1 -1 $-1 $57 0 $51 1.804461942257219675 $44 $68 forward @7 unknown #
coedge $-1 -1 $-1 $28 $64 $24 $47 forward $20 $-1 #
edge $-1 -1 $-1 $52 0 $55 1.804461942257219675 $46 $69 forward @7 unknown #
coedge $-1 -1 $-1 $70 $25 $64 $71 forward $50 $-1 #
coedge $-1 -1 $-1 $25 $70 $41 $65 forward $50 $-1 #
loop $-1 -1 $-1 $-1 $70 $38 #
vertex $-1 -1 $-1 $65 $72 #
vertex $-1 -1 $-1 $26 $73 #
straight-curve $-1 -1 $-1 5575.000000000000909 3275.000000000000455 15480 0 -304.8000000000000114 0 F 0 F 1.804461942257219675 #
edge $-1 -1 $-1 $55 0 $57 1.804461942257219675 $27 $74 forward @7 unknown #
vertex $-1 -1 $-1 $29 $75 #
straight-curve $-1 -1 $-1 5025 2725 15400.00000000000182 0 0 304.8000000000000114 F 0 F 0.2624671916010470341 #
vertex $-1 -1 $-1 $31 $76 #
straight-curve $-1 -1 $-1 5025 3275.000000000000455 15400.00000000000182 0 0 304.8000000000000114 F 0 F 0.2624671916010470341 #
coedge $-1 -1 $-1 $33 $32 $70 $77 reversed $34 $-1 #
edge $-1 -1 $-1 $36 0 $78 1.804461942257219675 $40 $79 forward @7 unknown #
point $-1 -1 $-1 5025 3275.000000000000455 15400.00000000000182 #
point $-1 -1 $-1 5025 2725 15400.00000000000182 #
plane-surface $-1 -1 $-1 5575 2725 15400.00000000000182 1 7.578917003738142954e-31 -4.379057701015053347e-47 -1.33473678726938831e-44 0 -304.8000000000000114 forward_v I I I I #
coedge $-1 -1 $-1 $46 $40 $48 $71 reversed $20 $-1 #
edge $-1 -1 $-1 $66 0 $51 0.2624671916010470341 $49 $80 forward @7 unknown #
vertex $-1 -1 $-1 $77 $81 #
straight-curve $-1 -1 $-1 5575.000000000000909 3275.000000000000455 15400.00000000000182 -304.8000000000000114 0 0 F 0 F 1.804461942257219675 #
straight-curve $-1 -1 $-1 5025 3275.000000000000455 15480 304.8000000000000114 0 0 F 0 F 1.804461942257219675 #
straight-curve $-1 -1 $-1 5575.000000000000909 2725 15480 -304.8000000000000114 0 0 F 0 F 1.804461942257219675 #
coedge $-1 -1 $-1 $49 $48 $59 $77 forward $50 $-1 #
edge $-1 -1 $-1 $52 0 $78 0.2624671916010470341 $48 $82 forward @7 unknown #
point $-1 -1 $-1 5575.000000000000909 3275.000000000000455 15480 #
point $-1 -1 $-1 5575.000000000000909 2725 15480 #
straight-curve $-1 -1 $-1 5025 2725 15480 0 304.8000000000000114 0 F 0 F 1.804461942257219675 #
point $-1 -1 $-1 5025 2725 15480 #
point $-1 -1 $-1 5025 3275.000000000000455 15480 #
edge $-1 -1 $-1 $78 0 $66 1.804461942257219675 $70 $83 forward @7 unknown #
vertex $-1 -1 $-1 $77 $84 #
straight-curve $-1 -1 $-1 5025 2725 15400.00000000000182 304.8000000000000114 0 0 F 0 F 1.804461942257219675 #
straight-curve $-1 -1 $-1 5575.000000000000909 3275.000000000000455 15400.00000000000182 0 0 304.8000000000000114 F 0 F 0.2624671916010470341 #
point $-1 -1 $-1 5575.000000000000909 3275.000000000000455 15400.00000000000182 #
straight-curve $-1 -1 $-1 5575.000000000000909 2725 15480 0 0 -304.8000000000000114 F 0 F 0.2624671916010470341 #
straight-curve $-1 -1 $-1 5575.000000000000909 2725 15400.00000000000182 0 304.8000000000000114 0 F 0 F 1.804461942257219675 #
point $-1 -1 $-1 5575.000000000000909 2725 15400.00000000000182 #
End-of-ACIS-data 