700 0 1 0           
4 LibG 20 ASM 224.0.1.65535 NT 24 Tue Jul 16 17:00:29 2019 
1000 9.999999999999999547e-07 1.000000000000000036e-10 
body $-1 -1 $-1 $1 $-1 $2 #
lump $-1 -1 $-1 $-1 $3 $0 #
transform $-1 -1 1 0 0 0 1 0 0 0 1 0 0 0 1 no_rotate no_reflect no_shear #
shell $-1 -1 $-1 $-1 $-1 $4 $-1 $1 #
face $-1 -1 $-1 $5 $6 $3 $-1 $7 forward single #
face $-1 -1 $-1 $8 $9 $3 $-1 $10 forward single #
loop $-1 -1 $-1 $-1 $11 $4 #
plane-surface $-1 -1 $-1 12175.00000000000182 -1875.000000000000227 17150 -1 9.708678296235782335e-31 -2.07118470319695778e-28 -6.312970975344327232e-26 0 304.8000000000000114 forward_v I I I I #
face $-1 -1 $-1 $12 $13 $3 $-1 $14 forward single #
loop $-1 -1 $-1 $-1 $15 $5 #
plane-surface $-1 -1 $-1 12225.00000000000182 -1925.000000000000227 17230 -2.625226611302022196e-28 -4.64883879084733326e-29 1 304.8000000000000114 0 8.001690711248563728e-26 forward_v I I I I #
coedge $-1 -1 $-1 $16 $17 $18 $19 forward $6 $-1 #
face $-1 -1 $-1 $20 $21 $3 $-1 $22 forward single #
loop $-1 -1 $-1 $-1 $23 $8 #
plane-surface $-1 -1 $-1 12225.00000000000182 -1875.000000000000227 17150 -1.561479092644541761e-29 1 8.058202985875460206e-29 0 -2.456140270094840368e-26 304.8000000000000114 forward_v I I I I #
coedge $-1 -1 $-1 $24 $25 $26 $27 reversed $9 $-1 #
coedge $-1 -1 $-1 $28 $11 $29 $30 forward $6 $-1 #
coedge $-1 -1 $-1 $11 $28 $31 $32 reversed $6 $-1 #
coedge $-1 -1 $-1 $33 $34 $11 $19 reversed $35 $-1 #
edge $-1 -1 $-1 $36 0 $37 0.1640419947506561726 $11 $38 forward @7 unknown #
face $-1 -1 $-1 $39 $35 $3 $-1 $40 reversed single #
loop $-1 -1 $-1 $-1 $41 $12 #
plane-surface $-1 -1 $-1 12175.00000000000182 -1925.000000000000227 17150 -3.236226098745176116e-31 -1 1.137533473708925223e-28 0 -3.467202027864804411e-26 -304.8000000000000114 forward_v I I I I #
coedge $-1 -1 $-1 $31 $42 $33 $43 forward $13 $-1 #
coedge $-1 -1 $-1 $44 $15 $45 $46 reversed $9 $-1 #
coedge $-1 -1 $-1 $15 $44 $47 $48 reversed $9 $-1 #
coedge $-1 -1 $-1 $49 $50 $15 $27 forward $51 $-1 #
edge $-1 -1 $-1 $52 0 $53 0.1640419947506561726 $26 $54 forward @7 unknown #
coedge $-1 -1 $-1 $17 $16 $44 $55 forward $6 $-1 #
coedge $-1 -1 $-1 $41 $47 $16 $30 reversed $21 $-1 #
edge $-1 -1 $-1 $37 0 $56 0.2624671916010470341 $16 $57 forward @7 unknown #
coedge $-1 -1 $-1 $45 $23 $17 $32 forward $13 $-1 #
edge $-1 -1 $-1 $36 0 $58 0.2624671916010470341 $31 $59 forward @7 unknown #
coedge $-1 -1 $-1 $60 $18 $23 $43 reversed $35 $-1 #
coedge $-1 -1 $-1 $18 $60 $41 $61 reversed $35 $-1 #
loop $-1 -1 $-1 $-1 $34 $20 #
vertex $-1 -1 $-1 $43 $62 #
vertex $-1 -1 $-1 $19 $63 #
straight-curve $-1 -1 $-1 12175 -1875.000000000000227 17150 0 -304.8000000000000114 0 F 0 F 0.1640419947506561726 #
face $-1 -1 $-1 $-1 $51 $3 $-1 $64 forward single #
plane-surface $-1 -1 $-1 12225.00000000000182 -1925.000000000000227 17149.99999999999636 2.625226611302022196e-28 4.64883879084733326e-29 1 304.8000000000000114 0 -8.001690711248563728e-26 forward_v I I I I #
coedge $-1 -1 $-1 $65 $29 $34 $61 forward $21 $-1 #
coedge $-1 -1 $-1 $23 $45 $50 $66 reversed $13 $-1 #
edge $-1 -1 $-1 $67 0 $36 0.1640419947506615017 $23 $68 forward @7 unknown #
coedge $-1 -1 $-1 $25 $24 $28 $55 reversed $9 $-1 #
coedge $-1 -1 $-1 $42 $31 $24 $46 forward $13 $-1 #
edge $-1 -1 $-1 $58 0 $52 0.1640419947506615017 $45 $69 forward @7 unknown #
coedge $-1 -1 $-1 $29 $65 $25 $48 forward $21 $-1 #
edge $-1 -1 $-1 $53 0 $56 0.1640419947506615017 $47 $70 forward @7 unknown #
coedge $-1 -1 $-1 $71 $26 $65 $72 forward $51 $-1 #
coedge $-1 -1 $-1 $26 $71 $42 $66 forward $51 $-1 #
loop $-1 -1 $-1 $-1 $71 $39 #
vertex $-1 -1 $-1 $66 $73 #
vertex $-1 -1 $-1 $27 $74 #
straight-curve $-1 -1 $-1 12225.00000000000182 -1875.000000000000227 17230 0 -304.8000000000000114 0 F 0 F 0.1640419947506561726 #
edge $-1 -1 $-1 $56 0 $58 0.1640419947506561726 $28 $75 forward @7 unknown #
vertex $-1 -1 $-1 $30 $76 #
straight-curve $-1 -1 $-1 12175 -1925.000000000000227 17150 0 0 304.8000000000000114 F 0 F 0.2624671916010470341 #
vertex $-1 -1 $-1 $32 $77 #
straight-curve $-1 -1 $-1 12175 -1875.000000000000227 17150 0 0 304.8000000000000114 F 0 F 0.2624671916010470341 #
coedge $-1 -1 $-1 $34 $33 $71 $78 reversed $35 $-1 #
edge $-1 -1 $-1 $37 0 $79 0.1640419947506615017 $41 $80 forward @7 unknown #
point $-1 -1 $-1 12175 -1875.000000000000227 17150 #
point $-1 -1 $-1 12175 -1925.000000000000227 17150 #
plane-surface $-1 -1 $-1 12225.00000000000182 -1924.999999999999773 17149.99999999999636 1 1.432030048694771501e-29 -1.553388527397718223e-28 -4.734728231508245424e-26 0 -304.8000000000000114 forward_v I I I I #
coedge $-1 -1 $-1 $47 $41 $49 $72 reversed $21 $-1 #
edge $-1 -1 $-1 $67 0 $52 0.2624671916010470341 $50 $81 forward @7 unknown #
vertex $-1 -1 $-1 $78 $82 #
straight-curve $-1 -1 $-1 12225.00000000000182 -1875.000000000000227 17150 -304.8000000000000114 0 0 F 0 F 0.1640419947506615017 #
straight-curve $-1 -1 $-1 12175 -1875.000000000000227 17230 304.8000000000000114 0 0 F 0 F 0.1640419947506615017 #
straight-curve $-1 -1 $-1 12225.00000000000182 -1925.000000000000227 17230 -304.8000000000000114 0 0 F 0 F 0.1640419947506615017 #
coedge $-1 -1 $-1 $50 $49 $60 $78 forward $51 $-1 #
edge $-1 -1 $-1 $53 0 $79 0.2624671916010470341 $49 $83 forward @7 unknown #
point $-1 -1 $-1 12225.00000000000182 -1875.000000000000227 17230 #
point $-1 -1 $-1 12225.00000000000182 -1925.000000000000227 17230 #
straight-curve $-1 -1 $-1 12175 -1925.000000000000227 17230 0 304.8000000000000114 0 F 0 F 0.1640419947506561726 #
point $-1 -1 $-1 12175 -1925.000000000000227 17230 #
point $-1 -1 $-1 12175 -1875.000000000000227 17230 #
edge $-1 -1 $-1 $79 0 $67 0.1640419947506561726 $71 $84 forward @7 unknown #
vertex $-1 -1 $-1 $78 $85 #
straight-curve $-1 -1 $-1 12175 -1925.000000000000227 17150 304.8000000000000114 0 0 F 0 F 0.1640419947506615017 #
straight-curve $-1 -1 $-1 12225.00000000000182 -1875.000000000000227 17150 0 0 304.8000000000000114 F 0 F 0.2624671916010470341 #
point $-1 -1 $-1 12225.00000000000182 -1875.000000000000227 17150 #
straight-curve $-1 -1 $-1 12225.00000000000182 -1925.000000000000227 17230 0 0 -304.8000000000000114 F 0 F 0.2624671916010470341 #
straight-curve $-1 -1 $-1 12225.00000000000182 -1925.000000000000227 17150 0 304.8000000000000114 0 F 0 F 0.1640419947506561726 #
point $-1 -1 $-1 12225.00000000000182 -1925.000000000000227 17150 #
End-of-ACIS-data 