700 0 2 0           
4 LibG 20 ASM 224.0.1.65535 NT 24 Tue Jul 16 17:00:27 2019 
1000 9.999999999999999547e-07 1.000000000000000036e-10 
body $-1 -1 $-1 $2 $-1 $3 #
body $-1 -1 $-1 $4 $-1 $5 #
lump $-1 -1 $-1 $-1 $6 $0 #
transform $-1 -1 1 0 0 0 1 0 0 0 1 0 0 0 1 no_rotate no_reflect no_shear #
lump $-1 -1 $-1 $-1 $7 $1 #
transform $-1 -1 1 0 0 0 1 0 0 0 1 0 0 0 1 no_rotate no_reflect no_shear #
shell $-1 -1 $-1 $-1 $-1 $8 $-1 $2 #
shell $-1 -1 $-1 $-1 $-1 $9 $-1 $4 #
face $-1 -1 $-1 $10 $11 $6 $-1 $12 forward single #
face $-1 -1 $-1 $13 $14 $7 $-1 $15 forward single #
face $-1 -1 $-1 $16 $17 $6 $-1 $18 forward single #
loop $-1 -1 $-1 $-1 $19 $8 #
plane-surface $-1 -1 $-1 4475.000000000000909 5975.000000000000909 16150.00000000000182 -6.634263502427421776e-30 -1 3.883471318494069108e-29 0 -1.183682057876992336e-26 -304.8000000000000114 forward_v I I I I #
face $-1 -1 $-1 $20 $21 $7 $-1 $22 forward single #
loop $-1 -1 $-1 $-1 $23 $9 #
plane-surface $-1 -1 $-1 4474.999999999999091 5975.000000000000909 16230.00000000000546 -2.104499226277729708e-31 -1 2.921540102362021123e-30 0 -8.904854231999441289e-28 -304.8000000000000114 forward_v I I I I #
face $-1 -1 $-1 $24 $25 $6 $-1 $26 forward single #
loop $-1 -1 $-1 $-1 $27 $10 #
plane-surface $-1 -1 $-1 4525.000000000000909 6024.999999999999091 16230.00000000000546 -1.542320634140007135e-28 -3.500302148402848124e-28 1 304.8000000000000114 0 4.700993292858741795e-26 forward_v I I I I #
coedge $-1 -1 $-1 $28 $29 $30 $31 forward $11 $-1 #
face $-1 -1 $-1 $32 $33 $7 $-1 $34 forward single #
loop $-1 -1 $-1 $-1 $35 $13 #
plane-surface $-1 -1 $-1 4524.999999999999091 6025 16650.00000000000364 -8.750755371007217841e-29 3.500302148402887585e-28 1 304.8000000000000114 0 2.667230237083000365e-26 forward_v I I I I #
coedge $-1 -1 $-1 $36 $37 $38 $39 forward $14 $-1 #
face $-1 -1 $-1 $40 $41 $6 $-1 $42 forward single #
loop $-1 -1 $-1 $-1 $43 $16 #
plane-surface $-1 -1 $-1 4475.000000000000909 6025 16150.00000000000182 -1 3.42919639047678805e-29 2.113517933188645647e-15 6.442002660358992161e-13 0 304.8000000000000114 forward_v I I I I #
coedge $-1 -1 $-1 $44 $45 $46 $47 reversed $17 $-1 #
coedge $-1 -1 $-1 $48 $19 $49 $50 forward $11 $-1 #
coedge $-1 -1 $-1 $19 $48 $51 $52 reversed $11 $-1 #
coedge $-1 -1 $-1 $53 $54 $19 $31 reversed $55 $-1 #
edge $-1 -1 $-1 $56 0 $57 0.1640419947506543963 $19 $58 forward @7 unknown #
face $-1 -1 $-1 $59 $60 $7 $-1 $61 forward single #
loop $-1 -1 $-1 $-1 $62 $20 #
plane-surface $-1 -1 $-1 4474.999999999999091 6025 16230.00000000000546 -1 9.284555410048802074e-31 5.843080204724042247e-30 1.780970846399888258e-27 0 304.8000000000000114 forward_v I I I I #
coedge $-1 -1 $-1 $63 $64 $65 $66 reversed $21 $-1 #
coedge $-1 -1 $-1 $67 $23 $68 $69 forward $14 $-1 #
coedge $-1 -1 $-1 $23 $67 $70 $71 reversed $14 $-1 #
coedge $-1 -1 $-1 $72 $73 $23 $39 reversed $74 $-1 #
edge $-1 -1 $-1 $75 0 $76 0.1640419947506543963 $23 $77 forward @7 unknown #
face $-1 -1 $-1 $78 $55 $6 $-1 $79 reversed single #
loop $-1 -1 $-1 $-1 $80 $24 #
plane-surface $-1 -1 $-1 4525 5975.000000000000909 16150.00000000000182 1 -1.946548756018921677e-29 -2.113517933188431865e-15 -6.442002660358340878e-13 0 -304.8000000000000114 forward_v I I I I #
coedge $-1 -1 $-1 $51 $81 $53 $82 forward $25 $-1 #
coedge $-1 -1 $-1 $83 $27 $84 $85 reversed $17 $-1 #
coedge $-1 -1 $-1 $27 $83 $86 $87 reversed $17 $-1 #
coedge $-1 -1 $-1 $88 $89 $27 $47 forward $90 $-1 #
edge $-1 -1 $-1 $91 0 $92 0.1640419947506561726 $46 $93 forward @7 unknown #
coedge $-1 -1 $-1 $29 $28 $83 $94 forward $11 $-1 #
coedge $-1 -1 $-1 $80 $86 $28 $50 reversed $41 $-1 #
edge $-1 -1 $-1 $57 0 $95 0.2624671916010612449 $28 $96 forward @7 unknown #
coedge $-1 -1 $-1 $84 $43 $29 $52 forward $25 $-1 #
edge $-1 -1 $-1 $56 0 $97 0.2624671916010612449 $51 $98 forward @7 unknown #
coedge $-1 -1 $-1 $99 $30 $43 $82 reversed $55 $-1 #
coedge $-1 -1 $-1 $30 $99 $80 $100 reversed $55 $-1 #
loop $-1 -1 $-1 $-1 $54 $40 #
vertex $-1 -1 $-1 $82 $101 #
vertex $-1 -1 $-1 $31 $102 #
straight-curve $-1 -1 $-1 4475.000000000000909 5975.000000000000909 16150.00000000000182 304.8000000000000114 0 0 F 0 F 0.1640419947506543963 #
face $-1 -1 $-1 $103 $74 $7 $-1 $104 reversed single #
loop $-1 -1 $-1 $-1 $105 $32 #
plane-surface $-1 -1 $-1 4524.999999999999091 5975.000000000000909 16230.00000000000546 1 -1.943566932503548038e-30 5.843080204724041546e-30 1.780970846399887899e-27 0 -304.8000000000000114 forward_v I I I I #
coedge $-1 -1 $-1 $70 $106 $72 $107 forward $33 $-1 #
coedge $-1 -1 $-1 $108 $35 $109 $110 reversed $21 $-1 #
coedge $-1 -1 $-1 $35 $108 $111 $112 reversed $21 $-1 #
coedge $-1 -1 $-1 $113 $114 $35 $66 forward $115 $-1 #
edge $-1 -1 $-1 $116 -1.776356839400250465e-15 $117 0.1640419947506543963 $65 $118 forward @7 unknown #
coedge $-1 -1 $-1 $37 $36 $108 $119 forward $14 $-1 #
coedge $-1 -1 $-1 $105 $111 $36 $69 reversed $60 $-1 #
edge $-1 -1 $-1 $76 0 $120 1.37795275590551114 $36 $121 forward @7 unknown #
coedge $-1 -1 $-1 $109 $62 $37 $71 forward $33 $-1 #
edge $-1 -1 $-1 $75 0 $122 1.37795275590551114 $70 $123 forward @7 unknown #
coedge $-1 -1 $-1 $124 $38 $62 $107 reversed $74 $-1 #
coedge $-1 -1 $-1 $38 $124 $105 $125 reversed $74 $-1 #
loop $-1 -1 $-1 $-1 $73 $59 #
vertex $-1 -1 $-1 $107 $126 #
vertex $-1 -1 $-1 $39 $127 #
straight-curve $-1 -1 $-1 4474.999999999999091 5975.000000000000909 16230.00000000000546 304.8000000000000114 0 0 F 0 F 0.1640419947506543963 #
face $-1 -1 $-1 $-1 $90 $6 $-1 $128 forward single #
plane-surface $-1 -1 $-1 4525.000000000001819 6025 16150.00000000000182 1.750151074201443568e-28 -7.00060429680577517e-28 1 304.8000000000000114 0 -5.33446047416600073e-26 forward_v I I I I #
coedge $-1 -1 $-1 $129 $49 $54 $100 forward $41 $-1 #
coedge $-1 -1 $-1 $43 $84 $89 $130 reversed $25 $-1 #
edge $-1 -1 $-1 $131 0 $56 0.1640419947506543963 $43 $132 forward @7 unknown #
coedge $-1 -1 $-1 $45 $44 $48 $94 reversed $17 $-1 #
coedge $-1 -1 $-1 $81 $51 $44 $85 forward $25 $-1 #
edge $-1 -1 $-1 $97 0 $91 0.1640419947506543963 $84 $133 forward @7 unknown #
coedge $-1 -1 $-1 $49 $129 $45 $87 forward $41 $-1 #
edge $-1 -1 $-1 $92 0 $95 0.1640419947506543963 $86 $134 forward @7 unknown #
coedge $-1 -1 $-1 $135 $46 $129 $136 forward $90 $-1 #
coedge $-1 -1 $-1 $46 $135 $81 $130 forward $90 $-1 #
loop $-1 -1 $-1 $-1 $135 $78 #
vertex $-1 -1 $-1 $130 $137 #
vertex $-1 -1 $-1 $47 $138 #
straight-curve $-1 -1 $-1 4475.000000000000909 6025 16230.00000000000546 304.8000000000000114 0 0 F 0 F 0.1640419947506561726 #
edge $-1 -1 $-1 $95 0 $97 0.1640419947506561726 $48 $139 forward @7 unknown #
vertex $-1 -1 $-1 $50 $140 #
straight-curve $-1 -1 $-1 4525 5975.000000000000909 16150.00000000000182 0 0 304.8000000000000114 F 0 F 0.2624671916010612449 #
vertex $-1 -1 $-1 $52 $141 #
straight-curve $-1 -1 $-1 4475.000000000000909 5975.000000000000909 16150.00000000000182 0 0 304.8000000000000114 F 0 F 0.2624671916010612449 #
coedge $-1 -1 $-1 $54 $53 $135 $142 reversed $55 $-1 #
edge $-1 -1 $-1 $57 0 $143 0.1640419947506543963 $80 $144 forward @7 unknown #
point $-1 -1 $-1 4475.000000000000909 5975.000000000000909 16150.00000000000182 #
point $-1 -1 $-1 4525 5975.000000000000909 16150.00000000000182 #
face $-1 -1 $-1 $-1 $115 $7 $-1 $145 forward single #
plane-surface $-1 -1 $-1 4524.999999999999091 6025 16230.00000000000546 8.750755371007217841e-29 -3.500302148402887585e-28 1 304.8000000000000114 0 -2.667230237083000365e-26 forward_v I I I I #
coedge $-1 -1 $-1 $146 $68 $73 $125 forward $60 $-1 #
coedge $-1 -1 $-1 $62 $109 $114 $147 reversed $33 $-1 #
edge $-1 -1 $-1 $148 0 $75 0.1640419947506543963 $62 $149 forward @7 unknown #
coedge $-1 -1 $-1 $64 $63 $67 $119 reversed $21 $-1 #
coedge $-1 -1 $-1 $106 $70 $63 $110 forward $33 $-1 #
edge $-1 -1 $-1 $122 0 $116 0.1640419947506543963 $109 $150 forward @7 unknown #
coedge $-1 -1 $-1 $68 $146 $64 $112 forward $60 $-1 #
edge $-1 -1 $-1 $117 0 $120 0.1640419947506543963 $111 $151 forward @7 unknown #
coedge $-1 -1 $-1 $152 $65 $146 $153 forward $115 $-1 #
coedge $-1 -1 $-1 $65 $152 $106 $147 forward $115 $-1 #
loop $-1 -1 $-1 $-1 $152 $103 #
vertex $-1 -1 $-1 $147 $154 #
vertex $-1 -1 $-1 $66 $155 #
straight-curve $-1 -1 $-1 4474.999999999999091 6025 16650.00000000000364 304.8000000000000114 0 0 F -1.776356839400250465e-15 F 0.1640419947506543963 #
edge $-1 -1 $-1 $120 0 $122 0.1640419947506543963 $67 $156 forward @7 unknown #
vertex $-1 -1 $-1 $69 $157 #
straight-curve $-1 -1 $-1 4524.999999999999091 5975.000000000000909 16230.00000000000546 0 0 304.8000000000000114 F 0 F 1.37795275590551114 #
vertex $-1 -1 $-1 $71 $158 #
straight-curve $-1 -1 $-1 4474.999999999999091 5975.000000000000909 16230.00000000000546 0 0 304.8000000000000114 F 0 F 1.37795275590551114 #
coedge $-1 -1 $-1 $73 $72 $152 $159 reversed $74 $-1 #
edge $-1 -1 $-1 $76 0 $160 0.1640419947506543963 $105 $161 forward @7 unknown #
point $-1 -1 $-1 4474.999999999999091 5975.000000000000909 16230.00000000000546 #
point $-1 -1 $-1 4524.999999999999091 5975.000000000000909 16230.00000000000546 #
plane-surface $-1 -1 $-1 4525.000000000000909 6025 16150.00000000000182 0 1 0 0 0 304.8000000000000114 forward_v I I I I #
coedge $-1 -1 $-1 $86 $80 $88 $136 reversed $41 $-1 #
edge $-1 -1 $-1 $131 0 $91 0.2624671916010612449 $89 $162 forward @7 unknown #
vertex $-1 -1 $-1 $142 $163 #
straight-curve $-1 -1 $-1 4475.000000000000909 6025 16150.00000000000182 0 -304.8000000000000114 0 F 0 F 0.1640419947506543963 #
straight-curve $-1 -1 $-1 4475.000000000000909 5975.000000000000909 16230.00000000000546 0 304.8000000000000114 0 F 0 F 0.1640419947506543963 #
straight-curve $-1 -1 $-1 4525 6025 16230.00000000000546 0 -304.8000000000000114 0 F 0 F 0.1640419947506543963 #
coedge $-1 -1 $-1 $89 $88 $99 $142 forward $90 $-1 #
edge $-1 -1 $-1 $92 0 $143 0.2624671916010612449 $88 $164 forward @7 unknown #
point $-1 -1 $-1 4475.000000000000909 6025 16230.00000000000546 #
point $-1 -1 $-1 4525.000000000000909 6025 16230.00000000000546 #
straight-curve $-1 -1 $-1 4525 5975.000000000000909 16230.00000000000546 -304.8000000000000114 0 0 F 0 F 0.1640419947506561726 #
point $-1 -1 $-1 4525 5975.000000000000909 16230.00000000000546 #
point $-1 -1 $-1 4475.000000000000909 5975.000000000000909 16230.00000000000546 #
edge $-1 -1 $-1 $143 0 $131 0.1640419947506543963 $135 $165 forward @7 unknown #
vertex $-1 -1 $-1 $142 $166 #
straight-curve $-1 -1 $-1 4525 5975.000000000000909 16150.00000000000182 0 304.8000000000000114 0 F 0 F 0.1640419947506543963 #
plane-surface $-1 -1 $-1 4524.999999999999091 6025 16230.00000000000546 0 1 0 0 0 304.8000000000000114 forward_v I I I I #
coedge $-1 -1 $-1 $111 $105 $113 $153 reversed $60 $-1 #
edge $-1 -1 $-1 $148 0 $116 1.37795275590551114 $114 $167 forward @7 unknown #
vertex $-1 -1 $-1 $159 $168 #
straight-curve $-1 -1 $-1 4474.999999999999091 6025 16230.00000000000546 0 -304.8000000000000114 0 F 0 F 0.1640419947506543963 #
straight-curve $-1 -1 $-1 4474.999999999999091 5975.000000000000909 16650.00000000000364 0 304.8000000000000114 0 F 0 F 0.1640419947506543963 #
straight-curve $-1 -1 $-1 4524.999999999999091 6025 16650.00000000000364 0 -304.8000000000000114 0 F 0 F 0.1640419947506543963 #
coedge $-1 -1 $-1 $114 $113 $124 $159 forward $115 $-1 #
edge $-1 -1 $-1 $117 0 $160 1.37795275590551114 $113 $169 forward @7 unknown #
point $-1 -1 $-1 4474.999999999999091 6025 16650.00000000000364 #
point $-1 -1 $-1 4524.999999999999091 6025 16650.00000000000364 #
straight-curve $-1 -1 $-1 4524.999999999999091 5975.000000000000909 16650.00000000000364 -304.8000000000000114 0 0 F 0 F 0.1640419947506543963 #
point $-1 -1 $-1 4524.999999999999091 5975.000000000000909 16650.00000000000364 #
point $-1 -1 $-1 4474.999999999999091 5975.000000000000909 16650.00000000000364 #
edge $-1 -1 $-1 $160 0 $148 0.1640419947506543963 $152 $170 forward @7 unknown #
vertex $-1 -1 $-1 $159 $171 #
straight-curve $-1 -1 $-1 4524.999999999999091 5975.000000000000909 16230.00000000000546 0 304.8000000000000114 0 F 0 F 0.1640419947506543963 #
straight-curve $-1 -1 $-1 4475.000000000000909 6025 16150.00000000000182 0 0 304.8000000000000114 F 0 F 0.2624671916010612449 #
point $-1 -1 $-1 4475.000000000000909 6025 16150.00000000000182 #
straight-curve $-1 -1 $-1 4525 6025 16230.00000000000546 0 0 -304.8000000000000114 F 0 F 0.2624671916010612449 #
straight-curve $-1 -1 $-1 4525 6025 16150.00000000000182 -304.8000000000000114 0 0 F 0 F 0.1640419947506543963 #
point $-1 -1 $-1 4525 6025 16150.00000000000182 #
straight-curve $-1 -1 $-1 4474.999999999999091 6025 16230.00000000000546 0 0 304.8000000000000114 F 0 F 1.37795275590551114 #
point $-1 -1 $-1 4474.999999999999091 6025 16230.00000000000546 #
straight-curve $-1 -1 $-1 4524.999999999999091 6025 16650.00000000000364 0 0 -304.8000000000000114 F 0 F 1.37795275590551114 #
straight-curve $-1 -1 $-1 4524.999999999999091 6025 16230.00000000000546 -304.8000000000000114 0 0 F 0 F 0.1640419947506543963 #
point $-1 -1 $-1 4524.999999999999091 6025 16230.00000000000546 #
End-of-ACIS-data 