700 0 1 0           
4 LibG 20 ASM 224.0.1.65535 NT 24 Wed Jul 17 12:53:27 2019 
1000 9.999999999999999547e-07 1.000000000000000036e-10 
body $-1 -1 $-1 $1 $-1 $2 #
lump $-1 -1 $-1 $-1 $3 $0 #
transform $-1 -1 1 0 0 0 1 0 0 0 1 0 0 0 1 no_rotate no_reflect no_shear #
shell $-1 -1 $-1 $-1 $-1 $4 $-1 $1 #
face $-1 -1 $-1 $5 $6 $3 $-1 $7 reversed single #
face $-1 -1 $-1 $8 $9 $3 $-1 $10 reversed single #
loop $-1 -1 $-1 $-1 $11 $4 #
torus-surface $-1 -1 $-1 1906.797571915601111 23935.2521693480121 13999.99999999998181 0 0 1 20000.00000017299681 -484.9999999999981242 1 0 0 forward_v I I I I #
face $-1 -1 $-1 $12 $13 $3 $-1 $14 reversed single #
loop $-1 -1 $-1 $-1 $15 $5 #
torus-surface $-1 -1 $-1 1906.797571915601111 23935.2521693480121 13999.99999999998363 0 0 1 20000.00000017299681 -484.9999999999981242 1 0 0 forward_v I I I I #
coedge $-1 -1 $-1 $16 $17 $18 $19 reversed $6 $-1 #
face $-1 -1 $-1 $20 $21 $3 $-1 $22 reversed single #
loop $-1 -1 $-1 $23 $24 $8 #
plane-surface $-1 -1 $-1 1784.828821915368962 4420.633325241032253 13999.99999999998545 -0.9999804685592617037 0.006249999999956562004 -5.386714154485081965e-20 -1.641902543009269744e-17 0 304.8000000000000114 forward_v I I I I #
coedge $-1 -1 $-1 $25 $18 $26 $27 reversed $9 $-1 #
coedge $-1 -1 $-1 $28 $11 $29 $30 forward $6 $-1 #
coedge $-1 -1 $-1 $11 $28 $31 $32 forward $6 $-1 #
coedge $-1 -1 $-1 $15 $33 $11 $19 forward $9 $-1 #
edge $-1 -1 $-1 $34 0 $35 0.01250008138138375587 $11 $36 forward @7 unknown #
face $-1 -1 $-1 $37 $38 $3 $-1 $39 reversed single #
loop $-1 -1 $-1 $-1 $40 $12 #
torus-surface $-1 -1 $-1 1906.797571915601111 23935.2521693480121 13999.99999999998727 0 0 1 20000.00000017299681 -439.9999999999996589 1 0 0 forward_v I I I I #
loop $-1 -1 $-1 $-1 $31 $8 #
coedge $-1 -1 $-1 $41 $41 $42 $43 forward $13 $-1 #
coedge $-1 -1 $-1 $33 $15 $28 $44 forward $9 $-1 #
coedge $-1 -1 $-1 $31 $31 $15 $27 forward $23 $-1 #
edge $-1 -1 $-1 $45 0 $35 3.141592653589788675 $15 $46 forward @7 unknown #
coedge $-1 -1 $-1 $17 $16 $25 $44 reversed $6 $-1 #
coedge $-1 -1 $-1 $47 $47 $16 $30 reversed $48 $-1 #
edge $-1 -1 $-1 $34 -3.141592653589735384 $49 4.465431461024298218e-15 $29 $50 forward @7 unknown #
coedge $-1 -1 $-1 $26 $26 $17 $32 reversed $23 $-1 #
edge $-1 -1 $-1 $45 -3.141592653589797557 $35 4.465431461024299007e-15 $31 $51 forward @7 unknown #
coedge $-1 -1 $-1 $18 $25 $47 $52 reversed $9 $-1 #
vertex $-1 -1 $-1 $30 $53 #
vertex $-1 -1 $-1 $27 $54 #
ellipse-curve $-1 -1 $-1 1906.797571914993114 23935.25216957794692 13999.99999999998363 0 0 -1 121.9687500005567529 -19514.61884433692103 0 1 F 0 F 0.01250008138138375587 #
face $-1 -1 $-1 $-1 $55 $3 $-1 $56 reversed single #
loop $-1 -1 $-1 $48 $57 $20 #
plane-surface $-1 -1 $-1 2034.828821915359867 3450.652270738547941 13999.99999999999636 0.9999804685592618148 0.006249999999935156383 9.532009163459812556e-20 2.905413139927113308e-17 0 -304.8000000000000114 forward_v I I I I #
coedge $-1 -1 $-1 $58 $59 $60 $61 forward $21 $-1 #
coedge $-1 -1 $-1 $24 $24 $58 $62 forward $13 $-1 #
coedge $-1 -1 $-1 $60 $63 $24 $43 reversed $55 $-1 #
edge $-1 -1 $-1 $64 -7.571030602498328396e-31 $65 3.141592653589788231 $42 $66 forward @7 unknown #
edge $-1 -1 $-1 $45 1.45509023186845857e-16 $49 0.01250008138139753304 $28 $67 forward @7 unknown #
vertex $-1 -1 $-1 $32 $68 #
ellipse-curve $-1 -1 $-1 1781.797571915389881 3935.642797989791234 13999.99999999998363 0.9999804685592617037 -0.006249999999956714659 -1.370271735381975731e-17 -3.031249999979007015 -484.9905272512420424 -2.165734258596785447e-12 1 F 0 F 3.141592653589788675 #
coedge $-1 -1 $-1 $29 $29 $33 $52 forward $48 $-1 #
loop $-1 -1 $-1 $-1 $29 $20 #
vertex $-1 -1 $-1 $52 $69 #
ellipse-curve $-1 -1 $-1 2031.797571915391018 3935.64279798978896 13999.99999999998363 0.9999804685592618148 0.006249999999935504195 4.179328792914896372e-17 3.031249999968719688 -484.9905272512420424 1.082867129298392683e-11 1 I I #
ellipse-curve $-1 -1 $-1 1781.797571915389881 3935.642797989791234 13999.99999999998363 -0.9999804685592617037 0.006249999999956712925 4.179328792915025794e-17 3.031249999979007015 484.9905272512420424 2.165734258596785447e-12 1 I I #
edge $-1 -1 $-1 $34 4.018888314921870368e-14 $49 3.141592653589850848 $33 $70 forward @7 unknown #
point $-1 -1 $-1 2028.766321915422395 4420.633325241031343 14000.00000000000182 #
point $-1 -1 $-1 1784.828821915368962 4420.633325241033162 13999.99999999998363 #
loop $-1 -1 $-1 $-1 $60 $37 #
torus-surface $-1 -1 $-1 1906.797571915601111 23935.2521693480121 13999.99999999998727 0 0 1 20000.00000017299681 -439.9999999999996589 1 0 0 forward_v I I I I #
coedge $-1 -1 $-1 $71 $71 $72 $73 forward $38 $-1 #
coedge $-1 -1 $-1 $74 $40 $41 $62 reversed $21 $-1 #
coedge $-1 -1 $-1 $40 $74 $71 $75 reversed $21 $-1 #
coedge $-1 -1 $-1 $72 $42 $40 $61 reversed $55 $-1 #
edge $-1 -1 $-1 $76 0 $64 0.01250008138147888637 $60 $77 forward @7 unknown #
edge $-1 -1 $-1 $65 -1.968849325997077031e-14 $64 3.141592653589793116 $58 $78 forward @7 unknown #
coedge $-1 -1 $-1 $42 $72 $74 $79 reversed $55 $-1 #
vertex $-1 -1 $-1 $61 $80 #
vertex $-1 -1 $-1 $43 $81 #
ellipse-curve $-1 -1 $-1 1781.797571915390336 3935.642797989791234 13999.99999999998727 -0.9999804685592617037 0.006249999999956739813 3.829240643579644018e-17 -2.749999999980965892 -439.9914061660753077 -2.165734258596785447e-12 1 F -7.571030602498328396e-31 F 3.141592653589788231 #
ellipse-curve $-1 -1 $-1 1906.797571915384651 23935.25216956677832 13999.99999999999454 0 0 1 -128.0312499999765805 -20484.5998988282372 0 1 F 1.45509023186845857e-16 F 0.01250008138139753304 #
point $-1 -1 $-1 1778.766321915411027 3450.65227073854885 13999.99999999997999 #
point $-1 -1 $-1 2034.828821915359867 3450.652270738547031 13999.99999999999272 #
ellipse-curve $-1 -1 $-1 2031.797571915391018 3935.64279798978896 13999.99999999998363 -0.9999804685592618148 -0.006249999999935504195 -6.988385850447858921e-17 -3.031249999968719688 484.9905272512420424 1.949160832737107024e-11 1 F 4.018888314921870368e-14 F 3.141592653589850848 #
coedge $-1 -1 $-1 $57 $57 $59 $75 forward $38 $-1 #
coedge $-1 -1 $-1 $63 $60 $57 $73 reversed $55 $-1 #
edge $-1 -1 $-1 $82 3.028412240999332059e-30 $76 3.141592653589773576 $72 $83 forward @7 unknown #
coedge $-1 -1 $-1 $59 $58 $63 $79 forward $21 $-1 #
edge $-1 -1 $-1 $76 1.968849325997077031e-14 $82 3.141592653589827311 $59 $84 forward @7 unknown #
vertex $-1 -1 $-1 $61 $85 #
ellipse-curve $-1 -1 $-1 1906.797571915516983 23935.25216943327905 13999.99999999998545 0 0 -1 127.7499999999790816 -20439.60077760957574 0 1 F 0 F 0.01250008138147888637 #
ellipse-curve $-1 -1 $-1 1781.797571915389881 3935.642797989791234 13999.99999999998727 -0.9999804685592617037 0.006249999999956739813 3.82924064357963539e-17 2.749999999980965892 439.9914061660753077 2.165734258596785447e-12 1 F -1.968849325997077031e-14 F 3.141592653589793116 #
edge $-1 -1 $-1 $65 1.803012421294015424e-16 $82 0.0125000813816087894 $63 $86 forward @7 unknown #
point $-1 -1 $-1 1779.047571915537901 3495.651391823703307 13999.99999999998545 #
point $-1 -1 $-1 1784.547571915371236 4375.634204155866428 13999.99999999999272 #
vertex $-1 -1 $-1 $79 $87 #
ellipse-curve $-1 -1 $-1 2031.7975719153917 3935.64279798978896 13999.99999999998727 0.9999804685592618148 0.006249999999935204956 0 -2.749999999971490805 439.9914061660753077 1.082867129298392683e-11 1 F 3.028412240999332059e-30 F 3.141592653589773576 #
ellipse-curve $-1 -1 $-1 2031.797571915391927 3935.642797989789415 13999.99999999998727 0.9999804685592618148 0.006249999999935205823 2.330842130874520586e-17 2.749999999971490805 -439.9914061660753077 6.497202775790356746e-12 1 F 1.968849325997077031e-14 F 3.141592653589827311 #
point $-1 -1 $-1 2034.547571915496064 3495.651391823703307 13999.99999999998545 #
ellipse-curve $-1 -1 $-1 1906.79757191591716 23935.25216922632535 13999.99999999999818 0 0 1 -122.2500000005493774 -19559.61796507046893 0 1 F 1.803012421294015424e-16 F 0.0125000813816087894 #
point $-1 -1 $-1 2029.047571915420576 4375.634204155848238 13999.99999999999818 #
End-of-ACIS-data 