700 0 1 0           
4 LibG 20 ASM 224.0.1.65535 NT 24 Wed Jul 17 12:53:27 2019 
1000 9.999999999999999547e-07 1.000000000000000036e-10 
body $-1 -1 $-1 $1 $-1 $2 #
lump $-1 -1 $-1 $-1 $3 $0 #
transform $-1 -1 1 0 0 0 1 0 0 0 1 0 0 0 1 no_rotate no_reflect no_shear #
shell $-1 -1 $-1 $-1 $-1 $4 $-1 $1 #
face $-1 -1 $-1 $5 $6 $3 $-1 $7 reversed single #
face $-1 -1 $-1 $8 $9 $3 $-1 $10 reversed single #
loop $-1 -1 $-1 $-1 $11 $4 #
torus-surface $-1 -1 $-1 656.797571915342246 -16063.96657336838507 14000.00000000002001 0 0 -1 20000.00000017299317 -484.9999999999980105 -1 0 0 forward_v I I I I #
face $-1 -1 $-1 $12 $13 $3 $-1 $14 reversed single #
loop $-1 -1 $-1 $-1 $15 $5 #
torus-surface $-1 -1 $-1 656.797571915342246 -16063.96657336838507 14000.00000000001819 0 0 -1 20000.00000017299317 -484.9999999999980105 -1 0 0 forward_v I I I I #
coedge $-1 -1 $-1 $16 $17 $18 $19 reversed $6 $-1 #
face $-1 -1 $-1 $20 $21 $3 $-1 $22 reversed single #
loop $-1 -1 $-1 $23 $24 $8 #
plane-surface $-1 -1 $-1 534.8288219153630507 3450.652270738594325 14000.00000000002001 -0.9999804685592618148 -0.00624999999994358714 -7.957062563478694904e-19 -2.425360040124198777e-16 0 304.8000000000000114 forward_v I I I I #
coedge $-1 -1 $-1 $25 $18 $26 $27 reversed $9 $-1 #
coedge $-1 -1 $-1 $28 $11 $29 $30 forward $6 $-1 #
coedge $-1 -1 $-1 $11 $28 $31 $32 forward $6 $-1 #
coedge $-1 -1 $-1 $15 $33 $11 $19 forward $9 $-1 #
edge $-1 -1 $-1 $34 0 $35 0.01250008138138376454 $11 $36 forward @7 unknown #
face $-1 -1 $-1 $37 $38 $3 $-1 $39 reversed single #
loop $-1 -1 $-1 $-1 $40 $12 #
torus-surface $-1 -1 $-1 656.797571915342246 -16063.96657336838507 14000.00000000001455 0 0 -1 20000.00000017299317 -439.9999999999996589 -1 0 0 forward_v I I I I #
loop $-1 -1 $-1 $-1 $31 $8 #
coedge $-1 -1 $-1 $41 $41 $42 $43 forward $13 $-1 #
coedge $-1 -1 $-1 $33 $15 $28 $44 forward $9 $-1 #
coedge $-1 -1 $-1 $31 $31 $15 $27 forward $23 $-1 #
edge $-1 -1 $-1 $45 0 $35 3.141592653589788675 $15 $46 forward @7 unknown #
coedge $-1 -1 $-1 $17 $16 $25 $44 reversed $6 $-1 #
coedge $-1 -1 $-1 $47 $47 $16 $30 reversed $48 $-1 #
edge $-1 -1 $-1 $34 -3.141592653589735384 $49 4.465431461024297429e-15 $29 $50 forward @7 unknown #
coedge $-1 -1 $-1 $26 $26 $17 $32 reversed $23 $-1 #
edge $-1 -1 $-1 $45 -3.141592653589797557 $35 4.465431461024299007e-15 $31 $51 forward @7 unknown #
coedge $-1 -1 $-1 $18 $25 $47 $52 reversed $9 $-1 #
vertex $-1 -1 $-1 $30 $53 #
vertex $-1 -1 $-1 $27 $54 #
ellipse-curve $-1 -1 $-1 656.7975719149874294 -16063.9665735982926 14000.00000000001819 0 0 1 121.9687500005567529 19514.61884433689556 0 1 F 0 F 0.01250008138138376454 #
face $-1 -1 $-1 $-1 $55 $3 $-1 $56 reversed single #
loop $-1 -1 $-1 $48 $57 $20 #
plane-surface $-1 -1 $-1 784.8288219153664613 4420.633325241075909 14000.00000000000364 0.9999804685592618148 -0.006249999999948169412 2.072258962898871903e-19 6.316368686696446722e-17 0 -304.8000000000000114 forward_v I I I I #
coedge $-1 -1 $-1 $58 $59 $60 $61 forward $21 $-1 #
coedge $-1 -1 $-1 $24 $24 $58 $62 forward $13 $-1 #
coedge $-1 -1 $-1 $60 $63 $24 $43 reversed $55 $-1 #
edge $-1 -1 $-1 $64 -7.571030602498330147e-31 $65 3.141592653589788231 $42 $66 forward @7 unknown #
edge $-1 -1 $-1 $45 1.289917827171620192e-16 $49 0.01250008138140598288 $28 $67 forward @7 unknown #
vertex $-1 -1 $-1 $32 $68 #
ellipse-curve $-1 -1 $-1 531.7975719153903356 3935.642797989836708 14000.00000000001819 0.9999804685592618148 0.006249999999943597548 1.370271735381975885e-17 -3.031249999972645437 484.9905272512420424 2.165734258596785447e-12 1 F 0 F 3.141592653589788675 #
coedge $-1 -1 $-1 $29 $29 $33 $52 forward $48 $-1 #
loop $-1 -1 $-1 $-1 $29 $20 #
vertex $-1 -1 $-1 $52 $69 #
ellipse-curve $-1 -1 $-1 781.7975719153914724 3935.642797989834435 14000.00000000001819 0.9999804685592617037 -0.006249999999948341149 2.370570102210744194e-16 3.031249999974946263 484.9905272512420424 -1.082867129298392683e-11 1 I I #
ellipse-curve $-1 -1 $-1 531.7975719153903356 3935.642797989836708 14000.00000000001819 -0.9999804685592618148 -0.006249999999943597548 -4.179328792915026411e-17 3.031249999972645437 -484.9905272512420424 -2.165734258596785447e-12 1 I I #
edge $-1 -1 $-1 $34 4.018888314921869106e-14 $49 3.141592653589850848 $33 $70 forward @7 unknown #
point $-1 -1 $-1 778.7663219154165972 3450.652270738592506 14000.00000000000182 #
point $-1 -1 $-1 534.8288219153630507 3450.652270738594325 14000.00000000001819 #
loop $-1 -1 $-1 $-1 $60 $37 #
torus-surface $-1 -1 $-1 656.797571915342246 -16063.96657336838507 14000.00000000001455 0 0 -1 20000.00000017299317 -439.9999999999996589 -1 0 0 forward_v I I I I #
coedge $-1 -1 $-1 $71 $71 $72 $73 forward $38 $-1 #
coedge $-1 -1 $-1 $74 $40 $41 $62 reversed $21 $-1 #
coedge $-1 -1 $-1 $40 $74 $71 $75 reversed $21 $-1 #
coedge $-1 -1 $-1 $72 $42 $40 $61 reversed $55 $-1 #
edge $-1 -1 $-1 $76 0 $64 0.01250008138147889677 $60 $77 forward @7 unknown #
edge $-1 -1 $-1 $65 -1.968849325997077347e-14 $64 3.141592653589793116 $58 $78 forward @7 unknown #
coedge $-1 -1 $-1 $42 $72 $74 $79 reversed $55 $-1 #
vertex $-1 -1 $-1 $61 $80 #
vertex $-1 -1 $-1 $43 $81 #
ellipse-curve $-1 -1 $-1 531.7975719153905629 3935.642797989836708 14000.00000000001455 -0.9999804685592618148 -0.006249999999943511679 -3.870862824488118744e-17 -2.749999999975145659 439.9914061660753077 2.165734258596785447e-12 1 F -7.571030602498330147e-31 F 3.141592653589788231 #
ellipse-curve $-1 -1 $-1 656.7975719153916998 -16063.96657357331242 14000.00000000000728 0 0 -1 -128.0312499999766374 20484.59989881439469 0 1 F 1.289917827171620192e-16 F 0.01250008138140598288 #
point $-1 -1 $-1 528.7663219154177341 4420.633325241078637 14000.00000000002183 #
point $-1 -1 $-1 784.8288219153664613 4420.633325241076818 14000.00000000000909 #
ellipse-curve $-1 -1 $-1 781.7975719153914724 3935.642797989834435 14000.00000000001819 -0.9999804685592617037 0.006249999999948341149 6.988385850447857688e-17 -3.031249999974946263 -484.9905272512420424 -1.949160832737107024e-11 1 F 4.018888314921869106e-14 F 3.141592653589850848 #
coedge $-1 -1 $-1 $57 $57 $59 $75 forward $38 $-1 #
coedge $-1 -1 $-1 $63 $60 $57 $73 reversed $55 $-1 #
edge $-1 -1 $-1 $82 3.028412240999332059e-30 $76 3.141592653589773576 $72 $83 forward @7 unknown #
coedge $-1 -1 $-1 $59 $58 $63 $79 forward $21 $-1 #
edge $-1 -1 $-1 $76 1.968849325997077347e-14 $82 3.141592653589827311 $59 $84 forward @7 unknown #
vertex $-1 -1 $-1 $61 $85 #
ellipse-curve $-1 -1 $-1 656.7975719150847453 -16063.96657345361746 14000.00000000001637 0 0 1 127.7500000004176428 20439.60077760953209 0 1 F 0 F 0.01250008138147889677 #
ellipse-curve $-1 -1 $-1 531.7975719153903356 3935.642797989836708 14000.00000000001455 -0.9999804685592618148 -0.006249999999943512546 -3.8708628244881095e-17 2.749999999975145659 -439.9914061660753077 -2.165734258596785447e-12 1 F -1.968849325997077347e-14 F 3.141592653589793116 #
edge $-1 -1 $-1 $65 1.414804005223923792e-16 $82 0.01250008138159993884 $63 $86 forward @7 unknown #
point $-1 -1 $-1 529.0475719155444949 4375.634204155920088 14000.00000000001637 #
point $-1 -1 $-1 534.5475719153656655 3495.65139182376106 14000.00000000000909 #
vertex $-1 -1 $-1 $79 $87 #
ellipse-curve $-1 -1 $-1 781.7975719153919272 3935.642797989834435 14000.00000000001455 0.9999804685592618148 -0.006249999999948433957 0 -2.749999999977311482 -439.9914061660753077 -1.082867129298392683e-11 1 F 3.028412240999332059e-30 F 3.141592653589773576 #
ellipse-curve $-1 -1 $-1 781.7975719153921546 3935.642797989834435 14000.00000000001455 0.9999804685592618148 -0.00624999999994843309 -2.289219949966046784e-17 2.749999999977311482 439.9914061660753077 -6.497202775790356746e-12 1 F 1.968849325997077347e-14 F 3.141592653589827311 #
point $-1 -1 $-1 784.5475719155024308 4375.63420415591554 14000.00000000001637 #
ellipse-curve $-1 -1 $-1 656.7975719153893124 -16063.96657326054265 14000.00000000000364 0 0 -1 -122.250000000026489 19559.61796508431144 0 1 F 1.414804005223923792e-16 F 0.01250008138159993884 #
point $-1 -1 $-1 779.0475719154156877 3495.651391823770609 14000.00000000000364 #
End-of-ACIS-data 